<?xml version="1.0" encoding="UTF-8" standalone="no"?>
<!DOCTYPE svg PUBLIC "-//W3C//DTD SVG 1.1//EN"
 "http://www.w3.org/Graphics/SVG/1.1/DTD/svg11.dtd">
<!-- Generated by graphviz version 8.0.5 (20230430.1635)
 -->
<!-- Title: Slic3r::ExtrusionMultiPath::collect_polylines Pages: 1 -->
<svg width="303pt" height="88pt"
 viewBox="0.00 0.00 302.50 87.50" xmlns="http://www.w3.org/2000/svg" xmlns:xlink="http://www.w3.org/1999/xlink">
<g id="graph0" class="graph" transform="scale(1 1) rotate(0) translate(4 83.5)">
<title>Slic3r::ExtrusionMultiPath::collect_polylines</title>
<!-- Node1 -->
<g id="Node000001" class="node">
<title>Node1</title>
<g id="a_Node000001"><a xlink:title=" ">
<polygon fill="#999999" stroke="#666666" points="129.25,-54.5 0,-54.5 0,-24 129.25,-24 129.25,-54.5"/>
<text text-anchor="start" x="8" y="-41" font-family="Helvetica,sans-Serif" font-size="10.00">Slic3r::ExtrusionMultiPath</text>
<text text-anchor="middle" x="64.62" y="-29.75" font-family="Helvetica,sans-Serif" font-size="10.00">::collect_polylines</text>
</a>
</g>
</g>
<!-- Node2 -->
<g id="Node000002" class="node">
<title>Node2</title>
<g id="a_Node000002"><a xlink:href="../../d9/de4/class_slic3r_1_1_extrusion_multi_path.html#aca43995b7e363a36d2e349b0a5083014" target="_top" xlink:title=" ">
<polygon fill="white" stroke="#666666" points="294.5,-79.5 165.25,-79.5 165.25,-49 294.5,-49 294.5,-79.5"/>
<text text-anchor="start" x="173.25" y="-66" font-family="Helvetica,sans-Serif" font-size="10.00">Slic3r::ExtrusionMultiPath</text>
<text text-anchor="middle" x="229.88" y="-54.75" font-family="Helvetica,sans-Serif" font-size="10.00">::as_polyline</text>
</a>
</g>
</g>
<!-- Node1&#45;&gt;Node2 -->
<g id="edge1_Node000001_Node000002" class="edge">
<title>Node1&#45;&gt;Node2</title>
<g id="a_edge1_Node000001_Node000002"><a xlink:title=" ">
<path fill="none" stroke="#63b8ff" d="M129.68,-49.06C137.75,-50.3 146.07,-51.57 154.29,-52.83"/>
<polygon fill="#63b8ff" stroke="#63b8ff" points="153.59,-56.42 164.01,-54.47 154.65,-49.5 153.59,-56.42"/>
</a>
</g>
</g>
<!-- Node3 -->
<g id="Node000003" class="node">
<title>Node3</title>
<g id="a_Node000003"><a xlink:href="../../d7/dd1/class_slic3r_1_1_multi_point.html#aba6057e668b1b0afa59df15e3bdaa6d7" target="_top" xlink:title=" ">
<polygon fill="white" stroke="#666666" points="275,-30.5 184.75,-30.5 184.75,0 275,0 275,-30.5"/>
<text text-anchor="start" x="192.75" y="-17" font-family="Helvetica,sans-Serif" font-size="10.00">Slic3r::MultiPoint</text>
<text text-anchor="middle" x="229.88" y="-5.75" font-family="Helvetica,sans-Serif" font-size="10.00">::empty</text>
</a>
</g>
</g>
<!-- Node1&#45;&gt;Node3 -->
<g id="edge2_Node000001_Node000003" class="edge">
<title>Node1&#45;&gt;Node3</title>
<g id="a_edge2_Node000001_Node000003"><a xlink:title=" ">
<path fill="none" stroke="#63b8ff" d="M129.68,-29.83C144.34,-27.68 159.8,-25.41 174.03,-23.31"/>
<polygon fill="#63b8ff" stroke="#63b8ff" points="174.26,-26.67 183.65,-21.75 173.25,-19.74 174.26,-26.67"/>
</a>
</g>
</g>
</g>
</svg>
