<?xml version="1.0" encoding="UTF-8" standalone="no"?>
<!DOCTYPE svg PUBLIC "-//W3C//DTD SVG 1.1//EN"
 "http://www.w3.org/Graphics/SVG/1.1/DTD/svg11.dtd">
<!-- Generated by graphviz version 8.0.5 (20230430.1635)
 -->
<!-- Title: Slic3r::GUI::View3D::delete_selected Pages: 1 -->
<svg width="931pt" height="625pt"
 viewBox="0.00 0.00 930.50 625.12" xmlns="http://www.w3.org/2000/svg" xmlns:xlink="http://www.w3.org/1999/xlink">
<g id="graph0" class="graph" transform="scale(1 1) rotate(0) translate(4 621.12)">
<title>Slic3r::GUI::View3D::delete_selected</title>
<!-- Node1 -->
<g id="Node000001" class="node">
<title>Node1</title>
<g id="a_Node000001"><a xlink:title=" ">
<polygon fill="#999999" stroke="#666666" points="105.25,-335.12 0,-335.12 0,-304.62 105.25,-304.62 105.25,-335.12"/>
<text text-anchor="start" x="8" y="-321.62" font-family="Helvetica,sans-Serif" font-size="10.00">Slic3r::GUI::View3D</text>
<text text-anchor="middle" x="52.62" y="-310.38" font-family="Helvetica,sans-Serif" font-size="10.00">::delete_selected</text>
</a>
</g>
</g>
<!-- Node2 -->
<g id="Node000002" class="node">
<title>Node2</title>
<g id="a_Node000002"><a xlink:href="../../d0/d2b/class_slic3r_1_1_g_u_i_1_1_g_l_canvas3_d.html#a8e1d3330950b26ebcc7560a2c2dbfc36" target="_top" xlink:title=" ">
<polygon fill="white" stroke="#666666" points="271.25,-335.12 141.25,-335.12 141.25,-304.62 271.25,-304.62 271.25,-335.12"/>
<text text-anchor="start" x="149.25" y="-321.62" font-family="Helvetica,sans-Serif" font-size="10.00">Slic3r::GUI::GLCanvas3D</text>
<text text-anchor="middle" x="206.25" y="-310.38" font-family="Helvetica,sans-Serif" font-size="10.00">::delete_selected</text>
</a>
</g>
</g>
<!-- Node1&#45;&gt;Node2 -->
<g id="edge1_Node000001_Node000002" class="edge">
<title>Node1&#45;&gt;Node2</title>
<g id="a_edge1_Node000001_Node000002"><a xlink:title=" ">
<path fill="none" stroke="#63b8ff" d="M105.38,-319.88C113.32,-319.88 121.64,-319.88 129.96,-319.88"/>
<polygon fill="#63b8ff" stroke="#63b8ff" points="129.85,-323.38 139.85,-319.88 129.85,-316.38 129.85,-323.38"/>
</a>
</g>
</g>
<!-- Node3 -->
<g id="Node000003" class="node">
<title>Node3</title>
<g id="a_Node000003"><a xlink:href="../../dd/d6a/class_slic3r_1_1_g_u_i_1_1_selection.html#a1a12a1e60244e4bb9901ba2f26b52d8c" target="_top" xlink:title=" ">
<polygon fill="white" stroke="#666666" points="418.5,-335.12 307.25,-335.12 307.25,-304.62 418.5,-304.62 418.5,-335.12"/>
<text text-anchor="start" x="315.25" y="-321.62" font-family="Helvetica,sans-Serif" font-size="10.00">Slic3r::GUI::Selection</text>
<text text-anchor="middle" x="362.88" y="-310.38" font-family="Helvetica,sans-Serif" font-size="10.00">::erase</text>
</a>
</g>
</g>
<!-- Node2&#45;&gt;Node3 -->
<g id="edge2_Node000002_Node000003" class="edge">
<title>Node2&#45;&gt;Node3</title>
<g id="a_edge2_Node000002_Node000003"><a xlink:title=" ">
<path fill="none" stroke="#63b8ff" d="M271.48,-319.88C279.58,-319.88 287.88,-319.88 296.01,-319.88"/>
<polygon fill="#63b8ff" stroke="#63b8ff" points="295.94,-323.38 305.94,-319.88 295.94,-316.38 295.94,-323.38"/>
</a>
</g>
</g>
<!-- Node4 -->
<g id="Node000004" class="node">
<title>Node4</title>
<g id="a_Node000004"><a xlink:href="../../dd/d6a/class_slic3r_1_1_g_u_i_1_1_selection.html#ab4b2e29bab0934e2440b019fda15e9e6" target="_top" xlink:title=" ">
<polygon fill="white" stroke="#666666" points="581.5,-589.12 459.75,-589.12 459.75,-558.62 581.5,-558.62 581.5,-589.12"/>
<text text-anchor="start" x="467.75" y="-575.62" font-family="Helvetica,sans-Serif" font-size="10.00">Slic3r::GUI::Selection</text>
<text text-anchor="middle" x="520.62" y="-564.38" font-family="Helvetica,sans-Serif" font-size="10.00">::ensure_not_below_bed</text>
</a>
</g>
</g>
<!-- Node3&#45;&gt;Node4 -->
<g id="edge3_Node000003_Node000004" class="edge">
<title>Node3&#45;&gt;Node4</title>
<g id="a_edge3_Node000003_Node000004"><a xlink:title=" ">
<path fill="none" stroke="#63b8ff" d="M366.42,-335.54C373.53,-374.78 396.98,-478.56 454.5,-540.88 458.53,-545.24 463.27,-549.11 468.32,-552.53"/>
<polygon fill="#63b8ff" stroke="#63b8ff" points="466.3,-556 476.66,-558.19 469.92,-550.01 466.3,-556"/>
</a>
</g>
</g>
<!-- Node8 -->
<g id="Node000008" class="node">
<title>Node8</title>
<g id="a_Node000008"><a xlink:href="../../dd/d6a/class_slic3r_1_1_g_u_i_1_1_selection.html#aac57a06d5a40d72888055487c90eb19a" target="_top" xlink:title=" ">
<polygon fill="white" stroke="#666666" points="754.62,-544.12 643.38,-544.12 643.38,-513.62 754.62,-513.62 754.62,-544.12"/>
<text text-anchor="start" x="651.38" y="-530.62" font-family="Helvetica,sans-Serif" font-size="10.00">Slic3r::GUI::Selection</text>
<text text-anchor="middle" x="699" y="-519.38" font-family="Helvetica,sans-Serif" font-size="10.00">::get_instance_idx</text>
</a>
</g>
</g>
<!-- Node3&#45;&gt;Node8 -->
<g id="edge7_Node000003_Node000008" class="edge">
<title>Node3&#45;&gt;Node8</title>
<g id="a_edge7_Node000003_Node000008"><a xlink:title=" ">
<path fill="none" stroke="#63b8ff" d="M366.87,-335.5C374.51,-370.68 398.22,-456.12 454.5,-495.88 506.06,-532.3 579.37,-537.64 632.06,-535.66"/>
<polygon fill="#63b8ff" stroke="#63b8ff" points="632.16,-539.11 641.98,-535.14 631.82,-532.12 632.16,-539.11"/>
</a>
</g>
</g>
<!-- Node9 -->
<g id="Node000009" class="node">
<title>Node9</title>
<g id="a_Node000009"><a xlink:href="../../dd/d6a/class_slic3r_1_1_g_u_i_1_1_selection.html#a408736c0666417e25319884538f2a861" target="_top" xlink:title=" ">
<polygon fill="white" stroke="#666666" points="754.62,-495.12 643.38,-495.12 643.38,-464.62 754.62,-464.62 754.62,-495.12"/>
<text text-anchor="start" x="651.38" y="-481.62" font-family="Helvetica,sans-Serif" font-size="10.00">Slic3r::GUI::Selection</text>
<text text-anchor="middle" x="699" y="-470.38" font-family="Helvetica,sans-Serif" font-size="10.00">::get_object_idx</text>
</a>
</g>
</g>
<!-- Node3&#45;&gt;Node9 -->
<g id="edge8_Node000003_Node000009" class="edge">
<title>Node3&#45;&gt;Node9</title>
<g id="a_edge8_Node000003_Node000009"><a xlink:title=" ">
<path fill="none" stroke="#63b8ff" d="M368.11,-335.49C377.57,-367 403.71,-437.75 454.5,-467.88 508.03,-499.62 580.4,-498.86 632.31,-492.46"/>
<polygon fill="#63b8ff" stroke="#63b8ff" points="632.61,-495.81 642.06,-491.02 631.68,-488.88 632.61,-495.81"/>
</a>
</g>
</g>
<!-- Node10 -->
<g id="Node000010" class="node">
<title>Node10</title>
<g id="a_Node000010"><a xlink:href="../../dd/d6a/class_slic3r_1_1_g_u_i_1_1_selection.html#a8155f6324763fc6c5a2b91d67345bdd1" target="_top" xlink:title=" ">
<polygon fill="white" stroke="#666666" points="576.25,-335.12 465,-335.12 465,-304.62 576.25,-304.62 576.25,-335.12"/>
<text text-anchor="start" x="473" y="-321.62" font-family="Helvetica,sans-Serif" font-size="10.00">Slic3r::GUI::Selection</text>
<text text-anchor="middle" x="520.62" y="-310.38" font-family="Helvetica,sans-Serif" font-size="10.00">::is_mixed</text>
</a>
</g>
</g>
<!-- Node3&#45;&gt;Node10 -->
<g id="edge9_Node000003_Node000010" class="edge">
<title>Node3&#45;&gt;Node10</title>
<g id="a_edge9_Node000003_Node000010"><a xlink:title=" ">
<path fill="none" stroke="#63b8ff" d="M418.79,-319.88C430.07,-319.88 442.06,-319.88 453.68,-319.88"/>
<polygon fill="#63b8ff" stroke="#63b8ff" points="453.68,-323.38 463.68,-319.88 453.68,-316.38 453.68,-323.38"/>
</a>
</g>
</g>
<!-- Node11 -->
<g id="Node000011" class="node">
<title>Node11</title>
<g id="a_Node000011"><a xlink:href="../../dd/d6a/class_slic3r_1_1_g_u_i_1_1_selection.html#a6119103a617ac3df5d852f3449bb1f8a" target="_top" xlink:title=" ">
<polygon fill="white" stroke="#666666" points="584.88,-286.12 456.38,-286.12 456.38,-255.62 584.88,-255.62 584.88,-286.12"/>
<text text-anchor="start" x="464.38" y="-272.62" font-family="Helvetica,sans-Serif" font-size="10.00">Slic3r::GUI::Selection</text>
<text text-anchor="middle" x="520.62" y="-261.38" font-family="Helvetica,sans-Serif" font-size="10.00">::is_multiple_full_instance</text>
</a>
</g>
</g>
<!-- Node3&#45;&gt;Node11 -->
<g id="edge10_Node000003_Node000011" class="edge">
<title>Node3&#45;&gt;Node11</title>
<g id="a_edge10_Node000003_Node000011"><a xlink:title=" ">
<path fill="none" stroke="#63b8ff" d="M413.58,-304.24C428.12,-299.66 444.18,-294.61 459.3,-289.85"/>
<polygon fill="#63b8ff" stroke="#63b8ff" points="460.1,-292.96 468.59,-286.62 458,-286.28 460.1,-292.96"/>
</a>
</g>
</g>
<!-- Node12 -->
<g id="Node000012" class="node">
<title>Node12</title>
<g id="a_Node000012"><a xlink:href="../../dd/d6a/class_slic3r_1_1_g_u_i_1_1_selection.html#ae0e04e33860b88e78270e5585a9b2390" target="_top" xlink:title=" ">
<polygon fill="white" stroke="#666666" points="579.62,-237.12 461.62,-237.12 461.62,-206.62 579.62,-206.62 579.62,-237.12"/>
<text text-anchor="start" x="469.62" y="-223.62" font-family="Helvetica,sans-Serif" font-size="10.00">Slic3r::GUI::Selection</text>
<text text-anchor="middle" x="520.62" y="-212.38" font-family="Helvetica,sans-Serif" font-size="10.00">::is_multiple_full_object</text>
</a>
</g>
</g>
<!-- Node3&#45;&gt;Node12 -->
<g id="edge11_Node000003_Node000012" class="edge">
<title>Node3&#45;&gt;Node12</title>
<g id="a_edge11_Node000003_Node000012"><a xlink:title=" ">
<path fill="none" stroke="#63b8ff" d="M380.08,-304.18C397.38,-288.1 426.13,-263.2 454.5,-246.88 457.35,-245.24 460.32,-243.66 463.37,-242.16"/>
<polygon fill="#63b8ff" stroke="#63b8ff" points="464.63,-244.97 472.25,-237.61 461.7,-238.62 464.63,-244.97"/>
</a>
</g>
</g>
<!-- Node13 -->
<g id="Node000013" class="node">
<title>Node13</title>
<g id="a_Node000013"><a xlink:href="../../dd/d6a/class_slic3r_1_1_g_u_i_1_1_selection.html#a908703e9467c6f5764bd4b04199f2d57" target="_top" xlink:title=" ">
<polygon fill="white" stroke="#666666" points="580.75,-459.12 460.5,-459.12 460.5,-428.62 580.75,-428.62 580.75,-459.12"/>
<text text-anchor="start" x="468.5" y="-445.62" font-family="Helvetica,sans-Serif" font-size="10.00">Slic3r::GUI::Selection</text>
<text text-anchor="middle" x="520.62" y="-434.38" font-family="Helvetica,sans-Serif" font-size="10.00">::is_single_full_instance</text>
</a>
</g>
</g>
<!-- Node3&#45;&gt;Node13 -->
<g id="edge12_Node000003_Node000013" class="edge">
<title>Node3&#45;&gt;Node13</title>
<g id="a_edge12_Node000003_Node000013"><a xlink:title=" ">
<path fill="none" stroke="#63b8ff" d="M375.56,-335.49C391.52,-355.94 421.9,-391.89 454.5,-414.88 458.88,-417.96 463.63,-420.83 468.52,-423.47"/>
<polygon fill="#63b8ff" stroke="#63b8ff" points="466.5,-426.88 477,-428.26 469.65,-420.63 466.5,-426.88"/>
</a>
</g>
</g>
<!-- Node15 -->
<g id="Node000015" class="node">
<title>Node15</title>
<g id="a_Node000015"><a xlink:href="../../d5/d87/class_slic3r_1_1_g_l_volume.html#ab374fce7b3b412f6549fbfef767a5e6e" target="_top" xlink:title=" ">
<polygon fill="white" stroke="#666666" points="770,-409.5 628,-409.5 628,-390.25 770,-390.25 770,-409.5"/>
<text text-anchor="middle" x="699" y="-396" font-family="Helvetica,sans-Serif" font-size="10.00">Slic3r::GLVolume::object_idx</text>
</a>
</g>
</g>
<!-- Node3&#45;&gt;Node15 -->
<g id="edge19_Node000003_Node000015" class="edge">
<title>Node3&#45;&gt;Node15</title>
<g id="a_edge19_Node000003_Node000015"><a xlink:title=" ">
<path fill="none" stroke="#63b8ff" d="M389.08,-335.54C406.75,-345.78 431.27,-358.58 454.5,-365.88 507.22,-382.43 568.89,-390.93 616.98,-395.3"/>
<polygon fill="#63b8ff" stroke="#63b8ff" points="616.38,-398.85 626.64,-396.22 616.98,-391.87 616.38,-398.85"/>
</a>
</g>
</g>
<!-- Node16 -->
<g id="Node000016" class="node">
<title>Node16</title>
<g id="a_Node000016"><a xlink:href="../../d5/d87/class_slic3r_1_1_g_l_volume.html#a7535e2206988f966f305b79d81e1d50e" target="_top" xlink:title=" ">
<polygon fill="white" stroke="#666666" points="772.62,-372.5 625.38,-372.5 625.38,-353.25 772.62,-353.25 772.62,-372.5"/>
<text text-anchor="middle" x="699" y="-359" font-family="Helvetica,sans-Serif" font-size="10.00">Slic3r::GLVolume::volume_idx</text>
</a>
</g>
</g>
<!-- Node3&#45;&gt;Node16 -->
<g id="edge23_Node000003_Node000016" class="edge">
<title>Node3&#45;&gt;Node16</title>
<g id="a_edge23_Node000003_Node000016"><a xlink:title=" ">
<path fill="none" stroke="#63b8ff" d="M416.71,-335.59C429.02,-338.77 442.14,-341.77 454.5,-343.88 507.24,-352.84 567.15,-357.58 614.34,-360.09"/>
<polygon fill="#63b8ff" stroke="#63b8ff" points="613.96,-363.63 624.13,-360.63 614.31,-356.63 613.96,-363.63"/>
</a>
</g>
</g>
<!-- Node17 -->
<g id="Node000017" class="node">
<title>Node17</title>
<g id="a_Node000017"><a xlink:href="../../dd/d6a/class_slic3r_1_1_g_u_i_1_1_selection.html#acaf607a68ea3b216529dc5b1c04cd097" target="_top" xlink:title=" ">
<polygon fill="white" stroke="#666666" points="576.25,-188.12 465,-188.12 465,-157.62 576.25,-157.62 576.25,-188.12"/>
<text text-anchor="start" x="473" y="-174.62" font-family="Helvetica,sans-Serif" font-size="10.00">Slic3r::GUI::Selection</text>
<text text-anchor="middle" x="520.62" y="-163.38" font-family="Helvetica,sans-Serif" font-size="10.00">::is_single_full_object</text>
</a>
</g>
</g>
<!-- Node3&#45;&gt;Node17 -->
<g id="edge18_Node000003_Node000017" class="edge">
<title>Node3&#45;&gt;Node17</title>
<g id="a_edge18_Node000003_Node000017"><a xlink:title=" ">
<path fill="none" stroke="#63b8ff" d="M371.73,-304.15C385.28,-278.5 415.41,-227.54 454.5,-197.88 456.38,-196.45 458.35,-195.09 460.39,-193.81"/>
<polygon fill="#63b8ff" stroke="#63b8ff" points="461.66,-196.55 468.68,-188.61 458.25,-190.44 461.66,-196.55"/>
</a>
</g>
</g>
<!-- Node18 -->
<g id="Node000018" class="node">
<title>Node18</title>
<g id="a_Node000018"><a xlink:href="../../d0/d2b/class_slic3r_1_1_g_u_i_1_1_g_l_canvas3_d.html#a5e05ff25a64dd7460d20b205feb756ba" target="_top" xlink:title=" ">
<polygon fill="white" stroke="#666666" points="585.62,-139.12 455.62,-139.12 455.62,-108.62 585.62,-108.62 585.62,-139.12"/>
<text text-anchor="start" x="463.62" y="-125.62" font-family="Helvetica,sans-Serif" font-size="10.00">Slic3r::GUI::GLCanvas3D</text>
<text text-anchor="middle" x="520.62" y="-114.38" font-family="Helvetica,sans-Serif" font-size="10.00">::request_extra_frame</text>
</a>
</g>
</g>
<!-- Node3&#45;&gt;Node18 -->
<g id="edge20_Node000003_Node000018" class="edge">
<title>Node3&#45;&gt;Node18</title>
<g id="a_edge20_Node000003_Node000018"><a xlink:title=" ">
<path fill="none" stroke="#63b8ff" d="M368.05,-304.31C377.72,-271.16 404.71,-192.99 454.5,-148.88 455.9,-147.63 457.37,-146.45 458.9,-145.32"/>
<polygon fill="#63b8ff" stroke="#63b8ff" points="460.57,-147.77 467.14,-139.46 456.82,-141.86 460.57,-147.77"/>
</a>
</g>
</g>
<!-- Node19 -->
<g id="Node000019" class="node">
<title>Node19</title>
<g id="a_Node000019"><a xlink:href="../../d0/d2b/class_slic3r_1_1_g_u_i_1_1_g_l_canvas3_d.html#a745974a717782953562081bf627634de" target="_top" xlink:title=" ">
<polygon fill="white" stroke="#666666" points="585.62,-90.12 455.62,-90.12 455.62,-59.62 585.62,-59.62 585.62,-90.12"/>
<text text-anchor="start" x="463.62" y="-76.62" font-family="Helvetica,sans-Serif" font-size="10.00">Slic3r::GUI::GLCanvas3D</text>
<text text-anchor="middle" x="520.62" y="-65.38" font-family="Helvetica,sans-Serif" font-size="10.00">::set_as_dirty</text>
</a>
</g>
</g>
<!-- Node3&#45;&gt;Node19 -->
<g id="edge21_Node000003_Node000019" class="edge">
<title>Node3&#45;&gt;Node19</title>
<g id="a_edge21_Node000003_Node000019"><a xlink:title=" ">
<path fill="none" stroke="#63b8ff" d="M366.02,-304.2C372.24,-264.52 393.9,-159.02 454.5,-99.88 455.66,-98.74 456.89,-97.65 458.16,-96.61"/>
<polygon fill="#63b8ff" stroke="#63b8ff" points="459.88,-98.99 466.13,-90.44 455.91,-93.22 459.88,-98.99"/>
</a>
</g>
</g>
<!-- Node20 -->
<g id="Node000020" class="node">
<title>Node20</title>
<g id="a_Node000020"><a xlink:href="../../d0/d2b/class_slic3r_1_1_g_u_i_1_1_g_l_canvas3_d.html#aa867927dc7fc93f570b8785a42e394e6" target="_top" xlink:title=" ">
<polygon fill="white" stroke="#666666" points="586.75,-41.75 454.5,-41.75 454.5,0 586.75,0 586.75,-41.75"/>
<text text-anchor="start" x="462.5" y="-28.25" font-family="Helvetica,sans-Serif" font-size="10.00">Slic3r::GUI::GLCanvas3D</text>
<text text-anchor="start" x="462.5" y="-17" font-family="Helvetica,sans-Serif" font-size="10.00">::set_sequential_clearance</text>
<text text-anchor="middle" x="520.62" y="-5.75" font-family="Helvetica,sans-Serif" font-size="10.00">_as_evaluating</text>
</a>
</g>
</g>
<!-- Node3&#45;&gt;Node20 -->
<g id="edge22_Node000003_Node000020" class="edge">
<title>Node3&#45;&gt;Node20</title>
<g id="a_edge22_Node000003_Node000020"><a xlink:title=" ">
<path fill="none" stroke="#63b8ff" d="M364.9,-304.4C368.66,-259.55 385.33,-127.85 454.5,-50.88 455.05,-50.27 455.61,-49.67 456.18,-49.09"/>
<polygon fill="#63b8ff" stroke="#63b8ff" points="458.02,-51.27 463.33,-42.1 453.46,-45.95 458.02,-51.27"/>
</a>
</g>
</g>
<!-- Node5 -->
<g id="Node000005" class="node">
<title>Node5</title>
<g id="a_Node000005"><a xlink:href="../../dd/d6a/class_slic3r_1_1_g_u_i_1_1_selection.html#ac7d7629a125df311925a841b67a0714e" target="_top" xlink:title=" ">
<polygon fill="white" stroke="#666666" points="754.62,-593.12 643.38,-593.12 643.38,-562.62 754.62,-562.62 754.62,-593.12"/>
<text text-anchor="start" x="651.38" y="-579.62" font-family="Helvetica,sans-Serif" font-size="10.00">Slic3r::GUI::Selection</text>
<text text-anchor="middle" x="699" y="-568.38" font-family="Helvetica,sans-Serif" font-size="10.00">::is_any_volume</text>
</a>
</g>
</g>
<!-- Node4&#45;&gt;Node5 -->
<g id="edge4_Node000004_Node000005" class="edge">
<title>Node4&#45;&gt;Node5</title>
<g id="a_edge4_Node000004_Node000005"><a xlink:title=" ">
<path fill="none" stroke="#63b8ff" d="M581.83,-575.24C598.12,-575.61 615.83,-576.01 632.4,-576.39"/>
<polygon fill="#63b8ff" stroke="#63b8ff" points="632.02,-579.9 642.1,-576.63 632.18,-572.9 632.02,-579.9"/>
</a>
</g>
</g>
<!-- Node6 -->
<g id="Node000006" class="node">
<title>Node6</title>
<g id="a_Node000006"><a xlink:href="../../dd/d6a/class_slic3r_1_1_g_u_i_1_1_selection.html#a6ddb3606e20fea7d7b7e0cb5f1167da2" target="_top" xlink:title=" ">
<polygon fill="white" stroke="#666666" points="922.5,-617.12 811.25,-617.12 811.25,-586.62 922.5,-586.62 922.5,-617.12"/>
<text text-anchor="start" x="819.25" y="-603.62" font-family="Helvetica,sans-Serif" font-size="10.00">Slic3r::GUI::Selection</text>
<text text-anchor="middle" x="866.88" y="-592.38" font-family="Helvetica,sans-Serif" font-size="10.00">::is_multiple_volume</text>
</a>
</g>
</g>
<!-- Node5&#45;&gt;Node6 -->
<g id="edge5_Node000005_Node000006" class="edge">
<title>Node5&#45;&gt;Node6</title>
<g id="a_edge5_Node000005_Node000006"><a xlink:title=" ">
<path fill="none" stroke="#63b8ff" d="M754.77,-585.8C769.28,-587.9 785.08,-590.19 800.11,-592.36"/>
<polygon fill="#63b8ff" stroke="#63b8ff" points="799.48,-595.95 809.88,-593.92 800.48,-589.02 799.48,-595.95"/>
</a>
</g>
</g>
<!-- Node7 -->
<g id="Node000007" class="node">
<title>Node7</title>
<g id="a_Node000007"><a xlink:href="../../dd/d6a/class_slic3r_1_1_g_u_i_1_1_selection.html#a57effed0bead7d6d05fbb184f32fcae7" target="_top" xlink:title=" ">
<polygon fill="white" stroke="#666666" points="922.5,-568.12 811.25,-568.12 811.25,-537.62 922.5,-537.62 922.5,-568.12"/>
<text text-anchor="start" x="819.25" y="-554.62" font-family="Helvetica,sans-Serif" font-size="10.00">Slic3r::GUI::Selection</text>
<text text-anchor="middle" x="866.88" y="-543.38" font-family="Helvetica,sans-Serif" font-size="10.00">::is_single_volume</text>
</a>
</g>
</g>
<!-- Node5&#45;&gt;Node7 -->
<g id="edge6_Node000005_Node000007" class="edge">
<title>Node5&#45;&gt;Node7</title>
<g id="a_edge6_Node000005_Node000007"><a xlink:title=" ">
<path fill="none" stroke="#63b8ff" d="M754.77,-569.62C769.28,-567.43 785.08,-565.05 800.11,-562.79"/>
<polygon fill="#63b8ff" stroke="#63b8ff" points="800.51,-566.12 809.88,-561.16 799.47,-559.19 800.51,-566.12"/>
</a>
</g>
</g>
<!-- Node13&#45;&gt;Node8 -->
<g id="edge13_Node000013_Node000008" class="edge">
<title>Node13&#45;&gt;Node8</title>
<g id="a_edge13_Node000013_Node000008"><a xlink:title=" ">
<path fill="none" stroke="#63b8ff" d="M544.55,-459.42C564.56,-472.5 594.71,-491.08 622.75,-503.88 627.02,-505.82 631.49,-507.7 636.03,-509.48"/>
<polygon fill="#63b8ff" stroke="#63b8ff" points="634.43,-513 645.03,-513.24 636.9,-506.44 634.43,-513"/>
</a>
</g>
</g>
<!-- Node13&#45;&gt;Node9 -->
<g id="edge14_Node000013_Node000009" class="edge">
<title>Node13&#45;&gt;Node9</title>
<g id="a_edge14_Node000013_Node000009"><a xlink:title=" ">
<path fill="none" stroke="#63b8ff" d="M580.85,-455.96C597.5,-459.36 615.71,-463.08 632.7,-466.55"/>
<polygon fill="#63b8ff" stroke="#63b8ff" points="631.6,-470.1 642.1,-468.67 633,-463.24 631.6,-470.1"/>
</a>
</g>
</g>
<!-- Node14 -->
<g id="Node000014" class="node">
<title>Node14</title>
<g id="a_Node000014"><a xlink:href="../../d5/d87/class_slic3r_1_1_g_l_volume.html#afacb9b6e317d6b6a626589159976c539" target="_top" xlink:title=" ">
<polygon fill="white" stroke="#666666" points="775.25,-446.5 622.75,-446.5 622.75,-427.25 775.25,-427.25 775.25,-446.5"/>
<text text-anchor="middle" x="699" y="-433" font-family="Helvetica,sans-Serif" font-size="10.00">Slic3r::GLVolume::instance_idx</text>
</a>
</g>
</g>
<!-- Node13&#45;&gt;Node14 -->
<g id="edge15_Node000013_Node000014" class="edge">
<title>Node13&#45;&gt;Node14</title>
<g id="a_edge15_Node000013_Node000014"><a xlink:title=" ">
<path fill="none" stroke="#63b8ff" d="M580.85,-441.52C590.72,-441.13 601.15,-440.72 611.54,-440.31"/>
<polygon fill="#63b8ff" stroke="#63b8ff" points="611.48,-443.77 621.33,-439.88 611.2,-436.78 611.48,-443.77"/>
</a>
</g>
</g>
<!-- Node13&#45;&gt;Node15 -->
<g id="edge16_Node000013_Node000015" class="edge">
<title>Node13&#45;&gt;Node15</title>
<g id="a_edge16_Node000013_Node000015"><a xlink:title=" ">
<path fill="none" stroke="#63b8ff" d="M581.2,-428.38C594.85,-424.88 609.29,-421.21 622.75,-417.88 629.85,-416.11 637.32,-414.29 644.7,-412.51"/>
<polygon fill="#63b8ff" stroke="#63b8ff" points="645.48,-415.68 654.39,-409.94 643.85,-408.87 645.48,-415.68"/>
</a>
</g>
</g>
<!-- Node13&#45;&gt;Node16 -->
<g id="edge17_Node000013_Node000016" class="edge">
<title>Node13&#45;&gt;Node16</title>
<g id="a_edge17_Node000013_Node000016"><a xlink:title=" ">
<path fill="none" stroke="#63b8ff" d="M542.23,-428.24C561.94,-413.99 592.98,-393.32 622.75,-380.88 626.93,-379.13 631.32,-377.53 635.79,-376.07"/>
<polygon fill="#63b8ff" stroke="#63b8ff" points="636.72,-379.14 645.29,-372.91 634.71,-372.43 636.72,-379.14"/>
</a>
</g>
</g>
</g>
</svg>
