<?xml version="1.0" encoding="UTF-8" standalone="no"?>
<!DOCTYPE svg PUBLIC "-//W3C//DTD SVG 1.1//EN"
 "http://www.w3.org/Graphics/SVG/1.1/DTD/svg11.dtd">
<!-- Generated by graphviz version 8.0.5 (20230430.1635)
 -->
<!-- Title: Slic3r::ExtrusionPath::as_polyline Pages: 1 -->
<!--zoomable 113 -->

<svg id="main" version="1.1" xmlns="http://www.w3.org/2000/svg" xmlns:xlink="http://www.w3.org/1999/xlink" xml:space="preserve" onload="init(evt)">
<style type="text/css"><![CDATA[
.node, .edge {opacity: 0.7;}
.node.selected, .edge.selected {opacity: 1;}
.edge:hover path { stroke: red; }
.edge:hover polygon { stroke: red; fill: red; }
]]></style>

<defs>
  <circle id="rim" cx="0" cy="0" r="7"/>
  <circle id="rim2" cx="0" cy="0" r="3.5"/>
  <g id="zoomPlus">
    <use xlink:href="#rim" fill="#404040"><set attributeName="fill" to="#808080" begin="zoomplus.mouseover" end="zoomplus.mouseout"/></use>
    <path d="M-4,0h8M0,-4v8" fill="none" stroke="white" stroke-width="1.5" pointer-events="none"/>
  </g>
  <g id="zoomMin">
    <use xlink:href="#rim" fill="#404040"><set attributeName="fill" to="#808080" begin="zoomminus.mouseover" end="zoomminus.mouseout"/></use>
    <path d="M-4,0h8" fill="none" stroke="white" stroke-width="1.5" pointer-events="none"/>
  </g>
  <g id="arrowUp" transform="translate(30 24)">
    <use xlink:href="#rim"/>
    <path pointer-events="none" fill="none" stroke="white" stroke-width="1.5" d="M0,-3.0v7 M-2.5,-0.5L0,-3.0L2.5,-0.5"/>
  </g>
  <g id="arrowRight" transform="rotate(90) translate(36 -43)">
    <use xlink:href="#rim"/>
    <path pointer-events="none" fill="none" stroke="white" stroke-width="1.5" d="M0,-3.0v7 M-2.5,-0.5L0,-3.0L2.5,-0.5"/>
  </g>
  <g id="arrowDown" transform="rotate(180) translate(-30 -48)">
    <use xlink:href="#rim"/>
    <path pointer-events="none" fill="none" stroke="white" stroke-width="1.5" d="M0,-3.0v7 M-2.5,-0.5L0,-3.0L2.5,-0.5"/>
  </g>
  <g id="arrowLeft" transform="rotate(270) translate(-36 17)">
    <use xlink:href="#rim"/>
    <path pointer-events="none" fill="none" stroke="white" stroke-width="1.5" d="M0,-3.0v7 M-2.5,-0.5L0,-3.0L2.5,-0.5"/>
  </g>
  <g id="resetDef">
    <use xlink:href="#rim2" fill="#404040"><set attributeName="fill" to="#808080" begin="reset.mouseover" end="reset.mouseout"/></use>
  </g>
</defs>
<script type="application/ecmascript">
var viewWidth = 865;
var viewHeight = 113;
var sectionId = 'dynsection-3';
</script>
<script type="application/ecmascript" xlink:href="../../svg.min.js"/>
<svg id="graph" class="graph">
<g id="viewport">
<title>Slic3r::ExtrusionPath::as_polyline</title>
<!-- Node1 -->
<g id="Node000001" class="node">
<title>Node1</title>
<g id="a_Node000001"><a xlink:title=" ">
<polygon fill="#999999" stroke="#666666" points="856.5,-54.5 748.25,-54.5 748.25,-24 856.5,-24 856.5,-54.5"/>
<text text-anchor="start" x="756.25" y="-41" font-family="Helvetica,sans-Serif" font-size="10.00">Slic3r::ExtrusionPath</text>
<text text-anchor="middle" x="802.38" y="-29.75" font-family="Helvetica,sans-Serif" font-size="10.00">::as_polyline</text>
</a>
</g>
</g>
<!-- Node2 -->
<g id="Node000002" class="node">
<title>Node2</title>
<g id="a_Node000002"><a xlink:href="../../de/db8/namespace_slic3r.html#abed3b02e01826206d2797e34311593aa" target="_top" xlink:title=" ">
<polygon fill="white" stroke="#666666" points="712.25,-48.88 612.25,-48.88 612.25,-29.62 712.25,-29.62 712.25,-48.88"/>
<text text-anchor="middle" x="662.25" y="-35.38" font-family="Helvetica,sans-Serif" font-size="10.00">Slic3r::paths_touch</text>
</a>
</g>
</g>
<!-- Node1&#45;&gt;Node2 -->
<g id="edge1_Node000001_Node000002" class="edge">
<title>Node1&#45;&gt;Node2</title>
<g id="a_edge1_Node000001_Node000002"><a xlink:title=" ">
<path fill="none" stroke="#63b8ff" d="M737.15,-39.25C728.85,-39.25 720.45,-39.25 712.44,-39.25"/>
<polygon fill="#63b8ff" stroke="#63b8ff" points="736.97,-42.75 746.97,-39.25 736.97,-35.75 736.97,-42.75"/>
</a>
</g>
</g>
<!-- Node3 -->
<g id="Node000003" class="node">
<title>Node3</title>
<g id="a_Node000003"><a xlink:href="../../de/db8/namespace_slic3r.html#afcbb939dc819394f0ba739fa717665fc" target="_top" xlink:title=" ">
<polygon fill="white" stroke="#666666" points="574.38,-79.5 484.12,-79.5 484.12,-49 574.38,-49 574.38,-79.5"/>
<text text-anchor="start" x="492.12" y="-66" font-family="Helvetica,sans-Serif" font-size="10.00">Slic3r::sort_extra</text>
<text text-anchor="middle" x="529.25" y="-54.75" font-family="Helvetica,sans-Serif" font-size="10.00">_perimeters</text>
</a>
</g>
</g>
<!-- Node2&#45;&gt;Node3 -->
<g id="edge2_Node000002_Node000003" class="edge">
<title>Node2&#45;&gt;Node3</title>
<g id="a_edge2_Node000002_Node000003"><a xlink:title=" ">
<path fill="none" stroke="#63b8ff" d="M601.53,-50.65C592.43,-52.38 583.19,-54.15 574.5,-55.81"/>
<polygon fill="#63b8ff" stroke="#63b8ff" points="601.93,-53.94 611.1,-48.63 600.62,-47.07 601.93,-53.94"/>
</a>
</g>
</g>
<!-- Node9 -->
<g id="Node000009" class="node">
<title>Node9</title>
<g id="a_Node000009"><a xlink:href="../../dc/d2c/namespace_slic3r_1_1_algorithm.html#a9c44439a7a46b21cef1853a87535d660" target="_top" xlink:title=" ">
<polygon fill="white" stroke="#666666" points="576.25,-30.5 482.25,-30.5 482.25,0 576.25,0 576.25,-30.5"/>
<text text-anchor="start" x="490.25" y="-17" font-family="Helvetica,sans-Serif" font-size="10.00">Slic3r::Algorithm::</text>
<text text-anchor="middle" x="529.25" y="-5.75" font-family="Helvetica,sans-Serif" font-size="10.00">sort_paths</text>
</a>
</g>
</g>
<!-- Node2&#45;&gt;Node9 -->
<g id="edge8_Node000002_Node000009" class="edge">
<title>Node2&#45;&gt;Node9</title>
<g id="a_edge8_Node000002_Node000009"><a xlink:title=" ">
<path fill="none" stroke="#63b8ff" d="M601.32,-28.27C593.04,-26.75 584.63,-25.21 576.64,-23.75"/>
<polygon fill="#63b8ff" stroke="#63b8ff" points="600.63,-31.89 611.1,-30.25 601.89,-25 600.63,-31.89"/>
</a>
</g>
</g>
<!-- Node4 -->
<g id="Node000004" class="node">
<title>Node4</title>
<g id="a_Node000004"><a xlink:href="../../de/db8/namespace_slic3r.html#a06a724a00fd8f8c4177b8d975567d5f4" target="_top" xlink:title=" ">
<polygon fill="white" stroke="#666666" points="446.25,-79.5 305,-79.5 305,-49 446.25,-49 446.25,-79.5"/>
<text text-anchor="start" x="313" y="-66" font-family="Helvetica,sans-Serif" font-size="10.00">Slic3r::generate_extra</text>
<text text-anchor="middle" x="375.62" y="-54.75" font-family="Helvetica,sans-Serif" font-size="10.00">_perimeters_over_overhangs</text>
</a>
</g>
</g>
<!-- Node3&#45;&gt;Node4 -->
<g id="edge3_Node000003_Node000004" class="edge">
<title>Node3&#45;&gt;Node4</title>
<g id="a_edge3_Node000003_Node000004"><a xlink:title=" ">
<path fill="none" stroke="#63b8ff" d="M473.27,-64.25C464.61,-64.25 455.56,-64.25 446.62,-64.25"/>
<polygon fill="#63b8ff" stroke="#63b8ff" points="472.99,-67.75 482.99,-64.25 472.99,-60.75 472.99,-67.75"/>
</a>
</g>
</g>
<!-- Node5 -->
<g id="Node000005" class="node">
<title>Node5</title>
<g id="a_Node000005"><a xlink:href="../../d7/d1d/namespace_slic3r_1_1_perimeter_generator.html#addff59b1baf2226279fa4bf543740526" target="_top" xlink:title=" ">
<polygon fill="white" stroke="#666666" points="269,-104.5 137.5,-104.5 137.5,-74 269,-74 269,-104.5"/>
<text text-anchor="start" x="145.5" y="-91" font-family="Helvetica,sans-Serif" font-size="10.00">Slic3r::PerimeterGenerator</text>
<text text-anchor="middle" x="203.25" y="-79.75" font-family="Helvetica,sans-Serif" font-size="10.00">::process_arachne</text>
</a>
</g>
</g>
<!-- Node4&#45;&gt;Node5 -->
<g id="edge4_Node000004_Node000005" class="edge">
<title>Node4&#45;&gt;Node5</title>
<g id="a_edge4_Node000004_Node000005"><a xlink:title=" ">
<path fill="none" stroke="#63b8ff" d="M294,-76.08C285.71,-77.3 277.36,-78.52 269.27,-79.71"/>
<polygon fill="#63b8ff" stroke="#63b8ff" points="294.45,-79.41 303.84,-74.49 293.43,-72.48 294.45,-79.41"/>
</a>
</g>
</g>
<!-- Node8 -->
<g id="Node000008" class="node">
<title>Node8</title>
<g id="a_Node000008"><a xlink:href="../../d7/d1d/namespace_slic3r_1_1_perimeter_generator.html#ad284d87ff9b979b90cbc47cc592d101a" target="_top" xlink:title=" ">
<polygon fill="white" stroke="#666666" points="269,-55.5 137.5,-55.5 137.5,-25 269,-25 269,-55.5"/>
<text text-anchor="start" x="145.5" y="-42" font-family="Helvetica,sans-Serif" font-size="10.00">Slic3r::PerimeterGenerator</text>
<text text-anchor="middle" x="203.25" y="-30.75" font-family="Helvetica,sans-Serif" font-size="10.00">::process_classic</text>
</a>
</g>
</g>
<!-- Node4&#45;&gt;Node8 -->
<g id="edge6_Node000004_Node000008" class="edge">
<title>Node4&#45;&gt;Node8</title>
<g id="a_edge6_Node000004_Node000008"><a xlink:title=" ">
<path fill="none" stroke="#63b8ff" d="M294,-52.89C285.71,-51.72 277.36,-50.55 269.27,-49.41"/>
<polygon fill="#63b8ff" stroke="#63b8ff" points="293.44,-56.49 303.84,-54.42 294.42,-49.56 293.44,-56.49"/>
</a>
</g>
</g>
<!-- Node6 -->
<g id="Node000006" class="node">
<title>Node6</title>
<g id="a_Node000006"><a xlink:href="../../dd/d90/class_slic3r_1_1_layer_region.html#a7f8ba90770f4cfeb3e0f0fe9606e7376" target="_top" xlink:title=" ">
<polygon fill="#fff0f0" stroke="red" points="101.5,-79.5 0,-79.5 0,-49 101.5,-49 101.5,-79.5"/>
<text text-anchor="start" x="8" y="-66" font-family="Helvetica,sans-Serif" font-size="10.00">Slic3r::LayerRegion</text>
<text text-anchor="middle" x="50.75" y="-54.75" font-family="Helvetica,sans-Serif" font-size="10.00">::make_perimeters</text>
</a>
</g>
</g>
<!-- Node5&#45;&gt;Node6 -->
<g id="edge5_Node000005_Node000006" class="edge">
<title>Node5&#45;&gt;Node6</title>
<g id="a_edge5_Node000005_Node000006"><a xlink:title=" ">
<path fill="none" stroke="#63b8ff" d="M126.44,-76.66C118,-75.25 109.56,-73.85 101.56,-72.52"/>
<polygon fill="#63b8ff" stroke="#63b8ff" points="125.68,-80.24 136.11,-78.43 126.82,-73.34 125.68,-80.24"/>
</a>
</g>
</g>
<!-- Node8&#45;&gt;Node6 -->
<g id="edge7_Node000008_Node000006" class="edge">
<title>Node8&#45;&gt;Node6</title>
<g id="a_edge7_Node000008_Node000006"><a xlink:title=" ">
<path fill="none" stroke="#63b8ff" d="M126.44,-52.34C118,-53.69 109.56,-55.03 101.56,-56.31"/>
<polygon fill="#63b8ff" stroke="#63b8ff" points="126.79,-55.67 136.11,-50.64 125.69,-48.76 126.79,-55.67"/>
</a>
</g>
</g>
</g>
</svg>

<g id="navigator" transform="translate(0 0)" fill="#404254">
  <rect fill="#f2f5e9" fill-opacity="0.5" stroke="#606060" stroke-width=".5" x="0" y="0" width="60" height="60"/>
  <use id="zoomplus" xlink:href="#zoomPlus" x="17" y="9" onmousedown="handleZoom(evt,'in')"/>
  <use id="zoomminus" xlink:href="#zoomMin" x="42" y="9" onmousedown="handleZoom(evt,'out')"/>
  <use id="reset" xlink:href="#resetDef" x="30" y="36" onmousedown="handleReset()"/>
   <use id="arrowup" xlink:href="#arrowUp" x="0" y="0" onmousedown="handlePan(0,-1)"/>
  <use id="arrowright" xlink:href="#arrowRight" x="0" y="0" onmousedown="handlePan(1,0)"/>
  <use id="arrowdown" xlink:href="#arrowDown" x="0" y="0" onmousedown="handlePan(0,1)"/>
  <use id="arrowleft" xlink:href="#arrowLeft" x="0" y="0" onmousedown="handlePan(-1,0)"/>
</g>
<svg viewBox="0 0 15 15" width="100%" height="30px" preserveAspectRatio="xMaxYMin meet">
 <g id="arrow_out" transform="scale(0.3 0.3)">
  <a xlink:href="class_slic3r_1_1_extrusion_path_acd4ea2b36015859bc76411f718b572b3_icgraph_org.svg" target="_base">
   <rect id="button" ry="5" rx="5" y="6" x="6" height="38" width="38"
        fill="#f2f5e9" fill-opacity="0.5" stroke="#606060" stroke-width="1.0"/>
   <path id="arrow"
     d="M 11.500037,31.436501 C 11.940474,20.09759 22.043105,11.32322 32.158766,21.979434 L 37.068811,17.246167 C 37.068811,17.246167 37.088388,32 37.088388,32 L 22.160133,31.978069 C 22.160133,31.978069 26.997745,27.140456 26.997745,27.140456 C 18.528582,18.264221 13.291696,25.230495 11.500037,31.436501 z"
     style="fill:#404040;"/>
  </a>
 </g>
</svg>

<style type='text/css'>
<![CDATA[
[data-mouse-over-selected='false'] { opacity: 0.7; }
[data-mouse-over-selected='true']  { opacity: 1.0; }
]]>
</style>
<script type="application/ecmascript"><![CDATA[
document.addEventListener('DOMContentLoaded', (event) => {
  highlightEdges();
  highlightAdjacentNodes();
});
]]></script>
</svg>
