<?xml version="1.0" encoding="UTF-8" standalone="no"?>
<!DOCTYPE svg PUBLIC "-//W3C//DTD SVG 1.1//EN"
 "http://www.w3.org/Graphics/SVG/1.1/DTD/svg11.dtd">
<!-- Generated by graphviz version 8.0.5 (20230430.1635)
 -->
<!-- Title: ImGuiTextBuffer::append Pages: 1 -->
<svg width="1020pt" height="305pt"
 viewBox="0.00 0.00 1019.75 304.99" xmlns="http://www.w3.org/2000/svg" xmlns:xlink="http://www.w3.org/1999/xlink">
<g id="graph0" class="graph" transform="scale(1 1) rotate(0) translate(4 300.99)">
<title>ImGuiTextBuffer::append</title>
<!-- Node1 -->
<g id="Node000001" class="node">
<title>Node1</title>
<g id="a_Node000001"><a xlink:title=" ">
<polygon fill="#999999" stroke="#666666" points="1011.75,-112.88 887,-112.88 887,-93.62 1011.75,-93.62 1011.75,-112.88"/>
<text text-anchor="middle" x="949.38" y="-99.38" font-family="Helvetica,sans-Serif" font-size="10.00">ImGuiTextBuffer::append</text>
</a>
</g>
</g>
<!-- Node2 -->
<g id="Node000002" class="node">
<title>Node2</title>
<g id="a_Node000002"><a xlink:href="../../df/d13/namespace_im_gui.html#ae714b56ec452ac7b3da815973b62beb8" target="_top" xlink:title=" ">
<polygon fill="white" stroke="#666666" points="833.38,-134.88 737.88,-134.88 737.88,-115.62 833.38,-115.62 833.38,-134.88"/>
<text text-anchor="middle" x="785.62" y="-121.38" font-family="Helvetica,sans-Serif" font-size="10.00">ImGui::TabItemEx</text>
</a>
</g>
</g>
<!-- Node1&#45;&gt;Node2 -->
<g id="edge1_Node000001_Node000002" class="edge">
<title>Node1&#45;&gt;Node2</title>
<g id="a_edge1_Node000001_Node000002"><a xlink:title=" ">
<path fill="none" stroke="#63b8ff" d="M875.92,-113.11C861.6,-115.05 846.93,-117.05 833.72,-118.84"/>
<polygon fill="#63b8ff" stroke="#63b8ff" points="876.33,-116.45 885.76,-111.63 875.38,-109.51 876.33,-116.45"/>
</a>
</g>
</g>
<!-- Node96 -->
<g id="Node000096" class="node">
<title>Node96</title>
<g id="a_Node000096"><a xlink:href="../../d4/d2b/imgui__tables_8cpp.html#af7d20f2a36d3a68b646eaf68dd785900" target="_top" xlink:title=" ">
<polygon fill="white" stroke="#666666" points="840.12,-97.5 731.12,-97.5 731.12,-67 840.12,-67 840.12,-97.5"/>
<text text-anchor="start" x="739.12" y="-84" font-family="Helvetica,sans-Serif" font-size="10.00">TableSettingsHandler</text>
<text text-anchor="middle" x="785.62" y="-72.75" font-family="Helvetica,sans-Serif" font-size="10.00">_WriteAll</text>
</a>
</g>
</g>
<!-- Node1&#45;&gt;Node96 -->
<g id="edge18_Node000001_Node000096" class="edge">
<title>Node1&#45;&gt;Node96</title>
<g id="a_edge18_Node000001_Node000096"><a xlink:title=" ">
<path fill="none" stroke="#63b8ff" d="M875.9,-93.84C863.96,-92.29 851.77,-90.71 840.4,-89.23"/>
<polygon fill="#63b8ff" stroke="#63b8ff" points="875.4,-97.43 885.76,-95.25 876.3,-90.49 875.4,-97.43"/>
</a>
</g>
</g>
<!-- Node102 -->
<g id="Node000102" class="node">
<title>Node102</title>
<g id="a_Node000102"><a xlink:href="../../df/d13/namespace_im_gui.html#a4ac0fd352082b1aa9a2a5a1dedcf5b89" target="_top" xlink:title=" ">
<polygon fill="white" stroke="#666666" points="851,-186.88 720.25,-186.88 720.25,-167.62 851,-167.62 851,-186.88"/>
<text text-anchor="middle" x="785.62" y="-173.38" font-family="Helvetica,sans-Serif" font-size="10.00">ImGui::TableSetupColumn</text>
</a>
</g>
</g>
<!-- Node1&#45;&gt;Node102 -->
<g id="edge24_Node000001_Node000102" class="edge">
<title>Node1&#45;&gt;Node102</title>
<g id="a_edge24_Node000001_Node000102"><a xlink:title=" ">
<path fill="none" stroke="#63b8ff" d="M916.84,-117.68C884.97,-132.26 836.55,-154.41 808.61,-167.19"/>
<polygon fill="#63b8ff" stroke="#63b8ff" points="917.92,-120.57 925.56,-113.23 915.01,-114.21 917.92,-120.57"/>
</a>
</g>
</g>
<!-- Node104 -->
<g id="Node000104" class="node">
<title>Node104</title>
<g id="a_Node000104"><a xlink:href="../../da/d72/imgui_8cpp.html#a24623093a2b9a7babcc73f502bfabad0" target="_top" xlink:title=" ">
<polygon fill="white" stroke="#666666" points="846.12,-48.5 725.12,-48.5 725.12,-18 846.12,-18 846.12,-48.5"/>
<text text-anchor="start" x="733.12" y="-35" font-family="Helvetica,sans-Serif" font-size="10.00">WindowSettingsHandler</text>
<text text-anchor="middle" x="785.62" y="-23.75" font-family="Helvetica,sans-Serif" font-size="10.00">_WriteAll</text>
</a>
</g>
</g>
<!-- Node1&#45;&gt;Node104 -->
<g id="edge27_Node000001_Node000104" class="edge">
<title>Node1&#45;&gt;Node104</title>
<g id="a_edge27_Node000001_Node000104"><a xlink:title=" ">
<path fill="none" stroke="#63b8ff" d="M917.73,-88.49C898.67,-79.46 873.56,-67.83 851,-58.25 843.61,-55.11 835.67,-51.9 827.99,-48.87"/>
<polygon fill="#63b8ff" stroke="#63b8ff" points="916.12,-92.07 926.65,-93.21 919.13,-85.75 916.12,-92.07"/>
</a>
</g>
</g>
<!-- Node3 -->
<g id="Node000003" class="node">
<title>Node3</title>
<g id="a_Node000003"><a xlink:href="../../df/d13/namespace_im_gui.html#a4cee1ccc9018a298cfff90a704bde8ca" target="_top" xlink:title=" ">
<polygon fill="white" stroke="#666666" points="671.5,-165.88 563.25,-165.88 563.25,-146.62 671.5,-146.62 671.5,-165.88"/>
<text text-anchor="middle" x="617.38" y="-152.38" font-family="Helvetica,sans-Serif" font-size="10.00">ImGui::BeginTabItem</text>
</a>
</g>
</g>
<!-- Node2&#45;&gt;Node3 -->
<g id="edge2_Node000002_Node000003" class="edge">
<title>Node2&#45;&gt;Node3</title>
<g id="a_edge2_Node000002_Node000003"><a xlink:title=" ">
<path fill="none" stroke="#63b8ff" d="M726.85,-136.02C708.99,-139.35 689.4,-143.01 671.84,-146.28"/>
<polygon fill="#63b8ff" stroke="#63b8ff" points="727.24,-139.32 736.43,-134.05 725.96,-132.44 727.24,-139.32"/>
</a>
</g>
</g>
<!-- Node95 -->
<g id="Node000095" class="node">
<title>Node95</title>
<g id="a_Node000095"><a xlink:href="../../df/d13/namespace_im_gui.html#a1dbc539ac5b49e9445c4573607e6d60d" target="_top" xlink:title=" ">
<polygon fill="white" stroke="#666666" points="673.38,-128.88 561.38,-128.88 561.38,-109.62 673.38,-109.62 673.38,-128.88"/>
<text text-anchor="middle" x="617.38" y="-115.38" font-family="Helvetica,sans-Serif" font-size="10.00">ImGui::TabItemButton</text>
</a>
</g>
</g>
<!-- Node2&#45;&gt;Node95 -->
<g id="edge16_Node000002_Node000095" class="edge">
<title>Node2&#45;&gt;Node95</title>
<g id="a_edge16_Node000002_Node000095"><a xlink:title=" ">
<path fill="none" stroke="#63b8ff" d="M726.91,-123.17C709.64,-122.54 690.74,-121.86 673.63,-121.24"/>
<polygon fill="#63b8ff" stroke="#63b8ff" points="726.31,-126.68 736.43,-123.55 726.56,-119.69 726.31,-126.68"/>
</a>
</g>
</g>
<!-- Node4 -->
<g id="Node000004" class="node">
<title>Node4</title>
<g id="a_Node000004"><a xlink:href="../../d5/d0a/imgui__demo_8cpp.html#ac209de20c1f862aa48a3f5f27aee407e" target="_top" xlink:title=" ">
<polygon fill="white" stroke="#666666" points="492.75,-162.88 361.25,-162.88 361.25,-143.62 492.75,-143.62 492.75,-162.88"/>
<text text-anchor="middle" x="427" y="-149.38" font-family="Helvetica,sans-Serif" font-size="10.00">ShowDemoWindowLayout</text>
</a>
</g>
</g>
<!-- Node3&#45;&gt;Node4 -->
<g id="edge3_Node000003_Node000004" class="edge">
<title>Node3&#45;&gt;Node4</title>
<g id="a_edge3_Node000003_Node000004"><a xlink:title=" ">
<path fill="none" stroke="#63b8ff" d="M551.93,-155.22C532.9,-154.92 512.06,-154.59 492.99,-154.29"/>
<polygon fill="#63b8ff" stroke="#63b8ff" points="551.84,-158.74 561.9,-155.4 551.96,-151.74 551.84,-158.74"/>
</a>
</g>
</g>
<!-- Node90 -->
<g id="Node000090" class="node">
<title>Node90</title>
<g id="a_Node000090"><a xlink:href="../../d5/d0a/imgui__demo_8cpp.html#af533fd0a774d6bbebe61e474db6f144f" target="_top" xlink:title=" ">
<polygon fill="white" stroke="#666666" points="496.12,-88.88 357.88,-88.88 357.88,-69.62 496.12,-69.62 496.12,-88.88"/>
<text text-anchor="middle" x="427" y="-75.38" font-family="Helvetica,sans-Serif" font-size="10.00">ShowDemoWindowWidgets</text>
</a>
</g>
</g>
<!-- Node3&#45;&gt;Node90 -->
<g id="edge6_Node000003_Node000090" class="edge">
<title>Node3&#45;&gt;Node90</title>
<g id="a_edge6_Node000003_Node000090"><a xlink:title=" ">
<path fill="none" stroke="#63b8ff" d="M556.87,-141.82C554.68,-140.71 552.54,-139.53 550.5,-138.25 529.93,-125.4 535.45,-109.46 514.5,-97.25 508.93,-94.01 502.87,-91.34 496.61,-89.15"/>
<polygon fill="#63b8ff" stroke="#63b8ff" points="555.26,-145.37 565.82,-146.14 558.05,-138.95 555.26,-145.37"/>
</a>
</g>
</g>
<!-- Node91 -->
<g id="Node000091" class="node">
<title>Node91</title>
<g id="a_Node000091"><a xlink:href="../../d5/d0a/imgui__demo_8cpp.html#a0729207a285af6ef57ce5a31d1a60348" target="_top" xlink:title=" ">
<polygon fill="white" stroke="#666666" points="514.5,-125.88 339.5,-125.88 339.5,-106.62 514.5,-106.62 514.5,-125.88"/>
<text text-anchor="middle" x="427" y="-112.38" font-family="Helvetica,sans-Serif" font-size="10.00">ShowExampleAppCustomRendering</text>
</a>
</g>
</g>
<!-- Node3&#45;&gt;Node91 -->
<g id="edge8_Node000003_Node000091" class="edge">
<title>Node3&#45;&gt;Node91</title>
<g id="a_edge8_Node000003_Node000091"><a xlink:title=" ">
<path fill="none" stroke="#63b8ff" d="M559.53,-143.9C544.87,-140.73 529.1,-137.35 514.5,-134.25 502.35,-131.67 489.22,-128.92 476.96,-126.37"/>
<polygon fill="#63b8ff" stroke="#63b8ff" points="558.47,-147.46 568.99,-146.16 559.95,-140.62 558.47,-147.46"/>
</a>
</g>
</g>
<!-- Node92 -->
<g id="Node000092" class="node">
<title>Node92</title>
<g id="a_Node000092"><a xlink:href="../../d5/d0a/imgui__demo_8cpp.html#aa9e4f5130b74080ea2d97916a91b3b3c" target="_top" xlink:title=" ">
<polygon fill="white" stroke="#666666" points="500.25,-273.88 353.75,-273.88 353.75,-254.62 500.25,-254.62 500.25,-273.88"/>
<text text-anchor="middle" x="427" y="-260.38" font-family="Helvetica,sans-Serif" font-size="10.00">ShowExampleAppDocuments</text>
</a>
</g>
</g>
<!-- Node3&#45;&gt;Node92 -->
<g id="edge10_Node000003_Node000092" class="edge">
<title>Node3&#45;&gt;Node92</title>
<g id="a_edge10_Node000003_Node000092"><a xlink:title=" ">
<path fill="none" stroke="#63b8ff" d="M601.14,-174.5C582.79,-195.23 549.97,-228.48 514.5,-246.25 508.19,-249.41 501.36,-252.02 494.39,-254.16"/>
<polygon fill="#63b8ff" stroke="#63b8ff" points="604.42,-177.07 608.3,-167.21 599.12,-172.49 604.42,-177.07"/>
</a>
</g>
</g>
<!-- Node93 -->
<g id="Node000093" class="node">
<title>Node93</title>
<g id="a_Node000093"><a xlink:href="../../d5/d0a/imgui__demo_8cpp.html#adfe8516f13b623adbf78b024efd5bb6e" target="_top" xlink:title=" ">
<polygon fill="white" stroke="#666666" points="489.75,-236.88 364.25,-236.88 364.25,-217.62 489.75,-217.62 489.75,-236.88"/>
<text text-anchor="middle" x="427" y="-223.38" font-family="Helvetica,sans-Serif" font-size="10.00">ShowExampleAppLayout</text>
</a>
</g>
</g>
<!-- Node3&#45;&gt;Node93 -->
<g id="edge12_Node000003_Node000093" class="edge">
<title>Node3&#45;&gt;Node93</title>
<g id="a_edge12_Node000003_Node000093"><a xlink:title=" ">
<path fill="none" stroke="#63b8ff" d="M591.06,-171.92C570.97,-183.74 541.81,-199.51 514.5,-209.25 505.83,-212.34 496.47,-214.97 487.23,-217.19"/>
<polygon fill="#63b8ff" stroke="#63b8ff" points="592.63,-174.46 599.42,-166.32 589.04,-168.46 592.63,-174.46"/>
</a>
</g>
</g>
<!-- Node94 -->
<g id="Node000094" class="node">
<title>Node94</title>
<g id="a_Node000094"><a xlink:href="../../df/d13/namespace_im_gui.html#ab2eb3dec78d054fe3feab1c091ec5de5" target="_top" xlink:title=" ">
<polygon fill="white" stroke="#666666" points="487.5,-199.88 366.5,-199.88 366.5,-180.62 487.5,-180.62 487.5,-199.88"/>
<text text-anchor="middle" x="427" y="-186.38" font-family="Helvetica,sans-Serif" font-size="10.00">ImGui::ShowStyleEditor</text>
</a>
</g>
</g>
<!-- Node3&#45;&gt;Node94 -->
<g id="edge14_Node000003_Node000094" class="edge">
<title>Node3&#45;&gt;Node94</title>
<g id="a_edge14_Node000003_Node000094"><a xlink:title=" ">
<path fill="none" stroke="#63b8ff" d="M552.23,-167.83C530.05,-171.83 505.38,-176.28 483.91,-180.16"/>
<polygon fill="#63b8ff" stroke="#63b8ff" points="552.68,-171.12 561.9,-165.9 551.44,-164.23 552.68,-171.12"/>
</a>
</g>
</g>
<!-- Node5 -->
<g id="Node000005" class="node">
<title>Node5</title>
<g id="a_Node000005"><a xlink:href="../../df/d13/namespace_im_gui.html#af95643a0ce4893b9e57c12991922fb18" target="_top" xlink:title=" ">
<polygon fill="white" stroke="#666666" points="303.5,-199.88 169,-199.88 169,-180.62 303.5,-180.62 303.5,-199.88"/>
<text text-anchor="middle" x="236.25" y="-186.38" font-family="Helvetica,sans-Serif" font-size="10.00">ImGui::ShowDemoWindow</text>
</a>
</g>
</g>
<!-- Node4&#45;&gt;Node5 -->
<g id="edge4_Node000004_Node000005" class="edge">
<title>Node4&#45;&gt;Node5</title>
<g id="a_edge4_Node000004_Node000005"><a xlink:title=" ">
<path fill="none" stroke="#63b8ff" d="M363.86,-165.43C339.53,-170.2 311.96,-175.61 288.76,-180.15"/>
<polygon fill="#63b8ff" stroke="#63b8ff" points="364.28,-168.72 373.42,-163.36 362.94,-161.85 364.28,-168.72"/>
</a>
</g>
</g>
<!-- Node6 -->
<g id="Node000006" class="node">
<title>Node6</title>
<g id="a_Node000006"><a xlink:href="../../d0/d2b/class_slic3r_1_1_g_u_i_1_1_g_l_canvas3_d.html#add406e3833c98885119bc504231c90f8" target="_top" xlink:title=" ">
<polygon fill="#fff0f0" stroke="red" points="131.5,-205.5 1.5,-205.5 1.5,-175 131.5,-175 131.5,-205.5"/>
<text text-anchor="start" x="9.5" y="-192" font-family="Helvetica,sans-Serif" font-size="10.00">Slic3r::GUI::GLCanvas3D</text>
<text text-anchor="middle" x="66.5" y="-180.75" font-family="Helvetica,sans-Serif" font-size="10.00">::render</text>
</a>
</g>
</g>
<!-- Node5&#45;&gt;Node6 -->
<g id="edge5_Node000005_Node000006" class="edge">
<title>Node5&#45;&gt;Node6</title>
<g id="a_edge5_Node000005_Node000006"><a xlink:title=" ">
<path fill="none" stroke="#63b8ff" d="M157.99,-190.25C149.28,-190.25 140.47,-190.25 131.95,-190.25"/>
<polygon fill="#63b8ff" stroke="#63b8ff" points="157.95,-193.75 167.95,-190.25 157.95,-186.75 157.95,-193.75"/>
</a>
</g>
</g>
<!-- Node90&#45;&gt;Node5 -->
<g id="edge7_Node000090_Node000005" class="edge">
<title>Node90&#45;&gt;Node5</title>
<g id="a_edge7_Node000090_Node000005"><a xlink:title=" ">
<path fill="none" stroke="#63b8ff" d="M349.28,-92.86C345.92,-94.19 342.64,-95.65 339.5,-97.25 298.03,-118.4 260.69,-160.9 245.04,-180.25"/>
<polygon fill="#63b8ff" stroke="#63b8ff" points="350.29,-95.86 358.56,-89.24 347.97,-89.26 350.29,-95.86"/>
</a>
</g>
</g>
<!-- Node91&#45;&gt;Node5 -->
<g id="edge9_Node000091_Node000005" class="edge">
<title>Node91&#45;&gt;Node5</title>
<g id="a_edge9_Node000091_Node000005"><a xlink:title=" ">
<path fill="none" stroke="#63b8ff" d="M356.03,-128.94C350.38,-130.53 344.81,-132.29 339.5,-134.25 306.65,-146.36 271.5,-167.68 252.16,-180.23"/>
<polygon fill="#63b8ff" stroke="#63b8ff" points="356.46,-132.18 365.25,-126.26 354.69,-125.41 356.46,-132.18"/>
</a>
</g>
</g>
<!-- Node92&#45;&gt;Node5 -->
<g id="edge11_Node000092_Node000005" class="edge">
<title>Node92&#45;&gt;Node5</title>
<g id="a_edge11_Node000092_Node000005"><a xlink:title=" ">
<path fill="none" stroke="#63b8ff" d="M356.03,-251.56C350.38,-249.97 344.81,-248.21 339.5,-246.25 306.65,-234.14 271.5,-212.82 252.16,-200.27"/>
<polygon fill="#63b8ff" stroke="#63b8ff" points="354.69,-255.09 365.25,-254.24 356.46,-248.32 354.69,-255.09"/>
</a>
</g>
</g>
<!-- Node93&#45;&gt;Node5 -->
<g id="edge13_Node000093_Node000005" class="edge">
<title>Node93&#45;&gt;Node5</title>
<g id="a_edge13_Node000093_Node000005"><a xlink:title=" ">
<path fill="none" stroke="#63b8ff" d="M363.86,-215.07C339.53,-210.3 311.96,-204.89 288.76,-200.35"/>
<polygon fill="#63b8ff" stroke="#63b8ff" points="362.94,-218.65 373.42,-217.14 364.28,-211.78 362.94,-218.65"/>
</a>
</g>
</g>
<!-- Node94&#45;&gt;Node5 -->
<g id="edge15_Node000094_Node000005" class="edge">
<title>Node94&#45;&gt;Node5</title>
<g id="a_edge15_Node000094_Node000005"><a xlink:title=" ">
<path fill="none" stroke="#63b8ff" d="M355.17,-190.25C338.39,-190.25 320.55,-190.25 303.96,-190.25"/>
<polygon fill="#63b8ff" stroke="#63b8ff" points="355.02,-193.75 365.02,-190.25 355.02,-186.75 355.02,-193.75"/>
</a>
</g>
</g>
<!-- Node95&#45;&gt;Node90 -->
<g id="edge17_Node000095_Node000090" class="edge">
<title>Node95&#45;&gt;Node90</title>
<g id="a_edge17_Node000095_Node000090"><a xlink:title=" ">
<path fill="none" stroke="#63b8ff" d="M559.53,-106.9C544.87,-103.73 529.1,-100.35 514.5,-97.25 502.35,-94.67 489.22,-91.92 476.96,-89.37"/>
<polygon fill="#63b8ff" stroke="#63b8ff" points="558.47,-110.46 568.99,-109.16 559.95,-103.62 558.47,-110.46"/>
</a>
</g>
</g>
<!-- Node97 -->
<g id="Node000097" class="node">
<title>Node97</title>
<g id="a_Node000097"><a xlink:href="../../df/d13/namespace_im_gui.html#ab00aa88c3f8c42455f8a82a1a5cf102c" target="_top" xlink:title=" ">
<polygon fill="white" stroke="#666666" points="684.25,-91.5 550.5,-91.5 550.5,-61 684.25,-61 684.25,-91.5"/>
<text text-anchor="start" x="558.5" y="-78" font-family="Helvetica,sans-Serif" font-size="10.00">ImGui::TableSettingsInstall</text>
<text text-anchor="middle" x="617.38" y="-66.75" font-family="Helvetica,sans-Serif" font-size="10.00">Handler</text>
</a>
</g>
</g>
<!-- Node96&#45;&gt;Node97 -->
<g id="edge19_Node000096_Node000097" class="edge">
<title>Node96&#45;&gt;Node97</title>
<g id="a_edge19_Node000096_Node000097"><a xlink:title=" ">
<path fill="none" stroke="#63b8ff" d="M719.76,-79.91C708.21,-79.49 696.16,-79.06 684.57,-78.64"/>
<polygon fill="#63b8ff" stroke="#63b8ff" points="719.53,-83.44 729.65,-80.3 719.78,-76.44 719.53,-83.44"/>
</a>
</g>
</g>
<!-- Node98 -->
<g id="Node000098" class="node">
<title>Node98</title>
<g id="a_Node000098"><a xlink:href="../../df/d13/namespace_im_gui.html#a2e1fd6aabbb02f367fd6aee248506782" target="_top" xlink:title=" ">
<polygon fill="white" stroke="#666666" points="469.12,-48.88 384.88,-48.88 384.88,-29.62 469.12,-29.62 469.12,-48.88"/>
<text text-anchor="middle" x="427" y="-35.38" font-family="Helvetica,sans-Serif" font-size="10.00">ImGui::Initialize</text>
</a>
</g>
</g>
<!-- Node97&#45;&gt;Node98 -->
<g id="edge20_Node000097_Node000098" class="edge">
<title>Node97&#45;&gt;Node98</title>
<g id="a_edge20_Node000097_Node000098"><a xlink:title=" ">
<path fill="none" stroke="#63b8ff" d="M539.71,-61.19C515.74,-56.48 490.2,-51.47 469.6,-47.42"/>
<polygon fill="#63b8ff" stroke="#63b8ff" points="538.74,-64.76 549.23,-63.26 540.09,-57.9 538.74,-64.76"/>
</a>
</g>
</g>
<!-- Node99 -->
<g id="Node000099" class="node">
<title>Node99</title>
<g id="a_Node000099"><a xlink:href="../../df/d13/namespace_im_gui.html#a4ff6c9ad05a0eba37ce1b5ff1607810a" target="_top" xlink:title=" ">
<polygon fill="white" stroke="#666666" points="292.25,-48.88 180.25,-48.88 180.25,-29.62 292.25,-29.62 292.25,-48.88"/>
<text text-anchor="middle" x="236.25" y="-35.38" font-family="Helvetica,sans-Serif" font-size="10.00">ImGui::CreateContext</text>
</a>
</g>
</g>
<!-- Node98&#45;&gt;Node99 -->
<g id="edge21_Node000098_Node000099" class="edge">
<title>Node98&#45;&gt;Node99</title>
<g id="a_edge21_Node000098_Node000099"><a xlink:title=" ">
<path fill="none" stroke="#63b8ff" d="M373.73,-39.25C348.49,-39.25 318.18,-39.25 292.55,-39.25"/>
<polygon fill="#63b8ff" stroke="#63b8ff" points="373.58,-42.75 383.58,-39.25 373.58,-35.75 373.58,-42.75"/>
</a>
</g>
</g>
<!-- Node100 -->
<g id="Node000100" class="node">
<title>Node100</title>
<g id="a_Node000100"><a xlink:href="../../d6/d97/class_slic3r_1_1_g_u_i_1_1_im_gui_wrapper.html#ab3a726b0920de14331f7ecf08283a67d" target="_top" xlink:title=" ">
<polygon fill="white" stroke="#666666" points="133,-30.5 0,-30.5 0,0 133,0 133,-30.5"/>
<text text-anchor="start" x="8" y="-17" font-family="Helvetica,sans-Serif" font-size="10.00">Slic3r::GUI::ImGuiWrapper</text>
<text text-anchor="middle" x="66.5" y="-5.75" font-family="Helvetica,sans-Serif" font-size="10.00">::ImGuiWrapper</text>
</a>
</g>
</g>
<!-- Node99&#45;&gt;Node100 -->
<g id="edge22_Node000099_Node000100" class="edge">
<title>Node99&#45;&gt;Node100</title>
<g id="a_edge22_Node000099_Node000100"><a xlink:title=" ">
<path fill="none" stroke="#63b8ff" d="M169.19,-29.8C157.4,-28.11 145.12,-26.35 133.33,-24.67"/>
<polygon fill="#63b8ff" stroke="#63b8ff" points="168.46,-33.37 178.86,-31.32 169.45,-26.44 168.46,-33.37"/>
</a>
</g>
</g>
<!-- Node101 -->
<g id="Node000101" class="node">
<title>Node101</title>
<g id="a_Node000101"><a xlink:href="../../df/d70/classigl_1_1opengl_1_1glfw_1_1imgui_1_1_im_gui_menu.html#ab5d77117baf5f7e95d2f05ef954dd79e" target="_top" xlink:title=" ">
<polygon fill="white" stroke="#666666" points="123.62,-79.5 9.37,-79.5 9.37,-49 123.62,-49 123.62,-79.5"/>
<text text-anchor="start" x="17.38" y="-66" font-family="Helvetica,sans-Serif" font-size="10.00">igl::opengl::glfw::</text>
<text text-anchor="middle" x="66.5" y="-54.75" font-family="Helvetica,sans-Serif" font-size="10.00">imgui::ImGuiMenu::init</text>
</a>
</g>
</g>
<!-- Node99&#45;&gt;Node101 -->
<g id="edge23_Node000099_Node000101" class="edge">
<title>Node99&#45;&gt;Node101</title>
<g id="a_edge23_Node000099_Node000101"><a xlink:title=" ">
<path fill="none" stroke="#63b8ff" d="M169.15,-49.1C154.21,-51.33 138.48,-53.67 123.98,-55.83"/>
<polygon fill="#63b8ff" stroke="#63b8ff" points="169.48,-52.44 178.86,-47.51 168.45,-45.52 169.48,-52.44"/>
</a>
</g>
</g>
<!-- Node103 -->
<g id="Node000103" class="node">
<title>Node103</title>
<g id="a_Node000103"><a xlink:href="../../d5/d0a/imgui__demo_8cpp.html#a1de6150f52a967e73750eb642ec025fe" target="_top" xlink:title=" ">
<polygon fill="white" stroke="#666666" points="682.75,-256.88 552,-256.88 552,-237.62 682.75,-237.62 682.75,-256.88"/>
<text text-anchor="middle" x="617.38" y="-243.38" font-family="Helvetica,sans-Serif" font-size="10.00">ShowDemoWindowTables</text>
</a>
</g>
</g>
<!-- Node102&#45;&gt;Node103 -->
<g id="edge25_Node000102_Node000103" class="edge">
<title>Node102&#45;&gt;Node103</title>
<g id="a_edge25_Node000102_Node000103"><a xlink:title=" ">
<path fill="none" stroke="#63b8ff" d="M750.94,-191.43C718.73,-205 670.96,-225.11 642.42,-237.13"/>
<polygon fill="#63b8ff" stroke="#63b8ff" points="751.95,-194.39 759.81,-187.28 749.23,-187.93 751.95,-194.39"/>
</a>
</g>
</g>
<!-- Node103&#45;&gt;Node5 -->
<g id="edge26_Node000103_Node000005" class="edge">
<title>Node103&#45;&gt;Node5</title>
<g id="a_edge26_Node000103_Node000005"><a xlink:title=" ">
<path fill="none" stroke="#63b8ff" d="M583.8,-261.4C530.76,-282.31 423.25,-315.64 339.5,-283.25 295.41,-266.2 258.63,-220.32 244.01,-200.08"/>
<polygon fill="#63b8ff" stroke="#63b8ff" points="585.01,-264.29 592.96,-257.29 582.38,-257.8 585.01,-264.29"/>
</a>
</g>
</g>
<!-- Node104&#45;&gt;Node98 -->
<g id="edge28_Node000104_Node000098" class="edge">
<title>Node104&#45;&gt;Node98</title>
<g id="a_edge28_Node000104_Node000098"><a xlink:title=" ">
<path fill="none" stroke="#63b8ff" d="M714,-34.44C640.97,-35.67 529.39,-37.54 469.48,-38.55"/>
<polygon fill="#63b8ff" stroke="#63b8ff" points="713.99,-37.92 723.93,-34.25 713.88,-30.92 713.99,-37.92"/>
</a>
</g>
</g>
</g>
</svg>
