<?xml version="1.0" encoding="UTF-8" standalone="no"?>
<!DOCTYPE svg PUBLIC "-//W3C//DTD SVG 1.1//EN"
 "http://www.w3.org/Graphics/SVG/1.1/DTD/svg11.dtd">
<!-- Generated by graphviz version 8.0.5 (20230430.1635)
 -->
<!-- Title: Eigen::internal::HessenbergDecompositionMatrixHReturnType&lt; MatrixType &gt; Pages: 1 -->
<svg width="900pt" height="175pt"
 viewBox="0.00 0.00 899.75 175.00" xmlns="http://www.w3.org/2000/svg" xmlns:xlink="http://www.w3.org/1999/xlink">
<g id="graph0" class="graph" transform="scale(1 1) rotate(0) translate(4 171)">
<title>Eigen::internal::HessenbergDecompositionMatrixHReturnType&lt; MatrixType &gt;</title>
<!-- Node1 -->
<g id="Node000001" class="node">
<title>Node1</title>
<g id="a_Node000001"><a xlink:title="Expression type for return value of HessenbergDecomposition::matrixH()">
<polygon fill="#999999" stroke="#666666" points="891.75,-95.75 725.75,-95.75 725.75,-54 891.75,-54 891.75,-95.75"/>
<text text-anchor="start" x="733.75" y="-82.25" font-family="Helvetica,sans-Serif" font-size="10.00">Eigen::internal::Hessenberg</text>
<text text-anchor="start" x="733.75" y="-71" font-family="Helvetica,sans-Serif" font-size="10.00">DecompositionMatrixHReturnType</text>
<text text-anchor="middle" x="808.75" y="-59.75" font-family="Helvetica,sans-Serif" font-size="10.00">&lt; MatrixType &gt;</text>
</a>
</g>
</g>
<!-- Node2 -->
<g id="Node000002" class="node">
<title>Node2</title>
<g id="a_Node000002"><a xlink:href="../../db/dbb/class_eigen_1_1_return_by_value.html" target="_top" xlink:title=" ">
<polygon fill="white" stroke="#666666" points="688.75,-95.75 519,-95.75 519,-54 688.75,-54 688.75,-95.75"/>
<text text-anchor="start" x="527" y="-82.25" font-family="Helvetica,sans-Serif" font-size="10.00">Eigen::ReturnByValue</text>
<text text-anchor="start" x="527" y="-71" font-family="Helvetica,sans-Serif" font-size="10.00">&lt; HessenbergDecompositionMatrix</text>
<text text-anchor="middle" x="603.88" y="-59.75" font-family="Helvetica,sans-Serif" font-size="10.00">HReturnType&lt; MatrixType &gt; &gt;</text>
</a>
</g>
</g>
<!-- Node2&#45;&gt;Node1 -->
<g id="edge1_Node000001_Node000002" class="edge">
<title>Node2&#45;&gt;Node1</title>
<g id="a_edge1_Node000001_Node000002"><a xlink:title=" ">
<path fill="none" stroke="#63b8ff" d="M699.88,-74.88C708.4,-74.88 716.97,-74.88 725.37,-74.88"/>
<polygon fill="#63b8ff" stroke="#63b8ff" points="700.15,-71.38 690.15,-74.88 700.15,-78.38 700.15,-71.38"/>
</a>
</g>
</g>
<!-- Node3 -->
<g id="Node000003" class="node">
<title>Node3</title>
<g id="a_Node000003"><a xlink:title=" ">
<polygon fill="white" stroke="#666666" points="323.25,-167 153.5,-167 153.5,-102.75 323.25,-102.75 323.25,-167"/>
<text text-anchor="start" x="161.5" y="-153.5" font-family="Helvetica,sans-Serif" font-size="10.00">internal::dense_xpr</text>
<text text-anchor="start" x="161.5" y="-142.25" font-family="Helvetica,sans-Serif" font-size="10.00">_base&lt; ReturnByValue</text>
<text text-anchor="start" x="161.5" y="-131" font-family="Helvetica,sans-Serif" font-size="10.00">&lt; HessenbergDecompositionMatrix</text>
<text text-anchor="start" x="161.5" y="-119.75" font-family="Helvetica,sans-Serif" font-size="10.00">HReturnType&lt; MatrixType &gt; </text>
<text text-anchor="middle" x="238.38" y="-108.5" font-family="Helvetica,sans-Serif" font-size="10.00"> &gt; &gt;::type</text>
</a>
</g>
</g>
<!-- Node3&#45;&gt;Node2 -->
<g id="edge2_Node000002_Node000003" class="edge">
<title>Node3&#45;&gt;Node2</title>
<g id="a_edge2_Node000002_Node000003"><a xlink:title=" ">
<path fill="none" stroke="#63b8ff" d="M334.53,-119.17C391.66,-109.74 463.67,-97.85 518.71,-88.77"/>
<polygon fill="#63b8ff" stroke="#63b8ff" points="333.98,-115.88 324.68,-120.96 335.12,-122.78 333.98,-115.88"/>
</a>
</g>
</g>
<!-- Node4 -->
<g id="Node000004" class="node">
<title>Node4</title>
<g id="a_Node000004"><a xlink:href="../../dd/dc9/class_eigen_1_1internal_1_1no__assignment__operator.html" target="_top" xlink:title=" ">
<polygon fill="white" stroke="#666666" points="114.25,-90.12 2.25,-90.12 2.25,-59.62 114.25,-59.62 114.25,-90.12"/>
<text text-anchor="start" x="10.25" y="-76.62" font-family="Helvetica,sans-Serif" font-size="10.00">Eigen::internal::no</text>
<text text-anchor="middle" x="58.25" y="-65.38" font-family="Helvetica,sans-Serif" font-size="10.00">_assignment_operator</text>
</a>
</g>
</g>
<!-- Node4&#45;&gt;Node2 -->
<g id="edge3_Node000002_Node000004" class="edge">
<title>Node4&#45;&gt;Node2</title>
<g id="a_edge3_Node000002_Node000004"><a xlink:title=" ">
<path fill="none" stroke="#8b1a1a" d="M125.36,-74.88C224.24,-74.88 410.58,-74.88 518.94,-74.88"/>
<polygon fill="#8b1a1a" stroke="#8b1a1a" points="125.62,-71.38 115.62,-74.88 125.62,-78.38 125.62,-71.38"/>
</a>
</g>
</g>
<!-- Node5 -->
<g id="Node000005" class="node">
<title>Node5</title>
<g id="a_Node000005"><a xlink:href="../../db/dbb/class_eigen_1_1_return_by_value.html" target="_top" xlink:title=" ">
<polygon fill="white" stroke="#666666" points="294.38,-47.12 182.38,-47.12 182.38,-16.62 294.38,-16.62 294.38,-47.12"/>
<text text-anchor="start" x="190.38" y="-33.62" font-family="Helvetica,sans-Serif" font-size="10.00">Eigen::ReturnByValue</text>
<text text-anchor="middle" x="238.38" y="-22.38" font-family="Helvetica,sans-Serif" font-size="10.00">&lt; Derived &gt;</text>
</a>
</g>
</g>
<!-- Node4&#45;&gt;Node5 -->
<g id="edge6_Node000005_Node000004" class="edge">
<title>Node4&#45;&gt;Node5</title>
<g id="a_edge6_Node000005_Node000004"><a xlink:title=" ">
<path fill="none" stroke="#8b1a1a" d="M125.15,-58.97C143.85,-54.45 164.02,-49.58 182.03,-45.24"/>
<polygon fill="#8b1a1a" stroke="#8b1a1a" points="124.53,-55.76 115.63,-61.51 126.18,-62.56 124.53,-55.76"/>
</a>
</g>
</g>
<!-- Node5&#45;&gt;Node2 -->
<g id="edge4_Node000002_Node000005" class="edge">
<title>Node5&#45;&gt;Node2</title>
<g id="a_edge4_Node000002_Node000005"><a xlink:title=" ">
<path fill="none" stroke="orange" stroke-dasharray="5,2" d="M305.44,-27.75C358.7,-25.8 435.29,-26.12 501,-38.38 518.45,-41.63 536.9,-47.46 553.24,-53.51"/>
<polygon fill="orange" stroke="orange" points="305.63,-24.28 295.78,-28.18 305.91,-31.27 305.63,-24.28"/>
</a>
</g>
<text text-anchor="start" x="341.25" y="-51.88" font-family="Helvetica,sans-Serif" font-size="10.00" fill="grey"> &lt; HessenbergDecomposition</text>
<text text-anchor="middle" x="421.12" y="-40.62" font-family="Helvetica,sans-Serif" font-size="10.00" fill="grey">MatrixHReturnType&lt; MatrixType &gt; &gt;</text>
</g>
<!-- Node6 -->
<g id="Node000006" class="node">
<title>Node6</title>
<g id="a_Node000006"><a xlink:title=" ">
<polygon fill="white" stroke="#666666" points="116.5,-41.75 0,-41.75 0,0 116.5,0 116.5,-41.75"/>
<text text-anchor="start" x="8" y="-28.25" font-family="Helvetica,sans-Serif" font-size="10.00">internal::dense_xpr</text>
<text text-anchor="start" x="8" y="-17" font-family="Helvetica,sans-Serif" font-size="10.00">_base&lt; ReturnByValue</text>
<text text-anchor="middle" x="58.25" y="-5.75" font-family="Helvetica,sans-Serif" font-size="10.00">&lt; Derived &gt; &gt;::type</text>
</a>
</g>
</g>
<!-- Node6&#45;&gt;Node5 -->
<g id="edge5_Node000005_Node000006" class="edge">
<title>Node6&#45;&gt;Node5</title>
<g id="a_edge5_Node000005_Node000006"><a xlink:title=" ">
<path fill="none" stroke="#63b8ff" d="M127.35,-25.08C145.4,-26.2 164.68,-27.39 181.96,-28.45"/>
<polygon fill="#63b8ff" stroke="#63b8ff" points="127.79,-21.54 117.59,-24.42 127.36,-28.53 127.79,-21.54"/>
</a>
</g>
</g>
</g>
</svg>
