<?xml version="1.0" encoding="UTF-8" standalone="no"?>
<!DOCTYPE svg PUBLIC "-//W3C//DTD SVG 1.1//EN"
 "http://www.w3.org/Graphics/SVG/1.1/DTD/svg11.dtd">
<!-- Generated by graphviz version 8.0.5 (20230430.1635)
 -->
<!-- Title: Slic3r::GUI::Field Pages: 1 -->
<svg width="1646pt" height="414pt"
 viewBox="0.00 0.00 1645.75 413.88" xmlns="http://www.w3.org/2000/svg" xmlns:xlink="http://www.w3.org/1999/xlink">
<g id="graph0" class="graph" transform="scale(1 1) rotate(0) translate(4 409.88)">
<title>Slic3r::GUI::Field</title>
<!-- Node1 -->
<g id="Node000001" class="node">
<title>Node1</title>
<g id="a_Node000001"><a xlink:title=" ">
<polygon fill="#999999" stroke="#666666" points="1637.75,-361.25 1546,-361.25 1546,-342 1637.75,-342 1637.75,-361.25"/>
<text text-anchor="middle" x="1591.88" y="-347.75" font-family="Helvetica,sans-Serif" font-size="10.00">Slic3r::GUI::Field</text>
</a>
</g>
</g>
<!-- Node2 -->
<g id="Node000002" class="node">
<title>Node2</title>
<g id="a_Node000002"><a xlink:href="../../d0/dc8/class_slic3r_1_1_g_u_i_1_1_undo_value_u_i_manager.html" target="_top" xlink:title=" ">
<polygon fill="white" stroke="#666666" points="1342.5,-361.25 1176.5,-361.25 1176.5,-342 1342.5,-342 1342.5,-361.25"/>
<text text-anchor="middle" x="1259.5" y="-347.75" font-family="Helvetica,sans-Serif" font-size="10.00">Slic3r::GUI::UndoValueUIManager</text>
</a>
</g>
</g>
<!-- Node2&#45;&gt;Node1 -->
<g id="edge1_Node000001_Node000002" class="edge">
<title>Node2&#45;&gt;Node1</title>
<g id="a_edge1_Node000001_Node000002"><a xlink:title=" ">
<path fill="none" stroke="#63b8ff" d="M1353.32,-351.62C1416.2,-351.62 1496.51,-351.62 1545.79,-351.62"/>
<polygon fill="#63b8ff" stroke="#63b8ff" points="1353.59,-348.13 1343.59,-351.62 1353.59,-355.13 1353.59,-348.13"/>
</a>
</g>
</g>
<!-- Node3 -->
<g id="Node000003" class="node">
<title>Node3</title>
<g id="a_Node000003"><a xlink:href="../../d0/d0c/struct_slic3r_1_1_g_u_i_1_1_undo_value_u_i_manager_1_1_undo_value_u_i.html" target="_top" xlink:title=" ">
<polygon fill="white" stroke="#666666" points="823.75,-366.88 657.75,-366.88 657.75,-336.38 823.75,-336.38 823.75,-366.88"/>
<text text-anchor="start" x="665.75" y="-353.38" font-family="Helvetica,sans-Serif" font-size="10.00">Slic3r::GUI::UndoValueUIManager</text>
<text text-anchor="middle" x="740.75" y="-342.12" font-family="Helvetica,sans-Serif" font-size="10.00">::UndoValueUI</text>
</a>
</g>
</g>
<!-- Node3&#45;&gt;Node2 -->
<g id="edge2_Node000002_Node000003" class="edge">
<title>Node3&#45;&gt;Node2</title>
<g id="a_edge2_Node000002_Node000003"><a xlink:title=" ">
<path fill="none" stroke="#9a32cd" stroke-dasharray="5,2" d="M834.91,-351.62C932.21,-351.62 1083.36,-351.62 1176.34,-351.62"/>
<polygon fill="#9a32cd" stroke="#9a32cd" points="835.2,-348.13 825.2,-351.62 835.2,-355.13 835.2,-348.13"/>
</a>
</g>
<text text-anchor="middle" x="909.62" y="-353.38" font-family="Helvetica,sans-Serif" font-size="10.00" fill="grey"> m_undo_ui</text>
</g>
<!-- Node4 -->
<g id="Node000004" class="node">
<title>Node4</title>
<g id="a_Node000004"><a xlink:href="../../d5/db9/class_scalable_bitmap.html" target="_top" xlink:title=" ">
<polygon fill="white" stroke="#666666" points="511.88,-312.25 427.62,-312.25 427.62,-293 511.88,-293 511.88,-312.25"/>
<text text-anchor="middle" x="469.75" y="-298.75" font-family="Helvetica,sans-Serif" font-size="10.00">ScalableBitmap</text>
</a>
</g>
</g>
<!-- Node4&#45;&gt;Node3 -->
<g id="edge3_Node000003_Node000004" class="edge">
<title>Node4&#45;&gt;Node3</title>
<g id="a_edge3_Node000003_Node000004"><a xlink:title=" ">
<path fill="none" stroke="#9a32cd" stroke-dasharray="5,2" d="M522.55,-312.06C560.71,-319.01 613.39,-328.61 657.31,-336.61"/>
<polygon fill="#9a32cd" stroke="#9a32cd" points="523.66,-308.52 513.19,-310.17 522.4,-315.41 523.66,-308.52"/>
</a>
</g>
<text text-anchor="middle" x="594.75" y="-345.62" font-family="Helvetica,sans-Serif" font-size="10.00" fill="grey"> undo_bitmap</text>
<text text-anchor="middle" x="594.75" y="-334.38" font-family="Helvetica,sans-Serif" font-size="10.00" fill="grey">undo_to_sys_bitmap</text>
</g>
<!-- Node5 -->
<g id="Node000005" class="node">
<title>Node5</title>
<g id="a_Node000005"><a xlink:title=" ">
<polygon fill="white" stroke="#666666" points="248,-226.25 188.5,-226.25 188.5,-207 248,-207 248,-226.25"/>
<text text-anchor="middle" x="218.25" y="-212.75" font-family="Helvetica,sans-Serif" font-size="10.00">std::string</text>
</a>
</g>
</g>
<!-- Node5&#45;&gt;Node1 -->
<g id="edge25_Node000001_Node000005" class="edge">
<title>Node5&#45;&gt;Node1</title>
<g id="a_edge25_Node000001_Node000005"><a xlink:title=" ">
<path fill="none" stroke="#9a32cd" stroke-dasharray="5,2" d="M232.29,-235.37C265.8,-281.09 359.96,-394.62 468.75,-394.62 468.75,-394.62 468.75,-394.62 1421.25,-394.62 1474.57,-394.62 1534.5,-374.42 1566.92,-361.71"/>
<polygon fill="#9a32cd" stroke="#9a32cd" points="234.75,-233.79 226.08,-227.71 229.06,-237.87 234.75,-233.79"/>
</a>
</g>
<text text-anchor="middle" x="909.62" y="-396.38" font-family="Helvetica,sans-Serif" font-size="10.00" fill="grey"> m_opt_id</text>
</g>
<!-- Node5&#45;&gt;Node4 -->
<g id="edge4_Node000004_Node000005" class="edge">
<title>Node5&#45;&gt;Node4</title>
<g id="a_edge4_Node000004_Node000005"><a xlink:title=" ">
<path fill="none" stroke="#9a32cd" stroke-dasharray="5,2" d="M258.51,-230.16C308.72,-247.47 394.55,-277.05 439.44,-292.52"/>
<polygon fill="#9a32cd" stroke="#9a32cd" points="259.95,-226.61 249.36,-226.66 257.67,-233.23 259.95,-226.61"/>
</a>
</g>
<text text-anchor="middle" x="335.75" y="-276.38" font-family="Helvetica,sans-Serif" font-size="10.00" fill="grey"> m_icon_name</text>
</g>
<!-- Node7 -->
<g id="Node000007" class="node">
<title>Node7</title>
<g id="a_Node000007"><a xlink:href="../../d1/dce/class_slic3r_1_1_config_option_def.html" target="_top" xlink:title=" ">
<polygon fill="white" stroke="#666666" points="1480,-180.25 1360.5,-180.25 1360.5,-161 1480,-161 1480,-180.25"/>
<text text-anchor="middle" x="1420.25" y="-166.75" font-family="Helvetica,sans-Serif" font-size="10.00">Slic3r::ConfigOptionDef</text>
</a>
</g>
</g>
<!-- Node5&#45;&gt;Node7 -->
<g id="edge7_Node000007_Node000005" class="edge">
<title>Node5&#45;&gt;Node7</title>
<g id="a_edge7_Node000007_Node000005"><a xlink:title=" ">
<path fill="none" stroke="#9a32cd" stroke-dasharray="5,2" d="M259.26,-216.62C308.54,-216.62 394.81,-216.62 468.75,-216.62 468.75,-216.62 468.75,-216.62 1078,-216.62 1184.71,-216.62 1308.52,-194.26 1373.7,-180.72"/>
<polygon fill="#9a32cd" stroke="#9a32cd" points="259.44,-213.13 249.44,-216.62 259.44,-220.13 259.44,-213.13"/>
</a>
</g>
<text text-anchor="middle" x="740.75" y="-308.38" font-family="Helvetica,sans-Serif" font-size="10.00" fill="grey"> category</text>
<text text-anchor="middle" x="740.75" y="-297.12" font-family="Helvetica,sans-Serif" font-size="10.00" fill="grey">cli</text>
<text text-anchor="middle" x="740.75" y="-285.88" font-family="Helvetica,sans-Serif" font-size="10.00" fill="grey">full_label</text>
<text text-anchor="middle" x="740.75" y="-274.62" font-family="Helvetica,sans-Serif" font-size="10.00" fill="grey">gui_flags</text>
<text text-anchor="middle" x="740.75" y="-263.38" font-family="Helvetica,sans-Serif" font-size="10.00" fill="grey">label</text>
<text text-anchor="middle" x="740.75" y="-252.12" font-family="Helvetica,sans-Serif" font-size="10.00" fill="grey">opt_key</text>
<text text-anchor="middle" x="740.75" y="-240.88" font-family="Helvetica,sans-Serif" font-size="10.00" fill="grey">ratio_over</text>
<text text-anchor="middle" x="740.75" y="-229.62" font-family="Helvetica,sans-Serif" font-size="10.00" fill="grey">sidetext</text>
<text text-anchor="middle" x="740.75" y="-218.38" font-family="Helvetica,sans-Serif" font-size="10.00" fill="grey">tooltip</text>
</g>
<!-- Node11 -->
<g id="Node000011" class="node">
<title>Node11</title>
<g id="a_Node000011"><a xlink:title=" ">
<polygon fill="white" stroke="#666666" points="522.75,-185.88 416.75,-185.88 416.75,-155.38 522.75,-155.38 522.75,-185.88"/>
<text text-anchor="start" x="424.75" y="-172.38" font-family="Helvetica,sans-Serif" font-size="10.00">std::vector&lt; t_config</text>
<text text-anchor="middle" x="469.75" y="-161.12" font-family="Helvetica,sans-Serif" font-size="10.00">_option_key &gt;</text>
</a>
</g>
</g>
<!-- Node5&#45;&gt;Node11 -->
<g id="edge12_Node000011_Node000005" class="edge">
<title>Node5&#45;&gt;Node11</title>
<g id="a_edge12_Node000011_Node000005"><a xlink:title=" ">
<path fill="none" stroke="#9a32cd" stroke-dasharray="5,2" d="M249.76,-202.36C259.76,-198.21 271.05,-194.07 281.75,-191.38 326.41,-180.1 378.6,-174.95 416.48,-172.6"/>
<polygon fill="#9a32cd" stroke="#9a32cd" points="248.68,-199.44 240.89,-206.62 251.46,-205.87 248.68,-199.44"/>
</a>
</g>
<text text-anchor="middle" x="335.75" y="-193.38" font-family="Helvetica,sans-Serif" font-size="10.00" fill="grey"> elements</text>
</g>
<!-- Node16 -->
<g id="Node000016" class="node">
<title>Node16</title>
<g id="a_Node000016"><a xlink:title=" ">
<polygon fill="white" stroke="#666666" points="531.75,-104.25 407.75,-104.25 407.75,-85 531.75,-85 531.75,-104.25"/>
<text text-anchor="middle" x="469.75" y="-90.75" font-family="Helvetica,sans-Serif" font-size="10.00">std::vector&lt; std::string &gt;</text>
</a>
</g>
</g>
<!-- Node5&#45;&gt;Node16 -->
<g id="edge18_Node000016_Node000005" class="edge">
<title>Node5&#45;&gt;Node16</title>
<g id="a_edge18_Node000016_Node000005"><a xlink:title=" ">
<path fill="none" stroke="#9a32cd" stroke-dasharray="5,2" d="M234.63,-198.66C246.33,-186.12 263.48,-169.97 281.75,-160.38 325.44,-137.44 343.42,-151.61 389.75,-134.62 411.98,-126.48 436.05,-113.66 451.71,-104.73"/>
<polygon fill="#9a32cd" stroke="#9a32cd" points="232.54,-195.87 228.46,-205.64 237.74,-200.54 232.54,-195.87"/>
</a>
</g>
<text text-anchor="middle" x="335.75" y="-162.38" font-family="Helvetica,sans-Serif" font-size="10.00" fill="grey"> elements</text>
</g>
<!-- Node6 -->
<g id="Node000006" class="node">
<title>Node6</title>
<g id="a_Node000006"><a xlink:title=" ">
<polygon fill="white" stroke="#666666" points="94,-231.88 0,-231.88 0,-201.38 94,-201.38 94,-231.88"/>
<text text-anchor="start" x="8" y="-218.38" font-family="Helvetica,sans-Serif" font-size="10.00">std::basic_string&lt;</text>
<text text-anchor="middle" x="47" y="-207.12" font-family="Helvetica,sans-Serif" font-size="10.00"> Char &gt;</text>
</a>
</g>
</g>
<!-- Node6&#45;&gt;Node5 -->
<g id="edge5_Node000005_Node000006" class="edge">
<title>Node6&#45;&gt;Node5</title>
<g id="a_edge5_Node000005_Node000006"><a xlink:title=" ">
<path fill="none" stroke="#63b8ff" d="M105.08,-216.62C132.96,-216.62 165.31,-216.62 188.08,-216.62"/>
<polygon fill="#63b8ff" stroke="#63b8ff" points="105.25,-213.13 95.25,-216.62 105.25,-220.13 105.25,-213.13"/>
</a>
</g>
</g>
<!-- Node7&#45;&gt;Node1 -->
<g id="edge6_Node000001_Node000007" class="edge">
<title>Node7&#45;&gt;Node1</title>
<g id="a_edge6_Node000001_Node000007"><a xlink:title=" ">
<path fill="none" stroke="#9a32cd" stroke-dasharray="5,2" d="M1437.76,-188.24C1472.97,-225.81 1554.42,-312.73 1581.75,-341.89"/>
<polygon fill="#9a32cd" stroke="#9a32cd" points="1441,-186.52 1431.61,-181.61 1435.9,-191.3 1441,-186.52"/>
</a>
</g>
<text text-anchor="middle" x="1513" y="-284.38" font-family="Helvetica,sans-Serif" font-size="10.00" fill="grey"> m_opt</text>
</g>
<!-- Node8 -->
<g id="Node000008" class="node">
<title>Node8</title>
<g id="a_Node000008"><a xlink:href="../../df/d17/class_slic3r_1_1clonable__ptr.html" target="_top" xlink:title=" ">
<polygon fill="white" stroke="#666666" points="1151.38,-63.88 1002.62,-63.88 1002.62,-33.38 1151.38,-33.38 1151.38,-63.88"/>
<text text-anchor="start" x="1010.62" y="-50.38" font-family="Helvetica,sans-Serif" font-size="10.00">Slic3r::clonable_ptr</text>
<text text-anchor="middle" x="1077" y="-39.12" font-family="Helvetica,sans-Serif" font-size="10.00">&lt; const Slic3r::ConfigOption &gt;</text>
</a>
</g>
</g>
<!-- Node8&#45;&gt;Node7 -->
<g id="edge8_Node000007_Node000008" class="edge">
<title>Node8&#45;&gt;Node7</title>
<g id="a_edge8_Node000007_Node000008"><a xlink:title=" ">
<path fill="none" stroke="#9a32cd" stroke-dasharray="5,2" d="M1162.46,-60.42C1215.88,-70 1285.39,-86.45 1342.5,-113.38 1368.66,-125.71 1394.72,-147.72 1408.72,-160.56"/>
<polygon fill="#9a32cd" stroke="#9a32cd" points="1163.1,-56.8 1152.65,-58.53 1161.9,-63.7 1163.1,-56.8"/>
</a>
</g>
<text text-anchor="middle" x="1259.5" y="-115.38" font-family="Helvetica,sans-Serif" font-size="10.00" fill="grey"> default_value</text>
</g>
<!-- Node9 -->
<g id="Node000009" class="node">
<title>Node9</title>
<g id="a_Node000009"><a xlink:href="../../de/d87/class_slic3r_1_1_config_option.html" target="_top" xlink:title=" ">
<polygon fill="white" stroke="#666666" points="792.62,-24.25 688.88,-24.25 688.88,-5 792.62,-5 792.62,-24.25"/>
<text text-anchor="middle" x="740.75" y="-10.75" font-family="Helvetica,sans-Serif" font-size="10.00">Slic3r::ConfigOption</text>
</a>
</g>
</g>
<!-- Node9&#45;&gt;Node8 -->
<g id="edge9_Node000008_Node000009" class="edge">
<title>Node9&#45;&gt;Node8</title>
<g id="a_edge9_Node000008_Node000009"><a xlink:title=" ">
<path fill="none" stroke="#9a32cd" stroke-dasharray="5,2" d="M803.66,-18.29C851.28,-21.41 918.67,-26.49 977.5,-33.38 985.49,-34.31 993.83,-35.41 1002.13,-36.58"/>
<polygon fill="#9a32cd" stroke="#9a32cd" points="804.11,-14.75 793.9,-17.59 803.66,-21.73 804.11,-14.75"/>
</a>
</g>
<text text-anchor="middle" x="909.62" y="-35.38" font-family="Helvetica,sans-Serif" font-size="10.00" fill="grey"> px</text>
</g>
<!-- Node10 -->
<g id="Node000010" class="node">
<title>Node10</title>
<g id="a_Node000010"><a xlink:href="../../df/d17/class_slic3r_1_1clonable__ptr.html" target="_top" xlink:title=" ">
<polygon fill="white" stroke="#666666" points="802.38,-64.25 679.12,-64.25 679.12,-45 802.38,-45 802.38,-64.25"/>
<text text-anchor="middle" x="740.75" y="-50.75" font-family="Helvetica,sans-Serif" font-size="10.00">Slic3r::clonable_ptr&lt; T &gt;</text>
</a>
</g>
</g>
<!-- Node10&#45;&gt;Node8 -->
<g id="edge10_Node000008_Node000010" class="edge">
<title>Node10&#45;&gt;Node8</title>
<g id="a_edge10_Node000008_Node000010"><a xlink:title=" ">
<path fill="none" stroke="orange" stroke-dasharray="5,2" d="M813.77,-50.42C823.18,-49.99 832.69,-49.63 841.75,-49.38 895.41,-47.88 956.01,-47.73 1002.13,-47.93"/>
<polygon fill="orange" stroke="orange" points="813.63,-46.97 803.81,-50.94 813.97,-53.96 813.63,-46.97"/>
</a>
</g>
<text text-anchor="middle" x="909.62" y="-51.38" font-family="Helvetica,sans-Serif" font-size="10.00" fill="grey"> &lt; const Slic3r::ConfigOption &gt;</text>
</g>
<!-- Node14 -->
<g id="Node000014" class="node">
<title>Node14</title>
<g id="a_Node000014"><a xlink:href="../../df/d17/class_slic3r_1_1clonable__ptr.html" target="_top" xlink:title=" ">
<polygon fill="white" stroke="#666666" points="1158.5,-142.88 995.5,-142.88 995.5,-112.38 1158.5,-112.38 1158.5,-142.88"/>
<text text-anchor="start" x="1003.5" y="-129.38" font-family="Helvetica,sans-Serif" font-size="10.00">Slic3r::clonable_ptr</text>
<text text-anchor="middle" x="1077" y="-118.12" font-family="Helvetica,sans-Serif" font-size="10.00">&lt; Slic3r::ConfigOptionEnumDef &gt;</text>
</a>
</g>
</g>
<!-- Node10&#45;&gt;Node14 -->
<g id="edge24_Node000014_Node000010" class="edge">
<title>Node10&#45;&gt;Node14</title>
<g id="a_edge24_Node000014_Node000010"><a xlink:title=" ">
<path fill="none" stroke="orange" stroke-dasharray="5,2" d="M813.63,-59.7C871.42,-64.29 947.71,-71.6 977.5,-80.12 1003.24,-87.49 1030.5,-101.15 1049.81,-111.94"/>
<polygon fill="orange" stroke="orange" points="813.95,-56.14 803.71,-58.85 813.41,-63.12 813.95,-56.14"/>
</a>
</g>
<text text-anchor="start" x="847" y="-93.62" font-family="Helvetica,sans-Serif" font-size="10.00" fill="grey"> &lt; Slic3r::ConfigOptionEnum</text>
<text text-anchor="middle" x="909.62" y="-82.38" font-family="Helvetica,sans-Serif" font-size="10.00" fill="grey">Def &gt;</text>
</g>
<!-- Node11&#45;&gt;Node7 -->
<g id="edge11_Node000007_Node000011" class="edge">
<title>Node11&#45;&gt;Node7</title>
<g id="a_edge11_Node000007_Node000011"><a xlink:title=" ">
<path fill="none" stroke="#9a32cd" stroke-dasharray="5,2" d="M533.84,-170.62C707.59,-170.62 1191.34,-170.62 1360.19,-170.62"/>
<polygon fill="#9a32cd" stroke="#9a32cd" points="534.1,-167.13 524.1,-170.62 534.1,-174.13 534.1,-167.13"/>
</a>
</g>
<text text-anchor="middle" x="909.62" y="-183.62" font-family="Helvetica,sans-Serif" font-size="10.00" fill="grey"> aliases</text>
<text text-anchor="middle" x="909.62" y="-172.38" font-family="Helvetica,sans-Serif" font-size="10.00" fill="grey">shortcut</text>
</g>
<!-- Node12 -->
<g id="Node000012" class="node">
<title>Node12</title>
<g id="a_Node000012"><a xlink:title=" ">
<polygon fill="white" stroke="#666666" points="261.5,-97.25 175,-97.25 175,-78 261.5,-78 261.5,-97.25"/>
<text text-anchor="middle" x="218.25" y="-83.75" font-family="Helvetica,sans-Serif" font-size="10.00">std::vector&lt; T &gt;</text>
</a>
</g>
</g>
<!-- Node12&#45;&gt;Node11 -->
<g id="edge13_Node000011_Node000012" class="edge">
<title>Node12&#45;&gt;Node11</title>
<g id="a_edge13_Node000011_Node000012"><a xlink:title=" ">
<path fill="none" stroke="orange" stroke-dasharray="5,2" d="M272.24,-98.68C322.03,-109.08 389.04,-123.1 389.75,-123.38 410.29,-131.41 431.64,-144.51 446.96,-154.88"/>
<polygon fill="orange" stroke="orange" points="273.1,-95.08 262.59,-96.46 271.67,-101.93 273.1,-95.08"/>
</a>
</g>
<text text-anchor="middle" x="335.75" y="-125.38" font-family="Helvetica,sans-Serif" font-size="10.00" fill="grey"> &lt; t_config_option_key &gt;</text>
</g>
<!-- Node15 -->
<g id="Node000015" class="node">
<title>Node15</title>
<g id="a_Node000015"><a xlink:href="../../d6/d0e/class_slic3r_1_1_config_option_enum_def.html" target="_top" xlink:title=" ">
<polygon fill="white" stroke="#666666" points="813.25,-103.25 668.25,-103.25 668.25,-84 813.25,-84 813.25,-103.25"/>
<text text-anchor="middle" x="740.75" y="-89.75" font-family="Helvetica,sans-Serif" font-size="10.00">Slic3r::ConfigOptionEnumDef</text>
</a>
</g>
</g>
<!-- Node12&#45;&gt;Node15 -->
<g id="edge20_Node000015_Node000012" class="edge">
<title>Node12&#45;&gt;Node15</title>
<g id="a_edge20_Node000015_Node000012"><a xlink:title=" ">
<path fill="none" stroke="#9a32cd" stroke-dasharray="5,2" d="M272.51,-79.29C310.17,-73.82 361.92,-67.19 407.75,-64.38 462.76,-61 476.77,-60.53 531.75,-64.38 583.41,-67.99 641.75,-76.59 683.48,-83.54"/>
<polygon fill="#9a32cd" stroke="#9a32cd" points="272.17,-75.95 262.78,-80.86 273.19,-82.87 272.17,-75.95"/>
</a>
</g>
<text text-anchor="middle" x="469.75" y="-66.38" font-family="Helvetica,sans-Serif" font-size="10.00" fill="grey"> m_enum_names</text>
</g>
<!-- Node12&#45;&gt;Node16 -->
<g id="edge19_Node000016_Node000012" class="edge">
<title>Node12&#45;&gt;Node16</title>
<g id="a_edge19_Node000016_Node000012"><a xlink:title=" ">
<path fill="none" stroke="orange" stroke-dasharray="5,2" d="M272.63,-87.4C306.25,-87.46 350.55,-87.87 389.75,-89.38 395.52,-89.6 401.52,-89.89 407.53,-90.22"/>
<polygon fill="orange" stroke="orange" points="272.66,-83.9 262.66,-87.4 272.66,-90.9 272.66,-83.9"/>
</a>
</g>
<text text-anchor="middle" x="335.75" y="-91.38" font-family="Helvetica,sans-Serif" font-size="10.00" fill="grey"> &lt; std::string &gt;</text>
</g>
<!-- Node13 -->
<g id="Node000013" class="node">
<title>Node13</title>
<g id="a_Node000013"><a xlink:title=" ">
<polygon fill="white" stroke="#666666" points="61.4,-78.25 32.6,-78.25 32.6,-59 61.4,-59 61.4,-78.25"/>
<text text-anchor="middle" x="47" y="-64.75" font-family="Helvetica,sans-Serif" font-size="10.00">T</text>
</a>
</g>
</g>
<!-- Node13&#45;&gt;Node12 -->
<g id="edge14_Node000012_Node000013" class="edge">
<title>Node13&#45;&gt;Node12</title>
<g id="a_edge14_Node000012_Node000013"><a xlink:title=" ">
<path fill="none" stroke="#9a32cd" stroke-dasharray="5,2" d="M72.55,-71.38C99.3,-74.38 142.57,-79.24 174.84,-82.86"/>
<polygon fill="#9a32cd" stroke="#9a32cd" points="73.18,-67.82 62.85,-70.18 72.4,-74.77 73.18,-67.82"/>
</a>
</g>
<text text-anchor="middle" x="133.38" y="-82.38" font-family="Helvetica,sans-Serif" font-size="10.00" fill="grey"> elements</text>
</g>
<!-- Node17 -->
<g id="Node000017" class="node">
<title>Node17</title>
<g id="a_Node000017"><a xlink:title=" ">
<polygon fill="white" stroke="#666666" points="263.75,-19.25 172.75,-19.25 172.75,0 263.75,0 263.75,-19.25"/>
<text text-anchor="middle" x="218.25" y="-5.75" font-family="Helvetica,sans-Serif" font-size="10.00">std::map&lt; K, T &gt;</text>
</a>
</g>
</g>
<!-- Node13&#45;&gt;Node17 -->
<g id="edge23_Node000017_Node000013" class="edge">
<title>Node13&#45;&gt;Node17</title>
<g id="a_edge23_Node000017_Node000013"><a xlink:title=" ">
<path fill="none" stroke="#9a32cd" stroke-dasharray="5,2" d="M72.06,-60.24C102.7,-49.56 155.62,-31.11 188.41,-19.68"/>
<polygon fill="#9a32cd" stroke="#9a32cd" points="71.14,-57.2 62.85,-63.8 73.45,-63.81 71.14,-57.2"/>
</a>
</g>
<text text-anchor="middle" x="133.38" y="-48.38" font-family="Helvetica,sans-Serif" font-size="10.00" fill="grey"> elements</text>
</g>
<!-- Node14&#45;&gt;Node7 -->
<g id="edge15_Node000007_Node000014" class="edge">
<title>Node14&#45;&gt;Node7</title>
<g id="a_edge15_Node000007_Node000014"><a xlink:title=" ">
<path fill="none" stroke="#9a32cd" stroke-dasharray="5,2" d="M1169.56,-128.14C1220.82,-129.83 1285.67,-134.3 1342.5,-145.38 1360.12,-148.81 1379.31,-155.12 1394.09,-160.58"/>
<polygon fill="#9a32cd" stroke="#9a32cd" points="1169.93,-124.62 1159.83,-127.82 1169.72,-131.61 1169.93,-124.62"/>
</a>
</g>
<text text-anchor="middle" x="1259.5" y="-147.38" font-family="Helvetica,sans-Serif" font-size="10.00" fill="grey"> enum_def</text>
</g>
<!-- Node15&#45;&gt;Node14 -->
<g id="edge16_Node000014_Node000015" class="edge">
<title>Node15&#45;&gt;Node14</title>
<g id="a_edge16_Node000014_Node000015"><a xlink:title=" ">
<path fill="none" stroke="#9a32cd" stroke-dasharray="5,2" d="M824.22,-104.61C830.15,-105.32 836.04,-106 841.75,-106.62 892.69,-112.22 949.98,-117.37 995.15,-121.18"/>
<polygon fill="#9a32cd" stroke="#9a32cd" points="824.89,-101.04 814.54,-103.31 824.04,-107.99 824.89,-101.04"/>
</a>
</g>
<text text-anchor="middle" x="909.62" y="-121.38" font-family="Helvetica,sans-Serif" font-size="10.00" fill="grey"> px</text>
</g>
<!-- Node16&#45;&gt;Node15 -->
<g id="edge17_Node000015_Node000016" class="edge">
<title>Node16&#45;&gt;Node15</title>
<g id="a_edge17_Node000015_Node000016"><a xlink:title=" ">
<path fill="none" stroke="#9a32cd" stroke-dasharray="5,2" d="M542.83,-94.36C581.66,-94.21 629.4,-94.04 668.16,-93.89"/>
<polygon fill="#9a32cd" stroke="#9a32cd" points="543.11,-90.86 533.13,-94.4 543.14,-97.86 543.11,-90.86"/>
</a>
</g>
<text text-anchor="middle" x="594.75" y="-107.62" font-family="Helvetica,sans-Serif" font-size="10.00" fill="grey"> m_labels</text>
<text text-anchor="middle" x="594.75" y="-96.38" font-family="Helvetica,sans-Serif" font-size="10.00" fill="grey">m_values</text>
</g>
<!-- Node17&#45;&gt;Node15 -->
<g id="edge21_Node000015_Node000017" class="edge">
<title>Node17&#45;&gt;Node15</title>
<g id="a_edge21_Node000015_Node000017"><a xlink:title=" ">
<path fill="none" stroke="#9a32cd" stroke-dasharray="5,2" d="M274.84,-9.03C357.04,-9.83 514.77,-17.79 639.75,-62.62 648.57,-65.79 649.09,-70.03 657.75,-73.62 667.22,-77.56 677.64,-80.84 687.79,-83.53"/>
<polygon fill="#9a32cd" stroke="#9a32cd" points="275.02,-5.53 264.99,-8.97 274.97,-12.53 275.02,-5.53"/>
</a>
</g>
<text text-anchor="middle" x="469.75" y="-35.38" font-family="Helvetica,sans-Serif" font-size="10.00" fill="grey"> m_enum_keys_map</text>
</g>
<!-- Node18 -->
<g id="Node000018" class="node">
<title>Node18</title>
<g id="a_Node000018"><a xlink:title=" ">
<polygon fill="white" stroke="#666666" points="61.4,-19.25 32.6,-19.25 32.6,0 61.4,0 61.4,-19.25"/>
<text text-anchor="middle" x="47" y="-5.75" font-family="Helvetica,sans-Serif" font-size="10.00">K</text>
</a>
</g>
</g>
<!-- Node18&#45;&gt;Node17 -->
<g id="edge22_Node000017_Node000018" class="edge">
<title>Node18&#45;&gt;Node17</title>
<g id="a_edge22_Node000017_Node000018"><a xlink:title=" ">
<path fill="none" stroke="#9a32cd" stroke-dasharray="5,2" d="M72.63,-9.62C98.69,-9.62 140.37,-9.62 172.3,-9.62"/>
<polygon fill="#9a32cd" stroke="#9a32cd" points="72.85,-6.13 62.85,-9.62 72.85,-13.13 72.85,-6.13"/>
</a>
</g>
<text text-anchor="middle" x="133.38" y="-11.38" font-family="Helvetica,sans-Serif" font-size="10.00" fill="grey"> keys</text>
</g>
</g>
</svg>
