<?xml version="1.0" encoding="UTF-8" standalone="no"?>
<!DOCTYPE svg PUBLIC "-//W3C//DTD SVG 1.1//EN"
 "http://www.w3.org/Graphics/SVG/1.1/DTD/svg11.dtd">
<!-- Generated by graphviz version 8.0.5 (20230430.1635)
 -->
<!-- Title: Slic3r::SLAPrintObject::closest_slice_to_slice_level Pages: 1 -->
<!--zoomable 76 -->

<svg id="main" version="1.1" xmlns="http://www.w3.org/2000/svg" xmlns:xlink="http://www.w3.org/1999/xlink" xml:space="preserve" onload="init(evt)">
<style type="text/css"><![CDATA[
.node, .edge {opacity: 0.7;}
.node.selected, .edge.selected {opacity: 1;}
.edge:hover path { stroke: red; }
.edge:hover polygon { stroke: red; fill: red; }
]]></style>

<defs>
  <circle id="rim" cx="0" cy="0" r="7"/>
  <circle id="rim2" cx="0" cy="0" r="3.5"/>
  <g id="zoomPlus">
    <use xlink:href="#rim" fill="#404040"><set attributeName="fill" to="#808080" begin="zoomplus.mouseover" end="zoomplus.mouseout"/></use>
    <path d="M-4,0h8M0,-4v8" fill="none" stroke="white" stroke-width="1.5" pointer-events="none"/>
  </g>
  <g id="zoomMin">
    <use xlink:href="#rim" fill="#404040"><set attributeName="fill" to="#808080" begin="zoomminus.mouseover" end="zoomminus.mouseout"/></use>
    <path d="M-4,0h8" fill="none" stroke="white" stroke-width="1.5" pointer-events="none"/>
  </g>
  <g id="arrowUp" transform="translate(30 24)">
    <use xlink:href="#rim"/>
    <path pointer-events="none" fill="none" stroke="white" stroke-width="1.5" d="M0,-3.0v7 M-2.5,-0.5L0,-3.0L2.5,-0.5"/>
  </g>
  <g id="arrowRight" transform="rotate(90) translate(36 -43)">
    <use xlink:href="#rim"/>
    <path pointer-events="none" fill="none" stroke="white" stroke-width="1.5" d="M0,-3.0v7 M-2.5,-0.5L0,-3.0L2.5,-0.5"/>
  </g>
  <g id="arrowDown" transform="rotate(180) translate(-30 -48)">
    <use xlink:href="#rim"/>
    <path pointer-events="none" fill="none" stroke="white" stroke-width="1.5" d="M0,-3.0v7 M-2.5,-0.5L0,-3.0L2.5,-0.5"/>
  </g>
  <g id="arrowLeft" transform="rotate(270) translate(-36 17)">
    <use xlink:href="#rim"/>
    <path pointer-events="none" fill="none" stroke="white" stroke-width="1.5" d="M0,-3.0v7 M-2.5,-0.5L0,-3.0L2.5,-0.5"/>
  </g>
  <g id="resetDef">
    <use xlink:href="#rim2" fill="#404040"><set attributeName="fill" to="#808080" begin="reset.mouseover" end="reset.mouseout"/></use>
  </g>
</defs>
<script type="application/ecmascript">
var viewWidth = 704;
var viewHeight = 76;
var sectionId = 'dynsection-12';
</script>
<script type="application/ecmascript" xlink:href="../../svg.min.js"/>
<svg id="graph" class="graph">
<g id="viewport">
<title>Slic3r::SLAPrintObject::closest_slice_to_slice_level</title>
<!-- Node1 -->
<g id="Node000001" class="node">
<title>Node1</title>
<g id="a_Node000001"><a xlink:title=" ">
<polygon fill="#999999" stroke="#666666" points="143.5,-45.88 0,-45.88 0,-15.37 143.5,-15.37 143.5,-45.88"/>
<text text-anchor="start" x="8" y="-32.38" font-family="Helvetica,sans-Serif" font-size="10.00">Slic3r::SLAPrintObject</text>
<text text-anchor="middle" x="71.75" y="-21.12" font-family="Helvetica,sans-Serif" font-size="10.00">::closest_slice_to_slice_level</text>
</a>
</g>
</g>
<!-- Node2 -->
<g id="Node000002" class="node">
<title>Node2</title>
<g id="a_Node000002"><a xlink:href="../../d1/daf/class_slic3r_1_1_s_l_a_print_object.html#a8992ff0bba990d068fabee9bc87b3e02" target="_top" xlink:title=" ">
<polygon fill="white" stroke="#666666" points="293.75,-45.88 179.5,-45.88 179.5,-15.37 293.75,-15.37 293.75,-45.88"/>
<text text-anchor="start" x="187.5" y="-32.38" font-family="Helvetica,sans-Serif" font-size="10.00">Slic3r::SLAPrintObject</text>
<text text-anchor="middle" x="236.62" y="-21.12" font-family="Helvetica,sans-Serif" font-size="10.00">::closest_slice_record</text>
</a>
</g>
</g>
<!-- Node1&#45;&gt;Node2 -->
<g id="edge1_Node000001_Node000002" class="edge">
<title>Node1&#45;&gt;Node2</title>
<g id="a_edge1_Node000001_Node000002"><a xlink:title=" ">
<path fill="none" stroke="#63b8ff" d="M143.72,-30.62C151.85,-30.62 160.12,-30.62 168.21,-30.62"/>
<polygon fill="#63b8ff" stroke="#63b8ff" points="168.08,-34.13 178.08,-30.62 168.08,-27.13 168.08,-34.13"/>
</a>
</g>
</g>
<!-- Node3 -->
<g id="Node000003" class="node">
<title>Node3</title>
<g id="a_Node000003"><a xlink:href="../../d1/daf/class_slic3r_1_1_s_l_a_print_object.html#ad42003b9cdfb08c471c1d5587e7f194b" target="_top" xlink:title=" ">
<polygon fill="white" stroke="#666666" points="444,-67.88 329.75,-67.88 329.75,-37.38 444,-37.38 444,-67.88"/>
<text text-anchor="start" x="337.75" y="-54.38" font-family="Helvetica,sans-Serif" font-size="10.00">Slic3r::SLAPrintObject</text>
<text text-anchor="middle" x="386.88" y="-43.12" font-family="Helvetica,sans-Serif" font-size="10.00">::create_slice_record</text>
</a>
</g>
</g>
<!-- Node2&#45;&gt;Node3 -->
<g id="edge2_Node000002_Node000003" class="edge">
<title>Node2&#45;&gt;Node3</title>
<g id="a_edge2_Node000002_Node000003"><a xlink:title=" ">
<path fill="none" stroke="#63b8ff" d="M294.09,-39.01C302.17,-40.2 310.55,-41.45 318.81,-42.67"/>
<polygon fill="#63b8ff" stroke="#63b8ff" points="318.16,-46.26 328.56,-44.27 319.18,-39.34 318.16,-46.26"/>
</a>
</g>
</g>
<!-- Node4 -->
<g id="Node000004" class="node">
<title>Node4</title>
<g id="a_Node000004"><a xlink:href="../../de/db8/namespace_slic3r.html#aed0434d42d75979bb4d469ff41de7158" target="_top" xlink:title=" ">
<polygon fill="white" stroke="#666666" points="417,-19.25 356.75,-19.25 356.75,0 417,0 417,-19.25"/>
<text text-anchor="middle" x="386.88" y="-5.75" font-family="Helvetica,sans-Serif" font-size="10.00">Slic3r::diff</text>
</a>
</g>
</g>
<!-- Node2&#45;&gt;Node4 -->
<g id="edge3_Node000002_Node000004" class="edge">
<title>Node2&#45;&gt;Node4</title>
<g id="a_edge3_Node000002_Node000004"><a xlink:title=" ">
<path fill="none" stroke="#63b8ff" d="M294.09,-22.63C311.38,-20.18 330.03,-17.54 345.97,-15.28"/>
<polygon fill="#63b8ff" stroke="#63b8ff" points="346.11,-18.65 355.52,-13.78 345.13,-11.72 346.11,-18.65"/>
</a>
</g>
</g>
<!-- Node5 -->
<g id="Node000005" class="node">
<title>Node5</title>
<g id="a_Node000005"><a xlink:href="../../de/db8/namespace_slic3r.html#a440bb1d57671f454ad4fab4f192430cf" target="_top" xlink:title=" ">
<polygon fill="white" stroke="#666666" points="560.5,-19.25 480,-19.25 480,0 560.5,0 560.5,-19.25"/>
<text text-anchor="middle" x="520.25" y="-5.75" font-family="Helvetica,sans-Serif" font-size="10.00">Slic3r::_clipper</text>
</a>
</g>
</g>
<!-- Node4&#45;&gt;Node5 -->
<g id="edge4_Node000004_Node000005" class="edge">
<title>Node4&#45;&gt;Node5</title>
<g id="a_edge4_Node000004_Node000005"><a xlink:title=" ">
<path fill="none" stroke="#63b8ff" d="M417.36,-9.62C432.64,-9.62 451.74,-9.62 469.25,-9.62"/>
<polygon fill="#63b8ff" stroke="#63b8ff" points="468.9,-13.13 478.9,-9.62 468.9,-6.13 468.9,-13.13"/>
</a>
</g>
</g>
<!-- Node6 -->
<g id="Node000006" class="node">
<title>Node6</title>
<g id="a_Node000006"><a xlink:href="../../de/db8/namespace_slic3r.html#a843ba2fe16b213f550fb3d55c55a716e" target="_top" xlink:title=" ">
<polygon fill="white" stroke="#666666" points="695.75,-19.25 596.5,-19.25 596.5,0 695.75,0 695.75,-19.25"/>
<text text-anchor="middle" x="646.12" y="-5.75" font-family="Helvetica,sans-Serif" font-size="10.00">Slic3r::to_polygons</text>
</a>
</g>
</g>
<!-- Node5&#45;&gt;Node6 -->
<g id="edge5_Node000005_Node000006" class="edge">
<title>Node5&#45;&gt;Node6</title>
<g id="a_edge5_Node000005_Node000006"><a xlink:title=" ">
<path fill="none" stroke="#63b8ff" d="M560.79,-9.62C568.66,-9.62 577.1,-9.62 585.48,-9.62"/>
<polygon fill="#63b8ff" stroke="#63b8ff" points="585.41,-13.13 595.41,-9.62 585.41,-6.13 585.41,-13.13"/>
</a>
</g>
</g>
</g>
</svg>

<g id="navigator" transform="translate(0 0)" fill="#404254">
  <rect fill="#f2f5e9" fill-opacity="0.5" stroke="#606060" stroke-width=".5" x="0" y="0" width="60" height="60"/>
  <use id="zoomplus" xlink:href="#zoomPlus" x="17" y="9" onmousedown="handleZoom(evt,'in')"/>
  <use id="zoomminus" xlink:href="#zoomMin" x="42" y="9" onmousedown="handleZoom(evt,'out')"/>
  <use id="reset" xlink:href="#resetDef" x="30" y="36" onmousedown="handleReset()"/>
   <use id="arrowup" xlink:href="#arrowUp" x="0" y="0" onmousedown="handlePan(0,-1)"/>
  <use id="arrowright" xlink:href="#arrowRight" x="0" y="0" onmousedown="handlePan(1,0)"/>
  <use id="arrowdown" xlink:href="#arrowDown" x="0" y="0" onmousedown="handlePan(0,1)"/>
  <use id="arrowleft" xlink:href="#arrowLeft" x="0" y="0" onmousedown="handlePan(-1,0)"/>
</g>
<svg viewBox="0 0 15 15" width="100%" height="30px" preserveAspectRatio="xMaxYMin meet">
 <g id="arrow_out" transform="scale(0.3 0.3)">
  <a xlink:href="class_slic3r_1_1_s_l_a_print_object_a1302ce69f7c94b15a634aaade13bf156_cgraph_org.svg" target="_base">
   <rect id="button" ry="5" rx="5" y="6" x="6" height="38" width="38"
        fill="#f2f5e9" fill-opacity="0.5" stroke="#606060" stroke-width="1.0"/>
   <path id="arrow"
     d="M 11.500037,31.436501 C 11.940474,20.09759 22.043105,11.32322 32.158766,21.979434 L 37.068811,17.246167 C 37.068811,17.246167 37.088388,32 37.088388,32 L 22.160133,31.978069 C 22.160133,31.978069 26.997745,27.140456 26.997745,27.140456 C 18.528582,18.264221 13.291696,25.230495 11.500037,31.436501 z"
     style="fill:#404040;"/>
  </a>
 </g>
</svg>

<style type='text/css'>
<![CDATA[
[data-mouse-over-selected='false'] { opacity: 0.7; }
[data-mouse-over-selected='true']  { opacity: 1.0; }
]]>
</style>
<script type="application/ecmascript"><![CDATA[
document.addEventListener('DOMContentLoaded', (event) => {
  highlightEdges();
  highlightAdjacentNodes();
});
]]></script>
</svg>
