<?xml version="1.0" encoding="UTF-8" standalone="no"?>
<!DOCTYPE svg PUBLIC "-//W3C//DTD SVG 1.1//EN"
 "http://www.w3.org/Graphics/SVG/1.1/DTD/svg11.dtd">
<!-- Generated by graphviz version 8.0.5 (20230430.1635)
 -->
<!-- Title: Slic3r::SLAPrintObject::support_mesh Pages: 1 -->
<svg width="1009pt" height="521pt"
 viewBox="0.00 0.00 1008.50 520.50" xmlns="http://www.w3.org/2000/svg" xmlns:xlink="http://www.w3.org/1999/xlink">
<g id="graph0" class="graph" transform="scale(1 1) rotate(0) translate(4 516.5)">
<title>Slic3r::SLAPrintObject::support_mesh</title>
<!-- Node1 -->
<g id="Node000001" class="node">
<title>Node1</title>
<g id="a_Node000001"><a xlink:title=" ">
<polygon fill="#999999" stroke="#666666" points="1000.5,-174.5 886.25,-174.5 886.25,-144 1000.5,-144 1000.5,-174.5"/>
<text text-anchor="start" x="894.25" y="-161" font-family="Helvetica,sans-Serif" font-size="10.00">Slic3r::SLAPrintObject</text>
<text text-anchor="middle" x="943.38" y="-149.75" font-family="Helvetica,sans-Serif" font-size="10.00">::support_mesh</text>
</a>
</g>
</g>
<!-- Node2 -->
<g id="Node000002" class="node">
<title>Node2</title>
<g id="a_Node000002"><a xlink:href="../../d4/dc9/class_slic3r_1_1_g_l_volume_collection.html#a177044fd301020bcbcc70ae2cb465e95" target="_top" xlink:title=" ">
<polygon fill="white" stroke="#666666" points="843.5,-282.5 708.25,-282.5 708.25,-252 843.5,-252 843.5,-282.5"/>
<text text-anchor="start" x="716.25" y="-269" font-family="Helvetica,sans-Serif" font-size="10.00">Slic3r::GLVolumeCollection</text>
<text text-anchor="middle" x="775.88" y="-257.75" font-family="Helvetica,sans-Serif" font-size="10.00">::load_object_auxiliary</text>
</a>
</g>
</g>
<!-- Node1&#45;&gt;Node2 -->
<g id="edge1_Node000001_Node000002" class="edge">
<title>Node1&#45;&gt;Node2</title>
<g id="a_edge1_Node000001_Node000002"><a xlink:title=" ">
<path fill="none" stroke="#63b8ff" d="M921.9,-182.76C904.5,-201.46 877.98,-227.09 850.25,-243.25 844.92,-246.35 839.14,-249.12 833.24,-251.56"/>
<polygon fill="#63b8ff" stroke="#63b8ff" points="924.08,-185.47 928.23,-175.72 918.91,-180.76 924.08,-185.47"/>
</a>
</g>
</g>
<!-- Node22 -->
<g id="Node000022" class="node">
<title>Node22</title>
<g id="a_Node000022"><a xlink:href="../../d0/dae/class_slic3r_1_1_g_u_i_1_1_common_gizmos_data_objects_1_1_supports_clipper.html#aed49ad61048910e44e66eeaa0c11ab68" target="_top" xlink:title=" ">
<polygon fill="white" stroke="#666666" points="849.12,-234.12 702.62,-234.12 702.62,-192.38 849.12,-192.38 849.12,-234.12"/>
<text text-anchor="start" x="710.62" y="-220.62" font-family="Helvetica,sans-Serif" font-size="10.00">Slic3r::GUI::CommonGizmos</text>
<text text-anchor="start" x="710.62" y="-209.38" font-family="Helvetica,sans-Serif" font-size="10.00">DataObjects::SupportsClipper</text>
<text text-anchor="middle" x="775.88" y="-198.12" font-family="Helvetica,sans-Serif" font-size="10.00">::on_update</text>
</a>
</g>
</g>
<!-- Node1&#45;&gt;Node22 -->
<g id="edge22_Node000001_Node000022" class="edge">
<title>Node1&#45;&gt;Node22</title>
<g id="a_edge22_Node000001_Node000022"><a xlink:title=" ">
<path fill="none" stroke="#63b8ff" d="M884.31,-178.2C870.69,-182.64 856.09,-187.4 842.18,-191.94"/>
<polygon fill="#63b8ff" stroke="#63b8ff" points="885.08,-181.3 893.51,-174.87 882.91,-174.64 885.08,-181.3"/>
</a>
</g>
</g>
<!-- Node23 -->
<g id="Node000023" class="node">
<title>Node23</title>
<g id="a_Node000023"><a xlink:href="../../d6/da3/class_slic3r_1_1_s_l_a_print_1_1_steps.html#a7f4c385f39bb8d76ae35c75066a67bb8" target="_top" xlink:title=" ">
<polygon fill="white" stroke="#666666" points="834.5,-174.5 717.25,-174.5 717.25,-144 834.5,-144 834.5,-174.5"/>
<text text-anchor="start" x="725.25" y="-161" font-family="Helvetica,sans-Serif" font-size="10.00">Slic3r::SLAPrint::Steps</text>
<text text-anchor="middle" x="775.88" y="-149.75" font-family="Helvetica,sans-Serif" font-size="10.00">::support_tree</text>
</a>
</g>
</g>
<!-- Node1&#45;&gt;Node23 -->
<g id="edge23_Node000001_Node000023" class="edge">
<title>Node1&#45;&gt;Node23</title>
<g id="a_edge23_Node000001_Node000023"><a xlink:title=" ">
<path fill="none" stroke="#63b8ff" d="M875.27,-159.25C861.86,-159.25 847.88,-159.25 834.8,-159.25"/>
<polygon fill="#63b8ff" stroke="#63b8ff" points="874.88,-162.75 884.88,-159.25 874.88,-155.75 874.88,-162.75"/>
</a>
</g>
</g>
<!-- Node24 -->
<g id="Node000024" class="node">
<title>Node24</title>
<g id="a_Node000024"><a xlink:href="../../d9/d45/namespace_slic3r_1_1_g_u_i.html#a3c86587ac3c54856df30cd0c6544fa55" target="_top" xlink:title=" ">
<polygon fill="white" stroke="#666666" points="830,-125.5 721.75,-125.5 721.75,-95 830,-95 830,-125.5"/>
<text text-anchor="start" x="729.75" y="-112" font-family="Helvetica,sans-Serif" font-size="10.00">Slic3r::GUI::update</text>
<text text-anchor="middle" x="775.88" y="-100.75" font-family="Helvetica,sans-Serif" font-size="10.00">_arrangepoly_slaprint</text>
</a>
</g>
</g>
<!-- Node1&#45;&gt;Node24 -->
<g id="edge24_Node000001_Node000024" class="edge">
<title>Node1&#45;&gt;Node24</title>
<g id="a_edge24_Node000001_Node000024"><a xlink:title=" ">
<path fill="none" stroke="#63b8ff" d="M879.1,-140.52C862.91,-135.72 845.67,-130.62 830.05,-125.99"/>
<polygon fill="#63b8ff" stroke="#63b8ff" points="877.97,-144.13 888.55,-143.61 879.96,-137.42 877.97,-144.13"/>
</a>
</g>
</g>
<!-- Node34 -->
<g id="Node000034" class="node">
<title>Node34</title>
<g id="a_Node000034"><a xlink:href="../../d0/d5d/class_slic3r_1_1_g_u_i_1_1_g_l_gizmo_sla_base.html#a9758ed909d9341ee754483d9e1a86aeb" target="_top" xlink:title=" ">
<polygon fill="white" stroke="#666666" points="850.25,-76.5 701.5,-76.5 701.5,-46 850.25,-46 850.25,-76.5"/>
<text text-anchor="start" x="709.5" y="-63" font-family="Helvetica,sans-Serif" font-size="10.00">Slic3r::GUI::GLGizmoSlaBase</text>
<text text-anchor="middle" x="775.88" y="-51.75" font-family="Helvetica,sans-Serif" font-size="10.00">::update_volumes</text>
</a>
</g>
</g>
<!-- Node1&#45;&gt;Node34 -->
<g id="edge38_Node000001_Node000034" class="edge">
<title>Node1&#45;&gt;Node34</title>
<g id="a_edge38_Node000001_Node000034"><a xlink:title=" ">
<path fill="none" stroke="#63b8ff" d="M918.25,-136.32C900.56,-120.5 875.35,-99.94 850.25,-86.25 843.87,-82.77 836.92,-79.65 829.92,-76.88"/>
<polygon fill="#63b8ff" stroke="#63b8ff" points="915.55,-138.5 925.3,-142.65 920.26,-133.33 915.55,-138.5"/>
</a>
</g>
</g>
<!-- Node3 -->
<g id="Node000003" class="node">
<title>Node3</title>
<g id="a_Node000003"><a xlink:href="../../d0/d2b/class_slic3r_1_1_g_u_i_1_1_g_l_canvas3_d.html#a0952c42bc924ff44ed130a2ff77bb370" target="_top" xlink:title=" ">
<polygon fill="white" stroke="#666666" points="647.88,-282.5 517.88,-282.5 517.88,-252 647.88,-252 647.88,-282.5"/>
<text text-anchor="start" x="525.88" y="-269" font-family="Helvetica,sans-Serif" font-size="10.00">Slic3r::GUI::GLCanvas3D</text>
<text text-anchor="middle" x="582.88" y="-257.75" font-family="Helvetica,sans-Serif" font-size="10.00">::reload_scene</text>
</a>
</g>
</g>
<!-- Node2&#45;&gt;Node3 -->
<g id="edge2_Node000002_Node000003" class="edge">
<title>Node2&#45;&gt;Node3</title>
<g id="a_edge2_Node000002_Node000003"><a xlink:title=" ">
<path fill="none" stroke="#63b8ff" d="M697.23,-267.25C680.95,-267.25 663.95,-267.25 648.22,-267.25"/>
<polygon fill="#63b8ff" stroke="#63b8ff" points="696.8,-270.75 706.8,-267.25 696.8,-263.75 696.8,-270.75"/>
</a>
</g>
</g>
<!-- Node4 -->
<g id="Node000004" class="node">
<title>Node4</title>
<g id="a_Node000004"><a xlink:href="../../d0/d2b/class_slic3r_1_1_g_u_i_1_1_g_l_canvas3_d.html#a6379e5a8883b2a7c10e897ad357a6c6f" target="_top" xlink:title=" ">
<polygon fill="white" stroke="#666666" points="463.12,-402.12 333.12,-402.12 333.12,-360.38 463.12,-360.38 463.12,-402.12"/>
<text text-anchor="start" x="341.12" y="-388.62" font-family="Helvetica,sans-Serif" font-size="10.00">Slic3r::GUI::GLCanvas3D</text>
<text text-anchor="start" x="341.12" y="-377.38" font-family="Helvetica,sans-Serif" font-size="10.00">::_refresh_if_shown_on</text>
<text text-anchor="middle" x="398.12" y="-366.12" font-family="Helvetica,sans-Serif" font-size="10.00">_screen</text>
</a>
</g>
</g>
<!-- Node3&#45;&gt;Node4 -->
<g id="edge3_Node000003_Node000004" class="edge">
<title>Node3&#45;&gt;Node4</title>
<g id="a_edge3_Node000003_Node000004"><a xlink:title=" ">
<path fill="none" stroke="#63b8ff" d="M547.66,-288.59C514.93,-309.01 465.85,-339.63 433.17,-360.01"/>
<polygon fill="#63b8ff" stroke="#63b8ff" points="549.22,-291.12 555.85,-282.86 545.51,-285.19 549.22,-291.12"/>
</a>
</g>
</g>
<!-- Node11 -->
<g id="Node000011" class="node">
<title>Node11</title>
<g id="a_Node000011"><a xlink:href="../../dd/d03/class_slic3r_1_1_g_u_i_1_1_object_list.html#a2670d6019bfdc5bad524330fe9581757" target="_top" xlink:title=" ">
<polygon fill="white" stroke="#666666" points="455.62,-320.5 340.62,-320.5 340.62,-290 455.62,-290 455.62,-320.5"/>
<text text-anchor="start" x="348.62" y="-307" font-family="Helvetica,sans-Serif" font-size="10.00">Slic3r::GUI::ObjectList</text>
<text text-anchor="middle" x="398.12" y="-295.75" font-family="Helvetica,sans-Serif" font-size="10.00">::del_info_item</text>
</a>
</g>
</g>
<!-- Node3&#45;&gt;Node11 -->
<g id="edge15_Node000003_Node000011" class="edge">
<title>Node3&#45;&gt;Node11</title>
<g id="a_edge15_Node000003_Node000011"><a xlink:title=" ">
<path fill="none" stroke="#63b8ff" d="M506.97,-282.83C489.94,-286.37 472.12,-290.07 455.98,-293.43"/>
<polygon fill="#63b8ff" stroke="#63b8ff" points="507.37,-286.11 516.44,-280.65 505.94,-279.26 507.37,-286.11"/>
</a>
</g>
</g>
<!-- Node20 -->
<g id="Node000020" class="node">
<title>Node20</title>
<g id="a_Node000020"><a xlink:href="../../d1/d51/class_slic3r_1_1_g_u_i_1_1_emboss_1_1_create_object_job.html#a18c6adc32c81682e81928c90b5d96f7f" target="_top" xlink:title=" ">
<polygon fill="white" stroke="#666666" points="464.25,-271.5 332,-271.5 332,-241 464.25,-241 464.25,-271.5"/>
<text text-anchor="start" x="340" y="-258" font-family="Helvetica,sans-Serif" font-size="10.00">Slic3r::GUI::Emboss</text>
<text text-anchor="middle" x="398.12" y="-246.75" font-family="Helvetica,sans-Serif" font-size="10.00">::CreateObjectJob::finalize</text>
</a>
</g>
</g>
<!-- Node3&#45;&gt;Node20 -->
<g id="edge20_Node000003_Node000020" class="edge">
<title>Node3&#45;&gt;Node20</title>
<g id="a_edge20_Node000003_Node000020"><a xlink:title=" ">
<path fill="none" stroke="#63b8ff" d="M506.84,-262.73C492.8,-261.89 478.23,-261.01 464.52,-260.19"/>
<polygon fill="#63b8ff" stroke="#63b8ff" points="506.25,-266.26 516.44,-263.37 506.67,-259.28 506.25,-266.26"/>
</a>
</g>
</g>
<!-- Node21 -->
<g id="Node000021" class="node">
<title>Node21</title>
<g id="a_Node000021"><a xlink:href="../../d7/de9/class_slic3r_1_1_g_u_i_1_1_view3_d.html#aebeb9fad93bb2b59fee7305c5447fecc" target="_top" xlink:title=" ">
<polygon fill="white" stroke="#666666" points="450.75,-222.5 345.5,-222.5 345.5,-192 450.75,-192 450.75,-222.5"/>
<text text-anchor="start" x="353.5" y="-209" font-family="Helvetica,sans-Serif" font-size="10.00">Slic3r::GUI::View3D</text>
<text text-anchor="middle" x="398.12" y="-197.75" font-family="Helvetica,sans-Serif" font-size="10.00">::reload_scene</text>
</a>
</g>
</g>
<!-- Node3&#45;&gt;Node21 -->
<g id="edge21_Node000003_Node000021" class="edge">
<title>Node3&#45;&gt;Node21</title>
<g id="a_edge21_Node000003_Node000021"><a xlink:title=" ">
<path fill="none" stroke="#63b8ff" d="M523.98,-248.24C499.2,-240.11 470.62,-230.72 447.06,-222.99"/>
<polygon fill="#63b8ff" stroke="#63b8ff" points="522.74,-251.85 533.34,-251.64 524.93,-245.2 522.74,-251.85"/>
</a>
</g>
</g>
<!-- Node5 -->
<g id="Node000005" class="node">
<title>Node5</title>
<g id="a_Node000005"><a xlink:href="../../d0/d2b/class_slic3r_1_1_g_u_i_1_1_g_l_canvas3_d.html#a43e426ee93eca3963c86ad0dd7796876" target="_top" xlink:title=" ">
<polygon fill="white" stroke="#666666" points="296,-396.5 166,-396.5 166,-366 296,-366 296,-396.5"/>
<text text-anchor="start" x="174" y="-383" font-family="Helvetica,sans-Serif" font-size="10.00">Slic3r::GUI::GLCanvas3D</text>
<text text-anchor="middle" x="231" y="-371.75" font-family="Helvetica,sans-Serif" font-size="10.00">::on_idle</text>
</a>
</g>
</g>
<!-- Node4&#45;&gt;Node5 -->
<g id="edge4_Node000004_Node000005" class="edge">
<title>Node4&#45;&gt;Node5</title>
<g id="a_edge4_Node000004_Node000005"><a xlink:title=" ">
<path fill="none" stroke="#63b8ff" d="M322.05,-381.25C313.49,-381.25 304.82,-381.25 296.41,-381.25"/>
<polygon fill="#63b8ff" stroke="#63b8ff" points="321.81,-384.75 331.81,-381.25 321.81,-377.75 321.81,-384.75"/>
</a>
</g>
</g>
<!-- Node8 -->
<g id="Node000008" class="node">
<title>Node8</title>
<g id="a_Node000008"><a xlink:href="../../d0/d2b/class_slic3r_1_1_g_u_i_1_1_g_l_canvas3_d.html#a15fc8ce385048544064e6e434e09de23" target="_top" xlink:title=" ">
<polygon fill="white" stroke="#666666" points="296,-494.5 166,-494.5 166,-464 296,-464 296,-494.5"/>
<text text-anchor="start" x="174" y="-481" font-family="Helvetica,sans-Serif" font-size="10.00">Slic3r::GUI::GLCanvas3D</text>
<text text-anchor="middle" x="231" y="-469.75" font-family="Helvetica,sans-Serif" font-size="10.00">::on_mouse</text>
</a>
</g>
</g>
<!-- Node4&#45;&gt;Node8 -->
<g id="edge7_Node000004_Node000008" class="edge">
<title>Node4&#45;&gt;Node8</title>
<g id="a_edge7_Node000004_Node000008"><a xlink:title=" ">
<path fill="none" stroke="#63b8ff" d="M363.14,-409.1C344.16,-423.79 319.64,-441.37 296,-454.25 289.82,-457.62 283.09,-460.76 276.39,-463.6"/>
<polygon fill="#63b8ff" stroke="#63b8ff" points="365.01,-411.3 370.72,-402.38 360.69,-405.8 365.01,-411.3"/>
</a>
</g>
</g>
<!-- Node9 -->
<g id="Node000009" class="node">
<title>Node9</title>
<g id="a_Node000009"><a xlink:href="../../d0/d2b/class_slic3r_1_1_g_u_i_1_1_g_l_canvas3_d.html#ab6b94328fd7dee2aed04efa73eb03208" target="_top" xlink:title=" ">
<polygon fill="white" stroke="#666666" points="296,-445.5 166,-445.5 166,-415 296,-415 296,-445.5"/>
<text text-anchor="start" x="174" y="-432" font-family="Helvetica,sans-Serif" font-size="10.00">Slic3r::GUI::GLCanvas3D</text>
<text text-anchor="middle" x="231" y="-420.75" font-family="Helvetica,sans-Serif" font-size="10.00">::on_set_focus</text>
</a>
</g>
</g>
<!-- Node4&#45;&gt;Node9 -->
<g id="edge11_Node000004_Node000009" class="edge">
<title>Node4&#45;&gt;Node9</title>
<g id="a_edge11_Node000004_Node000009"><a xlink:title=" ">
<path fill="none" stroke="#63b8ff" d="M322.3,-403.45C309.69,-407.2 296.84,-411.01 284.93,-414.54"/>
<polygon fill="#63b8ff" stroke="#63b8ff" points="323.22,-406.54 331.81,-400.33 321.23,-399.82 323.22,-406.54"/>
</a>
</g>
</g>
<!-- Node10 -->
<g id="Node000010" class="node">
<title>Node10</title>
<g id="a_Node000010"><a xlink:href="../../d0/d2b/class_slic3r_1_1_g_u_i_1_1_g_l_canvas3_d.html#a2b90c18fa7f51123b3ca34c325d5bf83" target="_top" xlink:title=" ">
<polygon fill="white" stroke="#666666" points="296,-347.5 166,-347.5 166,-317 296,-317 296,-347.5"/>
<text text-anchor="start" x="174" y="-334" font-family="Helvetica,sans-Serif" font-size="10.00">Slic3r::GUI::GLCanvas3D</text>
<text text-anchor="middle" x="231" y="-322.75" font-family="Helvetica,sans-Serif" font-size="10.00">::update_ui_from_settings</text>
</a>
</g>
</g>
<!-- Node4&#45;&gt;Node10 -->
<g id="edge14_Node000004_Node000010" class="edge">
<title>Node4&#45;&gt;Node10</title>
<g id="a_edge14_Node000004_Node000010"><a xlink:title=" ">
<path fill="none" stroke="#63b8ff" d="M322.3,-359.05C309.69,-355.3 296.84,-351.49 284.93,-347.96"/>
<polygon fill="#63b8ff" stroke="#63b8ff" points="321.23,-362.68 331.81,-362.17 323.22,-355.96 321.23,-362.68"/>
</a>
</g>
</g>
<!-- Node6 -->
<g id="Node000006" class="node">
<title>Node6</title>
<g id="a_Node000006"><a xlink:href="../../d0/d2b/class_slic3r_1_1_g_u_i_1_1_g_l_canvas3_d.html#a9ba6503e9ea6e8ea3050de89e6835f52" target="_top" xlink:title=" ">
<polygon fill="white" stroke="#666666" points="130,-425.5 0,-425.5 0,-395 130,-395 130,-425.5"/>
<text text-anchor="start" x="8" y="-412" font-family="Helvetica,sans-Serif" font-size="10.00">Slic3r::GUI::GLCanvas3D</text>
<text text-anchor="middle" x="65" y="-400.75" font-family="Helvetica,sans-Serif" font-size="10.00">::bind_event_handlers</text>
</a>
</g>
</g>
<!-- Node5&#45;&gt;Node6 -->
<g id="edge5_Node000005_Node000006" class="edge">
<title>Node5&#45;&gt;Node6</title>
<g id="a_edge5_Node000005_Node000006"><a xlink:title=" ">
<path fill="none" stroke="#63b8ff" d="M154.96,-394.52C146.77,-395.97 138.48,-397.43 130.43,-398.86"/>
<polygon fill="#63b8ff" stroke="#63b8ff" points="155.42,-397.82 164.65,-392.63 154.2,-390.92 155.42,-397.82"/>
</a>
</g>
</g>
<!-- Node7 -->
<g id="Node000007" class="node">
<title>Node7</title>
<g id="a_Node000007"><a xlink:href="../../d0/d2b/class_slic3r_1_1_g_u_i_1_1_g_l_canvas3_d.html#a16e40798bb4d5ad13209c3feaea9b21d" target="_top" xlink:title=" ">
<polygon fill="white" stroke="#666666" points="130,-474.5 0,-474.5 0,-444 130,-444 130,-474.5"/>
<text text-anchor="start" x="8" y="-461" font-family="Helvetica,sans-Serif" font-size="10.00">Slic3r::GUI::GLCanvas3D</text>
<text text-anchor="middle" x="65" y="-449.75" font-family="Helvetica,sans-Serif" font-size="10.00">::unbind_event_handlers</text>
</a>
</g>
</g>
<!-- Node5&#45;&gt;Node7 -->
<g id="edge6_Node000005_Node000007" class="edge">
<title>Node5&#45;&gt;Node7</title>
<g id="a_edge6_Node000005_Node000007"><a xlink:title=" ">
<path fill="none" stroke="#63b8ff" d="M174.91,-401.56C171.85,-403.06 168.86,-404.62 166,-406.25 148.38,-416.26 147.62,-424.24 130,-434.25 124.09,-437.61 117.64,-440.71 111.18,-443.51"/>
<polygon fill="#63b8ff" stroke="#63b8ff" points="176.2,-404.35 183.82,-396.99 173.27,-397.99 176.2,-404.35"/>
</a>
</g>
</g>
<!-- Node8&#45;&gt;Node6 -->
<g id="edge8_Node000008_Node000006" class="edge">
<title>Node8&#45;&gt;Node6</title>
<g id="a_edge8_Node000008_Node000006"><a xlink:title=" ">
<path fill="none" stroke="#63b8ff" d="M177.75,-459.41C173.75,-457.72 169.8,-455.99 166,-454.25 149.55,-446.72 146.45,-442.78 130,-435.25 123.06,-432.07 115.59,-428.92 108.28,-425.98"/>
<polygon fill="#63b8ff" stroke="#63b8ff" points="176.14,-462.94 186.72,-463.52 178.8,-456.47 176.14,-462.94"/>
</a>
</g>
</g>
<!-- Node8&#45;&gt;Node7 -->
<g id="edge10_Node000008_Node000007" class="edge">
<title>Node8&#45;&gt;Node7</title>
<g id="a_edge10_Node000008_Node000007"><a xlink:title=" ">
<path fill="none" stroke="#63b8ff" d="M154.96,-470.1C146.77,-469.1 138.48,-468.09 130.43,-467.11"/>
<polygon fill="#63b8ff" stroke="#63b8ff" points="154.3,-473.67 164.65,-471.4 155.15,-466.72 154.3,-473.67"/>
</a>
</g>
</g>
<!-- Node8&#45;&gt;Node8 -->
<g id="edge9_Node000008_Node000008" class="edge">
<title>Node8&#45;&gt;Node8</title>
<g id="a_edge9_Node000008_Node000008"><a xlink:title=" ">
<path fill="none" stroke="#63b8ff" d="M259.22,-505.88C254.81,-509.83 245.41,-512.5 231,-512.5 205.39,-512.5 195.58,-504.06 201.58,-494.99"/>
<polygon fill="#63b8ff" stroke="#63b8ff" points="262.8,-506.31 260.42,-495.99 255.84,-505.54 262.8,-506.31"/>
</a>
</g>
</g>
<!-- Node9&#45;&gt;Node6 -->
<g id="edge12_Node000009_Node000006" class="edge">
<title>Node9&#45;&gt;Node6</title>
<g id="a_edge12_Node000009_Node000006"><a xlink:title=" ">
<path fill="none" stroke="#63b8ff" d="M154.96,-421.1C146.77,-420.1 138.48,-419.09 130.43,-418.11"/>
<polygon fill="#63b8ff" stroke="#63b8ff" points="154.3,-424.67 164.65,-422.4 155.15,-417.72 154.3,-424.67"/>
</a>
</g>
</g>
<!-- Node9&#45;&gt;Node7 -->
<g id="edge13_Node000009_Node000007" class="edge">
<title>Node9&#45;&gt;Node7</title>
<g id="a_edge13_Node000009_Node000007"><a xlink:title=" ">
<path fill="none" stroke="#63b8ff" d="M154.96,-443.52C146.77,-444.97 138.48,-446.43 130.43,-447.86"/>
<polygon fill="#63b8ff" stroke="#63b8ff" points="155.42,-446.82 164.65,-441.63 154.2,-439.92 155.42,-446.82"/>
</a>
</g>
</g>
<!-- Node12 -->
<g id="Node000012" class="node">
<title>Node12</title>
<g id="a_Node000012"><a xlink:href="../../dd/d03/class_slic3r_1_1_g_u_i_1_1_object_list.html#a4cfeda23a605cc017e2e524f493af311" target="_top" xlink:title=" ">
<polygon fill="white" stroke="#666666" points="288.5,-298.5 173.5,-298.5 173.5,-268 288.5,-268 288.5,-298.5"/>
<text text-anchor="start" x="181.5" y="-285" font-family="Helvetica,sans-Serif" font-size="10.00">Slic3r::GUI::ObjectList</text>
<text text-anchor="middle" x="231" y="-273.75" font-family="Helvetica,sans-Serif" font-size="10.00">::del_subobject_item</text>
</a>
</g>
</g>
<!-- Node11&#45;&gt;Node12 -->
<g id="edge16_Node000011_Node000012" class="edge">
<title>Node11&#45;&gt;Node12</title>
<g id="a_edge16_Node000011_Node000012"><a xlink:title=" ">
<path fill="none" stroke="#63b8ff" d="M329.61,-296.26C316.1,-294.46 302.04,-292.58 288.93,-290.84"/>
<polygon fill="#63b8ff" stroke="#63b8ff" points="328.92,-299.83 339.3,-297.68 329.85,-292.89 328.92,-299.83"/>
</a>
</g>
</g>
<!-- Node13 -->
<g id="Node000013" class="node">
<title>Node13</title>
<g id="a_Node000013"><a xlink:href="../../dd/d03/class_slic3r_1_1_g_u_i_1_1_object_list.html#a867baab260e21c47b82f88b24de7d5a7" target="_top" xlink:title=" ">
<polygon fill="white" stroke="#666666" points="124,-358.12 6,-358.12 6,-316.38 124,-316.38 124,-358.12"/>
<text text-anchor="start" x="14" y="-344.62" font-family="Helvetica,sans-Serif" font-size="10.00">Slic3r::GUI::ObjectList</text>
<text text-anchor="start" x="14" y="-333.38" font-family="Helvetica,sans-Serif" font-size="10.00">::add_layer_range_after</text>
<text text-anchor="middle" x="65" y="-322.12" font-family="Helvetica,sans-Serif" font-size="10.00">_current</text>
</a>
</g>
</g>
<!-- Node12&#45;&gt;Node13 -->
<g id="edge17_Node000012_Node000013" class="edge">
<title>Node12&#45;&gt;Node13</title>
<g id="a_edge17_Node000012_Node000013"><a xlink:title=" ">
<path fill="none" stroke="#63b8ff" d="M172.53,-302.17C156.94,-307.31 140.04,-312.87 124.4,-318.02"/>
<polygon fill="#63b8ff" stroke="#63b8ff" points="173.16,-305.32 181.56,-298.87 170.97,-298.67 173.16,-305.32"/>
</a>
</g>
</g>
<!-- Node14 -->
<g id="Node000014" class="node">
<title>Node14</title>
<g id="a_Node000014"><a xlink:href="../../dd/d03/class_slic3r_1_1_g_u_i_1_1_object_list.html#af65a6622df9ac1a58f0e04b5bda5a586" target="_top" xlink:title=" ">
<polygon fill="white" stroke="#666666" points="122.5,-298.5 7.5,-298.5 7.5,-268 122.5,-268 122.5,-298.5"/>
<text text-anchor="start" x="15.5" y="-285" font-family="Helvetica,sans-Serif" font-size="10.00">Slic3r::GUI::ObjectList</text>
<text text-anchor="middle" x="65" y="-273.75" font-family="Helvetica,sans-Serif" font-size="10.00">::del_layer_range</text>
</a>
</g>
</g>
<!-- Node12&#45;&gt;Node14 -->
<g id="edge18_Node000012_Node000014" class="edge">
<title>Node12&#45;&gt;Node14</title>
<g id="a_edge18_Node000012_Node000014"><a xlink:title=" ">
<path fill="none" stroke="#63b8ff" d="M162.24,-283.25C149.13,-283.25 135.51,-283.25 122.8,-283.25"/>
<polygon fill="#63b8ff" stroke="#63b8ff" points="162.1,-286.75 172.1,-283.25 162.1,-279.75 162.1,-286.75"/>
</a>
</g>
</g>
<!-- Node15 -->
<g id="Node000015" class="node">
<title>Node15</title>
<g id="a_Node000015"><a xlink:href="../../dd/d03/class_slic3r_1_1_g_u_i_1_1_object_list.html#a3463c37dd87215b02b3c09535827e2a3" target="_top" xlink:title=" ">
<polygon fill="#fff0f0" stroke="red" points="122.5,-249.5 7.5,-249.5 7.5,-219 122.5,-219 122.5,-249.5"/>
<text text-anchor="start" x="15.5" y="-236" font-family="Helvetica,sans-Serif" font-size="10.00">Slic3r::GUI::ObjectList</text>
<text text-anchor="middle" x="65" y="-224.75" font-family="Helvetica,sans-Serif" font-size="10.00">::remove</text>
</a>
</g>
</g>
<!-- Node12&#45;&gt;Node15 -->
<g id="edge19_Node000012_Node000015" class="edge">
<title>Node12&#45;&gt;Node15</title>
<g id="a_edge19_Node000012_Node000015"><a xlink:title=" ">
<path fill="none" stroke="#63b8ff" d="M167.3,-264.52C151.25,-259.72 134.17,-254.62 118.69,-249.99"/>
<polygon fill="#63b8ff" stroke="#63b8ff" points="166.08,-268.1 176.66,-267.61 168.08,-261.4 166.08,-268.1"/>
</a>
</g>
</g>
<!-- Node25 -->
<g id="Node000025" class="node">
<title>Node25</title>
<g id="a_Node000025"><a xlink:href="../../d9/d45/namespace_slic3r_1_1_g_u_i.html#afc68e7e0f2a46d8f334266df877479a3" target="_top" xlink:title=" ">
<polygon fill="white" stroke="#666666" points="655.38,-119.88 510.38,-119.88 510.38,-100.62 655.38,-100.62 655.38,-119.88"/>
<text text-anchor="middle" x="582.88" y="-106.38" font-family="Helvetica,sans-Serif" font-size="10.00">Slic3r::GUI::get_arrange_poly</text>
</a>
</g>
</g>
<!-- Node24&#45;&gt;Node25 -->
<g id="edge25_Node000024_Node000025" class="edge">
<title>Node24&#45;&gt;Node25</title>
<g id="a_edge25_Node000024_Node000025"><a xlink:title=" ">
<path fill="none" stroke="#63b8ff" d="M710.63,-110.25C692.93,-110.25 673.63,-110.25 655.54,-110.25"/>
<polygon fill="#63b8ff" stroke="#63b8ff" points="710.42,-113.75 720.42,-110.25 710.42,-106.75 710.42,-113.75"/>
</a>
</g>
</g>
<!-- Node25&#45;&gt;Node25 -->
<g id="edge26_Node000025_Node000025" class="edge">
<title>Node25&#45;&gt;Node25</title>
<g id="a_edge26_Node000025_Node000025"><a xlink:title=" ">
<path fill="none" stroke="#63b8ff" d="M616.81,-129.9C613.98,-134.49 602.66,-137.88 582.88,-137.88 550.4,-137.88 540.76,-128.77 553.95,-120.16"/>
<polygon fill="#63b8ff" stroke="#63b8ff" points="619.48,-128.46 611.8,-121.16 613.26,-131.66 619.48,-128.46"/>
</a>
</g>
</g>
<!-- Node26 -->
<g id="Node000026" class="node">
<title>Node26</title>
<g id="a_Node000026"><a xlink:href="../../da/dc0/class_slic3r_1_1_g_u_i_1_1_arrange_job.html#a0d3a0401cd0794c3bdb7a41f88a07edb" target="_top" xlink:title=" ">
<polygon fill="white" stroke="#666666" points="458.25,-130.5 338,-130.5 338,-100 458.25,-100 458.25,-130.5"/>
<text text-anchor="start" x="346" y="-117" font-family="Helvetica,sans-Serif" font-size="10.00">Slic3r::GUI::ArrangeJob</text>
<text text-anchor="middle" x="398.12" y="-105.75" font-family="Helvetica,sans-Serif" font-size="10.00">::get_arrange_poly_</text>
</a>
</g>
</g>
<!-- Node25&#45;&gt;Node26 -->
<g id="edge27_Node000025_Node000026" class="edge">
<title>Node25&#45;&gt;Node26</title>
<g id="a_edge27_Node000025_Node000026"><a xlink:title=" ">
<path fill="none" stroke="#63b8ff" d="M499.06,-112.52C485.44,-112.89 471.56,-113.27 458.65,-113.62"/>
<polygon fill="#63b8ff" stroke="#63b8ff" points="499.01,-115.99 508.91,-112.22 498.82,-108.99 499.01,-115.99"/>
</a>
</g>
</g>
<!-- Node30 -->
<g id="Node000030" class="node">
<title>Node30</title>
<g id="a_Node000030"><a xlink:href="../../da/dc0/class_slic3r_1_1_g_u_i_1_1_arrange_job.html#a375d7fd2c57f9281782b24b2ebfb21e6" target="_top" xlink:title=" ">
<polygon fill="white" stroke="#666666" points="291.12,-155.5 170.88,-155.5 170.88,-125 291.12,-125 291.12,-155.5"/>
<text text-anchor="start" x="178.88" y="-142" font-family="Helvetica,sans-Serif" font-size="10.00">Slic3r::GUI::ArrangeJob</text>
<text text-anchor="middle" x="231" y="-130.75" font-family="Helvetica,sans-Serif" font-size="10.00">::prepare_selected</text>
</a>
</g>
</g>
<!-- Node25&#45;&gt;Node30 -->
<g id="edge37_Node000025_Node000030" class="edge">
<title>Node25&#45;&gt;Node30</title>
<g id="a_edge37_Node000025_Node000030"><a xlink:title=" ">
<path fill="none" stroke="#63b8ff" d="M539.41,-123.31C517.24,-129.46 489.54,-136.12 464.25,-139.25 405.83,-146.47 338.5,-145.78 291.43,-143.86"/>
<polygon fill="#63b8ff" stroke="#63b8ff" points="540.15,-126.45 548.81,-120.35 538.23,-119.72 540.15,-126.45"/>
</a>
</g>
</g>
<!-- Node31 -->
<g id="Node000031" class="node">
<title>Node31</title>
<g id="a_Node000031"><a xlink:href="../../d9/d45/namespace_slic3r_1_1_g_u_i.html#a05c283028ab5acc59caa5ecc1b95041d" target="_top" xlink:title=" ">
<polygon fill="white" stroke="#666666" points="453,-81.5 343.25,-81.5 343.25,-51 453,-51 453,-81.5"/>
<text text-anchor="start" x="351.25" y="-68" font-family="Helvetica,sans-Serif" font-size="10.00">Slic3r::GUI::get_wipe</text>
<text text-anchor="middle" x="398.12" y="-56.75" font-family="Helvetica,sans-Serif" font-size="10.00">_tower_arrangepoly</text>
</a>
</g>
</g>
<!-- Node25&#45;&gt;Node31 -->
<g id="edge32_Node000025_Node000031" class="edge">
<title>Node25&#45;&gt;Node31</title>
<g id="a_edge32_Node000025_Node000031"><a xlink:title=" ">
<path fill="none" stroke="#63b8ff" d="M529.34,-97.6C505.52,-91.87 477.37,-85.09 453.35,-79.31"/>
<polygon fill="#63b8ff" stroke="#63b8ff" points="528.41,-101.22 538.95,-100.16 530.05,-94.41 528.41,-101.22"/>
</a>
</g>
</g>
<!-- Node32 -->
<g id="Node000032" class="node">
<title>Node32</title>
<g id="a_Node000032"><a xlink:href="../../d3/d89/class_slic3r_1_1_g_u_i_1_1_fill_bed_job.html#a557cff665d6baf6ecd35699c38e4cf24" target="_top" xlink:title=" ">
<polygon fill="white" stroke="#666666" points="289.25,-48.5 172.75,-48.5 172.75,-18 289.25,-18 289.25,-48.5"/>
<text text-anchor="start" x="180.75" y="-35" font-family="Helvetica,sans-Serif" font-size="10.00">Slic3r::GUI::FillBedJob</text>
<text text-anchor="middle" x="231" y="-23.75" font-family="Helvetica,sans-Serif" font-size="10.00">::prepare</text>
</a>
</g>
</g>
<!-- Node25&#45;&gt;Node32 -->
<g id="edge36_Node000025_Node000032" class="edge">
<title>Node25&#45;&gt;Node32</title>
<g id="a_edge36_Node000025_Node000032"><a xlink:title=" ">
<path fill="none" stroke="#63b8ff" d="M515.14,-96.22C509.91,-93.95 504.87,-91.31 500.25,-88.25 478.61,-73.91 487.36,-54.07 464.25,-42.25 409.82,-14.41 338.48,-16.37 289.3,-22.61"/>
<polygon fill="#63b8ff" stroke="#63b8ff" points="513.77,-99.83 524.36,-100.15 516.29,-93.3 513.77,-99.83"/>
</a>
</g>
</g>
<!-- Node27 -->
<g id="Node000027" class="node">
<title>Node27</title>
<g id="a_Node000027"><a xlink:href="../../da/dc0/class_slic3r_1_1_g_u_i_1_1_arrange_job.html#a34cbb095f463741ab622f975f85a08f4" target="_top" xlink:title=" ">
<polygon fill="white" stroke="#666666" points="291.12,-106.5 170.88,-106.5 170.88,-76 291.12,-76 291.12,-106.5"/>
<text text-anchor="start" x="178.88" y="-93" font-family="Helvetica,sans-Serif" font-size="10.00">Slic3r::GUI::ArrangeJob</text>
<text text-anchor="middle" x="231" y="-81.75" font-family="Helvetica,sans-Serif" font-size="10.00">::prepare_all</text>
</a>
</g>
</g>
<!-- Node26&#45;&gt;Node27 -->
<g id="edge28_Node000026_Node000027" class="edge">
<title>Node26&#45;&gt;Node27</title>
<g id="a_edge28_Node000026_Node000027"><a xlink:title=" ">
<path fill="none" stroke="#63b8ff" d="M326.84,-105.03C315.08,-103.33 302.98,-101.57 291.53,-99.9"/>
<polygon fill="#63b8ff" stroke="#63b8ff" points="326.11,-108.61 336.51,-106.59 327.12,-101.68 326.11,-108.61"/>
</a>
</g>
</g>
<!-- Node26&#45;&gt;Node30 -->
<g id="edge30_Node000026_Node000030" class="edge">
<title>Node26&#45;&gt;Node30</title>
<g id="a_edge30_Node000026_Node000030"><a xlink:title=" ">
<path fill="none" stroke="#63b8ff" d="M326.84,-125.89C315.08,-127.67 302.98,-129.5 291.53,-131.24"/>
<polygon fill="#63b8ff" stroke="#63b8ff" points="327.15,-129.23 336.51,-124.28 326.1,-122.31 327.15,-129.23"/>
</a>
</g>
</g>
<!-- Node28 -->
<g id="Node000028" class="node">
<title>Node28</title>
<g id="a_Node000028"><a xlink:href="../../da/dc0/class_slic3r_1_1_g_u_i_1_1_arrange_job.html#a5a861f6dcc3ce7d8bad04b2656f29f9d" target="_top" xlink:title=" ">
<polygon fill="#fff0f0" stroke="red" points="125.12,-131.5 4.88,-131.5 4.88,-101 125.12,-101 125.12,-131.5"/>
<text text-anchor="start" x="12.88" y="-118" font-family="Helvetica,sans-Serif" font-size="10.00">Slic3r::GUI::ArrangeJob</text>
<text text-anchor="middle" x="65" y="-106.75" font-family="Helvetica,sans-Serif" font-size="10.00">::prepare</text>
</a>
</g>
</g>
<!-- Node27&#45;&gt;Node28 -->
<g id="edge29_Node000027_Node000028" class="edge">
<title>Node27&#45;&gt;Node28</title>
<g id="a_edge29_Node000027_Node000028"><a xlink:title=" ">
<path fill="none" stroke="#63b8ff" d="M160.26,-101.88C148.65,-103.65 136.71,-105.47 125.4,-107.2"/>
<polygon fill="#63b8ff" stroke="#63b8ff" points="160.43,-105.24 169.79,-100.28 159.38,-98.32 160.43,-105.24"/>
</a>
</g>
</g>
<!-- Node30&#45;&gt;Node28 -->
<g id="edge31_Node000030_Node000028" class="edge">
<title>Node30&#45;&gt;Node28</title>
<g id="a_edge31_Node000030_Node000028"><a xlink:title=" ">
<path fill="none" stroke="#63b8ff" d="M160.26,-130.04C148.65,-128.35 136.71,-126.6 125.4,-124.94"/>
<polygon fill="#63b8ff" stroke="#63b8ff" points="159.39,-133.6 169.79,-131.59 160.4,-126.67 159.39,-133.6"/>
</a>
</g>
</g>
<!-- Node31&#45;&gt;Node27 -->
<g id="edge35_Node000031_Node000027" class="edge">
<title>Node31&#45;&gt;Node27</title>
<g id="a_edge35_Node000031_Node000027"><a xlink:title=" ">
<path fill="none" stroke="#63b8ff" d="M332.44,-76.04C318.99,-78.08 304.87,-80.22 291.61,-82.22"/>
<polygon fill="#63b8ff" stroke="#63b8ff" points="332.69,-79.39 342.06,-74.44 331.65,-72.47 332.69,-79.39"/>
</a>
</g>
</g>
<!-- Node31&#45;&gt;Node32 -->
<g id="edge33_Node000031_Node000032" class="edge">
<title>Node31&#45;&gt;Node32</title>
<g id="a_edge33_Node000031_Node000032"><a xlink:title=" ">
<path fill="none" stroke="#63b8ff" d="M332.42,-53.32C318.29,-50.5 303.43,-47.53 289.6,-44.76"/>
<polygon fill="#63b8ff" stroke="#63b8ff" points="331.56,-56.92 342.06,-55.44 332.94,-50.05 331.56,-56.92"/>
</a>
</g>
</g>
<!-- Node33 -->
<g id="Node000033" class="node">
<title>Node33</title>
<g id="a_Node000033"><a xlink:href="../../d3/d89/class_slic3r_1_1_g_u_i_1_1_fill_bed_job.html#a7755fce05fafa2ac31c14af9ef7cfb48" target="_top" xlink:title=" ">
<polygon fill="white" stroke="#666666" points="123.25,-48.5 6.75,-48.5 6.75,-18 123.25,-18 123.25,-48.5"/>
<text text-anchor="start" x="14.75" y="-35" font-family="Helvetica,sans-Serif" font-size="10.00">Slic3r::GUI::FillBedJob</text>
<text text-anchor="middle" x="65" y="-23.75" font-family="Helvetica,sans-Serif" font-size="10.00">::process</text>
</a>
</g>
</g>
<!-- Node32&#45;&gt;Node33 -->
<g id="edge34_Node000032_Node000033" class="edge">
<title>Node32&#45;&gt;Node33</title>
<g id="a_edge34_Node000032_Node000033"><a xlink:title=" ">
<path fill="none" stroke="#63b8ff" d="M161.66,-33.25C149.01,-33.25 135.9,-33.25 123.6,-33.25"/>
<polygon fill="#63b8ff" stroke="#63b8ff" points="161.64,-36.75 171.64,-33.25 161.64,-29.75 161.64,-36.75"/>
</a>
</g>
</g>
<!-- Node35 -->
<g id="Node000035" class="node">
<title>Node35</title>
<g id="a_Node000035"><a xlink:href="../../da/d2c/class_slic3r_1_1_g_u_i_1_1_g_l_gizmo_hollow.html#a6eb5b186261321c881c26c8d31e171dd" target="_top" xlink:title="Is called when data (Selection) is changed.">
<polygon fill="white" stroke="#666666" points="653.88,-79.5 511.88,-79.5 511.88,-49 653.88,-49 653.88,-79.5"/>
<text text-anchor="start" x="519.88" y="-66" font-family="Helvetica,sans-Serif" font-size="10.00">Slic3r::GUI::GLGizmoHollow</text>
<text text-anchor="middle" x="582.88" y="-54.75" font-family="Helvetica,sans-Serif" font-size="10.00">::data_changed</text>
</a>
</g>
</g>
<!-- Node34&#45;&gt;Node35 -->
<g id="edge39_Node000034_Node000035" class="edge">
<title>Node34&#45;&gt;Node35</title>
<g id="a_edge39_Node000034_Node000035"><a xlink:title=" ">
<path fill="none" stroke="#63b8ff" d="M690.07,-62.58C678.04,-62.77 665.79,-62.96 654.08,-63.15"/>
<polygon fill="#63b8ff" stroke="#63b8ff" points="690.09,-66.07 700.03,-62.41 689.98,-59.07 690.09,-66.07"/>
</a>
</g>
</g>
<!-- Node36 -->
<g id="Node000036" class="node">
<title>Node36</title>
<g id="a_Node000036"><a xlink:href="../../d9/d0e/class_slic3r_1_1_g_u_i_1_1_g_l_gizmo_sla_supports.html#a4c4c8163c0404c9341c65f8635a3a9d9" target="_top" xlink:title="Is called when data (Selection) is changed.">
<polygon fill="white" stroke="#666666" points="665.5,-30.5 500.25,-30.5 500.25,0 665.5,0 665.5,-30.5"/>
<text text-anchor="start" x="508.25" y="-17" font-family="Helvetica,sans-Serif" font-size="10.00">Slic3r::GUI::GLGizmoSlaSupports</text>
<text text-anchor="middle" x="582.88" y="-5.75" font-family="Helvetica,sans-Serif" font-size="10.00">::data_changed</text>
</a>
</g>
</g>
<!-- Node34&#45;&gt;Node36 -->
<g id="edge40_Node000034_Node000036" class="edge">
<title>Node34&#45;&gt;Node36</title>
<g id="a_edge40_Node000034_Node000036"><a xlink:title=" ">
<path fill="none" stroke="#63b8ff" d="M699.44,-43.08C682.8,-39.07 665.3,-34.86 649.1,-30.96"/>
<polygon fill="#63b8ff" stroke="#63b8ff" points="698.14,-46.61 708.68,-45.55 699.78,-39.8 698.14,-46.61"/>
</a>
</g>
</g>
</g>
</svg>
