<?xml version="1.0" encoding="UTF-8" standalone="no"?>
<!DOCTYPE svg PUBLIC "-//W3C//DTD SVG 1.1//EN"
 "http://www.w3.org/Graphics/SVG/1.1/DTD/svg11.dtd">
<!-- Generated by graphviz version 8.0.5 (20230430.1635)
 -->
<!-- Title: Slic3r::GUI::MeshRaycaster::line_from_mouse_pos Pages: 1 -->
<!--zoomable 203 -->

<svg id="main" version="1.1" xmlns="http://www.w3.org/2000/svg" xmlns:xlink="http://www.w3.org/1999/xlink" xml:space="preserve" onload="init(evt)">
<style type="text/css"><![CDATA[
.node, .edge {opacity: 0.7;}
.node.selected, .edge.selected {opacity: 1;}
.edge:hover path { stroke: red; }
.edge:hover polygon { stroke: red; fill: red; }
]]></style>

<defs>
  <circle id="rim" cx="0" cy="0" r="7"/>
  <circle id="rim2" cx="0" cy="0" r="3.5"/>
  <g id="zoomPlus">
    <use xlink:href="#rim" fill="#404040"><set attributeName="fill" to="#808080" begin="zoomplus.mouseover" end="zoomplus.mouseout"/></use>
    <path d="M-4,0h8M0,-4v8" fill="none" stroke="white" stroke-width="1.5" pointer-events="none"/>
  </g>
  <g id="zoomMin">
    <use xlink:href="#rim" fill="#404040"><set attributeName="fill" to="#808080" begin="zoomminus.mouseover" end="zoomminus.mouseout"/></use>
    <path d="M-4,0h8" fill="none" stroke="white" stroke-width="1.5" pointer-events="none"/>
  </g>
  <g id="arrowUp" transform="translate(30 24)">
    <use xlink:href="#rim"/>
    <path pointer-events="none" fill="none" stroke="white" stroke-width="1.5" d="M0,-3.0v7 M-2.5,-0.5L0,-3.0L2.5,-0.5"/>
  </g>
  <g id="arrowRight" transform="rotate(90) translate(36 -43)">
    <use xlink:href="#rim"/>
    <path pointer-events="none" fill="none" stroke="white" stroke-width="1.5" d="M0,-3.0v7 M-2.5,-0.5L0,-3.0L2.5,-0.5"/>
  </g>
  <g id="arrowDown" transform="rotate(180) translate(-30 -48)">
    <use xlink:href="#rim"/>
    <path pointer-events="none" fill="none" stroke="white" stroke-width="1.5" d="M0,-3.0v7 M-2.5,-0.5L0,-3.0L2.5,-0.5"/>
  </g>
  <g id="arrowLeft" transform="rotate(270) translate(-36 17)">
    <use xlink:href="#rim"/>
    <path pointer-events="none" fill="none" stroke="white" stroke-width="1.5" d="M0,-3.0v7 M-2.5,-0.5L0,-3.0L2.5,-0.5"/>
  </g>
  <g id="resetDef">
    <use xlink:href="#rim2" fill="#404040"><set attributeName="fill" to="#808080" begin="reset.mouseover" end="reset.mouseout"/></use>
  </g>
</defs>
<script type="application/ecmascript">
var viewWidth = 831;
var viewHeight = 203;
var sectionId = 'dynsection-9';
</script>
<script type="application/ecmascript" xlink:href="../../svg.min.js"/>
<svg id="graph" class="graph">
<g id="viewport">
<title>Slic3r::GUI::MeshRaycaster::line_from_mouse_pos</title>
<!-- Node1 -->
<g id="Node000001" class="node">
<title>Node1</title>
<g id="a_Node000001"><a xlink:title=" ">
<polygon fill="#999999" stroke="#666666" points="822.5,-151.5 682.75,-151.5 682.75,-121 822.5,-121 822.5,-151.5"/>
<text text-anchor="start" x="690.75" y="-138" font-family="Helvetica,sans-Serif" font-size="10.00">Slic3r::GUI::MeshRaycaster</text>
<text text-anchor="middle" x="752.62" y="-126.75" font-family="Helvetica,sans-Serif" font-size="10.00">::line_from_mouse_pos</text>
</a>
</g>
</g>
<!-- Node2 -->
<g id="Node000002" class="node">
<title>Node2</title>
<g id="a_Node000002"><a xlink:href="../../d4/de7/class_slic3r_1_1_g_u_i_1_1_mesh_raycaster.html#a93596b877f00682073663038c7c16a04" target="_top" xlink:title=" ">
<polygon fill="white" stroke="#666666" points="646.75,-194.5 507,-194.5 507,-164 646.75,-164 646.75,-194.5"/>
<text text-anchor="start" x="515" y="-181" font-family="Helvetica,sans-Serif" font-size="10.00">Slic3r::GUI::MeshRaycaster</text>
<text text-anchor="middle" x="576.88" y="-169.75" font-family="Helvetica,sans-Serif" font-size="10.00">::closest_hit</text>
</a>
</g>
</g>
<!-- Node1&#45;&gt;Node2 -->
<g id="edge1_Node000001_Node000002" class="edge">
<title>Node1&#45;&gt;Node2</title>
<g id="a_edge1_Node000001_Node000002"><a xlink:title=" ">
<path fill="none" stroke="#63b8ff" d="M677.85,-154.51C665.7,-157.51 653.2,-160.61 641.34,-163.54"/>
<polygon fill="#63b8ff" stroke="#63b8ff" points="678.54,-157.7 687.41,-151.9 676.86,-150.9 678.54,-157.7"/>
</a>
</g>
</g>
<!-- Node3 -->
<g id="Node000003" class="node">
<title>Node3</title>
<g id="a_Node000003"><a xlink:href="../../d8/d38/class_slic3r_1_1_g_u_i_1_1_g_l_gizmo_cut3_d.html#ae6f1e8e236809bea0595242e38897f8d" target="_top" xlink:title=" ">
<polygon fill="white" stroke="#666666" points="471,-165.5 338,-165.5 338,-135 471,-135 471,-165.5"/>
<text text-anchor="start" x="346" y="-152" font-family="Helvetica,sans-Serif" font-size="10.00">Slic3r::GUI::GLGizmoCut3</text>
<text text-anchor="middle" x="404.5" y="-140.75" font-family="Helvetica,sans-Serif" font-size="10.00">D::process_cut_line</text>
</a>
</g>
</g>
<!-- Node1&#45;&gt;Node3 -->
<g id="edge2_Node000001_Node000003" class="edge">
<title>Node1&#45;&gt;Node3</title>
<g id="a_edge2_Node000001_Node000003"><a xlink:title=" ">
<path fill="none" stroke="#63b8ff" d="M671.71,-139.48C610.95,-141.94 528.36,-145.28 471.36,-147.59"/>
<polygon fill="#63b8ff" stroke="#63b8ff" points="671.56,-142.95 681.41,-139.05 671.28,-135.96 671.56,-142.95"/>
</a>
</g>
</g>
<!-- Node6 -->
<g id="Node000006" class="node">
<title>Node6</title>
<g id="a_Node000006"><a xlink:href="../../d8/d38/class_slic3r_1_1_g_u_i_1_1_g_l_gizmo_cut3_d.html#a36e8181530f02bb625de1f6edbd59eea" target="_top" xlink:title=" ">
<polygon fill="white" stroke="#666666" points="643.38,-94.5 510.38,-94.5 510.38,-64 643.38,-64 643.38,-94.5"/>
<text text-anchor="start" x="518.38" y="-81" font-family="Helvetica,sans-Serif" font-size="10.00">Slic3r::GUI::GLGizmoCut3</text>
<text text-anchor="middle" x="576.88" y="-69.75" font-family="Helvetica,sans-Serif" font-size="10.00">D::unproject_on_cut_plane</text>
</a>
</g>
</g>
<!-- Node1&#45;&gt;Node6 -->
<g id="edge5_Node000001_Node000006" class="edge">
<title>Node1&#45;&gt;Node6</title>
<g id="a_edge5_Node000001_Node000006"><a xlink:title=" ">
<path fill="none" stroke="#63b8ff" d="M693.46,-117.17C671.43,-109.94 646.62,-101.8 625.66,-94.93"/>
<polygon fill="#63b8ff" stroke="#63b8ff" points="692.09,-120.73 702.69,-120.52 694.28,-114.08 692.09,-120.73"/>
</a>
</g>
</g>
<!-- Node4 -->
<g id="Node000004" class="node">
<title>Node4</title>
<g id="a_Node000004"><a xlink:href="../../d8/d38/class_slic3r_1_1_g_u_i_1_1_g_l_gizmo_cut3_d.html#a917f68b1ce791a77b7e2b5aa74a047ae" target="_top" xlink:title=" ">
<polygon fill="white" stroke="#666666" points="302,-116.5 169,-116.5 169,-86 302,-86 302,-116.5"/>
<text text-anchor="start" x="177" y="-103" font-family="Helvetica,sans-Serif" font-size="10.00">Slic3r::GUI::GLGizmoCut3</text>
<text text-anchor="middle" x="235.5" y="-91.75" font-family="Helvetica,sans-Serif" font-size="10.00">D::gizmo_event</text>
</a>
</g>
</g>
<!-- Node3&#45;&gt;Node4 -->
<g id="edge3_Node000003_Node000004" class="edge">
<title>Node3&#45;&gt;Node4</title>
<g id="a_edge3_Node000003_Node000004"><a xlink:title=" ">
<path fill="none" stroke="#63b8ff" d="M339.65,-131.52C323.31,-126.72 305.92,-121.62 290.15,-116.99"/>
<polygon fill="#63b8ff" stroke="#63b8ff" points="338.62,-135.15 349.2,-134.61 340.59,-128.44 338.62,-135.15"/>
</a>
</g>
</g>
<!-- Node5 -->
<g id="Node000005" class="node">
<title>Node5</title>
<g id="a_Node000005"><a xlink:href="../../d8/d38/class_slic3r_1_1_g_u_i_1_1_g_l_gizmo_cut3_d.html#ae651caaf8df0ece0848a7cb03c29e65d" target="_top" xlink:title="Drag of plane.">
<polygon fill="white" stroke="#666666" points="133,-94.5 0,-94.5 0,-64 133,-64 133,-94.5"/>
<text text-anchor="start" x="8" y="-81" font-family="Helvetica,sans-Serif" font-size="10.00">Slic3r::GUI::GLGizmoCut3</text>
<text text-anchor="middle" x="66.5" y="-69.75" font-family="Helvetica,sans-Serif" font-size="10.00">D::on_mouse</text>
</a>
</g>
</g>
<!-- Node4&#45;&gt;Node5 -->
<g id="edge4_Node000004_Node000005" class="edge">
<title>Node4&#45;&gt;Node5</title>
<g id="a_edge4_Node000004_Node000005"><a xlink:title=" ">
<path fill="none" stroke="#63b8ff" d="M158.18,-91.2C149.9,-90.1 141.52,-89 133.38,-87.93"/>
<polygon fill="#63b8ff" stroke="#63b8ff" points="157.6,-94.78 167.98,-92.62 158.52,-87.84 157.6,-94.78"/>
</a>
</g>
</g>
<!-- Node6&#45;&gt;Node5 -->
<g id="edge10_Node000006_Node000005" class="edge">
<title>Node6&#45;&gt;Node5</title>
<g id="a_edge10_Node000006_Node000005"><a xlink:title=" ">
<path fill="none" stroke="#63b8ff" d="M499.41,-77.62C489.84,-77.47 480.2,-77.34 471,-77.25 336.78,-75.97 303.22,-75.93 169,-77.25 157.46,-77.36 145.18,-77.55 133.29,-77.76"/>
<polygon fill="#63b8ff" stroke="#63b8ff" points="499.08,-81.13 509.14,-77.8 499.2,-74.14 499.08,-81.13"/>
</a>
</g>
</g>
<!-- Node7 -->
<g id="Node000007" class="node">
<title>Node7</title>
<g id="a_Node000007"><a xlink:href="../../d8/d38/class_slic3r_1_1_g_u_i_1_1_g_l_gizmo_cut3_d.html#aaa9b795835fd166b9b66c0fb0d0b7ffc" target="_top" xlink:title=" ">
<polygon fill="white" stroke="#666666" points="471,-116.5 338,-116.5 338,-86 471,-86 471,-116.5"/>
<text text-anchor="start" x="346" y="-103" font-family="Helvetica,sans-Serif" font-size="10.00">Slic3r::GUI::GLGizmoCut3</text>
<text text-anchor="middle" x="404.5" y="-91.75" font-family="Helvetica,sans-Serif" font-size="10.00">D::add_connector</text>
</a>
</g>
</g>
<!-- Node6&#45;&gt;Node7 -->
<g id="edge6_Node000006_Node000007" class="edge">
<title>Node6&#45;&gt;Node7</title>
<g id="a_edge6_Node000006_Node000007"><a xlink:title=" ">
<path fill="none" stroke="#63b8ff" d="M499.22,-89.15C489.96,-90.34 480.57,-91.56 471.48,-92.73"/>
<polygon fill="#63b8ff" stroke="#63b8ff" points="499.53,-92.51 509,-87.76 498.64,-85.57 499.53,-92.51"/>
</a>
</g>
</g>
<!-- Node8 -->
<g id="Node000008" class="node">
<title>Node8</title>
<g id="a_Node000008"><a xlink:href="../../d8/d38/class_slic3r_1_1_g_u_i_1_1_g_l_gizmo_cut3_d.html#a632c79bda254258e286d7a306214caec" target="_top" xlink:title=" ">
<polygon fill="white" stroke="#666666" points="471,-30.5 338,-30.5 338,0 471,0 471,-30.5"/>
<text text-anchor="start" x="346" y="-17" font-family="Helvetica,sans-Serif" font-size="10.00">Slic3r::GUI::GLGizmoCut3</text>
<text text-anchor="middle" x="404.5" y="-5.75" font-family="Helvetica,sans-Serif" font-size="10.00">D::dragging_connector</text>
</a>
</g>
</g>
<!-- Node6&#45;&gt;Node8 -->
<g id="edge8_Node000006_Node000008" class="edge">
<title>Node6&#45;&gt;Node8</title>
<g id="a_edge8_Node000006_Node000008"><a xlink:title=" ">
<path fill="none" stroke="#63b8ff" d="M523.97,-59.75C499.41,-50.53 470.47,-39.65 447.34,-30.97"/>
<polygon fill="#63b8ff" stroke="#63b8ff" points="522.6,-63.35 533.2,-63.59 525.07,-56.8 522.6,-63.35"/>
</a>
</g>
</g>
<!-- Node7&#45;&gt;Node4 -->
<g id="edge7_Node000007_Node000004" class="edge">
<title>Node7&#45;&gt;Node4</title>
<g id="a_edge7_Node000007_Node000004"><a xlink:title=" ">
<path fill="none" stroke="#63b8ff" d="M327.18,-101.25C318.9,-101.25 310.52,-101.25 302.38,-101.25"/>
<polygon fill="#63b8ff" stroke="#63b8ff" points="326.98,-104.75 336.98,-101.25 326.98,-97.75 326.98,-104.75"/>
</a>
</g>
</g>
<!-- Node9 -->
<g id="Node000009" class="node">
<title>Node9</title>
<g id="a_Node000009"><a xlink:href="../../d8/d38/class_slic3r_1_1_g_u_i_1_1_g_l_gizmo_cut3_d.html#aff494954dbec0fe43eaab8e56dd11162" target="_top" xlink:title=" ">
<polygon fill="white" stroke="#666666" points="302,-30.5 169,-30.5 169,0 302,0 302,-30.5"/>
<text text-anchor="start" x="177" y="-17" font-family="Helvetica,sans-Serif" font-size="10.00">Slic3r::GUI::GLGizmoCut3</text>
<text text-anchor="middle" x="235.5" y="-5.75" font-family="Helvetica,sans-Serif" font-size="10.00">D::on_dragging</text>
</a>
</g>
</g>
<!-- Node8&#45;&gt;Node9 -->
<g id="edge9_Node000008_Node000009" class="edge">
<title>Node8&#45;&gt;Node9</title>
<g id="a_edge9_Node000008_Node000009"><a xlink:title=" ">
<path fill="none" stroke="#63b8ff" d="M327.18,-15.25C318.9,-15.25 310.52,-15.25 302.38,-15.25"/>
<polygon fill="#63b8ff" stroke="#63b8ff" points="326.98,-18.75 336.98,-15.25 326.98,-11.75 326.98,-18.75"/>
</a>
</g>
</g>
</g>
</svg>

<g id="navigator" transform="translate(0 0)" fill="#404254">
  <rect fill="#f2f5e9" fill-opacity="0.5" stroke="#606060" stroke-width=".5" x="0" y="0" width="60" height="60"/>
  <use id="zoomplus" xlink:href="#zoomPlus" x="17" y="9" onmousedown="handleZoom(evt,'in')"/>
  <use id="zoomminus" xlink:href="#zoomMin" x="42" y="9" onmousedown="handleZoom(evt,'out')"/>
  <use id="reset" xlink:href="#resetDef" x="30" y="36" onmousedown="handleReset()"/>
   <use id="arrowup" xlink:href="#arrowUp" x="0" y="0" onmousedown="handlePan(0,-1)"/>
  <use id="arrowright" xlink:href="#arrowRight" x="0" y="0" onmousedown="handlePan(1,0)"/>
  <use id="arrowdown" xlink:href="#arrowDown" x="0" y="0" onmousedown="handlePan(0,1)"/>
  <use id="arrowleft" xlink:href="#arrowLeft" x="0" y="0" onmousedown="handlePan(-1,0)"/>
</g>
<svg viewBox="0 0 15 15" width="100%" height="30px" preserveAspectRatio="xMaxYMin meet">
 <g id="arrow_out" transform="scale(0.3 0.3)">
  <a xlink:href="class_slic3r_1_1_g_u_i_1_1_mesh_raycaster_ad3468bfabd7ae5ab735d9e8ccc2ed070_icgraph_org.svg" target="_base">
   <rect id="button" ry="5" rx="5" y="6" x="6" height="38" width="38"
        fill="#f2f5e9" fill-opacity="0.5" stroke="#606060" stroke-width="1.0"/>
   <path id="arrow"
     d="M 11.500037,31.436501 C 11.940474,20.09759 22.043105,11.32322 32.158766,21.979434 L 37.068811,17.246167 C 37.068811,17.246167 37.088388,32 37.088388,32 L 22.160133,31.978069 C 22.160133,31.978069 26.997745,27.140456 26.997745,27.140456 C 18.528582,18.264221 13.291696,25.230495 11.500037,31.436501 z"
     style="fill:#404040;"/>
  </a>
 </g>
</svg>

<style type='text/css'>
<![CDATA[
[data-mouse-over-selected='false'] { opacity: 0.7; }
[data-mouse-over-selected='true']  { opacity: 1.0; }
]]>
</style>
<script type="application/ecmascript"><![CDATA[
document.addEventListener('DOMContentLoaded', (event) => {
  highlightEdges();
  highlightAdjacentNodes();
});
]]></script>
</svg>
