<?xml version="1.0" encoding="UTF-8" standalone="no"?>
<!DOCTYPE svg PUBLIC "-//W3C//DTD SVG 1.1//EN"
 "http://www.w3.org/Graphics/SVG/1.1/DTD/svg11.dtd">
<!-- Generated by graphviz version 8.0.5 (20230430.1635)
 -->
<!-- Title: igl::opengl::glfw::ViewerPlugin Pages: 1 -->
<svg width="1324pt" height="466pt"
 viewBox="0.00 0.00 1323.50 466.12" xmlns="http://www.w3.org/2000/svg" xmlns:xlink="http://www.w3.org/1999/xlink">
<g id="graph0" class="graph" transform="scale(1 1) rotate(0) translate(4 462.12)">
<title>igl::opengl::glfw::ViewerPlugin</title>
<!-- Node1 -->
<g id="Node000001" class="node">
<title>Node1</title>
<g id="a_Node000001"><a xlink:title=" ">
<polygon fill="#999999" stroke="#666666" points="659.62,-317.12 569.38,-317.12 569.38,-286.62 659.62,-286.62 659.62,-317.12"/>
<text text-anchor="start" x="577.38" y="-303.62" font-family="Helvetica,sans-Serif" font-size="10.00">igl::opengl::glfw::</text>
<text text-anchor="middle" x="614.5" y="-292.38" font-family="Helvetica,sans-Serif" font-size="10.00">ViewerPlugin</text>
</a>
</g>
</g>
<!-- Node30 -->
<g id="Node000030" class="node">
<title>Node30</title>
<g id="a_Node000030"><a xlink:title=" ">
<polygon fill="white" stroke="#666666" points="953.5,-458.12 834.75,-458.12 834.75,-427.62 953.5,-427.62 953.5,-458.12"/>
<text text-anchor="start" x="842.75" y="-444.62" font-family="Helvetica,sans-Serif" font-size="10.00">std::vector&lt; igl::opengl</text>
<text text-anchor="middle" x="894.12" y="-433.38" font-family="Helvetica,sans-Serif" font-size="10.00">::glfw::ViewerPlugin * &gt;</text>
</a>
</g>
</g>
<!-- Node1&#45;&gt;Node30 -->
<g id="edge22_Node000030_Node000001" class="edge">
<title>Node1&#45;&gt;Node30</title>
<g id="a_edge22_Node000030_Node000001"><a xlink:title=" ">
<path fill="none" stroke="#9a32cd" stroke-dasharray="5,2" d="M664.67,-321.29C674.5,-324.96 684.78,-328.66 694.5,-331.88 748.12,-349.64 768.04,-338.03 816.75,-366.62 843.74,-382.46 868.01,-410.09 881.63,-427.38"/>
<polygon fill="#9a32cd" stroke="#9a32cd" points="666.23,-317.77 655.64,-317.5 663.76,-324.31 666.23,-317.77"/>
</a>
</g>
<text text-anchor="middle" x="755.62" y="-367.62" font-family="Helvetica,sans-Serif" font-size="10.00" fill="grey"> elements</text>
</g>
<!-- Node2 -->
<g id="Node000002" class="node">
<title>Node2</title>
<g id="a_Node000002"><a xlink:title=" ">
<polygon fill="white" stroke="#666666" points="400.25,-321.5 340.75,-321.5 340.75,-302.25 400.25,-302.25 400.25,-321.5"/>
<text text-anchor="middle" x="370.5" y="-308" font-family="Helvetica,sans-Serif" font-size="10.00">std::string</text>
</a>
</g>
</g>
<!-- Node2&#45;&gt;Node1 -->
<g id="edge1_Node000001_Node000002" class="edge">
<title>Node2&#45;&gt;Node1</title>
<g id="a_edge1_Node000001_Node000002"><a xlink:title=" ">
<path fill="none" stroke="#9a32cd" stroke-dasharray="5,2" d="M411.44,-309.39C427.74,-308.43 446.77,-307.39 464,-306.62 499.28,-305.06 539.27,-303.82 569.01,-303"/>
<polygon fill="#9a32cd" stroke="#9a32cd" points="411.43,-305.94 401.65,-310.03 411.84,-312.93 411.43,-305.94"/>
</a>
</g>
<text text-anchor="middle" x="499.25" y="-308.62" font-family="Helvetica,sans-Serif" font-size="10.00" fill="grey"> plugin_name</text>
</g>
<!-- Node20 -->
<g id="Node000020" class="node">
<title>Node20</title>
<g id="a_Node000020"><a xlink:title=" ">
<polygon fill="white" stroke="#666666" points="676.5,-354.5 552.5,-354.5 552.5,-335.25 676.5,-335.25 676.5,-354.5"/>
<text text-anchor="middle" x="614.5" y="-341" font-family="Helvetica,sans-Serif" font-size="10.00">std::vector&lt; std::string &gt;</text>
</a>
</g>
</g>
<!-- Node2&#45;&gt;Node20 -->
<g id="edge10_Node000020_Node000002" class="edge">
<title>Node2&#45;&gt;Node20</title>
<g id="a_edge10_Node000020_Node000002"><a xlink:title=" ">
<path fill="none" stroke="#9a32cd" stroke-dasharray="5,2" d="M411.41,-317.32C449.68,-322.54 508.02,-330.49 552.19,-336.51"/>
<polygon fill="#9a32cd" stroke="#9a32cd" points="412.07,-313.74 401.69,-315.86 411.13,-320.67 412.07,-313.74"/>
</a>
</g>
<text text-anchor="middle" x="499.25" y="-334.62" font-family="Helvetica,sans-Serif" font-size="10.00" fill="grey"> elements</text>
</g>
<!-- Node3 -->
<g id="Node000003" class="node">
<title>Node3</title>
<g id="a_Node000003"><a xlink:title=" ">
<polygon fill="white" stroke="#666666" points="111.62,-327.12 17.62,-327.12 17.62,-296.62 111.62,-296.62 111.62,-327.12"/>
<text text-anchor="start" x="25.62" y="-313.62" font-family="Helvetica,sans-Serif" font-size="10.00">std::basic_string&lt;</text>
<text text-anchor="middle" x="64.62" y="-302.38" font-family="Helvetica,sans-Serif" font-size="10.00"> Char &gt;</text>
</a>
</g>
</g>
<!-- Node3&#45;&gt;Node2 -->
<g id="edge2_Node000002_Node000003" class="edge">
<title>Node3&#45;&gt;Node2</title>
<g id="a_edge2_Node000002_Node000003"><a xlink:title=" ">
<path fill="none" stroke="#63b8ff" d="M122.95,-311.88C187.69,-311.88 290.53,-311.88 340.43,-311.88"/>
<polygon fill="#63b8ff" stroke="#63b8ff" points="123.11,-308.38 113.11,-311.88 123.11,-315.38 123.11,-308.38"/>
</a>
</g>
</g>
<!-- Node4 -->
<g id="Node000004" class="node">
<title>Node4</title>
<g id="a_Node000004"><a xlink:href="../../df/da0/classigl_1_1opengl_1_1glfw_1_1_viewer.html" target="_top" xlink:title=" ">
<polygon fill="white" stroke="#666666" points="1315.5,-379.12 1225.25,-379.12 1225.25,-348.62 1315.5,-348.62 1315.5,-379.12"/>
<text text-anchor="start" x="1233.25" y="-365.62" font-family="Helvetica,sans-Serif" font-size="10.00">igl::opengl::glfw::</text>
<text text-anchor="middle" x="1270.38" y="-354.38" font-family="Helvetica,sans-Serif" font-size="10.00">Viewer</text>
</a>
</g>
</g>
<!-- Node4&#45;&gt;Node1 -->
<g id="edge3_Node000001_Node000004" class="edge">
<title>Node4&#45;&gt;Node1</title>
<g id="a_edge3_Node000001_Node000004"><a xlink:title=" ">
<path fill="none" stroke="#9a32cd" stroke-dasharray="5,2" d="M1222.92,-344.36C1201.06,-336.23 1174.39,-327.78 1149.5,-323.88 969.61,-295.63 751.71,-297.76 659.79,-300.3"/>
<polygon fill="#9a32cd" stroke="#9a32cd" points="1221.32,-347.88 1231.91,-348.18 1223.82,-341.34 1221.32,-347.88"/>
</a>
</g>
<text text-anchor="middle" x="992.88" y="-310.62" font-family="Helvetica,sans-Serif" font-size="10.00" fill="grey"> viewer</text>
</g>
<!-- Node5 -->
<g id="Node000005" class="node">
<title>Node5</title>
<g id="a_Node000005"><a xlink:title=" ">
<polygon fill="white" stroke="#666666" points="1148.75,-401.12 1033,-401.12 1033,-370.62 1148.75,-370.62 1148.75,-401.12"/>
<text text-anchor="start" x="1041" y="-387.62" font-family="Helvetica,sans-Serif" font-size="10.00">std::vector&lt; igl::opengl</text>
<text text-anchor="middle" x="1090.88" y="-376.38" font-family="Helvetica,sans-Serif" font-size="10.00">::ViewerData &gt;</text>
</a>
</g>
</g>
<!-- Node5&#45;&gt;Node4 -->
<g id="edge4_Node000004_Node000005" class="edge">
<title>Node5&#45;&gt;Node4</title>
<g id="a_edge4_Node000004_Node000005"><a xlink:title=" ">
<path fill="none" stroke="#9a32cd" stroke-dasharray="5,2" d="M1159.9,-377.44C1181.73,-374.74 1205.33,-371.81 1225.01,-369.37"/>
<polygon fill="#9a32cd" stroke="#9a32cd" points="1159.51,-374.09 1150.01,-378.79 1160.37,-381.04 1159.51,-374.09"/>
</a>
</g>
<text text-anchor="middle" x="1187.38" y="-377.62" font-family="Helvetica,sans-Serif" font-size="10.00" fill="grey"> data_list</text>
</g>
<!-- Node6 -->
<g id="Node000006" class="node">
<title>Node6</title>
<g id="a_Node000006"><a xlink:href="../../d5/d22/classigl_1_1opengl_1_1_viewer_data.html" target="_top" xlink:title=" ">
<polygon fill="white" stroke="#666666" points="952.75,-247.5 835.5,-247.5 835.5,-228.25 952.75,-228.25 952.75,-247.5"/>
<text text-anchor="middle" x="894.12" y="-234" font-family="Helvetica,sans-Serif" font-size="10.00">igl::opengl::ViewerData</text>
</a>
</g>
</g>
<!-- Node6&#45;&gt;Node5 -->
<g id="edge5_Node000005_Node000006" class="edge">
<title>Node6&#45;&gt;Node5</title>
<g id="a_edge5_Node000005_Node000006"><a xlink:title=" ">
<path fill="none" stroke="#9a32cd" stroke-dasharray="5,2" d="M963.85,-240.35C982.45,-244.31 1001.06,-251.84 1014.25,-265.62 1044.34,-297.07 1004.87,-328.05 1032.25,-361.88 1034.84,-365.08 1037.93,-367.86 1041.32,-370.27"/>
<polygon fill="#9a32cd" stroke="#9a32cd" points="964.71,-236.77 954.25,-238.45 963.48,-243.66 964.71,-236.77"/>
</a>
</g>
<text text-anchor="middle" x="992.88" y="-267.62" font-family="Helvetica,sans-Serif" font-size="10.00" fill="grey"> elements</text>
</g>
<!-- Node7 -->
<g id="Node000007" class="node">
<title>Node7</title>
<g id="a_Node000007"><a xlink:href="../../d2/d2d/class_eigen_1_1_matrix.html" target="_top" xlink:title=" ">
<polygon fill="white" stroke="#666666" points="431.38,-41.75 309.62,-41.75 309.62,0 431.38,0 431.38,-41.75"/>
<text text-anchor="start" x="317.62" y="-28.25" font-family="Helvetica,sans-Serif" font-size="10.00">Eigen::Matrix&lt; unsigned</text>
<text text-anchor="start" x="317.62" y="-17" font-family="Helvetica,sans-Serif" font-size="10.00"> char, Eigen::Dynamic,</text>
<text text-anchor="middle" x="370.5" y="-5.75" font-family="Helvetica,sans-Serif" font-size="10.00"> Eigen::Dynamic &gt;</text>
</a>
</g>
</g>
<!-- Node7&#45;&gt;Node6 -->
<g id="edge6_Node000006_Node000007" class="edge">
<title>Node7&#45;&gt;Node6</title>
<g id="a_edge6_Node000006_Node000007"><a xlink:title=" ">
<path fill="none" stroke="#9a32cd" stroke-dasharray="5,2" d="M442.72,-28.16C471.7,-32.39 505.21,-38.92 534.5,-48.88 676.44,-97.11 830.45,-195.92 878.18,-227.75"/>
<polygon fill="#9a32cd" stroke="#9a32cd" points="443.24,-24.56 432.85,-26.65 442.27,-31.49 443.24,-24.56"/>
</a>
</g>
<text text-anchor="middle" x="614.5" y="-145.38" font-family="Helvetica,sans-Serif" font-size="10.00" fill="grey"> texture_A</text>
<text text-anchor="middle" x="614.5" y="-134.12" font-family="Helvetica,sans-Serif" font-size="10.00" fill="grey">texture_B</text>
<text text-anchor="middle" x="614.5" y="-122.88" font-family="Helvetica,sans-Serif" font-size="10.00" fill="grey">texture_G</text>
<text text-anchor="middle" x="614.5" y="-111.62" font-family="Helvetica,sans-Serif" font-size="10.00" fill="grey">texture_R</text>
</g>
<!-- Node8 -->
<g id="Node000008" class="node">
<title>Node8</title>
<g id="a_Node000008"><a xlink:href="../../da/d8d/class_eigen_1_1_plain_object_base.html" target="_top" xlink:title=" ">
<polygon fill="#fff0f0" stroke="red" points="124.38,-36.12 4.88,-36.12 4.88,-5.62 124.38,-5.62 124.38,-36.12"/>
<text text-anchor="start" x="12.88" y="-22.62" font-family="Helvetica,sans-Serif" font-size="10.00">Eigen::PlainObjectBase</text>
<text text-anchor="middle" x="64.62" y="-11.38" font-family="Helvetica,sans-Serif" font-size="10.00">&lt; Derived &gt;</text>
</a>
</g>
</g>
<!-- Node8&#45;&gt;Node7 -->
<g id="edge7_Node000007_Node000008" class="edge">
<title>Node8&#45;&gt;Node7</title>
<g id="a_edge7_Node000007_Node000008"><a xlink:title=" ">
<path fill="none" stroke="#63b8ff" d="M135.48,-20.88C187.97,-20.88 259.13,-20.88 309.15,-20.88"/>
<polygon fill="#63b8ff" stroke="#63b8ff" points="135.58,-17.38 125.58,-20.88 135.58,-24.38 135.58,-17.38"/>
</a>
</g>
</g>
<!-- Node16 -->
<g id="Node000016" class="node">
<title>Node16</title>
<g id="a_Node000016"><a xlink:href="../../d2/d2d/class_eigen_1_1_matrix.html" target="_top" xlink:title="The matrix class, also used for vectors and row&#45;vectors.">
<polygon fill="#fff0f0" stroke="red" points="129.25,-191.75 0,-191.75 0,-150 129.25,-150 129.25,-191.75"/>
<text text-anchor="start" x="8" y="-178.25" font-family="Helvetica,sans-Serif" font-size="10.00">Eigen::Matrix&lt; _Scalar,</text>
<text text-anchor="start" x="8" y="-167" font-family="Helvetica,sans-Serif" font-size="10.00"> _Rows, _Cols, _Options,</text>
<text text-anchor="middle" x="64.62" y="-155.75" font-family="Helvetica,sans-Serif" font-size="10.00"> _MaxRows, _MaxCols &gt;</text>
</a>
</g>
</g>
<!-- Node16&#45;&gt;Node7 -->
<g id="edge8_Node000007_Node000016" class="edge">
<title>Node16&#45;&gt;Node7</title>
<g id="a_edge8_Node000007_Node000016"><a xlink:title=" ">
<path fill="none" stroke="orange" stroke-dasharray="5,2" d="M92.37,-142.23C107.37,-127.51 127.07,-110.22 147.25,-98.38 198.35,-68.38 262.86,-47.5 309.2,-35.03"/>
<polygon fill="orange" stroke="orange" points="90.56,-139.1 85.99,-148.65 95.52,-144.03 90.56,-139.1"/>
</a>
</g>
<text text-anchor="start" x="147.25" y="-111.88" font-family="Helvetica,sans-Serif" font-size="10.00" fill="grey"> &lt; unsigned char, Eigen</text>
<text text-anchor="middle" x="212.12" y="-100.62" font-family="Helvetica,sans-Serif" font-size="10.00" fill="grey">::Dynamic, Eigen::Dynamic &gt;</text>
</g>
<!-- Node23 -->
<g id="Node000023" class="node">
<title>Node23</title>
<g id="a_Node000023"><a xlink:href="../../d2/d2d/class_eigen_1_1_matrix.html" target="_top" xlink:title=" ">
<polygon fill="#fff0f0" stroke="red" points="446,-137.75 295,-137.75 295,-96 446,-96 446,-137.75"/>
<text text-anchor="start" x="303" y="-124.25" font-family="Helvetica,sans-Serif" font-size="10.00">Eigen::Matrix&lt; float,</text>
<text text-anchor="start" x="303" y="-113" font-family="Helvetica,sans-Serif" font-size="10.00"> Eigen::Dynamic, Eigen</text>
<text text-anchor="middle" x="370.5" y="-101.75" font-family="Helvetica,sans-Serif" font-size="10.00">::Dynamic, Eigen::RowMajor &gt;</text>
</a>
</g>
</g>
<!-- Node16&#45;&gt;Node23 -->
<g id="edge14_Node000023_Node000016" class="edge">
<title>Node16&#45;&gt;Node23</title>
<g id="a_edge14_Node000023_Node000016"><a xlink:title=" ">
<path fill="none" stroke="orange" stroke-dasharray="5,2" d="M136.85,-146.65C140.35,-145.74 143.83,-144.89 147.25,-144.12 195.72,-133.32 251.16,-126.51 294.55,-122.4"/>
<polygon fill="orange" stroke="orange" points="136.04,-143.52 127.33,-149.55 137.9,-150.26 136.04,-143.52"/>
</a>
</g>
<text text-anchor="start" x="157.38" y="-169.12" font-family="Helvetica,sans-Serif" font-size="10.00" fill="grey"> &lt; float, Eigen::Dynamic,</text>
<text text-anchor="start" x="157.38" y="-157.88" font-family="Helvetica,sans-Serif" font-size="10.00" fill="grey"> Eigen::Dynamic, Eigen</text>
<text text-anchor="middle" x="212.12" y="-146.62" font-family="Helvetica,sans-Serif" font-size="10.00" fill="grey">::RowMajor &gt;</text>
</g>
<!-- Node25 -->
<g id="Node000025" class="node">
<title>Node25</title>
<g id="a_Node000025"><a xlink:href="../../d2/d2d/class_eigen_1_1_matrix.html" target="_top" xlink:title=" ">
<polygon fill="#fff0f0" stroke="red" points="425,-281.12 316,-281.12 316,-250.62 425,-250.62 425,-281.12"/>
<text text-anchor="start" x="324" y="-267.62" font-family="Helvetica,sans-Serif" font-size="10.00">Eigen::Matrix&lt; char,</text>
<text text-anchor="middle" x="370.5" y="-256.38" font-family="Helvetica,sans-Serif" font-size="10.00"> Eigen::Dynamic, 1 &gt;</text>
</a>
</g>
</g>
<!-- Node16&#45;&gt;Node25 -->
<g id="edge16_Node000025_Node000016" class="edge">
<title>Node16&#45;&gt;Node25</title>
<g id="a_edge16_Node000025_Node000016"><a xlink:title=" ">
<path fill="none" stroke="orange" stroke-dasharray="5,2" d="M95.33,-199.24C109.89,-211.53 128.33,-224.91 147.25,-232.88 201.72,-255.81 269.55,-263.15 315.86,-265.33"/>
<polygon fill="orange" stroke="orange" points="98.07,-196.11 88.24,-192.18 93.47,-201.39 98.07,-196.11"/>
</a>
</g>
<text text-anchor="middle" x="212.12" y="-264.62" font-family="Helvetica,sans-Serif" font-size="10.00" fill="grey"> &lt; char, Eigen::Dynamic, 1 &gt;</text>
</g>
<!-- Node27 -->
<g id="Node000027" class="node">
<title>Node27</title>
<g id="a_Node000027"><a xlink:href="../../d2/d2d/class_eigen_1_1_matrix.html" target="_top" xlink:title=" ">
<polygon fill="#fff0f0" stroke="red" points="446,-226.75 295,-226.75 295,-185 446,-185 446,-226.75"/>
<text text-anchor="start" x="303" y="-213.25" font-family="Helvetica,sans-Serif" font-size="10.00">Eigen::Matrix&lt; unsigned,</text>
<text text-anchor="start" x="303" y="-202" font-family="Helvetica,sans-Serif" font-size="10.00"> Eigen::Dynamic, Eigen</text>
<text text-anchor="middle" x="370.5" y="-190.75" font-family="Helvetica,sans-Serif" font-size="10.00">::Dynamic, Eigen::RowMajor &gt;</text>
</a>
</g>
</g>
<!-- Node16&#45;&gt;Node27 -->
<g id="edge18_Node000027_Node000016" class="edge">
<title>Node16&#45;&gt;Node27</title>
<g id="a_edge18_Node000027_Node000016"><a xlink:title=" ">
<path fill="none" stroke="orange" stroke-dasharray="5,2" d="M140.4,-179.49C187.31,-184.89 247.58,-191.83 294.53,-197.24"/>
<polygon fill="orange" stroke="orange" points="141.03,-175.92 130.7,-178.25 140.23,-182.88 141.03,-175.92"/>
</a>
</g>
<text text-anchor="start" x="153.25" y="-219.12" font-family="Helvetica,sans-Serif" font-size="10.00" fill="grey"> &lt; unsigned, Eigen::</text>
<text text-anchor="start" x="153.25" y="-207.88" font-family="Helvetica,sans-Serif" font-size="10.00" fill="grey">Dynamic, Eigen::Dynamic,</text>
<text text-anchor="middle" x="212.12" y="-196.62" font-family="Helvetica,sans-Serif" font-size="10.00" fill="grey"> Eigen::RowMajor &gt;</text>
</g>
<!-- Node20&#45;&gt;Node6 -->
<g id="edge9_Node000006_Node000020" class="edge">
<title>Node20&#45;&gt;Node6</title>
<g id="a_edge9_Node000006_Node000020"><a xlink:title=" ">
<path fill="none" stroke="#9a32cd" stroke-dasharray="5,2" d="M659.67,-331.6C665.36,-329.75 671.08,-327.82 676.5,-325.88 748.16,-300.21 831.05,-264.93 870.29,-247.89"/>
<polygon fill="#9a32cd" stroke="#9a32cd" points="659.01,-328.45 650.55,-334.82 661.14,-335.12 659.01,-328.45"/>
</a>
</g>
<text text-anchor="middle" x="755.62" y="-318.62" font-family="Helvetica,sans-Serif" font-size="10.00" fill="grey"> labels_strings</text>
</g>
<!-- Node21 -->
<g id="Node000021" class="node">
<title>Node21</title>
<g id="a_Node000021"><a xlink:title=" ">
<polygon fill="#fff0f0" stroke="red" points="413.75,-409.5 327.25,-409.5 327.25,-390.25 413.75,-390.25 413.75,-409.5"/>
<text text-anchor="middle" x="370.5" y="-396" font-family="Helvetica,sans-Serif" font-size="10.00">std::vector&lt; T &gt;</text>
</a>
</g>
</g>
<!-- Node21&#45;&gt;Node5 -->
<g id="edge19_Node000005_Node000021" class="edge">
<title>Node21&#45;&gt;Node5</title>
<g id="a_edge19_Node000005_Node000021"><a xlink:title=" ">
<path fill="none" stroke="orange" stroke-dasharray="5,2" d="M425.01,-398.83C556.9,-396.26 896.68,-389.64 1032.51,-386.99"/>
<polygon fill="orange" stroke="orange" points="424.95,-395.35 415.02,-399.05 425.09,-402.35 424.95,-395.35"/>
</a>
</g>
<text text-anchor="middle" x="755.62" y="-394.62" font-family="Helvetica,sans-Serif" font-size="10.00" fill="grey"> &lt; igl::opengl::ViewerData &gt;</text>
</g>
<!-- Node21&#45;&gt;Node20 -->
<g id="edge11_Node000020_Node000021" class="edge">
<title>Node21&#45;&gt;Node20</title>
<g id="a_edge11_Node000020_Node000021"><a xlink:title=" ">
<path fill="none" stroke="orange" stroke-dasharray="5,2" d="M416.62,-386.88C431.63,-382.74 448.48,-378.28 464,-374.62 494.91,-367.34 529.69,-360.35 557.92,-354.97"/>
<polygon fill="orange" stroke="orange" points="415.75,-383.77 407.05,-389.82 417.63,-390.51 415.75,-383.77"/>
</a>
</g>
<text text-anchor="middle" x="499.25" y="-375.62" font-family="Helvetica,sans-Serif" font-size="10.00" fill="grey"> &lt; std::string &gt;</text>
</g>
<!-- Node21&#45;&gt;Node30 -->
<g id="edge23_Node000030_Node000021" class="edge">
<title>Node21&#45;&gt;Node30</title>
<g id="a_edge23_Node000030_Node000021"><a xlink:title=" ">
<path fill="none" stroke="orange" stroke-dasharray="5,2" d="M424.76,-408.71C437.59,-410.62 451.26,-412.48 464,-413.88 595.94,-428.29 751.54,-436.67 834.34,-440.44"/>
<polygon fill="orange" stroke="orange" points="425.65,-405.15 415.23,-407.1 424.59,-412.07 425.65,-405.15"/>
</a>
</g>
<text text-anchor="start" x="574.38" y="-443.88" font-family="Helvetica,sans-Serif" font-size="10.00" fill="grey"> &lt; igl::opengl::glfw</text>
<text text-anchor="middle" x="614.5" y="-432.62" font-family="Helvetica,sans-Serif" font-size="10.00" fill="grey">::ViewerPlugin * &gt;</text>
</g>
<!-- Node22 -->
<g id="Node000022" class="node">
<title>Node22</title>
<g id="a_Node000022"><a xlink:href="../../d5/d6d/classigl_1_1opengl_1_1_mesh_g_l.html" target="_top" xlink:title=" ">
<polygon fill="white" stroke="#666666" points="666,-230.5 563,-230.5 563,-211.25 666,-211.25 666,-230.5"/>
<text text-anchor="middle" x="614.5" y="-217" font-family="Helvetica,sans-Serif" font-size="10.00">igl::opengl::MeshGL</text>
</a>
</g>
</g>
<!-- Node22&#45;&gt;Node6 -->
<g id="edge12_Node000006_Node000022" class="edge">
<title>Node22&#45;&gt;Node6</title>
<g id="a_edge12_Node000006_Node000022"><a xlink:title=" ">
<path fill="none" stroke="#9a32cd" stroke-dasharray="5,2" d="M677.12,-224.65C724.36,-227.54 789.08,-231.5 835.33,-234.34"/>
<polygon fill="#9a32cd" stroke="#9a32cd" points="677.62,-221.11 667.42,-223.99 677.19,-228.1 677.62,-221.11"/>
</a>
</g>
<text text-anchor="middle" x="755.62" y="-234.62" font-family="Helvetica,sans-Serif" font-size="10.00" fill="grey"> meshgl</text>
</g>
<!-- Node23&#45;&gt;Node22 -->
<g id="edge13_Node000022_Node000023" class="edge">
<title>Node23&#45;&gt;Node22</title>
<g id="a_edge13_Node000022_Node000023"><a xlink:title=" ">
<path fill="none" stroke="#9a32cd" stroke-dasharray="5,2" d="M405.83,-89.2C440.27,-65.05 493.87,-37.5 534.5,-62.62 589.6,-96.71 607.54,-182.11 612.14,-211.08"/>
<polygon fill="#9a32cd" stroke="#9a32cd" points="404.12,-86.85 398.08,-95.56 408.23,-92.51 404.12,-86.85"/>
</a>
</g>
<text text-anchor="middle" x="499.25" y="-199.62" font-family="Helvetica,sans-Serif" font-size="10.00" fill="grey"> V_ambient_vbo</text>
<text text-anchor="middle" x="499.25" y="-188.38" font-family="Helvetica,sans-Serif" font-size="10.00" fill="grey">V_diffuse_vbo</text>
<text text-anchor="middle" x="499.25" y="-177.12" font-family="Helvetica,sans-Serif" font-size="10.00" fill="grey">V_normals_vbo</text>
<text text-anchor="middle" x="499.25" y="-165.88" font-family="Helvetica,sans-Serif" font-size="10.00" fill="grey">V_specular_vbo</text>
<text text-anchor="middle" x="499.25" y="-154.62" font-family="Helvetica,sans-Serif" font-size="10.00" fill="grey">V_uv_vbo</text>
<text text-anchor="middle" x="499.25" y="-143.38" font-family="Helvetica,sans-Serif" font-size="10.00" fill="grey">V_vbo</text>
<text text-anchor="start" x="464" y="-132.12" font-family="Helvetica,sans-Serif" font-size="10.00" fill="grey">lines_V_colors</text>
<text text-anchor="middle" x="499.25" y="-120.88" font-family="Helvetica,sans-Serif" font-size="10.00" fill="grey">_vbo</text>
<text text-anchor="middle" x="499.25" y="-109.62" font-family="Helvetica,sans-Serif" font-size="10.00" fill="grey">lines_V_vbo</text>
<text text-anchor="start" x="464" y="-98.38" font-family="Helvetica,sans-Serif" font-size="10.00" fill="grey">points_V_colors</text>
<text text-anchor="middle" x="499.25" y="-87.12" font-family="Helvetica,sans-Serif" font-size="10.00" fill="grey">_vbo</text>
<text text-anchor="middle" x="499.25" y="-75.88" font-family="Helvetica,sans-Serif" font-size="10.00" fill="grey">points_V_vbo</text>
<text text-anchor="middle" x="499.25" y="-64.62" font-family="Helvetica,sans-Serif" font-size="10.00" fill="grey">...</text>
</g>
<!-- Node25&#45;&gt;Node22 -->
<g id="edge15_Node000022_Node000025" class="edge">
<title>Node25&#45;&gt;Node22</title>
<g id="a_edge15_Node000022_Node000025"><a xlink:title=" ">
<path fill="none" stroke="#9a32cd" stroke-dasharray="5,2" d="M436.1,-263.31C466.28,-261.16 502.53,-257.19 534.5,-249.88 554.01,-245.41 575.27,-237.42 590.81,-230.96"/>
<polygon fill="#9a32cd" stroke="#9a32cd" points="436.02,-259.88 426.27,-264.03 436.48,-266.86 436.02,-259.88"/>
</a>
</g>
<text text-anchor="middle" x="499.25" y="-262.62" font-family="Helvetica,sans-Serif" font-size="10.00" fill="grey"> tex</text>
</g>
<!-- Node27&#45;&gt;Node22 -->
<g id="edge17_Node000022_Node000027" class="edge">
<title>Node27&#45;&gt;Node22</title>
<g id="a_edge17_Node000022_Node000027"><a xlink:title=" ">
<path fill="none" stroke="#9a32cd" stroke-dasharray="5,2" d="M457.2,-211.19C492.47,-213.37 532.13,-215.83 562.67,-217.72"/>
<polygon fill="#9a32cd" stroke="#9a32cd" points="457.61,-207.64 447.41,-210.52 457.18,-214.63 457.61,-207.64"/>
</a>
</g>
<text text-anchor="middle" x="499.25" y="-240.12" font-family="Helvetica,sans-Serif" font-size="10.00" fill="grey"> F_vbo</text>
<text text-anchor="middle" x="499.25" y="-228.88" font-family="Helvetica,sans-Serif" font-size="10.00" fill="grey">lines_F_vbo</text>
<text text-anchor="middle" x="499.25" y="-217.62" font-family="Helvetica,sans-Serif" font-size="10.00" fill="grey">points_F_vbo</text>
</g>
<!-- Node29 -->
<g id="Node000029" class="node">
<title>Node29</title>
<g id="a_Node000029"><a xlink:href="../../d2/d5a/classigl_1_1opengl_1_1_viewer_core.html" target="_top" xlink:title=" ">
<polygon fill="white" stroke="#666666" points="1149.5,-352.5 1032.25,-352.5 1032.25,-333.25 1149.5,-333.25 1149.5,-352.5"/>
<text text-anchor="middle" x="1090.88" y="-339" font-family="Helvetica,sans-Serif" font-size="10.00">igl::opengl::ViewerCore</text>
</a>
</g>
</g>
<!-- Node29&#45;&gt;Node4 -->
<g id="edge20_Node000004_Node000029" class="edge">
<title>Node29&#45;&gt;Node4</title>
<g id="a_edge20_Node000004_Node000029"><a xlink:title=" ">
<path fill="none" stroke="#9a32cd" stroke-dasharray="5,2" d="M1160.43,-344.13C1175.89,-345.02 1192.17,-346.42 1207.25,-348.62 1212.96,-349.46 1218.92,-350.59 1224.78,-351.85"/>
<polygon fill="#9a32cd" stroke="#9a32cd" points="1161.06,-340.61 1150.89,-343.6 1160.7,-347.6 1161.06,-340.61"/>
</a>
</g>
<text text-anchor="middle" x="1187.38" y="-349.62" font-family="Helvetica,sans-Serif" font-size="10.00" fill="grey"> core</text>
</g>
<!-- Node30&#45;&gt;Node4 -->
<g id="edge21_Node000004_Node000030" class="edge">
<title>Node30&#45;&gt;Node4</title>
<g id="a_edge21_Node000004_Node000030"><a xlink:title=" ">
<path fill="none" stroke="#9a32cd" stroke-dasharray="5,2" d="M964.44,-437.45C1015.94,-432.55 1087.67,-423.92 1149.5,-409.88 1175.85,-403.89 1182,-400.49 1207.25,-390.88 1216.26,-387.44 1225.87,-383.44 1234.78,-379.58"/>
<polygon fill="#9a32cd" stroke="#9a32cd" points="964.4,-434.03 954.77,-438.43 965.05,-441 964.4,-434.03"/>
</a>
</g>
<text text-anchor="middle" x="1090.88" y="-430.62" font-family="Helvetica,sans-Serif" font-size="10.00" fill="grey"> plugins</text>
</g>
</g>
</svg>
