<?xml version="1.0" encoding="UTF-8" standalone="no"?>
<!DOCTYPE svg PUBLIC "-//W3C//DTD SVG 1.1//EN"
 "http://www.w3.org/Graphics/SVG/1.1/DTD/svg11.dtd">
<!-- Generated by graphviz version 8.0.5 (20230430.1635)
 -->
<!-- Title: Slic3r::ExPolygonWithOffset Pages: 1 -->
<svg width="1399pt" height="156pt"
 viewBox="0.00 0.00 1399.00 155.88" xmlns="http://www.w3.org/2000/svg" xmlns:xlink="http://www.w3.org/1999/xlink">
<g id="graph0" class="graph" transform="scale(1 1) rotate(0) translate(4 151.88)">
<title>Slic3r::ExPolygonWithOffset</title>
<!-- Node1 -->
<g id="Node000001" class="node">
<title>Node1</title>
<g id="a_Node000001"><a xlink:title=" ">
<polygon fill="#999999" stroke="#666666" points="1391,-68.88 1249.75,-68.88 1249.75,-49.62 1391,-49.62 1391,-68.88"/>
<text text-anchor="middle" x="1320.38" y="-55.38" font-family="Helvetica,sans-Serif" font-size="10.00">Slic3r::ExPolygonWithOffset</text>
</a>
</g>
</g>
<!-- Node2 -->
<g id="Node000002" class="node">
<title>Node2</title>
<g id="a_Node000002"><a xlink:href="../../db/dc4/class_slic3r_1_1_ex_polygon.html" target="_top" xlink:title=" ">
<polygon fill="white" stroke="#666666" points="1153,-118.88 1059,-118.88 1059,-99.62 1153,-99.62 1153,-118.88"/>
<text text-anchor="middle" x="1106" y="-105.38" font-family="Helvetica,sans-Serif" font-size="10.00">Slic3r::ExPolygon</text>
</a>
</g>
</g>
<!-- Node2&#45;&gt;Node1 -->
<g id="edge1_Node000001_Node000002" class="edge">
<title>Node2&#45;&gt;Node1</title>
<g id="a_edge1_Node000001_Node000002"><a xlink:title=" ">
<path fill="none" stroke="#9a32cd" stroke-dasharray="5,2" d="M1160.27,-96.71C1196.18,-88.25 1242.94,-77.24 1276.46,-69.35"/>
<polygon fill="#9a32cd" stroke="#9a32cd" points="1159.91,-93.43 1150.98,-99.13 1161.51,-100.25 1159.91,-93.43"/>
</a>
</g>
<text text-anchor="middle" x="1201.38" y="-94" font-family="Helvetica,sans-Serif" font-size="10.00" fill="grey"> polygons_src</text>
</g>
<!-- Node3 -->
<g id="Node000003" class="node">
<title>Node3</title>
<g id="a_Node000003"><a xlink:href="../../d8/d90/class_slic3r_1_1_polygon.html" target="_top" xlink:title=" ">
<polygon fill="white" stroke="#666666" points="748.25,-122.88 666.25,-122.88 666.25,-103.62 748.25,-103.62 748.25,-122.88"/>
<text text-anchor="middle" x="707.25" y="-109.38" font-family="Helvetica,sans-Serif" font-size="10.00">Slic3r::Polygon</text>
</a>
</g>
</g>
<!-- Node3&#45;&gt;Node2 -->
<g id="edge2_Node000002_Node000003" class="edge">
<title>Node3&#45;&gt;Node2</title>
<g id="a_edge2_Node000002_Node000003"><a xlink:title=" ">
<path fill="none" stroke="#9a32cd" stroke-dasharray="5,2" d="M759.43,-112.73C837.15,-111.95 983.78,-110.47 1058.58,-109.72"/>
<polygon fill="#9a32cd" stroke="#9a32cd" points="759.44,-109.24 749.48,-112.84 759.51,-116.24 759.44,-109.24"/>
</a>
</g>
<text text-anchor="middle" x="923.12" y="-113" font-family="Helvetica,sans-Serif" font-size="10.00" fill="grey"> contour</text>
</g>
<!-- Node21 -->
<g id="Node000021" class="node">
<title>Node21</title>
<g id="a_Node000021"><a xlink:title=" ">
<polygon fill="white" stroke="#666666" points="996.75,-78.5 849.5,-78.5 849.5,-48 996.75,-48 996.75,-78.5"/>
<text text-anchor="start" x="857.5" y="-65" font-family="Helvetica,sans-Serif" font-size="10.00">std::vector&lt; Polygon,</text>
<text text-anchor="middle" x="923.12" y="-53.75" font-family="Helvetica,sans-Serif" font-size="10.00"> PointsAllocator&lt; Polygon &gt; &gt;</text>
</a>
</g>
</g>
<!-- Node3&#45;&gt;Node21 -->
<g id="edge8_Node000021_Node000003" class="edge">
<title>Node3&#45;&gt;Node21</title>
<g id="a_edge8_Node000021_Node000003"><a xlink:title=" ">
<path fill="none" stroke="#9a32cd" stroke-dasharray="5,2" d="M744.65,-99.63C751.75,-97.23 759.19,-94.89 766.25,-93 792.99,-85.82 822.76,-79.69 849.06,-74.9"/>
<polygon fill="#9a32cd" stroke="#9a32cd" points="743.85,-96.55 735.56,-103.14 746.15,-103.16 743.85,-96.55"/>
</a>
</g>
<text text-anchor="middle" x="798.88" y="-94" font-family="Helvetica,sans-Serif" font-size="10.00" fill="grey"> elements</text>
</g>
<!-- Node4 -->
<g id="Node000004" class="node">
<title>Node4</title>
<g id="a_Node000004"><a xlink:href="../../d7/dd1/class_slic3r_1_1_multi_point.html" target="_top" xlink:title=" ">
<polygon fill="white" stroke="#666666" points="614.75,-122.88 524.5,-122.88 524.5,-103.62 614.75,-103.62 614.75,-122.88"/>
<text text-anchor="middle" x="569.62" y="-109.38" font-family="Helvetica,sans-Serif" font-size="10.00">Slic3r::MultiPoint</text>
</a>
</g>
</g>
<!-- Node4&#45;&gt;Node3 -->
<g id="edge3_Node000003_Node000004" class="edge">
<title>Node4&#45;&gt;Node3</title>
<g id="a_edge3_Node000003_Node000004"><a xlink:title=" ">
<path fill="none" stroke="#63b8ff" d="M626.03,-113.25C639.37,-113.25 653.37,-113.25 665.87,-113.25"/>
<polygon fill="#63b8ff" stroke="#63b8ff" points="626.03,-109.75 616.03,-113.25 626.03,-116.75 626.03,-109.75"/>
</a>
</g>
</g>
<!-- Node5 -->
<g id="Node000005" class="node">
<title>Node5</title>
<g id="a_Node000005"><a xlink:title=" ">
<polygon fill="white" stroke="#666666" points="363.5,-128.5 229,-128.5 229,-98 363.5,-98 363.5,-128.5"/>
<text text-anchor="start" x="237" y="-115" font-family="Helvetica,sans-Serif" font-size="10.00">std::vector&lt; Point,</text>
<text text-anchor="middle" x="296.25" y="-103.75" font-family="Helvetica,sans-Serif" font-size="10.00"> PointsAllocator&lt; Point &gt; &gt;</text>
</a>
</g>
</g>
<!-- Node5&#45;&gt;Node4 -->
<g id="edge4_Node000004_Node000005" class="edge">
<title>Node5&#45;&gt;Node4</title>
<g id="a_edge4_Node000004_Node000005"><a xlink:title=" ">
<path fill="none" stroke="#9a32cd" stroke-dasharray="5,2" d="M374.75,-113.25C423.18,-113.25 483.8,-113.25 524.24,-113.25"/>
<polygon fill="#9a32cd" stroke="#9a32cd" points="374.98,-109.75 364.98,-113.25 374.98,-116.75 374.98,-109.75"/>
</a>
</g>
<text text-anchor="middle" x="436.75" y="-115" font-family="Helvetica,sans-Serif" font-size="10.00" fill="grey"> points</text>
</g>
<!-- Node6 -->
<g id="Node000006" class="node">
<title>Node6</title>
<g id="a_Node000006"><a xlink:href="../../d6/dec/class_slic3r_1_1_point.html" target="_top" xlink:title=" ">
<polygon fill="#fff0f0" stroke="red" points="77.88,-147.88 8.62,-147.88 8.62,-128.62 77.88,-128.62 77.88,-147.88"/>
<text text-anchor="middle" x="43.25" y="-134.38" font-family="Helvetica,sans-Serif" font-size="10.00">Slic3r::Point</text>
</a>
</g>
</g>
<!-- Node6&#45;&gt;Node5 -->
<g id="edge5_Node000005_Node000006" class="edge">
<title>Node6&#45;&gt;Node5</title>
<g id="a_edge5_Node000005_Node000006"><a xlink:title=" ">
<path fill="none" stroke="#9a32cd" stroke-dasharray="5,2" d="M89.31,-133.76C128.12,-129.9 184.67,-124.26 228.7,-119.88"/>
<polygon fill="#9a32cd" stroke="#9a32cd" points="88.97,-130.38 79.36,-134.85 89.66,-137.34 88.97,-130.38"/>
</a>
</g>
<text text-anchor="middle" x="157.75" y="-133" font-family="Helvetica,sans-Serif" font-size="10.00" fill="grey"> elements</text>
</g>
<!-- Node20 -->
<g id="Node000020" class="node">
<title>Node20</title>
<g id="a_Node000020"><a xlink:title=" ">
<polygon fill="#fff0f0" stroke="red" points="86.5,-68.88 0,-68.88 0,-49.62 86.5,-49.62 86.5,-68.88"/>
<text text-anchor="middle" x="43.25" y="-55.38" font-family="Helvetica,sans-Serif" font-size="10.00">std::vector&lt; T &gt;</text>
</a>
</g>
</g>
<!-- Node20&#45;&gt;Node5 -->
<g id="edge6_Node000005_Node000020" class="edge">
<title>Node20&#45;&gt;Node5</title>
<g id="a_edge6_Node000005_Node000020"><a xlink:title=" ">
<path fill="none" stroke="orange" stroke-dasharray="5,2" d="M97.46,-70.49C130.21,-77.43 173.05,-86.54 211,-94.75 216.71,-95.98 222.63,-97.27 228.58,-98.57"/>
<polygon fill="orange" stroke="orange" points="98.27,-66.87 87.76,-68.22 96.82,-73.72 98.27,-66.87"/>
</a>
</g>
<text text-anchor="start" x="104.5" y="-107.25" font-family="Helvetica,sans-Serif" font-size="10.00" fill="grey"> &lt; Point, PointsAllocator</text>
<text text-anchor="middle" x="157.75" y="-96" font-family="Helvetica,sans-Serif" font-size="10.00" fill="grey">&lt; Point &gt; &gt;</text>
</g>
<!-- Node20&#45;&gt;Node21 -->
<g id="edge9_Node000021_Node000020" class="edge">
<title>Node20&#45;&gt;Node21</title>
<g id="a_edge9_Node000021_Node000020"><a xlink:title=" ">
<path fill="none" stroke="orange" stroke-dasharray="5,2" d="M97.61,-59.25C148.42,-59.25 227.05,-59.25 295.25,-59.25 295.25,-59.25 295.25,-59.25 708.25,-59.25 755.23,-59.25 808,-60.23 849.37,-61.21"/>
<polygon fill="orange" stroke="orange" points="97.89,-55.75 87.89,-59.25 97.89,-62.75 97.89,-55.75"/>
</a>
</g>
<text text-anchor="start" x="510" y="-72.25" font-family="Helvetica,sans-Serif" font-size="10.00" fill="grey"> &lt; Polygon, PointsAllocator</text>
<text text-anchor="middle" x="569.62" y="-61" font-family="Helvetica,sans-Serif" font-size="10.00" fill="grey">&lt; Polygon &gt; &gt;</text>
</g>
<!-- Node22 -->
<g id="Node000022" class="node">
<title>Node22</title>
<g id="a_Node000022"><a xlink:title=" ">
<polygon fill="white" stroke="#666666" points="492,-30.5 381.5,-30.5 381.5,0 492,0 492,-30.5"/>
<text text-anchor="start" x="389.5" y="-17" font-family="Helvetica,sans-Serif" font-size="10.00">std::vector&lt; unsigned</text>
<text text-anchor="middle" x="436.75" y="-5.75" font-family="Helvetica,sans-Serif" font-size="10.00"> char &gt;</text>
</a>
</g>
</g>
<!-- Node20&#45;&gt;Node22 -->
<g id="edge12_Node000022_Node000020" class="edge">
<title>Node20&#45;&gt;Node22</title>
<g id="a_edge12_Node000022_Node000020"><a xlink:title=" ">
<path fill="none" stroke="orange" stroke-dasharray="5,2" d="M73.39,-44.69C83.06,-40.5 94.03,-36.41 104.5,-34 199.92,-11.99 314.68,-10.94 381.02,-12.72"/>
<polygon fill="orange" stroke="orange" points="72.14,-41.87 64.5,-49.2 75.05,-48.24 72.14,-41.87"/>
</a>
</g>
<text text-anchor="middle" x="157.75" y="-36" font-family="Helvetica,sans-Serif" font-size="10.00" fill="grey"> &lt; unsigned char &gt;</text>
</g>
<!-- Node21&#45;&gt;Node1 -->
<g id="edge10_Node000001_Node000021" class="edge">
<title>Node21&#45;&gt;Node1</title>
<g id="a_edge10_Node000001_Node000021"><a xlink:title=" ">
<path fill="none" stroke="#9a32cd" stroke-dasharray="5,2" d="M1007.89,-62.4C1079.72,-61.68 1182,-60.64 1249.5,-59.96"/>
<polygon fill="#9a32cd" stroke="#9a32cd" points="1008.04,-58.91 998.08,-62.51 1008.12,-65.91 1008.04,-58.91"/>
</a>
</g>
<text text-anchor="middle" x="1106" y="-74.25" font-family="Helvetica,sans-Serif" font-size="10.00" fill="grey"> polygons_inner</text>
<text text-anchor="middle" x="1106" y="-63" font-family="Helvetica,sans-Serif" font-size="10.00" fill="grey">polygons_outer</text>
</g>
<!-- Node21&#45;&gt;Node2 -->
<g id="edge7_Node000002_Node000021" class="edge">
<title>Node21&#45;&gt;Node2</title>
<g id="a_edge7_Node000002_Node000021"><a xlink:title=" ">
<path fill="none" stroke="#9a32cd" stroke-dasharray="5,2" d="M996.51,-81.66C1020,-87.63 1045.17,-94.03 1065.35,-99.17"/>
<polygon fill="#9a32cd" stroke="#9a32cd" points="997.42,-78.02 986.87,-78.95 995.69,-84.81 997.42,-78.02"/>
</a>
</g>
<text text-anchor="middle" x="1027.88" y="-93" font-family="Helvetica,sans-Serif" font-size="10.00" fill="grey"> holes</text>
</g>
<!-- Node22&#45;&gt;Node1 -->
<g id="edge11_Node000001_Node000022" class="edge">
<title>Node22&#45;&gt;Node1</title>
<g id="a_edge11_Node000001_Node000022"><a xlink:title=" ">
<path fill="none" stroke="#9a32cd" stroke-dasharray="5,2" d="M503.19,-14.3C544.51,-13.79 599,-13.25 647.25,-13.25 647.25,-13.25 647.25,-13.25 1107,-13.25 1174.34,-13.25 1251.02,-35.61 1291.28,-49.16"/>
<polygon fill="#9a32cd" stroke="#9a32cd" points="503.4,-10.81 493.45,-14.44 503.49,-17.81 503.4,-10.81"/>
</a>
</g>
<text text-anchor="middle" x="798.88" y="-15" font-family="Helvetica,sans-Serif" font-size="10.00" fill="grey"> polygons_ccw</text>
</g>
</g>
</svg>
