<?xml version="1.0" encoding="UTF-8" standalone="no"?>
<!DOCTYPE svg PUBLIC "-//W3C//DTD SVG 1.1//EN"
 "http://www.w3.org/Graphics/SVG/1.1/DTD/svg11.dtd">
<!-- Generated by graphviz version 8.0.5 (20230430.1635)
 -->
<!-- Title: Slic3r::sla::DefaultSupportTree::create_ground_pillar Pages: 1 -->
<!--zoomable 874 -->

<svg id="main" version="1.1" xmlns="http://www.w3.org/2000/svg" xmlns:xlink="http://www.w3.org/1999/xlink" xml:space="preserve" onload="init(evt)">
<style type="text/css"><![CDATA[
.node, .edge {opacity: 0.7;}
.node.selected, .edge.selected {opacity: 1;}
.edge:hover path { stroke: red; }
.edge:hover polygon { stroke: red; fill: red; }
]]></style>

<defs>
  <circle id="rim" cx="0" cy="0" r="7"/>
  <circle id="rim2" cx="0" cy="0" r="3.5"/>
  <g id="zoomPlus">
    <use xlink:href="#rim" fill="#404040"><set attributeName="fill" to="#808080" begin="zoomplus.mouseover" end="zoomplus.mouseout"/></use>
    <path d="M-4,0h8M0,-4v8" fill="none" stroke="white" stroke-width="1.5" pointer-events="none"/>
  </g>
  <g id="zoomMin">
    <use xlink:href="#rim" fill="#404040"><set attributeName="fill" to="#808080" begin="zoomminus.mouseover" end="zoomminus.mouseout"/></use>
    <path d="M-4,0h8" fill="none" stroke="white" stroke-width="1.5" pointer-events="none"/>
  </g>
  <g id="arrowUp" transform="translate(30 24)">
    <use xlink:href="#rim"/>
    <path pointer-events="none" fill="none" stroke="white" stroke-width="1.5" d="M0,-3.0v7 M-2.5,-0.5L0,-3.0L2.5,-0.5"/>
  </g>
  <g id="arrowRight" transform="rotate(90) translate(36 -43)">
    <use xlink:href="#rim"/>
    <path pointer-events="none" fill="none" stroke="white" stroke-width="1.5" d="M0,-3.0v7 M-2.5,-0.5L0,-3.0L2.5,-0.5"/>
  </g>
  <g id="arrowDown" transform="rotate(180) translate(-30 -48)">
    <use xlink:href="#rim"/>
    <path pointer-events="none" fill="none" stroke="white" stroke-width="1.5" d="M0,-3.0v7 M-2.5,-0.5L0,-3.0L2.5,-0.5"/>
  </g>
  <g id="arrowLeft" transform="rotate(270) translate(-36 17)">
    <use xlink:href="#rim"/>
    <path pointer-events="none" fill="none" stroke="white" stroke-width="1.5" d="M0,-3.0v7 M-2.5,-0.5L0,-3.0L2.5,-0.5"/>
  </g>
  <g id="resetDef">
    <use xlink:href="#rim2" fill="#404040"><set attributeName="fill" to="#808080" begin="reset.mouseover" end="reset.mouseout"/></use>
  </g>
</defs>
<script type="application/ecmascript">
var viewWidth = 925;
var viewHeight = 874;
var sectionId = 'dynsection-17';
</script>
<script type="application/ecmascript" xlink:href="../../svg.min.js"/>
<svg id="graph" class="graph">
<g id="viewport">
<title>Slic3r::sla::DefaultSupportTree::create_ground_pillar</title>
<!-- Node1 -->
<g id="Node000001" class="node">
<title>Node1</title>
<g id="a_Node000001"><a xlink:title=" ">
<polygon fill="#999999" stroke="#666666" points="130.75,-73.5 0,-73.5 0,-43 130.75,-43 130.75,-73.5"/>
<text text-anchor="start" x="8" y="-60" font-family="Helvetica,sans-Serif" font-size="10.00">Slic3r::sla::DefaultSupport</text>
<text text-anchor="middle" x="65.38" y="-48.75" font-family="Helvetica,sans-Serif" font-size="10.00">Tree::create_ground_pillar</text>
</a>
</g>
</g>
<!-- Node2 -->
<g id="Node000002" class="node">
<title>Node2</title>
<g id="a_Node000002"><a xlink:href="../../d2/d57/namespace_slic3r_1_1sla.html#a161682cfd44c232dec28db061655644e" target="_top" xlink:title=" ">
<polygon fill="white" stroke="#666666" points="268.62,-338.5 176.12,-338.5 176.12,-308 268.62,-308 268.62,-338.5"/>
<text text-anchor="start" x="184.12" y="-325" font-family="Helvetica,sans-Serif" font-size="10.00">Slic3r::sla::create</text>
<text text-anchor="middle" x="222.38" y="-313.75" font-family="Helvetica,sans-Serif" font-size="10.00">_ground_pillar</text>
</a>
</g>
</g>
<!-- Node1&#45;&gt;Node2 -->
<g id="edge1_Node000001_Node000002" class="edge">
<title>Node1&#45;&gt;Node2</title>
<g id="a_edge1_Node000001_Node000002"><a xlink:title=" ">
<path fill="none" stroke="#63b8ff" d="M75.38,-73.64C101.17,-117.74 175.48,-244.78 206.98,-298.65"/>
<polygon fill="#63b8ff" stroke="#63b8ff" points="204.28,-299.95 212.35,-306.81 210.32,-296.42 204.28,-299.95"/>
</a>
</g>
</g>
<!-- Node14 -->
<g id="Node000014" class="node">
<title>Node14</title>
<g id="a_Node000014"><a xlink:href="../../d9/d07/class_slic3r_1_1sla_1_1_support_tree_builder.html#ae3ed5926f49bcb0701fa7866c7f22fbb" target="_top" xlink:title=" ">
<polygon fill="white" stroke="#666666" points="614.88,-60.5 496.12,-60.5 496.12,-30 614.88,-30 614.88,-60.5"/>
<text text-anchor="start" x="504.12" y="-47" font-family="Helvetica,sans-Serif" font-size="10.00">Slic3r::sla::SupportTree</text>
<text text-anchor="middle" x="555.5" y="-35.75" font-family="Helvetica,sans-Serif" font-size="10.00">Builder::pillar</text>
</a>
</g>
</g>
<!-- Node1&#45;&gt;Node14 -->
<g id="edge39_Node000001_Node000014" class="edge">
<title>Node1&#45;&gt;Node14</title>
<g id="a_edge39_Node000001_Node000014"><a xlink:title=" ">
<path fill="none" stroke="#63b8ff" d="M131.19,-56.52C223.12,-54.08 390.65,-49.61 485.05,-47.1"/>
<polygon fill="#63b8ff" stroke="#63b8ff" points="485,-50.58 494.9,-46.81 484.81,-43.58 485,-50.58"/>
</a>
</g>
</g>
<!-- Node32 -->
<g id="Node000032" class="node">
<title>Node32</title>
<g id="a_Node000032"><a xlink:href="../../d7/d21/class_slic3r_1_1sla_1_1_pillar_index.html#a6c5f1c5f849ddd4541770f714b195c9a" target="_top" xlink:title=" ">
<polygon fill="white" stroke="#666666" points="278,-30.5 166.75,-30.5 166.75,0 278,0 278,-30.5"/>
<text text-anchor="start" x="174.75" y="-17" font-family="Helvetica,sans-Serif" font-size="10.00">Slic3r::sla::PillarIndex</text>
<text text-anchor="middle" x="222.38" y="-5.75" font-family="Helvetica,sans-Serif" font-size="10.00">::guarded_insert</text>
</a>
</g>
</g>
<!-- Node1&#45;&gt;Node32 -->
<g id="edge37_Node000001_Node000032" class="edge">
<title>Node1&#45;&gt;Node32</title>
<g id="a_edge37_Node000001_Node000032"><a xlink:title=" ">
<path fill="none" stroke="#63b8ff" d="M122.77,-42.6C133.53,-39.62 144.87,-36.47 155.89,-33.42"/>
<polygon fill="#63b8ff" stroke="#63b8ff" points="156.61,-36.57 165.32,-30.52 154.74,-29.83 156.61,-36.57"/>
</a>
</g>
</g>
<!-- Node3 -->
<g id="Node000003" class="node">
<title>Node3</title>
<g id="a_Node000003"><a xlink:href="../../d9/d07/class_slic3r_1_1sla_1_1_support_tree_builder.html#a23976481a726809d6737abefa6c77f1b" target="_top" xlink:title=" ">
<polygon fill="white" stroke="#666666" points="442.5,-314.5 323.75,-314.5 323.75,-284 442.5,-284 442.5,-314.5"/>
<text text-anchor="start" x="331.75" y="-301" font-family="Helvetica,sans-Serif" font-size="10.00">Slic3r::sla::SupportTree</text>
<text text-anchor="middle" x="383.12" y="-289.75" font-family="Helvetica,sans-Serif" font-size="10.00">Builder::add_bridge</text>
</a>
</g>
</g>
<!-- Node2&#45;&gt;Node3 -->
<g id="edge2_Node000002_Node000003" class="edge">
<title>Node2&#45;&gt;Node3</title>
<g id="a_edge2_Node000002_Node000003"><a xlink:title=" ">
<path fill="none" stroke="#63b8ff" d="M268.87,-316.37C282.51,-314.31 297.79,-312 312.61,-309.76"/>
<polygon fill="#63b8ff" stroke="#63b8ff" points="312.92,-313.1 322.28,-308.15 311.87,-306.18 312.92,-313.1"/>
</a>
</g>
</g>
<!-- Node5 -->
<g id="Node000005" class="node">
<title>Node5</title>
<g id="a_Node000005"><a xlink:href="../../d9/d07/class_slic3r_1_1sla_1_1_support_tree_builder.html#aee1ce4bce3630d49114cd78ef245dd22" target="_top" xlink:title=" ">
<polygon fill="white" stroke="#666666" points="442.5,-363.5 323.75,-363.5 323.75,-333 442.5,-333 442.5,-363.5"/>
<text text-anchor="start" x="331.75" y="-350" font-family="Helvetica,sans-Serif" font-size="10.00">Slic3r::sla::SupportTree</text>
<text text-anchor="middle" x="383.12" y="-338.75" font-family="Helvetica,sans-Serif" font-size="10.00">Builder::add_diffbridge</text>
</a>
</g>
</g>
<!-- Node2&#45;&gt;Node5 -->
<g id="edge4_Node000002_Node000005" class="edge">
<title>Node2&#45;&gt;Node5</title>
<g id="a_edge4_Node000002_Node000005"><a xlink:title=" ">
<path fill="none" stroke="#63b8ff" d="M268.87,-330.41C282.51,-332.56 297.79,-334.97 312.61,-337.3"/>
<polygon fill="#63b8ff" stroke="#63b8ff" points="311.86,-340.89 322.28,-338.98 312.95,-333.97 311.86,-340.89"/>
</a>
</g>
</g>
<!-- Node6 -->
<g id="Node000006" class="node">
<title>Node6</title>
<g id="a_Node000006"><a xlink:href="../../d9/d07/class_slic3r_1_1sla_1_1_support_tree_builder.html#a39bc20e522b9699d6b4fa1ff10cbaaba" target="_top" xlink:title=" ">
<polygon fill="white" stroke="#666666" points="442.5,-412.5 323.75,-412.5 323.75,-382 442.5,-382 442.5,-412.5"/>
<text text-anchor="start" x="331.75" y="-399" font-family="Helvetica,sans-Serif" font-size="10.00">Slic3r::sla::SupportTree</text>
<text text-anchor="middle" x="383.12" y="-387.75" font-family="Helvetica,sans-Serif" font-size="10.00">Builder::add_junction</text>
</a>
</g>
</g>
<!-- Node2&#45;&gt;Node6 -->
<g id="edge6_Node000002_Node000006" class="edge">
<title>Node2&#45;&gt;Node6</title>
<g id="a_edge6_Node000002_Node000006"><a xlink:title=" ">
<path fill="none" stroke="#63b8ff" d="M249.83,-338.86C267.63,-349.05 291.83,-362.25 314,-372.25 318.07,-374.09 322.32,-375.89 326.62,-377.64"/>
<polygon fill="#63b8ff" stroke="#63b8ff" points="325.1,-381.2 335.68,-381.61 327.66,-374.69 325.1,-381.2"/>
</a>
</g>
</g>
<!-- Node7 -->
<g id="Node000007" class="node">
<title>Node7</title>
<g id="a_Node000007"><a xlink:href="../../d9/d07/class_slic3r_1_1sla_1_1_support_tree_builder.html#a130726add7685bbdc8da605c3511814a" target="_top" xlink:title=" ">
<polygon fill="white" stroke="#666666" points="442.5,-130.5 323.75,-130.5 323.75,-100 442.5,-100 442.5,-130.5"/>
<text text-anchor="start" x="331.75" y="-117" font-family="Helvetica,sans-Serif" font-size="10.00">Slic3r::sla::SupportTree</text>
<text text-anchor="middle" x="383.12" y="-105.75" font-family="Helvetica,sans-Serif" font-size="10.00">Builder::add_pillar</text>
</a>
</g>
</g>
<!-- Node2&#45;&gt;Node7 -->
<g id="edge7_Node000002_Node000007" class="edge">
<title>Node2&#45;&gt;Node7</title>
<g id="a_edge7_Node000002_Node000007"><a xlink:title=" ">
<path fill="none" stroke="#63b8ff" d="M227.33,-307.62C236.7,-273.51 263.39,-191.61 314,-144.25 317.08,-141.37 320.49,-138.75 324.09,-136.37"/>
<polygon fill="#63b8ff" stroke="#63b8ff" points="325.5,-139.02 332.38,-130.95 321.97,-132.97 325.5,-139.02"/>
</a>
</g>
</g>
<!-- Node8 -->
<g id="Node000008" class="node">
<title>Node8</title>
<g id="a_Node000008"><a xlink:href="../../d9/d07/class_slic3r_1_1sla_1_1_support_tree_builder.html#a19c45b0758c7142dfcb00ea6d7ecdf99" target="_top" xlink:title=" ">
<polygon fill="white" stroke="#666666" points="614.88,-195.5 496.12,-195.5 496.12,-165 614.88,-165 614.88,-195.5"/>
<text text-anchor="start" x="504.12" y="-182" font-family="Helvetica,sans-Serif" font-size="10.00">Slic3r::sla::SupportTree</text>
<text text-anchor="middle" x="555.5" y="-170.75" font-family="Helvetica,sans-Serif" font-size="10.00">Builder::head</text>
</a>
</g>
</g>
<!-- Node2&#45;&gt;Node8 -->
<g id="edge19_Node000002_Node000008" class="edge">
<title>Node2&#45;&gt;Node8</title>
<g id="a_edge19_Node000002_Node000008"><a xlink:title=" ">
<path fill="none" stroke="#63b8ff" d="M227.56,-307.63C236.92,-276.16 262.9,-205.67 314,-177.25 366.8,-147.88 436.76,-152.67 487.6,-162.39"/>
<polygon fill="#63b8ff" stroke="#63b8ff" points="486.65,-165.97 497.15,-164.53 488.04,-159.11 486.65,-165.97"/>
</a>
</g>
</g>
<!-- Node15 -->
<g id="Node000015" class="node">
<title>Node15</title>
<g id="a_Node000015"><a xlink:href="../../d9/d07/class_slic3r_1_1sla_1_1_support_tree_builder.html#a885b9c48060246d278a6d69c898ef7e1" target="_top" xlink:title=" ">
<polygon fill="white" stroke="#666666" points="442.88,-216.5 323.38,-216.5 323.38,-186 442.88,-186 442.88,-216.5"/>
<text text-anchor="start" x="331.38" y="-203" font-family="Helvetica,sans-Serif" font-size="10.00">Slic3r::sla::SupportTree</text>
<text text-anchor="middle" x="383.12" y="-191.75" font-family="Helvetica,sans-Serif" font-size="10.00">Builder::add_pillar_base</text>
</a>
</g>
</g>
<!-- Node2&#45;&gt;Node15 -->
<g id="edge14_Node000002_Node000015" class="edge">
<title>Node2&#45;&gt;Node15</title>
<g id="a_edge14_Node000002_Node000015"><a xlink:title=" ">
<path fill="none" stroke="#63b8ff" d="M234.23,-307.68C249.69,-286.53 280,-248.79 314,-226.25 316.3,-224.73 318.7,-223.28 321.17,-221.91"/>
<polygon fill="#63b8ff" stroke="#63b8ff" points="322.61,-224.61 329.98,-217 319.47,-218.35 322.61,-224.61"/>
</a>
</g>
</g>
<!-- Node16 -->
<g id="Node000016" class="node">
<title>Node16</title>
<g id="a_Node000016"><a xlink:href="../../d2/d57/namespace_slic3r_1_1sla.html#afc84d5da9eaf6307c3348c9319960576" target="_top" xlink:title=" ">
<polygon fill="white" stroke="#666666" points="622.75,-528.88 488.25,-528.88 488.25,-509.62 622.75,-509.62 622.75,-528.88"/>
<text text-anchor="middle" x="555.5" y="-515.38" font-family="Helvetica,sans-Serif" font-size="10.00">Slic3r::sla::beam_mesh_hit</text>
</a>
</g>
</g>
<!-- Node2&#45;&gt;Node16 -->
<g id="edge15_Node000002_Node000016" class="edge">
<title>Node2&#45;&gt;Node16</title>
<g id="a_edge15_Node000002_Node000016"><a xlink:title=" ">
<path fill="none" stroke="#63b8ff" d="M227.78,-338.84C237.57,-370.4 264.28,-441.76 314,-476.25 361.49,-509.19 426.55,-519.25 477.03,-521.45"/>
<polygon fill="#63b8ff" stroke="#63b8ff" points="476.79,-524.98 486.9,-521.81 477.02,-517.98 476.79,-524.98"/>
</a>
</g>
</g>
<!-- Node18 -->
<g id="Node000018" class="node">
<title>Node18</title>
<g id="a_Node000018"><a xlink:href="../../df/dd5/class_slic3r_1_1_a_a_b_b_mesh_1_1hit__result.html#aa98800f1b55092e72082d0582c88543e" target="_top" xlink:title=" ">
<polygon fill="white" stroke="#666666" points="612.62,-491.5 498.38,-491.5 498.38,-461 612.62,-461 612.62,-491.5"/>
<text text-anchor="start" x="506.38" y="-478" font-family="Helvetica,sans-Serif" font-size="10.00">Slic3r::AABBMesh::hit</text>
<text text-anchor="middle" x="555.5" y="-466.75" font-family="Helvetica,sans-Serif" font-size="10.00">_result::distance</text>
</a>
</g>
</g>
<!-- Node2&#45;&gt;Node18 -->
<g id="edge17_Node000002_Node000018" class="edge">
<title>Node2&#45;&gt;Node18</title>
<g id="a_edge17_Node000002_Node000018"><a xlink:title=" ">
<path fill="none" stroke="#63b8ff" d="M229.91,-338.76C242.08,-365.56 270.98,-420.04 314,-445.25 366.45,-475.99 436.25,-481.91 487.14,-481.23"/>
<polygon fill="#63b8ff" stroke="#63b8ff" points="487.11,-484.71 497.02,-480.99 486.95,-477.72 487.11,-484.71"/>
</a>
</g>
</g>
<!-- Node19 -->
<g id="Node000019" class="node">
<title>Node19</title>
<g id="a_Node000019"><a xlink:href="../../d2/d57/namespace_slic3r_1_1sla.html#ab41efd0a7605e561ab59549056b570c3" target="_top" xlink:title=" ">
<polygon fill="white" stroke="#666666" points="602.88,-442.5 508.12,-442.5 508.12,-412 602.88,-412 602.88,-442.5"/>
<text text-anchor="start" x="516.12" y="-429" font-family="Helvetica,sans-Serif" font-size="10.00">Slic3r::sla::ground</text>
<text text-anchor="middle" x="555.5" y="-417.75" font-family="Helvetica,sans-Serif" font-size="10.00">_level</text>
</a>
</g>
</g>
<!-- Node2&#45;&gt;Node19 -->
<g id="edge18_Node000002_Node000019" class="edge">
<title>Node2&#45;&gt;Node19</title>
<g id="a_edge18_Node000002_Node000019"><a xlink:title=" ">
<path fill="none" stroke="#63b8ff" d="M232.08,-338.73C245.98,-361.67 275.57,-403.87 314,-421.25 372.15,-447.55 446.55,-444.59 497.1,-437.93"/>
<polygon fill="#63b8ff" stroke="#63b8ff" points="497.41,-441.28 506.82,-436.42 496.43,-434.35 497.41,-441.28"/>
</a>
</g>
</g>
<!-- Node20 -->
<g id="Node000020" class="node">
<title>Node20</title>
<g id="a_Node000020"><a xlink:href="../../d2/d57/namespace_slic3r_1_1sla.html#a08ccc3842e4be90b8093f4f4b00907be" target="_top" xlink:title=" ">
<polygon fill="white" stroke="#666666" points="430.5,-626.5 335.75,-626.5 335.75,-596 430.5,-596 430.5,-626.5"/>
<text text-anchor="start" x="343.75" y="-613" font-family="Helvetica,sans-Serif" font-size="10.00">Slic3r::sla::search</text>
<text text-anchor="middle" x="383.12" y="-601.75" font-family="Helvetica,sans-Serif" font-size="10.00">_widening_path</text>
</a>
</g>
</g>
<!-- Node2&#45;&gt;Node20 -->
<g id="edge20_Node000002_Node000020" class="edge">
<title>Node2&#45;&gt;Node20</title>
<g id="a_edge20_Node000002_Node000020"><a xlink:title=" ">
<path fill="none" stroke="#63b8ff" d="M228.36,-338.99C240.14,-374.92 271.85,-465.08 314,-532.25 326.75,-552.57 344.55,-573.02 358.75,-588.01"/>
<polygon fill="#63b8ff" stroke="#63b8ff" points="355.76,-589.99 365.22,-594.75 360.79,-585.12 355.76,-589.99"/>
</a>
</g>
</g>
<!-- Node31 -->
<g id="Node000031" class="node">
<title>Node31</title>
<g id="a_Node000031"><a xlink:href="../../d7/dfa/class_slic3r_1_1_a_a_b_b_mesh.html#a14f7bf09cf7ae804fb42141840f94b63" target="_top" xlink:title=" ">
<polygon fill="white" stroke="#666666" points="452.25,-265.5 314,-265.5 314,-235 452.25,-235 452.25,-265.5"/>
<text text-anchor="start" x="322" y="-252" font-family="Helvetica,sans-Serif" font-size="10.00">Slic3r::AABBMesh::squared</text>
<text text-anchor="middle" x="383.12" y="-240.75" font-family="Helvetica,sans-Serif" font-size="10.00">_distance</text>
</a>
</g>
</g>
<!-- Node2&#45;&gt;Node31 -->
<g id="edge36_Node000002_Node000031" class="edge">
<title>Node2&#45;&gt;Node31</title>
<g id="a_edge36_Node000002_Node000031"><a xlink:title=" ">
<path fill="none" stroke="#63b8ff" d="M250.66,-307.56C268.4,-297.66 292.21,-284.97 314,-275.25 318.08,-273.43 322.33,-271.64 326.64,-269.9"/>
<polygon fill="#63b8ff" stroke="#63b8ff" points="327.68,-272.85 335.71,-265.94 325.12,-266.34 327.68,-272.85"/>
</a>
</g>
</g>
<!-- Node4 -->
<g id="Node000004" class="node">
<title>Node4</title>
<g id="a_Node000004"><a xlink:href="../../d9/d07/class_slic3r_1_1sla_1_1_support_tree_builder.html#a85abdb4dc0129aec49ef9bf12ce1de43" target="_top" xlink:title=" ">
<polygon fill="white" stroke="#666666" points="614.88,-338.5 496.12,-338.5 496.12,-308 614.88,-308 614.88,-338.5"/>
<text text-anchor="start" x="504.12" y="-325" font-family="Helvetica,sans-Serif" font-size="10.00">Slic3r::sla::SupportTree</text>
<text text-anchor="middle" x="555.5" y="-313.75" font-family="Helvetica,sans-Serif" font-size="10.00">Builder::_add_bridge</text>
</a>
</g>
</g>
<!-- Node3&#45;&gt;Node4 -->
<g id="edge3_Node000003_Node000004" class="edge">
<title>Node3&#45;&gt;Node4</title>
<g id="a_edge3_Node000003_Node000004"><a xlink:title=" ">
<path fill="none" stroke="#63b8ff" d="M442.76,-307.51C456.41,-309.43 471.08,-311.5 485.14,-313.48"/>
<polygon fill="#63b8ff" stroke="#63b8ff" points="484.37,-317.05 494.76,-314.98 485.34,-310.11 484.37,-317.05"/>
</a>
</g>
</g>
<!-- Node5&#45;&gt;Node4 -->
<g id="edge5_Node000005_Node000004" class="edge">
<title>Node5&#45;&gt;Node4</title>
<g id="a_edge5_Node000005_Node000004"><a xlink:title=" ">
<path fill="none" stroke="#63b8ff" d="M442.76,-339.65C456.41,-337.64 471.08,-335.49 485.14,-333.43"/>
<polygon fill="#63b8ff" stroke="#63b8ff" points="485.37,-336.78 494.76,-331.87 484.36,-329.86 485.37,-336.78"/>
</a>
</g>
</g>
<!-- Node7&#45;&gt;Node8 -->
<g id="edge8_Node000007_Node000008" class="edge">
<title>Node7&#45;&gt;Node8</title>
<g id="a_edge8_Node000007_Node000008"><a xlink:title=" ">
<path fill="none" stroke="#63b8ff" d="M423.09,-130.89C442.6,-138.64 466.62,-148.08 488.25,-156.25 492.19,-157.74 496.27,-159.26 500.39,-160.78"/>
<polygon fill="#63b8ff" stroke="#63b8ff" points="499.01,-164.38 509.6,-164.54 501.43,-157.81 499.01,-164.38"/>
</a>
</g>
</g>
<!-- Node9 -->
<g id="Node000009" class="node">
<title>Node9</title>
<g id="a_Node000009"><a xlink:href="../../d0/d03/struct_slic3r_1_1sla_1_1_head.html#a520e3ac5a258ff6c79e31b2fdb13e52c" target="_top" xlink:title=" ">
<polygon fill="white" stroke="#666666" points="602.88,-109.5 508.12,-109.5 508.12,-79 602.88,-79 602.88,-109.5"/>
<text text-anchor="start" x="516.12" y="-96" font-family="Helvetica,sans-Serif" font-size="10.00">Slic3r::sla::Head::</text>
<text text-anchor="middle" x="555.5" y="-84.75" font-family="Helvetica,sans-Serif" font-size="10.00">junction_point</text>
</a>
</g>
</g>
<!-- Node7&#45;&gt;Node9 -->
<g id="edge9_Node000007_Node000009" class="edge">
<title>Node7&#45;&gt;Node9</title>
<g id="a_edge9_Node000007_Node000009"><a xlink:title=" ">
<path fill="none" stroke="#63b8ff" d="M442.76,-108.02C460.37,-105.85 479.67,-103.47 497.2,-101.31"/>
<polygon fill="#63b8ff" stroke="#63b8ff" points="497.36,-104.7 506.86,-100 496.5,-97.75 497.36,-104.7"/>
</a>
</g>
</g>
<!-- Node13 -->
<g id="Node000013" class="node">
<title>Node13</title>
<g id="a_Node000013"><a xlink:href="../../de/db8/namespace_slic3r.html#a1eea52f5cabe9f6172fcec07fb0fed76" target="_top" xlink:title=" ">
<polygon fill="white" stroke="#666666" points="592,-146.88 519,-146.88 519,-127.62 592,-127.62 592,-146.88"/>
<text text-anchor="middle" x="555.5" y="-133.38" font-family="Helvetica,sans-Serif" font-size="10.00">Slic3r::length</text>
</a>
</g>
</g>
<!-- Node7&#45;&gt;Node13 -->
<g id="edge12_Node000007_Node000013" class="edge">
<title>Node7&#45;&gt;Node13</title>
<g id="a_edge12_Node000007_Node000013"><a xlink:title=" ">
<path fill="none" stroke="#63b8ff" d="M442.76,-122.82C464.04,-125.57 487.77,-128.63 507.88,-131.23"/>
<polygon fill="#63b8ff" stroke="#63b8ff" points="507.27,-134.81 517.63,-132.62 508.16,-127.87 507.27,-134.81"/>
</a>
</g>
</g>
<!-- Node7&#45;&gt;Node14 -->
<g id="edge13_Node000007_Node000014" class="edge">
<title>Node7&#45;&gt;Node14</title>
<g id="a_edge13_Node000007_Node000014"><a xlink:title=" ">
<path fill="none" stroke="#63b8ff" d="M419.14,-99.63C439.26,-90.78 465.06,-79.63 488.25,-70.25 492.66,-68.46 497.26,-66.65 501.88,-64.85"/>
<polygon fill="#63b8ff" stroke="#63b8ff" points="502.9,-67.82 510.97,-60.96 500.38,-61.29 502.9,-67.82"/>
</a>
</g>
</g>
<!-- Node10 -->
<g id="Node000010" class="node">
<title>Node10</title>
<g id="a_Node000010"><a xlink:href="../../d0/d03/struct_slic3r_1_1sla_1_1_head.html#a2b836ece0fc37e95e409c5a326ea86dd" target="_top" xlink:title=" ">
<polygon fill="white" stroke="#666666" points="770,-109.5 675.25,-109.5 675.25,-79 770,-79 770,-109.5"/>
<text text-anchor="start" x="683.25" y="-96" font-family="Helvetica,sans-Serif" font-size="10.00">Slic3r::sla::Head::</text>
<text text-anchor="middle" x="722.62" y="-84.75" font-family="Helvetica,sans-Serif" font-size="10.00">junction</text>
</a>
</g>
</g>
<!-- Node9&#45;&gt;Node10 -->
<g id="edge10_Node000009_Node000010" class="edge">
<title>Node9&#45;&gt;Node10</title>
<g id="a_edge10_Node000009_Node000010"><a xlink:title=" ">
<path fill="none" stroke="#63b8ff" d="M602.94,-94.25C621.93,-94.25 644.1,-94.25 664.11,-94.25"/>
<polygon fill="#63b8ff" stroke="#63b8ff" points="663.97,-97.75 673.97,-94.25 663.97,-90.75 663.97,-97.75"/>
</a>
</g>
</g>
<!-- Node11 -->
<g id="Node000011" class="node">
<title>Node11</title>
<g id="a_Node000011"><a xlink:href="../../d0/d03/struct_slic3r_1_1sla_1_1_head.html#a3d1a6e924b6dc9283be38577380cbbcb" target="_top" xlink:title=" ">
<polygon fill="#fff0f0" stroke="red" points="917.25,-109.5 822.5,-109.5 822.5,-79 917.25,-79 917.25,-109.5"/>
<text text-anchor="start" x="830.5" y="-96" font-family="Helvetica,sans-Serif" font-size="10.00">Slic3r::sla::Head::</text>
<text text-anchor="middle" x="869.88" y="-84.75" font-family="Helvetica,sans-Serif" font-size="10.00">fullwidth</text>
</a>
</g>
</g>
<!-- Node10&#45;&gt;Node11 -->
<g id="edge11_Node000010_Node000011" class="edge">
<title>Node10&#45;&gt;Node11</title>
<g id="a_edge11_Node000010_Node000011"><a xlink:title=" ">
<path fill="none" stroke="#63b8ff" d="M770.38,-94.25C783.47,-94.25 797.85,-94.25 811.48,-94.25"/>
<polygon fill="#63b8ff" stroke="#63b8ff" points="811.21,-97.75 821.21,-94.25 811.21,-90.75 811.21,-97.75"/>
</a>
</g>
</g>
<!-- Node17 -->
<g id="Node000017" class="node">
<title>Node17</title>
<g id="a_Node000017"><a xlink:href="../../dd/d43/namespace_slic3r_1_1execution.html#a7707f5e49d8a4e2e9fce66b91a5c1488" target="_top" xlink:title=" ">
<polygon fill="white" stroke="#666666" points="770,-626.5 675.25,-626.5 675.25,-596 770,-596 770,-626.5"/>
<text text-anchor="start" x="683.25" y="-613" font-family="Helvetica,sans-Serif" font-size="10.00">Slic3r::execution::</text>
<text text-anchor="middle" x="722.62" y="-601.75" font-family="Helvetica,sans-Serif" font-size="10.00">for_each</text>
</a>
</g>
</g>
<!-- Node16&#45;&gt;Node17 -->
<g id="edge16_Node000016_Node000017" class="edge">
<title>Node16&#45;&gt;Node17</title>
<g id="a_edge16_Node000016_Node000017"><a xlink:title=" ">
<path fill="none" stroke="#63b8ff" d="M600.1,-529.35C607.83,-531.81 615.67,-534.76 622.75,-538.25 649.97,-551.66 677.46,-572.7 696.52,-588.75"/>
<polygon fill="#63b8ff" stroke="#63b8ff" points="693.79,-591.88 703.66,-595.73 698.35,-586.56 693.79,-591.88"/>
</a>
</g>
</g>
<!-- Node20&#45;&gt;Node16 -->
<g id="edge21_Node000020_Node000016" class="edge">
<title>Node20&#45;&gt;Node16</title>
<g id="a_edge21_Node000020_Node000016"><a xlink:title=" ">
<path fill="none" stroke="#63b8ff" d="M402.14,-595.79C422.03,-579.42 455.58,-553.85 488.25,-538.25 492.5,-536.22 497,-534.37 501.58,-532.69"/>
<polygon fill="#63b8ff" stroke="#63b8ff" points="502.32,-535.79 510.67,-529.27 500.08,-529.16 502.32,-535.79"/>
</a>
</g>
</g>
<!-- Node20&#45;&gt;Node18 -->
<g id="edge22_Node000020_Node000018" class="edge">
<title>Node20&#45;&gt;Node18</title>
<g id="a_edge22_Node000020_Node000018"><a xlink:title=" ">
<path fill="none" stroke="#63b8ff" d="M394.85,-595.81C412.01,-572.14 447.87,-526.85 488.25,-500.25 490.01,-499.09 491.84,-497.98 493.71,-496.91"/>
<polygon fill="#63b8ff" stroke="#63b8ff" points="495.08,-499.63 502.39,-491.95 491.89,-493.4 495.08,-499.63"/>
</a>
</g>
</g>
<!-- Node20&#45;&gt;Node19 -->
<g id="edge26_Node000020_Node000019" class="edge">
<title>Node20&#45;&gt;Node19</title>
<g id="a_edge26_Node000020_Node000019"><a xlink:title=" ">
<path fill="none" stroke="#63b8ff" d="M390.29,-595.81C403.56,-564.42 437.8,-492.71 488.25,-452.25 491.36,-449.76 494.74,-447.5 498.28,-445.45"/>
<polygon fill="#63b8ff" stroke="#63b8ff" points="499.62,-448.18 506.93,-440.5 496.43,-441.95 499.62,-448.18"/>
</a>
</g>
</g>
<!-- Node21 -->
<g id="Node000021" class="node">
<title>Node21</title>
<g id="a_Node000021"><a xlink:href="../../d2/d57/namespace_slic3r_1_1sla.html#ac95d11abfe682f14a45bf0aaa9f022fa" target="_top" xlink:title=" ">
<polygon fill="white" stroke="#666666" points="612.25,-816.88 498.75,-816.88 498.75,-797.62 612.25,-797.62 612.25,-816.88"/>
<text text-anchor="middle" x="555.5" y="-803.38" font-family="Helvetica,sans-Serif" font-size="10.00">Slic3r::sla::get_criteria</text>
</a>
</g>
</g>
<!-- Node20&#45;&gt;Node21 -->
<g id="edge23_Node000020_Node000021" class="edge">
<title>Node20&#45;&gt;Node21</title>
<g id="a_edge23_Node000020_Node000021"><a xlink:title=" ">
<path fill="none" stroke="#63b8ff" d="M388.89,-626.94C400.2,-661.53 432.02,-744.69 488.25,-788.25 490.17,-789.74 492.2,-791.11 494.32,-792.38"/>
<polygon fill="#63b8ff" stroke="#63b8ff" points="492.53,-795.89 503.03,-797.26 495.67,-789.64 492.53,-795.89"/>
</a>
</g>
</g>
<!-- Node24 -->
<g id="Node000024" class="node">
<title>Node24</title>
<g id="a_Node000024"><a xlink:href="../../d8/d33/lexer_8c.html#a171692544b8e065853e387755849a433" target="_top" xlink:title=" ">
<polygon fill="white" stroke="#666666" points="574,-712.88 537,-712.88 537,-693.62 574,-693.62 574,-712.88"/>
<text text-anchor="middle" x="555.5" y="-699.38" font-family="Helvetica,sans-Serif" font-size="10.00">input</text>
</a>
</g>
</g>
<!-- Node20&#45;&gt;Node24 -->
<g id="edge27_Node000020_Node000024" class="edge">
<title>Node20&#45;&gt;Node24</title>
<g id="a_edge27_Node000020_Node000024"><a xlink:title=" ">
<path fill="none" stroke="#63b8ff" d="M402.14,-626.71C422.03,-643.08 455.58,-668.65 488.25,-684.25 500.24,-689.97 514.29,-694.3 526.36,-697.38"/>
<polygon fill="#63b8ff" stroke="#63b8ff" points="525.23,-700.94 535.77,-699.85 526.84,-694.13 525.23,-700.94"/>
</a>
</g>
</g>
<!-- Node25 -->
<g id="Node000025" class="node">
<title>Node25</title>
<g id="a_Node000025"><a xlink:href="../../d6/daf/class_slic3r_1_1opt_1_1_optimizer.html#ada8931ab7db58d68bf772c44d87e8406" target="_top" xlink:title=" ">
<polygon fill="white" stroke="#666666" points="609.62,-675.5 501.38,-675.5 501.38,-645 609.62,-645 609.62,-675.5"/>
<text text-anchor="start" x="509.38" y="-662" font-family="Helvetica,sans-Serif" font-size="10.00">Slic3r::opt::Optimizer</text>
<text text-anchor="middle" x="555.5" y="-650.75" font-family="Helvetica,sans-Serif" font-size="10.00">::optimize</text>
</a>
</g>
</g>
<!-- Node20&#45;&gt;Node25 -->
<g id="edge28_Node000020_Node000025" class="edge">
<title>Node20&#45;&gt;Node25</title>
<g id="a_edge28_Node000020_Node000025"><a xlink:title=" ">
<path fill="none" stroke="#63b8ff" d="M430.68,-624.64C449.14,-629.95 470.66,-636.14 490.54,-641.86"/>
<polygon fill="#63b8ff" stroke="#63b8ff" points="489.5,-645.48 500.07,-644.88 491.43,-638.76 489.5,-645.48"/>
</a>
</g>
</g>
<!-- Node26 -->
<g id="Node000026" class="node">
<title>Node26</title>
<g id="a_Node000026"><a xlink:href="../../d2/d57/namespace_slic3r_1_1sla.html#a48092cd44b8cd79b6bc40714986c1e08" target="_top" xlink:title=" ">
<polygon fill="white" stroke="#666666" points="605.12,-761.5 505.88,-761.5 505.88,-731 605.12,-731 605.12,-761.5"/>
<text text-anchor="start" x="513.88" y="-748" font-family="Helvetica,sans-Serif" font-size="10.00">Slic3r::sla::pinhead</text>
<text text-anchor="middle" x="555.5" y="-736.75" font-family="Helvetica,sans-Serif" font-size="10.00">_mesh_hit</text>
</a>
</g>
</g>
<!-- Node20&#45;&gt;Node26 -->
<g id="edge29_Node000020_Node000026" class="edge">
<title>Node20&#45;&gt;Node26</title>
<g id="a_edge29_Node000020_Node000026"><a xlink:title=" ">
<path fill="none" stroke="#63b8ff" d="M394.85,-626.69C412.01,-650.36 447.87,-695.65 488.25,-722.25 490.66,-723.84 493.18,-725.33 495.78,-726.74"/>
<polygon fill="#63b8ff" stroke="#63b8ff" points="493.94,-730.23 504.46,-731.48 497.02,-723.94 493.94,-730.23"/>
</a>
</g>
</g>
<!-- Node28 -->
<g id="Node000028" class="node">
<title>Node28</title>
<g id="a_Node000028"><a xlink:href="../../d4/df4/struct_slic3r_1_1sla_1_1_support_tree_config.html#a6651fd9cef9b73540f33d9a91e5b8c6a" target="_top" xlink:title=" ">
<polygon fill="white" stroke="#666666" points="615.25,-626.5 495.75,-626.5 495.75,-596 615.25,-596 615.25,-626.5"/>
<text text-anchor="start" x="503.75" y="-613" font-family="Helvetica,sans-Serif" font-size="10.00">Slic3r::sla::SupportTree</text>
<text text-anchor="middle" x="555.5" y="-601.75" font-family="Helvetica,sans-Serif" font-size="10.00">Config::safety_distance</text>
</a>
</g>
</g>
<!-- Node20&#45;&gt;Node28 -->
<g id="edge33_Node000020_Node000028" class="edge">
<title>Node20&#45;&gt;Node28</title>
<g id="a_edge33_Node000020_Node000028"><a xlink:title=" ">
<path fill="none" stroke="#63b8ff" d="M430.68,-611.25C447.32,-611.25 466.46,-611.25 484.63,-611.25"/>
<polygon fill="#63b8ff" stroke="#63b8ff" points="484.49,-614.75 494.49,-611.25 484.49,-607.75 484.49,-614.75"/>
</a>
</g>
</g>
<!-- Node29 -->
<g id="Node000029" class="node">
<title>Node29</title>
<g id="a_Node000029"><a xlink:href="../../dd/d8d/class_slic3r_1_1opt_1_1_stop_criteria.html#a4afd9089732fc796aa927360cd794a79" target="_top" xlink:title=" ">
<polygon fill="white" stroke="#666666" points="614.5,-577.5 496.5,-577.5 496.5,-547 614.5,-547 614.5,-577.5"/>
<text text-anchor="start" x="504.5" y="-564" font-family="Helvetica,sans-Serif" font-size="10.00">Slic3r::opt::StopCriteria</text>
<text text-anchor="middle" x="555.5" y="-552.75" font-family="Helvetica,sans-Serif" font-size="10.00">::stop_score</text>
</a>
</g>
</g>
<!-- Node20&#45;&gt;Node29 -->
<g id="edge34_Node000020_Node000029" class="edge">
<title>Node20&#45;&gt;Node29</title>
<g id="a_edge34_Node000020_Node000029"><a xlink:title=" ">
<path fill="none" stroke="#63b8ff" d="M430.68,-597.86C448.8,-592.65 469.89,-586.59 489.46,-580.95"/>
<polygon fill="#63b8ff" stroke="#63b8ff" points="490.2,-584.1 498.85,-577.97 488.27,-577.37 490.2,-584.1"/>
</a>
</g>
</g>
<!-- Node30 -->
<g id="Node000030" class="node">
<title>Node30</title>
<g id="a_Node000030"><a xlink:href="../../d6/daf/class_slic3r_1_1opt_1_1_optimizer.html#a7264acbacdeb9a427b742d80e8be4745" target="_top" xlink:title=" ">
<polygon fill="white" stroke="#666666" points="609.62,-865.5 501.38,-865.5 501.38,-835 609.62,-835 609.62,-865.5"/>
<text text-anchor="start" x="509.38" y="-852" font-family="Helvetica,sans-Serif" font-size="10.00">Slic3r::opt::Optimizer</text>
<text text-anchor="middle" x="555.5" y="-840.75" font-family="Helvetica,sans-Serif" font-size="10.00">::to_max</text>
</a>
</g>
</g>
<!-- Node20&#45;&gt;Node30 -->
<g id="edge35_Node000020_Node000030" class="edge">
<title>Node20&#45;&gt;Node30</title>
<g id="a_edge35_Node000020_Node000030"><a xlink:title=" ">
<path fill="none" stroke="#63b8ff" d="M387.42,-626.96C396.46,-666.2 425.26,-769.46 488.25,-826.25 489.44,-827.33 490.69,-828.35 491.97,-829.34"/>
<polygon fill="#63b8ff" stroke="#63b8ff" points="489.72,-832.69 500.01,-835.19 493.52,-826.82 489.72,-832.69"/>
</a>
</g>
</g>
<!-- Node22 -->
<g id="Node000022" class="node">
<title>Node22</title>
<g id="a_Node000022"><a xlink:href="../../dd/d8d/class_slic3r_1_1opt_1_1_stop_criteria.html#a936668044f177fa2a7724d2f0b0ee33d" target="_top" xlink:title=" ">
<polygon fill="white" stroke="#666666" points="781.62,-813.5 663.62,-813.5 663.62,-783 781.62,-783 781.62,-813.5"/>
<text text-anchor="start" x="671.62" y="-800" font-family="Helvetica,sans-Serif" font-size="10.00">Slic3r::opt::StopCriteria</text>
<text text-anchor="middle" x="722.62" y="-788.75" font-family="Helvetica,sans-Serif" font-size="10.00">::max_iterations</text>
</a>
</g>
</g>
<!-- Node21&#45;&gt;Node22 -->
<g id="edge24_Node000021_Node000022" class="edge">
<title>Node21&#45;&gt;Node22</title>
<g id="a_edge24_Node000021_Node000022"><a xlink:title=" ">
<path fill="none" stroke="#63b8ff" d="M612.4,-804.2C625.32,-803.5 639.22,-802.74 652.62,-802.01"/>
<polygon fill="#63b8ff" stroke="#63b8ff" points="652.45,-805.47 662.24,-801.43 652.07,-798.48 652.45,-805.47"/>
</a>
</g>
</g>
<!-- Node23 -->
<g id="Node000023" class="node">
<title>Node23</title>
<g id="a_Node000023"><a xlink:href="../../dd/d8d/class_slic3r_1_1opt_1_1_stop_criteria.html#a032f9b64a065ca0d233df272b5a92550" target="_top" xlink:title=" ">
<polygon fill="white" stroke="#666666" points="781.62,-862.5 663.62,-862.5 663.62,-832 781.62,-832 781.62,-862.5"/>
<text text-anchor="start" x="671.62" y="-849" font-family="Helvetica,sans-Serif" font-size="10.00">Slic3r::opt::StopCriteria</text>
<text text-anchor="middle" x="722.62" y="-837.75" font-family="Helvetica,sans-Serif" font-size="10.00">::rel_score_diff</text>
</a>
</g>
</g>
<!-- Node21&#45;&gt;Node23 -->
<g id="edge25_Node000021_Node000023" class="edge">
<title>Node21&#45;&gt;Node23</title>
<g id="a_edge25_Node000021_Node000023"><a xlink:title=" ">
<path fill="none" stroke="#63b8ff" d="M598.17,-817.34C614.7,-821.35 634.15,-826.06 652.67,-830.55"/>
<polygon fill="#63b8ff" stroke="#63b8ff" points="651.59,-834.13 662.13,-833.08 653.24,-827.32 651.59,-834.13"/>
</a>
</g>
</g>
<!-- Node26&#45;&gt;Node17 -->
<g id="edge30_Node000026_Node000017" class="edge">
<title>Node26&#45;&gt;Node17</title>
<g id="a_edge30_Node000026_Node000017"><a xlink:title=" ">
<path fill="none" stroke="#63b8ff" d="M605.28,-731.77C611.4,-729.04 617.38,-725.89 622.75,-722.25 657.42,-698.77 687.87,-660.45 705.51,-635.55"/>
<polygon fill="#63b8ff" stroke="#63b8ff" points="708.81,-637.93 711.63,-627.72 703.06,-633.95 708.81,-637.93"/>
</a>
</g>
</g>
<!-- Node26&#45;&gt;Node26 -->
<g id="edge32_Node000026_Node000026" class="edge">
<title>Node26&#45;&gt;Node26</title>
<g id="a_edge32_Node000026_Node000026"><a xlink:title=" ">
<path fill="none" stroke="#63b8ff" d="M525.89,-761.99C519.84,-771.06 529.71,-779.5 555.5,-779.5 570.01,-779.5 579.47,-776.83 583.91,-772.88"/>
<polygon fill="#63b8ff" stroke="#63b8ff" points="587.49,-773.31 585.11,-762.99 580.53,-772.54 587.49,-773.31"/>
</a>
</g>
</g>
<!-- Node27 -->
<g id="Node000027" class="node">
<title>Node27</title>
<g id="a_Node000027"><a xlink:href="../../d6/d96/class_slic3r_1_1sla_1_1_point_ring.html#a3d017efccd017ca0f9ef256f9f5881fa" target="_top" xlink:title=" ">
<polygon fill="white" stroke="#666666" points="786.5,-755.88 658.75,-755.88 658.75,-736.62 786.5,-736.62 786.5,-755.88"/>
<text text-anchor="middle" x="722.62" y="-742.38" font-family="Helvetica,sans-Serif" font-size="10.00">Slic3r::sla::PointRing::get</text>
</a>
</g>
</g>
<!-- Node26&#45;&gt;Node27 -->
<g id="edge31_Node000026_Node000027" class="edge">
<title>Node26&#45;&gt;Node27</title>
<g id="a_edge31_Node000026_Node000027"><a xlink:title=" ">
<path fill="none" stroke="#63b8ff" d="M605.6,-746.25C618.78,-746.25 633.33,-746.25 647.54,-746.25"/>
<polygon fill="#63b8ff" stroke="#63b8ff" points="647.32,-749.75 657.32,-746.25 647.32,-742.75 647.32,-749.75"/>
</a>
</g>
</g>
<!-- Node33 -->
<g id="Node000033" class="node">
<title>Node33</title>
<g id="a_Node000033"><a xlink:href="../../d0/d24/class_slic3r_1_1sla_1_1_point_index.html#a07074a50cba152bffe7b80dab2d52982" target="_top" xlink:title=" ">
<polygon fill="white" stroke="#666666" points="439.12,-30.5 327.12,-30.5 327.12,0 439.12,0 439.12,-30.5"/>
<text text-anchor="start" x="335.12" y="-17" font-family="Helvetica,sans-Serif" font-size="10.00">Slic3r::sla::PointIndex</text>
<text text-anchor="middle" x="383.12" y="-5.75" font-family="Helvetica,sans-Serif" font-size="10.00">::insert</text>
</a>
</g>
</g>
<!-- Node32&#45;&gt;Node33 -->
<g id="edge38_Node000032_Node000033" class="edge">
<title>Node32&#45;&gt;Node33</title>
<g id="a_edge38_Node000032_Node000033"><a xlink:title=" ">
<path fill="none" stroke="#63b8ff" d="M278.45,-15.25C290.57,-15.25 303.53,-15.25 316.04,-15.25"/>
<polygon fill="#63b8ff" stroke="#63b8ff" points="315.88,-18.75 325.88,-15.25 315.88,-11.75 315.88,-18.75"/>
</a>
</g>
</g>
</g>
</svg>

<g id="navigator" transform="translate(0 0)" fill="#404254">
  <rect fill="#f2f5e9" fill-opacity="0.5" stroke="#606060" stroke-width=".5" x="0" y="0" width="60" height="60"/>
  <use id="zoomplus" xlink:href="#zoomPlus" x="17" y="9" onmousedown="handleZoom(evt,'in')"/>
  <use id="zoomminus" xlink:href="#zoomMin" x="42" y="9" onmousedown="handleZoom(evt,'out')"/>
  <use id="reset" xlink:href="#resetDef" x="30" y="36" onmousedown="handleReset()"/>
   <use id="arrowup" xlink:href="#arrowUp" x="0" y="0" onmousedown="handlePan(0,-1)"/>
  <use id="arrowright" xlink:href="#arrowRight" x="0" y="0" onmousedown="handlePan(1,0)"/>
  <use id="arrowdown" xlink:href="#arrowDown" x="0" y="0" onmousedown="handlePan(0,1)"/>
  <use id="arrowleft" xlink:href="#arrowLeft" x="0" y="0" onmousedown="handlePan(-1,0)"/>
</g>
<svg viewBox="0 0 15 15" width="100%" height="30px" preserveAspectRatio="xMaxYMin meet">
 <g id="arrow_out" transform="scale(0.3 0.3)">
  <a xlink:href="class_slic3r_1_1sla_1_1_default_support_tree_a72da80ed50f099c60976f7e9d9a2d3a4_cgraph_org.svg" target="_base">
   <rect id="button" ry="5" rx="5" y="6" x="6" height="38" width="38"
        fill="#f2f5e9" fill-opacity="0.5" stroke="#606060" stroke-width="1.0"/>
   <path id="arrow"
     d="M 11.500037,31.436501 C 11.940474,20.09759 22.043105,11.32322 32.158766,21.979434 L 37.068811,17.246167 C 37.068811,17.246167 37.088388,32 37.088388,32 L 22.160133,31.978069 C 22.160133,31.978069 26.997745,27.140456 26.997745,27.140456 C 18.528582,18.264221 13.291696,25.230495 11.500037,31.436501 z"
     style="fill:#404040;"/>
  </a>
 </g>
</svg>

<style type='text/css'>
<![CDATA[
[data-mouse-over-selected='false'] { opacity: 0.7; }
[data-mouse-over-selected='true']  { opacity: 1.0; }
]]>
</style>
<script type="application/ecmascript"><![CDATA[
document.addEventListener('DOMContentLoaded', (event) => {
  highlightEdges();
  highlightAdjacentNodes();
});
]]></script>
</svg>
