<?xml version="1.0" encoding="UTF-8" standalone="no"?>
<!DOCTYPE svg PUBLIC "-//W3C//DTD SVG 1.1//EN"
 "http://www.w3.org/Graphics/SVG/1.1/DTD/svg11.dtd">
<!-- Generated by graphviz version 8.0.5 (20230430.1635)
 -->
<!-- Title: igl::matlab::prepare_lhs_index Pages: 1 -->
<svg width="543pt" height="88pt"
 viewBox="0.00 0.00 543.00 87.50" xmlns="http://www.w3.org/2000/svg" xmlns:xlink="http://www.w3.org/1999/xlink">
<g id="graph0" class="graph" transform="scale(1 1) rotate(0) translate(4 83.5)">
<title>igl::matlab::prepare_lhs_index</title>
<!-- Node1 -->
<g id="Node000001" class="node">
<title>Node1</title>
<g id="a_Node000001"><a xlink:title=" ">
<polygon fill="#999999" stroke="#666666" points="99.25,-54.5 0,-54.5 0,-24 99.25,-24 99.25,-54.5"/>
<text text-anchor="start" x="8" y="-41" font-family="Helvetica,sans-Serif" font-size="10.00">igl::matlab::prepare</text>
<text text-anchor="middle" x="49.62" y="-29.75" font-family="Helvetica,sans-Serif" font-size="10.00">_lhs_index</text>
</a>
</g>
</g>
<!-- Node2 -->
<g id="Node000002" class="node">
<title>Node2</title>
<g id="a_Node000002"><a xlink:href="../../dd/da6/namespaceigl_1_1matlab.html#a4bca1def5e1c13e57cb27ae1043119c7" target="_top" xlink:title=" ">
<polygon fill="white" stroke="#666666" points="234.5,-54.5 135.25,-54.5 135.25,-24 234.5,-24 234.5,-54.5"/>
<text text-anchor="start" x="143.25" y="-41" font-family="Helvetica,sans-Serif" font-size="10.00">igl::matlab::prepare</text>
<text text-anchor="middle" x="184.88" y="-29.75" font-family="Helvetica,sans-Serif" font-size="10.00">_lhs_double</text>
</a>
</g>
</g>
<!-- Node1&#45;&gt;Node2 -->
<g id="edge1_Node000001_Node000002" class="edge">
<title>Node1&#45;&gt;Node2</title>
<g id="a_edge1_Node000001_Node000002"><a xlink:title=" ">
<path fill="none" stroke="#63b8ff" d="M99.49,-39.25C107.54,-39.25 115.97,-39.25 124.26,-39.25"/>
<polygon fill="#63b8ff" stroke="#63b8ff" points="124.02,-42.75 134.02,-39.25 124.02,-35.75 124.02,-42.75"/>
</a>
</g>
</g>
<!-- Node3 -->
<g id="Node000003" class="node">
<title>Node3</title>
<g id="a_Node000003"><a xlink:href="../../da/d8d/class_eigen_1_1_plain_object_base.html#a10b8b33b7587da564415561aa246f78f" target="_top" xlink:title=" ">
<polygon fill="white" stroke="#666666" points="390,-79.5 270.5,-79.5 270.5,-49 390,-49 390,-79.5"/>
<text text-anchor="start" x="278.5" y="-66" font-family="Helvetica,sans-Serif" font-size="10.00">Eigen::PlainObjectBase</text>
<text text-anchor="middle" x="330.25" y="-54.75" font-family="Helvetica,sans-Serif" font-size="10.00">::cols</text>
</a>
</g>
</g>
<!-- Node2&#45;&gt;Node3 -->
<g id="edge2_Node000002_Node000003" class="edge">
<title>Node2&#45;&gt;Node3</title>
<g id="a_edge2_Node000002_Node000003"><a xlink:title=" ">
<path fill="none" stroke="#63b8ff" d="M234.82,-47.78C242.71,-49.16 251.02,-50.61 259.3,-52.05"/>
<polygon fill="#63b8ff" stroke="#63b8ff" points="258.67,-55.67 269.12,-53.94 259.87,-48.77 258.67,-55.67"/>
</a>
</g>
</g>
<!-- Node5 -->
<g id="Node000005" class="node">
<title>Node5</title>
<g id="a_Node000005"><a xlink:href="../../da/d8d/class_eigen_1_1_plain_object_base.html#aba7a925ce36c08ba2a08c90086f34718" target="_top" xlink:title=" ">
<polygon fill="white" stroke="#666666" points="390,-30.5 270.5,-30.5 270.5,0 390,0 390,-30.5"/>
<text text-anchor="start" x="278.5" y="-17" font-family="Helvetica,sans-Serif" font-size="10.00">Eigen::PlainObjectBase</text>
<text text-anchor="middle" x="330.25" y="-5.75" font-family="Helvetica,sans-Serif" font-size="10.00">::rows</text>
</a>
</g>
</g>
<!-- Node2&#45;&gt;Node5 -->
<g id="edge4_Node000002_Node000005" class="edge">
<title>Node2&#45;&gt;Node5</title>
<g id="a_edge4_Node000002_Node000005"><a xlink:title=" ">
<path fill="none" stroke="#63b8ff" d="M234.82,-31.06C242.71,-29.74 251.02,-28.35 259.3,-26.96"/>
<polygon fill="#63b8ff" stroke="#63b8ff" points="259.84,-30.25 269.12,-25.15 258.68,-23.35 259.84,-30.25"/>
</a>
</g>
</g>
<!-- Node4 -->
<g id="Node000004" class="node">
<title>Node4</title>
<g id="a_Node000004"><a xlink:href="../../d5/d91/class_eigen_1_1_dense_storage.html#aef23781f9dc545e8b3f6b75d6c05d777" target="_top" xlink:title=" ">
<polygon fill="white" stroke="#666666" points="535,-79.5 426,-79.5 426,-49 535,-49 535,-79.5"/>
<text text-anchor="start" x="434" y="-66" font-family="Helvetica,sans-Serif" font-size="10.00">Eigen::DenseStorage</text>
<text text-anchor="middle" x="480.5" y="-54.75" font-family="Helvetica,sans-Serif" font-size="10.00">::cols</text>
</a>
</g>
</g>
<!-- Node3&#45;&gt;Node4 -->
<g id="edge3_Node000003_Node000004" class="edge">
<title>Node3&#45;&gt;Node4</title>
<g id="a_edge3_Node000003_Node000004"><a xlink:title=" ">
<path fill="none" stroke="#63b8ff" d="M390.27,-64.25C398.47,-64.25 406.92,-64.25 415.21,-64.25"/>
<polygon fill="#63b8ff" stroke="#63b8ff" points="414.97,-67.75 424.97,-64.25 414.97,-60.75 414.97,-67.75"/>
</a>
</g>
</g>
<!-- Node6 -->
<g id="Node000006" class="node">
<title>Node6</title>
<g id="a_Node000006"><a xlink:href="../../d5/d91/class_eigen_1_1_dense_storage.html#a14b68f709f5fb46eeebb203266cc29b2" target="_top" xlink:title=" ">
<polygon fill="white" stroke="#666666" points="535,-30.5 426,-30.5 426,0 535,0 535,-30.5"/>
<text text-anchor="start" x="434" y="-17" font-family="Helvetica,sans-Serif" font-size="10.00">Eigen::DenseStorage</text>
<text text-anchor="middle" x="480.5" y="-5.75" font-family="Helvetica,sans-Serif" font-size="10.00">::rows</text>
</a>
</g>
</g>
<!-- Node5&#45;&gt;Node6 -->
<g id="edge5_Node000005_Node000006" class="edge">
<title>Node5&#45;&gt;Node6</title>
<g id="a_edge5_Node000005_Node000006"><a xlink:title=" ">
<path fill="none" stroke="#63b8ff" d="M390.27,-15.25C398.47,-15.25 406.92,-15.25 415.21,-15.25"/>
<polygon fill="#63b8ff" stroke="#63b8ff" points="414.97,-18.75 424.97,-15.25 414.97,-11.75 414.97,-18.75"/>
</a>
</g>
</g>
</g>
</svg>
