<?xml version="1.0" encoding="UTF-8" standalone="no"?>
<!DOCTYPE svg PUBLIC "-//W3C//DTD SVG 1.1//EN"
 "http://www.w3.org/Graphics/SVG/1.1/DTD/svg11.dtd">
<!-- Generated by graphviz version 8.0.5 (20230430.1635)
 -->
<!-- Title: Slic3r::Timing::Timer::elapsed_seconds Pages: 1 -->
<svg width="455pt" height="39pt"
 viewBox="0.00 0.00 455.00 38.50" xmlns="http://www.w3.org/2000/svg" xmlns:xlink="http://www.w3.org/1999/xlink">
<g id="graph0" class="graph" transform="scale(1 1) rotate(0) translate(4 34.5)">
<title>Slic3r::Timing::Timer::elapsed_seconds</title>
<!-- Node1 -->
<g id="Node000001" class="node">
<title>Node1</title>
<g id="a_Node000001"><a xlink:title=" ">
<polygon fill="#999999" stroke="#666666" points="447,-30.5 340.25,-30.5 340.25,0 447,0 447,-30.5"/>
<text text-anchor="start" x="348.25" y="-17" font-family="Helvetica,sans-Serif" font-size="10.00">Slic3r::Timing::Timer</text>
<text text-anchor="middle" x="393.62" y="-5.75" font-family="Helvetica,sans-Serif" font-size="10.00">::elapsed_seconds</text>
</a>
</g>
</g>
<!-- Node2 -->
<g id="Node000002" class="node">
<title>Node2</title>
<g id="a_Node000002"><a xlink:href="../../de/d8b/class_slic3r_1_1_timing_1_1_time_limit_alarm.html#a3585a2db4ff60fba02c6218659483230" target="_top" xlink:title=" ">
<polygon fill="white" stroke="#666666" points="304.25,-30.5 160.75,-30.5 160.75,0 304.25,0 304.25,-30.5"/>
<text text-anchor="start" x="168.75" y="-17" font-family="Helvetica,sans-Serif" font-size="10.00">Slic3r::Timing::TimeLimit</text>
<text text-anchor="middle" x="232.5" y="-5.75" font-family="Helvetica,sans-Serif" font-size="10.00">Alarm::report_time_exceeded</text>
</a>
</g>
</g>
<!-- Node1&#45;&gt;Node2 -->
<g id="edge1_Node000001_Node000002" class="edge">
<title>Node1&#45;&gt;Node2</title>
<g id="a_edge1_Node000001_Node000002"><a xlink:title=" ">
<path fill="none" stroke="#63b8ff" d="M329.26,-15.25C321.2,-15.25 312.91,-15.25 304.73,-15.25"/>
<polygon fill="#63b8ff" stroke="#63b8ff" points="329.08,-18.75 339.08,-15.25 329.08,-11.75 329.08,-18.75"/>
</a>
</g>
</g>
<!-- Node3 -->
<g id="Node000003" class="node">
<title>Node3</title>
<g id="a_Node000003"><a xlink:href="../../de/d8b/class_slic3r_1_1_timing_1_1_time_limit_alarm.html#a73ad43c2a04ee12eb7982db4e7269396" target="_top" xlink:title=" ">
<polygon fill="white" stroke="#666666" points="124.75,-30.5 0,-30.5 0,0 124.75,0 124.75,-30.5"/>
<text text-anchor="start" x="8" y="-17" font-family="Helvetica,sans-Serif" font-size="10.00">Slic3r::Timing::TimeLimit</text>
<text text-anchor="middle" x="62.38" y="-5.75" font-family="Helvetica,sans-Serif" font-size="10.00">Alarm::~TimeLimitAlarm</text>
</a>
</g>
</g>
<!-- Node2&#45;&gt;Node3 -->
<g id="edge2_Node000002_Node000003" class="edge">
<title>Node2&#45;&gt;Node3</title>
<g id="a_edge2_Node000002_Node000003"><a xlink:title=" ">
<path fill="none" stroke="#63b8ff" d="M149.79,-15.25C141.46,-15.25 133.1,-15.25 125.04,-15.25"/>
<polygon fill="#63b8ff" stroke="#63b8ff" points="149.69,-18.75 159.69,-15.25 149.69,-11.75 149.69,-18.75"/>
</a>
</g>
</g>
</g>
</svg>
