<?xml version="1.0" encoding="UTF-8" standalone="no"?>
<!DOCTYPE svg PUBLIC "-//W3C//DTD SVG 1.1//EN"
 "http://www.w3.org/Graphics/SVG/1.1/DTD/svg11.dtd">
<!-- Generated by graphviz version 8.0.5 (20230430.1635)
 -->
<!-- Title: Slic3r::GUI::MainFrame::get_dir_name Pages: 1 -->
<!--zoomable 253 -->

<svg id="main" version="1.1" xmlns="http://www.w3.org/2000/svg" xmlns:xlink="http://www.w3.org/1999/xlink" xml:space="preserve" onload="init(evt)">
<style type="text/css"><![CDATA[
.node, .edge {opacity: 0.7;}
.node.selected, .edge.selected {opacity: 1;}
.edge:hover path { stroke: red; }
.edge:hover polygon { stroke: red; fill: red; }
]]></style>

<defs>
  <circle id="rim" cx="0" cy="0" r="7"/>
  <circle id="rim2" cx="0" cy="0" r="3.5"/>
  <g id="zoomPlus">
    <use xlink:href="#rim" fill="#404040"><set attributeName="fill" to="#808080" begin="zoomplus.mouseover" end="zoomplus.mouseout"/></use>
    <path d="M-4,0h8M0,-4v8" fill="none" stroke="white" stroke-width="1.5" pointer-events="none"/>
  </g>
  <g id="zoomMin">
    <use xlink:href="#rim" fill="#404040"><set attributeName="fill" to="#808080" begin="zoomminus.mouseover" end="zoomminus.mouseout"/></use>
    <path d="M-4,0h8" fill="none" stroke="white" stroke-width="1.5" pointer-events="none"/>
  </g>
  <g id="arrowUp" transform="translate(30 24)">
    <use xlink:href="#rim"/>
    <path pointer-events="none" fill="none" stroke="white" stroke-width="1.5" d="M0,-3.0v7 M-2.5,-0.5L0,-3.0L2.5,-0.5"/>
  </g>
  <g id="arrowRight" transform="rotate(90) translate(36 -43)">
    <use xlink:href="#rim"/>
    <path pointer-events="none" fill="none" stroke="white" stroke-width="1.5" d="M0,-3.0v7 M-2.5,-0.5L0,-3.0L2.5,-0.5"/>
  </g>
  <g id="arrowDown" transform="rotate(180) translate(-30 -48)">
    <use xlink:href="#rim"/>
    <path pointer-events="none" fill="none" stroke="white" stroke-width="1.5" d="M0,-3.0v7 M-2.5,-0.5L0,-3.0L2.5,-0.5"/>
  </g>
  <g id="arrowLeft" transform="rotate(270) translate(-36 17)">
    <use xlink:href="#rim"/>
    <path pointer-events="none" fill="none" stroke="white" stroke-width="1.5" d="M0,-3.0v7 M-2.5,-0.5L0,-3.0L2.5,-0.5"/>
  </g>
  <g id="resetDef">
    <use xlink:href="#rim2" fill="#404040"><set attributeName="fill" to="#808080" begin="reset.mouseover" end="reset.mouseout"/></use>
  </g>
</defs>
<script type="application/ecmascript">
var viewWidth = 597;
var viewHeight = 253;
var sectionId = 'dynsection-49';
</script>
<script type="application/ecmascript" xlink:href="../../svg.min.js"/>
<svg id="graph" class="graph">
<g id="viewport">
<title>Slic3r::GUI::MainFrame::get_dir_name</title>
<!-- Node1 -->
<g id="Node000001" class="node">
<title>Node1</title>
<g id="a_Node000001"><a xlink:title=" ">
<polygon fill="#999999" stroke="#666666" points="589,-146.5 469.5,-146.5 469.5,-116 589,-116 589,-146.5"/>
<text text-anchor="start" x="477.5" y="-133" font-family="Helvetica,sans-Serif" font-size="10.00">Slic3r::GUI::MainFrame</text>
<text text-anchor="middle" x="529.25" y="-121.75" font-family="Helvetica,sans-Serif" font-size="10.00">::get_dir_name</text>
</a>
</g>
</g>
<!-- Node2 -->
<g id="Node000002" class="node">
<title>Node2</title>
<g id="a_Node000002"><a xlink:href="../../d3/d17/class_slic3r_1_1_g_u_i_1_1_main_frame.html#ae19a0c836686429b3bfa0a604558b5c7" target="_top" xlink:title=" ">
<polygon fill="white" stroke="#666666" points="433.5,-244.5 314,-244.5 314,-214 433.5,-214 433.5,-244.5"/>
<text text-anchor="start" x="322" y="-231" font-family="Helvetica,sans-Serif" font-size="10.00">Slic3r::GUI::MainFrame</text>
<text text-anchor="middle" x="373.75" y="-219.75" font-family="Helvetica,sans-Serif" font-size="10.00">::export_config</text>
</a>
</g>
</g>
<!-- Node1&#45;&gt;Node2 -->
<g id="edge1_Node000001_Node000002" class="edge">
<title>Node1&#45;&gt;Node2</title>
<g id="a_edge1_Node000001_Node000002"><a xlink:title=" ">
<path fill="none" stroke="#63b8ff" d="M502.82,-153.72C484.43,-169.22 458.52,-189.61 433.5,-204.25 427.76,-207.61 421.48,-210.77 415.24,-213.63"/>
<polygon fill="#63b8ff" stroke="#63b8ff" points="504.38,-156.13 509.71,-146.97 499.84,-150.81 504.38,-156.13"/>
</a>
</g>
</g>
<!-- Node5 -->
<g id="Node000005" class="node">
<title>Node5</title>
<g id="a_Node000005"><a xlink:href="../../d3/d17/class_slic3r_1_1_g_u_i_1_1_main_frame.html#a449d3963be5e78ce0f748f3dfcab226d" target="_top" xlink:title=" ">
<polygon fill="white" stroke="#666666" points="433.5,-195.5 314,-195.5 314,-165 433.5,-165 433.5,-195.5"/>
<text text-anchor="start" x="322" y="-182" font-family="Helvetica,sans-Serif" font-size="10.00">Slic3r::GUI::MainFrame</text>
<text text-anchor="middle" x="373.75" y="-170.75" font-family="Helvetica,sans-Serif" font-size="10.00">::export_configbundle</text>
</a>
</g>
</g>
<!-- Node1&#45;&gt;Node5 -->
<g id="edge4_Node000001_Node000005" class="edge">
<title>Node1&#45;&gt;Node5</title>
<g id="a_edge4_Node000001_Node000005"><a xlink:title=" ">
<path fill="none" stroke="#63b8ff" d="M469.13,-150.12C454.24,-154.87 438.42,-159.93 424.06,-164.51"/>
<polygon fill="#63b8ff" stroke="#63b8ff" points="469.8,-153.26 478.26,-146.89 467.67,-146.6 469.8,-153.26"/>
</a>
</g>
</g>
<!-- Node6 -->
<g id="Node000006" class="node">
<title>Node6</title>
<g id="a_Node000006"><a xlink:href="../../d3/d17/class_slic3r_1_1_g_u_i_1_1_main_frame.html#aa86ec81b5cbaaa255cc50a620c9c373a" target="_top" xlink:title=" ">
<polygon fill="white" stroke="#666666" points="433.5,-30.5 314,-30.5 314,0 433.5,0 433.5,-30.5"/>
<text text-anchor="start" x="322" y="-17" font-family="Helvetica,sans-Serif" font-size="10.00">Slic3r::GUI::MainFrame</text>
<text text-anchor="middle" x="373.75" y="-5.75" font-family="Helvetica,sans-Serif" font-size="10.00">::load_config_file</text>
</a>
</g>
</g>
<!-- Node1&#45;&gt;Node6 -->
<g id="edge6_Node000001_Node000006" class="edge">
<title>Node1&#45;&gt;Node6</title>
<g id="a_edge6_Node000001_Node000006"><a xlink:title=" ">
<path fill="none" stroke="#63b8ff" d="M499.75,-109C481.01,-94.44 455.9,-75.07 433.5,-58.25 421.27,-49.07 407.48,-38.96 396.33,-30.85"/>
<polygon fill="#63b8ff" stroke="#63b8ff" points="497.35,-112.35 507.4,-115.73 501.65,-106.82 497.35,-112.35"/>
</a>
</g>
</g>
<!-- Node8 -->
<g id="Node000008" class="node">
<title>Node8</title>
<g id="a_Node000008"><a xlink:href="../../d3/d17/class_slic3r_1_1_g_u_i_1_1_main_frame.html#a5b85cf37328ca9facf148d54e495deb5" target="_top" xlink:title=" ">
<polygon fill="white" stroke="#666666" points="433.5,-146.5 314,-146.5 314,-116 433.5,-116 433.5,-146.5"/>
<text text-anchor="start" x="322" y="-133" font-family="Helvetica,sans-Serif" font-size="10.00">Slic3r::GUI::MainFrame</text>
<text text-anchor="middle" x="373.75" y="-121.75" font-family="Helvetica,sans-Serif" font-size="10.00">::load_configbundle</text>
</a>
</g>
</g>
<!-- Node1&#45;&gt;Node8 -->
<g id="edge10_Node000001_Node000008" class="edge">
<title>Node1&#45;&gt;Node8</title>
<g id="a_edge10_Node000001_Node000008"><a xlink:title=" ">
<path fill="none" stroke="#63b8ff" d="M458.55,-131.25C450.26,-131.25 441.87,-131.25 433.75,-131.25"/>
<polygon fill="#63b8ff" stroke="#63b8ff" points="458.34,-134.75 468.34,-131.25 458.34,-127.75 458.34,-134.75"/>
</a>
</g>
</g>
<!-- Node9 -->
<g id="Node000009" class="node">
<title>Node9</title>
<g id="a_Node000009"><a xlink:href="../../d3/d17/class_slic3r_1_1_g_u_i_1_1_main_frame.html#acd6d97a7f646668ec4225830246cbcdd" target="_top" xlink:title=" ">
<polygon fill="white" stroke="#666666" points="433.5,-97.5 314,-97.5 314,-67 433.5,-67 433.5,-97.5"/>
<text text-anchor="start" x="322" y="-84" font-family="Helvetica,sans-Serif" font-size="10.00">Slic3r::GUI::MainFrame</text>
<text text-anchor="middle" x="373.75" y="-72.75" font-family="Helvetica,sans-Serif" font-size="10.00">::repair_stl</text>
</a>
</g>
</g>
<!-- Node1&#45;&gt;Node9 -->
<g id="edge12_Node000001_Node000009" class="edge">
<title>Node1&#45;&gt;Node9</title>
<g id="a_edge12_Node000001_Node000009"><a xlink:title=" ">
<path fill="none" stroke="#63b8ff" d="M469.13,-112.38C454.24,-107.63 438.42,-102.57 424.06,-97.99"/>
<polygon fill="#63b8ff" stroke="#63b8ff" points="467.67,-115.9 478.26,-115.61 469.8,-109.24 467.67,-115.9"/>
</a>
</g>
</g>
<!-- Node3 -->
<g id="Node000003" class="node">
<title>Node3</title>
<g id="a_Node000003"><a xlink:href="../../d3/d17/class_slic3r_1_1_g_u_i_1_1_main_frame.html#a58d3512e4a5525b5345dde9778dd233e" target="_top" xlink:title=" ">
<polygon fill="white" stroke="#666666" points="278,-146.5 155.5,-146.5 155.5,-116 278,-116 278,-146.5"/>
<text text-anchor="start" x="163.5" y="-133" font-family="Helvetica,sans-Serif" font-size="10.00">Slic3r::GUI::MainFrame</text>
<text text-anchor="middle" x="216.75" y="-121.75" font-family="Helvetica,sans-Serif" font-size="10.00">::init_menubar_as_editor</text>
</a>
</g>
</g>
<!-- Node2&#45;&gt;Node3 -->
<g id="edge2_Node000002_Node000003" class="edge">
<title>Node2&#45;&gt;Node3</title>
<g id="a_edge2_Node000002_Node000003"><a xlink:title=" ">
<path fill="none" stroke="#63b8ff" d="M322.67,-208.95C319.7,-207.44 316.79,-205.87 314,-204.25 284.79,-187.31 254.25,-162.8 235.61,-146.95"/>
<polygon fill="#63b8ff" stroke="#63b8ff" points="320.76,-212.4 331.29,-213.59 323.8,-206.1 320.76,-212.4"/>
</a>
</g>
</g>
<!-- Node4 -->
<g id="Node000004" class="node">
<title>Node4</title>
<g id="a_Node000004"><a xlink:href="../../d3/d17/class_slic3r_1_1_g_u_i_1_1_main_frame.html#a5eeef0e8564db1d3764da47c6d11344a" target="_top" xlink:title=" ">
<polygon fill="white" stroke="#666666" points="119.5,-146.5 0,-146.5 0,-116 119.5,-116 119.5,-146.5"/>
<text text-anchor="start" x="8" y="-133" font-family="Helvetica,sans-Serif" font-size="10.00">Slic3r::GUI::MainFrame</text>
<text text-anchor="middle" x="59.75" y="-121.75" font-family="Helvetica,sans-Serif" font-size="10.00">::MainFrame</text>
</a>
</g>
</g>
<!-- Node3&#45;&gt;Node4 -->
<g id="edge3_Node000003_Node000004" class="edge">
<title>Node3&#45;&gt;Node4</title>
<g id="a_edge3_Node000003_Node000004"><a xlink:title=" ">
<path fill="none" stroke="#63b8ff" d="M144.62,-131.25C136.36,-131.25 128.01,-131.25 119.94,-131.25"/>
<polygon fill="#63b8ff" stroke="#63b8ff" points="144.38,-134.75 154.38,-131.25 144.38,-127.75 144.38,-134.75"/>
</a>
</g>
</g>
<!-- Node5&#45;&gt;Node3 -->
<g id="edge5_Node000005_Node000003" class="edge">
<title>Node5&#45;&gt;Node3</title>
<g id="a_edge5_Node000005_Node000003"><a xlink:title=" ">
<path fill="none" stroke="#63b8ff" d="M313.05,-161.38C298.02,-156.63 282.04,-151.57 267.55,-146.99"/>
<polygon fill="#63b8ff" stroke="#63b8ff" points="311.69,-164.93 322.28,-164.61 313.8,-158.26 311.69,-164.93"/>
</a>
</g>
</g>
<!-- Node6&#45;&gt;Node3 -->
<g id="edge7_Node000006_Node000003" class="edge">
<title>Node6&#45;&gt;Node3</title>
<g id="a_edge7_Node000006_Node000003"><a xlink:title=" ">
<path fill="none" stroke="#63b8ff" d="M342.41,-37.3C333.26,-44 323.2,-51.4 314,-58.25 287.6,-77.92 257.38,-100.92 237.95,-115.77"/>
<polygon fill="#63b8ff" stroke="#63b8ff" points="344.19,-39.61 350.2,-30.89 340.06,-33.96 344.19,-39.61"/>
</a>
</g>
</g>
<!-- Node6&#45;&gt;Node6 -->
<g id="edge8_Node000006_Node000006" class="edge">
<title>Node6&#45;&gt;Node6</title>
<g id="a_edge8_Node000006_Node000006"><a xlink:title=" ">
<path fill="none" stroke="#63b8ff" d="M400.18,-41.88C396.06,-45.83 387.25,-48.5 373.75,-48.5 349.76,-48.5 340.57,-40.06 346.2,-30.99"/>
<polygon fill="#63b8ff" stroke="#63b8ff" points="403.76,-42.29 401.3,-31.99 396.8,-41.57 403.76,-42.29"/>
</a>
</g>
</g>
<!-- Node7 -->
<g id="Node000007" class="node">
<title>Node7</title>
<g id="a_Node000007"><a xlink:href="../../d9/d01/class_slic3r_1_1_g_u_i_1_1_g_u_i___app.html#a92b16a3ad6111d682dd4d779531e674e" target="_top" xlink:title=" ">
<polygon fill="white" stroke="#666666" points="272.38,-30.5 161.12,-30.5 161.12,0 272.38,0 272.38,-30.5"/>
<text text-anchor="start" x="169.12" y="-17" font-family="Helvetica,sans-Serif" font-size="10.00">Slic3r::GUI::GUI_App</text>
<text text-anchor="middle" x="216.75" y="-5.75" font-family="Helvetica,sans-Serif" font-size="10.00">::post_init</text>
</a>
</g>
</g>
<!-- Node6&#45;&gt;Node7 -->
<g id="edge9_Node000006_Node000007" class="edge">
<title>Node6&#45;&gt;Node7</title>
<g id="a_edge9_Node000006_Node000007"><a xlink:title=" ">
<path fill="none" stroke="#63b8ff" d="M302.87,-15.25C292.79,-15.25 282.54,-15.25 272.8,-15.25"/>
<polygon fill="#63b8ff" stroke="#63b8ff" points="302.71,-18.75 312.71,-15.25 302.71,-11.75 302.71,-18.75"/>
</a>
</g>
</g>
<!-- Node8&#45;&gt;Node3 -->
<g id="edge11_Node000008_Node000003" class="edge">
<title>Node8&#45;&gt;Node3</title>
<g id="a_edge11_Node000008_Node000003"><a xlink:title=" ">
<path fill="none" stroke="#63b8ff" d="M302.74,-131.25C294.63,-131.25 286.4,-131.25 278.43,-131.25"/>
<polygon fill="#63b8ff" stroke="#63b8ff" points="302.71,-134.75 312.71,-131.25 302.71,-127.75 302.71,-134.75"/>
</a>
</g>
</g>
<!-- Node9&#45;&gt;Node3 -->
<g id="edge13_Node000009_Node000003" class="edge">
<title>Node9&#45;&gt;Node3</title>
<g id="a_edge13_Node000009_Node000003"><a xlink:title=" ">
<path fill="none" stroke="#63b8ff" d="M313.05,-101.12C298.02,-105.87 282.04,-110.93 267.55,-115.51"/>
<polygon fill="#63b8ff" stroke="#63b8ff" points="313.8,-104.24 322.28,-97.89 311.69,-97.57 313.8,-104.24"/>
</a>
</g>
</g>
</g>
</svg>

<g id="navigator" transform="translate(0 0)" fill="#404254">
  <rect fill="#f2f5e9" fill-opacity="0.5" stroke="#606060" stroke-width=".5" x="0" y="0" width="60" height="60"/>
  <use id="zoomplus" xlink:href="#zoomPlus" x="17" y="9" onmousedown="handleZoom(evt,'in')"/>
  <use id="zoomminus" xlink:href="#zoomMin" x="42" y="9" onmousedown="handleZoom(evt,'out')"/>
  <use id="reset" xlink:href="#resetDef" x="30" y="36" onmousedown="handleReset()"/>
   <use id="arrowup" xlink:href="#arrowUp" x="0" y="0" onmousedown="handlePan(0,-1)"/>
  <use id="arrowright" xlink:href="#arrowRight" x="0" y="0" onmousedown="handlePan(1,0)"/>
  <use id="arrowdown" xlink:href="#arrowDown" x="0" y="0" onmousedown="handlePan(0,1)"/>
  <use id="arrowleft" xlink:href="#arrowLeft" x="0" y="0" onmousedown="handlePan(-1,0)"/>
</g>
<svg viewBox="0 0 15 15" width="100%" height="30px" preserveAspectRatio="xMaxYMin meet">
 <g id="arrow_out" transform="scale(0.3 0.3)">
  <a xlink:href="class_slic3r_1_1_g_u_i_1_1_main_frame_aa2b1eeebbebd61fdd606231a54c2977e_icgraph_org.svg" target="_base">
   <rect id="button" ry="5" rx="5" y="6" x="6" height="38" width="38"
        fill="#f2f5e9" fill-opacity="0.5" stroke="#606060" stroke-width="1.0"/>
   <path id="arrow"
     d="M 11.500037,31.436501 C 11.940474,20.09759 22.043105,11.32322 32.158766,21.979434 L 37.068811,17.246167 C 37.068811,17.246167 37.088388,32 37.088388,32 L 22.160133,31.978069 C 22.160133,31.978069 26.997745,27.140456 26.997745,27.140456 C 18.528582,18.264221 13.291696,25.230495 11.500037,31.436501 z"
     style="fill:#404040;"/>
  </a>
 </g>
</svg>

<style type='text/css'>
<![CDATA[
[data-mouse-over-selected='false'] { opacity: 0.7; }
[data-mouse-over-selected='true']  { opacity: 1.0; }
]]>
</style>
<script type="application/ecmascript"><![CDATA[
document.addEventListener('DOMContentLoaded', (event) => {
  highlightEdges();
  highlightAdjacentNodes();
});
]]></script>
</svg>
