<?xml version="1.0" encoding="UTF-8" standalone="no"?>
<!DOCTYPE svg PUBLIC "-//W3C//DTD SVG 1.1//EN"
 "http://www.w3.org/Graphics/SVG/1.1/DTD/svg11.dtd">
<!-- Generated by graphviz version 8.0.5 (20230430.1635)
 -->
<!-- Title: Slic3r::FillLightning::GroundingLocation Pages: 1 -->
<svg width="1095pt" height="145pt"
 viewBox="0.00 0.00 1095.05 144.75" xmlns="http://www.w3.org/2000/svg" xmlns:xlink="http://www.w3.org/1999/xlink">
<g id="graph0" class="graph" transform="scale(1 1) rotate(0) translate(4 140.75)">
<title>Slic3r::FillLightning::GroundingLocation</title>
<!-- Node1 -->
<g id="Node000001" class="node">
<title>Node1</title>
<g id="a_Node000001"><a xlink:title=" ">
<polygon fill="#999999" stroke="#666666" points="1087.05,-30.5 984.05,-30.5 984.05,0 1087.05,0 1087.05,-30.5"/>
<text text-anchor="start" x="992.05" y="-17" font-family="Helvetica,sans-Serif" font-size="10.00">Slic3r::FillLightning</text>
<text text-anchor="middle" x="1035.55" y="-5.75" font-family="Helvetica,sans-Serif" font-size="10.00">::GroundingLocation</text>
</a>
</g>
</g>
<!-- Node2 -->
<g id="Node000002" class="node">
<title>Node2</title>
<g id="a_Node000002"><a xlink:title=" ">
<polygon fill="white" stroke="#666666" points="902.3,-24.88 779.8,-24.88 779.8,-5.62 902.3,-5.62 902.3,-24.88"/>
<text text-anchor="middle" x="841.05" y="-11.38" font-family="Helvetica,sans-Serif" font-size="10.00">std::shared_ptr&lt; Node &gt;</text>
</a>
</g>
</g>
<!-- Node2&#45;&gt;Node1 -->
<g id="edge1_Node000001_Node000002" class="edge">
<title>Node2&#45;&gt;Node1</title>
<g id="a_edge1_Node000001_Node000002"><a xlink:title=" ">
<path fill="none" stroke="#9a32cd" stroke-dasharray="5,2" d="M913.56,-15.25C936.82,-15.25 962.14,-15.25 983.59,-15.25"/>
<polygon fill="#9a32cd" stroke="#9a32cd" points="913.69,-11.75 903.69,-15.25 913.69,-18.75 913.69,-11.75"/>
</a>
</g>
<text text-anchor="middle" x="943.18" y="-17" font-family="Helvetica,sans-Serif" font-size="10.00" fill="grey"> tree_node</text>
</g>
<!-- Node3 -->
<g id="Node000003" class="node">
<title>Node3</title>
<g id="a_Node000003"><a xlink:href="../../da/dc5/class_slic3r_1_1_fill_lightning_1_1_node.html" target="_top" xlink:title=" ">
<polygon fill="white" stroke="#666666" points="700.3,-80.5 601.8,-80.5 601.8,-50 700.3,-50 700.3,-80.5"/>
<text text-anchor="start" x="609.8" y="-67" font-family="Helvetica,sans-Serif" font-size="10.00">Slic3r::FillLightning</text>
<text text-anchor="middle" x="651.05" y="-55.75" font-family="Helvetica,sans-Serif" font-size="10.00">::Node</text>
</a>
</g>
</g>
<!-- Node3&#45;&gt;Node2 -->
<g id="edge2_Node000002_Node000003" class="edge">
<title>Node3&#45;&gt;Node2</title>
<g id="a_edge2_Node000002_Node000003"><a xlink:title=" ">
<path fill="none" stroke="#9a32cd" stroke-dasharray="5,2" d="M709.78,-46.44C712.65,-45.6 715.51,-44.78 718.3,-44 742.99,-37.14 770.79,-30.49 793.58,-25.32"/>
<polygon fill="#9a32cd" stroke="#9a32cd" points="708.89,-43.35 700.32,-49.59 710.91,-50.06 708.89,-43.35"/>
</a>
</g>
<text text-anchor="middle" x="740.05" y="-45" font-family="Helvetica,sans-Serif" font-size="10.00" fill="grey"> ptr</text>
</g>
<!-- Node5 -->
<g id="Node000005" class="node">
<title>Node5</title>
<g id="a_Node000005"><a xlink:title=" ">
<polygon fill="white" stroke="#666666" points="897.05,-114.5 785.05,-114.5 785.05,-84 897.05,-84 897.05,-114.5"/>
<text text-anchor="start" x="793.05" y="-101" font-family="Helvetica,sans-Serif" font-size="10.00">std::weak_ptr&lt; Slic3r</text>
<text text-anchor="middle" x="841.05" y="-89.75" font-family="Helvetica,sans-Serif" font-size="10.00">::FillLightning::Node &gt;</text>
</a>
</g>
</g>
<!-- Node3&#45;&gt;Node5 -->
<g id="edge5_Node000005_Node000003" class="edge">
<title>Node3&#45;&gt;Node5</title>
<g id="a_edge5_Node000005_Node000003"><a xlink:title=" ">
<path fill="none" stroke="#9a32cd" stroke-dasharray="5,2" d="M711.23,-59.78C727.74,-59.55 745.6,-60.52 761.8,-64 779.57,-67.82 798.18,-76 812.78,-83.53"/>
<polygon fill="#9a32cd" stroke="#9a32cd" points="711.49,-56.3 701.59,-60.1 711.69,-63.3 711.49,-56.3"/>
</a>
</g>
<text text-anchor="middle" x="740.05" y="-65" font-family="Helvetica,sans-Serif" font-size="10.00" fill="grey"> ptr</text>
</g>
<!-- Node4 -->
<g id="Node000004" class="node">
<title>Node4</title>
<g id="a_Node000004"><a xlink:title=" ">
<polygon fill="white" stroke="#666666" points="461.18,-56.5 358.18,-56.5 358.18,-26 461.18,-26 461.18,-56.5"/>
<text text-anchor="start" x="366.18" y="-43" font-family="Helvetica,sans-Serif" font-size="10.00">std::enable_shared</text>
<text text-anchor="middle" x="409.68" y="-31.75" font-family="Helvetica,sans-Serif" font-size="10.00">_from_this&lt; Node &gt;</text>
</a>
</g>
</g>
<!-- Node4&#45;&gt;Node3 -->
<g id="edge3_Node000003_Node000004" class="edge">
<title>Node4&#45;&gt;Node3</title>
<g id="a_edge3_Node000003_Node000004"><a xlink:title=" ">
<path fill="none" stroke="#63b8ff" d="M472.18,-47.42C512.36,-51.44 564.09,-56.63 601.4,-60.37"/>
<polygon fill="#63b8ff" stroke="#63b8ff" points="472.74,-43.85 462.44,-46.34 472.04,-50.82 472.74,-43.85"/>
</a>
</g>
</g>
<!-- Node5&#45;&gt;Node3 -->
<g id="edge4_Node000003_Node000005" class="edge">
<title>Node5&#45;&gt;Node3</title>
<g id="a_edge4_Node000003_Node000005"><a xlink:title=" ">
<path fill="none" stroke="#9a32cd" stroke-dasharray="5,2" d="M773.88,-87.3C755.85,-84.04 736.33,-80.51 718.3,-77.25 712.55,-76.21 706.52,-75.12 700.53,-74.03"/>
<polygon fill="#9a32cd" stroke="#9a32cd" points="773.13,-90.9 783.59,-89.23 774.37,-84.01 773.13,-90.9"/>
</a>
</g>
<text text-anchor="middle" x="740.05" y="-86" font-family="Helvetica,sans-Serif" font-size="10.00" fill="grey"> m_parent</text>
</g>
<!-- Node6 -->
<g id="Node000006" class="node">
<title>Node6</title>
<g id="a_Node000006"><a xlink:title=" ">
<polygon fill="white" stroke="#666666" points="330.05,-133.88 230.8,-133.88 230.8,-114.62 330.05,-114.62 330.05,-133.88"/>
<text text-anchor="middle" x="280.43" y="-120.38" font-family="Helvetica,sans-Serif" font-size="10.00">std::weak_ptr&lt; T &gt;</text>
</a>
</g>
</g>
<!-- Node6&#45;&gt;Node5 -->
<g id="edge6_Node000005_Node000006" class="edge">
<title>Node6&#45;&gt;Node5</title>
<g id="a_edge6_Node000005_Node000006"><a xlink:title=" ">
<path fill="none" stroke="orange" stroke-dasharray="5,2" d="M341.3,-121.57C450.22,-116.7 679.26,-106.45 784.73,-101.73"/>
<polygon fill="orange" stroke="orange" points="341.34,-118.11 331.51,-122.05 341.66,-125.1 341.34,-118.11"/>
</a>
</g>
<text text-anchor="start" x="489.3" y="-127.25" font-family="Helvetica,sans-Serif" font-size="10.00" fill="grey"> &lt; Slic3r::FillLightning</text>
<text text-anchor="middle" x="536.55" y="-116" font-family="Helvetica,sans-Serif" font-size="10.00" fill="grey">::Node &gt;</text>
</g>
<!-- Node7 -->
<g id="Node000007" class="node">
<title>Node7</title>
<g id="a_Node000007"><a xlink:title=" ">
<polygon fill="white" stroke="#666666" points="28.8,-93.88 0,-93.88 0,-74.62 28.8,-74.62 28.8,-93.88"/>
<text text-anchor="middle" x="14.4" y="-80.38" font-family="Helvetica,sans-Serif" font-size="10.00">T</text>
</a>
</g>
</g>
<!-- Node7&#45;&gt;Node6 -->
<g id="edge7_Node000006_Node000007" class="edge">
<title>Node7&#45;&gt;Node6</title>
<g id="a_edge7_Node000006_Node000007"><a xlink:title=" ">
<path fill="none" stroke="#9a32cd" stroke-dasharray="5,2" d="M38.81,-96.48C41.46,-97.54 44.16,-98.5 46.8,-99.25 108.54,-116.76 182.68,-122.18 230.4,-123.76"/>
<polygon fill="#9a32cd" stroke="#9a32cd" points="40.62,-93 30.07,-92.02 37.71,-99.36 40.62,-93"/>
</a>
</g>
<text text-anchor="middle" x="68.18" y="-110" font-family="Helvetica,sans-Serif" font-size="10.00" fill="grey"> ptr</text>
</g>
<!-- Node9 -->
<g id="Node000009" class="node">
<title>Node9</title>
<g id="a_Node000009"><a xlink:title=" ">
<polygon fill="white" stroke="#666666" points="212.8,-56.88 107.55,-56.88 107.55,-37.62 212.8,-37.62 212.8,-56.88"/>
<text text-anchor="middle" x="160.18" y="-43.38" font-family="Helvetica,sans-Serif" font-size="10.00">std::shared_ptr&lt; T &gt;</text>
</a>
</g>
</g>
<!-- Node7&#45;&gt;Node9 -->
<g id="edge10_Node000009_Node000007" class="edge">
<title>Node7&#45;&gt;Node9</title>
<g id="a_edge10_Node000009_Node000007"><a xlink:title=" ">
<path fill="none" stroke="#9a32cd" stroke-dasharray="5,2" d="M38.87,-72.04C41.51,-70.92 44.18,-69.87 46.8,-69 66.12,-62.56 87.99,-57.79 107.26,-54.39"/>
<polygon fill="#9a32cd" stroke="#9a32cd" points="37.7,-69.19 30.14,-76.61 40.68,-75.53 37.7,-69.19"/>
</a>
</g>
<text text-anchor="middle" x="68.18" y="-70" font-family="Helvetica,sans-Serif" font-size="10.00" fill="grey"> ptr</text>
</g>
<!-- Node10 -->
<g id="Node000010" class="node">
<title>Node10</title>
<g id="a_Node000010"><a xlink:title=" ">
<polygon fill="white" stroke="#666666" points="203.43,-93.88 116.93,-93.88 116.93,-74.62 203.43,-74.62 203.43,-93.88"/>
<text text-anchor="middle" x="160.18" y="-80.38" font-family="Helvetica,sans-Serif" font-size="10.00">std::vector&lt; T &gt;</text>
</a>
</g>
</g>
<!-- Node7&#45;&gt;Node10 -->
<g id="edge12_Node000010_Node000007" class="edge">
<title>Node7&#45;&gt;Node10</title>
<g id="a_edge12_Node000010_Node000007"><a xlink:title=" ">
<path fill="none" stroke="#9a32cd" stroke-dasharray="5,2" d="M40.04,-84.25C61.05,-84.25 91.72,-84.25 116.68,-84.25"/>
<polygon fill="#9a32cd" stroke="#9a32cd" points="40.19,-80.75 30.19,-84.25 40.19,-87.75 40.19,-80.75"/>
</a>
</g>
<text text-anchor="middle" x="68.18" y="-86" font-family="Helvetica,sans-Serif" font-size="10.00" fill="grey"> elements</text>
</g>
<!-- Node8 -->
<g id="Node000008" class="node">
<title>Node8</title>
<g id="a_Node000008"><a xlink:title=" ">
<polygon fill="white" stroke="#666666" points="471.3,-93.88 348.05,-93.88 348.05,-74.62 471.3,-74.62 471.3,-93.88"/>
<text text-anchor="middle" x="409.68" y="-80.38" font-family="Helvetica,sans-Serif" font-size="10.00">std::vector&lt; NodeSPtr &gt;</text>
</a>
</g>
</g>
<!-- Node8&#45;&gt;Node3 -->
<g id="edge8_Node000003_Node000008" class="edge">
<title>Node8&#45;&gt;Node3</title>
<g id="a_edge8_Node000003_Node000008"><a xlink:title=" ">
<path fill="none" stroke="#9a32cd" stroke-dasharray="5,2" d="M482.34,-78.56C520.85,-75.5 567.33,-71.82 601.58,-69.1"/>
<polygon fill="#9a32cd" stroke="#9a32cd" points="482.39,-75.13 472.7,-79.41 482.94,-82.1 482.39,-75.13"/>
</a>
</g>
<text text-anchor="middle" x="536.55" y="-79" font-family="Helvetica,sans-Serif" font-size="10.00" fill="grey"> m_children</text>
</g>
<!-- Node9&#45;&gt;Node2 -->
<g id="edge13_Node000002_Node000009" class="edge">
<title>Node9&#45;&gt;Node2</title>
<g id="a_edge13_Node000002_Node000009"><a xlink:title=" ">
<path fill="none" stroke="orange" stroke-dasharray="5,2" d="M220.97,-35.23C257.51,-28.49 305.28,-20.75 348.05,-17.25 502.99,-4.58 686.3,-8.91 779.33,-12.48"/>
<polygon fill="orange" stroke="orange" points="220.68,-31.91 211.5,-37.19 221.97,-38.79 220.68,-31.91"/>
</a>
</g>
<text text-anchor="middle" x="536.55" y="-12" font-family="Helvetica,sans-Serif" font-size="10.00" fill="grey"> &lt; Node &gt;</text>
</g>
<!-- Node9&#45;&gt;Node8 -->
<g id="edge9_Node000008_Node000009" class="edge">
<title>Node9&#45;&gt;Node8</title>
<g id="a_edge9_Node000008_Node000009"><a xlink:title=" ">
<path fill="none" stroke="#9a32cd" stroke-dasharray="5,2" d="M223.56,-54.33C255.48,-58.19 294.92,-63.34 330.05,-69 339.52,-70.53 349.6,-72.34 359.27,-74.17"/>
<polygon fill="#9a32cd" stroke="#9a32cd" points="224.38,-50.78 214.04,-53.07 223.55,-57.73 224.38,-50.78"/>
</a>
</g>
<text text-anchor="middle" x="280.43" y="-70" font-family="Helvetica,sans-Serif" font-size="10.00" fill="grey"> elements</text>
</g>
<!-- Node10&#45;&gt;Node8 -->
<g id="edge11_Node000008_Node000010" class="edge">
<title>Node10&#45;&gt;Node8</title>
<g id="a_edge11_Node000008_Node000010"><a xlink:title=" ">
<path fill="none" stroke="orange" stroke-dasharray="5,2" d="M214.62,-84.25C253.75,-84.25 306.91,-84.25 347.7,-84.25"/>
<polygon fill="orange" stroke="orange" points="214.72,-80.75 204.72,-84.25 214.72,-87.75 214.72,-80.75"/>
</a>
</g>
<text text-anchor="middle" x="280.43" y="-86" font-family="Helvetica,sans-Serif" font-size="10.00" fill="grey"> &lt; NodeSPtr &gt;</text>
</g>
</g>
</svg>
