<?xml version="1.0" encoding="UTF-8" standalone="no"?>
<!DOCTYPE svg PUBLIC "-//W3C//DTD SVG 1.1//EN"
 "http://www.w3.org/Graphics/SVG/1.1/DTD/svg11.dtd">
<!-- Generated by graphviz version 8.0.5 (20230430.1635)
 -->
<!-- Title: Slic3r::GUI::GLGizmoMeasure::on_set_state Pages: 1 -->
<svg width="841pt" height="165pt"
 viewBox="0.00 0.00 841.00 165.25" xmlns="http://www.w3.org/2000/svg" xmlns:xlink="http://www.w3.org/1999/xlink">
<g id="graph0" class="graph" transform="scale(1 1) rotate(0) translate(4 161.25)">
<title>Slic3r::GUI::GLGizmoMeasure::on_set_state</title>
<!-- Node1 -->
<g id="Node000001" class="node">
<title>Node1</title>
<g id="a_Node000001"><a xlink:title=" ">
<polygon fill="#999999" stroke="#666666" points="149.5,-114.12 0,-114.12 0,-83.62 149.5,-83.62 149.5,-114.12"/>
<text text-anchor="start" x="8" y="-100.62" font-family="Helvetica,sans-Serif" font-size="10.00">Slic3r::GUI::GLGizmoMeasure</text>
<text text-anchor="middle" x="74.75" y="-89.38" font-family="Helvetica,sans-Serif" font-size="10.00">::on_set_state</text>
</a>
</g>
</g>
<!-- Node2 -->
<g id="Node000002" class="node">
<title>Node2</title>
<g id="a_Node000002"><a xlink:href="../../d0/d2b/class_slic3r_1_1_g_u_i_1_1_g_l_canvas3_d.html#a9b9a306e4f7de8fa42810e2ffa1340a9" target="_top" xlink:title=" ">
<polygon fill="white" stroke="#666666" points="522,-136.12 383,-136.12 383,-105.62 522,-105.62 522,-136.12"/>
<text text-anchor="start" x="391" y="-122.62" font-family="Helvetica,sans-Serif" font-size="10.00">Slic3r::GUI::GLCanvas3D</text>
<text text-anchor="middle" x="452.5" y="-111.38" font-family="Helvetica,sans-Serif" font-size="10.00">::get_raycasters_for_picking</text>
</a>
</g>
</g>
<!-- Node1&#45;&gt;Node2 -->
<g id="edge1_Node000001_Node000002" class="edge">
<title>Node1&#45;&gt;Node2</title>
<g id="a_edge1_Node000001_Node000002"><a xlink:title=" ">
<path fill="none" stroke="#63b8ff" d="M102.18,-114.48C123.77,-126.27 155.5,-141.48 185.5,-147.88 255.7,-162.83 275.8,-156.93 347,-147.88 361.29,-146.06 376.43,-142.9 390.61,-139.36"/>
<polygon fill="#63b8ff" stroke="#63b8ff" points="391.44,-142.5 400.24,-136.6 389.68,-135.73 391.44,-142.5"/>
</a>
</g>
</g>
<!-- Node4 -->
<g id="Node000004" class="node">
<title>Node4</title>
<g id="a_Node000004"><a xlink:href="../../de/d60/class_slic3r_1_1_g_u_i_1_1_key_auto_repeat_filter.html#a97bfbda6e05534863843a3a205d68363" target="_top" xlink:title=" ">
<polygon fill="white" stroke="#666666" points="336.12,-139.12 196.38,-139.12 196.38,-108.62 336.12,-108.62 336.12,-139.12"/>
<text text-anchor="start" x="204.38" y="-125.62" font-family="Helvetica,sans-Serif" font-size="10.00">Slic3r::GUI::KeyAutoRepeat</text>
<text text-anchor="middle" x="266.25" y="-114.38" font-family="Helvetica,sans-Serif" font-size="10.00">Filter::reset_count</text>
</a>
</g>
</g>
<!-- Node1&#45;&gt;Node4 -->
<g id="edge3_Node000001_Node000004" class="edge">
<title>Node1&#45;&gt;Node4</title>
<g id="a_edge3_Node000001_Node000004"><a xlink:title=" ">
<path fill="none" stroke="#63b8ff" d="M149.83,-108.65C161.51,-110.19 173.64,-111.79 185.44,-113.35"/>
<polygon fill="#63b8ff" stroke="#63b8ff" points="184.8,-116.92 195.17,-114.76 185.72,-109.98 184.8,-116.92"/>
</a>
</g>
</g>
<!-- Node5 -->
<g id="Node000005" class="node">
<title>Node5</title>
<g id="a_Node000005"><a xlink:href="../../d9/d9a/class_slic3r_1_1_g_u_i_1_1_g_l_gizmo_measure.html#a3088cd1cff0df5151f6bbc5ffcf3ece8" target="_top" xlink:title=" ">
<polygon fill="white" stroke="#666666" points="347,-90.12 185.5,-90.12 185.5,-59.62 347,-59.62 347,-90.12"/>
<text text-anchor="start" x="193.5" y="-76.62" font-family="Helvetica,sans-Serif" font-size="10.00">Slic3r::GUI::GLGizmoMeasure</text>
<text text-anchor="middle" x="266.25" y="-65.38" font-family="Helvetica,sans-Serif" font-size="10.00">::restore_scene_raycasters_state</text>
</a>
</g>
</g>
<!-- Node1&#45;&gt;Node5 -->
<g id="edge4_Node000001_Node000005" class="edge">
<title>Node1&#45;&gt;Node5</title>
<g id="a_edge4_Node000001_Node000005"><a xlink:title=" ">
<path fill="none" stroke="#63b8ff" d="M149.83,-89.49C157.91,-88.47 166.21,-87.42 174.46,-86.37"/>
<polygon fill="#63b8ff" stroke="#63b8ff" points="174.79,-89.73 184.27,-85 173.91,-82.79 174.79,-89.73"/>
</a>
</g>
</g>
<!-- Node6 -->
<g id="Node000006" class="node">
<title>Node6</title>
<g id="a_Node000006"><a xlink:href="../../d0/d2b/class_slic3r_1_1_g_u_i_1_1_g_l_canvas3_d.html#a0cbf62c3dc9de2c62aacc5161416bc57" target="_top" xlink:title=" ">
<polygon fill="white" stroke="#666666" points="331.25,-41.75 201.25,-41.75 201.25,0 331.25,0 331.25,-41.75"/>
<text text-anchor="start" x="209.25" y="-28.25" font-family="Helvetica,sans-Serif" font-size="10.00">Slic3r::GUI::GLCanvas3D</text>
<text text-anchor="start" x="209.25" y="-17" font-family="Helvetica,sans-Serif" font-size="10.00">::toggle_sla_auxiliaries</text>
<text text-anchor="middle" x="266.25" y="-5.75" font-family="Helvetica,sans-Serif" font-size="10.00">_visibility</text>
</a>
</g>
</g>
<!-- Node1&#45;&gt;Node6 -->
<g id="edge5_Node000001_Node000006" class="edge">
<title>Node1&#45;&gt;Node6</title>
<g id="a_edge5_Node000001_Node000006"><a xlink:title=" ">
<path fill="none" stroke="#63b8ff" d="M110.15,-83.27C131.68,-73.65 160.07,-61.21 185.5,-50.88 189.4,-49.29 193.41,-47.69 197.47,-46.09"/>
<polygon fill="#63b8ff" stroke="#63b8ff" points="198.56,-49.04 206.61,-42.15 196.02,-42.51 198.56,-49.04"/>
</a>
</g>
</g>
<!-- Node3 -->
<g id="Node000003" class="node">
<title>Node3</title>
<g id="a_Node000003"><a xlink:href="../../de/d4e/class_slic3r_1_1_g_u_i_1_1_scene_raycaster.html#a64a5fc39c4ff53a30cb7780ad0a8f6ce" target="_top" xlink:title=" ">
<polygon fill="white" stroke="#666666" points="701.5,-136.12 558,-136.12 558,-105.62 701.5,-105.62 701.5,-136.12"/>
<text text-anchor="start" x="566" y="-122.62" font-family="Helvetica,sans-Serif" font-size="10.00">Slic3r::GUI::SceneRaycaster</text>
<text text-anchor="middle" x="629.75" y="-111.38" font-family="Helvetica,sans-Serif" font-size="10.00">::get_raycasters</text>
</a>
</g>
</g>
<!-- Node2&#45;&gt;Node3 -->
<g id="edge2_Node000002_Node000003" class="edge">
<title>Node2&#45;&gt;Node3</title>
<g id="a_edge2_Node000002_Node000003"><a xlink:title=" ">
<path fill="none" stroke="#63b8ff" d="M522.26,-120.88C530.33,-120.88 538.62,-120.88 546.84,-120.88"/>
<polygon fill="#63b8ff" stroke="#63b8ff" points="546.59,-124.38 556.59,-120.88 546.59,-117.38 546.59,-124.38"/>
</a>
</g>
</g>
<!-- Node6&#45;&gt;Node2 -->
<g id="edge9_Node000006_Node000002" class="edge">
<title>Node6&#45;&gt;Node2</title>
<g id="a_edge9_Node000006_Node000002"><a xlink:title=" ">
<path fill="none" stroke="#63b8ff" d="M328.41,-42.22C334.78,-44.93 341.08,-47.83 347,-50.88 373.78,-64.65 402.02,-83.89 422.39,-98.71"/>
<polygon fill="#63b8ff" stroke="#63b8ff" points="420.03,-102.06 430.16,-105.18 424.19,-96.43 420.03,-102.06"/>
</a>
</g>
</g>
<!-- Node7 -->
<g id="Node000007" class="node">
<title>Node7</title>
<g id="a_Node000007"><a xlink:href="../../d0/d2b/class_slic3r_1_1_g_u_i_1_1_g_l_canvas3_d.html#acd99f2cfccbfeccdf450ceccb57f2c68" target="_top" xlink:title=" ">
<polygon fill="white" stroke="#666666" points="520.88,-36.12 384.12,-36.12 384.12,-5.62 520.88,-5.62 520.88,-36.12"/>
<text text-anchor="start" x="392.12" y="-22.62" font-family="Helvetica,sans-Serif" font-size="10.00">Slic3r::GUI::GLCanvas3D</text>
<text text-anchor="middle" x="452.5" y="-11.38" font-family="Helvetica,sans-Serif" font-size="10.00">::current_printer_technology</text>
</a>
</g>
</g>
<!-- Node6&#45;&gt;Node7 -->
<g id="edge6_Node000006_Node000007" class="edge">
<title>Node6&#45;&gt;Node7</title>
<g id="a_edge6_Node000006_Node000007"><a xlink:title=" ">
<path fill="none" stroke="#63b8ff" d="M331.69,-20.88C344.96,-20.88 359.07,-20.88 372.77,-20.88"/>
<polygon fill="#63b8ff" stroke="#63b8ff" points="372.65,-24.38 382.65,-20.88 372.65,-17.38 372.65,-24.38"/>
</a>
</g>
</g>
<!-- Node8 -->
<g id="Node000008" class="node">
<title>Node8</title>
<g id="a_Node000008"><a xlink:href="../../dc/d03/class_slic3r_1_1_background_slicing_process.html#a505b469d96a1629c864bc39b1f7f7360" target="_top" xlink:title=" ">
<polygon fill="white" stroke="#666666" points="693.62,-41.75 565.88,-41.75 565.88,0 693.62,0 693.62,-41.75"/>
<text text-anchor="start" x="573.88" y="-28.25" font-family="Helvetica,sans-Serif" font-size="10.00">Slic3r::BackgroundSlicing</text>
<text text-anchor="start" x="573.88" y="-17" font-family="Helvetica,sans-Serif" font-size="10.00">Process::current_printer</text>
<text text-anchor="middle" x="629.75" y="-5.75" font-family="Helvetica,sans-Serif" font-size="10.00">_technology</text>
</a>
</g>
</g>
<!-- Node7&#45;&gt;Node8 -->
<g id="edge7_Node000007_Node000008" class="edge">
<title>Node7&#45;&gt;Node8</title>
<g id="a_edge7_Node000007_Node000008"><a xlink:title=" ">
<path fill="none" stroke="#63b8ff" d="M521.26,-20.88C532.16,-20.88 543.51,-20.88 554.56,-20.88"/>
<polygon fill="#63b8ff" stroke="#63b8ff" points="554.48,-24.38 564.48,-20.88 554.48,-17.38 554.48,-24.38"/>
</a>
</g>
</g>
<!-- Node9 -->
<g id="Node000009" class="node">
<title>Node9</title>
<g id="a_Node000009"><a xlink:href="../../dc/d88/class_slic3r_1_1_print_base.html#a67451f5b977d5fec60ba1d01bea511e7" target="_top" xlink:title=" ">
<polygon fill="white" stroke="#666666" points="833,-36.12 737.5,-36.12 737.5,-5.62 833,-5.62 833,-36.12"/>
<text text-anchor="start" x="745.5" y="-22.62" font-family="Helvetica,sans-Serif" font-size="10.00">Slic3r::PrintBase::</text>
<text text-anchor="middle" x="785.25" y="-11.38" font-family="Helvetica,sans-Serif" font-size="10.00">technology</text>
</a>
</g>
</g>
<!-- Node8&#45;&gt;Node9 -->
<g id="edge8_Node000008_Node000009" class="edge">
<title>Node8&#45;&gt;Node9</title>
<g id="a_edge8_Node000008_Node000009"><a xlink:title=" ">
<path fill="none" stroke="#63b8ff" d="M694.07,-20.88C704.74,-20.88 715.76,-20.88 726.28,-20.88"/>
<polygon fill="#63b8ff" stroke="#63b8ff" points="726.02,-24.38 736.02,-20.88 726.02,-17.38 726.02,-24.38"/>
</a>
</g>
</g>
</g>
</svg>
