<?xml version="1.0" encoding="UTF-8" standalone="no"?>
<!DOCTYPE svg PUBLIC "-//W3C//DTD SVG 1.1//EN"
 "http://www.w3.org/Graphics/SVG/1.1/DTD/svg11.dtd">
<!-- Generated by graphviz version 8.0.5 (20230430.1635)
 -->
<!-- Title: src/libigl/igl/extract_non_manifold_edge_curves.h Pages: 1 -->
<!--zoomable 427 -->

<svg id="main" version="1.1" xmlns="http://www.w3.org/2000/svg" xmlns:xlink="http://www.w3.org/1999/xlink" xml:space="preserve" onload="init(evt)">
<style type="text/css"><![CDATA[
.node, .edge {opacity: 0.7;}
.node.selected, .edge.selected {opacity: 1;}
.edge:hover path { stroke: red; }
.edge:hover polygon { stroke: red; fill: red; }
]]></style>

<defs>
  <circle id="rim" cx="0" cy="0" r="7"/>
  <circle id="rim2" cx="0" cy="0" r="3.5"/>
  <g id="zoomPlus">
    <use xlink:href="#rim" fill="#404040"><set attributeName="fill" to="#808080" begin="zoomplus.mouseover" end="zoomplus.mouseout"/></use>
    <path d="M-4,0h8M0,-4v8" fill="none" stroke="white" stroke-width="1.5" pointer-events="none"/>
  </g>
  <g id="zoomMin">
    <use xlink:href="#rim" fill="#404040"><set attributeName="fill" to="#808080" begin="zoomminus.mouseover" end="zoomminus.mouseout"/></use>
    <path d="M-4,0h8" fill="none" stroke="white" stroke-width="1.5" pointer-events="none"/>
  </g>
  <g id="arrowUp" transform="translate(30 24)">
    <use xlink:href="#rim"/>
    <path pointer-events="none" fill="none" stroke="white" stroke-width="1.5" d="M0,-3.0v7 M-2.5,-0.5L0,-3.0L2.5,-0.5"/>
  </g>
  <g id="arrowRight" transform="rotate(90) translate(36 -43)">
    <use xlink:href="#rim"/>
    <path pointer-events="none" fill="none" stroke="white" stroke-width="1.5" d="M0,-3.0v7 M-2.5,-0.5L0,-3.0L2.5,-0.5"/>
  </g>
  <g id="arrowDown" transform="rotate(180) translate(-30 -48)">
    <use xlink:href="#rim"/>
    <path pointer-events="none" fill="none" stroke="white" stroke-width="1.5" d="M0,-3.0v7 M-2.5,-0.5L0,-3.0L2.5,-0.5"/>
  </g>
  <g id="arrowLeft" transform="rotate(270) translate(-36 17)">
    <use xlink:href="#rim"/>
    <path pointer-events="none" fill="none" stroke="white" stroke-width="1.5" d="M0,-3.0v7 M-2.5,-0.5L0,-3.0L2.5,-0.5"/>
  </g>
  <g id="resetDef">
    <use xlink:href="#rim2" fill="#404040"><set attributeName="fill" to="#808080" begin="reset.mouseover" end="reset.mouseout"/></use>
  </g>
</defs>
<script type="application/ecmascript">
var viewWidth = 686;
var viewHeight = 427;
var sectionId = 'dynsection-1';
</script>
<script type="application/ecmascript" xlink:href="../../svg.min.js"/>
<svg id="graph" class="graph">
<g id="viewport">
<title>src/libigl/igl/extract_non_manifold_edge_curves.h</title>
<!-- Node1 -->
<g id="Node000001" class="node">
<title>Node1</title>
<g id="a_Node000001"><a xlink:title=" ">
<polygon fill="#999999" stroke="#666666" points="630.12,-419.25 482.12,-419.25 482.12,-388.75 630.12,-388.75 630.12,-419.25"/>
<text text-anchor="start" x="490.12" y="-405.75" font-family="Helvetica,sans-Serif" font-size="10.00">src/libigl/igl/extract</text>
<text text-anchor="middle" x="556.12" y="-394.5" font-family="Helvetica,sans-Serif" font-size="10.00">_non_manifold_edge_curves.h</text>
</a>
</g>
</g>
<!-- Node2 -->
<g id="Node000002" class="node">
<title>Node2</title>
<g id="a_Node000002"><a xlink:href="../../d1/d87/propagate__winding__numbers_8cpp.html" target="_top" xlink:title=" ">
<polygon fill="white" stroke="#666666" points="458.62,-352.75 337.62,-352.75 337.62,-311 458.62,-311 458.62,-352.75"/>
<text text-anchor="start" x="345.62" y="-339.25" font-family="Helvetica,sans-Serif" font-size="10.00">src/libigl/igl/copyleft</text>
<text text-anchor="start" x="345.62" y="-328" font-family="Helvetica,sans-Serif" font-size="10.00">/cgal/propagate_winding</text>
<text text-anchor="middle" x="398.12" y="-316.75" font-family="Helvetica,sans-Serif" font-size="10.00">_numbers.cpp</text>
</a>
</g>
</g>
<!-- Node1&#45;&gt;Node2 -->
<g id="edge1_Node000001_Node000002" class="edge">
<title>Node1&#45;&gt;Node2</title>
<g id="a_edge1_Node000001_Node000002"><a xlink:title=" ">
<path fill="none" stroke="#63b8ff" d="M513.17,-383.93C491.67,-374.39 465.64,-362.84 443.79,-353.14"/>
<polygon fill="#63b8ff" stroke="#63b8ff" points="511.44,-387.44 522,-388.3 514.28,-381.04 511.44,-387.44"/>
</a>
</g>
</g>
<!-- Node16 -->
<g id="Node000016" class="node">
<title>Node16</title>
<g id="a_Node000016"><a xlink:href="../../db/da6/extract__non__manifold__edge__curves_8cpp.html" target="_top" xlink:title=" ">
<polygon fill="white" stroke="#666666" points="635.38,-347.12 476.88,-347.12 476.88,-316.62 635.38,-316.62 635.38,-347.12"/>
<text text-anchor="start" x="484.88" y="-333.62" font-family="Helvetica,sans-Serif" font-size="10.00">src/libigl/igl/extract</text>
<text text-anchor="middle" x="556.12" y="-322.38" font-family="Helvetica,sans-Serif" font-size="10.00">_non_manifold_edge_curves.cpp</text>
</a>
</g>
</g>
<!-- Node1&#45;&gt;Node16 -->
<g id="edge15_Node000001_Node000016" class="edge">
<title>Node1&#45;&gt;Node16</title>
<g id="a_edge15_Node000001_Node000016"><a xlink:title=" ">
<path fill="none" stroke="#63b8ff" d="M549.61,-377.68C549.1,-367.5 549.41,-356.13 550.53,-347.39"/>
<polygon fill="#63b8ff" stroke="#63b8ff" points="546.2,-377.8 550.53,-387.47 553.17,-377.21 546.2,-377.8"/>
</a>
</g>
</g>
<!-- Node3 -->
<g id="Node000003" class="node">
<title>Node3</title>
<g id="a_Node000003"><a xlink:href="../../d4/d7c/propagate__winding__numbers_8h.html" target="_top" xlink:title=" ">
<polygon fill="white" stroke="#666666" points="458.62,-275 337.62,-275 337.62,-233.25 458.62,-233.25 458.62,-275"/>
<text text-anchor="start" x="345.62" y="-261.5" font-family="Helvetica,sans-Serif" font-size="10.00">src/libigl/igl/copyleft</text>
<text text-anchor="start" x="345.62" y="-250.25" font-family="Helvetica,sans-Serif" font-size="10.00">/cgal/propagate_winding</text>
<text text-anchor="middle" x="398.12" y="-239" font-family="Helvetica,sans-Serif" font-size="10.00">_numbers.h</text>
</a>
</g>
</g>
<!-- Node2&#45;&gt;Node3 -->
<g id="edge2_Node000002_Node000003" class="edge">
<title>Node2&#45;&gt;Node3</title>
<g id="a_edge2_Node000002_Node000003"><a xlink:title=" ">
<path fill="none" stroke="#63b8ff" d="M391.47,-299.81C391.23,-291.61 391.43,-282.96 392.06,-275.48"/>
<polygon fill="#63b8ff" stroke="#63b8ff" points="388.02,-299.78 392.07,-309.58 395.01,-299.4 388.02,-299.78"/>
</a>
</g>
</g>
<!-- Node3&#45;&gt;Node2 -->
<g id="edge14_Node000003_Node000002" class="edge">
<title>Node3&#45;&gt;Node2</title>
<g id="a_edge14_Node000003_Node000002"><a xlink:title=" ">
<path fill="none" stroke="#63b8ff" d="M404.78,-286.25C405.01,-294.46 404.82,-303.1 404.18,-310.58"/>
<polygon fill="#63b8ff" stroke="#63b8ff" points="408.23,-286.27 404.19,-276.48 401.24,-286.66 408.23,-286.27"/>
</a>
</g>
</g>
<!-- Node4 -->
<g id="Node000004" class="node">
<title>Node4</title>
<g id="a_Node000004"><a xlink:href="../../dd/d6e/cgal_2mesh__boolean_8cpp.html" target="_top" xlink:title=" ">
<polygon fill="white" stroke="#666666" points="386,-191.62 264.25,-191.62 264.25,-161.12 386,-161.12 386,-191.62"/>
<text text-anchor="start" x="272.25" y="-178.12" font-family="Helvetica,sans-Serif" font-size="10.00">src/libigl/igl/copyleft</text>
<text text-anchor="middle" x="325.12" y="-166.88" font-family="Helvetica,sans-Serif" font-size="10.00">/cgal/mesh_boolean.cpp</text>
</a>
</g>
</g>
<!-- Node3&#45;&gt;Node4 -->
<g id="edge3_Node000003_Node000004" class="edge">
<title>Node3&#45;&gt;Node4</title>
<g id="a_edge3_Node000003_Node000004"><a xlink:title=" ">
<path fill="none" stroke="#63b8ff" d="M371.22,-225.21C360.26,-213.84 348.05,-201.17 338.96,-191.73"/>
<polygon fill="#63b8ff" stroke="#63b8ff" points="368.1,-227.05 377.56,-231.83 373.14,-222.2 368.1,-227.05"/>
</a>
</g>
</g>
<!-- Node14 -->
<g id="Node000014" class="node">
<title>Node14</title>
<g id="a_Node000014"><a xlink:href="../../d5/df0/peel__winding__number__layers_8cpp.html" target="_top" xlink:title=" ">
<polygon fill="white" stroke="#666666" points="538,-197.25 404.25,-197.25 404.25,-155.5 538,-155.5 538,-197.25"/>
<text text-anchor="start" x="412.25" y="-183.75" font-family="Helvetica,sans-Serif" font-size="10.00">src/libigl/igl/copyleft</text>
<text text-anchor="start" x="412.25" y="-172.5" font-family="Helvetica,sans-Serif" font-size="10.00">/cgal/peel_winding_number</text>
<text text-anchor="middle" x="471.12" y="-161.25" font-family="Helvetica,sans-Serif" font-size="10.00">_layers.cpp</text>
</a>
</g>
</g>
<!-- Node3&#45;&gt;Node14 -->
<g id="edge11_Node000003_Node000014" class="edge">
<title>Node3&#45;&gt;Node14</title>
<g id="a_edge11_Node000003_Node000014"><a xlink:title=" ">
<path fill="none" stroke="#63b8ff" d="M425.12,-225.11C433.87,-216.03 443.4,-206.14 451.51,-197.73"/>
<polygon fill="#63b8ff" stroke="#63b8ff" points="423.11,-222.2 418.69,-231.83 428.15,-227.05 423.11,-222.2"/>
</a>
</g>
</g>
<!-- Node5 -->
<g id="Node000005" class="node">
<title>Node5</title>
<g id="a_Node000005"><a xlink:href="../../de/db2/cgal_2mesh__boolean_8h.html" target="_top" xlink:title=" ">
<polygon fill="white" stroke="#666666" points="380.75,-113.88 269.5,-113.88 269.5,-83.38 380.75,-83.38 380.75,-113.88"/>
<text text-anchor="start" x="277.5" y="-100.38" font-family="Helvetica,sans-Serif" font-size="10.00">src/libigl/igl/copyleft</text>
<text text-anchor="middle" x="325.12" y="-89.12" font-family="Helvetica,sans-Serif" font-size="10.00">/cgal/mesh_boolean.h</text>
</a>
</g>
</g>
<!-- Node4&#45;&gt;Node5 -->
<g id="edge4_Node000004_Node000005" class="edge">
<title>Node4&#45;&gt;Node5</title>
<g id="a_edge4_Node000004_Node000005"><a xlink:title=" ">
<path fill="none" stroke="#63b8ff" d="M318.72,-150.09C318.04,-138.15 318.36,-124.34 319.67,-114.19"/>
<polygon fill="#63b8ff" stroke="#63b8ff" points="315.3,-150.12 319.67,-159.77 322.27,-149.5 315.3,-150.12"/>
</a>
</g>
</g>
<!-- Node5&#45;&gt;Node4 -->
<g id="edge7_Node000005_Node000004" class="edge">
<title>Node5&#45;&gt;Node4</title>
<g id="a_edge7_Node000005_Node000004"><a xlink:title=" ">
<path fill="none" stroke="#63b8ff" d="M331.53,-124.86C332.21,-136.79 331.89,-150.6 330.58,-160.77"/>
<polygon fill="#63b8ff" stroke="#63b8ff" points="334.95,-124.84 330.58,-115.19 327.98,-125.46 334.95,-124.84"/>
</a>
</g>
</g>
<!-- Node6 -->
<g id="Node000006" class="node">
<title>Node6</title>
<g id="a_Node000006"><a xlink:href="../../d4/d4e/_c_s_g_tree_8h.html" target="_top" xlink:title=" ">
<polygon fill="white" stroke="#666666" points="102.25,-36.12 0,-36.12 0,-5.62 102.25,-5.62 102.25,-36.12"/>
<text text-anchor="start" x="8" y="-22.62" font-family="Helvetica,sans-Serif" font-size="10.00">src/libigl/igl/copyleft</text>
<text text-anchor="middle" x="51.12" y="-11.38" font-family="Helvetica,sans-Serif" font-size="10.00">/cgal/CSGTree.h</text>
</a>
</g>
</g>
<!-- Node5&#45;&gt;Node6 -->
<g id="edge5_Node000005_Node000006" class="edge">
<title>Node5&#45;&gt;Node6</title>
<g id="a_edge5_Node000005_Node000006"><a xlink:title=" ">
<path fill="none" stroke="#63b8ff" d="M258.95,-81.52C216.51,-70.9 160.34,-56.31 111.12,-41.75 105.65,-40.13 99.93,-38.35 94.28,-36.54"/>
<polygon fill="#63b8ff" stroke="#63b8ff" points="257.88,-85.11 268.43,-84.13 259.57,-78.32 257.88,-85.11"/>
</a>
</g>
</g>
<!-- Node7 -->
<g id="Node000007" class="node">
<title>Node7</title>
<g id="a_Node000007"><a xlink:href="../../d7/d7c/intersect__with__half__space_8cpp.html" target="_top" xlink:title=" ">
<polygon fill="#fff0f0" stroke="red" points="242,-41.75 120.25,-41.75 120.25,0 242,0 242,-41.75"/>
<text text-anchor="start" x="128.25" y="-28.25" font-family="Helvetica,sans-Serif" font-size="10.00">src/libigl/igl/copyleft</text>
<text text-anchor="start" x="128.25" y="-17" font-family="Helvetica,sans-Serif" font-size="10.00">/cgal/intersect_with_half</text>
<text text-anchor="middle" x="181.12" y="-5.75" font-family="Helvetica,sans-Serif" font-size="10.00">_space.cpp</text>
</a>
</g>
</g>
<!-- Node5&#45;&gt;Node7 -->
<g id="edge6_Node000005_Node000007" class="edge">
<title>Node5&#45;&gt;Node7</title>
<g id="a_edge6_Node000005_Node000007"><a xlink:title=" ">
<path fill="none" stroke="#63b8ff" d="M287.84,-78.01C266.91,-67 240.83,-53.28 219.69,-42.16"/>
<polygon fill="#63b8ff" stroke="#63b8ff" points="285.88,-81.46 296.36,-83.02 289.14,-75.27 285.88,-81.46"/>
</a>
</g>
</g>
<!-- Node9 -->
<g id="Node000009" class="node">
<title>Node9</title>
<g id="a_Node000009"><a xlink:href="../../d2/de6/minkowski__sum_8cpp.html" target="_top" xlink:title=" ">
<polygon fill="#fff0f0" stroke="red" points="389.75,-36.12 260.5,-36.12 260.5,-5.62 389.75,-5.62 389.75,-36.12"/>
<text text-anchor="start" x="268.5" y="-22.62" font-family="Helvetica,sans-Serif" font-size="10.00">src/libigl/igl/copyleft</text>
<text text-anchor="middle" x="325.12" y="-11.38" font-family="Helvetica,sans-Serif" font-size="10.00">/cgal/minkowski_sum.cpp</text>
</a>
</g>
</g>
<!-- Node5&#45;&gt;Node9 -->
<g id="edge8_Node000005_Node000009" class="edge">
<title>Node5&#45;&gt;Node9</title>
<g id="a_edge8_Node000005_Node000009"><a xlink:title=" ">
<path fill="none" stroke="#63b8ff" d="M325.12,-72.34C325.12,-60.4 325.12,-46.59 325.12,-36.44"/>
<polygon fill="#63b8ff" stroke="#63b8ff" points="321.63,-72.02 325.12,-82.02 328.63,-72.02 321.63,-72.02"/>
</a>
</g>
</g>
<!-- Node11 -->
<g id="Node000011" class="node">
<title>Node11</title>
<g id="a_Node000011"><a xlink:href="../../d5/da7/wire__mesh_8cpp.html" target="_top" xlink:title=" ">
<polygon fill="#fff0f0" stroke="red" points="514.12,-36.12 408.12,-36.12 408.12,-5.62 514.12,-5.62 514.12,-36.12"/>
<text text-anchor="start" x="416.12" y="-22.62" font-family="Helvetica,sans-Serif" font-size="10.00">src/libigl/igl/copyleft</text>
<text text-anchor="middle" x="461.12" y="-11.38" font-family="Helvetica,sans-Serif" font-size="10.00">/cgal/wire_mesh.cpp</text>
</a>
</g>
</g>
<!-- Node5&#45;&gt;Node11 -->
<g id="edge9_Node000005_Node000011" class="edge">
<title>Node5&#45;&gt;Node11</title>
<g id="a_edge9_Node000005_Node000011"><a xlink:title=" ">
<path fill="none" stroke="#63b8ff" d="M360.87,-77.72C384.13,-64.76 413.93,-48.16 434.98,-36.44"/>
<polygon fill="#63b8ff" stroke="#63b8ff" points="359.38,-75.1 352.35,-83.02 362.79,-81.21 359.38,-75.1"/>
</a>
</g>
</g>
<!-- Node13 -->
<g id="Node000013" class="node">
<title>Node13</title>
<g id="a_Node000013"><a xlink:href="../../d7/dc0/_mesh_boolean_8cpp.html" target="_top" xlink:title=" ">
<polygon fill="white" stroke="#666666" points="678.38,-30.5 531.88,-30.5 531.88,-11.25 678.38,-11.25 678.38,-30.5"/>
<text text-anchor="middle" x="605.12" y="-17" font-family="Helvetica,sans-Serif" font-size="10.00">src/libslic3r/MeshBoolean.cpp</text>
</a>
</g>
</g>
<!-- Node5&#45;&gt;Node13 -->
<g id="edge10_Node000005_Node000013" class="edge">
<title>Node5&#45;&gt;Node13</title>
<g id="a_edge10_Node000005_Node000013"><a xlink:title=" ">
<path fill="none" stroke="#63b8ff" d="M386.7,-80.08C389.55,-79.29 392.37,-78.51 395.12,-77.75 456.6,-60.85 528.43,-41.91 570.15,-30.99"/>
<polygon fill="#63b8ff" stroke="#63b8ff" points="386.01,-76.92 377.33,-82.98 387.9,-83.66 386.01,-76.92"/>
</a>
</g>
</g>
<!-- Node15 -->
<g id="Node000015" class="node">
<title>Node15</title>
<g id="a_Node000015"><a xlink:href="../../dd/df7/peel__winding__number__layers_8h.html" target="_top" xlink:title=" ">
<polygon fill="white" stroke="#666666" points="538,-119.5 404.25,-119.5 404.25,-77.75 538,-77.75 538,-119.5"/>
<text text-anchor="start" x="412.25" y="-106" font-family="Helvetica,sans-Serif" font-size="10.00">src/libigl/igl/copyleft</text>
<text text-anchor="start" x="412.25" y="-94.75" font-family="Helvetica,sans-Serif" font-size="10.00">/cgal/peel_winding_number</text>
<text text-anchor="middle" x="471.12" y="-83.5" font-family="Helvetica,sans-Serif" font-size="10.00">_layers.h</text>
</a>
</g>
</g>
<!-- Node14&#45;&gt;Node15 -->
<g id="edge12_Node000014_Node000015" class="edge">
<title>Node14&#45;&gt;Node15</title>
<g id="a_edge12_Node000014_Node000015"><a xlink:title=" ">
<path fill="none" stroke="#63b8ff" d="M464.47,-144.31C464.23,-136.11 464.43,-127.46 465.06,-119.98"/>
<polygon fill="#63b8ff" stroke="#63b8ff" points="461.02,-144.28 465.07,-154.08 468.01,-143.9 461.02,-144.28"/>
</a>
</g>
</g>
<!-- Node15&#45;&gt;Node14 -->
<g id="edge13_Node000015_Node000014" class="edge">
<title>Node15&#45;&gt;Node14</title>
<g id="a_edge13_Node000015_Node000014"><a xlink:title=" ">
<path fill="none" stroke="#63b8ff" d="M477.78,-130.75C478.01,-138.96 477.82,-147.6 477.18,-155.08"/>
<polygon fill="#63b8ff" stroke="#63b8ff" points="481.23,-130.77 477.19,-120.98 474.24,-131.16 481.23,-130.77"/>
</a>
</g>
</g>
<!-- Node16&#45;&gt;Node1 -->
<g id="edge16_Node000016_Node000001" class="edge">
<title>Node16&#45;&gt;Node1</title>
<g id="a_edge16_Node000016_Node000001"><a xlink:title=" ">
<path fill="none" stroke="#63b8ff" d="M562.64,-358.17C563.15,-368.35 562.84,-379.73 561.72,-388.47"/>
<polygon fill="#63b8ff" stroke="#63b8ff" points="566.05,-358.05 561.72,-348.39 559.08,-358.65 566.05,-358.05"/>
</a>
</g>
</g>
</g>
</svg>

<g id="navigator" transform="translate(0 0)" fill="#404254">
  <rect fill="#f2f5e9" fill-opacity="0.5" stroke="#606060" stroke-width=".5" x="0" y="0" width="60" height="60"/>
  <use id="zoomplus" xlink:href="#zoomPlus" x="17" y="9" onmousedown="handleZoom(evt,'in')"/>
  <use id="zoomminus" xlink:href="#zoomMin" x="42" y="9" onmousedown="handleZoom(evt,'out')"/>
  <use id="reset" xlink:href="#resetDef" x="30" y="36" onmousedown="handleReset()"/>
   <use id="arrowup" xlink:href="#arrowUp" x="0" y="0" onmousedown="handlePan(0,-1)"/>
  <use id="arrowright" xlink:href="#arrowRight" x="0" y="0" onmousedown="handlePan(1,0)"/>
  <use id="arrowdown" xlink:href="#arrowDown" x="0" y="0" onmousedown="handlePan(0,1)"/>
  <use id="arrowleft" xlink:href="#arrowLeft" x="0" y="0" onmousedown="handlePan(-1,0)"/>
</g>
<svg viewBox="0 0 15 15" width="100%" height="30px" preserveAspectRatio="xMaxYMin meet">
 <g id="arrow_out" transform="scale(0.3 0.3)">
  <a xlink:href="extract__non__manifold__edge__curves_8h__dep__incl_org.svg" target="_base">
   <rect id="button" ry="5" rx="5" y="6" x="6" height="38" width="38"
        fill="#f2f5e9" fill-opacity="0.5" stroke="#606060" stroke-width="1.0"/>
   <path id="arrow"
     d="M 11.500037,31.436501 C 11.940474,20.09759 22.043105,11.32322 32.158766,21.979434 L 37.068811,17.246167 C 37.068811,17.246167 37.088388,32 37.088388,32 L 22.160133,31.978069 C 22.160133,31.978069 26.997745,27.140456 26.997745,27.140456 C 18.528582,18.264221 13.291696,25.230495 11.500037,31.436501 z"
     style="fill:#404040;"/>
  </a>
 </g>
</svg>

<style type='text/css'>
<![CDATA[
[data-mouse-over-selected='false'] { opacity: 0.7; }
[data-mouse-over-selected='true']  { opacity: 1.0; }
]]>
</style>
<script type="application/ecmascript"><![CDATA[
document.addEventListener('DOMContentLoaded', (event) => {
  highlightEdges();
  highlightAdjacentNodes();
});
]]></script>
</svg>
