<?xml version="1.0" encoding="UTF-8" standalone="no"?>
<!DOCTYPE svg PUBLIC "-//W3C//DTD SVG 1.1//EN"
 "http://www.w3.org/Graphics/SVG/1.1/DTD/svg11.dtd">
<!-- Generated by graphviz version 8.0.5 (20230430.1635)
 -->
<!-- Title: Slic3r::Arachne::SkeletalTrapezoidationGraph::makeRib Pages: 1 -->
<svg width="703pt" height="174pt"
 viewBox="0.00 0.00 703.00 174.25" xmlns="http://www.w3.org/2000/svg" xmlns:xlink="http://www.w3.org/1999/xlink">
<g id="graph0" class="graph" transform="scale(1 1) rotate(0) translate(4 170.25)">
<title>Slic3r::Arachne::SkeletalTrapezoidationGraph::makeRib</title>
<!-- Node1 -->
<g id="Node000001" class="node">
<title>Node1</title>
<g id="a_Node000001"><a xlink:title=" ">
<polygon fill="#999999" stroke="#666666" points="151,-88.88 0,-88.88 0,-58.38 151,-58.38 151,-88.88"/>
<text text-anchor="start" x="8" y="-75.38" font-family="Helvetica,sans-Serif" font-size="10.00">Slic3r::Arachne::Skeletal</text>
<text text-anchor="middle" x="75.5" y="-64.12" font-family="Helvetica,sans-Serif" font-size="10.00">TrapezoidationGraph::makeRib</text>
</a>
</g>
</g>
<!-- Node2 -->
<g id="Node000002" class="node">
<title>Node2</title>
<g id="a_Node000002"><a xlink:href="../../d6/d3b/class_slic3r_1_1_line.html#a41013e0cf9dc271a60cb47c177fdd4c4" target="_top" xlink:title=" ">
<polygon fill="white" stroke="#666666" points="294.5,-88.88 187,-88.88 187,-58.38 294.5,-58.38 294.5,-88.88"/>
<text text-anchor="start" x="195" y="-75.38" font-family="Helvetica,sans-Serif" font-size="10.00">Slic3r::Line::distance</text>
<text text-anchor="middle" x="240.75" y="-64.12" font-family="Helvetica,sans-Serif" font-size="10.00">_to_infinite_squared</text>
</a>
</g>
</g>
<!-- Node1&#45;&gt;Node2 -->
<g id="edge1_Node000001_Node000002" class="edge">
<title>Node1&#45;&gt;Node2</title>
<g id="a_edge1_Node000001_Node000002"><a xlink:title=" ">
<path fill="none" stroke="#63b8ff" d="M151.44,-73.62C159.62,-73.62 167.89,-73.62 175.92,-73.62"/>
<polygon fill="#63b8ff" stroke="#63b8ff" points="175.69,-77.13 185.69,-73.62 175.69,-70.13 175.69,-77.13"/>
</a>
</g>
</g>
<!-- Node3 -->
<g id="Node000003" class="node">
<title>Node3</title>
<g id="a_Node000003"><a xlink:href="../../dd/dd0/namespace_slic3r_1_1line__alg.html#ad79a2c19b547e45b2c1535103fb79e6f" target="_top" xlink:title=" ">
<polygon fill="white" stroke="#666666" points="453,-88.88 330.5,-88.88 330.5,-58.38 453,-58.38 453,-88.88"/>
<text text-anchor="start" x="338.5" y="-75.38" font-family="Helvetica,sans-Serif" font-size="10.00">Slic3r::line_alg::distance</text>
<text text-anchor="middle" x="391.75" y="-64.12" font-family="Helvetica,sans-Serif" font-size="10.00">_to_infinite_squared</text>
</a>
</g>
</g>
<!-- Node2&#45;&gt;Node3 -->
<g id="edge2_Node000002_Node000003" class="edge">
<title>Node2&#45;&gt;Node3</title>
<g id="a_edge2_Node000002_Node000003"><a xlink:title=" ">
<path fill="none" stroke="#63b8ff" d="M294.7,-73.62C302.67,-73.62 311,-73.62 319.27,-73.62"/>
<polygon fill="#63b8ff" stroke="#63b8ff" points="319.09,-77.13 329.09,-73.62 319.09,-70.13 319.09,-77.13"/>
</a>
</g>
</g>
<!-- Node4 -->
<g id="Node000004" class="node">
<title>Node4</title>
<g id="a_Node000004"><a xlink:href="../../d5/df7/_common_cwise_unary_ops_8h.html#aa89d007196125d10fa7d6e19811aca05" target="_top" xlink:title=" ">
<polygon fill="white" stroke="#666666" points="561.25,-166.25 526.5,-166.25 526.5,-147 561.25,-147 561.25,-166.25"/>
<text text-anchor="middle" x="543.88" y="-152.75" font-family="Helvetica,sans-Serif" font-size="10.00">cast</text>
</a>
</g>
</g>
<!-- Node3&#45;&gt;Node4 -->
<g id="edge3_Node000003_Node000004" class="edge">
<title>Node3&#45;&gt;Node4</title>
<g id="a_edge3_Node000003_Node000004"><a xlink:title=" ">
<path fill="none" stroke="#63b8ff" d="M412.42,-89.26C431.22,-103.62 460.79,-124.71 489,-138.62 497.46,-142.8 507.11,-146.36 515.89,-149.19"/>
<polygon fill="#63b8ff" stroke="#63b8ff" points="514.8,-152.82 525.39,-152.38 516.83,-146.13 514.8,-152.82"/>
</a>
</g>
</g>
<!-- Node5 -->
<g id="Node000005" class="node">
<title>Node5</title>
<g id="a_Node000005"><a xlink:href="../../dd/dd0/namespace_slic3r_1_1line__alg.html#a40c38dd07021734519ce9d5f5897e0ae" target="_top" xlink:title=" ">
<polygon fill="white" stroke="#666666" points="598.75,-111.25 489,-111.25 489,-92 598.75,-92 598.75,-111.25"/>
<text text-anchor="middle" x="543.88" y="-97.75" font-family="Helvetica,sans-Serif" font-size="10.00">Slic3r::line_alg::get_a</text>
</a>
</g>
</g>
<!-- Node3&#45;&gt;Node5 -->
<g id="edge4_Node000003_Node000005" class="edge">
<title>Node3&#45;&gt;Node5</title>
<g id="a_edge4_Node000003_Node000005"><a xlink:title=" ">
<path fill="none" stroke="#63b8ff" d="M453.38,-84.93C461.53,-86.45 469.91,-88.02 478.13,-89.55"/>
<polygon fill="#63b8ff" stroke="#63b8ff" points="477.32,-93.15 487.8,-91.54 478.61,-86.26 477.32,-93.15"/>
</a>
</g>
</g>
<!-- Node6 -->
<g id="Node000006" class="node">
<title>Node6</title>
<g id="a_Node000006"><a xlink:href="../../dd/dd0/namespace_slic3r_1_1line__alg.html#a06c05051babc1927a1f24f9fdd70516e" target="_top" xlink:title=" ">
<polygon fill="white" stroke="#666666" points="598.75,-56.25 489,-56.25 489,-37 598.75,-37 598.75,-56.25"/>
<text text-anchor="middle" x="543.88" y="-42.75" font-family="Helvetica,sans-Serif" font-size="10.00">Slic3r::line_alg::get_b</text>
</a>
</g>
</g>
<!-- Node3&#45;&gt;Node6 -->
<g id="edge6_Node000003_Node000006" class="edge">
<title>Node3&#45;&gt;Node6</title>
<g id="a_edge6_Node000003_Node000006"><a xlink:title=" ">
<path fill="none" stroke="#63b8ff" d="M453.38,-62.72C461.53,-61.26 469.91,-59.75 478.13,-58.27"/>
<polygon fill="#63b8ff" stroke="#63b8ff" points="478.57,-61.57 487.8,-56.35 477.33,-54.68 478.57,-61.57"/>
</a>
</g>
</g>
<!-- Node7 -->
<g id="Node000007" class="node">
<title>Node7</title>
<g id="a_Node000007"><a xlink:href="../../de/db8/namespace_slic3r.html#a1e045f56a994b8cd4a5b203626cd8272" target="_top" xlink:title=" ">
<polygon fill="white" stroke="#666666" points="571,-19.25 516.75,-19.25 516.75,0 571,0 571,-19.25"/>
<text text-anchor="middle" x="543.88" y="-5.75" font-family="Helvetica,sans-Serif" font-size="10.00">Slic3r::l2</text>
</a>
</g>
</g>
<!-- Node3&#45;&gt;Node7 -->
<g id="edge8_Node000003_Node000007" class="edge">
<title>Node3&#45;&gt;Node7</title>
<g id="a_edge8_Node000003_Node000007"><a xlink:title=" ">
<path fill="none" stroke="#63b8ff" d="M423.09,-57.94C441.83,-48.55 466.51,-36.72 489,-27.62 494.49,-25.41 500.36,-23.24 506.14,-21.22"/>
<polygon fill="#63b8ff" stroke="#63b8ff" points="506.98,-24.29 515.33,-17.77 504.74,-17.66 506.98,-24.29"/>
</a>
</g>
</g>
<!-- Node5&#45;&gt;Node5 -->
<g id="edge5_Node000005_Node000005" class="edge">
<title>Node5&#45;&gt;Node5</title>
<g id="a_edge5_Node000005_Node000005"><a xlink:title=" ">
<path fill="none" stroke="#63b8ff" d="M524.93,-111.54C516.29,-120.15 522.61,-129.25 543.88,-129.25 556.17,-129.25 563.47,-126.21 565.77,-121.98"/>
<polygon fill="#63b8ff" stroke="#63b8ff" points="568.91,-121.21 562.82,-112.54 562.17,-123.11 568.91,-121.21"/>
</a>
</g>
</g>
<!-- Node6&#45;&gt;Node6 -->
<g id="edge7_Node000006_Node000006" class="edge">
<title>Node6&#45;&gt;Node6</title>
<g id="a_edge7_Node000006_Node000006"><a xlink:title=" ">
<path fill="none" stroke="#63b8ff" d="M524.93,-56.54C516.29,-65.15 522.61,-74.25 543.88,-74.25 556.17,-74.25 563.47,-71.21 565.77,-66.98"/>
<polygon fill="#63b8ff" stroke="#63b8ff" points="568.91,-66.21 562.82,-57.54 562.17,-68.11 568.91,-66.21"/>
</a>
</g>
</g>
<!-- Node8 -->
<g id="Node000008" class="node">
<title>Node8</title>
<g id="a_Node000008"><a xlink:href="../../de/db8/namespace_slic3r.html#adb8a52f0ebfe5a551577b3e530b40c47" target="_top" xlink:title=" ">
<polygon fill="white" stroke="#666666" points="695,-19.25 634.75,-19.25 634.75,0 695,0 695,-19.25"/>
<text text-anchor="middle" x="664.88" y="-5.75" font-family="Helvetica,sans-Serif" font-size="10.00">Slic3r::dot</text>
</a>
</g>
</g>
<!-- Node7&#45;&gt;Node8 -->
<g id="edge9_Node000007_Node000008" class="edge">
<title>Node7&#45;&gt;Node8</title>
<g id="a_edge9_Node000007_Node000008"><a xlink:title=" ">
<path fill="none" stroke="#63b8ff" d="M571.28,-9.62C586.68,-9.62 606.4,-9.62 623.68,-9.62"/>
<polygon fill="#63b8ff" stroke="#63b8ff" points="623.62,-13.13 633.62,-9.62 623.62,-6.13 623.62,-13.13"/>
</a>
</g>
</g>
</g>
</svg>
