<?xml version="1.0" encoding="UTF-8" standalone="no"?>
<!DOCTYPE svg PUBLIC "-//W3C//DTD SVG 1.1//EN"
 "http://www.w3.org/Graphics/SVG/1.1/DTD/svg11.dtd">
<!-- Generated by graphviz version 8.0.5 (20230430.1635)
 -->
<!-- Title: Slic3r::Arachne::SkeletalTrapezoidationGraph::insertRib Pages: 1 -->
<svg width="357pt" height="155pt"
 viewBox="0.00 0.00 356.50 154.50" xmlns="http://www.w3.org/2000/svg" xmlns:xlink="http://www.w3.org/1999/xlink">
<g id="graph0" class="graph" transform="scale(1 1) rotate(0) translate(4 150.5)">
<title>Slic3r::Arachne::SkeletalTrapezoidationGraph::insertRib</title>
<!-- Node1 -->
<g id="Node000001" class="node">
<title>Node1</title>
<g id="a_Node000001"><a xlink:title=" ">
<polygon fill="#999999" stroke="#666666" points="151,-79.5 0,-79.5 0,-49 151,-49 151,-79.5"/>
<text text-anchor="start" x="8" y="-66" font-family="Helvetica,sans-Serif" font-size="10.00">Slic3r::Arachne::Skeletal</text>
<text text-anchor="middle" x="75.5" y="-54.75" font-family="Helvetica,sans-Serif" font-size="10.00">TrapezoidationGraph::insertRib</text>
</a>
</g>
</g>
<!-- Node2 -->
<g id="Node000002" class="node">
<title>Node2</title>
<g id="a_Node000002"><a xlink:href="../../d6/d3b/class_slic3r_1_1_line.html#a82d50986d5a325648e62c24fa24557b0" target="_top" xlink:title=" ">
<polygon fill="white" stroke="#666666" points="321.5,-128.5 214,-128.5 214,-98 321.5,-98 321.5,-128.5"/>
<text text-anchor="start" x="222" y="-115" font-family="Helvetica,sans-Serif" font-size="10.00">Slic3r::Line::distance</text>
<text text-anchor="middle" x="267.75" y="-103.75" font-family="Helvetica,sans-Serif" font-size="10.00">_to_squared</text>
</a>
</g>
</g>
<!-- Node1&#45;&gt;Node2 -->
<g id="edge1_Node000001_Node000002" class="edge">
<title>Node1&#45;&gt;Node2</title>
<g id="a_edge1_Node000001_Node000002"><a xlink:title=" ">
<path fill="none" stroke="#63b8ff" d="M137.48,-79.96C158.49,-85.37 182.07,-91.44 203.28,-96.9"/>
<polygon fill="#63b8ff" stroke="#63b8ff" points="202.24,-100.51 212.8,-99.61 203.99,-93.73 202.24,-100.51"/>
</a>
</g>
</g>
<!-- Node3 -->
<g id="Node000003" class="node">
<title>Node3</title>
<g id="a_Node000003"><a xlink:href="../../d0/dcc/class_slic3r_1_1_arachne_1_1_skeletal_trapezoidation_graph.html#ac6074f4735e96b5345610f90defb25a6" target="_top" xlink:title=" ">
<polygon fill="white" stroke="#666666" points="345.88,-79.5 189.62,-79.5 189.62,-49 345.88,-49 345.88,-79.5"/>
<text text-anchor="start" x="197.62" y="-66" font-family="Helvetica,sans-Serif" font-size="10.00">Slic3r::Arachne::Skeletal</text>
<text text-anchor="middle" x="267.75" y="-54.75" font-family="Helvetica,sans-Serif" font-size="10.00">TrapezoidationGraph::getSource</text>
</a>
</g>
</g>
<!-- Node1&#45;&gt;Node3 -->
<g id="edge3_Node000001_Node000003" class="edge">
<title>Node1&#45;&gt;Node3</title>
<g id="a_edge3_Node000001_Node000003"><a xlink:title=" ">
<path fill="none" stroke="#63b8ff" d="M151.42,-64.25C160.29,-64.25 169.41,-64.25 178.44,-64.25"/>
<polygon fill="#63b8ff" stroke="#63b8ff" points="178.4,-67.75 188.4,-64.25 178.4,-60.75 178.4,-67.75"/>
</a>
</g>
</g>
<!-- Node4 -->
<g id="Node000004" class="node">
<title>Node4</title>
<g id="a_Node000004"><a xlink:href="../../d7/d9b/class_slic3r_1_1_arachne_1_1_skeletal_trapezoidation_edge.html#ac6a512d25c276d19178a044c7bffdf7c" target="_top" xlink:title=" ">
<polygon fill="white" stroke="#666666" points="348.5,-30.5 187,-30.5 187,0 348.5,0 348.5,-30.5"/>
<text text-anchor="start" x="195" y="-17" font-family="Helvetica,sans-Serif" font-size="10.00">Slic3r::Arachne::Skeletal</text>
<text text-anchor="middle" x="267.75" y="-5.75" font-family="Helvetica,sans-Serif" font-size="10.00">TrapezoidationEdge::setIsCentral</text>
</a>
</g>
</g>
<!-- Node1&#45;&gt;Node4 -->
<g id="edge4_Node000001_Node000004" class="edge">
<title>Node1&#45;&gt;Node4</title>
<g id="a_edge4_Node000001_Node000004"><a xlink:title=" ">
<path fill="none" stroke="#63b8ff" d="M137.48,-48.54C155.91,-43.8 176.32,-38.54 195.37,-33.64"/>
<polygon fill="#63b8ff" stroke="#63b8ff" points="195.98,-36.83 204.79,-30.95 194.23,-30.06 195.98,-36.83"/>
</a>
</g>
</g>
<!-- Node2&#45;&gt;Node2 -->
<g id="edge2_Node000002_Node000002" class="edge">
<title>Node2&#45;&gt;Node2</title>
<g id="a_edge2_Node000002_Node000002"><a xlink:title=" ">
<path fill="none" stroke="#63b8ff" d="M233.68,-128.99C226.73,-138.06 238.09,-146.5 267.75,-146.5 284.44,-146.5 295.33,-143.83 300.43,-139.88"/>
<polygon fill="#63b8ff" stroke="#63b8ff" points="304.02,-140.35 301.82,-129.99 297.08,-139.46 304.02,-140.35"/>
</a>
</g>
</g>
</g>
</svg>
