<?xml version="1.0" encoding="UTF-8" standalone="no"?>
<!DOCTYPE svg PUBLIC "-//W3C//DTD SVG 1.1//EN"
 "http://www.w3.org/Graphics/SVG/1.1/DTD/svg11.dtd">
<!-- Generated by graphviz version 8.0.5 (20230430.1635)
 -->
<!-- Title: Slic3r::AppConfig::erase Pages: 1 -->
<svg width="528pt" height="76pt"
 viewBox="0.00 0.00 528.00 75.88" xmlns="http://www.w3.org/2000/svg" xmlns:xlink="http://www.w3.org/1999/xlink">
<g id="graph0" class="graph" transform="scale(1 1) rotate(0) translate(4 71.88)">
<title>Slic3r::AppConfig::erase</title>
<!-- Node1 -->
<g id="Node000001" class="node">
<title>Node1</title>
<g id="a_Node000001"><a xlink:title=" ">
<polygon fill="#999999" stroke="#666666" points="520,-51.5 421.5,-51.5 421.5,-21 520,-21 520,-51.5"/>
<text text-anchor="start" x="429.5" y="-38" font-family="Helvetica,sans-Serif" font-size="10.00">Slic3r::AppConfig::</text>
<text text-anchor="middle" x="470.75" y="-26.75" font-family="Helvetica,sans-Serif" font-size="10.00">erase</text>
</a>
</g>
</g>
<!-- Node2 -->
<g id="Node000002" class="node">
<title>Node2</title>
<g id="a_Node000002"><a xlink:href="../../da/d00/class_slic3r_1_1_app_config.html#a4a47535a2b7c54c47a04b8a03e5acd4b" target="_top" xlink:title=" ">
<polygon fill="white" stroke="#666666" points="385.5,-51.5 287,-51.5 287,-21 385.5,-21 385.5,-51.5"/>
<text text-anchor="start" x="295" y="-38" font-family="Helvetica,sans-Serif" font-size="10.00">Slic3r::AppConfig::</text>
<text text-anchor="middle" x="336.25" y="-26.75" font-family="Helvetica,sans-Serif" font-size="10.00">set_defaults</text>
</a>
</g>
</g>
<!-- Node1&#45;&gt;Node2 -->
<g id="edge1_Node000001_Node000002" class="edge">
<title>Node1&#45;&gt;Node2</title>
<g id="a_edge1_Node000001_Node000002"><a xlink:title=" ">
<path fill="none" stroke="#63b8ff" d="M410.18,-36.25C402.04,-36.25 393.75,-36.25 385.83,-36.25"/>
<polygon fill="#63b8ff" stroke="#63b8ff" points="410.16,-39.75 420.16,-36.25 410.16,-32.75 410.16,-39.75"/>
</a>
</g>
</g>
<!-- Node3 -->
<g id="Node000003" class="node">
<title>Node3</title>
<g id="a_Node000003"><a xlink:href="../../da/d00/class_slic3r_1_1_app_config.html#a10cc0e9cae8e299e37a851a52a78b1f6" target="_top" xlink:title=" ">
<polygon fill="white" stroke="#666666" points="116.5,-67.88 0,-67.88 0,-48.62 116.5,-48.62 116.5,-67.88"/>
<text text-anchor="middle" x="58.25" y="-54.38" font-family="Helvetica,sans-Serif" font-size="10.00">Slic3r::AppConfig::load</text>
</a>
</g>
</g>
<!-- Node2&#45;&gt;Node3 -->
<g id="edge2_Node000002_Node000003" class="edge">
<title>Node2&#45;&gt;Node3</title>
<g id="a_edge2_Node000002_Node000003"><a xlink:title=" ">
<path fill="none" stroke="#63b8ff" d="M275.87,-40.98C228.7,-44.74 163.15,-49.97 116.54,-53.68"/>
<polygon fill="#63b8ff" stroke="#63b8ff" points="275.85,-44.42 285.54,-40.13 275.3,-37.44 275.85,-44.42"/>
</a>
</g>
</g>
<!-- Node4 -->
<g id="Node000004" class="node">
<title>Node4</title>
<g id="a_Node000004"><a xlink:href="../../da/d00/class_slic3r_1_1_app_config.html#a0e92bc27b4d59d5b82bb3328516cc4ca" target="_top" xlink:title=" ">
<polygon fill="white" stroke="#666666" points="251,-30.5 152.5,-30.5 152.5,0 251,0 251,-30.5"/>
<text text-anchor="start" x="160.5" y="-17" font-family="Helvetica,sans-Serif" font-size="10.00">Slic3r::AppConfig::</text>
<text text-anchor="middle" x="201.75" y="-5.75" font-family="Helvetica,sans-Serif" font-size="10.00">reset</text>
</a>
</g>
</g>
<!-- Node2&#45;&gt;Node4 -->
<g id="edge3_Node000002_Node000004" class="edge">
<title>Node2&#45;&gt;Node4</title>
<g id="a_edge3_Node000002_Node000004"><a xlink:title=" ">
<path fill="none" stroke="#63b8ff" d="M275.96,-26.85C267.72,-25.55 259.34,-24.22 251.33,-22.95"/>
<polygon fill="#63b8ff" stroke="#63b8ff" points="275.24,-30.44 285.66,-28.55 276.34,-23.53 275.24,-30.44"/>
</a>
</g>
</g>
<!-- Node4&#45;&gt;Node3 -->
<g id="edge5_Node000004_Node000003" class="edge">
<title>Node4&#45;&gt;Node3</title>
<g id="a_edge5_Node000004_Node000003"><a xlink:title=" ">
<path fill="none" stroke="#63b8ff" d="M141.72,-33.19C124.89,-38.3 107.14,-43.7 92.45,-48.16"/>
<polygon fill="#63b8ff" stroke="#63b8ff" points="142.5,-36.3 151.05,-30.05 140.47,-29.61 142.5,-36.3"/>
</a>
</g>
</g>
<!-- Node5 -->
<g id="Node000005" class="node">
<title>Node5</title>
<g id="a_Node000005"><a xlink:href="../../da/d00/class_slic3r_1_1_app_config.html#aa73abd3f60cf5aa93339ea7a74c1ca80" target="_top" xlink:title=" ">
<polygon fill="white" stroke="#666666" points="107.5,-30.5 9,-30.5 9,0 107.5,0 107.5,-30.5"/>
<text text-anchor="start" x="17" y="-17" font-family="Helvetica,sans-Serif" font-size="10.00">Slic3r::AppConfig::</text>
<text text-anchor="middle" x="58.25" y="-5.75" font-family="Helvetica,sans-Serif" font-size="10.00">AppConfig</text>
</a>
</g>
</g>
<!-- Node4&#45;&gt;Node5 -->
<g id="edge4_Node000004_Node000005" class="edge">
<title>Node4&#45;&gt;Node5</title>
<g id="a_edge4_Node000004_Node000005"><a xlink:title=" ">
<path fill="none" stroke="#63b8ff" d="M141.4,-15.25C130.12,-15.25 118.44,-15.25 107.56,-15.25"/>
<polygon fill="#63b8ff" stroke="#63b8ff" points="141.05,-18.75 151.05,-15.25 141.05,-11.75 141.05,-18.75"/>
</a>
</g>
</g>
</g>
</svg>
