<?xml version="1.0" encoding="UTF-8" standalone="no"?>
<!DOCTYPE svg PUBLIC "-//W3C//DTD SVG 1.1//EN"
 "http://www.w3.org/Graphics/SVG/1.1/DTD/svg11.dtd">
<!-- Generated by graphviz version 8.0.5 (20230430.1635)
 -->
<!-- Title: Slic3r::AppConfig::save Pages: 1 -->
<svg width="597pt" height="371pt"
 viewBox="0.00 0.00 597.00 370.88" xmlns="http://www.w3.org/2000/svg" xmlns:xlink="http://www.w3.org/1999/xlink">
<g id="graph0" class="graph" transform="scale(1 1) rotate(0) translate(4 366.88)">
<title>Slic3r::AppConfig::save</title>
<!-- Node1 -->
<g id="Node000001" class="node">
<title>Node1</title>
<g id="a_Node000001"><a xlink:title=" ">
<polygon fill="#999999" stroke="#666666" points="119.5,-186.88 0,-186.88 0,-167.62 119.5,-167.62 119.5,-186.88"/>
<text text-anchor="middle" x="59.75" y="-173.38" font-family="Helvetica,sans-Serif" font-size="10.00">Slic3r::AppConfig::save</text>
</a>
</g>
</g>
<!-- Node2 -->
<g id="Node000002" class="node">
<title>Node2</title>
<g id="a_Node000002"><a xlink:href="../../da/d00/class_slic3r_1_1_app_config.html#adf5cf0a72591418262031b24ffb82bab" target="_top" xlink:title=" ">
<polygon fill="white" stroke="#666666" points="272.75,-353.5 174.25,-353.5 174.25,-323 272.75,-323 272.75,-353.5"/>
<text text-anchor="start" x="182.25" y="-340" font-family="Helvetica,sans-Serif" font-size="10.00">Slic3r::AppConfig::</text>
<text text-anchor="middle" x="223.5" y="-328.75" font-family="Helvetica,sans-Serif" font-size="10.00">config_path</text>
</a>
</g>
</g>
<!-- Node1&#45;&gt;Node2 -->
<g id="edge1_Node000001_Node000002" class="edge">
<title>Node1&#45;&gt;Node2</title>
<g id="a_edge1_Node000001_Node000002"><a xlink:title=" ">
<path fill="none" stroke="#63b8ff" d="M66.57,-187.14C80.01,-209.34 115.13,-263.93 155.5,-299.25 163.01,-305.82 171.8,-311.86 180.48,-317.12"/>
<polygon fill="#63b8ff" stroke="#63b8ff" points="178.4,-320.54 188.81,-322.52 181.9,-314.48 178.4,-320.54"/>
</a>
</g>
</g>
<!-- Node4 -->
<g id="Node000004" class="node">
<title>Node4</title>
<g id="a_Node000004"><a xlink:href="../../de/db8/namespace_slic3r.html#a1f6b7ac36e3a539d2bda1ac170f9ed02" target="_top" xlink:title=" ">
<polygon fill="white" stroke="#666666" points="266.38,-289.88 180.62,-289.88 180.62,-270.62 266.38,-270.62 266.38,-289.88"/>
<text text-anchor="middle" x="223.5" y="-276.38" font-family="Helvetica,sans-Serif" font-size="10.00">Slic3r::copy_file</text>
</a>
</g>
</g>
<!-- Node1&#45;&gt;Node4 -->
<g id="edge3_Node000001_Node000004" class="edge">
<title>Node1&#45;&gt;Node4</title>
<g id="a_edge3_Node000001_Node000004"><a xlink:title=" ">
<path fill="none" stroke="#63b8ff" d="M70.37,-187.3C86.57,-203.73 120.92,-236.47 155.5,-256.25 162.13,-260.04 169.47,-263.41 176.79,-266.32"/>
<polygon fill="#63b8ff" stroke="#63b8ff" points="175.45,-269.93 186.04,-270.15 177.9,-263.37 175.45,-269.93"/>
</a>
</g>
</g>
<!-- Node7 -->
<g id="Node000007" class="node">
<title>Node7</title>
<g id="a_Node000007"><a xlink:href="../../de/db8/namespace_slic3r.html#a9ee171048d9ae21bf84f5fa89506bd2b" target="_top" xlink:title=" ">
<polygon fill="white" stroke="#666666" points="441.75,-251.88 344.75,-251.88 344.75,-232.62 441.75,-232.62 441.75,-251.88"/>
<text text-anchor="middle" x="393.25" y="-238.38" font-family="Helvetica,sans-Serif" font-size="10.00">Slic3r::rename_file</text>
</a>
</g>
</g>
<!-- Node1&#45;&gt;Node7 -->
<g id="edge17_Node000001_Node000007" class="edge">
<title>Node1&#45;&gt;Node7</title>
<g id="a_edge17_Node000001_Node000007"><a xlink:title=" ">
<path fill="none" stroke="#63b8ff" d="M76.79,-187.35C95.07,-198.3 126.21,-215.27 155.5,-223.25 214.74,-239.39 285.16,-243.18 333.72,-243.53"/>
<polygon fill="#63b8ff" stroke="#63b8ff" points="333.64,-247.03 343.65,-243.55 333.66,-240.03 333.64,-247.03"/>
</a>
</g>
</g>
<!-- Node8 -->
<g id="Node000008" class="node">
<title>Node8</title>
<g id="a_Node000008"><a xlink:href="../../de/db8/namespace_slic3r.html#af0ba93eb38e1604641b4f38c82994b20" target="_top" xlink:title=" ">
<polygon fill="white" stroke="#666666" points="279.88,-214.5 167.12,-214.5 167.12,-184 279.88,-184 279.88,-214.5"/>
<text text-anchor="start" x="175.12" y="-201" font-family="Helvetica,sans-Serif" font-size="10.00">Slic3r::escape_strings</text>
<text text-anchor="middle" x="223.5" y="-189.75" font-family="Helvetica,sans-Serif" font-size="10.00">_cstyle</text>
</a>
</g>
</g>
<!-- Node1&#45;&gt;Node8 -->
<g id="edge7_Node000001_Node000008" class="edge">
<title>Node1&#45;&gt;Node8</title>
<g id="a_edge7_Node000001_Node000008"><a xlink:title=" ">
<path fill="none" stroke="#63b8ff" d="M119.6,-185.25C131.36,-186.85 143.79,-188.54 155.79,-190.18"/>
<polygon fill="#63b8ff" stroke="#63b8ff" points="155.28,-193.77 165.66,-191.65 156.22,-186.84 155.28,-193.77"/>
</a>
</g>
</g>
<!-- Node9 -->
<g id="Node000009" class="node">
<title>Node9</title>
<g id="a_Node000009"><a xlink:href="../../de/db8/namespace_slic3r.html#a75172b21afb075cfcb6ebd3612077071" target="_top" xlink:title=" ">
<polygon fill="white" stroke="#666666" points="280.25,-165.88 166.75,-165.88 166.75,-146.62 280.25,-146.62 280.25,-165.88"/>
<text text-anchor="middle" x="223.5" y="-152.38" font-family="Helvetica,sans-Serif" font-size="10.00">Slic3r::get_current_pid</text>
</a>
</g>
</g>
<!-- Node1&#45;&gt;Node9 -->
<g id="edge8_Node000001_Node000009" class="edge">
<title>Node1&#45;&gt;Node9</title>
<g id="a_edge8_Node000001_Node000009"><a xlink:title=" ">
<path fill="none" stroke="#63b8ff" d="M119.6,-169.61C131.29,-168.09 143.64,-166.49 155.58,-164.94"/>
<polygon fill="#63b8ff" stroke="#63b8ff" points="155.92,-168.29 165.39,-163.54 155.02,-161.35 155.92,-168.29"/>
</a>
</g>
</g>
<!-- Node10 -->
<g id="Node000010" class="node">
<title>Node10</title>
<g id="a_Node000010"><a xlink:href="../../de/db8/namespace_slic3r.html#acfded32aa00d646bbe1049588d500cea" target="_top" xlink:title=" ">
<polygon fill="white" stroke="#666666" points="291.5,-128.5 155.5,-128.5 155.5,-98 291.5,-98 291.5,-128.5"/>
<text text-anchor="start" x="163.5" y="-115" font-family="Helvetica,sans-Serif" font-size="10.00">Slic3r::header_gcodeviewer</text>
<text text-anchor="middle" x="223.5" y="-103.75" font-family="Helvetica,sans-Serif" font-size="10.00">_generated</text>
</a>
</g>
</g>
<!-- Node1&#45;&gt;Node10 -->
<g id="edge9_Node000001_Node000010" class="edge">
<title>Node1&#45;&gt;Node10</title>
<g id="a_edge9_Node000001_Node000010"><a xlink:title=" ">
<path fill="none" stroke="#63b8ff" d="M83.58,-167.19C102.68,-158.88 130.71,-146.91 155.5,-137.25 159.4,-135.73 163.45,-134.19 167.53,-132.66"/>
<polygon fill="#63b8ff" stroke="#63b8ff" points="168.51,-135.66 176.68,-128.92 166.09,-129.09 168.51,-135.66"/>
</a>
</g>
</g>
<!-- Node13 -->
<g id="Node000013" class="node">
<title>Node13</title>
<g id="a_Node000013"><a xlink:href="../../de/db8/namespace_slic3r.html#a720e9962a59275ec8a54eda3c7bf7173" target="_top" xlink:title=" ">
<polygon fill="white" stroke="#666666" points="275.75,-79.5 171.25,-79.5 171.25,-49 275.75,-49 275.75,-79.5"/>
<text text-anchor="start" x="179.25" y="-66" font-family="Helvetica,sans-Serif" font-size="10.00">Slic3r::header_slic3r</text>
<text text-anchor="middle" x="223.5" y="-54.75" font-family="Helvetica,sans-Serif" font-size="10.00">_generated</text>
</a>
</g>
</g>
<!-- Node1&#45;&gt;Node13 -->
<g id="edge13_Node000001_Node000013" class="edge">
<title>Node1&#45;&gt;Node13</title>
<g id="a_edge13_Node000001_Node000013"><a xlink:title=" ">
<path fill="none" stroke="#63b8ff" d="M69.16,-167.18C84.59,-149.27 119.2,-111.65 155.5,-89.25 158.13,-87.63 160.87,-86.09 163.69,-84.63"/>
<polygon fill="#63b8ff" stroke="#63b8ff" points="164.97,-87.42 172.49,-79.96 161.96,-81.1 164.97,-87.42"/>
</a>
</g>
</g>
<!-- Node14 -->
<g id="Node000014" class="node">
<title>Node14</title>
<g id="a_Node000014"><a xlink:href="../../de/db8/namespace_slic3r.html#acc23e8a16a7cb64fa8dc544b9d29bea8" target="_top" xlink:title=" ">
<polygon fill="white" stroke="#666666" points="279.88,-30.5 167.12,-30.5 167.12,0 279.88,0 279.88,-30.5"/>
<text text-anchor="start" x="175.12" y="-17" font-family="Helvetica,sans-Serif" font-size="10.00">Slic3r::is_main_thread</text>
<text text-anchor="middle" x="223.5" y="-5.75" font-family="Helvetica,sans-Serif" font-size="10.00">_active</text>
</a>
</g>
</g>
<!-- Node1&#45;&gt;Node14 -->
<g id="edge15_Node000001_Node000014" class="edge">
<title>Node1&#45;&gt;Node14</title>
<g id="a_edge15_Node000001_Node000014"><a xlink:title=" ">
<path fill="none" stroke="#63b8ff" d="M64.96,-167.44C76.1,-142.61 108.72,-76.66 155.5,-40.25 157.37,-38.79 159.33,-37.42 161.37,-36.11"/>
<polygon fill="#63b8ff" stroke="#63b8ff" points="162.67,-38.83 169.65,-30.86 159.23,-32.74 162.67,-38.83"/>
</a>
</g>
</g>
<!-- Node3 -->
<g id="Node000003" class="node">
<title>Node3</title>
<g id="a_Node000003"><a xlink:href="../../de/db8/namespace_slic3r.html#a52157a1dec9ce067a7e19b02ef13e1f3" target="_top" xlink:title=" ">
<polygon fill="white" stroke="#666666" points="433.88,-362.88 352.62,-362.88 352.62,-343.62 433.88,-343.62 433.88,-362.88"/>
<text text-anchor="middle" x="393.25" y="-349.38" font-family="Helvetica,sans-Serif" font-size="10.00">Slic3r::data_dir</text>
</a>
</g>
</g>
<!-- Node2&#45;&gt;Node3 -->
<g id="edge2_Node000002_Node000003" class="edge">
<title>Node2&#45;&gt;Node3</title>
<g id="a_edge2_Node000002_Node000003"><a xlink:title=" ">
<path fill="none" stroke="#63b8ff" d="M273.02,-342.59C294.54,-344.51 319.87,-346.78 341.63,-348.72"/>
<polygon fill="#63b8ff" stroke="#63b8ff" points="341.04,-352.27 351.32,-349.68 341.67,-345.3 341.04,-352.27"/>
</a>
</g>
</g>
<!-- Node5 -->
<g id="Node000005" class="node">
<title>Node5</title>
<g id="a_Node000005"><a xlink:href="../../de/db8/namespace_slic3r.html#ae6a07936fa65183a14c1720c4f73baa7" target="_top" xlink:title=" ">
<polygon fill="white" stroke="#666666" points="442.88,-325.88 343.62,-325.88 343.62,-306.62 442.88,-306.62 442.88,-325.88"/>
<text text-anchor="middle" x="393.25" y="-312.38" font-family="Helvetica,sans-Serif" font-size="10.00">Slic3r::check_copy</text>
</a>
</g>
</g>
<!-- Node4&#45;&gt;Node5 -->
<g id="edge4_Node000004_Node000005" class="edge">
<title>Node4&#45;&gt;Node5</title>
<g id="a_edge4_Node000004_Node000005"><a xlink:title=" ">
<path fill="none" stroke="#63b8ff" d="M266.83,-289.33C287.35,-293.74 312.31,-299.09 334.54,-303.86"/>
<polygon fill="#63b8ff" stroke="#63b8ff" points="333.69,-307.48 344.2,-306.15 335.16,-300.63 333.69,-307.48"/>
</a>
</g>
</g>
<!-- Node6 -->
<g id="Node000006" class="node">
<title>Node6</title>
<g id="a_Node000006"><a xlink:href="../../de/db8/namespace_slic3r.html#a7d75ec780efebec189102739d6938b8d" target="_top" xlink:title=" ">
<polygon fill="white" stroke="#666666" points="449.25,-288.88 337.25,-288.88 337.25,-269.62 449.25,-269.62 449.25,-288.88"/>
<text text-anchor="middle" x="393.25" y="-275.38" font-family="Helvetica,sans-Serif" font-size="10.00">Slic3r::copy_file_inner</text>
</a>
</g>
</g>
<!-- Node4&#45;&gt;Node6 -->
<g id="edge5_Node000004_Node000006" class="edge">
<title>Node4&#45;&gt;Node6</title>
<g id="a_edge5_Node000004_Node000006"><a xlink:title=" ">
<path fill="none" stroke="#63b8ff" d="M266.83,-280C284.77,-279.89 306.09,-279.76 326.02,-279.64"/>
<polygon fill="#63b8ff" stroke="#63b8ff" points="325.94,-283.14 335.92,-279.58 325.9,-276.14 325.94,-283.14"/>
</a>
</g>
</g>
<!-- Node4&#45;&gt;Node7 -->
<g id="edge6_Node000004_Node000007" class="edge">
<title>Node4&#45;&gt;Node7</title>
<g id="a_edge6_Node000004_Node000007"><a xlink:title=" ">
<path fill="none" stroke="#63b8ff" d="M266.83,-270.66C288.11,-265.84 314.17,-259.94 337.01,-254.76"/>
<polygon fill="#63b8ff" stroke="#63b8ff" points="337.61,-257.99 346.59,-252.37 336.06,-251.16 337.61,-257.99"/>
</a>
</g>
</g>
<!-- Node11 -->
<g id="Node000011" class="node">
<title>Node11</title>
<g id="a_Node000011"><a xlink:href="../../d3/d47/namespace_slic3r_1_1_utils.html#a3be8424365a851987e3ed9403f35e344" target="_top" xlink:title=" ">
<polygon fill="white" stroke="#666666" points="436.5,-103.5 350,-103.5 350,-73 436.5,-73 436.5,-103.5"/>
<text text-anchor="start" x="358" y="-90" font-family="Helvetica,sans-Serif" font-size="10.00">Slic3r::Utils::utc</text>
<text text-anchor="middle" x="393.25" y="-78.75" font-family="Helvetica,sans-Serif" font-size="10.00">_timestamp</text>
</a>
</g>
</g>
<!-- Node10&#45;&gt;Node11 -->
<g id="edge10_Node000010_Node000011" class="edge">
<title>Node10&#45;&gt;Node11</title>
<g id="a_edge10_Node000010_Node000011"><a xlink:title=" ">
<path fill="none" stroke="#63b8ff" d="M291.76,-103.23C307.46,-100.89 323.97,-98.43 338.96,-96.19"/>
<polygon fill="#63b8ff" stroke="#63b8ff" points="339.2,-99.55 348.58,-94.61 338.17,-92.62 339.2,-99.55"/>
</a>
</g>
</g>
<!-- Node11&#45;&gt;Node11 -->
<g id="edge12_Node000011_Node000011" class="edge">
<title>Node11&#45;&gt;Node11</title>
<g id="a_edge12_Node000011_Node000011"><a xlink:title=" ">
<path fill="none" stroke="#63b8ff" d="M366.89,-103.99C361.51,-113.06 370.3,-121.5 393.25,-121.5 406.16,-121.5 414.59,-118.83 418.53,-114.88"/>
<polygon fill="#63b8ff" stroke="#63b8ff" points="422.11,-115.28 419.61,-104.99 415.14,-114.59 422.11,-115.28"/>
</a>
</g>
</g>
<!-- Node12 -->
<g id="Node000012" class="node">
<title>Node12</title>
<g id="a_Node000012"><a xlink:href="../../d3/d47/namespace_slic3r_1_1_utils.html#ae3730cc71d7ed9891e6f0d02ca54449c" target="_top" xlink:title=" ">
<polygon fill="white" stroke="#666666" points="589,-103.5 495,-103.5 495,-73 589,-73 589,-103.5"/>
<text text-anchor="start" x="503" y="-90" font-family="Helvetica,sans-Serif" font-size="10.00">Slic3r::Utils::get</text>
<text text-anchor="middle" x="542" y="-78.75" font-family="Helvetica,sans-Serif" font-size="10.00">_current_time_utc</text>
</a>
</g>
</g>
<!-- Node11&#45;&gt;Node12 -->
<g id="edge11_Node000011_Node000012" class="edge">
<title>Node11&#45;&gt;Node12</title>
<g id="a_edge11_Node000011_Node000012"><a xlink:title=" ">
<path fill="none" stroke="#63b8ff" d="M436.7,-88.25C451.41,-88.25 468.17,-88.25 483.87,-88.25"/>
<polygon fill="#63b8ff" stroke="#63b8ff" points="483.54,-91.75 493.54,-88.25 483.54,-84.75 483.54,-91.75"/>
</a>
</g>
</g>
<!-- Node13&#45;&gt;Node11 -->
<g id="edge14_Node000013_Node000011" class="edge">
<title>Node13&#45;&gt;Node11</title>
<g id="a_edge14_Node000013_Node000011"><a xlink:title=" ">
<path fill="none" stroke="#63b8ff" d="M276.2,-71.65C296.1,-74.49 318.85,-77.75 338.9,-80.62"/>
<polygon fill="#63b8ff" stroke="#63b8ff" points="338.33,-84.21 348.73,-82.17 339.33,-77.29 338.33,-84.21"/>
</a>
</g>
</g>
<!-- Node15 -->
<g id="Node000015" class="node">
<title>Node15</title>
<g id="a_Node000015"><a xlink:href="../../de/db8/namespace_slic3r.html#a7c491aa17e2f35fb09fe9d5a25c36f6a" target="_top" xlink:title=" ">
<polygon fill="white" stroke="#666666" points="459,-24.88 327.5,-24.88 327.5,-5.62 459,-5.62 459,-24.88"/>
<text text-anchor="middle" x="393.25" y="-11.38" font-family="Helvetica,sans-Serif" font-size="10.00">Slic3r::get_main_thread_id</text>
</a>
</g>
</g>
<!-- Node14&#45;&gt;Node15 -->
<g id="edge16_Node000014_Node000015" class="edge">
<title>Node14&#45;&gt;Node15</title>
<g id="a_edge16_Node000014_Node000015"><a xlink:title=" ">
<path fill="none" stroke="#63b8ff" d="M280.36,-15.25C291.81,-15.25 304.06,-15.25 316.09,-15.25"/>
<polygon fill="#63b8ff" stroke="#63b8ff" points="316.05,-18.75 326.05,-15.25 316.05,-11.75 316.05,-18.75"/>
</a>
</g>
</g>
</g>
</svg>
