<?xml version="1.0" encoding="UTF-8" standalone="no"?>
<!DOCTYPE svg PUBLIC "-//W3C//DTD SVG 1.1//EN"
 "http://www.w3.org/Graphics/SVG/1.1/DTD/svg11.dtd">
<!-- Generated by graphviz version 8.0.5 (20230430.1635)
 -->
<!-- Title: Slic3r::GCodeReader::GCodeLine::has_z Pages: 1 -->
<!--zoomable 431 -->

<svg id="main" version="1.1" xmlns="http://www.w3.org/2000/svg" xmlns:xlink="http://www.w3.org/1999/xlink" xml:space="preserve" onload="init(evt)">
<style type="text/css"><![CDATA[
.node, .edge {opacity: 0.7;}
.node.selected, .edge.selected {opacity: 1;}
.edge:hover path { stroke: red; }
.edge:hover polygon { stroke: red; fill: red; }
]]></style>

<defs>
  <circle id="rim" cx="0" cy="0" r="7"/>
  <circle id="rim2" cx="0" cy="0" r="3.5"/>
  <g id="zoomPlus">
    <use xlink:href="#rim" fill="#404040"><set attributeName="fill" to="#808080" begin="zoomplus.mouseover" end="zoomplus.mouseout"/></use>
    <path d="M-4,0h8M0,-4v8" fill="none" stroke="white" stroke-width="1.5" pointer-events="none"/>
  </g>
  <g id="zoomMin">
    <use xlink:href="#rim" fill="#404040"><set attributeName="fill" to="#808080" begin="zoomminus.mouseover" end="zoomminus.mouseout"/></use>
    <path d="M-4,0h8" fill="none" stroke="white" stroke-width="1.5" pointer-events="none"/>
  </g>
  <g id="arrowUp" transform="translate(30 24)">
    <use xlink:href="#rim"/>
    <path pointer-events="none" fill="none" stroke="white" stroke-width="1.5" d="M0,-3.0v7 M-2.5,-0.5L0,-3.0L2.5,-0.5"/>
  </g>
  <g id="arrowRight" transform="rotate(90) translate(36 -43)">
    <use xlink:href="#rim"/>
    <path pointer-events="none" fill="none" stroke="white" stroke-width="1.5" d="M0,-3.0v7 M-2.5,-0.5L0,-3.0L2.5,-0.5"/>
  </g>
  <g id="arrowDown" transform="rotate(180) translate(-30 -48)">
    <use xlink:href="#rim"/>
    <path pointer-events="none" fill="none" stroke="white" stroke-width="1.5" d="M0,-3.0v7 M-2.5,-0.5L0,-3.0L2.5,-0.5"/>
  </g>
  <g id="arrowLeft" transform="rotate(270) translate(-36 17)">
    <use xlink:href="#rim"/>
    <path pointer-events="none" fill="none" stroke="white" stroke-width="1.5" d="M0,-3.0v7 M-2.5,-0.5L0,-3.0L2.5,-0.5"/>
  </g>
  <g id="resetDef">
    <use xlink:href="#rim2" fill="#404040"><set attributeName="fill" to="#808080" begin="reset.mouseover" end="reset.mouseout"/></use>
  </g>
</defs>
<script type="application/ecmascript">
var viewWidth = 928;
var viewHeight = 431;
var sectionId = 'dynsection-37';
</script>
<script type="application/ecmascript" xlink:href="../../svg.min.js"/>
<svg id="graph" class="graph">
<g id="viewport">
<title>Slic3r::GCodeReader::GCodeLine::has_z</title>
<!-- Node1 -->
<g id="Node000001" class="node">
<title>Node1</title>
<g id="a_Node000001"><a xlink:title=" ">
<polygon fill="#999999" stroke="#666666" points="919.5,-168.5 810.5,-168.5 810.5,-138 919.5,-138 919.5,-168.5"/>
<text text-anchor="start" x="818.5" y="-155" font-family="Helvetica,sans-Serif" font-size="10.00">Slic3r::GCodeReader</text>
<text text-anchor="middle" x="865" y="-143.75" font-family="Helvetica,sans-Serif" font-size="10.00">::GCodeLine::has_z</text>
</a>
</g>
</g>
<!-- Node2 -->
<g id="Node000002" class="node">
<title>Node2</title>
<g id="a_Node000002"><a xlink:href="../../dc/d9a/class_slic3r_1_1_g_code_processor.html#a81b610594427e1e0575b00de8489e7f9" target="_top" xlink:title=" ">
<polygon fill="white" stroke="#666666" points="774.5,-336.5 652.75,-336.5 652.75,-306 774.5,-306 774.5,-336.5"/>
<text text-anchor="start" x="660.75" y="-323" font-family="Helvetica,sans-Serif" font-size="10.00">Slic3r::GCodeProcessor</text>
<text text-anchor="middle" x="713.62" y="-311.75" font-family="Helvetica,sans-Serif" font-size="10.00">::process_G1</text>
</a>
</g>
</g>
<!-- Node1&#45;&gt;Node2 -->
<g id="edge1_Node000001_Node000002" class="edge">
<title>Node1&#45;&gt;Node2</title>
<g id="a_edge1_Node000001_Node000002"><a xlink:title=" ">
<path fill="none" stroke="#63b8ff" d="M844.47,-177.3C826.63,-199.04 799.33,-231.76 774.5,-259.25 759.86,-275.46 742.44,-293.35 730.18,-305.73"/>
<polygon fill="#63b8ff" stroke="#63b8ff" points="847.65,-179.93 851.27,-169.98 842.23,-175.5 847.65,-179.93"/>
</a>
</g>
</g>
<!-- Node11 -->
<g id="Node000011" class="node">
<title>Node11</title>
<g id="a_Node000011"><a xlink:href="../../dc/d9a/class_slic3r_1_1_g_code_processor.html#afc8412a2bd6f252580655ba199d3a5ab" target="_top" xlink:title=" ">
<polygon fill="white" stroke="#666666" points="616.75,-238.5 495,-238.5 495,-208 616.75,-208 616.75,-238.5"/>
<text text-anchor="start" x="503" y="-225" font-family="Helvetica,sans-Serif" font-size="10.00">Slic3r::GCodeProcessor</text>
<text text-anchor="middle" x="555.88" y="-213.75" font-family="Helvetica,sans-Serif" font-size="10.00">::process_G61</text>
</a>
</g>
</g>
<!-- Node1&#45;&gt;Node11 -->
<g id="edge14_Node000001_Node000011" class="edge">
<title>Node1&#45;&gt;Node11</title>
<g id="a_edge14_Node000001_Node000011"><a xlink:title=" ">
<path fill="none" stroke="#63b8ff" d="M843.64,-176.94C827.05,-194.3 801.93,-216.48 774.5,-226.25 723.6,-244.38 661.66,-241.32 616.89,-235.08"/>
<polygon fill="#63b8ff" stroke="#63b8ff" points="845.87,-179.6 850.08,-169.87 840.72,-174.85 845.87,-179.6"/>
</a>
</g>
</g>
<!-- Node12 -->
<g id="Node000012" class="node">
<title>Node12</title>
<g id="a_Node000012"><a xlink:href="../../dc/d9a/class_slic3r_1_1_g_code_processor.html#a7fed8047a02af591db93856a7bdd02b4" target="_top" xlink:title=" ">
<polygon fill="white" stroke="#666666" points="774.5,-217.5 652.75,-217.5 652.75,-187 774.5,-187 774.5,-217.5"/>
<text text-anchor="start" x="660.75" y="-204" font-family="Helvetica,sans-Serif" font-size="10.00">Slic3r::GCodeProcessor</text>
<text text-anchor="middle" x="713.62" y="-192.75" font-family="Helvetica,sans-Serif" font-size="10.00">::process_G92</text>
</a>
</g>
</g>
<!-- Node1&#45;&gt;Node12 -->
<g id="edge16_Node000001_Node000012" class="edge">
<title>Node1&#45;&gt;Node12</title>
<g id="a_edge16_Node000001_Node000012"><a xlink:title=" ">
<path fill="none" stroke="#63b8ff" d="M806.05,-172.26C791.68,-176.97 776.45,-181.97 762.61,-186.51"/>
<polygon fill="#63b8ff" stroke="#63b8ff" points="806.92,-175.33 815.33,-168.89 804.73,-168.68 806.92,-175.33"/>
</a>
</g>
</g>
<!-- Node13 -->
<g id="Node000013" class="node">
<title>Node13</title>
<g id="a_Node000013"><a xlink:href="../../dc/d9a/class_slic3r_1_1_g_code_processor.html#ab97a934ae6b70564cc5de84a355d0eb1" target="_top" xlink:title=" ">
<polygon fill="white" stroke="#666666" points="774.5,-168.5 652.75,-168.5 652.75,-138 774.5,-138 774.5,-168.5"/>
<text text-anchor="start" x="660.75" y="-155" font-family="Helvetica,sans-Serif" font-size="10.00">Slic3r::GCodeProcessor</text>
<text text-anchor="middle" x="713.62" y="-143.75" font-family="Helvetica,sans-Serif" font-size="10.00">::process_M201</text>
</a>
</g>
</g>
<!-- Node1&#45;&gt;Node13 -->
<g id="edge18_Node000001_Node000013" class="edge">
<title>Node1&#45;&gt;Node13</title>
<g id="a_edge18_Node000001_Node000013"><a xlink:title=" ">
<path fill="none" stroke="#63b8ff" d="M799.17,-153.25C791.07,-153.25 782.82,-153.25 774.8,-153.25"/>
<polygon fill="#63b8ff" stroke="#63b8ff" points="799.07,-156.75 809.07,-153.25 799.07,-149.75 799.07,-156.75"/>
</a>
</g>
</g>
<!-- Node14 -->
<g id="Node000014" class="node">
<title>Node14</title>
<g id="a_Node000014"><a xlink:href="../../dc/d9a/class_slic3r_1_1_g_code_processor.html#a20258b016e6df609405e98fc78814187" target="_top" xlink:title=" ">
<polygon fill="white" stroke="#666666" points="774.5,-119.5 652.75,-119.5 652.75,-89 774.5,-89 774.5,-119.5"/>
<text text-anchor="start" x="660.75" y="-106" font-family="Helvetica,sans-Serif" font-size="10.00">Slic3r::GCodeProcessor</text>
<text text-anchor="middle" x="713.62" y="-94.75" font-family="Helvetica,sans-Serif" font-size="10.00">::process_M203</text>
</a>
</g>
</g>
<!-- Node1&#45;&gt;Node14 -->
<g id="edge20_Node000001_Node000014" class="edge">
<title>Node1&#45;&gt;Node14</title>
<g id="a_edge20_Node000001_Node000014"><a xlink:title=" ">
<path fill="none" stroke="#63b8ff" d="M806.05,-134.24C791.68,-129.53 776.45,-124.53 762.61,-119.99"/>
<polygon fill="#63b8ff" stroke="#63b8ff" points="804.73,-137.82 815.33,-137.61 806.92,-131.17 804.73,-137.82"/>
</a>
</g>
</g>
<!-- Node15 -->
<g id="Node000015" class="node">
<title>Node15</title>
<g id="a_Node000015"><a xlink:href="../../dc/d9a/class_slic3r_1_1_g_code_processor.html#a5ec3038783a26abe0baae6555d176e61" target="_top" xlink:title=" ">
<polygon fill="white" stroke="#666666" points="774.5,-70.5 652.75,-70.5 652.75,-40 774.5,-40 774.5,-70.5"/>
<text text-anchor="start" x="660.75" y="-57" font-family="Helvetica,sans-Serif" font-size="10.00">Slic3r::GCodeProcessor</text>
<text text-anchor="middle" x="713.62" y="-45.75" font-family="Helvetica,sans-Serif" font-size="10.00">::process_M205</text>
</a>
</g>
</g>
<!-- Node1&#45;&gt;Node15 -->
<g id="edge22_Node000001_Node000015" class="edge">
<title>Node1&#45;&gt;Node15</title>
<g id="a_edge22_Node000001_Node000015"><a xlink:title=" ">
<path fill="none" stroke="#63b8ff" d="M840.07,-130.49C822.82,-114.93 798.44,-94.6 774.5,-80.25 768.9,-76.89 762.76,-73.77 756.61,-70.95"/>
<polygon fill="#63b8ff" stroke="#63b8ff" points="837.19,-132.53 846.93,-136.7 841.93,-127.37 837.19,-132.53"/>
</a>
</g>
</g>
<!-- Node16 -->
<g id="Node000016" class="node">
<title>Node16</title>
<g id="a_Node000016"><a xlink:href="../../dc/d9a/class_slic3r_1_1_g_code_processor.html#a409159737c9ecdcd88e19ac4b684d995" target="_top" xlink:title=" ">
<polygon fill="white" stroke="#666666" points="616.75,-30.5 495,-30.5 495,0 616.75,0 616.75,-30.5"/>
<text text-anchor="start" x="503" y="-17" font-family="Helvetica,sans-Serif" font-size="10.00">Slic3r::GCodeProcessor</text>
<text text-anchor="middle" x="555.88" y="-5.75" font-family="Helvetica,sans-Serif" font-size="10.00">::process_M566</text>
</a>
</g>
</g>
<!-- Node1&#45;&gt;Node16 -->
<g id="edge24_Node000001_Node000016" class="edge">
<title>Node1&#45;&gt;Node16</title>
<g id="a_edge24_Node000001_Node000016"><a xlink:title=" ">
<path fill="none" stroke="#63b8ff" d="M853.53,-128.12C839.97,-99.15 813.39,-52.78 774.5,-31.25 726.44,-4.64 663.01,-3.04 617.03,-6.66"/>
<polygon fill="#63b8ff" stroke="#63b8ff" points="850.64,-129.24 857.93,-136.92 857.02,-126.37 850.64,-129.24"/>
</a>
</g>
</g>
<!-- Node2&#45;&gt;Node2 -->
<g id="edge8_Node000002_Node000002" class="edge">
<title>Node2&#45;&gt;Node2</title>
<g id="a_edge8_Node000002_Node000002"><a xlink:title=" ">
<path fill="none" stroke="#63b8ff" d="M739.36,-347.88C735.34,-351.83 726.76,-354.5 713.62,-354.5 690.27,-354.5 681.33,-346.06 686.8,-336.99"/>
<polygon fill="#63b8ff" stroke="#63b8ff" points="742.93,-348.29 740.45,-337.99 735.97,-347.59 742.93,-348.29"/>
</a>
</g>
</g>
<!-- Node3 -->
<g id="Node000003" class="node">
<title>Node3</title>
<g id="a_Node000003"><a xlink:href="../../dc/d9a/class_slic3r_1_1_g_code_processor.html#af8c157e4f14d40d97aeba1e1b870d4d7" target="_top" xlink:title=" ">
<polygon fill="white" stroke="#666666" points="616.75,-422.5 495,-422.5 495,-392 616.75,-392 616.75,-422.5"/>
<text text-anchor="start" x="503" y="-409" font-family="Helvetica,sans-Serif" font-size="10.00">Slic3r::GCodeProcessor</text>
<text text-anchor="middle" x="555.88" y="-397.75" font-family="Helvetica,sans-Serif" font-size="10.00">::process_G0</text>
</a>
</g>
</g>
<!-- Node2&#45;&gt;Node3 -->
<g id="edge2_Node000002_Node000003" class="edge">
<title>Node2&#45;&gt;Node3</title>
<g id="a_edge2_Node000002_Node000003"><a xlink:title=" ">
<path fill="none" stroke="#63b8ff" d="M678.7,-342.38C660.54,-353.45 637.66,-367 616.75,-378.25 608.31,-382.79 599.05,-387.44 590.38,-391.64"/>
<polygon fill="#63b8ff" stroke="#63b8ff" points="680.03,-345.06 686.73,-336.85 676.37,-339.09 680.03,-345.06"/>
</a>
</g>
</g>
<!-- Node4 -->
<g id="Node000004" class="node">
<title>Node4</title>
<g id="a_Node000004"><a xlink:href="../../dc/d9a/class_slic3r_1_1_g_code_processor.html#acc96eba2afcfe93e837614d4dc861e6a" target="_top" xlink:title=" ">
<polygon fill="white" stroke="#666666" points="459,-216.5 337.25,-216.5 337.25,-186 459,-186 459,-216.5"/>
<text text-anchor="start" x="345.25" y="-203" font-family="Helvetica,sans-Serif" font-size="10.00">Slic3r::GCodeProcessor</text>
<text text-anchor="middle" x="398.12" y="-191.75" font-family="Helvetica,sans-Serif" font-size="10.00">::process_gcode_line</text>
</a>
</g>
</g>
<!-- Node2&#45;&gt;Node4 -->
<g id="edge13_Node000002_Node000004" class="edge">
<title>Node2&#45;&gt;Node4</title>
<g id="a_edge13_Node000002_Node000004"><a xlink:title=" ">
<path fill="none" stroke="#63b8ff" d="M666.82,-340.8C620.67,-357.31 548.78,-374.05 495,-345.25 443.11,-317.46 414.47,-247.81 403.9,-216.69"/>
<polygon fill="#63b8ff" stroke="#63b8ff" points="667.96,-343.74 676.11,-336.97 665.52,-337.18 667.96,-343.74"/>
</a>
</g>
</g>
<!-- Node9 -->
<g id="Node000009" class="node">
<title>Node9</title>
<g id="a_Node000009"><a xlink:href="../../dc/d9a/class_slic3r_1_1_g_code_processor.html#a4fcc130c403f38e5f7e192942f030668" target="_top" xlink:title=" ">
<polygon fill="white" stroke="#666666" points="616.75,-336.5 495,-336.5 495,-306 616.75,-306 616.75,-336.5"/>
<text text-anchor="start" x="503" y="-323" font-family="Helvetica,sans-Serif" font-size="10.00">Slic3r::GCodeProcessor</text>
<text text-anchor="middle" x="555.88" y="-311.75" font-family="Helvetica,sans-Serif" font-size="10.00">::process_G28</text>
</a>
</g>
</g>
<!-- Node2&#45;&gt;Node9 -->
<g id="edge9_Node000002_Node000009" class="edge">
<title>Node2&#45;&gt;Node9</title>
<g id="a_edge9_Node000002_Node000009"><a xlink:title=" ">
<path fill="none" stroke="#63b8ff" d="M641.45,-321.25C633.34,-321.25 625.14,-321.25 617.19,-321.25"/>
<polygon fill="#63b8ff" stroke="#63b8ff" points="641.41,-324.75 651.41,-321.25 641.41,-317.75 641.41,-324.75"/>
</a>
</g>
</g>
<!-- Node10 -->
<g id="Node000010" class="node">
<title>Node10</title>
<g id="a_Node000010"><a xlink:href="../../dc/d9a/class_slic3r_1_1_g_code_processor.html#ab37c1543e56d06597dc54129b5406c82" target="_top" xlink:title=" ">
<polygon fill="white" stroke="#666666" points="616.75,-287.5 495,-287.5 495,-257 616.75,-257 616.75,-287.5"/>
<text text-anchor="start" x="503" y="-274" font-family="Helvetica,sans-Serif" font-size="10.00">Slic3r::GCodeProcessor</text>
<text text-anchor="middle" x="555.88" y="-262.75" font-family="Helvetica,sans-Serif" font-size="10.00">::process_G2_G3</text>
</a>
</g>
</g>
<!-- Node2&#45;&gt;Node10 -->
<g id="edge11_Node000002_Node000010" class="edge">
<title>Node2&#45;&gt;Node10</title>
<g id="a_edge11_Node000002_Node000010"><a xlink:title=" ">
<path fill="none" stroke="#63b8ff" d="M652.64,-302.38C637.53,-297.63 621.47,-292.57 606.91,-287.99"/>
<polygon fill="#63b8ff" stroke="#63b8ff" points="651.33,-305.95 661.92,-305.61 653.43,-299.27 651.33,-305.95"/>
</a>
</g>
</g>
<!-- Node3&#45;&gt;Node4 -->
<g id="edge3_Node000003_Node000004" class="edge">
<title>Node3&#45;&gt;Node4</title>
<g id="a_edge3_Node000003_Node000004"><a xlink:title=" ">
<path fill="none" stroke="#63b8ff" d="M504.45,-385.88C501.08,-383.55 497.88,-381.01 495,-378.25 444.85,-330.32 414.83,-250.3 403.87,-216.77"/>
<polygon fill="#63b8ff" stroke="#63b8ff" points="502.33,-389.3 512.68,-391.57 506.01,-383.34 502.33,-389.3"/>
</a>
</g>
</g>
<!-- Node5 -->
<g id="Node000005" class="node">
<title>Node5</title>
<g id="a_Node000005"><a xlink:href="../../dc/d9a/class_slic3r_1_1_g_code_processor.html#a4bc4064a6f23c5426c5a18fec6f532f2" target="_top" xlink:title=" ">
<polygon fill="white" stroke="#666666" points="301.25,-241.5 179.5,-241.5 179.5,-211 301.25,-211 301.25,-241.5"/>
<text text-anchor="start" x="187.5" y="-228" font-family="Helvetica,sans-Serif" font-size="10.00">Slic3r::GCodeProcessor</text>
<text text-anchor="middle" x="240.38" y="-216.75" font-family="Helvetica,sans-Serif" font-size="10.00">::process_buffer</text>
</a>
</g>
</g>
<!-- Node4&#45;&gt;Node5 -->
<g id="edge4_Node000004_Node000005" class="edge">
<title>Node4&#45;&gt;Node5</title>
<g id="a_edge4_Node000004_Node000005"><a xlink:title=" ">
<path fill="none" stroke="#63b8ff" d="M326.22,-212.63C318.03,-213.95 309.73,-215.28 301.69,-216.57"/>
<polygon fill="#63b8ff" stroke="#63b8ff" points="326.59,-215.96 335.91,-210.92 325.48,-209.04 326.59,-215.96"/>
</a>
</g>
</g>
<!-- Node7 -->
<g id="Node000007" class="node">
<title>Node7</title>
<g id="a_Node000007"><a xlink:href="../../dc/d9a/class_slic3r_1_1_g_code_processor.html#ab21f67bd38cc69e9c223a7f33472a28e" target="_top" xlink:title=" ">
<polygon fill="white" stroke="#666666" points="301.25,-192.5 179.5,-192.5 179.5,-162 301.25,-162 301.25,-192.5"/>
<text text-anchor="start" x="187.5" y="-179" font-family="Helvetica,sans-Serif" font-size="10.00">Slic3r::GCodeProcessor</text>
<text text-anchor="middle" x="240.38" y="-167.75" font-family="Helvetica,sans-Serif" font-size="10.00">::process_file</text>
</a>
</g>
</g>
<!-- Node4&#45;&gt;Node7 -->
<g id="edge6_Node000004_Node000007" class="edge">
<title>Node4&#45;&gt;Node7</title>
<g id="a_edge6_Node000004_Node000007"><a xlink:title=" ">
<path fill="none" stroke="#63b8ff" d="M326.22,-190.32C318.03,-189.06 309.73,-187.78 301.69,-186.54"/>
<polygon fill="#63b8ff" stroke="#63b8ff" points="325.49,-193.91 335.91,-191.97 326.56,-186.99 325.49,-193.91"/>
</a>
</g>
</g>
<!-- Node6 -->
<g id="Node000006" class="node">
<title>Node6</title>
<g id="a_Node000006"><a xlink:href="../../d7/db8/class_slic3r_1_1_g_code_1_1_g_code_output_stream.html#a24a003351f0c117f02b613c58a6b8c1c" target="_top" xlink:title=" ">
<polygon fill="white" stroke="#666666" points="143.5,-241.5 0,-241.5 0,-211 143.5,-211 143.5,-241.5"/>
<text text-anchor="start" x="8" y="-228" font-family="Helvetica,sans-Serif" font-size="10.00">Slic3r::GCode::GCodeOutput</text>
<text text-anchor="middle" x="71.75" y="-216.75" font-family="Helvetica,sans-Serif" font-size="10.00">Stream::write</text>
</a>
</g>
</g>
<!-- Node5&#45;&gt;Node6 -->
<g id="edge5_Node000005_Node000006" class="edge">
<title>Node5&#45;&gt;Node6</title>
<g id="a_edge5_Node000005_Node000006"><a xlink:title=" ">
<path fill="none" stroke="#63b8ff" d="M168.31,-226.25C160.22,-226.25 151.97,-226.25 143.88,-226.25"/>
<polygon fill="#63b8ff" stroke="#63b8ff" points="168.22,-229.75 178.22,-226.25 168.22,-222.75 168.22,-229.75"/>
</a>
</g>
</g>
<!-- Node8 -->
<g id="Node000008" class="node">
<title>Node8</title>
<g id="a_Node000008"><a xlink:href="../../d7/d21/class_slic3r_1_1_g_u_i_1_1_plater.html#a01f6f0a17aeb78c12f8fe81539dce6c0" target="_top" xlink:title=" ">
<polygon fill="white" stroke="#666666" points="119.88,-192.5 23.62,-192.5 23.62,-162 119.88,-162 119.88,-192.5"/>
<text text-anchor="start" x="31.62" y="-179" font-family="Helvetica,sans-Serif" font-size="10.00">Slic3r::GUI::Plater</text>
<text text-anchor="middle" x="71.75" y="-167.75" font-family="Helvetica,sans-Serif" font-size="10.00">::load_gcode</text>
</a>
</g>
</g>
<!-- Node7&#45;&gt;Node8 -->
<g id="edge7_Node000007_Node000008" class="edge">
<title>Node7&#45;&gt;Node8</title>
<g id="a_edge7_Node000007_Node000008"><a xlink:title=" ">
<path fill="none" stroke="#63b8ff" d="M168.62,-177.25C152.3,-177.25 135.33,-177.25 120.28,-177.25"/>
<polygon fill="#63b8ff" stroke="#63b8ff" points="168.22,-180.75 178.22,-177.25 168.22,-173.75 168.22,-180.75"/>
</a>
</g>
</g>
<!-- Node9&#45;&gt;Node4 -->
<g id="edge10_Node000009_Node000004" class="edge">
<title>Node9&#45;&gt;Node4</title>
<g id="a_edge10_Node000009_Node000004"><a xlink:title=" ">
<path fill="none" stroke="#63b8ff" d="M502.04,-300.57C499.62,-299.2 497.26,-297.75 495,-296.25 460.88,-273.5 428.61,-237.46 411.6,-216.93"/>
<polygon fill="#63b8ff" stroke="#63b8ff" points="500.15,-304.06 510.64,-305.57 503.38,-297.85 500.15,-304.06"/>
</a>
</g>
</g>
<!-- Node10&#45;&gt;Node4 -->
<g id="edge12_Node000010_Node000004" class="edge">
<title>Node10&#45;&gt;Node4</title>
<g id="a_edge12_Node000010_Node000004"><a xlink:title=" ">
<path fill="none" stroke="#63b8ff" d="M506.62,-252.36C502.68,-250.66 498.77,-248.94 495,-247.25 473.44,-237.58 449.47,-226.08 430.89,-217"/>
<polygon fill="#63b8ff" stroke="#63b8ff" points="504.85,-255.83 515.42,-256.54 507.6,-249.39 504.85,-255.83"/>
</a>
</g>
</g>
<!-- Node11&#45;&gt;Node4 -->
<g id="edge15_Node000011_Node000004" class="edge">
<title>Node11&#45;&gt;Node4</title>
<g id="a_edge15_Node000011_Node000004"><a xlink:title=" ">
<path fill="none" stroke="#63b8ff" d="M483.97,-213.23C475.78,-212.08 467.48,-210.9 459.44,-209.77"/>
<polygon fill="#63b8ff" stroke="#63b8ff" points="483.27,-216.81 493.66,-214.74 484.25,-209.88 483.27,-216.81"/>
</a>
</g>
</g>
<!-- Node12&#45;&gt;Node4 -->
<g id="edge17_Node000012_Node000004" class="edge">
<title>Node12&#45;&gt;Node4</title>
<g id="a_edge17_Node000012_Node000004"><a xlink:title=" ">
<path fill="none" stroke="#63b8ff" d="M641.41,-199.77C633.1,-199.56 624.74,-199.37 616.75,-199.25 562.65,-198.4 549.11,-198.69 495,-199.25 483.51,-199.37 471.25,-199.57 459.47,-199.8"/>
<polygon fill="#63b8ff" stroke="#63b8ff" points="641.19,-203.3 651.28,-200.07 641.38,-196.3 641.19,-203.3"/>
</a>
</g>
</g>
<!-- Node13&#45;&gt;Node4 -->
<g id="edge19_Node000013_Node000004" class="edge">
<title>Node13&#45;&gt;Node4</title>
<g id="a_edge19_Node000013_Node000004"><a xlink:title=" ">
<path fill="none" stroke="#63b8ff" d="M641.83,-164.09C586.83,-172.51 511.37,-184.06 459.26,-192.04"/>
<polygon fill="#63b8ff" stroke="#63b8ff" points="642.19,-167.42 651.55,-162.45 641.14,-160.5 642.19,-167.42"/>
</a>
</g>
</g>
<!-- Node14&#45;&gt;Node4 -->
<g id="edge21_Node000014_Node000004" class="edge">
<title>Node14&#45;&gt;Node4</title>
<g id="a_edge21_Node000014_Node000004"><a xlink:title=" ">
<path fill="none" stroke="#63b8ff" d="M641.96,-121.83C599.13,-132.96 543.55,-148.23 495,-164.25 475.68,-170.62 454.56,-178.66 437.07,-185.61"/>
<polygon fill="#63b8ff" stroke="#63b8ff" points="642.76,-124.98 651.57,-119.09 641.01,-118.21 642.76,-124.98"/>
</a>
</g>
</g>
<!-- Node15&#45;&gt;Node4 -->
<g id="edge23_Node000015_Node000004" class="edge">
<title>Node15&#45;&gt;Node4</title>
<g id="a_edge23_Node000015_Node000004"><a xlink:title=" ">
<path fill="none" stroke="#63b8ff" d="M642,-71.08C598.11,-82.57 541.41,-100.45 495,-125.25 464.09,-141.77 433.2,-168.56 415.14,-185.53"/>
<polygon fill="#63b8ff" stroke="#63b8ff" points="642.76,-74.24 651.58,-68.37 641.03,-67.46 642.76,-74.24"/>
</a>
</g>
</g>
<!-- Node16&#45;&gt;Node4 -->
<g id="edge25_Node000016_Node000004" class="edge">
<title>Node16&#45;&gt;Node4</title>
<g id="a_edge25_Node000016_Node000004"><a xlink:title=" ">
<path fill="none" stroke="#63b8ff" d="M511.34,-36.53C505.52,-40.33 499.88,-44.59 495,-49.25 451.45,-90.83 419.07,-156.11 405.77,-185.72"/>
<polygon fill="#63b8ff" stroke="#63b8ff" points="512.84,-39.11 519.57,-30.93 509.2,-33.12 512.84,-39.11"/>
</a>
</g>
</g>
</g>
</svg>

<g id="navigator" transform="translate(0 0)" fill="#404254">
  <rect fill="#f2f5e9" fill-opacity="0.5" stroke="#606060" stroke-width=".5" x="0" y="0" width="60" height="60"/>
  <use id="zoomplus" xlink:href="#zoomPlus" x="17" y="9" onmousedown="handleZoom(evt,'in')"/>
  <use id="zoomminus" xlink:href="#zoomMin" x="42" y="9" onmousedown="handleZoom(evt,'out')"/>
  <use id="reset" xlink:href="#resetDef" x="30" y="36" onmousedown="handleReset()"/>
   <use id="arrowup" xlink:href="#arrowUp" x="0" y="0" onmousedown="handlePan(0,-1)"/>
  <use id="arrowright" xlink:href="#arrowRight" x="0" y="0" onmousedown="handlePan(1,0)"/>
  <use id="arrowdown" xlink:href="#arrowDown" x="0" y="0" onmousedown="handlePan(0,1)"/>
  <use id="arrowleft" xlink:href="#arrowLeft" x="0" y="0" onmousedown="handlePan(-1,0)"/>
</g>
<svg viewBox="0 0 15 15" width="100%" height="30px" preserveAspectRatio="xMaxYMin meet">
 <g id="arrow_out" transform="scale(0.3 0.3)">
  <a xlink:href="class_slic3r_1_1_g_code_reader_1_1_g_code_line_a324d45c925455c6467f7d257388b0096_icgraph_org.svg" target="_base">
   <rect id="button" ry="5" rx="5" y="6" x="6" height="38" width="38"
        fill="#f2f5e9" fill-opacity="0.5" stroke="#606060" stroke-width="1.0"/>
   <path id="arrow"
     d="M 11.500037,31.436501 C 11.940474,20.09759 22.043105,11.32322 32.158766,21.979434 L 37.068811,17.246167 C 37.068811,17.246167 37.088388,32 37.088388,32 L 22.160133,31.978069 C 22.160133,31.978069 26.997745,27.140456 26.997745,27.140456 C 18.528582,18.264221 13.291696,25.230495 11.500037,31.436501 z"
     style="fill:#404040;"/>
  </a>
 </g>
</svg>

<style type='text/css'>
<![CDATA[
[data-mouse-over-selected='false'] { opacity: 0.7; }
[data-mouse-over-selected='true']  { opacity: 1.0; }
]]>
</style>
<script type="application/ecmascript"><![CDATA[
document.addEventListener('DOMContentLoaded', (event) => {
  highlightEdges();
  highlightAdjacentNodes();
});
]]></script>
</svg>
