<?xml version="1.0" encoding="UTF-8" standalone="no"?>
<!DOCTYPE svg PUBLIC "-//W3C//DTD SVG 1.1//EN"
 "http://www.w3.org/Graphics/SVG/1.1/DTD/svg11.dtd">
<!-- Generated by graphviz version 8.0.5 (20230430.1635)
 -->
<!-- Title: igl::xml::serialization_xml::serialize Pages: 1 -->
<svg width="255pt" height="186pt"
 viewBox="0.00 0.00 254.50 185.50" xmlns="http://www.w3.org/2000/svg" xmlns:xlink="http://www.w3.org/1999/xlink">
<g id="graph0" class="graph" transform="scale(1 1) rotate(0) translate(4 181.5)">
<title>igl::xml::serialization_xml::serialize</title>
<!-- Node1 -->
<g id="Node000001" class="node">
<title>Node1</title>
<g id="a_Node000001"><a xlink:title=" ">
<polygon fill="#999999" stroke="#666666" points="105.25,-103.5 0,-103.5 0,-73 105.25,-73 105.25,-103.5"/>
<text text-anchor="start" x="8" y="-90" font-family="Helvetica,sans-Serif" font-size="10.00">igl::xml::serialization</text>
<text text-anchor="middle" x="52.62" y="-78.75" font-family="Helvetica,sans-Serif" font-size="10.00">_xml::serialize</text>
</a>
</g>
</g>
<!-- Node2 -->
<g id="Node000002" class="node">
<title>Node2</title>
<g id="a_Node000002"><a xlink:href="../../dc/dfe/class_eigen_1_1_sparse_matrix.html#aa391750e3c530227e4a5c3c52e959975" target="_top" xlink:title=" ">
<polygon fill="white" stroke="#666666" points="246.12,-177.5 141.62,-177.5 141.62,-147 246.12,-147 246.12,-177.5"/>
<text text-anchor="start" x="149.62" y="-164" font-family="Helvetica,sans-Serif" font-size="10.00">Eigen::SparseMatrix</text>
<text text-anchor="middle" x="193.88" y="-152.75" font-family="Helvetica,sans-Serif" font-size="10.00">::cols</text>
</a>
</g>
</g>
<!-- Node1&#45;&gt;Node2 -->
<g id="edge1_Node000001_Node000002" class="edge">
<title>Node1&#45;&gt;Node2</title>
<g id="a_edge1_Node000001_Node000002"><a xlink:title=" ">
<path fill="none" stroke="#63b8ff" d="M80.63,-103.9C97.84,-113.73 120.69,-126.54 141.25,-137.25 144.12,-138.74 147.08,-140.26 150.08,-141.77"/>
<polygon fill="#63b8ff" stroke="#63b8ff" points="148.17,-145.22 158.68,-146.53 151.28,-138.95 148.17,-145.22"/>
</a>
</g>
</g>
<!-- Node3 -->
<g id="Node000003" class="node">
<title>Node3</title>
<g id="a_Node000003"><a xlink:href="../../dd/d01/namespaceigl_1_1xml_1_1serialization__xml.html#a980d6091f00bdcc20821707c6c539f51" target="_top" xlink:title=" ">
<polygon fill="white" stroke="#666666" points="246.5,-128.5 141.25,-128.5 141.25,-98 246.5,-98 246.5,-128.5"/>
<text text-anchor="start" x="149.25" y="-115" font-family="Helvetica,sans-Serif" font-size="10.00">igl::xml::serialization</text>
<text text-anchor="middle" x="193.88" y="-103.75" font-family="Helvetica,sans-Serif" font-size="10.00">_xml::getElement</text>
</a>
</g>
</g>
<!-- Node1&#45;&gt;Node3 -->
<g id="edge2_Node000001_Node000003" class="edge">
<title>Node1&#45;&gt;Node3</title>
<g id="a_edge2_Node000001_Node000003"><a xlink:title=" ">
<path fill="none" stroke="#63b8ff" d="M105.48,-97.56C113.54,-99.01 121.95,-100.52 130.22,-102"/>
<polygon fill="#63b8ff" stroke="#63b8ff" points="129.52,-105.61 139.98,-103.93 130.76,-98.72 129.52,-105.61"/>
</a>
</g>
</g>
<!-- Node4 -->
<g id="Node000004" class="node">
<title>Node4</title>
<g id="a_Node000004"><a xlink:href="../../dc/dfe/class_eigen_1_1_sparse_matrix.html#a4e5f706cfae14d2eaec1ea1e234905f1" target="_top" xlink:title=" ">
<polygon fill="white" stroke="#666666" points="246.12,-79.5 141.62,-79.5 141.62,-49 246.12,-49 246.12,-79.5"/>
<text text-anchor="start" x="149.62" y="-66" font-family="Helvetica,sans-Serif" font-size="10.00">Eigen::SparseMatrix</text>
<text text-anchor="middle" x="193.88" y="-54.75" font-family="Helvetica,sans-Serif" font-size="10.00">::outerSize</text>
</a>
</g>
</g>
<!-- Node1&#45;&gt;Node4 -->
<g id="edge3_Node000001_Node000004" class="edge">
<title>Node1&#45;&gt;Node4</title>
<g id="a_edge3_Node000001_Node000004"><a xlink:title=" ">
<path fill="none" stroke="#63b8ff" d="M105.48,-79.31C113.74,-77.89 122.36,-76.4 130.83,-74.94"/>
<polygon fill="#63b8ff" stroke="#63b8ff" points="131.18,-78.26 140.44,-73.11 129.99,-71.36 131.18,-78.26"/>
</a>
</g>
</g>
<!-- Node5 -->
<g id="Node000005" class="node">
<title>Node5</title>
<g id="a_Node000005"><a xlink:href="../../dc/dfe/class_eigen_1_1_sparse_matrix.html#a62e61bb861eee306d5b069ce652b5aa5" target="_top" xlink:title=" ">
<polygon fill="white" stroke="#666666" points="246.12,-30.5 141.62,-30.5 141.62,0 246.12,0 246.12,-30.5"/>
<text text-anchor="start" x="149.62" y="-17" font-family="Helvetica,sans-Serif" font-size="10.00">Eigen::SparseMatrix</text>
<text text-anchor="middle" x="193.88" y="-5.75" font-family="Helvetica,sans-Serif" font-size="10.00">::rows</text>
</a>
</g>
</g>
<!-- Node1&#45;&gt;Node5 -->
<g id="edge4_Node000001_Node000005" class="edge">
<title>Node1&#45;&gt;Node5</title>
<g id="a_edge4_Node000001_Node000005"><a xlink:title=" ">
<path fill="none" stroke="#63b8ff" d="M81.45,-72.54C98.58,-62.99 121.05,-50.66 141.25,-40.25 144.17,-38.75 147.19,-37.22 150.23,-35.69"/>
<polygon fill="#63b8ff" stroke="#63b8ff" points="151.57,-38.44 158.98,-30.87 148.46,-32.17 151.57,-38.44"/>
</a>
</g>
</g>
</g>
</svg>
