<?xml version="1.0" encoding="UTF-8" standalone="no"?>
<!DOCTYPE svg PUBLIC "-//W3C//DTD SVG 1.1//EN"
 "http://www.w3.org/Graphics/SVG/1.1/DTD/svg11.dtd">
<!-- Generated by graphviz version 8.0.5 (20230430.1635)
 -->
<!-- Title: Slic3r::build_graph Pages: 1 -->
<svg width="388pt" height="113pt"
 viewBox="0.00 0.00 388.25 112.88" xmlns="http://www.w3.org/2000/svg" xmlns:xlink="http://www.w3.org/1999/xlink">
<g id="graph0" class="graph" transform="scale(1 1) rotate(0) translate(4 108.88)">
<title>Slic3r::build_graph</title>
<!-- Node1 -->
<g id="Node000001" class="node">
<title>Node1</title>
<g id="a_Node000001"><a xlink:title=" ">
<polygon fill="#999999" stroke="#666666" points="96.25,-56.25 0,-56.25 0,-37 96.25,-37 96.25,-56.25"/>
<text text-anchor="middle" x="48.12" y="-42.75" font-family="Helvetica,sans-Serif" font-size="10.00">Slic3r::build_graph</text>
</a>
</g>
</g>
<!-- Node1&#45;&gt;Node1 -->
<g id="edge1_Node000001_Node000001" class="edge">
<title>Node1&#45;&gt;Node1</title>
<g id="a_edge1_Node000001_Node000001"><a xlink:title=" ">
<path fill="none" stroke="#63b8ff" d="M26.36,-56.54C16.44,-65.15 23.69,-74.25 48.12,-74.25 62.25,-74.25 70.63,-71.21 73.28,-66.98"/>
<polygon fill="#63b8ff" stroke="#63b8ff" points="76.3,-65.97 69.89,-57.54 69.65,-68.13 76.3,-65.97"/>
</a>
</g>
</g>
<!-- Node2 -->
<g id="Node000002" class="node">
<title>Node2</title>
<g id="a_Node000002"><a xlink:href="../../de/db8/namespace_slic3r.html#a1784878753573619fb57d57cc2fceed8" target="_top" xlink:title=" ">
<polygon fill="white" stroke="#666666" points="242,-104.88 132.25,-104.88 132.25,-74.38 242,-74.38 242,-104.88"/>
<text text-anchor="start" x="140.25" y="-91.38" font-family="Helvetica,sans-Serif" font-size="10.00">Slic3r::colored_points</text>
<text text-anchor="middle" x="187.12" y="-80.12" font-family="Helvetica,sans-Serif" font-size="10.00">_to_polygon</text>
</a>
</g>
</g>
<!-- Node1&#45;&gt;Node2 -->
<g id="edge2_Node000001_Node000002" class="edge">
<title>Node1&#45;&gt;Node2</title>
<g id="a_edge2_Node000001_Node000002"><a xlink:title=" ">
<path fill="none" stroke="#63b8ff" d="M81.25,-56.71C94.48,-60.86 110.27,-65.82 125.53,-70.61"/>
<polygon fill="#63b8ff" stroke="#63b8ff" points="124.39,-74.23 134.98,-73.88 126.48,-67.55 124.39,-74.23"/>
</a>
</g>
</g>
<!-- Node3 -->
<g id="Node000003" class="node">
<title>Node3</title>
<g id="a_Node000003"><a xlink:href="../../de/db8/namespace_slic3r.html#a61e88a2d1ff0bec5ec86a23273dda52a" target="_top" xlink:title=" ">
<polygon fill="white" stroke="#666666" points="227.38,-56.25 146.88,-56.25 146.88,-37 227.38,-37 227.38,-56.25"/>
<text text-anchor="middle" x="187.12" y="-42.75" font-family="Helvetica,sans-Serif" font-size="10.00">Slic3r::to_lines</text>
</a>
</g>
</g>
<!-- Node1&#45;&gt;Node3 -->
<g id="edge3_Node000001_Node000003" class="edge">
<title>Node1&#45;&gt;Node3</title>
<g id="a_edge3_Node000001_Node000003"><a xlink:title=" ">
<path fill="none" stroke="#63b8ff" d="M96.66,-46.62C109.21,-46.62 122.8,-46.62 135.51,-46.62"/>
<polygon fill="#63b8ff" stroke="#63b8ff" points="135.4,-50.13 145.4,-46.62 135.4,-43.13 135.4,-50.13"/>
</a>
</g>
</g>
<!-- Node5 -->
<g id="Node000005" class="node">
<title>Node5</title>
<g id="a_Node000005"><a xlink:href="../../de/db8/namespace_slic3r.html#ad15465925cebad24aeb551e245ae6530" target="_top" xlink:title=" ">
<polygon fill="white" stroke="#666666" points="230.38,-19.25 143.88,-19.25 143.88,0 230.38,0 230.38,-19.25"/>
<text text-anchor="middle" x="187.12" y="-5.75" font-family="Helvetica,sans-Serif" font-size="10.00">Slic3r::to_points</text>
</a>
</g>
</g>
<!-- Node1&#45;&gt;Node5 -->
<g id="edge5_Node000001_Node000005" class="edge">
<title>Node1&#45;&gt;Node5</title>
<g id="a_edge5_Node000001_Node000005"><a xlink:title=" ">
<path fill="none" stroke="#63b8ff" d="M86.56,-36.51C102.57,-32.19 121.45,-27.09 138.44,-22.5"/>
<polygon fill="#63b8ff" stroke="#63b8ff" points="138.99,-25.71 147.73,-19.72 137.17,-18.95 138.99,-25.71"/>
</a>
</g>
</g>
<!-- Node4 -->
<g id="Node000004" class="node">
<title>Node4</title>
<g id="a_Node000004"><a xlink:href="../../de/db8/namespace_slic3r.html#af91e5d9840641354d33cb15a5fbe16a8" target="_top" xlink:title=" ">
<polygon fill="white" stroke="#666666" points="380.25,-56.25 278,-56.25 278,-37 380.25,-37 380.25,-56.25"/>
<text text-anchor="middle" x="329.12" y="-42.75" font-family="Helvetica,sans-Serif" font-size="10.00">Slic3r::count_points</text>
</a>
</g>
</g>
<!-- Node3&#45;&gt;Node4 -->
<g id="edge4_Node000003_Node000004" class="edge">
<title>Node3&#45;&gt;Node4</title>
<g id="a_edge4_Node000003_Node000004"><a xlink:title=" ">
<path fill="none" stroke="#63b8ff" d="M227.87,-46.62C239.93,-46.62 253.48,-46.62 266.62,-46.62"/>
<polygon fill="#63b8ff" stroke="#63b8ff" points="266.52,-50.13 276.52,-46.62 266.52,-43.13 266.52,-50.13"/>
</a>
</g>
</g>
<!-- Node5&#45;&gt;Node4 -->
<g id="edge7_Node000005_Node000004" class="edge">
<title>Node5&#45;&gt;Node4</title>
<g id="a_edge7_Node000005_Node000004"><a xlink:title=" ">
<path fill="none" stroke="#63b8ff" d="M226.38,-19.74C242.74,-24.06 262.03,-29.16 279.4,-33.75"/>
<polygon fill="#63b8ff" stroke="#63b8ff" points="278.35,-37.36 288.92,-36.53 280.14,-30.59 278.35,-37.36"/>
</a>
</g>
</g>
<!-- Node6 -->
<g id="Node000006" class="node">
<title>Node6</title>
<g id="a_Node000006"><a xlink:href="../../de/db8/namespace_slic3r.html#ad61bb7f1e4b8aaa434964420b9bedf32" target="_top" xlink:title=" ">
<polygon fill="white" stroke="#666666" points="368.25,-19.25 290,-19.25 290,0 368.25,0 368.25,-19.25"/>
<text text-anchor="middle" x="329.12" y="-5.75" font-family="Helvetica,sans-Serif" font-size="10.00">Slic3r::append</text>
</a>
</g>
</g>
<!-- Node5&#45;&gt;Node6 -->
<g id="edge6_Node000005_Node000006" class="edge">
<title>Node5&#45;&gt;Node6</title>
<g id="a_edge6_Node000005_Node000006"><a xlink:title=" ">
<path fill="none" stroke="#63b8ff" d="M230.51,-9.62C245.81,-9.62 263.21,-9.62 279.04,-9.62"/>
<polygon fill="#63b8ff" stroke="#63b8ff" points="278.7,-13.13 288.7,-9.62 278.7,-6.13 278.7,-13.13"/>
</a>
</g>
</g>
</g>
</svg>
