<?xml version="1.0" encoding="UTF-8" standalone="no"?>
<!DOCTYPE svg PUBLIC "-//W3C//DTD SVG 1.1//EN"
 "http://www.w3.org/Graphics/SVG/1.1/DTD/svg11.dtd">
<!-- Generated by graphviz version 8.0.5 (20230430.1635)
 -->
<!-- Title: Slic3r::string_to_floating_decimal_point Pages: 1 -->
<svg width="771pt" height="381pt"
 viewBox="0.00 0.00 771.25 380.50" xmlns="http://www.w3.org/2000/svg" xmlns:xlink="http://www.w3.org/1999/xlink">
<g id="graph0" class="graph" transform="scale(1 1) rotate(0) translate(4 376.5)">
<title>Slic3r::string_to_floating_decimal_point</title>
<!-- Node1 -->
<g id="Node000001" class="node">
<title>Node1</title>
<g id="a_Node000001"><a xlink:title=" ">
<polygon fill="#999999" stroke="#666666" points="121,-226.5 0,-226.5 0,-196 121,-196 121,-226.5"/>
<text text-anchor="start" x="8" y="-213" font-family="Helvetica,sans-Serif" font-size="10.00">Slic3r::string_to_floating</text>
<text text-anchor="middle" x="60.5" y="-201.75" font-family="Helvetica,sans-Serif" font-size="10.00">_decimal_point</text>
</a>
</g>
</g>
<!-- Node2 -->
<g id="Node000002" class="node">
<title>Node2</title>
<g id="a_Node000002"><a xlink:href="../../d2/db8/namespacefast__float.html#a08d95610bd95d46b636c86c9980ab1a9" target="_top" xlink:title=" ">
<polygon fill="white" stroke="#666666" points="268.25,-220.88 157,-220.88 157,-201.62 268.25,-201.62 268.25,-220.88"/>
<text text-anchor="middle" x="212.62" y="-207.38" font-family="Helvetica,sans-Serif" font-size="10.00">fast_float::from_chars</text>
</a>
</g>
</g>
<!-- Node1&#45;&gt;Node2 -->
<g id="edge1_Node000001_Node000002" class="edge">
<title>Node1&#45;&gt;Node2</title>
<g id="a_edge1_Node000001_Node000002"><a xlink:title=" ">
<path fill="none" stroke="#63b8ff" d="M121.26,-211.25C129.45,-211.25 137.89,-211.25 146.17,-211.25"/>
<polygon fill="#63b8ff" stroke="#63b8ff" points="145.94,-214.75 155.94,-211.25 145.94,-207.75 145.94,-214.75"/>
</a>
</g>
</g>
<!-- Node3 -->
<g id="Node000003" class="node">
<title>Node3</title>
<g id="a_Node000003"><a xlink:href="../../d2/db8/namespacefast__float.html#aa37a996f81e9d34d9db2c2de84cf3d5f" target="_top" xlink:title=" ">
<polygon fill="white" stroke="#666666" points="415.5,-226.5 304.25,-226.5 304.25,-196 415.5,-196 415.5,-226.5"/>
<text text-anchor="start" x="312.25" y="-213" font-family="Helvetica,sans-Serif" font-size="10.00">fast_float::from_chars</text>
<text text-anchor="middle" x="359.88" y="-201.75" font-family="Helvetica,sans-Serif" font-size="10.00">_advanced</text>
</a>
</g>
</g>
<!-- Node2&#45;&gt;Node3 -->
<g id="edge2_Node000002_Node000003" class="edge">
<title>Node2&#45;&gt;Node3</title>
<g id="a_edge2_Node000002_Node000003"><a xlink:title=" ">
<path fill="none" stroke="#63b8ff" d="M268.54,-211.25C276.49,-211.25 284.75,-211.25 292.89,-211.25"/>
<polygon fill="#63b8ff" stroke="#63b8ff" points="292.88,-214.75 302.88,-211.25 292.88,-207.75 292.88,-214.75"/>
</a>
</g>
</g>
<!-- Node4 -->
<g id="Node000004" class="node">
<title>Node4</title>
<g id="a_Node000004"><a xlink:href="../../d2/db8/namespacefast__float.html#ac0d46e1624369ee06fd58ddc867de61c" target="_top" xlink:title=" ">
<polygon fill="white" stroke="#666666" points="563.5,-334.5 463.5,-334.5 463.5,-304 563.5,-304 563.5,-334.5"/>
<text text-anchor="start" x="471.5" y="-321" font-family="Helvetica,sans-Serif" font-size="10.00">fast_float::compute</text>
<text text-anchor="middle" x="513.5" y="-309.75" font-family="Helvetica,sans-Serif" font-size="10.00">_float</text>
</a>
</g>
</g>
<!-- Node3&#45;&gt;Node4 -->
<g id="edge3_Node000003_Node000004" class="edge">
<title>Node3&#45;&gt;Node4</title>
<g id="a_edge3_Node000003_Node000004"><a xlink:title=" ">
<path fill="none" stroke="#63b8ff" d="M374.23,-226.75C390.79,-245.17 420.62,-275.84 451.5,-295.25 453.46,-296.48 455.49,-297.67 457.57,-298.81"/>
<polygon fill="#63b8ff" stroke="#63b8ff" points="455.42,-302.15 465.93,-303.52 458.57,-295.9 455.42,-302.15"/>
</a>
</g>
</g>
<!-- Node7 -->
<g id="Node000007" class="node">
<title>Node7</title>
<g id="a_Node000007"><a xlink:href="../../dd/d32/structfast__float_1_1binary__format.html#abda84b7e126bd54ef968a7143b4b83f0" target="_top" xlink:title=" ">
<polygon fill="white" stroke="#666666" points="568.75,-286.12 458.25,-286.12 458.25,-244.38 568.75,-244.38 568.75,-286.12"/>
<text text-anchor="start" x="466.25" y="-272.62" font-family="Helvetica,sans-Serif" font-size="10.00">fast_float::binary</text>
<text text-anchor="start" x="466.25" y="-261.38" font-family="Helvetica,sans-Serif" font-size="10.00">_format::exact_power</text>
<text text-anchor="middle" x="513.5" y="-250.12" font-family="Helvetica,sans-Serif" font-size="10.00">_of_ten</text>
</a>
</g>
</g>
<!-- Node3&#45;&gt;Node7 -->
<g id="edge6_Node000003_Node000007" class="edge">
<title>Node3&#45;&gt;Node7</title>
<g id="a_edge6_Node000003_Node000007"><a xlink:title=" ">
<path fill="none" stroke="#63b8ff" d="M404.73,-226.87C418.23,-231.68 433.39,-237.08 447.98,-242.27"/>
<polygon fill="#63b8ff" stroke="#63b8ff" points="446.36,-245.77 456.96,-245.83 448.71,-239.17 446.36,-245.77"/>
</a>
</g>
</g>
<!-- Node8 -->
<g id="Node000008" class="node">
<title>Node8</title>
<g id="a_Node000008"><a xlink:href="../../d0/dd2/namespacefast__float_1_1detail.html#a04ca403cbaeb586d55a54cd584b2d9c7" target="_top" xlink:title=" ">
<polygon fill="white" stroke="#666666" points="556.38,-226.5 470.62,-226.5 470.62,-196 556.38,-196 556.38,-226.5"/>
<text text-anchor="start" x="478.62" y="-213" font-family="Helvetica,sans-Serif" font-size="10.00">fast_float::detail</text>
<text text-anchor="middle" x="513.5" y="-201.75" font-family="Helvetica,sans-Serif" font-size="10.00">::parse_infnan</text>
</a>
</g>
</g>
<!-- Node3&#45;&gt;Node8 -->
<g id="edge7_Node000003_Node000008" class="edge">
<title>Node3&#45;&gt;Node8</title>
<g id="a_edge7_Node000003_Node000008"><a xlink:title=" ">
<path fill="none" stroke="#63b8ff" d="M415.62,-211.25C429.95,-211.25 445.37,-211.25 459.6,-211.25"/>
<polygon fill="#63b8ff" stroke="#63b8ff" points="459.21,-214.75 469.21,-211.25 459.21,-207.75 459.21,-214.75"/>
</a>
</g>
</g>
<!-- Node10 -->
<g id="Node000010" class="node">
<title>Node10</title>
<g id="a_Node000010"><a xlink:href="../../d2/db8/namespacefast__float.html#aa04ba682718fdce3ebb8d958d4f42b21" target="_top" xlink:title=" ">
<polygon fill="white" stroke="#666666" points="575.5,-177.5 451.5,-177.5 451.5,-147 575.5,-147 575.5,-177.5"/>
<text text-anchor="start" x="459.5" y="-164" font-family="Helvetica,sans-Serif" font-size="10.00">fast_float::parse_number</text>
<text text-anchor="middle" x="513.5" y="-152.75" font-family="Helvetica,sans-Serif" font-size="10.00">_string</text>
</a>
</g>
</g>
<!-- Node3&#45;&gt;Node10 -->
<g id="edge9_Node000003_Node000010" class="edge">
<title>Node3&#45;&gt;Node10</title>
<g id="a_edge9_Node000003_Node000010"><a xlink:title=" ">
<path fill="none" stroke="#63b8ff" d="M409.27,-195.61C423.28,-191.08 438.75,-186.08 453.35,-181.37"/>
<polygon fill="#63b8ff" stroke="#63b8ff" points="454.35,-184.4 462.79,-177.99 452.2,-177.74 454.35,-184.4"/>
</a>
</g>
</g>
<!-- Node14 -->
<g id="Node000014" class="node">
<title>Node14</title>
<g id="a_Node000014"><a xlink:href="../../d0/dd2/namespacefast__float_1_1detail.html#ab60748cbd603b7e0fc82d2499e875969" target="_top" xlink:title=" ">
<polygon fill="white" stroke="#666666" points="556.38,-79.5 470.62,-79.5 470.62,-49 556.38,-49 556.38,-79.5"/>
<text text-anchor="start" x="478.62" y="-66" font-family="Helvetica,sans-Serif" font-size="10.00">fast_float::detail</text>
<text text-anchor="middle" x="513.5" y="-54.75" font-family="Helvetica,sans-Serif" font-size="10.00">::to_float</text>
</a>
</g>
</g>
<!-- Node3&#45;&gt;Node14 -->
<g id="edge13_Node000003_Node000014" class="edge">
<title>Node3&#45;&gt;Node14</title>
<g id="a_edge13_Node000003_Node000014"><a xlink:title=" ">
<path fill="none" stroke="#63b8ff" d="M377.1,-195.52C403.89,-169.55 457.5,-117.58 488.62,-87.4"/>
<polygon fill="#63b8ff" stroke="#63b8ff" points="490.65,-90.34 495.39,-80.87 485.77,-85.32 490.65,-90.34"/>
</a>
</g>
</g>
<!-- Node5 -->
<g id="Node000005" class="node">
<title>Node5</title>
<g id="a_Node000005"><a xlink:href="../../d2/db8/namespacefast__float.html#a2ca9ae95f0b757237dcaeb52bec71467" target="_top" xlink:title=" ">
<polygon fill="white" stroke="#666666" points="734,-372.5 640.75,-372.5 640.75,-342 734,-342 734,-372.5"/>
<text text-anchor="start" x="648.75" y="-359" font-family="Helvetica,sans-Serif" font-size="10.00">fast_float::leading</text>
<text text-anchor="middle" x="687.38" y="-347.75" font-family="Helvetica,sans-Serif" font-size="10.00">_zeroes</text>
</a>
</g>
</g>
<!-- Node4&#45;&gt;Node5 -->
<g id="edge4_Node000004_Node000005" class="edge">
<title>Node4&#45;&gt;Node5</title>
<g id="a_edge4_Node000004_Node000005"><a xlink:title=" ">
<path fill="none" stroke="#63b8ff" d="M563.75,-330.14C584.37,-334.7 608.46,-340.02 629.81,-344.74"/>
<polygon fill="#63b8ff" stroke="#63b8ff" points="628.84,-348.33 639.36,-347.08 630.35,-341.5 628.84,-348.33"/>
</a>
</g>
</g>
<!-- Node6 -->
<g id="Node000006" class="node">
<title>Node6</title>
<g id="a_Node000006"><a xlink:href="../../d0/dd2/namespacefast__float_1_1detail.html#af1bac4dff87eae126e46ad8f47e0ca44" target="_top" xlink:title=" ">
<polygon fill="white" stroke="#666666" points="730.25,-323.5 644.5,-323.5 644.5,-293 730.25,-293 730.25,-323.5"/>
<text text-anchor="start" x="652.5" y="-310" font-family="Helvetica,sans-Serif" font-size="10.00">fast_float::detail</text>
<text text-anchor="middle" x="687.38" y="-298.75" font-family="Helvetica,sans-Serif" font-size="10.00">::power</text>
</a>
</g>
</g>
<!-- Node4&#45;&gt;Node6 -->
<g id="edge5_Node000004_Node000006" class="edge">
<title>Node4&#45;&gt;Node6</title>
<g id="a_edge5_Node000004_Node000006"><a xlink:title=" ">
<path fill="none" stroke="#63b8ff" d="M563.75,-316.1C585.48,-314.71 611.05,-313.07 633.21,-311.65"/>
<polygon fill="#63b8ff" stroke="#63b8ff" points="633.35,-315.09 643.11,-310.95 632.91,-308.1 633.35,-315.09"/>
</a>
</g>
</g>
<!-- Node9 -->
<g id="Node000009" class="node">
<title>Node9</title>
<g id="a_Node000009"><a xlink:href="../../d2/db8/namespacefast__float.html#acaff61ca7767af20d5bc35fd4a42d2d1" target="_top" xlink:title=" ">
<polygon fill="white" stroke="#666666" points="736.25,-263.5 638.5,-263.5 638.5,-233 736.25,-233 736.25,-263.5"/>
<text text-anchor="start" x="646.5" y="-250" font-family="Helvetica,sans-Serif" font-size="10.00">fast_float::fastfloat</text>
<text text-anchor="middle" x="687.38" y="-238.75" font-family="Helvetica,sans-Serif" font-size="10.00">_strncasecmp</text>
</a>
</g>
</g>
<!-- Node8&#45;&gt;Node9 -->
<g id="edge8_Node000008_Node000009" class="edge">
<title>Node8&#45;&gt;Node9</title>
<g id="a_edge8_Node000008_Node000009"><a xlink:title=" ">
<path fill="none" stroke="#63b8ff" d="M556.55,-220.3C577.92,-224.9 604.24,-230.57 627.59,-235.59"/>
<polygon fill="#63b8ff" stroke="#63b8ff" points="626.56,-239.17 637.08,-237.85 628.04,-232.33 626.56,-239.17"/>
</a>
</g>
</g>
<!-- Node11 -->
<g id="Node000011" class="node">
<title>Node11</title>
<g id="a_Node000011"><a xlink:href="../../d2/db8/namespacefast__float.html#ad63214f069c8a75dd77613ab7ec899c5" target="_top" xlink:title=" ">
<polygon fill="white" stroke="#666666" points="739.62,-214.88 635.12,-214.88 635.12,-195.62 739.62,-195.62 739.62,-214.88"/>
<text text-anchor="middle" x="687.38" y="-201.38" font-family="Helvetica,sans-Serif" font-size="10.00">fast_float::is_integer</text>
</a>
</g>
</g>
<!-- Node10&#45;&gt;Node11 -->
<g id="edge10_Node000010_Node000011" class="edge">
<title>Node10&#45;&gt;Node11</title>
<g id="a_edge10_Node000010_Node000011"><a xlink:title=" ">
<path fill="none" stroke="#63b8ff" d="M575.58,-177.53C595.19,-182.44 616.69,-187.82 635.49,-192.52"/>
<polygon fill="#63b8ff" stroke="#63b8ff" points="634.37,-196.1 644.92,-195.13 636.07,-189.31 634.37,-196.1"/>
</a>
</g>
</g>
<!-- Node12 -->
<g id="Node000012" class="node">
<title>Node12</title>
<g id="a_Node000012"><a xlink:href="../../d2/db8/namespacefast__float.html#ae4fb55d98ee3f87cc61184cff7546ce4" target="_top" xlink:title=" ">
<polygon fill="white" stroke="#666666" points="740.38,-177.5 634.38,-177.5 634.38,-147 740.38,-147 740.38,-177.5"/>
<text text-anchor="start" x="642.38" y="-164" font-family="Helvetica,sans-Serif" font-size="10.00">fast_float::is_made</text>
<text text-anchor="middle" x="687.38" y="-152.75" font-family="Helvetica,sans-Serif" font-size="10.00">_of_eight_digits_fast</text>
</a>
</g>
</g>
<!-- Node10&#45;&gt;Node12 -->
<g id="edge11_Node000010_Node000012" class="edge">
<title>Node10&#45;&gt;Node12</title>
<g id="a_edge11_Node000010_Node000012"><a xlink:title=" ">
<path fill="none" stroke="#63b8ff" d="M575.58,-162.25C591.1,-162.25 607.81,-162.25 623.42,-162.25"/>
<polygon fill="#63b8ff" stroke="#63b8ff" points="623.03,-165.75 633.03,-162.25 623.03,-158.75 623.03,-165.75"/>
</a>
</g>
</g>
<!-- Node13 -->
<g id="Node000013" class="node">
<title>Node13</title>
<g id="a_Node000013"><a xlink:href="../../d2/db8/namespacefast__float.html#a28670b1889353b27a257f5ca113380e8" target="_top" xlink:title=" ">
<polygon fill="white" stroke="#666666" points="743.75,-128.5 631,-128.5 631,-98 743.75,-98 743.75,-128.5"/>
<text text-anchor="start" x="639" y="-115" font-family="Helvetica,sans-Serif" font-size="10.00">fast_float::parse_eight</text>
<text text-anchor="middle" x="687.38" y="-103.75" font-family="Helvetica,sans-Serif" font-size="10.00">_digits_unrolled</text>
</a>
</g>
</g>
<!-- Node10&#45;&gt;Node13 -->
<g id="edge12_Node000010_Node000013" class="edge">
<title>Node10&#45;&gt;Node13</title>
<g id="a_edge12_Node000010_Node000013"><a xlink:title=" ">
<path fill="none" stroke="#63b8ff" d="M569.35,-146.61C585.71,-141.95 603.8,-136.79 620.76,-131.96"/>
<polygon fill="#63b8ff" stroke="#63b8ff" points="621.5,-135.1 630.16,-128.99 619.58,-128.37 621.5,-135.1"/>
</a>
</g>
</g>
<!-- Node15 -->
<g id="Node000015" class="node">
<title>Node15</title>
<g id="a_Node000015"><a xlink:href="../../dd/d32/structfast__float_1_1binary__format.html#a02f8ce47a8840ac0231c3fc8c623000a" target="_top" xlink:title=" ">
<polygon fill="white" stroke="#666666" points="763.25,-79.5 611.5,-79.5 611.5,-49 763.25,-49 763.25,-79.5"/>
<text text-anchor="start" x="619.5" y="-66" font-family="Helvetica,sans-Serif" font-size="10.00">fast_float::binary</text>
<text text-anchor="middle" x="687.38" y="-54.75" font-family="Helvetica,sans-Serif" font-size="10.00">_format::mantissa_explicit_bits</text>
</a>
</g>
</g>
<!-- Node14&#45;&gt;Node15 -->
<g id="edge14_Node000014_Node000015" class="edge">
<title>Node14&#45;&gt;Node15</title>
<g id="a_edge14_Node000014_Node000015"><a xlink:title=" ">
<path fill="none" stroke="#63b8ff" d="M556.55,-64.25C569.95,-64.25 585.3,-64.25 600.64,-64.25"/>
<polygon fill="#63b8ff" stroke="#63b8ff" points="600.24,-67.75 610.24,-64.25 600.24,-60.75 600.24,-67.75"/>
</a>
</g>
</g>
<!-- Node16 -->
<g id="Node000016" class="node">
<title>Node16</title>
<g id="a_Node000016"><a xlink:href="../../dd/d32/structfast__float_1_1binary__format.html#a9132b7acde6fc92f627ab5635368f19c" target="_top" xlink:title=" ">
<polygon fill="white" stroke="#666666" points="738.12,-30.5 636.62,-30.5 636.62,0 738.12,0 738.12,-30.5"/>
<text text-anchor="start" x="644.62" y="-17" font-family="Helvetica,sans-Serif" font-size="10.00">fast_float::binary</text>
<text text-anchor="middle" x="687.38" y="-5.75" font-family="Helvetica,sans-Serif" font-size="10.00">_format::sign_index</text>
</a>
</g>
</g>
<!-- Node14&#45;&gt;Node16 -->
<g id="edge15_Node000014_Node000016" class="edge">
<title>Node14&#45;&gt;Node16</title>
<g id="a_edge15_Node000014_Node000016"><a xlink:title=" ">
<path fill="none" stroke="#63b8ff" d="M556.55,-52.26C577.4,-46.32 602.97,-39.03 625.89,-32.49"/>
<polygon fill="#63b8ff" stroke="#63b8ff" points="626.55,-35.66 635.21,-29.55 624.63,-28.93 626.55,-35.66"/>
</a>
</g>
</g>
</g>
</svg>
