<?xml version="1.0" encoding="UTF-8" standalone="no"?>
<!DOCTYPE svg PUBLIC "-//W3C//DTD SVG 1.1//EN"
 "http://www.w3.org/Graphics/SVG/1.1/DTD/svg11.dtd">
<!-- Generated by graphviz version 8.0.5 (20230430.1635)
 -->
<!-- Title: Slic3r::apply_to_print_region_config Pages: 1 -->
<svg width="403pt" height="211pt"
 viewBox="0.00 0.00 402.50 210.50" xmlns="http://www.w3.org/2000/svg" xmlns:xlink="http://www.w3.org/1999/xlink">
<g id="graph0" class="graph" transform="scale(1 1) rotate(0) translate(4 206.5)">
<title>Slic3r::apply_to_print_region_config</title>
<!-- Node1 -->
<g id="Node000001" class="node">
<title>Node1</title>
<g id="a_Node000001"><a xlink:title=" ">
<polygon fill="#999999" stroke="#666666" points="107.5,-110.5 0,-110.5 0,-80 107.5,-80 107.5,-110.5"/>
<text text-anchor="start" x="8" y="-97" font-family="Helvetica,sans-Serif" font-size="10.00">Slic3r::apply_to_print</text>
<text text-anchor="middle" x="53.75" y="-85.75" font-family="Helvetica,sans-Serif" font-size="10.00">_region_config</text>
</a>
</g>
</g>
<!-- Node1&#45;&gt;Node1 -->
<g id="edge1_Node000001_Node000001" class="edge">
<title>Node1&#45;&gt;Node1</title>
<g id="a_edge1_Node000001_Node000001"><a xlink:title=" ">
<path fill="none" stroke="#63b8ff" d="M27.46,-110.99C22.09,-120.06 30.86,-128.5 53.75,-128.5 66.63,-128.5 75.03,-125.83 78.97,-121.88"/>
<polygon fill="#63b8ff" stroke="#63b8ff" points="82.55,-122.28 80.04,-111.99 75.58,-121.6 82.55,-122.28"/>
</a>
</g>
</g>
<!-- Node2 -->
<g id="Node000002" class="node">
<title>Node2</title>
<g id="a_Node000002"><a xlink:href="../../d5/df0/class_slic3r_1_1_dynamic_config.html#a42a0781feba8bc966589bcbc81fb368e" target="_top" xlink:title=" ">
<polygon fill="white" stroke="#666666" points="259.25,-202.5 145,-202.5 145,-172 259.25,-172 259.25,-202.5"/>
<text text-anchor="start" x="153" y="-189" font-family="Helvetica,sans-Serif" font-size="10.00">Slic3r::DynamicConfig</text>
<text text-anchor="middle" x="202.12" y="-177.75" font-family="Helvetica,sans-Serif" font-size="10.00">::cbegin</text>
</a>
</g>
</g>
<!-- Node1&#45;&gt;Node2 -->
<g id="edge2_Node000001_Node000002" class="edge">
<title>Node1&#45;&gt;Node2</title>
<g id="a_edge2_Node000001_Node000002"><a xlink:title=" ">
<path fill="none" stroke="#63b8ff" d="M72.89,-110.99C90.22,-125.52 117.48,-147.08 143.5,-162.25 146.15,-163.8 148.91,-165.3 151.73,-166.76"/>
<polygon fill="#63b8ff" stroke="#63b8ff" points="149.93,-170.27 160.45,-171.52 153.01,-163.98 149.93,-170.27"/>
</a>
</g>
</g>
<!-- Node3 -->
<g id="Node000003" class="node">
<title>Node3</title>
<g id="a_Node000003"><a xlink:href="../../d5/df0/class_slic3r_1_1_dynamic_config.html#a90d9792753662d6f22e3aaffe950257b" target="_top" xlink:title=" ">
<polygon fill="white" stroke="#666666" points="259.25,-153.5 145,-153.5 145,-123 259.25,-123 259.25,-153.5"/>
<text text-anchor="start" x="153" y="-140" font-family="Helvetica,sans-Serif" font-size="10.00">Slic3r::DynamicConfig</text>
<text text-anchor="middle" x="202.12" y="-128.75" font-family="Helvetica,sans-Serif" font-size="10.00">::cend</text>
</a>
</g>
</g>
<!-- Node1&#45;&gt;Node3 -->
<g id="edge3_Node000001_Node000003" class="edge">
<title>Node1&#45;&gt;Node3</title>
<g id="a_edge3_Node000001_Node000003"><a xlink:title=" ">
<path fill="none" stroke="#63b8ff" d="M107.59,-110.77C117.32,-113.63 127.56,-116.64 137.56,-119.58"/>
<polygon fill="#63b8ff" stroke="#63b8ff" points="136.29,-123.14 146.87,-122.6 138.26,-116.43 136.29,-123.14"/>
</a>
</g>
</g>
<!-- Node4 -->
<g id="Node000004" class="node">
<title>Node4</title>
<g id="a_Node000004"><a xlink:href="../../de/db8/namespace_slic3r.html#ac29a0976cd6f5ed3ee83af70c7930ae0" target="_top" xlink:title=" ">
<polygon fill="white" stroke="#666666" points="240.12,-104.88 164.12,-104.88 164.12,-85.62 240.12,-85.62 240.12,-104.88"/>
<text text-anchor="middle" x="202.12" y="-91.38" font-family="Helvetica,sans-Serif" font-size="10.00">Slic3r::one_of</text>
</a>
</g>
</g>
<!-- Node1&#45;&gt;Node4 -->
<g id="edge4_Node000001_Node000004" class="edge">
<title>Node1&#45;&gt;Node4</title>
<g id="a_edge4_Node000001_Node000004"><a xlink:title=" ">
<path fill="none" stroke="#63b8ff" d="M107.59,-95.25C122.47,-95.25 138.57,-95.25 153.15,-95.25"/>
<polygon fill="#63b8ff" stroke="#63b8ff" points="152.95,-98.75 162.95,-95.25 152.95,-91.75 152.95,-98.75"/>
</a>
</g>
</g>
<!-- Node6 -->
<g id="Node000006" class="node">
<title>Node6</title>
<g id="a_Node000006"><a xlink:href="../../d9/d06/class_slic3r_1_1_config_base.html#ac776c9b05f9e288c0f04fd3ecd18e7d9" target="_top" xlink:title=" ">
<polygon fill="white" stroke="#666666" points="260.75,-67.88 143.5,-67.88 143.5,-48.62 260.75,-48.62 260.75,-67.88"/>
<text text-anchor="middle" x="202.12" y="-54.38" font-family="Helvetica,sans-Serif" font-size="10.00">Slic3r::ConfigBase::opt</text>
</a>
</g>
</g>
<!-- Node1&#45;&gt;Node6 -->
<g id="edge6_Node000001_Node000006" class="edge">
<title>Node1&#45;&gt;Node6</title>
<g id="a_edge6_Node000001_Node000006"><a xlink:title=" ">
<path fill="none" stroke="#63b8ff" d="M107.59,-81.89C121.69,-78.33 136.88,-74.49 150.83,-70.96"/>
<polygon fill="#63b8ff" stroke="#63b8ff" points="151.39,-74.18 160.22,-68.34 149.67,-67.39 151.39,-74.18"/>
</a>
</g>
</g>
<!-- Node8 -->
<g id="Node000008" class="node">
<title>Node8</title>
<g id="a_Node000008"><a xlink:href="../../d7/dfc/class_slic3r_1_1_config_option_int.html#a0431769f48fecffd0b8e67dae8432244" target="_top" xlink:title=" ">
<polygon fill="white" stroke="#666666" points="259.62,-30.5 144.62,-30.5 144.62,0 259.62,0 259.62,-30.5"/>
<text text-anchor="start" x="152.62" y="-17" font-family="Helvetica,sans-Serif" font-size="10.00">Slic3r::ConfigOptionInt</text>
<text text-anchor="middle" x="202.12" y="-5.75" font-family="Helvetica,sans-Serif" font-size="10.00">::setInt</text>
</a>
</g>
</g>
<!-- Node1&#45;&gt;Node8 -->
<g id="edge8_Node000001_Node000008" class="edge">
<title>Node1&#45;&gt;Node8</title>
<g id="a_edge8_Node000001_Node000008"><a xlink:title=" ">
<path fill="none" stroke="#63b8ff" d="M77.11,-79.66C94.69,-67.77 120.05,-51.42 143.5,-39.25 146.03,-37.94 148.64,-36.64 151.3,-35.37"/>
<polygon fill="#63b8ff" stroke="#63b8ff" points="152.41,-38.26 160.05,-30.92 149.5,-31.89 152.41,-38.26"/>
</a>
</g>
</g>
<!-- Node5 -->
<g id="Node000005" class="node">
<title>Node5</title>
<g id="a_Node000005"><a xlink:href="../../de/db8/namespace_slic3r.html#acfc9a09a09ef564e917364aebae46df0" target="_top" xlink:title=" ">
<polygon fill="white" stroke="#666666" points="387.38,-107.88 303.88,-107.88 303.88,-88.62 387.38,-88.62 387.38,-107.88"/>
<text text-anchor="middle" x="345.62" y="-94.38" font-family="Helvetica,sans-Serif" font-size="10.00">Slic3r::contains</text>
</a>
</g>
</g>
<!-- Node4&#45;&gt;Node5 -->
<g id="edge5_Node000004_Node000005" class="edge">
<title>Node4&#45;&gt;Node5</title>
<g id="a_edge5_Node000004_Node000005"><a xlink:title=" ">
<path fill="none" stroke="#63b8ff" d="M240.3,-96.04C256.37,-96.38 275.45,-96.78 292.87,-97.15"/>
<polygon fill="#63b8ff" stroke="#63b8ff" points="292.39,-100.66 302.46,-97.38 292.54,-93.67 292.39,-100.66"/>
</a>
</g>
</g>
<!-- Node7 -->
<g id="Node000007" class="node">
<title>Node7</title>
<g id="a_Node000007"><a xlink:href="../../d9/d06/class_slic3r_1_1_config_base.html#a699680b37bd3c116736fd1a2ec831728" target="_top" xlink:title=" ">
<polygon fill="white" stroke="#666666" points="394.5,-70.5 296.75,-70.5 296.75,-40 394.5,-40 394.5,-70.5"/>
<text text-anchor="start" x="304.75" y="-57" font-family="Helvetica,sans-Serif" font-size="10.00">Slic3r::ConfigBase</text>
<text text-anchor="middle" x="345.62" y="-45.75" font-family="Helvetica,sans-Serif" font-size="10.00">::optptr</text>
</a>
</g>
</g>
<!-- Node6&#45;&gt;Node7 -->
<g id="edge7_Node000006_Node000007" class="edge">
<title>Node6&#45;&gt;Node7</title>
<g id="a_edge7_Node000006_Node000007"><a xlink:title=" ">
<path fill="none" stroke="#63b8ff" d="M261.09,-57.02C269.17,-56.85 277.48,-56.67 285.58,-56.5"/>
<polygon fill="#63b8ff" stroke="#63b8ff" points="285.53,-59.98 295.45,-56.27 285.38,-52.98 285.53,-59.98"/>
</a>
</g>
</g>
</g>
</svg>
