<?xml version="1.0" encoding="UTF-8" standalone="no"?>
<!DOCTYPE svg PUBLIC "-//W3C//DTD SVG 1.1//EN"
 "http://www.w3.org/Graphics/SVG/1.1/DTD/svg11.dtd">
<!-- Generated by graphviz version 8.0.5 (20230430.1635)
 -->
<!-- Title: Slic3r::any_expolygon_contains Pages: 1 -->
<svg width="608pt" height="168pt"
 viewBox="0.00 0.00 608.25 167.50" xmlns="http://www.w3.org/2000/svg" xmlns:xlink="http://www.w3.org/1999/xlink">
<g id="graph0" class="graph" transform="scale(1 1) rotate(0) translate(4 163.5)">
<title>Slic3r::any_expolygon_contains</title>
<!-- Node1 -->
<g id="Node000001" class="node">
<title>Node1</title>
<g id="a_Node000001"><a xlink:title=" ">
<polygon fill="#999999" stroke="#666666" points="112,-73.5 0,-73.5 0,-43 112,-43 112,-73.5"/>
<text text-anchor="start" x="8" y="-60" font-family="Helvetica,sans-Serif" font-size="10.00">Slic3r::any_expolygon</text>
<text text-anchor="middle" x="56" y="-48.75" font-family="Helvetica,sans-Serif" font-size="10.00">_contains</text>
</a>
</g>
</g>
<!-- Node2 -->
<g id="Node000002" class="node">
<title>Node2</title>
<g id="a_Node000002"><a xlink:href="../../de/db8/namespace_slic3r.html#ad548e5fae810fd4bd3b535c6b5f472aa" target="_top" xlink:title=" ">
<polygon fill="white" stroke="#666666" points="260,-116.5 148,-116.5 148,-86 260,-86 260,-116.5"/>
<text text-anchor="start" x="156" y="-103" font-family="Helvetica,sans-Serif" font-size="10.00">Slic3r::any_expolygon</text>
<text text-anchor="middle" x="204" y="-91.75" font-family="Helvetica,sans-Serif" font-size="10.00">_contains</text>
</a>
</g>
</g>
<!-- Node1&#45;&gt;Node2 -->
<g id="edge1_Node000001_Node000002" class="edge">
<title>Node1&#45;&gt;Node2</title>
<g id="a_edge1_Node000001_Node000002"><a xlink:title=" ">
<path fill="none" stroke="#63b8ff" d="M110.12,-73.9C119.58,-76.68 129.53,-79.61 139.25,-82.47"/>
<polygon fill="#63b8ff" stroke="#63b8ff" points="138.09,-86.08 148.67,-85.54 140.07,-79.36 138.09,-86.08"/>
</a>
</g>
</g>
<!-- Node5 -->
<g id="Node000005" class="node">
<title>Node5</title>
<g id="a_Node000005"><a xlink:href="../../d2/da7/class_slic3r_1_1_edge_grid_1_1_grid.html#a424f19dd6565d5d1b562462fd9d457d5" target="_top" xlink:title=" ">
<polygon fill="white" stroke="#666666" points="437.25,-73.5 296,-73.5 296,-43 437.25,-43 437.25,-73.5"/>
<text text-anchor="start" x="304" y="-60" font-family="Helvetica,sans-Serif" font-size="10.00">Slic3r::EdgeGrid::Grid</text>
<text text-anchor="middle" x="366.62" y="-48.75" font-family="Helvetica,sans-Serif" font-size="10.00">::visit_cells_intersecting_line</text>
</a>
</g>
</g>
<!-- Node1&#45;&gt;Node5 -->
<g id="edge8_Node000001_Node000005" class="edge">
<title>Node1&#45;&gt;Node5</title>
<g id="a_edge8_Node000001_Node000005"><a xlink:title=" ">
<path fill="none" stroke="#63b8ff" d="M112.18,-58.25C160.19,-58.25 230.41,-58.25 284.77,-58.25"/>
<polygon fill="#63b8ff" stroke="#63b8ff" points="284.76,-61.75 294.76,-58.25 284.76,-54.75 284.76,-61.75"/>
</a>
</g>
</g>
<!-- Node6 -->
<g id="Node000006" class="node">
<title>Node6</title>
<g id="a_Node000006"><a xlink:href="../../d7/dd1/class_slic3r_1_1_multi_point.html#af3d77ee0ed47dc3e2bf8e741d6a1e563" target="_top" xlink:title=" ">
<polygon fill="white" stroke="#666666" points="249.12,-30.5 158.88,-30.5 158.88,0 249.12,0 249.12,-30.5"/>
<text text-anchor="start" x="166.88" y="-17" font-family="Helvetica,sans-Serif" font-size="10.00">Slic3r::MultiPoint</text>
<text text-anchor="middle" x="204" y="-5.75" font-family="Helvetica,sans-Serif" font-size="10.00">::size</text>
</a>
</g>
</g>
<!-- Node1&#45;&gt;Node6 -->
<g id="edge7_Node000001_Node000006" class="edge">
<title>Node1&#45;&gt;Node6</title>
<g id="a_edge7_Node000001_Node000006"><a xlink:title=" ">
<path fill="none" stroke="#63b8ff" d="M110.12,-42.6C122.61,-38.93 135.93,-35 148.48,-31.31"/>
<polygon fill="#63b8ff" stroke="#63b8ff" points="149.19,-34.45 157.8,-28.27 147.21,-27.74 149.19,-34.45"/>
</a>
</g>
</g>
<!-- Node2&#45;&gt;Node2 -->
<g id="edge2_Node000002_Node000002" class="edge">
<title>Node2&#45;&gt;Node2</title>
<g id="a_edge2_Node000002_Node000002"><a xlink:title=" ">
<path fill="none" stroke="#63b8ff" d="M177.77,-116.99C172.42,-126.06 181.16,-134.5 204,-134.5 216.85,-134.5 225.23,-131.83 229.16,-127.88"/>
<polygon fill="#63b8ff" stroke="#63b8ff" points="232.73,-128.28 230.23,-117.99 225.77,-127.6 232.73,-128.28"/>
</a>
</g>
</g>
<!-- Node3 -->
<g id="Node000003" class="node">
<title>Node3</title>
<g id="a_Node000003"><a xlink:href="../../d2/da7/class_slic3r_1_1_edge_grid_1_1_grid.html#a651b7e150e11516477c628e52687c217" target="_top" xlink:title=" ">
<polygon fill="white" stroke="#666666" points="422.25,-159.5 311,-159.5 311,-129 422.25,-129 422.25,-159.5"/>
<text text-anchor="start" x="319" y="-146" font-family="Helvetica,sans-Serif" font-size="10.00">Slic3r::EdgeGrid::Grid</text>
<text text-anchor="middle" x="366.62" y="-134.75" font-family="Helvetica,sans-Serif" font-size="10.00">::bbox</text>
</a>
</g>
</g>
<!-- Node2&#45;&gt;Node3 -->
<g id="edge3_Node000002_Node000003" class="edge">
<title>Node2&#45;&gt;Node3</title>
<g id="a_edge3_Node000002_Node000003"><a xlink:title=" ">
<path fill="none" stroke="#63b8ff" d="M260.28,-116.05C273.1,-119.48 286.86,-123.16 300.07,-126.7"/>
<polygon fill="#63b8ff" stroke="#63b8ff" points="298.95,-130.29 309.52,-129.5 300.76,-123.53 298.95,-130.29"/>
</a>
</g>
</g>
<!-- Node4 -->
<g id="Node000004" class="node">
<title>Node4</title>
<g id="a_Node000004"><a xlink:href="../../dc/d28/class_slic3r_1_1_bounding_box_base.html#a95f665e7b8a5036c835f1bdb55d5bc59" target="_top" xlink:title=" ">
<polygon fill="white" stroke="#666666" points="600.25,-94.5 473.25,-94.5 473.25,-64 600.25,-64 600.25,-94.5"/>
<text text-anchor="start" x="481.25" y="-81" font-family="Helvetica,sans-Serif" font-size="10.00">Slic3r::BoundingBoxBase</text>
<text text-anchor="middle" x="536.75" y="-69.75" font-family="Helvetica,sans-Serif" font-size="10.00">::contains</text>
</a>
</g>
</g>
<!-- Node2&#45;&gt;Node4 -->
<g id="edge4_Node000002_Node000004" class="edge">
<title>Node2&#45;&gt;Node4</title>
<g id="a_edge4_Node000002_Node000004"><a xlink:title=" ">
<path fill="none" stroke="#63b8ff" d="M260.36,-97.57C315.7,-93.89 401.12,-88.2 462.15,-84.15"/>
<polygon fill="#63b8ff" stroke="#63b8ff" points="462.12,-87.59 471.87,-83.43 461.65,-80.6 462.12,-87.59"/>
</a>
</g>
</g>
<!-- Node2&#45;&gt;Node5 -->
<g id="edge5_Node000002_Node000005" class="edge">
<title>Node2&#45;&gt;Node5</title>
<g id="a_edge5_Node000002_Node000005"><a xlink:title=" ">
<path fill="none" stroke="#63b8ff" d="M260.28,-86.45C271.93,-83.33 284.36,-80 296.45,-76.77"/>
<polygon fill="#63b8ff" stroke="#63b8ff" points="297.2,-79.92 305.96,-73.96 295.39,-73.16 297.2,-79.92"/>
</a>
</g>
</g>
<!-- Node5&#45;&gt;Node4 -->
<g id="edge6_Node000005_Node000004" class="edge">
<title>Node5&#45;&gt;Node4</title>
<g id="a_edge6_Node000005_Node000004"><a xlink:title=" ">
<path fill="none" stroke="#63b8ff" d="M437.46,-66.97C445.62,-67.99 453.96,-69.03 462.16,-70.06"/>
<polygon fill="#63b8ff" stroke="#63b8ff" points="461.49,-73.63 471.84,-71.39 462.35,-66.68 461.49,-73.63"/>
</a>
</g>
</g>
</g>
</svg>
