<?xml version="1.0" encoding="UTF-8" standalone="no"?>
<!DOCTYPE svg PUBLIC "-//W3C//DTD SVG 1.1//EN"
 "http://www.w3.org/Graphics/SVG/1.1/DTD/svg11.dtd">
<!-- Generated by graphviz version 8.0.5 (20230430.1635)
 -->
<!-- Title: Slic3r::opening_ex Pages: 1 -->
<svg width="1010pt" height="195pt"
 viewBox="0.00 0.00 1010.25 194.93" xmlns="http://www.w3.org/2000/svg" xmlns:xlink="http://www.w3.org/1999/xlink">
<g id="graph0" class="graph" transform="scale(1 1) rotate(0) translate(4 190.93)">
<title>Slic3r::opening_ex</title>
<!-- Node1 -->
<g id="Node000001" class="node">
<title>Node1</title>
<g id="a_Node000001"><a xlink:title=" ">
<polygon fill="#999999" stroke="#666666" points="96.25,-54.31 0,-54.31 0,-35.06 96.25,-35.06 96.25,-54.31"/>
<text text-anchor="middle" x="48.12" y="-40.81" font-family="Helvetica,sans-Serif" font-size="10.00">Slic3r::opening_ex</text>
</a>
</g>
</g>
<!-- Node2 -->
<g id="Node000002" class="node">
<title>Node2</title>
<g id="a_Node000002"><a xlink:href="../../de/db8/namespace_slic3r.html#ac4761a45cdca6a50aa6a3d7570ba513d" target="_top" xlink:title=" ">
<polygon fill="white" stroke="#666666" points="224.75,-54.31 132.25,-54.31 132.25,-35.06 224.75,-35.06 224.75,-54.31"/>
<text text-anchor="middle" x="178.5" y="-40.81" font-family="Helvetica,sans-Serif" font-size="10.00">Slic3r::offset2_ex</text>
</a>
</g>
</g>
<!-- Node1&#45;&gt;Node2 -->
<g id="edge1_Node000001_Node000002" class="edge">
<title>Node1&#45;&gt;Node2</title>
<g id="a_edge1_Node000001_Node000002"><a xlink:title=" ">
<path fill="none" stroke="#63b8ff" d="M96.56,-44.68C104.52,-44.68 112.84,-44.68 121,-44.68"/>
<polygon fill="#63b8ff" stroke="#63b8ff" points="120.96,-48.18 130.96,-44.68 120.96,-41.18 120.96,-48.18"/>
</a>
</g>
</g>
<!-- Node3 -->
<g id="Node000003" class="node">
<title>Node3</title>
<g id="a_Node000003"><a xlink:href="../../de/db8/namespace_slic3r.html#ac641fcda905eaaa213af131e755ad0a5" target="_top" xlink:title=" ">
<polygon fill="white" stroke="#666666" points="357,-81.93 260.75,-81.93 260.75,-51.43 357,-51.43 357,-81.93"/>
<text text-anchor="start" x="268.75" y="-68.43" font-family="Helvetica,sans-Serif" font-size="10.00">Slic3r::expolygons</text>
<text text-anchor="middle" x="308.88" y="-57.18" font-family="Helvetica,sans-Serif" font-size="10.00">_offset</text>
</a>
</g>
</g>
<!-- Node2&#45;&gt;Node3 -->
<g id="edge2_Node000002_Node000003" class="edge">
<title>Node2&#45;&gt;Node3</title>
<g id="a_edge2_Node000002_Node000003"><a xlink:title=" ">
<path fill="none" stroke="#63b8ff" d="M225.12,-52.5C233.14,-53.88 241.58,-55.32 249.88,-56.74"/>
<polygon fill="#63b8ff" stroke="#63b8ff" points="249.22,-60.35 259.67,-58.59 250.4,-53.45 249.22,-60.35"/>
</a>
</g>
</g>
<!-- Node27 -->
<g id="Node000027" class="node">
<title>Node27</title>
<g id="a_Node000027"><a xlink:href="../../de/db8/namespace_slic3r.html#a1f7e91998726ff8395ce66857a6fd49d" target="_top" xlink:title=" ">
<polygon fill="white" stroke="#666666" points="541.75,-33.31 393,-33.31 393,-14.06 541.75,-14.06 541.75,-33.31"/>
<text text-anchor="middle" x="467.38" y="-19.81" font-family="Helvetica,sans-Serif" font-size="10.00">Slic3r::PolyTreeToExPolygons</text>
</a>
</g>
</g>
<!-- Node2&#45;&gt;Node27 -->
<g id="edge10_Node000002_Node000027" class="edge">
<title>Node2&#45;&gt;Node27</title>
<g id="a_edge10_Node000002_Node000027"><a xlink:title=" ">
<path fill="none" stroke="#63b8ff" d="M224.96,-41.36C266.99,-38.28 330.54,-33.63 381.88,-29.87"/>
<polygon fill="#63b8ff" stroke="#63b8ff" points="381.92,-33.3 391.64,-29.08 381.41,-26.32 381.92,-33.3"/>
</a>
</g>
</g>
<!-- Node4 -->
<g id="Node000004" class="node">
<title>Node4</title>
<g id="a_Node000004"><a xlink:href="../../de/db8/namespace_slic3r.html#a50d20c49fc1d2278c343edfa0afe17e6" target="_top" xlink:title=" ">
<polygon fill="white" stroke="#666666" points="515.5,-90.93 419.25,-90.93 419.25,-60.43 515.5,-60.43 515.5,-90.93"/>
<text text-anchor="start" x="427.25" y="-77.43" font-family="Helvetica,sans-Serif" font-size="10.00">Slic3r::expolygons</text>
<text text-anchor="middle" x="467.38" y="-66.18" font-family="Helvetica,sans-Serif" font-size="10.00">_offset_raw</text>
</a>
</g>
</g>
<!-- Node3&#45;&gt;Node4 -->
<g id="edge3_Node000003_Node000004" class="edge">
<title>Node3&#45;&gt;Node4</title>
<g id="a_edge3_Node000003_Node000004"><a xlink:title=" ">
<path fill="none" stroke="#63b8ff" d="M357.25,-69.41C373.27,-70.33 391.34,-71.37 408.1,-72.33"/>
<polygon fill="#63b8ff" stroke="#63b8ff" points="407.7,-75.87 417.89,-72.95 408.1,-68.88 407.7,-75.87"/>
</a>
</g>
</g>
<!-- Node5 -->
<g id="Node000005" class="node">
<title>Node5</title>
<g id="a_Node000005"><a xlink:href="../../de/db8/namespace_slic3r.html#a17163db9fa2638045dc6c488c691cb1c" target="_top" xlink:title=" ">
<polygon fill="white" stroke="#666666" points="698.75,-100.93 577.75,-100.93 577.75,-70.43 698.75,-70.43 698.75,-100.93"/>
<text text-anchor="start" x="585.75" y="-87.43" font-family="Helvetica,sans-Serif" font-size="10.00">Slic3r::offset_expolygon</text>
<text text-anchor="middle" x="638.25" y="-76.18" font-family="Helvetica,sans-Serif" font-size="10.00">_inner</text>
</a>
</g>
</g>
<!-- Node4&#45;&gt;Node5 -->
<g id="edge4_Node000004_Node000005" class="edge">
<title>Node4&#45;&gt;Node5</title>
<g id="a_edge4_Node000004_Node000005"><a xlink:title=" ">
<path fill="none" stroke="#63b8ff" d="M515.87,-78.5C531.7,-79.43 549.69,-80.5 566.89,-81.52"/>
<polygon fill="#63b8ff" stroke="#63b8ff" points="566.27,-85.05 576.46,-82.14 566.69,-78.06 566.27,-85.05"/>
</a>
</g>
</g>
<!-- Node6 -->
<g id="Node000006" class="node">
<title>Node6</title>
<g id="a_Node000006"><a xlink:href="../../d5/d7d/class_clipper_lib_1_1_clipper_offset.html#a0cd68e3690072f510924a5b25291043b" target="_top" xlink:title=" ">
<polygon fill="#fff0f0" stroke="red" points="858,-186.93 734.75,-186.93 734.75,-156.43 858,-156.43 858,-186.93"/>
<text text-anchor="start" x="742.75" y="-173.43" font-family="Helvetica,sans-Serif" font-size="10.00">ClipperLib::ClipperOffset</text>
<text text-anchor="middle" x="796.38" y="-162.18" font-family="Helvetica,sans-Serif" font-size="10.00">::AddPath</text>
</a>
</g>
</g>
<!-- Node5&#45;&gt;Node6 -->
<g id="edge5_Node000005_Node000006" class="edge">
<title>Node5&#45;&gt;Node6</title>
<g id="a_edge5_Node000005_Node000006"><a xlink:title=" ">
<path fill="none" stroke="#63b8ff" d="M660.51,-101.24C679.39,-114.63 708.05,-133.9 734.75,-147.68 737.3,-149 739.94,-150.29 742.63,-151.55"/>
<polygon fill="#63b8ff" stroke="#63b8ff" points="740.94,-155.07 751.5,-155.95 743.79,-148.68 740.94,-155.07"/>
</a>
</g>
</g>
<!-- Node10 -->
<g id="Node000010" class="node">
<title>Node10</title>
<g id="a_Node000010"><a xlink:href="../../de/db8/namespace_slic3r.html#ad61bb7f1e4b8aaa434964420b9bedf32" target="_top" xlink:title=" ">
<polygon fill="white" stroke="#666666" points="835.5,-138.31 757.25,-138.31 757.25,-119.06 835.5,-119.06 835.5,-138.31"/>
<text text-anchor="middle" x="796.38" y="-124.81" font-family="Helvetica,sans-Serif" font-size="10.00">Slic3r::append</text>
</a>
</g>
</g>
<!-- Node5&#45;&gt;Node10 -->
<g id="edge7_Node000005_Node000010" class="edge">
<title>Node5&#45;&gt;Node10</title>
<g id="a_edge7_Node000005_Node000010"><a xlink:title=" ">
<path fill="none" stroke="#63b8ff" d="M696.06,-101.33C713.22,-106.06 731.87,-111.19 748.32,-115.72"/>
<polygon fill="#63b8ff" stroke="#63b8ff" points="747.21,-119.32 757.78,-118.61 749.07,-112.58 747.21,-119.32"/>
</a>
</g>
</g>
<!-- Node11 -->
<g id="Node000011" class="node">
<title>Node11</title>
<g id="a_Node000011"><a xlink:href="../../d5/d7d/class_clipper_lib_1_1_clipper_offset.html#ac591b25e483a52c99c3190a256ad4589" target="_top" xlink:title=" ">
<polygon fill="#fff0f0" stroke="red" points="858,-100.93 734.75,-100.93 734.75,-70.43 858,-70.43 858,-100.93"/>
<text text-anchor="start" x="742.75" y="-87.43" font-family="Helvetica,sans-Serif" font-size="10.00">ClipperLib::ClipperOffset</text>
<text text-anchor="middle" x="796.38" y="-76.18" font-family="Helvetica,sans-Serif" font-size="10.00">::Execute</text>
</a>
</g>
</g>
<!-- Node5&#45;&gt;Node11 -->
<g id="edge8_Node000005_Node000011" class="edge">
<title>Node5&#45;&gt;Node11</title>
<g id="a_edge8_Node000005_Node000011"><a xlink:title=" ">
<path fill="none" stroke="#63b8ff" d="M699.17,-85.68C707.09,-85.68 715.27,-85.68 723.37,-85.68"/>
<polygon fill="#63b8ff" stroke="#63b8ff" points="723.33,-89.18 733.33,-85.68 723.33,-82.18 723.33,-89.18"/>
</a>
</g>
</g>
<!-- Node26 -->
<g id="Node000026" class="node">
<title>Node26</title>
<g id="a_Node000026"><a xlink:href="../../de/db8/namespace_slic3r.html#afb8c6d188cef5e372d935568fd9bc1ca" target="_top" xlink:title=" ">
<polygon fill="white" stroke="#666666" points="831.38,-52.31 761.38,-52.31 761.38,-33.06 831.38,-33.06 831.38,-52.31"/>
<text text-anchor="middle" x="796.38" y="-38.81" font-family="Helvetica,sans-Serif" font-size="10.00">Slic3r::holes</text>
</a>
</g>
</g>
<!-- Node5&#45;&gt;Node26 -->
<g id="edge9_Node000005_Node000026" class="edge">
<title>Node5&#45;&gt;Node26</title>
<g id="a_edge9_Node000005_Node000026"><a xlink:title=" ">
<path fill="none" stroke="#63b8ff" d="M696.06,-70.04C714.11,-65.07 733.8,-59.64 750.85,-54.95"/>
<polygon fill="#63b8ff" stroke="#63b8ff" points="751.38,-58.15 760.09,-52.13 749.52,-51.41 751.38,-58.15"/>
</a>
</g>
</g>
<!-- Node8 -->
<g id="Node000008" class="node">
<title>Node8</title>
<g id="a_Node000008"><a xlink:href="../../d2/df1/class_clipper_lib_1_1_poly_node.html#a19128db6fb2aca66555231edaffa7ade" target="_top" xlink:title=" ">
<polygon fill="white" stroke="#666666" points="1002.25,-102.93 894,-102.93 894,-72.43 1002.25,-72.43 1002.25,-102.93"/>
<text text-anchor="start" x="902" y="-89.43" font-family="Helvetica,sans-Serif" font-size="10.00">ClipperLib::PolyNode</text>
<text text-anchor="middle" x="948.12" y="-78.18" font-family="Helvetica,sans-Serif" font-size="10.00">::ChildCount</text>
</a>
</g>
</g>
<!-- Node6&#45;&gt;Node8 -->
<g id="edge6_Node000006_Node000008" class="edge">
<title>Node6&#45;&gt;Node8</title>
<g id="a_edge6_Node000006_Node000008"><a xlink:title=" ">
<path fill="none" stroke="#63b8ff" d="M840.3,-156.03C846.34,-153.45 852.39,-150.64 858,-147.68 878.89,-136.68 900.91,-121.89 917.83,-109.75"/>
<polygon fill="#63b8ff" stroke="#63b8ff" points="919.64,-112.03 925.67,-103.32 915.53,-106.37 919.64,-112.03"/>
</a>
</g>
</g>
<!-- Node27&#45;&gt;Node8 -->
<g id="edge11_Node000027_Node000008" class="edge">
<title>Node27&#45;&gt;Node8</title>
<g id="a_edge11_Node000027_Node000008"><a xlink:title=" ">
<path fill="none" stroke="#63b8ff" d="M521.96,-13.56C598.58,-1.33 742.9,13.36 858,-23.68 883.02,-31.73 906.95,-49.69 923.71,-64.54"/>
<polygon fill="#63b8ff" stroke="#63b8ff" points="921.05,-66.77 930.78,-70.96 925.78,-61.62 921.05,-66.77"/>
</a>
</g>
</g>
</g>
</svg>
