<?xml version="1.0" encoding="UTF-8" standalone="no"?>
<!DOCTYPE svg PUBLIC "-//W3C//DTD SVG 1.1//EN"
 "http://www.w3.org/Graphics/SVG/1.1/DTD/svg11.dtd">
<!-- Generated by graphviz version 8.0.5 (20230430.1635)
 -->
<!-- Title: Slic3r::is_project_3mf Pages: 1 -->
<svg width="397pt" height="72pt"
 viewBox="0.00 0.00 397.25 71.88" xmlns="http://www.w3.org/2000/svg" xmlns:xlink="http://www.w3.org/1999/xlink">
<g id="graph0" class="graph" transform="scale(1 1) rotate(0) translate(4 67.88)">
<title>Slic3r::is_project_3mf</title>
<!-- Node1 -->
<g id="Node000001" class="node">
<title>Node1</title>
<g id="a_Node000001"><a xlink:title=" ">
<polygon fill="#999999" stroke="#666666" points="389.25,-45.88 278.75,-45.88 278.75,-26.62 389.25,-26.62 389.25,-45.88"/>
<text text-anchor="middle" x="334" y="-32.38" font-family="Helvetica,sans-Serif" font-size="10.00">Slic3r::is_project_3mf</text>
</a>
</g>
</g>
<!-- Node1&#45;&gt;Node1 -->
<g id="edge1_Node000001_Node000001" class="edge">
<title>Node1&#45;&gt;Node1</title>
<g id="a_edge1_Node000001_Node000001"><a xlink:title=" ">
<path fill="none" stroke="#63b8ff" d="M360.72,-56.26C358.2,-60.67 349.29,-63.88 334,-63.88 308.25,-63.88 300.6,-54.77 311.06,-46.16"/>
<polygon fill="#63b8ff" stroke="#63b8ff" points="363.72,-55.3 356.94,-47.16 357.17,-57.76 363.72,-55.3"/>
</a>
</g>
</g>
<!-- Node2 -->
<g id="Node000002" class="node">
<title>Node2</title>
<g id="a_Node000002"><a xlink:href="../../d7/d21/class_slic3r_1_1_g_u_i_1_1_plater.html#a6ad43d44d064fe1d01487287a619866e" target="_top" xlink:title=" ">
<polygon fill="white" stroke="#666666" points="96.25,-51.5 0,-51.5 0,-21 96.25,-21 96.25,-51.5"/>
<text text-anchor="start" x="8" y="-38" font-family="Helvetica,sans-Serif" font-size="10.00">Slic3r::GUI::Plater</text>
<text text-anchor="middle" x="48.12" y="-26.75" font-family="Helvetica,sans-Serif" font-size="10.00">::load_files</text>
</a>
</g>
</g>
<!-- Node1&#45;&gt;Node2 -->
<g id="edge2_Node000001_Node000002" class="edge">
<title>Node1&#45;&gt;Node2</title>
<g id="a_edge2_Node000001_Node000002"><a xlink:title=" ">
<path fill="none" stroke="#63b8ff" d="M267.67,-38.68C259.28,-38.91 250.82,-39.12 242.75,-39.25 193.65,-40.07 181.35,-40.14 132.25,-39.25 120.7,-39.04 108.25,-38.67 96.59,-38.26"/>
<polygon fill="#63b8ff" stroke="#63b8ff" points="267.71,-42.15 277.6,-38.35 267.5,-35.15 267.71,-42.15"/>
</a>
</g>
</g>
<!-- Node3 -->
<g id="Node000003" class="node">
<title>Node3</title>
<g id="a_Node000003"><a xlink:href="../../d7/d21/class_slic3r_1_1_g_u_i_1_1_plater.html#a6d47e8f7567551b3f24d2af162daf0c8" target="_top" xlink:title=" ">
<polygon fill="white" stroke="#666666" points="242.75,-30.5 132.25,-30.5 132.25,0 242.75,0 242.75,-30.5"/>
<text text-anchor="start" x="140.25" y="-17" font-family="Helvetica,sans-Serif" font-size="10.00">Slic3r::GUI::Plater</text>
<text text-anchor="middle" x="187.5" y="-5.75" font-family="Helvetica,sans-Serif" font-size="10.00">::preview_zip_archive</text>
</a>
</g>
</g>
<!-- Node1&#45;&gt;Node3 -->
<g id="edge3_Node000001_Node000003" class="edge">
<title>Node1&#45;&gt;Node3</title>
<g id="a_edge3_Node000001_Node000003"><a xlink:title=" ">
<path fill="none" stroke="#63b8ff" d="M267.71,-26.76C259.52,-25.57 251.21,-24.36 243.21,-23.2"/>
<polygon fill="#63b8ff" stroke="#63b8ff" points="266.97,-30.34 277.37,-28.31 267.98,-23.41 266.97,-30.34"/>
</a>
</g>
</g>
<!-- Node3&#45;&gt;Node2 -->
<g id="edge4_Node000003_Node000002" class="edge">
<title>Node3&#45;&gt;Node2</title>
<g id="a_edge4_Node000003_Node000002"><a xlink:title=" ">
<path fill="none" stroke="#63b8ff" d="M121.03,-25.26C112.76,-26.52 104.44,-27.79 96.53,-29"/>
<polygon fill="#63b8ff" stroke="#63b8ff" points="121.45,-28.58 130.81,-23.61 120.4,-21.66 121.45,-28.58"/>
</a>
</g>
</g>
</g>
</svg>
