<?xml version="1.0" encoding="UTF-8" standalone="no"?>
<!DOCTYPE svg PUBLIC "-//W3C//DTD SVG 1.1//EN"
 "http://www.w3.org/Graphics/SVG/1.1/DTD/svg11.dtd">
<!-- Generated by graphviz version 8.0.5 (20230430.1635)
 -->
<!-- Title: Slic3r::slice_region_by_vertical_lines Pages: 1 -->
<svg width="575pt" height="382pt"
 viewBox="0.00 0.00 574.50 381.50" xmlns="http://www.w3.org/2000/svg" xmlns:xlink="http://www.w3.org/1999/xlink">
<g id="graph0" class="graph" transform="scale(1 1) rotate(0) translate(4 377.5)">
<title>Slic3r::slice_region_by_vertical_lines</title>
<!-- Node1 -->
<g id="Node000001" class="node">
<title>Node1</title>
<g id="a_Node000001"><a xlink:title=" ">
<polygon fill="#999999" stroke="#666666" points="566.5,-201.5 468,-201.5 468,-171 566.5,-171 566.5,-201.5"/>
<text text-anchor="start" x="476" y="-188" font-family="Helvetica,sans-Serif" font-size="10.00">Slic3r::slice_region</text>
<text text-anchor="middle" x="517.25" y="-176.75" font-family="Helvetica,sans-Serif" font-size="10.00">_by_vertical_lines</text>
</a>
</g>
</g>
<!-- Node2 -->
<g id="Node000002" class="node">
<title>Node2</title>
<g id="a_Node000002"><a xlink:href="../../db/d2e/class_slic3r_1_1_fill_rectilinear.html#afe3252a582d0fd303723f995a52c8975" target="_top" xlink:title=" ">
<polygon fill="white" stroke="#666666" points="431.62,-299.5 321.12,-299.5 321.12,-269 431.62,-269 431.62,-299.5"/>
<text text-anchor="start" x="329.12" y="-286" font-family="Helvetica,sans-Serif" font-size="10.00">Slic3r::FillRectilinear</text>
<text text-anchor="middle" x="376.38" y="-274.75" font-family="Helvetica,sans-Serif" font-size="10.00">::fill_surface_by_lines</text>
</a>
</g>
</g>
<!-- Node1&#45;&gt;Node2 -->
<g id="edge1_Node000001_Node000002" class="edge">
<title>Node1&#45;&gt;Node2</title>
<g id="a_edge1_Node000001_Node000002"><a xlink:title=" ">
<path fill="none" stroke="#63b8ff" d="M485.22,-208.14C459.24,-226.48 422.79,-252.2 399.63,-268.54"/>
<polygon fill="#63b8ff" stroke="#63b8ff" points="486.78,-210.62 492.94,-202 482.75,-204.9 486.78,-210.62"/>
</a>
</g>
</g>
<!-- Node7 -->
<g id="Node000007" class="node">
<title>Node7</title>
<g id="a_Node000007"><a xlink:href="../../de/db8/namespace_slic3r.html#adf1751888d0f62c8d0a365f8c2693b30" target="_top" xlink:title=" ">
<polygon fill="white" stroke="#666666" points="432,-195.88 320.75,-195.88 320.75,-176.62 432,-176.62 432,-195.88"/>
<text text-anchor="middle" x="376.38" y="-182.38" font-family="Helvetica,sans-Serif" font-size="10.00">Slic3r::make_fill_lines</text>
</a>
</g>
</g>
<!-- Node1&#45;&gt;Node7 -->
<g id="edge6_Node000001_Node000007" class="edge">
<title>Node1&#45;&gt;Node7</title>
<g id="a_edge6_Node000001_Node000007"><a xlink:title=" ">
<path fill="none" stroke="#63b8ff" d="M456.77,-186.25C448.66,-186.25 440.36,-186.25 432.33,-186.25"/>
<polygon fill="#63b8ff" stroke="#63b8ff" points="456.68,-189.75 466.68,-186.25 456.68,-182.75 456.68,-189.75"/>
</a>
</g>
</g>
<!-- Node14 -->
<g id="Node000014" class="node">
<title>Node14</title>
<g id="a_Node000014"><a xlink:href="../../de/db8/namespace_slic3r.html#ac9c967613d96d3c268115b8bd0dce7cf" target="_top" xlink:title=" ">
<polygon fill="white" stroke="#666666" points="426,-104.5 326.75,-104.5 326.75,-74 426,-74 426,-104.5"/>
<text text-anchor="start" x="334.75" y="-91" font-family="Helvetica,sans-Serif" font-size="10.00">Slic3r::sample_grid</text>
<text text-anchor="middle" x="376.38" y="-79.75" font-family="Helvetica,sans-Serif" font-size="10.00">_pattern</text>
</a>
</g>
</g>
<!-- Node1&#45;&gt;Node14 -->
<g id="edge13_Node000001_Node000014" class="edge">
<title>Node1&#45;&gt;Node14</title>
<g id="a_edge13_Node000001_Node000014"><a xlink:title=" ">
<path fill="none" stroke="#63b8ff" d="M485.22,-164.58C459.24,-146.43 422.79,-120.97 399.63,-104.8"/>
<polygon fill="#63b8ff" stroke="#63b8ff" points="482.73,-167.81 492.94,-170.67 486.74,-162.07 482.73,-167.81"/>
</a>
</g>
</g>
<!-- Node3 -->
<g id="Node000003" class="node">
<title>Node3</title>
<g id="a_Node000003"><a xlink:href="../../db/d2e/class_slic3r_1_1_fill_rectilinear.html#a18ebe18d7b067b7caebab316001f1dfd" target="_top" xlink:title=" ">
<polygon fill="white" stroke="#666666" points="263.75,-373.5 157.75,-373.5 157.75,-343 263.75,-343 263.75,-373.5"/>
<text text-anchor="start" x="165.75" y="-360" font-family="Helvetica,sans-Serif" font-size="10.00">Slic3r::FillRectilinear</text>
<text text-anchor="middle" x="210.75" y="-348.75" font-family="Helvetica,sans-Serif" font-size="10.00">::fill_surface</text>
</a>
</g>
</g>
<!-- Node2&#45;&gt;Node3 -->
<g id="edge2_Node000002_Node000003" class="edge">
<title>Node2&#45;&gt;Node3</title>
<g id="a_edge2_Node000002_Node000003"><a xlink:title=" ">
<path fill="none" stroke="#63b8ff" d="M340.12,-305.08C323.63,-314.36 303.51,-325.03 284.75,-333.25 277.26,-336.53 269.2,-339.66 261.26,-342.54"/>
<polygon fill="#63b8ff" stroke="#63b8ff" points="341.43,-307.79 348.38,-299.8 337.96,-301.71 341.43,-307.79"/>
</a>
</g>
</g>
<!-- Node5 -->
<g id="Node000005" class="node">
<title>Node5</title>
<g id="a_Node000005"><a xlink:href="../../d0/d21/class_slic3r_1_1_fill_monotonic.html#ace69d94f31e44b486a90b5a2175d4c93" target="_top" xlink:title=" ">
<polygon fill="white" stroke="#666666" points="263,-324.5 158.5,-324.5 158.5,-294 263,-294 263,-324.5"/>
<text text-anchor="start" x="166.5" y="-311" font-family="Helvetica,sans-Serif" font-size="10.00">Slic3r::FillMonotonic</text>
<text text-anchor="middle" x="210.75" y="-299.75" font-family="Helvetica,sans-Serif" font-size="10.00">::fill_surface</text>
</a>
</g>
</g>
<!-- Node2&#45;&gt;Node5 -->
<g id="edge4_Node000002_Node000005" class="edge">
<title>Node2&#45;&gt;Node5</title>
<g id="a_edge4_Node000002_Node000005"><a xlink:title=" ">
<path fill="none" stroke="#63b8ff" d="M310.24,-294.2C294.61,-296.59 278.14,-299.11 263.23,-301.38"/>
<polygon fill="#63b8ff" stroke="#63b8ff" points="310.53,-297.54 319.89,-292.57 309.48,-290.63 310.53,-297.54"/>
</a>
</g>
</g>
<!-- Node6 -->
<g id="Node000006" class="node">
<title>Node6</title>
<g id="a_Node000006"><a xlink:href="../../d1/d2d/class_slic3r_1_1_fill_monotonic_lines.html#aee64ab89e5f0cab894e0694ccdec7fc6" target="_top" xlink:title=" ">
<polygon fill="white" stroke="#666666" points="274.62,-275.5 146.88,-275.5 146.88,-245 274.62,-245 274.62,-275.5"/>
<text text-anchor="start" x="154.88" y="-262" font-family="Helvetica,sans-Serif" font-size="10.00">Slic3r::FillMonotonicLines</text>
<text text-anchor="middle" x="210.75" y="-250.75" font-family="Helvetica,sans-Serif" font-size="10.00">::fill_surface</text>
</a>
</g>
</g>
<!-- Node2&#45;&gt;Node6 -->
<g id="edge5_Node000002_Node000006" class="edge">
<title>Node2&#45;&gt;Node6</title>
<g id="a_edge5_Node000002_Node000006"><a xlink:title=" ">
<path fill="none" stroke="#63b8ff" d="M310.02,-274.66C298.5,-272.97 286.52,-271.22 275.06,-269.54"/>
<polygon fill="#63b8ff" stroke="#63b8ff" points="309.49,-278.27 319.89,-276.26 310.5,-271.34 309.49,-278.27"/>
</a>
</g>
</g>
<!-- Node4 -->
<g id="Node000004" class="node">
<title>Node4</title>
<g id="a_Node000004"><a xlink:href="../../d1/d68/class_slic3r_1_1_layer.html#a8a3402d1134cf5a43140f94e89c1304a" target="_top" xlink:title=" ">
<polygon fill="white" stroke="#666666" points="100.75,-373.5 0,-373.5 0,-343 100.75,-343 100.75,-373.5"/>
<text text-anchor="start" x="8" y="-360" font-family="Helvetica,sans-Serif" font-size="10.00">Slic3r::Layer::make</text>
<text text-anchor="middle" x="50.38" y="-348.75" font-family="Helvetica,sans-Serif" font-size="10.00">_ironing</text>
</a>
</g>
</g>
<!-- Node3&#45;&gt;Node4 -->
<g id="edge3_Node000003_Node000004" class="edge">
<title>Node3&#45;&gt;Node4</title>
<g id="a_edge3_Node000003_Node000004"><a xlink:title=" ">
<path fill="none" stroke="#63b8ff" d="M146.63,-358.25C131.53,-358.25 115.61,-358.25 101.2,-358.25"/>
<polygon fill="#63b8ff" stroke="#63b8ff" points="146.45,-361.75 156.45,-358.25 146.45,-354.75 146.45,-361.75"/>
</a>
</g>
</g>
<!-- Node8 -->
<g id="Node000008" class="node">
<title>Node8</title>
<g id="a_Node000008"><a xlink:href="../../dd/d10/class_slic3r_1_1_fill_support_base.html#a564a9a222f647edd8dca54be0da6bc58" target="_top" xlink:title=" ">
<polygon fill="white" stroke="#666666" points="268.62,-226.5 152.88,-226.5 152.88,-196 268.62,-196 268.62,-226.5"/>
<text text-anchor="start" x="160.88" y="-213" font-family="Helvetica,sans-Serif" font-size="10.00">Slic3r::FillSupportBase</text>
<text text-anchor="middle" x="210.75" y="-201.75" font-family="Helvetica,sans-Serif" font-size="10.00">::fill_surface</text>
</a>
</g>
</g>
<!-- Node7&#45;&gt;Node8 -->
<g id="edge7_Node000007_Node000008" class="edge">
<title>Node7&#45;&gt;Node8</title>
<g id="a_edge7_Node000007_Node000008"><a xlink:title=" ">
<path fill="none" stroke="#63b8ff" d="M309.79,-196.27C296.31,-198.33 282.22,-200.48 269.06,-202.49"/>
<polygon fill="#63b8ff" stroke="#63b8ff" points="310.08,-199.61 319.44,-194.64 309.02,-192.69 310.08,-199.61"/>
</a>
</g>
</g>
<!-- Node9 -->
<g id="Node000009" class="node">
<title>Node9</title>
<g id="a_Node000009"><a xlink:href="../../db/d2e/class_slic3r_1_1_fill_rectilinear.html#ae29c61f885a0ec23c2785460983893de" target="_top" xlink:title=" ">
<polygon fill="white" stroke="#666666" points="276.5,-177.5 145,-177.5 145,-147 276.5,-147 276.5,-177.5"/>
<text text-anchor="start" x="153" y="-164" font-family="Helvetica,sans-Serif" font-size="10.00">Slic3r::FillRectilinear</text>
<text text-anchor="middle" x="210.75" y="-152.75" font-family="Helvetica,sans-Serif" font-size="10.00">::fill_surface_by_multilines</text>
</a>
</g>
</g>
<!-- Node7&#45;&gt;Node9 -->
<g id="edge8_Node000007_Node000009" class="edge">
<title>Node7&#45;&gt;Node9</title>
<g id="a_edge8_Node000007_Node000009"><a xlink:title=" ">
<path fill="none" stroke="#63b8ff" d="M309.73,-176.62C298.86,-175.03 287.6,-173.37 276.74,-171.78"/>
<polygon fill="#63b8ff" stroke="#63b8ff" points="309.03,-180.2 319.44,-178.19 310.05,-173.28 309.03,-180.2"/>
</a>
</g>
</g>
<!-- Node10 -->
<g id="Node000010" class="node">
<title>Node10</title>
<g id="a_Node000010"><a xlink:href="../../dd/d8e/class_slic3r_1_1_fill_grid.html#a53724d9b506154c449126e27287b0096" target="_top" xlink:title=" ">
<polygon fill="white" stroke="#666666" points="97,-250.5 3.75,-250.5 3.75,-220 97,-220 97,-250.5"/>
<text text-anchor="start" x="11.75" y="-237" font-family="Helvetica,sans-Serif" font-size="10.00">Slic3r::FillGrid::fill</text>
<text text-anchor="middle" x="50.38" y="-225.75" font-family="Helvetica,sans-Serif" font-size="10.00">_surface</text>
</a>
</g>
</g>
<!-- Node9&#45;&gt;Node10 -->
<g id="edge9_Node000009_Node000010" class="edge">
<title>Node9&#45;&gt;Node10</title>
<g id="a_edge9_Node000009_Node000010"><a xlink:title=" ">
<path fill="none" stroke="#63b8ff" d="M148.65,-181.94C144.58,-183.63 140.58,-185.4 136.75,-187.25 119.65,-195.5 117.24,-200.84 100.75,-210.25 95.24,-213.39 89.29,-216.58 83.5,-219.57"/>
<polygon fill="#63b8ff" stroke="#63b8ff" points="149.83,-184.85 157.85,-177.93 147.27,-178.33 149.83,-184.85"/>
</a>
</g>
</g>
<!-- Node11 -->
<g id="Node000011" class="node">
<title>Node11</title>
<g id="a_Node000011"><a xlink:href="../../db/d1a/class_slic3r_1_1_fill_triangles.html#ab24e4050d8ff1bb9d2ed5241108eedaa" target="_top" xlink:title=" ">
<polygon fill="white" stroke="#666666" points="100,-201.5 0.75,-201.5 0.75,-171 100,-171 100,-201.5"/>
<text text-anchor="start" x="8.75" y="-188" font-family="Helvetica,sans-Serif" font-size="10.00">Slic3r::FillTriangles</text>
<text text-anchor="middle" x="50.38" y="-176.75" font-family="Helvetica,sans-Serif" font-size="10.00">::fill_surface</text>
</a>
</g>
</g>
<!-- Node9&#45;&gt;Node11 -->
<g id="edge10_Node000009_Node000011" class="edge">
<title>Node9&#45;&gt;Node11</title>
<g id="a_edge10_Node000009_Node000011"><a xlink:title=" ">
<path fill="none" stroke="#63b8ff" d="M134.34,-173.68C122.8,-175.43 111.16,-177.19 100.39,-178.82"/>
<polygon fill="#63b8ff" stroke="#63b8ff" points="134.51,-177.04 143.88,-172.08 133.46,-170.12 134.51,-177.04"/>
</a>
</g>
</g>
<!-- Node12 -->
<g id="Node000012" class="node">
<title>Node12</title>
<g id="a_Node000012"><a xlink:href="../../d4/dfa/class_slic3r_1_1_fill_stars.html#a8cd642a96db397bf82be795cfdd4844a" target="_top" xlink:title=" ">
<polygon fill="white" stroke="#666666" points="94.75,-152.5 6,-152.5 6,-122 94.75,-122 94.75,-152.5"/>
<text text-anchor="start" x="14" y="-139" font-family="Helvetica,sans-Serif" font-size="10.00">Slic3r::FillStars::</text>
<text text-anchor="middle" x="50.38" y="-127.75" font-family="Helvetica,sans-Serif" font-size="10.00">fill_surface</text>
</a>
</g>
</g>
<!-- Node9&#45;&gt;Node12 -->
<g id="edge11_Node000009_Node000012" class="edge">
<title>Node9&#45;&gt;Node12</title>
<g id="a_edge11_Node000009_Node000012"><a xlink:title=" ">
<path fill="none" stroke="#63b8ff" d="M134.19,-150.32C120.8,-148.21 107.26,-146.07 95.13,-144.16"/>
<polygon fill="#63b8ff" stroke="#63b8ff" points="133.45,-153.91 143.88,-152.01 134.54,-146.99 133.45,-153.91"/>
</a>
</g>
</g>
<!-- Node13 -->
<g id="Node000013" class="node">
<title>Node13</title>
<g id="a_Node000013"><a xlink:href="../../db/dfb/class_slic3r_1_1_fill_cubic.html#a259d319fd657f1654d0619c400b7b933" target="_top" xlink:title=" ">
<polygon fill="white" stroke="#666666" points="95.88,-103.5 4.88,-103.5 4.88,-73 95.88,-73 95.88,-103.5"/>
<text text-anchor="start" x="12.88" y="-90" font-family="Helvetica,sans-Serif" font-size="10.00">Slic3r::FillCubic::</text>
<text text-anchor="middle" x="50.38" y="-78.75" font-family="Helvetica,sans-Serif" font-size="10.00">fill_surface</text>
</a>
</g>
</g>
<!-- Node9&#45;&gt;Node13 -->
<g id="edge12_Node000009_Node000013" class="edge">
<title>Node9&#45;&gt;Node13</title>
<g id="a_edge12_Node000009_Node000013"><a xlink:title=" ">
<path fill="none" stroke="#63b8ff" d="M148.4,-142.55C144.41,-140.87 140.49,-139.1 136.75,-137.25 119.51,-128.73 117.36,-122.94 100.75,-113.25 95.36,-110.1 89.52,-106.94 83.81,-103.98"/>
<polygon fill="#63b8ff" stroke="#63b8ff" points="146.82,-146.09 157.41,-146.55 149.42,-139.59 146.82,-146.09"/>
</a>
</g>
</g>
<!-- Node15 -->
<g id="Node000015" class="node">
<title>Node15</title>
<g id="a_Node000015"><a xlink:href="../../df/da6/class_slic3r_1_1_fill_lightning_1_1_distance_field.html#a24b7b86592dc83fb2ece968b166029f0" target="_top" xlink:title=" ">
<polygon fill="white" stroke="#666666" points="284.75,-128.5 136.75,-128.5 136.75,-98 284.75,-98 284.75,-128.5"/>
<text text-anchor="start" x="144.75" y="-115" font-family="Helvetica,sans-Serif" font-size="10.00">Slic3r::FillLightning</text>
<text text-anchor="middle" x="210.75" y="-103.75" font-family="Helvetica,sans-Serif" font-size="10.00">::DistanceField::DistanceField</text>
</a>
</g>
</g>
<!-- Node14&#45;&gt;Node15 -->
<g id="edge14_Node000014_Node000015" class="edge">
<title>Node14&#45;&gt;Node15</title>
<g id="a_edge14_Node000014_Node000015"><a xlink:title=" ">
<path fill="none" stroke="#63b8ff" d="M315.68,-98.01C305.71,-99.47 295.27,-101 285.01,-102.5"/>
<polygon fill="#63b8ff" stroke="#63b8ff" points="315.9,-101.37 325.28,-96.45 314.88,-94.44 315.9,-101.37"/>
</a>
</g>
</g>
<!-- Node16 -->
<g id="Node000016" class="node">
<title>Node16</title>
<g id="a_Node000016"><a xlink:href="../../de/db8/namespace_slic3r.html#a259ba116a5c4ba36d59636afd614bf15" target="_top" xlink:title=" ">
<polygon fill="white" stroke="#666666" points="260.38,-79.5 161.12,-79.5 161.12,-49 260.38,-49 260.38,-79.5"/>
<text text-anchor="start" x="169.12" y="-66" font-family="Helvetica,sans-Serif" font-size="10.00">Slic3r::sample_grid</text>
<text text-anchor="middle" x="210.75" y="-54.75" font-family="Helvetica,sans-Serif" font-size="10.00">_pattern</text>
</a>
</g>
</g>
<!-- Node14&#45;&gt;Node16 -->
<g id="edge15_Node000014_Node000016" class="edge">
<title>Node14&#45;&gt;Node16</title>
<g id="a_edge15_Node000014_Node000016"><a xlink:title=" ">
<path fill="none" stroke="#63b8ff" d="M315.59,-80.12C297.58,-77.36 278.04,-74.38 260.81,-71.75"/>
<polygon fill="#63b8ff" stroke="#63b8ff" points="314.87,-83.7 325.28,-81.75 315.93,-76.78 314.87,-83.7"/>
</a>
</g>
</g>
<!-- Node17 -->
<g id="Node000017" class="node">
<title>Node17</title>
<g id="a_Node000017"><a xlink:href="../../de/db8/namespace_slic3r.html#a542a1a3da2b9a7050df466d75619622f" target="_top" xlink:title=" ">
<polygon fill="white" stroke="#666666" points="260.38,-30.5 161.12,-30.5 161.12,0 260.38,0 260.38,-30.5"/>
<text text-anchor="start" x="169.12" y="-17" font-family="Helvetica,sans-Serif" font-size="10.00">Slic3r::sample_grid</text>
<text text-anchor="middle" x="210.75" y="-5.75" font-family="Helvetica,sans-Serif" font-size="10.00">_pattern</text>
</a>
</g>
</g>
<!-- Node14&#45;&gt;Node17 -->
<g id="edge16_Node000014_Node000017" class="edge">
<title>Node14&#45;&gt;Node17</title>
<g id="a_edge16_Node000014_Node000017"><a xlink:title=" ">
<path fill="none" stroke="#63b8ff" d="M340.12,-68.42C323.63,-59.14 303.51,-48.47 284.75,-40.25 277.14,-36.92 268.94,-33.73 260.87,-30.82"/>
<polygon fill="#63b8ff" stroke="#63b8ff" points="337.96,-71.79 348.38,-73.7 341.43,-65.71 337.96,-71.79"/>
</a>
</g>
</g>
</g>
</svg>
