<?xml version="1.0" encoding="UTF-8" standalone="no"?>
<!DOCTYPE svg PUBLIC "-//W3C//DTD SVG 1.1//EN"
 "http://www.w3.org/Graphics/SVG/1.1/DTD/svg11.dtd">
<!-- Generated by graphviz version 8.0.5 (20230430.1635)
 -->
<!-- Title: Slic3r::extract_profile Pages: 1 -->
<svg width="1034pt" height="250pt"
 viewBox="0.00 0.00 1034.25 250.12" xmlns="http://www.w3.org/2000/svg" xmlns:xlink="http://www.w3.org/1999/xlink">
<g id="graph0" class="graph" transform="scale(1 1) rotate(0) translate(4 246.12)">
<title>Slic3r::extract_profile</title>
<!-- Node1 -->
<g id="Node000001" class="node">
<title>Node1</title>
<g id="a_Node000001"><a xlink:title=" ">
<polygon fill="#999999" stroke="#666666" points="108.25,-165.5 0,-165.5 0,-146.25 108.25,-146.25 108.25,-165.5"/>
<text text-anchor="middle" x="54.12" y="-152" font-family="Helvetica,sans-Serif" font-size="10.00">Slic3r::extract_profile</text>
</a>
</g>
</g>
<!-- Node1&#45;&gt;Node1 -->
<g id="edge2_Node000001_Node000001" class="edge">
<title>Node1&#45;&gt;Node1</title>
<g id="a_edge2_Node000001_Node000001"><a xlink:title=" ">
<path fill="none" stroke="#63b8ff" d="M30.78,-165.79C20.13,-174.4 27.91,-183.5 54.12,-183.5 69.69,-183.5 78.76,-180.29 81.32,-175.88"/>
<polygon fill="#63b8ff" stroke="#63b8ff" points="84.31,-174.88 77.47,-166.79 77.77,-177.38 84.31,-174.88"/>
</a>
</g>
</g>
<!-- Node2 -->
<g id="Node000002" class="node">
<title>Node2</title>
<g id="a_Node000002"><a xlink:href="../../d5/df0/class_slic3r_1_1_dynamic_config.html#a3743421178fddb8a5663118b211ebfa3" target="_top" xlink:title=" ">
<polygon fill="white" stroke="#666666" points="260.38,-242.12 146.12,-242.12 146.12,-211.62 260.38,-211.62 260.38,-242.12"/>
<text text-anchor="start" x="154.12" y="-228.62" font-family="Helvetica,sans-Serif" font-size="10.00">Slic3r::DynamicConfig</text>
<text text-anchor="middle" x="203.25" y="-217.38" font-family="Helvetica,sans-Serif" font-size="10.00">::empty</text>
</a>
</g>
</g>
<!-- Node1&#45;&gt;Node2 -->
<g id="edge1_Node000001_Node000002" class="edge">
<title>Node1&#45;&gt;Node2</title>
<g id="a_edge1_Node000001_Node000002"><a xlink:title=" ">
<path fill="none" stroke="#63b8ff" d="M73.71,-165.95C91.61,-175.53 119.54,-190.19 144.25,-201.88 147.78,-203.54 151.45,-205.23 155.15,-206.9"/>
<polygon fill="#63b8ff" stroke="#63b8ff" points="153.39,-210.39 163.95,-211.25 156.23,-204 153.39,-210.39"/>
</a>
</g>
</g>
<!-- Node3 -->
<g id="Node000003" class="node">
<title>Node3</title>
<g id="a_Node000003"><a xlink:href="../../d9/d06/class_slic3r_1_1_config_base.html#a1ddf6a2ece3306b6def6b590bae56a74" target="_top" xlink:title=" ">
<polygon fill="white" stroke="#666666" points="252.12,-193.12 154.38,-193.12 154.38,-162.62 252.12,-162.62 252.12,-193.12"/>
<text text-anchor="start" x="162.38" y="-179.62" font-family="Helvetica,sans-Serif" font-size="10.00">Slic3r::ConfigBase</text>
<text text-anchor="middle" x="203.25" y="-168.38" font-family="Helvetica,sans-Serif" font-size="10.00">::load</text>
</a>
</g>
</g>
<!-- Node1&#45;&gt;Node3 -->
<g id="edge3_Node000001_Node000003" class="edge">
<title>Node1&#45;&gt;Node3</title>
<g id="a_edge3_Node000001_Node000003"><a xlink:title=" ">
<path fill="none" stroke="#63b8ff" d="M108.66,-163.88C119.86,-165.56 131.74,-167.33 143.14,-169.04"/>
<polygon fill="#63b8ff" stroke="#63b8ff" points="142.47,-172.62 152.88,-170.64 143.51,-165.7 142.47,-172.62"/>
</a>
</g>
</g>
<!-- Node26 -->
<g id="Node000026" class="node">
<title>Node26</title>
<g id="a_Node000026"><a xlink:href="../../d9/d06/class_slic3r_1_1_config_base.html#ae89badeefb71e1904d9a248d01e357f8" target="_top" xlink:title=" ">
<polygon fill="white" stroke="#666666" points="261.88,-144.5 144.62,-144.5 144.62,-125.25 261.88,-125.25 261.88,-144.5"/>
<text text-anchor="middle" x="203.25" y="-131" font-family="Helvetica,sans-Serif" font-size="10.00">Slic3r::ConfigBase::set</text>
</a>
</g>
</g>
<!-- Node1&#45;&gt;Node26 -->
<g id="edge19_Node000001_Node000026" class="edge">
<title>Node1&#45;&gt;Node26</title>
<g id="a_edge19_Node000001_Node000026"><a xlink:title=" ">
<path fill="none" stroke="#63b8ff" d="M108.66,-148.23C116.86,-147.06 125.42,-145.84 133.89,-144.63"/>
<polygon fill="#63b8ff" stroke="#63b8ff" points="134.13,-147.99 143.54,-143.11 133.15,-141.06 134.13,-147.99"/>
</a>
</g>
</g>
<!-- Node27 -->
<g id="Node000027" class="node">
<title>Node27</title>
<g id="a_Node000027"><a xlink:href="../../de/db8/namespace_slic3r.html#ad1d7277aff3ad0c93c9763bdac9018f8" target="_top" xlink:title=" ">
<polygon fill="white" stroke="#666666" points="262.25,-107.12 144.25,-107.12 144.25,-76.62 262.25,-76.62 262.25,-107.12"/>
<text text-anchor="start" x="152.25" y="-93.62" font-family="Helvetica,sans-Serif" font-size="10.00">Slic3r::string_to_double</text>
<text text-anchor="middle" x="203.25" y="-82.38" font-family="Helvetica,sans-Serif" font-size="10.00">_decimal_point</text>
</a>
</g>
</g>
<!-- Node1&#45;&gt;Node27 -->
<g id="edge20_Node000001_Node000027" class="edge">
<title>Node1&#45;&gt;Node27</title>
<g id="a_edge20_Node000001_Node000027"><a xlink:title=" ">
<path fill="none" stroke="#63b8ff" d="M77.02,-145.83C95.01,-137.63 121.2,-125.81 144.25,-115.88 147.4,-114.52 150.66,-113.13 153.94,-111.74"/>
<polygon fill="#63b8ff" stroke="#63b8ff" points="154.94,-114.69 162.81,-107.59 152.23,-108.24 154.94,-114.69"/>
</a>
</g>
</g>
<!-- Node4 -->
<g id="Node000004" class="node">
<title>Node4</title>
<g id="a_Node000004"><a xlink:href="../../de/db8/namespace_slic3r.html#a5d2e518509a734ce0b0eb0a64cdf94bd" target="_top" xlink:title=" ">
<polygon fill="white" stroke="#666666" points="407.25,-230.5 303.5,-230.5 303.5,-211.25 407.25,-211.25 407.25,-230.5"/>
<text text-anchor="middle" x="355.38" y="-217" font-family="Helvetica,sans-Serif" font-size="10.00">Slic3r::is_gcode_file</text>
</a>
</g>
</g>
<!-- Node3&#45;&gt;Node4 -->
<g id="edge4_Node000003_Node000004" class="edge">
<title>Node3&#45;&gt;Node4</title>
<g id="a_edge4_Node000003_Node000004"><a xlink:title=" ">
<path fill="none" stroke="#63b8ff" d="M252.58,-191.72C270.69,-196.91 291.2,-202.78 309.03,-207.89"/>
<polygon fill="#63b8ff" stroke="#63b8ff" points="307.89,-211.49 318.46,-210.88 309.81,-204.76 307.89,-211.49"/>
</a>
</g>
</g>
<!-- Node5 -->
<g id="Node000005" class="node">
<title>Node5</title>
<g id="a_Node000005"><a xlink:href="../../d9/d06/class_slic3r_1_1_config_base.html#abbbfb57e6f11c5917955bec9654e62ef" target="_top" xlink:title=" ">
<polygon fill="white" stroke="#666666" points="412.5,-128.12 298.25,-128.12 298.25,-97.62 412.5,-97.62 412.5,-128.12"/>
<text text-anchor="start" x="306.25" y="-114.62" font-family="Helvetica,sans-Serif" font-size="10.00">Slic3r::ConfigBase</text>
<text text-anchor="middle" x="355.38" y="-103.38" font-family="Helvetica,sans-Serif" font-size="10.00">::load_from_gcode_file</text>
</a>
</g>
</g>
<!-- Node3&#45;&gt;Node5 -->
<g id="edge5_Node000003_Node000005" class="edge">
<title>Node3&#45;&gt;Node5</title>
<g id="a_edge5_Node000003_Node000005"><a xlink:title=" ">
<path fill="none" stroke="#63b8ff" d="M242.68,-162.14C249.23,-159.41 255.94,-156.58 262.25,-153.88 277.95,-147.13 295.08,-139.57 310.25,-132.8"/>
<polygon fill="#63b8ff" stroke="#63b8ff" points="311.21,-135.75 318.91,-128.47 308.35,-129.36 311.21,-135.75"/>
</a>
</g>
</g>
<!-- Node25 -->
<g id="Node000025" class="node">
<title>Node25</title>
<g id="a_Node000025"><a xlink:href="../../d9/d06/class_slic3r_1_1_config_base.html#a22fbb1cc42e95a5ffa7c44b7a6575aad" target="_top" xlink:title=" ">
<polygon fill="white" stroke="#666666" points="404.25,-193.12 306.5,-193.12 306.5,-162.62 404.25,-162.62 404.25,-193.12"/>
<text text-anchor="start" x="314.5" y="-179.62" font-family="Helvetica,sans-Serif" font-size="10.00">Slic3r::ConfigBase</text>
<text text-anchor="middle" x="355.38" y="-168.38" font-family="Helvetica,sans-Serif" font-size="10.00">::load_from_ini</text>
</a>
</g>
</g>
<!-- Node3&#45;&gt;Node25 -->
<g id="edge16_Node000003_Node000025" class="edge">
<title>Node3&#45;&gt;Node25</title>
<g id="a_edge16_Node000003_Node000025"><a xlink:title=" ">
<path fill="none" stroke="#63b8ff" d="M252.58,-171.52C266.24,-171.1 281.26,-171.01 295.47,-171.27"/>
<polygon fill="#63b8ff" stroke="#63b8ff" points="295.06,-174.78 305.14,-171.52 295.23,-167.78 295.06,-174.78"/>
</a>
</g>
</g>
<!-- Node6 -->
<g id="Node000006" class="node">
<title>Node6</title>
<g id="a_Node000006"><a xlink:href="../../de/db8/namespace_slic3r.html#ab28c13d286b2d1767d7c63b020ebd042" target="_top" xlink:title=" ">
<polygon fill="white" stroke="#666666" points="852,-165.5 777.5,-165.5 777.5,-146.25 852,-146.25 852,-165.5"/>
<text text-anchor="middle" x="814.75" y="-152" font-family="Helvetica,sans-Serif" font-size="10.00">Slic3r::format</text>
</a>
</g>
</g>
<!-- Node5&#45;&gt;Node6 -->
<g id="edge6_Node000005_Node000006" class="edge">
<title>Node5&#45;&gt;Node6</title>
<g id="a_edge6_Node000005_Node000006"><a xlink:title=" ">
<path fill="none" stroke="#63b8ff" d="M409.09,-128.57C421.88,-131.83 435.6,-134.88 448.5,-136.88 561.67,-154.37 696.67,-156.65 766.56,-156.46"/>
<polygon fill="#63b8ff" stroke="#63b8ff" points="766.23,-159.96 776.21,-156.41 766.19,-152.96 766.23,-159.96"/>
</a>
</g>
</g>
<!-- Node8 -->
<g id="Node000008" class="node">
<title>Node8</title>
<g id="a_Node000008"><a xlink:href="../../d3/ddd/class_slic3r_1_1_reverse_line_reader.html#ac91003ed2f045aef7199c506ffd13cc3" target="_top" xlink:title=" ">
<polygon fill="white" stroke="#666666" points="581.5,-128.12 448.5,-128.12 448.5,-97.62 581.5,-97.62 581.5,-128.12"/>
<text text-anchor="start" x="456.5" y="-114.62" font-family="Helvetica,sans-Serif" font-size="10.00">Slic3r::ReverseLineReader</text>
<text text-anchor="middle" x="515" y="-103.38" font-family="Helvetica,sans-Serif" font-size="10.00">::getline</text>
</a>
</g>
</g>
<!-- Node5&#45;&gt;Node8 -->
<g id="edge8_Node000005_Node000008" class="edge">
<title>Node5&#45;&gt;Node8</title>
<g id="a_edge8_Node000005_Node000008"><a xlink:title=" ">
<path fill="none" stroke="#63b8ff" d="M412.84,-112.88C420.82,-112.88 429.14,-112.88 437.43,-112.88"/>
<polygon fill="#63b8ff" stroke="#63b8ff" points="437.27,-116.38 447.27,-112.88 437.27,-109.38 437.27,-116.38"/>
</a>
</g>
</g>
<!-- Node9 -->
<g id="Node000009" class="node">
<title>Node9</title>
<g id="a_Node000009"><a xlink:href="../../d9/d06/class_slic3r_1_1_config_base.html#aa32c751f64e9c249a9aa7cac80a03bd9" target="_top" xlink:title=" ">
<polygon fill="white" stroke="#666666" points="577.75,-41.75 452.25,-41.75 452.25,0 577.75,0 577.75,-41.75"/>
<text text-anchor="start" x="460.25" y="-28.25" font-family="Helvetica,sans-Serif" font-size="10.00">Slic3r::ConfigBase</text>
<text text-anchor="start" x="460.25" y="-17" font-family="Helvetica,sans-Serif" font-size="10.00">::load_from_gcode_string</text>
<text text-anchor="middle" x="515" y="-5.75" font-family="Helvetica,sans-Serif" font-size="10.00">_legacy</text>
</a>
</g>
</g>
<!-- Node5&#45;&gt;Node9 -->
<g id="edge9_Node000005_Node000009" class="edge">
<title>Node5&#45;&gt;Node9</title>
<g id="a_edge9_Node000005_Node000009"><a xlink:title=" ">
<path fill="none" stroke="#63b8ff" d="M380.75,-97.21C399.18,-85.51 425.19,-69.29 448.5,-55.88 453.46,-53.02 458.67,-50.1 463.89,-47.23"/>
<polygon fill="#63b8ff" stroke="#63b8ff" points="465.14,-49.99 472.25,-42.14 461.79,-43.84 465.14,-49.99"/>
</a>
</g>
</g>
<!-- Node10 -->
<g id="Node000010" class="node">
<title>Node10</title>
<g id="a_Node000010"><a xlink:href="../../d9/d06/class_slic3r_1_1_config_base.html#a78ddf8e29027932a03c90ca8022553bd" target="_top" xlink:title=" ">
<polygon fill="white" stroke="#666666" points="715.25,-85.12 617.5,-85.12 617.5,-54.62 715.25,-54.62 715.25,-85.12"/>
<text text-anchor="start" x="625.5" y="-71.62" font-family="Helvetica,sans-Serif" font-size="10.00">Slic3r::ConfigBase</text>
<text text-anchor="middle" x="666.38" y="-60.38" font-family="Helvetica,sans-Serif" font-size="10.00">::set_deserialize</text>
</a>
</g>
</g>
<!-- Node5&#45;&gt;Node10 -->
<g id="edge15_Node000005_Node000010" class="edge">
<title>Node5&#45;&gt;Node10</title>
<g id="a_edge15_Node000005_Node000010"><a xlink:title=" ">
<path fill="none" stroke="#63b8ff" d="M410.6,-97.14C422.97,-94 436.12,-91.01 448.5,-88.88 501.55,-79.71 562.7,-74.86 606.52,-72.36"/>
<polygon fill="#63b8ff" stroke="#63b8ff" points="606.47,-75.82 616.27,-71.78 606.09,-68.83 606.47,-75.82"/>
</a>
</g>
</g>
<!-- Node7 -->
<g id="Node000007" class="node">
<title>Node7</title>
<g id="a_Node000007"><a xlink:href="../../d5/ddc/namespace_slic3r_1_1internal_1_1format.html#a5a8cae6889e58c9be36cd70a9e9987ff" target="_top" xlink:title=" ">
<polygon fill="white" stroke="#666666" points="1026.25,-171.12 914.25,-171.12 914.25,-140.62 1026.25,-140.62 1026.25,-171.12"/>
<text text-anchor="start" x="922.25" y="-157.62" font-family="Helvetica,sans-Serif" font-size="10.00">Slic3r::internal::format</text>
<text text-anchor="middle" x="970.25" y="-146.38" font-family="Helvetica,sans-Serif" font-size="10.00">::format_recursive</text>
</a>
</g>
</g>
<!-- Node6&#45;&gt;Node7 -->
<g id="edge7_Node000006_Node000007" class="edge">
<title>Node6&#45;&gt;Node7</title>
<g id="a_edge7_Node000006_Node000007"><a xlink:title=" ">
<path fill="none" stroke="#63b8ff" d="M852.13,-155.88C867.4,-155.88 885.65,-155.88 903.15,-155.88"/>
<polygon fill="#63b8ff" stroke="#63b8ff" points="902.91,-159.38 912.91,-155.88 902.91,-152.38 902.91,-159.38"/>
</a>
</g>
</g>
<!-- Node9&#45;&gt;Node10 -->
<g id="edge10_Node000009_Node000010" class="edge">
<title>Node9&#45;&gt;Node10</title>
<g id="a_edge10_Node000009_Node000010"><a xlink:title=" ">
<path fill="none" stroke="#63b8ff" d="M578.05,-41.23C587.7,-44.4 597.65,-47.66 607.21,-50.8"/>
<polygon fill="#63b8ff" stroke="#63b8ff" points="605.82,-54.35 616.41,-54.14 608,-47.7 605.82,-54.35"/>
</a>
</g>
</g>
<!-- Node10&#45;&gt;Node6 -->
<g id="edge12_Node000010_Node000006" class="edge">
<title>Node10&#45;&gt;Node6</title>
<g id="a_edge12_Node000010_Node000006"><a xlink:title=" ">
<path fill="none" stroke="#63b8ff" d="M683.08,-85.5C699.02,-100.57 725.03,-123.07 751.25,-136.88 756.14,-139.45 761.44,-141.73 766.81,-143.74"/>
<polygon fill="#63b8ff" stroke="#63b8ff" points="765.54,-147.35 776.13,-147.27 767.8,-140.73 765.54,-147.35"/>
</a>
</g>
</g>
<!-- Node11 -->
<g id="Node000011" class="node">
<title>Node11</title>
<g id="a_Node000011"><a xlink:href="../../de/db8/namespace_slic3r.html#ad61bb7f1e4b8aaa434964420b9bedf32" target="_top" xlink:title=" ">
<polygon fill="white" stroke="#666666" points="1009.38,-101.5 931.12,-101.5 931.12,-82.25 1009.38,-82.25 1009.38,-101.5"/>
<text text-anchor="middle" x="970.25" y="-88" font-family="Helvetica,sans-Serif" font-size="10.00">Slic3r::append</text>
</a>
</g>
</g>
<!-- Node10&#45;&gt;Node11 -->
<g id="edge11_Node000010_Node000011" class="edge">
<title>Node10&#45;&gt;Node11</title>
<g id="a_edge11_Node000010_Node000011"><a xlink:title=" ">
<path fill="none" stroke="#63b8ff" d="M715.54,-73.39C771.57,-77.47 863.56,-84.17 920.03,-88.29"/>
<polygon fill="#63b8ff" stroke="#63b8ff" points="919.6,-91.84 929.83,-89.08 920.11,-84.86 919.6,-91.84"/>
</a>
</g>
</g>
<!-- Node12 -->
<g id="Node000012" class="node">
<title>Node12</title>
<g id="a_Node000012"><a xlink:href="../../d9/d06/class_slic3r_1_1_config_base.html#a88baa1389510cff3fa08b6bd260a6d94" target="_top" xlink:title=" ">
<polygon fill="#fff0f0" stroke="red" points="878.25,-128.12 751.25,-128.12 751.25,-97.62 878.25,-97.62 878.25,-128.12"/>
<text text-anchor="start" x="759.25" y="-114.62" font-family="Helvetica,sans-Serif" font-size="10.00">Slic3r::ConfigBase</text>
<text text-anchor="middle" x="814.75" y="-103.38" font-family="Helvetica,sans-Serif" font-size="10.00">::set_deserialize_nothrow</text>
</a>
</g>
</g>
<!-- Node10&#45;&gt;Node12 -->
<g id="edge13_Node000010_Node000012" class="edge">
<title>Node10&#45;&gt;Node12</title>
<g id="a_edge13_Node000010_Node000012"><a xlink:title=" ">
<path fill="none" stroke="#63b8ff" d="M715.71,-84.07C726.61,-87.28 738.35,-90.72 749.78,-94.08"/>
<polygon fill="#63b8ff" stroke="#63b8ff" points="748.58,-97.67 759.16,-97.13 750.55,-90.96 748.58,-97.67"/>
</a>
</g>
</g>
<!-- Node12&#45;&gt;Node11 -->
<g id="edge14_Node000012_Node000011" class="edge">
<title>Node12&#45;&gt;Node11</title>
<g id="a_edge14_Node000012_Node000011"><a xlink:title=" ">
<path fill="none" stroke="#63b8ff" d="M878.63,-104.27C892.47,-102.38 906.93,-100.4 920.14,-98.59"/>
<polygon fill="#63b8ff" stroke="#63b8ff" points="920.46,-101.95 929.89,-97.12 919.51,-95.01 920.46,-101.95"/>
</a>
</g>
</g>
<!-- Node25&#45;&gt;Node3 -->
<g id="edge18_Node000025_Node000003" class="edge">
<title>Node25&#45;&gt;Node3</title>
<g id="a_edge18_Node000025_Node000003"><a xlink:title=" ">
<path fill="none" stroke="#63b8ff" d="M306.14,-184.23C292.48,-184.65 277.47,-184.74 263.25,-184.49"/>
<polygon fill="#63b8ff" stroke="#63b8ff" points="263.66,-180.97 253.58,-184.23 263.49,-187.97 263.66,-180.97"/>
</a>
</g>
</g>
<!-- Node25&#45;&gt;Node6 -->
<g id="edge17_Node000025_Node000006" class="edge">
<title>Node25&#45;&gt;Node6</title>
<g id="a_edge17_Node000025_Node000006"><a xlink:title=" ">
<path fill="none" stroke="#63b8ff" d="M404.65,-178.62C473.64,-179.26 604.38,-178.96 715.25,-169.88 732.03,-168.5 750.32,-166.14 766.53,-163.75"/>
<polygon fill="#63b8ff" stroke="#63b8ff" points="767.02,-167.06 776.38,-162.1 765.97,-160.14 767.02,-167.06"/>
</a>
</g>
</g>
</g>
</svg>
