<?xml version="1.0" encoding="UTF-8" standalone="no"?>
<!DOCTYPE svg PUBLIC "-//W3C//DTD SVG 1.1//EN"
 "http://www.w3.org/Graphics/SVG/1.1/DTD/svg11.dtd">
<!-- Generated by graphviz version 8.0.5 (20230430.1635)
 -->
<!-- Title: Slic3r::only_if Pages: 1 -->
<svg width="594pt" height="93pt"
 viewBox="0.00 0.00 594.00 93.12" xmlns="http://www.w3.org/2000/svg" xmlns:xlink="http://www.w3.org/1999/xlink">
<g id="graph0" class="graph" transform="scale(1 1) rotate(0) translate(4 89.12)">
<title>Slic3r::only_if</title>
<!-- Node1 -->
<g id="Node000001" class="node">
<title>Node1</title>
<g id="a_Node000001"><a xlink:title=" ">
<polygon fill="#999999" stroke="#666666" points="586,-54.5 510.75,-54.5 510.75,-35.25 586,-35.25 586,-54.5"/>
<text text-anchor="middle" x="548.38" y="-41" font-family="Helvetica,sans-Serif" font-size="10.00">Slic3r::only_if</text>
</a>
</g>
</g>
<!-- Node2 -->
<g id="Node000002" class="node">
<title>Node2</title>
<g id="a_Node000002"><a xlink:href="../../d4/d88/struct_slic3r_1_1_g_u_i_1_1_plater_1_1priv.html#a1f93c566973d582f7b11df455a657f17" target="_top" xlink:title=" ">
<polygon fill="white" stroke="#666666" points="456.38,-85.12 360.12,-85.12 360.12,-54.62 456.38,-54.62 456.38,-85.12"/>
<text text-anchor="start" x="368.12" y="-71.62" font-family="Helvetica,sans-Serif" font-size="10.00">Slic3r::GUI::Plater</text>
<text text-anchor="middle" x="408.25" y="-60.38" font-family="Helvetica,sans-Serif" font-size="10.00">::priv::load_files</text>
</a>
</g>
</g>
<!-- Node1&#45;&gt;Node2 -->
<g id="edge1_Node000001_Node000002" class="edge">
<title>Node1&#45;&gt;Node2</title>
<g id="a_edge1_Node000001_Node000002"><a xlink:title=" ">
<path fill="none" stroke="#63b8ff" d="M499.57,-53.53C485.73,-56.03 470.62,-58.77 456.79,-61.27"/>
<polygon fill="#63b8ff" stroke="#63b8ff" points="500.14,-56.8 509.36,-51.57 498.9,-49.91 500.14,-56.8"/>
</a>
</g>
</g>
<!-- Node3 -->
<g id="Node000003" class="node">
<title>Node3</title>
<g id="a_Node000003"><a xlink:href="../../d8/d38/class_slic3r_1_1_g_u_i_1_1_g_l_gizmo_cut3_d.html#a8b1bc2a5be94ba5dfb3a9f4e2b542026" target="_top" xlink:title=" ">
<polygon fill="white" stroke="#666666" points="474.75,-36.12 341.75,-36.12 341.75,-5.62 474.75,-5.62 474.75,-36.12"/>
<text text-anchor="start" x="349.75" y="-22.62" font-family="Helvetica,sans-Serif" font-size="10.00">Slic3r::GUI::GLGizmoCut3</text>
<text text-anchor="middle" x="408.25" y="-11.38" font-family="Helvetica,sans-Serif" font-size="10.00">D::perform_cut</text>
</a>
</g>
</g>
<!-- Node1&#45;&gt;Node3 -->
<g id="edge2_Node000001_Node000003" class="edge">
<title>Node1&#45;&gt;Node3</title>
<g id="a_edge2_Node000001_Node000003"><a xlink:title=" ">
<path fill="none" stroke="#63b8ff" d="M499.55,-36.56C491.67,-35.2 483.39,-33.76 475.16,-32.33"/>
<polygon fill="#63b8ff" stroke="#63b8ff" points="498.91,-40.18 509.36,-38.44 500.11,-33.28 498.91,-40.18"/>
</a>
</g>
</g>
<!-- Node4 -->
<g id="Node000004" class="node">
<title>Node4</title>
<g id="a_Node000004"><a xlink:href="../../d8/d38/class_slic3r_1_1_g_u_i_1_1_g_l_gizmo_cut3_d.html#aeb913488bda5eff800b7a34daa61a60d" target="_top" xlink:title=" ">
<polygon fill="white" stroke="#666666" points="305.75,-41.75 172.75,-41.75 172.75,0 305.75,0 305.75,-41.75"/>
<text text-anchor="start" x="180.75" y="-28.25" font-family="Helvetica,sans-Serif" font-size="10.00">Slic3r::GUI::GLGizmoCut3</text>
<text text-anchor="start" x="180.75" y="-17" font-family="Helvetica,sans-Serif" font-size="10.00">D::render_cut_plane_input</text>
<text text-anchor="middle" x="239.25" y="-5.75" font-family="Helvetica,sans-Serif" font-size="10.00">_window</text>
</a>
</g>
</g>
<!-- Node3&#45;&gt;Node4 -->
<g id="edge3_Node000003_Node000004" class="edge">
<title>Node3&#45;&gt;Node4</title>
<g id="a_edge3_Node000003_Node000004"><a xlink:title=" ">
<path fill="none" stroke="#63b8ff" d="M330.93,-20.88C322.65,-20.88 314.27,-20.88 306.13,-20.88"/>
<polygon fill="#63b8ff" stroke="#63b8ff" points="330.73,-24.38 340.73,-20.88 330.73,-17.38 330.73,-24.38"/>
</a>
</g>
</g>
<!-- Node5 -->
<g id="Node000005" class="node">
<title>Node5</title>
<g id="a_Node000005"><a xlink:href="../../d8/d38/class_slic3r_1_1_g_u_i_1_1_g_l_gizmo_cut3_d.html#a8710869690690f2dcfbb80fddbe43624" target="_top" xlink:title=" ">
<polygon fill="white" stroke="#666666" points="136.75,-36.12 0,-36.12 0,-5.62 136.75,-5.62 136.75,-36.12"/>
<text text-anchor="start" x="8" y="-22.62" font-family="Helvetica,sans-Serif" font-size="10.00">Slic3r::GUI::GLGizmoCut3</text>
<text text-anchor="middle" x="68.38" y="-11.38" font-family="Helvetica,sans-Serif" font-size="10.00">D::on_render_input_window</text>
</a>
</g>
</g>
<!-- Node4&#45;&gt;Node5 -->
<g id="edge4_Node000004_Node000005" class="edge">
<title>Node4&#45;&gt;Node5</title>
<g id="a_edge4_Node000004_Node000005"><a xlink:title=" ">
<path fill="none" stroke="#63b8ff" d="M161.51,-20.88C153.4,-20.88 145.19,-20.88 137.2,-20.88"/>
<polygon fill="#63b8ff" stroke="#63b8ff" points="161.47,-24.38 171.47,-20.88 161.47,-17.38 161.47,-24.38"/>
</a>
</g>
</g>
</g>
</svg>
