<?xml version="1.0" encoding="UTF-8" standalone="no"?>
<!DOCTYPE svg PUBLIC "-//W3C//DTD SVG 1.1//EN"
 "http://www.w3.org/Graphics/SVG/1.1/DTD/svg11.dtd">
<!-- Generated by graphviz version 8.0.5 (20230430.1635)
 -->
<!-- Title: Slic3r::check_add_eol Pages: 1 -->
<svg width="905pt" height="272pt"
 viewBox="0.00 0.00 905.00 271.50" xmlns="http://www.w3.org/2000/svg" xmlns:xlink="http://www.w3.org/1999/xlink">
<g id="graph0" class="graph" transform="scale(1 1) rotate(0) translate(4 267.5)">
<title>Slic3r::check_add_eol</title>
<!-- Node1 -->
<g id="Node000001" class="node">
<title>Node1</title>
<g id="a_Node000001"><a xlink:title=" ">
<polygon fill="#999999" stroke="#666666" points="897,-137.88 785,-137.88 785,-118.62 897,-118.62 897,-137.88"/>
<text text-anchor="middle" x="841" y="-124.38" font-family="Helvetica,sans-Serif" font-size="10.00">Slic3r::check_add_eol</text>
</a>
</g>
</g>
<!-- Node2 -->
<g id="Node000002" class="node">
<title>Node2</title>
<g id="a_Node000002"><a xlink:href="../../d0/d4c/class_slic3r_1_1_wipe_tower_integration.html#a77890da960412cea8c288fe74a2d28cc" target="_top" xlink:title=" ">
<polygon fill="white" stroke="#666666" points="616,-165.5 474.75,-165.5 474.75,-135 616,-135 616,-165.5"/>
<text text-anchor="start" x="482.75" y="-152" font-family="Helvetica,sans-Serif" font-size="10.00">Slic3r::WipeTowerIntegration</text>
<text text-anchor="middle" x="545.38" y="-140.75" font-family="Helvetica,sans-Serif" font-size="10.00">::append_tcr</text>
</a>
</g>
</g>
<!-- Node1&#45;&gt;Node2 -->
<g id="edge1_Node000001_Node000002" class="edge">
<title>Node1&#45;&gt;Node2</title>
<g id="a_edge1_Node000001_Node000002"><a xlink:title=" ">
<path fill="none" stroke="#63b8ff" d="M773.82,-133.21C726.93,-136.72 664.13,-141.43 616.41,-145"/>
<polygon fill="#63b8ff" stroke="#63b8ff" points="774.06,-136.63 783.77,-132.39 773.54,-129.65 774.06,-136.63"/>
</a>
</g>
</g>
<!-- Node6 -->
<g id="Node000006" class="node">
<title>Node6</title>
<g id="a_Node000006"><a xlink:href="../../dd/dc8/class_slic3r_1_1_g_code.html#a17e6b9621f765ee22ac0cc4eaf9ca1c7" target="_top" xlink:title=" ">
<polygon fill="white" stroke="#666666" points="749,-122.5 652,-122.5 652,-92 749,-92 749,-122.5"/>
<text text-anchor="start" x="660" y="-109" font-family="Helvetica,sans-Serif" font-size="10.00">Slic3r::GCode::set</text>
<text text-anchor="middle" x="700.5" y="-97.75" font-family="Helvetica,sans-Serif" font-size="10.00">_extruder</text>
</a>
</g>
</g>
<!-- Node1&#45;&gt;Node6 -->
<g id="edge5_Node000001_Node000006" class="edge">
<title>Node1&#45;&gt;Node6</title>
<g id="a_edge5_Node000001_Node000006"><a xlink:title=" ">
<path fill="none" stroke="#63b8ff" d="M773.99,-118.24C765.66,-116.98 757.27,-115.71 749.29,-114.5"/>
<polygon fill="#63b8ff" stroke="#63b8ff" points="773.45,-121.85 783.86,-119.89 774.5,-114.93 773.45,-121.85"/>
</a>
</g>
</g>
<!-- Node3 -->
<g id="Node000003" class="node">
<title>Node3</title>
<g id="a_Node000003"><a xlink:href="../../d0/d4c/class_slic3r_1_1_wipe_tower_integration.html#ad176401561c0de48be24cc98ab44b4bf" target="_top" xlink:title=" ">
<polygon fill="white" stroke="#666666" points="438.75,-263.5 297.5,-263.5 297.5,-233 438.75,-233 438.75,-263.5"/>
<text text-anchor="start" x="305.5" y="-250" font-family="Helvetica,sans-Serif" font-size="10.00">Slic3r::WipeTowerIntegration</text>
<text text-anchor="middle" x="368.12" y="-238.75" font-family="Helvetica,sans-Serif" font-size="10.00">::finalize</text>
</a>
</g>
</g>
<!-- Node2&#45;&gt;Node3 -->
<g id="edge2_Node000002_Node000003" class="edge">
<title>Node2&#45;&gt;Node3</title>
<g id="a_edge2_Node000002_Node000003"><a xlink:title=" ">
<path fill="none" stroke="#63b8ff" d="M516.56,-172.47C495.96,-188.16 466.73,-208.87 438.75,-223.25 432.12,-226.66 424.93,-229.8 417.76,-232.63"/>
<polygon fill="#63b8ff" stroke="#63b8ff" points="518.33,-174.75 524.1,-165.87 514.05,-169.21 518.33,-174.75"/>
</a>
</g>
</g>
<!-- Node4 -->
<g id="Node000004" class="node">
<title>Node4</title>
<g id="a_Node000004"><a xlink:href="../../d0/d4c/class_slic3r_1_1_wipe_tower_integration.html#a7497d8d42cdcc1e6eab63612993aee92" target="_top" xlink:title=" ">
<polygon fill="white" stroke="#666666" points="438.75,-214.5 297.5,-214.5 297.5,-184 438.75,-184 438.75,-214.5"/>
<text text-anchor="start" x="305.5" y="-201" font-family="Helvetica,sans-Serif" font-size="10.00">Slic3r::WipeTowerIntegration</text>
<text text-anchor="middle" x="368.12" y="-189.75" font-family="Helvetica,sans-Serif" font-size="10.00">::prime</text>
</a>
</g>
</g>
<!-- Node2&#45;&gt;Node4 -->
<g id="edge3_Node000002_Node000004" class="edge">
<title>Node2&#45;&gt;Node4</title>
<g id="a_edge3_Node000002_Node000004"><a xlink:title=" ">
<path fill="none" stroke="#63b8ff" d="M477.86,-168.85C460.58,-173.68 442.13,-178.84 425.43,-183.51"/>
<polygon fill="#63b8ff" stroke="#63b8ff" points="478.75,-171.95 487.44,-165.89 476.87,-165.21 478.75,-171.95"/>
</a>
</g>
</g>
<!-- Node5 -->
<g id="Node000005" class="node">
<title>Node5</title>
<g id="a_Node000005"><a xlink:href="../../d0/d4c/class_slic3r_1_1_wipe_tower_integration.html#a756231fc8c765bc08432e520fca5f49c" target="_top" xlink:title=" ">
<polygon fill="white" stroke="#666666" points="438.75,-165.5 297.5,-165.5 297.5,-135 438.75,-135 438.75,-165.5"/>
<text text-anchor="start" x="305.5" y="-152" font-family="Helvetica,sans-Serif" font-size="10.00">Slic3r::WipeTowerIntegration</text>
<text text-anchor="middle" x="368.12" y="-140.75" font-family="Helvetica,sans-Serif" font-size="10.00">::tool_change</text>
</a>
</g>
</g>
<!-- Node2&#45;&gt;Node5 -->
<g id="edge4_Node000002_Node000005" class="edge">
<title>Node2&#45;&gt;Node5</title>
<g id="a_edge4_Node000002_Node000005"><a xlink:title=" ">
<path fill="none" stroke="#63b8ff" d="M463.63,-150.25C455.41,-150.25 447.12,-150.25 439.03,-150.25"/>
<polygon fill="#63b8ff" stroke="#63b8ff" points="463.36,-153.75 473.36,-150.25 463.36,-146.75 463.36,-153.75"/>
</a>
</g>
</g>
<!-- Node6&#45;&gt;Node2 -->
<g id="edge8_Node000006_Node000002" class="edge">
<title>Node6&#45;&gt;Node2</title>
<g id="a_edge8_Node000006_Node000002"><a xlink:title=" ">
<path fill="none" stroke="#63b8ff" d="M641.34,-123.58C628.53,-127.18 614.99,-130.98 602.27,-134.55"/>
<polygon fill="#63b8ff" stroke="#63b8ff" points="642.21,-126.69 650.89,-120.62 640.32,-119.95 642.21,-126.69"/>
</a>
</g>
</g>
<!-- Node7 -->
<g id="Node000007" class="node">
<title>Node7</title>
<g id="a_Node000007"><a xlink:href="../../dd/dc8/class_slic3r_1_1_g_code.html#ad5ac0f44c2121cf8d09cc7fde2dae045" target="_top" xlink:title=" ">
<polygon fill="white" stroke="#666666" points="261.5,-100.5 162.25,-100.5 162.25,-70 261.5,-70 261.5,-100.5"/>
<text text-anchor="start" x="170.25" y="-87" font-family="Helvetica,sans-Serif" font-size="10.00">Slic3r::GCode::_do</text>
<text text-anchor="middle" x="211.88" y="-75.75" font-family="Helvetica,sans-Serif" font-size="10.00">_export</text>
</a>
</g>
</g>
<!-- Node6&#45;&gt;Node7 -->
<g id="edge6_Node000006_Node000007" class="edge">
<title>Node6&#45;&gt;Node7</title>
<g id="a_edge6_Node000006_Node000007"><a xlink:title=" ">
<path fill="none" stroke="#63b8ff" d="M640.73,-104.59C543.79,-100.21 352.12,-91.55 261.95,-87.47"/>
<polygon fill="#63b8ff" stroke="#63b8ff" points="640.36,-108.13 650.51,-105.08 640.68,-101.13 640.36,-108.13"/>
</a>
</g>
</g>
<!-- Node9 -->
<g id="Node000009" class="node">
<title>Node9</title>
<g id="a_Node000009"><a xlink:href="../../dd/dc8/class_slic3r_1_1_g_code.html#a9cc98ab48cc34a5705a931adb15dba33" target="_top" xlink:title=" ">
<polygon fill="white" stroke="#666666" points="604.38,-79.5 486.38,-79.5 486.38,-49 604.38,-49 604.38,-79.5"/>
<text text-anchor="start" x="494.38" y="-66" font-family="Helvetica,sans-Serif" font-size="10.00">Slic3r::GCode::process</text>
<text text-anchor="middle" x="545.38" y="-54.75" font-family="Helvetica,sans-Serif" font-size="10.00">_layer</text>
</a>
</g>
</g>
<!-- Node6&#45;&gt;Node9 -->
<g id="edge9_Node000006_Node000009" class="edge">
<title>Node6&#45;&gt;Node9</title>
<g id="a_edge9_Node000006_Node000009"><a xlink:title=" ">
<path fill="none" stroke="#63b8ff" d="M641.34,-90.92C628.53,-87.32 614.99,-83.52 602.27,-79.95"/>
<polygon fill="#63b8ff" stroke="#63b8ff" points="640.32,-94.55 650.89,-93.88 642.21,-87.81 640.32,-94.55"/>
</a>
</g>
</g>
<!-- Node8 -->
<g id="Node000008" class="node">
<title>Node8</title>
<g id="a_Node000008"><a xlink:href="../../dd/dc8/class_slic3r_1_1_g_code.html#a41ddab6bfd15c1848026271f48485efb" target="_top" xlink:title=" ">
<polygon fill="white" stroke="#666666" points="126.25,-94.88 0,-94.88 0,-75.62 126.25,-75.62 126.25,-94.88"/>
<text text-anchor="middle" x="63.12" y="-81.38" font-family="Helvetica,sans-Serif" font-size="10.00">Slic3r::GCode::do_export</text>
</a>
</g>
</g>
<!-- Node7&#45;&gt;Node8 -->
<g id="edge7_Node000007_Node000008" class="edge">
<title>Node7&#45;&gt;Node8</title>
<g id="a_edge7_Node000007_Node000008"><a xlink:title=" ">
<path fill="none" stroke="#63b8ff" d="M151.16,-85.25C143.07,-85.25 134.75,-85.25 126.61,-85.25"/>
<polygon fill="#63b8ff" stroke="#63b8ff" points="151.01,-88.75 161.01,-85.25 151.01,-81.75 151.01,-88.75"/>
</a>
</g>
</g>
<!-- Node10 -->
<g id="Node000010" class="node">
<title>Node10</title>
<g id="a_Node000010"><a xlink:href="../../dd/dc8/class_slic3r_1_1_g_code.html#ae9d03a71321e19a7349fe7bdf892eeb5" target="_top" xlink:title=" ">
<polygon fill="white" stroke="#666666" points="427.12,-79.5 309.12,-79.5 309.12,-49 427.12,-49 427.12,-79.5"/>
<text text-anchor="start" x="317.12" y="-66" font-family="Helvetica,sans-Serif" font-size="10.00">Slic3r::GCode::process</text>
<text text-anchor="middle" x="368.12" y="-54.75" font-family="Helvetica,sans-Serif" font-size="10.00">_layers</text>
</a>
</g>
</g>
<!-- Node9&#45;&gt;Node10 -->
<g id="edge10_Node000009_Node000010" class="edge">
<title>Node9&#45;&gt;Node10</title>
<g id="a_edge10_Node000009_Node000010"><a xlink:title=" ">
<path fill="none" stroke="#63b8ff" d="M475.25,-64.25C459.45,-64.25 442.82,-64.25 427.52,-64.25"/>
<polygon fill="#63b8ff" stroke="#63b8ff" points="475.02,-67.75 485.02,-64.25 475.02,-60.75 475.02,-67.75"/>
</a>
</g>
</g>
<!-- Node11 -->
<g id="Node000011" class="node">
<title>Node11</title>
<g id="a_Node000011"><a xlink:href="../../dd/dc8/class_slic3r_1_1_g_code.html#af9001478c63dd7c5909161470e3d13a7" target="_top" xlink:title=" ">
<polygon fill="white" stroke="#666666" points="427.12,-30.5 309.12,-30.5 309.12,0 427.12,0 427.12,-30.5"/>
<text text-anchor="start" x="317.12" y="-17" font-family="Helvetica,sans-Serif" font-size="10.00">Slic3r::GCode::process</text>
<text text-anchor="middle" x="368.12" y="-5.75" font-family="Helvetica,sans-Serif" font-size="10.00">_layers</text>
</a>
</g>
</g>
<!-- Node9&#45;&gt;Node11 -->
<g id="edge12_Node000009_Node000011" class="edge">
<title>Node9&#45;&gt;Node11</title>
<g id="a_edge12_Node000009_Node000011"><a xlink:title=" ">
<path fill="none" stroke="#63b8ff" d="M477.86,-45.65C460.58,-40.82 442.13,-35.66 425.43,-30.99"/>
<polygon fill="#63b8ff" stroke="#63b8ff" points="476.87,-49.29 487.44,-48.61 478.75,-42.55 476.87,-49.29"/>
</a>
</g>
</g>
<!-- Node10&#45;&gt;Node7 -->
<g id="edge11_Node000010_Node000007" class="edge">
<title>Node10&#45;&gt;Node7</title>
<g id="a_edge11_Node000010_Node000007"><a xlink:title=" ">
<path fill="none" stroke="#63b8ff" d="M298.12,-73.64C285.84,-75.32 273.28,-77.03 261.71,-78.6"/>
<polygon fill="#63b8ff" stroke="#63b8ff" points="298.37,-77.01 307.81,-72.19 297.43,-70.07 298.37,-77.01"/>
</a>
</g>
</g>
</g>
</svg>
