<?xml version="1.0" encoding="UTF-8" standalone="no"?>
<!DOCTYPE svg PUBLIC "-//W3C//DTD SVG 1.1//EN"
 "http://www.w3.org/Graphics/SVG/1.1/DTD/svg11.dtd">
<!-- Generated by graphviz version 8.0.5 (20230430.1635)
 -->
<!-- Title: Slic3r::extrusionentity_extents Pages: 1 -->
<svg width="587pt" height="186pt"
 viewBox="0.00 0.00 586.50 185.50" xmlns="http://www.w3.org/2000/svg" xmlns:xlink="http://www.w3.org/1999/xlink">
<g id="graph0" class="graph" transform="scale(1 1) rotate(0) translate(4 181.5)">
<title>Slic3r::extrusionentity_extents</title>
<!-- Node1 -->
<g id="Node000001" class="node">
<title>Node1</title>
<g id="a_Node000001"><a xlink:title=" ">
<polygon fill="#999999" stroke="#666666" points="578.5,-103.5 468,-103.5 468,-73 578.5,-73 578.5,-103.5"/>
<text text-anchor="start" x="476" y="-90" font-family="Helvetica,sans-Serif" font-size="10.00">Slic3r::extrusionentity</text>
<text text-anchor="middle" x="523.25" y="-78.75" font-family="Helvetica,sans-Serif" font-size="10.00">_extents</text>
</a>
</g>
</g>
<!-- Node2 -->
<g id="Node000002" class="node">
<title>Node2</title>
<g id="a_Node000002"><a xlink:href="../../de/db8/namespace_slic3r.html#aa255e70e97f729d0f386213f380bdd7a" target="_top" xlink:title=" ">
<polygon fill="white" stroke="#666666" points="420,-177.5 309.5,-177.5 309.5,-147 420,-147 420,-177.5"/>
<text text-anchor="start" x="317.5" y="-164" font-family="Helvetica,sans-Serif" font-size="10.00">Slic3r::extrusionentity</text>
<text text-anchor="middle" x="364.75" y="-152.75" font-family="Helvetica,sans-Serif" font-size="10.00">_extents</text>
</a>
</g>
</g>
<!-- Node1&#45;&gt;Node2 -->
<g id="edge1_Node000001_Node000002" class="edge">
<title>Node1&#45;&gt;Node2</title>
<g id="a_edge1_Node000001_Node000002"><a xlink:title=" ">
<path fill="none" stroke="#63b8ff" d="M486.68,-109.02C470.29,-118.21 450.43,-128.82 432,-137.25 424.96,-140.47 417.37,-143.62 409.93,-146.54"/>
<polygon fill="#63b8ff" stroke="#63b8ff" points="487.91,-111.78 494.88,-103.81 484.46,-105.69 487.91,-111.78"/>
</a>
</g>
</g>
<!-- Node3 -->
<g id="Node000003" class="node">
<title>Node3</title>
<g id="a_Node000003"><a xlink:href="../../de/db8/namespace_slic3r.html#a699f2d17c1344ba2eb3a6aa7e01e179e" target="_top" xlink:title=" ">
<polygon fill="white" stroke="#666666" points="420,-128.5 309.5,-128.5 309.5,-98 420,-98 420,-128.5"/>
<text text-anchor="start" x="317.5" y="-115" font-family="Helvetica,sans-Serif" font-size="10.00">Slic3r::extrusionentity</text>
<text text-anchor="middle" x="364.75" y="-103.75" font-family="Helvetica,sans-Serif" font-size="10.00">_extents</text>
</a>
</g>
</g>
<!-- Node1&#45;&gt;Node3 -->
<g id="edge2_Node000001_Node000003" class="edge">
<title>Node1&#45;&gt;Node3</title>
<g id="a_edge2_Node000001_Node000003"><a xlink:title=" ">
<path fill="none" stroke="#63b8ff" d="M456.98,-98.68C444.83,-100.62 432.25,-102.63 420.46,-104.51"/>
<polygon fill="#63b8ff" stroke="#63b8ff" points="457.19,-102.03 466.51,-96.99 456.09,-95.12 457.19,-102.03"/>
</a>
</g>
</g>
<!-- Node4 -->
<g id="Node000004" class="node">
<title>Node4</title>
<g id="a_Node000004"><a xlink:href="../../de/db8/namespace_slic3r.html#a8f3f4fa4d67b9df11d5665c57f7a7678" target="_top" xlink:title=" ">
<polygon fill="white" stroke="#666666" points="432,-79.5 297.5,-79.5 297.5,-49 432,-49 432,-79.5"/>
<text text-anchor="start" x="305.5" y="-66" font-family="Helvetica,sans-Serif" font-size="10.00">Slic3r::get_print_extrusions</text>
<text text-anchor="middle" x="364.75" y="-54.75" font-family="Helvetica,sans-Serif" font-size="10.00">_extents</text>
</a>
</g>
</g>
<!-- Node1&#45;&gt;Node4 -->
<g id="edge3_Node000001_Node000004" class="edge">
<title>Node1&#45;&gt;Node4</title>
<g id="a_edge3_Node000001_Node000004"><a xlink:title=" ">
<path fill="none" stroke="#63b8ff" d="M456.67,-78.19C448.62,-76.96 440.37,-75.69 432.3,-74.46"/>
<polygon fill="#63b8ff" stroke="#63b8ff" points="456.1,-81.8 466.51,-79.86 457.16,-74.88 456.1,-81.8"/>
</a>
</g>
</g>
<!-- Node7 -->
<g id="Node000007" class="node">
<title>Node7</title>
<g id="a_Node000007"><a xlink:href="../../de/db8/namespace_slic3r.html#a5694f5c4f83b1e920691b0aab630cabc" target="_top" xlink:title=" ">
<polygon fill="white" stroke="#666666" points="422.62,-30.5 306.88,-30.5 306.88,0 422.62,0 422.62,-30.5"/>
<text text-anchor="start" x="314.88" y="-17" font-family="Helvetica,sans-Serif" font-size="10.00">Slic3r::get_print_object</text>
<text text-anchor="middle" x="364.75" y="-5.75" font-family="Helvetica,sans-Serif" font-size="10.00">_extrusions_extents</text>
</a>
</g>
</g>
<!-- Node1&#45;&gt;Node7 -->
<g id="edge6_Node000001_Node000007" class="edge">
<title>Node1&#45;&gt;Node7</title>
<g id="a_edge6_Node000001_Node000007"><a xlink:title=" ">
<path fill="none" stroke="#63b8ff" d="M485.45,-67.3C469.29,-58.47 449.94,-48.37 432,-40.25 424.83,-37.01 417.11,-33.82 409.55,-30.87"/>
<polygon fill="#63b8ff" stroke="#63b8ff" points="483.61,-70.84 494.06,-72.61 487,-64.71 483.61,-70.84"/>
</a>
</g>
</g>
<!-- Node5 -->
<g id="Node000005" class="node">
<title>Node5</title>
<g id="a_Node000005"><a xlink:href="../../dd/dc8/class_slic3r_1_1_g_code.html#ad5ac0f44c2121cf8d09cc7fde2dae045" target="_top" xlink:title=" ">
<polygon fill="white" stroke="#666666" points="261.5,-54.5 162.25,-54.5 162.25,-24 261.5,-24 261.5,-54.5"/>
<text text-anchor="start" x="170.25" y="-41" font-family="Helvetica,sans-Serif" font-size="10.00">Slic3r::GCode::_do</text>
<text text-anchor="middle" x="211.88" y="-29.75" font-family="Helvetica,sans-Serif" font-size="10.00">_export</text>
</a>
</g>
</g>
<!-- Node4&#45;&gt;Node5 -->
<g id="edge4_Node000004_Node000005" class="edge">
<title>Node4&#45;&gt;Node5</title>
<g id="a_edge4_Node000004_Node000005"><a xlink:title=" ">
<path fill="none" stroke="#63b8ff" d="M286.54,-51.46C278.17,-50.07 269.82,-48.69 261.92,-47.38"/>
<polygon fill="#63b8ff" stroke="#63b8ff" points="285.7,-55.03 296.13,-53.21 286.84,-48.12 285.7,-55.03"/>
</a>
</g>
</g>
<!-- Node6 -->
<g id="Node000006" class="node">
<title>Node6</title>
<g id="a_Node000006"><a xlink:href="../../dd/dc8/class_slic3r_1_1_g_code.html#a41ddab6bfd15c1848026271f48485efb" target="_top" xlink:title=" ">
<polygon fill="white" stroke="#666666" points="126.25,-48.88 0,-48.88 0,-29.62 126.25,-29.62 126.25,-48.88"/>
<text text-anchor="middle" x="63.12" y="-35.38" font-family="Helvetica,sans-Serif" font-size="10.00">Slic3r::GCode::do_export</text>
</a>
</g>
</g>
<!-- Node5&#45;&gt;Node6 -->
<g id="edge5_Node000005_Node000006" class="edge">
<title>Node5&#45;&gt;Node6</title>
<g id="a_edge5_Node000005_Node000006"><a xlink:title=" ">
<path fill="none" stroke="#63b8ff" d="M151.16,-39.25C143.07,-39.25 134.75,-39.25 126.61,-39.25"/>
<polygon fill="#63b8ff" stroke="#63b8ff" points="151.01,-42.75 161.01,-39.25 151.01,-35.75 151.01,-42.75"/>
</a>
</g>
</g>
<!-- Node7&#45;&gt;Node5 -->
<g id="edge7_Node000007_Node000005" class="edge">
<title>Node7&#45;&gt;Node5</title>
<g id="a_edge7_Node000007_Node000005"><a xlink:title=" ">
<path fill="none" stroke="#63b8ff" d="M296.13,-26.01C284.5,-27.86 272.62,-29.75 261.61,-31.5"/>
<polygon fill="#63b8ff" stroke="#63b8ff" points="296.38,-29.35 305.71,-24.32 295.28,-22.44 296.38,-29.35"/>
</a>
</g>
</g>
</g>
</svg>
