<?xml version="1.0" encoding="UTF-8" standalone="no"?>
<!DOCTYPE svg PUBLIC "-//W3C//DTD SVG 1.1//EN"
 "http://www.w3.org/Graphics/SVG/1.1/DTD/svg11.dtd">
<!-- Generated by graphviz version 8.0.5 (20230430.1635)
 -->
<!-- Title: Slic3r::reorder_extrusion_paths Pages: 1 -->
<svg width="902pt" height="97pt"
 viewBox="0.00 0.00 902.00 96.50" xmlns="http://www.w3.org/2000/svg" xmlns:xlink="http://www.w3.org/1999/xlink">
<g id="graph0" class="graph" transform="scale(1 1) rotate(0) translate(4 92.5)">
<title>Slic3r::reorder_extrusion_paths</title>
<!-- Node1 -->
<g id="Node000001" class="node">
<title>Node1</title>
<g id="a_Node000001"><a xlink:title=" ">
<polygon fill="#999999" stroke="#666666" points="894,-60.5 772.25,-60.5 772.25,-30 894,-30 894,-60.5"/>
<text text-anchor="start" x="780.25" y="-47" font-family="Helvetica,sans-Serif" font-size="10.00">Slic3r::reorder_extrusion</text>
<text text-anchor="middle" x="833.12" y="-35.75" font-family="Helvetica,sans-Serif" font-size="10.00">_paths</text>
</a>
</g>
</g>
<!-- Node1&#45;&gt;Node1 -->
<g id="edge11_Node000001_Node000001" class="edge">
<title>Node1&#45;&gt;Node1</title>
<g id="a_edge11_Node000001_Node000001"><a xlink:title=" ">
<path fill="none" stroke="#63b8ff" d="M860.32,-71.88C856.08,-75.83 847.01,-78.5 833.12,-78.5 808.44,-78.5 798.99,-70.06 804.77,-60.99"/>
<polygon fill="#63b8ff" stroke="#63b8ff" points="863.9,-72.3 861.48,-61.99 856.94,-71.56 863.9,-72.3"/>
</a>
</g>
</g>
<!-- Node2 -->
<g id="Node000002" class="node">
<title>Node2</title>
<g id="a_Node000002"><a xlink:href="../../de/db8/namespace_slic3r.html#a1bc10cb3104875520e4fa78d98a30a5e" target="_top" xlink:title=" ">
<polygon fill="white" stroke="#666666" points="736.25,-60.5 610,-60.5 610,-30 736.25,-30 736.25,-60.5"/>
<text text-anchor="start" x="618" y="-47" font-family="Helvetica,sans-Serif" font-size="10.00">Slic3r::chain_and_reorder</text>
<text text-anchor="middle" x="673.12" y="-35.75" font-family="Helvetica,sans-Serif" font-size="10.00">_extrusion_paths</text>
</a>
</g>
</g>
<!-- Node1&#45;&gt;Node2 -->
<g id="edge1_Node000001_Node000002" class="edge">
<title>Node1&#45;&gt;Node2</title>
<g id="a_edge1_Node000001_Node000002"><a xlink:title=" ">
<path fill="none" stroke="#63b8ff" d="M761.21,-45.25C752.97,-45.25 744.61,-45.25 736.5,-45.25"/>
<polygon fill="#63b8ff" stroke="#63b8ff" points="760.94,-48.75 770.94,-45.25 760.94,-41.75 760.94,-48.75"/>
</a>
</g>
</g>
<!-- Node2&#45;&gt;Node2 -->
<g id="edge2_Node000002_Node000002" class="edge">
<title>Node2&#45;&gt;Node2</title>
<g id="a_edge2_Node000002_Node000002"><a xlink:title=" ">
<path fill="none" stroke="#63b8ff" d="M700.32,-71.88C696.08,-75.83 687.01,-78.5 673.12,-78.5 648.44,-78.5 638.99,-70.06 644.77,-60.99"/>
<polygon fill="#63b8ff" stroke="#63b8ff" points="703.9,-72.3 701.48,-61.99 696.94,-71.56 703.9,-72.3"/>
</a>
</g>
</g>
<!-- Node3 -->
<g id="Node000003" class="node">
<title>Node3</title>
<g id="a_Node000003"><a xlink:href="../../de/db8/namespace_slic3r.html#a9dad6cf1cfcb550bb371dff1fb6fd384" target="_top" xlink:title=" ">
<polygon fill="white" stroke="#666666" points="574,-85.88 441.75,-85.88 441.75,-66.62 574,-66.62 574,-85.88"/>
<text text-anchor="middle" x="507.88" y="-72.38" font-family="Helvetica,sans-Serif" font-size="10.00">Slic3r::traverse_extrusions</text>
</a>
</g>
</g>
<!-- Node2&#45;&gt;Node3 -->
<g id="edge3_Node000002_Node000003" class="edge">
<title>Node2&#45;&gt;Node3</title>
<g id="a_edge3_Node000002_Node000003"><a xlink:title=" ">
<path fill="none" stroke="#63b8ff" d="M599.47,-59.05C586.9,-61.43 574.03,-63.88 562.1,-66.14"/>
<polygon fill="#63b8ff" stroke="#63b8ff" points="599.77,-62.36 608.94,-57.06 598.46,-55.49 599.77,-62.36"/>
</a>
</g>
</g>
<!-- Node7 -->
<g id="Node000007" class="node">
<title>Node7</title>
<g id="a_Node000007"><a xlink:href="../../de/db8/namespace_slic3r.html#af43e0fab5b2b1d84e6b0c1bb57f61ee2" target="_top" xlink:title=" ">
<polygon fill="white" stroke="#666666" points="563.12,-30.5 452.62,-30.5 452.62,0 563.12,0 563.12,-30.5"/>
<text text-anchor="start" x="460.62" y="-17" font-family="Helvetica,sans-Serif" font-size="10.00">Slic3r::traverse_loops</text>
<text text-anchor="middle" x="507.88" y="-5.75" font-family="Helvetica,sans-Serif" font-size="10.00">_classic</text>
</a>
</g>
</g>
<!-- Node2&#45;&gt;Node7 -->
<g id="edge7_Node000002_Node000007" class="edge">
<title>Node2&#45;&gt;Node7</title>
<g id="a_edge7_Node000002_Node000007"><a xlink:title=" ">
<path fill="none" stroke="#63b8ff" d="M599.41,-31.89C587.31,-29.66 574.95,-27.39 563.41,-25.27"/>
<polygon fill="#63b8ff" stroke="#63b8ff" points="598.47,-35.46 608.94,-33.82 599.74,-28.57 598.47,-35.46"/>
</a>
</g>
</g>
<!-- Node4 -->
<g id="Node000004" class="node">
<title>Node4</title>
<g id="a_Node000004"><a xlink:href="../../d7/d1d/namespace_slic3r_1_1_perimeter_generator.html#addff59b1baf2226279fa4bf543740526" target="_top" xlink:title=" ">
<polygon fill="white" stroke="#666666" points="405.75,-88.5 274.25,-88.5 274.25,-58 405.75,-58 405.75,-88.5"/>
<text text-anchor="start" x="282.25" y="-75" font-family="Helvetica,sans-Serif" font-size="10.00">Slic3r::PerimeterGenerator</text>
<text text-anchor="middle" x="340" y="-63.75" font-family="Helvetica,sans-Serif" font-size="10.00">::process_arachne</text>
</a>
</g>
</g>
<!-- Node3&#45;&gt;Node4 -->
<g id="edge4_Node000003_Node000004" class="edge">
<title>Node3&#45;&gt;Node4</title>
<g id="a_edge4_Node000003_Node000004"><a xlink:title=" ">
<path fill="none" stroke="#63b8ff" d="M430.34,-74.87C422.23,-74.72 414.04,-74.57 406.08,-74.43"/>
<polygon fill="#63b8ff" stroke="#63b8ff" points="430.26,-78.38 440.32,-75.06 430.38,-71.38 430.26,-78.38"/>
</a>
</g>
</g>
<!-- Node5 -->
<g id="Node000005" class="node">
<title>Node5</title>
<g id="a_Node000005"><a xlink:href="../../dd/d90/class_slic3r_1_1_layer_region.html#a7f8ba90770f4cfeb3e0f0fe9606e7376" target="_top" xlink:title=" ">
<polygon fill="white" stroke="#666666" points="238.25,-60.5 136.75,-60.5 136.75,-30 238.25,-30 238.25,-60.5"/>
<text text-anchor="start" x="144.75" y="-47" font-family="Helvetica,sans-Serif" font-size="10.00">Slic3r::LayerRegion</text>
<text text-anchor="middle" x="187.5" y="-35.75" font-family="Helvetica,sans-Serif" font-size="10.00">::make_perimeters</text>
</a>
</g>
</g>
<!-- Node4&#45;&gt;Node5 -->
<g id="edge5_Node000004_Node000005" class="edge">
<title>Node4&#45;&gt;Node5</title>
<g id="a_edge5_Node000004_Node000005"><a xlink:title=" ">
<path fill="none" stroke="#63b8ff" d="M263.19,-59.15C254.75,-57.57 246.31,-56 238.31,-54.52"/>
<polygon fill="#63b8ff" stroke="#63b8ff" points="262.39,-62.74 272.86,-61.13 263.67,-55.86 262.39,-62.74"/>
</a>
</g>
</g>
<!-- Node6 -->
<g id="Node000006" class="node">
<title>Node6</title>
<g id="a_Node000006"><a xlink:href="../../d1/d68/class_slic3r_1_1_layer.html#ade692e794d3a272a9b6985022eea64e9" target="_top" xlink:title=" ">
<polygon fill="white" stroke="#666666" points="100.75,-60.5 0,-60.5 0,-30 100.75,-30 100.75,-60.5"/>
<text text-anchor="start" x="8" y="-47" font-family="Helvetica,sans-Serif" font-size="10.00">Slic3r::Layer::make</text>
<text text-anchor="middle" x="50.38" y="-35.75" font-family="Helvetica,sans-Serif" font-size="10.00">_perimeters</text>
</a>
</g>
</g>
<!-- Node5&#45;&gt;Node6 -->
<g id="edge6_Node000005_Node000006" class="edge">
<title>Node5&#45;&gt;Node6</title>
<g id="a_edge6_Node000005_Node000006"><a xlink:title=" ">
<path fill="none" stroke="#63b8ff" d="M125.82,-45.25C117.55,-45.25 109.15,-45.25 101.1,-45.25"/>
<polygon fill="#63b8ff" stroke="#63b8ff" points="125.57,-48.75 135.57,-45.25 125.57,-41.75 125.57,-48.75"/>
</a>
</g>
</g>
<!-- Node7&#45;&gt;Node7 -->
<g id="edge10_Node000007_Node000007" class="edge">
<title>Node7&#45;&gt;Node7</title>
<g id="a_edge10_Node000007_Node000007"><a xlink:title=" ">
<path fill="none" stroke="#63b8ff" d="M535.96,-41.88C531.58,-45.83 522.22,-48.5 507.88,-48.5 482.38,-48.5 472.62,-40.06 478.59,-30.99"/>
<polygon fill="#63b8ff" stroke="#63b8ff" points="539.55,-42.31 537.16,-31.99 532.59,-41.55 539.55,-42.31"/>
</a>
</g>
</g>
<!-- Node8 -->
<g id="Node000008" class="node">
<title>Node8</title>
<g id="a_Node000008"><a xlink:href="../../d7/d1d/namespace_slic3r_1_1_perimeter_generator.html#ad284d87ff9b979b90cbc47cc592d101a" target="_top" xlink:title=" ">
<polygon fill="white" stroke="#666666" points="405.75,-36.5 274.25,-36.5 274.25,-6 405.75,-6 405.75,-36.5"/>
<text text-anchor="start" x="282.25" y="-23" font-family="Helvetica,sans-Serif" font-size="10.00">Slic3r::PerimeterGenerator</text>
<text text-anchor="middle" x="340" y="-11.75" font-family="Helvetica,sans-Serif" font-size="10.00">::process_classic</text>
</a>
</g>
</g>
<!-- Node7&#45;&gt;Node8 -->
<g id="edge8_Node000007_Node000008" class="edge">
<title>Node7&#45;&gt;Node8</title>
<g id="a_edge8_Node000007_Node000008"><a xlink:title=" ">
<path fill="none" stroke="#63b8ff" d="M441.57,-17.61C429.92,-18.03 417.78,-18.47 406.13,-18.89"/>
<polygon fill="#63b8ff" stroke="#63b8ff" points="441.69,-21.07 451.56,-17.21 441.44,-14.08 441.69,-21.07"/>
</a>
</g>
</g>
<!-- Node8&#45;&gt;Node5 -->
<g id="edge9_Node000008_Node000005" class="edge">
<title>Node8&#45;&gt;Node5</title>
<g id="a_edge9_Node000008_Node000005"><a xlink:title=" ">
<path fill="none" stroke="#63b8ff" d="M263.19,-33.34C254.75,-34.69 246.31,-36.03 238.31,-37.31"/>
<polygon fill="#63b8ff" stroke="#63b8ff" points="263.54,-36.67 272.86,-31.64 262.44,-29.76 263.54,-36.67"/>
</a>
</g>
</g>
</g>
</svg>
