<?xml version="1.0" encoding="UTF-8" standalone="no"?>
<!DOCTYPE svg PUBLIC "-//W3C//DTD SVG 1.1//EN"
 "http://www.w3.org/Graphics/SVG/1.1/DTD/svg11.dtd">
<!-- Generated by graphviz version 8.0.5 (20230430.1635)
 -->
<!-- Title: Slic3r::make_fill_lines Pages: 1 -->
<svg width="422pt" height="186pt"
 viewBox="0.00 0.00 422.00 185.50" xmlns="http://www.w3.org/2000/svg" xmlns:xlink="http://www.w3.org/1999/xlink">

<svg id="main" version="1.1" xmlns="http://www.w3.org/2000/svg" xmlns:xlink="http://www.w3.org/1999/xlink" xml:space="preserve" onload="init(evt)">
<style type="text/css"><![CDATA[
.node, .edge {opacity: 0.7;}
.node.selected, .edge.selected {opacity: 1;}
.edge:hover path { stroke: red; }
.edge:hover polygon { stroke: red; fill: red; }
]]></style>
<script type="application/ecmascript" xlink:href="../../svg.min.js"/>
<svg id="graph" class="graph">
<g id="graph0" class="graph" transform="scale(1 1) rotate(0) translate(4 181.5)">
<title>Slic3r::make_fill_lines</title>
<!-- Node1 -->
<g id="Node000001" class="node">
<title>Node1</title>
<g id="a_Node000001"><a xlink:title=" ">
<polygon fill="#999999" stroke="#666666" points="414,-121.88 302.75,-121.88 302.75,-102.62 414,-102.62 414,-121.88"/>
<text text-anchor="middle" x="358.38" y="-108.38" font-family="Helvetica,sans-Serif" font-size="10.00">Slic3r::make_fill_lines</text>
</a>
</g>
</g>
<!-- Node2 -->
<g id="Node000002" class="node">
<title>Node2</title>
<g id="a_Node000002"><a xlink:href="../../dd/d10/class_slic3r_1_1_fill_support_base.html#a564a9a222f647edd8dca54be0da6bc58" target="_top" xlink:title=" ">
<polygon fill="white" stroke="#666666" points="258.88,-152.5 143.12,-152.5 143.12,-122 258.88,-122 258.88,-152.5"/>
<text text-anchor="start" x="151.12" y="-139" font-family="Helvetica,sans-Serif" font-size="10.00">Slic3r::FillSupportBase</text>
<text text-anchor="middle" x="201" y="-127.75" font-family="Helvetica,sans-Serif" font-size="10.00">::fill_surface</text>
</a>
</g>
</g>
<!-- Node1&#45;&gt;Node2 -->
<g id="edge1_Node000001_Node000002" class="edge">
<title>Node1&#45;&gt;Node2</title>
<g id="a_edge1_Node000001_Node000002"><a xlink:title=" ">
<path fill="none" stroke="#63b8ff" d="M291.87,-122.79C281.01,-124.54 269.82,-126.34 259.18,-128.05"/>
<polygon fill="#63b8ff" stroke="#63b8ff" points="292.28,-126.11 301.6,-121.06 291.17,-119.2 292.28,-126.11"/>
</a>
</g>
</g>
<!-- Node3 -->
<g id="Node000003" class="node">
<title>Node3</title>
<g id="a_Node000003"><a xlink:href="../../db/d2e/class_slic3r_1_1_fill_rectilinear.html#ae29c61f885a0ec23c2785460983893de" target="_top" xlink:title=" ">
<polygon fill="white" stroke="#666666" points="266.75,-103.5 135.25,-103.5 135.25,-73 266.75,-73 266.75,-103.5"/>
<text text-anchor="start" x="143.25" y="-90" font-family="Helvetica,sans-Serif" font-size="10.00">Slic3r::FillRectilinear</text>
<text text-anchor="middle" x="201" y="-78.75" font-family="Helvetica,sans-Serif" font-size="10.00">::fill_surface_by_multilines</text>
</a>
</g>
</g>
<!-- Node1&#45;&gt;Node3 -->
<g id="edge2_Node000001_Node000003" class="edge">
<title>Node1&#45;&gt;Node3</title>
<g id="a_edge2_Node000001_Node000003"><a xlink:title=" ">
<path fill="none" stroke="#63b8ff" d="M291.96,-102.15C283.77,-100.88 275.39,-99.59 267.2,-98.32"/>
<polygon fill="#63b8ff" stroke="#63b8ff" points="291.18,-105.72 301.6,-103.79 292.25,-98.8 291.18,-105.72"/>
</a>
</g>
</g>
<!-- Node4 -->
<g id="Node000004" class="node">
<title>Node4</title>
<g id="a_Node000004"><a xlink:href="../../dd/d8e/class_slic3r_1_1_fill_grid.html#a53724d9b506154c449126e27287b0096" target="_top" xlink:title=" ">
<polygon fill="white" stroke="#666666" points="96.25,-177.5 3,-177.5 3,-147 96.25,-147 96.25,-177.5"/>
<text text-anchor="start" x="11" y="-164" font-family="Helvetica,sans-Serif" font-size="10.00">Slic3r::FillGrid::fill</text>
<text text-anchor="middle" x="49.62" y="-152.75" font-family="Helvetica,sans-Serif" font-size="10.00">_surface</text>
</a>
</g>
</g>
<!-- Node3&#45;&gt;Node4 -->
<g id="edge3_Node000003_Node000004" class="edge">
<title>Node3&#45;&gt;Node4</title>
<g id="a_edge3_Node000003_Node000004"><a xlink:title=" ">
<path fill="none" stroke="#63b8ff" d="M145.53,-108.26C142.02,-109.87 138.56,-111.53 135.25,-113.25 118.18,-122.1 115.83,-127.5 99.25,-137.25 93.85,-140.42 88,-143.62 82.3,-146.62"/>
<polygon fill="#63b8ff" stroke="#63b8ff" points="146.76,-111.11 154.54,-103.92 143.97,-104.69 146.76,-111.11"/>
</a>
</g>
</g>
<!-- Node5 -->
<g id="Node000005" class="node">
<title>Node5</title>
<g id="a_Node000005"><a xlink:href="../../db/d1a/class_slic3r_1_1_fill_triangles.html#ab24e4050d8ff1bb9d2ed5241108eedaa" target="_top" xlink:title=" ">
<polygon fill="white" stroke="#666666" points="99.25,-128.5 0,-128.5 0,-98 99.25,-98 99.25,-128.5"/>
<text text-anchor="start" x="8" y="-115" font-family="Helvetica,sans-Serif" font-size="10.00">Slic3r::FillTriangles</text>
<text text-anchor="middle" x="49.62" y="-103.75" font-family="Helvetica,sans-Serif" font-size="10.00">::fill_surface</text>
</a>
</g>
</g>
<!-- Node3&#45;&gt;Node5 -->
<g id="edge4_Node000003_Node000005" class="edge">
<title>Node3&#45;&gt;Node5</title>
<g id="a_edge4_Node000003_Node000005"><a xlink:title=" ">
<path fill="none" stroke="#63b8ff" d="M124.22,-100.93C115.75,-102.35 107.31,-103.76 99.32,-105.1"/>
<polygon fill="#63b8ff" stroke="#63b8ff" points="124.63,-104.25 133.92,-99.14 123.48,-97.34 124.63,-104.25"/>
</a>
</g>
</g>
<!-- Node6 -->
<g id="Node000006" class="node">
<title>Node6</title>
<g id="a_Node000006"><a xlink:href="../../d4/dfa/class_slic3r_1_1_fill_stars.html#a8cd642a96db397bf82be795cfdd4844a" target="_top" xlink:title=" ">
<polygon fill="white" stroke="#666666" points="94,-79.5 5.25,-79.5 5.25,-49 94,-49 94,-79.5"/>
<text text-anchor="start" x="13.25" y="-66" font-family="Helvetica,sans-Serif" font-size="10.00">Slic3r::FillStars::</text>
<text text-anchor="middle" x="49.62" y="-54.75" font-family="Helvetica,sans-Serif" font-size="10.00">fill_surface</text>
</a>
</g>
</g>
<!-- Node3&#45;&gt;Node6 -->
<g id="edge5_Node000003_Node000006" class="edge">
<title>Node3&#45;&gt;Node6</title>
<g id="a_edge5_Node000003_Node000006"><a xlink:title=" ">
<path fill="none" stroke="#63b8ff" d="M124.28,-76.08C114.05,-74.44 103.85,-72.8 94.44,-71.29"/>
<polygon fill="#63b8ff" stroke="#63b8ff" points="123.49,-79.66 133.92,-77.79 124.6,-72.75 123.49,-79.66"/>
</a>
</g>
</g>
<!-- Node7 -->
<g id="Node000007" class="node">
<title>Node7</title>
<g id="a_Node000007"><a xlink:href="../../db/dfb/class_slic3r_1_1_fill_cubic.html#a259d319fd657f1654d0619c400b7b933" target="_top" xlink:title=" ">
<polygon fill="white" stroke="#666666" points="95.12,-30.5 4.12,-30.5 4.12,0 95.12,0 95.12,-30.5"/>
<text text-anchor="start" x="12.12" y="-17" font-family="Helvetica,sans-Serif" font-size="10.00">Slic3r::FillCubic::</text>
<text text-anchor="middle" x="49.62" y="-5.75" font-family="Helvetica,sans-Serif" font-size="10.00">fill_surface</text>
</a>
</g>
</g>
<!-- Node3&#45;&gt;Node7 -->
<g id="edge6_Node000003_Node000007" class="edge">
<title>Node3&#45;&gt;Node7</title>
<g id="a_edge6_Node000003_Node000007"><a xlink:title=" ">
<path fill="none" stroke="#63b8ff" d="M158.09,-67.77C134.17,-56.08 104.66,-41.66 82.62,-30.88"/>
<polygon fill="#63b8ff" stroke="#63b8ff" points="156.43,-71.34 166.96,-72.59 159.51,-65.05 156.43,-71.34"/>
</a>
</g>
</g>
</g>
</svg>
</svg>

<style type='text/css'>
<![CDATA[
[data-mouse-over-selected='false'] { opacity: 0.7; }
[data-mouse-over-selected='true']  { opacity: 1.0; }
]]>
</style>
<script type="application/ecmascript"><![CDATA[
document.addEventListener('DOMContentLoaded', (event) => {
  highlightEdges();
  highlightAdjacentNodes();
});
]]></script>
</svg>
