<?xml version="1.0" encoding="UTF-8" standalone="no"?>
<!DOCTYPE svg PUBLIC "-//W3C//DTD SVG 1.1//EN"
 "http://www.w3.org/Graphics/SVG/1.1/DTD/svg11.dtd">
<!-- Generated by graphviz version 8.0.5 (20230430.1635)
 -->
<!-- Title: Slic3r::sys_shapes_dir Pages: 1 -->
<svg width="1076pt" height="347pt"
 viewBox="0.00 0.00 1075.50 346.50" xmlns="http://www.w3.org/2000/svg" xmlns:xlink="http://www.w3.org/1999/xlink">
<g id="graph0" class="graph" transform="scale(1 1) rotate(0) translate(4 342.5)">
<title>Slic3r::sys_shapes_dir</title>
<!-- Node1 -->
<g id="Node000001" class="node">
<title>Node1</title>
<g id="a_Node000001"><a xlink:title=" ">
<polygon fill="#999999" stroke="#666666" points="1067.5,-150.88 952.5,-150.88 952.5,-131.62 1067.5,-131.62 1067.5,-150.88"/>
<text text-anchor="middle" x="1010" y="-137.38" font-family="Helvetica,sans-Serif" font-size="10.00">Slic3r::sys_shapes_dir</text>
</a>
</g>
</g>
<!-- Node2 -->
<g id="Node000002" class="node">
<title>Node2</title>
<g id="a_Node000002"><a xlink:href="../../d9/d45/namespace_slic3r_1_1_g_u_i.html#a90474499ee3c8d62f1c111f193f7f7ff" target="_top" xlink:title=" ">
<polygon fill="white" stroke="#666666" points="913.12,-224.88 813.12,-224.88 813.12,-205.62 913.12,-205.62 913.12,-224.88"/>
<text text-anchor="middle" x="863.12" y="-211.38" font-family="Helvetica,sans-Serif" font-size="10.00">Slic3r::GUI::get_dir</text>
</a>
</g>
</g>
<!-- Node1&#45;&gt;Node2 -->
<g id="edge1_Node000001_Node000002" class="edge">
<title>Node1&#45;&gt;Node2</title>
<g id="a_edge1_Node000001_Node000002"><a xlink:title=" ">
<path fill="none" stroke="#63b8ff" d="M980.01,-156.06C951.46,-170.64 908.63,-192.52 883.82,-205.19"/>
<polygon fill="#63b8ff" stroke="#63b8ff" points="981.15,-158.9 988.46,-151.23 977.96,-152.66 981.15,-158.9"/>
</a>
</g>
</g>
<!-- Node16 -->
<g id="Node000016" class="node">
<title>Node16</title>
<g id="a_Node000016"><a xlink:href="../../de/db8/namespace_slic3r.html#a2b7b7f9791ec295d972681ba60fb586d" target="_top" xlink:title=" ">
<polygon fill="white" stroke="#666666" points="916.5,-98.88 809.75,-98.88 809.75,-79.62 916.5,-79.62 916.5,-98.88"/>
<text text-anchor="middle" x="863.12" y="-85.38" font-family="Helvetica,sans-Serif" font-size="10.00">Slic3r::is_shapes_dir</text>
</a>
</g>
</g>
<!-- Node1&#45;&gt;Node16 -->
<g id="edge18_Node000001_Node000016" class="edge">
<title>Node1&#45;&gt;Node16</title>
<g id="a_edge18_Node000001_Node000016"><a xlink:title=" ">
<path fill="none" stroke="#63b8ff" d="M970.92,-127.58C946.15,-118.69 914.4,-107.29 891.97,-99.25"/>
<polygon fill="#63b8ff" stroke="#63b8ff" points="969.47,-131.14 980.07,-131.22 971.84,-124.55 969.47,-131.14"/>
</a>
</g>
</g>
<!-- Node3 -->
<g id="Node000003" class="node">
<title>Node3</title>
<g id="a_Node000003"><a xlink:href="../../d4/d4d/class_slic3r_1_1_g_u_i_1_1_gallery_dialog.html#aa8676ed4f367aa92d88a7a57fe155a39" target="_top" xlink:title=" ">
<polygon fill="white" stroke="#666666" points="773.75,-252.5 644.5,-252.5 644.5,-222 773.75,-222 773.75,-252.5"/>
<text text-anchor="start" x="652.5" y="-239" font-family="Helvetica,sans-Serif" font-size="10.00">Slic3r::GUI::GalleryDialog</text>
<text text-anchor="middle" x="709.12" y="-227.75" font-family="Helvetica,sans-Serif" font-size="10.00">::change_thumbnail</text>
</a>
</g>
</g>
<!-- Node2&#45;&gt;Node3 -->
<g id="edge2_Node000002_Node000003" class="edge">
<title>Node2&#45;&gt;Node3</title>
<g id="a_edge2_Node000002_Node000003"><a xlink:title=" ">
<path fill="none" stroke="#63b8ff" d="M802.17,-223.93C792.98,-225.26 783.46,-226.64 774.18,-227.98"/>
<polygon fill="#63b8ff" stroke="#63b8ff" points="802.38,-227.29 811.77,-222.39 801.38,-220.36 802.38,-227.29"/>
</a>
</g>
</g>
<!-- Node4 -->
<g id="Node000004" class="node">
<title>Node4</title>
<g id="a_Node000004"><a xlink:href="../../d4/d4d/class_slic3r_1_1_g_u_i_1_1_gallery_dialog.html#a4b7d6a770202bf6bff368459d16055bd" target="_top" xlink:title=" ">
<polygon fill="white" stroke="#666666" points="608.5,-171.5 479.25,-171.5 479.25,-141 608.5,-141 608.5,-171.5"/>
<text text-anchor="start" x="487.25" y="-158" font-family="Helvetica,sans-Serif" font-size="10.00">Slic3r::GUI::GalleryDialog</text>
<text text-anchor="middle" x="543.88" y="-146.75" font-family="Helvetica,sans-Serif" font-size="10.00">::del_custom_shapes</text>
</a>
</g>
</g>
<!-- Node2&#45;&gt;Node4 -->
<g id="edge3_Node000002_Node000004" class="edge">
<title>Node2&#45;&gt;Node4</title>
<g id="a_edge3_Node000002_Node000004"><a xlink:title=" ">
<path fill="none" stroke="#63b8ff" d="M802.22,-204.11C746.98,-193.84 665.22,-178.63 608.74,-168.13"/>
<polygon fill="#63b8ff" stroke="#63b8ff" points="801.43,-207.71 811.9,-206.1 802.71,-200.83 801.43,-207.71"/>
</a>
</g>
</g>
<!-- Node6 -->
<g id="Node000006" class="node">
<title>Node6</title>
<g id="a_Node000006"><a xlink:href="../../d9/d45/namespace_slic3r_1_1_g_u_i.html#a0f7fd0f6ac5bb370411331e8de46f1ce" target="_top" xlink:title=" ">
<polygon fill="white" stroke="#666666" points="771.12,-289.88 647.12,-289.88 647.12,-270.62 771.12,-270.62 771.12,-289.88"/>
<text text-anchor="middle" x="709.12" y="-276.38" font-family="Helvetica,sans-Serif" font-size="10.00">Slic3r::GUI::get_dir_path</text>
</a>
</g>
</g>
<!-- Node2&#45;&gt;Node6 -->
<g id="edge5_Node000002_Node000006" class="edge">
<title>Node2&#45;&gt;Node6</title>
<g id="a_edge5_Node000002_Node000006"><a xlink:title=" ">
<path fill="none" stroke="#63b8ff" d="M835.9,-230.58C818.64,-240.24 795.32,-252.51 773.75,-261.25 765.63,-264.54 756.72,-267.55 748.21,-270.16"/>
<polygon fill="#63b8ff" stroke="#63b8ff" points="837.34,-233.21 844.31,-225.23 833.89,-227.13 837.34,-233.21"/>
</a>
</g>
</g>
<!-- Node13 -->
<g id="Node000013" class="node">
<title>Node13</title>
<g id="a_Node000013"><a xlink:href="../../d4/d4d/class_slic3r_1_1_g_u_i_1_1_gallery_dialog.html#a64caf110b62635efadd1ccd6c30ea397" target="_top" xlink:title=" ">
<polygon fill="white" stroke="#666666" points="608.5,-220.5 479.25,-220.5 479.25,-190 608.5,-190 608.5,-220.5"/>
<text text-anchor="start" x="487.25" y="-207" font-family="Helvetica,sans-Serif" font-size="10.00">Slic3r::GUI::GalleryDialog</text>
<text text-anchor="middle" x="543.88" y="-195.75" font-family="Helvetica,sans-Serif" font-size="10.00">::load_label_icon_list</text>
</a>
</g>
</g>
<!-- Node2&#45;&gt;Node13 -->
<g id="edge17_Node000002_Node000013" class="edge">
<title>Node2&#45;&gt;Node13</title>
<g id="a_edge17_Node000002_Node000013"><a xlink:title=" ">
<path fill="none" stroke="#63b8ff" d="M802.22,-213.36C746.98,-211.62 665.22,-209.04 608.74,-207.26"/>
<polygon fill="#63b8ff" stroke="#63b8ff" points="801.8,-216.88 811.9,-213.7 802.02,-209.89 801.8,-216.88"/>
</a>
</g>
</g>
<!-- Node14 -->
<g id="Node000014" class="node">
<title>Node14</title>
<g id="a_Node000014"><a xlink:href="../../d4/d4d/class_slic3r_1_1_g_u_i_1_1_gallery_dialog.html#afa578e08e9c003b38010d12c54d4232b" target="_top" xlink:title=" ">
<polygon fill="white" stroke="#666666" points="773.75,-338.5 644.5,-338.5 644.5,-308 773.75,-308 773.75,-338.5"/>
<text text-anchor="start" x="652.5" y="-325" font-family="Helvetica,sans-Serif" font-size="10.00">Slic3r::GUI::GalleryDialog</text>
<text text-anchor="middle" x="709.12" y="-313.75" font-family="Helvetica,sans-Serif" font-size="10.00">::load_files</text>
</a>
</g>
</g>
<!-- Node2&#45;&gt;Node14 -->
<g id="edge15_Node000002_Node000014" class="edge">
<title>Node2&#45;&gt;Node14</title>
<g id="a_edge15_Node000002_Node000014"><a xlink:title=" ">
<path fill="none" stroke="#63b8ff" d="M847.01,-233.39C830.62,-252.08 802.87,-280.98 773.75,-299.25 768.85,-302.32 763.49,-305.1 758.04,-307.58"/>
<polygon fill="#63b8ff" stroke="#63b8ff" points="850.24,-236 854.1,-226.13 844.93,-231.44 850.24,-236"/>
</a>
</g>
</g>
<!-- Node5 -->
<g id="Node000005" class="node">
<title>Node5</title>
<g id="a_Node000005"><a xlink:href="../../d4/d4d/class_slic3r_1_1_g_u_i_1_1_gallery_dialog.html#a4d9b4dc1fdad45304e07fa85f177631f" target="_top" xlink:title=" ">
<polygon fill="white" stroke="#666666" points="443.25,-190.5 314,-190.5 314,-160 443.25,-160 443.25,-190.5"/>
<text text-anchor="start" x="322" y="-177" font-family="Helvetica,sans-Serif" font-size="10.00">Slic3r::GUI::GalleryDialog</text>
<text text-anchor="middle" x="378.62" y="-165.75" font-family="Helvetica,sans-Serif" font-size="10.00">::GalleryDialog</text>
</a>
</g>
</g>
<!-- Node4&#45;&gt;Node5 -->
<g id="edge4_Node000004_Node000005" class="edge">
<title>Node4&#45;&gt;Node5</title>
<g id="a_edge4_Node000004_Node000005"><a xlink:title=" ">
<path fill="none" stroke="#63b8ff" d="M468.1,-164.95C459.88,-165.91 451.56,-166.88 443.49,-167.82"/>
<polygon fill="#63b8ff" stroke="#63b8ff" points="468.29,-168.34 477.82,-163.7 467.49,-161.38 468.29,-168.34"/>
</a>
</g>
</g>
<!-- Node7 -->
<g id="Node000007" class="node">
<title>Node7</title>
<g id="a_Node000007"><a xlink:href="../../d4/d4d/class_slic3r_1_1_g_u_i_1_1_gallery_dialog.html#adc2e9167e90cfcd63d41faeb50876780" target="_top" xlink:title=" ">
<polygon fill="white" stroke="#666666" points="608.5,-287.5 479.25,-287.5 479.25,-257 608.5,-257 608.5,-287.5"/>
<text text-anchor="start" x="487.25" y="-274" font-family="Helvetica,sans-Serif" font-size="10.00">Slic3r::GUI::GalleryDialog</text>
<text text-anchor="middle" x="543.88" y="-262.75" font-family="Helvetica,sans-Serif" font-size="10.00">::get_input_files</text>
</a>
</g>
</g>
<!-- Node6&#45;&gt;Node7 -->
<g id="edge6_Node000006_Node000007" class="edge">
<title>Node6&#45;&gt;Node7</title>
<g id="a_edge6_Node000006_Node000007"><a xlink:title=" ">
<path fill="none" stroke="#63b8ff" d="M635.99,-276.71C626.97,-276.27 617.8,-275.82 608.92,-275.39"/>
<polygon fill="#63b8ff" stroke="#63b8ff" points="635.71,-280.25 645.87,-277.25 636.06,-273.26 635.71,-280.25"/>
</a>
</g>
</g>
<!-- Node6&#45;&gt;Node13 -->
<g id="edge13_Node000006_Node000013" class="edge">
<title>Node6&#45;&gt;Node13</title>
<g id="a_edge13_Node000006_Node000013"><a xlink:title=" ">
<path fill="none" stroke="#63b8ff" d="M659.08,-266.81C654.1,-265.09 649.16,-263.23 644.5,-261.25 617.65,-249.86 588.79,-233.09 569.07,-220.87"/>
<polygon fill="#63b8ff" stroke="#63b8ff" points="657.69,-270.36 668.28,-270.15 659.87,-263.71 657.69,-270.36"/>
</a>
</g>
</g>
<!-- Node8 -->
<g id="Node000008" class="node">
<title>Node8</title>
<g id="a_Node000008"><a xlink:href="../../d3/d17/class_slic3r_1_1_g_u_i_1_1_main_frame.html#a58d3512e4a5525b5345dde9778dd233e" target="_top" xlink:title=" ">
<polygon fill="white" stroke="#666666" points="278,-238.5 155.5,-238.5 155.5,-208 278,-208 278,-238.5"/>
<text text-anchor="start" x="163.5" y="-225" font-family="Helvetica,sans-Serif" font-size="10.00">Slic3r::GUI::MainFrame</text>
<text text-anchor="middle" x="216.75" y="-213.75" font-family="Helvetica,sans-Serif" font-size="10.00">::init_menubar_as_editor</text>
</a>
</g>
</g>
<!-- Node7&#45;&gt;Node8 -->
<g id="edge7_Node000007_Node000008" class="edge">
<title>Node7&#45;&gt;Node8</title>
<g id="a_edge7_Node000007_Node000008"><a xlink:title=" ">
<path fill="none" stroke="#63b8ff" d="M487.99,-253.49C473.58,-249.18 457.96,-245.05 443.25,-242.25 387.87,-231.7 323.72,-227.01 278.03,-224.92"/>
<polygon fill="#63b8ff" stroke="#63b8ff" points="486.65,-257.05 497.24,-256.64 488.71,-250.36 486.65,-257.05"/>
</a>
</g>
</g>
<!-- Node10 -->
<g id="Node000010" class="node">
<title>Node10</title>
<g id="a_Node000010"><a xlink:href="../../dd/d03/class_slic3r_1_1_g_u_i_1_1_object_list.html#ae33004098566b15e028f907c3b08a15d" target="_top" xlink:title=" ">
<polygon fill="white" stroke="#666666" points="442.5,-293.12 314.75,-293.12 314.75,-251.38 442.5,-251.38 442.5,-293.12"/>
<text text-anchor="start" x="322.75" y="-279.62" font-family="Helvetica,sans-Serif" font-size="10.00">Slic3r::GUI::ObjectList</text>
<text text-anchor="start" x="322.75" y="-268.38" font-family="Helvetica,sans-Serif" font-size="10.00">::load_shape_object_from</text>
<text text-anchor="middle" x="378.62" y="-257.12" font-family="Helvetica,sans-Serif" font-size="10.00">_gallery</text>
</a>
</g>
</g>
<!-- Node7&#45;&gt;Node10 -->
<g id="edge9_Node000007_Node000010" class="edge">
<title>Node7&#45;&gt;Node10</title>
<g id="a_edge9_Node000007_Node000010"><a xlink:title=" ">
<path fill="none" stroke="#63b8ff" d="M467.93,-272.25C459.58,-272.25 451.14,-272.25 442.96,-272.25"/>
<polygon fill="#63b8ff" stroke="#63b8ff" points="467.82,-275.75 477.82,-272.25 467.82,-268.75 467.82,-275.75"/>
</a>
</g>
</g>
<!-- Node9 -->
<g id="Node000009" class="node">
<title>Node9</title>
<g id="a_Node000009"><a xlink:href="../../d3/d17/class_slic3r_1_1_g_u_i_1_1_main_frame.html#a5eeef0e8564db1d3764da47c6d11344a" target="_top" xlink:title=" ">
<polygon fill="white" stroke="#666666" points="119.5,-238.5 0,-238.5 0,-208 119.5,-208 119.5,-238.5"/>
<text text-anchor="start" x="8" y="-225" font-family="Helvetica,sans-Serif" font-size="10.00">Slic3r::GUI::MainFrame</text>
<text text-anchor="middle" x="59.75" y="-213.75" font-family="Helvetica,sans-Serif" font-size="10.00">::MainFrame</text>
</a>
</g>
</g>
<!-- Node8&#45;&gt;Node9 -->
<g id="edge8_Node000008_Node000009" class="edge">
<title>Node8&#45;&gt;Node9</title>
<g id="a_edge8_Node000008_Node000009"><a xlink:title=" ">
<path fill="none" stroke="#63b8ff" d="M144.62,-223.25C136.36,-223.25 128.01,-223.25 119.94,-223.25"/>
<polygon fill="#63b8ff" stroke="#63b8ff" points="144.38,-226.75 154.38,-223.25 144.38,-219.75 144.38,-226.75"/>
</a>
</g>
</g>
<!-- Node10&#45;&gt;Node8 -->
<g id="edge10_Node000010_Node000008" class="edge">
<title>Node10&#45;&gt;Node8</title>
<g id="a_edge10_Node000010_Node000008"><a xlink:title=" ">
<path fill="none" stroke="#63b8ff" d="M304.07,-249.71C292.19,-246.07 280.12,-242.37 268.92,-238.93"/>
<polygon fill="#63b8ff" stroke="#63b8ff" points="302.85,-253.3 313.44,-252.88 304.9,-246.61 302.85,-253.3"/>
</a>
</g>
</g>
<!-- Node10&#45;&gt;Node10 -->
<g id="edge11_Node000010_Node000010" class="edge">
<title>Node10&#45;&gt;Node10</title>
<g id="a_edge11_Node000010_Node000010"><a xlink:title=" ">
<path fill="none" stroke="#63b8ff" d="M405.63,-303.9C401.14,-308.23 392.14,-311.12 378.62,-311.12 355.86,-311.12 345.9,-302.92 348.75,-293.44"/>
<polygon fill="#63b8ff" stroke="#63b8ff" points="409.23,-305.01 408.5,-294.44 402.48,-303.16 409.23,-305.01"/>
</a>
</g>
</g>
<!-- Node11 -->
<g id="Node000011" class="node">
<title>Node11</title>
<g id="a_Node000011"><a xlink:href="../../dd/d03/class_slic3r_1_1_g_u_i_1_1_object_list.html#a37f894b24a79e59f49a2fe0bcf150125" target="_top" xlink:title=" ">
<polygon fill="#fff0f0" stroke="red" points="274.25,-287.5 159.25,-287.5 159.25,-257 274.25,-257 274.25,-287.5"/>
<text text-anchor="start" x="167.25" y="-274" font-family="Helvetica,sans-Serif" font-size="10.00">Slic3r::GUI::ObjectList</text>
<text text-anchor="middle" x="216.75" y="-262.75" font-family="Helvetica,sans-Serif" font-size="10.00">::load_subobject</text>
</a>
</g>
</g>
<!-- Node10&#45;&gt;Node11 -->
<g id="edge12_Node000010_Node000011" class="edge">
<title>Node10&#45;&gt;Node11</title>
<g id="a_edge12_Node000010_Node000011"><a xlink:title=" ">
<path fill="none" stroke="#63b8ff" d="M303.52,-272.25C293.77,-272.25 283.91,-272.25 274.51,-272.25"/>
<polygon fill="#63b8ff" stroke="#63b8ff" points="303.44,-275.75 313.44,-272.25 303.44,-268.75 303.44,-275.75"/>
</a>
</g>
</g>
<!-- Node13&#45;&gt;Node5 -->
<g id="edge14_Node000013_Node000005" class="edge">
<title>Node13&#45;&gt;Node5</title>
<g id="a_edge14_Node000013_Node000005"><a xlink:title=" ">
<path fill="none" stroke="#63b8ff" d="M468.1,-191.51C459.88,-190 451.56,-188.47 443.49,-186.99"/>
<polygon fill="#63b8ff" stroke="#63b8ff" points="467.35,-195.11 477.82,-193.48 468.62,-188.23 467.35,-195.11"/>
</a>
</g>
</g>
<!-- Node15 -->
<g id="Node000015" class="node">
<title>Node15</title>
<g id="a_Node000015"><a xlink:href="../../d7/df5/class_slic3r_1_1_g_u_i_1_1_gallery_drop_target.html#a62e8dd351de37ba726889a1e56732df5" target="_top" xlink:title=" ">
<polygon fill="white" stroke="#666666" points="605.12,-338.5 482.62,-338.5 482.62,-308 605.12,-308 605.12,-338.5"/>
<text text-anchor="start" x="490.62" y="-325" font-family="Helvetica,sans-Serif" font-size="10.00">Slic3r::GUI::GalleryDrop</text>
<text text-anchor="middle" x="543.88" y="-313.75" font-family="Helvetica,sans-Serif" font-size="10.00">Target::OnDropFiles</text>
</a>
</g>
</g>
<!-- Node14&#45;&gt;Node15 -->
<g id="edge16_Node000014_Node000015" class="edge">
<title>Node14&#45;&gt;Node15</title>
<g id="a_edge16_Node000014_Node000015"><a xlink:title=" ">
<path fill="none" stroke="#63b8ff" d="M633.26,-323.25C623.98,-323.25 614.57,-323.25 605.54,-323.25"/>
<polygon fill="#63b8ff" stroke="#63b8ff" points="633.07,-326.75 643.07,-323.25 633.07,-319.75 633.07,-326.75"/>
</a>
</g>
</g>
<!-- Node17 -->
<g id="Node000017" class="node">
<title>Node17</title>
<g id="a_Node000017"><a xlink:href="../../d4/d88/struct_slic3r_1_1_g_u_i_1_1_plater_1_1priv.html#a4cb86bc341384abf0152a76b9bc75348" target="_top" xlink:title=" ">
<polygon fill="white" stroke="#666666" points="762.88,-30.5 655.38,-30.5 655.38,0 762.88,0 762.88,-30.5"/>
<text text-anchor="start" x="663.38" y="-17" font-family="Helvetica,sans-Serif" font-size="10.00">Slic3r::GUI::Plater</text>
<text text-anchor="middle" x="709.12" y="-5.75" font-family="Helvetica,sans-Serif" font-size="10.00">::priv::get_export_file</text>
</a>
</g>
</g>
<!-- Node16&#45;&gt;Node17 -->
<g id="edge19_Node000016_Node000017" class="edge">
<title>Node16&#45;&gt;Node17</title>
<g id="a_edge19_Node000016_Node000017"><a xlink:title=" ">
<path fill="none" stroke="#63b8ff" d="M836.08,-73.62C818.73,-63.5 795.24,-50.38 773.75,-40.25 766.88,-37.01 759.47,-33.83 752.21,-30.88"/>
<polygon fill="#63b8ff" stroke="#63b8ff" points="834.14,-77.12 844.53,-79.18 837.69,-71.09 834.14,-77.12"/>
</a>
</g>
</g>
<!-- Node18 -->
<g id="Node000018" class="node">
<title>Node18</title>
<g id="a_Node000018"><a xlink:href="../../da/d00/class_slic3r_1_1_app_config.html#aefdb29df3d6f74d268347d2c22dee5f0" target="_top" xlink:title=" ">
<polygon fill="white" stroke="#666666" points="758.38,-128.5 659.88,-128.5 659.88,-98 758.38,-98 758.38,-128.5"/>
<text text-anchor="start" x="667.88" y="-115" font-family="Helvetica,sans-Serif" font-size="10.00">Slic3r::AppConfig::</text>
<text text-anchor="middle" x="709.12" y="-103.75" font-family="Helvetica,sans-Serif" font-size="10.00">get_last_output_dir</text>
</a>
</g>
</g>
<!-- Node16&#45;&gt;Node18 -->
<g id="edge20_Node000016_Node000018" class="edge">
<title>Node16&#45;&gt;Node18</title>
<g id="a_edge20_Node000016_Node000018"><a xlink:title=" ">
<path fill="none" stroke="#63b8ff" d="M798.79,-99.25C785.39,-101.37 771.44,-103.57 758.69,-105.58"/>
<polygon fill="#63b8ff" stroke="#63b8ff" points="799.06,-102.59 808.39,-97.58 797.97,-95.68 799.06,-102.59"/>
</a>
</g>
</g>
<!-- Node20 -->
<g id="Node000020" class="node">
<title>Node20</title>
<g id="a_Node000020"><a xlink:href="../../da/d00/class_slic3r_1_1_app_config.html#a95b68d37a00267e67563c9e10cacf90f" target="_top" xlink:title=" ">
<polygon fill="white" stroke="#666666" points="758.38,-79.5 659.88,-79.5 659.88,-49 758.38,-49 758.38,-79.5"/>
<text text-anchor="start" x="667.88" y="-66" font-family="Helvetica,sans-Serif" font-size="10.00">Slic3r::AppConfig::</text>
<text text-anchor="middle" x="709.12" y="-54.75" font-family="Helvetica,sans-Serif" font-size="10.00">update_skein_dir</text>
</a>
</g>
</g>
<!-- Node16&#45;&gt;Node20 -->
<g id="edge23_Node000016_Node000020" class="edge">
<title>Node16&#45;&gt;Node20</title>
<g id="a_edge23_Node000016_Node000020"><a xlink:title=" ">
<path fill="none" stroke="#63b8ff" d="M798.79,-78.83C785.39,-76.63 771.44,-74.34 758.69,-72.24"/>
<polygon fill="#63b8ff" stroke="#63b8ff" points="797.95,-82.41 808.39,-80.58 799.09,-75.5 797.95,-82.41"/>
</a>
</g>
</g>
<!-- Node19 -->
<g id="Node000019" class="node">
<title>Node19</title>
<g id="a_Node000019"><a xlink:href="../../d7/d21/class_slic3r_1_1_g_u_i_1_1_plater.html#ac8e2aa062c1056b2cf9c291dab330755" target="_top" xlink:title=" ">
<polygon fill="white" stroke="#666666" points="426.75,-131.5 330.5,-131.5 330.5,-101 426.75,-101 426.75,-131.5"/>
<text text-anchor="start" x="338.5" y="-118" font-family="Helvetica,sans-Serif" font-size="10.00">Slic3r::GUI::Plater</text>
<text text-anchor="middle" x="378.62" y="-106.75" font-family="Helvetica,sans-Serif" font-size="10.00">::export_gcode</text>
</a>
</g>
</g>
<!-- Node18&#45;&gt;Node19 -->
<g id="edge21_Node000018_Node000019" class="edge">
<title>Node18&#45;&gt;Node19</title>
<g id="a_edge21_Node000018_Node000019"><a xlink:title=" ">
<path fill="none" stroke="#63b8ff" d="M649.01,-113.79C585.52,-114.37 485.87,-115.28 427.23,-115.82"/>
<polygon fill="#63b8ff" stroke="#63b8ff" points="648.69,-117.28 658.65,-113.69 648.62,-110.28 648.69,-117.28"/>
</a>
</g>
</g>
<!-- Node19&#45;&gt;Node8 -->
<g id="edge22_Node000019_Node000008" class="edge">
<title>Node19&#45;&gt;Node8</title>
<g id="a_edge22_Node000019_Node000008"><a xlink:title=" ">
<path fill="none" stroke="#63b8ff" d="M337.55,-137.19C329.62,-141.63 321.46,-146.44 314,-151.25 286.29,-169.11 256.12,-192.35 237.08,-207.53"/>
<polygon fill="#63b8ff" stroke="#63b8ff" points="338.95,-139.86 346.02,-131.97 335.58,-133.72 338.95,-139.86"/>
</a>
</g>
</g>
</g>
</svg>
