<?xml version="1.0" encoding="UTF-8" standalone="no"?>
<!DOCTYPE svg PUBLIC "-//W3C//DTD SVG 1.1//EN"
 "http://www.w3.org/Graphics/SVG/1.1/DTD/svg11.dtd">
<!-- Generated by graphviz version 8.0.5 (20230430.1635)
 -->
<!-- Title: Slic3r::builtin_pad_cfg Pages: 1 -->
<!--zoomable 765 -->

<svg id="main" version="1.1" xmlns="http://www.w3.org/2000/svg" xmlns:xlink="http://www.w3.org/1999/xlink" xml:space="preserve" onload="init(evt)">
<style type="text/css"><![CDATA[
.node, .edge {opacity: 0.7;}
.node.selected, .edge.selected {opacity: 1;}
.edge:hover path { stroke: red; }
.edge:hover polygon { stroke: red; fill: red; }
]]></style>

<defs>
  <circle id="rim" cx="0" cy="0" r="7"/>
  <circle id="rim2" cx="0" cy="0" r="3.5"/>
  <g id="zoomPlus">
    <use xlink:href="#rim" fill="#404040"><set attributeName="fill" to="#808080" begin="zoomplus.mouseover" end="zoomplus.mouseout"/></use>
    <path d="M-4,0h8M0,-4v8" fill="none" stroke="white" stroke-width="1.5" pointer-events="none"/>
  </g>
  <g id="zoomMin">
    <use xlink:href="#rim" fill="#404040"><set attributeName="fill" to="#808080" begin="zoomminus.mouseover" end="zoomminus.mouseout"/></use>
    <path d="M-4,0h8" fill="none" stroke="white" stroke-width="1.5" pointer-events="none"/>
  </g>
  <g id="arrowUp" transform="translate(30 24)">
    <use xlink:href="#rim"/>
    <path pointer-events="none" fill="none" stroke="white" stroke-width="1.5" d="M0,-3.0v7 M-2.5,-0.5L0,-3.0L2.5,-0.5"/>
  </g>
  <g id="arrowRight" transform="rotate(90) translate(36 -43)">
    <use xlink:href="#rim"/>
    <path pointer-events="none" fill="none" stroke="white" stroke-width="1.5" d="M0,-3.0v7 M-2.5,-0.5L0,-3.0L2.5,-0.5"/>
  </g>
  <g id="arrowDown" transform="rotate(180) translate(-30 -48)">
    <use xlink:href="#rim"/>
    <path pointer-events="none" fill="none" stroke="white" stroke-width="1.5" d="M0,-3.0v7 M-2.5,-0.5L0,-3.0L2.5,-0.5"/>
  </g>
  <g id="arrowLeft" transform="rotate(270) translate(-36 17)">
    <use xlink:href="#rim"/>
    <path pointer-events="none" fill="none" stroke="white" stroke-width="1.5" d="M0,-3.0v7 M-2.5,-0.5L0,-3.0L2.5,-0.5"/>
  </g>
  <g id="resetDef">
    <use xlink:href="#rim2" fill="#404040"><set attributeName="fill" to="#808080" begin="reset.mouseover" end="reset.mouseout"/></use>
  </g>
</defs>
<script type="application/ecmascript">
var viewWidth = 1185;
var viewHeight = 765;
var sectionId = 'dynsection-111';
</script>
<script type="application/ecmascript" xlink:href="../../svg.min.js"/>
<svg id="graph" class="graph">
<g id="viewport">
<title>Slic3r::builtin_pad_cfg</title>
<!-- Node1 -->
<g id="Node000001" class="node">
<title>Node1</title>
<g id="a_Node000001"><a xlink:title=" ">
<polygon fill="#999999" stroke="#666666" points="1177,-254.7 1065,-254.7 1065,-235.45 1177,-235.45 1177,-254.7"/>
<text text-anchor="middle" x="1121" y="-241.2" font-family="Helvetica,sans-Serif" font-size="10.00">Slic3r::builtin_pad_cfg</text>
</a>
</g>
</g>
<!-- Node2 -->
<g id="Node000002" class="node">
<title>Node2</title>
<g id="a_Node000002"><a xlink:href="../../de/db8/namespace_slic3r.html#ad9c06755d2a4a29d4f17766d2231ed96" target="_top" xlink:title=" ">
<polygon fill="white" stroke="#666666" points="1029,-254.7 918.5,-254.7 918.5,-235.45 1029,-235.45 1029,-254.7"/>
<text text-anchor="middle" x="973.75" y="-241.2" font-family="Helvetica,sans-Serif" font-size="10.00">Slic3r::make_pad_cfg</text>
</a>
</g>
</g>
<!-- Node1&#45;&gt;Node2 -->
<g id="edge1_Node000001_Node000002" class="edge">
<title>Node1&#45;&gt;Node2</title>
<g id="a_edge1_Node000001_Node000002"><a xlink:title=" ">
<path fill="none" stroke="#63b8ff" d="M1053.71,-245.08C1045.59,-245.08 1037.36,-245.08 1029.44,-245.08"/>
<polygon fill="#63b8ff" stroke="#63b8ff" points="1053.67,-248.58 1063.67,-245.08 1053.67,-241.58 1053.67,-248.58"/>
</a>
</g>
</g>
<!-- Node3 -->
<g id="Node000003" class="node">
<title>Node3</title>
<g id="a_Node000003"><a xlink:href="../../d6/da3/class_slic3r_1_1_s_l_a_print_1_1_steps.html#aa829e18b4b386301abe4182a1ef8914e" target="_top" xlink:title=" ">
<polygon fill="white" stroke="#666666" points="878.38,-334.33 761.12,-334.33 761.12,-303.83 878.38,-303.83 878.38,-334.33"/>
<text text-anchor="start" x="769.12" y="-320.83" font-family="Helvetica,sans-Serif" font-size="10.00">Slic3r::SLAPrint::Steps</text>
<text text-anchor="middle" x="819.75" y="-309.58" font-family="Helvetica,sans-Serif" font-size="10.00">::generate_pad</text>
</a>
</g>
</g>
<!-- Node2&#45;&gt;Node3 -->
<g id="edge2_Node000002_Node000003" class="edge">
<title>Node2&#45;&gt;Node3</title>
<g id="a_edge2_Node000002_Node000003"><a xlink:title=" ">
<path fill="none" stroke="#63b8ff" d="M946.57,-260.31C928.77,-270.41 904.54,-283.68 882.5,-294.08 875.7,-297.29 868.37,-300.48 861.23,-303.46"/>
<polygon fill="#63b8ff" stroke="#63b8ff" points="947.81,-263.06 954.75,-255.06 944.33,-256.99 947.81,-263.06"/>
</a>
</g>
</g>
<!-- Node4 -->
<g id="Node000004" class="node">
<title>Node4</title>
<g id="a_Node000004"><a xlink:href="../../d1/daf/class_slic3r_1_1_s_l_a_print_object.html#afa341765aec2e08df2f113f98da32dbd" target="_top" xlink:title=" ">
<polygon fill="white" stroke="#666666" points="876.88,-285.33 762.62,-285.33 762.62,-254.83 876.88,-254.83 876.88,-285.33"/>
<text text-anchor="start" x="770.62" y="-271.83" font-family="Helvetica,sans-Serif" font-size="10.00">Slic3r::SLAPrintObject</text>
<text text-anchor="middle" x="819.75" y="-260.58" font-family="Helvetica,sans-Serif" font-size="10.00">::get_elevation</text>
</a>
</g>
</g>
<!-- Node2&#45;&gt;Node4 -->
<g id="edge3_Node000002_Node000004" class="edge">
<title>Node2&#45;&gt;Node4</title>
<g id="a_edge3_Node000002_Node000004"><a xlink:title=" ">
<path fill="none" stroke="#63b8ff" d="M907.48,-255.82C897.37,-257.48 887.01,-259.18 877.12,-260.81"/>
<polygon fill="#63b8ff" stroke="#63b8ff" points="908,-259.11 917.3,-254.03 906.87,-252.2 908,-259.11"/>
</a>
</g>
</g>
<!-- Node62 -->
<g id="Node000062" class="node">
<title>Node62</title>
<g id="a_Node000062"><a xlink:href="../../d6/da3/class_slic3r_1_1_s_l_a_print_1_1_steps.html#a7f4c385f39bb8d76ae35c75066a67bb8" target="_top" xlink:title=" ">
<polygon fill="white" stroke="#666666" points="878.38,-236.33 761.12,-236.33 761.12,-205.83 878.38,-205.83 878.38,-236.33"/>
<text text-anchor="start" x="769.12" y="-222.83" font-family="Helvetica,sans-Serif" font-size="10.00">Slic3r::SLAPrint::Steps</text>
<text text-anchor="middle" x="819.75" y="-211.58" font-family="Helvetica,sans-Serif" font-size="10.00">::support_tree</text>
</a>
</g>
</g>
<!-- Node2&#45;&gt;Node62 -->
<g id="edge43_Node000002_Node000062" class="edge">
<title>Node2&#45;&gt;Node62</title>
<g id="a_edge43_Node000002_Node000062"><a xlink:title=" ">
<path fill="none" stroke="#63b8ff" d="M907.58,-234.79C897.97,-233.27 888.12,-231.72 878.67,-230.22"/>
<polygon fill="#63b8ff" stroke="#63b8ff" points="906.88,-238.38 917.3,-236.48 907.97,-231.47 906.88,-238.38"/>
</a>
</g>
</g>
<!-- Node63 -->
<g id="Node000063" class="node">
<title>Node63</title>
<g id="a_Node000063"><a xlink:href="../../dd/dc9/class_slic3r_1_1_s_l_a_print.html#adfded2cc4f81e2adc7b847081f256e33" target="_top" xlink:title=" ">
<polygon fill="white" stroke="#666666" points="882.5,-187.7 757,-187.7 757,-168.45 882.5,-168.45 882.5,-187.7"/>
<text text-anchor="middle" x="819.75" y="-174.2" font-family="Helvetica,sans-Serif" font-size="10.00">Slic3r::SLAPrint::validate</text>
</a>
</g>
</g>
<!-- Node2&#45;&gt;Node63 -->
<g id="edge44_Node000002_Node000063" class="edge">
<title>Node2&#45;&gt;Node63</title>
<g id="a_edge44_Node000002_Node000063"><a xlink:title=" ">
<path fill="none" stroke="#63b8ff" d="M947.14,-229.77C929.41,-219.6 905.04,-206.44 882.5,-197.08 874.63,-193.81 865.99,-190.81 857.73,-188.2"/>
<polygon fill="#63b8ff" stroke="#63b8ff" points="944.85,-233.07 955.25,-235.07 948.37,-227.02 944.85,-233.07"/>
</a>
</g>
</g>
<!-- Node5 -->
<g id="Node000005" class="node">
<title>Node5</title>
<g id="a_Node000005"><a xlink:href="../../d1/daf/class_slic3r_1_1_s_l_a_print_object.html#aa7a59a0c85fe5430a81515e89ed1e394" target="_top" xlink:title=" ">
<polygon fill="white" stroke="#666666" points="719.88,-381.33 604.88,-381.33 604.88,-350.83 719.88,-350.83 719.88,-381.33"/>
<text text-anchor="start" x="612.88" y="-367.83" font-family="Helvetica,sans-Serif" font-size="10.00">Slic3r::SLAPrintObject</text>
<text text-anchor="middle" x="662.38" y="-356.58" font-family="Helvetica,sans-Serif" font-size="10.00">::get_current_elevation</text>
</a>
</g>
</g>
<!-- Node4&#45;&gt;Node5 -->
<g id="edge4_Node000004_Node000005" class="edge">
<title>Node4&#45;&gt;Node5</title>
<g id="a_edge4_Node000004_Node000005"><a xlink:title=" ">
<path fill="none" stroke="#63b8ff" d="M765.94,-290.35C762.88,-291.87 759.87,-293.45 757,-295.08 728.62,-311.21 699.14,-334.91 681.03,-350.42"/>
<polygon fill="#63b8ff" stroke="#63b8ff" points="767.28,-293.12 774.87,-285.72 764.33,-286.77 767.28,-293.12"/>
</a>
</g>
</g>
<!-- Node51 -->
<g id="Node000051" class="node">
<title>Node51</title>
<g id="a_Node000051"><a xlink:href="../../d6/da3/class_slic3r_1_1_s_l_a_print_1_1_steps.html#a179a990ac34a7afa407aae80882d2b59" target="_top" xlink:title=" ">
<polygon fill="white" stroke="#666666" points="721,-285.33 603.75,-285.33 603.75,-254.83 721,-254.83 721,-285.33"/>
<text text-anchor="start" x="611.75" y="-271.83" font-family="Helvetica,sans-Serif" font-size="10.00">Slic3r::SLAPrint::Steps</text>
<text text-anchor="middle" x="662.38" y="-260.58" font-family="Helvetica,sans-Serif" font-size="10.00">::slice_model</text>
</a>
</g>
</g>
<!-- Node4&#45;&gt;Node51 -->
<g id="edge33_Node000004_Node000051" class="edge">
<title>Node4&#45;&gt;Node51</title>
<g id="a_edge33_Node000004_Node000051"><a xlink:title=" ">
<path fill="none" stroke="#63b8ff" d="M751.48,-270.08C741.47,-270.08 731.23,-270.08 721.43,-270.08"/>
<polygon fill="#63b8ff" stroke="#63b8ff" points="751.22,-273.58 761.22,-270.08 751.22,-266.58 751.22,-273.58"/>
</a>
</g>
</g>
<!-- Node52 -->
<g id="Node000052" class="node">
<title>Node52</title>
<g id="a_Node000052"><a xlink:href="../../d9/d45/namespace_slic3r_1_1_g_u_i.html#a3c86587ac3c54856df30cd0c6544fa55" target="_top" xlink:title=" ">
<polygon fill="white" stroke="#666666" points="716.5,-142.33 608.25,-142.33 608.25,-111.83 716.5,-111.83 716.5,-142.33"/>
<text text-anchor="start" x="616.25" y="-128.83" font-family="Helvetica,sans-Serif" font-size="10.00">Slic3r::GUI::update</text>
<text text-anchor="middle" x="662.38" y="-117.58" font-family="Helvetica,sans-Serif" font-size="10.00">_arrangepoly_slaprint</text>
</a>
</g>
</g>
<!-- Node4&#45;&gt;Node52 -->
<g id="edge34_Node000004_Node000052" class="edge">
<title>Node4&#45;&gt;Node52</title>
<g id="a_edge34_Node000004_Node000052"><a xlink:title=" ">
<path fill="none" stroke="#63b8ff" d="M763.01,-249.18C760.93,-247.88 758.92,-246.52 757,-245.08 718.26,-216.1 686.62,-167.38 672.05,-142.59"/>
<polygon fill="#63b8ff" stroke="#63b8ff" points="761.02,-252.64 771.46,-254.46 764.44,-246.53 761.02,-252.64"/>
</a>
</g>
</g>
<!-- Node6 -->
<g id="Node000006" class="node">
<title>Node6</title>
<g id="a_Node000006"><a xlink:href="../../d6/df8/class_slic3r_1_1_g_u_i_1_1_common_gizmos_data_objects_1_1_selection_info.html#a83aa49be2c941a099008374c4ff7fb09" target="_top" xlink:title=" ">
<polygon fill="white" stroke="#666666" points="557.25,-500.95 413,-500.95 413,-459.2 557.25,-459.2 557.25,-500.95"/>
<text text-anchor="start" x="421" y="-487.45" font-family="Helvetica,sans-Serif" font-size="10.00">Slic3r::GUI::CommonGizmos</text>
<text text-anchor="start" x="421" y="-476.2" font-family="Helvetica,sans-Serif" font-size="10.00">DataObjects::SelectionInfo</text>
<text text-anchor="middle" x="485.12" y="-464.95" font-family="Helvetica,sans-Serif" font-size="10.00">::on_update</text>
</a>
</g>
</g>
<!-- Node5&#45;&gt;Node6 -->
<g id="edge5_Node000005_Node000006" class="edge">
<title>Node5&#45;&gt;Node6</title>
<g id="a_edge5_Node000005_Node000006"><a xlink:title=" ">
<path fill="none" stroke="#63b8ff" d="M640.02,-389.64C622.2,-408.14 595.33,-433.48 567.75,-450.08 562.45,-453.27 556.75,-456.21 550.92,-458.9"/>
<polygon fill="#63b8ff" stroke="#63b8ff" points="642.22,-392.34 646.55,-382.67 637.13,-387.54 642.22,-392.34"/>
</a>
</g>
</g>
<!-- Node7 -->
<g id="Node000007" class="node">
<title>Node7</title>
<g id="a_Node000007"><a xlink:href="../../d0/d2b/class_slic3r_1_1_g_u_i_1_1_g_l_canvas3_d.html#a0952c42bc924ff44ed130a2ff77bb370" target="_top" xlink:title=" ">
<polygon fill="white" stroke="#666666" points="550.12,-581.33 420.12,-581.33 420.12,-550.83 550.12,-550.83 550.12,-581.33"/>
<text text-anchor="start" x="428.12" y="-567.83" font-family="Helvetica,sans-Serif" font-size="10.00">Slic3r::GUI::GLCanvas3D</text>
<text text-anchor="middle" x="485.12" y="-556.58" font-family="Helvetica,sans-Serif" font-size="10.00">::reload_scene</text>
</a>
</g>
</g>
<!-- Node5&#45;&gt;Node7 -->
<g id="edge6_Node000005_Node000007" class="edge">
<title>Node5&#45;&gt;Node7</title>
<g id="a_edge6_Node000005_Node000007"><a xlink:title=" ">
<path fill="none" stroke="#63b8ff" d="M648.96,-391.25C633.07,-421.77 603.29,-473.64 567.75,-510.08 552.15,-526.07 531.34,-540.26 514.64,-550.36"/>
<polygon fill="#63b8ff" stroke="#63b8ff" points="652.37,-393.27 653.8,-382.77 646.14,-390.08 652.37,-393.27"/>
</a>
</g>
</g>
<!-- Node26 -->
<g id="Node000026" class="node">
<title>Node26</title>
<g id="a_Node000026"><a xlink:href="../../da/d2c/class_slic3r_1_1_g_u_i_1_1_g_l_gizmo_hollow.html#a1e64b38c19d0584609dcd11eaef0efc0" target="_top" xlink:title=" ">
<polygon fill="white" stroke="#666666" points="556.12,-381.33 414.12,-381.33 414.12,-350.83 556.12,-350.83 556.12,-381.33"/>
<text text-anchor="start" x="422.12" y="-367.83" font-family="Helvetica,sans-Serif" font-size="10.00">Slic3r::GUI::GLGizmoHollow</text>
<text text-anchor="middle" x="485.12" y="-356.58" font-family="Helvetica,sans-Serif" font-size="10.00">::render_points</text>
</a>
</g>
</g>
<!-- Node5&#45;&gt;Node26 -->
<g id="edge11_Node000005_Node000026" class="edge">
<title>Node5&#45;&gt;Node26</title>
<g id="a_edge11_Node000005_Node000026"><a xlink:title=" ">
<path fill="none" stroke="#63b8ff" d="M593.52,-366.08C581.39,-366.08 568.73,-366.08 556.53,-366.08"/>
<polygon fill="#63b8ff" stroke="#63b8ff" points="593.48,-369.58 603.48,-366.08 593.48,-362.58 593.48,-369.58"/>
</a>
</g>
</g>
<!-- Node28 -->
<g id="Node000028" class="node">
<title>Node28</title>
<g id="a_Node000028"><a xlink:href="../../d9/d0e/class_slic3r_1_1_g_u_i_1_1_g_l_gizmo_sla_supports.html#a7862bc9fc1f6e5a832c9007548273367" target="_top" xlink:title=" ">
<polygon fill="white" stroke="#666666" points="567.75,-332.33 402.5,-332.33 402.5,-301.83 567.75,-301.83 567.75,-332.33"/>
<text text-anchor="start" x="410.5" y="-318.83" font-family="Helvetica,sans-Serif" font-size="10.00">Slic3r::GUI::GLGizmoSlaSupports</text>
<text text-anchor="middle" x="485.12" y="-307.58" font-family="Helvetica,sans-Serif" font-size="10.00">::render_points</text>
</a>
</g>
</g>
<!-- Node5&#45;&gt;Node28 -->
<g id="edge13_Node000005_Node000028" class="edge">
<title>Node5&#45;&gt;Node28</title>
<g id="a_edge13_Node000005_Node000028"><a xlink:title=" ">
<path fill="none" stroke="#63b8ff" d="M594.86,-347.48C577.58,-342.65 559.13,-337.49 542.43,-332.82"/>
<polygon fill="#63b8ff" stroke="#63b8ff" points="593.87,-351.12 604.44,-350.44 595.75,-344.38 593.87,-351.12"/>
</a>
</g>
</g>
<!-- Node30 -->
<g id="Node000030" class="node">
<title>Node30</title>
<g id="a_Node000030"><a xlink:href="../../d0/d5d/class_slic3r_1_1_g_u_i_1_1_g_l_gizmo_sla_base.html#afa2c60fabd3bba6269097719d01f0992" target="_top" xlink:title=" ">
<polygon fill="white" stroke="#666666" points="358.25,-733.33 209.5,-733.33 209.5,-702.83 358.25,-702.83 358.25,-733.33"/>
<text text-anchor="start" x="217.5" y="-719.83" font-family="Helvetica,sans-Serif" font-size="10.00">Slic3r::GUI::GLGizmoSlaBase</text>
<text text-anchor="middle" x="283.88" y="-708.58" font-family="Helvetica,sans-Serif" font-size="10.00">::unproject_on_mesh</text>
</a>
</g>
</g>
<!-- Node5&#45;&gt;Node30 -->
<g id="edge15_Node000005_Node000030" class="edge">
<title>Node5&#45;&gt;Node30</title>
<g id="a_edge15_Node000005_Node000030"><a xlink:title=" ">
<path fill="none" stroke="#63b8ff" d="M656.55,-392.37C647,-437.8 621.75,-531.75 567.75,-590.08 511.27,-651.1 420.15,-685.05 356.65,-702.41"/>
<polygon fill="#63b8ff" stroke="#63b8ff" points="660.16,-393.15 658.7,-382.66 653.3,-391.77 660.16,-393.15"/>
</a>
</g>
</g>
<!-- Node37 -->
<g id="Node000037" class="node">
<title>Node37</title>
<g id="a_Node000037"><a xlink:href="../../da/d2c/class_slic3r_1_1_g_u_i_1_1_g_l_gizmo_hollow.html#ae9d4f8ca33ad79b5f85fad9d8364f6be" target="_top" xlink:title=" ">
<polygon fill="white" stroke="#666666" points="556.12,-440.95 414.12,-440.95 414.12,-399.2 556.12,-399.2 556.12,-440.95"/>
<text text-anchor="start" x="422.12" y="-427.45" font-family="Helvetica,sans-Serif" font-size="10.00">Slic3r::GUI::GLGizmoHollow</text>
<text text-anchor="start" x="422.12" y="-416.2" font-family="Helvetica,sans-Serif" font-size="10.00">::update_hole_raycasters</text>
<text text-anchor="middle" x="485.12" y="-404.95" font-family="Helvetica,sans-Serif" font-size="10.00">_for_picking_transform</text>
</a>
</g>
</g>
<!-- Node5&#45;&gt;Node37 -->
<g id="edge20_Node000005_Node000037" class="edge">
<title>Node5&#45;&gt;Node37</title>
<g id="a_edge20_Node000005_Node000037"><a xlink:title=" ">
<path fill="none" stroke="#63b8ff" d="M600.31,-384.89C585.77,-389.37 570.15,-394.19 555.28,-398.77"/>
<polygon fill="#63b8ff" stroke="#63b8ff" points="601.16,-387.99 609.69,-381.7 599.1,-381.3 601.16,-387.99"/>
</a>
</g>
</g>
<!-- Node43 -->
<g id="Node000043" class="node">
<title>Node43</title>
<g id="a_Node000043"><a xlink:href="../../d9/d0e/class_slic3r_1_1_g_u_i_1_1_g_l_gizmo_sla_supports.html#ada205f95df171159071374ee3e32f030" target="_top" xlink:title=" ">
<polygon fill="white" stroke="#666666" points="567.75,-234.95 402.5,-234.95 402.5,-193.2 567.75,-193.2 567.75,-234.95"/>
<text text-anchor="start" x="410.5" y="-221.45" font-family="Helvetica,sans-Serif" font-size="10.00">Slic3r::GUI::GLGizmoSlaSupports</text>
<text text-anchor="start" x="410.5" y="-210.2" font-family="Helvetica,sans-Serif" font-size="10.00">::update_point_raycasters</text>
<text text-anchor="middle" x="485.12" y="-198.95" font-family="Helvetica,sans-Serif" font-size="10.00">_for_picking_transform</text>
</a>
</g>
</g>
<!-- Node5&#45;&gt;Node43 -->
<g id="edge25_Node000005_Node000043" class="edge">
<title>Node5&#45;&gt;Node43</title>
<g id="a_edge25_Node000005_Node000043"><a xlink:title=" ">
<path fill="none" stroke="#63b8ff" d="M642.6,-342.18C620.41,-314.31 584.38,-270.34 567.75,-257.08 557.48,-248.89 545.41,-241.54 533.76,-235.32"/>
<polygon fill="#63b8ff" stroke="#63b8ff" points="640.33,-343.95 649.28,-349.61 645.81,-339.6 640.33,-343.95"/>
</a>
</g>
</g>
<!-- Node50 -->
<g id="Node000050" class="node">
<title>Node50</title>
<g id="a_Node000050"><a xlink:href="../../d0/d5d/class_slic3r_1_1_g_u_i_1_1_g_l_gizmo_sla_base.html#a9758ed909d9341ee754483d9e1a86aeb" target="_top" xlink:title=" ">
<polygon fill="white" stroke="#666666" points="358.25,-283.33 209.5,-283.33 209.5,-252.83 358.25,-252.83 358.25,-283.33"/>
<text text-anchor="start" x="217.5" y="-269.83" font-family="Helvetica,sans-Serif" font-size="10.00">Slic3r::GUI::GLGizmoSlaBase</text>
<text text-anchor="middle" x="283.88" y="-258.58" font-family="Helvetica,sans-Serif" font-size="10.00">::update_volumes</text>
</a>
</g>
</g>
<!-- Node5&#45;&gt;Node50 -->
<g id="edge30_Node000005_Node000050" class="edge">
<title>Node5&#45;&gt;Node50</title>
<g id="a_edge30_Node000005_Node000050"><a xlink:title=" ">
<path fill="none" stroke="#63b8ff" d="M639.77,-343.23C622.15,-326.21 595.69,-304.08 567.75,-293.08 500.43,-266.57 417.34,-262.23 358.68,-263.37"/>
<polygon fill="#63b8ff" stroke="#63b8ff" points="636.65,-345.06 646.21,-349.63 641.59,-340.1 636.65,-345.06"/>
</a>
</g>
</g>
<!-- Node8 -->
<g id="Node000008" class="node">
<title>Node8</title>
<g id="a_Node000008"><a xlink:href="../../d0/d2b/class_slic3r_1_1_g_u_i_1_1_g_l_canvas3_d.html#a6379e5a8883b2a7c10e897ad357a6c6f" target="_top" xlink:title=" ">
<polygon fill="#fff0f0" stroke="red" points="348.88,-586.95 218.88,-586.95 218.88,-545.2 348.88,-545.2 348.88,-586.95"/>
<text text-anchor="start" x="226.88" y="-573.45" font-family="Helvetica,sans-Serif" font-size="10.00">Slic3r::GUI::GLCanvas3D</text>
<text text-anchor="start" x="226.88" y="-562.2" font-family="Helvetica,sans-Serif" font-size="10.00">::_refresh_if_shown_on</text>
<text text-anchor="middle" x="283.88" y="-550.95" font-family="Helvetica,sans-Serif" font-size="10.00">_screen</text>
</a>
</g>
</g>
<!-- Node7&#45;&gt;Node8 -->
<g id="edge7_Node000007_Node000008" class="edge">
<title>Node7&#45;&gt;Node8</title>
<g id="a_edge7_Node000007_Node000008"><a xlink:title=" ">
<path fill="none" stroke="#63b8ff" d="M408.92,-566.08C389.21,-566.08 368.14,-566.08 349.07,-566.08"/>
<polygon fill="#63b8ff" stroke="#63b8ff" points="408.71,-569.58 418.71,-566.08 408.71,-562.58 408.71,-569.58"/>
</a>
</g>
</g>
<!-- Node15 -->
<g id="Node000015" class="node">
<title>Node15</title>
<g id="a_Node000015"><a xlink:href="../../dd/d03/class_slic3r_1_1_g_u_i_1_1_object_list.html#a2670d6019bfdc5bad524330fe9581757" target="_top" xlink:title=" ">
<polygon fill="#fff0f0" stroke="red" points="341.38,-527.33 226.38,-527.33 226.38,-496.83 341.38,-496.83 341.38,-527.33"/>
<text text-anchor="start" x="234.38" y="-513.83" font-family="Helvetica,sans-Serif" font-size="10.00">Slic3r::GUI::ObjectList</text>
<text text-anchor="middle" x="283.88" y="-502.58" font-family="Helvetica,sans-Serif" font-size="10.00">::del_info_item</text>
</a>
</g>
</g>
<!-- Node7&#45;&gt;Node15 -->
<g id="edge8_Node000007_Node000015" class="edge">
<title>Node7&#45;&gt;Node15</title>
<g id="a_edge8_Node000007_Node000015"><a xlink:title=" ">
<path fill="none" stroke="#63b8ff" d="M415.7,-547.53C391.53,-540.98 364.63,-533.69 341.54,-527.44"/>
<polygon fill="#63b8ff" stroke="#63b8ff" points="414.66,-551.15 425.23,-550.39 416.49,-544.39 414.66,-551.15"/>
</a>
</g>
</g>
<!-- Node24 -->
<g id="Node000024" class="node">
<title>Node24</title>
<g id="a_Node000024"><a xlink:href="../../d1/d51/class_slic3r_1_1_g_u_i_1_1_emboss_1_1_create_object_job.html#a18c6adc32c81682e81928c90b5d96f7f" target="_top" xlink:title=" ">
<polygon fill="white" stroke="#666666" points="350,-684.33 217.75,-684.33 217.75,-653.83 350,-653.83 350,-684.33"/>
<text text-anchor="start" x="225.75" y="-670.83" font-family="Helvetica,sans-Serif" font-size="10.00">Slic3r::GUI::Emboss</text>
<text text-anchor="middle" x="283.88" y="-659.58" font-family="Helvetica,sans-Serif" font-size="10.00">::CreateObjectJob::finalize</text>
</a>
</g>
</g>
<!-- Node7&#45;&gt;Node24 -->
<g id="edge9_Node000007_Node000024" class="edge">
<title>Node7&#45;&gt;Node24</title>
<g id="a_edge9_Node000007_Node000024"><a xlink:title=" ">
<path fill="none" stroke="#63b8ff" d="M455.81,-588.25C432.81,-605.4 398.97,-628.74 366.5,-644.08 359.26,-647.5 351.45,-650.59 343.62,-653.33"/>
<polygon fill="#63b8ff" stroke="#63b8ff" points="457.5,-590.6 463.37,-581.78 453.28,-585.02 457.5,-590.6"/>
</a>
</g>
</g>
<!-- Node25 -->
<g id="Node000025" class="node">
<title>Node25</title>
<g id="a_Node000025"><a xlink:href="../../d7/de9/class_slic3r_1_1_g_u_i_1_1_view3_d.html#aebeb9fad93bb2b59fee7305c5447fecc" target="_top" xlink:title=" ">
<polygon fill="white" stroke="#666666" points="336.5,-635.33 231.25,-635.33 231.25,-604.83 336.5,-604.83 336.5,-635.33"/>
<text text-anchor="start" x="239.25" y="-621.83" font-family="Helvetica,sans-Serif" font-size="10.00">Slic3r::GUI::View3D</text>
<text text-anchor="middle" x="283.88" y="-610.58" font-family="Helvetica,sans-Serif" font-size="10.00">::reload_scene</text>
</a>
</g>
</g>
<!-- Node7&#45;&gt;Node25 -->
<g id="edge10_Node000007_Node000025" class="edge">
<title>Node7&#45;&gt;Node25</title>
<g id="a_edge10_Node000007_Node000025"><a xlink:title=" ">
<path fill="none" stroke="#63b8ff" d="M415.74,-584.61C389.88,-591.62 360.9,-599.47 336.8,-606.01"/>
<polygon fill="#63b8ff" stroke="#63b8ff" points="416.49,-587.77 425.23,-581.77 414.66,-581.01 416.49,-587.77"/>
</a>
</g>
</g>
<!-- Node27 -->
<g id="Node000027" class="node">
<title>Node27</title>
<g id="a_Node000027"><a xlink:href="../../da/d2c/class_slic3r_1_1_g_u_i_1_1_g_l_gizmo_hollow.html#a2bcce1e1ee303fde7f05c97912f7473c" target="_top" xlink:title=" ">
<polygon fill="white" stroke="#666666" points="354.88,-381.33 212.88,-381.33 212.88,-350.83 354.88,-350.83 354.88,-381.33"/>
<text text-anchor="start" x="220.88" y="-367.83" font-family="Helvetica,sans-Serif" font-size="10.00">Slic3r::GUI::GLGizmoHollow</text>
<text text-anchor="middle" x="283.88" y="-356.58" font-family="Helvetica,sans-Serif" font-size="10.00">::on_render</text>
</a>
</g>
</g>
<!-- Node26&#45;&gt;Node27 -->
<g id="edge12_Node000026_Node000027" class="edge">
<title>Node26&#45;&gt;Node27</title>
<g id="a_edge12_Node000026_Node000027"><a xlink:title=" ">
<path fill="none" stroke="#63b8ff" d="M403.02,-366.08C387.15,-366.08 370.64,-366.08 355.16,-366.08"/>
<polygon fill="#63b8ff" stroke="#63b8ff" points="402.88,-369.58 412.88,-366.08 402.88,-362.58 402.88,-369.58"/>
</a>
</g>
</g>
<!-- Node29 -->
<g id="Node000029" class="node">
<title>Node29</title>
<g id="a_Node000029"><a xlink:href="../../d9/d0e/class_slic3r_1_1_g_u_i_1_1_g_l_gizmo_sla_supports.html#aaf4f9a5f424efe84e23380404047b6e6" target="_top" xlink:title=" ">
<polygon fill="white" stroke="#666666" points="366.5,-332.33 201.25,-332.33 201.25,-301.83 366.5,-301.83 366.5,-332.33"/>
<text text-anchor="start" x="209.25" y="-318.83" font-family="Helvetica,sans-Serif" font-size="10.00">Slic3r::GUI::GLGizmoSlaSupports</text>
<text text-anchor="middle" x="283.88" y="-307.58" font-family="Helvetica,sans-Serif" font-size="10.00">::on_render</text>
</a>
</g>
</g>
<!-- Node28&#45;&gt;Node29 -->
<g id="edge14_Node000028_Node000029" class="edge">
<title>Node28&#45;&gt;Node29</title>
<g id="a_edge14_Node000028_Node000029"><a xlink:title=" ">
<path fill="none" stroke="#63b8ff" d="M391.45,-317.08C383.22,-317.08 374.92,-317.08 366.78,-317.08"/>
<polygon fill="#63b8ff" stroke="#63b8ff" points="391.22,-320.58 401.22,-317.08 391.22,-313.58 391.22,-320.58"/>
</a>
</g>
</g>
<!-- Node31 -->
<g id="Node000031" class="node">
<title>Node31</title>
<g id="a_Node000031"><a xlink:href="../../da/d2c/class_slic3r_1_1_g_u_i_1_1_g_l_gizmo_hollow.html#a87dfbde9c64ea240a84d238cf63b1484" target="_top" xlink:title=" ">
<polygon fill="#fff0f0" stroke="red" points="153.62,-578.33 11.62,-578.33 11.62,-547.83 153.62,-547.83 153.62,-578.33"/>
<text text-anchor="start" x="19.62" y="-564.83" font-family="Helvetica,sans-Serif" font-size="10.00">Slic3r::GUI::GLGizmoHollow</text>
<text text-anchor="middle" x="82.62" y="-553.58" font-family="Helvetica,sans-Serif" font-size="10.00">::gizmo_event</text>
</a>
</g>
</g>
<!-- Node30&#45;&gt;Node31 -->
<g id="edge16_Node000030_Node000031" class="edge">
<title>Node30&#45;&gt;Node31</title>
<g id="a_edge16_Node000030_Node000031"><a xlink:title=" ">
<path fill="none" stroke="#63b8ff" d="M209.49,-697.8C206.65,-696.33 203.89,-694.76 201.25,-693.08 152.7,-662.22 111.73,-606.07 93.6,-578.79"/>
<polygon fill="#63b8ff" stroke="#63b8ff" points="207.86,-701.37 218.4,-702.42 210.81,-695.02 207.86,-701.37"/>
</a>
</g>
</g>
<!-- Node33 -->
<g id="Node000033" class="node">
<title>Node33</title>
<g id="a_Node000033"><a xlink:href="../../d9/d0e/class_slic3r_1_1_g_u_i_1_1_g_l_gizmo_sla_supports.html#aa3ec44cc3d269ab8961803796f76966f" target="_top" xlink:title=" ">
<polygon fill="#fff0f0" stroke="red" points="165.25,-327.33 0,-327.33 0,-296.83 165.25,-296.83 165.25,-327.33"/>
<text text-anchor="start" x="8" y="-313.83" font-family="Helvetica,sans-Serif" font-size="10.00">Slic3r::GUI::GLGizmoSlaSupports</text>
<text text-anchor="middle" x="82.62" y="-302.58" font-family="Helvetica,sans-Serif" font-size="10.00">::gizmo_event</text>
</a>
</g>
</g>
<!-- Node30&#45;&gt;Node33 -->
<g id="edge17_Node000030_Node000033" class="edge">
<title>Node30&#45;&gt;Node33</title>
<g id="a_edge17_Node000030_Node000033"><a xlink:title=" ">
<path fill="none" stroke="#63b8ff" d="M203.62,-695.72C202.8,-694.87 202.01,-693.99 201.25,-693.08 112.99,-587.22 228.74,-507.41 165.25,-385.08 152.64,-360.78 128.39,-340.72 109.58,-327.82"/>
<polygon fill="#63b8ff" stroke="#63b8ff" points="200.82,-698.77 210.73,-702.52 205.32,-693.41 200.82,-698.77"/>
</a>
</g>
</g>
<!-- Node35 -->
<g id="Node000035" class="node">
<title>Node35</title>
<g id="a_Node000035"><a xlink:href="../../da/d2c/class_slic3r_1_1_g_u_i_1_1_g_l_gizmo_hollow.html#aa095f13d15c1157909550788ecc36be1" target="_top" xlink:title=" ">
<polygon fill="white" stroke="#666666" points="153.62,-757.33 11.62,-757.33 11.62,-726.83 153.62,-726.83 153.62,-757.33"/>
<text text-anchor="start" x="19.62" y="-743.83" font-family="Helvetica,sans-Serif" font-size="10.00">Slic3r::GUI::GLGizmoHollow</text>
<text text-anchor="middle" x="82.62" y="-732.58" font-family="Helvetica,sans-Serif" font-size="10.00">::on_dragging</text>
</a>
</g>
</g>
<!-- Node30&#45;&gt;Node35 -->
<g id="edge18_Node000030_Node000035" class="edge">
<title>Node30&#45;&gt;Node35</title>
<g id="a_edge18_Node000030_Node000035"><a xlink:title=" ">
<path fill="none" stroke="#63b8ff" d="M198.54,-728.24C183.69,-730.03 168.38,-731.87 153.97,-733.61"/>
<polygon fill="#63b8ff" stroke="#63b8ff" points="198.74,-731.62 208.25,-726.95 197.9,-724.67 198.74,-731.62"/>
</a>
</g>
</g>
<!-- Node36 -->
<g id="Node000036" class="node">
<title>Node36</title>
<g id="a_Node000036"><a xlink:href="../../d9/d0e/class_slic3r_1_1_g_u_i_1_1_g_l_gizmo_sla_supports.html#af3bb80cfab0551fb9c1801160077db2e" target="_top" xlink:title=" ">
<polygon fill="white" stroke="#666666" points="165.25,-708.33 0,-708.33 0,-677.83 165.25,-677.83 165.25,-708.33"/>
<text text-anchor="start" x="8" y="-694.83" font-family="Helvetica,sans-Serif" font-size="10.00">Slic3r::GUI::GLGizmoSlaSupports</text>
<text text-anchor="middle" x="82.62" y="-683.58" font-family="Helvetica,sans-Serif" font-size="10.00">::on_dragging</text>
</a>
</g>
</g>
<!-- Node30&#45;&gt;Node36 -->
<g id="edge19_Node000030_Node000036" class="edge">
<title>Node30&#45;&gt;Node36</title>
<g id="a_edge19_Node000030_Node000036"><a xlink:title=" ">
<path fill="none" stroke="#63b8ff" d="M198.48,-707.49C187.62,-706.13 176.5,-704.73 165.67,-703.37"/>
<polygon fill="#63b8ff" stroke="#63b8ff" points="197.89,-711.07 208.25,-708.84 198.76,-704.12 197.89,-711.07"/>
</a>
</g>
</g>
<!-- Node38 -->
<g id="Node000038" class="node">
<title>Node38</title>
<g id="a_Node000038"><a xlink:href="../../da/d2c/class_slic3r_1_1_g_u_i_1_1_g_l_gizmo_hollow.html#a6eb5b186261321c881c26c8d31e171dd" target="_top" xlink:title="Is called when data (Selection) is changed.">
<polygon fill="white" stroke="#666666" points="153.62,-424.33 11.62,-424.33 11.62,-393.83 153.62,-393.83 153.62,-424.33"/>
<text text-anchor="start" x="19.62" y="-410.83" font-family="Helvetica,sans-Serif" font-size="10.00">Slic3r::GUI::GLGizmoHollow</text>
<text text-anchor="middle" x="82.62" y="-399.58" font-family="Helvetica,sans-Serif" font-size="10.00">::data_changed</text>
</a>
</g>
</g>
<!-- Node37&#45;&gt;Node38 -->
<g id="edge21_Node000037_Node000038" class="edge">
<title>Node37&#45;&gt;Node38</title>
<g id="a_edge21_Node000037_Node000038"><a xlink:title=" ">
<path fill="none" stroke="#63b8ff" d="M402.93,-417.85C329.88,-415.84 223.65,-412.93 154.1,-411.02"/>
<polygon fill="#63b8ff" stroke="#63b8ff" points="402.81,-421.37 412.9,-418.15 403,-414.38 402.81,-421.37"/>
</a>
</g>
</g>
<!-- Node39 -->
<g id="Node000039" class="node">
<title>Node39</title>
<g id="a_Node000039"><a xlink:href="../../da/d2c/class_slic3r_1_1_g_u_i_1_1_g_l_gizmo_hollow.html#a47c4c965f6817151c9de823365f41fd1" target="_top" xlink:title=" ">
<polygon fill="#fff0f0" stroke="red" points="354.88,-478.95 212.88,-478.95 212.88,-437.2 354.88,-437.2 354.88,-478.95"/>
<text text-anchor="start" x="220.88" y="-465.45" font-family="Helvetica,sans-Serif" font-size="10.00">Slic3r::GUI::GLGizmoHollow</text>
<text text-anchor="start" x="220.88" y="-454.2" font-family="Helvetica,sans-Serif" font-size="10.00">::register_hole_raycasters</text>
<text text-anchor="middle" x="283.88" y="-442.95" font-family="Helvetica,sans-Serif" font-size="10.00">_for_picking</text>
</a>
</g>
</g>
<!-- Node37&#45;&gt;Node39 -->
<g id="edge22_Node000037_Node000039" class="edge">
<title>Node37&#45;&gt;Node39</title>
<g id="a_edge22_Node000037_Node000039"><a xlink:title=" ">
<path fill="none" stroke="#63b8ff" d="M403.48,-435.46C387.47,-438.51 370.79,-441.69 355.16,-444.68"/>
<polygon fill="#63b8ff" stroke="#63b8ff" points="403.71,-438.79 412.88,-433.48 402.4,-431.91 403.71,-438.79"/>
</a>
</g>
</g>
<!-- Node39&#45;&gt;Node31 -->
<g id="edge24_Node000039_Node000031" class="edge">
<title>Node39&#45;&gt;Node31</title>
<g id="a_edge24_Node000039_Node000031"><a xlink:title=" ">
<path fill="none" stroke="#63b8ff" d="M210.84,-483.57C207.57,-485.03 204.36,-486.54 201.25,-488.08 165.88,-505.6 127.86,-531.22 104.91,-547.51"/>
<polygon fill="#63b8ff" stroke="#63b8ff" points="211.97,-486.46 219.77,-479.3 209.2,-480.03 211.97,-486.46"/>
</a>
</g>
</g>
<!-- Node39&#45;&gt;Node38 -->
<g id="edge23_Node000039_Node000038" class="edge">
<title>Node39&#45;&gt;Node38</title>
<g id="a_edge23_Node000039_Node000038"><a xlink:title=" ">
<path fill="none" stroke="#63b8ff" d="M202.07,-438.21C183.93,-433.75 164.93,-429.07 147.59,-424.81"/>
<polygon fill="#63b8ff" stroke="#63b8ff" points="201.08,-441.81 211.63,-440.8 202.75,-435.02 201.08,-441.81"/>
</a>
</g>
</g>
<!-- Node44 -->
<g id="Node000044" class="node">
<title>Node44</title>
<g id="a_Node000044"><a xlink:href="../../d9/d0e/class_slic3r_1_1_g_u_i_1_1_g_l_gizmo_sla_supports.html#a4c4c8163c0404c9341c65f8635a3a9d9" target="_top" xlink:title="Is called when data (Selection) is changed.">
<polygon fill="white" stroke="#666666" points="165.25,-229.33 0,-229.33 0,-198.83 165.25,-198.83 165.25,-229.33"/>
<text text-anchor="start" x="8" y="-215.83" font-family="Helvetica,sans-Serif" font-size="10.00">Slic3r::GUI::GLGizmoSlaSupports</text>
<text text-anchor="middle" x="82.62" y="-204.58" font-family="Helvetica,sans-Serif" font-size="10.00">::data_changed</text>
</a>
</g>
</g>
<!-- Node43&#45;&gt;Node44 -->
<g id="edge26_Node000043_Node000044" class="edge">
<title>Node43&#45;&gt;Node44</title>
<g id="a_edge26_Node000043_Node000044"><a xlink:title=" ">
<path fill="none" stroke="#63b8ff" d="M401.56,-190.27C389.88,-187.71 377.95,-185.52 366.5,-184.08 293.63,-174.93 274.12,-174.93 201.25,-184.08 178.77,-186.9 154.43,-192.64 133.75,-198.35"/>
<polygon fill="#63b8ff" stroke="#63b8ff" points="400.67,-193.89 411.2,-192.72 402.24,-187.07 400.67,-193.89"/>
</a>
</g>
</g>
<!-- Node45 -->
<g id="Node000045" class="node">
<title>Node45</title>
<g id="a_Node000045"><a xlink:href="../../d9/d0e/class_slic3r_1_1_g_u_i_1_1_g_l_gizmo_sla_supports.html#a97376f7161e3c8397221b03d20ef6959" target="_top" xlink:title=" ">
<polygon fill="#fff0f0" stroke="red" points="366.5,-234.95 201.25,-234.95 201.25,-193.2 366.5,-193.2 366.5,-234.95"/>
<text text-anchor="start" x="209.25" y="-221.45" font-family="Helvetica,sans-Serif" font-size="10.00">Slic3r::GUI::GLGizmoSlaSupports</text>
<text text-anchor="start" x="209.25" y="-210.2" font-family="Helvetica,sans-Serif" font-size="10.00">::register_point_raycasters</text>
<text text-anchor="middle" x="283.88" y="-198.95" font-family="Helvetica,sans-Serif" font-size="10.00">_for_picking</text>
</a>
</g>
</g>
<!-- Node43&#45;&gt;Node45 -->
<g id="edge27_Node000043_Node000045" class="edge">
<title>Node43&#45;&gt;Node45</title>
<g id="a_edge27_Node000043_Node000045"><a xlink:title=" ">
<path fill="none" stroke="#63b8ff" d="M391.45,-214.08C383.22,-214.08 374.92,-214.08 366.78,-214.08"/>
<polygon fill="#63b8ff" stroke="#63b8ff" points="391.22,-217.58 401.22,-214.08 391.22,-210.58 391.22,-217.58"/>
</a>
</g>
</g>
<!-- Node45&#45;&gt;Node33 -->
<g id="edge29_Node000045_Node000033" class="edge">
<title>Node45&#45;&gt;Node33</title>
<g id="a_edge29_Node000045_Node000033"><a xlink:title=" ">
<path fill="none" stroke="#63b8ff" d="M211.45,-239.51C207.98,-241 204.56,-242.53 201.25,-244.08 167.72,-259.79 131.07,-281.81 107.75,-296.49"/>
<polygon fill="#63b8ff" stroke="#63b8ff" points="212.45,-242.47 220.34,-235.4 209.76,-236 212.45,-242.47"/>
</a>
</g>
</g>
<!-- Node45&#45;&gt;Node44 -->
<g id="edge28_Node000045_Node000044" class="edge">
<title>Node45&#45;&gt;Node44</title>
<g id="a_edge28_Node000045_Node000044"><a xlink:title=" ">
<path fill="none" stroke="#63b8ff" d="M190.2,-214.08C181.97,-214.08 173.67,-214.08 165.53,-214.08"/>
<polygon fill="#63b8ff" stroke="#63b8ff" points="189.97,-217.58 199.97,-214.08 189.97,-210.58 189.97,-217.58"/>
</a>
</g>
</g>
<!-- Node50&#45;&gt;Node38 -->
<g id="edge31_Node000050_Node000038" class="edge">
<title>Node50&#45;&gt;Node38</title>
<g id="a_edge31_Node000050_Node000038"><a xlink:title=" ">
<path fill="none" stroke="#63b8ff" d="M208.94,-288.48C206.29,-289.92 203.71,-291.45 201.25,-293.08 180.48,-306.85 182.58,-318.17 165.25,-336.08 144.89,-357.12 119.49,-379.26 102.48,-393.57"/>
<polygon fill="#63b8ff" stroke="#63b8ff" points="210.35,-291.2 217.84,-283.7 207.31,-284.9 210.35,-291.2"/>
</a>
</g>
</g>
<!-- Node50&#45;&gt;Node44 -->
<g id="edge32_Node000050_Node000044" class="edge">
<title>Node50&#45;&gt;Node44</title>
<g id="a_edge32_Node000050_Node000044"><a xlink:title=" ">
<path fill="none" stroke="#63b8ff" d="M214.63,-249.58C190.89,-243.15 164.5,-236 141.67,-229.81"/>
<polygon fill="#63b8ff" stroke="#63b8ff" points="213.41,-253.15 223.98,-252.39 215.24,-246.39 213.41,-253.15"/>
</a>
</g>
</g>
<!-- Node53 -->
<g id="Node000053" class="node">
<title>Node53</title>
<g id="a_Node000053"><a xlink:href="../../d9/d45/namespace_slic3r_1_1_g_u_i.html#afc68e7e0f2a46d8f334266df877479a3" target="_top" xlink:title=" ">
<polygon fill="white" stroke="#666666" points="557.62,-88.7 412.62,-88.7 412.62,-69.45 557.62,-69.45 557.62,-88.7"/>
<text text-anchor="middle" x="485.12" y="-75.2" font-family="Helvetica,sans-Serif" font-size="10.00">Slic3r::GUI::get_arrange_poly</text>
</a>
</g>
</g>
<!-- Node52&#45;&gt;Node53 -->
<g id="edge35_Node000052_Node000053" class="edge">
<title>Node52&#45;&gt;Node53</title>
<g id="a_edge35_Node000052_Node000053"><a xlink:title=" ">
<path fill="none" stroke="#63b8ff" d="M597.31,-109.53C572.29,-102.68 544.5,-95.07 522.97,-89.17"/>
<polygon fill="#63b8ff" stroke="#63b8ff" points="596.27,-113.15 606.84,-112.42 598.12,-106.4 596.27,-113.15"/>
</a>
</g>
</g>
<!-- Node53&#45;&gt;Node53 -->
<g id="edge36_Node000053_Node000053" class="edge">
<title>Node53&#45;&gt;Node53</title>
<g id="a_edge36_Node000053_Node000053"><a xlink:title=" ">
<path fill="none" stroke="#63b8ff" d="M517.68,-98.73C514.96,-103.32 504.11,-106.7 485.12,-106.7 453.97,-106.7 444.72,-97.6 457.38,-88.99"/>
<polygon fill="#63b8ff" stroke="#63b8ff" points="520.44,-97.41 512.87,-89.99 514.16,-100.51 520.44,-97.41"/>
</a>
</g>
</g>
<!-- Node54 -->
<g id="Node000054" class="node">
<title>Node54</title>
<g id="a_Node000054"><a xlink:href="../../da/dc0/class_slic3r_1_1_g_u_i_1_1_arrange_job.html#a0d3a0401cd0794c3bdb7a41f88a07edb" target="_top" xlink:title=" ">
<polygon fill="#fff0f0" stroke="red" points="344,-137.33 223.75,-137.33 223.75,-106.83 344,-106.83 344,-137.33"/>
<text text-anchor="start" x="231.75" y="-123.83" font-family="Helvetica,sans-Serif" font-size="10.00">Slic3r::GUI::ArrangeJob</text>
<text text-anchor="middle" x="283.88" y="-112.58" font-family="Helvetica,sans-Serif" font-size="10.00">::get_arrange_poly_</text>
</a>
</g>
</g>
<!-- Node53&#45;&gt;Node54 -->
<g id="edge37_Node000053_Node000054" class="edge">
<title>Node53&#45;&gt;Node54</title>
<g id="a_edge37_Node000053_Node000054"><a xlink:title=" ">
<path fill="none" stroke="#63b8ff" d="M426.98,-91.41C401.04,-97.01 370.37,-103.63 344.17,-109.28"/>
<polygon fill="#63b8ff" stroke="#63b8ff" points="427.37,-94.69 436.41,-89.16 425.9,-87.85 427.37,-94.69"/>
</a>
</g>
</g>
<!-- Node58 -->
<g id="Node000058" class="node">
<title>Node58</title>
<g id="a_Node000058"><a xlink:href="../../da/dc0/class_slic3r_1_1_g_u_i_1_1_arrange_job.html#a375d7fd2c57f9281782b24b2ebfb21e6" target="_top" xlink:title=" ">
<polygon fill="#fff0f0" stroke="red" points="142.75,-106.33 22.5,-106.33 22.5,-75.83 142.75,-75.83 142.75,-106.33"/>
<text text-anchor="start" x="30.5" y="-92.83" font-family="Helvetica,sans-Serif" font-size="10.00">Slic3r::GUI::ArrangeJob</text>
<text text-anchor="middle" x="82.62" y="-81.58" font-family="Helvetica,sans-Serif" font-size="10.00">::prepare_selected</text>
</a>
</g>
</g>
<!-- Node53&#45;&gt;Node58 -->
<g id="edge42_Node000053_Node000058" class="edge">
<title>Node53&#45;&gt;Node58</title>
<g id="a_edge42_Node000053_Node000058"><a xlink:title=" ">
<path fill="none" stroke="#63b8ff" d="M401.91,-81.54C324.95,-83.85 211.8,-87.24 143.19,-89.29"/>
<polygon fill="#63b8ff" stroke="#63b8ff" points="401.63,-85.02 411.52,-81.22 401.42,-78.03 401.63,-85.02"/>
</a>
</g>
</g>
<!-- Node59 -->
<g id="Node000059" class="node">
<title>Node59</title>
<g id="a_Node000059"><a xlink:href="../../d9/d45/namespace_slic3r_1_1_g_u_i.html#a05c283028ab5acc59caa5ecc1b95041d" target="_top" xlink:title=" ">
<polygon fill="#fff0f0" stroke="red" points="338.75,-51.33 229,-51.33 229,-20.83 338.75,-20.83 338.75,-51.33"/>
<text text-anchor="start" x="237" y="-37.83" font-family="Helvetica,sans-Serif" font-size="10.00">Slic3r::GUI::get_wipe</text>
<text text-anchor="middle" x="283.88" y="-26.58" font-family="Helvetica,sans-Serif" font-size="10.00">_tower_arrangepoly</text>
</a>
</g>
</g>
<!-- Node53&#45;&gt;Node59 -->
<g id="edge39_Node000053_Node000059" class="edge">
<title>Node53&#45;&gt;Node59</title>
<g id="a_edge39_Node000053_Node000059"><a xlink:title=" ">
<path fill="none" stroke="#63b8ff" d="M426.73,-66.69C399.13,-60.74 366.22,-53.64 339.06,-47.77"/>
<polygon fill="#63b8ff" stroke="#63b8ff" points="425.9,-70.31 436.41,-69 427.37,-63.47 425.9,-70.31"/>
</a>
</g>
</g>
<!-- Node60 -->
<g id="Node000060" class="node">
<title>Node60</title>
<g id="a_Node000060"><a xlink:href="../../d3/d89/class_slic3r_1_1_g_u_i_1_1_fill_bed_job.html#a557cff665d6baf6ecd35699c38e4cf24" target="_top" xlink:title=" ">
<polygon fill="#fff0f0" stroke="red" points="140.88,-39.33 24.38,-39.33 24.38,-8.83 140.88,-8.83 140.88,-39.33"/>
<text text-anchor="start" x="32.38" y="-25.83" font-family="Helvetica,sans-Serif" font-size="10.00">Slic3r::GUI::FillBedJob</text>
<text text-anchor="middle" x="82.62" y="-14.58" font-family="Helvetica,sans-Serif" font-size="10.00">::prepare</text>
</a>
</g>
</g>
<!-- Node53&#45;&gt;Node60 -->
<g id="edge41_Node000053_Node000060" class="edge">
<title>Node53&#45;&gt;Node60</title>
<g id="a_edge41_Node000053_Node000060"><a xlink:title=" ">
<path fill="none" stroke="#63b8ff" d="M463.03,-62.52C440.57,-46.03 403.28,-21.82 366.5,-12.08 290.59,8.02 199.27,-1.64 141.33,-11.74"/>
<polygon fill="#63b8ff" stroke="#63b8ff" points="460.61,-65.83 470.7,-69.05 464.82,-60.23 460.61,-65.83"/>
</a>
</g>
</g>
<!-- Node54&#45;&gt;Node58 -->
<g id="edge38_Node000054_Node000058" class="edge">
<title>Node54&#45;&gt;Node58</title>
<g id="a_edge38_Node000054_Node000058"><a xlink:title=" ">
<path fill="none" stroke="#63b8ff" d="M212.76,-111.17C190.03,-107.63 165.06,-103.75 143.17,-100.34"/>
<polygon fill="#63b8ff" stroke="#63b8ff" points="211.94,-114.74 222.36,-112.82 213.02,-107.82 211.94,-114.74"/>
</a>
</g>
</g>
<!-- Node59&#45;&gt;Node60 -->
<g id="edge40_Node000059_Node000060" class="edge">
<title>Node59&#45;&gt;Node60</title>
<g id="a_edge40_Node000059_Node000060"><a xlink:title=" ">
<path fill="none" stroke="#63b8ff" d="M217.96,-32.17C193.25,-30.68 165.28,-29 141.28,-27.55"/>
<polygon fill="#63b8ff" stroke="#63b8ff" points="217.5,-35.71 227.69,-32.82 217.92,-28.72 217.5,-35.71"/>
</a>
</g>
</g>
</g>
</svg>

<g id="navigator" transform="translate(0 0)" fill="#404254">
  <rect fill="#f2f5e9" fill-opacity="0.5" stroke="#606060" stroke-width=".5" x="0" y="0" width="60" height="60"/>
  <use id="zoomplus" xlink:href="#zoomPlus" x="17" y="9" onmousedown="handleZoom(evt,'in')"/>
  <use id="zoomminus" xlink:href="#zoomMin" x="42" y="9" onmousedown="handleZoom(evt,'out')"/>
  <use id="reset" xlink:href="#resetDef" x="30" y="36" onmousedown="handleReset()"/>
   <use id="arrowup" xlink:href="#arrowUp" x="0" y="0" onmousedown="handlePan(0,-1)"/>
  <use id="arrowright" xlink:href="#arrowRight" x="0" y="0" onmousedown="handlePan(1,0)"/>
  <use id="arrowdown" xlink:href="#arrowDown" x="0" y="0" onmousedown="handlePan(0,1)"/>
  <use id="arrowleft" xlink:href="#arrowLeft" x="0" y="0" onmousedown="handlePan(-1,0)"/>
</g>
<svg viewBox="0 0 15 15" width="100%" height="30px" preserveAspectRatio="xMaxYMin meet">
 <g id="arrow_out" transform="scale(0.3 0.3)">
  <a xlink:href="namespace_slic3r_a4037aa8365332376a4d07d1a6252eb41_icgraph_org.svg" target="_base">
   <rect id="button" ry="5" rx="5" y="6" x="6" height="38" width="38"
        fill="#f2f5e9" fill-opacity="0.5" stroke="#606060" stroke-width="1.0"/>
   <path id="arrow"
     d="M 11.500037,31.436501 C 11.940474,20.09759 22.043105,11.32322 32.158766,21.979434 L 37.068811,17.246167 C 37.068811,17.246167 37.088388,32 37.088388,32 L 22.160133,31.978069 C 22.160133,31.978069 26.997745,27.140456 26.997745,27.140456 C 18.528582,18.264221 13.291696,25.230495 11.500037,31.436501 z"
     style="fill:#404040;"/>
  </a>
 </g>
</svg>

<style type='text/css'>
<![CDATA[
[data-mouse-over-selected='false'] { opacity: 0.7; }
[data-mouse-over-selected='true']  { opacity: 1.0; }
]]>
</style>
<script type="application/ecmascript"><![CDATA[
document.addEventListener('DOMContentLoaded', (event) => {
  highlightEdges();
  highlightAdjacentNodes();
});
]]></script>
</svg>
