<?xml version="1.0" encoding="UTF-8" standalone="no"?>
<!DOCTYPE svg PUBLIC "-//W3C//DTD SVG 1.1//EN"
 "http://www.w3.org/Graphics/SVG/1.1/DTD/svg11.dtd">
<!-- Generated by graphviz version 8.0.5 (20230430.1635)
 -->
<!-- Title: Slic3r::make_fill_polylines Pages: 1 -->
<!--zoomable 580 -->

<svg id="main" version="1.1" xmlns="http://www.w3.org/2000/svg" xmlns:xlink="http://www.w3.org/1999/xlink" xml:space="preserve" onload="init(evt)">
<style type="text/css"><![CDATA[
.node, .edge {opacity: 0.7;}
.node.selected, .edge.selected {opacity: 1;}
.edge:hover path { stroke: red; }
.edge:hover polygon { stroke: red; fill: red; }
]]></style>

<defs>
  <circle id="rim" cx="0" cy="0" r="7"/>
  <circle id="rim2" cx="0" cy="0" r="3.5"/>
  <g id="zoomPlus">
    <use xlink:href="#rim" fill="#404040"><set attributeName="fill" to="#808080" begin="zoomplus.mouseover" end="zoomplus.mouseout"/></use>
    <path d="M-4,0h8M0,-4v8" fill="none" stroke="white" stroke-width="1.5" pointer-events="none"/>
  </g>
  <g id="zoomMin">
    <use xlink:href="#rim" fill="#404040"><set attributeName="fill" to="#808080" begin="zoomminus.mouseover" end="zoomminus.mouseout"/></use>
    <path d="M-4,0h8" fill="none" stroke="white" stroke-width="1.5" pointer-events="none"/>
  </g>
  <g id="arrowUp" transform="translate(30 24)">
    <use xlink:href="#rim"/>
    <path pointer-events="none" fill="none" stroke="white" stroke-width="1.5" d="M0,-3.0v7 M-2.5,-0.5L0,-3.0L2.5,-0.5"/>
  </g>
  <g id="arrowRight" transform="rotate(90) translate(36 -43)">
    <use xlink:href="#rim"/>
    <path pointer-events="none" fill="none" stroke="white" stroke-width="1.5" d="M0,-3.0v7 M-2.5,-0.5L0,-3.0L2.5,-0.5"/>
  </g>
  <g id="arrowDown" transform="rotate(180) translate(-30 -48)">
    <use xlink:href="#rim"/>
    <path pointer-events="none" fill="none" stroke="white" stroke-width="1.5" d="M0,-3.0v7 M-2.5,-0.5L0,-3.0L2.5,-0.5"/>
  </g>
  <g id="arrowLeft" transform="rotate(270) translate(-36 17)">
    <use xlink:href="#rim"/>
    <path pointer-events="none" fill="none" stroke="white" stroke-width="1.5" d="M0,-3.0v7 M-2.5,-0.5L0,-3.0L2.5,-0.5"/>
  </g>
  <g id="resetDef">
    <use xlink:href="#rim2" fill="#404040"><set attributeName="fill" to="#808080" begin="reset.mouseover" end="reset.mouseout"/></use>
  </g>
</defs>
<script type="application/ecmascript">
var viewWidth = 1052;
var viewHeight = 580;
var sectionId = 'dynsection-1014';
</script>
<script type="application/ecmascript" xlink:href="../../svg.min.js"/>
<svg id="graph" class="graph">
<g id="viewport">
<title>Slic3r::make_fill_polylines</title>
<!-- Node1 -->
<g id="Node000001" class="node">
<title>Node1</title>
<g id="a_Node000001"><a xlink:title=" ">
<polygon fill="#999999" stroke="#666666" points="129.25,-266.25 0,-266.25 0,-247 129.25,-247 129.25,-266.25"/>
<text text-anchor="middle" x="64.62" y="-252.75" font-family="Helvetica,sans-Serif" font-size="10.00">Slic3r::make_fill_polylines</text>
</a>
</g>
</g>
<!-- Node2 -->
<g id="Node000002" class="node">
<title>Node2</title>
<g id="a_Node000002"><a xlink:href="../../d7/dcc/class_slic3r_1_1_fill.html#a3c70e054ba76c11b72b1c401156c92d7" target="_top" xlink:title=" ">
<polygon fill="white" stroke="#666666" points="267.12,-482.88 179.12,-482.88 179.12,-452.38 267.12,-452.38 267.12,-482.88"/>
<text text-anchor="start" x="187.12" y="-469.38" font-family="Helvetica,sans-Serif" font-size="10.00">Slic3r::Fill::_infill</text>
<text text-anchor="middle" x="223.12" y="-458.12" font-family="Helvetica,sans-Serif" font-size="10.00">_direction</text>
</a>
</g>
</g>
<!-- Node1&#45;&gt;Node2 -->
<g id="edge1_Node000001_Node000002" class="edge">
<title>Node1&#45;&gt;Node2</title>
<g id="a_edge1_Node000001_Node000002"><a xlink:title=" ">
<path fill="none" stroke="#63b8ff" d="M68.34,-266.64C77.14,-297.3 107.68,-391.02 165.25,-443.62 166.76,-445.01 168.37,-446.32 170.04,-447.56"/>
<polygon fill="#63b8ff" stroke="#63b8ff" points="167.57,-450.77 177.89,-453.2 171.33,-444.87 167.57,-450.77"/>
</a>
</g>
</g>
<!-- Node7 -->
<g id="Node000007" class="node">
<title>Node7</title>
<g id="a_Node000007"><a xlink:href="../../de/db8/namespace_slic3r.html#a6e3ba75aef7600dbb0a294a47d88ecb8" target="_top" xlink:title=" ">
<polygon fill="white" stroke="#666666" points="272,-416.25 174.25,-416.25 174.25,-397 272,-397 272,-416.25"/>
<text text-anchor="middle" x="223.12" y="-402.75" font-family="Helvetica,sans-Serif" font-size="10.00">Slic3r::get_extents</text>
</a>
</g>
</g>
<!-- Node1&#45;&gt;Node7 -->
<g id="edge6_Node000001_Node000007" class="edge">
<title>Node1&#45;&gt;Node7</title>
<g id="a_edge6_Node000001_Node000007"><a xlink:title=" ">
<path fill="none" stroke="#63b8ff" d="M71.07,-266.53C84.31,-289.78 120.42,-348.51 165.25,-382.62 169.94,-386.19 175.24,-389.34 180.67,-392.07"/>
<polygon fill="#63b8ff" stroke="#63b8ff" points="178.94,-395.59 189.49,-396.56 181.85,-389.22 178.94,-395.59"/>
</a>
</g>
</g>
<!-- Node8 -->
<g id="Node000008" class="node">
<title>Node8</title>
<g id="a_Node000008"><a xlink:href="../../de/db8/namespace_slic3r.html#a57c612ab2aa7dd29f1e7ece220e3af82" target="_top" xlink:title=" ">
<polygon fill="white" stroke="#666666" points="271.62,-340.25 174.62,-340.25 174.62,-321 271.62,-321 271.62,-340.25"/>
<text text-anchor="middle" x="223.12" y="-326.75" font-family="Helvetica,sans-Serif" font-size="10.00">Slic3r::intersection</text>
</a>
</g>
</g>
<!-- Node1&#45;&gt;Node8 -->
<g id="edge8_Node000001_Node000008" class="edge">
<title>Node1&#45;&gt;Node8</title>
<g id="a_edge8_Node000001_Node000008"><a xlink:title=" ">
<path fill="none" stroke="#63b8ff" d="M80.99,-266.58C100.13,-278.67 134.12,-299.12 165.25,-312.62 168.83,-314.18 172.6,-315.67 176.41,-317.07"/>
<polygon fill="#63b8ff" stroke="#63b8ff" points="174.92,-320.61 185.52,-320.6 177.23,-314 174.92,-320.61"/>
</a>
</g>
</g>
<!-- Node10 -->
<g id="Node000010" class="node">
<title>Node10</title>
<g id="a_Node000010"><a xlink:href="../../de/db8/namespace_slic3r.html#a843ba2fe16b213f550fb3d55c55a716e" target="_top" xlink:title=" ">
<polygon fill="white" stroke="#666666" points="579.25,-321.25 480,-321.25 480,-302 579.25,-302 579.25,-321.25"/>
<text text-anchor="middle" x="529.62" y="-307.75" font-family="Helvetica,sans-Serif" font-size="10.00">Slic3r::to_polygons</text>
</a>
</g>
</g>
<!-- Node1&#45;&gt;Node10 -->
<g id="edge51_Node000001_Node000010" class="edge">
<title>Node1&#45;&gt;Node10</title>
<g id="a_edge51_Node000001_Node000010"><a xlink:title=" ">
<path fill="none" stroke="#63b8ff" d="M72.15,-266.44C86.27,-286.67 121.89,-332.53 165.25,-349.62 280.51,-395.06 322.86,-375.58 444,-349.62 464.61,-345.21 486.25,-335.38 502.5,-326.83"/>
<polygon fill="#63b8ff" stroke="#63b8ff" points="503.75,-329.58 510.85,-321.72 500.4,-323.44 503.75,-329.58"/>
</a>
</g>
</g>
<!-- Node11 -->
<g id="Node000011" class="node">
<title>Node11</title>
<g id="a_Node000011"><a xlink:href="../../d6/d3b/class_slic3r_1_1_line.html#a4c3a3bbe33bc268bbe33af359f93746d" target="_top" xlink:title=" ">
<polygon fill="white" stroke="#666666" points="271.62,-229.25 174.62,-229.25 174.62,-210 271.62,-210 271.62,-229.25"/>
<text text-anchor="middle" x="223.12" y="-215.75" font-family="Helvetica,sans-Serif" font-size="10.00">Slic3r::Line::length</text>
</a>
</g>
</g>
<!-- Node1&#45;&gt;Node11 -->
<g id="edge11_Node000001_Node000011" class="edge">
<title>Node1&#45;&gt;Node11</title>
<g id="a_edge11_Node000001_Node000011"><a xlink:title=" ">
<path fill="none" stroke="#63b8ff" d="M108.39,-246.51C127.02,-242.11 149.06,-236.9 168.75,-232.24"/>
<polygon fill="#63b8ff" stroke="#63b8ff" points="169.49,-235.43 178.41,-229.72 167.88,-228.62 169.49,-235.43"/>
</a>
</g>
</g>
<!-- Node12 -->
<g id="Node000012" class="node">
<title>Node12</title>
<g id="a_Node000012"><a xlink:href="../../de/db8/namespace_slic3r.html#ae3e26c4508734b43df854171d8b54447" target="_top" xlink:title=" ">
<polygon fill="white" stroke="#666666" points="263.38,-303.25 182.88,-303.25 182.88,-284 263.38,-284 263.38,-303.25"/>
<text text-anchor="middle" x="223.12" y="-289.75" font-family="Helvetica,sans-Serif" font-size="10.00">Slic3r::opening</text>
</a>
</g>
</g>
<!-- Node1&#45;&gt;Node12 -->
<g id="edge12_Node000001_Node000012" class="edge">
<title>Node1&#45;&gt;Node12</title>
<g id="a_edge12_Node000001_Node000012"><a xlink:title=" ">
<path fill="none" stroke="#63b8ff" d="M108.39,-266.74C128.12,-271.4 151.67,-276.97 172.2,-281.82"/>
<polygon fill="#63b8ff" stroke="#63b8ff" points="171.1,-285.39 181.63,-284.29 172.71,-278.58 171.1,-285.39"/>
</a>
</g>
</g>
<!-- Node13 -->
<g id="Node000013" class="node">
<title>Node13</title>
<g id="a_Node000013"><a xlink:href="../../de/db8/namespace_slic3r.html#ad98d2263cd1df58bb3b7b4429f70d3cc" target="_top" xlink:title=" ">
<polygon fill="white" stroke="#666666" points="281,-192.25 165.25,-192.25 165.25,-173 281,-173 281,-192.25"/>
<text text-anchor="middle" x="223.12" y="-178.75" font-family="Helvetica,sans-Serif" font-size="10.00">Slic3r::polygons_rotate</text>
</a>
</g>
</g>
<!-- Node1&#45;&gt;Node13 -->
<g id="edge14_Node000001_Node000013" class="edge">
<title>Node1&#45;&gt;Node13</title>
<g id="a_edge14_Node000001_Node000013"><a xlink:title=" ">
<path fill="none" stroke="#63b8ff" d="M80.99,-246.67C100.13,-234.58 134.12,-214.13 165.25,-200.62 168.83,-199.07 172.6,-197.58 176.41,-196.18"/>
<polygon fill="#63b8ff" stroke="#63b8ff" points="177.23,-199.25 185.52,-192.65 174.92,-192.64 177.23,-199.25"/>
</a>
</g>
</g>
<!-- Node18 -->
<g id="Node000018" class="node">
<title>Node18</title>
<g id="a_Node000018"><a xlink:href="../../d4/df0/_array_cwise_unary_ops_8h.html#ac805f9c4e64d7f48898ac876c0a541e7" target="_top" xlink:title=" ">
<polygon fill="white" stroke="#666666" points="243.12,-155.25 203.12,-155.25 203.12,-136 243.12,-136 243.12,-155.25"/>
<text text-anchor="middle" x="223.12" y="-141.75" font-family="Helvetica,sans-Serif" font-size="10.00">round</text>
</a>
</g>
</g>
<!-- Node1&#45;&gt;Node18 -->
<g id="edge19_Node000001_Node000018" class="edge">
<title>Node1&#45;&gt;Node18</title>
<g id="a_edge19_Node000001_Node000018"><a xlink:title=" ">
<path fill="none" stroke="#63b8ff" d="M73.59,-246.69C89.22,-227.82 125.82,-186.66 165.25,-163.62 173.51,-158.8 183.22,-155.11 192.26,-152.37"/>
<polygon fill="#63b8ff" stroke="#63b8ff" points="193.08,-155.5 201.8,-149.48 191.23,-148.74 193.08,-155.5"/>
</a>
</g>
</g>
<!-- Node19 -->
<g id="Node000019" class="node">
<title>Node19</title>
<g id="a_Node000019"><a xlink:href="../../d6/d4f/_block_methods_8h.html#a3c8d2bfe6f857a2a270b78759487e3a8" target="_top" xlink:title="This is the const version of segment(Index,Index).">
<polygon fill="white" stroke="#666666" points="249.88,-118.25 196.38,-118.25 196.38,-99 249.88,-99 249.88,-118.25"/>
<text text-anchor="middle" x="223.12" y="-104.75" font-family="Helvetica,sans-Serif" font-size="10.00">segment</text>
</a>
</g>
</g>
<!-- Node1&#45;&gt;Node19 -->
<g id="edge20_Node000001_Node000019" class="edge">
<title>Node1&#45;&gt;Node19</title>
<g id="a_edge20_Node000001_Node000019"><a xlink:title=" ">
<path fill="none" stroke="#63b8ff" d="M70.41,-246.84C82.7,-222.71 117.76,-159.94 165.25,-126.62 171.35,-122.35 178.5,-119.06 185.64,-116.53"/>
<polygon fill="#63b8ff" stroke="#63b8ff" points="186.44,-119.64 194.97,-113.35 184.38,-112.95 186.44,-119.64"/>
</a>
</g>
</g>
<!-- Node20 -->
<g id="Node000020" class="node">
<title>Node20</title>
<g id="a_Node000020"><a xlink:href="../../de/db8/namespace_slic3r.html#a52e534c040f90def3ba966219488ca87" target="_top" xlink:title=" ">
<polygon fill="white" stroke="#666666" points="259.62,-266.25 186.62,-266.25 186.62,-247 259.62,-247 259.62,-266.25"/>
<text text-anchor="middle" x="223.12" y="-252.75" font-family="Helvetica,sans-Serif" font-size="10.00">Slic3r::shrink</text>
</a>
</g>
</g>
<!-- Node1&#45;&gt;Node20 -->
<g id="edge21_Node000001_Node000020" class="edge">
<title>Node1&#45;&gt;Node20</title>
<g id="a_edge21_Node000001_Node000020"><a xlink:title=" ">
<path fill="none" stroke="#63b8ff" d="M129.73,-256.62C145.07,-256.62 161.15,-256.62 175.53,-256.62"/>
<polygon fill="#63b8ff" stroke="#63b8ff" points="175.14,-260.13 185.14,-256.62 175.14,-253.13 175.14,-260.13"/>
</a>
</g>
</g>
<!-- Node46 -->
<g id="Node000046" class="node">
<title>Node46</title>
<g id="a_Node000046"><a xlink:href="../../de/db8/namespace_slic3r.html#a61e88a2d1ff0bec5ec86a23273dda52a" target="_top" xlink:title=" ">
<polygon fill="white" stroke="#666666" points="263.38,-81.25 182.88,-81.25 182.88,-62 263.38,-62 263.38,-81.25"/>
<text text-anchor="middle" x="223.12" y="-67.75" font-family="Helvetica,sans-Serif" font-size="10.00">Slic3r::to_lines</text>
</a>
</g>
</g>
<!-- Node1&#45;&gt;Node46 -->
<g id="edge49_Node000001_Node000046" class="edge">
<title>Node1&#45;&gt;Node46</title>
<g id="a_edge49_Node000001_Node000046"><a xlink:title=" ">
<path fill="none" stroke="#63b8ff" d="M68.74,-246.65C78.24,-217.82 109.67,-133.63 165.25,-89.62 167.57,-87.79 170.08,-86.14 172.7,-84.66"/>
<polygon fill="#63b8ff" stroke="#63b8ff" points="174.06,-87.42 181.61,-79.98 171.07,-81.08 174.06,-87.42"/>
</a>
</g>
</g>
<!-- Node3 -->
<g id="Node000003" class="node">
<title>Node3</title>
<g id="a_Node000003"><a xlink:href="../../d7/dcc/class_slic3r_1_1_fill.html#a5e6b2460dd2db46764168006bab78550" target="_top" xlink:title=" ">
<polygon fill="white" stroke="#666666" points="426.38,-571.88 334.62,-571.88 334.62,-541.38 426.38,-541.38 426.38,-571.88"/>
<text text-anchor="start" x="342.62" y="-558.38" font-family="Helvetica,sans-Serif" font-size="10.00">Slic3r::Fill::_layer</text>
<text text-anchor="middle" x="380.5" y="-547.12" font-family="Helvetica,sans-Serif" font-size="10.00">_angle</text>
</a>
</g>
</g>
<!-- Node2&#45;&gt;Node3 -->
<g id="edge2_Node000002_Node000003" class="edge">
<title>Node2&#45;&gt;Node3</title>
<g id="a_edge2_Node000002_Node000003"><a xlink:title=" ">
<path fill="none" stroke="#63b8ff" d="M243.95,-483.23C262.21,-497.11 290.42,-517.38 317,-531.62 320.09,-533.28 323.31,-534.89 326.6,-536.45"/>
<polygon fill="#63b8ff" stroke="#63b8ff" points="325,-540.02 335.56,-540.93 327.87,-533.63 325,-540.02"/>
</a>
</g>
</g>
<!-- Node4 -->
<g id="Node000004" class="node">
<title>Node4</title>
<g id="a_Node000004"><a xlink:href="../../d7/dd1/class_slic3r_1_1_multi_point.html#a2dc255f9d4b74063817ab337cf113535" target="_top" xlink:title=" ">
<polygon fill="white" stroke="#666666" points="425.62,-522.88 335.38,-522.88 335.38,-492.38 425.62,-492.38 425.62,-522.88"/>
<text text-anchor="start" x="343.38" y="-509.38" font-family="Helvetica,sans-Serif" font-size="10.00">Slic3r::MultiPoint</text>
<text text-anchor="middle" x="380.5" y="-498.12" font-family="Helvetica,sans-Serif" font-size="10.00">::bounding_box</text>
</a>
</g>
</g>
<!-- Node2&#45;&gt;Node4 -->
<g id="edge3_Node000002_Node000004" class="edge">
<title>Node2&#45;&gt;Node4</title>
<g id="a_edge3_Node000002_Node000004"><a xlink:title=" ">
<path fill="none" stroke="#63b8ff" d="M267.41,-478.77C285.13,-483.33 305.84,-488.66 324.61,-493.49"/>
<polygon fill="#63b8ff" stroke="#63b8ff" points="323.54,-497.09 334.1,-496.19 325.29,-490.31 323.54,-497.09"/>
</a>
</g>
</g>
<!-- Node5 -->
<g id="Node000005" class="node">
<title>Node5</title>
<g id="a_Node000005"><a xlink:href="../../dc/d28/class_slic3r_1_1_bounding_box_base.html#a742ed443778220e8188e5bcd38253a5e" target="_top" xlink:title=" ">
<polygon fill="white" stroke="#666666" points="444,-473.88 317,-473.88 317,-443.38 444,-443.38 444,-473.88"/>
<text text-anchor="start" x="325" y="-460.38" font-family="Helvetica,sans-Serif" font-size="10.00">Slic3r::BoundingBoxBase</text>
<text text-anchor="middle" x="380.5" y="-449.12" font-family="Helvetica,sans-Serif" font-size="10.00">::center</text>
</a>
</g>
</g>
<!-- Node2&#45;&gt;Node5 -->
<g id="edge4_Node000002_Node000005" class="edge">
<title>Node2&#45;&gt;Node5</title>
<g id="a_edge4_Node000002_Node000005"><a xlink:title=" ">
<path fill="none" stroke="#63b8ff" d="M267.41,-465.12C279.33,-464.43 292.61,-463.66 305.74,-462.9"/>
<polygon fill="#63b8ff" stroke="#63b8ff" points="305.92,-466.33 315.71,-462.26 305.52,-459.35 305.92,-466.33"/>
</a>
</g>
</g>
<!-- Node6 -->
<g id="Node000006" class="node">
<title>Node6</title>
<g id="a_Node000006"><a xlink:href="../../de/db8/namespace_slic3r.html#aecabe174ebbb0e9cc7be41dafc297ef7" target="_top" xlink:title=" ">
<polygon fill="white" stroke="#666666" points="417.38,-425.25 343.62,-425.25 343.62,-406 417.38,-406 417.38,-425.25"/>
<text text-anchor="middle" x="380.5" y="-411.75" font-family="Helvetica,sans-Serif" font-size="10.00">Slic3r::empty</text>
</a>
</g>
</g>
<!-- Node2&#45;&gt;Node6 -->
<g id="edge5_Node000002_Node000006" class="edge">
<title>Node2&#45;&gt;Node6</title>
<g id="a_edge5_Node000002_Node000006"><a xlink:title=" ">
<path fill="none" stroke="#63b8ff" d="M266.98,-451.93C282.67,-446.31 300.59,-440.03 317,-434.62 322.87,-432.69 329.06,-430.72 335.19,-428.82"/>
<polygon fill="#63b8ff" stroke="#63b8ff" points="335.82,-431.98 344.35,-425.69 333.76,-425.29 335.82,-431.98"/>
</a>
</g>
</g>
<!-- Node7&#45;&gt;Node7 -->
<g id="edge7_Node000007_Node000007" class="edge">
<title>Node7&#45;&gt;Node7</title>
<g id="a_edge7_Node000007_Node000007"><a xlink:title=" ">
<path fill="none" stroke="#63b8ff" d="M198.49,-416.54C187.25,-425.15 195.46,-434.25 223.12,-434.25 239.55,-434.25 249.12,-431.04 251.83,-426.63"/>
<polygon fill="#63b8ff" stroke="#63b8ff" points="254.75,-425.51 247.76,-417.54 248.25,-428.12 254.75,-425.51"/>
</a>
</g>
</g>
<!-- Node9 -->
<g id="Node000009" class="node">
<title>Node9</title>
<g id="a_Node000009"><a xlink:href="../../de/db8/namespace_slic3r.html#a440bb1d57671f454ad4fab4f192430cf" target="_top" xlink:title=" ">
<polygon fill="white" stroke="#666666" points="420.75,-340.25 340.25,-340.25 340.25,-321 420.75,-321 420.75,-340.25"/>
<text text-anchor="middle" x="380.5" y="-326.75" font-family="Helvetica,sans-Serif" font-size="10.00">Slic3r::_clipper</text>
</a>
</g>
</g>
<!-- Node8&#45;&gt;Node9 -->
<g id="edge9_Node000008_Node000009" class="edge">
<title>Node8&#45;&gt;Node9</title>
<g id="a_edge9_Node000008_Node000009"><a xlink:title=" ">
<path fill="none" stroke="#63b8ff" d="M272.01,-330.62C290.11,-330.62 310.76,-330.62 329.09,-330.62"/>
<polygon fill="#63b8ff" stroke="#63b8ff" points="328.86,-334.13 338.86,-330.62 328.86,-327.13 328.86,-334.13"/>
</a>
</g>
</g>
<!-- Node9&#45;&gt;Node10 -->
<g id="edge10_Node000009_Node000010" class="edge">
<title>Node9&#45;&gt;Node10</title>
<g id="a_edge10_Node000009_Node000010"><a xlink:title=" ">
<path fill="none" stroke="#63b8ff" d="M420.93,-325.53C435.73,-323.62 452.9,-321.4 469.13,-319.31"/>
<polygon fill="#63b8ff" stroke="#63b8ff" points="469.15,-322.71 478.62,-317.95 468.25,-315.76 469.15,-322.71"/>
</a>
</g>
</g>
<!-- Node12&#45;&gt;Node10 -->
<g id="edge13_Node000012_Node000010" class="edge">
<title>Node12&#45;&gt;Node10</title>
<g id="a_edge13_Node000012_Node000010"><a xlink:title=" ">
<path fill="none" stroke="#63b8ff" d="M263.62,-295.96C315.73,-299.04 407.94,-304.49 468.68,-308.08"/>
<polygon fill="#63b8ff" stroke="#63b8ff" points="468.44,-311.63 478.63,-308.73 468.86,-304.64 468.44,-311.63"/>
</a>
</g>
</g>
<!-- Node14 -->
<g id="Node000014" class="node">
<title>Node14</title>
<g id="a_Node000014"><a xlink:href="../../de/db8/namespace_slic3r.html#a7927d0ca1b31b8f9284ea268b11d27d5" target="_top" xlink:title=" ">
<polygon fill="white" stroke="#666666" points="415.5,-227.25 345.5,-227.25 345.5,-208 415.5,-208 415.5,-227.25"/>
<text text-anchor="middle" x="380.5" y="-213.75" font-family="Helvetica,sans-Serif" font-size="10.00">Slic3r::angle</text>
</a>
</g>
</g>
<!-- Node13&#45;&gt;Node14 -->
<g id="edge15_Node000013_Node000014" class="edge">
<title>Node13&#45;&gt;Node14</title>
<g id="a_edge15_Node000013_Node000014"><a xlink:title=" ">
<path fill="none" stroke="#63b8ff" d="M269.07,-192.75C289.58,-197.37 313.82,-202.83 334.36,-207.46"/>
<polygon fill="#63b8ff" stroke="#63b8ff" points="333.5,-211.08 344.03,-209.86 335.04,-204.25 333.5,-211.08"/>
</a>
</g>
</g>
<!-- Node16 -->
<g id="Node000016" class="node">
<title>Node16</title>
<g id="a_Node000016"><a xlink:href="../../d4/df0/_array_cwise_unary_ops_8h.html#a92b03396990b0e9eea0731aa406e31a4" target="_top" xlink:title=" ">
<polygon fill="white" stroke="#666666" points="396.38,-190.25 364.62,-190.25 364.62,-171 396.38,-171 396.38,-190.25"/>
<text text-anchor="middle" x="380.5" y="-176.75" font-family="Helvetica,sans-Serif" font-size="10.00">cos</text>
</a>
</g>
</g>
<!-- Node13&#45;&gt;Node16 -->
<g id="edge17_Node000013_Node000016" class="edge">
<title>Node13&#45;&gt;Node16</title>
<g id="a_edge17_Node000013_Node000016"><a xlink:title=" ">
<path fill="none" stroke="#63b8ff" d="M281.1,-181.89C305.89,-181.57 333.71,-181.21 353.43,-180.96"/>
<polygon fill="#63b8ff" stroke="#63b8ff" points="353.34,-184.45 363.29,-180.82 353.25,-177.45 353.34,-184.45"/>
</a>
</g>
</g>
<!-- Node17 -->
<g id="Node000017" class="node">
<title>Node17</title>
<g id="a_Node000017"><a xlink:href="../../d4/df0/_array_cwise_unary_ops_8h.html#a9cfb0ea58bd813510a9e2db18a5e49f0" target="_top" xlink:title=" ">
<polygon fill="white" stroke="#666666" points="394.9,-153.25 366.1,-153.25 366.1,-134 394.9,-134 394.9,-153.25"/>
<text text-anchor="middle" x="380.5" y="-139.75" font-family="Helvetica,sans-Serif" font-size="10.00">sin</text>
</a>
</g>
</g>
<!-- Node13&#45;&gt;Node17 -->
<g id="edge18_Node000013_Node000017" class="edge">
<title>Node13&#45;&gt;Node17</title>
<g id="a_edge18_Node000013_Node000017"><a xlink:title=" ">
<path fill="none" stroke="#63b8ff" d="M264.14,-172.58C293.01,-165.33 331.05,-155.79 355.4,-149.67"/>
<polygon fill="#63b8ff" stroke="#63b8ff" points="356,-152.88 364.84,-147.05 354.29,-146.09 356,-152.88"/>
</a>
</g>
</g>
<!-- Node15 -->
<g id="Node000015" class="node">
<title>Node15</title>
<g id="a_Node000015"><a xlink:href="../../de/db8/namespace_slic3r.html#a2cd973ab8e7af30bd57721dfc2859b8f" target="_top" xlink:title=" ">
<polygon fill="white" stroke="#666666" points="567.62,-227.25 491.62,-227.25 491.62,-208 567.62,-208 567.62,-227.25"/>
<text text-anchor="middle" x="529.62" y="-213.75" font-family="Helvetica,sans-Serif" font-size="10.00">Slic3r::cross2</text>
</a>
</g>
</g>
<!-- Node14&#45;&gt;Node15 -->
<g id="edge16_Node000014_Node000015" class="edge">
<title>Node14&#45;&gt;Node15</title>
<g id="a_edge16_Node000014_Node000015"><a xlink:title=" ">
<path fill="none" stroke="#63b8ff" d="M415.99,-217.62C435.14,-217.62 459.27,-217.62 480.28,-217.62"/>
<polygon fill="#63b8ff" stroke="#63b8ff" points="480.25,-221.13 490.25,-217.62 480.25,-214.13 480.25,-221.13"/>
</a>
</g>
</g>
<!-- Node21 -->
<g id="Node000021" class="node">
<title>Node21</title>
<g id="a_Node000021"><a xlink:href="../../de/db8/namespace_slic3r.html#a5ec552d076296fd705739c608edc1580" target="_top" xlink:title=" ">
<polygon fill="white" stroke="#666666" points="416.25,-264.25 344.75,-264.25 344.75,-245 416.25,-245 416.25,-264.25"/>
<text text-anchor="middle" x="380.5" y="-250.75" font-family="Helvetica,sans-Serif" font-size="10.00">Slic3r::offset</text>
</a>
</g>
</g>
<!-- Node20&#45;&gt;Node21 -->
<g id="edge22_Node000020_Node000021" class="edge">
<title>Node20&#45;&gt;Node21</title>
<g id="a_edge22_Node000020_Node000021"><a xlink:title=" ">
<path fill="none" stroke="#63b8ff" d="M259.77,-256.17C281.66,-255.88 309.92,-255.52 333.49,-255.22"/>
<polygon fill="#63b8ff" stroke="#63b8ff" points="333.33,-258.71 343.29,-255.08 333.24,-251.71 333.33,-258.71"/>
</a>
</g>
</g>
<!-- Node21&#45;&gt;Node10 -->
<g id="edge48_Node000021_Node000010" class="edge">
<title>Node21&#45;&gt;Node10</title>
<g id="a_edge48_Node000021_Node000010"><a xlink:title=" ">
<path fill="none" stroke="#63b8ff" d="M407.66,-264.64C418.86,-268.93 432.08,-274.01 444,-278.62 460.13,-284.87 477.97,-291.82 493.1,-297.73"/>
<polygon fill="#63b8ff" stroke="#63b8ff" points="491.5,-301.25 502.09,-301.63 494.05,-294.73 491.5,-301.25"/>
</a>
</g>
</g>
<!-- Node22 -->
<g id="Node000022" class="node">
<title>Node22</title>
<g id="a_Node000022"><a xlink:href="../../de/db8/namespace_slic3r.html#af7cda13fb4a1d706c356d6326e791e5e" target="_top" xlink:title=" ">
<polygon fill="white" stroke="#666666" points="575.88,-264.25 483.38,-264.25 483.38,-245 575.88,-245 575.88,-264.25"/>
<text text-anchor="middle" x="529.62" y="-250.75" font-family="Helvetica,sans-Serif" font-size="10.00">Slic3r::raw_offset</text>
</a>
</g>
</g>
<!-- Node21&#45;&gt;Node22 -->
<g id="edge23_Node000021_Node000022" class="edge">
<title>Node21&#45;&gt;Node22</title>
<g id="a_edge23_Node000021_Node000022"><a xlink:title=" ">
<path fill="none" stroke="#63b8ff" d="M416.74,-248.77C433.37,-247.91 453.62,-247.67 472.3,-248.04"/>
<polygon fill="#63b8ff" stroke="#63b8ff" points="471.99,-251.56 482.08,-248.33 472.18,-244.56 471.99,-251.56"/>
</a>
</g>
</g>
<!-- Node22&#45;&gt;Node21 -->
<g id="edge44_Node000022_Node000021" class="edge">
<title>Node22&#45;&gt;Node21</title>
<g id="a_edge44_Node000022_Node000021"><a xlink:title=" ">
<path fill="none" stroke="#63b8ff" d="M483.08,-260.92C465.47,-261.52 445.34,-261.53 427.66,-260.94"/>
<polygon fill="#63b8ff" stroke="#63b8ff" points="427.88,-257.4 417.74,-260.48 427.59,-264.4 427.88,-257.4"/>
</a>
</g>
</g>
<!-- Node23 -->
<g id="Node000023" class="node">
<title>Node23</title>
<g id="a_Node000023"><a xlink:href="../../d5/d7d/class_clipper_lib_1_1_clipper_offset.html#a0cd68e3690072f510924a5b25291043b" target="_top" xlink:title=" ">
<polygon fill="white" stroke="#666666" points="897.75,-465.88 774.5,-465.88 774.5,-435.38 897.75,-435.38 897.75,-465.88"/>
<text text-anchor="start" x="782.5" y="-452.38" font-family="Helvetica,sans-Serif" font-size="10.00">ClipperLib::ClipperOffset</text>
<text text-anchor="middle" x="836.12" y="-441.12" font-family="Helvetica,sans-Serif" font-size="10.00">::AddPath</text>
</a>
</g>
</g>
<!-- Node22&#45;&gt;Node23 -->
<g id="edge24_Node000022_Node000023" class="edge">
<title>Node22&#45;&gt;Node23</title>
<g id="a_edge24_Node000022_Node000023"><a xlink:title=" ">
<path fill="none" stroke="#63b8ff" d="M543.94,-264.55C587.52,-296.93 725.86,-398.97 774.5,-425.62 777.55,-427.29 780.73,-428.92 783.96,-430.49"/>
<polygon fill="#63b8ff" stroke="#63b8ff" points="782.24,-434.01 792.79,-435.02 785.17,-427.65 782.24,-434.01"/>
</a>
</g>
</g>
<!-- Node27 -->
<g id="Node000027" class="node">
<title>Node27</title>
<g id="a_Node000027"><a xlink:href="../../de/db8/namespace_slic3r.html#ad61bb7f1e4b8aaa434964420b9bedf32" target="_top" xlink:title=" ">
<polygon fill="white" stroke="#666666" points="716,-221.25 637.75,-221.25 637.75,-202 716,-202 716,-221.25"/>
<text text-anchor="middle" x="676.88" y="-207.75" font-family="Helvetica,sans-Serif" font-size="10.00">Slic3r::append</text>
</a>
</g>
</g>
<!-- Node22&#45;&gt;Node27 -->
<g id="edge29_Node000022_Node000027" class="edge">
<title>Node22&#45;&gt;Node27</title>
<g id="a_edge29_Node000022_Node000027"><a xlink:title=" ">
<path fill="none" stroke="#63b8ff" d="M564.68,-244.54C584.55,-238.66 609.85,-231.17 631.29,-224.82"/>
<polygon fill="#63b8ff" stroke="#63b8ff" points="632.19,-227.91 640.78,-221.72 630.2,-221.2 632.19,-227.91"/>
</a>
</g>
</g>
<!-- Node28 -->
<g id="Node000028" class="node">
<title>Node28</title>
<g id="a_Node000028"><a xlink:href="../../d5/d7d/class_clipper_lib_1_1_clipper_offset.html#ab444433587b6a3f6c89655938d889c7d" target="_top" xlink:title=" ">
<polygon fill="white" stroke="#666666" points="738.5,-469.88 615.25,-469.88 615.25,-439.38 738.5,-439.38 738.5,-469.88"/>
<text text-anchor="start" x="623.25" y="-456.38" font-family="Helvetica,sans-Serif" font-size="10.00">ClipperLib::ClipperOffset</text>
<text text-anchor="middle" x="676.88" y="-445.12" font-family="Helvetica,sans-Serif" font-size="10.00">::Clear</text>
</a>
</g>
</g>
<!-- Node22&#45;&gt;Node28 -->
<g id="edge30_Node000022_Node000028" class="edge">
<title>Node22&#45;&gt;Node28</title>
<g id="a_edge30_Node000022_Node000028"><a xlink:title=" ">
<path fill="none" stroke="#63b8ff" d="M547.89,-264.72C558.2,-271.49 570.86,-281.24 579.25,-292.62 606.03,-328.98 591.69,-349.1 615.25,-387.62 625.05,-403.65 638.95,-419.35 650.97,-431.51"/>
<polygon fill="#63b8ff" stroke="#63b8ff" points="647.95,-433.44 657.53,-437.97 652.87,-428.46 647.95,-433.44"/>
</a>
</g>
</g>
<!-- Node29 -->
<g id="Node000029" class="node">
<title>Node29</title>
<g id="a_Node000029"><a xlink:href="../../d5/d7d/class_clipper_lib_1_1_clipper_offset.html#ac591b25e483a52c99c3190a256ad4589" target="_top" xlink:title=" ">
<polygon fill="white" stroke="#666666" points="738.5,-269.88 615.25,-269.88 615.25,-239.38 738.5,-239.38 738.5,-269.88"/>
<text text-anchor="start" x="623.25" y="-256.38" font-family="Helvetica,sans-Serif" font-size="10.00">ClipperLib::ClipperOffset</text>
<text text-anchor="middle" x="676.88" y="-245.12" font-family="Helvetica,sans-Serif" font-size="10.00">::Execute</text>
</a>
</g>
</g>
<!-- Node22&#45;&gt;Node29 -->
<g id="edge32_Node000022_Node000029" class="edge">
<title>Node22&#45;&gt;Node29</title>
<g id="a_edge32_Node000022_Node000029"><a xlink:title=" ">
<path fill="none" stroke="#63b8ff" d="M576.18,-254.62C584.97,-254.62 594.38,-254.62 603.78,-254.62"/>
<polygon fill="#63b8ff" stroke="#63b8ff" points="603.77,-258.13 613.77,-254.62 603.77,-251.13 603.77,-258.13"/>
</a>
</g>
</g>
<!-- Node44 -->
<g id="Node000044" class="node">
<title>Node44</title>
<g id="a_Node000044"><a xlink:href="../../de/d37/namespace_clipper_lib.html#a806a3d33d76bb9d4479d384f876ce8bd" target="_top" xlink:title=" ">
<polygon fill="white" stroke="#666666" points="733.25,-102.25 620.5,-102.25 620.5,-83 733.25,-83 733.25,-102.25"/>
<text text-anchor="middle" x="676.88" y="-88.75" font-family="Helvetica,sans-Serif" font-size="10.00">ClipperLib::Orientation</text>
</a>
</g>
</g>
<!-- Node22&#45;&gt;Node44 -->
<g id="edge45_Node000022_Node000044" class="edge">
<title>Node22&#45;&gt;Node44</title>
<g id="a_edge45_Node000022_Node000044"><a xlink:title=" ">
<path fill="none" stroke="#63b8ff" d="M566.04,-244.54C570.74,-242.36 575.29,-239.74 579.25,-236.62 601.96,-218.74 644.97,-146.65 665.05,-111.75"/>
<polygon fill="#63b8ff" stroke="#63b8ff" points="668.36,-114.01 670.28,-103.59 662.28,-110.53 668.36,-114.01"/>
</a>
</g>
</g>
<!-- Node24 -->
<g id="Node000024" class="node">
<title>Node24</title>
<g id="a_Node000024"><a xlink:href="../../d2/df1/class_clipper_lib_1_1_poly_node.html#a88b3923dabfc527b5eb28ca29005193d" target="_top" xlink:title=" ">
<polygon fill="white" stroke="#666666" points="1042.75,-465.88 934.5,-465.88 934.5,-435.38 1042.75,-435.38 1042.75,-465.88"/>
<text text-anchor="start" x="942.5" y="-452.38" font-family="Helvetica,sans-Serif" font-size="10.00">ClipperLib::PolyNode</text>
<text text-anchor="middle" x="988.62" y="-441.12" font-family="Helvetica,sans-Serif" font-size="10.00">::AddChild</text>
</a>
</g>
</g>
<!-- Node23&#45;&gt;Node24 -->
<g id="edge25_Node000023_Node000024" class="edge">
<title>Node23&#45;&gt;Node24</title>
<g id="a_edge25_Node000023_Node000024"><a xlink:title=" ">
<path fill="none" stroke="#63b8ff" d="M897.91,-450.62C906.3,-450.62 914.95,-450.62 923.4,-450.62"/>
<polygon fill="#63b8ff" stroke="#63b8ff" points="923.37,-454.13 933.37,-450.62 923.37,-447.13 923.37,-454.13"/>
</a>
</g>
</g>
<!-- Node25 -->
<g id="Node000025" class="node">
<title>Node25</title>
<g id="a_Node000025"><a xlink:href="../../d2/df1/class_clipper_lib_1_1_poly_node.html#a19128db6fb2aca66555231edaffa7ade" target="_top" xlink:title=" ">
<polygon fill="white" stroke="#666666" points="1042.75,-416.88 934.5,-416.88 934.5,-386.38 1042.75,-386.38 1042.75,-416.88"/>
<text text-anchor="start" x="942.5" y="-403.38" font-family="Helvetica,sans-Serif" font-size="10.00">ClipperLib::PolyNode</text>
<text text-anchor="middle" x="988.62" y="-392.12" font-family="Helvetica,sans-Serif" font-size="10.00">::ChildCount</text>
</a>
</g>
</g>
<!-- Node23&#45;&gt;Node25 -->
<g id="edge26_Node000023_Node000025" class="edge">
<title>Node23&#45;&gt;Node25</title>
<g id="a_edge26_Node000023_Node000025"><a xlink:title=" ">
<path fill="none" stroke="#63b8ff" d="M885.16,-434.99C899.07,-430.46 914.42,-425.46 928.91,-420.74"/>
<polygon fill="#63b8ff" stroke="#63b8ff" points="929.85,-423.79 938.27,-417.37 927.68,-417.14 929.85,-423.79"/>
</a>
</g>
</g>
<!-- Node26 -->
<g id="Node000026" class="node">
<title>Node26</title>
<g id="a_Node000026"><a xlink:href="../../de/d37/namespace_clipper_lib.html#aa19efa11130fc74091ca1f62e48c0fad" target="_top" xlink:title=" ">
<polygon fill="white" stroke="#666666" points="1043.5,-264.25 933.75,-264.25 933.75,-245 1043.5,-245 1043.5,-264.25"/>
<text text-anchor="middle" x="988.62" y="-250.75" font-family="Helvetica,sans-Serif" font-size="10.00">ClipperLib::IntPoint2d</text>
</a>
</g>
</g>
<!-- Node23&#45;&gt;Node26 -->
<g id="edge27_Node000023_Node000026" class="edge">
<title>Node23&#45;&gt;Node26</title>
<g id="a_edge27_Node000023_Node000026"><a xlink:title=" ">
<path fill="none" stroke="#63b8ff" d="M884.77,-434.88C889.44,-432.22 893.88,-429.15 897.75,-425.62 922.11,-403.43 962.03,-314.54 979.27,-274.43"/>
<polygon fill="#63b8ff" stroke="#63b8ff" points="982.8,-276.08 983.5,-265.51 976.36,-273.34 982.8,-276.08"/>
</a>
</g>
</g>
<!-- Node26&#45;&gt;Node26 -->
<g id="edge28_Node000026_Node000026" class="edge">
<title>Node26&#45;&gt;Node26</title>
<g id="a_edge28_Node000026_Node000026"><a xlink:title=" ">
<path fill="none" stroke="#63b8ff" d="M964.75,-264.54C953.86,-273.15 961.82,-282.25 988.62,-282.25 1004.54,-282.25 1013.81,-279.04 1016.44,-274.63"/>
<polygon fill="#63b8ff" stroke="#63b8ff" points="1019.4,-273.58 1012.5,-265.54 1012.88,-276.13 1019.4,-273.58"/>
</a>
</g>
</g>
<!-- Node28&#45;&gt;Node25 -->
<g id="edge31_Node000028_Node000025" class="edge">
<title>Node28&#45;&gt;Node25</title>
<g id="a_edge31_Node000028_Node000025"><a xlink:title=" ">
<path fill="none" stroke="#63b8ff" d="M717.54,-470.3C763.46,-485.81 840.15,-503.42 897.75,-474.62 921.6,-462.7 913.03,-443.41 933.75,-426.62 935.34,-425.33 937.01,-424.09 938.74,-422.9"/>
<polygon fill="#63b8ff" stroke="#63b8ff" points="940.05,-425.59 946.73,-417.36 936.38,-419.63 940.05,-425.59"/>
</a>
</g>
</g>
<!-- Node29&#45;&gt;Node26 -->
<g id="edge42_Node000029_Node000026" class="edge">
<title>Node29&#45;&gt;Node26</title>
<g id="a_edge42_Node000029_Node000026"><a xlink:title=" ">
<path fill="none" stroke="#63b8ff" d="M728.06,-238.94C731.87,-236.54 735.42,-233.79 738.5,-230.62 770.9,-197.41 736.45,-159.18 774.5,-132.62 819.42,-101.27 848.86,-107.92 897.75,-132.62 940.03,-153.99 967.3,-205.68 979.76,-234.44"/>
<polygon fill="#63b8ff" stroke="#63b8ff" points="976.89,-235.66 983.94,-243.57 983.36,-232.99 976.89,-235.66"/>
</a>
</g>
</g>
<!-- Node30 -->
<g id="Node000030" class="node">
<title>Node30</title>
<g id="a_Node000030"><a xlink:href="../../d4/d88/class_clipper_lib_1_1_clipper_base.html#a7545ac6e146894dc8416887eadd01dba" target="_top" xlink:title=" ">
<polygon fill="white" stroke="#666666" points="895.5,-220.88 776.75,-220.88 776.75,-190.38 895.5,-190.38 895.5,-220.88"/>
<text text-anchor="start" x="784.75" y="-207.38" font-family="Helvetica,sans-Serif" font-size="10.00">ClipperLib::ClipperBase</text>
<text text-anchor="middle" x="836.12" y="-196.12" font-family="Helvetica,sans-Serif" font-size="10.00">::AddPath</text>
</a>
</g>
</g>
<!-- Node29&#45;&gt;Node30 -->
<g id="edge33_Node000029_Node000030" class="edge">
<title>Node29&#45;&gt;Node30</title>
<g id="a_edge33_Node000029_Node000030"><a xlink:title=" ">
<path fill="none" stroke="#63b8ff" d="M728.06,-238.99C742.74,-234.41 758.95,-229.36 774.22,-224.6"/>
<polygon fill="#63b8ff" stroke="#63b8ff" points="775.1,-227.68 783.61,-221.37 773.02,-221 775.1,-227.68"/>
</a>
</g>
</g>
<!-- Node31 -->
<g id="Node000031" class="node">
<title>Node31</title>
<g id="a_Node000031"><a xlink:href="../../d4/d88/class_clipper_lib_1_1_clipper_base.html#a0080250604c20179e96e2e7e13094de5" target="_top" xlink:title=" ">
<polygon fill="white" stroke="#666666" points="895.5,-171.88 776.75,-171.88 776.75,-141.38 895.5,-141.38 895.5,-171.88"/>
<text text-anchor="start" x="784.75" y="-158.38" font-family="Helvetica,sans-Serif" font-size="10.00">ClipperLib::ClipperBase</text>
<text text-anchor="middle" x="836.12" y="-147.12" font-family="Helvetica,sans-Serif" font-size="10.00">::AddPaths</text>
</a>
</g>
</g>
<!-- Node29&#45;&gt;Node31 -->
<g id="edge34_Node000029_Node000031" class="edge">
<title>Node29&#45;&gt;Node31</title>
<g id="a_edge34_Node000029_Node000031"><a xlink:title=" ">
<path fill="none" stroke="#63b8ff" d="M725.32,-238.93C729.98,-236.5 734.47,-233.74 738.5,-230.62 759.9,-214.12 753.22,-198.28 774.5,-181.62 776.18,-180.31 777.94,-179.05 779.76,-177.85"/>
<polygon fill="#63b8ff" stroke="#63b8ff" points="781.37,-180.38 788.24,-172.32 777.84,-174.34 781.37,-180.38"/>
</a>
</g>
</g>
<!-- Node32 -->
<g id="Node000032" class="node">
<title>Node32</title>
<g id="a_Node000032"><a xlink:href="../../d5/d7d/class_clipper_lib_1_1_clipper_offset.html#a6e53d56693000d64e191104d7e816070" target="_top" xlink:title=" ">
<polygon fill="#fff0f0" stroke="red" points="897.75,-269.88 774.5,-269.88 774.5,-239.38 897.75,-239.38 897.75,-269.88"/>
<text text-anchor="start" x="782.5" y="-256.38" font-family="Helvetica,sans-Serif" font-size="10.00">ClipperLib::ClipperOffset</text>
<text text-anchor="middle" x="836.12" y="-245.12" font-family="Helvetica,sans-Serif" font-size="10.00">::DoOffset</text>
</a>
</g>
</g>
<!-- Node29&#45;&gt;Node32 -->
<g id="edge35_Node000029_Node000032" class="edge">
<title>Node29&#45;&gt;Node32</title>
<g id="a_edge35_Node000029_Node000032"><a xlink:title=" ">
<path fill="none" stroke="#63b8ff" d="M738.67,-254.62C746.78,-254.62 755.16,-254.62 763.44,-254.62"/>
<polygon fill="#63b8ff" stroke="#63b8ff" points="763.23,-258.13 773.23,-254.62 763.23,-251.13 763.23,-258.13"/>
</a>
</g>
</g>
<!-- Node39 -->
<g id="Node000039" class="node">
<title>Node39</title>
<g id="a_Node000039"><a xlink:href="../../d0/d2d/class_clipper_lib_1_1_clipper.html#a2e4a15e6f79a5f583b42c9701b839e01" target="_top" xlink:title=" ">
<polygon fill="white" stroke="#666666" points="884.25,-85.88 788,-85.88 788,-55.38 884.25,-55.38 884.25,-85.88"/>
<text text-anchor="start" x="796" y="-72.38" font-family="Helvetica,sans-Serif" font-size="10.00">ClipperLib::Clipper</text>
<text text-anchor="middle" x="836.12" y="-61.12" font-family="Helvetica,sans-Serif" font-size="10.00">::Execute</text>
</a>
</g>
</g>
<!-- Node29&#45;&gt;Node39 -->
<g id="edge38_Node000029_Node000039" class="edge">
<title>Node29&#45;&gt;Node39</title>
<g id="a_edge38_Node000029_Node000039"><a xlink:title=" ">
<path fill="none" stroke="#63b8ff" d="M728.64,-239.02C732.27,-236.61 735.63,-233.83 738.5,-230.62 778.81,-185.67 735.77,-145.95 774.5,-99.62 776.71,-96.98 779.21,-94.57 781.91,-92.36"/>
<polygon fill="#63b8ff" stroke="#63b8ff" points="783.34,-94.93 789.52,-86.33 779.32,-89.2 783.34,-94.93"/>
</a>
</g>
</g>
<!-- Node40 -->
<g id="Node000040" class="node">
<title>Node40</title>
<g id="a_Node000040"><a xlink:href="../../d5/d7d/class_clipper_lib_1_1_clipper_offset.html#ad29a638d6fdae7e57f6c54ce837d513a" target="_top" xlink:title=" ">
<polygon fill="#fff0f0" stroke="red" points="897.75,-416.88 774.5,-416.88 774.5,-386.38 897.75,-386.38 897.75,-416.88"/>
<text text-anchor="start" x="782.5" y="-403.38" font-family="Helvetica,sans-Serif" font-size="10.00">ClipperLib::ClipperOffset</text>
<text text-anchor="middle" x="836.12" y="-392.12" font-family="Helvetica,sans-Serif" font-size="10.00">::FixOrientations</text>
</a>
</g>
</g>
<!-- Node29&#45;&gt;Node40 -->
<g id="edge39_Node000029_Node000040" class="edge">
<title>Node29&#45;&gt;Node40</title>
<g id="a_edge39_Node000029_Node000040"><a xlink:title=" ">
<path fill="none" stroke="#63b8ff" d="M686.6,-270.22C701.55,-295.68 734.37,-346.37 774.5,-376.62 776.38,-378.05 778.36,-379.4 780.4,-380.69"/>
<polygon fill="#63b8ff" stroke="#63b8ff" points="778.25,-384.06 788.68,-385.93 781.69,-377.96 778.25,-384.06"/>
</a>
</g>
</g>
<!-- Node42 -->
<g id="Node000042" class="node">
<title>Node42</title>
<g id="a_Node000042"><a xlink:href="../../d4/d88/class_clipper_lib_1_1_clipper_base.html#a5590a5454248ac3f6beeba7f9690f62e" target="_top" xlink:title=" ">
<polygon fill="white" stroke="#666666" points="895.5,-367.88 776.75,-367.88 776.75,-337.38 895.5,-337.38 895.5,-367.88"/>
<text text-anchor="start" x="784.75" y="-354.38" font-family="Helvetica,sans-Serif" font-size="10.00">ClipperLib::ClipperBase</text>
<text text-anchor="middle" x="836.12" y="-343.12" font-family="Helvetica,sans-Serif" font-size="10.00">::GetBounds</text>
</a>
</g>
</g>
<!-- Node29&#45;&gt;Node42 -->
<g id="edge41_Node000029_Node000042" class="edge">
<title>Node29&#45;&gt;Node42</title>
<g id="a_edge41_Node000029_Node000042"><a xlink:title=" ">
<path fill="none" stroke="#63b8ff" d="M695.43,-270.09C714.09,-285.98 744.93,-310.73 774.5,-327.62 777.33,-329.24 780.27,-330.8 783.29,-332.31"/>
<polygon fill="#63b8ff" stroke="#63b8ff" points="781.5,-335.81 792.04,-336.92 784.49,-329.48 781.5,-335.81"/>
</a>
</g>
</g>
<!-- Node43 -->
<g id="Node000043" class="node">
<title>Node43</title>
<g id="a_Node000043"><a xlink:href="../../d0/d2d/class_clipper_lib_1_1_clipper.html#a2e5dd9e3d41a70673aaa61300c2037bc" target="_top" xlink:title=" ">
<polygon fill="white" stroke="#666666" points="884.25,-318.88 788,-318.88 788,-288.38 884.25,-288.38 884.25,-318.88"/>
<text text-anchor="start" x="796" y="-305.38" font-family="Helvetica,sans-Serif" font-size="10.00">ClipperLib::Clipper</text>
<text text-anchor="middle" x="836.12" y="-294.12" font-family="Helvetica,sans-Serif" font-size="10.00">::ReverseSolution</text>
</a>
</g>
</g>
<!-- Node29&#45;&gt;Node43 -->
<g id="edge43_Node000029_Node000043" class="edge">
<title>Node29&#45;&gt;Node43</title>
<g id="a_edge43_Node000029_Node000043"><a xlink:title=" ">
<path fill="none" stroke="#63b8ff" d="M728.06,-270.26C743.69,-275.13 761.06,-280.55 777.17,-285.57"/>
<polygon fill="#63b8ff" stroke="#63b8ff" points="775.97,-289.17 786.55,-288.8 778.05,-282.49 775.97,-289.17"/>
</a>
</g>
</g>
<!-- Node32&#45;&gt;Node25 -->
<g id="edge36_Node000032_Node000025" class="edge">
<title>Node32&#45;&gt;Node25</title>
<g id="a_edge36_Node000032_Node000025"><a xlink:title=" ">
<path fill="none" stroke="#63b8ff" d="M883,-270.33C888.22,-273.03 893.27,-276.12 897.75,-279.62 931.93,-306.35 959.38,-349.28 974.57,-376.44"/>
<polygon fill="#63b8ff" stroke="#63b8ff" points="971.93,-377.9 979.79,-385.01 978.08,-374.55 971.93,-377.9"/>
</a>
</g>
</g>
<!-- Node32&#45;&gt;Node26 -->
<g id="edge37_Node000032_Node000026" class="edge">
<title>Node32&#45;&gt;Node26</title>
<g id="a_edge37_Node000032_Node000026"><a xlink:title=" ">
<path fill="none" stroke="#63b8ff" d="M897.91,-254.62C905.98,-254.62 914.29,-254.62 922.44,-254.62"/>
<polygon fill="#63b8ff" stroke="#63b8ff" points="922.41,-258.13 932.41,-254.62 922.41,-251.13 922.41,-258.13"/>
</a>
</g>
</g>
<!-- Node40&#45;&gt;Node25 -->
<g id="edge40_Node000040_Node000025" class="edge">
<title>Node40&#45;&gt;Node25</title>
<g id="a_edge40_Node000040_Node000025"><a xlink:title=" ">
<path fill="none" stroke="#63b8ff" d="M897.91,-401.62C906.3,-401.62 914.95,-401.62 923.4,-401.62"/>
<polygon fill="#63b8ff" stroke="#63b8ff" points="923.37,-405.13 933.37,-401.62 923.37,-398.13 923.37,-405.13"/>
</a>
</g>
</g>
<!-- Node45 -->
<g id="Node000045" class="node">
<title>Node45</title>
<g id="a_Node000045"><a xlink:href="../../de/d37/namespace_clipper_lib.html#a4a96cc48117e1dba6cf51bbc2d91fe97" target="_top" xlink:title=" ">
<polygon fill="white" stroke="#666666" points="879,-19.25 793.25,-19.25 793.25,0 879,0 879,-19.25"/>
<text text-anchor="middle" x="836.12" y="-5.75" font-family="Helvetica,sans-Serif" font-size="10.00">ClipperLib::Area</text>
</a>
</g>
</g>
<!-- Node44&#45;&gt;Node45 -->
<g id="edge46_Node000044_Node000045" class="edge">
<title>Node44&#45;&gt;Node45</title>
<g id="a_edge46_Node000044_Node000045"><a xlink:title=" ">
<path fill="none" stroke="#63b8ff" d="M696.84,-82.61C724.12,-68.22 774.62,-41.56 806.46,-24.75"/>
<polygon fill="#63b8ff" stroke="#63b8ff" points="807.88,-27.44 815.09,-19.67 804.61,-21.24 807.88,-27.44"/>
</a>
</g>
</g>
<!-- Node45&#45;&gt;Node45 -->
<g id="edge47_Node000045_Node000045" class="edge">
<title>Node45&#45;&gt;Node45</title>
<g id="a_edge47_Node000045_Node000045"><a xlink:title=" ">
<path fill="none" stroke="#63b8ff" d="M812.25,-19.54C801.36,-28.15 809.32,-37.25 836.12,-37.25 852.04,-37.25 861.31,-34.04 863.94,-29.63"/>
<polygon fill="#63b8ff" stroke="#63b8ff" points="866.9,-28.58 860,-20.54 860.38,-31.13 866.9,-28.58"/>
</a>
</g>
</g>
<!-- Node47 -->
<g id="Node000047" class="node">
<title>Node47</title>
<g id="a_Node000047"><a xlink:href="../../de/db8/namespace_slic3r.html#af91e5d9840641354d33cb15a5fbe16a8" target="_top" xlink:title=" ">
<polygon fill="white" stroke="#666666" points="431.62,-81.25 329.38,-81.25 329.38,-62 431.62,-62 431.62,-81.25"/>
<text text-anchor="middle" x="380.5" y="-67.75" font-family="Helvetica,sans-Serif" font-size="10.00">Slic3r::count_points</text>
</a>
</g>
</g>
<!-- Node46&#45;&gt;Node47 -->
<g id="edge50_Node000046_Node000047" class="edge">
<title>Node46&#45;&gt;Node47</title>
<g id="a_edge50_Node000046_Node000047"><a xlink:title=" ">
<path fill="none" stroke="#63b8ff" d="M263.73,-71.62C280.27,-71.62 299.86,-71.62 318.17,-71.62"/>
<polygon fill="#63b8ff" stroke="#63b8ff" points="318.08,-75.13 328.08,-71.62 318.08,-68.13 318.08,-75.13"/>
</a>
</g>
</g>
</g>
</svg>

<g id="navigator" transform="translate(0 0)" fill="#404254">
  <rect fill="#f2f5e9" fill-opacity="0.5" stroke="#606060" stroke-width=".5" x="0" y="0" width="60" height="60"/>
  <use id="zoomplus" xlink:href="#zoomPlus" x="17" y="9" onmousedown="handleZoom(evt,'in')"/>
  <use id="zoomminus" xlink:href="#zoomMin" x="42" y="9" onmousedown="handleZoom(evt,'out')"/>
  <use id="reset" xlink:href="#resetDef" x="30" y="36" onmousedown="handleReset()"/>
   <use id="arrowup" xlink:href="#arrowUp" x="0" y="0" onmousedown="handlePan(0,-1)"/>
  <use id="arrowright" xlink:href="#arrowRight" x="0" y="0" onmousedown="handlePan(1,0)"/>
  <use id="arrowdown" xlink:href="#arrowDown" x="0" y="0" onmousedown="handlePan(0,1)"/>
  <use id="arrowleft" xlink:href="#arrowLeft" x="0" y="0" onmousedown="handlePan(-1,0)"/>
</g>
<svg viewBox="0 0 15 15" width="100%" height="30px" preserveAspectRatio="xMaxYMin meet">
 <g id="arrow_out" transform="scale(0.3 0.3)">
  <a xlink:href="namespace_slic3r_afbdad1d949bf7704b8ac75c8660d04b0_cgraph_org.svg" target="_base">
   <rect id="button" ry="5" rx="5" y="6" x="6" height="38" width="38"
        fill="#f2f5e9" fill-opacity="0.5" stroke="#606060" stroke-width="1.0"/>
   <path id="arrow"
     d="M 11.500037,31.436501 C 11.940474,20.09759 22.043105,11.32322 32.158766,21.979434 L 37.068811,17.246167 C 37.068811,17.246167 37.088388,32 37.088388,32 L 22.160133,31.978069 C 22.160133,31.978069 26.997745,27.140456 26.997745,27.140456 C 18.528582,18.264221 13.291696,25.230495 11.500037,31.436501 z"
     style="fill:#404040;"/>
  </a>
 </g>
</svg>

<style type='text/css'>
<![CDATA[
[data-mouse-over-selected='false'] { opacity: 0.7; }
[data-mouse-over-selected='true']  { opacity: 1.0; }
]]>
</style>
<script type="application/ecmascript"><![CDATA[
document.addEventListener('DOMContentLoaded', (event) => {
  highlightEdges();
  highlightAdjacentNodes();
});
]]></script>
</svg>
