<?xml version="1.0" encoding="UTF-8" standalone="no"?>
<!DOCTYPE svg PUBLIC "-//W3C//DTD SVG 1.1//EN"
 "http://www.w3.org/Graphics/SVG/1.1/DTD/svg11.dtd">
<!-- Generated by graphviz version 8.0.5 (20230430.1635)
 -->
<!-- Title: Slic3r::find_nearby_points Pages: 1 -->
<!--zoomable 214 -->

<svg id="main" version="1.1" xmlns="http://www.w3.org/2000/svg" xmlns:xlink="http://www.w3.org/1999/xlink" xml:space="preserve" onload="init(evt)">
<style type="text/css"><![CDATA[
.node, .edge {opacity: 0.7;}
.node.selected, .edge.selected {opacity: 1;}
.edge:hover path { stroke: red; }
.edge:hover polygon { stroke: red; fill: red; }
]]></style>

<defs>
  <circle id="rim" cx="0" cy="0" r="7"/>
  <circle id="rim2" cx="0" cy="0" r="3.5"/>
  <g id="zoomPlus">
    <use xlink:href="#rim" fill="#404040"><set attributeName="fill" to="#808080" begin="zoomplus.mouseover" end="zoomplus.mouseout"/></use>
    <path d="M-4,0h8M0,-4v8" fill="none" stroke="white" stroke-width="1.5" pointer-events="none"/>
  </g>
  <g id="zoomMin">
    <use xlink:href="#rim" fill="#404040"><set attributeName="fill" to="#808080" begin="zoomminus.mouseover" end="zoomminus.mouseout"/></use>
    <path d="M-4,0h8" fill="none" stroke="white" stroke-width="1.5" pointer-events="none"/>
  </g>
  <g id="arrowUp" transform="translate(30 24)">
    <use xlink:href="#rim"/>
    <path pointer-events="none" fill="none" stroke="white" stroke-width="1.5" d="M0,-3.0v7 M-2.5,-0.5L0,-3.0L2.5,-0.5"/>
  </g>
  <g id="arrowRight" transform="rotate(90) translate(36 -43)">
    <use xlink:href="#rim"/>
    <path pointer-events="none" fill="none" stroke="white" stroke-width="1.5" d="M0,-3.0v7 M-2.5,-0.5L0,-3.0L2.5,-0.5"/>
  </g>
  <g id="arrowDown" transform="rotate(180) translate(-30 -48)">
    <use xlink:href="#rim"/>
    <path pointer-events="none" fill="none" stroke="white" stroke-width="1.5" d="M0,-3.0v7 M-2.5,-0.5L0,-3.0L2.5,-0.5"/>
  </g>
  <g id="arrowLeft" transform="rotate(270) translate(-36 17)">
    <use xlink:href="#rim"/>
    <path pointer-events="none" fill="none" stroke="white" stroke-width="1.5" d="M0,-3.0v7 M-2.5,-0.5L0,-3.0L2.5,-0.5"/>
  </g>
  <g id="resetDef">
    <use xlink:href="#rim2" fill="#404040"><set attributeName="fill" to="#808080" begin="reset.mouseover" end="reset.mouseout"/></use>
  </g>
</defs>
<script type="application/ecmascript">
var viewWidth = 593;
var viewHeight = 214;
var sectionId = 'dynsection-491';
</script>
<script type="application/ecmascript" xlink:href="../../svg.min.js"/>
<svg id="graph" class="graph">
<g id="viewport">
<title>Slic3r::find_nearby_points</title>
<!-- Node1 -->
<g id="Node000001" class="node">
<title>Node1</title>
<g id="a_Node000001"><a xlink:title=" ">
<polygon fill="#999999" stroke="#666666" points="585.25,-121.5 488.25,-121.5 488.25,-91 585.25,-91 585.25,-121.5"/>
<text text-anchor="start" x="496.25" y="-108" font-family="Helvetica,sans-Serif" font-size="10.00">Slic3r::find_nearby</text>
<text text-anchor="middle" x="536.75" y="-96.75" font-family="Helvetica,sans-Serif" font-size="10.00">_points</text>
</a>
</g>
</g>
<!-- Node2 -->
<g id="Node000002" class="node">
<title>Node2</title>
<g id="a_Node000002"><a xlink:href="../../d2/d8a/struct_slic3r_1_1_seam_placer_impl_1_1_global_model_info.html#ae6449e98e4da5c440563742a5a7c21f4" target="_top" xlink:title=" ">
<polygon fill="white" stroke="#666666" points="446.62,-206.12 309.12,-206.12 309.12,-164.38 446.62,-164.38 446.62,-206.12"/>
<text text-anchor="start" x="317.12" y="-192.62" font-family="Helvetica,sans-Serif" font-size="10.00">Slic3r::SeamPlacerImpl</text>
<text text-anchor="start" x="317.12" y="-181.38" font-family="Helvetica,sans-Serif" font-size="10.00">::GlobalModelInfo::calculate</text>
<text text-anchor="middle" x="377.88" y="-170.12" font-family="Helvetica,sans-Serif" font-size="10.00">_point_visibility</text>
</a>
</g>
</g>
<!-- Node1&#45;&gt;Node2 -->
<g id="edge1_Node000001_Node000002" class="edge">
<title>Node1&#45;&gt;Node2</title>
<g id="a_edge1_Node000001_Node000002"><a xlink:title=" ">
<path fill="none" stroke="#63b8ff" d="M501.72,-127.7C486.81,-136.71 468.93,-147 452.25,-155.25 446.21,-158.24 439.79,-161.18 433.36,-163.99"/>
<polygon fill="#63b8ff" stroke="#63b8ff" points="503.35,-130.2 510.05,-122 499.69,-124.23 503.35,-130.2"/>
</a>
</g>
</g>
<!-- Node3 -->
<g id="Node000003" class="node">
<title>Node3</title>
<g id="a_Node000003"><a xlink:href="../../de/db8/namespace_slic3r.html#a48ede76934d9688a808ee8d283a67edc" target="_top" xlink:title=" ">
<polygon fill="white" stroke="#666666" points="426.38,-146.5 329.38,-146.5 329.38,-116 426.38,-116 426.38,-146.5"/>
<text text-anchor="start" x="337.38" y="-133" font-family="Helvetica,sans-Serif" font-size="10.00">Slic3r::find_nearby</text>
<text text-anchor="middle" x="377.88" y="-121.75" font-family="Helvetica,sans-Serif" font-size="10.00">_points</text>
</a>
</g>
</g>
<!-- Node1&#45;&gt;Node3 -->
<g id="edge2_Node000001_Node000003" class="edge">
<title>Node1&#45;&gt;Node3</title>
<g id="a_edge2_Node000001_Node000003"><a xlink:title=" ">
<path fill="none" stroke="#63b8ff" d="M477.14,-115.59C460.53,-118.24 442.66,-121.08 426.77,-123.62"/>
<polygon fill="#63b8ff" stroke="#63b8ff" points="477.51,-118.92 486.83,-113.89 476.4,-112 477.51,-118.92"/>
</a>
</g>
</g>
<!-- Node4 -->
<g id="Node000004" class="node">
<title>Node4</title>
<g id="a_Node000004"><a xlink:href="../../dc/de8/class_slic3r_1_1_seam_placer.html#a494d6e561b388bc01f1e4ecd7a6b10ea" target="_top" xlink:title=" ">
<polygon fill="white" stroke="#666666" points="442.88,-97.5 312.88,-97.5 312.88,-67 442.88,-67 442.88,-97.5"/>
<text text-anchor="start" x="320.88" y="-84" font-family="Helvetica,sans-Serif" font-size="10.00">Slic3r::SeamPlacer</text>
<text text-anchor="middle" x="377.88" y="-72.75" font-family="Helvetica,sans-Serif" font-size="10.00">::find_next_seam_in_layer</text>
</a>
</g>
</g>
<!-- Node1&#45;&gt;Node4 -->
<g id="edge3_Node000001_Node000004" class="edge">
<title>Node1&#45;&gt;Node4</title>
<g id="a_edge3_Node000001_Node000004"><a xlink:title=" ">
<path fill="none" stroke="#63b8ff" d="M477.03,-97.27C466.01,-95.58 454.44,-93.81 443.26,-92.1"/>
<polygon fill="#63b8ff" stroke="#63b8ff" points="476.42,-100.87 486.83,-98.92 477.47,-93.95 476.42,-100.87"/>
</a>
</g>
</g>
<!-- Node5 -->
<g id="Node000005" class="node">
<title>Node5</title>
<g id="a_Node000005"><a xlink:href="../../df/d47/namespace_slic3r_1_1_support_spots_generator.html#a6a1a5772105bcb773cb5edf8a873d2f1" target="_top" xlink:title=" ">
<polygon fill="white" stroke="#666666" points="452.25,-30.5 303.5,-30.5 303.5,0 452.25,0 452.25,-30.5"/>
<text text-anchor="start" x="311.5" y="-17" font-family="Helvetica,sans-Serif" font-size="10.00">Slic3r::SupportSpotsGenerator</text>
<text text-anchor="middle" x="377.88" y="-5.75" font-family="Helvetica,sans-Serif" font-size="10.00">::gather_issues</text>
</a>
</g>
</g>
<!-- Node1&#45;&gt;Node5 -->
<g id="edge4_Node000001_Node000005" class="edge">
<title>Node1&#45;&gt;Node5</title>
<g id="a_edge4_Node000001_Node000005"><a xlink:title=" ">
<path fill="none" stroke="#63b8ff" d="M499.55,-85.25C471.03,-68.71 431.89,-46 406.02,-30.99"/>
<polygon fill="#63b8ff" stroke="#63b8ff" points="497.38,-88.62 507.78,-90.61 500.89,-82.56 497.38,-88.62"/>
</a>
</g>
</g>
<!-- Node5&#45;&gt;Node5 -->
<g id="edge7_Node000005_Node000005" class="edge">
<title>Node5&#45;&gt;Node5</title>
<g id="a_edge7_Node000005_Node000005"><a xlink:title=" ">
<path fill="none" stroke="#63b8ff" d="M404.88,-41.88C400.67,-45.83 391.66,-48.5 377.88,-48.5 353.36,-48.5 343.98,-40.06 349.72,-30.99"/>
<polygon fill="#63b8ff" stroke="#63b8ff" points="408.46,-42.3 406.03,-31.99 401.5,-41.56 408.46,-42.3"/>
</a>
</g>
</g>
<!-- Node6 -->
<g id="Node000006" class="node">
<title>Node6</title>
<g id="a_Node000006"><a xlink:href="../../d5/d8f/class_slic3r_1_1_print.html#a9a8ce9fc6eaa90a33b361cc602da656d" target="_top" xlink:title=" ">
<polygon fill="white" stroke="#666666" points="267.5,-30.5 143.5,-30.5 143.5,0 267.5,0 267.5,-30.5"/>
<text text-anchor="start" x="151.5" y="-17" font-family="Helvetica,sans-Serif" font-size="10.00">Slic3r::Print::alert</text>
<text text-anchor="middle" x="205.5" y="-5.75" font-family="Helvetica,sans-Serif" font-size="10.00">_when_supports_needed</text>
</a>
</g>
</g>
<!-- Node5&#45;&gt;Node6 -->
<g id="edge5_Node000005_Node000006" class="edge">
<title>Node5&#45;&gt;Node6</title>
<g id="a_edge5_Node000005_Node000006"><a xlink:title=" ">
<path fill="none" stroke="#63b8ff" d="M292.31,-15.25C284.05,-15.25 275.79,-15.25 267.82,-15.25"/>
<polygon fill="#63b8ff" stroke="#63b8ff" points="292.14,-18.75 302.14,-15.25 292.14,-11.75 292.14,-18.75"/>
</a>
</g>
</g>
<!-- Node7 -->
<g id="Node000007" class="node">
<title>Node7</title>
<g id="a_Node000007"><a xlink:href="../../d5/d8f/class_slic3r_1_1_print.html#a9323a02226e9ecffd2bbc0a28c0419e5" target="_top" xlink:title=" ">
<polygon fill="white" stroke="#666666" points="107.5,-24.88 0,-24.88 0,-5.63 107.5,-5.63 107.5,-24.88"/>
<text text-anchor="middle" x="53.75" y="-11.38" font-family="Helvetica,sans-Serif" font-size="10.00">Slic3r::Print::process</text>
</a>
</g>
</g>
<!-- Node6&#45;&gt;Node7 -->
<g id="edge6_Node000006_Node000007" class="edge">
<title>Node6&#45;&gt;Node7</title>
<g id="a_edge6_Node000006_Node000007"><a xlink:title=" ">
<path fill="none" stroke="#63b8ff" d="M132.29,-15.25C123.97,-15.25 115.61,-15.25 107.61,-15.25"/>
<polygon fill="#63b8ff" stroke="#63b8ff" points="132.16,-18.75 142.16,-15.25 132.16,-11.75 132.16,-18.75"/>
</a>
</g>
</g>
</g>
</svg>

<g id="navigator" transform="translate(0 0)" fill="#404254">
  <rect fill="#f2f5e9" fill-opacity="0.5" stroke="#606060" stroke-width=".5" x="0" y="0" width="60" height="60"/>
  <use id="zoomplus" xlink:href="#zoomPlus" x="17" y="9" onmousedown="handleZoom(evt,'in')"/>
  <use id="zoomminus" xlink:href="#zoomMin" x="42" y="9" onmousedown="handleZoom(evt,'out')"/>
  <use id="reset" xlink:href="#resetDef" x="30" y="36" onmousedown="handleReset()"/>
   <use id="arrowup" xlink:href="#arrowUp" x="0" y="0" onmousedown="handlePan(0,-1)"/>
  <use id="arrowright" xlink:href="#arrowRight" x="0" y="0" onmousedown="handlePan(1,0)"/>
  <use id="arrowdown" xlink:href="#arrowDown" x="0" y="0" onmousedown="handlePan(0,1)"/>
  <use id="arrowleft" xlink:href="#arrowLeft" x="0" y="0" onmousedown="handlePan(-1,0)"/>
</g>
<svg viewBox="0 0 15 15" width="100%" height="30px" preserveAspectRatio="xMaxYMin meet">
 <g id="arrow_out" transform="scale(0.3 0.3)">
  <a xlink:href="namespace_slic3r_a766e186184f710b971ad76f7567d7bef_icgraph_org.svg" target="_base">
   <rect id="button" ry="5" rx="5" y="6" x="6" height="38" width="38"
        fill="#f2f5e9" fill-opacity="0.5" stroke="#606060" stroke-width="1.0"/>
   <path id="arrow"
     d="M 11.500037,31.436501 C 11.940474,20.09759 22.043105,11.32322 32.158766,21.979434 L 37.068811,17.246167 C 37.068811,17.246167 37.088388,32 37.088388,32 L 22.160133,31.978069 C 22.160133,31.978069 26.997745,27.140456 26.997745,27.140456 C 18.528582,18.264221 13.291696,25.230495 11.500037,31.436501 z"
     style="fill:#404040;"/>
  </a>
 </g>
</svg>

<style type='text/css'>
<![CDATA[
[data-mouse-over-selected='false'] { opacity: 0.7; }
[data-mouse-over-selected='true']  { opacity: 1.0; }
]]>
</style>
<script type="application/ecmascript"><![CDATA[
document.addEventListener('DOMContentLoaded', (event) => {
  highlightEdges();
  highlightAdjacentNodes();
});
]]></script>
</svg>
