<?xml version="1.0" encoding="UTF-8" standalone="no"?>
<!DOCTYPE svg PUBLIC "-//W3C//DTD SVG 1.1//EN"
 "http://www.w3.org/Graphics/SVG/1.1/DTD/svg11.dtd">
<!-- Generated by graphviz version 8.0.5 (20230430.1635)
 -->
<!-- Title: Slic3r::trianglemesh_repair_on_import Pages: 1 -->
<!--zoomable 571 -->

<svg id="main" version="1.1" xmlns="http://www.w3.org/2000/svg" xmlns:xlink="http://www.w3.org/1999/xlink" xml:space="preserve" onload="init(evt)">
<style type="text/css"><![CDATA[
.node, .edge {opacity: 0.7;}
.node.selected, .edge.selected {opacity: 1;}
.edge:hover path { stroke: red; }
.edge:hover polygon { stroke: red; fill: red; }
]]></style>

<defs>
  <circle id="rim" cx="0" cy="0" r="7"/>
  <circle id="rim2" cx="0" cy="0" r="3.5"/>
  <g id="zoomPlus">
    <use xlink:href="#rim" fill="#404040"><set attributeName="fill" to="#808080" begin="zoomplus.mouseover" end="zoomplus.mouseout"/></use>
    <path d="M-4,0h8M0,-4v8" fill="none" stroke="white" stroke-width="1.5" pointer-events="none"/>
  </g>
  <g id="zoomMin">
    <use xlink:href="#rim" fill="#404040"><set attributeName="fill" to="#808080" begin="zoomminus.mouseover" end="zoomminus.mouseout"/></use>
    <path d="M-4,0h8" fill="none" stroke="white" stroke-width="1.5" pointer-events="none"/>
  </g>
  <g id="arrowUp" transform="translate(30 24)">
    <use xlink:href="#rim"/>
    <path pointer-events="none" fill="none" stroke="white" stroke-width="1.5" d="M0,-3.0v7 M-2.5,-0.5L0,-3.0L2.5,-0.5"/>
  </g>
  <g id="arrowRight" transform="rotate(90) translate(36 -43)">
    <use xlink:href="#rim"/>
    <path pointer-events="none" fill="none" stroke="white" stroke-width="1.5" d="M0,-3.0v7 M-2.5,-0.5L0,-3.0L2.5,-0.5"/>
  </g>
  <g id="arrowDown" transform="rotate(180) translate(-30 -48)">
    <use xlink:href="#rim"/>
    <path pointer-events="none" fill="none" stroke="white" stroke-width="1.5" d="M0,-3.0v7 M-2.5,-0.5L0,-3.0L2.5,-0.5"/>
  </g>
  <g id="arrowLeft" transform="rotate(270) translate(-36 17)">
    <use xlink:href="#rim"/>
    <path pointer-events="none" fill="none" stroke="white" stroke-width="1.5" d="M0,-3.0v7 M-2.5,-0.5L0,-3.0L2.5,-0.5"/>
  </g>
  <g id="resetDef">
    <use xlink:href="#rim2" fill="#404040"><set attributeName="fill" to="#808080" begin="reset.mouseover" end="reset.mouseout"/></use>
  </g>
</defs>
<script type="application/ecmascript">
var viewWidth = 769;
var viewHeight = 571;
var sectionId = 'dynsection-1635';
</script>
<script type="application/ecmascript" xlink:href="../../svg.min.js"/>
<svg id="graph" class="graph">
<g id="viewport">
<title>Slic3r::trianglemesh_repair_on_import</title>
<!-- Node1 -->
<g id="Node000001" class="node">
<title>Node1</title>
<g id="a_Node000001"><a xlink:title=" ">
<polygon fill="#999999" stroke="#666666" points="102.25,-214.88 0,-214.88 0,-184.38 102.25,-184.38 102.25,-214.88"/>
<text text-anchor="start" x="8" y="-201.38" font-family="Helvetica,sans-Serif" font-size="10.00">Slic3r::trianglemesh</text>
<text text-anchor="middle" x="51.12" y="-190.12" font-family="Helvetica,sans-Serif" font-size="10.00">_repair_on_import</text>
</a>
</g>
</g>
<!-- Node2 -->
<g id="Node000002" class="node">
<title>Node2</title>
<g id="a_Node000002"><a xlink:href="../../df/d2d/util_8cpp.html#aa5e88f51200e1e4a99b09ebf5cdcac64" target="_top" xlink:title=" ">
<polygon fill="white" stroke="#666666" points="254.38,-501.25 146.88,-501.25 146.88,-482 254.38,-482 254.38,-501.25"/>
<text text-anchor="middle" x="200.62" y="-487.75" font-family="Helvetica,sans-Serif" font-size="10.00">stl_calculate_volume</text>
</a>
</g>
</g>
<!-- Node1&#45;&gt;Node2 -->
<g id="edge1_Node000001_Node000002" class="edge">
<title>Node1&#45;&gt;Node2</title>
<g id="a_edge1_Node000001_Node000002"><a xlink:title=" ">
<path fill="none" stroke="#63b8ff" d="M57.86,-215.19C70.61,-249.16 102.94,-332.12 138.25,-397.62 152.83,-424.67 172.73,-454.06 185.87,-472.64"/>
<polygon fill="#63b8ff" stroke="#63b8ff" points="183.56,-474.44 192.23,-480.54 189.26,-470.37 183.56,-474.44"/>
</a>
</g>
</g>
<!-- Node9 -->
<g id="Node000009" class="node">
<title>Node9</title>
<g id="a_Node000009"><a xlink:href="../../d1/d05/connect_8cpp.html#af5da710e9c36e25bba8fe5c0fb0794d1" target="_top" xlink:title=" ">
<polygon fill="white" stroke="#666666" points="260.38,-172.25 140.88,-172.25 140.88,-153 260.38,-153 260.38,-172.25"/>
<text text-anchor="middle" x="200.62" y="-158.75" font-family="Helvetica,sans-Serif" font-size="10.00">stl_check_facets_exact</text>
</a>
</g>
</g>
<!-- Node1&#45;&gt;Node9 -->
<g id="edge10_Node000001_Node000009" class="edge">
<title>Node1&#45;&gt;Node9</title>
<g id="a_edge10_Node000001_Node000009"><a xlink:title=" ">
<path fill="none" stroke="#63b8ff" d="M102.47,-187C117.52,-183.22 134.01,-179.08 149.07,-175.31"/>
<polygon fill="#63b8ff" stroke="#63b8ff" points="149.89,-178.46 158.73,-172.63 148.18,-171.67 149.89,-178.46"/>
</a>
</g>
</g>
<!-- Node18 -->
<g id="Node000018" class="node">
<title>Node18</title>
<g id="a_Node000018"><a xlink:href="../../d1/d05/connect_8cpp.html#a14671a150cf3d3869cae861fb6e86e32" target="_top" xlink:title=" ">
<polygon fill="white" stroke="#666666" points="263,-271.25 138.25,-271.25 138.25,-252 263,-252 263,-271.25"/>
<text text-anchor="middle" x="200.62" y="-257.75" font-family="Helvetica,sans-Serif" font-size="10.00">stl_check_facets_nearby</text>
</a>
</g>
</g>
<!-- Node1&#45;&gt;Node18 -->
<g id="edge19_Node000001_Node000018" class="edge">
<title>Node1&#45;&gt;Node18</title>
<g id="a_edge19_Node000001_Node000018"><a xlink:title=" ">
<path fill="none" stroke="#63b8ff" d="M89.35,-215.27C112.88,-225.16 143.05,-237.85 165.89,-247.44"/>
<polygon fill="#63b8ff" stroke="#63b8ff" points="164.24,-250.97 174.81,-251.62 166.95,-244.51 164.24,-250.97"/>
</a>
</g>
</g>
<!-- Node22 -->
<g id="Node000022" class="node">
<title>Node22</title>
<g id="a_Node000022"><a xlink:href="../../d1/d05/connect_8cpp.html#a62139bfae6299af692e30578d1899d65" target="_top" xlink:title=" ">
<polygon fill="white" stroke="#666666" points="235.62,-209.25 165.62,-209.25 165.62,-190 235.62,-190 235.62,-209.25"/>
<text text-anchor="middle" x="200.62" y="-195.75" font-family="Helvetica,sans-Serif" font-size="10.00">stl_fill_holes</text>
</a>
</g>
</g>
<!-- Node1&#45;&gt;Node22 -->
<g id="edge25_Node000001_Node000022" class="edge">
<title>Node1&#45;&gt;Node22</title>
<g id="a_edge25_Node000001_Node000022"><a xlink:title=" ">
<path fill="none" stroke="#63b8ff" d="M102.47,-199.62C119.29,-199.62 137.92,-199.62 154.33,-199.62"/>
<polygon fill="#63b8ff" stroke="#63b8ff" points="154.28,-203.13 164.28,-199.62 154.28,-196.13 154.28,-203.13"/>
</a>
</g>
</g>
<!-- Node24 -->
<g id="Node000024" class="node">
<title>Node24</title>
<g id="a_Node000024"><a xlink:href="../../d0/d2d/normals_8cpp.html#a440ad3441e64d847b1749ec2d469ae68" target="_top" xlink:title=" ">
<polygon fill="white" stroke="#666666" points="262.62,-388.25 138.62,-388.25 138.62,-369 262.62,-369 262.62,-388.25"/>
<text text-anchor="middle" x="200.62" y="-374.75" font-family="Helvetica,sans-Serif" font-size="10.00">stl_fix_normal_directions</text>
</a>
</g>
</g>
<!-- Node1&#45;&gt;Node24 -->
<g id="edge29_Node000001_Node000024" class="edge">
<title>Node1&#45;&gt;Node24</title>
<g id="a_edge29_Node000001_Node000024"><a xlink:title=" ">
<path fill="none" stroke="#63b8ff" d="M58.76,-215.04C71.18,-242.6 100.19,-301.01 138.25,-339.62 147.27,-348.78 158.83,-356.82 169.48,-363.19"/>
<polygon fill="#63b8ff" stroke="#63b8ff" points="167.47,-366.65 177.9,-368.55 170.94,-360.56 167.47,-366.65"/>
</a>
</g>
</g>
<!-- Node28 -->
<g id="Node000028" class="node">
<title>Node28</title>
<g id="a_Node000028"><a xlink:href="../../d0/d2d/normals_8cpp.html#a23672d4232108aea47cb3559d3d26620" target="_top" xlink:title=" ">
<polygon fill="white" stroke="#666666" points="255.88,-330.25 145.38,-330.25 145.38,-311 255.88,-311 255.88,-330.25"/>
<text text-anchor="middle" x="200.62" y="-316.75" font-family="Helvetica,sans-Serif" font-size="10.00">stl_fix_normal_values</text>
</a>
</g>
</g>
<!-- Node1&#45;&gt;Node28 -->
<g id="edge37_Node000001_Node000028" class="edge">
<title>Node1&#45;&gt;Node28</title>
<g id="a_edge37_Node000001_Node000028"><a xlink:title=" ">
<path fill="none" stroke="#63b8ff" d="M66.94,-215.12C83.54,-232.1 111.62,-259.7 138.25,-280.62 149.23,-289.26 162.09,-297.84 173.19,-304.84"/>
<polygon fill="#63b8ff" stroke="#63b8ff" points="171.05,-308.25 181.4,-310.53 174.73,-302.3 171.05,-308.25"/>
</a>
</g>
</g>
<!-- Node29 -->
<g id="Node000029" class="node">
<title>Node29</title>
<g id="a_Node000029"><a xlink:href="../../d1/d05/connect_8cpp.html#ac50b203e3b3356ffbdcb2a610fe0b3eb" target="_top" xlink:title=" ">
<polygon fill="white" stroke="#666666" points="263,-105.88 138.25,-105.88 138.25,-75.38 263,-75.38 263,-105.88"/>
<text text-anchor="start" x="146.25" y="-92.38" font-family="Helvetica,sans-Serif" font-size="10.00">stl_remove_unconnected</text>
<text text-anchor="middle" x="200.62" y="-81.12" font-family="Helvetica,sans-Serif" font-size="10.00">_facets</text>
</a>
</g>
</g>
<!-- Node1&#45;&gt;Node29 -->
<g id="edge39_Node000001_Node000029" class="edge">
<title>Node1&#45;&gt;Node29</title>
<g id="a_edge39_Node000001_Node000029"><a xlink:title=" ">
<path fill="none" stroke="#63b8ff" d="M73.26,-184.01C98.56,-165.31 141.1,-133.87 169.76,-112.7"/>
<polygon fill="#63b8ff" stroke="#63b8ff" points="171.57,-114.97 177.53,-106.21 167.41,-109.34 171.57,-114.97"/>
</a>
</g>
</g>
<!-- Node31 -->
<g id="Node000031" class="node">
<title>Node31</title>
<g id="a_Node000031"><a xlink:href="../../d6/d2c/shared_8cpp.html#a0d164f7201d5084b32817717b63beaa9" target="_top" xlink:title=" ">
<polygon fill="white" stroke="#666666" points="391.88,-56.25 326.38,-56.25 326.38,-37 391.88,-37 391.88,-56.25"/>
<text text-anchor="middle" x="359.12" y="-42.75" font-family="Helvetica,sans-Serif" font-size="10.00">stl_validate</text>
</a>
</g>
</g>
<!-- Node1&#45;&gt;Node31 -->
<g id="edge42_Node000001_Node000031" class="edge">
<title>Node1&#45;&gt;Node31</title>
<g id="a_edge42_Node000001_Node000031"><a xlink:title=" ">
<path fill="none" stroke="#63b8ff" d="M57.11,-183.96C67.2,-155.09 93.04,-93.94 138.25,-66.62 192.47,-33.87 268.31,-35.07 315.26,-40.04"/>
<polygon fill="#63b8ff" stroke="#63b8ff" points="314.64,-43.6 324.97,-41.29 315.45,-36.65 314.64,-43.6"/>
</a>
</g>
</g>
<!-- Node32 -->
<g id="Node000032" class="node">
<title>Node32</title>
<g id="a_Node000032"><a xlink:href="../../df/d2d/util_8cpp.html#a63666d9e571f6596f674cde4d0ce98f6" target="_top" xlink:title=" ">
<polygon fill="white" stroke="#666666" points="252.12,-19.25 149.12,-19.25 149.12,0 252.12,0 252.12,-19.25"/>
<text text-anchor="middle" x="200.62" y="-5.75" font-family="Helvetica,sans-Serif" font-size="10.00">stl_verify_neighbors</text>
</a>
</g>
</g>
<!-- Node1&#45;&gt;Node32 -->
<g id="edge43_Node000001_Node000032" class="edge">
<title>Node1&#45;&gt;Node32</title>
<g id="a_edge43_Node000001_Node000032"><a xlink:title=" ">
<path fill="none" stroke="#63b8ff" d="M56.16,-184.05C65.33,-151.64 90.69,-76.4 138.25,-33.62 142.29,-29.99 146.95,-26.87 151.86,-24.22"/>
<polygon fill="#63b8ff" stroke="#63b8ff" points="152.96,-27.09 160.49,-19.64 149.96,-20.77 152.96,-27.09"/>
</a>
</g>
</g>
<!-- Node3 -->
<g id="Node000003" class="node">
<title>Node3</title>
<g id="a_Node000003"><a xlink:href="../../df/d2d/util_8cpp.html#a879ab8ce035faf422b7aff068a732fcd" target="_top" xlink:title=" ">
<polygon fill="white" stroke="#666666" points="392.25,-538.25 326,-538.25 326,-519 392.25,-519 392.25,-538.25"/>
<text text-anchor="middle" x="359.12" y="-524.75" font-family="Helvetica,sans-Serif" font-size="10.00">get_volume</text>
</a>
</g>
</g>
<!-- Node2&#45;&gt;Node3 -->
<g id="edge2_Node000002_Node000003" class="edge">
<title>Node2&#45;&gt;Node3</title>
<g id="a_edge2_Node000002_Node000003"><a xlink:title=" ">
<path fill="none" stroke="#63b8ff" d="M244.39,-501.74C266.48,-506.96 293.35,-513.31 315.43,-518.53"/>
<polygon fill="#63b8ff" stroke="#63b8ff" points="314.3,-522.1 324.84,-520.99 315.91,-515.29 314.3,-522.1"/>
</a>
</g>
</g>
<!-- Node7 -->
<g id="Node000007" class="node">
<title>Node7</title>
<g id="a_Node000007"><a xlink:href="../../d0/d2d/normals_8cpp.html#a2aede818a0eba00cc97d4401a2e69eb9" target="_top" xlink:title=" ">
<polygon fill="white" stroke="#666666" points="414.75,-501.25 303.5,-501.25 303.5,-482 414.75,-482 414.75,-501.25"/>
<text text-anchor="middle" x="359.12" y="-487.75" font-family="Helvetica,sans-Serif" font-size="10.00">stl_reverse_all_facets</text>
</a>
</g>
</g>
<!-- Node2&#45;&gt;Node7 -->
<g id="edge6_Node000002_Node000007" class="edge">
<title>Node2&#45;&gt;Node7</title>
<g id="a_edge6_Node000002_Node000007"><a xlink:title=" ">
<path fill="none" stroke="#63b8ff" d="M254.61,-491.62C266.68,-491.62 279.65,-491.62 292.19,-491.62"/>
<polygon fill="#63b8ff" stroke="#63b8ff" points="292.06,-495.13 302.06,-491.62 292.06,-488.13 292.06,-495.13"/>
</a>
</g>
</g>
<!-- Node4 -->
<g id="Node000004" class="node">
<title>Node4</title>
<g id="a_Node000004"><a xlink:href="../../df/d2d/util_8cpp.html#aef12356ec415116ec1042ad302e01418" target="_top" xlink:title=" ">
<polygon fill="white" stroke="#666666" points="555.25,-538.25 501.75,-538.25 501.75,-519 555.25,-519 555.25,-538.25"/>
<text text-anchor="middle" x="528.5" y="-524.75" font-family="Helvetica,sans-Serif" font-size="10.00">get_area</text>
</a>
</g>
</g>
<!-- Node3&#45;&gt;Node4 -->
<g id="edge3_Node000003_Node000004" class="edge">
<title>Node3&#45;&gt;Node4</title>
<g id="a_edge3_Node000003_Node000004"><a xlink:title=" ">
<path fill="none" stroke="#63b8ff" d="M392.4,-528.62C420.53,-528.62 461.32,-528.62 490.71,-528.62"/>
<polygon fill="#63b8ff" stroke="#63b8ff" points="490.37,-532.13 500.37,-528.62 490.37,-525.13 490.37,-532.13"/>
</a>
</g>
</g>
<!-- Node5 -->
<g id="Node000005" class="node">
<title>Node5</title>
<g id="a_Node000005"><a xlink:href="../../d5/d51/stl_8h.html#a54a7a9b89aeb6bd37c758e2e84d2e19c" target="_top" xlink:title=" ">
<polygon fill="white" stroke="#666666" points="752,-500.25 646.75,-500.25 646.75,-481 752,-481 752,-500.25"/>
<text text-anchor="middle" x="699.38" y="-486.75" font-family="Helvetica,sans-Serif" font-size="10.00">stl_calculate_normal</text>
</a>
</g>
</g>
<!-- Node4&#45;&gt;Node5 -->
<g id="edge4_Node000004_Node000005" class="edge">
<title>Node4&#45;&gt;Node5</title>
<g id="a_edge4_Node000004_Node000005"><a xlink:title=" ">
<path fill="none" stroke="#63b8ff" d="M555.52,-522.77C578.75,-517.54 613.57,-509.71 643.01,-503.08"/>
<polygon fill="#63b8ff" stroke="#63b8ff" points="643.6,-506.31 652.59,-500.7 642.06,-499.48 643.6,-506.31"/>
</a>
</g>
</g>
<!-- Node6 -->
<g id="Node000006" class="node">
<title>Node6</title>
<g id="a_Node000006"><a xlink:href="../../d5/d51/stl_8h.html#afd576ac265350e491aac90c15f7ebcf5" target="_top" xlink:title=" ">
<polygon fill="white" stroke="#666666" points="752.38,-538.25 646.38,-538.25 646.38,-519 752.38,-519 752.38,-538.25"/>
<text text-anchor="middle" x="699.38" y="-524.75" font-family="Helvetica,sans-Serif" font-size="10.00">stl_normalize_vector</text>
</a>
</g>
</g>
<!-- Node4&#45;&gt;Node6 -->
<g id="edge5_Node000004_Node000006" class="edge">
<title>Node4&#45;&gt;Node6</title>
<g id="a_edge5_Node000004_Node000006"><a xlink:title=" ">
<path fill="none" stroke="#63b8ff" d="M555.52,-528.62C576.75,-528.62 607.66,-528.62 635.3,-528.62"/>
<polygon fill="#63b8ff" stroke="#63b8ff" points="635.1,-532.13 645.1,-528.62 635.1,-525.13 635.1,-532.13"/>
</a>
</g>
</g>
<!-- Node7&#45;&gt;Node5 -->
<g id="edge8_Node000007_Node000005" class="edge">
<title>Node7&#45;&gt;Node5</title>
<g id="a_edge8_Node000007_Node000005"><a xlink:title=" ">
<path fill="none" stroke="#63b8ff" d="M415.22,-491.46C475.66,-491.28 572.45,-491 635.72,-490.81"/>
<polygon fill="#63b8ff" stroke="#63b8ff" points="635.37,-494.31 645.36,-490.78 635.35,-487.31 635.37,-494.31"/>
</a>
</g>
</g>
<!-- Node7&#45;&gt;Node6 -->
<g id="edge9_Node000007_Node000006" class="edge">
<title>Node7&#45;&gt;Node6</title>
<g id="a_edge9_Node000007_Node000006"><a xlink:title=" ">
<path fill="none" stroke="#63b8ff" d="M402.95,-501.75C408.64,-503.92 414.23,-506.52 419.25,-509.62 439.04,-521.86 433.88,-538.43 455.25,-547.62 523.19,-576.85 611.61,-557.34 660.93,-542"/>
<polygon fill="#63b8ff" stroke="#63b8ff" points="661.69,-545.11 670.13,-538.72 659.54,-538.45 661.69,-545.11"/>
</a>
</g>
</g>
<!-- Node8 -->
<g id="Node000008" class="node">
<title>Node8</title>
<g id="a_Node000008"><a xlink:href="../../d0/d2d/normals_8cpp.html#a4ec93308f972e070841765c843a07295" target="_top" xlink:title=" ">
<polygon fill="white" stroke="#666666" points="566.12,-462.25 490.88,-462.25 490.88,-443 566.12,-443 566.12,-462.25"/>
<text text-anchor="middle" x="528.5" y="-448.75" font-family="Helvetica,sans-Serif" font-size="10.00">reverse_facet</text>
</a>
</g>
</g>
<!-- Node7&#45;&gt;Node8 -->
<g id="edge7_Node000007_Node000008" class="edge">
<title>Node7&#45;&gt;Node8</title>
<g id="a_edge7_Node000007_Node000008"><a xlink:title=" ">
<path fill="none" stroke="#63b8ff" d="M403.23,-481.58C426.66,-476.12 455.7,-469.36 479.81,-463.74"/>
<polygon fill="#63b8ff" stroke="#63b8ff" points="480.56,-466.92 489.5,-461.25 478.97,-460.11 480.56,-466.92"/>
</a>
</g>
</g>
<!-- Node10 -->
<g id="Node000010" class="node">
<title>Node10</title>
<g id="a_Node000010"><a xlink:href="../../d2/d21/struct_hash_table_edges.html#ab5080f50d973be9e7ef08fa1dc2087f7" target="_top" xlink:title=" ">
<polygon fill="white" stroke="#666666" points="419.25,-153.88 299,-153.88 299,-123.38 419.25,-123.38 419.25,-153.88"/>
<text text-anchor="start" x="307" y="-140.38" font-family="Helvetica,sans-Serif" font-size="10.00">HashTableEdges::insert</text>
<text text-anchor="middle" x="359.12" y="-129.12" font-family="Helvetica,sans-Serif" font-size="10.00">_edge_exact</text>
</a>
</g>
</g>
<!-- Node9&#45;&gt;Node10 -->
<g id="edge11_Node000009_Node000010" class="edge">
<title>Node9&#45;&gt;Node10</title>
<g id="a_edge11_Node000009_Node000010"><a xlink:title=" ">
<path fill="none" stroke="#63b8ff" d="M260.79,-153.55C269.69,-152.19 278.93,-150.77 288.03,-149.37"/>
<polygon fill="#63b8ff" stroke="#63b8ff" points="288.26,-152.73 297.62,-147.75 287.2,-145.81 288.26,-152.73"/>
</a>
</g>
</g>
<!-- Node15 -->
<g id="Node000015" class="node">
<title>Node15</title>
<g id="a_Node000015"><a xlink:href="../../dd/d2a/struct_hash_edge.html#abdcb56c4b67c5c3810037c7b657a7f43" target="_top" xlink:title=" ">
<polygon fill="white" stroke="#666666" points="416.62,-191.25 301.62,-191.25 301.62,-172 416.62,-172 416.62,-191.25"/>
<text text-anchor="middle" x="359.12" y="-177.75" font-family="Helvetica,sans-Serif" font-size="10.00">HashEdge::load_exact</text>
</a>
</g>
</g>
<!-- Node9&#45;&gt;Node15 -->
<g id="edge16_Node000009_Node000015" class="edge">
<title>Node9&#45;&gt;Node15</title>
<g id="a_edge16_Node000009_Node000015"><a xlink:title=" ">
<path fill="none" stroke="#63b8ff" d="M260.79,-169.81C270.52,-170.99 280.66,-172.22 290.57,-173.42"/>
<polygon fill="#63b8ff" stroke="#63b8ff" points="289.86,-176.98 300.2,-174.71 290.7,-170.03 289.86,-176.98"/>
</a>
</g>
</g>
<!-- Node11 -->
<g id="Node000011" class="node">
<title>Node11</title>
<g id="a_Node000011"><a xlink:href="../../d2/d21/struct_hash_table_edges.html#a126a1e7052fce42f07a2ec0118c65fc7" target="_top" xlink:title=" ">
<polygon fill="white" stroke="#666666" points="601.75,-115.25 455.25,-115.25 455.25,-96 601.75,-96 601.75,-115.25"/>
<text text-anchor="middle" x="528.5" y="-101.75" font-family="Helvetica,sans-Serif" font-size="10.00">HashTableEdges::insert_edge</text>
</a>
</g>
</g>
<!-- Node10&#45;&gt;Node11 -->
<g id="edge12_Node000010_Node000011" class="edge">
<title>Node10&#45;&gt;Node11</title>
<g id="a_edge12_Node000010_Node000011"><a xlink:title=" ">
<path fill="none" stroke="#63b8ff" d="M419.61,-126.9C434.5,-123.96 450.52,-120.8 465.53,-117.84"/>
<polygon fill="#63b8ff" stroke="#63b8ff" points="466.12,-121.1 475.25,-115.73 464.77,-114.23 466.12,-121.1"/>
</a>
</g>
</g>
<!-- Node14 -->
<g id="Node000014" class="node">
<title>Node14</title>
<g id="a_Node000014"><a xlink:href="../../d2/d21/struct_hash_table_edges.html#ab22ac1232724dc1cdf6a2582e2c1d604" target="_top" xlink:title=" ">
<polygon fill="white" stroke="#666666" points="761,-244.88 637.75,-244.88 637.75,-214.38 761,-214.38 761,-244.88"/>
<text text-anchor="start" x="645.75" y="-231.38" font-family="Helvetica,sans-Serif" font-size="10.00">HashTableEdges::record</text>
<text text-anchor="middle" x="699.38" y="-220.12" font-family="Helvetica,sans-Serif" font-size="10.00">_neighbors</text>
</a>
</g>
</g>
<!-- Node10&#45;&gt;Node14 -->
<g id="edge15_Node000010_Node000014" class="edge">
<title>Node10&#45;&gt;Node14</title>
<g id="a_edge15_Node000010_Node000014"><a xlink:title=" ">
<path fill="none" stroke="#63b8ff" d="M419.58,-136.33C469.65,-136.3 542.41,-140.79 601.75,-162.62 628.59,-172.5 654.98,-191.63 673.39,-206.93"/>
<polygon fill="#63b8ff" stroke="#63b8ff" points="670.87,-210.24 680.75,-214.07 675.42,-204.91 670.87,-210.24"/>
</a>
</g>
</g>
<!-- Node12 -->
<g id="Node000012" class="node">
<title>Node12</title>
<g id="a_Node000012"><a xlink:href="../../d2/d21/struct_hash_table_edges.html#a2e9448a035d2935c4754f240828c46ab" target="_top" xlink:title=" ">
<polygon fill="white" stroke="#666666" points="760.62,-142.88 638.12,-142.88 638.12,-112.38 760.62,-112.38 760.62,-142.88"/>
<text text-anchor="start" x="646.12" y="-129.38" font-family="Helvetica,sans-Serif" font-size="10.00">HashTableEdges::edges</text>
<text text-anchor="middle" x="699.38" y="-118.12" font-family="Helvetica,sans-Serif" font-size="10.00">_equal</text>
</a>
</g>
</g>
<!-- Node11&#45;&gt;Node12 -->
<g id="edge13_Node000011_Node000012" class="edge">
<title>Node11&#45;&gt;Node12</title>
<g id="a_edge13_Node000011_Node000012"><a xlink:title=" ">
<path fill="none" stroke="#63b8ff" d="M602.1,-115.08C610.37,-116.16 618.79,-117.26 627.04,-118.33"/>
<polygon fill="#63b8ff" stroke="#63b8ff" points="626.39,-121.91 636.76,-119.73 627.29,-114.97 626.39,-121.91"/>
</a>
</g>
</g>
<!-- Node13 -->
<g id="Node000013" class="node">
<title>Node13</title>
<g id="a_Node000013"><a xlink:href="../../dd/d2a/struct_hash_edge.html#a21d516d0b6ca9d7f9a22d8e9646ccb64" target="_top" xlink:title=" ">
<polygon fill="white" stroke="#666666" points="743.75,-94.25 655,-94.25 655,-75 743.75,-75 743.75,-94.25"/>
<text text-anchor="middle" x="699.38" y="-80.75" font-family="Helvetica,sans-Serif" font-size="10.00">HashEdge::hash</text>
</a>
</g>
</g>
<!-- Node11&#45;&gt;Node13 -->
<g id="edge14_Node000011_Node000013" class="edge">
<title>Node11&#45;&gt;Node13</title>
<g id="a_edge14_Node000011_Node000013"><a xlink:title=" ">
<path fill="none" stroke="#63b8ff" d="M602.1,-96.6C616.07,-94.86 630.48,-93.07 643.76,-91.42"/>
<polygon fill="#63b8ff" stroke="#63b8ff" points="644.12,-94.77 653.61,-90.07 643.26,-87.83 644.12,-94.77"/>
</a>
</g>
</g>
<!-- Node16 -->
<g id="Node000016" class="node">
<title>Node16</title>
<g id="a_Node000016"><a xlink:href="../../d0/d5f/_matrix_cwise_unary_ops_8h.html#afaccb60c8e7e930b441a048374b64ea3" target="_top" xlink:title=" ">
<polygon fill="white" stroke="#666666" points="557.88,-228.25 499.12,-228.25 499.12,-209 557.88,-209 557.88,-228.25"/>
<text text-anchor="middle" x="528.5" y="-214.75" font-family="Helvetica,sans-Serif" font-size="10.00">cwiseAbs</text>
</a>
</g>
</g>
<!-- Node15&#45;&gt;Node16 -->
<g id="edge17_Node000015_Node000016" class="edge">
<title>Node15&#45;&gt;Node16</title>
<g id="a_edge17_Node000015_Node000016"><a xlink:title=" ">
<path fill="none" stroke="#63b8ff" d="M405.86,-191.74C431.66,-197.44 463.57,-204.49 488.23,-209.94"/>
<polygon fill="#63b8ff" stroke="#63b8ff" points="487.14,-213.51 497.66,-212.25 488.65,-206.67 487.14,-213.51"/>
</a>
</g>
</g>
<!-- Node17 -->
<g id="Node000017" class="node">
<title>Node17</title>
<g id="a_Node000017"><a xlink:href="../../dd/d2a/struct_hash_edge.html#a245408920f2c978a139f4abcb081feea" target="_top" xlink:title=" ">
<polygon fill="white" stroke="#666666" points="590.12,-191.25 466.88,-191.25 466.88,-172 590.12,-172 590.12,-191.25"/>
<text text-anchor="middle" x="528.5" y="-177.75" font-family="Helvetica,sans-Serif" font-size="10.00">HashEdge::vertex_lower</text>
</a>
</g>
</g>
<!-- Node15&#45;&gt;Node17 -->
<g id="edge18_Node000015_Node000017" class="edge">
<title>Node15&#45;&gt;Node17</title>
<g id="a_edge18_Node000015_Node000017"><a xlink:title=" ">
<path fill="none" stroke="#63b8ff" d="M416.79,-181.62C429.31,-181.62 442.74,-181.62 455.77,-181.62"/>
<polygon fill="#63b8ff" stroke="#63b8ff" points="455.59,-185.13 465.59,-181.62 455.59,-178.13 455.59,-185.13"/>
</a>
</g>
</g>
<!-- Node19 -->
<g id="Node000019" class="node">
<title>Node19</title>
<g id="a_Node000019"><a xlink:href="../../d2/d21/struct_hash_table_edges.html#a45444b2e0542faa3ddb24a337c8be95e" target="_top" xlink:title=" ">
<polygon fill="white" stroke="#666666" points="419.25,-276.88 299,-276.88 299,-246.38 419.25,-246.38 419.25,-276.88"/>
<text text-anchor="start" x="307" y="-263.38" font-family="Helvetica,sans-Serif" font-size="10.00">HashTableEdges::insert</text>
<text text-anchor="middle" x="359.12" y="-252.12" font-family="Helvetica,sans-Serif" font-size="10.00">_edge_nearby</text>
</a>
</g>
</g>
<!-- Node18&#45;&gt;Node19 -->
<g id="edge20_Node000018_Node000019" class="edge">
<title>Node18&#45;&gt;Node19</title>
<g id="a_edge20_Node000018_Node000019"><a xlink:title=" ">
<path fill="none" stroke="#63b8ff" d="M263.48,-261.62C271.41,-261.62 279.57,-261.62 287.63,-261.62"/>
<polygon fill="#63b8ff" stroke="#63b8ff" points="287.51,-265.13 297.51,-261.62 287.51,-258.13 287.51,-265.13"/>
</a>
</g>
</g>
<!-- Node21 -->
<g id="Node000021" class="node">
<title>Node21</title>
<g id="a_Node000021"><a xlink:href="../../dd/d2a/struct_hash_edge.html#a000888fa125b1cb34f14d8c28254a0eb" target="_top" xlink:title=" ">
<polygon fill="white" stroke="#666666" points="419.25,-314.25 299,-314.25 299,-295 419.25,-295 419.25,-314.25"/>
<text text-anchor="middle" x="359.12" y="-300.75" font-family="Helvetica,sans-Serif" font-size="10.00">HashEdge::load_nearby</text>
</a>
</g>
</g>
<!-- Node18&#45;&gt;Node21 -->
<g id="edge24_Node000018_Node000021" class="edge">
<title>Node18&#45;&gt;Node21</title>
<g id="a_edge24_Node000018_Node000021"><a xlink:title=" ">
<path fill="none" stroke="#63b8ff" d="M238.32,-271.71C260.02,-277.67 287.73,-285.28 311.03,-291.69"/>
<polygon fill="#63b8ff" stroke="#63b8ff" points="309.82,-295.26 320.39,-294.53 311.68,-288.51 309.82,-295.26"/>
</a>
</g>
</g>
<!-- Node19&#45;&gt;Node11 -->
<g id="edge21_Node000019_Node000011" class="edge">
<title>Node19&#45;&gt;Node11</title>
<g id="a_edge21_Node000019_Node000011"><a xlink:title=" ">
<path fill="none" stroke="#63b8ff" d="M407.89,-246.03C411.99,-243.6 415.86,-240.81 419.25,-237.62 446.19,-212.3 432.14,-191.49 455.25,-162.62 468.32,-146.31 486.9,-131.78 501.95,-121.47"/>
<polygon fill="#63b8ff" stroke="#63b8ff" points="503.37,-124.07 509.78,-115.63 499.51,-118.23 503.37,-124.07"/>
</a>
</g>
</g>
<!-- Node20 -->
<g id="Node000020" class="node">
<title>Node20</title>
<g id="a_Node000020"><a xlink:href="../../d2/d21/struct_hash_table_edges.html#a5e154a0c27dc9b40cc2c9610e32967f1" target="_top" xlink:title=" ">
<polygon fill="white" stroke="#666666" points="590.12,-276.88 466.88,-276.88 466.88,-246.38 590.12,-246.38 590.12,-276.88"/>
<text text-anchor="start" x="474.88" y="-263.38" font-family="Helvetica,sans-Serif" font-size="10.00">HashTableEdges::match</text>
<text text-anchor="middle" x="528.5" y="-252.12" font-family="Helvetica,sans-Serif" font-size="10.00">_neighbors_nearby</text>
</a>
</g>
</g>
<!-- Node19&#45;&gt;Node20 -->
<g id="edge22_Node000019_Node000020" class="edge">
<title>Node19&#45;&gt;Node20</title>
<g id="a_edge22_Node000019_Node000020"><a xlink:title=" ">
<path fill="none" stroke="#63b8ff" d="M419.61,-261.62C431.26,-261.62 443.6,-261.62 455.61,-261.62"/>
<polygon fill="#63b8ff" stroke="#63b8ff" points="455.52,-265.13 465.52,-261.62 455.52,-258.13 455.52,-265.13"/>
</a>
</g>
</g>
<!-- Node20&#45;&gt;Node14 -->
<g id="edge23_Node000020_Node000014" class="edge">
<title>Node20&#45;&gt;Node14</title>
<g id="a_edge23_Node000020_Node000014"><a xlink:title=" ">
<path fill="none" stroke="#63b8ff" d="M590.47,-250.07C602.31,-247.83 614.81,-245.46 626.95,-243.16"/>
<polygon fill="#63b8ff" stroke="#63b8ff" points="627.32,-246.46 636.5,-241.16 626.02,-239.58 627.32,-246.46"/>
</a>
</g>
</g>
<!-- Node22&#45;&gt;Node10 -->
<g id="edge26_Node000022_Node000010" class="edge">
<title>Node22&#45;&gt;Node10</title>
<g id="a_edge26_Node000022_Node000010"><a xlink:title=" ">
<path fill="none" stroke="#63b8ff" d="M235.81,-190.92C244.78,-188.28 254.36,-185.13 263,-181.62 279.76,-174.82 282.6,-170.26 299,-162.62 301.92,-161.27 304.94,-159.91 307.99,-158.56"/>
<polygon fill="#63b8ff" stroke="#63b8ff" points="309,-161.51 316.82,-154.36 306.25,-155.08 309,-161.51"/>
</a>
</g>
</g>
<!-- Node22&#45;&gt;Node15 -->
<g id="edge27_Node000022_Node000015" class="edge">
<title>Node22&#45;&gt;Node15</title>
<g id="a_edge27_Node000022_Node000015"><a xlink:title=" ">
<path fill="none" stroke="#63b8ff" d="M235.97,-195.67C252.07,-193.82 271.83,-191.55 290.72,-189.38"/>
<polygon fill="#63b8ff" stroke="#63b8ff" points="290.88,-192.77 300.41,-188.15 290.08,-185.81 290.88,-192.77"/>
</a>
</g>
</g>
<!-- Node23 -->
<g id="Node000023" class="node">
<title>Node23</title>
<g id="a_Node000023"><a xlink:href="../../d1/d05/connect_8cpp.html#a461fc93fee2e92844d50bf3ea9383bb3" target="_top" xlink:title=" ">
<polygon fill="white" stroke="#666666" points="396.38,-228.25 321.88,-228.25 321.88,-209 396.38,-209 396.38,-228.25"/>
<text text-anchor="middle" x="359.12" y="-214.75" font-family="Helvetica,sans-Serif" font-size="10.00">stl_add_facet</text>
</a>
</g>
</g>
<!-- Node22&#45;&gt;Node23 -->
<g id="edge28_Node000022_Node000023" class="edge">
<title>Node22&#45;&gt;Node23</title>
<g id="a_edge28_Node000022_Node000023"><a xlink:title=" ">
<path fill="none" stroke="#63b8ff" d="M235.97,-203.79C257.9,-206.46 286.62,-209.94 310.71,-212.87"/>
<polygon fill="#63b8ff" stroke="#63b8ff" points="310.06,-216.44 320.41,-214.17 310.9,-209.49 310.06,-216.44"/>
</a>
</g>
</g>
<!-- Node24&#45;&gt;Node8 -->
<g id="edge35_Node000024_Node000008" class="edge">
<title>Node24&#45;&gt;Node8</title>
<g id="a_edge35_Node000024_Node000008"><a xlink:title=" ">
<path fill="none" stroke="#63b8ff" d="M214.6,-388.64C232.48,-401.81 266.21,-424.47 299,-434.62 359.35,-453.31 432.74,-455.74 479.77,-454.89"/>
<polygon fill="#63b8ff" stroke="#63b8ff" points="479.64,-458.37 489.56,-454.63 479.48,-451.38 479.64,-458.37"/>
</a>
</g>
</g>
<!-- Node25 -->
<g id="Node000025" class="node">
<title>Node25</title>
<g id="a_Node000025"><a xlink:href="../../d0/d2d/normals_8cpp.html#a52040f23a68528dd25ecb65d5459dd98" target="_top" xlink:title=" ">
<polygon fill="white" stroke="#666666" points="413.62,-351.25 304.62,-351.25 304.62,-332 413.62,-332 413.62,-351.25"/>
<text text-anchor="middle" x="359.12" y="-337.75" font-family="Helvetica,sans-Serif" font-size="10.00">check_normal_vector</text>
</a>
</g>
</g>
<!-- Node24&#45;&gt;Node25 -->
<g id="edge30_Node000024_Node000025" class="edge">
<title>Node24&#45;&gt;Node25</title>
<g id="a_edge30_Node000024_Node000025"><a xlink:title=" ">
<path fill="none" stroke="#63b8ff" d="M244.39,-368.51C263.02,-364.11 285.06,-358.9 304.75,-354.24"/>
<polygon fill="#63b8ff" stroke="#63b8ff" points="305.49,-357.43 314.41,-351.72 303.88,-350.62 305.49,-357.43"/>
</a>
</g>
</g>
<!-- Node26 -->
<g id="Node000026" class="node">
<title>Node26</title>
<g id="a_Node000026"><a xlink:href="../../d6/d4f/_block_methods_8h.html#a66cee6936cfa159827535f010684d973" target="_top" xlink:title="This is the const version of head(Index).">
<polygon fill="white" stroke="#666666" points="377.62,-425.25 340.62,-425.25 340.62,-406 377.62,-406 377.62,-425.25"/>
<text text-anchor="middle" x="359.12" y="-411.75" font-family="Helvetica,sans-Serif" font-size="10.00">head</text>
</a>
</g>
</g>
<!-- Node24&#45;&gt;Node26 -->
<g id="edge34_Node000024_Node000026" class="edge">
<title>Node24&#45;&gt;Node26</title>
<g id="a_edge34_Node000024_Node000026"><a xlink:title=" ">
<path fill="none" stroke="#63b8ff" d="M244.39,-388.74C271.58,-395.16 306.02,-403.31 329.84,-408.94"/>
<polygon fill="#63b8ff" stroke="#63b8ff" points="328.75,-412.51 339.29,-411.41 330.36,-405.7 328.75,-412.51"/>
</a>
</g>
</g>
<!-- Node27 -->
<g id="Node000027" class="node">
<title>Node27</title>
<g id="a_Node000027"><a xlink:href="../../d6/d4f/_block_methods_8h.html#a4c0b2c42fe7ffe307dc6bc88f24f001d" target="_top" xlink:title="This is the const version of tail(Index).">
<polygon fill="white" stroke="#666666" points="373.52,-388.25 344.73,-388.25 344.73,-369 373.52,-369 373.52,-388.25"/>
<text text-anchor="middle" x="359.12" y="-374.75" font-family="Helvetica,sans-Serif" font-size="10.00">tail</text>
</a>
</g>
</g>
<!-- Node24&#45;&gt;Node27 -->
<g id="edge36_Node000024_Node000027" class="edge">
<title>Node24&#45;&gt;Node27</title>
<g id="a_edge36_Node000024_Node000027"><a xlink:title=" ">
<path fill="none" stroke="#63b8ff" d="M263.03,-378.62C287.59,-378.62 314.48,-378.62 333.38,-378.62"/>
<polygon fill="#63b8ff" stroke="#63b8ff" points="333.28,-382.13 343.28,-378.62 333.28,-375.13 333.28,-382.13"/>
</a>
</g>
</g>
<!-- Node25&#45;&gt;Node5 -->
<g id="edge32_Node000025_Node000005" class="edge">
<title>Node25&#45;&gt;Node5</title>
<g id="a_edge32_Node000025_Node000005"><a xlink:title=" ">
<path fill="none" stroke="#63b8ff" d="M413.83,-341.1C465.11,-342.8 543.03,-351.23 601.75,-383.62 640.08,-404.77 671.14,-446.97 686.97,-471.58"/>
<polygon fill="#63b8ff" stroke="#63b8ff" points="684.36,-473.02 692.62,-479.65 690.3,-469.31 684.36,-473.02"/>
</a>
</g>
</g>
<!-- Node25&#45;&gt;Node6 -->
<g id="edge33_Node000025_Node000006" class="edge">
<title>Node25&#45;&gt;Node6</title>
<g id="a_edge33_Node000025_Node000006"><a xlink:title=" ">
<path fill="none" stroke="#63b8ff" d="M396.73,-351.72C404.26,-354.09 412.07,-356.76 419.25,-359.62 435.87,-366.25 438.88,-370.42 455.25,-377.62 519.06,-405.69 550.59,-386.28 601.75,-433.62 629.18,-459.01 609.55,-485.09 637.75,-509.62 639.31,-510.98 640.97,-512.24 642.7,-513.41"/>
<polygon fill="#63b8ff" stroke="#63b8ff" points="640.43,-516.72 650.87,-518.55 643.85,-510.61 640.43,-516.72"/>
</a>
</g>
</g>
<!-- Node25&#45;&gt;Node16 -->
<g id="edge31_Node000025_Node000016" class="edge">
<title>Node25&#45;&gt;Node16</title>
<g id="a_edge31_Node000025_Node000016"><a xlink:title=" ">
<path fill="none" stroke="#63b8ff" d="M407.4,-331.55C411.7,-329.4 415.75,-326.79 419.25,-323.62 449.99,-295.84 423.98,-264.81 455.25,-237.62 464.39,-229.68 476.48,-225 488.15,-222.26"/>
<polygon fill="#63b8ff" stroke="#63b8ff" points="488.48,-225.57 497.65,-220.26 487.17,-218.69 488.48,-225.57"/>
</a>
</g>
</g>
<!-- Node28&#45;&gt;Node25 -->
<g id="edge38_Node000028_Node000025" class="edge">
<title>Node28&#45;&gt;Node25</title>
<g id="a_edge38_Node000028_Node000025"><a xlink:title=" ">
<path fill="none" stroke="#63b8ff" d="M256.36,-327.97C268.36,-329.58 281.17,-331.3 293.52,-332.96"/>
<polygon fill="#63b8ff" stroke="#63b8ff" points="292.84,-336.53 303.21,-334.39 293.77,-329.59 292.84,-336.53"/>
</a>
</g>
</g>
<!-- Node30 -->
<g id="Node000030" class="node">
<title>Node30</title>
<g id="a_Node000030"><a xlink:href="../../d8/d27/structstl__neighbors.html#aec01ce7cf9df5584e6de82cc8af2dbce" target="_top" xlink:title=" ">
<polygon fill="white" stroke="#666666" points="408.38,-104.88 309.88,-104.88 309.88,-74.38 408.38,-74.38 408.38,-104.88"/>
<text text-anchor="start" x="317.88" y="-91.38" font-family="Helvetica,sans-Serif" font-size="10.00">stl_neighbors::num</text>
<text text-anchor="middle" x="359.12" y="-80.12" font-family="Helvetica,sans-Serif" font-size="10.00">_neighbors</text>
</a>
</g>
</g>
<!-- Node29&#45;&gt;Node30 -->
<g id="edge40_Node000029_Node000030" class="edge">
<title>Node29&#45;&gt;Node30</title>
<g id="a_edge40_Node000029_Node000030"><a xlink:title=" ">
<path fill="none" stroke="#63b8ff" d="M263.48,-90.23C275.13,-90.16 287.29,-90.08 298.87,-90"/>
<polygon fill="#63b8ff" stroke="#63b8ff" points="298.77,-93.5 308.75,-89.93 298.72,-86.5 298.77,-93.5"/>
</a>
</g>
</g>
<!-- Node29&#45;&gt;Node31 -->
<g id="edge41_Node000029_Node000031" class="edge">
<title>Node29&#45;&gt;Node31</title>
<g id="a_edge41_Node000029_Node000031"><a xlink:title=" ">
<path fill="none" stroke="#63b8ff" d="M257.24,-74.99C276.39,-69.6 297.53,-63.66 315.48,-58.62"/>
<polygon fill="#63b8ff" stroke="#63b8ff" points="316.24,-61.76 324.92,-55.68 314.35,-55.02 316.24,-61.76"/>
</a>
</g>
</g>
<!-- Node33 -->
<g id="Node000033" class="node">
<title>Node33</title>
<g id="a_Node000033"><a xlink:href="../../d3/d80/stl__io_8cpp.html#a91441e60c59522bd75d8d3c8fd9b806e" target="_top" xlink:title=" ">
<polygon fill="white" stroke="#666666" points="399,-19.25 319.25,-19.25 319.25,0 399,0 399,-19.25"/>
<text text-anchor="middle" x="359.12" y="-5.75" font-family="Helvetica,sans-Serif" font-size="10.00">stl_write_facet</text>
</a>
</g>
</g>
<!-- Node32&#45;&gt;Node33 -->
<g id="edge44_Node000032_Node000033" class="edge">
<title>Node32&#45;&gt;Node33</title>
<g id="a_edge44_Node000032_Node000033"><a xlink:title=" ">
<path fill="none" stroke="#63b8ff" d="M252.44,-9.62C270.32,-9.62 290.4,-9.62 308.21,-9.62"/>
<polygon fill="#63b8ff" stroke="#63b8ff" points="307.97,-13.13 317.97,-9.62 307.97,-6.13 307.97,-13.13"/>
</a>
</g>
</g>
<!-- Node34 -->
<g id="Node000034" class="node">
<title>Node34</title>
<g id="a_Node000034"><a xlink:href="../../d3/d80/stl__io_8cpp.html#af5533031b5d1953a8e898bcf1359d5b0" target="_top" xlink:title=" ">
<polygon fill="white" stroke="#666666" points="571,-19.25 486,-19.25 486,0 571,0 571,-19.25"/>
<text text-anchor="middle" x="528.5" y="-5.75" font-family="Helvetica,sans-Serif" font-size="10.00">stl_write_vertex</text>
</a>
</g>
</g>
<!-- Node33&#45;&gt;Node34 -->
<g id="edge45_Node000033_Node000034" class="edge">
<title>Node33&#45;&gt;Node34</title>
<g id="a_edge45_Node000033_Node000034"><a xlink:title=" ">
<path fill="none" stroke="#63b8ff" d="M399.37,-9.62C421.82,-9.62 450.29,-9.62 474.69,-9.62"/>
<polygon fill="#63b8ff" stroke="#63b8ff" points="474.58,-13.13 484.58,-9.62 474.58,-6.13 474.58,-13.13"/>
</a>
</g>
</g>
</g>
</svg>

<g id="navigator" transform="translate(0 0)" fill="#404254">
  <rect fill="#f2f5e9" fill-opacity="0.5" stroke="#606060" stroke-width=".5" x="0" y="0" width="60" height="60"/>
  <use id="zoomplus" xlink:href="#zoomPlus" x="17" y="9" onmousedown="handleZoom(evt,'in')"/>
  <use id="zoomminus" xlink:href="#zoomMin" x="42" y="9" onmousedown="handleZoom(evt,'out')"/>
  <use id="reset" xlink:href="#resetDef" x="30" y="36" onmousedown="handleReset()"/>
   <use id="arrowup" xlink:href="#arrowUp" x="0" y="0" onmousedown="handlePan(0,-1)"/>
  <use id="arrowright" xlink:href="#arrowRight" x="0" y="0" onmousedown="handlePan(1,0)"/>
  <use id="arrowdown" xlink:href="#arrowDown" x="0" y="0" onmousedown="handlePan(0,1)"/>
  <use id="arrowleft" xlink:href="#arrowLeft" x="0" y="0" onmousedown="handlePan(-1,0)"/>
</g>
<svg viewBox="0 0 15 15" width="100%" height="30px" preserveAspectRatio="xMaxYMin meet">
 <g id="arrow_out" transform="scale(0.3 0.3)">
  <a xlink:href="namespace_slic3r_ae1358859f6a22e50b89d06a5b79eb7b6_cgraph_org.svg" target="_base">
   <rect id="button" ry="5" rx="5" y="6" x="6" height="38" width="38"
        fill="#f2f5e9" fill-opacity="0.5" stroke="#606060" stroke-width="1.0"/>
   <path id="arrow"
     d="M 11.500037,31.436501 C 11.940474,20.09759 22.043105,11.32322 32.158766,21.979434 L 37.068811,17.246167 C 37.068811,17.246167 37.088388,32 37.088388,32 L 22.160133,31.978069 C 22.160133,31.978069 26.997745,27.140456 26.997745,27.140456 C 18.528582,18.264221 13.291696,25.230495 11.500037,31.436501 z"
     style="fill:#404040;"/>
  </a>
 </g>
</svg>

<style type='text/css'>
<![CDATA[
[data-mouse-over-selected='false'] { opacity: 0.7; }
[data-mouse-over-selected='true']  { opacity: 1.0; }
]]>
</style>
<script type="application/ecmascript"><![CDATA[
document.addEventListener('DOMContentLoaded', (event) => {
  highlightEdges();
  highlightAdjacentNodes();
});
]]></script>
</svg>
