<?xml version="1.0" encoding="UTF-8" standalone="no"?>
<!DOCTYPE svg PUBLIC "-//W3C//DTD SVG 1.1//EN"
 "http://www.w3.org/Graphics/SVG/1.1/DTD/svg11.dtd">
<!-- Generated by graphviz version 8.0.5 (20230430.1635)
 -->
<!-- Title: Slic3r::base_support_extend_infill_lines Pages: 1 -->
<svg width="450pt" height="419pt"
 viewBox="0.00 0.00 449.75 418.50" xmlns="http://www.w3.org/2000/svg" xmlns:xlink="http://www.w3.org/1999/xlink">

<svg id="main" version="1.1" xmlns="http://www.w3.org/2000/svg" xmlns:xlink="http://www.w3.org/1999/xlink" xml:space="preserve" onload="init(evt)">
<style type="text/css"><![CDATA[
.node, .edge {opacity: 0.7;}
.node.selected, .edge.selected {opacity: 1;}
.edge:hover path { stroke: red; }
.edge:hover polygon { stroke: red; fill: red; }
]]></style>
<script type="application/ecmascript" xlink:href="../../svg.min.js"/>
<svg id="graph" class="graph">
<g id="graph0" class="graph" transform="scale(1 1) rotate(0) translate(4 414.5)">
<title>Slic3r::base_support_extend_infill_lines</title>
<!-- Node1 -->
<g id="Node000001" class="node">
<title>Node1</title>
<g id="a_Node000001"><a xlink:title=" ">
<polygon fill="#999999" stroke="#666666" points="105.25,-226.5 0,-226.5 0,-196 105.25,-196 105.25,-226.5"/>
<text text-anchor="start" x="8" y="-213" font-family="Helvetica,sans-Serif" font-size="10.00">Slic3r::base_support</text>
<text text-anchor="middle" x="52.62" y="-201.75" font-family="Helvetica,sans-Serif" font-size="10.00">_extend_infill_lines</text>
</a>
</g>
</g>
<!-- Node1&#45;&gt;Node1 -->
<g id="edge1_Node000001_Node000001" class="edge">
<title>Node1&#45;&gt;Node1</title>
<g id="a_edge1_Node000001_Node000001"><a xlink:title=" ">
<path fill="none" stroke="#63b8ff" d="M25.2,-226.99C19.61,-236.06 28.75,-244.5 52.62,-244.5 66.06,-244.5 74.82,-241.83 78.93,-237.88"/>
<polygon fill="#63b8ff" stroke="#63b8ff" points="82.51,-238.29 80.05,-227.99 75.54,-237.58 82.51,-238.29"/>
</a>
</g>
</g>
<!-- Node2 -->
<g id="Node000002" class="node">
<title>Node2</title>
<g id="a_Node000002"><a xlink:href="../../de/db8/namespace_slic3r.html#a0c99f9d883edfbdf3d96bd918b5b1a29" target="_top" xlink:title=" ">
<polygon fill="white" stroke="#666666" points="263.75,-410.5 151,-410.5 151,-380 263.75,-380 263.75,-410.5"/>
<text text-anchor="start" x="159" y="-397" font-family="Helvetica,sans-Serif" font-size="10.00">Slic3r::closed_contour</text>
<text text-anchor="middle" x="207.38" y="-385.75" font-family="Helvetica,sans-Serif" font-size="10.00">_distance_ccw</text>
</a>
</g>
</g>
<!-- Node1&#45;&gt;Node2 -->
<g id="edge2_Node000001_Node000002" class="edge">
<title>Node1&#45;&gt;Node2</title>
<g id="a_edge2_Node000001_Node000002"><a xlink:title=" ">
<path fill="none" stroke="#63b8ff" d="M58.13,-226.67C68.05,-258.02 94.68,-329.66 141.25,-370.25 142.66,-371.48 144.14,-372.65 145.68,-373.77"/>
<polygon fill="#63b8ff" stroke="#63b8ff" points="143.62,-377.24 153.95,-379.59 147.34,-371.31 143.62,-377.24"/>
</a>
</g>
</g>
<!-- Node3 -->
<g id="Node000003" class="node">
<title>Node3</title>
<g id="a_Node000003"><a xlink:href="../../d4/d5e/struct_slic3r_1_1_boundary_infill_graph.html#a9019b68d5d235e7112b57a3f87c279d3" target="_top" xlink:title=" ">
<polygon fill="white" stroke="#666666" points="273.5,-361.5 141.25,-361.5 141.25,-331 273.5,-331 273.5,-361.5"/>
<text text-anchor="start" x="149.25" y="-348" font-family="Helvetica,sans-Serif" font-size="10.00">Slic3r::BoundaryInfillGraph</text>
<text text-anchor="middle" x="207.38" y="-336.75" font-family="Helvetica,sans-Serif" font-size="10.00">::first</text>
</a>
</g>
</g>
<!-- Node1&#45;&gt;Node3 -->
<g id="edge3_Node000001_Node000003" class="edge">
<title>Node1&#45;&gt;Node3</title>
<g id="a_edge3_Node000001_Node000003"><a xlink:title=" ">
<path fill="none" stroke="#63b8ff" d="M62.07,-226.74C75.74,-250.48 104.89,-295.86 141.25,-322.25 142.72,-323.32 144.25,-324.35 145.82,-325.33"/>
<polygon fill="#63b8ff" stroke="#63b8ff" points="143.75,-328.74 154.19,-330.54 147.15,-322.62 143.75,-328.74"/>
</a>
</g>
</g>
<!-- Node4 -->
<g id="Node000004" class="node">
<title>Node4</title>
<g id="a_Node000004"><a xlink:href="../../de/db8/namespace_slic3r.html#a9190c2947554e2a44d5c3a13d5dfcbfe" target="_top" xlink:title=" ">
<polygon fill="white" stroke="#666666" points="267.5,-312.88 147.25,-312.88 147.25,-293.62 267.5,-293.62 267.5,-312.88"/>
<text text-anchor="middle" x="207.38" y="-299.38" font-family="Helvetica,sans-Serif" font-size="10.00">Slic3r::next_idx_modulo</text>
</a>
</g>
</g>
<!-- Node1&#45;&gt;Node4 -->
<g id="edge4_Node000001_Node000004" class="edge">
<title>Node1&#45;&gt;Node4</title>
<g id="a_edge4_Node000001_Node000004"><a xlink:title=" ">
<path fill="none" stroke="#63b8ff" d="M68.34,-226.84C84.69,-243.32 112.59,-268.99 141.25,-284.25 144.78,-286.13 148.53,-287.85 152.37,-289.41"/>
<polygon fill="#63b8ff" stroke="#63b8ff" points="151.06,-293.03 161.65,-293.2 153.48,-286.46 151.06,-293.03"/>
</a>
</g>
</g>
<!-- Node5 -->
<g id="Node000005" class="node">
<title>Node5</title>
<g id="a_Node000005"><a xlink:href="../../d4/d5e/struct_slic3r_1_1_boundary_infill_graph.html#aa1d2f533438f2d4148403c9728c13908" target="_top" xlink:title=" ">
<polygon fill="white" stroke="#666666" points="273.5,-226.5 141.25,-226.5 141.25,-196 273.5,-196 273.5,-226.5"/>
<text text-anchor="start" x="149.25" y="-213" font-family="Helvetica,sans-Serif" font-size="10.00">Slic3r::BoundaryInfillGraph</text>
<text text-anchor="middle" x="207.38" y="-201.75" font-family="Helvetica,sans-Serif" font-size="10.00">::next_vertical</text>
</a>
</g>
</g>
<!-- Node1&#45;&gt;Node5 -->
<g id="edge5_Node000001_Node000005" class="edge">
<title>Node1&#45;&gt;Node5</title>
<g id="a_edge5_Node000001_Node000005"><a xlink:title=" ">
<path fill="none" stroke="#63b8ff" d="M105.34,-211.25C113.28,-211.25 121.63,-211.25 129.97,-211.25"/>
<polygon fill="#63b8ff" stroke="#63b8ff" points="129.9,-214.75 139.9,-211.25 129.9,-207.75 129.9,-214.75"/>
</a>
</g>
</g>
<!-- Node7 -->
<g id="Node000007" class="node">
<title>Node7</title>
<g id="a_Node000007"><a xlink:href="../../de/db8/namespace_slic3r.html#a847af524954f881ef5a5f906ca39ab94" target="_top" xlink:title=" ">
<polygon fill="white" stroke="#666666" points="267.5,-177.88 147.25,-177.88 147.25,-158.62 267.5,-158.62 267.5,-177.88"/>
<text text-anchor="middle" x="207.38" y="-164.38" font-family="Helvetica,sans-Serif" font-size="10.00">Slic3r::prev_idx_modulo</text>
</a>
</g>
</g>
<!-- Node1&#45;&gt;Node7 -->
<g id="edge7_Node000001_Node000007" class="edge">
<title>Node1&#45;&gt;Node7</title>
<g id="a_edge7_Node000001_Node000007"><a xlink:title=" ">
<path fill="none" stroke="#63b8ff" d="M105.34,-196.69C123.11,-191.69 142.89,-186.12 160.19,-181.25"/>
<polygon fill="#63b8ff" stroke="#63b8ff" points="160.93,-184.4 169.61,-178.32 159.04,-177.66 160.93,-184.4"/>
</a>
</g>
</g>
<!-- Node8 -->
<g id="Node000008" class="node">
<title>Node8</title>
<g id="a_Node000008"><a xlink:href="../../d4/d5e/struct_slic3r_1_1_boundary_infill_graph.html#a7b4e68818d66be7092d1a9ef58f57409" target="_top" xlink:title=" ">
<polygon fill="white" stroke="#666666" points="273.5,-275.5 141.25,-275.5 141.25,-245 273.5,-245 273.5,-275.5"/>
<text text-anchor="start" x="149.25" y="-262" font-family="Helvetica,sans-Serif" font-size="10.00">Slic3r::BoundaryInfillGraph</text>
<text text-anchor="middle" x="207.38" y="-250.75" font-family="Helvetica,sans-Serif" font-size="10.00">::prev_vertical</text>
</a>
</g>
</g>
<!-- Node1&#45;&gt;Node8 -->
<g id="edge8_Node000001_Node000008" class="edge">
<title>Node1&#45;&gt;Node8</title>
<g id="a_edge8_Node000001_Node000008"><a xlink:title=" ">
<path fill="none" stroke="#63b8ff" d="M102.38,-226.89C116.64,-231.46 132.38,-236.51 147.21,-241.27"/>
<polygon fill="#63b8ff" stroke="#63b8ff" points="145.71,-244.79 156.3,-244.51 147.85,-238.12 145.71,-244.79"/>
</a>
</g>
</g>
<!-- Node9 -->
<g id="Node000009" class="node">
<title>Node9</title>
<g id="a_Node000009"><a xlink:href="../../d7/dd1/class_slic3r_1_1_multi_point.html#a1d2346fcc6ad14762b3ac851ebe1ddb5" target="_top" xlink:title=" ">
<polygon fill="white" stroke="#666666" points="252.5,-140.5 162.25,-140.5 162.25,-110 252.5,-110 252.5,-140.5"/>
<text text-anchor="start" x="170.25" y="-127" font-family="Helvetica,sans-Serif" font-size="10.00">Slic3r::MultiPoint</text>
<text text-anchor="middle" x="207.38" y="-115.75" font-family="Helvetica,sans-Serif" font-size="10.00">::reverse</text>
</a>
</g>
</g>
<!-- Node1&#45;&gt;Node9 -->
<g id="edge10_Node000001_Node000009" class="edge">
<title>Node1&#45;&gt;Node9</title>
<g id="a_edge10_Node000001_Node000009"><a xlink:title=" ">
<path fill="none" stroke="#63b8ff" d="M72.51,-195.67C89.65,-182.08 116.02,-162.53 141.25,-149.25 144.71,-147.43 148.33,-145.69 152.02,-144.03"/>
<polygon fill="#63b8ff" stroke="#63b8ff" points="153.06,-146.97 160.9,-139.85 150.33,-140.53 153.06,-146.97"/>
</a>
</g>
</g>
<!-- Node10 -->
<g id="Node000010" class="node">
<title>Node10</title>
<g id="a_Node000010"><a xlink:href="../../de/db8/namespace_slic3r.html#a5667bed76a963538bc7f6b4de9b1cded" target="_top" xlink:title=" ">
<polygon fill="white" stroke="#666666" points="260.75,-54.88 154,-54.88 154,-35.62 260.75,-35.62 260.75,-54.88"/>
<text text-anchor="middle" x="207.38" y="-41.38" font-family="Helvetica,sans-Serif" font-size="10.00">Slic3r::take_ccw_full</text>
</a>
</g>
</g>
<!-- Node1&#45;&gt;Node10 -->
<g id="edge11_Node000001_Node000010" class="edge">
<title>Node1&#45;&gt;Node10</title>
<g id="a_edge11_Node000001_Node000010"><a xlink:title=" ">
<path fill="none" stroke="#63b8ff" d="M58.46,-195.6C68.64,-165.29 95.24,-98.44 141.25,-63.25 142.69,-62.15 144.2,-61.11 145.75,-60.14"/>
<polygon fill="#63b8ff" stroke="#63b8ff" points="146.88,-62.98 154.12,-55.24 143.64,-56.77 146.88,-62.98"/>
</a>
</g>
</g>
<!-- Node14 -->
<g id="Node000014" class="node">
<title>Node14</title>
<g id="a_Node000014"><a xlink:href="../../de/db8/namespace_slic3r.html#a056e0729d4336fc7220cc3ce98989d43" target="_top" xlink:title=" ">
<polygon fill="white" stroke="#666666" points="258.12,-91.88 156.62,-91.88 156.62,-72.62 258.12,-72.62 258.12,-91.88"/>
<text text-anchor="middle" x="207.38" y="-78.38" font-family="Helvetica,sans-Serif" font-size="10.00">Slic3r::take_cw_full</text>
</a>
</g>
</g>
<!-- Node1&#45;&gt;Node14 -->
<g id="edge15_Node000001_Node000014" class="edge">
<title>Node1&#45;&gt;Node14</title>
<g id="a_edge15_Node000001_Node000014"><a xlink:title=" ">
<path fill="none" stroke="#63b8ff" d="M61.89,-195.59C75.31,-171.66 104.15,-126.15 141.25,-101.25 143.69,-99.61 146.27,-98.12 148.94,-96.75"/>
<polygon fill="#63b8ff" stroke="#63b8ff" points="150.2,-99.57 157.92,-92.32 147.36,-93.17 150.2,-99.57"/>
</a>
</g>
</g>
<!-- Node6 -->
<g id="Node000006" class="node">
<title>Node6</title>
<g id="a_Node000006"><a xlink:href="../../d4/d5e/struct_slic3r_1_1_boundary_infill_graph.html#a2d43004f061283b17d14dc8ad2dc7edc" target="_top" xlink:title=" ">
<polygon fill="white" stroke="#666666" points="441.75,-250.5 309.5,-250.5 309.5,-220 441.75,-220 441.75,-250.5"/>
<text text-anchor="start" x="317.5" y="-237" font-family="Helvetica,sans-Serif" font-size="10.00">Slic3r::BoundaryInfillGraph</text>
<text text-anchor="middle" x="375.62" y="-225.75" font-family="Helvetica,sans-Serif" font-size="10.00">::point</text>
</a>
</g>
</g>
<!-- Node5&#45;&gt;Node6 -->
<g id="edge6_Node000005_Node000006" class="edge">
<title>Node5&#45;&gt;Node6</title>
<g id="a_edge6_Node000005_Node000006"><a xlink:title=" ">
<path fill="none" stroke="#63b8ff" d="M273.6,-220.67C281.7,-221.84 290.03,-223.04 298.28,-224.23"/>
<polygon fill="#63b8ff" stroke="#63b8ff" points="297.64,-227.82 308.04,-225.78 298.64,-220.89 297.64,-227.82"/>
</a>
</g>
</g>
<!-- Node8&#45;&gt;Node6 -->
<g id="edge9_Node000008_Node000006" class="edge">
<title>Node8&#45;&gt;Node6</title>
<g id="a_edge9_Node000008_Node000006"><a xlink:title=" ">
<path fill="none" stroke="#63b8ff" d="M273.6,-250.44C281.7,-249.22 290.03,-247.97 298.28,-246.73"/>
<polygon fill="#63b8ff" stroke="#63b8ff" points="298.67,-250.06 308.04,-245.11 297.63,-243.14 298.67,-250.06"/>
</a>
</g>
</g>
<!-- Node11 -->
<g id="Node000011" class="node">
<title>Node11</title>
<g id="a_Node000011"><a xlink:href="../../de/db8/namespace_slic3r.html#af61cef4113ccd6c7b65581bcfb25e340" target="_top" xlink:title=" ">
<polygon fill="white" stroke="#666666" points="415.12,-116.88 336.12,-116.88 336.12,-97.62 415.12,-97.62 415.12,-116.88"/>
<text text-anchor="middle" x="375.62" y="-103.38" font-family="Helvetica,sans-Serif" font-size="10.00">Slic3r::contour</text>
</a>
</g>
</g>
<!-- Node10&#45;&gt;Node11 -->
<g id="edge12_Node000010_Node000011" class="edge">
<title>Node10&#45;&gt;Node11</title>
<g id="a_edge12_Node000010_Node000011"><a xlink:title=" ">
<path fill="none" stroke="#63b8ff" d="M252.55,-55.28C259.7,-57.52 266.91,-60.16 273.5,-63.25 291.14,-71.52 291.92,-79.86 309.5,-88.25 314.49,-90.63 319.83,-92.78 325.24,-94.7"/>
<polygon fill="#63b8ff" stroke="#63b8ff" points="324.04,-98.31 334.63,-98.1 326.22,-91.66 324.04,-98.31"/>
</a>
</g>
</g>
<!-- Node12 -->
<g id="Node000012" class="node">
<title>Node12</title>
<g id="a_Node000012"><a xlink:href="../../d7/dd1/class_slic3r_1_1_multi_point.html#aba6057e668b1b0afa59df15e3bdaa6d7" target="_top" xlink:title=" ">
<polygon fill="white" stroke="#666666" points="420.75,-79.5 330.5,-79.5 330.5,-49 420.75,-49 420.75,-79.5"/>
<text text-anchor="start" x="338.5" y="-66" font-family="Helvetica,sans-Serif" font-size="10.00">Slic3r::MultiPoint</text>
<text text-anchor="middle" x="375.62" y="-54.75" font-family="Helvetica,sans-Serif" font-size="10.00">::empty</text>
</a>
</g>
</g>
<!-- Node10&#45;&gt;Node12 -->
<g id="edge13_Node000010_Node000012" class="edge">
<title>Node10&#45;&gt;Node12</title>
<g id="a_edge13_Node000010_Node000012"><a xlink:title=" ">
<path fill="none" stroke="#63b8ff" d="M260.98,-51.26C279.59,-53.39 300.56,-55.79 319.38,-57.94"/>
<polygon fill="#63b8ff" stroke="#63b8ff" points="318.85,-61.51 329.18,-59.17 319.64,-54.56 318.85,-61.51"/>
</a>
</g>
</g>
<!-- Node13 -->
<g id="Node000013" class="node">
<title>Node13</title>
<g id="a_Node000013"><a xlink:href="../../d7/dd1/class_slic3r_1_1_multi_point.html#af3d77ee0ed47dc3e2bf8e741d6a1e563" target="_top" xlink:title=" ">
<polygon fill="white" stroke="#666666" points="420.75,-30.5 330.5,-30.5 330.5,0 420.75,0 420.75,-30.5"/>
<text text-anchor="start" x="338.5" y="-17" font-family="Helvetica,sans-Serif" font-size="10.00">Slic3r::MultiPoint</text>
<text text-anchor="middle" x="375.62" y="-5.75" font-family="Helvetica,sans-Serif" font-size="10.00">::size</text>
</a>
</g>
</g>
<!-- Node10&#45;&gt;Node13 -->
<g id="edge14_Node000010_Node000013" class="edge">
<title>Node10&#45;&gt;Node13</title>
<g id="a_edge14_Node000010_Node000013"><a xlink:title=" ">
<path fill="none" stroke="#63b8ff" d="M260.98,-35.76C279.59,-32.4 300.56,-28.61 319.38,-25.22"/>
<polygon fill="#63b8ff" stroke="#63b8ff" points="319.96,-28.49 329.18,-23.27 318.72,-21.6 319.96,-28.49"/>
</a>
</g>
</g>
<!-- Node14&#45;&gt;Node11 -->
<g id="edge16_Node000014_Node000011" class="edge">
<title>Node14&#45;&gt;Node11</title>
<g id="a_edge16_Node000014_Node000011"><a xlink:title=" ">
<path fill="none" stroke="#63b8ff" d="M258.26,-89.75C279.43,-92.94 304.05,-96.64 325.18,-99.82"/>
<polygon fill="#63b8ff" stroke="#63b8ff" points="324.47,-103.4 334.88,-101.42 325.51,-96.47 324.47,-103.4"/>
</a>
</g>
</g>
<!-- Node14&#45;&gt;Node12 -->
<g id="edge17_Node000014_Node000012" class="edge">
<title>Node14&#45;&gt;Node12</title>
<g id="a_edge17_Node000014_Node000012"><a xlink:title=" ">
<path fill="none" stroke="#63b8ff" d="M258.26,-76.85C277.54,-74.76 299.69,-72.36 319.45,-70.22"/>
<polygon fill="#63b8ff" stroke="#63b8ff" points="319.58,-73.62 329.15,-69.07 318.83,-66.66 319.58,-73.62"/>
</a>
</g>
</g>
<!-- Node14&#45;&gt;Node13 -->
<g id="edge18_Node000014_Node000013" class="edge">
<title>Node14&#45;&gt;Node13</title>
<g id="a_edge18_Node000014_Node000013"><a xlink:title=" ">
<path fill="none" stroke="#63b8ff" d="M252.15,-72.22C259.42,-69.97 266.78,-67.32 273.5,-64.25 290.99,-56.25 292.42,-49.08 309.5,-40.25 312.99,-38.45 316.63,-36.7 320.34,-35.02"/>
<polygon fill="#63b8ff" stroke="#63b8ff" points="321.45,-37.93 329.25,-30.76 318.68,-31.5 321.45,-37.93"/>
</a>
</g>
</g>
</g>
</svg>
</svg>

<style type='text/css'>
<![CDATA[
[data-mouse-over-selected='false'] { opacity: 0.7; }
[data-mouse-over-selected='true']  { opacity: 1.0; }
]]>
</style>
<script type="application/ecmascript"><![CDATA[
document.addEventListener('DOMContentLoaded', (event) => {
  highlightEdges();
  highlightAdjacentNodes();
});
]]></script>
</svg>
