<?xml version="1.0" encoding="UTF-8" standalone="no"?>
<!DOCTYPE svg PUBLIC "-//W3C//DTD SVG 1.1//EN"
 "http://www.w3.org/Graphics/SVG/1.1/DTD/svg11.dtd">
<!-- Generated by graphviz version 8.0.5 (20230430.1635)
 -->
<!-- Title: Slic3r::try_catch_signal Pages: 1 -->
<svg width="600pt" height="382pt"
 viewBox="0.00 0.00 600.00 381.50" xmlns="http://www.w3.org/2000/svg" xmlns:xlink="http://www.w3.org/1999/xlink">
<g id="graph0" class="graph" transform="scale(1 1) rotate(0) translate(4 377.5)">
<title>Slic3r::try_catch_signal</title>
<!-- Node1 -->
<g id="Node000001" class="node">
<title>Node1</title>
<g id="a_Node000001"><a xlink:title=" ">
<polygon fill="#999999" stroke="#666666" points="592,-122.88 474,-122.88 474,-103.62 592,-103.62 592,-122.88"/>
<text text-anchor="middle" x="533" y="-109.38" font-family="Helvetica,sans-Serif" font-size="10.00">Slic3r::try_catch_signal</text>
</a>
</g>
</g>
<!-- Node2 -->
<g id="Node000002" class="node">
<title>Node2</title>
<g id="a_Node000002"><a xlink:href="../../dd/ddd/namespace_slic3r_1_1_mesh_boolean_1_1cgal.html#a26823081b1ec12c5065f378965b370a1" target="_top" xlink:title=" ">
<polygon fill="white" stroke="#666666" points="438,-128.5 332,-128.5 332,-98 438,-98 438,-128.5"/>
<text text-anchor="start" x="340" y="-115" font-family="Helvetica,sans-Serif" font-size="10.00">Slic3r::MeshBoolean</text>
<text text-anchor="middle" x="385" y="-103.75" font-family="Helvetica,sans-Serif" font-size="10.00">::cgal::_cgal_do</text>
</a>
</g>
</g>
<!-- Node1&#45;&gt;Node2 -->
<g id="edge1_Node000001_Node000002" class="edge">
<title>Node1&#45;&gt;Node2</title>
<g id="a_edge1_Node000001_Node000002"><a xlink:title=" ">
<path fill="none" stroke="#63b8ff" d="M463.01,-113.25C454.68,-113.25 446.28,-113.25 438.25,-113.25"/>
<polygon fill="#63b8ff" stroke="#63b8ff" points="462.88,-116.75 472.88,-113.25 462.88,-109.75 462.88,-116.75"/>
</a>
</g>
</g>
<!-- Node2&#45;&gt;Node2 -->
<g id="edge2_Node000002_Node000002" class="edge">
<title>Node2&#45;&gt;Node2</title>
<g id="a_edge2_Node000002_Node000002"><a xlink:title=" ">
<path fill="none" stroke="#63b8ff" d="M410.16,-139.88C406.23,-143.83 397.85,-146.5 385,-146.5 362.16,-146.5 353.42,-138.06 358.77,-128.99"/>
<polygon fill="#63b8ff" stroke="#63b8ff" points="413.73,-140.28 411.23,-129.99 406.77,-139.6 413.73,-140.28"/>
</a>
</g>
</g>
<!-- Node3 -->
<g id="Node000003" class="node">
<title>Node3</title>
<g id="a_Node000003"><a xlink:href="../../dd/ddd/namespace_slic3r_1_1_mesh_boolean_1_1cgal.html#aef3d3ac635c8d49d8f84fcb005377a69" target="_top" xlink:title=" ">
<polygon fill="white" stroke="#666666" points="296,-210.5 166,-210.5 166,-180 296,-180 296,-210.5"/>
<text text-anchor="start" x="174" y="-197" font-family="Helvetica,sans-Serif" font-size="10.00">Slic3r::MeshBoolean</text>
<text text-anchor="middle" x="231" y="-185.75" font-family="Helvetica,sans-Serif" font-size="10.00">::cgal::_mesh_boolean_do</text>
</a>
</g>
</g>
<!-- Node2&#45;&gt;Node3 -->
<g id="edge3_Node000002_Node000003" class="edge">
<title>Node2&#45;&gt;Node3</title>
<g id="a_edge3_Node000002_Node000003"><a xlink:title=" ">
<path fill="none" stroke="#63b8ff" d="M345.43,-134.06C319.2,-148.21 285.05,-166.63 261.1,-179.55"/>
<polygon fill="#63b8ff" stroke="#63b8ff" points="346.91,-136.69 354.05,-128.87 343.59,-130.53 346.91,-136.69"/>
</a>
</g>
</g>
<!-- Node4 -->
<g id="Node000004" class="node">
<title>Node4</title>
<g id="a_Node000004"><a xlink:href="../../dd/ddd/namespace_slic3r_1_1_mesh_boolean_1_1cgal.html#aa6350a5213d5b41890089de644b75f50" target="_top" xlink:title=" ">
<polygon fill="white" stroke="#666666" points="130,-373.5 0,-373.5 0,-343 130,-343 130,-373.5"/>
<text text-anchor="start" x="8" y="-360" font-family="Helvetica,sans-Serif" font-size="10.00">Slic3r::MeshBoolean</text>
<text text-anchor="middle" x="65" y="-348.75" font-family="Helvetica,sans-Serif" font-size="10.00">::cgal::_mesh_boolean_do</text>
</a>
</g>
</g>
<!-- Node2&#45;&gt;Node4 -->
<g id="edge12_Node000002_Node000004" class="edge">
<title>Node2&#45;&gt;Node4</title>
<g id="a_edge12_Node000002_Node000004"><a xlink:title=" ">
<path fill="none" stroke="#63b8ff" d="M370.48,-138.46C355.13,-165.38 328.01,-208.08 296,-237.25 240.64,-287.7 160.37,-323.6 110.77,-342.6"/>
<polygon fill="#63b8ff" stroke="#63b8ff" points="373.96,-140.42 375.78,-129.98 367.85,-137.01 373.96,-140.42"/>
</a>
</g>
</g>
<!-- Node11 -->
<g id="Node000011" class="node">
<title>Node11</title>
<g id="a_Node000011"><a xlink:href="../../dd/ddd/namespace_slic3r_1_1_mesh_boolean_1_1cgal.html#a1acb65523891923e9c6a3c9925441039" target="_top" xlink:title=" ">
<polygon fill="white" stroke="#666666" points="284,-30.5 178,-30.5 178,0 284,0 284,-30.5"/>
<text text-anchor="start" x="186" y="-17" font-family="Helvetica,sans-Serif" font-size="10.00">Slic3r::MeshBoolean</text>
<text text-anchor="middle" x="231" y="-5.75" font-family="Helvetica,sans-Serif" font-size="10.00">::cgal::intersect</text>
</a>
</g>
</g>
<!-- Node2&#45;&gt;Node11 -->
<g id="edge13_Node000002_Node000011" class="edge">
<title>Node2&#45;&gt;Node11</title>
<g id="a_edge13_Node000002_Node000011"><a xlink:title=" ">
<path fill="none" stroke="#63b8ff" d="M360.63,-90.29C343.75,-74.64 319.81,-54.28 296,-40.25 290.24,-36.86 283.94,-33.76 277.61,-30.98"/>
<polygon fill="#63b8ff" stroke="#63b8ff" points="357.65,-92.24 367.33,-96.55 362.46,-87.14 357.65,-92.24"/>
</a>
</g>
</g>
<!-- Node13 -->
<g id="Node000013" class="node">
<title>Node13</title>
<g id="a_Node000013"><a xlink:href="../../dd/ddd/namespace_slic3r_1_1_mesh_boolean_1_1cgal.html#afd84b264e9df7fb76442d5eb0a31e68a" target="_top" xlink:title=" ">
<polygon fill="white" stroke="#666666" points="284,-79.5 178,-79.5 178,-49 284,-49 284,-79.5"/>
<text text-anchor="start" x="186" y="-66" font-family="Helvetica,sans-Serif" font-size="10.00">Slic3r::MeshBoolean</text>
<text text-anchor="middle" x="231" y="-54.75" font-family="Helvetica,sans-Serif" font-size="10.00">::cgal::minus</text>
</a>
</g>
</g>
<!-- Node2&#45;&gt;Node13 -->
<g id="edge15_Node000002_Node000013" class="edge">
<title>Node2&#45;&gt;Node13</title>
<g id="a_edge15_Node000002_Node000013"><a xlink:title=" ">
<path fill="none" stroke="#63b8ff" d="M325.03,-94.24C310.41,-89.53 294.91,-84.53 280.83,-79.99"/>
<polygon fill="#63b8ff" stroke="#63b8ff" points="323.9,-97.87 334.49,-97.61 326.04,-91.21 323.9,-97.87"/>
</a>
</g>
</g>
<!-- Node14 -->
<g id="Node000014" class="node">
<title>Node14</title>
<g id="a_Node000014"><a xlink:href="../../dd/ddd/namespace_slic3r_1_1_mesh_boolean_1_1cgal.html#a29d593bfc20e7310de20539ddd3086a3" target="_top" xlink:title=" ">
<polygon fill="white" stroke="#666666" points="284,-128.5 178,-128.5 178,-98 284,-98 284,-128.5"/>
<text text-anchor="start" x="186" y="-115" font-family="Helvetica,sans-Serif" font-size="10.00">Slic3r::MeshBoolean</text>
<text text-anchor="middle" x="231" y="-103.75" font-family="Helvetica,sans-Serif" font-size="10.00">::cgal::plus</text>
</a>
</g>
</g>
<!-- Node2&#45;&gt;Node14 -->
<g id="edge17_Node000002_Node000014" class="edge">
<title>Node2&#45;&gt;Node14</title>
<g id="a_edge17_Node000002_Node000014"><a xlink:title=" ">
<path fill="none" stroke="#63b8ff" d="M320.74,-113.25C308.65,-113.25 296.11,-113.25 284.41,-113.25"/>
<polygon fill="#63b8ff" stroke="#63b8ff" points="320.69,-116.75 330.69,-113.25 320.69,-109.75 320.69,-116.75"/>
</a>
</g>
</g>
<!-- Node3&#45;&gt;Node3 -->
<g id="edge4_Node000003_Node000003" class="edge">
<title>Node3&#45;&gt;Node3</title>
<g id="a_edge4_Node000003_Node000003"><a xlink:title=" ">
<path fill="none" stroke="#63b8ff" d="M257.18,-221.88C253.09,-225.83 244.37,-228.5 231,-228.5 207.24,-228.5 198.14,-220.06 203.71,-210.99"/>
<polygon fill="#63b8ff" stroke="#63b8ff" points="260.76,-222.29 258.29,-211.99 253.79,-221.58 260.76,-222.29"/>
</a>
</g>
</g>
<!-- Node3&#45;&gt;Node4 -->
<g id="edge5_Node000003_Node000004" class="edge">
<title>Node3&#45;&gt;Node4</title>
<g id="a_edge5_Node000003_Node000004"><a xlink:title=" ">
<path fill="none" stroke="#63b8ff" d="M214.73,-219.64C192.4,-254.68 151.18,-316.88 130,-333.25 125.38,-336.82 120.18,-339.95 114.79,-342.66"/>
<polygon fill="#63b8ff" stroke="#63b8ff" points="218.1,-221.85 220.5,-211.53 212.19,-218.11 218.1,-221.85"/>
</a>
</g>
</g>
<!-- Node5 -->
<g id="Node000005" class="node">
<title>Node5</title>
<g id="a_Node000005"><a xlink:href="../../dd/ddd/namespace_slic3r_1_1_mesh_boolean_1_1cgal.html#a8e1fde732886dc74f9547a7e68170ec1" target="_top" xlink:title=" ">
<polygon fill="white" stroke="#666666" points="118,-324.5 12,-324.5 12,-294 118,-294 118,-324.5"/>
<text text-anchor="start" x="20" y="-311" font-family="Helvetica,sans-Serif" font-size="10.00">Slic3r::MeshBoolean</text>
<text text-anchor="middle" x="65" y="-299.75" font-family="Helvetica,sans-Serif" font-size="10.00">::cgal::intersect</text>
</a>
</g>
</g>
<!-- Node3&#45;&gt;Node5 -->
<g id="edge6_Node000003_Node000005" class="edge">
<title>Node3&#45;&gt;Node5</title>
<g id="a_edge6_Node000003_Node000005"><a xlink:title=" ">
<path fill="none" stroke="#63b8ff" d="M208.24,-218.83C189.14,-238.43 159.82,-265.97 130,-284.25 124.41,-287.68 118.26,-290.79 112.06,-293.56"/>
<polygon fill="#63b8ff" stroke="#63b8ff" points="210.38,-221.6 214.77,-211.96 205.33,-216.76 210.38,-221.6"/>
</a>
</g>
</g>
<!-- Node6 -->
<g id="Node000006" class="node">
<title>Node6</title>
<g id="a_Node000006"><a xlink:href="../../dd/ddd/namespace_slic3r_1_1_mesh_boolean_1_1cgal.html#acff2c53cc8d700d2bb3e48fd58d26f20" target="_top" xlink:title=" ">
<polygon fill="white" stroke="#666666" points="118,-275.5 12,-275.5 12,-245 118,-245 118,-275.5"/>
<text text-anchor="start" x="20" y="-262" font-family="Helvetica,sans-Serif" font-size="10.00">Slic3r::MeshBoolean</text>
<text text-anchor="middle" x="65" y="-250.75" font-family="Helvetica,sans-Serif" font-size="10.00">::cgal::intersect</text>
</a>
</g>
</g>
<!-- Node3&#45;&gt;Node6 -->
<g id="edge7_Node000003_Node000006" class="edge">
<title>Node3&#45;&gt;Node6</title>
<g id="a_edge7_Node000003_Node000006"><a xlink:title=" ">
<path fill="none" stroke="#63b8ff" d="M181.24,-214.85C164.95,-221.37 146.7,-228.65 130,-235.25 122.35,-238.28 114.17,-241.49 106.31,-244.56"/>
<polygon fill="#63b8ff" stroke="#63b8ff" points="182.11,-217.87 190.09,-210.9 179.5,-211.37 182.11,-217.87"/>
</a>
</g>
</g>
<!-- Node7 -->
<g id="Node000007" class="node">
<title>Node7</title>
<g id="a_Node000007"><a xlink:href="../../dd/ddd/namespace_slic3r_1_1_mesh_boolean_1_1cgal.html#ab3ef5af070f4f98f90befe516e466bc8" target="_top" xlink:title=" ">
<polygon fill="white" stroke="#666666" points="118,-226.5 12,-226.5 12,-196 118,-196 118,-226.5"/>
<text text-anchor="start" x="20" y="-213" font-family="Helvetica,sans-Serif" font-size="10.00">Slic3r::MeshBoolean</text>
<text text-anchor="middle" x="65" y="-201.75" font-family="Helvetica,sans-Serif" font-size="10.00">::cgal::minus</text>
</a>
</g>
</g>
<!-- Node3&#45;&gt;Node7 -->
<g id="edge8_Node000003_Node000007" class="edge">
<title>Node3&#45;&gt;Node7</title>
<g id="a_edge8_Node000003_Node000007"><a xlink:title=" ">
<path fill="none" stroke="#63b8ff" d="M154.87,-202.58C142.5,-203.79 129.93,-205.01 118.28,-206.15"/>
<polygon fill="#63b8ff" stroke="#63b8ff" points="155.04,-205.98 164.65,-201.53 154.36,-199.02 155.04,-205.98"/>
</a>
</g>
</g>
<!-- Node8 -->
<g id="Node000008" class="node">
<title>Node8</title>
<g id="a_Node000008"><a xlink:href="../../dd/ddd/namespace_slic3r_1_1_mesh_boolean_1_1cgal.html#a6018872854283999cdf4ec65e9fbbca7" target="_top" xlink:title=" ">
<polygon fill="white" stroke="#666666" points="118,-177.5 12,-177.5 12,-147 118,-147 118,-177.5"/>
<text text-anchor="start" x="20" y="-164" font-family="Helvetica,sans-Serif" font-size="10.00">Slic3r::MeshBoolean</text>
<text text-anchor="middle" x="65" y="-152.75" font-family="Helvetica,sans-Serif" font-size="10.00">::cgal::minus</text>
</a>
</g>
</g>
<!-- Node3&#45;&gt;Node8 -->
<g id="edge9_Node000003_Node000008" class="edge">
<title>Node3&#45;&gt;Node8</title>
<g id="a_edge9_Node000003_Node000008"><a xlink:title=" ">
<path fill="none" stroke="#63b8ff" d="M155.24,-180.21C142.76,-177.69 130.04,-175.14 118.28,-172.77"/>
<polygon fill="#63b8ff" stroke="#63b8ff" points="154.16,-183.76 164.65,-182.3 155.54,-176.9 154.16,-183.76"/>
</a>
</g>
</g>
<!-- Node9 -->
<g id="Node000009" class="node">
<title>Node9</title>
<g id="a_Node000009"><a xlink:href="../../dd/ddd/namespace_slic3r_1_1_mesh_boolean_1_1cgal.html#ad1295828c4114e408085b129c2d0dbc5" target="_top" xlink:title=" ">
<polygon fill="white" stroke="#666666" points="118,-128.5 12,-128.5 12,-98 118,-98 118,-128.5"/>
<text text-anchor="start" x="20" y="-115" font-family="Helvetica,sans-Serif" font-size="10.00">Slic3r::MeshBoolean</text>
<text text-anchor="middle" x="65" y="-103.75" font-family="Helvetica,sans-Serif" font-size="10.00">::cgal::plus</text>
</a>
</g>
</g>
<!-- Node3&#45;&gt;Node9 -->
<g id="edge10_Node000003_Node000009" class="edge">
<title>Node3&#45;&gt;Node9</title>
<g id="a_edge10_Node000003_Node000009"><a xlink:title=" ">
<path fill="none" stroke="#63b8ff" d="M195.64,-174.02C176.65,-162.7 152.42,-148.95 130,-138.25 123.22,-135.01 115.9,-131.86 108.71,-128.93"/>
<polygon fill="#63b8ff" stroke="#63b8ff" points="193.69,-177.53 204.06,-179.68 197.3,-171.53 193.69,-177.53"/>
</a>
</g>
</g>
<!-- Node10 -->
<g id="Node000010" class="node">
<title>Node10</title>
<g id="a_Node000010"><a xlink:href="../../dd/ddd/namespace_slic3r_1_1_mesh_boolean_1_1cgal.html#afbf41a949ace9cfd86b3bb60987ba959" target="_top" xlink:title=" ">
<polygon fill="white" stroke="#666666" points="118,-79.5 12,-79.5 12,-49 118,-49 118,-79.5"/>
<text text-anchor="start" x="20" y="-66" font-family="Helvetica,sans-Serif" font-size="10.00">Slic3r::MeshBoolean</text>
<text text-anchor="middle" x="65" y="-54.75" font-family="Helvetica,sans-Serif" font-size="10.00">::cgal::plus</text>
</a>
</g>
</g>
<!-- Node3&#45;&gt;Node10 -->
<g id="edge11_Node000003_Node000010" class="edge">
<title>Node3&#45;&gt;Node10</title>
<g id="a_edge11_Node000003_Node000010"><a xlink:title=" ">
<path fill="none" stroke="#63b8ff" d="M188.83,-173.91C180.67,-168.52 172.59,-162.25 166,-155.25 143.08,-130.93 155.08,-111.33 130,-89.25 125.97,-85.7 121.38,-82.63 116.55,-79.97"/>
<polygon fill="#63b8ff" stroke="#63b8ff" points="186.67,-177.31 197.01,-179.61 190.36,-171.36 186.67,-177.31"/>
</a>
</g>
</g>
<!-- Node12 -->
<g id="Node000012" class="node">
<title>Node12</title>
<g id="a_Node000012"><a xlink:href="../../d4/d8b/namespace_slic3r_1_1csg_1_1detail__cgal.html#a4a64e094c6662fb62b1b4491f9467411" target="_top" xlink:title=" ">
<polygon fill="white" stroke="#666666" points="114.62,-30.5 15.38,-30.5 15.38,0 114.62,0 114.62,-30.5"/>
<text text-anchor="start" x="23.38" y="-17" font-family="Helvetica,sans-Serif" font-size="10.00">Slic3r::csg::detail</text>
<text text-anchor="middle" x="65" y="-5.75" font-family="Helvetica,sans-Serif" font-size="10.00">_cgal::perform_csg</text>
</a>
</g>
</g>
<!-- Node11&#45;&gt;Node12 -->
<g id="edge14_Node000011_Node000012" class="edge">
<title>Node11&#45;&gt;Node12</title>
<g id="a_edge14_Node000011_Node000012"><a xlink:title=" ">
<path fill="none" stroke="#63b8ff" d="M167.1,-15.25C149.85,-15.25 131.41,-15.25 115.06,-15.25"/>
<polygon fill="#63b8ff" stroke="#63b8ff" points="166.66,-18.75 176.66,-15.25 166.66,-11.75 166.66,-18.75"/>
</a>
</g>
</g>
<!-- Node13&#45;&gt;Node12 -->
<g id="edge16_Node000013_Node000012" class="edge">
<title>Node13&#45;&gt;Node12</title>
<g id="a_edge16_Node000013_Node000012"><a xlink:title=" ">
<path fill="none" stroke="#63b8ff" d="M167.59,-45.6C150.2,-40.41 131.56,-34.84 115.06,-29.91"/>
<polygon fill="#63b8ff" stroke="#63b8ff" points="166.08,-49.1 176.66,-48.61 168.08,-42.4 166.08,-49.1"/>
</a>
</g>
</g>
<!-- Node14&#45;&gt;Node9 -->
<g id="edge20_Node000014_Node000009" class="edge">
<title>Node14&#45;&gt;Node9</title>
<g id="a_edge20_Node000014_Node000009"><a xlink:title=" ">
<path fill="none" stroke="#63b8ff" d="M166.78,-113.25C150.79,-113.25 133.8,-113.25 118.41,-113.25"/>
<polygon fill="#63b8ff" stroke="#63b8ff" points="166.66,-116.75 176.66,-113.25 166.66,-109.75 166.66,-116.75"/>
</a>
</g>
</g>
<!-- Node14&#45;&gt;Node10 -->
<g id="edge21_Node000014_Node000010" class="edge">
<title>Node14&#45;&gt;Node10</title>
<g id="a_edge21_Node000014_Node000010"><a xlink:title=" ">
<path fill="none" stroke="#63b8ff" d="M167.24,-94.5C151.12,-89.68 133.94,-84.55 118.41,-79.91"/>
<polygon fill="#63b8ff" stroke="#63b8ff" points="166.08,-98.1 176.66,-97.61 168.08,-91.4 166.08,-98.1"/>
</a>
</g>
</g>
<!-- Node14&#45;&gt;Node12 -->
<g id="edge18_Node000014_Node000012" class="edge">
<title>Node14&#45;&gt;Node12</title>
<g id="a_edge18_Node000014_Node000012"><a xlink:title=" ">
<path fill="none" stroke="#63b8ff" d="M171.92,-92.35C169.87,-91.05 167.89,-89.69 166,-88.25 144.77,-72.11 151.23,-56.39 130,-40.25 125.35,-36.71 120.13,-33.61 114.74,-30.92"/>
<polygon fill="#63b8ff" stroke="#63b8ff" points="169.83,-95.75 180.26,-97.58 173.25,-89.64 169.83,-95.75"/>
</a>
</g>
</g>
<!-- Node14&#45;&gt;Node14 -->
<g id="edge19_Node000014_Node000014" class="edge">
<title>Node14&#45;&gt;Node14</title>
<g id="a_edge19_Node000014_Node000014"><a xlink:title=" ">
<path fill="none" stroke="#63b8ff" d="M257.18,-139.88C253.09,-143.83 244.37,-146.5 231,-146.5 207.24,-146.5 198.14,-138.06 203.71,-128.99"/>
<polygon fill="#63b8ff" stroke="#63b8ff" points="260.76,-140.29 258.29,-129.99 253.79,-139.58 260.76,-140.29"/>
</a>
</g>
</g>
</g>
</svg>
