<?xml version="1.0" encoding="UTF-8" standalone="no"?>
<!DOCTYPE svg PUBLIC "-//W3C//DTD SVG 1.1//EN"
 "http://www.w3.org/Graphics/SVG/1.1/DTD/svg11.dtd">
<!-- Generated by graphviz version 8.0.5 (20230430.1635)
 -->
<!-- Title: Slic3r::take Pages: 1 -->
<svg width="868pt" height="174pt"
 viewBox="0.00 0.00 868.25 173.88" xmlns="http://www.w3.org/2000/svg" xmlns:xlink="http://www.w3.org/1999/xlink">
<g id="graph0" class="graph" transform="scale(1 1) rotate(0) translate(4 169.88)">
<title>Slic3r::take</title>
<!-- Node1 -->
<g id="Node000001" class="node">
<title>Node1</title>
<g id="a_Node000001"><a xlink:title=" ">
<polygon fill="#999999" stroke="#666666" points="860.25,-86.25 794.75,-86.25 794.75,-67 860.25,-67 860.25,-86.25"/>
<text text-anchor="middle" x="827.5" y="-72.75" font-family="Helvetica,sans-Serif" font-size="10.00">Slic3r::take</text>
</a>
</g>
</g>
<!-- Node2 -->
<g id="Node000002" class="node">
<title>Node2</title>
<g id="a_Node000002"><a xlink:href="../../d7/dcc/class_slic3r_1_1_fill.html#a556b6dfcdffe85985f4abf4d1cc713fc" target="_top" xlink:title=" ">
<polygon fill="white" stroke="#666666" points="749.75,-165.88 649.75,-165.88 649.75,-135.38 749.75,-135.38 749.75,-165.88"/>
<text text-anchor="start" x="657.75" y="-152.38" font-family="Helvetica,sans-Serif" font-size="10.00">Slic3r::Fill::connect</text>
<text text-anchor="middle" x="699.75" y="-141.12" font-family="Helvetica,sans-Serif" font-size="10.00">_base_support</text>
</a>
</g>
</g>
<!-- Node1&#45;&gt;Node2 -->
<g id="edge1_Node000001_Node000002" class="edge">
<title>Node1&#45;&gt;Node2</title>
<g id="a_edge1_Node000001_Node000002"><a xlink:title=" ">
<path fill="none" stroke="#63b8ff" d="M805.93,-93.32C792.89,-103.44 775.41,-116.16 758.75,-125.62 752.93,-128.93 746.6,-132.08 740.32,-134.96"/>
<polygon fill="#63b8ff" stroke="#63b8ff" points="807.88,-95.45 813.56,-86.51 803.54,-89.96 807.88,-95.45"/>
</a>
</g>
</g>
<!-- Node4 -->
<g id="Node000004" class="node">
<title>Node4</title>
<g id="a_Node000004"><a xlink:href="../../d7/dcc/class_slic3r_1_1_fill.html#a80691aebfdaef33fe93739b1ad8709a4" target="_top" xlink:title=" ">
<polygon fill="white" stroke="#666666" points="749.75,-116.88 649.75,-116.88 649.75,-86.38 749.75,-86.38 749.75,-116.88"/>
<text text-anchor="start" x="657.75" y="-103.38" font-family="Helvetica,sans-Serif" font-size="10.00">Slic3r::Fill::connect</text>
<text text-anchor="middle" x="699.75" y="-92.12" font-family="Helvetica,sans-Serif" font-size="10.00">_infill</text>
</a>
</g>
</g>
<!-- Node1&#45;&gt;Node4 -->
<g id="edge3_Node000001_Node000004" class="edge">
<title>Node1&#45;&gt;Node4</title>
<g id="a_edge3_Node000001_Node000004"><a xlink:title=" ">
<path fill="none" stroke="#63b8ff" d="M783.87,-85.1C772.94,-87.27 761.1,-89.63 749.87,-91.86"/>
<polygon fill="#63b8ff" stroke="#63b8ff" points="784.32,-88.38 793.44,-83 782.95,-81.52 784.32,-88.38"/>
</a>
</g>
</g>
<!-- Node5 -->
<g id="Node000005" class="node">
<title>Node5</title>
<g id="a_Node000005"><a xlink:href="../../d6/de0/class_slic3r_1_1_polyline.html#a2e0183157215f96c2658ad6065e27eaa" target="_top" xlink:title=" ">
<polygon fill="white" stroke="#666666" points="758.75,-67.88 640.75,-67.88 640.75,-37.38 758.75,-37.38 758.75,-67.88"/>
<text text-anchor="start" x="648.75" y="-54.38" font-family="Helvetica,sans-Serif" font-size="10.00">Slic3r::Polyline::equally</text>
<text text-anchor="middle" x="699.75" y="-43.12" font-family="Helvetica,sans-Serif" font-size="10.00">_spaced_points</text>
</a>
</g>
</g>
<!-- Node1&#45;&gt;Node5 -->
<g id="edge4_Node000001_Node000005" class="edge">
<title>Node1&#45;&gt;Node5</title>
<g id="a_edge4_Node000001_Node000005"><a xlink:title=" ">
<path fill="none" stroke="#63b8ff" d="M783.66,-68.45C775.77,-66.94 767.41,-65.35 759.15,-63.77"/>
<polygon fill="#63b8ff" stroke="#63b8ff" points="782.96,-72.07 793.44,-70.51 784.28,-65.19 782.96,-72.07"/>
</a>
</g>
</g>
<!-- Node11 -->
<g id="Node000011" class="node">
<title>Node11</title>
<g id="a_Node000011"><a xlink:href="../../de/db8/namespace_slic3r.html#a5d0211155321afd5ca2d19cd352ffbc1" target="_top" xlink:title=" ">
<polygon fill="white" stroke="#666666" points="732.5,-19.25 667,-19.25 667,0 732.5,0 732.5,-19.25"/>
<text text-anchor="middle" x="699.75" y="-5.75" font-family="Helvetica,sans-Serif" font-size="10.00">Slic3r::take</text>
</a>
</g>
</g>
<!-- Node1&#45;&gt;Node11 -->
<g id="edge12_Node000001_Node000011" class="edge">
<title>Node1&#45;&gt;Node11</title>
<g id="a_edge12_Node000001_Node000011"><a xlink:title=" ">
<path fill="none" stroke="#63b8ff" d="M806.17,-59.77C793.22,-49.67 775.74,-37.18 758.75,-28.62 750.61,-24.53 741.39,-21.04 732.74,-18.21"/>
<polygon fill="#63b8ff" stroke="#63b8ff" points="803.72,-63.09 813.72,-66.6 808.09,-57.63 803.72,-63.09"/>
</a>
</g>
</g>
<!-- Node3 -->
<g id="Node000003" class="node">
<title>Node3</title>
<g id="a_Node000003"><a xlink:href="../../dd/d10/class_slic3r_1_1_fill_support_base.html#a564a9a222f647edd8dca54be0da6bc58" target="_top" xlink:title=" ">
<polygon fill="white" stroke="#666666" points="603.25,-165.88 487.5,-165.88 487.5,-135.38 603.25,-135.38 603.25,-165.88"/>
<text text-anchor="start" x="495.5" y="-152.38" font-family="Helvetica,sans-Serif" font-size="10.00">Slic3r::FillSupportBase</text>
<text text-anchor="middle" x="545.38" y="-141.12" font-family="Helvetica,sans-Serif" font-size="10.00">::fill_surface</text>
</a>
</g>
</g>
<!-- Node2&#45;&gt;Node3 -->
<g id="edge2_Node000002_Node000003" class="edge">
<title>Node2&#45;&gt;Node3</title>
<g id="a_edge2_Node000002_Node000003"><a xlink:title=" ">
<path fill="none" stroke="#63b8ff" d="M638.44,-150.62C626.94,-150.62 614.94,-150.62 603.54,-150.62"/>
<polygon fill="#63b8ff" stroke="#63b8ff" points="638.28,-154.13 648.28,-150.62 638.28,-147.13 638.28,-154.13"/>
</a>
</g>
</g>
<!-- Node6 -->
<g id="Node000006" class="node">
<title>Node6</title>
<g id="a_Node000006"><a xlink:href="../../d8/d90/class_slic3r_1_1_polygon.html#ab769fa33bd95d21e5955aeb0fdf81489" target="_top" xlink:title=" ">
<polygon fill="white" stroke="#666666" points="604.75,-67.88 486,-67.88 486,-37.38 604.75,-37.38 604.75,-67.88"/>
<text text-anchor="start" x="494" y="-54.38" font-family="Helvetica,sans-Serif" font-size="10.00">Slic3r::Polygon::equally</text>
<text text-anchor="middle" x="545.38" y="-43.12" font-family="Helvetica,sans-Serif" font-size="10.00">_spaced_points</text>
</a>
</g>
</g>
<!-- Node5&#45;&gt;Node6 -->
<g id="edge5_Node000005_Node000006" class="edge">
<title>Node5&#45;&gt;Node6</title>
<g id="a_edge5_Node000005_Node000006"><a xlink:title=" ">
<path fill="none" stroke="#63b8ff" d="M629.36,-52.62C621.29,-52.62 613.11,-52.62 605.2,-52.62"/>
<polygon fill="#63b8ff" stroke="#63b8ff" points="629.27,-56.13 639.27,-52.62 629.27,-49.13 629.27,-56.13"/>
</a>
</g>
</g>
<!-- Node7 -->
<g id="Node000007" class="node">
<title>Node7</title>
<g id="a_Node000007"><a xlink:href="../../d2/d57/namespace_slic3r_1_1sla.html#a23cec41c836d381a5865c456c12d79ac" target="_top" xlink:title=" ">
<polygon fill="white" stroke="#666666" points="450,-67.88 339.5,-67.88 339.5,-37.38 450,-37.38 450,-67.88"/>
<text text-anchor="start" x="347.5" y="-54.38" font-family="Helvetica,sans-Serif" font-size="10.00">Slic3r::sla::sample</text>
<text text-anchor="middle" x="394.75" y="-43.12" font-family="Helvetica,sans-Serif" font-size="10.00">_expolygon_boundary</text>
</a>
</g>
</g>
<!-- Node6&#45;&gt;Node7 -->
<g id="edge6_Node000006_Node000007" class="edge">
<title>Node6&#45;&gt;Node7</title>
<g id="a_edge6_Node000006_Node000007"><a xlink:title=" ">
<path fill="none" stroke="#63b8ff" d="M474.84,-52.62C466.57,-52.62 458.21,-52.62 450.2,-52.62"/>
<polygon fill="#63b8ff" stroke="#63b8ff" points="474.63,-56.13 484.63,-52.62 474.63,-49.13 474.63,-56.13"/>
</a>
</g>
</g>
<!-- Node7&#45;&gt;Node7 -->
<g id="edge7_Node000007_Node000007" class="edge">
<title>Node7&#45;&gt;Node7</title>
<g id="a_edge7_Node000007_Node000007"><a xlink:title=" ">
<path fill="none" stroke="#63b8ff" d="M420.35,-79.25C416.36,-83.2 407.82,-85.88 394.75,-85.88 371.51,-85.88 362.61,-77.43 368.06,-68.36"/>
<polygon fill="#63b8ff" stroke="#63b8ff" points="423.93,-79.66 421.44,-69.36 416.96,-78.96 423.93,-79.66"/>
</a>
</g>
</g>
<!-- Node8 -->
<g id="Node000008" class="node">
<title>Node8</title>
<g id="a_Node000008"><a xlink:href="../../d2/d57/namespace_slic3r_1_1sla.html#a3ea80f955b1ce79d106c4ade8452596e" target="_top" xlink:title=" ">
<polygon fill="white" stroke="#666666" points="303.5,-67.88 169.75,-67.88 169.75,-37.38 303.5,-37.38 303.5,-67.88"/>
<text text-anchor="start" x="177.75" y="-54.38" font-family="Helvetica,sans-Serif" font-size="10.00">Slic3r::sla::sample</text>
<text text-anchor="middle" x="236.62" y="-43.12" font-family="Helvetica,sans-Serif" font-size="10.00">_expolygon_with_boundary</text>
</a>
</g>
</g>
<!-- Node7&#45;&gt;Node8 -->
<g id="edge8_Node000007_Node000008" class="edge">
<title>Node7&#45;&gt;Node8</title>
<g id="a_edge8_Node000007_Node000008"><a xlink:title=" ">
<path fill="none" stroke="#63b8ff" d="M328.25,-52.62C320.14,-52.62 311.86,-52.62 303.74,-52.62"/>
<polygon fill="#63b8ff" stroke="#63b8ff" points="328.15,-56.13 338.15,-52.62 328.15,-49.13 328.15,-56.13"/>
</a>
</g>
</g>
<!-- Node8&#45;&gt;Node8 -->
<g id="edge9_Node000008_Node000008" class="edge">
<title>Node8&#45;&gt;Node8</title>
<g id="a_edge9_Node000008_Node000008"><a xlink:title=" ">
<path fill="none" stroke="#63b8ff" d="M263.5,-79.25C259.31,-83.2 250.35,-85.88 236.62,-85.88 212.23,-85.88 202.89,-77.43 208.61,-68.36"/>
<polygon fill="#63b8ff" stroke="#63b8ff" points="267.08,-79.67 264.64,-69.36 260.12,-78.94 267.08,-79.67"/>
</a>
</g>
</g>
<!-- Node9 -->
<g id="Node000009" class="node">
<title>Node9</title>
<g id="a_Node000009"><a xlink:href="../../d2/d57/namespace_slic3r_1_1sla.html#a907ec6ca5c85cc3aaeb90575b7e8ae2b" target="_top" xlink:title=" ">
<polygon fill="white" stroke="#666666" points="133.75,-92.88 0,-92.88 0,-62.38 133.75,-62.38 133.75,-92.88"/>
<text text-anchor="start" x="8" y="-79.38" font-family="Helvetica,sans-Serif" font-size="10.00">Slic3r::sla::sample</text>
<text text-anchor="middle" x="66.88" y="-68.12" font-family="Helvetica,sans-Serif" font-size="10.00">_expolygon_with_boundary</text>
</a>
</g>
</g>
<!-- Node8&#45;&gt;Node9 -->
<g id="edge10_Node000008_Node000009" class="edge">
<title>Node8&#45;&gt;Node9</title>
<g id="a_edge10_Node000008_Node000009"><a xlink:title=" ">
<path fill="none" stroke="#63b8ff" d="M158.68,-64.09C150.51,-65.31 142.27,-66.54 134.24,-67.73"/>
<polygon fill="#63b8ff" stroke="#63b8ff" points="158.95,-67.44 168.33,-62.51 157.92,-60.52 158.95,-67.44"/>
</a>
</g>
</g>
<!-- Node10 -->
<g id="Node000010" class="node">
<title>Node10</title>
<g id="a_Node000010"><a xlink:href="../../d7/dc2/class_slic3r_1_1sla_1_1_support_point_generator.html#a089639c2369d013c09362529bf6aa125" target="_top" xlink:title=" ">
<polygon fill="white" stroke="#666666" points="133.75,-43.88 0,-43.88 0,-13.37 133.75,-13.37 133.75,-43.88"/>
<text text-anchor="start" x="8" y="-30.38" font-family="Helvetica,sans-Serif" font-size="10.00">Slic3r::sla::SupportPoint</text>
<text text-anchor="middle" x="66.88" y="-19.12" font-family="Helvetica,sans-Serif" font-size="10.00">Generator::uniformly_cover</text>
</a>
</g>
</g>
<!-- Node8&#45;&gt;Node10 -->
<g id="edge11_Node000008_Node000010" class="edge">
<title>Node8&#45;&gt;Node10</title>
<g id="a_edge11_Node000008_Node000010"><a xlink:title=" ">
<path fill="none" stroke="#63b8ff" d="M158.68,-41.62C150.51,-40.45 142.27,-39.27 134.24,-38.12"/>
<polygon fill="#63b8ff" stroke="#63b8ff" points="157.93,-45.19 168.33,-43.14 158.92,-38.26 157.93,-45.19"/>
</a>
</g>
</g>
</g>
</svg>
