<?xml version="1.0" encoding="UTF-8" standalone="no"?>
<!DOCTYPE svg PUBLIC "-//W3C//DTD SVG 1.1//EN"
 "http://www.w3.org/Graphics/SVG/1.1/DTD/svg11.dtd">
<!-- Generated by graphviz version 8.0.5 (20230430.1635)
 -->
<!-- Title: Slic3r::log_memory_info Pages: 1 -->
<svg width="1239pt" height="828pt"
 viewBox="0.00 0.00 1238.50 828.12" xmlns="http://www.w3.org/2000/svg" xmlns:xlink="http://www.w3.org/1999/xlink">
<g id="graph0" class="graph" transform="scale(1 1) rotate(0) translate(4 824.12)">
<title>Slic3r::log_memory_info</title>
<!-- Node1 -->
<g id="Node000001" class="node">
<title>Node1</title>
<g id="a_Node000001"><a xlink:title=" ">
<polygon fill="#999999" stroke="#666666" points="1230.5,-403.5 1109.5,-403.5 1109.5,-384.25 1230.5,-384.25 1230.5,-403.5"/>
<text text-anchor="middle" x="1170" y="-390" font-family="Helvetica,sans-Serif" font-size="10.00">Slic3r::log_memory_info</text>
</a>
</g>
</g>
<!-- Node2 -->
<g id="Node000002" class="node">
<title>Node2</title>
<g id="a_Node000002"><a xlink:href="../../d0/d2b/class_slic3r_1_1_g_u_i_1_1_g_l_canvas3_d.html#a074422e189d4d0318d80b9dd27685407" target="_top" xlink:title=" ">
<polygon fill="white" stroke="#666666" points="1073.5,-507.12 927.75,-507.12 927.75,-476.62 1073.5,-476.62 1073.5,-507.12"/>
<text text-anchor="start" x="935.75" y="-493.62" font-family="Helvetica,sans-Serif" font-size="10.00">Slic3r::GUI::GLCanvas3D</text>
<text text-anchor="middle" x="1000.62" y="-482.38" font-family="Helvetica,sans-Serif" font-size="10.00">::_load_print_object_toolpaths</text>
</a>
</g>
</g>
<!-- Node1&#45;&gt;Node2 -->
<g id="edge1_Node000001_Node000002" class="edge">
<title>Node1&#45;&gt;Node2</title>
<g id="a_edge1_Node000001_Node000002"><a xlink:title=" ">
<path fill="none" stroke="#63b8ff" d="M1150.24,-411.13C1131.83,-427.33 1102.4,-451.32 1073.5,-466.88 1067.1,-470.32 1060.13,-473.44 1053.14,-476.21"/>
<polygon fill="#63b8ff" stroke="#63b8ff" points="1152.22,-414.16 1157.34,-404.88 1147.55,-408.95 1152.22,-414.16"/>
</a>
</g>
</g>
<!-- Node12 -->
<g id="Node000012" class="node">
<title>Node12</title>
<g id="a_Node000012"><a xlink:href="../../d0/d2b/class_slic3r_1_1_g_u_i_1_1_g_l_canvas3_d.html#a2edd27e45a9ddf5dbdf2c5c4eb4f533c" target="_top" xlink:title=" ">
<polygon fill="white" stroke="#666666" points="1073.12,-556.12 928.12,-556.12 928.12,-525.62 1073.12,-525.62 1073.12,-556.12"/>
<text text-anchor="start" x="936.12" y="-542.62" font-family="Helvetica,sans-Serif" font-size="10.00">Slic3r::GUI::GLCanvas3D</text>
<text text-anchor="middle" x="1000.62" y="-531.38" font-family="Helvetica,sans-Serif" font-size="10.00">::_load_wipe_tower_toolpaths</text>
</a>
</g>
</g>
<!-- Node1&#45;&gt;Node12 -->
<g id="edge9_Node000001_Node000012" class="edge">
<title>Node1&#45;&gt;Node12</title>
<g id="a_edge9_Node000001_Node000012"><a xlink:title=" ">
<path fill="none" stroke="#63b8ff" d="M1158.51,-413.45C1143.21,-440.22 1112.33,-488.12 1073.5,-515.88 1068.56,-519.41 1063.07,-522.48 1057.39,-525.14"/>
<polygon fill="#63b8ff" stroke="#63b8ff" points="1161.96,-415.44 1163.76,-404.99 1155.84,-412.04 1161.96,-415.44"/>
</a>
</g>
</g>
<!-- Node13 -->
<g id="Node000013" class="node">
<title>Node13</title>
<g id="a_Node000013"><a xlink:href="../../de/d87/class_slic3r_1_1_print_object.html#af78f101dbc35773b0660a2486738211d" target="_top" xlink:title=" ">
<polygon fill="white" stroke="#666666" points="1048.38,-713.12 952.88,-713.12 952.88,-682.62 1048.38,-682.62 1048.38,-713.12"/>
<text text-anchor="start" x="960.88" y="-699.62" font-family="Helvetica,sans-Serif" font-size="10.00">Slic3r::PrintObject</text>
<text text-anchor="middle" x="1000.62" y="-688.38" font-family="Helvetica,sans-Serif" font-size="10.00">::bridge_over_infill</text>
</a>
</g>
</g>
<!-- Node1&#45;&gt;Node13 -->
<g id="edge11_Node000001_Node000013" class="edge">
<title>Node1&#45;&gt;Node13</title>
<g id="a_edge11_Node000001_Node000013"><a xlink:title=" ">
<path fill="none" stroke="#63b8ff" d="M1167.88,-414.79C1164.02,-466.02 1147.06,-598.95 1073.5,-672.88 1066.7,-679.71 1057.93,-684.68 1048.87,-688.29"/>
<polygon fill="#63b8ff" stroke="#63b8ff" points="1171.44,-415.07 1168.59,-404.87 1164.45,-414.62 1171.44,-415.07"/>
</a>
</g>
</g>
<!-- Node14 -->
<g id="Node000014" class="node">
<title>Node14</title>
<g id="a_Node000014"><a xlink:href="../../de/d87/class_slic3r_1_1_print_object.html#a55bf3fa9d07569f6bf4d12279a81d97a" target="_top" xlink:title=" ">
<polygon fill="white" stroke="#666666" points="1058.5,-664.12 942.75,-664.12 942.75,-633.62 1058.5,-633.62 1058.5,-664.12"/>
<text text-anchor="start" x="950.75" y="-650.62" font-family="Helvetica,sans-Serif" font-size="10.00">Slic3r::PrintObject</text>
<text text-anchor="middle" x="1000.62" y="-639.38" font-family="Helvetica,sans-Serif" font-size="10.00">::detect_surfaces_type</text>
</a>
</g>
</g>
<!-- Node1&#45;&gt;Node14 -->
<g id="edge12_Node000001_Node000014" class="edge">
<title>Node1&#45;&gt;Node14</title>
<g id="a_edge12_Node000001_Node000014"><a xlink:title=" ">
<path fill="none" stroke="#63b8ff" d="M1166.27,-414.52C1159.28,-459.3 1136.59,-566.04 1073.5,-624.88 1069.17,-628.91 1064.14,-632.27 1058.79,-635.07"/>
<polygon fill="#63b8ff" stroke="#63b8ff" points="1169.85,-415.25 1167.82,-404.85 1162.92,-414.25 1169.85,-415.25"/>
</a>
</g>
</g>
<!-- Node15 -->
<g id="Node000015" class="node">
<title>Node15</title>
<g id="a_Node000015"><a xlink:href="../../de/d87/class_slic3r_1_1_print_object.html#a2515ceb9146425fade4bb4d147db343b" target="_top" xlink:title=" ">
<polygon fill="white" stroke="#666666" points="1048.38,-615.75 952.88,-615.75 952.88,-574 1048.38,-574 1048.38,-615.75"/>
<text text-anchor="start" x="960.88" y="-602.25" font-family="Helvetica,sans-Serif" font-size="10.00">Slic3r::PrintObject</text>
<text text-anchor="start" x="960.88" y="-591" font-family="Helvetica,sans-Serif" font-size="10.00">::discover_vertical</text>
<text text-anchor="middle" x="1000.62" y="-579.75" font-family="Helvetica,sans-Serif" font-size="10.00">_shells</text>
</a>
</g>
</g>
<!-- Node1&#45;&gt;Node15 -->
<g id="edge13_Node000001_Node000015" class="edge">
<title>Node1&#45;&gt;Node15</title>
<g id="a_edge13_Node000001_Node000015"><a xlink:title=" ">
<path fill="none" stroke="#63b8ff" d="M1162.59,-414.28C1150.55,-449.53 1121.37,-522.17 1073.5,-564.88 1066.34,-571.27 1057.62,-576.42 1048.76,-580.53"/>
<polygon fill="#63b8ff" stroke="#63b8ff" points="1166.22,-415.44 1166.02,-404.85 1159.57,-413.26 1166.22,-415.44"/>
</a>
</g>
</g>
<!-- Node16 -->
<g id="Node000016" class="node">
<title>Node16</title>
<g id="a_Node000016"><a xlink:href="../../dd/dc8/class_slic3r_1_1_g_code.html#a41ddab6bfd15c1848026271f48485efb" target="_top" xlink:title=" ">
<polygon fill="white" stroke="#666666" points="554.12,-245.5 427.88,-245.5 427.88,-226.25 554.12,-226.25 554.12,-245.5"/>
<text text-anchor="middle" x="491" y="-232" font-family="Helvetica,sans-Serif" font-size="10.00">Slic3r::GCode::do_export</text>
</a>
</g>
</g>
<!-- Node1&#45;&gt;Node16 -->
<g id="edge14_Node000001_Node000016" class="edge">
<title>Node1&#45;&gt;Node16</title>
<g id="a_edge14_Node000001_Node000016"><a xlink:title=" ">
<path fill="none" stroke="#63b8ff" d="M1166.75,-373.45C1160.71,-329.9 1139.85,-228.42 1073.5,-185.88 984.26,-128.65 652.4,-198.38 534.17,-225.76"/>
<polygon fill="#63b8ff" stroke="#63b8ff" points="1163.36,-373.62 1168.08,-383.1 1170.31,-372.75 1163.36,-373.62"/>
</a>
</g>
</g>
<!-- Node17 -->
<g id="Node000017" class="node">
<title>Node17</title>
<g id="a_Node000017"><a xlink:href="../../d9/d45/namespace_slic3r_1_1_g_u_i.html#a6f4e20d4479b206b6f6796e33ff2ff96" target="_top" xlink:title=" ">
<polygon fill="white" stroke="#666666" points="1066.75,-750.5 934.5,-750.5 934.5,-731.25 1066.75,-731.25 1066.75,-750.5"/>
<text text-anchor="middle" x="1000.62" y="-737" font-family="Helvetica,sans-Serif" font-size="10.00">Slic3r::GUI::get_mem_info</text>
</a>
</g>
</g>
<!-- Node1&#45;&gt;Node17 -->
<g id="edge15_Node000001_Node000017" class="edge">
<title>Node1&#45;&gt;Node17</title>
<g id="a_edge15_Node000001_Node000017"><a xlink:title=" ">
<path fill="none" stroke="#63b8ff" d="M1169.5,-414.87C1169.68,-472.69 1161.9,-635.64 1073.5,-721.88 1069.8,-725.48 1065.51,-728.42 1060.89,-730.82"/>
<polygon fill="#63b8ff" stroke="#63b8ff" points="1172.99,-414.87 1169.36,-404.92 1165.99,-414.96 1172.99,-414.87"/>
</a>
</g>
</g>
<!-- Node19 -->
<g id="Node000019" class="node">
<title>Node19</title>
<g id="a_Node000019"><a xlink:href="../../de/dc3/class_slic3r_1_1_g_u_i_1_1_g_code_viewer.html#af9903ea969baf7bc9cfe160cb9804f3c" target="_top" xlink:title=" ">
<polygon fill="white" stroke="#666666" points="1066.38,-799.12 934.88,-799.12 934.88,-768.62 1066.38,-768.62 1066.38,-799.12"/>
<text text-anchor="start" x="942.88" y="-785.62" font-family="Helvetica,sans-Serif" font-size="10.00">Slic3r::GUI::GCodeViewer</text>
<text text-anchor="middle" x="1000.62" y="-774.38" font-family="Helvetica,sans-Serif" font-size="10.00">::log_memory_used</text>
</a>
</g>
</g>
<!-- Node1&#45;&gt;Node19 -->
<g id="edge17_Node000001_Node000019" class="edge">
<title>Node1&#45;&gt;Node19</title>
<g id="a_edge17_Node000001_Node000019"><a xlink:title=" ">
<path fill="none" stroke="#63b8ff" d="M1166.22,-414.52C1156.48,-484.05 1121.84,-708.18 1073.5,-759.88 1070.53,-763.05 1067.14,-765.8 1063.47,-768.19"/>
<polygon fill="#63b8ff" stroke="#63b8ff" points="1169.81,-415.12 1167.7,-404.74 1162.87,-414.17 1169.81,-415.12"/>
</a>
</g>
</g>
<!-- Node24 -->
<g id="Node000024" class="node">
<title>Node24</title>
<g id="a_Node000024"><a xlink:href="../../de/d87/class_slic3r_1_1_print_object.html#a6c4051dd6f5392dd9c58a606600a0939" target="_top" xlink:title=" ">
<polygon fill="white" stroke="#666666" points="1049.12,-409.12 952.12,-409.12 952.12,-378.62 1049.12,-378.62 1049.12,-409.12"/>
<text text-anchor="start" x="960.12" y="-395.62" font-family="Helvetica,sans-Serif" font-size="10.00">Slic3r::PrintObject</text>
<text text-anchor="middle" x="1000.62" y="-384.38" font-family="Helvetica,sans-Serif" font-size="10.00">::make_perimeters</text>
</a>
</g>
</g>
<!-- Node1&#45;&gt;Node24 -->
<g id="edge24_Node000001_Node000024" class="edge">
<title>Node1&#45;&gt;Node24</title>
<g id="a_edge24_Node000001_Node000024"><a xlink:title=" ">
<path fill="none" stroke="#63b8ff" d="M1098.32,-393.88C1081.81,-393.88 1064.6,-393.88 1049.36,-393.88"/>
<polygon fill="#63b8ff" stroke="#63b8ff" points="1098.05,-397.38 1108.05,-393.88 1098.05,-390.38 1098.05,-397.38"/>
</a>
</g>
</g>
<!-- Node25 -->
<g id="Node000025" class="node">
<title>Node25</title>
<g id="a_Node000025"><a xlink:href="../../d6/dac/class_slic3r_1_1_s_l_a_print_1_1_status_reporter.html#a3eee1116456b3c0e0c416e0a2bb515b4" target="_top" xlink:title=" ">
<polygon fill="white" stroke="#666666" points="1060.75,-360.12 940.5,-360.12 940.5,-329.62 1060.75,-329.62 1060.75,-360.12"/>
<text text-anchor="start" x="948.5" y="-346.62" font-family="Helvetica,sans-Serif" font-size="10.00">Slic3r::SLAPrint::Status</text>
<text text-anchor="middle" x="1000.62" y="-335.38" font-family="Helvetica,sans-Serif" font-size="10.00">Reporter::operator()</text>
</a>
</g>
</g>
<!-- Node1&#45;&gt;Node25 -->
<g id="edge25_Node000001_Node000025" class="edge">
<title>Node1&#45;&gt;Node25</title>
<g id="a_edge25_Node000001_Node000025"><a xlink:title=" ">
<path fill="none" stroke="#63b8ff" d="M1124.37,-380.81C1103.14,-374.59 1077.58,-367.11 1055.3,-360.59"/>
<polygon fill="#63b8ff" stroke="#63b8ff" points="1123.14,-384.39 1133.73,-383.84 1125.11,-377.67 1123.14,-384.39"/>
</a>
</g>
</g>
<!-- Node26 -->
<g id="Node000026" class="node">
<title>Node26</title>
<g id="a_Node000026"><a xlink:href="../../de/d87/class_slic3r_1_1_print_object.html#a4e672475940e7564f9e61332336a5270" target="_top" xlink:title=" ">
<polygon fill="white" stroke="#666666" points="1048.38,-311.12 952.88,-311.12 952.88,-280.62 1048.38,-280.62 1048.38,-311.12"/>
<text text-anchor="start" x="960.88" y="-297.62" font-family="Helvetica,sans-Serif" font-size="10.00">Slic3r::PrintObject</text>
<text text-anchor="middle" x="1000.62" y="-286.38" font-family="Helvetica,sans-Serif" font-size="10.00">::prepare_infill</text>
</a>
</g>
</g>
<!-- Node1&#45;&gt;Node26 -->
<g id="edge26_Node000001_Node000026" class="edge">
<title>Node1&#45;&gt;Node26</title>
<g id="a_edge26_Node000001_Node000026"><a xlink:title=" ">
<path fill="none" stroke="#63b8ff" d="M1150.24,-376.62C1131.83,-360.42 1102.4,-336.43 1073.5,-320.88 1065.71,-316.68 1057.07,-312.97 1048.56,-309.78"/>
<polygon fill="#63b8ff" stroke="#63b8ff" points="1147.55,-378.8 1157.34,-382.87 1152.22,-373.59 1147.55,-378.8"/>
</a>
</g>
</g>
<!-- Node27 -->
<g id="Node000027" class="node">
<title>Node27</title>
<g id="a_Node000027"><a xlink:href="../../d5/d8f/class_slic3r_1_1_print.html#a9323a02226e9ecffd2bbc0a28c0419e5" target="_top" xlink:title=" ">
<polygon fill="white" stroke="#666666" points="1054.38,-262.5 946.88,-262.5 946.88,-243.25 1054.38,-243.25 1054.38,-262.5"/>
<text text-anchor="middle" x="1000.62" y="-249" font-family="Helvetica,sans-Serif" font-size="10.00">Slic3r::Print::process</text>
</a>
</g>
</g>
<!-- Node1&#45;&gt;Node27 -->
<g id="edge27_Node000001_Node000027" class="edge">
<title>Node1&#45;&gt;Node27</title>
<g id="a_edge27_Node000001_Node000027"><a xlink:title=" ">
<path fill="none" stroke="#63b8ff" d="M1159.02,-374.29C1144.15,-347.09 1113.56,-298.26 1073.5,-271.88 1067.79,-268.11 1061.36,-265.09 1054.76,-262.67"/>
<polygon fill="#63b8ff" stroke="#63b8ff" points="1156.33,-375.67 1164.1,-382.87 1162.51,-372.4 1156.33,-375.67"/>
</a>
</g>
</g>
<!-- Node28 -->
<g id="Node000028" class="node">
<title>Node28</title>
<g id="a_Node000028"><a xlink:href="../../de/d87/class_slic3r_1_1_print_object.html#abc91a9a422c086b4bdbd355c638f0455" target="_top" xlink:title=" ">
<polygon fill="white" stroke="#666666" points="1070.12,-225.12 931.12,-225.12 931.12,-194.62 1070.12,-194.62 1070.12,-225.12"/>
<text text-anchor="start" x="939.12" y="-211.62" font-family="Helvetica,sans-Serif" font-size="10.00">Slic3r::PrintObject</text>
<text text-anchor="middle" x="1000.62" y="-200.38" font-family="Helvetica,sans-Serif" font-size="10.00">::process_external_surfaces</text>
</a>
</g>
</g>
<!-- Node1&#45;&gt;Node28 -->
<g id="edge28_Node000001_Node000028" class="edge">
<title>Node1&#45;&gt;Node28</title>
<g id="a_edge28_Node000001_Node000028"><a xlink:title=" ">
<path fill="none" stroke="#63b8ff" d="M1162.35,-373.95C1150.11,-340.25 1120.83,-271.95 1073.5,-233.88 1069.5,-230.66 1065.05,-227.87 1060.39,-225.44"/>
<polygon fill="#63b8ff" stroke="#63b8ff" points="1159.25,-374.68 1165.85,-382.96 1165.85,-372.37 1159.25,-374.68"/>
</a>
</g>
</g>
<!-- Node29 -->
<g id="Node000029" class="node">
<title>Node29</title>
<g id="a_Node000029"><a xlink:href="../../dd/dc8/class_slic3r_1_1_g_code.html#a9cc98ab48cc34a5705a931adb15dba33" target="_top" xlink:title=" ">
<polygon fill="white" stroke="#666666" points="1059.62,-458.12 941.62,-458.12 941.62,-427.62 1059.62,-427.62 1059.62,-458.12"/>
<text text-anchor="start" x="949.62" y="-444.62" font-family="Helvetica,sans-Serif" font-size="10.00">Slic3r::GCode::process</text>
<text text-anchor="middle" x="1000.62" y="-433.38" font-family="Helvetica,sans-Serif" font-size="10.00">_layer</text>
</a>
</g>
</g>
<!-- Node1&#45;&gt;Node29 -->
<g id="edge29_Node000001_Node000029" class="edge">
<title>Node1&#45;&gt;Node29</title>
<g id="a_edge29_Node000001_Node000029"><a xlink:title=" ">
<path fill="none" stroke="#63b8ff" d="M1124.37,-406.94C1103.14,-413.16 1077.58,-420.64 1055.3,-427.16"/>
<polygon fill="#63b8ff" stroke="#63b8ff" points="1125.11,-410.08 1133.73,-403.91 1123.14,-403.36 1125.11,-410.08"/>
</a>
</g>
</g>
<!-- Node33 -->
<g id="Node000033" class="node">
<title>Node33</title>
<g id="a_Node000033"><a xlink:href="../../de/d87/class_slic3r_1_1_print_object.html#ae11dcd0f7214fd53ec5d46d9dbafcee0" target="_top" xlink:title=" ">
<polygon fill="white" stroke="#666666" points="1048.38,-139.12 952.88,-139.12 952.88,-108.62 1048.38,-108.62 1048.38,-139.12"/>
<text text-anchor="start" x="960.88" y="-125.62" font-family="Helvetica,sans-Serif" font-size="10.00">Slic3r::PrintObject</text>
<text text-anchor="middle" x="1000.62" y="-114.38" font-family="Helvetica,sans-Serif" font-size="10.00">::slice_volumes</text>
</a>
</g>
</g>
<!-- Node1&#45;&gt;Node33 -->
<g id="edge34_Node000001_Node000033" class="edge">
<title>Node1&#45;&gt;Node33</title>
<g id="a_edge34_Node000001_Node000033"><a xlink:title=" ">
<path fill="none" stroke="#63b8ff" d="M1166.37,-373.28C1159.48,-327.56 1136.85,-216.62 1073.5,-152.88 1066.58,-145.91 1057.76,-140.56 1048.69,-136.46"/>
<polygon fill="#63b8ff" stroke="#63b8ff" points="1163.03,-373.7 1167.88,-383.12 1169.96,-372.73 1163.03,-373.7"/>
</a>
</g>
</g>
<!-- Node34 -->
<g id="Node000034" class="node">
<title>Node34</title>
<g id="a_Node000034"><a xlink:href="../../d4/d88/struct_slic3r_1_1_g_u_i_1_1_plater_1_1priv.html#ae442eb02f8d82b7eea6e3e3bc7324447" target="_top" xlink:title=" ">
<polygon fill="white" stroke="#666666" points="1054.38,-90.12 946.88,-90.12 946.88,-59.62 1054.38,-59.62 1054.38,-90.12"/>
<text text-anchor="start" x="954.88" y="-76.62" font-family="Helvetica,sans-Serif" font-size="10.00">Slic3r::GUI::Plater</text>
<text text-anchor="middle" x="1000.62" y="-65.38" font-family="Helvetica,sans-Serif" font-size="10.00">::priv::take_snapshot</text>
</a>
</g>
</g>
<!-- Node1&#45;&gt;Node34 -->
<g id="edge35_Node000001_Node000034" class="edge">
<title>Node1&#45;&gt;Node34</title>
<g id="a_edge35_Node000001_Node000034"><a xlink:title=" ">
<path fill="none" stroke="#63b8ff" d="M1168.33,-373.26C1165.49,-320.4 1150.67,-178.66 1073.5,-99.88 1068.23,-94.5 1061.74,-90.27 1054.84,-86.96"/>
<polygon fill="#63b8ff" stroke="#63b8ff" points="1164.86,-373.09 1168.8,-382.92 1171.85,-372.78 1164.86,-373.09"/>
</a>
</g>
</g>
<!-- Node35 -->
<g id="Node000035" class="node">
<title>Node35</title>
<g id="a_Node000035"><a xlink:href="../../d4/d88/struct_slic3r_1_1_g_u_i_1_1_plater_1_1priv.html#a218193ecf4e8c873b9f7a2433917ac27" target="_top" xlink:title=" ">
<polygon fill="white" stroke="#666666" points="1049.5,-41.75 951.75,-41.75 951.75,0 1049.5,0 1049.5,-41.75"/>
<text text-anchor="start" x="959.75" y="-28.25" font-family="Helvetica,sans-Serif" font-size="10.00">Slic3r::GUI::Plater</text>
<text text-anchor="start" x="959.75" y="-17" font-family="Helvetica,sans-Serif" font-size="10.00">::priv::update_after</text>
<text text-anchor="middle" x="1000.62" y="-5.75" font-family="Helvetica,sans-Serif" font-size="10.00">_undo_redo</text>
</a>
</g>
</g>
<!-- Node1&#45;&gt;Node35 -->
<g id="edge36_Node000001_Node000035" class="edge">
<title>Node1&#45;&gt;Node35</title>
<g id="a_edge36_Node000001_Node000035"><a xlink:title=" ">
<path fill="none" stroke="#63b8ff" d="M1169.17,-373.33C1168.57,-315.25 1159.07,-147.76 1073.5,-50.88 1067.06,-43.58 1058.55,-38.01 1049.65,-33.78"/>
<polygon fill="#63b8ff" stroke="#63b8ff" points="1165.68,-373.01 1169.19,-383 1172.68,-373 1165.68,-373.01"/>
</a>
</g>
</g>
<!-- Node3 -->
<g id="Node000003" class="node">
<title>Node3</title>
<g id="a_Node000003"><a xlink:href="../../d0/d2b/class_slic3r_1_1_g_u_i_1_1_g_l_canvas3_d.html#a396ba9b4636e07b4552416ea805233ab" target="_top" xlink:title=" ">
<polygon fill="white" stroke="#666666" points="890.62,-556.12 760.62,-556.12 760.62,-525.62 890.62,-525.62 890.62,-556.12"/>
<text text-anchor="start" x="768.62" y="-542.62" font-family="Helvetica,sans-Serif" font-size="10.00">Slic3r::GUI::GLCanvas3D</text>
<text text-anchor="middle" x="825.62" y="-531.38" font-family="Helvetica,sans-Serif" font-size="10.00">::load_preview</text>
</a>
</g>
</g>
<!-- Node2&#45;&gt;Node3 -->
<g id="edge2_Node000002_Node000003" class="edge">
<title>Node2&#45;&gt;Node3</title>
<g id="a_edge2_Node000002_Node000003"><a xlink:title=" ">
<path fill="none" stroke="#63b8ff" d="M933.96,-510.47C916.9,-515.31 898.69,-520.46 882.2,-525.13"/>
<polygon fill="#63b8ff" stroke="#63b8ff" points="934.74,-513.61 943.41,-507.51 932.84,-506.87 934.74,-513.61"/>
</a>
</g>
</g>
<!-- Node4 -->
<g id="Node000004" class="node">
<title>Node4</title>
<g id="a_Node000004"><a xlink:href="../../de/db8/class_slic3r_1_1_g_u_i_1_1_preview.html#aa0310cf5cc193339965135195c17bef6" target="_top" xlink:title=" ">
<polygon fill="white" stroke="#666666" points="390,-701.12 284,-701.12 284,-670.62 390,-670.62 390,-701.12"/>
<text text-anchor="start" x="292" y="-687.62" font-family="Helvetica,sans-Serif" font-size="10.00">Slic3r::GUI::Preview</text>
<text text-anchor="middle" x="337" y="-676.38" font-family="Helvetica,sans-Serif" font-size="10.00">::load_print_as_fff</text>
</a>
</g>
</g>
<!-- Node3&#45;&gt;Node4 -->
<g id="edge3_Node000003_Node000004" class="edge">
<title>Node3&#45;&gt;Node4</title>
<g id="a_edge3_Node000003_Node000004"><a xlink:title=" ">
<path fill="none" stroke="#63b8ff" d="M761.55,-559.67C664.52,-588.58 480.42,-643.44 390.32,-670.29"/>
<polygon fill="#63b8ff" stroke="#63b8ff" points="762.5,-562.74 771.09,-556.53 760.5,-556.03 762.5,-562.74"/>
</a>
</g>
</g>
<!-- Node5 -->
<g id="Node000005" class="node">
<title>Node5</title>
<g id="a_Node000005"><a xlink:href="../../de/db8/class_slic3r_1_1_g_u_i_1_1_preview.html#a88a21f54f02a375af2416d2a795dd350" target="_top" xlink:title=" ">
<polygon fill="white" stroke="#666666" points="248,-724.12 142,-724.12 142,-693.62 248,-693.62 248,-724.12"/>
<text text-anchor="start" x="150" y="-710.62" font-family="Helvetica,sans-Serif" font-size="10.00">Slic3r::GUI::Preview</text>
<text text-anchor="middle" x="195" y="-699.38" font-family="Helvetica,sans-Serif" font-size="10.00">::load_print</text>
</a>
</g>
</g>
<!-- Node4&#45;&gt;Node5 -->
<g id="edge4_Node000004_Node000005" class="edge">
<title>Node4&#45;&gt;Node5</title>
<g id="a_edge4_Node000004_Node000005"><a xlink:title=" ">
<path fill="none" stroke="#63b8ff" d="M273.05,-696.22C264.74,-697.58 256.28,-698.97 248.17,-700.3"/>
<polygon fill="#63b8ff" stroke="#63b8ff" points="273.57,-699.51 282.87,-694.44 272.43,-692.61 273.57,-699.51"/>
</a>
</g>
</g>
<!-- Node6 -->
<g id="Node000006" class="node">
<title>Node6</title>
<g id="a_Node000006"><a xlink:href="../../de/db8/class_slic3r_1_1_g_u_i_1_1_preview.html#a06a7e7c88b5b95b0b325903be8632d17" target="_top" xlink:title=" ">
<polygon fill="white" stroke="#666666" points="106,-726.12 0,-726.12 0,-695.62 106,-695.62 106,-726.12"/>
<text text-anchor="start" x="8" y="-712.62" font-family="Helvetica,sans-Serif" font-size="10.00">Slic3r::GUI::Preview</text>
<text text-anchor="middle" x="53" y="-701.38" font-family="Helvetica,sans-Serif" font-size="10.00">::Preview</text>
</a>
</g>
</g>
<!-- Node5&#45;&gt;Node6 -->
<g id="edge5_Node000005_Node000006" class="edge">
<title>Node5&#45;&gt;Node6</title>
<g id="a_edge5_Node000005_Node000006"><a xlink:title=" ">
<path fill="none" stroke="#63b8ff" d="M131.05,-709.77C122.74,-709.89 114.28,-710.01 106.17,-710.13"/>
<polygon fill="#63b8ff" stroke="#63b8ff" points="130.92,-713.26 140.87,-709.62 130.82,-706.26 130.92,-713.26"/>
</a>
</g>
</g>
<!-- Node7 -->
<g id="Node000007" class="node">
<title>Node7</title>
<g id="a_Node000007"><a xlink:href="../../de/db8/class_slic3r_1_1_g_u_i_1_1_preview.html#ae1c961f58ad547b8b9ff16cb140420ad" target="_top" xlink:title=" ">
<polygon fill="#fff0f0" stroke="red" points="106,-677.12 0,-677.12 0,-646.62 106,-646.62 106,-677.12"/>
<text text-anchor="start" x="8" y="-663.62" font-family="Helvetica,sans-Serif" font-size="10.00">Slic3r::GUI::Preview</text>
<text text-anchor="middle" x="53" y="-652.38" font-family="Helvetica,sans-Serif" font-size="10.00">::refresh_print</text>
</a>
</g>
</g>
<!-- Node5&#45;&gt;Node7 -->
<g id="edge6_Node000005_Node000007" class="edge">
<title>Node5&#45;&gt;Node7</title>
<g id="a_edge6_Node000005_Node000007"><a xlink:title=" ">
<path fill="none" stroke="#63b8ff" d="M137.01,-689.74C125,-685.71 112.47,-681.51 100.89,-677.62"/>
<polygon fill="#63b8ff" stroke="#63b8ff" points="135.79,-693.36 146.38,-693.22 138.02,-686.72 135.79,-693.36"/>
</a>
</g>
</g>
<!-- Node9 -->
<g id="Node000009" class="node">
<title>Node9</title>
<g id="a_Node000009"><a xlink:href="../../de/db8/class_slic3r_1_1_g_u_i_1_1_preview.html#a61533aa73c8efea48a5ec778ebcf30f6" target="_top" xlink:title=" ">
<polygon fill="#fff0f0" stroke="red" points="106,-775.12 0,-775.12 0,-744.62 106,-744.62 106,-775.12"/>
<text text-anchor="start" x="8" y="-761.62" font-family="Helvetica,sans-Serif" font-size="10.00">Slic3r::GUI::Preview</text>
<text text-anchor="middle" x="53" y="-750.38" font-family="Helvetica,sans-Serif" font-size="10.00">::reload_print</text>
</a>
</g>
</g>
<!-- Node5&#45;&gt;Node9 -->
<g id="edge8_Node000005_Node000009" class="edge">
<title>Node5&#45;&gt;Node9</title>
<g id="a_edge8_Node000005_Node000009"><a xlink:title=" ">
<path fill="none" stroke="#63b8ff" d="M140.53,-728.35C126.05,-733.63 110.57,-739.27 96.76,-744.3"/>
<polygon fill="#63b8ff" stroke="#63b8ff" points="141.66,-731.3 149.85,-724.59 139.26,-724.73 141.66,-731.3"/>
</a>
</g>
</g>
<!-- Node7&#45;&gt;Node4 -->
<g id="edge7_Node000007_Node000004" class="edge">
<title>Node7&#45;&gt;Node4</title>
<g id="a_edge7_Node000007_Node000004"><a xlink:title=" ">
<path fill="none" stroke="#63b8ff" d="M116.81,-667.22C166.97,-671.49 236.43,-677.4 283.62,-681.42"/>
<polygon fill="#63b8ff" stroke="#63b8ff" points="117.36,-663.67 107.1,-666.31 116.77,-670.64 117.36,-663.67"/>
</a>
</g>
</g>
<!-- Node12&#45;&gt;Node3 -->
<g id="edge10_Node000012_Node000003" class="edge">
<title>Node12&#45;&gt;Node3</title>
<g id="a_edge10_Node000012_Node000003"><a xlink:title=" ">
<path fill="none" stroke="#63b8ff" d="M916.85,-540.88C908.2,-540.88 899.49,-540.88 891.08,-540.88"/>
<polygon fill="#63b8ff" stroke="#63b8ff" points="916.76,-544.38 926.76,-540.88 916.76,-537.38 916.76,-544.38"/>
</a>
</g>
</g>
<!-- Node18 -->
<g id="Node000018" class="node">
<title>Node18</title>
<g id="a_Node000018"><a xlink:href="../../d4/d18/class_slic3r_1_1_g_u_i_1_1_sys_info_dialog.html#af4577e832e545cded7ac004a6b22d69e" target="_top" xlink:title=" ">
<polygon fill="white" stroke="#666666" points="891.75,-734.12 759.5,-734.12 759.5,-703.62 891.75,-703.62 891.75,-734.12"/>
<text text-anchor="start" x="767.5" y="-720.62" font-family="Helvetica,sans-Serif" font-size="10.00">Slic3r::GUI::SysInfoDialog</text>
<text text-anchor="middle" x="825.62" y="-709.38" font-family="Helvetica,sans-Serif" font-size="10.00">::SysInfoDialog</text>
</a>
</g>
</g>
<!-- Node17&#45;&gt;Node18 -->
<g id="edge16_Node000017_Node000018" class="edge">
<title>Node17&#45;&gt;Node18</title>
<g id="a_edge16_Node000017_Node000018"><a xlink:title=" ">
<path fill="none" stroke="#63b8ff" d="M923.44,-731.19C913,-729.86 902.35,-728.5 892.12,-727.2"/>
<polygon fill="#63b8ff" stroke="#63b8ff" points="922.86,-734.77 933.22,-732.56 923.74,-727.82 922.86,-734.77"/>
</a>
</g>
</g>
<!-- Node20 -->
<g id="Node000020" class="node">
<title>Node20</title>
<g id="a_Node000020"><a xlink:href="../../de/dc3/class_slic3r_1_1_g_u_i_1_1_g_code_viewer.html#a26874b7642c5d9879c0f6d28b384c796" target="_top" xlink:title=" ">
<polygon fill="white" stroke="#666666" points="891.38,-820.12 759.88,-820.12 759.88,-789.62 891.38,-789.62 891.38,-820.12"/>
<text text-anchor="start" x="767.88" y="-806.62" font-family="Helvetica,sans-Serif" font-size="10.00">Slic3r::GUI::GCodeViewer</text>
<text text-anchor="middle" x="825.62" y="-795.38" font-family="Helvetica,sans-Serif" font-size="10.00">::load_toolpaths</text>
</a>
</g>
</g>
<!-- Node19&#45;&gt;Node20 -->
<g id="edge18_Node000019_Node000020" class="edge">
<title>Node19&#45;&gt;Node20</title>
<g id="a_edge18_Node000019_Node000020"><a xlink:title=" ">
<path fill="none" stroke="#63b8ff" d="M924.02,-793.05C913.22,-794.36 902.18,-795.7 891.61,-796.99"/>
<polygon fill="#63b8ff" stroke="#63b8ff" points="924.21,-796.43 933.71,-791.75 923.37,-789.48 924.21,-796.43"/>
</a>
</g>
</g>
<!-- Node23 -->
<g id="Node000023" class="node">
<title>Node23</title>
<g id="a_Node000023"><a xlink:href="../../de/dc3/class_slic3r_1_1_g_u_i_1_1_g_code_viewer.html#a8a985ef531deab095c2db48232315bc3" target="_top" xlink:title=" ">
<polygon fill="white" stroke="#666666" points="723.5,-771.12 592,-771.12 592,-740.62 723.5,-740.62 723.5,-771.12"/>
<text text-anchor="start" x="600" y="-757.62" font-family="Helvetica,sans-Serif" font-size="10.00">Slic3r::GUI::GCodeViewer</text>
<text text-anchor="middle" x="657.75" y="-746.38" font-family="Helvetica,sans-Serif" font-size="10.00">::refresh</text>
</a>
</g>
</g>
<!-- Node19&#45;&gt;Node23 -->
<g id="edge22_Node000019_Node000023" class="edge">
<title>Node19&#45;&gt;Node23</title>
<g id="a_edge22_Node000019_Node000023"><a xlink:title=" ">
<path fill="none" stroke="#63b8ff" d="M923.77,-777.64C863.72,-772.71 780.74,-765.9 723.72,-761.21"/>
<polygon fill="#63b8ff" stroke="#63b8ff" points="923.45,-781.21 933.71,-778.54 924.03,-774.24 923.45,-781.21"/>
</a>
</g>
</g>
<!-- Node21 -->
<g id="Node000021" class="node">
<title>Node21</title>
<g id="a_Node000021"><a xlink:href="../../de/dc3/class_slic3r_1_1_g_u_i_1_1_g_code_viewer.html#aaa7112c654945e8620e7a703354791d9" target="_top" xlink:title=" ">
<polygon fill="white" stroke="#666666" points="723.5,-820.12 592,-820.12 592,-789.62 723.5,-789.62 723.5,-820.12"/>
<text text-anchor="start" x="600" y="-806.62" font-family="Helvetica,sans-Serif" font-size="10.00">Slic3r::GUI::GCodeViewer</text>
<text text-anchor="middle" x="657.75" y="-795.38" font-family="Helvetica,sans-Serif" font-size="10.00">::load</text>
</a>
</g>
</g>
<!-- Node20&#45;&gt;Node21 -->
<g id="edge19_Node000020_Node000021" class="edge">
<title>Node20&#45;&gt;Node21</title>
<g id="a_edge19_Node000020_Node000021"><a xlink:title=" ">
<path fill="none" stroke="#63b8ff" d="M748.73,-804.88C740.44,-804.88 732.06,-804.88 723.92,-804.88"/>
<polygon fill="#63b8ff" stroke="#63b8ff" points="748.54,-808.38 758.54,-804.88 748.54,-801.38 748.54,-808.38"/>
</a>
</g>
</g>
<!-- Node22 -->
<g id="Node000022" class="node">
<title>Node22</title>
<g id="a_Node000022"><a xlink:href="../../d0/d2b/class_slic3r_1_1_g_u_i_1_1_g_l_canvas3_d.html#ac2ea90b9048ab15a8b2b7438462a63ef" target="_top" xlink:title=" ">
<polygon fill="white" stroke="#666666" points="556,-771.12 426,-771.12 426,-740.62 556,-740.62 556,-771.12"/>
<text text-anchor="start" x="434" y="-757.62" font-family="Helvetica,sans-Serif" font-size="10.00">Slic3r::GUI::GLCanvas3D</text>
<text text-anchor="middle" x="491" y="-746.38" font-family="Helvetica,sans-Serif" font-size="10.00">::load_gcode_preview</text>
</a>
</g>
</g>
<!-- Node21&#45;&gt;Node22 -->
<g id="edge20_Node000021_Node000022" class="edge">
<title>Node21&#45;&gt;Node22</title>
<g id="a_edge20_Node000021_Node000022"><a xlink:title=" ">
<path fill="none" stroke="#63b8ff" d="M593.76,-786.14C577.64,-781.35 560.48,-776.24 544.93,-771.62"/>
<polygon fill="#63b8ff" stroke="#63b8ff" points="592.59,-789.74 603.17,-789.24 594.58,-783.03 592.59,-789.74"/>
</a>
</g>
</g>
<!-- Node22&#45;&gt;Node4 -->
<g id="edge21_Node000022_Node000004" class="edge">
<title>Node22&#45;&gt;Node4</title>
<g id="a_edge21_Node000022_Node000004"><a xlink:title=" ">
<path fill="none" stroke="#63b8ff" d="M446.12,-735.67C422.53,-724.8 393.88,-711.61 372,-701.53"/>
<polygon fill="#63b8ff" stroke="#63b8ff" points="444.34,-739.16 454.89,-740.17 447.27,-732.8 444.34,-739.16"/>
</a>
</g>
</g>
<!-- Node23&#45;&gt;Node22 -->
<g id="edge23_Node000023_Node000022" class="edge">
<title>Node23&#45;&gt;Node22</title>
<g id="a_edge23_Node000023_Node000022"><a xlink:title=" ">
<path fill="none" stroke="#63b8ff" d="M580.65,-755.88C572.53,-755.88 564.33,-755.88 556.37,-755.88"/>
<polygon fill="#63b8ff" stroke="#63b8ff" points="580.64,-759.38 590.64,-755.88 580.64,-752.38 580.64,-759.38"/>
</a>
</g>
</g>
<!-- Node30 -->
<g id="Node000030" class="node">
<title>Node30</title>
<g id="a_Node000030"><a xlink:href="../../dd/dc8/class_slic3r_1_1_g_code.html#ae9d03a71321e19a7349fe7bdf892eeb5" target="_top" xlink:title=" ">
<polygon fill="white" stroke="#666666" points="884.62,-458.12 766.62,-458.12 766.62,-427.62 884.62,-427.62 884.62,-458.12"/>
<text text-anchor="start" x="774.62" y="-444.62" font-family="Helvetica,sans-Serif" font-size="10.00">Slic3r::GCode::process</text>
<text text-anchor="middle" x="825.62" y="-433.38" font-family="Helvetica,sans-Serif" font-size="10.00">_layers</text>
</a>
</g>
</g>
<!-- Node29&#45;&gt;Node30 -->
<g id="edge30_Node000029_Node000030" class="edge">
<title>Node29&#45;&gt;Node30</title>
<g id="a_edge30_Node000029_Node000030"><a xlink:title=" ">
<path fill="none" stroke="#63b8ff" d="M930.65,-442.88C915.48,-442.88 899.55,-442.88 884.85,-442.88"/>
<polygon fill="#63b8ff" stroke="#63b8ff" points="930.54,-446.38 940.54,-442.88 930.54,-439.38 930.54,-446.38"/>
</a>
</g>
</g>
<!-- Node32 -->
<g id="Node000032" class="node">
<title>Node32</title>
<g id="a_Node000032"><a xlink:href="../../dd/dc8/class_slic3r_1_1_g_code.html#af9001478c63dd7c5909161470e3d13a7" target="_top" xlink:title=" ">
<polygon fill="white" stroke="#666666" points="884.62,-409.12 766.62,-409.12 766.62,-378.62 884.62,-378.62 884.62,-409.12"/>
<text text-anchor="start" x="774.62" y="-395.62" font-family="Helvetica,sans-Serif" font-size="10.00">Slic3r::GCode::process</text>
<text text-anchor="middle" x="825.62" y="-384.38" font-family="Helvetica,sans-Serif" font-size="10.00">_layers</text>
</a>
</g>
</g>
<!-- Node29&#45;&gt;Node32 -->
<g id="edge33_Node000029_Node000032" class="edge">
<title>Node29&#45;&gt;Node32</title>
<g id="a_edge33_Node000029_Node000032"><a xlink:title=" ">
<path fill="none" stroke="#63b8ff" d="M933.96,-424.28C916.9,-419.44 898.69,-414.29 882.2,-409.62"/>
<polygon fill="#63b8ff" stroke="#63b8ff" points="932.84,-427.88 943.41,-427.24 934.74,-421.14 932.84,-427.88"/>
</a>
</g>
</g>
<!-- Node31 -->
<g id="Node000031" class="node">
<title>Node31</title>
<g id="a_Node000031"><a xlink:href="../../dd/dc8/class_slic3r_1_1_g_code.html#ad5ac0f44c2121cf8d09cc7fde2dae045" target="_top" xlink:title=" ">
<polygon fill="white" stroke="#666666" points="707.38,-389.12 608.12,-389.12 608.12,-358.62 707.38,-358.62 707.38,-389.12"/>
<text text-anchor="start" x="616.12" y="-375.62" font-family="Helvetica,sans-Serif" font-size="10.00">Slic3r::GCode::_do</text>
<text text-anchor="middle" x="657.75" y="-364.38" font-family="Helvetica,sans-Serif" font-size="10.00">_export</text>
</a>
</g>
</g>
<!-- Node30&#45;&gt;Node31 -->
<g id="edge31_Node000030_Node000031" class="edge">
<title>Node30&#45;&gt;Node31</title>
<g id="a_edge31_Node000030_Node000031"><a xlink:title=" ">
<path fill="none" stroke="#63b8ff" d="M772.9,-423.26C768.36,-421.47 763.84,-419.65 759.5,-417.88 737.43,-408.82 712.89,-398.12 693.55,-389.54"/>
<polygon fill="#63b8ff" stroke="#63b8ff" points="771.24,-426.76 781.82,-427.15 773.79,-420.24 771.24,-426.76"/>
</a>
</g>
</g>
<!-- Node31&#45;&gt;Node16 -->
<g id="edge32_Node000031_Node000016" class="edge">
<title>Node31&#45;&gt;Node16</title>
<g id="a_edge32_Node000031_Node000016"><a xlink:title=" ">
<path fill="none" stroke="#63b8ff" d="M629.97,-351.45C593.57,-320.96 530.01,-267.71 503.81,-245.77"/>
<polygon fill="#63b8ff" stroke="#63b8ff" points="627.26,-354.57 637.17,-358.31 631.75,-349.21 627.26,-354.57"/>
</a>
</g>
</g>
</g>
</svg>
