<?xml version="1.0" encoding="UTF-8" standalone="no"?>
<!DOCTYPE svg PUBLIC "-//W3C//DTD SVG 1.1//EN"
 "http://www.w3.org/Graphics/SVG/1.1/DTD/svg11.dtd">
<!-- Generated by graphviz version 8.0.5 (20230430.1635)
 -->
<!-- Title: Slic3r::perpendPoints Pages: 1 -->
<!--zoomable 679 -->

<svg id="main" version="1.1" xmlns="http://www.w3.org/2000/svg" xmlns:xlink="http://www.w3.org/1999/xlink" xml:space="preserve" onload="init(evt)">
<style type="text/css"><![CDATA[
.node, .edge {opacity: 0.7;}
.node.selected, .edge.selected {opacity: 1;}
.edge:hover path { stroke: red; }
.edge:hover polygon { stroke: red; fill: red; }
]]></style>

<defs>
  <circle id="rim" cx="0" cy="0" r="7"/>
  <circle id="rim2" cx="0" cy="0" r="3.5"/>
  <g id="zoomPlus">
    <use xlink:href="#rim" fill="#404040"><set attributeName="fill" to="#808080" begin="zoomplus.mouseover" end="zoomplus.mouseout"/></use>
    <path d="M-4,0h8M0,-4v8" fill="none" stroke="white" stroke-width="1.5" pointer-events="none"/>
  </g>
  <g id="zoomMin">
    <use xlink:href="#rim" fill="#404040"><set attributeName="fill" to="#808080" begin="zoomminus.mouseover" end="zoomminus.mouseout"/></use>
    <path d="M-4,0h8" fill="none" stroke="white" stroke-width="1.5" pointer-events="none"/>
  </g>
  <g id="arrowUp" transform="translate(30 24)">
    <use xlink:href="#rim"/>
    <path pointer-events="none" fill="none" stroke="white" stroke-width="1.5" d="M0,-3.0v7 M-2.5,-0.5L0,-3.0L2.5,-0.5"/>
  </g>
  <g id="arrowRight" transform="rotate(90) translate(36 -43)">
    <use xlink:href="#rim"/>
    <path pointer-events="none" fill="none" stroke="white" stroke-width="1.5" d="M0,-3.0v7 M-2.5,-0.5L0,-3.0L2.5,-0.5"/>
  </g>
  <g id="arrowDown" transform="rotate(180) translate(-30 -48)">
    <use xlink:href="#rim"/>
    <path pointer-events="none" fill="none" stroke="white" stroke-width="1.5" d="M0,-3.0v7 M-2.5,-0.5L0,-3.0L2.5,-0.5"/>
  </g>
  <g id="arrowLeft" transform="rotate(270) translate(-36 17)">
    <use xlink:href="#rim"/>
    <path pointer-events="none" fill="none" stroke="white" stroke-width="1.5" d="M0,-3.0v7 M-2.5,-0.5L0,-3.0L2.5,-0.5"/>
  </g>
  <g id="resetDef">
    <use xlink:href="#rim2" fill="#404040"><set attributeName="fill" to="#808080" begin="reset.mouseover" end="reset.mouseout"/></use>
  </g>
</defs>
<script type="application/ecmascript">
var viewWidth = 1442;
var viewHeight = 679;
var sectionId = 'dynsection-1227';
</script>
<script type="application/ecmascript" xlink:href="../../svg.min.js"/>
<svg id="graph" class="graph">
<g id="viewport">
<title>Slic3r::perpendPoints</title>
<!-- Node1 -->
<g id="Node000001" class="node">
<title>Node1</title>
<g id="a_Node000001"><a xlink:title=" ">
<polygon fill="#999999" stroke="#666666" points="109,-444.07 0,-444.07 0,-424.82 109,-424.82 109,-444.07"/>
<text text-anchor="middle" x="54.5" y="-430.57" font-family="Helvetica,sans-Serif" font-size="10.00">Slic3r::perpendPoints</text>
</a>
</g>
</g>
<!-- Node2 -->
<g id="Node000002" class="node">
<title>Node2</title>
<g id="a_Node000002"><a xlink:href="../../de/db8/namespace_slic3r.html#a5ec552d076296fd705739c608edc1580" target="_top" xlink:title=" ">
<polygon fill="white" stroke="#666666" points="473.88,-463.07 402.38,-463.07 402.38,-443.82 473.88,-443.82 473.88,-463.07"/>
<text text-anchor="middle" x="438.12" y="-449.57" font-family="Helvetica,sans-Serif" font-size="10.00">Slic3r::offset</text>
</a>
</g>
</g>
<!-- Node1&#45;&gt;Node2 -->
<g id="edge1_Node000001_Node000002" class="edge">
<title>Node1&#45;&gt;Node2</title>
<g id="a_edge1_Node000001_Node000002"><a xlink:title=" ">
<path fill="none" stroke="#63b8ff" d="M109.37,-437.12C184.75,-440.88 320.38,-447.63 391.22,-451.16"/>
<polygon fill="#63b8ff" stroke="#63b8ff" points="390.85,-454.69 401.02,-451.69 391.2,-447.7 390.85,-454.69"/>
</a>
</g>
</g>
<!-- Node28 -->
<g id="Node000028" class="node">
<title>Node28</title>
<g id="a_Node000028"><a xlink:href="../../de/db8/namespace_slic3r.html#ad16926b284c744239c383650205aae65" target="_top" xlink:title=" ">
<polygon fill="white" stroke="#666666" points="221.75,-425.07 145,-425.07 145,-405.82 221.75,-405.82 221.75,-425.07"/>
<text text-anchor="middle" x="183.38" y="-411.57" font-family="Helvetica,sans-Serif" font-size="10.00">Slic3r::offset2</text>
</a>
</g>
</g>
<!-- Node1&#45;&gt;Node28 -->
<g id="edge43_Node000001_Node000028" class="edge">
<title>Node1&#45;&gt;Node28</title>
<g id="a_edge43_Node000001_Node000028"><a xlink:title=" ">
<path fill="none" stroke="#63b8ff" d="M109.31,-426.38C117.48,-425.16 125.87,-423.9 133.92,-422.7"/>
<polygon fill="#63b8ff" stroke="#63b8ff" points="134.26,-426.04 143.63,-421.09 133.22,-419.11 134.26,-426.04"/>
</a>
</g>
</g>
<!-- Node3 -->
<g id="Node000003" class="node">
<title>Node3</title>
<g id="a_Node000003"><a xlink:href="../../de/db8/namespace_slic3r.html#af7cda13fb4a1d706c356d6326e791e5e" target="_top" xlink:title=" ">
<polygon fill="white" stroke="#666666" points="629,-463.07 536.5,-463.07 536.5,-443.82 629,-443.82 629,-463.07"/>
<text text-anchor="middle" x="582.75" y="-449.57" font-family="Helvetica,sans-Serif" font-size="10.00">Slic3r::raw_offset</text>
</a>
</g>
</g>
<!-- Node2&#45;&gt;Node3 -->
<g id="edge2_Node000002_Node000003" class="edge">
<title>Node2&#45;&gt;Node3</title>
<g id="a_edge2_Node000002_Node000003"><a xlink:title=" ">
<path fill="none" stroke="#63b8ff" d="M474.02,-447.54C489.52,-446.75 508.16,-446.51 525.55,-446.83"/>
<polygon fill="#63b8ff" stroke="#63b8ff" points="525.08,-450.34 535.17,-447.1 525.26,-443.34 525.08,-450.34"/>
</a>
</g>
</g>
<!-- Node27 -->
<g id="Node000027" class="node">
<title>Node27</title>
<g id="a_Node000027"><a xlink:href="../../de/db8/namespace_slic3r.html#a843ba2fe16b213f550fb3d55c55a716e" target="_top" xlink:title=" ">
<polygon fill="white" stroke="#666666" points="632.38,-426.07 533.12,-426.07 533.12,-406.82 632.38,-406.82 632.38,-426.07"/>
<text text-anchor="middle" x="582.75" y="-412.57" font-family="Helvetica,sans-Serif" font-size="10.00">Slic3r::to_polygons</text>
</a>
</g>
</g>
<!-- Node2&#45;&gt;Node27 -->
<g id="edge42_Node000002_Node000027" class="edge">
<title>Node2&#45;&gt;Node27</title>
<g id="a_edge42_Node000002_Node000027"><a xlink:title=" ">
<path fill="none" stroke="#63b8ff" d="M474.02,-444.39C491.62,-439.82 513.27,-434.21 532.54,-429.21"/>
<polygon fill="#63b8ff" stroke="#63b8ff" points="533.15,-432.4 541.95,-426.51 531.39,-425.63 533.15,-432.4"/>
</a>
</g>
</g>
<!-- Node3&#45;&gt;Node2 -->
<g id="edge38_Node000003_Node000002" class="edge">
<title>Node3&#45;&gt;Node2</title>
<g id="a_edge38_Node000003_Node000002"><a xlink:title=" ">
<path fill="none" stroke="#63b8ff" d="M536.17,-459.78C519.81,-460.32 501.36,-460.33 484.98,-459.79"/>
<polygon fill="#63b8ff" stroke="#63b8ff" points="485.15,-456.26 475.02,-459.34 484.86,-463.25 485.15,-456.26"/>
</a>
</g>
</g>
<!-- Node4 -->
<g id="Node000004" class="node">
<title>Node4</title>
<g id="a_Node000004"><a xlink:href="../../d5/d7d/class_clipper_lib_1_1_clipper_offset.html#a0cd68e3690072f510924a5b25291043b" target="_top" xlink:title=" ">
<polygon fill="white" stroke="#666666" points="802.5,-501.69 679.25,-501.69 679.25,-471.19 802.5,-471.19 802.5,-501.69"/>
<text text-anchor="start" x="687.25" y="-488.19" font-family="Helvetica,sans-Serif" font-size="10.00">ClipperLib::ClipperOffset</text>
<text text-anchor="middle" x="740.88" y="-476.94" font-family="Helvetica,sans-Serif" font-size="10.00">::AddPath</text>
</a>
</g>
</g>
<!-- Node3&#45;&gt;Node4 -->
<g id="edge3_Node000003_Node000004" class="edge">
<title>Node3&#45;&gt;Node4</title>
<g id="a_edge3_Node000003_Node000004"><a xlink:title=" ">
<path fill="none" stroke="#63b8ff" d="M629.33,-463.07C641.54,-465.66 655.05,-468.51 668.31,-471.31"/>
<polygon fill="#63b8ff" stroke="#63b8ff" points="667.35,-474.9 677.85,-473.54 668.79,-468.05 667.35,-474.9"/>
</a>
</g>
</g>
<!-- Node8 -->
<g id="Node000008" class="node">
<title>Node8</title>
<g id="a_Node000008"><a xlink:href="../../de/db8/namespace_slic3r.html#ad61bb7f1e4b8aaa434964420b9bedf32" target="_top" xlink:title=" ">
<polygon fill="white" stroke="#666666" points="780,-314.07 701.75,-314.07 701.75,-294.82 780,-294.82 780,-314.07"/>
<text text-anchor="middle" x="740.88" y="-300.57" font-family="Helvetica,sans-Serif" font-size="10.00">Slic3r::append</text>
</a>
</g>
</g>
<!-- Node3&#45;&gt;Node8 -->
<g id="edge8_Node000003_Node000008" class="edge">
<title>Node3&#45;&gt;Node8</title>
<g id="a_edge8_Node000003_Node000008"><a xlink:title=" ">
<path fill="none" stroke="#63b8ff" d="M629.26,-444.86C634.42,-442.45 639.25,-439.38 643.25,-435.44 680.54,-398.79 642.14,-360.28 679.25,-323.44 682.88,-319.84 687.17,-316.92 691.78,-314.56"/>
<polygon fill="#63b8ff" stroke="#63b8ff" points="692.71,-317.54 700.56,-310.43 689.99,-311.09 692.71,-317.54"/>
</a>
</g>
</g>
<!-- Node9 -->
<g id="Node000009" class="node">
<title>Node9</title>
<g id="a_Node000009"><a xlink:href="../../d5/d7d/class_clipper_lib_1_1_clipper_offset.html#ab444433587b6a3f6c89655938d889c7d" target="_top" xlink:title=" ">
<polygon fill="white" stroke="#666666" points="802.5,-582.69 679.25,-582.69 679.25,-552.19 802.5,-552.19 802.5,-582.69"/>
<text text-anchor="start" x="687.25" y="-569.19" font-family="Helvetica,sans-Serif" font-size="10.00">ClipperLib::ClipperOffset</text>
<text text-anchor="middle" x="740.88" y="-557.94" font-family="Helvetica,sans-Serif" font-size="10.00">::Clear</text>
</a>
</g>
</g>
<!-- Node3&#45;&gt;Node9 -->
<g id="edge9_Node000003_Node000009" class="edge">
<title>Node3&#45;&gt;Node9</title>
<g id="a_edge9_Node000003_Node000009"><a xlink:title=" ">
<path fill="none" stroke="#63b8ff" d="M597.61,-463.56C622.68,-481.87 676.11,-520.88 709.88,-545.54"/>
<polygon fill="#63b8ff" stroke="#63b8ff" points="707.29,-548.71 717.43,-551.78 711.42,-543.06 707.29,-548.71"/>
</a>
</g>
</g>
<!-- Node10 -->
<g id="Node000010" class="node">
<title>Node10</title>
<g id="a_Node000010"><a xlink:href="../../d5/d7d/class_clipper_lib_1_1_clipper_offset.html#ac591b25e483a52c99c3190a256ad4589" target="_top" xlink:title=" ">
<polygon fill="white" stroke="#666666" points="802.5,-362.69 679.25,-362.69 679.25,-332.19 802.5,-332.19 802.5,-362.69"/>
<text text-anchor="start" x="687.25" y="-349.19" font-family="Helvetica,sans-Serif" font-size="10.00">ClipperLib::ClipperOffset</text>
<text text-anchor="middle" x="740.88" y="-337.94" font-family="Helvetica,sans-Serif" font-size="10.00">::Execute</text>
</a>
</g>
</g>
<!-- Node3&#45;&gt;Node10 -->
<g id="edge11_Node000003_Node000010" class="edge">
<title>Node3&#45;&gt;Node10</title>
<g id="a_edge11_Node000003_Node000010"><a xlink:title=" ">
<path fill="none" stroke="#63b8ff" d="M625.7,-443.34C631.78,-441.14 637.81,-438.53 643.25,-435.44 673.12,-418.49 701.45,-390.81 719.62,-371.03"/>
<polygon fill="#63b8ff" stroke="#63b8ff" points="721.67,-373.86 725.76,-364.08 716.47,-369.18 721.67,-373.86"/>
</a>
</g>
</g>
<!-- Node25 -->
<g id="Node000025" class="node">
<title>Node25</title>
<g id="a_Node000025"><a xlink:href="../../de/d37/namespace_clipper_lib.html#a806a3d33d76bb9d4479d384f876ce8bd" target="_top" xlink:title=" ">
<polygon fill="white" stroke="#666666" points="797.25,-636.07 684.5,-636.07 684.5,-616.82 797.25,-616.82 797.25,-636.07"/>
<text text-anchor="middle" x="740.88" y="-622.57" font-family="Helvetica,sans-Serif" font-size="10.00">ClipperLib::Orientation</text>
</a>
</g>
</g>
<!-- Node3&#45;&gt;Node25 -->
<g id="edge39_Node000003_Node000025" class="edge">
<title>Node3&#45;&gt;Node25</title>
<g id="a_edge39_Node000003_Node000025"><a xlink:title=" ">
<path fill="none" stroke="#63b8ff" d="M588.56,-463.22C600.85,-487.45 635.54,-551.17 679.25,-591.44 687.63,-599.16 698,-605.92 707.78,-611.39"/>
<polygon fill="#63b8ff" stroke="#63b8ff" points="705.8,-614.83 716.27,-616.41 709.07,-608.64 705.8,-614.83"/>
</a>
</g>
</g>
<!-- Node5 -->
<g id="Node000005" class="node">
<title>Node5</title>
<g id="a_Node000005"><a xlink:href="../../d2/df1/class_clipper_lib_1_1_poly_node.html#a88b3923dabfc527b5eb28ca29005193d" target="_top" xlink:title=" ">
<polygon fill="white" stroke="#666666" points="954.25,-501.69 846,-501.69 846,-471.19 954.25,-471.19 954.25,-501.69"/>
<text text-anchor="start" x="854" y="-488.19" font-family="Helvetica,sans-Serif" font-size="10.00">ClipperLib::PolyNode</text>
<text text-anchor="middle" x="900.12" y="-476.94" font-family="Helvetica,sans-Serif" font-size="10.00">::AddChild</text>
</a>
</g>
</g>
<!-- Node4&#45;&gt;Node5 -->
<g id="edge4_Node000004_Node000005" class="edge">
<title>Node4&#45;&gt;Node5</title>
<g id="a_edge4_Node000004_Node000005"><a xlink:title=" ">
<path fill="none" stroke="#63b8ff" d="M802.67,-486.44C813.19,-486.44 824.16,-486.44 834.77,-486.44"/>
<polygon fill="#63b8ff" stroke="#63b8ff" points="834.66,-489.94 844.66,-486.44 834.66,-482.94 834.66,-489.94"/>
</a>
</g>
</g>
<!-- Node6 -->
<g id="Node000006" class="node">
<title>Node6</title>
<g id="a_Node000006"><a xlink:href="../../d2/df1/class_clipper_lib_1_1_poly_node.html#a19128db6fb2aca66555231edaffa7ade" target="_top" xlink:title=" ">
<polygon fill="white" stroke="#666666" points="1117.25,-493.69 1009,-493.69 1009,-463.19 1117.25,-463.19 1117.25,-493.69"/>
<text text-anchor="start" x="1017" y="-480.19" font-family="Helvetica,sans-Serif" font-size="10.00">ClipperLib::PolyNode</text>
<text text-anchor="middle" x="1063.12" y="-468.94" font-family="Helvetica,sans-Serif" font-size="10.00">::ChildCount</text>
</a>
</g>
</g>
<!-- Node4&#45;&gt;Node6 -->
<g id="edge5_Node000004_Node000006" class="edge">
<title>Node4&#45;&gt;Node6</title>
<g id="a_edge5_Node000004_Node000006"><a xlink:title=" ">
<path fill="none" stroke="#63b8ff" d="M795.36,-502.18C809.28,-505.6 824.35,-508.71 838.5,-510.44 892.87,-517.09 907.62,-518.86 961.75,-510.44 978.65,-507.81 996.6,-502.83 1012.57,-497.57"/>
<polygon fill="#63b8ff" stroke="#63b8ff" points="1013.42,-500.64 1021.75,-494.1 1011.16,-494.02 1013.42,-500.64"/>
</a>
</g>
</g>
<!-- Node7 -->
<g id="Node000007" class="node">
<title>Node7</title>
<g id="a_Node000007"><a xlink:href="../../de/d37/namespace_clipper_lib.html#aa19efa11130fc74091ca1f62e48c0fad" target="_top" xlink:title=" ">
<polygon fill="white" stroke="#666666" points="1433.5,-197.07 1323.75,-197.07 1323.75,-177.82 1433.5,-177.82 1433.5,-197.07"/>
<text text-anchor="middle" x="1378.62" y="-183.57" font-family="Helvetica,sans-Serif" font-size="10.00">ClipperLib::IntPoint2d</text>
</a>
</g>
</g>
<!-- Node4&#45;&gt;Node7 -->
<g id="edge6_Node000004_Node000007" class="edge">
<title>Node4&#45;&gt;Node7</title>
<g id="a_edge6_Node000004_Node000007"><a xlink:title=" ">
<path fill="none" stroke="#63b8ff" d="M770.96,-502.01C789.66,-511.12 814.82,-521.73 838.5,-526.44 965.35,-551.66 1016.41,-566.96 1128.5,-502.44 1255.4,-429.4 1341.74,-264.22 1368.68,-207.22"/>
<polygon fill="#63b8ff" stroke="#63b8ff" points="1372.23,-208.87 1373.27,-198.32 1365.88,-205.92 1372.23,-208.87"/>
</a>
</g>
</g>
<!-- Node7&#45;&gt;Node7 -->
<g id="edge7_Node000007_Node000007" class="edge">
<title>Node7&#45;&gt;Node7</title>
<g id="a_edge7_Node000007_Node000007"><a xlink:title=" ">
<path fill="none" stroke="#63b8ff" d="M1354.75,-197.35C1343.86,-205.96 1351.82,-215.07 1378.62,-215.07 1394.54,-215.07 1403.81,-211.86 1406.44,-207.45"/>
<polygon fill="#63b8ff" stroke="#63b8ff" points="1409.4,-206.4 1402.5,-198.35 1402.88,-208.94 1409.4,-206.4"/>
</a>
</g>
</g>
<!-- Node9&#45;&gt;Node6 -->
<g id="edge10_Node000009_Node000006" class="edge">
<title>Node9&#45;&gt;Node6</title>
<g id="a_edge10_Node000009_Node000006"><a xlink:title=" ">
<path fill="none" stroke="#63b8ff" d="M802.66,-560.46C847.41,-554.28 909.33,-543.54 961.75,-526.44 983.39,-519.39 1006.37,-508.66 1024.88,-499.13"/>
<polygon fill="#63b8ff" stroke="#63b8ff" points="1026.16,-501.89 1033.39,-494.14 1022.91,-495.69 1026.16,-501.89"/>
</a>
</g>
</g>
<!-- Node10&#45;&gt;Node7 -->
<g id="edge36_Node000010_Node000007" class="edge">
<title>Node10&#45;&gt;Node7</title>
<g id="a_edge36_Node000010_Node000007"><a xlink:title=" ">
<path fill="none" stroke="#63b8ff" d="M790.16,-331.7C794.55,-329.29 798.75,-326.55 802.5,-323.44 825.57,-304.32 812.82,-281.88 838.5,-266.44 924.3,-214.84 1191.25,-259.13 1287.75,-232.44 1311.16,-225.96 1335.69,-213.22 1353.2,-202.95"/>
<polygon fill="#63b8ff" stroke="#63b8ff" points="1354.39,-205.71 1361.15,-197.55 1350.78,-199.72 1354.39,-205.71"/>
</a>
</g>
</g>
<!-- Node11 -->
<g id="Node000011" class="node">
<title>Node11</title>
<g id="a_Node000011"><a xlink:href="../../d4/d88/class_clipper_lib_1_1_clipper_base.html#a7545ac6e146894dc8416887eadd01dba" target="_top" xlink:title=" ">
<polygon fill="white" stroke="#666666" points="959.5,-219.69 840.75,-219.69 840.75,-189.19 959.5,-189.19 959.5,-219.69"/>
<text text-anchor="start" x="848.75" y="-206.19" font-family="Helvetica,sans-Serif" font-size="10.00">ClipperLib::ClipperBase</text>
<text text-anchor="middle" x="900.12" y="-194.94" font-family="Helvetica,sans-Serif" font-size="10.00">::AddPath</text>
</a>
</g>
</g>
<!-- Node10&#45;&gt;Node11 -->
<g id="edge12_Node000010_Node000011" class="edge">
<title>Node10&#45;&gt;Node11</title>
<g id="a_edge12_Node000010_Node000011"><a xlink:title=" ">
<path fill="none" stroke="#63b8ff" d="M791.67,-331.84C795.61,-329.42 799.29,-326.64 802.5,-323.44 833.02,-293.03 809.05,-264.89 838.5,-233.44 841.05,-230.72 843.91,-228.22 846.96,-225.94"/>
<polygon fill="#63b8ff" stroke="#63b8ff" points="848.5,-228.46 854.96,-220.07 844.68,-222.6 848.5,-228.46"/>
</a>
</g>
</g>
<!-- Node12 -->
<g id="Node000012" class="node">
<title>Node12</title>
<g id="a_Node000012"><a xlink:href="../../d4/d88/class_clipper_lib_1_1_clipper_base.html#a0080250604c20179e96e2e7e13094de5" target="_top" xlink:title=" ">
<polygon fill="white" stroke="#666666" points="959.5,-170.69 840.75,-170.69 840.75,-140.19 959.5,-140.19 959.5,-170.69"/>
<text text-anchor="start" x="848.75" y="-157.19" font-family="Helvetica,sans-Serif" font-size="10.00">ClipperLib::ClipperBase</text>
<text text-anchor="middle" x="900.12" y="-145.94" font-family="Helvetica,sans-Serif" font-size="10.00">::AddPaths</text>
</a>
</g>
</g>
<!-- Node10&#45;&gt;Node12 -->
<g id="edge13_Node000010_Node000012" class="edge">
<title>Node10&#45;&gt;Node12</title>
<g id="a_edge13_Node000010_Node000012"><a xlink:title=" ">
<path fill="none" stroke="#63b8ff" d="M793,-331.71C796.51,-329.33 799.74,-326.59 802.5,-323.44 845.73,-274.18 795.62,-230.01 838.5,-180.44 839.28,-179.54 840.1,-178.67 840.96,-177.82"/>
<polygon fill="#63b8ff" stroke="#63b8ff" points="842.79,-180.04 848.42,-171.06 838.42,-174.57 842.79,-180.04"/>
</a>
</g>
</g>
<!-- Node13 -->
<g id="Node000013" class="node">
<title>Node13</title>
<g id="a_Node000013"><a xlink:href="../../d5/d7d/class_clipper_lib_1_1_clipper_offset.html#a6e53d56693000d64e191104d7e816070" target="_top" xlink:title=" ">
<polygon fill="white" stroke="#666666" points="961.75,-121.69 838.5,-121.69 838.5,-91.19 961.75,-91.19 961.75,-121.69"/>
<text text-anchor="start" x="846.5" y="-108.19" font-family="Helvetica,sans-Serif" font-size="10.00">ClipperLib::ClipperOffset</text>
<text text-anchor="middle" x="900.12" y="-96.94" font-family="Helvetica,sans-Serif" font-size="10.00">::DoOffset</text>
</a>
</g>
</g>
<!-- Node10&#45;&gt;Node13 -->
<g id="edge14_Node000010_Node000013" class="edge">
<title>Node10&#45;&gt;Node13</title>
<g id="a_edge14_Node000010_Node000013"><a xlink:title=" ">
<path fill="none" stroke="#63b8ff" d="M793.5,-331.7C796.84,-329.32 799.91,-326.59 802.5,-323.44 857.74,-256.46 783.74,-198.81 838.5,-131.44 839.14,-130.65 839.82,-129.88 840.52,-129.14"/>
<polygon fill="#63b8ff" stroke="#63b8ff" points="842.52,-131.19 847.9,-122.06 838,-125.84 842.52,-131.19"/>
</a>
</g>
</g>
<!-- Node20 -->
<g id="Node000020" class="node">
<title>Node20</title>
<g id="a_Node000020"><a xlink:href="../../d0/d2d/class_clipper_lib_1_1_clipper.html#a2e4a15e6f79a5f583b42c9701b839e01" target="_top" xlink:title=" ">
<polygon fill="white" stroke="#666666" points="948.25,-452.69 852,-452.69 852,-422.19 948.25,-422.19 948.25,-452.69"/>
<text text-anchor="start" x="860" y="-439.19" font-family="Helvetica,sans-Serif" font-size="10.00">ClipperLib::Clipper</text>
<text text-anchor="middle" x="900.12" y="-427.94" font-family="Helvetica,sans-Serif" font-size="10.00">::Execute</text>
</a>
</g>
</g>
<!-- Node10&#45;&gt;Node20 -->
<g id="edge31_Node000010_Node000020" class="edge">
<title>Node10&#45;&gt;Node20</title>
<g id="a_edge31_Node000010_Node000020"><a xlink:title=" ">
<path fill="none" stroke="#63b8ff" d="M762.6,-363.17C781.66,-377.21 811.05,-397.74 838.5,-412.44 841.56,-414.08 844.75,-415.68 848,-417.24"/>
<polygon fill="#63b8ff" stroke="#63b8ff" points="846.29,-420.76 856.84,-421.73 849.2,-414.39 846.29,-420.76"/>
</a>
</g>
</g>
<!-- Node21 -->
<g id="Node000021" class="node">
<title>Node21</title>
<g id="a_Node000021"><a xlink:href="../../d5/d7d/class_clipper_lib_1_1_clipper_offset.html#ad29a638d6fdae7e57f6c54ce837d513a" target="_top" xlink:title=" ">
<polygon fill="white" stroke="#666666" points="961.75,-403.69 838.5,-403.69 838.5,-373.19 961.75,-373.19 961.75,-403.69"/>
<text text-anchor="start" x="846.5" y="-390.19" font-family="Helvetica,sans-Serif" font-size="10.00">ClipperLib::ClipperOffset</text>
<text text-anchor="middle" x="900.12" y="-378.94" font-family="Helvetica,sans-Serif" font-size="10.00">::FixOrientations</text>
</a>
</g>
</g>
<!-- Node10&#45;&gt;Node21 -->
<g id="edge32_Node000010_Node000021" class="edge">
<title>Node10&#45;&gt;Node21</title>
<g id="a_edge32_Node000010_Node000021"><a xlink:title=" ">
<path fill="none" stroke="#63b8ff" d="M802.22,-363.18C810.78,-365.41 819.65,-367.72 828.38,-370"/>
<polygon fill="#63b8ff" stroke="#63b8ff" points="827.38,-373.61 837.94,-372.75 829.15,-366.84 827.38,-373.61"/>
</a>
</g>
</g>
<!-- Node23 -->
<g id="Node000023" class="node">
<title>Node23</title>
<g id="a_Node000023"><a xlink:href="../../d4/d88/class_clipper_lib_1_1_clipper_base.html#a5590a5454248ac3f6beeba7f9690f62e" target="_top" xlink:title=" ">
<polygon fill="white" stroke="#666666" points="959.5,-354.69 840.75,-354.69 840.75,-324.19 959.5,-324.19 959.5,-354.69"/>
<text text-anchor="start" x="848.75" y="-341.19" font-family="Helvetica,sans-Serif" font-size="10.00">ClipperLib::ClipperBase</text>
<text text-anchor="middle" x="900.12" y="-329.94" font-family="Helvetica,sans-Serif" font-size="10.00">::GetBounds</text>
</a>
</g>
</g>
<!-- Node10&#45;&gt;Node23 -->
<g id="edge35_Node000010_Node000023" class="edge">
<title>Node10&#45;&gt;Node23</title>
<g id="a_edge35_Node000010_Node000023"><a xlink:title=" ">
<path fill="none" stroke="#63b8ff" d="M802.67,-344.35C811.46,-343.9 820.56,-343.44 829.5,-342.98"/>
<polygon fill="#63b8ff" stroke="#63b8ff" points="829.49,-346.44 839.3,-342.43 829.13,-339.45 829.49,-346.44"/>
</a>
</g>
</g>
<!-- Node24 -->
<g id="Node000024" class="node">
<title>Node24</title>
<g id="a_Node000024"><a xlink:href="../../d0/d2d/class_clipper_lib_1_1_clipper.html#a2e5dd9e3d41a70673aaa61300c2037bc" target="_top" xlink:title=" ">
<polygon fill="white" stroke="#666666" points="948.25,-305.69 852,-305.69 852,-275.19 948.25,-275.19 948.25,-305.69"/>
<text text-anchor="start" x="860" y="-292.19" font-family="Helvetica,sans-Serif" font-size="10.00">ClipperLib::Clipper</text>
<text text-anchor="middle" x="900.12" y="-280.94" font-family="Helvetica,sans-Serif" font-size="10.00">::ReverseSolution</text>
</a>
</g>
</g>
<!-- Node10&#45;&gt;Node24 -->
<g id="edge37_Node000010_Node000024" class="edge">
<title>Node10&#45;&gt;Node24</title>
<g id="a_edge37_Node000010_Node000024"><a xlink:title=" ">
<path fill="none" stroke="#63b8ff" d="M785.26,-331.71C803.91,-324.96 825.89,-316.99 845.54,-309.86"/>
<polygon fill="#63b8ff" stroke="#63b8ff" points="846.67,-312.81 854.88,-306.12 844.29,-306.23 846.67,-312.81"/>
</a>
</g>
</g>
<!-- Node13&#45;&gt;Node6 -->
<g id="edge15_Node000013_Node000006" class="edge">
<title>Node13&#45;&gt;Node6</title>
<g id="a_edge15_Node000013_Node000006"><a xlink:title=" ">
<path fill="none" stroke="#63b8ff" d="M951.85,-122.09C955.59,-124.73 958.98,-127.83 961.75,-131.44 1037.08,-229.57 945.83,-295.16 997.75,-407.44 1006.25,-425.83 1021.22,-442.78 1034.59,-455.51"/>
<polygon fill="#63b8ff" stroke="#63b8ff" points="1031.89,-457.7 1041.63,-461.86 1036.62,-452.53 1031.89,-457.7"/>
</a>
</g>
</g>
<!-- Node13&#45;&gt;Node7 -->
<g id="edge24_Node000013_Node000007" class="edge">
<title>Node13&#45;&gt;Node7</title>
<g id="a_edge24_Node000013_Node000007"><a xlink:title=" ">
<path fill="none" stroke="#63b8ff" d="M947.53,-122.03C952.6,-124.75 957.47,-127.87 961.75,-131.44 984.47,-150.4 971.91,-173.03 997.75,-187.44 1105.9,-247.76 1259.76,-219.59 1334.1,-200.3"/>
<polygon fill="#63b8ff" stroke="#63b8ff" points="1334.72,-203.49 1343.47,-197.52 1332.91,-196.72 1334.72,-203.49"/>
</a>
</g>
</g>
<!-- Node14 -->
<g id="Node000014" class="node">
<title>Node14</title>
<g id="a_Node000014"><a xlink:href="../../d5/d7d/class_clipper_lib_1_1_clipper_offset.html#a9dc53ee4a7e2685dc0465c46c677710e" target="_top" xlink:title=" ">
<polygon fill="white" stroke="#666666" points="1287.75,-57.69 1164.5,-57.69 1164.5,-27.19 1287.75,-27.19 1287.75,-57.69"/>
<text text-anchor="start" x="1172.5" y="-44.19" font-family="Helvetica,sans-Serif" font-size="10.00">ClipperLib::ClipperOffset</text>
<text text-anchor="middle" x="1226.12" y="-32.94" font-family="Helvetica,sans-Serif" font-size="10.00">::DoRound</text>
</a>
</g>
</g>
<!-- Node13&#45;&gt;Node14 -->
<g id="edge16_Node000013_Node000014" class="edge">
<title>Node13&#45;&gt;Node14</title>
<g id="a_edge16_Node000013_Node000014"><a xlink:title=" ">
<path fill="none" stroke="#63b8ff" d="M929.4,-90.9C948.21,-81.32 973.77,-69.7 997.75,-63.44 1048.78,-50.12 1108.17,-44.97 1153.46,-43.1"/>
<polygon fill="#63b8ff" stroke="#63b8ff" points="1153.49,-46.56 1163.36,-42.7 1153.24,-39.57 1153.49,-46.56"/>
</a>
</g>
</g>
<!-- Node15 -->
<g id="Node000015" class="node">
<title>Node15</title>
<g id="a_Node000015"><a xlink:href="../../de/d37/namespace_clipper_lib.html#a6635b2c24fa0147ff4ecab56d80e7293" target="_top" xlink:title=" ">
<polygon fill="white" stroke="#666666" points="1425.62,-74.07 1331.62,-74.07 1331.62,-54.82 1425.62,-54.82 1425.62,-74.07"/>
<text text-anchor="middle" x="1378.62" y="-60.57" font-family="Helvetica,sans-Serif" font-size="10.00">ClipperLib::Round</text>
</a>
</g>
</g>
<!-- Node13&#45;&gt;Node15 -->
<g id="edge30_Node000013_Node000015" class="edge">
<title>Node13&#45;&gt;Node15</title>
<g id="a_edge30_Node000013_Node000015"><a xlink:title=" ">
<path fill="none" stroke="#63b8ff" d="M918.95,-90.74C937.34,-75.48 967.53,-52.98 997.75,-41.44 1118.54,4.66 1162.06,11.86 1287.75,-18.44 1311.9,-24.26 1336.87,-37.74 1354.33,-48.61"/>
<polygon fill="#63b8ff" stroke="#63b8ff" points="1351.91,-51.86 1362.21,-54.32 1355.69,-45.97 1351.91,-51.86"/>
</a>
</g>
</g>
<!-- Node16 -->
<g id="Node000016" class="node">
<title>Node16</title>
<g id="a_Node000016"><a xlink:href="../../d5/d7d/class_clipper_lib_1_1_clipper_offset.html#a28b69bde14309efb014518029517918e" target="_top" xlink:title=" ">
<polygon fill="white" stroke="#666666" points="1287.75,-181.69 1164.5,-181.69 1164.5,-151.19 1287.75,-151.19 1287.75,-181.69"/>
<text text-anchor="start" x="1172.5" y="-168.19" font-family="Helvetica,sans-Serif" font-size="10.00">ClipperLib::ClipperOffset</text>
<text text-anchor="middle" x="1226.12" y="-156.94" font-family="Helvetica,sans-Serif" font-size="10.00">::DoSquare</text>
</a>
</g>
</g>
<!-- Node13&#45;&gt;Node16 -->
<g id="edge20_Node000013_Node000016" class="edge">
<title>Node13&#45;&gt;Node16</title>
<g id="a_edge20_Node000013_Node000016"><a xlink:title=" ">
<path fill="none" stroke="#63b8ff" d="M962.07,-117.73C1016.4,-127.79 1095.98,-142.53 1153.37,-153.15"/>
<polygon fill="#63b8ff" stroke="#63b8ff" points="1152.71,-156.78 1163.18,-155.16 1153.99,-149.89 1152.71,-156.78"/>
</a>
</g>
</g>
<!-- Node17 -->
<g id="Node000017" class="node">
<title>Node17</title>
<g id="a_Node000017"><a xlink:href="../../de/d37/namespace_clipper_lib.html#a5a62f42148b8b9991da9cfe8cb9cb065" target="_top" xlink:title=" ">
<polygon fill="white" stroke="#666666" points="1128.5,-178.07 997.75,-178.07 997.75,-158.82 1128.5,-158.82 1128.5,-178.07"/>
<text text-anchor="middle" x="1063.12" y="-164.57" font-family="Helvetica,sans-Serif" font-size="10.00">ClipperLib::GetUnitNormal</text>
</a>
</g>
</g>
<!-- Node13&#45;&gt;Node17 -->
<g id="edge23_Node000013_Node000017" class="edge">
<title>Node13&#45;&gt;Node17</title>
<g id="a_edge23_Node000013_Node000017"><a xlink:title=" ">
<path fill="none" stroke="#63b8ff" d="M940.55,-122.13C958.05,-129.04 978.9,-137.22 997.75,-144.44 1006.48,-147.78 1015.89,-151.33 1024.75,-154.64"/>
<polygon fill="#63b8ff" stroke="#63b8ff" points="1023.24,-158.18 1033.83,-158.39 1025.68,-151.62 1023.24,-158.18"/>
</a>
</g>
</g>
<!-- Node18 -->
<g id="Node000018" class="node">
<title>Node18</title>
<g id="a_Node000018"><a xlink:href="../../d5/d7d/class_clipper_lib_1_1_clipper_offset.html#ac0f326aa4b19af7c833e243853c30778" target="_top" xlink:title=" ">
<polygon fill="#fff0f0" stroke="red" points="1124.75,-102.69 1001.5,-102.69 1001.5,-72.19 1124.75,-72.19 1124.75,-102.69"/>
<text text-anchor="start" x="1009.5" y="-89.19" font-family="Helvetica,sans-Serif" font-size="10.00">ClipperLib::ClipperOffset</text>
<text text-anchor="middle" x="1063.12" y="-77.94" font-family="Helvetica,sans-Serif" font-size="10.00">::OffsetPoint</text>
</a>
</g>
</g>
<!-- Node13&#45;&gt;Node18 -->
<g id="edge25_Node000013_Node000018" class="edge">
<title>Node13&#45;&gt;Node18</title>
<g id="a_edge25_Node000013_Node000018"><a xlink:title=" ">
<path fill="none" stroke="#63b8ff" d="M961.99,-99.26C971.31,-98.16 981,-97.01 990.52,-95.89"/>
<polygon fill="#63b8ff" stroke="#63b8ff" points="990.65,-99.28 1000.17,-94.63 989.83,-92.33 990.65,-99.28"/>
</a>
</g>
</g>
<!-- Node14&#45;&gt;Node7 -->
<g id="edge17_Node000014_Node000007" class="edge">
<title>Node14&#45;&gt;Node7</title>
<g id="a_edge17_Node000014_Node000007"><a xlink:title=" ">
<path fill="none" stroke="#63b8ff" d="M1243.23,-57.96C1271.53,-85.22 1329.97,-141.53 1359.58,-170.06"/>
<polygon fill="#63b8ff" stroke="#63b8ff" points="1356.82,-172.22 1366.45,-176.64 1361.68,-167.18 1356.82,-172.22"/>
</a>
</g>
</g>
<!-- Node14&#45;&gt;Node15 -->
<g id="edge18_Node000014_Node000015" class="edge">
<title>Node14&#45;&gt;Node15</title>
<g id="a_edge18_Node000014_Node000015"><a xlink:title=" ">
<path fill="none" stroke="#63b8ff" d="M1287.91,-51.33C1298.8,-52.92 1310.11,-54.57 1320.88,-56.15"/>
<polygon fill="#63b8ff" stroke="#63b8ff" points="1320.03,-59.71 1330.44,-57.69 1321.05,-52.78 1320.03,-59.71"/>
</a>
</g>
</g>
<!-- Node15&#45;&gt;Node15 -->
<g id="edge19_Node000015_Node000015" class="edge">
<title>Node15&#45;&gt;Node15</title>
<g id="a_edge19_Node000015_Node000015"><a xlink:title=" ">
<path fill="none" stroke="#63b8ff" d="M1354.75,-74.35C1343.86,-82.96 1351.82,-92.07 1378.62,-92.07 1394.54,-92.07 1403.81,-88.86 1406.44,-84.45"/>
<polygon fill="#63b8ff" stroke="#63b8ff" points="1409.4,-83.4 1402.5,-75.35 1402.88,-85.94 1409.4,-83.4"/>
</a>
</g>
</g>
<!-- Node16&#45;&gt;Node7 -->
<g id="edge21_Node000016_Node000007" class="edge">
<title>Node16&#45;&gt;Node7</title>
<g id="a_edge21_Node000016_Node000007"><a xlink:title=" ">
<path fill="none" stroke="#63b8ff" d="M1287.91,-174.92C1296.07,-176.06 1304.48,-177.23 1312.71,-178.38"/>
<polygon fill="#63b8ff" stroke="#63b8ff" points="1312.02,-181.96 1322.41,-179.88 1312.99,-175.03 1312.02,-181.96"/>
</a>
</g>
</g>
<!-- Node16&#45;&gt;Node15 -->
<g id="edge22_Node000016_Node000015" class="edge">
<title>Node16&#45;&gt;Node15</title>
<g id="a_edge22_Node000016_Node000015"><a xlink:title=" ">
<path fill="none" stroke="#63b8ff" d="M1250.31,-150.73C1278.46,-131.65 1325.68,-99.65 1354.02,-80.44"/>
<polygon fill="#63b8ff" stroke="#63b8ff" points="1355.54,-82.96 1361.85,-74.46 1351.61,-77.17 1355.54,-82.96"/>
</a>
</g>
</g>
<!-- Node18&#45;&gt;Node7 -->
<g id="edge28_Node000018_Node000007" class="edge">
<title>Node18&#45;&gt;Node7</title>
<g id="a_edge28_Node000018_Node000007"><a xlink:title=" ">
<path fill="none" stroke="#63b8ff" d="M1125.01,-98.59C1170.61,-107.85 1234.1,-122.69 1287.75,-142.44 1309.79,-150.55 1333.5,-162.57 1351.03,-172.15"/>
<polygon fill="#63b8ff" stroke="#63b8ff" points="1349.13,-175.66 1359.57,-177.46 1352.53,-169.54 1349.13,-175.66"/>
</a>
</g>
</g>
<!-- Node18&#45;&gt;Node14 -->
<g id="edge26_Node000018_Node000014" class="edge">
<title>Node18&#45;&gt;Node14</title>
<g id="a_edge26_Node000018_Node000014"><a xlink:title=" ">
<path fill="none" stroke="#63b8ff" d="M1120.43,-71.7C1132.69,-68.28 1145.77,-64.62 1158.39,-61.09"/>
<polygon fill="#63b8ff" stroke="#63b8ff" points="1159.16,-64.23 1167.85,-58.17 1157.27,-57.49 1159.16,-64.23"/>
</a>
</g>
</g>
<!-- Node18&#45;&gt;Node15 -->
<g id="edge29_Node000018_Node000015" class="edge">
<title>Node18&#45;&gt;Node15</title>
<g id="a_edge29_Node000018_Node000015"><a xlink:title=" ">
<path fill="none" stroke="#63b8ff" d="M1124.94,-82.98C1181.53,-78.83 1265.23,-72.69 1320.57,-68.63"/>
<polygon fill="#63b8ff" stroke="#63b8ff" points="1320.53,-72.07 1330.25,-67.84 1320.02,-65.08 1320.53,-72.07"/>
</a>
</g>
</g>
<!-- Node18&#45;&gt;Node16 -->
<g id="edge27_Node000018_Node000016" class="edge">
<title>Node18&#45;&gt;Node16</title>
<g id="a_edge27_Node000018_Node000016"><a xlink:title=" ">
<path fill="none" stroke="#63b8ff" d="M1100.53,-103.04C1109.75,-107.21 1119.56,-111.84 1128.5,-116.44 1144.97,-124.92 1148.13,-128.77 1164.5,-137.44 1169.98,-140.35 1175.8,-143.29 1181.58,-146.14"/>
<polygon fill="#63b8ff" stroke="#63b8ff" points="1179.69,-149.6 1190.21,-150.82 1182.74,-143.3 1179.69,-149.6"/>
</a>
</g>
</g>
<!-- Node21&#45;&gt;Node6 -->
<g id="edge33_Node000021_Node000006" class="edge">
<title>Node21&#45;&gt;Node6</title>
<g id="a_edge33_Node000021_Node000006"><a xlink:title=" ">
<path fill="none" stroke="#63b8ff" d="M942.03,-404.11C948.72,-407.01 955.5,-410.16 961.75,-413.44 986.08,-426.2 1012.08,-443.14 1031.52,-456.53"/>
<polygon fill="#63b8ff" stroke="#63b8ff" points="1029.3,-459.94 1039.5,-462.78 1033.3,-454.19 1029.3,-459.94"/>
</a>
</g>
</g>
<!-- Node22 -->
<g id="Node000022" class="node">
<title>Node22</title>
<g id="a_Node000022"><a xlink:href="../../de/d37/namespace_clipper_lib.html#ab6376320953c60093dc73462c74589e1" target="_top" xlink:title=" ">
<polygon fill="white" stroke="#666666" points="1124.38,-398.07 1001.88,-398.07 1001.88,-378.82 1124.38,-378.82 1124.38,-398.07"/>
<text text-anchor="middle" x="1063.12" y="-384.57" font-family="Helvetica,sans-Serif" font-size="10.00">ClipperLib::ReversePath</text>
</a>
</g>
</g>
<!-- Node21&#45;&gt;Node22 -->
<g id="edge34_Node000021_Node000022" class="edge">
<title>Node21&#45;&gt;Node22</title>
<g id="a_edge34_Node000021_Node000022"><a xlink:title=" ">
<path fill="none" stroke="#63b8ff" d="M961.99,-388.44C971.37,-388.44 981.13,-388.44 990.72,-388.44"/>
<polygon fill="#63b8ff" stroke="#63b8ff" points="990.44,-391.94 1000.44,-388.44 990.44,-384.94 990.44,-391.94"/>
</a>
</g>
</g>
<!-- Node26 -->
<g id="Node000026" class="node">
<title>Node26</title>
<g id="a_Node000026"><a xlink:href="../../de/d37/namespace_clipper_lib.html#a4a96cc48117e1dba6cf51bbc2d91fe97" target="_top" xlink:title=" ">
<polygon fill="white" stroke="#666666" points="943,-653.07 857.25,-653.07 857.25,-633.82 943,-633.82 943,-653.07"/>
<text text-anchor="middle" x="900.12" y="-639.57" font-family="Helvetica,sans-Serif" font-size="10.00">ClipperLib::Area</text>
</a>
</g>
</g>
<!-- Node25&#45;&gt;Node26 -->
<g id="edge40_Node000025_Node000026" class="edge">
<title>Node25&#45;&gt;Node26</title>
<g id="a_edge40_Node000025_Node000026"><a xlink:title=" ">
<path fill="none" stroke="#63b8ff" d="M797.32,-632.43C813.26,-634.16 830.61,-636.03 846.39,-637.74"/>
<polygon fill="#63b8ff" stroke="#63b8ff" points="845.71,-641.3 856.03,-638.89 846.47,-634.34 845.71,-641.3"/>
</a>
</g>
</g>
<!-- Node26&#45;&gt;Node26 -->
<g id="edge41_Node000026_Node000026" class="edge">
<title>Node26&#45;&gt;Node26</title>
<g id="a_edge41_Node000026_Node000026"><a xlink:title=" ">
<path fill="none" stroke="#63b8ff" d="M875.19,-653.35C863.82,-661.96 872.13,-671.07 900.12,-671.07 916.75,-671.07 926.43,-667.86 929.17,-663.45"/>
<polygon fill="#63b8ff" stroke="#63b8ff" points="932.07,-662.29 925.06,-654.35 925.59,-664.94 932.07,-662.29"/>
</a>
</g>
</g>
<!-- Node28&#45;&gt;Node27 -->
<g id="edge51_Node000028_Node000027" class="edge">
<title>Node28&#45;&gt;Node27</title>
<g id="a_edge51_Node000028_Node000027"><a xlink:title=" ">
<path fill="none" stroke="#63b8ff" d="M222.12,-415.54C291.37,-415.71 439.21,-416.08 522.16,-416.29"/>
<polygon fill="#63b8ff" stroke="#63b8ff" points="521.92,-419.79 531.92,-416.32 521.93,-412.79 521.92,-419.79"/>
</a>
</g>
</g>
<!-- Node29 -->
<g id="Node000029" class="node">
<title>Node29</title>
<g id="a_Node000029"><a xlink:href="../../de/db8/namespace_slic3r.html#ac641fcda905eaaa213af131e755ad0a5" target="_top" xlink:title=" ">
<polygon fill="white" stroke="#666666" points="354,-379.69 257.75,-379.69 257.75,-349.19 354,-349.19 354,-379.69"/>
<text text-anchor="start" x="265.75" y="-366.19" font-family="Helvetica,sans-Serif" font-size="10.00">Slic3r::expolygons</text>
<text text-anchor="middle" x="305.88" y="-354.94" font-family="Helvetica,sans-Serif" font-size="10.00">_offset</text>
</a>
</g>
</g>
<!-- Node28&#45;&gt;Node29 -->
<g id="edge44_Node000028_Node000029" class="edge">
<title>Node28&#45;&gt;Node29</title>
<g id="a_edge44_Node000028_Node000029"><a xlink:title=" ">
<path fill="none" stroke="#63b8ff" d="M208.18,-405.37C222.4,-399.35 240.96,-391.49 258.01,-384.28"/>
<polygon fill="#63b8ff" stroke="#63b8ff" points="258.99,-387.24 266.83,-380.12 256.26,-380.79 258.99,-387.24"/>
</a>
</g>
</g>
<!-- Node30 -->
<g id="Node000030" class="node">
<title>Node30</title>
<g id="a_Node000030"><a xlink:href="../../de/db8/namespace_slic3r.html#a50d20c49fc1d2278c343edfa0afe17e6" target="_top" xlink:title=" ">
<polygon fill="white" stroke="#666666" points="486.25,-371.69 390,-371.69 390,-341.19 486.25,-341.19 486.25,-371.69"/>
<text text-anchor="start" x="398" y="-358.19" font-family="Helvetica,sans-Serif" font-size="10.00">Slic3r::expolygons</text>
<text text-anchor="middle" x="438.12" y="-346.94" font-family="Helvetica,sans-Serif" font-size="10.00">_offset_raw</text>
</a>
</g>
</g>
<!-- Node29&#45;&gt;Node30 -->
<g id="edge45_Node000029_Node000030" class="edge">
<title>Node29&#45;&gt;Node30</title>
<g id="a_edge45_Node000029_Node000030"><a xlink:title=" ">
<path fill="none" stroke="#63b8ff" d="M354.27,-361.53C362.17,-361.05 370.45,-360.54 378.59,-360.04"/>
<polygon fill="#63b8ff" stroke="#63b8ff" points="378.78,-363.47 388.55,-359.36 378.35,-356.48 378.78,-363.47"/>
</a>
</g>
</g>
<!-- Node31 -->
<g id="Node000031" class="node">
<title>Node31</title>
<g id="a_Node000031"><a xlink:href="../../de/db8/namespace_slic3r.html#a17163db9fa2638045dc6c488c691cb1c" target="_top" xlink:title=" ">
<polygon fill="white" stroke="#666666" points="643.25,-362.69 522.25,-362.69 522.25,-332.19 643.25,-332.19 643.25,-362.69"/>
<text text-anchor="start" x="530.25" y="-349.19" font-family="Helvetica,sans-Serif" font-size="10.00">Slic3r::offset_expolygon</text>
<text text-anchor="middle" x="582.75" y="-337.94" font-family="Helvetica,sans-Serif" font-size="10.00">_inner</text>
</a>
</g>
</g>
<!-- Node30&#45;&gt;Node31 -->
<g id="edge46_Node000030_Node000031" class="edge">
<title>Node30&#45;&gt;Node31</title>
<g id="a_edge46_Node000030_Node000031"><a xlink:title=" ">
<path fill="none" stroke="#63b8ff" d="M486.62,-353.44C494.45,-352.95 502.71,-352.43 510.97,-351.91"/>
<polygon fill="#63b8ff" stroke="#63b8ff" points="511.02,-355.35 520.78,-351.23 510.58,-348.36 511.02,-355.35"/>
</a>
</g>
</g>
<!-- Node31&#45;&gt;Node4 -->
<g id="edge47_Node000031_Node000004" class="edge">
<title>Node31&#45;&gt;Node4</title>
<g id="a_edge47_Node000031_Node000004"><a xlink:title=" ">
<path fill="none" stroke="#63b8ff" d="M602.69,-362.99C614.48,-372.75 629.88,-385.68 643.25,-397.44 668.16,-419.36 695.96,-445.11 715.32,-463.25"/>
<polygon fill="#63b8ff" stroke="#63b8ff" points="712.64,-465.48 722.33,-469.77 717.44,-460.37 712.64,-465.48"/>
</a>
</g>
</g>
<!-- Node31&#45;&gt;Node8 -->
<g id="edge48_Node000031_Node000008" class="edge">
<title>Node31&#45;&gt;Node8</title>
<g id="a_edge48_Node000031_Node000008"><a xlink:title=" ">
<path fill="none" stroke="#63b8ff" d="M640.56,-331.8C657.72,-327.07 676.37,-321.93 692.82,-317.4"/>
<polygon fill="#63b8ff" stroke="#63b8ff" points="693.57,-320.55 702.28,-314.52 691.71,-313.8 693.57,-320.55"/>
</a>
</g>
</g>
<!-- Node31&#45;&gt;Node10 -->
<g id="edge49_Node000031_Node000010" class="edge">
<title>Node31&#45;&gt;Node10</title>
<g id="a_edge49_Node000031_Node000010"><a xlink:title=" ">
<path fill="none" stroke="#63b8ff" d="M643.67,-347.44C651.59,-347.44 659.77,-347.44 667.87,-347.44"/>
<polygon fill="#63b8ff" stroke="#63b8ff" points="667.83,-350.94 677.83,-347.44 667.83,-343.94 667.83,-350.94"/>
</a>
</g>
</g>
<!-- Node32 -->
<g id="Node000032" class="node">
<title>Node32</title>
<g id="a_Node000032"><a xlink:href="../../de/db8/namespace_slic3r.html#afb8c6d188cef5e372d935568fd9bc1ca" target="_top" xlink:title=" ">
<polygon fill="white" stroke="#666666" points="775.88,-277.07 705.88,-277.07 705.88,-257.82 775.88,-257.82 775.88,-277.07"/>
<text text-anchor="middle" x="740.88" y="-263.57" font-family="Helvetica,sans-Serif" font-size="10.00">Slic3r::holes</text>
</a>
</g>
</g>
<!-- Node31&#45;&gt;Node32 -->
<g id="edge50_Node000031_Node000032" class="edge">
<title>Node31&#45;&gt;Node32</title>
<g id="a_edge50_Node000031_Node000032"><a xlink:title=" ">
<path fill="none" stroke="#63b8ff" d="M603.99,-331.83C622.66,-318.04 651.61,-298.19 679.25,-285.44 684.29,-283.11 689.71,-281.01 695.15,-279.12"/>
<polygon fill="#63b8ff" stroke="#63b8ff" points="696.13,-282.16 704.57,-275.76 693.98,-275.5 696.13,-282.16"/>
</a>
</g>
</g>
</g>
</svg>

<g id="navigator" transform="translate(0 0)" fill="#404254">
  <rect fill="#f2f5e9" fill-opacity="0.5" stroke="#606060" stroke-width=".5" x="0" y="0" width="60" height="60"/>
  <use id="zoomplus" xlink:href="#zoomPlus" x="17" y="9" onmousedown="handleZoom(evt,'in')"/>
  <use id="zoomminus" xlink:href="#zoomMin" x="42" y="9" onmousedown="handleZoom(evt,'out')"/>
  <use id="reset" xlink:href="#resetDef" x="30" y="36" onmousedown="handleReset()"/>
   <use id="arrowup" xlink:href="#arrowUp" x="0" y="0" onmousedown="handlePan(0,-1)"/>
  <use id="arrowright" xlink:href="#arrowRight" x="0" y="0" onmousedown="handlePan(1,0)"/>
  <use id="arrowdown" xlink:href="#arrowDown" x="0" y="0" onmousedown="handlePan(0,1)"/>
  <use id="arrowleft" xlink:href="#arrowLeft" x="0" y="0" onmousedown="handlePan(-1,0)"/>
</g>
<svg viewBox="0 0 15 15" width="100%" height="30px" preserveAspectRatio="xMaxYMin meet">
 <g id="arrow_out" transform="scale(0.3 0.3)">
  <a xlink:href="namespace_slic3r_a15066aed5dc53c39e7e108dd17a59d52_cgraph_org.svg" target="_base">
   <rect id="button" ry="5" rx="5" y="6" x="6" height="38" width="38"
        fill="#f2f5e9" fill-opacity="0.5" stroke="#606060" stroke-width="1.0"/>
   <path id="arrow"
     d="M 11.500037,31.436501 C 11.940474,20.09759 22.043105,11.32322 32.158766,21.979434 L 37.068811,17.246167 C 37.068811,17.246167 37.088388,32 37.088388,32 L 22.160133,31.978069 C 22.160133,31.978069 26.997745,27.140456 26.997745,27.140456 C 18.528582,18.264221 13.291696,25.230495 11.500037,31.436501 z"
     style="fill:#404040;"/>
  </a>
 </g>
</svg>

<style type='text/css'>
<![CDATA[
[data-mouse-over-selected='false'] { opacity: 0.7; }
[data-mouse-over-selected='true']  { opacity: 1.0; }
]]>
</style>
<script type="application/ecmascript"><![CDATA[
document.addEventListener('DOMContentLoaded', (event) => {
  highlightEdges();
  highlightAdjacentNodes();
});
]]></script>
</svg>
