<?xml version="1.0" encoding="UTF-8" standalone="no"?>
<!DOCTYPE svg PUBLIC "-//W3C//DTD SVG 1.1//EN"
 "http://www.w3.org/Graphics/SVG/1.1/DTD/svg11.dtd">
<!-- Generated by graphviz version 8.0.5 (20230430.1635)
 -->
<!-- Title: Slic3r::is_volume_sinking Pages: 1 -->
<svg width="287pt" height="45pt"
 viewBox="0.00 0.00 286.75 45.25" xmlns="http://www.w3.org/2000/svg" xmlns:xlink="http://www.w3.org/1999/xlink">
<g id="graph0" class="graph" transform="scale(1 1) rotate(0) translate(4 41.25)">
<title>Slic3r::is_volume_sinking</title>
<!-- Node1 -->
<g id="Node000001" class="node">
<title>Node1</title>
<g id="a_Node000001"><a xlink:title=" ">
<polygon fill="#999999" stroke="#666666" points="127,-19.25 0,-19.25 0,0 127,0 127,-19.25"/>
<text text-anchor="middle" x="63.5" y="-5.75" font-family="Helvetica,sans-Serif" font-size="10.00">Slic3r::is_volume_sinking</text>
</a>
</g>
</g>
<!-- Node1&#45;&gt;Node1 -->
<g id="edge2_Node000001_Node000001" class="edge">
<title>Node1&#45;&gt;Node1</title>
<g id="a_edge2_Node000001_Node000001"><a xlink:title=" ">
<path fill="none" stroke="#63b8ff" d="M38.86,-19.54C27.62,-28.15 35.84,-37.25 63.5,-37.25 79.93,-37.25 89.49,-34.04 92.2,-29.63"/>
<polygon fill="#63b8ff" stroke="#63b8ff" points="95.12,-28.51 88.14,-20.54 88.63,-31.12 95.12,-28.51"/>
</a>
</g>
</g>
<!-- Node2 -->
<g id="Node000002" class="node">
<title>Node2</title>
<g id="a_Node000002"><a xlink:href="../../d5/d00/group___geometry___module.html#a7307f094ad81893e4252667940fe4cf2" target="_top" xlink:title=" ">
<polygon fill="white" stroke="#666666" points="278.75,-19.25 163,-19.25 163,0 278.75,0 278.75,-19.25"/>
<text text-anchor="middle" x="220.88" y="-5.75" font-family="Helvetica,sans-Serif" font-size="10.00">Eigen::Transform::cast</text>
</a>
</g>
</g>
<!-- Node1&#45;&gt;Node2 -->
<g id="edge1_Node000001_Node000002" class="edge">
<title>Node1&#45;&gt;Node2</title>
<g id="a_edge1_Node000001_Node000002"><a xlink:title=" ">
<path fill="none" stroke="#63b8ff" d="M127.25,-9.62C135.45,-9.62 143.88,-9.62 152.15,-9.62"/>
<polygon fill="#63b8ff" stroke="#63b8ff" points="151.91,-13.13 161.91,-9.62 151.91,-6.13 151.91,-13.13"/>
</a>
</g>
</g>
</g>
</svg>
