<?xml version="1.0" encoding="UTF-8" standalone="no"?>
<!DOCTYPE svg PUBLIC "-//W3C//DTD SVG 1.1//EN"
 "http://www.w3.org/Graphics/SVG/1.1/DTD/svg11.dtd">
<!-- Generated by graphviz version 8.0.5 (20230430.1635)
 -->
<!-- Title: Slic3r::get_current_pid Pages: 1 -->
<svg width="651pt" height="229pt"
 viewBox="0.00 0.00 651.00 228.50" xmlns="http://www.w3.org/2000/svg" xmlns:xlink="http://www.w3.org/1999/xlink">
<g id="graph0" class="graph" transform="scale(1 1) rotate(0) translate(4 224.5)">
<title>Slic3r::get_current_pid</title>
<!-- Node1 -->
<g id="Node000001" class="node">
<title>Node1</title>
<g id="a_Node000001"><a xlink:title=" ">
<polygon fill="#999999" stroke="#666666" points="643,-140.88 529.5,-140.88 529.5,-121.62 643,-121.62 643,-140.88"/>
<text text-anchor="middle" x="586.25" y="-127.38" font-family="Helvetica,sans-Serif" font-size="10.00">Slic3r::get_current_pid</text>
</a>
</g>
</g>
<!-- Node2 -->
<g id="Node000002" class="node">
<title>Node2</title>
<g id="a_Node000002"><a xlink:href="../../dc/d03/class_slic3r_1_1_background_slicing_process.html#ab5cf22f0937818931be8185e7c6d447e" target="_top" xlink:title=" ">
<polygon fill="white" stroke="#666666" points="493.5,-220.5 318.5,-220.5 318.5,-190 493.5,-190 493.5,-220.5"/>
<text text-anchor="start" x="326.5" y="-207" font-family="Helvetica,sans-Serif" font-size="10.00">Slic3r::BackgroundSlicing</text>
<text text-anchor="middle" x="406" y="-195.75" font-family="Helvetica,sans-Serif" font-size="10.00">Process::BackgroundSlicingProcess</text>
</a>
</g>
</g>
<!-- Node1&#45;&gt;Node2 -->
<g id="edge1_Node000001_Node000002" class="edge">
<title>Node1&#45;&gt;Node2</title>
<g id="a_edge1_Node000001_Node000002"><a xlink:title=" ">
<path fill="none" stroke="#63b8ff" d="M559.6,-146.82C541.58,-157.29 516.65,-170.84 493.5,-180.25 485.1,-183.66 476.07,-186.81 467.12,-189.64"/>
<polygon fill="#63b8ff" stroke="#63b8ff" points="561.01,-149.46 567.85,-141.37 557.46,-143.43 561.01,-149.46"/>
</a>
</g>
</g>
<!-- Node3 -->
<g id="Node000003" class="node">
<title>Node3</title>
<g id="a_Node000003"><a xlink:href="../../db/d7e/struct_slic3r_1_1_preset_updater_1_1priv.html#a941e7a6e74d0bcf93b9c2bb05dbd09c0" target="_top" xlink:title=" ">
<polygon fill="white" stroke="#666666" points="460.88,-171.5 351.12,-171.5 351.12,-141 460.88,-141 460.88,-171.5"/>
<text text-anchor="start" x="359.12" y="-158" font-family="Helvetica,sans-Serif" font-size="10.00">Slic3r::PresetUpdater</text>
<text text-anchor="middle" x="406" y="-146.75" font-family="Helvetica,sans-Serif" font-size="10.00">::priv::get_file</text>
</a>
</g>
</g>
<!-- Node1&#45;&gt;Node3 -->
<g id="edge2_Node000001_Node000003" class="edge">
<title>Node1&#45;&gt;Node3</title>
<g id="a_edge2_Node000001_Node000003"><a xlink:title=" ">
<path fill="none" stroke="#63b8ff" d="M518.68,-140.59C499.72,-143.25 479.31,-146.11 461.19,-148.65"/>
<polygon fill="#63b8ff" stroke="#63b8ff" points="518.92,-143.95 528.34,-139.09 517.95,-137.01 518.92,-143.95"/>
</a>
</g>
</g>
<!-- Node4 -->
<g id="Node000004" class="node">
<title>Node4</title>
<g id="a_Node000004"><a xlink:href="../../d2/df5/struct_slic3r_1_1_g_u_i_1_1_file_get_1_1priv.html#ae930ccbdf37a1b72405ace8f33132ed7" target="_top" xlink:title=" ">
<polygon fill="white" stroke="#666666" points="457.12,-122.5 354.88,-122.5 354.88,-92 457.12,-92 457.12,-122.5"/>
<text text-anchor="start" x="362.88" y="-109" font-family="Helvetica,sans-Serif" font-size="10.00">Slic3r::GUI::FileGet</text>
<text text-anchor="middle" x="406" y="-97.75" font-family="Helvetica,sans-Serif" font-size="10.00">::priv::get_perform</text>
</a>
</g>
</g>
<!-- Node1&#45;&gt;Node4 -->
<g id="edge3_Node000001_Node000004" class="edge">
<title>Node1&#45;&gt;Node4</title>
<g id="a_edge3_Node000001_Node000004"><a xlink:title=" ">
<path fill="none" stroke="#63b8ff" d="M518.63,-122.28C498.41,-119.56 476.55,-116.61 457.57,-114.06"/>
<polygon fill="#63b8ff" stroke="#63b8ff" points="517.96,-125.86 528.34,-123.72 518.9,-118.92 517.96,-125.86"/>
</a>
</g>
</g>
<!-- Node5 -->
<g id="Node000005" class="node">
<title>Node5</title>
<g id="a_Node000005"><a xlink:href="../../da/d00/class_slic3r_1_1_app_config.html#a3b0599f82bfd2d17a0794eb4e10b8d96" target="_top" xlink:title=" ">
<polygon fill="white" stroke="#666666" points="465.75,-73.88 346.25,-73.88 346.25,-54.62 465.75,-54.62 465.75,-73.88"/>
<text text-anchor="middle" x="406" y="-60.38" font-family="Helvetica,sans-Serif" font-size="10.00">Slic3r::AppConfig::save</text>
</a>
</g>
</g>
<!-- Node1&#45;&gt;Node5 -->
<g id="edge4_Node000001_Node000005" class="edge">
<title>Node1&#45;&gt;Node5</title>
<g id="a_edge4_Node000001_Node000005"><a xlink:title=" ">
<path fill="none" stroke="#63b8ff" d="M559.82,-115.6C541.86,-105.13 516.91,-91.77 493.5,-83.25 483.82,-79.73 473.28,-76.75 463,-74.26"/>
<polygon fill="#63b8ff" stroke="#63b8ff" points="557.89,-119.11 568.28,-121.21 561.47,-113.1 557.89,-119.11"/>
</a>
</g>
</g>
<!-- Node6 -->
<g id="Node000006" class="node">
<title>Node6</title>
<g id="a_Node000006"><a xlink:href="../../d9/d01/class_slic3r_1_1_g_u_i_1_1_g_u_i___app.html#af07660170ea83f0e8eb7a3235b78746d" target="_top" xlink:title=" ">
<polygon fill="white" stroke="#666666" points="282.5,-128.5 171.25,-128.5 171.25,-98 282.5,-98 282.5,-128.5"/>
<text text-anchor="start" x="179.25" y="-115" font-family="Helvetica,sans-Serif" font-size="10.00">Slic3r::GUI::GUI_App</text>
<text text-anchor="middle" x="226.88" y="-103.75" font-family="Helvetica,sans-Serif" font-size="10.00">::on_init_inner</text>
</a>
</g>
</g>
<!-- Node5&#45;&gt;Node6 -->
<g id="edge5_Node000005_Node000006" class="edge">
<title>Node5&#45;&gt;Node6</title>
<g id="a_edge5_Node000005_Node000006"><a xlink:title=" ">
<path fill="none" stroke="#63b8ff" d="M344.39,-76.73C335.66,-78.77 326.83,-80.96 318.5,-83.25 303.32,-87.42 286.92,-92.62 272.31,-97.52"/>
<polygon fill="#63b8ff" stroke="#63b8ff" points="344.95,-79.96 353.93,-74.33 343.4,-73.14 344.95,-79.96"/>
</a>
</g>
</g>
<!-- Node8 -->
<g id="Node000008" class="node">
<title>Node8</title>
<g id="a_Node000008"><a xlink:href="../../d9/d01/class_slic3r_1_1_g_u_i_1_1_g_u_i___app.html#ac4aa825e806db6535e155debb99915c6" target="_top" xlink:title=" ">
<polygon fill="white" stroke="#666666" points="282.5,-79.5 171.25,-79.5 171.25,-49 282.5,-49 282.5,-79.5"/>
<text text-anchor="start" x="179.25" y="-66" font-family="Helvetica,sans-Serif" font-size="10.00">Slic3r::GUI::GUI_App</text>
<text text-anchor="middle" x="226.88" y="-54.75" font-family="Helvetica,sans-Serif" font-size="10.00">::window_pos_restore</text>
</a>
</g>
</g>
<!-- Node5&#45;&gt;Node8 -->
<g id="edge7_Node000005_Node000008" class="edge">
<title>Node5&#45;&gt;Node8</title>
<g id="a_edge7_Node000005_Node000008"><a xlink:title=" ">
<path fill="none" stroke="#63b8ff" d="M335.3,-64.25C317.83,-64.25 299.34,-64.25 282.71,-64.25"/>
<polygon fill="#63b8ff" stroke="#63b8ff" points="335.02,-67.75 345.02,-64.25 335.02,-60.75 335.02,-67.75"/>
</a>
</g>
</g>
<!-- Node10 -->
<g id="Node000010" class="node">
<title>Node10</title>
<g id="a_Node000010"><a xlink:href="../../d9/d01/class_slic3r_1_1_g_u_i_1_1_g_u_i___app.html#aaa79706541aa658d54aaa20b3708ab8d" target="_top" xlink:title=" ">
<polygon fill="white" stroke="#666666" points="282.5,-30.5 171.25,-30.5 171.25,0 282.5,0 282.5,-30.5"/>
<text text-anchor="start" x="179.25" y="-17" font-family="Helvetica,sans-Serif" font-size="10.00">Slic3r::GUI::GUI_App</text>
<text text-anchor="middle" x="226.88" y="-5.75" font-family="Helvetica,sans-Serif" font-size="10.00">::window_pos_save</text>
</a>
</g>
</g>
<!-- Node5&#45;&gt;Node10 -->
<g id="edge9_Node000005_Node000010" class="edge">
<title>Node5&#45;&gt;Node10</title>
<g id="a_edge9_Node000005_Node000010"><a xlink:title=" ">
<path fill="none" stroke="#63b8ff" d="M358.16,-51.29C335.07,-44.9 307.07,-37.16 282.95,-30.49"/>
<polygon fill="#63b8ff" stroke="#63b8ff" points="357.16,-54.92 367.73,-54.22 359.02,-48.18 357.16,-54.92"/>
</a>
</g>
</g>
<!-- Node7 -->
<g id="Node000007" class="node">
<title>Node7</title>
<g id="a_Node000007"><a xlink:href="../../d9/d01/class_slic3r_1_1_g_u_i_1_1_g_u_i___app.html#aa42e643ae5d080c0df171525858f3442" target="_top" xlink:title=" ">
<polygon fill="white" stroke="#666666" points="123.25,-128.5 12,-128.5 12,-98 123.25,-98 123.25,-128.5"/>
<text text-anchor="start" x="20" y="-115" font-family="Helvetica,sans-Serif" font-size="10.00">Slic3r::GUI::GUI_App</text>
<text text-anchor="middle" x="67.62" y="-103.75" font-family="Helvetica,sans-Serif" font-size="10.00">::OnInit</text>
</a>
</g>
</g>
<!-- Node6&#45;&gt;Node7 -->
<g id="edge6_Node000006_Node000007" class="edge">
<title>Node6&#45;&gt;Node7</title>
<g id="a_edge6_Node000006_Node000007"><a xlink:title=" ">
<path fill="none" stroke="#63b8ff" d="M159.92,-113.25C147.83,-113.25 135.32,-113.25 123.59,-113.25"/>
<polygon fill="#63b8ff" stroke="#63b8ff" points="159.88,-116.75 169.88,-113.25 159.88,-109.75 159.88,-116.75"/>
</a>
</g>
</g>
<!-- Node9 -->
<g id="Node000009" class="node">
<title>Node9</title>
<g id="a_Node000009"><a xlink:href="../../d9/d01/class_slic3r_1_1_g_u_i_1_1_g_u_i___app.html#ab9b25110c9dc2b8e3cea615f9706bb3a" target="_top" xlink:title=" ">
<polygon fill="white" stroke="#666666" points="135.25,-55.5 0,-55.5 0,-25 135.25,-25 135.25,-55.5"/>
<text text-anchor="start" x="8" y="-42" font-family="Helvetica,sans-Serif" font-size="10.00">Slic3r::GUI::GUI_App</text>
<text text-anchor="middle" x="67.62" y="-30.75" font-family="Helvetica,sans-Serif" font-size="10.00">::persist_window_geometry</text>
</a>
</g>
</g>
<!-- Node8&#45;&gt;Node9 -->
<g id="edge8_Node000008_Node000009" class="edge">
<title>Node8&#45;&gt;Node9</title>
<g id="a_edge8_Node000008_Node000009"><a xlink:title=" ">
<path fill="none" stroke="#63b8ff" d="M160.26,-54.24C152.08,-52.99 143.7,-51.71 135.49,-50.46"/>
<polygon fill="#63b8ff" stroke="#63b8ff" points="159.46,-57.81 169.88,-55.86 160.52,-50.89 159.46,-57.81"/>
</a>
</g>
</g>
<!-- Node10&#45;&gt;Node9 -->
<g id="edge10_Node000010_Node000009" class="edge">
<title>Node10&#45;&gt;Node9</title>
<g id="a_edge10_Node000010_Node000009"><a xlink:title=" ">
<path fill="none" stroke="#63b8ff" d="M160.26,-25.68C152.08,-26.98 143.7,-28.31 135.49,-29.62"/>
<polygon fill="#63b8ff" stroke="#63b8ff" points="160.55,-29.02 169.88,-23.99 159.45,-22.11 160.55,-29.02"/>
</a>
</g>
</g>
</g>
</svg>
