<?xml version="1.0" encoding="UTF-8" standalone="no"?>
<!DOCTYPE svg PUBLIC "-//W3C//DTD SVG 1.1//EN"
 "http://www.w3.org/Graphics/SVG/1.1/DTD/svg11.dtd">
<!-- Generated by graphviz version 8.0.5 (20230430.1635)
 -->
<!-- Title: Slic3r::is_zero_elevation Pages: 1 -->
<!--zoomable 469 -->

<svg id="main" version="1.1" xmlns="http://www.w3.org/2000/svg" xmlns:xlink="http://www.w3.org/1999/xlink" xml:space="preserve" onload="init(evt)">
<style type="text/css"><![CDATA[
.node, .edge {opacity: 0.7;}
.node.selected, .edge.selected {opacity: 1;}
.edge:hover path { stroke: red; }
.edge:hover polygon { stroke: red; fill: red; }
]]></style>

<defs>
  <circle id="rim" cx="0" cy="0" r="7"/>
  <circle id="rim2" cx="0" cy="0" r="3.5"/>
  <g id="zoomPlus">
    <use xlink:href="#rim" fill="#404040"><set attributeName="fill" to="#808080" begin="zoomplus.mouseover" end="zoomplus.mouseout"/></use>
    <path d="M-4,0h8M0,-4v8" fill="none" stroke="white" stroke-width="1.5" pointer-events="none"/>
  </g>
  <g id="zoomMin">
    <use xlink:href="#rim" fill="#404040"><set attributeName="fill" to="#808080" begin="zoomminus.mouseover" end="zoomminus.mouseout"/></use>
    <path d="M-4,0h8" fill="none" stroke="white" stroke-width="1.5" pointer-events="none"/>
  </g>
  <g id="arrowUp" transform="translate(30 24)">
    <use xlink:href="#rim"/>
    <path pointer-events="none" fill="none" stroke="white" stroke-width="1.5" d="M0,-3.0v7 M-2.5,-0.5L0,-3.0L2.5,-0.5"/>
  </g>
  <g id="arrowRight" transform="rotate(90) translate(36 -43)">
    <use xlink:href="#rim"/>
    <path pointer-events="none" fill="none" stroke="white" stroke-width="1.5" d="M0,-3.0v7 M-2.5,-0.5L0,-3.0L2.5,-0.5"/>
  </g>
  <g id="arrowDown" transform="rotate(180) translate(-30 -48)">
    <use xlink:href="#rim"/>
    <path pointer-events="none" fill="none" stroke="white" stroke-width="1.5" d="M0,-3.0v7 M-2.5,-0.5L0,-3.0L2.5,-0.5"/>
  </g>
  <g id="arrowLeft" transform="rotate(270) translate(-36 17)">
    <use xlink:href="#rim"/>
    <path pointer-events="none" fill="none" stroke="white" stroke-width="1.5" d="M0,-3.0v7 M-2.5,-0.5L0,-3.0L2.5,-0.5"/>
  </g>
  <g id="resetDef">
    <use xlink:href="#rim2" fill="#404040"><set attributeName="fill" to="#808080" begin="reset.mouseover" end="reset.mouseout"/></use>
  </g>
</defs>
<script type="application/ecmascript">
var viewWidth = 958;
var viewHeight = 469;
var sectionId = 'dynsection-839';
</script>
<script type="application/ecmascript" xlink:href="../../svg.min.js"/>
<svg id="graph" class="graph">
<g id="viewport">
<title>Slic3r::is_zero_elevation</title>
<!-- Node1 -->
<g id="Node000001" class="node">
<title>Node1</title>
<g id="a_Node000001"><a xlink:title=" ">
<polygon fill="#999999" stroke="#666666" points="949.5,-129.25 827,-129.25 827,-110 949.5,-110 949.5,-129.25"/>
<text text-anchor="middle" x="888.25" y="-115.75" font-family="Helvetica,sans-Serif" font-size="10.00">Slic3r::is_zero_elevation</text>
</a>
</g>
</g>
<!-- Node2 -->
<g id="Node000002" class="node">
<title>Node2</title>
<g id="a_Node000002"><a xlink:href="../../de/db8/namespace_slic3r.html#a4037aa8365332376a4d07d1a6252eb41" target="_top" xlink:title=" ">
<polygon fill="white" stroke="#666666" points="791,-129.25 679,-129.25 679,-110 791,-110 791,-129.25"/>
<text text-anchor="middle" x="735" y="-115.75" font-family="Helvetica,sans-Serif" font-size="10.00">Slic3r::builtin_pad_cfg</text>
</a>
</g>
</g>
<!-- Node1&#45;&gt;Node2 -->
<g id="edge1_Node000001_Node000002" class="edge">
<title>Node1&#45;&gt;Node2</title>
<g id="a_edge1_Node000001_Node000002"><a xlink:title=" ">
<path fill="none" stroke="#63b8ff" d="M815.83,-119.62C807.58,-119.62 799.27,-119.62 791.28,-119.62"/>
<polygon fill="#63b8ff" stroke="#63b8ff" points="815.6,-123.13 825.6,-119.62 815.6,-116.13 815.6,-123.13"/>
</a>
</g>
</g>
<!-- Node5 -->
<g id="Node000005" class="node">
<title>Node5</title>
<g id="a_Node000005"><a xlink:href="../../d1/daf/class_slic3r_1_1_s_l_a_print_object.html#afa341765aec2e08df2f113f98da32dbd" target="_top" xlink:title=" ">
<polygon fill="white" stroke="#666666" points="474.38,-185.88 360.12,-185.88 360.12,-155.38 474.38,-155.38 474.38,-185.88"/>
<text text-anchor="start" x="368.12" y="-172.38" font-family="Helvetica,sans-Serif" font-size="10.00">Slic3r::SLAPrintObject</text>
<text text-anchor="middle" x="417.25" y="-161.12" font-family="Helvetica,sans-Serif" font-size="10.00">::get_elevation</text>
</a>
</g>
</g>
<!-- Node1&#45;&gt;Node5 -->
<g id="edge21_Node000001_Node000005" class="edge">
<title>Node1&#45;&gt;Node5</title>
<g id="a_edge21_Node000001_Node000005"><a xlink:title=" ">
<path fill="none" stroke="#63b8ff" d="M830.71,-131.86C817.71,-134.37 803.91,-136.8 791,-138.62 679.42,-154.38 547.87,-163.48 474.67,-167.71"/>
<polygon fill="#63b8ff" stroke="#63b8ff" points="831.27,-135.11 840.4,-129.74 829.91,-128.25 831.27,-135.11"/>
</a>
</g>
</g>
<!-- Node6 -->
<g id="Node000006" class="node">
<title>Node6</title>
<g id="a_Node000006"><a xlink:href="../../d1/daf/class_slic3r_1_1_s_l_a_print_object.html#aa7a59a0c85fe5430a81515e89ed1e394" target="_top" xlink:title=" ">
<polygon fill="white" stroke="#666666" points="317.38,-232.88 202.38,-232.88 202.38,-202.38 317.38,-202.38 317.38,-232.88"/>
<text text-anchor="start" x="210.38" y="-219.38" font-family="Helvetica,sans-Serif" font-size="10.00">Slic3r::SLAPrintObject</text>
<text text-anchor="middle" x="259.88" y="-208.12" font-family="Helvetica,sans-Serif" font-size="10.00">::get_current_elevation</text>
</a>
</g>
</g>
<!-- Node1&#45;&gt;Node6 -->
<g id="edge20_Node000001_Node000006" class="edge">
<title>Node1&#45;&gt;Node6</title>
<g id="a_edge20_Node000001_Node000006"><a xlink:title=" ">
<path fill="none" stroke="#63b8ff" d="M857.19,-134.26C838.56,-142.7 813.89,-152.78 791,-158.62 622.32,-201.72 415.49,-213.34 317.51,-216.47"/>
<polygon fill="#63b8ff" stroke="#63b8ff" points="858.54,-137.02 866.14,-129.64 855.59,-130.67 858.54,-137.02"/>
</a>
</g>
</g>
<!-- Node63 -->
<g id="Node000063" class="node">
<title>Node63</title>
<g id="a_Node000063"><a xlink:href="../../d6/da3/class_slic3r_1_1_s_l_a_print_1_1_steps.html#a7f4c385f39bb8d76ae35c75066a67bb8" target="_top" xlink:title=" ">
<polygon fill="white" stroke="#666666" points="475.88,-50.88 358.62,-50.88 358.62,-20.38 475.88,-20.38 475.88,-50.88"/>
<text text-anchor="start" x="366.62" y="-37.38" font-family="Helvetica,sans-Serif" font-size="10.00">Slic3r::SLAPrint::Steps</text>
<text text-anchor="middle" x="417.25" y="-26.12" font-family="Helvetica,sans-Serif" font-size="10.00">::support_tree</text>
</a>
</g>
</g>
<!-- Node1&#45;&gt;Node63 -->
<g id="edge25_Node000001_Node000063" class="edge">
<title>Node1&#45;&gt;Node63</title>
<g id="a_edge25_Node000001_Node000063"><a xlink:title=" ">
<path fill="none" stroke="#63b8ff" d="M855.22,-105.34C836.76,-97.61 812.94,-88.47 791,-82.62 682.13,-53.59 550.45,-42.34 476.33,-38.09"/>
<polygon fill="#63b8ff" stroke="#63b8ff" points="853.57,-108.87 864.14,-109.57 856.32,-102.43 853.57,-108.87"/>
</a>
</g>
</g>
<!-- Node65 -->
<g id="Node000065" class="node">
<title>Node65</title>
<g id="a_Node000065"><a xlink:href="../../de/db8/namespace_slic3r.html#a7561fdf311ceabcb4e376fb44a44b644" target="_top" xlink:title=" ">
<polygon fill="white" stroke="#666666" points="643,-88.25 516,-88.25 516,-69 643,-69 643,-88.25"/>
<text text-anchor="middle" x="579.5" y="-74.75" font-family="Helvetica,sans-Serif" font-size="10.00">Slic3r::make_support_cfg</text>
</a>
</g>
</g>
<!-- Node1&#45;&gt;Node65 -->
<g id="edge22_Node000001_Node000065" class="edge">
<title>Node1&#45;&gt;Node65</title>
<g id="a_edge22_Node000001_Node000065"><a xlink:title=" ">
<path fill="none" stroke="#63b8ff" d="M830.29,-107.49C817.4,-105 803.76,-102.55 791,-100.62 741.59,-93.18 685.27,-87.44 643.32,-83.69"/>
<polygon fill="#63b8ff" stroke="#63b8ff" points="829.4,-111.08 839.89,-109.59 830.76,-104.22 829.4,-111.08"/>
</a>
</g>
</g>
<!-- Node3 -->
<g id="Node000003" class="node">
<title>Node3</title>
<g id="a_Node000003"><a xlink:href="../../de/db8/namespace_slic3r.html#ad9c06755d2a4a29d4f17766d2231ed96" target="_top" xlink:title=" ">
<polygon fill="white" stroke="#666666" points="634.75,-129.25 524.25,-129.25 524.25,-110 634.75,-110 634.75,-129.25"/>
<text text-anchor="middle" x="579.5" y="-115.75" font-family="Helvetica,sans-Serif" font-size="10.00">Slic3r::make_pad_cfg</text>
</a>
</g>
</g>
<!-- Node2&#45;&gt;Node3 -->
<g id="edge2_Node000002_Node000003" class="edge">
<title>Node2&#45;&gt;Node3</title>
<g id="a_edge2_Node000002_Node000003"><a xlink:title=" ">
<path fill="none" stroke="#63b8ff" d="M667.79,-119.62C656.87,-119.62 645.66,-119.62 635.06,-119.62"/>
<polygon fill="#63b8ff" stroke="#63b8ff" points="667.58,-123.13 677.58,-119.62 667.58,-116.13 667.58,-123.13"/>
</a>
</g>
</g>
<!-- Node4 -->
<g id="Node000004" class="node">
<title>Node4</title>
<g id="a_Node000004"><a xlink:href="../../d6/da3/class_slic3r_1_1_s_l_a_print_1_1_steps.html#aa829e18b4b386301abe4182a1ef8914e" target="_top" xlink:title=" ">
<polygon fill="white" stroke="#666666" points="475.88,-136.88 358.62,-136.88 358.62,-106.38 475.88,-106.38 475.88,-136.88"/>
<text text-anchor="start" x="366.62" y="-123.38" font-family="Helvetica,sans-Serif" font-size="10.00">Slic3r::SLAPrint::Steps</text>
<text text-anchor="middle" x="417.25" y="-112.12" font-family="Helvetica,sans-Serif" font-size="10.00">::generate_pad</text>
</a>
</g>
</g>
<!-- Node3&#45;&gt;Node4 -->
<g id="edge3_Node000003_Node000004" class="edge">
<title>Node3&#45;&gt;Node4</title>
<g id="a_edge3_Node000003_Node000004"><a xlink:title=" ">
<path fill="none" stroke="#63b8ff" d="M512.83,-120.44C500.71,-120.6 488.13,-120.75 476.26,-120.9"/>
<polygon fill="#63b8ff" stroke="#63b8ff" points="512.84,-123.93 522.8,-120.31 512.76,-116.93 512.84,-123.93"/>
</a>
</g>
</g>
<!-- Node3&#45;&gt;Node5 -->
<g id="edge4_Node000003_Node000005" class="edge">
<title>Node3&#45;&gt;Node5</title>
<g id="a_edge4_Node000003_Node000005"><a xlink:title=" ">
<path fill="none" stroke="#63b8ff" d="M536.55,-132.97C515.4,-139.71 489.61,-147.91 467.51,-154.95"/>
<polygon fill="#63b8ff" stroke="#63b8ff" points="537.37,-136.07 545.84,-129.7 535.25,-129.4 537.37,-136.07"/>
</a>
</g>
</g>
<!-- Node3&#45;&gt;Node63 -->
<g id="edge18_Node000003_Node000063" class="edge">
<title>Node3&#45;&gt;Node63</title>
<g id="a_edge18_Node000003_Node000063"><a xlink:title=" ">
<path fill="none" stroke="#63b8ff" d="M530.79,-105.54C525.63,-103.23 520.59,-100.6 516,-97.62 496.48,-84.96 499.31,-72.6 480,-59.62 475.42,-56.55 470.38,-53.78 465.23,-51.31"/>
<polygon fill="#63b8ff" stroke="#63b8ff" points="529.21,-109.08 539.79,-109.59 531.83,-102.59 529.21,-109.08"/>
</a>
</g>
</g>
<!-- Node64 -->
<g id="Node000064" class="node">
<title>Node64</title>
<g id="a_Node000064"><a xlink:href="../../dd/dc9/class_slic3r_1_1_s_l_a_print.html#adfded2cc4f81e2adc7b847081f256e33" target="_top" xlink:title=" ">
<polygon fill="white" stroke="#666666" points="480,-88.25 354.5,-88.25 354.5,-69 480,-69 480,-88.25"/>
<text text-anchor="middle" x="417.25" y="-74.75" font-family="Helvetica,sans-Serif" font-size="10.00">Slic3r::SLAPrint::validate</text>
</a>
</g>
</g>
<!-- Node3&#45;&gt;Node64 -->
<g id="edge19_Node000003_Node000064" class="edge">
<title>Node3&#45;&gt;Node64</title>
<g id="a_edge19_Node000003_Node000064"><a xlink:title=" ">
<path fill="none" stroke="#63b8ff" d="M528.75,-106.9C505.85,-101.04 479.06,-94.18 457.6,-88.69"/>
<polygon fill="#63b8ff" stroke="#63b8ff" points="527.74,-110.51 538.3,-109.6 529.48,-103.73 527.74,-110.51"/>
</a>
</g>
</g>
<!-- Node5&#45;&gt;Node6 -->
<g id="edge5_Node000005_Node000006" class="edge">
<title>Node5&#45;&gt;Node6</title>
<g id="a_edge5_Node000005_Node000006"><a xlink:title=" ">
<path fill="none" stroke="#63b8ff" d="M354.21,-189.39C340.52,-193.53 326.16,-197.88 312.92,-201.88"/>
<polygon fill="#63b8ff" stroke="#63b8ff" points="354.95,-192.52 363.51,-186.28 352.93,-185.82 354.95,-192.52"/>
</a>
</g>
</g>
<!-- Node52 -->
<g id="Node000052" class="node">
<title>Node52</title>
<g id="a_Node000052"><a xlink:href="../../d6/da3/class_slic3r_1_1_s_l_a_print_1_1_steps.html#a179a990ac34a7afa407aae80882d2b59" target="_top" xlink:title=" ">
<polygon fill="white" stroke="#666666" points="318.5,-134.88 201.25,-134.88 201.25,-104.38 318.5,-104.38 318.5,-134.88"/>
<text text-anchor="start" x="209.25" y="-121.38" font-family="Helvetica,sans-Serif" font-size="10.00">Slic3r::SLAPrint::Steps</text>
<text text-anchor="middle" x="259.88" y="-110.12" font-family="Helvetica,sans-Serif" font-size="10.00">::slice_model</text>
</a>
</g>
</g>
<!-- Node5&#45;&gt;Node52 -->
<g id="edge14_Node000005_Node000052" class="edge">
<title>Node5&#45;&gt;Node52</title>
<g id="a_edge14_Node000005_Node000052"><a xlink:title=" ">
<path fill="none" stroke="#63b8ff" d="M358.35,-151.62C341.96,-146.24 324.32,-140.45 308.6,-135.29"/>
<polygon fill="#63b8ff" stroke="#63b8ff" points="356.77,-155.11 367.36,-154.91 358.95,-148.46 356.77,-155.11"/>
</a>
</g>
</g>
<!-- Node53 -->
<g id="Node000053" class="node">
<title>Node53</title>
<g id="a_Node000053"><a xlink:href="../../d9/d45/namespace_slic3r_1_1_g_u_i.html#a3c86587ac3c54856df30cd0c6544fa55" target="_top" xlink:title=" ">
<polygon fill="white" stroke="#666666" points="314,-183.88 205.75,-183.88 205.75,-153.38 314,-153.38 314,-183.88"/>
<text text-anchor="start" x="213.75" y="-170.38" font-family="Helvetica,sans-Serif" font-size="10.00">Slic3r::GUI::update</text>
<text text-anchor="middle" x="259.88" y="-159.12" font-family="Helvetica,sans-Serif" font-size="10.00">_arrangepoly_slaprint</text>
</a>
</g>
</g>
<!-- Node5&#45;&gt;Node53 -->
<g id="edge15_Node000005_Node000053" class="edge">
<title>Node5&#45;&gt;Node53</title>
<g id="a_edge15_Node000005_Node000053"><a xlink:title=" ">
<path fill="none" stroke="#63b8ff" d="M348.77,-169.76C337.23,-169.61 325.38,-169.46 314.26,-169.31"/>
<polygon fill="#63b8ff" stroke="#63b8ff" points="348.67,-173.27 358.72,-169.9 348.76,-166.27 348.67,-173.27"/>
</a>
</g>
</g>
<!-- Node7 -->
<g id="Node000007" class="node">
<title>Node7</title>
<g id="a_Node000007"><a xlink:href="../../d6/df8/class_slic3r_1_1_g_u_i_1_1_common_gizmos_data_objects_1_1_selection_info.html#a83aa49be2c941a099008374c4ff7fb09" target="_top" xlink:title=" ">
<polygon fill="white" stroke="#666666" points="154.75,-292.5 10.5,-292.5 10.5,-250.75 154.75,-250.75 154.75,-292.5"/>
<text text-anchor="start" x="18.5" y="-279" font-family="Helvetica,sans-Serif" font-size="10.00">Slic3r::GUI::CommonGizmos</text>
<text text-anchor="start" x="18.5" y="-267.75" font-family="Helvetica,sans-Serif" font-size="10.00">DataObjects::SelectionInfo</text>
<text text-anchor="middle" x="82.62" y="-256.5" font-family="Helvetica,sans-Serif" font-size="10.00">::on_update</text>
</a>
</g>
</g>
<!-- Node6&#45;&gt;Node7 -->
<g id="edge6_Node000006_Node000007" class="edge">
<title>Node6&#45;&gt;Node7</title>
<g id="a_edge6_Node000006_Node000007"><a xlink:title=" ">
<path fill="none" stroke="#63b8ff" d="M197.81,-236.44C183.27,-240.92 167.65,-245.73 152.78,-250.32"/>
<polygon fill="#63b8ff" stroke="#63b8ff" points="198.66,-239.53 207.19,-233.24 196.6,-232.84 198.66,-239.53"/>
</a>
</g>
</g>
<!-- Node8 -->
<g id="Node000008" class="node">
<title>Node8</title>
<g id="a_Node000008"><a xlink:href="../../d0/d2b/class_slic3r_1_1_g_u_i_1_1_g_l_canvas3_d.html#a0952c42bc924ff44ed130a2ff77bb370" target="_top" xlink:title=" ">
<polygon fill="#fff0f0" stroke="red" points="147.62,-232.88 17.62,-232.88 17.62,-202.38 147.62,-202.38 147.62,-232.88"/>
<text text-anchor="start" x="25.62" y="-219.38" font-family="Helvetica,sans-Serif" font-size="10.00">Slic3r::GUI::GLCanvas3D</text>
<text text-anchor="middle" x="82.62" y="-208.12" font-family="Helvetica,sans-Serif" font-size="10.00">::reload_scene</text>
</a>
</g>
</g>
<!-- Node6&#45;&gt;Node8 -->
<g id="edge7_Node000006_Node000008" class="edge">
<title>Node6&#45;&gt;Node8</title>
<g id="a_edge7_Node000006_Node000008"><a xlink:title=" ">
<path fill="none" stroke="#63b8ff" d="M191.24,-217.62C176.98,-217.62 161.97,-217.62 147.83,-217.62"/>
<polygon fill="#63b8ff" stroke="#63b8ff" points="190.98,-221.13 200.98,-217.62 190.98,-214.13 190.98,-221.13"/>
</a>
</g>
</g>
<!-- Node27 -->
<g id="Node000027" class="node">
<title>Node27</title>
<g id="a_Node000027"><a xlink:href="../../da/d2c/class_slic3r_1_1_g_u_i_1_1_g_l_gizmo_hollow.html#a1e64b38c19d0584609dcd11eaef0efc0" target="_top" xlink:title=" ">
<polygon fill="#fff0f0" stroke="red" points="153.62,-183.88 11.62,-183.88 11.62,-153.38 153.62,-153.38 153.62,-183.88"/>
<text text-anchor="start" x="19.62" y="-170.38" font-family="Helvetica,sans-Serif" font-size="10.00">Slic3r::GUI::GLGizmoHollow</text>
<text text-anchor="middle" x="82.62" y="-159.12" font-family="Helvetica,sans-Serif" font-size="10.00">::render_points</text>
</a>
</g>
</g>
<!-- Node6&#45;&gt;Node27 -->
<g id="edge8_Node000006_Node000027" class="edge">
<title>Node6&#45;&gt;Node27</title>
<g id="a_edge8_Node000006_Node000027"><a xlink:title=" ">
<path fill="none" stroke="#63b8ff" d="M192.36,-199.03C175.08,-194.19 156.63,-189.04 139.93,-184.37"/>
<polygon fill="#63b8ff" stroke="#63b8ff" points="191.37,-202.66 201.94,-201.99 193.25,-195.92 191.37,-202.66"/>
</a>
</g>
</g>
<!-- Node29 -->
<g id="Node000029" class="node">
<title>Node29</title>
<g id="a_Node000029"><a xlink:href="../../d9/d0e/class_slic3r_1_1_g_u_i_1_1_g_l_gizmo_sla_supports.html#a7862bc9fc1f6e5a832c9007548273367" target="_top" xlink:title=" ">
<polygon fill="#fff0f0" stroke="red" points="165.25,-134.88 0,-134.88 0,-104.38 165.25,-104.38 165.25,-134.88"/>
<text text-anchor="start" x="8" y="-121.38" font-family="Helvetica,sans-Serif" font-size="10.00">Slic3r::GUI::GLGizmoSlaSupports</text>
<text text-anchor="middle" x="82.62" y="-110.12" font-family="Helvetica,sans-Serif" font-size="10.00">::render_points</text>
</a>
</g>
</g>
<!-- Node6&#45;&gt;Node29 -->
<g id="edge9_Node000006_Node000029" class="edge">
<title>Node6&#45;&gt;Node29</title>
<g id="a_edge9_Node000006_Node000029"><a xlink:title=" ">
<path fill="none" stroke="#63b8ff" d="M206.48,-196.41C204.67,-195.2 202.92,-193.94 201.25,-192.62 180.32,-176.1 187.07,-159.95 165.25,-144.62 160.16,-141.05 154.54,-137.97 148.7,-135.33"/>
<polygon fill="#63b8ff" stroke="#63b8ff" points="204.51,-199.91 214.9,-201.99 208.08,-193.89 204.51,-199.91"/>
</a>
</g>
</g>
<!-- Node31 -->
<g id="Node000031" class="node">
<title>Node31</title>
<g id="a_Node000031"><a xlink:href="../../d0/d5d/class_slic3r_1_1_g_u_i_1_1_g_l_gizmo_sla_base.html#afa2c60fabd3bba6269097719d01f0992" target="_top" xlink:title=" ">
<polygon fill="#fff0f0" stroke="red" points="157,-85.88 8.25,-85.88 8.25,-55.38 157,-55.38 157,-85.88"/>
<text text-anchor="start" x="16.25" y="-72.38" font-family="Helvetica,sans-Serif" font-size="10.00">Slic3r::GUI::GLGizmoSlaBase</text>
<text text-anchor="middle" x="82.62" y="-61.12" font-family="Helvetica,sans-Serif" font-size="10.00">::unproject_on_mesh</text>
</a>
</g>
</g>
<!-- Node6&#45;&gt;Node31 -->
<g id="edge10_Node000006_Node000031" class="edge">
<title>Node6&#45;&gt;Node31</title>
<g id="a_edge10_Node000006_Node000031"><a xlink:title=" ">
<path fill="none" stroke="#63b8ff" d="M204.23,-195.52C203.2,-194.59 202.2,-193.63 201.25,-192.62 169.62,-159.24 198.7,-127.18 165.25,-95.62 161.37,-91.96 156.97,-88.84 152.26,-86.17"/>
<polygon fill="#63b8ff" stroke="#63b8ff" points="201.73,-198.77 211.84,-201.93 205.91,-193.15 201.73,-198.77"/>
</a>
</g>
</g>
<!-- Node38 -->
<g id="Node000038" class="node">
<title>Node38</title>
<g id="a_Node000038"><a xlink:href="../../da/d2c/class_slic3r_1_1_g_u_i_1_1_g_l_gizmo_hollow.html#ae9d4f8ca33ad79b5f85fad9d8364f6be" target="_top" xlink:title=" ">
<polygon fill="#fff0f0" stroke="red" points="153.62,-460.5 11.62,-460.5 11.62,-418.75 153.62,-418.75 153.62,-460.5"/>
<text text-anchor="start" x="19.62" y="-447" font-family="Helvetica,sans-Serif" font-size="10.00">Slic3r::GUI::GLGizmoHollow</text>
<text text-anchor="start" x="19.62" y="-435.75" font-family="Helvetica,sans-Serif" font-size="10.00">::update_hole_raycasters</text>
<text text-anchor="middle" x="82.62" y="-424.5" font-family="Helvetica,sans-Serif" font-size="10.00">_for_picking_transform</text>
</a>
</g>
</g>
<!-- Node6&#45;&gt;Node38 -->
<g id="edge11_Node000006_Node000038" class="edge">
<title>Node6&#45;&gt;Node38</title>
<g id="a_edge11_Node000006_Node000038"><a xlink:title=" ">
<path fill="none" stroke="#63b8ff" d="M252.87,-243.67C242.15,-284.55 215.94,-363.84 165.25,-409.62 161.66,-412.86 157.7,-415.76 153.51,-418.35"/>
<polygon fill="#63b8ff" stroke="#63b8ff" points="256.46,-244.77 255.49,-234.21 249.67,-243.06 256.46,-244.77"/>
</a>
</g>
</g>
<!-- Node44 -->
<g id="Node000044" class="node">
<title>Node44</title>
<g id="a_Node000044"><a xlink:href="../../d9/d0e/class_slic3r_1_1_g_u_i_1_1_g_l_gizmo_sla_supports.html#ada205f95df171159071374ee3e32f030" target="_top" xlink:title=" ">
<polygon fill="#fff0f0" stroke="red" points="165.25,-400.5 0,-400.5 0,-358.75 165.25,-358.75 165.25,-400.5"/>
<text text-anchor="start" x="8" y="-387" font-family="Helvetica,sans-Serif" font-size="10.00">Slic3r::GUI::GLGizmoSlaSupports</text>
<text text-anchor="start" x="8" y="-375.75" font-family="Helvetica,sans-Serif" font-size="10.00">::update_point_raycasters</text>
<text text-anchor="middle" x="82.62" y="-364.5" font-family="Helvetica,sans-Serif" font-size="10.00">_for_picking_transform</text>
</a>
</g>
</g>
<!-- Node6&#45;&gt;Node44 -->
<g id="edge12_Node000006_Node000044" class="edge">
<title>Node6&#45;&gt;Node44</title>
<g id="a_edge12_Node000006_Node000044"><a xlink:title=" ">
<path fill="none" stroke="#63b8ff" d="M247.11,-242.5C232.01,-271.94 203.18,-320.61 165.25,-349.62 161.05,-352.84 156.48,-355.73 151.71,-358.33"/>
<polygon fill="#63b8ff" stroke="#63b8ff" points="250.54,-244.47 251.87,-233.95 244.27,-241.34 250.54,-244.47"/>
</a>
</g>
</g>
<!-- Node51 -->
<g id="Node000051" class="node">
<title>Node51</title>
<g id="a_Node000051"><a xlink:href="../../d0/d5d/class_slic3r_1_1_g_u_i_1_1_g_l_gizmo_sla_base.html#a9758ed909d9341ee754483d9e1a86aeb" target="_top" xlink:title=" ">
<polygon fill="#fff0f0" stroke="red" points="157,-340.88 8.25,-340.88 8.25,-310.38 157,-310.38 157,-340.88"/>
<text text-anchor="start" x="16.25" y="-327.38" font-family="Helvetica,sans-Serif" font-size="10.00">Slic3r::GUI::GLGizmoSlaBase</text>
<text text-anchor="middle" x="82.62" y="-316.12" font-family="Helvetica,sans-Serif" font-size="10.00">::update_volumes</text>
</a>
</g>
</g>
<!-- Node6&#45;&gt;Node51 -->
<g id="edge13_Node000006_Node000051" class="edge">
<title>Node6&#45;&gt;Node51</title>
<g id="a_edge13_Node000006_Node000051"><a xlink:title=" ">
<path fill="none" stroke="#63b8ff" d="M238.12,-241.35C220.46,-260.17 193.53,-285.86 165.25,-301.62 159.57,-304.79 153.44,-307.58 147.17,-310.02"/>
<polygon fill="#63b8ff" stroke="#63b8ff" points="240.37,-243.98 244.55,-234.24 235.21,-239.25 240.37,-243.98"/>
</a>
</g>
</g>
<!-- Node54 -->
<g id="Node000054" class="node">
<title>Node54</title>
<g id="a_Node000054"><a xlink:href="../../d9/d45/namespace_slic3r_1_1_g_u_i.html#afc68e7e0f2a46d8f334266df877479a3" target="_top" xlink:title=" ">
<polygon fill="#fff0f0" stroke="red" points="155.12,-19.25 10.12,-19.25 10.12,0 155.12,0 155.12,-19.25"/>
<text text-anchor="middle" x="82.62" y="-5.75" font-family="Helvetica,sans-Serif" font-size="10.00">Slic3r::GUI::get_arrange_poly</text>
</a>
</g>
</g>
<!-- Node53&#45;&gt;Node54 -->
<g id="edge16_Node000053_Node000054" class="edge">
<title>Node53&#45;&gt;Node54</title>
<g id="a_edge16_Node000053_Node000054"><a xlink:title=" ">
<path fill="none" stroke="#63b8ff" d="M204.23,-146.52C203.2,-145.59 202.2,-144.63 201.25,-143.62 169.62,-110.24 196.6,-80.26 165.25,-46.62 153.47,-33.99 136.56,-25.36 121.19,-19.63"/>
<polygon fill="#63b8ff" stroke="#63b8ff" points="201.73,-149.77 211.84,-152.93 205.91,-144.15 201.73,-149.77"/>
</a>
</g>
</g>
<!-- Node54&#45;&gt;Node54 -->
<g id="edge17_Node000054_Node000054" class="edge">
<title>Node54&#45;&gt;Node54</title>
<g id="a_edge17_Node000054_Node000054"><a xlink:title=" ">
<path fill="none" stroke="#63b8ff" d="M115.18,-29.28C112.46,-33.87 101.61,-37.25 82.62,-37.25 51.47,-37.25 42.22,-28.15 54.88,-19.54"/>
<polygon fill="#63b8ff" stroke="#63b8ff" points="117.94,-27.96 110.37,-20.54 111.66,-31.05 117.94,-27.96"/>
</a>
</g>
</g>
<!-- Node65&#45;&gt;Node63 -->
<g id="edge23_Node000065_Node000063" class="edge">
<title>Node65&#45;&gt;Node63</title>
<g id="a_edge23_Node000065_Node000063"><a xlink:title=" ">
<path fill="none" stroke="#63b8ff" d="M530.63,-65.78C513.55,-61.2 494.13,-55.99 476.29,-51.2"/>
<polygon fill="#63b8ff" stroke="#63b8ff" points="529.36,-69.33 539.93,-68.54 531.18,-62.57 529.36,-69.33"/>
</a>
</g>
</g>
<!-- Node65&#45;&gt;Node64 -->
<g id="edge24_Node000065_Node000064" class="edge">
<title>Node65&#45;&gt;Node64</title>
<g id="a_edge24_Node000065_Node000064"><a xlink:title=" ">
<path fill="none" stroke="#63b8ff" d="M504.66,-78.62C496.55,-78.62 488.36,-78.62 480.42,-78.62"/>
<polygon fill="#63b8ff" stroke="#63b8ff" points="504.62,-82.13 514.62,-78.62 504.62,-75.13 504.62,-82.13"/>
</a>
</g>
</g>
</g>
</svg>

<g id="navigator" transform="translate(0 0)" fill="#404254">
  <rect fill="#f2f5e9" fill-opacity="0.5" stroke="#606060" stroke-width=".5" x="0" y="0" width="60" height="60"/>
  <use id="zoomplus" xlink:href="#zoomPlus" x="17" y="9" onmousedown="handleZoom(evt,'in')"/>
  <use id="zoomminus" xlink:href="#zoomMin" x="42" y="9" onmousedown="handleZoom(evt,'out')"/>
  <use id="reset" xlink:href="#resetDef" x="30" y="36" onmousedown="handleReset()"/>
   <use id="arrowup" xlink:href="#arrowUp" x="0" y="0" onmousedown="handlePan(0,-1)"/>
  <use id="arrowright" xlink:href="#arrowRight" x="0" y="0" onmousedown="handlePan(1,0)"/>
  <use id="arrowdown" xlink:href="#arrowDown" x="0" y="0" onmousedown="handlePan(0,1)"/>
  <use id="arrowleft" xlink:href="#arrowLeft" x="0" y="0" onmousedown="handlePan(-1,0)"/>
</g>
<svg viewBox="0 0 15 15" width="100%" height="30px" preserveAspectRatio="xMaxYMin meet">
 <g id="arrow_out" transform="scale(0.3 0.3)">
  <a xlink:href="namespace_slic3r_a966e5de579d5a05d0902de8875314f3a_icgraph_org.svg" target="_base">
   <rect id="button" ry="5" rx="5" y="6" x="6" height="38" width="38"
        fill="#f2f5e9" fill-opacity="0.5" stroke="#606060" stroke-width="1.0"/>
   <path id="arrow"
     d="M 11.500037,31.436501 C 11.940474,20.09759 22.043105,11.32322 32.158766,21.979434 L 37.068811,17.246167 C 37.068811,17.246167 37.088388,32 37.088388,32 L 22.160133,31.978069 C 22.160133,31.978069 26.997745,27.140456 26.997745,27.140456 C 18.528582,18.264221 13.291696,25.230495 11.500037,31.436501 z"
     style="fill:#404040;"/>
  </a>
 </g>
</svg>

<style type='text/css'>
<![CDATA[
[data-mouse-over-selected='false'] { opacity: 0.7; }
[data-mouse-over-selected='true']  { opacity: 1.0; }
]]>
</style>
<script type="application/ecmascript"><![CDATA[
document.addEventListener('DOMContentLoaded', (event) => {
  highlightEdges();
  highlightAdjacentNodes();
});
]]></script>
</svg>
