<?xml version="1.0" encoding="UTF-8" standalone="no"?>
<!DOCTYPE svg PUBLIC "-//W3C//DTD SVG 1.1//EN"
 "http://www.w3.org/Graphics/SVG/1.1/DTD/svg11.dtd">
<!-- Generated by graphviz version 8.0.5 (20230430.1635)
 -->
<!-- Title: ImBezierCubicClosestPoint Pages: 1 -->
<svg width="282pt" height="101pt"
 viewBox="0.00 0.00 282.25 101.25" xmlns="http://www.w3.org/2000/svg" xmlns:xlink="http://www.w3.org/1999/xlink">
<g id="graph0" class="graph" transform="scale(1 1) rotate(0) translate(4 97.25)">
<title>ImBezierCubicClosestPoint</title>
<!-- Node1 -->
<g id="Node000001" class="node">
<title>Node1</title>
<g id="a_Node000001"><a xlink:title=" ">
<polygon fill="#999999" stroke="#666666" points="136.75,-56.25 0,-56.25 0,-37 136.75,-37 136.75,-56.25"/>
<text text-anchor="middle" x="68.38" y="-42.75" font-family="Helvetica,sans-Serif" font-size="10.00">ImBezierCubicClosestPoint</text>
</a>
</g>
</g>
<!-- Node2 -->
<g id="Node000002" class="node">
<title>Node2</title>
<g id="a_Node000002"><a xlink:href="../../dc/d77/imgui__draw_8cpp.html#a313bb9d47244a5d27a5aeb4cd74f94a3" target="_top" xlink:title=" ">
<polygon fill="white" stroke="#666666" points="273.88,-93.25 173.12,-93.25 173.12,-74 273.88,-74 273.88,-93.25"/>
<text text-anchor="middle" x="223.5" y="-79.75" font-family="Helvetica,sans-Serif" font-size="10.00">ImBezierCubicCalc</text>
</a>
</g>
</g>
<!-- Node1&#45;&gt;Node2 -->
<g id="edge1_Node000001_Node000002" class="edge">
<title>Node1&#45;&gt;Node2</title>
<g id="a_edge1_Node000001_Node000002"><a xlink:title=" ">
<path fill="none" stroke="#63b8ff" d="M111.22,-56.74C129.45,-61.14 151.01,-66.35 170.28,-71.01"/>
<polygon fill="#63b8ff" stroke="#63b8ff" points="169.17,-74.58 179.71,-73.53 170.81,-67.78 169.17,-74.58"/>
</a>
</g>
</g>
<!-- Node3 -->
<g id="Node000003" class="node">
<title>Node3</title>
<g id="a_Node000003"><a xlink:href="../../d1/da2/imgui__internal_8h.html#a2fa5cb39358b9b4b5fbe3750e648e19e" target="_top" xlink:title=" ">
<polygon fill="white" stroke="#666666" points="259.25,-56.25 187.75,-56.25 187.75,-37 259.25,-37 259.25,-56.25"/>
<text text-anchor="middle" x="223.5" y="-42.75" font-family="Helvetica,sans-Serif" font-size="10.00">ImLengthSqr</text>
</a>
</g>
</g>
<!-- Node1&#45;&gt;Node3 -->
<g id="edge2_Node000001_Node000003" class="edge">
<title>Node1&#45;&gt;Node3</title>
<g id="a_edge2_Node000001_Node000003"><a xlink:title=" ">
<path fill="none" stroke="#63b8ff" d="M136.98,-46.62C150.49,-46.62 164.38,-46.62 176.93,-46.62"/>
<polygon fill="#63b8ff" stroke="#63b8ff" points="176.57,-50.13 186.57,-46.62 176.57,-43.13 176.57,-50.13"/>
</a>
</g>
</g>
<!-- Node4 -->
<g id="Node000004" class="node">
<title>Node4</title>
<g id="a_Node000004"><a xlink:href="../../da/d72/imgui_8cpp.html#a78740b7be00764a8c15b60295edc9f51" target="_top" xlink:title=" ">
<polygon fill="white" stroke="#666666" points="274.25,-19.25 172.75,-19.25 172.75,0 274.25,0 274.25,-19.25"/>
<text text-anchor="middle" x="223.5" y="-5.75" font-family="Helvetica,sans-Serif" font-size="10.00">ImLineClosestPoint</text>
</a>
</g>
</g>
<!-- Node1&#45;&gt;Node4 -->
<g id="edge3_Node000001_Node000004" class="edge">
<title>Node1&#45;&gt;Node4</title>
<g id="a_edge3_Node000001_Node000004"><a xlink:title=" ">
<path fill="none" stroke="#63b8ff" d="M111.22,-36.51C129.45,-32.11 151.01,-26.9 170.28,-22.24"/>
<polygon fill="#63b8ff" stroke="#63b8ff" points="170.81,-25.47 179.71,-19.72 169.17,-18.67 170.81,-25.47"/>
</a>
</g>
</g>
</g>
</svg>
