<?xml version="1.0" encoding="UTF-8" standalone="no"?>
<!DOCTYPE svg PUBLIC "-//W3C//DTD SVG 1.1//EN"
 "http://www.w3.org/Graphics/SVG/1.1/DTD/svg11.dtd">
<!-- Generated by graphviz version 8.0.5 (20230430.1635)
 -->
<!-- Title: src/libigl/igl/basename.h Pages: 1 -->
<svg width="589pt" height="360pt"
 viewBox="0.00 0.00 589.00 359.75" xmlns="http://www.w3.org/2000/svg" xmlns:xlink="http://www.w3.org/1999/xlink">
<g id="graph0" class="graph" transform="scale(1 1) rotate(0) translate(4 355.75)">
<title>src/libigl/igl/basename.h</title>
<!-- Node1 -->
<g id="Node000001" class="node">
<title>Node1</title>
<g id="a_Node000001"><a xlink:title=" ">
<polygon fill="#999999" stroke="#666666" points="216.12,-351.75 95.12,-351.75 95.12,-332.5 216.12,-332.5 216.12,-351.75"/>
<text text-anchor="middle" x="155.62" y="-338.25" font-family="Helvetica,sans-Serif" font-size="10.00">src/libigl/igl/basename.h</text>
</a>
</g>
</g>
<!-- Node2 -->
<g id="Node000002" class="node">
<title>Node2</title>
<g id="a_Node000002"><a xlink:href="../../d3/dd7/basename_8cpp.html" target="_top" xlink:title=" ">
<polygon fill="white" stroke="#666666" points="156.38,-290.88 24.88,-290.88 24.88,-271.62 156.38,-271.62 156.38,-290.88"/>
<text text-anchor="middle" x="90.62" y="-277.38" font-family="Helvetica,sans-Serif" font-size="10.00">src/libigl/igl/basename.cpp</text>
</a>
</g>
</g>
<!-- Node1&#45;&gt;Node2 -->
<g id="edge1_Node000001_Node000002" class="edge">
<title>Node1&#45;&gt;Node2</title>
<g id="a_edge1_Node000001_Node000002"><a xlink:title=" ">
<path fill="none" stroke="#63b8ff" d="M132.41,-325.56C119.12,-314.63 103.73,-300.39 95.56,-291.28"/>
<polygon fill="#63b8ff" stroke="#63b8ff" points="129.74,-328.7 139.74,-332.18 134.09,-323.22 129.74,-328.7"/>
</a>
</g>
</g>
<!-- Node3 -->
<g id="Node000003" class="node">
<title>Node3</title>
<g id="a_Node000003"><a xlink:href="../../dc/d4f/dated__copy_8cpp.html" target="_top" xlink:title=" ">
<polygon fill="white" stroke="#666666" points="266.5,-296.5 174.75,-296.5 174.75,-266 266.5,-266 266.5,-296.5"/>
<text text-anchor="start" x="182.75" y="-283" font-family="Helvetica,sans-Serif" font-size="10.00">src/libigl/igl/dated</text>
<text text-anchor="middle" x="220.62" y="-271.75" font-family="Helvetica,sans-Serif" font-size="10.00">_copy.cpp</text>
</a>
</g>
</g>
<!-- Node1&#45;&gt;Node3 -->
<g id="edge3_Node000001_Node000003" class="edge">
<title>Node1&#45;&gt;Node3</title>
<g id="a_edge3_Node000001_Node000003"><a xlink:title=" ">
<path fill="none" stroke="#63b8ff" d="M173.37,-325.06C183.11,-316.23 195.11,-305.36 204.58,-296.78"/>
<polygon fill="#63b8ff" stroke="#63b8ff" points="171.56,-321.88 166.5,-331.18 176.26,-327.06 171.56,-321.88"/>
</a>
</g>
</g>
<!-- Node5 -->
<g id="Node000005" class="node">
<title>Node5</title>
<g id="a_Node000005"><a xlink:href="../../d9/db4/pathinfo_8cpp.html" target="_top" xlink:title=" ">
<polygon fill="white" stroke="#666666" points="405.12,-290.88 284.12,-290.88 284.12,-271.62 405.12,-271.62 405.12,-290.88"/>
<text text-anchor="middle" x="344.62" y="-277.38" font-family="Helvetica,sans-Serif" font-size="10.00">src/libigl/igl/pathinfo.cpp</text>
</a>
</g>
</g>
<!-- Node1&#45;&gt;Node5 -->
<g id="edge6_Node000001_Node000005" class="edge">
<title>Node1&#45;&gt;Node5</title>
<g id="a_edge6_Node000001_Node000005"><a xlink:title=" ">
<path fill="none" stroke="#63b8ff" d="M194.87,-328.9C230.79,-317.71 283.14,-301.4 315.47,-291.33"/>
<polygon fill="#63b8ff" stroke="#63b8ff" points="194.25,-325.74 185.74,-332.05 196.33,-332.42 194.25,-325.74"/>
</a>
</g>
</g>
<!-- Node2&#45;&gt;Node1 -->
<g id="edge2_Node000002_Node000001" class="edge">
<title>Node2&#45;&gt;Node1</title>
<g id="a_edge2_Node000002_Node000001"><a xlink:title=" ">
<path fill="none" stroke="#63b8ff" d="M113.96,-297.91C127.26,-308.87 142.64,-323.11 150.76,-332.18"/>
<polygon fill="#63b8ff" stroke="#63b8ff" points="116.62,-294.76 106.62,-291.28 112.27,-300.24 116.62,-294.76"/>
</a>
</g>
</g>
<!-- Node4 -->
<g id="Node000004" class="node">
<title>Node4</title>
<g id="a_Node000004"><a xlink:href="../../d7/da8/dated__copy_8h.html" target="_top" xlink:title=" ">
<polygon fill="white" stroke="#666666" points="266.5,-230 174.75,-230 174.75,-199.5 266.5,-199.5 266.5,-230"/>
<text text-anchor="start" x="182.75" y="-216.5" font-family="Helvetica,sans-Serif" font-size="10.00">src/libigl/igl/dated</text>
<text text-anchor="middle" x="220.62" y="-205.25" font-family="Helvetica,sans-Serif" font-size="10.00">_copy.h</text>
</a>
</g>
</g>
<!-- Node3&#45;&gt;Node4 -->
<g id="edge4_Node000003_Node000004" class="edge">
<title>Node3&#45;&gt;Node4</title>
<g id="a_edge4_Node000003_Node000004"><a xlink:title=" ">
<path fill="none" stroke="#63b8ff" d="M214.01,-254.88C213.67,-246.55 213.96,-237.58 214.87,-230.33"/>
<polygon fill="#63b8ff" stroke="#63b8ff" points="210.59,-254.92 214.86,-264.61 217.56,-254.37 210.59,-254.92"/>
</a>
</g>
</g>
<!-- Node4&#45;&gt;Node3 -->
<g id="edge5_Node000004_Node000003" class="edge">
<title>Node4&#45;&gt;Node3</title>
<g id="a_edge5_Node000004_Node000003"><a xlink:title=" ">
<path fill="none" stroke="#63b8ff" d="M227.23,-241.06C227.58,-249.38 227.29,-258.36 226.39,-265.61"/>
<polygon fill="#63b8ff" stroke="#63b8ff" points="230.66,-241.02 226.38,-231.33 223.68,-241.57 230.66,-241.02"/>
</a>
</g>
</g>
<!-- Node6 -->
<g id="Node000006" class="node">
<title>Node6</title>
<g id="a_Node000006"><a xlink:href="../../dc/de2/pathinfo_8h.html" target="_top" xlink:title=" ">
<polygon fill="white" stroke="#666666" points="399.88,-224.38 289.38,-224.38 289.38,-205.12 399.88,-205.12 399.88,-224.38"/>
<text text-anchor="middle" x="344.62" y="-210.88" font-family="Helvetica,sans-Serif" font-size="10.00">src/libigl/igl/pathinfo.h</text>
</a>
</g>
</g>
<!-- Node5&#45;&gt;Node6 -->
<g id="edge7_Node000005_Node000006" class="edge">
<title>Node5&#45;&gt;Node6</title>
<g id="a_edge7_Node000005_Node000006"><a xlink:title=" ">
<path fill="none" stroke="#63b8ff" d="M338.35,-260.52C337.4,-248.55 337.88,-233.85 339.8,-224.64"/>
<polygon fill="#63b8ff" stroke="#63b8ff" points="334.99,-260.83 339.78,-270.28 341.93,-259.91 334.99,-260.83"/>
</a>
</g>
</g>
<!-- Node6&#45;&gt;Node5 -->
<g id="edge11_Node000006_Node000005" class="edge">
<title>Node6&#45;&gt;Node5</title>
<g id="a_edge11_Node000006_Node000005"><a xlink:title=" ">
<path fill="none" stroke="#63b8ff" d="M350.89,-235.38C351.85,-247.33 351.38,-262.04 349.47,-271.28"/>
<polygon fill="#63b8ff" stroke="#63b8ff" points="354.25,-235.09 349.45,-225.64 347.31,-236.02 354.25,-235.09"/>
</a>
</g>
</g>
<!-- Node7 -->
<g id="Node000007" class="node">
<title>Node7</title>
<g id="a_Node000007"><a xlink:href="../../d1/d7e/read__into__tetgenio_8cpp.html" target="_top" xlink:title=" ">
<polygon fill="white" stroke="#666666" points="147.25,-163.5 0,-163.5 0,-133 147.25,-133 147.25,-163.5"/>
<text text-anchor="start" x="8" y="-150" font-family="Helvetica,sans-Serif" font-size="10.00">src/libigl/igl/copyleft</text>
<text text-anchor="middle" x="73.62" y="-138.75" font-family="Helvetica,sans-Serif" font-size="10.00">/tetgen/read_into_tetgenio.cpp</text>
</a>
</g>
</g>
<!-- Node6&#45;&gt;Node7 -->
<g id="edge8_Node000006_Node000007" class="edge">
<title>Node6&#45;&gt;Node7</title>
<g id="a_edge8_Node000006_Node000007"><a xlink:title=" ">
<path fill="none" stroke="#63b8ff" d="M295.73,-202.11C250.81,-191.42 184.03,-175.53 135.43,-163.96"/>
<polygon fill="#63b8ff" stroke="#63b8ff" points="294.83,-205.73 305.37,-204.65 296.45,-198.93 294.83,-205.73"/>
</a>
</g>
</g>
<!-- Node9 -->
<g id="Node000009" class="node">
<title>Node9</title>
<g id="a_Node000009"><a xlink:href="../../d8/d2b/texture__from__file_8cpp.html" target="_top" xlink:title=" ">
<polygon fill="white" stroke="#666666" points="275.88,-163.5 165.38,-163.5 165.38,-133 275.88,-133 275.88,-163.5"/>
<text text-anchor="start" x="173.38" y="-150" font-family="Helvetica,sans-Serif" font-size="10.00">src/libigl/igl/png</text>
<text text-anchor="middle" x="220.62" y="-138.75" font-family="Helvetica,sans-Serif" font-size="10.00">/texture_from_file.cpp</text>
</a>
</g>
</g>
<!-- Node6&#45;&gt;Node9 -->
<g id="edge12_Node000006_Node000009" class="edge">
<title>Node6&#45;&gt;Node9</title>
<g id="a_edge12_Node000006_Node000009"><a xlink:title=" ">
<path fill="none" stroke="#63b8ff" d="M317.48,-199.63C297.06,-189.01 269.16,-174.5 248.55,-163.78"/>
<polygon fill="#63b8ff" stroke="#63b8ff" points="315.64,-203.14 326.12,-204.65 318.87,-196.93 315.64,-203.14"/>
</a>
</g>
</g>
<!-- Node11 -->
<g id="Node000011" class="node">
<title>Node11</title>
<g id="a_Node000011"><a xlink:href="../../db/d77/read__triangle__mesh_8cpp.html" target="_top" xlink:title=" ">
<polygon fill="white" stroke="#666666" points="395,-163.5 294.25,-163.5 294.25,-133 395,-133 395,-163.5"/>
<text text-anchor="start" x="302.25" y="-150" font-family="Helvetica,sans-Serif" font-size="10.00">src/libigl/igl/read</text>
<text text-anchor="middle" x="344.62" y="-138.75" font-family="Helvetica,sans-Serif" font-size="10.00">_triangle_mesh.cpp</text>
</a>
</g>
</g>
<!-- Node6&#45;&gt;Node11 -->
<g id="edge15_Node000006_Node000011" class="edge">
<title>Node6&#45;&gt;Node11</title>
<g id="a_edge15_Node000006_Node000011"><a xlink:title=" ">
<path fill="none" stroke="#63b8ff" d="M344.62,-194.02C344.62,-184.2 344.62,-172.55 344.62,-163.59"/>
<polygon fill="#63b8ff" stroke="#63b8ff" points="341.13,-193.78 344.62,-203.78 348.13,-193.78 341.13,-193.78"/>
</a>
</g>
</g>
<!-- Node15 -->
<g id="Node000015" class="node">
<title>Node15</title>
<g id="a_Node000015"><a xlink:href="../../d1/db6/write__triangle__mesh_8cpp.html" target="_top" xlink:title=" ">
<polygon fill="white" stroke="#666666" points="514,-163.5 413.25,-163.5 413.25,-133 514,-133 514,-163.5"/>
<text text-anchor="start" x="421.25" y="-150" font-family="Helvetica,sans-Serif" font-size="10.00">src/libigl/igl/write</text>
<text text-anchor="middle" x="463.62" y="-138.75" font-family="Helvetica,sans-Serif" font-size="10.00">_triangle_mesh.cpp</text>
</a>
</g>
</g>
<!-- Node6&#45;&gt;Node15 -->
<g id="edge19_Node000006_Node000015" class="edge">
<title>Node6&#45;&gt;Node15</title>
<g id="a_edge19_Node000006_Node000015"><a xlink:title=" ">
<path fill="none" stroke="#63b8ff" d="M370.94,-199.49C390.52,-188.88 417.14,-174.45 436.83,-163.78"/>
<polygon fill="#63b8ff" stroke="#63b8ff" points="369.55,-196.8 362.42,-204.65 372.88,-202.96 369.55,-196.8"/>
</a>
</g>
</g>
<!-- Node17 -->
<g id="Node000017" class="node">
<title>Node17</title>
<g id="a_Node000017"><a xlink:href="../../db/d49/xml_2write__triangle__mesh_8cpp.html" target="_top" xlink:title=" ">
<polygon fill="#fff0f0" stroke="red" points="581,-30.5 456.25,-30.5 456.25,0 581,0 581,-30.5"/>
<text text-anchor="start" x="464.25" y="-17" font-family="Helvetica,sans-Serif" font-size="10.00">src/libigl/igl/xml</text>
<text text-anchor="middle" x="518.62" y="-5.75" font-family="Helvetica,sans-Serif" font-size="10.00">/write_triangle_mesh.cpp</text>
</a>
</g>
</g>
<!-- Node6&#45;&gt;Node17 -->
<g id="edge23_Node000006_Node000017" class="edge">
<title>Node6&#45;&gt;Node17</title>
<g id="a_edge23_Node000006_Node000017"><a xlink:title=" ">
<path fill="none" stroke="#63b8ff" d="M410.8,-203.56C455.52,-195.17 508.86,-181.69 522.62,-163.5 552.72,-123.73 534.65,-59.11 524.32,-30.57"/>
<polygon fill="#63b8ff" stroke="#63b8ff" points="410.44,-200.25 401.23,-205.49 411.69,-207.14 410.44,-200.25"/>
</a>
</g>
</g>
<!-- Node8 -->
<g id="Node000008" class="node">
<title>Node8</title>
<g id="a_Node000008"><a xlink:href="../../d0/dad/read__into__tetgenio_8h.html" target="_top" xlink:title=" ">
<polygon fill="white" stroke="#666666" points="142,-97 5.25,-97 5.25,-66.5 142,-66.5 142,-97"/>
<text text-anchor="start" x="13.25" y="-83.5" font-family="Helvetica,sans-Serif" font-size="10.00">src/libigl/igl/copyleft</text>
<text text-anchor="middle" x="73.62" y="-72.25" font-family="Helvetica,sans-Serif" font-size="10.00">/tetgen/read_into_tetgenio.h</text>
</a>
</g>
</g>
<!-- Node7&#45;&gt;Node8 -->
<g id="edge9_Node000007_Node000008" class="edge">
<title>Node7&#45;&gt;Node8</title>
<g id="a_edge9_Node000007_Node000008"><a xlink:title=" ">
<path fill="none" stroke="#63b8ff" d="M67.01,-121.88C66.67,-113.55 66.96,-104.58 67.87,-97.33"/>
<polygon fill="#63b8ff" stroke="#63b8ff" points="63.59,-121.92 67.86,-131.61 70.56,-121.37 63.59,-121.92"/>
</a>
</g>
</g>
<!-- Node8&#45;&gt;Node7 -->
<g id="edge10_Node000008_Node000007" class="edge">
<title>Node8&#45;&gt;Node7</title>
<g id="a_edge10_Node000008_Node000007"><a xlink:title=" ">
<path fill="none" stroke="#63b8ff" d="M80.23,-108.06C80.58,-116.38 80.29,-125.36 79.39,-132.61"/>
<polygon fill="#63b8ff" stroke="#63b8ff" points="83.66,-108.02 79.38,-98.33 76.68,-108.57 83.66,-108.02"/>
</a>
</g>
</g>
<!-- Node10 -->
<g id="Node000010" class="node">
<title>Node10</title>
<g id="a_Node000010"><a xlink:href="../../de/dd7/texture__from__file_8h.html" target="_top" xlink:title=" ">
<polygon fill="white" stroke="#666666" points="270.62,-97 170.62,-97 170.62,-66.5 270.62,-66.5 270.62,-97"/>
<text text-anchor="start" x="178.62" y="-83.5" font-family="Helvetica,sans-Serif" font-size="10.00">src/libigl/igl/png</text>
<text text-anchor="middle" x="220.62" y="-72.25" font-family="Helvetica,sans-Serif" font-size="10.00">/texture_from_file.h</text>
</a>
</g>
</g>
<!-- Node9&#45;&gt;Node10 -->
<g id="edge13_Node000009_Node000010" class="edge">
<title>Node9&#45;&gt;Node10</title>
<g id="a_edge13_Node000009_Node000010"><a xlink:title=" ">
<path fill="none" stroke="#63b8ff" d="M214.01,-121.88C213.67,-113.55 213.96,-104.58 214.87,-97.33"/>
<polygon fill="#63b8ff" stroke="#63b8ff" points="210.59,-121.92 214.86,-131.61 217.56,-121.37 210.59,-121.92"/>
</a>
</g>
</g>
<!-- Node10&#45;&gt;Node9 -->
<g id="edge14_Node000010_Node000009" class="edge">
<title>Node10&#45;&gt;Node9</title>
<g id="a_edge14_Node000010_Node000009"><a xlink:title=" ">
<path fill="none" stroke="#63b8ff" d="M227.23,-108.06C227.58,-116.38 227.29,-125.36 226.39,-132.61"/>
<polygon fill="#63b8ff" stroke="#63b8ff" points="230.66,-108.02 226.38,-98.33 223.68,-108.57 230.66,-108.02"/>
</a>
</g>
</g>
<!-- Node12 -->
<g id="Node000012" class="node">
<title>Node12</title>
<g id="a_Node000012"><a xlink:href="../../d0/ddf/read__triangle__mesh_8h.html" target="_top" xlink:title=" ">
<polygon fill="white" stroke="#666666" points="389.75,-97 299.5,-97 299.5,-66.5 389.75,-66.5 389.75,-97"/>
<text text-anchor="start" x="307.5" y="-83.5" font-family="Helvetica,sans-Serif" font-size="10.00">src/libigl/igl/read</text>
<text text-anchor="middle" x="344.62" y="-72.25" font-family="Helvetica,sans-Serif" font-size="10.00">_triangle_mesh.h</text>
</a>
</g>
</g>
<!-- Node11&#45;&gt;Node12 -->
<g id="edge16_Node000011_Node000012" class="edge">
<title>Node11&#45;&gt;Node12</title>
<g id="a_edge16_Node000011_Node000012"><a xlink:title=" ">
<path fill="none" stroke="#63b8ff" d="M338.01,-121.88C337.67,-113.55 337.96,-104.58 338.87,-97.33"/>
<polygon fill="#63b8ff" stroke="#63b8ff" points="334.59,-121.92 338.86,-131.61 341.56,-121.37 334.59,-121.92"/>
</a>
</g>
</g>
<!-- Node12&#45;&gt;Node11 -->
<g id="edge18_Node000012_Node000011" class="edge">
<title>Node12&#45;&gt;Node11</title>
<g id="a_edge18_Node000012_Node000011"><a xlink:title=" ">
<path fill="none" stroke="#63b8ff" d="M351.23,-108.06C351.58,-116.38 351.29,-125.36 350.39,-132.61"/>
<polygon fill="#63b8ff" stroke="#63b8ff" points="354.66,-108.02 350.38,-98.33 347.68,-108.57 354.66,-108.02"/>
</a>
</g>
</g>
<!-- Node13 -->
<g id="Node000013" class="node">
<title>Node13</title>
<g id="a_Node000013"><a xlink:href="../../db/db8/copyleft_2cgal_2read__triangle__mesh_8cpp.html" target="_top" xlink:title=" ">
<polygon fill="#fff0f0" stroke="red" points="416.38,-30.5 272.88,-30.5 272.88,0 416.38,0 416.38,-30.5"/>
<text text-anchor="start" x="280.88" y="-17" font-family="Helvetica,sans-Serif" font-size="10.00">src/libigl/igl/copyleft</text>
<text text-anchor="middle" x="344.62" y="-5.75" font-family="Helvetica,sans-Serif" font-size="10.00">/cgal/read_triangle_mesh.cpp</text>
</a>
</g>
</g>
<!-- Node12&#45;&gt;Node13 -->
<g id="edge17_Node000012_Node000013" class="edge">
<title>Node12&#45;&gt;Node13</title>
<g id="a_edge17_Node000012_Node000013"><a xlink:title=" ">
<path fill="none" stroke="#63b8ff" d="M344.62,-55.38C344.62,-47.05 344.62,-38.08 344.62,-30.83"/>
<polygon fill="#63b8ff" stroke="#63b8ff" points="341.13,-55.11 344.62,-65.11 348.13,-55.11 341.13,-55.11"/>
</a>
</g>
</g>
<!-- Node16 -->
<g id="Node000016" class="node">
<title>Node16</title>
<g id="a_Node000016"><a xlink:href="../../d3/deb/write__triangle__mesh_8h.html" target="_top" xlink:title=" ">
<polygon fill="white" stroke="#666666" points="508.75,-97 418.5,-97 418.5,-66.5 508.75,-66.5 508.75,-97"/>
<text text-anchor="start" x="426.5" y="-83.5" font-family="Helvetica,sans-Serif" font-size="10.00">src/libigl/igl/write</text>
<text text-anchor="middle" x="463.62" y="-72.25" font-family="Helvetica,sans-Serif" font-size="10.00">_triangle_mesh.h</text>
</a>
</g>
</g>
<!-- Node15&#45;&gt;Node16 -->
<g id="edge20_Node000015_Node000016" class="edge">
<title>Node15&#45;&gt;Node16</title>
<g id="a_edge20_Node000015_Node000016"><a xlink:title=" ">
<path fill="none" stroke="#63b8ff" d="M457.01,-121.88C456.67,-113.55 456.96,-104.58 457.87,-97.33"/>
<polygon fill="#63b8ff" stroke="#63b8ff" points="453.59,-121.92 457.86,-131.61 460.56,-121.37 453.59,-121.92"/>
</a>
</g>
</g>
<!-- Node16&#45;&gt;Node15 -->
<g id="edge21_Node000016_Node000015" class="edge">
<title>Node16&#45;&gt;Node15</title>
<g id="a_edge21_Node000016_Node000015"><a xlink:title=" ">
<path fill="none" stroke="#63b8ff" d="M470.23,-108.06C470.58,-116.38 470.29,-125.36 469.39,-132.61"/>
<polygon fill="#63b8ff" stroke="#63b8ff" points="473.66,-108.02 469.38,-98.33 466.68,-108.57 473.66,-108.02"/>
</a>
</g>
</g>
<!-- Node16&#45;&gt;Node17 -->
<g id="edge22_Node000016_Node000017" class="edge">
<title>Node16&#45;&gt;Node17</title>
<g id="a_edge22_Node000016_Node000017"><a xlink:title=" ">
<path fill="none" stroke="#63b8ff" d="M483.1,-57.91C490.78,-48.9 499.38,-38.82 506.19,-30.83"/>
<polygon fill="#63b8ff" stroke="#63b8ff" points="479.93,-55.23 476.11,-65.11 485.26,-59.78 479.93,-55.23"/>
</a>
</g>
</g>
</g>
</svg>
