<?xml version="1.0" encoding="UTF-8" standalone="no"?>
<!DOCTYPE svg PUBLIC "-//W3C//DTD SVG 1.1//EN"
 "http://www.w3.org/Graphics/SVG/1.1/DTD/svg11.dtd">
<!-- Generated by graphviz version 8.0.5 (20230430.1635)
 -->
<!-- Title: src/libigl/igl/mosek/mosek_quadprog.cpp Pages: 1 -->
<svg width="152pt" height="238pt"
 viewBox="0.00 0.00 151.50 238.00" xmlns="http://www.w3.org/2000/svg" xmlns:xlink="http://www.w3.org/1999/xlink">
<g id="graph0" class="graph" transform="scale(1 1) rotate(0) translate(4 234)">
<title>src/libigl/igl/mosek/mosek_quadprog.cpp</title>
<!-- Node1 -->
<g id="Node000001" class="node">
<title>Node1</title>
<g id="a_Node000001"><a xlink:title=" ">
<polygon fill="#999999" stroke="#666666" points="112,-230 0,-230 0,-199.5 112,-199.5 112,-230"/>
<text text-anchor="start" x="8" y="-216.5" font-family="Helvetica,sans-Serif" font-size="10.00">src/libigl/igl/mosek</text>
<text text-anchor="middle" x="56" y="-205.25" font-family="Helvetica,sans-Serif" font-size="10.00">/mosek_quadprog.cpp</text>
</a>
</g>
</g>
<!-- Node2 -->
<g id="Node000002" class="node">
<title>Node2</title>
<g id="a_Node000002"><a xlink:href="../../de/dfb/mosek__quadprog_8h.html" target="_top" xlink:title=" ">
<polygon fill="white" stroke="#666666" points="106.75,-163.5 5.25,-163.5 5.25,-133 106.75,-133 106.75,-163.5"/>
<text text-anchor="start" x="13.25" y="-150" font-family="Helvetica,sans-Serif" font-size="10.00">src/libigl/igl/mosek</text>
<text text-anchor="middle" x="56" y="-138.75" font-family="Helvetica,sans-Serif" font-size="10.00">/mosek_quadprog.h</text>
</a>
</g>
</g>
<!-- Node1&#45;&gt;Node2 -->
<g id="edge1_Node000001_Node000002" class="edge">
<title>Node1&#45;&gt;Node2</title>
<g id="a_edge1_Node000001_Node000002"><a xlink:title=" ">
<path fill="none" stroke="#63b8ff" d="M49.39,-188.38C49.05,-180.05 49.33,-171.08 50.25,-163.83"/>
<polygon fill="#63b8ff" stroke="#63b8ff" points="45.96,-188.42 50.24,-198.11 52.94,-187.87 45.96,-188.42"/>
</a>
</g>
</g>
<!-- Node2&#45;&gt;Node1 -->
<g id="edge6_Node000002_Node000001" class="edge">
<title>Node2&#45;&gt;Node1</title>
<g id="a_edge6_Node000002_Node000001"><a xlink:title=" ">
<path fill="none" stroke="#63b8ff" d="M62.61,-174.56C62.95,-182.88 62.67,-191.86 61.76,-199.11"/>
<polygon fill="#63b8ff" stroke="#63b8ff" points="66.04,-174.52 61.75,-164.83 59.06,-175.07 66.04,-174.52"/>
</a>
</g>
</g>
<!-- Node3 -->
<g id="Node000003" class="node">
<title>Node3</title>
<g id="a_Node000003"><a xlink:href="../../d7/d99/mosek_2bbw_8cpp.html" target="_top" xlink:title=" ">
<polygon fill="white" stroke="#666666" points="143.5,-30.5 46.5,-30.5 46.5,0 143.5,0 143.5,-30.5"/>
<text text-anchor="start" x="54.5" y="-17" font-family="Helvetica,sans-Serif" font-size="10.00">src/libigl/igl/mosek</text>
<text text-anchor="middle" x="95" y="-5.75" font-family="Helvetica,sans-Serif" font-size="10.00">/bbw.cpp</text>
</a>
</g>
</g>
<!-- Node2&#45;&gt;Node3 -->
<g id="edge2_Node000002_Node000003" class="edge">
<title>Node2&#45;&gt;Node3</title>
<g id="a_edge2_Node000002_Node000003"><a xlink:title=" ">
<path fill="none" stroke="#63b8ff" d="M42.4,-123.23C34.94,-106.73 28.73,-84.62 37,-66.5 43.75,-51.72 57.24,-39.61 69.51,-30.99"/>
<polygon fill="#63b8ff" stroke="#63b8ff" points="39.51,-124.28 47.08,-131.69 45.78,-121.17 39.51,-124.28"/>
</a>
</g>
</g>
<!-- Node4 -->
<g id="Node000004" class="node">
<title>Node4</title>
<g id="a_Node000004"><a xlink:href="../../d9/d76/mosek_2bbw_8h.html" target="_top" xlink:title=" ">
<polygon fill="white" stroke="#666666" points="143.5,-97 46.5,-97 46.5,-66.5 143.5,-66.5 143.5,-97"/>
<text text-anchor="start" x="54.5" y="-83.5" font-family="Helvetica,sans-Serif" font-size="10.00">src/libigl/igl/mosek</text>
<text text-anchor="middle" x="95" y="-72.25" font-family="Helvetica,sans-Serif" font-size="10.00">/bbw.h</text>
</a>
</g>
</g>
<!-- Node2&#45;&gt;Node4 -->
<g id="edge5_Node000002_Node000004" class="edge">
<title>Node2&#45;&gt;Node4</title>
<g id="a_edge5_Node000002_Node000004"><a xlink:title=" ">
<path fill="none" stroke="#63b8ff" d="M70.49,-123.29C75.76,-114.57 81.55,-104.99 86.19,-97.33"/>
<polygon fill="#63b8ff" stroke="#63b8ff" points="67.03,-121.25 64.85,-131.61 73.02,-124.87 67.03,-121.25"/>
</a>
</g>
</g>
<!-- Node3&#45;&gt;Node4 -->
<g id="edge3_Node000003_Node000004" class="edge">
<title>Node3&#45;&gt;Node4</title>
<g id="a_edge3_Node000003_Node000004"><a xlink:title=" ">
<path fill="none" stroke="#63b8ff" d="M101.61,-41.56C101.95,-49.88 101.67,-58.86 100.76,-66.11"/>
<polygon fill="#63b8ff" stroke="#63b8ff" points="105.04,-41.52 100.75,-31.83 98.06,-42.07 105.04,-41.52"/>
</a>
</g>
</g>
<!-- Node4&#45;&gt;Node3 -->
<g id="edge4_Node000004_Node000003" class="edge">
<title>Node4&#45;&gt;Node3</title>
<g id="a_edge4_Node000004_Node000003"><a xlink:title=" ">
<path fill="none" stroke="#63b8ff" d="M88.39,-55.38C88.05,-47.05 88.33,-38.08 89.25,-30.83"/>
<polygon fill="#63b8ff" stroke="#63b8ff" points="84.96,-55.42 89.24,-65.11 91.94,-54.87 84.96,-55.42"/>
</a>
</g>
</g>
</g>
</svg>
