<?xml version="1.0" encoding="UTF-8" standalone="no"?>
<!DOCTYPE svg PUBLIC "-//W3C//DTD SVG 1.1//EN"
 "http://www.w3.org/Graphics/SVG/1.1/DTD/svg11.dtd">
<!-- Generated by graphviz version 8.0.5 (20230430.1635)
 -->
<!-- Title: Slic3r::GUI::GLModel::Geometry::reserve_more_vertices Pages: 1 -->
<!--zoomable 125 -->

<svg id="main" version="1.1" xmlns="http://www.w3.org/2000/svg" xmlns:xlink="http://www.w3.org/1999/xlink" xml:space="preserve" onload="init(evt)">
<style type="text/css"><![CDATA[
.node, .edge {opacity: 0.7;}
.node.selected, .edge.selected {opacity: 1;}
.edge:hover path { stroke: red; }
.edge:hover polygon { stroke: red; fill: red; }
]]></style>

<defs>
  <circle id="rim" cx="0" cy="0" r="7"/>
  <circle id="rim2" cx="0" cy="0" r="3.5"/>
  <g id="zoomPlus">
    <use xlink:href="#rim" fill="#404040"><set attributeName="fill" to="#808080" begin="zoomplus.mouseover" end="zoomplus.mouseout"/></use>
    <path d="M-4,0h8M0,-4v8" fill="none" stroke="white" stroke-width="1.5" pointer-events="none"/>
  </g>
  <g id="zoomMin">
    <use xlink:href="#rim" fill="#404040"><set attributeName="fill" to="#808080" begin="zoomminus.mouseover" end="zoomminus.mouseout"/></use>
    <path d="M-4,0h8" fill="none" stroke="white" stroke-width="1.5" pointer-events="none"/>
  </g>
  <g id="arrowUp" transform="translate(30 24)">
    <use xlink:href="#rim"/>
    <path pointer-events="none" fill="none" stroke="white" stroke-width="1.5" d="M0,-3.0v7 M-2.5,-0.5L0,-3.0L2.5,-0.5"/>
  </g>
  <g id="arrowRight" transform="rotate(90) translate(36 -43)">
    <use xlink:href="#rim"/>
    <path pointer-events="none" fill="none" stroke="white" stroke-width="1.5" d="M0,-3.0v7 M-2.5,-0.5L0,-3.0L2.5,-0.5"/>
  </g>
  <g id="arrowDown" transform="rotate(180) translate(-30 -48)">
    <use xlink:href="#rim"/>
    <path pointer-events="none" fill="none" stroke="white" stroke-width="1.5" d="M0,-3.0v7 M-2.5,-0.5L0,-3.0L2.5,-0.5"/>
  </g>
  <g id="arrowLeft" transform="rotate(270) translate(-36 17)">
    <use xlink:href="#rim"/>
    <path pointer-events="none" fill="none" stroke="white" stroke-width="1.5" d="M0,-3.0v7 M-2.5,-0.5L0,-3.0L2.5,-0.5"/>
  </g>
  <g id="resetDef">
    <use xlink:href="#rim2" fill="#404040"><set attributeName="fill" to="#808080" begin="reset.mouseover" end="reset.mouseout"/></use>
  </g>
</defs>
<script type="application/ecmascript">
var viewWidth = 865;
var viewHeight = 125;
var sectionId = 'dynsection-54';
</script>
<script type="application/ecmascript" xlink:href="../../svg.min.js"/>
<svg id="graph" class="graph">
<g id="viewport">
<title>Slic3r::GUI::GLModel::Geometry::reserve_more_vertices</title>
<!-- Node1 -->
<g id="Node000001" class="node">
<title>Node1</title>
<g id="a_Node000001"><a xlink:title=" ">
<polygon fill="#999999" stroke="#666666" points="130,-79.12 0,-79.12 0,-37.38 130,-37.38 130,-79.12"/>
<text text-anchor="start" x="8" y="-65.62" font-family="Helvetica,sans-Serif" font-size="10.00">Slic3r::GUI::GLModel</text>
<text text-anchor="start" x="8" y="-54.38" font-family="Helvetica,sans-Serif" font-size="10.00">::Geometry::reserve_more</text>
<text text-anchor="middle" x="65" y="-43.12" font-family="Helvetica,sans-Serif" font-size="10.00">_vertices</text>
</a>
</g>
</g>
<!-- Node2 -->
<g id="Node000002" class="node">
<title>Node2</title>
<g id="a_Node000002"><a xlink:href="../../de/db8/namespace_slic3r.html#a58e9ff07e15057140c3b7551d95f3cf3" target="_top" xlink:title=" ">
<polygon fill="white" stroke="#666666" points="284.38,-116.5 182.12,-116.5 182.12,-86 284.38,-86 284.38,-116.5"/>
<text text-anchor="start" x="190.12" y="-103" font-family="Helvetica,sans-Serif" font-size="10.00">Slic3r::next_highest</text>
<text text-anchor="middle" x="233.25" y="-91.75" font-family="Helvetica,sans-Serif" font-size="10.00">_power_of_2</text>
</a>
</g>
</g>
<!-- Node1&#45;&gt;Node2 -->
<g id="edge1_Node000001_Node000002" class="edge">
<title>Node1&#45;&gt;Node2</title>
<g id="a_edge1_Node000001_Node000002"><a xlink:title=" ">
<path fill="none" stroke="#63b8ff" d="M130.28,-74.87C143.76,-78.36 157.94,-82.03 171.3,-85.48"/>
<polygon fill="#63b8ff" stroke="#63b8ff" points="170.24,-89.09 180.8,-88.2 172,-82.31 170.24,-89.09"/>
</a>
</g>
</g>
<!-- Node3 -->
<g id="Node000003" class="node">
<title>Node3</title>
<g id="a_Node000003"><a xlink:href="../../d2/d0b/struct_slic3r_1_1_g_u_i_1_1_g_l_model_1_1_geometry.html#aa2961820e12811b0cd3b5a0d66537080" target="_top" xlink:title=" ">
<polygon fill="white" stroke="#666666" points="463.5,-57.12 336.5,-57.12 336.5,-15.38 463.5,-15.38 463.5,-57.12"/>
<text text-anchor="start" x="344.5" y="-43.62" font-family="Helvetica,sans-Serif" font-size="10.00">Slic3r::GUI::GLModel</text>
<text text-anchor="start" x="344.5" y="-32.38" font-family="Helvetica,sans-Serif" font-size="10.00">::Geometry::vertex_stride</text>
<text text-anchor="middle" x="400" y="-21.12" font-family="Helvetica,sans-Serif" font-size="10.00">_floats</text>
</a>
</g>
</g>
<!-- Node1&#45;&gt;Node3 -->
<g id="edge2_Node000001_Node000003" class="edge">
<title>Node1&#45;&gt;Node3</title>
<g id="a_edge2_Node000001_Node000003"><a xlink:title=" ">
<path fill="none" stroke="#63b8ff" d="M130.21,-54.01C186.07,-50.32 267.03,-44.97 325.48,-41.11"/>
<polygon fill="#63b8ff" stroke="#63b8ff" points="325.37,-44.56 335.12,-40.4 324.91,-37.57 325.37,-44.56"/>
</a>
</g>
</g>
<!-- Node7 -->
<g id="Node000007" class="node">
<title>Node7</title>
<g id="a_Node000007"><a xlink:href="../../d2/d0b/struct_slic3r_1_1_g_u_i_1_1_g_l_model_1_1_geometry.html#a90538e4586816392f03433ffe4f99498" target="_top" xlink:title=" ">
<polygon fill="white" stroke="#666666" points="300.5,-30.5 166,-30.5 166,0 300.5,0 300.5,-30.5"/>
<text text-anchor="start" x="174" y="-17" font-family="Helvetica,sans-Serif" font-size="10.00">Slic3r::GUI::GLModel</text>
<text text-anchor="middle" x="233.25" y="-5.75" font-family="Helvetica,sans-Serif" font-size="10.00">::Geometry::vertices_count</text>
</a>
</g>
</g>
<!-- Node1&#45;&gt;Node7 -->
<g id="edge6_Node000001_Node000007" class="edge">
<title>Node1&#45;&gt;Node7</title>
<g id="a_edge6_Node000001_Node000007"><a xlink:title=" ">
<path fill="none" stroke="#63b8ff" d="M130.28,-41.63C140.31,-39.03 150.74,-36.33 160.92,-33.7"/>
<polygon fill="#63b8ff" stroke="#63b8ff" points="161.61,-36.88 170.42,-30.98 159.86,-30.1 161.61,-36.88"/>
</a>
</g>
</g>
<!-- Node4 -->
<g id="Node000004" class="node">
<title>Node4</title>
<g id="a_Node000004"><a xlink:href="../../d9/d45/namespace_slic3r_1_1_g_u_i.html#a931a812146d00b37d0b68093aca9d688" target="_top" xlink:title=" ">
<polygon fill="white" stroke="#666666" points="598,-45.88 499.5,-45.88 499.5,-26.62 598,-26.62 598,-45.88"/>
<text text-anchor="middle" x="548.75" y="-32.38" font-family="Helvetica,sans-Serif" font-size="10.00">Slic3r::GUI::format</text>
</a>
</g>
</g>
<!-- Node3&#45;&gt;Node4 -->
<g id="edge3_Node000003_Node000004" class="edge">
<title>Node3&#45;&gt;Node4</title>
<g id="a_edge3_Node000003_Node000004"><a xlink:title=" ">
<path fill="none" stroke="#63b8ff" d="M463.66,-36.25C471.8,-36.25 480.12,-36.25 488.21,-36.25"/>
<polygon fill="#63b8ff" stroke="#63b8ff" points="488.06,-39.75 498.06,-36.25 488.06,-32.75 488.06,-39.75"/>
</a>
</g>
</g>
<!-- Node5 -->
<g id="Node000005" class="node">
<title>Node5</title>
<g id="a_Node000005"><a xlink:href="../../de/db8/namespace_slic3r.html#ab28c13d286b2d1767d7c63b020ebd042" target="_top" xlink:title=" ">
<polygon fill="white" stroke="#666666" points="708.5,-45.88 634,-45.88 634,-26.62 708.5,-26.62 708.5,-45.88"/>
<text text-anchor="middle" x="671.25" y="-32.38" font-family="Helvetica,sans-Serif" font-size="10.00">Slic3r::format</text>
</a>
</g>
</g>
<!-- Node4&#45;&gt;Node5 -->
<g id="edge4_Node000004_Node000005" class="edge">
<title>Node4&#45;&gt;Node5</title>
<g id="a_edge4_Node000004_Node000005"><a xlink:title=" ">
<path fill="none" stroke="#63b8ff" d="M598.41,-36.25C606.41,-36.25 614.68,-36.25 622.65,-36.25"/>
<polygon fill="#63b8ff" stroke="#63b8ff" points="622.64,-39.75 632.64,-36.25 622.64,-32.75 622.64,-39.75"/>
</a>
</g>
</g>
<!-- Node6 -->
<g id="Node000006" class="node">
<title>Node6</title>
<g id="a_Node000006"><a xlink:href="../../d5/ddc/namespace_slic3r_1_1internal_1_1format.html#a5a8cae6889e58c9be36cd70a9e9987ff" target="_top" xlink:title=" ">
<polygon fill="white" stroke="#666666" points="856.5,-51.5 744.5,-51.5 744.5,-21 856.5,-21 856.5,-51.5"/>
<text text-anchor="start" x="752.5" y="-38" font-family="Helvetica,sans-Serif" font-size="10.00">Slic3r::internal::format</text>
<text text-anchor="middle" x="800.5" y="-26.75" font-family="Helvetica,sans-Serif" font-size="10.00">::format_recursive</text>
</a>
</g>
</g>
<!-- Node5&#45;&gt;Node6 -->
<g id="edge5_Node000005_Node000006" class="edge">
<title>Node5&#45;&gt;Node6</title>
<g id="a_edge5_Node000005_Node000006"><a xlink:title=" ">
<path fill="none" stroke="#63b8ff" d="M708.71,-36.25C716.37,-36.25 724.68,-36.25 733.05,-36.25"/>
<polygon fill="#63b8ff" stroke="#63b8ff" points="733.05,-39.75 743.05,-36.25 733.05,-32.75 733.05,-39.75"/>
</a>
</g>
</g>
<!-- Node7&#45;&gt;Node3 -->
<g id="edge7_Node000007_Node000003" class="edge">
<title>Node7&#45;&gt;Node3</title>
<g id="a_edge7_Node000007_Node000003"><a xlink:title=" ">
<path fill="none" stroke="#63b8ff" d="M300.79,-23.73C308.92,-24.77 317.27,-25.83 325.5,-26.88"/>
<polygon fill="#63b8ff" stroke="#63b8ff" points="324.86,-30.45 335.22,-28.25 325.74,-23.51 324.86,-30.45"/>
</a>
</g>
</g>
</g>
</svg>

<g id="navigator" transform="translate(0 0)" fill="#404254">
  <rect fill="#f2f5e9" fill-opacity="0.5" stroke="#606060" stroke-width=".5" x="0" y="0" width="60" height="60"/>
  <use id="zoomplus" xlink:href="#zoomPlus" x="17" y="9" onmousedown="handleZoom(evt,'in')"/>
  <use id="zoomminus" xlink:href="#zoomMin" x="42" y="9" onmousedown="handleZoom(evt,'out')"/>
  <use id="reset" xlink:href="#resetDef" x="30" y="36" onmousedown="handleReset()"/>
   <use id="arrowup" xlink:href="#arrowUp" x="0" y="0" onmousedown="handlePan(0,-1)"/>
  <use id="arrowright" xlink:href="#arrowRight" x="0" y="0" onmousedown="handlePan(1,0)"/>
  <use id="arrowdown" xlink:href="#arrowDown" x="0" y="0" onmousedown="handlePan(0,1)"/>
  <use id="arrowleft" xlink:href="#arrowLeft" x="0" y="0" onmousedown="handlePan(-1,0)"/>
</g>
<svg viewBox="0 0 15 15" width="100%" height="30px" preserveAspectRatio="xMaxYMin meet">
 <g id="arrow_out" transform="scale(0.3 0.3)">
  <a xlink:href="struct_slic3r_1_1_g_u_i_1_1_g_l_model_1_1_geometry_a51020d1cbe3668858f40daee0dd53ac9_cgraph_org.svg" target="_base">
   <rect id="button" ry="5" rx="5" y="6" x="6" height="38" width="38"
        fill="#f2f5e9" fill-opacity="0.5" stroke="#606060" stroke-width="1.0"/>
   <path id="arrow"
     d="M 11.500037,31.436501 C 11.940474,20.09759 22.043105,11.32322 32.158766,21.979434 L 37.068811,17.246167 C 37.068811,17.246167 37.088388,32 37.088388,32 L 22.160133,31.978069 C 22.160133,31.978069 26.997745,27.140456 26.997745,27.140456 C 18.528582,18.264221 13.291696,25.230495 11.500037,31.436501 z"
     style="fill:#404040;"/>
  </a>
 </g>
</svg>

<style type='text/css'>
<![CDATA[
[data-mouse-over-selected='false'] { opacity: 0.7; }
[data-mouse-over-selected='true']  { opacity: 1.0; }
]]>
</style>
<script type="application/ecmascript"><![CDATA[
document.addEventListener('DOMContentLoaded', (event) => {
  highlightEdges();
  highlightAdjacentNodes();
});
]]></script>
</svg>
