<?xml version="1.0" encoding="UTF-8" standalone="no"?>
<!DOCTYPE svg PUBLIC "-//W3C//DTD SVG 1.1//EN"
 "http://www.w3.org/Graphics/SVG/1.1/DTD/svg11.dtd">
<!-- Generated by graphviz version 8.0.5 (20230430.1635)
 -->
<!-- Title: Slic3r::PresetHints::cooling_description Pages: 1 -->
<svg width="506pt" height="180pt"
 viewBox="0.00 0.00 506.25 179.50" xmlns="http://www.w3.org/2000/svg" xmlns:xlink="http://www.w3.org/1999/xlink">
<g id="graph0" class="graph" transform="scale(1 1) rotate(0) translate(4 175.5)">
<title>Slic3r::PresetHints::cooling_description</title>
<!-- Node1 -->
<g id="Node000001" class="node">
<title>Node1</title>
<g id="a_Node000001"><a xlink:title=" ">
<polygon fill="#999999" stroke="#666666" points="105.25,-103.5 0,-103.5 0,-73 105.25,-73 105.25,-103.5"/>
<text text-anchor="start" x="8" y="-90" font-family="Helvetica,sans-Serif" font-size="10.00">Slic3r::PresetHints</text>
<text text-anchor="middle" x="52.62" y="-78.75" font-family="Helvetica,sans-Serif" font-size="10.00">::cooling_description</text>
</a>
</g>
</g>
<!-- Node2 -->
<g id="Node000002" class="node">
<title>Node2</title>
<g id="a_Node000002"><a xlink:href="../../d9/d45/namespace_slic3r_1_1_g_u_i.html#a931a812146d00b37d0b68093aca9d688" target="_top" xlink:title=" ">
<polygon fill="white" stroke="#666666" points="239.75,-165.88 141.25,-165.88 141.25,-146.62 239.75,-146.62 239.75,-165.88"/>
<text text-anchor="middle" x="190.5" y="-152.38" font-family="Helvetica,sans-Serif" font-size="10.00">Slic3r::GUI::format</text>
</a>
</g>
</g>
<!-- Node1&#45;&gt;Node2 -->
<g id="edge1_Node000001_Node000002" class="edge">
<title>Node1&#45;&gt;Node2</title>
<g id="a_edge1_Node000001_Node000002"><a xlink:title=" ">
<path fill="none" stroke="#63b8ff" d="M79.6,-103.99C96.78,-114.1 119.99,-127.17 141.25,-137.25 144.65,-138.86 148.22,-140.45 151.82,-141.98"/>
<polygon fill="#63b8ff" stroke="#63b8ff" points="150.34,-145.57 160.92,-146.13 153,-139.1 150.34,-145.57"/>
</a>
</g>
</g>
<!-- Node5 -->
<g id="Node000005" class="node">
<title>Node5</title>
<g id="a_Node000005"><a xlink:href="../../d9/d06/class_slic3r_1_1_config_base.html#ad0cea69963e4cb14ee853abb5f60e3ea" target="_top" xlink:title=" ">
<polygon fill="white" stroke="#666666" points="239.38,-128.5 141.62,-128.5 141.62,-98 239.38,-98 239.38,-128.5"/>
<text text-anchor="start" x="149.62" y="-115" font-family="Helvetica,sans-Serif" font-size="10.00">Slic3r::ConfigBase</text>
<text text-anchor="middle" x="190.5" y="-103.75" font-family="Helvetica,sans-Serif" font-size="10.00">::opt_bool</text>
</a>
</g>
</g>
<!-- Node1&#45;&gt;Node5 -->
<g id="edge4_Node000001_Node000005" class="edge">
<title>Node1&#45;&gt;Node5</title>
<g id="a_edge4_Node000001_Node000005"><a xlink:title=" ">
<path fill="none" stroke="#63b8ff" d="M105.38,-97.77C113.71,-99.31 122.39,-100.9 130.87,-102.46"/>
<polygon fill="#63b8ff" stroke="#63b8ff" points="129.99,-106.04 140.46,-104.41 131.26,-99.16 129.99,-106.04"/>
</a>
</g>
</g>
<!-- Node6 -->
<g id="Node000006" class="node">
<title>Node6</title>
<g id="a_Node000006"><a xlink:href="../../d9/d06/class_slic3r_1_1_config_base.html#a344e3082513179351024a173f5a71f26" target="_top" xlink:title=" ">
<polygon fill="white" stroke="#666666" points="239.38,-79.5 141.62,-79.5 141.62,-49 239.38,-49 239.38,-79.5"/>
<text text-anchor="start" x="149.62" y="-66" font-family="Helvetica,sans-Serif" font-size="10.00">Slic3r::ConfigBase</text>
<text text-anchor="middle" x="190.5" y="-54.75" font-family="Helvetica,sans-Serif" font-size="10.00">::opt_float</text>
</a>
</g>
</g>
<!-- Node1&#45;&gt;Node6 -->
<g id="edge5_Node000001_Node000006" class="edge">
<title>Node1&#45;&gt;Node6</title>
<g id="a_edge5_Node000001_Node000006"><a xlink:title=" ">
<path fill="none" stroke="#63b8ff" d="M105.38,-79.11C113.71,-77.64 122.39,-76.1 130.87,-74.61"/>
<polygon fill="#63b8ff" stroke="#63b8ff" points="131.22,-77.92 140.46,-72.73 130.01,-71.03 131.22,-77.92"/>
</a>
</g>
</g>
<!-- Node7 -->
<g id="Node000007" class="node">
<title>Node7</title>
<g id="a_Node000007"><a xlink:href="../../d9/d06/class_slic3r_1_1_config_base.html#a993fce2c8ab6538a761402e88ec2a2cb" target="_top" xlink:title=" ">
<polygon fill="white" stroke="#666666" points="239.38,-30.5 141.62,-30.5 141.62,0 239.38,0 239.38,-30.5"/>
<text text-anchor="start" x="149.62" y="-17" font-family="Helvetica,sans-Serif" font-size="10.00">Slic3r::ConfigBase</text>
<text text-anchor="middle" x="190.5" y="-5.75" font-family="Helvetica,sans-Serif" font-size="10.00">::opt_int</text>
</a>
</g>
</g>
<!-- Node1&#45;&gt;Node7 -->
<g id="edge6_Node000001_Node000007" class="edge">
<title>Node1&#45;&gt;Node7</title>
<g id="a_edge6_Node000001_Node000007"><a xlink:title=" ">
<path fill="none" stroke="#63b8ff" d="M81.95,-72.52C99.06,-63.07 121.35,-50.85 141.25,-40.25 143.94,-38.82 146.73,-37.34 149.53,-35.87"/>
<polygon fill="#63b8ff" stroke="#63b8ff" points="150.83,-38.61 158.07,-30.88 147.59,-32.41 150.83,-38.61"/>
</a>
</g>
</g>
<!-- Node3 -->
<g id="Node000003" class="node">
<title>Node3</title>
<g id="a_Node000003"><a xlink:href="../../de/db8/namespace_slic3r.html#ab28c13d286b2d1767d7c63b020ebd042" target="_top" xlink:title=" ">
<polygon fill="white" stroke="#666666" points="350.25,-165.88 275.75,-165.88 275.75,-146.62 350.25,-146.62 350.25,-165.88"/>
<text text-anchor="middle" x="313" y="-152.38" font-family="Helvetica,sans-Serif" font-size="10.00">Slic3r::format</text>
</a>
</g>
</g>
<!-- Node2&#45;&gt;Node3 -->
<g id="edge2_Node000002_Node000003" class="edge">
<title>Node2&#45;&gt;Node3</title>
<g id="a_edge2_Node000002_Node000003"><a xlink:title=" ">
<path fill="none" stroke="#63b8ff" d="M240.16,-156.25C248.16,-156.25 256.43,-156.25 264.4,-156.25"/>
<polygon fill="#63b8ff" stroke="#63b8ff" points="264.39,-159.75 274.39,-156.25 264.39,-152.75 264.39,-159.75"/>
</a>
</g>
</g>
<!-- Node4 -->
<g id="Node000004" class="node">
<title>Node4</title>
<g id="a_Node000004"><a xlink:href="../../d5/ddc/namespace_slic3r_1_1internal_1_1format.html#a5a8cae6889e58c9be36cd70a9e9987ff" target="_top" xlink:title=" ">
<polygon fill="white" stroke="#666666" points="498.25,-171.5 386.25,-171.5 386.25,-141 498.25,-141 498.25,-171.5"/>
<text text-anchor="start" x="394.25" y="-158" font-family="Helvetica,sans-Serif" font-size="10.00">Slic3r::internal::format</text>
<text text-anchor="middle" x="442.25" y="-146.75" font-family="Helvetica,sans-Serif" font-size="10.00">::format_recursive</text>
</a>
</g>
</g>
<!-- Node3&#45;&gt;Node4 -->
<g id="edge3_Node000003_Node000004" class="edge">
<title>Node3&#45;&gt;Node4</title>
<g id="a_edge3_Node000003_Node000004"><a xlink:title=" ">
<path fill="none" stroke="#63b8ff" d="M350.46,-156.25C358.12,-156.25 366.43,-156.25 374.8,-156.25"/>
<polygon fill="#63b8ff" stroke="#63b8ff" points="374.8,-159.75 384.8,-156.25 374.8,-152.75 374.8,-159.75"/>
</a>
</g>
</g>
</g>
</svg>
