<?xml version="1.0" encoding="UTF-8" standalone="no"?>
<!DOCTYPE svg PUBLIC "-//W3C//DTD SVG 1.1//EN"
 "http://www.w3.org/Graphics/SVG/1.1/DTD/svg11.dtd">
<!-- Generated by graphviz version 8.0.5 (20230430.1635)
 -->
<!-- Title: Slic3r::GUI::GCodeViewer::set_view_type Pages: 1 -->
<svg width="954pt" height="162pt"
 viewBox="0.00 0.00 953.75 161.50" xmlns="http://www.w3.org/2000/svg" xmlns:xlink="http://www.w3.org/1999/xlink">
<g id="graph0" class="graph" transform="scale(1 1) rotate(0) translate(4 157.5)">
<title>Slic3r::GUI::GCodeViewer::set_view_type</title>
<!-- Node1 -->
<g id="Node000001" class="node">
<title>Node1</title>
<g id="a_Node000001"><a xlink:title=" ">
<polygon fill="#999999" stroke="#666666" points="945.75,-79.5 814.25,-79.5 814.25,-49 945.75,-49 945.75,-79.5"/>
<text text-anchor="start" x="822.25" y="-66" font-family="Helvetica,sans-Serif" font-size="10.00">Slic3r::GUI::GCodeViewer</text>
<text text-anchor="middle" x="880" y="-54.75" font-family="Helvetica,sans-Serif" font-size="10.00">::set_view_type</text>
</a>
</g>
</g>
<!-- Node2 -->
<g id="Node000002" class="node">
<title>Node2</title>
<g id="a_Node000002"><a xlink:href="../../de/dc3/class_slic3r_1_1_g_u_i_1_1_g_code_viewer.html#a61be19afa88c555fe3ec927e33c32b0f" target="_top" xlink:title=" ">
<polygon fill="white" stroke="#666666" points="766.25,-128.5 634.75,-128.5 634.75,-98 766.25,-98 766.25,-128.5"/>
<text text-anchor="start" x="642.75" y="-115" font-family="Helvetica,sans-Serif" font-size="10.00">Slic3r::GUI::GCodeViewer</text>
<text text-anchor="middle" x="700.5" y="-103.75" font-family="Helvetica,sans-Serif" font-size="10.00">::render_legend</text>
</a>
</g>
</g>
<!-- Node1&#45;&gt;Node2 -->
<g id="edge1_Node000001_Node000002" class="edge">
<title>Node1&#45;&gt;Node2</title>
<g id="a_edge1_Node000001_Node000002"><a xlink:title=" ">
<path fill="none" stroke="#63b8ff" d="M812.12,-82.71C794.48,-87.58 775.6,-92.79 758.53,-97.51"/>
<polygon fill="#63b8ff" stroke="#63b8ff" points="812.64,-85.92 821.35,-79.89 810.78,-79.18 812.64,-85.92"/>
</a>
</g>
</g>
<!-- Node4 -->
<g id="Node000004" class="node">
<title>Node4</title>
<g id="a_Node000004"><a xlink:href="../../d0/d2b/class_slic3r_1_1_g_u_i_1_1_g_l_canvas3_d.html#a97fb28fce366f35443496b0b01a9a4e9" target="_top" xlink:title=" ">
<polygon fill="white" stroke="#666666" points="778.25,-79.5 622.75,-79.5 622.75,-49 778.25,-49 778.25,-79.5"/>
<text text-anchor="start" x="630.75" y="-66" font-family="Helvetica,sans-Serif" font-size="10.00">Slic3r::GUI::GLCanvas3D</text>
<text text-anchor="middle" x="700.5" y="-54.75" font-family="Helvetica,sans-Serif" font-size="10.00">::set_gcode_view_preview_type</text>
</a>
</g>
</g>
<!-- Node1&#45;&gt;Node4 -->
<g id="edge3_Node000001_Node000004" class="edge">
<title>Node1&#45;&gt;Node4</title>
<g id="a_edge3_Node000001_Node000004"><a xlink:title=" ">
<path fill="none" stroke="#63b8ff" d="M803.01,-64.25C794.93,-64.25 786.71,-64.25 778.62,-64.25"/>
<polygon fill="#63b8ff" stroke="#63b8ff" points="802.91,-67.75 812.91,-64.25 802.91,-60.75 802.91,-67.75"/>
</a>
</g>
</g>
<!-- Node13 -->
<g id="Node000013" class="node">
<title>Node13</title>
<g id="a_Node000013"><a xlink:href="../../d0/d2b/class_slic3r_1_1_g_u_i_1_1_g_l_canvas3_d.html#a7fbe2c4649f843a699bb6bf9ba4bca2c" target="_top" xlink:title=" ">
<polygon fill="white" stroke="#666666" points="765.5,-30.5 635.5,-30.5 635.5,0 765.5,0 765.5,-30.5"/>
<text text-anchor="start" x="643.5" y="-17" font-family="Helvetica,sans-Serif" font-size="10.00">Slic3r::GUI::GLCanvas3D</text>
<text text-anchor="middle" x="700.5" y="-5.75" font-family="Helvetica,sans-Serif" font-size="10.00">::set_toolpath_view_type</text>
</a>
</g>
</g>
<!-- Node1&#45;&gt;Node13 -->
<g id="edge12_Node000001_Node000013" class="edge">
<title>Node1&#45;&gt;Node13</title>
<g id="a_edge12_Node000001_Node000013"><a xlink:title=" ">
<path fill="none" stroke="#63b8ff" d="M812.12,-45.79C794.48,-40.92 775.6,-35.71 758.53,-30.99"/>
<polygon fill="#63b8ff" stroke="#63b8ff" points="810.78,-49.32 821.35,-48.61 812.64,-42.58 810.78,-49.32"/>
</a>
</g>
</g>
<!-- Node3 -->
<g id="Node000003" class="node">
<title>Node3</title>
<g id="a_Node000003"><a xlink:href="../../de/dc3/class_slic3r_1_1_g_u_i_1_1_g_code_viewer.html#adcba98dee73d50b1cc6e3ba9076e1e1f" target="_top" xlink:title=" ">
<polygon fill="white" stroke="#666666" points="586.75,-128.5 455.25,-128.5 455.25,-98 586.75,-98 586.75,-128.5"/>
<text text-anchor="start" x="463.25" y="-115" font-family="Helvetica,sans-Serif" font-size="10.00">Slic3r::GUI::GCodeViewer</text>
<text text-anchor="middle" x="521" y="-103.75" font-family="Helvetica,sans-Serif" font-size="10.00">::render</text>
</a>
</g>
</g>
<!-- Node2&#45;&gt;Node3 -->
<g id="edge2_Node000002_Node000003" class="edge">
<title>Node2&#45;&gt;Node3</title>
<g id="a_edge2_Node000002_Node000003"><a xlink:title=" ">
<path fill="none" stroke="#63b8ff" d="M623.42,-113.25C611.32,-113.25 598.9,-113.25 587.08,-113.25"/>
<polygon fill="#63b8ff" stroke="#63b8ff" points="623.41,-116.75 633.41,-113.25 623.41,-109.75 623.41,-116.75"/>
</a>
</g>
</g>
<!-- Node5 -->
<g id="Node000005" class="node">
<title>Node5</title>
<g id="a_Node000005"><a xlink:href="../../de/db8/class_slic3r_1_1_g_u_i_1_1_preview.html#aa0310cf5cc193339965135195c17bef6" target="_top" xlink:title=" ">
<polygon fill="white" stroke="#666666" points="574,-79.5 468,-79.5 468,-49 574,-49 574,-79.5"/>
<text text-anchor="start" x="476" y="-66" font-family="Helvetica,sans-Serif" font-size="10.00">Slic3r::GUI::Preview</text>
<text text-anchor="middle" x="521" y="-54.75" font-family="Helvetica,sans-Serif" font-size="10.00">::load_print_as_fff</text>
</a>
</g>
</g>
<!-- Node4&#45;&gt;Node5 -->
<g id="edge4_Node000004_Node000005" class="edge">
<title>Node4&#45;&gt;Node5</title>
<g id="a_edge4_Node000004_Node000005"><a xlink:title=" ">
<path fill="none" stroke="#63b8ff" d="M611.75,-64.25C599,-64.25 586.23,-64.25 574.49,-64.25"/>
<polygon fill="#63b8ff" stroke="#63b8ff" points="611.42,-67.75 621.42,-64.25 611.42,-60.75 611.42,-67.75"/>
</a>
</g>
</g>
<!-- Node6 -->
<g id="Node000006" class="node">
<title>Node6</title>
<g id="a_Node000006"><a xlink:href="../../de/db8/class_slic3r_1_1_g_u_i_1_1_preview.html#a88a21f54f02a375af2416d2a795dd350" target="_top" xlink:title=" ">
<polygon fill="white" stroke="#666666" points="419.25,-102.5 313.25,-102.5 313.25,-72 419.25,-72 419.25,-102.5"/>
<text text-anchor="start" x="321.25" y="-89" font-family="Helvetica,sans-Serif" font-size="10.00">Slic3r::GUI::Preview</text>
<text text-anchor="middle" x="366.25" y="-77.75" font-family="Helvetica,sans-Serif" font-size="10.00">::load_print</text>
</a>
</g>
</g>
<!-- Node5&#45;&gt;Node6 -->
<g id="edge5_Node000005_Node000006" class="edge">
<title>Node5&#45;&gt;Node6</title>
<g id="a_edge5_Node000005_Node000006"><a xlink:title=" ">
<path fill="none" stroke="#63b8ff" d="M457.09,-73.72C444.65,-75.6 431.72,-77.54 419.67,-79.36"/>
<polygon fill="#63b8ff" stroke="#63b8ff" points="457.49,-77.05 466.86,-72.1 456.45,-70.13 457.49,-77.05"/>
</a>
</g>
</g>
<!-- Node7 -->
<g id="Node000007" class="node">
<title>Node7</title>
<g id="a_Node000007"><a xlink:href="../../de/db8/class_slic3r_1_1_g_u_i_1_1_preview.html#a06a7e7c88b5b95b0b325903be8632d17" target="_top" xlink:title=" ">
<polygon fill="white" stroke="#666666" points="277.25,-104.5 171.25,-104.5 171.25,-74 277.25,-74 277.25,-104.5"/>
<text text-anchor="start" x="179.25" y="-91" font-family="Helvetica,sans-Serif" font-size="10.00">Slic3r::GUI::Preview</text>
<text text-anchor="middle" x="224.25" y="-79.75" font-family="Helvetica,sans-Serif" font-size="10.00">::Preview</text>
</a>
</g>
</g>
<!-- Node6&#45;&gt;Node7 -->
<g id="edge6_Node000006_Node000007" class="edge">
<title>Node6&#45;&gt;Node7</title>
<g id="a_edge6_Node000006_Node000007"><a xlink:title=" ">
<path fill="none" stroke="#63b8ff" d="M302.3,-88.15C293.99,-88.27 285.53,-88.39 277.42,-88.5"/>
<polygon fill="#63b8ff" stroke="#63b8ff" points="302.17,-91.64 312.12,-87.99 302.07,-84.64 302.17,-91.64"/>
</a>
</g>
</g>
<!-- Node8 -->
<g id="Node000008" class="node">
<title>Node8</title>
<g id="a_Node000008"><a xlink:href="../../de/db8/class_slic3r_1_1_g_u_i_1_1_preview.html#ae1c961f58ad547b8b9ff16cb140420ad" target="_top" xlink:title=" ">
<polygon fill="white" stroke="#666666" points="277.25,-55.5 171.25,-55.5 171.25,-25 277.25,-25 277.25,-55.5"/>
<text text-anchor="start" x="179.25" y="-42" font-family="Helvetica,sans-Serif" font-size="10.00">Slic3r::GUI::Preview</text>
<text text-anchor="middle" x="224.25" y="-30.75" font-family="Helvetica,sans-Serif" font-size="10.00">::refresh_print</text>
</a>
</g>
</g>
<!-- Node6&#45;&gt;Node8 -->
<g id="edge7_Node000006_Node000008" class="edge">
<title>Node6&#45;&gt;Node8</title>
<g id="a_edge7_Node000006_Node000008"><a xlink:title=" ">
<path fill="none" stroke="#63b8ff" d="M308.26,-68.12C296.25,-64.09 283.72,-59.88 272.14,-55.99"/>
<polygon fill="#63b8ff" stroke="#63b8ff" points="307.04,-71.74 317.63,-71.6 309.27,-65.1 307.04,-71.74"/>
</a>
</g>
</g>
<!-- Node10 -->
<g id="Node000010" class="node">
<title>Node10</title>
<g id="a_Node000010"><a xlink:href="../../de/db8/class_slic3r_1_1_g_u_i_1_1_preview.html#a61533aa73c8efea48a5ec778ebcf30f6" target="_top" xlink:title=" ">
<polygon fill="white" stroke="#666666" points="277.25,-153.5 171.25,-153.5 171.25,-123 277.25,-123 277.25,-153.5"/>
<text text-anchor="start" x="179.25" y="-140" font-family="Helvetica,sans-Serif" font-size="10.00">Slic3r::GUI::Preview</text>
<text text-anchor="middle" x="224.25" y="-128.75" font-family="Helvetica,sans-Serif" font-size="10.00">::reload_print</text>
</a>
</g>
</g>
<!-- Node6&#45;&gt;Node10 -->
<g id="edge10_Node000006_Node000010" class="edge">
<title>Node6&#45;&gt;Node10</title>
<g id="a_edge10_Node000006_Node000010"><a xlink:title=" ">
<path fill="none" stroke="#63b8ff" d="M311.78,-106.73C297.3,-112 281.82,-117.64 268.01,-122.67"/>
<polygon fill="#63b8ff" stroke="#63b8ff" points="312.91,-109.68 321.1,-102.97 310.51,-103.1 312.91,-109.68"/>
</a>
</g>
</g>
<!-- Node8&#45;&gt;Node5 -->
<g id="edge8_Node000008_Node000005" class="edge">
<title>Node8&#45;&gt;Node5</title>
<g id="a_edge8_Node000008_Node000005"><a xlink:title=" ">
<path fill="none" stroke="#63b8ff" d="M288.33,-45.39C341.77,-49.74 417.5,-55.9 467.64,-59.99"/>
<polygon fill="#63b8ff" stroke="#63b8ff" points="288.86,-41.84 278.61,-44.51 288.3,-48.81 288.86,-41.84"/>
</a>
</g>
</g>
<!-- Node9 -->
<g id="Node000009" class="node">
<title>Node9</title>
<g id="a_Node000009"><a xlink:href="../../de/db8/class_slic3r_1_1_g_u_i_1_1_preview.html#a9a88b1439d8671f5c0681f2160b79866" target="_top" xlink:title=" ">
<polygon fill="white" stroke="#666666" points="120.62,-55.5 14.62,-55.5 14.62,-25 120.62,-25 120.62,-55.5"/>
<text text-anchor="start" x="22.62" y="-42" font-family="Helvetica,sans-Serif" font-size="10.00">Slic3r::GUI::Preview</text>
<text text-anchor="middle" x="67.62" y="-30.75" font-family="Helvetica,sans-Serif" font-size="10.00">::msw_rescale</text>
</a>
</g>
</g>
<!-- Node8&#45;&gt;Node9 -->
<g id="edge9_Node000008_Node000009" class="edge">
<title>Node8&#45;&gt;Node9</title>
<g id="a_edge9_Node000008_Node000009"><a xlink:title=" ">
<path fill="none" stroke="#63b8ff" d="M160.12,-40.25C147.1,-40.25 133.51,-40.25 120.92,-40.25"/>
<polygon fill="#63b8ff" stroke="#63b8ff" points="159.9,-43.75 169.9,-40.25 159.9,-36.75 159.9,-43.75"/>
</a>
</g>
</g>
<!-- Node11 -->
<g id="Node000011" class="node">
<title>Node11</title>
<g id="a_Node000011"><a xlink:href="../../de/db8/class_slic3r_1_1_g_u_i_1_1_preview.html#a8cc5f2f8b5409eeac4986564bc006392" target="_top" xlink:title=" ">
<polygon fill="#fff0f0" stroke="red" points="135.25,-153.5 0,-153.5 0,-123 135.25,-123 135.25,-153.5"/>
<text text-anchor="start" x="8" y="-140" font-family="Helvetica,sans-Serif" font-size="10.00">Slic3r::GUI::Preview</text>
<text text-anchor="middle" x="67.62" y="-128.75" font-family="Helvetica,sans-Serif" font-size="10.00">::create_layers_slider_sizer</text>
</a>
</g>
</g>
<!-- Node10&#45;&gt;Node11 -->
<g id="edge11_Node000010_Node000011" class="edge">
<title>Node10&#45;&gt;Node11</title>
<g id="a_edge11_Node000010_Node000011"><a xlink:title=" ">
<path fill="none" stroke="#63b8ff" d="M160.11,-138.25C152.07,-138.25 143.82,-138.25 135.72,-138.25"/>
<polygon fill="#63b8ff" stroke="#63b8ff" points="159.9,-141.75 169.9,-138.25 159.9,-134.75 159.9,-141.75"/>
</a>
</g>
</g>
</g>
</svg>
