<?xml version="1.0" encoding="UTF-8" standalone="no"?>
<!DOCTYPE svg PUBLIC "-//W3C//DTD SVG 1.1//EN"
 "http://www.w3.org/Graphics/SVG/1.1/DTD/svg11.dtd">
<!-- Generated by graphviz version 8.0.5 (20230430.1635)
 -->
<!-- Title: Slic3r::GUI::GCodeViewer::set_layers_z_range Pages: 1 -->
<svg width="918pt" height="50pt"
 viewBox="0.00 0.00 917.75 49.75" xmlns="http://www.w3.org/2000/svg" xmlns:xlink="http://www.w3.org/1999/xlink">
<g id="graph0" class="graph" transform="scale(1 1) rotate(0) translate(4 45.75)">
<title>Slic3r::GUI::GCodeViewer::set_layers_z_range</title>
<!-- Node1 -->
<g id="Node000001" class="node">
<title>Node1</title>
<g id="a_Node000001"><a xlink:title=" ">
<polygon fill="#999999" stroke="#666666" points="909.75,-36.12 778.25,-36.12 778.25,-5.62 909.75,-5.62 909.75,-36.12"/>
<text text-anchor="start" x="786.25" y="-22.62" font-family="Helvetica,sans-Serif" font-size="10.00">Slic3r::GUI::GCodeViewer</text>
<text text-anchor="middle" x="844" y="-11.38" font-family="Helvetica,sans-Serif" font-size="10.00">::set_layers_z_range</text>
</a>
</g>
</g>
<!-- Node2 -->
<g id="Node000002" class="node">
<title>Node2</title>
<g id="a_Node000002"><a xlink:href="../../d0/d2b/class_slic3r_1_1_g_u_i_1_1_g_l_canvas3_d.html#a4aa29fd846388461039c3367e3a4623d" target="_top" xlink:title=" ">
<polygon fill="white" stroke="#666666" points="742.25,-36.12 612.25,-36.12 612.25,-5.62 742.25,-5.62 742.25,-36.12"/>
<text text-anchor="start" x="620.25" y="-22.62" font-family="Helvetica,sans-Serif" font-size="10.00">Slic3r::GUI::GLCanvas3D</text>
<text text-anchor="middle" x="677.25" y="-11.38" font-family="Helvetica,sans-Serif" font-size="10.00">::set_toolpaths_z_range</text>
</a>
</g>
</g>
<!-- Node1&#45;&gt;Node2 -->
<g id="edge1_Node000001_Node000002" class="edge">
<title>Node1&#45;&gt;Node2</title>
<g id="a_edge1_Node000001_Node000002"><a xlink:title=" ">
<path fill="none" stroke="#63b8ff" d="M766.9,-20.88C758.78,-20.88 750.58,-20.88 742.62,-20.88"/>
<polygon fill="#63b8ff" stroke="#63b8ff" points="766.89,-24.38 776.89,-20.88 766.89,-17.38 766.89,-24.38"/>
</a>
</g>
</g>
<!-- Node3 -->
<g id="Node000003" class="node">
<title>Node3</title>
<g id="a_Node000003"><a xlink:href="../../de/db8/class_slic3r_1_1_g_u_i_1_1_preview.html#a4797cc8c745053fac39d56d6de6b0e75" target="_top" xlink:title=" ">
<polygon fill="white" stroke="#666666" points="576.25,-41.75 455.25,-41.75 455.25,0 576.25,0 576.25,-41.75"/>
<text text-anchor="start" x="463.25" y="-28.25" font-family="Helvetica,sans-Serif" font-size="10.00">Slic3r::GUI::Preview</text>
<text text-anchor="start" x="463.25" y="-17" font-family="Helvetica,sans-Serif" font-size="10.00">::on_layers_slider_scroll</text>
<text text-anchor="middle" x="515.75" y="-5.75" font-family="Helvetica,sans-Serif" font-size="10.00">_changed</text>
</a>
</g>
</g>
<!-- Node2&#45;&gt;Node3 -->
<g id="edge2_Node000002_Node000003" class="edge">
<title>Node2&#45;&gt;Node3</title>
<g id="a_edge2_Node000002_Node000003"><a xlink:title=" ">
<path fill="none" stroke="#63b8ff" d="M601.07,-20.88C592.83,-20.88 584.52,-20.88 576.5,-20.88"/>
<polygon fill="#63b8ff" stroke="#63b8ff" points="600.84,-24.38 610.83,-20.88 600.83,-17.38 600.84,-24.38"/>
</a>
</g>
</g>
<!-- Node4 -->
<g id="Node000004" class="node">
<title>Node4</title>
<g id="a_Node000004"><a xlink:href="../../de/db8/class_slic3r_1_1_g_u_i_1_1_preview.html#a8cc5f2f8b5409eeac4986564bc006392" target="_top" xlink:title=" ">
<polygon fill="white" stroke="#666666" points="419.25,-36.12 284,-36.12 284,-5.62 419.25,-5.62 419.25,-36.12"/>
<text text-anchor="start" x="292" y="-22.62" font-family="Helvetica,sans-Serif" font-size="10.00">Slic3r::GUI::Preview</text>
<text text-anchor="middle" x="351.62" y="-11.38" font-family="Helvetica,sans-Serif" font-size="10.00">::create_layers_slider_sizer</text>
</a>
</g>
</g>
<!-- Node3&#45;&gt;Node4 -->
<g id="edge3_Node000003_Node000004" class="edge">
<title>Node3&#45;&gt;Node4</title>
<g id="a_edge3_Node000003_Node000004"><a xlink:title=" ">
<path fill="none" stroke="#63b8ff" d="M443.95,-20.88C435.89,-20.88 427.68,-20.88 419.66,-20.88"/>
<polygon fill="#63b8ff" stroke="#63b8ff" points="443.84,-24.38 453.84,-20.88 443.84,-17.38 443.84,-24.38"/>
</a>
</g>
</g>
<!-- Node5 -->
<g id="Node000005" class="node">
<title>Node5</title>
<g id="a_Node000005"><a xlink:href="../../de/db8/class_slic3r_1_1_g_u_i_1_1_preview.html#aed13066dc8c70121d942e55822d80c28" target="_top" xlink:title=" ">
<polygon fill="white" stroke="#666666" points="248,-36.12 142,-36.12 142,-5.62 248,-5.62 248,-36.12"/>
<text text-anchor="start" x="150" y="-22.62" font-family="Helvetica,sans-Serif" font-size="10.00">Slic3r::GUI::Preview</text>
<text text-anchor="middle" x="195" y="-11.38" font-family="Helvetica,sans-Serif" font-size="10.00">::init</text>
</a>
</g>
</g>
<!-- Node4&#45;&gt;Node5 -->
<g id="edge4_Node000004_Node000005" class="edge">
<title>Node4&#45;&gt;Node5</title>
<g id="a_edge4_Node000004_Node000005"><a xlink:title=" ">
<path fill="none" stroke="#63b8ff" d="M272.75,-20.88C264.4,-20.88 256.05,-20.88 248.11,-20.88"/>
<polygon fill="#63b8ff" stroke="#63b8ff" points="272.7,-24.38 282.7,-20.88 272.7,-17.38 272.7,-24.38"/>
</a>
</g>
</g>
<!-- Node6 -->
<g id="Node000006" class="node">
<title>Node6</title>
<g id="a_Node000006"><a xlink:href="../../de/db8/class_slic3r_1_1_g_u_i_1_1_preview.html#a06a7e7c88b5b95b0b325903be8632d17" target="_top" xlink:title=" ">
<polygon fill="white" stroke="#666666" points="106,-36.12 0,-36.12 0,-5.62 106,-5.62 106,-36.12"/>
<text text-anchor="start" x="8" y="-22.62" font-family="Helvetica,sans-Serif" font-size="10.00">Slic3r::GUI::Preview</text>
<text text-anchor="middle" x="53" y="-11.38" font-family="Helvetica,sans-Serif" font-size="10.00">::Preview</text>
</a>
</g>
</g>
<!-- Node5&#45;&gt;Node6 -->
<g id="edge5_Node000005_Node000006" class="edge">
<title>Node5&#45;&gt;Node6</title>
<g id="a_edge5_Node000005_Node000006"><a xlink:title=" ">
<path fill="none" stroke="#63b8ff" d="M131.05,-20.88C122.74,-20.88 114.28,-20.88 106.17,-20.88"/>
<polygon fill="#63b8ff" stroke="#63b8ff" points="130.87,-24.38 140.87,-20.88 130.87,-17.38 130.87,-24.38"/>
</a>
</g>
</g>
</g>
</svg>
