<?xml version="1.0" encoding="UTF-8" standalone="no"?>
<!DOCTYPE svg PUBLIC "-//W3C//DTD SVG 1.1//EN"
 "http://www.w3.org/Graphics/SVG/1.1/DTD/svg11.dtd">
<!-- Generated by graphviz version 8.0.5 (20230430.1635)
 -->
<!-- Title: Eigen::ParametrizedLine::intersectionParameter Pages: 1 -->
<!--zoomable 137 -->

<svg id="main" version="1.1" xmlns="http://www.w3.org/2000/svg" xmlns:xlink="http://www.w3.org/1999/xlink" xml:space="preserve" onload="init(evt)">
<style type="text/css"><![CDATA[
.node, .edge {opacity: 0.7;}
.node.selected, .edge.selected {opacity: 1;}
.edge:hover path { stroke: red; }
.edge:hover polygon { stroke: red; fill: red; }
]]></style>

<defs>
  <circle id="rim" cx="0" cy="0" r="7"/>
  <circle id="rim2" cx="0" cy="0" r="3.5"/>
  <g id="zoomPlus">
    <use xlink:href="#rim" fill="#404040"><set attributeName="fill" to="#808080" begin="zoomplus.mouseover" end="zoomplus.mouseout"/></use>
    <path d="M-4,0h8M0,-4v8" fill="none" stroke="white" stroke-width="1.5" pointer-events="none"/>
  </g>
  <g id="zoomMin">
    <use xlink:href="#rim" fill="#404040"><set attributeName="fill" to="#808080" begin="zoomminus.mouseover" end="zoomminus.mouseout"/></use>
    <path d="M-4,0h8" fill="none" stroke="white" stroke-width="1.5" pointer-events="none"/>
  </g>
  <g id="arrowUp" transform="translate(30 24)">
    <use xlink:href="#rim"/>
    <path pointer-events="none" fill="none" stroke="white" stroke-width="1.5" d="M0,-3.0v7 M-2.5,-0.5L0,-3.0L2.5,-0.5"/>
  </g>
  <g id="arrowRight" transform="rotate(90) translate(36 -43)">
    <use xlink:href="#rim"/>
    <path pointer-events="none" fill="none" stroke="white" stroke-width="1.5" d="M0,-3.0v7 M-2.5,-0.5L0,-3.0L2.5,-0.5"/>
  </g>
  <g id="arrowDown" transform="rotate(180) translate(-30 -48)">
    <use xlink:href="#rim"/>
    <path pointer-events="none" fill="none" stroke="white" stroke-width="1.5" d="M0,-3.0v7 M-2.5,-0.5L0,-3.0L2.5,-0.5"/>
  </g>
  <g id="arrowLeft" transform="rotate(270) translate(-36 17)">
    <use xlink:href="#rim"/>
    <path pointer-events="none" fill="none" stroke="white" stroke-width="1.5" d="M0,-3.0v7 M-2.5,-0.5L0,-3.0L2.5,-0.5"/>
  </g>
  <g id="resetDef">
    <use xlink:href="#rim2" fill="#404040"><set attributeName="fill" to="#808080" begin="reset.mouseover" end="reset.mouseout"/></use>
  </g>
</defs>
<script type="application/ecmascript">
var viewWidth = 569;
var viewHeight = 137;
var sectionId = 'dynsection-134';
</script>
<script type="application/ecmascript" xlink:href="../../svg.min.js"/>
<svg id="graph" class="graph">
<g id="viewport">
<title>Eigen::ParametrizedLine::intersectionParameter</title>
<!-- Node1 -->
<g id="Node000001" class="node">
<title>Node1</title>
<g id="a_Node000001"><a xlink:title=" ">
<polygon fill="#999999" stroke="#666666" points="122.5,-103.5 0,-103.5 0,-73 122.5,-73 122.5,-103.5"/>
<text text-anchor="start" x="8" y="-90" font-family="Helvetica,sans-Serif" font-size="10.00">Eigen::ParametrizedLine</text>
<text text-anchor="middle" x="61.25" y="-78.75" font-family="Helvetica,sans-Serif" font-size="10.00">::intersectionParameter</text>
</a>
</g>
</g>
<!-- Node2 -->
<g id="Node000002" class="node">
<title>Node2</title>
<g id="a_Node000002"><a xlink:href="../../d5/d00/group___geometry___module.html#ad3da930fc7025604f2f174651089b2a8" target="_top" xlink:title=" ">
<polygon fill="white" stroke="#666666" points="260.75,-128.5 158.5,-128.5 158.5,-98 260.75,-98 260.75,-128.5"/>
<text text-anchor="start" x="166.5" y="-115" font-family="Helvetica,sans-Serif" font-size="10.00">Eigen::Hyperplane::</text>
<text text-anchor="middle" x="209.62" y="-103.75" font-family="Helvetica,sans-Serif" font-size="10.00">normal</text>
</a>
</g>
</g>
<!-- Node1&#45;&gt;Node2 -->
<g id="edge1_Node000001_Node000002" class="edge">
<title>Node1&#45;&gt;Node2</title>
<g id="a_edge1_Node000001_Node000002"><a xlink:title=" ">
<path fill="none" stroke="#63b8ff" d="M122.63,-98.56C130.84,-99.97 139.28,-101.41 147.51,-102.81"/>
<polygon fill="#63b8ff" stroke="#63b8ff" points="146.72,-106.4 157.16,-104.63 147.9,-99.5 146.72,-106.4"/>
</a>
</g>
</g>
<!-- Node4 -->
<g id="Node000004" class="node">
<title>Node4</title>
<g id="a_Node000004"><a xlink:href="../../d5/d00/group___geometry___module.html#a9efc1969722cf1fbf99cef65e2463d74" target="_top" xlink:title=" ">
<polygon fill="white" stroke="#666666" points="260.75,-79.5 158.5,-79.5 158.5,-49 260.75,-49 260.75,-79.5"/>
<text text-anchor="start" x="166.5" y="-66" font-family="Helvetica,sans-Serif" font-size="10.00">Eigen::Hyperplane::</text>
<text text-anchor="middle" x="209.62" y="-54.75" font-family="Helvetica,sans-Serif" font-size="10.00">offset</text>
</a>
</g>
</g>
<!-- Node1&#45;&gt;Node4 -->
<g id="edge3_Node000001_Node000004" class="edge">
<title>Node1&#45;&gt;Node4</title>
<g id="a_edge3_Node000001_Node000004"><a xlink:title=" ">
<path fill="none" stroke="#63b8ff" d="M122.63,-78.35C130.84,-77 139.28,-75.62 147.51,-74.27"/>
<polygon fill="#63b8ff" stroke="#63b8ff" points="147.86,-77.6 157.16,-72.52 146.73,-70.69 147.86,-77.6"/>
</a>
</g>
</g>
<!-- Node3 -->
<g id="Node000003" class="node">
<title>Node3</title>
<g id="a_Node000003"><a xlink:href="../../d5/d00/group___geometry___module.html#a44f0dab75a838cdadf1df9150648b8ed" target="_top" xlink:title=" ">
<polygon fill="white" stroke="#666666" points="415.5,-119.88 297.5,-119.88 297.5,-100.62 415.5,-100.62 415.5,-119.88"/>
<text text-anchor="middle" x="356.5" y="-106.38" font-family="Helvetica,sans-Serif" font-size="10.00">Eigen::Hyperplane::dim</text>
</a>
</g>
</g>
<!-- Node2&#45;&gt;Node3 -->
<g id="edge2_Node000002_Node000003" class="edge">
<title>Node2&#45;&gt;Node3</title>
<g id="a_edge2_Node000002_Node000003"><a xlink:title=" ">
<path fill="none" stroke="#63b8ff" d="M260.89,-112.21C269.11,-112.04 277.74,-111.86 286.32,-111.68"/>
<polygon fill="#63b8ff" stroke="#63b8ff" points="286.19,-115.17 296.12,-111.46 286.05,-108.17 286.19,-115.17"/>
</a>
</g>
</g>
<!-- Node4&#45;&gt;Node3 -->
<g id="edge8_Node000004_Node000003" class="edge">
<title>Node4&#45;&gt;Node3</title>
<g id="a_edge8_Node000004_Node000003"><a xlink:title=" ">
<path fill="none" stroke="#63b8ff" d="M260.08,-79.95C277.59,-85.51 297.1,-91.71 313.9,-97.04"/>
<polygon fill="#63b8ff" stroke="#63b8ff" points="312.37,-100.55 322.96,-100.24 314.49,-93.87 312.37,-100.55"/>
</a>
</g>
</g>
<!-- Node5 -->
<g id="Node000005" class="node">
<title>Node5</title>
<g id="a_Node000005"><a xlink:href="../../da/d8d/class_eigen_1_1_plain_object_base.html#aa5a84a35bf7dc5c42abf4a3e9fde222c" target="_top" xlink:title=" ">
<polygon fill="white" stroke="#666666" points="416.25,-79.5 296.75,-79.5 296.75,-49 416.25,-49 416.25,-79.5"/>
<text text-anchor="start" x="304.75" y="-66" font-family="Helvetica,sans-Serif" font-size="10.00">Eigen::PlainObjectBase</text>
<text text-anchor="middle" x="356.5" y="-54.75" font-family="Helvetica,sans-Serif" font-size="10.00">::coeff</text>
</a>
</g>
</g>
<!-- Node4&#45;&gt;Node5 -->
<g id="edge4_Node000004_Node000005" class="edge">
<title>Node4&#45;&gt;Node5</title>
<g id="a_edge4_Node000004_Node000005"><a xlink:title=" ">
<path fill="none" stroke="#63b8ff" d="M260.89,-64.25C268.84,-64.25 277.19,-64.25 285.5,-64.25"/>
<polygon fill="#63b8ff" stroke="#63b8ff" points="285.36,-67.75 295.36,-64.25 285.36,-60.75 285.36,-67.75"/>
</a>
</g>
</g>
<!-- Node6 -->
<g id="Node000006" class="node">
<title>Node6</title>
<g id="a_Node000006"><a xlink:href="../../d5/d91/class_eigen_1_1_dense_storage.html#aef23781f9dc545e8b3f6b75d6c05d777" target="_top" xlink:title=" ">
<polygon fill="white" stroke="#666666" points="561.25,-128.5 452.25,-128.5 452.25,-98 561.25,-98 561.25,-128.5"/>
<text text-anchor="start" x="460.25" y="-115" font-family="Helvetica,sans-Serif" font-size="10.00">Eigen::DenseStorage</text>
<text text-anchor="middle" x="506.75" y="-103.75" font-family="Helvetica,sans-Serif" font-size="10.00">::cols</text>
</a>
</g>
</g>
<!-- Node5&#45;&gt;Node6 -->
<g id="edge5_Node000005_Node000006" class="edge">
<title>Node5&#45;&gt;Node6</title>
<g id="a_edge5_Node000005_Node000006"><a xlink:title=" ">
<path fill="none" stroke="#63b8ff" d="M404.81,-79.89C418.52,-84.42 433.64,-89.42 447.91,-94.13"/>
<polygon fill="#63b8ff" stroke="#63b8ff" points="446.53,-97.69 457.12,-97.51 448.73,-91.05 446.53,-97.69"/>
</a>
</g>
</g>
<!-- Node7 -->
<g id="Node000007" class="node">
<title>Node7</title>
<g id="a_Node000007"><a xlink:href="../../d5/d91/class_eigen_1_1_dense_storage.html#abdbbeb487a245756ac498d2590e3560a" target="_top" xlink:title=" ">
<polygon fill="white" stroke="#666666" points="561.25,-79.5 452.25,-79.5 452.25,-49 561.25,-49 561.25,-79.5"/>
<text text-anchor="start" x="460.25" y="-66" font-family="Helvetica,sans-Serif" font-size="10.00">Eigen::DenseStorage</text>
<text text-anchor="middle" x="506.75" y="-54.75" font-family="Helvetica,sans-Serif" font-size="10.00">::data</text>
</a>
</g>
</g>
<!-- Node5&#45;&gt;Node7 -->
<g id="edge6_Node000005_Node000007" class="edge">
<title>Node5&#45;&gt;Node7</title>
<g id="a_edge6_Node000005_Node000007"><a xlink:title=" ">
<path fill="none" stroke="#63b8ff" d="M416.52,-64.25C424.72,-64.25 433.17,-64.25 441.46,-64.25"/>
<polygon fill="#63b8ff" stroke="#63b8ff" points="441.22,-67.75 451.22,-64.25 441.22,-60.75 441.22,-67.75"/>
</a>
</g>
</g>
<!-- Node8 -->
<g id="Node000008" class="node">
<title>Node8</title>
<g id="a_Node000008"><a xlink:href="../../d5/d91/class_eigen_1_1_dense_storage.html#a14b68f709f5fb46eeebb203266cc29b2" target="_top" xlink:title=" ">
<polygon fill="white" stroke="#666666" points="561.25,-30.5 452.25,-30.5 452.25,0 561.25,0 561.25,-30.5"/>
<text text-anchor="start" x="460.25" y="-17" font-family="Helvetica,sans-Serif" font-size="10.00">Eigen::DenseStorage</text>
<text text-anchor="middle" x="506.75" y="-5.75" font-family="Helvetica,sans-Serif" font-size="10.00">::rows</text>
</a>
</g>
</g>
<!-- Node5&#45;&gt;Node8 -->
<g id="edge7_Node000005_Node000008" class="edge">
<title>Node5&#45;&gt;Node8</title>
<g id="a_edge7_Node000005_Node000008"><a xlink:title=" ">
<path fill="none" stroke="#63b8ff" d="M404.81,-48.61C418.52,-44.08 433.64,-39.08 447.91,-34.37"/>
<polygon fill="#63b8ff" stroke="#63b8ff" points="448.73,-37.45 457.12,-30.99 446.53,-30.81 448.73,-37.45"/>
</a>
</g>
</g>
</g>
</svg>

<g id="navigator" transform="translate(0 0)" fill="#404254">
  <rect fill="#f2f5e9" fill-opacity="0.5" stroke="#606060" stroke-width=".5" x="0" y="0" width="60" height="60"/>
  <use id="zoomplus" xlink:href="#zoomPlus" x="17" y="9" onmousedown="handleZoom(evt,'in')"/>
  <use id="zoomminus" xlink:href="#zoomMin" x="42" y="9" onmousedown="handleZoom(evt,'out')"/>
  <use id="reset" xlink:href="#resetDef" x="30" y="36" onmousedown="handleReset()"/>
   <use id="arrowup" xlink:href="#arrowUp" x="0" y="0" onmousedown="handlePan(0,-1)"/>
  <use id="arrowright" xlink:href="#arrowRight" x="0" y="0" onmousedown="handlePan(1,0)"/>
  <use id="arrowdown" xlink:href="#arrowDown" x="0" y="0" onmousedown="handlePan(0,1)"/>
  <use id="arrowleft" xlink:href="#arrowLeft" x="0" y="0" onmousedown="handlePan(-1,0)"/>
</g>
<svg viewBox="0 0 15 15" width="100%" height="30px" preserveAspectRatio="xMaxYMin meet">
 <g id="arrow_out" transform="scale(0.3 0.3)">
  <a xlink:href="group___geometry___module_ad476025bb806ab3c8fd14d2381139dbc_cgraph_org.svg" target="_base">
   <rect id="button" ry="5" rx="5" y="6" x="6" height="38" width="38"
        fill="#f2f5e9" fill-opacity="0.5" stroke="#606060" stroke-width="1.0"/>
   <path id="arrow"
     d="M 11.500037,31.436501 C 11.940474,20.09759 22.043105,11.32322 32.158766,21.979434 L 37.068811,17.246167 C 37.068811,17.246167 37.088388,32 37.088388,32 L 22.160133,31.978069 C 22.160133,31.978069 26.997745,27.140456 26.997745,27.140456 C 18.528582,18.264221 13.291696,25.230495 11.500037,31.436501 z"
     style="fill:#404040;"/>
  </a>
 </g>
</svg>

<style type='text/css'>
<![CDATA[
[data-mouse-over-selected='false'] { opacity: 0.7; }
[data-mouse-over-selected='true']  { opacity: 1.0; }
]]>
</style>
<script type="application/ecmascript"><![CDATA[
document.addEventListener('DOMContentLoaded', (event) => {
  highlightEdges();
  highlightAdjacentNodes();
});
]]></script>
</svg>
