<?xml version="1.0" encoding="UTF-8" standalone="no"?>
<!DOCTYPE svg PUBLIC "-//W3C//DTD SVG 1.1//EN"
 "http://www.w3.org/Graphics/SVG/1.1/DTD/svg11.dtd">
<!-- Generated by graphviz version 8.0.5 (20230430.1635)
 -->
<!-- Title: Eigen::Transform::check_template_params Pages: 1 -->
<svg width="588pt" height="360pt"
 viewBox="0.00 0.00 588.00 360.25" xmlns="http://www.w3.org/2000/svg" xmlns:xlink="http://www.w3.org/1999/xlink">
<g id="graph0" class="graph" transform="scale(1 1) rotate(0) translate(4 356.25)">
<title>Eigen::Transform::check_template_params</title>
<!-- Node1 -->
<g id="Node000001" class="node">
<title>Node1</title>
<g id="a_Node000001"><a xlink:title=" ">
<polygon fill="#999999" stroke="#666666" points="580,-190.88 456.75,-190.88 456.75,-160.38 580,-160.38 580,-190.88"/>
<text text-anchor="start" x="464.75" y="-177.38" font-family="Helvetica,sans-Serif" font-size="10.00">Eigen::Transform::check</text>
<text text-anchor="middle" x="518.38" y="-166.12" font-family="Helvetica,sans-Serif" font-size="10.00">_template_params</text>
</a>
</g>
</g>
<!-- Node2 -->
<g id="Node000002" class="node">
<title>Node2</title>
<g id="a_Node000002"><a xlink:href="../../d5/d00/group___geometry___module.html#a79b94ccee0f7871610fa2fa084e0fd59" target="_top" xlink:title=" ">
<polygon fill="white" stroke="#666666" points="420.75,-352.25 279.5,-352.25 279.5,-333 420.75,-333 420.75,-352.25"/>
<text text-anchor="middle" x="350.12" y="-338.75" font-family="Helvetica,sans-Serif" font-size="10.00">Eigen::Transform::Transform</text>
</a>
</g>
</g>
<!-- Node1&#45;&gt;Node2 -->
<g id="edge1_Node000001_Node000002" class="edge">
<title>Node1&#45;&gt;Node2</title>
<g id="a_edge1_Node000001_Node000002"><a xlink:title=" ">
<path fill="none" stroke="#63b8ff" d="M507.85,-200.92C493.92,-234.41 464.77,-292.92 420.75,-324.62 416.29,-327.84 411.31,-330.47 406.12,-332.64"/>
<polygon fill="#63b8ff" stroke="#63b8ff" points="511.36,-202.57 511.84,-191.99 504.87,-199.96 511.36,-202.57"/>
</a>
</g>
</g>
<!-- Node5 -->
<g id="Node000005" class="node">
<title>Node5</title>
<g id="a_Node000005"><a xlink:href="../../d5/d00/group___geometry___module.html#a5ee8b0067f6dadc04684be504e11a0c3" target="_top" xlink:title=" ">
<polygon fill="white" stroke="#666666" points="420.75,-315.25 279.5,-315.25 279.5,-296 420.75,-296 420.75,-315.25"/>
<text text-anchor="middle" x="350.12" y="-301.75" font-family="Helvetica,sans-Serif" font-size="10.00">Eigen::Transform::Transform</text>
</a>
</g>
</g>
<!-- Node1&#45;&gt;Node5 -->
<g id="edge4_Node000001_Node000005" class="edge">
<title>Node1&#45;&gt;Node5</title>
<g id="a_edge4_Node000001_Node000005"><a xlink:title=" ">
<path fill="none" stroke="#63b8ff" d="M502.51,-200.41C485.81,-226.09 456.34,-265.51 420.75,-287.62 415.66,-290.79 410.03,-293.4 404.24,-295.55"/>
<polygon fill="#63b8ff" stroke="#63b8ff" points="505.88,-202.62 508.27,-192.3 499.97,-198.88 505.88,-202.62"/>
</a>
</g>
</g>
<!-- Node6 -->
<g id="Node000006" class="node">
<title>Node6</title>
<g id="a_Node000006"><a xlink:href="../../d5/d00/group___geometry___module.html#a5b6398bba010bc76b11cce93fa52ca5c" target="_top" xlink:title=" ">
<polygon fill="white" stroke="#666666" points="420.75,-278.25 279.5,-278.25 279.5,-259 420.75,-259 420.75,-278.25"/>
<text text-anchor="middle" x="350.12" y="-264.75" font-family="Helvetica,sans-Serif" font-size="10.00">Eigen::Transform::Transform</text>
</a>
</g>
</g>
<!-- Node1&#45;&gt;Node6 -->
<g id="edge5_Node000001_Node000006" class="edge">
<title>Node1&#45;&gt;Node6</title>
<g id="a_edge5_Node000001_Node000006"><a xlink:title=" ">
<path fill="none" stroke="#63b8ff" d="M493.82,-198.41C475.32,-215.11 448.19,-237.15 420.75,-250.62 414.36,-253.76 407.37,-256.39 400.35,-258.59"/>
<polygon fill="#63b8ff" stroke="#63b8ff" points="495.7,-201.51 500.68,-192.15 490.95,-196.36 495.7,-201.51"/>
</a>
</g>
</g>
<!-- Node7 -->
<g id="Node000007" class="node">
<title>Node7</title>
<g id="a_Node000007"><a xlink:href="../../d5/d00/group___geometry___module.html#a1ec4aaba86a9b0fc68f5ae4094e1a395" target="_top" xlink:title=" ">
<polygon fill="white" stroke="#666666" points="420.75,-241.25 279.5,-241.25 279.5,-222 420.75,-222 420.75,-241.25"/>
<text text-anchor="middle" x="350.12" y="-227.75" font-family="Helvetica,sans-Serif" font-size="10.00">Eigen::Transform::Transform</text>
</a>
</g>
</g>
<!-- Node1&#45;&gt;Node7 -->
<g id="edge6_Node000001_Node000007" class="edge">
<title>Node1&#45;&gt;Node7</title>
<g id="a_edge6_Node000001_Node000007"><a xlink:title=" ">
<path fill="none" stroke="#63b8ff" d="M470.6,-195.35C454.9,-201.61 437.21,-208.28 420.75,-213.62 411.96,-216.48 402.44,-219.18 393.34,-221.59"/>
<polygon fill="#63b8ff" stroke="#63b8ff" points="471.63,-198.3 479.59,-191.31 469.01,-191.81 471.63,-198.3"/>
</a>
</g>
</g>
<!-- Node8 -->
<g id="Node000008" class="node">
<title>Node8</title>
<g id="a_Node000008"><a xlink:href="../../d5/d00/group___geometry___module.html#a3ab135685493c8a48e701e497bbb1818" target="_top" xlink:title=" ">
<polygon fill="white" stroke="#666666" points="420.75,-204.25 279.5,-204.25 279.5,-185 420.75,-185 420.75,-204.25"/>
<text text-anchor="middle" x="350.12" y="-190.75" font-family="Helvetica,sans-Serif" font-size="10.00">Eigen::Transform::Transform</text>
</a>
</g>
</g>
<!-- Node1&#45;&gt;Node8 -->
<g id="edge7_Node000001_Node000008" class="edge">
<title>Node1&#45;&gt;Node8</title>
<g id="a_edge7_Node000001_Node000008"><a xlink:title=" ">
<path fill="none" stroke="#63b8ff" d="M445.49,-183.84C437.39,-184.77 429.15,-185.71 421.08,-186.63"/>
<polygon fill="#63b8ff" stroke="#63b8ff" points="445.88,-187.2 455.41,-182.59 445.08,-180.25 445.88,-187.2"/>
</a>
</g>
</g>
<!-- Node9 -->
<g id="Node000009" class="node">
<title>Node9</title>
<g id="a_Node000009"><a xlink:href="../../d5/d00/group___geometry___module.html#a2a6f70385c79d72564e9b309f636ce1d" target="_top" xlink:title=" ">
<polygon fill="white" stroke="#666666" points="420.75,-167.25 279.5,-167.25 279.5,-148 420.75,-148 420.75,-167.25"/>
<text text-anchor="middle" x="350.12" y="-153.75" font-family="Helvetica,sans-Serif" font-size="10.00">Eigen::Transform::Transform</text>
</a>
</g>
</g>
<!-- Node1&#45;&gt;Node9 -->
<g id="edge8_Node000001_Node000009" class="edge">
<title>Node1&#45;&gt;Node9</title>
<g id="a_edge8_Node000001_Node000009"><a xlink:title=" ">
<path fill="none" stroke="#63b8ff" d="M445.49,-167.84C437.39,-166.97 429.15,-166.07 421.08,-165.2"/>
<polygon fill="#63b8ff" stroke="#63b8ff" points="445.09,-171.43 455.41,-169.02 445.85,-164.47 445.09,-171.43"/>
</a>
</g>
</g>
<!-- Node10 -->
<g id="Node000010" class="node">
<title>Node10</title>
<g id="a_Node000010"><a xlink:href="../../d5/d00/group___geometry___module.html#a5271ad7a41a47b7a6ab1d55141a69192" target="_top" xlink:title=" ">
<polygon fill="white" stroke="#666666" points="420.75,-130.25 279.5,-130.25 279.5,-111 420.75,-111 420.75,-130.25"/>
<text text-anchor="middle" x="350.12" y="-116.75" font-family="Helvetica,sans-Serif" font-size="10.00">Eigen::Transform::Transform</text>
</a>
</g>
</g>
<!-- Node1&#45;&gt;Node10 -->
<g id="edge9_Node000001_Node000010" class="edge">
<title>Node1&#45;&gt;Node10</title>
<g id="a_edge9_Node000001_Node000010"><a xlink:title=" ">
<path fill="none" stroke="#63b8ff" d="M469.75,-156.17C454.26,-150.16 436.89,-143.78 420.75,-138.62 411.95,-135.81 402.42,-133.12 393.32,-130.72"/>
<polygon fill="#63b8ff" stroke="#63b8ff" points="468.05,-159.65 478.64,-160.04 470.6,-153.13 468.05,-159.65"/>
</a>
</g>
</g>
<!-- Node11 -->
<g id="Node000011" class="node">
<title>Node11</title>
<g id="a_Node000011"><a xlink:href="../../d5/d00/group___geometry___module.html#afee5c6820f39d01ba818c07c1d33133d" target="_top" xlink:title=" ">
<polygon fill="white" stroke="#666666" points="420.75,-93.25 279.5,-93.25 279.5,-74 420.75,-74 420.75,-93.25"/>
<text text-anchor="middle" x="350.12" y="-79.75" font-family="Helvetica,sans-Serif" font-size="10.00">Eigen::Transform::Transform</text>
</a>
</g>
</g>
<!-- Node1&#45;&gt;Node11 -->
<g id="edge10_Node000001_Node000011" class="edge">
<title>Node1&#45;&gt;Node11</title>
<g id="a_edge10_Node000001_Node000011"><a xlink:title=" ">
<path fill="none" stroke="#63b8ff" d="M493.18,-152.64C474.67,-136.23 447.81,-114.81 420.75,-101.62 414.35,-98.51 407.35,-95.89 400.33,-93.7"/>
<polygon fill="#63b8ff" stroke="#63b8ff" points="490.55,-154.89 500.31,-159.01 495.25,-149.7 490.55,-154.89"/>
</a>
</g>
</g>
<!-- Node12 -->
<g id="Node000012" class="node">
<title>Node12</title>
<g id="a_Node000012"><a xlink:href="../../d5/d00/group___geometry___module.html#adb098a407862f706546443ee47375aed" target="_top" xlink:title=" ">
<polygon fill="white" stroke="#666666" points="420.75,-56.25 279.5,-56.25 279.5,-37 420.75,-37 420.75,-56.25"/>
<text text-anchor="middle" x="350.12" y="-42.75" font-family="Helvetica,sans-Serif" font-size="10.00">Eigen::Transform::Transform</text>
</a>
</g>
</g>
<!-- Node1&#45;&gt;Node12 -->
<g id="edge11_Node000001_Node000012" class="edge">
<title>Node1&#45;&gt;Node12</title>
<g id="a_edge11_Node000001_Node000012"><a xlink:title=" ">
<path fill="none" stroke="#63b8ff" d="M502.46,-151.07C485.72,-125.61 456.21,-86.55 420.75,-64.62 415.65,-61.47 410.02,-58.87 404.23,-56.72"/>
<polygon fill="#63b8ff" stroke="#63b8ff" points="499.89,-152.55 508.23,-159.09 505.79,-148.78 499.89,-152.55"/>
</a>
</g>
</g>
<!-- Node13 -->
<g id="Node000013" class="node">
<title>Node13</title>
<g id="a_Node000013"><a xlink:href="../../d5/d00/group___geometry___module.html#a96652ea1105a98cc2f450bd1d62aab49" target="_top" xlink:title=" ">
<polygon fill="white" stroke="#666666" points="420.75,-19.25 279.5,-19.25 279.5,0 420.75,0 420.75,-19.25"/>
<text text-anchor="middle" x="350.12" y="-5.75" font-family="Helvetica,sans-Serif" font-size="10.00">Eigen::Transform::Transform</text>
</a>
</g>
</g>
<!-- Node1&#45;&gt;Node13 -->
<g id="edge12_Node000001_Node000013" class="edge">
<title>Node1&#45;&gt;Node13</title>
<g id="a_edge12_Node000001_Node000013"><a xlink:title=" ">
<path fill="none" stroke="#63b8ff" d="M507.59,-149.99C493.52,-116.64 464.38,-58.95 420.75,-27.62 416.29,-24.42 411.3,-21.79 406.11,-19.62"/>
<polygon fill="#63b8ff" stroke="#63b8ff" points="504.61,-150.96 511.63,-158.9 511.1,-148.32 504.61,-150.96"/>
</a>
</g>
</g>
<!-- Node3 -->
<g id="Node000003" class="node">
<title>Node3</title>
<g id="a_Node000003"><a xlink:href="../../d5/d00/group___geometry___module.html#a41e2e58b09790eb8e3e220acceb7de1f" target="_top" xlink:title="Returns an identity transformation.">
<polygon fill="white" stroke="#666666" points="243.5,-352.25 114.25,-352.25 114.25,-333 243.5,-333 243.5,-352.25"/>
<text text-anchor="middle" x="178.88" y="-338.75" font-family="Helvetica,sans-Serif" font-size="10.00">Eigen::Transform::Identity</text>
</a>
</g>
</g>
<!-- Node2&#45;&gt;Node3 -->
<g id="edge2_Node000002_Node000003" class="edge">
<title>Node2&#45;&gt;Node3</title>
<g id="a_edge2_Node000002_Node000003"><a xlink:title=" ">
<path fill="none" stroke="#63b8ff" d="M268.49,-342.62C260.21,-342.62 251.89,-342.62 243.83,-342.62"/>
<polygon fill="#63b8ff" stroke="#63b8ff" points="268.31,-346.13 278.31,-342.62 268.31,-339.13 268.31,-346.13"/>
</a>
</g>
</g>
<!-- Node4 -->
<g id="Node000004" class="node">
<title>Node4</title>
<g id="a_Node000004"><a xlink:href="../../de/db8/namespace_slic3r.html#a1b9d8c32ddea7a4c77bf42e033ef1c52" target="_top" xlink:title=" ">
<polygon fill="white" stroke="#666666" points="78.25,-352.25 0,-352.25 0,-333 78.25,-333 78.25,-352.25"/>
<text text-anchor="middle" x="39.12" y="-338.75" font-family="Helvetica,sans-Serif" font-size="10.00">Slic3r::identity</text>
</a>
</g>
</g>
<!-- Node3&#45;&gt;Node4 -->
<g id="edge3_Node000003_Node000004" class="edge">
<title>Node3&#45;&gt;Node4</title>
<g id="a_edge3_Node000003_Node000004"><a xlink:title=" ">
<path fill="none" stroke="#63b8ff" d="M103.06,-342.62C94.58,-342.62 86.21,-342.62 78.48,-342.62"/>
<polygon fill="#63b8ff" stroke="#63b8ff" points="102.84,-346.13 112.84,-342.62 102.84,-339.13 102.84,-346.13"/>
</a>
</g>
</g>
</g>
</svg>
