<?xml version="1.0" encoding="UTF-8" standalone="no"?>
<!DOCTYPE svg PUBLIC "-//W3C//DTD SVG 1.1//EN"
 "http://www.w3.org/Graphics/SVG/1.1/DTD/svg11.dtd">
<!-- Generated by graphviz version 8.0.5 (20230430.1635)
 -->
<!-- Title: Eigen::AlignedBox::intersects Pages: 1 -->
<svg width="952pt" height="303pt"
 viewBox="0.00 0.00 951.50 303.12" xmlns="http://www.w3.org/2000/svg" xmlns:xlink="http://www.w3.org/1999/xlink">
<g id="graph0" class="graph" transform="scale(1 1) rotate(0) translate(4 299.12)">
<title>Eigen::AlignedBox::intersects</title>
<!-- Node1 -->
<g id="Node000001" class="node">
<title>Node1</title>
<g id="a_Node000001"><a xlink:title=" ">
<polygon fill="#999999" stroke="#666666" points="943.5,-134.5 841.25,-134.5 841.25,-104 943.5,-104 943.5,-134.5"/>
<text text-anchor="start" x="849.25" y="-121" font-family="Helvetica,sans-Serif" font-size="10.00">Eigen::AlignedBox::</text>
<text text-anchor="middle" x="892.38" y="-109.75" font-family="Helvetica,sans-Serif" font-size="10.00">intersects</text>
</a>
</g>
</g>
<!-- Node2 -->
<g id="Node000002" class="node">
<title>Node2</title>
<g id="a_Node000002"><a xlink:href="../../dd/df4/namespace_slic3r_1_1_f_f_f_tree_support.html#abb175d116e2dfb6bc27c8f0005bfd906" target="_top" xlink:title=" ">
<polygon fill="white" stroke="#666666" points="780.5,-238.12 658,-238.12 658,-196.38 780.5,-196.38 780.5,-238.12"/>
<text text-anchor="start" x="666" y="-224.62" font-family="Helvetica,sans-Serif" font-size="10.00">Slic3r::FFFTreeSupport</text>
<text text-anchor="start" x="666" y="-213.38" font-family="Helvetica,sans-Serif" font-size="10.00">::merge_influence_areas</text>
<text text-anchor="middle" x="719.25" y="-202.12" font-family="Helvetica,sans-Serif" font-size="10.00">_two_elements</text>
</a>
</g>
</g>
<!-- Node1&#45;&gt;Node2 -->
<g id="edge1_Node000001_Node000002" class="edge">
<title>Node1&#45;&gt;Node2</title>
<g id="a_edge1_Node000001_Node000002"><a xlink:title=" ">
<path fill="none" stroke="#63b8ff" d="M867.49,-142.17C851.05,-156.95 828.13,-175.69 805.25,-188.25 797.6,-192.45 789.22,-196.2 780.81,-199.5"/>
<polygon fill="#63b8ff" stroke="#63b8ff" points="869.46,-145.2 874.46,-135.86 864.73,-140.04 869.46,-145.2"/>
</a>
</g>
</g>
<!-- Node8 -->
<g id="Node000008" class="node">
<title>Node8</title>
<g id="a_Node000008"><a xlink:href="../../d1/d3f/struct_slic3r_1_1_a_a_b_b_tree_indirect_1_1_intersecting_3_01_eigen_1_1_aligned_box_3_01_coord_type_00_01_num_d_01_4_01_4.html#a9d5def4f9f1770d3594626ecb4b3b966" target="_top" xlink:title=" ">
<polygon fill="white" stroke="#666666" points="797.38,-178.75 641.12,-178.75 641.12,-125.75 797.38,-125.75 797.38,-178.75"/>
<text text-anchor="start" x="649.12" y="-165.25" font-family="Helvetica,sans-Serif" font-size="10.00">Slic3r::AABBTreeIndirect</text>
<text text-anchor="start" x="649.12" y="-154" font-family="Helvetica,sans-Serif" font-size="10.00">::Intersecting&lt; Eigen::</text>
<text text-anchor="start" x="649.12" y="-142.75" font-family="Helvetica,sans-Serif" font-size="10.00">AlignedBox&lt; CoordType, NumD</text>
<text text-anchor="middle" x="719.25" y="-131.5" font-family="Helvetica,sans-Serif" font-size="10.00"> &gt; &gt;::operator()</text>
</a>
</g>
</g>
<!-- Node1&#45;&gt;Node8 -->
<g id="edge13_Node000001_Node000008" class="edge">
<title>Node1&#45;&gt;Node8</title>
<g id="a_edge13_Node000001_Node000008"><a xlink:title=" ">
<path fill="none" stroke="#63b8ff" d="M830.18,-131.05C819.62,-133.09 808.52,-135.23 797.6,-137.33"/>
<polygon fill="#63b8ff" stroke="#63b8ff" points="830.8,-134.3 839.96,-128.97 829.48,-127.43 830.8,-134.3"/>
</a>
</g>
</g>
<!-- Node9 -->
<g id="Node000009" class="node">
<title>Node9</title>
<g id="a_Node000009"><a xlink:href="../../d0/de4/struct_slic3r_1_1_a_a_b_b_tree_indirect_1_1_within_3_01_eigen_1_1_aligned_box_3_01_coord_type_00_01_num_d_01_4_01_4.html#a3f155b2d8fb95cb377a5833c8ae7d9f6" target="_top" xlink:title=" ">
<polygon fill="white" stroke="#666666" points="805.25,-108.12 633.25,-108.12 633.25,-66.38 805.25,-66.38 805.25,-108.12"/>
<text text-anchor="start" x="641.25" y="-94.62" font-family="Helvetica,sans-Serif" font-size="10.00">Slic3r::AABBTreeIndirect</text>
<text text-anchor="start" x="641.25" y="-83.38" font-family="Helvetica,sans-Serif" font-size="10.00">::Within&lt; Eigen::AlignedBox</text>
<text text-anchor="middle" x="719.25" y="-72.12" font-family="Helvetica,sans-Serif" font-size="10.00">&lt; CoordType, NumD &gt; &gt;::operator()</text>
</a>
</g>
</g>
<!-- Node1&#45;&gt;Node9 -->
<g id="edge14_Node000001_Node000009" class="edge">
<title>Node1&#45;&gt;Node9</title>
<g id="a_edge14_Node000001_Node000009"><a xlink:title=" ">
<path fill="none" stroke="#63b8ff" d="M830.26,-107.82C822.25,-106.32 813.93,-104.77 805.62,-103.21"/>
<polygon fill="#63b8ff" stroke="#63b8ff" points="829.48,-111.42 839.96,-109.82 830.77,-104.54 829.48,-111.42"/>
</a>
</g>
</g>
<!-- Node10 -->
<g id="Node000010" class="node">
<title>Node10</title>
<g id="a_Node000010"><a xlink:href="../../de/db8/namespace_slic3r.html#ad263dd9a4fbaf1b2c02409fd5bd463d4" target="_top" xlink:title=" ">
<polygon fill="white" stroke="#666666" points="773.38,-30.5 665.12,-30.5 665.12,0 773.38,0 773.38,-30.5"/>
<text text-anchor="start" x="673.12" y="-17" font-family="Helvetica,sans-Serif" font-size="10.00">Slic3r::verify_update</text>
<text text-anchor="middle" x="719.25" y="-5.75" font-family="Helvetica,sans-Serif" font-size="10.00">_print_object_regions</text>
</a>
</g>
</g>
<!-- Node1&#45;&gt;Node10 -->
<g id="edge15_Node000001_Node000010" class="edge">
<title>Node1&#45;&gt;Node10</title>
<g id="a_edge15_Node000001_Node000010"><a xlink:title=" ">
<path fill="none" stroke="#63b8ff" d="M863.24,-97.19C846.79,-84.76 825.37,-69.35 805.25,-57.25 789.31,-47.66 770.88,-38.36 755.27,-30.95"/>
<polygon fill="#63b8ff" stroke="#63b8ff" points="860.76,-100.46 870.83,-103.75 865,-94.9 860.76,-100.46"/>
</a>
</g>
</g>
<!-- Node2&#45;&gt;Node2 -->
<g id="edge10_Node000002_Node000002" class="edge">
<title>Node2&#45;&gt;Node2</title>
<g id="a_edge10_Node000002_Node000002"><a xlink:title=" ">
<path fill="none" stroke="#63b8ff" d="M748.13,-248.9C743.33,-253.23 733.71,-256.12 719.25,-256.12 694.9,-256.12 684.25,-247.92 687.3,-238.44"/>
<polygon fill="#63b8ff" stroke="#63b8ff" points="751.74,-250.02 751.2,-239.44 745.03,-248.05 751.74,-250.02"/>
</a>
</g>
</g>
<!-- Node3 -->
<g id="Node000003" class="node">
<title>Node3</title>
<g id="a_Node000003"><a xlink:href="../../dd/df4/namespace_slic3r_1_1_f_f_f_tree_support.html#ad858edd51a19e644532ce4d00379fb76" target="_top" xlink:title="Merges Influence Areas if possible.">
<polygon fill="white" stroke="#666666" points="597.25,-277.12 474.75,-277.12 474.75,-235.38 597.25,-235.38 597.25,-277.12"/>
<text text-anchor="start" x="482.75" y="-263.62" font-family="Helvetica,sans-Serif" font-size="10.00">Slic3r::FFFTreeSupport</text>
<text text-anchor="start" x="482.75" y="-252.38" font-family="Helvetica,sans-Serif" font-size="10.00">::merge_influence_areas</text>
<text text-anchor="middle" x="536" y="-241.12" font-family="Helvetica,sans-Serif" font-size="10.00">_leaves</text>
</a>
</g>
</g>
<!-- Node2&#45;&gt;Node3 -->
<g id="edge2_Node000002_Node000003" class="edge">
<title>Node2&#45;&gt;Node3</title>
<g id="a_edge2_Node000002_Node000003"><a xlink:title=" ">
<path fill="none" stroke="#63b8ff" d="M647.04,-232.57C630.67,-236.09 613.42,-239.81 597.55,-243.22"/>
<polygon fill="#63b8ff" stroke="#63b8ff" points="647.6,-235.82 656.64,-230.29 646.13,-228.97 647.6,-235.82"/>
</a>
</g>
</g>
<!-- Node7 -->
<g id="Node000007" class="node">
<title>Node7</title>
<g id="a_Node000007"><a xlink:href="../../dd/df4/namespace_slic3r_1_1_f_f_f_tree_support.html#ab2ce227e4f177e6b0a86047f62857854" target="_top" xlink:title=" ">
<polygon fill="white" stroke="#666666" points="597.25,-199.12 474.75,-199.12 474.75,-157.38 597.25,-157.38 597.25,-199.12"/>
<text text-anchor="start" x="482.75" y="-185.62" font-family="Helvetica,sans-Serif" font-size="10.00">Slic3r::FFFTreeSupport</text>
<text text-anchor="start" x="482.75" y="-174.38" font-family="Helvetica,sans-Serif" font-size="10.00">::merge_influence_areas</text>
<text text-anchor="middle" x="536" y="-163.12" font-family="Helvetica,sans-Serif" font-size="10.00">_two_sets</text>
</a>
</g>
</g>
<!-- Node2&#45;&gt;Node7 -->
<g id="edge11_Node000002_Node000007" class="edge">
<title>Node2&#45;&gt;Node7</title>
<g id="a_edge11_Node000002_Node000007"><a xlink:title=" ">
<path fill="none" stroke="#63b8ff" d="M647.04,-201.93C630.67,-198.41 613.42,-194.69 597.55,-191.28"/>
<polygon fill="#63b8ff" stroke="#63b8ff" points="646.13,-205.53 656.64,-204.21 647.6,-198.68 646.13,-205.53"/>
</a>
</g>
</g>
<!-- Node3&#45;&gt;Node3 -->
<g id="edge9_Node000003_Node000003" class="edge">
<title>Node3&#45;&gt;Node3</title>
<g id="a_edge9_Node000003_Node000003"><a xlink:title=" ">
<path fill="none" stroke="#63b8ff" d="M562.44,-287.9C558.05,-292.23 549.23,-295.12 536,-295.12 513.71,-295.12 503.96,-286.92 506.75,-277.44"/>
<polygon fill="#63b8ff" stroke="#63b8ff" points="566.04,-289.01 565.25,-278.44 559.28,-287.19 566.04,-289.01"/>
</a>
</g>
</g>
<!-- Node4 -->
<g id="Node000004" class="node">
<title>Node4</title>
<g id="a_Node000004"><a xlink:href="../../dd/df4/namespace_slic3r_1_1_f_f_f_tree_support.html#a072f8fb61613be20955808d6ea3da0eb" target="_top" xlink:title="Merges Influence Areas at one layer if possible.">
<polygon fill="white" stroke="#666666" points="438.75,-271.5 316.25,-271.5 316.25,-241 438.75,-241 438.75,-271.5"/>
<text text-anchor="start" x="324.25" y="-258" font-family="Helvetica,sans-Serif" font-size="10.00">Slic3r::FFFTreeSupport</text>
<text text-anchor="middle" x="377.5" y="-246.75" font-family="Helvetica,sans-Serif" font-size="10.00">::merge_influence_areas</text>
</a>
</g>
</g>
<!-- Node3&#45;&gt;Node4 -->
<g id="edge3_Node000003_Node000004" class="edge">
<title>Node3&#45;&gt;Node4</title>
<g id="a_edge3_Node000003_Node000004"><a xlink:title=" ">
<path fill="none" stroke="#63b8ff" d="M463.76,-256.25C455.52,-256.25 447.18,-256.25 439.1,-256.25"/>
<polygon fill="#63b8ff" stroke="#63b8ff" points="463.49,-259.75 473.49,-256.25 463.49,-252.75 463.49,-259.75"/>
</a>
</g>
</g>
<!-- Node4&#45;&gt;Node4 -->
<g id="edge8_Node000004_Node000004" class="edge">
<title>Node4&#45;&gt;Node4</title>
<g id="a_edge8_Node000004_Node000004"><a xlink:title=" ">
<path fill="none" stroke="#63b8ff" d="M404.06,-282.88C399.91,-286.83 391.06,-289.5 377.5,-289.5 353.39,-289.5 344.16,-281.06 349.81,-271.99"/>
<polygon fill="#63b8ff" stroke="#63b8ff" points="407.64,-283.29 405.19,-272.99 400.68,-282.57 407.64,-283.29"/>
</a>
</g>
</g>
<!-- Node5 -->
<g id="Node000005" class="node">
<title>Node5</title>
<g id="a_Node000005"><a xlink:href="../../dd/df4/namespace_slic3r_1_1_f_f_f_tree_support.html#aeb49cf1fc20a86890b55d203812fd7bb" target="_top" xlink:title="Propagates influence downwards, and merges overlapping ones.">
<polygon fill="white" stroke="#666666" points="280.25,-271.5 162.25,-271.5 162.25,-241 280.25,-241 280.25,-271.5"/>
<text text-anchor="start" x="170.25" y="-258" font-family="Helvetica,sans-Serif" font-size="10.00">Slic3r::FFFTreeSupport</text>
<text text-anchor="middle" x="221.25" y="-246.75" font-family="Helvetica,sans-Serif" font-size="10.00">::create_layer_pathing</text>
</a>
</g>
</g>
<!-- Node4&#45;&gt;Node5 -->
<g id="edge4_Node000004_Node000005" class="edge">
<title>Node4&#45;&gt;Node5</title>
<g id="a_edge4_Node000004_Node000005"><a xlink:title=" ">
<path fill="none" stroke="#63b8ff" d="M305.22,-256.25C296.97,-256.25 288.63,-256.25 280.58,-256.25"/>
<polygon fill="#63b8ff" stroke="#63b8ff" points="304.98,-259.75 314.98,-256.25 304.98,-252.75 304.98,-259.75"/>
</a>
</g>
</g>
<!-- Node5&#45;&gt;Node5 -->
<g id="edge5_Node000005_Node000005" class="edge">
<title>Node5&#45;&gt;Node5</title>
<g id="a_edge5_Node000005_Node000005"><a xlink:title=" ">
<path fill="none" stroke="#63b8ff" d="M247.81,-282.88C243.66,-286.83 234.81,-289.5 221.25,-289.5 197.14,-289.5 187.91,-281.06 193.56,-271.99"/>
<polygon fill="#63b8ff" stroke="#63b8ff" points="251.39,-283.29 248.94,-272.99 244.43,-282.57 251.39,-283.29"/>
</a>
</g>
</g>
<!-- Node6 -->
<g id="Node000006" class="node">
<title>Node6</title>
<g id="a_Node000006"><a xlink:href="../../dd/df4/namespace_slic3r_1_1_f_f_f_tree_support.html#ab26bc295197117d2d20bc72c33be92f6" target="_top" xlink:title="Create the areas that need support.">
<polygon fill="white" stroke="#666666" points="126.25,-271.5 0,-271.5 0,-241 126.25,-241 126.25,-271.5"/>
<text text-anchor="start" x="8" y="-258" font-family="Helvetica,sans-Serif" font-size="10.00">Slic3r::FFFTreeSupport</text>
<text text-anchor="middle" x="63.12" y="-246.75" font-family="Helvetica,sans-Serif" font-size="10.00">::generate_support_areas</text>
</a>
</g>
</g>
<!-- Node5&#45;&gt;Node6 -->
<g id="edge6_Node000005_Node000006" class="edge">
<title>Node5&#45;&gt;Node6</title>
<g id="a_edge6_Node000005_Node000006"><a xlink:title=" ">
<path fill="none" stroke="#63b8ff" d="M151.35,-256.25C143.08,-256.25 134.67,-256.25 126.5,-256.25"/>
<polygon fill="#63b8ff" stroke="#63b8ff" points="151.11,-259.75 161.11,-256.25 151.11,-252.75 151.11,-259.75"/>
</a>
</g>
</g>
<!-- Node6&#45;&gt;Node6 -->
<g id="edge7_Node000006_Node000006" class="edge">
<title>Node6&#45;&gt;Node6</title>
<g id="a_edge7_Node000006_Node000006"><a xlink:title=" ">
<path fill="none" stroke="#63b8ff" d="M90,-282.88C85.81,-286.83 76.85,-289.5 63.12,-289.5 38.73,-289.5 29.39,-281.06 35.11,-271.99"/>
<polygon fill="#63b8ff" stroke="#63b8ff" points="93.58,-283.3 91.14,-272.99 86.62,-282.57 93.58,-283.3"/>
</a>
</g>
</g>
<!-- Node7&#45;&gt;Node7 -->
<g id="edge12_Node000007_Node000007" class="edge">
<title>Node7&#45;&gt;Node7</title>
<g id="a_edge12_Node000007_Node000007"><a xlink:title=" ">
<path fill="none" stroke="#63b8ff" d="M562.44,-209.9C558.05,-214.23 549.23,-217.12 536,-217.12 513.71,-217.12 503.96,-208.92 506.75,-199.44"/>
<polygon fill="#63b8ff" stroke="#63b8ff" points="566.04,-211.01 565.25,-200.44 559.28,-209.19 566.04,-211.01"/>
</a>
</g>
</g>
<!-- Node10&#45;&gt;Node10 -->
<g id="edge17_Node000010_Node000010" class="edge">
<title>Node10&#45;&gt;Node10</title>
<g id="a_edge17_Node000010_Node000010"><a xlink:title=" ">
<path fill="none" stroke="#63b8ff" d="M748.68,-41.88C744.09,-45.83 734.28,-48.5 719.25,-48.5 692.54,-48.5 682.31,-40.06 688.57,-30.99"/>
<polygon fill="#63b8ff" stroke="#63b8ff" points="752.26,-42.32 749.93,-31.99 745.31,-41.52 752.26,-42.32"/>
</a>
</g>
</g>
<!-- Node11 -->
<g id="Node000011" class="node">
<title>Node11</title>
<g id="a_Node000011"><a xlink:href="../../d5/d8f/class_slic3r_1_1_print.html#a9cbee0a5faf2afecd2d7120d69074960" target="_top" xlink:title=" ">
<polygon fill="white" stroke="#666666" points="584.12,-24.88 487.88,-24.88 487.88,-5.62 584.12,-5.62 584.12,-24.88"/>
<text text-anchor="middle" x="536" y="-11.38" font-family="Helvetica,sans-Serif" font-size="10.00">Slic3r::Print::apply</text>
</a>
</g>
</g>
<!-- Node10&#45;&gt;Node11 -->
<g id="edge16_Node000010_Node000011" class="edge">
<title>Node10&#45;&gt;Node11</title>
<g id="a_edge16_Node000010_Node000011"><a xlink:title=" ">
<path fill="none" stroke="#63b8ff" d="M654.16,-15.25C631.21,-15.25 605.77,-15.25 584.47,-15.25"/>
<polygon fill="#63b8ff" stroke="#63b8ff" points="653.85,-18.75 663.85,-15.25 653.85,-11.75 653.85,-18.75"/>
</a>
</g>
</g>
</g>
</svg>
