<?xml version="1.0" encoding="UTF-8" standalone="no"?>
<!DOCTYPE svg PUBLIC "-//W3C//DTD SVG 1.1//EN"
 "http://www.w3.org/Graphics/SVG/1.1/DTD/svg11.dtd">
<!-- Generated by graphviz version 8.0.5 (20230430.1635)
 -->
<!-- Title: agg::row_accessor::width Pages: 1 -->
<svg width="394pt" height="158pt"
 viewBox="0.00 0.00 393.50 157.50" xmlns="http://www.w3.org/2000/svg" xmlns:xlink="http://www.w3.org/1999/xlink">
<g id="graph0" class="graph" transform="scale(1 1) rotate(0) translate(4 153.5)">
<title>agg::row_accessor::width</title>
<!-- Node1 -->
<g id="Node000001" class="node">
<title>Node1</title>
<g id="a_Node000001"><a xlink:title=" ">
<polygon fill="#999999" stroke="#666666" points="385.5,-103.5 281,-103.5 281,-73 385.5,-73 385.5,-103.5"/>
<text text-anchor="start" x="289" y="-90" font-family="Helvetica,sans-Serif" font-size="10.00">agg::row_accessor::</text>
<text text-anchor="middle" x="333.25" y="-78.75" font-family="Helvetica,sans-Serif" font-size="10.00">width</text>
</a>
</g>
</g>
<!-- Node2 -->
<g id="Node000002" class="node">
<title>Node2</title>
<g id="a_Node000002"><a xlink:href="../../d9/d5e/classagg_1_1row__accessor.html#aa358a4e32cb001becf9de0af5818ea5b" target="_top" xlink:title=" ">
<polygon fill="white" stroke="#666666" points="104.5,-149.5 0,-149.5 0,-119 104.5,-119 104.5,-149.5"/>
<text text-anchor="start" x="8" y="-136" font-family="Helvetica,sans-Serif" font-size="10.00">agg::row_accessor::</text>
<text text-anchor="middle" x="52.25" y="-124.75" font-family="Helvetica,sans-Serif" font-size="10.00">row_accessor</text>
</a>
</g>
</g>
<!-- Node1&#45;&gt;Node2 -->
<g id="edge1_Node000001_Node000002" class="edge">
<title>Node1&#45;&gt;Node2</title>
<g id="a_edge1_Node000001_Node000002"><a xlink:title=" ">
<path fill="none" stroke="#63b8ff" d="M302.76,-109.84C286.58,-120.34 265.65,-131.85 245,-137.25 198.62,-149.38 143.74,-146.92 104.61,-142.44"/>
<polygon fill="#63b8ff" stroke="#63b8ff" points="304.36,-112.31 310.7,-103.82 300.45,-106.5 304.36,-112.31"/>
</a>
</g>
</g>
<!-- Node3 -->
<g id="Node000003" class="node">
<title>Node3</title>
<g id="a_Node000003"><a xlink:href="../../d9/d5e/classagg_1_1row__accessor.html#a24b25021b304a9fd12cd091fbec71959" target="_top" xlink:title=" ">
<polygon fill="white" stroke="#666666" points="245,-128.5 140.5,-128.5 140.5,-98 245,-98 245,-128.5"/>
<text text-anchor="start" x="148.5" y="-115" font-family="Helvetica,sans-Serif" font-size="10.00">agg::row_accessor::</text>
<text text-anchor="middle" x="192.75" y="-103.75" font-family="Helvetica,sans-Serif" font-size="10.00">attach</text>
</a>
</g>
</g>
<!-- Node1&#45;&gt;Node3 -->
<g id="edge2_Node000001_Node000003" class="edge">
<title>Node1&#45;&gt;Node3</title>
<g id="a_edge2_Node000001_Node000003"><a xlink:title=" ">
<path fill="none" stroke="#63b8ff" d="M269.98,-99.49C261.75,-100.98 253.39,-102.49 245.37,-103.93"/>
<polygon fill="#63b8ff" stroke="#63b8ff" points="270.46,-102.78 279.68,-97.56 269.21,-95.89 270.46,-102.78"/>
</a>
</g>
</g>
<!-- Node4 -->
<g id="Node000004" class="node">
<title>Node4</title>
<g id="a_Node000004"><a xlink:href="../../d9/d5e/classagg_1_1row__accessor.html#a35458dad9d2f69b8ed013f4803b99104" target="_top" xlink:title=" ">
<polygon fill="white" stroke="#666666" points="245,-79.5 140.5,-79.5 140.5,-49 245,-49 245,-79.5"/>
<text text-anchor="start" x="148.5" y="-66" font-family="Helvetica,sans-Serif" font-size="10.00">agg::row_accessor::</text>
<text text-anchor="middle" x="192.75" y="-54.75" font-family="Helvetica,sans-Serif" font-size="10.00">clear</text>
</a>
</g>
</g>
<!-- Node1&#45;&gt;Node4 -->
<g id="edge4_Node000001_Node000004" class="edge">
<title>Node1&#45;&gt;Node4</title>
<g id="a_edge4_Node000001_Node000004"><a xlink:title=" ">
<path fill="none" stroke="#63b8ff" d="M269.98,-77.46C261.75,-76.03 253.39,-74.58 245.37,-73.19"/>
<polygon fill="#63b8ff" stroke="#63b8ff" points="269.23,-81.05 279.68,-79.31 270.42,-74.16 269.23,-81.05"/>
</a>
</g>
</g>
<!-- Node5 -->
<g id="Node000005" class="node">
<title>Node5</title>
<g id="a_Node000005"><a xlink:href="../../d9/d5e/classagg_1_1row__accessor.html#acc97951d640451350e94bdcd3bdf71b9" target="_top" xlink:title=" ">
<polygon fill="white" stroke="#666666" points="245,-30.5 140.5,-30.5 140.5,0 245,0 245,-30.5"/>
<text text-anchor="start" x="148.5" y="-17" font-family="Helvetica,sans-Serif" font-size="10.00">agg::row_accessor::</text>
<text text-anchor="middle" x="192.75" y="-5.75" font-family="Helvetica,sans-Serif" font-size="10.00">copy_from</text>
</a>
</g>
</g>
<!-- Node1&#45;&gt;Node5 -->
<g id="edge5_Node000001_Node000005" class="edge">
<title>Node1&#45;&gt;Node5</title>
<g id="a_edge5_Node000001_Node000005"><a xlink:title=" ">
<path fill="none" stroke="#63b8ff" d="M295.31,-67.4C279.86,-58.82 261.65,-48.88 245,-40.25 239.02,-37.15 232.61,-33.93 226.4,-30.88"/>
<polygon fill="#63b8ff" stroke="#63b8ff" points="293.1,-70.74 303.54,-72.55 296.51,-64.62 293.1,-70.74"/>
</a>
</g>
</g>
<!-- Node3&#45;&gt;Node2 -->
<g id="edge3_Node000003_Node000002" class="edge">
<title>Node3&#45;&gt;Node2</title>
<g id="a_edge3_Node000003_Node000002"><a xlink:title=" ">
<path fill="none" stroke="#63b8ff" d="M129.48,-122.69C121.25,-123.94 112.89,-125.21 104.87,-126.42"/>
<polygon fill="#63b8ff" stroke="#63b8ff" points="129.82,-126.03 139.18,-121.07 128.77,-119.11 129.82,-126.03"/>
</a>
</g>
</g>
</g>
</svg>
