<?xml version="1.0" encoding="UTF-8" standalone="no"?>
<!DOCTYPE svg PUBLIC "-//W3C//DTD SVG 1.1//EN"
 "http://www.w3.org/Graphics/SVG/1.1/DTD/svg11.dtd">
<!-- Generated by graphviz version 8.0.5 (20230430.1635)
 -->
<!-- Title: src/libigl/igl/opengl2/model_proj_viewport.h Pages: 1 -->
<svg width="512pt" height="305pt"
 viewBox="0.00 0.00 511.50 304.50" xmlns="http://www.w3.org/2000/svg" xmlns:xlink="http://www.w3.org/1999/xlink">
<g id="graph0" class="graph" transform="scale(1 1) rotate(0) translate(4 300.5)">
<title>src/libigl/igl/opengl2/model_proj_viewport.h</title>
<!-- Node1 -->
<g id="Node000001" class="node">
<title>Node1</title>
<g id="a_Node000001"><a xlink:title=" ">
<polygon fill="#999999" stroke="#666666" points="157,-296.5 40.5,-296.5 40.5,-266 157,-266 157,-296.5"/>
<text text-anchor="start" x="48.5" y="-283" font-family="Helvetica,sans-Serif" font-size="10.00">src/libigl/igl/opengl2</text>
<text text-anchor="middle" x="98.75" y="-271.75" font-family="Helvetica,sans-Serif" font-size="10.00">/model_proj_viewport.h</text>
</a>
</g>
</g>
<!-- Node2 -->
<g id="Node000002" class="node">
<title>Node2</title>
<g id="a_Node000002"><a xlink:href="../../d0/d07/model__proj__viewport_8cpp.html" target="_top" xlink:title=" ">
<polygon fill="white" stroke="#666666" points="162.25,-230 35.25,-230 35.25,-199.5 162.25,-199.5 162.25,-230"/>
<text text-anchor="start" x="43.25" y="-216.5" font-family="Helvetica,sans-Serif" font-size="10.00">src/libigl/igl/opengl2</text>
<text text-anchor="middle" x="98.75" y="-205.25" font-family="Helvetica,sans-Serif" font-size="10.00">/model_proj_viewport.cpp</text>
</a>
</g>
</g>
<!-- Node1&#45;&gt;Node2 -->
<g id="edge1_Node000001_Node000002" class="edge">
<title>Node1&#45;&gt;Node2</title>
<g id="a_edge1_Node000001_Node000002"><a xlink:title=" ">
<path fill="none" stroke="#63b8ff" d="M92.14,-254.88C91.8,-246.55 92.08,-237.58 93,-230.33"/>
<polygon fill="#63b8ff" stroke="#63b8ff" points="88.71,-254.92 92.99,-264.61 95.69,-254.37 88.71,-254.92"/>
</a>
</g>
</g>
<!-- Node3 -->
<g id="Node000003" class="node">
<title>Node3</title>
<g id="a_Node000003"><a xlink:href="../../d1/dbb/opengl2_2unproject_8cpp.html" target="_top" xlink:title=" ">
<polygon fill="white" stroke="#666666" points="281.5,-230 180,-230 180,-199.5 281.5,-199.5 281.5,-230"/>
<text text-anchor="start" x="188" y="-216.5" font-family="Helvetica,sans-Serif" font-size="10.00">src/libigl/igl/opengl2</text>
<text text-anchor="middle" x="230.75" y="-205.25" font-family="Helvetica,sans-Serif" font-size="10.00">/unproject.cpp</text>
</a>
</g>
</g>
<!-- Node1&#45;&gt;Node3 -->
<g id="edge3_Node000001_Node000003" class="edge">
<title>Node1&#45;&gt;Node3</title>
<g id="a_edge3_Node000001_Node000003"><a xlink:title=" ">
<path fill="none" stroke="#63b8ff" d="M138.49,-260.83C158.54,-251.03 182.46,-239.35 200.92,-230.33"/>
<polygon fill="#63b8ff" stroke="#63b8ff" points="137.15,-258.08 129.7,-265.61 140.22,-264.37 137.15,-258.08"/>
</a>
</g>
</g>
<!-- Node2&#45;&gt;Node1 -->
<g id="edge2_Node000002_Node000001" class="edge">
<title>Node2&#45;&gt;Node1</title>
<g id="a_edge2_Node000002_Node000001"><a xlink:title=" ">
<path fill="none" stroke="#63b8ff" d="M105.36,-241.06C105.7,-249.38 105.42,-258.36 104.51,-265.61"/>
<polygon fill="#63b8ff" stroke="#63b8ff" points="108.79,-241.02 104.5,-231.33 101.81,-241.57 108.79,-241.02"/>
</a>
</g>
</g>
<!-- Node4 -->
<g id="Node000004" class="node">
<title>Node4</title>
<g id="a_Node000004"><a xlink:href="../../d2/df4/opengl2_2unproject_8h.html" target="_top" xlink:title=" ">
<polygon fill="white" stroke="#666666" points="281.5,-163.5 180,-163.5 180,-133 281.5,-133 281.5,-163.5"/>
<text text-anchor="start" x="188" y="-150" font-family="Helvetica,sans-Serif" font-size="10.00">src/libigl/igl/opengl2</text>
<text text-anchor="middle" x="230.75" y="-138.75" font-family="Helvetica,sans-Serif" font-size="10.00">/unproject.h</text>
</a>
</g>
</g>
<!-- Node3&#45;&gt;Node4 -->
<g id="edge4_Node000003_Node000004" class="edge">
<title>Node3&#45;&gt;Node4</title>
<g id="a_edge4_Node000003_Node000004"><a xlink:title=" ">
<path fill="none" stroke="#63b8ff" d="M224.14,-188.38C223.8,-180.05 224.08,-171.08 225,-163.83"/>
<polygon fill="#63b8ff" stroke="#63b8ff" points="220.71,-188.42 224.99,-198.11 227.69,-187.87 220.71,-188.42"/>
</a>
</g>
</g>
<!-- Node4&#45;&gt;Node3 -->
<g id="edge12_Node000004_Node000003" class="edge">
<title>Node4&#45;&gt;Node3</title>
<g id="a_edge12_Node000004_Node000003"><a xlink:title=" ">
<path fill="none" stroke="#63b8ff" d="M237.36,-174.56C237.7,-182.88 237.42,-191.86 236.51,-199.11"/>
<polygon fill="#63b8ff" stroke="#63b8ff" points="240.79,-174.52 236.5,-164.83 233.81,-175.07 240.79,-174.52"/>
</a>
</g>
</g>
<!-- Node5 -->
<g id="Node000005" class="node">
<title>Node5</title>
<g id="a_Node000005"><a xlink:href="../../d5/d84/_rotate_widget_8h.html" target="_top" xlink:title=" ">
<polygon fill="white" stroke="#666666" points="101.5,-97 0,-97 0,-66.5 101.5,-66.5 101.5,-97"/>
<text text-anchor="start" x="8" y="-83.5" font-family="Helvetica,sans-Serif" font-size="10.00">src/libigl/igl/opengl2</text>
<text text-anchor="middle" x="50.75" y="-72.25" font-family="Helvetica,sans-Serif" font-size="10.00">/RotateWidget.h</text>
</a>
</g>
</g>
<!-- Node4&#45;&gt;Node5 -->
<g id="edge5_Node000004_Node000005" class="edge">
<title>Node4&#45;&gt;Node5</title>
<g id="a_edge5_Node000004_Node000005"><a xlink:title=" ">
<path fill="none" stroke="#63b8ff" d="M179.57,-128.91C151.75,-118.94 117.8,-106.78 91.74,-97.44"/>
<polygon fill="#63b8ff" stroke="#63b8ff" points="178.31,-132.54 188.91,-132.61 180.67,-125.95 178.31,-132.54"/>
</a>
</g>
</g>
<!-- Node7 -->
<g id="Node000007" class="node">
<title>Node7</title>
<g id="a_Node000007"><a xlink:href="../../db/d81/_translate_widget_8h.html" target="_top" xlink:title=" ">
<polygon fill="white" stroke="#666666" points="221.5,-97 120,-97 120,-66.5 221.5,-66.5 221.5,-97"/>
<text text-anchor="start" x="128" y="-83.5" font-family="Helvetica,sans-Serif" font-size="10.00">src/libigl/igl/opengl2</text>
<text text-anchor="middle" x="170.75" y="-72.25" font-family="Helvetica,sans-Serif" font-size="10.00">/TranslateWidget.h</text>
</a>
</g>
</g>
<!-- Node4&#45;&gt;Node7 -->
<g id="edge7_Node000004_Node000007" class="edge">
<title>Node4&#45;&gt;Node7</title>
<g id="a_edge7_Node000004_Node000007"><a xlink:title=" ">
<path fill="none" stroke="#63b8ff" d="M209.76,-124.69C201.32,-115.61 191.82,-105.4 184.31,-97.33"/>
<polygon fill="#63b8ff" stroke="#63b8ff" points="206.76,-126.68 216.14,-131.61 211.89,-121.91 206.76,-126.68"/>
</a>
</g>
</g>
<!-- Node8 -->
<g id="Node000008" class="node">
<title>Node8</title>
<g id="a_Node000008"><a xlink:href="../../d5/dbb/lens__flare_8cpp.html" target="_top" xlink:title=" ">
<polygon fill="white" stroke="#666666" points="341.5,-97 240,-97 240,-66.5 341.5,-66.5 341.5,-97"/>
<text text-anchor="start" x="248" y="-83.5" font-family="Helvetica,sans-Serif" font-size="10.00">src/libigl/igl/opengl2</text>
<text text-anchor="middle" x="290.75" y="-72.25" font-family="Helvetica,sans-Serif" font-size="10.00">/lens_flare.cpp</text>
</a>
</g>
</g>
<!-- Node4&#45;&gt;Node8 -->
<g id="edge9_Node000004_Node000008" class="edge">
<title>Node4&#45;&gt;Node8</title>
<g id="a_edge9_Node000004_Node000008"><a xlink:title=" ">
<path fill="none" stroke="#63b8ff" d="M251.74,-124.69C260.18,-115.61 269.68,-105.4 277.19,-97.33"/>
<polygon fill="#63b8ff" stroke="#63b8ff" points="249.61,-121.91 245.36,-131.61 254.74,-126.68 249.61,-121.91"/>
</a>
</g>
</g>
<!-- Node10 -->
<g id="Node000010" class="node">
<title>Node10</title>
<g id="a_Node000010"><a xlink:href="../../db/da8/unproject__to__zero__plane_8cpp.html" target="_top" xlink:title=" ">
<polygon fill="white" stroke="#666666" points="503.5,-97 360,-97 360,-66.5 503.5,-66.5 503.5,-97"/>
<text text-anchor="start" x="368" y="-83.5" font-family="Helvetica,sans-Serif" font-size="10.00">src/libigl/igl/opengl2</text>
<text text-anchor="middle" x="431.75" y="-72.25" font-family="Helvetica,sans-Serif" font-size="10.00">/unproject_to_zero_plane.cpp</text>
</a>
</g>
</g>
<!-- Node4&#45;&gt;Node10 -->
<g id="edge13_Node000004_Node000010" class="edge">
<title>Node4&#45;&gt;Node10</title>
<g id="a_edge13_Node000004_Node000010"><a xlink:title=" ">
<path fill="none" stroke="#63b8ff" d="M286.92,-129.22C318.21,-119.18 356.67,-106.84 386.09,-97.4"/>
<polygon fill="#63b8ff" stroke="#63b8ff" points="286.06,-126.15 277.61,-132.53 288.2,-132.81 286.06,-126.15"/>
</a>
</g>
</g>
<!-- Node6 -->
<g id="Node000006" class="node">
<title>Node6</title>
<g id="a_Node000006"><a xlink:href="../../d4/d18/_mouse_controller_8h.html" target="_top" xlink:title=" ">
<polygon fill="white" stroke="#666666" points="161.5,-30.5 60,-30.5 60,0 161.5,0 161.5,-30.5"/>
<text text-anchor="start" x="68" y="-17" font-family="Helvetica,sans-Serif" font-size="10.00">src/libigl/igl/opengl2</text>
<text text-anchor="middle" x="110.75" y="-5.75" font-family="Helvetica,sans-Serif" font-size="10.00">/MouseController.h</text>
</a>
</g>
</g>
<!-- Node5&#45;&gt;Node6 -->
<g id="edge6_Node000005_Node000006" class="edge">
<title>Node5&#45;&gt;Node6</title>
<g id="a_edge6_Node000005_Node000006"><a xlink:title=" ">
<path fill="none" stroke="#63b8ff" d="M71.74,-58.19C80.18,-49.11 89.68,-38.9 97.19,-30.83"/>
<polygon fill="#63b8ff" stroke="#63b8ff" points="69.61,-55.41 65.36,-65.11 74.74,-60.18 69.61,-55.41"/>
</a>
</g>
</g>
<!-- Node7&#45;&gt;Node6 -->
<g id="edge8_Node000007_Node000006" class="edge">
<title>Node7&#45;&gt;Node6</title>
<g id="a_edge8_Node000007_Node000006"><a xlink:title=" ">
<path fill="none" stroke="#63b8ff" d="M149.76,-58.19C141.32,-49.11 131.82,-38.9 124.31,-30.83"/>
<polygon fill="#63b8ff" stroke="#63b8ff" points="146.76,-60.18 156.14,-65.11 151.89,-55.41 146.76,-60.18"/>
</a>
</g>
</g>
<!-- Node9 -->
<g id="Node000009" class="node">
<title>Node9</title>
<g id="a_Node000009"><a xlink:href="../../da/d53/lens__flare_8h.html" target="_top" xlink:title=" ">
<polygon fill="white" stroke="#666666" points="341.5,-30.5 240,-30.5 240,0 341.5,0 341.5,-30.5"/>
<text text-anchor="start" x="248" y="-17" font-family="Helvetica,sans-Serif" font-size="10.00">src/libigl/igl/opengl2</text>
<text text-anchor="middle" x="290.75" y="-5.75" font-family="Helvetica,sans-Serif" font-size="10.00">/lens_flare.h</text>
</a>
</g>
</g>
<!-- Node8&#45;&gt;Node9 -->
<g id="edge10_Node000008_Node000009" class="edge">
<title>Node8&#45;&gt;Node9</title>
<g id="a_edge10_Node000008_Node000009"><a xlink:title=" ">
<path fill="none" stroke="#63b8ff" d="M284.14,-55.38C283.8,-47.05 284.08,-38.08 285,-30.83"/>
<polygon fill="#63b8ff" stroke="#63b8ff" points="280.71,-55.42 284.99,-65.11 287.69,-54.87 280.71,-55.42"/>
</a>
</g>
</g>
<!-- Node9&#45;&gt;Node8 -->
<g id="edge11_Node000009_Node000008" class="edge">
<title>Node9&#45;&gt;Node8</title>
<g id="a_edge11_Node000009_Node000008"><a xlink:title=" ">
<path fill="none" stroke="#63b8ff" d="M297.36,-41.56C297.7,-49.88 297.42,-58.86 296.51,-66.11"/>
<polygon fill="#63b8ff" stroke="#63b8ff" points="300.79,-41.52 296.5,-31.83 293.81,-42.07 300.79,-41.52"/>
</a>
</g>
</g>
<!-- Node11 -->
<g id="Node000011" class="node">
<title>Node11</title>
<g id="a_Node000011"><a xlink:href="../../da/da3/unproject__to__zero__plane_8h.html" target="_top" xlink:title=" ">
<polygon fill="white" stroke="#666666" points="498.25,-30.5 365.25,-30.5 365.25,0 498.25,0 498.25,-30.5"/>
<text text-anchor="start" x="373.25" y="-17" font-family="Helvetica,sans-Serif" font-size="10.00">src/libigl/igl/opengl2</text>
<text text-anchor="middle" x="431.75" y="-5.75" font-family="Helvetica,sans-Serif" font-size="10.00">/unproject_to_zero_plane.h</text>
</a>
</g>
</g>
<!-- Node10&#45;&gt;Node11 -->
<g id="edge14_Node000010_Node000011" class="edge">
<title>Node10&#45;&gt;Node11</title>
<g id="a_edge14_Node000010_Node000011"><a xlink:title=" ">
<path fill="none" stroke="#63b8ff" d="M425.14,-55.38C424.8,-47.05 425.08,-38.08 426,-30.83"/>
<polygon fill="#63b8ff" stroke="#63b8ff" points="421.71,-55.42 425.99,-65.11 428.69,-54.87 421.71,-55.42"/>
</a>
</g>
</g>
<!-- Node11&#45;&gt;Node10 -->
<g id="edge15_Node000011_Node000010" class="edge">
<title>Node11&#45;&gt;Node10</title>
<g id="a_edge15_Node000011_Node000010"><a xlink:title=" ">
<path fill="none" stroke="#63b8ff" d="M438.36,-41.56C438.7,-49.88 438.42,-58.86 437.51,-66.11"/>
<polygon fill="#63b8ff" stroke="#63b8ff" points="441.79,-41.52 437.5,-31.83 434.81,-42.07 441.79,-41.52"/>
</a>
</g>
</g>
</g>
</svg>
