<?xml version="1.0" encoding="UTF-8" standalone="no"?>
<!DOCTYPE svg PUBLIC "-//W3C//DTD SVG 1.1//EN"
 "http://www.w3.org/Graphics/SVG/1.1/DTD/svg11.dtd">
<!-- Generated by graphviz version 8.0.5 (20230430.1635)
 -->
<!-- Title: src/glu&#45;libtess/src/tess.h Pages: 1 -->
<svg width="418pt" height="172pt"
 viewBox="0.00 0.00 418.25 171.50" xmlns="http://www.w3.org/2000/svg" xmlns:xlink="http://www.w3.org/1999/xlink">

<svg id="main" version="1.1" xmlns="http://www.w3.org/2000/svg" xmlns:xlink="http://www.w3.org/1999/xlink" xml:space="preserve" onload="init(evt)">
<style type="text/css"><![CDATA[
.node, .edge {opacity: 0.7;}
.node.selected, .edge.selected {opacity: 1;}
.edge:hover path { stroke: red; }
.edge:hover polygon { stroke: red; fill: red; }
]]></style>
<script type="application/ecmascript" xlink:href="../../svg.min.js"/>
<svg id="graph" class="graph">
<g id="graph0" class="graph" transform="scale(1 1) rotate(0) translate(4 167.5)">
<title>src/glu&#45;libtess/src/tess.h</title>
<!-- Node1 -->
<g id="Node000001" class="node">
<title>Node1</title>
<g id="a_Node000001"><a xlink:title=" ">
<polygon fill="#999999" stroke="#666666" points="224.25,-163.5 131,-163.5 131,-133 224.25,-133 224.25,-163.5"/>
<text text-anchor="start" x="139" y="-150" font-family="Helvetica,sans-Serif" font-size="10.00">src/glu&#45;libtess/src</text>
<text text-anchor="middle" x="177.62" y="-138.75" font-family="Helvetica,sans-Serif" font-size="10.00">/tess.h</text>
</a>
</g>
</g>
<!-- Node2 -->
<g id="Node000002" class="node">
<title>Node2</title>
<g id="a_Node000002"><a xlink:href="../../d6/d4f/normal_8c.html" target="_top" xlink:title=" ">
<polygon fill="white" stroke="#666666" points="93.25,-30.5 0,-30.5 0,0 93.25,0 93.25,-30.5"/>
<text text-anchor="start" x="8" y="-17" font-family="Helvetica,sans-Serif" font-size="10.00">src/glu&#45;libtess/src</text>
<text text-anchor="middle" x="46.62" y="-5.75" font-family="Helvetica,sans-Serif" font-size="10.00">/normal.c</text>
</a>
</g>
</g>
<!-- Node1&#45;&gt;Node2 -->
<g id="edge1_Node000001_Node000002" class="edge">
<title>Node1&#45;&gt;Node2</title>
<g id="a_edge1_Node000001_Node000002"><a xlink:title=" ">
<path fill="none" stroke="#63b8ff" d="M120.06,-140.18C93.03,-133.65 63.19,-121.1 46.62,-97 33.12,-77.36 37.55,-48.2 42.05,-30.82"/>
<polygon fill="#63b8ff" stroke="#63b8ff" points="119.11,-143.77 129.63,-142.47 120.6,-136.93 119.11,-143.77"/>
</a>
</g>
</g>
<!-- Node3 -->
<g id="Node000003" class="node">
<title>Node3</title>
<g id="a_Node000003"><a xlink:href="../../db/de6/normal_8h.html" target="_top" xlink:title=" ">
<polygon fill="white" stroke="#666666" points="149.25,-97 56,-97 56,-66.5 149.25,-66.5 149.25,-97"/>
<text text-anchor="start" x="64" y="-83.5" font-family="Helvetica,sans-Serif" font-size="10.00">src/glu&#45;libtess/src</text>
<text text-anchor="middle" x="102.62" y="-72.25" font-family="Helvetica,sans-Serif" font-size="10.00">/normal.h</text>
</a>
</g>
</g>
<!-- Node1&#45;&gt;Node3 -->
<g id="edge2_Node000001_Node000003" class="edge">
<title>Node1&#45;&gt;Node3</title>
<g id="a_edge2_Node000001_Node000003"><a xlink:title=" ">
<path fill="none" stroke="#63b8ff" d="M152.35,-125.52C141.56,-116.23 129.25,-105.65 119.58,-97.33"/>
<polygon fill="#63b8ff" stroke="#63b8ff" points="149.74,-128.75 159.61,-132.61 154.31,-123.44 149.74,-128.75"/>
</a>
</g>
</g>
<!-- Node4 -->
<g id="Node000004" class="node">
<title>Node4</title>
<g id="a_Node000004"><a xlink:href="../../d1/d8e/tess_8c.html" target="_top" xlink:title=" ">
<polygon fill="white" stroke="#666666" points="214.25,-30.5 121,-30.5 121,0 214.25,0 214.25,-30.5"/>
<text text-anchor="start" x="129" y="-17" font-family="Helvetica,sans-Serif" font-size="10.00">src/glu&#45;libtess/src</text>
<text text-anchor="middle" x="167.62" y="-5.75" font-family="Helvetica,sans-Serif" font-size="10.00">/tess.c</text>
</a>
</g>
</g>
<!-- Node1&#45;&gt;Node4 -->
<g id="edge7_Node000001_Node000004" class="edge">
<title>Node1&#45;&gt;Node4</title>
<g id="a_edge7_Node000001_Node000004"><a xlink:title=" ">
<path fill="none" stroke="#63b8ff" d="M175.68,-121.79C173.61,-94.71 170.42,-52.81 168.74,-30.83"/>
<polygon fill="#63b8ff" stroke="#63b8ff" points="172.27,-122.03 176.52,-131.73 179.25,-121.49 172.27,-122.03"/>
</a>
</g>
</g>
<!-- Node5 -->
<g id="Node000005" class="node">
<title>Node5</title>
<g id="a_Node000005"><a xlink:href="../../dc/dcf/render_8c.html" target="_top" xlink:title=" ">
<polygon fill="white" stroke="#666666" points="299.25,-97 206,-97 206,-66.5 299.25,-66.5 299.25,-97"/>
<text text-anchor="start" x="214" y="-83.5" font-family="Helvetica,sans-Serif" font-size="10.00">src/glu&#45;libtess/src</text>
<text text-anchor="middle" x="252.62" y="-72.25" font-family="Helvetica,sans-Serif" font-size="10.00">/render.c</text>
</a>
</g>
</g>
<!-- Node1&#45;&gt;Node5 -->
<g id="edge5_Node000001_Node000005" class="edge">
<title>Node1&#45;&gt;Node5</title>
<g id="a_edge5_Node000001_Node000005"><a xlink:title=" ">
<path fill="none" stroke="#63b8ff" d="M202.9,-125.52C213.69,-116.23 226,-105.65 235.67,-97.33"/>
<polygon fill="#63b8ff" stroke="#63b8ff" points="200.94,-123.44 195.64,-132.61 205.51,-128.75 200.94,-123.44"/>
</a>
</g>
</g>
<!-- Node6 -->
<g id="Node000006" class="node">
<title>Node6</title>
<g id="a_Node000006"><a xlink:href="../../d0/d91/sweep_8c.html" target="_top" xlink:title=" ">
<polygon fill="white" stroke="#666666" points="410.25,-97 317,-97 317,-66.5 410.25,-66.5 410.25,-97"/>
<text text-anchor="start" x="325" y="-83.5" font-family="Helvetica,sans-Serif" font-size="10.00">src/glu&#45;libtess/src</text>
<text text-anchor="middle" x="363.62" y="-72.25" font-family="Helvetica,sans-Serif" font-size="10.00">/sweep.c</text>
</a>
</g>
</g>
<!-- Node1&#45;&gt;Node6 -->
<g id="edge6_Node000001_Node000006" class="edge">
<title>Node1&#45;&gt;Node6</title>
<g id="a_edge6_Node000001_Node000006"><a xlink:title=" ">
<path fill="none" stroke="#63b8ff" d="M230.13,-129.04C258.95,-119.05 294.22,-106.82 321.26,-97.44"/>
<polygon fill="#63b8ff" stroke="#63b8ff" points="229.13,-126.03 220.83,-132.61 231.43,-132.64 229.13,-126.03"/>
</a>
</g>
</g>
<!-- Node3&#45;&gt;Node2 -->
<g id="edge3_Node000003_Node000002" class="edge">
<title>Node3&#45;&gt;Node2</title>
<g id="a_edge3_Node000003_Node000002"><a xlink:title=" ">
<path fill="none" stroke="#63b8ff" d="M82.79,-57.91C74.97,-48.9 66.22,-38.82 59.28,-30.83"/>
<polygon fill="#63b8ff" stroke="#63b8ff" points="80.72,-59.86 89.92,-65.11 86,-55.27 80.72,-59.86"/>
</a>
</g>
</g>
<!-- Node3&#45;&gt;Node4 -->
<g id="edge4_Node000003_Node000004" class="edge">
<title>Node3&#45;&gt;Node4</title>
<g id="a_edge4_Node000003_Node000004"><a xlink:title=" ">
<path fill="none" stroke="#63b8ff" d="M125.08,-58.46C134.3,-49.32 144.72,-38.98 152.93,-30.83"/>
<polygon fill="#63b8ff" stroke="#63b8ff" points="123.01,-55.59 118.37,-65.11 127.94,-60.55 123.01,-55.59"/>
</a>
</g>
</g>
</g>
</svg>
</svg>

<style type='text/css'>
<![CDATA[
[data-mouse-over-selected='false'] { opacity: 0.7; }
[data-mouse-over-selected='true']  { opacity: 1.0; }
]]>
</style>
<script type="application/ecmascript"><![CDATA[
document.addEventListener('DOMContentLoaded', (event) => {
  highlightEdges();
  highlightAdjacentNodes();
});
]]></script>
</svg>
