<?xml version="1.0" encoding="UTF-8" standalone="no"?>
<!DOCTYPE svg PUBLIC "-//W3C//DTD SVG 1.1//EN"
 "http://www.w3.org/Graphics/SVG/1.1/DTD/svg11.dtd">
<!-- Generated by graphviz version 8.0.5 (20230430.1635)
 -->
<!-- Title: src/agg/agg_gamma_lut.h Pages: 1 -->
<svg width="196pt" height="193pt"
 viewBox="0.00 0.00 195.97 193.00" xmlns="http://www.w3.org/2000/svg" xmlns:xlink="http://www.w3.org/1999/xlink">

<svg id="main" version="1.1" xmlns="http://www.w3.org/2000/svg" xmlns:xlink="http://www.w3.org/1999/xlink" xml:space="preserve" onload="init(evt)">
<style type="text/css"><![CDATA[
.node, .edge {opacity: 0.7;}
.node.selected, .edge.selected {opacity: 1;}
.edge:hover path { stroke: red; }
.edge:hover polygon { stroke: red; fill: red; }
]]></style>
<script type="application/ecmascript" xlink:href="../../svg.min.js"/>
<svg id="graph" class="graph">
<g id="graph0" class="graph" transform="scale(1 1) rotate(0) translate(4 189)">
<title>src/agg/agg_gamma_lut.h</title>
<!-- Node1 -->
<g id="Node000001" class="node">
<title>Node1</title>
<g id="a_Node000001"><a xlink:title=" ">
<polygon fill="#999999" stroke="#666666" points="137.47,-185 8.97,-185 8.97,-165.75 137.47,-165.75 137.47,-185"/>
<text text-anchor="middle" x="73.22" y="-171.5" font-family="Helvetica,sans-Serif" font-size="10.00">src/agg/agg_gamma_lut.h</text>
</a>
</g>
</g>
<!-- Node2 -->
<g id="Node000002" class="node">
<title>Node2</title>
<g id="a_Node000002"><a xlink:title=" ">
<polygon fill="#e0e0e0" stroke="#999999" points="54.22,-74.5 8.22,-74.5 8.22,-55.25 54.22,-55.25 54.22,-74.5"/>
<text text-anchor="middle" x="31.22" y="-61" font-family="Helvetica,sans-Serif" font-size="10.00">math.h</text>
</a>
</g>
</g>
<!-- Node1&#45;&gt;Node2 -->
<g id="edge1_Node000001_Node000002" class="edge">
<title>Node1&#45;&gt;Node2</title>
<g id="a_edge1_Node000001_Node000002"><a xlink:title=" ">
<path fill="none" stroke="#63b8ff" d="M47.36,-165.32C31.53,-158.29 12.58,-146.81 3.22,-129.75 -5.2,-114.4 4.83,-96 15.15,-82.91"/>
<polygon fill="#63b8ff" stroke="#63b8ff" points="18.26,-85.66 22.12,-75.79 12.95,-81.1 18.26,-85.66"/>
</a>
</g>
</g>
<!-- Node3 -->
<g id="Node000003" class="node">
<title>Node3</title>
<g id="a_Node000003"><a xlink:href="../../d9/dec/agg__basics_8h.html" target="_top" xlink:title=" ">
<polygon fill="white" stroke="#666666" points="151.1,-74.5 77.35,-74.5 77.35,-55.25 151.1,-55.25 151.1,-74.5"/>
<text text-anchor="middle" x="114.22" y="-61" font-family="Helvetica,sans-Serif" font-size="10.00">agg_basics.h</text>
</a>
</g>
</g>
<!-- Node1&#45;&gt;Node3 -->
<g id="edge2_Node000001_Node000003" class="edge">
<title>Node1&#45;&gt;Node3</title>
<g id="a_edge2_Node000001_Node000003"><a xlink:title=" ">
<path fill="none" stroke="#63b8ff" d="M99.08,-165.32C114.91,-158.29 133.87,-146.81 143.22,-129.75 151.69,-114.31 141.34,-95.93 130.72,-82.86"/>
<polygon fill="#63b8ff" stroke="#63b8ff" points="133.81,-80.93 124.56,-75.76 128.56,-85.57 133.81,-80.93"/>
</a>
</g>
</g>
<!-- Node6 -->
<g id="Node000006" class="node">
<title>Node6</title>
<g id="a_Node000006"><a xlink:href="../../d6/d5c/agg__gamma__functions_8h.html" target="_top" xlink:title=" ">
<polygon fill="white" stroke="#666666" points="134.47,-129.75 11.97,-129.75 11.97,-110.5 134.47,-110.5 134.47,-129.75"/>
<text text-anchor="middle" x="73.22" y="-116.25" font-family="Helvetica,sans-Serif" font-size="10.00">agg_gamma_functions.h</text>
</a>
</g>
</g>
<!-- Node1&#45;&gt;Node6 -->
<g id="edge5_Node000001_Node000006" class="edge">
<title>Node1&#45;&gt;Node6</title>
<g id="a_edge5_Node000001_Node000006"><a xlink:title=" ">
<path fill="none" stroke="#63b8ff" d="M73.22,-165.58C73.22,-158.92 73.22,-149.49 73.22,-141.03"/>
<polygon fill="#63b8ff" stroke="#63b8ff" points="76.72,-141.11 73.22,-131.11 69.72,-141.11 76.72,-141.11"/>
</a>
</g>
</g>
<!-- Node4 -->
<g id="Node000004" class="node">
<title>Node4</title>
<g id="a_Node000004"><a xlink:title=" ">
<polygon fill="#e0e0e0" stroke="#999999" points="98.72,-19.25 55.72,-19.25 55.72,0 98.72,0 98.72,-19.25"/>
<text text-anchor="middle" x="77.22" y="-5.75" font-family="Helvetica,sans-Serif" font-size="10.00">cmath</text>
</a>
</g>
</g>
<!-- Node3&#45;&gt;Node4 -->
<g id="edge3_Node000003_Node000004" class="edge">
<title>Node3&#45;&gt;Node4</title>
<g id="a_edge3_Node000003_Node000004"><a xlink:title=" ">
<path fill="none" stroke="#63b8ff" d="M108.11,-55.08C103.11,-47.88 95.86,-37.46 89.65,-28.51"/>
<polygon fill="#63b8ff" stroke="#63b8ff" points="92.05,-26.82 83.46,-20.61 86.3,-30.82 92.05,-26.82"/>
</a>
</g>
</g>
<!-- Node5 -->
<g id="Node000005" class="node">
<title>Node5</title>
<g id="a_Node000005"><a xlink:href="../../d4/df4/agg__config_8h.html" target="_top" xlink:title=" ">
<polygon fill="white" stroke="#666666" points="187.97,-19.25 116.47,-19.25 116.47,0 187.97,0 187.97,-19.25"/>
<text text-anchor="middle" x="152.22" y="-5.75" font-family="Helvetica,sans-Serif" font-size="10.00">agg_config.h</text>
</a>
</g>
</g>
<!-- Node3&#45;&gt;Node5 -->
<g id="edge4_Node000003_Node000005" class="edge">
<title>Node3&#45;&gt;Node5</title>
<g id="a_edge4_Node000003_Node000005"><a xlink:title=" ">
<path fill="none" stroke="#63b8ff" d="M120.5,-55.08C125.64,-47.88 133.08,-37.46 139.46,-28.51"/>
<polygon fill="#63b8ff" stroke="#63b8ff" points="142.85,-30.78 145.81,-20.61 137.15,-26.72 142.85,-30.78"/>
</a>
</g>
</g>
<!-- Node6&#45;&gt;Node2 -->
<g id="edge6_Node000006_Node000002" class="edge">
<title>Node6&#45;&gt;Node2</title>
<g id="a_edge6_Node000006_Node000002"><a xlink:title=" ">
<path fill="none" stroke="#63b8ff" d="M66.29,-110.33C60.55,-103.05 52.21,-92.48 45.1,-83.48"/>
<polygon fill="#63b8ff" stroke="#63b8ff" points="47.25,-81.54 38.31,-75.86 41.75,-85.88 47.25,-81.54"/>
</a>
</g>
</g>
<!-- Node6&#45;&gt;Node3 -->
<g id="edge7_Node000006_Node000003" class="edge">
<title>Node6&#45;&gt;Node3</title>
<g id="a_edge7_Node000006_Node000003"><a xlink:title=" ">
<path fill="none" stroke="#63b8ff" d="M79.99,-110.33C85.6,-103.05 93.73,-92.48 100.67,-83.48"/>
<polygon fill="#63b8ff" stroke="#63b8ff" points="103.98,-85.92 107.3,-75.86 98.43,-81.65 103.98,-85.92"/>
</a>
</g>
</g>
</g>
</svg>
</svg>

<style type='text/css'>
<![CDATA[
[data-mouse-over-selected='false'] { opacity: 0.7; }
[data-mouse-over-selected='true']  { opacity: 1.0; }
]]>
</style>
<script type="application/ecmascript"><![CDATA[
document.addEventListener('DOMContentLoaded', (event) => {
  highlightEdges();
  highlightAdjacentNodes();
});
]]></script>
</svg>
