<?xml version="1.0" encoding="UTF-8" standalone="no"?>
<!DOCTYPE svg PUBLIC "-//W3C//DTD SVG 1.1//EN"
 "http://www.w3.org/Graphics/SVG/1.1/DTD/svg11.dtd">
<!-- Generated by graphviz version 8.0.5 (20230430.1635)
 -->
<!-- Title: Slic3r::PresetUpdater::config_update Pages: 1 -->
<svg width="442pt" height="217pt"
 viewBox="0.00 0.00 442.25 217.25" xmlns="http://www.w3.org/2000/svg" xmlns:xlink="http://www.w3.org/1999/xlink">
<g id="graph0" class="graph" transform="scale(1 1) rotate(0) translate(4 213.25)">
<title>Slic3r::PresetUpdater::config_update</title>
<!-- Node1 -->
<g id="Node000001" class="node">
<title>Node1</title>
<g id="a_Node000001"><a xlink:title=" ">
<polygon fill="#999999" stroke="#666666" points="109.75,-110.88 0,-110.88 0,-80.38 109.75,-80.38 109.75,-110.88"/>
<text text-anchor="start" x="8" y="-97.38" font-family="Helvetica,sans-Serif" font-size="10.00">Slic3r::PresetUpdater</text>
<text text-anchor="middle" x="54.88" y="-86.12" font-family="Helvetica,sans-Serif" font-size="10.00">::config_update</text>
</a>
</g>
</g>
<!-- Node2 -->
<g id="Node000002" class="node">
<title>Node2</title>
<g id="a_Node000002"><a xlink:href="../../de/db8/namespace_slic3r.html#ab28c13d286b2d1767d7c63b020ebd042" target="_top" xlink:title=" ">
<polygon fill="white" stroke="#666666" points="237.88,-209.25 163.38,-209.25 163.38,-190 237.88,-190 237.88,-209.25"/>
<text text-anchor="middle" x="200.62" y="-195.75" font-family="Helvetica,sans-Serif" font-size="10.00">Slic3r::format</text>
</a>
</g>
</g>
<!-- Node1&#45;&gt;Node2 -->
<g id="edge1_Node000001_Node000002" class="edge">
<title>Node1&#45;&gt;Node2</title>
<g id="a_edge1_Node000001_Node000002"><a xlink:title=" ">
<path fill="none" stroke="#63b8ff" d="M68.65,-111.18C84.84,-129.99 114.41,-161.48 145.75,-180.62 148.41,-182.25 151.23,-183.76 154.12,-185.16"/>
<polygon fill="#63b8ff" stroke="#63b8ff" points="152.59,-188.75 163.16,-189.51 155.38,-182.32 152.59,-188.75"/>
</a>
</g>
</g>
<!-- Node4 -->
<g id="Node000004" class="node">
<title>Node4</title>
<g id="a_Node000004"><a xlink:href="../../d9/d45/namespace_slic3r_1_1_g_u_i.html#a252e4767c2ea4b09fe7996e808719812" target="_top" xlink:title=" ">
<polygon fill="white" stroke="#666666" points="249.88,-153.88 151.38,-153.88 151.38,-123.38 249.88,-123.38 249.88,-153.88"/>
<text text-anchor="start" x="159.38" y="-140.38" font-family="Helvetica,sans-Serif" font-size="10.00">Slic3r::GUI::format</text>
<text text-anchor="middle" x="200.62" y="-129.12" font-family="Helvetica,sans-Serif" font-size="10.00">_wxstr</text>
</a>
</g>
</g>
<!-- Node1&#45;&gt;Node4 -->
<g id="edge3_Node000001_Node000004" class="edge">
<title>Node1&#45;&gt;Node4</title>
<g id="a_edge3_Node000001_Node000004"><a xlink:title=" ">
<path fill="none" stroke="#63b8ff" d="M108.18,-111.27C118.65,-114.4 129.73,-117.72 140.42,-120.92"/>
<polygon fill="#63b8ff" stroke="#63b8ff" points="139.36,-124.55 149.95,-124.06 141.37,-117.84 139.36,-124.55"/>
</a>
</g>
</g>
<!-- Node5 -->
<g id="Node000005" class="node">
<title>Node5</title>
<g id="a_Node000005"><a xlink:href="../../d0/d1c/class_slic3r_1_1_semver.html#a8057b4c6b9d312e72743f18e98d65e96" target="_top" xlink:title=" ">
<polygon fill="white" stroke="#666666" points="249.12,-105.25 152.12,-105.25 152.12,-86 249.12,-86 249.12,-105.25"/>
<text text-anchor="middle" x="200.62" y="-91.75" font-family="Helvetica,sans-Serif" font-size="10.00">Slic3r::Semver::inf</text>
</a>
</g>
</g>
<!-- Node1&#45;&gt;Node5 -->
<g id="edge6_Node000001_Node000005" class="edge">
<title>Node1&#45;&gt;Node5</title>
<g id="a_edge6_Node000001_Node000005"><a xlink:title=" ">
<path fill="none" stroke="#63b8ff" d="M110.22,-95.62C120.26,-95.62 130.79,-95.62 140.96,-95.62"/>
<polygon fill="#63b8ff" stroke="#63b8ff" points="140.8,-99.13 150.8,-95.62 140.8,-92.13 140.8,-99.13"/>
</a>
</g>
</g>
<!-- Node7 -->
<g id="Node000007" class="node">
<title>Node7</title>
<g id="a_Node000007"><a xlink:href="../../de/db8/namespace_slic3r.html#a802a766ff0d189b04f6931b80a835c5c" target="_top" xlink:title=" ">
<polygon fill="white" stroke="#666666" points="255.5,-67.88 145.75,-67.88 145.75,-37.38 255.5,-37.38 255.5,-67.88"/>
<text text-anchor="start" x="153.75" y="-54.38" font-family="Helvetica,sans-Serif" font-size="10.00">Slic3r::reload_configs</text>
<text text-anchor="middle" x="200.62" y="-43.12" font-family="Helvetica,sans-Serif" font-size="10.00">_update_gui</text>
</a>
</g>
</g>
<!-- Node1&#45;&gt;Node7 -->
<g id="edge8_Node000001_Node000007" class="edge">
<title>Node1&#45;&gt;Node7</title>
<g id="a_edge8_Node000001_Node000007"><a xlink:title=" ">
<path fill="none" stroke="#63b8ff" d="M108.18,-79.98C117.49,-77.19 127.28,-74.26 136.85,-71.4"/>
<polygon fill="#63b8ff" stroke="#63b8ff" points="137.54,-74.55 146.12,-68.33 135.54,-67.84 137.54,-74.55"/>
</a>
</g>
</g>
<!-- Node8 -->
<g id="Node000008" class="node">
<title>Node8</title>
<g id="a_Node000008"><a xlink:href="../../d0/d1c/class_slic3r_1_1_semver.html#a3f744d181a1d212c574d917f7dd7e2d9" target="_top" xlink:title=" ">
<polygon fill="white" stroke="#666666" points="253.25,-19.25 148,-19.25 148,0 253.25,0 253.25,-19.25"/>
<text text-anchor="middle" x="200.62" y="-5.75" font-family="Helvetica,sans-Serif" font-size="10.00">Slic3r::Semver::zero</text>
</a>
</g>
</g>
<!-- Node1&#45;&gt;Node8 -->
<g id="edge9_Node000001_Node000008" class="edge">
<title>Node1&#45;&gt;Node8</title>
<g id="a_edge9_Node000001_Node000008"><a xlink:title=" ">
<path fill="none" stroke="#63b8ff" d="M73.37,-80.05C90.74,-65.22 118.62,-43.09 145.75,-28.62 149.04,-26.87 152.53,-25.22 156.09,-23.68"/>
<polygon fill="#63b8ff" stroke="#63b8ff" points="157.2,-26.61 165.19,-19.65 154.6,-20.11 157.2,-26.61"/>
</a>
</g>
</g>
<!-- Node3 -->
<g id="Node000003" class="node">
<title>Node3</title>
<g id="a_Node000003"><a xlink:href="../../d5/ddc/namespace_slic3r_1_1internal_1_1format.html#a5a8cae6889e58c9be36cd70a9e9987ff" target="_top" xlink:title=" ">
<polygon fill="white" stroke="#666666" points="418.88,-165.88 306.88,-165.88 306.88,-135.38 418.88,-135.38 418.88,-165.88"/>
<text text-anchor="start" x="314.88" y="-152.38" font-family="Helvetica,sans-Serif" font-size="10.00">Slic3r::internal::format</text>
<text text-anchor="middle" x="362.88" y="-141.12" font-family="Helvetica,sans-Serif" font-size="10.00">::format_recursive</text>
</a>
</g>
</g>
<!-- Node2&#45;&gt;Node3 -->
<g id="edge2_Node000002_Node000003" class="edge">
<title>Node2&#45;&gt;Node3</title>
<g id="a_edge2_Node000002_Node000003"><a xlink:title=" ">
<path fill="none" stroke="#63b8ff" d="M234.44,-189.59C253.33,-183.81 277.69,-176.37 300.05,-169.53"/>
<polygon fill="#63b8ff" stroke="#63b8ff" points="300.95,-172.61 309.49,-166.34 298.9,-165.92 300.95,-172.61"/>
</a>
</g>
</g>
<!-- Node4&#45;&gt;Node3 -->
<g id="edge4_Node000004_Node000003" class="edge">
<title>Node4&#45;&gt;Node3</title>
<g id="a_edge4_Node000004_Node000003"><a xlink:title=" ">
<path fill="none" stroke="#63b8ff" d="M250.14,-142.26C264.45,-143.33 280.35,-144.52 295.58,-145.66"/>
<polygon fill="#63b8ff" stroke="#63b8ff" points="295.27,-149.22 305.51,-146.48 295.8,-142.24 295.27,-149.22"/>
</a>
</g>
</g>
<!-- Node4&#45;&gt;Node4 -->
<g id="edge5_Node000004_Node000004" class="edge">
<title>Node4&#45;&gt;Node4</title>
<g id="a_edge5_Node000004_Node000004"><a xlink:title=" ">
<path fill="none" stroke="#63b8ff" d="M174.8,-154.36C169.53,-163.43 178.14,-171.88 200.62,-171.88 213.27,-171.88 221.53,-169.2 225.4,-165.25"/>
<polygon fill="#63b8ff" stroke="#63b8ff" points="228.97,-165.65 226.45,-155.36 222.01,-164.98 228.97,-165.65"/>
</a>
</g>
</g>
<!-- Node6 -->
<g id="Node000006" class="node">
<title>Node6</title>
<g id="a_Node000006"><a xlink:href="../../d0/d1c/class_slic3r_1_1_semver.html#a5580fce772bdb1496152535cfb7581ca" target="_top" xlink:title=" ">
<polygon fill="white" stroke="#666666" points="423,-93.25 302.75,-93.25 302.75,-74 423,-74 423,-93.25"/>
<text text-anchor="middle" x="362.88" y="-79.75" font-family="Helvetica,sans-Serif" font-size="10.00">Slic3r::Semver::Semver</text>
</a>
</g>
</g>
<!-- Node5&#45;&gt;Node6 -->
<g id="edge7_Node000005_Node000006" class="edge">
<title>Node5&#45;&gt;Node6</title>
<g id="a_edge7_Node000005_Node000006"><a xlink:title=" ">
<path fill="none" stroke="#63b8ff" d="M249.27,-92.06C262.58,-91.06 277.32,-89.96 291.64,-88.88"/>
<polygon fill="#63b8ff" stroke="#63b8ff" points="291.77,-92.31 301.48,-88.07 291.24,-85.33 291.77,-92.31"/>
</a>
</g>
</g>
<!-- Node8&#45;&gt;Node6 -->
<g id="edge10_Node000008_Node000006" class="edge">
<title>Node8&#45;&gt;Node6</title>
<g id="a_edge10_Node000008_Node000006"><a xlink:title=" ">
<path fill="none" stroke="#63b8ff" d="M232.4,-19.65C240.03,-22.36 248.13,-25.44 255.5,-28.62 283.18,-40.59 313.64,-56.65 334.84,-68.33"/>
<polygon fill="#63b8ff" stroke="#63b8ff" points="332.73,-71.71 343.17,-73.51 336.13,-65.59 332.73,-71.71"/>
</a>
</g>
</g>
<!-- Node9 -->
<g id="Node000009" class="node">
<title>Node9</title>
<g id="a_Node000009"><a xlink:href="../../d0/d1c/class_slic3r_1_1_semver.html#a525cd8c11e70152e65d45dac24f869b4" target="_top" xlink:title=" ">
<polygon fill="white" stroke="#666666" points="434.25,-19.25 291.5,-19.25 291.5,0 434.25,0 434.25,-19.25"/>
<text text-anchor="middle" x="362.88" y="-5.75" font-family="Helvetica,sans-Serif" font-size="10.00">Slic3r::Semver::semver_zero</text>
</a>
</g>
</g>
<!-- Node8&#45;&gt;Node9 -->
<g id="edge11_Node000008_Node000009" class="edge">
<title>Node8&#45;&gt;Node9</title>
<g id="a_edge11_Node000008_Node000009"><a xlink:title=" ">
<path fill="none" stroke="#63b8ff" d="M253.65,-9.62C262.17,-9.62 271.16,-9.62 280.18,-9.62"/>
<polygon fill="#63b8ff" stroke="#63b8ff" points="280.17,-13.13 290.17,-9.62 280.17,-6.13 280.17,-13.13"/>
</a>
</g>
</g>
</g>
</svg>
