<?xml version="1.0" encoding="UTF-8" standalone="no"?>
<!DOCTYPE svg PUBLIC "-//W3C//DTD SVG 1.1//EN"
 "http://www.w3.org/Graphics/SVG/1.1/DTD/svg11.dtd">
<!-- Generated by graphviz version 8.0.5 (20230430.1635)
 -->
<!-- Title: Slic3r::GUI::ObjectDataViewModel::AddRoot Pages: 1 -->
<svg width="644pt" height="175pt"
 viewBox="0.00 0.00 644.25 174.50" xmlns="http://www.w3.org/2000/svg" xmlns:xlink="http://www.w3.org/1999/xlink">
<g id="graph0" class="graph" transform="scale(1 1) rotate(0) translate(4 170.5)">
<title>Slic3r::GUI::ObjectDataViewModel::AddRoot</title>
<!-- Node1 -->
<g id="Node000001" class="node">
<title>Node1</title>
<g id="a_Node000001"><a xlink:title=" ">
<polygon fill="#999999" stroke="#666666" points="142,-92.5 0,-92.5 0,-62 142,-62 142,-92.5"/>
<text text-anchor="start" x="8" y="-79" font-family="Helvetica,sans-Serif" font-size="10.00">Slic3r::GUI::ObjectDataView</text>
<text text-anchor="middle" x="71" y="-67.75" font-family="Helvetica,sans-Serif" font-size="10.00">Model::AddRoot</text>
</a>
</g>
</g>
<!-- Node2 -->
<g id="Node000002" class="node">
<title>Node2</title>
<g id="a_Node000002"><a xlink:href="../../d9/d45/namespace_slic3r_1_1_g_u_i.html#a6ba45d8bc0174b96668b17a041008757" target="_top" xlink:title=" ">
<polygon fill="white" stroke="#666666" points="280.25,-92.5 178,-92.5 178,-62 280.25,-62 280.25,-92.5"/>
<text text-anchor="start" x="186" y="-79" font-family="Helvetica,sans-Serif" font-size="10.00">Slic3r::GUI::append</text>
<text text-anchor="middle" x="229.12" y="-67.75" font-family="Helvetica,sans-Serif" font-size="10.00">_root_node</text>
</a>
</g>
</g>
<!-- Node1&#45;&gt;Node2 -->
<g id="edge1_Node000001_Node000002" class="edge">
<title>Node1&#45;&gt;Node2</title>
<g id="a_edge1_Node000001_Node000002"><a xlink:title=" ">
<path fill="none" stroke="#63b8ff" d="M142.3,-77.25C150.53,-77.25 158.89,-77.25 166.98,-77.25"/>
<polygon fill="#63b8ff" stroke="#63b8ff" points="166.83,-80.75 176.83,-77.25 166.83,-73.75 166.83,-80.75"/>
</a>
</g>
</g>
<!-- Node3 -->
<g id="Node000003" class="node">
<title>Node3</title>
<g id="a_Node000003"><a xlink:href="../../d6/d78/class_slic3r_1_1_g_u_i_1_1_object_data_view_model_node.html#ac6e8d6a1259e7823b8a1bbdf00c94b2c" target="_top" xlink:title=" ">
<polygon fill="white" stroke="#666666" points="458.25,-154.5 316.25,-154.5 316.25,-124 458.25,-124 458.25,-154.5"/>
<text text-anchor="start" x="324.25" y="-141" font-family="Helvetica,sans-Serif" font-size="10.00">Slic3r::GUI::ObjectDataView</text>
<text text-anchor="middle" x="387.25" y="-129.75" font-family="Helvetica,sans-Serif" font-size="10.00">ModelNode::Append</text>
</a>
</g>
</g>
<!-- Node2&#45;&gt;Node3 -->
<g id="edge2_Node000002_Node000003" class="edge">
<title>Node2&#45;&gt;Node3</title>
<g id="a_edge2_Node000002_Node000003"><a xlink:title=" ">
<path fill="none" stroke="#63b8ff" d="M263.8,-92.9C279.59,-100.04 298.75,-108.4 316.25,-115.25 320.18,-116.79 324.25,-118.32 328.36,-119.83"/>
<polygon fill="#63b8ff" stroke="#63b8ff" points="327.01,-123.43 337.61,-123.53 329.38,-116.84 327.01,-123.43"/>
</a>
</g>
</g>
<!-- Node4 -->
<g id="Node000004" class="node">
<title>Node4</title>
<g id="a_Node000004"><a xlink:href="../../d9/d45/namespace_slic3r_1_1_g_u_i.html#a418afb89f51b402cad6056e8e8496128" target="_top" xlink:title=" ">
<polygon fill="white" stroke="#666666" points="449.25,-105.88 325.25,-105.88 325.25,-86.62 449.25,-86.62 449.25,-105.88"/>
<text text-anchor="middle" x="387.25" y="-92.38" font-family="Helvetica,sans-Serif" font-size="10.00">Slic3r::GUI::get_root_idx</text>
</a>
</g>
</g>
<!-- Node2&#45;&gt;Node4 -->
<g id="edge3_Node000002_Node000004" class="edge">
<title>Node2&#45;&gt;Node4</title>
<g id="a_edge3_Node000002_Node000004"><a xlink:title=" ">
<path fill="none" stroke="#63b8ff" d="M280.38,-83.37C291.12,-84.67 302.67,-86.08 314.05,-87.46"/>
<polygon fill="#63b8ff" stroke="#63b8ff" points="313.53,-91.05 323.88,-88.78 314.38,-84.1 313.53,-91.05"/>
</a>
</g>
</g>
<!-- Node6 -->
<g id="Node000006" class="node">
<title>Node6</title>
<g id="a_Node000006"><a xlink:href="../../d6/d78/class_slic3r_1_1_g_u_i_1_1_object_data_view_model_node.html#a1ec4bacd8d3b26ee0abc3821e2102b88" target="_top" xlink:title=" ">
<polygon fill="white" stroke="#666666" points="636.25,-68.5 494.25,-68.5 494.25,-38 636.25,-38 636.25,-68.5"/>
<text text-anchor="start" x="502.25" y="-55" font-family="Helvetica,sans-Serif" font-size="10.00">Slic3r::GUI::ObjectDataView</text>
<text text-anchor="middle" x="565.25" y="-43.75" font-family="Helvetica,sans-Serif" font-size="10.00">ModelNode::GetNthChild</text>
</a>
</g>
</g>
<!-- Node2&#45;&gt;Node6 -->
<g id="edge7_Node000002_Node000006" class="edge">
<title>Node2&#45;&gt;Node6</title>
<g id="a_edge7_Node000002_Node000006"><a xlink:title=" ">
<path fill="none" stroke="#63b8ff" d="M280.51,-73.63C334.19,-69.77 419.98,-63.61 483.19,-59.07"/>
<polygon fill="#63b8ff" stroke="#63b8ff" points="483.19,-62.51 492.92,-58.3 482.69,-55.53 483.19,-62.51"/>
</a>
</g>
</g>
<!-- Node8 -->
<g id="Node000008" class="node">
<title>Node8</title>
<g id="a_Node000008"><a xlink:href="../../d6/d78/class_slic3r_1_1_g_u_i_1_1_object_data_view_model_node.html#a624d1896cc97ba1503c3ec120a95e536" target="_top" xlink:title=" ">
<polygon fill="white" stroke="#666666" points="458.25,-30.5 316.25,-30.5 316.25,0 458.25,0 458.25,-30.5"/>
<text text-anchor="start" x="324.25" y="-17" font-family="Helvetica,sans-Serif" font-size="10.00">Slic3r::GUI::ObjectDataView</text>
<text text-anchor="middle" x="387.25" y="-5.75" font-family="Helvetica,sans-Serif" font-size="10.00">ModelNode::Insert</text>
</a>
</g>
</g>
<!-- Node2&#45;&gt;Node8 -->
<g id="edge8_Node000002_Node000008" class="edge">
<title>Node2&#45;&gt;Node8</title>
<g id="a_edge8_Node000002_Node000008"><a xlink:title=" ">
<path fill="none" stroke="#63b8ff" d="M269.52,-61.6C289.88,-53.52 314.92,-43.58 336.59,-34.97"/>
<polygon fill="#63b8ff" stroke="#63b8ff" points="337.59,-37.94 345.59,-31 335.01,-31.44 337.59,-37.94"/>
</a>
</g>
</g>
<!-- Node5 -->
<g id="Node000005" class="node">
<title>Node5</title>
<g id="a_Node000005"><a xlink:href="../../d6/d78/class_slic3r_1_1_g_u_i_1_1_object_data_view_model_node.html#acd212dbb63a8e2ed27bb55fc2f3cd091" target="_top" xlink:title=" ">
<polygon fill="white" stroke="#666666" points="636.25,-166.5 494.25,-166.5 494.25,-136 636.25,-136 636.25,-166.5"/>
<text text-anchor="start" x="502.25" y="-153" font-family="Helvetica,sans-Serif" font-size="10.00">Slic3r::GUI::ObjectDataView</text>
<text text-anchor="middle" x="565.25" y="-141.75" font-family="Helvetica,sans-Serif" font-size="10.00">ModelNode::GetChildCount</text>
</a>
</g>
</g>
<!-- Node4&#45;&gt;Node5 -->
<g id="edge4_Node000004_Node000005" class="edge">
<title>Node4&#45;&gt;Node5</title>
<g id="a_edge4_Node000004_Node000005"><a xlink:title=" ">
<path fill="none" stroke="#63b8ff" d="M427.25,-106.37C437.38,-109.13 448.25,-112.2 458.25,-115.25 475.18,-120.42 493.49,-126.47 510.04,-132.11"/>
<polygon fill="#63b8ff" stroke="#63b8ff" points="508.5,-135.63 519.1,-135.57 510.78,-129.01 508.5,-135.63"/>
</a>
</g>
</g>
<!-- Node4&#45;&gt;Node6 -->
<g id="edge5_Node000004_Node000006" class="edge">
<title>Node4&#45;&gt;Node6</title>
<g id="a_edge5_Node000004_Node000006"><a xlink:title=" ">
<path fill="none" stroke="#63b8ff" d="M429.51,-86.17C447.34,-81.81 468.76,-76.58 489.23,-71.58"/>
<polygon fill="#63b8ff" stroke="#63b8ff" points="489.94,-74.76 498.82,-68.99 488.28,-67.96 489.94,-74.76"/>
</a>
</g>
</g>
<!-- Node7 -->
<g id="Node000007" class="node">
<title>Node7</title>
<g id="a_Node000007"><a xlink:href="../../d6/d78/class_slic3r_1_1_g_u_i_1_1_object_data_view_model_node.html#ac13ab003fd37507a18a6dbb07f9af3b9" target="_top" xlink:title=" ">
<polygon fill="white" stroke="#666666" points="636.25,-117.5 494.25,-117.5 494.25,-87 636.25,-87 636.25,-117.5"/>
<text text-anchor="start" x="502.25" y="-104" font-family="Helvetica,sans-Serif" font-size="10.00">Slic3r::GUI::ObjectDataView</text>
<text text-anchor="middle" x="565.25" y="-92.75" font-family="Helvetica,sans-Serif" font-size="10.00">ModelNode::GetType</text>
</a>
</g>
</g>
<!-- Node4&#45;&gt;Node7 -->
<g id="edge6_Node000004_Node000007" class="edge">
<title>Node4&#45;&gt;Node7</title>
<g id="a_edge6_Node000004_Node000007"><a xlink:title=" ">
<path fill="none" stroke="#63b8ff" d="M449.31,-98.33C460.22,-98.7 471.74,-99.1 483.11,-99.48"/>
<polygon fill="#63b8ff" stroke="#63b8ff" points="482.82,-103.01 492.94,-99.85 483.06,-96.01 482.82,-103.01"/>
</a>
</g>
</g>
</g>
</svg>
