<?xml version="1.0" encoding="UTF-8" standalone="no"?>
<!DOCTYPE svg PUBLIC "-//W3C//DTD SVG 1.1//EN"
 "http://www.w3.org/Graphics/SVG/1.1/DTD/svg11.dtd">
<!-- Generated by graphviz version 8.0.5 (20230430.1635)
 -->
<!-- Title: Slic3r::GUI::ObjectDataViewModel::SetName Pages: 1 -->
<!--zoomable 570 -->

<svg id="main" version="1.1" xmlns="http://www.w3.org/2000/svg" xmlns:xlink="http://www.w3.org/1999/xlink" xml:space="preserve" onload="init(evt)">
<style type="text/css"><![CDATA[
.node, .edge {opacity: 0.7;}
.node.selected, .edge.selected {opacity: 1;}
.edge:hover path { stroke: red; }
.edge:hover polygon { stroke: red; fill: red; }
]]></style>

<defs>
  <circle id="rim" cx="0" cy="0" r="7"/>
  <circle id="rim2" cx="0" cy="0" r="3.5"/>
  <g id="zoomPlus">
    <use xlink:href="#rim" fill="#404040"><set attributeName="fill" to="#808080" begin="zoomplus.mouseover" end="zoomplus.mouseout"/></use>
    <path d="M-4,0h8M0,-4v8" fill="none" stroke="white" stroke-width="1.5" pointer-events="none"/>
  </g>
  <g id="zoomMin">
    <use xlink:href="#rim" fill="#404040"><set attributeName="fill" to="#808080" begin="zoomminus.mouseover" end="zoomminus.mouseout"/></use>
    <path d="M-4,0h8" fill="none" stroke="white" stroke-width="1.5" pointer-events="none"/>
  </g>
  <g id="arrowUp" transform="translate(30 24)">
    <use xlink:href="#rim"/>
    <path pointer-events="none" fill="none" stroke="white" stroke-width="1.5" d="M0,-3.0v7 M-2.5,-0.5L0,-3.0L2.5,-0.5"/>
  </g>
  <g id="arrowRight" transform="rotate(90) translate(36 -43)">
    <use xlink:href="#rim"/>
    <path pointer-events="none" fill="none" stroke="white" stroke-width="1.5" d="M0,-3.0v7 M-2.5,-0.5L0,-3.0L2.5,-0.5"/>
  </g>
  <g id="arrowDown" transform="rotate(180) translate(-30 -48)">
    <use xlink:href="#rim"/>
    <path pointer-events="none" fill="none" stroke="white" stroke-width="1.5" d="M0,-3.0v7 M-2.5,-0.5L0,-3.0L2.5,-0.5"/>
  </g>
  <g id="arrowLeft" transform="rotate(270) translate(-36 17)">
    <use xlink:href="#rim"/>
    <path pointer-events="none" fill="none" stroke="white" stroke-width="1.5" d="M0,-3.0v7 M-2.5,-0.5L0,-3.0L2.5,-0.5"/>
  </g>
  <g id="resetDef">
    <use xlink:href="#rim2" fill="#404040"><set attributeName="fill" to="#808080" begin="reset.mouseover" end="reset.mouseout"/></use>
  </g>
</defs>
<script type="application/ecmascript">
var viewWidth = 1686;
var viewHeight = 570;
var sectionId = 'dynsection-116';
</script>
<script type="application/ecmascript" xlink:href="../../svg.min.js"/>
<svg id="graph" class="graph">
<g id="viewport">
<title>Slic3r::GUI::ObjectDataViewModel::SetName</title>
<!-- Node1 -->
<g id="Node000001" class="node">
<title>Node1</title>
<g id="a_Node000001"><a xlink:title=" ">
<polygon fill="#999999" stroke="#666666" points="1678,-232.12 1536,-232.12 1536,-201.62 1678,-201.62 1678,-232.12"/>
<text text-anchor="start" x="1544" y="-218.62" font-family="Helvetica,sans-Serif" font-size="10.00">Slic3r::GUI::ObjectDataView</text>
<text text-anchor="middle" x="1607" y="-207.38" font-family="Helvetica,sans-Serif" font-size="10.00">Model::SetName</text>
</a>
</g>
</g>
<!-- Node2 -->
<g id="Node000002" class="node">
<title>Node2</title>
<g id="a_Node000002"><a xlink:href="../../dd/d03/class_slic3r_1_1_g_u_i_1_1_object_list.html#a6fbab7869374ead2e6dd74577d72645c" target="_top" xlink:title=" ">
<polygon fill="white" stroke="#666666" points="131.88,-254.12 16.88,-254.12 16.88,-223.62 131.88,-223.62 131.88,-254.12"/>
<text text-anchor="start" x="24.88" y="-240.62" font-family="Helvetica,sans-Serif" font-size="10.00">Slic3r::GUI::ObjectList</text>
<text text-anchor="middle" x="74.38" y="-229.38" font-family="Helvetica,sans-Serif" font-size="10.00">::ObjectList</text>
</a>
</g>
</g>
<!-- Node1&#45;&gt;Node2 -->
<g id="edge1_Node000001_Node000002" class="edge">
<title>Node1&#45;&gt;Node2</title>
<g id="a_edge1_Node000001_Node000002"><a xlink:title=" ">
<path fill="none" stroke="#63b8ff" d="M1524.79,-225.29C1457.82,-231.5 1360.29,-238.88 1274.88,-238.88 1274.88,-238.88 1274.88,-238.88 414.75,-238.88 315.32,-238.88 199.51,-238.88 132.12,-238.88"/>
<polygon fill="#63b8ff" stroke="#63b8ff" points="1525.05,-228.68 1534.68,-224.26 1524.4,-221.71 1525.05,-228.68"/>
</a>
</g>
</g>
<!-- Node3 -->
<g id="Node000003" class="node">
<title>Node3</title>
<g id="a_Node000003"><a xlink:href="../../dd/d03/class_slic3r_1_1_g_u_i_1_1_object_list.html#a56f44d86c87502199836e3e10a246e0f" target="_top" xlink:title=" ">
<polygon fill="white" stroke="#666666" points="1500,-427.75 1375.25,-427.75 1375.25,-386 1500,-386 1500,-427.75"/>
<text text-anchor="start" x="1383.25" y="-414.25" font-family="Helvetica,sans-Serif" font-size="10.00">Slic3r::GUI::ObjectList</text>
<text text-anchor="start" x="1383.25" y="-403" font-family="Helvetica,sans-Serif" font-size="10.00">::add_volumes_to_object</text>
<text text-anchor="middle" x="1437.62" y="-391.75" font-family="Helvetica,sans-Serif" font-size="10.00">_in_list</text>
</a>
</g>
</g>
<!-- Node1&#45;&gt;Node3 -->
<g id="edge2_Node000001_Node000003" class="edge">
<title>Node1&#45;&gt;Node3</title>
<g id="a_edge2_Node000001_Node000003"><a xlink:title=" ">
<path fill="none" stroke="#63b8ff" d="M1585.41,-240.25C1552.58,-277.52 1488.85,-349.86 1457.28,-385.7"/>
<polygon fill="#63b8ff" stroke="#63b8ff" points="1587.32,-243.24 1591.3,-233.42 1582.07,-238.61 1587.32,-243.24"/>
</a>
</g>
</g>
<!-- Node28 -->
<g id="Node000028" class="node">
<title>Node28</title>
<g id="a_Node000028"><a xlink:href="../../dd/d03/class_slic3r_1_1_g_u_i_1_1_object_list.html#a01c3d55b329427883d991bf28dc3e086" target="_top" xlink:title=" ">
<polygon fill="#fff0f0" stroke="red" points="814.25,-338.12 676,-338.12 676,-307.62 814.25,-307.62 814.25,-338.12"/>
<text text-anchor="start" x="684" y="-324.62" font-family="Helvetica,sans-Serif" font-size="10.00">Slic3r::GUI::ObjectList</text>
<text text-anchor="middle" x="745.12" y="-313.38" font-family="Helvetica,sans-Serif" font-size="10.00">::del_subobject_from_object</text>
</a>
</g>
</g>
<!-- Node1&#45;&gt;Node28 -->
<g id="edge34_Node000001_Node000028" class="edge">
<title>Node1&#45;&gt;Node28</title>
<g id="a_edge34_Node000001_Node000028"><a xlink:title=" ">
<path fill="none" stroke="#63b8ff" d="M1556.75,-236.13C1539.09,-242.35 1518.88,-248.72 1500,-252.88 1401.73,-274.52 1375.5,-276.88 1274.88,-276.88 1274.88,-276.88 1274.88,-276.88 1105,-276.88 1003.24,-276.88 886.56,-295.3 814.59,-308.82"/>
<polygon fill="#63b8ff" stroke="#63b8ff" points="1557.61,-239.18 1565.83,-232.5 1555.23,-232.6 1557.61,-239.18"/>
</a>
</g>
</g>
<!-- Node37 -->
<g id="Node000037" class="node">
<title>Node37</title>
<g id="a_Node000037"><a xlink:href="../../dd/d03/class_slic3r_1_1_g_u_i_1_1_object_list.html#a81800e6517dd7d0ab3c12d6da98bf449" target="_top" xlink:title=" ">
<polygon fill="white" stroke="#666666" points="1331.38,-168.12 1216.38,-168.12 1216.38,-137.62 1331.38,-137.62 1331.38,-168.12"/>
<text text-anchor="start" x="1224.38" y="-154.62" font-family="Helvetica,sans-Serif" font-size="10.00">Slic3r::GUI::ObjectList</text>
<text text-anchor="middle" x="1273.88" y="-143.38" font-family="Helvetica,sans-Serif" font-size="10.00">::rename_item</text>
</a>
</g>
</g>
<!-- Node1&#45;&gt;Node37 -->
<g id="edge35_Node000001_Node000037" class="edge">
<title>Node1&#45;&gt;Node37</title>
<g id="a_edge35_Node000001_Node000037"><a xlink:title=" ">
<path fill="none" stroke="#63b8ff" d="M1566.52,-196.58C1547.01,-187.47 1522.8,-177.52 1500,-171.88 1443.84,-157.96 1377.66,-153.78 1331.65,-152.72"/>
<polygon fill="#63b8ff" stroke="#63b8ff" points="1564.74,-200.08 1575.27,-201.23 1567.76,-193.76 1564.74,-200.08"/>
</a>
</g>
</g>
<!-- Node39 -->
<g id="Node000039" class="node">
<title>Node39</title>
<g id="a_Node000039"><a xlink:href="../../dd/d03/class_slic3r_1_1_g_u_i_1_1_object_list.html#af326e996fc794bafd563f08abf80f9c9" target="_top" xlink:title=" ">
<polygon fill="white" stroke="#666666" points="1495.12,-96.12 1380.12,-96.12 1380.12,-65.62 1495.12,-65.62 1495.12,-96.12"/>
<text text-anchor="start" x="1388.12" y="-82.62" font-family="Helvetica,sans-Serif" font-size="10.00">Slic3r::GUI::ObjectList</text>
<text text-anchor="middle" x="1437.62" y="-71.38" font-family="Helvetica,sans-Serif" font-size="10.00">::update_name_in_list</text>
</a>
</g>
</g>
<!-- Node1&#45;&gt;Node39 -->
<g id="edge37_Node000001_Node000039" class="edge">
<title>Node1&#45;&gt;Node39</title>
<g id="a_edge37_Node000001_Node000039"><a xlink:title=" ">
<path fill="none" stroke="#63b8ff" d="M1578.69,-194.69C1544.72,-167.08 1487.56,-120.64 1457.86,-96.5"/>
<polygon fill="#63b8ff" stroke="#63b8ff" points="1575.83,-197.68 1585.8,-201.27 1580.25,-192.25 1575.83,-197.68"/>
</a>
</g>
</g>
<!-- Node43 -->
<g id="Node000043" class="node">
<title>Node43</title>
<g id="a_Node000043"><a xlink:href="../../dd/d03/class_slic3r_1_1_g_u_i_1_1_object_list.html#ab3d0611da2aa6db6366001011da78b11" target="_top" xlink:title=" ">
<polygon fill="white" stroke="#666666" points="1500,-211.12 1375.25,-211.12 1375.25,-180.62 1500,-180.62 1500,-211.12"/>
<text text-anchor="start" x="1383.25" y="-197.62" font-family="Helvetica,sans-Serif" font-size="10.00">Slic3r::GUI::ObjectList</text>
<text text-anchor="middle" x="1437.62" y="-186.38" font-family="Helvetica,sans-Serif" font-size="10.00">::update_name_in_model</text>
</a>
</g>
</g>
<!-- Node1&#45;&gt;Node43 -->
<g id="edge42_Node000001_Node000043" class="edge">
<title>Node1&#45;&gt;Node43</title>
<g id="a_edge42_Node000001_Node000043"><a xlink:title=" ">
<path fill="none" stroke="#63b8ff" d="M1524.73,-206.68C1516.51,-205.65 1508.25,-204.61 1500.28,-203.61"/>
<polygon fill="#63b8ff" stroke="#63b8ff" points="1524.15,-210.26 1534.5,-208.03 1525.02,-203.31 1524.15,-210.26"/>
</a>
</g>
</g>
<!-- Node4 -->
<g id="Node000004" class="node">
<title>Node4</title>
<g id="a_Node000004"><a xlink:href="../../dd/d03/class_slic3r_1_1_g_u_i_1_1_object_list.html#a8481ccc124536622eca50f2a7647ad20" target="_top" xlink:title=" ">
<polygon fill="white" stroke="#666666" points="802.62,-471.12 687.62,-471.12 687.62,-440.62 802.62,-440.62 802.62,-471.12"/>
<text text-anchor="start" x="695.62" y="-457.62" font-family="Helvetica,sans-Serif" font-size="10.00">Slic3r::GUI::ObjectList</text>
<text text-anchor="middle" x="745.12" y="-446.38" font-family="Helvetica,sans-Serif" font-size="10.00">::add_object_to_list</text>
</a>
</g>
</g>
<!-- Node3&#45;&gt;Node4 -->
<g id="edge3_Node000003_Node000004" class="edge">
<title>Node3&#45;&gt;Node4</title>
<g id="a_edge3_Node000003_Node000004"><a xlink:title=" ">
<path fill="none" stroke="#63b8ff" d="M1421.19,-437.7C1405.09,-466.03 1376.92,-506.22 1339.25,-523.88 1143.58,-615.6 873.2,-512.81 779.6,-471.5"/>
<polygon fill="#63b8ff" stroke="#63b8ff" points="1424.64,-439.68 1426.38,-429.23 1418.5,-436.32 1424.64,-439.68"/>
</a>
</g>
</g>
<!-- Node19 -->
<g id="Node000019" class="node">
<title>Node19</title>
<g id="a_Node000019"><a xlink:href="../../dd/d03/class_slic3r_1_1_g_u_i_1_1_object_list.html#ad30050a43a15f3a72c9a61151f6a6426" target="_top" xlink:title=" ">
<polygon fill="white" stroke="#666666" points="1332.12,-454.75 1215.62,-454.75 1215.62,-413 1332.12,-413 1332.12,-454.75"/>
<text text-anchor="start" x="1223.62" y="-441.25" font-family="Helvetica,sans-Serif" font-size="10.00">Slic3r::GUI::ObjectList</text>
<text text-anchor="start" x="1223.62" y="-430" font-family="Helvetica,sans-Serif" font-size="10.00">::delete_all_connectors</text>
<text text-anchor="middle" x="1273.88" y="-418.75" font-family="Helvetica,sans-Serif" font-size="10.00">_for_object</text>
</a>
</g>
</g>
<!-- Node3&#45;&gt;Node19 -->
<g id="edge20_Node000003_Node000019" class="edge">
<title>Node3&#45;&gt;Node19</title>
<g id="a_edge20_Node000003_Node000019"><a xlink:title=" ">
<path fill="none" stroke="#63b8ff" d="M1364.44,-418.92C1353.78,-420.7 1342.91,-422.52 1332.59,-424.24"/>
<polygon fill="#63b8ff" stroke="#63b8ff" points="1364.73,-422.26 1374.01,-417.16 1363.57,-415.35 1364.73,-422.26"/>
</a>
</g>
</g>
<!-- Node31 -->
<g id="Node000031" class="node">
<title>Node31</title>
<g id="a_Node000031"><a xlink:href="../../dd/d03/class_slic3r_1_1_g_u_i_1_1_object_list.html#a2c4d2030455527108c6991ff98aa4229" target="_top" xlink:title=" ">
<polygon fill="white" stroke="#666666" points="1331.38,-514.75 1216.38,-514.75 1216.38,-473 1331.38,-473 1331.38,-514.75"/>
<text text-anchor="start" x="1224.38" y="-501.25" font-family="Helvetica,sans-Serif" font-size="10.00">Slic3r::GUI::ObjectList</text>
<text text-anchor="start" x="1224.38" y="-490" font-family="Helvetica,sans-Serif" font-size="10.00">::invalidate_cut_info</text>
<text text-anchor="middle" x="1273.88" y="-478.75" font-family="Helvetica,sans-Serif" font-size="10.00">_for_object</text>
</a>
</g>
</g>
<!-- Node3&#45;&gt;Node31 -->
<g id="edge27_Node000003_Node000031" class="edge">
<title>Node3&#45;&gt;Node31</title>
<g id="a_edge27_Node000003_Node000031"><a xlink:title=" ">
<path fill="none" stroke="#63b8ff" d="M1393.38,-433.36C1376.67,-443.28 1357.26,-454.44 1339.25,-463.88 1333.68,-466.79 1327.78,-469.74 1321.89,-472.59"/>
<polygon fill="#63b8ff" stroke="#63b8ff" points="1394.58,-436.12 1401.37,-427.99 1390.99,-430.11 1394.58,-436.12"/>
</a>
</g>
</g>
<!-- Node35 -->
<g id="Node000035" class="node">
<title>Node35</title>
<g id="a_Node000035"><a xlink:href="../../dd/d03/class_slic3r_1_1_g_u_i_1_1_object_list.html#a6766ec6c03a6e7f55e41f1d8e352d8fb" target="_top" xlink:title=" ">
<polygon fill="white" stroke="#666666" points="1331.38,-395.12 1216.38,-395.12 1216.38,-364.62 1331.38,-364.62 1331.38,-395.12"/>
<text text-anchor="start" x="1224.38" y="-381.62" font-family="Helvetica,sans-Serif" font-size="10.00">Slic3r::GUI::ObjectList</text>
<text text-anchor="middle" x="1273.88" y="-370.38" font-family="Helvetica,sans-Serif" font-size="10.00">::split</text>
</a>
</g>
</g>
<!-- Node3&#45;&gt;Node35 -->
<g id="edge32_Node000003_Node000035" class="edge">
<title>Node3&#45;&gt;Node35</title>
<g id="a_edge32_Node000003_Node000035"><a xlink:title=" ">
<path fill="none" stroke="#63b8ff" d="M1364.24,-394.79C1353.37,-392.98 1342.29,-391.13 1331.8,-389.38"/>
<polygon fill="#63b8ff" stroke="#63b8ff" points="1363.57,-398.4 1374.01,-396.59 1364.73,-391.49 1363.57,-398.4"/>
</a>
</g>
</g>
<!-- Node36 -->
<g id="Node000036" class="node">
<title>Node36</title>
<g id="a_Node000036"><a xlink:href="../../dd/d03/class_slic3r_1_1_g_u_i_1_1_object_list.html#a948e5804b0ccbd5037e578a5638669f9" target="_top" xlink:title=" ">
<polygon fill="white" stroke="#666666" points="1332.12,-346.75 1215.62,-346.75 1215.62,-305 1332.12,-305 1332.12,-346.75"/>
<text text-anchor="start" x="1223.62" y="-333.25" font-family="Helvetica,sans-Serif" font-size="10.00">Slic3r::GUI::ObjectList</text>
<text text-anchor="start" x="1223.62" y="-322" font-family="Helvetica,sans-Serif" font-size="10.00">::update_object_list_by</text>
<text text-anchor="middle" x="1273.88" y="-310.75" font-family="Helvetica,sans-Serif" font-size="10.00">_printer_technology</text>
</a>
</g>
</g>
<!-- Node3&#45;&gt;Node36 -->
<g id="edge33_Node000003_Node000036" class="edge">
<title>Node3&#45;&gt;Node36</title>
<g id="a_edge33_Node000003_Node000036"><a xlink:title=" ">
<path fill="none" stroke="#63b8ff" d="M1387.69,-380.68C1372.27,-372.58 1355.12,-363.72 1339.25,-355.88 1333.5,-353.03 1327.43,-350.11 1321.41,-347.25"/>
<polygon fill="#63b8ff" stroke="#63b8ff" points="1385.56,-384.04 1396.04,-385.61 1388.83,-377.85 1385.56,-384.04"/>
</a>
</g>
</g>
<!-- Node5 -->
<g id="Node000005" class="node">
<title>Node5</title>
<g id="a_Node000005"><a xlink:href="../../dd/d03/class_slic3r_1_1_g_u_i_1_1_object_list.html#a63fd4980638d47c3f371bd3c9eb68410" target="_top" xlink:title=" ">
<polygon fill="white" stroke="#666666" points="478.5,-351.75 353,-351.75 353,-310 478.5,-310 478.5,-351.75"/>
<text text-anchor="start" x="361" y="-338.25" font-family="Helvetica,sans-Serif" font-size="10.00">Slic3r::GUI::ObjectList</text>
<text text-anchor="start" x="361" y="-327" font-family="Helvetica,sans-Serif" font-size="10.00">::instances_to_separated</text>
<text text-anchor="middle" x="415.75" y="-315.75" font-family="Helvetica,sans-Serif" font-size="10.00">_object</text>
</a>
</g>
</g>
<!-- Node4&#45;&gt;Node5 -->
<g id="edge4_Node000004_Node000005" class="edge">
<title>Node4&#45;&gt;Node5</title>
<g id="a_edge4_Node000004_Node000005"><a xlink:title=" ">
<path fill="none" stroke="#63b8ff" d="M717.36,-433.39C692.31,-412.76 656.36,-384.3 640,-376.88 588.47,-353.48 524.85,-341.87 478.72,-336.18"/>
<polygon fill="#63b8ff" stroke="#63b8ff" points="714.79,-436.63 724.72,-440.32 719.25,-431.24 714.79,-436.63"/>
</a>
</g>
</g>
<!-- Node6 -->
<g id="Node000006" class="node">
<title>Node6</title>
<g id="a_Node000006"><a xlink:href="../../dd/d03/class_slic3r_1_1_g_u_i_1_1_object_list.html#a84b2daec7b4dfe3af81301a08a6f35d4" target="_top" xlink:title=" ">
<polygon fill="white" stroke="#666666" points="308.38,-433.12 193.38,-433.12 193.38,-402.62 308.38,-402.62 308.38,-433.12"/>
<text text-anchor="start" x="201.38" y="-419.62" font-family="Helvetica,sans-Serif" font-size="10.00">Slic3r::GUI::ObjectList</text>
<text text-anchor="middle" x="250.88" y="-408.38" font-family="Helvetica,sans-Serif" font-size="10.00">::merge</text>
</a>
</g>
</g>
<!-- Node4&#45;&gt;Node6 -->
<g id="edge15_Node000004_Node000006" class="edge">
<title>Node4&#45;&gt;Node6</title>
<g id="a_edge15_Node000004_Node000006"><a xlink:title=" ">
<path fill="none" stroke="#63b8ff" d="M676.82,-450.76C598.88,-444.83 466.64,-434.73 353,-425.88 338.69,-424.76 323.24,-423.54 308.83,-422.4"/>
<polygon fill="#63b8ff" stroke="#63b8ff" points="676.21,-454.3 686.45,-451.57 676.74,-447.32 676.21,-454.3"/>
</a>
</g>
</g>
<!-- Node11 -->
<g id="Node000011" class="node">
<title>Node11</title>
<g id="a_Node000011"><a xlink:href="../../dd/d03/class_slic3r_1_1_g_u_i_1_1_object_list.html#a265ce2ecf7eaa21ccdcae3ca29c39d38" target="_top" xlink:title=" ">
<polygon fill="white" stroke="#666666" points="640,-427.75 514.5,-427.75 514.5,-386 640,-386 640,-427.75"/>
<text text-anchor="start" x="522.5" y="-414.25" font-family="Helvetica,sans-Serif" font-size="10.00">Slic3r::GUI::ObjectList</text>
<text text-anchor="start" x="522.5" y="-403" font-family="Helvetica,sans-Serif" font-size="10.00">::instances_to_separated</text>
<text text-anchor="middle" x="577.25" y="-391.75" font-family="Helvetica,sans-Serif" font-size="10.00">_objects</text>
</a>
</g>
</g>
<!-- Node4&#45;&gt;Node11 -->
<g id="edge11_Node000004_Node000011" class="edge">
<title>Node4&#45;&gt;Node11</title>
<g id="a_edge11_Node000004_Node000011"><a xlink:title=" ">
<path fill="none" stroke="#63b8ff" d="M680.72,-437.14C667.44,-433.22 653.46,-429.09 640.23,-425.18"/>
<polygon fill="#63b8ff" stroke="#63b8ff" points="679.6,-440.76 690.19,-440.24 681.59,-434.05 679.6,-440.76"/>
</a>
</g>
</g>
<!-- Node12 -->
<g id="Node000012" class="node">
<title>Node12</title>
<g id="a_Node000012"><a xlink:href="../../dd/d03/class_slic3r_1_1_g_u_i_1_1_object_list.html#a18155c983ed7b3d35f90a8f8293f535a" target="_top" xlink:title=" ">
<polygon fill="white" stroke="#666666" points="638.12,-514.12 516.38,-514.12 516.38,-483.62 638.12,-483.62 638.12,-514.12"/>
<text text-anchor="start" x="524.38" y="-500.62" font-family="Helvetica,sans-Serif" font-size="10.00">Slic3r::GUI::ObjectList</text>
<text text-anchor="middle" x="577.25" y="-489.38" font-family="Helvetica,sans-Serif" font-size="10.00">::paste_objects_into_list</text>
</a>
</g>
</g>
<!-- Node4&#45;&gt;Node12 -->
<g id="edge16_Node000004_Node000012" class="edge">
<title>Node4&#45;&gt;Node12</title>
<g id="a_edge16_Node000004_Node000012"><a xlink:title=" ">
<path fill="none" stroke="#63b8ff" d="M676.98,-473.28C664.28,-476.57 651.06,-480 638.58,-483.24"/>
<polygon fill="#63b8ff" stroke="#63b8ff" points="677.7,-476.45 686.5,-470.55 675.95,-469.67 677.7,-476.45"/>
</a>
</g>
</g>
<!-- Node5&#45;&gt;Node6 -->
<g id="edge5_Node000005_Node000006" class="edge">
<title>Node5&#45;&gt;Node6</title>
<g id="a_edge5_Node000005_Node000006"><a xlink:title=" ">
<path fill="none" stroke="#63b8ff" d="M365.46,-357.2C338.02,-371.86 304.76,-389.63 281.35,-402.13"/>
<polygon fill="#63b8ff" stroke="#63b8ff" points="366.73,-359.96 373.91,-352.16 363.44,-353.78 366.73,-359.96"/>
</a>
</g>
</g>
<!-- Node8 -->
<g id="Node000008" class="node">
<title>Node8</title>
<g id="a_Node000008"><a xlink:href="../../dd/d03/class_slic3r_1_1_g_u_i_1_1_object_list.html#a9daef95c2364c6f0f104c2e6eab84002" target="_top" xlink:title=" ">
<polygon fill="white" stroke="#666666" points="308.38,-306.12 193.38,-306.12 193.38,-275.62 308.38,-275.62 308.38,-306.12"/>
<text text-anchor="start" x="201.38" y="-292.62" font-family="Helvetica,sans-Serif" font-size="10.00">Slic3r::GUI::ObjectList</text>
<text text-anchor="middle" x="250.88" y="-281.38" font-family="Helvetica,sans-Serif" font-size="10.00">::OnDrop</text>
</a>
</g>
</g>
<!-- Node5&#45;&gt;Node8 -->
<g id="edge7_Node000005_Node000008" class="edge">
<title>Node5&#45;&gt;Node8</title>
<g id="a_edge7_Node000005_Node000008"><a xlink:title=" ">
<path fill="none" stroke="#63b8ff" d="M342.07,-313.03C330.87,-310.28 319.45,-307.47 308.66,-304.82"/>
<polygon fill="#63b8ff" stroke="#63b8ff" points="341.16,-316.65 351.71,-315.64 342.83,-309.85 341.16,-316.65"/>
</a>
</g>
</g>
<!-- Node9 -->
<g id="Node000009" class="node">
<title>Node9</title>
<g id="a_Node000009"><a xlink:href="../../dd/d03/class_slic3r_1_1_g_u_i_1_1_object_list.html#afa1b4f0c6e7a1ec4ae19be6fa6c47f44" target="_top" xlink:title=" ">
<polygon fill="white" stroke="#666666" points="308.38,-360.12 193.38,-360.12 193.38,-329.62 308.38,-329.62 308.38,-360.12"/>
<text text-anchor="start" x="201.38" y="-346.62" font-family="Helvetica,sans-Serif" font-size="10.00">Slic3r::GUI::ObjectList</text>
<text text-anchor="middle" x="250.88" y="-335.38" font-family="Helvetica,sans-Serif" font-size="10.00">::split_instances</text>
</a>
</g>
</g>
<!-- Node5&#45;&gt;Node9 -->
<g id="edge9_Node000005_Node000009" class="edge">
<title>Node5&#45;&gt;Node9</title>
<g id="a_edge9_Node000005_Node000009"><a xlink:title=" ">
<path fill="none" stroke="#63b8ff" d="M342.07,-337.12C330.87,-338.08 319.45,-339.07 308.66,-339.99"/>
<polygon fill="#63b8ff" stroke="#63b8ff" points="342.05,-340.55 351.71,-336.21 341.45,-333.58 342.05,-340.55"/>
</a>
</g>
</g>
<!-- Node7 -->
<g id="Node000007" class="node">
<title>Node7</title>
<g id="a_Node000007"><a xlink:href="../../de/de3/class_slic3r_1_1_g_u_i_1_1_menu_factory.html#a1733567e5b1a2227b4c5664e8b532244" target="_top" xlink:title=" ">
<polygon fill="white" stroke="#666666" points="143.88,-438.75 4.88,-438.75 4.88,-397 143.88,-397 143.88,-438.75"/>
<text text-anchor="start" x="12.88" y="-425.25" font-family="Helvetica,sans-Serif" font-size="10.00">Slic3r::GUI::MenuFactory</text>
<text text-anchor="start" x="12.88" y="-414" font-family="Helvetica,sans-Serif" font-size="10.00">::append_menu_item_merge</text>
<text text-anchor="middle" x="74.38" y="-402.75" font-family="Helvetica,sans-Serif" font-size="10.00">_to_multipart_object</text>
</a>
</g>
</g>
<!-- Node6&#45;&gt;Node7 -->
<g id="edge6_Node000006_Node000007" class="edge">
<title>Node6&#45;&gt;Node7</title>
<g id="a_edge6_Node000006_Node000007"><a xlink:title=" ">
<path fill="none" stroke="#63b8ff" d="M182.4,-417.88C169.88,-417.88 156.79,-417.88 144.24,-417.88"/>
<polygon fill="#63b8ff" stroke="#63b8ff" points="182.22,-421.38 192.22,-417.88 182.22,-414.38 182.22,-421.38"/>
</a>
</g>
</g>
<!-- Node8&#45;&gt;Node2 -->
<g id="edge8_Node000008_Node000002" class="edge">
<title>Node8&#45;&gt;Node2</title>
<g id="a_edge8_Node000008_Node000002"><a xlink:title=" ">
<path fill="none" stroke="#63b8ff" d="M186.57,-272.01C167.35,-266.28 146.46,-260.06 128.02,-254.56"/>
<polygon fill="#63b8ff" stroke="#63b8ff" points="185.46,-275.63 196.05,-275.13 187.46,-268.92 185.46,-275.63"/>
</a>
</g>
</g>
<!-- Node10 -->
<g id="Node000010" class="node">
<title>Node10</title>
<g id="a_Node000010"><a xlink:href="../../de/de3/class_slic3r_1_1_g_u_i_1_1_menu_factory.html#a2e4754a5ee6d2a185ffbb692dca1c08b" target="_top" xlink:title=" ">
<polygon fill="white" stroke="#666666" points="148.75,-365.75 0,-365.75 0,-324 148.75,-324 148.75,-365.75"/>
<text text-anchor="start" x="8" y="-352.25" font-family="Helvetica,sans-Serif" font-size="10.00">Slic3r::GUI::MenuFactory</text>
<text text-anchor="start" x="8" y="-341" font-family="Helvetica,sans-Serif" font-size="10.00">::append_menu_item_instance</text>
<text text-anchor="middle" x="74.38" y="-329.75" font-family="Helvetica,sans-Serif" font-size="10.00">_to_object</text>
</a>
</g>
</g>
<!-- Node9&#45;&gt;Node10 -->
<g id="edge10_Node000009_Node000010" class="edge">
<title>Node9&#45;&gt;Node10</title>
<g id="a_edge10_Node000009_Node000010"><a xlink:title=" ">
<path fill="none" stroke="#63b8ff" d="M182.5,-344.88C171.6,-344.88 160.27,-344.88 149.23,-344.88"/>
<polygon fill="#63b8ff" stroke="#63b8ff" points="182.22,-348.38 192.22,-344.88 182.22,-341.38 182.22,-348.38"/>
</a>
</g>
</g>
<!-- Node11&#45;&gt;Node5 -->
<g id="edge12_Node000011_Node000005" class="edge">
<title>Node11&#45;&gt;Node5</title>
<g id="a_edge12_Node000011_Node000005"><a xlink:title=" ">
<path fill="none" stroke="#63b8ff" d="M521.68,-380.87C502.08,-371.53 480.22,-361.12 461.54,-352.22"/>
<polygon fill="#63b8ff" stroke="#63b8ff" points="519.86,-384.36 530.4,-385.5 522.87,-378.04 519.86,-384.36"/>
</a>
</g>
</g>
<!-- Node11&#45;&gt;Node6 -->
<g id="edge13_Node000011_Node000006" class="edge">
<title>Node11&#45;&gt;Node6</title>
<g id="a_edge13_Node000011_Node000006"><a xlink:title=" ">
<path fill="none" stroke="#63b8ff" d="M503.37,-409.35C444.49,-411.34 362.77,-414.11 308.66,-415.95"/>
<polygon fill="#63b8ff" stroke="#63b8ff" points="503.22,-412.82 513.09,-408.98 502.98,-405.82 503.22,-412.82"/>
</a>
</g>
</g>
<!-- Node11&#45;&gt;Node9 -->
<g id="edge14_Node000011_Node000009" class="edge">
<title>Node11&#45;&gt;Node9</title>
<g id="a_edge14_Node000011_Node000009"><a xlink:title=" ">
<path fill="none" stroke="#63b8ff" d="M503.37,-392.95C444.49,-381.69 362.77,-366.07 308.66,-355.73"/>
<polygon fill="#63b8ff" stroke="#63b8ff" points="502.61,-396.55 513.09,-394.99 503.93,-389.68 502.61,-396.55"/>
</a>
</g>
</g>
<!-- Node13 -->
<g id="Node000013" class="node">
<title>Node13</title>
<g id="a_Node000013"><a xlink:href="../../dd/d03/class_slic3r_1_1_g_u_i_1_1_object_list.html#aab08d060f0cd6f5ec146f2b4cfcccc45" target="_top" xlink:title=" ">
<polygon fill="white" stroke="#666666" points="473.25,-514.12 358.25,-514.12 358.25,-483.62 473.25,-483.62 473.25,-514.12"/>
<text text-anchor="start" x="366.25" y="-500.62" font-family="Helvetica,sans-Serif" font-size="10.00">Slic3r::GUI::ObjectList</text>
<text text-anchor="middle" x="415.75" y="-489.38" font-family="Helvetica,sans-Serif" font-size="10.00">::load_mesh_object</text>
</a>
</g>
</g>
<!-- Node12&#45;&gt;Node13 -->
<g id="edge17_Node000012_Node000013" class="edge">
<title>Node12&#45;&gt;Node13</title>
<g id="a_edge17_Node000012_Node000013"><a xlink:title=" ">
<path fill="none" stroke="#63b8ff" d="M505.1,-498.88C494.59,-498.88 483.88,-498.88 473.71,-498.88"/>
<polygon fill="#63b8ff" stroke="#63b8ff" points="504.95,-502.38 514.95,-498.88 504.95,-495.38 504.95,-502.38"/>
</a>
</g>
</g>
<!-- Node14 -->
<g id="Node000014" class="node">
<title>Node14</title>
<g id="a_Node000014"><a xlink:href="../../d1/d51/class_slic3r_1_1_g_u_i_1_1_emboss_1_1_create_object_job.html#a18c6adc32c81682e81928c90b5d96f7f" target="_top" xlink:title=" ">
<polygon fill="white" stroke="#666666" points="317,-498.12 184.75,-498.12 184.75,-467.62 317,-467.62 317,-498.12"/>
<text text-anchor="start" x="192.75" y="-484.62" font-family="Helvetica,sans-Serif" font-size="10.00">Slic3r::GUI::Emboss</text>
<text text-anchor="middle" x="250.88" y="-473.38" font-family="Helvetica,sans-Serif" font-size="10.00">::CreateObjectJob::finalize</text>
</a>
</g>
</g>
<!-- Node13&#45;&gt;Node14 -->
<g id="edge18_Node000013_Node000014" class="edge">
<title>Node13&#45;&gt;Node14</title>
<g id="a_edge18_Node000013_Node000014"><a xlink:title=" ">
<path fill="none" stroke="#63b8ff" d="M346.92,-492.21C337.17,-491.25 327.16,-490.27 317.46,-489.32"/>
<polygon fill="#63b8ff" stroke="#63b8ff" points="346.49,-495.78 356.78,-493.28 347.17,-488.82 346.49,-495.78"/>
</a>
</g>
</g>
<!-- Node15 -->
<g id="Node000015" class="node">
<title>Node15</title>
<g id="a_Node000015"><a xlink:href="../../dd/d03/class_slic3r_1_1_g_u_i_1_1_object_list.html#aed7da8adcdad16b54731ee24485b47e3" target="_top" xlink:title=" ">
<polygon fill="#fff0f0" stroke="red" points="308.38,-547.12 193.38,-547.12 193.38,-516.62 308.38,-516.62 308.38,-547.12"/>
<text text-anchor="start" x="201.38" y="-533.62" font-family="Helvetica,sans-Serif" font-size="10.00">Slic3r::GUI::ObjectList</text>
<text text-anchor="middle" x="250.88" y="-522.38" font-family="Helvetica,sans-Serif" font-size="10.00">::load_shape_object</text>
</a>
</g>
</g>
<!-- Node13&#45;&gt;Node15 -->
<g id="edge19_Node000013_Node000015" class="edge">
<title>Node13&#45;&gt;Node15</title>
<g id="a_edge19_Node000013_Node000015"><a xlink:title=" ">
<path fill="none" stroke="#63b8ff" d="M347.2,-512.56C334.44,-515.15 321.21,-517.83 308.81,-520.34"/>
<polygon fill="#63b8ff" stroke="#63b8ff" points="347.68,-515.83 356.78,-510.42 346.29,-508.97 347.68,-515.83"/>
</a>
</g>
</g>
<!-- Node20 -->
<g id="Node000020" class="node">
<title>Node20</title>
<g id="a_Node000020"><a xlink:href="../../dd/d03/class_slic3r_1_1_g_u_i_1_1_object_list.html#a981b6f0d7f5c995b656e471cfb3f5913" target="_top" xlink:title=" ">
<polygon fill="white" stroke="#666666" points="1164.25,-394.75 1047.75,-394.75 1047.75,-353 1164.25,-353 1164.25,-394.75"/>
<text text-anchor="start" x="1055.75" y="-381.25" font-family="Helvetica,sans-Serif" font-size="10.00">Slic3r::GUI::ObjectList</text>
<text text-anchor="start" x="1055.75" y="-370" font-family="Helvetica,sans-Serif" font-size="10.00">::delete_all_connectors</text>
<text text-anchor="middle" x="1106" y="-358.75" font-family="Helvetica,sans-Serif" font-size="10.00">_for_selection</text>
</a>
</g>
</g>
<!-- Node19&#45;&gt;Node20 -->
<g id="edge21_Node000019_Node000020" class="edge">
<title>Node19&#45;&gt;Node20</title>
<g id="a_edge21_Node000019_Node000020"><a xlink:title=" ">
<path fill="none" stroke="#63b8ff" d="M1205.19,-409.39C1191.76,-404.54 1177.79,-399.48 1164.73,-394.76"/>
<polygon fill="#63b8ff" stroke="#63b8ff" points="1203.73,-412.95 1214.33,-413.06 1206.11,-406.37 1203.73,-412.95"/>
</a>
</g>
</g>
<!-- Node21 -->
<g id="Node000021" class="node">
<title>Node21</title>
<g id="a_Node000021"><a xlink:href="../../dd/d03/class_slic3r_1_1_g_u_i_1_1_object_list.html#adefb87a97cd13c805f0b3168338e4e96" target="_top" xlink:title=" ">
<polygon fill="white" stroke="#666666" points="984.38,-389.12 869.38,-389.12 869.38,-358.62 984.38,-358.62 984.38,-389.12"/>
<text text-anchor="start" x="877.38" y="-375.62" font-family="Helvetica,sans-Serif" font-size="10.00">Slic3r::GUI::ObjectList</text>
<text text-anchor="middle" x="926.88" y="-364.38" font-family="Helvetica,sans-Serif" font-size="10.00">::del_from_cut_object</text>
</a>
</g>
</g>
<!-- Node20&#45;&gt;Node21 -->
<g id="edge22_Node000020_Node000021" class="edge">
<title>Node20&#45;&gt;Node21</title>
<g id="a_edge22_Node000020_Node000021"><a xlink:title=" ">
<path fill="none" stroke="#63b8ff" d="M1036.94,-373.88C1019.71,-373.88 1001.4,-373.88 984.79,-373.88"/>
<polygon fill="#63b8ff" stroke="#63b8ff" points="1036.49,-377.38 1046.49,-373.88 1036.49,-370.38 1036.49,-377.38"/>
</a>
</g>
</g>
<!-- Node22 -->
<g id="Node000022" class="node">
<title>Node22</title>
<g id="a_Node000022"><a xlink:href="../../dd/d03/class_slic3r_1_1_g_u_i_1_1_object_list.html#a2670d6019bfdc5bad524330fe9581757" target="_top" xlink:title=" ">
<polygon fill="#fff0f0" stroke="red" points="802.62,-389.12 687.62,-389.12 687.62,-358.62 802.62,-358.62 802.62,-389.12"/>
<text text-anchor="start" x="695.62" y="-375.62" font-family="Helvetica,sans-Serif" font-size="10.00">Slic3r::GUI::ObjectList</text>
<text text-anchor="middle" x="745.12" y="-364.38" font-family="Helvetica,sans-Serif" font-size="10.00">::del_info_item</text>
</a>
</g>
</g>
<!-- Node21&#45;&gt;Node22 -->
<g id="edge23_Node000021_Node000022" class="edge">
<title>Node21&#45;&gt;Node22</title>
<g id="a_edge23_Node000021_Node000022"><a xlink:title=" ">
<path fill="none" stroke="#63b8ff" d="M858.16,-373.88C839.97,-373.88 820.48,-373.88 802.94,-373.88"/>
<polygon fill="#63b8ff" stroke="#63b8ff" points="858,-377.38 868,-373.88 858,-370.38 858,-377.38"/>
</a>
</g>
</g>
<!-- Node21&#45;&gt;Node28 -->
<g id="edge24_Node000021_Node000028" class="edge">
<title>Node21&#45;&gt;Node28</title>
<g id="a_edge24_Node000021_Node000028"><a xlink:title=" ">
<path fill="none" stroke="#63b8ff" d="M859.97,-355.17C840.71,-349.71 819.86,-343.8 801.34,-338.54"/>
<polygon fill="#63b8ff" stroke="#63b8ff" points="858.9,-358.79 869.48,-358.16 860.81,-352.06 858.9,-358.79"/>
</a>
</g>
</g>
<!-- Node28&#45;&gt;Node5 -->
<g id="edge25_Node000028_Node000005" class="edge">
<title>Node28&#45;&gt;Node5</title>
<g id="a_edge25_Node000028_Node000005"><a xlink:title=" ">
<path fill="none" stroke="#63b8ff" d="M665.08,-324.81C607.88,-326.2 531.65,-328.07 478.81,-329.36"/>
<polygon fill="#63b8ff" stroke="#63b8ff" points="664.98,-328.29 674.89,-324.54 664.81,-321.29 664.98,-328.29"/>
</a>
</g>
</g>
<!-- Node28&#45;&gt;Node11 -->
<g id="edge26_Node000028_Node000011" class="edge">
<title>Node28&#45;&gt;Node11</title>
<g id="a_edge26_Node000028_Node000011"><a xlink:title=" ">
<path fill="none" stroke="#63b8ff" d="M691.43,-342.84C686.17,-345.1 680.95,-347.47 676,-349.88 654.09,-360.53 630.47,-374.23 611.94,-385.54"/>
<polygon fill="#63b8ff" stroke="#63b8ff" points="692.67,-345.7 700.54,-338.61 689.96,-339.24 692.67,-345.7"/>
</a>
</g>
</g>
<!-- Node32 -->
<g id="Node000032" class="node">
<title>Node32</title>
<g id="a_Node000032"><a xlink:href="../../d4/d88/struct_slic3r_1_1_g_u_i_1_1_plater_1_1priv.html#a31a91f76efbef5551761dfee3d6f21ec" target="_top" xlink:title=" ">
<polygon fill="white" stroke="#666666" points="1156.75,-514.75 1055.25,-514.75 1055.25,-473 1156.75,-473 1156.75,-514.75"/>
<text text-anchor="start" x="1063.25" y="-501.25" font-family="Helvetica,sans-Serif" font-size="10.00">Slic3r::GUI::Plater</text>
<text text-anchor="start" x="1063.25" y="-490" font-family="Helvetica,sans-Serif" font-size="10.00">::priv::delete_object</text>
<text text-anchor="middle" x="1106" y="-478.75" font-family="Helvetica,sans-Serif" font-size="10.00">_from_model</text>
</a>
</g>
</g>
<!-- Node31&#45;&gt;Node32 -->
<g id="edge28_Node000031_Node000032" class="edge">
<title>Node31&#45;&gt;Node32</title>
<g id="a_edge28_Node000031_Node000032"><a xlink:title=" ">
<path fill="none" stroke="#63b8ff" d="M1205.71,-493.88C1189.43,-493.88 1172.31,-493.88 1156.98,-493.88"/>
<polygon fill="#63b8ff" stroke="#63b8ff" points="1205.25,-497.38 1215.25,-493.88 1205.25,-490.38 1205.25,-497.38"/>
</a>
</g>
</g>
<!-- Node33 -->
<g id="Node000033" class="node">
<title>Node33</title>
<g id="a_Node000033"><a xlink:href="../../dd/d03/class_slic3r_1_1_g_u_i_1_1_object_list.html#a15433a7926fd06943e845df8986b5bc7" target="_top" xlink:title=" ">
<polygon fill="white" stroke="#666666" points="1163.5,-454.75 1048.5,-454.75 1048.5,-413 1163.5,-413 1163.5,-454.75"/>
<text text-anchor="start" x="1056.5" y="-441.25" font-family="Helvetica,sans-Serif" font-size="10.00">Slic3r::GUI::ObjectList</text>
<text text-anchor="start" x="1056.5" y="-430" font-family="Helvetica,sans-Serif" font-size="10.00">::invalidate_cut_info</text>
<text text-anchor="middle" x="1106" y="-418.75" font-family="Helvetica,sans-Serif" font-size="10.00">_for_selection</text>
</a>
</g>
</g>
<!-- Node31&#45;&gt;Node33 -->
<g id="edge29_Node000031_Node000033" class="edge">
<title>Node31&#45;&gt;Node33</title>
<g id="a_edge29_Node000031_Node000033"><a xlink:title=" ">
<path fill="none" stroke="#63b8ff" d="M1206.19,-469.76C1192.19,-464.69 1177.54,-459.39 1163.93,-454.47"/>
<polygon fill="#63b8ff" stroke="#63b8ff" points="1204.66,-473.28 1215.25,-473.39 1207.04,-466.7 1204.66,-473.28"/>
</a>
</g>
</g>
<!-- Node33&#45;&gt;Node21 -->
<g id="edge31_Node000033_Node000021" class="edge">
<title>Node33&#45;&gt;Node21</title>
<g id="a_edge31_Node000033_Node000021"><a xlink:title=" ">
<path fill="none" stroke="#63b8ff" d="M1038.16,-411.23C1016.8,-404 993.66,-396.16 974.11,-389.54"/>
<polygon fill="#63b8ff" stroke="#63b8ff" points="1036.88,-414.83 1047.47,-414.73 1039.12,-408.2 1036.88,-414.83"/>
</a>
</g>
</g>
<!-- Node34 -->
<g id="Node000034" class="node">
<title>Node34</title>
<g id="a_Node000034"><a xlink:href="../../de/de3/class_slic3r_1_1_g_u_i_1_1_menu_factory.html#a5058ec23032e1022f68e9477deac1589" target="_top" xlink:title=" ">
<polygon fill="white" stroke="#666666" points="1003.5,-454.75 850.25,-454.75 850.25,-413 1003.5,-413 1003.5,-454.75"/>
<text text-anchor="start" x="858.25" y="-441.25" font-family="Helvetica,sans-Serif" font-size="10.00">Slic3r::GUI::MenuFactory</text>
<text text-anchor="start" x="858.25" y="-430" font-family="Helvetica,sans-Serif" font-size="10.00">::append_menu_item_invalidate</text>
<text text-anchor="middle" x="926.88" y="-418.75" font-family="Helvetica,sans-Serif" font-size="10.00">_cut_info</text>
</a>
</g>
</g>
<!-- Node33&#45;&gt;Node34 -->
<g id="edge30_Node000033_Node000034" class="edge">
<title>Node33&#45;&gt;Node34</title>
<g id="a_edge30_Node000033_Node000034"><a xlink:title=" ">
<path fill="none" stroke="#63b8ff" d="M1037.63,-433.88C1026.61,-433.88 1015.12,-433.88 1003.9,-433.88"/>
<polygon fill="#63b8ff" stroke="#63b8ff" points="1037.47,-437.38 1047.47,-433.88 1037.47,-430.38 1037.47,-437.38"/>
</a>
</g>
</g>
<!-- Node38 -->
<g id="Node000038" class="node">
<title>Node38</title>
<g id="a_Node000038"><a xlink:href="../../de/de3/class_slic3r_1_1_g_u_i_1_1_menu_factory.html#ae4d89fffa3e5de091fb96c211509a6c0" target="_top" xlink:title=" ">
<polygon fill="white" stroke="#666666" points="1172.5,-168.12 1039.5,-168.12 1039.5,-137.62 1172.5,-137.62 1172.5,-168.12"/>
<text text-anchor="start" x="1047.5" y="-154.62" font-family="Helvetica,sans-Serif" font-size="10.00">Slic3r::GUI::MenuFactory</text>
<text text-anchor="middle" x="1106" y="-143.38" font-family="Helvetica,sans-Serif" font-size="10.00">::append_menu_items_osx</text>
</a>
</g>
</g>
<!-- Node37&#45;&gt;Node38 -->
<g id="edge36_Node000037_Node000038" class="edge">
<title>Node37&#45;&gt;Node38</title>
<g id="a_edge36_Node000037_Node000038"><a xlink:title=" ">
<path fill="none" stroke="#63b8ff" d="M1205.59,-152.88C1194.77,-152.88 1183.58,-152.88 1172.79,-152.88"/>
<polygon fill="#63b8ff" stroke="#63b8ff" points="1205.25,-156.38 1215.25,-152.88 1205.25,-149.38 1205.25,-156.38"/>
</a>
</g>
</g>
<!-- Node40 -->
<g id="Node000040" class="node">
<title>Node40</title>
<g id="a_Node000040"><a xlink:href="../../d4/d88/struct_slic3r_1_1_g_u_i_1_1_plater_1_1priv.html#a4a7374b32894b878a60d507277519b3d" target="_top" xlink:title=" ">
<polygon fill="white" stroke="#666666" points="1329.88,-41.75 1217.88,-41.75 1217.88,0 1329.88,0 1329.88,-41.75"/>
<text text-anchor="start" x="1225.88" y="-28.25" font-family="Helvetica,sans-Serif" font-size="10.00">Slic3r::GUI::Plater</text>
<text text-anchor="start" x="1225.88" y="-17" font-family="Helvetica,sans-Serif" font-size="10.00">::priv::replace_volume</text>
<text text-anchor="middle" x="1273.88" y="-5.75" font-family="Helvetica,sans-Serif" font-size="10.00">_with_stl</text>
</a>
</g>
</g>
<!-- Node39&#45;&gt;Node40 -->
<g id="edge38_Node000039_Node000040" class="edge">
<title>Node39&#45;&gt;Node40</title>
<g id="a_edge38_Node000039_Node000040"><a xlink:title=" ">
<path fill="none" stroke="#63b8ff" d="M1384.58,-61.57C1367.2,-55.12 1347.77,-47.91 1330.15,-41.38"/>
<polygon fill="#63b8ff" stroke="#63b8ff" points="1382.96,-65.07 1393.55,-65.27 1385.39,-58.51 1382.96,-65.07"/>
</a>
</g>
</g>
<!-- Node42 -->
<g id="Node000042" class="node">
<title>Node42</title>
<g id="a_Node000042"><a xlink:href="../../dc/deb/namespaceanonymous__namespace_02_emboss_job_8cpp_03.html#a585fb18e0b35d7e3142393b122f3c31e" target="_top" xlink:title=" ">
<polygon fill="white" stroke="#666666" points="1339.25,-101.75 1208.5,-101.75 1208.5,-60 1339.25,-60 1339.25,-101.75"/>
<text text-anchor="start" x="1216.5" y="-88.25" font-family="Helvetica,sans-Serif" font-size="10.00">anonymous_namespace</text>
<text text-anchor="start" x="1216.5" y="-77" font-family="Helvetica,sans-Serif" font-size="10.00">{EmbossJob::cpp}::update</text>
<text text-anchor="middle" x="1273.88" y="-65.75" font-family="Helvetica,sans-Serif" font-size="10.00">_volume_name</text>
</a>
</g>
</g>
<!-- Node39&#45;&gt;Node42 -->
<g id="edge40_Node000039_Node000042" class="edge">
<title>Node39&#45;&gt;Node42</title>
<g id="a_edge40_Node000039_Node000042"><a xlink:title=" ">
<path fill="none" stroke="#63b8ff" d="M1369.19,-80.88C1359.44,-80.88 1349.42,-80.88 1339.72,-80.88"/>
<polygon fill="#63b8ff" stroke="#63b8ff" points="1369.05,-84.38 1379.05,-80.88 1369.05,-77.38 1369.05,-84.38"/>
</a>
</g>
</g>
<!-- Node41 -->
<g id="Node000041" class="node">
<title>Node41</title>
<g id="a_Node000041"><a xlink:href="../../d4/d88/struct_slic3r_1_1_g_u_i_1_1_plater_1_1priv.html#a04e848e0c2988328a4624e436bab4d46" target="_top" xlink:title=" ">
<polygon fill="white" stroke="#666666" points="1165,-36.12 1047,-36.12 1047,-5.62 1165,-5.62 1165,-36.12"/>
<text text-anchor="start" x="1055" y="-22.62" font-family="Helvetica,sans-Serif" font-size="10.00">Slic3r::GUI::Plater</text>
<text text-anchor="middle" x="1106" y="-11.38" font-family="Helvetica,sans-Serif" font-size="10.00">::priv::reload_from_disk</text>
</a>
</g>
</g>
<!-- Node40&#45;&gt;Node41 -->
<g id="edge39_Node000040_Node000041" class="edge">
<title>Node40&#45;&gt;Node41</title>
<g id="a_edge39_Node000040_Node000041"><a xlink:title=" ">
<path fill="none" stroke="#63b8ff" d="M1206.83,-20.88C1193.13,-20.88 1178.8,-20.88 1165.4,-20.88"/>
<polygon fill="#63b8ff" stroke="#63b8ff" points="1206.64,-24.38 1216.64,-20.88 1206.64,-17.38 1206.64,-24.38"/>
</a>
</g>
</g>
<!-- Node42&#45;&gt;Node42 -->
<g id="edge41_Node000042_Node000042" class="edge">
<title>Node42&#45;&gt;Node42</title>
<g id="a_edge41_Node000042_Node000042"><a xlink:title=" ">
<path fill="none" stroke="#63b8ff" d="M1301.19,-112.53C1296.65,-116.86 1287.55,-119.75 1273.88,-119.75 1250.85,-119.75 1240.77,-111.55 1243.65,-102.07"/>
<polygon fill="#63b8ff" stroke="#63b8ff" points="1304.79,-113.64 1304.1,-103.07 1298.05,-111.77 1304.79,-113.64"/>
</a>
</g>
</g>
<!-- Node43&#45;&gt;Node37 -->
<g id="edge45_Node000043_Node000037" class="edge">
<title>Node43&#45;&gt;Node37</title>
<g id="a_edge45_Node000043_Node000037"><a xlink:title=" ">
<path fill="none" stroke="#63b8ff" d="M1367.44,-177.48C1355.55,-174.32 1343.31,-171.07 1331.79,-168.01"/>
<polygon fill="#63b8ff" stroke="#63b8ff" points="1366.21,-181.04 1376.77,-180.23 1368.01,-174.28 1366.21,-181.04"/>
</a>
</g>
</g>
<!-- Node44 -->
<g id="Node000044" class="node">
<title>Node44</title>
<g id="a_Node000044"><a xlink:href="../../dd/d03/class_slic3r_1_1_g_u_i_1_1_object_list.html#aceea4cb588950d951447a71b6f93468b" target="_top" xlink:title=" ">
<polygon fill="white" stroke="#666666" points="984.38,-211.12 869.38,-211.12 869.38,-180.62 984.38,-180.62 984.38,-211.12"/>
<text text-anchor="start" x="877.38" y="-197.62" font-family="Helvetica,sans-Serif" font-size="10.00">Slic3r::GUI::ObjectList</text>
<text text-anchor="middle" x="926.88" y="-186.38" font-family="Helvetica,sans-Serif" font-size="10.00">::ItemValueChanged</text>
</a>
</g>
</g>
<!-- Node43&#45;&gt;Node44 -->
<g id="edge43_Node000043_Node000044" class="edge">
<title>Node43&#45;&gt;Node44</title>
<g id="a_edge43_Node000043_Node000044"><a xlink:title=" ">
<path fill="none" stroke="#63b8ff" d="M1363.91,-195.88C1261.64,-195.88 1077.47,-195.88 984.64,-195.88"/>
<polygon fill="#63b8ff" stroke="#63b8ff" points="1363.75,-199.38 1373.75,-195.88 1363.75,-192.38 1363.75,-199.38"/>
</a>
</g>
</g>
<!-- Node44&#45;&gt;Node2 -->
<g id="edge44_Node000044_Node000002" class="edge">
<title>Node44&#45;&gt;Node2</title>
<g id="a_edge44_Node000044_Node000002"><a xlink:title=" ">
<path fill="none" stroke="#63b8ff" d="M858.1,-196.81C788.04,-197.69 675.5,-198.88 578.25,-198.88 578.25,-198.88 578.25,-198.88 414.75,-198.88 314.78,-198.88 199.39,-216.2 132.18,-228.05"/>
<polygon fill="#63b8ff" stroke="#63b8ff" points="858.02,-200.29 867.97,-196.67 857.93,-193.29 858.02,-200.29"/>
</a>
</g>
</g>
</g>
</svg>

<g id="navigator" transform="translate(0 0)" fill="#404254">
  <rect fill="#f2f5e9" fill-opacity="0.5" stroke="#606060" stroke-width=".5" x="0" y="0" width="60" height="60"/>
  <use id="zoomplus" xlink:href="#zoomPlus" x="17" y="9" onmousedown="handleZoom(evt,'in')"/>
  <use id="zoomminus" xlink:href="#zoomMin" x="42" y="9" onmousedown="handleZoom(evt,'out')"/>
  <use id="reset" xlink:href="#resetDef" x="30" y="36" onmousedown="handleReset()"/>
   <use id="arrowup" xlink:href="#arrowUp" x="0" y="0" onmousedown="handlePan(0,-1)"/>
  <use id="arrowright" xlink:href="#arrowRight" x="0" y="0" onmousedown="handlePan(1,0)"/>
  <use id="arrowdown" xlink:href="#arrowDown" x="0" y="0" onmousedown="handlePan(0,1)"/>
  <use id="arrowleft" xlink:href="#arrowLeft" x="0" y="0" onmousedown="handlePan(-1,0)"/>
</g>
<svg viewBox="0 0 15 15" width="100%" height="30px" preserveAspectRatio="xMaxYMin meet">
 <g id="arrow_out" transform="scale(0.3 0.3)">
  <a xlink:href="class_slic3r_1_1_g_u_i_1_1_object_data_view_model_ab9046f0e54b44ec8e99f86f5cd63a327_icgraph_org.svg" target="_base">
   <rect id="button" ry="5" rx="5" y="6" x="6" height="38" width="38"
        fill="#f2f5e9" fill-opacity="0.5" stroke="#606060" stroke-width="1.0"/>
   <path id="arrow"
     d="M 11.500037,31.436501 C 11.940474,20.09759 22.043105,11.32322 32.158766,21.979434 L 37.068811,17.246167 C 37.068811,17.246167 37.088388,32 37.088388,32 L 22.160133,31.978069 C 22.160133,31.978069 26.997745,27.140456 26.997745,27.140456 C 18.528582,18.264221 13.291696,25.230495 11.500037,31.436501 z"
     style="fill:#404040;"/>
  </a>
 </g>
</svg>

<style type='text/css'>
<![CDATA[
[data-mouse-over-selected='false'] { opacity: 0.7; }
[data-mouse-over-selected='true']  { opacity: 1.0; }
]]>
</style>
<script type="application/ecmascript"><![CDATA[
document.addEventListener('DOMContentLoaded', (event) => {
  highlightEdges();
  highlightAdjacentNodes();
});
]]></script>
</svg>
