<?xml version="1.0" encoding="UTF-8" standalone="no"?>
<!DOCTYPE svg PUBLIC "-//W3C//DTD SVG 1.1//EN"
 "http://www.w3.org/Graphics/SVG/1.1/DTD/svg11.dtd">
<!-- Generated by graphviz version 8.0.5 (20230430.1635)
 -->
<!-- Title: Slic3r::GUI::ObjectDataViewModel::GetDefaultExtruderIdx Pages: 1 -->
<svg width="688pt" height="186pt"
 viewBox="0.00 0.00 687.75 185.50" xmlns="http://www.w3.org/2000/svg" xmlns:xlink="http://www.w3.org/1999/xlink">
<g id="graph0" class="graph" transform="scale(1 1) rotate(0) translate(4 181.5)">
<title>Slic3r::GUI::ObjectDataViewModel::GetDefaultExtruderIdx</title>
<!-- Node1 -->
<g id="Node000001" class="node">
<title>Node1</title>
<g id="a_Node000001"><a xlink:title=" ">
<polygon fill="#999999" stroke="#666666" points="145.75,-106.5 0,-106.5 0,-76 145.75,-76 145.75,-106.5"/>
<text text-anchor="start" x="8" y="-93" font-family="Helvetica,sans-Serif" font-size="10.00">Slic3r::GUI::ObjectDataView</text>
<text text-anchor="middle" x="72.88" y="-81.75" font-family="Helvetica,sans-Serif" font-size="10.00">Model::GetDefaultExtruderIdx</text>
</a>
</g>
</g>
<!-- Node2 -->
<g id="Node000002" class="node">
<title>Node2</title>
<g id="a_Node000002"><a xlink:href="../../d5/dcc/class_slic3r_1_1_g_u_i_1_1_object_data_view_model.html#af814e444dc9aa7d036a43a70cf0c06d1" target="_top" xlink:title=" ">
<polygon fill="white" stroke="#666666" points="323.75,-177.5 181.75,-177.5 181.75,-147 323.75,-147 323.75,-177.5"/>
<text text-anchor="start" x="189.75" y="-164" font-family="Helvetica,sans-Serif" font-size="10.00">Slic3r::GUI::ObjectDataView</text>
<text text-anchor="middle" x="252.75" y="-152.75" font-family="Helvetica,sans-Serif" font-size="10.00">Model::GetExtruderNumber</text>
</a>
</g>
</g>
<!-- Node1&#45;&gt;Node2 -->
<g id="edge1_Node000001_Node000002" class="edge">
<title>Node1&#45;&gt;Node2</title>
<g id="a_edge1_Node000001_Node000002"><a xlink:title=" ">
<path fill="none" stroke="#63b8ff" d="M109.12,-106.91C130.09,-116.07 157.29,-127.68 181.75,-137.25 186.46,-139.09 191.37,-140.96 196.3,-142.79"/>
<polygon fill="#63b8ff" stroke="#63b8ff" points="194.82,-146.35 205.42,-146.51 197.23,-139.78 194.82,-146.35"/>
</a>
</g>
</g>
<!-- Node3 -->
<g id="Node000003" class="node">
<title>Node3</title>
<g id="a_Node000003"><a xlink:href="../../d5/dcc/class_slic3r_1_1_g_u_i_1_1_object_data_view_model.html#a99fc77bc31ce84f3cf031bf97cc02f33" target="_top" xlink:title=" ">
<polygon fill="white" stroke="#666666" points="501.75,-79.5 359.75,-79.5 359.75,-49 501.75,-49 501.75,-79.5"/>
<text text-anchor="start" x="367.75" y="-66" font-family="Helvetica,sans-Serif" font-size="10.00">Slic3r::GUI::ObjectDataView</text>
<text text-anchor="middle" x="430.75" y="-54.75" font-family="Helvetica,sans-Serif" font-size="10.00">Model::GetItemType</text>
</a>
</g>
</g>
<!-- Node1&#45;&gt;Node3 -->
<g id="edge2_Node000001_Node000003" class="edge">
<title>Node1&#45;&gt;Node3</title>
<g id="a_edge2_Node000001_Node000003"><a xlink:title=" ">
<path fill="none" stroke="#63b8ff" d="M145.89,-85.79C204.62,-81.33 287.54,-75.04 348.6,-70.41"/>
<polygon fill="#63b8ff" stroke="#63b8ff" points="348.65,-73.84 358.36,-69.59 348.12,-66.86 348.65,-73.84"/>
</a>
</g>
</g>
<!-- Node4 -->
<g id="Node000004" class="node">
<title>Node4</title>
<g id="a_Node000004"><a xlink:href="../../d5/dcc/class_slic3r_1_1_g_u_i_1_1_object_data_view_model.html#a26233e6db876d54f683aee38986de058" target="_top" xlink:title=" ">
<polygon fill="white" stroke="#666666" points="323.75,-128.5 181.75,-128.5 181.75,-98 323.75,-98 323.75,-128.5"/>
<text text-anchor="start" x="189.75" y="-115" font-family="Helvetica,sans-Serif" font-size="10.00">Slic3r::GUI::ObjectDataView</text>
<text text-anchor="middle" x="252.75" y="-103.75" font-family="Helvetica,sans-Serif" font-size="10.00">Model::GetParent</text>
</a>
</g>
</g>
<!-- Node1&#45;&gt;Node4 -->
<g id="edge3_Node000001_Node000004" class="edge">
<title>Node1&#45;&gt;Node4</title>
<g id="a_edge3_Node000001_Node000004"><a xlink:title=" ">
<path fill="none" stroke="#63b8ff" d="M146.22,-100.2C154.32,-101.2 162.6,-102.22 170.79,-103.24"/>
<polygon fill="#63b8ff" stroke="#63b8ff" points="170.13,-106.8 180.48,-104.56 170.99,-99.86 170.13,-106.8"/>
</a>
</g>
</g>
<!-- Node7 -->
<g id="Node000007" class="node">
<title>Node7</title>
<g id="a_Node000007"><a xlink:href="../../d5/dcc/class_slic3r_1_1_g_u_i_1_1_object_data_view_model.html#a5e62ec4fa17183f940d5189571ebbc51" target="_top" xlink:title=" ">
<polygon fill="white" stroke="#666666" points="323.75,-42.5 181.75,-42.5 181.75,-12 323.75,-12 323.75,-42.5"/>
<text text-anchor="start" x="189.75" y="-29" font-family="Helvetica,sans-Serif" font-size="10.00">Slic3r::GUI::ObjectDataView</text>
<text text-anchor="middle" x="252.75" y="-17.75" font-family="Helvetica,sans-Serif" font-size="10.00">Model::GetVolumeType</text>
</a>
</g>
</g>
<!-- Node1&#45;&gt;Node7 -->
<g id="edge7_Node000001_Node000007" class="edge">
<title>Node1&#45;&gt;Node7</title>
<g id="a_edge7_Node000001_Node000007"><a xlink:title=" ">
<path fill="none" stroke="#63b8ff" d="M117.39,-75.59C141.61,-66.88 171.99,-55.95 197.72,-46.69"/>
<polygon fill="#63b8ff" stroke="#63b8ff" points="198.85,-49.65 207.07,-42.97 196.48,-43.06 198.85,-49.65"/>
</a>
</g>
</g>
<!-- Node5 -->
<g id="Node000005" class="node">
<title>Node5</title>
<g id="a_Node000005"><a xlink:href="../../d6/d78/class_slic3r_1_1_g_u_i_1_1_object_data_view_model_node.html#afee5cec20240bd08013d5ac1fb9d144e" target="_top" xlink:title=" ">
<polygon fill="white" stroke="#666666" points="501.75,-128.5 359.75,-128.5 359.75,-98 501.75,-98 501.75,-128.5"/>
<text text-anchor="start" x="367.75" y="-115" font-family="Helvetica,sans-Serif" font-size="10.00">Slic3r::GUI::ObjectDataView</text>
<text text-anchor="middle" x="430.75" y="-103.75" font-family="Helvetica,sans-Serif" font-size="10.00">ModelNode::GetParent</text>
</a>
</g>
</g>
<!-- Node4&#45;&gt;Node5 -->
<g id="edge4_Node000004_Node000005" class="edge">
<title>Node4&#45;&gt;Node5</title>
<g id="a_edge4_Node000004_Node000005"><a xlink:title=" ">
<path fill="none" stroke="#63b8ff" d="M324.07,-113.25C332.03,-113.25 340.2,-113.25 348.29,-113.25"/>
<polygon fill="#63b8ff" stroke="#63b8ff" points="348.26,-116.75 358.26,-113.25 348.26,-109.75 348.26,-116.75"/>
</a>
</g>
</g>
<!-- Node6 -->
<g id="Node000006" class="node">
<title>Node6</title>
<g id="a_Node000006"><a xlink:href="../../d6/d78/class_slic3r_1_1_g_u_i_1_1_object_data_view_model_node.html#a1a69647c3645fa09d78e89fa8a7fbbc0" target="_top" xlink:title=" ">
<polygon fill="white" stroke="#666666" points="679.75,-149.5 537.75,-149.5 537.75,-119 679.75,-119 679.75,-149.5"/>
<text text-anchor="start" x="545.75" y="-136" font-family="Helvetica,sans-Serif" font-size="10.00">Slic3r::GUI::ObjectDataView</text>
<text text-anchor="middle" x="608.75" y="-124.75" font-family="Helvetica,sans-Serif" font-size="10.00">ModelNode::valid</text>
</a>
</g>
</g>
<!-- Node4&#45;&gt;Node6 -->
<g id="edge6_Node000004_Node000006" class="edge">
<title>Node4&#45;&gt;Node6</title>
<g id="a_edge6_Node000004_Node000006"><a xlink:title=" ">
<path fill="none" stroke="#63b8ff" d="M312.5,-129C327.77,-132.41 344.28,-135.52 359.75,-137.25 415.25,-143.45 478.16,-142.6 526.74,-140.25"/>
<polygon fill="#63b8ff" stroke="#63b8ff" points="526.7,-143.71 536.5,-139.69 526.34,-136.72 526.7,-143.71"/>
</a>
</g>
</g>
<!-- Node5&#45;&gt;Node6 -->
<g id="edge5_Node000005_Node000006" class="edge">
<title>Node5&#45;&gt;Node6</title>
<g id="a_edge5_Node000005_Node000006"><a xlink:title=" ">
<path fill="none" stroke="#63b8ff" d="M502.07,-121.64C510.12,-122.6 518.39,-123.59 526.57,-124.56"/>
<polygon fill="#63b8ff" stroke="#63b8ff" points="525.91,-128.13 536.26,-125.84 526.74,-121.18 525.91,-128.13"/>
</a>
</g>
</g>
<!-- Node7&#45;&gt;Node3 -->
<g id="edge8_Node000007_Node000003" class="edge">
<title>Node7&#45;&gt;Node3</title>
<g id="a_edge8_Node000007_Node000003"><a xlink:title=" ">
<path fill="none" stroke="#63b8ff" d="M324.07,-42.03C332.12,-43.73 340.39,-45.46 348.57,-47.18"/>
<polygon fill="#63b8ff" stroke="#63b8ff" points="347.75,-50.8 358.26,-49.43 349.19,-43.95 347.75,-50.8"/>
</a>
</g>
</g>
<!-- Node8 -->
<g id="Node000008" class="node">
<title>Node8</title>
<g id="a_Node000008"><a xlink:href="../../d6/d78/class_slic3r_1_1_g_u_i_1_1_object_data_view_model_node.html#adb654663a1edea908e00b85227635a7b" target="_top" xlink:title=" ">
<polygon fill="white" stroke="#666666" points="501.75,-30.5 359.75,-30.5 359.75,0 501.75,0 501.75,-30.5"/>
<text text-anchor="start" x="367.75" y="-17" font-family="Helvetica,sans-Serif" font-size="10.00">Slic3r::GUI::ObjectDataView</text>
<text text-anchor="middle" x="430.75" y="-5.75" font-family="Helvetica,sans-Serif" font-size="10.00">ModelNode::GetVolumeType</text>
</a>
</g>
</g>
<!-- Node7&#45;&gt;Node8 -->
<g id="edge9_Node000007_Node000008" class="edge">
<title>Node7&#45;&gt;Node8</title>
<g id="a_edge9_Node000007_Node000008"><a xlink:title=" ">
<path fill="none" stroke="#63b8ff" d="M324.07,-22.46C332.03,-21.91 340.2,-21.36 348.29,-20.8"/>
<polygon fill="#63b8ff" stroke="#63b8ff" points="348.52,-24.23 358.26,-20.06 348.04,-17.24 348.52,-24.23"/>
</a>
</g>
</g>
</g>
</svg>
