<?xml version="1.0" encoding="UTF-8" standalone="no"?>
<!DOCTYPE svg PUBLIC "-//W3C//DTD SVG 1.1//EN"
 "http://www.w3.org/Graphics/SVG/1.1/DTD/svg11.dtd">
<!-- Generated by graphviz version 8.0.5 (20230430.1635)
 -->
<!-- Title: Slic3r::GUI::ObjectDataViewModel::AddLayersRoot Pages: 1 -->
<!--zoomable 175 -->

<svg id="main" version="1.1" xmlns="http://www.w3.org/2000/svg" xmlns:xlink="http://www.w3.org/1999/xlink" xml:space="preserve" onload="init(evt)">
<style type="text/css"><![CDATA[
.node, .edge {opacity: 0.7;}
.node.selected, .edge.selected {opacity: 1;}
.edge:hover path { stroke: red; }
.edge:hover polygon { stroke: red; fill: red; }
]]></style>

<defs>
  <circle id="rim" cx="0" cy="0" r="7"/>
  <circle id="rim2" cx="0" cy="0" r="3.5"/>
  <g id="zoomPlus">
    <use xlink:href="#rim" fill="#404040"><set attributeName="fill" to="#808080" begin="zoomplus.mouseover" end="zoomplus.mouseout"/></use>
    <path d="M-4,0h8M0,-4v8" fill="none" stroke="white" stroke-width="1.5" pointer-events="none"/>
  </g>
  <g id="zoomMin">
    <use xlink:href="#rim" fill="#404040"><set attributeName="fill" to="#808080" begin="zoomminus.mouseover" end="zoomminus.mouseout"/></use>
    <path d="M-4,0h8" fill="none" stroke="white" stroke-width="1.5" pointer-events="none"/>
  </g>
  <g id="arrowUp" transform="translate(30 24)">
    <use xlink:href="#rim"/>
    <path pointer-events="none" fill="none" stroke="white" stroke-width="1.5" d="M0,-3.0v7 M-2.5,-0.5L0,-3.0L2.5,-0.5"/>
  </g>
  <g id="arrowRight" transform="rotate(90) translate(36 -43)">
    <use xlink:href="#rim"/>
    <path pointer-events="none" fill="none" stroke="white" stroke-width="1.5" d="M0,-3.0v7 M-2.5,-0.5L0,-3.0L2.5,-0.5"/>
  </g>
  <g id="arrowDown" transform="rotate(180) translate(-30 -48)">
    <use xlink:href="#rim"/>
    <path pointer-events="none" fill="none" stroke="white" stroke-width="1.5" d="M0,-3.0v7 M-2.5,-0.5L0,-3.0L2.5,-0.5"/>
  </g>
  <g id="arrowLeft" transform="rotate(270) translate(-36 17)">
    <use xlink:href="#rim"/>
    <path pointer-events="none" fill="none" stroke="white" stroke-width="1.5" d="M0,-3.0v7 M-2.5,-0.5L0,-3.0L2.5,-0.5"/>
  </g>
  <g id="resetDef">
    <use xlink:href="#rim2" fill="#404040"><set attributeName="fill" to="#808080" begin="reset.mouseover" end="reset.mouseout"/></use>
  </g>
</defs>
<script type="application/ecmascript">
var viewWidth = 822;
var viewHeight = 175;
var sectionId = 'dynsection-14';
</script>
<script type="application/ecmascript" xlink:href="../../svg.min.js"/>
<svg id="graph" class="graph">
<g id="viewport">
<title>Slic3r::GUI::ObjectDataViewModel::AddLayersRoot</title>
<!-- Node1 -->
<g id="Node000001" class="node">
<title>Node1</title>
<g id="a_Node000001"><a xlink:title=" ">
<polygon fill="#999999" stroke="#666666" points="142,-92.5 0,-92.5 0,-62 142,-62 142,-92.5"/>
<text text-anchor="start" x="8" y="-79" font-family="Helvetica,sans-Serif" font-size="10.00">Slic3r::GUI::ObjectDataView</text>
<text text-anchor="middle" x="71" y="-67.75" font-family="Helvetica,sans-Serif" font-size="10.00">Model::AddLayersRoot</text>
</a>
</g>
</g>
<!-- Node2 -->
<g id="Node000002" class="node">
<title>Node2</title>
<g id="a_Node000002"><a xlink:href="../../d5/dcc/class_slic3r_1_1_g_u_i_1_1_object_data_view_model.html#a8c3194e6615d73997b4e418b6f139f19" target="_top" xlink:title=" ">
<polygon fill="white" stroke="#666666" points="320,-92.5 178,-92.5 178,-62 320,-62 320,-92.5"/>
<text text-anchor="start" x="186" y="-79" font-family="Helvetica,sans-Serif" font-size="10.00">Slic3r::GUI::ObjectDataView</text>
<text text-anchor="middle" x="249" y="-67.75" font-family="Helvetica,sans-Serif" font-size="10.00">Model::AddRoot</text>
</a>
</g>
</g>
<!-- Node1&#45;&gt;Node2 -->
<g id="edge1_Node000001_Node000002" class="edge">
<title>Node1&#45;&gt;Node2</title>
<g id="a_edge1_Node000001_Node000002"><a xlink:title=" ">
<path fill="none" stroke="#63b8ff" d="M142.32,-77.25C150.28,-77.25 158.45,-77.25 166.54,-77.25"/>
<polygon fill="#63b8ff" stroke="#63b8ff" points="166.51,-80.75 176.51,-77.25 166.51,-73.75 166.51,-80.75"/>
</a>
</g>
</g>
<!-- Node3 -->
<g id="Node000003" class="node">
<title>Node3</title>
<g id="a_Node000003"><a xlink:href="../../d9/d45/namespace_slic3r_1_1_g_u_i.html#a6ba45d8bc0174b96668b17a041008757" target="_top" xlink:title=" ">
<polygon fill="white" stroke="#666666" points="458.25,-92.5 356,-92.5 356,-62 458.25,-62 458.25,-92.5"/>
<text text-anchor="start" x="364" y="-79" font-family="Helvetica,sans-Serif" font-size="10.00">Slic3r::GUI::append</text>
<text text-anchor="middle" x="407.12" y="-67.75" font-family="Helvetica,sans-Serif" font-size="10.00">_root_node</text>
</a>
</g>
</g>
<!-- Node2&#45;&gt;Node3 -->
<g id="edge2_Node000002_Node000003" class="edge">
<title>Node2&#45;&gt;Node3</title>
<g id="a_edge2_Node000002_Node000003"><a xlink:title=" ">
<path fill="none" stroke="#63b8ff" d="M320.3,-77.25C328.53,-77.25 336.89,-77.25 344.98,-77.25"/>
<polygon fill="#63b8ff" stroke="#63b8ff" points="344.83,-80.75 354.83,-77.25 344.83,-73.75 344.83,-80.75"/>
</a>
</g>
</g>
<!-- Node4 -->
<g id="Node000004" class="node">
<title>Node4</title>
<g id="a_Node000004"><a xlink:href="../../d6/d78/class_slic3r_1_1_g_u_i_1_1_object_data_view_model_node.html#ac6e8d6a1259e7823b8a1bbdf00c94b2c" target="_top" xlink:title=" ">
<polygon fill="white" stroke="#666666" points="636.25,-154.5 494.25,-154.5 494.25,-124 636.25,-124 636.25,-154.5"/>
<text text-anchor="start" x="502.25" y="-141" font-family="Helvetica,sans-Serif" font-size="10.00">Slic3r::GUI::ObjectDataView</text>
<text text-anchor="middle" x="565.25" y="-129.75" font-family="Helvetica,sans-Serif" font-size="10.00">ModelNode::Append</text>
</a>
</g>
</g>
<!-- Node3&#45;&gt;Node4 -->
<g id="edge3_Node000003_Node000004" class="edge">
<title>Node3&#45;&gt;Node4</title>
<g id="a_edge3_Node000003_Node000004"><a xlink:title=" ">
<path fill="none" stroke="#63b8ff" d="M441.8,-92.9C457.59,-100.04 476.75,-108.4 494.25,-115.25 498.18,-116.79 502.25,-118.32 506.36,-119.83"/>
<polygon fill="#63b8ff" stroke="#63b8ff" points="505.01,-123.43 515.61,-123.53 507.38,-116.84 505.01,-123.43"/>
</a>
</g>
</g>
<!-- Node5 -->
<g id="Node000005" class="node">
<title>Node5</title>
<g id="a_Node000005"><a xlink:href="../../d9/d45/namespace_slic3r_1_1_g_u_i.html#a418afb89f51b402cad6056e8e8496128" target="_top" xlink:title=" ">
<polygon fill="white" stroke="#666666" points="627.25,-105.88 503.25,-105.88 503.25,-86.62 627.25,-86.62 627.25,-105.88"/>
<text text-anchor="middle" x="565.25" y="-92.38" font-family="Helvetica,sans-Serif" font-size="10.00">Slic3r::GUI::get_root_idx</text>
</a>
</g>
</g>
<!-- Node3&#45;&gt;Node5 -->
<g id="edge4_Node000003_Node000005" class="edge">
<title>Node3&#45;&gt;Node5</title>
<g id="a_edge4_Node000003_Node000005"><a xlink:title=" ">
<path fill="none" stroke="#63b8ff" d="M458.38,-83.37C469.12,-84.67 480.67,-86.08 492.05,-87.46"/>
<polygon fill="#63b8ff" stroke="#63b8ff" points="491.53,-91.05 501.88,-88.78 492.38,-84.1 491.53,-91.05"/>
</a>
</g>
</g>
<!-- Node7 -->
<g id="Node000007" class="node">
<title>Node7</title>
<g id="a_Node000007"><a xlink:href="../../d6/d78/class_slic3r_1_1_g_u_i_1_1_object_data_view_model_node.html#a1ec4bacd8d3b26ee0abc3821e2102b88" target="_top" xlink:title=" ">
<polygon fill="white" stroke="#666666" points="814.25,-68.5 672.25,-68.5 672.25,-38 814.25,-38 814.25,-68.5"/>
<text text-anchor="start" x="680.25" y="-55" font-family="Helvetica,sans-Serif" font-size="10.00">Slic3r::GUI::ObjectDataView</text>
<text text-anchor="middle" x="743.25" y="-43.75" font-family="Helvetica,sans-Serif" font-size="10.00">ModelNode::GetNthChild</text>
</a>
</g>
</g>
<!-- Node3&#45;&gt;Node7 -->
<g id="edge8_Node000003_Node000007" class="edge">
<title>Node3&#45;&gt;Node7</title>
<g id="a_edge8_Node000003_Node000007"><a xlink:title=" ">
<path fill="none" stroke="#63b8ff" d="M458.51,-73.63C512.19,-69.77 597.98,-63.61 661.19,-59.07"/>
<polygon fill="#63b8ff" stroke="#63b8ff" points="661.19,-62.51 670.92,-58.3 660.69,-55.53 661.19,-62.51"/>
</a>
</g>
</g>
<!-- Node9 -->
<g id="Node000009" class="node">
<title>Node9</title>
<g id="a_Node000009"><a xlink:href="../../d6/d78/class_slic3r_1_1_g_u_i_1_1_object_data_view_model_node.html#a624d1896cc97ba1503c3ec120a95e536" target="_top" xlink:title=" ">
<polygon fill="white" stroke="#666666" points="636.25,-30.5 494.25,-30.5 494.25,0 636.25,0 636.25,-30.5"/>
<text text-anchor="start" x="502.25" y="-17" font-family="Helvetica,sans-Serif" font-size="10.00">Slic3r::GUI::ObjectDataView</text>
<text text-anchor="middle" x="565.25" y="-5.75" font-family="Helvetica,sans-Serif" font-size="10.00">ModelNode::Insert</text>
</a>
</g>
</g>
<!-- Node3&#45;&gt;Node9 -->
<g id="edge9_Node000003_Node000009" class="edge">
<title>Node3&#45;&gt;Node9</title>
<g id="a_edge9_Node000003_Node000009"><a xlink:title=" ">
<path fill="none" stroke="#63b8ff" d="M447.52,-61.6C467.88,-53.52 492.92,-43.58 514.59,-34.97"/>
<polygon fill="#63b8ff" stroke="#63b8ff" points="515.59,-37.94 523.59,-31 513.01,-31.44 515.59,-37.94"/>
</a>
</g>
</g>
<!-- Node6 -->
<g id="Node000006" class="node">
<title>Node6</title>
<g id="a_Node000006"><a xlink:href="../../d6/d78/class_slic3r_1_1_g_u_i_1_1_object_data_view_model_node.html#acd212dbb63a8e2ed27bb55fc2f3cd091" target="_top" xlink:title=" ">
<polygon fill="white" stroke="#666666" points="814.25,-166.5 672.25,-166.5 672.25,-136 814.25,-136 814.25,-166.5"/>
<text text-anchor="start" x="680.25" y="-153" font-family="Helvetica,sans-Serif" font-size="10.00">Slic3r::GUI::ObjectDataView</text>
<text text-anchor="middle" x="743.25" y="-141.75" font-family="Helvetica,sans-Serif" font-size="10.00">ModelNode::GetChildCount</text>
</a>
</g>
</g>
<!-- Node5&#45;&gt;Node6 -->
<g id="edge5_Node000005_Node000006" class="edge">
<title>Node5&#45;&gt;Node6</title>
<g id="a_edge5_Node000005_Node000006"><a xlink:title=" ">
<path fill="none" stroke="#63b8ff" d="M605.25,-106.37C615.38,-109.13 626.25,-112.2 636.25,-115.25 653.18,-120.42 671.49,-126.47 688.04,-132.11"/>
<polygon fill="#63b8ff" stroke="#63b8ff" points="686.5,-135.63 697.1,-135.57 688.78,-129.01 686.5,-135.63"/>
</a>
</g>
</g>
<!-- Node5&#45;&gt;Node7 -->
<g id="edge6_Node000005_Node000007" class="edge">
<title>Node5&#45;&gt;Node7</title>
<g id="a_edge6_Node000005_Node000007"><a xlink:title=" ">
<path fill="none" stroke="#63b8ff" d="M607.51,-86.17C625.34,-81.81 646.76,-76.58 667.23,-71.58"/>
<polygon fill="#63b8ff" stroke="#63b8ff" points="667.94,-74.76 676.82,-68.99 666.28,-67.96 667.94,-74.76"/>
</a>
</g>
</g>
<!-- Node8 -->
<g id="Node000008" class="node">
<title>Node8</title>
<g id="a_Node000008"><a xlink:href="../../d6/d78/class_slic3r_1_1_g_u_i_1_1_object_data_view_model_node.html#ac13ab003fd37507a18a6dbb07f9af3b9" target="_top" xlink:title=" ">
<polygon fill="white" stroke="#666666" points="814.25,-117.5 672.25,-117.5 672.25,-87 814.25,-87 814.25,-117.5"/>
<text text-anchor="start" x="680.25" y="-104" font-family="Helvetica,sans-Serif" font-size="10.00">Slic3r::GUI::ObjectDataView</text>
<text text-anchor="middle" x="743.25" y="-92.75" font-family="Helvetica,sans-Serif" font-size="10.00">ModelNode::GetType</text>
</a>
</g>
</g>
<!-- Node5&#45;&gt;Node8 -->
<g id="edge7_Node000005_Node000008" class="edge">
<title>Node5&#45;&gt;Node8</title>
<g id="a_edge7_Node000005_Node000008"><a xlink:title=" ">
<path fill="none" stroke="#63b8ff" d="M627.31,-98.33C638.22,-98.7 649.74,-99.1 661.11,-99.48"/>
<polygon fill="#63b8ff" stroke="#63b8ff" points="660.82,-103.01 670.94,-99.85 661.06,-96.01 660.82,-103.01"/>
</a>
</g>
</g>
</g>
</svg>

<g id="navigator" transform="translate(0 0)" fill="#404254">
  <rect fill="#f2f5e9" fill-opacity="0.5" stroke="#606060" stroke-width=".5" x="0" y="0" width="60" height="60"/>
  <use id="zoomplus" xlink:href="#zoomPlus" x="17" y="9" onmousedown="handleZoom(evt,'in')"/>
  <use id="zoomminus" xlink:href="#zoomMin" x="42" y="9" onmousedown="handleZoom(evt,'out')"/>
  <use id="reset" xlink:href="#resetDef" x="30" y="36" onmousedown="handleReset()"/>
   <use id="arrowup" xlink:href="#arrowUp" x="0" y="0" onmousedown="handlePan(0,-1)"/>
  <use id="arrowright" xlink:href="#arrowRight" x="0" y="0" onmousedown="handlePan(1,0)"/>
  <use id="arrowdown" xlink:href="#arrowDown" x="0" y="0" onmousedown="handlePan(0,1)"/>
  <use id="arrowleft" xlink:href="#arrowLeft" x="0" y="0" onmousedown="handlePan(-1,0)"/>
</g>
<svg viewBox="0 0 15 15" width="100%" height="30px" preserveAspectRatio="xMaxYMin meet">
 <g id="arrow_out" transform="scale(0.3 0.3)">
  <a xlink:href="class_slic3r_1_1_g_u_i_1_1_object_data_view_model_ab0089170cd8ef3dcc96e0ec47967ef58_cgraph_org.svg" target="_base">
   <rect id="button" ry="5" rx="5" y="6" x="6" height="38" width="38"
        fill="#f2f5e9" fill-opacity="0.5" stroke="#606060" stroke-width="1.0"/>
   <path id="arrow"
     d="M 11.500037,31.436501 C 11.940474,20.09759 22.043105,11.32322 32.158766,21.979434 L 37.068811,17.246167 C 37.068811,17.246167 37.088388,32 37.088388,32 L 22.160133,31.978069 C 22.160133,31.978069 26.997745,27.140456 26.997745,27.140456 C 18.528582,18.264221 13.291696,25.230495 11.500037,31.436501 z"
     style="fill:#404040;"/>
  </a>
 </g>
</svg>

<style type='text/css'>
<![CDATA[
[data-mouse-over-selected='false'] { opacity: 0.7; }
[data-mouse-over-selected='true']  { opacity: 1.0; }
]]>
</style>
<script type="application/ecmascript"><![CDATA[
document.addEventListener('DOMContentLoaded', (event) => {
  highlightEdges();
  highlightAdjacentNodes();
});
]]></script>
</svg>
