<?xml version="1.0" encoding="UTF-8" standalone="no"?>
<!DOCTYPE svg PUBLIC "-//W3C//DTD SVG 1.1//EN"
 "http://www.w3.org/Graphics/SVG/1.1/DTD/svg11.dtd">
<!-- Generated by graphviz version 8.0.5 (20230430.1635)
 -->
<!-- Title: Slic3r::GUI::GLTexture::render_texture Pages: 1 -->
<svg width="1387pt" height="606pt"
 viewBox="0.00 0.00 1386.50 605.93" xmlns="http://www.w3.org/2000/svg" xmlns:xlink="http://www.w3.org/1999/xlink">
<g id="graph0" class="graph" transform="scale(1 1) rotate(0) translate(4 601.93)">
<title>Slic3r::GUI::GLTexture::render_texture</title>
<!-- Node1 -->
<g id="Node000001" class="node">
<title>Node1</title>
<g id="a_Node000001"><a xlink:title=" ">
<polygon fill="#999999" stroke="#666666" points="115.75,-262.5 0,-262.5 0,-232 115.75,-232 115.75,-262.5"/>
<text text-anchor="start" x="8" y="-249" font-family="Helvetica,sans-Serif" font-size="10.00">Slic3r::GUI::GLTexture</text>
<text text-anchor="middle" x="57.88" y="-237.75" font-family="Helvetica,sans-Serif" font-size="10.00">::render_texture</text>
</a>
</g>
</g>
<!-- Node2 -->
<g id="Node000002" class="node">
<title>Node2</title>
<g id="a_Node000002"><a xlink:href="../../db/d45/class_slic3r_1_1_g_u_i_1_1_g_l_texture.html#a21f37463039a75bca3679205e37aec77" target="_top" xlink:title=" ">
<polygon fill="white" stroke="#666666" points="267.5,-262.5 151.75,-262.5 151.75,-232 267.5,-232 267.5,-262.5"/>
<text text-anchor="start" x="159.75" y="-249" font-family="Helvetica,sans-Serif" font-size="10.00">Slic3r::GUI::GLTexture</text>
<text text-anchor="middle" x="209.62" y="-237.75" font-family="Helvetica,sans-Serif" font-size="10.00">::render_sub_texture</text>
</a>
</g>
</g>
<!-- Node1&#45;&gt;Node2 -->
<g id="edge1_Node000001_Node000002" class="edge">
<title>Node1&#45;&gt;Node2</title>
<g id="a_edge1_Node000001_Node000002"><a xlink:title=" ">
<path fill="none" stroke="#63b8ff" d="M115.92,-247.25C124.08,-247.25 132.54,-247.25 140.88,-247.25"/>
<polygon fill="#63b8ff" stroke="#63b8ff" points="140.74,-250.75 150.74,-247.25 140.74,-243.75 140.74,-250.75"/>
</a>
</g>
</g>
<!-- Node3 -->
<g id="Node000003" class="node">
<title>Node3</title>
<g id="a_Node000003"><a xlink:href="../../d2/d0b/struct_slic3r_1_1_g_u_i_1_1_g_l_model_1_1_geometry.html#a258b791148c4903562d3fb0a5c728e08" target="_top" xlink:title=" ">
<polygon fill="white" stroke="#666666" points="430.88,-502.5 307.62,-502.5 307.62,-472 430.88,-472 430.88,-502.5"/>
<text text-anchor="start" x="315.62" y="-489" font-family="Helvetica,sans-Serif" font-size="10.00">Slic3r::GUI::GLModel</text>
<text text-anchor="middle" x="369.25" y="-477.75" font-family="Helvetica,sans-Serif" font-size="10.00">::Geometry::add_triangle</text>
</a>
</g>
</g>
<!-- Node2&#45;&gt;Node3 -->
<g id="edge2_Node000002_Node000003" class="edge">
<title>Node2&#45;&gt;Node3</title>
<g id="a_edge2_Node000002_Node000003"><a xlink:title=" ">
<path fill="none" stroke="#63b8ff" d="M213.11,-262.86C220.12,-301.87 243.56,-404.62 303.5,-462.25 304.67,-463.37 305.89,-464.45 307.16,-465.47"/>
<polygon fill="#63b8ff" stroke="#63b8ff" points="304.89,-468.84 315.12,-471.59 308.84,-463.06 304.89,-468.84"/>
</a>
</g>
</g>
<!-- Node4 -->
<g id="Node000004" class="node">
<title>Node4</title>
<g id="a_Node000004"><a xlink:href="../../d2/d0b/struct_slic3r_1_1_g_u_i_1_1_g_l_model_1_1_geometry.html#aa6c4673ea8e489ff66fe88da7bf6504b" target="_top" xlink:title=" ">
<polygon fill="white" stroke="#666666" points="428.62,-453.5 309.88,-453.5 309.88,-423 428.62,-423 428.62,-453.5"/>
<text text-anchor="start" x="317.88" y="-440" font-family="Helvetica,sans-Serif" font-size="10.00">Slic3r::GUI::GLModel</text>
<text text-anchor="middle" x="369.25" y="-428.75" font-family="Helvetica,sans-Serif" font-size="10.00">::Geometry::add_vertex</text>
</a>
</g>
</g>
<!-- Node2&#45;&gt;Node4 -->
<g id="edge3_Node000002_Node000004" class="edge">
<title>Node2&#45;&gt;Node4</title>
<g id="a_edge3_Node000002_Node000004"><a xlink:title=" ">
<path fill="none" stroke="#63b8ff" d="M215.25,-262.99C225.64,-295.74 253.9,-371.69 303.5,-414.25 304.55,-415.15 305.64,-416.02 306.75,-416.85"/>
<polygon fill="#63b8ff" stroke="#63b8ff" points="304.53,-420.23 314.84,-422.67 308.31,-414.33 304.53,-420.23"/>
</a>
</g>
</g>
<!-- Node5 -->
<g id="Node000005" class="node">
<title>Node5</title>
<g id="a_Node000005"><a xlink:href="../../d5/d00/group___geometry___module.html#a41e2e58b09790eb8e3e220acceb7de1f" target="_top" xlink:title="Returns an identity transformation.">
<polygon fill="white" stroke="#666666" points="435,-405.12 303.5,-405.12 303.5,-363.38 435,-363.38 435,-405.12"/>
<text text-anchor="start" x="311.5" y="-391.62" font-family="Helvetica,sans-Serif" font-size="10.00">Eigen::Transform&lt; double,</text>
<text text-anchor="start" x="311.5" y="-380.38" font-family="Helvetica,sans-Serif" font-size="10.00"> 3, Eigen::Affine, Eigen</text>
<text text-anchor="middle" x="369.25" y="-369.12" font-family="Helvetica,sans-Serif" font-size="10.00">::DontAlign &gt;::Identity</text>
</a>
</g>
</g>
<!-- Node2&#45;&gt;Node5 -->
<g id="edge4_Node000002_Node000005" class="edge">
<title>Node2&#45;&gt;Node5</title>
<g id="a_edge4_Node000002_Node000005"><a xlink:title=" ">
<path fill="none" stroke="#63b8ff" d="M220.97,-262.9C236.57,-285.55 268.12,-327.63 303.5,-354.25 304.93,-355.33 306.4,-356.37 307.91,-357.4"/>
<polygon fill="#63b8ff" stroke="#63b8ff" points="305.53,-360.66 315.87,-362.96 309.23,-354.71 305.53,-360.66"/>
</a>
</g>
</g>
<!-- Node6 -->
<g id="Node000006" class="node">
<title>Node6</title>
<g id="a_Node000006"><a xlink:href="../../d0/d55/class_slic3r_1_1_g_u_i_1_1_g_l_model.html#ae36934402de792139364066cc07008cd" target="_top" xlink:title=" ">
<polygon fill="white" stroke="#666666" points="424.12,-345.5 314.38,-345.5 314.38,-315 424.12,-315 424.12,-345.5"/>
<text text-anchor="start" x="322.38" y="-332" font-family="Helvetica,sans-Serif" font-size="10.00">Slic3r::GUI::GLModel</text>
<text text-anchor="middle" x="369.25" y="-320.75" font-family="Helvetica,sans-Serif" font-size="10.00">::init_from</text>
</a>
</g>
</g>
<!-- Node2&#45;&gt;Node6 -->
<g id="edge5_Node000002_Node000006" class="edge">
<title>Node2&#45;&gt;Node6</title>
<g id="a_edge5_Node000002_Node000006"><a xlink:title=" ">
<path fill="none" stroke="#63b8ff" d="M240.27,-262.86C265.29,-276.04 301.32,-295.01 328.78,-309.46"/>
<polygon fill="#63b8ff" stroke="#63b8ff" points="326.99,-313.01 337.47,-314.57 330.25,-306.81 326.99,-313.01"/>
</a>
</g>
</g>
<!-- Node20 -->
<g id="Node000020" class="node">
<title>Node20</title>
<g id="a_Node000020"><a xlink:href="../../d0/d55/class_slic3r_1_1_g_u_i_1_1_g_l_model.html#a6d7d1b734eef38c03744831cdd307cd3" target="_top" xlink:title=" ">
<polygon fill="white" stroke="#666666" points="601,-220.5 491.25,-220.5 491.25,-190 601,-190 601,-220.5"/>
<text text-anchor="start" x="499.25" y="-207" font-family="Helvetica,sans-Serif" font-size="10.00">Slic3r::GUI::GLModel</text>
<text text-anchor="middle" x="546.12" y="-195.75" font-family="Helvetica,sans-Serif" font-size="10.00">::render</text>
</a>
</g>
</g>
<!-- Node2&#45;&gt;Node20 -->
<g id="edge24_Node000002_Node000020" class="edge">
<title>Node2&#45;&gt;Node20</title>
<g id="a_edge24_Node000002_Node000020"><a xlink:title=" ">
<path fill="none" stroke="#63b8ff" d="M267.75,-240.08C326.72,-232.67 418.57,-221.14 480.24,-213.4"/>
<polygon fill="#63b8ff" stroke="#63b8ff" points="480.52,-216.76 490.01,-212.04 479.65,-209.82 480.52,-216.76"/>
</a>
</g>
</g>
<!-- Node21 -->
<g id="Node000021" class="node">
<title>Node21</title>
<g id="a_Node000021"><a xlink:href="../../d2/d0b/struct_slic3r_1_1_g_u_i_1_1_g_l_model_1_1_geometry.html#a34433d66ec17c5984778897721025bc5" target="_top" xlink:title=" ">
<polygon fill="white" stroke="#666666" points="798.12,-177.5 659.12,-177.5 659.12,-147 798.12,-147 798.12,-177.5"/>
<text text-anchor="start" x="667.12" y="-164" font-family="Helvetica,sans-Serif" font-size="10.00">Slic3r::GUI::GLModel</text>
<text text-anchor="middle" x="728.62" y="-152.75" font-family="Helvetica,sans-Serif" font-size="10.00">::Geometry::reserve_indices</text>
</a>
</g>
</g>
<!-- Node2&#45;&gt;Node21 -->
<g id="edge27_Node000002_Node000021" class="edge">
<title>Node2&#45;&gt;Node21</title>
<g id="a_edge27_Node000002_Node000021"><a xlink:title=" ">
<path fill="none" stroke="#63b8ff" d="M254.24,-231.53C269.68,-226.27 287.25,-220.64 303.5,-216.25 376.92,-196.4 395.69,-191.86 471,-181.25 529.94,-172.95 597.03,-168.14 647.83,-165.44"/>
<polygon fill="#63b8ff" stroke="#63b8ff" points="647.93,-168.89 657.74,-164.88 647.57,-161.9 647.93,-168.89"/>
</a>
</g>
</g>
<!-- Node22 -->
<g id="Node000022" class="node">
<title>Node22</title>
<g id="a_Node000022"><a xlink:href="../../d2/d0b/struct_slic3r_1_1_g_u_i_1_1_g_l_model_1_1_geometry.html#a7c413f0fb836f6e0fd59e3de64fe77a8" target="_top" xlink:title=" ">
<polygon fill="white" stroke="#666666" points="800,-342.5 657.25,-342.5 657.25,-312 800,-312 800,-342.5"/>
<text text-anchor="start" x="665.25" y="-329" font-family="Helvetica,sans-Serif" font-size="10.00">Slic3r::GUI::GLModel</text>
<text text-anchor="middle" x="728.62" y="-317.75" font-family="Helvetica,sans-Serif" font-size="10.00">::Geometry::reserve_vertices</text>
</a>
</g>
</g>
<!-- Node2&#45;&gt;Node22 -->
<g id="edge29_Node000002_Node000022" class="edge">
<title>Node2&#45;&gt;Node22</title>
<g id="a_edge29_Node000002_Node000022"><a xlink:title=" ">
<path fill="none" stroke="#63b8ff" d="M267.91,-247.46C348.04,-248.9 497.64,-255.76 621.25,-285.25 642.86,-290.4 665.9,-299.08 684.99,-307.21"/>
<polygon fill="#63b8ff" stroke="#63b8ff" points="683.31,-310.73 693.87,-311.51 686.11,-304.31 683.31,-310.73"/>
</a>
</g>
</g>
<!-- Node23 -->
<g id="Node000023" class="node">
<title>Node23</title>
<g id="a_Node000023"><a xlink:href="../../d6/d61/class_slic3r_1_1_g_l_shader_program.html#a1dacd483d1ec4e034052bba838652bc0" target="_top" xlink:title=" ">
<polygon fill="white" stroke="#666666" points="432.75,-128.5 305.75,-128.5 305.75,-98 432.75,-98 432.75,-128.5"/>
<text text-anchor="start" x="313.75" y="-115" font-family="Helvetica,sans-Serif" font-size="10.00">Slic3r::GLShaderProgram</text>
<text text-anchor="middle" x="369.25" y="-103.75" font-family="Helvetica,sans-Serif" font-size="10.00">::set_uniform</text>
</a>
</g>
</g>
<!-- Node2&#45;&gt;Node23 -->
<g id="edge32_Node000002_Node000023" class="edge">
<title>Node2&#45;&gt;Node23</title>
<g id="a_edge32_Node000002_Node000023"><a xlink:title=" ">
<path fill="none" stroke="#63b8ff" d="M226.18,-231.53C244.2,-213.61 275.05,-183.74 303.5,-160.25 313.96,-151.61 325.86,-142.72 336.58,-135.04"/>
<polygon fill="#63b8ff" stroke="#63b8ff" points="338.12,-137.53 344.25,-128.89 334.07,-131.82 338.12,-137.53"/>
</a>
</g>
</g>
<!-- Node25 -->
<g id="Node000025" class="node">
<title>Node25</title>
<g id="a_Node000025"><a xlink:href="../../d6/d61/class_slic3r_1_1_g_l_shader_program.html#a20dc1cc84b922e91edd66c52960cbcc8" target="_top" xlink:title=" ">
<polygon fill="white" stroke="#666666" points="432.75,-79.5 305.75,-79.5 305.75,-49 432.75,-49 432.75,-79.5"/>
<text text-anchor="start" x="313.75" y="-66" font-family="Helvetica,sans-Serif" font-size="10.00">Slic3r::GLShaderProgram</text>
<text text-anchor="middle" x="369.25" y="-54.75" font-family="Helvetica,sans-Serif" font-size="10.00">::start_using</text>
</a>
</g>
</g>
<!-- Node2&#45;&gt;Node25 -->
<g id="edge35_Node000002_Node000025" class="edge">
<title>Node2&#45;&gt;Node25</title>
<g id="a_edge35_Node000002_Node000025"><a xlink:title=" ">
<path fill="none" stroke="#63b8ff" d="M215.7,-231.93C226.77,-200.79 255.96,-129.61 303.5,-89.25 305.08,-87.9 306.75,-86.63 308.48,-85.41"/>
<polygon fill="#63b8ff" stroke="#63b8ff" points="309.84,-88.07 316.55,-79.88 306.19,-82.1 309.84,-88.07"/>
</a>
</g>
</g>
<!-- Node26 -->
<g id="Node000026" class="node">
<title>Node26</title>
<g id="a_Node000026"><a xlink:href="../../d6/d61/class_slic3r_1_1_g_l_shader_program.html#afb2404dc15be8d6b04db0082df1d4088" target="_top" xlink:title=" ">
<polygon fill="white" stroke="#666666" points="432.75,-30.5 305.75,-30.5 305.75,0 432.75,0 432.75,-30.5"/>
<text text-anchor="start" x="313.75" y="-17" font-family="Helvetica,sans-Serif" font-size="10.00">Slic3r::GLShaderProgram</text>
<text text-anchor="middle" x="369.25" y="-5.75" font-family="Helvetica,sans-Serif" font-size="10.00">::stop_using</text>
</a>
</g>
</g>
<!-- Node2&#45;&gt;Node26 -->
<g id="edge36_Node000002_Node000026" class="edge">
<title>Node2&#45;&gt;Node26</title>
<g id="a_edge36_Node000002_Node000026"><a xlink:title=" ">
<path fill="none" stroke="#63b8ff" d="M213.4,-231.66C220.95,-193.67 245.33,-95.4 303.5,-40.25 304.68,-39.14 305.91,-38.07 307.18,-37.05"/>
<polygon fill="#63b8ff" stroke="#63b8ff" points="308.85,-39.47 315.18,-30.97 304.93,-33.67 308.85,-39.47"/>
</a>
</g>
</g>
<!-- Node7 -->
<g id="Node000007" class="node">
<title>Node7</title>
<g id="a_Node000007"><a xlink:href="../../d2/d0b/struct_slic3r_1_1_g_u_i_1_1_g_l_model_1_1_geometry.html#a2debd31aa0812e26e5099287ef57f44a" target="_top" xlink:title=" ">
<polygon fill="white" stroke="#666666" points="621.25,-459.5 471,-459.5 471,-429 621.25,-429 621.25,-459.5"/>
<text text-anchor="start" x="479" y="-446" font-family="Helvetica,sans-Serif" font-size="10.00">Slic3r::GUI::GLModel</text>
<text text-anchor="middle" x="546.12" y="-434.75" font-family="Helvetica,sans-Serif" font-size="10.00">::Geometry::extract_position_2</text>
</a>
</g>
</g>
<!-- Node6&#45;&gt;Node7 -->
<g id="edge6_Node000006_Node000007" class="edge">
<title>Node6&#45;&gt;Node7</title>
<g id="a_edge6_Node000006_Node000007"><a xlink:title=" ">
<path fill="none" stroke="#63b8ff" d="M422.98,-346C427.28,-348.39 431.36,-351.12 435,-354.25 460.04,-375.78 445.64,-398.1 471,-419.25 472.6,-420.59 474.28,-421.85 476.02,-423.05"/>
<polygon fill="#63b8ff" stroke="#63b8ff" points="473.77,-426.38 484.14,-428.52 477.36,-420.38 473.77,-426.38"/>
</a>
</g>
</g>
<!-- Node11 -->
<g id="Node000011" class="node">
<title>Node11</title>
<g id="a_Node000011"><a xlink:href="../../d0/d55/class_slic3r_1_1_g_u_i_1_1_g_l_model.html#ae3971a7056b8be9ee62c0993a509924b" target="_top" xlink:title=" ">
<polygon fill="white" stroke="#666666" points="783.5,-391.5 673.75,-391.5 673.75,-361 783.5,-361 783.5,-391.5"/>
<text text-anchor="start" x="681.75" y="-378" font-family="Helvetica,sans-Serif" font-size="10.00">Slic3r::GUI::GLModel</text>
<text text-anchor="middle" x="728.62" y="-366.75" font-family="Helvetica,sans-Serif" font-size="10.00">::vertices_count</text>
</a>
</g>
</g>
<!-- Node6&#45;&gt;Node11 -->
<g id="edge23_Node000006_Node000011" class="edge">
<title>Node6&#45;&gt;Node11</title>
<g id="a_edge23_Node000006_Node000011"><a xlink:title=" ">
<path fill="none" stroke="#63b8ff" d="M424.53,-337.24C488.47,-345.47 594.62,-359.13 662.82,-367.91"/>
<polygon fill="#63b8ff" stroke="#63b8ff" points="662.06,-371.47 672.42,-369.27 662.95,-364.53 662.06,-371.47"/>
</a>
</g>
</g>
<!-- Node14 -->
<g id="Node000014" class="node">
<title>Node14</title>
<g id="a_Node000014"><a xlink:href="../../d2/d0b/struct_slic3r_1_1_g_u_i_1_1_g_l_model_1_1_geometry.html#ac0c107633fced25d895df5f3c5ba5454" target="_top" xlink:title=" ">
<polygon fill="white" stroke="#666666" points="621.25,-508.5 471,-508.5 471,-478 621.25,-478 621.25,-508.5"/>
<text text-anchor="start" x="479" y="-495" font-family="Helvetica,sans-Serif" font-size="10.00">Slic3r::GUI::GLModel</text>
<text text-anchor="middle" x="546.12" y="-483.75" font-family="Helvetica,sans-Serif" font-size="10.00">::Geometry::extract_position_3</text>
</a>
</g>
</g>
<!-- Node6&#45;&gt;Node14 -->
<g id="edge13_Node000006_Node000014" class="edge">
<title>Node6&#45;&gt;Node14</title>
<g id="a_edge13_Node000006_Node000014"><a xlink:title=" ">
<path fill="none" stroke="#63b8ff" d="M424.62,-345.84C428.41,-348.25 431.94,-351.04 435,-354.25 471.64,-392.73 433.8,-430.32 471,-468.25 471.99,-469.26 473.02,-470.23 474.09,-471.16"/>
<polygon fill="#63b8ff" stroke="#63b8ff" points="471.77,-474.52 481.92,-477.54 475.87,-468.85 471.77,-474.52"/>
</a>
</g>
</g>
<!-- Node15 -->
<g id="Node000015" class="node">
<title>Node15</title>
<g id="a_Node000015"><a xlink:href="../../d0/d55/class_slic3r_1_1_g_u_i_1_1_g_l_model.html#aa01fd4b9e80610ce2867268d4fdf52ad" target="_top" xlink:title=" ">
<polygon fill="white" stroke="#666666" points="601,-324.5 491.25,-324.5 491.25,-294 601,-294 601,-324.5"/>
<text text-anchor="start" x="499.25" y="-311" font-family="Helvetica,sans-Serif" font-size="10.00">Slic3r::GUI::GLModel</text>
<text text-anchor="middle" x="546.12" y="-299.75" font-family="Helvetica,sans-Serif" font-size="10.00">::is_initialized</text>
</a>
</g>
</g>
<!-- Node6&#45;&gt;Node15 -->
<g id="edge16_Node000006_Node000015" class="edge">
<title>Node6&#45;&gt;Node15</title>
<g id="a_edge16_Node000006_Node000015"><a xlink:title=" ">
<path fill="none" stroke="#63b8ff" d="M424.62,-323.72C442.14,-321.62 461.74,-319.26 479.95,-317.08"/>
<polygon fill="#63b8ff" stroke="#63b8ff" points="480.27,-320.44 489.79,-315.78 479.44,-313.49 480.27,-320.44"/>
</a>
</g>
</g>
<!-- Node18 -->
<g id="Node000018" class="node">
<title>Node18</title>
<g id="a_Node000018"><a xlink:href="../../da/d00/class_slic3r_1_1_bounding_box3_base.html#afbb570dbe5bd1bb0daa6d4992d2a9114" target="_top" xlink:title=" ">
<polygon fill="white" stroke="#666666" points="612.25,-410.5 480,-410.5 480,-380 612.25,-380 612.25,-410.5"/>
<text text-anchor="start" x="488" y="-397" font-family="Helvetica,sans-Serif" font-size="10.00">Slic3r::BoundingBox3Base</text>
<text text-anchor="middle" x="546.12" y="-385.75" font-family="Helvetica,sans-Serif" font-size="10.00">::merge</text>
</a>
</g>
</g>
<!-- Node6&#45;&gt;Node18 -->
<g id="edge20_Node000006_Node000018" class="edge">
<title>Node6&#45;&gt;Node18</title>
<g id="a_edge20_Node000006_Node000018"><a xlink:title=" ">
<path fill="none" stroke="#63b8ff" d="M412.75,-345.99C420.16,-348.74 427.81,-351.58 435,-354.25 453.87,-361.26 474.56,-368.96 492.86,-375.77"/>
<polygon fill="#63b8ff" stroke="#63b8ff" points="491.44,-379.35 502.03,-379.56 493.88,-372.79 491.44,-379.35"/>
</a>
</g>
</g>
<!-- Node19 -->
<g id="Node000019" class="node">
<title>Node19</title>
<g id="a_Node000019"><a xlink:href="../../d2/d0b/struct_slic3r_1_1_g_u_i_1_1_g_l_model_1_1_geometry.html#abb038ab8dff4c784c621691260784dd9" target="_top" xlink:title=" ">
<polygon fill="white" stroke="#666666" points="1124.88,-556.12 1015.12,-556.12 1015.12,-514.38 1124.88,-514.38 1124.88,-556.12"/>
<text text-anchor="start" x="1023.12" y="-542.62" font-family="Helvetica,sans-Serif" font-size="10.00">Slic3r::GUI::GLModel</text>
<text text-anchor="start" x="1023.12" y="-531.38" font-family="Helvetica,sans-Serif" font-size="10.00">::Geometry::position</text>
<text text-anchor="middle" x="1070" y="-520.12" font-family="Helvetica,sans-Serif" font-size="10.00">_stride_floats</text>
</a>
</g>
</g>
<!-- Node6&#45;&gt;Node19 -->
<g id="edge21_Node000006_Node000019" class="edge">
<title>Node6&#45;&gt;Node19</title>
<g id="a_edge21_Node000006_Node000019"><a xlink:title=" ">
<path fill="none" stroke="#63b8ff" d="M424.33,-345.15C428.29,-347.72 431.93,-350.72 435,-354.25 483.73,-410.19 413.86,-469.92 471,-517.25 624.55,-644.43 884.05,-591 1004.28,-556.31"/>
<polygon fill="#63b8ff" stroke="#63b8ff" points="1005.17,-559.41 1013.78,-553.23 1003.19,-552.69 1005.17,-559.41"/>
</a>
</g>
</g>
<!-- Node8 -->
<g id="Node000008" class="node">
<title>Node8</title>
<g id="a_Node000008"><a xlink:href="../../d9/d45/namespace_slic3r_1_1_g_u_i.html#a931a812146d00b37d0b68093aca9d688" target="_top" xlink:title=" ">
<polygon fill="white" stroke="#666666" points="1268,-473.88 1169.5,-473.88 1169.5,-454.62 1268,-454.62 1268,-473.88"/>
<text text-anchor="middle" x="1218.75" y="-460.38" font-family="Helvetica,sans-Serif" font-size="10.00">Slic3r::GUI::format</text>
</a>
</g>
</g>
<!-- Node7&#45;&gt;Node8 -->
<g id="edge7_Node000007_Node000008" class="edge">
<title>Node7&#45;&gt;Node8</title>
<g id="a_edge7_Node000007_Node000008"><a xlink:title=" ">
<path fill="none" stroke="#63b8ff" d="M621.46,-446.47C755.69,-450.47 1035.96,-458.83 1158.39,-462.48"/>
<polygon fill="#63b8ff" stroke="#63b8ff" points="1157.93,-466 1168.03,-462.8 1158.14,-459 1157.93,-466"/>
</a>
</g>
</g>
<!-- Node7&#45;&gt;Node11 -->
<g id="edge9_Node000007_Node000011" class="edge">
<title>Node7&#45;&gt;Node11</title>
<g id="a_edge9_Node000007_Node000011"><a xlink:title=" ">
<path fill="none" stroke="#63b8ff" d="M595.12,-428.52C603.85,-425.53 612.84,-422.36 621.25,-419.25 640.7,-412.04 661.93,-403.59 680.27,-396.09"/>
<polygon fill="#63b8ff" stroke="#63b8ff" points="681.5,-398.95 689.42,-391.91 678.84,-392.48 681.5,-398.95"/>
</a>
</g>
</g>
<!-- Node9 -->
<g id="Node000009" class="node">
<title>Node9</title>
<g id="a_Node000009"><a xlink:href="../../de/db8/namespace_slic3r.html#ab28c13d286b2d1767d7c63b020ebd042" target="_top" xlink:title=" ">
<polygon fill="#fff0f0" stroke="red" points="1378.5,-473.88 1304,-473.88 1304,-454.62 1378.5,-454.62 1378.5,-473.88"/>
<text text-anchor="middle" x="1341.25" y="-460.38" font-family="Helvetica,sans-Serif" font-size="10.00">Slic3r::format</text>
</a>
</g>
</g>
<!-- Node8&#45;&gt;Node9 -->
<g id="edge8_Node000008_Node000009" class="edge">
<title>Node8&#45;&gt;Node9</title>
<g id="a_edge8_Node000008_Node000009"><a xlink:title=" ">
<path fill="none" stroke="#63b8ff" d="M1268.41,-464.25C1276.41,-464.25 1284.68,-464.25 1292.65,-464.25"/>
<polygon fill="#63b8ff" stroke="#63b8ff" points="1292.64,-467.75 1302.64,-464.25 1292.64,-460.75 1292.64,-467.75"/>
</a>
</g>
</g>
<!-- Node12 -->
<g id="Node000012" class="node">
<title>Node12</title>
<g id="a_Node000012"><a xlink:href="../../d2/d0b/struct_slic3r_1_1_g_u_i_1_1_g_l_model_1_1_geometry.html#a90538e4586816392f03433ffe4f99498" target="_top" xlink:title=" ">
<polygon fill="white" stroke="#666666" points="970.5,-390.5 836,-390.5 836,-360 970.5,-360 970.5,-390.5"/>
<text text-anchor="start" x="844" y="-377" font-family="Helvetica,sans-Serif" font-size="10.00">Slic3r::GUI::GLModel</text>
<text text-anchor="middle" x="903.25" y="-365.75" font-family="Helvetica,sans-Serif" font-size="10.00">::Geometry::vertices_count</text>
</a>
</g>
</g>
<!-- Node11&#45;&gt;Node12 -->
<g id="edge10_Node000011_Node000012" class="edge">
<title>Node11&#45;&gt;Node12</title>
<g id="a_edge10_Node000011_Node000012"><a xlink:title=" ">
<path fill="none" stroke="#63b8ff" d="M783.77,-375.94C796.72,-375.86 810.8,-375.78 824.58,-375.7"/>
<polygon fill="#63b8ff" stroke="#63b8ff" points="824.57,-379.19 834.55,-375.64 824.53,-372.19 824.57,-379.19"/>
</a>
</g>
</g>
<!-- Node13 -->
<g id="Node000013" class="node">
<title>Node13</title>
<g id="a_Node000013"><a xlink:href="../../d2/d0b/struct_slic3r_1_1_g_u_i_1_1_g_l_model_1_1_geometry.html#aa2961820e12811b0cd3b5a0d66537080" target="_top" xlink:title=" ">
<polygon fill="white" stroke="#666666" points="1133.5,-396.12 1006.5,-396.12 1006.5,-354.38 1133.5,-354.38 1133.5,-396.12"/>
<text text-anchor="start" x="1014.5" y="-382.62" font-family="Helvetica,sans-Serif" font-size="10.00">Slic3r::GUI::GLModel</text>
<text text-anchor="start" x="1014.5" y="-371.38" font-family="Helvetica,sans-Serif" font-size="10.00">::Geometry::vertex_stride</text>
<text text-anchor="middle" x="1070" y="-360.12" font-family="Helvetica,sans-Serif" font-size="10.00">_floats</text>
</a>
</g>
</g>
<!-- Node12&#45;&gt;Node13 -->
<g id="edge11_Node000012_Node000013" class="edge">
<title>Node12&#45;&gt;Node13</title>
<g id="a_edge11_Node000012_Node000013"><a xlink:title=" ">
<path fill="none" stroke="#63b8ff" d="M970.79,-375.25C978.83,-375.25 987.08,-375.25 995.22,-375.25"/>
<polygon fill="#63b8ff" stroke="#63b8ff" points="995.22,-378.75 1005.22,-375.25 995.22,-371.75 995.22,-378.75"/>
</a>
</g>
</g>
<!-- Node13&#45;&gt;Node8 -->
<g id="edge12_Node000013_Node000008" class="edge">
<title>Node13&#45;&gt;Node8</title>
<g id="a_edge12_Node000013_Node000008"><a xlink:title=" ">
<path fill="none" stroke="#63b8ff" d="M1106.15,-396.57C1132.68,-412.66 1168.46,-434.36 1192.28,-448.8"/>
<polygon fill="#63b8ff" stroke="#63b8ff" points="1190.02,-452.13 1200.39,-454.33 1193.65,-446.15 1190.02,-452.13"/>
</a>
</g>
</g>
<!-- Node14&#45;&gt;Node8 -->
<g id="edge14_Node000014_Node000008" class="edge">
<title>Node14&#45;&gt;Node8</title>
<g id="a_edge14_Node000014_Node000008"><a xlink:title=" ">
<path fill="none" stroke="#63b8ff" d="M621.67,-491.09C733.09,-487.68 949.63,-480.4 1133.5,-470.25 1141.54,-469.81 1150.01,-469.28 1158.36,-468.72"/>
<polygon fill="#63b8ff" stroke="#63b8ff" points="1158.47,-472.15 1168.21,-467.97 1157.99,-465.17 1158.47,-472.15"/>
</a>
</g>
</g>
<!-- Node14&#45;&gt;Node11 -->
<g id="edge15_Node000014_Node000011" class="edge">
<title>Node14&#45;&gt;Node11</title>
<g id="a_edge15_Node000014_Node000011"><a xlink:title=" ">
<path fill="none" stroke="#63b8ff" d="M601.64,-477.6C608.42,-474.87 615.12,-471.75 621.25,-468.25 654,-449.53 685.96,-419.9 706.16,-399.35"/>
<polygon fill="#63b8ff" stroke="#63b8ff" points="708.13,-402.31 712.56,-392.69 703.09,-397.45 708.13,-402.31"/>
</a>
</g>
</g>
<!-- Node15&#45;&gt;Node11 -->
<g id="edge19_Node000015_Node000011" class="edge">
<title>Node15&#45;&gt;Node11</title>
<g id="a_edge19_Node000015_Node000011"><a xlink:title=" ">
<path fill="none" stroke="#63b8ff" d="M587.57,-324.93C608.36,-332.92 634.11,-342.73 657.25,-351.25 662.29,-353.11 667.55,-355.02 672.81,-356.92"/>
<polygon fill="#63b8ff" stroke="#63b8ff" points="671.3,-360.45 681.89,-360.53 673.66,-353.86 671.3,-360.45"/>
</a>
</g>
</g>
<!-- Node16 -->
<g id="Node000016" class="node">
<title>Node16</title>
<g id="a_Node000016"><a xlink:href="../../d0/d55/class_slic3r_1_1_g_u_i_1_1_g_l_model.html#af3c471e7e6a7ddf2286780b6be611da0" target="_top" xlink:title=" ">
<polygon fill="white" stroke="#666666" points="783.5,-226.5 673.75,-226.5 673.75,-196 783.5,-196 783.5,-226.5"/>
<text text-anchor="start" x="681.75" y="-213" font-family="Helvetica,sans-Serif" font-size="10.00">Slic3r::GUI::GLModel</text>
<text text-anchor="middle" x="728.62" y="-201.75" font-family="Helvetica,sans-Serif" font-size="10.00">::indices_count</text>
</a>
</g>
</g>
<!-- Node15&#45;&gt;Node16 -->
<g id="edge17_Node000015_Node000016" class="edge">
<title>Node15&#45;&gt;Node16</title>
<g id="a_edge17_Node000015_Node000016"><a xlink:title=" ">
<path fill="none" stroke="#63b8ff" d="M576.13,-293.5C606.78,-276.86 655.29,-250.52 689.13,-232.15"/>
<polygon fill="#63b8ff" stroke="#63b8ff" points="690.58,-234.8 697.7,-226.96 687.24,-228.65 690.58,-234.8"/>
</a>
</g>
</g>
<!-- Node17 -->
<g id="Node000017" class="node">
<title>Node17</title>
<g id="a_Node000017"><a xlink:href="../../d2/d0b/struct_slic3r_1_1_g_u_i_1_1_g_l_model_1_1_geometry.html#a7c35fd2326389f74e8133f0db0e7d8fa" target="_top" xlink:title=" ">
<polygon fill="white" stroke="#666666" points="968.62,-202.5 837.88,-202.5 837.88,-172 968.62,-172 968.62,-202.5"/>
<text text-anchor="start" x="845.88" y="-189" font-family="Helvetica,sans-Serif" font-size="10.00">Slic3r::GUI::GLModel</text>
<text text-anchor="middle" x="903.25" y="-177.75" font-family="Helvetica,sans-Serif" font-size="10.00">::Geometry::indices_count</text>
</a>
</g>
</g>
<!-- Node16&#45;&gt;Node17 -->
<g id="edge18_Node000016_Node000017" class="edge">
<title>Node16&#45;&gt;Node17</title>
<g id="a_edge18_Node000016_Node000017"><a xlink:title=" ">
<path fill="none" stroke="#63b8ff" d="M783.77,-203.72C797.46,-201.82 812.4,-199.74 826.92,-197.72"/>
<polygon fill="#63b8ff" stroke="#63b8ff" points="826.98,-201.11 836.4,-196.27 826.01,-194.18 826.98,-201.11"/>
</a>
</g>
</g>
<!-- Node19&#45;&gt;Node8 -->
<g id="edge22_Node000019_Node000008" class="edge">
<title>Node19&#45;&gt;Node8</title>
<g id="a_edge22_Node000019_Node000008"><a xlink:title=" ">
<path fill="none" stroke="#63b8ff" d="M1115.03,-513.95C1138.39,-502.64 1166.51,-489.04 1187.41,-478.93"/>
<polygon fill="#63b8ff" stroke="#63b8ff" points="1188.57,-481.77 1196.04,-474.27 1185.52,-475.47 1188.57,-481.77"/>
</a>
</g>
</g>
<!-- Node20&#45;&gt;Node16 -->
<g id="edge25_Node000020_Node000016" class="edge">
<title>Node20&#45;&gt;Node16</title>
<g id="a_edge25_Node000020_Node000016"><a xlink:title=" ">
<path fill="none" stroke="#63b8ff" d="M601.28,-207.05C620.56,-207.69 642.46,-208.42 662.56,-209.09"/>
<polygon fill="#63b8ff" stroke="#63b8ff" points="662.4,-212.62 672.51,-209.45 662.63,-205.62 662.4,-212.62"/>
</a>
</g>
</g>
<!-- Node20&#45;&gt;Node20 -->
<g id="edge26_Node000020_Node000020" class="edge">
<title>Node20&#45;&gt;Node20</title>
<g id="a_edge26_Node000020_Node000020"><a xlink:title=" ">
<path fill="none" stroke="#63b8ff" d="M514.78,-220.99C508.39,-230.06 518.83,-238.5 546.12,-238.5 561.48,-238.5 571.5,-235.83 576.19,-231.88"/>
<polygon fill="#63b8ff" stroke="#63b8ff" points="579.78,-232.33 577.47,-221.99 572.83,-231.51 579.78,-232.33"/>
</a>
</g>
</g>
<!-- Node21&#45;&gt;Node17 -->
<g id="edge28_Node000021_Node000017" class="edge">
<title>Node21&#45;&gt;Node17</title>
<g id="a_edge28_Node000021_Node000017"><a xlink:title=" ">
<path fill="none" stroke="#63b8ff" d="M798.35,-172.2C807.71,-173.56 817.35,-174.95 826.82,-176.33"/>
<polygon fill="#63b8ff" stroke="#63b8ff" points="826.02,-179.89 836.41,-177.86 827.02,-172.96 826.02,-179.89"/>
</a>
</g>
</g>
<!-- Node22&#45;&gt;Node12 -->
<g id="edge31_Node000022_Node000012" class="edge">
<title>Node22&#45;&gt;Node12</title>
<g id="a_edge31_Node000022_Node000012"><a xlink:title=" ">
<path fill="none" stroke="#63b8ff" d="M786.15,-342.97C801.88,-347.34 819.11,-352.13 835.37,-356.65"/>
<polygon fill="#63b8ff" stroke="#63b8ff" points="834.32,-360.27 844.89,-359.58 836.2,-353.53 834.32,-360.27"/>
</a>
</g>
</g>
<!-- Node22&#45;&gt;Node13 -->
<g id="edge30_Node000022_Node000013" class="edge">
<title>Node22&#45;&gt;Node13</title>
<g id="a_edge30_Node000022_Node000013"><a xlink:title=" ">
<path fill="none" stroke="#63b8ff" d="M800.33,-331.68C848.52,-335.34 913.64,-341.54 970.5,-351.25 978.67,-352.65 987.17,-354.34 995.61,-356.18"/>
<polygon fill="#63b8ff" stroke="#63b8ff" points="994.69,-359.78 1005.22,-358.57 996.23,-352.96 994.69,-359.78"/>
</a>
</g>
</g>
<!-- Node23&#45;&gt;Node23 -->
<g id="edge34_Node000023_Node000023" class="edge">
<title>Node23&#45;&gt;Node23</title>
<g id="a_edge34_Node000023_Node000023"><a xlink:title=" ">
<path fill="none" stroke="#63b8ff" d="M340.96,-128.99C335.19,-138.06 344.62,-146.5 369.25,-146.5 383.1,-146.5 392.15,-143.83 396.38,-139.88"/>
<polygon fill="#63b8ff" stroke="#63b8ff" points="399.96,-140.3 397.54,-129.99 393,-139.56 399.96,-140.3"/>
</a>
</g>
</g>
<!-- Node24 -->
<g id="Node000024" class="node">
<title>Node24</title>
<g id="a_Node000024"><a xlink:href="../../d6/d61/class_slic3r_1_1_g_l_shader_program.html#a2588fce7568146b7279b39d0d2dcfe11" target="_top" xlink:title=" ">
<polygon fill="white" stroke="#666666" points="609.62,-128.5 482.62,-128.5 482.62,-98 609.62,-98 609.62,-128.5"/>
<text text-anchor="start" x="490.62" y="-115" font-family="Helvetica,sans-Serif" font-size="10.00">Slic3r::GLShaderProgram</text>
<text text-anchor="middle" x="546.12" y="-103.75" font-family="Helvetica,sans-Serif" font-size="10.00">::get_uniform_location</text>
</a>
</g>
</g>
<!-- Node23&#45;&gt;Node24 -->
<g id="edge33_Node000023_Node000024" class="edge">
<title>Node23&#45;&gt;Node24</title>
<g id="a_edge33_Node000023_Node000024"><a xlink:title=" ">
<path fill="none" stroke="#63b8ff" d="M432.89,-113.25C445.45,-113.25 458.75,-113.25 471.63,-113.25"/>
<polygon fill="#63b8ff" stroke="#63b8ff" points="471.33,-116.75 481.33,-113.25 471.33,-109.75 471.33,-116.75"/>
</a>
</g>
</g>
</g>
</svg>
