<?xml version="1.0" encoding="UTF-8" standalone="no"?>
<!DOCTYPE svg PUBLIC "-//W3C//DTD SVG 1.1//EN"
 "http://www.w3.org/Graphics/SVG/1.1/DTD/svg11.dtd">
<!-- Generated by graphviz version 8.0.5 (20230430.1635)
 -->
<!-- Title: Slic3r::Arachne::PolylineStitcher::stitch Pages: 1 -->
<svg width="453pt" height="309pt"
 viewBox="0.00 0.00 452.75 308.50" xmlns="http://www.w3.org/2000/svg" xmlns:xlink="http://www.w3.org/1999/xlink">
<g id="graph0" class="graph" transform="scale(1 1) rotate(0) translate(4 304.5)">
<title>Slic3r::Arachne::PolylineStitcher::stitch</title>
<!-- Node1 -->
<g id="Node000001" class="node">
<title>Node1</title>
<g id="a_Node000001"><a xlink:title=" ">
<polygon fill="#999999" stroke="#666666" points="123.25,-165.5 0,-165.5 0,-135 123.25,-135 123.25,-165.5"/>
<text text-anchor="start" x="8" y="-152" font-family="Helvetica,sans-Serif" font-size="10.00">Slic3r::Arachne::Polyline</text>
<text text-anchor="middle" x="61.62" y="-140.75" font-family="Helvetica,sans-Serif" font-size="10.00">Stitcher::stitch</text>
</a>
</g>
</g>
<!-- Node2 -->
<g id="Node000002" class="node">
<title>Node2</title>
<g id="a_Node000002"><a xlink:href="../../da/d8e/class_slic3r_1_1_arachne_1_1_polyline_stitcher.html#a83e82c7ae6dca6e06ef80147fd506ad0" target="_top" xlink:title=" ">
<polygon fill="white" stroke="#666666" points="289.25,-300.5 166,-300.5 166,-270 289.25,-270 289.25,-300.5"/>
<text text-anchor="start" x="174" y="-287" font-family="Helvetica,sans-Serif" font-size="10.00">Slic3r::Arachne::Polyline</text>
<text text-anchor="middle" x="227.62" y="-275.75" font-family="Helvetica,sans-Serif" font-size="10.00">Stitcher::canConnect</text>
</a>
</g>
</g>
<!-- Node1&#45;&gt;Node2 -->
<g id="edge1_Node000001_Node000002" class="edge">
<title>Node1&#45;&gt;Node2</title>
<g id="a_edge1_Node000001_Node000002"><a xlink:title=" ">
<path fill="none" stroke="#63b8ff" d="M72.62,-165.94C88.38,-189.49 121.14,-234.03 159.25,-260.25 161.5,-261.8 163.85,-263.26 166.28,-264.65"/>
<polygon fill="#63b8ff" stroke="#63b8ff" points="164.45,-268.15 174.94,-269.61 167.64,-261.93 164.45,-268.15"/>
</a>
</g>
</g>
<!-- Node3 -->
<g id="Node000003" class="node">
<title>Node3</title>
<g id="a_Node000003"><a xlink:href="../../da/d8e/class_slic3r_1_1_arachne_1_1_polyline_stitcher.html#a25002cffa45ae412ab0536ee26d311a9" target="_top" xlink:title=" ">
<polygon fill="white" stroke="#666666" points="289.25,-251.5 166,-251.5 166,-221 289.25,-221 289.25,-251.5"/>
<text text-anchor="start" x="174" y="-238" font-family="Helvetica,sans-Serif" font-size="10.00">Slic3r::Arachne::Polyline</text>
<text text-anchor="middle" x="227.62" y="-226.75" font-family="Helvetica,sans-Serif" font-size="10.00">Stitcher::canReverse</text>
</a>
</g>
</g>
<!-- Node1&#45;&gt;Node3 -->
<g id="edge2_Node000001_Node000003" class="edge">
<title>Node1&#45;&gt;Node3</title>
<g id="a_edge2_Node000001_Node000003"><a xlink:title=" ">
<path fill="none" stroke="#63b8ff" d="M83.67,-165.76C102.71,-179.29 131.88,-198.81 159.25,-212.25 162.17,-213.68 165.19,-215.07 168.27,-216.41"/>
<polygon fill="#63b8ff" stroke="#63b8ff" points="166.64,-219.94 177.22,-220.52 169.31,-213.47 166.64,-219.94"/>
</a>
</g>
</g>
<!-- Node4 -->
<g id="Node000004" class="node">
<title>Node4</title>
<g id="a_Node000004"><a xlink:href="../../de/db8/namespace_slic3r.html#a7fbf8086aa6866b37be593872e09e169" target="_top" xlink:title="A set of equidistant values starting from &#39;start&#39; (inclusive), ending in the closest multiple of &#39;str...">
<polygon fill="white" stroke="#666666" points="258.88,-202.88 196.38,-202.88 196.38,-183.62 258.88,-183.62 258.88,-202.88"/>
<text text-anchor="middle" x="227.62" y="-189.38" font-family="Helvetica,sans-Serif" font-size="10.00">Slic3r::grid</text>
</a>
</g>
</g>
<!-- Node1&#45;&gt;Node4 -->
<g id="edge3_Node000001_Node000004" class="edge">
<title>Node1&#45;&gt;Node4</title>
<g id="a_edge3_Node000001_Node000004"><a xlink:title=" ">
<path fill="none" stroke="#63b8ff" d="M122.3,-165.9C143.37,-171.42 166.58,-177.51 185.74,-182.53"/>
<polygon fill="#63b8ff" stroke="#63b8ff" points="184.66,-186.13 195.22,-185.28 186.44,-179.36 184.66,-186.13"/>
</a>
</g>
</g>
<!-- Node5 -->
<g id="Node000005" class="node">
<title>Node5</title>
<g id="a_Node000005"><a xlink:href="../../d9/d05/class_slic3r_1_1_arachne_1_1_paths_point_index.html#a1cf9425f27bcdd6a4c4a887a23d53b5e" target="_top" xlink:title="Returns whether this point is initialised.">
<polygon fill="white" stroke="#666666" points="296,-165.5 159.25,-165.5 159.25,-135 296,-135 296,-165.5"/>
<text text-anchor="start" x="167.25" y="-152" font-family="Helvetica,sans-Serif" font-size="10.00">Slic3r::Arachne::PathsPoint</text>
<text text-anchor="middle" x="227.62" y="-140.75" font-family="Helvetica,sans-Serif" font-size="10.00">Index::initialized</text>
</a>
</g>
</g>
<!-- Node1&#45;&gt;Node5 -->
<g id="edge4_Node000001_Node000005" class="edge">
<title>Node1&#45;&gt;Node5</title>
<g id="a_edge4_Node000001_Node000005"><a xlink:title=" ">
<path fill="none" stroke="#63b8ff" d="M123.69,-150.25C131.67,-150.25 139.93,-150.25 148.15,-150.25"/>
<polygon fill="#63b8ff" stroke="#63b8ff" points="147.89,-153.75 157.89,-150.25 147.89,-146.75 147.89,-153.75"/>
</a>
</g>
</g>
<!-- Node6 -->
<g id="Node000006" class="node">
<title>Node6</title>
<g id="a_Node000006"><a xlink:href="../../da/d8e/class_slic3r_1_1_arachne_1_1_polyline_stitcher.html#a6d594e314882980e3e877aa956462d37" target="_top" xlink:title=" ">
<polygon fill="white" stroke="#666666" points="289.25,-116.5 166,-116.5 166,-86 289.25,-86 289.25,-116.5"/>
<text text-anchor="start" x="174" y="-103" font-family="Helvetica,sans-Serif" font-size="10.00">Slic3r::Arachne::Polyline</text>
<text text-anchor="middle" x="227.62" y="-91.75" font-family="Helvetica,sans-Serif" font-size="10.00">Stitcher::isOdd</text>
</a>
</g>
</g>
<!-- Node1&#45;&gt;Node6 -->
<g id="edge5_Node000001_Node000006" class="edge">
<title>Node1&#45;&gt;Node6</title>
<g id="a_edge5_Node000001_Node000006"><a xlink:title=" ">
<path fill="none" stroke="#63b8ff" d="M114.97,-134.61C130.42,-129.99 147.5,-124.89 163.56,-120.09"/>
<polygon fill="#63b8ff" stroke="#63b8ff" points="164.36,-123.21 172.94,-116.99 162.35,-116.5 164.36,-123.21"/>
</a>
</g>
</g>
<!-- Node7 -->
<g id="Node000007" class="node">
<title>Node7</title>
<g id="a_Node000007"><a xlink:href="../../dc/da5/namespace_slic3r_1_1_arachne.html#a4770f2f1a62d10eb79c1ba46426c3a58" target="_top" xlink:title=" ">
<polygon fill="white" stroke="#666666" points="444.75,-51.5 332,-51.5 332,-21 444.75,-21 444.75,-51.5"/>
<text text-anchor="start" x="340" y="-38" font-family="Helvetica,sans-Serif" font-size="10.00">Slic3r::Arachne::make</text>
<text text-anchor="middle" x="388.38" y="-26.75" font-family="Helvetica,sans-Serif" font-size="10.00">_point</text>
</a>
</g>
</g>
<!-- Node1&#45;&gt;Node7 -->
<g id="edge6_Node000001_Node000007" class="edge">
<title>Node1&#45;&gt;Node7</title>
<g id="a_edge6_Node000001_Node000007"><a xlink:title=" ">
<path fill="none" stroke="#63b8ff" d="M78.2,-134.71C96.14,-117.78 127.28,-91.24 159.25,-77.25 210.79,-54.7 274.06,-44.55 320.89,-39.99"/>
<polygon fill="#63b8ff" stroke="#63b8ff" points="321.18,-43.38 330.82,-38.99 320.54,-36.41 321.18,-43.38"/>
</a>
</g>
</g>
<!-- Node8 -->
<g id="Node000008" class="node">
<title>Node8</title>
<g id="a_Node000008"><a xlink:href="../../d9/d05/class_slic3r_1_1_arachne_1_1_paths_point_index.html#a965af5dd869c7fd731096bfa9b9c30bc" target="_top" xlink:title=" ">
<polygon fill="white" stroke="#666666" points="296,-30.5 159.25,-30.5 159.25,0 296,0 296,-30.5"/>
<text text-anchor="start" x="167.25" y="-17" font-family="Helvetica,sans-Serif" font-size="10.00">Slic3r::Arachne::PathsPoint</text>
<text text-anchor="middle" x="227.62" y="-5.75" font-family="Helvetica,sans-Serif" font-size="10.00">Index::p</text>
</a>
</g>
</g>
<!-- Node1&#45;&gt;Node8 -->
<g id="edge7_Node000001_Node000008" class="edge">
<title>Node1&#45;&gt;Node8</title>
<g id="a_edge7_Node000001_Node000008"><a xlink:title=" ">
<path fill="none" stroke="#63b8ff" d="M73.46,-134.65C89.81,-112.1 122.75,-70.26 159.25,-44.25 163.61,-41.14 168.36,-38.27 173.24,-35.65"/>
<polygon fill="#63b8ff" stroke="#63b8ff" points="174.37,-38.5 181.75,-30.9 171.24,-32.24 174.37,-38.5"/>
</a>
</g>
</g>
<!-- Node8&#45;&gt;Node7 -->
<g id="edge8_Node000008_Node000007" class="edge">
<title>Node8&#45;&gt;Node7</title>
<g id="a_edge8_Node000008_Node000007"><a xlink:title=" ">
<path fill="none" stroke="#63b8ff" d="M296.41,-24.22C304.52,-25.29 312.8,-26.38 320.89,-27.46"/>
<polygon fill="#63b8ff" stroke="#63b8ff" points="320.41,-31.05 330.78,-28.9 321.32,-24.11 320.41,-31.05"/>
</a>
</g>
</g>
</g>
</svg>
