<?xml version="1.0" encoding="UTF-8" standalone="no"?>
<!DOCTYPE svg PUBLIC "-//W3C//DTD SVG 1.1//EN"
 "http://www.w3.org/Graphics/SVG/1.1/DTD/svg11.dtd">
<!-- Generated by graphviz version 8.0.5 (20230430.1635)
 -->
<!-- Title: Slic3r::GUI::Emboss::SurfaceVolumeData Pages: 1 -->
<!--zoomable 213 -->

<svg id="main" version="1.1" xmlns="http://www.w3.org/2000/svg" xmlns:xlink="http://www.w3.org/1999/xlink" xml:space="preserve" onload="init(evt)">
<style type="text/css"><![CDATA[
.node, .edge {opacity: 0.7;}
.node.selected, .edge.selected {opacity: 1;}
.edge:hover path { stroke: red; }
.edge:hover polygon { stroke: red; fill: red; }
]]></style>

<defs>
  <circle id="rim" cx="0" cy="0" r="7"/>
  <circle id="rim2" cx="0" cy="0" r="3.5"/>
  <g id="zoomPlus">
    <use xlink:href="#rim" fill="#404040"><set attributeName="fill" to="#808080" begin="zoomplus.mouseover" end="zoomplus.mouseout"/></use>
    <path d="M-4,0h8M0,-4v8" fill="none" stroke="white" stroke-width="1.5" pointer-events="none"/>
  </g>
  <g id="zoomMin">
    <use xlink:href="#rim" fill="#404040"><set attributeName="fill" to="#808080" begin="zoomminus.mouseover" end="zoomminus.mouseout"/></use>
    <path d="M-4,0h8" fill="none" stroke="white" stroke-width="1.5" pointer-events="none"/>
  </g>
  <g id="arrowUp" transform="translate(30 24)">
    <use xlink:href="#rim"/>
    <path pointer-events="none" fill="none" stroke="white" stroke-width="1.5" d="M0,-3.0v7 M-2.5,-0.5L0,-3.0L2.5,-0.5"/>
  </g>
  <g id="arrowRight" transform="rotate(90) translate(36 -43)">
    <use xlink:href="#rim"/>
    <path pointer-events="none" fill="none" stroke="white" stroke-width="1.5" d="M0,-3.0v7 M-2.5,-0.5L0,-3.0L2.5,-0.5"/>
  </g>
  <g id="arrowDown" transform="rotate(180) translate(-30 -48)">
    <use xlink:href="#rim"/>
    <path pointer-events="none" fill="none" stroke="white" stroke-width="1.5" d="M0,-3.0v7 M-2.5,-0.5L0,-3.0L2.5,-0.5"/>
  </g>
  <g id="arrowLeft" transform="rotate(270) translate(-36 17)">
    <use xlink:href="#rim"/>
    <path pointer-events="none" fill="none" stroke="white" stroke-width="1.5" d="M0,-3.0v7 M-2.5,-0.5L0,-3.0L2.5,-0.5"/>
  </g>
  <g id="resetDef">
    <use xlink:href="#rim2" fill="#404040"><set attributeName="fill" to="#808080" begin="reset.mouseover" end="reset.mouseout"/></use>
  </g>
</defs>
<script type="application/ecmascript">
var viewWidth = 1586;
var viewHeight = 213;
var sectionId = 'dynsection-1';
</script>
<script type="application/ecmascript" xlink:href="../../svg.min.js"/>
<svg id="graph" class="graph">
<g id="viewport">
<title>Slic3r::GUI::Emboss::SurfaceVolumeData</title>
<!-- Node1 -->
<g id="Node000001" class="node">
<title>Node1</title>
<g id="a_Node000001"><a xlink:title=" ">
<polygon fill="#999999" stroke="#666666" points="1577.5,-125.88 1467.75,-125.88 1467.75,-95.38 1577.5,-95.38 1577.5,-125.88"/>
<text text-anchor="start" x="1475.75" y="-112.38" font-family="Helvetica,sans-Serif" font-size="10.00">Slic3r::GUI::Emboss</text>
<text text-anchor="middle" x="1522.62" y="-101.12" font-family="Helvetica,sans-Serif" font-size="10.00">::SurfaceVolumeData</text>
</a>
</g>
</g>
<!-- Node2 -->
<g id="Node000002" class="node">
<title>Node2</title>
<g id="a_Node000002"><a xlink:href="../../d5/d00/group___geometry___module.html" target="_top" xlink:title=" ">
<polygon fill="white" stroke="#666666" points="954.25,-155.5 822.75,-155.5 822.75,-113.75 954.25,-113.75 954.25,-155.5"/>
<text text-anchor="start" x="830.75" y="-142" font-family="Helvetica,sans-Serif" font-size="10.00">Eigen::Transform&lt; double,</text>
<text text-anchor="start" x="830.75" y="-130.75" font-family="Helvetica,sans-Serif" font-size="10.00"> 3, Eigen::Affine, Eigen</text>
<text text-anchor="middle" x="888.5" y="-119.5" font-family="Helvetica,sans-Serif" font-size="10.00">::DontAlign &gt;</text>
</a>
</g>
</g>
<!-- Node2&#45;&gt;Node1 -->
<g id="edge1_Node000001_Node000002" class="edge">
<title>Node2&#45;&gt;Node1</title>
<g id="a_edge1_Node000001_Node000002"><a xlink:title=" ">
<path fill="none" stroke="#9a32cd" stroke-dasharray="5,2" d="M965.42,-132.91C1073.17,-130.27 1276.62,-124.58 1449.75,-115.62 1455.5,-115.33 1461.5,-114.98 1467.48,-114.6"/>
<polygon fill="#9a32cd" stroke="#9a32cd" points="965.57,-129.43 955.66,-133.17 965.74,-136.42 965.57,-129.43"/>
</a>
</g>
<text text-anchor="middle" x="1217.38" y="-128.38" font-family="Helvetica,sans-Serif" font-size="10.00" fill="grey"> text_tr</text>
</g>
<!-- Node7 -->
<g id="Node000007" class="node">
<title>Node7</title>
<g id="a_Node000007"><a xlink:href="../../d2/d92/struct_slic3r_1_1_g_u_i_1_1_emboss_1_1_surface_volume_data.html#d4/da5/struct_slic3r_1_1_g_u_i_1_1_emboss_1_1_surface_volume_data_1_1_model_source" target="_top" xlink:title=" ">
<polygon fill="white" stroke="#666666" points="1178,-104.5 1068.25,-104.5 1068.25,-62.75 1178,-62.75 1178,-104.5"/>
<text text-anchor="start" x="1076.25" y="-91" font-family="Helvetica,sans-Serif" font-size="10.00">Slic3r::GUI::Emboss</text>
<text text-anchor="start" x="1076.25" y="-79.75" font-family="Helvetica,sans-Serif" font-size="10.00">::SurfaceVolumeData</text>
<text text-anchor="middle" x="1123.12" y="-68.5" font-family="Helvetica,sans-Serif" font-size="10.00">::ModelSource</text>
</a>
</g>
</g>
<!-- Node2&#45;&gt;Node7 -->
<g id="edge14_Node000007_Node000002" class="edge">
<title>Node2&#45;&gt;Node7</title>
<g id="a_edge14_Node000007_Node000002"><a xlink:title=" ">
<path fill="none" stroke="#9a32cd" stroke-dasharray="5,2" d="M964.76,-111.22C967.28,-110.58 969.78,-109.96 972.25,-109.38 1003.72,-101.9 1039.39,-95.69 1068.03,-91.23"/>
<polygon fill="#9a32cd" stroke="#9a32cd" points="964.1,-108.04 955.34,-114 965.9,-114.81 964.1,-108.04"/>
</a>
</g>
<text text-anchor="middle" x="1011.25" y="-111.38" font-family="Helvetica,sans-Serif" font-size="10.00" fill="grey"> tr</text>
</g>
<!-- Node3 -->
<g id="Node000003" class="node">
<title>Node3</title>
<g id="a_Node000003"><a xlink:href="../../d4/d08/class_eigen_1_1internal_1_1make__proper__matrix__type.html" target="_top" xlink:title=" ">
<polygon fill="white" stroke="#666666" points="471.5,-199.5 313.75,-199.5 313.75,-157.75 471.5,-157.75 471.5,-199.5"/>
<text text-anchor="start" x="321.75" y="-186" font-family="Helvetica,sans-Serif" font-size="10.00">Eigen::internal::make</text>
<text text-anchor="start" x="321.75" y="-174.75" font-family="Helvetica,sans-Serif" font-size="10.00">_proper_matrix_type&lt;</text>
<text text-anchor="middle" x="392.62" y="-163.5" font-family="Helvetica,sans-Serif" font-size="10.00"> Scalar, Rows, HDim, Options &gt;</text>
</a>
</g>
</g>
<!-- Node3&#45;&gt;Node2 -->
<g id="edge2_Node000002_Node000003" class="edge">
<title>Node3&#45;&gt;Node2</title>
<g id="a_edge2_Node000002_Node000003"><a xlink:title=" ">
<path fill="none" stroke="#9a32cd" stroke-dasharray="5,2" d="M482.74,-181.92C566.54,-183.38 695.14,-181.39 804.75,-161.62 812.63,-160.2 820.8,-158.21 828.79,-155.95"/>
<polygon fill="#9a32cd" stroke="#9a32cd" points="483.06,-178.41 472.99,-181.71 482.92,-185.41 483.06,-178.41"/>
</a>
</g>
<text text-anchor="middle" x="608.88" y="-183.38" font-family="Helvetica,sans-Serif" font-size="10.00" fill="grey"> m_matrix</text>
</g>
<!-- Node5 -->
<g id="Node000005" class="node">
<title>Node5</title>
<g id="a_Node000005"><a xlink:href="../../d5/d00/group___geometry___module.html#d2/d88/class_eigen_1_1_transform" target="_top" xlink:title="Represents an homogeneous transformation in a N dimensional space.">
<polygon fill="white" stroke="#666666" points="666.75,-155.5 551,-155.5 551,-113.75 666.75,-113.75 666.75,-155.5"/>
<text text-anchor="start" x="559" y="-142" font-family="Helvetica,sans-Serif" font-size="10.00">Eigen::Transform&lt; </text>
<text text-anchor="start" x="559" y="-130.75" font-family="Helvetica,sans-Serif" font-size="10.00">_Scalar, _Dim, _Mode,</text>
<text text-anchor="middle" x="608.88" y="-119.5" font-family="Helvetica,sans-Serif" font-size="10.00"> _Options &gt;</text>
</a>
</g>
</g>
<!-- Node3&#45;&gt;Node5 -->
<g id="edge5_Node000005_Node000003" class="edge">
<title>Node3&#45;&gt;Node5</title>
<g id="a_edge5_Node000005_Node000003"><a xlink:title=" ">
<path fill="none" stroke="#9a32cd" stroke-dasharray="5,2" d="M482.38,-160.4C505.44,-155.66 529.67,-150.68 550.63,-146.38"/>
<polygon fill="#9a32cd" stroke="#9a32cd" points="481.98,-157.11 472.88,-162.55 483.38,-163.97 481.98,-157.11"/>
</a>
</g>
<text text-anchor="middle" x="511.25" y="-159.38" font-family="Helvetica,sans-Serif" font-size="10.00" fill="grey"> m_matrix</text>
</g>
<!-- Node4 -->
<g id="Node000004" class="node">
<title>Node4</title>
<g id="a_Node000004"><a xlink:href="../../d4/d08/class_eigen_1_1internal_1_1make__proper__matrix__type.html" target="_top" xlink:title=" ">
<polygon fill="white" stroke="#666666" points="172.75,-205.12 0,-205.12 0,-152.12 172.75,-152.12 172.75,-205.12"/>
<text text-anchor="start" x="8" y="-191.62" font-family="Helvetica,sans-Serif" font-size="10.00">Eigen::internal::make</text>
<text text-anchor="start" x="8" y="-180.38" font-family="Helvetica,sans-Serif" font-size="10.00">_proper_matrix_type&lt;</text>
<text text-anchor="start" x="8" y="-169.12" font-family="Helvetica,sans-Serif" font-size="10.00"> _Scalar, _Rows, _Cols,</text>
<text text-anchor="middle" x="86.38" y="-157.88" font-family="Helvetica,sans-Serif" font-size="10.00"> _Options, _MaxRows, _MaxCols &gt;</text>
</a>
</g>
</g>
<!-- Node4&#45;&gt;Node3 -->
<g id="edge3_Node000003_Node000004" class="edge">
<title>Node4&#45;&gt;Node3</title>
<g id="a_edge3_Node000003_Node000004"><a xlink:title=" ">
<path fill="none" stroke="orange" stroke-dasharray="5,2" d="M183.7,-178.62C225.54,-178.62 273.91,-178.62 313.47,-178.62"/>
<polygon fill="orange" stroke="orange" points="183.94,-175.13 173.94,-178.62 183.94,-182.13 183.94,-175.13"/>
</a>
</g>
<text text-anchor="start" x="190.75" y="-191.62" font-family="Helvetica,sans-Serif" font-size="10.00" fill="grey"> &lt; Scalar, Rows, HDim,</text>
<text text-anchor="middle" x="243.25" y="-180.38" font-family="Helvetica,sans-Serif" font-size="10.00" fill="grey"> Options &gt;</text>
</g>
<!-- Node5&#45;&gt;Node2 -->
<g id="edge4_Node000002_Node000005" class="edge">
<title>Node5&#45;&gt;Node2</title>
<g id="a_edge4_Node000002_Node000005"><a xlink:title=" ">
<path fill="none" stroke="orange" stroke-dasharray="5,2" d="M677.98,-134.62C722.07,-134.62 779.16,-134.62 822.61,-134.62"/>
<polygon fill="orange" stroke="orange" points="678.06,-131.13 668.06,-134.62 678.06,-138.13 678.06,-131.13"/>
</a>
</g>
<text text-anchor="start" x="684.75" y="-147.62" font-family="Helvetica,sans-Serif" font-size="10.00" fill="grey"> &lt; double, 3, Eigen</text>
<text text-anchor="middle" x="744.75" y="-136.38" font-family="Helvetica,sans-Serif" font-size="10.00" fill="grey">::Affine, Eigen::DontAlign &gt;</text>
</g>
<!-- Node6 -->
<g id="Node000006" class="node">
<title>Node6</title>
<g id="a_Node000006"><a xlink:title=" ">
<polygon fill="white" stroke="#666666" points="1394.25,-93.25 1256.75,-93.25 1256.75,-74 1394.25,-74 1394.25,-93.25"/>
<text text-anchor="middle" x="1325.5" y="-79.75" font-family="Helvetica,sans-Serif" font-size="10.00">std::vector&lt; ModelSource &gt;</text>
</a>
</g>
</g>
<!-- Node6&#45;&gt;Node1 -->
<g id="edge6_Node000001_Node000006" class="edge">
<title>Node6&#45;&gt;Node1</title>
<g id="a_edge6_Node000001_Node000006"><a xlink:title=" ">
<path fill="none" stroke="#9a32cd" stroke-dasharray="5,2" d="M1405.51,-94.56C1426.35,-97.44 1448.36,-100.49 1467.55,-103.14"/>
<polygon fill="#9a32cd" stroke="#9a32cd" points="1406.13,-90.97 1395.75,-93.07 1405.17,-97.91 1406.13,-90.97"/>
</a>
</g>
<text text-anchor="middle" x="1431" y="-102.38" font-family="Helvetica,sans-Serif" font-size="10.00" fill="grey"> sources</text>
</g>
<!-- Node7&#45;&gt;Node6 -->
<g id="edge7_Node000006_Node000007" class="edge">
<title>Node7&#45;&gt;Node6</title>
<g id="a_edge7_Node000006_Node000007"><a xlink:title=" ">
<path fill="none" stroke="#9a32cd" stroke-dasharray="5,2" d="M1189.06,-83.62C1210.67,-83.62 1234.79,-83.62 1256.61,-83.62"/>
<polygon fill="#9a32cd" stroke="#9a32cd" points="1189.35,-80.13 1179.35,-83.62 1189.35,-87.13 1189.35,-80.13"/>
</a>
</g>
<text text-anchor="middle" x="1217.38" y="-85.38" font-family="Helvetica,sans-Serif" font-size="10.00" fill="grey"> elements</text>
</g>
<!-- Node8 -->
<g id="Node000008" class="node">
<title>Node8</title>
<g id="a_Node000008"><a xlink:title=" ">
<polygon fill="white" stroke="#666666" points="947.12,-89.88 829.88,-89.88 829.88,-59.38 947.12,-59.38 947.12,-89.88"/>
<text text-anchor="start" x="837.88" y="-76.38" font-family="Helvetica,sans-Serif" font-size="10.00">std::shared_ptr&lt; const</text>
<text text-anchor="middle" x="888.5" y="-65.12" font-family="Helvetica,sans-Serif" font-size="10.00"> Slic3r::TriangleMesh &gt;</text>
</a>
</g>
</g>
<!-- Node8&#45;&gt;Node7 -->
<g id="edge8_Node000007_Node000008" class="edge">
<title>Node8&#45;&gt;Node7</title>
<g id="a_edge8_Node000007_Node000008"><a xlink:title=" ">
<path fill="none" stroke="#9a32cd" stroke-dasharray="5,2" d="M958.25,-73.29C986.74,-73.17 1020.11,-73.58 1050.25,-75.38 1056.02,-75.72 1062.03,-76.2 1068.02,-76.77"/>
<polygon fill="#9a32cd" stroke="#9a32cd" points="958.56,-69.8 948.59,-73.36 958.61,-76.8 958.56,-69.8"/>
</a>
</g>
<text text-anchor="middle" x="1011.25" y="-77.38" font-family="Helvetica,sans-Serif" font-size="10.00" fill="grey"> mesh</text>
</g>
<!-- Node9 -->
<g id="Node000009" class="node">
<title>Node9</title>
<g id="a_Node000009"><a xlink:href="../../d8/d71/class_slic3r_1_1_triangle_mesh.html" target="_top" xlink:title=" ">
<polygon fill="white" stroke="#666666" points="661.5,-95.25 556.25,-95.25 556.25,-76 661.5,-76 661.5,-95.25"/>
<text text-anchor="middle" x="608.88" y="-81.75" font-family="Helvetica,sans-Serif" font-size="10.00">Slic3r::TriangleMesh</text>
</a>
</g>
</g>
<!-- Node9&#45;&gt;Node8 -->
<g id="edge9_Node000008_Node000009" class="edge">
<title>Node9&#45;&gt;Node8</title>
<g id="a_edge9_Node000008_Node000009"><a xlink:title=" ">
<path fill="none" stroke="#9a32cd" stroke-dasharray="5,2" d="M672.75,-83.13C719.85,-81.27 783.79,-78.73 829.63,-76.92"/>
<polygon fill="#9a32cd" stroke="#9a32cd" points="672.62,-79.68 662.77,-83.57 672.9,-86.67 672.62,-79.68"/>
</a>
</g>
<text text-anchor="middle" x="744.75" y="-84.38" font-family="Helvetica,sans-Serif" font-size="10.00" fill="grey"> ptr</text>
</g>
<!-- Node10 -->
<g id="Node000010" class="node">
<title>Node10</title>
<g id="a_Node000010"><a xlink:href="../../d0/df2/structindexed__triangle__set.html" target="_top" xlink:title=" ">
<polygon fill="#fff0f0" stroke="red" points="445.25,-125.25 340,-125.25 340,-106 445.25,-106 445.25,-125.25"/>
<text text-anchor="middle" x="392.62" y="-111.75" font-family="Helvetica,sans-Serif" font-size="10.00">indexed_triangle_set</text>
</a>
</g>
</g>
<!-- Node10&#45;&gt;Node9 -->
<g id="edge10_Node000009_Node000010" class="edge">
<title>Node10&#45;&gt;Node9</title>
<g id="a_edge10_Node000009_Node000010"><a xlink:title=" ">
<path fill="none" stroke="#9a32cd" stroke-dasharray="5,2" d="M456,-106.89C487.79,-102.44 525.98,-97.09 556.12,-92.87"/>
<polygon fill="#9a32cd" stroke="#9a32cd" points="455.91,-103.51 446.49,-108.36 456.88,-110.44 455.91,-103.51"/>
</a>
</g>
<text text-anchor="middle" x="511.25" y="-103.38" font-family="Helvetica,sans-Serif" font-size="10.00" fill="grey"> its</text>
</g>
<!-- Node24 -->
<g id="Node000024" class="node">
<title>Node24</title>
<g id="a_Node000024"><a xlink:href="../../d2/da4/struct_slic3r_1_1_triangle_mesh_stats.html" target="_top" xlink:title=" ">
<polygon fill="#fff0f0" stroke="red" points="456.88,-88.25 328.38,-88.25 328.38,-69 456.88,-69 456.88,-88.25"/>
<text text-anchor="middle" x="392.62" y="-74.75" font-family="Helvetica,sans-Serif" font-size="10.00">Slic3r::TriangleMeshStats</text>
</a>
</g>
</g>
<!-- Node24&#45;&gt;Node9 -->
<g id="edge11_Node000009_Node000024" class="edge">
<title>Node24&#45;&gt;Node9</title>
<g id="a_edge11_Node000009_Node000024"><a xlink:title=" ">
<path fill="none" stroke="#9a32cd" stroke-dasharray="5,2" d="M467.93,-80.4C488.97,-80.96 511.88,-81.63 533,-82.38 540.41,-82.64 548.24,-82.94 555.92,-83.26"/>
<polygon fill="#9a32cd" stroke="#9a32cd" points="468.21,-76.88 458.12,-80.11 468.02,-83.87 468.21,-76.88"/>
</a>
</g>
<text text-anchor="middle" x="511.25" y="-84.38" font-family="Helvetica,sans-Serif" font-size="10.00" fill="grey"> m_stats</text>
</g>
<!-- Node28 -->
<g id="Node000028" class="node">
<title>Node28</title>
<g id="a_Node000028"><a xlink:title=" ">
<polygon fill="white" stroke="#666666" points="661.5,-55.25 556.25,-55.25 556.25,-36 661.5,-36 661.5,-55.25"/>
<text text-anchor="middle" x="608.88" y="-41.75" font-family="Helvetica,sans-Serif" font-size="10.00">std::shared_ptr&lt; T &gt;</text>
</a>
</g>
</g>
<!-- Node28&#45;&gt;Node8 -->
<g id="edge12_Node000008_Node000028" class="edge">
<title>Node28&#45;&gt;Node8</title>
<g id="a_edge12_Node000008_Node000028"><a xlink:title=" ">
<path fill="none" stroke="orange" stroke-dasharray="5,2" d="M672.87,-44.04C711.2,-43.99 761.03,-45.54 804.75,-52.12 815.35,-53.72 826.53,-56.2 837.13,-58.94"/>
<polygon fill="orange" stroke="orange" points="672.85,-40.54 662.87,-44.1 672.89,-47.54 672.85,-40.54"/>
</a>
</g>
<text text-anchor="start" x="692.62" y="-65.62" font-family="Helvetica,sans-Serif" font-size="10.00" fill="grey"> &lt; const Slic3r::Triangle</text>
<text text-anchor="middle" x="744.75" y="-54.38" font-family="Helvetica,sans-Serif" font-size="10.00" fill="grey">Mesh &gt;</text>
</g>
<!-- Node18 -->
<g id="Node000018" class="node">
<title>Node18</title>
<g id="a_Node000018"><a xlink:title=" ">
<polygon fill="white" stroke="#666666" points="407.02,-36.25 378.23,-36.25 378.23,-17 407.02,-17 407.02,-36.25"/>
<text text-anchor="middle" x="392.62" y="-22.75" font-family="Helvetica,sans-Serif" font-size="10.00">T</text>
</a>
</g>
</g>
<!-- Node18&#45;&gt;Node28 -->
<g id="edge13_Node000028_Node000018" class="edge">
<title>Node18&#45;&gt;Node28</title>
<g id="a_edge13_Node000028_Node000018"><a xlink:title=" ">
<path fill="none" stroke="#9a32cd" stroke-dasharray="5,2" d="M417.94,-28.78C451.3,-31.74 512.13,-37.13 555.97,-41.02"/>
<polygon fill="#9a32cd" stroke="#9a32cd" points="418.62,-25.24 408.35,-27.84 418,-32.21 418.62,-25.24"/>
</a>
</g>
<text text-anchor="middle" x="511.25" y="-41.38" font-family="Helvetica,sans-Serif" font-size="10.00" fill="grey"> ptr</text>
</g>
<!-- Node23 -->
<g id="Node000023" class="node">
<title>Node23</title>
<g id="a_Node000023"><a xlink:title=" ">
<polygon fill="white" stroke="#666666" points="788,-19.25 701.5,-19.25 701.5,0 788,0 788,-19.25"/>
<text text-anchor="middle" x="744.75" y="-5.75" font-family="Helvetica,sans-Serif" font-size="10.00">std::vector&lt; T &gt;</text>
</a>
</g>
</g>
<!-- Node18&#45;&gt;Node23 -->
<g id="edge16_Node000023_Node000018" class="edge">
<title>Node18&#45;&gt;Node23</title>
<g id="a_edge16_Node000023_Node000018"><a xlink:title=" ">
<path fill="none" stroke="#9a32cd" stroke-dasharray="5,2" d="M418.15,-24.87C437.51,-23.52 465.22,-21.68 489.5,-20.38 564.06,-16.37 650.98,-12.97 701.45,-11.12"/>
<polygon fill="#9a32cd" stroke="#9a32cd" points="418,-21.44 408.27,-25.64 418.49,-28.43 418,-21.44"/>
</a>
</g>
<text text-anchor="middle" x="511.25" y="-22.38" font-family="Helvetica,sans-Serif" font-size="10.00" fill="grey"> elements</text>
</g>
<!-- Node23&#45;&gt;Node6 -->
<g id="edge15_Node000006_Node000023" class="edge">
<title>Node23&#45;&gt;Node6</title>
<g id="a_edge15_Node000006_Node000023"><a xlink:title=" ">
<path fill="none" stroke="orange" stroke-dasharray="5,2" d="M799.03,-13.32C880.84,-19.37 1042.2,-32.86 1178,-53.62 1212.9,-58.96 1252.07,-67.09 1281.12,-73.55"/>
<polygon fill="orange" stroke="orange" points="799.49,-9.77 789.26,-12.53 798.98,-16.75 799.49,-9.77"/>
</a>
</g>
<text text-anchor="middle" x="1011.25" y="-38.38" font-family="Helvetica,sans-Serif" font-size="10.00" fill="grey"> &lt; ModelSource &gt;</text>
</g>
</g>
</svg>

<g id="navigator" transform="translate(0 0)" fill="#404254">
  <rect fill="#f2f5e9" fill-opacity="0.5" stroke="#606060" stroke-width=".5" x="0" y="0" width="60" height="60"/>
  <use id="zoomplus" xlink:href="#zoomPlus" x="17" y="9" onmousedown="handleZoom(evt,'in')"/>
  <use id="zoomminus" xlink:href="#zoomMin" x="42" y="9" onmousedown="handleZoom(evt,'out')"/>
  <use id="reset" xlink:href="#resetDef" x="30" y="36" onmousedown="handleReset()"/>
   <use id="arrowup" xlink:href="#arrowUp" x="0" y="0" onmousedown="handlePan(0,-1)"/>
  <use id="arrowright" xlink:href="#arrowRight" x="0" y="0" onmousedown="handlePan(1,0)"/>
  <use id="arrowdown" xlink:href="#arrowDown" x="0" y="0" onmousedown="handlePan(0,1)"/>
  <use id="arrowleft" xlink:href="#arrowLeft" x="0" y="0" onmousedown="handlePan(-1,0)"/>
</g>
<svg viewBox="0 0 15 15" width="100%" height="30px" preserveAspectRatio="xMaxYMin meet">
 <g id="arrow_out" transform="scale(0.3 0.3)">
  <a xlink:href="struct_slic3r_1_1_g_u_i_1_1_emboss_1_1_surface_volume_data__coll__graph_org.svg" target="_base">
   <rect id="button" ry="5" rx="5" y="6" x="6" height="38" width="38"
        fill="#f2f5e9" fill-opacity="0.5" stroke="#606060" stroke-width="1.0"/>
   <path id="arrow"
     d="M 11.500037,31.436501 C 11.940474,20.09759 22.043105,11.32322 32.158766,21.979434 L 37.068811,17.246167 C 37.068811,17.246167 37.088388,32 37.088388,32 L 22.160133,31.978069 C 22.160133,31.978069 26.997745,27.140456 26.997745,27.140456 C 18.528582,18.264221 13.291696,25.230495 11.500037,31.436501 z"
     style="fill:#404040;"/>
  </a>
 </g>
</svg>

<style type='text/css'>
<![CDATA[
[data-mouse-over-selected='false'] { opacity: 0.7; }
[data-mouse-over-selected='true']  { opacity: 1.0; }
]]>
</style>
<script type="application/ecmascript"><![CDATA[
document.addEventListener('DOMContentLoaded', (event) => {
  highlightEdges();
  highlightAdjacentNodes();
});
]]></script>
</svg>
