<?xml version="1.0" encoding="UTF-8" standalone="no"?>
<!DOCTYPE svg PUBLIC "-//W3C//DTD SVG 1.1//EN"
 "http://www.w3.org/Graphics/SVG/1.1/DTD/svg11.dtd">
<!-- Generated by graphviz version 8.0.5 (20230430.1635)
 -->
<!-- Title: igl::ply::add_obj_info Pages: 1 -->
<svg width="519pt" height="113pt"
 viewBox="0.00 0.00 519.00 113.25" xmlns="http://www.w3.org/2000/svg" xmlns:xlink="http://www.w3.org/1999/xlink">
<g id="graph0" class="graph" transform="scale(1 1) rotate(0) translate(4 109.25)">
<title>igl::ply::add_obj_info</title>
<!-- Node1 -->
<g id="Node000001" class="node">
<title>Node1</title>
<g id="a_Node000001"><a xlink:title=" ">
<polygon fill="#999999" stroke="#666666" points="511,-62.25 405.75,-62.25 405.75,-43 511,-43 511,-62.25"/>
<text text-anchor="middle" x="458.38" y="-48.75" font-family="Helvetica,sans-Serif" font-size="10.00">igl::ply::add_obj_info</text>
</a>
</g>
</g>
<!-- Node2 -->
<g id="Node000002" class="node">
<title>Node2</title>
<g id="a_Node000002"><a xlink:href="../../dd/de2/namespaceigl_1_1ply.html#a71bb3d2c64dc305534cdef5307de0ccf" target="_top" xlink:title=" ">
<polygon fill="white" stroke="#666666" points="369.75,-62.25 282.5,-62.25 282.5,-43 369.75,-43 369.75,-62.25"/>
<text text-anchor="middle" x="326.12" y="-48.75" font-family="Helvetica,sans-Serif" font-size="10.00">igl::ply::ply_read</text>
</a>
</g>
</g>
<!-- Node1&#45;&gt;Node2 -->
<g id="edge1_Node000001_Node000002" class="edge">
<title>Node1&#45;&gt;Node2</title>
<g id="a_edge1_Node000001_Node000002"><a xlink:title=" ">
<path fill="none" stroke="#63b8ff" d="M394.64,-52.62C386.3,-52.62 377.9,-52.62 370.01,-52.62"/>
<polygon fill="#63b8ff" stroke="#63b8ff" points="394.52,-56.13 404.52,-52.62 394.52,-49.13 394.52,-56.13"/>
</a>
</g>
</g>
<!-- Node3 -->
<g id="Node000003" class="node">
<title>Node3</title>
<g id="a_Node000003"><a xlink:href="../../dc/d25/namespaceigl.html#acf4bce560c3b1d7048c3e7fca5737838" target="_top" xlink:title=" ">
<polygon fill="white" stroke="#666666" points="246.5,-105.25 141.25,-105.25 141.25,-86 246.5,-86 246.5,-105.25"/>
<text text-anchor="middle" x="193.88" y="-91.75" font-family="Helvetica,sans-Serif" font-size="10.00">igl::guess_extension</text>
</a>
</g>
</g>
<!-- Node2&#45;&gt;Node3 -->
<g id="edge2_Node000002_Node000003" class="edge">
<title>Node2&#45;&gt;Node3</title>
<g id="a_edge2_Node000002_Node000003"><a xlink:title=" ">
<path fill="none" stroke="#63b8ff" d="M284.35,-66.09C265.22,-72.4 242.82,-79.8 225.22,-85.61"/>
<polygon fill="#63b8ff" stroke="#63b8ff" points="285.19,-69.17 293.59,-62.71 282.99,-62.52 285.19,-69.17"/>
</a>
</g>
</g>
<!-- Node5 -->
<g id="Node000005" class="node">
<title>Node5</title>
<g id="a_Node000005"><a xlink:href="../../dd/de2/namespaceigl_1_1ply.html#a5fcf9da3d8693fe3021891896ae25fae" target="_top" xlink:title=" ">
<polygon fill="white" stroke="#666666" points="238.62,-67.88 149.12,-67.88 149.12,-37.38 238.62,-37.38 238.62,-67.88"/>
<text text-anchor="start" x="157.12" y="-54.38" font-family="Helvetica,sans-Serif" font-size="10.00">igl::ply::ply_open</text>
<text text-anchor="middle" x="193.88" y="-43.12" font-family="Helvetica,sans-Serif" font-size="10.00">_for_reading</text>
</a>
</g>
</g>
<!-- Node2&#45;&gt;Node5 -->
<g id="edge4_Node000002_Node000005" class="edge">
<title>Node2&#45;&gt;Node5</title>
<g id="a_edge4_Node000002_Node000005"><a xlink:title=" ">
<path fill="none" stroke="#63b8ff" d="M271.43,-52.62C260.55,-52.62 249.22,-52.62 238.73,-52.62"/>
<polygon fill="#63b8ff" stroke="#63b8ff" points="271.12,-56.13 281.12,-52.62 271.12,-49.13 271.12,-56.13"/>
</a>
</g>
</g>
<!-- Node6 -->
<g id="Node000006" class="node">
<title>Node6</title>
<g id="a_Node000006"><a xlink:href="../../dc/d25/namespaceigl.html#a99be2de94b63466f675b9b4f18d701d2" target="_top" xlink:title=" ">
<polygon fill="white" stroke="#666666" points="228.12,-19.25 159.62,-19.25 159.62,0 228.12,0 228.12,-19.25"/>
<text text-anchor="middle" x="193.88" y="-5.75" font-family="Helvetica,sans-Serif" font-size="10.00">igl::readPLY</text>
</a>
</g>
</g>
<!-- Node2&#45;&gt;Node6 -->
<g id="edge5_Node000002_Node000006" class="edge">
<title>Node2&#45;&gt;Node6</title>
<g id="a_edge5_Node000002_Node000006"><a xlink:title=" ">
<path fill="none" stroke="#63b8ff" d="M284.35,-39.16C265.22,-32.85 242.82,-25.45 225.22,-19.64"/>
<polygon fill="#63b8ff" stroke="#63b8ff" points="282.99,-42.73 293.59,-42.54 285.19,-36.08 282.99,-42.73"/>
</a>
</g>
</g>
<!-- Node4 -->
<g id="Node000004" class="node">
<title>Node4</title>
<g id="a_Node000004"><a xlink:href="../../dc/d25/namespaceigl.html#afbf64c02a29ff26d39563671e2905572" target="_top" xlink:title=" ">
<polygon fill="white" stroke="#666666" points="105.25,-105.25 0,-105.25 0,-86 105.25,-86 105.25,-105.25"/>
<text text-anchor="middle" x="52.62" y="-91.75" font-family="Helvetica,sans-Serif" font-size="10.00">igl::guess_extension</text>
</a>
</g>
</g>
<!-- Node3&#45;&gt;Node4 -->
<g id="edge3_Node000003_Node000004" class="edge">
<title>Node3&#45;&gt;Node4</title>
<g id="a_edge3_Node000003_Node000004"><a xlink:title=" ">
<path fill="none" stroke="#63b8ff" d="M130.26,-95.62C121.99,-95.62 113.59,-95.62 105.52,-95.62"/>
<polygon fill="#63b8ff" stroke="#63b8ff" points="130.02,-99.13 140.02,-95.62 130.02,-92.13 130.02,-99.13"/>
</a>
</g>
</g>
</g>
</svg>
