<?xml version="1.0" encoding="UTF-8" standalone="no"?>
<!DOCTYPE svg PUBLIC "-//W3C//DTD SVG 1.1//EN"
 "http://www.w3.org/Graphics/SVG/1.1/DTD/svg11.dtd">
<!-- Generated by graphviz version 8.0.5 (20230430.1635)
 -->
<!-- Title: Slic3r::GUI::ModePaletteComboBox::ModePaletteComboBox Pages: 1 -->
<svg width="1302pt" height="466pt"
 viewBox="0.00 0.00 1302.25 466.25" xmlns="http://www.w3.org/2000/svg" xmlns:xlink="http://www.w3.org/1999/xlink">
<g id="graph0" class="graph" transform="scale(1 1) rotate(0) translate(4 462.25)">
<title>Slic3r::GUI::ModePaletteComboBox::ModePaletteComboBox</title>
<!-- Node1 -->
<g id="Node000001" class="node">
<title>Node1</title>
<g id="a_Node000001"><a xlink:title=" ">
<polygon fill="#999999" stroke="#666666" points="174.25,-390.25 0,-390.25 0,-359.75 174.25,-359.75 174.25,-390.25"/>
<text text-anchor="start" x="8" y="-376.75" font-family="Helvetica,sans-Serif" font-size="10.00">Slic3r::GUI::ModePalette</text>
<text text-anchor="middle" x="87.12" y="-365.5" font-family="Helvetica,sans-Serif" font-size="10.00">ComboBox::ModePaletteComboBox</text>
</a>
</g>
</g>
<!-- Node2 -->
<g id="Node000002" class="node">
<title>Node2</title>
<g id="a_Node000002"><a xlink:href="../../d8/d17/class_slic3r_1_1_g_u_i_1_1_bitmap_combo_box.html#a252c7fa91912a6e5b4360a97d311c638" target="_top" xlink:title=" ">
<polygon fill="white" stroke="#666666" points="343.25,-415.25 210.25,-415.25 210.25,-384.75 343.25,-384.75 343.25,-415.25"/>
<text text-anchor="start" x="218.25" y="-401.75" font-family="Helvetica,sans-Serif" font-size="10.00">Slic3r::GUI::BitmapCombo</text>
<text text-anchor="middle" x="276.75" y="-390.5" font-family="Helvetica,sans-Serif" font-size="10.00">Box::Append</text>
</a>
</g>
</g>
<!-- Node1&#45;&gt;Node2 -->
<g id="edge1_Node000001_Node000002" class="edge">
<title>Node1&#45;&gt;Node2</title>
<g id="a_edge1_Node000001_Node000002"><a xlink:title=" ">
<path fill="none" stroke="#63b8ff" d="M174.52,-386.51C182.82,-387.62 191.19,-388.73 199.37,-389.82"/>
<polygon fill="#63b8ff" stroke="#63b8ff" points="198.63,-393.39 209.01,-391.24 199.56,-386.45 198.63,-393.39"/>
</a>
</g>
</g>
<!-- Node3 -->
<g id="Node000003" class="node">
<title>Node3</title>
<g id="a_Node000003"><a xlink:href="../../d0/dc0/class_slic3r_1_1_g_u_i_1_1_mode_palette_combo_box.html#a566f49e6db5f80aba5e97998df5f291f" target="_top" xlink:title=" ">
<polygon fill="white" stroke="#666666" points="339.5,-366.25 214,-366.25 214,-335.75 339.5,-335.75 339.5,-366.25"/>
<text text-anchor="start" x="222" y="-352.75" font-family="Helvetica,sans-Serif" font-size="10.00">Slic3r::GUI::ModePalette</text>
<text text-anchor="middle" x="276.75" y="-341.5" font-family="Helvetica,sans-Serif" font-size="10.00">ComboBox::get_bmp</text>
</a>
</g>
</g>
<!-- Node1&#45;&gt;Node3 -->
<g id="edge2_Node000001_Node000003" class="edge">
<title>Node1&#45;&gt;Node3</title>
<g id="a_edge2_Node000001_Node000003"><a xlink:title=" ">
<path fill="none" stroke="#63b8ff" d="M174.52,-363.95C183.99,-362.74 193.57,-361.51 202.85,-360.33"/>
<polygon fill="#63b8ff" stroke="#63b8ff" points="203.12,-363.69 212.59,-358.95 202.23,-356.75 203.12,-363.69"/>
</a>
</g>
</g>
<!-- Node4 -->
<g id="Node000004" class="node">
<title>Node4</title>
<g id="a_Node000004"><a xlink:href="../../d0/dc0/class_slic3r_1_1_g_u_i_1_1_mode_palette_combo_box.html#a2981e5b1a932cb33dffa48096ef3541d" target="_top" xlink:title=" ">
<polygon fill="white" stroke="#666666" points="510.75,-458.25 379.25,-458.25 379.25,-427.75 510.75,-427.75 510.75,-458.25"/>
<text text-anchor="start" x="387.25" y="-444.75" font-family="Helvetica,sans-Serif" font-size="10.00">Slic3r::GUI::ModePalette</text>
<text text-anchor="middle" x="445" y="-433.5" font-family="Helvetica,sans-Serif" font-size="10.00">ComboBox::bitmap_cache</text>
</a>
</g>
</g>
<!-- Node3&#45;&gt;Node4 -->
<g id="edge3_Node000003_Node000004" class="edge">
<title>Node3&#45;&gt;Node4</title>
<g id="a_edge3_Node000003_Node000004"><a xlink:title=" ">
<path fill="none" stroke="#63b8ff" d="M327.06,-366.71C332.74,-369.41 338.27,-372.5 343.25,-376 363.35,-390.15 359.17,-403.81 379.25,-418 381.37,-419.5 383.59,-420.92 385.87,-422.27"/>
<polygon fill="#63b8ff" stroke="#63b8ff" points="384.11,-425.82 394.59,-427.41 387.39,-419.64 384.11,-425.82"/>
</a>
</g>
</g>
<!-- Node5 -->
<g id="Node000005" class="node">
<title>Node5</title>
<g id="a_Node000005"><a xlink:href="../../d8/d95/class_slic3r_1_1_g_u_i_1_1_bitmap_cache.html#a0370e15f0450c95a95a94b4545b85d74" target="_top" xlink:title=" ">
<polygon fill="white" stroke="#666666" points="510,-409.25 380,-409.25 380,-378.75 510,-378.75 510,-409.25"/>
<text text-anchor="start" x="388" y="-395.75" font-family="Helvetica,sans-Serif" font-size="10.00">Slic3r::GUI::BitmapCache</text>
<text text-anchor="middle" x="445" y="-384.5" font-family="Helvetica,sans-Serif" font-size="10.00">::find_bndl</text>
</a>
</g>
</g>
<!-- Node3&#45;&gt;Node5 -->
<g id="edge4_Node000003_Node000005" class="edge">
<title>Node3&#45;&gt;Node5</title>
<g id="a_edge4_Node000003_Node000005"><a xlink:title=" ">
<path fill="none" stroke="#63b8ff" d="M338.24,-366.65C349.47,-369.55 361.3,-372.61 372.81,-375.59"/>
<polygon fill="#63b8ff" stroke="#63b8ff" points="371.72,-379.18 382.28,-378.29 373.47,-372.4 371.72,-379.18"/>
</a>
</g>
</g>
<!-- Node6 -->
<g id="Node000006" class="node">
<title>Node6</title>
<g id="a_Node000006"><a xlink:href="../../d7/d58/wx_extensions_8cpp.html#a9bcc4cbc1398b68decea7a3d71f1a906" target="_top" xlink:title=" ">
<polygon fill="white" stroke="#666666" points="488.62,-360.62 401.38,-360.62 401.38,-341.38 488.62,-341.38 488.62,-360.62"/>
<text text-anchor="middle" x="445" y="-347.12" font-family="Helvetica,sans-Serif" font-size="10.00">get_bmp_bundle</text>
</a>
</g>
</g>
<!-- Node3&#45;&gt;Node6 -->
<g id="edge5_Node000003_Node000006" class="edge">
<title>Node3&#45;&gt;Node6</title>
<g id="a_edge5_Node000003_Node000006"><a xlink:title=" ">
<path fill="none" stroke="#63b8ff" d="M339.66,-351C356.23,-351 374.02,-351 390.12,-351"/>
<polygon fill="#63b8ff" stroke="#63b8ff" points="389.97,-354.5 399.97,-351 389.97,-347.5 389.97,-354.5"/>
</a>
</g>
</g>
<!-- Node9 -->
<g id="Node000009" class="node">
<title>Node9</title>
<g id="a_Node000009"><a xlink:href="../../d8/d95/class_slic3r_1_1_g_u_i_1_1_bitmap_cache.html#a58e11278f15371cfb2bfb1bae107f336" target="_top" xlink:title=" ">
<polygon fill="white" stroke="#666666" points="864.88,-328.25 734.88,-328.25 734.88,-297.75 864.88,-297.75 864.88,-328.25"/>
<text text-anchor="start" x="742.88" y="-314.75" font-family="Helvetica,sans-Serif" font-size="10.00">Slic3r::GUI::BitmapCache</text>
<text text-anchor="middle" x="799.88" y="-303.5" font-family="Helvetica,sans-Serif" font-size="10.00">::insert_bndl</text>
</a>
</g>
</g>
<!-- Node3&#45;&gt;Node9 -->
<g id="edge30_Node000003_Node000009" class="edge">
<title>Node3&#45;&gt;Node9</title>
<g id="a_edge30_Node000003_Node000009"><a xlink:title=" ">
<path fill="none" stroke="#63b8ff" d="M339.81,-337.96C352.79,-335.63 366.43,-333.48 379.25,-332 499.19,-318.13 639.51,-314.25 723.68,-313.24"/>
<polygon fill="#63b8ff" stroke="#63b8ff" points="723.71,-316.73 733.67,-313.13 723.63,-309.73 723.71,-316.73"/>
</a>
</g>
</g>
<!-- Node17 -->
<g id="Node000017" class="node">
<title>Node17</title>
<g id="a_Node000017"><a xlink:href="../../d7/d58/wx_extensions_8cpp.html#ac2acd211a81c69fec2ab68e0ec8a4b22" target="_top" xlink:title=" ">
<polygon fill="white" stroke="#666666" points="504.75,-144.62 385.25,-144.62 385.25,-125.38 504.75,-125.38 504.75,-144.62"/>
<text text-anchor="middle" x="445" y="-131.12" font-family="Helvetica,sans-Serif" font-size="10.00">get_empty_bmp_bundle</text>
</a>
</g>
</g>
<!-- Node3&#45;&gt;Node17 -->
<g id="edge20_Node000003_Node000017" class="edge">
<title>Node3&#45;&gt;Node17</title>
<g id="a_edge20_Node000003_Node000017"><a xlink:title=" ">
<path fill="none" stroke="#63b8ff" d="M289.71,-335.47C319.55,-296.7 397.21,-195.79 429.55,-153.78"/>
<polygon fill="#63b8ff" stroke="#63b8ff" points="432.91,-156.15 436.23,-146.09 427.36,-151.88 432.91,-156.15"/>
</a>
</g>
</g>
<!-- Node7 -->
<g id="Node000007" class="node">
<title>Node7</title>
<g id="a_Node000007"><a xlink:href="../../d8/d95/class_slic3r_1_1_g_u_i_1_1_bitmap_cache.html#a6cabea4aeca3a854818924642548c936" target="_top" xlink:title=" ">
<polygon fill="white" stroke="#666666" points="676.75,-285.25 546.75,-285.25 546.75,-254.75 676.75,-254.75 676.75,-285.25"/>
<text text-anchor="start" x="554.75" y="-271.75" font-family="Helvetica,sans-Serif" font-size="10.00">Slic3r::GUI::BitmapCache</text>
<text text-anchor="middle" x="611.75" y="-260.5" font-family="Helvetica,sans-Serif" font-size="10.00">::from_png</text>
</a>
</g>
</g>
<!-- Node6&#45;&gt;Node7 -->
<g id="edge6_Node000006_Node000007" class="edge">
<title>Node6&#45;&gt;Node7</title>
<g id="a_edge6_Node000006_Node000007"><a xlink:title=" ">
<path fill="none" stroke="#63b8ff" d="M466.53,-340.91C492.09,-328.34 536.38,-306.56 569.15,-290.45"/>
<polygon fill="#63b8ff" stroke="#63b8ff" points="570.49,-293.2 577.92,-285.65 567.4,-286.92 570.49,-293.2"/>
</a>
</g>
</g>
<!-- Node12 -->
<g id="Node000012" class="node">
<title>Node12</title>
<g id="a_Node000012"><a xlink:href="../../d6/dba/_wipe_tower_dialog_8cpp.html#a031c2862b832be718b216d1f101f88cd" target="_top" xlink:title=" ">
<polygon fill="white" stroke="#666666" points="1294.25,-257.62 1255,-257.62 1255,-238.38 1294.25,-238.38 1294.25,-257.62"/>
<text text-anchor="middle" x="1274.62" y="-244.12" font-family="Helvetica,sans-Serif" font-size="10.00">scale</text>
</a>
</g>
</g>
<!-- Node6&#45;&gt;Node12 -->
<g id="edge19_Node000006_Node000012" class="edge">
<title>Node6&#45;&gt;Node12</title>
<g id="a_edge19_Node000006_Node000012"><a xlink:title=" ">
<path fill="none" stroke="#63b8ff" d="M479.98,-361.03C499.48,-366.72 524.45,-373.9 546.75,-380 658.06,-410.43 683.48,-442 798.88,-442 798.88,-442 798.88,-442 989,-442 1112.9,-442 1222.68,-314.93 1260.04,-266.47"/>
<polygon fill="#63b8ff" stroke="#63b8ff" points="1263.29,-268.97 1266.53,-258.89 1257.71,-264.75 1263.29,-268.97"/>
</a>
</g>
</g>
<!-- Node13 -->
<g id="Node000013" class="node">
<title>Node13</title>
<g id="a_Node000013"><a xlink:href="../../d8/d95/class_slic3r_1_1_g_u_i_1_1_bitmap_cache.html#a73b86efa2f4709462869a3877d650d8a" target="_top" xlink:title=" ">
<polygon fill="white" stroke="#666666" points="676.75,-371.25 546.75,-371.25 546.75,-340.75 676.75,-340.75 676.75,-371.25"/>
<text text-anchor="start" x="554.75" y="-357.75" font-family="Helvetica,sans-Serif" font-size="10.00">Slic3r::GUI::BitmapCache</text>
<text text-anchor="middle" x="611.75" y="-346.5" font-family="Helvetica,sans-Serif" font-size="10.00">::from_svg</text>
</a>
</g>
</g>
<!-- Node6&#45;&gt;Node13 -->
<g id="edge13_Node000006_Node000013" class="edge">
<title>Node6&#45;&gt;Node13</title>
<g id="a_edge13_Node000006_Node000013"><a xlink:title=" ">
<path fill="none" stroke="#63b8ff" d="M488.86,-352.3C503.11,-352.73 519.43,-353.23 535.4,-353.71"/>
<polygon fill="#63b8ff" stroke="#63b8ff" points="535.27,-357.24 545.37,-354.05 535.48,-350.24 535.27,-357.24"/>
</a>
</g>
</g>
<!-- Node8 -->
<g id="Node000008" class="node">
<title>Node8</title>
<g id="a_Node000008"><a xlink:href="../../d9/d45/namespace_slic3r_1_1_g_u_i.html#ac911e01665ff9c00414a1d5d0352de74" target="_top" xlink:title=" ">
<polygon fill="white" stroke="#666666" points="852.88,-223.62 746.88,-223.62 746.88,-204.38 852.88,-204.38 852.88,-223.62"/>
<text text-anchor="middle" x="799.88" y="-210.12" font-family="Helvetica,sans-Serif" font-size="10.00">Slic3r::GUI::from_u8</text>
</a>
</g>
</g>
<!-- Node7&#45;&gt;Node8 -->
<g id="edge7_Node000007_Node000008" class="edge">
<title>Node7&#45;&gt;Node8</title>
<g id="a_edge7_Node000007_Node000008"><a xlink:title=" ">
<path fill="none" stroke="#63b8ff" d="M665.09,-254.25C693.47,-245.71 728.15,-235.28 755.09,-227.18"/>
<polygon fill="#63b8ff" stroke="#63b8ff" points="755.8,-230.31 764.37,-224.08 753.79,-223.61 755.8,-230.31"/>
</a>
</g>
</g>
<!-- Node7&#45;&gt;Node9 -->
<g id="edge9_Node000007_Node000009" class="edge">
<title>Node7&#45;&gt;Node9</title>
<g id="a_edge9_Node000007_Node000009"><a xlink:title=" ">
<path fill="none" stroke="#63b8ff" d="M677.06,-284.86C692.18,-288.35 708.41,-292.1 723.94,-295.69"/>
<polygon fill="#63b8ff" stroke="#63b8ff" points="723.03,-299.3 733.56,-298.14 724.6,-292.48 723.03,-299.3"/>
</a>
</g>
</g>
<!-- Node10 -->
<g id="Node000010" class="node">
<title>Node10</title>
<g id="a_Node000010"><a xlink:href="../../de/db8/namespace_slic3r.html#a03e9f0fb364689f42c2ac979bf74a185" target="_top" xlink:title=" ">
<polygon fill="white" stroke="#666666" points="830,-365.62 769.75,-365.62 769.75,-346.38 830,-346.38 830,-365.62"/>
<text text-anchor="middle" x="799.88" y="-352.12" font-family="Helvetica,sans-Serif" font-size="10.00">Slic3r::var</text>
</a>
</g>
</g>
<!-- Node7&#45;&gt;Node10 -->
<g id="edge10_Node000007_Node000010" class="edge">
<title>Node7&#45;&gt;Node10</title>
<g id="a_edge10_Node000007_Node000010"><a xlink:title=" ">
<path fill="none" stroke="#63b8ff" d="M631.42,-285.66C650.63,-300.98 682,-323.86 712.75,-337 727.25,-343.2 744.03,-347.48 758.9,-350.39"/>
<polygon fill="#63b8ff" stroke="#63b8ff" points="757.87,-353.94 768.33,-352.27 759.11,-347.05 757.87,-353.94"/>
</a>
</g>
</g>
<!-- Node11 -->
<g id="Node000011" class="node">
<title>Node11</title>
<g id="a_Node000011"><a xlink:href="../../d9/d45/namespace_slic3r_1_1_g_u_i.html#a335817b838dadf09b1a98925a4fa5dab" target="_top" xlink:title=" ">
<polygon fill="white" stroke="#666666" points="1219,-263.25 1089,-263.25 1089,-232.75 1219,-232.75 1219,-263.25"/>
<text text-anchor="start" x="1097" y="-249.75" font-family="Helvetica,sans-Serif" font-size="10.00">Slic3r::GUI::wxImage</text>
<text text-anchor="middle" x="1154" y="-238.5" font-family="Helvetica,sans-Serif" font-size="10.00">_to_wxBitmap_with_alpha</text>
</a>
</g>
</g>
<!-- Node7&#45;&gt;Node11 -->
<g id="edge11_Node000007_Node000011" class="edge">
<title>Node7&#45;&gt;Node11</title>
<g id="a_edge11_Node000007_Node000011"><a xlink:title=" ">
<path fill="none" stroke="#63b8ff" d="M677.11,-267.38C777.6,-263.29 971.29,-255.4 1077.97,-251.06"/>
<polygon fill="#63b8ff" stroke="#63b8ff" points="1077.79,-254.52 1087.64,-250.62 1077.51,-247.53 1077.79,-254.52"/>
</a>
</g>
</g>
<!-- Node8&#45;&gt;Node8 -->
<g id="edge8_Node000008_Node000008" class="edge">
<title>Node8&#45;&gt;Node8</title>
<g id="a_edge8_Node000008_Node000008"><a xlink:title=" ">
<path fill="none" stroke="#63b8ff" d="M770.42,-223.91C756.99,-232.52 766.81,-241.62 799.88,-241.62 820.03,-241.62 831.54,-238.24 834.43,-233.65"/>
<polygon fill="#63b8ff" stroke="#63b8ff" points="837.07,-232.15 829.33,-224.91 830.86,-235.4 837.07,-232.15"/>
</a>
</g>
</g>
<!-- Node11&#45;&gt;Node12 -->
<g id="edge12_Node000011_Node000012" class="edge">
<title>Node11&#45;&gt;Node12</title>
<g id="a_edge12_Node000011_Node000012"><a xlink:title=" ">
<path fill="none" stroke="#63b8ff" d="M1219.17,-248C1227.8,-248 1236.29,-248 1243.91,-248"/>
<polygon fill="#63b8ff" stroke="#63b8ff" points="1243.7,-251.5 1253.7,-248 1243.7,-244.5 1243.7,-251.5"/>
</a>
</g>
</g>
<!-- Node13&#45;&gt;Node9 -->
<g id="edge14_Node000013_Node000009" class="edge">
<title>Node13&#45;&gt;Node9</title>
<g id="a_edge14_Node000013_Node000009"><a xlink:title=" ">
<path fill="none" stroke="#63b8ff" d="M677.06,-341.14C692.18,-337.65 708.41,-333.9 723.94,-330.31"/>
<polygon fill="#63b8ff" stroke="#63b8ff" points="724.6,-333.52 733.56,-327.86 723.03,-326.7 724.6,-333.52"/>
</a>
</g>
</g>
<!-- Node13&#45;&gt;Node10 -->
<g id="edge18_Node000013_Node000010" class="edge">
<title>Node13&#45;&gt;Node10</title>
<g id="a_edge18_Node000013_Node000010"><a xlink:title=" ">
<path fill="none" stroke="#63b8ff" d="M677.06,-356C704.28,-356 735.13,-356 758.97,-356"/>
<polygon fill="#63b8ff" stroke="#63b8ff" points="758.73,-359.5 768.73,-356 758.73,-352.5 758.73,-359.5"/>
</a>
</g>
</g>
<!-- Node14 -->
<g id="Node000014" class="node">
<title>Node14</title>
<g id="a_Node000014"><a xlink:href="../../d8/d95/class_slic3r_1_1_g_u_i_1_1_bitmap_cache.html#aeb911152e95f8334213ce5baceb55ce9" target="_top" xlink:title=" ">
<polygon fill="white" stroke="#666666" points="887,-414.25 712.75,-414.25 712.75,-383.75 887,-383.75 887,-414.25"/>
<text text-anchor="start" x="720.75" y="-400.75" font-family="Helvetica,sans-Serif" font-size="10.00">Slic3r::GUI::BitmapCache</text>
<text text-anchor="middle" x="799.88" y="-389.5" font-family="Helvetica,sans-Serif" font-size="10.00">::nsvgGetDataFromFileWithReplace</text>
</a>
</g>
</g>
<!-- Node13&#45;&gt;Node14 -->
<g id="edge15_Node000013_Node000014" class="edge">
<title>Node13&#45;&gt;Node14</title>
<g id="a_edge15_Node000013_Node000014"><a xlink:title=" ">
<path fill="none" stroke="#63b8ff" d="M677.06,-370.86C691.02,-374.08 705.92,-377.53 720.35,-380.86"/>
<polygon fill="#63b8ff" stroke="#63b8ff" points="719.22,-384.42 729.75,-383.26 720.8,-377.6 719.22,-384.42"/>
</a>
</g>
</g>
<!-- Node15 -->
<g id="Node000015" class="node">
<title>Node15</title>
<g id="a_Node000015"><a xlink:href="../../d3/dbc/config__gram_8c.html#af07d89f5ceaea0c7c8252cc41fd75f37" target="_top" xlink:title=" ">
<polygon fill="white" stroke="#666666" points="1004.25,-411.62 971.75,-411.62 971.75,-392.38 1004.25,-392.38 1004.25,-411.62"/>
<text text-anchor="middle" x="988" y="-398.12" font-family="Helvetica,sans-Serif" font-size="10.00">free</text>
</a>
</g>
</g>
<!-- Node14&#45;&gt;Node15 -->
<g id="edge16_Node000014_Node000015" class="edge">
<title>Node14&#45;&gt;Node15</title>
<g id="a_edge16_Node000014_Node000015"><a xlink:title=" ">
<path fill="none" stroke="#63b8ff" d="M887.4,-400.39C913.97,-400.82 941.26,-401.26 960.54,-401.57"/>
<polygon fill="#63b8ff" stroke="#63b8ff" points="960.37,-405.09 970.43,-401.75 960.48,-398.09 960.37,-405.09"/>
</a>
</g>
</g>
<!-- Node16 -->
<g id="Node000016" class="node">
<title>Node16</title>
<g id="a_Node000016"><a xlink:href="../../d3/dbc/config__gram_8c.html#a8d12df60024a0ab3de3a276240433890" target="_top" xlink:title=" ">
<polygon fill="white" stroke="#666666" points="1010.25,-374.62 965.75,-374.62 965.75,-355.38 1010.25,-355.38 1010.25,-374.62"/>
<text text-anchor="middle" x="988" y="-361.12" font-family="Helvetica,sans-Serif" font-size="10.00">malloc</text>
</a>
</g>
</g>
<!-- Node14&#45;&gt;Node16 -->
<g id="edge17_Node000014_Node000016" class="edge">
<title>Node14&#45;&gt;Node16</title>
<g id="a_edge17_Node000014_Node000016"><a xlink:title=" ">
<path fill="none" stroke="#63b8ff" d="M886.85,-383.29C911.11,-378.86 936,-374.32 954.9,-370.86"/>
<polygon fill="#63b8ff" stroke="#63b8ff" points="955.36,-374.16 964.57,-368.92 954.1,-367.27 955.36,-374.16"/>
</a>
</g>
</g>
<!-- Node17&#45;&gt;Node12 -->
<g id="edge29_Node000017_Node000012" class="edge">
<title>Node17&#45;&gt;Node12</title>
<g id="a_edge29_Node000017_Node000012"><a xlink:title=" ">
<path fill="none" stroke="#63b8ff" d="M460.37,-125.07C506.94,-93.9 658.83,0 798.88,0 798.88,0 798.88,0 989,0 1127.83,0 1231.78,-169.78 1263.52,-228.39"/>
<polygon fill="#63b8ff" stroke="#63b8ff" points="1260.83,-229.77 1268.6,-236.97 1267.01,-226.5 1260.83,-229.77"/>
</a>
</g>
</g>
<!-- Node18 -->
<g id="Node000018" class="node">
<title>Node18</title>
<g id="a_Node000018"><a xlink:href="../../d8/d95/class_slic3r_1_1_g_u_i_1_1_bitmap_cache.html#a251dda77bef396f7a6be7e6083587feb" target="_top" xlink:title=" ">
<polygon fill="white" stroke="#666666" points="676.75,-150.25 546.75,-150.25 546.75,-119.75 676.75,-119.75 676.75,-150.25"/>
<text text-anchor="start" x="554.75" y="-136.75" font-family="Helvetica,sans-Serif" font-size="10.00">Slic3r::GUI::BitmapCache</text>
<text text-anchor="middle" x="611.75" y="-125.5" font-family="Helvetica,sans-Serif" font-size="10.00">::mkclear_bndl</text>
</a>
</g>
</g>
<!-- Node17&#45;&gt;Node18 -->
<g id="edge21_Node000017_Node000018" class="edge">
<title>Node17&#45;&gt;Node18</title>
<g id="a_edge21_Node000017_Node000018"><a xlink:title=" ">
<path fill="none" stroke="#63b8ff" d="M505.01,-135C514.84,-135 525.16,-135 535.33,-135"/>
<polygon fill="#63b8ff" stroke="#63b8ff" points="535.29,-138.5 545.29,-135 535.29,-131.5 535.29,-138.5"/>
</a>
</g>
</g>
<!-- Node19 -->
<g id="Node000019" class="node">
<title>Node19</title>
<g id="a_Node000019"><a xlink:href="../../d8/d95/class_slic3r_1_1_g_u_i_1_1_bitmap_cache.html#a65133b6549018a5d9bf8c2c9721de072" target="_top" xlink:title=" ">
<polygon fill="white" stroke="#666666" points="864.88,-150.25 734.88,-150.25 734.88,-119.75 864.88,-119.75 864.88,-150.25"/>
<text text-anchor="start" x="742.88" y="-136.75" font-family="Helvetica,sans-Serif" font-size="10.00">Slic3r::GUI::BitmapCache</text>
<text text-anchor="middle" x="799.88" y="-125.5" font-family="Helvetica,sans-Serif" font-size="10.00">::mksolid_bndl</text>
</a>
</g>
</g>
<!-- Node18&#45;&gt;Node19 -->
<g id="edge22_Node000018_Node000019" class="edge">
<title>Node18&#45;&gt;Node19</title>
<g id="a_edge22_Node000018_Node000019"><a xlink:title=" ">
<path fill="none" stroke="#63b8ff" d="M677.06,-135C692.18,-135 708.41,-135 723.94,-135"/>
<polygon fill="#63b8ff" stroke="#63b8ff" points="723.56,-138.5 733.56,-135 723.56,-131.5 723.56,-138.5"/>
</a>
</g>
</g>
<!-- Node20 -->
<g id="Node000020" class="node">
<title>Node20</title>
<g id="a_Node000020"><a xlink:href="../../da/dbd/class_slic3r_1_1_color_r_g_b.html#a00d880c71cc01fac1383cb034f9b43e9" target="_top" xlink:title=" ">
<polygon fill="white" stroke="#666666" points="1039.5,-193.25 936.5,-193.25 936.5,-162.75 1039.5,-162.75 1039.5,-193.25"/>
<text text-anchor="start" x="944.5" y="-179.75" font-family="Helvetica,sans-Serif" font-size="10.00">Slic3r::ColorRGB::b</text>
<text text-anchor="middle" x="988" y="-168.5" font-family="Helvetica,sans-Serif" font-size="10.00">_uchar</text>
</a>
</g>
</g>
<!-- Node19&#45;&gt;Node20 -->
<g id="edge23_Node000019_Node000020" class="edge">
<title>Node19&#45;&gt;Node20</title>
<g id="a_edge23_Node000019_Node000020"><a xlink:title=" ">
<path fill="none" stroke="#63b8ff" d="M865.19,-149.86C884.78,-154.38 906.26,-159.35 925.65,-163.83"/>
<polygon fill="#63b8ff" stroke="#63b8ff" points="924.65,-167.42 935.19,-166.26 926.23,-160.6 924.65,-167.42"/>
</a>
</g>
</g>
<!-- Node21 -->
<g id="Node000021" class="node">
<title>Node21</title>
<g id="a_Node000021"><a xlink:href="../../de/db8/namespace_slic3r.html#a32d4a75cf0f336def60d95837df65128" target="_top" xlink:title=" ">
<polygon fill="#fff0f0" stroke="red" points="1040.25,-144.62 935.75,-144.62 935.75,-125.38 1040.25,-125.38 1040.25,-144.62"/>
<text text-anchor="middle" x="988" y="-131.12" font-family="Helvetica,sans-Serif" font-size="10.00">Slic3r::decode_color</text>
</a>
</g>
</g>
<!-- Node19&#45;&gt;Node21 -->
<g id="edge24_Node000019_Node000021" class="edge">
<title>Node19&#45;&gt;Node21</title>
<g id="a_edge24_Node000019_Node000021"><a xlink:title=" ">
<path fill="none" stroke="#63b8ff" d="M865.19,-135C884.34,-135 905.29,-135 924.33,-135"/>
<polygon fill="#63b8ff" stroke="#63b8ff" points="924.29,-138.5 934.29,-135 924.29,-131.5 924.29,-138.5"/>
</a>
</g>
</g>
<!-- Node28 -->
<g id="Node000028" class="node">
<title>Node28</title>
<g id="a_Node000028"><a xlink:href="../../da/dbd/class_slic3r_1_1_color_r_g_b.html#a321650db153aa12463c807d5fe240e57" target="_top" xlink:title=" ">
<polygon fill="white" stroke="#666666" points="1039.5,-107.25 936.5,-107.25 936.5,-76.75 1039.5,-76.75 1039.5,-107.25"/>
<text text-anchor="start" x="944.5" y="-93.75" font-family="Helvetica,sans-Serif" font-size="10.00">Slic3r::ColorRGB::g</text>
<text text-anchor="middle" x="988" y="-82.5" font-family="Helvetica,sans-Serif" font-size="10.00">_uchar</text>
</a>
</g>
</g>
<!-- Node19&#45;&gt;Node28 -->
<g id="edge25_Node000019_Node000028" class="edge">
<title>Node19&#45;&gt;Node28</title>
<g id="a_edge25_Node000019_Node000028"><a xlink:title=" ">
<path fill="none" stroke="#63b8ff" d="M865.19,-120.14C884.78,-115.62 906.26,-110.65 925.65,-106.17"/>
<polygon fill="#63b8ff" stroke="#63b8ff" points="926.23,-109.4 935.19,-103.74 924.65,-102.58 926.23,-109.4"/>
</a>
</g>
</g>
<!-- Node29 -->
<g id="Node000029" class="node">
<title>Node29</title>
<g id="a_Node000029"><a xlink:href="../../d8/d95/class_slic3r_1_1_g_u_i_1_1_bitmap_cache.html#a5224e7145249f9e8ebe85513891f77d4" target="_top" xlink:title=" ">
<polygon fill="#fff0f0" stroke="red" points="1053,-242.25 923,-242.25 923,-211.75 1053,-211.75 1053,-242.25"/>
<text text-anchor="start" x="931" y="-228.75" font-family="Helvetica,sans-Serif" font-size="10.00">Slic3r::GUI::BitmapCache</text>
<text text-anchor="middle" x="988" y="-217.5" font-family="Helvetica,sans-Serif" font-size="10.00">::mksolid</text>
</a>
</g>
</g>
<!-- Node19&#45;&gt;Node29 -->
<g id="edge26_Node000019_Node000029" class="edge">
<title>Node19&#45;&gt;Node29</title>
<g id="a_edge26_Node000019_Node000029"><a xlink:title=" ">
<path fill="none" stroke="#63b8ff" d="M827.05,-150.65C851.43,-164.92 889.04,-186.13 923,-202 926.78,-203.77 930.73,-205.52 934.72,-207.23"/>
<polygon fill="#63b8ff" stroke="#63b8ff" points="933.09,-210.76 943.67,-211.36 935.78,-204.29 933.09,-210.76"/>
</a>
</g>
</g>
<!-- Node31 -->
<g id="Node000031" class="node">
<title>Node31</title>
<g id="a_Node000031"><a xlink:href="../../da/dbd/class_slic3r_1_1_color_r_g_b.html#a254ddd451af3471e6c082b673f33e208" target="_top" xlink:title=" ">
<polygon fill="white" stroke="#666666" points="1038.38,-58.25 937.62,-58.25 937.62,-27.75 1038.38,-27.75 1038.38,-58.25"/>
<text text-anchor="start" x="945.62" y="-44.75" font-family="Helvetica,sans-Serif" font-size="10.00">Slic3r::ColorRGB::r</text>
<text text-anchor="middle" x="988" y="-33.5" font-family="Helvetica,sans-Serif" font-size="10.00">_uchar</text>
</a>
</g>
</g>
<!-- Node19&#45;&gt;Node31 -->
<g id="edge28_Node000019_Node000031" class="edge">
<title>Node19&#45;&gt;Node31</title>
<g id="a_edge28_Node000019_Node000031"><a xlink:title=" ">
<path fill="none" stroke="#63b8ff" d="M827.05,-119.35C851.43,-105.08 889.04,-83.87 923,-68 926.78,-66.23 930.73,-64.48 934.72,-62.77"/>
<polygon fill="#63b8ff" stroke="#63b8ff" points="935.78,-65.71 943.67,-58.64 933.09,-59.24 935.78,-65.71"/>
</a>
</g>
</g>
<!-- Node29&#45;&gt;Node11 -->
<g id="edge27_Node000029_Node000011" class="edge">
<title>Node29&#45;&gt;Node11</title>
<g id="a_edge27_Node000029_Node000011"><a xlink:title=" ">
<path fill="none" stroke="#63b8ff" d="M1053.35,-235.24C1061.4,-236.27 1069.68,-237.33 1077.88,-238.38"/>
<polygon fill="#63b8ff" stroke="#63b8ff" points="1077.21,-241.95 1087.57,-239.75 1078.1,-235.01 1077.21,-241.95"/>
</a>
</g>
</g>
</g>
</svg>
