<?xml version="1.0" encoding="UTF-8" standalone="no"?>
<!DOCTYPE svg PUBLIC "-//W3C//DTD SVG 1.1//EN"
 "http://www.w3.org/Graphics/SVG/1.1/DTD/svg11.dtd">
<!-- Generated by graphviz version 8.0.5 (20230430.1635)
 -->
<!-- Title: src/libigl/igl/writeMESH.cpp Pages: 1 -->
<svg width="719pt" height="248pt"
 viewBox="0.00 0.00 719.16 248.25" xmlns="http://www.w3.org/2000/svg" xmlns:xlink="http://www.w3.org/1999/xlink">
<g id="graph0" class="graph" transform="scale(1 1) rotate(0) translate(4 244.25)">
<title>src/libigl/igl/writeMESH.cpp</title>
<!-- Node1 -->
<g id="Node000001" class="node">
<title>Node1</title>
<g id="a_Node000001"><a xlink:title=" ">
<polygon fill="#999999" stroke="#666666" points="531.04,-240.25 394.29,-240.25 394.29,-221 531.04,-221 531.04,-240.25"/>
<text text-anchor="middle" x="462.66" y="-226.75" font-family="Helvetica,sans-Serif" font-size="10.00">src/libigl/igl/writeMESH.cpp</text>
</a>
</g>
</g>
<!-- Node2 -->
<g id="Node000002" class="node">
<title>Node2</title>
<g id="a_Node000002"><a xlink:href="../../dc/d2d/write_m_e_s_h_8h.html" target="_top" xlink:title=" ">
<polygon fill="white" stroke="#666666" points="457.91,-185 383.41,-185 383.41,-165.75 457.91,-165.75 457.91,-185"/>
<text text-anchor="middle" x="420.66" y="-171.5" font-family="Helvetica,sans-Serif" font-size="10.00">writeMESH.h</text>
</a>
</g>
</g>
<!-- Node1&#45;&gt;Node2 -->
<g id="edge1_Node000001_Node000002" class="edge">
<title>Node1&#45;&gt;Node2</title>
<g id="a_edge1_Node000001_Node000002"><a xlink:title=" ">
<path fill="none" stroke="#63b8ff" d="M450.56,-220.83C443.42,-213.71 434.89,-203.43 428.56,-194.55"/>
<polygon fill="#63b8ff" stroke="#63b8ff" points="430.95,-192.81 422.54,-186.36 425.09,-196.64 430.95,-192.81"/>
</a>
</g>
</g>
<!-- Node6 -->
<g id="Node000006" class="node">
<title>Node6</title>
<g id="a_Node000006"><a xlink:title=" ">
<polygon fill="#e0e0e0" stroke="#999999" points="363.04,-129.75 298.29,-129.75 298.29,-110.5 363.04,-110.5 363.04,-129.75"/>
<text text-anchor="middle" x="330.66" y="-116.25" font-family="Helvetica,sans-Serif" font-size="10.00">Eigen/Core</text>
</a>
</g>
</g>
<!-- Node1&#45;&gt;Node6 -->
<g id="edge29_Node000001_Node000006" class="edge">
<title>Node1&#45;&gt;Node6</title>
<g id="a_edge29_Node000001_Node000006"><a xlink:title=" ">
<path fill="none" stroke="#63b8ff" d="M437.14,-220.64C418.4,-213.16 393.11,-201.12 374.66,-185 359.96,-172.15 347.8,-153.35 340.01,-139.48"/>
<polygon fill="#63b8ff" stroke="#63b8ff" points="342.75,-138.17 334.94,-131.01 336.58,-141.48 342.75,-138.17"/>
</a>
</g>
</g>
<!-- Node7 -->
<g id="Node000007" class="node">
<title>Node7</title>
<g id="a_Node000007"><a xlink:href="../../dc/d29/verbose_8h.html" target="_top" xlink:title=" ">
<polygon fill="white" stroke="#666666" points="535.04,-185 476.29,-185 476.29,-165.75 535.04,-165.75 535.04,-185"/>
<text text-anchor="middle" x="505.66" y="-171.5" font-family="Helvetica,sans-Serif" font-size="10.00">verbose.h</text>
</a>
</g>
</g>
<!-- Node1&#45;&gt;Node7 -->
<g id="edge7_Node000001_Node000007" class="edge">
<title>Node1&#45;&gt;Node7</title>
<g id="a_edge7_Node000001_Node000007"><a xlink:title=" ">
<path fill="none" stroke="#63b8ff" d="M469.76,-220.83C475.7,-213.48 484.36,-202.76 491.68,-193.69"/>
<polygon fill="#63b8ff" stroke="#63b8ff" points="494.85,-196.34 498.41,-186.36 489.4,-191.94 494.85,-196.34"/>
</a>
</g>
</g>
<!-- Node8 -->
<g id="Node000008" class="node">
<title>Node8</title>
<g id="a_Node000008"><a xlink:title=" ">
<polygon fill="#e0e0e0" stroke="#999999" points="545.79,-74.5 503.54,-74.5 503.54,-55.25 545.79,-55.25 545.79,-74.5"/>
<text text-anchor="middle" x="524.66" y="-61" font-family="Helvetica,sans-Serif" font-size="10.00">cstdio</text>
</a>
</g>
</g>
<!-- Node1&#45;&gt;Node8 -->
<g id="edge32_Node000001_Node000008" class="edge">
<title>Node1&#45;&gt;Node8</title>
<g id="a_edge32_Node000001_Node000008"><a xlink:title=" ">
<path fill="none" stroke="#63b8ff" d="M495.32,-220.58C512.96,-213.85 533.21,-202.69 543.66,-185 562.32,-153.43 546.57,-109.32 534.75,-84.59"/>
<polygon fill="#63b8ff" stroke="#63b8ff" points="537.53,-83.33 529.88,-75.99 531.28,-86.49 537.53,-83.33"/>
</a>
</g>
</g>
<!-- Node9 -->
<g id="Node000009" class="node">
<title>Node9</title>
<g id="a_Node000009"><a xlink:href="../../d9/daa/list__to__matrix_8h.html" target="_top" xlink:title=" ">
<polygon fill="white" stroke="#666666" points="282.04,-185 199.29,-185 199.29,-165.75 282.04,-165.75 282.04,-185"/>
<text text-anchor="middle" x="240.66" y="-171.5" font-family="Helvetica,sans-Serif" font-size="10.00">list_to_matrix.h</text>
</a>
</g>
</g>
<!-- Node1&#45;&gt;Node9 -->
<g id="edge10_Node000001_Node000009" class="edge">
<title>Node1&#45;&gt;Node9</title>
<g id="a_edge10_Node000001_Node000009"><a xlink:title=" ">
<path fill="none" stroke="#63b8ff" d="M424.75,-220.53C387.24,-211.53 329.67,-197.73 288.92,-187.95"/>
<polygon fill="#63b8ff" stroke="#63b8ff" points="289.96,-184.36 279.42,-185.43 288.33,-191.17 289.96,-184.36"/>
</a>
</g>
</g>
<!-- Node17 -->
<g id="Node000017" class="node">
<title>Node17</title>
<g id="a_Node000017"><a xlink:title=" ">
<polygon fill="#e0e0e0" stroke="#999999" points="644.41,-185 590.91,-185 590.91,-165.75 644.41,-165.75 644.41,-185"/>
<text text-anchor="middle" x="617.66" y="-171.5" font-family="Helvetica,sans-Serif" font-size="10.00">iostream</text>
</a>
</g>
</g>
<!-- Node1&#45;&gt;Node17 -->
<g id="edge30_Node000001_Node000017" class="edge">
<title>Node1&#45;&gt;Node17</title>
<g id="a_edge30_Node000001_Node000017"><a xlink:title=" ">
<path fill="none" stroke="#63b8ff" d="M488.96,-220.59C514.23,-211.91 552.66,-198.71 580.94,-188.99"/>
<polygon fill="#63b8ff" stroke="#63b8ff" points="581.92,-192.01 590.24,-185.45 579.65,-185.39 581.92,-192.01"/>
</a>
</g>
</g>
<!-- Node18 -->
<g id="Node000018" class="node">
<title>Node18</title>
<g id="a_Node000018"><a xlink:title=" ">
<polygon fill="#e0e0e0" stroke="#999999" points="711.16,-185 662.16,-185 662.16,-165.75 711.16,-165.75 711.16,-185"/>
<text text-anchor="middle" x="686.66" y="-171.5" font-family="Helvetica,sans-Serif" font-size="10.00">fstream</text>
</a>
</g>
</g>
<!-- Node1&#45;&gt;Node18 -->
<g id="edge31_Node000001_Node000018" class="edge">
<title>Node1&#45;&gt;Node18</title>
<g id="a_edge31_Node000001_Node000018"><a xlink:title=" ">
<path fill="none" stroke="#63b8ff" d="M502.98,-220.53C539.42,-212.23 594.8,-199.45 651.26,-185.55"/>
<polygon fill="#63b8ff" stroke="#63b8ff" points="651.95,-188.74 660.82,-182.94 650.27,-181.95 651.95,-188.74"/>
</a>
</g>
</g>
<!-- Node2&#45;&gt;Node1 -->
<g id="edge6_Node000002_Node000001" class="edge">
<title>Node2&#45;&gt;Node1</title>
<g id="a_edge6_Node000002_Node000001"><a xlink:title=" ">
<path fill="none" stroke="#63b8ff" d="M432.96,-185.36C440.13,-192.54 448.65,-202.84 454.94,-211.69"/>
<polygon fill="#63b8ff" stroke="#63b8ff" points="452.5,-213.36 460.9,-219.83 458.37,-209.54 452.5,-213.36"/>
</a>
</g>
</g>
<!-- Node3 -->
<g id="Node000003" class="node">
<title>Node3</title>
<g id="a_Node000003"><a xlink:href="../../d6/d68/igl__inline_8h.html" target="_top" xlink:title=" ">
<polygon fill="white" stroke="#666666" points="273.54,-19.25 211.79,-19.25 211.79,0 273.54,0 273.54,-19.25"/>
<text text-anchor="middle" x="242.66" y="-5.75" font-family="Helvetica,sans-Serif" font-size="10.00">igl_inline.h</text>
</a>
</g>
</g>
<!-- Node2&#45;&gt;Node3 -->
<g id="edge2_Node000002_Node000003" class="edge">
<title>Node2&#45;&gt;Node3</title>
<g id="a_edge2_Node000002_Node000003"><a xlink:title=" ">
<path fill="none" stroke="#63b8ff" d="M415.78,-165.36C408.04,-151.81 391.75,-126.11 371.66,-110.5 339.59,-85.58 319.22,-100.07 287.66,-74.5 272.38,-62.11 259.97,-43.26 252.08,-29.24"/>
<polygon fill="#63b8ff" stroke="#63b8ff" points="254.76,-27.83 246.96,-20.65 248.59,-31.12 254.76,-27.83"/>
</a>
</g>
</g>
<!-- Node4 -->
<g id="Node000004" class="node">
<title>Node4</title>
<g id="a_Node000004"><a xlink:title=" ">
<polygon fill="#e0e0e0" stroke="#999999" points="496.66,-129.75 456.66,-129.75 456.66,-110.5 496.66,-110.5 496.66,-129.75"/>
<text text-anchor="middle" x="476.66" y="-116.25" font-family="Helvetica,sans-Serif" font-size="10.00">string</text>
</a>
</g>
</g>
<!-- Node2&#45;&gt;Node4 -->
<g id="edge3_Node000002_Node000004" class="edge">
<title>Node2&#45;&gt;Node4</title>
<g id="a_edge3_Node000002_Node000004"><a xlink:title=" ">
<path fill="none" stroke="#63b8ff" d="M430.16,-165.34C438.18,-157.72 449.85,-146.62 459.49,-137.45"/>
<polygon fill="#63b8ff" stroke="#63b8ff" points="461.47,-140.45 466.3,-131.02 456.65,-135.38 461.47,-140.45"/>
</a>
</g>
</g>
<!-- Node5 -->
<g id="Node000005" class="node">
<title>Node5</title>
<g id="a_Node000005"><a xlink:title=" ">
<polygon fill="#e0e0e0" stroke="#999999" points="429.16,-19.25 386.16,-19.25 386.16,0 429.16,0 429.16,-19.25"/>
<text text-anchor="middle" x="407.66" y="-5.75" font-family="Helvetica,sans-Serif" font-size="10.00">vector</text>
</a>
</g>
</g>
<!-- Node2&#45;&gt;Node5 -->
<g id="edge4_Node000002_Node000005" class="edge">
<title>Node2&#45;&gt;Node5</title>
<g id="a_edge4_Node000002_Node000005"><a xlink:title=" ">
<path fill="none" stroke="#63b8ff" d="M419.97,-165.57C417.95,-140.14 412.07,-66.1 409.23,-30.37"/>
<polygon fill="#63b8ff" stroke="#63b8ff" points="412.65,-30.16 408.37,-20.47 405.67,-30.72 412.65,-30.16"/>
</a>
</g>
</g>
<!-- Node2&#45;&gt;Node6 -->
<g id="edge5_Node000002_Node000006" class="edge">
<title>Node2&#45;&gt;Node6</title>
<g id="a_edge5_Node000002_Node000006"><a xlink:title=" ">
<path fill="none" stroke="#63b8ff" d="M405.4,-165.34C391.69,-157.23 371.33,-145.18 355.31,-135.71"/>
<polygon fill="#63b8ff" stroke="#63b8ff" points="357.4,-132.28 347.01,-130.2 353.83,-138.31 357.4,-132.28"/>
</a>
</g>
</g>
<!-- Node7&#45;&gt;Node4 -->
<g id="edge9_Node000007_Node000004" class="edge">
<title>Node7&#45;&gt;Node4</title>
<g id="a_edge9_Node000007_Node000004"><a xlink:title=" ">
<path fill="none" stroke="#63b8ff" d="M500.88,-165.58C497.04,-158.53 491.52,-148.4 486.72,-139.58"/>
<polygon fill="#63b8ff" stroke="#63b8ff" points="489.41,-138.22 481.56,-131.11 483.27,-141.57 489.41,-138.22"/>
</a>
</g>
</g>
<!-- Node7&#45;&gt;Node8 -->
<g id="edge8_Node000007_Node000008" class="edge">
<title>Node7&#45;&gt;Node8</title>
<g id="a_edge8_Node000007_Node000008"><a xlink:title=" ">
<path fill="none" stroke="#63b8ff" d="M507.22,-165.5C510.27,-148.09 517.09,-109.12 521.24,-85.41"/>
<polygon fill="#63b8ff" stroke="#63b8ff" points="524.81,-86.33 523.09,-75.88 517.92,-85.12 524.81,-86.33"/>
</a>
</g>
</g>
<!-- Node9&#45;&gt;Node3 -->
<g id="edge11_Node000009_Node000003" class="edge">
<title>Node9&#45;&gt;Node3</title>
<g id="a_edge11_Node000009_Node000003"><a xlink:title=" ">
<path fill="none" stroke="#63b8ff" d="M198.97,-168.86C118.78,-156.6 -44.26,-122.69 11.66,-55.25 37.46,-24.14 145.11,-27.22 200.92,-19.22"/>
<polygon fill="#63b8ff" stroke="#63b8ff" points="201.4,-22.52 210.67,-17.39 200.23,-15.61 201.4,-22.52"/>
</a>
</g>
</g>
<!-- Node9&#45;&gt;Node5 -->
<g id="edge12_Node000009_Node000005" class="edge">
<title>Node9&#45;&gt;Node5</title>
<g id="a_edge12_Node000009_Node000005"><a xlink:title=" ">
<path fill="none" stroke="#63b8ff" d="M245.56,-165.38C253.33,-151.86 269.65,-126.2 289.66,-110.5 320.98,-85.94 342.15,-101.21 371.66,-74.5 385.22,-62.23 394.89,-43.63 400.78,-29.66"/>
<polygon fill="#63b8ff" stroke="#63b8ff" points="404.31,-31.24 404.68,-20.65 397.79,-28.69 404.31,-31.24"/>
</a>
</g>
</g>
<!-- Node9&#45;&gt;Node6 -->
<g id="edge13_Node000009_Node000006" class="edge">
<title>Node9&#45;&gt;Node6</title>
<g id="a_edge13_Node000009_Node000006"><a xlink:title=" ">
<path fill="none" stroke="#63b8ff" d="M255.93,-165.34C269.64,-157.23 290,-145.18 306.01,-135.71"/>
<polygon fill="#63b8ff" stroke="#63b8ff" points="307.5,-138.31 314.32,-130.2 303.93,-132.28 307.5,-138.31"/>
</a>
</g>
</g>
<!-- Node10 -->
<g id="Node000010" class="node">
<title>Node10</title>
<g id="a_Node000010"><a xlink:href="../../d6/df3/list__to__matrix_8cpp.html" target="_top" xlink:title=" ">
<polygon fill="white" stroke="#666666" points="242.29,-129.75 149.04,-129.75 149.04,-110.5 242.29,-110.5 242.29,-129.75"/>
<text text-anchor="middle" x="195.66" y="-116.25" font-family="Helvetica,sans-Serif" font-size="10.00">list_to_matrix.cpp</text>
</a>
</g>
</g>
<!-- Node9&#45;&gt;Node10 -->
<g id="edge14_Node000009_Node000010" class="edge">
<title>Node9&#45;&gt;Node10</title>
<g id="a_edge14_Node000009_Node000010"><a xlink:title=" ">
<path fill="none" stroke="#63b8ff" d="M227.81,-165.34C220.19,-158.11 211.03,-147.74 204.24,-138.86"/>
<polygon fill="#63b8ff" stroke="#63b8ff" points="206.63,-137.17 198,-131.02 200.92,-141.21 206.63,-137.17"/>
</a>
</g>
</g>
<!-- Node10&#45;&gt;Node8 -->
<g id="edge17_Node000010_Node000008" class="edge">
<title>Node10&#45;&gt;Node8</title>
<g id="a_edge17_Node000010_Node000008"><a xlink:title=" ">
<path fill="none" stroke="#63b8ff" d="M242.45,-111.55C310.31,-100.57 434.29,-80.5 492.66,-71.06"/>
<polygon fill="#63b8ff" stroke="#63b8ff" points="493.11,-74.37 502.42,-69.31 491.99,-67.46 493.11,-74.37"/>
</a>
</g>
</g>
<!-- Node10&#45;&gt;Node9 -->
<g id="edge15_Node000010_Node000009" class="edge">
<title>Node10&#45;&gt;Node9</title>
<g id="a_edge15_Node000010_Node000009"><a xlink:title=" ">
<path fill="none" stroke="#63b8ff" d="M208.46,-130.11C216.12,-137.37 225.34,-147.81 232.15,-156.72"/>
<polygon fill="#63b8ff" stroke="#63b8ff" points="229.77,-158.43 238.4,-164.58 235.49,-154.39 229.77,-158.43"/>
</a>
</g>
</g>
<!-- Node11 -->
<g id="Node000011" class="node">
<title>Node11</title>
<g id="a_Node000011"><a xlink:title=" ">
<polygon fill="#e0e0e0" stroke="#999999" points="68.79,-74.5 20.54,-74.5 20.54,-55.25 68.79,-55.25 68.79,-74.5"/>
<text text-anchor="middle" x="44.66" y="-61" font-family="Helvetica,sans-Serif" font-size="10.00">cassert</text>
</a>
</g>
</g>
<!-- Node10&#45;&gt;Node11 -->
<g id="edge16_Node000010_Node000011" class="edge">
<title>Node10&#45;&gt;Node11</title>
<g id="a_edge16_Node000010_Node000011"><a xlink:title=" ">
<path fill="none" stroke="#63b8ff" d="M170.05,-110.09C145.05,-101.28 106.86,-87.81 79.19,-78.05"/>
<polygon fill="#63b8ff" stroke="#63b8ff" points="80.75,-74.54 70.15,-74.51 78.42,-81.14 80.75,-74.54"/>
</a>
</g>
</g>
<!-- Node12 -->
<g id="Node000012" class="node">
<title>Node12</title>
<g id="a_Node000012"><a xlink:title=" ">
<polygon fill="#e0e0e0" stroke="#999999" points="158.79,-74.5 86.54,-74.5 86.54,-55.25 158.79,-55.25 158.79,-74.5"/>
<text text-anchor="middle" x="122.66" y="-61" font-family="Helvetica,sans-Serif" font-size="10.00">Eigen/Dense</text>
</a>
</g>
</g>
<!-- Node10&#45;&gt;Node12 -->
<g id="edge18_Node000010_Node000012" class="edge">
<title>Node10&#45;&gt;Node12</title>
<g id="a_edge18_Node000010_Node000012"><a xlink:title=" ">
<path fill="none" stroke="#63b8ff" d="M183.28,-110.09C172.41,-102.16 156.38,-90.47 143.54,-81.1"/>
<polygon fill="#63b8ff" stroke="#63b8ff" points="146.01,-77.84 135.86,-74.77 141.88,-83.5 146.01,-77.84"/>
</a>
</g>
</g>
<!-- Node13 -->
<g id="Node000013" class="node">
<title>Node13</title>
<g id="a_Node000013"><a xlink:href="../../d3/d08/max__size_8h.html" target="_top" xlink:title=" ">
<polygon fill="white" stroke="#666666" points="362.79,-74.5 296.54,-74.5 296.54,-55.25 362.79,-55.25 362.79,-74.5"/>
<text text-anchor="middle" x="329.66" y="-61" font-family="Helvetica,sans-Serif" font-size="10.00">max_size.h</text>
</a>
</g>
</g>
<!-- Node10&#45;&gt;Node13 -->
<g id="edge19_Node000010_Node000013" class="edge">
<title>Node10&#45;&gt;Node13</title>
<g id="a_edge19_Node000010_Node000013"><a xlink:title=" ">
<path fill="none" stroke="#63b8ff" d="M218.4,-110.09C239.86,-101.56 272.3,-88.67 296.62,-79.01"/>
<polygon fill="#63b8ff" stroke="#63b8ff" points="297.82,-81.9 305.82,-74.95 295.24,-75.39 297.82,-81.9"/>
</a>
</g>
</g>
<!-- Node15 -->
<g id="Node000015" class="node">
<title>Node15</title>
<g id="a_Node000015"><a xlink:href="../../d6/d17/min__size_8h.html" target="_top" xlink:title=" ">
<polygon fill="white" stroke="#666666" points="240.29,-74.5 177.04,-74.5 177.04,-55.25 240.29,-55.25 240.29,-74.5"/>
<text text-anchor="middle" x="208.66" y="-61" font-family="Helvetica,sans-Serif" font-size="10.00">min_size.h</text>
</a>
</g>
</g>
<!-- Node10&#45;&gt;Node15 -->
<g id="edge24_Node000010_Node000015" class="edge">
<title>Node10&#45;&gt;Node15</title>
<g id="a_edge24_Node000010_Node000015"><a xlink:title=" ">
<path fill="none" stroke="#63b8ff" d="M197.81,-110.33C199.46,-103.59 201.79,-94.02 203.88,-85.49"/>
<polygon fill="#63b8ff" stroke="#63b8ff" points="207.5,-86.4 206.47,-75.86 200.7,-84.74 207.5,-86.4"/>
</a>
</g>
</g>
<!-- Node13&#45;&gt;Node3 -->
<g id="edge20_Node000013_Node000003" class="edge">
<title>Node13&#45;&gt;Node3</title>
<g id="a_edge20_Node000013_Node000003"><a xlink:title=" ">
<path fill="none" stroke="#63b8ff" d="M314.91,-54.84C301.66,-46.73 281.97,-34.68 266.49,-25.21"/>
<polygon fill="#63b8ff" stroke="#63b8ff" points="268.85,-21.94 258.5,-19.7 265.2,-27.91 268.85,-21.94"/>
</a>
</g>
</g>
<!-- Node13&#45;&gt;Node5 -->
<g id="edge21_Node000013_Node000005" class="edge">
<title>Node13&#45;&gt;Node5</title>
<g id="a_edge21_Node000013_Node000005"><a xlink:title=" ">
<path fill="none" stroke="#63b8ff" d="M342.9,-54.84C354.55,-46.89 371.76,-35.14 385.51,-25.75"/>
<polygon fill="#63b8ff" stroke="#63b8ff" points="387.08,-28.23 393.37,-19.7 383.14,-22.45 387.08,-28.23"/>
</a>
</g>
</g>
<!-- Node14 -->
<g id="Node000014" class="node">
<title>Node14</title>
<g id="a_Node000014"><a xlink:href="../../da/d18/max__size_8cpp.html" target="_top" xlink:title=" ">
<polygon fill="white" stroke="#666666" points="368.04,-19.25 291.29,-19.25 291.29,0 368.04,0 368.04,-19.25"/>
<text text-anchor="middle" x="329.66" y="-5.75" font-family="Helvetica,sans-Serif" font-size="10.00">max_size.cpp</text>
</a>
</g>
</g>
<!-- Node13&#45;&gt;Node14 -->
<g id="edge22_Node000013_Node000014" class="edge">
<title>Node13&#45;&gt;Node14</title>
<g id="a_edge22_Node000013_Node000014"><a xlink:title=" ">
<path fill="none" stroke="#63b8ff" d="M324.5,-55.08C323.06,-48.34 322.6,-38.77 323.13,-30.24"/>
<polygon fill="#63b8ff" stroke="#63b8ff" points="326.69,-30.97 324.46,-20.61 319.74,-30.1 326.69,-30.97"/>
</a>
</g>
</g>
<!-- Node14&#45;&gt;Node13 -->
<g id="edge23_Node000014_Node000013" class="edge">
<title>Node14&#45;&gt;Node13</title>
<g id="a_edge23_Node000014_Node000013"><a xlink:title=" ">
<path fill="none" stroke="#63b8ff" d="M334.87,-19.61C336.28,-26.33 336.72,-35.77 336.21,-44.21"/>
<polygon fill="#63b8ff" stroke="#63b8ff" points="332.61,-43.72 334.83,-54.08 339.56,-44.6 332.61,-43.72"/>
</a>
</g>
</g>
<!-- Node15&#45;&gt;Node3 -->
<g id="edge25_Node000015_Node000003" class="edge">
<title>Node15&#45;&gt;Node3</title>
<g id="a_edge25_Node000015_Node000003"><a xlink:title=" ">
<path fill="none" stroke="#63b8ff" d="M214.28,-55.08C218.83,-47.96 225.39,-37.68 231.06,-28.8"/>
<polygon fill="#63b8ff" stroke="#63b8ff" points="234.5,-30.92 236.93,-20.61 228.6,-27.15 234.5,-30.92"/>
</a>
</g>
</g>
<!-- Node15&#45;&gt;Node5 -->
<g id="edge26_Node000015_Node000005" class="edge">
<title>Node15&#45;&gt;Node5</title>
<g id="a_edge26_Node000015_Node000005"><a xlink:title=" ">
<path fill="none" stroke="#63b8ff" d="M240.59,-55.51C272.29,-47.19 322.56,-33.91 375.4,-19.57"/>
<polygon fill="#63b8ff" stroke="#63b8ff" points="376.26,-22.69 384.99,-16.69 374.43,-15.94 376.26,-22.69"/>
</a>
</g>
</g>
<!-- Node16 -->
<g id="Node000016" class="node">
<title>Node16</title>
<g id="a_Node000016"><a xlink:href="../../d3/d52/min__size_8cpp.html" target="_top" xlink:title=" ">
<polygon fill="white" stroke="#666666" points="193.54,-19.25 119.79,-19.25 119.79,0 193.54,0 193.54,-19.25"/>
<text text-anchor="middle" x="156.66" y="-5.75" font-family="Helvetica,sans-Serif" font-size="10.00">min_size.cpp</text>
</a>
</g>
</g>
<!-- Node15&#45;&gt;Node16 -->
<g id="edge27_Node000015_Node000016" class="edge">
<title>Node15&#45;&gt;Node16</title>
<g id="a_edge27_Node000015_Node000016"><a xlink:title=" ">
<path fill="none" stroke="#63b8ff" d="M194.63,-54.84C185.87,-47.45 175.08,-36.79 167.07,-27.79"/>
<polygon fill="#63b8ff" stroke="#63b8ff" points="169.26,-25.96 160.17,-20.52 163.89,-30.44 169.26,-25.96"/>
</a>
</g>
</g>
<!-- Node16&#45;&gt;Node15 -->
<g id="edge28_Node000016_Node000015" class="edge">
<title>Node16&#45;&gt;Node15</title>
<g id="a_edge28_Node000016_Node000015"><a xlink:title=" ">
<path fill="none" stroke="#63b8ff" d="M170.64,-19.61C179.44,-27.02 190.3,-37.75 198.33,-46.79"/>
<polygon fill="#63b8ff" stroke="#63b8ff" points="196.15,-48.64 205.24,-54.08 201.53,-44.16 196.15,-48.64"/>
</a>
</g>
</g>
</g>
</svg>
