<?xml version="1.0" encoding="UTF-8" standalone="no"?>
<!DOCTYPE svg PUBLIC "-//W3C//DTD SVG 1.1//EN"
 "http://www.w3.org/Graphics/SVG/1.1/DTD/svg11.dtd">
<!-- Generated by graphviz version 8.0.5 (20230430.1635)
 -->
<!-- Title: Slic3r::GUI::BitmapCache::load_png Pages: 1 -->
<svg width="470pt" height="180pt"
 viewBox="0.00 0.00 470.00 179.88" xmlns="http://www.w3.org/2000/svg" xmlns:xlink="http://www.w3.org/1999/xlink">

<svg id="main" version="1.1" xmlns="http://www.w3.org/2000/svg" xmlns:xlink="http://www.w3.org/1999/xlink" xml:space="preserve" onload="init(evt)">
<style type="text/css"><![CDATA[
.node, .edge {opacity: 0.7;}
.node.selected, .edge.selected {opacity: 1;}
.edge:hover path { stroke: red; }
.edge:hover polygon { stroke: red; fill: red; }
]]></style>
<script type="application/ecmascript" xlink:href="../../svg.min.js"/>
<svg id="graph" class="graph">
<g id="graph0" class="graph" transform="scale(1 1) rotate(0) translate(4 175.88)">
<title>Slic3r::GUI::BitmapCache::load_png</title>
<!-- Node1 -->
<g id="Node000001" class="node">
<title>Node1</title>
<g id="a_Node000001"><a xlink:title=" ">
<polygon fill="#999999" stroke="#666666" points="130,-94.5 0,-94.5 0,-64 130,-64 130,-94.5"/>
<text text-anchor="start" x="8" y="-81" font-family="Helvetica,sans-Serif" font-size="10.00">Slic3r::GUI::BitmapCache</text>
<text text-anchor="middle" x="65" y="-69.75" font-family="Helvetica,sans-Serif" font-size="10.00">::load_png</text>
</a>
</g>
</g>
<!-- Node2 -->
<g id="Node000002" class="node">
<title>Node2</title>
<g id="a_Node000002"><a xlink:href="../../d9/d45/namespace_slic3r_1_1_g_u_i.html#ac911e01665ff9c00414a1d5d0352de74" target="_top" xlink:title=" ">
<polygon fill="white" stroke="#666666" points="284,-153.88 178,-153.88 178,-134.62 284,-134.62 284,-153.88"/>
<text text-anchor="middle" x="231" y="-140.38" font-family="Helvetica,sans-Serif" font-size="10.00">Slic3r::GUI::from_u8</text>
</a>
</g>
</g>
<!-- Node1&#45;&gt;Node2 -->
<g id="edge1_Node000001_Node000002" class="edge">
<title>Node1&#45;&gt;Node2</title>
<g id="a_edge1_Node000001_Node000002"><a xlink:title=" ">
<path fill="none" stroke="#63b8ff" d="M97.04,-94.92C116.54,-104.41 142.39,-116.37 166,-125.25 171.36,-127.27 177.03,-129.21 182.69,-131.04"/>
<polygon fill="#63b8ff" stroke="#63b8ff" points="181.22,-134.56 191.81,-134.19 183.3,-127.87 181.22,-134.56"/>
</a>
</g>
</g>
<!-- Node3 -->
<g id="Node000003" class="node">
<title>Node3</title>
<g id="a_Node000003"><a xlink:href="../../d8/d95/class_slic3r_1_1_g_u_i_1_1_bitmap_cache.html#a32bdeb67c103d405754c96fd18c43172" target="_top" xlink:title=" ">
<polygon fill="white" stroke="#666666" points="296,-116.5 166,-116.5 166,-86 296,-86 296,-116.5"/>
<text text-anchor="start" x="174" y="-103" font-family="Helvetica,sans-Serif" font-size="10.00">Slic3r::GUI::BitmapCache</text>
<text text-anchor="middle" x="231" y="-91.75" font-family="Helvetica,sans-Serif" font-size="10.00">::insert</text>
</a>
</g>
</g>
<!-- Node1&#45;&gt;Node3 -->
<g id="edge3_Node000001_Node000003" class="edge">
<title>Node1&#45;&gt;Node3</title>
<g id="a_edge3_Node000001_Node000003"><a xlink:title=" ">
<path fill="none" stroke="#63b8ff" d="M130.35,-87.88C138.4,-88.96 146.68,-90.07 154.88,-91.17"/>
<polygon fill="#63b8ff" stroke="#63b8ff" points="154.19,-94.75 164.57,-92.61 155.12,-87.81 154.19,-94.75"/>
</a>
</g>
</g>
<!-- Node5 -->
<g id="Node000005" class="node">
<title>Node5</title>
<g id="a_Node000005"><a xlink:href="../../de/db8/namespace_slic3r.html#a03e9f0fb364689f42c2ac979bf74a185" target="_top" xlink:title=" ">
<polygon fill="white" stroke="#666666" points="261.12,-67.88 200.88,-67.88 200.88,-48.62 261.12,-48.62 261.12,-67.88"/>
<text text-anchor="middle" x="231" y="-54.38" font-family="Helvetica,sans-Serif" font-size="10.00">Slic3r::var</text>
</a>
</g>
</g>
<!-- Node1&#45;&gt;Node5 -->
<g id="edge5_Node000001_Node000005" class="edge">
<title>Node1&#45;&gt;Node5</title>
<g id="a_edge5_Node000001_Node000005"><a xlink:title=" ">
<path fill="none" stroke="#63b8ff" d="M130.35,-71.01C150.32,-68.45 171.75,-65.71 189.61,-63.42"/>
<polygon fill="#63b8ff" stroke="#63b8ff" points="190.02,-66.77 199.5,-62.03 189.13,-59.83 190.02,-66.77"/>
</a>
</g>
</g>
<!-- Node6 -->
<g id="Node000006" class="node">
<title>Node6</title>
<g id="a_Node000006"><a xlink:href="../../d9/d45/namespace_slic3r_1_1_g_u_i.html#a335817b838dadf09b1a98925a4fa5dab" target="_top" xlink:title=" ">
<polygon fill="white" stroke="#666666" points="296,-30.5 166,-30.5 166,0 296,0 296,-30.5"/>
<text text-anchor="start" x="174" y="-17" font-family="Helvetica,sans-Serif" font-size="10.00">Slic3r::GUI::wxImage</text>
<text text-anchor="middle" x="231" y="-5.75" font-family="Helvetica,sans-Serif" font-size="10.00">_to_wxBitmap_with_alpha</text>
</a>
</g>
</g>
<!-- Node1&#45;&gt;Node6 -->
<g id="edge6_Node000001_Node000006" class="edge">
<title>Node1&#45;&gt;Node6</title>
<g id="a_edge6_Node000001_Node000006"><a xlink:title=" ">
<path fill="none" stroke="#63b8ff" d="M104.39,-63.67C122.96,-56.19 145.6,-47.15 166,-39.25 169.7,-37.82 173.53,-36.35 177.39,-34.87"/>
<polygon fill="#63b8ff" stroke="#63b8ff" points="178.5,-37.82 186.61,-31 176.02,-31.27 178.5,-37.82"/>
</a>
</g>
</g>
<!-- Node2&#45;&gt;Node2 -->
<g id="edge2_Node000002_Node000002" class="edge">
<title>Node2&#45;&gt;Node2</title>
<g id="a_edge2_Node000002_Node000002"><a xlink:title=" ">
<path fill="none" stroke="#63b8ff" d="M205.01,-154.16C193.16,-162.77 201.82,-171.88 231,-171.88 248.33,-171.88 258.42,-168.67 261.28,-164.26"/>
<polygon fill="#63b8ff" stroke="#63b8ff" points="264.12,-163 256.99,-155.16 257.68,-165.74 264.12,-163"/>
</a>
</g>
</g>
<!-- Node4 -->
<g id="Node000004" class="node">
<title>Node4</title>
<g id="a_Node000004"><a xlink:href="../../d8/d95/class_slic3r_1_1_g_u_i_1_1_bitmap_cache.html#a36f6a17ceacdaf2b99f64892a65b7239" target="_top" xlink:title=" ">
<polygon fill="white" stroke="#666666" points="462,-116.5 332,-116.5 332,-86 462,-86 462,-116.5"/>
<text text-anchor="start" x="340" y="-103" font-family="Helvetica,sans-Serif" font-size="10.00">Slic3r::GUI::BitmapCache</text>
<text text-anchor="middle" x="397" y="-91.75" font-family="Helvetica,sans-Serif" font-size="10.00">::scale</text>
</a>
</g>
</g>
<!-- Node3&#45;&gt;Node4 -->
<g id="edge4_Node000003_Node000004" class="edge">
<title>Node3&#45;&gt;Node4</title>
<g id="a_edge4_Node000003_Node000004"><a xlink:title=" ">
<path fill="none" stroke="#63b8ff" d="M296.35,-101.25C304.31,-101.25 312.5,-101.25 320.6,-101.25"/>
<polygon fill="#63b8ff" stroke="#63b8ff" points="320.57,-104.75 330.57,-101.25 320.57,-97.75 320.57,-104.75"/>
</a>
</g>
</g>
<!-- Node7 -->
<g id="Node000007" class="node">
<title>Node7</title>
<g id="a_Node000007"><a xlink:href="../../d6/dba/_wipe_tower_dialog_8cpp.html#a031c2862b832be718b216d1f101f88cd" target="_top" xlink:title=" ">
<polygon fill="white" stroke="#666666" points="416.62,-24.88 377.38,-24.88 377.38,-5.62 416.62,-5.62 416.62,-24.88"/>
<text text-anchor="middle" x="397" y="-11.38" font-family="Helvetica,sans-Serif" font-size="10.00">scale</text>
</a>
</g>
</g>
<!-- Node6&#45;&gt;Node7 -->
<g id="edge7_Node000006_Node000007" class="edge">
<title>Node6&#45;&gt;Node7</title>
<g id="a_edge7_Node000006_Node000007"><a xlink:title=" ">
<path fill="none" stroke="#63b8ff" d="M296.35,-15.25C320.39,-15.25 346.56,-15.25 366.04,-15.25"/>
<polygon fill="#63b8ff" stroke="#63b8ff" points="365.95,-18.75 375.95,-15.25 365.95,-11.75 365.95,-18.75"/>
</a>
</g>
</g>
</g>
</svg>
</svg>

<style type='text/css'>
<![CDATA[
[data-mouse-over-selected='false'] { opacity: 0.7; }
[data-mouse-over-selected='true']  { opacity: 1.0; }
]]>
</style>
<script type="application/ecmascript"><![CDATA[
document.addEventListener('DOMContentLoaded', (event) => {
  highlightEdges();
  highlightAdjacentNodes();
});
]]></script>
</svg>
