<?xml version="1.0" encoding="UTF-8" standalone="no"?>
<!DOCTYPE svg PUBLIC "-//W3C//DTD SVG 1.1//EN"
 "http://www.w3.org/Graphics/SVG/1.1/DTD/svg11.dtd">
<!-- Generated by graphviz version 8.0.5 (20230430.1635)
 -->
<!-- Title: Slic3r::GUI::BitmapCache::scale Pages: 1 -->
<!--zoomable 575 -->

<svg id="main" version="1.1" xmlns="http://www.w3.org/2000/svg" xmlns:xlink="http://www.w3.org/1999/xlink" xml:space="preserve" onload="init(evt)">
<style type="text/css"><![CDATA[
.node, .edge {opacity: 0.7;}
.node.selected, .edge.selected {opacity: 1;}
.edge:hover path { stroke: red; }
.edge:hover polygon { stroke: red; fill: red; }
]]></style>

<defs>
  <circle id="rim" cx="0" cy="0" r="7"/>
  <circle id="rim2" cx="0" cy="0" r="3.5"/>
  <g id="zoomPlus">
    <use xlink:href="#rim" fill="#404040"><set attributeName="fill" to="#808080" begin="zoomplus.mouseover" end="zoomplus.mouseout"/></use>
    <path d="M-4,0h8M0,-4v8" fill="none" stroke="white" stroke-width="1.5" pointer-events="none"/>
  </g>
  <g id="zoomMin">
    <use xlink:href="#rim" fill="#404040"><set attributeName="fill" to="#808080" begin="zoomminus.mouseover" end="zoomminus.mouseout"/></use>
    <path d="M-4,0h8" fill="none" stroke="white" stroke-width="1.5" pointer-events="none"/>
  </g>
  <g id="arrowUp" transform="translate(30 24)">
    <use xlink:href="#rim"/>
    <path pointer-events="none" fill="none" stroke="white" stroke-width="1.5" d="M0,-3.0v7 M-2.5,-0.5L0,-3.0L2.5,-0.5"/>
  </g>
  <g id="arrowRight" transform="rotate(90) translate(36 -43)">
    <use xlink:href="#rim"/>
    <path pointer-events="none" fill="none" stroke="white" stroke-width="1.5" d="M0,-3.0v7 M-2.5,-0.5L0,-3.0L2.5,-0.5"/>
  </g>
  <g id="arrowDown" transform="rotate(180) translate(-30 -48)">
    <use xlink:href="#rim"/>
    <path pointer-events="none" fill="none" stroke="white" stroke-width="1.5" d="M0,-3.0v7 M-2.5,-0.5L0,-3.0L2.5,-0.5"/>
  </g>
  <g id="arrowLeft" transform="rotate(270) translate(-36 17)">
    <use xlink:href="#rim"/>
    <path pointer-events="none" fill="none" stroke="white" stroke-width="1.5" d="M0,-3.0v7 M-2.5,-0.5L0,-3.0L2.5,-0.5"/>
  </g>
  <g id="resetDef">
    <use xlink:href="#rim2" fill="#404040"><set attributeName="fill" to="#808080" begin="reset.mouseover" end="reset.mouseout"/></use>
  </g>
</defs>
<script type="application/ecmascript">
var viewWidth = 1221;
var viewHeight = 575;
var sectionId = 'dynsection-32';
</script>
<script type="application/ecmascript" xlink:href="../../svg.min.js"/>
<svg id="graph" class="graph">
<g id="viewport">
<title>Slic3r::GUI::BitmapCache::scale</title>
<!-- Node1 -->
<g id="Node000001" class="node">
<title>Node1</title>
<g id="a_Node000001"><a xlink:title=" ">
<polygon fill="#999999" stroke="#666666" points="1213,-517.5 1083,-517.5 1083,-487 1213,-487 1213,-517.5"/>
<text text-anchor="start" x="1091" y="-504" font-family="Helvetica,sans-Serif" font-size="10.00">Slic3r::GUI::BitmapCache</text>
<text text-anchor="middle" x="1148" y="-492.75" font-family="Helvetica,sans-Serif" font-size="10.00">::scale</text>
</a>
</g>
</g>
<!-- Node2 -->
<g id="Node000002" class="node">
<title>Node2</title>
<g id="a_Node000002"><a xlink:href="../../d8/d95/class_slic3r_1_1_g_u_i_1_1_bitmap_cache.html#a32bdeb67c103d405754c96fd18c43172" target="_top" xlink:title=" ">
<polygon fill="white" stroke="#666666" points="1047,-517.5 917,-517.5 917,-487 1047,-487 1047,-517.5"/>
<text text-anchor="start" x="925" y="-504" font-family="Helvetica,sans-Serif" font-size="10.00">Slic3r::GUI::BitmapCache</text>
<text text-anchor="middle" x="982" y="-492.75" font-family="Helvetica,sans-Serif" font-size="10.00">::insert</text>
</a>
</g>
</g>
<!-- Node1&#45;&gt;Node2 -->
<g id="edge1_Node000001_Node000002" class="edge">
<title>Node1&#45;&gt;Node2</title>
<g id="a_edge1_Node000001_Node000002"><a xlink:title=" ">
<path fill="none" stroke="#63b8ff" d="M1071.69,-502.25C1063.58,-502.25 1055.39,-502.25 1047.43,-502.25"/>
<polygon fill="#63b8ff" stroke="#63b8ff" points="1071.65,-505.75 1081.65,-502.25 1071.65,-498.75 1071.65,-505.75"/>
</a>
</g>
</g>
<!-- Node3 -->
<g id="Node000003" class="node">
<title>Node3</title>
<g id="a_Node000003"><a xlink:href="../../d8/d95/class_slic3r_1_1_g_u_i_1_1_bitmap_cache.html#af953aaaca46832c058afef0d902200d8" target="_top" xlink:title=" ">
<polygon fill="white" stroke="#666666" points="881,-566.5 751,-566.5 751,-536 881,-536 881,-566.5"/>
<text text-anchor="start" x="759" y="-553" font-family="Helvetica,sans-Serif" font-size="10.00">Slic3r::GUI::BitmapCache</text>
<text text-anchor="middle" x="816" y="-541.75" font-family="Helvetica,sans-Serif" font-size="10.00">::insert_bndl</text>
</a>
</g>
</g>
<!-- Node1&#45;&gt;Node3 -->
<g id="edge8_Node000001_Node000003" class="edge">
<title>Node1&#45;&gt;Node3</title>
<g id="a_edge8_Node000001_Node000003"><a xlink:title=" ">
<path fill="none" stroke="#63b8ff" d="M1076.4,-520.38C1066.57,-522.55 1056.56,-524.59 1047,-526.25 991.4,-535.9 927.55,-542.49 881.25,-546.47"/>
<polygon fill="#63b8ff" stroke="#63b8ff" points="1077,-523.6 1085.97,-517.97 1075.45,-516.77 1077,-523.6"/>
</a>
</g>
</g>
<!-- Node9 -->
<g id="Node000009" class="node">
<title>Node9</title>
<g id="a_Node000009"><a xlink:href="../../d8/d95/class_slic3r_1_1_g_u_i_1_1_bitmap_cache.html#a5224e7145249f9e8ebe85513891f77d4" target="_top" xlink:title=" ">
<polygon fill="white" stroke="#666666" points="1047,-444.5 917,-444.5 917,-414 1047,-414 1047,-444.5"/>
<text text-anchor="start" x="925" y="-431" font-family="Helvetica,sans-Serif" font-size="10.00">Slic3r::GUI::BitmapCache</text>
<text text-anchor="middle" x="982" y="-419.75" font-family="Helvetica,sans-Serif" font-size="10.00">::mksolid</text>
</a>
</g>
</g>
<!-- Node1&#45;&gt;Node9 -->
<g id="edge9_Node000001_Node000009" class="edge">
<title>Node1&#45;&gt;Node9</title>
<g id="a_edge9_Node000001_Node000009"><a xlink:title=" ">
<path fill="none" stroke="#63b8ff" d="M1102.03,-482.23C1075.59,-470.46 1042.65,-455.8 1018.12,-444.88"/>
<polygon fill="#63b8ff" stroke="#63b8ff" points="1100.26,-485.72 1110.82,-486.59 1103.11,-479.33 1100.26,-485.72"/>
</a>
</g>
</g>
<!-- Node2&#45;&gt;Node3 -->
<g id="edge2_Node000002_Node000003" class="edge">
<title>Node2&#45;&gt;Node3</title>
<g id="a_edge2_Node000002_Node000003"><a xlink:title=" ">
<path fill="none" stroke="#63b8ff" d="M918.3,-520.98C902.25,-525.78 885.17,-530.88 869.69,-535.51"/>
<polygon fill="#63b8ff" stroke="#63b8ff" points="919.08,-524.1 927.66,-517.89 917.08,-517.4 919.08,-524.1"/>
</a>
</g>
</g>
<!-- Node4 -->
<g id="Node000004" class="node">
<title>Node4</title>
<g id="a_Node000004"><a xlink:href="../../d8/d95/class_slic3r_1_1_g_u_i_1_1_bitmap_cache.html#a6a62c163a6bab25fcb73d8726a5d3895" target="_top" xlink:title=" ">
<polygon fill="white" stroke="#666666" points="881,-517.5 751,-517.5 751,-487 881,-487 881,-517.5"/>
<text text-anchor="start" x="759" y="-504" font-family="Helvetica,sans-Serif" font-size="10.00">Slic3r::GUI::BitmapCache</text>
<text text-anchor="middle" x="816" y="-492.75" font-family="Helvetica,sans-Serif" font-size="10.00">::insert_raw_rgba</text>
</a>
</g>
</g>
<!-- Node2&#45;&gt;Node4 -->
<g id="edge3_Node000002_Node000004" class="edge">
<title>Node2&#45;&gt;Node4</title>
<g id="a_edge3_Node000002_Node000004"><a xlink:title=" ">
<path fill="none" stroke="#63b8ff" d="M905.69,-502.25C897.58,-502.25 889.39,-502.25 881.43,-502.25"/>
<polygon fill="#63b8ff" stroke="#63b8ff" points="905.65,-505.75 915.65,-502.25 905.65,-498.75 905.65,-505.75"/>
</a>
</g>
</g>
<!-- Node8 -->
<g id="Node000008" class="node">
<title>Node8</title>
<g id="a_Node000008"><a xlink:href="../../d8/d95/class_slic3r_1_1_g_u_i_1_1_bitmap_cache.html#a1174e9e4d06aebe14d9d2d45e1b64c4f" target="_top" xlink:title=" ">
<polygon fill="white" stroke="#666666" points="881,-468.5 751,-468.5 751,-438 881,-438 881,-468.5"/>
<text text-anchor="start" x="759" y="-455" font-family="Helvetica,sans-Serif" font-size="10.00">Slic3r::GUI::BitmapCache</text>
<text text-anchor="middle" x="816" y="-443.75" font-family="Helvetica,sans-Serif" font-size="10.00">::load_png</text>
</a>
</g>
</g>
<!-- Node2&#45;&gt;Node8 -->
<g id="edge7_Node000002_Node000008" class="edge">
<title>Node2&#45;&gt;Node8</title>
<g id="a_edge7_Node000002_Node000008"><a xlink:title=" ">
<path fill="none" stroke="#63b8ff" d="M918.3,-483.52C902.25,-478.72 885.17,-473.62 869.69,-468.99"/>
<polygon fill="#63b8ff" stroke="#63b8ff" points="917.08,-487.1 927.66,-486.61 919.08,-480.4 917.08,-487.1"/>
</a>
</g>
</g>
<!-- Node5 -->
<g id="Node000005" class="node">
<title>Node5</title>
<g id="a_Node000005"><a xlink:href="../../d8/d95/class_slic3r_1_1_g_u_i_1_1_bitmap_cache.html#add49ee51fc9e024f8e1ecb0f2870cd7d" target="_top" xlink:title=" ">
<polygon fill="white" stroke="#666666" points="715,-523.5 585,-523.5 585,-493 715,-493 715,-523.5"/>
<text text-anchor="start" x="593" y="-510" font-family="Helvetica,sans-Serif" font-size="10.00">Slic3r::GUI::BitmapCache</text>
<text text-anchor="middle" x="650" y="-498.75" font-family="Helvetica,sans-Serif" font-size="10.00">::load_svg</text>
</a>
</g>
</g>
<!-- Node4&#45;&gt;Node5 -->
<g id="edge4_Node000004_Node000005" class="edge">
<title>Node4&#45;&gt;Node5</title>
<g id="a_edge4_Node000004_Node000005"><a xlink:title=" ">
<path fill="none" stroke="#63b8ff" d="M739.69,-505.01C731.58,-505.3 723.39,-505.6 715.43,-505.89"/>
<polygon fill="#63b8ff" stroke="#63b8ff" points="739.79,-508.47 749.65,-504.6 739.53,-501.47 739.79,-508.47"/>
</a>
</g>
</g>
<!-- Node6 -->
<g id="Node000006" class="node">
<title>Node6</title>
<g id="a_Node000006"><a xlink:href="../../d9/d16/class_slic3r_1_1_g_u_i_1_1_splash_screen.html#a1ed074991461dfdae8683114ffefea9e" target="_top" xlink:title=" ">
<polygon fill="white" stroke="#666666" points="549,-547.5 417.5,-547.5 417.5,-517 549,-517 549,-547.5"/>
<text text-anchor="start" x="425.5" y="-534" font-family="Helvetica,sans-Serif" font-size="10.00">Slic3r::GUI::SplashScreen</text>
<text text-anchor="middle" x="483.25" y="-522.75" font-family="Helvetica,sans-Serif" font-size="10.00">::Decorate</text>
</a>
</g>
</g>
<!-- Node5&#45;&gt;Node6 -->
<g id="edge5_Node000005_Node000006" class="edge">
<title>Node5&#45;&gt;Node6</title>
<g id="a_edge5_Node000005_Node000006"><a xlink:title=" ">
<path fill="none" stroke="#63b8ff" d="M574.06,-519.17C565.81,-520.37 557.45,-521.59 549.33,-522.77"/>
<polygon fill="#63b8ff" stroke="#63b8ff" points="574.44,-522.5 583.83,-517.6 573.43,-515.58 574.44,-522.5"/>
</a>
</g>
</g>
<!-- Node7 -->
<g id="Node000007" class="node">
<title>Node7</title>
<g id="a_Node000007"><a xlink:href="../../d9/d16/class_slic3r_1_1_g_u_i_1_1_splash_screen.html#aec84f2d684158795144b1bbf8cec0567" target="_top" xlink:title=" ">
<polygon fill="white" stroke="#666666" points="347.75,-551.5 216.25,-551.5 216.25,-521 347.75,-521 347.75,-551.5"/>
<text text-anchor="start" x="224.25" y="-538" font-family="Helvetica,sans-Serif" font-size="10.00">Slic3r::GUI::SplashScreen</text>
<text text-anchor="middle" x="282" y="-526.75" font-family="Helvetica,sans-Serif" font-size="10.00">::SplashScreen</text>
</a>
</g>
</g>
<!-- Node6&#45;&gt;Node7 -->
<g id="edge6_Node000006_Node000007" class="edge">
<title>Node6&#45;&gt;Node7</title>
<g id="a_edge6_Node000006_Node000007"><a xlink:title=" ">
<path fill="none" stroke="#63b8ff" d="M406.2,-533.78C387.03,-534.16 366.62,-534.57 348.05,-534.94"/>
<polygon fill="#63b8ff" stroke="#63b8ff" points="406.08,-537.26 416.01,-533.56 405.94,-530.26 406.08,-537.26"/>
</a>
</g>
</g>
<!-- Node10 -->
<g id="Node000010" class="node">
<title>Node10</title>
<g id="a_Node000010"><a xlink:href="../../d8/d95/class_slic3r_1_1_g_u_i_1_1_bitmap_cache.html#a65133b6549018a5d9bf8c2c9721de072" target="_top" xlink:title=" ">
<polygon fill="white" stroke="#666666" points="881,-407.5 751,-407.5 751,-377 881,-377 881,-407.5"/>
<text text-anchor="start" x="759" y="-394" font-family="Helvetica,sans-Serif" font-size="10.00">Slic3r::GUI::BitmapCache</text>
<text text-anchor="middle" x="816" y="-382.75" font-family="Helvetica,sans-Serif" font-size="10.00">::mksolid_bndl</text>
</a>
</g>
</g>
<!-- Node9&#45;&gt;Node10 -->
<g id="edge10_Node000009_Node000010" class="edge">
<title>Node9&#45;&gt;Node10</title>
<g id="a_edge10_Node000009_Node000010"><a xlink:title=" ">
<path fill="none" stroke="#63b8ff" d="M905.96,-412.32C897.77,-410.47 889.48,-408.6 881.43,-406.79"/>
<polygon fill="#63b8ff" stroke="#63b8ff" points="905.13,-415.95 915.65,-414.73 906.67,-409.12 905.13,-415.95"/>
</a>
</g>
</g>
<!-- Node11 -->
<g id="Node000011" class="node">
<title>Node11</title>
<g id="a_Node000011"><a xlink:href="../../d7/d58/wx_extensions_8cpp.html#acdccdc0628f4edc64e892d0d3c2a1eb1" target="_top" xlink:title=" ">
<polygon fill="white" stroke="#666666" points="706.38,-292.88 593.62,-292.88 593.62,-273.62 706.38,-273.62 706.38,-292.88"/>
<text text-anchor="middle" x="650" y="-279.38" font-family="Helvetica,sans-Serif" font-size="10.00">get_solid_bmp_bundle</text>
</a>
</g>
</g>
<!-- Node10&#45;&gt;Node11 -->
<g id="edge11_Node000010_Node000011" class="edge">
<title>Node10&#45;&gt;Node11</title>
<g id="a_edge11_Node000010_Node000011"><a xlink:title=" ">
<path fill="none" stroke="#63b8ff" d="M782.55,-370.68C747.29,-347.25 692.46,-310.81 666.13,-293.3"/>
<polygon fill="#63b8ff" stroke="#63b8ff" points="780.24,-374.01 790.5,-376.63 784.11,-368.18 780.24,-374.01"/>
</a>
</g>
</g>
<!-- Node100 -->
<g id="Node000100" class="node">
<title>Node100</title>
<g id="a_Node000100"><a xlink:href="../../d8/d95/class_slic3r_1_1_g_u_i_1_1_bitmap_cache.html#a251dda77bef396f7a6be7e6083587feb" target="_top" xlink:title=" ">
<polygon fill="white" stroke="#666666" points="715,-407.5 585,-407.5 585,-377 715,-377 715,-407.5"/>
<text text-anchor="start" x="593" y="-394" font-family="Helvetica,sans-Serif" font-size="10.00">Slic3r::GUI::BitmapCache</text>
<text text-anchor="middle" x="650" y="-382.75" font-family="Helvetica,sans-Serif" font-size="10.00">::mkclear_bndl</text>
</a>
</g>
</g>
<!-- Node10&#45;&gt;Node100 -->
<g id="edge26_Node000010_Node000100" class="edge">
<title>Node10&#45;&gt;Node100</title>
<g id="a_edge26_Node000010_Node000100"><a xlink:title=" ">
<path fill="none" stroke="#63b8ff" d="M739.69,-392.25C731.58,-392.25 723.39,-392.25 715.43,-392.25"/>
<polygon fill="#63b8ff" stroke="#63b8ff" points="739.65,-395.75 749.65,-392.25 739.65,-388.75 739.65,-395.75"/>
</a>
</g>
</g>
<!-- Node12 -->
<g id="Node000012" class="node">
<title>Node12</title>
<g id="a_Node000012"><a xlink:href="../../d6/d01/class_slic3r_1_1_g_u_i_1_1_model_node.html#ac694cdcd5d1332da06ace19142f7a114" target="_top" xlink:title=" ">
<polygon fill="white" stroke="#666666" points="543.38,-51.5 423.12,-51.5 423.12,-21 543.38,-21 543.38,-51.5"/>
<text text-anchor="start" x="431.12" y="-38" font-family="Helvetica,sans-Serif" font-size="10.00">Slic3r::GUI::ModelNode</text>
<text text-anchor="middle" x="483.25" y="-26.75" font-family="Helvetica,sans-Serif" font-size="10.00">::get_bitmap</text>
</a>
</g>
</g>
<!-- Node11&#45;&gt;Node12 -->
<g id="edge12_Node000011_Node000012" class="edge">
<title>Node11&#45;&gt;Node12</title>
<g id="a_edge12_Node000011_Node000012"><a xlink:title=" ">
<path fill="none" stroke="#63b8ff" d="M636.43,-264.41C605.01,-217.3 523.52,-95.13 494.61,-51.78"/>
<polygon fill="#63b8ff" stroke="#63b8ff" points="633.88,-265.88 642.34,-272.26 639.7,-262 633.88,-265.88"/>
</a>
</g>
</g>
<!-- Node23 -->
<g id="Node000023" class="node">
<title>Node23</title>
<g id="a_Node000023"><a xlink:href="../../dc/d5e/class_slic3r_1_1_g_u_i_1_1_preset_combo_box.html#ac20ae5e41025a88ce5bc2d3940a030f9" target="_top" xlink:title=" ">
<polygon fill="white" stroke="#666666" points="347.38,-355.5 216.62,-355.5 216.62,-325 347.38,-325 347.38,-355.5"/>
<text text-anchor="start" x="224.62" y="-342" font-family="Helvetica,sans-Serif" font-size="10.00">Slic3r::GUI::PresetCombo</text>
<text text-anchor="middle" x="282" y="-330.75" font-family="Helvetica,sans-Serif" font-size="10.00">Box::get_bmp</text>
</a>
</g>
</g>
<!-- Node11&#45;&gt;Node23 -->
<g id="edge16_Node000011_Node000023" class="edge">
<title>Node11&#45;&gt;Node23</title>
<g id="a_edge16_Node000011_Node000023"><a xlink:title=" ">
<path fill="none" stroke="#63b8ff" d="M582.62,-293.59C515.94,-303.97 413.87,-319.87 347.77,-330.16"/>
<polygon fill="#63b8ff" stroke="#63b8ff" points="583.07,-296.9 592.41,-291.91 581.99,-289.99 583.07,-296.9"/>
</a>
</g>
</g>
<!-- Node44 -->
<g id="Node000044" class="node">
<title>Node44</title>
<g id="a_Node000044"><a xlink:href="../../d7/d58/wx_extensions_8cpp.html#ad379f10f9f34897f70cb81ee30423e4a" target="_top" xlink:title=" ">
<polygon fill="white" stroke="#666666" points="531.38,-222.5 435.12,-222.5 435.12,-192 531.38,-192 531.38,-222.5"/>
<text text-anchor="start" x="443.12" y="-209" font-family="Helvetica,sans-Serif" font-size="10.00">get_extruder_color</text>
<text text-anchor="middle" x="483.25" y="-197.75" font-family="Helvetica,sans-Serif" font-size="10.00">_icons</text>
</a>
</g>
</g>
<!-- Node11&#45;&gt;Node44 -->
<g id="edge20_Node000011_Node000044" class="edge">
<title>Node11&#45;&gt;Node44</title>
<g id="a_edge20_Node000011_Node000044"><a xlink:title=" ">
<path fill="none" stroke="#63b8ff" d="M617.3,-268.63C588.89,-255.52 547.34,-236.35 518.25,-222.94"/>
<polygon fill="#63b8ff" stroke="#63b8ff" points="615.58,-272.15 626.12,-273.16 618.51,-265.79 615.58,-272.15"/>
</a>
</g>
</g>
<!-- Node13 -->
<g id="Node000013" class="node">
<title>Node13</title>
<g id="a_Node000013"><a xlink:href="../../d6/d01/class_slic3r_1_1_g_u_i_1_1_model_node.html#a910e024037a3d353a277689f33755c4a" target="_top" xlink:title=" ">
<polygon fill="white" stroke="#666666" points="133.38,-30.5 13.12,-30.5 13.12,0 133.38,0 133.38,-30.5"/>
<text text-anchor="start" x="21.12" y="-17" font-family="Helvetica,sans-Serif" font-size="10.00">Slic3r::GUI::ModelNode</text>
<text text-anchor="middle" x="73.25" y="-5.75" font-family="Helvetica,sans-Serif" font-size="10.00">::ModelNode</text>
</a>
</g>
</g>
<!-- Node12&#45;&gt;Node13 -->
<g id="edge13_Node000012_Node000013" class="edge">
<title>Node12&#45;&gt;Node13</title>
<g id="a_edge13_Node000012_Node000013"><a xlink:title=" ">
<path fill="none" stroke="#63b8ff" d="M415.72,-18.09C404.39,-15.66 392.66,-13.56 381.5,-12.25 295.8,-2.18 195.74,-6.04 133.68,-10.24"/>
<polygon fill="#63b8ff" stroke="#63b8ff" points="414.92,-21.72 425.45,-20.51 416.46,-14.9 414.92,-21.72"/>
</a>
</g>
</g>
<!-- Node14 -->
<g id="Node000014" class="node">
<title>Node14</title>
<g id="a_Node000014"><a xlink:href="../../d6/d01/class_slic3r_1_1_g_u_i_1_1_model_node.html#ae51f7ad0da53800b07305bfa90b0d9f8" target="_top" xlink:title=" ">
<polygon fill="#fff0f0" stroke="red" points="342.12,-51.5 221.88,-51.5 221.88,-21 342.12,-21 342.12,-51.5"/>
<text text-anchor="start" x="229.88" y="-38" font-family="Helvetica,sans-Serif" font-size="10.00">Slic3r::GUI::ModelNode</text>
<text text-anchor="middle" x="282" y="-26.75" font-family="Helvetica,sans-Serif" font-size="10.00">::UpdateIcons</text>
</a>
</g>
</g>
<!-- Node12&#45;&gt;Node14 -->
<g id="edge14_Node000012_Node000014" class="edge">
<title>Node12&#45;&gt;Node14</title>
<g id="a_edge14_Node000012_Node000014"><a xlink:title=" ">
<path fill="none" stroke="#63b8ff" d="M411.82,-36.25C389.18,-36.25 364.33,-36.25 342.55,-36.25"/>
<polygon fill="#63b8ff" stroke="#63b8ff" points="411.74,-39.75 421.74,-36.25 411.74,-32.75 411.74,-39.75"/>
</a>
</g>
</g>
<!-- Node14&#45;&gt;Node13 -->
<g id="edge15_Node000014_Node000013" class="edge">
<title>Node14&#45;&gt;Node13</title>
<g id="a_edge15_Node000014_Node000013"><a xlink:title=" ">
<path fill="none" stroke="#63b8ff" d="M210.59,-29.1C185.58,-26.56 157.71,-23.73 133.71,-21.29"/>
<polygon fill="#63b8ff" stroke="#63b8ff" points="210.17,-32.68 220.48,-30.2 210.88,-25.71 210.17,-32.68"/>
</a>
</g>
</g>
<!-- Node24 -->
<g id="Node000024" class="node">
<title>Node24</title>
<g id="a_Node000024"><a xlink:href="../../d8/d5c/class_slic3r_1_1_g_u_i_1_1_plater_preset_combo_box.html#af6121dd53ff0f7c756b61b780f61de87" target="_top" xlink:title=" ">
<polygon fill="#fff0f0" stroke="red" points="135.62,-355.5 10.88,-355.5 10.88,-325 135.62,-325 135.62,-355.5"/>
<text text-anchor="start" x="18.88" y="-342" font-family="Helvetica,sans-Serif" font-size="10.00">Slic3r::GUI::PlaterPreset</text>
<text text-anchor="middle" x="73.25" y="-330.75" font-family="Helvetica,sans-Serif" font-size="10.00">ComboBox::update</text>
</a>
</g>
</g>
<!-- Node23&#45;&gt;Node24 -->
<g id="edge17_Node000023_Node000024" class="edge">
<title>Node23&#45;&gt;Node24</title>
<g id="a_edge17_Node000023_Node000024"><a xlink:title=" ">
<path fill="none" stroke="#63b8ff" d="M205.16,-340.25C182.42,-340.25 157.76,-340.25 136.05,-340.25"/>
<polygon fill="#63b8ff" stroke="#63b8ff" points="205.15,-343.75 215.15,-340.25 205.15,-336.75 205.15,-343.75"/>
</a>
</g>
</g>
<!-- Node35 -->
<g id="Node000035" class="node">
<title>Node35</title>
<g id="a_Node000035"><a xlink:href="../../de/d37/class_slic3r_1_1_g_u_i_1_1_tab_preset_combo_box.html#ab51c734d55312e82eeb9faa38f5d6b6b" target="_top" xlink:title=" ">
<polygon fill="#fff0f0" stroke="red" points="146.5,-453.5 0,-453.5 0,-423 146.5,-423 146.5,-453.5"/>
<text text-anchor="start" x="8" y="-440" font-family="Helvetica,sans-Serif" font-size="10.00">Slic3r::GUI::TabPresetCombo</text>
<text text-anchor="middle" x="73.25" y="-428.75" font-family="Helvetica,sans-Serif" font-size="10.00">Box::update</text>
</a>
</g>
</g>
<!-- Node23&#45;&gt;Node35 -->
<g id="edge18_Node000023_Node000035" class="edge">
<title>Node23&#45;&gt;Node35</title>
<g id="a_edge18_Node000023_Node000035"><a xlink:title=" ">
<path fill="none" stroke="#63b8ff" d="M206.08,-353.44C197.76,-356.57 189.7,-360.45 182.5,-365.25 160.31,-380.04 168.04,-397.53 146.5,-413.25 141.57,-416.85 136.07,-419.96 130.38,-422.65"/>
<polygon fill="#63b8ff" stroke="#63b8ff" points="206.97,-356.49 215.32,-349.97 204.73,-349.86 206.97,-356.49"/>
</a>
</g>
</g>
<!-- Node37 -->
<g id="Node000037" class="node">
<title>Node37</title>
<g id="a_Node000037"><a xlink:href="../../dc/d5e/class_slic3r_1_1_g_u_i_1_1_preset_combo_box.html#a10e51c2787a9d199a7eb311985272b13" target="_top" xlink:title=" ">
<polygon fill="#fff0f0" stroke="red" points="138.62,-404.5 7.88,-404.5 7.88,-374 138.62,-374 138.62,-404.5"/>
<text text-anchor="start" x="15.88" y="-391" font-family="Helvetica,sans-Serif" font-size="10.00">Slic3r::GUI::PresetCombo</text>
<text text-anchor="middle" x="73.25" y="-379.75" font-family="Helvetica,sans-Serif" font-size="10.00">Box::update</text>
</a>
</g>
</g>
<!-- Node23&#45;&gt;Node37 -->
<g id="edge19_Node000023_Node000037" class="edge">
<title>Node23&#45;&gt;Node37</title>
<g id="a_edge19_Node000023_Node000037"><a xlink:title=" ">
<path fill="none" stroke="#63b8ff" d="M205.58,-358.13C183.7,-363.31 160.02,-368.92 138.87,-373.94"/>
<polygon fill="#63b8ff" stroke="#63b8ff" points="206.23,-361.33 215.15,-355.62 204.61,-354.52 206.23,-361.33"/>
</a>
</g>
</g>
<!-- Node45 -->
<g id="Node000045" class="node">
<title>Node45</title>
<g id="a_Node000045"><a xlink:href="../../d2/da4/class_slic3r_1_1_double_slider_1_1_control.html#ad6da049ab661697196b98b936caf04e7" target="_top" xlink:title=" ">
<polygon fill="#fff0f0" stroke="red" points="345.88,-209.12 218.12,-209.12 218.12,-167.38 345.88,-167.38 345.88,-209.12"/>
<text text-anchor="start" x="226.12" y="-195.62" font-family="Helvetica,sans-Serif" font-size="10.00">Slic3r::DoubleSlider</text>
<text text-anchor="start" x="226.12" y="-184.38" font-family="Helvetica,sans-Serif" font-size="10.00">::Control::append_change</text>
<text text-anchor="middle" x="282" y="-173.12" font-family="Helvetica,sans-Serif" font-size="10.00">_extruder_menu_item</text>
</a>
</g>
</g>
<!-- Node44&#45;&gt;Node45 -->
<g id="edge21_Node000044_Node000045" class="edge">
<title>Node44&#45;&gt;Node45</title>
<g id="a_edge21_Node000044_Node000045"><a xlink:title=" ">
<path fill="none" stroke="#63b8ff" d="M423.89,-201.69C399.54,-199.36 371.18,-196.66 346.32,-194.29"/>
<polygon fill="#63b8ff" stroke="#63b8ff" points="423.49,-205.26 433.78,-202.72 424.16,-198.29 423.49,-205.26"/>
</a>
</g>
</g>
<!-- Node58 -->
<g id="Node000058" class="node">
<title>Node58</title>
<g id="a_Node000058"><a xlink:href="../../de/de3/class_slic3r_1_1_g_u_i_1_1_menu_factory.html#a4d6d44fbc3bd2c8e80ed733de4b2f583" target="_top" xlink:title=" ">
<polygon fill="white" stroke="#666666" points="353.75,-149.12 210.25,-149.12 210.25,-107.38 353.75,-107.38 353.75,-149.12"/>
<text text-anchor="start" x="218.25" y="-135.62" font-family="Helvetica,sans-Serif" font-size="10.00">Slic3r::GUI::MenuFactory</text>
<text text-anchor="start" x="218.25" y="-124.38" font-family="Helvetica,sans-Serif" font-size="10.00">::append_menu_item_change</text>
<text text-anchor="middle" x="282" y="-113.12" font-family="Helvetica,sans-Serif" font-size="10.00">_extruder</text>
</a>
</g>
</g>
<!-- Node44&#45;&gt;Node58 -->
<g id="edge22_Node000044_Node000058" class="edge">
<title>Node44&#45;&gt;Node58</title>
<g id="a_edge22_Node000044_Node000058"><a xlink:title=" ">
<path fill="none" stroke="#63b8ff" d="M443.72,-186.74C425.21,-177.35 402.52,-166.51 381.5,-158.25 372.76,-154.82 363.47,-151.53 354.21,-148.48"/>
<polygon fill="#63b8ff" stroke="#63b8ff" points="441.76,-190.19 452.26,-191.64 444.96,-183.96 441.76,-190.19"/>
</a>
</g>
</g>
<!-- Node59 -->
<g id="Node000059" class="node">
<title>Node59</title>
<g id="a_Node000059"><a xlink:href="../../d7/d58/wx_extensions_8cpp.html#a9f8537d659f31936a6cb96bdf7982991" target="_top" xlink:title=" ">
<polygon fill="#fff0f0" stroke="red" points="341.75,-88.88 222.25,-88.88 222.25,-69.62 341.75,-69.62 341.75,-88.88"/>
<text text-anchor="middle" x="282" y="-75.38" font-family="Helvetica,sans-Serif" font-size="10.00">apply_extruder_selector</text>
</a>
</g>
</g>
<!-- Node44&#45;&gt;Node59 -->
<g id="edge23_Node000044_Node000059" class="edge">
<title>Node44&#45;&gt;Node59</title>
<g id="a_edge23_Node000044_Node000059"><a xlink:title=" ">
<path fill="none" stroke="#63b8ff" d="M466.61,-182.7C449.07,-157.35 418.24,-118.69 381.5,-98.25 369.55,-91.6 355.67,-87.25 342.16,-84.4"/>
<polygon fill="#63b8ff" stroke="#63b8ff" points="464.17,-184.36 472.66,-190.7 469.98,-180.45 464.17,-184.36"/>
</a>
</g>
</g>
<!-- Node66 -->
<g id="Node000066" class="node">
<title>Node66</title>
<g id="a_Node000066"><a xlink:href="../../dc/d4e/class_bitmap_choice_renderer.html#a8215e57ef7f2be76821531d90bd910f3" target="_top" xlink:title=" ">
<polygon fill="white" stroke="#666666" points="340.62,-306.5 223.38,-306.5 223.38,-276 340.62,-276 340.62,-306.5"/>
<text text-anchor="start" x="231.38" y="-293" font-family="Helvetica,sans-Serif" font-size="10.00">BitmapChoiceRenderer</text>
<text text-anchor="middle" x="282" y="-281.75" font-family="Helvetica,sans-Serif" font-size="10.00">::CreateEditorCtrl</text>
</a>
</g>
</g>
<!-- Node44&#45;&gt;Node66 -->
<g id="edge24_Node000044_Node000066" class="edge">
<title>Node44&#45;&gt;Node66</title>
<g id="a_edge24_Node000044_Node000066"><a xlink:title=" ">
<path fill="none" stroke="#63b8ff" d="M450.79,-228.78C431.49,-241.19 405.89,-256.25 381.5,-266.25 368.69,-271.5 354.47,-275.89 340.91,-279.44"/>
<polygon fill="#63b8ff" stroke="#63b8ff" points="452.54,-231.17 458.99,-222.76 448.71,-225.31 452.54,-231.17"/>
</a>
</g>
</g>
<!-- Node67 -->
<g id="Node000067" class="node">
<title>Node67</title>
<g id="a_Node000067"><a xlink:href="../../d6/d78/class_slic3r_1_1_g_u_i_1_1_object_data_view_model_node.html#a0787c541f88efa56a9dd753e423ca768" target="_top" xlink:title=" ">
<polygon fill="#fff0f0" stroke="red" points="381.5,-257.5 182.5,-257.5 182.5,-227 381.5,-227 381.5,-257.5"/>
<text text-anchor="start" x="190.5" y="-244" font-family="Helvetica,sans-Serif" font-size="10.00">Slic3r::GUI::ObjectDataView</text>
<text text-anchor="middle" x="282" y="-232.75" font-family="Helvetica,sans-Serif" font-size="10.00">ModelNode::UpdateExtruderAndColorIcon</text>
</a>
</g>
</g>
<!-- Node44&#45;&gt;Node67 -->
<g id="edge25_Node000044_Node000067" class="edge">
<title>Node44&#45;&gt;Node67</title>
<g id="a_edge25_Node000044_Node000067"><a xlink:title=" ">
<path fill="none" stroke="#63b8ff" d="M424.35,-217.42C408.06,-220.28 389.95,-223.46 372.27,-226.57"/>
<polygon fill="#63b8ff" stroke="#63b8ff" points="424.53,-220.77 433.78,-215.59 423.32,-213.87 424.53,-220.77"/>
</a>
</g>
</g>
<!-- Node101 -->
<g id="Node000101" class="node">
<title>Node101</title>
<g id="a_Node000101"><a xlink:href="../../d7/d58/wx_extensions_8cpp.html#ac2acd211a81c69fec2ab68e0ec8a4b22" target="_top" xlink:title=" ">
<polygon fill="white" stroke="#666666" points="543,-401.88 423.5,-401.88 423.5,-382.62 543,-382.62 543,-401.88"/>
<text text-anchor="middle" x="483.25" y="-388.38" font-family="Helvetica,sans-Serif" font-size="10.00">get_empty_bmp_bundle</text>
</a>
</g>
</g>
<!-- Node100&#45;&gt;Node101 -->
<g id="edge27_Node000100_Node000101" class="edge">
<title>Node100&#45;&gt;Node101</title>
<g id="a_edge27_Node000100_Node000101"><a xlink:title=" ">
<path fill="none" stroke="#63b8ff" d="M573.84,-392.25C563.63,-392.25 553.27,-392.25 543.4,-392.25"/>
<polygon fill="#63b8ff" stroke="#63b8ff" points="573.83,-395.75 583.83,-392.25 573.83,-388.75 573.83,-395.75"/>
</a>
</g>
</g>
<!-- Node101&#45;&gt;Node23 -->
<g id="edge29_Node000101_Node000023" class="edge">
<title>Node101&#45;&gt;Node23</title>
<g id="a_edge29_Node000101_Node000023"><a xlink:title=" ">
<path fill="none" stroke="#63b8ff" d="M434.81,-379.4C417.99,-374.88 398.91,-369.79 381.5,-365.25 369.89,-362.22 357.5,-359.04 345.56,-356"/>
<polygon fill="#63b8ff" stroke="#63b8ff" points="433.4,-382.91 443.96,-382.13 435.21,-376.15 433.4,-382.91"/>
</a>
</g>
</g>
<!-- Node102 -->
<g id="Node000102" class="node">
<title>Node102</title>
<g id="a_Node000102"><a xlink:href="../../d0/dc0/class_slic3r_1_1_g_u_i_1_1_mode_palette_combo_box.html#a566f49e6db5f80aba5e97998df5f291f" target="_top" xlink:title=" ">
<polygon fill="#fff0f0" stroke="red" points="344.75,-404.5 219.25,-404.5 219.25,-374 344.75,-374 344.75,-404.5"/>
<text text-anchor="start" x="227.25" y="-391" font-family="Helvetica,sans-Serif" font-size="10.00">Slic3r::GUI::ModePalette</text>
<text text-anchor="middle" x="282" y="-379.75" font-family="Helvetica,sans-Serif" font-size="10.00">ComboBox::get_bmp</text>
</a>
</g>
</g>
<!-- Node101&#45;&gt;Node102 -->
<g id="edge28_Node000101_Node000102" class="edge">
<title>Node101&#45;&gt;Node102</title>
<g id="a_edge28_Node000101_Node000102"><a xlink:title=" ">
<path fill="none" stroke="#63b8ff" d="M412.14,-391.19C390.3,-390.87 366.38,-390.51 345.13,-390.19"/>
<polygon fill="#63b8ff" stroke="#63b8ff" points="411.96,-394.71 422.01,-391.36 412.06,-387.71 411.96,-394.71"/>
</a>
</g>
</g>
<!-- Node104 -->
<g id="Node000104" class="node">
<title>Node104</title>
<g id="a_Node000104"><a xlink:href="../../dc/d5e/class_slic3r_1_1_g_u_i_1_1_preset_combo_box.html#a97cce8beae76a413022fdbb245fd42e6" target="_top" xlink:title=" ">
<polygon fill="white" stroke="#666666" points="347.38,-502.5 216.62,-502.5 216.62,-472 347.38,-472 347.38,-502.5"/>
<text text-anchor="start" x="224.62" y="-489" font-family="Helvetica,sans-Serif" font-size="10.00">Slic3r::GUI::PresetCombo</text>
<text text-anchor="middle" x="282" y="-477.75" font-family="Helvetica,sans-Serif" font-size="10.00">Box::get_bmp</text>
</a>
</g>
</g>
<!-- Node101&#45;&gt;Node104 -->
<g id="edge30_Node000101_Node000104" class="edge">
<title>Node101&#45;&gt;Node104</title>
<g id="a_edge30_Node000101_Node000104"><a xlink:title=" ">
<path fill="none" stroke="#63b8ff" d="M462.71,-409.04C443.31,-424.9 412.11,-448.29 381.5,-462.25 370.91,-467.08 359.23,-471.08 347.73,-474.36"/>
<polygon fill="#63b8ff" stroke="#63b8ff" points="464.56,-411.23 470,-402.13 460.07,-405.85 464.56,-411.23"/>
</a>
</g>
</g>
<!-- Node105 -->
<g id="Node000105" class="node">
<title>Node105</title>
<g id="a_Node000105"><a xlink:href="../../dc/d5e/class_slic3r_1_1_g_u_i_1_1_preset_combo_box.html#ac5fc2f4ea13c8eb8e430195561c49955" target="_top" xlink:title=" ">
<polygon fill="white" stroke="#666666" points="347.38,-453.5 216.62,-453.5 216.62,-423 347.38,-423 347.38,-453.5"/>
<text text-anchor="start" x="224.62" y="-440" font-family="Helvetica,sans-Serif" font-size="10.00">Slic3r::GUI::PresetCombo</text>
<text text-anchor="middle" x="282" y="-428.75" font-family="Helvetica,sans-Serif" font-size="10.00">Box::NullBitmapBndl</text>
</a>
</g>
</g>
<!-- Node101&#45;&gt;Node105 -->
<g id="edge31_Node000101_Node000105" class="edge">
<title>Node101&#45;&gt;Node105</title>
<g id="a_edge31_Node000101_Node000105"><a xlink:title=" ">
<path fill="none" stroke="#63b8ff" d="M427.88,-404.8C403.15,-410.51 373.69,-417.31 347.82,-423.29"/>
<polygon fill="#63b8ff" stroke="#63b8ff" points="428.57,-408 437.52,-402.34 426.99,-401.18 428.57,-408"/>
</a>
</g>
</g>
<!-- Node105&#45;&gt;Node24 -->
<g id="edge32_Node000105_Node000024" class="edge">
<title>Node105&#45;&gt;Node24</title>
<g id="a_edge32_Node000105_Node000024"><a xlink:title=" ">
<path fill="none" stroke="#63b8ff" d="M206.08,-425.06C197.76,-421.93 189.7,-418.05 182.5,-413.25 160.31,-398.46 168.04,-380.97 146.5,-365.25 141.57,-361.65 136.07,-358.54 130.38,-355.85"/>
<polygon fill="#63b8ff" stroke="#63b8ff" points="204.73,-428.64 215.32,-428.53 206.97,-422.01 204.73,-428.64"/>
</a>
</g>
</g>
<!-- Node105&#45;&gt;Node35 -->
<g id="edge33_Node000105_Node000035" class="edge">
<title>Node105&#45;&gt;Node35</title>
<g id="a_edge33_Node000105_Node000035"><a xlink:title=" ">
<path fill="none" stroke="#63b8ff" d="M205.38,-438.25C186.25,-438.25 165.76,-438.25 146.79,-438.25"/>
<polygon fill="#63b8ff" stroke="#63b8ff" points="205.15,-441.75 215.15,-438.25 205.15,-434.75 205.15,-441.75"/>
</a>
</g>
</g>
<!-- Node105&#45;&gt;Node37 -->
<g id="edge34_Node000105_Node000037" class="edge">
<title>Node105&#45;&gt;Node37</title>
<g id="a_edge34_Node000105_Node000037"><a xlink:title=" ">
<path fill="none" stroke="#63b8ff" d="M205.58,-420.37C183.7,-415.19 160.02,-409.58 138.87,-404.56"/>
<polygon fill="#63b8ff" stroke="#63b8ff" points="204.61,-423.98 215.15,-422.88 206.23,-417.17 204.61,-423.98"/>
</a>
</g>
</g>
</g>
</svg>

<g id="navigator" transform="translate(0 0)" fill="#404254">
  <rect fill="#f2f5e9" fill-opacity="0.5" stroke="#606060" stroke-width=".5" x="0" y="0" width="60" height="60"/>
  <use id="zoomplus" xlink:href="#zoomPlus" x="17" y="9" onmousedown="handleZoom(evt,'in')"/>
  <use id="zoomminus" xlink:href="#zoomMin" x="42" y="9" onmousedown="handleZoom(evt,'out')"/>
  <use id="reset" xlink:href="#resetDef" x="30" y="36" onmousedown="handleReset()"/>
   <use id="arrowup" xlink:href="#arrowUp" x="0" y="0" onmousedown="handlePan(0,-1)"/>
  <use id="arrowright" xlink:href="#arrowRight" x="0" y="0" onmousedown="handlePan(1,0)"/>
  <use id="arrowdown" xlink:href="#arrowDown" x="0" y="0" onmousedown="handlePan(0,1)"/>
  <use id="arrowleft" xlink:href="#arrowLeft" x="0" y="0" onmousedown="handlePan(-1,0)"/>
</g>
<svg viewBox="0 0 15 15" width="100%" height="30px" preserveAspectRatio="xMaxYMin meet">
 <g id="arrow_out" transform="scale(0.3 0.3)">
  <a xlink:href="class_slic3r_1_1_g_u_i_1_1_bitmap_cache_a36f6a17ceacdaf2b99f64892a65b7239_icgraph_org.svg" target="_base">
   <rect id="button" ry="5" rx="5" y="6" x="6" height="38" width="38"
        fill="#f2f5e9" fill-opacity="0.5" stroke="#606060" stroke-width="1.0"/>
   <path id="arrow"
     d="M 11.500037,31.436501 C 11.940474,20.09759 22.043105,11.32322 32.158766,21.979434 L 37.068811,17.246167 C 37.068811,17.246167 37.088388,32 37.088388,32 L 22.160133,31.978069 C 22.160133,31.978069 26.997745,27.140456 26.997745,27.140456 C 18.528582,18.264221 13.291696,25.230495 11.500037,31.436501 z"
     style="fill:#404040;"/>
  </a>
 </g>
</svg>

<style type='text/css'>
<![CDATA[
[data-mouse-over-selected='false'] { opacity: 0.7; }
[data-mouse-over-selected='true']  { opacity: 1.0; }
]]>
</style>
<script type="application/ecmascript"><![CDATA[
document.addEventListener('DOMContentLoaded', (event) => {
  highlightEdges();
  highlightAdjacentNodes();
});
]]></script>
</svg>
