<?xml version="1.0" encoding="UTF-8" standalone="no"?>
<!DOCTYPE svg PUBLIC "-//W3C//DTD SVG 1.1//EN"
 "http://www.w3.org/Graphics/SVG/1.1/DTD/svg11.dtd">
<!-- Generated by graphviz version 8.0.5 (20230430.1635)
 -->
<!-- Title: Slic3r::FFFTreeSupport::TreeModelVolumes::getPlaceableAreas Pages: 1 -->
<svg width="683pt" height="68pt"
 viewBox="0.00 0.00 683.25 67.75" xmlns="http://www.w3.org/2000/svg" xmlns:xlink="http://www.w3.org/1999/xlink">
<g id="graph0" class="graph" transform="scale(1 1) rotate(0) translate(4 63.75)">
<title>Slic3r::FFFTreeSupport::TreeModelVolumes::getPlaceableAreas</title>
<!-- Node1 -->
<g id="Node000001" class="node">
<title>Node1</title>
<g id="a_Node000001"><a xlink:title="Provides the area represents all areas on the model where the branch does completely fit on the given...">
<polygon fill="#999999" stroke="#666666" points="675.25,-36.12 481.5,-36.12 481.5,-5.62 675.25,-5.62 675.25,-36.12"/>
<text text-anchor="start" x="489.5" y="-22.62" font-family="Helvetica,sans-Serif" font-size="10.00">Slic3r::FFFTreeSupport</text>
<text text-anchor="middle" x="578.38" y="-11.38" font-family="Helvetica,sans-Serif" font-size="10.00">::TreeModelVolumes::getPlaceableAreas</text>
</a>
</g>
</g>
<!-- Node2 -->
<g id="Node000002" class="node">
<title>Node2</title>
<g id="a_Node000002"><a xlink:href="../../dd/df4/namespace_slic3r_1_1_f_f_f_tree_support.html#ae933bab23a01546925f47e2403e6c198" target="_top" xlink:title="Get the best point to connect to the model and set the result_on_layer of the relevant SupportElement...">
<polygon fill="white" stroke="#666666" points="445.5,-41.75 327.5,-41.75 327.5,0 445.5,0 445.5,-41.75"/>
<text text-anchor="start" x="335.5" y="-28.25" font-family="Helvetica,sans-Serif" font-size="10.00">Slic3r::FFFTreeSupport</text>
<text text-anchor="start" x="335.5" y="-17" font-family="Helvetica,sans-Serif" font-size="10.00">::set_to_model_contact</text>
<text text-anchor="middle" x="386.5" y="-5.75" font-family="Helvetica,sans-Serif" font-size="10.00">_to_model_gracious</text>
</a>
</g>
</g>
<!-- Node1&#45;&gt;Node2 -->
<g id="edge1_Node000001_Node000002" class="edge">
<title>Node1&#45;&gt;Node2</title>
<g id="a_edge1_Node000001_Node000002"><a xlink:title=" ">
<path fill="none" stroke="#63b8ff" d="M470.08,-20.88C461.79,-20.88 453.61,-20.88 445.83,-20.88"/>
<polygon fill="#63b8ff" stroke="#63b8ff" points="470.05,-24.38 480.05,-20.88 470.05,-17.38 470.05,-24.38"/>
</a>
</g>
</g>
<!-- Node2&#45;&gt;Node2 -->
<g id="edge6_Node000002_Node000002" class="edge">
<title>Node2&#45;&gt;Node2</title>
<g id="a_edge6_Node000002_Node000002"><a xlink:title=" ">
<path fill="none" stroke="#63b8ff" d="M413.13,-52.53C408.7,-56.86 399.83,-59.75 386.5,-59.75 364.05,-59.75 354.23,-51.55 357.04,-42.07"/>
<polygon fill="#63b8ff" stroke="#63b8ff" points="416.73,-53.64 415.96,-43.07 409.97,-51.81 416.73,-53.64"/>
</a>
</g>
</g>
<!-- Node3 -->
<g id="Node000003" class="node">
<title>Node3</title>
<g id="a_Node000003"><a xlink:href="../../dd/df4/namespace_slic3r_1_1_f_f_f_tree_support.html#a92615f6c41e6b6715175c0ad1b804864" target="_top" xlink:title="Set the result_on_layer point for all influence areas.">
<polygon fill="white" stroke="#666666" points="291.5,-36.12 162.25,-36.12 162.25,-5.62 291.5,-5.62 291.5,-36.12"/>
<text text-anchor="start" x="170.25" y="-22.62" font-family="Helvetica,sans-Serif" font-size="10.00">Slic3r::FFFTreeSupport</text>
<text text-anchor="middle" x="226.88" y="-11.38" font-family="Helvetica,sans-Serif" font-size="10.00">::create_nodes_from_area</text>
</a>
</g>
</g>
<!-- Node2&#45;&gt;Node3 -->
<g id="edge2_Node000002_Node000003" class="edge">
<title>Node2&#45;&gt;Node3</title>
<g id="a_edge2_Node000002_Node000003"><a xlink:title=" ">
<path fill="none" stroke="#63b8ff" d="M316.33,-20.88C308.24,-20.88 300,-20.88 291.98,-20.88"/>
<polygon fill="#63b8ff" stroke="#63b8ff" points="316.25,-24.38 326.25,-20.88 316.25,-17.38 316.25,-24.38"/>
</a>
</g>
</g>
<!-- Node3&#45;&gt;Node3 -->
<g id="edge3_Node000003_Node000003" class="edge">
<title>Node3&#45;&gt;Node3</title>
<g id="a_edge3_Node000003_Node000003"><a xlink:title=" ">
<path fill="none" stroke="#63b8ff" d="M254.01,-47.5C249.77,-51.45 240.73,-54.12 226.88,-54.12 202.25,-54.12 192.82,-45.68 198.59,-36.61"/>
<polygon fill="#63b8ff" stroke="#63b8ff" points="257.59,-47.92 255.16,-37.61 250.63,-47.19 257.59,-47.92"/>
</a>
</g>
</g>
<!-- Node4 -->
<g id="Node000004" class="node">
<title>Node4</title>
<g id="a_Node000004"><a xlink:href="../../dd/df4/namespace_slic3r_1_1_f_f_f_tree_support.html#ab26bc295197117d2d20bc72c33be92f6" target="_top" xlink:title="Create the areas that need support.">
<polygon fill="white" stroke="#666666" points="126.25,-36.12 0,-36.12 0,-5.62 126.25,-5.62 126.25,-36.12"/>
<text text-anchor="start" x="8" y="-22.62" font-family="Helvetica,sans-Serif" font-size="10.00">Slic3r::FFFTreeSupport</text>
<text text-anchor="middle" x="63.12" y="-11.38" font-family="Helvetica,sans-Serif" font-size="10.00">::generate_support_areas</text>
</a>
</g>
</g>
<!-- Node3&#45;&gt;Node4 -->
<g id="edge4_Node000003_Node000004" class="edge">
<title>Node3&#45;&gt;Node4</title>
<g id="a_edge4_Node000003_Node000004"><a xlink:title=" ">
<path fill="none" stroke="#63b8ff" d="M151.18,-20.88C142.94,-20.88 134.61,-20.88 126.53,-20.88"/>
<polygon fill="#63b8ff" stroke="#63b8ff" points="150.95,-24.38 160.95,-20.88 150.95,-17.38 150.95,-24.38"/>
</a>
</g>
</g>
<!-- Node4&#45;&gt;Node4 -->
<g id="edge5_Node000004_Node000004" class="edge">
<title>Node4&#45;&gt;Node4</title>
<g id="a_edge5_Node000004_Node000004"><a xlink:title=" ">
<path fill="none" stroke="#63b8ff" d="M90.96,-47.5C86.62,-51.45 77.34,-54.12 63.12,-54.12 37.86,-54.12 28.19,-45.68 34.11,-36.61"/>
<polygon fill="#63b8ff" stroke="#63b8ff" points="94.54,-47.93 92.14,-37.61 87.58,-47.17 94.54,-47.93"/>
</a>
</g>
</g>
</g>
</svg>
