<?xml version="1.0" encoding="UTF-8" standalone="no"?>
<!DOCTYPE svg PUBLIC "-//W3C//DTD SVG 1.1//EN"
 "http://www.w3.org/Graphics/SVG/1.1/DTD/svg11.dtd">
<!-- Generated by graphviz version 8.0.5 (20230430.1635)
 -->
<!-- Title: src/libigl/igl/edge_flaps.h Pages: 1 -->
<!--zoomable 315 -->

<svg id="main" version="1.1" xmlns="http://www.w3.org/2000/svg" xmlns:xlink="http://www.w3.org/1999/xlink" xml:space="preserve" onload="init(evt)">
<style type="text/css"><![CDATA[
.node, .edge {opacity: 0.7;}
.node.selected, .edge.selected {opacity: 1;}
.edge:hover path { stroke: red; }
.edge:hover polygon { stroke: red; fill: red; }
]]></style>

<defs>
  <circle id="rim" cx="0" cy="0" r="7"/>
  <circle id="rim2" cx="0" cy="0" r="3.5"/>
  <g id="zoomPlus">
    <use xlink:href="#rim" fill="#404040"><set attributeName="fill" to="#808080" begin="zoomplus.mouseover" end="zoomplus.mouseout"/></use>
    <path d="M-4,0h8M0,-4v8" fill="none" stroke="white" stroke-width="1.5" pointer-events="none"/>
  </g>
  <g id="zoomMin">
    <use xlink:href="#rim" fill="#404040"><set attributeName="fill" to="#808080" begin="zoomminus.mouseover" end="zoomminus.mouseout"/></use>
    <path d="M-4,0h8" fill="none" stroke="white" stroke-width="1.5" pointer-events="none"/>
  </g>
  <g id="arrowUp" transform="translate(30 24)">
    <use xlink:href="#rim"/>
    <path pointer-events="none" fill="none" stroke="white" stroke-width="1.5" d="M0,-3.0v7 M-2.5,-0.5L0,-3.0L2.5,-0.5"/>
  </g>
  <g id="arrowRight" transform="rotate(90) translate(36 -43)">
    <use xlink:href="#rim"/>
    <path pointer-events="none" fill="none" stroke="white" stroke-width="1.5" d="M0,-3.0v7 M-2.5,-0.5L0,-3.0L2.5,-0.5"/>
  </g>
  <g id="arrowDown" transform="rotate(180) translate(-30 -48)">
    <use xlink:href="#rim"/>
    <path pointer-events="none" fill="none" stroke="white" stroke-width="1.5" d="M0,-3.0v7 M-2.5,-0.5L0,-3.0L2.5,-0.5"/>
  </g>
  <g id="arrowLeft" transform="rotate(270) translate(-36 17)">
    <use xlink:href="#rim"/>
    <path pointer-events="none" fill="none" stroke="white" stroke-width="1.5" d="M0,-3.0v7 M-2.5,-0.5L0,-3.0L2.5,-0.5"/>
  </g>
  <g id="resetDef">
    <use xlink:href="#rim2" fill="#404040"><set attributeName="fill" to="#808080" begin="reset.mouseover" end="reset.mouseout"/></use>
  </g>
</defs>
<script type="application/ecmascript">
var viewWidth = 532;
var viewHeight = 315;
var sectionId = 'dynsection-0';
</script>
<script type="application/ecmascript" xlink:href="../../svg.min.js"/>
<svg id="graph" class="graph">
<g id="viewport">
<title>src/libigl/igl/edge_flaps.h</title>
<!-- Node1 -->
<g id="Node000001" class="node">
<title>Node1</title>
<g id="a_Node000001"><a xlink:title=" ">
<polygon fill="#999999" stroke="#666666" points="445.25,-306.75 356.5,-306.75 356.5,-276.25 445.25,-276.25 445.25,-306.75"/>
<text text-anchor="start" x="364.5" y="-293.25" font-family="Helvetica,sans-Serif" font-size="10.00">src/libigl/igl/edge</text>
<text text-anchor="middle" x="400.88" y="-282" font-family="Helvetica,sans-Serif" font-size="10.00">_flaps.h</text>
</a>
</g>
</g>
<!-- Node2 -->
<g id="Node000002" class="node">
<title>Node2</title>
<g id="a_Node000002"><a xlink:href="../../d6/d68/igl__inline_8h.html" target="_top" xlink:title=" ">
<polygon fill="white" stroke="#666666" points="61.75,-19.25 0,-19.25 0,0 61.75,0 61.75,-19.25"/>
<text text-anchor="middle" x="30.88" y="-5.75" font-family="Helvetica,sans-Serif" font-size="10.00">igl_inline.h</text>
</a>
</g>
</g>
<!-- Node1&#45;&gt;Node2 -->
<g id="edge1_Node000001_Node000002" class="edge">
<title>Node1&#45;&gt;Node2</title>
<g id="a_edge1_Node000001_Node000002"><a xlink:title=" ">
<path fill="none" stroke="#63b8ff" d="M356.31,-286.67C255.54,-276.77 18.88,-246.11 18.88,-176.38 18.88,-176.38 18.88,-176.38 18.88,-119.12 18.88,-87.93 23.84,-51.99 27.38,-30.31"/>
<polygon fill="#63b8ff" stroke="#63b8ff" points="30.98,-31.04 29.21,-20.59 24.08,-29.86 30.98,-31.04"/>
</a>
</g>
</g>
<!-- Node3 -->
<g id="Node000003" class="node">
<title>Node3</title>
<g id="a_Node000003"><a xlink:title=" ">
<polygon fill="#e0e0e0" stroke="#999999" points="524.25,-240.25 459.5,-240.25 459.5,-221 524.25,-221 524.25,-240.25"/>
<text text-anchor="middle" x="491.88" y="-226.75" font-family="Helvetica,sans-Serif" font-size="10.00">Eigen/Core</text>
</a>
</g>
</g>
<!-- Node1&#45;&gt;Node3 -->
<g id="edge2_Node000001_Node000003" class="edge">
<title>Node1&#45;&gt;Node3</title>
<g id="a_edge2_Node000001_Node000003"><a xlink:title=" ">
<path fill="none" stroke="#63b8ff" d="M423.37,-275.95C437.22,-266.98 454.94,-255.52 468.89,-246.5"/>
<polygon fill="#63b8ff" stroke="#63b8ff" points="470.35,-249.07 476.85,-240.7 466.55,-243.19 470.35,-249.07"/>
</a>
</g>
</g>
<!-- Node4 -->
<g id="Node000004" class="node">
<title>Node4</title>
<g id="a_Node000004"><a xlink:href="../../dc/dc5/edge__flaps_8cpp.html" target="_top" xlink:title=" ">
<polygon fill="white" stroke="#666666" points="441.88,-240.25 359.88,-240.25 359.88,-221 441.88,-221 441.88,-240.25"/>
<text text-anchor="middle" x="400.88" y="-226.75" font-family="Helvetica,sans-Serif" font-size="10.00">edge_flaps.cpp</text>
</a>
</g>
</g>
<!-- Node1&#45;&gt;Node4 -->
<g id="edge3_Node000001_Node000004" class="edge">
<title>Node1&#45;&gt;Node4</title>
<g id="a_edge3_Node000001_Node000004"><a xlink:title=" ">
<path fill="none" stroke="#63b8ff" d="M394.96,-275.95C394.05,-268.53 393.88,-259.41 394.46,-251.38"/>
<polygon fill="#63b8ff" stroke="#63b8ff" points="398.03,-252.07 395.84,-241.7 391.09,-251.17 398.03,-252.07"/>
</a>
</g>
</g>
<!-- Node4&#45;&gt;Node1 -->
<g id="edge4_Node000004_Node000001" class="edge">
<title>Node4&#45;&gt;Node1</title>
<g id="a_edge4_Node000004_Node000001"><a xlink:title=" ">
<path fill="none" stroke="#63b8ff" d="M405.91,-240.7C407.26,-247.23 407.81,-256.39 407.57,-265.07"/>
<polygon fill="#63b8ff" stroke="#63b8ff" points="404.01,-264.72 406.79,-274.95 411,-265.22 404.01,-264.72"/>
</a>
</g>
</g>
<!-- Node5 -->
<g id="Node000005" class="node">
<title>Node5</title>
<g id="a_Node000005"><a xlink:href="../../d4/dac/unique__edge__map_8h.html" target="_top" xlink:title=" ">
<polygon fill="white" stroke="#666666" points="405.38,-185 302.38,-185 302.38,-165.75 405.38,-165.75 405.38,-185"/>
<text text-anchor="middle" x="353.88" y="-171.5" font-family="Helvetica,sans-Serif" font-size="10.00">unique_edge_map.h</text>
</a>
</g>
</g>
<!-- Node4&#45;&gt;Node5 -->
<g id="edge5_Node000004_Node000005" class="edge">
<title>Node4&#45;&gt;Node5</title>
<g id="a_edge5_Node000004_Node000005"><a xlink:title=" ">
<path fill="none" stroke="#63b8ff" d="M393.11,-220.83C386.55,-213.4 376.97,-202.54 368.91,-193.41"/>
<polygon fill="#63b8ff" stroke="#63b8ff" points="372.05,-191.54 362.8,-186.36 366.8,-196.17 372.05,-191.54"/>
</a>
</g>
</g>
<!-- Node7 -->
<g id="Node000007" class="node">
<title>Node7</title>
<g id="a_Node000007"><a xlink:title=" ">
<polygon fill="#e0e0e0" stroke="#999999" points="496.38,-129.75 453.38,-129.75 453.38,-110.5 496.38,-110.5 496.38,-129.75"/>
<text text-anchor="middle" x="474.88" y="-116.25" font-family="Helvetica,sans-Serif" font-size="10.00">vector</text>
</a>
</g>
</g>
<!-- Node4&#45;&gt;Node7 -->
<g id="edge23_Node000004_Node000007" class="edge">
<title>Node4&#45;&gt;Node7</title>
<g id="a_edge23_Node000004_Node000007"><a xlink:title=" ">
<path fill="none" stroke="#63b8ff" d="M406.93,-220.75C419.07,-202.94 446.6,-162.58 462.64,-139.06"/>
<polygon fill="#63b8ff" stroke="#63b8ff" points="465.99,-141.36 468.74,-131.13 460.21,-137.42 465.99,-141.36"/>
</a>
</g>
</g>
<!-- Node29 -->
<g id="Node000029" class="node">
<title>Node29</title>
<g id="a_Node000029"><a xlink:title=" ">
<polygon fill="#e0e0e0" stroke="#999999" points="434,-74.5 385.75,-74.5 385.75,-55.25 434,-55.25 434,-74.5"/>
<text text-anchor="middle" x="409.88" y="-61" font-family="Helvetica,sans-Serif" font-size="10.00">cassert</text>
</a>
</g>
</g>
<!-- Node4&#45;&gt;Node29 -->
<g id="edge24_Node000004_Node000029" class="edge">
<title>Node4&#45;&gt;Node29</title>
<g id="a_edge24_Node000004_Node000029"><a xlink:title=" ">
<path fill="none" stroke="#63b8ff" d="M416.97,-220.54C441.8,-205.46 488.4,-172.62 505.88,-129.75 518.02,-99.94 477.02,-82.37 444.86,-73.43"/>
<polygon fill="#63b8ff" stroke="#63b8ff" points="445.93,-69.84 435.38,-70.73 444.18,-76.62 445.93,-69.84"/>
</a>
</g>
</g>
<!-- Node5&#45;&gt;Node2 -->
<g id="edge6_Node000005_Node000002" class="edge">
<title>Node5&#45;&gt;Node2</title>
<g id="a_edge6_Node000005_Node000002"><a xlink:title=" ">
<path fill="none" stroke="#63b8ff" d="M301.94,-165.54C242.43,-153.33 144.31,-126.63 75.88,-74.5 60.05,-62.45 47.59,-43.25 39.83,-29.04"/>
<polygon fill="#63b8ff" stroke="#63b8ff" points="42.53,-27.64 34.84,-20.35 36.31,-30.84 42.53,-27.64"/>
</a>
</g>
</g>
<!-- Node6 -->
<g id="Node000006" class="node">
<title>Node6</title>
<g id="a_Node000006"><a xlink:title=" ">
<polygon fill="#e0e0e0" stroke="#999999" points="400,-19.25 327.75,-19.25 327.75,0 400,0 400,-19.25"/>
<text text-anchor="middle" x="363.88" y="-5.75" font-family="Helvetica,sans-Serif" font-size="10.00">Eigen/Dense</text>
</a>
</g>
</g>
<!-- Node5&#45;&gt;Node6 -->
<g id="edge7_Node000005_Node000006" class="edge">
<title>Node5&#45;&gt;Node6</title>
<g id="a_edge7_Node000005_Node000006"><a xlink:title=" ">
<path fill="none" stroke="#63b8ff" d="M367.38,-165.33C389.02,-149.83 430.31,-115.83 442.88,-74.5 445.36,-66.31 447.19,-62.64 442.88,-55.25 434.55,-40.99 419.8,-30.93 405.28,-24.01"/>
<polygon fill="#63b8ff" stroke="#63b8ff" points="406.92,-20.48 396.35,-19.72 404.14,-26.9 406.92,-20.48"/>
</a>
</g>
</g>
<!-- Node5&#45;&gt;Node7 -->
<g id="edge8_Node000005_Node000007" class="edge">
<title>Node5&#45;&gt;Node7</title>
<g id="a_edge8_Node000005_Node000007"><a xlink:title=" ">
<path fill="none" stroke="#63b8ff" d="M374.4,-165.34C393.61,-156.89 422.55,-144.15 444.44,-134.52"/>
<polygon fill="#63b8ff" stroke="#63b8ff" points="445.51,-137.43 453.25,-130.2 442.69,-131.03 445.51,-137.43"/>
</a>
</g>
</g>
<!-- Node8 -->
<g id="Node000008" class="node">
<title>Node8</title>
<g id="a_Node000008"><a xlink:href="../../de/dcd/unique__edge__map_8cpp.html" target="_top" xlink:title=" ">
<polygon fill="white" stroke="#666666" points="396.62,-129.75 283.12,-129.75 283.12,-110.5 396.62,-110.5 396.62,-129.75"/>
<text text-anchor="middle" x="339.88" y="-116.25" font-family="Helvetica,sans-Serif" font-size="10.00">unique_edge_map.cpp</text>
</a>
</g>
</g>
<!-- Node5&#45;&gt;Node8 -->
<g id="edge9_Node000005_Node000008" class="edge">
<title>Node5&#45;&gt;Node8</title>
<g id="a_edge9_Node000005_Node000008"><a xlink:title=" ">
<path fill="none" stroke="#63b8ff" d="M346.4,-165.58C343.18,-158.84 340.21,-149.27 338.49,-140.74"/>
<polygon fill="#63b8ff" stroke="#63b8ff" points="341.86,-140.54 337.03,-131.11 334.93,-141.49 341.86,-140.54"/>
</a>
</g>
</g>
<!-- Node8&#45;&gt;Node5 -->
<g id="edge10_Node000008_Node000005" class="edge">
<title>Node8&#45;&gt;Node5</title>
<g id="a_edge10_Node000008_Node000005"><a xlink:title=" ">
<path fill="none" stroke="#63b8ff" d="M347.44,-130.11C350.62,-136.83 353.54,-146.27 355.25,-154.71"/>
<polygon fill="#63b8ff" stroke="#63b8ff" points="351.91,-155.15 356.73,-164.58 358.84,-154.2 351.91,-155.15"/>
</a>
</g>
</g>
<!-- Node9 -->
<g id="Node000009" class="node">
<title>Node9</title>
<g id="a_Node000009"><a xlink:href="../../d7/dec/oriented__facets_8h.html" target="_top" xlink:title=" ">
<polygon fill="white" stroke="#666666" points="176.38,-74.5 85.38,-74.5 85.38,-55.25 176.38,-55.25 176.38,-74.5"/>
<text text-anchor="middle" x="130.88" y="-61" font-family="Helvetica,sans-Serif" font-size="10.00">oriented_facets.h</text>
</a>
</g>
</g>
<!-- Node8&#45;&gt;Node9 -->
<g id="edge11_Node000008_Node000009" class="edge">
<title>Node8&#45;&gt;Node9</title>
<g id="a_edge11_Node000008_Node000009"><a xlink:title=" ">
<path fill="none" stroke="#63b8ff" d="M304.42,-110.09C269.29,-101.14 215.32,-87.39 176.9,-77.6"/>
<polygon fill="#63b8ff" stroke="#63b8ff" points="178.06,-74.03 167.5,-74.95 176.33,-80.81 178.06,-74.03"/>
</a>
</g>
</g>
<!-- Node11 -->
<g id="Node000011" class="node">
<title>Node11</title>
<g id="a_Node000011"><a xlink:href="../../d7/d86/unique__simplices_8h.html" target="_top" xlink:title=" ">
<polygon fill="white" stroke="#666666" points="293.5,-74.5 194.25,-74.5 194.25,-55.25 293.5,-55.25 293.5,-74.5"/>
<text text-anchor="middle" x="243.88" y="-61" font-family="Helvetica,sans-Serif" font-size="10.00">unique_simplices.h</text>
</a>
</g>
</g>
<!-- Node8&#45;&gt;Node11 -->
<g id="edge16_Node000008_Node000011" class="edge">
<title>Node8&#45;&gt;Node11</title>
<g id="a_edge16_Node000008_Node000011"><a xlink:title=" ">
<path fill="none" stroke="#63b8ff" d="M323.59,-110.09C308.83,-101.91 286.84,-89.71 269.69,-80.19"/>
<polygon fill="#63b8ff" stroke="#63b8ff" points="271.68,-76.74 261.24,-74.95 268.29,-82.86 271.68,-76.74"/>
</a>
</g>
</g>
<!-- Node8&#45;&gt;Node29 -->
<g id="edge21_Node000008_Node000029" class="edge">
<title>Node8&#45;&gt;Node29</title>
<g id="a_edge21_Node000008_Node000029"><a xlink:title=" ">
<path fill="none" stroke="#63b8ff" d="M351.75,-110.09C362.07,-102.24 377.24,-90.7 389.5,-81.37"/>
<polygon fill="#63b8ff" stroke="#63b8ff" points="391.34,-83.61 397.18,-74.77 387.1,-78.04 391.34,-83.61"/>
</a>
</g>
</g>
<!-- Node31 -->
<g id="Node000031" class="node">
<title>Node31</title>
<g id="a_Node000031"><a xlink:title=" ">
<polygon fill="#e0e0e0" stroke="#999999" points="367.75,-74.5 312,-74.5 312,-55.25 367.75,-55.25 367.75,-74.5"/>
<text text-anchor="middle" x="339.88" y="-61" font-family="Helvetica,sans-Serif" font-size="10.00">algorithm</text>
</a>
</g>
</g>
<!-- Node8&#45;&gt;Node31 -->
<g id="edge22_Node000008_Node000031" class="edge">
<title>Node8&#45;&gt;Node31</title>
<g id="a_edge22_Node000008_Node000031"><a xlink:title=" ">
<path fill="none" stroke="#63b8ff" d="M339.88,-110.33C339.88,-103.67 339.88,-94.24 339.88,-85.78"/>
<polygon fill="#63b8ff" stroke="#63b8ff" points="343.38,-85.86 339.88,-75.86 336.38,-85.86 343.38,-85.86"/>
</a>
</g>
</g>
<!-- Node9&#45;&gt;Node2 -->
<g id="edge12_Node000009_Node000002" class="edge">
<title>Node9&#45;&gt;Node2</title>
<g id="a_edge12_Node000009_Node000002"><a xlink:title=" ">
<path fill="none" stroke="#63b8ff" d="M113.91,-54.84C98.47,-46.62 75.41,-34.34 57.51,-24.81"/>
<polygon fill="#63b8ff" stroke="#63b8ff" points="59.39,-21.31 48.92,-19.7 56.1,-27.49 59.39,-21.31"/>
</a>
</g>
</g>
<!-- Node9&#45;&gt;Node6 -->
<g id="edge13_Node000009_Node000006" class="edge">
<title>Node9&#45;&gt;Node6</title>
<g id="a_edge13_Node000009_Node000006"><a xlink:title=" ">
<path fill="none" stroke="#63b8ff" d="M170.66,-54.78C211.16,-45.53 273.93,-31.18 316.86,-21.37"/>
<polygon fill="#63b8ff" stroke="#63b8ff" points="317.35,-24.62 326.32,-18.98 315.79,-17.8 317.35,-24.62"/>
</a>
</g>
</g>
<!-- Node10 -->
<g id="Node000010" class="node">
<title>Node10</title>
<g id="a_Node000010"><a xlink:href="../../da/d48/oriented__facets_8cpp.html" target="_top" xlink:title=" ">
<polygon fill="white" stroke="#666666" points="181.62,-19.25 80.12,-19.25 80.12,0 181.62,0 181.62,-19.25"/>
<text text-anchor="middle" x="130.88" y="-5.75" font-family="Helvetica,sans-Serif" font-size="10.00">oriented_facets.cpp</text>
</a>
</g>
</g>
<!-- Node9&#45;&gt;Node10 -->
<g id="edge14_Node000009_Node000010" class="edge">
<title>Node9&#45;&gt;Node10</title>
<g id="a_edge14_Node000009_Node000010"><a xlink:title=" ">
<path fill="none" stroke="#63b8ff" d="M125.71,-55.08C124.27,-48.34 123.81,-38.77 124.34,-30.24"/>
<polygon fill="#63b8ff" stroke="#63b8ff" points="127.9,-30.97 125.67,-20.61 120.95,-30.1 127.9,-30.97"/>
</a>
</g>
</g>
<!-- Node10&#45;&gt;Node9 -->
<g id="edge15_Node000010_Node000009" class="edge">
<title>Node10&#45;&gt;Node9</title>
<g id="a_edge15_Node000010_Node000009"><a xlink:title=" ">
<path fill="none" stroke="#63b8ff" d="M136.08,-19.61C137.49,-26.33 137.93,-35.77 137.42,-44.21"/>
<polygon fill="#63b8ff" stroke="#63b8ff" points="133.82,-43.72 136.04,-54.08 140.77,-44.6 133.82,-43.72"/>
</a>
</g>
</g>
<!-- Node11&#45;&gt;Node2 -->
<g id="edge17_Node000011_Node000002" class="edge">
<title>Node11&#45;&gt;Node2</title>
<g id="a_edge17_Node000011_Node000002"><a xlink:title=" ">
<path fill="none" stroke="#63b8ff" d="M207.74,-54.84C170.31,-45.48 111.89,-30.88 72.54,-21.04"/>
<polygon fill="#63b8ff" stroke="#63b8ff" points="73.53,-17.43 62.98,-18.4 71.83,-24.22 73.53,-17.43"/>
</a>
</g>
</g>
<!-- Node11&#45;&gt;Node6 -->
<g id="edge18_Node000011_Node000006" class="edge">
<title>Node11&#45;&gt;Node6</title>
<g id="a_edge18_Node000011_Node000006"><a xlink:title=" ">
<path fill="none" stroke="#63b8ff" d="M264.23,-54.84C283.19,-46.43 311.72,-33.77 333.4,-24.15"/>
<polygon fill="#63b8ff" stroke="#63b8ff" points="334.7,-26.96 342.42,-19.7 331.86,-20.56 334.7,-26.96"/>
</a>
</g>
</g>
<!-- Node12 -->
<g id="Node000012" class="node">
<title>Node12</title>
<g id="a_Node000012"><a xlink:href="../../db/d0c/unique__simplices_8cpp.html" target="_top" xlink:title=" ">
<polygon fill="#fff0f0" stroke="red" points="309.75,-19.25 200,-19.25 200,0 309.75,0 309.75,-19.25"/>
<text text-anchor="middle" x="254.88" y="-5.75" font-family="Helvetica,sans-Serif" font-size="10.00">unique_simplices.cpp</text>
</a>
</g>
</g>
<!-- Node11&#45;&gt;Node12 -->
<g id="edge19_Node000011_Node000012" class="edge">
<title>Node11&#45;&gt;Node12</title>
<g id="a_edge19_Node000011_Node000012"><a xlink:title=" ">
<path fill="none" stroke="#63b8ff" d="M240.53,-55.08C240.47,-48.26 242.03,-38.56 244.36,-29.95"/>
<polygon fill="#63b8ff" stroke="#63b8ff" points="247.97,-31.2 247.81,-20.61 241.33,-28.99 247.97,-31.2"/>
</a>
</g>
</g>
<!-- Node12&#45;&gt;Node11 -->
<g id="edge20_Node000012_Node000011" class="edge">
<title>Node12&#45;&gt;Node11</title>
<g id="a_edge20_Node000012_Node000011"><a xlink:title=" ">
<path fill="none" stroke="#63b8ff" d="M258.23,-19.61C258.25,-26.48 256.67,-36.21 254.32,-44.79"/>
<polygon fill="#63b8ff" stroke="#63b8ff" points="250.73,-43.49 250.86,-54.08 257.36,-45.72 250.73,-43.49"/>
</a>
</g>
</g>
</g>
</svg>

<g id="navigator" transform="translate(0 0)" fill="#404254">
  <rect fill="#f2f5e9" fill-opacity="0.5" stroke="#606060" stroke-width=".5" x="0" y="0" width="60" height="60"/>
  <use id="zoomplus" xlink:href="#zoomPlus" x="17" y="9" onmousedown="handleZoom(evt,'in')"/>
  <use id="zoomminus" xlink:href="#zoomMin" x="42" y="9" onmousedown="handleZoom(evt,'out')"/>
  <use id="reset" xlink:href="#resetDef" x="30" y="36" onmousedown="handleReset()"/>
   <use id="arrowup" xlink:href="#arrowUp" x="0" y="0" onmousedown="handlePan(0,-1)"/>
  <use id="arrowright" xlink:href="#arrowRight" x="0" y="0" onmousedown="handlePan(1,0)"/>
  <use id="arrowdown" xlink:href="#arrowDown" x="0" y="0" onmousedown="handlePan(0,1)"/>
  <use id="arrowleft" xlink:href="#arrowLeft" x="0" y="0" onmousedown="handlePan(-1,0)"/>
</g>
<svg viewBox="0 0 15 15" width="100%" height="30px" preserveAspectRatio="xMaxYMin meet">
 <g id="arrow_out" transform="scale(0.3 0.3)">
  <a xlink:href="edge__flaps_8h__incl_org.svg" target="_base">
   <rect id="button" ry="5" rx="5" y="6" x="6" height="38" width="38"
        fill="#f2f5e9" fill-opacity="0.5" stroke="#606060" stroke-width="1.0"/>
   <path id="arrow"
     d="M 11.500037,31.436501 C 11.940474,20.09759 22.043105,11.32322 32.158766,21.979434 L 37.068811,17.246167 C 37.068811,17.246167 37.088388,32 37.088388,32 L 22.160133,31.978069 C 22.160133,31.978069 26.997745,27.140456 26.997745,27.140456 C 18.528582,18.264221 13.291696,25.230495 11.500037,31.436501 z"
     style="fill:#404040;"/>
  </a>
 </g>
</svg>

<style type='text/css'>
<![CDATA[
[data-mouse-over-selected='false'] { opacity: 0.7; }
[data-mouse-over-selected='true']  { opacity: 1.0; }
]]>
</style>
<script type="application/ecmascript"><![CDATA[
document.addEventListener('DOMContentLoaded', (event) => {
  highlightEdges();
  highlightAdjacentNodes();
});
]]></script>
</svg>
