<?xml version="1.0" encoding="UTF-8" standalone="no"?>
<!DOCTYPE svg PUBLIC "-//W3C//DTD SVG 1.1//EN"
 "http://www.w3.org/Graphics/SVG/1.1/DTD/svg11.dtd">
<!-- Generated by graphviz version 8.0.5 (20230430.1635)
 -->
<!-- Title: jtag3_page_erase Pages: 1 -->
<svg width="878pt" height="702pt"
 viewBox="0.00 0.00 877.50 701.62" xmlns="http://www.w3.org/2000/svg" xmlns:xlink="http://www.w3.org/1999/xlink">
<g id="graph0" class="graph" transform="scale(1 1) rotate(0) translate(4 697.62)">
<title>jtag3_page_erase</title>
<!-- Node1 -->
<g id="Node000001" class="node">
<title>Node1</title>
<g id="a_Node000001"><a xlink:title=" ">
<polygon fill="#999999" stroke="#666666" points="92.5,-342.25 0,-342.25 0,-323 92.5,-323 92.5,-342.25"/>
<text text-anchor="middle" x="46.25" y="-328.75" font-family="Helvetica,sans-Serif" font-size="10.00">jtag3_page_erase</text>
</a>
</g>
</g>
<!-- Node2 -->
<g id="Node000002" class="node">
<title>Node2</title>
<g id="a_Node000002"><a xlink:href="../../d0/d29/main_8c.html#ae3011b9c6440c863e64eed3fed5106e3" target="_top" xlink:title=" ">
<polygon fill="white" stroke="#666666" points="869.5,-190.25 774,-190.25 774,-171 869.5,-171 869.5,-190.25"/>
<text text-anchor="middle" x="821.75" y="-176.75" font-family="Helvetica,sans-Serif" font-size="10.00">avrdude_message</text>
</a>
</g>
</g>
<!-- Node1&#45;&gt;Node2 -->
<g id="edge1_Node000001_Node000002" class="edge">
<title>Node1&#45;&gt;Node2</title>
<g id="a_edge1_Node000001_Node000002"><a xlink:title=" ">
<path fill="none" stroke="#63b8ff" d="M92.57,-337.77C146.15,-343.39 238.07,-351.62 317.25,-351.62 317.25,-351.62 317.25,-351.62 540.25,-351.62 628.54,-351.62 664.34,-381.31 738,-332.62 784.86,-301.65 807.41,-234.85 816.17,-201.07"/>
<polygon fill="#63b8ff" stroke="#63b8ff" points="819.75,-202.16 818.7,-191.61 812.94,-200.51 819.75,-202.16"/>
</a>
</g>
</g>
<!-- Node3 -->
<g id="Node000003" class="node">
<title>Node3</title>
<g id="a_Node000003"><a xlink:href="../../d3/dbc/config__gram_8c.html#af07d89f5ceaea0c7c8252cc41fd75f37" target="_top" xlink:title=" ">
<polygon fill="white" stroke="#666666" points="838,-589.25 805.5,-589.25 805.5,-570 838,-570 838,-589.25"/>
<text text-anchor="middle" x="821.75" y="-575.75" font-family="Helvetica,sans-Serif" font-size="10.00">free</text>
</a>
</g>
</g>
<!-- Node1&#45;&gt;Node3 -->
<g id="edge2_Node000001_Node000003" class="edge">
<title>Node1&#45;&gt;Node3</title>
<g id="a_edge2_Node000001_Node000003"><a xlink:title=" ">
<path fill="none" stroke="#63b8ff" d="M49.38,-342.66C62.42,-400.96 136.85,-693.62 317.25,-693.62 317.25,-693.62 317.25,-693.62 540.25,-693.62 630.8,-693.62 656.64,-684.37 738,-644.62 762.93,-632.45 787.4,-611.84 803.19,-597.09"/>
<polygon fill="#63b8ff" stroke="#63b8ff" points="805.22,-600.04 810.01,-590.59 800.37,-594.99 805.22,-600.04"/>
</a>
</g>
</g>
<!-- Node4 -->
<g id="Node000004" class="node">
<title>Node4</title>
<g id="a_Node000004"><a xlink:href="../../d7/d90/jtag3_8c.html#aeaccd929435dd558a2efa01cf7bc098e" target="_top" xlink:title=" ">
<polygon fill="white" stroke="#666666" points="360.75,-285.25 275.75,-285.25 275.75,-266 360.75,-266 360.75,-285.25"/>
<text text-anchor="middle" x="318.25" y="-271.75" font-family="Helvetica,sans-Serif" font-size="10.00">jtag3_command</text>
</a>
</g>
</g>
<!-- Node1&#45;&gt;Node4 -->
<g id="edge3_Node000001_Node000004" class="edge">
<title>Node1&#45;&gt;Node4</title>
<g id="a_edge3_Node000001_Node000004"><a xlink:title=" ">
<path fill="none" stroke="#63b8ff" d="M64.35,-322.54C80.35,-313.62 105.23,-301.04 128.5,-294.62 173.29,-282.28 226.04,-277.77 264.37,-276.21"/>
<polygon fill="#63b8ff" stroke="#63b8ff" points="264.4,-279.68 274.27,-275.83 264.16,-272.68 264.4,-279.68"/>
</a>
</g>
</g>
<!-- Node16 -->
<g id="Node000016" class="node">
<title>Node16</title>
<g id="a_Node000016"><a xlink:href="../../d7/d90/jtag3_8c.html#ad54075876772d7170cbde81e58940c44" target="_top" xlink:title=" ">
<polygon fill="white" stroke="#666666" points="225.5,-323.25 142.75,-323.25 142.75,-304 225.5,-304 225.5,-323.25"/>
<text text-anchor="middle" x="184.12" y="-309.75" font-family="Helvetica,sans-Serif" font-size="10.00">jtag3_memtype</text>
</a>
</g>
</g>
<!-- Node1&#45;&gt;Node16 -->
<g id="edge32_Node000001_Node000016" class="edge">
<title>Node1&#45;&gt;Node16</title>
<g id="a_edge32_Node000001_Node000016"><a xlink:title=" ">
<path fill="none" stroke="#63b8ff" d="M92.87,-326.25C105.4,-324.49 119.07,-322.58 131.89,-320.79"/>
<polygon fill="#63b8ff" stroke="#63b8ff" points="132,-324.17 141.42,-319.32 131.03,-317.24 132,-324.17"/>
</a>
</g>
</g>
<!-- Node17 -->
<g id="Node000017" class="node">
<title>Node17</title>
<g id="a_Node000017"><a xlink:href="../../d7/d90/jtag3_8c.html#aa301fecb0dec2de1542672cc00a3b5cf" target="_top" xlink:title=" ">
<polygon fill="white" stroke="#666666" points="239.75,-399.25 128.5,-399.25 128.5,-380 239.75,-380 239.75,-399.25"/>
<text text-anchor="middle" x="184.12" y="-385.75" font-family="Helvetica,sans-Serif" font-size="10.00">jtag3_program_enable</text>
</a>
</g>
</g>
<!-- Node1&#45;&gt;Node17 -->
<g id="edge33_Node000001_Node000017" class="edge">
<title>Node1&#45;&gt;Node17</title>
<g id="a_edge33_Node000001_Node000017"><a xlink:title=" ">
<path fill="none" stroke="#63b8ff" d="M71.23,-342.68C92.96,-351.8 125.21,-365.33 149.51,-375.52"/>
<polygon fill="#63b8ff" stroke="#63b8ff" points="147.81,-379.03 158.39,-379.67 150.52,-372.57 147.81,-379.03"/>
</a>
</g>
</g>
<!-- Node18 -->
<g id="Node000018" class="node">
<title>Node18</title>
<g id="a_Node000018"><a xlink:href="../../d7/d90/jtag3_8c.html#a4df5b1ac968b4286976928d7bfec7ef6" target="_top" xlink:title=" ">
<polygon fill="white" stroke="#666666" points="214.62,-247.25 153.62,-247.25 153.62,-228 214.62,-228 214.62,-247.25"/>
<text text-anchor="middle" x="184.12" y="-233.75" font-family="Helvetica,sans-Serif" font-size="10.00">u32_to_b4</text>
</a>
</g>
</g>
<!-- Node1&#45;&gt;Node18 -->
<g id="edge36_Node000001_Node000018" class="edge">
<title>Node1&#45;&gt;Node18</title>
<g id="a_edge36_Node000001_Node000018"><a xlink:title=" ">
<path fill="none" stroke="#63b8ff" d="M56.48,-322.84C70.8,-308.08 99.72,-279.91 128.5,-261.62 133.93,-258.17 139.95,-254.98 145.94,-252.13"/>
<polygon fill="#63b8ff" stroke="#63b8ff" points="147.21,-254.95 154.9,-247.66 144.34,-248.56 147.21,-254.95"/>
</a>
</g>
</g>
<!-- Node4&#45;&gt;Node2 -->
<g id="edge4_Node000004_Node000002" class="edge">
<title>Node4&#45;&gt;Node2</title>
<g id="a_edge4_Node000004_Node000002"><a xlink:title=" ">
<path fill="none" stroke="#63b8ff" d="M323.92,-265.53C334.5,-243.37 362.13,-189.61 396.75,-153.62 475.8,-71.47 509.35,-52.86 620.75,-28.62 671.67,-17.55 693.2,-2.01 738,-28.62 786.52,-57.46 808.39,-125.82 816.6,-160.17"/>
<polygon fill="#63b8ff" stroke="#63b8ff" points="813.37,-160.78 818.95,-169.79 820.2,-159.27 813.37,-160.78"/>
</a>
</g>
</g>
<!-- Node4&#45;&gt;Node3 -->
<g id="edge5_Node000004_Node000003" class="edge">
<title>Node4&#45;&gt;Node3</title>
<g id="a_edge5_Node000004_Node000003"><a xlink:title=" ">
<path fill="none" stroke="#63b8ff" d="M324.18,-285.68C348.25,-333.31 458.92,-535.9 620.75,-580.62 681.22,-597.34 755.95,-589.96 794.69,-584.17"/>
<polygon fill="#63b8ff" stroke="#63b8ff" points="794.74,-587.55 804.07,-582.53 793.64,-580.64 794.74,-587.55"/>
</a>
</g>
</g>
<!-- Node5 -->
<g id="Node000005" class="node">
<title>Node5</title>
<g id="a_Node000005"><a xlink:href="../../d7/d90/jtag3_8c.html#ab75d291b1b8e2eeab167cf81ad6bed07" target="_top" xlink:title=" ">
<polygon fill="white" stroke="#666666" points="573.88,-171.25 504.62,-171.25 504.62,-152 573.88,-152 573.88,-171.25"/>
<text text-anchor="middle" x="539.25" y="-157.75" font-family="Helvetica,sans-Serif" font-size="10.00">jtag3_prmsg</text>
</a>
</g>
</g>
<!-- Node4&#45;&gt;Node5 -->
<g id="edge6_Node000004_Node000005" class="edge">
<title>Node4&#45;&gt;Node5</title>
<g id="a_edge6_Node000004_Node000005"><a xlink:title=" ">
<path fill="none" stroke="#63b8ff" d="M338.68,-265.51C377.32,-245.4 463.96,-200.3 509.31,-176.69"/>
<polygon fill="#63b8ff" stroke="#63b8ff" points="510.6,-179.44 517.86,-171.72 507.37,-173.23 510.6,-179.44"/>
</a>
</g>
</g>
<!-- Node7 -->
<g id="Node000007" class="node">
<title>Node7</title>
<g id="a_Node000007"><a xlink:href="../../d7/d90/jtag3_8c.html#a338833a28f07f6305b67f49f883f4166" target="_top" xlink:title=" ">
<polygon fill="white" stroke="#666666" points="457.75,-304.25 396.75,-304.25 396.75,-285 457.75,-285 457.75,-304.25"/>
<text text-anchor="middle" x="427.25" y="-290.75" font-family="Helvetica,sans-Serif" font-size="10.00">jtag3_recv</text>
</a>
</g>
</g>
<!-- Node4&#45;&gt;Node7 -->
<g id="edge10_Node000004_Node000007" class="edge">
<title>Node4&#45;&gt;Node7</title>
<g id="a_edge10_Node000004_Node000007"><a xlink:title=" ">
<path fill="none" stroke="#63b8ff" d="M361.23,-283.08C369.28,-284.51 377.7,-286 385.7,-287.42"/>
<polygon fill="#63b8ff" stroke="#63b8ff" points="384.83,-291 395.29,-289.3 386.05,-284.11 384.83,-291"/>
</a>
</g>
</g>
<!-- Node13 -->
<g id="Node000013" class="node">
<title>Node13</title>
<g id="a_Node000013"><a xlink:href="../../d7/d90/jtag3_8c.html#a1819d45b2133e04e7f705b2c770816fe" target="_top" xlink:title=" ">
<polygon fill="white" stroke="#666666" points="570.88,-115.25 507.62,-115.25 507.62,-96 570.88,-96 570.88,-115.25"/>
<text text-anchor="middle" x="539.25" y="-101.75" font-family="Helvetica,sans-Serif" font-size="10.00">jtag3_send</text>
</a>
</g>
</g>
<!-- Node4&#45;&gt;Node13 -->
<g id="edge24_Node000004_Node000013" class="edge">
<title>Node4&#45;&gt;Node13</title>
<g id="a_edge24_Node000004_Node000013"><a xlink:title=" ">
<path fill="none" stroke="#63b8ff" d="M328.33,-265.98C342.35,-251.32 370.41,-222.89 396.75,-201.62 435.14,-170.63 483.33,-139.41 512.41,-121.33"/>
<polygon fill="#63b8ff" stroke="#63b8ff" points="513.82,-123.95 520.5,-115.72 510.15,-118 513.82,-123.95"/>
</a>
</g>
</g>
<!-- Node5&#45;&gt;Node2 -->
<g id="edge7_Node000005_Node000002" class="edge">
<title>Node5&#45;&gt;Node2</title>
<g id="a_edge7_Node000005_Node000002"><a xlink:title=" ">
<path fill="none" stroke="#63b8ff" d="M574.36,-163.94C621.27,-167.11 706.33,-172.87 763.19,-176.73"/>
<polygon fill="#63b8ff" stroke="#63b8ff" points="762.6,-180.26 772.81,-177.45 763.07,-173.28 762.6,-180.26"/>
</a>
</g>
</g>
<!-- Node6 -->
<g id="Node000006" class="node">
<title>Node6</title>
<g id="a_Node000006"><a xlink:href="../../d7/d90/jtag3_8c.html#a2a4dddcf9974dd1a8f0ccf2012a3e280" target="_top" xlink:title=" ">
<polygon fill="white" stroke="#666666" points="721.88,-133.25 636.88,-133.25 636.88,-114 721.88,-114 721.88,-133.25"/>
<text text-anchor="middle" x="679.38" y="-119.75" font-family="Helvetica,sans-Serif" font-size="10.00">jtag3_print_data</text>
</a>
</g>
</g>
<!-- Node5&#45;&gt;Node6 -->
<g id="edge8_Node000005_Node000006" class="edge">
<title>Node5&#45;&gt;Node6</title>
<g id="a_edge8_Node000005_Node000006"><a xlink:title=" ">
<path fill="none" stroke="#63b8ff" d="M574.04,-152.33C591.34,-147.57 612.69,-141.7 631.55,-136.51"/>
<polygon fill="#63b8ff" stroke="#63b8ff" points="632.32,-139.65 641.03,-133.62 630.46,-132.9 632.32,-139.65"/>
</a>
</g>
</g>
<!-- Node6&#45;&gt;Node2 -->
<g id="edge9_Node000006_Node000002" class="edge">
<title>Node6&#45;&gt;Node2</title>
<g id="a_edge9_Node000006_Node000002"><a xlink:title=" ">
<path fill="none" stroke="#63b8ff" d="M705.15,-133.68C727.7,-142.84 761.21,-156.45 786.36,-166.66"/>
<polygon fill="#63b8ff" stroke="#63b8ff" points="784.64,-170.15 795.22,-170.67 787.28,-163.66 784.64,-170.15"/>
</a>
</g>
</g>
<!-- Node7&#45;&gt;Node2 -->
<g id="edge11_Node000007_Node000002" class="edge">
<title>Node7&#45;&gt;Node2</title>
<g id="a_edge11_Node000007_Node000002"><a xlink:title=" ">
<path fill="none" stroke="#63b8ff" d="M447.92,-284.52C482.14,-267.35 555.26,-232.52 620.75,-213.62 667.67,-200.09 722.5,-191.53 762.87,-186.53"/>
<polygon fill="#63b8ff" stroke="#63b8ff" points="763.07,-189.91 772.59,-185.24 762.24,-182.96 763.07,-189.91"/>
</a>
</g>
</g>
<!-- Node7&#45;&gt;Node3 -->
<g id="edge12_Node000007_Node000003" class="edge">
<title>Node7&#45;&gt;Node3</title>
<g id="a_edge12_Node000007_Node000003"><a xlink:title=" ">
<path fill="none" stroke="#63b8ff" d="M430.84,-304.68C437.8,-330.28 458.74,-399.25 493.75,-446.62 537.79,-506.21 552.93,-524.78 620.75,-554.62 678.78,-580.16 754.85,-582.07 794.36,-581.01"/>
<polygon fill="#63b8ff" stroke="#63b8ff" points="794.3,-584.48 804.16,-580.62 794.04,-577.48 794.3,-584.48"/>
</a>
</g>
</g>
<!-- Node8 -->
<g id="Node000008" class="node">
<title>Node8</title>
<g id="a_Node000008"><a xlink:href="../../d7/d90/jtag3_8c.html#a5c643f261f96648759590e1d698dae16" target="_top" xlink:title=" ">
<polygon fill="white" stroke="#666666" points="576.5,-304.25 502,-304.25 502,-285 576.5,-285 576.5,-304.25"/>
<text text-anchor="middle" x="539.25" y="-290.75" font-family="Helvetica,sans-Serif" font-size="10.00">jtag3_prevent</text>
</a>
</g>
</g>
<!-- Node7&#45;&gt;Node8 -->
<g id="edge13_Node000007_Node000008" class="edge">
<title>Node7&#45;&gt;Node8</title>
<g id="a_edge13_Node000007_Node000008"><a xlink:title=" ">
<path fill="none" stroke="#63b8ff" d="M458.02,-294.62C468.13,-294.62 479.71,-294.62 490.85,-294.62"/>
<polygon fill="#63b8ff" stroke="#63b8ff" points="490.79,-298.13 500.79,-294.62 490.79,-291.13 490.79,-298.13"/>
</a>
</g>
</g>
<!-- Node10 -->
<g id="Node000010" class="node">
<title>Node10</title>
<g id="a_Node000010"><a xlink:href="../../d7/d90/jtag3_8c.html#a4c170bcc2d17578dc4c74d1987ad9d65" target="_top" xlink:title=" ">
<polygon fill="white" stroke="#666666" points="584.75,-437.25 493.75,-437.25 493.75,-418 584.75,-418 584.75,-437.25"/>
<text text-anchor="middle" x="539.25" y="-423.75" font-family="Helvetica,sans-Serif" font-size="10.00">jtag3_recv_frame</text>
</a>
</g>
</g>
<!-- Node7&#45;&gt;Node10 -->
<g id="edge16_Node000007_Node000010" class="edge">
<title>Node7&#45;&gt;Node10</title>
<g id="a_edge16_Node000007_Node000010"><a xlink:title=" ">
<path fill="none" stroke="#63b8ff" d="M436.52,-304.62C454.91,-326.86 499.45,-380.72 523.03,-409.22"/>
<polygon fill="#63b8ff" stroke="#63b8ff" points="520.82,-411.04 529.89,-416.51 526.21,-406.58 520.82,-411.04"/>
</a>
</g>
</g>
<!-- Node8&#45;&gt;Node2 -->
<g id="edge14_Node000008_Node000002" class="edge">
<title>Node8&#45;&gt;Node2</title>
<g id="a_edge14_Node000008_Node000002"><a xlink:title=" ">
<path fill="none" stroke="#63b8ff" d="M565.14,-284.51C615.25,-264.14 728.4,-218.16 785.86,-194.8"/>
<polygon fill="#63b8ff" stroke="#63b8ff" points="786.97,-197.73 794.91,-190.72 784.33,-191.24 786.97,-197.73"/>
</a>
</g>
</g>
<!-- Node9 -->
<g id="Node000009" class="node">
<title>Node9</title>
<g id="a_Node000009"><a xlink:href="../../d7/d90/jtag3_8c.html#af8a97611b28333d6b92f712a453cb4d4" target="_top" xlink:title=" ">
<polygon fill="white" stroke="#666666" points="709.88,-323.25 648.88,-323.25 648.88,-304 709.88,-304 709.88,-323.25"/>
<text text-anchor="middle" x="679.38" y="-309.75" font-family="Helvetica,sans-Serif" font-size="10.00">b4_to_u32</text>
</a>
</g>
</g>
<!-- Node8&#45;&gt;Node9 -->
<g id="edge15_Node000008_Node000009" class="edge">
<title>Node8&#45;&gt;Node9</title>
<g id="a_edge15_Node000008_Node000009"><a xlink:title=" ">
<path fill="none" stroke="#63b8ff" d="M576.9,-299.67C595.61,-302.24 618.42,-305.38 637.67,-308.03"/>
<polygon fill="#63b8ff" stroke="#63b8ff" points="637.15,-311.63 647.54,-309.52 638.11,-304.69 637.15,-311.63"/>
</a>
</g>
</g>
<!-- Node10&#45;&gt;Node2 -->
<g id="edge17_Node000010_Node000002" class="edge">
<title>Node10&#45;&gt;Node2</title>
<g id="a_edge17_Node000010_Node000002"><a xlink:title=" ">
<path fill="none" stroke="#63b8ff" d="M585.09,-424.1C628.91,-418.45 695.12,-403.77 738,-365.62 788.29,-320.89 809.63,-239.71 817.2,-201.53"/>
<polygon fill="#63b8ff" stroke="#63b8ff" points="820.82,-202.22 819.2,-191.75 813.94,-200.94 820.82,-202.22"/>
</a>
</g>
</g>
<!-- Node10&#45;&gt;Node3 -->
<g id="edge18_Node000010_Node000003" class="edge">
<title>Node10&#45;&gt;Node3</title>
<g id="a_edge18_Node000010_Node000003"><a xlink:title=" ">
<path fill="none" stroke="#63b8ff" d="M546.48,-437.61C558.53,-456.13 586.88,-495.88 620.75,-517.62 676.43,-553.38 754.05,-569.63 794.25,-576.04"/>
<polygon fill="#63b8ff" stroke="#63b8ff" points="793.6,-579.63 804.01,-577.66 794.64,-572.71 793.6,-579.63"/>
</a>
</g>
</g>
<!-- Node11 -->
<g id="Node000011" class="node">
<title>Node11</title>
<g id="a_Node000011"><a xlink:href="../../d7/d90/jtag3_8c.html#a3339cfba31d12dd1ae54e0f599e015e3" target="_top" xlink:title=" ">
<polygon fill="white" stroke="#666666" points="738,-475.25 620.75,-475.25 620.75,-456 738,-456 738,-475.25"/>
<text text-anchor="middle" x="679.38" y="-461.75" font-family="Helvetica,sans-Serif" font-size="10.00">jtag3_edbg_recv_frame</text>
</a>
</g>
</g>
<!-- Node10&#45;&gt;Node11 -->
<g id="edge19_Node000010_Node000011" class="edge">
<title>Node10&#45;&gt;Node11</title>
<g id="a_edge19_Node000010_Node000011"><a xlink:title=" ">
<path fill="none" stroke="#63b8ff" d="M576.9,-437.71C593.66,-442.32 613.71,-447.83 631.55,-452.74"/>
<polygon fill="#63b8ff" stroke="#63b8ff" points="630.46,-456.35 641.03,-455.63 632.32,-449.6 630.46,-456.35"/>
</a>
</g>
</g>
<!-- Node12 -->
<g id="Node000012" class="node">
<title>Node12</title>
<g id="a_Node000012"><a xlink:href="../../d3/dbc/config__gram_8c.html#a8d12df60024a0ab3de3a276240433890" target="_top" xlink:title=" ">
<polygon fill="white" stroke="#666666" points="844,-437.25 799.5,-437.25 799.5,-418 844,-418 844,-437.25"/>
<text text-anchor="middle" x="821.75" y="-423.75" font-family="Helvetica,sans-Serif" font-size="10.00">malloc</text>
</a>
</g>
</g>
<!-- Node10&#45;&gt;Node12 -->
<g id="edge23_Node000010_Node000012" class="edge">
<title>Node10&#45;&gt;Node12</title>
<g id="a_edge23_Node000010_Node000012"><a xlink:title=" ">
<path fill="none" stroke="#63b8ff" d="M585.01,-427.62C641.69,-427.62 738,-427.62 788.17,-427.62"/>
<polygon fill="#63b8ff" stroke="#63b8ff" points="788.02,-431.13 798.02,-427.62 788.02,-424.13 788.02,-431.13"/>
</a>
</g>
</g>
<!-- Node11&#45;&gt;Node2 -->
<g id="edge20_Node000011_Node000002" class="edge">
<title>Node11&#45;&gt;Node2</title>
<g id="a_edge20_Node000011_Node000002"><a xlink:title=" ">
<path fill="none" stroke="#63b8ff" d="M691.99,-455.73C704.77,-444.3 725.21,-424.39 738,-403.62 780.18,-335.14 806.08,-241.78 816.05,-201.04"/>
<polygon fill="#63b8ff" stroke="#63b8ff" points="819.63,-202.13 818.54,-191.59 812.82,-200.5 819.63,-202.13"/>
</a>
</g>
</g>
<!-- Node11&#45;&gt;Node3 -->
<g id="edge21_Node000011_Node000003" class="edge">
<title>Node11&#45;&gt;Node3</title>
<g id="a_edge21_Node000011_Node000003"><a xlink:title=" ">
<path fill="none" stroke="#63b8ff" d="M711.27,-475.63C720.31,-479.3 729.92,-483.97 738,-489.62 766.54,-509.61 792.5,-540.97 807.46,-560.9"/>
<polygon fill="#63b8ff" stroke="#63b8ff" points="805.14,-562.66 813.88,-568.66 810.79,-558.53 805.14,-562.66"/>
</a>
</g>
</g>
<!-- Node11&#45;&gt;Node12 -->
<g id="edge22_Node000011_Node000012" class="edge">
<title>Node11&#45;&gt;Node12</title>
<g id="a_edge22_Node000011_Node000012"><a xlink:title=" ">
<path fill="none" stroke="#63b8ff" d="M717.62,-455.54C739.76,-449.55 767.54,-442.03 788.69,-436.3"/>
<polygon fill="#63b8ff" stroke="#63b8ff" points="789.35,-439.48 798.09,-433.49 787.52,-432.72 789.35,-439.48"/>
</a>
</g>
</g>
<!-- Node13&#45;&gt;Node2 -->
<g id="edge25_Node000013_Node000002" class="edge">
<title>Node13&#45;&gt;Node2</title>
<g id="a_edge25_Node000013_Node000002"><a xlink:title=" ">
<path fill="none" stroke="#63b8ff" d="M571.33,-98.64C611.39,-91.15 682.5,-83 738,-104.62 767.54,-116.13 792.93,-143.66 807.53,-162.23"/>
<polygon fill="#63b8ff" stroke="#63b8ff" points="805.15,-163.89 813.97,-169.76 810.73,-159.67 805.15,-163.89"/>
</a>
</g>
</g>
<!-- Node13&#45;&gt;Node3 -->
<g id="edge26_Node000013_Node000003" class="edge">
<title>Node13&#45;&gt;Node3</title>
<g id="a_edge26_Node000013_Node000003"><a xlink:title=" ">
<path fill="none" stroke="#63b8ff" d="M557.95,-115.62C567.56,-122.03 578.69,-131.28 584.75,-142.62 620.78,-210.02 571.48,-426.21 620.75,-484.62 655.65,-526.01 689.46,-493.66 738,-517.62 762.17,-529.56 786.46,-548.83 802.41,-562.72"/>
<polygon fill="#63b8ff" stroke="#63b8ff" points="799.57,-564.77 809.36,-568.81 804.23,-559.54 799.57,-564.77"/>
</a>
</g>
</g>
<!-- Node13&#45;&gt;Node12 -->
<g id="edge30_Node000013_Node000012" class="edge">
<title>Node13&#45;&gt;Node12</title>
<g id="a_edge30_Node000013_Node000012"><a xlink:title=" ">
<path fill="none" stroke="#63b8ff" d="M552.97,-115.71C562.01,-122.99 574.34,-133.17 584.75,-142.62 655.76,-207.13 678.2,-219.61 738,-294.62 768.08,-332.36 796.22,-381.68 810.65,-408.4"/>
<polygon fill="#63b8ff" stroke="#63b8ff" points="807.86,-409.59 815.65,-416.76 814.03,-406.29 807.86,-409.59"/>
</a>
</g>
</g>
<!-- Node14 -->
<g id="Node000014" class="node">
<title>Node14</title>
<g id="a_Node000014"><a xlink:href="../../d7/d90/jtag3_8c.html#a243dffa48843d502fd2b4d9df6862789" target="_top" xlink:title=" ">
<polygon fill="white" stroke="#666666" points="724.12,-57.25 634.62,-57.25 634.62,-38 724.12,-38 724.12,-57.25"/>
<text text-anchor="middle" x="679.38" y="-43.75" font-family="Helvetica,sans-Serif" font-size="10.00">jtag3_edbg_send</text>
</a>
</g>
</g>
<!-- Node13&#45;&gt;Node14 -->
<g id="edge27_Node000013_Node000014" class="edge">
<title>Node13&#45;&gt;Node14</title>
<g id="a_edge27_Node000013_Node000014"><a xlink:title=" ">
<path fill="none" stroke="#63b8ff" d="M563.84,-95.63C579.88,-88.84 601.58,-79.66 620.75,-71.62 628.31,-68.46 636.43,-65.06 644.12,-61.86"/>
<polygon fill="#63b8ff" stroke="#63b8ff" points="645.37,-64.72 653.25,-57.64 642.67,-58.25 645.37,-64.72"/>
</a>
</g>
</g>
<!-- Node15 -->
<g id="Node000015" class="node">
<title>Node15</title>
<g id="a_Node000015"><a xlink:href="../../d7/d90/jtag3_8c.html#aef145405ed35079405f033437e085105" target="_top" xlink:title=" ">
<polygon fill="white" stroke="#666666" points="852.25,-19.25 791.25,-19.25 791.25,0 852.25,0 852.25,-19.25"/>
<text text-anchor="middle" x="821.75" y="-5.75" font-family="Helvetica,sans-Serif" font-size="10.00">u16_to_b2</text>
</a>
</g>
</g>
<!-- Node13&#45;&gt;Node15 -->
<g id="edge31_Node000013_Node000015" class="edge">
<title>Node13&#45;&gt;Node15</title>
<g id="a_edge31_Node000013_Node000015"><a xlink:title=" ">
<path fill="none" stroke="#63b8ff" d="M547.08,-95.69C559.47,-78.55 587.51,-43.83 620.75,-28.62 672.03,-5.17 738.31,-3.76 780.19,-5.91"/>
<polygon fill="#63b8ff" stroke="#63b8ff" points="779.87,-9.46 790.06,-6.58 780.3,-2.47 779.87,-9.46"/>
</a>
</g>
</g>
<!-- Node14&#45;&gt;Node2 -->
<g id="edge28_Node000014_Node000002" class="edge">
<title>Node14&#45;&gt;Node2</title>
<g id="a_edge28_Node000014_Node000002"><a xlink:title=" ">
<path fill="none" stroke="#63b8ff" d="M712.8,-57.65C721.5,-61.24 730.54,-65.86 738,-71.62 770.42,-96.69 796.72,-137.46 810.43,-161.39"/>
<polygon fill="#63b8ff" stroke="#63b8ff" points="807.74,-162.77 815.66,-169.81 813.86,-159.37 807.74,-162.77"/>
</a>
</g>
</g>
<!-- Node14&#45;&gt;Node15 -->
<g id="edge29_Node000014_Node000015" class="edge">
<title>Node14&#45;&gt;Node15</title>
<g id="a_edge29_Node000014_Node000015"><a xlink:title=" ">
<path fill="none" stroke="#63b8ff" d="M717.62,-37.54C736.95,-32.31 760.59,-25.91 780.35,-20.56"/>
<polygon fill="#63b8ff" stroke="#63b8ff" points="781.14,-23.7 789.88,-17.71 779.31,-16.94 781.14,-23.7"/>
</a>
</g>
</g>
<!-- Node17&#45;&gt;Node3 -->
<g id="edge34_Node000017_Node000003" class="edge">
<title>Node17&#45;&gt;Node3</title>
<g id="a_edge34_Node000017_Node000003"><a xlink:title=" ">
<path fill="none" stroke="#63b8ff" d="M188.48,-399.73C205.31,-448.32 285.38,-655.62 426.25,-655.62 426.25,-655.62 426.25,-655.62 540.25,-655.62 637.11,-655.62 746.44,-612.88 795.07,-591.51"/>
<polygon fill="#63b8ff" stroke="#63b8ff" points="796.33,-594.33 804.03,-587.05 793.47,-587.94 796.33,-594.33"/>
</a>
</g>
</g>
<!-- Node17&#45;&gt;Node4 -->
<g id="edge35_Node000017_Node000004" class="edge">
<title>Node17&#45;&gt;Node4</title>
<g id="a_edge35_Node000017_Node000004"><a xlink:title=" ">
<path fill="none" stroke="#63b8ff" d="M196.85,-379.51C219.53,-359.94 269.63,-316.71 297.53,-292.64"/>
<polygon fill="#63b8ff" stroke="#63b8ff" points="299.45,-294.74 304.74,-285.56 294.88,-289.44 299.45,-294.74"/>
</a>
</g>
</g>
</g>
</svg>
