<?xml version="1.0" encoding="UTF-8" standalone="no"?>
<!DOCTYPE svg PUBLIC "-//W3C//DTD SVG 1.1//EN"
 "http://www.w3.org/Graphics/SVG/1.1/DTD/svg11.dtd">
<!-- Generated by graphviz version 8.0.5 (20230430.1635)
 -->
<!-- Title: src/libigl/igl/min.h Pages: 1 -->
<svg width="353pt" height="304pt"
 viewBox="0.00 0.00 352.88 303.50" xmlns="http://www.w3.org/2000/svg" xmlns:xlink="http://www.w3.org/1999/xlink">

<svg id="main" version="1.1" xmlns="http://www.w3.org/2000/svg" xmlns:xlink="http://www.w3.org/1999/xlink" xml:space="preserve" onload="init(evt)">
<style type="text/css"><![CDATA[
.node, .edge {opacity: 0.7;}
.node.selected, .edge.selected {opacity: 1;}
.edge:hover path { stroke: red; }
.edge:hover polygon { stroke: red; fill: red; }
]]></style>
<script type="application/ecmascript" xlink:href="../../svg.min.js"/>
<svg id="graph" class="graph">
<g id="graph0" class="graph" transform="scale(1 1) rotate(0) translate(4 299.5)">
<title>src/libigl/igl/min.h</title>
<!-- Node1 -->
<g id="Node000001" class="node">
<title>Node1</title>
<g id="a_Node000001"><a xlink:title=" ">
<polygon fill="#999999" stroke="#666666" points="276.75,-295.5 185,-295.5 185,-276.25 276.75,-276.25 276.75,-295.5"/>
<text text-anchor="middle" x="230.88" y="-282" font-family="Helvetica,sans-Serif" font-size="10.00">src/libigl/igl/min.h</text>
</a>
</g>
</g>
<!-- Node2 -->
<g id="Node000002" class="node">
<title>Node2</title>
<g id="a_Node000002"><a xlink:href="../../d6/d68/igl__inline_8h.html" target="_top" xlink:title=" ">
<polygon fill="white" stroke="#666666" points="61.75,-19.25 0,-19.25 0,0 61.75,0 61.75,-19.25"/>
<text text-anchor="middle" x="30.88" y="-5.75" font-family="Helvetica,sans-Serif" font-size="10.00">igl_inline.h</text>
</a>
</g>
</g>
<!-- Node1&#45;&gt;Node2 -->
<g id="edge1_Node000001_Node000002" class="edge">
<title>Node1&#45;&gt;Node2</title>
<g id="a_edge1_Node000001_Node000002"><a xlink:title=" ">
<path fill="none" stroke="#63b8ff" d="M184.61,-281.39C122.23,-273.88 18.88,-250.28 18.88,-176.38 18.88,-176.38 18.88,-176.38 18.88,-119.12 18.88,-87.93 23.84,-51.99 27.38,-30.31"/>
<polygon fill="#63b8ff" stroke="#63b8ff" points="30.98,-31.04 29.21,-20.59 24.08,-29.86 30.98,-31.04"/>
</a>
</g>
</g>
<!-- Node3 -->
<g id="Node000003" class="node">
<title>Node3</title>
<g id="a_Node000003"><a xlink:title=" ">
<polygon fill="#e0e0e0" stroke="#999999" points="212.25,-19.25 147.5,-19.25 147.5,0 212.25,0 212.25,-19.25"/>
<text text-anchor="middle" x="179.88" y="-5.75" font-family="Helvetica,sans-Serif" font-size="10.00">Eigen/Core</text>
</a>
</g>
</g>
<!-- Node1&#45;&gt;Node3 -->
<g id="edge2_Node000001_Node000003" class="edge">
<title>Node1&#45;&gt;Node3</title>
<g id="a_edge2_Node000001_Node000003"><a xlink:title=" ">
<path fill="none" stroke="#63b8ff" d="M243.09,-275.94C264.57,-259.08 306.88,-220.3 306.88,-176.38 306.88,-176.38 306.88,-176.38 306.88,-119.12 306.88,-71.28 254.12,-40.04 216.62,-23.87"/>
<polygon fill="#63b8ff" stroke="#63b8ff" points="218.08,-20.28 207.5,-19.71 215.42,-26.75 218.08,-20.28"/>
</a>
</g>
</g>
<!-- Node4 -->
<g id="Node000004" class="node">
<title>Node4</title>
<g id="a_Node000004"><a xlink:title=" ">
<polygon fill="#e0e0e0" stroke="#999999" points="305.12,-19.25 230.62,-19.25 230.62,0 305.12,0 305.12,-19.25"/>
<text text-anchor="middle" x="267.88" y="-5.75" font-family="Helvetica,sans-Serif" font-size="10.00">Eigen/Sparse</text>
</a>
</g>
</g>
<!-- Node1&#45;&gt;Node4 -->
<g id="edge3_Node000001_Node000004" class="edge">
<title>Node1&#45;&gt;Node4</title>
<g id="a_edge3_Node000001_Node000004"><a xlink:title=" ">
<path fill="none" stroke="#63b8ff" d="M262.47,-275.79C281.64,-268.83 305.32,-257.46 320.88,-240.25 341.21,-217.75 344.88,-206.7 344.88,-176.38 344.88,-176.38 344.88,-176.38 344.88,-119.12 344.88,-88.8 338.38,-80.02 320.88,-55.25 312.9,-43.97 301.42,-33.83 291.17,-26.08"/>
<polygon fill="#63b8ff" stroke="#63b8ff" points="293.42,-22.66 283.25,-19.66 289.33,-28.34 293.42,-22.66"/>
</a>
</g>
</g>
<!-- Node5 -->
<g id="Node000005" class="node">
<title>Node5</title>
<g id="a_Node000005"><a xlink:href="../../d5/df3/min_8cpp.html" target="_top" xlink:title=" ">
<polygon fill="white" stroke="#666666" points="256.12,-240.25 205.62,-240.25 205.62,-221 256.12,-221 256.12,-240.25"/>
<text text-anchor="middle" x="230.88" y="-226.75" font-family="Helvetica,sans-Serif" font-size="10.00">min.cpp</text>
</a>
</g>
</g>
<!-- Node1&#45;&gt;Node5 -->
<g id="edge4_Node000001_Node000005" class="edge">
<title>Node1&#45;&gt;Node5</title>
<g id="a_edge4_Node000001_Node000005"><a xlink:title=" ">
<path fill="none" stroke="#63b8ff" d="M225.71,-276.08C224.27,-269.34 223.81,-259.77 224.34,-251.24"/>
<polygon fill="#63b8ff" stroke="#63b8ff" points="227.9,-251.97 225.67,-241.61 220.95,-251.1 227.9,-251.97"/>
</a>
</g>
</g>
<!-- Node5&#45;&gt;Node1 -->
<g id="edge5_Node000005_Node000001" class="edge">
<title>Node5&#45;&gt;Node1</title>
<g id="a_edge5_Node000005_Node000001"><a xlink:title=" ">
<path fill="none" stroke="#63b8ff" d="M236.08,-240.61C237.49,-247.33 237.93,-256.77 237.42,-265.21"/>
<polygon fill="#63b8ff" stroke="#63b8ff" points="233.82,-264.72 236.04,-275.08 240.77,-265.6 233.82,-264.72"/>
</a>
</g>
</g>
<!-- Node6 -->
<g id="Node000006" class="node">
<title>Node6</title>
<g id="a_Node000006"><a xlink:href="../../d0/d0b/for__each_8h.html" target="_top" xlink:title=" ">
<polygon fill="white" stroke="#666666" points="202.75,-74.5 141,-74.5 141,-55.25 202.75,-55.25 202.75,-74.5"/>
<text text-anchor="middle" x="171.88" y="-61" font-family="Helvetica,sans-Serif" font-size="10.00">for_each.h</text>
</a>
</g>
</g>
<!-- Node5&#45;&gt;Node6 -->
<g id="edge6_Node000005_Node000006" class="edge">
<title>Node5&#45;&gt;Node6</title>
<g id="a_edge6_Node000005_Node000006"><a xlink:title=" ">
<path fill="none" stroke="#63b8ff" d="M227.7,-220.82C218.46,-195.17 191.4,-120.05 178.66,-84.69"/>
<polygon fill="#63b8ff" stroke="#63b8ff" points="181.75,-83.94 175.06,-75.72 175.16,-86.32 181.75,-83.94"/>
</a>
</g>
</g>
<!-- Node7 -->
<g id="Node000007" class="node">
<title>Node7</title>
<g id="a_Node000007"><a xlink:href="../../d6/d42/find__zero_8h.html" target="_top" xlink:title=" ">
<polygon fill="white" stroke="#666666" points="181.88,-185 117.88,-185 117.88,-165.75 181.88,-165.75 181.88,-185"/>
<text text-anchor="middle" x="149.88" y="-171.5" font-family="Helvetica,sans-Serif" font-size="10.00">find_zero.h</text>
</a>
</g>
</g>
<!-- Node5&#45;&gt;Node7 -->
<g id="edge10_Node000005_Node000007" class="edge">
<title>Node5&#45;&gt;Node7</title>
<g id="a_edge10_Node000005_Node000007"><a xlink:title=" ">
<path fill="none" stroke="#63b8ff" d="M217.13,-220.59C204.92,-212.56 186.82,-200.66 172.47,-191.23"/>
<polygon fill="#63b8ff" stroke="#63b8ff" points="174.96,-188.02 164.68,-185.45 171.12,-193.87 174.96,-188.02"/>
</a>
</g>
</g>
<!-- Node6&#45;&gt;Node2 -->
<g id="edge7_Node000006_Node000002" class="edge">
<title>Node6&#45;&gt;Node2</title>
<g id="a_edge7_Node000006_Node000002"><a xlink:title=" ">
<path fill="none" stroke="#63b8ff" d="M147.96,-54.84C125.17,-46.24 90.63,-33.19 64.96,-23.5"/>
<polygon fill="#63b8ff" stroke="#63b8ff" points="66.5,-19.96 55.91,-19.7 64.03,-26.51 66.5,-19.96"/>
</a>
</g>
</g>
<!-- Node6&#45;&gt;Node3 -->
<g id="edge8_Node000006_Node000003" class="edge">
<title>Node6&#45;&gt;Node3</title>
<g id="a_edge8_Node000006_Node000003"><a xlink:title=" ">
<path fill="none" stroke="#63b8ff" d="M173.2,-55.08C174.21,-48.34 175.65,-38.77 176.93,-30.24"/>
<polygon fill="#63b8ff" stroke="#63b8ff" points="180.5,-31.02 178.53,-20.61 173.58,-29.98 180.5,-31.02"/>
</a>
</g>
</g>
<!-- Node6&#45;&gt;Node4 -->
<g id="edge9_Node000006_Node000004" class="edge">
<title>Node6&#45;&gt;Node4</title>
<g id="a_edge9_Node000006_Node000004"><a xlink:title=" ">
<path fill="none" stroke="#63b8ff" d="M188.16,-54.84C202.92,-46.66 224.91,-34.46 242.06,-24.94"/>
<polygon fill="#63b8ff" stroke="#63b8ff" points="243.46,-27.61 250.51,-19.7 240.07,-21.49 243.46,-27.61"/>
</a>
</g>
</g>
<!-- Node7&#45;&gt;Node2 -->
<g id="edge11_Node000007_Node000002" class="edge">
<title>Node7&#45;&gt;Node2</title>
<g id="a_edge11_Node000007_Node000002"><a xlink:title=" ">
<path fill="none" stroke="#63b8ff" d="M130.02,-165.33C115.09,-157.68 95.02,-145.45 81.88,-129.75 56.68,-99.68 42.15,-55.3 35.44,-30.06"/>
<polygon fill="#63b8ff" stroke="#63b8ff" points="38.65,-29.49 32.83,-20.64 31.86,-31.19 38.65,-29.49"/>
</a>
</g>
</g>
<!-- Node7&#45;&gt;Node3 -->
<g id="edge12_Node000007_Node000003" class="edge">
<title>Node7&#45;&gt;Node3</title>
<g id="a_edge12_Node000007_Node000003"><a xlink:title=" ">
<path fill="none" stroke="#63b8ff" d="M157.99,-165.32C172.24,-148.74 201.24,-111.79 211.88,-74.5 214.22,-66.27 214.49,-63.39 211.88,-55.25 208.65,-45.2 202.23,-35.5 195.98,-27.73"/>
<polygon fill="#63b8ff" stroke="#63b8ff" points="198.12,-25.85 188.93,-20.58 192.82,-30.43 198.12,-25.85"/>
</a>
</g>
</g>
<!-- Node7&#45;&gt;Node4 -->
<g id="edge13_Node000007_Node000004" class="edge">
<title>Node7&#45;&gt;Node4</title>
<g id="a_edge13_Node000007_Node000004"><a xlink:title=" ">
<path fill="none" stroke="#63b8ff" d="M163.57,-165.34C175.32,-157.1 192.16,-144.05 203.88,-129.75 229.82,-98.1 250.1,-54.32 260.41,-29.61"/>
<polygon fill="#63b8ff" stroke="#63b8ff" points="263.91,-31.29 264.42,-20.7 257.42,-28.66 263.91,-31.29"/>
</a>
</g>
</g>
<!-- Node8 -->
<g id="Node000008" class="node">
<title>Node8</title>
<g id="a_Node000008"><a xlink:href="../../df/d36/find__zero_8cpp.html" target="_top" xlink:title=" ">
<polygon fill="white" stroke="#666666" points="165.12,-129.75 90.62,-129.75 90.62,-110.5 165.12,-110.5 165.12,-129.75"/>
<text text-anchor="middle" x="127.88" y="-116.25" font-family="Helvetica,sans-Serif" font-size="10.00">find_zero.cpp</text>
</a>
</g>
</g>
<!-- Node7&#45;&gt;Node8 -->
<g id="edge14_Node000007_Node000008" class="edge">
<title>Node7&#45;&gt;Node8</title>
<g id="a_edge14_Node000007_Node000008"><a xlink:title=" ">
<path fill="none" stroke="#63b8ff" d="M141.08,-165.58C136.8,-158.76 132.34,-149.06 129.34,-140.45"/>
<polygon fill="#63b8ff" stroke="#63b8ff" points="132.5,-139.76 126.38,-131.11 125.77,-141.69 132.5,-139.76"/>
</a>
</g>
</g>
<!-- Node8&#45;&gt;Node6 -->
<g id="edge16_Node000008_Node000006" class="edge">
<title>Node8&#45;&gt;Node6</title>
<g id="a_edge16_Node000008_Node000006"><a xlink:title=" ">
<path fill="none" stroke="#63b8ff" d="M135.14,-110.33C141.22,-102.98 150.07,-92.26 157.57,-83.19"/>
<polygon fill="#63b8ff" stroke="#63b8ff" points="160.78,-85.8 164.45,-75.86 155.38,-81.34 160.78,-85.8"/>
</a>
</g>
</g>
<!-- Node8&#45;&gt;Node7 -->
<g id="edge15_Node000008_Node000007" class="edge">
<title>Node8&#45;&gt;Node7</title>
<g id="a_edge15_Node000008_Node000007"><a xlink:title=" ">
<path fill="none" stroke="#63b8ff" d="M136.79,-130.11C141.07,-136.98 145.52,-146.71 148.49,-155.29"/>
<polygon fill="#63b8ff" stroke="#63b8ff" points="145.32,-155.91 151.41,-164.58 152.05,-154.01 145.32,-155.91"/>
</a>
</g>
</g>
<!-- Node9 -->
<g id="Node000009" class="node">
<title>Node9</title>
<g id="a_Node000009"><a xlink:href="../../df/d8d/any_8h.html" target="_top" xlink:title=" ">
<polygon fill="white" stroke="#666666" points="123.12,-74.5 84.62,-74.5 84.62,-55.25 123.12,-55.25 123.12,-74.5"/>
<text text-anchor="middle" x="103.88" y="-61" font-family="Helvetica,sans-Serif" font-size="10.00">any.h</text>
</a>
</g>
</g>
<!-- Node8&#45;&gt;Node9 -->
<g id="edge17_Node000008_Node000009" class="edge">
<title>Node8&#45;&gt;Node9</title>
<g id="a_edge17_Node000008_Node000009"><a xlink:title=" ">
<path fill="none" stroke="#63b8ff" d="M123.91,-110.33C120.77,-103.36 116.27,-93.37 112.32,-84.62"/>
<polygon fill="#63b8ff" stroke="#63b8ff" points="115.22,-83.54 107.92,-75.86 108.84,-86.41 115.22,-83.54"/>
</a>
</g>
</g>
<!-- Node9&#45;&gt;Node2 -->
<g id="edge18_Node000009_Node000002" class="edge">
<title>Node9&#45;&gt;Node2</title>
<g id="a_edge18_Node000009_Node000002"><a xlink:title=" ">
<path fill="none" stroke="#63b8ff" d="M91.49,-54.84C80.62,-46.91 64.59,-35.22 51.75,-25.85"/>
<polygon fill="#63b8ff" stroke="#63b8ff" points="54.22,-22.59 44.08,-19.52 50.09,-28.25 54.22,-22.59"/>
</a>
</g>
</g>
<!-- Node9&#45;&gt;Node3 -->
<g id="edge19_Node000009_Node000003" class="edge">
<title>Node9&#45;&gt;Node3</title>
<g id="a_edge19_Node000009_Node000003"><a xlink:title=" ">
<path fill="none" stroke="#63b8ff" d="M116.77,-54.84C128.12,-46.89 144.89,-35.14 158.29,-25.75"/>
<polygon fill="#63b8ff" stroke="#63b8ff" points="159.74,-28.31 165.92,-19.7 155.72,-22.57 159.74,-28.31"/>
</a>
</g>
</g>
<!-- Node9&#45;&gt;Node4 -->
<g id="edge20_Node000009_Node000004" class="edge">
<title>Node9&#45;&gt;Node4</title>
<g id="a_edge20_Node000009_Node000004"><a xlink:title=" ">
<path fill="none" stroke="#63b8ff" d="M123.33,-57.56C149.44,-49.08 196.37,-33.84 229.67,-23.03"/>
<polygon fill="#63b8ff" stroke="#63b8ff" points="230.53,-26.11 238.96,-19.69 228.37,-19.45 230.53,-26.11"/>
</a>
</g>
</g>
<!-- Node10 -->
<g id="Node000010" class="node">
<title>Node10</title>
<g id="a_Node000010"><a xlink:href="../../df/d25/any_8cpp.html" target="_top" xlink:title=" ">
<polygon fill="#fff0f0" stroke="red" points="128.38,-19.25 79.38,-19.25 79.38,0 128.38,0 128.38,-19.25"/>
<text text-anchor="middle" x="103.88" y="-5.75" font-family="Helvetica,sans-Serif" font-size="10.00">any.cpp</text>
</a>
</g>
</g>
<!-- Node9&#45;&gt;Node10 -->
<g id="edge21_Node000009_Node000010" class="edge">
<title>Node9&#45;&gt;Node10</title>
<g id="a_edge21_Node000009_Node000010"><a xlink:title=" ">
<path fill="none" stroke="#63b8ff" d="M98.71,-55.08C97.27,-48.34 96.81,-38.77 97.34,-30.24"/>
<polygon fill="#63b8ff" stroke="#63b8ff" points="100.9,-30.97 98.67,-20.61 93.95,-30.1 100.9,-30.97"/>
</a>
</g>
</g>
<!-- Node10&#45;&gt;Node9 -->
<g id="edge22_Node000010_Node000009" class="edge">
<title>Node10&#45;&gt;Node9</title>
<g id="a_edge22_Node000010_Node000009"><a xlink:title=" ">
<path fill="none" stroke="#63b8ff" d="M109.08,-19.61C110.49,-26.33 110.93,-35.77 110.42,-44.21"/>
<polygon fill="#63b8ff" stroke="#63b8ff" points="106.82,-43.72 109.04,-54.08 113.77,-44.6 106.82,-43.72"/>
</a>
</g>
</g>
</g>
</svg>
</svg>

<style type='text/css'>
<![CDATA[
[data-mouse-over-selected='false'] { opacity: 0.7; }
[data-mouse-over-selected='true']  { opacity: 1.0; }
]]>
</style>
<script type="application/ecmascript"><![CDATA[
document.addEventListener('DOMContentLoaded', (event) => {
  highlightEdges();
  highlightAdjacentNodes();
});
]]></script>
</svg>
