<?xml version="1.0" encoding="UTF-8" standalone="no"?>
<!DOCTYPE svg PUBLIC "-//W3C//DTD SVG 1.1//EN"
 "http://www.w3.org/Graphics/SVG/1.1/DTD/svg11.dtd">
<!-- Generated by graphviz version 8.0.5 (20230430.1635)
 -->
<!-- Title: agg::pixfmt_alpha_blend_gray::blend_color_vspan Pages: 1 -->
<svg width="456pt" height="113pt"
 viewBox="0.00 0.00 455.75 112.50" xmlns="http://www.w3.org/2000/svg" xmlns:xlink="http://www.w3.org/1999/xlink">
<g id="graph0" class="graph" transform="scale(1 1) rotate(0) translate(4 108.5)">
<title>agg::pixfmt_alpha_blend_gray::blend_color_vspan</title>
<!-- Node1 -->
<g id="Node000001" class="node">
<title>Node1</title>
<g id="a_Node000001"><a xlink:title=" ">
<polygon fill="#999999" stroke="#666666" points="127,-54.5 0,-54.5 0,-24 127,-24 127,-54.5"/>
<text text-anchor="start" x="8" y="-41" font-family="Helvetica,sans-Serif" font-size="10.00">agg::pixfmt_alpha_blend</text>
<text text-anchor="middle" x="63.5" y="-29.75" font-family="Helvetica,sans-Serif" font-size="10.00">_gray::blend_color_vspan</text>
</a>
</g>
</g>
<!-- Node2 -->
<g id="Node000002" class="node">
<title>Node2</title>
<g id="a_Node000002"><a xlink:href="../../d2/d37/classagg_1_1pixfmt__alpha__blend__gray.html#afd4d61c240e045a5782ad1ccb4a159c4" target="_top" xlink:title=" ">
<polygon fill="white" stroke="#666666" points="290,-79.5 163,-79.5 163,-49 290,-49 290,-79.5"/>
<text text-anchor="start" x="171" y="-66" font-family="Helvetica,sans-Serif" font-size="10.00">agg::pixfmt_alpha_blend</text>
<text text-anchor="middle" x="226.5" y="-54.75" font-family="Helvetica,sans-Serif" font-size="10.00">_gray::copy_or_blend_pix</text>
</a>
</g>
</g>
<!-- Node1&#45;&gt;Node2 -->
<g id="edge1_Node000001_Node000002" class="edge">
<title>Node1&#45;&gt;Node2</title>
<g id="a_edge1_Node000001_Node000002"><a xlink:title=" ">
<path fill="none" stroke="#63b8ff" d="M127.21,-48.99C135.31,-50.25 143.67,-51.54 151.93,-52.83"/>
<polygon fill="#63b8ff" stroke="#63b8ff" points="151.28,-56.42 161.7,-54.5 152.35,-49.51 151.28,-56.42"/>
</a>
</g>
</g>
<!-- Node5 -->
<g id="Node000005" class="node">
<title>Node5</title>
<g id="a_Node000005"><a xlink:href="../../d2/d37/classagg_1_1pixfmt__alpha__blend__gray.html#a95637f82f79f4c07c7dd3149dccbeeb0" target="_top" xlink:title=" ">
<polygon fill="white" stroke="#666666" points="287.38,-30.5 165.62,-30.5 165.62,0 287.38,0 287.38,-30.5"/>
<text text-anchor="start" x="173.62" y="-17" font-family="Helvetica,sans-Serif" font-size="10.00">agg::pixfmt_alpha_blend</text>
<text text-anchor="middle" x="226.5" y="-5.75" font-family="Helvetica,sans-Serif" font-size="10.00">_gray::pix_value_ptr</text>
</a>
</g>
</g>
<!-- Node1&#45;&gt;Node5 -->
<g id="edge4_Node000001_Node000005" class="edge">
<title>Node1&#45;&gt;Node5</title>
<g id="a_edge4_Node000001_Node000005"><a xlink:title=" ">
<path fill="none" stroke="#63b8ff" d="M127.21,-29.9C136.22,-28.56 145.54,-27.17 154.7,-25.8"/>
<polygon fill="#63b8ff" stroke="#63b8ff" points="154.96,-29.15 164.34,-24.22 153.93,-22.23 154.96,-29.15"/>
</a>
</g>
</g>
<!-- Node3 -->
<g id="Node000003" class="node">
<title>Node3</title>
<g id="a_Node000003"><a xlink:href="../../d2/d37/classagg_1_1pixfmt__alpha__blend__gray.html#af7f637e33063e33d44f1c76ac913f2fd" target="_top" xlink:title=" ">
<polygon fill="white" stroke="#666666" points="447.75,-104.5 326,-104.5 326,-74 447.75,-74 447.75,-104.5"/>
<text text-anchor="start" x="334" y="-91" font-family="Helvetica,sans-Serif" font-size="10.00">agg::pixfmt_alpha_blend</text>
<text text-anchor="middle" x="386.88" y="-79.75" font-family="Helvetica,sans-Serif" font-size="10.00">_gray::blend_pix</text>
</a>
</g>
</g>
<!-- Node2&#45;&gt;Node3 -->
<g id="edge2_Node000002_Node000003" class="edge">
<title>Node2&#45;&gt;Node3</title>
<g id="a_edge2_Node000002_Node000003"><a xlink:title=" ">
<path fill="none" stroke="#63b8ff" d="M290.09,-74.13C298.21,-75.41 306.57,-76.73 314.81,-78.03"/>
<polygon fill="#63b8ff" stroke="#63b8ff" points="314.12,-81.62 324.54,-79.73 315.21,-74.71 314.12,-81.62"/>
</a>
</g>
</g>
<!-- Node4 -->
<g id="Node000004" class="node">
<title>Node4</title>
<g id="a_Node000004"><a xlink:href="../../d3/d3f/structagg_1_1pixfmt__alpha__blend__gray_1_1pixel__type.html#a1a89b5982f7c59845386bc1193ac3522" target="_top" xlink:title=" ">
<polygon fill="white" stroke="#666666" points="447.75,-55.5 326,-55.5 326,-25 447.75,-25 447.75,-55.5"/>
<text text-anchor="start" x="334" y="-42" font-family="Helvetica,sans-Serif" font-size="10.00">agg::pixfmt_alpha_blend</text>
<text text-anchor="middle" x="386.88" y="-30.75" font-family="Helvetica,sans-Serif" font-size="10.00">_gray::pixel_type::set</text>
</a>
</g>
</g>
<!-- Node2&#45;&gt;Node4 -->
<g id="edge3_Node000002_Node000004" class="edge">
<title>Node2&#45;&gt;Node4</title>
<g id="a_edge3_Node000002_Node000004"><a xlink:title=" ">
<path fill="none" stroke="#63b8ff" d="M290.09,-54.76C298.21,-53.53 306.57,-52.27 314.81,-51.02"/>
<polygon fill="#63b8ff" stroke="#63b8ff" points="315.18,-54.35 324.54,-49.39 314.13,-47.43 315.18,-54.35"/>
</a>
</g>
</g>
</g>
</svg>
