<?xml version="1.0" encoding="UTF-8" standalone="no"?>
<!DOCTYPE svg PUBLIC "-//W3C//DTD SVG 1.1//EN"
 "http://www.w3.org/Graphics/SVG/1.1/DTD/svg11.dtd">
<!-- Generated by graphviz version 8.0.5 (20230430.1635)
 -->
<!-- Title: Slic3r::GUI::GLCanvas3D::Slope::use Pages: 1 -->
<svg width="309pt" height="57pt"
 viewBox="0.00 0.00 309.25 56.50" xmlns="http://www.w3.org/2000/svg" xmlns:xlink="http://www.w3.org/1999/xlink">
<g id="graph0" class="graph" transform="scale(1 1) rotate(0) translate(4 52.5)">
<title>Slic3r::GUI::GLCanvas3D::Slope::use</title>
<!-- Node1 -->
<g id="Node000001" class="node">
<title>Node1</title>
<g id="a_Node000001"><a xlink:title=" ">
<polygon fill="#999999" stroke="#666666" points="130,-30.5 0,-30.5 0,0 130,0 130,-30.5"/>
<text text-anchor="start" x="8" y="-17" font-family="Helvetica,sans-Serif" font-size="10.00">Slic3r::GUI::GLCanvas3D</text>
<text text-anchor="middle" x="65" y="-5.75" font-family="Helvetica,sans-Serif" font-size="10.00">::Slope::use</text>
</a>
</g>
</g>
<!-- Node1&#45;&gt;Node1 -->
<g id="edge2_Node000001_Node000001" class="edge">
<title>Node1&#45;&gt;Node1</title>
<g id="a_edge2_Node000001_Node000001"><a xlink:title=" ">
<path fill="none" stroke="#63b8ff" d="M35.12,-30.99C29.02,-40.06 38.98,-48.5 65,-48.5 79.64,-48.5 89.19,-45.83 93.66,-41.88"/>
<polygon fill="#63b8ff" stroke="#63b8ff" points="97.25,-42.31 94.88,-31.99 90.29,-41.54 97.25,-42.31"/>
</a>
</g>
</g>
<!-- Node2 -->
<g id="Node000002" class="node">
<title>Node2</title>
<g id="a_Node000002"><a xlink:href="../../d4/dc9/class_slic3r_1_1_g_l_volume_collection.html#a2b7348a324f658f0f42ac6c8a352cf2d" target="_top" xlink:title=" ">
<polygon fill="white" stroke="#666666" points="301.25,-30.5 166,-30.5 166,0 301.25,0 301.25,-30.5"/>
<text text-anchor="start" x="174" y="-17" font-family="Helvetica,sans-Serif" font-size="10.00">Slic3r::GLVolumeCollection</text>
<text text-anchor="middle" x="233.62" y="-5.75" font-family="Helvetica,sans-Serif" font-size="10.00">::set_slope_active</text>
</a>
</g>
</g>
<!-- Node1&#45;&gt;Node2 -->
<g id="edge1_Node000001_Node000002" class="edge">
<title>Node1&#45;&gt;Node2</title>
<g id="a_edge1_Node000001_Node000002"><a xlink:title=" ">
<path fill="none" stroke="#63b8ff" d="M130.42,-15.25C138.35,-15.25 146.53,-15.25 154.64,-15.25"/>
<polygon fill="#63b8ff" stroke="#63b8ff" points="154.62,-18.75 164.62,-15.25 154.62,-11.75 154.62,-18.75"/>
</a>
</g>
</g>
</g>
</svg>
