<?xml version="1.0" encoding="UTF-8" standalone="no"?>
<!DOCTYPE svg PUBLIC "-//W3C//DTD SVG 1.1//EN"
 "http://www.w3.org/Graphics/SVG/1.1/DTD/svg11.dtd">
<!-- Generated by graphviz version 8.0.5 (20230430.1635)
 -->
<!-- Title: Slic3r::GUI::GLGizmoSimplify::update_model Pages: 1 -->
<!--zoomable 715 -->

<svg id="main" version="1.1" xmlns="http://www.w3.org/2000/svg" xmlns:xlink="http://www.w3.org/1999/xlink" xml:space="preserve" onload="init(evt)">
<style type="text/css"><![CDATA[
.node, .edge {opacity: 0.7;}
.node.selected, .edge.selected {opacity: 1;}
.edge:hover path { stroke: red; }
.edge:hover polygon { stroke: red; fill: red; }
]]></style>

<defs>
  <circle id="rim" cx="0" cy="0" r="7"/>
  <circle id="rim2" cx="0" cy="0" r="3.5"/>
  <g id="zoomPlus">
    <use xlink:href="#rim" fill="#404040"><set attributeName="fill" to="#808080" begin="zoomplus.mouseover" end="zoomplus.mouseout"/></use>
    <path d="M-4,0h8M0,-4v8" fill="none" stroke="white" stroke-width="1.5" pointer-events="none"/>
  </g>
  <g id="zoomMin">
    <use xlink:href="#rim" fill="#404040"><set attributeName="fill" to="#808080" begin="zoomminus.mouseover" end="zoomminus.mouseout"/></use>
    <path d="M-4,0h8" fill="none" stroke="white" stroke-width="1.5" pointer-events="none"/>
  </g>
  <g id="arrowUp" transform="translate(30 24)">
    <use xlink:href="#rim"/>
    <path pointer-events="none" fill="none" stroke="white" stroke-width="1.5" d="M0,-3.0v7 M-2.5,-0.5L0,-3.0L2.5,-0.5"/>
  </g>
  <g id="arrowRight" transform="rotate(90) translate(36 -43)">
    <use xlink:href="#rim"/>
    <path pointer-events="none" fill="none" stroke="white" stroke-width="1.5" d="M0,-3.0v7 M-2.5,-0.5L0,-3.0L2.5,-0.5"/>
  </g>
  <g id="arrowDown" transform="rotate(180) translate(-30 -48)">
    <use xlink:href="#rim"/>
    <path pointer-events="none" fill="none" stroke="white" stroke-width="1.5" d="M0,-3.0v7 M-2.5,-0.5L0,-3.0L2.5,-0.5"/>
  </g>
  <g id="arrowLeft" transform="rotate(270) translate(-36 17)">
    <use xlink:href="#rim"/>
    <path pointer-events="none" fill="none" stroke="white" stroke-width="1.5" d="M0,-3.0v7 M-2.5,-0.5L0,-3.0L2.5,-0.5"/>
  </g>
  <g id="resetDef">
    <use xlink:href="#rim2" fill="#404040"><set attributeName="fill" to="#808080" begin="reset.mouseover" end="reset.mouseout"/></use>
  </g>
</defs>
<script type="application/ecmascript">
var viewWidth = 1554;
var viewHeight = 715;
var sectionId = 'dynsection-75';
</script>
<script type="application/ecmascript" xlink:href="../../svg.min.js"/>
<svg id="graph" class="graph">
<g id="viewport">
<title>Slic3r::GUI::GLGizmoSimplify::update_model</title>
<!-- Node1 -->
<g id="Node000001" class="node">
<title>Node1</title>
<g id="a_Node000001"><a xlink:title=" ">
<polygon fill="#999999" stroke="#666666" points="147.25,-516.5 0,-516.5 0,-486 147.25,-486 147.25,-516.5"/>
<text text-anchor="start" x="8" y="-503" font-family="Helvetica,sans-Serif" font-size="10.00">Slic3r::GUI::GLGizmoSimplify</text>
<text text-anchor="middle" x="73.62" y="-491.75" font-family="Helvetica,sans-Serif" font-size="10.00">::update_model</text>
</a>
</g>
</g>
<!-- Node2 -->
<g id="Node000002" class="node">
<title>Node2</title>
<g id="a_Node000002"><a xlink:href="../../d2/d0b/struct_slic3r_1_1_g_u_i_1_1_g_l_model_1_1_geometry.html#a258b791148c4903562d3fb0a5c728e08" target="_top" xlink:title=" ">
<polygon fill="white" stroke="#666666" points="306.5,-706.5 183.25,-706.5 183.25,-676 306.5,-676 306.5,-706.5"/>
<text text-anchor="start" x="191.25" y="-693" font-family="Helvetica,sans-Serif" font-size="10.00">Slic3r::GUI::GLModel</text>
<text text-anchor="middle" x="244.88" y="-681.75" font-family="Helvetica,sans-Serif" font-size="10.00">::Geometry::add_triangle</text>
</a>
</g>
</g>
<!-- Node1&#45;&gt;Node2 -->
<g id="edge1_Node000001_Node000002" class="edge">
<title>Node1&#45;&gt;Node2</title>
<g id="a_edge1_Node000001_Node000002"><a xlink:title=" ">
<path fill="none" stroke="#63b8ff" d="M80.97,-516.65C94.9,-548.72 131.14,-623.25 183.25,-666.25 184.86,-667.58 186.56,-668.85 188.31,-670.06"/>
<polygon fill="#63b8ff" stroke="#63b8ff" points="186.13,-673.44 196.5,-675.61 189.75,-667.44 186.13,-673.44"/>
</a>
</g>
</g>
<!-- Node3 -->
<g id="Node000003" class="node">
<title>Node3</title>
<g id="a_Node000003"><a xlink:href="../../d2/d0b/struct_slic3r_1_1_g_u_i_1_1_g_l_model_1_1_geometry.html#aa6c4673ea8e489ff66fe88da7bf6504b" target="_top" xlink:title=" ">
<polygon fill="white" stroke="#666666" points="304.25,-657.5 185.5,-657.5 185.5,-627 304.25,-627 304.25,-657.5"/>
<text text-anchor="start" x="193.5" y="-644" font-family="Helvetica,sans-Serif" font-size="10.00">Slic3r::GUI::GLModel</text>
<text text-anchor="middle" x="244.88" y="-632.75" font-family="Helvetica,sans-Serif" font-size="10.00">::Geometry::add_vertex</text>
</a>
</g>
</g>
<!-- Node1&#45;&gt;Node3 -->
<g id="edge2_Node000001_Node000003" class="edge">
<title>Node1&#45;&gt;Node3</title>
<g id="a_edge2_Node000001_Node000003"><a xlink:title=" ">
<path fill="none" stroke="#63b8ff" d="M85.66,-516.77C103.64,-541.09 141.49,-588.39 183.25,-617.25 185.46,-618.78 187.78,-620.24 190.17,-621.63"/>
<polygon fill="#63b8ff" stroke="#63b8ff" points="188.18,-625.06 198.65,-626.65 191.45,-618.87 188.18,-625.06"/>
</a>
</g>
</g>
<!-- Node4 -->
<g id="Node000004" class="node">
<title>Node4</title>
<g id="a_Node000004"><a xlink:href="../../de/db8/namespace_slic3r.html#ab15e432be9f6fe10cd3531e48a371f2f" target="_top" xlink:title=" ">
<polygon fill="white" stroke="#666666" points="294.88,-608.5 194.88,-608.5 194.88,-578 294.88,-578 294.88,-608.5"/>
<text text-anchor="start" x="202.88" y="-595" font-family="Helvetica,sans-Serif" font-size="10.00">Slic3r::face_normal</text>
<text text-anchor="middle" x="244.88" y="-583.75" font-family="Helvetica,sans-Serif" font-size="10.00">_normalized</text>
</a>
</g>
</g>
<!-- Node1&#45;&gt;Node4 -->
<g id="edge3_Node000001_Node000004" class="edge">
<title>Node1&#45;&gt;Node4</title>
<g id="a_edge3_Node000001_Node000004"><a xlink:title=" ">
<path fill="none" stroke="#63b8ff" d="M97.31,-516.74C118.86,-531.09 152.46,-552.54 183.25,-568.25 186.54,-569.93 189.98,-571.59 193.46,-573.2"/>
<polygon fill="#63b8ff" stroke="#63b8ff" points="191.79,-576.73 202.35,-577.61 194.64,-570.34 191.79,-576.73"/>
</a>
</g>
</g>
<!-- Node6 -->
<g id="Node000006" class="node">
<title>Node6</title>
<g id="a_Node000006"><a xlink:href="../../d0/d55/class_slic3r_1_1_g_u_i_1_1_g_l_model.html#a09d64564fcbbe7ea00bb5f4e23a84f23" target="_top" xlink:title=" ">
<polygon fill="white" stroke="#666666" points="299.75,-559.5 190,-559.5 190,-529 299.75,-529 299.75,-559.5"/>
<text text-anchor="start" x="198" y="-546" font-family="Helvetica,sans-Serif" font-size="10.00">Slic3r::GUI::GLModel</text>
<text text-anchor="middle" x="244.88" y="-534.75" font-family="Helvetica,sans-Serif" font-size="10.00">::get_color</text>
</a>
</g>
</g>
<!-- Node1&#45;&gt;Node6 -->
<g id="edge5_Node000001_Node000006" class="edge">
<title>Node1&#45;&gt;Node6</title>
<g id="a_edge5_Node000001_Node000006"><a xlink:title=" ">
<path fill="none" stroke="#63b8ff" d="M136.21,-516.9C150.14,-520.44 164.98,-524.2 179.04,-527.78"/>
<polygon fill="#63b8ff" stroke="#63b8ff" points="178.06,-531.39 188.62,-530.47 179.79,-524.61 178.06,-531.39"/>
</a>
</g>
</g>
<!-- Node7 -->
<g id="Node000007" class="node">
<title>Node7</title>
<g id="a_Node000007"><a xlink:href="../../d0/d55/class_slic3r_1_1_g_u_i_1_1_g_l_model.html#ae36934402de792139364066cc07008cd" target="_top" xlink:title=" ">
<polygon fill="white" stroke="#666666" points="452.25,-338.5 342.5,-338.5 342.5,-308 452.25,-308 452.25,-338.5"/>
<text text-anchor="start" x="350.5" y="-325" font-family="Helvetica,sans-Serif" font-size="10.00">Slic3r::GUI::GLModel</text>
<text text-anchor="middle" x="397.38" y="-313.75" font-family="Helvetica,sans-Serif" font-size="10.00">::init_from</text>
</a>
</g>
</g>
<!-- Node1&#45;&gt;Node7 -->
<g id="edge6_Node000001_Node000007" class="edge">
<title>Node1&#45;&gt;Node7</title>
<g id="a_edge6_Node000001_Node000007"><a xlink:title=" ">
<path fill="none" stroke="#63b8ff" d="M147.65,-488.88C205.45,-478.07 280.6,-461.46 306.5,-444.25 342.64,-420.24 369.67,-376.57 384.23,-348.78"/>
<polygon fill="#63b8ff" stroke="#63b8ff" points="387.79,-350.48 389.19,-339.98 381.55,-347.32 387.79,-350.48"/>
</a>
</g>
</g>
<!-- Node21 -->
<g id="Node000021" class="node">
<title>Node21</title>
<g id="a_Node000021"><a xlink:href="../../d2/d0b/struct_slic3r_1_1_g_u_i_1_1_g_l_model_1_1_geometry.html#a34433d66ec17c5984778897721025bc5" target="_top" xlink:title=" ">
<polygon fill="white" stroke="#666666" points="817.62,-73.5 678.62,-73.5 678.62,-43 817.62,-43 817.62,-73.5"/>
<text text-anchor="start" x="686.62" y="-60" font-family="Helvetica,sans-Serif" font-size="10.00">Slic3r::GUI::GLModel</text>
<text text-anchor="middle" x="748.12" y="-48.75" font-family="Helvetica,sans-Serif" font-size="10.00">::Geometry::reserve_indices</text>
</a>
</g>
</g>
<!-- Node1&#45;&gt;Node21 -->
<g id="edge26_Node000001_Node000021" class="edge">
<title>Node1&#45;&gt;Node21</title>
<g id="a_edge26_Node000001_Node000021"><a xlink:title=" ">
<path fill="none" stroke="#63b8ff" d="M80.11,-485.67C102.09,-425.8 190.05,-209.15 342.5,-115.25 441.99,-53.97 580.95,-47.95 667.41,-51.45"/>
<polygon fill="#63b8ff" stroke="#63b8ff" points="667.06,-54.98 677.21,-51.95 667.38,-47.99 667.06,-54.98"/>
</a>
</g>
</g>
<!-- Node22 -->
<g id="Node000022" class="node">
<title>Node22</title>
<g id="a_Node000022"><a xlink:href="../../d2/d0b/struct_slic3r_1_1_g_u_i_1_1_g_l_model_1_1_geometry.html#a7c413f0fb836f6e0fd59e3de64fe77a8" target="_top" xlink:title=" ">
<polygon fill="white" stroke="#666666" points="819.5,-514.5 676.75,-514.5 676.75,-484 819.5,-484 819.5,-514.5"/>
<text text-anchor="start" x="684.75" y="-501" font-family="Helvetica,sans-Serif" font-size="10.00">Slic3r::GUI::GLModel</text>
<text text-anchor="middle" x="748.12" y="-489.75" font-family="Helvetica,sans-Serif" font-size="10.00">::Geometry::reserve_vertices</text>
</a>
</g>
</g>
<!-- Node1&#45;&gt;Node22 -->
<g id="edge28_Node000001_Node000022" class="edge">
<title>Node1&#45;&gt;Node22</title>
<g id="a_edge28_Node000001_Node000022"><a xlink:title=" ">
<path fill="none" stroke="#63b8ff" d="M147.55,-501.03C274.06,-500.66 533.3,-499.89 665.57,-499.49"/>
<polygon fill="#63b8ff" stroke="#63b8ff" points="665.43,-502.99 675.42,-499.46 665.41,-495.99 665.43,-502.99"/>
</a>
</g>
</g>
<!-- Node23 -->
<g id="Node000023" class="node">
<title>Node23</title>
<g id="a_Node000023"><a xlink:href="../../d0/d55/class_slic3r_1_1_g_u_i_1_1_g_l_model.html#a658d149c7e3b30e9fb11f3202207298a" target="_top" xlink:title=" ">
<polygon fill="white" stroke="#666666" points="299.75,-435.5 190,-435.5 190,-405 299.75,-405 299.75,-435.5"/>
<text text-anchor="start" x="198" y="-422" font-family="Helvetica,sans-Serif" font-size="10.00">Slic3r::GUI::GLModel</text>
<text text-anchor="middle" x="244.88" y="-410.75" font-family="Helvetica,sans-Serif" font-size="10.00">::reset</text>
</a>
</g>
</g>
<!-- Node1&#45;&gt;Node23 -->
<g id="edge31_Node000001_Node000023" class="edge">
<title>Node1&#45;&gt;Node23</title>
<g id="a_edge31_Node000001_Node000023"><a xlink:title=" ">
<path fill="none" stroke="#63b8ff" d="M107.26,-485.63C133.98,-472.84 172,-454.65 201.15,-440.7"/>
<polygon fill="#63b8ff" stroke="#63b8ff" points="202.54,-443.43 210.05,-435.96 199.52,-437.12 202.54,-443.43"/>
</a>
</g>
</g>
<!-- Node28 -->
<g id="Node000028" class="node">
<title>Node28</title>
<g id="a_Node000028"><a xlink:href="../../d0/d55/class_slic3r_1_1_g_u_i_1_1_g_l_model.html#ac827ceb809dc2b0b7e44f088dc873ae4" target="_top" xlink:title=" ">
<polygon fill="white" stroke="#666666" points="299.75,-30.5 190,-30.5 190,0 299.75,0 299.75,-30.5"/>
<text text-anchor="start" x="198" y="-17" font-family="Helvetica,sans-Serif" font-size="10.00">Slic3r::GUI::GLModel</text>
<text text-anchor="middle" x="244.88" y="-5.75" font-family="Helvetica,sans-Serif" font-size="10.00">::set_color</text>
</a>
</g>
</g>
<!-- Node1&#45;&gt;Node28 -->
<g id="edge39_Node000001_Node000028" class="edge">
<title>Node1&#45;&gt;Node28</title>
<g id="a_edge39_Node000001_Node000028"><a xlink:title=" ">
<path fill="none" stroke="#63b8ff" d="M76.48,-485.91C85.39,-414.56 125.63,-115.65 183.25,-44.25 185.41,-41.57 187.88,-39.13 190.56,-36.89"/>
<polygon fill="#63b8ff" stroke="#63b8ff" points="191.98,-39.47 198.11,-30.82 187.93,-33.76 191.98,-39.47"/>
</a>
</g>
</g>
<!-- Node5 -->
<g id="Node000005" class="node">
<title>Node5</title>
<g id="a_Node000005"><a xlink:href="../../de/db8/namespace_slic3r.html#a699c9e4c53d01a09810fd87177704efe" target="_top" xlink:title=" ">
<polygon fill="white" stroke="#666666" points="447.38,-602.88 347.38,-602.88 347.38,-583.62 447.38,-583.62 447.38,-602.88"/>
<text text-anchor="middle" x="397.38" y="-589.38" font-family="Helvetica,sans-Serif" font-size="10.00">Slic3r::face_normal</text>
</a>
</g>
</g>
<!-- Node4&#45;&gt;Node5 -->
<g id="edge4_Node000004_Node000005" class="edge">
<title>Node4&#45;&gt;Node5</title>
<g id="a_edge4_Node000004_Node000005"><a xlink:title=" ">
<path fill="none" stroke="#63b8ff" d="M295.15,-593.25C308.28,-593.25 322.6,-593.25 336.24,-593.25"/>
<polygon fill="#63b8ff" stroke="#63b8ff" points="335.98,-596.75 345.98,-593.25 335.98,-589.75 335.98,-596.75"/>
</a>
</g>
</g>
<!-- Node8 -->
<g id="Node000008" class="node">
<title>Node8</title>
<g id="a_Node000008"><a xlink:href="../../d2/d0b/struct_slic3r_1_1_g_u_i_1_1_g_l_model_1_1_geometry.html#a2debd31aa0812e26e5099287ef57f44a" target="_top" xlink:title=" ">
<polygon fill="white" stroke="#666666" points="639.62,-338.5 489.38,-338.5 489.38,-308 639.62,-308 639.62,-338.5"/>
<text text-anchor="start" x="497.38" y="-325" font-family="Helvetica,sans-Serif" font-size="10.00">Slic3r::GUI::GLModel</text>
<text text-anchor="middle" x="564.5" y="-313.75" font-family="Helvetica,sans-Serif" font-size="10.00">::Geometry::extract_position_2</text>
</a>
</g>
</g>
<!-- Node7&#45;&gt;Node8 -->
<g id="edge7_Node000007_Node000008" class="edge">
<title>Node7&#45;&gt;Node8</title>
<g id="a_edge7_Node000007_Node000008"><a xlink:title=" ">
<path fill="none" stroke="#63b8ff" d="M452.44,-323.25C460.64,-323.25 469.27,-323.25 477.94,-323.25"/>
<polygon fill="#63b8ff" stroke="#63b8ff" points="477.92,-326.75 487.92,-323.25 477.92,-319.75 477.92,-326.75"/>
</a>
</g>
</g>
<!-- Node12 -->
<g id="Node000012" class="node">
<title>Node12</title>
<g id="a_Node000012"><a xlink:href="../../d0/d55/class_slic3r_1_1_g_u_i_1_1_g_l_model.html#ae3971a7056b8be9ee62c0993a509924b" target="_top" xlink:title=" ">
<polygon fill="white" stroke="#666666" points="803,-382.5 693.25,-382.5 693.25,-352 803,-352 803,-382.5"/>
<text text-anchor="start" x="701.25" y="-369" font-family="Helvetica,sans-Serif" font-size="10.00">Slic3r::GUI::GLModel</text>
<text text-anchor="middle" x="748.12" y="-357.75" font-family="Helvetica,sans-Serif" font-size="10.00">::vertices_count</text>
</a>
</g>
</g>
<!-- Node7&#45;&gt;Node12 -->
<g id="edge25_Node000007_Node000012" class="edge">
<title>Node7&#45;&gt;Node12</title>
<g id="a_edge25_Node000007_Node000012"><a xlink:title=" ">
<path fill="none" stroke="#63b8ff" d="M411.37,-338.88C427.32,-356.71 456.23,-384.89 488.25,-396.25 556.97,-420.64 641.83,-402.8 695.23,-386.25"/>
<polygon fill="#63b8ff" stroke="#63b8ff" points="696.02,-389.35 704.48,-382.97 693.89,-382.69 696.02,-389.35"/>
</a>
</g>
</g>
<!-- Node15 -->
<g id="Node000015" class="node">
<title>Node15</title>
<g id="a_Node000015"><a xlink:href="../../d2/d0b/struct_slic3r_1_1_g_u_i_1_1_g_l_model_1_1_geometry.html#ac0c107633fced25d895df5f3c5ba5454" target="_top" xlink:title=" ">
<polygon fill="white" stroke="#666666" points="639.62,-289.5 489.38,-289.5 489.38,-259 639.62,-259 639.62,-289.5"/>
<text text-anchor="start" x="497.38" y="-276" font-family="Helvetica,sans-Serif" font-size="10.00">Slic3r::GUI::GLModel</text>
<text text-anchor="middle" x="564.5" y="-264.75" font-family="Helvetica,sans-Serif" font-size="10.00">::Geometry::extract_position_3</text>
</a>
</g>
</g>
<!-- Node7&#45;&gt;Node15 -->
<g id="edge15_Node000007_Node000015" class="edge">
<title>Node7&#45;&gt;Node15</title>
<g id="a_edge15_Node000007_Node000015"><a xlink:title=" ">
<path fill="none" stroke="#63b8ff" d="M451.08,-307.61C466.64,-302.99 483.84,-297.89 500,-293.09"/>
<polygon fill="#63b8ff" stroke="#63b8ff" points="500.86,-296.19 509.45,-289.99 498.87,-289.48 500.86,-296.19"/>
</a>
</g>
</g>
<!-- Node16 -->
<g id="Node000016" class="node">
<title>Node16</title>
<g id="a_Node000016"><a xlink:href="../../d0/d55/class_slic3r_1_1_g_u_i_1_1_g_l_model.html#aa01fd4b9e80610ce2867268d4fdf52ad" target="_top" xlink:title=" ">
<polygon fill="white" stroke="#666666" points="619.38,-240.5 509.62,-240.5 509.62,-210 619.38,-210 619.38,-240.5"/>
<text text-anchor="start" x="517.62" y="-227" font-family="Helvetica,sans-Serif" font-size="10.00">Slic3r::GUI::GLModel</text>
<text text-anchor="middle" x="564.5" y="-215.75" font-family="Helvetica,sans-Serif" font-size="10.00">::is_initialized</text>
</a>
</g>
</g>
<!-- Node7&#45;&gt;Node16 -->
<g id="edge18_Node000007_Node000016" class="edge">
<title>Node7&#45;&gt;Node16</title>
<g id="a_edge18_Node000007_Node000016"><a xlink:title=" ">
<path fill="none" stroke="#63b8ff" d="M413.96,-307.58C430.94,-291.29 459.52,-266 488.25,-250.25 491.88,-248.26 495.7,-246.39 499.61,-244.65"/>
<polygon fill="#63b8ff" stroke="#63b8ff" points="500.56,-247.62 508.46,-240.55 497.88,-241.16 500.56,-247.62"/>
</a>
</g>
</g>
<!-- Node19 -->
<g id="Node000019" class="node">
<title>Node19</title>
<g id="a_Node000019"><a xlink:href="../../da/d00/class_slic3r_1_1_bounding_box3_base.html#afbb570dbe5bd1bb0daa6d4992d2a9114" target="_top" xlink:title=" ">
<polygon fill="white" stroke="#666666" points="630.62,-387.5 498.38,-387.5 498.38,-357 630.62,-357 630.62,-387.5"/>
<text text-anchor="start" x="506.38" y="-374" font-family="Helvetica,sans-Serif" font-size="10.00">Slic3r::BoundingBox3Base</text>
<text text-anchor="middle" x="564.5" y="-362.75" font-family="Helvetica,sans-Serif" font-size="10.00">::merge</text>
</a>
</g>
</g>
<!-- Node7&#45;&gt;Node19 -->
<g id="edge22_Node000007_Node000019" class="edge">
<title>Node7&#45;&gt;Node19</title>
<g id="a_edge22_Node000007_Node000019"><a xlink:title=" ">
<path fill="none" stroke="#63b8ff" d="M451.08,-338.89C466.64,-343.51 483.84,-348.61 500,-353.41"/>
<polygon fill="#63b8ff" stroke="#63b8ff" points="498.87,-357.02 509.45,-356.51 500.86,-350.31 498.87,-357.02"/>
</a>
</g>
</g>
<!-- Node20 -->
<g id="Node000020" class="node">
<title>Node20</title>
<g id="a_Node000020"><a xlink:href="../../d2/d0b/struct_slic3r_1_1_g_u_i_1_1_g_l_model_1_1_geometry.html#abb038ab8dff4c784c621691260784dd9" target="_top" xlink:title=" ">
<polygon fill="white" stroke="#666666" points="1144.38,-226.12 1034.62,-226.12 1034.62,-184.38 1144.38,-184.38 1144.38,-226.12"/>
<text text-anchor="start" x="1042.62" y="-212.62" font-family="Helvetica,sans-Serif" font-size="10.00">Slic3r::GUI::GLModel</text>
<text text-anchor="start" x="1042.62" y="-201.38" font-family="Helvetica,sans-Serif" font-size="10.00">::Geometry::position</text>
<text text-anchor="middle" x="1089.5" y="-190.12" font-family="Helvetica,sans-Serif" font-size="10.00">_stride_floats</text>
</a>
</g>
</g>
<!-- Node7&#45;&gt;Node20 -->
<g id="edge23_Node000007_Node000020" class="edge">
<title>Node7&#45;&gt;Node20</title>
<g id="a_edge23_Node000007_Node000020"><a xlink:title=" ">
<path fill="none" stroke="#63b8ff" d="M404.32,-307.6C415.74,-280.08 443.64,-223.8 488.25,-201.25 580.28,-154.74 888.71,-182.53 1023.98,-197.54"/>
<polygon fill="#63b8ff" stroke="#63b8ff" points="1023.26,-201.09 1033.59,-198.73 1024.04,-194.13 1023.26,-201.09"/>
</a>
</g>
</g>
<!-- Node9 -->
<g id="Node000009" class="node">
<title>Node9</title>
<g id="a_Node000009"><a xlink:href="../../d9/d45/namespace_slic3r_1_1_g_u_i.html#a931a812146d00b37d0b68093aca9d688" target="_top" xlink:title=" ">
<polygon fill="white" stroke="#666666" points="1287.5,-303.88 1189,-303.88 1189,-284.62 1287.5,-284.62 1287.5,-303.88"/>
<text text-anchor="middle" x="1238.25" y="-290.38" font-family="Helvetica,sans-Serif" font-size="10.00">Slic3r::GUI::format</text>
</a>
</g>
</g>
<!-- Node8&#45;&gt;Node9 -->
<g id="edge8_Node000008_Node000009" class="edge">
<title>Node8&#45;&gt;Node9</title>
<g id="a_edge8_Node000008_Node000009"><a xlink:title=" ">
<path fill="none" stroke="#63b8ff" d="M639.78,-322.44C751.34,-320.84 968.73,-316.21 1153,-303.25 1161.06,-302.68 1169.54,-301.95 1177.89,-301.14"/>
<polygon fill="#63b8ff" stroke="#63b8ff" points="1178.15,-304.53 1187.74,-300.04 1177.44,-297.56 1178.15,-304.53"/>
</a>
</g>
</g>
<!-- Node8&#45;&gt;Node12 -->
<g id="edge11_Node000008_Node000012" class="edge">
<title>Node8&#45;&gt;Node12</title>
<g id="a_edge11_Node000008_Node000012"><a xlink:title=" ">
<path fill="none" stroke="#63b8ff" d="M630.3,-338.95C647.26,-343.06 665.54,-347.48 682.49,-351.59"/>
<polygon fill="#63b8ff" stroke="#63b8ff" points="681.3,-355.15 691.84,-354.1 682.95,-348.34 681.3,-355.15"/>
</a>
</g>
</g>
<!-- Node10 -->
<g id="Node000010" class="node">
<title>Node10</title>
<g id="a_Node000010"><a xlink:href="../../de/db8/namespace_slic3r.html#ab28c13d286b2d1767d7c63b020ebd042" target="_top" xlink:title=" ">
<polygon fill="white" stroke="#666666" points="1398,-303.88 1323.5,-303.88 1323.5,-284.62 1398,-284.62 1398,-303.88"/>
<text text-anchor="middle" x="1360.75" y="-290.38" font-family="Helvetica,sans-Serif" font-size="10.00">Slic3r::format</text>
</a>
</g>
</g>
<!-- Node9&#45;&gt;Node10 -->
<g id="edge9_Node000009_Node000010" class="edge">
<title>Node9&#45;&gt;Node10</title>
<g id="a_edge9_Node000009_Node000010"><a xlink:title=" ">
<path fill="none" stroke="#63b8ff" d="M1287.91,-294.25C1295.91,-294.25 1304.18,-294.25 1312.15,-294.25"/>
<polygon fill="#63b8ff" stroke="#63b8ff" points="1312.14,-297.75 1322.14,-294.25 1312.14,-290.75 1312.14,-297.75"/>
</a>
</g>
</g>
<!-- Node11 -->
<g id="Node000011" class="node">
<title>Node11</title>
<g id="a_Node000011"><a xlink:href="../../d5/ddc/namespace_slic3r_1_1internal_1_1format.html#a5a8cae6889e58c9be36cd70a9e9987ff" target="_top" xlink:title=" ">
<polygon fill="white" stroke="#666666" points="1546,-309.5 1434,-309.5 1434,-279 1546,-279 1546,-309.5"/>
<text text-anchor="start" x="1442" y="-296" font-family="Helvetica,sans-Serif" font-size="10.00">Slic3r::internal::format</text>
<text text-anchor="middle" x="1490" y="-284.75" font-family="Helvetica,sans-Serif" font-size="10.00">::format_recursive</text>
</a>
</g>
</g>
<!-- Node10&#45;&gt;Node11 -->
<g id="edge10_Node000010_Node000011" class="edge">
<title>Node10&#45;&gt;Node11</title>
<g id="a_edge10_Node000010_Node000011"><a xlink:title=" ">
<path fill="none" stroke="#63b8ff" d="M1398.21,-294.25C1405.87,-294.25 1414.18,-294.25 1422.55,-294.25"/>
<polygon fill="#63b8ff" stroke="#63b8ff" points="1422.55,-297.75 1432.55,-294.25 1422.55,-290.75 1422.55,-297.75"/>
</a>
</g>
</g>
<!-- Node13 -->
<g id="Node000013" class="node">
<title>Node13</title>
<g id="a_Node000013"><a xlink:href="../../d2/d0b/struct_slic3r_1_1_g_u_i_1_1_g_l_model_1_1_geometry.html#a90538e4586816392f03433ffe4f99498" target="_top" xlink:title=" ">
<polygon fill="white" stroke="#666666" points="990,-471.5 855.5,-471.5 855.5,-441 990,-441 990,-471.5"/>
<text text-anchor="start" x="863.5" y="-458" font-family="Helvetica,sans-Serif" font-size="10.00">Slic3r::GUI::GLModel</text>
<text text-anchor="middle" x="922.75" y="-446.75" font-family="Helvetica,sans-Serif" font-size="10.00">::Geometry::vertices_count</text>
</a>
</g>
</g>
<!-- Node12&#45;&gt;Node13 -->
<g id="edge12_Node000012_Node000013" class="edge">
<title>Node12&#45;&gt;Node13</title>
<g id="a_edge12_Node000012_Node000013"><a xlink:title=" ">
<path fill="none" stroke="#63b8ff" d="M779.59,-382.96C807.97,-397.59 850.48,-419.51 881.62,-435.56"/>
<polygon fill="#63b8ff" stroke="#63b8ff" points="879.81,-439.08 890.3,-440.55 883.02,-432.86 879.81,-439.08"/>
</a>
</g>
</g>
<!-- Node14 -->
<g id="Node000014" class="node">
<title>Node14</title>
<g id="a_Node000014"><a xlink:href="../../d2/d0b/struct_slic3r_1_1_g_u_i_1_1_g_l_model_1_1_geometry.html#aa2961820e12811b0cd3b5a0d66537080" target="_top" xlink:title=" ">
<polygon fill="white" stroke="#666666" points="1153,-455.12 1026,-455.12 1026,-413.38 1153,-413.38 1153,-455.12"/>
<text text-anchor="start" x="1034" y="-441.62" font-family="Helvetica,sans-Serif" font-size="10.00">Slic3r::GUI::GLModel</text>
<text text-anchor="start" x="1034" y="-430.38" font-family="Helvetica,sans-Serif" font-size="10.00">::Geometry::vertex_stride</text>
<text text-anchor="middle" x="1089.5" y="-419.12" font-family="Helvetica,sans-Serif" font-size="10.00">_floats</text>
</a>
</g>
</g>
<!-- Node13&#45;&gt;Node14 -->
<g id="edge13_Node000013_Node000014" class="edge">
<title>Node13&#45;&gt;Node14</title>
<g id="a_edge13_Node000013_Node000014"><a xlink:title=" ">
<path fill="none" stroke="#63b8ff" d="M990.29,-447.37C998.42,-446.28 1006.77,-445.16 1015,-444.07"/>
<polygon fill="#63b8ff" stroke="#63b8ff" points="1015.27,-447.43 1024.72,-442.63 1014.34,-440.49 1015.27,-447.43"/>
</a>
</g>
</g>
<!-- Node14&#45;&gt;Node9 -->
<g id="edge14_Node000014_Node000009" class="edge">
<title>Node14&#45;&gt;Node9</title>
<g id="a_edge14_Node000014_Node000009"><a xlink:title=" ">
<path fill="none" stroke="#63b8ff" d="M1112.79,-412.99C1141.87,-385.24 1192.22,-337.21 1219.1,-311.56"/>
<polygon fill="#63b8ff" stroke="#63b8ff" points="1221.13,-314.51 1225.95,-305.08 1216.3,-309.45 1221.13,-314.51"/>
</a>
</g>
</g>
<!-- Node15&#45;&gt;Node9 -->
<g id="edge16_Node000015_Node000009" class="edge">
<title>Node15&#45;&gt;Node9</title>
<g id="a_edge16_Node000015_Node000009"><a xlink:title=" ">
<path fill="none" stroke="#63b8ff" d="M639.96,-276.47C774.58,-280.47 1055.85,-288.85 1178.24,-292.49"/>
<polygon fill="#63b8ff" stroke="#63b8ff" points="1177.78,-296.01 1187.88,-292.81 1177.99,-289.01 1177.78,-296.01"/>
</a>
</g>
</g>
<!-- Node15&#45;&gt;Node12 -->
<g id="edge17_Node000015_Node000012" class="edge">
<title>Node15&#45;&gt;Node12</title>
<g id="a_edge17_Node000015_Node000012"><a xlink:title=" ">
<path fill="none" stroke="#63b8ff" d="M618.38,-289.96C626.01,-292.76 633.67,-295.87 640.75,-299.25 667.86,-312.17 696.42,-330.74 717.12,-345.21"/>
<polygon fill="#63b8ff" stroke="#63b8ff" points="714.86,-348.61 725.04,-351.53 718.9,-342.9 714.86,-348.61"/>
</a>
</g>
</g>
<!-- Node16&#45;&gt;Node12 -->
<g id="edge21_Node000016_Node000012" class="edge">
<title>Node16&#45;&gt;Node12</title>
<g id="a_edge21_Node000016_Node000012"><a xlink:title=" ">
<path fill="none" stroke="#63b8ff" d="M619.69,-239.49C627.05,-242.48 634.29,-246.05 640.75,-250.25 678.66,-274.92 711.84,-316.3 730.67,-342.66"/>
<polygon fill="#63b8ff" stroke="#63b8ff" points="728.34,-344.44 736.94,-350.63 734.08,-340.43 728.34,-344.44"/>
</a>
</g>
</g>
<!-- Node17 -->
<g id="Node000017" class="node">
<title>Node17</title>
<g id="a_Node000017"><a xlink:href="../../d0/d55/class_slic3r_1_1_g_u_i_1_1_g_l_model.html#af3c471e7e6a7ddf2286780b6be611da0" target="_top" xlink:title=" ">
<polygon fill="white" stroke="#666666" points="803,-122.5 693.25,-122.5 693.25,-92 803,-92 803,-122.5"/>
<text text-anchor="start" x="701.25" y="-109" font-family="Helvetica,sans-Serif" font-size="10.00">Slic3r::GUI::GLModel</text>
<text text-anchor="middle" x="748.12" y="-97.75" font-family="Helvetica,sans-Serif" font-size="10.00">::indices_count</text>
</a>
</g>
</g>
<!-- Node16&#45;&gt;Node17 -->
<g id="edge19_Node000016_Node000017" class="edge">
<title>Node16&#45;&gt;Node17</title>
<g id="a_edge19_Node000016_Node000017"><a xlink:title=" ">
<path fill="none" stroke="#63b8ff" d="M589.62,-209.58C621.51,-188.86 677.85,-152.26 713.79,-128.91"/>
<polygon fill="#63b8ff" stroke="#63b8ff" points="715.43,-131.37 721.91,-122.98 711.61,-125.5 715.43,-131.37"/>
</a>
</g>
</g>
<!-- Node18 -->
<g id="Node000018" class="node">
<title>Node18</title>
<g id="a_Node000018"><a xlink:href="../../d2/d0b/struct_slic3r_1_1_g_u_i_1_1_g_l_model_1_1_geometry.html#a7c35fd2326389f74e8133f0db0e7d8fa" target="_top" xlink:title=" ">
<polygon fill="white" stroke="#666666" points="988.12,-98.5 857.38,-98.5 857.38,-68 988.12,-68 988.12,-98.5"/>
<text text-anchor="start" x="865.38" y="-85" font-family="Helvetica,sans-Serif" font-size="10.00">Slic3r::GUI::GLModel</text>
<text text-anchor="middle" x="922.75" y="-73.75" font-family="Helvetica,sans-Serif" font-size="10.00">::Geometry::indices_count</text>
</a>
</g>
</g>
<!-- Node17&#45;&gt;Node18 -->
<g id="edge20_Node000017_Node000018" class="edge">
<title>Node17&#45;&gt;Node18</title>
<g id="a_edge20_Node000017_Node000018"><a xlink:title=" ">
<path fill="none" stroke="#63b8ff" d="M803.27,-99.72C816.96,-97.82 831.9,-95.74 846.42,-93.72"/>
<polygon fill="#63b8ff" stroke="#63b8ff" points="846.48,-97.11 855.9,-92.27 845.51,-90.18 846.48,-97.11"/>
</a>
</g>
</g>
<!-- Node20&#45;&gt;Node9 -->
<g id="edge24_Node000020_Node000009" class="edge">
<title>Node20&#45;&gt;Node9</title>
<g id="a_edge24_Node000020_Node000009"><a xlink:title=" ">
<path fill="none" stroke="#63b8ff" d="M1125.65,-226.57C1152.18,-242.66 1187.96,-264.36 1211.78,-278.8"/>
<polygon fill="#63b8ff" stroke="#63b8ff" points="1209.52,-282.13 1219.89,-284.33 1213.15,-276.15 1209.52,-282.13"/>
</a>
</g>
</g>
<!-- Node21&#45;&gt;Node18 -->
<g id="edge27_Node000021_Node000018" class="edge">
<title>Node21&#45;&gt;Node18</title>
<g id="a_edge27_Node000021_Node000018"><a xlink:title=" ">
<path fill="none" stroke="#63b8ff" d="M817.85,-68.2C827.21,-69.56 836.85,-70.95 846.32,-72.33"/>
<polygon fill="#63b8ff" stroke="#63b8ff" points="845.52,-75.89 855.91,-73.86 846.52,-68.96 845.52,-75.89"/>
</a>
</g>
</g>
<!-- Node22&#45;&gt;Node13 -->
<g id="edge30_Node000022_Node000013" class="edge">
<title>Node22&#45;&gt;Node13</title>
<g id="a_edge30_Node000022_Node000013"><a xlink:title=" ">
<path fill="none" stroke="#63b8ff" d="M811.93,-483.6C823.72,-480.67 836.13,-477.58 848.2,-474.57"/>
<polygon fill="#63b8ff" stroke="#63b8ff" points="848.84,-477.77 857.7,-471.96 847.15,-470.98 848.84,-477.77"/>
</a>
</g>
</g>
<!-- Node22&#45;&gt;Node14 -->
<g id="edge29_Node000022_Node000014" class="edge">
<title>Node22&#45;&gt;Node14</title>
<g id="a_edge29_Node000022_Node000014"><a xlink:title=" ">
<path fill="none" stroke="#63b8ff" d="M819.8,-500.27C868.4,-499.38 934.02,-495.01 990,-480.25 1007.53,-475.63 1025.78,-468 1041.73,-460.27"/>
<polygon fill="#63b8ff" stroke="#63b8ff" points="1042.96,-463.07 1050.34,-455.47 1039.83,-456.8 1042.96,-463.07"/>
</a>
</g>
</g>
<!-- Node24 -->
<g id="Node000024" class="node">
<title>Node24</title>
<g id="a_Node000024"><a xlink:href="../../d0/d55/class_slic3r_1_1_g_u_i_1_1_g_l_model.html#a4c7e1c45e517713d62ceb24307b70a70" target="_top" xlink:title=" ">
<polygon fill="white" stroke="#666666" points="452.25,-154.5 342.5,-154.5 342.5,-124 452.25,-124 452.25,-154.5"/>
<text text-anchor="start" x="350.5" y="-141" font-family="Helvetica,sans-Serif" font-size="10.00">Slic3r::GUI::GLModel</text>
<text text-anchor="middle" x="397.38" y="-129.75" font-family="Helvetica,sans-Serif" font-size="10.00">::indices_size_bytes</text>
</a>
</g>
</g>
<!-- Node23&#45;&gt;Node24 -->
<g id="edge32_Node000023_Node000024" class="edge">
<title>Node23&#45;&gt;Node24</title>
<g id="a_edge32_Node000023_Node000024"><a xlink:title=" ">
<path fill="none" stroke="#63b8ff" d="M254.18,-404.74C278.95,-358.49 352.48,-221.21 382.93,-164.35"/>
<polygon fill="#63b8ff" stroke="#63b8ff" points="386.46,-166.18 388.09,-155.71 380.29,-162.87 386.46,-166.18"/>
</a>
</g>
</g>
<!-- Node26 -->
<g id="Node000026" class="node">
<title>Node26</title>
<g id="a_Node000026"><a xlink:href="../../d0/d55/class_slic3r_1_1_g_u_i_1_1_g_l_model.html#acab42542e97e5980a14b260c867481dc" target="_top" xlink:title=" ">
<polygon fill="white" stroke="#666666" points="452.25,-454.5 342.5,-454.5 342.5,-424 452.25,-424 452.25,-454.5"/>
<text text-anchor="start" x="350.5" y="-441" font-family="Helvetica,sans-Serif" font-size="10.00">Slic3r::GUI::GLModel</text>
<text text-anchor="middle" x="397.38" y="-429.75" font-family="Helvetica,sans-Serif" font-size="10.00">::vertices_size_bytes</text>
</a>
</g>
</g>
<!-- Node23&#45;&gt;Node26 -->
<g id="edge35_Node000023_Node000026" class="edge">
<title>Node23&#45;&gt;Node26</title>
<g id="a_edge35_Node000023_Node000026"><a xlink:title=" ">
<path fill="none" stroke="#63b8ff" d="M300.21,-427.11C310.33,-428.39 321,-429.73 331.41,-431.05"/>
<polygon fill="#63b8ff" stroke="#63b8ff" points="330.76,-434.62 341.12,-432.4 331.64,-427.68 330.76,-434.62"/>
</a>
</g>
</g>
<!-- Node24&#45;&gt;Node17 -->
<g id="edge34_Node000024_Node000017" class="edge">
<title>Node24&#45;&gt;Node17</title>
<g id="a_edge34_Node000024_Node000017"><a xlink:title=" ">
<path fill="none" stroke="#63b8ff" d="M448.81,-123.6C461.56,-120.25 475.31,-117.15 488.25,-115.25 553.66,-105.64 629.34,-104.43 681.91,-105.14"/>
<polygon fill="#63b8ff" stroke="#63b8ff" points="681.71,-108.65 691.76,-105.32 681.82,-101.65 681.71,-108.65"/>
</a>
</g>
</g>
<!-- Node25 -->
<g id="Node000025" class="node">
<title>Node25</title>
<g id="a_Node000025"><a xlink:href="../../d2/d0b/struct_slic3r_1_1_g_u_i_1_1_g_l_model_1_1_geometry.html#ab91c9e988ecb398d00da8e4b9d7aeab7" target="_top" xlink:title=" ">
<polygon fill="white" stroke="#666666" points="640.75,-154.5 488.25,-154.5 488.25,-124 640.75,-124 640.75,-154.5"/>
<text text-anchor="start" x="496.25" y="-141" font-family="Helvetica,sans-Serif" font-size="10.00">Slic3r::GUI::GLModel</text>
<text text-anchor="middle" x="564.5" y="-129.75" font-family="Helvetica,sans-Serif" font-size="10.00">::Geometry::index_stride_bytes</text>
</a>
</g>
</g>
<!-- Node24&#45;&gt;Node25 -->
<g id="edge33_Node000024_Node000025" class="edge">
<title>Node24&#45;&gt;Node25</title>
<g id="a_edge33_Node000024_Node000025"><a xlink:title=" ">
<path fill="none" stroke="#63b8ff" d="M452.44,-139.25C460.36,-139.25 468.67,-139.25 477.03,-139.25"/>
<polygon fill="#63b8ff" stroke="#63b8ff" points="477.03,-142.75 487.03,-139.25 477.03,-135.75 477.03,-142.75"/>
</a>
</g>
</g>
<!-- Node27 -->
<g id="Node000027" class="node">
<title>Node27</title>
<g id="a_Node000027"><a xlink:href="../../d0/d55/class_slic3r_1_1_g_u_i_1_1_g_l_model.html#ae6cf5132bb618f5b07a5cde00a78b20b" target="_top" xlink:title=" ">
<polygon fill="white" stroke="#666666" points="619.38,-473.5 509.62,-473.5 509.62,-443 619.38,-443 619.38,-473.5"/>
<text text-anchor="start" x="517.62" y="-460" font-family="Helvetica,sans-Serif" font-size="10.00">Slic3r::GUI::GLModel</text>
<text text-anchor="middle" x="564.5" y="-448.75" font-family="Helvetica,sans-Serif" font-size="10.00">::vertices_size_floats</text>
</a>
</g>
</g>
<!-- Node26&#45;&gt;Node27 -->
<g id="edge36_Node000026_Node000027" class="edge">
<title>Node26&#45;&gt;Node27</title>
<g id="a_edge36_Node000026_Node000027"><a xlink:title=" ">
<path fill="none" stroke="#63b8ff" d="M452.44,-445.47C467.13,-447.16 483.18,-449.01 498.4,-450.76"/>
<polygon fill="#63b8ff" stroke="#63b8ff" points="497.98,-454.35 508.31,-452.01 498.78,-447.39 497.98,-454.35"/>
</a>
</g>
</g>
<!-- Node27&#45;&gt;Node12 -->
<g id="edge38_Node000027_Node000012" class="edge">
<title>Node27&#45;&gt;Node12</title>
<g id="a_edge38_Node000027_Node000012"><a xlink:title=" ">
<path fill="none" stroke="#63b8ff" d="M613.17,-442.6C622.58,-438.76 632.18,-434.29 640.75,-429.25 658.71,-418.7 659.11,-410.33 676.75,-399.25 683.39,-395.08 690.67,-391.14 697.94,-387.56"/>
<polygon fill="#63b8ff" stroke="#63b8ff" points="699.26,-390.33 706.81,-382.89 696.27,-384 699.26,-390.33"/>
</a>
</g>
</g>
<!-- Node27&#45;&gt;Node14 -->
<g id="edge37_Node000027_Node000014" class="edge">
<title>Node27&#45;&gt;Node14</title>
<g id="a_edge37_Node000027_Node000014"><a xlink:title=" ">
<path fill="none" stroke="#63b8ff" d="M619.65,-451.94C677.83,-445.5 773.06,-435.94 855.5,-432.25 915.22,-429.58 930.23,-431.64 990,-432.25 998.03,-432.33 1006.42,-432.45 1014.78,-432.59"/>
<polygon fill="#63b8ff" stroke="#63b8ff" points="1014.65,-436.11 1024.71,-432.78 1014.77,-429.11 1014.65,-436.11"/>
</a>
</g>
</g>
</g>
</svg>

<g id="navigator" transform="translate(0 0)" fill="#404254">
  <rect fill="#f2f5e9" fill-opacity="0.5" stroke="#606060" stroke-width=".5" x="0" y="0" width="60" height="60"/>
  <use id="zoomplus" xlink:href="#zoomPlus" x="17" y="9" onmousedown="handleZoom(evt,'in')"/>
  <use id="zoomminus" xlink:href="#zoomMin" x="42" y="9" onmousedown="handleZoom(evt,'out')"/>
  <use id="reset" xlink:href="#resetDef" x="30" y="36" onmousedown="handleReset()"/>
   <use id="arrowup" xlink:href="#arrowUp" x="0" y="0" onmousedown="handlePan(0,-1)"/>
  <use id="arrowright" xlink:href="#arrowRight" x="0" y="0" onmousedown="handlePan(1,0)"/>
  <use id="arrowdown" xlink:href="#arrowDown" x="0" y="0" onmousedown="handlePan(0,1)"/>
  <use id="arrowleft" xlink:href="#arrowLeft" x="0" y="0" onmousedown="handlePan(-1,0)"/>
</g>
<svg viewBox="0 0 15 15" width="100%" height="30px" preserveAspectRatio="xMaxYMin meet">
 <g id="arrow_out" transform="scale(0.3 0.3)">
  <a xlink:href="class_slic3r_1_1_g_u_i_1_1_g_l_gizmo_simplify_ae4926a6d86f7dec2f4dfe27133d4ba7f_cgraph_org.svg" target="_base">
   <rect id="button" ry="5" rx="5" y="6" x="6" height="38" width="38"
        fill="#f2f5e9" fill-opacity="0.5" stroke="#606060" stroke-width="1.0"/>
   <path id="arrow"
     d="M 11.500037,31.436501 C 11.940474,20.09759 22.043105,11.32322 32.158766,21.979434 L 37.068811,17.246167 C 37.068811,17.246167 37.088388,32 37.088388,32 L 22.160133,31.978069 C 22.160133,31.978069 26.997745,27.140456 26.997745,27.140456 C 18.528582,18.264221 13.291696,25.230495 11.500037,31.436501 z"
     style="fill:#404040;"/>
  </a>
 </g>
</svg>

<style type='text/css'>
<![CDATA[
[data-mouse-over-selected='false'] { opacity: 0.7; }
[data-mouse-over-selected='true']  { opacity: 1.0; }
]]>
</style>
<script type="application/ecmascript"><![CDATA[
document.addEventListener('DOMContentLoaded', (event) => {
  highlightEdges();
  highlightAdjacentNodes();
});
]]></script>
</svg>
