<?xml version="1.0" encoding="UTF-8" standalone="no"?>
<!DOCTYPE svg PUBLIC "-//W3C//DTD SVG 1.1//EN"
 "http://www.w3.org/Graphics/SVG/1.1/DTD/svg11.dtd">
<!-- Generated by graphviz version 8.0.5 (20230430.1635)
 -->
<!-- Title: Slic3r::WipeTowerWriter::comment_with_value Pages: 1 -->
<svg width="823pt" height="98pt"
 viewBox="0.00 0.00 823.25 97.50" xmlns="http://www.w3.org/2000/svg" xmlns:xlink="http://www.w3.org/1999/xlink">
<g id="graph0" class="graph" transform="scale(1 1) rotate(0) translate(4 93.5)">
<title>Slic3r::WipeTowerWriter::comment_with_value</title>
<!-- Node1 -->
<g id="Node000001" class="node">
<title>Node1</title>
<g id="a_Node000001"><a xlink:title=" ">
<polygon fill="#999999" stroke="#666666" points="815.25,-73.5 694.25,-73.5 694.25,-43 815.25,-43 815.25,-73.5"/>
<text text-anchor="start" x="702.25" y="-60" font-family="Helvetica,sans-Serif" font-size="10.00">Slic3r::WipeTowerWriter</text>
<text text-anchor="middle" x="754.75" y="-48.75" font-family="Helvetica,sans-Serif" font-size="10.00">::comment_with_value</text>
</a>
</g>
</g>
<!-- Node2 -->
<g id="Node000002" class="node">
<title>Node2</title>
<g id="a_Node000002"><a xlink:href="../../db/d2e/class_slic3r_1_1_wipe_tower.html#a3fe1ed3f80f9b7bf26575fdff0d33204" target="_top" xlink:title=" ">
<polygon fill="white" stroke="#666666" points="658.25,-73.5 556.75,-73.5 556.75,-43 658.25,-43 658.25,-73.5"/>
<text text-anchor="start" x="564.75" y="-60" font-family="Helvetica,sans-Serif" font-size="10.00">Slic3r::WipeTower::</text>
<text text-anchor="middle" x="607.5" y="-48.75" font-family="Helvetica,sans-Serif" font-size="10.00">tool_change</text>
</a>
</g>
</g>
<!-- Node1&#45;&gt;Node2 -->
<g id="edge1_Node000001_Node000002" class="edge">
<title>Node1&#45;&gt;Node2</title>
<g id="a_edge1_Node000001_Node000002"><a xlink:title=" ">
<path fill="none" stroke="#63b8ff" d="M683.03,-58.25C674.77,-58.25 666.47,-58.25 658.57,-58.25"/>
<polygon fill="#63b8ff" stroke="#63b8ff" points="682.83,-61.75 692.83,-58.25 682.83,-54.75 682.83,-61.75"/>
</a>
</g>
</g>
<!-- Node3 -->
<g id="Node000003" class="node">
<title>Node3</title>
<g id="a_Node000003"><a xlink:href="../../d5/d8f/class_slic3r_1_1_print.html#af620bb29ea8659a472c026557cc66f43" target="_top" xlink:title=" ">
<polygon fill="white" stroke="#666666" points="245.75,-89.5 143.5,-89.5 143.5,-59 245.75,-59 245.75,-89.5"/>
<text text-anchor="start" x="151.5" y="-76" font-family="Helvetica,sans-Serif" font-size="10.00">Slic3r::Print::_make</text>
<text text-anchor="middle" x="194.62" y="-64.75" font-family="Helvetica,sans-Serif" font-size="10.00">_wipe_tower</text>
</a>
</g>
</g>
<!-- Node2&#45;&gt;Node3 -->
<g id="edge2_Node000002_Node000003" class="edge">
<title>Node2&#45;&gt;Node3</title>
<g id="a_edge2_Node000002_Node000003"><a xlink:title=" ">
<path fill="none" stroke="#63b8ff" d="M545.77,-66.57C537.37,-67.57 528.86,-68.5 520.75,-69.25 414.93,-79.1 388.02,-79.1 281.75,-77.25 270.23,-77.05 257.85,-76.7 246.17,-76.3"/>
<polygon fill="#63b8ff" stroke="#63b8ff" points="546.19,-69.92 555.69,-65.23 545.34,-62.98 546.19,-69.92"/>
</a>
</g>
</g>
<!-- Node5 -->
<g id="Node000005" class="node">
<title>Node5</title>
<g id="a_Node000005"><a xlink:href="../../db/d2e/class_slic3r_1_1_wipe_tower.html#aaba2eb3a4147fd11a28c045198266777" target="_top" xlink:title=" ">
<polygon fill="white" stroke="#666666" points="383.25,-68.5 281.75,-68.5 281.75,-38 383.25,-38 383.25,-68.5"/>
<text text-anchor="start" x="289.75" y="-55" font-family="Helvetica,sans-Serif" font-size="10.00">Slic3r::WipeTower::</text>
<text text-anchor="middle" x="332.5" y="-43.75" font-family="Helvetica,sans-Serif" font-size="10.00">generate</text>
</a>
</g>
</g>
<!-- Node2&#45;&gt;Node5 -->
<g id="edge4_Node000002_Node000005" class="edge">
<title>Node2&#45;&gt;Node5</title>
<g id="a_edge4_Node000002_Node000005"><a xlink:title=" ">
<path fill="none" stroke="#63b8ff" d="M545.71,-57.14C496.98,-56.24 429.41,-55.01 383.72,-54.17"/>
<polygon fill="#63b8ff" stroke="#63b8ff" points="545.37,-60.65 555.43,-57.33 545.49,-53.65 545.37,-60.65"/>
</a>
</g>
</g>
<!-- Node6 -->
<g id="Node000006" class="node">
<title>Node6</title>
<g id="a_Node000006"><a xlink:href="../../db/d2e/class_slic3r_1_1_wipe_tower.html#a38118f226bd66ac4a077c974f92230e6" target="_top" xlink:title=" ">
<polygon fill="white" stroke="#666666" points="520.75,-30.5 419.25,-30.5 419.25,0 520.75,0 520.75,-30.5"/>
<text text-anchor="start" x="427.25" y="-17" font-family="Helvetica,sans-Serif" font-size="10.00">Slic3r::WipeTower::</text>
<text text-anchor="middle" x="470" y="-5.75" font-family="Helvetica,sans-Serif" font-size="10.00">save_on_last_wipe</text>
</a>
</g>
</g>
<!-- Node2&#45;&gt;Node6 -->
<g id="edge6_Node000002_Node000006" class="edge">
<title>Node2&#45;&gt;Node6</title>
<g id="a_edge6_Node000002_Node000006"><a xlink:title=" ">
<path fill="none" stroke="#63b8ff" d="M546.95,-39.35C538.12,-36.55 529.09,-33.69 520.49,-30.96"/>
<polygon fill="#63b8ff" stroke="#63b8ff" points="545.61,-42.92 556.2,-42.6 547.73,-36.24 545.61,-42.92"/>
</a>
</g>
</g>
<!-- Node4 -->
<g id="Node000004" class="node">
<title>Node4</title>
<g id="a_Node000004"><a xlink:href="../../d5/d8f/class_slic3r_1_1_print.html#a9323a02226e9ecffd2bbc0a28c0419e5" target="_top" xlink:title=" ">
<polygon fill="white" stroke="#666666" points="107.5,-83.88 0,-83.88 0,-64.62 107.5,-64.62 107.5,-83.88"/>
<text text-anchor="middle" x="53.75" y="-70.38" font-family="Helvetica,sans-Serif" font-size="10.00">Slic3r::Print::process</text>
</a>
</g>
</g>
<!-- Node3&#45;&gt;Node4 -->
<g id="edge3_Node000003_Node000004" class="edge">
<title>Node3&#45;&gt;Node4</title>
<g id="a_edge3_Node000003_Node000004"><a xlink:title=" ">
<path fill="none" stroke="#63b8ff" d="M132.16,-74.25C124.04,-74.25 115.77,-74.25 107.81,-74.25"/>
<polygon fill="#63b8ff" stroke="#63b8ff" points="132.1,-77.75 142.1,-74.25 132.1,-70.75 132.1,-77.75"/>
</a>
</g>
</g>
<!-- Node5&#45;&gt;Node3 -->
<g id="edge5_Node000005_Node000003" class="edge">
<title>Node5&#45;&gt;Node3</title>
<g id="a_edge5_Node000005_Node000003"><a xlink:title=" ">
<path fill="none" stroke="#63b8ff" d="M270.63,-62.66C262.42,-63.93 254.08,-65.22 246.08,-66.45"/>
<polygon fill="#63b8ff" stroke="#63b8ff" points="270.94,-66 280.29,-61.01 269.87,-59.08 270.94,-66"/>
</a>
</g>
</g>
<!-- Node6&#45;&gt;Node5 -->
<g id="edge7_Node000006_Node000005" class="edge">
<title>Node6&#45;&gt;Node5</title>
<g id="a_edge7_Node000006_Node000005"><a xlink:title=" ">
<path fill="none" stroke="#63b8ff" d="M408.43,-32.24C400.05,-34.59 391.52,-36.98 383.36,-39.27"/>
<polygon fill="#63b8ff" stroke="#63b8ff" points="409.25,-35.36 417.93,-29.29 407.36,-28.62 409.25,-35.36"/>
</a>
</g>
</g>
</g>
</svg>
