<?xml version="1.0" encoding="UTF-8" standalone="no"?>
<!DOCTYPE svg PUBLIC "-//W3C//DTD SVG 1.1//EN"
 "http://www.w3.org/Graphics/SVG/1.1/DTD/svg11.dtd">
<!-- Generated by graphviz version 8.0.5 (20230430.1635)
 -->
<!-- Title: Slic3r::WipeTowerWriter::load_move_x_advanced Pages: 1 -->
<svg width="835pt" height="501pt"
 viewBox="0.00 0.00 835.25 500.54" xmlns="http://www.w3.org/2000/svg" xmlns:xlink="http://www.w3.org/1999/xlink">
<g id="graph0" class="graph" transform="scale(1 1) rotate(0) translate(4 496.54)">
<title>Slic3r::WipeTowerWriter::load_move_x_advanced</title>
<!-- Node1 -->
<g id="Node000001" class="node">
<title>Node1</title>
<g id="a_Node000001"><a xlink:title=" ">
<polygon fill="#999999" stroke="#666666" points="127,-44.17 0,-44.17 0,-13.67 127,-13.67 127,-44.17"/>
<text text-anchor="start" x="8" y="-30.67" font-family="Helvetica,sans-Serif" font-size="10.00">Slic3r::WipeTowerWriter</text>
<text text-anchor="middle" x="63.5" y="-19.42" font-family="Helvetica,sans-Serif" font-size="10.00">::load_move_x_advanced</text>
</a>
</g>
</g>
<!-- Node2 -->
<g id="Node000002" class="node">
<title>Node2</title>
<g id="a_Node000002"><a xlink:href="../../d6/dcf/class_slic3r_1_1_wipe_tower_writer.html#a872e88394a411a934c30febd134acb9c" target="_top" xlink:title=" ">
<polygon fill="white" stroke="#666666" points="284,-236.17 163,-236.17 163,-205.67 284,-205.67 284,-236.17"/>
<text text-anchor="start" x="171" y="-222.67" font-family="Helvetica,sans-Serif" font-size="10.00">Slic3r::WipeTowerWriter</text>
<text text-anchor="middle" x="223.5" y="-211.42" font-family="Helvetica,sans-Serif" font-size="10.00">::extrude_explicit</text>
</a>
</g>
</g>
<!-- Node1&#45;&gt;Node2 -->
<g id="edge1_Node000001_Node000002" class="edge">
<title>Node1&#45;&gt;Node2</title>
<g id="a_edge1_Node000001_Node000002"><a xlink:title=" ">
<path fill="none" stroke="#63b8ff" d="M77.43,-44.63C105.04,-78.18 169.93,-157.03 202.75,-196.91"/>
<polygon fill="#63b8ff" stroke="#63b8ff" points="200.56,-198.76 209.61,-204.26 205.96,-194.31 200.56,-198.76"/>
</a>
</g>
</g>
<!-- Node18 -->
<g id="Node000018" class="node">
<title>Node18</title>
<g id="a_Node000018"><a xlink:href="../../d6/dcf/class_slic3r_1_1_wipe_tower_writer.html#a0dbd102a72d03a5bfd7894ac20b01357" target="_top" xlink:title=" ">
<polygon fill="white" stroke="#666666" points="609.25,-114.54 477,-114.54 477,-95.29 609.25,-95.29 609.25,-114.54"/>
<text text-anchor="middle" x="543.12" y="-101.04" font-family="Helvetica,sans-Serif" font-size="10.00">Slic3r::WipeTowerWriter::x</text>
</a>
</g>
</g>
<!-- Node1&#45;&gt;Node18 -->
<g id="edge28_Node000001_Node000018" class="edge">
<title>Node1&#45;&gt;Node18</title>
<g id="a_edge28_Node000001_Node000018"><a xlink:title=" ">
<path fill="none" stroke="#63b8ff" d="M127.43,-38.93C215.27,-52.91 374.35,-78.22 467.88,-93.1"/>
<polygon fill="#63b8ff" stroke="#63b8ff" points="467.25,-96.71 477.67,-94.82 468.35,-89.79 467.25,-96.71"/>
</a>
</g>
</g>
<!-- Node20 -->
<g id="Node000020" class="node">
<title>Node20</title>
<g id="a_Node000020"><a xlink:href="../../d6/dcf/class_slic3r_1_1_wipe_tower_writer.html#aefd850add0cba3f138e12a6d8cebedee" target="_top" xlink:title=" ">
<polygon fill="white" stroke="#666666" points="609.25,-76.54 477,-76.54 477,-57.29 609.25,-57.29 609.25,-76.54"/>
<text text-anchor="middle" x="543.12" y="-63.04" font-family="Helvetica,sans-Serif" font-size="10.00">Slic3r::WipeTowerWriter::y</text>
</a>
</g>
</g>
<!-- Node1&#45;&gt;Node20 -->
<g id="edge29_Node000001_Node000020" class="edge">
<title>Node1&#45;&gt;Node20</title>
<g id="a_edge29_Node000001_Node000020"><a xlink:title=" ">
<path fill="none" stroke="#63b8ff" d="M127.5,-16.27C203.13,-3.43 333.24,11.17 441,-14.92 469.56,-21.83 499.1,-38.28 518.82,-50.85"/>
<polygon fill="#63b8ff" stroke="#63b8ff" points="516.64,-54.26 526.92,-56.82 520.48,-48.41 516.64,-54.26"/>
</a>
</g>
</g>
<!-- Node3 -->
<g id="Node000003" class="node">
<title>Node3</title>
<g id="a_Node000003"><a xlink:href="../../de/db8/namespace_slic3r.html#a92b2e5013291a55201abda7303b67baf" target="_top" xlink:title=" ">
<polygon fill="white" stroke="#666666" points="568,-424.54 518.25,-424.54 518.25,-405.29 568,-405.29 568,-424.54"/>
<text text-anchor="middle" x="543.12" y="-411.04" font-family="Helvetica,sans-Serif" font-size="10.00">Slic3r::f</text>
</a>
</g>
</g>
<!-- Node2&#45;&gt;Node3 -->
<g id="edge2_Node000002_Node000003" class="edge">
<title>Node2&#45;&gt;Node3</title>
<g id="a_edge2_Node000002_Node000003"><a xlink:title=" ">
<path fill="none" stroke="#63b8ff" d="M227.22,-236.52C234.57,-273.39 258.58,-365.68 320,-404.92 377.1,-441.4 460.32,-432.55 507,-423.39"/>
<polygon fill="#63b8ff" stroke="#63b8ff" points="507.7,-426.61 516.77,-421.14 506.27,-419.76 507.7,-426.61"/>
</a>
</g>
</g>
<!-- Node9 -->
<g id="Node000009" class="node">
<title>Node9</title>
<g id="a_Node000009"><a xlink:href="../../d6/dcf/class_slic3r_1_1_wipe_tower_writer.html#ac11deda17a9060effb671f24194a0d5e" target="_top" xlink:title=" ">
<polygon fill="white" stroke="#666666" points="441,-347.17 320,-347.17 320,-316.67 441,-316.67 441,-347.17"/>
<text text-anchor="start" x="328" y="-333.67" font-family="Helvetica,sans-Serif" font-size="10.00">Slic3r::WipeTowerWriter</text>
<text text-anchor="middle" x="380.5" y="-322.42" font-family="Helvetica,sans-Serif" font-size="10.00">::pos_rotated</text>
</a>
</g>
</g>
<!-- Node2&#45;&gt;Node9 -->
<g id="edge8_Node000002_Node000009" class="edge">
<title>Node2&#45;&gt;Node9</title>
<g id="a_edge8_Node000002_Node000009"><a xlink:title=" ">
<path fill="none" stroke="#63b8ff" d="M240.04,-236.49C258.16,-254.08 289.5,-282.87 320,-302.92 324.33,-305.76 328.99,-308.51 333.72,-311.1"/>
<polygon fill="#63b8ff" stroke="#63b8ff" points="331.96,-314.65 342.44,-316.18 335.2,-308.45 331.96,-314.65"/>
</a>
</g>
</g>
<!-- Node10 -->
<g id="Node000010" class="node">
<title>Node10</title>
<g id="a_Node000010"><a xlink:href="../../d6/dcf/class_slic3r_1_1_wipe_tower_writer.html#a7c2d242cbfb66fc5cb2b48b327f91021" target="_top" xlink:title=" ">
<polygon fill="white" stroke="#666666" points="603.62,-347.17 482.62,-347.17 482.62,-316.67 603.62,-316.67 603.62,-347.17"/>
<text text-anchor="start" x="490.62" y="-333.67" font-family="Helvetica,sans-Serif" font-size="10.00">Slic3r::WipeTowerWriter</text>
<text text-anchor="middle" x="543.12" y="-322.42" font-family="Helvetica,sans-Serif" font-size="10.00">::rotate</text>
</a>
</g>
</g>
<!-- Node2&#45;&gt;Node10 -->
<g id="edge14_Node000002_Node000010" class="edge">
<title>Node2&#45;&gt;Node10</title>
<g id="a_edge14_Node000002_Node000010"><a xlink:title=" ">
<path fill="none" stroke="#63b8ff" d="M251.4,-236.58C270.17,-247.04 296.05,-260.54 320,-269.92 347.61,-280.73 417.64,-299.78 471.75,-313.93"/>
<polygon fill="#63b8ff" stroke="#63b8ff" points="470.78,-317.55 481.34,-316.68 472.55,-310.78 470.78,-317.55"/>
</a>
</g>
</g>
<!-- Node13 -->
<g id="Node000013" class="node">
<title>Node13</title>
<g id="a_Node000013"><a xlink:href="../../d6/dcf/class_slic3r_1_1_wipe_tower_writer.html#ad79b4ee5a63e22a05bfb7577e54de7c7" target="_top" xlink:title=" ">
<polygon fill="white" stroke="#666666" points="441,-261.17 320,-261.17 320,-230.67 441,-230.67 441,-261.17"/>
<text text-anchor="start" x="328" y="-247.67" font-family="Helvetica,sans-Serif" font-size="10.00">Slic3r::WipeTowerWriter</text>
<text text-anchor="middle" x="380.5" y="-236.42" font-family="Helvetica,sans-Serif" font-size="10.00">::set_format_E</text>
</a>
</g>
</g>
<!-- Node2&#45;&gt;Node13 -->
<g id="edge15_Node000002_Node000013" class="edge">
<title>Node2&#45;&gt;Node13</title>
<g id="a_edge15_Node000002_Node000013"><a xlink:title=" ">
<path fill="none" stroke="#63b8ff" d="M284.43,-230.58C292.48,-231.88 300.81,-233.22 309.02,-234.55"/>
<polygon fill="#63b8ff" stroke="#63b8ff" points="308.3,-238.14 318.73,-236.28 309.42,-231.23 308.3,-238.14"/>
</a>
</g>
</g>
<!-- Node15 -->
<g id="Node000015" class="node">
<title>Node15</title>
<g id="a_Node000015"><a xlink:href="../../d6/dcf/class_slic3r_1_1_wipe_tower_writer.html#a361566d5c5a680d458d452878926667a" target="_top" xlink:title=" ">
<polygon fill="white" stroke="#666666" points="441,-396.17 320,-396.17 320,-365.67 441,-365.67 441,-396.17"/>
<text text-anchor="start" x="328" y="-382.67" font-family="Helvetica,sans-Serif" font-size="10.00">Slic3r::WipeTowerWriter</text>
<text text-anchor="middle" x="380.5" y="-371.42" font-family="Helvetica,sans-Serif" font-size="10.00">::set_format_F</text>
</a>
</g>
</g>
<!-- Node2&#45;&gt;Node15 -->
<g id="edge17_Node000002_Node000015" class="edge">
<title>Node2&#45;&gt;Node15</title>
<g id="a_edge17_Node000002_Node000015"><a xlink:title=" ">
<path fill="none" stroke="#63b8ff" d="M231.79,-236.4C245.46,-263.95 277.46,-321.77 320,-355.92 321.64,-357.23 323.36,-358.49 325.13,-359.69"/>
<polygon fill="#63b8ff" stroke="#63b8ff" points="323.03,-363.1 333.41,-365.22 326.61,-357.09 323.03,-363.1"/>
</a>
</g>
</g>
<!-- Node17 -->
<g id="Node000017" class="node">
<title>Node17</title>
<g id="a_Node000017"><a xlink:href="../../d6/dcf/class_slic3r_1_1_wipe_tower_writer.html#a24ff78f5b8b6c7ac18ecf133e097aa42" target="_top" xlink:title=" ">
<polygon fill="white" stroke="#666666" points="441,-212.17 320,-212.17 320,-181.67 441,-181.67 441,-212.17"/>
<text text-anchor="start" x="328" y="-198.67" font-family="Helvetica,sans-Serif" font-size="10.00">Slic3r::WipeTowerWriter</text>
<text text-anchor="middle" x="380.5" y="-187.42" font-family="Helvetica,sans-Serif" font-size="10.00">::set_format_X</text>
</a>
</g>
</g>
<!-- Node2&#45;&gt;Node17 -->
<g id="edge20_Node000002_Node000017" class="edge">
<title>Node2&#45;&gt;Node17</title>
<g id="a_edge20_Node000002_Node000017"><a xlink:title=" ">
<path fill="none" stroke="#63b8ff" d="M284.43,-211.64C292.48,-210.39 300.81,-209.1 309.02,-207.83"/>
<polygon fill="#63b8ff" stroke="#63b8ff" points="309.39,-211.16 318.73,-206.17 308.31,-204.24 309.39,-211.16"/>
</a>
</g>
</g>
<!-- Node2&#45;&gt;Node18 -->
<g id="edge26_Node000002_Node000018" class="edge">
<title>Node2&#45;&gt;Node18</title>
<g id="a_edge26_Node000002_Node000018"><a xlink:title=" ">
<path fill="none" stroke="#63b8ff" d="M234.32,-205.5C249.58,-183.06 281.29,-142.11 320,-123.92 365.31,-102.63 421.53,-98 466.08,-98.63"/>
<polygon fill="#63b8ff" stroke="#63b8ff" points="465.76,-102.15 475.84,-98.89 465.93,-95.15 465.76,-102.15"/>
</a>
</g>
</g>
<!-- Node19 -->
<g id="Node000019" class="node">
<title>Node19</title>
<g id="a_Node000019"><a xlink:href="../../d6/dcf/class_slic3r_1_1_wipe_tower_writer.html#a24ce85423322f27f49455204f754809f" target="_top" xlink:title=" ">
<polygon fill="white" stroke="#666666" points="441,-163.17 320,-163.17 320,-132.67 441,-132.67 441,-163.17"/>
<text text-anchor="start" x="328" y="-149.67" font-family="Helvetica,sans-Serif" font-size="10.00">Slic3r::WipeTowerWriter</text>
<text text-anchor="middle" x="380.5" y="-138.42" font-family="Helvetica,sans-Serif" font-size="10.00">::set_format_Y</text>
</a>
</g>
</g>
<!-- Node2&#45;&gt;Node19 -->
<g id="edge23_Node000002_Node000019" class="edge">
<title>Node2&#45;&gt;Node19</title>
<g id="a_edge23_Node000002_Node000019"><a xlink:title=" ">
<path fill="none" stroke="#63b8ff" d="M254.35,-205.26C273.06,-195.61 297.75,-183.17 320,-172.92 323.62,-171.25 327.39,-169.56 331.19,-167.89"/>
<polygon fill="#63b8ff" stroke="#63b8ff" points="332.45,-170.72 340.24,-163.54 329.67,-164.3 332.45,-170.72"/>
</a>
</g>
</g>
<!-- Node2&#45;&gt;Node20 -->
<g id="edge27_Node000002_Node000020" class="edge">
<title>Node2&#45;&gt;Node20</title>
<g id="a_edge27_Node000002_Node000020"><a xlink:title=" ">
<path fill="none" stroke="#63b8ff" d="M231.31,-205.45C244.23,-178.16 275.08,-121.88 320,-95.92 363.86,-70.56 420.59,-63.5 465.75,-62.68"/>
<polygon fill="#63b8ff" stroke="#63b8ff" points="465.69,-66.18 475.67,-62.6 465.64,-59.18 465.69,-66.18"/>
</a>
</g>
</g>
<!-- Node4 -->
<g id="Node000004" class="node">
<title>Node4</title>
<g id="a_Node000004"><a xlink:href="../../d4/df0/_array_cwise_unary_ops_8h.html#a65b7255208b30e0a3a5a0389b77465db" target="_top" xlink:title=" ">
<polygon fill="white" stroke="#666666" points="697.25,-492.54 663.25,-492.54 663.25,-473.29 697.25,-473.29 697.25,-492.54"/>
<text text-anchor="middle" x="680.25" y="-479.04" font-family="Helvetica,sans-Serif" font-size="10.00">asin</text>
</a>
</g>
</g>
<!-- Node3&#45;&gt;Node4 -->
<g id="edge3_Node000003_Node000004" class="edge">
<title>Node3&#45;&gt;Node4</title>
<g id="a_edge3_Node000003_Node000004"><a xlink:title=" ">
<path fill="none" stroke="#63b8ff" d="M564.06,-424.95C587.78,-436.89 627.44,-456.84 653.47,-469.94"/>
<polygon fill="#63b8ff" stroke="#63b8ff" points="651.54,-473.39 662.05,-474.76 654.69,-467.14 651.54,-473.39"/>
</a>
</g>
</g>
<!-- Node5 -->
<g id="Node000005" class="node">
<title>Node5</title>
<g id="a_Node000005"><a xlink:href="../../d4/df0/_array_cwise_unary_ops_8h.html#a92b03396990b0e9eea0731aa406e31a4" target="_top" xlink:title=" ">
<polygon fill="white" stroke="#666666" points="696.12,-381.54 664.38,-381.54 664.38,-362.29 696.12,-362.29 696.12,-381.54"/>
<text text-anchor="middle" x="680.25" y="-368.04" font-family="Helvetica,sans-Serif" font-size="10.00">cos</text>
</a>
</g>
</g>
<!-- Node3&#45;&gt;Node5 -->
<g id="edge4_Node000003_Node000005" class="edge">
<title>Node3&#45;&gt;Node5</title>
<g id="a_edge4_Node000003_Node000005"><a xlink:title=" ">
<path fill="none" stroke="#63b8ff" d="M568.37,-408.67C580.68,-405.38 595.83,-401.16 609.25,-396.92 624.15,-392.2 640.62,-386.36 653.83,-381.5"/>
<polygon fill="#63b8ff" stroke="#63b8ff" points="654.91,-384.46 663.07,-377.7 652.47,-377.9 654.91,-384.46"/>
</a>
</g>
</g>
<!-- Node6 -->
<g id="Node000006" class="node">
<title>Node6</title>
<g id="a_Node000006"><a xlink:href="../../d4/df0/_array_cwise_unary_ops_8h.html#a9cfb0ea58bd813510a9e2db18a5e49f0" target="_top" xlink:title=" ">
<polygon fill="white" stroke="#666666" points="694.65,-344.54 665.85,-344.54 665.85,-325.29 694.65,-325.29 694.65,-344.54"/>
<text text-anchor="middle" x="680.25" y="-331.04" font-family="Helvetica,sans-Serif" font-size="10.00">sin</text>
</a>
</g>
</g>
<!-- Node3&#45;&gt;Node6 -->
<g id="edge5_Node000003_Node000006" class="edge">
<title>Node3&#45;&gt;Node6</title>
<g id="a_edge5_Node000003_Node000006"><a xlink:title=" ">
<path fill="none" stroke="#63b8ff" d="M568.49,-411.83C581.4,-409.33 597.06,-404.86 609.25,-396.92 630.42,-383.13 625.7,-368.92 645.25,-352.92 648.49,-350.26 652.18,-347.83 655.91,-345.67"/>
<polygon fill="#63b8ff" stroke="#63b8ff" points="657.34,-348.35 664.58,-340.62 654.09,-342.15 657.34,-348.35"/>
</a>
</g>
</g>
<!-- Node7 -->
<g id="Node000007" class="node">
<title>Node7</title>
<g id="a_Node000007"><a xlink:href="../../de/db8/namespace_slic3r.html#a9f09756940b3eb2052058460bf07e4a3" target="_top" xlink:title=" ">
<polygon fill="white" stroke="#666666" points="710.38,-455.54 650.12,-455.54 650.12,-436.29 710.38,-436.29 710.38,-455.54"/>
<text text-anchor="middle" x="680.25" y="-442.04" font-family="Helvetica,sans-Serif" font-size="10.00">Slic3r::sqr</text>
</a>
</g>
</g>
<!-- Node3&#45;&gt;Node7 -->
<g id="edge6_Node000003_Node000007" class="edge">
<title>Node3&#45;&gt;Node7</title>
<g id="a_edge6_Node000003_Node000007"><a xlink:title=" ">
<path fill="none" stroke="#63b8ff" d="M568.28,-420.46C587.94,-424.97 616.11,-431.43 639.14,-436.71"/>
<polygon fill="#63b8ff" stroke="#63b8ff" points="638.11,-440.3 648.64,-439.12 639.68,-433.48 638.11,-440.3"/>
</a>
</g>
</g>
<!-- Node8 -->
<g id="Node000008" class="node">
<title>Node8</title>
<g id="a_Node000008"><a xlink:href="../../d4/df0/_array_cwise_unary_ops_8h.html#a656b9217a2fcb6de59dc8d1eb3079cc7" target="_top" xlink:title=" ">
<polygon fill="white" stroke="#666666" points="696.5,-418.54 664,-418.54 664,-399.29 696.5,-399.29 696.5,-418.54"/>
<text text-anchor="middle" x="680.25" y="-405.04" font-family="Helvetica,sans-Serif" font-size="10.00">sqrt</text>
</a>
</g>
</g>
<!-- Node3&#45;&gt;Node8 -->
<g id="edge7_Node000003_Node000008" class="edge">
<title>Node3&#45;&gt;Node8</title>
<g id="a_edge7_Node000003_Node000008"><a xlink:title=" ">
<path fill="none" stroke="#63b8ff" d="M568.28,-413.84C592.14,-412.78 628.51,-411.17 653.05,-410.08"/>
<polygon fill="#63b8ff" stroke="#63b8ff" points="652.89,-413.55 662.72,-409.61 652.58,-406.55 652.89,-413.55"/>
</a>
</g>
</g>
<!-- Node9&#45;&gt;Node10 -->
<g id="edge9_Node000009_Node000010" class="edge">
<title>Node9&#45;&gt;Node10</title>
<g id="a_edge9_Node000009_Node000010"><a xlink:title=" ">
<path fill="none" stroke="#63b8ff" d="M441.31,-331.92C451.14,-331.92 461.4,-331.92 471.46,-331.92"/>
<polygon fill="#63b8ff" stroke="#63b8ff" points="471.26,-335.42 481.26,-331.92 471.26,-328.42 471.26,-335.42"/>
</a>
</g>
</g>
<!-- Node10&#45;&gt;Node5 -->
<g id="edge12_Node000010_Node000005" class="edge">
<title>Node10&#45;&gt;Node5</title>
<g id="a_edge12_Node000010_Node000005"><a xlink:title=" ">
<path fill="none" stroke="#63b8ff" d="M597.14,-347.61C616.73,-353.41 638.02,-359.71 654.02,-364.45"/>
<polygon fill="#63b8ff" stroke="#63b8ff" points="652.58,-367.97 663.16,-367.45 654.56,-361.25 652.58,-367.97"/>
</a>
</g>
</g>
<!-- Node10&#45;&gt;Node6 -->
<g id="edge13_Node000010_Node000006" class="edge">
<title>Node10&#45;&gt;Node6</title>
<g id="a_edge13_Node000010_Node000006"><a xlink:title=" ">
<path fill="none" stroke="#63b8ff" d="M603.79,-333.24C621.68,-333.64 640.33,-334.05 654.61,-334.37"/>
<polygon fill="#63b8ff" stroke="#63b8ff" points="654.39,-337.89 664.46,-334.61 654.54,-330.89 654.39,-337.89"/>
</a>
</g>
</g>
<!-- Node11 -->
<g id="Node000011" class="node">
<title>Node11</title>
<g id="a_Node000011"><a xlink:href="../../de/db8/namespace_slic3r.html#a7927d0ca1b31b8f9284ea268b11d27d5" target="_top" xlink:title=" ">
<polygon fill="white" stroke="#666666" points="715.25,-307.54 645.25,-307.54 645.25,-288.29 715.25,-288.29 715.25,-307.54"/>
<text text-anchor="middle" x="680.25" y="-294.04" font-family="Helvetica,sans-Serif" font-size="10.00">Slic3r::angle</text>
</a>
</g>
</g>
<!-- Node10&#45;&gt;Node11 -->
<g id="edge10_Node000010_Node000011" class="edge">
<title>Node10&#45;&gt;Node11</title>
<g id="a_edge10_Node000010_Node000011"><a xlink:title=" ">
<path fill="none" stroke="#63b8ff" d="M603.79,-316.9C614.17,-314.29 624.81,-311.62 634.7,-309.13"/>
<polygon fill="#63b8ff" stroke="#63b8ff" points="635.24,-312.35 644.09,-306.51 633.53,-305.56 635.24,-312.35"/>
</a>
</g>
</g>
<!-- Node12 -->
<g id="Node000012" class="node">
<title>Node12</title>
<g id="a_Node000012"><a xlink:href="../../de/db8/namespace_slic3r.html#a2cd973ab8e7af30bd57721dfc2859b8f" target="_top" xlink:title=" ">
<polygon fill="white" stroke="#666666" points="827.25,-307.54 751.25,-307.54 751.25,-288.29 827.25,-288.29 827.25,-307.54"/>
<text text-anchor="middle" x="789.25" y="-294.04" font-family="Helvetica,sans-Serif" font-size="10.00">Slic3r::cross2</text>
</a>
</g>
</g>
<!-- Node11&#45;&gt;Node12 -->
<g id="edge11_Node000011_Node000012" class="edge">
<title>Node11&#45;&gt;Node12</title>
<g id="a_edge11_Node000011_Node000012"><a xlink:title=" ">
<path fill="none" stroke="#63b8ff" d="M715.69,-297.92C723.42,-297.92 731.76,-297.92 739.94,-297.92"/>
<polygon fill="#63b8ff" stroke="#63b8ff" points="739.91,-301.42 749.91,-297.92 739.91,-294.42 739.91,-301.42"/>
</a>
</g>
</g>
<!-- Node14 -->
<g id="Node000014" class="node">
<title>Node14</title>
<g id="a_Node000014"><a xlink:href="../../de/db8/namespace_slic3r.html#a95d4899dcbd269aa89e4943ed1eb7ae9" target="_top" xlink:title=" ">
<polygon fill="white" stroke="#666666" points="597.25,-212.17 489,-212.17 489,-181.67 597.25,-181.67 597.25,-212.17"/>
<text text-anchor="start" x="497" y="-198.67" font-family="Helvetica,sans-Serif" font-size="10.00">Slic3r::float_to_string</text>
<text text-anchor="middle" x="543.12" y="-187.42" font-family="Helvetica,sans-Serif" font-size="10.00">_decimal_point</text>
</a>
</g>
</g>
<!-- Node13&#45;&gt;Node14 -->
<g id="edge16_Node000013_Node000014" class="edge">
<title>Node13&#45;&gt;Node14</title>
<g id="a_edge16_Node000013_Node000014"><a xlink:title=" ">
<path fill="none" stroke="#63b8ff" d="M432.76,-230.28C447.9,-225.66 464.63,-220.56 480.36,-215.76"/>
<polygon fill="#63b8ff" stroke="#63b8ff" points="480.98,-218.92 489.52,-212.66 478.93,-212.23 480.98,-218.92"/>
</a>
</g>
</g>
<!-- Node15&#45;&gt;Node3 -->
<g id="edge18_Node000015_Node000003" class="edge">
<title>Node15&#45;&gt;Node3</title>
<g id="a_edge18_Node000015_Node000003"><a xlink:title=" ">
<path fill="none" stroke="#63b8ff" d="M441.31,-393.58C463.53,-398.28 487.99,-403.46 507.26,-407.54"/>
<polygon fill="#63b8ff" stroke="#63b8ff" points="506.43,-411.15 516.94,-409.8 507.88,-404.3 506.43,-411.15"/>
</a>
</g>
</g>
<!-- Node16 -->
<g id="Node000016" class="node">
<title>Node16</title>
<g id="a_Node000016"><a xlink:href="../../d4/df0/_array_cwise_unary_ops_8h.html#a3230e10964844c34fb73eaccc84dc8a7" target="_top" xlink:title=" ">
<polygon fill="white" stroke="#666666" points="560.5,-387.54 525.75,-387.54 525.75,-368.29 560.5,-368.29 560.5,-387.54"/>
<text text-anchor="middle" x="543.12" y="-374.04" font-family="Helvetica,sans-Serif" font-size="10.00">floor</text>
</a>
</g>
</g>
<!-- Node15&#45;&gt;Node16 -->
<g id="edge19_Node000015_Node000016" class="edge">
<title>Node15&#45;&gt;Node16</title>
<g id="a_edge19_Node000015_Node000016"><a xlink:title=" ">
<path fill="none" stroke="#63b8ff" d="M441.31,-379.8C466.51,-379.33 494.6,-378.8 514.72,-378.43"/>
<polygon fill="#63b8ff" stroke="#63b8ff" points="514.62,-381.91 524.55,-378.23 514.49,-374.91 514.62,-381.91"/>
</a>
</g>
</g>
<!-- Node17&#45;&gt;Node14 -->
<g id="edge21_Node000017_Node000014" class="edge">
<title>Node17&#45;&gt;Node14</title>
<g id="a_edge21_Node000017_Node000014"><a xlink:title=" ">
<path fill="none" stroke="#63b8ff" d="M441.31,-196.92C453.19,-196.92 465.72,-196.92 477.74,-196.92"/>
<polygon fill="#63b8ff" stroke="#63b8ff" points="477.62,-200.42 487.62,-196.92 477.62,-193.42 477.62,-200.42"/>
</a>
</g>
</g>
<!-- Node17&#45;&gt;Node18 -->
<g id="edge22_Node000017_Node000018" class="edge">
<title>Node17&#45;&gt;Node18</title>
<g id="a_edge22_Node000017_Node000018"><a xlink:title=" ">
<path fill="none" stroke="#63b8ff" d="M421.67,-181.25C428.23,-178.35 434.88,-175.19 441,-171.92 469.53,-156.64 500.25,-135.57 520.24,-121.16"/>
<polygon fill="#63b8ff" stroke="#63b8ff" points="521.86,-123.58 527.89,-114.86 517.74,-117.92 521.86,-123.58"/>
</a>
</g>
</g>
<!-- Node19&#45;&gt;Node14 -->
<g id="edge24_Node000019_Node000014" class="edge">
<title>Node19&#45;&gt;Node14</title>
<g id="a_edge24_Node000019_Node000014"><a xlink:title=" ">
<path fill="none" stroke="#63b8ff" d="M432.76,-163.56C447.9,-168.17 464.63,-173.28 480.36,-178.07"/>
<polygon fill="#63b8ff" stroke="#63b8ff" points="478.93,-181.6 489.52,-181.17 480.98,-174.91 478.93,-181.6"/>
</a>
</g>
</g>
<!-- Node19&#45;&gt;Node20 -->
<g id="edge25_Node000019_Node000020" class="edge">
<title>Node19&#45;&gt;Node20</title>
<g id="a_edge25_Node000019_Node000020"><a xlink:title=" ">
<path fill="none" stroke="#63b8ff" d="M401.72,-132.27C420.39,-118.46 449.33,-98.6 477,-85.92 481.33,-83.93 485.92,-82.1 490.58,-80.42"/>
<polygon fill="#63b8ff" stroke="#63b8ff" points="491.44,-83.49 499.81,-76.99 489.22,-76.85 491.44,-83.49"/>
</a>
</g>
</g>
</g>
</svg>
