<?xml version="1.0" encoding="UTF-8" standalone="no"?>
<!DOCTYPE svg PUBLIC "-//W3C//DTD SVG 1.1//EN"
 "http://www.w3.org/Graphics/SVG/1.1/DTD/svg11.dtd">
<!-- Generated by graphviz version 8.0.5 (20230430.1635)
 -->
<!-- Title: src/libigl/igl/embree/EmbreeIntersector.h Pages: 1 -->
<svg width="728pt" height="149pt"
 viewBox="0.00 0.00 727.50 149.00" xmlns="http://www.w3.org/2000/svg" xmlns:xlink="http://www.w3.org/1999/xlink">
<g id="graph0" class="graph" transform="scale(1 1) rotate(0) translate(4 145)">
<title>src/libigl/igl/embree/EmbreeIntersector.h</title>
<!-- Node1 -->
<g id="Node000001" class="node">
<title>Node1</title>
<g id="a_Node000001"><a xlink:title=" ">
<polygon fill="#999999" stroke="#666666" points="407.38,-141 300.62,-141 300.62,-110.5 407.38,-110.5 407.38,-141"/>
<text text-anchor="start" x="308.62" y="-127.5" font-family="Helvetica,sans-Serif" font-size="10.00">src/libigl/igl/embree</text>
<text text-anchor="middle" x="354" y="-116.25" font-family="Helvetica,sans-Serif" font-size="10.00">/EmbreeIntersector.h</text>
</a>
</g>
</g>
<!-- Node2 -->
<g id="Node000002" class="node">
<title>Node2</title>
<g id="a_Node000002"><a xlink:href="../../d9/d4a/_hit_8h.html" target="_top" xlink:title=" ">
<polygon fill="white" stroke="#666666" points="46,-74.5 0,-74.5 0,-55.25 46,-55.25 46,-74.5"/>
<text text-anchor="middle" x="23" y="-61" font-family="Helvetica,sans-Serif" font-size="10.00">../Hit.h</text>
</a>
</g>
</g>
<!-- Node1&#45;&gt;Node2 -->
<g id="edge1_Node000001_Node000002" class="edge">
<title>Node1&#45;&gt;Node2</title>
<g id="a_edge1_Node000001_Node000002"><a xlink:title=" ">
<path fill="none" stroke="#63b8ff" d="M300.23,-117.32C242.43,-108.97 147.67,-94.25 57.09,-74.78"/>
<polygon fill="#63b8ff" stroke="#63b8ff" points="57.87,-71.15 47.35,-72.45 56.38,-77.99 57.87,-71.15"/>
</a>
</g>
</g>
<!-- Node3 -->
<g id="Node000003" class="node">
<title>Node3</title>
<g id="a_Node000003"><a xlink:title=" ">
<polygon fill="#e0e0e0" stroke="#999999" points="150.25,-74.5 63.75,-74.5 63.75,-55.25 150.25,-55.25 150.25,-74.5"/>
<text text-anchor="middle" x="107" y="-61" font-family="Helvetica,sans-Serif" font-size="10.00">Eigen/Geometry</text>
</a>
</g>
</g>
<!-- Node1&#45;&gt;Node3 -->
<g id="edge2_Node000001_Node000003" class="edge">
<title>Node1&#45;&gt;Node3</title>
<g id="a_edge2_Node000001_Node000003"><a xlink:title=" ">
<path fill="none" stroke="#63b8ff" d="M300.4,-111.98C257.33,-101.71 197.34,-87.41 155.64,-77.47"/>
<polygon fill="#63b8ff" stroke="#63b8ff" points="156.73,-73.89 146.19,-74.98 155.11,-80.7 156.73,-73.89"/>
</a>
</g>
</g>
<!-- Node4 -->
<g id="Node000004" class="node">
<title>Node4</title>
<g id="a_Node000004"><a xlink:title=" ">
<polygon fill="#e0e0e0" stroke="#999999" points="233.38,-74.5 168.62,-74.5 168.62,-55.25 233.38,-55.25 233.38,-74.5"/>
<text text-anchor="middle" x="201" y="-61" font-family="Helvetica,sans-Serif" font-size="10.00">Eigen/Core</text>
</a>
</g>
</g>
<!-- Node1&#45;&gt;Node4 -->
<g id="edge3_Node000001_Node000004" class="edge">
<title>Node1&#45;&gt;Node4</title>
<g id="a_edge3_Node000001_Node000004"><a xlink:title=" ">
<path fill="none" stroke="#63b8ff" d="M315.79,-110.05C290.81,-100.43 258.49,-88 234.51,-78.77"/>
<polygon fill="#63b8ff" stroke="#63b8ff" points="236.05,-75.23 225.46,-74.9 233.54,-81.76 236.05,-75.23"/>
</a>
</g>
</g>
<!-- Node5 -->
<g id="Node000005" class="node">
<title>Node5</title>
<g id="a_Node000005"><a xlink:href="../../df/d23/rtcore_8h.html" target="_top" xlink:title=" ">
<polygon fill="white" stroke="#666666" points="340.75,-74.5 251.25,-74.5 251.25,-55.25 340.75,-55.25 340.75,-74.5"/>
<text text-anchor="middle" x="296" y="-61" font-family="Helvetica,sans-Serif" font-size="10.00">embree2/rtcore.h</text>
</a>
</g>
</g>
<!-- Node1&#45;&gt;Node5 -->
<g id="edge4_Node000001_Node000005" class="edge">
<title>Node1&#45;&gt;Node5</title>
<g id="a_edge4_Node000001_Node000005"><a xlink:title=" ">
<path fill="none" stroke="#63b8ff" d="M339.66,-110.2C331.43,-101.84 321.05,-91.3 312.48,-82.6"/>
<polygon fill="#63b8ff" stroke="#63b8ff" points="315.45,-80.62 305.94,-75.95 310.47,-85.53 315.45,-80.62"/>
</a>
</g>
</g>
<!-- Node11 -->
<g id="Node000011" class="node">
<title>Node11</title>
<g id="a_Node000011"><a xlink:href="../../d2/db2/rtcore__ray_8h.html" target="_top" xlink:title=" ">
<polygon fill="white" stroke="#666666" points="465.38,-74.5 358.62,-74.5 358.62,-55.25 465.38,-55.25 465.38,-74.5"/>
<text text-anchor="middle" x="412" y="-61" font-family="Helvetica,sans-Serif" font-size="10.00">embree2/rtcore_ray.h</text>
</a>
</g>
</g>
<!-- Node1&#45;&gt;Node11 -->
<g id="edge10_Node000001_Node000011" class="edge">
<title>Node1&#45;&gt;Node11</title>
<g id="a_edge10_Node000001_Node000011"><a xlink:title=" ">
<path fill="none" stroke="#63b8ff" d="M368.34,-110.2C376.57,-101.84 386.95,-91.3 395.52,-82.6"/>
<polygon fill="#63b8ff" stroke="#63b8ff" points="397.53,-85.53 402.06,-75.95 392.55,-80.62 397.53,-85.53"/>
</a>
</g>
</g>
<!-- Node12 -->
<g id="Node000012" class="node">
<title>Node12</title>
<g id="a_Node000012"><a xlink:title=" ">
<polygon fill="#e0e0e0" stroke="#999999" points="536.75,-74.5 483.25,-74.5 483.25,-55.25 536.75,-55.25 536.75,-74.5"/>
<text text-anchor="middle" x="510" y="-61" font-family="Helvetica,sans-Serif" font-size="10.00">iostream</text>
</a>
</g>
</g>
<!-- Node1&#45;&gt;Node12 -->
<g id="edge11_Node000001_Node000012" class="edge">
<title>Node1&#45;&gt;Node12</title>
<g id="a_edge11_Node000001_Node000012"><a xlink:title=" ">
<path fill="none" stroke="#63b8ff" d="M392.96,-110.05C418.43,-100.43 451.39,-88 475.83,-78.77"/>
<polygon fill="#63b8ff" stroke="#63b8ff" points="476.96,-81.71 485.08,-74.9 474.48,-75.16 476.96,-81.71"/>
</a>
</g>
</g>
<!-- Node13 -->
<g id="Node000013" class="node">
<title>Node13</title>
<g id="a_Node000013"><a xlink:title=" ">
<polygon fill="#e0e0e0" stroke="#999999" points="597.5,-74.5 554.5,-74.5 554.5,-55.25 597.5,-55.25 597.5,-74.5"/>
<text text-anchor="middle" x="576" y="-61" font-family="Helvetica,sans-Serif" font-size="10.00">vector</text>
</a>
</g>
</g>
<!-- Node1&#45;&gt;Node13 -->
<g id="edge12_Node000001_Node000013" class="edge">
<title>Node1&#45;&gt;Node13</title>
<g id="a_edge12_Node000001_Node000013"><a xlink:title=" ">
<path fill="none" stroke="#63b8ff" d="M407.47,-111.12C443.56,-101.84 492.51,-89.09 543.5,-75.15"/>
<polygon fill="#63b8ff" stroke="#63b8ff" points="544.34,-78.27 553.06,-72.25 542.49,-71.52 544.34,-78.27"/>
</a>
</g>
</g>
<!-- Node14 -->
<g id="Node000014" class="node">
<title>Node14</title>
<g id="a_Node000014"><a xlink:href="../../d1/da9/_e_p_s_8h.html" target="_top" xlink:title=" ">
<polygon fill="white" stroke="#666666" points="704.62,-74.5 647.38,-74.5 647.38,-55.25 704.62,-55.25 704.62,-74.5"/>
<text text-anchor="middle" x="676" y="-61" font-family="Helvetica,sans-Serif" font-size="10.00">igl/EPS.h</text>
</a>
</g>
</g>
<!-- Node1&#45;&gt;Node14 -->
<g id="edge13_Node000001_Node000014" class="edge">
<title>Node1&#45;&gt;Node14</title>
<g id="a_edge13_Node000001_Node000014"><a xlink:title=" ">
<path fill="none" stroke="#63b8ff" d="M407.53,-114.96C472.05,-103.17 578.93,-83.62 636.45,-73.11"/>
<polygon fill="#63b8ff" stroke="#63b8ff" points="636.72,-76.43 645.93,-71.19 635.46,-69.55 636.72,-76.43"/>
</a>
</g>
</g>
<!-- Node6 -->
<g id="Node000006" class="node">
<title>Node6</title>
<g id="a_Node000006"><a xlink:title=" ">
<polygon fill="#e0e0e0" stroke="#999999" points="135.62,-19.25 84.38,-19.25 84.38,0 135.62,0 135.62,-19.25"/>
<text text-anchor="middle" x="110" y="-5.75" font-family="Helvetica,sans-Serif" font-size="10.00">stddef.h</text>
</a>
</g>
</g>
<!-- Node5&#45;&gt;Node6 -->
<g id="edge5_Node000005_Node000006" class="edge">
<title>Node5&#45;&gt;Node6</title>
<g id="a_edge5_Node000005_Node000006"><a xlink:title=" ">
<path fill="none" stroke="#63b8ff" d="M264.45,-54.84C231.81,-45.5 180.89,-30.92 146.53,-21.08"/>
<polygon fill="#63b8ff" stroke="#63b8ff" points="147.57,-17.45 137,-18.07 145.65,-24.18 147.57,-17.45"/>
</a>
</g>
</g>
<!-- Node7 -->
<g id="Node000007" class="node">
<title>Node7</title>
<g id="a_Node000007"><a xlink:title=" ">
<polygon fill="#e0e0e0" stroke="#999999" points="220.5,-19.25 153.5,-19.25 153.5,0 220.5,0 220.5,-19.25"/>
<text text-anchor="middle" x="187" y="-5.75" font-family="Helvetica,sans-Serif" font-size="10.00">sys/types.h</text>
</a>
</g>
</g>
<!-- Node5&#45;&gt;Node7 -->
<g id="edge6_Node000005_Node000007" class="edge">
<title>Node5&#45;&gt;Node7</title>
<g id="a_edge6_Node000005_Node000007"><a xlink:title=" ">
<path fill="none" stroke="#63b8ff" d="M277.51,-54.84C260.44,-46.5 234.84,-34 215.22,-24.41"/>
<polygon fill="#63b8ff" stroke="#63b8ff" points="217.1,-20.95 206.58,-19.7 214.03,-27.24 217.1,-20.95"/>
</a>
</g>
</g>
<!-- Node8 -->
<g id="Node000008" class="node">
<title>Node8</title>
<g id="a_Node000008"><a xlink:href="../../d0/d74/rtcore__scene_8h.html" target="_top" xlink:title=" ">
<polygon fill="white" stroke="#666666" points="319.25,-19.25 238.75,-19.25 238.75,0 319.25,0 319.25,-19.25"/>
<text text-anchor="middle" x="279" y="-5.75" font-family="Helvetica,sans-Serif" font-size="10.00">rtcore_scene.h</text>
</a>
</g>
</g>
<!-- Node5&#45;&gt;Node8 -->
<g id="edge7_Node000005_Node000008" class="edge">
<title>Node5&#45;&gt;Node8</title>
<g id="a_edge7_Node000005_Node000008"><a xlink:title=" ">
<path fill="none" stroke="#63b8ff" d="M293.19,-55.08C291.02,-48.26 287.92,-38.56 285.17,-29.95"/>
<polygon fill="#63b8ff" stroke="#63b8ff" points="288.24,-29.07 281.87,-20.61 281.58,-31.2 288.24,-29.07"/>
</a>
</g>
</g>
<!-- Node9 -->
<g id="Node000009" class="node">
<title>Node9</title>
<g id="a_Node000009"><a xlink:href="../../d3/d3e/rtcore__geometry_8h.html" target="_top" xlink:title=" ">
<polygon fill="white" stroke="#666666" points="430.62,-19.25 337.38,-19.25 337.38,0 430.62,0 430.62,-19.25"/>
<text text-anchor="middle" x="384" y="-5.75" font-family="Helvetica,sans-Serif" font-size="10.00">rtcore_geometry.h</text>
</a>
</g>
</g>
<!-- Node5&#45;&gt;Node9 -->
<g id="edge8_Node000005_Node000009" class="edge">
<title>Node5&#45;&gt;Node9</title>
<g id="a_edge8_Node000005_Node000009"><a xlink:title=" ">
<path fill="none" stroke="#63b8ff" d="M310.93,-54.84C324.33,-46.73 344.24,-34.68 359.9,-25.21"/>
<polygon fill="#63b8ff" stroke="#63b8ff" points="361.26,-27.87 368,-19.7 357.63,-21.89 361.26,-27.87"/>
</a>
</g>
</g>
<!-- Node10 -->
<g id="Node000010" class="node">
<title>Node10</title>
<g id="a_Node000010"><a xlink:href="../../d9/d01/rtcore__geometry__user_8h.html" target="_top" xlink:title=" ">
<polygon fill="white" stroke="#666666" points="567,-19.25 449,-19.25 449,0 567,0 567,-19.25"/>
<text text-anchor="middle" x="508" y="-5.75" font-family="Helvetica,sans-Serif" font-size="10.00">rtcore_geometry_user.h</text>
</a>
</g>
</g>
<!-- Node5&#45;&gt;Node10 -->
<g id="edge9_Node000005_Node000010" class="edge">
<title>Node5&#45;&gt;Node10</title>
<g id="a_edge9_Node000005_Node000010"><a xlink:title=" ">
<path fill="none" stroke="#63b8ff" d="M331.96,-54.84C367.6,-45.89 422.34,-32.14 461.32,-22.35"/>
<polygon fill="#63b8ff" stroke="#63b8ff" points="462.01,-25.53 470.86,-19.7 460.31,-18.74 462.01,-25.53"/>
</a>
</g>
</g>
<!-- Node15 -->
<g id="Node000015" class="node">
<title>Node15</title>
<g id="a_Node000015"><a xlink:href="../../d6/d68/igl__inline_8h.html" target="_top" xlink:title=" ">
<polygon fill="white" stroke="#666666" points="646.88,-19.25 585.12,-19.25 585.12,0 646.88,0 646.88,-19.25"/>
<text text-anchor="middle" x="616" y="-5.75" font-family="Helvetica,sans-Serif" font-size="10.00">igl_inline.h</text>
</a>
</g>
</g>
<!-- Node14&#45;&gt;Node15 -->
<g id="edge14_Node000014_Node000015" class="edge">
<title>Node14&#45;&gt;Node15</title>
<g id="a_edge14_Node000014_Node000015"><a xlink:title=" ">
<path fill="none" stroke="#63b8ff" d="M665.82,-54.84C657.15,-47.15 644.48,-35.9 634.08,-26.68"/>
<polygon fill="#63b8ff" stroke="#63b8ff" points="636.83,-24.54 627.03,-20.52 632.18,-29.78 636.83,-24.54"/>
</a>
</g>
</g>
<!-- Node16 -->
<g id="Node000016" class="node">
<title>Node16</title>
<g id="a_Node000016"><a xlink:href="../../d3/d1e/_e_p_s_8cpp.html" target="_top" xlink:title=" ">
<polygon fill="white" stroke="#666666" points="719.5,-19.25 664.5,-19.25 664.5,0 719.5,0 719.5,-19.25"/>
<text text-anchor="middle" x="692" y="-5.75" font-family="Helvetica,sans-Serif" font-size="10.00">EPS.cpp</text>
</a>
</g>
</g>
<!-- Node14&#45;&gt;Node16 -->
<g id="edge15_Node000014_Node000016" class="edge">
<title>Node14&#45;&gt;Node16</title>
<g id="a_edge15_Node000014_Node000016"><a xlink:title=" ">
<path fill="none" stroke="#63b8ff" d="M673.48,-55.08C674.07,-48.19 676.59,-38.34 679.78,-29.66"/>
<polygon fill="#63b8ff" stroke="#63b8ff" points="683.37,-31.18 684.09,-20.61 676.93,-28.42 683.37,-31.18"/>
</a>
</g>
</g>
<!-- Node16&#45;&gt;Node14 -->
<g id="edge16_Node000016_Node000014" class="edge">
<title>Node16&#45;&gt;Node14</title>
<g id="a_edge16_Node000016_Node000014"><a xlink:title=" ">
<path fill="none" stroke="#63b8ff" d="M694.51,-19.61C693.88,-26.56 691.34,-36.42 688.13,-45.08"/>
<polygon fill="#63b8ff" stroke="#63b8ff" points="684.56,-43.51 683.81,-54.08 690.99,-46.29 684.56,-43.51"/>
</a>
</g>
</g>
</g>
</svg>
