<?xml version="1.0" encoding="UTF-8" standalone="no"?>
<!DOCTYPE svg PUBLIC "-//W3C//DTD SVG 1.1//EN"
 "http://www.w3.org/Graphics/SVG/1.1/DTD/svg11.dtd">
<!-- Generated by graphviz version 8.0.5 (20230430.1635)
 -->
<!-- Title: Eigen::JacobiSVD::rows Pages: 1 -->
<svg width="381pt" height="482pt"
 viewBox="0.00 0.00 380.50 482.25" xmlns="http://www.w3.org/2000/svg" xmlns:xlink="http://www.w3.org/1999/xlink">
<g id="graph0" class="graph" transform="scale(1 1) rotate(0) translate(4 478.25)">
<title>Eigen::JacobiSVD::rows</title>
<!-- Node1 -->
<g id="Node000001" class="node">
<title>Node1</title>
<g id="a_Node000001"><a xlink:title=" ">
<polygon fill="#999999" stroke="#666666" points="372.5,-246.75 249.25,-246.75 249.25,-227.5 372.5,-227.5 372.5,-246.75"/>
<text text-anchor="middle" x="310.88" y="-233.25" font-family="Helvetica,sans-Serif" font-size="10.00">Eigen::JacobiSVD::rows</text>
</a>
</g>
</g>
<!-- Node2 -->
<g id="Node000002" class="node">
<title>Node2</title>
<g id="a_Node000002"><a xlink:href="../../d1/dd6/class_eigen_1_1internal_1_1qr__preconditioner__impl_3_01_matrix_type_00_01_col_piv_householder_q4429b16903ed71549d5aafc43959c2c2.html#a528c2a55d53add25075f8ae1adda891a" target="_top" xlink:title=" ">
<polygon fill="white" stroke="#666666" points="196.75,-474.25 16.5,-474.25 16.5,-410 196.75,-410 196.75,-474.25"/>
<text text-anchor="start" x="24.5" y="-460.75" font-family="Helvetica,sans-Serif" font-size="10.00">Eigen::internal::qr</text>
<text text-anchor="start" x="24.5" y="-449.5" font-family="Helvetica,sans-Serif" font-size="10.00">_preconditioner_impl</text>
<text text-anchor="start" x="24.5" y="-438.25" font-family="Helvetica,sans-Serif" font-size="10.00">&lt; MatrixType, ColPivHouseholder</text>
<text text-anchor="start" x="24.5" y="-427" font-family="Helvetica,sans-Serif" font-size="10.00">QRPreconditioner, PreconditionIfMore</text>
<text text-anchor="middle" x="106.63" y="-415.75" font-family="Helvetica,sans-Serif" font-size="10.00">RowsThanCols, true &gt;::allocate</text>
</a>
</g>
</g>
<!-- Node1&#45;&gt;Node2 -->
<g id="edge1_Node000001_Node000002" class="edge">
<title>Node1&#45;&gt;Node2</title>
<g id="a_edge1_Node000001_Node000002"><a xlink:title=" ">
<path fill="none" stroke="#63b8ff" d="M303.02,-257.3C290.44,-291.48 260.54,-360.95 213.25,-401.12 208.3,-405.33 202.88,-409.13 197.18,-412.56"/>
<polygon fill="#63b8ff" stroke="#63b8ff" points="306.57,-258.75 306.62,-248.16 299.98,-256.41 306.57,-258.75"/>
</a>
</g>
</g>
<!-- Node3 -->
<g id="Node000003" class="node">
<title>Node3</title>
<g id="a_Node000003"><a xlink:href="../../d0/d93/class_eigen_1_1internal_1_1qr__preconditioner__impl_3_01_matrix_type_00_01_col_piv_householder_q9febbd0c27c13f65b619ca11d9f35cb8.html#ab4cbdc0bda98095ba9bbae49ea1d550d" target="_top" xlink:title=" ">
<polygon fill="white" stroke="#666666" points="196.75,-392.25 16.5,-392.25 16.5,-328 196.75,-328 196.75,-392.25"/>
<text text-anchor="start" x="24.5" y="-378.75" font-family="Helvetica,sans-Serif" font-size="10.00">Eigen::internal::qr</text>
<text text-anchor="start" x="24.5" y="-367.5" font-family="Helvetica,sans-Serif" font-size="10.00">_preconditioner_impl</text>
<text text-anchor="start" x="24.5" y="-356.25" font-family="Helvetica,sans-Serif" font-size="10.00">&lt; MatrixType, ColPivHouseholder</text>
<text text-anchor="start" x="24.5" y="-345" font-family="Helvetica,sans-Serif" font-size="10.00">QRPreconditioner, PreconditionIfMore</text>
<text text-anchor="middle" x="106.63" y="-333.75" font-family="Helvetica,sans-Serif" font-size="10.00">ColsThanRows, true &gt;::allocate</text>
</a>
</g>
</g>
<!-- Node1&#45;&gt;Node3 -->
<g id="edge2_Node000001_Node000003" class="edge">
<title>Node1&#45;&gt;Node3</title>
<g id="a_edge2_Node000001_Node000003"><a xlink:title=" ">
<path fill="none" stroke="#63b8ff" d="M292.8,-254.74C274.5,-272.84 243.91,-300.87 213.25,-319.12 208.09,-322.19 202.67,-325.11 197.11,-327.88"/>
<polygon fill="#63b8ff" stroke="#63b8ff" points="294.74,-257.76 299.31,-248.2 289.77,-252.82 294.74,-257.76"/>
</a>
</g>
</g>
<!-- Node4 -->
<g id="Node000004" class="node">
<title>Node4</title>
<g id="a_Node000004"><a xlink:href="../../dd/d7b/class_eigen_1_1internal_1_1qr__preconditioner__impl_3_01_matrix_type_00_01_full_piv_householder_b68efcf0da0383d73ce7fb20aafa2293.html#aaf51bc2637a96e8069128f3ee9eb1726" target="_top" xlink:title=" ">
<polygon fill="white" stroke="#666666" points="196.75,-310.25 16.5,-310.25 16.5,-246 196.75,-246 196.75,-310.25"/>
<text text-anchor="start" x="24.5" y="-296.75" font-family="Helvetica,sans-Serif" font-size="10.00">Eigen::internal::qr</text>
<text text-anchor="start" x="24.5" y="-285.5" font-family="Helvetica,sans-Serif" font-size="10.00">_preconditioner_impl</text>
<text text-anchor="start" x="24.5" y="-274.25" font-family="Helvetica,sans-Serif" font-size="10.00">&lt; MatrixType, FullPivHouseholder</text>
<text text-anchor="start" x="24.5" y="-263" font-family="Helvetica,sans-Serif" font-size="10.00">QRPreconditioner, PreconditionIfMore</text>
<text text-anchor="middle" x="106.63" y="-251.75" font-family="Helvetica,sans-Serif" font-size="10.00">RowsThanCols, true &gt;::allocate</text>
</a>
</g>
</g>
<!-- Node1&#45;&gt;Node4 -->
<g id="edge3_Node000001_Node000004" class="edge">
<title>Node1&#45;&gt;Node4</title>
<g id="a_edge3_Node000001_Node000004"><a xlink:title=" ">
<path fill="none" stroke="#63b8ff" d="M249.56,-249.35C233.05,-252.7 214.8,-256.4 197.03,-260"/>
<polygon fill="#63b8ff" stroke="#63b8ff" points="250.03,-252.62 259.14,-247.21 248.64,-245.76 250.03,-252.62"/>
</a>
</g>
</g>
<!-- Node5 -->
<g id="Node000005" class="node">
<title>Node5</title>
<g id="a_Node000005"><a xlink:href="../../df/dc8/class_eigen_1_1internal_1_1qr__preconditioner__impl_3_01_matrix_type_00_01_full_piv_householder_0bfd000ff4c8127883e77da4144b4435.html#a42354f06b00258ab291e4d374caa5fd9" target="_top" xlink:title=" ">
<polygon fill="white" stroke="#666666" points="196.75,-228.25 16.5,-228.25 16.5,-164 196.75,-164 196.75,-228.25"/>
<text text-anchor="start" x="24.5" y="-214.75" font-family="Helvetica,sans-Serif" font-size="10.00">Eigen::internal::qr</text>
<text text-anchor="start" x="24.5" y="-203.5" font-family="Helvetica,sans-Serif" font-size="10.00">_preconditioner_impl</text>
<text text-anchor="start" x="24.5" y="-192.25" font-family="Helvetica,sans-Serif" font-size="10.00">&lt; MatrixType, FullPivHouseholder</text>
<text text-anchor="start" x="24.5" y="-181" font-family="Helvetica,sans-Serif" font-size="10.00">QRPreconditioner, PreconditionIfMore</text>
<text text-anchor="middle" x="106.63" y="-169.75" font-family="Helvetica,sans-Serif" font-size="10.00">ColsThanRows, true &gt;::allocate</text>
</a>
</g>
</g>
<!-- Node1&#45;&gt;Node5 -->
<g id="edge4_Node000001_Node000005" class="edge">
<title>Node1&#45;&gt;Node5</title>
<g id="a_edge4_Node000001_Node000005"><a xlink:title=" ">
<path fill="none" stroke="#63b8ff" d="M249.56,-224.9C233.05,-221.55 214.8,-217.85 197.03,-214.25"/>
<polygon fill="#63b8ff" stroke="#63b8ff" points="248.64,-228.49 259.14,-227.04 250.03,-221.63 248.64,-228.49"/>
</a>
</g>
</g>
<!-- Node6 -->
<g id="Node000006" class="node">
<title>Node6</title>
<g id="a_Node000006"><a xlink:href="../../d6/dbb/class_eigen_1_1internal_1_1qr__preconditioner__impl_3_01_matrix_type_00_01_householder_q_r_preco3db9481bdea35fcb59961342158459cb.html#a6052eaee17d51283dc3251a0461f6177" target="_top" xlink:title=" ">
<polygon fill="white" stroke="#666666" points="213.25,-146.25 0,-146.25 0,-82 213.25,-82 213.25,-146.25"/>
<text text-anchor="start" x="8" y="-132.75" font-family="Helvetica,sans-Serif" font-size="10.00">Eigen::internal::qr</text>
<text text-anchor="start" x="8" y="-121.5" font-family="Helvetica,sans-Serif" font-size="10.00">_preconditioner_impl</text>
<text text-anchor="start" x="8" y="-110.25" font-family="Helvetica,sans-Serif" font-size="10.00">&lt; MatrixType, HouseholderQRPreconditioner,</text>
<text text-anchor="start" x="8" y="-99" font-family="Helvetica,sans-Serif" font-size="10.00"> PreconditionIfMoreRowsThanCols,</text>
<text text-anchor="middle" x="106.63" y="-87.75" font-family="Helvetica,sans-Serif" font-size="10.00"> true &gt;::allocate</text>
</a>
</g>
</g>
<!-- Node1&#45;&gt;Node6 -->
<g id="edge5_Node000001_Node000006" class="edge">
<title>Node1&#45;&gt;Node6</title>
<g id="a_edge5_Node000001_Node000006"><a xlink:title=" ">
<path fill="none" stroke="#63b8ff" d="M292.8,-219.51C274.5,-201.41 243.91,-173.38 213.25,-155.12 208.26,-152.16 203.02,-149.33 197.66,-146.65"/>
<polygon fill="#63b8ff" stroke="#63b8ff" points="289.77,-221.43 299.31,-226.05 294.74,-216.49 289.77,-221.43"/>
</a>
</g>
</g>
<!-- Node7 -->
<g id="Node000007" class="node">
<title>Node7</title>
<g id="a_Node000007"><a xlink:href="../../d7/d9b/class_eigen_1_1internal_1_1qr__preconditioner__impl_3_01_matrix_type_00_01_householder_q_r_preco31667955395337fca0dd5f85cded2a6b.html#a8885f59d4a7ecc4b52c9b2f563913750" target="_top" xlink:title=" ">
<polygon fill="white" stroke="#666666" points="213.25,-64.25 0,-64.25 0,0 213.25,0 213.25,-64.25"/>
<text text-anchor="start" x="8" y="-50.75" font-family="Helvetica,sans-Serif" font-size="10.00">Eigen::internal::qr</text>
<text text-anchor="start" x="8" y="-39.5" font-family="Helvetica,sans-Serif" font-size="10.00">_preconditioner_impl</text>
<text text-anchor="start" x="8" y="-28.25" font-family="Helvetica,sans-Serif" font-size="10.00">&lt; MatrixType, HouseholderQRPreconditioner,</text>
<text text-anchor="start" x="8" y="-17" font-family="Helvetica,sans-Serif" font-size="10.00"> PreconditionIfMoreColsThanRows,</text>
<text text-anchor="middle" x="106.63" y="-5.75" font-family="Helvetica,sans-Serif" font-size="10.00"> true &gt;::allocate</text>
</a>
</g>
</g>
<!-- Node1&#45;&gt;Node7 -->
<g id="edge6_Node000001_Node000007" class="edge">
<title>Node1&#45;&gt;Node7</title>
<g id="a_edge6_Node000001_Node000007"><a xlink:title=" ">
<path fill="none" stroke="#63b8ff" d="M303.02,-216.95C290.44,-182.77 260.54,-113.3 213.25,-73.12 209.73,-70.13 205.96,-67.34 202.03,-64.75"/>
<polygon fill="#63b8ff" stroke="#63b8ff" points="299.98,-217.84 306.62,-226.09 306.57,-215.5 299.98,-217.84"/>
</a>
</g>
</g>
</g>
</svg>
