<?xml version="1.0" encoding="UTF-8" standalone="no"?>
<!DOCTYPE svg PUBLIC "-//W3C//DTD SVG 1.1//EN"
 "http://www.w3.org/Graphics/SVG/1.1/DTD/svg11.dtd">
<!-- Generated by graphviz version 8.0.5 (20230430.1635)
 -->
<!-- Title: igl::deserialize Pages: 1 -->
<svg width="246pt" height="345pt"
 viewBox="0.00 0.00 246.25 344.50" xmlns="http://www.w3.org/2000/svg" xmlns:xlink="http://www.w3.org/1999/xlink">

<svg id="main" version="1.1" xmlns="http://www.w3.org/2000/svg" xmlns:xlink="http://www.w3.org/1999/xlink" xml:space="preserve" onload="init(evt)">
<style type="text/css"><![CDATA[
.node, .edge {opacity: 0.7;}
.node.selected, .edge.selected {opacity: 1;}
.edge:hover path { stroke: red; }
.edge:hover polygon { stroke: red; fill: red; }
]]></style>
<script type="application/ecmascript" xlink:href="../../svg.min.js"/>
<svg id="graph" class="graph">
<g id="graph0" class="graph" transform="scale(1 1) rotate(0) translate(4 340.5)">
<title>igl::deserialize</title>
<!-- Node1 -->
<g id="Node000001" class="node">
<title>Node1</title>
<g id="a_Node000001"><a xlink:title=" ">
<polygon fill="#999999" stroke="#666666" points="238.25,-157.25 160,-157.25 160,-138 238.25,-138 238.25,-157.25"/>
<text text-anchor="middle" x="199.12" y="-143.75" font-family="Helvetica,sans-Serif" font-size="10.00">igl::deserialize</text>
</a>
</g>
</g>
<!-- Node1&#45;&gt;Node1 -->
<g id="edge3_Node000001_Node000001" class="edge">
<title>Node1&#45;&gt;Node1</title>
<g id="a_edge3_Node000001_Node000001"><a xlink:title=" ">
<path fill="none" stroke="#63b8ff" d="M223.94,-167.98C221.33,-172.21 213.06,-175.25 199.12,-175.25 175.02,-175.25 167.87,-166.15 177.66,-157.54"/>
<polygon fill="#63b8ff" stroke="#63b8ff" points="226.98,-166.99 220.59,-158.54 220.31,-169.13 226.98,-166.99"/>
</a>
</g>
</g>
<!-- Node2 -->
<g id="Node000002" class="node">
<title>Node2</title>
<g id="a_Node000002"><a xlink:href="../../d2/d14/structigl_1_1xml_1_1_x_m_l_serializable_1_1_x_m_l_serialization_object.html#a54d4702bda3eb96344c5da6d74156ee9" target="_top" xlink:title=" ">
<polygon fill="white" stroke="#666666" points="124,-336.5 0,-336.5 0,-294.75 124,-294.75 124,-336.5"/>
<text text-anchor="start" x="8" y="-323" font-family="Helvetica,sans-Serif" font-size="10.00">igl::xml::XMLSerializable</text>
<text text-anchor="start" x="8" y="-311.75" font-family="Helvetica,sans-Serif" font-size="10.00">::XMLSerializationObject</text>
<text text-anchor="middle" x="62" y="-300.5" font-family="Helvetica,sans-Serif" font-size="10.00">::Deserialize</text>
</a>
</g>
</g>
<!-- Node1&#45;&gt;Node2 -->
<g id="edge1_Node000001_Node000002" class="edge">
<title>Node1&#45;&gt;Node2</title>
<g id="a_edge1_Node000001_Node000002"><a xlink:title=" ">
<path fill="none" stroke="#63b8ff" d="M191.74,-167.86C181.59,-197.16 159.25,-251.62 124,-285.62 120.69,-288.82 116.97,-291.74 113.04,-294.39"/>
<polygon fill="#63b8ff" stroke="#63b8ff" points="195.3,-169.22 195.13,-158.63 188.66,-167.01 195.3,-169.22"/>
</a>
</g>
</g>
<!-- Node3 -->
<g id="Node000003" class="node">
<title>Node3</title>
<g id="a_Node000003"><a xlink:href="../../d5/d37/structigl_1_1_serializable_1_1_serialization_object.html#a01ea5943da9e345795c5b283ca8e001a" target="_top" xlink:title=" ">
<polygon fill="white" stroke="#666666" points="110.88,-276.5 13.12,-276.5 13.12,-234.75 110.88,-234.75 110.88,-276.5"/>
<text text-anchor="start" x="21.12" y="-263" font-family="Helvetica,sans-Serif" font-size="10.00">igl::Serializable::</text>
<text text-anchor="start" x="21.12" y="-251.75" font-family="Helvetica,sans-Serif" font-size="10.00">SerializationObject</text>
<text text-anchor="middle" x="62" y="-240.5" font-family="Helvetica,sans-Serif" font-size="10.00">::Deserialize</text>
</a>
</g>
</g>
<!-- Node1&#45;&gt;Node3 -->
<g id="edge2_Node000001_Node000003" class="edge">
<title>Node1&#45;&gt;Node3</title>
<g id="a_edge2_Node000001_Node000003"><a xlink:title=" ">
<path fill="none" stroke="#63b8ff" d="M183.8,-166.1C169.9,-183.14 147.49,-208.35 124,-225.62 119.82,-228.7 115.27,-231.61 110.61,-234.31"/>
<polygon fill="#63b8ff" stroke="#63b8ff" points="187.11,-168.57 190.61,-158.57 181.63,-164.21 187.11,-168.57"/>
</a>
</g>
</g>
<!-- Node4 -->
<g id="Node000004" class="node">
<title>Node4</title>
<g id="a_Node000004"><a xlink:href="../../dc/d25/namespaceigl.html#aa8dfda78a1c420b40f80b07d1c3f8b2e" target="_top" xlink:title=" ">
<polygon fill="white" stroke="#666666" points="101.12,-216.25 22.88,-216.25 22.88,-197 101.12,-197 101.12,-216.25"/>
<text text-anchor="middle" x="62" y="-202.75" font-family="Helvetica,sans-Serif" font-size="10.00">igl::deserialize</text>
</a>
</g>
</g>
<!-- Node1&#45;&gt;Node4 -->
<g id="edge4_Node000001_Node000004" class="edge">
<title>Node1&#45;&gt;Node4</title>
<g id="a_edge4_Node000001_Node000004"><a xlink:title=" ">
<path fill="none" stroke="#63b8ff" d="M173.4,-163.09C159.3,-171.44 141.09,-181.48 124,-188.62 116.87,-191.61 109.08,-194.3 101.52,-196.65"/>
<polygon fill="#63b8ff" stroke="#63b8ff" points="174.69,-165.79 181.44,-157.63 171.07,-159.8 174.69,-165.79"/>
</a>
</g>
</g>
<!-- Node5 -->
<g id="Node000005" class="node">
<title>Node5</title>
<g id="a_Node000005"><a xlink:href="../../df/da5/namespaceigl_1_1xml.html#aff0a2a7a4d6229f1516a66642369a7ab" target="_top" xlink:title=" ">
<polygon fill="white" stroke="#666666" points="122.5,-179.25 1.5,-179.25 1.5,-160 122.5,-160 122.5,-179.25"/>
<text text-anchor="middle" x="62" y="-165.75" font-family="Helvetica,sans-Serif" font-size="10.00">igl::xml::deserialize_xml</text>
</a>
</g>
</g>
<!-- Node1&#45;&gt;Node5 -->
<g id="edge5_Node000001_Node000005" class="edge">
<title>Node1&#45;&gt;Node5</title>
<g id="a_edge5_Node000001_Node000005"><a xlink:title=" ">
<path fill="none" stroke="#63b8ff" d="M148.94,-155.63C140.49,-157.01 131.62,-158.45 122.93,-159.87"/>
<polygon fill="#63b8ff" stroke="#63b8ff" points="149.46,-158.93 158.77,-153.87 148.33,-152.02 149.46,-158.93"/>
</a>
</g>
</g>
<!-- Node6 -->
<g id="Node000006" class="node">
<title>Node6</title>
<g id="a_Node000006"><a xlink:href="../../df/da0/classigl_1_1opengl_1_1glfw_1_1_viewer.html#a697184b4388aedb9741d626019e90cb5" target="_top" xlink:title=" ">
<polygon fill="white" stroke="#666666" points="112.75,-141.88 11.25,-141.88 11.25,-111.38 112.75,-111.38 112.75,-141.88"/>
<text text-anchor="start" x="19.25" y="-128.38" font-family="Helvetica,sans-Serif" font-size="10.00">igl::opengl::glfw::</text>
<text text-anchor="middle" x="62" y="-117.12" font-family="Helvetica,sans-Serif" font-size="10.00">Viewer::load_scene</text>
</a>
</g>
</g>
<!-- Node1&#45;&gt;Node6 -->
<g id="edge6_Node000001_Node000006" class="edge">
<title>Node1&#45;&gt;Node6</title>
<g id="a_edge6_Node000001_Node000006"><a xlink:title=" ">
<path fill="none" stroke="#63b8ff" d="M149.24,-140.03C137.48,-138.2 124.9,-136.24 113.08,-134.41"/>
<polygon fill="#63b8ff" stroke="#63b8ff" points="148.35,-143.59 158.77,-141.66 149.42,-136.67 148.35,-143.59"/>
</a>
</g>
</g>
<!-- Node7 -->
<g id="Node000007" class="node">
<title>Node7</title>
<g id="a_Node000007"><a xlink:href="../../dc/d25/namespaceigl.html#ad1b7a7a566f0d4a5553987d4d25aedec" target="_top" xlink:title=" ">
<polygon fill="white" stroke="#666666" points="97.38,-93.25 26.62,-93.25 26.62,-74 97.38,-74 97.38,-93.25"/>
<text text-anchor="middle" x="62" y="-79.75" font-family="Helvetica,sans-Serif" font-size="10.00">igl::serializer</text>
</a>
</g>
</g>
<!-- Node1&#45;&gt;Node7 -->
<g id="edge7_Node000001_Node000007" class="edge">
<title>Node1&#45;&gt;Node7</title>
<g id="a_edge7_Node000001_Node000007"><a xlink:title=" ">
<path fill="none" stroke="#63b8ff" d="M174.9,-131.5C160.68,-122.15 141.84,-110.67 124,-102.62 115.71,-98.88 106.47,-95.59 97.74,-92.84"/>
<polygon fill="#63b8ff" stroke="#63b8ff" points="172.68,-134.9 182.93,-137.57 176.58,-129.09 172.68,-134.9"/>
</a>
</g>
</g>
<!-- Node8 -->
<g id="Node000008" class="node">
<title>Node8</title>
<g id="a_Node000008"><a xlink:href="../../dc/d25/namespaceigl.html#a8dba28198b48a2a0432d5c4e640484e4" target="_top" xlink:title=" ">
<polygon fill="white" stroke="#666666" points="97.38,-56.25 26.62,-56.25 26.62,-37 97.38,-37 97.38,-56.25"/>
<text text-anchor="middle" x="62" y="-42.75" font-family="Helvetica,sans-Serif" font-size="10.00">igl::serializer</text>
</a>
</g>
</g>
<!-- Node1&#45;&gt;Node8 -->
<g id="edge8_Node000001_Node000008" class="edge">
<title>Node1&#45;&gt;Node8</title>
<g id="a_edge8_Node000001_Node000008"><a xlink:title=" ">
<path fill="none" stroke="#63b8ff" d="M185.92,-128.67C172.81,-109.78 150.27,-81.26 124,-64.62 116.07,-59.6 106.68,-55.93 97.68,-53.27"/>
<polygon fill="#63b8ff" stroke="#63b8ff" points="183.41,-130.21 191.89,-136.56 189.22,-126.31 183.41,-130.21"/>
</a>
</g>
</g>
<!-- Node9 -->
<g id="Node000009" class="node">
<title>Node9</title>
<g id="a_Node000009"><a xlink:href="../../dc/d25/namespaceigl.html#af28b32c6f34213f61257beff8a2927ca" target="_top" xlink:title=" ">
<polygon fill="white" stroke="#666666" points="97.38,-19.25 26.62,-19.25 26.62,0 97.38,0 97.38,-19.25"/>
<text text-anchor="middle" x="62" y="-5.75" font-family="Helvetica,sans-Serif" font-size="10.00">igl::serializer</text>
</a>
</g>
</g>
<!-- Node1&#45;&gt;Node9 -->
<g id="edge9_Node000001_Node000009" class="edge">
<title>Node1&#45;&gt;Node9</title>
<g id="a_edge9_Node000001_Node000009"><a xlink:title=" ">
<path fill="none" stroke="#63b8ff" d="M190.95,-127.4C180.41,-100.63 158.23,-53.76 124,-27.62 116.37,-21.79 106.87,-17.85 97.67,-15.18"/>
<polygon fill="#63b8ff" stroke="#63b8ff" points="187.96,-128.39 194.75,-136.52 194.51,-125.93 187.96,-128.39"/>
</a>
</g>
</g>
</g>
</svg>
</svg>

<style type='text/css'>
<![CDATA[
[data-mouse-over-selected='false'] { opacity: 0.7; }
[data-mouse-over-selected='true']  { opacity: 1.0; }
]]>
</style>
<script type="application/ecmascript"><![CDATA[
document.addEventListener('DOMContentLoaded', (event) => {
  highlightEdges();
  highlightAdjacentNodes();
});
]]></script>
</svg>
