<?xml version="1.0" encoding="UTF-8" standalone="no"?>
<!DOCTYPE svg PUBLIC "-//W3C//DTD SVG 1.1//EN"
 "http://www.w3.org/Graphics/SVG/1.1/DTD/svg11.dtd">
<!-- Generated by graphviz version 8.0.5 (20230430.1635)
 -->
<!-- Title: igl::cumsum Pages: 1 -->
<!--zoomable 186 -->

<svg id="main" version="1.1" xmlns="http://www.w3.org/2000/svg" xmlns:xlink="http://www.w3.org/1999/xlink" xml:space="preserve" onload="init(evt)">
<style type="text/css"><![CDATA[
.node, .edge {opacity: 0.7;}
.node.selected, .edge.selected {opacity: 1;}
.edge:hover path { stroke: red; }
.edge:hover polygon { stroke: red; fill: red; }
]]></style>

<defs>
  <circle id="rim" cx="0" cy="0" r="7"/>
  <circle id="rim2" cx="0" cy="0" r="3.5"/>
  <g id="zoomPlus">
    <use xlink:href="#rim" fill="#404040"><set attributeName="fill" to="#808080" begin="zoomplus.mouseover" end="zoomplus.mouseout"/></use>
    <path d="M-4,0h8M0,-4v8" fill="none" stroke="white" stroke-width="1.5" pointer-events="none"/>
  </g>
  <g id="zoomMin">
    <use xlink:href="#rim" fill="#404040"><set attributeName="fill" to="#808080" begin="zoomminus.mouseover" end="zoomminus.mouseout"/></use>
    <path d="M-4,0h8" fill="none" stroke="white" stroke-width="1.5" pointer-events="none"/>
  </g>
  <g id="arrowUp" transform="translate(30 24)">
    <use xlink:href="#rim"/>
    <path pointer-events="none" fill="none" stroke="white" stroke-width="1.5" d="M0,-3.0v7 M-2.5,-0.5L0,-3.0L2.5,-0.5"/>
  </g>
  <g id="arrowRight" transform="rotate(90) translate(36 -43)">
    <use xlink:href="#rim"/>
    <path pointer-events="none" fill="none" stroke="white" stroke-width="1.5" d="M0,-3.0v7 M-2.5,-0.5L0,-3.0L2.5,-0.5"/>
  </g>
  <g id="arrowDown" transform="rotate(180) translate(-30 -48)">
    <use xlink:href="#rim"/>
    <path pointer-events="none" fill="none" stroke="white" stroke-width="1.5" d="M0,-3.0v7 M-2.5,-0.5L0,-3.0L2.5,-0.5"/>
  </g>
  <g id="arrowLeft" transform="rotate(270) translate(-36 17)">
    <use xlink:href="#rim"/>
    <path pointer-events="none" fill="none" stroke="white" stroke-width="1.5" d="M0,-3.0v7 M-2.5,-0.5L0,-3.0L2.5,-0.5"/>
  </g>
  <g id="resetDef">
    <use xlink:href="#rim2" fill="#404040"><set attributeName="fill" to="#808080" begin="reset.mouseover" end="reset.mouseout"/></use>
  </g>
</defs>
<script type="application/ecmascript">
var viewWidth = 899;
var viewHeight = 186;
var sectionId = 'dynsection-146';
</script>
<script type="application/ecmascript" xlink:href="../../svg.min.js"/>
<svg id="graph" class="graph">
<g id="viewport">
<title>igl::cumsum</title>
<!-- Node1 -->
<g id="Node000001" class="node">
<title>Node1</title>
<g id="a_Node000001"><a xlink:title=" ">
<polygon fill="#999999" stroke="#666666" points="890.5,-97.88 821.25,-97.88 821.25,-78.62 890.5,-78.62 890.5,-97.88"/>
<text text-anchor="middle" x="855.88" y="-84.38" font-family="Helvetica,sans-Serif" font-size="10.00">igl::cumsum</text>
</a>
</g>
</g>
<!-- Node2 -->
<g id="Node000002" class="node">
<title>Node2</title>
<g id="a_Node000002"><a xlink:href="../../de/d42/namespaceigl_1_1copyleft_1_1cgal.html#a605738fd97358dcc2bd75a83d2725c71" target="_top" xlink:title=" ">
<polygon fill="white" stroke="#666666" points="782.62,-177.5 692.38,-177.5 692.38,-147 782.62,-147 782.62,-177.5"/>
<text text-anchor="start" x="700.38" y="-164" font-family="Helvetica,sans-Serif" font-size="10.00">igl::copyleft::cgal</text>
<text text-anchor="middle" x="737.5" y="-152.75" font-family="Helvetica,sans-Serif" font-size="10.00">::mesh_boolean</text>
</a>
</g>
</g>
<!-- Node1&#45;&gt;Node2 -->
<g id="edge1_Node000001_Node000002" class="edge">
<title>Node1&#45;&gt;Node2</title>
<g id="a_edge1_Node000001_Node000002"><a xlink:title=" ">
<path fill="none" stroke="#63b8ff" d="M833.02,-104.67C819.53,-114.54 801.71,-127.11 785.25,-137.25 780.08,-140.44 774.47,-143.64 768.98,-146.64"/>
<polygon fill="#63b8ff" stroke="#63b8ff" points="834.63,-107.09 840.6,-98.33 830.47,-101.46 834.63,-107.09"/>
</a>
</g>
</g>
<!-- Node3 -->
<g id="Node000003" class="node">
<title>Node3</title>
<g id="a_Node000003"><a xlink:href="../../dc/d25/namespaceigl.html#ac13c928383f8bba566ec90f8934aee2a" target="_top" xlink:title=" ">
<polygon fill="white" stroke="#666666" points="785.25,-128.5 689.75,-128.5 689.75,-98 785.25,-98 785.25,-128.5"/>
<text text-anchor="start" x="697.75" y="-115" font-family="Helvetica,sans-Serif" font-size="10.00">igl::ramer_douglas</text>
<text text-anchor="middle" x="737.5" y="-103.75" font-family="Helvetica,sans-Serif" font-size="10.00">_peucker</text>
</a>
</g>
</g>
<!-- Node1&#45;&gt;Node3 -->
<g id="edge2_Node000001_Node000003" class="edge">
<title>Node1&#45;&gt;Node3</title>
<g id="a_edge2_Node000001_Node000003"><a xlink:title=" ">
<path fill="none" stroke="#63b8ff" d="M810.24,-97.84C802.2,-99.56 793.81,-101.37 785.71,-103.11"/>
<polygon fill="#63b8ff" stroke="#63b8ff" points="810.86,-101.07 819.9,-95.55 809.39,-94.23 810.86,-101.07"/>
</a>
</g>
</g>
<!-- Node4 -->
<g id="Node000004" class="node">
<title>Node4</title>
<g id="a_Node000004"><a xlink:href="../../dc/d25/namespaceigl.html#a94d4d2bb876bfee1d62579b58471d797" target="_top" xlink:title=" ">
<polygon fill="white" stroke="#666666" points="785.25,-79.5 689.75,-79.5 689.75,-49 785.25,-49 785.25,-79.5"/>
<text text-anchor="start" x="697.75" y="-66" font-family="Helvetica,sans-Serif" font-size="10.00">igl::random_points</text>
<text text-anchor="middle" x="737.5" y="-54.75" font-family="Helvetica,sans-Serif" font-size="10.00">_on_mesh</text>
</a>
</g>
</g>
<!-- Node1&#45;&gt;Node4 -->
<g id="edge3_Node000001_Node000004" class="edge">
<title>Node1&#45;&gt;Node4</title>
<g id="a_edge3_Node000001_Node000004"><a xlink:title=" ">
<path fill="none" stroke="#63b8ff" d="M810.24,-79.04C802.2,-77.39 793.81,-75.66 785.71,-73.99"/>
<polygon fill="#63b8ff" stroke="#63b8ff" points="809.4,-82.65 819.9,-81.24 810.81,-75.8 809.4,-82.65"/>
</a>
</g>
</g>
<!-- Node11 -->
<g id="Node000011" class="node">
<title>Node11</title>
<g id="a_Node000011"><a xlink:href="../../dc/d25/namespaceigl.html#a9d1b0d9e10f1f3f3b2d7360ebde5f202" target="_top" xlink:title=" ">
<polygon fill="white" stroke="#666666" points="785.25,-30.5 689.75,-30.5 689.75,0 785.25,0 785.25,-30.5"/>
<text text-anchor="start" x="697.75" y="-17" font-family="Helvetica,sans-Serif" font-size="10.00">igl::vertex_triangle</text>
<text text-anchor="middle" x="737.5" y="-5.75" font-family="Helvetica,sans-Serif" font-size="10.00">_adjacency</text>
</a>
</g>
</g>
<!-- Node1&#45;&gt;Node11 -->
<g id="edge12_Node000001_Node000011" class="edge">
<title>Node1&#45;&gt;Node11</title>
<g id="a_edge12_Node000001_Node000011"><a xlink:title=" ">
<path fill="none" stroke="#63b8ff" d="M832.72,-72.03C819.25,-62.41 801.55,-50.18 785.25,-40.25 780.06,-37.09 774.44,-33.9 768.96,-30.9"/>
<polygon fill="#63b8ff" stroke="#63b8ff" points="830.15,-75.21 840.31,-78.22 834.24,-69.53 830.15,-75.21"/>
</a>
</g>
</g>
<!-- Node5 -->
<g id="Node000005" class="node">
<title>Node5</title>
<g id="a_Node000005"><a xlink:href="../../dc/d25/namespaceigl.html#aa1c9ce149d23a24f1ae95b54b14917de" target="_top" xlink:title=" ">
<polygon fill="white" stroke="#666666" points="648.88,-103.5 553.38,-103.5 553.38,-73 648.88,-73 648.88,-103.5"/>
<text text-anchor="start" x="561.38" y="-90" font-family="Helvetica,sans-Serif" font-size="10.00">igl::random_points</text>
<text text-anchor="middle" x="601.12" y="-78.75" font-family="Helvetica,sans-Serif" font-size="10.00">_on_mesh</text>
</a>
</g>
</g>
<!-- Node4&#45;&gt;Node5 -->
<g id="edge4_Node000004_Node000005" class="edge">
<title>Node4&#45;&gt;Node5</title>
<g id="a_edge4_Node000004_Node000005"><a xlink:title=" ">
<path fill="none" stroke="#63b8ff" d="M678.93,-74.53C669.05,-76.3 658.89,-78.11 649.32,-79.82"/>
<polygon fill="#63b8ff" stroke="#63b8ff" points="679.27,-77.85 688.5,-72.64 678.04,-70.96 679.27,-77.85"/>
</a>
</g>
</g>
<!-- Node6 -->
<g id="Node000006" class="node">
<title>Node6</title>
<g id="a_Node000006"><a xlink:href="../../d1/d35/namespace_slic3r_1_1branchingtree.html#a63ef99f86b5b7b039023f37388d549f7" target="_top" xlink:title=" ">
<polygon fill="white" stroke="#666666" points="653.75,-54.5 548.5,-54.5 548.5,-24 653.75,-24 653.75,-54.5"/>
<text text-anchor="start" x="556.5" y="-41" font-family="Helvetica,sans-Serif" font-size="10.00">Slic3r::branchingtree</text>
<text text-anchor="middle" x="601.12" y="-29.75" font-family="Helvetica,sans-Serif" font-size="10.00">::sample_mesh</text>
</a>
</g>
</g>
<!-- Node4&#45;&gt;Node6 -->
<g id="edge5_Node000004_Node000006" class="edge">
<title>Node4&#45;&gt;Node6</title>
<g id="a_edge5_Node000004_Node000006"><a xlink:title=" ">
<path fill="none" stroke="#63b8ff" d="M678.79,-53.51C670.52,-51.97 662.05,-50.4 653.91,-48.88"/>
<polygon fill="#63b8ff" stroke="#63b8ff" points="678.03,-57.12 688.5,-55.51 679.31,-50.24 678.03,-57.12"/>
</a>
</g>
</g>
<!-- Node7 -->
<g id="Node000007" class="node">
<title>Node7</title>
<g id="a_Node000007"><a xlink:href="../../d2/d57/namespace_slic3r_1_1sla.html#aa3ba0fc39b3e23189b83830fc8144948" target="_top" xlink:title=" ">
<polygon fill="white" stroke="#666666" points="371.25,-54.5 278.75,-54.5 278.75,-24 371.25,-24 371.25,-54.5"/>
<text text-anchor="start" x="286.75" y="-41" font-family="Helvetica,sans-Serif" font-size="10.00">Slic3r::sla::create</text>
<text text-anchor="middle" x="325" y="-29.75" font-family="Helvetica,sans-Serif" font-size="10.00">_branching_tree</text>
</a>
</g>
</g>
<!-- Node6&#45;&gt;Node7 -->
<g id="edge6_Node000006_Node000007" class="edge">
<title>Node6&#45;&gt;Node7</title>
<g id="a_edge6_Node000006_Node000007"><a xlink:title=" ">
<path fill="none" stroke="#63b8ff" d="M537.35,-41.66C529,-41.9 520.54,-42.11 512.5,-42.25 465.73,-43.05 454.02,-43.11 407.25,-42.25 395.68,-42.04 383.18,-41.65 371.54,-41.23"/>
<polygon fill="#63b8ff" stroke="#63b8ff" points="537.35,-45.13 547.24,-41.32 537.13,-38.13 537.35,-45.13"/>
</a>
</g>
</g>
<!-- Node10 -->
<g id="Node000010" class="node">
<title>Node10</title>
<g id="a_Node000010"><a xlink:href="../../d1/d35/namespace_slic3r_1_1branchingtree.html#a4c572ab657b2328bcdc792d85bb9b54e" target="_top" xlink:title=" ">
<polygon fill="white" stroke="#666666" points="512.5,-33.5 407.25,-33.5 407.25,-3 512.5,-3 512.5,-33.5"/>
<text text-anchor="start" x="415.25" y="-20" font-family="Helvetica,sans-Serif" font-size="10.00">Slic3r::branchingtree</text>
<text text-anchor="middle" x="459.88" y="-8.75" font-family="Helvetica,sans-Serif" font-size="10.00">::sample_bed</text>
</a>
</g>
</g>
<!-- Node6&#45;&gt;Node10 -->
<g id="edge10_Node000006_Node000010" class="edge">
<title>Node6&#45;&gt;Node10</title>
<g id="a_edge10_Node000006_Node000010"><a xlink:title=" ">
<path fill="none" stroke="#63b8ff" d="M537.51,-29.81C529.24,-28.56 520.84,-27.29 512.77,-26.08"/>
<polygon fill="#63b8ff" stroke="#63b8ff" points="536.86,-33.4 547.27,-31.43 537.91,-26.48 536.86,-33.4"/>
</a>
</g>
</g>
<!-- Node7&#45;&gt;Node7 -->
<g id="edge7_Node000007_Node000007" class="edge">
<title>Node7&#45;&gt;Node7</title>
<g id="a_edge7_Node000007_Node000007"><a xlink:title=" ">
<path fill="none" stroke="#63b8ff" d="M346.84,-65.88C343.43,-69.83 336.15,-72.5 325,-72.5 305.17,-72.5 297.58,-64.06 302.23,-54.99"/>
<polygon fill="#63b8ff" stroke="#63b8ff" points="350.41,-66.25 347.77,-55.99 343.43,-65.65 350.41,-66.25"/>
</a>
</g>
</g>
<!-- Node8 -->
<g id="Node000008" class="node">
<title>Node8</title>
<g id="a_Node000008"><a xlink:href="../../d2/d57/namespace_slic3r_1_1sla.html#acefc3537b26afd54e46e3ebba58b0592" target="_top" xlink:title=" ">
<polygon fill="white" stroke="#666666" points="242.75,-54.5 150.25,-54.5 150.25,-24 242.75,-24 242.75,-54.5"/>
<text text-anchor="start" x="158.25" y="-41" font-family="Helvetica,sans-Serif" font-size="10.00">Slic3r::sla::create</text>
<text text-anchor="middle" x="196.5" y="-29.75" font-family="Helvetica,sans-Serif" font-size="10.00">_support_tree</text>
</a>
</g>
</g>
<!-- Node7&#45;&gt;Node8 -->
<g id="edge8_Node000007_Node000008" class="edge">
<title>Node7&#45;&gt;Node8</title>
<g id="a_edge8_Node000007_Node000008"><a xlink:title=" ">
<path fill="none" stroke="#63b8ff" d="M267.39,-39.25C259.26,-39.25 250.98,-39.25 243.1,-39.25"/>
<polygon fill="#63b8ff" stroke="#63b8ff" points="267.33,-42.75 277.33,-39.25 267.33,-35.75 267.33,-42.75"/>
</a>
</g>
</g>
<!-- Node9 -->
<g id="Node000009" class="node">
<title>Node9</title>
<g id="a_Node000009"><a xlink:href="../../db/d3d/struct_slic3r_1_1_s_l_a_print_object_1_1_support_data.html#a0faf5424b3cb7458c74ce52afe0e7dcf" target="_top" xlink:title=" ">
<polygon fill="white" stroke="#666666" points="114.25,-60.12 0,-60.12 0,-18.38 114.25,-18.38 114.25,-60.12"/>
<text text-anchor="start" x="8" y="-46.62" font-family="Helvetica,sans-Serif" font-size="10.00">Slic3r::SLAPrintObject</text>
<text text-anchor="start" x="8" y="-35.38" font-family="Helvetica,sans-Serif" font-size="10.00">::SupportData::create</text>
<text text-anchor="middle" x="57.13" y="-24.12" font-family="Helvetica,sans-Serif" font-size="10.00">_support_tree</text>
</a>
</g>
</g>
<!-- Node8&#45;&gt;Node9 -->
<g id="edge9_Node000008_Node000009" class="edge">
<title>Node8&#45;&gt;Node9</title>
<g id="a_edge9_Node000008_Node000009"><a xlink:title=" ">
<path fill="none" stroke="#63b8ff" d="M138.99,-39.25C130.96,-39.25 122.7,-39.25 114.67,-39.25"/>
<polygon fill="#63b8ff" stroke="#63b8ff" points="138.76,-42.75 148.76,-39.25 138.76,-35.75 138.76,-42.75"/>
</a>
</g>
</g>
<!-- Node10&#45;&gt;Node7 -->
<g id="edge11_Node000010_Node000007" class="edge">
<title>Node10&#45;&gt;Node7</title>
<g id="a_edge11_Node000010_Node000007"><a xlink:title=" ">
<path fill="none" stroke="#63b8ff" d="M396.48,-28.11C388,-29.45 379.44,-30.8 371.35,-32.08"/>
<polygon fill="#63b8ff" stroke="#63b8ff" points="396.79,-31.45 406.12,-26.43 395.7,-24.53 396.79,-31.45"/>
</a>
</g>
</g>
</g>
</svg>

<g id="navigator" transform="translate(0 0)" fill="#404254">
  <rect fill="#f2f5e9" fill-opacity="0.5" stroke="#606060" stroke-width=".5" x="0" y="0" width="60" height="60"/>
  <use id="zoomplus" xlink:href="#zoomPlus" x="17" y="9" onmousedown="handleZoom(evt,'in')"/>
  <use id="zoomminus" xlink:href="#zoomMin" x="42" y="9" onmousedown="handleZoom(evt,'out')"/>
  <use id="reset" xlink:href="#resetDef" x="30" y="36" onmousedown="handleReset()"/>
   <use id="arrowup" xlink:href="#arrowUp" x="0" y="0" onmousedown="handlePan(0,-1)"/>
  <use id="arrowright" xlink:href="#arrowRight" x="0" y="0" onmousedown="handlePan(1,0)"/>
  <use id="arrowdown" xlink:href="#arrowDown" x="0" y="0" onmousedown="handlePan(0,1)"/>
  <use id="arrowleft" xlink:href="#arrowLeft" x="0" y="0" onmousedown="handlePan(-1,0)"/>
</g>
<svg viewBox="0 0 15 15" width="100%" height="30px" preserveAspectRatio="xMaxYMin meet">
 <g id="arrow_out" transform="scale(0.3 0.3)">
  <a xlink:href="namespaceigl_aaed169e13dcea9e2fed8aea1ab853db2_icgraph_org.svg" target="_base">
   <rect id="button" ry="5" rx="5" y="6" x="6" height="38" width="38"
        fill="#f2f5e9" fill-opacity="0.5" stroke="#606060" stroke-width="1.0"/>
   <path id="arrow"
     d="M 11.500037,31.436501 C 11.940474,20.09759 22.043105,11.32322 32.158766,21.979434 L 37.068811,17.246167 C 37.068811,17.246167 37.088388,32 37.088388,32 L 22.160133,31.978069 C 22.160133,31.978069 26.997745,27.140456 26.997745,27.140456 C 18.528582,18.264221 13.291696,25.230495 11.500037,31.436501 z"
     style="fill:#404040;"/>
  </a>
 </g>
</svg>

<style type='text/css'>
<![CDATA[
[data-mouse-over-selected='false'] { opacity: 0.7; }
[data-mouse-over-selected='true']  { opacity: 1.0; }
]]>
</style>
<script type="application/ecmascript"><![CDATA[
document.addEventListener('DOMContentLoaded', (event) => {
  highlightEdges();
  highlightAdjacentNodes();
});
]]></script>
</svg>
