<?xml version="1.0" encoding="UTF-8" standalone="no"?>
<!DOCTYPE svg PUBLIC "-//W3C//DTD SVG 1.1//EN"
 "http://www.w3.org/Graphics/SVG/1.1/DTD/svg11.dtd">
<!-- Generated by graphviz version 8.0.5 (20230430.1635)
 -->
<!-- Title: igl::sort Pages: 1 -->
<svg width="793pt" height="278pt"
 viewBox="0.00 0.00 793.25 277.88" xmlns="http://www.w3.org/2000/svg" xmlns:xlink="http://www.w3.org/1999/xlink">
<g id="graph0" class="graph" transform="scale(1 1) rotate(0) translate(4 273.88)">
<title>igl::sort</title>
<!-- Node1 -->
<g id="Node000001" class="node">
<title>Node1</title>
<g id="a_Node000001"><a xlink:title=" ">
<polygon fill="#999999" stroke="#666666" points="48.25,-120.25 0,-120.25 0,-101 48.25,-101 48.25,-120.25"/>
<text text-anchor="middle" x="24.12" y="-106.75" font-family="Helvetica,sans-Serif" font-size="10.00">igl::sort</text>
</a>
</g>
</g>
<!-- Node1&#45;&gt;Node1 -->
<g id="edge11_Node000001_Node000001" class="edge">
<title>Node1&#45;&gt;Node1</title>
<g id="a_edge11_Node000001_Node000001"><a xlink:title=" ">
<path fill="none" stroke="#63b8ff" d="M10.52,-120.54C4.32,-129.15 8.85,-138.25 24.12,-138.25 32.71,-138.25 37.91,-135.37 39.7,-131.32"/>
<polygon fill="#63b8ff" stroke="#63b8ff" points="42.97,-130.74 37.73,-121.54 36.09,-132.01 42.97,-130.74"/>
</a>
</g>
</g>
<!-- Node2 -->
<g id="Node000002" class="node">
<title>Node2</title>
<g id="a_Node000002"><a xlink:href="../../da/d8d/class_eigen_1_1_plain_object_base.html#acc7200947e6399bee847ff37c8270fc8" target="_top" xlink:title=" ">
<polygon fill="white" stroke="#666666" points="293.25,-171.88 173.75,-171.88 173.75,-141.38 293.25,-141.38 293.25,-171.88"/>
<text text-anchor="start" x="181.75" y="-158.38" font-family="Helvetica,sans-Serif" font-size="10.00">Eigen::PlainObjectBase</text>
<text text-anchor="middle" x="233.5" y="-147.12" font-family="Helvetica,sans-Serif" font-size="10.00">::resizeLike</text>
</a>
</g>
</g>
<!-- Node1&#45;&gt;Node2 -->
<g id="edge1_Node000001_Node000002" class="edge">
<title>Node1&#45;&gt;Node2</title>
<g id="a_edge1_Node000001_Node000002"><a xlink:title=" ">
<path fill="none" stroke="#63b8ff" d="M48.51,-118.92C59.3,-122.54 72.33,-126.64 84.25,-129.62 109.56,-135.97 137.65,-141.47 162.52,-145.82"/>
<polygon fill="#63b8ff" stroke="#63b8ff" points="161.88,-149.43 172.32,-147.67 163.06,-142.53 161.88,-149.43"/>
</a>
</g>
</g>
<!-- Node11 -->
<g id="Node000011" class="node">
<title>Node11</title>
<g id="a_Node000011"><a xlink:href="../../dc/d25/namespaceigl.html#a84b9867d746b3f402c238964ded5b418" target="_top" xlink:title=" ">
<polygon fill="white" stroke="#666666" points="137.75,-120.25 84.25,-120.25 84.25,-101 137.75,-101 137.75,-120.25"/>
<text text-anchor="middle" x="111" y="-106.75" font-family="Helvetica,sans-Serif" font-size="10.00">igl::sort2</text>
</a>
</g>
</g>
<!-- Node1&#45;&gt;Node11 -->
<g id="edge12_Node000001_Node000011" class="edge">
<title>Node1&#45;&gt;Node11</title>
<g id="a_edge12_Node000001_Node000011"><a xlink:title=" ">
<path fill="none" stroke="#63b8ff" d="M48.32,-110.62C55.96,-110.62 64.66,-110.62 73.07,-110.62"/>
<polygon fill="#63b8ff" stroke="#63b8ff" points="72.84,-114.13 82.84,-110.62 72.84,-107.13 72.84,-114.13"/>
</a>
</g>
</g>
<!-- Node14 -->
<g id="Node000014" class="node">
<title>Node14</title>
<g id="a_Node000014"><a xlink:href="../../dc/d25/namespaceigl.html#a1b0d117324cb1867c80027b8677f55b6" target="_top" xlink:title=" ">
<polygon fill="white" stroke="#666666" points="137.75,-83.25 84.25,-83.25 84.25,-64 137.75,-64 137.75,-83.25"/>
<text text-anchor="middle" x="111" y="-69.75" font-family="Helvetica,sans-Serif" font-size="10.00">igl::sort3</text>
</a>
</g>
</g>
<!-- Node1&#45;&gt;Node14 -->
<g id="edge16_Node000001_Node000014" class="edge">
<title>Node1&#45;&gt;Node14</title>
<g id="a_edge16_Node000001_Node000014"><a xlink:title=" ">
<path fill="none" stroke="#63b8ff" d="M48.32,-100.51C57.11,-96.68 67.31,-92.24 76.84,-88.08"/>
<polygon fill="#63b8ff" stroke="#63b8ff" points="78.07,-90.93 85.84,-83.72 75.27,-84.51 78.07,-90.93"/>
</a>
</g>
</g>
<!-- Node3 -->
<g id="Node000003" class="node">
<title>Node3</title>
<g id="a_Node000003"><a xlink:href="../../d5/d18/struct_eigen_1_1_eigen_base.html#ab4cf3e6bb046a94a46b69b857bd3dbc9" target="_top" xlink:title=" ">
<polygon fill="white" stroke="#666666" points="460.75,-209.25 329.25,-209.25 329.25,-190 460.75,-190 460.75,-209.25"/>
<text text-anchor="middle" x="395" y="-195.75" font-family="Helvetica,sans-Serif" font-size="10.00">Eigen::EigenBase::derived</text>
</a>
</g>
</g>
<!-- Node2&#45;&gt;Node3 -->
<g id="edge2_Node000002_Node000003" class="edge">
<title>Node2&#45;&gt;Node3</title>
<g id="a_edge2_Node000002_Node000003"><a xlink:title=" ">
<path fill="none" stroke="#63b8ff" d="M292.53,-172.27C310.24,-177.04 329.49,-182.23 346.41,-186.8"/>
<polygon fill="#63b8ff" stroke="#63b8ff" points="345.05,-190.32 355.62,-189.55 346.87,-183.56 345.05,-190.32"/>
</a>
</g>
</g>
<!-- Node4 -->
<g id="Node000004" class="node">
<title>Node4</title>
<g id="a_Node000004"><a xlink:href="../../da/d8d/class_eigen_1_1_plain_object_base.html#a99d9054ee2d5a40c6e00ded0265e9cea" target="_top" xlink:title=" ">
<polygon fill="white" stroke="#666666" points="454.75,-171.88 335.25,-171.88 335.25,-141.38 454.75,-141.38 454.75,-171.88"/>
<text text-anchor="start" x="343.25" y="-158.38" font-family="Helvetica,sans-Serif" font-size="10.00">Eigen::PlainObjectBase</text>
<text text-anchor="middle" x="395" y="-147.12" font-family="Helvetica,sans-Serif" font-size="10.00">::resize</text>
</a>
</g>
</g>
<!-- Node2&#45;&gt;Node4 -->
<g id="edge3_Node000002_Node000004" class="edge">
<title>Node2&#45;&gt;Node4</title>
<g id="a_edge3_Node000002_Node000004"><a xlink:title=" ">
<path fill="none" stroke="#63b8ff" d="M293.44,-156.62C303.34,-156.62 313.71,-156.62 323.87,-156.62"/>
<polygon fill="#63b8ff" stroke="#63b8ff" points="323.77,-160.13 333.77,-156.62 323.77,-153.13 323.77,-160.13"/>
</a>
</g>
</g>
<!-- Node10 -->
<g id="Node000010" class="node">
<title>Node10</title>
<g id="a_Node000010"><a xlink:href="../../df/d30/struct_eigen_1_1internal_1_1check__rows__cols__for__overflow.html#a96aadd23e6335d10018576e81dec4443" target="_top" xlink:title=" ">
<polygon fill="white" stroke="#666666" points="640.25,-122.88 496.75,-122.88 496.75,-92.38 640.25,-92.38 640.25,-122.88"/>
<text text-anchor="start" x="504.75" y="-109.38" font-family="Helvetica,sans-Serif" font-size="10.00">Eigen::internal::check</text>
<text text-anchor="middle" x="568.5" y="-98.12" font-family="Helvetica,sans-Serif" font-size="10.00">_rows_cols_for_overflow::run</text>
</a>
</g>
</g>
<!-- Node2&#45;&gt;Node10 -->
<g id="edge10_Node000002_Node000010" class="edge">
<title>Node2&#45;&gt;Node10</title>
<g id="a_edge10_Node000002_Node000010"><a xlink:title=" ">
<path fill="none" stroke="#63b8ff" d="M291.08,-140.88C303.58,-137.8 316.8,-134.84 329.25,-132.62 380.9,-123.42 439.49,-117.22 485.65,-113.29"/>
<polygon fill="#63b8ff" stroke="#63b8ff" points="485.82,-116.71 495.5,-112.39 485.24,-109.73 485.82,-116.71"/>
</a>
</g>
</g>
<!-- Node5 -->
<g id="Node000005" class="node">
<title>Node5</title>
<g id="a_Node000005"><a xlink:href="../../da/d8d/class_eigen_1_1_plain_object_base.html#a10b8b33b7587da564415561aa246f78f" target="_top" xlink:title=" ">
<polygon fill="white" stroke="#666666" points="628.25,-269.88 508.75,-269.88 508.75,-239.38 628.25,-239.38 628.25,-269.88"/>
<text text-anchor="start" x="516.75" y="-256.38" font-family="Helvetica,sans-Serif" font-size="10.00">Eigen::PlainObjectBase</text>
<text text-anchor="middle" x="568.5" y="-245.12" font-family="Helvetica,sans-Serif" font-size="10.00">::cols</text>
</a>
</g>
</g>
<!-- Node4&#45;&gt;Node5 -->
<g id="edge4_Node000004_Node000005" class="edge">
<title>Node4&#45;&gt;Node5</title>
<g id="a_edge4_Node000004_Node000005"><a xlink:title=" ">
<path fill="none" stroke="#63b8ff" d="M447,-172.21C451.86,-174.66 456.54,-177.45 460.75,-180.62 482.33,-196.89 475.05,-213.52 496.75,-229.62 498.7,-231.08 500.75,-232.45 502.87,-233.75"/>
<polygon fill="#63b8ff" stroke="#63b8ff" points="501.04,-237.28 511.5,-238.97 504.37,-231.12 501.04,-237.28"/>
</a>
</g>
</g>
<!-- Node7 -->
<g id="Node000007" class="node">
<title>Node7</title>
<g id="a_Node000007"><a xlink:href="../../d5/d91/class_eigen_1_1_dense_storage.html#a22518a835225a3464a2b12396f13a12c" target="_top" xlink:title=" ">
<polygon fill="white" stroke="#666666" points="623,-220.88 514,-220.88 514,-190.38 623,-190.38 623,-220.88"/>
<text text-anchor="start" x="522" y="-207.38" font-family="Helvetica,sans-Serif" font-size="10.00">Eigen::DenseStorage</text>
<text text-anchor="middle" x="568.5" y="-196.12" font-family="Helvetica,sans-Serif" font-size="10.00">::resize</text>
</a>
</g>
</g>
<!-- Node4&#45;&gt;Node7 -->
<g id="edge6_Node000004_Node000007" class="edge">
<title>Node4&#45;&gt;Node7</title>
<g id="a_edge6_Node000004_Node000007"><a xlink:title=" ">
<path fill="none" stroke="#63b8ff" d="M450.74,-172.26C467.38,-177.02 485.82,-182.29 503.04,-187.21"/>
<polygon fill="#63b8ff" stroke="#63b8ff" points="502,-190.84 512.58,-190.22 503.92,-184.11 502,-190.84"/>
</a>
</g>
</g>
<!-- Node8 -->
<g id="Node000008" class="node">
<title>Node8</title>
<g id="a_Node000008"><a xlink:href="../../da/d8d/class_eigen_1_1_plain_object_base.html#aba7a925ce36c08ba2a08c90086f34718" target="_top" xlink:title=" ">
<polygon fill="white" stroke="#666666" points="628.25,-171.88 508.75,-171.88 508.75,-141.38 628.25,-141.38 628.25,-171.88"/>
<text text-anchor="start" x="516.75" y="-158.38" font-family="Helvetica,sans-Serif" font-size="10.00">Eigen::PlainObjectBase</text>
<text text-anchor="middle" x="568.5" y="-147.12" font-family="Helvetica,sans-Serif" font-size="10.00">::rows</text>
</a>
</g>
</g>
<!-- Node4&#45;&gt;Node8 -->
<g id="edge7_Node000004_Node000008" class="edge">
<title>Node4&#45;&gt;Node8</title>
<g id="a_edge7_Node000004_Node000008"><a xlink:title=" ">
<path fill="none" stroke="#63b8ff" d="M455.02,-156.62C468.76,-156.62 483.53,-156.62 497.69,-156.62"/>
<polygon fill="#63b8ff" stroke="#63b8ff" points="497.37,-160.13 507.37,-156.62 497.37,-153.13 497.37,-160.13"/>
</a>
</g>
</g>
<!-- Node4&#45;&gt;Node10 -->
<g id="edge9_Node000004_Node000010" class="edge">
<title>Node4&#45;&gt;Node10</title>
<g id="a_edge9_Node000004_Node000010"><a xlink:title=" ">
<path fill="none" stroke="#63b8ff" d="M450.74,-140.99C467.05,-136.32 485.1,-131.17 502.03,-126.33"/>
<polygon fill="#63b8ff" stroke="#63b8ff" points="502.75,-129.48 511.4,-123.37 500.83,-122.75 502.75,-129.48"/>
</a>
</g>
</g>
<!-- Node6 -->
<g id="Node000006" class="node">
<title>Node6</title>
<g id="a_Node000006"><a xlink:href="../../d5/d91/class_eigen_1_1_dense_storage.html#aef23781f9dc545e8b3f6b75d6c05d777" target="_top" xlink:title=" ">
<polygon fill="white" stroke="#666666" points="785.25,-269.88 676.25,-269.88 676.25,-239.38 785.25,-239.38 785.25,-269.88"/>
<text text-anchor="start" x="684.25" y="-256.38" font-family="Helvetica,sans-Serif" font-size="10.00">Eigen::DenseStorage</text>
<text text-anchor="middle" x="730.75" y="-245.12" font-family="Helvetica,sans-Serif" font-size="10.00">::cols</text>
</a>
</g>
</g>
<!-- Node5&#45;&gt;Node6 -->
<g id="edge5_Node000005_Node000006" class="edge">
<title>Node5&#45;&gt;Node6</title>
<g id="a_edge5_Node000005_Node000006"><a xlink:title=" ">
<path fill="none" stroke="#63b8ff" d="M628.72,-254.62C640.53,-254.62 652.99,-254.62 664.97,-254.62"/>
<polygon fill="#63b8ff" stroke="#63b8ff" points="664.81,-258.13 674.81,-254.62 664.81,-251.13 664.81,-258.13"/>
</a>
</g>
</g>
<!-- Node9 -->
<g id="Node000009" class="node">
<title>Node9</title>
<g id="a_Node000009"><a xlink:href="../../d5/d91/class_eigen_1_1_dense_storage.html#a14b68f709f5fb46eeebb203266cc29b2" target="_top" xlink:title=" ">
<polygon fill="white" stroke="#666666" points="785.25,-171.88 676.25,-171.88 676.25,-141.38 785.25,-141.38 785.25,-171.88"/>
<text text-anchor="start" x="684.25" y="-158.38" font-family="Helvetica,sans-Serif" font-size="10.00">Eigen::DenseStorage</text>
<text text-anchor="middle" x="730.75" y="-147.12" font-family="Helvetica,sans-Serif" font-size="10.00">::rows</text>
</a>
</g>
</g>
<!-- Node8&#45;&gt;Node9 -->
<g id="edge8_Node000008_Node000009" class="edge">
<title>Node8&#45;&gt;Node9</title>
<g id="a_edge8_Node000008_Node000009"><a xlink:title=" ">
<path fill="none" stroke="#63b8ff" d="M628.72,-156.62C640.53,-156.62 652.99,-156.62 664.97,-156.62"/>
<polygon fill="#63b8ff" stroke="#63b8ff" points="664.81,-160.13 674.81,-156.62 664.81,-153.13 664.81,-160.13"/>
</a>
</g>
</g>
<!-- Node11&#45;&gt;Node2 -->
<g id="edge13_Node000011_Node000002" class="edge">
<title>Node11&#45;&gt;Node2</title>
<g id="a_edge13_Node000011_Node000002"><a xlink:title=" ">
<path fill="none" stroke="#63b8ff" d="M138.15,-120.61C150.86,-125.46 166.59,-131.46 181.53,-137.17"/>
<polygon fill="#63b8ff" stroke="#63b8ff" points="180.12,-140.76 190.71,-141.05 182.62,-134.22 180.12,-140.76"/>
</a>
</g>
</g>
<!-- Node12 -->
<g id="Node000012" class="node">
<title>Node12</title>
<g id="a_Node000012"><a xlink:href="../../da/d8d/class_eigen_1_1_plain_object_base.html#ac8dea1df3d92b752cc683ff42abf6f9b" target="_top" xlink:title=" ">
<polygon fill="white" stroke="#666666" points="293.25,-122.88 173.75,-122.88 173.75,-92.38 293.25,-92.38 293.25,-122.88"/>
<text text-anchor="start" x="181.75" y="-109.38" font-family="Helvetica,sans-Serif" font-size="10.00">Eigen::PlainObjectBase</text>
<text text-anchor="middle" x="233.5" y="-98.12" font-family="Helvetica,sans-Serif" font-size="10.00">::setConstant</text>
</a>
</g>
</g>
<!-- Node11&#45;&gt;Node12 -->
<g id="edge14_Node000011_Node000012" class="edge">
<title>Node11&#45;&gt;Node12</title>
<g id="a_edge14_Node000011_Node000012"><a xlink:title=" ">
<path fill="none" stroke="#63b8ff" d="M138.15,-109.97C145.45,-109.79 153.74,-109.59 162.32,-109.37"/>
<polygon fill="#63b8ff" stroke="#63b8ff" points="162.36,-112.85 172.27,-109.1 162.18,-105.85 162.36,-112.85"/>
</a>
</g>
</g>
<!-- Node13 -->
<g id="Node000013" class="node">
<title>Node13</title>
<g id="a_Node000013"><a xlink:href="../../d6/d95/glu-libtess_8h.html#a4292190e3f1f6b373a760c7d9316ad3c" target="_top" xlink:title=" ">
<polygon fill="white" stroke="#666666" points="250.5,-74.25 216.5,-74.25 216.5,-55 250.5,-55 250.5,-74.25"/>
<text text-anchor="middle" x="233.5" y="-60.75" font-family="Helvetica,sans-Serif" font-size="10.00">void</text>
</a>
</g>
</g>
<!-- Node11&#45;&gt;Node13 -->
<g id="edge15_Node000011_Node000013" class="edge">
<title>Node11&#45;&gt;Node13</title>
<g id="a_edge15_Node000011_Node000013"><a xlink:title=" ">
<path fill="none" stroke="#63b8ff" d="M133.5,-100.6C145.27,-95.27 160.18,-88.77 173.75,-83.62 184.13,-79.69 195.72,-75.83 205.85,-72.63"/>
<polygon fill="#63b8ff" stroke="#63b8ff" points="206.62,-75.74 215.14,-69.44 204.55,-69.06 206.62,-75.74"/>
</a>
</g>
</g>
<!-- Node14&#45;&gt;Node2 -->
<g id="edge19_Node000014_Node000002" class="edge">
<title>Node14&#45;&gt;Node2</title>
<g id="a_edge19_Node000014_Node000002"><a xlink:title=" ">
<path fill="none" stroke="#63b8ff" d="M127.68,-83.74C131.11,-86.18 134.64,-88.88 137.75,-91.62 155.67,-107.47 154.29,-117.73 173.75,-131.62 175.88,-133.15 178.12,-134.6 180.43,-135.99"/>
<polygon fill="#63b8ff" stroke="#63b8ff" points="178.13,-139.27 188.59,-140.99 181.49,-133.13 178.13,-139.27"/>
</a>
</g>
</g>
<!-- Node14&#45;&gt;Node12 -->
<g id="edge20_Node000014_Node000012" class="edge">
<title>Node14&#45;&gt;Node12</title>
<g id="a_edge20_Node000014_Node000012"><a xlink:title=" ">
<path fill="none" stroke="#63b8ff" d="M138.15,-81C146.57,-83.38 156.32,-86.13 166.3,-88.94"/>
<polygon fill="#63b8ff" stroke="#63b8ff" points="165.15,-92.54 175.72,-91.89 167.05,-85.8 165.15,-92.54"/>
</a>
</g>
</g>
<!-- Node14&#45;&gt;Node13 -->
<g id="edge21_Node000014_Node000013" class="edge">
<title>Node14&#45;&gt;Node13</title>
<g id="a_edge21_Node000014_Node000013"><a xlink:title=" ">
<path fill="none" stroke="#63b8ff" d="M138.15,-71.67C157.94,-70.19 185.04,-68.17 205.13,-66.67"/>
<polygon fill="#63b8ff" stroke="#63b8ff" points="205.32,-70.09 215.03,-65.86 204.8,-63.11 205.32,-70.09"/>
</a>
</g>
</g>
<!-- Node15 -->
<g id="Node000015" class="node">
<title>Node15</title>
<g id="a_Node000015"><a xlink:href="../../dc/d25/namespaceigl.html#a48ba3dac8f2da11935cd7e566f27e69d" target="_top" xlink:title=" ">
<polygon fill="white" stroke="#666666" points="273,-19.25 194,-19.25 194,0 273,0 273,-19.25"/>
<text text-anchor="middle" x="233.5" y="-5.75" font-family="Helvetica,sans-Serif" font-size="10.00">igl::parallel_for</text>
</a>
</g>
</g>
<!-- Node14&#45;&gt;Node15 -->
<g id="edge17_Node000014_Node000015" class="edge">
<title>Node14&#45;&gt;Node15</title>
<g id="a_edge17_Node000014_Node000015"><a xlink:title=" ">
<path fill="none" stroke="#63b8ff" d="M130.83,-63.62C150.55,-53.15 181.74,-36.58 204.38,-24.56"/>
<polygon fill="#63b8ff" stroke="#63b8ff" points="205.61,-27.34 212.8,-19.55 202.33,-21.15 205.61,-27.34"/>
</a>
</g>
</g>
<!-- Node15&#45;&gt;Node15 -->
<g id="edge18_Node000015_Node000015" class="edge">
<title>Node15&#45;&gt;Node15</title>
<g id="a_edge18_Node000015_Node000015"><a xlink:title=" ">
<path fill="none" stroke="#63b8ff" d="M214.32,-19.54C205.57,-28.15 211.97,-37.25 233.5,-37.25 245.95,-37.25 253.34,-34.21 255.67,-29.98"/>
<polygon fill="#63b8ff" stroke="#63b8ff" points="258.79,-29.19 252.68,-20.54 252.06,-31.12 258.79,-29.19"/>
</a>
</g>
</g>
</g>
</svg>
