<?xml version="1.0" encoding="UTF-8" standalone="no"?>
<!DOCTYPE svg PUBLIC "-//W3C//DTD SVG 1.1//EN"
 "http://www.w3.org/Graphics/SVG/1.1/DTD/svg11.dtd">
<!-- Generated by graphviz version 8.0.5 (20230430.1635)
 -->
<!-- Title: igl::unproject_ray Pages: 1 -->
<svg width="259pt" height="64pt"
 viewBox="0.00 0.00 259.00 64.25" xmlns="http://www.w3.org/2000/svg" xmlns:xlink="http://www.w3.org/1999/xlink">
<g id="graph0" class="graph" transform="scale(1 1) rotate(0) translate(4 60.25)">
<title>igl::unproject_ray</title>
<!-- Node1 -->
<g id="Node000001" class="node">
<title>Node1</title>
<g id="a_Node000001"><a xlink:title="dir direction of ray (d &#45; s) where d is pos unprojected with z=1">
<polygon fill="#999999" stroke="#666666" points="251,-37.25 160.75,-37.25 160.75,-18 251,-18 251,-37.25"/>
<text text-anchor="middle" x="205.88" y="-23.75" font-family="Helvetica,sans-Serif" font-size="10.00">igl::unproject_ray</text>
</a>
</g>
</g>
<!-- Node2 -->
<g id="Node000002" class="node">
<title>Node2</title>
<g id="a_Node000002"><a xlink:href="../../dc/d25/namespaceigl.html#a44a2a40ddcb2757376403f8cedaccf13" target="_top" xlink:title=" ">
<polygon fill="white" stroke="#666666" points="119.12,-56.25 5.62,-56.25 5.62,-37 119.12,-37 119.12,-56.25"/>
<text text-anchor="middle" x="62.38" y="-42.75" font-family="Helvetica,sans-Serif" font-size="10.00">igl::unproject_in_mesh</text>
</a>
</g>
</g>
<!-- Node1&#45;&gt;Node2 -->
<g id="edge1_Node000001_Node000002" class="edge">
<title>Node1&#45;&gt;Node2</title>
<g id="a_edge1_Node000001_Node000002"><a xlink:title=" ">
<path fill="none" stroke="#63b8ff" d="M149.91,-35.01C139.95,-36.34 129.56,-37.74 119.58,-39.08"/>
<polygon fill="#63b8ff" stroke="#63b8ff" points="150.05,-38.38 159.49,-33.58 149.11,-31.45 150.05,-38.38"/>
</a>
</g>
</g>
<!-- Node3 -->
<g id="Node000003" class="node">
<title>Node3</title>
<g id="a_Node000003"><a xlink:href="../../dc/d25/namespaceigl.html#a09d17c0e320b7b4b6c9001da0a8f28d2" target="_top" xlink:title=" ">
<polygon fill="white" stroke="#666666" points="124.75,-19.25 0,-19.25 0,0 124.75,0 124.75,-19.25"/>
<text text-anchor="middle" x="62.38" y="-5.75" font-family="Helvetica,sans-Serif" font-size="10.00">igl::unproject_onto_mesh</text>
</a>
</g>
</g>
<!-- Node1&#45;&gt;Node3 -->
<g id="edge2_Node000001_Node000003" class="edge">
<title>Node1&#45;&gt;Node3</title>
<g id="a_edge2_Node000001_Node000003"><a xlink:title=" ">
<path fill="none" stroke="#63b8ff" d="M149.75,-20.61C141.71,-19.59 133.39,-18.53 125.23,-17.49"/>
<polygon fill="#63b8ff" stroke="#63b8ff" points="149.13,-24.19 159.49,-21.98 150.01,-17.25 149.13,-24.19"/>
</a>
</g>
</g>
</g>
</svg>
