<?xml version="1.0" encoding="UTF-8" standalone="no"?>
<!DOCTYPE svg PUBLIC "-//W3C//DTD SVG 1.1//EN"
 "http://www.w3.org/Graphics/SVG/1.1/DTD/svg11.dtd">
<!-- Generated by graphviz version 8.0.5 (20230430.1635)
 -->
<!-- Title: igl::repmat Pages: 1 -->
<svg width="550pt" height="186pt"
 viewBox="0.00 0.00 549.75 185.50" xmlns="http://www.w3.org/2000/svg" xmlns:xlink="http://www.w3.org/1999/xlink">
<g id="graph0" class="graph" transform="scale(1 1) rotate(0) translate(4 181.5)">
<title>igl::repmat</title>
<!-- Node1 -->
<g id="Node000001" class="node">
<title>Node1</title>
<g id="a_Node000001"><a xlink:title=" ">
<polygon fill="#999999" stroke="#666666" points="61.75,-97.88 0,-97.88 0,-78.62 61.75,-78.62 61.75,-97.88"/>
<text text-anchor="middle" x="30.88" y="-84.38" font-family="Helvetica,sans-Serif" font-size="10.00">igl::repmat</text>
</a>
</g>
</g>
<!-- Node2 -->
<g id="Node000002" class="node">
<title>Node2</title>
<g id="a_Node000002"><a xlink:href="../../da/d8d/class_eigen_1_1_plain_object_base.html#a99d9054ee2d5a40c6e00ded0265e9cea" target="_top" xlink:title=" ">
<polygon fill="white" stroke="#666666" points="217.25,-103.5 97.75,-103.5 97.75,-73 217.25,-73 217.25,-103.5"/>
<text text-anchor="start" x="105.75" y="-90" font-family="Helvetica,sans-Serif" font-size="10.00">Eigen::PlainObjectBase</text>
<text text-anchor="middle" x="157.5" y="-78.75" font-family="Helvetica,sans-Serif" font-size="10.00">::resize</text>
</a>
</g>
</g>
<!-- Node1&#45;&gt;Node2 -->
<g id="edge1_Node000001_Node000002" class="edge">
<title>Node1&#45;&gt;Node2</title>
<g id="a_edge1_Node000001_Node000002"><a xlink:title=" ">
<path fill="none" stroke="#63b8ff" d="M62.04,-88.25C69.54,-88.25 77.89,-88.25 86.44,-88.25"/>
<polygon fill="#63b8ff" stroke="#63b8ff" points="86.32,-91.75 96.32,-88.25 86.32,-84.75 86.32,-91.75"/>
</a>
</g>
</g>
<!-- Node3 -->
<g id="Node000003" class="node">
<title>Node3</title>
<g id="a_Node000003"><a xlink:href="../../da/d8d/class_eigen_1_1_plain_object_base.html#a10b8b33b7587da564415561aa246f78f" target="_top" xlink:title=" ">
<polygon fill="white" stroke="#666666" points="384.75,-177.5 265.25,-177.5 265.25,-147 384.75,-147 384.75,-177.5"/>
<text text-anchor="start" x="273.25" y="-164" font-family="Helvetica,sans-Serif" font-size="10.00">Eigen::PlainObjectBase</text>
<text text-anchor="middle" x="325" y="-152.75" font-family="Helvetica,sans-Serif" font-size="10.00">::cols</text>
</a>
</g>
</g>
<!-- Node2&#45;&gt;Node3 -->
<g id="edge2_Node000002_Node000003" class="edge">
<title>Node2&#45;&gt;Node3</title>
<g id="a_edge2_Node000002_Node000003"><a xlink:title=" ">
<path fill="none" stroke="#63b8ff" d="M186.2,-103.86C204.84,-114.04 230.14,-127.25 253.25,-137.25 257.6,-139.13 262.15,-140.99 266.75,-142.78"/>
<polygon fill="#63b8ff" stroke="#63b8ff" points="265.25,-146.34 275.84,-146.61 267.73,-139.79 265.25,-146.34"/>
</a>
</g>
</g>
<!-- Node5 -->
<g id="Node000005" class="node">
<title>Node5</title>
<g id="a_Node000005"><a xlink:href="../../d5/d91/class_eigen_1_1_dense_storage.html#a22518a835225a3464a2b12396f13a12c" target="_top" xlink:title=" ">
<polygon fill="white" stroke="#666666" points="379.5,-128.5 270.5,-128.5 270.5,-98 379.5,-98 379.5,-128.5"/>
<text text-anchor="start" x="278.5" y="-115" font-family="Helvetica,sans-Serif" font-size="10.00">Eigen::DenseStorage</text>
<text text-anchor="middle" x="325" y="-103.75" font-family="Helvetica,sans-Serif" font-size="10.00">::resize</text>
</a>
</g>
</g>
<!-- Node2&#45;&gt;Node5 -->
<g id="edge4_Node000002_Node000005" class="edge">
<title>Node2&#45;&gt;Node5</title>
<g id="a_edge4_Node000002_Node000005"><a xlink:title=" ">
<path fill="none" stroke="#63b8ff" d="M217.32,-97.13C231.01,-99.2 245.67,-101.42 259.59,-103.52"/>
<polygon fill="#63b8ff" stroke="#63b8ff" points="258.66,-107.07 269.07,-105.1 259.7,-100.15 258.66,-107.07"/>
</a>
</g>
</g>
<!-- Node6 -->
<g id="Node000006" class="node">
<title>Node6</title>
<g id="a_Node000006"><a xlink:href="../../da/d8d/class_eigen_1_1_plain_object_base.html#aba7a925ce36c08ba2a08c90086f34718" target="_top" xlink:title=" ">
<polygon fill="white" stroke="#666666" points="384.75,-79.5 265.25,-79.5 265.25,-49 384.75,-49 384.75,-79.5"/>
<text text-anchor="start" x="273.25" y="-66" font-family="Helvetica,sans-Serif" font-size="10.00">Eigen::PlainObjectBase</text>
<text text-anchor="middle" x="325" y="-54.75" font-family="Helvetica,sans-Serif" font-size="10.00">::rows</text>
</a>
</g>
</g>
<!-- Node2&#45;&gt;Node6 -->
<g id="edge5_Node000002_Node000006" class="edge">
<title>Node2&#45;&gt;Node6</title>
<g id="a_edge5_Node000002_Node000006"><a xlink:title=" ">
<path fill="none" stroke="#63b8ff" d="M217.32,-79.72C229.24,-77.99 241.9,-76.16 254.16,-74.38"/>
<polygon fill="#63b8ff" stroke="#63b8ff" points="254.42,-77.73 263.82,-72.83 253.42,-70.8 254.42,-77.73"/>
</a>
</g>
</g>
<!-- Node8 -->
<g id="Node000008" class="node">
<title>Node8</title>
<g id="a_Node000008"><a xlink:href="../../df/d30/struct_eigen_1_1internal_1_1check__rows__cols__for__overflow.html#a96aadd23e6335d10018576e81dec4443" target="_top" xlink:title=" ">
<polygon fill="white" stroke="#666666" points="396.75,-30.5 253.25,-30.5 253.25,0 396.75,0 396.75,-30.5"/>
<text text-anchor="start" x="261.25" y="-17" font-family="Helvetica,sans-Serif" font-size="10.00">Eigen::internal::check</text>
<text text-anchor="middle" x="325" y="-5.75" font-family="Helvetica,sans-Serif" font-size="10.00">_rows_cols_for_overflow::run</text>
</a>
</g>
</g>
<!-- Node2&#45;&gt;Node8 -->
<g id="edge7_Node000002_Node000008" class="edge">
<title>Node2&#45;&gt;Node8</title>
<g id="a_edge7_Node000002_Node000008"><a xlink:title=" ">
<path fill="none" stroke="#63b8ff" d="M187.07,-72.56C205.64,-62.67 230.53,-49.97 253.25,-40.25 257.61,-38.38 262.17,-36.54 266.77,-34.76"/>
<polygon fill="#63b8ff" stroke="#63b8ff" points="267.74,-37.75 275.86,-30.95 265.27,-31.2 267.74,-37.75"/>
</a>
</g>
</g>
<!-- Node4 -->
<g id="Node000004" class="node">
<title>Node4</title>
<g id="a_Node000004"><a xlink:href="../../d5/d91/class_eigen_1_1_dense_storage.html#aef23781f9dc545e8b3f6b75d6c05d777" target="_top" xlink:title=" ">
<polygon fill="white" stroke="#666666" points="541.75,-177.5 432.75,-177.5 432.75,-147 541.75,-147 541.75,-177.5"/>
<text text-anchor="start" x="440.75" y="-164" font-family="Helvetica,sans-Serif" font-size="10.00">Eigen::DenseStorage</text>
<text text-anchor="middle" x="487.25" y="-152.75" font-family="Helvetica,sans-Serif" font-size="10.00">::cols</text>
</a>
</g>
</g>
<!-- Node3&#45;&gt;Node4 -->
<g id="edge3_Node000003_Node000004" class="edge">
<title>Node3&#45;&gt;Node4</title>
<g id="a_edge3_Node000003_Node000004"><a xlink:title=" ">
<path fill="none" stroke="#63b8ff" d="M385.22,-162.25C397.03,-162.25 409.49,-162.25 421.47,-162.25"/>
<polygon fill="#63b8ff" stroke="#63b8ff" points="421.31,-165.75 431.31,-162.25 421.31,-158.75 421.31,-165.75"/>
</a>
</g>
</g>
<!-- Node7 -->
<g id="Node000007" class="node">
<title>Node7</title>
<g id="a_Node000007"><a xlink:href="../../d5/d91/class_eigen_1_1_dense_storage.html#a14b68f709f5fb46eeebb203266cc29b2" target="_top" xlink:title=" ">
<polygon fill="white" stroke="#666666" points="541.75,-79.5 432.75,-79.5 432.75,-49 541.75,-49 541.75,-79.5"/>
<text text-anchor="start" x="440.75" y="-66" font-family="Helvetica,sans-Serif" font-size="10.00">Eigen::DenseStorage</text>
<text text-anchor="middle" x="487.25" y="-54.75" font-family="Helvetica,sans-Serif" font-size="10.00">::rows</text>
</a>
</g>
</g>
<!-- Node6&#45;&gt;Node7 -->
<g id="edge6_Node000006_Node000007" class="edge">
<title>Node6&#45;&gt;Node7</title>
<g id="a_edge6_Node000006_Node000007"><a xlink:title=" ">
<path fill="none" stroke="#63b8ff" d="M385.22,-64.25C397.03,-64.25 409.49,-64.25 421.47,-64.25"/>
<polygon fill="#63b8ff" stroke="#63b8ff" points="421.31,-67.75 431.31,-64.25 421.31,-60.75 421.31,-67.75"/>
</a>
</g>
</g>
</g>
</svg>
