<?xml version="1.0" encoding="UTF-8" standalone="no"?>
<!DOCTYPE svg PUBLIC "-//W3C//DTD SVG 1.1//EN"
 "http://www.w3.org/Graphics/SVG/1.1/DTD/svg11.dtd">
<!-- Generated by graphviz version 8.0.5 (20230430.1635)
 -->
<!-- Title: igl::readNODE Pages: 1 -->
<svg width="568pt" height="186pt"
 viewBox="0.00 0.00 567.75 185.50" xmlns="http://www.w3.org/2000/svg" xmlns:xlink="http://www.w3.org/1999/xlink">
<g id="graph0" class="graph" transform="scale(1 1) rotate(0) translate(4 181.5)">
<title>igl::readNODE</title>
<!-- Node1 -->
<g id="Node000001" class="node">
<title>Node1</title>
<g id="a_Node000001"><a xlink:title=" ">
<polygon fill="#999999" stroke="#666666" points="79.75,-48.88 0,-48.88 0,-29.62 79.75,-29.62 79.75,-48.88"/>
<text text-anchor="middle" x="39.88" y="-35.38" font-family="Helvetica,sans-Serif" font-size="10.00">igl::readNODE</text>
</a>
</g>
</g>
<!-- Node2 -->
<g id="Node000002" class="node">
<title>Node2</title>
<g id="a_Node000002"><a xlink:href="../../da/d8d/class_eigen_1_1_plain_object_base.html#a99d9054ee2d5a40c6e00ded0265e9cea" target="_top" xlink:title=" ">
<polygon fill="white" stroke="#666666" points="235.25,-79.5 115.75,-79.5 115.75,-49 235.25,-49 235.25,-79.5"/>
<text text-anchor="start" x="123.75" y="-66" font-family="Helvetica,sans-Serif" font-size="10.00">Eigen::PlainObjectBase</text>
<text text-anchor="middle" x="175.5" y="-54.75" font-family="Helvetica,sans-Serif" font-size="10.00">::resize</text>
</a>
</g>
</g>
<!-- Node1&#45;&gt;Node2 -->
<g id="edge1_Node000001_Node000002" class="edge">
<title>Node1&#45;&gt;Node2</title>
<g id="a_edge1_Node000001_Node000002"><a xlink:title=" ">
<path fill="none" stroke="#63b8ff" d="M80.24,-46.62C88.04,-48.07 96.44,-49.65 104.89,-51.23"/>
<polygon fill="#63b8ff" stroke="#63b8ff" points="104.13,-54.83 114.6,-53.23 105.41,-47.95 104.13,-54.83"/>
</a>
</g>
</g>
<!-- Node6 -->
<g id="Node000006" class="node">
<title>Node6</title>
<g id="a_Node000006"><a xlink:href="../../da/d8d/class_eigen_1_1_plain_object_base.html#aba7a925ce36c08ba2a08c90086f34718" target="_top" xlink:title=" ">
<polygon fill="white" stroke="#666666" points="402.75,-30.5 283.25,-30.5 283.25,0 402.75,0 402.75,-30.5"/>
<text text-anchor="start" x="291.25" y="-17" font-family="Helvetica,sans-Serif" font-size="10.00">Eigen::PlainObjectBase</text>
<text text-anchor="middle" x="343" y="-5.75" font-family="Helvetica,sans-Serif" font-size="10.00">::rows</text>
</a>
</g>
</g>
<!-- Node1&#45;&gt;Node6 -->
<g id="edge8_Node000001_Node000006" class="edge">
<title>Node1&#45;&gt;Node6</title>
<g id="a_edge8_Node000001_Node000006"><a xlink:title=" ">
<path fill="none" stroke="#63b8ff" d="M80.24,-36.11C128.87,-32.24 212.46,-25.57 272.09,-20.82"/>
<polygon fill="#63b8ff" stroke="#63b8ff" points="272.24,-24.24 281.93,-19.96 271.69,-17.26 272.24,-24.24"/>
</a>
</g>
</g>
<!-- Node3 -->
<g id="Node000003" class="node">
<title>Node3</title>
<g id="a_Node000003"><a xlink:href="../../da/d8d/class_eigen_1_1_plain_object_base.html#a10b8b33b7587da564415561aa246f78f" target="_top" xlink:title=" ">
<polygon fill="white" stroke="#666666" points="402.75,-177.5 283.25,-177.5 283.25,-147 402.75,-147 402.75,-177.5"/>
<text text-anchor="start" x="291.25" y="-164" font-family="Helvetica,sans-Serif" font-size="10.00">Eigen::PlainObjectBase</text>
<text text-anchor="middle" x="343" y="-152.75" font-family="Helvetica,sans-Serif" font-size="10.00">::cols</text>
</a>
</g>
</g>
<!-- Node2&#45;&gt;Node3 -->
<g id="edge2_Node000002_Node000003" class="edge">
<title>Node2&#45;&gt;Node3</title>
<g id="a_edge2_Node000002_Node000003"><a xlink:title=" ">
<path fill="none" stroke="#63b8ff" d="M193.16,-79.75C211.23,-95.91 241.51,-121.08 271.25,-137.25 274.5,-139.01 277.89,-140.7 281.36,-142.29"/>
<polygon fill="#63b8ff" stroke="#63b8ff" points="279.72,-145.82 290.28,-146.55 282.47,-139.39 279.72,-145.82"/>
</a>
</g>
</g>
<!-- Node5 -->
<g id="Node000005" class="node">
<title>Node5</title>
<g id="a_Node000005"><a xlink:href="../../d5/d91/class_eigen_1_1_dense_storage.html#a22518a835225a3464a2b12396f13a12c" target="_top" xlink:title=" ">
<polygon fill="white" stroke="#666666" points="397.5,-128.5 288.5,-128.5 288.5,-98 397.5,-98 397.5,-128.5"/>
<text text-anchor="start" x="296.5" y="-115" font-family="Helvetica,sans-Serif" font-size="10.00">Eigen::DenseStorage</text>
<text text-anchor="middle" x="343" y="-103.75" font-family="Helvetica,sans-Serif" font-size="10.00">::resize</text>
</a>
</g>
</g>
<!-- Node2&#45;&gt;Node5 -->
<g id="edge4_Node000002_Node000005" class="edge">
<title>Node2&#45;&gt;Node5</title>
<g id="a_edge4_Node000002_Node000005"><a xlink:title=" ">
<path fill="none" stroke="#63b8ff" d="M229.32,-79.89C244.92,-84.51 262.16,-89.61 278.36,-94.41"/>
<polygon fill="#63b8ff" stroke="#63b8ff" points="277.25,-98.02 287.83,-97.51 279.23,-91.31 277.25,-98.02"/>
</a>
</g>
</g>
<!-- Node2&#45;&gt;Node6 -->
<g id="edge5_Node000002_Node000006" class="edge">
<title>Node2&#45;&gt;Node6</title>
<g id="a_edge5_Node000002_Node000006"><a xlink:title=" ">
<path fill="none" stroke="#63b8ff" d="M229.32,-48.61C244.92,-43.99 262.16,-38.89 278.36,-34.09"/>
<polygon fill="#63b8ff" stroke="#63b8ff" points="279.23,-37.19 287.83,-30.99 277.25,-30.48 279.23,-37.19"/>
</a>
</g>
</g>
<!-- Node8 -->
<g id="Node000008" class="node">
<title>Node8</title>
<g id="a_Node000008"><a xlink:href="../../df/d30/struct_eigen_1_1internal_1_1check__rows__cols__for__overflow.html#a96aadd23e6335d10018576e81dec4443" target="_top" xlink:title=" ">
<polygon fill="white" stroke="#666666" points="414.75,-79.5 271.25,-79.5 271.25,-49 414.75,-49 414.75,-79.5"/>
<text text-anchor="start" x="279.25" y="-66" font-family="Helvetica,sans-Serif" font-size="10.00">Eigen::internal::check</text>
<text text-anchor="middle" x="343" y="-54.75" font-family="Helvetica,sans-Serif" font-size="10.00">_rows_cols_for_overflow::run</text>
</a>
</g>
</g>
<!-- Node2&#45;&gt;Node8 -->
<g id="edge7_Node000002_Node000008" class="edge">
<title>Node2&#45;&gt;Node8</title>
<g id="a_edge7_Node000002_Node000008"><a xlink:title=" ">
<path fill="none" stroke="#63b8ff" d="M235.32,-64.25C243.33,-64.25 251.66,-64.25 259.99,-64.25"/>
<polygon fill="#63b8ff" stroke="#63b8ff" points="259.91,-67.75 269.91,-64.25 259.91,-60.75 259.91,-67.75"/>
</a>
</g>
</g>
<!-- Node4 -->
<g id="Node000004" class="node">
<title>Node4</title>
<g id="a_Node000004"><a xlink:href="../../d5/d91/class_eigen_1_1_dense_storage.html#aef23781f9dc545e8b3f6b75d6c05d777" target="_top" xlink:title=" ">
<polygon fill="white" stroke="#666666" points="559.75,-177.5 450.75,-177.5 450.75,-147 559.75,-147 559.75,-177.5"/>
<text text-anchor="start" x="458.75" y="-164" font-family="Helvetica,sans-Serif" font-size="10.00">Eigen::DenseStorage</text>
<text text-anchor="middle" x="505.25" y="-152.75" font-family="Helvetica,sans-Serif" font-size="10.00">::cols</text>
</a>
</g>
</g>
<!-- Node3&#45;&gt;Node4 -->
<g id="edge3_Node000003_Node000004" class="edge">
<title>Node3&#45;&gt;Node4</title>
<g id="a_edge3_Node000003_Node000004"><a xlink:title=" ">
<path fill="none" stroke="#63b8ff" d="M403.22,-162.25C415.03,-162.25 427.49,-162.25 439.47,-162.25"/>
<polygon fill="#63b8ff" stroke="#63b8ff" points="439.31,-165.75 449.31,-162.25 439.31,-158.75 439.31,-165.75"/>
</a>
</g>
</g>
<!-- Node7 -->
<g id="Node000007" class="node">
<title>Node7</title>
<g id="a_Node000007"><a xlink:href="../../d5/d91/class_eigen_1_1_dense_storage.html#a14b68f709f5fb46eeebb203266cc29b2" target="_top" xlink:title=" ">
<polygon fill="white" stroke="#666666" points="559.75,-30.5 450.75,-30.5 450.75,0 559.75,0 559.75,-30.5"/>
<text text-anchor="start" x="458.75" y="-17" font-family="Helvetica,sans-Serif" font-size="10.00">Eigen::DenseStorage</text>
<text text-anchor="middle" x="505.25" y="-5.75" font-family="Helvetica,sans-Serif" font-size="10.00">::rows</text>
</a>
</g>
</g>
<!-- Node6&#45;&gt;Node7 -->
<g id="edge6_Node000006_Node000007" class="edge">
<title>Node6&#45;&gt;Node7</title>
<g id="a_edge6_Node000006_Node000007"><a xlink:title=" ">
<path fill="none" stroke="#63b8ff" d="M403.22,-15.25C415.03,-15.25 427.49,-15.25 439.47,-15.25"/>
<polygon fill="#63b8ff" stroke="#63b8ff" points="439.31,-18.75 449.31,-15.25 439.31,-11.75 439.31,-18.75"/>
</a>
</g>
</g>
</g>
</svg>
