<?xml version="1.0" encoding="UTF-8" standalone="no"?>
<!DOCTYPE svg PUBLIC "-//W3C//DTD SVG 1.1//EN"
 "http://www.w3.org/Graphics/SVG/1.1/DTD/svg11.dtd">
<!-- Generated by graphviz version 8.0.5 (20230430.1635)
 -->
<!-- Title: igl::fast_winding_number Pages: 1 -->
<svg width="612pt" height="235pt"
 viewBox="0.00 0.00 612.00 234.50" xmlns="http://www.w3.org/2000/svg" xmlns:xlink="http://www.w3.org/1999/xlink">
<g id="graph0" class="graph" transform="scale(1 1) rotate(0) translate(4 230.5)">
<title>igl::fast_winding_number</title>
<!-- Node1 -->
<g id="Node000001" class="node">
<title>Node1</title>
<g id="a_Node000001"><a xlink:title=" ">
<polygon fill="#999999" stroke="#666666" points="124,-124.88 0,-124.88 0,-105.62 124,-105.62 124,-124.88"/>
<text text-anchor="middle" x="62" y="-111.38" font-family="Helvetica,sans-Serif" font-size="10.00">igl::fast_winding_number</text>
</a>
</g>
</g>
<!-- Node2 -->
<g id="Node000002" class="node">
<title>Node2</title>
<g id="a_Node000002"><a xlink:href="../../da/d8d/class_eigen_1_1_plain_object_base.html#a10b8b33b7587da564415561aa246f78f" target="_top" xlink:title=" ">
<polygon fill="white" stroke="#666666" points="447,-177.5 327.5,-177.5 327.5,-147 447,-147 447,-177.5"/>
<text text-anchor="start" x="335.5" y="-164" font-family="Helvetica,sans-Serif" font-size="10.00">Eigen::PlainObjectBase</text>
<text text-anchor="middle" x="387.25" y="-152.75" font-family="Helvetica,sans-Serif" font-size="10.00">::cols</text>
</a>
</g>
</g>
<!-- Node1&#45;&gt;Node2 -->
<g id="edge1_Node000001_Node000002" class="edge">
<title>Node1&#45;&gt;Node2</title>
<g id="a_edge1_Node000001_Node000002"><a xlink:title=" ">
<path fill="none" stroke="#63b8ff" d="M98.67,-125.36C116.89,-130.19 139.49,-135.69 160,-139.25 212.11,-148.3 271.63,-154.17 316.54,-157.72"/>
<polygon fill="#63b8ff" stroke="#63b8ff" points="316.1,-161.27 326.34,-158.55 316.64,-154.3 316.1,-161.27"/>
</a>
</g>
</g>
<!-- Node4 -->
<g id="Node000004" class="node">
<title>Node4</title>
<g id="a_Node000004"><a xlink:href="../../da/d8d/class_eigen_1_1_plain_object_base.html#a322d4d48cc285b60e0dff100db522342" target="_top" xlink:title=" ">
<polygon fill="white" stroke="#666666" points="279.5,-222.5 160,-222.5 160,-192 279.5,-192 279.5,-222.5"/>
<text text-anchor="start" x="168" y="-209" font-family="Helvetica,sans-Serif" font-size="10.00">Eigen::PlainObjectBase</text>
<text text-anchor="middle" x="219.75" y="-197.75" font-family="Helvetica,sans-Serif" font-size="10.00">::data</text>
</a>
</g>
</g>
<!-- Node1&#45;&gt;Node4 -->
<g id="edge3_Node000001_Node000004" class="edge">
<title>Node1&#45;&gt;Node4</title>
<g id="a_edge3_Node000001_Node000004"><a xlink:title=" ">
<path fill="none" stroke="#63b8ff" d="M78.63,-125.29C97.67,-137.43 130.89,-158.34 160,-175.25 166.34,-178.94 173.13,-182.75 179.76,-186.41"/>
<polygon fill="#63b8ff" stroke="#63b8ff" points="177.83,-189.89 188.29,-191.61 181.19,-183.75 177.83,-189.89"/>
</a>
</g>
</g>
<!-- Node6 -->
<g id="Node000006" class="node">
<title>Node6</title>
<g id="a_Node000006"><a xlink:href="../../da/d8d/class_eigen_1_1_plain_object_base.html#a99d9054ee2d5a40c6e00ded0265e9cea" target="_top" xlink:title=" ">
<polygon fill="white" stroke="#666666" points="279.5,-130.5 160,-130.5 160,-100 279.5,-100 279.5,-130.5"/>
<text text-anchor="start" x="168" y="-117" font-family="Helvetica,sans-Serif" font-size="10.00">Eigen::PlainObjectBase</text>
<text text-anchor="middle" x="219.75" y="-105.75" font-family="Helvetica,sans-Serif" font-size="10.00">::resize</text>
</a>
</g>
</g>
<!-- Node1&#45;&gt;Node6 -->
<g id="edge5_Node000001_Node000006" class="edge">
<title>Node1&#45;&gt;Node6</title>
<g id="a_edge5_Node000001_Node000006"><a xlink:title=" ">
<path fill="none" stroke="#63b8ff" d="M124.11,-115.25C132.23,-115.25 140.6,-115.25 148.85,-115.25"/>
<polygon fill="#63b8ff" stroke="#63b8ff" points="148.6,-118.75 158.6,-115.25 148.6,-111.75 148.6,-118.75"/>
</a>
</g>
</g>
<!-- Node11 -->
<g id="Node000011" class="node">
<title>Node11</title>
<g id="a_Node000011"><a xlink:href="../../da/d8d/class_eigen_1_1_plain_object_base.html#ac21ad5f989f320e46958b75ac8d9a1da" target="_top" xlink:title=" ">
<polygon fill="white" stroke="#666666" points="279.5,-81.5 160,-81.5 160,-51 279.5,-51 279.5,-81.5"/>
<text text-anchor="start" x="168" y="-68" font-family="Helvetica,sans-Serif" font-size="10.00">Eigen::PlainObjectBase</text>
<text text-anchor="middle" x="219.75" y="-56.75" font-family="Helvetica,sans-Serif" font-size="10.00">::setZero</text>
</a>
</g>
</g>
<!-- Node1&#45;&gt;Node11 -->
<g id="edge11_Node000001_Node000011" class="edge">
<title>Node1&#45;&gt;Node11</title>
<g id="a_edge11_Node000001_Node000011"><a xlink:title=" ">
<path fill="none" stroke="#63b8ff" d="M94.89,-105.22C113.17,-99.47 136.72,-92.06 158.36,-85.25"/>
<polygon fill="#63b8ff" stroke="#63b8ff" points="159.32,-88.3 167.8,-81.96 157.21,-81.63 159.32,-88.3"/>
</a>
</g>
</g>
<!-- Node12 -->
<g id="Node000012" class="node">
<title>Node12</title>
<g id="a_Node000012"><a xlink:href="../../d6/d95/glu-libtess_8h.html#a4292190e3f1f6b373a760c7d9316ad3c" target="_top" xlink:title=" ">
<polygon fill="white" stroke="#666666" points="236.75,-32.88 202.75,-32.88 202.75,-13.62 236.75,-13.62 236.75,-32.88"/>
<text text-anchor="middle" x="219.75" y="-19.38" font-family="Helvetica,sans-Serif" font-size="10.00">void</text>
</a>
</g>
</g>
<!-- Node1&#45;&gt;Node12 -->
<g id="edge12_Node000001_Node000012" class="edge">
<title>Node1&#45;&gt;Node12</title>
<g id="a_edge12_Node000001_Node000012"><a xlink:title=" ">
<path fill="none" stroke="#63b8ff" d="M73.81,-105.16C90.91,-89.69 125.77,-60.03 160,-42.25 169.99,-37.06 181.67,-32.93 191.97,-29.87"/>
<polygon fill="#63b8ff" stroke="#63b8ff" points="192.77,-33 201.47,-26.96 190.9,-26.26 192.77,-33"/>
</a>
</g>
</g>
<!-- Node3 -->
<g id="Node000003" class="node">
<title>Node3</title>
<g id="a_Node000003"><a xlink:href="../../d5/d91/class_eigen_1_1_dense_storage.html#aef23781f9dc545e8b3f6b75d6c05d777" target="_top" xlink:title=" ">
<polygon fill="white" stroke="#666666" points="604,-177.5 495,-177.5 495,-147 604,-147 604,-177.5"/>
<text text-anchor="start" x="503" y="-164" font-family="Helvetica,sans-Serif" font-size="10.00">Eigen::DenseStorage</text>
<text text-anchor="middle" x="549.5" y="-152.75" font-family="Helvetica,sans-Serif" font-size="10.00">::cols</text>
</a>
</g>
</g>
<!-- Node2&#45;&gt;Node3 -->
<g id="edge2_Node000002_Node000003" class="edge">
<title>Node2&#45;&gt;Node3</title>
<g id="a_edge2_Node000002_Node000003"><a xlink:title=" ">
<path fill="none" stroke="#63b8ff" d="M447.47,-162.25C459.28,-162.25 471.74,-162.25 483.72,-162.25"/>
<polygon fill="#63b8ff" stroke="#63b8ff" points="483.56,-165.75 493.56,-162.25 483.56,-158.75 483.56,-165.75"/>
</a>
</g>
</g>
<!-- Node5 -->
<g id="Node000005" class="node">
<title>Node5</title>
<g id="a_Node000005"><a xlink:href="../../d5/d91/class_eigen_1_1_dense_storage.html#abdbbeb487a245756ac498d2590e3560a" target="_top" xlink:title=" ">
<polygon fill="white" stroke="#666666" points="441.75,-226.5 332.75,-226.5 332.75,-196 441.75,-196 441.75,-226.5"/>
<text text-anchor="start" x="340.75" y="-213" font-family="Helvetica,sans-Serif" font-size="10.00">Eigen::DenseStorage</text>
<text text-anchor="middle" x="387.25" y="-201.75" font-family="Helvetica,sans-Serif" font-size="10.00">::data</text>
</a>
</g>
</g>
<!-- Node4&#45;&gt;Node5 -->
<g id="edge4_Node000004_Node000005" class="edge">
<title>Node4&#45;&gt;Node5</title>
<g id="a_edge4_Node000004_Node000005"><a xlink:title=" ">
<path fill="none" stroke="#63b8ff" d="M279.57,-208.67C293.13,-209 307.63,-209.35 321.43,-209.68"/>
<polygon fill="#63b8ff" stroke="#63b8ff" points="321.24,-213.2 331.32,-209.95 321.41,-206.21 321.24,-213.2"/>
</a>
</g>
</g>
<!-- Node6&#45;&gt;Node2 -->
<g id="edge6_Node000006_Node000002" class="edge">
<title>Node6&#45;&gt;Node2</title>
<g id="a_edge6_Node000006_Node000002"><a xlink:title=" ">
<path fill="none" stroke="#63b8ff" d="M275.86,-130.9C290.08,-134.94 305.54,-139.33 320.26,-143.51"/>
<polygon fill="#63b8ff" stroke="#63b8ff" points="319.24,-147.14 329.82,-146.51 321.15,-140.41 319.24,-147.14"/>
</a>
</g>
</g>
<!-- Node7 -->
<g id="Node000007" class="node">
<title>Node7</title>
<g id="a_Node000007"><a xlink:href="../../d5/d91/class_eigen_1_1_dense_storage.html#a22518a835225a3464a2b12396f13a12c" target="_top" xlink:title=" ">
<polygon fill="white" stroke="#666666" points="441.75,-30.5 332.75,-30.5 332.75,0 441.75,0 441.75,-30.5"/>
<text text-anchor="start" x="340.75" y="-17" font-family="Helvetica,sans-Serif" font-size="10.00">Eigen::DenseStorage</text>
<text text-anchor="middle" x="387.25" y="-5.75" font-family="Helvetica,sans-Serif" font-size="10.00">::resize</text>
</a>
</g>
</g>
<!-- Node6&#45;&gt;Node7 -->
<g id="edge7_Node000006_Node000007" class="edge">
<title>Node6&#45;&gt;Node7</title>
<g id="a_edge7_Node000006_Node000007"><a xlink:title=" ">
<path fill="none" stroke="#63b8ff" d="M264.94,-99.62C270.1,-96.9 275.08,-93.78 279.5,-90.25 300.89,-73.15 293.59,-56.67 315.5,-40.25 317.81,-38.52 320.26,-36.89 322.8,-35.38"/>
<polygon fill="#63b8ff" stroke="#63b8ff" points="324.1,-38.12 331.3,-30.34 320.83,-31.93 324.1,-38.12"/>
</a>
</g>
</g>
<!-- Node8 -->
<g id="Node000008" class="node">
<title>Node8</title>
<g id="a_Node000008"><a xlink:href="../../da/d8d/class_eigen_1_1_plain_object_base.html#aba7a925ce36c08ba2a08c90086f34718" target="_top" xlink:title=" ">
<polygon fill="white" stroke="#666666" points="447,-128.5 327.5,-128.5 327.5,-98 447,-98 447,-128.5"/>
<text text-anchor="start" x="335.5" y="-115" font-family="Helvetica,sans-Serif" font-size="10.00">Eigen::PlainObjectBase</text>
<text text-anchor="middle" x="387.25" y="-103.75" font-family="Helvetica,sans-Serif" font-size="10.00">::rows</text>
</a>
</g>
</g>
<!-- Node6&#45;&gt;Node8 -->
<g id="edge8_Node000006_Node000008" class="edge">
<title>Node6&#45;&gt;Node8</title>
<g id="a_edge8_Node000006_Node000008"><a xlink:title=" ">
<path fill="none" stroke="#63b8ff" d="M279.57,-114.54C291.49,-114.4 304.15,-114.24 316.41,-114.09"/>
<polygon fill="#63b8ff" stroke="#63b8ff" points="316.11,-117.59 326.07,-113.97 316.03,-110.59 316.11,-117.59"/>
</a>
</g>
</g>
<!-- Node10 -->
<g id="Node000010" class="node">
<title>Node10</title>
<g id="a_Node000010"><a xlink:href="../../df/d30/struct_eigen_1_1internal_1_1check__rows__cols__for__overflow.html#a96aadd23e6335d10018576e81dec4443" target="_top" xlink:title=" ">
<polygon fill="white" stroke="#666666" points="459,-79.5 315.5,-79.5 315.5,-49 459,-49 459,-79.5"/>
<text text-anchor="start" x="323.5" y="-66" font-family="Helvetica,sans-Serif" font-size="10.00">Eigen::internal::check</text>
<text text-anchor="middle" x="387.25" y="-54.75" font-family="Helvetica,sans-Serif" font-size="10.00">_rows_cols_for_overflow::run</text>
</a>
</g>
</g>
<!-- Node6&#45;&gt;Node10 -->
<g id="edge10_Node000006_Node000010" class="edge">
<title>Node6&#45;&gt;Node10</title>
<g id="a_edge10_Node000006_Node000010"><a xlink:title=" ">
<path fill="none" stroke="#63b8ff" d="M271.76,-99.53C288.67,-94.32 307.66,-88.47 325.25,-83.05"/>
<polygon fill="#63b8ff" stroke="#63b8ff" points="325.89,-86.21 334.41,-79.92 323.83,-79.52 325.89,-86.21"/>
</a>
</g>
</g>
<!-- Node9 -->
<g id="Node000009" class="node">
<title>Node9</title>
<g id="a_Node000009"><a xlink:href="../../d5/d91/class_eigen_1_1_dense_storage.html#a14b68f709f5fb46eeebb203266cc29b2" target="_top" xlink:title=" ">
<polygon fill="white" stroke="#666666" points="604,-128.5 495,-128.5 495,-98 604,-98 604,-128.5"/>
<text text-anchor="start" x="503" y="-115" font-family="Helvetica,sans-Serif" font-size="10.00">Eigen::DenseStorage</text>
<text text-anchor="middle" x="549.5" y="-103.75" font-family="Helvetica,sans-Serif" font-size="10.00">::rows</text>
</a>
</g>
</g>
<!-- Node8&#45;&gt;Node9 -->
<g id="edge9_Node000008_Node000009" class="edge">
<title>Node8&#45;&gt;Node9</title>
<g id="a_edge9_Node000008_Node000009"><a xlink:title=" ">
<path fill="none" stroke="#63b8ff" d="M447.47,-113.25C459.28,-113.25 471.74,-113.25 483.72,-113.25"/>
<polygon fill="#63b8ff" stroke="#63b8ff" points="483.56,-116.75 493.56,-113.25 483.56,-109.75 483.56,-116.75"/>
</a>
</g>
</g>
</g>
</svg>
