<?xml version="1.0" encoding="UTF-8" standalone="no"?>
<!DOCTYPE svg PUBLIC "-//W3C//DTD SVG 1.1//EN"
 "http://www.w3.org/Graphics/SVG/1.1/DTD/svg11.dtd">
<!-- Generated by graphviz version 8.0.5 (20230430.1635)
 -->
<!-- Title: igl::snap_points Pages: 1 -->
<svg width="572pt" height="209pt"
 viewBox="0.00 0.00 572.25 208.50" xmlns="http://www.w3.org/2000/svg" xmlns:xlink="http://www.w3.org/1999/xlink">
<g id="graph0" class="graph" transform="scale(1 1) rotate(0) translate(4 204.5)">
<title>igl::snap_points</title>
<!-- Node1 -->
<g id="Node000001" class="node">
<title>Node1</title>
<g id="a_Node000001"><a xlink:title=" ">
<polygon fill="#999999" stroke="#666666" points="84.25,-88.88 0,-88.88 0,-69.62 84.25,-69.62 84.25,-88.88"/>
<text text-anchor="middle" x="42.12" y="-75.38" font-family="Helvetica,sans-Serif" font-size="10.00">igl::snap_points</text>
</a>
</g>
</g>
<!-- Node2 -->
<g id="Node000002" class="node">
<title>Node2</title>
<g id="a_Node000002"><a xlink:href="../../da/d8d/class_eigen_1_1_plain_object_base.html#a10b8b33b7587da564415561aa246f78f" target="_top" xlink:title=" ">
<polygon fill="white" stroke="#666666" points="407.25,-200.5 287.75,-200.5 287.75,-170 407.25,-170 407.25,-200.5"/>
<text text-anchor="start" x="295.75" y="-187" font-family="Helvetica,sans-Serif" font-size="10.00">Eigen::PlainObjectBase</text>
<text text-anchor="middle" x="347.5" y="-175.75" font-family="Helvetica,sans-Serif" font-size="10.00">::cols</text>
</a>
</g>
</g>
<!-- Node1&#45;&gt;Node2 -->
<g id="edge1_Node000001_Node000002" class="edge">
<title>Node1&#45;&gt;Node2</title>
<g id="a_edge1_Node000001_Node000002"><a xlink:title=" ">
<path fill="none" stroke="#63b8ff" d="M57.27,-89.34C72.27,-99.63 96.97,-115.45 120.25,-125.25 170.87,-146.56 231.11,-162.1 276.7,-172.01"/>
<polygon fill="#63b8ff" stroke="#63b8ff" points="275.86,-175.62 286.37,-174.29 277.32,-168.78 275.86,-175.62"/>
</a>
</g>
</g>
<!-- Node4 -->
<g id="Node000004" class="node">
<title>Node4</title>
<g id="a_Node000004"><a xlink:href="../../da/d8d/class_eigen_1_1_plain_object_base.html#a99d9054ee2d5a40c6e00ded0265e9cea" target="_top" xlink:title=" ">
<polygon fill="white" stroke="#666666" points="239.75,-116.5 120.25,-116.5 120.25,-86 239.75,-86 239.75,-116.5"/>
<text text-anchor="start" x="128.25" y="-103" font-family="Helvetica,sans-Serif" font-size="10.00">Eigen::PlainObjectBase</text>
<text text-anchor="middle" x="180" y="-91.75" font-family="Helvetica,sans-Serif" font-size="10.00">::resize</text>
</a>
</g>
</g>
<!-- Node1&#45;&gt;Node4 -->
<g id="edge3_Node000001_Node000004" class="edge">
<title>Node1&#45;&gt;Node4</title>
<g id="a_edge3_Node000001_Node000004"><a xlink:title=" ">
<path fill="none" stroke="#63b8ff" d="M84.63,-85.97C92.48,-87.24 100.88,-88.6 109.32,-89.97"/>
<polygon fill="#63b8ff" stroke="#63b8ff" points="108.56,-93.55 118.99,-91.7 109.68,-86.64 108.56,-93.55"/>
</a>
</g>
</g>
<!-- Node6 -->
<g id="Node000006" class="node">
<title>Node6</title>
<g id="a_Node000006"><a xlink:href="../../da/d8d/class_eigen_1_1_plain_object_base.html#aba7a925ce36c08ba2a08c90086f34718" target="_top" xlink:title=" ">
<polygon fill="white" stroke="#666666" points="407.25,-53.5 287.75,-53.5 287.75,-23 407.25,-23 407.25,-53.5"/>
<text text-anchor="start" x="295.75" y="-40" font-family="Helvetica,sans-Serif" font-size="10.00">Eigen::PlainObjectBase</text>
<text text-anchor="middle" x="347.5" y="-28.75" font-family="Helvetica,sans-Serif" font-size="10.00">::rows</text>
</a>
</g>
</g>
<!-- Node1&#45;&gt;Node6 -->
<g id="edge9_Node000001_Node000006" class="edge">
<title>Node1&#45;&gt;Node6</title>
<g id="a_edge9_Node000001_Node000006"><a xlink:title=" ">
<path fill="none" stroke="#63b8ff" d="M84.67,-73.64C134.09,-66.96 217.36,-55.7 276.72,-47.68"/>
<polygon fill="#63b8ff" stroke="#63b8ff" points="277.07,-51.03 286.51,-46.22 276.13,-44.09 277.07,-51.03"/>
</a>
</g>
</g>
<!-- Node9 -->
<g id="Node000009" class="node">
<title>Node9</title>
<g id="a_Node000009"><a xlink:href="../../da/d8d/class_eigen_1_1_plain_object_base.html#ac8dea1df3d92b752cc683ff42abf6f9b" target="_top" xlink:title=" ">
<polygon fill="white" stroke="#666666" points="239.75,-30.5 120.25,-30.5 120.25,0 239.75,0 239.75,-30.5"/>
<text text-anchor="start" x="128.25" y="-17" font-family="Helvetica,sans-Serif" font-size="10.00">Eigen::PlainObjectBase</text>
<text text-anchor="middle" x="180" y="-5.75" font-family="Helvetica,sans-Serif" font-size="10.00">::setConstant</text>
</a>
</g>
</g>
<!-- Node1&#45;&gt;Node9 -->
<g id="edge10_Node000001_Node000009" class="edge">
<title>Node1&#45;&gt;Node9</title>
<g id="a_edge10_Node000001_Node000009"><a xlink:title=" ">
<path fill="none" stroke="#63b8ff" d="M64.36,-69.25C83.43,-60.27 112.01,-46.8 135.87,-35.57"/>
<polygon fill="#63b8ff" stroke="#63b8ff" points="137.21,-38.33 144.76,-30.91 134.22,-32 137.21,-38.33"/>
</a>
</g>
</g>
<!-- Node3 -->
<g id="Node000003" class="node">
<title>Node3</title>
<g id="a_Node000003"><a xlink:href="../../d5/d91/class_eigen_1_1_dense_storage.html#aef23781f9dc545e8b3f6b75d6c05d777" target="_top" xlink:title=" ">
<polygon fill="white" stroke="#666666" points="564.25,-200.5 455.25,-200.5 455.25,-170 564.25,-170 564.25,-200.5"/>
<text text-anchor="start" x="463.25" y="-187" font-family="Helvetica,sans-Serif" font-size="10.00">Eigen::DenseStorage</text>
<text text-anchor="middle" x="509.75" y="-175.75" font-family="Helvetica,sans-Serif" font-size="10.00">::cols</text>
</a>
</g>
</g>
<!-- Node2&#45;&gt;Node3 -->
<g id="edge2_Node000002_Node000003" class="edge">
<title>Node2&#45;&gt;Node3</title>
<g id="a_edge2_Node000002_Node000003"><a xlink:title=" ">
<path fill="none" stroke="#63b8ff" d="M407.72,-185.25C419.53,-185.25 431.99,-185.25 443.97,-185.25"/>
<polygon fill="#63b8ff" stroke="#63b8ff" points="443.81,-188.75 453.81,-185.25 443.81,-181.75 443.81,-188.75"/>
</a>
</g>
</g>
<!-- Node4&#45;&gt;Node2 -->
<g id="edge4_Node000004_Node000002" class="edge">
<title>Node4&#45;&gt;Node2</title>
<g id="a_edge4_Node000004_Node000002"><a xlink:title=" ">
<path fill="none" stroke="#63b8ff" d="M203.18,-117C221.9,-129.8 249.73,-147.74 275.75,-160.25 279.54,-162.07 283.5,-163.83 287.52,-165.52"/>
<polygon fill="#63b8ff" stroke="#63b8ff" points="286.01,-169.08 296.6,-169.54 288.61,-162.58 286.01,-169.08"/>
</a>
</g>
</g>
<!-- Node5 -->
<g id="Node000005" class="node">
<title>Node5</title>
<g id="a_Node000005"><a xlink:href="../../d5/d91/class_eigen_1_1_dense_storage.html#a22518a835225a3464a2b12396f13a12c" target="_top" xlink:title=" ">
<polygon fill="white" stroke="#666666" points="402,-151.5 293,-151.5 293,-121 402,-121 402,-151.5"/>
<text text-anchor="start" x="301" y="-138" font-family="Helvetica,sans-Serif" font-size="10.00">Eigen::DenseStorage</text>
<text text-anchor="middle" x="347.5" y="-126.75" font-family="Helvetica,sans-Serif" font-size="10.00">::resize</text>
</a>
</g>
</g>
<!-- Node4&#45;&gt;Node5 -->
<g id="edge5_Node000004_Node000005" class="edge">
<title>Node4&#45;&gt;Node5</title>
<g id="a_edge5_Node000004_Node000005"><a xlink:title=" ">
<path fill="none" stroke="#63b8ff" d="M239.82,-113.69C253.51,-116.58 268.17,-119.68 282.09,-122.63"/>
<polygon fill="#63b8ff" stroke="#63b8ff" points="281.06,-126.2 291.57,-124.84 282.51,-119.35 281.06,-126.2"/>
</a>
</g>
</g>
<!-- Node4&#45;&gt;Node6 -->
<g id="edge6_Node000004_Node000006" class="edge">
<title>Node4&#45;&gt;Node6</title>
<g id="a_edge6_Node000004_Node000006"><a xlink:title=" ">
<path fill="none" stroke="#63b8ff" d="M219.12,-85.54C236.35,-78.55 257.01,-70.32 275.75,-63.25 280.73,-61.37 285.92,-59.46 291.12,-57.57"/>
<polygon fill="#63b8ff" stroke="#63b8ff" points="291.88,-60.65 300.11,-53.97 289.51,-54.07 291.88,-60.65"/>
</a>
</g>
</g>
<!-- Node8 -->
<g id="Node000008" class="node">
<title>Node8</title>
<g id="a_Node000008"><a xlink:href="../../df/d30/struct_eigen_1_1internal_1_1check__rows__cols__for__overflow.html#a96aadd23e6335d10018576e81dec4443" target="_top" xlink:title=" ">
<polygon fill="white" stroke="#666666" points="419.25,-102.5 275.75,-102.5 275.75,-72 419.25,-72 419.25,-102.5"/>
<text text-anchor="start" x="283.75" y="-89" font-family="Helvetica,sans-Serif" font-size="10.00">Eigen::internal::check</text>
<text text-anchor="middle" x="347.5" y="-77.75" font-family="Helvetica,sans-Serif" font-size="10.00">_rows_cols_for_overflow::run</text>
</a>
</g>
</g>
<!-- Node4&#45;&gt;Node8 -->
<g id="edge8_Node000004_Node000008" class="edge">
<title>Node4&#45;&gt;Node8</title>
<g id="a_edge8_Node000004_Node000008"><a xlink:title=" ">
<path fill="none" stroke="#63b8ff" d="M239.82,-96.27C247.83,-95.6 256.16,-94.89 264.49,-94.19"/>
<polygon fill="#63b8ff" stroke="#63b8ff" points="264.74,-97.59 274.41,-93.26 264.15,-90.62 264.74,-97.59"/>
</a>
</g>
</g>
<!-- Node7 -->
<g id="Node000007" class="node">
<title>Node7</title>
<g id="a_Node000007"><a xlink:href="../../d5/d91/class_eigen_1_1_dense_storage.html#a14b68f709f5fb46eeebb203266cc29b2" target="_top" xlink:title=" ">
<polygon fill="white" stroke="#666666" points="564.25,-53.5 455.25,-53.5 455.25,-23 564.25,-23 564.25,-53.5"/>
<text text-anchor="start" x="463.25" y="-40" font-family="Helvetica,sans-Serif" font-size="10.00">Eigen::DenseStorage</text>
<text text-anchor="middle" x="509.75" y="-28.75" font-family="Helvetica,sans-Serif" font-size="10.00">::rows</text>
</a>
</g>
</g>
<!-- Node6&#45;&gt;Node7 -->
<g id="edge7_Node000006_Node000007" class="edge">
<title>Node6&#45;&gt;Node7</title>
<g id="a_edge7_Node000006_Node000007"><a xlink:title=" ">
<path fill="none" stroke="#63b8ff" d="M407.72,-38.25C419.53,-38.25 431.99,-38.25 443.97,-38.25"/>
<polygon fill="#63b8ff" stroke="#63b8ff" points="443.81,-41.75 453.81,-38.25 443.81,-34.75 443.81,-41.75"/>
</a>
</g>
</g>
</g>
</svg>
