<?xml version="1.0" encoding="UTF-8" standalone="no"?>
<!DOCTYPE svg PUBLIC "-//W3C//DTD SVG 1.1//EN"
 "http://www.w3.org/Graphics/SVG/1.1/DTD/svg11.dtd">
<!-- Generated by graphviz version 8.0.5 (20230430.1635)
 -->
<!-- Title: igl::mvc Pages: 1 -->
<svg width="225pt" height="76pt"
 viewBox="0.00 0.00 225.25 75.88" xmlns="http://www.w3.org/2000/svg" xmlns:xlink="http://www.w3.org/1999/xlink">
<g id="graph0" class="graph" transform="scale(1 1) rotate(0) translate(4 71.88)">
<title>igl::mvc</title>
<!-- Node1 -->
<g id="Node000001" class="node">
<title>Node1</title>
<g id="a_Node000001"><a xlink:title=" ">
<polygon fill="#999999" stroke="#666666" points="50.5,-45.88 0,-45.88 0,-26.62 50.5,-26.62 50.5,-45.88"/>
<text text-anchor="middle" x="25.25" y="-32.38" font-family="Helvetica,sans-Serif" font-size="10.00">igl::mvc</text>
</a>
</g>
</g>
<!-- Node2 -->
<g id="Node000002" class="node">
<title>Node2</title>
<g id="a_Node000002"><a xlink:href="../../dc/d25/namespaceigl.html#ad5ef981033f26b8d64e4eb94940da860" target="_top" xlink:title=" ">
<polygon fill="white" stroke="#666666" points="177.88,-67.88 125.88,-67.88 125.88,-48.62 177.88,-48.62 177.88,-67.88"/>
<text text-anchor="middle" x="151.88" y="-54.38" font-family="Helvetica,sans-Serif" font-size="10.00">igl::EPS</text>
</a>
</g>
</g>
<!-- Node1&#45;&gt;Node2 -->
<g id="edge1_Node000001_Node000002" class="edge">
<title>Node1&#45;&gt;Node2</title>
<g id="a_edge1_Node000001_Node000002"><a xlink:title=" ">
<path fill="none" stroke="#63b8ff" d="M50.87,-40.6C69.15,-43.82 94.36,-48.27 114.9,-51.9"/>
<polygon fill="#63b8ff" stroke="#63b8ff" points="113.99,-55.47 124.45,-53.76 115.21,-48.58 113.99,-55.47"/>
</a>
</g>
</g>
<!-- Node3 -->
<g id="Node000003" class="node">
<title>Node3</title>
<g id="a_Node000003"><a xlink:href="../../d6/d5d/class_eigen_1_1_col_piv_householder_q_r.html#a161e99c9e22a6563fdbeda30473ad30f" target="_top" xlink:title=" ">
<polygon fill="white" stroke="#666666" points="217.25,-30.5 86.5,-30.5 86.5,0 217.25,0 217.25,-30.5"/>
<text text-anchor="start" x="94.5" y="-17" font-family="Helvetica,sans-Serif" font-size="10.00">Eigen::ColPivHouseholder</text>
<text text-anchor="middle" x="151.88" y="-5.75" font-family="Helvetica,sans-Serif" font-size="10.00">QR::solve</text>
</a>
</g>
</g>
<!-- Node1&#45;&gt;Node3 -->
<g id="edge2_Node000001_Node000003" class="edge">
<title>Node1&#45;&gt;Node3</title>
<g id="a_edge2_Node000001_Node000003"><a xlink:title=" ">
<path fill="none" stroke="#63b8ff" d="M50.87,-32.1C58.26,-30.86 66.79,-29.42 75.68,-27.92"/>
<polygon fill="#63b8ff" stroke="#63b8ff" points="75.97,-31.25 85.25,-26.14 74.8,-24.35 75.97,-31.25"/>
</a>
</g>
</g>
</g>
</svg>
