<?xml version="1.0" encoding="UTF-8" standalone="no"?>
<!DOCTYPE svg PUBLIC "-//W3C//DTD SVG 1.1//EN"
 "http://www.w3.org/Graphics/SVG/1.1/DTD/svg11.dtd">
<!-- Generated by graphviz version 8.0.5 (20230430.1635)
 -->
<!-- Title: Eigen::IncompleteCholesky::compute Pages: 1 -->
<svg width="632pt" height="235pt"
 viewBox="0.00 0.00 632.25 234.50" xmlns="http://www.w3.org/2000/svg" xmlns:xlink="http://www.w3.org/1999/xlink">
<g id="graph0" class="graph" transform="scale(1 1) rotate(0) translate(4 230.5)">
<title>Eigen::IncompleteCholesky::compute</title>
<!-- Node1 -->
<g id="Node000001" class="node">
<title>Node1</title>
<g id="a_Node000001"><a xlink:title=" ">
<polygon fill="#999999" stroke="#666666" points="136,-103.5 0,-103.5 0,-73 136,-73 136,-103.5"/>
<text text-anchor="start" x="8" y="-90" font-family="Helvetica,sans-Serif" font-size="10.00">Eigen::IncompleteCholesky</text>
<text text-anchor="middle" x="68" y="-78.75" font-family="Helvetica,sans-Serif" font-size="10.00">::compute</text>
</a>
</g>
</g>
<!-- Node2 -->
<g id="Node000002" class="node">
<title>Node2</title>
<g id="a_Node000002"><a xlink:href="../../d3/dc4/class_eigen_1_1_incomplete_cholesky.html#a702560ecdddef77dc51d20ab22bd974e" target="_top" xlink:title="Computes the fill reducing permutation vector using the sparsity pattern of mat.">
<polygon fill="white" stroke="#666666" points="308,-128.5 172,-128.5 172,-98 308,-98 308,-128.5"/>
<text text-anchor="start" x="180" y="-115" font-family="Helvetica,sans-Serif" font-size="10.00">Eigen::IncompleteCholesky</text>
<text text-anchor="middle" x="240" y="-103.75" font-family="Helvetica,sans-Serif" font-size="10.00">::analyzePattern</text>
</a>
</g>
</g>
<!-- Node1&#45;&gt;Node2 -->
<g id="edge1_Node000001_Node000002" class="edge">
<title>Node1&#45;&gt;Node2</title>
<g id="a_edge1_Node000001_Node000002"><a xlink:title=" ">
<path fill="none" stroke="#63b8ff" d="M136.19,-98.13C144.32,-99.33 152.68,-100.56 160.95,-101.77"/>
<polygon fill="#63b8ff" stroke="#63b8ff" points="160.34,-105.37 170.74,-103.36 161.36,-98.44 160.34,-105.37"/>
</a>
</g>
</g>
<!-- Node9 -->
<g id="Node000009" class="node">
<title>Node9</title>
<g id="a_Node000009"><a xlink:href="../../d3/dc4/class_eigen_1_1_incomplete_cholesky.html#ac39c75ff7ca5d2db9a9f03b937e12601" target="_top" xlink:title="Performs the numerical factorization of the input matrix mat.">
<polygon fill="white" stroke="#666666" points="308,-79.5 172,-79.5 172,-49 308,-49 308,-79.5"/>
<text text-anchor="start" x="180" y="-66" font-family="Helvetica,sans-Serif" font-size="10.00">Eigen::IncompleteCholesky</text>
<text text-anchor="middle" x="240" y="-54.75" font-family="Helvetica,sans-Serif" font-size="10.00">::factorize</text>
</a>
</g>
</g>
<!-- Node1&#45;&gt;Node9 -->
<g id="edge8_Node000001_Node000009" class="edge">
<title>Node1&#45;&gt;Node9</title>
<g id="a_edge8_Node000001_Node000009"><a xlink:title=" ">
<path fill="none" stroke="#63b8ff" d="M136.19,-78.76C144.32,-77.62 152.68,-76.44 160.95,-75.27"/>
<polygon fill="#63b8ff" stroke="#63b8ff" points="161.33,-78.61 170.74,-73.75 160.35,-71.68 161.33,-78.61"/>
</a>
</g>
</g>
<!-- Node3 -->
<g id="Node000003" class="node">
<title>Node3</title>
<g id="a_Node000003"><a xlink:href="../../dc/dfe/class_eigen_1_1_sparse_matrix.html#af88551f30202341b7cc24cfadabdec5c" target="_top" xlink:title=" ">
<polygon fill="white" stroke="#666666" points="448.5,-128.5 344,-128.5 344,-98 448.5,-98 448.5,-128.5"/>
<text text-anchor="start" x="352" y="-115" font-family="Helvetica,sans-Serif" font-size="10.00">Eigen::SparseMatrix</text>
<text text-anchor="middle" x="396.25" y="-103.75" font-family="Helvetica,sans-Serif" font-size="10.00">::resize</text>
</a>
</g>
</g>
<!-- Node2&#45;&gt;Node3 -->
<g id="edge2_Node000002_Node000003" class="edge">
<title>Node2&#45;&gt;Node3</title>
<g id="a_edge2_Node000002_Node000003"><a xlink:title=" ">
<path fill="none" stroke="#63b8ff" d="M308.21,-113.25C316.36,-113.25 324.66,-113.25 332.73,-113.25"/>
<polygon fill="#63b8ff" stroke="#63b8ff" points="332.58,-116.75 342.58,-113.25 332.58,-109.75 332.58,-116.75"/>
</a>
</g>
</g>
<!-- Node4 -->
<g id="Node000004" class="node">
<title>Node4</title>
<g id="a_Node000004"><a xlink:href="../../da/d0d/class_eigen_1_1internal_1_1_compressed_storage.html#a827850622e91b53a2fafd0d15fcfcc8f" target="_top" xlink:title=" ">
<polygon fill="white" stroke="#666666" points="624.25,-226.5 484.5,-226.5 484.5,-196 624.25,-196 624.25,-226.5"/>
<text text-anchor="start" x="492.5" y="-213" font-family="Helvetica,sans-Serif" font-size="10.00">Eigen::internal::Compressed</text>
<text text-anchor="middle" x="554.38" y="-201.75" font-family="Helvetica,sans-Serif" font-size="10.00">Storage::clear</text>
</a>
</g>
</g>
<!-- Node3&#45;&gt;Node4 -->
<g id="edge3_Node000003_Node000004" class="edge">
<title>Node3&#45;&gt;Node4</title>
<g id="a_edge3_Node000003_Node000004"><a xlink:title=" ">
<path fill="none" stroke="#63b8ff" d="M412.38,-128.79C428.86,-144.98 456.6,-170.19 484.5,-186.25 487.48,-187.96 490.59,-189.59 493.78,-191.14"/>
<polygon fill="#63b8ff" stroke="#63b8ff" points="491.96,-194.61 502.52,-195.52 494.84,-188.23 491.96,-194.61"/>
</a>
</g>
</g>
<!-- Node5 -->
<g id="Node000005" class="node">
<title>Node5</title>
<g id="a_Node000005"><a xlink:href="../../dc/dfe/class_eigen_1_1_sparse_matrix.html#aa391750e3c530227e4a5c3c52e959975" target="_top" xlink:title=" ">
<polygon fill="white" stroke="#666666" points="606.62,-177.5 502.12,-177.5 502.12,-147 606.62,-147 606.62,-177.5"/>
<text text-anchor="start" x="510.12" y="-164" font-family="Helvetica,sans-Serif" font-size="10.00">Eigen::SparseMatrix</text>
<text text-anchor="middle" x="554.38" y="-152.75" font-family="Helvetica,sans-Serif" font-size="10.00">::cols</text>
</a>
</g>
</g>
<!-- Node3&#45;&gt;Node5 -->
<g id="edge4_Node000003_Node000005" class="edge">
<title>Node3&#45;&gt;Node5</title>
<g id="a_edge4_Node000003_Node000005"><a xlink:title=" ">
<path fill="none" stroke="#63b8ff" d="M447.08,-128.89C461.65,-133.46 477.74,-138.51 492.9,-143.27"/>
<polygon fill="#63b8ff" stroke="#63b8ff" points="491.63,-146.85 502.22,-146.51 493.72,-140.17 491.63,-146.85"/>
</a>
</g>
</g>
<!-- Node6 -->
<g id="Node000006" class="node">
<title>Node6</title>
<g id="a_Node000006"><a xlink:href="../../dc/dfe/class_eigen_1_1_sparse_matrix.html#a4e5f706cfae14d2eaec1ea1e234905f1" target="_top" xlink:title=" ">
<polygon fill="white" stroke="#666666" points="606.62,-128.5 502.12,-128.5 502.12,-98 606.62,-98 606.62,-128.5"/>
<text text-anchor="start" x="510.12" y="-115" font-family="Helvetica,sans-Serif" font-size="10.00">Eigen::SparseMatrix</text>
<text text-anchor="middle" x="554.38" y="-103.75" font-family="Helvetica,sans-Serif" font-size="10.00">::outerSize</text>
</a>
</g>
</g>
<!-- Node3&#45;&gt;Node6 -->
<g id="edge5_Node000003_Node000006" class="edge">
<title>Node3&#45;&gt;Node6</title>
<g id="a_edge5_Node000003_Node000006"><a xlink:title=" ">
<path fill="none" stroke="#63b8ff" d="M448.8,-113.25C462.39,-113.25 477.2,-113.25 491.28,-113.25"/>
<polygon fill="#63b8ff" stroke="#63b8ff" points="490.88,-116.75 500.88,-113.25 490.88,-109.75 490.88,-116.75"/>
</a>
</g>
</g>
<!-- Node7 -->
<g id="Node000007" class="node">
<title>Node7</title>
<g id="a_Node000007"><a xlink:href="../../dc/dfe/class_eigen_1_1_sparse_matrix.html#a62e61bb861eee306d5b069ce652b5aa5" target="_top" xlink:title=" ">
<polygon fill="white" stroke="#666666" points="606.62,-79.5 502.12,-79.5 502.12,-49 606.62,-49 606.62,-79.5"/>
<text text-anchor="start" x="510.12" y="-66" font-family="Helvetica,sans-Serif" font-size="10.00">Eigen::SparseMatrix</text>
<text text-anchor="middle" x="554.38" y="-54.75" font-family="Helvetica,sans-Serif" font-size="10.00">::rows</text>
</a>
</g>
</g>
<!-- Node3&#45;&gt;Node7 -->
<g id="edge6_Node000003_Node000007" class="edge">
<title>Node3&#45;&gt;Node7</title>
<g id="a_edge6_Node000003_Node000007"><a xlink:title=" ">
<path fill="none" stroke="#63b8ff" d="M447.08,-97.61C461.65,-93.04 477.74,-87.99 492.9,-83.23"/>
<polygon fill="#63b8ff" stroke="#63b8ff" points="493.72,-86.33 502.22,-79.99 491.63,-79.65 493.72,-86.33"/>
</a>
</g>
</g>
<!-- Node8 -->
<g id="Node000008" class="node">
<title>Node8</title>
<g id="a_Node000008"><a xlink:href="../../d7/dc9/namespace_eigen_1_1internal.html#aa03c647c0da4f77a83252fd9bd097ca4" target="_top" xlink:title=" ">
<polygon fill="white" stroke="#666666" points="608.5,-30.5 500.25,-30.5 500.25,0 608.5,0 608.5,-30.5"/>
<text text-anchor="start" x="508.25" y="-17" font-family="Helvetica,sans-Serif" font-size="10.00">Eigen::internal::throw</text>
<text text-anchor="middle" x="554.38" y="-5.75" font-family="Helvetica,sans-Serif" font-size="10.00">_std_bad_alloc</text>
</a>
</g>
</g>
<!-- Node3&#45;&gt;Node8 -->
<g id="edge7_Node000003_Node000008" class="edge">
<title>Node3&#45;&gt;Node8</title>
<g id="a_edge7_Node000003_Node000008"><a xlink:title=" ">
<path fill="none" stroke="#63b8ff" d="M412.38,-97.71C428.86,-81.52 456.6,-56.31 484.5,-40.25 487.48,-38.54 490.59,-36.91 493.78,-35.36"/>
<polygon fill="#63b8ff" stroke="#63b8ff" points="494.84,-38.27 502.52,-30.98 491.96,-31.89 494.84,-38.27"/>
</a>
</g>
</g>
</g>
</svg>
