<?xml version="1.0" encoding="UTF-8" standalone="no"?>
<!DOCTYPE svg PUBLIC "-//W3C//DTD SVG 1.1//EN"
 "http://www.w3.org/Graphics/SVG/1.1/DTD/svg11.dtd">
<!-- Generated by graphviz version 8.0.5 (20230430.1635)
 -->
<!-- Title: Slic3r::Arachne::SkeletalTrapezoidation::filterCentral Pages: 1 -->
<svg width="713pt" height="192pt"
 viewBox="0.00 0.00 713.25 191.50" xmlns="http://www.w3.org/2000/svg" xmlns:xlink="http://www.w3.org/1999/xlink">
<g id="graph0" class="graph" transform="scale(1 1) rotate(0) translate(4 187.5)">
<title>Slic3r::Arachne::SkeletalTrapezoidation::filterCentral</title>
<!-- Node1 -->
<g id="Node000001" class="node">
<title>Node1</title>
<g id="a_Node000001"><a xlink:title=" ">
<polygon fill="#999999" stroke="#666666" points="136,-94.5 0,-94.5 0,-64 136,-64 136,-94.5"/>
<text text-anchor="start" x="8" y="-81" font-family="Helvetica,sans-Serif" font-size="10.00">Slic3r::Arachne::Skeletal</text>
<text text-anchor="middle" x="68" y="-69.75" font-family="Helvetica,sans-Serif" font-size="10.00">Trapezoidation::filterCentral</text>
</a>
</g>
</g>
<!-- Node2 -->
<g id="Node000002" class="node">
<title>Node2</title>
<g id="a_Node000002"><a xlink:href="../../d9/d17/class_slic3r_1_1_arachne_1_1_skeletal_trapezoidation.html#af80e4f8224733b34fa0c4b5b11543a78" target="_top" xlink:title=" ">
<polygon fill="white" stroke="#666666" points="320.75,-165.5 184.75,-165.5 184.75,-135 320.75,-135 320.75,-165.5"/>
<text text-anchor="start" x="192.75" y="-152" font-family="Helvetica,sans-Serif" font-size="10.00">Slic3r::Arachne::Skeletal</text>
<text text-anchor="middle" x="252.75" y="-140.75" font-family="Helvetica,sans-Serif" font-size="10.00">Trapezoidation::filterCentral</text>
</a>
</g>
</g>
<!-- Node1&#45;&gt;Node2 -->
<g id="edge1_Node000001_Node000002" class="edge">
<title>Node1&#45;&gt;Node2</title>
<g id="a_edge1_Node000001_Node000002"><a xlink:title=" ">
<path fill="none" stroke="#63b8ff" d="M101.53,-94.94C121.6,-104.33 148.01,-116.17 172,-125.25 177.34,-127.27 182.93,-129.26 188.56,-131.19"/>
<polygon fill="#63b8ff" stroke="#63b8ff" points="187.1,-134.72 197.69,-134.57 189.31,-128.08 187.1,-134.72"/>
</a>
</g>
</g>
<!-- Node5 -->
<g id="Node000005" class="node">
<title>Node5</title>
<g id="a_Node000005"><a xlink:href="../../dc/d63/class_slic3r_1_1_arachne_1_1_s_t_half_edge_node.html#a3bf874f1263973b395cc063fefb09881" target="_top" xlink:title=" ">
<polygon fill="white" stroke="#666666" points="323.75,-116.5 181.75,-116.5 181.75,-86 323.75,-86 323.75,-116.5"/>
<text text-anchor="start" x="189.75" y="-103" font-family="Helvetica,sans-Serif" font-size="10.00">Slic3r::Arachne::STHalfEdge</text>
<text text-anchor="middle" x="252.75" y="-91.75" font-family="Helvetica,sans-Serif" font-size="10.00">Node::isLocalMaximum</text>
</a>
</g>
</g>
<!-- Node1&#45;&gt;Node5 -->
<g id="edge5_Node000001_Node000005" class="edge">
<title>Node1&#45;&gt;Node5</title>
<g id="a_edge5_Node000001_Node000005"><a xlink:title=" ">
<path fill="none" stroke="#63b8ff" d="M136.27,-87.35C147.45,-88.69 159.16,-90.1 170.64,-91.49"/>
<polygon fill="#63b8ff" stroke="#63b8ff" points="170.21,-95.08 180.56,-92.8 171.05,-88.13 170.21,-95.08"/>
</a>
</g>
</g>
<!-- Node7 -->
<g id="Node000007" class="node">
<title>Node7</title>
<g id="a_Node000007"><a xlink:href="../../de/db8/namespace_slic3r.html#a1eea52f5cabe9f6172fcec07fb0fed76" target="_top" xlink:title=" ">
<polygon fill="white" stroke="#666666" points="289.25,-67.88 216.25,-67.88 216.25,-48.62 289.25,-48.62 289.25,-67.88"/>
<text text-anchor="middle" x="252.75" y="-54.38" font-family="Helvetica,sans-Serif" font-size="10.00">Slic3r::length</text>
</a>
</g>
</g>
<!-- Node1&#45;&gt;Node7 -->
<g id="edge7_Node000001_Node000007" class="edge">
<title>Node1&#45;&gt;Node7</title>
<g id="a_edge7_Node000001_Node000007"><a xlink:title=" ">
<path fill="none" stroke="#63b8ff" d="M136.27,-71.52C159.13,-68.89 184.16,-66.02 205.06,-63.62"/>
<polygon fill="#63b8ff" stroke="#63b8ff" points="205.35,-66.99 214.88,-62.37 204.55,-60.04 205.35,-66.99"/>
</a>
</g>
</g>
<!-- Node8 -->
<g id="Node000008" class="node">
<title>Node8</title>
<g id="a_Node000008"><a xlink:href="../../d7/d9b/class_slic3r_1_1_arachne_1_1_skeletal_trapezoidation_edge.html#ac6a512d25c276d19178a044c7bffdf7c" target="_top" xlink:title=" ">
<polygon fill="white" stroke="#666666" points="333.5,-30.5 172,-30.5 172,0 333.5,0 333.5,-30.5"/>
<text text-anchor="start" x="180" y="-17" font-family="Helvetica,sans-Serif" font-size="10.00">Slic3r::Arachne::Skeletal</text>
<text text-anchor="middle" x="252.75" y="-5.75" font-family="Helvetica,sans-Serif" font-size="10.00">TrapezoidationEdge::setIsCentral</text>
</a>
</g>
</g>
<!-- Node1&#45;&gt;Node8 -->
<g id="edge8_Node000001_Node000008" class="edge">
<title>Node1&#45;&gt;Node8</title>
<g id="a_edge8_Node000001_Node000008"><a xlink:title=" ">
<path fill="none" stroke="#63b8ff" d="M107.38,-63.53C126.64,-55.84 150.41,-46.68 172,-39.25 176.87,-37.57 181.93,-35.9 187.03,-34.26"/>
<polygon fill="#63b8ff" stroke="#63b8ff" points="188.03,-37.3 196.51,-30.95 185.93,-30.62 188.03,-37.3"/>
</a>
</g>
</g>
<!-- Node2&#45;&gt;Node2 -->
<g id="edge2_Node000002_Node000002" class="edge">
<title>Node2&#45;&gt;Node2</title>
<g id="a_edge2_Node000002_Node000002"><a xlink:title=" ">
<path fill="none" stroke="#63b8ff" d="M220.01,-165.99C213.33,-175.06 224.24,-183.5 252.75,-183.5 268.78,-183.5 279.25,-180.83 284.15,-176.88"/>
<polygon fill="#63b8ff" stroke="#63b8ff" points="287.75,-177.34 285.49,-166.99 280.8,-176.49 287.75,-177.34"/>
</a>
</g>
</g>
<!-- Node3 -->
<g id="Node000003" class="node">
<title>Node3</title>
<g id="a_Node000003"><a xlink:href="../../d9/d17/class_slic3r_1_1_arachne_1_1_skeletal_trapezoidation.html#a7d815ed5462c44b1a4c14a91b31b092b" target="_top" xlink:title=" ">
<polygon fill="white" stroke="#666666" points="522,-165.5 369.5,-165.5 369.5,-135 522,-135 522,-165.5"/>
<text text-anchor="start" x="377.5" y="-152" font-family="Helvetica,sans-Serif" font-size="10.00">Slic3r::Arachne::Skeletal</text>
<text text-anchor="middle" x="445.75" y="-140.75" font-family="Helvetica,sans-Serif" font-size="10.00">Trapezoidation::isEndOfCentral</text>
</a>
</g>
</g>
<!-- Node2&#45;&gt;Node3 -->
<g id="edge3_Node000002_Node000003" class="edge">
<title>Node2&#45;&gt;Node3</title>
<g id="a_edge3_Node000002_Node000003"><a xlink:title=" ">
<path fill="none" stroke="#63b8ff" d="M321.09,-150.25C333.13,-150.25 345.84,-150.25 358.33,-150.25"/>
<polygon fill="#63b8ff" stroke="#63b8ff" points="358.23,-153.75 368.23,-150.25 358.23,-146.75 358.23,-153.75"/>
</a>
</g>
</g>
<!-- Node4 -->
<g id="Node000004" class="node">
<title>Node4</title>
<g id="a_Node000004"><a xlink:href="../../d7/d9b/class_slic3r_1_1_arachne_1_1_skeletal_trapezoidation_edge.html#aaf3f757d8d576693f901b34e0fb360c7" target="_top" xlink:title=" ">
<polygon fill="white" stroke="#666666" points="705.25,-165.5 558,-165.5 558,-135 705.25,-135 705.25,-165.5"/>
<text text-anchor="start" x="566" y="-152" font-family="Helvetica,sans-Serif" font-size="10.00">Slic3r::Arachne::Skeletal</text>
<text text-anchor="middle" x="631.62" y="-140.75" font-family="Helvetica,sans-Serif" font-size="10.00">TrapezoidationEdge::isCentral</text>
</a>
</g>
</g>
<!-- Node3&#45;&gt;Node4 -->
<g id="edge4_Node000003_Node000004" class="edge">
<title>Node3&#45;&gt;Node4</title>
<g id="a_edge4_Node000003_Node000004"><a xlink:title=" ">
<path fill="none" stroke="#63b8ff" d="M522.34,-150.25C530.46,-150.25 538.77,-150.25 546.98,-150.25"/>
<polygon fill="#63b8ff" stroke="#63b8ff" points="546.7,-153.75 556.7,-150.25 546.7,-146.75 546.7,-153.75"/>
</a>
</g>
</g>
<!-- Node6 -->
<g id="Node000006" class="node">
<title>Node6</title>
<g id="a_Node000006"><a xlink:href="../../d9/da5/class_slic3r_1_1_arachne_1_1_s_t_half_edge.html#a6c54015b8af44e330e3557cf9b309327" target="_top" xlink:title=" ">
<polygon fill="white" stroke="#666666" points="516.75,-116.5 374.75,-116.5 374.75,-86 516.75,-86 516.75,-116.5"/>
<text text-anchor="start" x="382.75" y="-103" font-family="Helvetica,sans-Serif" font-size="10.00">Slic3r::Arachne::STHalfEdge</text>
<text text-anchor="middle" x="445.75" y="-91.75" font-family="Helvetica,sans-Serif" font-size="10.00">::canGoUp</text>
</a>
</g>
</g>
<!-- Node5&#45;&gt;Node6 -->
<g id="edge6_Node000005_Node000006" class="edge">
<title>Node5&#45;&gt;Node6</title>
<g id="a_edge6_Node000005_Node000006"><a xlink:title=" ">
<path fill="none" stroke="#63b8ff" d="M324.06,-101.25C336.86,-101.25 350.3,-101.25 363.39,-101.25"/>
<polygon fill="#63b8ff" stroke="#63b8ff" points="363.27,-104.75 373.27,-101.25 363.27,-97.75 363.27,-104.75"/>
</a>
</g>
</g>
</g>
</svg>
