<?xml version="1.0" encoding="UTF-8" standalone="no"?>
<!DOCTYPE svg PUBLIC "-//W3C//DTD SVG 1.1//EN"
 "http://www.w3.org/Graphics/SVG/1.1/DTD/svg11.dtd">
<!-- Generated by graphviz version 8.0.5 (20230430.1635)
 -->
<!-- Title: Eigen::IterativeSolverBase::grab Pages: 1 -->
<svg width="477pt" height="137pt"
 viewBox="0.00 0.00 476.75 136.50" xmlns="http://www.w3.org/2000/svg" xmlns:xlink="http://www.w3.org/1999/xlink">
<g id="graph0" class="graph" transform="scale(1 1) rotate(0) translate(4 132.5)">
<title>Eigen::IterativeSolverBase::grab</title>
<!-- Node1 -->
<g id="Node000001" class="node">
<title>Node1</title>
<g id="a_Node000001"><a xlink:title=" ">
<polygon fill="#999999" stroke="#666666" points="468.75,-79.5 336.5,-79.5 336.5,-49 468.75,-49 468.75,-79.5"/>
<text text-anchor="start" x="344.5" y="-66" font-family="Helvetica,sans-Serif" font-size="10.00">Eigen::IterativeSolverBase</text>
<text text-anchor="middle" x="402.62" y="-54.75" font-family="Helvetica,sans-Serif" font-size="10.00">::grab</text>
</a>
</g>
</g>
<!-- Node2 -->
<g id="Node000002" class="node">
<title>Node2</title>
<g id="a_Node000002"><a xlink:href="../../d4/df4/class_eigen_1_1_iterative_solver_base.html#a7490c6531b523f768c0fb3b44f251dad" target="_top" xlink:title=" ">
<polygon fill="white" stroke="#666666" points="300.5,-128.5 168.25,-128.5 168.25,-98 300.5,-98 300.5,-128.5"/>
<text text-anchor="start" x="176.25" y="-115" font-family="Helvetica,sans-Serif" font-size="10.00">Eigen::IterativeSolverBase</text>
<text text-anchor="middle" x="234.38" y="-103.75" font-family="Helvetica,sans-Serif" font-size="10.00">::analyzePattern</text>
</a>
</g>
</g>
<!-- Node1&#45;&gt;Node2 -->
<g id="edge1_Node000001_Node000002" class="edge">
<title>Node1&#45;&gt;Node2</title>
<g id="a_edge1_Node000001_Node000002"><a xlink:title=" ">
<path fill="none" stroke="#63b8ff" d="M338.06,-82.98C321.8,-87.78 304.48,-92.88 288.79,-97.51"/>
<polygon fill="#63b8ff" stroke="#63b8ff" points="338.96,-86.07 347.57,-79.89 336.98,-79.36 338.96,-86.07"/>
</a>
</g>
</g>
<!-- Node3 -->
<g id="Node000003" class="node">
<title>Node3</title>
<g id="a_Node000003"><a xlink:href="../../d4/df4/class_eigen_1_1_iterative_solver_base.html#a3b0d9691964793bd55937666426fefbf" target="_top" xlink:title=" ">
<polygon fill="white" stroke="#666666" points="300.5,-79.5 168.25,-79.5 168.25,-49 300.5,-49 300.5,-79.5"/>
<text text-anchor="start" x="176.25" y="-66" font-family="Helvetica,sans-Serif" font-size="10.00">Eigen::IterativeSolverBase</text>
<text text-anchor="middle" x="234.38" y="-54.75" font-family="Helvetica,sans-Serif" font-size="10.00">::compute</text>
</a>
</g>
</g>
<!-- Node1&#45;&gt;Node3 -->
<g id="edge2_Node000001_Node000003" class="edge">
<title>Node1&#45;&gt;Node3</title>
<g id="a_edge2_Node000001_Node000003"><a xlink:title=" ">
<path fill="none" stroke="#63b8ff" d="M325.64,-64.25C317.4,-64.25 309.07,-64.25 300.96,-64.25"/>
<polygon fill="#63b8ff" stroke="#63b8ff" points="325.4,-67.75 335.4,-64.25 325.4,-60.75 325.4,-67.75"/>
</a>
</g>
</g>
<!-- Node5 -->
<g id="Node000005" class="node">
<title>Node5</title>
<g id="a_Node000005"><a xlink:href="../../d4/df4/class_eigen_1_1_iterative_solver_base.html#a86f8f9865bedacfdf2322f52dde78e23" target="_top" xlink:title=" ">
<polygon fill="white" stroke="#666666" points="300.5,-30.5 168.25,-30.5 168.25,0 300.5,0 300.5,-30.5"/>
<text text-anchor="start" x="176.25" y="-17" font-family="Helvetica,sans-Serif" font-size="10.00">Eigen::IterativeSolverBase</text>
<text text-anchor="middle" x="234.38" y="-5.75" font-family="Helvetica,sans-Serif" font-size="10.00">::factorize</text>
</a>
</g>
</g>
<!-- Node1&#45;&gt;Node5 -->
<g id="edge4_Node000001_Node000005" class="edge">
<title>Node1&#45;&gt;Node5</title>
<g id="a_edge4_Node000001_Node000005"><a xlink:title=" ">
<path fill="none" stroke="#63b8ff" d="M338.06,-45.52C321.8,-40.72 304.48,-35.62 288.79,-30.99"/>
<polygon fill="#63b8ff" stroke="#63b8ff" points="336.98,-49.14 347.57,-48.61 338.96,-42.43 336.98,-49.14"/>
</a>
</g>
</g>
<!-- Node4 -->
<g id="Node000004" class="node">
<title>Node4</title>
<g id="a_Node000004"><a xlink:href="../../d4/df4/class_eigen_1_1_iterative_solver_base.html#a3c68fe3cd929ea1ff8a0d4cbcd65ebad" target="_top" xlink:title=" ">
<polygon fill="white" stroke="#666666" points="132.25,-79.5 0,-79.5 0,-49 132.25,-49 132.25,-79.5"/>
<text text-anchor="start" x="8" y="-66" font-family="Helvetica,sans-Serif" font-size="10.00">Eigen::IterativeSolverBase</text>
<text text-anchor="middle" x="66.12" y="-54.75" font-family="Helvetica,sans-Serif" font-size="10.00">::IterativeSolverBase</text>
</a>
</g>
</g>
<!-- Node3&#45;&gt;Node4 -->
<g id="edge3_Node000003_Node000004" class="edge">
<title>Node3&#45;&gt;Node4</title>
<g id="a_edge3_Node000003_Node000004"><a xlink:title=" ">
<path fill="none" stroke="#63b8ff" d="M157.39,-64.25C149.15,-64.25 140.82,-64.25 132.71,-64.25"/>
<polygon fill="#63b8ff" stroke="#63b8ff" points="157.15,-67.75 167.15,-64.25 157.15,-60.75 157.15,-67.75"/>
</a>
</g>
</g>
</g>
</svg>
