<?xml version="1.0" encoding="UTF-8" standalone="no"?>
<!DOCTYPE svg PUBLIC "-//W3C//DTD SVG 1.1//EN"
 "http://www.w3.org/Graphics/SVG/1.1/DTD/svg11.dtd">
<!-- Generated by graphviz version 8.0.5 (20230430.1635)
 -->
<!-- Title: Slic3r::GUI::Plater::priv::reset_project_dirty_after_save Pages: 1 -->
<!--zoomable 186 -->

<svg id="main" version="1.1" xmlns="http://www.w3.org/2000/svg" xmlns:xlink="http://www.w3.org/1999/xlink" xml:space="preserve" onload="init(evt)">
<style type="text/css"><![CDATA[
.node, .edge {opacity: 0.7;}
.node.selected, .edge.selected {opacity: 1;}
.edge:hover path { stroke: red; }
.edge:hover polygon { stroke: red; fill: red; }
]]></style>

<defs>
  <circle id="rim" cx="0" cy="0" r="7"/>
  <circle id="rim2" cx="0" cy="0" r="3.5"/>
  <g id="zoomPlus">
    <use xlink:href="#rim" fill="#404040"><set attributeName="fill" to="#808080" begin="zoomplus.mouseover" end="zoomplus.mouseout"/></use>
    <path d="M-4,0h8M0,-4v8" fill="none" stroke="white" stroke-width="1.5" pointer-events="none"/>
  </g>
  <g id="zoomMin">
    <use xlink:href="#rim" fill="#404040"><set attributeName="fill" to="#808080" begin="zoomminus.mouseover" end="zoomminus.mouseout"/></use>
    <path d="M-4,0h8" fill="none" stroke="white" stroke-width="1.5" pointer-events="none"/>
  </g>
  <g id="arrowUp" transform="translate(30 24)">
    <use xlink:href="#rim"/>
    <path pointer-events="none" fill="none" stroke="white" stroke-width="1.5" d="M0,-3.0v7 M-2.5,-0.5L0,-3.0L2.5,-0.5"/>
  </g>
  <g id="arrowRight" transform="rotate(90) translate(36 -43)">
    <use xlink:href="#rim"/>
    <path pointer-events="none" fill="none" stroke="white" stroke-width="1.5" d="M0,-3.0v7 M-2.5,-0.5L0,-3.0L2.5,-0.5"/>
  </g>
  <g id="arrowDown" transform="rotate(180) translate(-30 -48)">
    <use xlink:href="#rim"/>
    <path pointer-events="none" fill="none" stroke="white" stroke-width="1.5" d="M0,-3.0v7 M-2.5,-0.5L0,-3.0L2.5,-0.5"/>
  </g>
  <g id="arrowLeft" transform="rotate(270) translate(-36 17)">
    <use xlink:href="#rim"/>
    <path pointer-events="none" fill="none" stroke="white" stroke-width="1.5" d="M0,-3.0v7 M-2.5,-0.5L0,-3.0L2.5,-0.5"/>
  </g>
  <g id="resetDef">
    <use xlink:href="#rim2" fill="#404040"><set attributeName="fill" to="#808080" begin="reset.mouseover" end="reset.mouseout"/></use>
  </g>
</defs>
<script type="application/ecmascript">
var viewWidth = 943;
var viewHeight = 186;
var sectionId = 'dynsection-60';
</script>
<script type="application/ecmascript" xlink:href="../../svg.min.js"/>
<svg id="graph" class="graph">
<g id="viewport">
<title>Slic3r::GUI::Plater::priv::reset_project_dirty_after_save</title>
<!-- Node1 -->
<g id="Node000001" class="node">
<title>Node1</title>
<g id="a_Node000001"><a xlink:title=" ">
<polygon fill="#999999" stroke="#666666" points="100,-84.12 0,-84.12 0,-42.38 100,-42.38 100,-84.12"/>
<text text-anchor="start" x="8" y="-70.62" font-family="Helvetica,sans-Serif" font-size="10.00">Slic3r::GUI::Plater</text>
<text text-anchor="start" x="8" y="-59.38" font-family="Helvetica,sans-Serif" font-size="10.00">::priv::reset_project</text>
<text text-anchor="middle" x="50" y="-48.12" font-family="Helvetica,sans-Serif" font-size="10.00">_dirty_after_save</text>
</a>
</g>
</g>
<!-- Node2 -->
<g id="Node000002" class="node">
<title>Node2</title>
<g id="a_Node000002"><a xlink:href="../../d8/d9b/class_slic3r_1_1_g_u_i_1_1_project_dirty_state_manager.html#a248fbbffac1b53172e463745971add3d" target="_top" xlink:title=" ">
<polygon fill="white" stroke="#666666" points="291.5,-78.5 136,-78.5 136,-48 291.5,-48 291.5,-78.5"/>
<text text-anchor="start" x="144" y="-65" font-family="Helvetica,sans-Serif" font-size="10.00">Slic3r::GUI::ProjectDirty</text>
<text text-anchor="middle" x="213.75" y="-53.75" font-family="Helvetica,sans-Serif" font-size="10.00">StateManager::reset_after_save</text>
</a>
</g>
</g>
<!-- Node1&#45;&gt;Node2 -->
<g id="edge1_Node000001_Node000002" class="edge">
<title>Node1&#45;&gt;Node2</title>
<g id="a_edge1_Node000001_Node000002"><a xlink:title=" ">
<path fill="none" stroke="#63b8ff" d="M100.41,-63.25C108.16,-63.25 116.37,-63.25 124.68,-63.25"/>
<polygon fill="#63b8ff" stroke="#63b8ff" points="124.64,-66.75 134.64,-63.25 124.64,-59.75 124.64,-66.75"/>
</a>
</g>
</g>
<!-- Node3 -->
<g id="Node000003" class="node">
<title>Node3</title>
<g id="a_Node000003"><a xlink:href="../../d8/d9b/class_slic3r_1_1_g_u_i_1_1_project_dirty_state_manager.html#aac12ed343e65589c55400764ad537e01" target="_top" xlink:title=" ">
<polygon fill="white" stroke="#666666" points="459.75,-84.12 327.5,-84.12 327.5,-42.38 459.75,-42.38 459.75,-84.12"/>
<text text-anchor="start" x="335.5" y="-70.62" font-family="Helvetica,sans-Serif" font-size="10.00">Slic3r::GUI::ProjectDirty</text>
<text text-anchor="start" x="335.5" y="-59.38" font-family="Helvetica,sans-Serif" font-size="10.00">StateManager::reset_initial</text>
<text text-anchor="middle" x="393.62" y="-48.12" font-family="Helvetica,sans-Serif" font-size="10.00">_presets</text>
</a>
</g>
</g>
<!-- Node2&#45;&gt;Node3 -->
<g id="edge2_Node000002_Node000003" class="edge">
<title>Node2&#45;&gt;Node3</title>
<g id="a_edge2_Node000002_Node000003"><a xlink:title=" ">
<path fill="none" stroke="#63b8ff" d="M291.99,-63.25C300.05,-63.25 308.24,-63.25 316.28,-63.25"/>
<polygon fill="#63b8ff" stroke="#63b8ff" points="316.15,-66.75 326.15,-63.25 316.15,-59.75 316.15,-66.75"/>
</a>
</g>
</g>
<!-- Node4 -->
<g id="Node000004" class="node">
<title>Node4</title>
<g id="a_Node000004"><a xlink:href="../../d9/d01/class_slic3r_1_1_g_u_i_1_1_g_u_i___app.html#a8a5a6110ab9d551381759acd1b33d52a" target="_top" xlink:title=" ">
<polygon fill="white" stroke="#666666" points="646.75,-103.5 495.75,-103.5 495.75,-73 646.75,-73 646.75,-103.5"/>
<text text-anchor="start" x="503.75" y="-90" font-family="Helvetica,sans-Serif" font-size="10.00">Slic3r::GUI::GUI_App</text>
<text text-anchor="middle" x="571.25" y="-78.75" font-family="Helvetica,sans-Serif" font-size="10.00">::get_active_preset_collections</text>
</a>
</g>
</g>
<!-- Node3&#45;&gt;Node4 -->
<g id="edge3_Node000003_Node000004" class="edge">
<title>Node3&#45;&gt;Node4</title>
<g id="a_edge3_Node000003_Node000004"><a xlink:title=" ">
<path fill="none" stroke="#63b8ff" d="M460.02,-72.56C468.02,-73.7 476.29,-74.87 484.53,-76.05"/>
<polygon fill="#63b8ff" stroke="#63b8ff" points="483.94,-79.64 494.33,-77.59 484.92,-72.71 483.94,-79.64"/>
</a>
</g>
</g>
<!-- Node10 -->
<g id="Node000010" class="node">
<title>Node10</title>
<g id="a_Node000010"><a xlink:href="../../d9/d01/class_slic3r_1_1_g_u_i_1_1_g_u_i___app.html#ae9765d164758a43bdae2802fb42ac525" target="_top" xlink:title=" ">
<polygon fill="white" stroke="#666666" points="626.88,-54.5 515.62,-54.5 515.62,-24 626.88,-24 626.88,-54.5"/>
<text text-anchor="start" x="523.62" y="-41" font-family="Helvetica,sans-Serif" font-size="10.00">Slic3r::GUI::GUI_App</text>
<text text-anchor="middle" x="571.25" y="-29.75" font-family="Helvetica,sans-Serif" font-size="10.00">::model</text>
</a>
</g>
</g>
<!-- Node3&#45;&gt;Node10 -->
<g id="edge8_Node000003_Node000010" class="edge">
<title>Node3&#45;&gt;Node10</title>
<g id="a_edge8_Node000003_Node000010"><a xlink:title=" ">
<path fill="none" stroke="#63b8ff" d="M460.02,-54.31C474.48,-52.34 489.8,-50.24 504.28,-48.27"/>
<polygon fill="#63b8ff" stroke="#63b8ff" points="504.72,-51.6 514.16,-46.78 503.77,-44.67 504.72,-51.6"/>
</a>
</g>
</g>
<!-- Node5 -->
<g id="Node000005" class="node">
<title>Node5</title>
<g id="a_Node000005"><a xlink:href="../../d9/d24/class_slic3r_1_1_preset_collection.html#a749d8ca3a5db3c393c201a7df55eefbd" target="_top" xlink:title=" ">
<polygon fill="white" stroke="#666666" points="801.5,-177.5 682.75,-177.5 682.75,-147 801.5,-147 801.5,-177.5"/>
<text text-anchor="start" x="690.75" y="-164" font-family="Helvetica,sans-Serif" font-size="10.00">Slic3r::PresetCollection</text>
<text text-anchor="middle" x="742.12" y="-152.75" font-family="Helvetica,sans-Serif" font-size="10.00">::get_edited_preset</text>
</a>
</g>
</g>
<!-- Node4&#45;&gt;Node5 -->
<g id="edge4_Node000004_Node000005" class="edge">
<title>Node4&#45;&gt;Node5</title>
<g id="a_edge4_Node000004_Node000005"><a xlink:title=" ">
<path fill="none" stroke="#63b8ff" d="M607.04,-103.81C628.77,-113.5 657.36,-126.18 682.75,-137.25 686.56,-138.91 690.52,-140.63 694.5,-142.34"/>
<polygon fill="#63b8ff" stroke="#63b8ff" points="692.78,-145.85 703.35,-146.58 695.55,-139.42 692.78,-145.85"/>
</a>
</g>
</g>
<!-- Node6 -->
<g id="Node000006" class="node">
<title>Node6</title>
<g id="a_Node000006"><a xlink:href="../../d9/d45/namespace_slic3r_1_1_g_u_i.html#a16222266bd95577d0fddd938c4f1bbbf" target="_top" xlink:title=" ">
<polygon fill="white" stroke="#666666" points="791,-128.5 693.25,-128.5 693.25,-98 791,-98 791,-128.5"/>
<text text-anchor="start" x="701.25" y="-115" font-family="Helvetica,sans-Serif" font-size="10.00">Slic3r::GUI::printer</text>
<text text-anchor="middle" x="742.12" y="-103.75" font-family="Helvetica,sans-Serif" font-size="10.00">_technology</text>
</a>
</g>
</g>
<!-- Node4&#45;&gt;Node6 -->
<g id="edge5_Node000004_Node000006" class="edge">
<title>Node4&#45;&gt;Node6</title>
<g id="a_edge5_Node000004_Node000006"><a xlink:title=" ">
<path fill="none" stroke="#63b8ff" d="M646.81,-99.29C658.73,-101.05 670.92,-102.86 682.4,-104.56"/>
<polygon fill="#63b8ff" stroke="#63b8ff" points="681.76,-108.15 692.16,-106.15 682.78,-101.22 681.76,-108.15"/>
</a>
</g>
</g>
<!-- Node7 -->
<g id="Node000007" class="node">
<title>Node7</title>
<g id="a_Node000007"><a xlink:href="../../d9/db2/class_slic3r_1_1_preset.html#a959b555f2e1c1b7042080c862ce14a4c" target="_top" xlink:title=" ">
<polygon fill="white" stroke="#666666" points="796.25,-79.5 688,-79.5 688,-49 796.25,-49 796.25,-79.5"/>
<text text-anchor="start" x="696" y="-66" font-family="Helvetica,sans-Serif" font-size="10.00">Slic3r::Preset::printer</text>
<text text-anchor="middle" x="742.12" y="-54.75" font-family="Helvetica,sans-Serif" font-size="10.00">_technology</text>
</a>
</g>
</g>
<!-- Node4&#45;&gt;Node7 -->
<g id="edge6_Node000004_Node000007" class="edge">
<title>Node4&#45;&gt;Node7</title>
<g id="a_edge6_Node000004_Node000007"><a xlink:title=" ">
<path fill="none" stroke="#63b8ff" d="M646.81,-77.65C656.83,-76.23 667.03,-74.78 676.85,-73.39"/>
<polygon fill="#63b8ff" stroke="#63b8ff" points="677.33,-76.71 686.74,-71.84 676.34,-69.78 677.33,-76.71"/>
</a>
</g>
</g>
<!-- Node8 -->
<g id="Node000008" class="node">
<title>Node8</title>
<g id="a_Node000008"><a xlink:href="../../d9/d06/class_slic3r_1_1_config_base.html#a423121494459dae7858bc9d665f8cb4f" target="_top" xlink:title=" ">
<polygon fill="#fff0f0" stroke="red" points="935.25,-79.5 837.5,-79.5 837.5,-49 935.25,-49 935.25,-79.5"/>
<text text-anchor="start" x="845.5" y="-66" font-family="Helvetica,sans-Serif" font-size="10.00">Slic3r::ConfigBase</text>
<text text-anchor="middle" x="886.38" y="-54.75" font-family="Helvetica,sans-Serif" font-size="10.00">::option</text>
</a>
</g>
</g>
<!-- Node7&#45;&gt;Node8 -->
<g id="edge7_Node000007_Node000008" class="edge">
<title>Node7&#45;&gt;Node8</title>
<g id="a_edge7_Node000007_Node000008"><a xlink:title=" ">
<path fill="none" stroke="#63b8ff" d="M796.5,-64.25C806.24,-64.25 816.45,-64.25 826.34,-64.25"/>
<polygon fill="#63b8ff" stroke="#63b8ff" points="826.33,-67.75 836.33,-64.25 826.33,-60.75 826.33,-67.75"/>
</a>
</g>
</g>
<!-- Node11 -->
<g id="Node000011" class="node">
<title>Node11</title>
<g id="a_Node000011"><a xlink:href="../../d7/d21/class_slic3r_1_1_g_u_i_1_1_plater.html#a4ef936ce5b2dc2fb6493f38d52d8efe6" target="_top" xlink:title=" ">
<polygon fill="white" stroke="#666666" points="790.25,-30.5 694,-30.5 694,0 790.25,0 790.25,-30.5"/>
<text text-anchor="start" x="702" y="-17" font-family="Helvetica,sans-Serif" font-size="10.00">Slic3r::GUI::Plater</text>
<text text-anchor="middle" x="742.12" y="-5.75" font-family="Helvetica,sans-Serif" font-size="10.00">::model</text>
</a>
</g>
</g>
<!-- Node10&#45;&gt;Node11 -->
<g id="edge9_Node000010_Node000011" class="edge">
<title>Node10&#45;&gt;Node11</title>
<g id="a_edge9_Node000010_Node000011"><a xlink:title=" ">
<path fill="none" stroke="#63b8ff" d="M627.08,-31.46C644.95,-28.92 664.84,-26.09 682.95,-23.52"/>
<polygon fill="#63b8ff" stroke="#63b8ff" points="683.26,-26.87 692.67,-21.99 682.27,-19.94 683.26,-26.87"/>
</a>
</g>
</g>
</g>
</svg>

<g id="navigator" transform="translate(0 0)" fill="#404254">
  <rect fill="#f2f5e9" fill-opacity="0.5" stroke="#606060" stroke-width=".5" x="0" y="0" width="60" height="60"/>
  <use id="zoomplus" xlink:href="#zoomPlus" x="17" y="9" onmousedown="handleZoom(evt,'in')"/>
  <use id="zoomminus" xlink:href="#zoomMin" x="42" y="9" onmousedown="handleZoom(evt,'out')"/>
  <use id="reset" xlink:href="#resetDef" x="30" y="36" onmousedown="handleReset()"/>
   <use id="arrowup" xlink:href="#arrowUp" x="0" y="0" onmousedown="handlePan(0,-1)"/>
  <use id="arrowright" xlink:href="#arrowRight" x="0" y="0" onmousedown="handlePan(1,0)"/>
  <use id="arrowdown" xlink:href="#arrowDown" x="0" y="0" onmousedown="handlePan(0,1)"/>
  <use id="arrowleft" xlink:href="#arrowLeft" x="0" y="0" onmousedown="handlePan(-1,0)"/>
</g>
<svg viewBox="0 0 15 15" width="100%" height="30px" preserveAspectRatio="xMaxYMin meet">
 <g id="arrow_out" transform="scale(0.3 0.3)">
  <a xlink:href="struct_slic3r_1_1_g_u_i_1_1_plater_1_1priv_a22563881d77e6424972ec5eda7d8d9fc_cgraph_org.svg" target="_base">
   <rect id="button" ry="5" rx="5" y="6" x="6" height="38" width="38"
        fill="#f2f5e9" fill-opacity="0.5" stroke="#606060" stroke-width="1.0"/>
   <path id="arrow"
     d="M 11.500037,31.436501 C 11.940474,20.09759 22.043105,11.32322 32.158766,21.979434 L 37.068811,17.246167 C 37.068811,17.246167 37.088388,32 37.088388,32 L 22.160133,31.978069 C 22.160133,31.978069 26.997745,27.140456 26.997745,27.140456 C 18.528582,18.264221 13.291696,25.230495 11.500037,31.436501 z"
     style="fill:#404040;"/>
  </a>
 </g>
</svg>

<style type='text/css'>
<![CDATA[
[data-mouse-over-selected='false'] { opacity: 0.7; }
[data-mouse-over-selected='true']  { opacity: 1.0; }
]]>
</style>
<script type="application/ecmascript"><![CDATA[
document.addEventListener('DOMContentLoaded', (event) => {
  highlightEdges();
  highlightAdjacentNodes();
});
]]></script>
</svg>
