<?xml version="1.0" encoding="UTF-8" standalone="no"?>
<!DOCTYPE svg PUBLIC "-//W3C//DTD SVG 1.1//EN"
 "http://www.w3.org/Graphics/SVG/1.1/DTD/svg11.dtd">
<!-- Generated by graphviz version 8.0.5 (20230430.1635)
 -->
<!-- Title: Slic3r::ExtrusionLoop::get_closest_path_and_point Pages: 1 -->
<svg width="710pt" height="221pt"
 viewBox="0.00 0.00 709.75 220.88" xmlns="http://www.w3.org/2000/svg" xmlns:xlink="http://www.w3.org/1999/xlink">
<g id="graph0" class="graph" transform="scale(1 1) rotate(0) translate(4 216.88)">
<title>Slic3r::ExtrusionLoop::get_closest_path_and_point</title>
<!-- Node1 -->
<g id="Node000001" class="node">
<title>Node1</title>
<g id="a_Node000001"><a xlink:title=" ">
<polygon fill="#999999" stroke="#666666" points="143.5,-108.5 0,-108.5 0,-78 143.5,-78 143.5,-108.5"/>
<text text-anchor="start" x="8" y="-95" font-family="Helvetica,sans-Serif" font-size="10.00">Slic3r::ExtrusionLoop</text>
<text text-anchor="middle" x="71.75" y="-83.75" font-family="Helvetica,sans-Serif" font-size="10.00">::get_closest_path_and_point</text>
</a>
</g>
</g>
<!-- Node2 -->
<g id="Node000002" class="node">
<title>Node2</title>
<g id="a_Node000002"><a xlink:href="../../de/db8/namespace_slic3r.html#abe9b9496c260a1e5eb0db4b5270816e8" target="_top" xlink:title=" ">
<polygon fill="white" stroke="#666666" points="256.25,-102.88 179.5,-102.88 179.5,-83.62 256.25,-83.62 256.25,-102.88"/>
<text text-anchor="middle" x="217.88" y="-89.38" font-family="Helvetica,sans-Serif" font-size="10.00">Slic3r::foot_pt</text>
</a>
</g>
</g>
<!-- Node1&#45;&gt;Node2 -->
<g id="edge1_Node000001_Node000002" class="edge">
<title>Node1&#45;&gt;Node2</title>
<g id="a_edge1_Node000001_Node000002"><a xlink:title=" ">
<path fill="none" stroke="#63b8ff" d="M143.97,-93.25C152.26,-93.25 160.56,-93.25 168.45,-93.25"/>
<polygon fill="#63b8ff" stroke="#63b8ff" points="168.26,-96.75 178.26,-93.25 168.26,-89.75 168.26,-96.75"/>
</a>
</g>
</g>
<!-- Node2&#45;&gt;Node2 -->
<g id="edge12_Node000002_Node000002" class="edge">
<title>Node2&#45;&gt;Node2</title>
<g id="a_edge12_Node000002_Node000002"><a xlink:title=" ">
<path fill="none" stroke="#63b8ff" d="M196.64,-103.16C186.96,-111.77 194.03,-120.88 217.88,-120.88 231.66,-120.88 239.84,-117.83 242.42,-113.6"/>
<polygon fill="#63b8ff" stroke="#63b8ff" points="245.47,-112.64 239.11,-104.16 238.79,-114.75 245.47,-112.64"/>
</a>
</g>
</g>
<!-- Node3 -->
<g id="Node000003" class="node">
<title>Node3</title>
<g id="a_Node000003"><a xlink:href="../../dd/dd0/namespace_slic3r_1_1line__alg.html#ae8f652a3e33a31daec85df184c66d325" target="_top" xlink:title=" ">
<polygon fill="white" stroke="#666666" points="414.75,-108.5 292.25,-108.5 292.25,-78 414.75,-78 414.75,-108.5"/>
<text text-anchor="start" x="300.25" y="-95" font-family="Helvetica,sans-Serif" font-size="10.00">Slic3r::line_alg::distance</text>
<text text-anchor="middle" x="353.5" y="-83.75" font-family="Helvetica,sans-Serif" font-size="10.00">_to_squared</text>
</a>
</g>
</g>
<!-- Node2&#45;&gt;Node3 -->
<g id="edge2_Node000002_Node000003" class="edge">
<title>Node2&#45;&gt;Node3</title>
<g id="a_edge2_Node000002_Node000003"><a xlink:title=" ">
<path fill="none" stroke="#63b8ff" d="M256.45,-93.25C264.21,-93.25 272.63,-93.25 281.15,-93.25"/>
<polygon fill="#63b8ff" stroke="#63b8ff" points="280.95,-96.75 290.95,-93.25 280.95,-89.75 280.95,-96.75"/>
</a>
</g>
</g>
<!-- Node4 -->
<g id="Node000004" class="node">
<title>Node4</title>
<g id="a_Node000004"><a xlink:href="../../d5/df7/_common_cwise_unary_ops_8h.html#aa89d007196125d10fa7d6e19811aca05" target="_top" xlink:title=" ">
<polygon fill="white" stroke="#666666" points="523,-212.88 488.25,-212.88 488.25,-193.62 523,-193.62 523,-212.88"/>
<text text-anchor="middle" x="505.62" y="-199.38" font-family="Helvetica,sans-Serif" font-size="10.00">cast</text>
</a>
</g>
</g>
<!-- Node3&#45;&gt;Node4 -->
<g id="edge3_Node000003_Node000004" class="edge">
<title>Node3&#45;&gt;Node4</title>
<g id="a_edge3_Node000003_Node000004"><a xlink:title=" ">
<path fill="none" stroke="#63b8ff" d="M366.91,-108.78C383.85,-129.04 416.11,-164.36 450.75,-185.25 458.92,-190.17 468.6,-193.95 477.49,-196.73"/>
<polygon fill="#63b8ff" stroke="#63b8ff" points="476.2,-200.29 486.78,-199.66 478.12,-193.56 476.2,-200.29"/>
</a>
</g>
</g>
<!-- Node5 -->
<g id="Node000005" class="node">
<title>Node5</title>
<g id="a_Node000005"><a xlink:href="../../dd/dd0/namespace_slic3r_1_1line__alg.html#a40c38dd07021734519ce9d5f5897e0ae" target="_top" xlink:title=" ">
<polygon fill="white" stroke="#666666" points="560.5,-157.88 450.75,-157.88 450.75,-138.62 560.5,-138.62 560.5,-157.88"/>
<text text-anchor="middle" x="505.62" y="-144.38" font-family="Helvetica,sans-Serif" font-size="10.00">Slic3r::line_alg::get_a</text>
</a>
</g>
</g>
<!-- Node3&#45;&gt;Node5 -->
<g id="edge4_Node000003_Node000005" class="edge">
<title>Node3&#45;&gt;Node5</title>
<g id="a_edge4_Node000003_Node000005"><a xlink:title=" ">
<path fill="none" stroke="#63b8ff" d="M394.16,-108.95C411.47,-115.69 432.05,-123.53 450.75,-130.25 454.93,-131.75 459.3,-133.28 463.67,-134.78"/>
<polygon fill="#63b8ff" stroke="#63b8ff" points="462.18,-138.31 472.77,-138.21 464.43,-131.68 462.18,-138.31"/>
</a>
</g>
</g>
<!-- Node6 -->
<g id="Node000006" class="node">
<title>Node6</title>
<g id="a_Node000006"><a xlink:href="../../dd/dd0/namespace_slic3r_1_1line__alg.html#a06c05051babc1927a1f24f9fdd70516e" target="_top" xlink:title=" ">
<polygon fill="white" stroke="#666666" points="560.5,-102.88 450.75,-102.88 450.75,-83.62 560.5,-83.62 560.5,-102.88"/>
<text text-anchor="middle" x="505.62" y="-89.38" font-family="Helvetica,sans-Serif" font-size="10.00">Slic3r::line_alg::get_b</text>
</a>
</g>
</g>
<!-- Node3&#45;&gt;Node6 -->
<g id="edge6_Node000003_Node000006" class="edge">
<title>Node3&#45;&gt;Node6</title>
<g id="a_edge6_Node000003_Node000006"><a xlink:title=" ">
<path fill="none" stroke="#63b8ff" d="M415.13,-93.25C423.19,-93.25 431.47,-93.25 439.6,-93.25"/>
<polygon fill="#63b8ff" stroke="#63b8ff" points="439.55,-96.75 449.55,-93.25 439.55,-89.75 439.55,-96.75"/>
</a>
</g>
</g>
<!-- Node7 -->
<g id="Node000007" class="node">
<title>Node7</title>
<g id="a_Node000007"><a xlink:href="../../de/db8/namespace_slic3r.html#a1e045f56a994b8cd4a5b203626cd8272" target="_top" xlink:title=" ">
<polygon fill="white" stroke="#666666" points="532.75,-65.88 478.5,-65.88 478.5,-46.62 532.75,-46.62 532.75,-65.88"/>
<text text-anchor="middle" x="505.62" y="-52.38" font-family="Helvetica,sans-Serif" font-size="10.00">Slic3r::l2</text>
</a>
</g>
</g>
<!-- Node3&#45;&gt;Node7 -->
<g id="edge8_Node000003_Node000007" class="edge">
<title>Node3&#45;&gt;Node7</title>
<g id="a_edge8_Node000003_Node000007"><a xlink:title=" ">
<path fill="none" stroke="#63b8ff" d="M415.13,-78.31C432.98,-73.91 451.97,-69.23 467.83,-65.32"/>
<polygon fill="#63b8ff" stroke="#63b8ff" points="468.4,-68.54 477.27,-62.75 466.72,-61.74 468.4,-68.54"/>
</a>
</g>
</g>
<!-- Node9 -->
<g id="Node000009" class="node">
<title>Node9</title>
<g id="a_Node000009"><a xlink:href="../../de/db8/namespace_slic3r.html#a0c2e95380bef258204b91d93d8166610" target="_top" xlink:title=" ">
<polygon fill="white" stroke="#666666" points="558.25,-27.88 453,-27.88 453,-8.62 558.25,-8.62 558.25,-27.88"/>
<text text-anchor="middle" x="505.62" y="-14.38" font-family="Helvetica,sans-Serif" font-size="10.00">Slic3r::nearest_point</text>
</a>
</g>
</g>
<!-- Node3&#45;&gt;Node9 -->
<g id="edge10_Node000003_Node000009" class="edge">
<title>Node3&#45;&gt;Node9</title>
<g id="a_edge10_Node000003_Node000009"><a xlink:title=" ">
<path fill="none" stroke="#63b8ff" d="M378.35,-77.68C397.43,-65.64 425.13,-49.09 450.75,-37.25 454.59,-35.47 458.65,-33.76 462.74,-32.14"/>
<polygon fill="#63b8ff" stroke="#63b8ff" points="463.76,-35.12 471.89,-28.33 461.3,-28.57 463.76,-35.12"/>
</a>
</g>
</g>
<!-- Node5&#45;&gt;Node5 -->
<g id="edge5_Node000005_Node000005" class="edge">
<title>Node5&#45;&gt;Node5</title>
<g id="a_edge5_Node000005_Node000005"><a xlink:title=" ">
<path fill="none" stroke="#63b8ff" d="M483.16,-158.16C472.91,-166.77 480.4,-175.88 505.62,-175.88 520.6,-175.88 529.33,-172.67 531.8,-168.26"/>
<polygon fill="#63b8ff" stroke="#63b8ff" points="534.82,-167.34 528.09,-159.16 528.25,-169.76 534.82,-167.34"/>
</a>
</g>
</g>
<!-- Node6&#45;&gt;Node6 -->
<g id="edge7_Node000006_Node000006" class="edge">
<title>Node6&#45;&gt;Node6</title>
<g id="a_edge7_Node000006_Node000006"><a xlink:title=" ">
<path fill="none" stroke="#63b8ff" d="M483.16,-103.16C472.91,-111.77 480.4,-120.88 505.62,-120.88 520.6,-120.88 529.33,-117.67 531.8,-113.26"/>
<polygon fill="#63b8ff" stroke="#63b8ff" points="534.82,-112.34 528.09,-104.16 528.25,-114.76 534.82,-112.34"/>
</a>
</g>
</g>
<!-- Node8 -->
<g id="Node000008" class="node">
<title>Node8</title>
<g id="a_Node000008"><a xlink:href="../../de/db8/namespace_slic3r.html#adb8a52f0ebfe5a551577b3e530b40c47" target="_top" xlink:title=" ">
<polygon fill="white" stroke="#666666" points="679.25,-67.88 619,-67.88 619,-48.62 679.25,-48.62 679.25,-67.88"/>
<text text-anchor="middle" x="649.12" y="-54.38" font-family="Helvetica,sans-Serif" font-size="10.00">Slic3r::dot</text>
</a>
</g>
</g>
<!-- Node7&#45;&gt;Node8 -->
<g id="edge9_Node000007_Node000008" class="edge">
<title>Node7&#45;&gt;Node8</title>
<g id="a_edge9_Node000007_Node000008"><a xlink:title=" ">
<path fill="none" stroke="#63b8ff" d="M533.24,-56.63C554.25,-56.92 583.91,-57.34 607.82,-57.68"/>
<polygon fill="#63b8ff" stroke="#63b8ff" points="607.65,-61.19 617.7,-57.83 607.75,-54.19 607.65,-61.19"/>
</a>
</g>
</g>
<!-- Node10 -->
<g id="Node000010" class="node">
<title>Node10</title>
<g id="a_Node000010"><a xlink:href="../../de/db8/namespace_slic3r.html#ab56403a6d4f6d7db536296290193c601" target="_top" xlink:title=" ">
<polygon fill="white" stroke="#666666" points="701.75,-30.5 596.5,-30.5 596.5,0 701.75,0 701.75,-30.5"/>
<text text-anchor="start" x="604.5" y="-17" font-family="Helvetica,sans-Serif" font-size="10.00">Slic3r::nearest_point</text>
<text text-anchor="middle" x="649.12" y="-5.75" font-family="Helvetica,sans-Serif" font-size="10.00">_index</text>
</a>
</g>
</g>
<!-- Node9&#45;&gt;Node10 -->
<g id="edge11_Node000009_Node000010" class="edge">
<title>Node9&#45;&gt;Node10</title>
<g id="a_edge11_Node000009_Node000010"><a xlink:title=" ">
<path fill="none" stroke="#63b8ff" d="M558.51,-17.15C567.26,-16.96 576.42,-16.77 585.41,-16.58"/>
<polygon fill="#63b8ff" stroke="#63b8ff" points="585.32,-20.06 595.25,-16.35 585.17,-13.06 585.32,-20.06"/>
</a>
</g>
</g>
</g>
</svg>
