<?xml version="1.0" encoding="UTF-8" standalone="no"?>
<!DOCTYPE svg PUBLIC "-//W3C//DTD SVG 1.1//EN"
 "http://www.w3.org/Graphics/SVG/1.1/DTD/svg11.dtd">
<!-- Generated by graphviz version 8.0.5 (20230430.1635)
 -->
<!-- Title: priv::to_cgal Pages: 1 -->
<svg width="259pt" height="175pt"
 viewBox="0.00 0.00 259.25 175.25" xmlns="http://www.w3.org/2000/svg" xmlns:xlink="http://www.w3.org/1999/xlink">
<g id="graph0" class="graph" transform="scale(1 1) rotate(0) translate(4 171.25)">
<title>priv::to_cgal</title>
<!-- Node1 -->
<g id="Node000001" class="node">
<title>Node1</title>
<g id="a_Node000001"><a xlink:title="Convert triangle mesh model to CGAL Surface_mesh Filtrate out opposite triangles Add property map for...">
<polygon fill="#999999" stroke="#666666" points="69.25,-93.25 0,-93.25 0,-74 69.25,-74 69.25,-93.25"/>
<text text-anchor="middle" x="34.62" y="-79.75" font-family="Helvetica,sans-Serif" font-size="10.00">priv::to_cgal</text>
</a>
</g>
</g>
<!-- Node2 -->
<g id="Node000002" class="node">
<title>Node2</title>
<g id="a_Node000002"><a xlink:href="../../de/db8/namespace_slic3r.html#a92b2e5013291a55201abda7303b67baf" target="_top" xlink:title=" ">
<polygon fill="white" stroke="#666666" points="155,-93.25 105.25,-93.25 105.25,-74 155,-74 155,-93.25"/>
<text text-anchor="middle" x="130.12" y="-79.75" font-family="Helvetica,sans-Serif" font-size="10.00">Slic3r::f</text>
</a>
</g>
</g>
<!-- Node1&#45;&gt;Node2 -->
<g id="edge1_Node000001_Node000002" class="edge">
<title>Node1&#45;&gt;Node2</title>
<g id="a_edge1_Node000001_Node000002"><a xlink:title=" ">
<path fill="none" stroke="#63b8ff" d="M69.65,-83.62C77.59,-83.62 86.08,-83.62 94.07,-83.62"/>
<polygon fill="#63b8ff" stroke="#63b8ff" points="93.94,-87.13 103.94,-83.62 93.94,-80.13 93.94,-87.13"/>
</a>
</g>
</g>
<!-- Node3 -->
<g id="Node000003" class="node">
<title>Node3</title>
<g id="a_Node000003"><a xlink:href="../../d4/df0/_array_cwise_unary_ops_8h.html#a65b7255208b30e0a3a5a0389b77465db" target="_top" xlink:title=" ">
<polygon fill="white" stroke="#666666" points="238.12,-167.25 204.12,-167.25 204.12,-148 238.12,-148 238.12,-167.25"/>
<text text-anchor="middle" x="221.12" y="-153.75" font-family="Helvetica,sans-Serif" font-size="10.00">asin</text>
</a>
</g>
</g>
<!-- Node2&#45;&gt;Node3 -->
<g id="edge2_Node000002_Node000003" class="edge">
<title>Node2&#45;&gt;Node3</title>
<g id="a_edge2_Node000002_Node000003"><a xlink:title=" ">
<path fill="none" stroke="#63b8ff" d="M140.35,-93.36C151.68,-105.06 171.78,-124.93 191,-139.62 192.24,-140.57 193.53,-141.52 194.85,-142.44"/>
<polygon fill="#63b8ff" stroke="#63b8ff" points="192.44,-145.71 202.72,-148.27 196.29,-139.86 192.44,-145.71"/>
</a>
</g>
</g>
<!-- Node4 -->
<g id="Node000004" class="node">
<title>Node4</title>
<g id="a_Node000004"><a xlink:href="../../d4/df0/_array_cwise_unary_ops_8h.html#a92b03396990b0e9eea0731aa406e31a4" target="_top" xlink:title=" ">
<polygon fill="white" stroke="#666666" points="237,-130.25 205.25,-130.25 205.25,-111 237,-111 237,-130.25"/>
<text text-anchor="middle" x="221.12" y="-116.75" font-family="Helvetica,sans-Serif" font-size="10.00">cos</text>
</a>
</g>
</g>
<!-- Node2&#45;&gt;Node4 -->
<g id="edge3_Node000002_Node000004" class="edge">
<title>Node2&#45;&gt;Node4</title>
<g id="a_edge3_Node000002_Node000004"><a xlink:title=" ">
<path fill="none" stroke="#63b8ff" d="M155.44,-93.74C167.63,-98.8 182.37,-104.93 194.7,-110.05"/>
<polygon fill="#63b8ff" stroke="#63b8ff" points="193.21,-113.64 203.79,-114.25 195.9,-107.18 193.21,-113.64"/>
</a>
</g>
</g>
<!-- Node5 -->
<g id="Node000005" class="node">
<title>Node5</title>
<g id="a_Node000005"><a xlink:href="../../d4/df0/_array_cwise_unary_ops_8h.html#a9cfb0ea58bd813510a9e2db18a5e49f0" target="_top" xlink:title=" ">
<polygon fill="white" stroke="#666666" points="235.53,-93.25 206.72,-93.25 206.72,-74 235.53,-74 235.53,-93.25"/>
<text text-anchor="middle" x="221.12" y="-79.75" font-family="Helvetica,sans-Serif" font-size="10.00">sin</text>
</a>
</g>
</g>
<!-- Node2&#45;&gt;Node5 -->
<g id="edge4_Node000002_Node000005" class="edge">
<title>Node2&#45;&gt;Node5</title>
<g id="a_edge4_Node000002_Node000005"><a xlink:title=" ">
<path fill="none" stroke="#63b8ff" d="M155.44,-83.62C167.85,-83.62 182.9,-83.62 195.37,-83.62"/>
<polygon fill="#63b8ff" stroke="#63b8ff" points="195.35,-87.13 205.35,-83.62 195.35,-80.13 195.35,-87.13"/>
</a>
</g>
</g>
<!-- Node6 -->
<g id="Node000006" class="node">
<title>Node6</title>
<g id="a_Node000006"><a xlink:href="../../de/db8/namespace_slic3r.html#a9f09756940b3eb2052058460bf07e4a3" target="_top" xlink:title=" ">
<polygon fill="white" stroke="#666666" points="251.25,-56.25 191,-56.25 191,-37 251.25,-37 251.25,-56.25"/>
<text text-anchor="middle" x="221.12" y="-42.75" font-family="Helvetica,sans-Serif" font-size="10.00">Slic3r::sqr</text>
</a>
</g>
</g>
<!-- Node2&#45;&gt;Node6 -->
<g id="edge5_Node000002_Node000006" class="edge">
<title>Node2&#45;&gt;Node6</title>
<g id="a_edge5_Node000002_Node000006"><a xlink:title=" ">
<path fill="none" stroke="#63b8ff" d="M155.44,-73.51C164.86,-69.6 175.81,-65.05 185.99,-60.81"/>
<polygon fill="#63b8ff" stroke="#63b8ff" points="186.94,-63.79 194.83,-56.72 184.26,-57.33 186.94,-63.79"/>
</a>
</g>
</g>
<!-- Node7 -->
<g id="Node000007" class="node">
<title>Node7</title>
<g id="a_Node000007"><a xlink:href="../../d4/df0/_array_cwise_unary_ops_8h.html#a656b9217a2fcb6de59dc8d1eb3079cc7" target="_top" xlink:title=" ">
<polygon fill="white" stroke="#666666" points="237.38,-19.25 204.88,-19.25 204.88,0 237.38,0 237.38,-19.25"/>
<text text-anchor="middle" x="221.12" y="-5.75" font-family="Helvetica,sans-Serif" font-size="10.00">sqrt</text>
</a>
</g>
</g>
<!-- Node2&#45;&gt;Node7 -->
<g id="edge6_Node000002_Node000007" class="edge">
<title>Node2&#45;&gt;Node7</title>
<g id="a_edge6_Node000002_Node000007"><a xlink:title=" ">
<path fill="none" stroke="#63b8ff" d="M140.35,-73.89C151.68,-62.19 171.78,-42.32 191,-27.62 192.46,-26.51 193.99,-25.4 195.56,-24.31"/>
<polygon fill="#63b8ff" stroke="#63b8ff" points="197.15,-26.8 203.63,-18.42 193.34,-20.93 197.15,-26.8"/>
</a>
</g>
</g>
</g>
</svg>
