<?xml version="1.0" encoding="UTF-8" standalone="no"?>
<!DOCTYPE svg PUBLIC "-//W3C//DTD SVG 1.1//EN"
 "http://www.w3.org/Graphics/SVG/1.1/DTD/svg11.dtd">
<!-- Generated by graphviz version 8.0.5 (20230430.1635)
 -->
<!-- Title: Slic3r::GUI::CommonGizmosDataObjects::ObjectClipper::render_cut Pages: 1 -->
<!--zoomable 505 -->

<svg id="main" version="1.1" xmlns="http://www.w3.org/2000/svg" xmlns:xlink="http://www.w3.org/1999/xlink" xml:space="preserve" onload="init(evt)">
<style type="text/css"><![CDATA[
.node, .edge {opacity: 0.7;}
.node.selected, .edge.selected {opacity: 1;}
.edge:hover path { stroke: red; }
.edge:hover polygon { stroke: red; fill: red; }
]]></style>

<defs>
  <circle id="rim" cx="0" cy="0" r="7"/>
  <circle id="rim2" cx="0" cy="0" r="3.5"/>
  <g id="zoomPlus">
    <use xlink:href="#rim" fill="#404040"><set attributeName="fill" to="#808080" begin="zoomplus.mouseover" end="zoomplus.mouseout"/></use>
    <path d="M-4,0h8M0,-4v8" fill="none" stroke="white" stroke-width="1.5" pointer-events="none"/>
  </g>
  <g id="zoomMin">
    <use xlink:href="#rim" fill="#404040"><set attributeName="fill" to="#808080" begin="zoomminus.mouseover" end="zoomminus.mouseout"/></use>
    <path d="M-4,0h8" fill="none" stroke="white" stroke-width="1.5" pointer-events="none"/>
  </g>
  <g id="arrowUp" transform="translate(30 24)">
    <use xlink:href="#rim"/>
    <path pointer-events="none" fill="none" stroke="white" stroke-width="1.5" d="M0,-3.0v7 M-2.5,-0.5L0,-3.0L2.5,-0.5"/>
  </g>
  <g id="arrowRight" transform="rotate(90) translate(36 -43)">
    <use xlink:href="#rim"/>
    <path pointer-events="none" fill="none" stroke="white" stroke-width="1.5" d="M0,-3.0v7 M-2.5,-0.5L0,-3.0L2.5,-0.5"/>
  </g>
  <g id="arrowDown" transform="rotate(180) translate(-30 -48)">
    <use xlink:href="#rim"/>
    <path pointer-events="none" fill="none" stroke="white" stroke-width="1.5" d="M0,-3.0v7 M-2.5,-0.5L0,-3.0L2.5,-0.5"/>
  </g>
  <g id="arrowLeft" transform="rotate(270) translate(-36 17)">
    <use xlink:href="#rim"/>
    <path pointer-events="none" fill="none" stroke="white" stroke-width="1.5" d="M0,-3.0v7 M-2.5,-0.5L0,-3.0L2.5,-0.5"/>
  </g>
  <g id="resetDef">
    <use xlink:href="#rim2" fill="#404040"><set attributeName="fill" to="#808080" begin="reset.mouseover" end="reset.mouseout"/></use>
  </g>
</defs>
<script type="application/ecmascript">
var viewWidth = 1129;
var viewHeight = 505;
var sectionId = 'dynsection-11';
</script>
<script type="application/ecmascript" xlink:href="../../svg.min.js"/>
<svg id="graph" class="graph">
<g id="viewport">
<title>Slic3r::GUI::CommonGizmosDataObjects::ObjectClipper::render_cut</title>
<!-- Node1 -->
<g id="Node000001" class="node">
<title>Node1</title>
<g id="a_Node000001"><a xlink:title=" ">
<polygon fill="#999999" stroke="#666666" points="144.25,-288.5 0,-288.5 0,-246.75 144.25,-246.75 144.25,-288.5"/>
<text text-anchor="start" x="8" y="-275" font-family="Helvetica,sans-Serif" font-size="10.00">Slic3r::GUI::CommonGizmos</text>
<text text-anchor="start" x="8" y="-263.75" font-family="Helvetica,sans-Serif" font-size="10.00">DataObjects::ObjectClipper</text>
<text text-anchor="middle" x="72.12" y="-252.5" font-family="Helvetica,sans-Serif" font-size="10.00">::render_cut</text>
</a>
</g>
</g>
<!-- Node2 -->
<g id="Node000002" class="node">
<title>Node2</title>
<g id="a_Node000002"><a xlink:href="../../d6/df8/class_slic3r_1_1_g_u_i_1_1_common_gizmos_data_objects_1_1_selection_info.html#affa7ebc717272dc58b5ab44386348fe7" target="_top" xlink:title=" ">
<polygon fill="white" stroke="#666666" points="332.75,-404.5 188.5,-404.5 188.5,-362.75 332.75,-362.75 332.75,-404.5"/>
<text text-anchor="start" x="196.5" y="-391" font-family="Helvetica,sans-Serif" font-size="10.00">Slic3r::GUI::CommonGizmos</text>
<text text-anchor="start" x="196.5" y="-379.75" font-family="Helvetica,sans-Serif" font-size="10.00">DataObjects::SelectionInfo</text>
<text text-anchor="middle" x="260.62" y="-368.5" font-family="Helvetica,sans-Serif" font-size="10.00">::get_active_instance</text>
</a>
</g>
</g>
<!-- Node1&#45;&gt;Node2 -->
<g id="edge1_Node000001_Node000002" class="edge">
<title>Node1&#45;&gt;Node2</title>
<g id="a_edge1_Node000001_Node000002"><a xlink:title=" ">
<path fill="none" stroke="#63b8ff" d="M102.6,-288.91C123.83,-303.93 153.34,-324.23 180.25,-340.62 189.38,-346.19 199.29,-351.85 208.91,-357.15"/>
<polygon fill="#63b8ff" stroke="#63b8ff" points="206.93,-360.6 217.39,-362.31 210.28,-354.45 206.93,-360.6"/>
</a>
</g>
</g>
<!-- Node7 -->
<g id="Node000007" class="node">
<title>Node7</title>
<g id="a_Node000007"><a xlink:href="../../d6/d28/class_slic3r_1_1_geometry_1_1_transformation.html#a8a90322383209b49582fbae10ec1d222" target="_top" xlink:title=" ">
<polygon fill="white" stroke="#666666" points="341,-331.88 180.25,-331.88 180.25,-301.38 341,-301.38 341,-331.88"/>
<text text-anchor="start" x="188.25" y="-318.38" font-family="Helvetica,sans-Serif" font-size="10.00">Slic3r::Geometry::Transformation</text>
<text text-anchor="middle" x="260.62" y="-307.12" font-family="Helvetica,sans-Serif" font-size="10.00">::get_offset</text>
</a>
</g>
</g>
<!-- Node1&#45;&gt;Node7 -->
<g id="edge6_Node000001_Node000007" class="edge">
<title>Node1&#45;&gt;Node7</title>
<g id="a_edge6_Node000001_Node000007"><a xlink:title=" ">
<path fill="none" stroke="#63b8ff" d="M144.7,-286.43C159.33,-290.27 174.71,-294.32 189.3,-298.15"/>
<polygon fill="#63b8ff" stroke="#63b8ff" points="188.2,-301.74 198.76,-300.9 189.98,-294.97 188.2,-301.74"/>
</a>
</g>
</g>
<!-- Node9 -->
<g id="Node000009" class="node">
<title>Node9</title>
<g id="a_Node000009"><a xlink:href="../../d6/df8/class_slic3r_1_1_g_u_i_1_1_common_gizmos_data_objects_1_1_selection_info.html#a156c55ecb68b0334f085769f1ee20b9a" target="_top" xlink:title=" ">
<polygon fill="white" stroke="#666666" points="332.75,-234.5 188.5,-234.5 188.5,-192.75 332.75,-192.75 332.75,-234.5"/>
<text text-anchor="start" x="196.5" y="-221" font-family="Helvetica,sans-Serif" font-size="10.00">Slic3r::GUI::CommonGizmos</text>
<text text-anchor="start" x="196.5" y="-209.75" font-family="Helvetica,sans-Serif" font-size="10.00">DataObjects::SelectionInfo</text>
<text text-anchor="middle" x="260.62" y="-198.5" font-family="Helvetica,sans-Serif" font-size="10.00">::get_sla_shift</text>
</a>
</g>
</g>
<!-- Node1&#45;&gt;Node9 -->
<g id="edge8_Node000001_Node000009" class="edge">
<title>Node1&#45;&gt;Node9</title>
<g id="a_edge8_Node000001_Node000009"><a xlink:title=" ">
<path fill="none" stroke="#63b8ff" d="M144.7,-246.9C155.52,-243.77 166.75,-240.52 177.77,-237.33"/>
<polygon fill="#63b8ff" stroke="#63b8ff" points="178.61,-240.44 187.24,-234.29 176.67,-233.71 178.61,-240.44"/>
</a>
</g>
</g>
<!-- Node10 -->
<g id="Node000010" class="node">
<title>Node10</title>
<g id="a_Node000010"><a xlink:href="../../d6/df8/class_slic3r_1_1_g_u_i_1_1_common_gizmos_data_objects_1_1_selection_info.html#aa69880ef0882356aabbed81272cf8559" target="_top" xlink:title=" ">
<polygon fill="white" stroke="#666666" points="332.75,-174.5 188.5,-174.5 188.5,-132.75 332.75,-132.75 332.75,-174.5"/>
<text text-anchor="start" x="196.5" y="-161" font-family="Helvetica,sans-Serif" font-size="10.00">Slic3r::GUI::CommonGizmos</text>
<text text-anchor="start" x="196.5" y="-149.75" font-family="Helvetica,sans-Serif" font-size="10.00">DataObjects::SelectionInfo</text>
<text text-anchor="middle" x="260.62" y="-138.5" font-family="Helvetica,sans-Serif" font-size="10.00">::model_object</text>
</a>
</g>
</g>
<!-- Node1&#45;&gt;Node10 -->
<g id="edge9_Node000001_Node000010" class="edge">
<title>Node1&#45;&gt;Node10</title>
<g id="a_edge9_Node000001_Node000010"><a xlink:title=" ">
<path fill="none" stroke="#63b8ff" d="M95.9,-246.39C116.64,-227.91 148.75,-201.38 180.25,-183.62 182.75,-182.22 185.33,-180.85 187.96,-179.52"/>
<polygon fill="#63b8ff" stroke="#63b8ff" points="189.14,-182.36 196.68,-174.91 186.14,-176.04 189.14,-182.36"/>
</a>
</g>
</g>
<!-- Node11 -->
<g id="Node000011" class="node">
<title>Node11</title>
<g id="a_Node000011"><a xlink:href="../../d6/d28/class_slic3r_1_1_geometry_1_1_transformation.html#ad02b79d8cb641b6ec7a01c2f499c5326" target="_top" xlink:title=" ">
<polygon fill="white" stroke="#666666" points="341,-282.88 180.25,-282.88 180.25,-252.38 341,-252.38 341,-282.88"/>
<text text-anchor="start" x="188.25" y="-269.38" font-family="Helvetica,sans-Serif" font-size="10.00">Slic3r::Geometry::Transformation</text>
<text text-anchor="middle" x="260.62" y="-258.12" font-family="Helvetica,sans-Serif" font-size="10.00">::set_offset</text>
</a>
</g>
</g>
<!-- Node1&#45;&gt;Node11 -->
<g id="edge10_Node000001_Node000011" class="edge">
<title>Node1&#45;&gt;Node11</title>
<g id="a_edge10_Node000001_Node000011"><a xlink:title=" ">
<path fill="none" stroke="#63b8ff" d="M144.7,-267.62C152.7,-267.62 160.92,-267.62 169.12,-267.62"/>
<polygon fill="#63b8ff" stroke="#63b8ff" points="168.86,-271.13 178.86,-267.62 168.86,-264.13 168.86,-271.13"/>
</a>
</g>
</g>
<!-- Node3 -->
<g id="Node000003" class="node">
<title>Node3</title>
<g id="a_Node000003"><a xlink:href="../../d5/d4e/class_slic3r_1_1_g_u_i_1_1_common_gizmos_data_pool.html#a8f244a56df11d23bcc33f696edd2185e" target="_top" xlink:title=" ">
<polygon fill="white" stroke="#666666" points="521.25,-398.88 377,-398.88 377,-368.38 521.25,-368.38 521.25,-398.88"/>
<text text-anchor="start" x="385" y="-385.38" font-family="Helvetica,sans-Serif" font-size="10.00">Slic3r::GUI::CommonGizmos</text>
<text text-anchor="middle" x="449.12" y="-374.12" font-family="Helvetica,sans-Serif" font-size="10.00">DataPool::get_canvas</text>
</a>
</g>
</g>
<!-- Node2&#45;&gt;Node3 -->
<g id="edge2_Node000002_Node000003" class="edge">
<title>Node2&#45;&gt;Node3</title>
<g id="a_edge2_Node000002_Node000003"><a xlink:title=" ">
<path fill="none" stroke="#63b8ff" d="M333.2,-383.62C343.91,-383.62 355.02,-383.62 365.93,-383.62"/>
<polygon fill="#63b8ff" stroke="#63b8ff" points="365.74,-387.13 375.74,-383.62 365.74,-380.13 365.74,-387.13"/>
</a>
</g>
</g>
<!-- Node4 -->
<g id="Node000004" class="node">
<title>Node4</title>
<g id="a_Node000004"><a xlink:href="../../dd/d6a/class_slic3r_1_1_g_u_i_1_1_selection.html#aac57a06d5a40d72888055487c90eb19a" target="_top" xlink:title=" ">
<polygon fill="white" stroke="#666666" points="504.75,-349.88 393.5,-349.88 393.5,-319.38 504.75,-319.38 504.75,-349.88"/>
<text text-anchor="start" x="401.5" y="-336.38" font-family="Helvetica,sans-Serif" font-size="10.00">Slic3r::GUI::Selection</text>
<text text-anchor="middle" x="449.12" y="-325.12" font-family="Helvetica,sans-Serif" font-size="10.00">::get_instance_idx</text>
</a>
</g>
</g>
<!-- Node2&#45;&gt;Node4 -->
<g id="edge3_Node000002_Node000004" class="edge">
<title>Node2&#45;&gt;Node4</title>
<g id="a_edge3_Node000002_Node000004"><a xlink:title=" ">
<path fill="none" stroke="#63b8ff" d="M333.2,-364.82C349.54,-360.53 366.83,-355.98 382.9,-351.76"/>
<polygon fill="#63b8ff" stroke="#63b8ff" points="383.47,-354.97 392.26,-349.04 381.7,-348.2 383.47,-354.97"/>
</a>
</g>
</g>
<!-- Node5 -->
<g id="Node000005" class="node">
<title>Node5</title>
<g id="a_Node000005"><a xlink:href="../../dc/de9/class_slic3r_1_1_g_u_i_1_1_common_gizmos_data_base.html#ae5bb0438e3c17f141515f8d4a48f16e6" target="_top" xlink:title=" ">
<polygon fill="white" stroke="#666666" points="521.25,-496.88 377,-496.88 377,-466.38 521.25,-466.38 521.25,-496.88"/>
<text text-anchor="start" x="385" y="-483.38" font-family="Helvetica,sans-Serif" font-size="10.00">Slic3r::GUI::CommonGizmos</text>
<text text-anchor="middle" x="449.12" y="-472.12" font-family="Helvetica,sans-Serif" font-size="10.00">DataBase::get_pool</text>
</a>
</g>
</g>
<!-- Node2&#45;&gt;Node5 -->
<g id="edge4_Node000002_Node000005" class="edge">
<title>Node2&#45;&gt;Node5</title>
<g id="a_edge4_Node000002_Node000005"><a xlink:title=" ">
<path fill="none" stroke="#63b8ff" d="M290.91,-404.77C313.62,-420.51 346.28,-441.75 377,-456.62 380.8,-458.47 384.77,-460.24 388.81,-461.93"/>
<polygon fill="#63b8ff" stroke="#63b8ff" points="387.35,-465.52 397.94,-465.98 389.95,-459.02 387.35,-465.52"/>
</a>
</g>
</g>
<!-- Node6 -->
<g id="Node000006" class="node">
<title>Node6</title>
<g id="a_Node000006"><a xlink:href="../../d0/d2b/class_slic3r_1_1_g_u_i_1_1_g_l_canvas3_d.html#ae78f5459f862198d84d3624697bc190e" target="_top" xlink:title=" ">
<polygon fill="white" stroke="#666666" points="514.12,-447.88 384.12,-447.88 384.12,-417.38 514.12,-417.38 514.12,-447.88"/>
<text text-anchor="start" x="392.12" y="-434.38" font-family="Helvetica,sans-Serif" font-size="10.00">Slic3r::GUI::GLCanvas3D</text>
<text text-anchor="middle" x="449.12" y="-423.12" font-family="Helvetica,sans-Serif" font-size="10.00">::get_selection</text>
</a>
</g>
</g>
<!-- Node2&#45;&gt;Node6 -->
<g id="edge5_Node000002_Node000006" class="edge">
<title>Node2&#45;&gt;Node6</title>
<g id="a_edge5_Node000002_Node000006"><a xlink:title=" ">
<path fill="none" stroke="#63b8ff" d="M333.2,-402.43C347.83,-406.27 363.21,-410.32 377.8,-414.15"/>
<polygon fill="#63b8ff" stroke="#63b8ff" points="376.7,-417.74 387.26,-416.9 378.48,-410.97 376.7,-417.74"/>
</a>
</g>
</g>
<!-- Node8 -->
<g id="Node000008" class="node">
<title>Node8</title>
<g id="a_Node000008"><a xlink:href="../../d5/d00/group___geometry___module.html#afa93ba97d26912bb3d8777cbed102045" target="_top" xlink:title=" ">
<polygon fill="white" stroke="#666666" points="520.12,-301.25 378.12,-301.25 378.12,-282 520.12,-282 520.12,-301.25"/>
<text text-anchor="middle" x="449.12" y="-287.75" font-family="Helvetica,sans-Serif" font-size="10.00">Eigen::Transform::translation</text>
</a>
</g>
</g>
<!-- Node7&#45;&gt;Node8 -->
<g id="edge7_Node000007_Node000008" class="edge">
<title>Node7&#45;&gt;Node8</title>
<g id="a_edge7_Node000007_Node000008"><a xlink:title=" ">
<path fill="none" stroke="#63b8ff" d="M341.26,-305.95C349.82,-304.8 358.54,-303.63 367.12,-302.48"/>
<polygon fill="#63b8ff" stroke="#63b8ff" points="367.44,-305.84 376.89,-301.04 366.51,-298.9 367.44,-305.84"/>
</a>
</g>
</g>
<!-- Node11&#45;&gt;Node8 -->
<g id="edge38_Node000011_Node000008" class="edge">
<title>Node11&#45;&gt;Node8</title>
<g id="a_edge38_Node000011_Node000008"><a xlink:title=" ">
<path fill="none" stroke="#63b8ff" d="M341.26,-277.87C349.82,-278.97 358.54,-280.1 367.12,-281.2"/>
<polygon fill="#63b8ff" stroke="#63b8ff" points="366.52,-284.78 376.89,-282.59 367.41,-277.84 366.52,-284.78"/>
</a>
</g>
</g>
<!-- Node12 -->
<g id="Node000012" class="node">
<title>Node12</title>
<g id="a_Node000012"><a xlink:href="../../de/db8/namespace_slic3r.html#a5ec552d076296fd705739c608edc1580" target="_top" xlink:title=" ">
<polygon fill="white" stroke="#666666" points="484.88,-264.25 413.38,-264.25 413.38,-245 484.88,-245 484.88,-264.25"/>
<text text-anchor="middle" x="449.12" y="-250.75" font-family="Helvetica,sans-Serif" font-size="10.00">Slic3r::offset</text>
</a>
</g>
</g>
<!-- Node11&#45;&gt;Node12 -->
<g id="edge11_Node000011_Node000012" class="edge">
<title>Node11&#45;&gt;Node12</title>
<g id="a_edge11_Node000011_Node000012"><a xlink:title=" ">
<path fill="none" stroke="#63b8ff" d="M341.26,-262.07C362.18,-260.62 384.04,-259.09 402.5,-257.81"/>
<polygon fill="#63b8ff" stroke="#63b8ff" points="402.49,-261.24 412.22,-257.06 402,-254.26 402.49,-261.24"/>
</a>
</g>
</g>
<!-- Node13 -->
<g id="Node000013" class="node">
<title>Node13</title>
<g id="a_Node000013"><a xlink:href="../../de/db8/namespace_slic3r.html#af7cda13fb4a1d706c356d6326e791e5e" target="_top" xlink:title=" ">
<polygon fill="white" stroke="#666666" points="653.12,-264.25 560.62,-264.25 560.62,-245 653.12,-245 653.12,-264.25"/>
<text text-anchor="middle" x="606.88" y="-250.75" font-family="Helvetica,sans-Serif" font-size="10.00">Slic3r::raw_offset</text>
</a>
</g>
</g>
<!-- Node12&#45;&gt;Node13 -->
<g id="edge12_Node000012_Node000013" class="edge">
<title>Node12&#45;&gt;Node13</title>
<g id="a_edge12_Node000012_Node000013"><a xlink:title=" ">
<path fill="none" stroke="#63b8ff" d="M485.08,-248.88C504.02,-247.89 527.89,-247.63 549.39,-248.11"/>
<polygon fill="#63b8ff" stroke="#63b8ff" points="549.29,-251.63 559.39,-248.42 549.49,-244.64 549.29,-251.63"/>
</a>
</g>
</g>
<!-- Node37 -->
<g id="Node000037" class="node">
<title>Node37</title>
<g id="a_Node000037"><a xlink:href="../../de/db8/namespace_slic3r.html#a843ba2fe16b213f550fb3d55c55a716e" target="_top" xlink:title=" ">
<polygon fill="white" stroke="#666666" points="656.5,-227.25 557.25,-227.25 557.25,-208 656.5,-208 656.5,-227.25"/>
<text text-anchor="middle" x="606.88" y="-213.75" font-family="Helvetica,sans-Serif" font-size="10.00">Slic3r::to_polygons</text>
</a>
</g>
</g>
<!-- Node12&#45;&gt;Node37 -->
<g id="edge37_Node000012_Node000037" class="edge">
<title>Node12&#45;&gt;Node37</title>
<g id="a_edge37_Node000012_Node000037"><a xlink:title=" ">
<path fill="none" stroke="#63b8ff" d="M485.08,-246.32C504.96,-241.6 530.28,-235.58 552.59,-230.28"/>
<polygon fill="#63b8ff" stroke="#63b8ff" points="553.35,-233.46 562.27,-227.75 551.73,-226.65 553.35,-233.46"/>
</a>
</g>
</g>
<!-- Node13&#45;&gt;Node12 -->
<g id="edge33_Node000013_Node000012" class="edge">
<title>Node13&#45;&gt;Node12</title>
<g id="a_edge33_Node000013_Node000012"><a xlink:title=" ">
<path fill="none" stroke="#63b8ff" d="M560.39,-260.83C540.11,-261.55 516.27,-261.56 495.96,-260.84"/>
<polygon fill="#63b8ff" stroke="#63b8ff" points="496.22,-257.3 486.08,-260.37 495.92,-264.3 496.22,-257.3"/>
</a>
</g>
</g>
<!-- Node14 -->
<g id="Node000014" class="node">
<title>Node14</title>
<g id="a_Node000014"><a xlink:href="../../d5/d7d/class_clipper_lib_1_1_clipper_offset.html#a0cd68e3690072f510924a5b25291043b" target="_top" xlink:title=" ">
<polygon fill="white" stroke="#666666" points="975,-465.88 851.75,-465.88 851.75,-435.38 975,-435.38 975,-465.88"/>
<text text-anchor="start" x="859.75" y="-452.38" font-family="Helvetica,sans-Serif" font-size="10.00">ClipperLib::ClipperOffset</text>
<text text-anchor="middle" x="913.38" y="-441.12" font-family="Helvetica,sans-Serif" font-size="10.00">::AddPath</text>
</a>
</g>
</g>
<!-- Node13&#45;&gt;Node14 -->
<g id="edge13_Node000013_Node000014" class="edge">
<title>Node13&#45;&gt;Node14</title>
<g id="a_edge13_Node000013_Node000014"><a xlink:title=" ">
<path fill="none" stroke="#63b8ff" d="M619.93,-264.55C654.4,-292.58 756.97,-373.69 851.75,-425.62 854.8,-427.29 857.98,-428.92 861.21,-430.49"/>
<polygon fill="#63b8ff" stroke="#63b8ff" points="859.49,-434.01 870.04,-435.02 862.42,-427.65 859.49,-434.01"/>
</a>
</g>
</g>
<!-- Node18 -->
<g id="Node000018" class="node">
<title>Node18</title>
<g id="a_Node000018"><a xlink:href="../../de/db8/namespace_slic3r.html#ad61bb7f1e4b8aaa434964420b9bedf32" target="_top" xlink:title=" ">
<polygon fill="white" stroke="#666666" points="793.25,-221.25 715,-221.25 715,-202 793.25,-202 793.25,-221.25"/>
<text text-anchor="middle" x="754.12" y="-207.75" font-family="Helvetica,sans-Serif" font-size="10.00">Slic3r::append</text>
</a>
</g>
</g>
<!-- Node13&#45;&gt;Node18 -->
<g id="edge18_Node000013_Node000018" class="edge">
<title>Node13&#45;&gt;Node18</title>
<g id="a_edge18_Node000013_Node000018"><a xlink:title=" ">
<path fill="none" stroke="#63b8ff" d="M641.93,-244.54C661.8,-238.66 687.1,-231.17 708.54,-224.82"/>
<polygon fill="#63b8ff" stroke="#63b8ff" points="709.44,-227.91 718.03,-221.72 707.45,-221.2 709.44,-227.91"/>
</a>
</g>
</g>
<!-- Node19 -->
<g id="Node000019" class="node">
<title>Node19</title>
<g id="a_Node000019"><a xlink:href="../../d5/d7d/class_clipper_lib_1_1_clipper_offset.html#ab444433587b6a3f6c89655938d889c7d" target="_top" xlink:title=" ">
<polygon fill="white" stroke="#666666" points="815.75,-469.88 692.5,-469.88 692.5,-439.38 815.75,-439.38 815.75,-469.88"/>
<text text-anchor="start" x="700.5" y="-456.38" font-family="Helvetica,sans-Serif" font-size="10.00">ClipperLib::ClipperOffset</text>
<text text-anchor="middle" x="754.12" y="-445.12" font-family="Helvetica,sans-Serif" font-size="10.00">::Clear</text>
</a>
</g>
</g>
<!-- Node13&#45;&gt;Node19 -->
<g id="edge19_Node000013_Node000019" class="edge">
<title>Node13&#45;&gt;Node19</title>
<g id="a_edge19_Node000013_Node000019"><a xlink:title=" ">
<path fill="none" stroke="#63b8ff" d="M613.49,-264.68C626.34,-287.4 659.33,-344.09 692.5,-387.62 704.12,-402.88 718.46,-418.84 730.28,-431.35"/>
<polygon fill="#63b8ff" stroke="#63b8ff" points="727.19,-433.23 736.63,-438.04 732.25,-428.39 727.19,-433.23"/>
</a>
</g>
</g>
<!-- Node20 -->
<g id="Node000020" class="node">
<title>Node20</title>
<g id="a_Node000020"><a xlink:href="../../d5/d7d/class_clipper_lib_1_1_clipper_offset.html#ac591b25e483a52c99c3190a256ad4589" target="_top" xlink:title=" ">
<polygon fill="white" stroke="#666666" points="815.75,-269.88 692.5,-269.88 692.5,-239.38 815.75,-239.38 815.75,-269.88"/>
<text text-anchor="start" x="700.5" y="-256.38" font-family="Helvetica,sans-Serif" font-size="10.00">ClipperLib::ClipperOffset</text>
<text text-anchor="middle" x="754.12" y="-245.12" font-family="Helvetica,sans-Serif" font-size="10.00">::Execute</text>
</a>
</g>
</g>
<!-- Node13&#45;&gt;Node20 -->
<g id="edge21_Node000013_Node000020" class="edge">
<title>Node13&#45;&gt;Node20</title>
<g id="a_edge21_Node000013_Node000020"><a xlink:title=" ">
<path fill="none" stroke="#63b8ff" d="M653.43,-254.62C662.22,-254.62 671.63,-254.62 681.03,-254.62"/>
<polygon fill="#63b8ff" stroke="#63b8ff" points="681.02,-258.13 691.02,-254.62 681.02,-251.13 681.02,-258.13"/>
</a>
</g>
</g>
<!-- Node35 -->
<g id="Node000035" class="node">
<title>Node35</title>
<g id="a_Node000035"><a xlink:href="../../de/d37/namespace_clipper_lib.html#a806a3d33d76bb9d4479d384f876ce8bd" target="_top" xlink:title=" ">
<polygon fill="white" stroke="#666666" points="810.5,-102.25 697.75,-102.25 697.75,-83 810.5,-83 810.5,-102.25"/>
<text text-anchor="middle" x="754.12" y="-88.75" font-family="Helvetica,sans-Serif" font-size="10.00">ClipperLib::Orientation</text>
</a>
</g>
</g>
<!-- Node13&#45;&gt;Node35 -->
<g id="edge34_Node000013_Node000035" class="edge">
<title>Node13&#45;&gt;Node35</title>
<g id="a_edge34_Node000013_Node000035"><a xlink:title=" ">
<path fill="none" stroke="#63b8ff" d="M643.29,-244.54C647.99,-242.36 652.54,-239.74 656.5,-236.62 679.21,-218.74 722.22,-146.65 742.3,-111.75"/>
<polygon fill="#63b8ff" stroke="#63b8ff" points="745.61,-114.01 747.53,-103.59 739.53,-110.53 745.61,-114.01"/>
</a>
</g>
</g>
<!-- Node15 -->
<g id="Node000015" class="node">
<title>Node15</title>
<g id="a_Node000015"><a xlink:href="../../d2/df1/class_clipper_lib_1_1_poly_node.html#a88b3923dabfc527b5eb28ca29005193d" target="_top" xlink:title=" ">
<polygon fill="white" stroke="#666666" points="1120,-465.88 1011.75,-465.88 1011.75,-435.38 1120,-435.38 1120,-465.88"/>
<text text-anchor="start" x="1019.75" y="-452.38" font-family="Helvetica,sans-Serif" font-size="10.00">ClipperLib::PolyNode</text>
<text text-anchor="middle" x="1065.88" y="-441.12" font-family="Helvetica,sans-Serif" font-size="10.00">::AddChild</text>
</a>
</g>
</g>
<!-- Node14&#45;&gt;Node15 -->
<g id="edge14_Node000014_Node000015" class="edge">
<title>Node14&#45;&gt;Node15</title>
<g id="a_edge14_Node000014_Node000015"><a xlink:title=" ">
<path fill="none" stroke="#63b8ff" d="M975.16,-450.62C983.55,-450.62 992.2,-450.62 1000.65,-450.62"/>
<polygon fill="#63b8ff" stroke="#63b8ff" points="1000.62,-454.13 1010.62,-450.62 1000.62,-447.13 1000.62,-454.13"/>
</a>
</g>
</g>
<!-- Node16 -->
<g id="Node000016" class="node">
<title>Node16</title>
<g id="a_Node000016"><a xlink:href="../../d2/df1/class_clipper_lib_1_1_poly_node.html#a19128db6fb2aca66555231edaffa7ade" target="_top" xlink:title=" ">
<polygon fill="white" stroke="#666666" points="1120,-416.88 1011.75,-416.88 1011.75,-386.38 1120,-386.38 1120,-416.88"/>
<text text-anchor="start" x="1019.75" y="-403.38" font-family="Helvetica,sans-Serif" font-size="10.00">ClipperLib::PolyNode</text>
<text text-anchor="middle" x="1065.88" y="-392.12" font-family="Helvetica,sans-Serif" font-size="10.00">::ChildCount</text>
</a>
</g>
</g>
<!-- Node14&#45;&gt;Node16 -->
<g id="edge15_Node000014_Node000016" class="edge">
<title>Node14&#45;&gt;Node16</title>
<g id="a_edge15_Node000014_Node000016"><a xlink:title=" ">
<path fill="none" stroke="#63b8ff" d="M962.41,-434.99C976.32,-430.46 991.67,-425.46 1006.16,-420.74"/>
<polygon fill="#63b8ff" stroke="#63b8ff" points="1007.1,-423.79 1015.52,-417.37 1004.93,-417.14 1007.1,-423.79"/>
</a>
</g>
</g>
<!-- Node17 -->
<g id="Node000017" class="node">
<title>Node17</title>
<g id="a_Node000017"><a xlink:href="../../de/d37/namespace_clipper_lib.html#aa19efa11130fc74091ca1f62e48c0fad" target="_top" xlink:title=" ">
<polygon fill="white" stroke="#666666" points="1120.75,-264.25 1011,-264.25 1011,-245 1120.75,-245 1120.75,-264.25"/>
<text text-anchor="middle" x="1065.88" y="-250.75" font-family="Helvetica,sans-Serif" font-size="10.00">ClipperLib::IntPoint2d</text>
</a>
</g>
</g>
<!-- Node14&#45;&gt;Node17 -->
<g id="edge16_Node000014_Node000017" class="edge">
<title>Node14&#45;&gt;Node17</title>
<g id="a_edge16_Node000014_Node000017"><a xlink:title=" ">
<path fill="none" stroke="#63b8ff" d="M962.02,-434.88C966.69,-432.22 971.13,-429.15 975,-425.62 999.36,-403.43 1039.28,-314.54 1056.52,-274.43"/>
<polygon fill="#63b8ff" stroke="#63b8ff" points="1060.05,-276.08 1060.75,-265.51 1053.61,-273.34 1060.05,-276.08"/>
</a>
</g>
</g>
<!-- Node17&#45;&gt;Node17 -->
<g id="edge17_Node000017_Node000017" class="edge">
<title>Node17&#45;&gt;Node17</title>
<g id="a_edge17_Node000017_Node000017"><a xlink:title=" ">
<path fill="none" stroke="#63b8ff" d="M1042,-264.54C1031.11,-273.15 1039.07,-282.25 1065.88,-282.25 1081.79,-282.25 1091.06,-279.04 1093.69,-274.63"/>
<polygon fill="#63b8ff" stroke="#63b8ff" points="1096.65,-273.58 1089.75,-265.54 1090.13,-276.13 1096.65,-273.58"/>
</a>
</g>
</g>
<!-- Node19&#45;&gt;Node16 -->
<g id="edge20_Node000019_Node000016" class="edge">
<title>Node19&#45;&gt;Node16</title>
<g id="a_edge20_Node000019_Node000016"><a xlink:title=" ">
<path fill="none" stroke="#63b8ff" d="M794.79,-470.3C840.71,-485.81 917.4,-503.42 975,-474.62 998.85,-462.7 990.28,-443.41 1011,-426.62 1012.59,-425.33 1014.26,-424.09 1015.99,-422.9"/>
<polygon fill="#63b8ff" stroke="#63b8ff" points="1017.3,-425.59 1023.98,-417.36 1013.63,-419.63 1017.3,-425.59"/>
</a>
</g>
</g>
<!-- Node20&#45;&gt;Node17 -->
<g id="edge31_Node000020_Node000017" class="edge">
<title>Node20&#45;&gt;Node17</title>
<g id="a_edge31_Node000020_Node000017"><a xlink:title=" ">
<path fill="none" stroke="#63b8ff" d="M805.31,-238.94C809.12,-236.54 812.67,-233.79 815.75,-230.62 848.15,-197.41 813.7,-159.18 851.75,-132.62 896.67,-101.27 926.11,-107.92 975,-132.62 1017.28,-153.99 1044.55,-205.68 1057.01,-234.44"/>
<polygon fill="#63b8ff" stroke="#63b8ff" points="1054.14,-235.66 1061.19,-243.57 1060.61,-232.99 1054.14,-235.66"/>
</a>
</g>
</g>
<!-- Node21 -->
<g id="Node000021" class="node">
<title>Node21</title>
<g id="a_Node000021"><a xlink:href="../../d4/d88/class_clipper_lib_1_1_clipper_base.html#a7545ac6e146894dc8416887eadd01dba" target="_top" xlink:title=" ">
<polygon fill="white" stroke="#666666" points="972.75,-220.88 854,-220.88 854,-190.38 972.75,-190.38 972.75,-220.88"/>
<text text-anchor="start" x="862" y="-207.38" font-family="Helvetica,sans-Serif" font-size="10.00">ClipperLib::ClipperBase</text>
<text text-anchor="middle" x="913.38" y="-196.12" font-family="Helvetica,sans-Serif" font-size="10.00">::AddPath</text>
</a>
</g>
</g>
<!-- Node20&#45;&gt;Node21 -->
<g id="edge22_Node000020_Node000021" class="edge">
<title>Node20&#45;&gt;Node21</title>
<g id="a_edge22_Node000020_Node000021"><a xlink:title=" ">
<path fill="none" stroke="#63b8ff" d="M805.31,-238.99C819.99,-234.41 836.2,-229.36 851.47,-224.6"/>
<polygon fill="#63b8ff" stroke="#63b8ff" points="852.35,-227.68 860.86,-221.37 850.27,-221 852.35,-227.68"/>
</a>
</g>
</g>
<!-- Node22 -->
<g id="Node000022" class="node">
<title>Node22</title>
<g id="a_Node000022"><a xlink:href="../../d4/d88/class_clipper_lib_1_1_clipper_base.html#a0080250604c20179e96e2e7e13094de5" target="_top" xlink:title=" ">
<polygon fill="white" stroke="#666666" points="972.75,-171.88 854,-171.88 854,-141.38 972.75,-141.38 972.75,-171.88"/>
<text text-anchor="start" x="862" y="-158.38" font-family="Helvetica,sans-Serif" font-size="10.00">ClipperLib::ClipperBase</text>
<text text-anchor="middle" x="913.38" y="-147.12" font-family="Helvetica,sans-Serif" font-size="10.00">::AddPaths</text>
</a>
</g>
</g>
<!-- Node20&#45;&gt;Node22 -->
<g id="edge23_Node000020_Node000022" class="edge">
<title>Node20&#45;&gt;Node22</title>
<g id="a_edge23_Node000020_Node000022"><a xlink:title=" ">
<path fill="none" stroke="#63b8ff" d="M802.57,-238.93C807.23,-236.5 811.72,-233.74 815.75,-230.62 837.15,-214.12 830.47,-198.28 851.75,-181.62 853.43,-180.31 855.19,-179.05 857.01,-177.85"/>
<polygon fill="#63b8ff" stroke="#63b8ff" points="858.62,-180.38 865.49,-172.32 855.09,-174.34 858.62,-180.38"/>
</a>
</g>
</g>
<!-- Node23 -->
<g id="Node000023" class="node">
<title>Node23</title>
<g id="a_Node000023"><a xlink:href="../../d5/d7d/class_clipper_lib_1_1_clipper_offset.html#a6e53d56693000d64e191104d7e816070" target="_top" xlink:title=" ">
<polygon fill="#fff0f0" stroke="red" points="975,-269.88 851.75,-269.88 851.75,-239.38 975,-239.38 975,-269.88"/>
<text text-anchor="start" x="859.75" y="-256.38" font-family="Helvetica,sans-Serif" font-size="10.00">ClipperLib::ClipperOffset</text>
<text text-anchor="middle" x="913.38" y="-245.12" font-family="Helvetica,sans-Serif" font-size="10.00">::DoOffset</text>
</a>
</g>
</g>
<!-- Node20&#45;&gt;Node23 -->
<g id="edge24_Node000020_Node000023" class="edge">
<title>Node20&#45;&gt;Node23</title>
<g id="a_edge24_Node000020_Node000023"><a xlink:title=" ">
<path fill="none" stroke="#63b8ff" d="M815.92,-254.62C824.03,-254.62 832.41,-254.62 840.69,-254.62"/>
<polygon fill="#63b8ff" stroke="#63b8ff" points="840.48,-258.13 850.48,-254.62 840.48,-251.13 840.48,-258.13"/>
</a>
</g>
</g>
<!-- Node30 -->
<g id="Node000030" class="node">
<title>Node30</title>
<g id="a_Node000030"><a xlink:href="../../d0/d2d/class_clipper_lib_1_1_clipper.html#a2e4a15e6f79a5f583b42c9701b839e01" target="_top" xlink:title=" ">
<polygon fill="white" stroke="#666666" points="961.5,-85.88 865.25,-85.88 865.25,-55.38 961.5,-55.38 961.5,-85.88"/>
<text text-anchor="start" x="873.25" y="-72.38" font-family="Helvetica,sans-Serif" font-size="10.00">ClipperLib::Clipper</text>
<text text-anchor="middle" x="913.38" y="-61.12" font-family="Helvetica,sans-Serif" font-size="10.00">::Execute</text>
</a>
</g>
</g>
<!-- Node20&#45;&gt;Node30 -->
<g id="edge27_Node000020_Node000030" class="edge">
<title>Node20&#45;&gt;Node30</title>
<g id="a_edge27_Node000020_Node000030"><a xlink:title=" ">
<path fill="none" stroke="#63b8ff" d="M805.89,-239.02C809.52,-236.61 812.88,-233.83 815.75,-230.62 856.06,-185.67 813.02,-145.95 851.75,-99.62 853.96,-96.98 856.46,-94.57 859.16,-92.36"/>
<polygon fill="#63b8ff" stroke="#63b8ff" points="860.59,-94.93 866.77,-86.33 856.57,-89.2 860.59,-94.93"/>
</a>
</g>
</g>
<!-- Node31 -->
<g id="Node000031" class="node">
<title>Node31</title>
<g id="a_Node000031"><a xlink:href="../../d5/d7d/class_clipper_lib_1_1_clipper_offset.html#ad29a638d6fdae7e57f6c54ce837d513a" target="_top" xlink:title=" ">
<polygon fill="#fff0f0" stroke="red" points="975,-416.88 851.75,-416.88 851.75,-386.38 975,-386.38 975,-416.88"/>
<text text-anchor="start" x="859.75" y="-403.38" font-family="Helvetica,sans-Serif" font-size="10.00">ClipperLib::ClipperOffset</text>
<text text-anchor="middle" x="913.38" y="-392.12" font-family="Helvetica,sans-Serif" font-size="10.00">::FixOrientations</text>
</a>
</g>
</g>
<!-- Node20&#45;&gt;Node31 -->
<g id="edge28_Node000020_Node000031" class="edge">
<title>Node20&#45;&gt;Node31</title>
<g id="a_edge28_Node000020_Node000031"><a xlink:title=" ">
<path fill="none" stroke="#63b8ff" d="M763.85,-270.22C778.8,-295.68 811.62,-346.37 851.75,-376.62 853.63,-378.05 855.61,-379.4 857.65,-380.69"/>
<polygon fill="#63b8ff" stroke="#63b8ff" points="855.5,-384.06 865.93,-385.93 858.94,-377.96 855.5,-384.06"/>
</a>
</g>
</g>
<!-- Node33 -->
<g id="Node000033" class="node">
<title>Node33</title>
<g id="a_Node000033"><a xlink:href="../../d4/d88/class_clipper_lib_1_1_clipper_base.html#a5590a5454248ac3f6beeba7f9690f62e" target="_top" xlink:title=" ">
<polygon fill="white" stroke="#666666" points="972.75,-367.88 854,-367.88 854,-337.38 972.75,-337.38 972.75,-367.88"/>
<text text-anchor="start" x="862" y="-354.38" font-family="Helvetica,sans-Serif" font-size="10.00">ClipperLib::ClipperBase</text>
<text text-anchor="middle" x="913.38" y="-343.12" font-family="Helvetica,sans-Serif" font-size="10.00">::GetBounds</text>
</a>
</g>
</g>
<!-- Node20&#45;&gt;Node33 -->
<g id="edge30_Node000020_Node000033" class="edge">
<title>Node20&#45;&gt;Node33</title>
<g id="a_edge30_Node000020_Node000033"><a xlink:title=" ">
<path fill="none" stroke="#63b8ff" d="M772.68,-270.09C791.34,-285.98 822.18,-310.73 851.75,-327.62 854.58,-329.24 857.52,-330.8 860.54,-332.31"/>
<polygon fill="#63b8ff" stroke="#63b8ff" points="858.75,-335.81 869.29,-336.92 861.74,-329.48 858.75,-335.81"/>
</a>
</g>
</g>
<!-- Node34 -->
<g id="Node000034" class="node">
<title>Node34</title>
<g id="a_Node000034"><a xlink:href="../../d0/d2d/class_clipper_lib_1_1_clipper.html#a2e5dd9e3d41a70673aaa61300c2037bc" target="_top" xlink:title=" ">
<polygon fill="white" stroke="#666666" points="961.5,-318.88 865.25,-318.88 865.25,-288.38 961.5,-288.38 961.5,-318.88"/>
<text text-anchor="start" x="873.25" y="-305.38" font-family="Helvetica,sans-Serif" font-size="10.00">ClipperLib::Clipper</text>
<text text-anchor="middle" x="913.38" y="-294.12" font-family="Helvetica,sans-Serif" font-size="10.00">::ReverseSolution</text>
</a>
</g>
</g>
<!-- Node20&#45;&gt;Node34 -->
<g id="edge32_Node000020_Node000034" class="edge">
<title>Node20&#45;&gt;Node34</title>
<g id="a_edge32_Node000020_Node000034"><a xlink:title=" ">
<path fill="none" stroke="#63b8ff" d="M805.31,-270.26C820.94,-275.13 838.31,-280.55 854.42,-285.57"/>
<polygon fill="#63b8ff" stroke="#63b8ff" points="853.22,-289.17 863.8,-288.8 855.3,-282.49 853.22,-289.17"/>
</a>
</g>
</g>
<!-- Node23&#45;&gt;Node16 -->
<g id="edge25_Node000023_Node000016" class="edge">
<title>Node23&#45;&gt;Node16</title>
<g id="a_edge25_Node000023_Node000016"><a xlink:title=" ">
<path fill="none" stroke="#63b8ff" d="M960.25,-270.33C965.47,-273.03 970.52,-276.12 975,-279.62 1009.18,-306.35 1036.63,-349.28 1051.82,-376.44"/>
<polygon fill="#63b8ff" stroke="#63b8ff" points="1049.18,-377.9 1057.04,-385.01 1055.33,-374.55 1049.18,-377.9"/>
</a>
</g>
</g>
<!-- Node23&#45;&gt;Node17 -->
<g id="edge26_Node000023_Node000017" class="edge">
<title>Node23&#45;&gt;Node17</title>
<g id="a_edge26_Node000023_Node000017"><a xlink:title=" ">
<path fill="none" stroke="#63b8ff" d="M975.16,-254.62C983.23,-254.62 991.54,-254.62 999.69,-254.62"/>
<polygon fill="#63b8ff" stroke="#63b8ff" points="999.66,-258.13 1009.66,-254.62 999.66,-251.13 999.66,-258.13"/>
</a>
</g>
</g>
<!-- Node31&#45;&gt;Node16 -->
<g id="edge29_Node000031_Node000016" class="edge">
<title>Node31&#45;&gt;Node16</title>
<g id="a_edge29_Node000031_Node000016"><a xlink:title=" ">
<path fill="none" stroke="#63b8ff" d="M975.16,-401.62C983.55,-401.62 992.2,-401.62 1000.65,-401.62"/>
<polygon fill="#63b8ff" stroke="#63b8ff" points="1000.62,-405.13 1010.62,-401.62 1000.62,-398.13 1000.62,-405.13"/>
</a>
</g>
</g>
<!-- Node36 -->
<g id="Node000036" class="node">
<title>Node36</title>
<g id="a_Node000036"><a xlink:href="../../de/d37/namespace_clipper_lib.html#a4a96cc48117e1dba6cf51bbc2d91fe97" target="_top" xlink:title=" ">
<polygon fill="white" stroke="#666666" points="956.25,-19.25 870.5,-19.25 870.5,0 956.25,0 956.25,-19.25"/>
<text text-anchor="middle" x="913.38" y="-5.75" font-family="Helvetica,sans-Serif" font-size="10.00">ClipperLib::Area</text>
</a>
</g>
</g>
<!-- Node35&#45;&gt;Node36 -->
<g id="edge35_Node000035_Node000036" class="edge">
<title>Node35&#45;&gt;Node36</title>
<g id="a_edge35_Node000035_Node000036"><a xlink:title=" ">
<path fill="none" stroke="#63b8ff" d="M774.09,-82.61C801.37,-68.22 851.87,-41.56 883.71,-24.75"/>
<polygon fill="#63b8ff" stroke="#63b8ff" points="885.13,-27.44 892.34,-19.67 881.86,-21.24 885.13,-27.44"/>
</a>
</g>
</g>
<!-- Node36&#45;&gt;Node36 -->
<g id="edge36_Node000036_Node000036" class="edge">
<title>Node36&#45;&gt;Node36</title>
<g id="a_edge36_Node000036_Node000036"><a xlink:title=" ">
<path fill="none" stroke="#63b8ff" d="M889.5,-19.54C878.61,-28.15 886.57,-37.25 913.38,-37.25 929.29,-37.25 938.56,-34.04 941.19,-29.63"/>
<polygon fill="#63b8ff" stroke="#63b8ff" points="944.15,-28.58 937.25,-20.54 937.63,-31.13 944.15,-28.58"/>
</a>
</g>
</g>
</g>
</svg>

<g id="navigator" transform="translate(0 0)" fill="#404254">
  <rect fill="#f2f5e9" fill-opacity="0.5" stroke="#606060" stroke-width=".5" x="0" y="0" width="60" height="60"/>
  <use id="zoomplus" xlink:href="#zoomPlus" x="17" y="9" onmousedown="handleZoom(evt,'in')"/>
  <use id="zoomminus" xlink:href="#zoomMin" x="42" y="9" onmousedown="handleZoom(evt,'out')"/>
  <use id="reset" xlink:href="#resetDef" x="30" y="36" onmousedown="handleReset()"/>
   <use id="arrowup" xlink:href="#arrowUp" x="0" y="0" onmousedown="handlePan(0,-1)"/>
  <use id="arrowright" xlink:href="#arrowRight" x="0" y="0" onmousedown="handlePan(1,0)"/>
  <use id="arrowdown" xlink:href="#arrowDown" x="0" y="0" onmousedown="handlePan(0,1)"/>
  <use id="arrowleft" xlink:href="#arrowLeft" x="0" y="0" onmousedown="handlePan(-1,0)"/>
</g>
<svg viewBox="0 0 15 15" width="100%" height="30px" preserveAspectRatio="xMaxYMin meet">
 <g id="arrow_out" transform="scale(0.3 0.3)">
  <a xlink:href="class_slic3r_1_1_g_u_i_1_1_common_gizmos_data_objects_1_1_object_clipper_ae31403a30e5e0ae89d328ddd89849a65_cgraph_org.svg" target="_base">
   <rect id="button" ry="5" rx="5" y="6" x="6" height="38" width="38"
        fill="#f2f5e9" fill-opacity="0.5" stroke="#606060" stroke-width="1.0"/>
   <path id="arrow"
     d="M 11.500037,31.436501 C 11.940474,20.09759 22.043105,11.32322 32.158766,21.979434 L 37.068811,17.246167 C 37.068811,17.246167 37.088388,32 37.088388,32 L 22.160133,31.978069 C 22.160133,31.978069 26.997745,27.140456 26.997745,27.140456 C 18.528582,18.264221 13.291696,25.230495 11.500037,31.436501 z"
     style="fill:#404040;"/>
  </a>
 </g>
</svg>

<style type='text/css'>
<![CDATA[
[data-mouse-over-selected='false'] { opacity: 0.7; }
[data-mouse-over-selected='true']  { opacity: 1.0; }
]]>
</style>
<script type="application/ecmascript"><![CDATA[
document.addEventListener('DOMContentLoaded', (event) => {
  highlightEdges();
  highlightAdjacentNodes();
});
]]></script>
</svg>
