<?xml version="1.0" encoding="UTF-8" standalone="no"?>
<!DOCTYPE svg PUBLIC "-//W3C//DTD SVG 1.1//EN"
 "http://www.w3.org/Graphics/SVG/1.1/DTD/svg11.dtd">
<!-- Generated by graphviz version 8.0.5 (20230430.1635)
 -->
<!-- Title: Slic3r::Flow::extrusion_width Pages: 1 -->
<svg width="629pt" height="235pt"
 viewBox="0.00 0.00 628.50 234.50" xmlns="http://www.w3.org/2000/svg" xmlns:xlink="http://www.w3.org/1999/xlink">
<g id="graph0" class="graph" transform="scale(1 1) rotate(0) translate(4 230.5)">
<title>Slic3r::Flow::extrusion_width</title>
<!-- Node1 -->
<g id="Node000001" class="node">
<title>Node1</title>
<g id="a_Node000001"><a xlink:title=" ">
<polygon fill="#999999" stroke="#666666" points="113.5,-78.5 0,-78.5 0,-48 113.5,-48 113.5,-78.5"/>
<text text-anchor="start" x="8" y="-65" font-family="Helvetica,sans-Serif" font-size="10.00">Slic3r::Flow::extrusion</text>
<text text-anchor="middle" x="56.75" y="-53.75" font-family="Helvetica,sans-Serif" font-size="10.00">_width</text>
</a>
</g>
</g>
<!-- Node2 -->
<g id="Node000002" class="node">
<title>Node2</title>
<g id="a_Node000002"><a xlink:href="../../d6/d0f/class_slic3r_1_1_flow.html#a15232bd95f553b1657836d58fd494c47" target="_top" xlink:title=" ">
<polygon fill="white" stroke="#666666" points="263,-103.5 149.5,-103.5 149.5,-73 263,-73 263,-103.5"/>
<text text-anchor="start" x="157.5" y="-90" font-family="Helvetica,sans-Serif" font-size="10.00">Slic3r::Flow::extrusion</text>
<text text-anchor="middle" x="206.25" y="-78.75" font-family="Helvetica,sans-Serif" font-size="10.00">_width</text>
</a>
</g>
</g>
<!-- Node1&#45;&gt;Node2 -->
<g id="edge1_Node000001_Node000002" class="edge">
<title>Node1&#45;&gt;Node2</title>
<g id="a_edge1_Node000001_Node000002"><a xlink:title=" ">
<path fill="none" stroke="#63b8ff" d="M113.93,-72.77C121.97,-74.14 130.31,-75.55 138.52,-76.94"/>
<polygon fill="#63b8ff" stroke="#63b8ff" points="137.78,-80.53 148.22,-78.75 138.95,-73.63 137.78,-80.53"/>
</a>
</g>
</g>
<!-- Node7 -->
<g id="Node000007" class="node">
<title>Node7</title>
<g id="a_Node000007"><a xlink:href="../../d3/d98/class_slic3r_1_1_config_option_resolver.html#aa253a27a83afbb56c5aa92f189719874" target="_top" xlink:title=" ">
<polygon fill="white" stroke="#666666" points="441.75,-30.5 299,-30.5 299,0 441.75,0 441.75,-30.5"/>
<text text-anchor="start" x="307" y="-17" font-family="Helvetica,sans-Serif" font-size="10.00">Slic3r::ConfigOptionResolver</text>
<text text-anchor="middle" x="370.38" y="-5.75" font-family="Helvetica,sans-Serif" font-size="10.00">::option</text>
</a>
</g>
</g>
<!-- Node1&#45;&gt;Node7 -->
<g id="edge9_Node000001_Node000007" class="edge">
<title>Node1&#45;&gt;Node7</title>
<g id="a_edge9_Node000001_Node000007"><a xlink:title=" ">
<path fill="none" stroke="#63b8ff" d="M113.82,-54.61C162.37,-47.14 233.2,-36.23 287.98,-27.79"/>
<polygon fill="#63b8ff" stroke="#63b8ff" points="288.36,-31.12 297.71,-26.13 287.3,-24.2 288.36,-31.12"/>
</a>
</g>
</g>
<!-- Node3 -->
<g id="Node000003" class="node">
<title>Node3</title>
<g id="a_Node000003"><a xlink:href="../../d6/d0f/class_slic3r_1_1_flow.html#a84918dd0798eb452f858b0391847bddd" target="_top" xlink:title=" ">
<polygon fill="white" stroke="#666666" points="416.62,-226.5 324.12,-226.5 324.12,-196 416.62,-196 416.62,-226.5"/>
<text text-anchor="start" x="332.12" y="-213" font-family="Helvetica,sans-Serif" font-size="10.00">Slic3r::Flow::auto</text>
<text text-anchor="middle" x="370.38" y="-201.75" font-family="Helvetica,sans-Serif" font-size="10.00">_extrusion_width</text>
</a>
</g>
</g>
<!-- Node2&#45;&gt;Node3 -->
<g id="edge2_Node000002_Node000003" class="edge">
<title>Node2&#45;&gt;Node3</title>
<g id="a_edge2_Node000002_Node000003"><a xlink:title=" ">
<path fill="none" stroke="#63b8ff" d="M217.95,-103.67C233.49,-125.02 264.29,-163.52 299,-186.25 303.63,-189.28 308.67,-191.99 313.85,-194.41"/>
<polygon fill="#63b8ff" stroke="#63b8ff" points="312.36,-198.01 322.93,-198.71 315.1,-191.57 312.36,-198.01"/>
</a>
</g>
</g>
<!-- Node5 -->
<g id="Node000005" class="node">
<title>Node5</title>
<g id="a_Node000005"><a xlink:href="../../da/d93/class_slic3r_1_1_config_option_float_or_percent.html#aae1f65ce53e8aafbf245403197e65bfd" target="_top" xlink:title=" ">
<polygon fill="white" stroke="#666666" points="435,-177.5 305.75,-177.5 305.75,-147 435,-147 435,-177.5"/>
<text text-anchor="start" x="313.75" y="-164" font-family="Helvetica,sans-Serif" font-size="10.00">Slic3r::ConfigOptionFloat</text>
<text text-anchor="middle" x="370.38" y="-152.75" font-family="Helvetica,sans-Serif" font-size="10.00">OrPercent::get_abs_value</text>
</a>
</g>
</g>
<!-- Node2&#45;&gt;Node5 -->
<g id="edge4_Node000002_Node000005" class="edge">
<title>Node2&#45;&gt;Node5</title>
<g id="a_edge4_Node000002_Node000005"><a xlink:title=" ">
<path fill="none" stroke="#63b8ff" d="M234.02,-103.92C252.04,-114.12 276.53,-127.33 299,-137.25 303.14,-139.08 307.45,-140.87 311.82,-142.6"/>
<polygon fill="#63b8ff" stroke="#63b8ff" points="310.46,-146.22 321.05,-146.53 312.97,-139.68 310.46,-146.22"/>
</a>
</g>
</g>
<!-- Node6 -->
<g id="Node000006" class="node">
<title>Node6</title>
<g id="a_Node000006"><a xlink:href="../../de/db8/namespace_slic3r.html#aca110774eb4819f12c81938fdd537b4c" target="_top" xlink:title=" ">
<polygon fill="white" stroke="#666666" points="417.75,-128.5 323,-128.5 323,-98 417.75,-98 417.75,-128.5"/>
<text text-anchor="start" x="331" y="-115" font-family="Helvetica,sans-Serif" font-size="10.00">Slic3r::opt_key_to</text>
<text text-anchor="middle" x="370.38" y="-103.75" font-family="Helvetica,sans-Serif" font-size="10.00">_flow_role</text>
</a>
</g>
</g>
<!-- Node2&#45;&gt;Node6 -->
<g id="edge5_Node000002_Node000006" class="edge">
<title>Node2&#45;&gt;Node6</title>
<g id="a_edge5_Node000002_Node000006"><a xlink:title=" ">
<path fill="none" stroke="#63b8ff" d="M263.5,-96.92C279.18,-99.34 296.23,-101.97 311.97,-104.4"/>
<polygon fill="#63b8ff" stroke="#63b8ff" points="311.21,-107.98 321.63,-106.04 312.28,-101.06 311.21,-107.98"/>
</a>
</g>
</g>
<!-- Node2&#45;&gt;Node7 -->
<g id="edge6_Node000002_Node000007" class="edge">
<title>Node2&#45;&gt;Node7</title>
<g id="a_edge6_Node000002_Node000007"><a xlink:title=" ">
<path fill="none" stroke="#63b8ff" d="M234.86,-72.5C252.82,-62.59 276.92,-49.89 299,-40.25 303.33,-38.36 307.85,-36.5 312.42,-34.71"/>
<polygon fill="#63b8ff" stroke="#63b8ff" points="313.36,-37.71 321.45,-30.88 310.86,-31.17 313.36,-37.71"/>
</a>
</g>
</g>
<!-- Node9 -->
<g id="Node000009" class="node">
<title>Node9</title>
<g id="a_Node000009"><a xlink:href="../../de/db8/namespace_slic3r.html#aff234448e585404f14a5cd5953dfbeaa" target="_top" xlink:title=" ">
<polygon fill="white" stroke="#666666" points="433.12,-79.5 307.62,-79.5 307.62,-49 433.12,-49 433.12,-79.5"/>
<text text-anchor="start" x="315.62" y="-66" font-family="Helvetica,sans-Serif" font-size="10.00">Slic3r::throw_on_missing</text>
<text text-anchor="middle" x="370.38" y="-54.75" font-family="Helvetica,sans-Serif" font-size="10.00">_variable</text>
</a>
</g>
</g>
<!-- Node2&#45;&gt;Node9 -->
<g id="edge8_Node000002_Node000009" class="edge">
<title>Node2&#45;&gt;Node9</title>
<g id="a_edge8_Node000002_Node000009"><a xlink:title=" ">
<path fill="none" stroke="#63b8ff" d="M263.5,-79.92C274.17,-78.34 285.48,-76.67 296.58,-75.03"/>
<polygon fill="#63b8ff" stroke="#63b8ff" points="296.75,-78.39 306.13,-73.46 295.72,-71.47 296.75,-78.39"/>
</a>
</g>
</g>
<!-- Node4 -->
<g id="Node000004" class="node">
<title>Node4</title>
<g id="a_Node000004"><a xlink:href="../../d6/d0f/class_slic3r_1_1_flow.html#af2b19c33242782f736ca2b1ec7155572" target="_top" xlink:title=" ">
<polygon fill="white" stroke="#666666" points="600.25,-226.5 498,-226.5 498,-196 600.25,-196 600.25,-226.5"/>
<text text-anchor="start" x="506" y="-213" font-family="Helvetica,sans-Serif" font-size="10.00">Slic3r::Flow::nozzle</text>
<text text-anchor="middle" x="549.12" y="-201.75" font-family="Helvetica,sans-Serif" font-size="10.00">_diameter</text>
</a>
</g>
</g>
<!-- Node3&#45;&gt;Node4 -->
<g id="edge3_Node000003_Node000004" class="edge">
<title>Node3&#45;&gt;Node4</title>
<g id="a_edge3_Node000003_Node000004"><a xlink:title=" ">
<path fill="none" stroke="#63b8ff" d="M416.89,-211.25C438.26,-211.25 464.04,-211.25 487.07,-211.25"/>
<polygon fill="#63b8ff" stroke="#63b8ff" points="486.78,-214.75 496.78,-211.25 486.78,-207.75 486.78,-214.75"/>
</a>
</g>
</g>
<!-- Node8 -->
<g id="Node000008" class="node">
<title>Node8</title>
<g id="a_Node000008"><a xlink:href="../../d3/d98/class_slic3r_1_1_config_option_resolver.html#a3c37c9a5c55c26149c192468d3922ec1" target="_top" xlink:title=" ">
<polygon fill="white" stroke="#666666" points="620.5,-30.5 477.75,-30.5 477.75,0 620.5,0 620.5,-30.5"/>
<text text-anchor="start" x="485.75" y="-17" font-family="Helvetica,sans-Serif" font-size="10.00">Slic3r::ConfigOptionResolver</text>
<text text-anchor="middle" x="549.12" y="-5.75" font-family="Helvetica,sans-Serif" font-size="10.00">::optptr</text>
</a>
</g>
</g>
<!-- Node7&#45;&gt;Node8 -->
<g id="edge7_Node000007_Node000008" class="edge">
<title>Node7&#45;&gt;Node8</title>
<g id="a_edge7_Node000007_Node000008"><a xlink:title=" ">
<path fill="none" stroke="#63b8ff" d="M442.25,-15.25C450.24,-15.25 458.43,-15.25 466.54,-15.25"/>
<polygon fill="#63b8ff" stroke="#63b8ff" points="466.52,-18.75 476.52,-15.25 466.52,-11.75 466.52,-18.75"/>
</a>
</g>
</g>
</g>
</svg>
