<?xml version="1.0" encoding="UTF-8" standalone="no"?>
<!DOCTYPE svg PUBLIC "-//W3C//DTD SVG 1.1//EN"
 "http://www.w3.org/Graphics/SVG/1.1/DTD/svg11.dtd">
<!-- Generated by graphviz version 8.0.5 (20230430.1635)
 -->
<!-- Title: Slic3r::Flow::auto_extrusion_width Pages: 1 -->
<svg width="1137pt" height="779pt"
 viewBox="0.00 0.00 1137.00 778.50" xmlns="http://www.w3.org/2000/svg" xmlns:xlink="http://www.w3.org/1999/xlink">
<g id="graph0" class="graph" transform="scale(1 1) rotate(0) translate(4 774.5)">
<title>Slic3r::Flow::auto_extrusion_width</title>
<!-- Node1 -->
<g id="Node000001" class="node">
<title>Node1</title>
<g id="a_Node000001"><a xlink:title=" ">
<polygon fill="#999999" stroke="#666666" points="1129,-689.5 1036.5,-689.5 1036.5,-659 1129,-659 1129,-689.5"/>
<text text-anchor="start" x="1044.5" y="-676" font-family="Helvetica,sans-Serif" font-size="10.00">Slic3r::Flow::auto</text>
<text text-anchor="middle" x="1082.75" y="-664.75" font-family="Helvetica,sans-Serif" font-size="10.00">_extrusion_width</text>
</a>
</g>
</g>
<!-- Node2 -->
<g id="Node000002" class="node">
<title>Node2</title>
<g id="a_Node000002"><a xlink:href="../../d3/d93/class_slic3r_1_1_fill_lightning_1_1_generator.html#a131130c615a8975a46729204ba3cc268" target="_top" xlink:title=" ">
<polygon fill="white" stroke="#666666" points="999,-770.5 885.5,-770.5 885.5,-740 999,-740 999,-770.5"/>
<text text-anchor="start" x="893.5" y="-757" font-family="Helvetica,sans-Serif" font-size="10.00">Slic3r::FillLightning</text>
<text text-anchor="middle" x="942.25" y="-745.75" font-family="Helvetica,sans-Serif" font-size="10.00">::Generator::Generator</text>
</a>
</g>
</g>
<!-- Node1&#45;&gt;Node2 -->
<g id="edge1_Node000001_Node000002" class="edge">
<title>Node1&#45;&gt;Node2</title>
<g id="a_edge1_Node000001_Node000002"><a xlink:title=" ">
<path fill="none" stroke="#63b8ff" d="M1053.73,-696.16C1038.5,-707.48 1019.04,-721.02 1000.5,-731.25 995.22,-734.17 989.5,-736.96 983.81,-739.53"/>
<polygon fill="#63b8ff" stroke="#63b8ff" points="1055.29,-698.61 1061.16,-689.79 1051.07,-693.02 1055.29,-698.61"/>
</a>
</g>
</g>
<!-- Node3 -->
<g id="Node000003" class="node">
<title>Node3</title>
<g id="a_Node000003"><a xlink:href="../../d6/d08/namespace_slic3r_1_1_fill_adaptive.html#a79a5a8767b9bbd4ad7389906cccac872" target="_top" xlink:title=" ">
<polygon fill="white" stroke="#666666" points="991.12,-722.12 893.38,-722.12 893.38,-680.38 991.12,-680.38 991.12,-722.12"/>
<text text-anchor="start" x="901.38" y="-708.62" font-family="Helvetica,sans-Serif" font-size="10.00">Slic3r::FillAdaptive</text>
<text text-anchor="start" x="901.38" y="-697.38" font-family="Helvetica,sans-Serif" font-size="10.00">::adaptive_fill_line</text>
<text text-anchor="middle" x="942.25" y="-686.12" font-family="Helvetica,sans-Serif" font-size="10.00">_spacing</text>
</a>
</g>
</g>
<!-- Node1&#45;&gt;Node3 -->
<g id="edge2_Node000001_Node000003" class="edge">
<title>Node1&#45;&gt;Node3</title>
<g id="a_edge2_Node000001_Node000003"><a xlink:title=" ">
<path fill="none" stroke="#63b8ff" d="M1025.37,-685.24C1014.07,-687.44 1002.3,-689.74 991.31,-691.88"/>
<polygon fill="#63b8ff" stroke="#63b8ff" points="1025.87,-688.51 1035.02,-683.17 1024.53,-681.64 1025.87,-688.51"/>
</a>
</g>
</g>
<!-- Node4 -->
<g id="Node000004" class="node">
<title>Node4</title>
<g id="a_Node000004"><a xlink:href="../../d6/d0f/class_slic3r_1_1_flow.html#a15232bd95f553b1657836d58fd494c47" target="_top" xlink:title=" ">
<polygon fill="white" stroke="#666666" points="999,-662.5 885.5,-662.5 885.5,-632 999,-632 999,-662.5"/>
<text text-anchor="start" x="893.5" y="-649" font-family="Helvetica,sans-Serif" font-size="10.00">Slic3r::Flow::extrusion</text>
<text text-anchor="middle" x="942.25" y="-637.75" font-family="Helvetica,sans-Serif" font-size="10.00">_width</text>
</a>
</g>
</g>
<!-- Node1&#45;&gt;Node4 -->
<g id="edge3_Node000001_Node000004" class="edge">
<title>Node1&#45;&gt;Node4</title>
<g id="a_edge3_Node000001_Node000004"><a xlink:title=" ">
<path fill="none" stroke="#63b8ff" d="M1025.26,-663.24C1016.62,-661.55 1007.7,-659.81 999.07,-658.13"/>
<polygon fill="#63b8ff" stroke="#63b8ff" points="1024.53,-666.86 1035.02,-665.33 1025.87,-659.99 1024.53,-666.86"/>
</a>
</g>
</g>
<!-- Node9 -->
<g id="Node000009" class="node">
<title>Node9</title>
<g id="a_Node000009"><a xlink:href="../../d6/d0f/class_slic3r_1_1_flow.html#a94c9e2f41027554257c0745ce18c0347" target="_top" xlink:title=" ">
<polygon fill="white" stroke="#666666" points="1000.5,-433.5 884,-433.5 884,-403 1000.5,-403 1000.5,-433.5"/>
<text text-anchor="start" x="892" y="-420" font-family="Helvetica,sans-Serif" font-size="10.00">Slic3r::Flow::new_from</text>
<text text-anchor="middle" x="942.25" y="-408.75" font-family="Helvetica,sans-Serif" font-size="10.00">_config_width</text>
</a>
</g>
</g>
<!-- Node1&#45;&gt;Node9 -->
<g id="edge8_Node000001_Node000009" class="edge">
<title>Node1&#45;&gt;Node9</title>
<g id="a_edge8_Node000001_Node000009"><a xlink:title=" ">
<path fill="none" stroke="#63b8ff" d="M1068.13,-649.07C1039.75,-596.63 975.03,-476.99 951.77,-434"/>
<polygon fill="#63b8ff" stroke="#63b8ff" points="1065.46,-650.49 1073.29,-657.62 1071.61,-647.16 1065.46,-650.49"/>
</a>
</g>
</g>
<!-- Node5 -->
<g id="Node000005" class="node">
<title>Node5</title>
<g id="a_Node000005"><a xlink:href="../../d6/d0f/class_slic3r_1_1_flow.html#ae6f5ea35bb59dc80deb1dbc6fe9cf223" target="_top" xlink:title=" ">
<polygon fill="white" stroke="#666666" points="833.75,-711.5 720.25,-711.5 720.25,-681 833.75,-681 833.75,-711.5"/>
<text text-anchor="start" x="728.25" y="-698" font-family="Helvetica,sans-Serif" font-size="10.00">Slic3r::Flow::extrusion</text>
<text text-anchor="middle" x="777" y="-686.75" font-family="Helvetica,sans-Serif" font-size="10.00">_width</text>
</a>
</g>
</g>
<!-- Node4&#45;&gt;Node5 -->
<g id="edge4_Node000004_Node000005" class="edge">
<title>Node4&#45;&gt;Node5</title>
<g id="a_edge4_Node000004_Node000005"><a xlink:title=" ">
<path fill="none" stroke="#63b8ff" d="M878.83,-665.98C862.86,-670.78 845.86,-675.88 830.45,-680.51"/>
<polygon fill="#63b8ff" stroke="#63b8ff" points="879.58,-669.12 888.15,-662.89 877.56,-662.41 879.58,-669.12"/>
</a>
</g>
</g>
<!-- Node6 -->
<g id="Node000006" class="node">
<title>Node6</title>
<g id="a_Node000006"><a xlink:href="../../dd/dc0/struct_slic3r_1_1client_1_1_my_context.html#a20d08e782f49cd76db4d5394efb9f5e1" target="_top" xlink:title=" ">
<polygon fill="white" stroke="#666666" points="839.38,-662.5 714.62,-662.5 714.62,-632 839.38,-632 839.38,-662.5"/>
<text text-anchor="start" x="722.62" y="-649" font-family="Helvetica,sans-Serif" font-size="10.00">Slic3r::client::MyContext</text>
<text text-anchor="middle" x="777" y="-637.75" font-family="Helvetica,sans-Serif" font-size="10.00">::scalar_variable_to_expr</text>
</a>
</g>
</g>
<!-- Node4&#45;&gt;Node6 -->
<g id="edge5_Node000004_Node000006" class="edge">
<title>Node4&#45;&gt;Node6</title>
<g id="a_edge5_Node000004_Node000006"><a xlink:title=" ">
<path fill="none" stroke="#63b8ff" d="M874.3,-647.25C862.91,-647.25 851.13,-647.25 839.87,-647.25"/>
<polygon fill="#63b8ff" stroke="#63b8ff" points="874.07,-650.75 884.07,-647.25 874.07,-643.75 874.07,-650.75"/>
</a>
</g>
</g>
<!-- Node7 -->
<g id="Node000007" class="node">
<title>Node7</title>
<g id="a_Node000007"><a xlink:href="../../dd/dc0/struct_slic3r_1_1client_1_1_my_context.html#aba86748cf33195561cd7f67e57d6bb46" target="_top" xlink:title=" ">
<polygon fill="white" stroke="#666666" points="651.25,-667.5 527.25,-667.5 527.25,-637 651.25,-637 651.25,-667.5"/>
<text text-anchor="start" x="535.25" y="-654" font-family="Helvetica,sans-Serif" font-size="10.00">Slic3r::client::MyContext</text>
<text text-anchor="middle" x="589.25" y="-642.75" font-family="Helvetica,sans-Serif" font-size="10.00">::variable_value</text>
</a>
</g>
</g>
<!-- Node6&#45;&gt;Node7 -->
<g id="edge6_Node000006_Node000007" class="edge">
<title>Node6&#45;&gt;Node7</title>
<g id="a_edge6_Node000006_Node000007"><a xlink:title=" ">
<path fill="none" stroke="#63b8ff" d="M703.58,-649.2C686.37,-649.66 668.17,-650.15 651.52,-650.6"/>
<polygon fill="#63b8ff" stroke="#63b8ff" points="703.25,-652.68 713.15,-648.91 703.06,-645.69 703.25,-652.68"/>
</a>
</g>
</g>
<!-- Node8 -->
<g id="Node000008" class="node">
<title>Node8</title>
<g id="a_Node000008"><a xlink:href="../../db/da4/struct_slic3r_1_1client_1_1macro__processor.html#a2ed5352dbc4723eae00ceaf09adb501f" target="_top" xlink:title=" ">
<polygon fill="white" stroke="#666666" points="472.5,-667.5 327.5,-667.5 327.5,-637 472.5,-637 472.5,-667.5"/>
<text text-anchor="start" x="335.5" y="-654" font-family="Helvetica,sans-Serif" font-size="10.00">Slic3r::client::macro</text>
<text text-anchor="middle" x="400" y="-642.75" font-family="Helvetica,sans-Serif" font-size="10.00">_processor::macro_processor</text>
</a>
</g>
</g>
<!-- Node7&#45;&gt;Node8 -->
<g id="edge7_Node000007_Node000008" class="edge">
<title>Node7&#45;&gt;Node8</title>
<g id="a_edge7_Node000007_Node000008"><a xlink:title=" ">
<path fill="none" stroke="#63b8ff" d="M516.22,-652.25C502,-652.25 487.08,-652.25 472.87,-652.25"/>
<polygon fill="#63b8ff" stroke="#63b8ff" points="515.94,-655.75 525.94,-652.25 515.94,-648.75 515.94,-655.75"/>
</a>
</g>
</g>
<!-- Node10 -->
<g id="Node000010" class="node">
<title>Node10</title>
<g id="a_Node000010"><a xlink:href="../../d5/d8f/class_slic3r_1_1_print.html#a5b587e73fcc946136a3222e74dec5c83" target="_top" xlink:title=" ">
<polygon fill="white" stroke="#666666" points="834.5,-483.88 719.5,-483.88 719.5,-464.62 834.5,-464.62 834.5,-483.88"/>
<text text-anchor="middle" x="777" y="-470.38" font-family="Helvetica,sans-Serif" font-size="10.00">Slic3r::Print::brim_flow</text>
</a>
</g>
</g>
<!-- Node9&#45;&gt;Node10 -->
<g id="edge9_Node000009_Node000010" class="edge">
<title>Node9&#45;&gt;Node10</title>
<g id="a_edge9_Node000009_Node000010"><a xlink:title=" ">
<path fill="none" stroke="#63b8ff" d="M885.13,-437.5C858.9,-446.5 828.76,-456.84 807.14,-464.25"/>
<polygon fill="#63b8ff" stroke="#63b8ff" points="886.02,-440.55 894.34,-434 883.75,-433.93 886.02,-440.55"/>
</a>
</g>
</g>
<!-- Node14 -->
<g id="Node000014" class="node">
<title>Node14</title>
<g id="a_Node000014"><a xlink:href="../../d4/df8/class_slic3r_1_1_print_region.html#ac1f8a75e679cdb169a300f104a073a9a" target="_top" xlink:title=" ">
<polygon fill="white" stroke="#666666" points="825.88,-336.5 728.12,-336.5 728.12,-306 825.88,-306 825.88,-336.5"/>
<text text-anchor="start" x="736.12" y="-323" font-family="Helvetica,sans-Serif" font-size="10.00">Slic3r::PrintRegion</text>
<text text-anchor="middle" x="777" y="-311.75" font-family="Helvetica,sans-Serif" font-size="10.00">::flow</text>
</a>
</g>
</g>
<!-- Node9&#45;&gt;Node14 -->
<g id="edge14_Node000009_Node000014" class="edge">
<title>Node9&#45;&gt;Node14</title>
<g id="a_edge14_Node000009_Node000014"><a xlink:title=" ">
<path fill="none" stroke="#63b8ff" d="M905.6,-397.07C875.11,-378.95 831.92,-353.29 804.43,-336.96"/>
<polygon fill="#63b8ff" stroke="#63b8ff" points="903.64,-400.57 914.02,-402.67 907.21,-394.55 903.64,-400.57"/>
</a>
</g>
</g>
<!-- Node23 -->
<g id="Node000023" class="node">
<title>Node23</title>
<g id="a_Node000023"><a xlink:href="../../d2/dd7/class_slic3r_1_1_preset_hints.html#a3ce53ab158c6bbb579963360ce7ab0a1" target="_top" xlink:title=" ">
<polygon fill="white" stroke="#666666" points="834.5,-604.12 719.5,-604.12 719.5,-562.38 834.5,-562.38 834.5,-604.12"/>
<text text-anchor="start" x="727.5" y="-590.62" font-family="Helvetica,sans-Serif" font-size="10.00">Slic3r::PresetHints</text>
<text text-anchor="start" x="727.5" y="-579.38" font-family="Helvetica,sans-Serif" font-size="10.00">::maximum_volumetric</text>
<text text-anchor="middle" x="777" y="-568.12" font-family="Helvetica,sans-Serif" font-size="10.00">_flow_description</text>
</a>
</g>
</g>
<!-- Node9&#45;&gt;Node23 -->
<g id="edge23_Node000009_Node000023" class="edge">
<title>Node9&#45;&gt;Node23</title>
<g id="a_edge23_Node000009_Node000023"><a xlink:title=" ">
<path fill="none" stroke="#63b8ff" d="M929.43,-443.36C914.29,-473.14 885.47,-522.6 848,-553.25 843.91,-556.6 839.38,-559.63 834.66,-562.37"/>
<polygon fill="#63b8ff" stroke="#63b8ff" points="932.91,-445.22 934.21,-434.71 926.63,-442.12 932.91,-445.22"/>
</a>
</g>
</g>
<!-- Node24 -->
<g id="Node000024" class="node">
<title>Node24</title>
<g id="a_Node000024"><a xlink:href="../../d2/dd7/class_slic3r_1_1_preset_hints.html#a10f2ed9c05b1ca83088c42dd873a4cef" target="_top" xlink:title=" ">
<polygon fill="white" stroke="#666666" points="840.5,-544.12 713.5,-544.12 713.5,-502.38 840.5,-502.38 840.5,-544.12"/>
<text text-anchor="start" x="721.5" y="-530.62" font-family="Helvetica,sans-Serif" font-size="10.00">Slic3r::PresetHints</text>
<text text-anchor="start" x="721.5" y="-519.38" font-family="Helvetica,sans-Serif" font-size="10.00">::recommended_thin_wall</text>
<text text-anchor="middle" x="777" y="-508.12" font-family="Helvetica,sans-Serif" font-size="10.00">_thickness</text>
</a>
</g>
</g>
<!-- Node9&#45;&gt;Node24 -->
<g id="edge24_Node000009_Node000024" class="edge">
<title>Node9&#45;&gt;Node24</title>
<g id="a_edge24_Node000009_Node000024"><a xlink:title=" ">
<path fill="none" stroke="#63b8ff" d="M917.04,-440.8C898.98,-456.84 873.17,-478.12 848,-493.25 842.9,-496.31 837.43,-499.23 831.88,-501.95"/>
<polygon fill="#63b8ff" stroke="#63b8ff" points="918.67,-444.14 923.76,-434.85 913.99,-438.94 918.67,-444.14"/>
</a>
</g>
</g>
<!-- Node26 -->
<g id="Node000026" class="node">
<title>Node26</title>
<g id="a_Node000026"><a xlink:href="../../d5/d8f/class_slic3r_1_1_print.html#a07ac4560476cd9acf10c859516145c4f" target="_top" xlink:title=" ">
<polygon fill="white" stroke="#666666" points="834.5,-427.88 719.5,-427.88 719.5,-408.62 834.5,-408.62 834.5,-427.88"/>
<text text-anchor="middle" x="777" y="-414.38" font-family="Helvetica,sans-Serif" font-size="10.00">Slic3r::Print::skirt_flow</text>
</a>
</g>
</g>
<!-- Node9&#45;&gt;Node26 -->
<g id="edge26_Node000009_Node000026" class="edge">
<title>Node9&#45;&gt;Node26</title>
<g id="a_edge26_Node000009_Node000026"><a xlink:title=" ">
<path fill="none" stroke="#63b8ff" d="M872.73,-418.25C860.08,-418.25 847.01,-418.25 834.76,-418.25"/>
<polygon fill="#63b8ff" stroke="#63b8ff" points="872.69,-421.75 882.69,-418.25 872.69,-414.75 872.69,-421.75"/>
</a>
</g>
</g>
<!-- Node31 -->
<g id="Node000031" class="node">
<title>Node31</title>
<g id="a_Node000031"><a xlink:href="../../de/db8/namespace_slic3r.html#acbe607472f0878047e9973fcd69f006a" target="_top" xlink:title=" ">
<polygon fill="white" stroke="#666666" points="836.38,-287.5 717.62,-287.5 717.62,-257 836.38,-257 836.38,-287.5"/>
<text text-anchor="start" x="725.62" y="-274" font-family="Helvetica,sans-Serif" font-size="10.00">Slic3r::support_material</text>
<text text-anchor="middle" x="777" y="-262.75" font-family="Helvetica,sans-Serif" font-size="10.00">_1st_layer_flow</text>
</a>
</g>
</g>
<!-- Node9&#45;&gt;Node31 -->
<g id="edge33_Node000009_Node000031" class="edge">
<title>Node9&#45;&gt;Node31</title>
<g id="a_edge33_Node000009_Node000031"><a xlink:title=" ">
<path fill="none" stroke="#63b8ff" d="M927.88,-393.33C912.13,-366.15 883.54,-323.08 848,-297.25 843.09,-293.68 837.63,-290.58 831.98,-287.9"/>
<polygon fill="#63b8ff" stroke="#63b8ff" points="925.13,-394.58 933.1,-401.56 931.23,-391.13 925.13,-394.58"/>
</a>
</g>
</g>
<!-- Node32 -->
<g id="Node000032" class="node">
<title>Node32</title>
<g id="a_Node000032"><a xlink:href="../../de/db8/namespace_slic3r.html#a7a84976eeb16c9a039b46f731199bd58" target="_top" xlink:title=" ">
<polygon fill="white" stroke="#666666" points="848,-159.88 706,-159.88 706,-140.62 848,-140.62 848,-159.88"/>
<text text-anchor="middle" x="777" y="-146.38" font-family="Helvetica,sans-Serif" font-size="10.00">Slic3r::support_material_flow</text>
</a>
</g>
</g>
<!-- Node9&#45;&gt;Node32 -->
<g id="edge35_Node000009_Node000032" class="edge">
<title>Node9&#45;&gt;Node32</title>
<g id="a_edge35_Node000009_Node000032"><a xlink:title=" ">
<path fill="none" stroke="#63b8ff" d="M935.15,-392.04C923.94,-348.28 896.62,-259.21 848,-199.25 834.36,-182.43 813.51,-168.86 798.11,-160.3"/>
<polygon fill="#63b8ff" stroke="#63b8ff" points="931.97,-392.77 937.78,-401.64 938.77,-391.09 931.97,-392.77"/>
</a>
</g>
</g>
<!-- Node38 -->
<g id="Node000038" class="node">
<title>Node38</title>
<g id="a_Node000038"><a xlink:href="../../de/db8/namespace_slic3r.html#aa1f36f6004a4359d15dec3d8bbcf3e3e" target="_top" xlink:title=" ">
<polygon fill="white" stroke="#666666" points="836.38,-238.5 717.62,-238.5 717.62,-208 836.38,-208 836.38,-238.5"/>
<text text-anchor="start" x="725.62" y="-225" font-family="Helvetica,sans-Serif" font-size="10.00">Slic3r::support_material</text>
<text text-anchor="middle" x="777" y="-213.75" font-family="Helvetica,sans-Serif" font-size="10.00">_interface_flow</text>
</a>
</g>
</g>
<!-- Node9&#45;&gt;Node38 -->
<g id="edge44_Node000009_Node000038" class="edge">
<title>Node9&#45;&gt;Node38</title>
<g id="a_edge44_Node000009_Node000038"><a xlink:title=" ">
<path fill="none" stroke="#63b8ff" d="M933.55,-392.24C921.31,-355.21 893.96,-287.44 848,-248.25 843.78,-244.65 839,-241.55 833.97,-238.89"/>
<polygon fill="#63b8ff" stroke="#63b8ff" points="930.5,-393.22 936.87,-401.68 937.17,-391.09 930.5,-393.22"/>
</a>
</g>
</g>
<!-- Node11 -->
<g id="Node000011" class="node">
<title>Node11</title>
<g id="a_Node000011"><a xlink:href="../../de/db8/namespace_slic3r.html#ad42a7b1e24a6387717cccc44fe1b85e6" target="_top" xlink:title=" ">
<polygon fill="white" stroke="#666666" points="636.62,-514.88 541.88,-514.88 541.88,-495.62 636.62,-495.62 636.62,-514.88"/>
<text text-anchor="middle" x="589.25" y="-501.38" font-family="Helvetica,sans-Serif" font-size="10.00">Slic3r::make_brim</text>
</a>
</g>
</g>
<!-- Node10&#45;&gt;Node11 -->
<g id="edge10_Node000010_Node000011" class="edge">
<title>Node10&#45;&gt;Node11</title>
<g id="a_edge10_Node000010_Node000011"><a xlink:title=" ">
<path fill="none" stroke="#63b8ff" d="M708.3,-485.55C684.57,-489.51 658.46,-493.87 636.85,-497.47"/>
<polygon fill="#63b8ff" stroke="#63b8ff" points="708.72,-488.86 718.01,-483.76 707.57,-481.96 708.72,-488.86"/>
</a>
</g>
</g>
<!-- Node13 -->
<g id="Node000013" class="node">
<title>Node13</title>
<g id="a_Node000013"><a xlink:href="../../de/db8/namespace_slic3r.html#a78fa9cea027d63b56f58abe7d3f92fa8" target="_top" xlink:title=" ">
<polygon fill="white" stroke="#666666" points="649.75,-569.88 528.75,-569.88 528.75,-550.62 649.75,-550.62 649.75,-569.88"/>
<text text-anchor="middle" x="589.25" y="-556.38" font-family="Helvetica,sans-Serif" font-size="10.00">Slic3r::make_inner_brim</text>
</a>
</g>
</g>
<!-- Node10&#45;&gt;Node13 -->
<g id="edge13_Node000010_Node000013" class="edge">
<title>Node10&#45;&gt;Node13</title>
<g id="a_edge13_Node000010_Node000013"><a xlink:title=" ">
<path fill="none" stroke="#63b8ff" d="M713.57,-488.73C710.94,-490.1 708.4,-491.6 706,-493.25 683.71,-508.53 692.61,-527.45 670,-542.25 663.94,-546.21 657.13,-549.31 650.11,-551.74"/>
<polygon fill="#63b8ff" stroke="#63b8ff" points="714.73,-491.59 722.42,-484.3 711.86,-485.21 714.73,-491.59"/>
</a>
</g>
</g>
<!-- Node11&#45;&gt;Node11 -->
<g id="edge11_Node000011_Node000011" class="edge">
<title>Node11&#45;&gt;Node11</title>
<g id="a_edge11_Node000011_Node000011"><a xlink:title=" ">
<path fill="none" stroke="#63b8ff" d="M623.73,-524.9C620.86,-529.49 609.36,-532.88 589.25,-532.88 556.25,-532.88 546.45,-523.77 559.86,-515.16"/>
<polygon fill="#63b8ff" stroke="#63b8ff" points="626.38,-523.41 618.64,-516.16 620.17,-526.65 626.38,-523.41"/>
</a>
</g>
</g>
<!-- Node12 -->
<g id="Node000012" class="node">
<title>Node12</title>
<g id="a_Node000012"><a xlink:href="../../d5/d8f/class_slic3r_1_1_print.html#a9323a02226e9ecffd2bbc0a28c0419e5" target="_top" xlink:title=" ">
<polygon fill="white" stroke="#666666" points="453.75,-514.88 346.25,-514.88 346.25,-495.62 453.75,-495.62 453.75,-514.88"/>
<text text-anchor="middle" x="400" y="-501.38" font-family="Helvetica,sans-Serif" font-size="10.00">Slic3r::Print::process</text>
</a>
</g>
</g>
<!-- Node11&#45;&gt;Node12 -->
<g id="edge12_Node000011_Node000012" class="edge">
<title>Node11&#45;&gt;Node12</title>
<g id="a_edge12_Node000011_Node000012"><a xlink:title=" ">
<path fill="none" stroke="#63b8ff" d="M530.58,-505.25C506.2,-505.25 477.98,-505.25 454.11,-505.25"/>
<polygon fill="#63b8ff" stroke="#63b8ff" points="530.48,-508.75 540.48,-505.25 530.48,-501.75 530.48,-508.75"/>
</a>
</g>
</g>
<!-- Node15 -->
<g id="Node000015" class="node">
<title>Node15</title>
<g id="a_Node000015"><a xlink:href="../../d7/df4/struct_slic3r_1_1_f_f_f_support_1_1_support_parameters.html#a6e5553a0eb0ad727cd26175eb7d1563e" target="_top" xlink:title=" ">
<polygon fill="white" stroke="#666666" points="642.25,-255.12 536.25,-255.12 536.25,-213.38 642.25,-213.38 642.25,-255.12"/>
<text text-anchor="start" x="544.25" y="-241.62" font-family="Helvetica,sans-Serif" font-size="10.00">Slic3r::FFFSupport</text>
<text text-anchor="start" x="544.25" y="-230.38" font-family="Helvetica,sans-Serif" font-size="10.00">::SupportParameters</text>
<text text-anchor="middle" x="589.25" y="-219.12" font-family="Helvetica,sans-Serif" font-size="10.00">::SupportParameters</text>
</a>
</g>
</g>
<!-- Node14&#45;&gt;Node15 -->
<g id="edge15_Node000014_Node000015" class="edge">
<title>Node14&#45;&gt;Node15</title>
<g id="a_edge15_Node000014_Node000015"><a xlink:title=" ">
<path fill="none" stroke="#63b8ff" d="M717.66,-301.95C713.65,-300.16 709.73,-298.25 706,-296.25 688.38,-286.78 687.27,-279.34 670,-269.25 661.38,-264.22 651.91,-259.45 642.59,-255.15"/>
<polygon fill="#63b8ff" stroke="#63b8ff" points="716.15,-305.53 726.73,-306.17 718.86,-299.08 716.15,-305.53"/>
</a>
</g>
</g>
<!-- Node16 -->
<g id="Node000016" class="node">
<title>Node16</title>
<g id="a_Node000016"><a xlink:href="../../da/d67/struct_slic3r_1_1_f_f_f_tree_support_1_1_tree_support_mesh_group_settings.html#a2db6e8433cad5263c20d8a9dde64ee20" target="_top" xlink:title=" ">
<polygon fill="white" stroke="#666666" points="670,-195.12 508.5,-195.12 508.5,-153.38 670,-153.38 670,-195.12"/>
<text text-anchor="start" x="516.5" y="-181.62" font-family="Helvetica,sans-Serif" font-size="10.00">Slic3r::FFFTreeSupport</text>
<text text-anchor="start" x="516.5" y="-170.38" font-family="Helvetica,sans-Serif" font-size="10.00">::TreeSupportMeshGroupSettings</text>
<text text-anchor="middle" x="589.25" y="-159.12" font-family="Helvetica,sans-Serif" font-size="10.00">::TreeSupportMeshGroupSettings</text>
</a>
</g>
</g>
<!-- Node14&#45;&gt;Node16 -->
<g id="edge16_Node000014_Node000016" class="edge">
<title>Node14&#45;&gt;Node16</title>
<g id="a_edge16_Node000014_Node000016"><a xlink:title=" ">
<path fill="none" stroke="#63b8ff" d="M717.88,-305.2C713.57,-302.64 709.53,-299.68 706,-296.25 674.49,-265.67 701.25,-235.09 670,-204.25 666.74,-201.03 663.09,-198.15 659.21,-195.57"/>
<polygon fill="#63b8ff" stroke="#63b8ff" points="716.16,-308.76 726.66,-310.18 719.34,-302.52 716.16,-308.76"/>
</a>
</g>
</g>
<!-- Node17 -->
<g id="Node000017" class="node">
<title>Node17</title>
<g id="a_Node000017"><a xlink:href="../../dd/dc8/class_slic3r_1_1_g_code.html#ad5ac0f44c2121cf8d09cc7fde2dae045" target="_top" xlink:title=" ">
<polygon fill="white" stroke="#666666" points="276.5,-276.5 177.25,-276.5 177.25,-246 276.5,-246 276.5,-276.5"/>
<text text-anchor="start" x="185.25" y="-263" font-family="Helvetica,sans-Serif" font-size="10.00">Slic3r::GCode::_do</text>
<text text-anchor="middle" x="226.88" y="-251.75" font-family="Helvetica,sans-Serif" font-size="10.00">_export</text>
</a>
</g>
</g>
<!-- Node14&#45;&gt;Node17 -->
<g id="edge17_Node000014_Node000017" class="edge">
<title>Node14&#45;&gt;Node17</title>
<g id="a_edge17_Node000014_Node000017"><a xlink:title=" ">
<path fill="none" stroke="#63b8ff" d="M717.4,-310.03C702.01,-307.28 685.41,-304.49 670,-302.25 527.91,-281.63 358.55,-269.31 276.81,-264.13"/>
<polygon fill="#63b8ff" stroke="#63b8ff" points="716.36,-313.58 726.83,-311.92 717.61,-306.69 716.36,-313.58"/>
</a>
</g>
</g>
<!-- Node19 -->
<g id="Node000019" class="node">
<title>Node19</title>
<g id="a_Node000019"><a xlink:href="../../dd/d90/class_slic3r_1_1_layer_region.html#aed11ff1ee9801a57b9702cb710dee969" target="_top" xlink:title=" ">
<polygon fill="white" stroke="#666666" points="640,-379.5 538.5,-379.5 538.5,-349 640,-349 640,-379.5"/>
<text text-anchor="start" x="546.5" y="-366" font-family="Helvetica,sans-Serif" font-size="10.00">Slic3r::LayerRegion</text>
<text text-anchor="middle" x="589.25" y="-354.75" font-family="Helvetica,sans-Serif" font-size="10.00">::flow</text>
</a>
</g>
</g>
<!-- Node14&#45;&gt;Node19 -->
<g id="edge19_Node000014_Node000019" class="edge">
<title>Node14&#45;&gt;Node19</title>
<g id="a_edge19_Node000014_Node000019"><a xlink:title=" ">
<path fill="none" stroke="#63b8ff" d="M716.99,-334.91C692.3,-340.63 663.91,-347.2 640.27,-352.67"/>
<polygon fill="#63b8ff" stroke="#63b8ff" points="717.73,-338.1 726.68,-332.44 716.15,-331.28 717.73,-338.1"/>
</a>
</g>
</g>
<!-- Node20 -->
<g id="Node000020" class="node">
<title>Node20</title>
<g id="a_Node000020"><a xlink:href="../../de/db8/namespace_slic3r.html#a667e3592bdcf762327118324e2f53e9e" target="_top" xlink:title=" ">
<polygon fill="white" stroke="#666666" points="634.75,-330.88 543.75,-330.88 543.75,-311.62 634.75,-311.62 634.75,-330.88"/>
<text text-anchor="middle" x="589.25" y="-317.38" font-family="Helvetica,sans-Serif" font-size="10.00">Slic3r::group_fills</text>
</a>
</g>
</g>
<!-- Node14&#45;&gt;Node20 -->
<g id="edge20_Node000014_Node000020" class="edge">
<title>Node14&#45;&gt;Node20</title>
<g id="a_edge20_Node000014_Node000020"><a xlink:title=" ">
<path fill="none" stroke="#63b8ff" d="M717,-321.25C690.49,-321.25 659.72,-321.25 635.14,-321.25"/>
<polygon fill="#63b8ff" stroke="#63b8ff" points="716.68,-324.75 726.68,-321.25 716.68,-317.75 716.68,-324.75"/>
</a>
</g>
</g>
<!-- Node18 -->
<g id="Node000018" class="node">
<title>Node18</title>
<g id="a_Node000018"><a xlink:href="../../dd/dc8/class_slic3r_1_1_g_code.html#a41ddab6bfd15c1848026271f48485efb" target="_top" xlink:title=" ">
<polygon fill="white" stroke="#666666" points="126.25,-270.88 0,-270.88 0,-251.62 126.25,-251.62 126.25,-270.88"/>
<text text-anchor="middle" x="63.12" y="-257.38" font-family="Helvetica,sans-Serif" font-size="10.00">Slic3r::GCode::do_export</text>
</a>
</g>
</g>
<!-- Node17&#45;&gt;Node18 -->
<g id="edge18_Node000017_Node000018" class="edge">
<title>Node17&#45;&gt;Node18</title>
<g id="a_edge18_Node000017_Node000018"><a xlink:title=" ">
<path fill="none" stroke="#63b8ff" d="M166.29,-261.25C153.39,-261.25 139.71,-261.25 126.7,-261.25"/>
<polygon fill="#63b8ff" stroke="#63b8ff" points="165.91,-264.75 175.91,-261.25 165.91,-257.75 165.91,-264.75"/>
</a>
</g>
</g>
<!-- Node21 -->
<g id="Node000021" class="node">
<title>Node21</title>
<g id="a_Node000021"><a xlink:href="../../d1/d68/class_slic3r_1_1_layer.html#ad6843af1bff160c288e6ad6197375871" target="_top" xlink:title=" ">
<polygon fill="white" stroke="#666666" points="458.25,-331.12 341.75,-331.12 341.75,-289.38 458.25,-289.38 458.25,-331.12"/>
<text text-anchor="start" x="349.75" y="-317.62" font-family="Helvetica,sans-Serif" font-size="10.00">Slic3r::Layer::generate</text>
<text text-anchor="start" x="349.75" y="-306.38" font-family="Helvetica,sans-Serif" font-size="10.00">_sparse_infill_polylines</text>
<text text-anchor="middle" x="400" y="-295.12" font-family="Helvetica,sans-Serif" font-size="10.00">_for_anchoring</text>
</a>
</g>
</g>
<!-- Node20&#45;&gt;Node21 -->
<g id="edge21_Node000020_Node000021" class="edge">
<title>Node20&#45;&gt;Node21</title>
<g id="a_edge21_Node000020_Node000021"><a xlink:title=" ">
<path fill="none" stroke="#63b8ff" d="M532.63,-317.98C509.29,-316.61 482.16,-315.02 458.61,-313.63"/>
<polygon fill="#63b8ff" stroke="#63b8ff" points="532.21,-321.52 542.4,-318.62 532.62,-314.53 532.21,-321.52"/>
</a>
</g>
</g>
<!-- Node22 -->
<g id="Node000022" class="node">
<title>Node22</title>
<g id="a_Node000022"><a xlink:href="../../d1/d68/class_slic3r_1_1_layer.html#abc1b27f71cfcabc24aa3923565111567" target="_top" xlink:title=" ">
<polygon fill="white" stroke="#666666" points="450.38,-379.5 349.62,-379.5 349.62,-349 450.38,-349 450.38,-379.5"/>
<text text-anchor="start" x="357.62" y="-366" font-family="Helvetica,sans-Serif" font-size="10.00">Slic3r::Layer::make</text>
<text text-anchor="middle" x="400" y="-354.75" font-family="Helvetica,sans-Serif" font-size="10.00">_fills</text>
</a>
</g>
</g>
<!-- Node20&#45;&gt;Node22 -->
<g id="edge22_Node000020_Node000022" class="edge">
<title>Node20&#45;&gt;Node22</title>
<g id="a_edge22_Node000020_Node000022"><a xlink:title=" ">
<path fill="none" stroke="#63b8ff" d="M533.8,-333.75C507.51,-339.79 476.19,-346.98 450.57,-352.87"/>
<polygon fill="#63b8ff" stroke="#63b8ff" points="534.39,-336.98 543.35,-331.33 532.82,-330.16 534.39,-336.98"/>
</a>
</g>
</g>
<!-- Node25 -->
<g id="Node000025" class="node">
<title>Node25</title>
<g id="a_Node000025"><a xlink:href="../../db/dad/class_slic3r_1_1_g_u_i_1_1_tab_print.html#a7473695bb304ff9bc04b6f1ce3eee8fb" target="_top" xlink:title=" ">
<polygon fill="white" stroke="#666666" points="653.88,-618.5 524.62,-618.5 524.62,-588 653.88,-588 653.88,-618.5"/>
<text text-anchor="start" x="532.62" y="-605" font-family="Helvetica,sans-Serif" font-size="10.00">Slic3r::GUI::TabPrint</text>
<text text-anchor="middle" x="589.25" y="-593.75" font-family="Helvetica,sans-Serif" font-size="10.00">::update_description_lines</text>
</a>
</g>
</g>
<!-- Node24&#45;&gt;Node25 -->
<g id="edge25_Node000024_Node000025" class="edge">
<title>Node24&#45;&gt;Node25</title>
<g id="a_edge25_Node000024_Node000025"><a xlink:title=" ">
<path fill="none" stroke="#63b8ff" d="M713.29,-549.3C710.8,-550.59 708.37,-551.91 706,-553.25 688.83,-562.97 687.69,-570.51 670,-579.25 663.78,-582.32 657.09,-585.09 650.32,-587.55"/>
<polygon fill="#63b8ff" stroke="#63b8ff" points="714.62,-552.05 722.02,-544.47 711.51,-545.78 714.62,-552.05"/>
</a>
</g>
</g>
<!-- Node27 -->
<g id="Node000027" class="node">
<title>Node27</title>
<g id="a_Node000027"><a xlink:href="../../d5/d8f/class_slic3r_1_1_print.html#a28324fbec9bb3236086ecc2145a5c840" target="_top" xlink:title=" ">
<polygon fill="white" stroke="#666666" points="640.38,-477.5 538.12,-477.5 538.12,-447 640.38,-447 640.38,-477.5"/>
<text text-anchor="start" x="546.12" y="-464" font-family="Helvetica,sans-Serif" font-size="10.00">Slic3r::Print::_make</text>
<text text-anchor="middle" x="589.25" y="-452.75" font-family="Helvetica,sans-Serif" font-size="10.00">_skirt</text>
</a>
</g>
</g>
<!-- Node26&#45;&gt;Node27 -->
<g id="edge27_Node000026_Node000027" class="edge">
<title>Node26&#45;&gt;Node27</title>
<g id="a_edge27_Node000026_Node000027"><a xlink:title=" ">
<path fill="none" stroke="#63b8ff" d="M723,-430.8C697.1,-436.94 666.1,-444.28 640.58,-450.33"/>
<polygon fill="#63b8ff" stroke="#63b8ff" points="723.46,-434.06 732.39,-428.34 721.85,-427.24 723.46,-434.06"/>
</a>
</g>
</g>
<!-- Node28 -->
<g id="Node000028" class="node">
<title>Node28</title>
<g id="a_Node000028"><a xlink:href="../../dd/dc8/class_slic3r_1_1_g_code.html#a9cc98ab48cc34a5705a931adb15dba33" target="_top" xlink:title=" ">
<polygon fill="white" stroke="#666666" points="648.25,-428.5 530.25,-428.5 530.25,-398 648.25,-398 648.25,-428.5"/>
<text text-anchor="start" x="538.25" y="-415" font-family="Helvetica,sans-Serif" font-size="10.00">Slic3r::GCode::process</text>
<text text-anchor="middle" x="589.25" y="-403.75" font-family="Helvetica,sans-Serif" font-size="10.00">_layer</text>
</a>
</g>
</g>
<!-- Node26&#45;&gt;Node28 -->
<g id="edge29_Node000026_Node000028" class="edge">
<title>Node26&#45;&gt;Node28</title>
<g id="a_edge29_Node000026_Node000028"><a xlink:title=" ">
<path fill="none" stroke="#63b8ff" d="M708.07,-416.42C688.61,-415.9 667.58,-415.33 648.74,-414.82"/>
<polygon fill="#63b8ff" stroke="#63b8ff" points="707.92,-419.95 718.01,-416.72 708.1,-412.95 707.92,-419.95"/>
</a>
</g>
</g>
<!-- Node27&#45;&gt;Node12 -->
<g id="edge28_Node000027_Node000012" class="edge">
<title>Node27&#45;&gt;Node12</title>
<g id="a_edge28_Node000027_Node000012"><a xlink:title=" ">
<path fill="none" stroke="#63b8ff" d="M527.59,-476.18C500.67,-482.36 469.57,-489.5 444.94,-495.16"/>
<polygon fill="#63b8ff" stroke="#63b8ff" points="528.11,-479.42 537.07,-473.77 526.54,-472.6 528.11,-479.42"/>
</a>
</g>
</g>
<!-- Node29 -->
<g id="Node000029" class="node">
<title>Node29</title>
<g id="a_Node000029"><a xlink:href="../../dd/dc8/class_slic3r_1_1_g_code.html#ae9d03a71321e19a7349fe7bdf892eeb5" target="_top" xlink:title=" ">
<polygon fill="white" stroke="#666666" points="459,-477.5 341,-477.5 341,-447 459,-447 459,-477.5"/>
<text text-anchor="start" x="349" y="-464" font-family="Helvetica,sans-Serif" font-size="10.00">Slic3r::GCode::process</text>
<text text-anchor="middle" x="400" y="-452.75" font-family="Helvetica,sans-Serif" font-size="10.00">_layers</text>
</a>
</g>
</g>
<!-- Node28&#45;&gt;Node29 -->
<g id="edge30_Node000028_Node000029" class="edge">
<title>Node28&#45;&gt;Node29</title>
<g id="a_edge30_Node000028_Node000029"><a xlink:title=" ">
<path fill="none" stroke="#63b8ff" d="M519.33,-431.29C499.63,-436.44 478.36,-442.01 459.36,-446.98"/>
<polygon fill="#63b8ff" stroke="#63b8ff" points="519.98,-434.47 528.77,-428.55 518.21,-427.7 519.98,-434.47"/>
</a>
</g>
</g>
<!-- Node30 -->
<g id="Node000030" class="node">
<title>Node30</title>
<g id="a_Node000030"><a xlink:href="../../dd/dc8/class_slic3r_1_1_g_code.html#af9001478c63dd7c5909161470e3d13a7" target="_top" xlink:title=" ">
<polygon fill="white" stroke="#666666" points="459,-428.5 341,-428.5 341,-398 459,-398 459,-428.5"/>
<text text-anchor="start" x="349" y="-415" font-family="Helvetica,sans-Serif" font-size="10.00">Slic3r::GCode::process</text>
<text text-anchor="middle" x="400" y="-403.75" font-family="Helvetica,sans-Serif" font-size="10.00">_layers</text>
</a>
</g>
</g>
<!-- Node28&#45;&gt;Node30 -->
<g id="edge32_Node000028_Node000030" class="edge">
<title>Node28&#45;&gt;Node30</title>
<g id="a_edge32_Node000028_Node000030"><a xlink:title=" ">
<path fill="none" stroke="#63b8ff" d="M518.78,-413.25C499.24,-413.25 478.18,-413.25 459.36,-413.25"/>
<polygon fill="#63b8ff" stroke="#63b8ff" points="518.77,-416.75 528.77,-413.25 518.77,-409.75 518.77,-416.75"/>
</a>
</g>
</g>
<!-- Node29&#45;&gt;Node17 -->
<g id="edge31_Node000029_Node000017" class="edge">
<title>Node29&#45;&gt;Node17</title>
<g id="a_edge31_Node000029_Node000017"><a xlink:title=" ">
<path fill="none" stroke="#63b8ff" d="M332.6,-441.12C330.83,-439.9 329.13,-438.61 327.5,-437.25 273.88,-392.45 243.42,-310.95 232.52,-276.88"/>
<polygon fill="#63b8ff" stroke="#63b8ff" points="330.51,-444.54 340.89,-446.66 334.09,-438.53 330.51,-444.54"/>
</a>
</g>
</g>
<!-- Node31&#45;&gt;Node15 -->
<g id="edge34_Node000031_Node000015" class="edge">
<title>Node31&#45;&gt;Node15</title>
<g id="a_edge34_Node000031_Node000015"><a xlink:title=" ">
<path fill="none" stroke="#63b8ff" d="M706.66,-258.07C685.48,-253.73 662.54,-249.04 642.67,-244.97"/>
<polygon fill="#63b8ff" stroke="#63b8ff" points="705.73,-261.65 716.23,-260.23 707.13,-254.79 705.73,-261.65"/>
</a>
</g>
</g>
<!-- Node32&#45;&gt;Node15 -->
<g id="edge36_Node000032_Node000015" class="edge">
<title>Node32&#45;&gt;Node15</title>
<g id="a_edge36_Node000032_Node000015"><a xlink:title=" ">
<path fill="none" stroke="#63b8ff" d="M748.3,-165.44C727.15,-176.77 697.12,-192.29 670,-204.25 661.2,-208.13 651.73,-211.98 642.5,-215.55"/>
<polygon fill="#63b8ff" stroke="#63b8ff" points="749.78,-168.07 756.92,-160.24 746.45,-161.91 749.78,-168.07"/>
</a>
</g>
</g>
<!-- Node32&#45;&gt;Node16 -->
<g id="edge37_Node000032_Node000016" class="edge">
<title>Node32&#45;&gt;Node16</title>
<g id="a_edge37_Node000032_Node000016"><a xlink:title=" ">
<path fill="none" stroke="#63b8ff" d="M694.62,-160.77C686.56,-161.81 678.38,-162.86 670.33,-163.9"/>
<polygon fill="#63b8ff" stroke="#63b8ff" points="695.04,-164.11 704.51,-159.36 694.14,-157.17 695.04,-164.11"/>
</a>
</g>
</g>
<!-- Node32&#45;&gt;Node17 -->
<g id="edge38_Node000032_Node000017" class="edge">
<title>Node32&#45;&gt;Node17</title>
<g id="a_edge38_Node000032_Node000017"><a xlink:title=" ">
<path fill="none" stroke="#63b8ff" d="M694.92,-139.3C641.46,-134.3 570.18,-131.91 508.5,-144.25 410.42,-163.88 303.78,-218.56 254.99,-245.64"/>
<polygon fill="#63b8ff" stroke="#63b8ff" points="694.41,-142.86 704.71,-140.36 695.1,-135.89 694.41,-142.86"/>
</a>
</g>
</g>
<!-- Node33 -->
<g id="Node000033" class="node">
<title>Node33</title>
<g id="a_Node000033"><a xlink:href="../../de/d87/class_slic3r_1_1_print_object.html#a924a6a55611b2b457c9bf89eedc923b5" target="_top" xlink:title=" ">
<polygon fill="white" stroke="#666666" points="659.88,-97.5 518.62,-97.5 518.62,-67 659.88,-67 659.88,-97.5"/>
<text text-anchor="start" x="526.62" y="-84" font-family="Helvetica,sans-Serif" font-size="10.00">Slic3r::PrintObject</text>
<text text-anchor="middle" x="589.25" y="-72.75" font-family="Helvetica,sans-Serif" font-size="10.00">::estimate_curled_extrusions</text>
</a>
</g>
</g>
<!-- Node32&#45;&gt;Node33 -->
<g id="edge39_Node000032_Node000033" class="edge">
<title>Node32&#45;&gt;Node33</title>
<g id="a_edge39_Node000032_Node000033"><a xlink:title=" ">
<path fill="none" stroke="#63b8ff" d="M738.89,-136.56C718.55,-129.06 692.9,-119.62 670,-111.25 658.1,-106.9 645.2,-102.2 633.31,-97.87"/>
<polygon fill="#63b8ff" stroke="#63b8ff" points="737.4,-140.11 748,-140.28 739.83,-133.54 737.4,-140.11"/>
</a>
</g>
</g>
<!-- Node34 -->
<g id="Node000034" class="node">
<title>Node34</title>
<g id="a_Node000034"><a xlink:href="../../de/db8/namespace_slic3r.html#a739c808318e457ee17e40b8408d344fa" target="_top" xlink:title=" ">
<polygon fill="white" stroke="#666666" points="636.25,-30.5 542.25,-30.5 542.25,0 636.25,0 636.25,-30.5"/>
<text text-anchor="start" x="550.25" y="-17" font-family="Helvetica,sans-Serif" font-size="10.00">Slic3r::fill_contact</text>
<text text-anchor="middle" x="589.25" y="-5.75" font-family="Helvetica,sans-Serif" font-size="10.00">_layer</text>
</a>
</g>
</g>
<!-- Node32&#45;&gt;Node34 -->
<g id="edge40_Node000032_Node000034" class="edge">
<title>Node32&#45;&gt;Node34</title>
<g id="a_edge40_Node000032_Node000034"><a xlink:title=" ">
<path fill="none" stroke="#63b8ff" d="M758.34,-132.75C738.07,-113.2 703.33,-81.28 670,-58.25 655.25,-48.06 637.82,-38.41 623.02,-30.85"/>
<polygon fill="#63b8ff" stroke="#63b8ff" points="755.49,-134.83 765.09,-139.31 760.37,-129.82 755.49,-134.83"/>
</a>
</g>
</g>
<!-- Node34&#45;&gt;Node34 -->
<g id="edge41_Node000034_Node000034" class="edge">
<title>Node34&#45;&gt;Node34</title>
<g id="a_edge41_Node000034_Node000034"><a xlink:title=" ">
<path fill="none" stroke="#63b8ff" d="M621.16,-41.88C616.18,-45.83 605.55,-48.5 589.25,-48.5 560.28,-48.5 549.19,-40.06 555.98,-30.99"/>
<polygon fill="#63b8ff" stroke="#63b8ff" points="624.76,-42.34 622.52,-31.99 617.81,-41.48 624.76,-42.34"/>
</a>
</g>
</g>
<!-- Node35 -->
<g id="Node000035" class="node">
<title>Node35</title>
<g id="a_Node000035"><a xlink:href="../../d2/d8a/class_slic3r_1_1_print_object_support_material.html#a3fccb369feffc935791c53edcc68a785" target="_top" xlink:title=" ">
<polygon fill="white" stroke="#666666" points="469.5,-30.5 330.5,-30.5 330.5,0 469.5,0 469.5,-30.5"/>
<text text-anchor="start" x="338.5" y="-17" font-family="Helvetica,sans-Serif" font-size="10.00">Slic3r::PrintObjectSupport</text>
<text text-anchor="middle" x="400" y="-5.75" font-family="Helvetica,sans-Serif" font-size="10.00">Material::top_contact_layers</text>
</a>
</g>
</g>
<!-- Node34&#45;&gt;Node35 -->
<g id="edge42_Node000034_Node000035" class="edge">
<title>Node34&#45;&gt;Node35</title>
<g id="a_edge42_Node000034_Node000035"><a xlink:title=" ">
<path fill="none" stroke="#63b8ff" d="M531.18,-15.25C511.8,-15.25 489.94,-15.25 469.75,-15.25"/>
<polygon fill="#63b8ff" stroke="#63b8ff" points="530.96,-18.75 540.96,-15.25 530.96,-11.75 530.96,-18.75"/>
</a>
</g>
</g>
<!-- Node36 -->
<g id="Node000036" class="node">
<title>Node36</title>
<g id="a_Node000036"><a xlink:href="../../d2/d8a/class_slic3r_1_1_print_object_support_material.html#aa91db86d2d6af50dc0cb0c8b3b5ffda3" target="_top" xlink:title=" ">
<polygon fill="#fff0f0" stroke="red" points="291.5,-30.5 162.25,-30.5 162.25,0 291.5,0 291.5,-30.5"/>
<text text-anchor="start" x="170.25" y="-17" font-family="Helvetica,sans-Serif" font-size="10.00">Slic3r::PrintObjectSupport</text>
<text text-anchor="middle" x="226.88" y="-5.75" font-family="Helvetica,sans-Serif" font-size="10.00">Material::generate</text>
</a>
</g>
</g>
<!-- Node35&#45;&gt;Node36 -->
<g id="edge43_Node000035_Node000036" class="edge">
<title>Node35&#45;&gt;Node36</title>
<g id="a_edge43_Node000035_Node000036"><a xlink:title=" ">
<path fill="none" stroke="#63b8ff" d="M319.54,-15.25C310.24,-15.25 300.84,-15.25 291.79,-15.25"/>
<polygon fill="#63b8ff" stroke="#63b8ff" points="319.38,-18.75 329.38,-15.25 319.38,-11.75 319.38,-18.75"/>
</a>
</g>
</g>
<!-- Node38&#45;&gt;Node15 -->
<g id="edge45_Node000038_Node000015" class="edge">
<title>Node38&#45;&gt;Node15</title>
<g id="a_edge45_Node000038_Node000015"><a xlink:title=" ">
<path fill="none" stroke="#63b8ff" d="M706.37,-227.37C685.27,-228.62 662.45,-229.97 642.67,-231.15"/>
<polygon fill="#63b8ff" stroke="#63b8ff" points="706.45,-230.82 716.23,-226.73 706.04,-223.83 706.45,-230.82"/>
</a>
</g>
</g>
<!-- Node38&#45;&gt;Node16 -->
<g id="edge46_Node000038_Node000016" class="edge">
<title>Node38&#45;&gt;Node16</title>
<g id="a_edge46_Node000038_Node000016"><a xlink:title=" ">
<path fill="none" stroke="#63b8ff" d="M706.93,-205.03C695.02,-201.89 682.55,-198.6 670.37,-195.39"/>
<polygon fill="#63b8ff" stroke="#63b8ff" points="705.67,-208.58 716.23,-207.75 707.45,-201.81 705.67,-208.58"/>
</a>
</g>
</g>
</g>
</svg>
