<?xml version="1.0" encoding="UTF-8" standalone="no"?>
<!DOCTYPE svg PUBLIC "-//W3C//DTD SVG 1.1//EN"
 "http://www.w3.org/Graphics/SVG/1.1/DTD/svg11.dtd">
<!-- Generated by graphviz version 8.0.5 (20230430.1635)
 -->
<!-- Title: Slic3r::Flow::spacing Pages: 1 -->
<svg width="1095pt" height="677pt"
 viewBox="0.00 0.00 1095.00 676.50" xmlns="http://www.w3.org/2000/svg" xmlns:xlink="http://www.w3.org/1999/xlink">
<g id="graph0" class="graph" transform="scale(1 1) rotate(0) translate(4 672.5)">
<title>Slic3r::Flow::spacing</title>
<!-- Node1 -->
<g id="Node000001" class="node">
<title>Node1</title>
<g id="a_Node000001"><a xlink:title=" ">
<polygon fill="#999999" stroke="#666666" points="1087,-335.88 979.5,-335.88 979.5,-316.62 1087,-316.62 1087,-335.88"/>
<text text-anchor="middle" x="1033.25" y="-322.38" font-family="Helvetica,sans-Serif" font-size="10.00">Slic3r::Flow::spacing</text>
</a>
</g>
</g>
<!-- Node2 -->
<g id="Node000002" class="node">
<title>Node2</title>
<g id="a_Node000002"><a xlink:href="../../d7/df4/struct_slic3r_1_1_f_f_f_support_1_1_support_parameters.html#a6e5553a0eb0ad727cd26175eb7d1563e" target="_top" xlink:title=" ">
<polygon fill="white" stroke="#666666" points="423,-625.12 317,-625.12 317,-583.38 423,-583.38 423,-625.12"/>
<text text-anchor="start" x="325" y="-611.62" font-family="Helvetica,sans-Serif" font-size="10.00">Slic3r::FFFSupport</text>
<text text-anchor="start" x="325" y="-600.38" font-family="Helvetica,sans-Serif" font-size="10.00">::SupportParameters</text>
<text text-anchor="middle" x="370" y="-589.12" font-family="Helvetica,sans-Serif" font-size="10.00">::SupportParameters</text>
</a>
</g>
</g>
<!-- Node1&#45;&gt;Node2 -->
<g id="edge1_Node000001_Node000002" class="edge">
<title>Node1&#45;&gt;Node2</title>
<g id="a_edge1_Node000001_Node000002"><a xlink:title=" ">
<path fill="none" stroke="#63b8ff" d="M1027.79,-346.89C1018.6,-384.62 994.03,-464.97 943.5,-510.25 795.16,-643.17 534.38,-626.83 423.39,-612.51"/>
<polygon fill="#63b8ff" stroke="#63b8ff" points="1031.41,-347.77 1030.25,-337.24 1024.59,-346.2 1031.41,-347.77"/>
</a>
</g>
</g>
<!-- Node3 -->
<g id="Node000003" class="node">
<title>Node3</title>
<g id="a_Node000003"><a xlink:href="../../d5/d8f/class_slic3r_1_1_print.html#a28324fbec9bb3236086ecc2145a5c840" target="_top" xlink:title=" ">
<polygon fill="white" stroke="#666666" points="922.12,-298.5 819.88,-298.5 819.88,-268 922.12,-268 922.12,-298.5"/>
<text text-anchor="start" x="827.88" y="-285" font-family="Helvetica,sans-Serif" font-size="10.00">Slic3r::Print::_make</text>
<text text-anchor="middle" x="871" y="-273.75" font-family="Helvetica,sans-Serif" font-size="10.00">_skirt</text>
</a>
</g>
</g>
<!-- Node1&#45;&gt;Node3 -->
<g id="edge2_Node000001_Node000003" class="edge">
<title>Node1&#45;&gt;Node3</title>
<g id="a_edge2_Node000001_Node000003"><a xlink:title=" ">
<path fill="none" stroke="#63b8ff" d="M984.19,-313.35C964.68,-308.12 942.12,-302.07 922.38,-296.77"/>
<polygon fill="#63b8ff" stroke="#63b8ff" points="983.11,-316.96 993.68,-316.17 984.93,-310.2 983.11,-316.96"/>
</a>
</g>
</g>
<!-- Node5 -->
<g id="Node000005" class="node">
<title>Node5</title>
<g id="a_Node000005"><a xlink:href="../../de/db8/namespace_slic3r.html#a8012f7393f99a816d308f0c0f21a0419" target="_top" xlink:title=" ">
<polygon fill="white" stroke="#666666" points="923.62,-249.5 818.38,-249.5 818.38,-219 923.62,-219 923.62,-249.5"/>
<text text-anchor="start" x="826.38" y="-236" font-family="Helvetica,sans-Serif" font-size="10.00">Slic3r::elephant_foot</text>
<text text-anchor="middle" x="871" y="-224.75" font-family="Helvetica,sans-Serif" font-size="10.00">_compensation</text>
</a>
</g>
</g>
<!-- Node1&#45;&gt;Node5 -->
<g id="edge4_Node000001_Node000005" class="edge">
<title>Node1&#45;&gt;Node5</title>
<g id="a_edge4_Node000001_Node000005"><a xlink:title=" ">
<path fill="none" stroke="#63b8ff" d="M1013.16,-309.04C995.96,-294.24 969.44,-273.14 943.5,-259.25 937.12,-255.84 930.19,-252.74 923.22,-249.97"/>
<polygon fill="#63b8ff" stroke="#63b8ff" points="1010.43,-312.18 1020.26,-316.14 1015.05,-306.92 1010.43,-312.18"/>
</a>
</g>
</g>
<!-- Node6 -->
<g id="Node000006" class="node">
<title>Node6</title>
<g id="a_Node000006"><a xlink:href="../../dd/df4/namespace_slic3r_1_1_f_f_f_tree_support.html#af3db90eed67f0d35149aa2b62a56c618" target="_top" xlink:title="Returns Polylines representing the (infill) lines that will result in slicing the given area.">
<polygon fill="white" stroke="#666666" points="943.5,-200.5 798.5,-200.5 798.5,-170 943.5,-170 943.5,-200.5"/>
<text text-anchor="start" x="806.5" y="-187" font-family="Helvetica,sans-Serif" font-size="10.00">Slic3r::FFFTreeSupport</text>
<text text-anchor="middle" x="871" y="-175.75" font-family="Helvetica,sans-Serif" font-size="10.00">::generate_support_infill_lines</text>
</a>
</g>
</g>
<!-- Node1&#45;&gt;Node6 -->
<g id="edge5_Node000001_Node000006" class="edge">
<title>Node1&#45;&gt;Node6</title>
<g id="a_edge5_Node000001_Node000006"><a xlink:title=" ">
<path fill="none" stroke="#63b8ff" d="M1022.2,-306.92C1007.96,-281.33 979.59,-236.4 943.5,-210.25 938.6,-206.7 933.16,-203.62 927.52,-200.95"/>
<polygon fill="#63b8ff" stroke="#63b8ff" points="1019.43,-308.16 1027.26,-315.3 1025.59,-304.84 1019.43,-308.16"/>
</a>
</g>
</g>
<!-- Node9 -->
<g id="Node000009" class="node">
<title>Node9</title>
<g id="a_Node000009"><a xlink:href="../../d1/dd8/namespace_slic3r_1_1_f_f_f_support.html#a0f530121ad8d1d3ab8a89b2b5b33f57b" target="_top" xlink:title=" ">
<polygon fill="white" stroke="#666666" points="942,-133.5 800,-133.5 800,-103 942,-103 942,-133.5"/>
<text text-anchor="start" x="808" y="-120" font-family="Helvetica,sans-Serif" font-size="10.00">Slic3r::FFFSupport</text>
<text text-anchor="middle" x="871" y="-108.75" font-family="Helvetica,sans-Serif" font-size="10.00">::generate_support_toolpaths</text>
</a>
</g>
</g>
<!-- Node1&#45;&gt;Node9 -->
<g id="edge10_Node000001_Node000009" class="edge">
<title>Node1&#45;&gt;Node9</title>
<g id="a_edge10_Node000001_Node000009"><a xlink:title=" ">
<path fill="none" stroke="#63b8ff" d="M1025.35,-305.84C1013.2,-272.35 985.26,-205.06 943.5,-161.25 933.01,-150.24 919.09,-141.03 906.33,-133.99"/>
<polygon fill="#63b8ff" stroke="#63b8ff" points="1022.36,-306.91 1028.98,-315.19 1028.97,-304.59 1022.36,-306.91"/>
</a>
</g>
</g>
<!-- Node13 -->
<g id="Node000013" class="node">
<title>Node13</title>
<g id="a_Node000013"><a xlink:href="../../de/db8/namespace_slic3r.html#a667e3592bdcf762327118324e2f53e9e" target="_top" xlink:title=" ">
<polygon fill="white" stroke="#666666" points="255.88,-635.88 164.88,-635.88 164.88,-616.62 255.88,-616.62 255.88,-635.88"/>
<text text-anchor="middle" x="210.38" y="-622.38" font-family="Helvetica,sans-Serif" font-size="10.00">Slic3r::group_fills</text>
</a>
</g>
</g>
<!-- Node1&#45;&gt;Node13 -->
<g id="edge16_Node000001_Node000013" class="edge">
<title>Node1&#45;&gt;Node13</title>
<g id="a_edge16_Node000001_Node000013"><a xlink:title=" ">
<path fill="none" stroke="#63b8ff" d="M1030.29,-346.63C1024.87,-391.83 1005.72,-501.39 943.5,-563.25 861.35,-644.93 814.72,-653.25 698.88,-653.25 698.88,-653.25 698.88,-653.25 533.5,-653.25 434.31,-653.25 318.53,-640.38 256.36,-632.41"/>
<polygon fill="#63b8ff" stroke="#63b8ff" points="1033.85,-347.22 1031.45,-336.9 1026.89,-346.46 1033.85,-347.22"/>
</a>
</g>
</g>
<!-- Node16 -->
<g id="Node000016" class="node">
<title>Node16</title>
<g id="a_Node000016"><a xlink:href="../../de/db8/namespace_slic3r.html#ad42a7b1e24a6387717cccc44fe1b85e6" target="_top" xlink:title=" ">
<polygon fill="white" stroke="#666666" points="918.38,-335.88 823.62,-335.88 823.62,-316.62 918.38,-316.62 918.38,-335.88"/>
<text text-anchor="middle" x="871" y="-322.38" font-family="Helvetica,sans-Serif" font-size="10.00">Slic3r::make_brim</text>
</a>
</g>
</g>
<!-- Node1&#45;&gt;Node16 -->
<g id="edge19_Node000001_Node000016" class="edge">
<title>Node1&#45;&gt;Node16</title>
<g id="a_edge19_Node000001_Node000016"><a xlink:title=" ">
<path fill="none" stroke="#63b8ff" d="M968.56,-326.25C951.9,-326.25 934.25,-326.25 918.66,-326.25"/>
<polygon fill="#63b8ff" stroke="#63b8ff" points="968.33,-329.75 978.33,-326.25 968.33,-322.75 968.33,-329.75"/>
</a>
</g>
</g>
<!-- Node17 -->
<g id="Node000017" class="node">
<title>Node17</title>
<g id="a_Node000017"><a xlink:href="../../d7/d1d/namespace_slic3r_1_1_perimeter_generator.html#addff59b1baf2226279fa4bf543740526" target="_top" xlink:title=" ">
<polygon fill="white" stroke="#666666" points="435.75,-467.5 304.25,-467.5 304.25,-437 435.75,-437 435.75,-467.5"/>
<text text-anchor="start" x="312.25" y="-454" font-family="Helvetica,sans-Serif" font-size="10.00">Slic3r::PerimeterGenerator</text>
<text text-anchor="middle" x="370" y="-442.75" font-family="Helvetica,sans-Serif" font-size="10.00">::process_arachne</text>
</a>
</g>
</g>
<!-- Node1&#45;&gt;Node17 -->
<g id="edge22_Node000001_Node000017" class="edge">
<title>Node1&#45;&gt;Node17</title>
<g id="a_edge22_Node000001_Node000017"><a xlink:title=" ">
<path fill="none" stroke="#63b8ff" d="M1013.88,-343.3C996.97,-357.91 970.48,-378.14 943.5,-388.25 746.04,-462.29 681.17,-414.42 471.75,-439.25 460.19,-440.62 447.9,-442.15 436.01,-443.66"/>
<polygon fill="#63b8ff" stroke="#63b8ff" points="1015.65,-346.52 1020.8,-337.26 1011,-341.28 1015.65,-346.52"/>
</a>
</g>
</g>
<!-- Node20 -->
<g id="Node000020" class="node">
<title>Node20</title>
<g id="a_Node000020"><a xlink:href="../../d7/d1d/namespace_slic3r_1_1_perimeter_generator.html#ad284d87ff9b979b90cbc47cc592d101a" target="_top" xlink:title=" ">
<polygon fill="white" stroke="#666666" points="435.75,-408.5 304.25,-408.5 304.25,-378 435.75,-378 435.75,-408.5"/>
<text text-anchor="start" x="312.25" y="-395" font-family="Helvetica,sans-Serif" font-size="10.00">Slic3r::PerimeterGenerator</text>
<text text-anchor="middle" x="370" y="-383.75" font-family="Helvetica,sans-Serif" font-size="10.00">::process_classic</text>
</a>
</g>
</g>
<!-- Node1&#45;&gt;Node20 -->
<g id="edge25_Node000001_Node000020" class="edge">
<title>Node1&#45;&gt;Node20</title>
<g id="a_edge25_Node000001_Node000020"><a xlink:title=" ">
<path fill="none" stroke="#63b8ff" d="M1003.64,-341.13C986.65,-349.21 964.39,-358.5 943.5,-363.25 763.23,-404.26 543.16,-401.55 435.95,-396.98"/>
<polygon fill="#63b8ff" stroke="#63b8ff" points="1005.05,-343.85 1012.49,-336.3 1001.97,-337.56 1005.05,-343.85"/>
</a>
</g>
</g>
<!-- Node21 -->
<g id="Node000021" class="node">
<title>Node21</title>
<g id="a_Node000021"><a xlink:href="../../d2/dd7/class_slic3r_1_1_preset_hints.html#a10f2ed9c05b1ca83088c42dd873a4cef" target="_top" xlink:title=" ">
<polygon fill="white" stroke="#666666" points="934.5,-61.12 807.5,-61.12 807.5,-19.38 934.5,-19.38 934.5,-61.12"/>
<text text-anchor="start" x="815.5" y="-47.62" font-family="Helvetica,sans-Serif" font-size="10.00">Slic3r::PresetHints</text>
<text text-anchor="start" x="815.5" y="-36.38" font-family="Helvetica,sans-Serif" font-size="10.00">::recommended_thin_wall</text>
<text text-anchor="middle" x="871" y="-25.12" font-family="Helvetica,sans-Serif" font-size="10.00">_thickness</text>
</a>
</g>
</g>
<!-- Node1&#45;&gt;Node21 -->
<g id="edge27_Node000001_Node000021" class="edge">
<title>Node1&#45;&gt;Node21</title>
<g id="a_edge27_Node000001_Node000021"><a xlink:title=" ">
<path fill="none" stroke="#63b8ff" d="M1028.42,-305.79C1019.59,-262.95 994.56,-162.16 943.5,-94.25 933.97,-81.57 920.68,-70.42 908.14,-61.6"/>
<polygon fill="#63b8ff" stroke="#63b8ff" points="1025.16,-306.35 1030.53,-315.48 1032.02,-304.99 1025.16,-306.35"/>
</a>
</g>
</g>
<!-- Node23 -->
<g id="Node000023" class="node">
<title>Node23</title>
<g id="a_Node000023"><a xlink:href="../../d6/d0f/class_slic3r_1_1_flow.html#a764c3fcd0ba0b64bc2a99c31dd97e836" target="_top" xlink:title=" ">
<polygon fill="white" stroke="#666666" points="925.12,-501.12 816.88,-501.12 816.88,-459.38 925.12,-459.38 925.12,-501.12"/>
<text text-anchor="start" x="824.88" y="-487.62" font-family="Helvetica,sans-Serif" font-size="10.00">Slic3r::Flow::rounded</text>
<text text-anchor="start" x="824.88" y="-476.38" font-family="Helvetica,sans-Serif" font-size="10.00">_rectangle_extrusion</text>
<text text-anchor="middle" x="871" y="-465.12" font-family="Helvetica,sans-Serif" font-size="10.00">_width_from_spacing</text>
</a>
</g>
</g>
<!-- Node1&#45;&gt;Node23 -->
<g id="edge29_Node000001_Node000023" class="edge">
<title>Node1&#45;&gt;Node23</title>
<g id="a_edge29_Node000001_Node000023"><a xlink:title=" ">
<path fill="none" stroke="#63b8ff" d="M1019.33,-345.39C1003.3,-368.26 974.29,-406.84 943.5,-434.25 933.36,-443.28 921.27,-451.76 909.95,-458.92"/>
<polygon fill="#63b8ff" stroke="#63b8ff" points="1022.76,-347.58 1025.56,-337.36 1017,-343.61 1022.76,-347.58"/>
</a>
</g>
</g>
<!-- Node4 -->
<g id="Node000004" class="node">
<title>Node4</title>
<g id="a_Node000004"><a xlink:href="../../d5/d8f/class_slic3r_1_1_print.html#a9323a02226e9ecffd2bbc0a28c0419e5" target="_top" xlink:title=" ">
<polygon fill="white" stroke="#666666" points="751.62,-314.88 644.12,-314.88 644.12,-295.62 751.62,-295.62 751.62,-314.88"/>
<text text-anchor="middle" x="697.88" y="-301.38" font-family="Helvetica,sans-Serif" font-size="10.00">Slic3r::Print::process</text>
</a>
</g>
</g>
<!-- Node3&#45;&gt;Node4 -->
<g id="edge3_Node000003_Node000004" class="edge">
<title>Node3&#45;&gt;Node4</title>
<g id="a_edge3_Node000003_Node000004"><a xlink:title=" ">
<path fill="none" stroke="#63b8ff" d="M808.85,-291.11C790.23,-293.5 769.94,-296.11 751.91,-298.43"/>
<polygon fill="#63b8ff" stroke="#63b8ff" points="809.11,-294.48 818.58,-289.73 808.22,-287.54 809.11,-294.48"/>
</a>
</g>
</g>
<!-- Node7 -->
<g id="Node000007" class="node">
<title>Node7</title>
<g id="a_Node000007"><a xlink:href="../../d9/d4e/class_slic3r_1_1_f_f_f_tree_support_1_1_rich_interface_placer.html#a5cf51f0d9f9a04742a0179ed24433c9a" target="_top" xlink:title=" ">
<polygon fill="white" stroke="#666666" points="759.5,-206.12 636.25,-206.12 636.25,-164.38 759.5,-164.38 759.5,-206.12"/>
<text text-anchor="start" x="644.25" y="-192.62" font-family="Helvetica,sans-Serif" font-size="10.00">Slic3r::FFFTreeSupport</text>
<text text-anchor="start" x="644.25" y="-181.38" font-family="Helvetica,sans-Serif" font-size="10.00">::RichInterfacePlacer</text>
<text text-anchor="middle" x="697.88" y="-170.12" font-family="Helvetica,sans-Serif" font-size="10.00">::add_points_along_lines</text>
</a>
</g>
</g>
<!-- Node6&#45;&gt;Node7 -->
<g id="edge6_Node000006_Node000007" class="edge">
<title>Node6&#45;&gt;Node7</title>
<g id="a_edge6_Node000006_Node000007"><a xlink:title=" ">
<path fill="none" stroke="#63b8ff" d="M787.52,-185.25C778.2,-185.25 768.83,-185.25 759.85,-185.25"/>
<polygon fill="#63b8ff" stroke="#63b8ff" points="787.42,-188.75 797.42,-185.25 787.42,-181.75 787.42,-188.75"/>
</a>
</g>
</g>
<!-- Node8 -->
<g id="Node000008" class="node">
<title>Node8</title>
<g id="a_Node000008"><a xlink:href="../../dd/df4/namespace_slic3r_1_1_f_f_f_tree_support.html#a5bd26448acb9c08a9f4fd663da07c11c" target="_top" xlink:title=" ">
<polygon fill="white" stroke="#666666" points="595.75,-225.5 473.25,-225.5 473.25,-195 595.75,-195 595.75,-225.5"/>
<text text-anchor="start" x="481.25" y="-212" font-family="Helvetica,sans-Serif" font-size="10.00">Slic3r::FFFTreeSupport</text>
<text text-anchor="middle" x="534.5" y="-200.75" font-family="Helvetica,sans-Serif" font-size="10.00">::sample_overhang_area</text>
</a>
</g>
</g>
<!-- Node6&#45;&gt;Node8 -->
<g id="edge9_Node000006_Node000008" class="edge">
<title>Node6&#45;&gt;Node8</title>
<g id="a_edge9_Node000006_Node000008"><a xlink:title=" ">
<path fill="none" stroke="#63b8ff" d="M813.8,-204.04C797.45,-208.65 779.43,-212.93 762.5,-215.25 706.46,-222.92 641.92,-220.42 596.02,-216.74"/>
<polygon fill="#63b8ff" stroke="#63b8ff" points="814.67,-207.14 823.28,-200.97 812.7,-200.42 814.67,-207.14"/>
</a>
</g>
</g>
<!-- Node7&#45;&gt;Node8 -->
<g id="edge7_Node000007_Node000008" class="edge">
<title>Node7&#45;&gt;Node8</title>
<g id="a_edge7_Node000007_Node000008"><a xlink:title=" ">
<path fill="none" stroke="#63b8ff" d="M625.04,-196.38C615.37,-197.88 605.52,-199.4 596.06,-200.87"/>
<polygon fill="#63b8ff" stroke="#63b8ff" points="625.52,-199.69 634.87,-194.7 624.45,-192.77 625.52,-199.69"/>
</a>
</g>
</g>
<!-- Node8&#45;&gt;Node8 -->
<g id="edge8_Node000008_Node000008" class="edge">
<title>Node8&#45;&gt;Node8</title>
<g id="a_edge8_Node000008_Node000008"><a xlink:title=" ">
<path fill="none" stroke="#63b8ff" d="M562.27,-236.88C557.94,-240.83 548.68,-243.5 534.5,-243.5 509.29,-243.5 499.64,-235.06 505.55,-225.99"/>
<polygon fill="#63b8ff" stroke="#63b8ff" points="565.85,-237.3 563.45,-226.99 558.89,-236.55 565.85,-237.3"/>
</a>
</g>
</g>
<!-- Node9&#45;&gt;Node9 -->
<g id="edge15_Node000009_Node000009" class="edge">
<title>Node9&#45;&gt;Node9</title>
<g id="a_edge15_Node000009_Node000009"><a xlink:title=" ">
<path fill="none" stroke="#63b8ff" d="M898.58,-144.88C894.28,-148.83 885.08,-151.5 871,-151.5 845.97,-151.5 836.38,-143.06 842.25,-133.99"/>
<polygon fill="#63b8ff" stroke="#63b8ff" points="902.16,-145.3 899.75,-134.99 895.2,-144.55 902.16,-145.3"/>
</a>
</g>
</g>
<!-- Node10 -->
<g id="Node000010" class="node">
<title>Node10</title>
<g id="a_Node000010"><a xlink:href="../../d2/d8a/class_slic3r_1_1_print_object_support_material.html#aa91db86d2d6af50dc0cb0c8b3b5ffda3" target="_top" xlink:title=" ">
<polygon fill="white" stroke="#666666" points="762.5,-146.5 633.25,-146.5 633.25,-116 762.5,-116 762.5,-146.5"/>
<text text-anchor="start" x="641.25" y="-133" font-family="Helvetica,sans-Serif" font-size="10.00">Slic3r::PrintObjectSupport</text>
<text text-anchor="middle" x="697.88" y="-121.75" font-family="Helvetica,sans-Serif" font-size="10.00">Material::generate</text>
</a>
</g>
</g>
<!-- Node9&#45;&gt;Node10 -->
<g id="edge11_Node000009_Node000010" class="edge">
<title>Node9&#45;&gt;Node10</title>
<g id="a_edge11_Node000009_Node000010"><a xlink:title=" ">
<path fill="none" stroke="#63b8ff" d="M789.17,-124.39C780.33,-125.06 771.41,-125.74 762.81,-126.39"/>
<polygon fill="#63b8ff" stroke="#63b8ff" points="789.2,-127.82 798.9,-123.58 788.67,-120.84 789.2,-127.82"/>
</a>
</g>
</g>
<!-- Node12 -->
<g id="Node000012" class="node">
<title>Node12</title>
<g id="a_Node000012"><a xlink:href="../../dd/df4/namespace_slic3r_1_1_f_f_f_tree_support.html#ab26bc295197117d2d20bc72c33be92f6" target="_top" xlink:title="Create the areas that need support.">
<polygon fill="white" stroke="#666666" points="761,-79.5 634.75,-79.5 634.75,-49 761,-49 761,-79.5"/>
<text text-anchor="start" x="642.75" y="-66" font-family="Helvetica,sans-Serif" font-size="10.00">Slic3r::FFFTreeSupport</text>
<text text-anchor="middle" x="697.88" y="-54.75" font-family="Helvetica,sans-Serif" font-size="10.00">::generate_support_areas</text>
</a>
</g>
</g>
<!-- Node9&#45;&gt;Node12 -->
<g id="edge13_Node000009_Node000012" class="edge">
<title>Node9&#45;&gt;Node12</title>
<g id="a_edge13_Node000009_Node000012"><a xlink:title=" ">
<path fill="none" stroke="#63b8ff" d="M810.19,-99.38C790.06,-93.02 767.82,-86.01 748.56,-79.93"/>
<polygon fill="#63b8ff" stroke="#63b8ff" points="808.91,-102.96 819.5,-102.63 811.02,-96.28 808.91,-102.96"/>
</a>
</g>
</g>
<!-- Node11 -->
<g id="Node000011" class="node">
<title>Node11</title>
<g id="a_Node000011"><a xlink:href="../../de/d87/class_slic3r_1_1_print_object.html#ad6348cce170e12db39c5ef438c609e0e" target="_top" xlink:title=" ">
<polygon fill="white" stroke="#666666" points="585.62,-152.12 483.38,-152.12 483.38,-110.38 585.62,-110.38 585.62,-152.12"/>
<text text-anchor="start" x="491.38" y="-138.62" font-family="Helvetica,sans-Serif" font-size="10.00">Slic3r::PrintObject</text>
<text text-anchor="start" x="491.38" y="-127.38" font-family="Helvetica,sans-Serif" font-size="10.00">::_generate_support</text>
<text text-anchor="middle" x="534.5" y="-116.12" font-family="Helvetica,sans-Serif" font-size="10.00">_material</text>
</a>
</g>
</g>
<!-- Node10&#45;&gt;Node11 -->
<g id="edge12_Node000010_Node000011" class="edge">
<title>Node10&#45;&gt;Node11</title>
<g id="a_edge12_Node000010_Node000011"><a xlink:title=" ">
<path fill="none" stroke="#63b8ff" d="M622.33,-131.25C609.99,-131.25 597.45,-131.25 585.89,-131.25"/>
<polygon fill="#63b8ff" stroke="#63b8ff" points="622.1,-134.75 632.1,-131.25 622.1,-127.75 622.1,-134.75"/>
</a>
</g>
</g>
<!-- Node12&#45;&gt;Node12 -->
<g id="edge14_Node000012_Node000012" class="edge">
<title>Node12&#45;&gt;Node12</title>
<g id="a_edge14_Node000012_Node000012"><a xlink:title=" ">
<path fill="none" stroke="#63b8ff" d="M725.65,-90.88C721.31,-94.83 712.05,-97.5 697.88,-97.5 672.67,-97.5 663.02,-89.06 668.92,-79.99"/>
<polygon fill="#63b8ff" stroke="#63b8ff" points="729.23,-91.3 726.83,-80.99 722.27,-90.55 729.23,-91.3"/>
</a>
</g>
</g>
<!-- Node14 -->
<g id="Node000014" class="node">
<title>Node14</title>
<g id="a_Node000014"><a xlink:href="../../d1/d68/class_slic3r_1_1_layer.html#ad6843af1bff160c288e6ad6197375871" target="_top" xlink:title=" ">
<polygon fill="white" stroke="#666666" points="116.5,-620.12 0,-620.12 0,-578.38 116.5,-578.38 116.5,-620.12"/>
<text text-anchor="start" x="8" y="-606.62" font-family="Helvetica,sans-Serif" font-size="10.00">Slic3r::Layer::generate</text>
<text text-anchor="start" x="8" y="-595.38" font-family="Helvetica,sans-Serif" font-size="10.00">_sparse_infill_polylines</text>
<text text-anchor="middle" x="58.25" y="-584.12" font-family="Helvetica,sans-Serif" font-size="10.00">_for_anchoring</text>
</a>
</g>
</g>
<!-- Node13&#45;&gt;Node14 -->
<g id="edge17_Node000013_Node000014" class="edge">
<title>Node13&#45;&gt;Node14</title>
<g id="a_edge17_Node000013_Node000014"><a xlink:title=" ">
<path fill="none" stroke="#63b8ff" d="M154.25,-616.34C142.05,-614.14 129.1,-611.81 116.81,-609.6"/>
<polygon fill="#63b8ff" stroke="#63b8ff" points="153.28,-619.9 163.74,-618.22 154.52,-613.01 153.28,-619.9"/>
</a>
</g>
</g>
<!-- Node15 -->
<g id="Node000015" class="node">
<title>Node15</title>
<g id="a_Node000015"><a xlink:href="../../d1/d68/class_slic3r_1_1_layer.html#abc1b27f71cfcabc24aa3923565111567" target="_top" xlink:title=" ">
<polygon fill="white" stroke="#666666" points="108.62,-668.5 7.88,-668.5 7.88,-638 108.62,-638 108.62,-668.5"/>
<text text-anchor="start" x="15.88" y="-655" font-family="Helvetica,sans-Serif" font-size="10.00">Slic3r::Layer::make</text>
<text text-anchor="middle" x="58.25" y="-643.75" font-family="Helvetica,sans-Serif" font-size="10.00">_fills</text>
</a>
</g>
</g>
<!-- Node13&#45;&gt;Node15 -->
<g id="edge18_Node000013_Node000015" class="edge">
<title>Node13&#45;&gt;Node15</title>
<g id="a_edge18_Node000013_Node000015"><a xlink:title=" ">
<path fill="none" stroke="#63b8ff" d="M154.19,-636.18C139.38,-638.84 123.46,-641.7 108.97,-644.31"/>
<polygon fill="#63b8ff" stroke="#63b8ff" points="154.52,-639.49 163.74,-634.28 153.28,-632.6 154.52,-639.49"/>
</a>
</g>
</g>
<!-- Node16&#45;&gt;Node4 -->
<g id="edge21_Node000016_Node000004" class="edge">
<title>Node16&#45;&gt;Node4</title>
<g id="a_edge21_Node000016_Node000004"><a xlink:title=" ">
<path fill="none" stroke="#63b8ff" d="M812.33,-319.17C792.8,-316.78 771.08,-314.11 751.92,-311.76"/>
<polygon fill="#63b8ff" stroke="#63b8ff" points="811.89,-322.77 822.24,-320.51 812.74,-315.82 811.89,-322.77"/>
</a>
</g>
</g>
<!-- Node16&#45;&gt;Node16 -->
<g id="edge20_Node000016_Node000016" class="edge">
<title>Node16&#45;&gt;Node16</title>
<g id="a_edge20_Node000016_Node000016"><a xlink:title=" ">
<path fill="none" stroke="#63b8ff" d="M900.59,-346.26C897.8,-350.67 887.93,-353.88 871,-353.88 842.48,-353.88 834.01,-344.77 845.6,-336.16"/>
<polygon fill="#63b8ff" stroke="#63b8ff" points="903.47,-345.06 896.4,-337.16 897,-347.74 903.47,-345.06"/>
</a>
</g>
</g>
<!-- Node18 -->
<g id="Node000018" class="node">
<title>Node18</title>
<g id="a_Node000018"><a xlink:href="../../dd/d90/class_slic3r_1_1_layer_region.html#a7f8ba90770f4cfeb3e0f0fe9606e7376" target="_top" xlink:title=" ">
<polygon fill="white" stroke="#666666" points="261.12,-467.5 159.62,-467.5 159.62,-437 261.12,-437 261.12,-467.5"/>
<text text-anchor="start" x="167.62" y="-454" font-family="Helvetica,sans-Serif" font-size="10.00">Slic3r::LayerRegion</text>
<text text-anchor="middle" x="210.38" y="-442.75" font-family="Helvetica,sans-Serif" font-size="10.00">::make_perimeters</text>
</a>
</g>
</g>
<!-- Node17&#45;&gt;Node18 -->
<g id="edge23_Node000017_Node000018" class="edge">
<title>Node17&#45;&gt;Node18</title>
<g id="a_edge23_Node000017_Node000018"><a xlink:title=" ">
<path fill="none" stroke="#63b8ff" d="M293.21,-452.25C282.38,-452.25 271.48,-452.25 261.32,-452.25"/>
<polygon fill="#63b8ff" stroke="#63b8ff" points="292.98,-455.75 302.98,-452.25 292.98,-448.75 292.98,-455.75"/>
</a>
</g>
</g>
<!-- Node19 -->
<g id="Node000019" class="node">
<title>Node19</title>
<g id="a_Node000019"><a xlink:href="../../d1/d68/class_slic3r_1_1_layer.html#ade692e794d3a272a9b6985022eea64e9" target="_top" xlink:title=" ">
<polygon fill="white" stroke="#666666" points="108.62,-467.5 7.88,-467.5 7.88,-437 108.62,-437 108.62,-467.5"/>
<text text-anchor="start" x="15.88" y="-454" font-family="Helvetica,sans-Serif" font-size="10.00">Slic3r::Layer::make</text>
<text text-anchor="middle" x="58.25" y="-442.75" font-family="Helvetica,sans-Serif" font-size="10.00">_perimeters</text>
</a>
</g>
</g>
<!-- Node18&#45;&gt;Node19 -->
<g id="edge24_Node000018_Node000019" class="edge">
<title>Node18&#45;&gt;Node19</title>
<g id="a_edge24_Node000018_Node000019"><a xlink:title=" ">
<path fill="none" stroke="#63b8ff" d="M148.53,-452.25C135.4,-452.25 121.67,-452.25 109.02,-452.25"/>
<polygon fill="#63b8ff" stroke="#63b8ff" points="148.39,-455.75 158.39,-452.25 148.39,-448.75 148.39,-455.75"/>
</a>
</g>
</g>
<!-- Node20&#45;&gt;Node18 -->
<g id="edge26_Node000020_Node000018" class="edge">
<title>Node20&#45;&gt;Node18</title>
<g id="a_edge26_Node000020_Node000018"><a xlink:title=" ">
<path fill="none" stroke="#63b8ff" d="M316.98,-412.72C296.35,-420.44 272.93,-429.21 253.4,-436.52"/>
<polygon fill="#63b8ff" stroke="#63b8ff" points="318.03,-415.69 326.17,-408.91 315.58,-409.13 318.03,-415.69"/>
</a>
</g>
</g>
<!-- Node22 -->
<g id="Node000022" class="node">
<title>Node22</title>
<g id="a_Node000022"><a xlink:href="../../db/dad/class_slic3r_1_1_g_u_i_1_1_tab_print.html#a7473695bb304ff9bc04b6f1ce3eee8fb" target="_top" xlink:title=" ">
<polygon fill="white" stroke="#666666" points="762.5,-30.5 633.25,-30.5 633.25,0 762.5,0 762.5,-30.5"/>
<text text-anchor="start" x="641.25" y="-17" font-family="Helvetica,sans-Serif" font-size="10.00">Slic3r::GUI::TabPrint</text>
<text text-anchor="middle" x="697.88" y="-5.75" font-family="Helvetica,sans-Serif" font-size="10.00">::update_description_lines</text>
</a>
</g>
</g>
<!-- Node21&#45;&gt;Node22 -->
<g id="edge28_Node000021_Node000022" class="edge">
<title>Node21&#45;&gt;Node22</title>
<g id="a_edge28_Node000021_Node000022"><a xlink:title=" ">
<path fill="none" stroke="#63b8ff" d="M796.58,-29.52C785.32,-27.88 773.79,-26.19 762.76,-24.58"/>
<polygon fill="#63b8ff" stroke="#63b8ff" points="795.85,-33.1 806.25,-31.08 796.86,-26.17 795.85,-33.1"/>
</a>
</g>
</g>
<!-- Node24 -->
<g id="Node000024" class="node">
<title>Node24</title>
<g id="a_Node000024"><a xlink:href="../../d2/d46/class_slic3r_1_1_arachne_1_1_wall_tool_paths.html#aeca7ae7fda285e3bc199977827c554d5" target="_top" xlink:title=" ">
<polygon fill="white" stroke="#666666" points="760.62,-495.5 635.12,-495.5 635.12,-465 760.62,-465 760.62,-495.5"/>
<text text-anchor="start" x="643.12" y="-482" font-family="Helvetica,sans-Serif" font-size="10.00">Slic3r::Arachne::WallTool</text>
<text text-anchor="middle" x="697.88" y="-470.75" font-family="Helvetica,sans-Serif" font-size="10.00">Paths::generate</text>
</a>
</g>
</g>
<!-- Node23&#45;&gt;Node24 -->
<g id="edge30_Node000023_Node000024" class="edge">
<title>Node23&#45;&gt;Node24</title>
<g id="a_edge30_Node000023_Node000024"><a xlink:title=" ">
<path fill="none" stroke="#63b8ff" d="M805.8,-480.25C791.15,-480.25 775.6,-480.25 761.04,-480.25"/>
<polygon fill="#63b8ff" stroke="#63b8ff" points="805.79,-483.75 815.79,-480.25 805.79,-476.75 805.79,-483.75"/>
</a>
</g>
</g>
<!-- Node28 -->
<g id="Node000028" class="node">
<title>Node28</title>
<g id="a_Node000028"><a xlink:href="../../d6/d0f/class_slic3r_1_1_flow.html#ab6be10befaa85bbc5ab9e6650d86a1b8" target="_top" xlink:title=" ">
<polygon fill="white" stroke="#666666" points="743.75,-565.5 652,-565.5 652,-535 743.75,-535 743.75,-565.5"/>
<text text-anchor="start" x="660" y="-552" font-family="Helvetica,sans-Serif" font-size="10.00">Slic3r::Flow::with</text>
<text text-anchor="middle" x="697.88" y="-540.75" font-family="Helvetica,sans-Serif" font-size="10.00">_cross_section</text>
</a>
</g>
</g>
<!-- Node23&#45;&gt;Node28 -->
<g id="edge36_Node000023_Node000028" class="edge">
<title>Node23&#45;&gt;Node28</title>
<g id="a_edge36_Node000023_Node000028"><a xlink:title=" ">
<path fill="none" stroke="#63b8ff" d="M808.21,-505.53C784.47,-515.24 758.09,-526.03 737.19,-534.58"/>
<polygon fill="#63b8ff" stroke="#63b8ff" points="809.26,-508.47 817.19,-501.44 806.61,-501.99 809.26,-508.47"/>
</a>
</g>
</g>
<!-- Node25 -->
<g id="Node000025" class="node">
<title>Node25</title>
<g id="a_Node000025"><a xlink:href="../../d2/d46/class_slic3r_1_1_arachne_1_1_wall_tool_paths.html#a389d9ce3caf646057d74a4b88f9844cd" target="_top" xlink:title=" ">
<polygon fill="white" stroke="#666666" points="597.25,-478.5 471.75,-478.5 471.75,-448 597.25,-448 597.25,-478.5"/>
<text text-anchor="start" x="479.75" y="-465" font-family="Helvetica,sans-Serif" font-size="10.00">Slic3r::Arachne::WallTool</text>
<text text-anchor="middle" x="534.5" y="-453.75" font-family="Helvetica,sans-Serif" font-size="10.00">Paths::getInnerContour</text>
</a>
</g>
</g>
<!-- Node24&#45;&gt;Node25 -->
<g id="edge31_Node000024_Node000025" class="edge">
<title>Node24&#45;&gt;Node25</title>
<g id="a_edge31_Node000024_Node000025"><a xlink:title=" ">
<path fill="none" stroke="#63b8ff" d="M624.18,-472.59C615.28,-471.65 606.25,-470.7 597.53,-469.78"/>
<polygon fill="#63b8ff" stroke="#63b8ff" points="623.63,-476.16 633.94,-473.73 624.37,-469.2 623.63,-476.16"/>
</a>
</g>
</g>
<!-- Node26 -->
<g id="Node000026" class="node">
<title>Node26</title>
<g id="a_Node000026"><a xlink:href="../../d2/d46/class_slic3r_1_1_arachne_1_1_wall_tool_paths.html#a891f436bf40e8b8119ed2fa095cfaf5d" target="_top" xlink:title=" ">
<polygon fill="white" stroke="#666666" points="597.25,-527.5 471.75,-527.5 471.75,-497 597.25,-497 597.25,-527.5"/>
<text text-anchor="start" x="479.75" y="-514" font-family="Helvetica,sans-Serif" font-size="10.00">Slic3r::Arachne::WallTool</text>
<text text-anchor="middle" x="534.5" y="-502.75" font-family="Helvetica,sans-Serif" font-size="10.00">Paths::getToolPaths</text>
</a>
</g>
</g>
<!-- Node24&#45;&gt;Node26 -->
<g id="edge33_Node000024_Node000026" class="edge">
<title>Node24&#45;&gt;Node26</title>
<g id="a_edge33_Node000024_Node000026"><a xlink:title=" ">
<path fill="none" stroke="#63b8ff" d="M624.18,-494.66C615.28,-496.43 606.25,-498.22 597.53,-499.95"/>
<polygon fill="#63b8ff" stroke="#63b8ff" points="624.82,-497.91 633.94,-492.53 623.45,-491.04 624.82,-497.91"/>
</a>
</g>
</g>
<!-- Node25&#45;&gt;Node17 -->
<g id="edge32_Node000025_Node000017" class="edge">
<title>Node25&#45;&gt;Node17</title>
<g id="a_edge32_Node000025_Node000017"><a xlink:title=" ">
<path fill="none" stroke="#63b8ff" d="M460.9,-458.34C452.69,-457.78 444.35,-457.22 436.24,-456.67"/>
<polygon fill="#63b8ff" stroke="#63b8ff" points="460.39,-461.88 470.6,-459.06 460.86,-454.89 460.39,-461.88"/>
</a>
</g>
</g>
<!-- Node26&#45;&gt;Node17 -->
<g id="edge35_Node000026_Node000017" class="edge">
<title>Node26&#45;&gt;Node17</title>
<g id="a_edge35_Node000026_Node000017"><a xlink:title=" ">
<path fill="none" stroke="#63b8ff" d="M481.13,-492.91C459.31,-484.86 434.29,-475.62 413.62,-467.99"/>
<polygon fill="#63b8ff" stroke="#63b8ff" points="479.64,-496.46 490.23,-496.64 482.06,-489.9 479.64,-496.46"/>
</a>
</g>
</g>
<!-- Node27 -->
<g id="Node000027" class="node">
<title>Node27</title>
<g id="a_Node000027"><a xlink:href="../../d7/d44/class_slic3r_1_1_fill_concentric.html#a2298411e5f4cc1027149b5d9e93bc596" target="_top" xlink:title=" ">
<polygon fill="white" stroke="#666666" points="423.38,-516.5 316.62,-516.5 316.62,-486 423.38,-486 423.38,-516.5"/>
<text text-anchor="start" x="324.62" y="-503" font-family="Helvetica,sans-Serif" font-size="10.00">Slic3r::FillConcentric</text>
<text text-anchor="middle" x="370" y="-491.75" font-family="Helvetica,sans-Serif" font-size="10.00">::_fill_surface_single</text>
</a>
</g>
</g>
<!-- Node26&#45;&gt;Node27 -->
<g id="edge34_Node000026_Node000027" class="edge">
<title>Node26&#45;&gt;Node27</title>
<g id="a_edge34_Node000026_Node000027"><a xlink:title=" ">
<path fill="none" stroke="#63b8ff" d="M460.74,-507.32C448.27,-506.48 435.53,-505.62 423.72,-504.82"/>
<polygon fill="#63b8ff" stroke="#63b8ff" points="460.39,-510.88 470.6,-508.06 460.86,-503.89 460.39,-510.88"/>
</a>
</g>
</g>
<!-- Node29 -->
<g id="Node000029" class="node">
<title>Node29</title>
<g id="a_Node000029"><a xlink:href="../../d6/d0f/class_slic3r_1_1_flow.html#abc36bf873d07a474bd5453d029d66dc2" target="_top" xlink:title=" ">
<polygon fill="white" stroke="#666666" points="580.38,-576.5 488.62,-576.5 488.62,-546 580.38,-546 580.38,-576.5"/>
<text text-anchor="start" x="496.62" y="-563" font-family="Helvetica,sans-Serif" font-size="10.00">Slic3r::Flow::with</text>
<text text-anchor="middle" x="534.5" y="-551.75" font-family="Helvetica,sans-Serif" font-size="10.00">_flow_ratio</text>
</a>
</g>
</g>
<!-- Node28&#45;&gt;Node29 -->
<g id="edge37_Node000028_Node000029" class="edge">
<title>Node28&#45;&gt;Node29</title>
<g id="a_edge37_Node000028_Node000029"><a xlink:title=" ">
<path fill="none" stroke="#63b8ff" d="M641.22,-554.04C621.49,-555.39 599.53,-556.89 580.77,-558.16"/>
<polygon fill="#63b8ff" stroke="#63b8ff" points="641.18,-557.49 650.92,-553.31 640.71,-550.5 641.18,-557.49"/>
</a>
</g>
</g>
<!-- Node29&#45;&gt;Node2 -->
<g id="edge38_Node000029_Node000002" class="edge">
<title>Node29&#45;&gt;Node2</title>
<g id="a_edge38_Node000029_Node000002"><a xlink:title=" ">
<path fill="none" stroke="#63b8ff" d="M478.08,-575.92C460.41,-580.59 440.94,-585.74 423.49,-590.36"/>
<polygon fill="#63b8ff" stroke="#63b8ff" points="478.46,-579.17 487.23,-573.23 476.67,-572.4 478.46,-579.17"/>
</a>
</g>
</g>
<!-- Node30 -->
<g id="Node000030" class="node">
<title>Node30</title>
<g id="a_Node000030"><a xlink:href="../../dd/d90/class_slic3r_1_1_layer_region.html#a4ae36dcae6e615876d2bc2a402d709eb" target="_top" xlink:title=" ">
<polygon fill="white" stroke="#666666" points="420.75,-565.5 319.25,-565.5 319.25,-535 420.75,-535 420.75,-565.5"/>
<text text-anchor="start" x="327.25" y="-552" font-family="Helvetica,sans-Serif" font-size="10.00">Slic3r::LayerRegion</text>
<text text-anchor="middle" x="370" y="-540.75" font-family="Helvetica,sans-Serif" font-size="10.00">::bridging_flow</text>
</a>
</g>
</g>
<!-- Node29&#45;&gt;Node30 -->
<g id="edge39_Node000029_Node000030" class="edge">
<title>Node29&#45;&gt;Node30</title>
<g id="a_edge39_Node000029_Node000030"><a xlink:title=" ">
<path fill="none" stroke="#63b8ff" d="M477.43,-557.45C459.15,-556.22 438.98,-554.85 421.16,-553.65"/>
<polygon fill="#63b8ff" stroke="#63b8ff" points="477.02,-561 487.23,-558.19 477.49,-554.02 477.02,-561"/>
</a>
</g>
</g>
<!-- Node30&#45;&gt;Node13 -->
<g id="edge40_Node000030_Node000013" class="edge">
<title>Node30&#45;&gt;Node13</title>
<g id="a_edge40_Node000030_Node000013"><a xlink:title=" ">
<path fill="none" stroke="#63b8ff" d="M314,-569.96C310.68,-571.36 307.41,-572.79 304.25,-574.25 276.4,-587.11 245.62,-605.16 227.41,-616.26"/>
<polygon fill="#63b8ff" stroke="#63b8ff" points="315.09,-572.88 323.04,-565.88 312.46,-566.4 315.09,-572.88"/>
</a>
</g>
</g>
<!-- Node30&#45;&gt;Node18 -->
<g id="edge41_Node000030_Node000018" class="edge">
<title>Node30&#45;&gt;Node18</title>
<g id="a_edge41_Node000030_Node000018"><a xlink:title=" ">
<path fill="none" stroke="#63b8ff" d="M313.55,-530.13C310.36,-528.58 307.23,-526.95 304.25,-525.25 275.37,-508.82 245.85,-483.95 228.07,-467.9"/>
<polygon fill="#63b8ff" stroke="#63b8ff" points="311.72,-533.6 322.27,-534.57 314.63,-527.24 311.72,-533.6"/>
</a>
</g>
</g>
<!-- Node31 -->
<g id="Node000031" class="node">
<title>Node31</title>
<g id="a_Node000031"><a xlink:href="../../d1/dd8/namespace_slic3r_1_1_f_f_f_support.html#af1fbff97a61de865b1f37a292a0fda11" target="_top" xlink:title=" ">
<polygon fill="#fff0f0" stroke="red" points="268.25,-571.12 152.5,-571.12 152.5,-529.38 268.25,-529.38 268.25,-571.12"/>
<text text-anchor="start" x="160.5" y="-557.62" font-family="Helvetica,sans-Serif" font-size="10.00">Slic3r::FFFSupport</text>
<text text-anchor="start" x="160.5" y="-546.38" font-family="Helvetica,sans-Serif" font-size="10.00">::remove_bridges_from</text>
<text text-anchor="middle" x="210.38" y="-535.12" font-family="Helvetica,sans-Serif" font-size="10.00">_contacts</text>
</a>
</g>
</g>
<!-- Node30&#45;&gt;Node31 -->
<g id="edge42_Node000030_Node000031" class="edge">
<title>Node30&#45;&gt;Node31</title>
<g id="a_edge42_Node000030_Node000031"><a xlink:title=" ">
<path fill="none" stroke="#63b8ff" d="M308.36,-550.25C295.3,-550.25 281.54,-550.25 268.62,-550.25"/>
<polygon fill="#63b8ff" stroke="#63b8ff" points="308.13,-553.75 318.13,-550.25 308.13,-546.75 308.13,-553.75"/>
</a>
</g>
</g>
</g>
</svg>
