<?xml version="1.0" encoding="UTF-8" standalone="no"?>
<!DOCTYPE svg PUBLIC "-//W3C//DTD SVG 1.1//EN"
 "http://www.w3.org/Graphics/SVG/1.1/DTD/svg11.dtd">
<!-- Generated by graphviz version 8.0.5 (20230430.1635)
 -->
<!-- Title: src/libigl/igl/adjacency_matrix.h Pages: 1 -->
<svg width="382pt" height="204pt"
 viewBox="0.00 0.00 381.50 204.25" xmlns="http://www.w3.org/2000/svg" xmlns:xlink="http://www.w3.org/1999/xlink">
<g id="graph0" class="graph" transform="scale(1 1) rotate(0) translate(4 200.25)">
<title>src/libigl/igl/adjacency_matrix.h</title>
<!-- Node1 -->
<g id="Node000001" class="node">
<title>Node1</title>
<g id="a_Node000001"><a xlink:title=" ">
<polygon fill="#999999" stroke="#666666" points="262.88,-196.25 150.88,-196.25 150.88,-165.75 262.88,-165.75 262.88,-196.25"/>
<text text-anchor="start" x="158.88" y="-182.75" font-family="Helvetica,sans-Serif" font-size="10.00">src/libigl/igl/adjacency</text>
<text text-anchor="middle" x="206.88" y="-171.5" font-family="Helvetica,sans-Serif" font-size="10.00">_matrix.h</text>
</a>
</g>
</g>
<!-- Node2 -->
<g id="Node000002" class="node">
<title>Node2</title>
<g id="a_Node000002"><a xlink:href="../../d6/d68/igl__inline_8h.html" target="_top" xlink:title=" ">
<polygon fill="white" stroke="#666666" points="61.75,-129.75 0,-129.75 0,-110.5 61.75,-110.5 61.75,-129.75"/>
<text text-anchor="middle" x="30.88" y="-116.25" font-family="Helvetica,sans-Serif" font-size="10.00">igl_inline.h</text>
</a>
</g>
</g>
<!-- Node1&#45;&gt;Node2 -->
<g id="edge1_Node000001_Node000002" class="edge">
<title>Node1&#45;&gt;Node2</title>
<g id="a_edge1_Node000001_Node000002"><a xlink:title=" ">
<path fill="none" stroke="#63b8ff" d="M162.92,-165.3C133.76,-155.54 95.9,-142.88 68.2,-133.61"/>
<polygon fill="#63b8ff" stroke="#63b8ff" points="69.72,-130.09 59.13,-130.24 67.5,-136.73 69.72,-130.09"/>
</a>
</g>
</g>
<!-- Node3 -->
<g id="Node000003" class="node">
<title>Node3</title>
<g id="a_Node000003"><a xlink:title=" ">
<polygon fill="#e0e0e0" stroke="#999999" points="152,-129.75 79.75,-129.75 79.75,-110.5 152,-110.5 152,-129.75"/>
<text text-anchor="middle" x="115.88" y="-116.25" font-family="Helvetica,sans-Serif" font-size="10.00">Eigen/Dense</text>
</a>
</g>
</g>
<!-- Node1&#45;&gt;Node3 -->
<g id="edge2_Node000001_Node000003" class="edge">
<title>Node1&#45;&gt;Node3</title>
<g id="a_edge2_Node000001_Node000003"><a xlink:title=" ">
<path fill="none" stroke="#63b8ff" d="M184.38,-165.45C170.53,-156.48 152.81,-145.02 138.86,-136"/>
<polygon fill="#63b8ff" stroke="#63b8ff" points="141.2,-132.69 130.9,-130.2 137.4,-138.57 141.2,-132.69"/>
</a>
</g>
</g>
<!-- Node4 -->
<g id="Node000004" class="node">
<title>Node4</title>
<g id="a_Node000004"><a xlink:title=" ">
<polygon fill="#e0e0e0" stroke="#999999" points="244.12,-129.75 169.62,-129.75 169.62,-110.5 244.12,-110.5 244.12,-129.75"/>
<text text-anchor="middle" x="206.88" y="-116.25" font-family="Helvetica,sans-Serif" font-size="10.00">Eigen/Sparse</text>
</a>
</g>
</g>
<!-- Node1&#45;&gt;Node4 -->
<g id="edge3_Node000001_Node000004" class="edge">
<title>Node1&#45;&gt;Node4</title>
<g id="a_edge3_Node000001_Node000004"><a xlink:title=" ">
<path fill="none" stroke="#63b8ff" d="M206.88,-165.45C206.88,-158.12 206.88,-149.12 206.88,-141.16"/>
<polygon fill="#63b8ff" stroke="#63b8ff" points="210.38,-141.2 206.88,-131.2 203.38,-141.2 210.38,-141.2"/>
</a>
</g>
</g>
<!-- Node5 -->
<g id="Node000005" class="node">
<title>Node5</title>
<g id="a_Node000005"><a xlink:href="../../d7/d5d/adjacency__matrix_8cpp.html" target="_top" xlink:title=" ">
<polygon fill="white" stroke="#666666" points="373.5,-129.75 262.25,-129.75 262.25,-110.5 373.5,-110.5 373.5,-129.75"/>
<text text-anchor="middle" x="317.88" y="-116.25" font-family="Helvetica,sans-Serif" font-size="10.00">adjacency_matrix.cpp</text>
</a>
</g>
</g>
<!-- Node1&#45;&gt;Node5 -->
<g id="edge4_Node000001_Node000005" class="edge">
<title>Node1&#45;&gt;Node5</title>
<g id="a_edge4_Node000001_Node000005"><a xlink:title=" ">
<path fill="none" stroke="#63b8ff" d="M228.66,-165.3C245.09,-155.98 267.68,-144.02 286.09,-134.9"/>
<polygon fill="#63b8ff" stroke="#63b8ff" points="287.37,-137.68 294.82,-130.15 284.3,-131.39 287.37,-137.68"/>
</a>
</g>
</g>
<!-- Node5&#45;&gt;Node1 -->
<g id="edge5_Node000005_Node000001" class="edge">
<title>Node5&#45;&gt;Node1</title>
<g id="a_edge5_Node000005_Node000001"><a xlink:title=" ">
<path fill="none" stroke="#63b8ff" d="M305.88,-130.15C292.4,-138.19 270.18,-150.22 250.14,-160.44"/>
<polygon fill="#63b8ff" stroke="#63b8ff" points="248.88,-157.66 241.53,-165.3 252.04,-163.91 248.88,-157.66"/>
</a>
</g>
</g>
<!-- Node6 -->
<g id="Node000006" class="node">
<title>Node6</title>
<g id="a_Node000006"><a xlink:href="../../dc/d29/verbose_8h.html" target="_top" xlink:title=" ">
<polygon fill="white" stroke="#666666" points="312.25,-74.5 253.5,-74.5 253.5,-55.25 312.25,-55.25 312.25,-74.5"/>
<text text-anchor="middle" x="282.88" y="-61" font-family="Helvetica,sans-Serif" font-size="10.00">verbose.h</text>
</a>
</g>
</g>
<!-- Node5&#45;&gt;Node6 -->
<g id="edge6_Node000005_Node000006" class="edge">
<title>Node5&#45;&gt;Node6</title>
<g id="a_edge6_Node000005_Node000006"><a xlink:title=" ">
<path fill="none" stroke="#63b8ff" d="M312.1,-110.33C307.41,-103.21 300.66,-92.93 294.82,-84.05"/>
<polygon fill="#63b8ff" stroke="#63b8ff" points="297.2,-82.29 288.78,-75.86 291.35,-86.14 297.2,-82.29"/>
</a>
</g>
</g>
<!-- Node9 -->
<g id="Node000009" class="node">
<title>Node9</title>
<g id="a_Node000009"><a xlink:title=" ">
<polygon fill="#e0e0e0" stroke="#999999" points="373.38,-74.5 330.38,-74.5 330.38,-55.25 373.38,-55.25 373.38,-74.5"/>
<text text-anchor="middle" x="351.88" y="-61" font-family="Helvetica,sans-Serif" font-size="10.00">vector</text>
</a>
</g>
</g>
<!-- Node5&#45;&gt;Node9 -->
<g id="edge9_Node000005_Node000009" class="edge">
<title>Node5&#45;&gt;Node9</title>
<g id="a_edge9_Node000005_Node000009"><a xlink:title=" ">
<path fill="none" stroke="#63b8ff" d="M323.49,-110.33C328.04,-103.21 334.6,-92.93 340.27,-84.05"/>
<polygon fill="#63b8ff" stroke="#63b8ff" points="343.71,-86.17 346.14,-75.86 337.81,-82.4 343.71,-86.17"/>
</a>
</g>
</g>
<!-- Node7 -->
<g id="Node000007" class="node">
<title>Node7</title>
<g id="a_Node000007"><a xlink:title=" ">
<polygon fill="#e0e0e0" stroke="#999999" points="275,-19.25 232.75,-19.25 232.75,0 275,0 275,-19.25"/>
<text text-anchor="middle" x="253.88" y="-5.75" font-family="Helvetica,sans-Serif" font-size="10.00">cstdio</text>
</a>
</g>
</g>
<!-- Node6&#45;&gt;Node7 -->
<g id="edge7_Node000006_Node000007" class="edge">
<title>Node6&#45;&gt;Node7</title>
<g id="a_edge7_Node000006_Node000007"><a xlink:title=" ">
<path fill="none" stroke="#63b8ff" d="M278.09,-55.08C274.25,-48.03 268.73,-37.9 263.93,-29.08"/>
<polygon fill="#63b8ff" stroke="#63b8ff" points="266.62,-27.72 258.77,-20.61 260.48,-31.07 266.62,-27.72"/>
</a>
</g>
</g>
<!-- Node8 -->
<g id="Node000008" class="node">
<title>Node8</title>
<g id="a_Node000008"><a xlink:title=" ">
<polygon fill="#e0e0e0" stroke="#999999" points="332.88,-19.25 292.88,-19.25 292.88,0 332.88,0 332.88,-19.25"/>
<text text-anchor="middle" x="312.88" y="-5.75" font-family="Helvetica,sans-Serif" font-size="10.00">string</text>
</a>
</g>
</g>
<!-- Node6&#45;&gt;Node8 -->
<g id="edge8_Node000006_Node000008" class="edge">
<title>Node6&#45;&gt;Node8</title>
<g id="a_edge8_Node000006_Node000008"><a xlink:title=" ">
<path fill="none" stroke="#63b8ff" d="M287.83,-55.08C291.8,-48.03 297.51,-37.9 302.48,-29.08"/>
<polygon fill="#63b8ff" stroke="#63b8ff" points="305.95,-31.04 307.81,-20.61 299.86,-27.6 305.95,-31.04"/>
</a>
</g>
</g>
</g>
</svg>
