<?xml version="1.0" encoding="UTF-8" standalone="no"?>
<!DOCTYPE svg PUBLIC "-//W3C//DTD SVG 1.1//EN"
 "http://www.w3.org/Graphics/SVG/1.1/DTD/svg11.dtd">
<!-- Generated by graphviz version 8.0.5 (20230430.1635)
 -->
<!-- Title: src/PrusaSlicer_app_msvc.cpp Pages: 1 -->
<svg width="720pt" height="105pt"
 viewBox="0.00 0.00 720.25 105.00" xmlns="http://www.w3.org/2000/svg" xmlns:xlink="http://www.w3.org/1999/xlink">
<g id="graph0" class="graph" transform="scale(1 1) rotate(0) translate(4 101)">
<title>src/PrusaSlicer_app_msvc.cpp</title>
<!-- Node1 -->
<g id="Node000001" class="node">
<title>Node1</title>
<g id="a_Node000001"><a xlink:title=" ">
<polygon fill="#999999" stroke="#666666" points="366.25,-97 262.5,-97 262.5,-66.5 366.25,-66.5 366.25,-97"/>
<text text-anchor="start" x="270.5" y="-83.5" font-family="Helvetica,sans-Serif" font-size="10.00">src/PrusaSlicer_app</text>
<text text-anchor="middle" x="314.38" y="-72.25" font-family="Helvetica,sans-Serif" font-size="10.00">_msvc.cpp</text>
</a>
</g>
</g>
<!-- Node2 -->
<g id="Node000002" class="node">
<title>Node2</title>
<g id="a_Node000002"><a xlink:title=" ">
<polygon fill="#e0e0e0" stroke="#999999" points="64.75,-24.88 0,-24.88 0,-5.63 64.75,-5.63 64.75,-24.88"/>
<text text-anchor="middle" x="32.38" y="-11.38" font-family="Helvetica,sans-Serif" font-size="10.00">Windows.h</text>
</a>
</g>
</g>
<!-- Node1&#45;&gt;Node2 -->
<g id="edge1_Node000001_Node000002" class="edge">
<title>Node1&#45;&gt;Node2</title>
<g id="a_edge1_Node000001_Node000002"><a xlink:title=" ">
<path fill="none" stroke="#63b8ff" d="M262.2,-71.88C213.07,-63.06 137.63,-48.29 73.38,-30.5 71.36,-29.94 69.3,-29.34 67.23,-28.7"/>
<polygon fill="#63b8ff" stroke="#63b8ff" points="68.52,-25.12 57.93,-25.36 66.36,-31.78 68.52,-25.12"/>
</a>
</g>
</g>
<!-- Node3 -->
<g id="Node000003" class="node">
<title>Node3</title>
<g id="a_Node000003"><a xlink:title=" ">
<polygon fill="#e0e0e0" stroke="#999999" points="140,-24.88 82.75,-24.88 82.75,-5.63 140,-5.63 140,-24.88"/>
<text text-anchor="middle" x="111.38" y="-11.38" font-family="Helvetica,sans-Serif" font-size="10.00">shellapi.h</text>
</a>
</g>
</g>
<!-- Node1&#45;&gt;Node3 -->
<g id="edge2_Node000001_Node000003" class="edge">
<title>Node1&#45;&gt;Node3</title>
<g id="a_edge2_Node000001_Node000003"><a xlink:title=" ">
<path fill="none" stroke="#63b8ff" d="M263.19,-66.07C230.47,-56.46 187.23,-43.35 149.38,-30.5 147.87,-29.99 146.34,-29.46 144.8,-28.92"/>
<polygon fill="#63b8ff" stroke="#63b8ff" points="146.2,-25.34 135.6,-25.23 143.81,-31.92 146.2,-25.34"/>
</a>
</g>
</g>
<!-- Node4 -->
<g id="Node000004" class="node">
<title>Node4</title>
<g id="a_Node000004"><a xlink:title=" ">
<polygon fill="#e0e0e0" stroke="#999999" points="208.25,-24.88 158.5,-24.88 158.5,-5.63 208.25,-5.63 208.25,-24.88"/>
<text text-anchor="middle" x="183.38" y="-11.38" font-family="Helvetica,sans-Serif" font-size="10.00">wchar.h</text>
</a>
</g>
</g>
<!-- Node1&#45;&gt;Node4 -->
<g id="edge3_Node000001_Node000004" class="edge">
<title>Node1&#45;&gt;Node4</title>
<g id="a_edge3_Node000001_Node000004"><a xlink:title=" ">
<path fill="none" stroke="#63b8ff" d="M284.65,-66.11C262.72,-55.32 233.08,-40.72 211.53,-30.11"/>
<polygon fill="#63b8ff" stroke="#63b8ff" points="213.19,-26.54 202.67,-25.26 210.1,-32.82 213.19,-26.54"/>
</a>
</g>
</g>
<!-- Node5 -->
<g id="Node000005" class="node">
<title>Node5</title>
<g id="a_Node000005"><a xlink:title=" ">
<polygon fill="#e0e0e0" stroke="#999999" points="274.12,-24.88 226.62,-24.88 226.62,-5.63 274.12,-5.63 274.12,-24.88"/>
<text text-anchor="middle" x="250.38" y="-11.38" font-family="Helvetica,sans-Serif" font-size="10.00">stdlib.h</text>
</a>
</g>
</g>
<!-- Node1&#45;&gt;Node5 -->
<g id="edge4_Node000001_Node000005" class="edge">
<title>Node1&#45;&gt;Node5</title>
<g id="a_edge4_Node000001_Node000005"><a xlink:title=" ">
<path fill="none" stroke="#63b8ff" d="M299.85,-66.11C289.96,-56.14 276.85,-42.93 266.61,-32.61"/>
<polygon fill="#63b8ff" stroke="#63b8ff" points="269.66,-30.71 260.13,-26.07 264.69,-35.64 269.66,-30.71"/>
</a>
</g>
</g>
<!-- Node6 -->
<g id="Node000006" class="node">
<title>Node6</title>
<g id="a_Node000006"><a xlink:title=" ">
<polygon fill="#e0e0e0" stroke="#999999" points="337,-24.88 291.75,-24.88 291.75,-5.63 337,-5.63 337,-24.88"/>
<text text-anchor="middle" x="314.38" y="-11.38" font-family="Helvetica,sans-Serif" font-size="10.00">stdio.h</text>
</a>
</g>
</g>
<!-- Node1&#45;&gt;Node6 -->
<g id="edge5_Node000001_Node000006" class="edge">
<title>Node1&#45;&gt;Node6</title>
<g id="a_edge5_Node000001_Node000006"><a xlink:title=" ">
<path fill="none" stroke="#63b8ff" d="M314.38,-66.11C314.38,-57.13 314.38,-45.51 314.38,-35.76"/>
<polygon fill="#63b8ff" stroke="#63b8ff" points="317.88,-36.07 314.38,-26.07 310.88,-36.07 317.88,-36.07"/>
</a>
</g>
</g>
<!-- Node7 -->
<g id="Node000007" class="node">
<title>Node7</title>
<g id="a_Node000007"><a xlink:title=" ">
<polygon fill="#e0e0e0" stroke="#999999" points="395.38,-24.88 355.38,-24.88 355.38,-5.63 395.38,-5.63 395.38,-24.88"/>
<text text-anchor="middle" x="375.38" y="-11.38" font-family="Helvetica,sans-Serif" font-size="10.00">string</text>
</a>
</g>
</g>
<!-- Node1&#45;&gt;Node7 -->
<g id="edge6_Node000001_Node000007" class="edge">
<title>Node1&#45;&gt;Node7</title>
<g id="a_edge6_Node000001_Node000007"><a xlink:title=" ">
<path fill="none" stroke="#63b8ff" d="M328.22,-66.11C337.55,-56.24 349.9,-43.19 359.61,-32.92"/>
<polygon fill="#63b8ff" stroke="#63b8ff" points="361.7,-35.74 366.03,-26.07 356.62,-30.93 361.7,-35.74"/>
</a>
</g>
</g>
<!-- Node8 -->
<g id="Node000008" class="node">
<title>Node8</title>
<g id="a_Node000008"><a xlink:title=" ">
<polygon fill="#e0e0e0" stroke="#999999" points="456.88,-24.88 413.88,-24.88 413.88,-5.63 456.88,-5.63 456.88,-24.88"/>
<text text-anchor="middle" x="435.38" y="-11.38" font-family="Helvetica,sans-Serif" font-size="10.00">vector</text>
</a>
</g>
</g>
<!-- Node1&#45;&gt;Node8 -->
<g id="edge7_Node000001_Node000008" class="edge">
<title>Node1&#45;&gt;Node8</title>
<g id="a_edge7_Node000001_Node000008"><a xlink:title=" ">
<path fill="none" stroke="#63b8ff" d="M341.83,-66.11C361.9,-55.42 388.97,-40.99 408.82,-30.4"/>
<polygon fill="#63b8ff" stroke="#63b8ff" points="410.29,-33.05 417.47,-25.26 407,-26.88 410.29,-33.05"/>
</a>
</g>
</g>
<!-- Node9 -->
<g id="Node000009" class="node">
<title>Node9</title>
<g id="a_Node000009"><a xlink:title=" ">
<polygon fill="#e0e0e0" stroke="#999999" points="584.25,-30.5 474.5,-30.5 474.5,0 584.25,0 584.25,-30.5"/>
<text text-anchor="start" x="482.5" y="-17" font-family="Helvetica,sans-Serif" font-size="10.00">boost/algorithm/string</text>
<text text-anchor="middle" x="529.38" y="-5.75" font-family="Helvetica,sans-Serif" font-size="10.00">/split.hpp</text>
</a>
</g>
</g>
<!-- Node1&#45;&gt;Node9 -->
<g id="edge8_Node000001_Node000009" class="edge">
<title>Node1&#45;&gt;Node9</title>
<g id="a_edge8_Node000001_Node000009"><a xlink:title=" ">
<path fill="none" stroke="#63b8ff" d="M363.43,-66.03C395.22,-56.5 436.8,-44.02 470.38,-33.95"/>
<polygon fill="#63b8ff" stroke="#63b8ff" points="470.96,-37.13 479.53,-30.9 468.95,-30.42 470.96,-37.13"/>
</a>
</g>
</g>
<!-- Node10 -->
<g id="Node000010" class="node">
<title>Node10</title>
<g id="a_Node000010"><a xlink:title=" ">
<polygon fill="#e0e0e0" stroke="#999999" points="712.25,-30.5 602.5,-30.5 602.5,0 712.25,0 712.25,-30.5"/>
<text text-anchor="start" x="610.5" y="-17" font-family="Helvetica,sans-Serif" font-size="10.00">boost/algorithm/string</text>
<text text-anchor="middle" x="657.38" y="-5.75" font-family="Helvetica,sans-Serif" font-size="10.00">/classification.hpp</text>
</a>
</g>
</g>
<!-- Node1&#45;&gt;Node10 -->
<g id="edge9_Node000001_Node000010" class="edge">
<title>Node1&#45;&gt;Node10</title>
<g id="a_edge9_Node000001_Node000010"><a xlink:title=" ">
<path fill="none" stroke="#63b8ff" d="M366.69,-71.99C420.59,-62.81 507.32,-47.63 591.7,-30.79"/>
<polygon fill="#63b8ff" stroke="#63b8ff" points="592.13,-34.07 601.25,-28.67 590.75,-27.21 592.13,-34.07"/>
</a>
</g>
</g>
</g>
</svg>
