<?xml version="1.0" encoding="UTF-8" standalone="no"?>
<!DOCTYPE svg PUBLIC "-//W3C//DTD SVG 1.1//EN"
 "http://www.w3.org/Graphics/SVG/1.1/DTD/svg11.dtd">
<!-- Generated by graphviz version 8.0.5 (20230430.1635)
 -->
<!-- Title: Slic3r::GUI::ImGuiWrapper::slider_optional_int Pages: 1 -->
<svg width="877pt" height="39pt"
 viewBox="0.00 0.00 877.00 38.50" xmlns="http://www.w3.org/2000/svg" xmlns:xlink="http://www.w3.org/1999/xlink">
<g id="graph0" class="graph" transform="scale(1 1) rotate(0) translate(4 34.5)">
<title>Slic3r::GUI::ImGuiWrapper::slider_optional_int</title>
<!-- Node1 -->
<g id="Node000001" class="node">
<title>Node1</title>
<g id="a_Node000001"><a xlink:title=" ">
<polygon fill="#999999" stroke="#666666" points="869,-30.5 736,-30.5 736,0 869,0 869,-30.5"/>
<text text-anchor="start" x="744" y="-17" font-family="Helvetica,sans-Serif" font-size="10.00">Slic3r::GUI::ImGuiWrapper</text>
<text text-anchor="middle" x="802.5" y="-5.75" font-family="Helvetica,sans-Serif" font-size="10.00">::slider_optional_int</text>
</a>
</g>
</g>
<!-- Node2 -->
<g id="Node000002" class="node">
<title>Node2</title>
<g id="a_Node000002"><a xlink:href="../../dd/df1/class_slic3r_1_1_g_u_i_1_1_g_l_gizmo_emboss.html#a62b46881b6a4f9c5c9a3ef6f92328611" target="_top" xlink:title=" ">
<polygon fill="white" stroke="#666666" points="700,-30.5 552,-30.5 552,0 700,0 700,-30.5"/>
<text text-anchor="start" x="560" y="-17" font-family="Helvetica,sans-Serif" font-size="10.00">Slic3r::GUI::GLGizmoEmboss</text>
<text text-anchor="middle" x="626" y="-5.75" font-family="Helvetica,sans-Serif" font-size="10.00">::rev_slider</text>
</a>
</g>
</g>
<!-- Node1&#45;&gt;Node2 -->
<g id="edge1_Node000001_Node000002" class="edge">
<title>Node1&#45;&gt;Node2</title>
<g id="a_edge1_Node000001_Node000002"><a xlink:title=" ">
<path fill="none" stroke="#63b8ff" d="M724.63,-15.25C716.57,-15.25 708.39,-15.25 700.37,-15.25"/>
<polygon fill="#63b8ff" stroke="#63b8ff" points="724.53,-18.75 734.53,-15.25 724.53,-11.75 724.53,-18.75"/>
</a>
</g>
</g>
<!-- Node3 -->
<g id="Node000003" class="node">
<title>Node3</title>
<g id="a_Node000003"><a xlink:href="../../dd/df1/class_slic3r_1_1_g_u_i_1_1_g_l_gizmo_emboss.html#a992be82e214e7ee040d32e0f63dcefa0" target="_top" xlink:title=" ">
<polygon fill="white" stroke="#666666" points="516,-30.5 368,-30.5 368,0 516,0 516,-30.5"/>
<text text-anchor="start" x="376" y="-17" font-family="Helvetica,sans-Serif" font-size="10.00">Slic3r::GUI::GLGizmoEmboss</text>
<text text-anchor="middle" x="442" y="-5.75" font-family="Helvetica,sans-Serif" font-size="10.00">::draw_advanced</text>
</a>
</g>
</g>
<!-- Node2&#45;&gt;Node3 -->
<g id="edge2_Node000002_Node000003" class="edge">
<title>Node2&#45;&gt;Node3</title>
<g id="a_edge2_Node000002_Node000003"><a xlink:title=" ">
<path fill="none" stroke="#63b8ff" d="M541.02,-15.25C532.79,-15.25 524.49,-15.25 516.39,-15.25"/>
<polygon fill="#63b8ff" stroke="#63b8ff" points="540.76,-18.75 550.76,-15.25 540.76,-11.75 540.76,-18.75"/>
</a>
</g>
</g>
<!-- Node4 -->
<g id="Node000004" class="node">
<title>Node4</title>
<g id="a_Node000004"><a xlink:href="../../dd/df1/class_slic3r_1_1_g_u_i_1_1_g_l_gizmo_emboss.html#a6dc1143a516dc36420fe279e09c55b40" target="_top" xlink:title=" ">
<polygon fill="white" stroke="#666666" points="332,-30.5 184,-30.5 184,0 332,0 332,-30.5"/>
<text text-anchor="start" x="192" y="-17" font-family="Helvetica,sans-Serif" font-size="10.00">Slic3r::GUI::GLGizmoEmboss</text>
<text text-anchor="middle" x="258" y="-5.75" font-family="Helvetica,sans-Serif" font-size="10.00">::draw_window</text>
</a>
</g>
</g>
<!-- Node3&#45;&gt;Node4 -->
<g id="edge3_Node000003_Node000004" class="edge">
<title>Node3&#45;&gt;Node4</title>
<g id="a_edge3_Node000003_Node000004"><a xlink:title=" ">
<path fill="none" stroke="#63b8ff" d="M357.02,-15.25C348.79,-15.25 340.49,-15.25 332.39,-15.25"/>
<polygon fill="#63b8ff" stroke="#63b8ff" points="356.76,-18.75 366.76,-15.25 356.76,-11.75 356.76,-18.75"/>
</a>
</g>
</g>
<!-- Node5 -->
<g id="Node000005" class="node">
<title>Node5</title>
<g id="a_Node000005"><a xlink:href="../../dd/df1/class_slic3r_1_1_g_u_i_1_1_g_l_gizmo_emboss.html#adcf76968843c4bbb8646d4a51a04867c" target="_top" xlink:title=" ">
<polygon fill="white" stroke="#666666" points="148,-30.5 0,-30.5 0,0 148,0 148,-30.5"/>
<text text-anchor="start" x="8" y="-17" font-family="Helvetica,sans-Serif" font-size="10.00">Slic3r::GUI::GLGizmoEmboss</text>
<text text-anchor="middle" x="74" y="-5.75" font-family="Helvetica,sans-Serif" font-size="10.00">::on_render_input_window</text>
</a>
</g>
</g>
<!-- Node4&#45;&gt;Node5 -->
<g id="edge4_Node000004_Node000005" class="edge">
<title>Node4&#45;&gt;Node5</title>
<g id="a_edge4_Node000004_Node000005"><a xlink:title=" ">
<path fill="none" stroke="#63b8ff" d="M173.02,-15.25C164.79,-15.25 156.49,-15.25 148.39,-15.25"/>
<polygon fill="#63b8ff" stroke="#63b8ff" points="172.76,-18.75 182.76,-15.25 172.76,-11.75 172.76,-18.75"/>
</a>
</g>
</g>
</g>
</svg>
