<?xml version="1.0" encoding="UTF-8" standalone="no"?>
<!DOCTYPE svg PUBLIC "-//W3C//DTD SVG 1.1//EN"
 "http://www.w3.org/Graphics/SVG/1.1/DTD/svg11.dtd">
<!-- Generated by graphviz version 8.0.5 (20230430.1635)
 -->
<!-- Title: Slic3r::GUI::ImGuiWrapper::contain_all_glyphs Pages: 1 -->
<!--zoomable 395 -->

<svg id="main" version="1.1" xmlns="http://www.w3.org/2000/svg" xmlns:xlink="http://www.w3.org/1999/xlink" xml:space="preserve" onload="init(evt)">
<style type="text/css"><![CDATA[
.node, .edge {opacity: 0.7;}
.node.selected, .edge.selected {opacity: 1;}
.edge:hover path { stroke: red; }
.edge:hover polygon { stroke: red; fill: red; }
]]></style>

<defs>
  <circle id="rim" cx="0" cy="0" r="7"/>
  <circle id="rim2" cx="0" cy="0" r="3.5"/>
  <g id="zoomPlus">
    <use xlink:href="#rim" fill="#404040"><set attributeName="fill" to="#808080" begin="zoomplus.mouseover" end="zoomplus.mouseout"/></use>
    <path d="M-4,0h8M0,-4v8" fill="none" stroke="white" stroke-width="1.5" pointer-events="none"/>
  </g>
  <g id="zoomMin">
    <use xlink:href="#rim" fill="#404040"><set attributeName="fill" to="#808080" begin="zoomminus.mouseover" end="zoomminus.mouseout"/></use>
    <path d="M-4,0h8" fill="none" stroke="white" stroke-width="1.5" pointer-events="none"/>
  </g>
  <g id="arrowUp" transform="translate(30 24)">
    <use xlink:href="#rim"/>
    <path pointer-events="none" fill="none" stroke="white" stroke-width="1.5" d="M0,-3.0v7 M-2.5,-0.5L0,-3.0L2.5,-0.5"/>
  </g>
  <g id="arrowRight" transform="rotate(90) translate(36 -43)">
    <use xlink:href="#rim"/>
    <path pointer-events="none" fill="none" stroke="white" stroke-width="1.5" d="M0,-3.0v7 M-2.5,-0.5L0,-3.0L2.5,-0.5"/>
  </g>
  <g id="arrowDown" transform="rotate(180) translate(-30 -48)">
    <use xlink:href="#rim"/>
    <path pointer-events="none" fill="none" stroke="white" stroke-width="1.5" d="M0,-3.0v7 M-2.5,-0.5L0,-3.0L2.5,-0.5"/>
  </g>
  <g id="arrowLeft" transform="rotate(270) translate(-36 17)">
    <use xlink:href="#rim"/>
    <path pointer-events="none" fill="none" stroke="white" stroke-width="1.5" d="M0,-3.0v7 M-2.5,-0.5L0,-3.0L2.5,-0.5"/>
  </g>
  <g id="resetDef">
    <use xlink:href="#rim2" fill="#404040"><set attributeName="fill" to="#808080" begin="reset.mouseover" end="reset.mouseout"/></use>
  </g>
</defs>
<script type="application/ecmascript">
var viewWidth = 1037;
var viewHeight = 395;
var sectionId = 'dynsection-27';
</script>
<script type="application/ecmascript" xlink:href="../../svg.min.js"/>
<svg id="graph" class="graph">
<g id="viewport">
<title>Slic3r::GUI::ImGuiWrapper::contain_all_glyphs</title>
<!-- Node1 -->
<g id="Node000001" class="node">
<title>Node1</title>
<g id="a_Node000001"><a xlink:title="Check that font ranges contain all chars in string (rendered Unicodes are stored in GlyphRanges)">
<polygon fill="#999999" stroke="#666666" points="133,-328.88 0,-328.88 0,-298.38 133,-298.38 133,-328.88"/>
<text text-anchor="start" x="8" y="-315.38" font-family="Helvetica,sans-Serif" font-size="10.00">Slic3r::GUI::ImGuiWrapper</text>
<text text-anchor="middle" x="66.5" y="-304.12" font-family="Helvetica,sans-Serif" font-size="10.00">::contain_all_glyphs</text>
</a>
</g>
</g>
<!-- Node2 -->
<g id="Node000002" class="node">
<title>Node2</title>
<g id="a_Node000002"><a xlink:href="../../d6/d97/class_slic3r_1_1_g_u_i_1_1_im_gui_wrapper.html#a9ee56c0bd267a7c4d328691224c6a36f" target="_top" xlink:title=" ">
<polygon fill="white" stroke="#666666" points="302,-371.88 169,-371.88 169,-341.38 302,-341.38 302,-371.88"/>
<text text-anchor="start" x="177" y="-358.38" font-family="Helvetica,sans-Serif" font-size="10.00">Slic3r::GUI::ImGuiWrapper</text>
<text text-anchor="middle" x="235.5" y="-347.12" font-family="Helvetica,sans-Serif" font-size="10.00">::is_chars_in_ranges</text>
</a>
</g>
</g>
<!-- Node1&#45;&gt;Node2 -->
<g id="edge1_Node000001_Node000002" class="edge">
<title>Node1&#45;&gt;Node2</title>
<g id="a_edge1_Node000001_Node000002"><a xlink:title=" ">
<path fill="none" stroke="#63b8ff" d="M128.26,-329.27C139.54,-332.18 151.43,-335.23 162.99,-338.21"/>
<polygon fill="#63b8ff" stroke="#63b8ff" points="161.95,-341.81 172.5,-340.92 163.69,-335.04 161.95,-341.81"/>
</a>
</g>
</g>
<!-- Node7 -->
<g id="Node000007" class="node">
<title>Node7</title>
<g id="a_Node000007"><a xlink:href="../../d7/dc9/struct_im_font.html#a97dafa61cc94e84be396d69b0d42b1ce" target="_top" xlink:title=" ">
<polygon fill="white" stroke="#666666" points="281.75,-323.25 189.25,-323.25 189.25,-304 281.75,-304 281.75,-323.25"/>
<text text-anchor="middle" x="235.5" y="-309.75" font-family="Helvetica,sans-Serif" font-size="10.00">ImFont::IsLoaded</text>
</a>
</g>
</g>
<!-- Node1&#45;&gt;Node7 -->
<g id="edge6_Node000001_Node000007" class="edge">
<title>Node1&#45;&gt;Node7</title>
<g id="a_edge6_Node000001_Node000007"><a xlink:title=" ">
<path fill="none" stroke="#63b8ff" d="M133.02,-313.62C147.88,-313.62 163.53,-313.62 177.97,-313.62"/>
<polygon fill="#63b8ff" stroke="#63b8ff" points="177.75,-317.13 187.75,-313.62 177.75,-310.13 177.75,-317.13"/>
</a>
</g>
</g>
<!-- Node8 -->
<g id="Node000008" class="node">
<title>Node8</title>
<g id="a_Node000008"><a xlink:href="../../d6/d97/class_slic3r_1_1_g_u_i_1_1_im_gui_wrapper.html#a67859c8a34baabf31b25e1bb22a726d8" target="_top" xlink:title=" ">
<polygon fill="white" stroke="#666666" points="302,-285.88 169,-285.88 169,-255.38 302,-255.38 302,-285.88"/>
<text text-anchor="start" x="177" y="-272.38" font-family="Helvetica,sans-Serif" font-size="10.00">Slic3r::GUI::ImGuiWrapper</text>
<text text-anchor="middle" x="235.5" y="-261.12" font-family="Helvetica,sans-Serif" font-size="10.00">::text</text>
</a>
</g>
</g>
<!-- Node1&#45;&gt;Node8 -->
<g id="edge7_Node000001_Node000008" class="edge">
<title>Node1&#45;&gt;Node8</title>
<g id="a_edge7_Node000001_Node000008"><a xlink:title=" ">
<path fill="none" stroke="#63b8ff" d="M128.26,-297.98C139.54,-295.07 151.43,-292.02 162.99,-289.04"/>
<polygon fill="#63b8ff" stroke="#63b8ff" points="163.69,-292.21 172.5,-286.33 161.95,-285.44 163.69,-292.21"/>
</a>
</g>
</g>
<!-- Node3 -->
<g id="Node000003" class="node">
<title>Node3</title>
<g id="a_Node000003"><a xlink:href="../../da/d72/imgui_8cpp.html#a036b9dd7f0942fd34e385cc115f36631" target="_top" xlink:title=" ">
<polygon fill="white" stroke="#666666" points="458.62,-387.25 350.38,-387.25 350.38,-368 458.62,-368 458.62,-387.25"/>
<text text-anchor="middle" x="404.5" y="-373.75" font-family="Helvetica,sans-Serif" font-size="10.00">ImTextCharFromUtf8</text>
</a>
</g>
</g>
<!-- Node2&#45;&gt;Node3 -->
<g id="edge2_Node000002_Node000003" class="edge">
<title>Node2&#45;&gt;Node3</title>
<g id="a_edge2_Node000002_Node000003"><a xlink:title=" ">
<path fill="none" stroke="#63b8ff" d="M302.02,-364.86C314.32,-366.41 327.16,-368.03 339.42,-369.57"/>
<polygon fill="#63b8ff" stroke="#63b8ff" points="338.65,-373.12 349.01,-370.9 339.52,-366.18 338.65,-373.12"/>
</a>
</g>
</g>
<!-- Node5 -->
<g id="Node000005" class="node">
<title>Node5</title>
<g id="a_Node000005"><a xlink:href="../../d6/d97/class_slic3r_1_1_g_u_i_1_1_im_gui_wrapper.html#aaa80b31de2b601085e44ac56b59522c1" target="_top" xlink:title=" ">
<polygon fill="white" stroke="#666666" points="471,-349.88 338,-349.88 338,-319.38 471,-319.38 471,-349.88"/>
<text text-anchor="start" x="346" y="-336.38" font-family="Helvetica,sans-Serif" font-size="10.00">Slic3r::GUI::ImGuiWrapper</text>
<text text-anchor="middle" x="404.5" y="-325.12" font-family="Helvetica,sans-Serif" font-size="10.00">::is_char_in_ranges</text>
</a>
</g>
</g>
<!-- Node2&#45;&gt;Node5 -->
<g id="edge4_Node000002_Node000005" class="edge">
<title>Node2&#45;&gt;Node5</title>
<g id="a_edge4_Node000002_Node000005"><a xlink:title=" ">
<path fill="none" stroke="#63b8ff" d="M302.02,-347.99C310.16,-346.92 318.53,-345.82 326.81,-344.73"/>
<polygon fill="#63b8ff" stroke="#63b8ff" points="327.16,-348.08 336.62,-343.3 326.25,-341.14 327.16,-348.08"/>
</a>
</g>
</g>
<!-- Node4 -->
<g id="Node000004" class="node">
<title>Node4</title>
<g id="a_Node000004"><a xlink:href="../../d1/da2/imgui__internal_8h.html#a7f9d7828066a9d61b5630adcdf4655d3" target="_top" xlink:title=" ">
<polygon fill="white" stroke="#666666" points="565.38,-387.25 522.38,-387.25 522.38,-368 565.38,-368 565.38,-387.25"/>
<text text-anchor="middle" x="543.88" y="-373.75" font-family="Helvetica,sans-Serif" font-size="10.00">ImMin</text>
</a>
</g>
</g>
<!-- Node3&#45;&gt;Node4 -->
<g id="edge3_Node000003_Node000004" class="edge">
<title>Node3&#45;&gt;Node4</title>
<g id="a_edge3_Node000003_Node000004"><a xlink:title=" ">
<path fill="none" stroke="#63b8ff" d="M459.01,-377.62C476.71,-377.62 495.83,-377.62 511.33,-377.62"/>
<polygon fill="#63b8ff" stroke="#63b8ff" points="510.91,-381.13 520.91,-377.62 510.91,-374.13 510.91,-381.13"/>
</a>
</g>
</g>
<!-- Node6 -->
<g id="Node000006" class="node">
<title>Node6</title>
<g id="a_Node000006"><a xlink:href="../../de/db8/namespace_slic3r.html#a51e1ea9708d6434aae1e8394bef8acdc" target="_top" xlink:title=" ">
<polygon fill="white" stroke="#666666" points="579.25,-344.25 508.5,-344.25 508.5,-325 579.25,-325 579.25,-344.25"/>
<text text-anchor="middle" x="543.88" y="-330.75" font-family="Helvetica,sans-Serif" font-size="10.00">Slic3r::range</text>
</a>
</g>
</g>
<!-- Node5&#45;&gt;Node6 -->
<g id="edge5_Node000005_Node000006" class="edge">
<title>Node5&#45;&gt;Node6</title>
<g id="a_edge5_Node000005_Node000006"><a xlink:title=" ">
<path fill="none" stroke="#63b8ff" d="M471.37,-334.62C480.08,-334.62 488.85,-334.62 497.12,-334.62"/>
<polygon fill="#63b8ff" stroke="#63b8ff" points="497.04,-338.13 507.04,-334.62 497.04,-331.13 497.04,-338.13"/>
</a>
</g>
</g>
<!-- Node9 -->
<g id="Node000009" class="node">
<title>Node9</title>
<g id="a_Node000009"><a xlink:href="../../df/d13/namespace_im_gui.html#a9e7b83611fe441d54fad2effb4bf4965" target="_top" xlink:title=" ">
<polygon fill="white" stroke="#666666" points="438,-280.25 371,-280.25 371,-261 438,-261 438,-280.25"/>
<text text-anchor="middle" x="404.5" y="-266.75" font-family="Helvetica,sans-Serif" font-size="10.00">ImGui::Text</text>
</a>
</g>
</g>
<!-- Node8&#45;&gt;Node9 -->
<g id="edge8_Node000008_Node000009" class="edge">
<title>Node8&#45;&gt;Node9</title>
<g id="a_edge8_Node000008_Node000009"><a xlink:title=" ">
<path fill="none" stroke="#63b8ff" d="M302.02,-270.62C321.46,-270.62 342.25,-270.62 359.92,-270.62"/>
<polygon fill="#63b8ff" stroke="#63b8ff" points="359.76,-274.13 369.76,-270.62 359.76,-267.13 359.76,-274.13"/>
</a>
</g>
</g>
<!-- Node10 -->
<g id="Node000010" class="node">
<title>Node10</title>
<g id="a_Node000010"><a xlink:href="../../df/d13/namespace_im_gui.html#a10a0d6362178c2f743092f21e1b6cd20" target="_top" xlink:title=" ">
<polygon fill="white" stroke="#666666" points="580.75,-280.25 507,-280.25 507,-261 580.75,-261 580.75,-280.25"/>
<text text-anchor="middle" x="543.88" y="-266.75" font-family="Helvetica,sans-Serif" font-size="10.00">ImGui::TextV</text>
</a>
</g>
</g>
<!-- Node9&#45;&gt;Node10 -->
<g id="edge9_Node000009_Node000010" class="edge">
<title>Node9&#45;&gt;Node10</title>
<g id="a_edge9_Node000009_Node000010"><a xlink:title=" ">
<path fill="none" stroke="#63b8ff" d="M438.4,-270.62C455.66,-270.62 477.09,-270.62 496.04,-270.62"/>
<polygon fill="#63b8ff" stroke="#63b8ff" points="495.86,-274.13 505.86,-270.62 495.86,-267.13 495.86,-274.13"/>
</a>
</g>
</g>
<!-- Node11 -->
<g id="Node000011" class="node">
<title>Node11</title>
<g id="a_Node000011"><a xlink:href="../../df/d13/namespace_im_gui.html#ac452417b5004ca16a814a72cff153526" target="_top" xlink:title=" ">
<polygon fill="white" stroke="#666666" points="882.75,-356.25 751.25,-356.25 751.25,-337 882.75,-337 882.75,-356.25"/>
<text text-anchor="middle" x="817" y="-342.75" font-family="Helvetica,sans-Serif" font-size="10.00">ImGui::GetCurrentWindow</text>
</a>
</g>
</g>
<!-- Node10&#45;&gt;Node11 -->
<g id="edge10_Node000010_Node000011" class="edge">
<title>Node10&#45;&gt;Node11</title>
<g id="a_edge10_Node000010_Node000011"><a xlink:title=" ">
<path fill="none" stroke="#63b8ff" d="M577.71,-280.71C616.91,-292.63 684.52,-312.86 743,-328.62 749.53,-330.39 756.42,-332.17 763.24,-333.9"/>
<polygon fill="#63b8ff" stroke="#63b8ff" points="762.29,-337.52 772.84,-336.56 763.99,-330.73 762.29,-337.52"/>
</a>
</g>
</g>
<!-- Node12 -->
<g id="Node000012" class="node">
<title>Node12</title>
<g id="a_Node000012"><a xlink:href="../../da/d72/imgui_8cpp.html#a2e0022a073d369645a0daab17f823779" target="_top" xlink:title=" ">
<polygon fill="white" stroke="#666666" points="707,-280.25 616.75,-280.25 616.75,-261 707,-261 707,-280.25"/>
<text text-anchor="middle" x="661.88" y="-266.75" font-family="Helvetica,sans-Serif" font-size="10.00">ImFormatStringV</text>
</a>
</g>
</g>
<!-- Node10&#45;&gt;Node12 -->
<g id="edge11_Node000010_Node000012" class="edge">
<title>Node10&#45;&gt;Node12</title>
<g id="a_edge11_Node000010_Node000012"><a xlink:title=" ">
<path fill="none" stroke="#63b8ff" d="M580.94,-270.62C588.8,-270.62 597.3,-270.62 605.71,-270.62"/>
<polygon fill="#63b8ff" stroke="#63b8ff" points="605.66,-274.13 615.66,-270.62 605.66,-267.13 605.66,-274.13"/>
</a>
</g>
</g>
<!-- Node13 -->
<g id="Node000013" class="node">
<title>Node13</title>
<g id="a_Node000013"><a xlink:href="../../df/d13/namespace_im_gui.html#aae6420fec03511fd478d9108f31e6b5f" target="_top" xlink:title=" ">
<polygon fill="white" stroke="#666666" points="701.38,-206.25 622.38,-206.25 622.38,-187 701.38,-187 701.38,-206.25"/>
<text text-anchor="middle" x="661.88" y="-192.75" font-family="Helvetica,sans-Serif" font-size="10.00">ImGui::TextEx</text>
</a>
</g>
</g>
<!-- Node10&#45;&gt;Node13 -->
<g id="edge12_Node000010_Node000013" class="edge">
<title>Node10&#45;&gt;Node13</title>
<g id="a_edge12_Node000010_Node000013"><a xlink:title=" ">
<path fill="none" stroke="#63b8ff" d="M560.52,-260.65C579.89,-248.29 613.12,-227.09 636.01,-212.49"/>
<polygon fill="#63b8ff" stroke="#63b8ff" points="637.56,-215.01 644.11,-206.68 633.8,-209.11 637.56,-215.01"/>
</a>
</g>
</g>
<!-- Node13&#45;&gt;Node11 -->
<g id="edge16_Node000013_Node000011" class="edge">
<title>Node13&#45;&gt;Node11</title>
<g id="a_edge16_Node000013_Node000011"><a xlink:title=" ">
<path fill="none" stroke="#63b8ff" d="M672.12,-206.62C681.63,-217.24 696.52,-234.79 707,-251.62 726.96,-283.7 713.81,-304.65 743,-328.62 744.08,-329.51 745.19,-330.35 746.34,-331.16"/>
<polygon fill="#63b8ff" stroke="#63b8ff" points="744.28,-334.58 754.69,-336.55 747.77,-328.52 744.28,-334.58"/>
</a>
</g>
</g>
<!-- Node14 -->
<g id="Node000014" class="node">
<title>Node14</title>
<g id="a_Node000014"><a xlink:href="../../df/d13/namespace_im_gui.html#a848b9db6cc4a186751c0ecebcaadc33b" target="_top" xlink:title=" ">
<polygon fill="#fff0f0" stroke="red" points="870.38,-319.25 763.62,-319.25 763.62,-300 870.38,-300 870.38,-319.25"/>
<text text-anchor="middle" x="817" y="-305.75" font-family="Helvetica,sans-Serif" font-size="10.00">ImGui::CalcTextSize</text>
</a>
</g>
</g>
<!-- Node13&#45;&gt;Node14 -->
<g id="edge13_Node000013_Node000014" class="edge">
<title>Node13&#45;&gt;Node14</title>
<g id="a_edge13_Node000013_Node000014"><a xlink:title=" ">
<path fill="none" stroke="#63b8ff" d="M670.87,-206.43C690.22,-230.12 738.33,-288.72 743,-291.62 746.2,-293.61 749.61,-295.38 753.14,-296.96"/>
<polygon fill="#63b8ff" stroke="#63b8ff" points="751.73,-300.55 762.32,-300.9 754.26,-294.02 751.73,-300.55"/>
</a>
</g>
</g>
<!-- Node22 -->
<g id="Node000022" class="node">
<title>Node22</title>
<g id="a_Node000022"><a xlink:href="../../df/d13/namespace_im_gui.html#a66416151e58c34cd02973976de66e0e9" target="_top" xlink:title=" ">
<polygon fill="white" stroke="#666666" points="891,-282.25 743,-282.25 743,-263 891,-263 891,-282.25"/>
<text text-anchor="middle" x="817" y="-268.75" font-family="Helvetica,sans-Serif" font-size="10.00">ImGui::CalcWrapWidthForPos</text>
</a>
</g>
</g>
<!-- Node13&#45;&gt;Node22 -->
<g id="edge14_Node000013_Node000022" class="edge">
<title>Node13&#45;&gt;Node22</title>
<g id="a_edge14_Node000013_Node000022"><a xlink:title=" ">
<path fill="none" stroke="#63b8ff" d="M675.86,-206.57C691.22,-217.96 717.87,-236.59 743,-248.62 751.22,-252.56 760.24,-256.1 769.06,-259.18"/>
<polygon fill="#63b8ff" stroke="#63b8ff" points="767.67,-262.74 778.26,-262.58 769.88,-256.1 767.67,-262.74"/>
</a>
</g>
</g>
<!-- Node20 -->
<g id="Node000020" class="node">
<title>Node20</title>
<g id="a_Node000020"><a xlink:href="../../d1/da2/imgui__internal_8h.html#a7667efd95147d0422f140917c71a9226" target="_top" xlink:title=" ">
<polygon fill="white" stroke="#666666" points="1000.75,-244.25 954.75,-244.25 954.75,-225 1000.75,-225 1000.75,-244.25"/>
<text text-anchor="middle" x="977.75" y="-230.75" font-family="Helvetica,sans-Serif" font-size="10.00">ImMax</text>
</a>
</g>
</g>
<!-- Node13&#45;&gt;Node20 -->
<g id="edge18_Node000013_Node000020" class="edge">
<title>Node13&#45;&gt;Node20</title>
<g id="a_edge18_Node000013_Node000020"><a xlink:title=" ">
<path fill="none" stroke="#63b8ff" d="M700.14,-206.7C713.56,-210 728.88,-213.39 743,-215.62 813.84,-226.84 897.88,-231.62 943.4,-233.51"/>
<polygon fill="#63b8ff" stroke="#63b8ff" points="943.25,-237.04 953.38,-233.94 943.52,-230.05 943.25,-237.04"/>
</a>
</g>
</g>
<!-- Node23 -->
<g id="Node000023" class="node">
<title>Node23</title>
<g id="a_Node000023"><a xlink:href="../../df/d13/namespace_im_gui.html#aaba5637199d31ea23d4d143b30a44aff" target="_top" xlink:title=" ">
<polygon fill="white" stroke="#666666" points="881.62,-206.25 752.38,-206.25 752.38,-187 881.62,-187 881.62,-206.25"/>
<text text-anchor="middle" x="817" y="-192.75" font-family="Helvetica,sans-Serif" font-size="10.00">ImGui::GetTextLineHeight</text>
</a>
</g>
</g>
<!-- Node13&#45;&gt;Node23 -->
<g id="edge17_Node000013_Node000023" class="edge">
<title>Node13&#45;&gt;Node23</title>
<g id="a_edge17_Node000013_Node000023"><a xlink:title=" ">
<path fill="none" stroke="#63b8ff" d="M701.51,-196.62C713.61,-196.62 727.39,-196.62 741.1,-196.62"/>
<polygon fill="#63b8ff" stroke="#63b8ff" points="741.05,-200.13 751.05,-196.62 741.05,-193.13 741.05,-200.13"/>
</a>
</g>
</g>
<!-- Node24 -->
<g id="Node000024" class="node">
<title>Node24</title>
<g id="a_Node000024"><a xlink:href="../../df/d13/namespace_im_gui.html#a8674467ae34d04bc99df1f7f98f47407" target="_top" xlink:title=" ">
<polygon fill="#fff0f0" stroke="red" points="1028.5,-112.25 927,-112.25 927,-93 1028.5,-93 1028.5,-112.25"/>
<text text-anchor="middle" x="977.75" y="-98.75" font-family="Helvetica,sans-Serif" font-size="10.00">ImGui::IsClippedEx</text>
</a>
</g>
</g>
<!-- Node13&#45;&gt;Node24 -->
<g id="edge19_Node000013_Node000024" class="edge">
<title>Node13&#45;&gt;Node24</title>
<g id="a_edge19_Node000013_Node000024"><a xlink:title=" ">
<path fill="none" stroke="#63b8ff" d="M673.6,-186.71C688.14,-173.86 715.48,-151.79 743,-140.62 798.84,-117.96 867.37,-108.79 915.75,-105.09"/>
<polygon fill="#63b8ff" stroke="#63b8ff" points="915.94,-108.52 925.67,-104.33 915.45,-101.54 915.94,-108.52"/>
</a>
</g>
</g>
<!-- Node26 -->
<g id="Node000026" class="node">
<title>Node26</title>
<g id="a_Node000026"><a xlink:href="../../df/d13/namespace_im_gui.html#a03440eafb6ce299fcb92b2d2cda147a5" target="_top" xlink:title=" ">
<polygon fill="#fff0f0" stroke="red" points="859.5,-93.25 774.5,-93.25 774.5,-74 859.5,-74 859.5,-93.25"/>
<text text-anchor="middle" x="817" y="-79.75" font-family="Helvetica,sans-Serif" font-size="10.00">ImGui::ItemAdd</text>
</a>
</g>
</g>
<!-- Node13&#45;&gt;Node26 -->
<g id="edge20_Node000013_Node000026" class="edge">
<title>Node13&#45;&gt;Node26</title>
<g id="a_edge20_Node000013_Node000026"><a xlink:title=" ">
<path fill="none" stroke="#63b8ff" d="M669.31,-186.52C681.51,-168.18 709.73,-129.31 743,-107.62 749.38,-103.47 756.55,-99.97 763.83,-97.04"/>
<polygon fill="#63b8ff" stroke="#63b8ff" points="764.94,-100 773.13,-93.28 762.54,-93.42 764.94,-100"/>
</a>
</g>
</g>
<!-- Node69 -->
<g id="Node000069" class="node">
<title>Node69</title>
<g id="a_Node000069"><a xlink:href="../../df/d13/namespace_im_gui.html#aeeb1ec6ae6548173dbf813e7df538c48" target="_top" xlink:title=" ">
<polygon fill="#fff0f0" stroke="red" points="860.62,-169.25 773.38,-169.25 773.38,-150 860.62,-150 860.62,-169.25"/>
<text text-anchor="middle" x="817" y="-155.75" font-family="Helvetica,sans-Serif" font-size="10.00">ImGui::ItemSize</text>
</a>
</g>
</g>
<!-- Node13&#45;&gt;Node69 -->
<g id="edge22_Node000013_Node000069" class="edge">
<title>Node13&#45;&gt;Node69</title>
<g id="a_edge22_Node000013_Node000069"><a xlink:title=" ">
<path fill="none" stroke="#63b8ff" d="M701.51,-187.29C720.29,-182.75 743.14,-177.23 763.47,-172.32"/>
<polygon fill="#63b8ff" stroke="#63b8ff" points="764.25,-175.49 773.15,-169.74 762.6,-168.69 764.25,-175.49"/>
</a>
</g>
</g>
<!-- Node71 -->
<g id="Node000071" class="node">
<title>Node71</title>
<g id="a_Node000071"><a xlink:href="../../df/d13/namespace_im_gui.html#a9971ce57f2a288ac3a12df886c5550d1" target="_top" xlink:title=" ">
<polygon fill="#fff0f0" stroke="red" points="866.25,-56.25 767.75,-56.25 767.75,-37 866.25,-37 866.25,-56.25"/>
<text text-anchor="middle" x="817" y="-42.75" font-family="Helvetica,sans-Serif" font-size="10.00">ImGui::RenderText</text>
</a>
</g>
</g>
<!-- Node13&#45;&gt;Node71 -->
<g id="edge24_Node000013_Node000071" class="edge">
<title>Node13&#45;&gt;Node71</title>
<g id="a_edge24_Node000013_Node000071"><a xlink:title=" ">
<path fill="none" stroke="#63b8ff" d="M665.99,-186.51C674.21,-161.6 698.92,-97 743,-64.62 747.36,-61.42 752.22,-58.79 757.31,-56.62"/>
<polygon fill="#63b8ff" stroke="#63b8ff" points="758.09,-59.69 766.29,-52.99 755.7,-53.11 758.09,-59.69"/>
</a>
</g>
</g>
<!-- Node82 -->
<g id="Node000082" class="node">
<title>Node82</title>
<g id="a_Node000082"><a xlink:href="../../df/d13/namespace_im_gui.html#aa483b40f6899e1b289b4bf6c2673d1d2" target="_top" xlink:title=" ">
<polygon fill="#fff0f0" stroke="red" points="885.38,-19.25 748.62,-19.25 748.62,0 885.38,0 885.38,-19.25"/>
<text text-anchor="middle" x="817" y="-5.75" font-family="Helvetica,sans-Serif" font-size="10.00">ImGui::RenderTextWrapped</text>
</a>
</g>
</g>
<!-- Node13&#45;&gt;Node82 -->
<g id="edge25_Node000013_Node000082" class="edge">
<title>Node13&#45;&gt;Node82</title>
<g id="a_edge25_Node000013_Node000082"><a xlink:title=" ">
<path fill="none" stroke="#63b8ff" d="M664.51,-186.81C669.91,-157.67 689.94,-70.97 743,-27.62 744.08,-26.74 745.2,-25.9 746.35,-25.1"/>
<polygon fill="#63b8ff" stroke="#63b8ff" points="747.78,-27.74 754.71,-19.73 744.29,-21.67 747.78,-27.74"/>
</a>
</g>
</g>
<!-- Node22&#45;&gt;Node20 -->
<g id="edge15_Node000022_Node000020" class="edge">
<title>Node22&#45;&gt;Node20</title>
<g id="a_edge15_Node000022_Node000020"><a xlink:title=" ">
<path fill="none" stroke="#63b8ff" d="M860.13,-262.54C886.41,-256.25 919.75,-248.27 944.04,-242.45"/>
<polygon fill="#63b8ff" stroke="#63b8ff" points="944.6,-245.68 953.51,-239.95 942.97,-238.87 944.6,-245.68"/>
</a>
</g>
</g>
<!-- Node26&#45;&gt;Node24 -->
<g id="edge21_Node000026_Node000024" class="edge">
<title>Node26&#45;&gt;Node24</title>
<g id="a_edge21_Node000026_Node000024"><a xlink:title=" ">
<path fill="none" stroke="#63b8ff" d="M859.71,-88.62C876.83,-90.67 897,-93.08 915.73,-95.32"/>
<polygon fill="#63b8ff" stroke="#63b8ff" points="915.21,-98.9 925.56,-96.62 916.04,-91.95 915.21,-98.9"/>
</a>
</g>
</g>
<!-- Node69&#45;&gt;Node20 -->
<g id="edge23_Node000069_Node000020" class="edge">
<title>Node69&#45;&gt;Node20</title>
<g id="a_edge23_Node000069_Node000020"><a xlink:title=" ">
<path fill="none" stroke="#63b8ff" d="M860.9,-167.59C870.99,-170.17 881.56,-173.47 891,-177.62 915.03,-188.19 939.7,-205.38 956.37,-218.13"/>
<polygon fill="#63b8ff" stroke="#63b8ff" points="953.72,-221.28 963.76,-224.68 958.03,-215.76 953.72,-221.28"/>
</a>
</g>
</g>
</g>
</svg>

<g id="navigator" transform="translate(0 0)" fill="#404254">
  <rect fill="#f2f5e9" fill-opacity="0.5" stroke="#606060" stroke-width=".5" x="0" y="0" width="60" height="60"/>
  <use id="zoomplus" xlink:href="#zoomPlus" x="17" y="9" onmousedown="handleZoom(evt,'in')"/>
  <use id="zoomminus" xlink:href="#zoomMin" x="42" y="9" onmousedown="handleZoom(evt,'out')"/>
  <use id="reset" xlink:href="#resetDef" x="30" y="36" onmousedown="handleReset()"/>
   <use id="arrowup" xlink:href="#arrowUp" x="0" y="0" onmousedown="handlePan(0,-1)"/>
  <use id="arrowright" xlink:href="#arrowRight" x="0" y="0" onmousedown="handlePan(1,0)"/>
  <use id="arrowdown" xlink:href="#arrowDown" x="0" y="0" onmousedown="handlePan(0,1)"/>
  <use id="arrowleft" xlink:href="#arrowLeft" x="0" y="0" onmousedown="handlePan(-1,0)"/>
</g>
<svg viewBox="0 0 15 15" width="100%" height="30px" preserveAspectRatio="xMaxYMin meet">
 <g id="arrow_out" transform="scale(0.3 0.3)">
  <a xlink:href="class_slic3r_1_1_g_u_i_1_1_im_gui_wrapper_a136b4e755a4cecd7577add8f6b558704_cgraph_org.svg" target="_base">
   <rect id="button" ry="5" rx="5" y="6" x="6" height="38" width="38"
        fill="#f2f5e9" fill-opacity="0.5" stroke="#606060" stroke-width="1.0"/>
   <path id="arrow"
     d="M 11.500037,31.436501 C 11.940474,20.09759 22.043105,11.32322 32.158766,21.979434 L 37.068811,17.246167 C 37.068811,17.246167 37.088388,32 37.088388,32 L 22.160133,31.978069 C 22.160133,31.978069 26.997745,27.140456 26.997745,27.140456 C 18.528582,18.264221 13.291696,25.230495 11.500037,31.436501 z"
     style="fill:#404040;"/>
  </a>
 </g>
</svg>

<style type='text/css'>
<![CDATA[
[data-mouse-over-selected='false'] { opacity: 0.7; }
[data-mouse-over-selected='true']  { opacity: 1.0; }
]]>
</style>
<script type="application/ecmascript"><![CDATA[
document.addEventListener('DOMContentLoaded', (event) => {
  highlightEdges();
  highlightAdjacentNodes();
});
]]></script>
</svg>
