<?xml version="1.0" encoding="UTF-8" standalone="no"?>
<!DOCTYPE svg PUBLIC "-//W3C//DTD SVG 1.1//EN"
 "http://www.w3.org/Graphics/SVG/1.1/DTD/svg11.dtd">
<!-- Generated by graphviz version 8.0.5 (20230430.1635)
 -->
<!-- Title: Eigen::internal::least_square_conjugate_gradient Pages: 1 -->
<svg width="446pt" height="76pt"
 viewBox="0.00 0.00 446.00 75.88" xmlns="http://www.w3.org/2000/svg" xmlns:xlink="http://www.w3.org/1999/xlink">
<g id="graph0" class="graph" transform="scale(1 1) rotate(0) translate(4 71.88)">
<title>Eigen::internal::least_square_conjugate_gradient</title>
<!-- Node1 -->
<g id="Node000001" class="node">
<title>Node1</title>
<g id="a_Node000001"><a xlink:title=" ">
<polygon fill="#999999" stroke="#666666" points="137.5,-45.88 0,-45.88 0,-15.37 137.5,-15.37 137.5,-45.88"/>
<text text-anchor="start" x="8" y="-32.38" font-family="Helvetica,sans-Serif" font-size="10.00">Eigen::internal::least</text>
<text text-anchor="middle" x="68.75" y="-21.12" font-family="Helvetica,sans-Serif" font-size="10.00">_square_conjugate_gradient</text>
</a>
</g>
</g>
<!-- Node2 -->
<g id="Node000002" class="node">
<title>Node2</title>
<g id="a_Node000002"><a xlink:href="../../da/d8d/class_eigen_1_1_plain_object_base.html#aba7a925ce36c08ba2a08c90086f34718" target="_top" xlink:title=" ">
<polygon fill="white" stroke="#666666" points="293,-67.88 173.5,-67.88 173.5,-37.38 293,-37.38 293,-67.88"/>
<text text-anchor="start" x="181.5" y="-54.38" font-family="Helvetica,sans-Serif" font-size="10.00">Eigen::PlainObjectBase</text>
<text text-anchor="middle" x="233.25" y="-43.12" font-family="Helvetica,sans-Serif" font-size="10.00">::rows</text>
</a>
</g>
</g>
<!-- Node1&#45;&gt;Node2 -->
<g id="edge1_Node000001_Node000002" class="edge">
<title>Node1&#45;&gt;Node2</title>
<g id="a_edge1_Node000001_Node000002"><a xlink:title=" ">
<path fill="none" stroke="#63b8ff" d="M137.72,-39.83C145.89,-40.93 154.23,-42.06 162.42,-43.17"/>
<polygon fill="#63b8ff" stroke="#63b8ff" points="161.69,-46.74 172.07,-44.61 162.63,-39.8 161.69,-46.74"/>
</a>
</g>
</g>
<!-- Node4 -->
<g id="Node000004" class="node">
<title>Node4</title>
<g id="a_Node000004"><a xlink:href="../../d4/df0/_array_cwise_unary_ops_8h.html#a656b9217a2fcb6de59dc8d1eb3079cc7" target="_top" xlink:title=" ">
<polygon fill="white" stroke="#666666" points="249.5,-19.25 217,-19.25 217,0 249.5,0 249.5,-19.25"/>
<text text-anchor="middle" x="233.25" y="-5.75" font-family="Helvetica,sans-Serif" font-size="10.00">sqrt</text>
</a>
</g>
</g>
<!-- Node1&#45;&gt;Node4 -->
<g id="edge3_Node000001_Node000004" class="edge">
<title>Node1&#45;&gt;Node4</title>
<g id="a_edge3_Node000001_Node000004"><a xlink:title=" ">
<path fill="none" stroke="#63b8ff" d="M137.72,-21.84C161.81,-18.73 187.49,-15.41 206,-13.02"/>
<polygon fill="#63b8ff" stroke="#63b8ff" points="206.31,-16.38 215.78,-11.62 205.41,-9.43 206.31,-16.38"/>
</a>
</g>
</g>
<!-- Node3 -->
<g id="Node000003" class="node">
<title>Node3</title>
<g id="a_Node000003"><a xlink:href="../../d5/d91/class_eigen_1_1_dense_storage.html#a14b68f709f5fb46eeebb203266cc29b2" target="_top" xlink:title=" ">
<polygon fill="white" stroke="#666666" points="438,-67.88 329,-67.88 329,-37.38 438,-37.38 438,-67.88"/>
<text text-anchor="start" x="337" y="-54.38" font-family="Helvetica,sans-Serif" font-size="10.00">Eigen::DenseStorage</text>
<text text-anchor="middle" x="383.5" y="-43.12" font-family="Helvetica,sans-Serif" font-size="10.00">::rows</text>
</a>
</g>
</g>
<!-- Node2&#45;&gt;Node3 -->
<g id="edge2_Node000002_Node000003" class="edge">
<title>Node2&#45;&gt;Node3</title>
<g id="a_edge2_Node000002_Node000003"><a xlink:title=" ">
<path fill="none" stroke="#63b8ff" d="M293.27,-52.62C301.47,-52.62 309.92,-52.62 318.21,-52.62"/>
<polygon fill="#63b8ff" stroke="#63b8ff" points="317.97,-56.13 327.97,-52.62 317.97,-49.13 317.97,-56.13"/>
</a>
</g>
</g>
</g>
</svg>
