<?xml version="1.0" encoding="UTF-8" standalone="no"?>
<!DOCTYPE svg PUBLIC "-//W3C//DTD SVG 1.1//EN"
 "http://www.w3.org/Graphics/SVG/1.1/DTD/svg11.dtd">
<!-- Generated by graphviz version 8.0.5 (20230430.1635)
 -->
<!-- Title: Slic3r::client::expr::set_i_lite Pages: 1 -->
<!--zoomable 211 -->

<svg id="main" version="1.1" xmlns="http://www.w3.org/2000/svg" xmlns:xlink="http://www.w3.org/1999/xlink" xml:space="preserve" onload="init(evt)">
<style type="text/css"><![CDATA[
.node, .edge {opacity: 0.7;}
.node.selected, .edge.selected {opacity: 1;}
.edge:hover path { stroke: red; }
.edge:hover polygon { stroke: red; fill: red; }
]]></style>

<defs>
  <circle id="rim" cx="0" cy="0" r="7"/>
  <circle id="rim2" cx="0" cy="0" r="3.5"/>
  <g id="zoomPlus">
    <use xlink:href="#rim" fill="#404040"><set attributeName="fill" to="#808080" begin="zoomplus.mouseover" end="zoomplus.mouseout"/></use>
    <path d="M-4,0h8M0,-4v8" fill="none" stroke="white" stroke-width="1.5" pointer-events="none"/>
  </g>
  <g id="zoomMin">
    <use xlink:href="#rim" fill="#404040"><set attributeName="fill" to="#808080" begin="zoomminus.mouseover" end="zoomminus.mouseout"/></use>
    <path d="M-4,0h8" fill="none" stroke="white" stroke-width="1.5" pointer-events="none"/>
  </g>
  <g id="arrowUp" transform="translate(30 24)">
    <use xlink:href="#rim"/>
    <path pointer-events="none" fill="none" stroke="white" stroke-width="1.5" d="M0,-3.0v7 M-2.5,-0.5L0,-3.0L2.5,-0.5"/>
  </g>
  <g id="arrowRight" transform="rotate(90) translate(36 -43)">
    <use xlink:href="#rim"/>
    <path pointer-events="none" fill="none" stroke="white" stroke-width="1.5" d="M0,-3.0v7 M-2.5,-0.5L0,-3.0L2.5,-0.5"/>
  </g>
  <g id="arrowDown" transform="rotate(180) translate(-30 -48)">
    <use xlink:href="#rim"/>
    <path pointer-events="none" fill="none" stroke="white" stroke-width="1.5" d="M0,-3.0v7 M-2.5,-0.5L0,-3.0L2.5,-0.5"/>
  </g>
  <g id="arrowLeft" transform="rotate(270) translate(-36 17)">
    <use xlink:href="#rim"/>
    <path pointer-events="none" fill="none" stroke="white" stroke-width="1.5" d="M0,-3.0v7 M-2.5,-0.5L0,-3.0L2.5,-0.5"/>
  </g>
  <g id="resetDef">
    <use xlink:href="#rim2" fill="#404040"><set attributeName="fill" to="#808080" begin="reset.mouseover" end="reset.mouseout"/></use>
  </g>
</defs>
<script type="application/ecmascript">
var viewWidth = 737;
var viewHeight = 211;
var sectionId = 'dynsection-92';
</script>
<script type="application/ecmascript" xlink:href="../../svg.min.js"/>
<svg id="graph" class="graph">
<g id="viewport">
<title>Slic3r::client::expr::set_i_lite</title>
<!-- Node1 -->
<g id="Node000001" class="node">
<title>Node1</title>
<g id="a_Node000001"><a xlink:title=" ">
<polygon fill="#999999" stroke="#666666" points="728.75,-149.5 634,-149.5 634,-119 728.75,-119 728.75,-149.5"/>
<text text-anchor="start" x="642" y="-136" font-family="Helvetica,sans-Serif" font-size="10.00">Slic3r::client::expr</text>
<text text-anchor="middle" x="681.38" y="-124.75" font-family="Helvetica,sans-Serif" font-size="10.00">::set_i_lite</text>
</a>
</g>
</g>
<!-- Node2 -->
<g id="Node000002" class="node">
<title>Node2</title>
<g id="a_Node000002"><a xlink:href="../../df/dd8/struct_slic3r_1_1client_1_1expr.html#a175f921676421db7f6e16c3208413bf9" target="_top" xlink:title=" ">
<polygon fill="white" stroke="#666666" points="453.75,-198.5 354.5,-198.5 354.5,-168 453.75,-168 453.75,-198.5"/>
<text text-anchor="start" x="362.5" y="-185" font-family="Helvetica,sans-Serif" font-size="10.00">Slic3r::client::expr</text>
<text text-anchor="middle" x="404.12" y="-173.75" font-family="Helvetica,sans-Serif" font-size="10.00">::function_2params</text>
</a>
</g>
</g>
<!-- Node1&#45;&gt;Node2 -->
<g id="edge1_Node000001_Node000002" class="edge">
<title>Node1&#45;&gt;Node2</title>
<g id="a_edge1_Node000001_Node000002"><a xlink:title=" ">
<path fill="none" stroke="#63b8ff" d="M623.16,-152.15C614.78,-154.41 606.2,-156.53 598,-158.25 549.58,-168.38 493.42,-175.1 454.23,-179"/>
<polygon fill="#63b8ff" stroke="#63b8ff" points="623.95,-155.28 632.65,-149.22 622.07,-148.54 623.95,-155.28"/>
</a>
</g>
</g>
<!-- Node6 -->
<g id="Node000006" class="node">
<title>Node6</title>
<g id="a_Node000006"><a xlink:href="../../df/dd8/struct_slic3r_1_1client_1_1expr.html#ad3a9f4ebdfe4ca55fde7338f7b8366d3" target="_top" xlink:title=" ">
<polygon fill="white" stroke="#666666" points="598,-149.5 503.25,-149.5 503.25,-119 598,-119 598,-149.5"/>
<text text-anchor="start" x="511.25" y="-136" font-family="Helvetica,sans-Serif" font-size="10.00">Slic3r::client::expr</text>
<text text-anchor="middle" x="550.62" y="-124.75" font-family="Helvetica,sans-Serif" font-size="10.00">::random</text>
</a>
</g>
</g>
<!-- Node1&#45;&gt;Node6 -->
<g id="edge6_Node000001_Node000006" class="edge">
<title>Node1&#45;&gt;Node6</title>
<g id="a_edge6_Node000001_Node000006"><a xlink:title=" ">
<path fill="none" stroke="#63b8ff" d="M622.56,-134.25C614.41,-134.25 606.12,-134.25 598.22,-134.25"/>
<polygon fill="#63b8ff" stroke="#63b8ff" points="622.53,-137.75 632.53,-134.25 622.53,-130.75 622.53,-137.75"/>
</a>
</g>
</g>
<!-- Node8 -->
<g id="Node000008" class="node">
<title>Node8</title>
<g id="a_Node000008"><a xlink:href="../../df/dd8/struct_slic3r_1_1client_1_1expr.html#adfdb968d79ee1b88675e1ab63e4d0ad4" target="_top" xlink:title=" ">
<polygon fill="white" stroke="#666666" points="598,-76.5 503.25,-76.5 503.25,-46 598,-46 598,-76.5"/>
<text text-anchor="start" x="511.25" y="-63" font-family="Helvetica,sans-Serif" font-size="10.00">Slic3r::client::expr</text>
<text text-anchor="middle" x="550.62" y="-51.75" font-family="Helvetica,sans-Serif" font-size="10.00">::set_i</text>
</a>
</g>
</g>
<!-- Node1&#45;&gt;Node8 -->
<g id="edge9_Node000001_Node000008" class="edge">
<title>Node1&#45;&gt;Node8</title>
<g id="a_edge9_Node000001_Node000008"><a xlink:title=" ">
<path fill="none" stroke="#63b8ff" d="M643.42,-113.3C622.95,-101.69 597.94,-87.51 579.2,-76.88"/>
<polygon fill="#63b8ff" stroke="#63b8ff" points="641.33,-116.7 651.75,-118.59 644.78,-110.61 641.33,-116.7"/>
</a>
</g>
</g>
<!-- Node3 -->
<g id="Node000003" class="node">
<title>Node3</title>
<g id="a_Node000003"><a xlink:href="../../df/dd8/struct_slic3r_1_1client_1_1expr.html#aabe1b3c8c9ae37d9e892297ebe1c6c4f" target="_top" xlink:title=" ">
<polygon fill="white" stroke="#666666" points="302.75,-202.88 183.25,-202.88 183.25,-183.62 302.75,-183.62 302.75,-202.88"/>
<text text-anchor="middle" x="243" y="-189.38" font-family="Helvetica,sans-Serif" font-size="10.00">Slic3r::client::expr::max</text>
</a>
</g>
</g>
<!-- Node2&#45;&gt;Node3 -->
<g id="edge2_Node000002_Node000003" class="edge">
<title>Node2&#45;&gt;Node3</title>
<g id="a_edge2_Node000002_Node000003"><a xlink:title=" ">
<path fill="none" stroke="#63b8ff" d="M343.29,-187.01C330.19,-187.83 316.32,-188.71 303.24,-189.53"/>
<polygon fill="#63b8ff" stroke="#63b8ff" points="343.32,-190.45 353.08,-186.33 342.88,-183.47 343.32,-190.45"/>
</a>
</g>
</g>
<!-- Node5 -->
<g id="Node000005" class="node">
<title>Node5</title>
<g id="a_Node000005"><a xlink:href="../../df/dd8/struct_slic3r_1_1client_1_1expr.html#af095757074401e5ec6a9668ed1f729d4" target="_top" xlink:title=" ">
<polygon fill="white" stroke="#666666" points="301.25,-165.88 184.75,-165.88 184.75,-146.62 301.25,-146.62 301.25,-165.88"/>
<text text-anchor="middle" x="243" y="-152.38" font-family="Helvetica,sans-Serif" font-size="10.00">Slic3r::client::expr::min</text>
</a>
</g>
</g>
<!-- Node2&#45;&gt;Node5 -->
<g id="edge4_Node000002_Node000005" class="edge">
<title>Node2&#45;&gt;Node5</title>
<g id="a_edge4_Node000002_Node000005"><a xlink:title=" ">
<path fill="none" stroke="#63b8ff" d="M343.32,-173.1C329.64,-170.78 315.12,-168.32 301.53,-166.01"/>
<polygon fill="#63b8ff" stroke="#63b8ff" points="342.64,-176.71 353.08,-174.93 343.81,-169.81 342.64,-176.71"/>
</a>
</g>
</g>
<!-- Node4 -->
<g id="Node000004" class="node">
<title>Node4</title>
<g id="a_Node000004"><a xlink:href="../../db/da4/struct_slic3r_1_1client_1_1macro__processor.html#a2ed5352dbc4723eae00ceaf09adb501f" target="_top" xlink:title=" ">
<polygon fill="white" stroke="#666666" points="145,-133.5 0,-133.5 0,-103 145,-103 145,-133.5"/>
<text text-anchor="start" x="8" y="-120" font-family="Helvetica,sans-Serif" font-size="10.00">Slic3r::client::macro</text>
<text text-anchor="middle" x="72.5" y="-108.75" font-family="Helvetica,sans-Serif" font-size="10.00">_processor::macro_processor</text>
</a>
</g>
</g>
<!-- Node3&#45;&gt;Node4 -->
<g id="edge3_Node000003_Node000004" class="edge">
<title>Node3&#45;&gt;Node4</title>
<g id="a_edge3_Node000003_Node000004"><a xlink:title=" ">
<path fill="none" stroke="#63b8ff" d="M193.18,-179.8C189.02,-178.37 184.91,-176.85 181,-175.25 152.05,-163.44 120.64,-146.24 99.3,-133.82"/>
<polygon fill="#63b8ff" stroke="#63b8ff" points="191.93,-183.4 202.52,-183.17 194.1,-176.75 191.93,-183.4"/>
</a>
</g>
</g>
<!-- Node5&#45;&gt;Node4 -->
<g id="edge5_Node000005_Node000004" class="edge">
<title>Node5&#45;&gt;Node4</title>
<g id="a_edge5_Node000005_Node000004"><a xlink:title=" ">
<path fill="none" stroke="#63b8ff" d="M186.89,-143.82C172.95,-140.68 157.79,-137.26 143.22,-133.97"/>
<polygon fill="#63b8ff" stroke="#63b8ff" points="185.76,-147.38 196.29,-146.17 187.3,-140.55 185.76,-147.38"/>
</a>
</g>
</g>
<!-- Node7 -->
<g id="Node000007" class="node">
<title>Node7</title>
<g id="a_Node000007"><a xlink:href="../../dd/dc0/struct_slic3r_1_1client_1_1_my_context.html#a5a1d2768188c89995e091804ba1c47c6" target="_top" xlink:title=" ">
<polygon fill="white" stroke="#666666" points="466.12,-149.5 342.12,-149.5 342.12,-119 466.12,-119 466.12,-149.5"/>
<text text-anchor="start" x="350.12" y="-136" font-family="Helvetica,sans-Serif" font-size="10.00">Slic3r::client::MyContext</text>
<text text-anchor="middle" x="404.12" y="-124.75" font-family="Helvetica,sans-Serif" font-size="10.00">::random</text>
</a>
</g>
</g>
<!-- Node6&#45;&gt;Node7 -->
<g id="edge7_Node000006_Node000007" class="edge">
<title>Node6&#45;&gt;Node7</title>
<g id="a_edge7_Node000006_Node000007"><a xlink:title=" ">
<path fill="none" stroke="#63b8ff" d="M492.23,-134.25C483.8,-134.25 475.09,-134.25 466.58,-134.25"/>
<polygon fill="#63b8ff" stroke="#63b8ff" points="492.11,-137.75 502.11,-134.25 492.11,-130.75 492.11,-137.75"/>
</a>
</g>
</g>
<!-- Node7&#45;&gt;Node4 -->
<g id="edge8_Node000007_Node000004" class="edge">
<title>Node7&#45;&gt;Node4</title>
<g id="a_edge8_Node000007_Node000004"><a xlink:title=" ">
<path fill="none" stroke="#63b8ff" d="M331.16,-130.76C276.05,-128.08 200.37,-124.41 145.3,-121.74"/>
<polygon fill="#63b8ff" stroke="#63b8ff" points="330.74,-134.29 340.9,-131.28 331.08,-127.3 330.74,-134.29"/>
</a>
</g>
</g>
<!-- Node9 -->
<g id="Node000009" class="node">
<title>Node9</title>
<g id="a_Node000009"><a xlink:href="../../dd/dc0/struct_slic3r_1_1client_1_1_my_context.html#a20d08e782f49cd76db4d5394efb9f5e1" target="_top" xlink:title=" ">
<polygon fill="white" stroke="#666666" points="466.5,-100.5 341.75,-100.5 341.75,-70 466.5,-70 466.5,-100.5"/>
<text text-anchor="start" x="349.75" y="-87" font-family="Helvetica,sans-Serif" font-size="10.00">Slic3r::client::MyContext</text>
<text text-anchor="middle" x="404.12" y="-75.75" font-family="Helvetica,sans-Serif" font-size="10.00">::scalar_variable_to_expr</text>
</a>
</g>
</g>
<!-- Node8&#45;&gt;Node9 -->
<g id="edge10_Node000008_Node000009" class="edge">
<title>Node8&#45;&gt;Node9</title>
<g id="a_edge10_Node000008_Node000009"><a xlink:title=" ">
<path fill="none" stroke="#63b8ff" d="M492.31,-70.77C483.94,-72.16 475.3,-73.6 466.84,-75"/>
<polygon fill="#63b8ff" stroke="#63b8ff" points="492.82,-74.07 502.11,-68.98 491.67,-67.16 492.82,-74.07"/>
</a>
</g>
</g>
<!-- Node11 -->
<g id="Node000011" class="node">
<title>Node11</title>
<g id="a_Node000011"><a xlink:href="../../dd/dc0/struct_slic3r_1_1client_1_1_my_context.html#aa17299d63f9a3904abd9b8174c5da044" target="_top" xlink:title=" ">
<polygon fill="white" stroke="#666666" points="467.25,-51.5 341,-51.5 341,-21 467.25,-21 467.25,-51.5"/>
<text text-anchor="start" x="349" y="-38" font-family="Helvetica,sans-Serif" font-size="10.00">Slic3r::client::MyContext</text>
<text text-anchor="middle" x="404.12" y="-26.75" font-family="Helvetica,sans-Serif" font-size="10.00">::vector_element_to_expr</text>
</a>
</g>
</g>
<!-- Node8&#45;&gt;Node11 -->
<g id="edge13_Node000008_Node000011" class="edge">
<title>Node8&#45;&gt;Node11</title>
<g id="a_edge13_Node000008_Node000011"><a xlink:title=" ">
<path fill="none" stroke="#63b8ff" d="M492.55,-51.37C484.36,-49.96 475.91,-48.5 467.63,-47.06"/>
<polygon fill="#63b8ff" stroke="#63b8ff" points="491.66,-54.95 502.11,-53.2 492.85,-48.05 491.66,-54.95"/>
</a>
</g>
</g>
<!-- Node12 -->
<g id="Node000012" class="node">
<title>Node12</title>
<g id="a_Node000012"><a xlink:href="../../dd/dc0/struct_slic3r_1_1client_1_1_my_context.html#af6d93b0518ef9dd85a3b133627563c37" target="_top" xlink:title=" ">
<polygon fill="white" stroke="#666666" points="305,-30.5 181,-30.5 181,0 305,0 305,-30.5"/>
<text text-anchor="start" x="189" y="-17" font-family="Helvetica,sans-Serif" font-size="10.00">Slic3r::client::MyContext</text>
<text text-anchor="middle" x="243" y="-5.75" font-family="Helvetica,sans-Serif" font-size="10.00">::vector_size</text>
</a>
</g>
</g>
<!-- Node8&#45;&gt;Node12 -->
<g id="edge15_Node000008_Node000012" class="edge">
<title>Node8&#45;&gt;Node12</title>
<g id="a_edge15_Node000008_Node000012"><a xlink:title=" ">
<path fill="none" stroke="#63b8ff" d="M521.53,-39.38C506.36,-28.96 486.78,-17.62 467.25,-12.25 413.99,2.39 350.85,-0.2 305.33,-5.37"/>
<polygon fill="#63b8ff" stroke="#63b8ff" points="519.2,-42.73 529.37,-45.69 523.26,-37.03 519.2,-42.73"/>
</a>
</g>
</g>
<!-- Node10 -->
<g id="Node000010" class="node">
<title>Node10</title>
<g id="a_Node000010"><a xlink:href="../../dd/dc0/struct_slic3r_1_1client_1_1_my_context.html#aba86748cf33195561cd7f67e57d6bb46" target="_top" xlink:title=" ">
<polygon fill="white" stroke="#666666" points="305,-90.5 181,-90.5 181,-60 305,-60 305,-90.5"/>
<text text-anchor="start" x="189" y="-77" font-family="Helvetica,sans-Serif" font-size="10.00">Slic3r::client::MyContext</text>
<text text-anchor="middle" x="243" y="-65.75" font-family="Helvetica,sans-Serif" font-size="10.00">::variable_value</text>
</a>
</g>
</g>
<!-- Node9&#45;&gt;Node10 -->
<g id="edge11_Node000009_Node000010" class="edge">
<title>Node9&#45;&gt;Node10</title>
<g id="a_edge11_Node000009_Node000010"><a xlink:title=" ">
<path fill="none" stroke="#63b8ff" d="M330.89,-80.71C322.36,-80.17 313.72,-79.63 305.36,-79.11"/>
<polygon fill="#63b8ff" stroke="#63b8ff" points="330.4,-84.25 340.6,-81.38 330.84,-77.26 330.4,-84.25"/>
</a>
</g>
</g>
<!-- Node10&#45;&gt;Node4 -->
<g id="edge12_Node000010_Node000004" class="edge">
<title>Node10&#45;&gt;Node4</title>
<g id="a_edge12_Node000010_Node000004"><a xlink:title=" ">
<path fill="none" stroke="#63b8ff" d="M170.09,-93.6C158.43,-96.58 146.44,-99.64 135.05,-102.54"/>
<polygon fill="#63b8ff" stroke="#63b8ff" points="170.87,-96.76 179.69,-90.9 169.14,-89.98 170.87,-96.76"/>
</a>
</g>
</g>
<!-- Node11&#45;&gt;Node10 -->
<g id="edge14_Node000011_Node000010" class="edge">
<title>Node11&#45;&gt;Node10</title>
<g id="a_edge14_Node000011_Node000010"><a xlink:title=" ">
<path fill="none" stroke="#63b8ff" d="M330.27,-54.11C321.98,-56.14 313.59,-58.19 305.47,-60.18"/>
<polygon fill="#63b8ff" stroke="#63b8ff" points="330.81,-57.33 339.69,-51.55 329.15,-50.53 330.81,-57.33"/>
</a>
</g>
</g>
<!-- Node12&#45;&gt;Node4 -->
<g id="edge16_Node000012_Node000004" class="edge">
<title>Node12&#45;&gt;Node4</title>
<g id="a_edge16_Node000012_Node000004"><a xlink:title=" ">
<path fill="none" stroke="#63b8ff" d="M205.85,-36.39C197.66,-41.24 189.01,-46.39 181,-51.25 152.42,-68.59 119.88,-88.96 98.16,-102.64"/>
<polygon fill="#63b8ff" stroke="#63b8ff" points="207.36,-38.98 214.19,-30.88 203.8,-32.95 207.36,-38.98"/>
</a>
</g>
</g>
</g>
</svg>

<g id="navigator" transform="translate(0 0)" fill="#404254">
  <rect fill="#f2f5e9" fill-opacity="0.5" stroke="#606060" stroke-width=".5" x="0" y="0" width="60" height="60"/>
  <use id="zoomplus" xlink:href="#zoomPlus" x="17" y="9" onmousedown="handleZoom(evt,'in')"/>
  <use id="zoomminus" xlink:href="#zoomMin" x="42" y="9" onmousedown="handleZoom(evt,'out')"/>
  <use id="reset" xlink:href="#resetDef" x="30" y="36" onmousedown="handleReset()"/>
   <use id="arrowup" xlink:href="#arrowUp" x="0" y="0" onmousedown="handlePan(0,-1)"/>
  <use id="arrowright" xlink:href="#arrowRight" x="0" y="0" onmousedown="handlePan(1,0)"/>
  <use id="arrowdown" xlink:href="#arrowDown" x="0" y="0" onmousedown="handlePan(0,1)"/>
  <use id="arrowleft" xlink:href="#arrowLeft" x="0" y="0" onmousedown="handlePan(-1,0)"/>
</g>
<svg viewBox="0 0 15 15" width="100%" height="30px" preserveAspectRatio="xMaxYMin meet">
 <g id="arrow_out" transform="scale(0.3 0.3)">
  <a xlink:href="struct_slic3r_1_1client_1_1expr_a477a831e039a87620c4bfffd3b3f85e0_icgraph_org.svg" target="_base">
   <rect id="button" ry="5" rx="5" y="6" x="6" height="38" width="38"
        fill="#f2f5e9" fill-opacity="0.5" stroke="#606060" stroke-width="1.0"/>
   <path id="arrow"
     d="M 11.500037,31.436501 C 11.940474,20.09759 22.043105,11.32322 32.158766,21.979434 L 37.068811,17.246167 C 37.068811,17.246167 37.088388,32 37.088388,32 L 22.160133,31.978069 C 22.160133,31.978069 26.997745,27.140456 26.997745,27.140456 C 18.528582,18.264221 13.291696,25.230495 11.500037,31.436501 z"
     style="fill:#404040;"/>
  </a>
 </g>
</svg>

<style type='text/css'>
<![CDATA[
[data-mouse-over-selected='false'] { opacity: 0.7; }
[data-mouse-over-selected='true']  { opacity: 1.0; }
]]>
</style>
<script type="application/ecmascript"><![CDATA[
document.addEventListener('DOMContentLoaded', (event) => {
  highlightEdges();
  highlightAdjacentNodes();
});
]]></script>
</svg>
