<?xml version="1.0" encoding="UTF-8" standalone="no"?>
<!DOCTYPE svg PUBLIC "-//W3C//DTD SVG 1.1//EN"
 "http://www.w3.org/Graphics/SVG/1.1/DTD/svg11.dtd">
<!-- Generated by graphviz version 8.0.5 (20230430.1635)
 -->
<!-- Title: ImFontAtlas::AddFont Pages: 1 -->
<!--zoomable 208 -->

<svg id="main" version="1.1" xmlns="http://www.w3.org/2000/svg" xmlns:xlink="http://www.w3.org/1999/xlink" xml:space="preserve" onload="init(evt)">
<style type="text/css"><![CDATA[
.node, .edge {opacity: 0.7;}
.node.selected, .edge.selected {opacity: 1;}
.edge:hover path { stroke: red; }
.edge:hover polygon { stroke: red; fill: red; }
]]></style>

<defs>
  <circle id="rim" cx="0" cy="0" r="7"/>
  <circle id="rim2" cx="0" cy="0" r="3.5"/>
  <g id="zoomPlus">
    <use xlink:href="#rim" fill="#404040"><set attributeName="fill" to="#808080" begin="zoomplus.mouseover" end="zoomplus.mouseout"/></use>
    <path d="M-4,0h8M0,-4v8" fill="none" stroke="white" stroke-width="1.5" pointer-events="none"/>
  </g>
  <g id="zoomMin">
    <use xlink:href="#rim" fill="#404040"><set attributeName="fill" to="#808080" begin="zoomminus.mouseover" end="zoomminus.mouseout"/></use>
    <path d="M-4,0h8" fill="none" stroke="white" stroke-width="1.5" pointer-events="none"/>
  </g>
  <g id="arrowUp" transform="translate(30 24)">
    <use xlink:href="#rim"/>
    <path pointer-events="none" fill="none" stroke="white" stroke-width="1.5" d="M0,-3.0v7 M-2.5,-0.5L0,-3.0L2.5,-0.5"/>
  </g>
  <g id="arrowRight" transform="rotate(90) translate(36 -43)">
    <use xlink:href="#rim"/>
    <path pointer-events="none" fill="none" stroke="white" stroke-width="1.5" d="M0,-3.0v7 M-2.5,-0.5L0,-3.0L2.5,-0.5"/>
  </g>
  <g id="arrowDown" transform="rotate(180) translate(-30 -48)">
    <use xlink:href="#rim"/>
    <path pointer-events="none" fill="none" stroke="white" stroke-width="1.5" d="M0,-3.0v7 M-2.5,-0.5L0,-3.0L2.5,-0.5"/>
  </g>
  <g id="arrowLeft" transform="rotate(270) translate(-36 17)">
    <use xlink:href="#rim"/>
    <path pointer-events="none" fill="none" stroke="white" stroke-width="1.5" d="M0,-3.0v7 M-2.5,-0.5L0,-3.0L2.5,-0.5"/>
  </g>
  <g id="resetDef">
    <use xlink:href="#rim2" fill="#404040"><set attributeName="fill" to="#808080" begin="reset.mouseover" end="reset.mouseout"/></use>
  </g>
</defs>
<script type="application/ecmascript">
var viewWidth = 1348;
var viewHeight = 208;
var sectionId = 'dynsection-7';
</script>
<script type="application/ecmascript" xlink:href="../../svg.min.js"/>
<svg id="graph" class="graph">
<g id="viewport">
<title>ImFontAtlas::AddFont</title>
<!-- Node1 -->
<g id="Node000001" class="node">
<title>Node1</title>
<g id="a_Node000001"><a xlink:title=" ">
<polygon fill="#999999" stroke="#666666" points="1340,-119.88 1228,-119.88 1228,-100.62 1340,-100.62 1340,-119.88"/>
<text text-anchor="middle" x="1284" y="-106.38" font-family="Helvetica,sans-Serif" font-size="10.00">ImFontAtlas::AddFont</text>
</a>
</g>
</g>
<!-- Node2 -->
<g id="Node000002" class="node">
<title>Node2</title>
<g id="a_Node000002"><a xlink:href="../../d5/d9e/struct_im_font_atlas.html#adb01397920998a18e25bd8fed3f791a7" target="_top" xlink:title=" ">
<polygon fill="white" stroke="#666666" points="1192,-125.5 1057.5,-125.5 1057.5,-95 1192,-95 1192,-125.5"/>
<text text-anchor="start" x="1065.5" y="-112" font-family="Helvetica,sans-Serif" font-size="10.00">ImFontAtlas::AddFontFrom</text>
<text text-anchor="middle" x="1124.75" y="-100.75" font-family="Helvetica,sans-Serif" font-size="10.00">MemoryTTF</text>
</a>
</g>
</g>
<!-- Node1&#45;&gt;Node2 -->
<g id="edge1_Node000001_Node000002" class="edge">
<title>Node1&#45;&gt;Node2</title>
<g id="a_edge1_Node000001_Node000002"><a xlink:title=" ">
<path fill="none" stroke="#63b8ff" d="M1216.69,-110.25C1208.61,-110.25 1200.36,-110.25 1192.28,-110.25"/>
<polygon fill="#63b8ff" stroke="#63b8ff" points="1216.56,-113.75 1226.56,-110.25 1216.56,-106.75 1216.56,-113.75"/>
</a>
</g>
</g>
<!-- Node3 -->
<g id="Node000003" class="node">
<title>Node3</title>
<g id="a_Node000003"><a xlink:href="../../d5/d9e/struct_im_font_atlas.html#a26d0333bae95222ca2c2fd2886eae562" target="_top" xlink:title=" ">
<polygon fill="white" stroke="#666666" points="839.38,-174.5 704.88,-174.5 704.88,-144 839.38,-144 839.38,-174.5"/>
<text text-anchor="start" x="712.88" y="-161" font-family="Helvetica,sans-Serif" font-size="10.00">ImFontAtlas::AddFontFrom</text>
<text text-anchor="middle" x="772.12" y="-149.75" font-family="Helvetica,sans-Serif" font-size="10.00">FileTTF</text>
</a>
</g>
</g>
<!-- Node2&#45;&gt;Node3 -->
<g id="edge2_Node000002_Node000003" class="edge">
<title>Node2&#45;&gt;Node3</title>
<g id="a_edge2_Node000002_Node000003"><a xlink:title=" ">
<path fill="none" stroke="#63b8ff" d="M1052.09,-128.31C1041.86,-130.53 1031.44,-132.59 1021.5,-134.25 960.37,-144.46 890.04,-151.06 839.85,-154.9"/>
<polygon fill="#63b8ff" stroke="#63b8ff" points="1052.64,-131.55 1061.64,-125.96 1051.12,-124.72 1052.64,-131.55"/>
</a>
</g>
</g>
<!-- Node18 -->
<g id="Node000018" class="node">
<title>Node18</title>
<g id="a_Node000018"><a xlink:href="../../d5/d9e/struct_im_font_atlas.html#a579bb434bd116ea9ac4f892652ccefdb" target="_top" xlink:title=" ">
<polygon fill="white" stroke="#666666" points="1021.5,-125.5 887,-125.5 887,-95 1021.5,-95 1021.5,-125.5"/>
<text text-anchor="start" x="895" y="-112" font-family="Helvetica,sans-Serif" font-size="10.00">ImFontAtlas::AddFontFrom</text>
<text text-anchor="middle" x="954.25" y="-100.75" font-family="Helvetica,sans-Serif" font-size="10.00">MemoryCompressedTTF</text>
</a>
</g>
</g>
<!-- Node2&#45;&gt;Node18 -->
<g id="edge7_Node000002_Node000018" class="edge">
<title>Node2&#45;&gt;Node18</title>
<g id="a_edge7_Node000002_Node000018"><a xlink:title=" ">
<path fill="none" stroke="#63b8ff" d="M1046.18,-110.25C1038.07,-110.25 1029.88,-110.25 1021.91,-110.25"/>
<polygon fill="#63b8ff" stroke="#63b8ff" points="1046.15,-113.75 1056.15,-110.25 1046.15,-106.75 1046.15,-113.75"/>
</a>
</g>
</g>
<!-- Node23 -->
<g id="Node000023" class="node">
<title>Node23</title>
<g id="a_Node000023"><a xlink:href="../../da/d22/class_slic3r_1_1_g_u_i_1_1_emboss_1_1_style_manager.html#a948cd0678490c7c68d562c734197d42f" target="_top" xlink:title=" ">
<polygon fill="#fff0f0" stroke="red" points="1011.75,-77.12 896.75,-77.12 896.75,-35.38 1011.75,-35.38 1011.75,-77.12"/>
<text text-anchor="start" x="904.75" y="-63.62" font-family="Helvetica,sans-Serif" font-size="10.00">Slic3r::GUI::Emboss</text>
<text text-anchor="start" x="904.75" y="-52.38" font-family="Helvetica,sans-Serif" font-size="10.00">::StyleManager::create</text>
<text text-anchor="middle" x="954.25" y="-41.12" font-family="Helvetica,sans-Serif" font-size="10.00">_imgui_font</text>
</a>
</g>
</g>
<!-- Node2&#45;&gt;Node23 -->
<g id="edge15_Node000002_Node000023" class="edge">
<title>Node2&#45;&gt;Node23</title>
<g id="a_edge15_Node000002_Node000023"><a xlink:title=" ">
<path fill="none" stroke="#63b8ff" d="M1064.64,-91.31C1047.62,-85.85 1029.09,-79.91 1012.2,-74.5"/>
<polygon fill="#63b8ff" stroke="#63b8ff" points="1063.42,-94.91 1074.01,-94.63 1065.56,-88.25 1063.42,-94.91"/>
</a>
</g>
</g>
<!-- Node4 -->
<g id="Node000004" class="node">
<title>Node4</title>
<g id="a_Node000004"><a xlink:href="../../d6/d97/class_slic3r_1_1_g_u_i_1_1_im_gui_wrapper.html#a8e0d7b964ee5040cde6af3f043f2cfc2" target="_top" xlink:title=" ">
<polygon fill="white" stroke="#666666" points="474.38,-174.5 341.38,-174.5 341.38,-144 474.38,-144 474.38,-174.5"/>
<text text-anchor="start" x="349.38" y="-161" font-family="Helvetica,sans-Serif" font-size="10.00">Slic3r::GUI::ImGuiWrapper</text>
<text text-anchor="middle" x="407.88" y="-149.75" font-family="Helvetica,sans-Serif" font-size="10.00">::init_font</text>
</a>
</g>
</g>
<!-- Node3&#45;&gt;Node4 -->
<g id="edge3_Node000003_Node000004" class="edge">
<title>Node3&#45;&gt;Node4</title>
<g id="a_edge3_Node000003_Node000004"><a xlink:title=" ">
<path fill="none" stroke="#63b8ff" d="M694.05,-159.25C628.83,-159.25 536.36,-159.25 474.59,-159.25"/>
<polygon fill="#63b8ff" stroke="#63b8ff" points="693.68,-162.75 703.68,-159.25 693.68,-155.75 693.68,-162.75"/>
</a>
</g>
</g>
<!-- Node5 -->
<g id="Node000005" class="node">
<title>Node5</title>
<g id="a_Node000005"><a xlink:href="../../d6/d97/class_slic3r_1_1_g_u_i_1_1_im_gui_wrapper.html#a8ef3abeb29b0d406203acdeabf4280a9" target="_top" xlink:title=" ">
<polygon fill="white" stroke="#666666" points="302,-174.5 169,-174.5 169,-144 302,-144 302,-174.5"/>
<text text-anchor="start" x="177" y="-161" font-family="Helvetica,sans-Serif" font-size="10.00">Slic3r::GUI::ImGuiWrapper</text>
<text text-anchor="middle" x="235.5" y="-149.75" font-family="Helvetica,sans-Serif" font-size="10.00">::new_frame</text>
</a>
</g>
</g>
<!-- Node4&#45;&gt;Node5 -->
<g id="edge4_Node000004_Node000005" class="edge">
<title>Node4&#45;&gt;Node5</title>
<g id="a_edge4_Node000004_Node000005"><a xlink:title=" ">
<path fill="none" stroke="#63b8ff" d="M330.22,-159.25C320.96,-159.25 311.57,-159.25 302.48,-159.25"/>
<polygon fill="#63b8ff" stroke="#63b8ff" points="330,-162.75 340,-159.25 330,-155.75 330,-162.75"/>
</a>
</g>
</g>
<!-- Node6 -->
<g id="Node000006" class="node">
<title>Node6</title>
<g id="a_Node000006"><a xlink:href="../../d6/d97/class_slic3r_1_1_g_u_i_1_1_im_gui_wrapper.html#aebb1a46b9d087d1f8933a72923ce3cf2" target="_top" xlink:title=" ">
<polygon fill="#fff0f0" stroke="red" points="133,-199.5 0,-199.5 0,-169 133,-169 133,-199.5"/>
<text text-anchor="start" x="8" y="-186" font-family="Helvetica,sans-Serif" font-size="10.00">Slic3r::GUI::ImGuiWrapper</text>
<text text-anchor="middle" x="66.5" y="-174.75" font-family="Helvetica,sans-Serif" font-size="10.00">::update_key_data</text>
</a>
</g>
</g>
<!-- Node5&#45;&gt;Node6 -->
<g id="edge5_Node000005_Node000006" class="edge">
<title>Node5&#45;&gt;Node6</title>
<g id="a_edge5_Node000005_Node000006"><a xlink:title=" ">
<path fill="none" stroke="#63b8ff" d="M158.18,-170.68C149.9,-171.92 141.52,-173.17 133.38,-174.39"/>
<polygon fill="#63b8ff" stroke="#63b8ff" points="158.6,-174 167.98,-169.06 157.57,-167.08 158.6,-174"/>
</a>
</g>
</g>
<!-- Node16 -->
<g id="Node000016" class="node">
<title>Node16</title>
<g id="a_Node000016"><a xlink:href="../../d6/d97/class_slic3r_1_1_g_u_i_1_1_im_gui_wrapper.html#a4a31f0632f495002fd236ca79b8ef9ac" target="_top" xlink:title=" ">
<polygon fill="#fff0f0" stroke="red" points="133,-150.5 0,-150.5 0,-120 133,-120 133,-150.5"/>
<text text-anchor="start" x="8" y="-137" font-family="Helvetica,sans-Serif" font-size="10.00">Slic3r::GUI::ImGuiWrapper</text>
<text text-anchor="middle" x="66.5" y="-125.75" font-family="Helvetica,sans-Serif" font-size="10.00">::update_mouse_data</text>
</a>
</g>
</g>
<!-- Node5&#45;&gt;Node16 -->
<g id="edge6_Node000005_Node000016" class="edge">
<title>Node5&#45;&gt;Node16</title>
<g id="a_edge6_Node000005_Node000016"><a xlink:title=" ">
<path fill="none" stroke="#63b8ff" d="M158.18,-148.28C149.9,-147.09 141.52,-145.89 133.38,-144.72"/>
<polygon fill="#63b8ff" stroke="#63b8ff" points="157.58,-151.88 167.98,-149.83 158.58,-144.95 157.58,-151.88"/>
</a>
</g>
</g>
<!-- Node19 -->
<g id="Node000019" class="node">
<title>Node19</title>
<g id="a_Node000019"><a xlink:href="../../d5/d9e/struct_im_font_atlas.html#ab43b930beb57c0b998f42f4586677956" target="_top" xlink:title=" ">
<polygon fill="white" stroke="#666666" points="851,-125.5 693.25,-125.5 693.25,-95 851,-95 851,-125.5"/>
<text text-anchor="start" x="701.25" y="-112" font-family="Helvetica,sans-Serif" font-size="10.00">ImFontAtlas::AddFontFrom</text>
<text text-anchor="middle" x="772.12" y="-100.75" font-family="Helvetica,sans-Serif" font-size="10.00">MemoryCompressedBase85TTF</text>
</a>
</g>
</g>
<!-- Node18&#45;&gt;Node19 -->
<g id="edge8_Node000018_Node000019" class="edge">
<title>Node18&#45;&gt;Node19</title>
<g id="a_edge8_Node000018_Node000019"><a xlink:title=" ">
<path fill="none" stroke="#63b8ff" d="M875.75,-110.25C867.64,-110.25 859.4,-110.25 851.29,-110.25"/>
<polygon fill="#63b8ff" stroke="#63b8ff" points="875.69,-113.75 885.69,-110.25 875.69,-106.75 875.69,-113.75"/>
</a>
</g>
</g>
<!-- Node27 -->
<g id="Node000027" class="node">
<title>Node27</title>
<g id="a_Node000027"><a xlink:href="../../df/d70/classigl_1_1opengl_1_1glfw_1_1imgui_1_1_im_gui_menu.html#accf845ed8875fc2e874794e7a758e0b0" target="_top" xlink:title=" ">
<polygon fill="white" stroke="#666666" points="846.88,-76.5 697.38,-76.5 697.38,-46 846.88,-46 846.88,-76.5"/>
<text text-anchor="start" x="705.38" y="-63" font-family="Helvetica,sans-Serif" font-size="10.00">igl::opengl::glfw::</text>
<text text-anchor="middle" x="772.12" y="-51.75" font-family="Helvetica,sans-Serif" font-size="10.00">imgui::ImGuiMenu::reload_font</text>
</a>
</g>
</g>
<!-- Node18&#45;&gt;Node27 -->
<g id="edge12_Node000018_Node000027" class="edge">
<title>Node18&#45;&gt;Node27</title>
<g id="a_edge12_Node000018_Node000027"><a xlink:title=" ">
<path fill="none" stroke="#63b8ff" d="M885.39,-91.79C867.48,-86.92 848.32,-81.71 830.99,-76.99"/>
<polygon fill="#63b8ff" stroke="#63b8ff" points="884.19,-95.36 894.76,-94.61 886.03,-88.61 884.19,-95.36"/>
</a>
</g>
</g>
<!-- Node20 -->
<g id="Node000020" class="node">
<title>Node20</title>
<g id="a_Node000020"><a xlink:href="../../d5/d9e/struct_im_font_atlas.html#a9d2b4a94579bf603a0d2662cd8348cbd" target="_top" xlink:title=" ">
<polygon fill="white" stroke="#666666" points="657.25,-119.88 513.75,-119.88 513.75,-100.62 657.25,-100.62 657.25,-119.88"/>
<text text-anchor="middle" x="585.5" y="-106.38" font-family="Helvetica,sans-Serif" font-size="10.00">ImFontAtlas::AddFontDefault</text>
</a>
</g>
</g>
<!-- Node19&#45;&gt;Node20 -->
<g id="edge9_Node000019_Node000020" class="edge">
<title>Node19&#45;&gt;Node20</title>
<g id="a_edge9_Node000019_Node000020"><a xlink:title=" ">
<path fill="none" stroke="#63b8ff" d="M682.07,-110.25C673.86,-110.25 665.61,-110.25 657.59,-110.25"/>
<polygon fill="#63b8ff" stroke="#63b8ff" points="681.83,-113.75 691.83,-110.25 681.83,-106.75 681.83,-113.75"/>
</a>
</g>
</g>
<!-- Node20&#45;&gt;Node4 -->
<g id="edge11_Node000020_Node000004" class="edge">
<title>Node20&#45;&gt;Node4</title>
<g id="a_edge11_Node000020_Node000004"><a xlink:title=" ">
<path fill="none" stroke="#63b8ff" d="M537.98,-123.23C515.64,-129.46 488.68,-136.98 465.19,-143.54"/>
<polygon fill="#63b8ff" stroke="#63b8ff" points="538.84,-126.34 547.54,-120.28 536.96,-119.6 538.84,-126.34"/>
</a>
</g>
</g>
<!-- Node21 -->
<g id="Node000021" class="node">
<title>Node21</title>
<g id="a_Node000021"><a xlink:href="../../d5/d9e/struct_im_font_atlas.html#aeff1a1044a1ab68d8f27bb2819cd9f44" target="_top" xlink:title=" ">
<polygon fill="#fff0f0" stroke="red" points="477.75,-125.5 338,-125.5 338,-95 477.75,-95 477.75,-125.5"/>
<text text-anchor="start" x="346" y="-112" font-family="Helvetica,sans-Serif" font-size="10.00">ImFontAtlas::GetTexDataAs</text>
<text text-anchor="middle" x="407.88" y="-100.75" font-family="Helvetica,sans-Serif" font-size="10.00">Alpha8</text>
</a>
</g>
</g>
<!-- Node20&#45;&gt;Node21 -->
<g id="edge10_Node000020_Node000021" class="edge">
<title>Node20&#45;&gt;Node21</title>
<g id="a_edge10_Node000020_Node000021"><a xlink:title=" ">
<path fill="none" stroke="#63b8ff" d="M502.35,-110.25C494.26,-110.25 486.11,-110.25 478.16,-110.25"/>
<polygon fill="#63b8ff" stroke="#63b8ff" points="502.32,-113.75 512.32,-110.25 502.32,-106.75 502.32,-113.75"/>
</a>
</g>
</g>
<!-- Node28 -->
<g id="Node000028" class="node">
<title>Node28</title>
<g id="a_Node000028"><a xlink:href="../../df/d70/classigl_1_1opengl_1_1glfw_1_1imgui_1_1_im_gui_menu.html#ab5d77117baf5f7e95d2f05ef954dd79e" target="_top" xlink:title=" ">
<polygon fill="white" stroke="#666666" points="642.62,-79.5 528.38,-79.5 528.38,-49 642.62,-49 642.62,-79.5"/>
<text text-anchor="start" x="536.38" y="-66" font-family="Helvetica,sans-Serif" font-size="10.00">igl::opengl::glfw::</text>
<text text-anchor="middle" x="585.5" y="-54.75" font-family="Helvetica,sans-Serif" font-size="10.00">imgui::ImGuiMenu::init</text>
</a>
</g>
</g>
<!-- Node27&#45;&gt;Node28 -->
<g id="edge13_Node000027_Node000028" class="edge">
<title>Node27&#45;&gt;Node28</title>
<g id="a_edge13_Node000027_Node000028"><a xlink:title=" ">
<path fill="none" stroke="#63b8ff" d="M686.42,-62.63C671.68,-62.87 656.67,-63.11 642.92,-63.33"/>
<polygon fill="#63b8ff" stroke="#63b8ff" points="686.15,-66.12 696.09,-62.45 686.04,-59.12 686.15,-66.12"/>
</a>
</g>
</g>
<!-- Node29 -->
<g id="Node000029" class="node">
<title>Node29</title>
<g id="a_Node000029"><a xlink:href="../../df/d70/classigl_1_1opengl_1_1glfw_1_1imgui_1_1_im_gui_menu.html#a0920baa5bfa5a7a47e7f4ece3590b975" target="_top" xlink:title=" ">
<polygon fill="white" stroke="#666666" points="656.12,-30.5 514.88,-30.5 514.88,0 656.12,0 656.12,-30.5"/>
<text text-anchor="start" x="522.88" y="-17" font-family="Helvetica,sans-Serif" font-size="10.00">igl::opengl::glfw::</text>
<text text-anchor="middle" x="585.5" y="-5.75" font-family="Helvetica,sans-Serif" font-size="10.00">imgui::ImGuiMenu::pre_draw</text>
</a>
</g>
</g>
<!-- Node27&#45;&gt;Node29 -->
<g id="edge14_Node000027_Node000029" class="edge">
<title>Node27&#45;&gt;Node29</title>
<g id="a_edge14_Node000027_Node000029"><a xlink:title=" ">
<path fill="none" stroke="#63b8ff" d="M697.76,-42.97C681.8,-39 665.06,-34.82 649.55,-30.96"/>
<polygon fill="#63b8ff" stroke="#63b8ff" points="696.55,-46.53 707.1,-45.55 698.25,-39.73 696.55,-46.53"/>
</a>
</g>
</g>
</g>
</svg>

<g id="navigator" transform="translate(0 0)" fill="#404254">
  <rect fill="#f2f5e9" fill-opacity="0.5" stroke="#606060" stroke-width=".5" x="0" y="0" width="60" height="60"/>
  <use id="zoomplus" xlink:href="#zoomPlus" x="17" y="9" onmousedown="handleZoom(evt,'in')"/>
  <use id="zoomminus" xlink:href="#zoomMin" x="42" y="9" onmousedown="handleZoom(evt,'out')"/>
  <use id="reset" xlink:href="#resetDef" x="30" y="36" onmousedown="handleReset()"/>
   <use id="arrowup" xlink:href="#arrowUp" x="0" y="0" onmousedown="handlePan(0,-1)"/>
  <use id="arrowright" xlink:href="#arrowRight" x="0" y="0" onmousedown="handlePan(1,0)"/>
  <use id="arrowdown" xlink:href="#arrowDown" x="0" y="0" onmousedown="handlePan(0,1)"/>
  <use id="arrowleft" xlink:href="#arrowLeft" x="0" y="0" onmousedown="handlePan(-1,0)"/>
</g>
<svg viewBox="0 0 15 15" width="100%" height="30px" preserveAspectRatio="xMaxYMin meet">
 <g id="arrow_out" transform="scale(0.3 0.3)">
  <a xlink:href="struct_im_font_atlas_ad01c0f19a95d37a9e5ebab1e54525625_icgraph_org.svg" target="_base">
   <rect id="button" ry="5" rx="5" y="6" x="6" height="38" width="38"
        fill="#f2f5e9" fill-opacity="0.5" stroke="#606060" stroke-width="1.0"/>
   <path id="arrow"
     d="M 11.500037,31.436501 C 11.940474,20.09759 22.043105,11.32322 32.158766,21.979434 L 37.068811,17.246167 C 37.068811,17.246167 37.088388,32 37.088388,32 L 22.160133,31.978069 C 22.160133,31.978069 26.997745,27.140456 26.997745,27.140456 C 18.528582,18.264221 13.291696,25.230495 11.500037,31.436501 z"
     style="fill:#404040;"/>
  </a>
 </g>
</svg>

<style type='text/css'>
<![CDATA[
[data-mouse-over-selected='false'] { opacity: 0.7; }
[data-mouse-over-selected='true']  { opacity: 1.0; }
]]>
</style>
<script type="application/ecmascript"><![CDATA[
document.addEventListener('DOMContentLoaded', (event) => {
  highlightEdges();
  highlightAdjacentNodes();
});
]]></script>
</svg>
