<?xml version="1.0" encoding="UTF-8" standalone="no"?>
<!DOCTYPE svg PUBLIC "-//W3C//DTD SVG 1.1//EN"
 "http://www.w3.org/Graphics/SVG/1.1/DTD/svg11.dtd">
<!-- Generated by graphviz version 8.0.5 (20230430.1635)
 -->
<!-- Title: Slic3r::GUI::Sidebar::update_all_preset_comboboxes Pages: 1 -->
<svg width="590pt" height="88pt"
 viewBox="0.00 0.00 589.50 87.50" xmlns="http://www.w3.org/2000/svg" xmlns:xlink="http://www.w3.org/1999/xlink">
<g id="graph0" class="graph" transform="scale(1 1) rotate(0) translate(4 83.5)">
<title>Slic3r::GUI::Sidebar::update_all_preset_comboboxes</title>
<!-- Node1 -->
<g id="Node000001" class="node">
<title>Node1</title>
<g id="a_Node000001"><a xlink:title=" ">
<polygon fill="#999999" stroke="#666666" points="159.25,-54.5 0,-54.5 0,-24 159.25,-24 159.25,-54.5"/>
<text text-anchor="start" x="8" y="-41" font-family="Helvetica,sans-Serif" font-size="10.00">Slic3r::GUI::Sidebar</text>
<text text-anchor="middle" x="79.62" y="-29.75" font-family="Helvetica,sans-Serif" font-size="10.00">::update_all_preset_comboboxes</text>
</a>
</g>
</g>
<!-- Node2 -->
<g id="Node000002" class="node">
<title>Node2</title>
<g id="a_Node000002"><a xlink:href="../../d9/d24/class_slic3r_1_1_preset_collection.html#a749d8ca3a5db3c393c201a7df55eefbd" target="_top" xlink:title=" ">
<polygon fill="white" stroke="#666666" points="314,-79.5 195.25,-79.5 195.25,-49 314,-49 314,-79.5"/>
<text text-anchor="start" x="203.25" y="-66" font-family="Helvetica,sans-Serif" font-size="10.00">Slic3r::PresetCollection</text>
<text text-anchor="middle" x="254.62" y="-54.75" font-family="Helvetica,sans-Serif" font-size="10.00">::get_edited_preset</text>
</a>
</g>
</g>
<!-- Node1&#45;&gt;Node2 -->
<g id="edge1_Node000001_Node000002" class="edge">
<title>Node1&#45;&gt;Node2</title>
<g id="a_edge1_Node000001_Node000002"><a xlink:title=" ">
<path fill="none" stroke="#63b8ff" d="M159.53,-50.65C167.68,-51.83 175.92,-53.02 183.96,-54.18"/>
<polygon fill="#63b8ff" stroke="#63b8ff" points="183.37,-57.78 193.76,-55.74 184.37,-50.85 183.37,-57.78"/>
</a>
</g>
</g>
<!-- Node3 -->
<g id="Node000003" class="node">
<title>Node3</title>
<g id="a_Node000003"><a xlink:href="../../d9/db2/class_slic3r_1_1_preset.html#a959b555f2e1c1b7042080c862ce14a4c" target="_top" xlink:title=" ">
<polygon fill="white" stroke="#666666" points="308.75,-30.5 200.5,-30.5 200.5,0 308.75,0 308.75,-30.5"/>
<text text-anchor="start" x="208.5" y="-17" font-family="Helvetica,sans-Serif" font-size="10.00">Slic3r::Preset::printer</text>
<text text-anchor="middle" x="254.62" y="-5.75" font-family="Helvetica,sans-Serif" font-size="10.00">_technology</text>
</a>
</g>
</g>
<!-- Node1&#45;&gt;Node3 -->
<g id="edge2_Node000001_Node000003" class="edge">
<title>Node1&#45;&gt;Node3</title>
<g id="a_edge2_Node000001_Node000003"><a xlink:title=" ">
<path fill="none" stroke="#63b8ff" d="M159.53,-28.3C169.5,-26.92 179.61,-25.52 189.32,-24.17"/>
<polygon fill="#63b8ff" stroke="#63b8ff" points="189.65,-27.52 199.08,-22.68 188.69,-20.59 189.65,-27.52"/>
</a>
</g>
</g>
<!-- Node4 -->
<g id="Node000004" class="node">
<title>Node4</title>
<g id="a_Node000004"><a xlink:href="../../d9/d06/class_slic3r_1_1_config_base.html#a423121494459dae7858bc9d665f8cb4f" target="_top" xlink:title=" ">
<polygon fill="white" stroke="#666666" points="447.75,-30.5 350,-30.5 350,0 447.75,0 447.75,-30.5"/>
<text text-anchor="start" x="358" y="-17" font-family="Helvetica,sans-Serif" font-size="10.00">Slic3r::ConfigBase</text>
<text text-anchor="middle" x="398.88" y="-5.75" font-family="Helvetica,sans-Serif" font-size="10.00">::option</text>
</a>
</g>
</g>
<!-- Node3&#45;&gt;Node4 -->
<g id="edge3_Node000003_Node000004" class="edge">
<title>Node3&#45;&gt;Node4</title>
<g id="a_edge3_Node000003_Node000004"><a xlink:title=" ">
<path fill="none" stroke="#63b8ff" d="M309,-15.25C318.74,-15.25 328.95,-15.25 338.84,-15.25"/>
<polygon fill="#63b8ff" stroke="#63b8ff" points="338.83,-18.75 348.83,-15.25 338.83,-11.75 338.83,-18.75"/>
</a>
</g>
</g>
<!-- Node5 -->
<g id="Node000005" class="node">
<title>Node5</title>
<g id="a_Node000005"><a xlink:href="../../d9/d06/class_slic3r_1_1_config_base.html#a699680b37bd3c116736fd1a2ec831728" target="_top" xlink:title=" ">
<polygon fill="white" stroke="#666666" points="581.5,-30.5 483.75,-30.5 483.75,0 581.5,0 581.5,-30.5"/>
<text text-anchor="start" x="491.75" y="-17" font-family="Helvetica,sans-Serif" font-size="10.00">Slic3r::ConfigBase</text>
<text text-anchor="middle" x="532.62" y="-5.75" font-family="Helvetica,sans-Serif" font-size="10.00">::optptr</text>
</a>
</g>
</g>
<!-- Node4&#45;&gt;Node5 -->
<g id="edge4_Node000004_Node000005" class="edge">
<title>Node4&#45;&gt;Node5</title>
<g id="a_edge4_Node000004_Node000005"><a xlink:title=" ">
<path fill="none" stroke="#63b8ff" d="M448.19,-15.25C456.06,-15.25 464.3,-15.25 472.4,-15.25"/>
<polygon fill="#63b8ff" stroke="#63b8ff" points="472.32,-18.75 482.32,-15.25 472.32,-11.75 472.32,-18.75"/>
</a>
</g>
</g>
</g>
</svg>
