<?xml version="1.0" encoding="UTF-8" standalone="no"?>
<!DOCTYPE svg PUBLIC "-//W3C//DTD SVG 1.1//EN"
 "http://www.w3.org/Graphics/SVG/1.1/DTD/svg11.dtd">
<!-- Generated by graphviz version 8.0.5 (20230430.1635)
 -->
<!-- Title: Slic3r::GUI::Sidebar::init_filament_combo Pages: 1 -->
<svg width="365pt" height="88pt"
 viewBox="0.00 0.00 365.00 87.50" xmlns="http://www.w3.org/2000/svg" xmlns:xlink="http://www.w3.org/1999/xlink">
<g id="graph0" class="graph" transform="scale(1 1) rotate(0) translate(4 83.5)">
<title>Slic3r::GUI::Sidebar::init_filament_combo</title>
<!-- Node1 -->
<g id="Node000001" class="node">
<title>Node1</title>
<g id="a_Node000001"><a xlink:title=" ">
<polygon fill="#999999" stroke="#666666" points="109,-54.5 0,-54.5 0,-24 109,-24 109,-54.5"/>
<text text-anchor="start" x="8" y="-41" font-family="Helvetica,sans-Serif" font-size="10.00">Slic3r::GUI::Sidebar</text>
<text text-anchor="middle" x="54.5" y="-29.75" font-family="Helvetica,sans-Serif" font-size="10.00">::init_filament_combo</text>
</a>
</g>
</g>
<!-- Node2 -->
<g id="Node000002" class="node">
<title>Node2</title>
<g id="a_Node000002"><a xlink:href="../../d7/d58/wx_extensions_8cpp.html#a1ee9ba171a3fbe7352176a4315fee795" target="_top" xlink:title=" ">
<polygon fill="white" stroke="#666666" points="195.5,-48.88 145,-48.88 145,-29.62 195.5,-29.62 195.5,-48.88"/>
<text text-anchor="middle" x="170.25" y="-35.38" font-family="Helvetica,sans-Serif" font-size="10.00">em_unit</text>
</a>
</g>
</g>
<!-- Node1&#45;&gt;Node2 -->
<g id="edge1_Node000001_Node000002" class="edge">
<title>Node1&#45;&gt;Node2</title>
<g id="a_edge1_Node000001_Node000002"><a xlink:title=" ">
<path fill="none" stroke="#63b8ff" d="M109.38,-39.25C117.63,-39.25 125.97,-39.25 133.7,-39.25"/>
<polygon fill="#63b8ff" stroke="#63b8ff" points="133.5,-42.75 143.5,-39.25 133.5,-35.75 133.5,-42.75"/>
</a>
</g>
</g>
<!-- Node3 -->
<g id="Node000003" class="node">
<title>Node3</title>
<g id="a_Node000003"><a xlink:href="../../d7/d9a/class_slic3r_1_1_g_u_i_1_1_d_p_i_aware.html#a10bf715638840dfd1312a054e64f8571" target="_top" xlink:title=" ">
<polygon fill="white" stroke="#666666" points="352.12,-79.5 236.38,-79.5 236.38,-49 352.12,-49 352.12,-79.5"/>
<text text-anchor="start" x="244.38" y="-66" font-family="Helvetica,sans-Serif" font-size="10.00">Slic3r::GUI::DPIAware</text>
<text text-anchor="middle" x="294.25" y="-54.75" font-family="Helvetica,sans-Serif" font-size="10.00">::em_unit</text>
</a>
</g>
</g>
<!-- Node2&#45;&gt;Node3 -->
<g id="edge2_Node000002_Node000003" class="edge">
<title>Node2&#45;&gt;Node3</title>
<g id="a_edge2_Node000002_Node000003"><a xlink:title=" ">
<path fill="none" stroke="#63b8ff" d="M195.94,-44.31C204.66,-46.1 214.94,-48.2 225.49,-50.36"/>
<polygon fill="#63b8ff" stroke="#63b8ff" points="224.58,-53.96 235.08,-52.54 225.99,-47.1 224.58,-53.96"/>
</a>
</g>
</g>
<!-- Node4 -->
<g id="Node000004" class="node">
<title>Node4</title>
<g id="a_Node000004"><a xlink:href="../../d9/d45/namespace_slic3r_1_1_g_u_i.html#a160756cff7bc7f94456fb6b61614f579" target="_top" xlink:title=" ">
<polygon fill="white" stroke="#666666" points="357,-30.5 231.5,-30.5 231.5,0 357,0 357,-30.5"/>
<text text-anchor="start" x="239.5" y="-17" font-family="Helvetica,sans-Serif" font-size="10.00">Slic3r::GUI::find_toplevel</text>
<text text-anchor="middle" x="294.25" y="-5.75" font-family="Helvetica,sans-Serif" font-size="10.00">_parent</text>
</a>
</g>
</g>
<!-- Node2&#45;&gt;Node4 -->
<g id="edge3_Node000002_Node000004" class="edge">
<title>Node2&#45;&gt;Node4</title>
<g id="a_edge3_Node000002_Node000004"><a xlink:title=" ">
<path fill="none" stroke="#63b8ff" d="M195.94,-34.39C203.22,-32.96 211.58,-31.32 220.27,-29.61"/>
<polygon fill="#63b8ff" stroke="#63b8ff" points="220.87,-32.86 230,-27.5 219.51,-25.99 220.87,-32.86"/>
</a>
</g>
</g>
</g>
</svg>
