<?xml version="1.0" encoding="UTF-8" standalone="no"?>
<!DOCTYPE svg PUBLIC "-//W3C//DTD SVG 1.1//EN"
 "http://www.w3.org/Graphics/SVG/1.1/DTD/svg11.dtd">
<!-- Generated by graphviz version 8.0.5 (20230430.1635)
 -->
<!-- Title: Eigen::PlainObjectBase::MapAligned Pages: 1 -->
<svg width="428pt" height="137pt"
 viewBox="0.00 0.00 428.00 136.50" xmlns="http://www.w3.org/2000/svg" xmlns:xlink="http://www.w3.org/1999/xlink">

<svg id="main" version="1.1" xmlns="http://www.w3.org/2000/svg" xmlns:xlink="http://www.w3.org/1999/xlink" xml:space="preserve" onload="init(evt)">
<style type="text/css"><![CDATA[
.node, .edge {opacity: 0.7;}
.node.selected, .edge.selected {opacity: 1;}
.edge:hover path { stroke: red; }
.edge:hover polygon { stroke: red; fill: red; }
]]></style>
<script type="application/ecmascript" xlink:href="../../svg.min.js"/>
<svg id="graph" class="graph">
<g id="graph0" class="graph" transform="scale(1 1) rotate(0) translate(4 132.5)">
<title>Eigen::PlainObjectBase::MapAligned</title>
<!-- Node1 -->
<g id="Node000001" class="node">
<title>Node1</title>
<g id="a_Node000001"><a xlink:title=" ">
<polygon fill="#999999" stroke="#666666" points="119.5,-79.5 0,-79.5 0,-49 119.5,-49 119.5,-79.5"/>
<text text-anchor="start" x="8" y="-66" font-family="Helvetica,sans-Serif" font-size="10.00">Eigen::PlainObjectBase</text>
<text text-anchor="middle" x="59.75" y="-54.75" font-family="Helvetica,sans-Serif" font-size="10.00">::MapAligned</text>
</a>
</g>
</g>
<!-- Node2 -->
<g id="Node000002" class="node">
<title>Node2</title>
<g id="a_Node000002"><a xlink:href="../../da/d8d/class_eigen_1_1_plain_object_base.html#a10b8b33b7587da564415561aa246f78f" target="_top" xlink:title=" ">
<polygon fill="white" stroke="#666666" points="275,-128.5 155.5,-128.5 155.5,-98 275,-98 275,-128.5"/>
<text text-anchor="start" x="163.5" y="-115" font-family="Helvetica,sans-Serif" font-size="10.00">Eigen::PlainObjectBase</text>
<text text-anchor="middle" x="215.25" y="-103.75" font-family="Helvetica,sans-Serif" font-size="10.00">::cols</text>
</a>
</g>
</g>
<!-- Node1&#45;&gt;Node2 -->
<g id="edge1_Node000001_Node000002" class="edge">
<title>Node1&#45;&gt;Node2</title>
<g id="a_edge1_Node000001_Node000002"><a xlink:title=" ">
<path fill="none" stroke="#63b8ff" d="M109.74,-79.89C124.07,-84.46 139.89,-89.51 154.79,-94.27"/>
<polygon fill="#63b8ff" stroke="#63b8ff" points="153.34,-97.8 163.94,-97.51 155.47,-91.13 153.34,-97.8"/>
</a>
</g>
</g>
<!-- Node4 -->
<g id="Node000004" class="node">
<title>Node4</title>
<g id="a_Node000004"><a xlink:href="../../da/d8d/class_eigen_1_1_plain_object_base.html#a322d4d48cc285b60e0dff100db522342" target="_top" xlink:title=" ">
<polygon fill="white" stroke="#666666" points="275,-79.5 155.5,-79.5 155.5,-49 275,-49 275,-79.5"/>
<text text-anchor="start" x="163.5" y="-66" font-family="Helvetica,sans-Serif" font-size="10.00">Eigen::PlainObjectBase</text>
<text text-anchor="middle" x="215.25" y="-54.75" font-family="Helvetica,sans-Serif" font-size="10.00">::data</text>
</a>
</g>
</g>
<!-- Node1&#45;&gt;Node4 -->
<g id="edge3_Node000001_Node000004" class="edge">
<title>Node1&#45;&gt;Node4</title>
<g id="a_edge3_Node000001_Node000004"><a xlink:title=" ">
<path fill="none" stroke="#63b8ff" d="M119.66,-64.25C127.77,-64.25 136.16,-64.25 144.45,-64.25"/>
<polygon fill="#63b8ff" stroke="#63b8ff" points="144.25,-67.75 154.25,-64.25 144.25,-60.75 144.25,-67.75"/>
</a>
</g>
</g>
<!-- Node6 -->
<g id="Node000006" class="node">
<title>Node6</title>
<g id="a_Node000006"><a xlink:href="../../da/d8d/class_eigen_1_1_plain_object_base.html#aba7a925ce36c08ba2a08c90086f34718" target="_top" xlink:title=" ">
<polygon fill="white" stroke="#666666" points="275,-30.5 155.5,-30.5 155.5,0 275,0 275,-30.5"/>
<text text-anchor="start" x="163.5" y="-17" font-family="Helvetica,sans-Serif" font-size="10.00">Eigen::PlainObjectBase</text>
<text text-anchor="middle" x="215.25" y="-5.75" font-family="Helvetica,sans-Serif" font-size="10.00">::rows</text>
</a>
</g>
</g>
<!-- Node1&#45;&gt;Node6 -->
<g id="edge5_Node000001_Node000006" class="edge">
<title>Node1&#45;&gt;Node6</title>
<g id="a_edge5_Node000001_Node000006"><a xlink:title=" ">
<path fill="none" stroke="#63b8ff" d="M109.74,-48.61C124.07,-44.04 139.89,-38.99 154.79,-34.23"/>
<polygon fill="#63b8ff" stroke="#63b8ff" points="155.47,-37.37 163.94,-30.99 153.34,-30.7 155.47,-37.37"/>
</a>
</g>
</g>
<!-- Node3 -->
<g id="Node000003" class="node">
<title>Node3</title>
<g id="a_Node000003"><a xlink:href="../../d5/d91/class_eigen_1_1_dense_storage.html#aef23781f9dc545e8b3f6b75d6c05d777" target="_top" xlink:title=" ">
<polygon fill="white" stroke="#666666" points="420,-128.5 311,-128.5 311,-98 420,-98 420,-128.5"/>
<text text-anchor="start" x="319" y="-115" font-family="Helvetica,sans-Serif" font-size="10.00">Eigen::DenseStorage</text>
<text text-anchor="middle" x="365.5" y="-103.75" font-family="Helvetica,sans-Serif" font-size="10.00">::cols</text>
</a>
</g>
</g>
<!-- Node2&#45;&gt;Node3 -->
<g id="edge2_Node000002_Node000003" class="edge">
<title>Node2&#45;&gt;Node3</title>
<g id="a_edge2_Node000002_Node000003"><a xlink:title=" ">
<path fill="none" stroke="#63b8ff" d="M275.27,-113.25C283.47,-113.25 291.92,-113.25 300.21,-113.25"/>
<polygon fill="#63b8ff" stroke="#63b8ff" points="299.97,-116.75 309.97,-113.25 299.97,-109.75 299.97,-116.75"/>
</a>
</g>
</g>
<!-- Node5 -->
<g id="Node000005" class="node">
<title>Node5</title>
<g id="a_Node000005"><a xlink:href="../../d5/d91/class_eigen_1_1_dense_storage.html#abdbbeb487a245756ac498d2590e3560a" target="_top" xlink:title=" ">
<polygon fill="white" stroke="#666666" points="420,-79.5 311,-79.5 311,-49 420,-49 420,-79.5"/>
<text text-anchor="start" x="319" y="-66" font-family="Helvetica,sans-Serif" font-size="10.00">Eigen::DenseStorage</text>
<text text-anchor="middle" x="365.5" y="-54.75" font-family="Helvetica,sans-Serif" font-size="10.00">::data</text>
</a>
</g>
</g>
<!-- Node4&#45;&gt;Node5 -->
<g id="edge4_Node000004_Node000005" class="edge">
<title>Node4&#45;&gt;Node5</title>
<g id="a_edge4_Node000004_Node000005"><a xlink:title=" ">
<path fill="none" stroke="#63b8ff" d="M275.27,-64.25C283.47,-64.25 291.92,-64.25 300.21,-64.25"/>
<polygon fill="#63b8ff" stroke="#63b8ff" points="299.97,-67.75 309.97,-64.25 299.97,-60.75 299.97,-67.75"/>
</a>
</g>
</g>
<!-- Node7 -->
<g id="Node000007" class="node">
<title>Node7</title>
<g id="a_Node000007"><a xlink:href="../../d5/d91/class_eigen_1_1_dense_storage.html#a14b68f709f5fb46eeebb203266cc29b2" target="_top" xlink:title=" ">
<polygon fill="white" stroke="#666666" points="420,-30.5 311,-30.5 311,0 420,0 420,-30.5"/>
<text text-anchor="start" x="319" y="-17" font-family="Helvetica,sans-Serif" font-size="10.00">Eigen::DenseStorage</text>
<text text-anchor="middle" x="365.5" y="-5.75" font-family="Helvetica,sans-Serif" font-size="10.00">::rows</text>
</a>
</g>
</g>
<!-- Node6&#45;&gt;Node7 -->
<g id="edge6_Node000006_Node000007" class="edge">
<title>Node6&#45;&gt;Node7</title>
<g id="a_edge6_Node000006_Node000007"><a xlink:title=" ">
<path fill="none" stroke="#63b8ff" d="M275.27,-15.25C283.47,-15.25 291.92,-15.25 300.21,-15.25"/>
<polygon fill="#63b8ff" stroke="#63b8ff" points="299.97,-18.75 309.97,-15.25 299.97,-11.75 299.97,-18.75"/>
</a>
</g>
</g>
</g>
</svg>
</svg>

<style type='text/css'>
<![CDATA[
[data-mouse-over-selected='false'] { opacity: 0.7; }
[data-mouse-over-selected='true']  { opacity: 1.0; }
]]>
</style>
<script type="application/ecmascript"><![CDATA[
document.addEventListener('DOMContentLoaded', (event) => {
  highlightEdges();
  highlightAdjacentNodes();
});
]]></script>
</svg>
