<?xml version="1.0" encoding="UTF-8" standalone="no"?>
<!DOCTYPE svg PUBLIC "-//W3C//DTD SVG 1.1//EN"
 "http://www.w3.org/Graphics/SVG/1.1/DTD/svg11.dtd">
<!-- Generated by graphviz version 8.0.5 (20230430.1635)
 -->
<!-- Title: libnest2d::pointlike::verticalDistance Pages: 1 -->
<svg width="249pt" height="162pt"
 viewBox="0.00 0.00 249.25 161.88" xmlns="http://www.w3.org/2000/svg" xmlns:xlink="http://www.w3.org/1999/xlink">
<g id="graph0" class="graph" transform="scale(1 1) rotate(0) translate(4 157.88)">
<title>libnest2d::pointlike::verticalDistance</title>
<!-- Node1 -->
<g id="Node000001" class="node">
<title>Node1</title>
<g id="a_Node000001"><a xlink:title=" ">
<polygon fill="#999999" stroke="#666666" points="97,-82.88 0,-82.88 0,-52.38 97,-52.38 97,-82.88"/>
<text text-anchor="start" x="8" y="-69.38" font-family="Helvetica,sans-Serif" font-size="10.00">libnest2d::pointlike</text>
<text text-anchor="middle" x="48.5" y="-58.12" font-family="Helvetica,sans-Serif" font-size="10.00">::verticalDistance</text>
</a>
</g>
</g>
<!-- Node2 -->
<g id="Node000002" class="node">
<title>Node2</title>
<g id="a_Node000002"><a xlink:href="../../d2/dc3/classlibnest2d_1_1___segment.html#a5c7156e63e2ee0caea29bf9e891df59a" target="_top" xlink:title="Get the first point.">
<polygon fill="white" stroke="#666666" points="239.75,-153.88 134.5,-153.88 134.5,-123.38 239.75,-123.38 239.75,-153.88"/>
<text text-anchor="start" x="142.5" y="-140.38" font-family="Helvetica,sans-Serif" font-size="10.00">libnest2d::_Segment</text>
<text text-anchor="middle" x="187.12" y="-129.12" font-family="Helvetica,sans-Serif" font-size="10.00">::first</text>
</a>
</g>
</g>
<!-- Node1&#45;&gt;Node2 -->
<g id="edge1_Node000001_Node000002" class="edge">
<title>Node1&#45;&gt;Node2</title>
<g id="a_edge1_Node000001_Node000002"><a xlink:title=" ">
<path fill="none" stroke="#63b8ff" d="M76.72,-83.19C92.93,-92.32 113.98,-103.92 133,-113.62 135.95,-115.13 139,-116.65 142.09,-118.17"/>
<polygon fill="#63b8ff" stroke="#63b8ff" points="140.43,-121.74 150.96,-122.94 143.48,-115.44 140.43,-121.74"/>
</a>
</g>
</g>
<!-- Node3 -->
<g id="Node000003" class="node">
<title>Node3</title>
<g id="a_Node000003"><a xlink:href="../../d2/dc3/classlibnest2d_1_1___segment.html#a60612f72f16341ed1785240b1e7bb302" target="_top" xlink:title="The end point.">
<polygon fill="white" stroke="#666666" points="239.75,-104.88 134.5,-104.88 134.5,-74.38 239.75,-74.38 239.75,-104.88"/>
<text text-anchor="start" x="142.5" y="-91.38" font-family="Helvetica,sans-Serif" font-size="10.00">libnest2d::_Segment</text>
<text text-anchor="middle" x="187.12" y="-80.12" font-family="Helvetica,sans-Serif" font-size="10.00">::second</text>
</a>
</g>
</g>
<!-- Node1&#45;&gt;Node3 -->
<g id="edge2_Node000001_Node000003" class="edge">
<title>Node1&#45;&gt;Node3</title>
<g id="a_edge2_Node000001_Node000003"><a xlink:title=" ">
<path fill="none" stroke="#63b8ff" d="M97.28,-75.32C105.82,-76.69 114.82,-78.14 123.7,-79.57"/>
<polygon fill="#63b8ff" stroke="#63b8ff" points="122.98,-83.16 133.41,-81.3 124.1,-76.25 122.98,-83.16"/>
</a>
</g>
</g>
<!-- Node4 -->
<g id="Node000004" class="node">
<title>Node4</title>
<g id="a_Node000004"><a xlink:href="../../df/d4e/namespacelibnest2d_1_1pointlike.html#a1e3045df0bee66333beaa96a9a1b6c9d" target="_top" xlink:title=" ">
<polygon fill="white" stroke="#666666" points="241.25,-56.25 133,-56.25 133,-37 241.25,-37 241.25,-56.25"/>
<text text-anchor="middle" x="187.12" y="-42.75" font-family="Helvetica,sans-Serif" font-size="10.00">libnest2d::pointlike::x</text>
</a>
</g>
</g>
<!-- Node1&#45;&gt;Node4 -->
<g id="edge3_Node000001_Node000004" class="edge">
<title>Node1&#45;&gt;Node4</title>
<g id="a_edge3_Node000001_Node000004"><a xlink:title=" ">
<path fill="none" stroke="#63b8ff" d="M97.28,-60.28C105.2,-59.06 113.53,-57.78 121.77,-56.52"/>
<polygon fill="#63b8ff" stroke="#63b8ff" points="122.18,-59.84 131.53,-54.86 121.12,-52.92 122.18,-59.84"/>
</a>
</g>
</g>
<!-- Node5 -->
<g id="Node000005" class="node">
<title>Node5</title>
<g id="a_Node000005"><a xlink:href="../../df/d4e/namespacelibnest2d_1_1pointlike.html#a4db4d2440159d2004978cc4bc59b3102" target="_top" xlink:title=" ">
<polygon fill="white" stroke="#666666" points="241.25,-19.25 133,-19.25 133,0 241.25,0 241.25,-19.25"/>
<text text-anchor="middle" x="187.12" y="-5.75" font-family="Helvetica,sans-Serif" font-size="10.00">libnest2d::pointlike::y</text>
</a>
</g>
</g>
<!-- Node1&#45;&gt;Node5 -->
<g id="edge4_Node000001_Node000005" class="edge">
<title>Node1&#45;&gt;Node5</title>
<g id="a_edge4_Node000001_Node000005"><a xlink:title=" ">
<path fill="none" stroke="#63b8ff" d="M80.03,-51.91C95.67,-44.14 115.14,-34.9 133,-27.62 136.64,-26.14 140.46,-24.68 144.3,-23.27"/>
<polygon fill="#63b8ff" stroke="#63b8ff" points="145.18,-26.31 153.43,-19.67 142.84,-19.72 145.18,-26.31"/>
</a>
</g>
</g>
</g>
</svg>
