<?xml version="1.0" encoding="UTF-8" standalone="no"?>
<!DOCTYPE svg PUBLIC "-//W3C//DTD SVG 1.1//EN"
 "http://www.w3.org/Graphics/SVG/1.1/DTD/svg11.dtd">
<!-- Generated by graphviz version 8.0.5 (20230430.1635)
 -->
<!-- Title: Slic3r::GUI::GLToolbarItem::is_separator Pages: 1 -->
<svg width="968pt" height="259pt"
 viewBox="0.00 0.00 968.00 259.12" xmlns="http://www.w3.org/2000/svg" xmlns:xlink="http://www.w3.org/1999/xlink">
<g id="graph0" class="graph" transform="scale(1 1) rotate(0) translate(4 255.12)">
<title>Slic3r::GUI::GLToolbarItem::is_separator</title>
<!-- Node1 -->
<g id="Node000001" class="node">
<title>Node1</title>
<g id="a_Node000001"><a xlink:title=" ">
<polygon fill="#999999" stroke="#666666" points="960,-142.12 825.5,-142.12 825.5,-111.62 960,-111.62 960,-142.12"/>
<text text-anchor="start" x="833.5" y="-128.62" font-family="Helvetica,sans-Serif" font-size="10.00">Slic3r::GUI::GLToolbarItem</text>
<text text-anchor="middle" x="892.75" y="-117.38" font-family="Helvetica,sans-Serif" font-size="10.00">::is_separator</text>
</a>
</g>
</g>
<!-- Node2 -->
<g id="Node000002" class="node">
<title>Node2</title>
<g id="a_Node000002"><a xlink:href="../../d3/dff/class_slic3r_1_1_g_u_i_1_1_g_l_toolbar.html#a41e731887cb3408bf6173d7cd3635b09" target="_top" xlink:title=" ">
<polygon fill="white" stroke="#666666" points="789.5,-216.12 649,-216.12 649,-185.62 789.5,-185.62 789.5,-216.12"/>
<text text-anchor="start" x="657" y="-202.62" font-family="Helvetica,sans-Serif" font-size="10.00">Slic3r::GUI::GLToolbar</text>
<text text-anchor="middle" x="719.25" y="-191.38" font-family="Helvetica,sans-Serif" font-size="10.00">::contains_mouse_horizontal</text>
</a>
</g>
</g>
<!-- Node1&#45;&gt;Node2 -->
<g id="edge1_Node000001_Node000002" class="edge">
<title>Node1&#45;&gt;Node2</title>
<g id="a_edge1_Node000001_Node000002"><a xlink:title=" ">
<path fill="none" stroke="#63b8ff" d="M851.59,-147.27C832.91,-156.46 810.28,-167.17 789.5,-175.88 781.84,-179.08 773.6,-182.28 765.58,-185.25"/>
<polygon fill="#63b8ff" stroke="#63b8ff" points="852.84,-150.06 860.24,-142.49 849.73,-143.79 852.84,-150.06"/>
</a>
</g>
</g>
<!-- Node8 -->
<g id="Node000008" class="node">
<title>Node8</title>
<g id="a_Node000008"><a xlink:href="../../d3/dff/class_slic3r_1_1_g_u_i_1_1_g_l_toolbar.html#af3e3113b76d4829bcebff77021a2bdfe" target="_top" xlink:title=" ">
<polygon fill="white" stroke="#666666" points="784.25,-167.12 654.25,-167.12 654.25,-136.62 784.25,-136.62 784.25,-167.12"/>
<text text-anchor="start" x="662.25" y="-153.62" font-family="Helvetica,sans-Serif" font-size="10.00">Slic3r::GUI::GLToolbar</text>
<text text-anchor="middle" x="719.25" y="-142.38" font-family="Helvetica,sans-Serif" font-size="10.00">::contains_mouse_vertical</text>
</a>
</g>
</g>
<!-- Node1&#45;&gt;Node8 -->
<g id="edge8_Node000001_Node000008" class="edge">
<title>Node1&#45;&gt;Node8</title>
<g id="a_edge8_Node000001_Node000008"><a xlink:title=" ">
<path fill="none" stroke="#63b8ff" d="M814.66,-138.11C804.65,-139.57 794.47,-141.06 784.69,-142.48"/>
<polygon fill="#63b8ff" stroke="#63b8ff" points="815.05,-141.45 824.44,-136.54 814.04,-134.52 815.05,-141.45"/>
</a>
</g>
</g>
<!-- Node9 -->
<g id="Node000009" class="node">
<title>Node9</title>
<g id="a_Node000009"><a xlink:href="../../d3/dff/class_slic3r_1_1_g_u_i_1_1_g_l_toolbar.html#af834580a75dbef27b91354ddc49efb8c" target="_top" xlink:title=" ">
<polygon fill="white" stroke="#666666" points="776.75,-118.12 661.75,-118.12 661.75,-87.62 776.75,-87.62 776.75,-118.12"/>
<text text-anchor="start" x="669.75" y="-104.62" font-family="Helvetica,sans-Serif" font-size="10.00">Slic3r::GUI::GLToolbar</text>
<text text-anchor="middle" x="719.25" y="-93.38" font-family="Helvetica,sans-Serif" font-size="10.00">::do_action</text>
</a>
</g>
</g>
<!-- Node1&#45;&gt;Node9 -->
<g id="edge10_Node000001_Node000009" class="edge">
<title>Node1&#45;&gt;Node9</title>
<g id="a_edge10_Node000001_Node000009"><a xlink:title=" ">
<path fill="none" stroke="#63b8ff" d="M814.88,-116.12C802.2,-114.34 789.26,-112.53 777.18,-110.84"/>
<polygon fill="#63b8ff" stroke="#63b8ff" points="814.06,-119.68 824.44,-117.6 815.03,-112.74 814.06,-119.68"/>
</a>
</g>
</g>
<!-- Node89 -->
<g id="Node000089" class="node">
<title>Node89</title>
<g id="a_Node000089"><a xlink:href="../../da/dc2/class_slic3r_1_1_g_u_i_1_1_g_l_toolbar_item.html#a1064d6f800843dbb426db059e2f360a5" target="_top" xlink:title=" ">
<polygon fill="white" stroke="#666666" points="786.5,-69.12 652,-69.12 652,-38.62 786.5,-38.62 786.5,-69.12"/>
<text text-anchor="start" x="660" y="-55.62" font-family="Helvetica,sans-Serif" font-size="10.00">Slic3r::GUI::GLToolbarItem</text>
<text text-anchor="middle" x="719.25" y="-44.38" font-family="Helvetica,sans-Serif" font-size="10.00">::update_visibility</text>
</a>
</g>
</g>
<!-- Node1&#45;&gt;Node89 -->
<g id="edge22_Node000001_Node000089" class="edge">
<title>Node1&#45;&gt;Node89</title>
<g id="a_edge22_Node000001_Node000089"><a xlink:title=" ">
<path fill="none" stroke="#63b8ff" d="M850.46,-106.43C831.99,-97.56 809.83,-87.3 789.5,-78.88 781.82,-75.7 773.58,-72.52 765.56,-69.55"/>
<polygon fill="#63b8ff" stroke="#63b8ff" points="848.78,-109.99 859.31,-111.19 851.83,-103.69 848.78,-109.99"/>
</a>
</g>
</g>
<!-- Node3 -->
<g id="Node000003" class="node">
<title>Node3</title>
<g id="a_Node000003"><a xlink:href="../../d3/dff/class_slic3r_1_1_g_u_i_1_1_g_l_toolbar.html#a00ae0ffa22fa21f7a8dd4b35b4b57d03" target="_top" xlink:title=" ">
<polygon fill="white" stroke="#666666" points="613,-210.12 498,-210.12 498,-179.62 613,-179.62 613,-210.12"/>
<text text-anchor="start" x="506" y="-196.62" font-family="Helvetica,sans-Serif" font-size="10.00">Slic3r::GUI::GLToolbar</text>
<text text-anchor="middle" x="555.5" y="-185.38" font-family="Helvetica,sans-Serif" font-size="10.00">::contains_mouse</text>
</a>
</g>
</g>
<!-- Node2&#45;&gt;Node3 -->
<g id="edge2_Node000002_Node000003" class="edge">
<title>Node2&#45;&gt;Node3</title>
<g id="a_edge2_Node000002_Node000003"><a xlink:title=" ">
<path fill="none" stroke="#63b8ff" d="M637.85,-197.89C629.56,-197.59 621.27,-197.28 613.31,-196.98"/>
<polygon fill="#63b8ff" stroke="#63b8ff" points="637.59,-201.42 647.71,-198.3 637.85,-194.43 637.59,-201.42"/>
</a>
</g>
</g>
<!-- Node4 -->
<g id="Node000004" class="node">
<title>Node4</title>
<g id="a_Node000004"><a xlink:href="../../d3/dff/class_slic3r_1_1_g_u_i_1_1_g_l_toolbar.html#ae784c8bdbf47979db48029f3f3d70452" target="_top" xlink:title=" ">
<polygon fill="white" stroke="#666666" points="454.5,-210.12 339.5,-210.12 339.5,-179.62 454.5,-179.62 454.5,-210.12"/>
<text text-anchor="start" x="347.5" y="-196.62" font-family="Helvetica,sans-Serif" font-size="10.00">Slic3r::GUI::GLToolbar</text>
<text text-anchor="middle" x="397" y="-185.38" font-family="Helvetica,sans-Serif" font-size="10.00">::on_mouse</text>
</a>
</g>
</g>
<!-- Node3&#45;&gt;Node4 -->
<g id="edge3_Node000003_Node000004" class="edge">
<title>Node3&#45;&gt;Node4</title>
<g id="a_edge3_Node000003_Node000004"><a xlink:title=" ">
<path fill="none" stroke="#63b8ff" d="M486.65,-194.88C476.06,-194.88 465.21,-194.88 454.9,-194.88"/>
<polygon fill="#63b8ff" stroke="#63b8ff" points="486.56,-198.38 496.56,-194.88 486.56,-191.38 486.56,-198.38"/>
</a>
</g>
</g>
<!-- Node5 -->
<g id="Node000005" class="node">
<title>Node5</title>
<g id="a_Node000005"><a xlink:href="../../d0/d2b/class_slic3r_1_1_g_u_i_1_1_g_l_canvas3_d.html#a15fc8ce385048544064e6e434e09de23" target="_top" xlink:title=" ">
<polygon fill="white" stroke="#666666" points="296,-210.12 166,-210.12 166,-179.62 296,-179.62 296,-210.12"/>
<text text-anchor="start" x="174" y="-196.62" font-family="Helvetica,sans-Serif" font-size="10.00">Slic3r::GUI::GLCanvas3D</text>
<text text-anchor="middle" x="231" y="-185.38" font-family="Helvetica,sans-Serif" font-size="10.00">::on_mouse</text>
</a>
</g>
</g>
<!-- Node4&#45;&gt;Node5 -->
<g id="edge4_Node000004_Node000005" class="edge">
<title>Node4&#45;&gt;Node5</title>
<g id="a_edge4_Node000004_Node000005"><a xlink:title=" ">
<path fill="none" stroke="#63b8ff" d="M328.26,-194.88C317.72,-194.88 306.85,-194.88 296.38,-194.88"/>
<polygon fill="#63b8ff" stroke="#63b8ff" points="328.1,-198.38 338.1,-194.88 328.1,-191.38 328.1,-198.38"/>
</a>
</g>
</g>
<!-- Node5&#45;&gt;Node5 -->
<g id="edge6_Node000005_Node000005" class="edge">
<title>Node5&#45;&gt;Node5</title>
<g id="a_edge6_Node000005_Node000005"><a xlink:title=" ">
<path fill="none" stroke="#63b8ff" d="M259.22,-221.5C254.81,-225.45 245.41,-228.12 231,-228.12 205.39,-228.12 195.58,-219.68 201.58,-210.61"/>
<polygon fill="#63b8ff" stroke="#63b8ff" points="262.8,-221.93 260.42,-211.61 255.84,-221.17 262.8,-221.93"/>
</a>
</g>
</g>
<!-- Node6 -->
<g id="Node000006" class="node">
<title>Node6</title>
<g id="a_Node000006"><a xlink:href="../../d0/d2b/class_slic3r_1_1_g_u_i_1_1_g_l_canvas3_d.html#a9ba6503e9ea6e8ea3050de89e6835f52" target="_top" xlink:title=" ">
<polygon fill="white" stroke="#666666" points="130,-251.12 0,-251.12 0,-220.62 130,-220.62 130,-251.12"/>
<text text-anchor="start" x="8" y="-237.62" font-family="Helvetica,sans-Serif" font-size="10.00">Slic3r::GUI::GLCanvas3D</text>
<text text-anchor="middle" x="65" y="-226.38" font-family="Helvetica,sans-Serif" font-size="10.00">::bind_event_handlers</text>
</a>
</g>
</g>
<!-- Node5&#45;&gt;Node6 -->
<g id="edge5_Node000005_Node000006" class="edge">
<title>Node5&#45;&gt;Node6</title>
<g id="a_edge5_Node000005_Node000006"><a xlink:title=" ">
<path fill="none" stroke="#63b8ff" d="M156.65,-213.21C147.34,-215.54 137.89,-217.9 128.77,-220.18"/>
<polygon fill="#63b8ff" stroke="#63b8ff" points="157.21,-216.43 166.06,-210.61 155.51,-209.64 157.21,-216.43"/>
</a>
</g>
</g>
<!-- Node7 -->
<g id="Node000007" class="node">
<title>Node7</title>
<g id="a_Node000007"><a xlink:href="../../d0/d2b/class_slic3r_1_1_g_u_i_1_1_g_l_canvas3_d.html#a16e40798bb4d5ad13209c3feaea9b21d" target="_top" xlink:title=" ">
<polygon fill="white" stroke="#666666" points="130,-202.12 0,-202.12 0,-171.62 130,-171.62 130,-202.12"/>
<text text-anchor="start" x="8" y="-188.62" font-family="Helvetica,sans-Serif" font-size="10.00">Slic3r::GUI::GLCanvas3D</text>
<text text-anchor="middle" x="65" y="-177.38" font-family="Helvetica,sans-Serif" font-size="10.00">::unbind_event_handlers</text>
</a>
</g>
</g>
<!-- Node5&#45;&gt;Node7 -->
<g id="edge7_Node000005_Node000007" class="edge">
<title>Node5&#45;&gt;Node7</title>
<g id="a_edge7_Node000005_Node000007"><a xlink:title=" ">
<path fill="none" stroke="#63b8ff" d="M154.69,-191.2C146.58,-190.81 138.39,-190.41 130.43,-190.02"/>
<polygon fill="#63b8ff" stroke="#63b8ff" points="154.49,-194.74 164.65,-191.74 154.84,-187.75 154.49,-194.74"/>
</a>
</g>
</g>
<!-- Node8&#45;&gt;Node3 -->
<g id="edge9_Node000008_Node000003" class="edge">
<title>Node8&#45;&gt;Node3</title>
<g id="a_edge9_Node000008_Node000003"><a xlink:title=" ">
<path fill="none" stroke="#63b8ff" d="M649.06,-170.27C637.17,-173.43 624.94,-176.68 613.42,-179.74"/>
<polygon fill="#63b8ff" stroke="#63b8ff" points="649.63,-173.47 658.4,-167.52 647.83,-166.71 649.63,-173.47"/>
</a>
</g>
</g>
<!-- Node9&#45;&gt;Node4 -->
<g id="edge21_Node000009_Node000004" class="edge">
<title>Node9&#45;&gt;Node4</title>
<g id="a_edge21_Node000009_Node000004"><a xlink:title=" ">
<path fill="none" stroke="#63b8ff" d="M653.24,-121.55C594.26,-138.49 508.28,-163.2 452.73,-179.15"/>
<polygon fill="#63b8ff" stroke="#63b8ff" points="653.92,-124.71 662.56,-118.59 651.98,-117.98 653.92,-124.71"/>
</a>
</g>
</g>
<!-- Node10 -->
<g id="Node000010" class="node">
<title>Node10</title>
<g id="a_Node000010"><a xlink:href="../../d3/dff/class_slic3r_1_1_g_u_i_1_1_g_l_toolbar.html#a6c8241a752ac00ab174825c905d6cf6c" target="_top" xlink:title=" ">
<polygon fill="white" stroke="#666666" points="613,-118.12 498,-118.12 498,-87.62 613,-87.62 613,-118.12"/>
<text text-anchor="start" x="506" y="-104.62" font-family="Helvetica,sans-Serif" font-size="10.00">Slic3r::GUI::GLToolbar</text>
<text text-anchor="middle" x="555.5" y="-93.38" font-family="Helvetica,sans-Serif" font-size="10.00">::force_left_action</text>
</a>
</g>
</g>
<!-- Node9&#45;&gt;Node10 -->
<g id="edge11_Node000009_Node000010" class="edge">
<title>Node9&#45;&gt;Node10</title>
<g id="a_edge11_Node000009_Node000010"><a xlink:title=" ">
<path fill="none" stroke="#63b8ff" d="M650.85,-102.88C638.37,-102.88 625.44,-102.88 613.31,-102.88"/>
<polygon fill="#63b8ff" stroke="#63b8ff" points="650.68,-106.38 660.68,-102.88 650.68,-99.38 650.68,-106.38"/>
</a>
</g>
</g>
<!-- Node87 -->
<g id="Node000087" class="node">
<title>Node87</title>
<g id="a_Node000087"><a xlink:href="../../d3/dff/class_slic3r_1_1_g_u_i_1_1_g_l_toolbar.html#a1cb1a06c9687d01fa2b167fce99db5d6" target="_top" xlink:title=" ">
<polygon fill="white" stroke="#666666" points="613,-56.12 498,-56.12 498,-25.62 613,-25.62 613,-56.12"/>
<text text-anchor="start" x="506" y="-42.62" font-family="Helvetica,sans-Serif" font-size="10.00">Slic3r::GUI::GLToolbar</text>
<text text-anchor="middle" x="555.5" y="-31.38" font-family="Helvetica,sans-Serif" font-size="10.00">::force_right_action</text>
</a>
</g>
</g>
<!-- Node9&#45;&gt;Node87 -->
<g id="edge19_Node000009_Node000087" class="edge">
<title>Node9&#45;&gt;Node87</title>
<g id="a_edge19_Node000009_Node000087"><a xlink:title=" ">
<path fill="none" stroke="#63b8ff" d="M663.89,-83.45C658.85,-81.59 653.82,-79.71 649,-77.88 631.06,-71.05 611.28,-63.19 594.64,-56.47"/>
<polygon fill="#63b8ff" stroke="#63b8ff" points="662.61,-87.08 673.21,-87.23 665.02,-80.5 662.61,-87.08"/>
</a>
</g>
</g>
<!-- Node11 -->
<g id="Node000011" class="node">
<title>Node11</title>
<g id="a_Node000011"><a xlink:href="../../d0/d2b/class_slic3r_1_1_g_u_i_1_1_g_l_canvas3_d.html#a40663921f2a6240d87460819e1fc9ae3" target="_top" xlink:title=" ">
<polygon fill="white" stroke="#666666" points="462,-161.75 332,-161.75 332,-120 462,-120 462,-161.75"/>
<text text-anchor="start" x="340" y="-148.25" font-family="Helvetica,sans-Serif" font-size="10.00">Slic3r::GUI::GLCanvas3D</text>
<text text-anchor="start" x="340" y="-137" font-family="Helvetica,sans-Serif" font-size="10.00">::_deactivate_collapse</text>
<text text-anchor="middle" x="397" y="-125.75" font-family="Helvetica,sans-Serif" font-size="10.00">_toolbar_items</text>
</a>
</g>
</g>
<!-- Node10&#45;&gt;Node11 -->
<g id="edge12_Node000010_Node000011" class="edge">
<title>Node10&#45;&gt;Node11</title>
<g id="a_edge12_Node000010_Node000011"><a xlink:title=" ">
<path fill="none" stroke="#63b8ff" d="M486.94,-119.28C478.77,-121.26 470.44,-123.29 462.32,-125.26"/>
<polygon fill="#63b8ff" stroke="#63b8ff" points="487.67,-122.46 496.56,-116.7 486.01,-115.66 487.67,-122.46"/>
</a>
</g>
</g>
<!-- Node12 -->
<g id="Node000012" class="node">
<title>Node12</title>
<g id="a_Node000012"><a xlink:href="../../d0/d2b/class_slic3r_1_1_g_u_i_1_1_g_l_canvas3_d.html#ad74bf35a09c7e404ea15ad07a774a5b7" target="_top" xlink:title=" ">
<polygon fill="white" stroke="#666666" points="462,-101.75 332,-101.75 332,-60 462,-60 462,-101.75"/>
<text text-anchor="start" x="340" y="-88.25" font-family="Helvetica,sans-Serif" font-size="10.00">Slic3r::GUI::GLCanvas3D</text>
<text text-anchor="start" x="340" y="-77" font-family="Helvetica,sans-Serif" font-size="10.00">::force_main_toolbar_left</text>
<text text-anchor="middle" x="397" y="-65.75" font-family="Helvetica,sans-Serif" font-size="10.00">_action</text>
</a>
</g>
</g>
<!-- Node10&#45;&gt;Node12 -->
<g id="edge13_Node000010_Node000012" class="edge">
<title>Node10&#45;&gt;Node12</title>
<g id="a_edge13_Node000010_Node000012"><a xlink:title=" ">
<path fill="none" stroke="#63b8ff" d="M486.94,-93.38C478.77,-92.23 470.44,-91.06 462.32,-89.92"/>
<polygon fill="#63b8ff" stroke="#63b8ff" points="486.17,-96.94 496.56,-94.87 487.14,-90.01 486.17,-96.94"/>
</a>
</g>
</g>
<!-- Node13 -->
<g id="Node000013" class="node">
<title>Node13</title>
<g id="a_Node000013"><a xlink:href="../../d0/d2b/class_slic3r_1_1_g_u_i_1_1_g_l_canvas3_d.html#aab1ea5a1bb854d092fb44be4123ea87f" target="_top" xlink:title=" ">
<polygon fill="white" stroke="#666666" points="296,-145.12 166,-145.12 166,-114.62 296,-114.62 296,-145.12"/>
<text text-anchor="start" x="174" y="-131.62" font-family="Helvetica,sans-Serif" font-size="10.00">Slic3r::GUI::GLCanvas3D</text>
<text text-anchor="middle" x="231" y="-120.38" font-family="Helvetica,sans-Serif" font-size="10.00">::_init_main_toolbar</text>
</a>
</g>
</g>
<!-- Node12&#45;&gt;Node13 -->
<g id="edge14_Node000012_Node000013" class="edge">
<title>Node12&#45;&gt;Node13</title>
<g id="a_edge14_Node000012_Node000013"><a xlink:title=" ">
<path fill="none" stroke="#63b8ff" d="M321.3,-103.19C308.89,-106.9 296.25,-110.68 284.53,-114.18"/>
<polygon fill="#63b8ff" stroke="#63b8ff" points="322.07,-106.32 330.65,-100.1 320.07,-99.61 322.07,-106.32"/>
</a>
</g>
</g>
<!-- Node82 -->
<g id="Node000082" class="node">
<title>Node82</title>
<g id="a_Node000082"><a xlink:href="../../dd/d03/class_slic3r_1_1_g_u_i_1_1_object_list.html#a2670d6019bfdc5bad524330fe9581757" target="_top" xlink:title=" ">
<polygon fill="white" stroke="#666666" points="288.5,-96.12 173.5,-96.12 173.5,-65.62 288.5,-65.62 288.5,-96.12"/>
<text text-anchor="start" x="181.5" y="-82.62" font-family="Helvetica,sans-Serif" font-size="10.00">Slic3r::GUI::ObjectList</text>
<text text-anchor="middle" x="231" y="-71.38" font-family="Helvetica,sans-Serif" font-size="10.00">::del_info_item</text>
</a>
</g>
</g>
<!-- Node12&#45;&gt;Node82 -->
<g id="edge16_Node000012_Node000082" class="edge">
<title>Node12&#45;&gt;Node82</title>
<g id="a_edge16_Node000012_Node000082"><a xlink:title=" ">
<path fill="none" stroke="#63b8ff" d="M320.98,-80.88C310.22,-80.88 299.3,-80.88 288.97,-80.88"/>
<polygon fill="#63b8ff" stroke="#63b8ff" points="320.65,-84.38 330.65,-80.88 320.65,-77.38 320.65,-84.38"/>
</a>
</g>
</g>
<!-- Node86 -->
<g id="Node000086" class="node">
<title>Node86</title>
<g id="a_Node000086"><a xlink:href="../../d7/d21/class_slic3r_1_1_g_u_i_1_1_plater.html#a2544b42acf0b7ddff73ebad1478c1815" target="_top" xlink:title=" ">
<polygon fill="white" stroke="#666666" points="287.75,-47.12 174.25,-47.12 174.25,-16.62 287.75,-16.62 287.75,-47.12"/>
<text text-anchor="start" x="182.25" y="-33.62" font-family="Helvetica,sans-Serif" font-size="10.00">Slic3r::GUI::Plater</text>
<text text-anchor="middle" x="231" y="-22.38" font-family="Helvetica,sans-Serif" font-size="10.00">::toggle_layers_editing</text>
</a>
</g>
</g>
<!-- Node12&#45;&gt;Node86 -->
<g id="edge18_Node000012_Node000086" class="edge">
<title>Node12&#45;&gt;Node86</title>
<g id="a_edge18_Node000012_Node000086"><a xlink:title=" ">
<path fill="none" stroke="#63b8ff" d="M321.3,-58.56C308.89,-54.85 296.25,-51.07 284.53,-47.57"/>
<polygon fill="#63b8ff" stroke="#63b8ff" points="320.07,-62.14 330.65,-61.65 322.07,-55.43 320.07,-62.14"/>
</a>
</g>
</g>
<!-- Node14 -->
<g id="Node000014" class="node">
<title>Node14</title>
<g id="a_Node000014"><a xlink:href="../../d0/d2b/class_slic3r_1_1_g_u_i_1_1_g_l_canvas3_d.html#ab12e77124bf85a59b9e3135daa9f0abd" target="_top" xlink:title=" ">
<polygon fill="#fff0f0" stroke="red" points="130,-145.12 0,-145.12 0,-114.62 130,-114.62 130,-145.12"/>
<text text-anchor="start" x="8" y="-131.62" font-family="Helvetica,sans-Serif" font-size="10.00">Slic3r::GUI::GLCanvas3D</text>
<text text-anchor="middle" x="65" y="-120.38" font-family="Helvetica,sans-Serif" font-size="10.00">::_init_toolbars</text>
</a>
</g>
</g>
<!-- Node13&#45;&gt;Node14 -->
<g id="edge15_Node000013_Node000014" class="edge">
<title>Node13&#45;&gt;Node14</title>
<g id="a_edge15_Node000013_Node000014"><a xlink:title=" ">
<path fill="none" stroke="#63b8ff" d="M154.69,-129.88C146.58,-129.88 138.39,-129.88 130.43,-129.88"/>
<polygon fill="#63b8ff" stroke="#63b8ff" points="154.65,-133.38 164.65,-129.88 154.65,-126.38 154.65,-133.38"/>
</a>
</g>
</g>
<!-- Node83 -->
<g id="Node000083" class="node">
<title>Node83</title>
<g id="a_Node000083"><a xlink:href="../../dd/d03/class_slic3r_1_1_g_u_i_1_1_object_list.html#a4cfeda23a605cc017e2e524f493af311" target="_top" xlink:title=" ">
<polygon fill="#fff0f0" stroke="red" points="122.5,-96.12 7.5,-96.12 7.5,-65.62 122.5,-65.62 122.5,-96.12"/>
<text text-anchor="start" x="15.5" y="-82.62" font-family="Helvetica,sans-Serif" font-size="10.00">Slic3r::GUI::ObjectList</text>
<text text-anchor="middle" x="65" y="-71.38" font-family="Helvetica,sans-Serif" font-size="10.00">::del_subobject_item</text>
</a>
</g>
</g>
<!-- Node82&#45;&gt;Node83 -->
<g id="edge17_Node000082_Node000083" class="edge">
<title>Node82&#45;&gt;Node83</title>
<g id="a_edge17_Node000082_Node000083"><a xlink:title=" ">
<path fill="none" stroke="#63b8ff" d="M162.24,-80.88C149.13,-80.88 135.51,-80.88 122.8,-80.88"/>
<polygon fill="#63b8ff" stroke="#63b8ff" points="162.1,-84.38 172.1,-80.88 162.1,-77.38 162.1,-84.38"/>
</a>
</g>
</g>
<!-- Node88 -->
<g id="Node000088" class="node">
<title>Node88</title>
<g id="a_Node000088"><a xlink:href="../../d0/d2b/class_slic3r_1_1_g_u_i_1_1_g_l_canvas3_d.html#aec3127836c52195357704c069f824dc7" target="_top" xlink:title=" ">
<polygon fill="white" stroke="#666666" points="462,-41.75 332,-41.75 332,0 462,0 462,-41.75"/>
<text text-anchor="start" x="340" y="-28.25" font-family="Helvetica,sans-Serif" font-size="10.00">Slic3r::GUI::GLCanvas3D</text>
<text text-anchor="start" x="340" y="-17" font-family="Helvetica,sans-Serif" font-size="10.00">::force_main_toolbar_right</text>
<text text-anchor="middle" x="397" y="-5.75" font-family="Helvetica,sans-Serif" font-size="10.00">_action</text>
</a>
</g>
</g>
<!-- Node87&#45;&gt;Node88 -->
<g id="edge20_Node000087_Node000088" class="edge">
<title>Node87&#45;&gt;Node88</title>
<g id="a_edge20_Node000087_Node000088"><a xlink:title=" ">
<path fill="none" stroke="#63b8ff" d="M486.66,-32.21C478.58,-31.17 470.35,-30.12 462.32,-29.09"/>
<polygon fill="#63b8ff" stroke="#63b8ff" points="486.19,-35.8 496.56,-33.6 487.08,-28.86 486.19,-35.8"/>
</a>
</g>
</g>
</g>
</svg>
