<?xml version="1.0" encoding="UTF-8" standalone="no"?>
<!DOCTYPE svg PUBLIC "-//W3C//DTD SVG 1.1//EN"
 "http://www.w3.org/Graphics/SVG/1.1/DTD/svg11.dtd">
<!-- Generated by graphviz version 8.0.5 (20230430.1635)
 -->
<!-- Title: Slic3r::GCode::PlaceholderParserIntegration::init Pages: 1 -->
<svg width="286pt" height="125pt"
 viewBox="0.00 0.00 286.00 124.88" xmlns="http://www.w3.org/2000/svg" xmlns:xlink="http://www.w3.org/1999/xlink">
<g id="graph0" class="graph" transform="scale(1 1) rotate(0) translate(4 120.88)">
<title>Slic3r::GCode::PlaceholderParserIntegration::init</title>
<!-- Node1 -->
<g id="Node000001" class="node">
<title>Node1</title>
<g id="a_Node000001"><a xlink:title=" ">
<polygon fill="#999999" stroke="#666666" points="134.5,-67.88 0,-67.88 0,-37.38 134.5,-37.38 134.5,-67.88"/>
<text text-anchor="start" x="8" y="-54.38" font-family="Helvetica,sans-Serif" font-size="10.00">Slic3r::GCode::Placeholder</text>
<text text-anchor="middle" x="67.25" y="-43.12" font-family="Helvetica,sans-Serif" font-size="10.00">ParserIntegration::init</text>
</a>
</g>
</g>
<!-- Node2 -->
<g id="Node000002" class="node">
<title>Node2</title>
<g id="a_Node000002"><a xlink:href="../../da/d7a/class_slic3r_1_1_g_code_writer.html#a0143dc1fd9e3306ffd2e2892ad76025d" target="_top" xlink:title=" ">
<polygon fill="white" stroke="#666666" points="275.75,-116.88 172.75,-116.88 172.75,-86.38 275.75,-86.38 275.75,-116.88"/>
<text text-anchor="start" x="180.75" y="-103.38" font-family="Helvetica,sans-Serif" font-size="10.00">Slic3r::GCodeWriter</text>
<text text-anchor="middle" x="224.25" y="-92.12" font-family="Helvetica,sans-Serif" font-size="10.00">::extruders</text>
</a>
</g>
</g>
<!-- Node1&#45;&gt;Node2 -->
<g id="edge1_Node000001_Node000002" class="edge">
<title>Node1&#45;&gt;Node2</title>
<g id="a_edge1_Node000001_Node000002"><a xlink:title=" ">
<path fill="none" stroke="#63b8ff" d="M117.72,-68.26C132.19,-72.84 148.16,-77.89 163.21,-82.65"/>
<polygon fill="#63b8ff" stroke="#63b8ff" points="161.86,-86.21 172.45,-85.88 163.97,-79.53 161.86,-86.21"/>
</a>
</g>
</g>
<!-- Node3 -->
<g id="Node000003" class="node">
<title>Node3</title>
<g id="a_Node000003"><a xlink:href="../../da/d7a/class_slic3r_1_1_g_code_writer.html#aac83ad2283ab4199916ad03586e14bbb" target="_top" xlink:title=" ">
<polygon fill="white" stroke="#666666" points="275.75,-67.88 172.75,-67.88 172.75,-37.38 275.75,-37.38 275.75,-67.88"/>
<text text-anchor="start" x="180.75" y="-54.38" font-family="Helvetica,sans-Serif" font-size="10.00">Slic3r::GCodeWriter</text>
<text text-anchor="middle" x="224.25" y="-43.12" font-family="Helvetica,sans-Serif" font-size="10.00">::get_zhop</text>
</a>
</g>
</g>
<!-- Node1&#45;&gt;Node3 -->
<g id="edge2_Node000001_Node000003" class="edge">
<title>Node1&#45;&gt;Node3</title>
<g id="a_edge2_Node000001_Node000003"><a xlink:title=" ">
<path fill="none" stroke="#63b8ff" d="M134.88,-52.62C143.77,-52.62 152.85,-52.62 161.64,-52.62"/>
<polygon fill="#63b8ff" stroke="#63b8ff" points="161.59,-56.13 171.59,-52.62 161.59,-49.13 161.59,-56.13"/>
</a>
</g>
</g>
<!-- Node4 -->
<g id="Node000004" class="node">
<title>Node4</title>
<g id="a_Node000004"><a xlink:href="../../dd/dc8/class_slic3r_1_1_g_code.html#ade2f4af324da97d5fb8eadca3af5c489" target="_top" xlink:title=" ">
<polygon fill="white" stroke="#666666" points="278,-19.25 170.5,-19.25 170.5,0 278,0 278,-19.25"/>
<text text-anchor="middle" x="224.25" y="-5.75" font-family="Helvetica,sans-Serif" font-size="10.00">Slic3r::GCode::writer</text>
</a>
</g>
</g>
<!-- Node1&#45;&gt;Node4 -->
<g id="edge3_Node000001_Node000004" class="edge">
<title>Node1&#45;&gt;Node4</title>
<g id="a_edge3_Node000001_Node000004"><a xlink:title=" ">
<path fill="none" stroke="#63b8ff" d="M124.65,-36.98C141.69,-32.25 160.2,-27.12 176.54,-22.58"/>
<polygon fill="#63b8ff" stroke="#63b8ff" points="177.22,-25.75 185.92,-19.7 175.35,-19 177.22,-25.75"/>
</a>
</g>
</g>
</g>
</svg>
