<?xml version="1.0" encoding="UTF-8" standalone="no"?>
<!DOCTYPE svg PUBLIC "-//W3C//DTD SVG 1.1//EN"
 "http://www.w3.org/Graphics/SVG/1.1/DTD/svg11.dtd">
<!-- Generated by graphviz version 8.0.5 (20230430.1635)
 -->
<!-- Title: Slic3r::ModelConfig::option Pages: 1 -->
<svg width="1003pt" height="196pt"
 viewBox="0.00 0.00 1003.25 196.12" xmlns="http://www.w3.org/2000/svg" xmlns:xlink="http://www.w3.org/1999/xlink">
<g id="graph0" class="graph" transform="scale(1 1) rotate(0) translate(4 192.12)">
<title>Slic3r::ModelConfig::option</title>
<!-- Node1 -->
<g id="Node000001" class="node">
<title>Node1</title>
<g id="a_Node000001"><a xlink:title=" ">
<polygon fill="#999999" stroke="#666666" points="995.25,-131.5 893.75,-131.5 893.75,-101 995.25,-101 995.25,-131.5"/>
<text text-anchor="start" x="901.75" y="-118" font-family="Helvetica,sans-Serif" font-size="10.00">Slic3r::ModelConfig</text>
<text text-anchor="middle" x="944.5" y="-106.75" font-family="Helvetica,sans-Serif" font-size="10.00">::option</text>
</a>
</g>
</g>
<!-- Node2 -->
<g id="Node000002" class="node">
<title>Node2</title>
<g id="a_Node000002"><a xlink:href="../../dd/d03/class_slic3r_1_1_g_u_i_1_1_object_list.html#a84b2daec7b4dfe3af81301a08a6f35d4" target="_top" xlink:title=" ">
<polygon fill="white" stroke="#666666" points="838.25,-181.5 723.25,-181.5 723.25,-151 838.25,-151 838.25,-181.5"/>
<text text-anchor="start" x="731.25" y="-168" font-family="Helvetica,sans-Serif" font-size="10.00">Slic3r::GUI::ObjectList</text>
<text text-anchor="middle" x="780.75" y="-156.75" font-family="Helvetica,sans-Serif" font-size="10.00">::merge</text>
</a>
</g>
</g>
<!-- Node1&#45;&gt;Node2 -->
<g id="edge1_Node000001_Node000002" class="edge">
<title>Node1&#45;&gt;Node2</title>
<g id="a_edge1_Node000001_Node000002"><a xlink:title=" ">
<path fill="none" stroke="#63b8ff" d="M883.43,-134.82C866.7,-139.99 848.69,-145.56 832.55,-150.55"/>
<polygon fill="#63b8ff" stroke="#63b8ff" points="884.13,-137.96 892.65,-131.66 882.06,-131.27 884.13,-137.96"/>
</a>
</g>
</g>
<!-- Node4 -->
<g id="Node000004" class="node">
<title>Node4</title>
<g id="a_Node000004"><a xlink:href="../../dd/d03/class_slic3r_1_1_g_u_i_1_1_object_list.html#a6766ec6c03a6e7f55e41f1d8e352d8fb" target="_top" xlink:title=" ">
<polygon fill="white" stroke="#666666" points="838.25,-131.5 723.25,-131.5 723.25,-101 838.25,-101 838.25,-131.5"/>
<text text-anchor="start" x="731.25" y="-118" font-family="Helvetica,sans-Serif" font-size="10.00">Slic3r::GUI::ObjectList</text>
<text text-anchor="middle" x="780.75" y="-106.75" font-family="Helvetica,sans-Serif" font-size="10.00">::split</text>
</a>
</g>
</g>
<!-- Node1&#45;&gt;Node4 -->
<g id="edge3_Node000001_Node000004" class="edge">
<title>Node1&#45;&gt;Node4</title>
<g id="a_edge3_Node000001_Node000004"><a xlink:title=" ">
<path fill="none" stroke="#63b8ff" d="M882.77,-116.25C868.26,-116.25 852.83,-116.25 838.5,-116.25"/>
<polygon fill="#63b8ff" stroke="#63b8ff" points="882.65,-119.75 892.65,-116.25 882.65,-112.75 882.65,-119.75"/>
</a>
</g>
</g>
<!-- Node5 -->
<g id="Node000005" class="node">
<title>Node5</title>
<g id="a_Node000005"><a xlink:href="../../d7/dd5/class_slic3r_1_1_g_u_i_1_1_config_manipulation.html#a1e0f64e53753a79820c5d8bd301ac33a" target="_top" xlink:title=" ">
<polygon fill="white" stroke="#666666" points="857.75,-81.5 703.75,-81.5 703.75,-51 857.75,-51 857.75,-81.5"/>
<text text-anchor="start" x="711.75" y="-68" font-family="Helvetica,sans-Serif" font-size="10.00">Slic3r::GUI::ConfigManipulation</text>
<text text-anchor="middle" x="780.75" y="-56.75" font-family="Helvetica,sans-Serif" font-size="10.00">::toggle_field</text>
</a>
</g>
</g>
<!-- Node1&#45;&gt;Node5 -->
<g id="edge4_Node000001_Node000005" class="edge">
<title>Node1&#45;&gt;Node5</title>
<g id="a_edge4_Node000001_Node000005"><a xlink:title=" ">
<path fill="none" stroke="#63b8ff" d="M883.43,-97.68C866.7,-92.51 848.69,-86.94 832.55,-81.95"/>
<polygon fill="#63b8ff" stroke="#63b8ff" points="882.06,-101.23 892.65,-100.84 884.13,-94.54 882.06,-101.23"/>
</a>
</g>
</g>
<!-- Node3 -->
<g id="Node000003" class="node">
<title>Node3</title>
<g id="a_Node000003"><a xlink:href="../../de/de3/class_slic3r_1_1_g_u_i_1_1_menu_factory.html#a1733567e5b1a2227b4c5664e8b532244" target="_top" xlink:title=" ">
<polygon fill="white" stroke="#666666" points="660.25,-188.12 521.25,-188.12 521.25,-146.38 660.25,-146.38 660.25,-188.12"/>
<text text-anchor="start" x="529.25" y="-174.62" font-family="Helvetica,sans-Serif" font-size="10.00">Slic3r::GUI::MenuFactory</text>
<text text-anchor="start" x="529.25" y="-163.38" font-family="Helvetica,sans-Serif" font-size="10.00">::append_menu_item_merge</text>
<text text-anchor="middle" x="590.75" y="-152.12" font-family="Helvetica,sans-Serif" font-size="10.00">_to_multipart_object</text>
</a>
</g>
</g>
<!-- Node2&#45;&gt;Node3 -->
<g id="edge2_Node000002_Node000003" class="edge">
<title>Node2&#45;&gt;Node3</title>
<g id="a_edge2_Node000002_Node000003"><a xlink:title=" ">
<path fill="none" stroke="#63b8ff" d="M712.07,-166.61C695.38,-166.7 677.49,-166.79 660.74,-166.88"/>
<polygon fill="#63b8ff" stroke="#63b8ff" points="711.85,-170.11 721.83,-166.55 711.82,-163.11 711.85,-170.11"/>
</a>
</g>
</g>
<!-- Node6 -->
<g id="Node000006" class="node">
<title>Node6</title>
<g id="a_Node000006"><a xlink:href="../../d3/d6e/class_slic3r_1_1_g_u_i_1_1_tab_s_l_a_material.html#a49c586ffca18732338e2e1d6184280b5" target="_top" xlink:title=" ">
<polygon fill="white" stroke="#666666" points="660.62,-128.5 520.88,-128.5 520.88,-98 660.62,-98 660.62,-128.5"/>
<text text-anchor="start" x="528.88" y="-115" font-family="Helvetica,sans-Serif" font-size="10.00">Slic3r::GUI::TabSLAMaterial</text>
<text text-anchor="middle" x="590.75" y="-103.75" font-family="Helvetica,sans-Serif" font-size="10.00">::toggle_options</text>
</a>
</g>
</g>
<!-- Node5&#45;&gt;Node6 -->
<g id="edge5_Node000005_Node000006" class="edge">
<title>Node5&#45;&gt;Node6</title>
<g id="a_edge5_Node000005_Node000006"><a xlink:title=" ">
<path fill="none" stroke="#63b8ff" d="M706.37,-84.59C689.25,-88.87 671.17,-93.4 654.55,-97.55"/>
<polygon fill="#63b8ff" stroke="#63b8ff" points="707.03,-87.79 715.89,-81.97 705.34,-81 707.03,-87.79"/>
</a>
</g>
</g>
<!-- Node7 -->
<g id="Node000007" class="node">
<title>Node7</title>
<g id="a_Node000007"><a xlink:href="../../d7/dd5/class_slic3r_1_1_g_u_i_1_1_config_manipulation.html#af09065a991a7b9d917c8bb2f173067b2" target="_top" xlink:title=" ">
<polygon fill="white" stroke="#666666" points="667.75,-79.5 513.75,-79.5 513.75,-49 667.75,-49 667.75,-79.5"/>
<text text-anchor="start" x="521.75" y="-66" font-family="Helvetica,sans-Serif" font-size="10.00">Slic3r::GUI::ConfigManipulation</text>
<text text-anchor="middle" x="590.75" y="-54.75" font-family="Helvetica,sans-Serif" font-size="10.00">::toggle_print_fff_options</text>
</a>
</g>
</g>
<!-- Node5&#45;&gt;Node7 -->
<g id="edge6_Node000005_Node000007" class="edge">
<title>Node5&#45;&gt;Node7</title>
<g id="a_edge6_Node000005_Node000007"><a xlink:title=" ">
<path fill="none" stroke="#63b8ff" d="M692.33,-65.32C684.26,-65.23 676.12,-65.15 668.15,-65.06"/>
<polygon fill="#63b8ff" stroke="#63b8ff" points="692.25,-68.83 702.28,-65.44 692.32,-61.83 692.25,-68.83"/>
</a>
</g>
</g>
<!-- Node13 -->
<g id="Node000013" class="node">
<title>Node13</title>
<g id="a_Node000013"><a xlink:href="../../d7/dd5/class_slic3r_1_1_g_u_i_1_1_config_manipulation.html#a7bcf82d6257f9d66e03b281f12be803a" target="_top" xlink:title=" ">
<polygon fill="white" stroke="#666666" points="667.75,-30.5 513.75,-30.5 513.75,0 667.75,0 667.75,-30.5"/>
<text text-anchor="start" x="521.75" y="-17" font-family="Helvetica,sans-Serif" font-size="10.00">Slic3r::GUI::ConfigManipulation</text>
<text text-anchor="middle" x="590.75" y="-5.75" font-family="Helvetica,sans-Serif" font-size="10.00">::toggle_print_sla_options</text>
</a>
</g>
</g>
<!-- Node5&#45;&gt;Node13 -->
<g id="edge13_Node000005_Node000013" class="edge">
<title>Node5&#45;&gt;Node13</title>
<g id="a_edge13_Node000005_Node000013"><a xlink:title=" ">
<path fill="none" stroke="#63b8ff" d="M711.37,-47.7C691.08,-42.19 669.05,-36.22 649.5,-30.92"/>
<polygon fill="#63b8ff" stroke="#63b8ff" points="710.24,-51.29 720.81,-50.53 712.07,-44.54 710.24,-51.29"/>
</a>
</g>
</g>
<!-- Node8 -->
<g id="Node000008" class="node">
<title>Node8</title>
<g id="a_Node000008"><a xlink:href="../../d7/daf/class_slic3r_1_1_g_u_i_1_1_object_settings.html#acf72cddfd394bb757d2236e54bee019d" target="_top" xlink:title=" ">
<polygon fill="white" stroke="#666666" points="477.75,-79.5 342.5,-79.5 342.5,-49 477.75,-49 477.75,-79.5"/>
<text text-anchor="start" x="350.5" y="-66" font-family="Helvetica,sans-Serif" font-size="10.00">Slic3r::GUI::ObjectSettings</text>
<text text-anchor="middle" x="410.12" y="-54.75" font-family="Helvetica,sans-Serif" font-size="10.00">::update_config_values</text>
</a>
</g>
</g>
<!-- Node7&#45;&gt;Node8 -->
<g id="edge7_Node000007_Node000008" class="edge">
<title>Node7&#45;&gt;Node8</title>
<g id="a_edge7_Node000007_Node000008"><a xlink:title=" ">
<path fill="none" stroke="#63b8ff" d="M502.67,-64.25C494.42,-64.25 486.14,-64.25 478.12,-64.25"/>
<polygon fill="#63b8ff" stroke="#63b8ff" points="502.48,-67.75 512.48,-64.25 502.48,-60.75 502.48,-67.75"/>
</a>
</g>
</g>
<!-- Node8&#45;&gt;Node8 -->
<g id="edge8_Node000008_Node000008" class="edge">
<title>Node8&#45;&gt;Node8</title>
<g id="a_edge8_Node000008_Node000008"><a xlink:title=" ">
<path fill="none" stroke="#63b8ff" d="M439.23,-90.88C434.69,-94.83 424.99,-97.5 410.12,-97.5 383.7,-97.5 373.59,-89.06 379.78,-79.99"/>
<polygon fill="#63b8ff" stroke="#63b8ff" points="442.82,-91.32 440.47,-80.99 435.86,-90.53 442.82,-91.32"/>
</a>
</g>
</g>
<!-- Node9 -->
<g id="Node000009" class="node">
<title>Node9</title>
<g id="a_Node000009"><a xlink:href="../../d7/daf/class_slic3r_1_1_g_u_i_1_1_object_settings.html#a316262f0402877d1b95195f21b9533bd" target="_top" xlink:title=" ">
<polygon fill="white" stroke="#666666" points="306.5,-79.5 171.25,-79.5 171.25,-49 306.5,-49 306.5,-79.5"/>
<text text-anchor="start" x="179.25" y="-66" font-family="Helvetica,sans-Serif" font-size="10.00">Slic3r::GUI::ObjectSettings</text>
<text text-anchor="middle" x="238.88" y="-54.75" font-family="Helvetica,sans-Serif" font-size="10.00">::update_settings_list</text>
</a>
</g>
</g>
<!-- Node8&#45;&gt;Node9 -->
<g id="edge9_Node000008_Node000009" class="edge">
<title>Node8&#45;&gt;Node9</title>
<g id="a_edge9_Node000008_Node000009"><a xlink:title=" ">
<path fill="none" stroke="#63b8ff" d="M331.49,-57.52C323.25,-57.47 314.93,-57.51 306.84,-57.63"/>
<polygon fill="#63b8ff" stroke="#63b8ff" points="331.2,-61.03 341.23,-57.63 331.27,-54.03 331.2,-61.03"/>
</a>
</g>
</g>
<!-- Node9&#45;&gt;Node8 -->
<g id="edge10_Node000009_Node000008" class="edge">
<title>Node9&#45;&gt;Node8</title>
<g id="a_edge10_Node000009_Node000008"><a xlink:title=" ">
<path fill="none" stroke="#63b8ff" d="M317.58,-70.98C325.82,-71.03 334.14,-70.99 342.23,-70.87"/>
<polygon fill="#63b8ff" stroke="#63b8ff" points="317.87,-67.47 307.84,-70.87 317.8,-74.47 317.87,-67.47"/>
</a>
</g>
</g>
<!-- Node9&#45;&gt;Node9 -->
<g id="edge11_Node000009_Node000009" class="edge">
<title>Node9&#45;&gt;Node9</title>
<g id="a_edge11_Node000009_Node000009"><a xlink:title=" ">
<path fill="none" stroke="#63b8ff" d="M267.98,-90.88C263.44,-94.83 253.74,-97.5 238.88,-97.5 212.45,-97.5 202.34,-89.06 208.53,-79.99"/>
<polygon fill="#63b8ff" stroke="#63b8ff" points="271.57,-91.32 269.22,-80.99 264.61,-90.53 271.57,-91.32"/>
</a>
</g>
</g>
<!-- Node10 -->
<g id="Node000010" class="node">
<title>Node10</title>
<g id="a_Node000010"><a xlink:href="../../d7/daf/class_slic3r_1_1_g_u_i_1_1_object_settings.html#a8fd5459aa592d57ce66aaa6e1ab4e01c" target="_top" xlink:title=" ">
<polygon fill="#fff0f0" stroke="red" points="135.25,-79.5 0,-79.5 0,-49 135.25,-49 135.25,-79.5"/>
<text text-anchor="start" x="8" y="-66" font-family="Helvetica,sans-Serif" font-size="10.00">Slic3r::GUI::ObjectSettings</text>
<text text-anchor="middle" x="67.62" y="-54.75" font-family="Helvetica,sans-Serif" font-size="10.00">::UpdateAndShow</text>
</a>
</g>
</g>
<!-- Node9&#45;&gt;Node10 -->
<g id="edge12_Node000009_Node000010" class="edge">
<title>Node9&#45;&gt;Node10</title>
<g id="a_edge12_Node000009_Node000010"><a xlink:title=" ">
<path fill="none" stroke="#63b8ff" d="M160.24,-64.25C152,-64.25 143.68,-64.25 135.59,-64.25"/>
<polygon fill="#63b8ff" stroke="#63b8ff" points="159.98,-67.75 169.98,-64.25 159.98,-60.75 159.98,-67.75"/>
</a>
</g>
</g>
<!-- Node13&#45;&gt;Node8 -->
<g id="edge16_Node000013_Node000008" class="edge">
<title>Node13&#45;&gt;Node8</title>
<g id="a_edge16_Node000013_Node000008"><a xlink:title=" ">
<path fill="none" stroke="#63b8ff" d="M522.45,-33.71C504.69,-38.58 485.69,-43.79 468.51,-48.51"/>
<polygon fill="#63b8ff" stroke="#63b8ff" points="523.02,-36.91 531.74,-30.89 521.17,-30.16 523.02,-36.91"/>
</a>
</g>
</g>
<!-- Node14 -->
<g id="Node000014" class="node">
<title>Node14</title>
<g id="a_Node000014"><a xlink:href="../../dc/dbc/class_slic3r_1_1_g_u_i_1_1_tab_s_l_a_print.html#acb7e7b3e710aee676393068cb092f080" target="_top" xlink:title=" ">
<polygon fill="white" stroke="#666666" points="472.88,-30.5 347.38,-30.5 347.38,0 472.88,0 472.88,-30.5"/>
<text text-anchor="start" x="355.38" y="-17" font-family="Helvetica,sans-Serif" font-size="10.00">Slic3r::GUI::TabSLAPrint</text>
<text text-anchor="middle" x="410.12" y="-5.75" font-family="Helvetica,sans-Serif" font-size="10.00">::toggle_options</text>
</a>
</g>
</g>
<!-- Node13&#45;&gt;Node14 -->
<g id="edge14_Node000013_Node000014" class="edge">
<title>Node13&#45;&gt;Node14</title>
<g id="a_edge14_Node000013_Node000014"><a xlink:title=" ">
<path fill="none" stroke="#63b8ff" d="M502.69,-15.25C492.71,-15.25 482.69,-15.25 473.13,-15.25"/>
<polygon fill="#63b8ff" stroke="#63b8ff" points="502.48,-18.75 512.48,-15.25 502.48,-11.75 502.48,-18.75"/>
</a>
</g>
</g>
<!-- Node15 -->
<g id="Node000015" class="node">
<title>Node15</title>
<g id="a_Node000015"><a xlink:href="../../dc/dbc/class_slic3r_1_1_g_u_i_1_1_tab_s_l_a_print.html#a6c6cd4381eb6f79badd61ae6c864d896" target="_top" xlink:title=" ">
<polygon fill="white" stroke="#666666" points="301.62,-30.5 176.12,-30.5 176.12,0 301.62,0 301.62,-30.5"/>
<text text-anchor="start" x="184.12" y="-17" font-family="Helvetica,sans-Serif" font-size="10.00">Slic3r::GUI::TabSLAPrint</text>
<text text-anchor="middle" x="238.88" y="-5.75" font-family="Helvetica,sans-Serif" font-size="10.00">::update</text>
</a>
</g>
</g>
<!-- Node14&#45;&gt;Node15 -->
<g id="edge15_Node000014_Node000015" class="edge">
<title>Node14&#45;&gt;Node15</title>
<g id="a_edge15_Node000014_Node000015"><a xlink:title=" ">
<path fill="none" stroke="#63b8ff" d="M336.23,-15.25C324.8,-15.25 313.08,-15.25 301.93,-15.25"/>
<polygon fill="#63b8ff" stroke="#63b8ff" points="336.06,-18.75 346.06,-15.25 336.06,-11.75 336.06,-18.75"/>
</a>
</g>
</g>
</g>
</svg>
