<?xml version="1.0" encoding="UTF-8" standalone="no"?>
<!DOCTYPE svg PUBLIC "-//W3C//DTD SVG 1.1//EN"
 "http://www.w3.org/Graphics/SVG/1.1/DTD/svg11.dtd">
<!-- Generated by graphviz version 8.0.5 (20230430.1635)
 -->
<!-- Title: Slic3r::ModelConfig::assign_config Pages: 1 -->
<svg width="393pt" height="246pt"
 viewBox="0.00 0.00 392.75 246.41" xmlns="http://www.w3.org/2000/svg" xmlns:xlink="http://www.w3.org/1999/xlink">

<svg id="main" version="1.1" xmlns="http://www.w3.org/2000/svg" xmlns:xlink="http://www.w3.org/1999/xlink" xml:space="preserve" onload="init(evt)">
<style type="text/css"><![CDATA[
.node, .edge {opacity: 0.7;}
.node.selected, .edge.selected {opacity: 1;}
.edge:hover path { stroke: red; }
.edge:hover polygon { stroke: red; fill: red; }
]]></style>
<script type="application/ecmascript" xlink:href="../../svg.min.js"/>
<svg id="graph" class="graph">
<g id="graph0" class="graph" transform="scale(1 1) rotate(0) translate(4 242.41)">
<title>Slic3r::ModelConfig::assign_config</title>
<!-- Node1 -->
<g id="Node000001" class="node">
<title>Node1</title>
<g id="a_Node000001"><a xlink:title=" ">
<polygon fill="#999999" stroke="#666666" points="384.75,-152.5 283.25,-152.5 283.25,-122 384.75,-122 384.75,-152.5"/>
<text text-anchor="start" x="291.25" y="-139" font-family="Helvetica,sans-Serif" font-size="10.00">Slic3r::ModelConfig</text>
<text text-anchor="middle" x="334" y="-127.75" font-family="Helvetica,sans-Serif" font-size="10.00">::assign_config</text>
</a>
</g>
</g>
<!-- Node2 -->
<g id="Node000002" class="node">
<title>Node2</title>
<g id="a_Node000002"><a xlink:href="../../d5/d8f/class_slic3r_1_1_print.html#a9cbee0a5faf2afecd2d7120d69074960" target="_top" xlink:title=" ">
<polygon fill="white" stroke="#666666" points="96.25,-162.88 0,-162.88 0,-143.62 96.25,-143.62 96.25,-162.88"/>
<text text-anchor="middle" x="48.12" y="-149.38" font-family="Helvetica,sans-Serif" font-size="10.00">Slic3r::Print::apply</text>
</a>
</g>
</g>
<!-- Node1&#45;&gt;Node2 -->
<g id="edge1_Node000001_Node000002" class="edge">
<title>Node1&#45;&gt;Node2</title>
<g id="a_edge1_Node000001_Node000002"><a xlink:title=" ">
<path fill="none" stroke="#63b8ff" d="M317.21,-161.88C302.13,-182.91 277.28,-211.68 247.25,-224.25 200.1,-243.98 180.2,-241.94 132.25,-224.25 98.95,-211.97 69.95,-179.74 56.73,-163.27"/>
<polygon fill="#63b8ff" stroke="#63b8ff" points="320.64,-164.07 323.43,-153.85 314.88,-160.1 320.64,-164.07"/>
</a>
</g>
</g>
<!-- Node3 -->
<g id="Node000003" class="node">
<title>Node3</title>
<g id="a_Node000003"><a xlink:href="../../dd/dc9/class_slic3r_1_1_s_l_a_print.html#a8d620150340b5d2082715c494f2775b2" target="_top" xlink:title=" ">
<polygon fill="white" stroke="#666666" points="247.25,-214.88 132.25,-214.88 132.25,-195.62 247.25,-195.62 247.25,-214.88"/>
<text text-anchor="middle" x="189.75" y="-201.38" font-family="Helvetica,sans-Serif" font-size="10.00">Slic3r::SLAPrint::apply</text>
</a>
</g>
</g>
<!-- Node1&#45;&gt;Node3 -->
<g id="edge2_Node000001_Node000003" class="edge">
<title>Node1&#45;&gt;Node3</title>
<g id="a_edge2_Node000001_Node000003"><a xlink:title=" ">
<path fill="none" stroke="#63b8ff" d="M299.36,-158.5C283.86,-167.76 265,-178.29 247.25,-186.25 239.98,-189.51 231.97,-192.53 224.33,-195.16"/>
<polygon fill="#63b8ff" stroke="#63b8ff" points="300.8,-161.11 307.53,-152.94 297.17,-155.13 300.8,-161.11"/>
</a>
</g>
</g>
<!-- Node4 -->
<g id="Node000004" class="node">
<title>Node4</title>
<g id="a_Node000004"><a xlink:href="../../d0/d23/class_slic3r_1_1_model_object.html#a9af8b453e4f4cb0a2ebaeed8485d98b9" target="_top" xlink:title=" ">
<polygon fill="white" stroke="#666666" points="240.5,-177.5 139,-177.5 139,-147 240.5,-147 240.5,-177.5"/>
<text text-anchor="start" x="147" y="-164" font-family="Helvetica,sans-Serif" font-size="10.00">Slic3r::ModelObject</text>
<text text-anchor="middle" x="189.75" y="-152.75" font-family="Helvetica,sans-Serif" font-size="10.00">::convert_units</text>
</a>
</g>
</g>
<!-- Node1&#45;&gt;Node4 -->
<g id="edge3_Node000001_Node000004" class="edge">
<title>Node1&#45;&gt;Node4</title>
<g id="a_edge3_Node000001_Node000004"><a xlink:title=" ">
<path fill="none" stroke="#63b8ff" d="M272.15,-147.95C261.73,-149.77 251.02,-151.66 240.93,-153.43"/>
<polygon fill="#63b8ff" stroke="#63b8ff" points="272.6,-151.24 281.85,-146.06 271.39,-144.35 272.6,-151.24"/>
</a>
</g>
</g>
<!-- Node5 -->
<g id="Node000005" class="node">
<title>Node5</title>
<g id="a_Node000005"><a xlink:href="../../dd/d6a/class_slic3r_1_1_g_u_i_1_1_selection.html#afa86db5ffd406b938703919391891c7b" target="_top" xlink:title=" ">
<polygon fill="white" stroke="#666666" points="245.38,-128.5 134.12,-128.5 134.12,-98 245.38,-98 245.38,-128.5"/>
<text text-anchor="start" x="142.12" y="-115" font-family="Helvetica,sans-Serif" font-size="10.00">Slic3r::GUI::Selection</text>
<text text-anchor="middle" x="189.75" y="-103.75" font-family="Helvetica,sans-Serif" font-size="10.00">::copy_to_clipboard</text>
</a>
</g>
</g>
<!-- Node1&#45;&gt;Node5 -->
<g id="edge4_Node000001_Node000005" class="edge">
<title>Node1&#45;&gt;Node5</title>
<g id="a_edge4_Node000001_Node000005"><a xlink:title=" ">
<path fill="none" stroke="#63b8ff" d="M272.26,-127C263.46,-125.52 254.45,-124 245.77,-122.53"/>
<polygon fill="#63b8ff" stroke="#63b8ff" points="271.41,-130.58 281.85,-128.79 272.57,-123.67 271.41,-130.58"/>
</a>
</g>
</g>
<!-- Node6 -->
<g id="Node000006" class="node">
<title>Node6</title>
<g id="a_Node000006"><a xlink:href="../../de/db8/namespace_slic3r.html#acc2e0bb1d8450dd11c50be8f2afdee97" target="_top" xlink:title=" ">
<polygon fill="white" stroke="#666666" points="244.62,-79.5 134.88,-79.5 134.88,-49 244.62,-49 244.62,-79.5"/>
<text text-anchor="start" x="142.88" y="-66" font-family="Helvetica,sans-Serif" font-size="10.00">Slic3r::model_volume</text>
<text text-anchor="middle" x="189.75" y="-54.75" font-family="Helvetica,sans-Serif" font-size="10.00">_list_copy_configs</text>
</a>
</g>
</g>
<!-- Node1&#45;&gt;Node6 -->
<g id="edge5_Node000001_Node000006" class="edge">
<title>Node1&#45;&gt;Node6</title>
<g id="a_edge5_Node000001_Node000006"><a xlink:title=" ">
<path fill="none" stroke="#63b8ff" d="M297.58,-116.44C282.28,-107.71 264.06,-97.65 247.25,-89.25 240.92,-86.09 234.09,-82.89 227.46,-79.89"/>
<polygon fill="#63b8ff" stroke="#63b8ff" points="295.28,-119.73 305.69,-121.68 298.77,-113.66 295.28,-119.73"/>
</a>
</g>
</g>
<!-- Node7 -->
<g id="Node000007" class="node">
<title>Node7</title>
<g id="a_Node000007"><a xlink:href="../../d0/d23/class_slic3r_1_1_model_object.html#ac5f24b94617feeabe59d5902d38fde0e" target="_top" xlink:title=" ">
<polygon fill="white" stroke="#666666" points="240.5,-30.5 139,-30.5 139,0 240.5,0 240.5,-30.5"/>
<text text-anchor="start" x="147" y="-17" font-family="Helvetica,sans-Serif" font-size="10.00">Slic3r::ModelObject</text>
<text text-anchor="middle" x="189.75" y="-5.75" font-family="Helvetica,sans-Serif" font-size="10.00">::split</text>
</a>
</g>
</g>
<!-- Node1&#45;&gt;Node7 -->
<g id="edge7_Node000001_Node000007" class="edge">
<title>Node1&#45;&gt;Node7</title>
<g id="a_edge7_Node000001_Node000007"><a xlink:title=" ">
<path fill="none" stroke="#63b8ff" d="M316.1,-112.77C300.31,-91.37 275.06,-60.6 247.25,-40.25 242.58,-36.83 237.36,-33.74 232.04,-30.99"/>
<polygon fill="#63b8ff" stroke="#63b8ff" points="313.78,-114.53 322.46,-120.6 319.45,-110.44 313.78,-114.53"/>
</a>
</g>
</g>
<!-- Node6&#45;&gt;Node2 -->
<g id="edge6_Node000006_Node000002" class="edge">
<title>Node6&#45;&gt;Node2</title>
<g id="a_edge6_Node000006_Node000002"><a xlink:title=" ">
<path fill="none" stroke="#63b8ff" d="M140.03,-84.89C137.37,-86.3 134.76,-87.76 132.25,-89.25 104.7,-105.63 75.74,-129.74 60.33,-143.21"/>
<polygon fill="#63b8ff" stroke="#63b8ff" points="141.46,-87.59 148.83,-79.99 138.33,-81.33 141.46,-87.59"/>
</a>
</g>
</g>
<!-- Node8 -->
<g id="Node000008" class="node">
<title>Node8</title>
<g id="a_Node000008"><a xlink:href="../../d4/d88/struct_slic3r_1_1_g_u_i_1_1_plater_1_1priv.html#a6349f4c76b3d6bbdf03170cf68a4d447" target="_top" xlink:title=" ">
<polygon fill="white" stroke="#666666" points="96.25,-30.5 0,-30.5 0,0 96.25,0 96.25,-30.5"/>
<text text-anchor="start" x="8" y="-17" font-family="Helvetica,sans-Serif" font-size="10.00">Slic3r::GUI::Plater</text>
<text text-anchor="middle" x="48.12" y="-5.75" font-family="Helvetica,sans-Serif" font-size="10.00">::priv::split_object</text>
</a>
</g>
</g>
<!-- Node7&#45;&gt;Node8 -->
<g id="edge8_Node000007_Node000008" class="edge">
<title>Node7&#45;&gt;Node8</title>
<g id="a_edge8_Node000007_Node000008"><a xlink:title=" ">
<path fill="none" stroke="#63b8ff" d="M127.9,-15.25C117.37,-15.25 106.56,-15.25 96.46,-15.25"/>
<polygon fill="#63b8ff" stroke="#63b8ff" points="127.74,-18.75 137.74,-15.25 127.74,-11.75 127.74,-18.75"/>
</a>
</g>
</g>
</g>
</svg>
</svg>

<style type='text/css'>
<![CDATA[
[data-mouse-over-selected='false'] { opacity: 0.7; }
[data-mouse-over-selected='true']  { opacity: 1.0; }
]]>
</style>
<script type="application/ecmascript"><![CDATA[
document.addEventListener('DOMContentLoaded', (event) => {
  highlightEdges();
  highlightAdjacentNodes();
});
]]></script>
</svg>
