<?xml version="1.0" encoding="UTF-8" standalone="no"?>
<!DOCTYPE svg PUBLIC "-//W3C//DTD SVG 1.1//EN"
 "http://www.w3.org/Graphics/SVG/1.1/DTD/svg11.dtd">
<!-- Generated by graphviz version 8.0.5 (20230430.1635)
 -->
<!-- Title: Slic3r::GCodeProcessor::apply_config_simplify3d Pages: 1 -->
<svg width="453pt" height="211pt"
 viewBox="0.00 0.00 452.75 210.50" xmlns="http://www.w3.org/2000/svg" xmlns:xlink="http://www.w3.org/1999/xlink">

<svg id="main" version="1.1" xmlns="http://www.w3.org/2000/svg" xmlns:xlink="http://www.w3.org/1999/xlink" xml:space="preserve" onload="init(evt)">
<style type="text/css"><![CDATA[
.node, .edge {opacity: 0.7;}
.node.selected, .edge.selected {opacity: 1;}
.edge:hover path { stroke: red; }
.edge:hover polygon { stroke: red; fill: red; }
]]></style>
<script type="application/ecmascript" xlink:href="../../svg.min.js"/>
<svg id="graph" class="graph">
<g id="graph0" class="graph" transform="scale(1 1) rotate(0) translate(4 206.5)">
<title>Slic3r::GCodeProcessor::apply_config_simplify3d</title>
<!-- Node1 -->
<g id="Node000001" class="node">
<title>Node1</title>
<g id="a_Node000001"><a xlink:title=" ">
<polygon fill="#999999" stroke="#666666" points="126.25,-110.5 0,-110.5 0,-80 126.25,-80 126.25,-110.5"/>
<text text-anchor="start" x="8" y="-97" font-family="Helvetica,sans-Serif" font-size="10.00">Slic3r::GCodeProcessor</text>
<text text-anchor="middle" x="63.12" y="-85.75" font-family="Helvetica,sans-Serif" font-size="10.00">::apply_config_simplify3d</text>
</a>
</g>
</g>
<!-- Node2 -->
<g id="Node000002" class="node">
<title>Node2</title>
<g id="a_Node000002"><a xlink:href="../../d9/dda/class_slic3r_1_1_g_code_reader.html#a59604635eef8ea982cc6c4d0eee9b5b8" target="_top" xlink:title=" ">
<polygon fill="white" stroke="#666666" points="279.12,-202.5 170.12,-202.5 170.12,-172 279.12,-172 279.12,-202.5"/>
<text text-anchor="start" x="178.12" y="-189" font-family="Helvetica,sans-Serif" font-size="10.00">Slic3r::GCodeReader</text>
<text text-anchor="middle" x="224.62" y="-177.75" font-family="Helvetica,sans-Serif" font-size="10.00">::parse_file_raw</text>
</a>
</g>
</g>
<!-- Node1&#45;&gt;Node2 -->
<g id="edge1_Node000001_Node000002" class="edge">
<title>Node1&#45;&gt;Node2</title>
<g id="a_edge1_Node000001_Node000002"><a xlink:title=" ">
<path fill="none" stroke="#63b8ff" d="M84.37,-110.96C103.67,-125.47 133.9,-147.02 162.25,-162.25 165.34,-163.91 168.57,-165.53 171.85,-167.1"/>
<polygon fill="#63b8ff" stroke="#63b8ff" points="170.25,-170.67 180.81,-171.61 173.15,-164.29 170.25,-170.67"/>
</a>
</g>
</g>
<!-- Node4 -->
<g id="Node000004" class="node">
<title>Node4</title>
<g id="a_Node000004"><a xlink:href="../../d9/dda/class_slic3r_1_1_g_code_reader.html#a92aa2a1255b499bc406461a83d1a0f93" target="_top" xlink:title=" ">
<polygon fill="white" stroke="#666666" points="279.12,-153.5 170.12,-153.5 170.12,-123 279.12,-123 279.12,-153.5"/>
<text text-anchor="start" x="178.12" y="-140" font-family="Helvetica,sans-Serif" font-size="10.00">Slic3r::GCodeReader</text>
<text text-anchor="middle" x="224.62" y="-128.75" font-family="Helvetica,sans-Serif" font-size="10.00">::quit_parsing</text>
</a>
</g>
</g>
<!-- Node1&#45;&gt;Node4 -->
<g id="edge3_Node000001_Node000004" class="edge">
<title>Node1&#45;&gt;Node4</title>
<g id="a_edge3_Node000001_Node000004"><a xlink:title=" ">
<path fill="none" stroke="#63b8ff" d="M122.16,-110.9C134.22,-114.15 146.99,-117.59 159.26,-120.9"/>
<polygon fill="#63b8ff" stroke="#63b8ff" points="158.31,-124.54 168.88,-123.76 160.13,-117.78 158.31,-124.54"/>
</a>
</g>
</g>
<!-- Node5 -->
<g id="Node000005" class="node">
<title>Node5</title>
<g id="a_Node000005"><a xlink:href="../../de/db8/namespace_slic3r.html#aad48e864d74909f1e97fb6c7f6cbd359" target="_top" xlink:title=" ">
<polygon fill="white" stroke="#666666" points="275.75,-104.88 173.5,-104.88 173.5,-85.62 275.75,-85.62 275.75,-104.88"/>
<text text-anchor="middle" x="224.62" y="-91.38" font-family="Helvetica,sans-Serif" font-size="10.00">Slic3r::remove_eols</text>
</a>
</g>
</g>
<!-- Node1&#45;&gt;Node5 -->
<g id="edge4_Node000001_Node000005" class="edge">
<title>Node1&#45;&gt;Node5</title>
<g id="a_edge4_Node000001_Node000005"><a xlink:title=" ">
<path fill="none" stroke="#63b8ff" d="M126.71,-95.25C138.35,-95.25 150.5,-95.25 162.11,-95.25"/>
<polygon fill="#63b8ff" stroke="#63b8ff" points="162.03,-98.75 172.03,-95.25 162.03,-91.75 162.03,-98.75"/>
</a>
</g>
</g>
<!-- Node6 -->
<g id="Node000006" class="node">
<title>Node6</title>
<g id="a_Node000006"><a xlink:href="../../de/db8/namespace_slic3r.html#a4a9b2aeea143f78bd3e3ed754ff1fbc3" target="_top" xlink:title=" ">
<polygon fill="white" stroke="#666666" points="287,-67.88 162.25,-67.88 162.25,-48.62 287,-48.62 287,-67.88"/>
<text text-anchor="middle" x="224.62" y="-54.38" font-family="Helvetica,sans-Serif" font-size="10.00">Slic3r::skip_whitespaces</text>
</a>
</g>
</g>
<!-- Node1&#45;&gt;Node6 -->
<g id="edge5_Node000001_Node000006" class="edge">
<title>Node1&#45;&gt;Node6</title>
<g id="a_edge5_Node000001_Node000006"><a xlink:title=" ">
<path fill="none" stroke="#63b8ff" d="M126.71,-80.73C141.03,-77.41 156.14,-73.91 170.04,-70.68"/>
<polygon fill="#63b8ff" stroke="#63b8ff" points="170.46,-73.94 179.41,-68.27 168.88,-67.12 170.46,-73.94"/>
</a>
</g>
</g>
<!-- Node7 -->
<g id="Node000007" class="node">
<title>Node7</title>
<g id="a_Node000007"><a xlink:href="../../de/db8/namespace_slic3r.html#ad1d7277aff3ad0c93c9763bdac9018f8" target="_top" xlink:title=" ">
<polygon fill="white" stroke="#666666" points="283.62,-30.5 165.62,-30.5 165.62,0 283.62,0 283.62,-30.5"/>
<text text-anchor="start" x="173.62" y="-17" font-family="Helvetica,sans-Serif" font-size="10.00">Slic3r::string_to_double</text>
<text text-anchor="middle" x="224.62" y="-5.75" font-family="Helvetica,sans-Serif" font-size="10.00">_decimal_point</text>
</a>
</g>
</g>
<!-- Node1&#45;&gt;Node7 -->
<g id="edge6_Node000001_Node000007" class="edge">
<title>Node1&#45;&gt;Node7</title>
<g id="a_edge6_Node000001_Node000007"><a xlink:title=" ">
<path fill="none" stroke="#63b8ff" d="M89,-79.71C108.52,-67.85 136.59,-51.51 162.25,-39.25 165.06,-37.91 167.96,-36.58 170.91,-35.28"/>
<polygon fill="#63b8ff" stroke="#63b8ff" points="172.19,-38.11 180.02,-30.98 169.45,-31.67 172.19,-38.11"/>
</a>
</g>
</g>
<!-- Node3 -->
<g id="Node000003" class="node">
<title>Node3</title>
<g id="a_Node000003"><a xlink:href="../../d9/dda/class_slic3r_1_1_g_code_reader.html#adffd8f037e8f7e0272b4f9e73f012bd1" target="_top" xlink:title=" ">
<polygon fill="white" stroke="#666666" points="444.75,-202.5 323,-202.5 323,-172 444.75,-172 444.75,-202.5"/>
<text text-anchor="start" x="331" y="-189" font-family="Helvetica,sans-Serif" font-size="10.00">Slic3r::GCodeReader</text>
<text text-anchor="middle" x="383.88" y="-177.75" font-family="Helvetica,sans-Serif" font-size="10.00">::parse_file_raw_internal</text>
</a>
</g>
</g>
<!-- Node2&#45;&gt;Node3 -->
<g id="edge2_Node000002_Node000003" class="edge">
<title>Node2&#45;&gt;Node3</title>
<g id="a_edge2_Node000002_Node000003"><a xlink:title=" ">
<path fill="none" stroke="#63b8ff" d="M279.3,-187.25C289.78,-187.25 300.91,-187.25 311.85,-187.25"/>
<polygon fill="#63b8ff" stroke="#63b8ff" points="311.69,-190.75 321.69,-187.25 311.69,-183.75 311.69,-190.75"/>
</a>
</g>
</g>
</g>
</svg>
</svg>

<style type='text/css'>
<![CDATA[
[data-mouse-over-selected='false'] { opacity: 0.7; }
[data-mouse-over-selected='true']  { opacity: 1.0; }
]]>
</style>
<script type="application/ecmascript"><![CDATA[
document.addEventListener('DOMContentLoaded', (event) => {
  highlightEdges();
  highlightAdjacentNodes();
});
]]></script>
</svg>
