<?xml version="1.0" encoding="UTF-8" standalone="no"?>
<!DOCTYPE svg PUBLIC "-//W3C//DTD SVG 1.1//EN"
 "http://www.w3.org/Graphics/SVG/1.1/DTD/svg11.dtd">
<!-- Generated by graphviz version 8.0.5 (20230430.1635)
 -->
<!-- Title: Slic3r::GUI::ObjectList::Clipboard::get_ranges_cache Pages: 1 -->
<svg width="476pt" height="88pt"
 viewBox="0.00 0.00 476.00 87.50" xmlns="http://www.w3.org/2000/svg" xmlns:xlink="http://www.w3.org/1999/xlink">
<g id="graph0" class="graph" transform="scale(1 1) rotate(0) translate(4 83.5)">
<title>Slic3r::GUI::ObjectList::Clipboard::get_ranges_cache</title>
<!-- Node1 -->
<g id="Node000001" class="node">
<title>Node1</title>
<g id="a_Node000001"><a xlink:title=" ">
<polygon fill="#999999" stroke="#666666" points="468,-54.5 319.25,-54.5 319.25,-24 468,-24 468,-54.5"/>
<text text-anchor="start" x="327.25" y="-41" font-family="Helvetica,sans-Serif" font-size="10.00">Slic3r::GUI::ObjectList</text>
<text text-anchor="middle" x="393.62" y="-29.75" font-family="Helvetica,sans-Serif" font-size="10.00">::Clipboard::get_ranges_cache</text>
</a>
</g>
</g>
<!-- Node2 -->
<g id="Node000002" class="node">
<title>Node2</title>
<g id="a_Node000002"><a xlink:href="../../dd/d03/class_slic3r_1_1_g_u_i_1_1_object_list.html#a41e33087567c75bdf5f35f675eeb13e7" target="_top" xlink:title=" ">
<polygon fill="white" stroke="#666666" points="283.25,-79.5 151,-79.5 151,-49 283.25,-49 283.25,-79.5"/>
<text text-anchor="start" x="159" y="-66" font-family="Helvetica,sans-Serif" font-size="10.00">Slic3r::GUI::ObjectList</text>
<text text-anchor="middle" x="217.12" y="-54.75" font-family="Helvetica,sans-Serif" font-size="10.00">::copy_layers_to_clipboard</text>
</a>
</g>
</g>
<!-- Node1&#45;&gt;Node2 -->
<g id="edge1_Node000001_Node000002" class="edge">
<title>Node1&#45;&gt;Node2</title>
<g id="a_edge1_Node000001_Node000002"><a xlink:title=" ">
<path fill="none" stroke="#63b8ff" d="M308.09,-51.36C299.86,-52.54 291.59,-53.72 283.59,-54.87"/>
<polygon fill="#63b8ff" stroke="#63b8ff" points="308.47,-54.7 317.87,-49.82 307.48,-47.77 308.47,-54.7"/>
</a>
</g>
</g>
<!-- Node4 -->
<g id="Node000004" class="node">
<title>Node4</title>
<g id="a_Node000004"><a xlink:href="../../dd/d03/class_slic3r_1_1_g_u_i_1_1_object_list.html#ac35b07ae3af0b1cccee302c32f4ab59d" target="_top" xlink:title=" ">
<polygon fill="white" stroke="#666666" points="275.38,-30.5 158.88,-30.5 158.88,0 275.38,0 275.38,-30.5"/>
<text text-anchor="start" x="166.88" y="-17" font-family="Helvetica,sans-Serif" font-size="10.00">Slic3r::GUI::ObjectList</text>
<text text-anchor="middle" x="217.12" y="-5.75" font-family="Helvetica,sans-Serif" font-size="10.00">::paste_layers_into_list</text>
</a>
</g>
</g>
<!-- Node1&#45;&gt;Node4 -->
<g id="edge3_Node000001_Node000004" class="edge">
<title>Node1&#45;&gt;Node4</title>
<g id="a_edge3_Node000001_Node000004"><a xlink:title=" ">
<path fill="none" stroke="#63b8ff" d="M307.99,-27.61C297.07,-26.11 286.08,-24.6 275.74,-23.17"/>
<polygon fill="#63b8ff" stroke="#63b8ff" points="307.49,-31.21 317.87,-29.11 308.44,-24.28 307.49,-31.21"/>
</a>
</g>
</g>
<!-- Node3 -->
<g id="Node000003" class="node">
<title>Node3</title>
<g id="a_Node000003"><a xlink:href="../../dd/d03/class_slic3r_1_1_g_u_i_1_1_object_list.html#a6ad009341d5e42e79d34d0b47e12eace" target="_top" xlink:title=" ">
<polygon fill="white" stroke="#666666" points="115,-79.5 0,-79.5 0,-49 115,-49 115,-79.5"/>
<text text-anchor="start" x="8" y="-66" font-family="Helvetica,sans-Serif" font-size="10.00">Slic3r::GUI::ObjectList</text>
<text text-anchor="middle" x="57.5" y="-54.75" font-family="Helvetica,sans-Serif" font-size="10.00">::copy_to_clipboard</text>
</a>
</g>
</g>
<!-- Node2&#45;&gt;Node3 -->
<g id="edge2_Node000002_Node000003" class="edge">
<title>Node2&#45;&gt;Node3</title>
<g id="a_edge2_Node000002_Node000003"><a xlink:title=" ">
<path fill="none" stroke="#63b8ff" d="M139.9,-64.25C131.68,-64.25 123.42,-64.25 115.49,-64.25"/>
<polygon fill="#63b8ff" stroke="#63b8ff" points="139.65,-67.75 149.65,-64.25 139.65,-60.75 139.65,-67.75"/>
</a>
</g>
</g>
<!-- Node5 -->
<g id="Node000005" class="node">
<title>Node5</title>
<g id="a_Node000005"><a xlink:href="../../dd/d03/class_slic3r_1_1_g_u_i_1_1_object_list.html#a6efb595508f52cac654a0f077cb89577" target="_top" xlink:title=" ">
<polygon fill="white" stroke="#666666" points="115,-30.5 0,-30.5 0,0 115,0 115,-30.5"/>
<text text-anchor="start" x="8" y="-17" font-family="Helvetica,sans-Serif" font-size="10.00">Slic3r::GUI::ObjectList</text>
<text text-anchor="middle" x="57.5" y="-5.75" font-family="Helvetica,sans-Serif" font-size="10.00">::paste_from_clipboard</text>
</a>
</g>
</g>
<!-- Node4&#45;&gt;Node5 -->
<g id="edge4_Node000004_Node000005" class="edge">
<title>Node4&#45;&gt;Node5</title>
<g id="a_edge4_Node000004_Node000005"><a xlink:title=" ">
<path fill="none" stroke="#63b8ff" d="M147.99,-15.25C137.08,-15.25 125.89,-15.25 115.28,-15.25"/>
<polygon fill="#63b8ff" stroke="#63b8ff" points="147.77,-18.75 157.77,-15.25 147.77,-11.75 147.77,-18.75"/>
</a>
</g>
</g>
</g>
</svg>
