<?xml version="1.0" encoding="UTF-8" standalone="no"?>
<!DOCTYPE svg PUBLIC "-//W3C//DTD SVG 1.1//EN"
 "http://www.w3.org/Graphics/SVG/1.1/DTD/svg11.dtd">
<!-- Generated by graphviz version 8.0.5 (20230430.1635)
 -->
<!-- Title: Eigen::internal::unary_evaluator&lt; Block&lt; const SparseMatrix&lt; _Scalar, _Options, _StorageIndex &gt;, BlockRows, BlockCols, true &gt;, IteratorBased &gt; Pages: 1 -->
<svg width="892pt" height="99pt"
 viewBox="0.00 0.00 891.50 98.50" xmlns="http://www.w3.org/2000/svg" xmlns:xlink="http://www.w3.org/1999/xlink">
<g id="graph0" class="graph" transform="scale(1 1) rotate(0) translate(4 94.5)">
<title>Eigen::internal::unary_evaluator&lt; Block&lt; const SparseMatrix&lt; _Scalar, _Options, _StorageIndex &gt;, BlockRows, BlockCols, true &gt;, IteratorBased &gt;</title>
<!-- Node1 -->
<g id="Node000001" class="node">
<title>Node1</title>
<g id="a_Node000001"><a xlink:title=" ">
<polygon fill="#999999" stroke="#666666" points="883.5,-83 748.25,-83 748.25,-7.5 883.5,-7.5 883.5,-83"/>
<text text-anchor="start" x="756.25" y="-69.5" font-family="Helvetica,sans-Serif" font-size="10.00">Eigen::internal::unary</text>
<text text-anchor="start" x="756.25" y="-58.25" font-family="Helvetica,sans-Serif" font-size="10.00">_evaluator&lt; Block&lt; const</text>
<text text-anchor="start" x="756.25" y="-47" font-family="Helvetica,sans-Serif" font-size="10.00"> SparseMatrix&lt; _Scalar,</text>
<text text-anchor="start" x="756.25" y="-35.75" font-family="Helvetica,sans-Serif" font-size="10.00"> _Options, _StorageIndex</text>
<text text-anchor="start" x="756.25" y="-24.5" font-family="Helvetica,sans-Serif" font-size="10.00"> &gt;, BlockRows, BlockCols,</text>
<text text-anchor="middle" x="815.88" y="-13.25" font-family="Helvetica,sans-Serif" font-size="10.00"> true &gt;, IteratorBased &gt;</text>
</a>
</g>
</g>
<!-- Node2 -->
<g id="Node000002" class="node">
<title>Node2</title>
<g id="a_Node000002"><a xlink:href="../../d7/d33/struct_eigen_1_1internal_1_1evaluator.html" target="_top" xlink:title=" ">
<polygon fill="white" stroke="#666666" points="711.25,-77.38 529.5,-77.38 529.5,-13.12 711.25,-13.12 711.25,-77.38"/>
<text text-anchor="start" x="537.5" y="-63.88" font-family="Helvetica,sans-Serif" font-size="10.00">Eigen::internal::evaluator</text>
<text text-anchor="start" x="537.5" y="-52.62" font-family="Helvetica,sans-Serif" font-size="10.00">&lt; SparseCompressedBase&lt;</text>
<text text-anchor="start" x="537.5" y="-41.38" font-family="Helvetica,sans-Serif" font-size="10.00"> Block&lt; const SparseMatrix</text>
<text text-anchor="start" x="537.5" y="-30.12" font-family="Helvetica,sans-Serif" font-size="10.00">&lt; _Scalar, _Options, _StorageIndex</text>
<text text-anchor="middle" x="620.38" y="-18.88" font-family="Helvetica,sans-Serif" font-size="10.00"> &gt;, BlockRows, BlockCols, true &gt; &gt; &gt;</text>
</a>
</g>
</g>
<!-- Node2&#45;&gt;Node1 -->
<g id="edge1_Node000001_Node000002" class="edge">
<title>Node2&#45;&gt;Node1</title>
<g id="a_edge1_Node000001_Node000002"><a xlink:title=" ">
<path fill="none" stroke="#63b8ff" d="M722.51,-45.25C731.11,-45.25 739.66,-45.25 747.9,-45.25"/>
<polygon fill="#63b8ff" stroke="#63b8ff" points="722.61,-41.75 712.61,-45.25 722.61,-48.75 722.61,-41.75"/>
</a>
</g>
</g>
<!-- Node3 -->
<g id="Node000003" class="node">
<title>Node3</title>
<g id="a_Node000003"><a xlink:href="../../db/dc3/struct_eigen_1_1internal_1_1unary__evaluator.html" target="_top" xlink:title=" ">
<polygon fill="white" stroke="#666666" points="325.12,-90.5 182.38,-90.5 182.38,-60 325.12,-60 325.12,-90.5"/>
<text text-anchor="start" x="190.38" y="-77" font-family="Helvetica,sans-Serif" font-size="10.00">Eigen::internal::unary</text>
<text text-anchor="middle" x="253.75" y="-65.75" font-family="Helvetica,sans-Serif" font-size="10.00">_evaluator&lt; T, Kind, Scalar &gt;</text>
</a>
</g>
</g>
<!-- Node3&#45;&gt;Node2 -->
<g id="edge2_Node000002_Node000003" class="edge">
<title>Node3&#45;&gt;Node2</title>
<g id="a_edge2_Node000002_Node000003"><a xlink:title=" ">
<path fill="none" stroke="#63b8ff" d="M336.31,-72.74C386.85,-70.7 453.05,-67.16 511.5,-61.25 517.25,-60.67 523.15,-60 529.1,-59.27"/>
<polygon fill="#63b8ff" stroke="#63b8ff" points="336.3,-69.27 326.45,-73.16 336.58,-76.27 336.3,-69.27"/>
</a>
</g>
</g>
<!-- Node4 -->
<g id="Node000004" class="node">
<title>Node4</title>
<g id="a_Node000004"><a xlink:href="../../d7/d33/struct_eigen_1_1internal_1_1evaluator.html" target="_top" xlink:title=" ">
<polygon fill="white" stroke="#666666" points="327.75,-24.88 179.75,-24.88 179.75,-5.62 327.75,-5.62 327.75,-24.88"/>
<text text-anchor="middle" x="253.75" y="-11.38" font-family="Helvetica,sans-Serif" font-size="10.00">Eigen::internal::evaluator&lt; T &gt;</text>
</a>
</g>
</g>
<!-- Node4&#45;&gt;Node2 -->
<g id="edge3_Node000002_Node000004" class="edge">
<title>Node4&#45;&gt;Node2</title>
<g id="a_edge3_Node000002_Node000004"><a xlink:title=" ">
<path fill="none" stroke="orange" stroke-dasharray="5,2" d="M339.05,-7.52C389.38,-4.58 454.41,-3.71 511.5,-12.25 517.31,-13.12 523.24,-14.24 529.18,-15.53"/>
<polygon fill="orange" stroke="orange" points="338.98,-4.08 329.22,-8.2 339.42,-11.07 338.98,-4.08"/>
</a>
</g>
<text text-anchor="start" x="345.75" y="-47.75" font-family="Helvetica,sans-Serif" font-size="10.00" fill="grey"> &lt; SparseCompressedBase</text>
<text text-anchor="start" x="345.75" y="-36.5" font-family="Helvetica,sans-Serif" font-size="10.00" fill="grey">&lt; Block&lt; const SparseMatrix</text>
<text text-anchor="start" x="345.75" y="-25.25" font-family="Helvetica,sans-Serif" font-size="10.00" fill="grey">&lt; _Scalar, _Options, _StorageIndex</text>
<text text-anchor="middle" x="428.62" y="-14" font-family="Helvetica,sans-Serif" font-size="10.00" fill="grey"> &gt;, BlockRows, BlockCols, true &gt; &gt; &gt;</text>
</g>
<!-- Node5 -->
<g id="Node000005" class="node">
<title>Node5</title>
<g id="a_Node000005"><a xlink:href="../../db/dc3/struct_eigen_1_1internal_1_1unary__evaluator.html" target="_top" xlink:title=" ">
<polygon fill="white" stroke="#666666" points="142.75,-30.5 0,-30.5 0,0 142.75,0 142.75,-30.5"/>
<text text-anchor="start" x="8" y="-17" font-family="Helvetica,sans-Serif" font-size="10.00">Eigen::internal::unary</text>
<text text-anchor="middle" x="71.38" y="-5.75" font-family="Helvetica,sans-Serif" font-size="10.00">_evaluator&lt; T, Kind, Scalar &gt;</text>
</a>
</g>
</g>
<!-- Node5&#45;&gt;Node4 -->
<g id="edge4_Node000004_Node000005" class="edge">
<title>Node5&#45;&gt;Node4</title>
<g id="a_edge4_Node000004_Node000005"><a xlink:title=" ">
<path fill="none" stroke="#63b8ff" d="M153.89,-15.25C162.43,-15.25 171.07,-15.25 179.51,-15.25"/>
<polygon fill="#63b8ff" stroke="#63b8ff" points="154.15,-11.75 144.15,-15.25 154.15,-18.75 154.15,-11.75"/>
</a>
</g>
</g>
</g>
</svg>
