<?xml version="1.0" encoding="UTF-8" standalone="no"?>
<!DOCTYPE svg PUBLIC "-//W3C//DTD SVG 1.1//EN"
 "http://www.w3.org/Graphics/SVG/1.1/DTD/svg11.dtd">
<!-- Generated by graphviz version 8.0.5 (20230430.1635)
 -->
<!-- Title: Slic3r::GCodeReader::parse_file_raw_internal Pages: 1 -->
<svg width="727pt" height="223pt"
 viewBox="0.00 0.00 727.00 222.50" xmlns="http://www.w3.org/2000/svg" xmlns:xlink="http://www.w3.org/1999/xlink">
<g id="graph0" class="graph" transform="scale(1 1) rotate(0) translate(4 218.5)">
<title>Slic3r::GCodeReader::parse_file_raw_internal</title>
<!-- Node1 -->
<g id="Node000001" class="node">
<title>Node1</title>
<g id="a_Node000001"><a xlink:title=" ">
<polygon fill="#999999" stroke="#666666" points="719,-122.5 597.25,-122.5 597.25,-92 719,-92 719,-122.5"/>
<text text-anchor="start" x="605.25" y="-109" font-family="Helvetica,sans-Serif" font-size="10.00">Slic3r::GCodeReader</text>
<text text-anchor="middle" x="658.12" y="-97.75" font-family="Helvetica,sans-Serif" font-size="10.00">::parse_file_raw_internal</text>
</a>
</g>
</g>
<!-- Node2 -->
<g id="Node000002" class="node">
<title>Node2</title>
<g id="a_Node000002"><a xlink:href="../../d9/dda/class_slic3r_1_1_g_code_reader.html#a0fd806687e87859b756187f6811c82d6" target="_top" xlink:title=" ">
<polygon fill="white" stroke="#666666" points="561.25,-165.5 452.25,-165.5 452.25,-135 561.25,-135 561.25,-165.5"/>
<text text-anchor="start" x="460.25" y="-152" font-family="Helvetica,sans-Serif" font-size="10.00">Slic3r::GCodeReader</text>
<text text-anchor="middle" x="506.75" y="-140.75" font-family="Helvetica,sans-Serif" font-size="10.00">::parse_file_internal</text>
</a>
</g>
</g>
<!-- Node1&#45;&gt;Node2 -->
<g id="edge1_Node000001_Node000002" class="edge">
<title>Node1&#45;&gt;Node2</title>
<g id="a_edge1_Node000001_Node000002"><a xlink:title=" ">
<path fill="none" stroke="#63b8ff" d="M592.49,-125.86C582.09,-128.85 571.42,-131.92 561.31,-134.83"/>
<polygon fill="#63b8ff" stroke="#63b8ff" points="593.13,-129.03 601.77,-122.9 591.2,-122.3 593.13,-129.03"/>
</a>
</g>
</g>
<!-- Node7 -->
<g id="Node000007" class="node">
<title>Node7</title>
<g id="a_Node000007"><a xlink:href="../../d9/dda/class_slic3r_1_1_g_code_reader.html#a59604635eef8ea982cc6c4d0eee9b5b8" target="_top" xlink:title=" ">
<polygon fill="white" stroke="#666666" points="561.25,-98.5 452.25,-98.5 452.25,-68 561.25,-68 561.25,-98.5"/>
<text text-anchor="start" x="460.25" y="-85" font-family="Helvetica,sans-Serif" font-size="10.00">Slic3r::GCodeReader</text>
<text text-anchor="middle" x="506.75" y="-73.75" font-family="Helvetica,sans-Serif" font-size="10.00">::parse_file_raw</text>
</a>
</g>
</g>
<!-- Node1&#45;&gt;Node7 -->
<g id="edge6_Node000001_Node000007" class="edge">
<title>Node1&#45;&gt;Node7</title>
<g id="a_edge6_Node000001_Node000007"><a xlink:title=" ">
<path fill="none" stroke="#63b8ff" d="M586.04,-95.83C577.8,-94.51 569.51,-93.17 561.56,-91.9"/>
<polygon fill="#63b8ff" stroke="#63b8ff" points="585.37,-99.43 595.8,-97.56 586.48,-92.52 585.37,-99.43"/>
</a>
</g>
</g>
<!-- Node3 -->
<g id="Node000003" class="node">
<title>Node3</title>
<g id="a_Node000003"><a xlink:href="../../d9/dda/class_slic3r_1_1_g_code_reader.html#a8d8d5b21c72118ec0a668de1df922a54" target="_top" xlink:title=" ">
<polygon fill="white" stroke="#666666" points="407.62,-214.5 298.62,-214.5 298.62,-184 407.62,-184 407.62,-214.5"/>
<text text-anchor="start" x="306.62" y="-201" font-family="Helvetica,sans-Serif" font-size="10.00">Slic3r::GCodeReader</text>
<text text-anchor="middle" x="353.12" y="-189.75" font-family="Helvetica,sans-Serif" font-size="10.00">::parse_file</text>
</a>
</g>
</g>
<!-- Node2&#45;&gt;Node3 -->
<g id="edge2_Node000002_Node000003" class="edge">
<title>Node2&#45;&gt;Node3</title>
<g id="a_edge2_Node000002_Node000003"><a xlink:title=" ">
<path fill="none" stroke="#63b8ff" d="M446.93,-169.26C432.35,-173.97 416.88,-178.97 402.84,-183.51"/>
<polygon fill="#63b8ff" stroke="#63b8ff" points="447.92,-172.29 456.36,-165.89 445.77,-165.63 447.92,-172.29"/>
</a>
</g>
</g>
<!-- Node6 -->
<g id="Node000006" class="node">
<title>Node6</title>
<g id="a_Node000006"><a xlink:href="../../d9/dda/class_slic3r_1_1_g_code_reader.html#a52b6b43d27094a1dcb49ccfe39582341" target="_top" xlink:title=" ">
<polygon fill="white" stroke="#666666" points="407.62,-165.5 298.62,-165.5 298.62,-135 407.62,-135 407.62,-165.5"/>
<text text-anchor="start" x="306.62" y="-152" font-family="Helvetica,sans-Serif" font-size="10.00">Slic3r::GCodeReader</text>
<text text-anchor="middle" x="353.12" y="-140.75" font-family="Helvetica,sans-Serif" font-size="10.00">::parse_file</text>
</a>
</g>
</g>
<!-- Node2&#45;&gt;Node6 -->
<g id="edge5_Node000002_Node000006" class="edge">
<title>Node2&#45;&gt;Node6</title>
<g id="a_edge5_Node000002_Node000006"><a xlink:title=" ">
<path fill="none" stroke="#63b8ff" d="M441.03,-150.25C430.05,-150.25 418.76,-150.25 408.09,-150.25"/>
<polygon fill="#63b8ff" stroke="#63b8ff" points="440.87,-153.75 450.87,-150.25 440.87,-146.75 440.87,-153.75"/>
</a>
</g>
</g>
<!-- Node4 -->
<g id="Node000004" class="node">
<title>Node4</title>
<g id="a_Node000004"><a xlink:href="../../dc/d9a/class_slic3r_1_1_g_code_processor.html#ab21f67bd38cc69e9c223a7f33472a28e" target="_top" xlink:title=" ">
<polygon fill="white" stroke="#666666" points="254,-100.5 132.25,-100.5 132.25,-70 254,-70 254,-100.5"/>
<text text-anchor="start" x="140.25" y="-87" font-family="Helvetica,sans-Serif" font-size="10.00">Slic3r::GCodeProcessor</text>
<text text-anchor="middle" x="193.12" y="-75.75" font-family="Helvetica,sans-Serif" font-size="10.00">::process_file</text>
</a>
</g>
</g>
<!-- Node3&#45;&gt;Node4 -->
<g id="edge3_Node000003_Node000004" class="edge">
<title>Node3&#45;&gt;Node4</title>
<g id="a_edge3_Node000003_Node000004"><a xlink:title=" ">
<path fill="none" stroke="#63b8ff" d="M297.63,-178.71C295.01,-177.29 292.45,-175.8 290,-174.25 257.02,-153.32 225.07,-120.34 207.66,-100.95"/>
<polygon fill="#63b8ff" stroke="#63b8ff" points="295.84,-182.23 306.36,-183.55 298.96,-175.96 295.84,-182.23"/>
</a>
</g>
</g>
<!-- Node5 -->
<g id="Node000005" class="node">
<title>Node5</title>
<g id="a_Node000005"><a xlink:href="../../d7/d21/class_slic3r_1_1_g_u_i_1_1_plater.html#a01f6f0a17aeb78c12f8fe81539dce6c0" target="_top" xlink:title=" ">
<polygon fill="white" stroke="#666666" points="96.25,-100.5 0,-100.5 0,-70 96.25,-70 96.25,-100.5"/>
<text text-anchor="start" x="8" y="-87" font-family="Helvetica,sans-Serif" font-size="10.00">Slic3r::GUI::Plater</text>
<text text-anchor="middle" x="48.12" y="-75.75" font-family="Helvetica,sans-Serif" font-size="10.00">::load_gcode</text>
</a>
</g>
</g>
<!-- Node4&#45;&gt;Node5 -->
<g id="edge4_Node000004_Node000005" class="edge">
<title>Node4&#45;&gt;Node5</title>
<g id="a_edge4_Node000004_Node000005"><a xlink:title=" ">
<path fill="none" stroke="#63b8ff" d="M121.07,-85.25C112.81,-85.25 104.53,-85.25 96.69,-85.25"/>
<polygon fill="#63b8ff" stroke="#63b8ff" points="120.89,-88.75 130.89,-85.25 120.89,-81.75 120.89,-88.75"/>
</a>
</g>
</g>
<!-- Node7&#45;&gt;Node4 -->
<g id="edge11_Node000007_Node000004" class="edge">
<title>Node7&#45;&gt;Node4</title>
<g id="a_edge11_Node000007_Node000004"><a xlink:title=" ">
<path fill="none" stroke="#63b8ff" d="M440.97,-87.3C432.66,-87.69 424.25,-88.03 416.25,-88.25 361.51,-89.78 299.15,-88.69 254.47,-87.41"/>
<polygon fill="#63b8ff" stroke="#63b8ff" points="441.01,-90.75 450.82,-86.75 440.65,-83.76 441.01,-90.75"/>
</a>
</g>
</g>
<!-- Node8 -->
<g id="Node000008" class="node">
<title>Node8</title>
<g id="a_Node000008"><a xlink:href="../../dc/d9a/class_slic3r_1_1_g_code_processor.html#a3ca397d4ed1c234d6997fcfb1657c3ea" target="_top" xlink:title=" ">
<polygon fill="white" stroke="#666666" points="414.75,-79.5 291.5,-79.5 291.5,-49 414.75,-49 414.75,-79.5"/>
<text text-anchor="start" x="299.5" y="-66" font-family="Helvetica,sans-Serif" font-size="10.00">Slic3r::GCodeProcessor</text>
<text text-anchor="middle" x="353.12" y="-54.75" font-family="Helvetica,sans-Serif" font-size="10.00">::apply_config_kissslicer</text>
</a>
</g>
</g>
<!-- Node7&#45;&gt;Node8 -->
<g id="edge7_Node000007_Node000008" class="edge">
<title>Node7&#45;&gt;Node8</title>
<g id="a_edge7_Node000007_Node000008"><a xlink:title=" ">
<path fill="none" stroke="#63b8ff" d="M441.08,-75.15C432.45,-74.06 423.63,-72.96 415.07,-71.89"/>
<polygon fill="#63b8ff" stroke="#63b8ff" points="440.51,-78.73 450.87,-76.5 441.38,-71.78 440.51,-78.73"/>
</a>
</g>
</g>
<!-- Node9 -->
<g id="Node000009" class="node">
<title>Node9</title>
<g id="a_Node000009"><a xlink:href="../../dc/d9a/class_slic3r_1_1_g_code_processor.html#a81fb8b096b360333cc17a35307aab153" target="_top" xlink:title=" ">
<polygon fill="white" stroke="#666666" points="416.25,-30.5 290,-30.5 290,0 416.25,0 416.25,-30.5"/>
<text text-anchor="start" x="298" y="-17" font-family="Helvetica,sans-Serif" font-size="10.00">Slic3r::GCodeProcessor</text>
<text text-anchor="middle" x="353.12" y="-5.75" font-family="Helvetica,sans-Serif" font-size="10.00">::apply_config_simplify3d</text>
</a>
</g>
</g>
<!-- Node7&#45;&gt;Node9 -->
<g id="edge9_Node000007_Node000009" class="edge">
<title>Node7&#45;&gt;Node9</title>
<g id="a_edge9_Node000007_Node000009"><a xlink:title=" ">
<path fill="none" stroke="#63b8ff" d="M464.89,-62.93C449.72,-55.56 432.29,-47.32 416.25,-40.25 409.12,-37.11 401.47,-33.9 394.06,-30.87"/>
<polygon fill="#63b8ff" stroke="#63b8ff" points="462.98,-66.38 473.5,-67.62 466.05,-60.09 462.98,-66.38"/>
</a>
</g>
</g>
<!-- Node8&#45;&gt;Node4 -->
<g id="edge8_Node000008_Node000004" class="edge">
<title>Node8&#45;&gt;Node4</title>
<g id="a_edge8_Node000008_Node000004"><a xlink:title=" ">
<path fill="none" stroke="#63b8ff" d="M280.16,-73.81C271.51,-74.97 262.73,-76.13 254.27,-77.26"/>
<polygon fill="#63b8ff" stroke="#63b8ff" points="280.59,-77.16 290.04,-72.37 279.66,-70.22 280.59,-77.16"/>
</a>
</g>
</g>
<!-- Node9&#45;&gt;Node4 -->
<g id="edge10_Node000009_Node000004" class="edge">
<title>Node9&#45;&gt;Node4</title>
<g id="a_edge10_Node000009_Node000004"><a xlink:title=" ">
<path fill="none" stroke="#63b8ff" d="M302.06,-35.11C297.97,-36.82 293.91,-38.55 290,-40.25 268.59,-49.57 244.83,-60.72 226.32,-69.59"/>
<polygon fill="#63b8ff" stroke="#63b8ff" points="303.31,-37.97 311.22,-30.92 300.64,-31.5 303.31,-37.97"/>
</a>
</g>
</g>
</g>
</svg>
