<?xml version="1.0" encoding="UTF-8" standalone="no"?>
<!DOCTYPE svg PUBLIC "-//W3C//DTD SVG 1.1//EN"
 "http://www.w3.org/Graphics/SVG/1.1/DTD/svg11.dtd">
<!-- Generated by graphviz version 8.0.5 (20230430.1635)
 -->
<!-- Title: libnest2d::placers::EdgeCache::corners Pages: 1 -->
<svg width="506pt" height="39pt"
 viewBox="0.00 0.00 505.50 38.50" xmlns="http://www.w3.org/2000/svg" xmlns:xlink="http://www.w3.org/1999/xlink">
<g id="graph0" class="graph" transform="scale(1 1) rotate(0) translate(4 34.5)">
<title>libnest2d::placers::EdgeCache::corners</title>
<!-- Node1 -->
<g id="Node000001" class="node">
<title>Node1</title>
<g id="a_Node000001"><a xlink:title="Get the normalized distance values for each vertex.">
<polygon fill="#999999" stroke="#666666" points="111.25,-30.5 0,-30.5 0,0 111.25,0 111.25,-30.5"/>
<text text-anchor="start" x="8" y="-17" font-family="Helvetica,sans-Serif" font-size="10.00">libnest2d::placers</text>
<text text-anchor="middle" x="55.62" y="-5.75" font-family="Helvetica,sans-Serif" font-size="10.00">::EdgeCache::corners</text>
</a>
</g>
</g>
<!-- Node2 -->
<g id="Node000002" class="node">
<title>Node2</title>
<g id="a_Node000002"><a xlink:href="../../dc/d80/classlibnest2d_1_1placers_1_1_edge_cache.html#af53a9eaf0c51f68d881ee5778aed8661" target="_top" xlink:title=" ">
<polygon fill="white" stroke="#666666" points="282.5,-30.5 147.25,-30.5 147.25,0 282.5,0 282.5,-30.5"/>
<text text-anchor="start" x="155.25" y="-17" font-family="Helvetica,sans-Serif" font-size="10.00">libnest2d::placers</text>
<text text-anchor="middle" x="214.88" y="-5.75" font-family="Helvetica,sans-Serif" font-size="10.00">::EdgeCache::fetchCorners</text>
</a>
</g>
</g>
<!-- Node1&#45;&gt;Node2 -->
<g id="edge1_Node000001_Node000002" class="edge">
<title>Node1&#45;&gt;Node2</title>
<g id="a_edge1_Node000001_Node000002"><a xlink:title=" ">
<path fill="none" stroke="#63b8ff" d="M111.62,-15.25C119.57,-15.25 127.87,-15.25 136.15,-15.25"/>
<polygon fill="#63b8ff" stroke="#63b8ff" points="136.01,-18.75 146.01,-15.25 136.01,-11.75 136.01,-18.75"/>
</a>
</g>
</g>
<!-- Node3 -->
<g id="Node000003" class="node">
<title>Node3</title>
<g id="a_Node000003"><a xlink:href="../../dc/d80/classlibnest2d_1_1placers_1_1_edge_cache.html#abc17cb51a7ea6ca2bea8858d4e13b720" target="_top" xlink:title=" ">
<polygon fill="white" stroke="#666666" points="421.5,-30.5 318.5,-30.5 318.5,0 421.5,0 421.5,-30.5"/>
<text text-anchor="start" x="326.5" y="-17" font-family="Helvetica,sans-Serif" font-size="10.00">libnest2d::placers</text>
<text text-anchor="middle" x="370" y="-5.75" font-family="Helvetica,sans-Serif" font-size="10.00">::EdgeCache::stride</text>
</a>
</g>
</g>
<!-- Node2&#45;&gt;Node3 -->
<g id="edge2_Node000002_Node000003" class="edge">
<title>Node2&#45;&gt;Node3</title>
<g id="a_edge2_Node000002_Node000003"><a xlink:title=" ">
<path fill="none" stroke="#63b8ff" d="M282.59,-15.25C290.79,-15.25 299.15,-15.25 307.27,-15.25"/>
<polygon fill="#63b8ff" stroke="#63b8ff" points="307.16,-18.75 317.16,-15.25 307.16,-11.75 307.16,-18.75"/>
</a>
</g>
</g>
<!-- Node4 -->
<g id="Node000004" class="node">
<title>Node4</title>
<g id="a_Node000004"><a xlink:href="../../d4/df0/_array_cwise_unary_ops_8h.html#ac805f9c4e64d7f48898ac876c0a541e7" target="_top" xlink:title=" ">
<polygon fill="white" stroke="#666666" points="497.5,-24.88 457.5,-24.88 457.5,-5.63 497.5,-5.63 497.5,-24.88"/>
<text text-anchor="middle" x="477.5" y="-11.38" font-family="Helvetica,sans-Serif" font-size="10.00">round</text>
</a>
</g>
</g>
<!-- Node3&#45;&gt;Node4 -->
<g id="edge3_Node000003_Node000004" class="edge">
<title>Node3&#45;&gt;Node4</title>
<g id="a_edge3_Node000003_Node000004"><a xlink:title=" ">
<path fill="none" stroke="#63b8ff" d="M421.9,-15.25C430.22,-15.25 438.61,-15.25 446.23,-15.25"/>
<polygon fill="#63b8ff" stroke="#63b8ff" points="446.1,-18.75 456.1,-15.25 446.1,-11.75 446.1,-18.75"/>
</a>
</g>
</g>
</g>
</svg>
