<?xml version="1.0" encoding="UTF-8" standalone="no"?>
<!DOCTYPE svg PUBLIC "-//W3C//DTD SVG 1.1//EN"
 "http://www.w3.org/Graphics/SVG/1.1/DTD/svg11.dtd">
<!-- Generated by graphviz version 8.0.5 (20230430.1635)
 -->
<!-- Title: Slic3r::DoubleSlider::Control::get_label Pages: 1 -->
<svg width="1009pt" height="179pt"
 viewBox="0.00 0.00 1008.75 179.12" xmlns="http://www.w3.org/2000/svg" xmlns:xlink="http://www.w3.org/1999/xlink">
<g id="graph0" class="graph" transform="scale(1 1) rotate(0) translate(4 175.12)">
<title>Slic3r::DoubleSlider::Control::get_label</title>
<!-- Node1 -->
<g id="Node000001" class="node">
<title>Node1</title>
<g id="a_Node000001"><a xlink:title=" ">
<polygon fill="#999999" stroke="#666666" points="1000.75,-101.12 898.5,-101.12 898.5,-70.62 1000.75,-70.62 1000.75,-101.12"/>
<text text-anchor="start" x="906.5" y="-87.62" font-family="Helvetica,sans-Serif" font-size="10.00">Slic3r::DoubleSlider</text>
<text text-anchor="middle" x="949.62" y="-76.38" font-family="Helvetica,sans-Serif" font-size="10.00">::Control::get_label</text>
</a>
</g>
</g>
<!-- Node2 -->
<g id="Node000002" class="node">
<title>Node2</title>
<g id="a_Node000002"><a xlink:href="../../d2/da4/class_slic3r_1_1_double_slider_1_1_control.html#a06f5b1d7dbc63af7d8708e9fd470dd9c" target="_top" xlink:title=" ">
<polygon fill="white" stroke="#666666" points="862.5,-101.12 739.25,-101.12 739.25,-70.62 862.5,-70.62 862.5,-101.12"/>
<text text-anchor="start" x="747.25" y="-87.62" font-family="Helvetica,sans-Serif" font-size="10.00">Slic3r::DoubleSlider</text>
<text text-anchor="middle" x="800.88" y="-76.38" font-family="Helvetica,sans-Serif" font-size="10.00">::Control::draw_tick_text</text>
</a>
</g>
</g>
<!-- Node1&#45;&gt;Node2 -->
<g id="edge1_Node000001_Node000002" class="edge">
<title>Node1&#45;&gt;Node2</title>
<g id="a_edge1_Node000001_Node000002"><a xlink:title=" ">
<path fill="none" stroke="#63b8ff" d="M887.27,-85.88C879.2,-85.88 870.93,-85.88 862.86,-85.88"/>
<polygon fill="#63b8ff" stroke="#63b8ff" points="887.12,-89.38 897.12,-85.88 887.12,-82.38 887.12,-89.38"/>
</a>
</g>
</g>
<!-- Node3 -->
<g id="Node000003" class="node">
<title>Node3</title>
<g id="a_Node000003"><a xlink:href="../../d2/da4/class_slic3r_1_1_double_slider_1_1_control.html#a5f6d9d0bbb6ea8fa4437538e5b6fe22f" target="_top" xlink:title=" ">
<polygon fill="white" stroke="#666666" points="688.25,-171.12 583.75,-171.12 583.75,-140.62 688.25,-140.62 688.25,-171.12"/>
<text text-anchor="start" x="591.75" y="-157.62" font-family="Helvetica,sans-Serif" font-size="10.00">Slic3r::DoubleSlider</text>
<text text-anchor="middle" x="636" y="-146.38" font-family="Helvetica,sans-Serif" font-size="10.00">::Control::draw_ruler</text>
</a>
</g>
</g>
<!-- Node2&#45;&gt;Node3 -->
<g id="edge2_Node000002_Node000003" class="edge">
<title>Node2&#45;&gt;Node3</title>
<g id="a_edge2_Node000002_Node000003"><a xlink:title=" ">
<path fill="none" stroke="#63b8ff" d="M753.53,-105.79C728.13,-116.71 697.09,-130.05 673.43,-140.22"/>
<polygon fill="#63b8ff" stroke="#63b8ff" points="754.52,-108.75 762.32,-101.58 751.75,-102.32 754.52,-108.75"/>
</a>
</g>
</g>
<!-- Node7 -->
<g id="Node000007" class="node">
<title>Node7</title>
<g id="a_Node000007"><a xlink:href="../../d2/da4/class_slic3r_1_1_double_slider_1_1_control.html#ad5c08dc96a5e9bf4bc54238eeddd1812" target="_top" xlink:title=" ">
<polygon fill="white" stroke="#666666" points="703.25,-101.12 568.75,-101.12 568.75,-70.62 703.25,-70.62 703.25,-101.12"/>
<text text-anchor="start" x="576.75" y="-87.62" font-family="Helvetica,sans-Serif" font-size="10.00">Slic3r::DoubleSlider</text>
<text text-anchor="middle" x="636" y="-76.38" font-family="Helvetica,sans-Serif" font-size="10.00">::Control::draw_thumb_text</text>
</a>
</g>
</g>
<!-- Node2&#45;&gt;Node7 -->
<g id="edge6_Node000002_Node000007" class="edge">
<title>Node2&#45;&gt;Node7</title>
<g id="a_edge6_Node000002_Node000007"><a xlink:title=" ">
<path fill="none" stroke="#63b8ff" d="M727.88,-85.88C719.82,-85.88 711.63,-85.88 703.64,-85.88"/>
<polygon fill="#63b8ff" stroke="#63b8ff" points="727.76,-89.38 737.76,-85.88 727.76,-82.38 727.76,-89.38"/>
</a>
</g>
</g>
<!-- Node10 -->
<g id="Node000010" class="node">
<title>Node10</title>
<g id="a_Node000010"><a xlink:href="../../d2/da4/class_slic3r_1_1_double_slider_1_1_control.html#a6f990fd8b8f51296d69446813af7e2d7" target="_top" xlink:title=" ">
<polygon fill="white" stroke="#666666" points="526.38,-41.75 421.12,-41.75 421.12,0 526.38,0 526.38,-41.75"/>
<text text-anchor="start" x="429.12" y="-28.25" font-family="Helvetica,sans-Serif" font-size="10.00">Slic3r::DoubleSlider</text>
<text text-anchor="start" x="429.12" y="-17" font-family="Helvetica,sans-Serif" font-size="10.00">::Control::draw_tick</text>
<text text-anchor="middle" x="473.75" y="-5.75" font-family="Helvetica,sans-Serif" font-size="10.00">_on_mouse_position</text>
</a>
</g>
</g>
<!-- Node2&#45;&gt;Node10 -->
<g id="edge10_Node000002_Node000010" class="edge">
<title>Node2&#45;&gt;Node10</title>
<g id="a_edge10_Node000002_Node000010"><a xlink:title=" ">
<path fill="none" stroke="#63b8ff" d="M728.51,-67.59C720.01,-65.58 711.45,-63.63 703.25,-61.88 642.95,-48.99 573.11,-36.86 526.67,-29.19"/>
<polygon fill="#63b8ff" stroke="#63b8ff" points="727.65,-71.22 738.19,-70.15 729.29,-64.42 727.65,-71.22"/>
</a>
</g>
</g>
<!-- Node4 -->
<g id="Node000004" class="node">
<title>Node4</title>
<g id="a_Node000004"><a xlink:href="../../d2/da4/class_slic3r_1_1_double_slider_1_1_control.html#a5a346920d9ddbb8429455f453fb2dc80" target="_top" xlink:title=" ">
<polygon fill="white" stroke="#666666" points="378.75,-90.12 276.5,-90.12 276.5,-59.62 378.75,-59.62 378.75,-90.12"/>
<text text-anchor="start" x="284.5" y="-76.62" font-family="Helvetica,sans-Serif" font-size="10.00">Slic3r::DoubleSlider</text>
<text text-anchor="middle" x="327.62" y="-65.38" font-family="Helvetica,sans-Serif" font-size="10.00">::Control::render</text>
</a>
</g>
</g>
<!-- Node3&#45;&gt;Node4 -->
<g id="edge3_Node000003_Node000004" class="edge">
<title>Node3&#45;&gt;Node4</title>
<g id="a_edge3_Node000003_Node000004"><a xlink:title=" ">
<path fill="none" stroke="#63b8ff" d="M572.83,-164.22C527.47,-167.82 465.34,-167.48 414.75,-147.88 384.05,-135.98 356.55,-108.26 341.27,-90.6"/>
<polygon fill="#63b8ff" stroke="#63b8ff" points="573.03,-167.63 582.69,-163.26 572.42,-160.66 573.03,-167.63"/>
</a>
</g>
</g>
<!-- Node5 -->
<g id="Node000005" class="node">
<title>Node5</title>
<g id="a_Node000005"><a xlink:href="../../d2/da4/class_slic3r_1_1_double_slider_1_1_control.html#a3cdc7b4be9ccd1c5336ba423ebc0609b" target="_top" xlink:title=" ">
<polygon fill="white" stroke="#666666" points="240.5,-90.12 138.25,-90.12 138.25,-59.62 240.5,-59.62 240.5,-90.12"/>
<text text-anchor="start" x="146.25" y="-76.62" font-family="Helvetica,sans-Serif" font-size="10.00">Slic3r::DoubleSlider</text>
<text text-anchor="middle" x="189.38" y="-65.38" font-family="Helvetica,sans-Serif" font-size="10.00">::Control::OnPaint</text>
</a>
</g>
</g>
<!-- Node4&#45;&gt;Node5 -->
<g id="edge4_Node000004_Node000005" class="edge">
<title>Node4&#45;&gt;Node5</title>
<g id="a_edge4_Node000004_Node000005"><a xlink:title=" ">
<path fill="none" stroke="#63b8ff" d="M265.31,-74.88C257.17,-74.88 248.9,-74.88 240.97,-74.88"/>
<polygon fill="#63b8ff" stroke="#63b8ff" points="265.28,-78.38 275.28,-74.88 265.28,-71.38 265.28,-78.38"/>
</a>
</g>
</g>
<!-- Node6 -->
<g id="Node000006" class="node">
<title>Node6</title>
<g id="a_Node000006"><a xlink:href="../../d2/da4/class_slic3r_1_1_double_slider_1_1_control.html#a859295f1f1108ce127eb008d3a65b9f3" target="_top" xlink:title=" ">
<polygon fill="white" stroke="#666666" points="102.25,-90.12 0,-90.12 0,-59.62 102.25,-59.62 102.25,-90.12"/>
<text text-anchor="start" x="8" y="-76.62" font-family="Helvetica,sans-Serif" font-size="10.00">Slic3r::DoubleSlider</text>
<text text-anchor="middle" x="51.12" y="-65.38" font-family="Helvetica,sans-Serif" font-size="10.00">::Control::Control</text>
</a>
</g>
</g>
<!-- Node5&#45;&gt;Node6 -->
<g id="edge5_Node000005_Node000006" class="edge">
<title>Node5&#45;&gt;Node6</title>
<g id="a_edge5_Node000005_Node000006"><a xlink:title=" ">
<path fill="none" stroke="#63b8ff" d="M127.06,-74.88C118.92,-74.88 110.65,-74.88 102.72,-74.88"/>
<polygon fill="#63b8ff" stroke="#63b8ff" points="127.03,-78.38 137.03,-74.88 127.03,-71.38 127.03,-78.38"/>
</a>
</g>
</g>
<!-- Node8 -->
<g id="Node000008" class="node">
<title>Node8</title>
<g id="a_Node000008"><a xlink:href="../../d2/da4/class_slic3r_1_1_double_slider_1_1_control.html#abc8bb77ef8d6b5d431d1adf2f469a86b" target="_top" xlink:title=" ">
<polygon fill="white" stroke="#666666" points="530.12,-139.12 417.38,-139.12 417.38,-108.62 530.12,-108.62 530.12,-139.12"/>
<text text-anchor="start" x="425.38" y="-125.62" font-family="Helvetica,sans-Serif" font-size="10.00">Slic3r::DoubleSlider</text>
<text text-anchor="middle" x="473.75" y="-114.38" font-family="Helvetica,sans-Serif" font-size="10.00">::Control::draw_thumb</text>
</a>
</g>
</g>
<!-- Node7&#45;&gt;Node8 -->
<g id="edge7_Node000007_Node000008" class="edge">
<title>Node7&#45;&gt;Node8</title>
<g id="a_edge7_Node000007_Node000008"><a xlink:title=" ">
<path fill="none" stroke="#63b8ff" d="M558.35,-104.05C548.95,-106.28 539.5,-108.52 530.5,-110.66"/>
<polygon fill="#63b8ff" stroke="#63b8ff" points="558.97,-107.26 567.89,-101.55 557.36,-100.45 558.97,-107.26"/>
</a>
</g>
</g>
<!-- Node9 -->
<g id="Node000009" class="node">
<title>Node9</title>
<g id="a_Node000009"><a xlink:href="../../d2/da4/class_slic3r_1_1_double_slider_1_1_control.html#a810bf5701000a97a063e42046ee0d4bc" target="_top" xlink:title=" ">
<polygon fill="white" stroke="#666666" points="532.75,-90.12 414.75,-90.12 414.75,-59.62 532.75,-59.62 532.75,-90.12"/>
<text text-anchor="start" x="422.75" y="-76.62" font-family="Helvetica,sans-Serif" font-size="10.00">Slic3r::DoubleSlider</text>
<text text-anchor="middle" x="473.75" y="-65.38" font-family="Helvetica,sans-Serif" font-size="10.00">::Control::draw_thumbs</text>
</a>
</g>
</g>
<!-- Node7&#45;&gt;Node9 -->
<g id="edge8_Node000007_Node000009" class="edge">
<title>Node7&#45;&gt;Node9</title>
<g id="a_edge8_Node000007_Node000009"><a xlink:title=" ">
<path fill="none" stroke="#63b8ff" d="M557.66,-80.57C549.43,-80 541.16,-79.43 533.19,-78.89"/>
<polygon fill="#63b8ff" stroke="#63b8ff" points="557.22,-84.11 567.43,-81.31 557.69,-77.13 557.22,-84.11"/>
</a>
</g>
</g>
<!-- Node9&#45;&gt;Node4 -->
<g id="edge9_Node000009_Node000004" class="edge">
<title>Node9&#45;&gt;Node4</title>
<g id="a_edge9_Node000009_Node000004"><a xlink:title=" ">
<path fill="none" stroke="#63b8ff" d="M403.73,-74.88C395.45,-74.88 387.12,-74.88 379.17,-74.88"/>
<polygon fill="#63b8ff" stroke="#63b8ff" points="403.54,-78.38 413.54,-74.88 403.54,-71.38 403.54,-78.38"/>
</a>
</g>
</g>
<!-- Node10&#45;&gt;Node4 -->
<g id="edge11_Node000010_Node000004" class="edge">
<title>Node10&#45;&gt;Node4</title>
<g id="a_edge11_Node000010_Node000004"><a xlink:title=" ">
<path fill="none" stroke="#63b8ff" d="M410.54,-44.18C397.07,-49.23 383.13,-54.45 370.65,-59.13"/>
<polygon fill="#63b8ff" stroke="#63b8ff" points="411.58,-47.16 419.72,-40.37 409.13,-40.6 411.58,-47.16"/>
</a>
</g>
</g>
</g>
</svg>
