<?xml version="1.0" encoding="UTF-8" standalone="no"?>
<!DOCTYPE svg PUBLIC "-//W3C//DTD SVG 1.1//EN"
 "http://www.w3.org/Graphics/SVG/1.1/DTD/svg11.dtd">
<!-- Generated by graphviz version 8.0.5 (20230430.1635)
 -->
<!-- Title: Slic3r::DoubleSlider::Control::draw_colored_band Pages: 1 -->
<svg width="604pt" height="316pt"
 viewBox="0.00 0.00 603.75 316.12" xmlns="http://www.w3.org/2000/svg" xmlns:xlink="http://www.w3.org/1999/xlink">
<g id="graph0" class="graph" transform="scale(1 1) rotate(0) translate(4 312.12)">
<title>Slic3r::DoubleSlider::Control::draw_colored_band</title>
<!-- Node1 -->
<g id="Node000001" class="node">
<title>Node1</title>
<g id="a_Node000001"><a xlink:title=" ">
<polygon fill="#999999" stroke="#666666" points="143.5,-164.12 0,-164.12 0,-133.62 143.5,-133.62 143.5,-164.12"/>
<text text-anchor="start" x="8" y="-150.62" font-family="Helvetica,sans-Serif" font-size="10.00">Slic3r::DoubleSlider</text>
<text text-anchor="middle" x="71.75" y="-139.38" font-family="Helvetica,sans-Serif" font-size="10.00">::Control::draw_colored_band</text>
</a>
</g>
</g>
<!-- Node2 -->
<g id="Node000002" class="node">
<title>Node2</title>
<g id="a_Node000002"><a xlink:href="../../d7/de0/class_slic3r_1_1_double_slider_1_1_tick_code_info.html#a9386261e72c0ad1037bf35251cc813b3" target="_top" xlink:title=" ">
<polygon fill="white" stroke="#666666" points="294.5,-308.12 181,-308.12 181,-277.62 294.5,-277.62 294.5,-308.12"/>
<text text-anchor="start" x="189" y="-294.62" font-family="Helvetica,sans-Serif" font-size="10.00">Slic3r::DoubleSlider</text>
<text text-anchor="middle" x="237.75" y="-283.38" font-family="Helvetica,sans-Serif" font-size="10.00">::TickCodeInfo::empty</text>
</a>
</g>
</g>
<!-- Node1&#45;&gt;Node2 -->
<g id="edge1_Node000001_Node000002" class="edge">
<title>Node1&#45;&gt;Node2</title>
<g id="a_edge1_Node000001_Node000002"><a xlink:title=" ">
<path fill="none" stroke="#63b8ff" d="M83.14,-164.53C100.47,-189.57 137.53,-238.89 179.5,-268.88 180.98,-269.93 182.51,-270.95 184.08,-271.94"/>
<polygon fill="#63b8ff" stroke="#63b8ff" points="181.99,-275.34 192.42,-277.2 185.42,-269.24 181.99,-275.34"/>
</a>
</g>
</g>
<!-- Node3 -->
<g id="Node000003" class="node">
<title>Node3</title>
<g id="a_Node000003"><a xlink:href="../../d2/da4/class_slic3r_1_1_double_slider_1_1_control.html#a6ae5f97a70b72bef3bdf1758b304032f" target="_top" xlink:title=" ">
<polygon fill="white" stroke="#666666" points="296,-259.75 179.5,-259.75 179.5,-218 296,-218 296,-259.75"/>
<text text-anchor="start" x="187.5" y="-246.25" font-family="Helvetica,sans-Serif" font-size="10.00">Slic3r::DoubleSlider</text>
<text text-anchor="start" x="187.5" y="-235" font-family="Helvetica,sans-Serif" font-size="10.00">::Control::get_color</text>
<text text-anchor="middle" x="237.75" y="-223.75" font-family="Helvetica,sans-Serif" font-size="10.00">_for_color_change_tick</text>
</a>
</g>
</g>
<!-- Node1&#45;&gt;Node3 -->
<g id="edge2_Node000001_Node000003" class="edge">
<title>Node1&#45;&gt;Node3</title>
<g id="a_edge2_Node000001_Node000003"><a xlink:title=" ">
<path fill="none" stroke="#63b8ff" d="M99.83,-164.39C121.34,-176.63 152.22,-194.07 179.5,-208.88 181.71,-210.07 183.96,-211.29 186.24,-212.51"/>
<polygon fill="#63b8ff" stroke="#63b8ff" points="184.23,-215.94 194.71,-217.55 187.52,-209.76 184.23,-215.94"/>
</a>
</g>
</g>
<!-- Node4 -->
<g id="Node000004" class="node">
<title>Node4</title>
<g id="a_Node000004"><a xlink:href="../../d2/da4/class_slic3r_1_1_double_slider_1_1_control.html#adca19ca0b1cac5b4c9bbcfad9808fa30" target="_top" xlink:title=" ">
<polygon fill="white" stroke="#666666" points="293.38,-199.75 182.12,-199.75 182.12,-158 293.38,-158 293.38,-199.75"/>
<text text-anchor="start" x="190.12" y="-186.25" font-family="Helvetica,sans-Serif" font-size="10.00">Slic3r::DoubleSlider</text>
<text text-anchor="start" x="190.12" y="-175" font-family="Helvetica,sans-Serif" font-size="10.00">::Control::get_color</text>
<text text-anchor="middle" x="237.75" y="-163.75" font-family="Helvetica,sans-Serif" font-size="10.00">_for_tool_change_tick</text>
</a>
</g>
</g>
<!-- Node1&#45;&gt;Node4 -->
<g id="edge3_Node000001_Node000004" class="edge">
<title>Node1&#45;&gt;Node4</title>
<g id="a_edge3_Node000001_Node000004"><a xlink:title=" ">
<path fill="none" stroke="#63b8ff" d="M143.73,-161.86C152.94,-163.54 162.34,-165.26 171.45,-166.93"/>
<polygon fill="#63b8ff" stroke="#63b8ff" points="170.51,-170.5 180.98,-168.86 171.77,-163.61 170.51,-170.5"/>
</a>
</g>
</g>
<!-- Node5 -->
<g id="Node000005" class="node">
<title>Node5</title>
<g id="a_Node000005"><a xlink:href="../../d2/da4/class_slic3r_1_1_double_slider_1_1_control.html#a7523c2b33dc674d3a816b5ae15bdd4df" target="_top" xlink:title=" ">
<polygon fill="white" stroke="#666666" points="292.62,-139.75 182.88,-139.75 182.88,-98 292.62,-98 292.62,-139.75"/>
<text text-anchor="start" x="190.88" y="-126.25" font-family="Helvetica,sans-Serif" font-size="10.00">Slic3r::DoubleSlider</text>
<text text-anchor="start" x="190.88" y="-115" font-family="Helvetica,sans-Serif" font-size="10.00">::Control::get_colored</text>
<text text-anchor="middle" x="237.75" y="-103.75" font-family="Helvetica,sans-Serif" font-size="10.00">_band_rect</text>
</a>
</g>
</g>
<!-- Node1&#45;&gt;Node5 -->
<g id="edge4_Node000001_Node000005" class="edge">
<title>Node1&#45;&gt;Node5</title>
<g id="a_edge4_Node000001_Node000005"><a xlink:title=" ">
<path fill="none" stroke="#63b8ff" d="M143.73,-135.89C153.06,-134.18 162.59,-132.44 171.81,-130.75"/>
<polygon fill="#63b8ff" stroke="#63b8ff" points="172.27,-134.05 181.48,-128.8 171.01,-127.16 172.27,-134.05"/>
</a>
</g>
</g>
<!-- Node7 -->
<g id="Node000007" class="node">
<title>Node7</title>
<g id="a_Node000007"><a xlink:href="../../d2/da4/class_slic3r_1_1_double_slider_1_1_control.html#ae2e0d1c5e726809705eba9b957badb67" target="_top" xlink:title=" ">
<polygon fill="white" stroke="#666666" points="451.88,-85.12 337.62,-85.12 337.62,-54.62 451.88,-54.62 451.88,-85.12"/>
<text text-anchor="start" x="345.62" y="-71.62" font-family="Helvetica,sans-Serif" font-size="10.00">Slic3r::DoubleSlider</text>
<text text-anchor="middle" x="394.75" y="-60.38" font-family="Helvetica,sans-Serif" font-size="10.00">::Control::is_horizontal</text>
</a>
</g>
</g>
<!-- Node1&#45;&gt;Node7 -->
<g id="edge12_Node000001_Node000007" class="edge">
<title>Node1&#45;&gt;Node7</title>
<g id="a_edge12_Node000001_Node000007"><a xlink:title=" ">
<path fill="none" stroke="#63b8ff" d="M93.99,-133.32C114.69,-119.08 147.62,-98.75 179.5,-88.88 227.25,-74.09 283.63,-69.57 326.57,-68.63"/>
<polygon fill="#63b8ff" stroke="#63b8ff" points="326.52,-72.11 336.47,-68.46 326.41,-65.11 326.52,-72.11"/>
</a>
</g>
</g>
<!-- Node8 -->
<g id="Node000008" class="node">
<title>Node8</title>
<g id="a_Node000008"><a xlink:href="../../d2/da4/class_slic3r_1_1_double_slider_1_1_control.html#a0fbc80e9e28a1c2a999303d7bbcead87" target="_top" xlink:title=" ">
<polygon fill="white" stroke="#666666" points="293.75,-41.75 181.75,-41.75 181.75,0 293.75,0 293.75,-41.75"/>
<text text-anchor="start" x="189.75" y="-28.25" font-family="Helvetica,sans-Serif" font-size="10.00">Slic3r::DoubleSlider</text>
<text text-anchor="start" x="189.75" y="-17" font-family="Helvetica,sans-Serif" font-size="10.00">::Control::get_position</text>
<text text-anchor="middle" x="237.75" y="-5.75" font-family="Helvetica,sans-Serif" font-size="10.00">_from_value</text>
</a>
</g>
</g>
<!-- Node1&#45;&gt;Node8 -->
<g id="edge8_Node000001_Node000008" class="edge">
<title>Node1&#45;&gt;Node8</title>
<g id="a_edge8_Node000001_Node000008"><a xlink:title=" ">
<path fill="none" stroke="#63b8ff" d="M89.03,-133.15C109.36,-113.87 145.6,-80.73 179.5,-55.88 183.09,-53.24 186.89,-50.61 190.75,-48.05"/>
<polygon fill="#63b8ff" stroke="#63b8ff" points="192.3,-50.56 198.81,-42.2 188.51,-44.68 192.3,-50.56"/>
</a>
</g>
</g>
<!-- Node6 -->
<g id="Node000006" class="node">
<title>Node6</title>
<g id="a_Node000006"><a xlink:href="../../d2/da4/class_slic3r_1_1_double_slider_1_1_control.html#a51e972a9579cd6bcb23a60cd2f64ac0a" target="_top" xlink:title=" ">
<polygon fill="white" stroke="#666666" points="595.75,-82.12 493.5,-82.12 493.5,-51.62 595.75,-51.62 595.75,-82.12"/>
<text text-anchor="start" x="501.5" y="-68.62" font-family="Helvetica,sans-Serif" font-size="10.00">Slic3r::DoubleSlider</text>
<text text-anchor="middle" x="544.62" y="-57.38" font-family="Helvetica,sans-Serif" font-size="10.00">::Control::get_size</text>
</a>
</g>
</g>
<!-- Node5&#45;&gt;Node6 -->
<g id="edge5_Node000005_Node000006" class="edge">
<title>Node5&#45;&gt;Node6</title>
<g id="a_edge5_Node000005_Node000006"><a xlink:title=" ">
<path fill="none" stroke="#63b8ff" d="M292.7,-115.58C337.26,-112.17 401.97,-105.64 457.5,-93.88 467.85,-91.68 478.73,-88.77 489.14,-85.67"/>
<polygon fill="#63b8ff" stroke="#63b8ff" points="489.82,-88.81 498.35,-82.52 487.77,-82.12 489.82,-88.81"/>
</a>
</g>
</g>
<!-- Node5&#45;&gt;Node7 -->
<g id="edge7_Node000005_Node000007" class="edge">
<title>Node5&#45;&gt;Node7</title>
<g id="a_edge7_Node000005_Node000007"><a xlink:title=" ">
<path fill="none" stroke="#63b8ff" d="M292.96,-101.74C306.18,-97.56 320.39,-93.07 333.86,-88.81"/>
<polygon fill="#63b8ff" stroke="#63b8ff" points="334.5,-91.96 342.98,-85.61 332.39,-85.29 334.5,-91.96"/>
</a>
</g>
</g>
<!-- Node6&#45;&gt;Node6 -->
<g id="edge6_Node000006_Node000006" class="edge">
<title>Node6&#45;&gt;Node6</title>
<g id="a_edge6_Node000006_Node000006"><a xlink:title=" ">
<path fill="none" stroke="#63b8ff" d="M518.07,-82.61C512.65,-91.68 521.5,-100.12 544.62,-100.12 557.63,-100.12 566.12,-97.45 570.1,-93.5"/>
<polygon fill="#63b8ff" stroke="#63b8ff" points="573.68,-93.91 571.18,-83.61 566.71,-93.22 573.68,-93.91"/>
</a>
</g>
</g>
<!-- Node8&#45;&gt;Node7 -->
<g id="edge11_Node000008_Node000007" class="edge">
<title>Node8&#45;&gt;Node7</title>
<g id="a_edge11_Node000008_Node000007"><a xlink:title=" ">
<path fill="none" stroke="#63b8ff" d="M293.83,-38.29C306.74,-42.37 320.56,-46.74 333.67,-50.88"/>
<polygon fill="#63b8ff" stroke="#63b8ff" points="332.42,-54.47 343.01,-54.15 334.53,-47.8 332.42,-54.47"/>
</a>
</g>
</g>
<!-- Node9 -->
<g id="Node000009" class="node">
<title>Node9</title>
<g id="a_Node000009"><a xlink:href="../../d2/da4/class_slic3r_1_1_double_slider_1_1_control.html#a88811db0c9e5f9967be1b2bfc4fffd67" target="_top" xlink:title=" ">
<polygon fill="white" stroke="#666666" points="457.5,-36.12 332,-36.12 332,-5.62 457.5,-5.62 457.5,-36.12"/>
<text text-anchor="start" x="340" y="-22.62" font-family="Helvetica,sans-Serif" font-size="10.00">Slic3r::DoubleSlider</text>
<text text-anchor="middle" x="394.75" y="-11.38" font-family="Helvetica,sans-Serif" font-size="10.00">::Control::get_scroll_step</text>
</a>
</g>
</g>
<!-- Node8&#45;&gt;Node9 -->
<g id="edge9_Node000008_Node000009" class="edge">
<title>Node8&#45;&gt;Node9</title>
<g id="a_edge9_Node000008_Node000009"><a xlink:title=" ">
<path fill="none" stroke="#63b8ff" d="M293.83,-20.88C302.56,-20.88 311.69,-20.88 320.75,-20.88"/>
<polygon fill="#63b8ff" stroke="#63b8ff" points="320.72,-24.38 330.72,-20.88 320.72,-17.38 320.72,-24.38"/>
</a>
</g>
</g>
<!-- Node9&#45;&gt;Node6 -->
<g id="edge10_Node000009_Node000006" class="edge">
<title>Node9&#45;&gt;Node6</title>
<g id="a_edge10_Node000009_Node000006"><a xlink:title=" ">
<path fill="none" stroke="#63b8ff" d="M446.23,-36.58C457.94,-40.22 470.53,-44.14 482.64,-47.9"/>
<polygon fill="#63b8ff" stroke="#63b8ff" points="481.54,-51.54 492.12,-51.17 483.62,-44.85 481.54,-51.54"/>
</a>
</g>
</g>
</g>
</svg>
