<?xml version="1.0" encoding="UTF-8" standalone="no"?>
<!DOCTYPE svg PUBLIC "-//W3C//DTD SVG 1.1//EN"
 "http://www.w3.org/Graphics/SVG/1.1/DTD/svg11.dtd">
<!-- Generated by graphviz version 8.0.5 (20230430.1635)
 -->
<!-- Title: Slic3r::GUI::GLGizmoEmboss::remove_notification_not_valid_font Pages: 1 -->
<svg width="1260pt" height="677pt"
 viewBox="0.00 0.00 1260.00 677.12" xmlns="http://www.w3.org/2000/svg" xmlns:xlink="http://www.w3.org/1999/xlink">
<g id="graph0" class="graph" transform="scale(1 1) rotate(0) translate(4 673.12)">
<title>Slic3r::GUI::GLGizmoEmboss::remove_notification_not_valid_font</title>
<!-- Node1 -->
<g id="Node000001" class="node">
<title>Node1</title>
<g id="a_Node000001"><a xlink:title=" ">
<polygon fill="#999999" stroke="#666666" points="1252,-577.12 1104,-577.12 1104,-535.38 1252,-535.38 1252,-577.12"/>
<text text-anchor="start" x="1112" y="-563.62" font-family="Helvetica,sans-Serif" font-size="10.00">Slic3r::GUI::GLGizmoEmboss</text>
<text text-anchor="start" x="1112" y="-552.38" font-family="Helvetica,sans-Serif" font-size="10.00">::remove_notification_not</text>
<text text-anchor="middle" x="1178" y="-541.12" font-family="Helvetica,sans-Serif" font-size="10.00">_valid_font</text>
</a>
</g>
</g>
<!-- Node2 -->
<g id="Node000002" class="node">
<title>Node2</title>
<g id="a_Node000002"><a xlink:href="../../dd/df1/class_slic3r_1_1_g_u_i_1_1_g_l_gizmo_emboss.html#a66094a1263c62ffa70469d5ba6030cc4" target="_top" xlink:title=" ">
<polygon fill="white" stroke="#666666" points="1068,-669.12 920,-669.12 920,-627.38 1068,-627.38 1068,-669.12"/>
<text text-anchor="start" x="928" y="-655.62" font-family="Helvetica,sans-Serif" font-size="10.00">Slic3r::GUI::GLGizmoEmboss</text>
<text text-anchor="start" x="928" y="-644.38" font-family="Helvetica,sans-Serif" font-size="10.00">::create_notification_not</text>
<text text-anchor="middle" x="994" y="-633.12" font-family="Helvetica,sans-Serif" font-size="10.00">_valid_font</text>
</a>
</g>
</g>
<!-- Node1&#45;&gt;Node2 -->
<g id="edge1_Node000001_Node000002" class="edge">
<title>Node1&#45;&gt;Node2</title>
<g id="a_edge1_Node000001_Node000002"><a xlink:title=" ">
<path fill="none" stroke="#63b8ff" d="M1127.34,-582.68C1108.79,-592.43 1087.5,-603.48 1068,-613.25 1058.95,-617.78 1049.22,-622.53 1039.9,-627.02"/>
<polygon fill="#63b8ff" stroke="#63b8ff" points="1128.84,-585.32 1136.05,-577.56 1125.57,-579.13 1128.84,-585.32"/>
</a>
</g>
</g>
<!-- Node3 -->
<g id="Node000003" class="node">
<title>Node3</title>
<g id="a_Node000003"><a xlink:href="../../dd/df1/class_slic3r_1_1_g_u_i_1_1_g_l_gizmo_emboss.html#ac99cb25fd302ee3a6e53e607feaee114" target="_top" xlink:title=" ">
<polygon fill="white" stroke="#666666" points="884,-614.5 736,-614.5 736,-584 884,-584 884,-614.5"/>
<text text-anchor="start" x="744" y="-601" font-family="Helvetica,sans-Serif" font-size="10.00">Slic3r::GUI::GLGizmoEmboss</text>
<text text-anchor="middle" x="810" y="-589.75" font-family="Helvetica,sans-Serif" font-size="10.00">::on_set_state</text>
</a>
</g>
</g>
<!-- Node1&#45;&gt;Node3 -->
<g id="edge2_Node000001_Node000003" class="edge">
<title>Node1&#45;&gt;Node3</title>
<g id="a_edge2_Node000001_Node000003"><a xlink:title=" ">
<path fill="none" stroke="#63b8ff" d="M1093.04,-575.99C1084.61,-577.6 1076.16,-579.06 1068,-580.25 1006.47,-589.25 935.99,-594.08 884.42,-596.61"/>
<polygon fill="#63b8ff" stroke="#63b8ff" points="1093.55,-579.26 1102.68,-573.89 1092.19,-572.4 1093.55,-579.26"/>
</a>
</g>
</g>
<!-- Node4 -->
<g id="Node000004" class="node">
<title>Node4</title>
<g id="a_Node000004"><a xlink:href="../../dd/df1/class_slic3r_1_1_g_u_i_1_1_g_l_gizmo_emboss.html#a3b24e23890cfbcbd10b34e38a7784e54" target="_top" xlink:title=" ">
<polygon fill="white" stroke="#666666" points="1068,-303.5 920,-303.5 920,-273 1068,-273 1068,-303.5"/>
<text text-anchor="start" x="928" y="-290" font-family="Helvetica,sans-Serif" font-size="10.00">Slic3r::GUI::GLGizmoEmboss</text>
<text text-anchor="middle" x="994" y="-278.75" font-family="Helvetica,sans-Serif" font-size="10.00">::process</text>
</a>
</g>
</g>
<!-- Node1&#45;&gt;Node4 -->
<g id="edge3_Node000001_Node000004" class="edge">
<title>Node1&#45;&gt;Node4</title>
<g id="a_edge3_Node000001_Node000004"><a xlink:title=" ">
<path fill="none" stroke="#63b8ff" d="M1156.69,-526.35C1118.04,-469.43 1035.14,-347.36 1005.67,-303.96"/>
<polygon fill="#63b8ff" stroke="#63b8ff" points="1154.21,-527.91 1162.72,-534.22 1160,-523.98 1154.21,-527.91"/>
</a>
</g>
</g>
<!-- Node20 -->
<g id="Node000020" class="node">
<title>Node20</title>
<g id="a_Node000020"><a xlink:href="../../dd/df1/class_slic3r_1_1_g_u_i_1_1_g_l_gizmo_emboss.html#a789cd7f5d3ef97b1482e077df40466b9" target="_top" xlink:title=" ">
<polygon fill="white" stroke="#666666" points="1068,-571.5 920,-571.5 920,-541 1068,-541 1068,-571.5"/>
<text text-anchor="start" x="928" y="-558" font-family="Helvetica,sans-Serif" font-size="10.00">Slic3r::GUI::GLGizmoEmboss</text>
<text text-anchor="middle" x="994" y="-546.75" font-family="Helvetica,sans-Serif" font-size="10.00">::reset_volume</text>
</a>
</g>
</g>
<!-- Node1&#45;&gt;Node20 -->
<g id="edge29_Node000001_Node000020" class="edge">
<title>Node1&#45;&gt;Node20</title>
<g id="a_edge29_Node000001_Node000020"><a xlink:title=" ">
<path fill="none" stroke="#63b8ff" d="M1093.02,-556.25C1084.79,-556.25 1076.49,-556.25 1068.39,-556.25"/>
<polygon fill="#63b8ff" stroke="#63b8ff" points="1092.76,-559.75 1102.76,-556.25 1092.76,-552.75 1092.76,-559.75"/>
</a>
</g>
</g>
<!-- Node21 -->
<g id="Node000021" class="node">
<title>Node21</title>
<g id="a_Node000021"><a xlink:href="../../dd/df1/class_slic3r_1_1_g_u_i_1_1_g_l_gizmo_emboss.html#aeeaf45a97b7d9bdf008aeb5e41d30f4f" target="_top" xlink:title=" ">
<polygon fill="white" stroke="#666666" points="884,-565.5 736,-565.5 736,-535 884,-535 884,-565.5"/>
<text text-anchor="start" x="744" y="-552" font-family="Helvetica,sans-Serif" font-size="10.00">Slic3r::GUI::GLGizmoEmboss</text>
<text text-anchor="middle" x="810" y="-540.75" font-family="Helvetica,sans-Serif" font-size="10.00">::set_volume_by_selection</text>
</a>
</g>
</g>
<!-- Node1&#45;&gt;Node21 -->
<g id="edge34_Node000001_Node000021" class="edge">
<title>Node1&#45;&gt;Node21</title>
<g id="a_edge34_Node000001_Node000021"><a xlink:title=" ">
<path fill="none" stroke="#63b8ff" d="M1093.12,-535.88C1084.68,-534.4 1076.19,-533.14 1068,-532.25 1002.61,-525.14 985.56,-526.87 920,-532.25 908.43,-533.2 896.25,-534.7 884.38,-536.45"/>
<polygon fill="#63b8ff" stroke="#63b8ff" points="1092.3,-539.47 1102.78,-537.86 1093.58,-532.59 1092.3,-539.47"/>
</a>
</g>
</g>
<!-- Node5 -->
<g id="Node000005" class="node">
<title>Node5</title>
<g id="a_Node000005"><a xlink:href="../../dd/df1/class_slic3r_1_1_g_u_i_1_1_g_l_gizmo_emboss.html#a992be82e214e7ee040d32e0f63dcefa0" target="_top" xlink:title=" ">
<polygon fill="white" stroke="#666666" points="516,-463.5 368,-463.5 368,-433 516,-433 516,-463.5"/>
<text text-anchor="start" x="376" y="-450" font-family="Helvetica,sans-Serif" font-size="10.00">Slic3r::GUI::GLGizmoEmboss</text>
<text text-anchor="middle" x="442" y="-438.75" font-family="Helvetica,sans-Serif" font-size="10.00">::draw_advanced</text>
</a>
</g>
</g>
<!-- Node4&#45;&gt;Node5 -->
<g id="edge4_Node000004_Node000005" class="edge">
<title>Node4&#45;&gt;Node5</title>
<g id="a_edge4_Node000004_Node000005"><a xlink:title=" ">
<path fill="none" stroke="#63b8ff" d="M982.62,-313.62C966.98,-348.06 933.82,-408.27 884,-434.25 766.15,-495.69 605.48,-480.28 514.16,-463.97"/>
<polygon fill="#63b8ff" stroke="#63b8ff" points="986.1,-315.39 986.9,-304.83 979.69,-312.58 986.1,-315.39"/>
</a>
</g>
</g>
<!-- Node6 -->
<g id="Node000006" class="node">
<title>Node6</title>
<g id="a_Node000006"><a xlink:href="../../dd/df1/class_slic3r_1_1_g_u_i_1_1_g_l_gizmo_emboss.html#a6dc1143a516dc36420fe279e09c55b40" target="_top" xlink:title=" ">
<polygon fill="white" stroke="#666666" points="332,-335.5 184,-335.5 184,-305 332,-305 332,-335.5"/>
<text text-anchor="start" x="192" y="-322" font-family="Helvetica,sans-Serif" font-size="10.00">Slic3r::GUI::GLGizmoEmboss</text>
<text text-anchor="middle" x="258" y="-310.75" font-family="Helvetica,sans-Serif" font-size="10.00">::draw_window</text>
</a>
</g>
</g>
<!-- Node4&#45;&gt;Node6 -->
<g id="edge23_Node000004_Node000006" class="edge">
<title>Node4&#45;&gt;Node6</title>
<g id="a_edge23_Node000004_Node000006"><a xlink:title=" ">
<path fill="none" stroke="#63b8ff" d="M985.48,-314.26C972.26,-354.79 940.75,-432.09 884,-468.25 814.63,-512.45 782.14,-483.8 700,-488.25 552.49,-496.24 496.37,-545.36 368,-472.25 312.41,-440.59 277.83,-367.65 264.84,-335.7"/>
<polygon fill="#63b8ff" stroke="#63b8ff" points="989.08,-315.46 988.72,-304.87 982.4,-313.37 989.08,-315.46"/>
</a>
</g>
</g>
<!-- Node8 -->
<g id="Node000008" class="node">
<title>Node8</title>
<g id="a_Node000008"><a xlink:href="../../dd/df1/class_slic3r_1_1_g_u_i_1_1_g_l_gizmo_emboss.html#af70844cc49d6ef544db652ef6bfe2ab0" target="_top" xlink:title=" ">
<polygon fill="white" stroke="#666666" points="884,-403.5 736,-403.5 736,-373 884,-373 884,-403.5"/>
<text text-anchor="start" x="744" y="-390" font-family="Helvetica,sans-Serif" font-size="10.00">Slic3r::GUI::GLGizmoEmboss</text>
<text text-anchor="middle" x="810" y="-378.75" font-family="Helvetica,sans-Serif" font-size="10.00">::draw_delete_style_button</text>
</a>
</g>
</g>
<!-- Node4&#45;&gt;Node8 -->
<g id="edge7_Node000004_Node000008" class="edge">
<title>Node4&#45;&gt;Node8</title>
<g id="a_edge7_Node000004_Node000008"><a xlink:title=" ">
<path fill="none" stroke="#63b8ff" d="M962.75,-310.3C941.4,-325.27 911.78,-344.87 884,-359.25 874.68,-364.08 864.36,-368.63 854.48,-372.62"/>
<polygon fill="#63b8ff" stroke="#63b8ff" points="964.51,-312.63 970.65,-303.99 960.46,-306.92 964.51,-312.63"/>
</a>
</g>
</g>
<!-- Node9 -->
<g id="Node000009" class="node">
<title>Node9</title>
<g id="a_Node000009"><a xlink:href="../../dd/df1/class_slic3r_1_1_g_u_i_1_1_g_l_gizmo_emboss.html#a6df9903fff9137c854120960350a0902" target="_top" xlink:title=" ">
<polygon fill="white" stroke="#666666" points="700,-403.5 552,-403.5 552,-373 700,-373 700,-403.5"/>
<text text-anchor="start" x="560" y="-390" font-family="Helvetica,sans-Serif" font-size="10.00">Slic3r::GUI::GLGizmoEmboss</text>
<text text-anchor="middle" x="626" y="-378.75" font-family="Helvetica,sans-Serif" font-size="10.00">::draw_style_list</text>
</a>
</g>
</g>
<!-- Node4&#45;&gt;Node9 -->
<g id="edge20_Node000004_Node000009" class="edge">
<title>Node4&#45;&gt;Node9</title>
<g id="a_edge20_Node000004_Node000009"><a xlink:title=" ">
<path fill="none" stroke="#63b8ff" d="M979.88,-313.19C962.52,-343.17 928.81,-391.98 884,-412.25 812.96,-444.39 719.76,-421.75 667.35,-403.95"/>
<polygon fill="#63b8ff" stroke="#63b8ff" points="983.3,-315.24 985.13,-304.81 977.19,-311.82 983.3,-315.24"/>
</a>
</g>
</g>
<!-- Node10 -->
<g id="Node000010" class="node">
<title>Node10</title>
<g id="a_Node000010"><a xlink:href="../../dd/df1/class_slic3r_1_1_g_u_i_1_1_g_l_gizmo_emboss.html#a590df858d708af4fba0dde81a8a0bbc9" target="_top" xlink:title=" ">
<polygon fill="white" stroke="#666666" points="516,-360.5 368,-360.5 368,-330 516,-330 516,-360.5"/>
<text text-anchor="start" x="376" y="-347" font-family="Helvetica,sans-Serif" font-size="10.00">Slic3r::GUI::GLGizmoEmboss</text>
<text text-anchor="middle" x="442" y="-335.75" font-family="Helvetica,sans-Serif" font-size="10.00">::draw_depth</text>
</a>
</g>
</g>
<!-- Node4&#45;&gt;Node10 -->
<g id="edge10_Node000004_Node000010" class="edge">
<title>Node4&#45;&gt;Node10</title>
<g id="a_edge10_Node000004_Node000010"><a xlink:title=" ">
<path fill="none" stroke="#63b8ff" d="M908.9,-301.92C900.49,-303.12 892.09,-304.25 884,-305.25 754.86,-321.16 603.72,-333.52 516.11,-340.06"/>
<polygon fill="#63b8ff" stroke="#63b8ff" points="909.12,-305.28 918.51,-300.37 908.11,-298.35 909.12,-305.28"/>
</a>
</g>
</g>
<!-- Node11 -->
<g id="Node000011" class="node">
<title>Node11</title>
<g id="a_Node000011"><a xlink:href="../../dd/df1/class_slic3r_1_1_g_u_i_1_1_g_l_gizmo_emboss.html#a59f3764ba84147ac4c921708d0e7b2bd" target="_top" xlink:title=" ">
<polygon fill="white" stroke="#666666" points="700,-279.5 552,-279.5 552,-249 700,-249 700,-279.5"/>
<text text-anchor="start" x="560" y="-266" font-family="Helvetica,sans-Serif" font-size="10.00">Slic3r::GUI::GLGizmoEmboss</text>
<text text-anchor="middle" x="626" y="-254.75" font-family="Helvetica,sans-Serif" font-size="10.00">::draw_font_list</text>
</a>
</g>
</g>
<!-- Node4&#45;&gt;Node11 -->
<g id="edge12_Node000004_Node000011" class="edge">
<title>Node4&#45;&gt;Node11</title>
<g id="a_edge12_Node000004_Node000011"><a xlink:title=" ">
<path fill="none" stroke="#63b8ff" d="M909.11,-282.75C846.11,-278.62 760.67,-273.02 700.37,-269.06"/>
<polygon fill="#63b8ff" stroke="#63b8ff" points="908.61,-286.29 918.81,-283.45 909.06,-279.3 908.61,-286.29"/>
</a>
</g>
</g>
<!-- Node12 -->
<g id="Node000012" class="node">
<title>Node12</title>
<g id="a_Node000012"><a xlink:href="../../dd/df1/class_slic3r_1_1_g_u_i_1_1_g_l_gizmo_emboss.html#a8c153bdbd4a0d109111f54959cd25efc" target="_top" xlink:title=" ">
<polygon fill="white" stroke="#666666" points="516,-311.5 368,-311.5 368,-281 516,-281 516,-311.5"/>
<text text-anchor="start" x="376" y="-298" font-family="Helvetica,sans-Serif" font-size="10.00">Slic3r::GUI::GLGizmoEmboss</text>
<text text-anchor="middle" x="442" y="-286.75" font-family="Helvetica,sans-Serif" font-size="10.00">::draw_font_list_line</text>
</a>
</g>
</g>
<!-- Node4&#45;&gt;Node12 -->
<g id="edge15_Node000004_Node000012" class="edge">
<title>Node4&#45;&gt;Node12</title>
<g id="a_edge15_Node000004_Node000012"><a xlink:title=" ">
<path fill="none" stroke="#63b8ff" d="M908.75,-289.84C900.39,-289.98 892.03,-290.12 884,-290.25 754.61,-292.32 603.87,-294.27 516.35,-295.36"/>
<polygon fill="#63b8ff" stroke="#63b8ff" points="908.77,-293.32 918.71,-289.64 908.65,-286.32 908.77,-293.32"/>
</a>
</g>
</g>
<!-- Node13 -->
<g id="Node000013" class="node">
<title>Node13</title>
<g id="a_Node000013"><a xlink:href="../../dd/df1/class_slic3r_1_1_g_u_i_1_1_g_l_gizmo_emboss.html#a97a835887a88039d309567f96d86af31" target="_top" xlink:title=" ">
<polygon fill="white" stroke="#666666" points="516,-255.5 368,-255.5 368,-225 516,-225 516,-255.5"/>
<text text-anchor="start" x="376" y="-242" font-family="Helvetica,sans-Serif" font-size="10.00">Slic3r::GUI::GLGizmoEmboss</text>
<text text-anchor="middle" x="442" y="-230.75" font-family="Helvetica,sans-Serif" font-size="10.00">::draw_height</text>
</a>
</g>
</g>
<!-- Node4&#45;&gt;Node13 -->
<g id="edge16_Node000004_Node000013" class="edge">
<title>Node4&#45;&gt;Node13</title>
<g id="a_edge16_Node000004_Node000013"><a xlink:title=" ">
<path fill="none" stroke="#63b8ff" d="M972.46,-264.88C952.34,-243.91 919.58,-214.6 884,-202.25 745.88,-154.32 569.49,-198.62 488,-224.53"/>
<polygon fill="#63b8ff" stroke="#63b8ff" points="969.4,-266.81 978.78,-271.73 974.52,-262.03 969.4,-266.81"/>
</a>
</g>
</g>
<!-- Node14 -->
<g id="Node000014" class="node">
<title>Node14</title>
<g id="a_Node000014"><a xlink:href="../../dd/df1/class_slic3r_1_1_g_u_i_1_1_g_l_gizmo_emboss.html#aecc71dc76e0faa47b2f868fe3e3a911b" target="_top" xlink:title=" ">
<polygon fill="white" stroke="#666666" points="516,-193.5 368,-193.5 368,-163 516,-163 516,-193.5"/>
<text text-anchor="start" x="376" y="-180" font-family="Helvetica,sans-Serif" font-size="10.00">Slic3r::GUI::GLGizmoEmboss</text>
<text text-anchor="middle" x="442" y="-168.75" font-family="Helvetica,sans-Serif" font-size="10.00">::draw_model_type</text>
</a>
</g>
</g>
<!-- Node4&#45;&gt;Node14 -->
<g id="edge18_Node000004_Node000014" class="edge">
<title>Node4&#45;&gt;Node14</title>
<g id="a_edge18_Node000004_Node000014"><a xlink:title=" ">
<path fill="none" stroke="#63b8ff" d="M977.86,-263.58C959.52,-236.31 925.81,-193.9 884,-176.25 759.68,-123.76 597.51,-144.5 508.53,-162.51"/>
<polygon fill="#63b8ff" stroke="#63b8ff" points="975.31,-265.06 983.7,-271.53 981.17,-261.24 975.31,-265.06"/>
</a>
</g>
</g>
<!-- Node15 -->
<g id="Node000015" class="node">
<title>Node15</title>
<g id="a_Node000015"><a xlink:href="../../dd/df1/class_slic3r_1_1_g_u_i_1_1_g_l_gizmo_emboss.html#a5607073bb80b59ef5ce8d078a63109a6" target="_top" xlink:title=" ">
<polygon fill="white" stroke="#666666" points="700,-117.5 552,-117.5 552,-87 700,-87 700,-117.5"/>
<text text-anchor="start" x="560" y="-104" font-family="Helvetica,sans-Serif" font-size="10.00">Slic3r::GUI::GLGizmoEmboss</text>
<text text-anchor="middle" x="626" y="-92.75" font-family="Helvetica,sans-Serif" font-size="10.00">::draw_text_input</text>
</a>
</g>
</g>
<!-- Node4&#45;&gt;Node15 -->
<g id="edge21_Node000004_Node000015" class="edge">
<title>Node4&#45;&gt;Node15</title>
<g id="a_edge21_Node000004_Node000015"><a xlink:title=" ">
<path fill="none" stroke="#63b8ff" d="M983.5,-263.18C968.42,-227.2 935.35,-161.9 884,-131.25 828.67,-98.23 754.62,-93.11 700.22,-95"/>
<polygon fill="#63b8ff" stroke="#63b8ff" points="980.44,-263.95 987.44,-271.91 986.93,-261.33 980.44,-263.95"/>
</a>
</g>
</g>
<!-- Node16 -->
<g id="Node000016" class="node">
<title>Node16</title>
<g id="a_Node000016"><a xlink:href="../../dd/df1/class_slic3r_1_1_g_u_i_1_1_g_l_gizmo_emboss.html#a314b6054822747e4007fb66ba117fe9b" target="_top" xlink:title=" ">
<polygon fill="white" stroke="#666666" points="884,-79.5 736,-79.5 736,-49 884,-49 884,-79.5"/>
<text text-anchor="start" x="744" y="-66" font-family="Helvetica,sans-Serif" font-size="10.00">Slic3r::GUI::GLGizmoEmboss</text>
<text text-anchor="middle" x="810" y="-54.75" font-family="Helvetica,sans-Serif" font-size="10.00">::on_mouse_for_translate</text>
</a>
</g>
</g>
<!-- Node4&#45;&gt;Node16 -->
<g id="edge24_Node000004_Node000016" class="edge">
<title>Node4&#45;&gt;Node16</title>
<g id="a_edge24_Node000004_Node000016"><a xlink:title=" ">
<path fill="none" stroke="#63b8ff" d="M984.85,-262.2C970.7,-220.95 937.84,-140.43 884,-93.25 877.95,-87.95 870.81,-83.55 863.41,-79.92"/>
<polygon fill="#63b8ff" stroke="#63b8ff" points="981.8,-263.12 988.27,-271.5 988.44,-260.91 981.8,-263.12"/>
</a>
</g>
</g>
<!-- Node18 -->
<g id="Node000018" class="node">
<title>Node18</title>
<g id="a_Node000018"><a xlink:href="../../dd/df1/class_slic3r_1_1_g_u_i_1_1_g_l_gizmo_emboss.html#a261634051a15f8df2fed8b6fe4a9f225" target="_top" xlink:title=" ">
<polygon fill="white" stroke="#666666" points="884,-30.5 736,-30.5 736,0 884,0 884,-30.5"/>
<text text-anchor="start" x="744" y="-17" font-family="Helvetica,sans-Serif" font-size="10.00">Slic3r::GUI::GLGizmoEmboss</text>
<text text-anchor="middle" x="810" y="-5.75" font-family="Helvetica,sans-Serif" font-size="10.00">::on_stop_dragging</text>
</a>
</g>
</g>
<!-- Node4&#45;&gt;Node18 -->
<g id="edge26_Node000004_Node000018" class="edge">
<title>Node4&#45;&gt;Node18</title>
<g id="a_edge26_Node000004_Node000018"><a xlink:title=" ">
<path fill="none" stroke="#63b8ff" d="M988.65,-262.08C978.97,-211.93 950.98,-101.81 884,-40.25 880.05,-36.62 875.56,-33.52 870.78,-30.86"/>
<polygon fill="#63b8ff" stroke="#63b8ff" points="985.34,-262.45 990.59,-271.66 992.23,-261.19 985.34,-262.45"/>
</a>
</g>
</g>
<!-- Node19 -->
<g id="Node000019" class="node">
<title>Node19</title>
<g id="a_Node000019"><a xlink:href="../../dd/df1/class_slic3r_1_1_g_u_i_1_1_g_l_gizmo_emboss.html#a2abb199f3d6847d7051fb0b7c226df61" target="_top" xlink:title=" ">
<polygon fill="white" stroke="#666666" points="884,-241.5 736,-241.5 736,-211 884,-211 884,-241.5"/>
<text text-anchor="start" x="744" y="-228" font-family="Helvetica,sans-Serif" font-size="10.00">Slic3r::GUI::GLGizmoEmboss</text>
<text text-anchor="middle" x="810" y="-216.75" font-family="Helvetica,sans-Serif" font-size="10.00">::select_facename</text>
</a>
</g>
</g>
<!-- Node4&#45;&gt;Node19 -->
<g id="edge27_Node000004_Node000019" class="edge">
<title>Node4&#45;&gt;Node19</title>
<g id="a_edge27_Node000004_Node000019"><a xlink:title=" ">
<path fill="none" stroke="#63b8ff" d="M936.79,-269.1C911.26,-260.41 881.43,-250.24 857.23,-242"/>
<polygon fill="#63b8ff" stroke="#63b8ff" points="935.48,-272.69 946.07,-272.6 937.74,-266.07 935.48,-272.69"/>
</a>
</g>
</g>
<!-- Node5&#45;&gt;Node6 -->
<g id="edge5_Node000005_Node000006" class="edge">
<title>Node5&#45;&gt;Node6</title>
<g id="a_edge5_Node000005_Node000006"><a xlink:title=" ">
<path fill="none" stroke="#63b8ff" d="M405.66,-426.8C393.57,-419.25 380.07,-410.57 368,-402.25 336.03,-380.21 300.29,-352.75 278.73,-335.87"/>
<polygon fill="#63b8ff" stroke="#63b8ff" points="403.64,-430.29 413.99,-432.58 407.33,-424.34 403.64,-430.29"/>
</a>
</g>
</g>
<!-- Node7 -->
<g id="Node000007" class="node">
<title>Node7</title>
<g id="a_Node000007"><a xlink:href="../../dd/df1/class_slic3r_1_1_g_u_i_1_1_g_l_gizmo_emboss.html#adcf76968843c4bbb8646d4a51a04867c" target="_top" xlink:title=" ">
<polygon fill="white" stroke="#666666" points="148,-335.5 0,-335.5 0,-305 148,-305 148,-335.5"/>
<text text-anchor="start" x="8" y="-322" font-family="Helvetica,sans-Serif" font-size="10.00">Slic3r::GUI::GLGizmoEmboss</text>
<text text-anchor="middle" x="74" y="-310.75" font-family="Helvetica,sans-Serif" font-size="10.00">::on_render_input_window</text>
</a>
</g>
</g>
<!-- Node6&#45;&gt;Node7 -->
<g id="edge6_Node000006_Node000007" class="edge">
<title>Node6&#45;&gt;Node7</title>
<g id="a_edge6_Node000006_Node000007"><a xlink:title=" ">
<path fill="none" stroke="#63b8ff" d="M173.02,-320.25C164.79,-320.25 156.49,-320.25 148.39,-320.25"/>
<polygon fill="#63b8ff" stroke="#63b8ff" points="172.76,-323.75 182.76,-320.25 172.76,-316.75 172.76,-323.75"/>
</a>
</g>
</g>
<!-- Node8&#45;&gt;Node9 -->
<g id="edge8_Node000008_Node000009" class="edge">
<title>Node8&#45;&gt;Node9</title>
<g id="a_edge8_Node000008_Node000009"><a xlink:title=" ">
<path fill="none" stroke="#63b8ff" d="M725.02,-388.25C716.79,-388.25 708.49,-388.25 700.39,-388.25"/>
<polygon fill="#63b8ff" stroke="#63b8ff" points="724.76,-391.75 734.76,-388.25 724.76,-384.75 724.76,-391.75"/>
</a>
</g>
</g>
<!-- Node9&#45;&gt;Node6 -->
<g id="edge9_Node000009_Node000006" class="edge">
<title>Node9&#45;&gt;Node6</title>
<g id="a_edge9_Node000009_Node000006"><a xlink:title=" ">
<path fill="none" stroke="#63b8ff" d="M540.72,-389.36C489.97,-388.22 424.47,-383.56 368,-369.25 339.04,-361.91 308.17,-347.33 286.7,-335.97"/>
<polygon fill="#63b8ff" stroke="#63b8ff" points="540.58,-392.87 550.64,-389.55 540.7,-385.88 540.58,-392.87"/>
</a>
</g>
</g>
<!-- Node10&#45;&gt;Node6 -->
<g id="edge11_Node000010_Node000006" class="edge">
<title>Node10&#45;&gt;Node6</title>
<g id="a_edge11_Node000010_Node000006"><a xlink:title=" ">
<path fill="none" stroke="#63b8ff" d="M357.02,-333.71C348.79,-332.58 340.49,-331.44 332.39,-330.33"/>
<polygon fill="#63b8ff" stroke="#63b8ff" points="356.38,-337.3 366.76,-335.19 357.33,-330.36 356.38,-337.3"/>
</a>
</g>
</g>
<!-- Node11&#45;&gt;Node12 -->
<g id="edge13_Node000011_Node000012" class="edge">
<title>Node11&#45;&gt;Node12</title>
<g id="a_edge13_Node000011_Node000012"><a xlink:title=" ">
<path fill="none" stroke="#63b8ff" d="M541.02,-279.02C532.79,-280.46 524.49,-281.92 516.39,-283.35"/>
<polygon fill="#63b8ff" stroke="#63b8ff" points="541.52,-282.31 550.76,-277.13 540.31,-275.41 541.52,-282.31"/>
</a>
</g>
</g>
<!-- Node12&#45;&gt;Node6 -->
<g id="edge14_Node000012_Node000006" class="edge">
<title>Node12&#45;&gt;Node6</title>
<g id="a_edge14_Node000012_Node000006"><a xlink:title=" ">
<path fill="none" stroke="#63b8ff" d="M357.02,-307.32C348.79,-308.41 340.49,-309.5 332.39,-310.57"/>
<polygon fill="#63b8ff" stroke="#63b8ff" points="357.3,-310.69 366.76,-305.91 356.39,-303.75 357.3,-310.69"/>
</a>
</g>
</g>
<!-- Node13&#45;&gt;Node6 -->
<g id="edge17_Node000013_Node000006" class="edge">
<title>Node13&#45;&gt;Node6</title>
<g id="a_edge17_Node000013_Node000006"><a xlink:title=" ">
<path fill="none" stroke="#63b8ff" d="M395.34,-260.25C386.28,-264.23 376.84,-268.37 368,-272.25 343.39,-283.06 315.67,-295.27 294.34,-304.67"/>
<polygon fill="#63b8ff" stroke="#63b8ff" points="396.6,-263.08 404.35,-255.86 393.79,-256.67 396.6,-263.08"/>
</a>
</g>
</g>
<!-- Node14&#45;&gt;Node6 -->
<g id="edge19_Node000014_Node000006" class="edge">
<title>Node14&#45;&gt;Node6</title>
<g id="a_edge19_Node000014_Node000006"><a xlink:title=" ">
<path fill="none" stroke="#63b8ff" d="M396.48,-198.87C386.79,-204.06 376.8,-209.95 368,-216.25 330.13,-243.34 292.23,-283.04 272.64,-304.71"/>
<polygon fill="#63b8ff" stroke="#63b8ff" points="397.75,-201.64 405.03,-193.94 394.54,-195.42 397.75,-201.64"/>
</a>
</g>
</g>
<!-- Node15&#45;&gt;Node6 -->
<g id="edge22_Node000015_Node000006" class="edge">
<title>Node15&#45;&gt;Node6</title>
<g id="a_edge22_Node000015_Node000006"><a xlink:title=" ">
<path fill="none" stroke="#63b8ff" d="M540.81,-103.07C487.3,-107.29 418.8,-119.89 368,-154.25 311.31,-192.59 277,-271.28 264.45,-304.69"/>
<polygon fill="#63b8ff" stroke="#63b8ff" points="540.92,-106.5 550.65,-102.31 540.43,-99.52 540.92,-106.5"/>
</a>
</g>
</g>
<!-- Node17 -->
<g id="Node000017" class="node">
<title>Node17</title>
<g id="a_Node000017"><a xlink:href="../../dd/df1/class_slic3r_1_1_g_u_i_1_1_g_l_gizmo_emboss.html#acac6ee7c40ce0415d7a14394ab672ea0" target="_top" xlink:title="Rotate by text on dragging rotate grabers.">
<polygon fill="white" stroke="#666666" points="700,-68.5 552,-68.5 552,-38 700,-38 700,-68.5"/>
<text text-anchor="start" x="560" y="-55" font-family="Helvetica,sans-Serif" font-size="10.00">Slic3r::GUI::GLGizmoEmboss</text>
<text text-anchor="middle" x="626" y="-43.75" font-family="Helvetica,sans-Serif" font-size="10.00">::on_mouse</text>
</a>
</g>
</g>
<!-- Node16&#45;&gt;Node17 -->
<g id="edge25_Node000016_Node000017" class="edge">
<title>Node16&#45;&gt;Node17</title>
<g id="a_edge25_Node000016_Node000017"><a xlink:title=" ">
<path fill="none" stroke="#63b8ff" d="M725.02,-59.17C716.79,-58.68 708.49,-58.18 700.39,-57.69"/>
<polygon fill="#63b8ff" stroke="#63b8ff" points="724.57,-62.71 734.76,-59.82 724.99,-55.73 724.57,-62.71"/>
</a>
</g>
</g>
<!-- Node19&#45;&gt;Node11 -->
<g id="edge28_Node000019_Node000011" class="edge">
<title>Node19&#45;&gt;Node11</title>
<g id="a_edge28_Node000019_Node000011"><a xlink:title=" ">
<path fill="none" stroke="#63b8ff" d="M725.02,-243.78C716.79,-245.5 708.49,-247.24 700.39,-248.93"/>
<polygon fill="#63b8ff" stroke="#63b8ff" points="725.69,-247.01 734.76,-241.54 724.26,-240.16 725.69,-247.01"/>
</a>
</g>
</g>
<!-- Node20&#45;&gt;Node3 -->
<g id="edge30_Node000020_Node000003" class="edge">
<title>Node20&#45;&gt;Node3</title>
<g id="a_edge30_Node000020_Node000003"><a xlink:title=" ">
<path fill="none" stroke="#63b8ff" d="M915.93,-574.46C903.18,-577.47 890.06,-580.57 877.6,-583.51"/>
<polygon fill="#63b8ff" stroke="#63b8ff" points="916.59,-577.66 925.52,-571.96 914.98,-570.85 916.59,-577.66"/>
</a>
</g>
</g>
<!-- Node20&#45;&gt;Node21 -->
<g id="edge31_Node000020_Node000021" class="edge">
<title>Node20&#45;&gt;Node21</title>
<g id="a_edge31_Node000020_Node000021"><a xlink:title=" ">
<path fill="none" stroke="#63b8ff" d="M909.02,-553.48C900.79,-553.21 892.49,-552.94 884.39,-552.67"/>
<polygon fill="#63b8ff" stroke="#63b8ff" points="908.65,-557 918.76,-553.84 908.88,-550.01 908.65,-557"/>
</a>
</g>
</g>
<!-- Node22 -->
<g id="Node000022" class="node">
<title>Node22</title>
<g id="a_Node000022"><a xlink:href="../../dd/df1/class_slic3r_1_1_g_u_i_1_1_g_l_gizmo_emboss.html#aa8f52ba05e74f98cddf79dd445143e27" target="_top" xlink:title="Is called when data (Selection) is changed.">
<polygon fill="white" stroke="#666666" points="700,-614.5 552,-614.5 552,-584 700,-584 700,-614.5"/>
<text text-anchor="start" x="560" y="-601" font-family="Helvetica,sans-Serif" font-size="10.00">Slic3r::GUI::GLGizmoEmboss</text>
<text text-anchor="middle" x="626" y="-589.75" font-family="Helvetica,sans-Serif" font-size="10.00">::data_changed</text>
</a>
</g>
</g>
<!-- Node21&#45;&gt;Node22 -->
<g id="edge32_Node000021_Node000022" class="edge">
<title>Node21&#45;&gt;Node22</title>
<g id="a_edge32_Node000021_Node000022"><a xlink:title=" ">
<path fill="none" stroke="#63b8ff" d="M740.19,-568.78C722.11,-573.64 702.79,-578.85 685.32,-583.55"/>
<polygon fill="#63b8ff" stroke="#63b8ff" points="740.92,-571.94 749.66,-565.96 739.1,-565.18 740.92,-571.94"/>
</a>
</g>
</g>
<!-- Node23 -->
<g id="Node000023" class="node">
<title>Node23</title>
<g id="a_Node000023"><a xlink:href="../../dd/df1/class_slic3r_1_1_g_u_i_1_1_g_l_gizmo_emboss.html#abfa868a330921a95a417bea1fe3f9120" target="_top" xlink:title="Handle pressing of shortcut.">
<polygon fill="white" stroke="#666666" points="700,-565.5 552,-565.5 552,-535 700,-535 700,-565.5"/>
<text text-anchor="start" x="560" y="-552" font-family="Helvetica,sans-Serif" font-size="10.00">Slic3r::GUI::GLGizmoEmboss</text>
<text text-anchor="middle" x="626" y="-540.75" font-family="Helvetica,sans-Serif" font-size="10.00">::on_shortcut_key</text>
</a>
</g>
</g>
<!-- Node21&#45;&gt;Node23 -->
<g id="edge33_Node000021_Node000023" class="edge">
<title>Node21&#45;&gt;Node23</title>
<g id="a_edge33_Node000021_Node000023"><a xlink:title=" ">
<path fill="none" stroke="#63b8ff" d="M725.02,-550.25C716.79,-550.25 708.49,-550.25 700.39,-550.25"/>
<polygon fill="#63b8ff" stroke="#63b8ff" points="724.76,-553.75 734.76,-550.25 724.76,-546.75 724.76,-553.75"/>
</a>
</g>
</g>
</g>
</svg>
