<?xml version="1.0" encoding="UTF-8" standalone="no"?>
<!DOCTYPE svg PUBLIC "-//W3C//DTD SVG 1.1//EN"
 "http://www.w3.org/Graphics/SVG/1.1/DTD/svg11.dtd">
<!-- Generated by graphviz version 8.0.5 (20230430.1635)
 -->
<!-- Title: Slic3r::Measure::RootsPolynomial::Find Pages: 1 -->
<svg width="744pt" height="197pt"
 viewBox="0.00 0.00 744.00 196.50" xmlns="http://www.w3.org/2000/svg" xmlns:xlink="http://www.w3.org/1999/xlink">
<g id="graph0" class="graph" transform="scale(1 1) rotate(0) translate(4 192.5)">
<title>Slic3r::Measure::RootsPolynomial::Find</title>
<!-- Node1 -->
<g id="Node000001" class="node">
<title>Node1</title>
<g id="a_Node000001"><a xlink:title=" ">
<polygon fill="#999999" stroke="#666666" points="736,-170.5 571.5,-170.5 571.5,-140 736,-140 736,-170.5"/>
<text text-anchor="start" x="579.5" y="-157" font-family="Helvetica,sans-Serif" font-size="10.00">Slic3r::Measure::RootsPolynomial</text>
<text text-anchor="middle" x="653.75" y="-145.75" font-family="Helvetica,sans-Serif" font-size="10.00">::Find</text>
</a>
</g>
</g>
<!-- Node2 -->
<g id="Node000002" class="node">
<title>Node2</title>
<g id="a_Node000002"><a xlink:href="../../d4/d05/class_slic3r_1_1_measure_1_1_roots_polynomial.html#a565fa0283eb3b70118470aa0d0adf7dc" target="_top" xlink:title=" ">
<polygon fill="white" stroke="#666666" points="535.5,-170.5 371,-170.5 371,-140 535.5,-140 535.5,-170.5"/>
<text text-anchor="start" x="379" y="-157" font-family="Helvetica,sans-Serif" font-size="10.00">Slic3r::Measure::RootsPolynomial</text>
<text text-anchor="middle" x="453.25" y="-145.75" font-family="Helvetica,sans-Serif" font-size="10.00">::FindRecursive</text>
</a>
</g>
</g>
<!-- Node1&#45;&gt;Node2 -->
<g id="edge1_Node000001_Node000002" class="edge">
<title>Node1&#45;&gt;Node2</title>
<g id="a_edge1_Node000001_Node000002"><a xlink:title=" ">
<path fill="none" stroke="#63b8ff" d="M560.42,-148.51C552.22,-148.48 543.96,-148.51 535.85,-148.6"/>
<polygon fill="#63b8ff" stroke="#63b8ff" points="560.13,-152.02 570.15,-148.6 560.18,-145.02 560.13,-152.02"/>
</a>
</g>
</g>
<!-- Node3 -->
<g id="Node000003" class="node">
<title>Node3</title>
<g id="a_Node000003"><a xlink:href="../../d0/d61/namespace_slic3r_1_1_measure.html#af3b3c5392e5361637c1d8c9b6f156181" target="_top" xlink:title=" ">
<polygon fill="white" stroke="#666666" points="505.12,-103.5 401.38,-103.5 401.38,-73 505.12,-73 505.12,-103.5"/>
<text text-anchor="start" x="409.38" y="-90" font-family="Helvetica,sans-Serif" font-size="10.00">Slic3r::Measure::get</text>
<text text-anchor="middle" x="453.25" y="-78.75" font-family="Helvetica,sans-Serif" font-size="10.00">_measurement</text>
</a>
</g>
</g>
<!-- Node1&#45;&gt;Node3 -->
<g id="edge4_Node000001_Node000003" class="edge">
<title>Node1&#45;&gt;Node3</title>
<g id="a_edge4_Node000001_Node000003"><a xlink:title=" ">
<path fill="none" stroke="#63b8ff" d="M595.85,-136.05C565.75,-125.88 529.25,-113.56 500.84,-103.98"/>
<polygon fill="#63b8ff" stroke="#63b8ff" points="594.62,-139.66 605.21,-139.54 596.86,-133.03 594.62,-139.66"/>
</a>
</g>
</g>
<!-- Node2&#45;&gt;Node1 -->
<g id="edge2_Node000002_Node000001" class="edge">
<title>Node2&#45;&gt;Node1</title>
<g id="a_edge2_Node000002_Node000001"><a xlink:title=" ">
<path fill="none" stroke="#63b8ff" d="M546.58,-161.99C554.78,-162.02 563.05,-161.99 571.15,-161.9"/>
<polygon fill="#63b8ff" stroke="#63b8ff" points="546.88,-158.48 536.85,-161.9 546.82,-165.48 546.88,-158.48"/>
</a>
</g>
</g>
<!-- Node2&#45;&gt;Node2 -->
<g id="edge3_Node000002_Node000002" class="edge">
<title>Node2&#45;&gt;Node2</title>
<g id="a_edge3_Node000002_Node000002"><a xlink:title=" ">
<path fill="none" stroke="#63b8ff" d="M486.06,-181.88C480.94,-185.83 470,-188.5 453.25,-188.5 423.47,-188.5 412.07,-180.06 419.05,-170.99"/>
<polygon fill="#63b8ff" stroke="#63b8ff" points="489.65,-182.35 487.45,-171.99 482.71,-181.46 489.65,-182.35"/>
</a>
</g>
</g>
<!-- Node3&#45;&gt;Node3 -->
<g id="edge6_Node000003_Node000003" class="edge">
<title>Node3&#45;&gt;Node3</title>
<g id="a_edge6_Node000003_Node000003"><a xlink:title=" ">
<path fill="none" stroke="#63b8ff" d="M486.06,-114.88C480.94,-118.83 470,-121.5 453.25,-121.5 423.47,-121.5 412.07,-113.06 419.05,-103.99"/>
<polygon fill="#63b8ff" stroke="#63b8ff" points="489.65,-115.35 487.45,-104.99 482.71,-114.46 489.65,-115.35"/>
</a>
</g>
</g>
<!-- Node4 -->
<g id="Node000004" class="node">
<title>Node4</title>
<g id="a_Node000004"><a xlink:href="../../d8/d71/class_slic3r_1_1_measure_1_1_measuring_impl.html#ae2bce2baa8075dfa14ac2ac7bfc0e807" target="_top" xlink:title=" ">
<polygon fill="white" stroke="#666666" points="327.88,-128.5 192.62,-128.5 192.62,-98 327.88,-98 327.88,-128.5"/>
<text text-anchor="start" x="200.62" y="-115" font-family="Helvetica,sans-Serif" font-size="10.00">Slic3r::Measure::Measuring</text>
<text text-anchor="middle" x="260.25" y="-103.75" font-family="Helvetica,sans-Serif" font-size="10.00">Impl::get_feature</text>
</a>
</g>
</g>
<!-- Node3&#45;&gt;Node4 -->
<g id="edge5_Node000003_Node000004" class="edge">
<title>Node3&#45;&gt;Node4</title>
<g id="a_edge5_Node000003_Node000004"><a xlink:title=" ">
<path fill="none" stroke="#63b8ff" d="M390.27,-96.36C370.38,-98.97 348.27,-101.86 328.05,-104.51"/>
<polygon fill="#63b8ff" stroke="#63b8ff" points="390.6,-99.72 400.07,-94.95 389.7,-92.78 390.6,-99.72"/>
</a>
</g>
</g>
<!-- Node5 -->
<g id="Node000005" class="node">
<title>Node5</title>
<g id="a_Node000005"><a xlink:href="../../d9/d9a/class_slic3r_1_1_g_u_i_1_1_g_l_gizmo_measure.html#aef066aa7af11af18046cfbf3393aebd2" target="_top" xlink:title=" ">
<polygon fill="white" stroke="#666666" points="335,-79.5 185.5,-79.5 185.5,-49 335,-49 335,-79.5"/>
<text text-anchor="start" x="193.5" y="-66" font-family="Helvetica,sans-Serif" font-size="10.00">Slic3r::GUI::GLGizmoMeasure</text>
<text text-anchor="middle" x="260.25" y="-54.75" font-family="Helvetica,sans-Serif" font-size="10.00">::update_measurement_result</text>
</a>
</g>
</g>
<!-- Node3&#45;&gt;Node5 -->
<g id="edge7_Node000003_Node000005" class="edge">
<title>Node3&#45;&gt;Node5</title>
<g id="a_edge7_Node000003_Node000005"><a xlink:title=" ">
<path fill="none" stroke="#63b8ff" d="M390.36,-80.47C372.77,-78.26 353.43,-75.83 335.2,-73.54"/>
<polygon fill="#63b8ff" stroke="#63b8ff" points="389.71,-84.04 400.07,-81.82 390.58,-77.1 389.71,-84.04"/>
</a>
</g>
</g>
<!-- Node6 -->
<g id="Node000006" class="node">
<title>Node6</title>
<g id="a_Node000006"><a xlink:href="../../d9/d9a/class_slic3r_1_1_g_u_i_1_1_g_l_gizmo_measure.html#a1ec4ff61dde6e854103f25b0550046ed" target="_top" xlink:title="Is called when data (Selection) is changed.">
<polygon fill="white" stroke="#666666" points="149.5,-128.5 0,-128.5 0,-98 149.5,-98 149.5,-128.5"/>
<text text-anchor="start" x="8" y="-115" font-family="Helvetica,sans-Serif" font-size="10.00">Slic3r::GUI::GLGizmoMeasure</text>
<text text-anchor="middle" x="74.75" y="-103.75" font-family="Helvetica,sans-Serif" font-size="10.00">::data_changed</text>
</a>
</g>
</g>
<!-- Node5&#45;&gt;Node6 -->
<g id="edge8_Node000005_Node000006" class="edge">
<title>Node5&#45;&gt;Node6</title>
<g id="a_edge8_Node000005_Node000006"><a xlink:title=" ">
<path fill="none" stroke="#63b8ff" d="M189.87,-82.78C171.64,-87.64 152.16,-92.85 134.55,-97.55"/>
<polygon fill="#63b8ff" stroke="#63b8ff" points="190.67,-85.92 199.43,-79.96 188.87,-79.15 190.67,-85.92"/>
</a>
</g>
</g>
<!-- Node7 -->
<g id="Node000007" class="node">
<title>Node7</title>
<g id="a_Node000007"><a xlink:href="../../d9/d9a/class_slic3r_1_1_g_u_i_1_1_g_l_gizmo_measure.html#ae0e93b73810e939b6d513d60c7c41a75" target="_top" xlink:title=" ">
<polygon fill="white" stroke="#666666" points="149.5,-79.5 0,-79.5 0,-49 149.5,-49 149.5,-79.5"/>
<text text-anchor="start" x="8" y="-66" font-family="Helvetica,sans-Serif" font-size="10.00">Slic3r::GUI::GLGizmoMeasure</text>
<text text-anchor="middle" x="74.75" y="-54.75" font-family="Helvetica,sans-Serif" font-size="10.00">::gizmo_event</text>
</a>
</g>
</g>
<!-- Node5&#45;&gt;Node7 -->
<g id="edge9_Node000005_Node000007" class="edge">
<title>Node5&#45;&gt;Node7</title>
<g id="a_edge9_Node000005_Node000007"><a xlink:title=" ">
<path fill="none" stroke="#63b8ff" d="M174.42,-64.25C166.21,-64.25 157.93,-64.25 149.84,-64.25"/>
<polygon fill="#63b8ff" stroke="#63b8ff" points="174.14,-67.75 184.14,-64.25 174.14,-60.75 174.14,-67.75"/>
</a>
</g>
</g>
<!-- Node8 -->
<g id="Node000008" class="node">
<title>Node8</title>
<g id="a_Node000008"><a xlink:href="../../d9/d9a/class_slic3r_1_1_g_u_i_1_1_g_l_gizmo_measure.html#a95f17db40c8bcdaf876647ba4ae484cc" target="_top" xlink:title="Apply rotation on select plane.">
<polygon fill="white" stroke="#666666" points="149.5,-30.5 0,-30.5 0,0 149.5,0 149.5,-30.5"/>
<text text-anchor="start" x="8" y="-17" font-family="Helvetica,sans-Serif" font-size="10.00">Slic3r::GUI::GLGizmoMeasure</text>
<text text-anchor="middle" x="74.75" y="-5.75" font-family="Helvetica,sans-Serif" font-size="10.00">::on_mouse</text>
</a>
</g>
</g>
<!-- Node5&#45;&gt;Node8 -->
<g id="edge10_Node000005_Node000008" class="edge">
<title>Node5&#45;&gt;Node8</title>
<g id="a_edge10_Node000005_Node000008"><a xlink:title=" ">
<path fill="none" stroke="#63b8ff" d="M189.87,-45.72C171.64,-40.86 152.16,-35.65 134.55,-30.95"/>
<polygon fill="#63b8ff" stroke="#63b8ff" points="188.87,-49.35 199.43,-48.54 190.67,-42.58 188.87,-49.35"/>
</a>
</g>
</g>
</g>
</svg>
