<?xml version="1.0" encoding="UTF-8" standalone="no"?>
<!DOCTYPE svg PUBLIC "-//W3C//DTD SVG 1.1//EN"
 "http://www.w3.org/Graphics/SVG/1.1/DTD/svg11.dtd">
<!-- Generated by graphviz version 8.0.5 (20230430.1635)
 -->
<!-- Title: Slic3r::Measure::Measuring Pages: 1 -->
<!--zoomable 461 -->

<svg id="main" version="1.1" xmlns="http://www.w3.org/2000/svg" xmlns:xlink="http://www.w3.org/1999/xlink" xml:space="preserve" onload="init(evt)">
<style type="text/css"><![CDATA[
.node, .edge {opacity: 0.7;}
.node.selected, .edge.selected {opacity: 1;}
.edge:hover path { stroke: red; }
.edge:hover polygon { stroke: red; fill: red; }
]]></style>

<defs>
  <circle id="rim" cx="0" cy="0" r="7"/>
  <circle id="rim2" cx="0" cy="0" r="3.5"/>
  <g id="zoomPlus">
    <use xlink:href="#rim" fill="#404040"><set attributeName="fill" to="#808080" begin="zoomplus.mouseover" end="zoomplus.mouseout"/></use>
    <path d="M-4,0h8M0,-4v8" fill="none" stroke="white" stroke-width="1.5" pointer-events="none"/>
  </g>
  <g id="zoomMin">
    <use xlink:href="#rim" fill="#404040"><set attributeName="fill" to="#808080" begin="zoomminus.mouseover" end="zoomminus.mouseout"/></use>
    <path d="M-4,0h8" fill="none" stroke="white" stroke-width="1.5" pointer-events="none"/>
  </g>
  <g id="arrowUp" transform="translate(30 24)">
    <use xlink:href="#rim"/>
    <path pointer-events="none" fill="none" stroke="white" stroke-width="1.5" d="M0,-3.0v7 M-2.5,-0.5L0,-3.0L2.5,-0.5"/>
  </g>
  <g id="arrowRight" transform="rotate(90) translate(36 -43)">
    <use xlink:href="#rim"/>
    <path pointer-events="none" fill="none" stroke="white" stroke-width="1.5" d="M0,-3.0v7 M-2.5,-0.5L0,-3.0L2.5,-0.5"/>
  </g>
  <g id="arrowDown" transform="rotate(180) translate(-30 -48)">
    <use xlink:href="#rim"/>
    <path pointer-events="none" fill="none" stroke="white" stroke-width="1.5" d="M0,-3.0v7 M-2.5,-0.5L0,-3.0L2.5,-0.5"/>
  </g>
  <g id="arrowLeft" transform="rotate(270) translate(-36 17)">
    <use xlink:href="#rim"/>
    <path pointer-events="none" fill="none" stroke="white" stroke-width="1.5" d="M0,-3.0v7 M-2.5,-0.5L0,-3.0L2.5,-0.5"/>
  </g>
  <g id="resetDef">
    <use xlink:href="#rim2" fill="#404040"><set attributeName="fill" to="#808080" begin="reset.mouseover" end="reset.mouseout"/></use>
  </g>
</defs>
<script type="application/ecmascript">
var viewWidth = 1918;
var viewHeight = 461;
var sectionId = 'dynsection-0';
</script>
<script type="application/ecmascript" xlink:href="../../svg.min.js"/>
<svg id="graph" class="graph">
<g id="viewport">
<title>Slic3r::Measure::Measuring</title>
<!-- Node1 -->
<g id="Node000001" class="node">
<title>Node1</title>
<g id="a_Node000001"><a xlink:title=" ">
<polygon fill="#999999" stroke="#666666" points="1910.3,-68.2 1775.05,-68.2 1775.05,-48.95 1910.3,-48.95 1910.3,-68.2"/>
<text text-anchor="middle" x="1842.68" y="-54.7" font-family="Helvetica,sans-Serif" font-size="10.00">Slic3r::Measure::Measuring</text>
</a>
</g>
</g>
<!-- Node2 -->
<g id="Node000002" class="node">
<title>Node2</title>
<g id="a_Node000002"><a xlink:title=" ">
<polygon fill="white" stroke="#666666" points="1720.3,-73.83 1582.05,-73.83 1582.05,-43.33 1720.3,-43.33 1720.3,-73.83"/>
<text text-anchor="start" x="1590.05" y="-60.33" font-family="Helvetica,sans-Serif" font-size="10.00">std::unique_ptr&lt; Slic3r</text>
<text text-anchor="middle" x="1651.18" y="-49.08" font-family="Helvetica,sans-Serif" font-size="10.00">::Measure::MeasuringImpl &gt;</text>
</a>
</g>
</g>
<!-- Node2&#45;&gt;Node1 -->
<g id="edge1_Node000001_Node000002" class="edge">
<title>Node2&#45;&gt;Node1</title>
<g id="a_edge1_Node000001_Node000002"><a xlink:title=" ">
<path fill="none" stroke="#9a32cd" stroke-dasharray="5,2" d="M1731.45,-58.58C1745.81,-58.58 1760.66,-58.58 1774.63,-58.58"/>
<polygon fill="#9a32cd" stroke="#9a32cd" points="1731.59,-55.08 1721.59,-58.58 1731.59,-62.08 1731.59,-55.08"/>
</a>
</g>
<text text-anchor="middle" x="1747.68" y="-60.33" font-family="Helvetica,sans-Serif" font-size="10.00" fill="grey"> priv</text>
</g>
<!-- Node3 -->
<g id="Node000003" class="node">
<title>Node3</title>
<g id="a_Node000003"><a xlink:href="../../d8/d71/class_slic3r_1_1_measure_1_1_measuring_impl.html" target="_top" xlink:title=" ">
<polygon fill="white" stroke="#666666" points="1531.8,-201.2 1377.8,-201.2 1377.8,-181.95 1531.8,-181.95 1531.8,-201.2"/>
<text text-anchor="middle" x="1454.8" y="-187.7" font-family="Helvetica,sans-Serif" font-size="10.00">Slic3r::Measure::MeasuringImpl</text>
</a>
</g>
</g>
<!-- Node3&#45;&gt;Node2 -->
<g id="edge2_Node000002_Node000003" class="edge">
<title>Node3&#45;&gt;Node2</title>
<g id="a_edge2_Node000002_Node000003"><a xlink:title=" ">
<path fill="none" stroke="#9a32cd" stroke-dasharray="5,2" d="M1479.13,-175.61C1516.63,-149.95 1589.89,-99.83 1627.18,-74.31"/>
<polygon fill="#9a32cd" stroke="#9a32cd" points="1477.69,-173.05 1471.41,-181.58 1481.64,-178.82 1477.69,-173.05"/>
</a>
</g>
<text text-anchor="middle" x="1556.93" y="-127.33" font-family="Helvetica,sans-Serif" font-size="10.00" fill="grey"> ptr</text>
</g>
<!-- Node4 -->
<g id="Node000004" class="node">
<title>Node4</title>
<g id="a_Node000004"><a xlink:title=" ">
<polygon fill="white" stroke="#666666" points="1296.8,-254.45 1167.55,-254.45 1167.55,-212.7 1296.8,-212.7 1296.8,-254.45"/>
<text text-anchor="start" x="1175.55" y="-240.95" font-family="Helvetica,sans-Serif" font-size="10.00">std::vector&lt; Slic3r</text>
<text text-anchor="start" x="1175.55" y="-229.7" font-family="Helvetica,sans-Serif" font-size="10.00">::Measure::MeasuringImpl</text>
<text text-anchor="middle" x="1232.18" y="-218.45" font-family="Helvetica,sans-Serif" font-size="10.00">::PlaneData &gt;</text>
</a>
</g>
</g>
<!-- Node4&#45;&gt;Node3 -->
<g id="edge3_Node000003_Node000004" class="edge">
<title>Node4&#45;&gt;Node3</title>
<g id="a_edge3_Node000003_Node000004"><a xlink:title=" ">
<path fill="none" stroke="#9a32cd" stroke-dasharray="5,2" d="M1307.88,-219.36C1338.35,-213.56 1372.88,-206.98 1400.69,-201.69"/>
<polygon fill="#9a32cd" stroke="#9a32cd" points="1307.45,-216.07 1298.29,-221.37 1308.76,-222.94 1307.45,-216.07"/>
</a>
</g>
<text text-anchor="middle" x="1337.3" y="-218.33" font-family="Helvetica,sans-Serif" font-size="10.00" fill="grey"> m_planes</text>
</g>
<!-- Node5 -->
<g id="Node000005" class="node">
<title>Node5</title>
<g id="a_Node000005"><a xlink:href="../../d8/d71/class_slic3r_1_1_measure_1_1_measuring_impl.html#d1/d18/struct_slic3r_1_1_measure_1_1_measuring_impl_1_1_plane_data" target="_top" xlink:title=" ">
<polygon fill="white" stroke="#666666" points="1054.3,-248.83 919.05,-248.83 919.05,-218.33 1054.3,-218.33 1054.3,-248.83"/>
<text text-anchor="start" x="927.05" y="-235.33" font-family="Helvetica,sans-Serif" font-size="10.00">Slic3r::Measure::Measuring</text>
<text text-anchor="middle" x="986.68" y="-224.08" font-family="Helvetica,sans-Serif" font-size="10.00">Impl::PlaneData</text>
</a>
</g>
</g>
<!-- Node5&#45;&gt;Node4 -->
<g id="edge4_Node000004_Node000005" class="edge">
<title>Node5&#45;&gt;Node4</title>
<g id="a_edge4_Node000004_Node000005"><a xlink:title=" ">
<path fill="none" stroke="#9a32cd" stroke-dasharray="5,2" d="M1065.48,-233.58C1098.37,-233.58 1136.2,-233.58 1167.4,-233.58"/>
<polygon fill="#9a32cd" stroke="#9a32cd" points="1065.53,-230.08 1055.53,-233.58 1065.53,-237.08 1065.53,-230.08"/>
</a>
</g>
<text text-anchor="middle" x="1110.93" y="-235.33" font-family="Helvetica,sans-Serif" font-size="10.00" fill="grey"> elements</text>
</g>
<!-- Node6 -->
<g id="Node000006" class="node">
<title>Node6</title>
<g id="a_Node000006"><a xlink:title=" ">
<polygon fill="white" stroke="#666666" points="604.68,-316.2 513.68,-316.2 513.68,-296.95 604.68,-296.95 604.68,-316.2"/>
<text text-anchor="middle" x="559.18" y="-302.7" font-family="Helvetica,sans-Serif" font-size="10.00">std::vector&lt; int &gt;</text>
</a>
</g>
</g>
<!-- Node6&#45;&gt;Node5 -->
<g id="edge5_Node000005_Node000006" class="edge">
<title>Node6&#45;&gt;Node5</title>
<g id="a_edge5_Node000005_Node000006"><a xlink:title=" ">
<path fill="none" stroke="#9a32cd" stroke-dasharray="5,2" d="M615.99,-302.97C684.04,-297.74 802.19,-286.02 901.05,-262.58 915.71,-259.1 931.41,-254.1 945.26,-249.22"/>
<polygon fill="#9a32cd" stroke="#9a32cd" points="615.82,-299.54 606.11,-303.78 616.34,-306.52 615.82,-299.54"/>
</a>
</g>
<text text-anchor="middle" x="712.05" y="-301.33" font-family="Helvetica,sans-Serif" font-size="10.00" fill="grey"> facets</text>
</g>
<!-- Node7 -->
<g id="Node000007" class="node">
<title>Node7</title>
<g id="a_Node000007"><a xlink:title=" ">
<polygon fill="white" stroke="#666666" points="194.05,-265.2 107.55,-265.2 107.55,-245.95 194.05,-245.95 194.05,-265.2"/>
<text text-anchor="middle" x="150.8" y="-251.7" font-family="Helvetica,sans-Serif" font-size="10.00">std::vector&lt; T &gt;</text>
</a>
</g>
</g>
<!-- Node7&#45;&gt;Node4 -->
<g id="edge15_Node000004_Node000007" class="edge">
<title>Node7&#45;&gt;Node4</title>
<g id="a_edge15_Node000004_Node000007"><a xlink:title=" ">
<path fill="none" stroke="orange" stroke-dasharray="5,2" d="M171.29,-272.07C182.6,-280.95 197.45,-291.5 212.05,-298.58 290.97,-336.82 313.85,-353.58 401.55,-353.58 401.55,-353.58 401.55,-353.58 987.68,-353.58 1076.04,-353.58 1165.59,-289.21 1207.18,-254.76"/>
<polygon fill="orange" stroke="orange" points="174.03,-268.97 164.06,-265.4 169.63,-274.41 174.03,-268.97"/>
</a>
</g>
<text text-anchor="start" x="649.8" y="-366.58" font-family="Helvetica,sans-Serif" font-size="10.00" fill="grey"> &lt; Slic3r::Measure::</text>
<text text-anchor="middle" x="712.05" y="-355.33" font-family="Helvetica,sans-Serif" font-size="10.00" fill="grey">MeasuringImpl::PlaneData &gt;</text>
</g>
<!-- Node7&#45;&gt;Node6 -->
<g id="edge6_Node000006_Node000007" class="edge">
<title>Node7&#45;&gt;Node6</title>
<g id="a_edge6_Node000006_Node000007"><a xlink:title=" ">
<path fill="none" stroke="orange" stroke-dasharray="5,2" d="M202.8,-267.88C205.92,-268.49 209.02,-269.07 212.05,-269.58 319.46,-287.73 447.21,-298.66 513.41,-303.54"/>
<polygon fill="orange" stroke="orange" points="203.68,-264.28 193.17,-265.67 202.25,-271.14 203.68,-264.28"/>
</a>
</g>
<text text-anchor="middle" x="264.3" y="-285.33" font-family="Helvetica,sans-Serif" font-size="10.00" fill="grey"> &lt; int &gt;</text>
</g>
<!-- Node9 -->
<g id="Node000009" class="node">
<title>Node9</title>
<g id="a_Node000009"><a xlink:title=" ">
<polygon fill="white" stroke="#666666" points="771.05,-174.83 653.05,-174.83 653.05,-144.33 771.05,-144.33 771.05,-174.83"/>
<text text-anchor="start" x="661.05" y="-161.33" font-family="Helvetica,sans-Serif" font-size="10.00">std::vector&lt; std::vector</text>
<text text-anchor="middle" x="712.05" y="-150.08" font-family="Helvetica,sans-Serif" font-size="10.00">&lt; Eigen::Matrix &gt; &gt;</text>
</a>
</g>
</g>
<!-- Node7&#45;&gt;Node9 -->
<g id="edge11_Node000009_Node000007" class="edge">
<title>Node7&#45;&gt;Node9</title>
<g id="a_edge11_Node000009_Node000007"><a xlink:title=" ">
<path fill="none" stroke="orange" stroke-dasharray="5,2" d="M205.08,-255.84C321.94,-256.03 593.25,-254.32 629.8,-234.58 641.85,-228.07 638.34,-219.47 647.8,-209.58 659.99,-196.83 675.5,-184.52 688.11,-175.3"/>
<polygon fill="orange" stroke="orange" points="205.28,-252.34 195.27,-255.81 205.26,-259.34 205.28,-252.34"/>
</a>
</g>
<text text-anchor="start" x="356.43" y="-267.58" font-family="Helvetica,sans-Serif" font-size="10.00" fill="grey"> &lt; std::vector&lt; Eigen</text>
<text text-anchor="middle" x="402.55" y="-256.33" font-family="Helvetica,sans-Serif" font-size="10.00" fill="grey">::Matrix &gt; &gt;</text>
</g>
<!-- Node10 -->
<g id="Node000010" class="node">
<title>Node10</title>
<g id="a_Node000010"><a xlink:title=" ">
<polygon fill="#fff0f0" stroke="red" points="450.68,-181.83 354.43,-181.83 354.43,-151.33 450.68,-151.33 450.68,-181.83"/>
<text text-anchor="start" x="362.43" y="-168.33" font-family="Helvetica,sans-Serif" font-size="10.00">std::vector&lt; Eigen</text>
<text text-anchor="middle" x="402.55" y="-157.08" font-family="Helvetica,sans-Serif" font-size="10.00">::Matrix &gt;</text>
</a>
</g>
</g>
<!-- Node7&#45;&gt;Node10 -->
<g id="edge10_Node000010_Node000007" class="edge">
<title>Node7&#45;&gt;Node10</title>
<g id="a_edge10_Node000010_Node000007"><a xlink:title=" ">
<path fill="none" stroke="orange" stroke-dasharray="5,2" d="M164.99,-236.55C180.65,-214.22 205.49,-179.79 212.05,-176.33 256.03,-153.09 314.06,-153.87 354.26,-158.43"/>
<polygon fill="orange" stroke="orange" points="161.58,-234.32 158.73,-244.52 167.32,-238.33 161.58,-234.32"/>
</a>
</g>
<text text-anchor="middle" x="264.3" y="-178.33" font-family="Helvetica,sans-Serif" font-size="10.00" fill="grey"> &lt; Eigen::Matrix &gt;</text>
</g>
<!-- Node21 -->
<g id="Node000021" class="node">
<title>Node21</title>
<g id="a_Node000021"><a xlink:title=" ">
<polygon fill="#fff0f0" stroke="red" points="629.8,-225.83 488.55,-225.83 488.55,-195.33 629.8,-195.33 629.8,-225.83"/>
<text text-anchor="start" x="496.55" y="-212.33" font-family="Helvetica,sans-Serif" font-size="10.00">std::vector&lt; Slic3r</text>
<text text-anchor="middle" x="559.18" y="-201.08" font-family="Helvetica,sans-Serif" font-size="10.00">::Measure::SurfaceFeature &gt;</text>
</a>
</g>
</g>
<!-- Node7&#45;&gt;Node21 -->
<g id="edge13_Node000021_Node000007" class="edge">
<title>Node7&#45;&gt;Node21</title>
<g id="a_edge13_Node000021_Node000007"><a xlink:title=" ">
<path fill="none" stroke="orange" stroke-dasharray="5,2" d="M172.64,-239.23C183.69,-231.57 197.89,-223.22 212.05,-219.08 304.64,-191.99 417.19,-195.53 488.27,-201.93"/>
<polygon fill="orange" stroke="orange" points="170.83,-236.95 164.82,-245.67 174.96,-242.61 170.83,-236.95"/>
</a>
</g>
<text text-anchor="start" x="221.18" y="-231.58" font-family="Helvetica,sans-Serif" font-size="10.00" fill="grey"> &lt; Slic3r::Measure::</text>
<text text-anchor="middle" x="264.3" y="-220.33" font-family="Helvetica,sans-Serif" font-size="10.00" fill="grey">SurfaceFeature &gt;</text>
</g>
<!-- Node25 -->
<g id="Node000025" class="node">
<title>Node25</title>
<g id="a_Node000025"><a xlink:title=" ">
<polygon fill="white" stroke="#666666" points="901.05,-410.2 794.3,-410.2 794.3,-390.95 901.05,-390.95 901.05,-410.2"/>
<text text-anchor="middle" x="847.68" y="-396.7" font-family="Helvetica,sans-Serif" font-size="10.00">std::vector&lt; size_t &gt;</text>
</a>
</g>
</g>
<!-- Node7&#45;&gt;Node25 -->
<g id="edge17_Node000025_Node000007" class="edge">
<title>Node7&#45;&gt;Node25</title>
<g id="a_edge17_Node000025_Node000007"><a xlink:title=" ">
<path fill="none" stroke="orange" stroke-dasharray="5,2" d="M156.36,-276.23C163.37,-302.51 179.54,-346.99 212.05,-367.58 405.45,-490.07 702.27,-435.67 807.8,-410.66"/>
<polygon fill="orange" stroke="orange" points="159.53,-275.46 153.76,-266.58 152.73,-277.12 159.53,-275.46"/>
</a>
</g>
<text text-anchor="middle" x="402.55" y="-443.33" font-family="Helvetica,sans-Serif" font-size="10.00" fill="grey"> &lt; size_t &gt;</text>
</g>
<!-- Node8 -->
<g id="Node000008" class="node">
<title>Node8</title>
<g id="a_Node000008"><a xlink:title=" ">
<polygon fill="white" stroke="#666666" points="28.8,-207.2 0,-207.2 0,-187.95 28.8,-187.95 28.8,-207.2"/>
<text text-anchor="middle" x="14.4" y="-193.7" font-family="Helvetica,sans-Serif" font-size="10.00">T</text>
</a>
</g>
</g>
<!-- Node8&#45;&gt;Node7 -->
<g id="edge7_Node000007_Node000008" class="edge">
<title>Node8&#45;&gt;Node7</title>
<g id="a_edge7_Node000007_Node000008"><a xlink:title=" ">
<path fill="none" stroke="#9a32cd" stroke-dasharray="5,2" d="M39.21,-207.85C63.79,-218.46 101.9,-234.91 126.35,-245.46"/>
<polygon fill="#9a32cd" stroke="#9a32cd" points="40.85,-204.32 30.28,-203.57 38.07,-210.74 40.85,-204.32"/>
</a>
</g>
<text text-anchor="middle" x="68.18" y="-229.33" font-family="Helvetica,sans-Serif" font-size="10.00" fill="grey"> elements</text>
</g>
<!-- Node32 -->
<g id="Node000032" class="node">
<title>Node32</title>
<g id="a_Node000032"><a xlink:title=" ">
<polygon fill="white" stroke="#666666" points="316.55,-79.2 212.05,-79.2 212.05,-59.95 316.55,-59.95 316.55,-79.2"/>
<text text-anchor="middle" x="264.3" y="-65.7" font-family="Helvetica,sans-Serif" font-size="10.00">std::unique_ptr&lt; T &gt;</text>
</a>
</g>
</g>
<!-- Node8&#45;&gt;Node32 -->
<g id="edge25_Node000032_Node000008" class="edge">
<title>Node8&#45;&gt;Node32</title>
<g id="a_edge25_Node000032_Node000008"><a xlink:title=" ">
<path fill="none" stroke="#9a32cd" stroke-dasharray="5,2" d="M38.71,-185.54C87.28,-160.46 198.56,-103.01 243.72,-79.69"/>
<polygon fill="#9a32cd" stroke="#9a32cd" points="37.36,-182.82 30.08,-190.51 40.57,-189.04 37.36,-182.82"/>
</a>
</g>
<text text-anchor="middle" x="68.18" y="-182.33" font-family="Helvetica,sans-Serif" font-size="10.00" fill="grey"> ptr</text>
</g>
<!-- Node9&#45;&gt;Node5 -->
<g id="edge8_Node000005_Node000009" class="edge">
<title>Node9&#45;&gt;Node5</title>
<g id="a_edge8_Node000005_Node000009"><a xlink:title=" ">
<path fill="none" stroke="#9a32cd" stroke-dasharray="5,2" d="M782.47,-162.75C818.59,-165.97 863.02,-172.42 901.05,-185.33 923.79,-193.05 947.34,-207.05 963.81,-217.99"/>
<polygon fill="#9a32cd" stroke="#9a32cd" points="782.8,-159.18 772.54,-161.85 782.22,-166.16 782.8,-159.18"/>
</a>
</g>
<text text-anchor="middle" x="847.68" y="-187.33" font-family="Helvetica,sans-Serif" font-size="10.00" fill="grey"> borders</text>
</g>
<!-- Node10&#45;&gt;Node9 -->
<g id="edge9_Node000009_Node000010" class="edge">
<title>Node10&#45;&gt;Node9</title>
<g id="a_edge9_Node000009_Node000010"><a xlink:title=" ">
<path fill="none" stroke="#9a32cd" stroke-dasharray="5,2" d="M461.83,-165.25C516.5,-164.01 597.84,-162.16 652.58,-160.91"/>
<polygon fill="#9a32cd" stroke="#9a32cd" points="461.84,-161.77 451.92,-165.5 462,-168.77 461.84,-161.77"/>
</a>
</g>
<text text-anchor="middle" x="559.18" y="-166.33" font-family="Helvetica,sans-Serif" font-size="10.00" fill="grey"> elements</text>
</g>
<!-- Node27 -->
<g id="Node000027" class="node">
<title>Node27</title>
<g id="a_Node000027"><a xlink:href="../../d0/df2/structindexed__triangle__set.html" target="_top" xlink:title=" ">
<polygon fill="white" stroke="#666666" points="764.68,-126.2 659.43,-126.2 659.43,-106.95 764.68,-106.95 764.68,-126.2"/>
<text text-anchor="middle" x="712.05" y="-112.7" font-family="Helvetica,sans-Serif" font-size="10.00">indexed_triangle_set</text>
</a>
</g>
</g>
<!-- Node10&#45;&gt;Node27 -->
<g id="edge20_Node000027_Node000010" class="edge">
<title>Node10&#45;&gt;Node27</title>
<g id="a_edge20_Node000027_Node000010"><a xlink:title=" ">
<path fill="none" stroke="#9a32cd" stroke-dasharray="5,2" d="M449.46,-146.98C461.94,-142.37 475.59,-137.96 488.55,-135.08 546.06,-122.28 613.72,-118.16 659.2,-116.92"/>
<polygon fill="#9a32cd" stroke="#9a32cd" points="448.38,-144.02 440.29,-150.87 450.88,-150.56 448.38,-144.02"/>
</a>
</g>
<text text-anchor="middle" x="559.18" y="-148.58" font-family="Helvetica,sans-Serif" font-size="10.00" fill="grey"> indices</text>
<text text-anchor="middle" x="559.18" y="-137.33" font-family="Helvetica,sans-Serif" font-size="10.00" fill="grey">vertices</text>
</g>
<!-- Node21&#45;&gt;Node5 -->
<g id="edge12_Node000005_Node000021" class="edge">
<title>Node21&#45;&gt;Node5</title>
<g id="a_edge12_Node000005_Node000021"><a xlink:title=" ">
<path fill="none" stroke="#9a32cd" stroke-dasharray="5,2" d="M641.19,-213.89C681.76,-215.63 731.64,-217.91 776.3,-220.33 823.94,-222.91 877.65,-226.32 918.74,-229.03"/>
<polygon fill="#9a32cd" stroke="#9a32cd" points="641.41,-210.35 631.27,-213.42 641.11,-217.34 641.41,-210.35"/>
</a>
</g>
<text text-anchor="middle" x="712.05" y="-221.33" font-family="Helvetica,sans-Serif" font-size="10.00" fill="grey"> surface_features</text>
</g>
<!-- Node23 -->
<g id="Node000023" class="node">
<title>Node23</title>
<g id="a_Node000023"><a xlink:href="../../d2/d2d/class_eigen_1_1_matrix.html" target="_top" xlink:title=" ">
<polygon fill="#fff0f0" stroke="red" points="774.05,-270.83 650.05,-270.83 650.05,-240.33 774.05,-240.33 774.05,-270.83"/>
<text text-anchor="start" x="658.05" y="-257.33" font-family="Helvetica,sans-Serif" font-size="10.00">Eigen::Matrix&lt; double,</text>
<text text-anchor="middle" x="712.05" y="-246.08" font-family="Helvetica,sans-Serif" font-size="10.00"> 3, 1, Eigen::DontAlign &gt;</text>
</a>
</g>
</g>
<!-- Node23&#45;&gt;Node5 -->
<g id="edge14_Node000005_Node000023" class="edge">
<title>Node23&#45;&gt;Node5</title>
<g id="a_edge14_Node000005_Node000023"><a xlink:title=" ">
<path fill="none" stroke="#9a32cd" stroke-dasharray="5,2" d="M785.1,-249.76C826.6,-246.42 878.4,-242.23 918.97,-238.96"/>
<polygon fill="#9a32cd" stroke="#9a32cd" points="784.92,-246.35 775.23,-250.64 785.48,-253.33 784.92,-246.35"/>
</a>
</g>
<text text-anchor="middle" x="847.68" y="-249.33" font-family="Helvetica,sans-Serif" font-size="10.00" fill="grey"> normal</text>
</g>
<!-- Node25&#45;&gt;Node3 -->
<g id="edge16_Node000003_Node000025" class="edge">
<title>Node25&#45;&gt;Node3</title>
<g id="a_edge16_Node000003_Node000025"><a xlink:title=" ">
<path fill="none" stroke="#9a32cd" stroke-dasharray="5,2" d="M912.22,-401.15C974.23,-399.97 1070.53,-393.49 1149.55,-367.58 1272.77,-327.18 1401.06,-232.58 1441.1,-201.6"/>
<polygon fill="#9a32cd" stroke="#9a32cd" points="912.37,-397.66 902.43,-401.31 912.48,-404.66 912.37,-397.66"/>
</a>
</g>
<text text-anchor="middle" x="1110.93" y="-387.33" font-family="Helvetica,sans-Serif" font-size="10.00" fill="grey"> m_face_to_plane</text>
</g>
<!-- Node26 -->
<g id="Node000026" class="node">
<title>Node26</title>
<g id="a_Node000026"><a xlink:href="../../d8/d71/class_slic3r_1_1_triangle_mesh.html" target="_top" xlink:title=" ">
<polygon fill="white" stroke="#666666" points="1039.3,-126.2 934.05,-126.2 934.05,-106.95 1039.3,-106.95 1039.3,-126.2"/>
<text text-anchor="middle" x="986.68" y="-112.7" font-family="Helvetica,sans-Serif" font-size="10.00">Slic3r::TriangleMesh</text>
</a>
</g>
</g>
<!-- Node26&#45;&gt;Node3 -->
<g id="edge18_Node000003_Node000026" class="edge">
<title>Node26&#45;&gt;Node3</title>
<g id="a_edge18_Node000003_Node000026"><a xlink:title=" ">
<path fill="none" stroke="#9a32cd" stroke-dasharray="5,2" d="M1050.55,-126.69C1139.68,-141.04 1301.8,-167.12 1390.93,-181.46"/>
<polygon fill="#9a32cd" stroke="#9a32cd" points="1051.22,-123.1 1040.79,-124.96 1050.11,-130.01 1051.22,-123.1"/>
</a>
</g>
<text text-anchor="middle" x="1232.18" y="-167.33" font-family="Helvetica,sans-Serif" font-size="10.00" fill="grey"> m_mesh</text>
</g>
<!-- Node27&#45;&gt;Node26 -->
<g id="edge19_Node000026_Node000027" class="edge">
<title>Node27&#45;&gt;Node26</title>
<g id="a_edge19_Node000026_Node000027"><a xlink:title=" ">
<path fill="none" stroke="#9a32cd" stroke-dasharray="5,2" d="M775.84,-116.58C823.77,-116.58 889,-116.58 933.95,-116.58"/>
<polygon fill="#9a32cd" stroke="#9a32cd" points="775.97,-113.08 765.97,-116.58 775.97,-120.08 775.97,-113.08"/>
</a>
</g>
<text text-anchor="middle" x="847.68" y="-118.33" font-family="Helvetica,sans-Serif" font-size="10.00" fill="grey"> its</text>
</g>
<!-- Node28 -->
<g id="Node000028" class="node">
<title>Node28</title>
<g id="a_Node000028"><a xlink:href="../../d2/da4/struct_slic3r_1_1_triangle_mesh_stats.html" target="_top" xlink:title=" ">
<polygon fill="white" stroke="#666666" points="776.3,-85.2 647.8,-85.2 647.8,-65.95 776.3,-65.95 776.3,-85.2"/>
<text text-anchor="middle" x="712.05" y="-71.7" font-family="Helvetica,sans-Serif" font-size="10.00">Slic3r::TriangleMeshStats</text>
</a>
</g>
</g>
<!-- Node28&#45;&gt;Node26 -->
<g id="edge21_Node000026_Node000028" class="edge">
<title>Node28&#45;&gt;Node26</title>
<g id="a_edge21_Node000026_Node000028"><a xlink:title=" ">
<path fill="none" stroke="#9a32cd" stroke-dasharray="5,2" d="M787.18,-85C821.83,-89.59 863.6,-95.39 901.05,-101.33 911.67,-103.01 923,-104.95 933.82,-106.88"/>
<polygon fill="#9a32cd" stroke="#9a32cd" points="788.05,-81.45 777.67,-83.61 787.13,-88.39 788.05,-81.45"/>
</a>
</g>
<text text-anchor="middle" x="847.68" y="-103.33" font-family="Helvetica,sans-Serif" font-size="10.00" fill="grey"> m_stats</text>
</g>
<!-- Node29 -->
<g id="Node000029" class="node">
<title>Node29</title>
<g id="a_Node000029"><a xlink:href="../../d2/d2d/class_eigen_1_1_matrix.html" target="_top" xlink:title=" ">
<polygon fill="#fff0f0" stroke="red" points="464.55,-99.83 340.55,-99.83 340.55,-69.33 464.55,-69.33 464.55,-99.83"/>
<text text-anchor="start" x="348.55" y="-86.33" font-family="Helvetica,sans-Serif" font-size="10.00">Eigen::Matrix&lt; float,</text>
<text text-anchor="middle" x="402.55" y="-75.08" font-family="Helvetica,sans-Serif" font-size="10.00"> 3, 1, Eigen::DontAlign &gt;</text>
</a>
</g>
</g>
<!-- Node29&#45;&gt;Node28 -->
<g id="edge22_Node000028_Node000029" class="edge">
<title>Node29&#45;&gt;Node28</title>
<g id="a_edge22_Node000028_Node000029"><a xlink:title=" ">
<path fill="none" stroke="#9a32cd" stroke-dasharray="5,2" d="M475.66,-77.58C480.02,-77.29 484.34,-77.03 488.55,-76.83 542.18,-74.24 603.17,-74.09 647.71,-74.5"/>
<polygon fill="#9a32cd" stroke="#9a32cd" points="475.51,-74.15 465.79,-78.37 476.02,-81.13 475.51,-74.15"/>
</a>
</g>
<text text-anchor="middle" x="559.18" y="-101.83" font-family="Helvetica,sans-Serif" font-size="10.00" fill="grey"> max</text>
<text text-anchor="middle" x="559.18" y="-90.58" font-family="Helvetica,sans-Serif" font-size="10.00" fill="grey">min</text>
<text text-anchor="middle" x="559.18" y="-79.33" font-family="Helvetica,sans-Serif" font-size="10.00" fill="grey">size</text>
</g>
<!-- Node31 -->
<g id="Node000031" class="node">
<title>Node31</title>
<g id="a_Node000031"><a xlink:href="../../d2/d5a/struct_slic3r_1_1_repaired_mesh_errors.html" target="_top" xlink:title=" ">
<polygon fill="white" stroke="#666666" points="470.55,-51.2 334.55,-51.2 334.55,-31.95 470.55,-31.95 470.55,-51.2"/>
<text text-anchor="middle" x="402.55" y="-37.7" font-family="Helvetica,sans-Serif" font-size="10.00">Slic3r::RepairedMeshErrors</text>
</a>
</g>
</g>
<!-- Node31&#45;&gt;Node28 -->
<g id="edge23_Node000028_Node000031" class="edge">
<title>Node31&#45;&gt;Node28</title>
<g id="a_edge23_Node000028_Node000031"><a xlink:title=" ">
<path fill="none" stroke="#9a32cd" stroke-dasharray="5,2" d="M481.46,-45.39C525.19,-48.11 580.69,-52.52 629.8,-59.33 641.48,-60.95 654.02,-63.2 665.66,-65.51"/>
<polygon fill="#9a32cd" stroke="#9a32cd" points="481.79,-41.85 471.6,-44.74 481.37,-48.84 481.79,-41.85"/>
</a>
</g>
<text text-anchor="middle" x="559.18" y="-61.33" font-family="Helvetica,sans-Serif" font-size="10.00" fill="grey"> repaired_errors</text>
</g>
<!-- Node32&#45;&gt;Node2 -->
<g id="edge24_Node000002_Node000032" class="edge">
<title>Node32&#45;&gt;Node2</title>
<g id="a_edge24_Node000002_Node000032"><a xlink:title=" ">
<path fill="none" stroke="orange" stroke-dasharray="5,2" d="M284.26,-52.75C297.41,-42.12 315.86,-29.2 334.55,-22.58 428.57,10.74 458.43,-3.58 558.18,-3.58 558.18,-3.58 558.18,-3.58 1455.8,-3.58 1514.02,-3.58 1578.46,-26.7 1616.58,-42.96"/>
<polygon fill="orange" stroke="orange" points="282.47,-50.51 277.07,-59.63 286.98,-55.88 282.47,-50.51"/>
</a>
</g>
<text text-anchor="start" x="943.55" y="-16.58" font-family="Helvetica,sans-Serif" font-size="10.00" fill="grey"> &lt; Slic3r::Measure::</text>
<text text-anchor="middle" x="986.68" y="-5.33" font-family="Helvetica,sans-Serif" font-size="10.00" fill="grey">MeasuringImpl &gt;</text>
</g>
</g>
</svg>

<g id="navigator" transform="translate(0 0)" fill="#404254">
  <rect fill="#f2f5e9" fill-opacity="0.5" stroke="#606060" stroke-width=".5" x="0" y="0" width="60" height="60"/>
  <use id="zoomplus" xlink:href="#zoomPlus" x="17" y="9" onmousedown="handleZoom(evt,'in')"/>
  <use id="zoomminus" xlink:href="#zoomMin" x="42" y="9" onmousedown="handleZoom(evt,'out')"/>
  <use id="reset" xlink:href="#resetDef" x="30" y="36" onmousedown="handleReset()"/>
   <use id="arrowup" xlink:href="#arrowUp" x="0" y="0" onmousedown="handlePan(0,-1)"/>
  <use id="arrowright" xlink:href="#arrowRight" x="0" y="0" onmousedown="handlePan(1,0)"/>
  <use id="arrowdown" xlink:href="#arrowDown" x="0" y="0" onmousedown="handlePan(0,1)"/>
  <use id="arrowleft" xlink:href="#arrowLeft" x="0" y="0" onmousedown="handlePan(-1,0)"/>
</g>
<svg viewBox="0 0 15 15" width="100%" height="30px" preserveAspectRatio="xMaxYMin meet">
 <g id="arrow_out" transform="scale(0.3 0.3)">
  <a xlink:href="class_slic3r_1_1_measure_1_1_measuring__coll__graph_org.svg" target="_base">
   <rect id="button" ry="5" rx="5" y="6" x="6" height="38" width="38"
        fill="#f2f5e9" fill-opacity="0.5" stroke="#606060" stroke-width="1.0"/>
   <path id="arrow"
     d="M 11.500037,31.436501 C 11.940474,20.09759 22.043105,11.32322 32.158766,21.979434 L 37.068811,17.246167 C 37.068811,17.246167 37.088388,32 37.088388,32 L 22.160133,31.978069 C 22.160133,31.978069 26.997745,27.140456 26.997745,27.140456 C 18.528582,18.264221 13.291696,25.230495 11.500037,31.436501 z"
     style="fill:#404040;"/>
  </a>
 </g>
</svg>

<style type='text/css'>
<![CDATA[
[data-mouse-over-selected='false'] { opacity: 0.7; }
[data-mouse-over-selected='true']  { opacity: 1.0; }
]]>
</style>
<script type="application/ecmascript"><![CDATA[
document.addEventListener('DOMContentLoaded', (event) => {
  highlightEdges();
  highlightAdjacentNodes();
});
]]></script>
</svg>
