<?xml version="1.0" encoding="UTF-8" standalone="no"?>
<!DOCTYPE svg PUBLIC "-//W3C//DTD SVG 1.1//EN"
 "http://www.w3.org/Graphics/SVG/1.1/DTD/svg11.dtd">
<!-- Generated by graphviz version 8.0.5 (20230430.1635)
 -->
<!-- Title: Eigen::internal::BandMatrixBase::coeffs Pages: 1 -->
<svg width="994pt" height="235pt"
 viewBox="0.00 0.00 994.25 234.50" xmlns="http://www.w3.org/2000/svg" xmlns:xlink="http://www.w3.org/1999/xlink">
<g id="graph0" class="graph" transform="scale(1 1) rotate(0) translate(4 230.5)">
<title>Eigen::internal::BandMatrixBase::coeffs</title>
<!-- Node1 -->
<g id="Node000001" class="node">
<title>Node1</title>
<g id="a_Node000001"><a xlink:title=" ">
<polygon fill="#999999" stroke="#666666" points="986.25,-128.5 852.5,-128.5 852.5,-98 986.25,-98 986.25,-128.5"/>
<text text-anchor="start" x="860.5" y="-115" font-family="Helvetica,sans-Serif" font-size="10.00">Eigen::internal::BandMatrix</text>
<text text-anchor="middle" x="919.38" y="-103.75" font-family="Helvetica,sans-Serif" font-size="10.00">Base::coeffs</text>
</a>
</g>
</g>
<!-- Node2 -->
<g id="Node000002" class="node">
<title>Node2</title>
<g id="a_Node000002"><a xlink:href="../../db/ded/class_eigen_1_1internal_1_1_band_matrix_base.html#a30685b7021fc61bdc10e75873923dfab" target="_top" xlink:title=" ">
<polygon fill="white" stroke="#666666" points="816.5,-226.5 682.75,-226.5 682.75,-196 816.5,-196 816.5,-226.5"/>
<text text-anchor="start" x="690.75" y="-213" font-family="Helvetica,sans-Serif" font-size="10.00">Eigen::internal::BandMatrix</text>
<text text-anchor="middle" x="749.62" y="-201.75" font-family="Helvetica,sans-Serif" font-size="10.00">Base::col</text>
</a>
</g>
</g>
<!-- Node1&#45;&gt;Node2 -->
<g id="edge1_Node000001_Node000002" class="edge">
<title>Node1&#45;&gt;Node2</title>
<g id="a_edge1_Node000001_Node000002"><a xlink:title=" ">
<path fill="none" stroke="#63b8ff" d="M891.32,-135.6C871.49,-151.23 843.44,-171.8 816.5,-186.25 810.25,-189.6 803.45,-192.72 796.67,-195.54"/>
<polygon fill="#63b8ff" stroke="#63b8ff" points="893.19,-137.79 898.82,-128.81 888.82,-132.32 893.19,-137.79"/>
</a>
</g>
</g>
<!-- Node3 -->
<g id="Node000003" class="node">
<title>Node3</title>
<g id="a_Node000003"><a xlink:href="../../db/ded/class_eigen_1_1internal_1_1_band_matrix_base.html#ac3a1a4c883004778d0540ce54d1901ca" target="_top" xlink:title=" ">
<polygon fill="white" stroke="#666666" points="816.5,-177.5 682.75,-177.5 682.75,-147 816.5,-147 816.5,-177.5"/>
<text text-anchor="start" x="690.75" y="-164" font-family="Helvetica,sans-Serif" font-size="10.00">Eigen::internal::BandMatrix</text>
<text text-anchor="middle" x="749.62" y="-152.75" font-family="Helvetica,sans-Serif" font-size="10.00">Base::diagonal</text>
</a>
</g>
</g>
<!-- Node1&#45;&gt;Node3 -->
<g id="edge2_Node000001_Node000003" class="edge">
<title>Node1&#45;&gt;Node3</title>
<g id="a_edge2_Node000001_Node000003"><a xlink:title=" ">
<path fill="none" stroke="#63b8ff" d="M854.71,-131.85C838.16,-136.68 820.5,-141.84 804.52,-146.51"/>
<polygon fill="#63b8ff" stroke="#63b8ff" points="855.22,-135.05 863.84,-128.89 853.26,-128.33 855.22,-135.05"/>
</a>
</g>
</g>
<!-- Node9 -->
<g id="Node000009" class="node">
<title>Node9</title>
<g id="a_Node000009"><a xlink:href="../../db/ded/class_eigen_1_1internal_1_1_band_matrix_base.html#afe8b339abeca5197541cfe9ae036ffcd" target="_top" xlink:title=" ">
<polygon fill="white" stroke="#666666" points="816.5,-128.5 682.75,-128.5 682.75,-98 816.5,-98 816.5,-128.5"/>
<text text-anchor="start" x="690.75" y="-115" font-family="Helvetica,sans-Serif" font-size="10.00">Eigen::internal::BandMatrix</text>
<text text-anchor="middle" x="749.62" y="-103.75" font-family="Helvetica,sans-Serif" font-size="10.00">Base::diagonal</text>
</a>
</g>
</g>
<!-- Node1&#45;&gt;Node9 -->
<g id="edge8_Node000001_Node000009" class="edge">
<title>Node1&#45;&gt;Node9</title>
<g id="a_edge8_Node000001_Node000009"><a xlink:title=" ">
<path fill="none" stroke="#63b8ff" d="M841.15,-113.25C833.08,-113.25 824.93,-113.25 816.99,-113.25"/>
<polygon fill="#63b8ff" stroke="#63b8ff" points="841.08,-116.75 851.08,-113.25 841.08,-109.75 841.08,-116.75"/>
</a>
</g>
</g>
<!-- Node10 -->
<g id="Node000010" class="node">
<title>Node10</title>
<g id="a_Node000010"><a xlink:href="../../db/ded/class_eigen_1_1internal_1_1_band_matrix_base.html#ad824b64076d3a6879e75220c12742bb4" target="_top" xlink:title=" ">
<polygon fill="white" stroke="#666666" points="816.5,-79.5 682.75,-79.5 682.75,-49 816.5,-49 816.5,-79.5"/>
<text text-anchor="start" x="690.75" y="-66" font-family="Helvetica,sans-Serif" font-size="10.00">Eigen::internal::BandMatrix</text>
<text text-anchor="middle" x="749.62" y="-54.75" font-family="Helvetica,sans-Serif" font-size="10.00">Base::diagonal</text>
</a>
</g>
</g>
<!-- Node1&#45;&gt;Node10 -->
<g id="edge9_Node000001_Node000010" class="edge">
<title>Node1&#45;&gt;Node10</title>
<g id="a_edge9_Node000001_Node000010"><a xlink:title=" ">
<path fill="none" stroke="#63b8ff" d="M854.71,-94.65C838.16,-89.82 820.5,-84.66 804.52,-79.99"/>
<polygon fill="#63b8ff" stroke="#63b8ff" points="853.26,-98.17 863.84,-97.61 855.22,-91.45 853.26,-98.17"/>
</a>
</g>
</g>
<!-- Node11 -->
<g id="Node000011" class="node">
<title>Node11</title>
<g id="a_Node000011"><a xlink:href="../../db/ded/class_eigen_1_1internal_1_1_band_matrix_base.html#a5f488a3136419f6ab9cf6056fa268006" target="_top" xlink:title=" ">
<polygon fill="white" stroke="#666666" points="816.5,-30.5 682.75,-30.5 682.75,0 816.5,0 816.5,-30.5"/>
<text text-anchor="start" x="690.75" y="-17" font-family="Helvetica,sans-Serif" font-size="10.00">Eigen::internal::BandMatrix</text>
<text text-anchor="middle" x="749.62" y="-5.75" font-family="Helvetica,sans-Serif" font-size="10.00">Base::diagonal</text>
</a>
</g>
</g>
<!-- Node1&#45;&gt;Node11 -->
<g id="edge10_Node000001_Node000011" class="edge">
<title>Node1&#45;&gt;Node11</title>
<g id="a_edge10_Node000001_Node000011"><a xlink:title=" ">
<path fill="none" stroke="#63b8ff" d="M891.32,-90.9C871.49,-75.27 843.44,-54.7 816.5,-40.25 810.25,-36.9 803.45,-33.78 796.67,-30.96"/>
<polygon fill="#63b8ff" stroke="#63b8ff" points="888.82,-94.18 898.82,-97.69 893.19,-88.71 888.82,-94.18"/>
</a>
</g>
</g>
<!-- Node4 -->
<g id="Node000004" class="node">
<title>Node4</title>
<g id="a_Node000004"><a xlink:href="../../db/ded/class_eigen_1_1internal_1_1_band_matrix_base.html#a48c573fc9b58a2d4dd0741b284124a64" target="_top" xlink:title=" ">
<polygon fill="white" stroke="#666666" points="646.75,-177.5 513,-177.5 513,-147 646.75,-147 646.75,-177.5"/>
<text text-anchor="start" x="521" y="-164" font-family="Helvetica,sans-Serif" font-size="10.00">Eigen::internal::BandMatrix</text>
<text text-anchor="middle" x="579.88" y="-152.75" font-family="Helvetica,sans-Serif" font-size="10.00">Base::evalTo</text>
</a>
</g>
</g>
<!-- Node3&#45;&gt;Node4 -->
<g id="edge3_Node000003_Node000004" class="edge">
<title>Node3&#45;&gt;Node4</title>
<g id="a_edge3_Node000003_Node000004"><a xlink:title=" ">
<path fill="none" stroke="#63b8ff" d="M671.4,-162.25C663.33,-162.25 655.18,-162.25 647.24,-162.25"/>
<polygon fill="#63b8ff" stroke="#63b8ff" points="671.33,-165.75 681.33,-162.25 671.33,-158.75 671.33,-165.75"/>
</a>
</g>
</g>
<!-- Node5 -->
<g id="Node000005" class="node">
<title>Node5</title>
<g id="a_Node000005"><a xlink:href="../../db/ded/class_eigen_1_1internal_1_1_band_matrix_base.html#aacfa0b85201b8503376a9998987f81f7" target="_top" xlink:title=" ">
<polygon fill="white" stroke="#666666" points="477,-177.5 343.25,-177.5 343.25,-147 477,-147 477,-177.5"/>
<text text-anchor="start" x="351.25" y="-164" font-family="Helvetica,sans-Serif" font-size="10.00">Eigen::internal::BandMatrix</text>
<text text-anchor="middle" x="410.12" y="-152.75" font-family="Helvetica,sans-Serif" font-size="10.00">Base::toDenseMatrix</text>
</a>
</g>
</g>
<!-- Node4&#45;&gt;Node5 -->
<g id="edge4_Node000004_Node000005" class="edge">
<title>Node4&#45;&gt;Node5</title>
<g id="a_edge4_Node000004_Node000005"><a xlink:title=" ">
<path fill="none" stroke="#63b8ff" d="M501.65,-162.25C493.58,-162.25 485.43,-162.25 477.49,-162.25"/>
<polygon fill="#63b8ff" stroke="#63b8ff" points="501.58,-165.75 511.58,-162.25 501.58,-158.75 501.58,-165.75"/>
</a>
</g>
</g>
<!-- Node6 -->
<g id="Node000006" class="node">
<title>Node6</title>
<g id="a_Node000006"><a xlink:href="../../d8/dae/class_eigen_1_1_b_d_c_s_v_d.html#a52e3c627775010775c64d16a00cdb770" target="_top" xlink:title="Method performing the decomposition of given matrix using custom options.">
<polygon fill="white" stroke="#666666" points="307.25,-171.88 174.25,-171.88 174.25,-152.62 307.25,-152.62 307.25,-171.88"/>
<text text-anchor="middle" x="240.75" y="-158.38" font-family="Helvetica,sans-Serif" font-size="10.00">Eigen::BDCSVD::compute</text>
</a>
</g>
</g>
<!-- Node5&#45;&gt;Node6 -->
<g id="edge5_Node000005_Node000006" class="edge">
<title>Node5&#45;&gt;Node6</title>
<g id="a_edge5_Node000005_Node000006"><a xlink:title=" ">
<path fill="none" stroke="#63b8ff" d="M331.99,-162.25C323.87,-162.25 315.67,-162.25 307.69,-162.25"/>
<polygon fill="#63b8ff" stroke="#63b8ff" points="331.97,-165.75 341.97,-162.25 331.97,-158.75 331.97,-165.75"/>
</a>
</g>
</g>
<!-- Node7 -->
<g id="Node000007" class="node">
<title>Node7</title>
<g id="a_Node000007"><a xlink:href="../../d8/dae/class_eigen_1_1_b_d_c_s_v_d.html#a302746d9c534cd513c1df87c7ae4850d" target="_top" xlink:title="Constructor performing the decomposition of given matrix.">
<polygon fill="white" stroke="#666666" points="138.25,-190.88 0,-190.88 0,-171.62 138.25,-171.62 138.25,-190.88"/>
<text text-anchor="middle" x="69.12" y="-177.38" font-family="Helvetica,sans-Serif" font-size="10.00">Eigen::BDCSVD::BDCSVD</text>
</a>
</g>
</g>
<!-- Node6&#45;&gt;Node7 -->
<g id="edge6_Node000006_Node000007" class="edge">
<title>Node6&#45;&gt;Node7</title>
<g id="a_edge6_Node000006_Node000007"><a xlink:title=" ">
<path fill="none" stroke="#63b8ff" d="M163.4,-170.8C155.14,-171.73 146.78,-172.66 138.62,-173.58"/>
<polygon fill="#63b8ff" stroke="#63b8ff" points="163.62,-174.19 173.17,-169.6 162.84,-167.23 163.62,-174.19"/>
</a>
</g>
</g>
<!-- Node8 -->
<g id="Node000008" class="node">
<title>Node8</title>
<g id="a_Node000008"><a xlink:href="../../d8/dae/class_eigen_1_1_b_d_c_s_v_d.html#a61880a5f6dbf7a14f91be80eaa3a22bc" target="_top" xlink:title="Method performing the decomposition of given matrix using current options.">
<polygon fill="white" stroke="#666666" points="135.62,-153.88 2.62,-153.88 2.62,-134.62 135.62,-134.62 135.62,-153.88"/>
<text text-anchor="middle" x="69.12" y="-140.38" font-family="Helvetica,sans-Serif" font-size="10.00">Eigen::BDCSVD::compute</text>
</a>
</g>
</g>
<!-- Node6&#45;&gt;Node8 -->
<g id="edge7_Node000006_Node000008" class="edge">
<title>Node6&#45;&gt;Node8</title>
<g id="a_edge7_Node000006_Node000008"><a xlink:title=" ">
<path fill="none" stroke="#63b8ff" d="M163.51,-154.16C154.36,-153.19 145.08,-152.2 136.09,-151.25"/>
<polygon fill="#63b8ff" stroke="#63b8ff" points="162.86,-157.72 173.17,-155.29 163.59,-150.75 162.86,-157.72"/>
</a>
</g>
</g>
</g>
</svg>
