<?xml version="1.0" encoding="UTF-8" standalone="no"?>
<!DOCTYPE svg PUBLIC "-//W3C//DTD SVG 1.1//EN"
 "http://www.w3.org/Graphics/SVG/1.1/DTD/svg11.dtd">
<!-- Generated by graphviz version 8.0.5 (20230430.1635)
 -->
<!-- Title: jtagmkII_set_sck_period Pages: 1 -->
<svg width="745pt" height="388pt"
 viewBox="0.00 0.00 745.25 387.55" xmlns="http://www.w3.org/2000/svg" xmlns:xlink="http://www.w3.org/1999/xlink">
<g id="graph0" class="graph" transform="scale(1 1) rotate(0) translate(4 383.55)">
<title>jtagmkII_set_sck_period</title>
<!-- Node1 -->
<g id="Node000001" class="node">
<title>Node1</title>
<g id="a_Node000001"><a xlink:title=" ">
<polygon fill="#999999" stroke="#666666" points="122.5,-167.25 0,-167.25 0,-148 122.5,-148 122.5,-167.25"/>
<text text-anchor="middle" x="61.25" y="-153.75" font-family="Helvetica,sans-Serif" font-size="10.00">jtagmkII_set_sck_period</text>
</a>
</g>
</g>
<!-- Node2 -->
<g id="Node000002" class="node">
<title>Node2</title>
<g id="a_Node000002"><a xlink:href="../../d8/d9b/jtagmk_i_i_8c.html#ad4de540c75ff7ce81f74077fdf660e5d" target="_top" xlink:title=" ">
<polygon fill="white" stroke="#666666" points="250.25,-167.25 158.5,-167.25 158.5,-148 250.25,-148 250.25,-167.25"/>
<text text-anchor="middle" x="204.38" y="-153.75" font-family="Helvetica,sans-Serif" font-size="10.00">jtagmkII_setparm</text>
</a>
</g>
</g>
<!-- Node1&#45;&gt;Node2 -->
<g id="edge1_Node000001_Node000002" class="edge">
<title>Node1&#45;&gt;Node2</title>
<g id="a_edge1_Node000001_Node000002"><a xlink:title=" ">
<path fill="none" stroke="#63b8ff" d="M122.92,-157.62C131.03,-157.62 139.33,-157.62 147.36,-157.62"/>
<polygon fill="#63b8ff" stroke="#63b8ff" points="147.1,-161.13 157.1,-157.62 147.1,-154.13 147.1,-161.13"/>
</a>
</g>
</g>
<!-- Node3 -->
<g id="Node000003" class="node">
<title>Node3</title>
<g id="a_Node000003"><a xlink:href="../../d0/d29/main_8c.html#ae3011b9c6440c863e64eed3fed5106e3" target="_top" xlink:title=" ">
<polygon fill="white" stroke="#666666" points="653,-280.25 557.5,-280.25 557.5,-261 653,-261 653,-280.25"/>
<text text-anchor="middle" x="605.25" y="-266.75" font-family="Helvetica,sans-Serif" font-size="10.00">avrdude_message</text>
</a>
</g>
</g>
<!-- Node2&#45;&gt;Node3 -->
<g id="edge2_Node000002_Node000003" class="edge">
<title>Node2&#45;&gt;Node3</title>
<g id="a_edge2_Node000002_Node000003"><a xlink:title=" ">
<path fill="none" stroke="#63b8ff" d="M208.22,-167.5C216.26,-193.87 241.55,-266.84 286.25,-309.62 328.76,-350.31 348.36,-353.64 405.75,-366.62 455.93,-377.98 474.73,-388.06 521.5,-366.62 555.67,-350.97 581.09,-313.45 594.22,-290.23"/>
<polygon fill="#63b8ff" stroke="#63b8ff" points="597.69,-292.16 599.37,-281.69 591.54,-288.83 597.69,-292.16"/>
</a>
</g>
</g>
<!-- Node4 -->
<g id="Node000004" class="node">
<title>Node4</title>
<g id="a_Node000004"><a xlink:href="../../d3/dbc/config__gram_8c.html#af07d89f5ceaea0c7c8252cc41fd75f37" target="_top" xlink:title=" ">
<polygon fill="white" stroke="#666666" points="621.5,-167.25 589,-167.25 589,-148 621.5,-148 621.5,-167.25"/>
<text text-anchor="middle" x="605.25" y="-153.75" font-family="Helvetica,sans-Serif" font-size="10.00">free</text>
</a>
</g>
</g>
<!-- Node2&#45;&gt;Node4 -->
<g id="edge3_Node000002_Node000004" class="edge">
<title>Node2&#45;&gt;Node4</title>
<g id="a_edge3_Node000002_Node000004"><a xlink:title=" ">
<path fill="none" stroke="#63b8ff" d="M250.74,-157.62C334.53,-157.62 511.1,-157.62 577.89,-157.62"/>
<polygon fill="#63b8ff" stroke="#63b8ff" points="577.7,-161.13 587.7,-157.62 577.7,-154.13 577.7,-161.13"/>
</a>
</g>
</g>
<!-- Node5 -->
<g id="Node000005" class="node">
<title>Node5</title>
<g id="a_Node000005"><a xlink:href="../../d8/d9b/jtagmk_i_i_8c.html#a2c30041483f9a0a763181efbd877db82" target="_top" xlink:title=" ">
<polygon fill="white" stroke="#666666" points="369.75,-53.25 286.25,-53.25 286.25,-34 369.75,-34 369.75,-53.25"/>
<text text-anchor="middle" x="328" y="-39.75" font-family="Helvetica,sans-Serif" font-size="10.00">jtagmkII_get_rc</text>
</a>
</g>
</g>
<!-- Node2&#45;&gt;Node5 -->
<g id="edge4_Node000002_Node000005" class="edge">
<title>Node2&#45;&gt;Node5</title>
<g id="a_edge4_Node000002_Node000005"><a xlink:title=" ">
<path fill="none" stroke="#63b8ff" d="M212.78,-147.52C226.08,-129.84 255.52,-92.76 286.25,-67.62 289.83,-64.7 293.8,-61.9 297.82,-59.32"/>
<polygon fill="#63b8ff" stroke="#63b8ff" points="299.37,-61.87 306.13,-53.71 295.75,-55.87 299.37,-61.87"/>
</a>
</g>
</g>
<!-- Node6 -->
<g id="Node000006" class="node">
<title>Node6</title>
<g id="a_Node000006"><a xlink:href="../../d8/d9b/jtagmk_i_i_8c.html#ac237e74c4820b1b81242c32c7618fd10" target="_top" xlink:title=" ">
<polygon fill="white" stroke="#666666" points="369.75,-300.25 286.25,-300.25 286.25,-281 369.75,-281 369.75,-300.25"/>
<text text-anchor="middle" x="328" y="-286.75" font-family="Helvetica,sans-Serif" font-size="10.00">jtagmkII_prmsg</text>
</a>
</g>
</g>
<!-- Node2&#45;&gt;Node6 -->
<g id="edge5_Node000002_Node000006" class="edge">
<title>Node2&#45;&gt;Node6</title>
<g id="a_edge5_Node000002_Node000006"><a xlink:title=" ">
<path fill="none" stroke="#63b8ff" d="M214.52,-167.62C234.94,-189.96 284.53,-244.18 310.51,-272.59"/>
<polygon fill="#63b8ff" stroke="#63b8ff" points="307.42,-274.49 316.75,-279.51 312.59,-269.77 307.42,-274.49"/>
</a>
</g>
</g>
<!-- Node9 -->
<g id="Node000009" class="node">
<title>Node9</title>
<g id="a_Node000009"><a xlink:href="../../d8/d9b/jtagmk_i_i_8c.html#aeca3ac148e7f5d354af15d6e1eeb359e" target="_top" xlink:title=" ">
<polygon fill="white" stroke="#666666" points="365.62,-186.25 290.38,-186.25 290.38,-167 365.62,-167 365.62,-186.25"/>
<text text-anchor="middle" x="328" y="-172.75" font-family="Helvetica,sans-Serif" font-size="10.00">jtagmkII_recv</text>
</a>
</g>
</g>
<!-- Node2&#45;&gt;Node9 -->
<g id="edge10_Node000002_Node000009" class="edge">
<title>Node2&#45;&gt;Node9</title>
<g id="a_edge10_Node000002_Node000009"><a xlink:title=" ">
<path fill="none" stroke="#63b8ff" d="M250.66,-164.7C259.98,-166.16 269.83,-167.69 279.23,-169.16"/>
<polygon fill="#63b8ff" stroke="#63b8ff" points="278.59,-172.76 289.01,-170.85 279.67,-165.85 278.59,-172.76"/>
</a>
</g>
</g>
<!-- Node15 -->
<g id="Node000015" class="node">
<title>Node15</title>
<g id="a_Node000015"><a xlink:href="../../d8/d9b/jtagmk_i_i_8c.html#abfb82f2719dc967fff6c010351bb2bd8" target="_top" xlink:title=" ">
<polygon fill="white" stroke="#666666" points="502.38,-91.25 424.88,-91.25 424.88,-72 502.38,-72 502.38,-91.25"/>
<text text-anchor="middle" x="463.62" y="-77.75" font-family="Helvetica,sans-Serif" font-size="10.00">jtagmkII_send</text>
</a>
</g>
</g>
<!-- Node2&#45;&gt;Node15 -->
<g id="edge20_Node000002_Node000015" class="edge">
<title>Node2&#45;&gt;Node15</title>
<g id="a_edge20_Node000002_Node000015"><a xlink:title=" ">
<path fill="none" stroke="#63b8ff" d="M217.34,-147.5C232.38,-135.39 259.47,-115.5 286.25,-105.62 327.63,-90.36 377.7,-84.66 413.9,-82.6"/>
<polygon fill="#63b8ff" stroke="#63b8ff" points="413.85,-86.06 423.67,-82.07 413.51,-79.06 413.85,-86.06"/>
</a>
</g>
</g>
<!-- Node6&#45;&gt;Node3 -->
<g id="edge6_Node000006_Node000003" class="edge">
<title>Node6&#45;&gt;Node3</title>
<g id="a_edge6_Node000006_Node000003"><a xlink:title=" ">
<path fill="none" stroke="#63b8ff" d="M370.1,-293.43C409.19,-295.43 469.56,-296.81 521.5,-290.62 534.1,-289.12 547.56,-286.38 559.88,-283.4"/>
<polygon fill="#63b8ff" stroke="#63b8ff" points="560.53,-286.59 569.36,-280.74 558.81,-279.8 560.53,-286.59"/>
</a>
</g>
</g>
<!-- Node7 -->
<g id="Node000007" class="node">
<title>Node7</title>
<g id="a_Node000007"><a xlink:href="../../d8/d9b/jtagmk_i_i_8c.html#af8a97611b28333d6b92f712a453cb4d4" target="_top" xlink:title=" ">
<polygon fill="white" stroke="#666666" points="494.12,-357.25 433.12,-357.25 433.12,-338 494.12,-338 494.12,-357.25"/>
<text text-anchor="middle" x="463.62" y="-343.75" font-family="Helvetica,sans-Serif" font-size="10.00">b4_to_u32</text>
</a>
</g>
</g>
<!-- Node6&#45;&gt;Node7 -->
<g id="edge7_Node000006_Node000007" class="edge">
<title>Node6&#45;&gt;Node7</title>
<g id="a_edge7_Node000006_Node000007"><a xlink:title=" ">
<path fill="none" stroke="#63b8ff" d="M352.16,-300.63C367.38,-307.19 387.74,-315.95 405.75,-323.62 413.14,-326.77 421.08,-330.13 428.61,-333.31"/>
<polygon fill="#63b8ff" stroke="#63b8ff" points="426.96,-336.84 437.53,-337.5 429.68,-330.39 426.96,-336.84"/>
</a>
</g>
</g>
<!-- Node8 -->
<g id="Node000008" class="node">
<title>Node8</title>
<g id="a_Node000008"><a xlink:href="../../d8/d9b/jtagmk_i_i_8c.html#ae984a88aeda8bf55cdf86b87301075a4" target="_top" xlink:title=" ">
<polygon fill="white" stroke="#666666" points="521.5,-281.25 405.75,-281.25 405.75,-262 521.5,-262 521.5,-281.25"/>
<text text-anchor="middle" x="463.62" y="-267.75" font-family="Helvetica,sans-Serif" font-size="10.00">jtagmkII_print_memory</text>
</a>
</g>
</g>
<!-- Node6&#45;&gt;Node8 -->
<g id="edge8_Node000006_Node000008" class="edge">
<title>Node6&#45;&gt;Node8</title>
<g id="a_edge8_Node000006_Node000008"><a xlink:title=" ">
<path fill="none" stroke="#63b8ff" d="M370.18,-284.77C378.05,-283.65 386.49,-282.45 394.94,-281.25"/>
<polygon fill="#63b8ff" stroke="#63b8ff" points="395.2,-284.6 404.61,-279.73 394.22,-277.67 395.2,-284.6"/>
</a>
</g>
</g>
<!-- Node8&#45;&gt;Node3 -->
<g id="edge9_Node000008_Node000003" class="edge">
<title>Node8&#45;&gt;Node3</title>
<g id="a_edge9_Node000008_Node000003"><a xlink:title=" ">
<path fill="none" stroke="#63b8ff" d="M521.82,-271.22C529.9,-271.16 538.21,-271.1 546.3,-271.04"/>
<polygon fill="#63b8ff" stroke="#63b8ff" points="546.18,-274.53 556.15,-270.96 546.13,-267.53 546.18,-274.53"/>
</a>
</g>
</g>
<!-- Node9&#45;&gt;Node3 -->
<g id="edge11_Node000009_Node000003" class="edge">
<title>Node9&#45;&gt;Node3</title>
<g id="a_edge11_Node000009_Node000003"><a xlink:title=" ">
<path fill="none" stroke="#63b8ff" d="M346.87,-186.65C362.16,-194.95 384.94,-206.62 405.75,-214.62 453.04,-232.82 508.71,-248.02 549.04,-257.96"/>
<polygon fill="#63b8ff" stroke="#63b8ff" points="548.19,-261.6 558.73,-260.57 549.84,-254.8 548.19,-261.6"/>
</a>
</g>
</g>
<!-- Node9&#45;&gt;Node4 -->
<g id="edge12_Node000009_Node000004" class="edge">
<title>Node9&#45;&gt;Node4</title>
<g id="a_edge12_Node000009_Node000004"><a xlink:title=" ">
<path fill="none" stroke="#63b8ff" d="M366.12,-174.06C422.64,-170.16 528.86,-162.83 578.04,-159.43"/>
<polygon fill="#63b8ff" stroke="#63b8ff" points="577.98,-162.88 587.71,-158.7 577.5,-155.89 577.98,-162.88"/>
</a>
</g>
</g>
<!-- Node10 -->
<g id="Node000010" class="node">
<title>Node10</title>
<g id="a_Node000010"><a xlink:href="../../d8/d9b/jtagmk_i_i_8c.html#a9aab74ad2c65f267c3b1f0f5d46f50b7" target="_top" xlink:title=" ">
<polygon fill="white" stroke="#666666" points="516.25,-205.25 411,-205.25 411,-186 516.25,-186 516.25,-205.25"/>
<text text-anchor="middle" x="463.62" y="-191.75" font-family="Helvetica,sans-Serif" font-size="10.00">jtagmkII_recv_frame</text>
</a>
</g>
</g>
<!-- Node9&#45;&gt;Node10 -->
<g id="edge13_Node000009_Node000010" class="edge">
<title>Node9&#45;&gt;Node10</title>
<g id="a_edge13_Node000009_Node000010"><a xlink:title=" ">
<path fill="none" stroke="#63b8ff" d="M365.87,-181.87C376.45,-183.37 388.31,-185.06 399.99,-186.72"/>
<polygon fill="#63b8ff" stroke="#63b8ff" points="399.23,-190.29 409.63,-188.23 400.22,-183.36 399.23,-190.29"/>
</a>
</g>
</g>
<!-- Node10&#45;&gt;Node3 -->
<g id="edge14_Node000010_Node000003" class="edge">
<title>Node10&#45;&gt;Node3</title>
<g id="a_edge14_Node000010_Node000003"><a xlink:title=" ">
<path fill="none" stroke="#63b8ff" d="M493.26,-205.68C502.57,-209.47 512.76,-214.2 521.5,-219.62 539.44,-230.75 539.58,-239.45 557.5,-250.62 560.5,-252.49 563.7,-254.27 566.97,-255.93"/>
<polygon fill="#63b8ff" stroke="#63b8ff" points="565.3,-259.48 575.84,-260.56 568.28,-253.14 565.3,-259.48"/>
</a>
</g>
</g>
<!-- Node10&#45;&gt;Node4 -->
<g id="edge17_Node000010_Node000004" class="edge">
<title>Node10&#45;&gt;Node4</title>
<g id="a_edge17_Node000010_Node000004"><a xlink:title=" ">
<path fill="none" stroke="#63b8ff" d="M501.68,-185.54C525.89,-178.95 556.91,-170.51 578.47,-164.64"/>
<polygon fill="#63b8ff" stroke="#63b8ff" points="579.06,-167.84 587.79,-161.83 577.22,-161.08 579.06,-167.84"/>
</a>
</g>
</g>
<!-- Node11 -->
<g id="Node000011" class="node">
<title>Node11</title>
<g id="a_Node000011"><a xlink:href="../../d4/d4f/crc16_8c.html#aaa40ce9a35803c7ff4b736133c5055ba" target="_top" xlink:title=" ">
<polygon fill="white" stroke="#666666" points="632,-241.25 578.5,-241.25 578.5,-222 632,-222 632,-241.25"/>
<text text-anchor="middle" x="605.25" y="-227.75" font-family="Helvetica,sans-Serif" font-size="10.00">crcverify</text>
</a>
</g>
</g>
<!-- Node10&#45;&gt;Node11 -->
<g id="edge15_Node000010_Node000011" class="edge">
<title>Node10&#45;&gt;Node11</title>
<g id="a_edge15_Node000010_Node000011"><a xlink:title=" ">
<path fill="none" stroke="#63b8ff" d="M503.89,-205.75C523.81,-210.88 547.85,-217.08 567.42,-222.13"/>
<polygon fill="#63b8ff" stroke="#63b8ff" points="566.5,-225.76 577.06,-224.87 568.25,-218.99 566.5,-225.76"/>
</a>
</g>
</g>
<!-- Node13 -->
<g id="Node000013" class="node">
<title>Node13</title>
<g id="a_Node000013"><a xlink:href="../../d7/d8a/unistd_8cpp.html#adf30830f5265e55035171c301eb9c3fb" target="_top" xlink:title=" ">
<polygon fill="white" stroke="#666666" points="641.38,-204.25 569.12,-204.25 569.12,-185 641.38,-185 641.38,-204.25"/>
<text text-anchor="middle" x="605.25" y="-190.75" font-family="Helvetica,sans-Serif" font-size="10.00">gettimeofday</text>
</a>
</g>
</g>
<!-- Node10&#45;&gt;Node13 -->
<g id="edge18_Node000010_Node000013" class="edge">
<title>Node10&#45;&gt;Node13</title>
<g id="a_edge18_Node000010_Node000013"><a xlink:title=" ">
<path fill="none" stroke="#63b8ff" d="M516.62,-195.25C530.18,-195.16 544.72,-195.05 557.97,-194.96"/>
<polygon fill="#63b8ff" stroke="#63b8ff" points="557.77,-198.45 567.75,-194.88 557.72,-191.45 557.77,-198.45"/>
</a>
</g>
</g>
<!-- Node14 -->
<g id="Node000014" class="node">
<title>Node14</title>
<g id="a_Node000014"><a xlink:href="../../d3/dbc/config__gram_8c.html#a8d12df60024a0ab3de3a276240433890" target="_top" xlink:title=" ">
<polygon fill="white" stroke="#666666" points="627.5,-130.25 583,-130.25 583,-111 627.5,-111 627.5,-130.25"/>
<text text-anchor="middle" x="605.25" y="-116.75" font-family="Helvetica,sans-Serif" font-size="10.00">malloc</text>
</a>
</g>
</g>
<!-- Node10&#45;&gt;Node14 -->
<g id="edge19_Node000010_Node000014" class="edge">
<title>Node10&#45;&gt;Node14</title>
<g id="a_edge19_Node000010_Node000014"><a xlink:title=" ">
<path fill="none" stroke="#63b8ff" d="M478.95,-185.69C496.8,-173.58 528.5,-152.96 557.5,-138.62 562.44,-136.18 567.8,-133.85 573.07,-131.71"/>
<polygon fill="#63b8ff" stroke="#63b8ff" points="573.89,-134.76 581.95,-127.89 571.36,-128.23 573.89,-134.76"/>
</a>
</g>
</g>
<!-- Node12 -->
<g id="Node000012" class="node">
<title>Node12</title>
<g id="a_Node000012"><a xlink:href="../../d4/d4f/crc16_8c.html#a8eac570481f5aa09b1dcfd05cfa55f58" target="_top" xlink:title=" ">
<polygon fill="white" stroke="#666666" points="737.25,-167.25 689,-167.25 689,-148 737.25,-148 737.25,-167.25"/>
<text text-anchor="middle" x="713.12" y="-153.75" font-family="Helvetica,sans-Serif" font-size="10.00">crcsum</text>
</a>
</g>
</g>
<!-- Node11&#45;&gt;Node12 -->
<g id="edge16_Node000011_Node000012" class="edge">
<title>Node11&#45;&gt;Node12</title>
<g id="a_edge16_Node000011_Node000012"><a xlink:title=" ">
<path fill="none" stroke="#63b8ff" d="M632.35,-223.63C639.32,-220.96 646.67,-217.62 653,-213.62 669.55,-203.18 685.49,-187.66 696.64,-175.61"/>
<polygon fill="#63b8ff" stroke="#63b8ff" points="698.78,-178.35 702.85,-168.56 693.57,-173.67 698.78,-178.35"/>
</a>
</g>
</g>
<!-- Node15&#45;&gt;Node3 -->
<g id="edge21_Node000015_Node000003" class="edge">
<title>Node15&#45;&gt;Node3</title>
<g id="a_edge21_Node000015_Node000003"><a xlink:title=" ">
<path fill="none" stroke="#63b8ff" d="M471.06,-91.72C481.93,-108.89 504.39,-145.01 521.5,-176.62 538.91,-208.79 531.02,-225.4 557.5,-250.62 559.21,-252.26 561.08,-253.77 563.05,-255.16"/>
<polygon fill="#63b8ff" stroke="#63b8ff" points="560.8,-258.49 571.19,-260.57 564.37,-252.47 560.8,-258.49"/>
</a>
</g>
</g>
<!-- Node15&#45;&gt;Node4 -->
<g id="edge24_Node000015_Node000004" class="edge">
<title>Node15&#45;&gt;Node4</title>
<g id="a_edge24_Node000015_Node000004"><a xlink:title=" ">
<path fill="none" stroke="#63b8ff" d="M493.99,-91.68C503.15,-95.42 513.06,-100.12 521.5,-105.62 539.93,-117.65 538.88,-127.89 557.5,-139.62 563.95,-143.69 571.46,-147.08 578.56,-149.78"/>
<polygon fill="#63b8ff" stroke="#63b8ff" points="577.21,-153.37 587.81,-153.35 579.52,-146.76 577.21,-153.37"/>
</a>
</g>
</g>
<!-- Node15&#45;&gt;Node14 -->
<g id="edge25_Node000015_Node000014" class="edge">
<title>Node15&#45;&gt;Node14</title>
<g id="a_edge25_Node000015_Node000014"><a xlink:title=" ">
<path fill="none" stroke="#63b8ff" d="M500.58,-91.67C522.74,-97.86 550.9,-105.72 572.27,-111.69"/>
<polygon fill="#63b8ff" stroke="#63b8ff" points="571.19,-115.3 581.77,-114.62 573.08,-108.56 571.19,-115.3"/>
</a>
</g>
</g>
<!-- Node16 -->
<g id="Node000016" class="node">
<title>Node16</title>
<g id="a_Node000016"><a xlink:href="../../d4/d4f/crc16_8c.html#a14c66d38addedaf37ddffef9e6aa7661" target="_top" xlink:title=" ">
<polygon fill="white" stroke="#666666" points="635.75,-93.25 574.75,-93.25 574.75,-74 635.75,-74 635.75,-93.25"/>
<text text-anchor="middle" x="605.25" y="-79.75" font-family="Helvetica,sans-Serif" font-size="10.00">crcappend</text>
</a>
</g>
</g>
<!-- Node15&#45;&gt;Node16 -->
<g id="edge22_Node000015_Node000016" class="edge">
<title>Node15&#45;&gt;Node16</title>
<g id="a_edge22_Node000015_Node000016"><a xlink:title=" ">
<path fill="none" stroke="#63b8ff" d="M502.78,-82.17C521.68,-82.44 544.5,-82.77 563.72,-83.04"/>
<polygon fill="#63b8ff" stroke="#63b8ff" points="563.5,-86.56 573.55,-83.2 563.6,-79.56 563.5,-86.56"/>
</a>
</g>
</g>
<!-- Node17 -->
<g id="Node000017" class="node">
<title>Node17</title>
<g id="a_Node000017"><a xlink:href="../../d8/d9b/jtagmk_i_i_8c.html#aef145405ed35079405f033437e085105" target="_top" xlink:title=" ">
<polygon fill="white" stroke="#666666" points="635.75,-56.25 574.75,-56.25 574.75,-37 635.75,-37 635.75,-56.25"/>
<text text-anchor="middle" x="605.25" y="-42.75" font-family="Helvetica,sans-Serif" font-size="10.00">u16_to_b2</text>
</a>
</g>
</g>
<!-- Node15&#45;&gt;Node17 -->
<g id="edge26_Node000015_Node000017" class="edge">
<title>Node15&#45;&gt;Node17</title>
<g id="a_edge26_Node000015_Node000017"><a xlink:title=" ">
<path fill="none" stroke="#63b8ff" d="M502.78,-72.06C521.77,-67.3 544.72,-61.55 563.99,-56.72"/>
<polygon fill="#63b8ff" stroke="#63b8ff" points="564.7,-59.9 573.55,-54.07 563,-53.11 564.7,-59.9"/>
</a>
</g>
</g>
<!-- Node18 -->
<g id="Node000018" class="node">
<title>Node18</title>
<g id="a_Node000018"><a xlink:href="../../d8/d9b/jtagmk_i_i_8c.html#a4df5b1ac968b4286976928d7bfec7ef6" target="_top" xlink:title=" ">
<polygon fill="white" stroke="#666666" points="635.75,-19.25 574.75,-19.25 574.75,0 635.75,0 635.75,-19.25"/>
<text text-anchor="middle" x="605.25" y="-5.75" font-family="Helvetica,sans-Serif" font-size="10.00">u32_to_b4</text>
</a>
</g>
</g>
<!-- Node15&#45;&gt;Node18 -->
<g id="edge27_Node000015_Node000018" class="edge">
<title>Node15&#45;&gt;Node18</title>
<g id="a_edge27_Node000015_Node000018"><a xlink:title=" ">
<path fill="none" stroke="#63b8ff" d="M479.99,-71.67C498.08,-60.19 529.25,-41.17 557.5,-27.62 560.29,-26.29 563.22,-24.97 566.18,-23.7"/>
<polygon fill="#63b8ff" stroke="#63b8ff" points="567.33,-26.6 575.25,-19.57 564.67,-20.12 567.33,-26.6"/>
</a>
</g>
</g>
<!-- Node16&#45;&gt;Node12 -->
<g id="edge23_Node000016_Node000012" class="edge">
<title>Node16&#45;&gt;Node12</title>
<g id="a_edge23_Node000016_Node000012"><a xlink:title=" ">
<path fill="none" stroke="#63b8ff" d="M635.78,-92.98C641.69,-95.4 647.7,-98.28 653,-101.62 669.55,-112.07 685.49,-127.59 696.64,-139.64"/>
<polygon fill="#63b8ff" stroke="#63b8ff" points="693.57,-141.58 702.85,-146.69 698.78,-136.9 693.57,-141.58"/>
</a>
</g>
</g>
</g>
</svg>
