<?xml version="1.0" encoding="UTF-8" standalone="no"?>
<!DOCTYPE svg PUBLIC "-//W3C//DTD SVG 1.1//EN"
 "http://www.w3.org/Graphics/SVG/1.1/DTD/svg11.dtd">
<!-- Generated by graphviz version 8.0.5 (20230430.1635)
 -->
<!-- Title: Slic3r::GUI::Emboss::StyleManager::get_style_index Pages: 1 -->
<svg width="851pt" height="66pt"
 viewBox="0.00 0.00 850.75 66.12" xmlns="http://www.w3.org/2000/svg" xmlns:xlink="http://www.w3.org/1999/xlink">
<g id="graph0" class="graph" transform="scale(1 1) rotate(0) translate(4 62.12)">
<title>Slic3r::GUI::Emboss::StyleManager::get_style_index</title>
<!-- Node1 -->
<g id="Node000001" class="node">
<title>Node1</title>
<g id="a_Node000001"><a xlink:title=" ">
<polygon fill="#999999" stroke="#666666" points="842.75,-41.75 736,-41.75 736,0 842.75,0 842.75,-41.75"/>
<text text-anchor="start" x="744" y="-28.25" font-family="Helvetica,sans-Serif" font-size="10.00">Slic3r::GUI::Emboss</text>
<text text-anchor="start" x="744" y="-17" font-family="Helvetica,sans-Serif" font-size="10.00">::StyleManager::get</text>
<text text-anchor="middle" x="789.38" y="-5.75" font-family="Helvetica,sans-Serif" font-size="10.00">_style_index</text>
</a>
</g>
</g>
<!-- Node2 -->
<g id="Node000002" class="node">
<title>Node2</title>
<g id="a_Node000002"><a xlink:href="../../dd/df1/class_slic3r_1_1_g_u_i_1_1_g_l_gizmo_emboss.html#af70844cc49d6ef544db652ef6bfe2ab0" target="_top" xlink:title=" ">
<polygon fill="white" stroke="#666666" points="700,-58.12 552,-58.12 552,-27.62 700,-27.62 700,-58.12"/>
<text text-anchor="start" x="560" y="-44.62" font-family="Helvetica,sans-Serif" font-size="10.00">Slic3r::GUI::GLGizmoEmboss</text>
<text text-anchor="middle" x="626" y="-33.38" font-family="Helvetica,sans-Serif" font-size="10.00">::draw_delete_style_button</text>
</a>
</g>
</g>
<!-- Node1&#45;&gt;Node2 -->
<g id="edge1_Node000001_Node000002" class="edge">
<title>Node1&#45;&gt;Node2</title>
<g id="a_edge1_Node000001_Node000002"><a xlink:title=" ">
<path fill="none" stroke="#63b8ff" d="M724.81,-29.54C716.82,-30.63 708.59,-31.75 700.46,-32.86"/>
<polygon fill="#63b8ff" stroke="#63b8ff" points="725.1,-32.9 734.53,-28.08 724.15,-25.96 725.1,-32.9"/>
</a>
</g>
</g>
<!-- Node3 -->
<g id="Node000003" class="node">
<title>Node3</title>
<g id="a_Node000003"><a xlink:href="../../dd/df1/class_slic3r_1_1_g_u_i_1_1_g_l_gizmo_emboss.html#a6df9903fff9137c854120960350a0902" target="_top" xlink:title=" ">
<polygon fill="white" stroke="#666666" points="516,-36.12 368,-36.12 368,-5.62 516,-5.62 516,-36.12"/>
<text text-anchor="start" x="376" y="-22.62" font-family="Helvetica,sans-Serif" font-size="10.00">Slic3r::GUI::GLGizmoEmboss</text>
<text text-anchor="middle" x="442" y="-11.38" font-family="Helvetica,sans-Serif" font-size="10.00">::draw_style_list</text>
</a>
</g>
</g>
<!-- Node1&#45;&gt;Node3 -->
<g id="edge5_Node000001_Node000003" class="edge">
<title>Node1&#45;&gt;Node3</title>
<g id="a_edge5_Node000001_Node000003"><a xlink:title=" ">
<path fill="none" stroke="#63b8ff" d="M724.73,-19.26C716.41,-19.1 708,-18.97 700,-18.88 634.23,-18.13 617.78,-18.27 552,-18.88 540.46,-18.98 528.22,-19.15 516.29,-19.35"/>
<polygon fill="#63b8ff" stroke="#63b8ff" points="724.5,-22.78 734.57,-19.48 724.65,-15.78 724.5,-22.78"/>
</a>
</g>
</g>
<!-- Node2&#45;&gt;Node3 -->
<g id="edge2_Node000002_Node000003" class="edge">
<title>Node2&#45;&gt;Node3</title>
<g id="a_edge2_Node000002_Node000003"><a xlink:title=" ">
<path fill="none" stroke="#63b8ff" d="M541.02,-32.72C532.79,-31.73 524.49,-30.73 516.39,-29.75"/>
<polygon fill="#63b8ff" stroke="#63b8ff" points="540.41,-36.3 550.76,-34.02 541.25,-29.35 540.41,-36.3"/>
</a>
</g>
</g>
<!-- Node4 -->
<g id="Node000004" class="node">
<title>Node4</title>
<g id="a_Node000004"><a xlink:href="../../dd/df1/class_slic3r_1_1_g_u_i_1_1_g_l_gizmo_emboss.html#a6dc1143a516dc36420fe279e09c55b40" target="_top" xlink:title=" ">
<polygon fill="white" stroke="#666666" points="332,-36.12 184,-36.12 184,-5.62 332,-5.62 332,-36.12"/>
<text text-anchor="start" x="192" y="-22.62" font-family="Helvetica,sans-Serif" font-size="10.00">Slic3r::GUI::GLGizmoEmboss</text>
<text text-anchor="middle" x="258" y="-11.38" font-family="Helvetica,sans-Serif" font-size="10.00">::draw_window</text>
</a>
</g>
</g>
<!-- Node3&#45;&gt;Node4 -->
<g id="edge3_Node000003_Node000004" class="edge">
<title>Node3&#45;&gt;Node4</title>
<g id="a_edge3_Node000003_Node000004"><a xlink:title=" ">
<path fill="none" stroke="#63b8ff" d="M357.02,-20.88C348.79,-20.88 340.49,-20.88 332.39,-20.88"/>
<polygon fill="#63b8ff" stroke="#63b8ff" points="356.76,-24.38 366.76,-20.88 356.76,-17.38 356.76,-24.38"/>
</a>
</g>
</g>
<!-- Node5 -->
<g id="Node000005" class="node">
<title>Node5</title>
<g id="a_Node000005"><a xlink:href="../../dd/df1/class_slic3r_1_1_g_u_i_1_1_g_l_gizmo_emboss.html#adcf76968843c4bbb8646d4a51a04867c" target="_top" xlink:title=" ">
<polygon fill="white" stroke="#666666" points="148,-36.12 0,-36.12 0,-5.62 148,-5.62 148,-36.12"/>
<text text-anchor="start" x="8" y="-22.62" font-family="Helvetica,sans-Serif" font-size="10.00">Slic3r::GUI::GLGizmoEmboss</text>
<text text-anchor="middle" x="74" y="-11.38" font-family="Helvetica,sans-Serif" font-size="10.00">::on_render_input_window</text>
</a>
</g>
</g>
<!-- Node4&#45;&gt;Node5 -->
<g id="edge4_Node000004_Node000005" class="edge">
<title>Node4&#45;&gt;Node5</title>
<g id="a_edge4_Node000004_Node000005"><a xlink:title=" ">
<path fill="none" stroke="#63b8ff" d="M173.02,-20.88C164.79,-20.88 156.49,-20.88 148.39,-20.88"/>
<polygon fill="#63b8ff" stroke="#63b8ff" points="172.76,-24.38 182.76,-20.88 172.76,-17.38 172.76,-24.38"/>
</a>
</g>
</g>
</g>
</svg>
