<?xml version="1.0" encoding="UTF-8" standalone="no"?>
<!DOCTYPE svg PUBLIC "-//W3C//DTD SVG 1.1//EN"
 "http://www.w3.org/Graphics/SVG/1.1/DTD/svg11.dtd">
<!-- Generated by graphviz version 8.0.5 (20230430.1635)
 -->
<!-- Title: Slic3r::GUI::Emboss::StyleManager::create_imgui_font Pages: 1 -->
<svg width="1558pt" height="739pt"
 viewBox="0.00 0.00 1558.25 738.88" xmlns="http://www.w3.org/2000/svg" xmlns:xlink="http://www.w3.org/1999/xlink">
<g id="graph0" class="graph" transform="scale(1 1) rotate(0) translate(4 734.88)">
<title>Slic3r::GUI::Emboss::StyleManager::create_imgui_font</title>
<!-- Node1 -->
<g id="Node000001" class="node">
<title>Node1</title>
<g id="a_Node000001"><a xlink:title=" ">
<polygon fill="#999999" stroke="#666666" points="115,-301.75 0,-301.75 0,-260 115,-260 115,-301.75"/>
<text text-anchor="start" x="8" y="-288.25" font-family="Helvetica,sans-Serif" font-size="10.00">Slic3r::GUI::Emboss</text>
<text text-anchor="start" x="8" y="-277" font-family="Helvetica,sans-Serif" font-size="10.00">::StyleManager::create</text>
<text text-anchor="middle" x="57.5" y="-265.75" font-family="Helvetica,sans-Serif" font-size="10.00">_imgui_font</text>
</a>
</g>
</g>
<!-- Node2 -->
<g id="Node000002" class="node">
<title>Node2</title>
<g id="a_Node000002"><a xlink:href="../../d5/d9e/struct_im_font_atlas.html#adb01397920998a18e25bd8fed3f791a7" target="_top" xlink:title=" ">
<polygon fill="white" stroke="#666666" points="1223.12,-596.12 1088.62,-596.12 1088.62,-565.62 1223.12,-565.62 1223.12,-596.12"/>
<text text-anchor="start" x="1096.62" y="-582.62" font-family="Helvetica,sans-Serif" font-size="10.00">ImFontAtlas::AddFontFrom</text>
<text text-anchor="middle" x="1155.88" y="-571.38" font-family="Helvetica,sans-Serif" font-size="10.00">MemoryTTF</text>
</a>
</g>
</g>
<!-- Node1&#45;&gt;Node2 -->
<g id="edge1_Node000001_Node000002" class="edge">
<title>Node1&#45;&gt;Node2</title>
<g id="a_edge1_Node000001_Node000002"><a xlink:title=" ">
<path fill="none" stroke="#63b8ff" d="M64.48,-302.16C89.62,-386.52 195.01,-692.88 400.12,-692.88 400.12,-692.88 400.12,-692.88 766.38,-692.88 897.34,-692.88 1043.76,-633.39 1113.55,-601.12"/>
<polygon fill="#63b8ff" stroke="#63b8ff" points="1114.71,-603.97 1122.28,-596.57 1111.74,-597.63 1114.71,-603.97"/>
</a>
</g>
</g>
<!-- Node4 -->
<g id="Node000004" class="node">
<title>Node4</title>
<g id="a_Node000004"><a xlink:href="../../df/d93/struct_im_vector.html#a2d80e87e81b1b01143c8d8be93e6fde1" target="_top" xlink:title=" ">
<polygon fill="white" stroke="#666666" points="1524,-559.5 1441.25,-559.5 1441.25,-540.25 1524,-540.25 1524,-559.5"/>
<text text-anchor="middle" x="1482.62" y="-546" font-family="Helvetica,sans-Serif" font-size="10.00">ImVector::back</text>
</a>
</g>
</g>
<!-- Node1&#45;&gt;Node4 -->
<g id="edge14_Node000001_Node000004" class="edge">
<title>Node1&#45;&gt;Node4</title>
<g id="a_edge14_Node000001_Node000004"><a xlink:title=" ">
<path fill="none" stroke="#63b8ff" d="M59.36,-302.22C62.61,-357.11 78.04,-505.37 151,-597.88 228.72,-696.43 274.61,-730.88 400.12,-730.88 400.12,-730.88 400.12,-730.88 1156.88,-730.88 1290.25,-730.88 1419.9,-612.95 1464.94,-567.47"/>
<polygon fill="#63b8ff" stroke="#63b8ff" points="1466.87,-570.47 1471.34,-560.86 1461.86,-565.59 1466.87,-570.47"/>
</a>
</g>
</g>
<!-- Node6 -->
<g id="Node000006" class="node">
<title>Node6</title>
<g id="a_Node000006"><a xlink:href="../../df/d93/struct_im_vector.html#aa53e48a5272f4bad1099368769514ff1" target="_top" xlink:title=" ">
<polygon fill="white" stroke="#666666" points="1527,-455.5 1438.25,-455.5 1438.25,-436.25 1527,-436.25 1527,-455.5"/>
<text text-anchor="middle" x="1482.62" y="-442" font-family="Helvetica,sans-Serif" font-size="10.00">ImVector::empty</text>
</a>
</g>
</g>
<!-- Node1&#45;&gt;Node6 -->
<g id="edge19_Node000001_Node000006" class="edge">
<title>Node1&#45;&gt;Node6</title>
<g id="a_edge19_Node000001_Node000006"><a xlink:title=" ">
<path fill="none" stroke="#63b8ff" d="M115.27,-285.97C183.01,-291.59 299.74,-299.88 400.12,-299.88 400.12,-299.88 400.12,-299.88 1156.88,-299.88 1281.73,-299.88 1411.73,-390.76 1461.03,-429.12"/>
<polygon fill="#63b8ff" stroke="#63b8ff" points="1458.52,-432.38 1468.53,-435.84 1462.86,-426.89 1458.52,-432.38"/>
</a>
</g>
</g>
<!-- Node8 -->
<g id="Node000008" class="node">
<title>Node8</title>
<g id="a_Node000008"><a xlink:href="../../d4/d56/struct_im_font_glyph_ranges_builder.html#ac28bc574d4d34d3a2889cda34470ae71" target="_top" xlink:title=" ">
<polygon fill="white" stroke="#666666" points="291.12,-139.12 155.12,-139.12 155.12,-108.62 291.12,-108.62 291.12,-139.12"/>
<text text-anchor="start" x="163.12" y="-125.62" font-family="Helvetica,sans-Serif" font-size="10.00">ImFontGlyphRangesBuilder</text>
<text text-anchor="middle" x="223.12" y="-114.38" font-family="Helvetica,sans-Serif" font-size="10.00">::AddRanges</text>
</a>
</g>
</g>
<!-- Node1&#45;&gt;Node8 -->
<g id="edge7_Node000001_Node000008" class="edge">
<title>Node1&#45;&gt;Node8</title>
<g id="a_edge7_Node000001_Node000008"><a xlink:title=" ">
<path fill="none" stroke="#63b8ff" d="M67.97,-259.96C82.09,-231.03 111.31,-178.97 151,-148.88 152.91,-147.43 154.9,-146.06 156.97,-144.77"/>
<polygon fill="#63b8ff" stroke="#63b8ff" points="158.32,-147.47 165.39,-139.58 154.94,-141.34 158.32,-147.47"/>
</a>
</g>
</g>
<!-- Node10 -->
<g id="Node000010" class="node">
<title>Node10</title>
<g id="a_Node000010"><a xlink:href="../../d4/d56/struct_im_font_glyph_ranges_builder.html#ade9770bde0f63b4630df30402f3619cf" target="_top" xlink:title=" ">
<polygon fill="white" stroke="#666666" points="291.12,-90.12 155.12,-90.12 155.12,-59.62 291.12,-59.62 291.12,-90.12"/>
<text text-anchor="start" x="163.12" y="-76.62" font-family="Helvetica,sans-Serif" font-size="10.00">ImFontGlyphRangesBuilder</text>
<text text-anchor="middle" x="223.12" y="-65.38" font-family="Helvetica,sans-Serif" font-size="10.00">::AddText</text>
</a>
</g>
</g>
<!-- Node1&#45;&gt;Node10 -->
<g id="edge9_Node000001_Node000010" class="edge">
<title>Node1&#45;&gt;Node10</title>
<g id="a_edge9_Node000001_Node000010"><a xlink:title=" ">
<path fill="none" stroke="#63b8ff" d="M63.71,-259.78C74.01,-222.33 100.51,-143.99 151,-99.88 152.55,-98.52 154.18,-97.23 155.88,-96.02"/>
<polygon fill="#63b8ff" stroke="#63b8ff" points="157.14,-98.74 163.79,-90.49 153.45,-92.79 157.14,-98.74"/>
</a>
</g>
</g>
<!-- Node13 -->
<g id="Node000013" class="node">
<title>Node13</title>
<g id="a_Node000013"><a xlink:href="../../d5/dfc/class_slic3r_1_1_g_u_i_1_1_open_g_l_manager.html#a19e87063628bd6b95baf495790622da0" target="_top" xlink:title=" ">
<polygon fill="white" stroke="#666666" points="295.25,-41.75 151,-41.75 151,0 295.25,0 295.25,-41.75"/>
<text text-anchor="start" x="159" y="-28.25" font-family="Helvetica,sans-Serif" font-size="10.00">Slic3r::GUI::OpenGLManager</text>
<text text-anchor="start" x="159" y="-17" font-family="Helvetica,sans-Serif" font-size="10.00">::are_compressed_textures</text>
<text text-anchor="middle" x="223.12" y="-5.75" font-family="Helvetica,sans-Serif" font-size="10.00">_supported</text>
</a>
</g>
</g>
<!-- Node1&#45;&gt;Node13 -->
<g id="edge13_Node000001_Node000013" class="edge">
<title>Node1&#45;&gt;Node13</title>
<g id="a_edge13_Node000001_Node000013"><a xlink:title=" ">
<path fill="none" stroke="#63b8ff" d="M61.45,-259.83C68.71,-215.47 91.4,-111.48 151,-50.88 151.7,-50.16 152.42,-49.47 153.15,-48.79"/>
<polygon fill="#63b8ff" stroke="#63b8ff" points="154.95,-51.04 160.64,-42.1 150.62,-45.54 154.95,-51.04"/>
</a>
</g>
</g>
<!-- Node14 -->
<g id="Node000014" class="node">
<title>Node14</title>
<g id="a_Node000014"><a xlink:href="../../d4/d56/struct_im_font_glyph_ranges_builder.html#abc11a683e1b345299c42abd8b6c422a5" target="_top" xlink:title=" ">
<polygon fill="white" stroke="#666666" points="291.12,-188.12 155.12,-188.12 155.12,-157.62 291.12,-157.62 291.12,-188.12"/>
<text text-anchor="start" x="163.12" y="-174.62" font-family="Helvetica,sans-Serif" font-size="10.00">ImFontGlyphRangesBuilder</text>
<text text-anchor="middle" x="223.12" y="-163.38" font-family="Helvetica,sans-Serif" font-size="10.00">::BuildRanges</text>
</a>
</g>
</g>
<!-- Node1&#45;&gt;Node14 -->
<g id="edge15_Node000001_Node000014" class="edge">
<title>Node1&#45;&gt;Node14</title>
<g id="a_edge15_Node000001_Node000014"><a xlink:title=" ">
<path fill="none" stroke="#63b8ff" d="M81.72,-259.81C99.78,-244.06 125.91,-222.61 151,-206.88 158.67,-202.07 167.12,-197.47 175.44,-193.3"/>
<polygon fill="#63b8ff" stroke="#63b8ff" points="176.62,-196.13 184.09,-188.62 173.56,-189.84 176.62,-196.13"/>
</a>
</g>
</g>
<!-- Node16 -->
<g id="Node000016" class="node">
<title>Node16</title>
<g id="a_Node000016"><a xlink:href="../../df/d93/struct_im_vector.html#ae2d401b4ec5f1113cdb8edb5a61a38f7" target="_top" xlink:title=" ">
<polygon fill="white" stroke="#666666" points="1197.25,-384.5 1114.5,-384.5 1114.5,-365.25 1197.25,-365.25 1197.25,-384.5"/>
<text text-anchor="middle" x="1155.88" y="-371" font-family="Helvetica,sans-Serif" font-size="10.00">ImVector::clear</text>
</a>
</g>
</g>
<!-- Node1&#45;&gt;Node16 -->
<g id="edge18_Node000001_Node000016" class="edge">
<title>Node1&#45;&gt;Node16</title>
<g id="a_edge18_Node000001_Node000016"><a xlink:title=" ">
<path fill="none" stroke="#63b8ff" d="M85.66,-302.13C103.31,-314.83 127.35,-330.14 151,-338.88 256.01,-377.65 288.19,-375.88 400.12,-375.88 400.12,-375.88 400.12,-375.88 766.38,-375.88 886.99,-375.88 1028.66,-375.39 1103.12,-375.09"/>
<polygon fill="#63b8ff" stroke="#63b8ff" points="1103.06,-378.59 1113.04,-375.05 1103.03,-371.59 1103.06,-378.59"/>
</a>
</g>
</g>
<!-- Node17 -->
<g id="Node000017" class="node">
<title>Node17</title>
<g id="a_Node000017"><a xlink:href="../../da/d22/class_slic3r_1_1_g_u_i_1_1_emboss_1_1_style_manager.html#a3035da381310a734cb728c984694c827" target="_top" xlink:title=" ">
<polygon fill="white" stroke="#666666" points="632.12,-233.75 525.38,-233.75 525.38,-192 632.12,-192 632.12,-233.75"/>
<text text-anchor="start" x="533.38" y="-220.25" font-family="Helvetica,sans-Serif" font-size="10.00">Slic3r::GUI::Emboss</text>
<text text-anchor="start" x="533.38" y="-209" font-family="Helvetica,sans-Serif" font-size="10.00">::StyleManager::get</text>
<text text-anchor="middle" x="578.75" y="-197.75" font-family="Helvetica,sans-Serif" font-size="10.00">_imgui_font_size</text>
</a>
</g>
</g>
<!-- Node1&#45;&gt;Node17 -->
<g id="edge20_Node000001_Node000017" class="edge">
<title>Node1&#45;&gt;Node17</title>
<g id="a_edge20_Node000001_Node000017"><a xlink:title=" ">
<path fill="none" stroke="#63b8ff" d="M110.64,-259.6C123.63,-255.05 137.67,-250.75 151,-247.88 277.75,-220.56 429.88,-214.22 513.97,-212.95"/>
<polygon fill="#63b8ff" stroke="#63b8ff" points="513.93,-216.44 523.88,-212.81 513.83,-209.44 513.93,-216.44"/>
</a>
</g>
</g>
<!-- Node18 -->
<g id="Node000018" class="node">
<title>Node18</title>
<g id="a_Node000018"><a xlink:href="../../d6/dba/_wipe_tower_dialog_8cpp.html#a031c2862b832be718b216d1f101f88cd" target="_top" xlink:title=" ">
<polygon fill="white" stroke="#666666" points="1175.5,-271.5 1136.25,-271.5 1136.25,-252.25 1175.5,-252.25 1175.5,-271.5"/>
<text text-anchor="middle" x="1155.88" y="-258" font-family="Helvetica,sans-Serif" font-size="10.00">scale</text>
</a>
</g>
</g>
<!-- Node1&#45;&gt;Node18 -->
<g id="edge43_Node000001_Node000018" class="edge">
<title>Node1&#45;&gt;Node18</title>
<g id="a_edge43_Node000001_Node000018"><a xlink:title=" ">
<path fill="none" stroke="#63b8ff" d="M115.27,-275.78C183.01,-270.16 299.74,-261.88 400.12,-261.88 400.12,-261.88 400.12,-261.88 766.38,-261.88 900.31,-261.88 1060.22,-261.88 1125.22,-261.88"/>
<polygon fill="#63b8ff" stroke="#63b8ff" points="1124.87,-265.38 1134.87,-261.88 1124.87,-258.38 1124.87,-265.38"/>
</a>
</g>
</g>
<!-- Node19 -->
<g id="Node000019" class="node">
<title>Node19</title>
<g id="a_Node000019"><a xlink:href="../../d5/d9e/struct_im_font_atlas.html#a8abb0c4e67ebb38249d4df71218c4eec" target="_top" xlink:title=" ">
<polygon fill="white" stroke="#666666" points="293,-456.12 153.25,-456.12 153.25,-425.62 293,-425.62 293,-456.12"/>
<text text-anchor="start" x="161.25" y="-442.62" font-family="Helvetica,sans-Serif" font-size="10.00">ImFontAtlas::GetTexDataAs</text>
<text text-anchor="middle" x="223.12" y="-431.38" font-family="Helvetica,sans-Serif" font-size="10.00">RGBA32</text>
</a>
</g>
</g>
<!-- Node1&#45;&gt;Node19 -->
<g id="edge22_Node000001_Node000019" class="edge">
<title>Node1&#45;&gt;Node19</title>
<g id="a_edge22_Node000001_Node000019"><a xlink:title=" ">
<path fill="none" stroke="#63b8ff" d="M73.84,-301.88C91.16,-324.86 120.89,-362.12 151,-389.88 162.4,-400.38 176,-410.61 188.25,-419.11"/>
<polygon fill="#63b8ff" stroke="#63b8ff" points="186.05,-422.53 196.29,-425.26 189.99,-416.74 186.05,-422.53"/>
</a>
</g>
</g>
<!-- Node66 -->
<g id="Node000066" class="node">
<title>Node66</title>
<g id="a_Node000066"><a xlink:href="../../d7/dc9/struct_im_font.html#a97dafa61cc94e84be396d69b0d42b1ce" target="_top" xlink:title=" ">
<polygon fill="white" stroke="#666666" points="1202.12,-347.5 1109.62,-347.5 1109.62,-328.25 1202.12,-328.25 1202.12,-347.5"/>
<text text-anchor="middle" x="1155.88" y="-334" font-family="Helvetica,sans-Serif" font-size="10.00">ImFont::IsLoaded</text>
</a>
</g>
</g>
<!-- Node1&#45;&gt;Node66 -->
<g id="edge42_Node000001_Node000066" class="edge">
<title>Node1&#45;&gt;Node66</title>
<g id="a_edge42_Node000001_Node000066"><a xlink:title=" ">
<path fill="none" stroke="#63b8ff" d="M111.16,-302.18C124.01,-306.68 137.85,-310.94 151,-313.88 259.57,-338.08 288.89,-337.88 400.12,-337.88 400.12,-337.88 400.12,-337.88 766.38,-337.88 884.66,-337.88 1023.21,-337.88 1098.74,-337.88"/>
<polygon fill="#63b8ff" stroke="#63b8ff" points="1098.42,-341.38 1108.42,-337.88 1098.42,-334.38 1098.42,-341.38"/>
</a>
</g>
</g>
<!-- Node3 -->
<g id="Node000003" class="node">
<title>Node3</title>
<g id="a_Node000003"><a xlink:href="../../d5/d9e/struct_im_font_atlas.html#ad01c0f19a95d37a9e5ebab1e54525625" target="_top" xlink:title=" ">
<polygon fill="white" stroke="#666666" points="1379,-536.5 1267,-536.5 1267,-517.25 1379,-517.25 1379,-536.5"/>
<text text-anchor="middle" x="1323" y="-523" font-family="Helvetica,sans-Serif" font-size="10.00">ImFontAtlas::AddFont</text>
</a>
</g>
</g>
<!-- Node2&#45;&gt;Node3 -->
<g id="edge2_Node000002_Node000003" class="edge">
<title>Node2&#45;&gt;Node3</title>
<g id="a_edge2_Node000002_Node000003"><a xlink:title=" ">
<path fill="none" stroke="#63b8ff" d="M1204.64,-565.26C1228.92,-557.31 1258.12,-547.77 1281.32,-540.18"/>
<polygon fill="#63b8ff" stroke="#63b8ff" points="1282.1,-543.28 1290.52,-536.84 1279.93,-536.63 1282.1,-543.28"/>
</a>
</g>
</g>
<!-- Node3&#45;&gt;Node4 -->
<g id="edge3_Node000003_Node000004" class="edge">
<title>Node3&#45;&gt;Node4</title>
<g id="a_edge3_Node000003_Node000004"><a xlink:title=" ">
<path fill="none" stroke="#63b8ff" d="M1379.13,-534.92C1395.88,-537.36 1414.2,-540.04 1430.67,-542.44"/>
<polygon fill="#63b8ff" stroke="#63b8ff" points="1429.78,-545.99 1440.18,-543.97 1430.79,-539.07 1429.78,-545.99"/>
</a>
</g>
</g>
<!-- Node5 -->
<g id="Node000005" class="node">
<title>Node5</title>
<g id="a_Node000005"><a xlink:href="../../d5/d9e/struct_im_font_atlas.html#a3ede4bd513bec044c77ac392ad9c6e86" target="_top" xlink:title=" ">
<polygon fill="white" stroke="#666666" points="1550.25,-512.5 1415,-512.5 1415,-493.25 1550.25,-493.25 1550.25,-512.5"/>
<text text-anchor="middle" x="1482.62" y="-499" font-family="Helvetica,sans-Serif" font-size="10.00">ImFontAtlas::ClearTexData</text>
</a>
</g>
</g>
<!-- Node3&#45;&gt;Node5 -->
<g id="edge4_Node000003_Node000005" class="edge">
<title>Node3&#45;&gt;Node5</title>
<g id="a_edge4_Node000003_Node000005"><a xlink:title=" ">
<path fill="none" stroke="#63b8ff" d="M1379.13,-518.48C1387.31,-517.24 1395.86,-515.93 1404.39,-514.64"/>
<polygon fill="#63b8ff" stroke="#63b8ff" points="1404.79,-517.96 1414.15,-513 1403.73,-511.04 1404.79,-517.96"/>
</a>
</g>
</g>
<!-- Node3&#45;&gt;Node6 -->
<g id="edge5_Node000003_Node000006" class="edge">
<title>Node3&#45;&gt;Node6</title>
<g id="a_edge5_Node000003_Node000006"><a xlink:title=" ">
<path fill="none" stroke="#63b8ff" d="M1348.32,-516.85C1357.97,-512.73 1369.1,-507.77 1379,-502.88 1393.52,-495.7 1429.55,-475.47 1454.8,-461.16"/>
<polygon fill="#63b8ff" stroke="#63b8ff" points="1456.24,-463.79 1463.21,-455.81 1452.78,-457.71 1456.24,-463.79"/>
</a>
</g>
</g>
<!-- Node7 -->
<g id="Node000007" class="node">
<title>Node7</title>
<g id="a_Node000007"><a xlink:href="../../df/d93/struct_im_vector.html#aab5df48e0711a48bd12f3206e08c4108" target="_top" xlink:title=" ">
<polygon fill="white" stroke="#666666" points="1537.12,-292.5 1428.12,-292.5 1428.12,-273.25 1537.12,-273.25 1537.12,-292.5"/>
<text text-anchor="middle" x="1482.62" y="-279" font-family="Helvetica,sans-Serif" font-size="10.00">ImVector::push_back</text>
</a>
</g>
</g>
<!-- Node3&#45;&gt;Node7 -->
<g id="edge6_Node000003_Node000007" class="edge">
<title>Node3&#45;&gt;Node7</title>
<g id="a_edge6_Node000003_Node000007"><a xlink:title=" ">
<path fill="none" stroke="#63b8ff" d="M1330.37,-517.01C1354.09,-480.3 1437.47,-351.23 1469.22,-302.08"/>
<polygon fill="#63b8ff" stroke="#63b8ff" points="1472.68,-304.16 1475.17,-293.87 1466.81,-300.37 1472.68,-304.16"/>
</a>
</g>
</g>
<!-- Node9 -->
<g id="Node000009" class="node">
<title>Node9</title>
<g id="a_Node000009"><a xlink:href="../../d4/d56/struct_im_font_glyph_ranges_builder.html#a6d3f5e3e377a73f4f4324c4cf98600dd" target="_top" xlink:title=" ">
<polygon fill="white" stroke="#666666" points="469.12,-90.12 333.12,-90.12 333.12,-59.62 469.12,-59.62 469.12,-90.12"/>
<text text-anchor="start" x="341.12" y="-76.62" font-family="Helvetica,sans-Serif" font-size="10.00">ImFontGlyphRangesBuilder</text>
<text text-anchor="middle" x="401.12" y="-65.38" font-family="Helvetica,sans-Serif" font-size="10.00">::AddChar</text>
</a>
</g>
</g>
<!-- Node8&#45;&gt;Node9 -->
<g id="edge8_Node000008_Node000009" class="edge">
<title>Node8&#45;&gt;Node9</title>
<g id="a_edge8_Node000008_Node000009"><a xlink:title=" ">
<path fill="none" stroke="#63b8ff" d="M280.3,-108.24C297.2,-103.53 315.91,-98.32 333.43,-93.44"/>
<polygon fill="#63b8ff" stroke="#63b8ff" points="333.89,-96.67 342.58,-90.62 332.01,-89.93 333.89,-96.67"/>
</a>
</g>
</g>
<!-- Node10&#45;&gt;Node9 -->
<g id="edge10_Node000010_Node000009" class="edge">
<title>Node10&#45;&gt;Node9</title>
<g id="a_edge10_Node000010_Node000009"><a xlink:title=" ">
<path fill="none" stroke="#63b8ff" d="M291.42,-74.88C301.39,-74.88 311.75,-74.88 321.92,-74.88"/>
<polygon fill="#63b8ff" stroke="#63b8ff" points="321.87,-78.38 331.87,-74.88 321.87,-71.38 321.87,-78.38"/>
</a>
</g>
</g>
<!-- Node11 -->
<g id="Node000011" class="node">
<title>Node11</title>
<g id="a_Node000011"><a xlink:href="../../da/d72/imgui_8cpp.html#a036b9dd7f0942fd34e385cc115f36631" target="_top" xlink:title=" ">
<polygon fill="white" stroke="#666666" points="455.25,-41.5 347,-41.5 347,-22.25 455.25,-22.25 455.25,-41.5"/>
<text text-anchor="middle" x="401.12" y="-28" font-family="Helvetica,sans-Serif" font-size="10.00">ImTextCharFromUtf8</text>
</a>
</g>
</g>
<!-- Node10&#45;&gt;Node11 -->
<g id="edge11_Node000010_Node000011" class="edge">
<title>Node10&#45;&gt;Node11</title>
<g id="a_edge11_Node000010_Node000011"><a xlink:title=" ">
<path fill="none" stroke="#63b8ff" d="M288.16,-59.23C307.97,-54.39 329.54,-49.12 348.41,-44.51"/>
<polygon fill="#63b8ff" stroke="#63b8ff" points="348.99,-47.73 357.87,-41.95 347.33,-40.93 348.99,-47.73"/>
</a>
</g>
</g>
<!-- Node12 -->
<g id="Node000012" class="node">
<title>Node12</title>
<g id="a_Node000012"><a xlink:href="../../d1/da2/imgui__internal_8h.html#a7f9d7828066a9d61b5630adcdf4655d3" target="_top" xlink:title=" ">
<polygon fill="white" stroke="#666666" points="600.25,-41.5 557.25,-41.5 557.25,-22.25 600.25,-22.25 600.25,-41.5"/>
<text text-anchor="middle" x="578.75" y="-28" font-family="Helvetica,sans-Serif" font-size="10.00">ImMin</text>
</a>
</g>
</g>
<!-- Node11&#45;&gt;Node12 -->
<g id="edge12_Node000011_Node000012" class="edge">
<title>Node11&#45;&gt;Node12</title>
<g id="a_edge12_Node000011_Node000012"><a xlink:title=" ">
<path fill="none" stroke="#63b8ff" d="M455.29,-31.88C484.89,-31.88 520.73,-31.88 545.97,-31.88"/>
<polygon fill="#63b8ff" stroke="#63b8ff" points="545.76,-35.38 555.76,-31.88 545.76,-28.38 545.76,-35.38"/>
</a>
</g>
</g>
<!-- Node14&#45;&gt;Node7 -->
<g id="edge17_Node000014_Node000007" class="edge">
<title>Node14&#45;&gt;Node7</title>
<g id="a_edge17_Node000014_Node000007"><a xlink:title=" ">
<path fill="none" stroke="#63b8ff" d="M291.5,-171.03C393.72,-168.4 594.12,-163.88 764.38,-163.88 764.38,-163.88 764.38,-163.88 1156.88,-163.88 1275.62,-163.88 1404.7,-234.89 1457.28,-267.2"/>
<polygon fill="#63b8ff" stroke="#63b8ff" points="1455.14,-270.61 1465.47,-272.93 1458.84,-264.67 1455.14,-270.61"/>
</a>
</g>
</g>
<!-- Node15 -->
<g id="Node000015" class="node">
<title>Node15</title>
<g id="a_Node000015"><a xlink:href="../../d4/d56/struct_im_font_glyph_ranges_builder.html#a6b1480f843b82db098205872b1309f47" target="_top" xlink:title=" ">
<polygon fill="white" stroke="#666666" points="469.12,-139.12 333.12,-139.12 333.12,-108.62 469.12,-108.62 469.12,-139.12"/>
<text text-anchor="start" x="341.12" y="-125.62" font-family="Helvetica,sans-Serif" font-size="10.00">ImFontGlyphRangesBuilder</text>
<text text-anchor="middle" x="401.12" y="-114.38" font-family="Helvetica,sans-Serif" font-size="10.00">::GetBit</text>
</a>
</g>
</g>
<!-- Node14&#45;&gt;Node15 -->
<g id="edge16_Node000014_Node000015" class="edge">
<title>Node14&#45;&gt;Node15</title>
<g id="a_edge16_Node000014_Node000015"><a xlink:title=" ">
<path fill="none" stroke="#63b8ff" d="M280.3,-157.24C297.2,-152.53 315.91,-147.32 333.43,-142.44"/>
<polygon fill="#63b8ff" stroke="#63b8ff" points="333.89,-145.67 342.58,-139.62 332.01,-138.93 333.89,-145.67"/>
</a>
</g>
</g>
<!-- Node17&#45;&gt;Node18 -->
<g id="edge21_Node000017_Node000018" class="edge">
<title>Node17&#45;&gt;Node18</title>
<g id="a_edge21_Node000017_Node000018"><a xlink:title=" ">
<path fill="none" stroke="#63b8ff" d="M632.48,-215.96C718.78,-221.21 895.54,-232.78 1044.75,-247.88 1072.02,-250.63 1102.98,-254.65 1125.11,-257.67"/>
<polygon fill="#63b8ff" stroke="#63b8ff" points="1124.43,-261.25 1134.81,-259.15 1125.38,-254.31 1124.43,-261.25"/>
</a>
</g>
</g>
<!-- Node20 -->
<g id="Node000020" class="node">
<title>Node20</title>
<g id="a_Node000020"><a xlink:href="../../d5/d9e/struct_im_font_atlas.html#aeff1a1044a1ab68d8f27bb2819cd9f44" target="_top" xlink:title=" ">
<polygon fill="white" stroke="#666666" points="471,-477.12 331.25,-477.12 331.25,-446.62 471,-446.62 471,-477.12"/>
<text text-anchor="start" x="339.25" y="-463.62" font-family="Helvetica,sans-Serif" font-size="10.00">ImFontAtlas::GetTexDataAs</text>
<text text-anchor="middle" x="401.12" y="-452.38" font-family="Helvetica,sans-Serif" font-size="10.00">Alpha8</text>
</a>
</g>
</g>
<!-- Node19&#45;&gt;Node20 -->
<g id="edge23_Node000019_Node000020" class="edge">
<title>Node19&#45;&gt;Node20</title>
<g id="a_edge23_Node000019_Node000020"><a xlink:title=" ">
<path fill="none" stroke="#63b8ff" d="M293.43,-449.14C302.19,-450.19 311.2,-451.26 320.1,-452.33"/>
<polygon fill="#63b8ff" stroke="#63b8ff" points="319.54,-455.9 329.88,-453.61 320.37,-448.95 319.54,-455.9"/>
</a>
</g>
</g>
<!-- Node20&#45;&gt;Node6 -->
<g id="edge41_Node000020_Node000006" class="edge">
<title>Node20&#45;&gt;Node6</title>
<g id="a_edge41_Node000020_Node000006"><a xlink:title=" ">
<path fill="none" stroke="#63b8ff" d="M471.45,-461.86C521.27,-461.78 590.03,-461.54 650.5,-460.88 943.5,-457.64 1294.55,-450.1 1427.26,-447.12"/>
<polygon fill="#63b8ff" stroke="#63b8ff" points="1427,-450.6 1436.92,-446.88 1426.85,-443.61 1427,-450.6"/>
</a>
</g>
</g>
<!-- Node21 -->
<g id="Node000021" class="node">
<title>Node21</title>
<g id="a_Node000021"><a xlink:href="../../d5/d9e/struct_im_font_atlas.html#a9d2b4a94579bf603a0d2662cd8348cbd" target="_top" xlink:title=" ">
<polygon fill="white" stroke="#666666" points="650.5,-572.5 507,-572.5 507,-553.25 650.5,-553.25 650.5,-572.5"/>
<text text-anchor="middle" x="578.75" y="-559" font-family="Helvetica,sans-Serif" font-size="10.00">ImFontAtlas::AddFontDefault</text>
</a>
</g>
</g>
<!-- Node20&#45;&gt;Node21 -->
<g id="edge24_Node000020_Node000021" class="edge">
<title>Node20&#45;&gt;Node21</title>
<g id="a_edge24_Node000020_Node000021"><a xlink:title=" ">
<path fill="none" stroke="#63b8ff" d="M429.18,-477.43C462.32,-496.49 518.09,-528.57 551.06,-547.53"/>
<polygon fill="#63b8ff" stroke="#63b8ff" points="549.09,-551.01 559.51,-552.96 552.58,-544.94 549.09,-551.01"/>
</a>
</g>
</g>
<!-- Node36 -->
<g id="Node000036" class="node">
<title>Node36</title>
<g id="a_Node000036"><a xlink:href="../../d5/d9e/struct_im_font_atlas.html#a81e39e30dffa4dd7e458a53297451e27" target="_top" xlink:title=" ">
<polygon fill="white" stroke="#666666" points="627.25,-451.5 530.25,-451.5 530.25,-432.25 627.25,-432.25 627.25,-451.5"/>
<text text-anchor="middle" x="578.75" y="-438" font-family="Helvetica,sans-Serif" font-size="10.00">ImFontAtlas::Build</text>
</a>
</g>
</g>
<!-- Node20&#45;&gt;Node36 -->
<g id="edge32_Node000020_Node000036" class="edge">
<title>Node20&#45;&gt;Node36</title>
<g id="a_edge32_Node000020_Node000036"><a xlink:title=" ">
<path fill="none" stroke="#63b8ff" d="M471.28,-454C487.04,-452.2 503.64,-450.31 518.92,-448.57"/>
<polygon fill="#63b8ff" stroke="#63b8ff" points="519.24,-451.95 528.78,-447.34 518.45,-444.99 519.24,-451.95"/>
</a>
</g>
</g>
<!-- Node22 -->
<g id="Node000022" class="node">
<title>Node22</title>
<g id="a_Node000022"><a xlink:href="../../d5/d9e/struct_im_font_atlas.html#ab43b930beb57c0b998f42f4586677956" target="_top" xlink:title=" ">
<polygon fill="white" stroke="#666666" points="844.25,-578.12 686.5,-578.12 686.5,-547.62 844.25,-547.62 844.25,-578.12"/>
<text text-anchor="start" x="694.5" y="-564.62" font-family="Helvetica,sans-Serif" font-size="10.00">ImFontAtlas::AddFontFrom</text>
<text text-anchor="middle" x="765.38" y="-553.38" font-family="Helvetica,sans-Serif" font-size="10.00">MemoryCompressedBase85TTF</text>
</a>
</g>
</g>
<!-- Node21&#45;&gt;Node22 -->
<g id="edge25_Node000021_Node000022" class="edge">
<title>Node21&#45;&gt;Node22</title>
<g id="a_edge25_Node000021_Node000022"><a xlink:title=" ">
<path fill="none" stroke="#63b8ff" d="M650.87,-562.88C658.92,-562.88 667.2,-562.88 675.44,-562.88"/>
<polygon fill="#63b8ff" stroke="#63b8ff" points="675.24,-566.38 685.24,-562.88 675.24,-559.38 675.24,-566.38"/>
</a>
</g>
</g>
<!-- Node33 -->
<g id="Node000033" class="node">
<title>Node33</title>
<g id="a_Node000033"><a xlink:href="../../dc/d77/imgui__draw_8cpp.html#a98e6aacbe39a5d2a5fa9d08e362e49ef" target="_top" xlink:title=" ">
<polygon fill="white" stroke="#666666" points="834.5,-627.12 696.25,-627.12 696.25,-596.62 834.5,-596.62 834.5,-627.12"/>
<text text-anchor="start" x="704.25" y="-613.62" font-family="Helvetica,sans-Serif" font-size="10.00">GetDefaultCompressedFont</text>
<text text-anchor="middle" x="765.38" y="-602.38" font-family="Helvetica,sans-Serif" font-size="10.00">DataTTFBase85</text>
</a>
</g>
</g>
<!-- Node21&#45;&gt;Node33 -->
<g id="edge29_Node000021_Node000033" class="edge">
<title>Node21&#45;&gt;Node33</title>
<g id="a_edge29_Node000021_Node000033"><a xlink:title=" ">
<path fill="none" stroke="#63b8ff" d="M617.56,-572.91C639.72,-578.79 668.41,-586.4 694.54,-593.34"/>
<polygon fill="#63b8ff" stroke="#63b8ff" points="693.61,-596.98 704.17,-596.16 695.4,-590.21 693.61,-596.98"/>
</a>
</g>
</g>
<!-- Node34 -->
<g id="Node000034" class="node">
<title>Node34</title>
<g id="a_Node000034"><a xlink:href="../../d5/d9e/struct_im_font_atlas.html#adec0df140eb1dc01c2a22a5253d62820" target="_top" xlink:title=" ">
<polygon fill="white" stroke="#666666" points="1231,-547.12 1080.75,-547.12 1080.75,-516.62 1231,-516.62 1231,-547.12"/>
<text text-anchor="start" x="1088.75" y="-533.62" font-family="Helvetica,sans-Serif" font-size="10.00">ImFontAtlas::GetGlyphRanges</text>
<text text-anchor="middle" x="1155.88" y="-522.38" font-family="Helvetica,sans-Serif" font-size="10.00">Default</text>
</a>
</g>
</g>
<!-- Node21&#45;&gt;Node34 -->
<g id="edge30_Node000021_Node000034" class="edge">
<title>Node21&#45;&gt;Node34</title>
<g id="a_edge30_Node000021_Node000034"><a xlink:title=" ">
<path fill="none" stroke="#63b8ff" d="M615.99,-552.77C636.5,-547.55 662.73,-541.69 686.5,-538.88 819.53,-523.1 975.29,-524.73 1069.45,-527.89"/>
<polygon fill="#63b8ff" stroke="#63b8ff" points="1069.22,-531.42 1079.34,-528.28 1069.47,-524.43 1069.22,-531.42"/>
</a>
</g>
</g>
<!-- Node35 -->
<g id="Node000035" class="node">
<title>Node35</title>
<g id="a_Node000035"><a xlink:href="../../da/d72/imgui_8cpp.html#a75ccaf7d676b1f567ba888ae42ac3809" target="_top" xlink:title=" ">
<polygon fill="white" stroke="#666666" points="807.12,-664.5 723.62,-664.5 723.62,-645.25 807.12,-645.25 807.12,-664.5"/>
<text text-anchor="middle" x="765.38" y="-651" font-family="Helvetica,sans-Serif" font-size="10.00">ImFormatString</text>
</a>
</g>
</g>
<!-- Node21&#45;&gt;Node35 -->
<g id="edge31_Node000021_Node000035" class="edge">
<title>Node21&#45;&gt;Node35</title>
<g id="a_edge31_Node000021_Node000035"><a xlink:title=" ">
<path fill="none" stroke="#63b8ff" d="M591.38,-572.96C610.13,-588.7 648.77,-619.05 686.5,-635.88 694.81,-639.58 703.96,-642.64 712.98,-645.13"/>
<polygon fill="#63b8ff" stroke="#63b8ff" points="711.88,-648.72 722.44,-647.8 713.62,-641.93 711.88,-648.72"/>
</a>
</g>
</g>
<!-- Node23 -->
<g id="Node000023" class="node">
<title>Node23</title>
<g id="a_Node000023"><a xlink:href="../../d5/d9e/struct_im_font_atlas.html#a579bb434bd116ea9ac4f892652ccefdb" target="_top" xlink:title=" ">
<polygon fill="#fff0f0" stroke="red" points="1029.75,-578.12 895.25,-578.12 895.25,-547.62 1029.75,-547.62 1029.75,-578.12"/>
<text text-anchor="start" x="903.25" y="-564.62" font-family="Helvetica,sans-Serif" font-size="10.00">ImFontAtlas::AddFontFrom</text>
<text text-anchor="middle" x="962.5" y="-553.38" font-family="Helvetica,sans-Serif" font-size="10.00">MemoryCompressedTTF</text>
</a>
</g>
</g>
<!-- Node22&#45;&gt;Node23 -->
<g id="edge26_Node000022_Node000023" class="edge">
<title>Node22&#45;&gt;Node23</title>
<g id="a_edge26_Node000022_Node000023"><a xlink:title=" ">
<path fill="none" stroke="#63b8ff" d="M844.62,-562.88C857.62,-562.88 871.1,-562.88 884.09,-562.88"/>
<polygon fill="#63b8ff" stroke="#63b8ff" points="883.85,-566.38 893.85,-562.88 883.85,-559.38 883.85,-566.38"/>
</a>
</g>
</g>
<!-- Node31 -->
<g id="Node000031" class="node">
<title>Node31</title>
<g id="a_Node000031"><a xlink:href="../../dc/d77/imgui__draw_8cpp.html#a992fe244c130e7ec5a8aa7bc0889f9aa" target="_top" xlink:title=" ">
<polygon fill="#fff0f0" stroke="red" points="992.62,-615.5 932.38,-615.5 932.38,-596.25 992.62,-596.25 992.62,-615.5"/>
<text text-anchor="middle" x="962.5" y="-602" font-family="Helvetica,sans-Serif" font-size="10.00">Decode85</text>
</a>
</g>
</g>
<!-- Node22&#45;&gt;Node31 -->
<g id="edge28_Node000022_Node000031" class="edge">
<title>Node22&#45;&gt;Node31</title>
<g id="a_edge28_Node000022_Node000031"><a xlink:title=" ">
<path fill="none" stroke="#63b8ff" d="M837.65,-578.58C865.88,-584.8 897.28,-591.72 921.4,-597.04"/>
<polygon fill="#63b8ff" stroke="#63b8ff" points="920.41,-600.62 930.93,-599.36 921.92,-593.79 920.41,-600.62"/>
</a>
</g>
</g>
<!-- Node23&#45;&gt;Node2 -->
<g id="edge27_Node000023_Node000002" class="edge">
<title>Node23&#45;&gt;Node2</title>
<g id="a_edge27_Node000023_Node000002"><a xlink:title=" ">
<path fill="none" stroke="#63b8ff" d="M1030.17,-569.15C1045.5,-570.59 1061.94,-572.13 1077.68,-573.61"/>
<polygon fill="#63b8ff" stroke="#63b8ff" points="1077.16,-577.18 1087.45,-574.63 1077.82,-570.21 1077.16,-577.18"/>
</a>
</g>
</g>
<!-- Node37 -->
<g id="Node000037" class="node">
<title>Node37</title>
<g id="a_Node000037"><a xlink:href="../../dc/d77/imgui__draw_8cpp.html#a4c276d0224ef420d570c9485c4c76a19" target="_top" xlink:title=" ">
<polygon fill="white" stroke="#666666" points="830,-447.12 700.75,-447.12 700.75,-416.62 830,-416.62 830,-447.12"/>
<text text-anchor="start" x="708.75" y="-433.62" font-family="Helvetica,sans-Serif" font-size="10.00">ImFontAtlasGetBuilderFor</text>
<text text-anchor="middle" x="765.38" y="-422.38" font-family="Helvetica,sans-Serif" font-size="10.00">StbTruetype</text>
</a>
</g>
</g>
<!-- Node36&#45;&gt;Node37 -->
<g id="edge33_Node000036_Node000037" class="edge">
<title>Node36&#45;&gt;Node37</title>
<g id="a_edge33_Node000036_Node000037"><a xlink:title=" ">
<path fill="none" stroke="#63b8ff" d="M627.3,-439.3C646.22,-438.27 668.46,-437.07 689.45,-435.93"/>
<polygon fill="#63b8ff" stroke="#63b8ff" points="689.49,-439.38 699.29,-435.35 689.11,-432.39 689.49,-439.38"/>
</a>
</g>
</g>
<!-- Node38 -->
<g id="Node000038" class="node">
<title>Node38</title>
<g id="a_Node000038"><a xlink:href="../../dc/d77/imgui__draw_8cpp.html#a2f785bd6dd330af7a832589fa24f303a" target="_top" xlink:title=" ">
<polygon fill="#fff0f0" stroke="red" points="1044.75,-423.5 880.25,-423.5 880.25,-404.25 1044.75,-404.25 1044.75,-423.5"/>
<text text-anchor="middle" x="962.5" y="-410" font-family="Helvetica,sans-Serif" font-size="10.00">ImFontAtlasBuildWithStbTruetype</text>
</a>
</g>
</g>
<!-- Node37&#45;&gt;Node38 -->
<g id="edge34_Node000037_Node000038" class="edge">
<title>Node37&#45;&gt;Node38</title>
<g id="a_edge34_Node000037_Node000038"><a xlink:title=" ">
<path fill="none" stroke="#63b8ff" d="M830.27,-425.98C842.81,-424.82 856.19,-423.59 869.45,-422.37"/>
<polygon fill="#63b8ff" stroke="#63b8ff" points="869.39,-425.79 879.03,-421.39 868.75,-418.82 869.39,-425.79"/>
</a>
</g>
</g>
<!-- Node38&#45;&gt;Node5 -->
<g id="edge36_Node000038_Node000005" class="edge">
<title>Node38&#45;&gt;Node5</title>
<g id="a_edge36_Node000038_Node000005"><a xlink:title=" ">
<path fill="none" stroke="#63b8ff" d="M1013.07,-423.95C1033.94,-428.1 1058.5,-432.86 1080.75,-436.88 1193.85,-457.27 1325.37,-478.44 1406.05,-491.14"/>
<polygon fill="#63b8ff" stroke="#63b8ff" points="1405.18,-494.7 1415.6,-492.79 1406.27,-487.79 1405.18,-494.7"/>
</a>
</g>
</g>
<!-- Node38&#45;&gt;Node6 -->
<g id="edge37_Node000038_Node000006" class="edge">
<title>Node38&#45;&gt;Node6</title>
<g id="a_edge37_Node000038_Node000006"><a xlink:title=" ">
<path fill="none" stroke="#63b8ff" d="M1045.15,-417.62C1128.97,-421.64 1263.16,-428.59 1379,-436.88 1394.73,-438 1411.79,-439.42 1427.41,-440.79"/>
<polygon fill="#63b8ff" stroke="#63b8ff" points="1426.68,-444.33 1436.95,-441.73 1427.31,-437.36 1426.68,-444.33"/>
</a>
</g>
</g>
<!-- Node38&#45;&gt;Node16 -->
<g id="edge35_Node000038_Node000016" class="edge">
<title>Node38&#45;&gt;Node16</title>
<g id="a_edge35_Node000038_Node000016"><a xlink:title=" ">
<path fill="none" stroke="#63b8ff" d="M1012.78,-403.83C1040.67,-398.15 1075.5,-391.05 1103.7,-385.3"/>
<polygon fill="#63b8ff" stroke="#63b8ff" points="1104.05,-388.6 1113.15,-383.17 1102.65,-381.74 1104.05,-388.6"/>
</a>
</g>
</g>
<!-- Node38&#45;&gt;Node18 -->
<g id="edge40_Node000038_Node000018" class="edge">
<title>Node38&#45;&gt;Node18</title>
<g id="a_edge40_Node000038_Node000018"><a xlink:title=" ">
<path fill="none" stroke="#63b8ff" d="M975.74,-403.79C996.98,-386.32 1042.09,-349.39 1080.75,-318.88 1098.27,-305.05 1118.35,-289.63 1133.18,-278.33"/>
<polygon fill="#63b8ff" stroke="#63b8ff" points="1134.84,-280.71 1140.67,-271.87 1130.6,-275.13 1134.84,-280.71"/>
</a>
</g>
</g>
<!-- Node38&#45;&gt;Node34 -->
<g id="edge38_Node000038_Node000034" class="edge">
<title>Node38&#45;&gt;Node34</title>
<g id="a_edge38_Node000038_Node000034"><a xlink:title=" ">
<path fill="none" stroke="#63b8ff" d="M979.82,-423.94C1010.76,-443.02 1078.59,-484.84 1120.14,-510.46"/>
<polygon fill="#63b8ff" stroke="#63b8ff" points="1117.99,-513.86 1128.34,-516.13 1121.67,-507.9 1117.99,-513.86"/>
</a>
</g>
</g>
<!-- Node38&#45;&gt;Node66 -->
<g id="edge39_Node000038_Node000066" class="edge">
<title>Node38&#45;&gt;Node66</title>
<g id="a_edge39_Node000038_Node000066"><a xlink:title=" ">
<path fill="none" stroke="#63b8ff" d="M980.84,-403.77C1003.26,-391.07 1043.83,-369.3 1080.75,-355.88 1086.57,-353.76 1092.74,-351.81 1098.93,-350.05"/>
<polygon fill="#63b8ff" stroke="#63b8ff" points="1099.58,-353.23 1108.32,-347.25 1097.76,-346.47 1099.58,-353.23"/>
</a>
</g>
</g>
</g>
</svg>
