<?xml version="1.0" encoding="UTF-8" standalone="no"?>
<!DOCTYPE svg PUBLIC "-//W3C//DTD SVG 1.1//EN"
 "http://www.w3.org/Graphics/SVG/1.1/DTD/svg11.dtd">
<!-- Generated by graphviz version 8.0.5 (20230430.1635)
 -->
<!-- Title: Slic3r::GUI::GLGizmoHollow::on_start_dragging Pages: 1 -->
<svg width="689pt" height="106pt"
 viewBox="0.00 0.00 688.50 106.12" xmlns="http://www.w3.org/2000/svg" xmlns:xlink="http://www.w3.org/1999/xlink">
<g id="graph0" class="graph" transform="scale(1 1) rotate(0) translate(4 102.12)">
<title>Slic3r::GUI::GLGizmoHollow::on_start_dragging</title>
<!-- Node1 -->
<g id="Node000001" class="node">
<title>Node1</title>
<g id="a_Node000001"><a xlink:title=" ">
<polygon fill="#999999" stroke="#666666" points="142,-57.5 0,-57.5 0,-27 142,-27 142,-57.5"/>
<text text-anchor="start" x="8" y="-44" font-family="Helvetica,sans-Serif" font-size="10.00">Slic3r::GUI::GLGizmoHollow</text>
<text text-anchor="middle" x="71" y="-32.75" font-family="Helvetica,sans-Serif" font-size="10.00">::on_start_dragging</text>
</a>
</g>
</g>
<!-- Node2 -->
<g id="Node000002" class="node">
<title>Node2</title>
<g id="a_Node000002"><a xlink:href="../../d6/df8/class_slic3r_1_1_g_u_i_1_1_common_gizmos_data_objects_1_1_selection_info.html#aa69880ef0882356aabbed81272cf8559" target="_top" xlink:title=" ">
<polygon fill="white" stroke="#666666" points="500.25,-98.12 356,-98.12 356,-56.38 500.25,-56.38 500.25,-98.12"/>
<text text-anchor="start" x="364" y="-84.62" font-family="Helvetica,sans-Serif" font-size="10.00">Slic3r::GUI::CommonGizmos</text>
<text text-anchor="start" x="364" y="-73.38" font-family="Helvetica,sans-Serif" font-size="10.00">DataObjects::SelectionInfo</text>
<text text-anchor="middle" x="428.12" y="-62.12" font-family="Helvetica,sans-Serif" font-size="10.00">::model_object</text>
</a>
</g>
</g>
<!-- Node1&#45;&gt;Node2 -->
<g id="edge1_Node000001_Node000002" class="edge">
<title>Node1&#45;&gt;Node2</title>
<g id="a_edge1_Node000001_Node000002"><a xlink:title=" ">
<path fill="none" stroke="#63b8ff" d="M132.76,-57.96C147.48,-61.22 163.23,-64.27 178,-66.25 233.35,-73.68 296.17,-76.41 344.88,-77.3"/>
<polygon fill="#63b8ff" stroke="#63b8ff" points="344.63,-80.81 354.68,-77.47 344.74,-73.81 344.63,-80.81"/>
</a>
</g>
</g>
<!-- Node3 -->
<g id="Node000003" class="node">
<title>Node3</title>
<g id="a_Node000003"><a xlink:href="../../da/d2c/class_slic3r_1_1_g_u_i_1_1_g_l_gizmo_hollow.html#a31500d8f3b64c5763c46abc37c4ebb24" target="_top" xlink:title=" ">
<polygon fill="white" stroke="#666666" points="320,-57.5 178,-57.5 178,-27 320,-27 320,-57.5"/>
<text text-anchor="start" x="186" y="-44" font-family="Helvetica,sans-Serif" font-size="10.00">Slic3r::GUI::GLGizmoHollow</text>
<text text-anchor="middle" x="249" y="-32.75" font-family="Helvetica,sans-Serif" font-size="10.00">::select_point</text>
</a>
</g>
</g>
<!-- Node1&#45;&gt;Node3 -->
<g id="edge2_Node000001_Node000003" class="edge">
<title>Node1&#45;&gt;Node3</title>
<g id="a_edge2_Node000001_Node000003"><a xlink:title=" ">
<path fill="none" stroke="#63b8ff" d="M142.32,-42.25C150.28,-42.25 158.45,-42.25 166.54,-42.25"/>
<polygon fill="#63b8ff" stroke="#63b8ff" points="166.51,-45.75 176.51,-42.25 166.51,-38.75 166.51,-45.75"/>
</a>
</g>
</g>
<!-- Node4 -->
<g id="Node000004" class="node">
<title>Node4</title>
<g id="a_Node000004"><a xlink:href="../../d5/d4e/class_slic3r_1_1_g_u_i_1_1_common_gizmos_data_pool.html#a426216e4d0ab24cbf377b4bbfcf99ad4" target="_top" xlink:title=" ">
<polygon fill="white" stroke="#666666" points="500.25,-30.5 356,-30.5 356,0 500.25,0 500.25,-30.5"/>
<text text-anchor="start" x="364" y="-17" font-family="Helvetica,sans-Serif" font-size="10.00">Slic3r::GUI::CommonGizmos</text>
<text text-anchor="middle" x="428.12" y="-5.75" font-family="Helvetica,sans-Serif" font-size="10.00">DataPool::selection_info</text>
</a>
</g>
</g>
<!-- Node1&#45;&gt;Node4 -->
<g id="edge6_Node000001_Node000004" class="edge">
<title>Node1&#45;&gt;Node4</title>
<g id="a_edge6_Node000001_Node000004"><a xlink:title=" ">
<path fill="none" stroke="#63b8ff" d="M131.32,-26.51C146.44,-23.14 162.73,-20.05 178,-18.25 233.41,-11.72 296.23,-11.01 344.93,-11.91"/>
<polygon fill="#63b8ff" stroke="#63b8ff" points="344.65,-15.43 354.73,-12.14 344.8,-8.43 344.65,-15.43"/>
</a>
</g>
</g>
<!-- Node3&#45;&gt;Node2 -->
<g id="edge3_Node000003_Node000002" class="edge">
<title>Node3&#45;&gt;Node2</title>
<g id="a_edge3_Node000003_Node000002"><a xlink:title=" ">
<path fill="none" stroke="#63b8ff" d="M320.26,-56.13C328.32,-57.73 336.59,-59.36 344.79,-60.98"/>
<polygon fill="#63b8ff" stroke="#63b8ff" points="344.01,-64.59 354.5,-63.1 345.37,-57.72 344.01,-64.59"/>
</a>
</g>
</g>
<!-- Node3&#45;&gt;Node4 -->
<g id="edge4_Node000003_Node000004" class="edge">
<title>Node3&#45;&gt;Node4</title>
<g id="a_edge4_Node000003_Node000004"><a xlink:title=" ">
<path fill="none" stroke="#63b8ff" d="M320.26,-31.54C328.32,-30.31 336.59,-29.05 344.79,-27.8"/>
<polygon fill="#63b8ff" stroke="#63b8ff" points="345.14,-31.14 354.5,-26.17 344.09,-24.22 345.14,-31.14"/>
</a>
</g>
</g>
<!-- Node5 -->
<g id="Node000005" class="node">
<title>Node5</title>
<g id="a_Node000005"><a xlink:href="../../dc/de9/class_slic3r_1_1_g_u_i_1_1_common_gizmos_data_base.html#a857bb436ea2985183ee7d258d015b90b" target="_top" xlink:title=" ">
<polygon fill="white" stroke="#666666" points="680.5,-30.5 536.25,-30.5 536.25,0 680.5,0 680.5,-30.5"/>
<text text-anchor="start" x="544.25" y="-17" font-family="Helvetica,sans-Serif" font-size="10.00">Slic3r::GUI::CommonGizmos</text>
<text text-anchor="middle" x="608.38" y="-5.75" font-family="Helvetica,sans-Serif" font-size="10.00">DataBase::is_valid</text>
</a>
</g>
</g>
<!-- Node4&#45;&gt;Node5 -->
<g id="edge5_Node000004_Node000005" class="edge">
<title>Node4&#45;&gt;Node5</title>
<g id="a_edge5_Node000004_Node000005"><a xlink:title=" ">
<path fill="none" stroke="#63b8ff" d="M500.6,-15.25C508.59,-15.25 516.78,-15.25 524.89,-15.25"/>
<polygon fill="#63b8ff" stroke="#63b8ff" points="524.88,-18.75 534.88,-15.25 524.88,-11.75 524.88,-18.75"/>
</a>
</g>
</g>
</g>
</svg>
