<?xml version="1.0" encoding="UTF-8" standalone="no"?>
<!DOCTYPE svg PUBLIC "-//W3C//DTD SVG 1.1//EN"
 "http://www.w3.org/Graphics/SVG/1.1/DTD/svg11.dtd">
<!-- Generated by graphviz version 8.0.5 (20230430.1635)
 -->
<!-- Title: ImGui::IsMouseHoveringRect Pages: 1 -->
<svg width="365pt" height="82pt"
 viewBox="0.00 0.00 365.00 82.25" xmlns="http://www.w3.org/2000/svg" xmlns:xlink="http://www.w3.org/1999/xlink">
<g id="graph0" class="graph" transform="scale(1 1) rotate(0) translate(4 78.25)">
<title>ImGui::IsMouseHoveringRect</title>
<!-- Node1 -->
<g id="Node000001" class="node">
<title>Node1</title>
<g id="a_Node000001"><a xlink:title=" ">
<polygon fill="#999999" stroke="#666666" points="145.75,-37.25 0,-37.25 0,-18 145.75,-18 145.75,-37.25"/>
<text text-anchor="middle" x="72.88" y="-23.75" font-family="Helvetica,sans-Serif" font-size="10.00">ImGui::IsMouseHoveringRect</text>
</a>
</g>
</g>
<!-- Node2 -->
<g id="Node000002" class="node">
<title>Node2</title>
<g id="a_Node000002"><a xlink:href="../../df/d8d/struct_im_rect.html#ac02d5cf6ce0358aea9ed9df43d368f3f" target="_top" xlink:title=" ">
<polygon fill="white" stroke="#666666" points="274.25,-56.25 182.5,-56.25 182.5,-37 274.25,-37 274.25,-56.25"/>
<text text-anchor="middle" x="228.38" y="-42.75" font-family="Helvetica,sans-Serif" font-size="10.00">ImRect::ClipWith</text>
</a>
</g>
</g>
<!-- Node1&#45;&gt;Node2 -->
<g id="edge1_Node000001_Node000002" class="edge">
<title>Node1&#45;&gt;Node2</title>
<g id="a_edge1_Node000001_Node000002"><a xlink:title=" ">
<path fill="none" stroke="#63b8ff" d="M146.13,-36.57C154.58,-37.61 163.1,-38.67 171.28,-39.68"/>
<polygon fill="#63b8ff" stroke="#63b8ff" points="170.83,-43.28 181.19,-41.03 171.69,-36.33 170.83,-43.28"/>
</a>
</g>
</g>
<!-- Node5 -->
<g id="Node000005" class="node">
<title>Node5</title>
<g id="a_Node000005"><a xlink:href="../../df/d8d/struct_im_rect.html#ac583156fd0e9306181fff5d120b262ea" target="_top" xlink:title=" ">
<polygon fill="white" stroke="#666666" points="275,-19.25 181.75,-19.25 181.75,0 275,0 275,-19.25"/>
<text text-anchor="middle" x="228.38" y="-5.75" font-family="Helvetica,sans-Serif" font-size="10.00">ImRect::Contains</text>
</a>
</g>
</g>
<!-- Node1&#45;&gt;Node5 -->
<g id="edge4_Node000001_Node000005" class="edge">
<title>Node1&#45;&gt;Node5</title>
<g id="a_edge4_Node000001_Node000005"><a xlink:title=" ">
<path fill="none" stroke="#63b8ff" d="M146.13,-19.15C154.36,-18.19 162.67,-17.21 170.66,-16.28"/>
<polygon fill="#63b8ff" stroke="#63b8ff" points="170.8,-19.67 180.32,-15.03 169.98,-12.71 170.8,-19.67"/>
</a>
</g>
</g>
<!-- Node3 -->
<g id="Node000003" class="node">
<title>Node3</title>
<g id="a_Node000003"><a xlink:href="../../d1/da2/imgui__internal_8h.html#a7667efd95147d0422f140917c71a9226" target="_top" xlink:title=" ">
<polygon fill="white" stroke="#666666" points="357,-74.25 311,-74.25 311,-55 357,-55 357,-74.25"/>
<text text-anchor="middle" x="334" y="-60.75" font-family="Helvetica,sans-Serif" font-size="10.00">ImMax</text>
</a>
</g>
</g>
<!-- Node2&#45;&gt;Node3 -->
<g id="edge2_Node000002_Node000003" class="edge">
<title>Node2&#45;&gt;Node3</title>
<g id="a_edge2_Node000002_Node000003"><a xlink:title=" ">
<path fill="none" stroke="#63b8ff" d="M274.52,-54.47C283.15,-55.97 292.02,-57.51 300.17,-58.92"/>
<polygon fill="#63b8ff" stroke="#63b8ff" points="299.29,-62.5 309.74,-60.76 300.49,-55.6 299.29,-62.5"/>
</a>
</g>
</g>
<!-- Node4 -->
<g id="Node000004" class="node">
<title>Node4</title>
<g id="a_Node000004"><a xlink:href="../../d1/da2/imgui__internal_8h.html#a7f9d7828066a9d61b5630adcdf4655d3" target="_top" xlink:title=" ">
<polygon fill="white" stroke="#666666" points="355.5,-37.25 312.5,-37.25 312.5,-18 355.5,-18 355.5,-37.25"/>
<text text-anchor="middle" x="334" y="-23.75" font-family="Helvetica,sans-Serif" font-size="10.00">ImMin</text>
</a>
</g>
</g>
<!-- Node2&#45;&gt;Node4 -->
<g id="edge3_Node000002_Node000004" class="edge">
<title>Node2&#45;&gt;Node4</title>
<g id="a_edge3_Node000002_Node000004"><a xlink:title=" ">
<path fill="none" stroke="#63b8ff" d="M274.52,-38.35C283.63,-36.68 293.01,-34.96 301.52,-33.4"/>
<polygon fill="#63b8ff" stroke="#63b8ff" points="301.9,-36.7 311.11,-31.46 300.64,-29.82 301.9,-36.7"/>
</a>
</g>
</g>
</g>
</svg>
