<?xml version="1.0" encoding="UTF-8" standalone="no"?>
<!DOCTYPE svg PUBLIC "-//W3C//DTD SVG 1.1//EN"
 "http://www.w3.org/Graphics/SVG/1.1/DTD/svg11.dtd">
<!-- Generated by graphviz version 8.0.5 (20230430.1635)
 -->
<!-- Title: ImGui::InvisibleButton Pages: 1 -->
<!--zoomable 401 -->

<svg id="main" version="1.1" xmlns="http://www.w3.org/2000/svg" xmlns:xlink="http://www.w3.org/1999/xlink" xml:space="preserve" onload="init(evt)">
<style type="text/css"><![CDATA[
.node, .edge {opacity: 0.7;}
.node.selected, .edge.selected {opacity: 1;}
.edge:hover path { stroke: red; }
.edge:hover polygon { stroke: red; fill: red; }
]]></style>

<defs>
  <circle id="rim" cx="0" cy="0" r="7"/>
  <circle id="rim2" cx="0" cy="0" r="3.5"/>
  <g id="zoomPlus">
    <use xlink:href="#rim" fill="#404040"><set attributeName="fill" to="#808080" begin="zoomplus.mouseover" end="zoomplus.mouseout"/></use>
    <path d="M-4,0h8M0,-4v8" fill="none" stroke="white" stroke-width="1.5" pointer-events="none"/>
  </g>
  <g id="zoomMin">
    <use xlink:href="#rim" fill="#404040"><set attributeName="fill" to="#808080" begin="zoomminus.mouseover" end="zoomminus.mouseout"/></use>
    <path d="M-4,0h8" fill="none" stroke="white" stroke-width="1.5" pointer-events="none"/>
  </g>
  <g id="arrowUp" transform="translate(30 24)">
    <use xlink:href="#rim"/>
    <path pointer-events="none" fill="none" stroke="white" stroke-width="1.5" d="M0,-3.0v7 M-2.5,-0.5L0,-3.0L2.5,-0.5"/>
  </g>
  <g id="arrowRight" transform="rotate(90) translate(36 -43)">
    <use xlink:href="#rim"/>
    <path pointer-events="none" fill="none" stroke="white" stroke-width="1.5" d="M0,-3.0v7 M-2.5,-0.5L0,-3.0L2.5,-0.5"/>
  </g>
  <g id="arrowDown" transform="rotate(180) translate(-30 -48)">
    <use xlink:href="#rim"/>
    <path pointer-events="none" fill="none" stroke="white" stroke-width="1.5" d="M0,-3.0v7 M-2.5,-0.5L0,-3.0L2.5,-0.5"/>
  </g>
  <g id="arrowLeft" transform="rotate(270) translate(-36 17)">
    <use xlink:href="#rim"/>
    <path pointer-events="none" fill="none" stroke="white" stroke-width="1.5" d="M0,-3.0v7 M-2.5,-0.5L0,-3.0L2.5,-0.5"/>
  </g>
  <g id="resetDef">
    <use xlink:href="#rim2" fill="#404040"><set attributeName="fill" to="#808080" begin="reset.mouseover" end="reset.mouseout"/></use>
  </g>
</defs>
<script type="application/ecmascript">
var viewWidth = 1235;
var viewHeight = 401;
var sectionId = 'dynsection-440';
</script>
<script type="application/ecmascript" xlink:href="../../svg.min.js"/>
<svg id="graph" class="graph">
<g id="viewport">
<title>ImGui::InvisibleButton</title>
<!-- Node1 -->
<g id="Node000001" class="node">
<title>Node1</title>
<g id="a_Node000001"><a xlink:title=" ">
<polygon fill="#999999" stroke="#666666" points="1226.5,-355.25 1113.75,-355.25 1113.75,-336 1226.5,-336 1226.5,-355.25"/>
<text text-anchor="middle" x="1170.12" y="-341.75" font-family="Helvetica,sans-Serif" font-size="10.00">ImGui::InvisibleButton</text>
</a>
</g>
</g>
<!-- Node2 -->
<g id="Node000002" class="node">
<title>Node2</title>
<g id="a_Node000002"><a xlink:href="../../df/d13/namespace_im_gui.html#adcf05a00af6d5b7bf026473b973e427c" target="_top" xlink:title=" ">
<polygon fill="white" stroke="#666666" points="1064.25,-200.25 959.75,-200.25 959.75,-181 1064.25,-181 1064.25,-200.25"/>
<text text-anchor="middle" x="1012" y="-186.75" font-family="Helvetica,sans-Serif" font-size="10.00">ImGui::ColorPicker4</text>
</a>
</g>
</g>
<!-- Node1&#45;&gt;Node2 -->
<g id="edge1_Node000001_Node000002" class="edge">
<title>Node1&#45;&gt;Node2</title>
<g id="a_edge1_Node000001_Node000002"><a xlink:title=" ">
<path fill="none" stroke="#63b8ff" d="M1151.92,-328.54C1119.29,-296.14 1049.34,-226.71 1023.17,-200.72"/>
<polygon fill="#63b8ff" stroke="#63b8ff" points="1148.8,-330.37 1158.36,-334.93 1153.73,-325.4 1148.8,-330.37"/>
</a>
</g>
</g>
<!-- Node99 -->
<g id="Node000099" class="node">
<title>Node99</title>
<g id="a_Node000099"><a xlink:href="../../d5/d0a/imgui__demo_8cpp.html#a0729207a285af6ef57ce5a31d1a60348" target="_top" xlink:title=" ">
<polygon fill="white" stroke="#666666" points="731.88,-355.25 556.88,-355.25 556.88,-336 731.88,-336 731.88,-355.25"/>
<text text-anchor="middle" x="644.38" y="-341.75" font-family="Helvetica,sans-Serif" font-size="10.00">ShowExampleAppCustomRendering</text>
</a>
</g>
</g>
<!-- Node1&#45;&gt;Node99 -->
<g id="edge27_Node000001_Node000099" class="edge">
<title>Node1&#45;&gt;Node99</title>
<g id="a_edge27_Node000001_Node000099"><a xlink:title=" ">
<path fill="none" stroke="#63b8ff" d="M1102.76,-345.62C1008.58,-345.62 836.04,-345.62 731.91,-345.62"/>
<polygon fill="#63b8ff" stroke="#63b8ff" points="1102.57,-349.13 1112.57,-345.62 1102.57,-342.13 1102.57,-349.13"/>
</a>
</g>
</g>
<!-- Node103 -->
<g id="Node000103" class="node">
<title>Node103</title>
<g id="a_Node000103"><a xlink:href="../../d5/d0a/imgui__demo_8cpp.html#ac209de20c1f862aa48a3f5f27aee407e" target="_top" xlink:title=" ">
<polygon fill="white" stroke="#666666" points="1077.75,-393.25 946.25,-393.25 946.25,-374 1077.75,-374 1077.75,-393.25"/>
<text text-anchor="middle" x="1012" y="-379.75" font-family="Helvetica,sans-Serif" font-size="10.00">ShowDemoWindowLayout</text>
</a>
</g>
</g>
<!-- Node1&#45;&gt;Node103 -->
<g id="edge25_Node000001_Node000103" class="edge">
<title>Node1&#45;&gt;Node103</title>
<g id="a_edge25_Node000001_Node000103"><a xlink:title=" ">
<path fill="none" stroke="#63b8ff" d="M1117.28,-358.24C1096.82,-363.22 1073.65,-368.86 1054.35,-373.56"/>
<polygon fill="#63b8ff" stroke="#63b8ff" points="1117.81,-361.47 1126.7,-355.71 1116.15,-354.67 1117.81,-361.47"/>
</a>
</g>
</g>
<!-- Node3 -->
<g id="Node000003" class="node">
<title>Node3</title>
<g id="a_Node000003"><a xlink:href="../../df/d13/namespace_im_gui.html#a9896f037df463a00b3b99dd379dab69e" target="_top" xlink:title=" ">
<polygon fill="white" stroke="#666666" points="890.75,-200.25 796.75,-200.25 796.75,-181 890.75,-181 890.75,-200.25"/>
<text text-anchor="middle" x="843.75" y="-186.75" font-family="Helvetica,sans-Serif" font-size="10.00">ImGui::ColorEdit4</text>
</a>
</g>
</g>
<!-- Node2&#45;&gt;Node3 -->
<g id="edge2_Node000002_Node000003" class="edge">
<title>Node2&#45;&gt;Node3</title>
<g id="a_edge2_Node000002_Node000003"><a xlink:title=" ">
<path fill="none" stroke="#63b8ff" d="M948.32,-184.06C929.31,-183.71 908.78,-183.86 891.05,-184.5"/>
<polygon fill="#63b8ff" stroke="#63b8ff" points="948.23,-187.58 958.31,-184.32 948.4,-180.58 948.23,-187.58"/>
</a>
</g>
</g>
<!-- Node92 -->
<g id="Node000092" class="node">
<title>Node92</title>
<g id="a_Node000092"><a xlink:href="../../d5/d0a/imgui__demo_8cpp.html#af533fd0a774d6bbebe61e474db6f144f" target="_top" xlink:title=" ">
<polygon fill="white" stroke="#666666" points="504,-144.25 365.75,-144.25 365.75,-125 504,-125 504,-144.25"/>
<text text-anchor="middle" x="434.88" y="-130.75" font-family="Helvetica,sans-Serif" font-size="10.00">ShowDemoWindowWidgets</text>
</a>
</g>
</g>
<!-- Node2&#45;&gt;Node92 -->
<g id="edge24_Node000002_Node000092" class="edge">
<title>Node2&#45;&gt;Node92</title>
<g id="a_edge24_Node000002_Node000092"><a xlink:title=" ">
<path fill="none" stroke="#63b8ff" d="M986.25,-174.77C940.23,-146.33 837.41,-87.67 741.25,-66.62 657.13,-48.22 630.41,-43.36 547.5,-66.62 506.86,-78.03 466.35,-108.76 447.23,-124.71"/>
<polygon fill="#63b8ff" stroke="#63b8ff" points="984.1,-178.18 994.44,-180.51 987.81,-172.24 984.1,-178.18"/>
</a>
</g>
</g>
<!-- Node101 -->
<g id="Node000101" class="node">
<title>Node101</title>
<g id="a_Node000101"><a xlink:href="../../df/d13/namespace_im_gui.html#a2a2a98cb9a17b18702be6b954670b388" target="_top" xlink:title=" ">
<polygon fill="white" stroke="#666666" points="896,-19.25 791.5,-19.25 791.5,0 896,0 896,-19.25"/>
<text text-anchor="middle" x="843.75" y="-5.75" font-family="Helvetica,sans-Serif" font-size="10.00">ImGui::ColorPicker3</text>
</a>
</g>
</g>
<!-- Node2&#45;&gt;Node101 -->
<g id="edge21_Node000002_Node000101" class="edge">
<title>Node2&#45;&gt;Node101</title>
<g id="a_edge21_Node000002_Node000101"><a xlink:title=" ">
<path fill="none" stroke="#63b8ff" d="M1003.26,-170.75C989.44,-137.73 957.47,-71.48 910.25,-33.62 902.88,-27.72 893.92,-23.18 885.02,-19.73"/>
<polygon fill="#63b8ff" stroke="#63b8ff" points="1000.24,-171.63 1007.25,-179.58 1006.73,-169 1000.24,-171.63"/>
</a>
</g>
</g>
<!-- Node102 -->
<g id="Node000102" class="node">
<title>Node102</title>
<g id="a_Node000102"><a xlink:href="../../df/d13/namespace_im_gui.html#a6d112eeb6d8ffdebbc9d9a8c66babbee" target="_top" xlink:title=" ">
<polygon fill="white" stroke="#666666" points="910.25,-248.88 777.25,-248.88 777.25,-218.38 910.25,-218.38 910.25,-248.88"/>
<text text-anchor="start" x="785.25" y="-235.38" font-family="Helvetica,sans-Serif" font-size="10.00">ImGui::ColorPickerOptions</text>
<text text-anchor="middle" x="843.75" y="-224.12" font-family="Helvetica,sans-Serif" font-size="10.00">Popup</text>
</a>
</g>
</g>
<!-- Node2&#45;&gt;Node102 -->
<g id="edge22_Node000002_Node000102" class="edge">
<title>Node2&#45;&gt;Node102</title>
<g id="a_edge22_Node000002_Node000102"><a xlink:title=" ">
<path fill="none" stroke="#63b8ff" d="M948.71,-200.18C926.71,-205.45 902.64,-211.93 883.2,-217.88"/>
<polygon fill="#63b8ff" stroke="#63b8ff" points="949.37,-203.38 958.31,-197.69 947.77,-196.57 949.37,-203.38"/>
</a>
</g>
</g>
<!-- Node3&#45;&gt;Node2 -->
<g id="edge9_Node000003_Node000002" class="edge">
<title>Node3&#45;&gt;Node2</title>
<g id="a_edge9_Node000003_Node000002"><a xlink:title=" ">
<path fill="none" stroke="#63b8ff" d="M902.04,-197.08C920.64,-197.52 941.15,-197.47 959.31,-196.93"/>
<polygon fill="#63b8ff" stroke="#63b8ff" points="902.15,-193.55 892.05,-196.75 901.94,-200.55 902.15,-193.55"/>
</a>
</g>
</g>
<!-- Node4 -->
<g id="Node000004" class="node">
<title>Node4</title>
<g id="a_Node000004"><a xlink:href="../../df/d13/namespace_im_gui.html#a5afe76ba1c91f07363e40396e7df656e" target="_top" xlink:title=" ">
<polygon fill="white" stroke="#666666" points="691.38,-181.25 597.38,-181.25 597.38,-162 691.38,-162 691.38,-181.25"/>
<text text-anchor="middle" x="644.38" y="-167.75" font-family="Helvetica,sans-Serif" font-size="10.00">ImGui::ColorEdit3</text>
</a>
</g>
</g>
<!-- Node3&#45;&gt;Node4 -->
<g id="edge3_Node000003_Node000004" class="edge">
<title>Node3&#45;&gt;Node4</title>
<g id="a_edge3_Node000003_Node000004"><a xlink:title=" ">
<path fill="none" stroke="#63b8ff" d="M785.78,-185.14C755.92,-182.27 719.82,-178.79 691.7,-176.08"/>
<polygon fill="#63b8ff" stroke="#63b8ff" points="785.18,-188.7 795.47,-186.17 785.86,-181.73 785.18,-188.7"/>
</a>
</g>
</g>
<!-- Node3&#45;&gt;Node92 -->
<g id="edge16_Node000003_Node000092" class="edge">
<title>Node3&#45;&gt;Node92</title>
<g id="a_edge16_Node000003_Node000092"><a xlink:title=" ">
<path fill="none" stroke="#63b8ff" d="M811.59,-176.18C791.87,-167.75 765.59,-157.78 741.25,-152.62 661.11,-135.66 566.67,-132.61 504.27,-132.86"/>
<polygon fill="#63b8ff" stroke="#63b8ff" points="809.97,-179.73 820.53,-180.54 812.78,-173.32 809.97,-179.73"/>
</a>
</g>
</g>
<!-- Node93 -->
<g id="Node000093" class="node">
<title>Node93</title>
<g id="a_Node000093"><a xlink:href="../../df/d70/classigl_1_1opengl_1_1glfw_1_1imgui_1_1_im_gui_menu.html#a93e31ccd3713a311f4c822d6647fd365" target="_top" xlink:title=" ">
<polygon fill="white" stroke="#666666" points="705.62,-279.5 583.12,-279.5 583.12,-237.75 705.62,-237.75 705.62,-279.5"/>
<text text-anchor="start" x="591.12" y="-266" font-family="Helvetica,sans-Serif" font-size="10.00">igl::opengl::glfw::</text>
<text text-anchor="start" x="591.12" y="-254.75" font-family="Helvetica,sans-Serif" font-size="10.00">imgui::ImGuiMenu::draw</text>
<text text-anchor="middle" x="644.38" y="-243.5" font-family="Helvetica,sans-Serif" font-size="10.00">_viewer_menu</text>
</a>
</g>
</g>
<!-- Node3&#45;&gt;Node93 -->
<g id="edge10_Node000003_Node000093" class="edge">
<title>Node3&#45;&gt;Node93</title>
<g id="a_edge10_Node000003_Node000093"><a xlink:title=" ">
<path fill="none" stroke="#63b8ff" d="M795.56,-203.77C789.37,-205.65 783.14,-207.63 777.25,-209.62 760.99,-215.13 757.31,-217.57 741.25,-223.62 729.39,-228.09 716.68,-232.8 704.52,-237.25"/>
<polygon fill="#63b8ff" stroke="#63b8ff" points="796.26,-206.92 804.85,-200.71 794.27,-200.21 796.26,-206.92"/>
</a>
</g>
</g>
<!-- Node97 -->
<g id="Node000097" class="node">
<title>Node97</title>
<g id="a_Node000097"><a xlink:href="../../d9/d6f/class_slic3r_1_1_g_u_i_1_1_g_l_gizmo_mmu_segmentation.html#aec1aa2f87573fd0204cb10165154b3cf" target="_top" xlink:title=" ">
<polygon fill="white" stroke="#666666" points="741.25,-105.88 547.5,-105.88 547.5,-75.38 741.25,-75.38 741.25,-105.88"/>
<text text-anchor="start" x="555.5" y="-92.38" font-family="Helvetica,sans-Serif" font-size="10.00">Slic3r::GUI::GLGizmoMmuSegmentation</text>
<text text-anchor="middle" x="644.38" y="-81.12" font-family="Helvetica,sans-Serif" font-size="10.00">::on_render_input_window</text>
</a>
</g>
</g>
<!-- Node3&#45;&gt;Node97 -->
<g id="edge13_Node000003_Node000097" class="edge">
<title>Node3&#45;&gt;Node97</title>
<g id="a_edge13_Node000003_Node000097"><a xlink:title=" ">
<path fill="none" stroke="#63b8ff" d="M822.62,-173.64C802.96,-157.77 771.64,-134.38 741.25,-119.62 730.69,-114.5 719.03,-110.06 707.59,-106.3"/>
<polygon fill="#63b8ff" stroke="#63b8ff" points="820.09,-176.9 830.04,-180.54 824.53,-171.49 820.09,-176.9"/>
</a>
</g>
</g>
<!-- Node98 -->
<g id="Node000098" class="node">
<title>Node98</title>
<g id="a_Node000098"><a xlink:href="../../d5/d0a/imgui__demo_8cpp.html#ab19d813f2403009dd8700e041e10c09d" target="_top" xlink:title=" ">
<polygon fill="white" stroke="#666666" points="314,-314.25 178.75,-314.25 178.75,-295 314,-295 314,-314.25"/>
<text text-anchor="middle" x="246.38" y="-300.75" font-family="Helvetica,sans-Serif" font-size="10.00">ShowDemoWindowPopups</text>
</a>
</g>
</g>
<!-- Node3&#45;&gt;Node98 -->
<g id="edge14_Node000003_Node000098" class="edge">
<title>Node3&#45;&gt;Node98</title>
<g id="a_edge14_Node000003_Node000098"><a xlink:title=" ">
<path fill="none" stroke="#63b8ff" d="M786.64,-203.12C783.28,-205 780.11,-207.15 777.25,-209.62 748.06,-234.86 773.36,-267.23 741.25,-288.62 673.25,-333.94 432.97,-320.67 314.47,-310.92"/>
<polygon fill="#63b8ff" stroke="#63b8ff" points="787.89,-205.94 795.48,-198.55 784.94,-199.59 787.89,-205.94"/>
</a>
</g>
</g>
<!-- Node3&#45;&gt;Node99 -->
<g id="edge17_Node000003_Node000099" class="edge">
<title>Node3&#45;&gt;Node99</title>
<g id="a_edge17_Node000003_Node000099"><a xlink:title=" ">
<path fill="none" stroke="#63b8ff" d="M786.45,-202.65C783.12,-204.64 780.01,-206.94 777.25,-209.62 739.75,-246.06 779.42,-285.89 741.25,-321.62 734.86,-327.61 727.21,-332.16 719.06,-335.61"/>
<polygon fill="#63b8ff" stroke="#63b8ff" points="787.85,-205.39 795.32,-197.88 784.79,-199.09 787.85,-205.39"/>
</a>
</g>
</g>
<!-- Node100 -->
<g id="Node000100" class="node">
<title>Node100</title>
<g id="a_Node000100"><a xlink:href="../../df/d13/namespace_im_gui.html#ab2eb3dec78d054fe3feab1c091ec5de5" target="_top" xlink:title=" ">
<polygon fill="white" stroke="#666666" points="495.38,-219.25 374.38,-219.25 374.38,-200 495.38,-200 495.38,-219.25"/>
<text text-anchor="middle" x="434.88" y="-205.75" font-family="Helvetica,sans-Serif" font-size="10.00">ImGui::ShowStyleEditor</text>
</a>
</g>
</g>
<!-- Node3&#45;&gt;Node100 -->
<g id="edge19_Node000003_Node000100" class="edge">
<title>Node3&#45;&gt;Node100</title>
<g id="a_edge19_Node000003_Node000100"><a xlink:title=" ">
<path fill="none" stroke="#63b8ff" d="M785.61,-193.29C708.97,-196.87 573.53,-203.2 495.6,-206.84"/>
<polygon fill="#63b8ff" stroke="#63b8ff" points="785.65,-196.75 795.47,-192.79 785.32,-189.76 785.65,-196.75"/>
</a>
</g>
</g>
<!-- Node5 -->
<g id="Node000005" class="node">
<title>Node5</title>
<g id="a_Node000005"><a xlink:href="../../dd/d8e/struct_my_document.html#aa51e0b8e6c95b7109a507603599c05d9" target="_top" xlink:title=" ">
<polygon fill="white" stroke="#666666" points="511.5,-182.25 358.25,-182.25 358.25,-163 511.5,-163 511.5,-182.25"/>
<text text-anchor="middle" x="434.88" y="-168.75" font-family="Helvetica,sans-Serif" font-size="10.00">MyDocument::DisplayContents</text>
</a>
</g>
</g>
<!-- Node4&#45;&gt;Node5 -->
<g id="edge4_Node000004_Node000005" class="edge">
<title>Node4&#45;&gt;Node5</title>
<g id="a_edge4_Node000004_Node000005"><a xlink:title=" ">
<path fill="none" stroke="#63b8ff" d="M586.12,-171.9C563.15,-172.01 536.34,-172.14 511.78,-172.26"/>
<polygon fill="#63b8ff" stroke="#63b8ff" points="586.08,-175.4 596.07,-171.85 586.05,-168.4 586.08,-175.4"/>
</a>
</g>
</g>
<!-- Node4&#45;&gt;Node92 -->
<g id="edge7_Node000004_Node000092" class="edge">
<title>Node4&#45;&gt;Node92</title>
<g id="a_edge7_Node000004_Node000092"><a xlink:title=" ">
<path fill="none" stroke="#63b8ff" d="M586.58,-161.5C557.28,-156.27 521.65,-149.92 492.39,-144.7"/>
<polygon fill="#63b8ff" stroke="#63b8ff" points="585.61,-165.06 596.07,-163.37 586.84,-158.17 585.61,-165.06"/>
</a>
</g>
</g>
<!-- Node6 -->
<g id="Node000006" class="node">
<title>Node6</title>
<g id="a_Node000006"><a xlink:href="../../d5/d0a/imgui__demo_8cpp.html#aa9e4f5130b74080ea2d97916a91b3b3c" target="_top" xlink:title=" ">
<polygon fill="white" stroke="#666666" points="319.62,-185.25 173.12,-185.25 173.12,-166 319.62,-166 319.62,-185.25"/>
<text text-anchor="middle" x="246.38" y="-171.75" font-family="Helvetica,sans-Serif" font-size="10.00">ShowExampleAppDocuments</text>
</a>
</g>
</g>
<!-- Node5&#45;&gt;Node6 -->
<g id="edge5_Node000005_Node000006" class="edge">
<title>Node5&#45;&gt;Node6</title>
<g id="a_edge5_Node000005_Node000006"><a xlink:title=" ">
<path fill="none" stroke="#63b8ff" d="M347.3,-174.02C338.12,-174.17 328.85,-174.31 319.85,-174.46"/>
<polygon fill="#63b8ff" stroke="#63b8ff" points="347.08,-177.51 357.02,-173.85 346.96,-170.51 347.08,-177.51"/>
</a>
</g>
</g>
<!-- Node7 -->
<g id="Node000007" class="node">
<title>Node7</title>
<g id="a_Node000007"><a xlink:href="../../df/d13/namespace_im_gui.html#af95643a0ce4893b9e57c12991922fb18" target="_top" xlink:title=" ">
<polygon fill="#fff0f0" stroke="red" points="134.5,-269.25 0,-269.25 0,-250 134.5,-250 134.5,-269.25"/>
<text text-anchor="middle" x="67.25" y="-255.75" font-family="Helvetica,sans-Serif" font-size="10.00">ImGui::ShowDemoWindow</text>
</a>
</g>
</g>
<!-- Node6&#45;&gt;Node7 -->
<g id="edge6_Node000006_Node000007" class="edge">
<title>Node6&#45;&gt;Node7</title>
<g id="a_edge6_Node000006_Node000007"><a xlink:title=" ">
<path fill="none" stroke="#63b8ff" d="M200.35,-189.02C190.37,-192.44 179.96,-196.37 170.5,-200.62 138.17,-215.17 102.84,-237 83.33,-249.63"/>
<polygon fill="#63b8ff" stroke="#63b8ff" points="201.13,-192.12 209.53,-185.65 198.93,-185.48 201.13,-192.12"/>
</a>
</g>
</g>
<!-- Node92&#45;&gt;Node7 -->
<g id="edge8_Node000092_Node000007" class="edge">
<title>Node92&#45;&gt;Node7</title>
<g id="a_edge8_Node000092_Node000007"><a xlink:title=" ">
<path fill="none" stroke="#63b8ff" d="M354.44,-127.3C300.18,-125.56 227.99,-129.83 170.5,-156.62 125.05,-177.81 88.48,-228.3 74.44,-249.73"/>
<polygon fill="#63b8ff" stroke="#63b8ff" points="354.25,-130.83 364.38,-127.74 354.53,-123.84 354.25,-130.83"/>
</a>
</g>
</g>
<!-- Node94 -->
<g id="Node000094" class="node">
<title>Node94</title>
<g id="a_Node000094"><a xlink:href="../../df/d70/classigl_1_1opengl_1_1glfw_1_1imgui_1_1_im_gui_menu.html#a07a6c823c741006fe00da39efd60b5e3" target="_top" xlink:title=" ">
<polygon fill="white" stroke="#666666" points="496.12,-279.5 373.62,-279.5 373.62,-237.75 496.12,-237.75 496.12,-279.5"/>
<text text-anchor="start" x="381.62" y="-266" font-family="Helvetica,sans-Serif" font-size="10.00">igl::opengl::glfw::</text>
<text text-anchor="start" x="381.62" y="-254.75" font-family="Helvetica,sans-Serif" font-size="10.00">imgui::ImGuiMenu::draw</text>
<text text-anchor="middle" x="434.88" y="-243.5" font-family="Helvetica,sans-Serif" font-size="10.00">_viewer_window</text>
</a>
</g>
</g>
<!-- Node93&#45;&gt;Node94 -->
<g id="edge11_Node000093_Node000094" class="edge">
<title>Node93&#45;&gt;Node94</title>
<g id="a_edge11_Node000093_Node000094"><a xlink:title=" ">
<path fill="none" stroke="#63b8ff" d="M572.08,-258.62C547.49,-258.62 520.19,-258.62 496.53,-258.62"/>
<polygon fill="#63b8ff" stroke="#63b8ff" points="571.8,-262.13 581.8,-258.62 571.8,-255.13 571.8,-262.13"/>
</a>
</g>
</g>
<!-- Node95 -->
<g id="Node000095" class="node">
<title>Node95</title>
<g id="a_Node000095"><a xlink:href="../../df/d70/classigl_1_1opengl_1_1glfw_1_1imgui_1_1_im_gui_menu.html#a36b641e04232aecc23de9095e96ce609" target="_top" xlink:title=" ">
<polygon fill="#fff0f0" stroke="red" points="322.25,-273.88 170.5,-273.88 170.5,-243.38 322.25,-243.38 322.25,-273.88"/>
<text text-anchor="start" x="178.5" y="-260.38" font-family="Helvetica,sans-Serif" font-size="10.00">igl::opengl::glfw::</text>
<text text-anchor="middle" x="246.38" y="-249.12" font-family="Helvetica,sans-Serif" font-size="10.00">imgui::ImGuiMenu::draw_menu</text>
</a>
</g>
</g>
<!-- Node94&#45;&gt;Node95 -->
<g id="edge12_Node000094_Node000095" class="edge">
<title>Node94&#45;&gt;Node95</title>
<g id="a_edge12_Node000094_Node000095"><a xlink:title=" ">
<path fill="none" stroke="#63b8ff" d="M362.52,-258.62C349.47,-258.62 335.8,-258.62 322.64,-258.62"/>
<polygon fill="#63b8ff" stroke="#63b8ff" points="362.32,-262.13 372.32,-258.62 362.32,-255.13 362.32,-262.13"/>
</a>
</g>
</g>
<!-- Node98&#45;&gt;Node7 -->
<g id="edge15_Node000098_Node000007" class="edge">
<title>Node98&#45;&gt;Node7</title>
<g id="a_edge15_Node000098_Node000007"><a xlink:title=" ">
<path fill="none" stroke="#63b8ff" d="M194.98,-291.82C167.35,-284.8 133.59,-276.23 107.87,-269.69"/>
<polygon fill="#63b8ff" stroke="#63b8ff" points="194.07,-295.46 204.62,-294.53 195.79,-288.67 194.07,-295.46"/>
</a>
</g>
</g>
<!-- Node99&#45;&gt;Node7 -->
<g id="edge18_Node000099_Node000007" class="edge">
<title>Node99&#45;&gt;Node7</title>
<g id="a_edge18_Node000099_Node000007"><a xlink:title=" ">
<path fill="none" stroke="#63b8ff" d="M545.83,-355.27C448.43,-361.64 295.63,-362.73 170.5,-323.62 134.12,-312.26 97.79,-284.7 79.82,-269.73"/>
<polygon fill="#63b8ff" stroke="#63b8ff" points="545.81,-358.71 555.54,-354.53 545.33,-351.73 545.81,-358.71"/>
</a>
</g>
</g>
<!-- Node100&#45;&gt;Node7 -->
<g id="edge20_Node000100_Node000007" class="edge">
<title>Node100&#45;&gt;Node7</title>
<g id="a_edge20_Node000100_Node000007"><a xlink:title=" ">
<path fill="none" stroke="#63b8ff" d="M363.24,-213.54C310,-217.16 235.33,-223.68 170.5,-234.62 148.16,-238.4 123.47,-244.38 103.95,-249.55"/>
<polygon fill="#63b8ff" stroke="#63b8ff" points="363.18,-216.98 372.93,-212.83 362.72,-210 363.18,-216.98"/>
</a>
</g>
</g>
<!-- Node102&#45;&gt;Node2 -->
<g id="edge23_Node000102_Node000002" class="edge">
<title>Node102&#45;&gt;Node2</title>
<g id="a_edge23_Node000102_Node000002"><a xlink:title=" ">
<path fill="none" stroke="#63b8ff" d="M920.84,-220.67C946.16,-214.28 972.36,-206.82 989.94,-200.74"/>
<polygon fill="#63b8ff" stroke="#63b8ff" points="920.32,-217.45 911.45,-223.25 922,-224.24 920.32,-217.45"/>
</a>
</g>
</g>
<!-- Node103&#45;&gt;Node7 -->
<g id="edge26_Node000103_Node000007" class="edge">
<title>Node103&#45;&gt;Node7</title>
<g id="a_edge26_Node000103_Node000007"><a xlink:title=" ">
<path fill="none" stroke="#63b8ff" d="M935.35,-383.62C861.41,-383.62 745.66,-383.62 645.38,-383.62 645.38,-383.62 645.38,-383.62 433.88,-383.62 315.96,-383.62 277.84,-400.44 170.5,-351.62 128.11,-332.35 90.97,-289.06 75.68,-269.52"/>
<polygon fill="#63b8ff" stroke="#63b8ff" points="934.94,-387.13 944.94,-383.62 934.94,-380.13 934.94,-387.13"/>
</a>
</g>
</g>
</g>
</svg>

<g id="navigator" transform="translate(0 0)" fill="#404254">
  <rect fill="#f2f5e9" fill-opacity="0.5" stroke="#606060" stroke-width=".5" x="0" y="0" width="60" height="60"/>
  <use id="zoomplus" xlink:href="#zoomPlus" x="17" y="9" onmousedown="handleZoom(evt,'in')"/>
  <use id="zoomminus" xlink:href="#zoomMin" x="42" y="9" onmousedown="handleZoom(evt,'out')"/>
  <use id="reset" xlink:href="#resetDef" x="30" y="36" onmousedown="handleReset()"/>
   <use id="arrowup" xlink:href="#arrowUp" x="0" y="0" onmousedown="handlePan(0,-1)"/>
  <use id="arrowright" xlink:href="#arrowRight" x="0" y="0" onmousedown="handlePan(1,0)"/>
  <use id="arrowdown" xlink:href="#arrowDown" x="0" y="0" onmousedown="handlePan(0,1)"/>
  <use id="arrowleft" xlink:href="#arrowLeft" x="0" y="0" onmousedown="handlePan(-1,0)"/>
</g>
<svg viewBox="0 0 15 15" width="100%" height="30px" preserveAspectRatio="xMaxYMin meet">
 <g id="arrow_out" transform="scale(0.3 0.3)">
  <a xlink:href="namespace_im_gui_a1f61951b9d3a38083bd77b1dbe3ea895_icgraph_org.svg" target="_base">
   <rect id="button" ry="5" rx="5" y="6" x="6" height="38" width="38"
        fill="#f2f5e9" fill-opacity="0.5" stroke="#606060" stroke-width="1.0"/>
   <path id="arrow"
     d="M 11.500037,31.436501 C 11.940474,20.09759 22.043105,11.32322 32.158766,21.979434 L 37.068811,17.246167 C 37.068811,17.246167 37.088388,32 37.088388,32 L 22.160133,31.978069 C 22.160133,31.978069 26.997745,27.140456 26.997745,27.140456 C 18.528582,18.264221 13.291696,25.230495 11.500037,31.436501 z"
     style="fill:#404040;"/>
  </a>
 </g>
</svg>

<style type='text/css'>
<![CDATA[
[data-mouse-over-selected='false'] { opacity: 0.7; }
[data-mouse-over-selected='true']  { opacity: 1.0; }
]]>
</style>
<script type="application/ecmascript"><![CDATA[
document.addEventListener('DOMContentLoaded', (event) => {
  highlightEdges();
  highlightAdjacentNodes();
});
]]></script>
</svg>
