<?xml version="1.0" encoding="UTF-8" standalone="no"?>
<!DOCTYPE svg PUBLIC "-//W3C//DTD SVG 1.1//EN"
 "http://www.w3.org/Graphics/SVG/1.1/DTD/svg11.dtd">
<!-- Generated by graphviz version 8.0.5 (20230430.1635)
 -->
<!-- Title: ImGui::TreeAdvanceToLabelPos Pages: 1 -->
<svg width="532pt" height="131pt"
 viewBox="0.00 0.00 532.25 131.25" xmlns="http://www.w3.org/2000/svg" xmlns:xlink="http://www.w3.org/1999/xlink">
<g id="graph0" class="graph" transform="scale(1 1) rotate(0) translate(4 127.25)">
<title>ImGui::TreeAdvanceToLabelPos</title>
<!-- Node1 -->
<g id="Node000001" class="node">
<title>Node1</title>
<g id="a_Node000001"><a xlink:title=" ">
<polygon fill="#999999" stroke="#666666" points="157,-80.25 0,-80.25 0,-61 157,-61 157,-80.25"/>
<text text-anchor="middle" x="78.5" y="-66.75" font-family="Helvetica,sans-Serif" font-size="10.00">ImGui::TreeAdvanceToLabelPos</text>
</a>
</g>
</g>
<!-- Node1&#45;&gt;Node1 -->
<g id="edge7_Node000001_Node000001" class="edge">
<title>Node1&#45;&gt;Node1</title>
<g id="a_edge7_Node000001_Node000001"><a xlink:title=" ">
<path fill="none" stroke="#63b8ff" d="M49.58,-80.54C36.38,-89.15 46.02,-98.25 78.5,-98.25 98.29,-98.25 109.6,-94.87 112.43,-90.28"/>
<polygon fill="#63b8ff" stroke="#63b8ff" points="115.11,-88.83 107.42,-81.54 108.88,-92.03 115.11,-88.83"/>
</a>
</g>
</g>
<!-- Node2 -->
<g id="Node000002" class="node">
<title>Node2</title>
<g id="a_Node000002"><a xlink:href="../../df/d13/namespace_im_gui.html#a022e32c808ac899e25847f4d65633b77" target="_top" xlink:title=" ">
<polygon fill="white" stroke="#666666" points="321.88,-123.25 204.62,-123.25 204.62,-104 321.88,-104 321.88,-123.25"/>
<text text-anchor="middle" x="263.25" y="-109.75" font-family="Helvetica,sans-Serif" font-size="10.00">ImGui::GetCursorPosX</text>
</a>
</g>
</g>
<!-- Node1&#45;&gt;Node2 -->
<g id="edge1_Node000001_Node000002" class="edge">
<title>Node1&#45;&gt;Node2</title>
<g id="a_edge1_Node000001_Node000002"><a xlink:title=" ">
<path fill="none" stroke="#63b8ff" d="M122.35,-80.71C148.15,-86.78 181.21,-94.56 208.72,-101.03"/>
<polygon fill="#63b8ff" stroke="#63b8ff" points="207.82,-104.65 218.36,-103.53 209.42,-97.83 207.82,-104.65"/>
</a>
</g>
</g>
<!-- Node4 -->
<g id="Node000004" class="node">
<title>Node4</title>
<g id="a_Node000004"><a xlink:href="../../df/d13/namespace_im_gui.html#a5c89cb6b42296d0f7db75027efc0fb7a" target="_top" xlink:title=" ">
<polygon fill="white" stroke="#666666" points="333.5,-85.88 193,-85.88 193,-55.38 333.5,-55.38 333.5,-85.88"/>
<text text-anchor="start" x="201" y="-72.38" font-family="Helvetica,sans-Serif" font-size="10.00">ImGui::GetTreeNodeToLabel</text>
<text text-anchor="middle" x="263.25" y="-61.12" font-family="Helvetica,sans-Serif" font-size="10.00">Spacing</text>
</a>
</g>
</g>
<!-- Node1&#45;&gt;Node4 -->
<g id="edge3_Node000001_Node000004" class="edge">
<title>Node1&#45;&gt;Node4</title>
<g id="a_edge3_Node000001_Node000004"><a xlink:title=" ">
<path fill="none" stroke="#63b8ff" d="M157.27,-70.62C165.35,-70.62 173.58,-70.62 181.69,-70.62"/>
<polygon fill="#63b8ff" stroke="#63b8ff" points="181.65,-74.13 191.65,-70.62 181.65,-67.13 181.65,-74.13"/>
</a>
</g>
</g>
<!-- Node5 -->
<g id="Node000005" class="node">
<title>Node5</title>
<g id="a_Node000005"><a xlink:href="../../df/d13/namespace_im_gui.html#ae5e6e80ef23bb8df9cd5ac273be8aeb0" target="_top" xlink:title=" ">
<polygon fill="white" stroke="#666666" points="321.5,-37.25 205,-37.25 205,-18 321.5,-18 321.5,-37.25"/>
<text text-anchor="middle" x="263.25" y="-23.75" font-family="Helvetica,sans-Serif" font-size="10.00">ImGui::SetCursorPosX</text>
</a>
</g>
</g>
<!-- Node1&#45;&gt;Node5 -->
<g id="edge4_Node000001_Node000005" class="edge">
<title>Node1&#45;&gt;Node5</title>
<g id="a_edge4_Node000001_Node000005"><a xlink:title=" ">
<path fill="none" stroke="#63b8ff" d="M122.35,-60.54C148.15,-54.47 181.21,-46.69 208.72,-40.22"/>
<polygon fill="#63b8ff" stroke="#63b8ff" points="209.42,-43.42 218.36,-37.72 207.82,-36.6 209.42,-43.42"/>
</a>
</g>
</g>
<!-- Node3 -->
<g id="Node000003" class="node">
<title>Node3</title>
<g id="a_Node000003"><a xlink:href="../../df/d13/namespace_im_gui.html#a055af7d6b7b4ae977a9c3c25a98e0d2f" target="_top" xlink:title=" ">
<polygon fill="white" stroke="#666666" points="524.25,-123.25 369.5,-123.25 369.5,-104 524.25,-104 524.25,-123.25"/>
<text text-anchor="middle" x="446.88" y="-109.75" font-family="Helvetica,sans-Serif" font-size="10.00">ImGui::GetCurrentWindowRead</text>
</a>
</g>
</g>
<!-- Node2&#45;&gt;Node3 -->
<g id="edge2_Node000002_Node000003" class="edge">
<title>Node2&#45;&gt;Node3</title>
<g id="a_edge2_Node000002_Node000003"><a xlink:title=" ">
<path fill="none" stroke="#63b8ff" d="M322.22,-113.62C333.78,-113.62 346.16,-113.62 358.46,-113.62"/>
<polygon fill="#63b8ff" stroke="#63b8ff" points="358.23,-117.13 368.23,-113.62 358.23,-110.13 358.23,-117.13"/>
</a>
</g>
</g>
<!-- Node6 -->
<g id="Node000006" class="node">
<title>Node6</title>
<g id="a_Node000006"><a xlink:href="../../df/d13/namespace_im_gui.html#ac452417b5004ca16a814a72cff153526" target="_top" xlink:title=" ">
<polygon fill="white" stroke="#666666" points="512.62,-56.25 381.12,-56.25 381.12,-37 512.62,-37 512.62,-56.25"/>
<text text-anchor="middle" x="446.88" y="-42.75" font-family="Helvetica,sans-Serif" font-size="10.00">ImGui::GetCurrentWindow</text>
</a>
</g>
</g>
<!-- Node5&#45;&gt;Node6 -->
<g id="edge5_Node000005_Node000006" class="edge">
<title>Node5&#45;&gt;Node6</title>
<g id="a_edge5_Node000005_Node000006"><a xlink:title=" ">
<path fill="none" stroke="#63b8ff" d="M321.97,-33.66C337.3,-35.27 354.1,-37.02 370.24,-38.71"/>
<polygon fill="#63b8ff" stroke="#63b8ff" points="369.42,-42.25 379.73,-39.81 370.15,-35.29 369.42,-42.25"/>
</a>
</g>
</g>
<!-- Node7 -->
<g id="Node000007" class="node">
<title>Node7</title>
<g id="a_Node000007"><a xlink:href="../../d1/da2/imgui__internal_8h.html#a7667efd95147d0422f140917c71a9226" target="_top" xlink:title=" ">
<polygon fill="white" stroke="#666666" points="469.88,-19.25 423.88,-19.25 423.88,0 469.88,0 469.88,-19.25"/>
<text text-anchor="middle" x="446.88" y="-5.75" font-family="Helvetica,sans-Serif" font-size="10.00">ImMax</text>
</a>
</g>
</g>
<!-- Node5&#45;&gt;Node7 -->
<g id="edge6_Node000005_Node000007" class="edge">
<title>Node5&#45;&gt;Node7</title>
<g id="a_edge6_Node000005_Node000007"><a xlink:title=" ">
<path fill="none" stroke="#63b8ff" d="M321.97,-21.9C351.87,-18.94 387.32,-15.43 412.63,-12.92"/>
<polygon fill="#63b8ff" stroke="#63b8ff" points="412.88,-16.31 422.49,-11.84 412.19,-9.35 412.88,-16.31"/>
</a>
</g>
</g>
</g>
</svg>
