<?xml version="1.0" encoding="UTF-8" standalone="no"?>
<!DOCTYPE svg PUBLIC "-//W3C//DTD SVG 1.1//EN"
 "http://www.w3.org/Graphics/SVG/1.1/DTD/svg11.dtd">
<!-- Generated by graphviz version 8.0.5 (20230430.1635)
 -->
<!-- Title: ImGui::IsItemDeactivated Pages: 1 -->
<!--zoomable 1051 -->

<svg id="main" version="1.1" xmlns="http://www.w3.org/2000/svg" xmlns:xlink="http://www.w3.org/1999/xlink" xml:space="preserve" onload="init(evt)">
<style type="text/css"><![CDATA[
.node, .edge {opacity: 0.7;}
.node.selected, .edge.selected {opacity: 1;}
.edge:hover path { stroke: red; }
.edge:hover polygon { stroke: red; fill: red; }
]]></style>

<defs>
  <circle id="rim" cx="0" cy="0" r="7"/>
  <circle id="rim2" cx="0" cy="0" r="3.5"/>
  <g id="zoomPlus">
    <use xlink:href="#rim" fill="#404040"><set attributeName="fill" to="#808080" begin="zoomplus.mouseover" end="zoomplus.mouseout"/></use>
    <path d="M-4,0h8M0,-4v8" fill="none" stroke="white" stroke-width="1.5" pointer-events="none"/>
  </g>
  <g id="zoomMin">
    <use xlink:href="#rim" fill="#404040"><set attributeName="fill" to="#808080" begin="zoomminus.mouseover" end="zoomminus.mouseout"/></use>
    <path d="M-4,0h8" fill="none" stroke="white" stroke-width="1.5" pointer-events="none"/>
  </g>
  <g id="arrowUp" transform="translate(30 24)">
    <use xlink:href="#rim"/>
    <path pointer-events="none" fill="none" stroke="white" stroke-width="1.5" d="M0,-3.0v7 M-2.5,-0.5L0,-3.0L2.5,-0.5"/>
  </g>
  <g id="arrowRight" transform="rotate(90) translate(36 -43)">
    <use xlink:href="#rim"/>
    <path pointer-events="none" fill="none" stroke="white" stroke-width="1.5" d="M0,-3.0v7 M-2.5,-0.5L0,-3.0L2.5,-0.5"/>
  </g>
  <g id="arrowDown" transform="rotate(180) translate(-30 -48)">
    <use xlink:href="#rim"/>
    <path pointer-events="none" fill="none" stroke="white" stroke-width="1.5" d="M0,-3.0v7 M-2.5,-0.5L0,-3.0L2.5,-0.5"/>
  </g>
  <g id="arrowLeft" transform="rotate(270) translate(-36 17)">
    <use xlink:href="#rim"/>
    <path pointer-events="none" fill="none" stroke="white" stroke-width="1.5" d="M0,-3.0v7 M-2.5,-0.5L0,-3.0L2.5,-0.5"/>
  </g>
  <g id="resetDef">
    <use xlink:href="#rim2" fill="#404040"><set attributeName="fill" to="#808080" begin="reset.mouseover" end="reset.mouseout"/></use>
  </g>
</defs>
<script type="application/ecmascript">
var viewWidth = 1241;
var viewHeight = 1051;
var sectionId = 'dynsection-454';
</script>
<script type="application/ecmascript" xlink:href="../../svg.min.js"/>
<svg id="graph" class="graph">
<g id="viewport">
<title>ImGui::IsItemDeactivated</title>
<!-- Node1 -->
<g id="Node000001" class="node">
<title>Node1</title>
<g id="a_Node000001"><a xlink:title=" ">
<polygon fill="#999999" stroke="#666666" points="1233.25,-766.88 1104.75,-766.88 1104.75,-747.62 1233.25,-747.62 1233.25,-766.88"/>
<text text-anchor="middle" x="1169" y="-753.38" font-family="Helvetica,sans-Serif" font-size="10.00">ImGui::IsItemDeactivated</text>
</a>
</g>
</g>
<!-- Node2 -->
<g id="Node000002" class="node">
<title>Node2</title>
<g id="a_Node000002"><a xlink:href="../../df/d13/namespace_im_gui.html#a8bb4c0fc2b9d0e90249310bb4e822485" target="_top" xlink:title=" ">
<polygon fill="white" stroke="#666666" points="1067.62,-729.5 939.12,-729.5 939.12,-699 1067.62,-699 1067.62,-729.5"/>
<text text-anchor="start" x="947.12" y="-716" font-family="Helvetica,sans-Serif" font-size="10.00">ImGui::IsItemDeactivated</text>
<text text-anchor="middle" x="1003.38" y="-704.75" font-family="Helvetica,sans-Serif" font-size="10.00">AfterEdit</text>
</a>
</g>
</g>
<!-- Node1&#45;&gt;Node2 -->
<g id="edge1_Node000001_Node000002" class="edge">
<title>Node1&#45;&gt;Node2</title>
<g id="a_edge1_Node000001_Node000002"><a xlink:title=" ">
<path fill="none" stroke="#63b8ff" d="M1119.23,-744.43C1101.97,-739.9 1082.35,-734.74 1064.27,-729.99"/>
<polygon fill="#63b8ff" stroke="#63b8ff" points="1118.08,-748.01 1128.64,-747.17 1119.86,-741.24 1118.08,-748.01"/>
</a>
</g>
</g>
<!-- Node3 -->
<g id="Node000003" class="node">
<title>Node3</title>
<g id="a_Node000003"><a xlink:href="../../d5/d0a/imgui__demo_8cpp.html#af533fd0a774d6bbebe61e474db6f144f" target="_top" xlink:title=" ">
<polygon fill="white" stroke="#666666" points="902,-766.88 763.75,-766.88 763.75,-747.62 902,-747.62 902,-766.88"/>
<text text-anchor="middle" x="832.88" y="-753.38" font-family="Helvetica,sans-Serif" font-size="10.00">ShowDemoWindowWidgets</text>
</a>
</g>
</g>
<!-- Node1&#45;&gt;Node3 -->
<g id="edge43_Node000001_Node000003" class="edge">
<title>Node1&#45;&gt;Node3</title>
<g id="a_edge43_Node000001_Node000003"><a xlink:title=" ">
<path fill="none" stroke="#63b8ff" d="M1093.59,-757.25C1036.43,-757.25 958.1,-757.25 902.45,-757.25"/>
<polygon fill="#63b8ff" stroke="#63b8ff" points="1093.37,-760.75 1103.37,-757.25 1093.37,-753.75 1093.37,-760.75"/>
</a>
</g>
</g>
<!-- Node113 -->
<g id="Node000113" class="node">
<title>Node113</title>
<g id="a_Node000113"><a xlink:href="../../d5/d0a/imgui__demo_8cpp.html#a1de6150f52a967e73750eb642ec025fe" target="_top" xlink:title=" ">
<polygon fill="white" stroke="#666666" points="1068.75,-804.88 938,-804.88 938,-785.62 1068.75,-785.62 1068.75,-804.88"/>
<text text-anchor="middle" x="1003.38" y="-791.38" font-family="Helvetica,sans-Serif" font-size="10.00">ShowDemoWindowTables</text>
</a>
</g>
</g>
<!-- Node1&#45;&gt;Node113 -->
<g id="edge41_Node000001_Node000113" class="edge">
<title>Node1&#45;&gt;Node113</title>
<g id="a_edge41_Node000001_Node000113"><a xlink:title=" ">
<path fill="none" stroke="#63b8ff" d="M1113.96,-769.8C1092.45,-774.8 1068.03,-780.47 1047.71,-785.19"/>
<polygon fill="#63b8ff" stroke="#63b8ff" points="1114.63,-773.01 1123.58,-767.33 1113.05,-766.19 1114.63,-773.01"/>
</a>
</g>
</g>
<!-- Node2&#45;&gt;Node3 -->
<g id="edge2_Node000002_Node000003" class="edge">
<title>Node2&#45;&gt;Node3</title>
<g id="a_edge2_Node000002_Node000003"><a xlink:title=" ">
<path fill="none" stroke="#63b8ff" d="M930.6,-732.57C910.99,-737.57 890.45,-742.81 873.37,-747.17"/>
<polygon fill="#63b8ff" stroke="#63b8ff" points="931.24,-735.76 940.07,-729.9 929.51,-728.98 931.24,-735.76"/>
</a>
</g>
</g>
<!-- Node89 -->
<g id="Node000089" class="node">
<title>Node89</title>
<g id="a_Node000089"><a xlink:href="../../d6/d97/class_slic3r_1_1_g_u_i_1_1_im_gui_wrapper.html#a765b56ab8a115f258f8d5c7d509a7147" target="_top" xlink:title=" ">
<polygon fill="white" stroke="#666666" points="899.38,-427.5 766.38,-427.5 766.38,-397 899.38,-397 899.38,-427.5"/>
<text text-anchor="start" x="774.38" y="-414" font-family="Helvetica,sans-Serif" font-size="10.00">Slic3r::GUI::ImGuiWrapper</text>
<text text-anchor="middle" x="832.88" y="-402.75" font-family="Helvetica,sans-Serif" font-size="10.00">::slider_float</text>
</a>
</g>
</g>
<!-- Node2&#45;&gt;Node89 -->
<g id="edge17_Node000002_Node000089" class="edge">
<title>Node2&#45;&gt;Node89</title>
<g id="a_edge17_Node000002_Node000089"><a xlink:title=" ">
<path fill="none" stroke="#63b8ff" d="M988.5,-689.38C954.95,-629.25 870.17,-477.29 842.65,-427.97"/>
<polygon fill="#63b8ff" stroke="#63b8ff" points="985.86,-690.83 993.79,-697.86 991.97,-687.42 985.86,-690.83"/>
</a>
</g>
</g>
<!-- Node4 -->
<g id="Node000004" class="node">
<title>Node4</title>
<g id="a_Node000004"><a xlink:href="../../df/d13/namespace_im_gui.html#af95643a0ce4893b9e57c12991922fb18" target="_top" xlink:title=" ">
<polygon fill="white" stroke="#666666" points="698.12,-804.88 563.62,-804.88 563.62,-785.62 698.12,-785.62 698.12,-804.88"/>
<text text-anchor="middle" x="630.88" y="-791.38" font-family="Helvetica,sans-Serif" font-size="10.00">ImGui::ShowDemoWindow</text>
</a>
</g>
</g>
<!-- Node3&#45;&gt;Node4 -->
<g id="edge3_Node000003_Node000004" class="edge">
<title>Node3&#45;&gt;Node4</title>
<g id="a_edge3_Node000003_Node000004"><a xlink:title=" ">
<path fill="none" stroke="#63b8ff" d="M768.33,-769.32C741.44,-774.43 710.48,-780.32 684.85,-785.19"/>
<polygon fill="#63b8ff" stroke="#63b8ff" points="768.63,-772.64 777.8,-767.33 767.33,-765.76 768.63,-772.64"/>
</a>
</g>
</g>
<!-- Node5 -->
<g id="Node000005" class="node">
<title>Node5</title>
<g id="a_Node000005"><a xlink:href="../../d0/d2b/class_slic3r_1_1_g_u_i_1_1_g_l_canvas3_d.html#add406e3833c98885119bc504231c90f8" target="_top" xlink:title=" ">
<polygon fill="white" stroke="#666666" points="489,-811.5 359,-811.5 359,-781 489,-781 489,-811.5"/>
<text text-anchor="start" x="367" y="-798" font-family="Helvetica,sans-Serif" font-size="10.00">Slic3r::GUI::GLCanvas3D</text>
<text text-anchor="middle" x="424" y="-786.75" font-family="Helvetica,sans-Serif" font-size="10.00">::render</text>
</a>
</g>
</g>
<!-- Node4&#45;&gt;Node5 -->
<g id="edge4_Node000004_Node000005" class="edge">
<title>Node4&#45;&gt;Node5</title>
<g id="a_edge4_Node000004_Node000005"><a xlink:title=" ">
<path fill="none" stroke="#63b8ff" d="M552.62,-795.63C531.79,-795.73 509.48,-795.84 489.44,-795.94"/>
<polygon fill="#63b8ff" stroke="#63b8ff" points="552.38,-799.12 562.36,-795.57 552.34,-792.12 552.38,-799.12"/>
</a>
</g>
</g>
<!-- Node6 -->
<g id="Node000006" class="node">
<title>Node6</title>
<g id="a_Node000006"><a xlink:href="../../d0/d2b/class_slic3r_1_1_g_u_i_1_1_g_l_canvas3_d.html#a6379e5a8883b2a7c10e897ad357a6c6f" target="_top" xlink:title=" ">
<polygon fill="#fff0f0" stroke="red" points="305,-934.12 175,-934.12 175,-892.38 305,-892.38 305,-934.12"/>
<text text-anchor="start" x="183" y="-920.62" font-family="Helvetica,sans-Serif" font-size="10.00">Slic3r::GUI::GLCanvas3D</text>
<text text-anchor="start" x="183" y="-909.38" font-family="Helvetica,sans-Serif" font-size="10.00">::_refresh_if_shown_on</text>
<text text-anchor="middle" x="240" y="-898.12" font-family="Helvetica,sans-Serif" font-size="10.00">_screen</text>
</a>
</g>
</g>
<!-- Node5&#45;&gt;Node6 -->
<g id="edge5_Node000005_Node000006" class="edge">
<title>Node5&#45;&gt;Node6</title>
<g id="a_edge5_Node000005_Node000006"><a xlink:title=" ">
<path fill="none" stroke="#63b8ff" d="M396.24,-818.75C374.8,-836.18 343.53,-860.31 314,-878.25 306.07,-883.07 297.38,-887.73 288.85,-891.99"/>
<polygon fill="#63b8ff" stroke="#63b8ff" points="398,-821.01 403.51,-811.96 393.56,-815.6 398,-821.01"/>
</a>
</g>
</g>
<!-- Node10 -->
<g id="Node000010" class="node">
<title>Node10</title>
<g id="a_Node000010"><a xlink:href="../../d0/d2b/class_slic3r_1_1_g_u_i_1_1_g_l_canvas3_d.html#a15fc8ce385048544064e6e434e09de23" target="_top" xlink:title=" ">
<polygon fill="#fff0f0" stroke="red" points="130,-903.5 0,-903.5 0,-873 130,-873 130,-903.5"/>
<text text-anchor="start" x="8" y="-890" font-family="Helvetica,sans-Serif" font-size="10.00">Slic3r::GUI::GLCanvas3D</text>
<text text-anchor="middle" x="65" y="-878.75" font-family="Helvetica,sans-Serif" font-size="10.00">::on_mouse</text>
</a>
</g>
</g>
<!-- Node5&#45;&gt;Node10 -->
<g id="edge12_Node000005_Node000010" class="edge">
<title>Node5&#45;&gt;Node10</title>
<g id="a_edge12_Node000005_Node000010"><a xlink:title=" ">
<path fill="none" stroke="#63b8ff" d="M383.87,-816.72C363.51,-826.62 337.93,-837.92 314,-845.25 253.1,-863.89 181.16,-875.25 130.49,-881.57"/>
<polygon fill="#63b8ff" stroke="#63b8ff" points="385.3,-819.42 392.71,-811.85 382.19,-813.15 385.3,-819.42"/>
</a>
</g>
</g>
<!-- Node13 -->
<g id="Node000013" class="node">
<title>Node13</title>
<g id="a_Node000013"><a xlink:href="../../d3/dff/class_slic3r_1_1_g_u_i_1_1_g_l_toolbar.html#af834580a75dbef27b91354ddc49efb8c" target="_top" xlink:title=" ">
<polygon fill="#fff0f0" stroke="red" points="297.5,-836.5 182.5,-836.5 182.5,-806 297.5,-806 297.5,-836.5"/>
<text text-anchor="start" x="190.5" y="-823" font-family="Helvetica,sans-Serif" font-size="10.00">Slic3r::GUI::GLToolbar</text>
<text text-anchor="middle" x="240" y="-811.75" font-family="Helvetica,sans-Serif" font-size="10.00">::do_action</text>
</a>
</g>
</g>
<!-- Node5&#45;&gt;Node13 -->
<g id="edge8_Node000005_Node000013" class="edge">
<title>Node5&#45;&gt;Node13</title>
<g id="a_edge8_Node000005_Node000013"><a xlink:title=" ">
<path fill="none" stroke="#63b8ff" d="M347.73,-806.59C331.02,-808.88 313.59,-811.28 297.77,-813.45"/>
<polygon fill="#63b8ff" stroke="#63b8ff" points="348.15,-809.93 357.58,-805.1 347.19,-802.99 348.15,-809.93"/>
</a>
</g>
</g>
<!-- Node33 -->
<g id="Node000033" class="node">
<title>Node33</title>
<g id="a_Node000033"><a xlink:href="../../d0/d2b/class_slic3r_1_1_g_u_i_1_1_g_l_canvas3_d.html#a8f7ad08978b57363cc286b3ba55dbe52" target="_top" xlink:title=" ">
<polygon fill="#fff0f0" stroke="red" points="305,-787.5 175,-787.5 175,-757 305,-757 305,-787.5"/>
<text text-anchor="start" x="183" y="-774" font-family="Helvetica,sans-Serif" font-size="10.00">Slic3r::GUI::GLCanvas3D</text>
<text text-anchor="middle" x="240" y="-762.75" font-family="Helvetica,sans-Serif" font-size="10.00">::on_char</text>
</a>
</g>
</g>
<!-- Node5&#45;&gt;Node33 -->
<g id="edge9_Node000005_Node000033" class="edge">
<title>Node5&#45;&gt;Node33</title>
<g id="a_edge9_Node000005_Node000033"><a xlink:title=" ">
<path fill="none" stroke="#63b8ff" d="M347.9,-786.35C333.76,-784.48 319.1,-782.55 305.34,-780.73"/>
<polygon fill="#63b8ff" stroke="#63b8ff" points="347.21,-789.92 357.58,-787.75 348.12,-782.98 347.21,-789.92"/>
</a>
</g>
</g>
<!-- Node39 -->
<g id="Node000039" class="node">
<title>Node39</title>
<g id="a_Node000039"><a xlink:href="../../d0/d2b/class_slic3r_1_1_g_u_i_1_1_g_l_canvas3_d.html#aa811f0a583e17a1b5102893f9ef44d53" target="_top" xlink:title=" ">
<polygon fill="#fff0f0" stroke="red" points="305,-738.5 175,-738.5 175,-708 305,-708 305,-738.5"/>
<text text-anchor="start" x="183" y="-725" font-family="Helvetica,sans-Serif" font-size="10.00">Slic3r::GUI::GLCanvas3D</text>
<text text-anchor="middle" x="240" y="-713.75" font-family="Helvetica,sans-Serif" font-size="10.00">::on_key</text>
</a>
</g>
</g>
<!-- Node5&#45;&gt;Node39 -->
<g id="edge10_Node000005_Node000039" class="edge">
<title>Node5&#45;&gt;Node39</title>
<g id="a_edge10_Node000005_Node000039"><a xlink:title=" ">
<path fill="none" stroke="#63b8ff" d="M361.9,-776.56C357.83,-774.87 353.83,-773.1 350,-771.25 332.9,-763 331.1,-756.5 314,-748.25 307,-744.88 299.43,-741.75 291.9,-738.93"/>
<polygon fill="#63b8ff" stroke="#63b8ff" points="360.52,-780.17 371.1,-780.57 363.08,-773.65 360.52,-780.17"/>
</a>
</g>
</g>
<!-- Node40 -->
<g id="Node000040" class="node">
<title>Node40</title>
<g id="a_Node000040"><a xlink:href="../../de/db8/class_slic3r_1_1_g_u_i_1_1_preview.html#a4797cc8c745053fac39d56d6de6b0e75" target="_top" xlink:title=" ">
<polygon fill="#fff0f0" stroke="red" points="300.5,-690.12 179.5,-690.12 179.5,-648.38 300.5,-648.38 300.5,-690.12"/>
<text text-anchor="start" x="187.5" y="-676.62" font-family="Helvetica,sans-Serif" font-size="10.00">Slic3r::GUI::Preview</text>
<text text-anchor="start" x="187.5" y="-665.38" font-family="Helvetica,sans-Serif" font-size="10.00">::on_layers_slider_scroll</text>
<text text-anchor="middle" x="240" y="-654.12" font-family="Helvetica,sans-Serif" font-size="10.00">_changed</text>
</a>
</g>
</g>
<!-- Node5&#45;&gt;Node40 -->
<g id="edge11_Node000005_Node000040" class="edge">
<title>Node5&#45;&gt;Node40</title>
<g id="a_edge11_Node000005_Node000040"><a xlink:title=" ">
<path fill="none" stroke="#63b8ff" d="M354.45,-774.8C352.91,-773.67 351.42,-772.49 350,-771.25 323.07,-747.7 340.21,-723.6 314,-699.25 310.08,-695.61 305.67,-692.39 300.99,-689.53"/>
<polygon fill="#63b8ff" stroke="#63b8ff" points="352.43,-778.29 362.77,-780.62 356.14,-772.35 352.43,-778.29"/>
</a>
</g>
</g>
<!-- Node44 -->
<g id="Node000044" class="node">
<title>Node44</title>
<g id="a_Node000044"><a xlink:href="../../de/db8/class_slic3r_1_1_g_u_i_1_1_preview.html#a891645da8fe82a25b780b2c714b62fe5" target="_top" xlink:title=" ">
<polygon fill="#fff0f0" stroke="red" points="302,-630.12 178,-630.12 178,-588.38 302,-588.38 302,-630.12"/>
<text text-anchor="start" x="186" y="-616.62" font-family="Helvetica,sans-Serif" font-size="10.00">Slic3r::GUI::Preview</text>
<text text-anchor="start" x="186" y="-605.38" font-family="Helvetica,sans-Serif" font-size="10.00">::on_moves_slider_scroll</text>
<text text-anchor="middle" x="240" y="-594.12" font-family="Helvetica,sans-Serif" font-size="10.00">_changed</text>
</a>
</g>
</g>
<!-- Node5&#45;&gt;Node44 -->
<g id="edge13_Node000005_Node000044" class="edge">
<title>Node5&#45;&gt;Node44</title>
<g id="a_edge13_Node000005_Node000044"><a xlink:title=" ">
<path fill="none" stroke="#63b8ff" d="M352.99,-774.18C351.95,-773.24 350.95,-772.27 350,-771.25 308.39,-726.9 354.26,-684.82 314,-639.25 310.64,-635.45 306.73,-632.12 302.5,-629.21"/>
<polygon fill="#63b8ff" stroke="#63b8ff" points="350.47,-777.42 360.58,-780.6 354.67,-771.81 350.47,-777.42"/>
</a>
</g>
</g>
<!-- Node48 -->
<g id="Node000048" class="node">
<title>Node48</title>
<g id="a_Node000048"><a xlink:href="../../d0/d2b/class_slic3r_1_1_g_u_i_1_1_g_l_canvas3_d.html#a69e6747e3c01be9c51634d8de0ae0561" target="_top" xlink:title=" ">
<polygon fill="#fff0f0" stroke="red" points="305,-570.5 175,-570.5 175,-540 305,-540 305,-570.5"/>
<text text-anchor="start" x="183" y="-557" font-family="Helvetica,sans-Serif" font-size="10.00">Slic3r::GUI::GLCanvas3D</text>
<text text-anchor="middle" x="240" y="-545.75" font-family="Helvetica,sans-Serif" font-size="10.00">::on_paint</text>
</a>
</g>
</g>
<!-- Node5&#45;&gt;Node48 -->
<g id="edge14_Node000005_Node000048" class="edge">
<title>Node5&#45;&gt;Node48</title>
<g id="a_edge14_Node000005_Node000048"><a xlink:title=" ">
<path fill="none" stroke="#63b8ff" d="M352.47,-773.89C351.61,-773.04 350.79,-772.16 350,-771.25 293.2,-705.58 371.2,-644.56 314,-579.25 311.19,-576.04 307.94,-573.25 304.4,-570.84"/>
<polygon fill="#63b8ff" stroke="#63b8ff" points="349.93,-777.14 359.91,-780.68 354.31,-771.68 349.93,-777.14"/>
</a>
</g>
</g>
<!-- Node49 -->
<g id="Node000049" class="node">
<title>Node49</title>
<g id="a_Node000049"><a xlink:href="../../d3/d17/class_slic3r_1_1_g_u_i_1_1_main_frame.html#ac6cfd7902e28bed551378b82b357c61d" target="_top" xlink:title=" ">
<polygon fill="white" stroke="#666666" points="299.75,-1042.5 180.25,-1042.5 180.25,-1012 299.75,-1012 299.75,-1042.5"/>
<text text-anchor="start" x="188.25" y="-1029" font-family="Helvetica,sans-Serif" font-size="10.00">Slic3r::GUI::MainFrame</text>
<text text-anchor="middle" x="240" y="-1017.75" font-family="Helvetica,sans-Serif" font-size="10.00">::select_tab</text>
</a>
</g>
</g>
<!-- Node5&#45;&gt;Node49 -->
<g id="edge15_Node000005_Node000049" class="edge">
<title>Node5&#45;&gt;Node49</title>
<g id="a_edge15_Node000005_Node000049"><a xlink:title=" ">
<path fill="none" stroke="#63b8ff" d="M416.29,-822.11C403.65,-865.74 372.2,-954.04 314,-1003.25 309.82,-1006.78 305.11,-1009.8 300.14,-1012.37"/>
<polygon fill="#63b8ff" stroke="#63b8ff" points="419.85,-823.35 419.17,-812.78 413.11,-821.47 419.85,-823.35"/>
</a>
</g>
</g>
<!-- Node50 -->
<g id="Node000050" class="node">
<title>Node50</title>
<g id="a_Node000050"><a xlink:href="../../dd/d03/class_slic3r_1_1_g_u_i_1_1_object_list.html#ac636f6074e9b2ddf725c1be145794ee1" target="_top" xlink:title=" ">
<polygon fill="#fff0f0" stroke="red" points="298.25,-994.12 181.75,-994.12 181.75,-952.38 298.25,-952.38 298.25,-994.12"/>
<text text-anchor="start" x="189.75" y="-980.62" font-family="Helvetica,sans-Serif" font-size="10.00">Slic3r::GUI::ObjectList</text>
<text text-anchor="start" x="189.75" y="-969.38" font-family="Helvetica,sans-Serif" font-size="10.00">::update_selections_on</text>
<text text-anchor="middle" x="240" y="-958.12" font-family="Helvetica,sans-Serif" font-size="10.00">_canvas</text>
</a>
</g>
</g>
<!-- Node5&#45;&gt;Node50 -->
<g id="edge16_Node000005_Node000050" class="edge">
<title>Node5&#45;&gt;Node50</title>
<g id="a_edge16_Node000005_Node000050"><a xlink:title=" ">
<path fill="none" stroke="#63b8ff" d="M410.09,-821.3C392.36,-853.49 357.67,-909.27 314,-943.25 309.24,-946.95 303.96,-950.27 298.48,-953.22"/>
<polygon fill="#63b8ff" stroke="#63b8ff" points="413.58,-823.2 415.24,-812.73 407.42,-819.88 413.58,-823.2"/>
</a>
</g>
</g>
<!-- Node6&#45;&gt;Node10 -->
<g id="edge6_Node000006_Node000010" class="edge">
<title>Node6&#45;&gt;Node10</title>
<g id="a_edge6_Node000006_Node000010"><a xlink:title=" ">
<path fill="none" stroke="#63b8ff" d="M163.98,-902.41C152.82,-900.8 141.39,-899.15 130.47,-897.57"/>
<polygon fill="#63b8ff" stroke="#63b8ff" points="163.18,-905.97 173.58,-903.94 164.18,-899.05 163.18,-905.97"/>
</a>
</g>
</g>
<!-- Node10&#45;&gt;Node10 -->
<g id="edge7_Node000010_Node000010" class="edge">
<title>Node10&#45;&gt;Node10</title>
<g id="a_edge7_Node000010_Node000010"><a xlink:title=" ">
<path fill="none" stroke="#63b8ff" d="M94.75,-914.88C90.1,-918.83 80.19,-921.5 65,-921.5 38,-921.5 27.66,-913.06 33.99,-903.99"/>
<polygon fill="#63b8ff" stroke="#63b8ff" points="98.33,-915.32 96.01,-904.99 91.38,-914.52 98.33,-915.32"/>
</a>
</g>
</g>
<!-- Node90 -->
<g id="Node000090" class="node">
<title>Node90</title>
<g id="a_Node000090"><a xlink:href="../../d0/d2b/class_slic3r_1_1_g_u_i_1_1_g_l_canvas3_d.html#aa65315ce1853843608c71d98e4face96" target="_top" xlink:title=" ">
<polygon fill="white" stroke="#666666" points="695.88,-764.5 565.88,-764.5 565.88,-734 695.88,-734 695.88,-764.5"/>
<text text-anchor="start" x="573.88" y="-751" font-family="Helvetica,sans-Serif" font-size="10.00">Slic3r::GUI::GLCanvas3D</text>
<text text-anchor="middle" x="630.88" y="-739.75" font-family="Helvetica,sans-Serif" font-size="10.00">::_render_arrange_menu</text>
</a>
</g>
</g>
<!-- Node89&#45;&gt;Node90 -->
<g id="edge18_Node000089_Node000090" class="edge">
<title>Node89&#45;&gt;Node90</title>
<g id="a_edge18_Node000089_Node000090"><a xlink:title=" ">
<path fill="none" stroke="#63b8ff" d="M831.11,-438.75C827.9,-498.78 811.43,-646 727.75,-724.25 718.96,-732.47 707.8,-738.07 696.24,-741.86"/>
<polygon fill="#63b8ff" stroke="#63b8ff" points="834.65,-439.09 831.59,-428.95 827.65,-438.78 834.65,-439.09"/>
</a>
</g>
</g>
<!-- Node91 -->
<g id="Node000091" class="node">
<title>Node91</title>
<g id="a_Node000091"><a xlink:href="../../d7/ddf/class_slic3r_1_1_g_u_i_1_1_g_l_gizmo_fdm_supports.html#a5b0f76f34a6583ae976549f1a86f99a5" target="_top" xlink:title=" ">
<polygon fill="white" stroke="#666666" points="716.12,-715.5 545.62,-715.5 545.62,-685 716.12,-685 716.12,-715.5"/>
<text text-anchor="start" x="553.62" y="-702" font-family="Helvetica,sans-Serif" font-size="10.00">Slic3r::GUI::GLGizmoFdmSupports</text>
<text text-anchor="middle" x="630.88" y="-690.75" font-family="Helvetica,sans-Serif" font-size="10.00">::on_render_input_window</text>
</a>
</g>
</g>
<!-- Node89&#45;&gt;Node91 -->
<g id="edge20_Node000089_Node000091" class="edge">
<title>Node89&#45;&gt;Node91</title>
<g id="a_edge20_Node000089_Node000091"><a xlink:title=" ">
<path fill="none" stroke="#63b8ff" d="M829.24,-438.55C822.5,-491.55 799.72,-611.56 727.75,-675.25 723.63,-678.9 719.04,-682.02 714.16,-684.7"/>
<polygon fill="#63b8ff" stroke="#63b8ff" points="832.82,-439.07 830.51,-428.73 825.87,-438.25 832.82,-439.07"/>
</a>
</g>
</g>
<!-- Node92 -->
<g id="Node000092" class="node">
<title>Node92</title>
<g id="a_Node000092"><a xlink:href="../../da/d2c/class_slic3r_1_1_g_u_i_1_1_g_l_gizmo_hollow.html#ac1b0eb7160e2dc63c7ed1a23b4fe5ff7" target="_top" xlink:title=" ">
<polygon fill="white" stroke="#666666" points="701.88,-666.5 559.88,-666.5 559.88,-636 701.88,-636 701.88,-666.5"/>
<text text-anchor="start" x="567.88" y="-653" font-family="Helvetica,sans-Serif" font-size="10.00">Slic3r::GUI::GLGizmoHollow</text>
<text text-anchor="middle" x="630.88" y="-641.75" font-family="Helvetica,sans-Serif" font-size="10.00">::on_render_input_window</text>
</a>
</g>
</g>
<!-- Node89&#45;&gt;Node92 -->
<g id="edge21_Node000089_Node000092" class="edge">
<title>Node89&#45;&gt;Node92</title>
<g id="a_edge21_Node000089_Node000092"><a xlink:title=" ">
<path fill="none" stroke="#63b8ff" d="M826.55,-438.68C816,-484.11 788.02,-576.86 727.75,-626.25 720.3,-632.36 711.52,-636.99 702.35,-640.5"/>
<polygon fill="#63b8ff" stroke="#63b8ff" points="830.18,-439.47 828.92,-428.95 823.35,-437.96 830.18,-439.47"/>
</a>
</g>
</g>
<!-- Node93 -->
<g id="Node000093" class="node">
<title>Node93</title>
<g id="a_Node000093"><a xlink:href="../../d9/d6f/class_slic3r_1_1_g_u_i_1_1_g_l_gizmo_mmu_segmentation.html#aec1aa2f87573fd0204cb10165154b3cf" target="_top" xlink:title=" ">
<polygon fill="white" stroke="#666666" points="727.75,-617.5 534,-617.5 534,-587 727.75,-587 727.75,-617.5"/>
<text text-anchor="start" x="542" y="-604" font-family="Helvetica,sans-Serif" font-size="10.00">Slic3r::GUI::GLGizmoMmuSegmentation</text>
<text text-anchor="middle" x="630.88" y="-592.75" font-family="Helvetica,sans-Serif" font-size="10.00">::on_render_input_window</text>
</a>
</g>
</g>
<!-- Node89&#45;&gt;Node93 -->
<g id="edge22_Node000089_Node000093" class="edge">
<title>Node89&#45;&gt;Node93</title>
<g id="a_edge22_Node000089_Node000093"><a xlink:title=" ">
<path fill="none" stroke="#63b8ff" d="M822.75,-437.87C808.36,-474.49 776.9,-541.31 727.75,-577.25 722.75,-580.91 717.26,-584.03 711.52,-586.69"/>
<polygon fill="#63b8ff" stroke="#63b8ff" points="826.23,-439.57 826.51,-428.97 819.68,-437.08 826.23,-439.57"/>
</a>
</g>
</g>
<!-- Node94 -->
<g id="Node000094" class="node">
<title>Node94</title>
<g id="a_Node000094"><a xlink:href="../../dd/de1/class_slic3r_1_1_g_u_i_1_1_g_l_gizmo_seam.html#a0d291d51f1062bd90152ded1677a5623" target="_top" xlink:title=" ">
<polygon fill="white" stroke="#666666" points="699.62,-568.5 562.12,-568.5 562.12,-538 699.62,-538 699.62,-568.5"/>
<text text-anchor="start" x="570.12" y="-555" font-family="Helvetica,sans-Serif" font-size="10.00">Slic3r::GUI::GLGizmoSeam</text>
<text text-anchor="middle" x="630.88" y="-543.75" font-family="Helvetica,sans-Serif" font-size="10.00">::on_render_input_window</text>
</a>
</g>
</g>
<!-- Node89&#45;&gt;Node94 -->
<g id="edge23_Node000089_Node000094" class="edge">
<title>Node89&#45;&gt;Node94</title>
<g id="a_edge23_Node000089_Node000094"><a xlink:title=" ">
<path fill="none" stroke="#63b8ff" d="M816.43,-436.68C798.37,-463.21 766.03,-504.93 727.75,-528.25 719.23,-533.44 709.65,-537.56 699.93,-540.83"/>
<polygon fill="#63b8ff" stroke="#63b8ff" points="819.81,-438.92 822.42,-428.65 813.97,-435.05 819.81,-438.92"/>
</a>
</g>
</g>
<!-- Node95 -->
<g id="Node000095" class="node">
<title>Node95</title>
<g id="a_Node000095"><a xlink:href="../../d1/d4e/class_slic3r_1_1_g_u_i_1_1_g_l_gizmo_simplify.html#a62fe9acd61e7f5f1d47dc4e7bec6fd10" target="_top" xlink:title=" ">
<polygon fill="white" stroke="#666666" points="704.5,-519.5 557.25,-519.5 557.25,-489 704.5,-489 704.5,-519.5"/>
<text text-anchor="start" x="565.25" y="-506" font-family="Helvetica,sans-Serif" font-size="10.00">Slic3r::GUI::GLGizmoSimplify</text>
<text text-anchor="middle" x="630.88" y="-494.75" font-family="Helvetica,sans-Serif" font-size="10.00">::on_render_input_window</text>
</a>
</g>
</g>
<!-- Node89&#45;&gt;Node95 -->
<g id="edge24_Node000089_Node000095" class="edge">
<title>Node89&#45;&gt;Node95</title>
<g id="a_edge24_Node000089_Node000095"><a xlink:title=" ">
<path fill="none" stroke="#63b8ff" d="M803.16,-434.27C783,-448.83 754.89,-467.34 727.75,-479.25 719.8,-482.74 711.25,-485.83 702.65,-488.53"/>
<polygon fill="#63b8ff" stroke="#63b8ff" points="804.85,-436.64 810.84,-427.9 800.71,-431 804.85,-436.64"/>
</a>
</g>
</g>
<!-- Node96 -->
<g id="Node000096" class="node">
<title>Node96</title>
<g id="a_Node000096"><a xlink:href="../../d9/d0e/class_slic3r_1_1_g_u_i_1_1_g_l_gizmo_sla_supports.html#aedcda66ba308cd66e3517521299bcb60" target="_top" xlink:title=" ">
<polygon fill="white" stroke="#666666" points="713.5,-470.5 548.25,-470.5 548.25,-440 713.5,-440 713.5,-470.5"/>
<text text-anchor="start" x="556.25" y="-457" font-family="Helvetica,sans-Serif" font-size="10.00">Slic3r::GUI::GLGizmoSlaSupports</text>
<text text-anchor="middle" x="630.88" y="-445.75" font-family="Helvetica,sans-Serif" font-size="10.00">::on_render_input_window</text>
</a>
</g>
</g>
<!-- Node89&#45;&gt;Node96 -->
<g id="edge25_Node000089_Node000096" class="edge">
<title>Node89&#45;&gt;Node96</title>
<g id="a_edge25_Node000089_Node000096"><a xlink:title=" ">
<path fill="none" stroke="#63b8ff" d="M755.38,-428.7C738.82,-432.26 721.36,-436.01 704.94,-439.54"/>
<polygon fill="#63b8ff" stroke="#63b8ff" points="756.07,-431.91 765.11,-426.39 754.6,-425.07 756.07,-431.91"/>
</a>
</g>
</g>
<!-- Node97 -->
<g id="Node000097" class="node">
<title>Node97</title>
<g id="a_Node000097"><a xlink:href="../../d8/d38/class_slic3r_1_1_g_u_i_1_1_g_l_gizmo_cut3_d.html#a32f4cf3317e89cbdd4dbc28042060ce1" target="_top" xlink:title=" ">
<polygon fill="white" stroke="#666666" points="490.5,-387.12 357.5,-387.12 357.5,-345.38 490.5,-345.38 490.5,-387.12"/>
<text text-anchor="start" x="365.5" y="-373.62" font-family="Helvetica,sans-Serif" font-size="10.00">Slic3r::GUI::GLGizmoCut3</text>
<text text-anchor="start" x="365.5" y="-362.38" font-family="Helvetica,sans-Serif" font-size="10.00">D::render_debug_input</text>
<text text-anchor="middle" x="424" y="-351.12" font-family="Helvetica,sans-Serif" font-size="10.00">_window</text>
</a>
</g>
</g>
<!-- Node89&#45;&gt;Node97 -->
<g id="edge26_Node000089_Node000097" class="edge">
<title>Node89&#45;&gt;Node97</title>
<g id="a_edge26_Node000089_Node000097"><a xlink:title=" ">
<path fill="none" stroke="#63b8ff" d="M755.17,-411.13C694.77,-409.34 608.61,-404.77 534,-393.25 519.94,-391.08 505.03,-387.95 490.9,-384.59"/>
<polygon fill="#63b8ff" stroke="#63b8ff" points="755.04,-414.65 765.14,-411.43 755.24,-407.65 755.04,-414.65"/>
</a>
</g>
</g>
<!-- Node99 -->
<g id="Node000099" class="node">
<title>Node99</title>
<g id="a_Node000099"><a xlink:href="../../d0/d25/class_slic3r_1_1_g_u_i_1_1_g_l_canvas3_d_1_1_layers_editing.html#a937dd6cd11d52b036cbacd6de1e19c3b" target="_top" xlink:title=" ">
<polygon fill="white" stroke="#666666" points="695.88,-384.12 565.88,-384.12 565.88,-342.38 695.88,-342.38 695.88,-384.12"/>
<text text-anchor="start" x="573.88" y="-370.62" font-family="Helvetica,sans-Serif" font-size="10.00">Slic3r::GUI::GLCanvas3D</text>
<text text-anchor="start" x="573.88" y="-359.38" font-family="Helvetica,sans-Serif" font-size="10.00">::LayersEditing::render</text>
<text text-anchor="middle" x="630.88" y="-348.12" font-family="Helvetica,sans-Serif" font-size="10.00">_overlay</text>
</a>
</g>
</g>
<!-- Node89&#45;&gt;Node99 -->
<g id="edge28_Node000089_Node000099" class="edge">
<title>Node89&#45;&gt;Node99</title>
<g id="a_edge28_Node000089_Node000099"><a xlink:title=" ">
<path fill="none" stroke="#63b8ff" d="M757.14,-393.94C737.14,-389.04 715.7,-383.79 696.3,-379.04"/>
<polygon fill="#63b8ff" stroke="#63b8ff" points="756.22,-397.56 766.77,-396.54 757.89,-390.76 756.22,-397.56"/>
</a>
</g>
</g>
<!-- Node100 -->
<g id="Node000100" class="node">
<title>Node100</title>
<g id="a_Node000100"><a xlink:href="../../d5/d62/class_slic3r_1_1_g_u_i_1_1_mouse3_d_controller.html#a60dce2164552fc62379691331a5917c4" target="_top" xlink:title=" ">
<polygon fill="white" stroke="#666666" points="708.25,-324.5 553.5,-324.5 553.5,-294 708.25,-294 708.25,-324.5"/>
<text text-anchor="start" x="561.5" y="-311" font-family="Helvetica,sans-Serif" font-size="10.00">Slic3r::GUI::Mouse3DController</text>
<text text-anchor="middle" x="630.88" y="-299.75" font-family="Helvetica,sans-Serif" font-size="10.00">::render_settings_dialog</text>
</a>
</g>
</g>
<!-- Node89&#45;&gt;Node100 -->
<g id="edge29_Node000089_Node000100" class="edge">
<title>Node89&#45;&gt;Node100</title>
<g id="a_edge29_Node000089_Node000100"><a xlink:title=" ">
<path fill="none" stroke="#63b8ff" d="M807.68,-389.32C787.69,-371.58 757.83,-347.67 727.75,-333.25 721.25,-330.13 714.31,-327.39 707.23,-324.99"/>
<polygon fill="#63b8ff" stroke="#63b8ff" points="804.85,-391.39 814.61,-395.51 809.54,-386.2 804.85,-391.39"/>
</a>
</g>
</g>
<!-- Node101 -->
<g id="Node000101" class="node">
<title>Node101</title>
<g id="a_Node000101"><a xlink:href="../../d8/d38/class_slic3r_1_1_g_u_i_1_1_g_l_gizmo_cut3_d.html#a45a957a3eb140e8478a1554b4c49370b" target="_top" xlink:title=" ">
<polygon fill="white" stroke="#666666" points="703.38,-275.5 558.38,-275.5 558.38,-245 703.38,-245 703.38,-275.5"/>
<text text-anchor="start" x="566.38" y="-262" font-family="Helvetica,sans-Serif" font-size="10.00">Slic3r::GUI::GLGizmoCut3</text>
<text text-anchor="middle" x="630.88" y="-250.75" font-family="Helvetica,sans-Serif" font-size="10.00">D::render_slider_double_input</text>
</a>
</g>
</g>
<!-- Node89&#45;&gt;Node101 -->
<g id="edge30_Node000089_Node000101" class="edge">
<title>Node89&#45;&gt;Node101</title>
<g id="a_edge30_Node000089_Node000101"><a xlink:title=" ">
<path fill="none" stroke="#63b8ff" d="M818.05,-387.25C800.73,-358.3 768.34,-311.24 727.75,-285.25 720.36,-280.52 712.11,-276.68 703.64,-273.57"/>
<polygon fill="#63b8ff" stroke="#63b8ff" points="815.48,-388.8 823.54,-395.68 821.53,-385.27 815.48,-388.8"/>
</a>
</g>
</g>
<!-- Node103 -->
<g id="Node000103" class="node">
<title>Node103</title>
<g id="a_Node000103"><a xlink:href="../../dd/df1/class_slic3r_1_1_g_u_i_1_1_g_l_gizmo_emboss.html#a9aaccbbc8fe959eb5000f5dff258c759" target="_top" xlink:title=" ">
<polygon fill="white" stroke="#666666" points="704.88,-226.5 556.88,-226.5 556.88,-196 704.88,-196 704.88,-226.5"/>
<text text-anchor="start" x="564.88" y="-213" font-family="Helvetica,sans-Serif" font-size="10.00">Slic3r::GUI::GLGizmoEmboss</text>
<text text-anchor="middle" x="630.88" y="-201.75" font-family="Helvetica,sans-Serif" font-size="10.00">::rev_slider</text>
</a>
</g>
</g>
<!-- Node89&#45;&gt;Node103 -->
<g id="edge33_Node000089_Node000103" class="edge">
<title>Node89&#45;&gt;Node103</title>
<g id="a_edge33_Node000089_Node000103"><a xlink:title=" ">
<path fill="none" stroke="#63b8ff" d="M823.82,-386.61C810.33,-347.97 779.45,-275.21 727.75,-236.25 721.02,-231.18 713.35,-227.13 705.35,-223.9"/>
<polygon fill="#63b8ff" stroke="#63b8ff" points="820.66,-387.18 827.16,-395.54 827.29,-384.95 820.66,-387.18"/>
</a>
</g>
</g>
<!-- Node104 -->
<g id="Node000104" class="node">
<title>Node104</title>
<g id="a_Node000104"><a xlink:href="../../d6/d97/class_slic3r_1_1_g_u_i_1_1_im_gui_wrapper.html#af3b9952bacbd05d5dc5512a2ccc59736" target="_top" xlink:title=" ">
<polygon fill="white" stroke="#666666" points="697.38,-177.5 564.38,-177.5 564.38,-147 697.38,-147 697.38,-177.5"/>
<text text-anchor="start" x="572.38" y="-164" font-family="Helvetica,sans-Serif" font-size="10.00">Slic3r::GUI::ImGuiWrapper</text>
<text text-anchor="middle" x="630.88" y="-152.75" font-family="Helvetica,sans-Serif" font-size="10.00">::slider_float</text>
</a>
</g>
</g>
<!-- Node89&#45;&gt;Node104 -->
<g id="edge34_Node000089_Node000104" class="edge">
<title>Node89&#45;&gt;Node104</title>
<g id="a_edge34_Node000089_Node000104"><a xlink:title=" ">
<path fill="none" stroke="#63b8ff" d="M827.31,-386.13C817.68,-339.03 790.75,-239.91 727.75,-187.25 719.04,-179.97 708.45,-174.78 697.52,-171.09"/>
<polygon fill="#63b8ff" stroke="#63b8ff" points="824.01,-386.51 829.35,-395.66 830.89,-385.18 824.01,-386.51"/>
</a>
</g>
</g>
<!-- Node105 -->
<g id="Node000105" class="node">
<title>Node105</title>
<g id="a_Node000105"><a xlink:href="../../d6/d97/class_slic3r_1_1_g_u_i_1_1_im_gui_wrapper.html#a1df486afbe83ee9b32c33c48e55f9c34" target="_top" xlink:title=" ">
<polygon fill="white" stroke="#666666" points="697.38,-128.5 564.38,-128.5 564.38,-98 697.38,-98 697.38,-128.5"/>
<text text-anchor="start" x="572.38" y="-115" font-family="Helvetica,sans-Serif" font-size="10.00">Slic3r::GUI::ImGuiWrapper</text>
<text text-anchor="middle" x="630.88" y="-103.75" font-family="Helvetica,sans-Serif" font-size="10.00">::slider_float</text>
</a>
</g>
</g>
<!-- Node89&#45;&gt;Node105 -->
<g id="edge35_Node000089_Node000105" class="edge">
<title>Node89&#45;&gt;Node105</title>
<g id="a_edge35_Node000089_Node000105"><a xlink:title=" ">
<path fill="none" stroke="#63b8ff" d="M829.73,-386C823.81,-331.42 802.38,-205.22 727.75,-138.25 719.17,-130.55 708.52,-125.17 697.46,-121.42"/>
<polygon fill="#63b8ff" stroke="#63b8ff" points="826.33,-386.2 830.79,-395.81 833.29,-385.51 826.33,-386.2"/>
</a>
</g>
</g>
<!-- Node106 -->
<g id="Node000106" class="node">
<title>Node106</title>
<g id="a_Node000106"><a xlink:href="../../d6/d97/class_slic3r_1_1_g_u_i_1_1_im_gui_wrapper.html#a8c908689166d74624f086acc75af3fad" target="_top" xlink:title=" ">
<polygon fill="white" stroke="#666666" points="697.38,-79.5 564.38,-79.5 564.38,-49 697.38,-49 697.38,-79.5"/>
<text text-anchor="start" x="572.38" y="-66" font-family="Helvetica,sans-Serif" font-size="10.00">Slic3r::GUI::ImGuiWrapper</text>
<text text-anchor="middle" x="630.88" y="-54.75" font-family="Helvetica,sans-Serif" font-size="10.00">::slider_optional_float</text>
</a>
</g>
</g>
<!-- Node89&#45;&gt;Node106 -->
<g id="edge36_Node000089_Node000106" class="edge">
<title>Node89&#45;&gt;Node106</title>
<g id="a_edge36_Node000089_Node000106"><a xlink:title=" ">
<path fill="none" stroke="#63b8ff" d="M831.48,-386.09C829.07,-324.81 814.25,-170.98 727.75,-89.25 719.37,-81.34 708.81,-75.85 697.79,-72.07"/>
<polygon fill="#63b8ff" stroke="#63b8ff" points="828,-385.85 831.8,-395.74 835,-385.64 828,-385.85"/>
</a>
</g>
</g>
<!-- Node108 -->
<g id="Node000108" class="node">
<title>Node108</title>
<g id="a_Node000108"><a xlink:href="../../d6/d97/class_slic3r_1_1_g_u_i_1_1_im_gui_wrapper.html#a8f89e42002c1f6b09d58fee7e2cfc9e4" target="_top" xlink:title=" ">
<polygon fill="white" stroke="#666666" points="697.38,-30.5 564.38,-30.5 564.38,0 697.38,0 697.38,-30.5"/>
<text text-anchor="start" x="572.38" y="-17" font-family="Helvetica,sans-Serif" font-size="10.00">Slic3r::GUI::ImGuiWrapper</text>
<text text-anchor="middle" x="630.88" y="-5.75" font-family="Helvetica,sans-Serif" font-size="10.00">::slider_optional_int</text>
</a>
</g>
</g>
<!-- Node89&#45;&gt;Node108 -->
<g id="edge38_Node000089_Node000108" class="edge">
<title>Node89&#45;&gt;Node108</title>
<g id="a_edge38_Node000089_Node000108"><a xlink:title=" ">
<path fill="none" stroke="#63b8ff" d="M832.79,-385.96C833.65,-318.33 826.14,-136.9 727.75,-40.25 719.41,-32.05 708.73,-26.45 697.55,-22.63"/>
<polygon fill="#63b8ff" stroke="#63b8ff" points="829.28,-385.8 832.57,-395.87 836.27,-385.94 829.28,-385.8"/>
</a>
</g>
</g>
<!-- Node17 -->
<g id="Node000017" class="node">
<title>Node17</title>
<g id="a_Node000017"><a xlink:href="../../d0/d2b/class_slic3r_1_1_g_u_i_1_1_g_l_canvas3_d.html#aab1ea5a1bb854d092fb44be4123ea87f" target="_top" xlink:title=" ">
<polygon fill="#fff0f0" stroke="red" points="489,-762.5 359,-762.5 359,-732 489,-732 489,-762.5"/>
<text text-anchor="start" x="367" y="-749" font-family="Helvetica,sans-Serif" font-size="10.00">Slic3r::GUI::GLCanvas3D</text>
<text text-anchor="middle" x="424" y="-737.75" font-family="Helvetica,sans-Serif" font-size="10.00">::_init_main_toolbar</text>
</a>
</g>
</g>
<!-- Node90&#45;&gt;Node17 -->
<g id="edge19_Node000090_Node000017" class="edge">
<title>Node90&#45;&gt;Node17</title>
<g id="a_edge19_Node000090_Node000017"><a xlink:title=" ">
<path fill="none" stroke="#63b8ff" d="M554.89,-748.52C533.4,-748.31 510.18,-748.08 489.39,-747.88"/>
<polygon fill="#63b8ff" stroke="#63b8ff" points="554.58,-752.02 564.61,-748.62 554.65,-745.03 554.58,-752.02"/>
</a>
</g>
</g>
<!-- Node98 -->
<g id="Node000098" class="node">
<title>Node98</title>
<g id="a_Node000098"><a xlink:href="../../d8/d38/class_slic3r_1_1_g_u_i_1_1_g_l_gizmo_cut3_d.html#a8710869690690f2dcfbb80fddbe43624" target="_top" xlink:title=" ">
<polygon fill="white" stroke="#666666" points="308.38,-351.5 171.62,-351.5 171.62,-321 308.38,-321 308.38,-351.5"/>
<text text-anchor="start" x="179.62" y="-338" font-family="Helvetica,sans-Serif" font-size="10.00">Slic3r::GUI::GLGizmoCut3</text>
<text text-anchor="middle" x="240" y="-326.75" font-family="Helvetica,sans-Serif" font-size="10.00">D::on_render_input_window</text>
</a>
</g>
</g>
<!-- Node97&#45;&gt;Node98 -->
<g id="edge27_Node000097_Node000098" class="edge">
<title>Node97&#45;&gt;Node98</title>
<g id="a_edge27_Node000097_Node000098"><a xlink:title=" ">
<path fill="none" stroke="#63b8ff" d="M346.55,-353.65C333.94,-351.57 320.95,-349.43 308.57,-347.39"/>
<polygon fill="#63b8ff" stroke="#63b8ff" points="345.6,-357.2 356.04,-355.38 346.74,-350.3 345.6,-357.2"/>
</a>
</g>
</g>
<!-- Node102 -->
<g id="Node000102" class="node">
<title>Node102</title>
<g id="a_Node000102"><a xlink:href="../../d8/d38/class_slic3r_1_1_g_u_i_1_1_g_l_gizmo_cut3_d.html#a95ab235a0b99dd33e2b7c96012551aea" target="_top" xlink:title=" ">
<polygon fill="white" stroke="#666666" points="492,-304.12 356,-304.12 356,-262.38 492,-262.38 492,-304.12"/>
<text text-anchor="start" x="364" y="-290.62" font-family="Helvetica,sans-Serif" font-size="10.00">Slic3r::GUI::GLGizmoCut3</text>
<text text-anchor="start" x="364" y="-279.38" font-family="Helvetica,sans-Serif" font-size="10.00">D::render_connectors_input</text>
<text text-anchor="middle" x="424" y="-268.12" font-family="Helvetica,sans-Serif" font-size="10.00">_window</text>
</a>
</g>
</g>
<!-- Node101&#45;&gt;Node102 -->
<g id="edge31_Node000101_Node000102" class="edge">
<title>Node101&#45;&gt;Node102</title>
<g id="a_edge31_Node000101_Node000102"><a xlink:title=" ">
<path fill="none" stroke="#63b8ff" d="M547.04,-269.55C528.85,-271.59 509.8,-273.73 492.31,-275.69"/>
<polygon fill="#63b8ff" stroke="#63b8ff" points="547.38,-272.92 556.93,-268.33 546.6,-265.96 547.38,-272.92"/>
</a>
</g>
</g>
<!-- Node102&#45;&gt;Node98 -->
<g id="edge32_Node000102_Node000098" class="edge">
<title>Node102&#45;&gt;Node98</title>
<g id="a_edge32_Node000102_Node000098"><a xlink:title=" ">
<path fill="none" stroke="#63b8ff" d="M345.28,-305.88C328.31,-310.82 310.72,-315.95 294.92,-320.55"/>
<polygon fill="#63b8ff" stroke="#63b8ff" points="346.12,-308.99 354.75,-302.83 344.17,-302.27 346.12,-308.99"/>
</a>
</g>
</g>
<!-- Node107 -->
<g id="Node000107" class="node">
<title>Node107</title>
<g id="a_Node000107"><a xlink:href="../../dd/df1/class_slic3r_1_1_g_u_i_1_1_g_l_gizmo_emboss.html#a20fda083ca986c04ff1e96395c6f2fdc" target="_top" xlink:title=" ">
<polygon fill="white" stroke="#666666" points="498,-79.5 350,-79.5 350,-49 498,-49 498,-79.5"/>
<text text-anchor="start" x="358" y="-66" font-family="Helvetica,sans-Serif" font-size="10.00">Slic3r::GUI::GLGizmoEmboss</text>
<text text-anchor="middle" x="424" y="-54.75" font-family="Helvetica,sans-Serif" font-size="10.00">::rev_slider</text>
</a>
</g>
</g>
<!-- Node106&#45;&gt;Node107 -->
<g id="edge37_Node000106_Node000107" class="edge">
<title>Node106&#45;&gt;Node107</title>
<g id="a_edge37_Node000106_Node000107"><a xlink:title=" ">
<path fill="none" stroke="#63b8ff" d="M552.94,-64.25C535.04,-64.25 516.02,-64.25 498.28,-64.25"/>
<polygon fill="#63b8ff" stroke="#63b8ff" points="552.92,-67.75 562.92,-64.25 552.92,-60.75 552.92,-67.75"/>
</a>
</g>
</g>
<!-- Node109 -->
<g id="Node000109" class="node">
<title>Node109</title>
<g id="a_Node000109"><a xlink:href="../../dd/df1/class_slic3r_1_1_g_u_i_1_1_g_l_gizmo_emboss.html#a62b46881b6a4f9c5c9a3ef6f92328611" target="_top" xlink:title=" ">
<polygon fill="white" stroke="#666666" points="498,-30.5 350,-30.5 350,0 498,0 498,-30.5"/>
<text text-anchor="start" x="358" y="-17" font-family="Helvetica,sans-Serif" font-size="10.00">Slic3r::GUI::GLGizmoEmboss</text>
<text text-anchor="middle" x="424" y="-5.75" font-family="Helvetica,sans-Serif" font-size="10.00">::rev_slider</text>
</a>
</g>
</g>
<!-- Node108&#45;&gt;Node109 -->
<g id="edge39_Node000108_Node000109" class="edge">
<title>Node108&#45;&gt;Node109</title>
<g id="a_edge39_Node000108_Node000109"><a xlink:title=" ">
<path fill="none" stroke="#63b8ff" d="M552.94,-15.25C535.04,-15.25 516.02,-15.25 498.28,-15.25"/>
<polygon fill="#63b8ff" stroke="#63b8ff" points="552.92,-18.75 562.92,-15.25 552.92,-11.75 552.92,-18.75"/>
</a>
</g>
</g>
<!-- Node110 -->
<g id="Node000110" class="node">
<title>Node110</title>
<g id="a_Node000110"><a xlink:href="../../dd/df1/class_slic3r_1_1_g_u_i_1_1_g_l_gizmo_emboss.html#a992be82e214e7ee040d32e0f63dcefa0" target="_top" xlink:title=" ">
<polygon fill="#fff0f0" stroke="red" points="314,-30.5 166,-30.5 166,0 314,0 314,-30.5"/>
<text text-anchor="start" x="174" y="-17" font-family="Helvetica,sans-Serif" font-size="10.00">Slic3r::GUI::GLGizmoEmboss</text>
<text text-anchor="middle" x="240" y="-5.75" font-family="Helvetica,sans-Serif" font-size="10.00">::draw_advanced</text>
</a>
</g>
</g>
<!-- Node109&#45;&gt;Node110 -->
<g id="edge40_Node000109_Node000110" class="edge">
<title>Node109&#45;&gt;Node110</title>
<g id="a_edge40_Node000109_Node000110"><a xlink:title=" ">
<path fill="none" stroke="#63b8ff" d="M339.02,-15.25C330.79,-15.25 322.49,-15.25 314.39,-15.25"/>
<polygon fill="#63b8ff" stroke="#63b8ff" points="338.76,-18.75 348.76,-15.25 338.76,-11.75 338.76,-18.75"/>
</a>
</g>
</g>
<!-- Node113&#45;&gt;Node4 -->
<g id="edge42_Node000113_Node000004" class="edge">
<title>Node113&#45;&gt;Node4</title>
<g id="a_edge42_Node000113_Node000004"><a xlink:title=" ">
<path fill="none" stroke="#63b8ff" d="M926.93,-795.25C859.85,-795.25 762.73,-795.25 698.48,-795.25"/>
<polygon fill="#63b8ff" stroke="#63b8ff" points="926.84,-798.75 936.84,-795.25 926.84,-791.75 926.84,-798.75"/>
</a>
</g>
</g>
</g>
</svg>

<g id="navigator" transform="translate(0 0)" fill="#404254">
  <rect fill="#f2f5e9" fill-opacity="0.5" stroke="#606060" stroke-width=".5" x="0" y="0" width="60" height="60"/>
  <use id="zoomplus" xlink:href="#zoomPlus" x="17" y="9" onmousedown="handleZoom(evt,'in')"/>
  <use id="zoomminus" xlink:href="#zoomMin" x="42" y="9" onmousedown="handleZoom(evt,'out')"/>
  <use id="reset" xlink:href="#resetDef" x="30" y="36" onmousedown="handleReset()"/>
   <use id="arrowup" xlink:href="#arrowUp" x="0" y="0" onmousedown="handlePan(0,-1)"/>
  <use id="arrowright" xlink:href="#arrowRight" x="0" y="0" onmousedown="handlePan(1,0)"/>
  <use id="arrowdown" xlink:href="#arrowDown" x="0" y="0" onmousedown="handlePan(0,1)"/>
  <use id="arrowleft" xlink:href="#arrowLeft" x="0" y="0" onmousedown="handlePan(-1,0)"/>
</g>
<svg viewBox="0 0 15 15" width="100%" height="30px" preserveAspectRatio="xMaxYMin meet">
 <g id="arrow_out" transform="scale(0.3 0.3)">
  <a xlink:href="namespace_im_gui_ada3b1cb76907bb9e630b2482f52f0599_icgraph_org.svg" target="_base">
   <rect id="button" ry="5" rx="5" y="6" x="6" height="38" width="38"
        fill="#f2f5e9" fill-opacity="0.5" stroke="#606060" stroke-width="1.0"/>
   <path id="arrow"
     d="M 11.500037,31.436501 C 11.940474,20.09759 22.043105,11.32322 32.158766,21.979434 L 37.068811,17.246167 C 37.068811,17.246167 37.088388,32 37.088388,32 L 22.160133,31.978069 C 22.160133,31.978069 26.997745,27.140456 26.997745,27.140456 C 18.528582,18.264221 13.291696,25.230495 11.500037,31.436501 z"
     style="fill:#404040;"/>
  </a>
 </g>
</svg>

<style type='text/css'>
<![CDATA[
[data-mouse-over-selected='false'] { opacity: 0.7; }
[data-mouse-over-selected='true']  { opacity: 1.0; }
]]>
</style>
<script type="application/ecmascript"><![CDATA[
document.addEventListener('DOMContentLoaded', (event) => {
  highlightEdges();
  highlightAdjacentNodes();
});
]]></script>
</svg>
