<?xml version="1.0" encoding="UTF-8" standalone="no"?>
<!DOCTYPE svg PUBLIC "-//W3C//DTD SVG 1.1//EN"
 "http://www.w3.org/Graphics/SVG/1.1/DTD/svg11.dtd">
<!-- Generated by graphviz version 8.0.5 (20230430.1635)
 -->
<!-- Title: stk500v2_setup Pages: 1 -->
<svg width="539pt" height="249pt"
 viewBox="0.00 0.00 539.25 249.25" xmlns="http://www.w3.org/2000/svg" xmlns:xlink="http://www.w3.org/1999/xlink">
<g id="graph0" class="graph" transform="scale(1 1) rotate(0) translate(4 245.25)">
<title>stk500v2_setup</title>
<!-- Node1 -->
<g id="Node000001" class="node">
<title>Node1</title>
<g id="a_Node000001"><a xlink:title=" ">
<polygon fill="#999999" stroke="#666666" points="531.25,-130.25 446.25,-130.25 446.25,-111 531.25,-111 531.25,-130.25"/>
<text text-anchor="middle" x="488.75" y="-116.75" font-family="Helvetica,sans-Serif" font-size="10.00">stk500v2_setup</text>
</a>
</g>
</g>
<!-- Node2 -->
<g id="Node000002" class="node">
<title>Node2</title>
<g id="a_Node000002"><a xlink:href="../../d9/d12/stk500v2_8c.html#acc1692183dbdb01f25b8324283f2a765" target="_top" xlink:title=" ">
<polygon fill="white" stroke="#666666" points="410.25,-241.25 307.25,-241.25 307.25,-222 410.25,-222 410.25,-241.25"/>
<text text-anchor="middle" x="358.75" y="-227.75" font-family="Helvetica,sans-Serif" font-size="10.00">stk500hvsp_initpgm</text>
</a>
</g>
</g>
<!-- Node1&#45;&gt;Node2 -->
<g id="edge1_Node000001_Node000002" class="edge">
<title>Node1&#45;&gt;Node2</title>
<g id="a_edge1_Node000001_Node000002"><a xlink:title=" ">
<path fill="none" stroke="#63b8ff" d="M476.32,-139.68C462.91,-160.54 438.84,-193.68 410.25,-213.62 405.82,-216.71 400.81,-219.33 395.7,-221.52"/>
<polygon fill="#63b8ff" stroke="#63b8ff" points="479.7,-141.87 482.02,-131.53 473.76,-138.17 479.7,-141.87"/>
</a>
</g>
</g>
<!-- Node3 -->
<g id="Node000003" class="node">
<title>Node3</title>
<g id="a_Node000003"><a xlink:href="../../d9/d12/stk500v2_8c.html#ac6576ef9cca39d65013e08ac1bd9b7f4" target="_top" xlink:title=" ">
<polygon fill="white" stroke="#666666" points="405,-204.25 312.5,-204.25 312.5,-185 405,-185 405,-204.25"/>
<text text-anchor="middle" x="358.75" y="-190.75" font-family="Helvetica,sans-Serif" font-size="10.00">stk500pp_initpgm</text>
</a>
</g>
</g>
<!-- Node1&#45;&gt;Node3 -->
<g id="edge2_Node000001_Node000003" class="edge">
<title>Node1&#45;&gt;Node3</title>
<g id="a_edge2_Node000001_Node000003"><a xlink:title=" ">
<path fill="none" stroke="#63b8ff" d="M467.62,-137.62C452.56,-149.71 431.06,-165.69 410.25,-176.62 404.65,-179.57 398.46,-182.22 392.39,-184.53"/>
<polygon fill="#63b8ff" stroke="#63b8ff" points="469.58,-139.72 475.1,-130.68 465.15,-134.31 469.58,-139.72"/>
</a>
</g>
</g>
<!-- Node4 -->
<g id="Node000004" class="node">
<title>Node4</title>
<g id="a_Node000004"><a xlink:href="../../d9/d12/stk500v2_8c.html#aea3788fd25277b0e56feeba93ddf0345" target="_top" xlink:title=" ">
<polygon fill="white" stroke="#666666" points="405,-167.25 312.5,-167.25 312.5,-148 405,-148 405,-167.25"/>
<text text-anchor="middle" x="358.75" y="-153.75" font-family="Helvetica,sans-Serif" font-size="10.00">stk500v2_initpgm</text>
</a>
</g>
</g>
<!-- Node1&#45;&gt;Node4 -->
<g id="edge3_Node000001_Node000004" class="edge">
<title>Node1&#45;&gt;Node4</title>
<g id="a_edge3_Node000001_Node000004"><a xlink:title=" ">
<path fill="none" stroke="#63b8ff" d="M442.25,-133.78C426.61,-138.3 409.35,-143.29 394.68,-147.53"/>
<polygon fill="#63b8ff" stroke="#63b8ff" points="443.14,-136.87 451.77,-130.74 441.19,-130.15 443.14,-136.87"/>
</a>
</g>
</g>
<!-- Node10 -->
<g id="Node000010" class="node">
<title>Node10</title>
<g id="a_Node000010"><a xlink:href="../../d9/d12/stk500v2_8c.html#aa8f862d88ff9db1cdd95f2ae21755836" target="_top" xlink:title=" ">
<polygon fill="white" stroke="#666666" points="399.75,-130.25 317.75,-130.25 317.75,-111 399.75,-111 399.75,-130.25"/>
<text text-anchor="middle" x="358.75" y="-116.75" font-family="Helvetica,sans-Serif" font-size="10.00">stk600_initpgm</text>
</a>
</g>
</g>
<!-- Node1&#45;&gt;Node10 -->
<g id="edge11_Node000001_Node000010" class="edge">
<title>Node1&#45;&gt;Node10</title>
<g id="a_edge11_Node000001_Node000010"><a xlink:title=" ">
<path fill="none" stroke="#63b8ff" d="M434.88,-120.62C423.23,-120.62 411.07,-120.62 400.01,-120.62"/>
<polygon fill="#63b8ff" stroke="#63b8ff" points="434.84,-124.13 444.84,-120.62 434.84,-117.13 434.84,-124.13"/>
</a>
</g>
</g>
<!-- Node11 -->
<g id="Node000011" class="node">
<title>Node11</title>
<g id="a_Node000011"><a xlink:href="../../d9/d12/stk500v2_8c.html#a57cc55a9be2a544f863f1fd4a77257d6" target="_top" xlink:title=" ">
<polygon fill="white" stroke="#666666" points="410.25,-93.25 307.25,-93.25 307.25,-74 410.25,-74 410.25,-93.25"/>
<text text-anchor="middle" x="358.75" y="-79.75" font-family="Helvetica,sans-Serif" font-size="10.00">stk600hvsp_initpgm</text>
</a>
</g>
</g>
<!-- Node1&#45;&gt;Node11 -->
<g id="edge12_Node000001_Node000011" class="edge">
<title>Node1&#45;&gt;Node11</title>
<g id="a_edge12_Node000001_Node000011"><a xlink:title=" ">
<path fill="none" stroke="#63b8ff" d="M442.25,-107.47C426.61,-102.95 409.35,-97.96 394.68,-93.72"/>
<polygon fill="#63b8ff" stroke="#63b8ff" points="441.19,-111.1 451.77,-110.51 443.14,-104.38 441.19,-111.1"/>
</a>
</g>
</g>
<!-- Node12 -->
<g id="Node000012" class="node">
<title>Node12</title>
<g id="a_Node000012"><a xlink:href="../../d9/d12/stk500v2_8c.html#abc295844729bb0372d425493ae5b816c" target="_top" xlink:title=" ">
<polygon fill="white" stroke="#666666" points="405,-56.25 312.5,-56.25 312.5,-37 405,-37 405,-56.25"/>
<text text-anchor="middle" x="358.75" y="-42.75" font-family="Helvetica,sans-Serif" font-size="10.00">stk600pp_initpgm</text>
</a>
</g>
</g>
<!-- Node1&#45;&gt;Node12 -->
<g id="edge13_Node000001_Node000012" class="edge">
<title>Node1&#45;&gt;Node12</title>
<g id="a_edge13_Node000001_Node000012"><a xlink:title=" ">
<path fill="none" stroke="#63b8ff" d="M467.62,-103.63C452.56,-91.54 431.06,-75.56 410.25,-64.62 404.65,-61.68 398.46,-59.03 392.39,-56.72"/>
<polygon fill="#63b8ff" stroke="#63b8ff" points="465.15,-106.94 475.1,-110.57 469.58,-101.53 465.15,-106.94"/>
</a>
</g>
</g>
<!-- Node13 -->
<g id="Node000013" class="node">
<title>Node13</title>
<g id="a_Node000013"><a xlink:href="../../d5/df3/wiring_8c.html#a1d071c2b2774b4a83e524e311f8df835" target="_top" xlink:title=" ">
<polygon fill="white" stroke="#666666" points="394.12,-19.25 323.38,-19.25 323.38,0 394.12,0 394.12,-19.25"/>
<text text-anchor="middle" x="358.75" y="-5.75" font-family="Helvetica,sans-Serif" font-size="10.00">wiring_setup</text>
</a>
</g>
</g>
<!-- Node1&#45;&gt;Node13 -->
<g id="edge14_Node000001_Node000013" class="edge">
<title>Node1&#45;&gt;Node13</title>
<g id="a_edge14_Node000001_Node000013"><a xlink:title=" ">
<path fill="none" stroke="#63b8ff" d="M476.32,-101.57C462.91,-80.71 438.84,-47.57 410.25,-27.62 405.44,-24.27 399.94,-21.48 394.38,-19.17"/>
<polygon fill="#63b8ff" stroke="#63b8ff" points="473.76,-103.08 482.02,-109.72 479.7,-99.38 473.76,-103.08"/>
</a>
</g>
</g>
<!-- Node5 -->
<g id="Node000005" class="node">
<title>Node5</title>
<g id="a_Node000005"><a xlink:href="../../d9/d34/stk500generic_8c.html#a648de4d456de8c3cb4e03fd950d280a4" target="_top" xlink:title=" ">
<polygon fill="white" stroke="#666666" points="261.88,-204.25 158.88,-204.25 158.88,-185 261.88,-185 261.88,-204.25"/>
<text text-anchor="middle" x="210.38" y="-190.75" font-family="Helvetica,sans-Serif" font-size="10.00">stk500generic_open</text>
</a>
</g>
</g>
<!-- Node4&#45;&gt;Node5 -->
<g id="edge4_Node000004_Node000005" class="edge">
<title>Node4&#45;&gt;Node5</title>
<g id="a_edge4_Node000004_Node000005"><a xlink:title=" ">
<path fill="none" stroke="#63b8ff" d="M307.27,-170.39C288.97,-175.01 268.58,-180.16 251.32,-184.53"/>
<polygon fill="#63b8ff" stroke="#63b8ff" points="307.92,-173.58 316.75,-167.74 306.2,-166.79 307.92,-173.58"/>
</a>
</g>
</g>
<!-- Node7 -->
<g id="Node000007" class="node">
<title>Node7</title>
<g id="a_Node000007"><a xlink:href="../../d9/d34/stk500generic_8c.html#aa5e53881acd79297f9421e6cbb716dfa" target="_top" xlink:title=" ">
<polygon fill="white" stroke="#666666" points="263.38,-167.25 157.38,-167.25 157.38,-148 263.38,-148 263.38,-167.25"/>
<text text-anchor="middle" x="210.38" y="-153.75" font-family="Helvetica,sans-Serif" font-size="10.00">stk500generic_setup</text>
</a>
</g>
</g>
<!-- Node4&#45;&gt;Node7 -->
<g id="edge6_Node000004_Node000007" class="edge">
<title>Node4&#45;&gt;Node7</title>
<g id="a_edge6_Node000004_Node000007"><a xlink:title=" ">
<path fill="none" stroke="#63b8ff" d="M301.54,-157.62C289.13,-157.62 276.03,-157.62 263.77,-157.62"/>
<polygon fill="#63b8ff" stroke="#63b8ff" points="301.24,-161.13 311.24,-157.62 301.24,-154.13 301.24,-161.13"/>
</a>
</g>
</g>
<!-- Node8 -->
<g id="Node000008" class="node">
<title>Node8</title>
<g id="a_Node000008"><a xlink:href="../../d9/d34/stk500generic_8c.html#a51c65dbf26a7916a7441de2499044ced" target="_top" xlink:title=" ">
<polygon fill="white" stroke="#666666" points="271.25,-130.25 149.5,-130.25 149.5,-111 271.25,-111 271.25,-130.25"/>
<text text-anchor="middle" x="210.38" y="-116.75" font-family="Helvetica,sans-Serif" font-size="10.00">stk500generic_teardown</text>
</a>
</g>
</g>
<!-- Node4&#45;&gt;Node8 -->
<g id="edge8_Node000004_Node000008" class="edge">
<title>Node4&#45;&gt;Node8</title>
<g id="a_edge8_Node000004_Node000008"><a xlink:title=" ">
<path fill="none" stroke="#63b8ff" d="M307.27,-144.86C288.97,-140.24 268.58,-135.09 251.32,-130.72"/>
<polygon fill="#63b8ff" stroke="#63b8ff" points="306.2,-148.46 316.75,-147.51 307.92,-141.67 306.2,-148.46"/>
</a>
</g>
</g>
<!-- Node9 -->
<g id="Node000009" class="node">
<title>Node9</title>
<g id="a_Node000009"><a xlink:href="../../d5/df3/wiring_8c.html#a8d54e7db5ea45d8a2b0128fd771b7947" target="_top" xlink:title=" ">
<polygon fill="white" stroke="#666666" points="249.5,-56.25 171.25,-56.25 171.25,-37 249.5,-37 249.5,-56.25"/>
<text text-anchor="middle" x="210.38" y="-42.75" font-family="Helvetica,sans-Serif" font-size="10.00">wiring_initpgm</text>
</a>
</g>
</g>
<!-- Node4&#45;&gt;Node9 -->
<g id="edge10_Node000004_Node000009" class="edge">
<title>Node4&#45;&gt;Node9</title>
<g id="a_edge10_Node000004_Node000009"><a xlink:title=" ">
<path fill="none" stroke="#63b8ff" d="M312.83,-142.92C310.9,-141.89 309.03,-140.79 307.25,-139.62 287.76,-126.93 287.83,-117.95 271.25,-101.62 254.76,-85.38 234.82,-67.38 222.63,-56.54"/>
<polygon fill="#63b8ff" stroke="#63b8ff" points="311.23,-146.51 321.77,-147.6 314.21,-140.17 311.23,-146.51"/>
</a>
</g>
</g>
<!-- Node6 -->
<g id="Node000006" class="node">
<title>Node6</title>
<g id="a_Node000006"><a xlink:href="../../d9/d34/stk500generic_8c.html#ae82dc9f9fdcd46b2755f9b8002f640e2" target="_top" xlink:title=" ">
<polygon fill="white" stroke="#666666" points="113.5,-167.25 0,-167.25 0,-148 113.5,-148 113.5,-167.25"/>
<text text-anchor="middle" x="56.75" y="-153.75" font-family="Helvetica,sans-Serif" font-size="10.00">stk500generic_initpgm</text>
</a>
</g>
</g>
<!-- Node5&#45;&gt;Node6 -->
<g id="edge5_Node000005_Node000006" class="edge">
<title>Node5&#45;&gt;Node6</title>
<g id="a_edge5_Node000005_Node000006"><a xlink:title=" ">
<path fill="none" stroke="#63b8ff" d="M157.34,-181.93C138.33,-177.29 117.09,-172.11 99.13,-167.72"/>
<polygon fill="#63b8ff" stroke="#63b8ff" points="156.4,-185.54 166.94,-184.51 158.06,-178.74 156.4,-185.54"/>
</a>
</g>
</g>
<!-- Node7&#45;&gt;Node6 -->
<g id="edge7_Node000007_Node000006" class="edge">
<title>Node7&#45;&gt;Node6</title>
<g id="a_edge7_Node000007_Node000006"><a xlink:title=" ">
<path fill="none" stroke="#63b8ff" d="M146.19,-157.62C135.48,-157.62 124.43,-157.62 113.91,-157.62"/>
<polygon fill="#63b8ff" stroke="#63b8ff" points="146.19,-161.13 156.19,-157.62 146.19,-154.13 146.19,-161.13"/>
</a>
</g>
</g>
<!-- Node8&#45;&gt;Node6 -->
<g id="edge9_Node000008_Node000006" class="edge">
<title>Node8&#45;&gt;Node6</title>
<g id="a_edge9_Node000008_Node000006"><a xlink:title=" ">
<path fill="none" stroke="#63b8ff" d="M157.34,-133.32C138.33,-137.96 117.09,-143.14 99.13,-147.53"/>
<polygon fill="#63b8ff" stroke="#63b8ff" points="158.06,-136.51 166.94,-130.74 156.4,-129.71 158.06,-136.51"/>
</a>
</g>
</g>
<!-- Node13&#45;&gt;Node9 -->
<g id="edge15_Node000013_Node000009" class="edge">
<title>Node13&#45;&gt;Node9</title>
<g id="a_edge15_Node000013_Node000009"><a xlink:title=" ">
<path fill="none" stroke="#63b8ff" d="M312.61,-21.04C292.54,-26.11 269.17,-32.02 249.93,-36.88"/>
<polygon fill="#63b8ff" stroke="#63b8ff" points="313.22,-24.24 322.06,-18.39 311.51,-17.45 313.22,-24.24"/>
</a>
</g>
</g>
</g>
</svg>
