<?xml version="1.0" encoding="UTF-8" standalone="no"?>
<!DOCTYPE svg PUBLIC "-//W3C//DTD SVG 1.1//EN"
 "http://www.w3.org/Graphics/SVG/1.1/DTD/svg11.dtd">
<!-- Generated by graphviz version 8.0.5 (20230430.1635)
 -->
<!-- Title: Slic3r::FillAdaptive::mk_rtree_point Pages: 1 -->
<svg width="551pt" height="131pt"
 viewBox="0.00 0.00 551.25 130.50" xmlns="http://www.w3.org/2000/svg" xmlns:xlink="http://www.w3.org/1999/xlink">
<g id="graph0" class="graph" transform="scale(1 1) rotate(0) translate(4 126.5)">
<title>Slic3r::FillAdaptive::mk_rtree_point</title>
<!-- Node1 -->
<g id="Node000001" class="node">
<title>Node1</title>
<g id="a_Node000001"><a xlink:title=" ">
<polygon fill="#999999" stroke="#666666" points="543.25,-119.5 445.5,-119.5 445.5,-89 543.25,-89 543.25,-119.5"/>
<text text-anchor="start" x="453.5" y="-106" font-family="Helvetica,sans-Serif" font-size="10.00">Slic3r::FillAdaptive</text>
<text text-anchor="middle" x="494.38" y="-94.75" font-family="Helvetica,sans-Serif" font-size="10.00">::mk_rtree_point</text>
</a>
</g>
</g>
<!-- Node2 -->
<g id="Node000002" class="node">
<title>Node2</title>
<g id="a_Node000002"><a xlink:href="../../d6/d08/namespace_slic3r_1_1_fill_adaptive.html#afb2f3cac794562525dd4a5ea6cc44fec" target="_top" xlink:title=" ">
<polygon fill="white" stroke="#666666" points="142,-122.5 0,-122.5 0,-92 142,-92 142,-122.5"/>
<text text-anchor="start" x="8" y="-109" font-family="Helvetica,sans-Serif" font-size="10.00">Slic3r::FillAdaptive</text>
<text text-anchor="middle" x="71" y="-97.75" font-family="Helvetica,sans-Serif" font-size="10.00">::connect_lines_using_hooks</text>
</a>
</g>
</g>
<!-- Node1&#45;&gt;Node2 -->
<g id="edge1_Node000001_Node000002" class="edge">
<title>Node1&#45;&gt;Node2</title>
<g id="a_edge1_Node000001_Node000002"><a xlink:title=" ">
<path fill="none" stroke="#63b8ff" d="M434.24,-106.63C425.93,-106.89 417.5,-107.11 409.5,-107.25 317.23,-108.9 210.75,-108.52 142.47,-107.98"/>
<polygon fill="#63b8ff" stroke="#63b8ff" points="434.16,-110.1 444.04,-106.27 433.93,-103.11 434.16,-110.1"/>
</a>
</g>
</g>
<!-- Node3 -->
<g id="Node000003" class="node">
<title>Node3</title>
<g id="a_Node000003"><a xlink:href="../../d6/d08/namespace_slic3r_1_1_fill_adaptive.html#af636d8557376a74c109bb61f8ebeb8d3" target="_top" xlink:title=" ">
<polygon fill="white" stroke="#666666" points="409.5,-98.5 311.75,-98.5 311.75,-68 409.5,-68 409.5,-98.5"/>
<text text-anchor="start" x="319.75" y="-85" font-family="Helvetica,sans-Serif" font-size="10.00">Slic3r::FillAdaptive</text>
<text text-anchor="middle" x="360.62" y="-73.75" font-family="Helvetica,sans-Serif" font-size="10.00">::mk_rtree_seg</text>
</a>
</g>
</g>
<!-- Node1&#45;&gt;Node3 -->
<g id="edge2_Node000001_Node000003" class="edge">
<title>Node1&#45;&gt;Node3</title>
<g id="a_edge2_Node000001_Node000003"><a xlink:title=" ">
<path fill="none" stroke="#63b8ff" d="M434.42,-94.85C426.23,-93.55 417.9,-92.22 409.93,-90.95"/>
<polygon fill="#63b8ff" stroke="#63b8ff" points="433.64,-98.43 444.06,-96.55 434.74,-91.52 433.64,-98.43"/>
</a>
</g>
</g>
<!-- Node3&#45;&gt;Node2 -->
<g id="edge5_Node000003_Node000002" class="edge">
<title>Node3&#45;&gt;Node2</title>
<g id="a_edge5_Node000003_Node000002"><a xlink:title=" ">
<path fill="none" stroke="#63b8ff" d="M300.81,-88.16C254.92,-91.99 191.03,-97.32 142.41,-101.37"/>
<polygon fill="#63b8ff" stroke="#63b8ff" points="300.81,-91.59 310.48,-87.27 300.23,-84.61 300.81,-91.59"/>
</a>
</g>
</g>
<!-- Node4 -->
<g id="Node000004" class="node">
<title>Node4</title>
<g id="a_Node000004"><a xlink:href="../../d6/d08/namespace_slic3r_1_1_fill_adaptive.html#a8408e585ff5b07078360b31fd37a95e1" target="_top" xlink:title=" ">
<polygon fill="white" stroke="#666666" points="275.75,-79.5 178,-79.5 178,-49 275.75,-49 275.75,-79.5"/>
<text text-anchor="start" x="186" y="-66" font-family="Helvetica,sans-Serif" font-size="10.00">Slic3r::FillAdaptive</text>
<text text-anchor="middle" x="226.88" y="-54.75" font-family="Helvetica,sans-Serif" font-size="10.00">::add_hook</text>
</a>
</g>
</g>
<!-- Node3&#45;&gt;Node4 -->
<g id="edge3_Node000003_Node000004" class="edge">
<title>Node3&#45;&gt;Node4</title>
<g id="a_edge3_Node000003_Node000004"><a xlink:title=" ">
<path fill="none" stroke="#63b8ff" d="M300.67,-74.75C292.48,-73.57 284.15,-72.36 276.18,-71.22"/>
<polygon fill="#63b8ff" stroke="#63b8ff" points="299.92,-78.32 310.31,-76.28 300.92,-71.39 299.92,-78.32"/>
</a>
</g>
</g>
<!-- Node5 -->
<g id="Node000005" class="node">
<title>Node5</title>
<g id="a_Node000005"><a xlink:href="../../d6/d08/namespace_slic3r_1_1_fill_adaptive.html#aa4dfe0f03a13cfd3a7352d3cfa2b8fe7" target="_top" xlink:title=" ">
<polygon fill="white" stroke="#666666" points="275.75,-30.5 178,-30.5 178,0 275.75,0 275.75,-30.5"/>
<text text-anchor="start" x="186" y="-17" font-family="Helvetica,sans-Serif" font-size="10.00">Slic3r::FillAdaptive</text>
<text text-anchor="middle" x="226.88" y="-5.75" font-family="Helvetica,sans-Serif" font-size="10.00">::mk_rtree_seg</text>
</a>
</g>
</g>
<!-- Node3&#45;&gt;Node5 -->
<g id="edge6_Node000003_Node000005" class="edge">
<title>Node3&#45;&gt;Node5</title>
<g id="a_edge6_Node000003_Node000005"><a xlink:title=" ">
<path fill="none" stroke="#63b8ff" d="M319.7,-62.64C299.85,-52.4 276.26,-40.22 257.96,-30.78"/>
<polygon fill="#63b8ff" stroke="#63b8ff" points="317.91,-66.17 328.4,-67.65 321.12,-59.95 317.91,-66.17"/>
</a>
</g>
</g>
<!-- Node4&#45;&gt;Node2 -->
<g id="edge4_Node000004_Node000002" class="edge">
<title>Node4&#45;&gt;Node2</title>
<g id="a_edge4_Node000004_Node000002"><a xlink:title=" ">
<path fill="none" stroke="#63b8ff" d="M167.08,-80.68C154.31,-84.25 140.83,-88.02 128.16,-91.56"/>
<polygon fill="#63b8ff" stroke="#63b8ff" points="167.92,-83.8 176.61,-77.74 166.04,-77.06 167.92,-83.8"/>
</a>
</g>
</g>
</g>
</svg>
