<?xml version="1.0" encoding="UTF-8" standalone="no"?>
<!DOCTYPE svg PUBLIC "-//W3C//DTD SVG 1.1//EN"
 "http://www.w3.org/Graphics/SVG/1.1/DTD/svg11.dtd">
<!-- Generated by graphviz version 8.0.5 (20230430.1635)
 -->
<!-- Title: Slic3r::GUI::WipeTower::get_arrange_polygon Pages: 1 -->
<svg width="239pt" height="51pt"
 viewBox="0.00 0.00 238.75 50.88" xmlns="http://www.w3.org/2000/svg" xmlns:xlink="http://www.w3.org/1999/xlink">
<g id="graph0" class="graph" transform="scale(1 1) rotate(0) translate(4 46.88)">
<title>Slic3r::GUI::WipeTower::get_arrange_polygon</title>
<!-- Node1 -->
<g id="Node000001" class="node">
<title>Node1</title>
<g id="a_Node000001"><a xlink:title=" ">
<polygon fill="#999999" stroke="#666666" points="119.5,-30.5 0,-30.5 0,0 119.5,0 119.5,-30.5"/>
<text text-anchor="start" x="8" y="-17" font-family="Helvetica,sans-Serif" font-size="10.00">Slic3r::GUI::WipeTower</text>
<text text-anchor="middle" x="59.75" y="-5.75" font-family="Helvetica,sans-Serif" font-size="10.00">::get_arrange_polygon</text>
</a>
</g>
</g>
<!-- Node2 -->
<g id="Node000002" class="node">
<title>Node2</title>
<g id="a_Node000002"><a xlink:href="../../de/db8/namespace_slic3r.html#a20c9ce8050ad12a2fbc3d2e07937a1e8" target="_top" xlink:title=" ">
<polygon fill="white" stroke="#666666" points="230.75,-24.88 155.5,-24.88 155.5,-5.63 230.75,-5.63 230.75,-24.88"/>
<text text-anchor="middle" x="193.12" y="-11.38" font-family="Helvetica,sans-Serif" font-size="10.00">Slic3r::scaled</text>
</a>
</g>
</g>
<!-- Node1&#45;&gt;Node2 -->
<g id="edge1_Node000001_Node000002" class="edge">
<title>Node1&#45;&gt;Node2</title>
<g id="a_edge1_Node000001_Node000002"><a xlink:title=" ">
<path fill="none" stroke="#63b8ff" d="M119.9,-15.25C128.05,-15.25 136.33,-15.25 144.24,-15.25"/>
<polygon fill="#63b8ff" stroke="#63b8ff" points="144.13,-18.75 154.13,-15.25 144.13,-11.75 144.13,-18.75"/>
</a>
</g>
</g>
<!-- Node2&#45;&gt;Node2 -->
<g id="edge2_Node000002_Node000002" class="edge">
<title>Node2&#45;&gt;Node2</title>
<g id="a_edge2_Node000002_Node000002"><a xlink:title=" ">
<path fill="none" stroke="#63b8ff" d="M172.24,-25.16C162.72,-33.77 169.68,-42.88 193.12,-42.88 206.68,-42.88 214.72,-39.83 217.26,-35.6"/>
<polygon fill="#63b8ff" stroke="#63b8ff" points="220.32,-34.67 214.01,-26.16 213.64,-36.75 220.32,-34.67"/>
</a>
</g>
</g>
</g>
</svg>
