<?xml version="1.0" encoding="UTF-8" standalone="no"?>
<!DOCTYPE svg PUBLIC "-//W3C//DTD SVG 1.1//EN"
 "http://www.w3.org/Graphics/SVG/1.1/DTD/svg11.dtd">
<!-- Generated by graphviz version 8.0.5 (20230430.1635)
 -->
<!-- Title: Slic3r::ExtrusionEntityCollection::flatten Pages: 1 -->
<svg width="508pt" height="57pt"
 viewBox="0.00 0.00 507.50 56.50" xmlns="http://www.w3.org/2000/svg" xmlns:xlink="http://www.w3.org/1999/xlink">
<g id="graph0" class="graph" transform="scale(1 1) rotate(0) translate(4 52.5)">
<title>Slic3r::ExtrusionEntityCollection::flatten</title>
<!-- Node1 -->
<g id="Node000001" class="node">
<title>Node1</title>
<g id="a_Node000001"><a xlink:title="Returns a flattened copy of this ExtrusionEntityCollection. That is, all of the items in its entities...">
<polygon fill="#999999" stroke="#666666" points="157,-30.5 0,-30.5 0,0 157,0 157,-30.5"/>
<text text-anchor="start" x="8" y="-17" font-family="Helvetica,sans-Serif" font-size="10.00">Slic3r::ExtrusionEntityCollection</text>
<text text-anchor="middle" x="78.5" y="-5.75" font-family="Helvetica,sans-Serif" font-size="10.00">::flatten</text>
</a>
</g>
</g>
<!-- Node1&#45;&gt;Node1 -->
<g id="edge3_Node000001_Node000001" class="edge">
<title>Node1&#45;&gt;Node1</title>
<g id="a_edge3_Node000001_Node000001"><a xlink:title=" ">
<path fill="none" stroke="#63b8ff" d="M44.3,-30.99C37.32,-40.06 48.72,-48.5 78.5,-48.5 95.25,-48.5 106.19,-45.83 111.31,-41.88"/>
<polygon fill="#63b8ff" stroke="#63b8ff" points="114.9,-42.35 112.7,-31.99 107.96,-41.46 114.9,-42.35"/>
</a>
</g>
</g>
<!-- Node2 -->
<g id="Node000002" class="node">
<title>Node2</title>
<g id="a_Node000002"><a xlink:href="../../dd/d1d/class_slic3r_1_1_extrusion_entity_collection.html#a070e11fc22337694455b1ce77e838eec" target="_top" xlink:title=" ">
<polygon fill="white" stroke="#666666" points="350,-30.5 193,-30.5 193,0 350,0 350,-30.5"/>
<text text-anchor="start" x="201" y="-17" font-family="Helvetica,sans-Serif" font-size="10.00">Slic3r::ExtrusionEntityCollection</text>
<text text-anchor="middle" x="271.5" y="-5.75" font-family="Helvetica,sans-Serif" font-size="10.00">::append</text>
</a>
</g>
</g>
<!-- Node1&#45;&gt;Node2 -->
<g id="edge1_Node000001_Node000002" class="edge">
<title>Node1&#45;&gt;Node2</title>
<g id="a_edge1_Node000001_Node000002"><a xlink:title=" ">
<path fill="none" stroke="#63b8ff" d="M157.46,-15.25C165.57,-15.25 173.85,-15.25 182.06,-15.25"/>
<polygon fill="#63b8ff" stroke="#63b8ff" points="181.79,-18.75 191.79,-15.25 181.79,-11.75 181.79,-18.75"/>
</a>
</g>
</g>
<!-- Node3 -->
<g id="Node000003" class="node">
<title>Node3</title>
<g id="a_Node000003"><a xlink:href="../../de/d7c/class_slic3r_1_1_extrusion_entity.html#a10835c866b730ea4dfc171ebe7051084" target="_top" xlink:title=" ">
<polygon fill="white" stroke="#666666" points="499.5,-30.5 386,-30.5 386,0 499.5,0 499.5,-30.5"/>
<text text-anchor="start" x="394" y="-17" font-family="Helvetica,sans-Serif" font-size="10.00">Slic3r::ExtrusionEntity</text>
<text text-anchor="middle" x="442.75" y="-5.75" font-family="Helvetica,sans-Serif" font-size="10.00">::clone</text>
</a>
</g>
</g>
<!-- Node2&#45;&gt;Node3 -->
<g id="edge2_Node000002_Node000003" class="edge">
<title>Node2&#45;&gt;Node3</title>
<g id="a_edge2_Node000002_Node000003"><a xlink:title=" ">
<path fill="none" stroke="#63b8ff" d="M350.19,-15.25C358.43,-15.25 366.77,-15.25 374.87,-15.25"/>
<polygon fill="#63b8ff" stroke="#63b8ff" points="374.76,-18.75 384.76,-15.25 374.76,-11.75 374.76,-18.75"/>
</a>
</g>
</g>
</g>
</svg>
