<?xml version="1.0" encoding="UTF-8" standalone="no"?>
<!DOCTYPE svg PUBLIC "-//W3C//DTD SVG 1.1//EN"
 "http://www.w3.org/Graphics/SVG/1.1/DTD/svg11.dtd">
<!-- Generated by graphviz version 8.0.5 (20230430.1635)
 -->
<!-- Title: ClipperLib::AddPolyNodeToPaths Pages: 1 -->
<svg width="460pt" height="88pt"
 viewBox="0.00 0.00 460.25 87.50" xmlns="http://www.w3.org/2000/svg" xmlns:xlink="http://www.w3.org/1999/xlink">

<svg id="main" version="1.1" xmlns="http://www.w3.org/2000/svg" xmlns:xlink="http://www.w3.org/1999/xlink" xml:space="preserve" onload="init(evt)">
<style type="text/css"><![CDATA[
.node, .edge {opacity: 0.7;}
.node.selected, .edge.selected {opacity: 1;}
.edge:hover path { stroke: red; }
.edge:hover polygon { stroke: red; fill: red; }
]]></style>
<script type="application/ecmascript" xlink:href="../../svg.min.js"/>
<svg id="graph" class="graph">
<g id="graph0" class="graph" transform="scale(1 1) rotate(0) translate(4 83.5)">
<title>ClipperLib::AddPolyNodeToPaths</title>
<!-- Node1 -->
<g id="Node000001" class="node">
<title>Node1</title>
<g id="a_Node000001"><a xlink:title=" ">
<polygon fill="#999999" stroke="#666666" points="136,-54.5 0,-54.5 0,-24 136,-24 136,-54.5"/>
<text text-anchor="start" x="8" y="-41" font-family="Helvetica,sans-Serif" font-size="10.00">ClipperLib::AddPolyNodeTo</text>
<text text-anchor="middle" x="68" y="-29.75" font-family="Helvetica,sans-Serif" font-size="10.00">Paths</text>
</a>
</g>
</g>
<!-- Node2 -->
<g id="Node000002" class="node">
<title>Node2</title>
<g id="a_Node000002"><a xlink:href="../../de/d37/namespace_clipper_lib.html#a4644758856e780ca359c3e37065397a6" target="_top" xlink:title=" ">
<polygon fill="white" stroke="#666666" points="308,-54.5 172,-54.5 172,-24 308,-24 308,-54.5"/>
<text text-anchor="start" x="180" y="-41" font-family="Helvetica,sans-Serif" font-size="10.00">ClipperLib::AddPolyNodeTo</text>
<text text-anchor="middle" x="240" y="-29.75" font-family="Helvetica,sans-Serif" font-size="10.00">Paths</text>
</a>
</g>
</g>
<!-- Node1&#45;&gt;Node2 -->
<g id="edge1_Node000001_Node000002" class="edge">
<title>Node1&#45;&gt;Node2</title>
<g id="a_edge1_Node000001_Node000002"><a xlink:title=" ">
<path fill="none" stroke="#63b8ff" d="M136.19,-39.25C144.32,-39.25 152.68,-39.25 160.95,-39.25"/>
<polygon fill="#63b8ff" stroke="#63b8ff" points="160.74,-42.75 170.74,-39.25 160.74,-35.75 160.74,-42.75"/>
</a>
</g>
</g>
<!-- Node2&#45;&gt;Node2 -->
<g id="edge2_Node000002_Node000002" class="edge">
<title>Node2&#45;&gt;Node2</title>
<g id="a_edge2_Node000002_Node000002"><a xlink:title=" ">
<path fill="none" stroke="#63b8ff" d="M211.98,-54.99C206.26,-64.06 215.6,-72.5 240,-72.5 253.72,-72.5 262.68,-69.83 266.88,-65.88"/>
<polygon fill="#63b8ff" stroke="#63b8ff" points="270.46,-66.3 268.02,-55.99 263.5,-65.57 270.46,-66.3"/>
</a>
</g>
</g>
<!-- Node3 -->
<g id="Node000003" class="node">
<title>Node3</title>
<g id="a_Node000003"><a xlink:href="../../d2/df1/class_clipper_lib_1_1_poly_node.html#a19128db6fb2aca66555231edaffa7ade" target="_top" xlink:title=" ">
<polygon fill="white" stroke="#666666" points="452.25,-79.5 344,-79.5 344,-49 452.25,-49 452.25,-79.5"/>
<text text-anchor="start" x="352" y="-66" font-family="Helvetica,sans-Serif" font-size="10.00">ClipperLib::PolyNode</text>
<text text-anchor="middle" x="398.12" y="-54.75" font-family="Helvetica,sans-Serif" font-size="10.00">::ChildCount</text>
</a>
</g>
</g>
<!-- Node2&#45;&gt;Node3 -->
<g id="edge3_Node000002_Node000003" class="edge">
<title>Node2&#45;&gt;Node3</title>
<g id="a_edge3_Node000002_Node000003"><a xlink:title=" ">
<path fill="none" stroke="#63b8ff" d="M308.12,-50C316.39,-51.32 324.83,-52.67 333.06,-53.99"/>
<polygon fill="#63b8ff" stroke="#63b8ff" points="332.3,-57.57 342.72,-55.7 333.4,-50.66 332.3,-57.57"/>
</a>
</g>
</g>
<!-- Node4 -->
<g id="Node000004" class="node">
<title>Node4</title>
<g id="a_Node000004"><a xlink:href="../../d2/df1/class_clipper_lib_1_1_poly_node.html#ac9ade640af2515976d337b65e8e84776" target="_top" xlink:title=" ">
<polygon fill="white" stroke="#666666" points="452.25,-30.5 344,-30.5 344,0 452.25,0 452.25,-30.5"/>
<text text-anchor="start" x="352" y="-17" font-family="Helvetica,sans-Serif" font-size="10.00">ClipperLib::PolyNode</text>
<text text-anchor="middle" x="398.12" y="-5.75" font-family="Helvetica,sans-Serif" font-size="10.00">::IsOpen</text>
</a>
</g>
</g>
<!-- Node2&#45;&gt;Node4 -->
<g id="edge4_Node000002_Node000004" class="edge">
<title>Node2&#45;&gt;Node4</title>
<g id="a_edge4_Node000002_Node000004"><a xlink:title=" ">
<path fill="none" stroke="#63b8ff" d="M308.12,-28.93C316.39,-27.66 324.83,-26.36 333.06,-25.1"/>
<polygon fill="#63b8ff" stroke="#63b8ff" points="333.37,-28.44 342.72,-23.46 332.31,-21.52 333.37,-28.44"/>
</a>
</g>
</g>
</g>
</svg>
</svg>

<style type='text/css'>
<![CDATA[
[data-mouse-over-selected='false'] { opacity: 0.7; }
[data-mouse-over-selected='true']  { opacity: 1.0; }
]]>
</style>
<script type="application/ecmascript"><![CDATA[
document.addEventListener('DOMContentLoaded', (event) => {
  highlightEdges();
  highlightAdjacentNodes();
});
]]></script>
</svg>
