<?xml version="1.0" encoding="UTF-8" standalone="no"?>
<!DOCTYPE svg PUBLIC "-//W3C//DTD SVG 1.1//EN"
 "http://www.w3.org/Graphics/SVG/1.1/DTD/svg11.dtd">
<!-- Generated by graphviz version 8.0.5 (20230430.1635)
 -->
<!-- Title: src/avrdude/dfu.c Pages: 1 -->
<svg width="891pt" height="193pt"
 viewBox="0.00 0.00 891.00 193.00" xmlns="http://www.w3.org/2000/svg" xmlns:xlink="http://www.w3.org/1999/xlink">
<g id="graph0" class="graph" transform="scale(1 1) rotate(0) translate(4 189)">
<title>src/avrdude/dfu.c</title>
<!-- Node1 -->
<g id="Node000001" class="node">
<title>Node1</title>
<g id="a_Node000001"><a xlink:title=" ">
<polygon fill="#999999" stroke="#666666" points="439.5,-185 347.75,-185 347.75,-165.75 439.5,-165.75 439.5,-185"/>
<text text-anchor="middle" x="393.62" y="-171.5" font-family="Helvetica,sans-Serif" font-size="10.00">src/avrdude/dfu.c</text>
</a>
</g>
</g>
<!-- Node2 -->
<g id="Node000002" class="node">
<title>Node2</title>
<g id="a_Node000002"><a xlink:href="../../d0/d29/ac__cfg_8h.html" target="_top" xlink:title=" ">
<polygon fill="white" stroke="#666666" points="325.38,-74.5 271.88,-74.5 271.88,-55.25 325.38,-55.25 325.38,-74.5"/>
<text text-anchor="middle" x="298.62" y="-61" font-family="Helvetica,sans-Serif" font-size="10.00">ac_cfg.h</text>
</a>
</g>
</g>
<!-- Node1&#45;&gt;Node2 -->
<g id="edge1_Node000001_Node000002" class="edge">
<title>Node1&#45;&gt;Node2</title>
<g id="a_edge1_Node000001_Node000002"><a xlink:title=" ">
<path fill="none" stroke="#63b8ff" d="M369.13,-165.29C352.67,-158.01 331.68,-146.27 318.62,-129.75 308.48,-116.92 303.45,-98.88 300.97,-85.25"/>
<polygon fill="#63b8ff" stroke="#63b8ff" points="304.32,-85.02 299.39,-75.64 297.4,-86.05 304.32,-85.02"/>
</a>
</g>
</g>
<!-- Node3 -->
<g id="Node000003" class="node">
<title>Node3</title>
<g id="a_Node000003"><a xlink:title=" ">
<polygon fill="#e0e0e0" stroke="#999999" points="45.25,-74.5 0,-74.5 0,-55.25 45.25,-55.25 45.25,-74.5"/>
<text text-anchor="middle" x="22.62" y="-61" font-family="Helvetica,sans-Serif" font-size="10.00">stdio.h</text>
</a>
</g>
</g>
<!-- Node1&#45;&gt;Node3 -->
<g id="edge2_Node000001_Node000003" class="edge">
<title>Node1&#45;&gt;Node3</title>
<g id="a_edge2_Node000001_Node000003"><a xlink:title=" ">
<path fill="none" stroke="#63b8ff" d="M347.33,-170.25C296.72,-164.77 213.74,-152.97 145.62,-129.75 108.96,-117.25 69.76,-95.21 45.72,-80.57"/>
<polygon fill="#63b8ff" stroke="#63b8ff" points="47.74,-77.09 37.4,-74.8 44.06,-83.04 47.74,-77.09"/>
</a>
</g>
</g>
<!-- Node4 -->
<g id="Node000004" class="node">
<title>Node4</title>
<g id="a_Node000004"><a xlink:title=" ">
<polygon fill="#e0e0e0" stroke="#999999" points="457.38,-74.5 409.88,-74.5 409.88,-55.25 457.38,-55.25 457.38,-74.5"/>
<text text-anchor="middle" x="433.62" y="-61" font-family="Helvetica,sans-Serif" font-size="10.00">stdlib.h</text>
</a>
</g>
</g>
<!-- Node1&#45;&gt;Node4 -->
<g id="edge3_Node000001_Node000004" class="edge">
<title>Node1&#45;&gt;Node4</title>
<g id="a_edge3_Node000001_Node000004"><a xlink:title=" ">
<path fill="none" stroke="#63b8ff" d="M396.9,-165.5C403.34,-148.01 417.81,-108.77 426.54,-85.09"/>
<polygon fill="#63b8ff" stroke="#63b8ff" points="430.13,-86.47 430.31,-75.88 423.56,-84.05 430.13,-86.47"/>
</a>
</g>
</g>
<!-- Node5 -->
<g id="Node000005" class="node">
<title>Node5</title>
<g id="a_Node000005"><a xlink:title=" ">
<polygon fill="#e0e0e0" stroke="#999999" points="111.75,-74.5 63.5,-74.5 63.5,-55.25 111.75,-55.25 111.75,-74.5"/>
<text text-anchor="middle" x="87.62" y="-61" font-family="Helvetica,sans-Serif" font-size="10.00">stdint.h</text>
</a>
</g>
</g>
<!-- Node1&#45;&gt;Node5 -->
<g id="edge4_Node000001_Node000005" class="edge">
<title>Node1&#45;&gt;Node5</title>
<g id="a_edge4_Node000001_Node000005"><a xlink:title=" ">
<path fill="none" stroke="#63b8ff" d="M347.55,-169.4C304.42,-163.62 238.82,-151.89 185.62,-129.75 156.11,-117.46 125.84,-96.14 106.9,-81.53"/>
<polygon fill="#63b8ff" stroke="#63b8ff" points="109.36,-78.22 99.33,-74.78 105.02,-83.72 109.36,-78.22"/>
</a>
</g>
</g>
<!-- Node6 -->
<g id="Node000006" class="node">
<title>Node6</title>
<g id="a_Node000006"><a xlink:title=" ">
<polygon fill="#e0e0e0" stroke="#999999" points="590.75,-129.75 542.5,-129.75 542.5,-110.5 590.75,-110.5 590.75,-129.75"/>
<text text-anchor="middle" x="566.62" y="-116.25" font-family="Helvetica,sans-Serif" font-size="10.00">string.h</text>
</a>
</g>
</g>
<!-- Node1&#45;&gt;Node6 -->
<g id="edge5_Node000001_Node000006" class="edge">
<title>Node1&#45;&gt;Node6</title>
<g id="a_edge5_Node000001_Node000006"><a xlink:title=" ">
<path fill="none" stroke="#63b8ff" d="M422.97,-165.34C453.11,-156.06 500.01,-141.63 531.96,-131.79"/>
<polygon fill="#63b8ff" stroke="#63b8ff" points="532.65,-134.94 541.18,-128.65 530.59,-128.25 532.65,-134.94"/>
</a>
</g>
</g>
<!-- Node7 -->
<g id="Node000007" class="node">
<title>Node7</title>
<g id="a_Node000007"><a xlink:title=" ">
<polygon fill="#e0e0e0" stroke="#999999" points="391.38,-74.5 343.88,-74.5 343.88,-55.25 391.38,-55.25 391.38,-74.5"/>
<text text-anchor="middle" x="367.62" y="-61" font-family="Helvetica,sans-Serif" font-size="10.00">limits.h</text>
</a>
</g>
</g>
<!-- Node1&#45;&gt;Node7 -->
<g id="edge6_Node000001_Node000007" class="edge">
<title>Node1&#45;&gt;Node7</title>
<g id="a_edge6_Node000001_Node000007"><a xlink:title=" ">
<path fill="none" stroke="#63b8ff" d="M391.5,-165.5C387.33,-148.09 377.99,-109.12 372.31,-85.41"/>
<polygon fill="#63b8ff" stroke="#63b8ff" points="375.52,-84.79 369.78,-75.88 368.71,-86.42 375.52,-84.79"/>
</a>
</g>
</g>
<!-- Node8 -->
<g id="Node000008" class="node">
<title>Node8</title>
<g id="a_Node000008"><a xlink:href="../../da/d6f/unistd_8h.html" target="_top" xlink:title=" ">
<polygon fill="white" stroke="#666666" points="524.88,-129.75 474.38,-129.75 474.38,-110.5 524.88,-110.5 524.88,-129.75"/>
<text text-anchor="middle" x="499.62" y="-116.25" font-family="Helvetica,sans-Serif" font-size="10.00">unistd.h</text>
</a>
</g>
</g>
<!-- Node1&#45;&gt;Node8 -->
<g id="edge7_Node000001_Node000008" class="edge">
<title>Node1&#45;&gt;Node8</title>
<g id="a_edge7_Node000001_Node000008"><a xlink:title=" ">
<path fill="none" stroke="#63b8ff" d="M411.61,-165.34C428.13,-157.04 452.87,-144.61 471.92,-135.04"/>
<polygon fill="#63b8ff" stroke="#63b8ff" points="473.19,-137.82 480.56,-130.2 470.05,-131.56 473.19,-137.82"/>
</a>
</g>
</g>
<!-- Node16 -->
<g id="Node000016" class="node">
<title>Node16</title>
<g id="a_Node000016"><a xlink:href="../../db/daf/avrdude_8h.html" target="_top" xlink:title=" ">
<polygon fill="white" stroke="#666666" points="668,-129.75 609.25,-129.75 609.25,-110.5 668,-110.5 668,-129.75"/>
<text text-anchor="middle" x="638.62" y="-116.25" font-family="Helvetica,sans-Serif" font-size="10.00">avrdude.h</text>
</a>
</g>
</g>
<!-- Node1&#45;&gt;Node16 -->
<g id="edge16_Node000001_Node000016" class="edge">
<title>Node1&#45;&gt;Node16</title>
<g id="a_edge16_Node000001_Node000016"><a xlink:title=" ">
<path fill="none" stroke="#63b8ff" d="M435.85,-165.28C475.3,-156.78 536.13,-143.63 598.41,-130.01"/>
<polygon fill="#63b8ff" stroke="#63b8ff" points="598.8,-133.29 607.82,-127.73 597.3,-126.45 598.8,-133.29"/>
</a>
</g>
</g>
<!-- Node17 -->
<g id="Node000017" class="node">
<title>Node17</title>
<g id="a_Node000017"><a xlink:href="../../d2/d68/libavrdude_8h.html" target="_top" xlink:title=" ">
<polygon fill="white" stroke="#666666" points="262.88,-129.75 194.38,-129.75 194.38,-110.5 262.88,-110.5 262.88,-129.75"/>
<text text-anchor="middle" x="228.62" y="-116.25" font-family="Helvetica,sans-Serif" font-size="10.00">libavrdude.h</text>
</a>
</g>
</g>
<!-- Node1&#45;&gt;Node17 -->
<g id="edge17_Node000001_Node000017" class="edge">
<title>Node1&#45;&gt;Node17</title>
<g id="a_edge17_Node000001_Node000017"><a xlink:title=" ">
<path fill="none" stroke="#63b8ff" d="M365.63,-165.34C338.49,-156.58 297.11,-143.23 266.92,-133.48"/>
<polygon fill="#63b8ff" stroke="#63b8ff" points="268.34,-129.94 257.75,-130.2 266.19,-136.6 268.34,-129.94"/>
</a>
</g>
</g>
<!-- Node20 -->
<g id="Node000020" class="node">
<title>Node20</title>
<g id="a_Node000020"><a xlink:href="../../db/d35/dfu_8h.html" target="_top" xlink:title=" ">
<polygon fill="white" stroke="#666666" points="365.5,-129.75 327.75,-129.75 327.75,-110.5 365.5,-110.5 365.5,-129.75"/>
<text text-anchor="middle" x="346.62" y="-116.25" font-family="Helvetica,sans-Serif" font-size="10.00">dfu.h</text>
</a>
</g>
</g>
<!-- Node1&#45;&gt;Node20 -->
<g id="edge24_Node000001_Node000020" class="edge">
<title>Node1&#45;&gt;Node20</title>
<g id="a_edge24_Node000001_Node000020"><a xlink:title=" ">
<path fill="none" stroke="#63b8ff" d="M385.86,-165.58C379.3,-158.15 369.72,-147.29 361.66,-138.16"/>
<polygon fill="#63b8ff" stroke="#63b8ff" points="364.8,-136.29 355.55,-131.11 359.55,-140.92 364.8,-136.29"/>
</a>
</g>
</g>
<!-- Node21 -->
<g id="Node000021" class="node">
<title>Node21</title>
<g id="a_Node000021"><a xlink:href="../../dc/dca/usbdevs_8h.html" target="_top" xlink:title=" ">
<polygon fill="white" stroke="#666666" points="747.12,-129.75 686.12,-129.75 686.12,-110.5 747.12,-110.5 747.12,-129.75"/>
<text text-anchor="middle" x="716.62" y="-116.25" font-family="Helvetica,sans-Serif" font-size="10.00">usbdevs.h</text>
</a>
</g>
</g>
<!-- Node1&#45;&gt;Node21 -->
<g id="edge27_Node000001_Node000021" class="edge">
<title>Node1&#45;&gt;Node21</title>
<g id="a_edge27_Node000001_Node000021"><a xlink:title=" ">
<path fill="none" stroke="#63b8ff" d="M439.84,-167.9C493.84,-160.15 586.13,-146.35 675.1,-129.94"/>
<polygon fill="#63b8ff" stroke="#63b8ff" points="675.46,-133.25 684.65,-127.98 674.18,-126.37 675.46,-133.25"/>
</a>
</g>
</g>
<!-- Node8&#45;&gt;Node4 -->
<g id="edge8_Node000008_Node000004" class="edge">
<title>Node8&#45;&gt;Node4</title>
<g id="a_edge8_Node000008_Node000004"><a xlink:title=" ">
<path fill="none" stroke="#63b8ff" d="M488.43,-110.09C478.79,-102.32 464.67,-90.92 453.18,-81.65"/>
<polygon fill="#63b8ff" stroke="#63b8ff" points="455.64,-78.33 445.66,-74.77 451.24,-83.78 455.64,-78.33"/>
</a>
</g>
</g>
<!-- Node9 -->
<g id="Node000009" class="node">
<title>Node9</title>
<g id="a_Node000009"><a xlink:href="../../d0/db2/_i_o_8h.html" target="_top" xlink:title=" ">
<polygon fill="white" stroke="#666666" points="736.5,-74.5 704.75,-74.5 704.75,-55.25 736.5,-55.25 736.5,-74.5"/>
<text text-anchor="middle" x="720.62" y="-61" font-family="Helvetica,sans-Serif" font-size="10.00">io.h</text>
</a>
</g>
</g>
<!-- Node8&#45;&gt;Node9 -->
<g id="edge9_Node000008_Node000009" class="edge">
<title>Node8&#45;&gt;Node9</title>
<g id="a_edge9_Node000008_Node000009"><a xlink:title=" ">
<path fill="none" stroke="#63b8ff" d="M525.22,-112.54C528.06,-111.84 530.9,-111.15 533.62,-110.5 602.16,-94.2 622.81,-94.49 693.92,-74.73"/>
<polygon fill="#63b8ff" stroke="#63b8ff" points="694.63,-77.89 703.3,-71.8 692.73,-71.15 694.63,-77.89"/>
</a>
</g>
</g>
<!-- Node10 -->
<g id="Node000010" class="node">
<title>Node10</title>
<g id="a_Node000010"><a xlink:href="../../da/d47/getopt_8h.html" target="_top" xlink:title=" ">
<polygon fill="white" stroke="#666666" points="806.25,-74.5 755,-74.5 755,-55.25 806.25,-55.25 806.25,-74.5"/>
<text text-anchor="middle" x="780.62" y="-61" font-family="Helvetica,sans-Serif" font-size="10.00">getopt.h</text>
</a>
</g>
</g>
<!-- Node8&#45;&gt;Node10 -->
<g id="edge10_Node000008_Node000010" class="edge">
<title>Node8&#45;&gt;Node10</title>
<g id="a_edge10_Node000008_Node000010"><a xlink:title=" ">
<path fill="none" stroke="#63b8ff" d="M525.19,-112.4C528.03,-111.73 530.88,-111.08 533.62,-110.5 623.84,-91.43 650.22,-93.75 744.14,-74.67"/>
<polygon fill="#63b8ff" stroke="#63b8ff" points="744.59,-77.94 753.68,-72.49 743.18,-71.08 744.59,-77.94"/>
</a>
</g>
</g>
<!-- Node12 -->
<g id="Node000012" class="node">
<title>Node12</title>
<g id="a_Node000012"><a xlink:title=" ">
<polygon fill="#e0e0e0" stroke="#999999" points="883,-74.5 824.25,-74.5 824.25,-55.25 883,-55.25 883,-74.5"/>
<text text-anchor="middle" x="853.62" y="-61" font-family="Helvetica,sans-Serif" font-size="10.00">process.h</text>
</a>
</g>
</g>
<!-- Node8&#45;&gt;Node12 -->
<g id="edge12_Node000008_Node000012" class="edge">
<title>Node8&#45;&gt;Node12</title>
<g id="a_edge12_Node000008_Node000012"><a xlink:title=" ">
<path fill="none" stroke="#63b8ff" d="M525.17,-112.29C528.01,-111.64 530.87,-111.02 533.62,-110.5 654.36,-87.57 689.31,-96.01 813.15,-74.79"/>
<polygon fill="#63b8ff" stroke="#63b8ff" points="813.56,-78.1 822.81,-72.93 812.36,-71.2 813.56,-78.1"/>
</a>
</g>
</g>
<!-- Node13 -->
<g id="Node000013" class="node">
<title>Node13</title>
<g id="a_Node000013"><a xlink:title=" ">
<polygon fill="#e0e0e0" stroke="#999999" points="523.75,-74.5 475.5,-74.5 475.5,-55.25 523.75,-55.25 523.75,-74.5"/>
<text text-anchor="middle" x="499.62" y="-61" font-family="Helvetica,sans-Serif" font-size="10.00">direct.h</text>
</a>
</g>
</g>
<!-- Node8&#45;&gt;Node13 -->
<g id="edge13_Node000008_Node000013" class="edge">
<title>Node8&#45;&gt;Node13</title>
<g id="a_edge13_Node000008_Node000013"><a xlink:title=" ">
<path fill="none" stroke="#63b8ff" d="M499.62,-110.33C499.62,-103.67 499.62,-94.24 499.62,-85.78"/>
<polygon fill="#63b8ff" stroke="#63b8ff" points="503.13,-85.86 499.62,-75.86 496.13,-85.86 503.13,-85.86"/>
</a>
</g>
</g>
<!-- Node14 -->
<g id="Node000014" class="node">
<title>Node14</title>
<g id="a_Node000014"><a xlink:title=" ">
<polygon fill="#e0e0e0" stroke="#999999" points="609.12,-74.5 542.12,-74.5 542.12,-55.25 609.12,-55.25 609.12,-74.5"/>
<text text-anchor="middle" x="575.62" y="-61" font-family="Helvetica,sans-Serif" font-size="10.00">sys/types.h</text>
</a>
</g>
</g>
<!-- Node8&#45;&gt;Node14 -->
<g id="edge14_Node000008_Node000014" class="edge">
<title>Node8&#45;&gt;Node14</title>
<g id="a_edge14_Node000008_Node000014"><a xlink:title=" ">
<path fill="none" stroke="#63b8ff" d="M512.52,-110.09C523.87,-102.14 540.64,-90.39 554.04,-81"/>
<polygon fill="#63b8ff" stroke="#63b8ff" points="555.49,-83.56 561.67,-74.95 551.47,-77.82 555.49,-83.56"/>
</a>
</g>
</g>
<!-- Node15 -->
<g id="Node000015" class="node">
<title>Node15</title>
<g id="a_Node000015"><a xlink:title=" ">
<polygon fill="#e0e0e0" stroke="#999999" points="686.38,-74.5 626.88,-74.5 626.88,-55.25 686.38,-55.25 686.38,-74.5"/>
<text text-anchor="middle" x="656.62" y="-61" font-family="Helvetica,sans-Serif" font-size="10.00">sys/stat.h</text>
</a>
</g>
</g>
<!-- Node8&#45;&gt;Node15 -->
<g id="edge15_Node000008_Node000015" class="edge">
<title>Node8&#45;&gt;Node15</title>
<g id="a_edge15_Node000008_Node000015"><a xlink:title=" ">
<path fill="none" stroke="#63b8ff" d="M525.2,-110.45C550.81,-101.76 590.5,-88.3 619.57,-78.44"/>
<polygon fill="#63b8ff" stroke="#63b8ff" points="620.4,-81.52 628.75,-74.99 618.15,-74.89 620.4,-81.52"/>
</a>
</g>
</g>
<!-- Node11 -->
<g id="Node000011" class="node">
<title>Node11</title>
<g id="a_Node000011"><a xlink:title=" ">
<polygon fill="#e0e0e0" stroke="#999999" points="804.75,-19.25 756.5,-19.25 756.5,0 804.75,0 804.75,-19.25"/>
<text text-anchor="middle" x="780.62" y="-5.75" font-family="Helvetica,sans-Serif" font-size="10.00">ctype.h</text>
</a>
</g>
</g>
<!-- Node10&#45;&gt;Node11 -->
<g id="edge11_Node000010_Node000011" class="edge">
<title>Node10&#45;&gt;Node11</title>
<g id="a_edge11_Node000010_Node000011"><a xlink:title=" ">
<path fill="none" stroke="#63b8ff" d="M780.62,-55.08C780.62,-48.42 780.62,-38.99 780.62,-30.53"/>
<polygon fill="#63b8ff" stroke="#63b8ff" points="784.13,-30.61 780.62,-20.61 777.13,-30.61 784.13,-30.61"/>
</a>
</g>
</g>
<!-- Node17&#45;&gt;Node2 -->
<g id="edge18_Node000017_Node000002" class="edge">
<title>Node17&#45;&gt;Node2</title>
<g id="a_edge18_Node000017_Node000002"><a xlink:title=" ">
<path fill="none" stroke="#63b8ff" d="M240.5,-110.09C250.82,-102.24 265.99,-90.7 278.25,-81.37"/>
<polygon fill="#63b8ff" stroke="#63b8ff" points="280.09,-83.61 285.93,-74.77 275.85,-78.04 280.09,-83.61"/>
</a>
</g>
</g>
<!-- Node17&#45;&gt;Node3 -->
<g id="edge19_Node000017_Node000003" class="edge">
<title>Node17&#45;&gt;Node3</title>
<g id="a_edge19_Node000017_Node000003"><a xlink:title=" ">
<path fill="none" stroke="#63b8ff" d="M193.93,-110.36C160.91,-101.99 109.58,-88.9 56.06,-74.85"/>
<polygon fill="#63b8ff" stroke="#63b8ff" points="57.25,-71.28 46.69,-72.13 55.47,-78.05 57.25,-71.28"/>
</a>
</g>
</g>
<!-- Node17&#45;&gt;Node5 -->
<g id="edge22_Node000017_Node000005" class="edge">
<title>Node17&#45;&gt;Node5</title>
<g id="a_edge22_Node000017_Node000005"><a xlink:title=" ">
<path fill="none" stroke="#63b8ff" d="M204.71,-110.09C181.92,-101.49 147.38,-88.44 121.71,-78.75"/>
<polygon fill="#63b8ff" stroke="#63b8ff" points="123.25,-75.21 112.66,-74.95 120.78,-81.76 123.25,-75.21"/>
</a>
</g>
</g>
<!-- Node17&#45;&gt;Node7 -->
<g id="edge20_Node000017_Node000007" class="edge">
<title>Node17&#45;&gt;Node7</title>
<g id="a_edge20_Node000017_Node000007"><a xlink:title=" ">
<path fill="none" stroke="#63b8ff" d="M252.2,-110.09C274.57,-101.52 308.42,-88.56 333.69,-78.88"/>
<polygon fill="#63b8ff" stroke="#63b8ff" points="334.84,-81.8 342.93,-74.95 332.34,-75.26 334.84,-81.8"/>
</a>
</g>
</g>
<!-- Node18 -->
<g id="Node000018" class="node">
<title>Node18</title>
<g id="a_Node000018"><a xlink:title=" ">
<polygon fill="#e0e0e0" stroke="#999999" points="185.5,-74.5 129.75,-74.5 129.75,-55.25 185.5,-55.25 185.5,-74.5"/>
<text text-anchor="middle" x="157.62" y="-61" font-family="Helvetica,sans-Serif" font-size="10.00">stdbool.h</text>
</a>
</g>
</g>
<!-- Node17&#45;&gt;Node18 -->
<g id="edge21_Node000017_Node000018" class="edge">
<title>Node17&#45;&gt;Node18</title>
<g id="a_edge21_Node000017_Node000018"><a xlink:title=" ">
<path fill="none" stroke="#63b8ff" d="M216.58,-110.09C206.11,-102.24 190.72,-90.7 178.29,-81.37"/>
<polygon fill="#63b8ff" stroke="#63b8ff" points="180.59,-77.97 170.49,-74.77 176.39,-83.57 180.59,-77.97"/>
</a>
</g>
</g>
<!-- Node19 -->
<g id="Node000019" class="node">
<title>Node19</title>
<g id="a_Node000019"><a xlink:title=" ">
<polygon fill="#e0e0e0" stroke="#999999" points="253.5,-74.5 203.75,-74.5 203.75,-55.25 253.5,-55.25 253.5,-74.5"/>
<text text-anchor="middle" x="228.62" y="-61" font-family="Helvetica,sans-Serif" font-size="10.00">alloca.h</text>
</a>
</g>
</g>
<!-- Node17&#45;&gt;Node19 -->
<g id="edge23_Node000017_Node000019" class="edge">
<title>Node17&#45;&gt;Node19</title>
<g id="a_edge23_Node000017_Node000019"><a xlink:title=" ">
<path fill="none" stroke="#63b8ff" d="M228.62,-110.33C228.62,-103.67 228.62,-94.24 228.62,-85.78"/>
<polygon fill="#63b8ff" stroke="#63b8ff" points="232.13,-85.86 228.62,-75.86 225.13,-85.86 232.13,-85.86"/>
</a>
</g>
</g>
<!-- Node20&#45;&gt;Node2 -->
<g id="edge25_Node000020_Node000002" class="edge">
<title>Node20&#45;&gt;Node2</title>
<g id="a_edge25_Node000020_Node000002"><a xlink:title=" ">
<path fill="none" stroke="#63b8ff" d="M338.7,-110.33C332,-102.9 322.21,-92.04 313.98,-82.91"/>
<polygon fill="#63b8ff" stroke="#63b8ff" points="317.02,-80.94 307.72,-75.86 311.82,-85.63 317.02,-80.94"/>
</a>
</g>
</g>
<!-- Node20&#45;&gt;Node7 -->
<g id="edge26_Node000020_Node000007" class="edge">
<title>Node20&#45;&gt;Node7</title>
<g id="a_edge26_Node000020_Node000007"><a xlink:title=" ">
<path fill="none" stroke="#63b8ff" d="M350.09,-110.33C352.81,-103.44 356.7,-93.59 360.12,-84.91"/>
<polygon fill="#63b8ff" stroke="#63b8ff" points="363.67,-86.45 364.08,-75.86 357.16,-83.88 363.67,-86.45"/>
</a>
</g>
</g>
</g>
</svg>
