<?xml version="1.0" encoding="UTF-8" standalone="no"?>
<!DOCTYPE svg PUBLIC "-//W3C//DTD SVG 1.1//EN"
 "http://www.w3.org/Graphics/SVG/1.1/DTD/svg11.dtd">
<!-- Generated by graphviz version 8.0.5 (20230430.1635)
 -->
<!-- Title: Slic3r::GUI::GUI_App::import_zip Pages: 1 -->
<svg width="568pt" height="155pt"
 viewBox="0.00 0.00 567.75 154.50" xmlns="http://www.w3.org/2000/svg" xmlns:xlink="http://www.w3.org/1999/xlink">
<g id="graph0" class="graph" transform="scale(1 1) rotate(0) translate(4 150.5)">
<title>Slic3r::GUI::GUI_App::import_zip</title>
<!-- Node1 -->
<g id="Node000001" class="node">
<title>Node1</title>
<g id="a_Node000001"><a xlink:title=" ">
<polygon fill="#999999" stroke="#666666" points="111.25,-73.5 0,-73.5 0,-43 111.25,-43 111.25,-73.5"/>
<text text-anchor="start" x="8" y="-60" font-family="Helvetica,sans-Serif" font-size="10.00">Slic3r::GUI::GUI_App</text>
<text text-anchor="middle" x="55.62" y="-48.75" font-family="Helvetica,sans-Serif" font-size="10.00">::import_zip</text>
</a>
</g>
</g>
<!-- Node2 -->
<g id="Node000002" class="node">
<title>Node2</title>
<g id="a_Node000002"><a xlink:href="../../d9/d45/namespace_slic3r_1_1_g_u_i.html#a33a9ce47c9746b2fa6d6d2b4aee8cd20" target="_top" xlink:title=" ">
<polygon fill="white" stroke="#666666" points="277.25,-122.88 147.25,-122.88 147.25,-103.62 277.25,-103.62 277.25,-122.88"/>
<text text-anchor="middle" x="212.25" y="-109.38" font-family="Helvetica,sans-Serif" font-size="10.00">Slic3r::GUI::file_wildcards</text>
</a>
</g>
</g>
<!-- Node1&#45;&gt;Node2 -->
<g id="edge1_Node000001_Node000002" class="edge">
<title>Node1&#45;&gt;Node2</title>
<g id="a_edge1_Node000001_Node000002"><a xlink:title=" ">
<path fill="none" stroke="#63b8ff" d="M92.43,-73.96C108.95,-80.93 128.93,-88.96 147.25,-95.25 152.11,-96.92 157.22,-98.55 162.34,-100.11"/>
<polygon fill="#63b8ff" stroke="#63b8ff" points="161.21,-103.72 171.79,-103.2 163.19,-97.01 161.21,-103.72"/>
</a>
</g>
</g>
<!-- Node5 -->
<g id="Node000005" class="node">
<title>Node5</title>
<g id="a_Node000005"><a xlink:href="../../d9/d45/namespace_slic3r_1_1_g_u_i.html#ac911e01665ff9c00414a1d5d0352de74" target="_top" xlink:title=" ">
<polygon fill="white" stroke="#666666" points="265.25,-67.88 159.25,-67.88 159.25,-48.62 265.25,-48.62 265.25,-67.88"/>
<text text-anchor="middle" x="212.25" y="-54.38" font-family="Helvetica,sans-Serif" font-size="10.00">Slic3r::GUI::from_u8</text>
</a>
</g>
</g>
<!-- Node1&#45;&gt;Node5 -->
<g id="edge5_Node000001_Node000005" class="edge">
<title>Node1&#45;&gt;Node5</title>
<g id="a_edge5_Node000001_Node000005"><a xlink:title=" ">
<path fill="none" stroke="#63b8ff" d="M111.58,-58.25C123.34,-58.25 135.86,-58.25 147.91,-58.25"/>
<polygon fill="#63b8ff" stroke="#63b8ff" points="147.81,-61.75 157.81,-58.25 147.81,-54.75 147.81,-61.75"/>
</a>
</g>
</g>
<!-- Node6 -->
<g id="Node000006" class="node">
<title>Node6</title>
<g id="a_Node000006"><a xlink:href="../../da/d00/class_slic3r_1_1_app_config.html#ad8892934050775e0743e4a67816b40e6" target="_top" xlink:title=" ">
<polygon fill="white" stroke="#666666" points="261.5,-30.5 163,-30.5 163,0 261.5,0 261.5,-30.5"/>
<text text-anchor="start" x="171" y="-17" font-family="Helvetica,sans-Serif" font-size="10.00">Slic3r::AppConfig::</text>
<text text-anchor="middle" x="212.25" y="-5.75" font-family="Helvetica,sans-Serif" font-size="10.00">get_last_dir</text>
</a>
</g>
</g>
<!-- Node1&#45;&gt;Node6 -->
<g id="edge7_Node000001_Node000006" class="edge">
<title>Node1&#45;&gt;Node6</title>
<g id="a_edge7_Node000001_Node000006"><a xlink:title=" ">
<path fill="none" stroke="#63b8ff" d="M111.58,-42.97C124.73,-39.31 138.82,-35.39 152.15,-31.68"/>
<polygon fill="#63b8ff" stroke="#63b8ff" points="152.95,-34.82 161.64,-28.77 151.07,-28.07 152.95,-34.82"/>
</a>
</g>
</g>
<!-- Node3 -->
<g id="Node000003" class="node">
<title>Node3</title>
<g id="a_Node000003"><a xlink:href="../../d9/d45/namespace_slic3r_1_1_g_u_i.html#a252e4767c2ea4b09fe7996e808719812" target="_top" xlink:title=" ">
<polygon fill="white" stroke="#666666" points="411.75,-128.5 313.25,-128.5 313.25,-98 411.75,-98 411.75,-128.5"/>
<text text-anchor="start" x="321.25" y="-115" font-family="Helvetica,sans-Serif" font-size="10.00">Slic3r::GUI::format</text>
<text text-anchor="middle" x="362.5" y="-103.75" font-family="Helvetica,sans-Serif" font-size="10.00">_wxstr</text>
</a>
</g>
</g>
<!-- Node2&#45;&gt;Node3 -->
<g id="edge2_Node000002_Node000003" class="edge">
<title>Node2&#45;&gt;Node3</title>
<g id="a_edge2_Node000002_Node000003"><a xlink:title=" ">
<path fill="none" stroke="#63b8ff" d="M277.41,-113.25C285.59,-113.25 293.93,-113.25 302.03,-113.25"/>
<polygon fill="#63b8ff" stroke="#63b8ff" points="301.89,-116.75 311.89,-113.25 301.89,-109.75 301.89,-116.75"/>
</a>
</g>
</g>
<!-- Node3&#45;&gt;Node3 -->
<g id="edge4_Node000003_Node000003" class="edge">
<title>Node3&#45;&gt;Node3</title>
<g id="a_edge4_Node000003_Node000003"><a xlink:title=" ">
<path fill="none" stroke="#63b8ff" d="M337.47,-128.99C332.36,-138.06 340.71,-146.5 362.5,-146.5 374.76,-146.5 382.76,-143.83 386.51,-139.88"/>
<polygon fill="#63b8ff" stroke="#63b8ff" points="390.08,-140.27 387.53,-129.99 383.11,-139.62 390.08,-140.27"/>
</a>
</g>
</g>
<!-- Node4 -->
<g id="Node000004" class="node">
<title>Node4</title>
<g id="a_Node000004"><a xlink:href="../../d5/ddc/namespace_slic3r_1_1internal_1_1format.html#a5a8cae6889e58c9be36cd70a9e9987ff" target="_top" xlink:title=" ">
<polygon fill="white" stroke="#666666" points="559.75,-128.5 447.75,-128.5 447.75,-98 559.75,-98 559.75,-128.5"/>
<text text-anchor="start" x="455.75" y="-115" font-family="Helvetica,sans-Serif" font-size="10.00">Slic3r::internal::format</text>
<text text-anchor="middle" x="503.75" y="-103.75" font-family="Helvetica,sans-Serif" font-size="10.00">::format_recursive</text>
</a>
</g>
</g>
<!-- Node3&#45;&gt;Node4 -->
<g id="edge3_Node000003_Node000004" class="edge">
<title>Node3&#45;&gt;Node4</title>
<g id="a_edge3_Node000003_Node000004"><a xlink:title=" ">
<path fill="none" stroke="#63b8ff" d="M412.2,-113.25C420.16,-113.25 428.53,-113.25 436.82,-113.25"/>
<polygon fill="#63b8ff" stroke="#63b8ff" points="436.65,-116.75 446.65,-113.25 436.65,-109.75 436.65,-116.75"/>
</a>
</g>
</g>
<!-- Node5&#45;&gt;Node5 -->
<g id="edge6_Node000005_Node000005" class="edge">
<title>Node5&#45;&gt;Node5</title>
<g id="a_edge6_Node000005_Node000005"><a xlink:title=" ">
<path fill="none" stroke="#63b8ff" d="M188.73,-68.16C178,-76.77 185.84,-85.88 212.25,-85.88 227.93,-85.88 237.07,-82.67 239.65,-78.26"/>
<polygon fill="#63b8ff" stroke="#63b8ff" points="242.63,-77.24 235.77,-69.16 236.1,-79.75 242.63,-77.24"/>
</a>
</g>
</g>
</g>
</svg>
