<?xml version="1.0" encoding="UTF-8" standalone="no"?>
<!DOCTYPE svg PUBLIC "-//W3C//DTD SVG 1.1//EN"
 "http://www.w3.org/Graphics/SVG/1.1/DTD/svg11.dtd">
<!-- Generated by graphviz version 8.0.5 (20230430.1635)
 -->
<!-- Title: Slic3r::GUI::GUI_App::select_language Pages: 1 -->
<!--zoomable 266 -->

<svg id="main" version="1.1" xmlns="http://www.w3.org/2000/svg" xmlns:xlink="http://www.w3.org/1999/xlink" xml:space="preserve" onload="init(evt)">
<style type="text/css"><![CDATA[
.node, .edge {opacity: 0.7;}
.node.selected, .edge.selected {opacity: 1;}
.edge:hover path { stroke: red; }
.edge:hover polygon { stroke: red; fill: red; }
]]></style>

<defs>
  <circle id="rim" cx="0" cy="0" r="7"/>
  <circle id="rim2" cx="0" cy="0" r="3.5"/>
  <g id="zoomPlus">
    <use xlink:href="#rim" fill="#404040"><set attributeName="fill" to="#808080" begin="zoomplus.mouseover" end="zoomplus.mouseout"/></use>
    <path d="M-4,0h8M0,-4v8" fill="none" stroke="white" stroke-width="1.5" pointer-events="none"/>
  </g>
  <g id="zoomMin">
    <use xlink:href="#rim" fill="#404040"><set attributeName="fill" to="#808080" begin="zoomminus.mouseover" end="zoomminus.mouseout"/></use>
    <path d="M-4,0h8" fill="none" stroke="white" stroke-width="1.5" pointer-events="none"/>
  </g>
  <g id="arrowUp" transform="translate(30 24)">
    <use xlink:href="#rim"/>
    <path pointer-events="none" fill="none" stroke="white" stroke-width="1.5" d="M0,-3.0v7 M-2.5,-0.5L0,-3.0L2.5,-0.5"/>
  </g>
  <g id="arrowRight" transform="rotate(90) translate(36 -43)">
    <use xlink:href="#rim"/>
    <path pointer-events="none" fill="none" stroke="white" stroke-width="1.5" d="M0,-3.0v7 M-2.5,-0.5L0,-3.0L2.5,-0.5"/>
  </g>
  <g id="arrowDown" transform="rotate(180) translate(-30 -48)">
    <use xlink:href="#rim"/>
    <path pointer-events="none" fill="none" stroke="white" stroke-width="1.5" d="M0,-3.0v7 M-2.5,-0.5L0,-3.0L2.5,-0.5"/>
  </g>
  <g id="arrowLeft" transform="rotate(270) translate(-36 17)">
    <use xlink:href="#rim"/>
    <path pointer-events="none" fill="none" stroke="white" stroke-width="1.5" d="M0,-3.0v7 M-2.5,-0.5L0,-3.0L2.5,-0.5"/>
  </g>
  <g id="resetDef">
    <use xlink:href="#rim2" fill="#404040"><set attributeName="fill" to="#808080" begin="reset.mouseover" end="reset.mouseout"/></use>
  </g>
</defs>
<script type="application/ecmascript">
var viewWidth = 681;
var viewHeight = 266;
var sectionId = 'dynsection-105';
</script>
<script type="application/ecmascript" xlink:href="../../svg.min.js"/>
<svg id="graph" class="graph">
<g id="viewport">
<title>Slic3r::GUI::GUI_App::select_language</title>
<!-- Node1 -->
<g id="Node000001" class="node">
<title>Node1</title>
<g id="a_Node000001"><a xlink:title=" ">
<polygon fill="#999999" stroke="#666666" points="111.25,-115.5 0,-115.5 0,-85 111.25,-85 111.25,-115.5"/>
<text text-anchor="start" x="8" y="-102" font-family="Helvetica,sans-Serif" font-size="10.00">Slic3r::GUI::GUI_App</text>
<text text-anchor="middle" x="55.62" y="-90.75" font-family="Helvetica,sans-Serif" font-size="10.00">::select_language</text>
</a>
</g>
</g>
<!-- Node2 -->
<g id="Node000002" class="node">
<title>Node2</title>
<g id="a_Node000002"><a xlink:href="../../d9/d01/class_slic3r_1_1_g_u_i_1_1_g_u_i___app.html#abbc5aba7385135cad1249a4ebe8dd1ef" target="_top" xlink:title=" ">
<polygon fill="white" stroke="#666666" points="266.75,-186.5 147.25,-186.5 147.25,-156 266.75,-156 266.75,-186.5"/>
<text text-anchor="start" x="155.25" y="-173" font-family="Helvetica,sans-Serif" font-size="10.00">Slic3r::GUI::GUI_App</text>
<text text-anchor="middle" x="207" y="-161.75" font-family="Helvetica,sans-Serif" font-size="10.00">::GetSingleChoiceIndex</text>
</a>
</g>
</g>
<!-- Node1&#45;&gt;Node2 -->
<g id="edge1_Node000001_Node000002" class="edge">
<title>Node1&#45;&gt;Node2</title>
<g id="a_edge1_Node000001_Node000002"><a xlink:title=" ">
<path fill="none" stroke="#63b8ff" d="M86.17,-115.88C103.77,-125.03 126.62,-136.64 147.25,-146.25 150.83,-147.92 154.54,-149.6 158.29,-151.27"/>
<polygon fill="#63b8ff" stroke="#63b8ff" points="156.66,-154.81 167.22,-155.62 159.47,-148.4 156.66,-154.81"/>
</a>
</g>
</g>
<!-- Node3 -->
<g id="Node000003" class="node">
<title>Node3</title>
<g id="a_Node000003"><a xlink:href="../../d9/d01/class_slic3r_1_1_g_u_i_1_1_g_u_i___app.html#a1e6b794c292fc8283bf0ac553f34781b" target="_top" xlink:title=" ">
<polygon fill="white" stroke="#666666" points="262.62,-137.5 151.38,-137.5 151.38,-107 262.62,-107 262.62,-137.5"/>
<text text-anchor="start" x="159.38" y="-124" font-family="Helvetica,sans-Serif" font-size="10.00">Slic3r::GUI::GUI_App</text>
<text text-anchor="middle" x="207" y="-112.75" font-family="Helvetica,sans-Serif" font-size="10.00">::load_language</text>
</a>
</g>
</g>
<!-- Node1&#45;&gt;Node3 -->
<g id="edge2_Node000001_Node000003" class="edge">
<title>Node1&#45;&gt;Node3</title>
<g id="a_edge2_Node000001_Node000003"><a xlink:title=" ">
<path fill="none" stroke="#63b8ff" d="M111.4,-108.32C120.78,-109.7 130.6,-111.15 140.23,-112.56"/>
<polygon fill="#63b8ff" stroke="#63b8ff" points="139.58,-116.15 149.98,-114.15 140.6,-109.23 139.58,-116.15"/>
</a>
</g>
</g>
<!-- Node12 -->
<g id="Node000012" class="node">
<title>Node12</title>
<g id="a_Node000012"><a xlink:href="../../da/d00/class_slic3r_1_1_app_config.html#afc2a15b4991ac27542441e54589a699e" target="_top" xlink:title=" ">
<polygon fill="white" stroke="#666666" points="263,-88.88 151,-88.88 151,-69.62 263,-69.62 263,-88.88"/>
<text text-anchor="middle" x="207" y="-75.38" font-family="Helvetica,sans-Serif" font-size="10.00">Slic3r::AppConfig::set</text>
</a>
</g>
</g>
<!-- Node1&#45;&gt;Node12 -->
<g id="edge13_Node000001_Node000012" class="edge">
<title>Node1&#45;&gt;Node12</title>
<g id="a_edge13_Node000001_Node000012"><a xlink:title=" ">
<path fill="none" stroke="#63b8ff" d="M111.4,-92.55C120.72,-91.24 130.48,-89.87 140.05,-88.52"/>
<polygon fill="#63b8ff" stroke="#63b8ff" points="140.32,-91.88 149.73,-87.02 139.34,-84.95 140.32,-91.88"/>
</a>
</g>
</g>
<!-- Node13 -->
<g id="Node000013" class="node">
<title>Node13</title>
<g id="a_Node000013"><a xlink:href="../../de/db8/namespace_slic3r.html#aa3af3ee03fdd2fbda072bbea6de1f8fc" target="_top" xlink:title=" ">
<polygon fill="white" stroke="#666666" points="257.38,-51.5 156.62,-51.5 156.62,-21 257.38,-21 257.38,-51.5"/>
<text text-anchor="start" x="164.62" y="-38" font-family="Helvetica,sans-Serif" font-size="10.00">Slic3r::sort_remove</text>
<text text-anchor="middle" x="207" y="-26.75" font-family="Helvetica,sans-Serif" font-size="10.00">_duplicates</text>
</a>
</g>
</g>
<!-- Node1&#45;&gt;Node13 -->
<g id="edge14_Node000001_Node000013" class="edge">
<title>Node1&#45;&gt;Node13</title>
<g id="a_edge14_Node000001_Node000013"><a xlink:title=" ">
<path fill="none" stroke="#63b8ff" d="M91.38,-84.64C108.21,-77.15 128.73,-68.12 147.25,-60.25 150.44,-58.89 153.74,-57.51 157.07,-56.12"/>
<polygon fill="#63b8ff" stroke="#63b8ff" points="158.17,-59.04 166.07,-51.98 155.49,-52.57 158.17,-59.04"/>
</a>
</g>
</g>
<!-- Node4 -->
<g id="Node000004" class="node">
<title>Node4</title>
<g id="a_Node000004"><a xlink:href="../../d9/d45/namespace_slic3r_1_1_g_u_i.html#a931a812146d00b37d0b68093aca9d688" target="_top" xlink:title=" ">
<polygon fill="white" stroke="#666666" points="408,-251.88 309.5,-251.88 309.5,-232.62 408,-232.62 408,-251.88"/>
<text text-anchor="middle" x="358.75" y="-238.38" font-family="Helvetica,sans-Serif" font-size="10.00">Slic3r::GUI::format</text>
</a>
</g>
</g>
<!-- Node3&#45;&gt;Node4 -->
<g id="edge3_Node000003_Node000004" class="edge">
<title>Node3&#45;&gt;Node4</title>
<g id="a_edge3_Node000003_Node000004"><a xlink:title=" ">
<path fill="none" stroke="#63b8ff" d="M254.34,-137.97C258.84,-140.63 263.08,-143.71 266.75,-147.25 293.93,-173.49 274.47,-199.2 302.75,-224.25 303.77,-225.15 304.83,-226 305.93,-226.82"/>
<polygon fill="#63b8ff" stroke="#63b8ff" points="303.6,-230.1 313.98,-232.24 307.2,-224.1 303.6,-230.1"/>
</a>
</g>
</g>
<!-- Node7 -->
<g id="Node000007" class="node">
<title>Node7</title>
<g id="a_Node000007"><a xlink:href="../../d9/d45/namespace_slic3r_1_1_g_u_i.html#ac911e01665ff9c00414a1d5d0352de74" target="_top" xlink:title=" ">
<polygon fill="white" stroke="#666666" points="411.75,-196.88 305.75,-196.88 305.75,-177.62 411.75,-177.62 411.75,-196.88"/>
<text text-anchor="middle" x="358.75" y="-183.38" font-family="Helvetica,sans-Serif" font-size="10.00">Slic3r::GUI::from_u8</text>
</a>
</g>
</g>
<!-- Node3&#45;&gt;Node7 -->
<g id="edge6_Node000003_Node000007" class="edge">
<title>Node3&#45;&gt;Node7</title>
<g id="a_edge6_Node000003_Node000007"><a xlink:title=" ">
<path fill="none" stroke="#63b8ff" d="M246.93,-137.86C253.62,-140.82 260.44,-144 266.75,-147.25 283.42,-155.83 285.72,-161.39 302.75,-169.25 305.94,-170.72 309.29,-172.13 312.69,-173.46"/>
<polygon fill="#63b8ff" stroke="#63b8ff" points="311.36,-177.07 321.95,-177.22 313.76,-170.49 311.36,-177.07"/>
</a>
</g>
</g>
<!-- Node8 -->
<g id="Node000008" class="node">
<title>Node8</title>
<g id="a_Node000008"><a xlink:href="../../da/d00/class_slic3r_1_1_app_config.html#acf6d4a1479686546dfe4d1044de077b2" target="_top" xlink:title=" ">
<polygon fill="white" stroke="#666666" points="414.75,-159.88 302.75,-159.88 302.75,-140.62 414.75,-140.62 414.75,-159.88"/>
<text text-anchor="middle" x="358.75" y="-146.38" font-family="Helvetica,sans-Serif" font-size="10.00">Slic3r::AppConfig::get</text>
</a>
</g>
</g>
<!-- Node3&#45;&gt;Node8 -->
<g id="edge8_Node000003_Node000008" class="edge">
<title>Node3&#45;&gt;Node8</title>
<g id="a_edge8_Node000003_Node000008"><a xlink:title=" ">
<path fill="none" stroke="#63b8ff" d="M262.91,-132.52C272.72,-134.35 283.02,-136.28 293.07,-138.16"/>
<polygon fill="#63b8ff" stroke="#63b8ff" points="292.37,-141.77 302.85,-140.17 293.66,-134.89 292.37,-141.77"/>
</a>
</g>
</g>
<!-- Node9 -->
<g id="Node000009" class="node">
<title>Node9</title>
<g id="a_Node000009"><a xlink:href="../../d9/d45/namespace_slic3r_1_1_g_u_i.html#a9fb3c1c57b9214c5fcd28fa70c299769" target="_top" xlink:title=" ">
<polygon fill="white" stroke="#666666" points="409.88,-104.88 307.62,-104.88 307.62,-85.62 409.88,-85.62 409.88,-104.88"/>
<text text-anchor="middle" x="358.75" y="-91.38" font-family="Helvetica,sans-Serif" font-size="10.00">Slic3r::GUI::into_u8</text>
</a>
</g>
</g>
<!-- Node3&#45;&gt;Node9 -->
<g id="edge9_Node000003_Node000009" class="edge">
<title>Node3&#45;&gt;Node9</title>
<g id="a_edge9_Node000003_Node000009"><a xlink:title=" ">
<path fill="none" stroke="#63b8ff" d="M262.91,-112.35C273.92,-110.36 285.55,-108.27 296.74,-106.25"/>
<polygon fill="#63b8ff" stroke="#63b8ff" points="297.1,-109.56 306.32,-104.34 295.85,-102.67 297.1,-109.56"/>
</a>
</g>
</g>
<!-- Node10 -->
<g id="Node000010" class="node">
<title>Node10</title>
<g id="a_Node000010"><a xlink:href="../../de/db8/namespace_slic3r.html#ae284f61dda1c49ef6639a45875652cd7" target="_top" xlink:title=" ">
<polygon fill="white" stroke="#666666" points="414.38,-67.88 303.12,-67.88 303.12,-48.62 414.38,-48.62 414.38,-67.88"/>
<text text-anchor="middle" x="358.75" y="-54.38" font-family="Helvetica,sans-Serif" font-size="10.00">Slic3r::localization_dir</text>
</a>
</g>
</g>
<!-- Node3&#45;&gt;Node10 -->
<g id="edge11_Node000003_Node000010" class="edge">
<title>Node3&#45;&gt;Node10</title>
<g id="a_edge11_Node000003_Node000010"><a xlink:title=" ">
<path fill="none" stroke="#63b8ff" d="M248.84,-106.56C254.91,-103.94 261.05,-101.13 266.75,-98.25 283.48,-89.79 285.72,-84.11 302.75,-76.25 305.94,-74.78 309.29,-73.37 312.69,-72.04"/>
<polygon fill="#63b8ff" stroke="#63b8ff" points="313.76,-75.01 321.95,-68.28 311.36,-68.43 313.76,-75.01"/>
</a>
</g>
</g>
<!-- Node11 -->
<g id="Node000011" class="node">
<title>Node11</title>
<g id="a_Node000011"><a xlink:href="../../d9/db2/class_slic3r_1_1_preset.html#a08b6accc0c23ac3c4c3f50ac5ffdfdc8" target="_top" xlink:title=" ">
<polygon fill="white" stroke="#666666" points="414,-30.5 303.5,-30.5 303.5,0 414,0 414,-30.5"/>
<text text-anchor="start" x="311.5" y="-17" font-family="Helvetica,sans-Serif" font-size="10.00">Slic3r::Preset::update</text>
<text text-anchor="middle" x="358.75" y="-5.75" font-family="Helvetica,sans-Serif" font-size="10.00">_suffix_modified</text>
</a>
</g>
</g>
<!-- Node3&#45;&gt;Node11 -->
<g id="edge12_Node000003_Node000011" class="edge">
<title>Node3&#45;&gt;Node11</title>
<g id="a_edge12_Node000003_Node000011"><a xlink:title=" ">
<path fill="none" stroke="#63b8ff" d="M254.55,-106.6C258.9,-104.16 263.06,-101.39 266.75,-98.25 290.14,-78.33 279.6,-59.44 302.75,-39.25 303.77,-38.36 304.82,-37.51 305.9,-36.68"/>
<polygon fill="#63b8ff" stroke="#63b8ff" points="307.32,-39.28 313.73,-30.85 303.46,-33.44 307.32,-39.28"/>
</a>
</g>
</g>
<!-- Node5 -->
<g id="Node000005" class="node">
<title>Node5</title>
<g id="a_Node000005"><a xlink:href="../../de/db8/namespace_slic3r.html#ab28c13d286b2d1767d7c63b020ebd042" target="_top" xlink:title=" ">
<polygon fill="white" stroke="#666666" points="525.25,-251.88 450.75,-251.88 450.75,-232.62 525.25,-232.62 525.25,-251.88"/>
<text text-anchor="middle" x="488" y="-238.38" font-family="Helvetica,sans-Serif" font-size="10.00">Slic3r::format</text>
</a>
</g>
</g>
<!-- Node4&#45;&gt;Node5 -->
<g id="edge4_Node000004_Node000005" class="edge">
<title>Node4&#45;&gt;Node5</title>
<g id="a_edge4_Node000004_Node000005"><a xlink:title=" ">
<path fill="none" stroke="#63b8ff" d="M408.22,-242.25C418.54,-242.25 429.42,-242.25 439.69,-242.25"/>
<polygon fill="#63b8ff" stroke="#63b8ff" points="439.54,-245.75 449.54,-242.25 439.54,-238.75 439.54,-245.75"/>
</a>
</g>
</g>
<!-- Node6 -->
<g id="Node000006" class="node">
<title>Node6</title>
<g id="a_Node000006"><a xlink:href="../../d5/ddc/namespace_slic3r_1_1internal_1_1format.html#a5a8cae6889e58c9be36cd70a9e9987ff" target="_top" xlink:title=" ">
<polygon fill="white" stroke="#666666" points="673.25,-257.5 561.25,-257.5 561.25,-227 673.25,-227 673.25,-257.5"/>
<text text-anchor="start" x="569.25" y="-244" font-family="Helvetica,sans-Serif" font-size="10.00">Slic3r::internal::format</text>
<text text-anchor="middle" x="617.25" y="-232.75" font-family="Helvetica,sans-Serif" font-size="10.00">::format_recursive</text>
</a>
</g>
</g>
<!-- Node5&#45;&gt;Node6 -->
<g id="edge5_Node000005_Node000006" class="edge">
<title>Node5&#45;&gt;Node6</title>
<g id="a_edge5_Node000005_Node000006"><a xlink:title=" ">
<path fill="none" stroke="#63b8ff" d="M525.46,-242.25C533.12,-242.25 541.43,-242.25 549.8,-242.25"/>
<polygon fill="#63b8ff" stroke="#63b8ff" points="549.8,-245.75 559.8,-242.25 549.8,-238.75 549.8,-245.75"/>
</a>
</g>
</g>
<!-- Node7&#45;&gt;Node7 -->
<g id="edge7_Node000007_Node000007" class="edge">
<title>Node7&#45;&gt;Node7</title>
<g id="a_edge7_Node000007_Node000007"><a xlink:title=" ">
<path fill="none" stroke="#63b8ff" d="M338.52,-197.16C329.29,-205.77 336.03,-214.88 358.75,-214.88 371.88,-214.88 379.68,-211.83 382.14,-207.6"/>
<polygon fill="#63b8ff" stroke="#63b8ff" points="385.23,-206.72 378.98,-198.16 378.53,-208.75 385.23,-206.72"/>
</a>
</g>
</g>
<!-- Node9&#45;&gt;Node9 -->
<g id="edge10_Node000009_Node000009" class="edge">
<title>Node9&#45;&gt;Node9</title>
<g id="a_edge10_Node000009_Node000009"><a xlink:title=" ">
<path fill="none" stroke="#63b8ff" d="M338.52,-105.16C329.29,-113.77 336.03,-122.88 358.75,-122.88 371.88,-122.88 379.68,-119.83 382.14,-115.6"/>
<polygon fill="#63b8ff" stroke="#63b8ff" points="385.23,-114.72 378.98,-106.16 378.53,-116.75 385.23,-114.72"/>
</a>
</g>
</g>
</g>
</svg>

<g id="navigator" transform="translate(0 0)" fill="#404254">
  <rect fill="#f2f5e9" fill-opacity="0.5" stroke="#606060" stroke-width=".5" x="0" y="0" width="60" height="60"/>
  <use id="zoomplus" xlink:href="#zoomPlus" x="17" y="9" onmousedown="handleZoom(evt,'in')"/>
  <use id="zoomminus" xlink:href="#zoomMin" x="42" y="9" onmousedown="handleZoom(evt,'out')"/>
  <use id="reset" xlink:href="#resetDef" x="30" y="36" onmousedown="handleReset()"/>
   <use id="arrowup" xlink:href="#arrowUp" x="0" y="0" onmousedown="handlePan(0,-1)"/>
  <use id="arrowright" xlink:href="#arrowRight" x="0" y="0" onmousedown="handlePan(1,0)"/>
  <use id="arrowdown" xlink:href="#arrowDown" x="0" y="0" onmousedown="handlePan(0,1)"/>
  <use id="arrowleft" xlink:href="#arrowLeft" x="0" y="0" onmousedown="handlePan(-1,0)"/>
</g>
<svg viewBox="0 0 15 15" width="100%" height="30px" preserveAspectRatio="xMaxYMin meet">
 <g id="arrow_out" transform="scale(0.3 0.3)">
  <a xlink:href="class_slic3r_1_1_g_u_i_1_1_g_u_i___app_aafaf3141aa8138519c037206b088d916_cgraph_org.svg" target="_base">
   <rect id="button" ry="5" rx="5" y="6" x="6" height="38" width="38"
        fill="#f2f5e9" fill-opacity="0.5" stroke="#606060" stroke-width="1.0"/>
   <path id="arrow"
     d="M 11.500037,31.436501 C 11.940474,20.09759 22.043105,11.32322 32.158766,21.979434 L 37.068811,17.246167 C 37.068811,17.246167 37.088388,32 37.088388,32 L 22.160133,31.978069 C 22.160133,31.978069 26.997745,27.140456 26.997745,27.140456 C 18.528582,18.264221 13.291696,25.230495 11.500037,31.436501 z"
     style="fill:#404040;"/>
  </a>
 </g>
</svg>

<style type='text/css'>
<![CDATA[
[data-mouse-over-selected='false'] { opacity: 0.7; }
[data-mouse-over-selected='true']  { opacity: 1.0; }
]]>
</style>
<script type="application/ecmascript"><![CDATA[
document.addEventListener('DOMContentLoaded', (event) => {
  highlightEdges();
  highlightAdjacentNodes();
});
]]></script>
</svg>
