<?xml version="1.0" encoding="UTF-8" standalone="no"?>
<!DOCTYPE svg PUBLIC "-//W3C//DTD SVG 1.1//EN"
 "http://www.w3.org/Graphics/SVG/1.1/DTD/svg11.dtd">
<!-- Generated by graphviz version 8.0.5 (20230430.1635)
 -->
<!-- Title: Slic3r::GUI::ObjectDataViewModelNode::SetWarningIconName Pages: 1 -->
<svg width="1218pt" height="501pt"
 viewBox="0.00 0.00 1218.00 500.75" xmlns="http://www.w3.org/2000/svg" xmlns:xlink="http://www.w3.org/1999/xlink">
<g id="graph0" class="graph" transform="scale(1 1) rotate(0) translate(4 496.75)">
<title>Slic3r::GUI::ObjectDataViewModelNode::SetWarningIconName</title>
<!-- Node1 -->
<g id="Node000001" class="node">
<title>Node1</title>
<g id="a_Node000001"><a xlink:title=" ">
<polygon fill="#999999" stroke="#666666" points="1210,-203.12 1043.25,-203.12 1043.25,-172.62 1210,-172.62 1210,-203.12"/>
<text text-anchor="start" x="1051.25" y="-189.62" font-family="Helvetica,sans-Serif" font-size="10.00">Slic3r::GUI::ObjectDataView</text>
<text text-anchor="middle" x="1126.62" y="-178.38" font-family="Helvetica,sans-Serif" font-size="10.00">ModelNode::SetWarningIconName</text>
</a>
</g>
</g>
<!-- Node2 -->
<g id="Node000002" class="node">
<title>Node2</title>
<g id="a_Node000002"><a xlink:href="../../d5/dcc/class_slic3r_1_1_g_u_i_1_1_object_data_view_model.html#abc0260fb9fd4622dc67ce246d1e85e2a" target="_top" xlink:title=" ">
<polygon fill="white" stroke="#666666" points="1004.25,-332.12 862.25,-332.12 862.25,-301.62 1004.25,-301.62 1004.25,-332.12"/>
<text text-anchor="start" x="870.25" y="-318.62" font-family="Helvetica,sans-Serif" font-size="10.00">Slic3r::GUI::ObjectDataView</text>
<text text-anchor="middle" x="933.25" y="-307.38" font-family="Helvetica,sans-Serif" font-size="10.00">Model::AddVolumeChild</text>
</a>
</g>
</g>
<!-- Node1&#45;&gt;Node2 -->
<g id="edge1_Node000001_Node000002" class="edge">
<title>Node1&#45;&gt;Node2</title>
<g id="a_edge1_Node000001_Node000002"><a xlink:title=" ">
<path fill="none" stroke="#63b8ff" d="M1093.81,-209.32C1055.33,-235.26 991.52,-278.27 957.42,-301.26"/>
<polygon fill="#63b8ff" stroke="#63b8ff" points="1095.2,-211.93 1101.54,-203.44 1091.29,-206.12 1095.2,-211.93"/>
</a>
</g>
</g>
<!-- Node38 -->
<g id="Node000038" class="node">
<title>Node38</title>
<g id="a_Node000038"><a xlink:href="../../d5/dcc/class_slic3r_1_1_g_u_i_1_1_object_data_view_model.html#adfc392b115acf6e4b3948699c9ba670e" target="_top" xlink:title=" ">
<polygon fill="white" stroke="#666666" points="1004.25,-203.12 862.25,-203.12 862.25,-172.62 1004.25,-172.62 1004.25,-203.12"/>
<text text-anchor="start" x="870.25" y="-189.62" font-family="Helvetica,sans-Serif" font-size="10.00">Slic3r::GUI::ObjectDataView</text>
<text text-anchor="middle" x="933.25" y="-178.38" font-family="Helvetica,sans-Serif" font-size="10.00">Model::DeleteWarningIcon</text>
</a>
</g>
</g>
<!-- Node1&#45;&gt;Node38 -->
<g id="edge25_Node000001_Node000038" class="edge">
<title>Node1&#45;&gt;Node38</title>
<g id="a_edge25_Node000001_Node000038"><a xlink:title=" ">
<path fill="none" stroke="#63b8ff" d="M1032.01,-187.88C1022.78,-187.88 1013.54,-187.88 1004.61,-187.88"/>
<polygon fill="#63b8ff" stroke="#63b8ff" points="1031.8,-191.38 1041.8,-187.88 1031.8,-184.38 1031.8,-191.38"/>
</a>
</g>
</g>
<!-- Node45 -->
<g id="Node000045" class="node">
<title>Node45</title>
<g id="a_Node000045"><a xlink:href="../../d5/dcc/class_slic3r_1_1_g_u_i_1_1_object_data_view_model.html#a73a14a01f438167bc775fffe5c184ac8" target="_top" xlink:title=" ">
<polygon fill="white" stroke="#666666" points="1007.25,-154.12 859.25,-154.12 859.25,-123.62 1007.25,-123.62 1007.25,-154.12"/>
<text text-anchor="start" x="867.25" y="-140.62" font-family="Helvetica,sans-Serif" font-size="10.00">Slic3r::GUI::ObjectDataView</text>
<text text-anchor="middle" x="933.25" y="-129.38" font-family="Helvetica,sans-Serif" font-size="10.00">Model::UpdateBitmapForNode</text>
</a>
</g>
</g>
<!-- Node1&#45;&gt;Node45 -->
<g id="edge34_Node000001_Node000045" class="edge">
<title>Node1&#45;&gt;Node45</title>
<g id="a_edge34_Node000001_Node000045"><a xlink:title=" ">
<path fill="none" stroke="#63b8ff" d="M1053.8,-169.48C1034.64,-164.58 1014.11,-159.32 995.57,-154.58"/>
<polygon fill="#63b8ff" stroke="#63b8ff" points="1052.73,-173.08 1063.28,-172.17 1054.46,-166.3 1052.73,-173.08"/>
</a>
</g>
</g>
<!-- Node3 -->
<g id="Node000003" class="node">
<title>Node3</title>
<g id="a_Node000003"><a xlink:href="../../dd/d03/class_slic3r_1_1_g_u_i_1_1_object_list.html#a56f44d86c87502199836e3e10a246e0f" target="_top" xlink:title=" ">
<polygon fill="white" stroke="#666666" points="814.62,-348.75 689.88,-348.75 689.88,-307 814.62,-307 814.62,-348.75"/>
<text text-anchor="start" x="697.88" y="-335.25" font-family="Helvetica,sans-Serif" font-size="10.00">Slic3r::GUI::ObjectList</text>
<text text-anchor="start" x="697.88" y="-324" font-family="Helvetica,sans-Serif" font-size="10.00">::add_volumes_to_object</text>
<text text-anchor="middle" x="752.25" y="-312.75" font-family="Helvetica,sans-Serif" font-size="10.00">_in_list</text>
</a>
</g>
</g>
<!-- Node2&#45;&gt;Node3 -->
<g id="edge2_Node000002_Node000003" class="edge">
<title>Node2&#45;&gt;Node3</title>
<g id="a_edge2_Node000002_Node000003"><a xlink:title=" ">
<path fill="none" stroke="#63b8ff" d="M850.79,-321.88C838.75,-322.62 826.52,-323.37 814.97,-324.08"/>
<polygon fill="#63b8ff" stroke="#63b8ff" points="850.99,-325.31 860.76,-321.21 850.57,-318.33 850.99,-325.31"/>
</a>
</g>
</g>
<!-- Node4 -->
<g id="Node000004" class="node">
<title>Node4</title>
<g id="a_Node000004"><a xlink:href="../../dd/d03/class_slic3r_1_1_g_u_i_1_1_object_list.html#a8481ccc124536622eca50f2a7647ad20" target="_top" xlink:title=" ">
<polygon fill="white" stroke="#666666" points="631,-262.12 516,-262.12 516,-231.62 631,-231.62 631,-262.12"/>
<text text-anchor="start" x="524" y="-248.62" font-family="Helvetica,sans-Serif" font-size="10.00">Slic3r::GUI::ObjectList</text>
<text text-anchor="middle" x="573.5" y="-237.38" font-family="Helvetica,sans-Serif" font-size="10.00">::add_object_to_list</text>
</a>
</g>
</g>
<!-- Node3&#45;&gt;Node4 -->
<g id="edge3_Node000003_Node000004" class="edge">
<title>Node3&#45;&gt;Node4</title>
<g id="a_edge3_Node000003_Node000004"><a xlink:title=" ">
<path fill="none" stroke="#63b8ff" d="M705.62,-301.18C687.21,-290.99 665.55,-279.7 645.25,-270.88 638.47,-267.93 631.2,-265.1 624,-262.49"/>
<polygon fill="#63b8ff" stroke="#63b8ff" points="703.77,-304.72 714.2,-306.56 707.19,-298.61 703.77,-304.72"/>
</a>
</g>
</g>
<!-- Node20 -->
<g id="Node000020" class="node">
<title>Node20</title>
<g id="a_Node000020"><a xlink:href="../../dd/d03/class_slic3r_1_1_g_u_i_1_1_object_list.html#ad30050a43a15f3a72c9a61151f6a6426" target="_top" xlink:title=" ">
<polygon fill="white" stroke="#666666" points="631.75,-492.75 515.25,-492.75 515.25,-451 631.75,-451 631.75,-492.75"/>
<text text-anchor="start" x="523.25" y="-479.25" font-family="Helvetica,sans-Serif" font-size="10.00">Slic3r::GUI::ObjectList</text>
<text text-anchor="start" x="523.25" y="-468" font-family="Helvetica,sans-Serif" font-size="10.00">::delete_all_connectors</text>
<text text-anchor="middle" x="573.5" y="-456.75" font-family="Helvetica,sans-Serif" font-size="10.00">_for_object</text>
</a>
</g>
</g>
<!-- Node3&#45;&gt;Node20 -->
<g id="edge15_Node000003_Node000020" class="edge">
<title>Node3&#45;&gt;Node20</title>
<g id="a_edge15_Node000003_Node000020"><a xlink:title=" ">
<path fill="none" stroke="#63b8ff" d="M728.33,-357.4C708.38,-381.64 677.64,-415.63 645.25,-438.88 639.3,-443.14 632.72,-447.08 626.03,-450.63"/>
<polygon fill="#63b8ff" stroke="#63b8ff" points="731.6,-359.93 735.18,-349.95 726.16,-355.52 731.6,-359.93"/>
</a>
</g>
</g>
<!-- Node32 -->
<g id="Node000032" class="node">
<title>Node32</title>
<g id="a_Node000032"><a xlink:href="../../dd/d03/class_slic3r_1_1_g_u_i_1_1_object_list.html#a2c4d2030455527108c6991ff98aa4229" target="_top" xlink:title=" ">
<polygon fill="white" stroke="#666666" points="631,-429.75 516,-429.75 516,-388 631,-388 631,-429.75"/>
<text text-anchor="start" x="524" y="-416.25" font-family="Helvetica,sans-Serif" font-size="10.00">Slic3r::GUI::ObjectList</text>
<text text-anchor="start" x="524" y="-405" font-family="Helvetica,sans-Serif" font-size="10.00">::invalidate_cut_info</text>
<text text-anchor="middle" x="573.5" y="-393.75" font-family="Helvetica,sans-Serif" font-size="10.00">_for_object</text>
</a>
</g>
</g>
<!-- Node3&#45;&gt;Node32 -->
<g id="edge18_Node000003_Node000032" class="edge">
<title>Node3&#45;&gt;Node32</title>
<g id="a_edge18_Node000003_Node000032"><a xlink:title=" ">
<path fill="none" stroke="#63b8ff" d="M698.44,-353.89C681.53,-362.06 662.67,-371 645.25,-378.88 638.93,-381.73 632.26,-384.67 625.64,-387.53"/>
<polygon fill="#63b8ff" stroke="#63b8ff" points="699.67,-356.7 707.15,-349.18 696.62,-350.4 699.67,-356.7"/>
</a>
</g>
</g>
<!-- Node36 -->
<g id="Node000036" class="node">
<title>Node36</title>
<g id="a_Node000036"><a xlink:href="../../dd/d03/class_slic3r_1_1_g_u_i_1_1_object_list.html#a6766ec6c03a6e7f55e41f1d8e352d8fb" target="_top" xlink:title=" ">
<polygon fill="white" stroke="#666666" points="631,-370.12 516,-370.12 516,-339.62 631,-339.62 631,-370.12"/>
<text text-anchor="start" x="524" y="-356.62" font-family="Helvetica,sans-Serif" font-size="10.00">Slic3r::GUI::ObjectList</text>
<text text-anchor="middle" x="573.5" y="-345.38" font-family="Helvetica,sans-Serif" font-size="10.00">::split</text>
</a>
</g>
</g>
<!-- Node3&#45;&gt;Node36 -->
<g id="edge23_Node000003_Node000036" class="edge">
<title>Node3&#45;&gt;Node36</title>
<g id="a_edge23_Node000003_Node000036"><a xlink:title=" ">
<path fill="none" stroke="#63b8ff" d="M678.63,-338.97C662.83,-341.38 646.33,-343.9 631.25,-346.21"/>
<polygon fill="#63b8ff" stroke="#63b8ff" points="679.07,-342.29 688.43,-337.32 678.02,-335.37 679.07,-342.29"/>
</a>
</g>
</g>
<!-- Node37 -->
<g id="Node000037" class="node">
<title>Node37</title>
<g id="a_Node000037"><a xlink:href="../../dd/d03/class_slic3r_1_1_g_u_i_1_1_object_list.html#a948e5804b0ccbd5037e578a5638669f9" target="_top" xlink:title=" ">
<polygon fill="white" stroke="#666666" points="631.75,-321.75 515.25,-321.75 515.25,-280 631.75,-280 631.75,-321.75"/>
<text text-anchor="start" x="523.25" y="-308.25" font-family="Helvetica,sans-Serif" font-size="10.00">Slic3r::GUI::ObjectList</text>
<text text-anchor="start" x="523.25" y="-297" font-family="Helvetica,sans-Serif" font-size="10.00">::update_object_list_by</text>
<text text-anchor="middle" x="573.5" y="-285.75" font-family="Helvetica,sans-Serif" font-size="10.00">_printer_technology</text>
</a>
</g>
</g>
<!-- Node3&#45;&gt;Node37 -->
<g id="edge24_Node000003_Node000037" class="edge">
<title>Node3&#45;&gt;Node37</title>
<g id="a_edge24_Node000003_Node000037"><a xlink:title=" ">
<path fill="none" stroke="#63b8ff" d="M678.8,-316.81C663.26,-314.43 647.03,-311.95 632.13,-309.68"/>
<polygon fill="#63b8ff" stroke="#63b8ff" points="678.02,-320.38 688.43,-318.43 679.07,-313.46 678.02,-320.38"/>
</a>
</g>
</g>
<!-- Node5 -->
<g id="Node000005" class="node">
<title>Node5</title>
<g id="a_Node000005"><a xlink:href="../../dd/d03/class_slic3r_1_1_g_u_i_1_1_object_list.html#a63fd4980638d47c3f371bd3c9eb68410" target="_top" xlink:title=" ">
<polygon fill="white" stroke="#666666" points="290.38,-236.75 164.88,-236.75 164.88,-195 290.38,-195 290.38,-236.75"/>
<text text-anchor="start" x="172.88" y="-223.25" font-family="Helvetica,sans-Serif" font-size="10.00">Slic3r::GUI::ObjectList</text>
<text text-anchor="start" x="172.88" y="-212" font-family="Helvetica,sans-Serif" font-size="10.00">::instances_to_separated</text>
<text text-anchor="middle" x="227.62" y="-200.75" font-family="Helvetica,sans-Serif" font-size="10.00">_object</text>
</a>
</g>
</g>
<!-- Node4&#45;&gt;Node5 -->
<g id="edge4_Node000004_Node000005" class="edge">
<title>Node4&#45;&gt;Node5</title>
<g id="a_edge4_Node000004_Node000005"><a xlink:title=" ">
<path fill="none" stroke="#63b8ff" d="M504.67,-247.55C458.23,-247.27 395.32,-245.45 340.25,-238.88 324.04,-236.94 306.69,-233.86 290.61,-230.58"/>
<polygon fill="#63b8ff" stroke="#63b8ff" points="504.49,-251.05 514.5,-247.58 504.52,-244.05 504.49,-251.05"/>
</a>
</g>
</g>
<!-- Node6 -->
<g id="Node000006" class="node">
<title>Node6</title>
<g id="a_Node000006"><a xlink:href="../../dd/d03/class_slic3r_1_1_g_u_i_1_1_object_list.html#a84b2daec7b4dfe3af81301a08a6f35d4" target="_top" xlink:title=" ">
<polygon fill="#fff0f0" stroke="red" points="115,-280.12 0,-280.12 0,-249.62 115,-249.62 115,-280.12"/>
<text text-anchor="start" x="8" y="-266.62" font-family="Helvetica,sans-Serif" font-size="10.00">Slic3r::GUI::ObjectList</text>
<text text-anchor="middle" x="57.5" y="-255.38" font-family="Helvetica,sans-Serif" font-size="10.00">::merge</text>
</a>
</g>
</g>
<!-- Node4&#45;&gt;Node6 -->
<g id="edge12_Node000004_Node000006" class="edge">
<title>Node4&#45;&gt;Node6</title>
<g id="a_edge12_Node000004_Node000006"><a xlink:title=" ">
<path fill="none" stroke="#63b8ff" d="M504.96,-253.4C491.95,-254.6 478.43,-255.81 465.75,-256.88 394.03,-262.9 376.18,-266.21 304.25,-268.88 236.19,-271.4 219.1,-270.35 151,-268.88 139.43,-268.62 127.05,-268.2 115.23,-267.72"/>
<polygon fill="#63b8ff" stroke="#63b8ff" points="505.1,-256.81 514.73,-252.4 504.45,-249.84 505.1,-256.81"/>
</a>
</g>
</g>
<!-- Node12 -->
<g id="Node000012" class="node">
<title>Node12</title>
<g id="a_Node000012"><a xlink:href="../../dd/d03/class_slic3r_1_1_g_u_i_1_1_object_list.html#a265ce2ecf7eaa21ccdcae3ca29c39d38" target="_top" xlink:title=" ">
<polygon fill="white" stroke="#666666" points="465.75,-229.75 340.25,-229.75 340.25,-188 465.75,-188 465.75,-229.75"/>
<text text-anchor="start" x="348.25" y="-216.25" font-family="Helvetica,sans-Serif" font-size="10.00">Slic3r::GUI::ObjectList</text>
<text text-anchor="start" x="348.25" y="-205" font-family="Helvetica,sans-Serif" font-size="10.00">::instances_to_separated</text>
<text text-anchor="middle" x="403" y="-193.75" font-family="Helvetica,sans-Serif" font-size="10.00">_objects</text>
</a>
</g>
</g>
<!-- Node4&#45;&gt;Node12 -->
<g id="edge8_Node000004_Node000012" class="edge">
<title>Node4&#45;&gt;Node12</title>
<g id="a_edge8_Node000004_Node000012"><a xlink:title=" ">
<path fill="none" stroke="#63b8ff" d="M505.26,-231.71C492.38,-228.81 478.94,-225.77 466.22,-222.91"/>
<polygon fill="#63b8ff" stroke="#63b8ff" points="504.4,-235.33 514.92,-234.12 505.94,-228.5 504.4,-235.33"/>
</a>
</g>
</g>
<!-- Node13 -->
<g id="Node000013" class="node">
<title>Node13</title>
<g id="a_Node000013"><a xlink:href="../../dd/d03/class_slic3r_1_1_g_u_i_1_1_object_list.html#a18155c983ed7b3d35f90a8f8293f535a" target="_top" xlink:title=" ">
<polygon fill="white" stroke="#666666" points="463.88,-154.12 342.12,-154.12 342.12,-123.62 463.88,-123.62 463.88,-154.12"/>
<text text-anchor="start" x="350.12" y="-140.62" font-family="Helvetica,sans-Serif" font-size="10.00">Slic3r::GUI::ObjectList</text>
<text text-anchor="middle" x="403" y="-129.38" font-family="Helvetica,sans-Serif" font-size="10.00">::paste_objects_into_list</text>
</a>
</g>
</g>
<!-- Node4&#45;&gt;Node13 -->
<g id="edge13_Node000004_Node000013" class="edge">
<title>Node4&#45;&gt;Node13</title>
<g id="a_edge13_Node000004_Node000013"><a xlink:title=" ">
<path fill="none" stroke="#63b8ff" d="M521.68,-226.6C514.76,-223.07 507.92,-219.15 501.75,-214.88 483.14,-202 483.34,-193.1 465.75,-178.88 454.83,-170.04 441.89,-161.41 430.69,-154.44"/>
<polygon fill="#63b8ff" stroke="#63b8ff" points="519.58,-229.96 530.11,-231.17 522.63,-223.66 519.58,-229.96"/>
</a>
</g>
</g>
<!-- Node5&#45;&gt;Node6 -->
<g id="edge5_Node000005_Node000006" class="edge">
<title>Node5&#45;&gt;Node6</title>
<g id="a_edge5_Node000005_Node000006"><a xlink:title=" ">
<path fill="none" stroke="#63b8ff" d="M154.34,-236.94C140.25,-241.05 125.71,-245.29 112.35,-249.18"/>
<polygon fill="#63b8ff" stroke="#63b8ff" points="154.88,-240.14 163.5,-233.98 152.92,-233.42 154.88,-240.14"/>
</a>
</g>
</g>
<!-- Node8 -->
<g id="Node000008" class="node">
<title>Node8</title>
<g id="a_Node000008"><a xlink:href="../../dd/d03/class_slic3r_1_1_g_u_i_1_1_object_list.html#a9daef95c2364c6f0f104c2e6eab84002" target="_top" xlink:title=" ">
<polygon fill="#fff0f0" stroke="red" points="115,-231.12 0,-231.12 0,-200.62 115,-200.62 115,-231.12"/>
<text text-anchor="start" x="8" y="-217.62" font-family="Helvetica,sans-Serif" font-size="10.00">Slic3r::GUI::ObjectList</text>
<text text-anchor="middle" x="57.5" y="-206.38" font-family="Helvetica,sans-Serif" font-size="10.00">::OnDrop</text>
</a>
</g>
</g>
<!-- Node5&#45;&gt;Node8 -->
<g id="edge6_Node000005_Node000008" class="edge">
<title>Node5&#45;&gt;Node8</title>
<g id="a_edge6_Node000005_Node000008"><a xlink:title=" ">
<path fill="none" stroke="#63b8ff" d="M153.8,-215.88C140.94,-215.88 127.71,-215.88 115.36,-215.88"/>
<polygon fill="#63b8ff" stroke="#63b8ff" points="153.5,-219.38 163.5,-215.88 153.5,-212.38 153.5,-219.38"/>
</a>
</g>
</g>
<!-- Node10 -->
<g id="Node000010" class="node">
<title>Node10</title>
<g id="a_Node000010"><a xlink:href="../../dd/d03/class_slic3r_1_1_g_u_i_1_1_object_list.html#afa1b4f0c6e7a1ec4ae19be6fa6c47f44" target="_top" xlink:title=" ">
<polygon fill="#fff0f0" stroke="red" points="115,-182.12 0,-182.12 0,-151.62 115,-151.62 115,-182.12"/>
<text text-anchor="start" x="8" y="-168.62" font-family="Helvetica,sans-Serif" font-size="10.00">Slic3r::GUI::ObjectList</text>
<text text-anchor="middle" x="57.5" y="-157.38" font-family="Helvetica,sans-Serif" font-size="10.00">::split_instances</text>
</a>
</g>
</g>
<!-- Node5&#45;&gt;Node10 -->
<g id="edge7_Node000005_Node000010" class="edge">
<title>Node5&#45;&gt;Node10</title>
<g id="a_edge7_Node000005_Node000010"><a xlink:title=" ">
<path fill="none" stroke="#63b8ff" d="M154.34,-194.81C140.25,-190.7 125.71,-186.46 112.35,-182.57"/>
<polygon fill="#63b8ff" stroke="#63b8ff" points="152.92,-198.33 163.5,-197.77 154.88,-191.61 152.92,-198.33"/>
</a>
</g>
</g>
<!-- Node12&#45;&gt;Node5 -->
<g id="edge9_Node000012_Node000005" class="edge">
<title>Node12&#45;&gt;Node5</title>
<g id="a_edge9_Node000012_Node000005"><a xlink:title=" ">
<path fill="none" stroke="#63b8ff" d="M329.23,-211.81C316.37,-212.33 303.1,-212.87 290.59,-213.37"/>
<polygon fill="#63b8ff" stroke="#63b8ff" points="329.05,-215.28 338.9,-211.38 328.76,-208.29 329.05,-215.28"/>
</a>
</g>
</g>
<!-- Node12&#45;&gt;Node6 -->
<g id="edge10_Node000012_Node000006" class="edge">
<title>Node12&#45;&gt;Node6</title>
<g id="a_edge10_Node000012_Node000006"><a xlink:title=" ">
<path fill="none" stroke="#63b8ff" d="M343.99,-233.92C331.12,-238.61 317.39,-242.94 304.25,-245.88 240.56,-260.08 165.54,-264.11 115.29,-265.04"/>
<polygon fill="#63b8ff" stroke="#63b8ff" points="344.98,-236.91 353.11,-230.11 342.52,-230.36 344.98,-236.91"/>
</a>
</g>
</g>
<!-- Node12&#45;&gt;Node10 -->
<g id="edge11_Node000012_Node000010" class="edge">
<title>Node12&#45;&gt;Node10</title>
<g id="a_edge11_Node000012_Node000010"><a xlink:title=" ">
<path fill="none" stroke="#63b8ff" d="M329.36,-190.48C320.93,-188.74 312.43,-187.15 304.25,-185.88 239.98,-175.89 165.39,-171.06 115.4,-168.79"/>
<polygon fill="#63b8ff" stroke="#63b8ff" points="328.46,-194.08 338.97,-192.77 329.93,-187.24 328.46,-194.08"/>
</a>
</g>
</g>
<!-- Node14 -->
<g id="Node000014" class="node">
<title>Node14</title>
<g id="a_Node000014"><a xlink:href="../../dd/d03/class_slic3r_1_1_g_u_i_1_1_object_list.html#aab08d060f0cd6f5ec146f2b4cfcccc45" target="_top" xlink:title=" ">
<polygon fill="#fff0f0" stroke="red" points="285.12,-139.12 170.12,-139.12 170.12,-108.62 285.12,-108.62 285.12,-139.12"/>
<text text-anchor="start" x="178.12" y="-125.62" font-family="Helvetica,sans-Serif" font-size="10.00">Slic3r::GUI::ObjectList</text>
<text text-anchor="middle" x="227.62" y="-114.38" font-family="Helvetica,sans-Serif" font-size="10.00">::load_mesh_object</text>
</a>
</g>
</g>
<!-- Node13&#45;&gt;Node14 -->
<g id="edge14_Node000013_Node000014" class="edge">
<title>Node13&#45;&gt;Node14</title>
<g id="a_edge14_Node000013_Node000014"><a xlink:title=" ">
<path fill="none" stroke="#63b8ff" d="M330.96,-132.73C315.81,-131.42 300,-130.05 285.46,-128.79"/>
<polygon fill="#63b8ff" stroke="#63b8ff" points="330.58,-136.3 340.85,-133.67 331.19,-129.32 330.58,-136.3"/>
</a>
</g>
</g>
<!-- Node21 -->
<g id="Node000021" class="node">
<title>Node21</title>
<g id="a_Node000021"><a xlink:href="../../dd/d03/class_slic3r_1_1_g_u_i_1_1_object_list.html#a981b6f0d7f5c995b656e471cfb3f5913" target="_top" xlink:title=" ">
<polygon fill="white" stroke="#666666" points="461.25,-492.75 344.75,-492.75 344.75,-451 461.25,-451 461.25,-492.75"/>
<text text-anchor="start" x="352.75" y="-479.25" font-family="Helvetica,sans-Serif" font-size="10.00">Slic3r::GUI::ObjectList</text>
<text text-anchor="start" x="352.75" y="-468" font-family="Helvetica,sans-Serif" font-size="10.00">::delete_all_connectors</text>
<text text-anchor="middle" x="403" y="-456.75" font-family="Helvetica,sans-Serif" font-size="10.00">_for_selection</text>
</a>
</g>
</g>
<!-- Node20&#45;&gt;Node21 -->
<g id="edge16_Node000020_Node000021" class="edge">
<title>Node20&#45;&gt;Node21</title>
<g id="a_edge16_Node000020_Node000021"><a xlink:title=" ">
<path fill="none" stroke="#63b8ff" d="M504.29,-471.88C490.11,-471.88 475.3,-471.88 461.54,-471.88"/>
<polygon fill="#63b8ff" stroke="#63b8ff" points="503.98,-475.38 513.98,-471.88 503.98,-468.38 503.98,-475.38"/>
</a>
</g>
</g>
<!-- Node22 -->
<g id="Node000022" class="node">
<title>Node22</title>
<g id="a_Node000022"><a xlink:href="../../dd/d03/class_slic3r_1_1_g_u_i_1_1_object_list.html#adefb87a97cd13c805f0b3168338e4e96" target="_top" xlink:title=" ">
<polygon fill="#fff0f0" stroke="red" points="285.12,-484.12 170.12,-484.12 170.12,-453.62 285.12,-453.62 285.12,-484.12"/>
<text text-anchor="start" x="178.12" y="-470.62" font-family="Helvetica,sans-Serif" font-size="10.00">Slic3r::GUI::ObjectList</text>
<text text-anchor="middle" x="227.62" y="-459.38" font-family="Helvetica,sans-Serif" font-size="10.00">::del_from_cut_object</text>
</a>
</g>
</g>
<!-- Node21&#45;&gt;Node22 -->
<g id="edge17_Node000021_Node000022" class="edge">
<title>Node21&#45;&gt;Node22</title>
<g id="a_edge17_Node000021_Node000022"><a xlink:title=" ">
<path fill="none" stroke="#63b8ff" d="M333.44,-470.69C317.56,-470.41 300.83,-470.12 285.51,-469.86"/>
<polygon fill="#63b8ff" stroke="#63b8ff" points="333.21,-474.2 343.27,-470.88 333.33,-467.2 333.21,-474.2"/>
</a>
</g>
</g>
<!-- Node33 -->
<g id="Node000033" class="node">
<title>Node33</title>
<g id="a_Node000033"><a xlink:href="../../d4/d88/struct_slic3r_1_1_g_u_i_1_1_plater_1_1priv.html#a31a91f76efbef5551761dfee3d6f21ec" target="_top" xlink:title=" ">
<polygon fill="white" stroke="#666666" points="453.75,-372.75 352.25,-372.75 352.25,-331 453.75,-331 453.75,-372.75"/>
<text text-anchor="start" x="360.25" y="-359.25" font-family="Helvetica,sans-Serif" font-size="10.00">Slic3r::GUI::Plater</text>
<text text-anchor="start" x="360.25" y="-348" font-family="Helvetica,sans-Serif" font-size="10.00">::priv::delete_object</text>
<text text-anchor="middle" x="403" y="-336.75" font-family="Helvetica,sans-Serif" font-size="10.00">_from_model</text>
</a>
</g>
</g>
<!-- Node32&#45;&gt;Node33 -->
<g id="edge19_Node000032_Node000033" class="edge">
<title>Node32&#45;&gt;Node33</title>
<g id="a_edge19_Node000032_Node000033"><a xlink:title=" ">
<path fill="none" stroke="#63b8ff" d="M505.92,-386.35C488.7,-380.53 470.44,-374.35 454.21,-368.86"/>
<polygon fill="#63b8ff" stroke="#63b8ff" points="504.33,-389.85 514.92,-389.74 506.57,-383.22 504.33,-389.85"/>
</a>
</g>
</g>
<!-- Node34 -->
<g id="Node000034" class="node">
<title>Node34</title>
<g id="a_Node000034"><a xlink:href="../../dd/d03/class_slic3r_1_1_g_u_i_1_1_object_list.html#a15433a7926fd06943e845df8986b5bc7" target="_top" xlink:title=" ">
<polygon fill="white" stroke="#666666" points="460.5,-432.75 345.5,-432.75 345.5,-391 460.5,-391 460.5,-432.75"/>
<text text-anchor="start" x="353.5" y="-419.25" font-family="Helvetica,sans-Serif" font-size="10.00">Slic3r::GUI::ObjectList</text>
<text text-anchor="start" x="353.5" y="-408" font-family="Helvetica,sans-Serif" font-size="10.00">::invalidate_cut_info</text>
<text text-anchor="middle" x="403" y="-396.75" font-family="Helvetica,sans-Serif" font-size="10.00">_for_selection</text>
</a>
</g>
</g>
<!-- Node32&#45;&gt;Node34 -->
<g id="edge20_Node000032_Node000034" class="edge">
<title>Node32&#45;&gt;Node34</title>
<g id="a_edge20_Node000032_Node000034"><a xlink:title=" ">
<path fill="none" stroke="#63b8ff" d="M505.32,-410.07C490.54,-410.33 475.03,-410.61 460.71,-410.87"/>
<polygon fill="#63b8ff" stroke="#63b8ff" points="504.99,-413.56 514.92,-409.88 504.86,-406.56 504.99,-413.56"/>
</a>
</g>
</g>
<!-- Node34&#45;&gt;Node22 -->
<g id="edge22_Node000034_Node000022" class="edge">
<title>Node34&#45;&gt;Node22</title>
<g id="a_edge22_Node000034_Node000022"><a xlink:title=" ">
<path fill="none" stroke="#63b8ff" d="M334.89,-433.94C315.42,-440.34 294.56,-447.2 276.52,-453.13"/>
<polygon fill="#63b8ff" stroke="#63b8ff" points="335.82,-436.99 344.23,-430.54 333.64,-430.34 335.82,-436.99"/>
</a>
</g>
</g>
<!-- Node35 -->
<g id="Node000035" class="node">
<title>Node35</title>
<g id="a_Node000035"><a xlink:href="../../de/de3/class_slic3r_1_1_g_u_i_1_1_menu_factory.html#a5058ec23032e1022f68e9477deac1589" target="_top" xlink:title=" ">
<polygon fill="white" stroke="#666666" points="304.25,-432.75 151,-432.75 151,-391 304.25,-391 304.25,-432.75"/>
<text text-anchor="start" x="159" y="-419.25" font-family="Helvetica,sans-Serif" font-size="10.00">Slic3r::GUI::MenuFactory</text>
<text text-anchor="start" x="159" y="-408" font-family="Helvetica,sans-Serif" font-size="10.00">::append_menu_item_invalidate</text>
<text text-anchor="middle" x="227.62" y="-396.75" font-family="Helvetica,sans-Serif" font-size="10.00">_cut_info</text>
</a>
</g>
</g>
<!-- Node34&#45;&gt;Node35 -->
<g id="edge21_Node000034_Node000035" class="edge">
<title>Node34&#45;&gt;Node35</title>
<g id="a_edge21_Node000034_Node000035"><a xlink:title=" ">
<path fill="none" stroke="#63b8ff" d="M334.42,-411.88C324.69,-411.88 314.62,-411.88 304.74,-411.88"/>
<polygon fill="#63b8ff" stroke="#63b8ff" points="334.23,-415.38 344.23,-411.88 334.23,-408.38 334.23,-415.38"/>
</a>
</g>
</g>
<!-- Node38&#45;&gt;Node38 -->
<g id="edge26_Node000038_Node000038" class="edge">
<title>Node38&#45;&gt;Node38</title>
<g id="a_edge26_Node000038_Node000038"><a xlink:title=" ">
<path fill="none" stroke="#63b8ff" d="M964.02,-214.5C959.21,-218.45 948.96,-221.12 933.25,-221.12 905.32,-221.12 894.63,-212.68 901.18,-203.61"/>
<polygon fill="#63b8ff" stroke="#63b8ff" points="967.61,-214.96 965.32,-204.61 960.66,-214.12 967.61,-214.96"/>
</a>
</g>
</g>
<!-- Node39 -->
<g id="Node000039" class="node">
<title>Node39</title>
<g id="a_Node000039"><a xlink:href="../../d5/dcc/class_slic3r_1_1_g_u_i_1_1_object_data_view_model.html#ac22dfe7df7f6ee122dc08b685a9b474e" target="_top" xlink:title=" ">
<polygon fill="white" stroke="#666666" points="823.25,-182.12 681.25,-182.12 681.25,-151.62 823.25,-151.62 823.25,-182.12"/>
<text text-anchor="start" x="689.25" y="-168.62" font-family="Helvetica,sans-Serif" font-size="10.00">Slic3r::GUI::ObjectDataView</text>
<text text-anchor="middle" x="752.25" y="-157.38" font-family="Helvetica,sans-Serif" font-size="10.00">Model::UpdateWarningIcon</text>
</a>
</g>
</g>
<!-- Node38&#45;&gt;Node39 -->
<g id="edge27_Node000038_Node000039" class="edge">
<title>Node38&#45;&gt;Node39</title>
<g id="a_edge27_Node000038_Node000039"><a xlink:title=" ">
<path fill="none" stroke="#63b8ff" d="M851.1,-178.35C841.94,-177.28 832.67,-176.19 823.67,-175.14"/>
<polygon fill="#63b8ff" stroke="#63b8ff" points="850.42,-181.92 860.76,-179.61 851.24,-174.96 850.42,-181.92"/>
</a>
</g>
</g>
<!-- Node24 -->
<g id="Node000024" class="node">
<title>Node24</title>
<g id="a_Node000024"><a xlink:href="../../dd/d03/class_slic3r_1_1_g_u_i_1_1_object_list.html#a4cfeda23a605cc017e2e524f493af311" target="_top" xlink:title=" ">
<polygon fill="#fff0f0" stroke="red" points="631,-206.12 516,-206.12 516,-175.62 631,-175.62 631,-206.12"/>
<text text-anchor="start" x="524" y="-192.62" font-family="Helvetica,sans-Serif" font-size="10.00">Slic3r::GUI::ObjectList</text>
<text text-anchor="middle" x="573.5" y="-181.38" font-family="Helvetica,sans-Serif" font-size="10.00">::del_subobject_item</text>
</a>
</g>
</g>
<!-- Node39&#45;&gt;Node24 -->
<g id="edge28_Node000039_Node000024" class="edge">
<title>Node39&#45;&gt;Node24</title>
<g id="a_edge28_Node000039_Node000024"><a xlink:title=" ">
<path fill="none" stroke="#63b8ff" d="M670.37,-177.86C657.18,-179.65 643.76,-181.47 631.31,-183.16"/>
<polygon fill="#63b8ff" stroke="#63b8ff" points="670.45,-181.24 679.89,-176.43 669.51,-174.31 670.45,-181.24"/>
</a>
</g>
</g>
<!-- Node31 -->
<g id="Node000031" class="node">
<title>Node31</title>
<g id="a_Node000031"><a xlink:href="../../dd/d03/class_slic3r_1_1_g_u_i_1_1_object_list.html#a2f1f81bfc9797bc7838005dd4d63564c" target="_top" xlink:title=" ">
<polygon fill="white" stroke="#666666" points="645.25,-157.12 501.75,-157.12 501.75,-126.62 645.25,-126.62 645.25,-157.12"/>
<text text-anchor="start" x="509.75" y="-143.62" font-family="Helvetica,sans-Serif" font-size="10.00">Slic3r::GUI::ObjectList</text>
<text text-anchor="middle" x="573.5" y="-132.38" font-family="Helvetica,sans-Serif" font-size="10.00">::delete_from_model_and_list</text>
</a>
</g>
</g>
<!-- Node39&#45;&gt;Node31 -->
<g id="edge29_Node000039_Node000031" class="edge">
<title>Node39&#45;&gt;Node31</title>
<g id="a_edge29_Node000039_Node000031"><a xlink:title=" ">
<path fill="none" stroke="#63b8ff" d="M670.14,-155.4C661.91,-154.24 653.6,-153.06 645.49,-151.92"/>
<polygon fill="#63b8ff" stroke="#63b8ff" points="669.49,-158.99 679.89,-156.92 670.47,-152.06 669.49,-158.99"/>
</a>
</g>
</g>
<!-- Node40 -->
<g id="Node000040" class="node">
<title>Node40</title>
<g id="a_Node000040"><a xlink:href="../../dd/d03/class_slic3r_1_1_g_u_i_1_1_object_list.html#ac889205de0750f347761ec153f9a743b" target="_top" xlink:title=" ">
<polygon fill="white" stroke="#666666" points="635.12,-94.12 511.88,-94.12 511.88,-63.62 635.12,-63.62 635.12,-94.12"/>
<text text-anchor="start" x="519.88" y="-80.62" font-family="Helvetica,sans-Serif" font-size="10.00">Slic3r::GUI::ObjectList</text>
<text text-anchor="middle" x="573.5" y="-69.38" font-family="Helvetica,sans-Serif" font-size="10.00">::update_item_error_icon</text>
</a>
</g>
</g>
<!-- Node39&#45;&gt;Node40 -->
<g id="edge30_Node000039_Node000040" class="edge">
<title>Node39&#45;&gt;Node40</title>
<g id="a_edge30_Node000039_Node000040"><a xlink:title=" ">
<path fill="none" stroke="#63b8ff" d="M710.2,-146.44C678.47,-130.64 635.2,-109.09 606.12,-94.62"/>
<polygon fill="#63b8ff" stroke="#63b8ff" points="708.14,-149.82 718.65,-151.14 711.26,-143.55 708.14,-149.82"/>
</a>
</g>
</g>
<!-- Node41 -->
<g id="Node000041" class="node">
<title>Node41</title>
<g id="a_Node000041"><a xlink:href="../../dd/d03/class_slic3r_1_1_g_u_i_1_1_object_list.html#a0cc851b50d77641c32ba109455d0e11a" target="_top" xlink:title=" ">
<polygon fill="white" stroke="#666666" points="460.5,-90.12 345.5,-90.12 345.5,-59.62 460.5,-59.62 460.5,-90.12"/>
<text text-anchor="start" x="353.5" y="-76.62" font-family="Helvetica,sans-Serif" font-size="10.00">Slic3r::GUI::ObjectList</text>
<text text-anchor="middle" x="403" y="-65.38" font-family="Helvetica,sans-Serif" font-size="10.00">::fix_through_netfabb</text>
</a>
</g>
</g>
<!-- Node40&#45;&gt;Node41 -->
<g id="edge31_Node000040_Node000041" class="edge">
<title>Node40&#45;&gt;Node41</title>
<g id="a_edge31_Node000040_Node000041"><a xlink:title=" ">
<path fill="none" stroke="#63b8ff" d="M501.02,-77.18C487.59,-76.86 473.72,-76.53 460.81,-76.22"/>
<polygon fill="#63b8ff" stroke="#63b8ff" points="500.59,-80.69 510.67,-77.43 500.75,-73.69 500.59,-80.69"/>
</a>
</g>
</g>
<!-- Node42 -->
<g id="Node000042" class="node">
<title>Node42</title>
<g id="a_Node000042"><a xlink:href="../../de/de3/class_slic3r_1_1_g_u_i_1_1_menu_factory.html#aa791a97973c30a47d0db48ea96ceb01d" target="_top" xlink:title=" ">
<polygon fill="white" stroke="#666666" points="291.5,-41.75 163.75,-41.75 163.75,0 291.5,0 291.5,-41.75"/>
<text text-anchor="start" x="171.75" y="-28.25" font-family="Helvetica,sans-Serif" font-size="10.00">Slic3r::GUI::MenuFactory</text>
<text text-anchor="start" x="171.75" y="-17" font-family="Helvetica,sans-Serif" font-size="10.00">::append_menu_item_fix</text>
<text text-anchor="middle" x="227.62" y="-5.75" font-family="Helvetica,sans-Serif" font-size="10.00">_through_netfabb</text>
</a>
</g>
</g>
<!-- Node41&#45;&gt;Node42 -->
<g id="edge32_Node000041_Node000042" class="edge">
<title>Node41&#45;&gt;Node42</title>
<g id="a_edge32_Node000041_Node000042"><a xlink:title=" ">
<path fill="none" stroke="#63b8ff" d="M341.53,-56.04C325.49,-51.04 308.13,-45.64 291.94,-40.6"/>
<polygon fill="#63b8ff" stroke="#63b8ff" points="340.26,-59.62 350.85,-59.26 342.35,-52.94 340.26,-59.62"/>
</a>
</g>
</g>
<!-- Node43 -->
<g id="Node000043" class="node">
<title>Node43</title>
<g id="a_Node000043"><a xlink:href="../../dd/d03/class_slic3r_1_1_g_u_i_1_1_object_list.html#a82cd125270efd6530d2bb7d371b675f2" target="_top" xlink:title=" ">
<polygon fill="#fff0f0" stroke="red" points="285.12,-90.12 170.12,-90.12 170.12,-59.62 285.12,-59.62 285.12,-90.12"/>
<text text-anchor="start" x="178.12" y="-76.62" font-family="Helvetica,sans-Serif" font-size="10.00">Slic3r::GUI::ObjectList</text>
<text text-anchor="middle" x="227.62" y="-65.38" font-family="Helvetica,sans-Serif" font-size="10.00">::list_manipulation</text>
</a>
</g>
</g>
<!-- Node41&#45;&gt;Node43 -->
<g id="edge33_Node000041_Node000043" class="edge">
<title>Node41&#45;&gt;Node43</title>
<g id="a_edge33_Node000041_Node000043"><a xlink:title=" ">
<path fill="none" stroke="#63b8ff" d="M334.25,-74.88C318.13,-74.88 301.1,-74.88 285.52,-74.88"/>
<polygon fill="#63b8ff" stroke="#63b8ff" points="334.23,-78.38 344.23,-74.88 334.23,-71.38 334.23,-78.38"/>
</a>
</g>
</g>
</g>
</svg>
