<?xml version="1.0" encoding="UTF-8" standalone="no"?>
<!DOCTYPE svg PUBLIC "-//W3C//DTD SVG 1.1//EN"
 "http://www.w3.org/Graphics/SVG/1.1/DTD/svg11.dtd">
<!-- Generated by graphviz version 8.0.5 (20230430.1635)
 -->
<!-- Title: Slic3r::GUI::ObjectDataViewModelNode::UpdateExtruderAndColorIcon Pages: 1 -->
<svg width="1108pt" height="368pt"
 viewBox="0.00 0.00 1107.75 367.88" xmlns="http://www.w3.org/2000/svg" xmlns:xlink="http://www.w3.org/1999/xlink">
<g id="graph0" class="graph" transform="scale(1 1) rotate(0) translate(4 363.88)">
<title>Slic3r::GUI::ObjectDataViewModelNode::UpdateExtruderAndColorIcon</title>
<!-- Node1 -->
<g id="Node000001" class="node">
<title>Node1</title>
<g id="a_Node000001"><a xlink:title=" ">
<polygon fill="#999999" stroke="#666666" points="199,-54.5 0,-54.5 0,-24 199,-24 199,-54.5"/>
<text text-anchor="start" x="8" y="-41" font-family="Helvetica,sans-Serif" font-size="10.00">Slic3r::GUI::ObjectDataView</text>
<text text-anchor="middle" x="99.5" y="-29.75" font-family="Helvetica,sans-Serif" font-size="10.00">ModelNode::UpdateExtruderAndColorIcon</text>
</a>
</g>
</g>
<!-- Node2 -->
<g id="Node000002" class="node">
<title>Node2</title>
<g id="a_Node000002"><a xlink:href="../../d7/d58/wx_extensions_8cpp.html#ad379f10f9f34897f70cb81ee30423e4a" target="_top" xlink:title=" ">
<polygon fill="white" stroke="#666666" points="354.12,-79.5 257.88,-79.5 257.88,-49 354.12,-49 354.12,-79.5"/>
<text text-anchor="start" x="265.88" y="-66" font-family="Helvetica,sans-Serif" font-size="10.00">get_extruder_color</text>
<text text-anchor="middle" x="306" y="-54.75" font-family="Helvetica,sans-Serif" font-size="10.00">_icons</text>
</a>
</g>
</g>
<!-- Node1&#45;&gt;Node2 -->
<g id="edge1_Node000001_Node000002" class="edge">
<title>Node1&#45;&gt;Node2</title>
<g id="a_edge1_Node000001_Node000002"><a xlink:title=" ">
<path fill="none" stroke="#63b8ff" d="M199.46,-51.35C215.7,-53.33 232.05,-55.33 246.88,-57.14"/>
<polygon fill="#63b8ff" stroke="#63b8ff" points="246.03,-60.69 256.38,-58.43 246.88,-53.74 246.03,-60.69"/>
</a>
</g>
</g>
<!-- Node19 -->
<g id="Node000019" class="node">
<title>Node19</title>
<g id="a_Node000019"><a xlink:href="../../d6/d78/class_slic3r_1_1_g_u_i_1_1_object_data_view_model_node.html#a49444ddd544928121349f9459102e7fb" target="_top" xlink:title=" ">
<polygon fill="white" stroke="#666666" points="377,-30.5 235,-30.5 235,0 377,0 377,-30.5"/>
<text text-anchor="start" x="243" y="-17" font-family="Helvetica,sans-Serif" font-size="10.00">Slic3r::GUI::ObjectDataView</text>
<text text-anchor="middle" x="306" y="-5.75" font-family="Helvetica,sans-Serif" font-size="10.00">ModelNode::GetExtruder</text>
</a>
</g>
</g>
<!-- Node1&#45;&gt;Node19 -->
<g id="edge19_Node000001_Node000019" class="edge">
<title>Node1&#45;&gt;Node19</title>
<g id="a_edge19_Node000001_Node000019"><a xlink:title=" ">
<path fill="none" stroke="#63b8ff" d="M199.46,-27.64C207.66,-26.67 215.89,-25.71 223.93,-24.76"/>
<polygon fill="#63b8ff" stroke="#63b8ff" points="224.25,-28.13 233.77,-23.49 223.43,-21.18 224.25,-28.13"/>
</a>
</g>
</g>
<!-- Node3 -->
<g id="Node000003" class="node">
<title>Node3</title>
<g id="a_Node000003"><a xlink:href="../../d7/d58/wx_extensions_8cpp.html#acdccdc0628f4edc64e892d0d3c2a1eb1" target="_top" xlink:title=" ">
<polygon fill="white" stroke="#666666" points="525.75,-73.88 413,-73.88 413,-54.62 525.75,-54.62 525.75,-73.88"/>
<text text-anchor="middle" x="469.38" y="-60.38" font-family="Helvetica,sans-Serif" font-size="10.00">get_solid_bmp_bundle</text>
</a>
</g>
</g>
<!-- Node2&#45;&gt;Node3 -->
<g id="edge2_Node000002_Node000003" class="edge">
<title>Node2&#45;&gt;Node3</title>
<g id="a_edge2_Node000002_Node000003"><a xlink:title=" ">
<path fill="none" stroke="#63b8ff" d="M354.55,-64.25C369.35,-64.25 385.96,-64.25 401.82,-64.25"/>
<polygon fill="#63b8ff" stroke="#63b8ff" points="401.64,-67.75 411.64,-64.25 401.64,-60.75 401.64,-67.75"/>
</a>
</g>
</g>
<!-- Node4 -->
<g id="Node000004" class="node">
<title>Node4</title>
<g id="a_Node000004"><a xlink:href="../../d8/d95/class_slic3r_1_1_g_u_i_1_1_bitmap_cache.html#a65133b6549018a5d9bf8c2c9721de072" target="_top" xlink:title=" ">
<polygon fill="white" stroke="#666666" points="691.75,-149.5 561.75,-149.5 561.75,-119 691.75,-119 691.75,-149.5"/>
<text text-anchor="start" x="569.75" y="-136" font-family="Helvetica,sans-Serif" font-size="10.00">Slic3r::GUI::BitmapCache</text>
<text text-anchor="middle" x="626.75" y="-124.75" font-family="Helvetica,sans-Serif" font-size="10.00">::mksolid_bndl</text>
</a>
</g>
</g>
<!-- Node3&#45;&gt;Node4 -->
<g id="edge3_Node000003_Node000004" class="edge">
<title>Node3&#45;&gt;Node4</title>
<g id="a_edge3_Node000003_Node000004"><a xlink:title=" ">
<path fill="none" stroke="#63b8ff" d="M492.64,-74.28C515.61,-84.63 552.06,-101.05 581.02,-114.1"/>
<polygon fill="#63b8ff" stroke="#63b8ff" points="579.36,-117.64 589.91,-118.56 582.23,-111.26 579.36,-117.64"/>
</a>
</g>
</g>
<!-- Node17 -->
<g id="Node000017" class="node">
<title>Node17</title>
<g id="a_Node000017"><a xlink:href="../../d6/dba/_wipe_tower_dialog_8cpp.html#a031c2862b832be718b216d1f101f88cd" target="_top" xlink:title=" ">
<polygon fill="white" stroke="#666666" points="1099.75,-48.88 1060.5,-48.88 1060.5,-29.62 1099.75,-29.62 1099.75,-48.88"/>
<text text-anchor="middle" x="1080.12" y="-35.38" font-family="Helvetica,sans-Serif" font-size="10.00">scale</text>
</a>
</g>
</g>
<!-- Node3&#45;&gt;Node17 -->
<g id="edge18_Node000003_Node000017" class="edge">
<title>Node3&#45;&gt;Node17</title>
<g id="a_edge18_Node000003_Node000017"><a xlink:title=" ">
<path fill="none" stroke="#63b8ff" d="M526.22,-56.69C578.27,-50.05 658.09,-40.89 727.75,-37.25 859.46,-30.36 892.63,-34.84 1024.5,-37.25 1032.56,-37.4 1041.29,-37.67 1049.35,-37.96"/>
<polygon fill="#63b8ff" stroke="#63b8ff" points="1049.04,-41.49 1059.17,-38.39 1049.31,-34.5 1049.04,-41.49"/>
</a>
</g>
</g>
<!-- Node5 -->
<g id="Node000005" class="node">
<title>Node5</title>
<g id="a_Node000005"><a xlink:href="../../da/dbd/class_slic3r_1_1_color_r_g_b.html#a00d880c71cc01fac1383cb034f9b43e9" target="_top" xlink:title=" ">
<polygon fill="white" stroke="#666666" points="844.25,-272.5 741.25,-272.5 741.25,-242 844.25,-242 844.25,-272.5"/>
<text text-anchor="start" x="749.25" y="-259" font-family="Helvetica,sans-Serif" font-size="10.00">Slic3r::ColorRGB::b</text>
<text text-anchor="middle" x="792.75" y="-247.75" font-family="Helvetica,sans-Serif" font-size="10.00">_uchar</text>
</a>
</g>
</g>
<!-- Node4&#45;&gt;Node5 -->
<g id="edge4_Node000004_Node000005" class="edge">
<title>Node4&#45;&gt;Node5</title>
<g id="a_edge4_Node000004_Node000005"><a xlink:title=" ">
<path fill="none" stroke="#63b8ff" d="M639.74,-149.69C657.09,-171.1 691.13,-209.8 727.75,-233.25 729.7,-234.5 731.72,-235.69 733.8,-236.84"/>
<polygon fill="#63b8ff" stroke="#63b8ff" points="731.65,-240.18 742.16,-241.55 734.79,-233.93 731.65,-240.18"/>
</a>
</g>
</g>
<!-- Node6 -->
<g id="Node000006" class="node">
<title>Node6</title>
<g id="a_Node000006"><a xlink:href="../../de/db8/namespace_slic3r.html#a32d4a75cf0f336def60d95837df65128" target="_top" xlink:title=" ">
<polygon fill="white" stroke="#666666" points="845,-223.88 740.5,-223.88 740.5,-204.62 845,-204.62 845,-223.88"/>
<text text-anchor="middle" x="792.75" y="-210.38" font-family="Helvetica,sans-Serif" font-size="10.00">Slic3r::decode_color</text>
</a>
</g>
</g>
<!-- Node4&#45;&gt;Node6 -->
<g id="edge5_Node000004_Node000006" class="edge">
<title>Node4&#45;&gt;Node6</title>
<g id="a_edge5_Node000004_Node000006"><a xlink:title=" ">
<path fill="none" stroke="#63b8ff" d="M659.71,-149.95C679.33,-159.59 704.98,-172.16 727.75,-183.25 738.68,-188.58 750.68,-194.39 761.3,-199.54"/>
<polygon fill="#63b8ff" stroke="#63b8ff" points="759.46,-203.02 769.99,-204.22 762.51,-196.72 759.46,-203.02"/>
</a>
</g>
</g>
<!-- Node13 -->
<g id="Node000013" class="node">
<title>Node13</title>
<g id="a_Node000013"><a xlink:href="../../da/dbd/class_slic3r_1_1_color_r_g_b.html#a321650db153aa12463c807d5fe240e57" target="_top" xlink:title=" ">
<polygon fill="white" stroke="#666666" points="844.25,-174.5 741.25,-174.5 741.25,-144 844.25,-144 844.25,-174.5"/>
<text text-anchor="start" x="749.25" y="-161" font-family="Helvetica,sans-Serif" font-size="10.00">Slic3r::ColorRGB::g</text>
<text text-anchor="middle" x="792.75" y="-149.75" font-family="Helvetica,sans-Serif" font-size="10.00">_uchar</text>
</a>
</g>
</g>
<!-- Node4&#45;&gt;Node13 -->
<g id="edge12_Node000004_Node000013" class="edge">
<title>Node4&#45;&gt;Node13</title>
<g id="a_edge12_Node000004_Node000013"><a xlink:title=" ">
<path fill="none" stroke="#63b8ff" d="M692.1,-144.06C704.59,-145.96 717.66,-147.96 730.06,-149.85"/>
<polygon fill="#63b8ff" stroke="#63b8ff" points="729.35,-153.43 739.76,-151.48 730.4,-146.51 729.35,-153.43"/>
</a>
</g>
</g>
<!-- Node14 -->
<g id="Node000014" class="node">
<title>Node14</title>
<g id="a_Node000014"><a xlink:href="../../d8/d95/class_slic3r_1_1_g_u_i_1_1_bitmap_cache.html#a5224e7145249f9e8ebe85513891f77d4" target="_top" xlink:title=" ">
<polygon fill="white" stroke="#666666" points="857.75,-125.5 727.75,-125.5 727.75,-95 857.75,-95 857.75,-125.5"/>
<text text-anchor="start" x="735.75" y="-112" font-family="Helvetica,sans-Serif" font-size="10.00">Slic3r::GUI::BitmapCache</text>
<text text-anchor="middle" x="792.75" y="-100.75" font-family="Helvetica,sans-Serif" font-size="10.00">::mksolid</text>
</a>
</g>
</g>
<!-- Node4&#45;&gt;Node14 -->
<g id="edge13_Node000004_Node000014" class="edge">
<title>Node4&#45;&gt;Node14</title>
<g id="a_edge13_Node000004_Node000014"><a xlink:title=" ">
<path fill="none" stroke="#63b8ff" d="M692.1,-124.83C700.15,-123.66 708.43,-122.44 716.63,-121.24"/>
<polygon fill="#63b8ff" stroke="#63b8ff" points="716.93,-124.59 726.32,-119.68 715.92,-117.66 716.93,-124.59"/>
</a>
</g>
</g>
<!-- Node18 -->
<g id="Node000018" class="node">
<title>Node18</title>
<g id="a_Node000018"><a xlink:href="../../da/dbd/class_slic3r_1_1_color_r_g_b.html#a254ddd451af3471e6c082b673f33e208" target="_top" xlink:title=" ">
<polygon fill="white" stroke="#666666" points="843.12,-76.5 742.38,-76.5 742.38,-46 843.12,-46 843.12,-76.5"/>
<text text-anchor="start" x="750.38" y="-63" font-family="Helvetica,sans-Serif" font-size="10.00">Slic3r::ColorRGB::r</text>
<text text-anchor="middle" x="792.75" y="-51.75" font-family="Helvetica,sans-Serif" font-size="10.00">_uchar</text>
</a>
</g>
</g>
<!-- Node4&#45;&gt;Node18 -->
<g id="edge17_Node000004_Node000018" class="edge">
<title>Node4&#45;&gt;Node18</title>
<g id="a_edge17_Node000004_Node000018"><a xlink:title=" ">
<path fill="none" stroke="#63b8ff" d="M659,-118.51C678.58,-108.83 704.44,-96.38 727.75,-86.25 731.81,-84.48 736.04,-82.71 740.3,-80.95"/>
<polygon fill="#63b8ff" stroke="#63b8ff" points="741.29,-83.93 749.25,-76.94 738.67,-77.44 741.29,-83.93"/>
</a>
</g>
</g>
<!-- Node7 -->
<g id="Node000007" class="node">
<title>Node7</title>
<g id="a_Node000007"><a xlink:href="../../da/dbd/class_slic3r_1_1_color_r_g_b.html#ab60fd5430ed77ea02517d37e5019e61e" target="_top" xlink:title=" ">
<polygon fill="white" stroke="#666666" points="1010.62,-359.88 907.62,-359.88 907.62,-340.62 1010.62,-340.62 1010.62,-359.88"/>
<text text-anchor="middle" x="959.12" y="-346.38" font-family="Helvetica,sans-Serif" font-size="10.00">Slic3r::ColorRGB::b</text>
</a>
</g>
</g>
<!-- Node6&#45;&gt;Node7 -->
<g id="edge6_Node000006_Node000007" class="edge">
<title>Node6&#45;&gt;Node7</title>
<g id="a_edge6_Node000006_Node000007"><a xlink:title=" ">
<path fill="none" stroke="#63b8ff" d="M844.46,-224.25C849.32,-226.64 853.87,-229.6 857.75,-233.25 891.84,-265.34 859.41,-300.43 893.75,-332.25 895.1,-333.5 896.52,-334.66 898.01,-335.74"/>
<polygon fill="#63b8ff" stroke="#63b8ff" points="895.75,-339.06 906.14,-341.11 899.3,-333.02 895.75,-339.06"/>
</a>
</g>
</g>
<!-- Node8 -->
<g id="Node000008" class="node">
<title>Node8</title>
<g id="a_Node000008"><a xlink:href="../../da/dbd/class_slic3r_1_1_color_r_g_b.html#adbe933e5439dde40c997b1bb967a0f05" target="_top" xlink:title=" ">
<polygon fill="white" stroke="#666666" points="1024.5,-322.88 893.75,-322.88 893.75,-303.62 1024.5,-303.62 1024.5,-322.88"/>
<text text-anchor="middle" x="959.12" y="-309.38" font-family="Helvetica,sans-Serif" font-size="10.00">Slic3r::ColorRGB::BLACK</text>
</a>
</g>
</g>
<!-- Node6&#45;&gt;Node8 -->
<g id="edge7_Node000006_Node000008" class="edge">
<title>Node6&#45;&gt;Node8</title>
<g id="a_edge7_Node000006_Node000008"><a xlink:title=" ">
<path fill="none" stroke="#63b8ff" d="M842.18,-224.29C847.75,-226.67 853.09,-229.61 857.75,-233.25 882.56,-252.63 868.93,-274.89 893.75,-294.25 895.65,-295.73 897.67,-297.1 899.77,-298.37"/>
<polygon fill="#63b8ff" stroke="#63b8ff" points="897.91,-301.85 908.41,-303.24 901.07,-295.61 897.91,-301.85"/>
</a>
</g>
</g>
<!-- Node9 -->
<g id="Node000009" class="node">
<title>Node9</title>
<g id="a_Node000009"><a xlink:href="../../de/db8/namespace_slic3r.html#ac348ab30f9aa4ac507d8c3a8932f3063" target="_top" xlink:title=" ">
<polygon fill="white" stroke="#666666" points="1008.75,-285.5 909.5,-285.5 909.5,-255 1008.75,-255 1008.75,-285.5"/>
<text text-anchor="start" x="917.5" y="-272" font-family="Helvetica,sans-Serif" font-size="10.00">Slic3r::can_decode</text>
<text text-anchor="middle" x="959.12" y="-260.75" font-family="Helvetica,sans-Serif" font-size="10.00">_color</text>
</a>
</g>
</g>
<!-- Node6&#45;&gt;Node9 -->
<g id="edge8_Node000006_Node000009" class="edge">
<title>Node6&#45;&gt;Node9</title>
<g id="a_edge8_Node000006_Node000009"><a xlink:title=" ">
<path fill="none" stroke="#63b8ff" d="M829.09,-224.3C838.44,-227.08 848.51,-230.18 857.75,-233.25 862.89,-234.96 884.15,-242.78 905.79,-250.79"/>
<polygon fill="#63b8ff" stroke="#63b8ff" points="904.44,-254.4 915.04,-254.59 906.88,-247.83 904.44,-254.4"/>
</a>
</g>
</g>
<!-- Node10 -->
<g id="Node000010" class="node">
<title>Node10</title>
<g id="a_Node000010"><a xlink:href="../../da/dbd/class_slic3r_1_1_color_r_g_b.html#abcdd57182738da6fa5602b9b9ef5d075" target="_top" xlink:title=" ">
<polygon fill="white" stroke="#666666" points="1010.62,-236.88 907.62,-236.88 907.62,-217.62 1010.62,-217.62 1010.62,-236.88"/>
<text text-anchor="middle" x="959.12" y="-223.38" font-family="Helvetica,sans-Serif" font-size="10.00">Slic3r::ColorRGB::g</text>
</a>
</g>
</g>
<!-- Node6&#45;&gt;Node10 -->
<g id="edge9_Node000006_Node000010" class="edge">
<title>Node6&#45;&gt;Node10</title>
<g id="a_edge9_Node000006_Node000010"><a xlink:title=" ">
<path fill="none" stroke="#63b8ff" d="M845.31,-218.33C861.53,-219.61 879.6,-221.04 896.45,-222.37"/>
<polygon fill="#63b8ff" stroke="#63b8ff" points="896.07,-225.93 906.31,-223.23 896.62,-218.95 896.07,-225.93"/>
</a>
</g>
</g>
<!-- Node11 -->
<g id="Node000011" class="node">
<title>Node11</title>
<g id="a_Node000011"><a xlink:href="../../da/dbd/class_slic3r_1_1_color_r_g_b.html#afbfa6e8bc1d2155ea465dfcd4b9e8e5a" target="_top" xlink:title=" ">
<polygon fill="white" stroke="#666666" points="1009.5,-199.88 908.75,-199.88 908.75,-180.62 1009.5,-180.62 1009.5,-199.88"/>
<text text-anchor="middle" x="959.12" y="-186.38" font-family="Helvetica,sans-Serif" font-size="10.00">Slic3r::ColorRGB::r</text>
</a>
</g>
</g>
<!-- Node6&#45;&gt;Node11 -->
<g id="edge10_Node000006_Node000011" class="edge">
<title>Node6&#45;&gt;Node11</title>
<g id="a_edge10_Node000006_Node000011"><a xlink:title=" ">
<path fill="none" stroke="#63b8ff" d="M845.31,-206.72C861.99,-204.29 880.64,-201.56 897.9,-199.04"/>
<polygon fill="#63b8ff" stroke="#63b8ff" points="898.05,-202.41 907.44,-197.5 897.04,-195.49 898.05,-202.41"/>
</a>
</g>
</g>
<!-- Node12 -->
<g id="Node000012" class="node">
<title>Node12</title>
<g id="a_Node000012"><a xlink:href="../../da/dbd/class_slic3r_1_1_color_r_g_b.html#a540a2b256668409bbba5aca8d42688ab" target="_top" xlink:title=" ">
<polygon fill="white" stroke="#666666" points="1014.75,-162.88 903.5,-162.88 903.5,-143.62 1014.75,-143.62 1014.75,-162.88"/>
<text text-anchor="middle" x="959.12" y="-149.38" font-family="Helvetica,sans-Serif" font-size="10.00">Slic3r::ColorRGB::set</text>
</a>
</g>
</g>
<!-- Node6&#45;&gt;Node12 -->
<g id="edge11_Node000006_Node000012" class="edge">
<title>Node6&#45;&gt;Node12</title>
<g id="a_edge11_Node000006_Node000012"><a xlink:title=" ">
<path fill="none" stroke="#63b8ff" d="M814.88,-204.18C834.9,-194.88 865.95,-181.06 893.75,-171.25 898.49,-169.58 903.48,-167.95 908.48,-166.41"/>
<polygon fill="#63b8ff" stroke="#63b8ff" points="909.13,-169.57 917.71,-163.37 907.13,-162.86 909.13,-169.57"/>
</a>
</g>
</g>
<!-- Node15 -->
<g id="Node000015" class="node">
<title>Node15</title>
<g id="a_Node000015"><a xlink:href="../../d8/d95/class_slic3r_1_1_g_u_i_1_1_bitmap_cache.html#a36f6a17ceacdaf2b99f64892a65b7239" target="_top" xlink:title=" ">
<polygon fill="white" stroke="#666666" points="1024.12,-125.5 894.12,-125.5 894.12,-95 1024.12,-95 1024.12,-125.5"/>
<text text-anchor="start" x="902.12" y="-112" font-family="Helvetica,sans-Serif" font-size="10.00">Slic3r::GUI::BitmapCache</text>
<text text-anchor="middle" x="959.12" y="-100.75" font-family="Helvetica,sans-Serif" font-size="10.00">::scale</text>
</a>
</g>
</g>
<!-- Node14&#45;&gt;Node15 -->
<g id="edge14_Node000014_Node000015" class="edge">
<title>Node14&#45;&gt;Node15</title>
<g id="a_edge14_Node000014_Node000015"><a xlink:title=" ">
<path fill="none" stroke="#63b8ff" d="M858.24,-110.25C866.37,-110.25 874.75,-110.25 883.02,-110.25"/>
<polygon fill="#63b8ff" stroke="#63b8ff" points="882.82,-113.75 892.82,-110.25 882.82,-106.75 882.82,-113.75"/>
</a>
</g>
</g>
<!-- Node16 -->
<g id="Node000016" class="node">
<title>Node16</title>
<g id="a_Node000016"><a xlink:href="../../d9/d45/namespace_slic3r_1_1_g_u_i.html#a335817b838dadf09b1a98925a4fa5dab" target="_top" xlink:title=" ">
<polygon fill="white" stroke="#666666" points="1024.12,-76.5 894.12,-76.5 894.12,-46 1024.12,-46 1024.12,-76.5"/>
<text text-anchor="start" x="902.12" y="-63" font-family="Helvetica,sans-Serif" font-size="10.00">Slic3r::GUI::wxImage</text>
<text text-anchor="middle" x="959.12" y="-51.75" font-family="Helvetica,sans-Serif" font-size="10.00">_to_wxBitmap_with_alpha</text>
</a>
</g>
</g>
<!-- Node14&#45;&gt;Node16 -->
<g id="edge15_Node000014_Node000016" class="edge">
<title>Node14&#45;&gt;Node16</title>
<g id="a_edge15_Node000014_Node000016"><a xlink:title=" ">
<path fill="none" stroke="#63b8ff" d="M846.21,-94.61C861.7,-89.99 878.82,-84.89 894.92,-80.09"/>
<polygon fill="#63b8ff" stroke="#63b8ff" points="895.73,-83.2 904.32,-76.99 893.73,-76.49 895.73,-83.2"/>
</a>
</g>
</g>
<!-- Node16&#45;&gt;Node17 -->
<g id="edge16_Node000016_Node000017" class="edge">
<title>Node16&#45;&gt;Node17</title>
<g id="a_edge16_Node000016_Node000017"><a xlink:title=" ">
<path fill="none" stroke="#63b8ff" d="M1024.5,-49.35C1033.26,-47.73 1041.87,-46.14 1049.58,-44.71"/>
<polygon fill="#63b8ff" stroke="#63b8ff" points="1049.94,-48.02 1059.14,-42.76 1048.67,-41.14 1049.94,-48.02"/>
</a>
</g>
</g>
</g>
</svg>
