<?xml version="1.0" encoding="UTF-8" standalone="no"?>
<!DOCTYPE svg PUBLIC "-//W3C//DTD SVG 1.1//EN"
 "http://www.w3.org/Graphics/SVG/1.1/DTD/svg11.dtd">
<!-- Generated by graphviz version 8.0.5 (20230430.1635)
 -->
<!-- Title: Slic3r::ModelObject::ModelObject Pages: 1 -->
<svg width="265pt" height="64pt"
 viewBox="0.00 0.00 265.00 64.25" xmlns="http://www.w3.org/2000/svg" xmlns:xlink="http://www.w3.org/1999/xlink">
<g id="graph0" class="graph" transform="scale(1 1) rotate(0) translate(4 60.25)">
<title>Slic3r::ModelObject::ModelObject</title>
<!-- Node1 -->
<g id="Node000001" class="node">
<title>Node1</title>
<g id="a_Node000001"><a xlink:title=" ">
<polygon fill="#999999" stroke="#666666" points="101.5,-42.88 0,-42.88 0,-12.37 101.5,-12.37 101.5,-42.88"/>
<text text-anchor="start" x="8" y="-29.38" font-family="Helvetica,sans-Serif" font-size="10.00">Slic3r::ModelObject</text>
<text text-anchor="middle" x="50.75" y="-18.12" font-family="Helvetica,sans-Serif" font-size="10.00">::ModelObject</text>
</a>
</g>
</g>
<!-- Node2 -->
<g id="Node000002" class="node">
<title>Node2</title>
<g id="a_Node000002"><a xlink:href="../../d9/d98/class_slic3r_1_1_object_base.html#afd34129dc2c72863ef538b184d2da4fe" target="_top" xlink:title=" ">
<polygon fill="white" stroke="#666666" points="252.88,-56.25 141.62,-56.25 141.62,-37 252.88,-37 252.88,-56.25"/>
<text text-anchor="middle" x="197.25" y="-42.75" font-family="Helvetica,sans-Serif" font-size="10.00">Slic3r::ObjectBase::id</text>
</a>
</g>
</g>
<!-- Node1&#45;&gt;Node2 -->
<g id="edge1_Node000001_Node000002" class="edge">
<title>Node1&#45;&gt;Node2</title>
<g id="a_edge1_Node000001_Node000002"><a xlink:title=" ">
<path fill="none" stroke="#63b8ff" d="M101.88,-34.22C111.12,-35.43 120.9,-36.72 130.51,-37.98"/>
<polygon fill="#63b8ff" stroke="#63b8ff" points="129.9,-41.56 140.27,-39.4 130.81,-34.62 129.9,-41.56"/>
</a>
</g>
</g>
<!-- Node3 -->
<g id="Node000003" class="node">
<title>Node3</title>
<g id="a_Node000003"><a xlink:href="../../d5/dd3/class_slic3r_1_1_object_i_d.html#a4a31f575e4ba9ad3193d71df7ea4856f" target="_top" xlink:title=" ">
<polygon fill="white" stroke="#666666" points="257,-19.25 137.5,-19.25 137.5,0 257,0 257,-19.25"/>
<text text-anchor="middle" x="197.25" y="-5.75" font-family="Helvetica,sans-Serif" font-size="10.00">Slic3r::ObjectID::invalid</text>
</a>
</g>
</g>
<!-- Node1&#45;&gt;Node3 -->
<g id="edge2_Node000001_Node000003" class="edge">
<title>Node1&#45;&gt;Node3</title>
<g id="a_edge2_Node000001_Node000003"><a xlink:title=" ">
<path fill="none" stroke="#63b8ff" d="M101.88,-21.38C109.76,-20.4 118.03,-19.37 126.26,-18.34"/>
<polygon fill="#63b8ff" stroke="#63b8ff" points="126.52,-21.71 136.01,-17 125.66,-14.77 126.52,-21.71"/>
</a>
</g>
</g>
</g>
</svg>
