<?xml version="1.0" encoding="UTF-8" standalone="no"?>
<!DOCTYPE svg PUBLIC "-//W3C//DTD SVG 1.1//EN"
 "http://www.w3.org/Graphics/SVG/1.1/DTD/svg11.dtd">
<!-- Generated by graphviz version 8.0.5 (20230430.1635)
 -->
<!-- Title: src/boost/nowide/cstdio.hpp Pages: 1 -->
<svg width="2897pt" height="149pt"
 viewBox="0.00 0.00 2896.88 149.00" xmlns="http://www.w3.org/2000/svg" xmlns:xlink="http://www.w3.org/1999/xlink">
<g id="graph0" class="graph" transform="scale(1 1) rotate(0) translate(4 145)">
<title>src/boost/nowide/cstdio.hpp</title>
<!-- Node1 -->
<g id="Node000001" class="node">
<title>Node1</title>
<g id="a_Node000001"><a xlink:title=" ">
<polygon fill="#999999" stroke="#666666" points="1437.12,-141 1298.88,-141 1298.88,-121.75 1437.12,-121.75 1437.12,-141"/>
<text text-anchor="middle" x="1368" y="-127.5" font-family="Helvetica,sans-Serif" font-size="10.00">src/boost/nowide/cstdio.hpp</text>
</a>
</g>
</g>
<!-- Node2 -->
<g id="Node000002" class="node">
<title>Node2</title>
<g id="a_Node000002"><a xlink:href="../../d6/d2c/shared_8cpp.html" target="_top" xlink:title=" ">
<polygon fill="white" stroke="#666666" points="118,-80.12 0,-80.12 0,-60.88 118,-60.88 118,-80.12"/>
<text text-anchor="middle" x="59" y="-66.62" font-family="Helvetica,sans-Serif" font-size="10.00">src/admesh/shared.cpp</text>
</a>
</g>
</g>
<!-- Node1&#45;&gt;Node2 -->
<g id="edge1_Node000001_Node000002" class="edge">
<title>Node1&#45;&gt;Node2</title>
<g id="a_edge1_Node000001_Node000002"><a xlink:title=" ">
<path fill="none" stroke="#63b8ff" d="M1287.46,-129.27C1049.6,-125.74 352.81,-113.27 127,-85.75 117.06,-84.54 106.42,-82.62 96.58,-80.57"/>
<polygon fill="#63b8ff" stroke="#63b8ff" points="1287.38,-132.79 1297.43,-129.44 1287.49,-125.79 1287.38,-132.79"/>
</a>
</g>
</g>
<!-- Node3 -->
<g id="Node000003" class="node">
<title>Node3</title>
<g id="a_Node000003"><a xlink:href="../../d3/d80/stl__io_8cpp.html" target="_top" xlink:title=" ">
<polygon fill="white" stroke="#666666" points="248,-80.12 136,-80.12 136,-60.88 248,-60.88 248,-80.12"/>
<text text-anchor="middle" x="192" y="-66.62" font-family="Helvetica,sans-Serif" font-size="10.00">src/admesh/stl_io.cpp</text>
</a>
</g>
</g>
<!-- Node1&#45;&gt;Node3 -->
<g id="edge2_Node000001_Node000003" class="edge">
<title>Node1&#45;&gt;Node3</title>
<g id="a_edge2_Node000001_Node000003"><a xlink:title=" ">
<path fill="none" stroke="#63b8ff" d="M1287.61,-128.98C1067.2,-124.86 456.46,-111.42 257,-85.75 247.6,-84.54 237.56,-82.64 228.24,-80.62"/>
<polygon fill="#63b8ff" stroke="#63b8ff" points="1287.37,-132.5 1297.44,-129.18 1287.5,-125.5 1287.37,-132.5"/>
</a>
</g>
</g>
<!-- Node4 -->
<g id="Node000004" class="node">
<title>Node4</title>
<g id="a_Node000004"><a xlink:href="../../d7/d71/stlinit_8cpp.html" target="_top" xlink:title=" ">
<polygon fill="white" stroke="#666666" points="378,-80.12 266,-80.12 266,-60.88 378,-60.88 378,-80.12"/>
<text text-anchor="middle" x="322" y="-66.62" font-family="Helvetica,sans-Serif" font-size="10.00">src/admesh/stlinit.cpp</text>
</a>
</g>
</g>
<!-- Node1&#45;&gt;Node4 -->
<g id="edge3_Node000001_Node000004" class="edge">
<title>Node1&#45;&gt;Node4</title>
<g id="a_edge3_Node000001_Node000004"><a xlink:title=" ">
<path fill="none" stroke="#63b8ff" d="M1287.64,-128.49C1085.62,-123.45 560.35,-108.53 387,-85.75 377.61,-84.52 367.56,-82.61 358.25,-80.59"/>
<polygon fill="#63b8ff" stroke="#63b8ff" points="1287.37,-132 1297.46,-128.75 1287.55,-125.01 1287.37,-132"/>
</a>
</g>
</g>
<!-- Node5 -->
<g id="Node000005" class="node">
<title>Node5</title>
<g id="a_Node000005"><a xlink:href="../../dc/d43/_a_m_f_8cpp.html" target="_top" xlink:title=" ">
<polygon fill="white" stroke="#666666" points="495.62,-85.75 396.38,-85.75 396.38,-55.25 495.62,-55.25 495.62,-85.75"/>
<text text-anchor="start" x="404.38" y="-72.25" font-family="Helvetica,sans-Serif" font-size="10.00">src/libslic3r/Format</text>
<text text-anchor="middle" x="446" y="-61" font-family="Helvetica,sans-Serif" font-size="10.00">/AMF.cpp</text>
</a>
</g>
</g>
<!-- Node1&#45;&gt;Node5 -->
<g id="edge4_Node000001_Node000005" class="edge">
<title>Node1&#45;&gt;Node5</title>
<g id="a_edge4_Node000001_Node000005"><a xlink:title=" ">
<path fill="none" stroke="#63b8ff" d="M1287.7,-131.28C1134.46,-131.89 790.06,-127.89 504,-85.75 501.33,-85.36 498.61,-84.9 495.87,-84.39"/>
<polygon fill="#63b8ff" stroke="#63b8ff" points="1287.42,-134.77 1297.4,-131.23 1287.39,-127.77 1287.42,-134.77"/>
</a>
</g>
</g>
<!-- Node6 -->
<g id="Node000006" class="node">
<title>Node6</title>
<g id="a_Node000006"><a xlink:href="../../d6/df3/objparser_8cpp.html" target="_top" xlink:title=" ">
<polygon fill="white" stroke="#666666" points="612.62,-85.75 513.38,-85.75 513.38,-55.25 612.62,-55.25 612.62,-85.75"/>
<text text-anchor="start" x="521.38" y="-72.25" font-family="Helvetica,sans-Serif" font-size="10.00">src/libslic3r/Format</text>
<text text-anchor="middle" x="563" y="-61" font-family="Helvetica,sans-Serif" font-size="10.00">/objparser.cpp</text>
</a>
</g>
</g>
<!-- Node1&#45;&gt;Node6 -->
<g id="edge5_Node000001_Node000006" class="edge">
<title>Node1&#45;&gt;Node6</title>
<g id="a_edge5_Node000001_Node000006"><a xlink:title=" ">
<path fill="none" stroke="#63b8ff" d="M1287.59,-130.22C1150.34,-128.92 862.35,-121.67 622,-85.75 619.08,-85.31 616.1,-84.8 613.09,-84.24"/>
<polygon fill="#63b8ff" stroke="#63b8ff" points="1287.38,-133.73 1297.41,-130.31 1287.44,-126.73 1287.38,-133.73"/>
</a>
</g>
</g>
<!-- Node7 -->
<g id="Node000007" class="node">
<title>Node7</title>
<g id="a_Node000007"><a xlink:href="../../df/d40/_g_code_8cpp.html" target="_top" xlink:title=" ">
<polygon fill="white" stroke="#666666" points="749,-80.12 631,-80.12 631,-60.88 749,-60.88 749,-80.12"/>
<text text-anchor="middle" x="690" y="-66.62" font-family="Helvetica,sans-Serif" font-size="10.00">src/libslic3r/GCode.cpp</text>
</a>
</g>
</g>
<!-- Node1&#45;&gt;Node7 -->
<g id="edge6_Node000001_Node000007" class="edge">
<title>Node1&#45;&gt;Node7</title>
<g id="a_edge6_Node000001_Node000007"><a xlink:title=" ">
<path fill="none" stroke="#63b8ff" d="M1287.63,-127.91C1170.61,-123.56 946.7,-112.3 758,-85.75 748.56,-84.42 738.48,-82.56 729.04,-80.61"/>
<polygon fill="#63b8ff" stroke="#63b8ff" points="1287.49,-131.45 1297.61,-128.31 1287.75,-124.45 1287.49,-131.45"/>
</a>
</g>
</g>
<!-- Node8 -->
<g id="Node000008" class="node">
<title>Node8</title>
<g id="a_Node000008"><a xlink:href="../../d8/d85/_g_code_processor_8cpp.html" target="_top" xlink:title=" ">
<polygon fill="white" stroke="#666666" points="879,-85.75 767,-85.75 767,-55.25 879,-55.25 879,-85.75"/>
<text text-anchor="start" x="775" y="-72.25" font-family="Helvetica,sans-Serif" font-size="10.00">src/libslic3r/GCode</text>
<text text-anchor="middle" x="823" y="-61" font-family="Helvetica,sans-Serif" font-size="10.00">/GCodeProcessor.cpp</text>
</a>
</g>
</g>
<!-- Node1&#45;&gt;Node8 -->
<g id="edge7_Node000001_Node000008" class="edge">
<title>Node1&#45;&gt;Node8</title>
<g id="a_edge7_Node000001_Node000008"><a xlink:title=" ">
<path fill="none" stroke="#63b8ff" d="M1287.77,-125.94C1192.16,-119.97 1027.75,-107.48 888,-85.75 885.15,-85.31 882.23,-84.81 879.29,-84.28"/>
<polygon fill="#63b8ff" stroke="#63b8ff" points="1287.32,-129.49 1297.51,-126.61 1287.75,-122.5 1287.32,-129.49"/>
</a>
</g>
</g>
<!-- Node9 -->
<g id="Node000009" class="node">
<title>Node9</title>
<g id="a_Node000009"><a xlink:href="../../d7/ddf/_g_code_reader_8cpp.html" target="_top" xlink:title=" ">
<polygon fill="white" stroke="#666666" points="1045.38,-80.12 896.62,-80.12 896.62,-60.88 1045.38,-60.88 1045.38,-80.12"/>
<text text-anchor="middle" x="971" y="-66.62" font-family="Helvetica,sans-Serif" font-size="10.00">src/libslic3r/GCodeReader.cpp</text>
</a>
</g>
</g>
<!-- Node1&#45;&gt;Node9 -->
<g id="edge8_Node000001_Node000009" class="edge">
<title>Node1&#45;&gt;Node9</title>
<g id="a_edge8_Node000001_Node000009"><a xlink:title=" ">
<path fill="none" stroke="#63b8ff" d="M1289.75,-119.8C1226.38,-111.1 1134.85,-98.21 1055,-85.75 1044.77,-84.15 1033.85,-82.36 1023.39,-80.61"/>
<polygon fill="#63b8ff" stroke="#63b8ff" points="1289.07,-123.38 1299.46,-121.27 1290.02,-116.44 1289.07,-123.38"/>
</a>
</g>
</g>
<!-- Node10 -->
<g id="Node000010" class="node">
<title>Node10</title>
<g id="a_Node000010"><a xlink:href="../../d0/df6/_p_n_g_read_write_8cpp.html" target="_top" xlink:title=" ">
<polygon fill="white" stroke="#666666" points="1218.38,-80.12 1063.62,-80.12 1063.62,-60.88 1218.38,-60.88 1218.38,-80.12"/>
<text text-anchor="middle" x="1141" y="-66.62" font-family="Helvetica,sans-Serif" font-size="10.00">src/libslic3r/PNGReadWrite.cpp</text>
</a>
</g>
</g>
<!-- Node1&#45;&gt;Node10 -->
<g id="edge9_Node000001_Node000010" class="edge">
<title>Node1&#45;&gt;Node10</title>
<g id="a_edge9_Node000001_Node000010"><a xlink:title=" ">
<path fill="none" stroke="#63b8ff" d="M1322.53,-118.58C1279.35,-107.38 1215.35,-90.78 1176.01,-80.58"/>
<polygon fill="#63b8ff" stroke="#63b8ff" points="1321.47,-122.18 1332.03,-121.3 1323.23,-115.41 1321.47,-122.18"/>
</a>
</g>
</g>
<!-- Node11 -->
<g id="Node000011" class="node">
<title>Node11</title>
<g id="a_Node000011"><a xlink:href="../../d6/d60/_preset_8cpp.html" target="_top" xlink:title=" ">
<polygon fill="white" stroke="#666666" points="1351.88,-80.12 1236.12,-80.12 1236.12,-60.88 1351.88,-60.88 1351.88,-80.12"/>
<text text-anchor="middle" x="1294" y="-66.62" font-family="Helvetica,sans-Serif" font-size="10.00">src/libslic3r/Preset.cpp</text>
</a>
</g>
</g>
<!-- Node1&#45;&gt;Node11 -->
<g id="edge10_Node000001_Node000011" class="edge">
<title>Node1&#45;&gt;Node11</title>
<g id="a_edge10_Node000001_Node000011"><a xlink:title=" ">
<path fill="none" stroke="#63b8ff" d="M1348.44,-114.81C1334.7,-103.88 1316.79,-89.64 1305.34,-80.53"/>
<polygon fill="#63b8ff" stroke="#63b8ff" points="1345.76,-117.95 1355.76,-121.43 1350.11,-112.47 1345.76,-117.95"/>
</a>
</g>
</g>
<!-- Node12 -->
<g id="Node000012" class="node">
<title>Node12</title>
<g id="a_Node000012"><a xlink:href="../../d9/d59/_preset_bundle_8cpp.html" target="_top" xlink:title=" ">
<polygon fill="white" stroke="#666666" points="1515.88,-80.12 1370.12,-80.12 1370.12,-60.88 1515.88,-60.88 1515.88,-80.12"/>
<text text-anchor="middle" x="1443" y="-66.62" font-family="Helvetica,sans-Serif" font-size="10.00">src/libslic3r/PresetBundle.cpp</text>
</a>
</g>
</g>
<!-- Node1&#45;&gt;Node12 -->
<g id="edge11_Node000001_Node000012" class="edge">
<title>Node1&#45;&gt;Node12</title>
<g id="a_edge11_Node000001_Node000012"><a xlink:title=" ">
<path fill="none" stroke="#63b8ff" d="M1387.82,-114.81C1401.75,-103.88 1419.9,-89.64 1431.5,-80.53"/>
<polygon fill="#63b8ff" stroke="#63b8ff" points="1386.1,-112.51 1380.39,-121.43 1390.42,-118.01 1386.1,-112.51"/>
</a>
</g>
</g>
<!-- Node13 -->
<g id="Node000013" class="node">
<title>Node13</title>
<g id="a_Node000013"><a xlink:href="../../d8/d2b/_s_v_g_8cpp.html" target="_top" xlink:title=" ">
<polygon fill="white" stroke="#666666" points="1642.12,-80.12 1533.88,-80.12 1533.88,-60.88 1642.12,-60.88 1642.12,-80.12"/>
<text text-anchor="middle" x="1588" y="-66.62" font-family="Helvetica,sans-Serif" font-size="10.00">src/libslic3r/SVG.cpp</text>
</a>
</g>
</g>
<!-- Node1&#45;&gt;Node13 -->
<g id="edge12_Node000001_Node000013" class="edge">
<title>Node1&#45;&gt;Node13</title>
<g id="a_edge12_Node000001_Node000013"><a xlink:title=" ">
<path fill="none" stroke="#63b8ff" d="M1412.34,-118.51C1454.18,-107.31 1516.02,-90.76 1554.07,-80.58"/>
<polygon fill="#63b8ff" stroke="#63b8ff" points="1411.65,-115.34 1402.89,-121.3 1413.46,-122.1 1411.65,-115.34"/>
</a>
</g>
</g>
<!-- Node14 -->
<g id="Node000014" class="node">
<title>Node14</title>
<g id="a_Node000014"><a xlink:href="../../d3/d6e/_triangle_mesh_8cpp.html" target="_top" xlink:title=" ">
<polygon fill="white" stroke="#666666" points="1805.88,-80.12 1660.12,-80.12 1660.12,-60.88 1805.88,-60.88 1805.88,-80.12"/>
<text text-anchor="middle" x="1733" y="-66.62" font-family="Helvetica,sans-Serif" font-size="10.00">src/libslic3r/TriangleMesh.cpp</text>
</a>
</g>
</g>
<!-- Node1&#45;&gt;Node14 -->
<g id="edge13_Node000001_Node000014" class="edge">
<title>Node1&#45;&gt;Node14</title>
<g id="a_edge13_Node000001_Node000014"><a xlink:title=" ">
<path fill="none" stroke="#63b8ff" d="M1438.14,-119.63C1495.44,-110.77 1578.51,-97.76 1651,-85.75 1660.84,-84.12 1671.33,-82.33 1681.4,-80.59"/>
<polygon fill="#63b8ff" stroke="#63b8ff" points="1437.75,-116.3 1428.4,-121.29 1438.81,-123.22 1437.75,-116.3"/>
</a>
</g>
</g>
<!-- Node15 -->
<g id="Node000015" class="node">
<title>Node15</title>
<g id="a_Node000015"><a xlink:href="../../d0/dc3/libslic3r_2pchheader_8hpp.html" target="_top" xlink:title=" ">
<polygon fill="white" stroke="#666666" points="1955.75,-80.12 1824.25,-80.12 1824.25,-60.88 1955.75,-60.88 1955.75,-80.12"/>
<text text-anchor="middle" x="1890" y="-66.62" font-family="Helvetica,sans-Serif" font-size="10.00">src/libslic3r/pchheader.hpp</text>
</a>
</g>
</g>
<!-- Node1&#45;&gt;Node15 -->
<g id="edge14_Node000001_Node000015" class="edge">
<title>Node1&#45;&gt;Node15</title>
<g id="a_edge14_Node000001_Node000015"><a xlink:title=" ">
<path fill="none" stroke="#63b8ff" d="M1448.44,-124.5C1538.13,-117.44 1687.37,-104.21 1815,-85.75 1824.97,-84.31 1835.63,-82.47 1845.69,-80.59"/>
<polygon fill="#63b8ff" stroke="#63b8ff" points="1448.23,-121.08 1438.53,-125.35 1448.77,-128.06 1448.23,-121.08"/>
</a>
</g>
</g>
<!-- Node17 -->
<g id="Node000017" class="node">
<title>Node17</title>
<g id="a_Node000017"><a xlink:href="../../de/d06/utils_8cpp.html" target="_top" xlink:title=" ">
<polygon fill="white" stroke="#666666" points="2078.62,-80.12 1973.38,-80.12 1973.38,-60.88 2078.62,-60.88 2078.62,-80.12"/>
<text text-anchor="middle" x="2026" y="-66.62" font-family="Helvetica,sans-Serif" font-size="10.00">src/libslic3r/utils.cpp</text>
</a>
</g>
</g>
<!-- Node1&#45;&gt;Node17 -->
<g id="edge16_Node000001_Node000017" class="edge">
<title>Node1&#45;&gt;Node17</title>
<g id="a_edge16_Node000001_Node000017"><a xlink:title=" ">
<path fill="none" stroke="#63b8ff" d="M1448.14,-128.32C1563.15,-124.49 1781.38,-113.89 1965,-85.75 1973.6,-84.43 1982.78,-82.55 1991.34,-80.58"/>
<polygon fill="#63b8ff" stroke="#63b8ff" points="1448.22,-124.85 1438.34,-128.67 1448.45,-131.85 1448.22,-124.85"/>
</a>
</g>
</g>
<!-- Node18 -->
<g id="Node000018" class="node">
<title>Node18</title>
<g id="a_Node000018"><a xlink:href="../../d7/da7/_snapshot_8cpp.html" target="_top" xlink:title=" ">
<polygon fill="white" stroke="#666666" points="2247.12,-80.12 2096.88,-80.12 2096.88,-60.88 2247.12,-60.88 2247.12,-80.12"/>
<text text-anchor="middle" x="2172" y="-66.62" font-family="Helvetica,sans-Serif" font-size="10.00">src/slic3r/Config/Snapshot.cpp</text>
</a>
</g>
</g>
<!-- Node1&#45;&gt;Node18 -->
<g id="edge17_Node000001_Node000018" class="edge">
<title>Node1&#45;&gt;Node18</title>
<g id="a_edge17_Node000001_Node000018"><a xlink:title=" ">
<path fill="none" stroke="#63b8ff" d="M1448.37,-128.18C1581.66,-123.91 1856.72,-112.46 2088,-85.75 2099.61,-84.41 2112.05,-82.54 2123.71,-80.59"/>
<polygon fill="#63b8ff" stroke="#63b8ff" points="1448.35,-124.71 1438.47,-128.52 1448.57,-131.7 1448.35,-124.71"/>
</a>
</g>
</g>
<!-- Node19 -->
<g id="Node000019" class="node">
<title>Node19</title>
<g id="a_Node000019"><a xlink:href="../../d4/d13/_background_slicing_process_8cpp.html" target="_top" xlink:title=" ">
<polygon fill="white" stroke="#666666" points="2396.75,-85.75 2265.25,-85.75 2265.25,-55.25 2396.75,-55.25 2396.75,-85.75"/>
<text text-anchor="start" x="2273.25" y="-72.25" font-family="Helvetica,sans-Serif" font-size="10.00">src/slic3r/GUI/Background</text>
<text text-anchor="middle" x="2331" y="-61" font-family="Helvetica,sans-Serif" font-size="10.00">SlicingProcess.cpp</text>
</a>
</g>
</g>
<!-- Node1&#45;&gt;Node19 -->
<g id="edge18_Node000001_Node000019" class="edge">
<title>Node1&#45;&gt;Node19</title>
<g id="a_edge18_Node000001_Node000019"><a xlink:title=" ">
<path fill="none" stroke="#63b8ff" d="M1448.25,-130.03C1604.37,-128.55 1959.64,-121.18 2256,-85.75 2258.9,-85.4 2261.85,-85.01 2264.82,-84.58"/>
<polygon fill="#63b8ff" stroke="#63b8ff" points="1448.33,-126.54 1438.36,-130.13 1448.39,-133.54 1448.33,-126.54"/>
</a>
</g>
</g>
<!-- Node20 -->
<g id="Node000020" class="node">
<title>Node20</title>
<g id="a_Node000020"><a xlink:href="../../d3/db4/_bitmap_cache_8cpp.html" target="_top" xlink:title=" ">
<polygon fill="white" stroke="#666666" points="2572.88,-80.12 2415.12,-80.12 2415.12,-60.88 2572.88,-60.88 2572.88,-80.12"/>
<text text-anchor="middle" x="2494" y="-66.62" font-family="Helvetica,sans-Serif" font-size="10.00">src/slic3r/GUI/BitmapCache.cpp</text>
</a>
</g>
</g>
<!-- Node1&#45;&gt;Node20 -->
<g id="edge19_Node000001_Node000020" class="edge">
<title>Node1&#45;&gt;Node20</title>
<g id="a_edge19_Node000001_Node000020"><a xlink:title=" ">
<path fill="none" stroke="#63b8ff" d="M1448.33,-130.13C1623,-128.9 2050.26,-122.07 2406,-85.75 2418.47,-84.48 2431.86,-82.58 2444.34,-80.59"/>
<polygon fill="#63b8ff" stroke="#63b8ff" points="1448.42,-126.64 1438.44,-130.2 1448.47,-133.64 1448.42,-126.64"/>
</a>
</g>
</g>
<!-- Node21 -->
<g id="Node000021" class="node">
<title>Node21</title>
<g id="a_Node000021"><a xlink:href="../../df/da1/_g_code_viewer_8cpp.html" target="_top" xlink:title=" ">
<polygon fill="white" stroke="#666666" points="2749.25,-80.12 2590.75,-80.12 2590.75,-60.88 2749.25,-60.88 2749.25,-80.12"/>
<text text-anchor="middle" x="2670" y="-66.62" font-family="Helvetica,sans-Serif" font-size="10.00">src/slic3r/GUI/GCodeViewer.cpp</text>
</a>
</g>
</g>
<!-- Node1&#45;&gt;Node21 -->
<g id="edge20_Node000001_Node000021" class="edge">
<title>Node1&#45;&gt;Node21</title>
<g id="a_edge20_Node000001_Node000021"><a xlink:title=" ">
<path fill="none" stroke="#63b8ff" d="M1448.31,-130.85C1643.17,-131.26 2156.33,-127.87 2582,-85.75 2594.63,-84.5 2608.2,-82.59 2620.81,-80.57"/>
<polygon fill="#63b8ff" stroke="#63b8ff" points="1448.33,-127.35 1438.33,-130.82 1448.32,-134.35 1448.33,-127.35"/>
</a>
</g>
</g>
<!-- Node22 -->
<g id="Node000022" class="node">
<title>Node22</title>
<g id="a_Node000022"><a xlink:href="../../d9/d6d/slic3r_2pchheader_8hpp.html" target="_top" xlink:title=" ">
<polygon fill="white" stroke="#666666" points="2888.88,-80.12 2767.12,-80.12 2767.12,-60.88 2888.88,-60.88 2888.88,-80.12"/>
<text text-anchor="middle" x="2828" y="-66.62" font-family="Helvetica,sans-Serif" font-size="10.00">src/slic3r/pchheader.hpp</text>
</a>
</g>
</g>
<!-- Node1&#45;&gt;Node22 -->
<g id="edge21_Node000001_Node000022" class="edge">
<title>Node1&#45;&gt;Node22</title>
<g id="a_edge21_Node000001_Node000022"><a xlink:title=" ">
<path fill="none" stroke="#63b8ff" d="M1447.95,-129.58C1703.95,-126.76 2501.64,-115.74 2758,-85.75 2768.22,-84.55 2779.18,-82.64 2789.31,-80.59"/>
<polygon fill="#63b8ff" stroke="#63b8ff" points="1448.22,-126.09 1438.26,-129.7 1448.29,-133.09 1448.22,-126.09"/>
</a>
</g>
</g>
<!-- Node16 -->
<g id="Node000016" class="node">
<title>Node16</title>
<g id="a_Node000016"><a xlink:href="../../d7/dde/libslic3r_2pchheader_8cpp.html" target="_top" xlink:title=" ">
<polygon fill="white" stroke="#666666" points="1955.75,-19.25 1824.25,-19.25 1824.25,0 1955.75,0 1955.75,-19.25"/>
<text text-anchor="middle" x="1890" y="-5.75" font-family="Helvetica,sans-Serif" font-size="10.00">src/libslic3r/pchheader.cpp</text>
</a>
</g>
</g>
<!-- Node15&#45;&gt;Node16 -->
<g id="edge15_Node000015_Node000016" class="edge">
<title>Node15&#45;&gt;Node16</title>
<g id="a_edge15_Node000015_Node000016"><a xlink:title=" ">
<path fill="none" stroke="#63b8ff" d="M1890,-49.74C1890,-39.56 1890,-27.63 1890,-19.65"/>
<polygon fill="#63b8ff" stroke="#63b8ff" points="1886.5,-49.56 1890,-59.56 1893.5,-49.56 1886.5,-49.56"/>
</a>
</g>
</g>
<!-- Node23 -->
<g id="Node000023" class="node">
<title>Node23</title>
<g id="a_Node000023"><a xlink:href="../../d6/dc8/slic3r_2pchheader_8cpp.html" target="_top" xlink:title=" ">
<polygon fill="white" stroke="#666666" points="2888.88,-19.25 2767.12,-19.25 2767.12,0 2888.88,0 2888.88,-19.25"/>
<text text-anchor="middle" x="2828" y="-5.75" font-family="Helvetica,sans-Serif" font-size="10.00">src/slic3r/pchheader.cpp</text>
</a>
</g>
</g>
<!-- Node22&#45;&gt;Node23 -->
<g id="edge22_Node000022_Node000023" class="edge">
<title>Node22&#45;&gt;Node23</title>
<g id="a_edge22_Node000022_Node000023"><a xlink:title=" ">
<path fill="none" stroke="#63b8ff" d="M2828,-49.74C2828,-39.56 2828,-27.63 2828,-19.65"/>
<polygon fill="#63b8ff" stroke="#63b8ff" points="2824.5,-49.56 2828,-59.56 2831.5,-49.56 2824.5,-49.56"/>
</a>
</g>
</g>
</g>
</svg>
