<?xml version="1.0" encoding="UTF-8" standalone="no"?>
<!DOCTYPE svg PUBLIC "-//W3C//DTD SVG 1.1//EN"
 "http://www.w3.org/Graphics/SVG/1.1/DTD/svg11.dtd">
<!-- Generated by graphviz version 8.0.5 (20230430.1635)
 -->
<!-- Title: src/boost/nowide/cstdio.hpp Pages: 1 -->
<svg width="484pt" height="204pt"
 viewBox="0.00 0.00 484.12 204.25" xmlns="http://www.w3.org/2000/svg" xmlns:xlink="http://www.w3.org/1999/xlink">

<svg id="main" version="1.1" xmlns="http://www.w3.org/2000/svg" xmlns:xlink="http://www.w3.org/1999/xlink" xml:space="preserve" onload="init(evt)">
<style type="text/css"><![CDATA[
.node, .edge {opacity: 0.7;}
.node.selected, .edge.selected {opacity: 1;}
.edge:hover path { stroke: red; }
.edge:hover polygon { stroke: red; fill: red; }
]]></style>
<script type="application/ecmascript" xlink:href="../../svg.min.js"/>
<svg id="graph" class="graph">
<g id="graph0" class="graph" transform="scale(1 1) rotate(0) translate(4 200.25)">
<title>src/boost/nowide/cstdio.hpp</title>
<!-- Node1 -->
<g id="Node000001" class="node">
<title>Node1</title>
<g id="a_Node000001"><a xlink:title=" ">
<polygon fill="#999999" stroke="#666666" points="273.25,-196.25 135,-196.25 135,-177 273.25,-177 273.25,-196.25"/>
<text text-anchor="middle" x="204.12" y="-182.75" font-family="Helvetica,sans-Serif" font-size="10.00">src/boost/nowide/cstdio.hpp</text>
</a>
</g>
</g>
<!-- Node2 -->
<g id="Node000002" class="node">
<title>Node2</title>
<g id="a_Node000002"><a xlink:title=" ">
<polygon fill="#e0e0e0" stroke="#999999" points="42.25,-141 0,-141 0,-121.75 42.25,-121.75 42.25,-141"/>
<text text-anchor="middle" x="21.12" y="-127.5" font-family="Helvetica,sans-Serif" font-size="10.00">cstdio</text>
</a>
</g>
</g>
<!-- Node1&#45;&gt;Node2 -->
<g id="edge1_Node000001_Node000002" class="edge">
<title>Node1&#45;&gt;Node2</title>
<g id="a_edge1_Node000001_Node000002"><a xlink:title=" ">
<path fill="none" stroke="#63b8ff" d="M173.08,-176.59C139.59,-166.85 86.53,-151.41 52.8,-141.59"/>
<polygon fill="#63b8ff" stroke="#63b8ff" points="54.15,-138.05 43.57,-138.62 52.19,-144.77 54.15,-138.05"/>
</a>
</g>
</g>
<!-- Node3 -->
<g id="Node000003" class="node">
<title>Node3</title>
<g id="a_Node000003"><a xlink:title=" ">
<polygon fill="#e0e0e0" stroke="#999999" points="105.75,-141 60.5,-141 60.5,-121.75 105.75,-121.75 105.75,-141"/>
<text text-anchor="middle" x="83.12" y="-127.5" font-family="Helvetica,sans-Serif" font-size="10.00">stdio.h</text>
</a>
</g>
</g>
<!-- Node1&#45;&gt;Node3 -->
<g id="edge2_Node000001_Node000003" class="edge">
<title>Node1&#45;&gt;Node3</title>
<g id="a_edge2_Node000001_Node000003"><a xlink:title=" ">
<path fill="none" stroke="#63b8ff" d="M183.6,-176.59C164.39,-168.14 135.45,-155.4 113.56,-145.77"/>
<polygon fill="#63b8ff" stroke="#63b8ff" points="115.31,-142.28 104.75,-141.45 112.49,-148.68 115.31,-142.28"/>
</a>
</g>
</g>
<!-- Node4 -->
<g id="Node000004" class="node">
<title>Node4</title>
<g id="a_Node000004"><a xlink:title=" ">
<polygon fill="#e0e0e0" stroke="#999999" points="212.12,-141 124.12,-141 124.12,-121.75 212.12,-121.75 212.12,-141"/>
<text text-anchor="middle" x="168.12" y="-127.5" font-family="Helvetica,sans-Serif" font-size="10.00">boost/config.hpp</text>
</a>
</g>
</g>
<!-- Node1&#45;&gt;Node4 -->
<g id="edge3_Node000001_Node000004" class="edge">
<title>Node1&#45;&gt;Node4</title>
<g id="a_edge3_Node000001_Node000004"><a xlink:title=" ">
<path fill="none" stroke="#63b8ff" d="M198.18,-176.83C193.31,-169.63 186.26,-159.21 180.22,-150.26"/>
<polygon fill="#63b8ff" stroke="#63b8ff" points="182.7,-148.68 174.2,-142.36 176.9,-152.6 182.7,-148.68"/>
</a>
</g>
</g>
<!-- Node5 -->
<g id="Node000005" class="node">
<title>Node5</title>
<g id="a_Node000005"><a xlink:href="../../df/d32/convert_8hpp.html" target="_top" xlink:title=" ">
<polygon fill="white" stroke="#666666" points="301,-85.75 173.25,-85.75 173.25,-66.5 301,-66.5 301,-85.75"/>
<text text-anchor="middle" x="237.12" y="-72.25" font-family="Helvetica,sans-Serif" font-size="10.00">boost/nowide/convert.hpp</text>
</a>
</g>
</g>
<!-- Node1&#45;&gt;Node5 -->
<g id="edge4_Node000001_Node000005" class="edge">
<title>Node1&#45;&gt;Node5</title>
<g id="a_edge4_Node000001_Node000005"><a xlink:title=" ">
<path fill="none" stroke="#63b8ff" d="M207.96,-176.51C211.64,-167.57 217.2,-153.5 221.12,-141 225.75,-126.29 229.94,-109.35 232.88,-96.61"/>
<polygon fill="#63b8ff" stroke="#63b8ff" points="236.51,-97.42 235.27,-86.89 229.67,-95.89 236.51,-97.42"/>
</a>
</g>
</g>
<!-- Node8 -->
<g id="Node000008" class="node">
<title>Node8</title>
<g id="a_Node000008"><a xlink:href="../../de/dc1/stackstring_8hpp.html" target="_top" xlink:title=" ">
<polygon fill="white" stroke="#666666" points="411.88,-141 268.38,-141 268.38,-121.75 411.88,-121.75 411.88,-141"/>
<text text-anchor="middle" x="340.12" y="-127.5" font-family="Helvetica,sans-Serif" font-size="10.00">boost/nowide/stackstring.hpp</text>
</a>
</g>
</g>
<!-- Node1&#45;&gt;Node8 -->
<g id="edge7_Node000001_Node000008" class="edge">
<title>Node1&#45;&gt;Node8</title>
<g id="a_edge7_Node000001_Node000008"><a xlink:title=" ">
<path fill="none" stroke="#63b8ff" d="M227.2,-176.59C249.08,-168.02 282.2,-155.06 306.92,-145.38"/>
<polygon fill="#63b8ff" stroke="#63b8ff" points="307.91,-148.36 315.94,-141.45 305.35,-141.84 307.91,-148.36"/>
</a>
</g>
</g>
<!-- Node11 -->
<g id="Node000011" class="node">
<title>Node11</title>
<g id="a_Node000011"><a xlink:title=" ">
<polygon fill="#e0e0e0" stroke="#999999" points="476.12,-141 430.12,-141 430.12,-121.75 476.12,-121.75 476.12,-141"/>
<text text-anchor="middle" x="453.12" y="-127.5" font-family="Helvetica,sans-Serif" font-size="10.00">errno.h</text>
</a>
</g>
</g>
<!-- Node1&#45;&gt;Node11 -->
<g id="edge11_Node000001_Node000011" class="edge">
<title>Node1&#45;&gt;Node11</title>
<g id="a_edge11_Node000001_Node000011"><a xlink:title=" ">
<path fill="none" stroke="#63b8ff" d="M252.57,-176.53C294.35,-168.5 356.51,-156.08 419.27,-141.33"/>
<polygon fill="#63b8ff" stroke="#63b8ff" points="419.82,-144.56 428.75,-138.85 418.21,-137.75 419.82,-144.56"/>
</a>
</g>
</g>
<!-- Node6 -->
<g id="Node000006" class="node">
<title>Node6</title>
<g id="a_Node000006"><a xlink:title=" ">
<polygon fill="#e0e0e0" stroke="#999999" points="211.12,-24.88 171.12,-24.88 171.12,-5.63 211.12,-5.63 211.12,-24.88"/>
<text text-anchor="middle" x="191.12" y="-11.38" font-family="Helvetica,sans-Serif" font-size="10.00">string</text>
</a>
</g>
</g>
<!-- Node5&#45;&gt;Node6 -->
<g id="edge5_Node000005_Node000006" class="edge">
<title>Node5&#45;&gt;Node6</title>
<g id="a_edge5_Node000005_Node000006"><a xlink:title=" ">
<path fill="none" stroke="#63b8ff" d="M230.14,-66.18C223.45,-57.62 213.18,-44.48 204.85,-33.82"/>
<polygon fill="#63b8ff" stroke="#63b8ff" points="207.09,-32 198.18,-26.28 201.58,-36.31 207.09,-32"/>
</a>
</g>
</g>
<!-- Node7 -->
<g id="Node000007" class="node">
<title>Node7</title>
<g id="a_Node000007"><a xlink:title=" ">
<polygon fill="#e0e0e0" stroke="#999999" points="339.38,-30.5 228.88,-30.5 228.88,0 339.38,0 339.38,-30.5"/>
<text text-anchor="start" x="236.88" y="-17" font-family="Helvetica,sans-Serif" font-size="10.00">boost/locale/encoding</text>
<text text-anchor="middle" x="284.12" y="-5.75" font-family="Helvetica,sans-Serif" font-size="10.00">_utf.hpp</text>
</a>
</g>
</g>
<!-- Node5&#45;&gt;Node7 -->
<g id="edge6_Node000005_Node000007" class="edge">
<title>Node5&#45;&gt;Node7</title>
<g id="a_edge6_Node000005_Node000007"><a xlink:title=" ">
<path fill="none" stroke="#63b8ff" d="M244.26,-66.18C250,-58.99 258.33,-48.56 265.89,-39.09"/>
<polygon fill="#63b8ff" stroke="#63b8ff" points="269.02,-41.78 272.52,-31.78 263.55,-37.41 269.02,-41.78"/>
</a>
</g>
</g>
<!-- Node8&#45;&gt;Node5 -->
<g id="edge8_Node000008_Node000005" class="edge">
<title>Node8&#45;&gt;Node5</title>
<g id="a_edge8_Node000008_Node000005"><a xlink:title=" ">
<path fill="none" stroke="#63b8ff" d="M322.65,-121.34C306.67,-113.08 282.78,-100.73 264.3,-91.18"/>
<polygon fill="#63b8ff" stroke="#63b8ff" points="266.17,-87.69 255.68,-86.2 262.96,-93.9 266.17,-87.69"/>
</a>
</g>
</g>
<!-- Node9 -->
<g id="Node000009" class="node">
<title>Node9</title>
<g id="a_Node000009"><a xlink:title=" ">
<polygon fill="#e0e0e0" stroke="#999999" points="367.25,-85.75 319,-85.75 319,-66.5 367.25,-66.5 367.25,-85.75"/>
<text text-anchor="middle" x="343.12" y="-72.25" font-family="Helvetica,sans-Serif" font-size="10.00">string.h</text>
</a>
</g>
</g>
<!-- Node8&#45;&gt;Node9 -->
<g id="edge9_Node000008_Node000009" class="edge">
<title>Node8&#45;&gt;Node9</title>
<g id="a_edge9_Node000008_Node000009"><a xlink:title=" ">
<path fill="none" stroke="#63b8ff" d="M340.62,-121.58C341,-114.92 341.53,-105.49 342,-97.03"/>
<polygon fill="#63b8ff" stroke="#63b8ff" points="345.55,-97.29 342.62,-87.11 338.56,-96.9 345.55,-97.29"/>
</a>
</g>
</g>
<!-- Node10 -->
<g id="Node000010" class="node">
<title>Node10</title>
<g id="a_Node000010"><a xlink:title=" ">
<polygon fill="#e0e0e0" stroke="#999999" points="441,-85.75 385.25,-85.75 385.25,-66.5 441,-66.5 441,-85.75"/>
<text text-anchor="middle" x="413.12" y="-72.25" font-family="Helvetica,sans-Serif" font-size="10.00">algorithm</text>
</a>
</g>
</g>
<!-- Node8&#45;&gt;Node10 -->
<g id="edge10_Node000008_Node000010" class="edge">
<title>Node8&#45;&gt;Node10</title>
<g id="a_edge10_Node000008_Node000010"><a xlink:title=" ">
<path fill="none" stroke="#63b8ff" d="M352.51,-121.34C363.38,-113.41 379.41,-101.72 392.25,-92.35"/>
<polygon fill="#63b8ff" stroke="#63b8ff" points="393.91,-94.75 399.92,-86.02 389.78,-89.09 393.91,-94.75"/>
</a>
</g>
</g>
</g>
</svg>
</svg>

<style type='text/css'>
<![CDATA[
[data-mouse-over-selected='false'] { opacity: 0.7; }
[data-mouse-over-selected='true']  { opacity: 1.0; }
]]>
</style>
<script type="application/ecmascript"><![CDATA[
document.addEventListener('DOMContentLoaded', (event) => {
  highlightEdges();
  highlightAdjacentNodes();
});
]]></script>
</svg>
