<?xml version="1.0" encoding="UTF-8" standalone="no"?>
<!DOCTYPE svg PUBLIC "-//W3C//DTD SVG 1.1//EN"
 "http://www.w3.org/Graphics/SVG/1.1/DTD/svg11.dtd">
<!-- Generated by graphviz version 8.0.5 (20230430.1635)
 -->
<!-- Title: src/libigl/igl/copyleft/cgal/submesh_aabb_tree.cpp Pages: 1 -->
<svg width="209pt" height="449pt"
 viewBox="0.00 0.00 208.75 448.75" xmlns="http://www.w3.org/2000/svg" xmlns:xlink="http://www.w3.org/1999/xlink">

<svg id="main" version="1.1" xmlns="http://www.w3.org/2000/svg" xmlns:xlink="http://www.w3.org/1999/xlink" xml:space="preserve" onload="init(evt)">
<style type="text/css"><![CDATA[
.node, .edge {opacity: 0.7;}
.node.selected, .edge.selected {opacity: 1;}
.edge:hover path { stroke: red; }
.edge:hover polygon { stroke: red; fill: red; }
]]></style>
<script type="application/ecmascript" xlink:href="../../svg.min.js"/>
<svg id="graph" class="graph">
<g id="graph0" class="graph" transform="scale(1 1) rotate(0) translate(4 444.75)">
<title>src/libigl/igl/copyleft/cgal/submesh_aabb_tree.cpp</title>
<!-- Node1 -->
<g id="Node000001" class="node">
<title>Node1</title>
<g id="a_Node000001"><a xlink:title=" ">
<polygon fill="#999999" stroke="#666666" points="174.88,-440.75 28.38,-440.75 28.38,-410.25 174.88,-410.25 174.88,-440.75"/>
<text text-anchor="start" x="36.38" y="-427.25" font-family="Helvetica,sans-Serif" font-size="10.00">src/libigl/igl/copyleft</text>
<text text-anchor="middle" x="101.62" y="-416" font-family="Helvetica,sans-Serif" font-size="10.00">/cgal/submesh_aabb_tree.cpp</text>
</a>
</g>
</g>
<!-- Node2 -->
<g id="Node000002" class="node">
<title>Node2</title>
<g id="a_Node000002"><a xlink:href="../../dd/d49/submesh__aabb__tree_8h.html" target="_top" xlink:title=" ">
<polygon fill="white" stroke="#666666" points="169.62,-374.25 33.62,-374.25 33.62,-343.75 169.62,-343.75 169.62,-374.25"/>
<text text-anchor="start" x="41.62" y="-360.75" font-family="Helvetica,sans-Serif" font-size="10.00">src/libigl/igl/copyleft</text>
<text text-anchor="middle" x="101.62" y="-349.5" font-family="Helvetica,sans-Serif" font-size="10.00">/cgal/submesh_aabb_tree.h</text>
</a>
</g>
</g>
<!-- Node1&#45;&gt;Node2 -->
<g id="edge1_Node000001_Node000002" class="edge">
<title>Node1&#45;&gt;Node2</title>
<g id="a_edge1_Node000001_Node000002"><a xlink:title=" ">
<path fill="none" stroke="#63b8ff" d="M95.01,-399.13C94.67,-390.8 94.96,-381.83 95.87,-374.58"/>
<polygon fill="#63b8ff" stroke="#63b8ff" points="91.59,-399.17 95.86,-408.86 98.56,-398.62 91.59,-399.17"/>
</a>
</g>
</g>
<!-- Node2&#45;&gt;Node1 -->
<g id="edge11_Node000002_Node000001" class="edge">
<title>Node2&#45;&gt;Node1</title>
<g id="a_edge11_Node000002_Node000001"><a xlink:title=" ">
<path fill="none" stroke="#63b8ff" d="M108.23,-385.31C108.58,-393.63 108.29,-402.61 107.39,-409.86"/>
<polygon fill="#63b8ff" stroke="#63b8ff" points="111.66,-385.27 107.38,-375.58 104.68,-385.82 111.66,-385.27"/>
</a>
</g>
</g>
<!-- Node3 -->
<g id="Node000003" class="node">
<title>Node3</title>
<g id="a_Node000003"><a xlink:href="../../d7/d36/closest__facet_8cpp.html" target="_top" xlink:title=" ">
<polygon fill="white" stroke="#666666" points="117.25,-307.75 0,-307.75 0,-277.25 117.25,-277.25 117.25,-307.75"/>
<text text-anchor="start" x="8" y="-294.25" font-family="Helvetica,sans-Serif" font-size="10.00">src/libigl/igl/copyleft</text>
<text text-anchor="middle" x="58.62" y="-283" font-family="Helvetica,sans-Serif" font-size="10.00">/cgal/closest_facet.cpp</text>
</a>
</g>
</g>
<!-- Node2&#45;&gt;Node3 -->
<g id="edge2_Node000002_Node000003" class="edge">
<title>Node2&#45;&gt;Node3</title>
<g id="a_edge2_Node000002_Node000003"><a xlink:title=" ">
<path fill="none" stroke="#63b8ff" d="M85.84,-334.32C79.98,-325.53 73.51,-315.82 68.34,-308.08"/>
<polygon fill="#63b8ff" stroke="#63b8ff" points="83.41,-335.98 91.87,-342.36 89.23,-332.1 83.41,-335.98"/>
</a>
</g>
</g>
<!-- Node5 -->
<g id="Node000005" class="node">
<title>Node5</title>
<g id="a_Node000005"><a xlink:href="../../d6/d8c/extract__cells_8cpp.html" target="_top" xlink:title=" ">
<polygon fill="white" stroke="#666666" points="200.75,-174.75 86.5,-174.75 86.5,-144.25 200.75,-144.25 200.75,-174.75"/>
<text text-anchor="start" x="94.5" y="-161.25" font-family="Helvetica,sans-Serif" font-size="10.00">src/libigl/igl/copyleft</text>
<text text-anchor="middle" x="143.62" y="-150" font-family="Helvetica,sans-Serif" font-size="10.00">/cgal/extract_cells.cpp</text>
</a>
</g>
</g>
<!-- Node2&#45;&gt;Node5 -->
<g id="edge10_Node000002_Node000005" class="edge">
<title>Node2&#45;&gt;Node5</title>
<g id="a_edge10_Node000002_Node000005"><a xlink:title=" ">
<path fill="none" stroke="#63b8ff" d="M115.65,-334.06C119.82,-325.95 123.98,-316.68 126.62,-307.75 140.6,-260.63 143.18,-201.85 143.6,-175.04"/>
<polygon fill="#63b8ff" stroke="#63b8ff" points="112.16,-332.14 110.47,-342.6 118.32,-335.48 112.16,-332.14"/>
</a>
</g>
</g>
<!-- Node4 -->
<g id="Node000004" class="node">
<title>Node4</title>
<g id="a_Node000004"><a xlink:href="../../d4/d7a/closest__facet_8h.html" target="_top" xlink:title=" ">
<polygon fill="white" stroke="#666666" points="112,-241.25 5.25,-241.25 5.25,-210.75 112,-210.75 112,-241.25"/>
<text text-anchor="start" x="13.25" y="-227.75" font-family="Helvetica,sans-Serif" font-size="10.00">src/libigl/igl/copyleft</text>
<text text-anchor="middle" x="58.62" y="-216.5" font-family="Helvetica,sans-Serif" font-size="10.00">/cgal/closest_facet.h</text>
</a>
</g>
</g>
<!-- Node3&#45;&gt;Node4 -->
<g id="edge3_Node000003_Node000004" class="edge">
<title>Node3&#45;&gt;Node4</title>
<g id="a_edge3_Node000003_Node000004"><a xlink:title=" ">
<path fill="none" stroke="#63b8ff" d="M52.01,-266.13C51.67,-257.8 51.96,-248.83 52.87,-241.58"/>
<polygon fill="#63b8ff" stroke="#63b8ff" points="48.59,-266.17 52.86,-275.86 55.56,-265.62 48.59,-266.17"/>
</a>
</g>
</g>
<!-- Node4&#45;&gt;Node3 -->
<g id="edge4_Node000004_Node000003" class="edge">
<title>Node4&#45;&gt;Node3</title>
<g id="a_edge4_Node000004_Node000003"><a xlink:title=" ">
<path fill="none" stroke="#63b8ff" d="M65.23,-252.31C65.58,-260.63 65.29,-269.61 64.39,-276.86"/>
<polygon fill="#63b8ff" stroke="#63b8ff" points="68.66,-252.27 64.38,-242.58 61.68,-252.82 68.66,-252.27"/>
</a>
</g>
</g>
<!-- Node4&#45;&gt;Node5 -->
<g id="edge5_Node000004_Node000005" class="edge">
<title>Node4&#45;&gt;Node5</title>
<g id="a_edge5_Node000004_Node000005"><a xlink:title=" ">
<path fill="none" stroke="#63b8ff" d="M86.54,-203.82C98.94,-194.41 113.23,-183.56 124.41,-175.08"/>
<polygon fill="#63b8ff" stroke="#63b8ff" points="84.76,-201.53 78.91,-210.36 88.99,-207.11 84.76,-201.53"/>
</a>
</g>
</g>
<!-- Node21 -->
<g id="Node000021" class="node">
<title>Node21</title>
<g id="a_Node000021"><a xlink:href="../../d1/d87/propagate__winding__numbers_8cpp.html" target="_top" xlink:title=" ">
<polygon fill="#fff0f0" stroke="red" points="161.12,-41.75 40.12,-41.75 40.12,0 161.12,0 161.12,-41.75"/>
<text text-anchor="start" x="48.12" y="-28.25" font-family="Helvetica,sans-Serif" font-size="10.00">src/libigl/igl/copyleft</text>
<text text-anchor="start" x="48.12" y="-17" font-family="Helvetica,sans-Serif" font-size="10.00">/cgal/propagate_winding</text>
<text text-anchor="middle" x="100.62" y="-5.75" font-family="Helvetica,sans-Serif" font-size="10.00">_numbers.cpp</text>
</a>
</g>
</g>
<!-- Node4&#45;&gt;Node21 -->
<g id="edge9_Node000004_Node000021" class="edge">
<title>Node4&#45;&gt;Node21</title>
<g id="a_edge9_Node000004_Node000021"><a xlink:title=" ">
<path fill="none" stroke="#63b8ff" d="M61.53,-200.08C65.22,-170.62 72.39,-120.21 82.62,-77.75 85.52,-65.76 89.69,-52.62 93.3,-42.1"/>
<polygon fill="#63b8ff" stroke="#63b8ff" points="57.98,-199.29 60.24,-209.64 64.92,-200.14 57.98,-199.29"/>
</a>
</g>
</g>
<!-- Node6 -->
<g id="Node000006" class="node">
<title>Node6</title>
<g id="a_Node000006"><a xlink:href="../../d4/d27/extract__cells_8h.html" target="_top" xlink:title=" ">
<polygon fill="#fff0f0" stroke="red" points="195.5,-108.25 91.75,-108.25 91.75,-77.75 195.5,-77.75 195.5,-108.25"/>
<text text-anchor="start" x="99.75" y="-94.75" font-family="Helvetica,sans-Serif" font-size="10.00">src/libigl/igl/copyleft</text>
<text text-anchor="middle" x="143.62" y="-83.5" font-family="Helvetica,sans-Serif" font-size="10.00">/cgal/extract_cells.h</text>
</a>
</g>
</g>
<!-- Node5&#45;&gt;Node6 -->
<g id="edge6_Node000005_Node000006" class="edge">
<title>Node5&#45;&gt;Node6</title>
<g id="a_edge6_Node000005_Node000006"><a xlink:title=" ">
<path fill="none" stroke="#63b8ff" d="M137.01,-133.13C136.67,-124.8 136.96,-115.83 137.87,-108.58"/>
<polygon fill="#63b8ff" stroke="#63b8ff" points="133.59,-133.17 137.86,-142.86 140.56,-132.62 133.59,-133.17"/>
</a>
</g>
</g>
<!-- Node6&#45;&gt;Node5 -->
<g id="edge7_Node000006_Node000005" class="edge">
<title>Node6&#45;&gt;Node5</title>
<g id="a_edge7_Node000006_Node000005"><a xlink:title=" ">
<path fill="none" stroke="#63b8ff" d="M150.23,-119.31C150.58,-127.63 150.29,-136.61 149.39,-143.86"/>
<polygon fill="#63b8ff" stroke="#63b8ff" points="153.66,-119.27 149.38,-109.58 146.68,-119.82 153.66,-119.27"/>
</a>
</g>
</g>
<!-- Node6&#45;&gt;Node21 -->
<g id="edge8_Node000006_Node000021" class="edge">
<title>Node6&#45;&gt;Node21</title>
<g id="a_edge8_Node000006_Node000021"><a xlink:title=" ">
<path fill="none" stroke="#63b8ff" d="M129.01,-68.16C123.84,-59.74 118.08,-50.35 113.11,-42.24"/>
<polygon fill="#63b8ff" stroke="#63b8ff" points="126.5,-69.77 134.72,-76.47 132.47,-66.12 126.5,-69.77"/>
</a>
</g>
</g>
</g>
</svg>
</svg>

<style type='text/css'>
<![CDATA[
[data-mouse-over-selected='false'] { opacity: 0.7; }
[data-mouse-over-selected='true']  { opacity: 1.0; }
]]>
</style>
<script type="application/ecmascript"><![CDATA[
document.addEventListener('DOMContentLoaded', (event) => {
  highlightEdges();
  highlightAdjacentNodes();
});
]]></script>
</svg>
