<?xml version="1.0" encoding="UTF-8" standalone="no"?>
<!DOCTYPE svg PUBLIC "-//W3C//DTD SVG 1.1//EN"
 "http://www.w3.org/Graphics/SVG/1.1/DTD/svg11.dtd">
<!-- Generated by graphviz version 8.0.5 (20230430.1635)
 -->
<!-- Title: libnest2d::_Item::boundingBox Pages: 1 -->
<!--zoomable 214 -->

<svg id="main" version="1.1" xmlns="http://www.w3.org/2000/svg" xmlns:xlink="http://www.w3.org/1999/xlink" xml:space="preserve" onload="init(evt)">
<style type="text/css"><![CDATA[
.node, .edge {opacity: 0.7;}
.node.selected, .edge.selected {opacity: 1;}
.edge:hover path { stroke: red; }
.edge:hover polygon { stroke: red; fill: red; }
]]></style>

<defs>
  <circle id="rim" cx="0" cy="0" r="7"/>
  <circle id="rim2" cx="0" cy="0" r="3.5"/>
  <g id="zoomPlus">
    <use xlink:href="#rim" fill="#404040"><set attributeName="fill" to="#808080" begin="zoomplus.mouseover" end="zoomplus.mouseout"/></use>
    <path d="M-4,0h8M0,-4v8" fill="none" stroke="white" stroke-width="1.5" pointer-events="none"/>
  </g>
  <g id="zoomMin">
    <use xlink:href="#rim" fill="#404040"><set attributeName="fill" to="#808080" begin="zoomminus.mouseover" end="zoomminus.mouseout"/></use>
    <path d="M-4,0h8" fill="none" stroke="white" stroke-width="1.5" pointer-events="none"/>
  </g>
  <g id="arrowUp" transform="translate(30 24)">
    <use xlink:href="#rim"/>
    <path pointer-events="none" fill="none" stroke="white" stroke-width="1.5" d="M0,-3.0v7 M-2.5,-0.5L0,-3.0L2.5,-0.5"/>
  </g>
  <g id="arrowRight" transform="rotate(90) translate(36 -43)">
    <use xlink:href="#rim"/>
    <path pointer-events="none" fill="none" stroke="white" stroke-width="1.5" d="M0,-3.0v7 M-2.5,-0.5L0,-3.0L2.5,-0.5"/>
  </g>
  <g id="arrowDown" transform="rotate(180) translate(-30 -48)">
    <use xlink:href="#rim"/>
    <path pointer-events="none" fill="none" stroke="white" stroke-width="1.5" d="M0,-3.0v7 M-2.5,-0.5L0,-3.0L2.5,-0.5"/>
  </g>
  <g id="arrowLeft" transform="rotate(270) translate(-36 17)">
    <use xlink:href="#rim"/>
    <path pointer-events="none" fill="none" stroke="white" stroke-width="1.5" d="M0,-3.0v7 M-2.5,-0.5L0,-3.0L2.5,-0.5"/>
  </g>
  <g id="resetDef">
    <use xlink:href="#rim2" fill="#404040"><set attributeName="fill" to="#808080" begin="reset.mouseover" end="reset.mouseout"/></use>
  </g>
</defs>
<script type="application/ecmascript">
var viewWidth = 909;
var viewHeight = 214;
var sectionId = 'dynsection-7';
</script>
<script type="application/ecmascript" xlink:href="../../svg.min.js"/>
<svg id="graph" class="graph">
<g id="viewport">
<title>libnest2d::_Item::boundingBox</title>
<!-- Node1 -->
<g id="Node000001" class="node">
<title>Node1</title>
<g id="a_Node000001"><a xlink:title=" ">
<polygon fill="#999999" stroke="#666666" points="148,-151.25 0,-151.25 0,-132 148,-132 148,-151.25"/>
<text text-anchor="middle" x="74" y="-137.75" font-family="Helvetica,sans-Serif" font-size="10.00">libnest2d::_Item::boundingBox</text>
</a>
</g>
</g>
<!-- Node2 -->
<g id="Node000002" class="node">
<title>Node2</title>
<g id="a_Node000002"><a xlink:href="../../dd/d66/namespacelibnest2d_1_1shapelike.html#a95b3e17f4aa55fdfe2b909e542135b21" target="_top" xlink:title=" ">
<polygon fill="white" stroke="#666666" points="296.75,-205.88 194.5,-205.88 194.5,-175.38 296.75,-175.38 296.75,-205.88"/>
<text text-anchor="start" x="202.5" y="-192.38" font-family="Helvetica,sans-Serif" font-size="10.00">libnest2d::shapelike</text>
<text text-anchor="middle" x="245.62" y="-181.12" font-family="Helvetica,sans-Serif" font-size="10.00">::boundingBox</text>
</a>
</g>
</g>
<!-- Node1&#45;&gt;Node2 -->
<g id="edge1_Node000001_Node000002" class="edge">
<title>Node1&#45;&gt;Node2</title>
<g id="a_edge1_Node000001_Node000002"><a xlink:title=" ">
<path fill="none" stroke="#63b8ff" d="M109.74,-151.66C131.02,-157.81 158.87,-165.85 183.73,-173.03"/>
<polygon fill="#63b8ff" stroke="#63b8ff" points="182.59,-176.64 193.17,-176.05 184.53,-169.91 182.59,-176.64"/>
</a>
</g>
</g>
<!-- Node3 -->
<g id="Node000003" class="node">
<title>Node3</title>
<g id="a_Node000003"><a xlink:href="../../d0/d79/classlibnest2d_1_1___item.html#a8a9dc13e078579ad66aa880bf7be4953" target="_top" xlink:title=" ">
<polygon fill="white" stroke="#666666" points="307.25,-156.88 184,-156.88 184,-126.38 307.25,-126.38 307.25,-156.88"/>
<text text-anchor="start" x="192" y="-143.38" font-family="Helvetica,sans-Serif" font-size="10.00">libnest2d::_Item::infalted</text>
<text text-anchor="middle" x="245.62" y="-132.12" font-family="Helvetica,sans-Serif" font-size="10.00">Shape</text>
</a>
</g>
</g>
<!-- Node1&#45;&gt;Node3 -->
<g id="edge2_Node000001_Node000003" class="edge">
<title>Node1&#45;&gt;Node3</title>
<g id="a_edge2_Node000001_Node000003"><a xlink:title=" ">
<path fill="none" stroke="#63b8ff" d="M148.41,-141.62C156.48,-141.62 164.68,-141.62 172.73,-141.62"/>
<polygon fill="#63b8ff" stroke="#63b8ff" points="172.57,-145.13 182.57,-141.62 172.57,-138.13 172.57,-145.13"/>
</a>
</g>
</g>
<!-- Node8 -->
<g id="Node000008" class="node">
<title>Node8</title>
<g id="a_Node000008"><a xlink:href="../../dd/d66/namespacelibnest2d_1_1shapelike.html#ae7fc24bfdb531881e8d0df299c5f2351" target="_top" xlink:title=" ">
<polygon fill="white" stroke="#666666" points="296.75,-107.88 194.5,-107.88 194.5,-77.38 296.75,-77.38 296.75,-107.88"/>
<text text-anchor="start" x="202.5" y="-94.38" font-family="Helvetica,sans-Serif" font-size="10.00">libnest2d::shapelike</text>
<text text-anchor="middle" x="245.62" y="-83.12" font-family="Helvetica,sans-Serif" font-size="10.00">::rotate</text>
</a>
</g>
</g>
<!-- Node1&#45;&gt;Node8 -->
<g id="edge7_Node000001_Node000008" class="edge">
<title>Node1&#45;&gt;Node8</title>
<g id="a_edge7_Node000001_Node000008"><a xlink:title=" ">
<path fill="none" stroke="#63b8ff" d="M109.74,-131.59C131.02,-125.44 158.87,-117.4 183.73,-110.22"/>
<polygon fill="#63b8ff" stroke="#63b8ff" points="184.53,-113.34 193.17,-107.2 182.59,-106.61 184.53,-113.34"/>
</a>
</g>
</g>
<!-- Node4 -->
<g id="Node000004" class="node">
<title>Node4</title>
<g id="a_Node000004"><a xlink:href="../../dd/d66/namespacelibnest2d_1_1shapelike.html#ab29201ea713e88d9d709ae4fa8f2576f" target="_top" xlink:title=" ">
<polygon fill="white" stroke="#666666" points="445.5,-156.88 343.25,-156.88 343.25,-126.38 445.5,-126.38 445.5,-156.88"/>
<text text-anchor="start" x="351.25" y="-143.38" font-family="Helvetica,sans-Serif" font-size="10.00">libnest2d::shapelike</text>
<text text-anchor="middle" x="394.38" y="-132.12" font-family="Helvetica,sans-Serif" font-size="10.00">::offset</text>
</a>
</g>
</g>
<!-- Node3&#45;&gt;Node4 -->
<g id="edge3_Node000003_Node000004" class="edge">
<title>Node3&#45;&gt;Node4</title>
<g id="a_edge3_Node000003_Node000004"><a xlink:title=" ">
<path fill="none" stroke="#63b8ff" d="M307.59,-141.62C315.71,-141.62 324.04,-141.62 332.16,-141.62"/>
<polygon fill="#63b8ff" stroke="#63b8ff" points="332.08,-145.13 342.08,-141.62 332.08,-138.13 332.08,-145.13"/>
</a>
</g>
</g>
<!-- Node5 -->
<g id="Node000005" class="node">
<title>Node5</title>
<g id="a_Node000005"><a xlink:href="../../de/db8/namespace_slic3r.html#a5e96c84b799b62906e4a46a94eb8916c" target="_top" xlink:title=" ">
<polygon fill="white" stroke="#666666" points="570.25,-151.25 483,-151.25 483,-132 570.25,-132 570.25,-151.25"/>
<text text-anchor="middle" x="526.62" y="-137.75" font-family="Helvetica,sans-Serif" font-size="10.00">Slic3r::offset_ex</text>
</a>
</g>
</g>
<!-- Node4&#45;&gt;Node5 -->
<g id="edge4_Node000004_Node000005" class="edge">
<title>Node4&#45;&gt;Node5</title>
<g id="a_edge4_Node000004_Node000005"><a xlink:title=" ">
<path fill="none" stroke="#63b8ff" d="M445.73,-141.62C454.29,-141.62 463.21,-141.62 471.85,-141.62"/>
<polygon fill="#63b8ff" stroke="#63b8ff" points="471.6,-145.13 481.6,-141.62 471.6,-138.13 471.6,-145.13"/>
</a>
</g>
</g>
<!-- Node6 -->
<g id="Node000006" class="node">
<title>Node6</title>
<g id="a_Node000006"><a xlink:href="../../de/db8/namespace_slic3r.html#a1f7e91998726ff8395ce66857a6fd49d" target="_top" xlink:title=" ">
<polygon fill="white" stroke="#666666" points="756.5,-151.25 607.75,-151.25 607.75,-132 756.5,-132 756.5,-151.25"/>
<text text-anchor="middle" x="682.12" y="-137.75" font-family="Helvetica,sans-Serif" font-size="10.00">Slic3r::PolyTreeToExPolygons</text>
</a>
</g>
</g>
<!-- Node5&#45;&gt;Node6 -->
<g id="edge5_Node000005_Node000006" class="edge">
<title>Node5&#45;&gt;Node6</title>
<g id="a_edge5_Node000005_Node000006"><a xlink:title=" ">
<path fill="none" stroke="#63b8ff" d="M570.38,-141.62C578.67,-141.62 587.62,-141.62 596.72,-141.62"/>
<polygon fill="#63b8ff" stroke="#63b8ff" points="596.43,-145.13 606.43,-141.62 596.43,-138.13 596.43,-145.13"/>
</a>
</g>
</g>
<!-- Node7 -->
<g id="Node000007" class="node">
<title>Node7</title>
<g id="a_Node000007"><a xlink:href="../../d2/df1/class_clipper_lib_1_1_poly_node.html#a19128db6fb2aca66555231edaffa7ade" target="_top" xlink:title=" ">
<polygon fill="white" stroke="#666666" points="900.75,-156.88 792.5,-156.88 792.5,-126.38 900.75,-126.38 900.75,-156.88"/>
<text text-anchor="start" x="800.5" y="-143.38" font-family="Helvetica,sans-Serif" font-size="10.00">ClipperLib::PolyNode</text>
<text text-anchor="middle" x="846.62" y="-132.12" font-family="Helvetica,sans-Serif" font-size="10.00">::ChildCount</text>
</a>
</g>
</g>
<!-- Node6&#45;&gt;Node7 -->
<g id="edge6_Node000006_Node000007" class="edge">
<title>Node6&#45;&gt;Node7</title>
<g id="a_edge6_Node000006_Node000007"><a xlink:title=" ">
<path fill="none" stroke="#63b8ff" d="M756.77,-141.62C764.97,-141.62 773.27,-141.62 781.34,-141.62"/>
<polygon fill="#63b8ff" stroke="#63b8ff" points="781.16,-145.13 791.16,-141.62 781.16,-138.13 781.16,-145.13"/>
</a>
</g>
</g>
<!-- Node9 -->
<g id="Node000009" class="node">
<title>Node9</title>
<g id="a_Node000009"><a xlink:href="../../db/dc4/class_slic3r_1_1_ex_polygon.html#a5a3cd58e41ad59a0d73e1dedb1163d94" target="_top" xlink:title=" ">
<polygon fill="white" stroke="#666666" points="444.38,-107.88 344.38,-107.88 344.38,-77.38 444.38,-77.38 444.38,-107.88"/>
<text text-anchor="start" x="352.38" y="-94.38" font-family="Helvetica,sans-Serif" font-size="10.00">Slic3r::ExPolygon::</text>
<text text-anchor="middle" x="394.38" y="-83.12" font-family="Helvetica,sans-Serif" font-size="10.00">rotate</text>
</a>
</g>
</g>
<!-- Node8&#45;&gt;Node9 -->
<g id="edge8_Node000008_Node000009" class="edge">
<title>Node8&#45;&gt;Node9</title>
<g id="a_edge8_Node000008_Node000009"><a xlink:title=" ">
<path fill="none" stroke="#63b8ff" d="M297.13,-92.62C308.81,-92.62 321.35,-92.62 333.39,-92.62"/>
<polygon fill="#63b8ff" stroke="#63b8ff" points="333.27,-96.13 343.27,-92.62 333.27,-89.13 333.27,-96.13"/>
</a>
</g>
</g>
<!-- Node10 -->
<g id="Node000010" class="node">
<title>Node10</title>
<g id="a_Node000010"><a xlink:href="../../de/db8/namespace_slic3r.html#a7927d0ca1b31b8f9284ea268b11d27d5" target="_top" xlink:title=" ">
<polygon fill="white" stroke="#666666" points="717.12,-105.25 647.12,-105.25 647.12,-86 717.12,-86 717.12,-105.25"/>
<text text-anchor="middle" x="682.12" y="-91.75" font-family="Helvetica,sans-Serif" font-size="10.00">Slic3r::angle</text>
</a>
</g>
</g>
<!-- Node9&#45;&gt;Node10 -->
<g id="edge9_Node000009_Node000010" class="edge">
<title>Node9&#45;&gt;Node10</title>
<g id="a_edge9_Node000009_Node000010"><a xlink:title=" ">
<path fill="none" stroke="#63b8ff" d="M444.82,-93.14C498.55,-93.71 583.65,-94.6 635.73,-95.15"/>
<polygon fill="#63b8ff" stroke="#63b8ff" points="635.6,-98.66 645.64,-95.26 635.67,-91.66 635.6,-98.66"/>
</a>
</g>
</g>
<!-- Node12 -->
<g id="Node000012" class="node">
<title>Node12</title>
<g id="a_Node000012"><a xlink:href="../../d7/dd1/class_slic3r_1_1_multi_point.html#aa77514da0497fa0febf246f34c660a9c" target="_top" xlink:title=" ">
<polygon fill="white" stroke="#666666" points="571.75,-53.88 481.5,-53.88 481.5,-23.38 571.75,-23.38 571.75,-53.88"/>
<text text-anchor="start" x="489.5" y="-40.38" font-family="Helvetica,sans-Serif" font-size="10.00">Slic3r::MultiPoint</text>
<text text-anchor="middle" x="526.62" y="-29.12" font-family="Helvetica,sans-Serif" font-size="10.00">::rotate</text>
</a>
</g>
</g>
<!-- Node9&#45;&gt;Node12 -->
<g id="edge11_Node000009_Node000012" class="edge">
<title>Node9&#45;&gt;Node12</title>
<g id="a_edge11_Node000009_Node000012"><a xlink:title=" ">
<path fill="none" stroke="#63b8ff" d="M433.05,-77.01C447.09,-71.19 463.21,-64.5 478.03,-58.36"/>
<polygon fill="#63b8ff" stroke="#63b8ff" points="479.14,-61.27 487.04,-54.21 476.46,-54.81 479.14,-61.27"/>
</a>
</g>
</g>
<!-- Node11 -->
<g id="Node000011" class="node">
<title>Node11</title>
<g id="a_Node000011"><a xlink:href="../../de/db8/namespace_slic3r.html#a2cd973ab8e7af30bd57721dfc2859b8f" target="_top" xlink:title=" ">
<polygon fill="white" stroke="#666666" points="884.62,-105.25 808.62,-105.25 808.62,-86 884.62,-86 884.62,-105.25"/>
<text text-anchor="middle" x="846.62" y="-91.75" font-family="Helvetica,sans-Serif" font-size="10.00">Slic3r::cross2</text>
</a>
</g>
</g>
<!-- Node10&#45;&gt;Node11 -->
<g id="edge10_Node000010_Node000011" class="edge">
<title>Node10&#45;&gt;Node11</title>
<g id="a_edge10_Node000010_Node000011"><a xlink:title=" ">
<path fill="none" stroke="#63b8ff" d="M717.59,-95.62C740.8,-95.62 771.74,-95.62 797.38,-95.62"/>
<polygon fill="#63b8ff" stroke="#63b8ff" points="797.38,-99.13 807.38,-95.62 797.38,-92.13 797.38,-99.13"/>
</a>
</g>
</g>
<!-- Node12&#45;&gt;Node10 -->
<g id="edge12_Node000012_Node000010" class="edge">
<title>Node12&#45;&gt;Node10</title>
<g id="a_edge12_Node000012_Node000010"><a xlink:title=" ">
<path fill="none" stroke="#63b8ff" d="M569.98,-54.35C593.11,-62.94 621.51,-73.49 643.8,-81.77"/>
<polygon fill="#63b8ff" stroke="#63b8ff" points="642.3,-85.31 652.89,-85.51 644.74,-78.75 642.3,-85.31"/>
</a>
</g>
</g>
<!-- Node12&#45;&gt;Node12 -->
<g id="edge14_Node000012_Node000012" class="edge">
<title>Node12&#45;&gt;Node12</title>
<g id="a_edge14_Node000012_Node000012"><a xlink:title=" ">
<path fill="none" stroke="#63b8ff" d="M503.19,-54.36C498.41,-63.43 506.22,-71.88 526.62,-71.88 538.1,-71.88 545.6,-69.2 549.11,-65.25"/>
<polygon fill="#63b8ff" stroke="#63b8ff" points="552.67,-65.63 550.06,-55.36 545.7,-65.02 552.67,-65.63"/>
</a>
</g>
</g>
<!-- Node13 -->
<g id="Node000013" class="node">
<title>Node13</title>
<g id="a_Node000013"><a xlink:href="../../d4/df0/_array_cwise_unary_ops_8h.html#a92b03396990b0e9eea0731aa406e31a4" target="_top" xlink:title=" ">
<polygon fill="white" stroke="#666666" points="698,-56.25 666.25,-56.25 666.25,-37 698,-37 698,-56.25"/>
<text text-anchor="middle" x="682.12" y="-42.75" font-family="Helvetica,sans-Serif" font-size="10.00">cos</text>
</a>
</g>
</g>
<!-- Node12&#45;&gt;Node13 -->
<g id="edge13_Node000012_Node000013" class="edge">
<title>Node12&#45;&gt;Node13</title>
<g id="a_edge13_Node000012_Node000013"><a xlink:title=" ">
<path fill="none" stroke="#63b8ff" d="M572.02,-40.94C599.02,-42.35 632.55,-44.09 655.26,-45.28"/>
<polygon fill="#63b8ff" stroke="#63b8ff" points="654.89,-48.81 665.05,-45.84 655.25,-41.82 654.89,-48.81"/>
</a>
</g>
</g>
<!-- Node14 -->
<g id="Node000014" class="node">
<title>Node14</title>
<g id="a_Node000014"><a xlink:href="../../d4/df0/_array_cwise_unary_ops_8h.html#a9cfb0ea58bd813510a9e2db18a5e49f0" target="_top" xlink:title=" ">
<polygon fill="white" stroke="#666666" points="696.52,-19.25 667.73,-19.25 667.73,0 696.52,0 696.52,-19.25"/>
<text text-anchor="middle" x="682.12" y="-5.75" font-family="Helvetica,sans-Serif" font-size="10.00">sin</text>
</a>
</g>
</g>
<!-- Node12&#45;&gt;Node14 -->
<g id="edge15_Node000012_Node000014" class="edge">
<title>Node12&#45;&gt;Node14</title>
<g id="a_edge15_Node000012_Node000014"><a xlink:title=" ">
<path fill="none" stroke="#63b8ff" d="M572.02,-30.24C599.62,-25.02 634.05,-18.52 656.76,-14.23"/>
<polygon fill="#63b8ff" stroke="#63b8ff" points="657.3,-17.5 666.48,-12.2 656,-10.62 657.3,-17.5"/>
</a>
</g>
</g>
</g>
</svg>

<g id="navigator" transform="translate(0 0)" fill="#404254">
  <rect fill="#f2f5e9" fill-opacity="0.5" stroke="#606060" stroke-width=".5" x="0" y="0" width="60" height="60"/>
  <use id="zoomplus" xlink:href="#zoomPlus" x="17" y="9" onmousedown="handleZoom(evt,'in')"/>
  <use id="zoomminus" xlink:href="#zoomMin" x="42" y="9" onmousedown="handleZoom(evt,'out')"/>
  <use id="reset" xlink:href="#resetDef" x="30" y="36" onmousedown="handleReset()"/>
   <use id="arrowup" xlink:href="#arrowUp" x="0" y="0" onmousedown="handlePan(0,-1)"/>
  <use id="arrowright" xlink:href="#arrowRight" x="0" y="0" onmousedown="handlePan(1,0)"/>
  <use id="arrowdown" xlink:href="#arrowDown" x="0" y="0" onmousedown="handlePan(0,1)"/>
  <use id="arrowleft" xlink:href="#arrowLeft" x="0" y="0" onmousedown="handlePan(-1,0)"/>
</g>
<svg viewBox="0 0 15 15" width="100%" height="30px" preserveAspectRatio="xMaxYMin meet">
 <g id="arrow_out" transform="scale(0.3 0.3)">
  <a xlink:href="classlibnest2d_1_1___item_a8fc8041c8ec4cf4d104652cdbaec5c1a_cgraph_org.svg" target="_base">
   <rect id="button" ry="5" rx="5" y="6" x="6" height="38" width="38"
        fill="#f2f5e9" fill-opacity="0.5" stroke="#606060" stroke-width="1.0"/>
   <path id="arrow"
     d="M 11.500037,31.436501 C 11.940474,20.09759 22.043105,11.32322 32.158766,21.979434 L 37.068811,17.246167 C 37.068811,17.246167 37.088388,32 37.088388,32 L 22.160133,31.978069 C 22.160133,31.978069 26.997745,27.140456 26.997745,27.140456 C 18.528582,18.264221 13.291696,25.230495 11.500037,31.436501 z"
     style="fill:#404040;"/>
  </a>
 </g>
</svg>

<style type='text/css'>
<![CDATA[
[data-mouse-over-selected='false'] { opacity: 0.7; }
[data-mouse-over-selected='true']  { opacity: 1.0; }
]]>
</style>
<script type="application/ecmascript"><![CDATA[
document.addEventListener('DOMContentLoaded', (event) => {
  highlightEdges();
  highlightAdjacentNodes();
});
]]></script>
</svg>
