<?xml version="1.0" encoding="UTF-8" standalone="no"?>
<!DOCTYPE svg PUBLIC "-//W3C//DTD SVG 1.1//EN"
 "http://www.w3.org/Graphics/SVG/1.1/DTD/svg11.dtd">
<!-- Generated by graphviz version 8.0.5 (20230430.1635)
 -->
<!-- Title: Eigen::ComplexEigenSolver::compute Pages: 1 -->
<svg width="471pt" height="103pt"
 viewBox="0.00 0.00 470.75 103.25" xmlns="http://www.w3.org/2000/svg" xmlns:xlink="http://www.w3.org/1999/xlink">

<svg id="main" version="1.1" xmlns="http://www.w3.org/2000/svg" xmlns:xlink="http://www.w3.org/1999/xlink" xml:space="preserve" onload="init(evt)">
<style type="text/css"><![CDATA[
.node, .edge {opacity: 0.7;}
.node.selected, .edge.selected {opacity: 1;}
.edge:hover path { stroke: red; }
.edge:hover polygon { stroke: red; fill: red; }
]]></style>
<script type="application/ecmascript" xlink:href="../../svg.min.js"/>
<svg id="graph" class="graph">
<g id="graph0" class="graph" transform="scale(1 1) rotate(0) translate(4 99.25)">
<title>Eigen::ComplexEigenSolver::compute</title>
<!-- Node1 -->
<g id="Node000001" class="node">
<title>Node1</title>
<g id="a_Node000001"><a xlink:title=" ">
<polygon fill="#999999" stroke="#666666" points="138.25,-62.88 0,-62.88 0,-32.38 138.25,-32.38 138.25,-62.88"/>
<text text-anchor="start" x="8" y="-49.38" font-family="Helvetica,sans-Serif" font-size="10.00">Eigen::ComplexEigenSolver</text>
<text text-anchor="middle" x="69.12" y="-38.12" font-family="Helvetica,sans-Serif" font-size="10.00">::compute</text>
</a>
</g>
</g>
<!-- Node2 -->
<g id="Node000002" class="node">
<title>Node2</title>
<g id="a_Node000002"><a xlink:href="../../d5/d18/struct_eigen_1_1_eigen_base.html#a7b0b45c7351847696c911ce8aa2abbdb" target="_top" xlink:title=" ">
<polygon fill="white" stroke="#666666" points="293.75,-95.25 175.75,-95.25 175.75,-76 293.75,-76 293.75,-95.25"/>
<text text-anchor="middle" x="234.75" y="-81.75" font-family="Helvetica,sans-Serif" font-size="10.00">Eigen::EigenBase::cols</text>
</a>
</g>
</g>
<!-- Node1&#45;&gt;Node2 -->
<g id="edge1_Node000001_Node000002" class="edge">
<title>Node1&#45;&gt;Node2</title>
<g id="a_edge1_Node000001_Node000002"><a xlink:title=" ">
<path fill="none" stroke="#63b8ff" d="M137.62,-63.3C151.65,-66.56 166.27,-69.95 179.74,-73.08"/>
<polygon fill="#63b8ff" stroke="#63b8ff" points="178.73,-76.67 189.26,-75.53 180.31,-69.85 178.73,-76.67"/>
</a>
</g>
</g>
<!-- Node3 -->
<g id="Node000003" class="node">
<title>Node3</title>
<g id="a_Node000003"><a xlink:href="../../d5/d18/struct_eigen_1_1_eigen_base.html#ab4cf3e6bb046a94a46b69b857bd3dbc9" target="_top" xlink:title=" ">
<polygon fill="white" stroke="#666666" points="462.75,-76.25 331.25,-76.25 331.25,-57 462.75,-57 462.75,-76.25"/>
<text text-anchor="middle" x="397" y="-62.75" font-family="Helvetica,sans-Serif" font-size="10.00">Eigen::EigenBase::derived</text>
</a>
</g>
</g>
<!-- Node1&#45;&gt;Node3 -->
<g id="edge3_Node000001_Node000003" class="edge">
<title>Node1&#45;&gt;Node3</title>
<g id="a_edge3_Node000001_Node000003"><a xlink:title=" ">
<path fill="none" stroke="#63b8ff" d="M138.44,-51.61C191.54,-54.7 265.17,-59 320.1,-62.2"/>
<polygon fill="#63b8ff" stroke="#63b8ff" points="319.64,-65.74 329.83,-62.83 320.05,-58.75 319.64,-65.74"/>
</a>
</g>
</g>
<!-- Node4 -->
<g id="Node000004" class="node">
<title>Node4</title>
<g id="a_Node000004"><a xlink:href="../../d5/d18/struct_eigen_1_1_eigen_base.html#a8141320ba8df384426c298b32b000d8e" target="_top" xlink:title=" ">
<polygon fill="white" stroke="#666666" points="295.25,-19.25 174.25,-19.25 174.25,0 295.25,0 295.25,-19.25"/>
<text text-anchor="middle" x="234.75" y="-5.75" font-family="Helvetica,sans-Serif" font-size="10.00">Eigen::EigenBase::rows</text>
</a>
</g>
</g>
<!-- Node1&#45;&gt;Node4 -->
<g id="edge4_Node000001_Node000004" class="edge">
<title>Node1&#45;&gt;Node4</title>
<g id="a_edge4_Node000001_Node000004"><a xlink:title=" ">
<path fill="none" stroke="#63b8ff" d="M137.62,-31.95C151.65,-28.69 166.27,-25.3 179.74,-22.17"/>
<polygon fill="#63b8ff" stroke="#63b8ff" points="180.31,-25.4 189.26,-19.72 178.73,-18.58 180.31,-25.4"/>
</a>
</g>
</g>
<!-- Node2&#45;&gt;Node3 -->
<g id="edge2_Node000002_Node000003" class="edge">
<title>Node2&#45;&gt;Node3</title>
<g id="a_edge2_Node000002_Node000003"><a xlink:title=" ">
<path fill="none" stroke="#63b8ff" d="M294.06,-78.71C302.58,-77.7 311.46,-76.65 320.28,-75.6"/>
<polygon fill="#63b8ff" stroke="#63b8ff" points="320.44,-78.99 329.96,-74.34 319.62,-72.04 320.44,-78.99"/>
</a>
</g>
</g>
</g>
</svg>
</svg>

<style type='text/css'>
<![CDATA[
[data-mouse-over-selected='false'] { opacity: 0.7; }
[data-mouse-over-selected='true']  { opacity: 1.0; }
]]>
</style>
<script type="application/ecmascript"><![CDATA[
document.addEventListener('DOMContentLoaded', (event) => {
  highlightEdges();
  highlightAdjacentNodes();
});
]]></script>
</svg>
