<?xml version="1.0" encoding="UTF-8" standalone="no"?>
<!DOCTYPE svg PUBLIC "-//W3C//DTD SVG 1.1//EN"
 "http://www.w3.org/Graphics/SVG/1.1/DTD/svg11.dtd">
<!-- Generated by graphviz version 8.0.5 (20230430.1635)
 -->
<!-- Title: Eigen::FullPivLU&lt; _MatrixType &gt; Pages: 1 -->
<!--zoomable 319 -->

<svg id="main" version="1.1" xmlns="http://www.w3.org/2000/svg" xmlns:xlink="http://www.w3.org/1999/xlink" xml:space="preserve" onload="init(evt)">
<style type="text/css"><![CDATA[
.node, .edge {opacity: 0.7;}
.node.selected, .edge.selected {opacity: 1;}
.edge:hover path { stroke: red; }
.edge:hover polygon { stroke: red; fill: red; }
]]></style>

<defs>
  <circle id="rim" cx="0" cy="0" r="7"/>
  <circle id="rim2" cx="0" cy="0" r="3.5"/>
  <g id="zoomPlus">
    <use xlink:href="#rim" fill="#404040"><set attributeName="fill" to="#808080" begin="zoomplus.mouseover" end="zoomplus.mouseout"/></use>
    <path d="M-4,0h8M0,-4v8" fill="none" stroke="white" stroke-width="1.5" pointer-events="none"/>
  </g>
  <g id="zoomMin">
    <use xlink:href="#rim" fill="#404040"><set attributeName="fill" to="#808080" begin="zoomminus.mouseover" end="zoomminus.mouseout"/></use>
    <path d="M-4,0h8" fill="none" stroke="white" stroke-width="1.5" pointer-events="none"/>
  </g>
  <g id="arrowUp" transform="translate(30 24)">
    <use xlink:href="#rim"/>
    <path pointer-events="none" fill="none" stroke="white" stroke-width="1.5" d="M0,-3.0v7 M-2.5,-0.5L0,-3.0L2.5,-0.5"/>
  </g>
  <g id="arrowRight" transform="rotate(90) translate(36 -43)">
    <use xlink:href="#rim"/>
    <path pointer-events="none" fill="none" stroke="white" stroke-width="1.5" d="M0,-3.0v7 M-2.5,-0.5L0,-3.0L2.5,-0.5"/>
  </g>
  <g id="arrowDown" transform="rotate(180) translate(-30 -48)">
    <use xlink:href="#rim"/>
    <path pointer-events="none" fill="none" stroke="white" stroke-width="1.5" d="M0,-3.0v7 M-2.5,-0.5L0,-3.0L2.5,-0.5"/>
  </g>
  <g id="arrowLeft" transform="rotate(270) translate(-36 17)">
    <use xlink:href="#rim"/>
    <path pointer-events="none" fill="none" stroke="white" stroke-width="1.5" d="M0,-3.0v7 M-2.5,-0.5L0,-3.0L2.5,-0.5"/>
  </g>
  <g id="resetDef">
    <use xlink:href="#rim2" fill="#404040"><set attributeName="fill" to="#808080" begin="reset.mouseover" end="reset.mouseout"/></use>
  </g>
</defs>
<script type="application/ecmascript">
var viewWidth = 1472;
var viewHeight = 319;
var sectionId = 'dynsection-1';
</script>
<script type="application/ecmascript" xlink:href="../../svg.min.js"/>
<svg id="graph" class="graph">
<g id="viewport">
<title>Eigen::FullPivLU&lt; _MatrixType &gt;</title>
<!-- Node1 -->
<g id="Node000001" class="node">
<title>Node1</title>
<g id="a_Node000001"><a xlink:title="LU decomposition of a matrix with complete pivoting, and related features.">
<polygon fill="#999999" stroke="#666666" points="1463.75,-163.12 1365.25,-163.12 1365.25,-132.62 1463.75,-132.62 1463.75,-163.12"/>
<text text-anchor="start" x="1373.25" y="-149.62" font-family="Helvetica,sans-Serif" font-size="10.00">Eigen::FullPivLU&lt; </text>
<text text-anchor="middle" x="1414.5" y="-138.38" font-family="Helvetica,sans-Serif" font-size="10.00">_MatrixType &gt;</text>
</a>
</g>
</g>
<!-- Node2 -->
<g id="Node000002" class="node">
<title>Node2</title>
<g id="a_Node000002"><a xlink:href="../../d6/d2e/class_eigen_1_1_solver_base.html" target="_top" xlink:title=" ">
<polygon fill="white" stroke="#666666" points="659.88,-300.12 517.88,-300.12 517.88,-269.62 659.88,-269.62 659.88,-300.12"/>
<text text-anchor="start" x="525.88" y="-286.62" font-family="Helvetica,sans-Serif" font-size="10.00">Eigen::SolverBase&lt;</text>
<text text-anchor="middle" x="588.88" y="-275.38" font-family="Helvetica,sans-Serif" font-size="10.00"> FullPivLU&lt; _MatrixType &gt; &gt;</text>
</a>
</g>
</g>
<!-- Node2&#45;&gt;Node1 -->
<g id="edge1_Node000001_Node000002" class="edge">
<title>Node2&#45;&gt;Node1</title>
<g id="a_edge1_Node000001_Node000002"><a xlink:title=" ">
<path fill="none" stroke="#63b8ff" d="M670.77,-285.52C792.77,-285.04 1030.57,-278.44 1228,-238.88 1282.81,-227.89 1297.92,-225.18 1347.25,-198.88 1365.44,-189.18 1383.83,-174.55 1396.61,-163.44"/>
<polygon fill="#63b8ff" stroke="#63b8ff" points="671.04,-282.02 661.05,-285.55 671.06,-289.02 671.04,-282.02"/>
</a>
</g>
</g>
<!-- Node3 -->
<g id="Node000003" class="node">
<title>Node3</title>
<g id="a_Node000003"><a xlink:href="../../d5/d18/struct_eigen_1_1_eigen_base.html" target="_top" xlink:title=" ">
<polygon fill="white" stroke="#666666" points="328.5,-310.5 182.75,-310.5 182.75,-291.25 328.5,-291.25 328.5,-310.5"/>
<text text-anchor="middle" x="255.62" y="-297" font-family="Helvetica,sans-Serif" font-size="10.00">Eigen::EigenBase&lt; Derived &gt;</text>
</a>
</g>
</g>
<!-- Node3&#45;&gt;Node2 -->
<g id="edge2_Node000002_Node000003" class="edge">
<title>Node3&#45;&gt;Node2</title>
<g id="a_edge2_Node000002_Node000003"><a xlink:title=" ">
<path fill="none" stroke="#63b8ff" d="M339.64,-296.87C394.43,-294.22 465.43,-290.79 517.45,-288.28"/>
<polygon fill="#63b8ff" stroke="#63b8ff" points="339.73,-293.41 329.91,-297.38 340.07,-300.4 339.73,-293.41"/>
</a>
</g>
</g>
<!-- Node4 -->
<g id="Node000004" class="node">
<title>Node4</title>
<g id="a_Node000004"><a xlink:href="../../d6/d2e/class_eigen_1_1_solver_base.html" target="_top" xlink:title="A base class for matrix decomposition and solvers.">
<polygon fill="white" stroke="#666666" points="307.12,-273.12 204.12,-273.12 204.12,-242.62 307.12,-242.62 307.12,-273.12"/>
<text text-anchor="start" x="212.12" y="-259.62" font-family="Helvetica,sans-Serif" font-size="10.00">Eigen::SolverBase&lt;</text>
<text text-anchor="middle" x="255.62" y="-248.38" font-family="Helvetica,sans-Serif" font-size="10.00"> Derived &gt;</text>
</a>
</g>
</g>
<!-- Node4&#45;&gt;Node2 -->
<g id="edge3_Node000002_Node000004" class="edge">
<title>Node4&#45;&gt;Node2</title>
<g id="a_edge3_Node000002_Node000004"><a xlink:title=" ">
<path fill="none" stroke="orange" stroke-dasharray="5,2" d="M318.36,-262.11C363.56,-265.3 426.37,-269.92 481.5,-274.62 493.15,-275.62 505.5,-276.75 517.51,-277.88"/>
<polygon fill="orange" stroke="orange" points="318.78,-258.56 308.56,-261.35 318.29,-265.54 318.78,-258.56"/>
</a>
</g>
<text text-anchor="middle" x="414" y="-275.62" font-family="Helvetica,sans-Serif" font-size="10.00" fill="grey"> &lt; FullPivLU&lt; _MatrixType &gt; &gt;</text>
</g>
<!-- Node5 -->
<g id="Node000005" class="node">
<title>Node5</title>
<g id="a_Node000005"><a xlink:href="../../d5/d18/struct_eigen_1_1_eigen_base.html" target="_top" xlink:title=" ">
<polygon fill="white" stroke="#666666" points="145.75,-242.5 0,-242.5 0,-223.25 145.75,-223.25 145.75,-242.5"/>
<text text-anchor="middle" x="72.88" y="-229" font-family="Helvetica,sans-Serif" font-size="10.00">Eigen::EigenBase&lt; Derived &gt;</text>
</a>
</g>
</g>
<!-- Node5&#45;&gt;Node4 -->
<g id="edge4_Node000004_Node000005" class="edge">
<title>Node5&#45;&gt;Node4</title>
<g id="a_edge4_Node000004_Node000005"><a xlink:title=" ">
<path fill="none" stroke="#63b8ff" d="M156.57,-244.31C172.62,-246.53 189,-248.8 203.65,-250.83"/>
<polygon fill="#63b8ff" stroke="#63b8ff" points="157.48,-240.77 147.09,-242.86 156.52,-247.7 157.48,-240.77"/>
</a>
</g>
</g>
<!-- Node9 -->
<g id="Node000009" class="node">
<title>Node9</title>
<g id="a_Node000009"><a xlink:href="../../de/dbb/class_eigen_1_1_permutation_base.html" target="_top" xlink:title="Base class for permutations.">
<polygon fill="white" stroke="#666666" points="316.5,-224.12 194.75,-224.12 194.75,-193.62 316.5,-193.62 316.5,-224.12"/>
<text text-anchor="start" x="202.75" y="-210.62" font-family="Helvetica,sans-Serif" font-size="10.00">Eigen::PermutationBase</text>
<text text-anchor="middle" x="255.62" y="-199.38" font-family="Helvetica,sans-Serif" font-size="10.00">&lt; Derived &gt;</text>
</a>
</g>
</g>
<!-- Node5&#45;&gt;Node9 -->
<g id="edge9_Node000009_Node000005" class="edge">
<title>Node5&#45;&gt;Node9</title>
<g id="a_edge9_Node000009_Node000005"><a xlink:title=" ">
<path fill="none" stroke="#63b8ff" d="M156.7,-221.88C169.42,-220.19 182.33,-218.47 194.43,-216.87"/>
<polygon fill="#63b8ff" stroke="#63b8ff" points="156.54,-218.5 147.09,-223.29 157.47,-225.44 156.54,-218.5"/>
</a>
</g>
</g>
<!-- Node6 -->
<g id="Node000006" class="node">
<title>Node6</title>
<g id="a_Node000006"><a xlink:href="../../de/d2d/class_eigen_1_1_permutation_matrix.html" target="_top" xlink:title=" ">
<polygon fill="white" stroke="#666666" points="1228,-229.75 1050,-229.75 1050,-188 1228,-188 1228,-229.75"/>
<text text-anchor="start" x="1058" y="-216.25" font-family="Helvetica,sans-Serif" font-size="10.00">Eigen::PermutationMatrix</text>
<text text-anchor="start" x="1058" y="-205" font-family="Helvetica,sans-Serif" font-size="10.00">&lt; RowsAtCompileTime, MaxRowsAt</text>
<text text-anchor="middle" x="1139" y="-193.75" font-family="Helvetica,sans-Serif" font-size="10.00">CompileTime &gt;</text>
</a>
</g>
</g>
<!-- Node6&#45;&gt;Node1 -->
<g id="edge5_Node000001_Node000006" class="edge">
<title>Node6&#45;&gt;Node1</title>
<g id="a_edge5_Node000001_Node000006"><a xlink:title=" ">
<path fill="none" stroke="#9a32cd" stroke-dasharray="5,2" d="M1238.77,-187.04C1273.11,-179.43 1311.89,-170.8 1347.25,-162.88 1353,-161.59 1359.04,-160.23 1365.02,-158.88"/>
<polygon fill="#9a32cd" stroke="#9a32cd" points="1238.27,-183.79 1229.26,-189.37 1239.78,-190.62 1238.27,-183.79"/>
</a>
</g>
<text text-anchor="middle" x="1296.62" y="-185.62" font-family="Helvetica,sans-Serif" font-size="10.00" fill="grey"> m_p</text>
</g>
<!-- Node7 -->
<g id="Node000007" class="node">
<title>Node7</title>
<g id="a_Node000007"><a xlink:href="../../de/dbb/class_eigen_1_1_permutation_base.html" target="_top" xlink:title=" ">
<polygon fill="white" stroke="#666666" points="678.25,-214.38 499.5,-214.38 499.5,-161.38 678.25,-161.38 678.25,-214.38"/>
<text text-anchor="start" x="507.5" y="-200.88" font-family="Helvetica,sans-Serif" font-size="10.00">Eigen::PermutationBase</text>
<text text-anchor="start" x="507.5" y="-189.62" font-family="Helvetica,sans-Serif" font-size="10.00">&lt; PermutationMatrix&lt; SizeAtCompile</text>
<text text-anchor="start" x="507.5" y="-178.38" font-family="Helvetica,sans-Serif" font-size="10.00">Time, MaxSizeAtCompileTime, </text>
<text text-anchor="middle" x="588.88" y="-167.12" font-family="Helvetica,sans-Serif" font-size="10.00">_StorageIndex &gt; &gt;</text>
</a>
</g>
</g>
<!-- Node7&#45;&gt;Node6 -->
<g id="edge6_Node000006_Node000007" class="edge">
<title>Node7&#45;&gt;Node6</title>
<g id="a_edge6_Node000006_Node000007"><a xlink:title=" ">
<path fill="none" stroke="#63b8ff" d="M689.21,-213.32C697.98,-215.06 706.75,-216.61 715.25,-217.88 854.59,-238.55 891.75,-241.99 1032,-228.88 1037.78,-228.33 1043.72,-227.63 1049.68,-226.81"/>
<polygon fill="#63b8ff" stroke="#63b8ff" points="690.04,-209.71 679.54,-211.12 688.63,-216.57 690.04,-209.71"/>
</a>
</g>
</g>
<!-- Node10 -->
<g id="Node000010" class="node">
<title>Node10</title>
<g id="a_Node000010"><a xlink:href="../../de/d2d/class_eigen_1_1_permutation_matrix.html" target="_top" xlink:title="Permutation matrix.">
<polygon fill="white" stroke="#666666" points="881.25,-208.75 715.25,-208.75 715.25,-167 881.25,-167 881.25,-208.75"/>
<text text-anchor="start" x="723.25" y="-195.25" font-family="Helvetica,sans-Serif" font-size="10.00">Eigen::PermutationMatrix</text>
<text text-anchor="start" x="723.25" y="-184" font-family="Helvetica,sans-Serif" font-size="10.00">&lt; SizeAtCompileTime, MaxSizeAt</text>
<text text-anchor="middle" x="798.25" y="-172.75" font-family="Helvetica,sans-Serif" font-size="10.00">CompileTime, _StorageIndex &gt;</text>
</a>
</g>
</g>
<!-- Node7&#45;&gt;Node10 -->
<g id="edge11_Node000010_Node000007" class="edge">
<title>Node7&#45;&gt;Node10</title>
<g id="a_edge11_Node000010_Node000007"><a xlink:title=" ">
<path fill="none" stroke="#63b8ff" d="M689.45,-187.88C697.95,-187.88 706.48,-187.88 714.82,-187.88"/>
<polygon fill="#63b8ff" stroke="#63b8ff" points="689.72,-184.38 679.72,-187.88 689.72,-191.38 689.72,-184.38"/>
</a>
</g>
</g>
<!-- Node11 -->
<g id="Node000011" class="node">
<title>Node11</title>
<g id="a_Node000011"><a xlink:href="../../de/d2d/class_eigen_1_1_permutation_matrix.html" target="_top" xlink:title=" ">
<polygon fill="white" stroke="#666666" points="1222.75,-168.75 1055.25,-168.75 1055.25,-127 1222.75,-127 1222.75,-168.75"/>
<text text-anchor="start" x="1063.25" y="-155.25" font-family="Helvetica,sans-Serif" font-size="10.00">Eigen::PermutationMatrix</text>
<text text-anchor="start" x="1063.25" y="-144" font-family="Helvetica,sans-Serif" font-size="10.00">&lt; ColsAtCompileTime, MaxColsAt</text>
<text text-anchor="middle" x="1139" y="-132.75" font-family="Helvetica,sans-Serif" font-size="10.00">CompileTime &gt;</text>
</a>
</g>
</g>
<!-- Node7&#45;&gt;Node11 -->
<g id="edge13_Node000011_Node000007" class="edge">
<title>Node7&#45;&gt;Node11</title>
<g id="a_edge13_Node000011_Node000007"><a xlink:title=" ">
<path fill="none" stroke="#63b8ff" d="M689.19,-162.28C697.96,-160.58 706.74,-159.07 715.25,-157.88 832.3,-141.48 969.33,-141.75 1054.92,-144.21"/>
<polygon fill="#63b8ff" stroke="#63b8ff" points="688.62,-159.03 679.51,-164.45 690.01,-165.89 688.62,-159.03"/>
</a>
</g>
</g>
<!-- Node8 -->
<g id="Node000008" class="node">
<title>Node8</title>
<g id="a_Node000008"><a xlink:href="../../d5/d18/struct_eigen_1_1_eigen_base.html" target="_top" xlink:title=" ">
<polygon fill="white" stroke="#666666" points="328.5,-175.5 182.75,-175.5 182.75,-156.25 328.5,-156.25 328.5,-175.5"/>
<text text-anchor="middle" x="255.62" y="-162" font-family="Helvetica,sans-Serif" font-size="10.00">Eigen::EigenBase&lt; Derived &gt;</text>
</a>
</g>
</g>
<!-- Node8&#45;&gt;Node7 -->
<g id="edge7_Node000007_Node000008" class="edge">
<title>Node8&#45;&gt;Node7</title>
<g id="a_edge7_Node000007_Node000008"><a xlink:title=" ">
<path fill="none" stroke="#63b8ff" d="M339.71,-171.39C388.32,-174.62 449.68,-178.7 499.23,-181.99"/>
<polygon fill="#63b8ff" stroke="#63b8ff" points="340.12,-167.85 329.91,-170.68 339.66,-174.83 340.12,-167.85"/>
</a>
</g>
</g>
<!-- Node9&#45;&gt;Node7 -->
<g id="edge8_Node000007_Node000009" class="edge">
<title>Node9&#45;&gt;Node7</title>
<g id="a_edge8_Node000007_Node000009"><a xlink:title=" ">
<path fill="none" stroke="orange" stroke-dasharray="5,2" d="M327.75,-204.37C377.93,-201.18 445.51,-196.9 499.21,-193.5"/>
<polygon fill="orange" stroke="orange" points="327.75,-200.92 318,-205.05 328.2,-207.91 327.75,-200.92"/>
</a>
</g>
<text text-anchor="start" x="358.12" y="-237.38" font-family="Helvetica,sans-Serif" font-size="10.00" fill="grey"> &lt; PermutationMatrix</text>
<text text-anchor="start" x="358.12" y="-226.12" font-family="Helvetica,sans-Serif" font-size="10.00" fill="grey">&lt; SizeAtCompileTime,</text>
<text text-anchor="start" x="358.12" y="-214.88" font-family="Helvetica,sans-Serif" font-size="10.00" fill="grey"> MaxSizeAtCompileTime,</text>
<text text-anchor="middle" x="414" y="-203.62" font-family="Helvetica,sans-Serif" font-size="10.00" fill="grey"> _StorageIndex &gt; &gt;</text>
</g>
<!-- Node10&#45;&gt;Node6 -->
<g id="edge10_Node000006_Node000010" class="edge">
<title>Node10&#45;&gt;Node6</title>
<g id="a_edge10_Node000006_Node000010"><a xlink:title=" ">
<path fill="none" stroke="orange" stroke-dasharray="5,2" d="M892.61,-193.66C941.6,-196.7 1001.3,-200.4 1049.55,-203.39"/>
<polygon fill="orange" stroke="orange" points="892.88,-190.11 882.68,-192.99 892.45,-197.1 892.88,-190.11"/>
</a>
</g>
<text text-anchor="start" x="903.75" y="-214.88" font-family="Helvetica,sans-Serif" font-size="10.00" fill="grey"> &lt; RowsAtCompileTime,</text>
<text text-anchor="middle" x="965.62" y="-203.62" font-family="Helvetica,sans-Serif" font-size="10.00" fill="grey"> MaxRowsAtCompileTime &gt;</text>
</g>
<!-- Node10&#45;&gt;Node11 -->
<g id="edge14_Node000011_Node000010" class="edge">
<title>Node10&#45;&gt;Node11</title>
<g id="a_edge14_Node000011_Node000010"><a xlink:title=" ">
<path fill="none" stroke="orange" stroke-dasharray="5,2" d="M892.12,-168.44C894.52,-168.07 896.9,-167.71 899.25,-167.38 950.71,-160.03 1008.84,-155.2 1054.86,-152.19"/>
<polygon fill="orange" stroke="orange" points="891.81,-165.11 882.51,-170.19 892.95,-172.02 891.81,-165.11"/>
</a>
</g>
<text text-anchor="start" x="906.38" y="-179.88" font-family="Helvetica,sans-Serif" font-size="10.00" fill="grey"> &lt; ColsAtCompileTime,</text>
<text text-anchor="middle" x="965.62" y="-168.62" font-family="Helvetica,sans-Serif" font-size="10.00" fill="grey"> MaxColsAtCompileTime &gt;</text>
</g>
<!-- Node11&#45;&gt;Node1 -->
<g id="edge12_Node000001_Node000011" class="edge">
<title>Node11&#45;&gt;Node1</title>
<g id="a_edge12_Node000001_Node000011"><a xlink:title=" ">
<path fill="none" stroke="#9a32cd" stroke-dasharray="5,2" d="M1233.93,-147.88C1277.99,-147.88 1328.64,-147.88 1364.9,-147.88"/>
<polygon fill="#9a32cd" stroke="#9a32cd" points="1234.17,-144.38 1224.17,-147.88 1234.17,-151.38 1234.17,-144.38"/>
</a>
</g>
<text text-anchor="middle" x="1296.62" y="-149.62" font-family="Helvetica,sans-Serif" font-size="10.00" fill="grey"> m_q</text>
</g>
<!-- Node12 -->
<g id="Node000012" class="node">
<title>Node12</title>
<g id="a_Node000012"><a xlink:href="../../d7/dc9/namespace_eigen_1_1internal.html#d7/dc9/namespace_eigen_1_1internal" target="_top" xlink:title=" ">
<polygon fill="white" stroke="#666666" points="1198,-106.75 1080,-106.75 1080,-65 1198,-65 1198,-106.75"/>
<text text-anchor="start" x="1088" y="-93.25" font-family="Helvetica,sans-Serif" font-size="10.00">Eigen::internal::plain</text>
<text text-anchor="start" x="1088" y="-82" font-family="Helvetica,sans-Serif" font-size="10.00">_col_type&lt; MatrixType,</text>
<text text-anchor="middle" x="1139" y="-70.75" font-family="Helvetica,sans-Serif" font-size="10.00"> StorageIndex &gt;</text>
</a>
</g>
</g>
<!-- Node12&#45;&gt;Node1 -->
<g id="edge15_Node000001_Node000012" class="edge">
<title>Node12&#45;&gt;Node1</title>
<g id="a_edge15_Node000001_Node000012"><a xlink:title=" ">
<path fill="none" stroke="#9a32cd" stroke-dasharray="5,2" d="M1208.61,-101.27C1248.99,-110.35 1301.03,-122.09 1347.25,-132.62 1353,-133.94 1359.04,-135.32 1365.02,-136.69"/>
<polygon fill="#9a32cd" stroke="#9a32cd" points="1209.61,-97.68 1199.08,-98.91 1208.07,-104.51 1209.61,-97.68"/>
</a>
</g>
<text text-anchor="middle" x="1296.62" y="-133.62" font-family="Helvetica,sans-Serif" font-size="10.00" fill="grey"> m_rowsTranspositions</text>
</g>
<!-- Node13 -->
<g id="Node000013" class="node">
<title>Node13</title>
<g id="a_Node000013"><a xlink:href="../../d7/dc9/namespace_eigen_1_1internal.html#d1/d68/struct_eigen_1_1internal_1_1plain__col__type" target="_top" xlink:title=" ">
<polygon fill="white" stroke="#666666" points="868.12,-101.75 728.38,-101.75 728.38,-60 868.12,-60 868.12,-101.75"/>
<text text-anchor="start" x="736.38" y="-88.25" font-family="Helvetica,sans-Serif" font-size="10.00">Eigen::internal::plain</text>
<text text-anchor="start" x="736.38" y="-77" font-family="Helvetica,sans-Serif" font-size="10.00">_col_type&lt; ExpressionType,</text>
<text text-anchor="middle" x="798.25" y="-65.75" font-family="Helvetica,sans-Serif" font-size="10.00"> Scalar &gt;</text>
</a>
</g>
</g>
<!-- Node13&#45;&gt;Node12 -->
<g id="edge16_Node000012_Node000013" class="edge">
<title>Node13&#45;&gt;Node12</title>
<g id="a_edge16_Node000012_Node000013"><a xlink:title=" ">
<path fill="none" stroke="orange" stroke-dasharray="5,2" d="M879.45,-82.06C940.98,-82.97 1024.46,-84.2 1079.72,-85.01"/>
<polygon fill="orange" stroke="orange" points="879.67,-78.55 869.62,-81.9 879.57,-85.55 879.67,-78.55"/>
</a>
</g>
<text text-anchor="middle" x="965.62" y="-85.62" font-family="Helvetica,sans-Serif" font-size="10.00" fill="grey"> &lt; MatrixType, StorageIndex &gt;</text>
</g>
<!-- Node14 -->
<g id="Node000014" class="node">
<title>Node14</title>
<g id="a_Node000014"><a xlink:href="../../d7/dc9/namespace_eigen_1_1internal.html#d7/dc9/namespace_eigen_1_1internal" target="_top" xlink:title=" ">
<polygon fill="white" stroke="#666666" points="1199.5,-42.75 1078.5,-42.75 1078.5,-1 1199.5,-1 1199.5,-42.75"/>
<text text-anchor="start" x="1086.5" y="-29.25" font-family="Helvetica,sans-Serif" font-size="10.00">Eigen::internal::plain</text>
<text text-anchor="start" x="1086.5" y="-18" font-family="Helvetica,sans-Serif" font-size="10.00">_row_type&lt; MatrixType,</text>
<text text-anchor="middle" x="1139" y="-6.75" font-family="Helvetica,sans-Serif" font-size="10.00"> StorageIndex &gt;</text>
</a>
</g>
</g>
<!-- Node14&#45;&gt;Node1 -->
<g id="edge17_Node000001_Node000014" class="edge">
<title>Node14&#45;&gt;Node1</title>
<g id="a_edge17_Node000001_Node000014"><a xlink:title=" ">
<path fill="none" stroke="#9a32cd" stroke-dasharray="5,2" d="M1210.43,-40.11C1251.76,-52.37 1304.17,-70.68 1347.25,-94.62 1365.82,-104.95 1384.46,-120.51 1397.22,-132.14"/>
<polygon fill="#9a32cd" stroke="#9a32cd" points="1211.48,-36.48 1200.9,-37.04 1209.52,-43.2 1211.48,-36.48"/>
</a>
</g>
<text text-anchor="middle" x="1296.62" y="-95.62" font-family="Helvetica,sans-Serif" font-size="10.00" fill="grey"> m_colsTranspositions</text>
</g>
<!-- Node15 -->
<g id="Node000015" class="node">
<title>Node15</title>
<g id="a_Node000015"><a xlink:href="../../d7/dc9/namespace_eigen_1_1internal.html#d9/df8/struct_eigen_1_1internal_1_1plain__row__type" target="_top" xlink:title=" ">
<polygon fill="white" stroke="#666666" points="869.62,-41.75 726.88,-41.75 726.88,0 869.62,0 869.62,-41.75"/>
<text text-anchor="start" x="734.88" y="-28.25" font-family="Helvetica,sans-Serif" font-size="10.00">Eigen::internal::plain</text>
<text text-anchor="start" x="734.88" y="-17" font-family="Helvetica,sans-Serif" font-size="10.00">_row_type&lt; ExpressionType,</text>
<text text-anchor="middle" x="798.25" y="-5.75" font-family="Helvetica,sans-Serif" font-size="10.00"> Scalar &gt;</text>
</a>
</g>
</g>
<!-- Node15&#45;&gt;Node14 -->
<g id="edge18_Node000014_Node000015" class="edge">
<title>Node15&#45;&gt;Node14</title>
<g id="a_edge18_Node000014_Node000015"><a xlink:title=" ">
<path fill="none" stroke="orange" stroke-dasharray="5,2" d="M880.58,-21.12C941.44,-21.29 1023.32,-21.54 1078.24,-21.7"/>
<polygon fill="orange" stroke="orange" points="880.86,-17.61 870.85,-21.08 880.84,-24.61 880.86,-17.61"/>
</a>
</g>
<text text-anchor="middle" x="965.62" y="-23.62" font-family="Helvetica,sans-Serif" font-size="10.00" fill="grey"> &lt; MatrixType, StorageIndex &gt;</text>
</g>
</g>
</svg>

<g id="navigator" transform="translate(0 0)" fill="#404254">
  <rect fill="#f2f5e9" fill-opacity="0.5" stroke="#606060" stroke-width=".5" x="0" y="0" width="60" height="60"/>
  <use id="zoomplus" xlink:href="#zoomPlus" x="17" y="9" onmousedown="handleZoom(evt,'in')"/>
  <use id="zoomminus" xlink:href="#zoomMin" x="42" y="9" onmousedown="handleZoom(evt,'out')"/>
  <use id="reset" xlink:href="#resetDef" x="30" y="36" onmousedown="handleReset()"/>
   <use id="arrowup" xlink:href="#arrowUp" x="0" y="0" onmousedown="handlePan(0,-1)"/>
  <use id="arrowright" xlink:href="#arrowRight" x="0" y="0" onmousedown="handlePan(1,0)"/>
  <use id="arrowdown" xlink:href="#arrowDown" x="0" y="0" onmousedown="handlePan(0,1)"/>
  <use id="arrowleft" xlink:href="#arrowLeft" x="0" y="0" onmousedown="handlePan(-1,0)"/>
</g>
<svg viewBox="0 0 15 15" width="100%" height="30px" preserveAspectRatio="xMaxYMin meet">
 <g id="arrow_out" transform="scale(0.3 0.3)">
  <a xlink:href="class_eigen_1_1_full_piv_l_u__coll__graph_org.svg" target="_base">
   <rect id="button" ry="5" rx="5" y="6" x="6" height="38" width="38"
        fill="#f2f5e9" fill-opacity="0.5" stroke="#606060" stroke-width="1.0"/>
   <path id="arrow"
     d="M 11.500037,31.436501 C 11.940474,20.09759 22.043105,11.32322 32.158766,21.979434 L 37.068811,17.246167 C 37.068811,17.246167 37.088388,32 37.088388,32 L 22.160133,31.978069 C 22.160133,31.978069 26.997745,27.140456 26.997745,27.140456 C 18.528582,18.264221 13.291696,25.230495 11.500037,31.436501 z"
     style="fill:#404040;"/>
  </a>
 </g>
</svg>

<style type='text/css'>
<![CDATA[
[data-mouse-over-selected='false'] { opacity: 0.7; }
[data-mouse-over-selected='true']  { opacity: 1.0; }
]]>
</style>
<script type="application/ecmascript"><![CDATA[
document.addEventListener('DOMContentLoaded', (event) => {
  highlightEdges();
  highlightAdjacentNodes();
});
]]></script>
</svg>
