<?xml version="1.0" encoding="UTF-8" standalone="no"?>
<!DOCTYPE svg PUBLIC "-//W3C//DTD SVG 1.1//EN"
 "http://www.w3.org/Graphics/SVG/1.1/DTD/svg11.dtd">
<!-- Generated by graphviz version 8.0.5 (20230430.1635)
 -->
<!-- Title: Slic3r::GUI::GLGizmoFdmSupports::update_from_model_object Pages: 1 -->
<svg width="539pt" height="98pt"
 viewBox="0.00 0.00 539.00 98.12" xmlns="http://www.w3.org/2000/svg" xmlns:xlink="http://www.w3.org/1999/xlink">
<g id="graph0" class="graph" transform="scale(1 1) rotate(0) translate(4 94.12)">
<title>Slic3r::GUI::GLGizmoFdmSupports::update_from_model_object</title>
<!-- Node1 -->
<g id="Node000001" class="node">
<title>Node1</title>
<g id="a_Node000001"><a xlink:title=" ">
<polygon fill="#999999" stroke="#666666" points="170.5,-57.5 0,-57.5 0,-27 170.5,-27 170.5,-57.5"/>
<text text-anchor="start" x="8" y="-44" font-family="Helvetica,sans-Serif" font-size="10.00">Slic3r::GUI::GLGizmoFdmSupports</text>
<text text-anchor="middle" x="85.25" y="-32.75" font-family="Helvetica,sans-Serif" font-size="10.00">::update_from_model_object</text>
</a>
</g>
</g>
<!-- Node2 -->
<g id="Node000002" class="node">
<title>Node2</title>
<g id="a_Node000002"><a xlink:href="../../d6/df8/class_slic3r_1_1_g_u_i_1_1_common_gizmos_data_objects_1_1_selection_info.html#aa69880ef0882356aabbed81272cf8559" target="_top" xlink:title=" ">
<polygon fill="white" stroke="#666666" points="350.75,-90.12 206.5,-90.12 206.5,-48.38 350.75,-48.38 350.75,-90.12"/>
<text text-anchor="start" x="214.5" y="-76.62" font-family="Helvetica,sans-Serif" font-size="10.00">Slic3r::GUI::CommonGizmos</text>
<text text-anchor="start" x="214.5" y="-65.38" font-family="Helvetica,sans-Serif" font-size="10.00">DataObjects::SelectionInfo</text>
<text text-anchor="middle" x="278.62" y="-54.12" font-family="Helvetica,sans-Serif" font-size="10.00">::model_object</text>
</a>
</g>
</g>
<!-- Node1&#45;&gt;Node2 -->
<g id="edge1_Node000001_Node000002" class="edge">
<title>Node1&#45;&gt;Node2</title>
<g id="a_edge1_Node000001_Node000002"><a xlink:title=" ">
<path fill="none" stroke="#63b8ff" d="M170.75,-54.17C178.96,-55.33 187.29,-56.51 195.48,-57.66"/>
<polygon fill="#63b8ff" stroke="#63b8ff" points="194.76,-61.23 205.15,-59.17 195.74,-54.3 194.76,-61.23"/>
</a>
</g>
</g>
<!-- Node3 -->
<g id="Node000003" class="node">
<title>Node3</title>
<g id="a_Node000003"><a xlink:href="../../d5/d4e/class_slic3r_1_1_g_u_i_1_1_common_gizmos_data_pool.html#a426216e4d0ab24cbf377b4bbfcf99ad4" target="_top" xlink:title=" ">
<polygon fill="white" stroke="#666666" points="350.75,-30.5 206.5,-30.5 206.5,0 350.75,0 350.75,-30.5"/>
<text text-anchor="start" x="214.5" y="-17" font-family="Helvetica,sans-Serif" font-size="10.00">Slic3r::GUI::CommonGizmos</text>
<text text-anchor="middle" x="278.62" y="-5.75" font-family="Helvetica,sans-Serif" font-size="10.00">DataPool::selection_info</text>
</a>
</g>
</g>
<!-- Node1&#45;&gt;Node3 -->
<g id="edge2_Node000001_Node000003" class="edge">
<title>Node1&#45;&gt;Node3</title>
<g id="a_edge2_Node000001_Node000003"><a xlink:title=" ">
<path fill="none" stroke="#63b8ff" d="M170.75,-30.33C178.96,-29.17 187.29,-27.99 195.48,-26.84"/>
<polygon fill="#63b8ff" stroke="#63b8ff" points="195.74,-30.2 205.15,-25.33 194.76,-23.27 195.74,-30.2"/>
</a>
</g>
</g>
<!-- Node4 -->
<g id="Node000004" class="node">
<title>Node4</title>
<g id="a_Node000004"><a xlink:href="../../dc/de9/class_slic3r_1_1_g_u_i_1_1_common_gizmos_data_base.html#a857bb436ea2985183ee7d258d015b90b" target="_top" xlink:title=" ">
<polygon fill="white" stroke="#666666" points="531,-30.5 386.75,-30.5 386.75,0 531,0 531,-30.5"/>
<text text-anchor="start" x="394.75" y="-17" font-family="Helvetica,sans-Serif" font-size="10.00">Slic3r::GUI::CommonGizmos</text>
<text text-anchor="middle" x="458.88" y="-5.75" font-family="Helvetica,sans-Serif" font-size="10.00">DataBase::is_valid</text>
</a>
</g>
</g>
<!-- Node3&#45;&gt;Node4 -->
<g id="edge3_Node000003_Node000004" class="edge">
<title>Node3&#45;&gt;Node4</title>
<g id="a_edge3_Node000003_Node000004"><a xlink:title=" ">
<path fill="none" stroke="#63b8ff" d="M351.1,-15.25C359.09,-15.25 367.28,-15.25 375.39,-15.25"/>
<polygon fill="#63b8ff" stroke="#63b8ff" points="375.38,-18.75 385.38,-15.25 375.38,-11.75 375.38,-18.75"/>
</a>
</g>
</g>
</g>
</svg>
