<?xml version="1.0" encoding="UTF-8" standalone="no"?>
<!DOCTYPE svg PUBLIC "-//W3C//DTD SVG 1.1//EN"
 "http://www.w3.org/Graphics/SVG/1.1/DTD/svg11.dtd">
<!-- Generated by graphviz version 8.0.5 (20230430.1635)
 -->
<!-- Title: Slic3r::_3MF_Exporter::_add_custom_gcode_per_print_z_file_to_archive Pages: 1 -->
<!--zoomable 604 -->

<svg id="main" version="1.1" xmlns="http://www.w3.org/2000/svg" xmlns:xlink="http://www.w3.org/1999/xlink" xml:space="preserve" onload="init(evt)">
<style type="text/css"><![CDATA[
.node, .edge {opacity: 0.7;}
.node.selected, .edge.selected {opacity: 1;}
.edge:hover path { stroke: red; }
.edge:hover polygon { stroke: red; fill: red; }
]]></style>

<defs>
  <circle id="rim" cx="0" cy="0" r="7"/>
  <circle id="rim2" cx="0" cy="0" r="3.5"/>
  <g id="zoomPlus">
    <use xlink:href="#rim" fill="#404040"><set attributeName="fill" to="#808080" begin="zoomplus.mouseover" end="zoomplus.mouseout"/></use>
    <path d="M-4,0h8M0,-4v8" fill="none" stroke="white" stroke-width="1.5" pointer-events="none"/>
  </g>
  <g id="zoomMin">
    <use xlink:href="#rim" fill="#404040"><set attributeName="fill" to="#808080" begin="zoomminus.mouseover" end="zoomminus.mouseout"/></use>
    <path d="M-4,0h8" fill="none" stroke="white" stroke-width="1.5" pointer-events="none"/>
  </g>
  <g id="arrowUp" transform="translate(30 24)">
    <use xlink:href="#rim"/>
    <path pointer-events="none" fill="none" stroke="white" stroke-width="1.5" d="M0,-3.0v7 M-2.5,-0.5L0,-3.0L2.5,-0.5"/>
  </g>
  <g id="arrowRight" transform="rotate(90) translate(36 -43)">
    <use xlink:href="#rim"/>
    <path pointer-events="none" fill="none" stroke="white" stroke-width="1.5" d="M0,-3.0v7 M-2.5,-0.5L0,-3.0L2.5,-0.5"/>
  </g>
  <g id="arrowDown" transform="rotate(180) translate(-30 -48)">
    <use xlink:href="#rim"/>
    <path pointer-events="none" fill="none" stroke="white" stroke-width="1.5" d="M0,-3.0v7 M-2.5,-0.5L0,-3.0L2.5,-0.5"/>
  </g>
  <g id="arrowLeft" transform="rotate(270) translate(-36 17)">
    <use xlink:href="#rim"/>
    <path pointer-events="none" fill="none" stroke="white" stroke-width="1.5" d="M0,-3.0v7 M-2.5,-0.5L0,-3.0L2.5,-0.5"/>
  </g>
  <g id="resetDef">
    <use xlink:href="#rim2" fill="#404040"><set attributeName="fill" to="#808080" begin="reset.mouseover" end="reset.mouseout"/></use>
  </g>
</defs>
<script type="application/ecmascript">
var viewWidth = 1116;
var viewHeight = 604;
var sectionId = 'dynsection-3';
</script>
<script type="application/ecmascript" xlink:href="../../svg.min.js"/>
<svg id="graph" class="graph">
<g id="viewport">
<title>Slic3r::_3MF_Exporter::_add_custom_gcode_per_print_z_file_to_archive</title>
<!-- Node1 -->
<g id="Node000001" class="node">
<title>Node1</title>
<g id="a_Node000001"><a xlink:title=" ">
<polygon fill="#999999" stroke="#666666" points="130.75,-315.5 0,-315.5 0,-273.75 130.75,-273.75 130.75,-315.5"/>
<text text-anchor="start" x="8" y="-302" font-family="Helvetica,sans-Serif" font-size="10.00">Slic3r::_3MF_Exporter</text>
<text text-anchor="start" x="8" y="-290.75" font-family="Helvetica,sans-Serif" font-size="10.00">::_add_custom_gcode_per</text>
<text text-anchor="middle" x="65.38" y="-279.5" font-family="Helvetica,sans-Serif" font-size="10.00">_print_z_file_to_archive</text>
</a>
</g>
</g>
<!-- Node2 -->
<g id="Node000002" class="node">
<title>Node2</title>
<g id="a_Node000002"><a xlink:href="../../d6/df6/miniz_8c.html#ab5aac408b80e6f51a14434330fc76d6d" target="_top" xlink:title=" ">
<polygon fill="white" stroke="#666666" points="291.5,-326.25 166.75,-326.25 166.75,-307 291.5,-307 291.5,-326.25"/>
<text text-anchor="middle" x="229.12" y="-312.75" font-family="Helvetica,sans-Serif" font-size="10.00">mz_zip_writer_add_mem</text>
</a>
</g>
</g>
<!-- Node1&#45;&gt;Node2 -->
<g id="edge1_Node000001_Node000002" class="edge">
<title>Node1&#45;&gt;Node2</title>
<g id="a_edge1_Node000001_Node000002"><a xlink:title=" ">
<path fill="none" stroke="#63b8ff" d="M131.23,-303.45C139.3,-304.54 147.59,-305.67 155.76,-306.78"/>
<polygon fill="#63b8ff" stroke="#63b8ff" points="155.02,-310.35 165.4,-308.23 155.97,-303.41 155.02,-310.35"/>
</a>
</g>
</g>
<!-- Node41 -->
<g id="Node000041" class="node">
<title>Node41</title>
<g id="a_Node000041"><a xlink:href="../../d9/d06/class_slic3r_1_1_config_base.html#ad54992777d88db04711c3db92568cf5c" target="_top" xlink:title=" ">
<polygon fill="white" stroke="#666666" points="278,-288.88 180.25,-288.88 180.25,-258.38 278,-258.38 278,-288.88"/>
<text text-anchor="start" x="188.25" y="-275.38" font-family="Helvetica,sans-Serif" font-size="10.00">Slic3r::ConfigBase</text>
<text text-anchor="middle" x="229.12" y="-264.12" font-family="Helvetica,sans-Serif" font-size="10.00">::opt_string</text>
</a>
</g>
</g>
<!-- Node1&#45;&gt;Node41 -->
<g id="edge28_Node000001_Node000041" class="edge">
<title>Node1&#45;&gt;Node41</title>
<g id="a_edge28_Node000001_Node000041"><a xlink:title=" ">
<path fill="none" stroke="#63b8ff" d="M131.23,-286.2C143.88,-284.56 157.06,-282.85 169.49,-281.24"/>
<polygon fill="#63b8ff" stroke="#63b8ff" points="169.72,-284.61 179.19,-279.85 168.82,-277.67 169.72,-284.61"/>
</a>
</g>
</g>
<!-- Node3 -->
<g id="Node000003" class="node">
<title>Node3</title>
<g id="a_Node000003"><a xlink:href="../../d6/df6/miniz_8c.html#a48ece9a3d251aa69af280e975b6cc080" target="_top" xlink:title=" ">
<polygon fill="white" stroke="#666666" points="468,-326.25 327.5,-326.25 327.5,-307 468,-307 468,-326.25"/>
<text text-anchor="middle" x="397.75" y="-312.75" font-family="Helvetica,sans-Serif" font-size="10.00">mz_zip_writer_add_mem_ex</text>
</a>
</g>
</g>
<!-- Node2&#45;&gt;Node3 -->
<g id="edge2_Node000002_Node000003" class="edge">
<title>Node2&#45;&gt;Node3</title>
<g id="a_edge2_Node000002_Node000003"><a xlink:title=" ">
<path fill="none" stroke="#63b8ff" d="M291.7,-316.62C299.69,-316.62 307.97,-316.62 316.21,-316.62"/>
<polygon fill="#63b8ff" stroke="#63b8ff" points="316,-320.13 326,-316.62 316,-313.13 316,-320.13"/>
</a>
</g>
</g>
<!-- Node4 -->
<g id="Node000004" class="node">
<title>Node4</title>
<g id="a_Node000004"><a xlink:href="../../d6/df6/miniz_8c.html#aeeaca42531d675d5c72f038e1f9e13cd" target="_top" xlink:title=" ">
<polygon fill="white" stroke="#666666" points="628.75,-331.88 504,-331.88 504,-301.38 628.75,-301.38 628.75,-331.88"/>
<text text-anchor="start" x="512" y="-318.38" font-family="Helvetica,sans-Serif" font-size="10.00">mz_zip_writer_add_mem</text>
<text text-anchor="middle" x="566.38" y="-307.12" font-family="Helvetica,sans-Serif" font-size="10.00">_ex_v2</text>
</a>
</g>
</g>
<!-- Node3&#45;&gt;Node4 -->
<g id="edge3_Node000003_Node000004" class="edge">
<title>Node3&#45;&gt;Node4</title>
<g id="a_edge3_Node000003_Node000004"><a xlink:title=" ">
<path fill="none" stroke="#63b8ff" d="M468.45,-316.62C476.48,-316.62 484.69,-316.62 492.75,-316.62"/>
<polygon fill="#63b8ff" stroke="#63b8ff" points="492.64,-320.13 502.64,-316.62 492.64,-313.13 492.64,-320.13"/>
</a>
</g>
</g>
<!-- Node5 -->
<g id="Node000005" class="node">
<title>Node5</title>
<g id="a_Node000005"><a xlink:href="../../d6/df6/miniz_8c.html#a8b7cb38252f297265f6b850ab4ae0f01" target="_top" xlink:title=" ">
<polygon fill="white" stroke="#666666" points="763.25,-596.25 704.5,-596.25 704.5,-577 763.25,-577 763.25,-596.25"/>
<text text-anchor="middle" x="733.88" y="-582.75" font-family="Helvetica,sans-Serif" font-size="10.00">mz_crc32</text>
</a>
</g>
</g>
<!-- Node4&#45;&gt;Node5 -->
<g id="edge4_Node000004_Node000005" class="edge">
<title>Node4&#45;&gt;Node5</title>
<g id="a_edge4_Node000004_Node000005"><a xlink:title=" ">
<path fill="none" stroke="#63b8ff" d="M568.6,-332.06C572.94,-376.05 591.54,-503.08 664.75,-568.62 672.73,-575.77 683.23,-580.13 693.58,-582.78"/>
<polygon fill="#63b8ff" stroke="#63b8ff" points="692.7,-586.38 703.2,-584.97 694.11,-579.52 692.7,-586.38"/>
</a>
</g>
</g>
<!-- Node6 -->
<g id="Node000006" class="node">
<title>Node6</title>
<g id="a_Node000006"><a xlink:href="../../d6/df6/miniz_8c.html#a0b9993d18742ba59643f17a4f5eff39e" target="_top" xlink:title=" ">
<polygon fill="white" stroke="#666666" points="801.88,-559.25 665.88,-559.25 665.88,-540 801.88,-540 801.88,-559.25"/>
<text text-anchor="middle" x="733.88" y="-545.75" font-family="Helvetica,sans-Serif" font-size="10.00">mz_zip_array_ensure_room</text>
</a>
</g>
</g>
<!-- Node4&#45;&gt;Node6 -->
<g id="edge5_Node000004_Node000006" class="edge">
<title>Node4&#45;&gt;Node6</title>
<g id="a_edge5_Node000004_Node000006"><a xlink:title=" ">
<path fill="none" stroke="#63b8ff" d="M570.31,-332.2C578.35,-370.62 604.27,-470.76 664.75,-525.62 668.77,-529.27 673.37,-532.37 678.25,-535"/>
<polygon fill="#63b8ff" stroke="#63b8ff" points="676.35,-538.44 686.89,-539.51 679.32,-532.1 676.35,-538.44"/>
</a>
</g>
</g>
<!-- Node9 -->
<g id="Node000009" class="node">
<title>Node9</title>
<g id="a_Node000009"><a xlink:href="../../d6/df6/miniz_8c.html#a990e748a280a6903cbc02307320848c5" target="_top" xlink:title=" ">
<polygon fill="white" stroke="#666666" points="948,-505.25 857,-505.25 857,-486 948,-486 948,-505.25"/>
<text text-anchor="middle" x="902.5" y="-491.75" font-family="Helvetica,sans-Serif" font-size="10.00">mz_zip_set_error</text>
</a>
</g>
</g>
<!-- Node4&#45;&gt;Node9 -->
<g id="edge7_Node000004_Node000009" class="edge">
<title>Node4&#45;&gt;Node9</title>
<g id="a_edge7_Node000004_Node000009"><a xlink:title=" ">
<path fill="none" stroke="#63b8ff" d="M570.53,-332.25C578.71,-368.21 604.36,-456.5 664.75,-492.62 722.76,-527.32 803.92,-518.68 854.57,-508.06"/>
<polygon fill="#63b8ff" stroke="#63b8ff" points="855.19,-511.29 864.2,-505.71 853.68,-504.46 855.19,-511.29"/>
</a>
</g>
</g>
<!-- Node10 -->
<g id="Node000010" class="node">
<title>Node10</title>
<g id="a_Node000010"><a xlink:href="../../d6/df6/miniz_8c.html#a81014d6382ef61c51ea369d3ba09d420" target="_top" xlink:title=" ">
<polygon fill="white" stroke="#666666" points="803,-348.25 664.75,-348.25 664.75,-329 803,-329 803,-348.25"/>
<text text-anchor="middle" x="733.88" y="-334.75" font-family="Helvetica,sans-Serif" font-size="10.00">mz_zip_time_t_to_dos_time</text>
</a>
</g>
</g>
<!-- Node4&#45;&gt;Node10 -->
<g id="edge8_Node000004_Node000010" class="edge">
<title>Node4&#45;&gt;Node10</title>
<g id="a_edge8_Node000004_Node000010"><a xlink:title=" ">
<path fill="none" stroke="#63b8ff" d="M629,-324.82C637.05,-325.89 645.39,-327 653.68,-328.1"/>
<polygon fill="#63b8ff" stroke="#63b8ff" points="653.15,-331.69 663.52,-329.54 654.07,-324.75 653.15,-331.69"/>
</a>
</g>
</g>
<!-- Node11 -->
<g id="Node000011" class="node">
<title>Node11</title>
<g id="a_Node000011"><a xlink:href="../../d6/df6/miniz_8c.html#a97588a80c7490308f27a91cb40a355a8" target="_top" xlink:title=" ">
<polygon fill="white" stroke="#666666" points="792.12,-310.88 675.62,-310.88 675.62,-280.38 792.12,-280.38 792.12,-310.88"/>
<text text-anchor="start" x="683.62" y="-297.38" font-family="Helvetica,sans-Serif" font-size="10.00">mz_zip_writer_add_put</text>
<text text-anchor="middle" x="733.88" y="-286.12" font-family="Helvetica,sans-Serif" font-size="10.00">_buf_callback</text>
</a>
</g>
</g>
<!-- Node4&#45;&gt;Node11 -->
<g id="edge9_Node000004_Node000011" class="edge">
<title>Node4&#45;&gt;Node11</title>
<g id="a_edge9_Node000004_Node000011"><a xlink:title=" ">
<path fill="none" stroke="#63b8ff" d="M629,-308.81C640.61,-307.33 652.82,-305.78 664.61,-304.29"/>
<polygon fill="#63b8ff" stroke="#63b8ff" points="664.83,-307.66 674.31,-302.93 663.95,-300.72 664.83,-307.66"/>
</a>
</g>
</g>
<!-- Node12 -->
<g id="Node000012" class="node">
<title>Node12</title>
<g id="a_Node000012"><a xlink:href="../../d6/df6/miniz_8c.html#a0a0f9c1d13431f247f29c0585fad94a6" target="_top" xlink:title=" ">
<polygon fill="white" stroke="#666666" points="789.5,-434.88 678.25,-434.88 678.25,-404.38 789.5,-404.38 789.5,-434.88"/>
<text text-anchor="start" x="686.25" y="-421.38" font-family="Helvetica,sans-Serif" font-size="10.00">mz_zip_writer_add_to</text>
<text text-anchor="middle" x="733.88" y="-410.12" font-family="Helvetica,sans-Serif" font-size="10.00">_central_dir</text>
</a>
</g>
</g>
<!-- Node4&#45;&gt;Node12 -->
<g id="edge10_Node000004_Node000012" class="edge">
<title>Node4&#45;&gt;Node12</title>
<g id="a_edge10_Node000004_Node000012"><a xlink:title=" ">
<path fill="none" stroke="#63b8ff" d="M585.09,-332.24C603.91,-348.31 635,-373.35 664.75,-390.62 670.09,-393.73 675.83,-396.69 681.62,-399.45"/>
<polygon fill="#63b8ff" stroke="#63b8ff" points="679.82,-402.93 690.37,-403.89 682.72,-396.56 679.82,-402.93"/>
</a>
</g>
</g>
<!-- Node17 -->
<g id="Node000017" class="node">
<title>Node17</title>
<g id="a_Node000017"><a xlink:href="../../d6/df6/miniz_8c.html#a922d2fef6d4d160a9053cebf4c486a0b" target="_top" xlink:title=" ">
<polygon fill="white" stroke="#666666" points="797,-262.5 670.75,-262.5 670.75,-220.75 797,-220.75 797,-262.5"/>
<text text-anchor="start" x="678.75" y="-249" font-family="Helvetica,sans-Serif" font-size="10.00">mz_zip_writer_compute</text>
<text text-anchor="start" x="678.75" y="-237.75" font-family="Helvetica,sans-Serif" font-size="10.00">_padding_needed_for_file</text>
<text text-anchor="middle" x="733.88" y="-226.5" font-family="Helvetica,sans-Serif" font-size="10.00">_alignment</text>
</a>
</g>
</g>
<!-- Node4&#45;&gt;Node17 -->
<g id="edge17_Node000004_Node000017" class="edge">
<title>Node4&#45;&gt;Node17</title>
<g id="a_edge17_Node000004_Node000017"><a xlink:title=" ">
<path fill="none" stroke="#63b8ff" d="M600.66,-301.06C619.44,-292.33 643.36,-281.28 664.75,-271.62 667.87,-270.22 671.08,-268.78 674.32,-267.33"/>
<polygon fill="#63b8ff" stroke="#63b8ff" points="675.37,-270.25 683.08,-262.99 672.52,-263.85 675.37,-270.25"/>
</a>
</g>
</g>
<!-- Node18 -->
<g id="Node000018" class="node">
<title>Node18</title>
<g id="a_Node000018"><a xlink:href="../../d6/df6/miniz_8c.html#ae1b9b894b1fe6286919b091c89337633" target="_top" xlink:title=" ">
<polygon fill="white" stroke="#666666" points="957,-342.88 848,-342.88 848,-312.38 957,-312.38 957,-342.88"/>
<text text-anchor="start" x="856" y="-329.38" font-family="Helvetica,sans-Serif" font-size="10.00">mz_zip_writer_create</text>
<text text-anchor="middle" x="902.5" y="-318.12" font-family="Helvetica,sans-Serif" font-size="10.00">_local_dir_header</text>
</a>
</g>
</g>
<!-- Node4&#45;&gt;Node18 -->
<g id="edge18_Node000004_Node000018" class="edge">
<title>Node4&#45;&gt;Node18</title>
<g id="a_edge18_Node000004_Node000018"><a xlink:title=" ">
<path fill="none" stroke="#63b8ff" d="M596.23,-332.37C615.11,-341.75 640.66,-352.76 664.75,-357.62 724.98,-369.79 742.23,-366.67 803,-357.62 818.52,-355.31 834.97,-351.06 849.89,-346.47"/>
<polygon fill="#63b8ff" stroke="#63b8ff" points="850.49,-349.64 858.95,-343.26 848.36,-342.97 850.49,-349.64"/>
</a>
</g>
</g>
<!-- Node19 -->
<g id="Node000019" class="node">
<title>Node19</title>
<g id="a_Node000019"><a xlink:href="../../d6/df6/miniz_8c.html#a8e6757d07832c14a6310ca0524c3f024" target="_top" xlink:title=" ">
<polygon fill="white" stroke="#666666" points="788.38,-202.88 679.38,-202.88 679.38,-172.38 788.38,-172.38 788.38,-202.88"/>
<text text-anchor="start" x="687.38" y="-189.38" font-family="Helvetica,sans-Serif" font-size="10.00">mz_zip_writer_create</text>
<text text-anchor="middle" x="733.88" y="-178.12" font-family="Helvetica,sans-Serif" font-size="10.00">_zip64_extra_data</text>
</a>
</g>
</g>
<!-- Node4&#45;&gt;Node19 -->
<g id="edge20_Node000004_Node000019" class="edge">
<title>Node4&#45;&gt;Node19</title>
<g id="a_edge20_Node000004_Node000019"><a xlink:title=" ">
<path fill="none" stroke="#63b8ff" d="M577.86,-301.23C594.03,-278.58 627.13,-236.32 664.75,-211.62 666.52,-210.46 668.35,-209.35 670.23,-208.29"/>
<polygon fill="#63b8ff" stroke="#63b8ff" points="671.61,-211 678.94,-203.35 668.44,-204.76 671.61,-211"/>
</a>
</g>
</g>
<!-- Node20 -->
<g id="Node000020" class="node">
<title>Node20</title>
<g id="a_Node000020"><a xlink:href="../../d6/df6/miniz_8c.html#a97d5bb6b72d210e1a566e43b10080220" target="_top" xlink:title=" ">
<polygon fill="white" stroke="#666666" points="791.75,-153.88 676,-153.88 676,-123.38 791.75,-123.38 791.75,-153.88"/>
<text text-anchor="start" x="684" y="-140.38" font-family="Helvetica,sans-Serif" font-size="10.00">mz_zip_writer_validate</text>
<text text-anchor="middle" x="733.88" y="-129.12" font-family="Helvetica,sans-Serif" font-size="10.00">_archive_name</text>
</a>
</g>
</g>
<!-- Node4&#45;&gt;Node20 -->
<g id="edge21_Node000004_Node000020" class="edge">
<title>Node4&#45;&gt;Node20</title>
<g id="a_edge21_Node000004_Node000020"><a xlink:title=" ">
<path fill="none" stroke="#63b8ff" d="M573.18,-301.26C585.46,-270.75 616.93,-202.13 664.75,-163.62 666.41,-162.29 668.14,-161.03 669.93,-159.82"/>
<polygon fill="#63b8ff" stroke="#63b8ff" points="671.46,-162.4 678.32,-154.33 667.93,-156.36 671.46,-162.4"/>
</a>
</g>
</g>
<!-- Node21 -->
<g id="Node000021" class="node">
<title>Node21</title>
<g id="a_Node000021"><a xlink:href="../../d6/df6/miniz_8c.html#ac2423627c59f318541d6a1218eda198f" target="_top" xlink:title=" ">
<polygon fill="white" stroke="#666666" points="785.38,-483.88 682.38,-483.88 682.38,-453.38 785.38,-453.38 785.38,-483.88"/>
<text text-anchor="start" x="690.38" y="-470.38" font-family="Helvetica,sans-Serif" font-size="10.00">mz_zip_writer_write</text>
<text text-anchor="middle" x="733.88" y="-459.12" font-family="Helvetica,sans-Serif" font-size="10.00">_zeros</text>
</a>
</g>
</g>
<!-- Node4&#45;&gt;Node21 -->
<g id="edge22_Node000004_Node000021" class="edge">
<title>Node4&#45;&gt;Node21</title>
<g id="a_edge22_Node000004_Node000021"><a xlink:title=" ">
<path fill="none" stroke="#63b8ff" d="M575.43,-332.2C589.88,-358.69 622.67,-412.68 664.75,-443.62 667.22,-445.44 669.84,-447.14 672.56,-448.73"/>
<polygon fill="#63b8ff" stroke="#63b8ff" points="670.61,-452.18 681.09,-453.7 673.84,-445.97 670.61,-452.18"/>
</a>
</g>
</g>
<!-- Node22 -->
<g id="Node000022" class="node">
<title>Node22</title>
<g id="a_Node000022"><a xlink:href="../../d6/df6/miniz_8c.html#a5f2608070112b0e81a3017e9c39c73b7" target="_top" xlink:title=" ">
<polygon fill="white" stroke="#666666" points="790.25,-105.25 677.5,-105.25 677.5,-86 790.25,-86 790.25,-105.25"/>
<text text-anchor="middle" x="733.88" y="-91.75" font-family="Helvetica,sans-Serif" font-size="10.00">tdefl_compress_buffer</text>
</a>
</g>
</g>
<!-- Node4&#45;&gt;Node22 -->
<g id="edge24_Node000004_Node000022" class="edge">
<title>Node4&#45;&gt;Node22</title>
<g id="a_edge24_Node000004_Node000022"><a xlink:title=" ">
<path fill="none" stroke="#63b8ff" d="M570.32,-301.04C578.3,-263.12 603.99,-165.47 664.75,-114.62 666.37,-113.27 668.09,-112 669.87,-110.83"/>
<polygon fill="#63b8ff" stroke="#63b8ff" points="671.2,-113.55 678.3,-105.69 667.85,-107.4 671.2,-113.55"/>
</a>
</g>
</g>
<!-- Node39 -->
<g id="Node000039" class="node">
<title>Node39</title>
<g id="a_Node000039"><a xlink:href="../../d6/df6/miniz_8c.html#acf2306ec6b7f92753264f68bc554750b" target="_top" xlink:title=" ">
<polygon fill="white" stroke="#666666" points="795.12,-67.88 672.62,-67.88 672.62,-37.38 795.12,-37.38 795.12,-67.88"/>
<text text-anchor="start" x="680.62" y="-54.38" font-family="Helvetica,sans-Serif" font-size="10.00">tdefl_create_comp_flags</text>
<text text-anchor="middle" x="733.88" y="-43.12" font-family="Helvetica,sans-Serif" font-size="10.00">_from_zip_params</text>
</a>
</g>
</g>
<!-- Node4&#45;&gt;Node39 -->
<g id="edge26_Node000004_Node000039" class="edge">
<title>Node4&#45;&gt;Node39</title>
<g id="a_edge26_Node000004_Node000039"><a xlink:title=" ">
<path fill="none" stroke="#63b8ff" d="M569.27,-300.98C575.2,-258.71 597.25,-141.04 664.75,-76.62 665.48,-75.92 666.24,-75.24 667.02,-74.58"/>
<polygon fill="#63b8ff" stroke="#63b8ff" points="668.84,-76.87 674.98,-68.23 664.79,-71.16 668.84,-76.87"/>
</a>
</g>
</g>
<!-- Node40 -->
<g id="Node000040" class="node">
<title>Node40</title>
<g id="a_Node000040"><a xlink:href="../../d6/df6/miniz_8c.html#a3c2c67a6200147020ba4bfbf77962792" target="_top" xlink:title=" ">
<polygon fill="white" stroke="#666666" points="760.25,-19.25 707.5,-19.25 707.5,0 760.25,0 760.25,-19.25"/>
<text text-anchor="middle" x="733.88" y="-5.75" font-family="Helvetica,sans-Serif" font-size="10.00">tdefl_init</text>
</a>
</g>
</g>
<!-- Node4&#45;&gt;Node40 -->
<g id="edge27_Node000004_Node000040" class="edge">
<title>Node4&#45;&gt;Node40</title>
<g id="a_edge27_Node000004_Node000040"><a xlink:title=" ">
<path fill="none" stroke="#63b8ff" d="M567.8,-301.19C569.98,-253.28 583.33,-105.76 664.75,-28.62 673.33,-20.5 685.09,-15.8 696.42,-13.09"/>
<polygon fill="#63b8ff" stroke="#63b8ff" points="696.87,-16.38 706.04,-11.07 695.56,-9.5 696.87,-16.38"/>
</a>
</g>
</g>
<!-- Node7 -->
<g id="Node000007" class="node">
<title>Node7</title>
<g id="a_Node000007"><a xlink:href="../../d6/df6/miniz_8c.html#aa6dddea105b3aa50fc245c1faf43843e" target="_top" xlink:title=" ">
<polygon fill="#fff0f0" stroke="red" points="958.5,-559.25 846.5,-559.25 846.5,-540 958.5,-540 958.5,-559.25"/>
<text text-anchor="middle" x="902.5" y="-545.75" font-family="Helvetica,sans-Serif" font-size="10.00">mz_zip_array_reserve</text>
</a>
</g>
</g>
<!-- Node6&#45;&gt;Node7 -->
<g id="edge6_Node000006_Node000007" class="edge">
<title>Node6&#45;&gt;Node7</title>
<g id="a_edge6_Node000006_Node000007"><a xlink:title=" ">
<path fill="none" stroke="#63b8ff" d="M802.17,-549.62C813.14,-549.62 824.5,-549.62 835.44,-549.62"/>
<polygon fill="#63b8ff" stroke="#63b8ff" points="835.22,-553.13 845.22,-549.62 835.22,-546.13 835.22,-553.13"/>
</a>
</g>
</g>
<!-- Node12&#45;&gt;Node9 -->
<g id="edge14_Node000012_Node000009" class="edge">
<title>Node12&#45;&gt;Node9</title>
<g id="a_edge14_Node000012_Node000009"><a xlink:title=" ">
<path fill="none" stroke="#63b8ff" d="M782.93,-435.24C789.81,-438.06 796.69,-441.2 803,-444.62 820.57,-454.17 821.5,-461.95 839,-471.62 845.71,-475.34 853.12,-478.73 860.41,-481.72"/>
<polygon fill="#63b8ff" stroke="#63b8ff" points="858.63,-485.17 869.22,-485.55 861.17,-478.65 858.63,-485.17"/>
</a>
</g>
</g>
<!-- Node13 -->
<g id="Node000013" class="node">
<title>Node13</title>
<g id="a_Node000013"><a xlink:href="../../d6/df6/miniz_8c.html#a8531c0429033508c4a622d4e6427bbe4" target="_top" xlink:title=" ">
<polygon fill="white" stroke="#666666" points="966,-429.25 839,-429.25 839,-410 966,-410 966,-429.25"/>
<text text-anchor="middle" x="902.5" y="-415.75" font-family="Helvetica,sans-Serif" font-size="10.00">mz_zip_array_push_back</text>
</a>
</g>
</g>
<!-- Node12&#45;&gt;Node13 -->
<g id="edge11_Node000012_Node000013" class="edge">
<title>Node12&#45;&gt;Node13</title>
<g id="a_edge11_Node000012_Node000013"><a xlink:title=" ">
<path fill="none" stroke="#63b8ff" d="M789.9,-419.62C802.12,-419.62 815.26,-419.62 828.08,-419.62"/>
<polygon fill="#63b8ff" stroke="#63b8ff" points="827.75,-423.13 837.75,-419.62 827.75,-416.13 827.75,-423.13"/>
</a>
</g>
</g>
<!-- Node14 -->
<g id="Node000014" class="node">
<title>Node14</title>
<g id="a_Node000014"><a xlink:href="../../d6/df6/miniz_8c.html#aef74dba7366dcc1de36eca8682480ddb" target="_top" xlink:title=" ">
<polygon fill="#fff0f0" stroke="red" points="1108,-448.25 1002,-448.25 1002,-429 1108,-429 1108,-448.25"/>
<text text-anchor="middle" x="1055" y="-434.75" font-family="Helvetica,sans-Serif" font-size="10.00">mz_zip_array_resize</text>
</a>
</g>
</g>
<!-- Node12&#45;&gt;Node14 -->
<g id="edge13_Node000012_Node000014" class="edge">
<title>Node12&#45;&gt;Node14</title>
<g id="a_edge13_Node000012_Node000014"><a xlink:title=" ">
<path fill="none" stroke="#63b8ff" d="M789.74,-431.55C805.56,-434.47 822.9,-437.17 839,-438.62 889.95,-443.24 947.98,-442.91 990.9,-441.61"/>
<polygon fill="#63b8ff" stroke="#63b8ff" points="990.87,-445.08 1000.75,-441.25 990.64,-438.08 990.87,-445.08"/>
</a>
</g>
</g>
<!-- Node15 -->
<g id="Node000015" class="node">
<title>Node15</title>
<g id="a_Node000015"><a xlink:href="../../d6/df6/miniz_8c.html#a7b85d16940dcbcb59615be2442e54f66" target="_top" xlink:title=" ">
<polygon fill="white" stroke="#666666" points="957,-391.88 848,-391.88 848,-361.38 957,-361.38 957,-391.88"/>
<text text-anchor="start" x="856" y="-378.38" font-family="Helvetica,sans-Serif" font-size="10.00">mz_zip_writer_create</text>
<text text-anchor="middle" x="902.5" y="-367.12" font-family="Helvetica,sans-Serif" font-size="10.00">_central_dir_header</text>
</a>
</g>
</g>
<!-- Node12&#45;&gt;Node15 -->
<g id="edge15_Node000012_Node000015" class="edge">
<title>Node12&#45;&gt;Node15</title>
<g id="a_edge15_Node000012_Node000015"><a xlink:title=" ">
<path fill="none" stroke="#63b8ff" d="M789.9,-405.43C804.99,-401.53 821.49,-397.27 837.07,-393.25"/>
<polygon fill="#63b8ff" stroke="#63b8ff" points="837.86,-396.4 846.67,-390.52 836.11,-389.63 837.86,-396.4"/>
</a>
</g>
</g>
<!-- Node13&#45;&gt;Node14 -->
<g id="edge12_Node000013_Node000014" class="edge">
<title>Node13&#45;&gt;Node14</title>
<g id="a_edge12_Node000013_Node000014"><a xlink:title=" ">
<path fill="none" stroke="#63b8ff" d="M966.45,-427.57C974.54,-428.59 982.82,-429.64 990.91,-430.66"/>
<polygon fill="#63b8ff" stroke="#63b8ff" points="990.42,-434.25 1000.78,-432.03 991.3,-427.31 990.42,-434.25"/>
</a>
</g>
</g>
<!-- Node16 -->
<g id="Node000016" class="node">
<title>Node16</title>
<g id="a_Node000016"><a xlink:href="../../d6/d95/glu-libtess_8h.html#a4292190e3f1f6b373a760c7d9316ad3c" target="_top" xlink:title=" ">
<polygon fill="white" stroke="#666666" points="1072,-362.25 1038,-362.25 1038,-343 1072,-343 1072,-362.25"/>
<text text-anchor="middle" x="1055" y="-348.75" font-family="Helvetica,sans-Serif" font-size="10.00">void</text>
</a>
</g>
</g>
<!-- Node15&#45;&gt;Node16 -->
<g id="edge16_Node000015_Node000016" class="edge">
<title>Node15&#45;&gt;Node16</title>
<g id="a_edge16_Node000015_Node000016"><a xlink:title=" ">
<path fill="none" stroke="#63b8ff" d="M957.41,-368.03C980.99,-364.27 1007.62,-360.02 1026.93,-356.94"/>
<polygon fill="#63b8ff" stroke="#63b8ff" points="1027.33,-360.26 1036.65,-355.23 1026.23,-353.35 1027.33,-360.26"/>
</a>
</g>
</g>
<!-- Node18&#45;&gt;Node16 -->
<g id="edge19_Node000018_Node000016" class="edge">
<title>Node18&#45;&gt;Node16</title>
<g id="a_edge19_Node000018_Node000016"><a xlink:title=" ">
<path fill="none" stroke="#63b8ff" d="M957.41,-336.58C980.99,-340.5 1007.62,-344.92 1026.93,-348.13"/>
<polygon fill="#63b8ff" stroke="#63b8ff" points="1026.21,-351.72 1036.65,-349.91 1027.36,-344.82 1026.21,-351.72"/>
</a>
</g>
</g>
<!-- Node21&#45;&gt;Node9 -->
<g id="edge23_Node000021_Node000009" class="edge">
<title>Node21&#45;&gt;Node9</title>
<g id="a_edge23_Node000021_Node000009"><a xlink:title=" ">
<path fill="none" stroke="#63b8ff" d="M785.77,-476.87C804.74,-479.95 826.37,-483.45 845.75,-486.59"/>
<polygon fill="#63b8ff" stroke="#63b8ff" points="845.13,-490.2 855.56,-488.34 846.25,-483.29 845.13,-490.2"/>
</a>
</g>
</g>
<!-- Node23 -->
<g id="Node000023" class="node">
<title>Node23</title>
<g id="a_Node000023"><a xlink:href="../../d6/df6/miniz_8c.html#ae9968978f7ea9f732c5ed08db988208b" target="_top" xlink:title=" ">
<polygon fill="#fff0f0" stroke="red" points="943.88,-105.25 861.12,-105.25 861.12,-86 943.88,-86 943.88,-105.25"/>
<text text-anchor="middle" x="902.5" y="-91.75" font-family="Helvetica,sans-Serif" font-size="10.00">tdefl_compress</text>
</a>
</g>
</g>
<!-- Node22&#45;&gt;Node23 -->
<g id="edge25_Node000022_Node000023" class="edge">
<title>Node22&#45;&gt;Node23</title>
<g id="a_edge25_Node000022_Node000023"><a xlink:title=" ">
<path fill="none" stroke="#63b8ff" d="M790.36,-95.62C809.59,-95.62 831.06,-95.62 849.96,-95.62"/>
<polygon fill="#63b8ff" stroke="#63b8ff" points="849.75,-99.13 859.75,-95.62 849.75,-92.13 849.75,-99.13"/>
</a>
</g>
</g>
</g>
</svg>

<g id="navigator" transform="translate(0 0)" fill="#404254">
  <rect fill="#f2f5e9" fill-opacity="0.5" stroke="#606060" stroke-width=".5" x="0" y="0" width="60" height="60"/>
  <use id="zoomplus" xlink:href="#zoomPlus" x="17" y="9" onmousedown="handleZoom(evt,'in')"/>
  <use id="zoomminus" xlink:href="#zoomMin" x="42" y="9" onmousedown="handleZoom(evt,'out')"/>
  <use id="reset" xlink:href="#resetDef" x="30" y="36" onmousedown="handleReset()"/>
   <use id="arrowup" xlink:href="#arrowUp" x="0" y="0" onmousedown="handlePan(0,-1)"/>
  <use id="arrowright" xlink:href="#arrowRight" x="0" y="0" onmousedown="handlePan(1,0)"/>
  <use id="arrowdown" xlink:href="#arrowDown" x="0" y="0" onmousedown="handlePan(0,1)"/>
  <use id="arrowleft" xlink:href="#arrowLeft" x="0" y="0" onmousedown="handlePan(-1,0)"/>
</g>
<svg viewBox="0 0 15 15" width="100%" height="30px" preserveAspectRatio="xMaxYMin meet">
 <g id="arrow_out" transform="scale(0.3 0.3)">
  <a xlink:href="class_slic3r_1_1__3_m_f___exporter_aea5504b862067e88864ecae23fc05cfb_cgraph_org.svg" target="_base">
   <rect id="button" ry="5" rx="5" y="6" x="6" height="38" width="38"
        fill="#f2f5e9" fill-opacity="0.5" stroke="#606060" stroke-width="1.0"/>
   <path id="arrow"
     d="M 11.500037,31.436501 C 11.940474,20.09759 22.043105,11.32322 32.158766,21.979434 L 37.068811,17.246167 C 37.068811,17.246167 37.088388,32 37.088388,32 L 22.160133,31.978069 C 22.160133,31.978069 26.997745,27.140456 26.997745,27.140456 C 18.528582,18.264221 13.291696,25.230495 11.500037,31.436501 z"
     style="fill:#404040;"/>
  </a>
 </g>
</svg>

<style type='text/css'>
<![CDATA[
[data-mouse-over-selected='false'] { opacity: 0.7; }
[data-mouse-over-selected='true']  { opacity: 1.0; }
]]>
</style>
<script type="application/ecmascript"><![CDATA[
document.addEventListener('DOMContentLoaded', (event) => {
  highlightEdges();
  highlightAdjacentNodes();
});
]]></script>
</svg>
