<?xml version="1.0" encoding="UTF-8" standalone="no"?>
<!DOCTYPE svg PUBLIC "-//W3C//DTD SVG 1.1//EN"
 "http://www.w3.org/Graphics/SVG/1.1/DTD/svg11.dtd">
<!-- Generated by graphviz version 8.0.5 (20230430.1635)
 -->
<!-- Title: Slic3r::_3MF_Exporter::_add_model_file_to_archive Pages: 1 -->
<!--zoomable 796 -->

<svg id="main" version="1.1" xmlns="http://www.w3.org/2000/svg" xmlns:xlink="http://www.w3.org/1999/xlink" xml:space="preserve" onload="init(evt)">
<style type="text/css"><![CDATA[
.node, .edge {opacity: 0.7;}
.node.selected, .edge.selected {opacity: 1;}
.edge:hover path { stroke: red; }
.edge:hover polygon { stroke: red; fill: red; }
]]></style>

<defs>
  <circle id="rim" cx="0" cy="0" r="7"/>
  <circle id="rim2" cx="0" cy="0" r="3.5"/>
  <g id="zoomPlus">
    <use xlink:href="#rim" fill="#404040"><set attributeName="fill" to="#808080" begin="zoomplus.mouseover" end="zoomplus.mouseout"/></use>
    <path d="M-4,0h8M0,-4v8" fill="none" stroke="white" stroke-width="1.5" pointer-events="none"/>
  </g>
  <g id="zoomMin">
    <use xlink:href="#rim" fill="#404040"><set attributeName="fill" to="#808080" begin="zoomminus.mouseover" end="zoomminus.mouseout"/></use>
    <path d="M-4,0h8" fill="none" stroke="white" stroke-width="1.5" pointer-events="none"/>
  </g>
  <g id="arrowUp" transform="translate(30 24)">
    <use xlink:href="#rim"/>
    <path pointer-events="none" fill="none" stroke="white" stroke-width="1.5" d="M0,-3.0v7 M-2.5,-0.5L0,-3.0L2.5,-0.5"/>
  </g>
  <g id="arrowRight" transform="rotate(90) translate(36 -43)">
    <use xlink:href="#rim"/>
    <path pointer-events="none" fill="none" stroke="white" stroke-width="1.5" d="M0,-3.0v7 M-2.5,-0.5L0,-3.0L2.5,-0.5"/>
  </g>
  <g id="arrowDown" transform="rotate(180) translate(-30 -48)">
    <use xlink:href="#rim"/>
    <path pointer-events="none" fill="none" stroke="white" stroke-width="1.5" d="M0,-3.0v7 M-2.5,-0.5L0,-3.0L2.5,-0.5"/>
  </g>
  <g id="arrowLeft" transform="rotate(270) translate(-36 17)">
    <use xlink:href="#rim"/>
    <path pointer-events="none" fill="none" stroke="white" stroke-width="1.5" d="M0,-3.0v7 M-2.5,-0.5L0,-3.0L2.5,-0.5"/>
  </g>
  <g id="resetDef">
    <use xlink:href="#rim2" fill="#404040"><set attributeName="fill" to="#808080" begin="reset.mouseover" end="reset.mouseout"/></use>
  </g>
</defs>
<script type="application/ecmascript">
var viewWidth = 1102;
var viewHeight = 796;
var sectionId = 'dynsection-9';
</script>
<script type="application/ecmascript" xlink:href="../../svg.min.js"/>
<svg id="graph" class="graph">
<g id="viewport">
<title>Slic3r::_3MF_Exporter::_add_model_file_to_archive</title>
<!-- Node1 -->
<g id="Node000001" class="node">
<title>Node1</title>
<g id="a_Node000001"><a xlink:title=" ">
<polygon fill="#999999" stroke="#666666" points="113.5,-570.5 0,-570.5 0,-528.75 113.5,-528.75 113.5,-570.5"/>
<text text-anchor="start" x="8" y="-557" font-family="Helvetica,sans-Serif" font-size="10.00">Slic3r::_3MF_Exporter</text>
<text text-anchor="start" x="8" y="-545.75" font-family="Helvetica,sans-Serif" font-size="10.00">::_add_model_file_to</text>
<text text-anchor="middle" x="56.75" y="-534.5" font-family="Helvetica,sans-Serif" font-size="10.00">_archive</text>
</a>
</g>
</g>
<!-- Node2 -->
<g id="Node000002" class="node">
<title>Node2</title>
<g id="a_Node000002"><a xlink:href="../../d3/d47/namespace_slic3r_1_1_utils.html#ae3730cc71d7ed9891e6f0d02ca54449c" target="_top" xlink:title=" ">
<polygon fill="white" stroke="#666666" points="469.12,-764.88 375.12,-764.88 375.12,-734.38 469.12,-734.38 469.12,-764.88"/>
<text text-anchor="start" x="383.12" y="-751.38" font-family="Helvetica,sans-Serif" font-size="10.00">Slic3r::Utils::get</text>
<text text-anchor="middle" x="422.12" y="-740.12" font-family="Helvetica,sans-Serif" font-size="10.00">_current_time_utc</text>
</a>
</g>
</g>
<!-- Node1&#45;&gt;Node2 -->
<g id="edge1_Node000001_Node000002" class="edge">
<title>Node1&#45;&gt;Node2</title>
<g id="a_edge1_Node000001_Node000002"><a xlink:title=" ">
<path fill="none" stroke="#63b8ff" d="M59.6,-570.87C64.74,-615.27 83.52,-717.37 149.5,-760.62 215.08,-803.62 309.96,-786.17 368.48,-768.63"/>
<polygon fill="#63b8ff" stroke="#63b8ff" points="369.45,-771.67 377.96,-765.36 367.38,-764.99 369.45,-771.67"/>
</a>
</g>
</g>
<!-- Node3 -->
<g id="Node000003" class="node">
<title>Node3</title>
<g id="a_Node000003"><a xlink:href="../../dd/d8d/class_slic3r_1_1_model.html#af64a898e0a58466fe26c82043bb18d24" target="_top" xlink:title=" ">
<polygon fill="white" stroke="#666666" points="282.88,-684.88 174.62,-684.88 174.62,-654.38 282.88,-654.38 282.88,-684.88"/>
<text text-anchor="start" x="182.62" y="-671.38" font-family="Helvetica,sans-Serif" font-size="10.00">Slic3r::Model::is_fdm</text>
<text text-anchor="middle" x="228.75" y="-660.12" font-family="Helvetica,sans-Serif" font-size="10.00">_support_painted</text>
</a>
</g>
</g>
<!-- Node1&#45;&gt;Node3 -->
<g id="edge2_Node000001_Node000003" class="edge">
<title>Node1&#45;&gt;Node3</title>
<g id="a_edge2_Node000001_Node000003"><a xlink:title=" ">
<path fill="none" stroke="#63b8ff" d="M73.02,-570.71C89.59,-592.18 117.95,-625.02 149.5,-644.62 154.15,-647.51 159.17,-650.1 164.33,-652.41"/>
<polygon fill="#63b8ff" stroke="#63b8ff" points="162.82,-655.98 173.4,-656.51 165.46,-649.49 162.82,-655.98"/>
</a>
</g>
</g>
<!-- Node4 -->
<g id="Node000004" class="node">
<title>Node4</title>
<g id="a_Node000004"><a xlink:href="../../dd/d8d/class_slic3r_1_1_model.html#a2a3de7bc8a2b3ec253d0583535c1680d" target="_top" xlink:title=" ">
<polygon fill="white" stroke="#666666" points="282.88,-635.88 174.62,-635.88 174.62,-605.38 282.88,-605.38 282.88,-635.88"/>
<text text-anchor="start" x="182.62" y="-622.38" font-family="Helvetica,sans-Serif" font-size="10.00">Slic3r::Model::is_mm</text>
<text text-anchor="middle" x="228.75" y="-611.12" font-family="Helvetica,sans-Serif" font-size="10.00">_painted</text>
</a>
</g>
</g>
<!-- Node1&#45;&gt;Node4 -->
<g id="edge3_Node000001_Node000004" class="edge">
<title>Node1&#45;&gt;Node4</title>
<g id="a_edge3_Node000001_Node000004"><a xlink:title=" ">
<path fill="none" stroke="#63b8ff" d="M96.87,-570.92C112.92,-579.21 131.84,-588.43 149.5,-595.62 154.41,-597.63 159.54,-599.57 164.73,-601.44"/>
<polygon fill="#63b8ff" stroke="#63b8ff" points="163.14,-604.94 173.73,-604.92 165.44,-598.33 163.14,-604.94"/>
</a>
</g>
</g>
<!-- Node5 -->
<g id="Node000005" class="node">
<title>Node5</title>
<g id="a_Node000005"><a xlink:href="../../dd/d8d/class_slic3r_1_1_model.html#a221ac17e85cc8f5b5b0171a28106b141" target="_top" xlink:title=" ">
<polygon fill="white" stroke="#666666" points="286.62,-586.88 170.88,-586.88 170.88,-556.38 286.62,-556.38 286.62,-586.88"/>
<text text-anchor="start" x="178.88" y="-573.38" font-family="Helvetica,sans-Serif" font-size="10.00">Slic3r::Model::is_seam</text>
<text text-anchor="middle" x="228.75" y="-562.12" font-family="Helvetica,sans-Serif" font-size="10.00">_painted</text>
</a>
</g>
</g>
<!-- Node1&#45;&gt;Node5 -->
<g id="edge4_Node000001_Node000005" class="edge">
<title>Node1&#45;&gt;Node5</title>
<g id="a_edge4_Node000001_Node000005"><a xlink:title=" ">
<path fill="none" stroke="#63b8ff" d="M113.89,-556.89C128.52,-558.78 144.44,-560.84 159.62,-562.81"/>
<polygon fill="#63b8ff" stroke="#63b8ff" points="159.14,-566.41 169.51,-564.22 160.04,-559.46 159.14,-566.41"/>
</a>
</g>
</g>
<!-- Node6 -->
<g id="Node000006" class="node">
<title>Node6</title>
<g id="a_Node000006"><a xlink:href="../../d6/df6/miniz_8c.html#ab89d8936d177baba8f06eac7b618a6dc" target="_top" xlink:title=" ">
<polygon fill="white" stroke="#666666" points="500.25,-609.25 344,-609.25 344,-590 500.25,-590 500.25,-609.25"/>
<text text-anchor="middle" x="422.12" y="-595.75" font-family="Helvetica,sans-Serif" font-size="10.00">mz_zip_writer_add_staged_data</text>
</a>
</g>
</g>
<!-- Node1&#45;&gt;Node6 -->
<g id="edge5_Node000001_Node000006" class="edge">
<title>Node1&#45;&gt;Node6</title>
<g id="a_edge5_Node000001_Node000006"><a xlink:title=" ">
<path fill="none" stroke="#63b8ff" d="M113.81,-537.66C165.98,-529.15 244.93,-523.09 308,-547.62 328.23,-555.49 324.87,-570.38 344,-580.62 347.66,-582.58 351.52,-584.34 355.49,-585.93"/>
<polygon fill="#63b8ff" stroke="#63b8ff" points="353.92,-589.44 364.52,-589.5 356.27,-582.85 353.92,-589.44"/>
</a>
</g>
</g>
<!-- Node26 -->
<g id="Node000026" class="node">
<title>Node26</title>
<g id="a_Node000026"><a xlink:href="../../d6/df6/miniz_8c.html#a2c2e2d560cee969864cd1b3b0f264e75" target="_top" xlink:title=" ">
<polygon fill="white" stroke="#666666" points="294.88,-500.88 162.62,-500.88 162.62,-470.38 294.88,-470.38 294.88,-500.88"/>
<text text-anchor="start" x="170.62" y="-487.38" font-family="Helvetica,sans-Serif" font-size="10.00">mz_zip_writer_add_staged</text>
<text text-anchor="middle" x="228.75" y="-476.12" font-family="Helvetica,sans-Serif" font-size="10.00">_finish</text>
</a>
</g>
</g>
<!-- Node1&#45;&gt;Node26 -->
<g id="edge18_Node000001_Node000026" class="edge">
<title>Node1&#45;&gt;Node26</title>
<g id="a_edge18_Node000001_Node000026"><a xlink:title=" ">
<path fill="none" stroke="#63b8ff" d="M113.52,-528.26C125.38,-523.73 137.85,-519.01 149.5,-514.62 157.69,-511.54 166.38,-508.3 174.87,-505.14"/>
<polygon fill="#63b8ff" stroke="#63b8ff" points="175.92,-508.12 184.08,-501.35 173.49,-501.55 175.92,-508.12"/>
</a>
</g>
</g>
<!-- Node34 -->
<g id="Node000034" class="node">
<title>Node34</title>
<g id="a_Node000034"><a xlink:href="../../d6/df6/miniz_8c.html#a9a92bad43b4ceccbfc7785a1aa179984" target="_top" xlink:title=" ">
<polygon fill="white" stroke="#666666" points="308,-274.25 149.5,-274.25 149.5,-255 308,-255 308,-274.25"/>
<text text-anchor="middle" x="228.75" y="-260.75" font-family="Helvetica,sans-Serif" font-size="10.00">mz_zip_writer_add_staged_open</text>
</a>
</g>
</g>
<!-- Node1&#45;&gt;Node34 -->
<g id="edge30_Node000001_Node000034" class="edge">
<title>Node1&#45;&gt;Node34</title>
<g id="a_edge30_Node000001_Node000034"><a xlink:title=" ">
<path fill="none" stroke="#63b8ff" d="M70.25,-528.67C102.03,-475.39 185.56,-335.36 216.24,-283.93"/>
<polygon fill="#63b8ff" stroke="#63b8ff" points="219.67,-286 221.79,-275.62 213.66,-282.41 219.67,-286"/>
</a>
</g>
</g>
<!-- Node44 -->
<g id="Node000044" class="node">
<title>Node44</title>
<g id="a_Node000044"><a xlink:href="../../de/db8/namespace_slic3r.html#a61e85e532257a536bc04155071b847ea" target="_top" xlink:title=" ">
<polygon fill="white" stroke="#666666" points="280.62,-219.25 176.88,-219.25 176.88,-200 280.62,-200 280.62,-219.25"/>
<text text-anchor="middle" x="228.75" y="-205.75" font-family="Helvetica,sans-Serif" font-size="10.00">Slic3r::reset_stream</text>
</a>
</g>
</g>
<!-- Node1&#45;&gt;Node44 -->
<g id="edge43_Node000001_Node000044" class="edge">
<title>Node1&#45;&gt;Node44</title>
<g id="a_edge43_Node000001_Node000044"><a xlink:title=" ">
<path fill="none" stroke="#63b8ff" d="M58.39,-528.39C61.1,-474.53 75.29,-330.86 149.5,-245.62 157.7,-236.2 168.88,-229.1 180.22,-223.8"/>
<polygon fill="#63b8ff" stroke="#63b8ff" points="181.32,-226.72 189.16,-219.6 178.59,-220.27 181.32,-226.72"/>
</a>
</g>
</g>
<!-- Node45 -->
<g id="Node000045" class="node">
<title>Node45</title>
<g id="a_Node000045"><a xlink:href="../../d3/d47/namespace_slic3r_1_1_utils.html#a3be8424365a851987e3ed9403f35e344" target="_top" xlink:title=" ">
<polygon fill="white" stroke="#666666" points="272,-733.88 185.5,-733.88 185.5,-703.38 272,-703.38 272,-733.88"/>
<text text-anchor="start" x="193.5" y="-720.38" font-family="Helvetica,sans-Serif" font-size="10.00">Slic3r::Utils::utc</text>
<text text-anchor="middle" x="228.75" y="-709.12" font-family="Helvetica,sans-Serif" font-size="10.00">_timestamp</text>
</a>
</g>
</g>
<!-- Node1&#45;&gt;Node45 -->
<g id="edge45_Node000001_Node000045" class="edge">
<title>Node1&#45;&gt;Node45</title>
<g id="a_edge45_Node000001_Node000045"><a xlink:title=" ">
<path fill="none" stroke="#63b8ff" d="M65.71,-570.77C78.57,-602.13 106.88,-660.79 149.5,-693.62 157.05,-699.44 166,-703.93 175.09,-707.38"/>
<polygon fill="#63b8ff" stroke="#63b8ff" points="173.76,-710.96 184.35,-710.85 176,-704.33 173.76,-710.96"/>
</a>
</g>
</g>
<!-- Node46 -->
<g id="Node000046" class="node">
<title>Node46</title>
<g id="a_Node000046"><a xlink:href="../../de/db8/namespace_slic3r.html#a896c49b74a260d028f471ec275601b42" target="_top" xlink:title=" ">
<polygon fill="white" stroke="#666666" points="278.38,-182.25 179.12,-182.25 179.12,-163 278.38,-163 278.38,-182.25"/>
<text text-anchor="middle" x="228.75" y="-168.75" font-family="Helvetica,sans-Serif" font-size="10.00">Slic3r::xml_escape</text>
</a>
</g>
</g>
<!-- Node1&#45;&gt;Node46 -->
<g id="edge48_Node000001_Node000046" class="edge">
<title>Node1&#45;&gt;Node46</title>
<g id="a_edge48_Node000001_Node000046"><a xlink:title=" ">
<path fill="none" stroke="#63b8ff" d="M60.25,-528.67C68.93,-459.31 100.01,-238.93 149.5,-190.62 154.99,-185.27 161.73,-181.38 168.93,-178.58"/>
<polygon fill="#63b8ff" stroke="#63b8ff" points="169.49,-181.76 177.96,-175.4 167.37,-175.09 169.49,-181.76"/>
</a>
</g>
</g>
<!-- Node7 -->
<g id="Node000007" class="node">
<title>Node7</title>
<g id="a_Node000007"><a xlink:href="../../d6/df6/miniz_8c.html#a8b7cb38252f297265f6b850ab4ae0f01" target="_top" xlink:title=" ">
<polygon fill="white" stroke="#666666" points="629.12,-601.25 570.38,-601.25 570.38,-582 629.12,-582 629.12,-601.25"/>
<text text-anchor="middle" x="599.75" y="-587.75" font-family="Helvetica,sans-Serif" font-size="10.00">mz_crc32</text>
</a>
</g>
</g>
<!-- Node6&#45;&gt;Node7 -->
<g id="edge6_Node000006_Node000007" class="edge">
<title>Node6&#45;&gt;Node7</title>
<g id="a_edge6_Node000006_Node000007"><a xlink:title=" ">
<path fill="none" stroke="#63b8ff" d="M500.67,-596.09C520.87,-595.17 541.81,-594.22 559.12,-593.43"/>
<polygon fill="#63b8ff" stroke="#63b8ff" points="559.1,-596.89 568.93,-592.94 558.78,-589.9 559.1,-596.89"/>
</a>
</g>
</g>
<!-- Node8 -->
<g id="Node000008" class="node">
<title>Node8</title>
<g id="a_Node000008"><a xlink:href="../../d6/df6/miniz_8c.html#a990e748a280a6903cbc02307320848c5" target="_top" xlink:title=" ">
<polygon fill="white" stroke="#666666" points="645.25,-431.25 554.25,-431.25 554.25,-412 645.25,-412 645.25,-431.25"/>
<text text-anchor="middle" x="599.75" y="-417.75" font-family="Helvetica,sans-Serif" font-size="10.00">mz_zip_set_error</text>
</a>
</g>
</g>
<!-- Node6&#45;&gt;Node8 -->
<g id="edge7_Node000006_Node000008" class="edge">
<title>Node6&#45;&gt;Node8</title>
<g id="a_edge7_Node000006_Node000008"><a xlink:title=" ">
<path fill="none" stroke="#63b8ff" d="M487.92,-589.58C492.43,-587.16 496.62,-584.21 500.25,-580.62 545.91,-535.43 491.82,-487.03 536.25,-440.62 538.61,-438.16 541.27,-436.02 544.13,-434.15"/>
<polygon fill="#63b8ff" stroke="#63b8ff" points="545.61,-436.81 552.85,-429.07 542.37,-430.6 545.61,-436.81"/>
</a>
</g>
</g>
<!-- Node9 -->
<g id="Node000009" class="node">
<title>Node9</title>
<g id="a_Node000009"><a xlink:href="../../d6/df6/miniz_8c.html#a5f2608070112b0e81a3017e9c39c73b7" target="_top" xlink:title=" ">
<polygon fill="white" stroke="#666666" points="656.12,-638.25 543.38,-638.25 543.38,-619 656.12,-619 656.12,-638.25"/>
<text text-anchor="middle" x="599.75" y="-624.75" font-family="Helvetica,sans-Serif" font-size="10.00">tdefl_compress_buffer</text>
</a>
</g>
</g>
<!-- Node6&#45;&gt;Node9 -->
<g id="edge8_Node000006_Node000009" class="edge">
<title>Node6&#45;&gt;Node9</title>
<g id="a_edge8_Node000006_Node000009"><a xlink:title=" ">
<path fill="none" stroke="#63b8ff" d="M484.06,-609.69C499.59,-612.25 516.37,-615.02 532.17,-617.63"/>
<polygon fill="#63b8ff" stroke="#63b8ff" points="531.49,-621.23 541.93,-619.41 532.63,-614.33 531.49,-621.23"/>
</a>
</g>
</g>
<!-- Node10 -->
<g id="Node000010" class="node">
<title>Node10</title>
<g id="a_Node000010"><a xlink:href="../../d6/df6/miniz_8c.html#ae9968978f7ea9f732c5ed08db988208b" target="_top" xlink:title=" ">
<polygon fill="white" stroke="#666666" points="793.62,-638.25 710.88,-638.25 710.88,-619 793.62,-619 793.62,-638.25"/>
<text text-anchor="middle" x="752.25" y="-624.75" font-family="Helvetica,sans-Serif" font-size="10.00">tdefl_compress</text>
</a>
</g>
</g>
<!-- Node9&#45;&gt;Node10 -->
<g id="edge9_Node000009_Node000010" class="edge">
<title>Node9&#45;&gt;Node10</title>
<g id="a_edge9_Node000009_Node000010"><a xlink:title=" ">
<path fill="none" stroke="#63b8ff" d="M656.36,-628.62C670.5,-628.62 685.64,-628.62 699.57,-628.62"/>
<polygon fill="#63b8ff" stroke="#63b8ff" points="699.45,-632.13 709.45,-628.62 699.45,-625.13 699.45,-632.13"/>
</a>
</g>
</g>
<!-- Node11 -->
<g id="Node000011" class="node">
<title>Node11</title>
<g id="a_Node000011"><a xlink:href="../../d6/df6/miniz_8c.html#a094d181afc4c98dc1864f6ce7d636258" target="_top" xlink:title=" ">
<polygon fill="white" stroke="#666666" points="933,-586.25 866.75,-586.25 866.75,-567 933,-567 933,-586.25"/>
<text text-anchor="middle" x="899.88" y="-572.75" font-family="Helvetica,sans-Serif" font-size="10.00">mz_adler32</text>
</a>
</g>
</g>
<!-- Node10&#45;&gt;Node11 -->
<g id="edge10_Node000010_Node000011" class="edge">
<title>Node10&#45;&gt;Node11</title>
<g id="a_edge10_Node000010_Node000011"><a xlink:title=" ">
<path fill="none" stroke="#63b8ff" d="M779.33,-618.53C796.79,-611.85 820.32,-603 841.25,-595.62 846.46,-593.79 851.95,-591.91 857.39,-590.08"/>
<polygon fill="#63b8ff" stroke="#63b8ff" points="858.31,-593.13 866.69,-586.65 856.1,-586.49 858.31,-593.13"/>
</a>
</g>
</g>
<!-- Node12 -->
<g id="Node000012" class="node">
<title>Node12</title>
<g id="a_Node000012"><a xlink:href="../../d6/df6/miniz_8c.html#a693b5cf938e6f7d2fc439f8ab65ea466" target="_top" xlink:title=" ">
<polygon fill="white" stroke="#666666" points="958.5,-672.25 841.25,-672.25 841.25,-653 958.5,-653 958.5,-672.25"/>
<text text-anchor="middle" x="899.88" y="-658.75" font-family="Helvetica,sans-Serif" font-size="10.00">tdefl_compress_normal</text>
</a>
</g>
</g>
<!-- Node10&#45;&gt;Node12 -->
<g id="edge11_Node000010_Node000012" class="edge">
<title>Node10&#45;&gt;Node12</title>
<g id="a_edge11_Node000010_Node000012"><a xlink:title=" ">
<path fill="none" stroke="#63b8ff" d="M793.81,-638.1C809.77,-641.82 828.32,-646.15 845.36,-650.13"/>
<polygon fill="#63b8ff" stroke="#63b8ff" points="844.2,-653.69 854.73,-652.55 845.79,-646.87 844.2,-653.69"/>
</a>
</g>
</g>
<!-- Node14 -->
<g id="Node000014" class="node">
<title>Node14</title>
<g id="a_Node000014"><a xlink:href="../../d6/df6/miniz_8c.html#a1adafac587d2839277822cea5bdc224d" target="_top" xlink:title=" ">
<polygon fill="#fff0f0" stroke="red" points="1088.88,-710.25 999.38,-710.25 999.38,-691 1088.88,-691 1088.88,-710.25"/>
<text text-anchor="middle" x="1044.12" y="-696.75" font-family="Helvetica,sans-Serif" font-size="10.00">tdefl_flush_block</text>
</a>
</g>
</g>
<!-- Node10&#45;&gt;Node14 -->
<g id="edge16_Node000010_Node000014" class="edge">
<title>Node10&#45;&gt;Node14</title>
<g id="a_edge16_Node000010_Node000014"><a xlink:title=" ">
<path fill="none" stroke="#63b8ff" d="M765.76,-638.68C782.06,-651.17 811.94,-671.98 841.25,-681.62 889.19,-697.4 946.74,-701.47 988.11,-701.99"/>
<polygon fill="#63b8ff" stroke="#63b8ff" points="988.04,-705.5 998.06,-702.05 988.08,-698.5 988.04,-705.5"/>
</a>
</g>
</g>
<!-- Node25 -->
<g id="Node000025" class="node">
<title>Node25</title>
<g id="a_Node000025"><a xlink:href="../../d6/df6/miniz_8c.html#af80414324052552afda66f992ee246e9" target="_top" xlink:title=" ">
<polygon fill="white" stroke="#666666" points="946.5,-634.88 853.25,-634.88 853.25,-604.38 946.5,-604.38 946.5,-634.88"/>
<text text-anchor="start" x="861.25" y="-621.38" font-family="Helvetica,sans-Serif" font-size="10.00">tdefl_flush_output</text>
<text text-anchor="middle" x="899.88" y="-610.12" font-family="Helvetica,sans-Serif" font-size="10.00">_buffer</text>
</a>
</g>
</g>
<!-- Node10&#45;&gt;Node25 -->
<g id="edge17_Node000010_Node000025" class="edge">
<title>Node10&#45;&gt;Node25</title>
<g id="a_edge17_Node000010_Node000025"><a xlink:title=" ">
<path fill="none" stroke="#63b8ff" d="M793.81,-626.12C808.72,-625.2 825.89,-624.14 841.97,-623.14"/>
<polygon fill="#63b8ff" stroke="#63b8ff" points="842.12,-626.58 851.88,-622.47 841.69,-619.59 842.12,-626.58"/>
</a>
</g>
</g>
<!-- Node13 -->
<g id="Node000013" class="node">
<title>Node13</title>
<g id="a_Node000013"><a xlink:href="../../d6/df6/miniz_8c.html#a72ea4abdadc19539c9275883bbb5aeda" target="_top" xlink:title=" ">
<polygon fill="white" stroke="#666666" points="1088.12,-599.25 1000.12,-599.25 1000.12,-580 1088.12,-580 1088.12,-599.25"/>
<text text-anchor="middle" x="1044.12" y="-585.75" font-family="Helvetica,sans-Serif" font-size="10.00">tdefl_find_match</text>
</a>
</g>
</g>
<!-- Node12&#45;&gt;Node13 -->
<g id="edge12_Node000012_Node000013" class="edge">
<title>Node12&#45;&gt;Node13</title>
<g id="a_edge12_Node000012_Node000013"><a xlink:title=" ">
<path fill="none" stroke="#63b8ff" d="M939.81,-652.56C946.29,-650.12 952.76,-647.16 958.5,-643.62 977.77,-631.76 975.45,-619.83 994.5,-607.62 996.29,-606.48 998.16,-605.39 1000.09,-604.36"/>
<polygon fill="#63b8ff" stroke="#63b8ff" points="1001.47,-607.1 1009.03,-599.67 998.49,-600.77 1001.47,-607.1"/>
</a>
</g>
</g>
<!-- Node12&#45;&gt;Node14 -->
<g id="edge13_Node000012_Node000014" class="edge">
<title>Node12&#45;&gt;Node14</title>
<g id="a_edge13_Node000012_Node000014"><a xlink:title=" ">
<path fill="none" stroke="#63b8ff" d="M938.62,-672.71C955.96,-677.34 976.72,-682.89 995.16,-687.81"/>
<polygon fill="#63b8ff" stroke="#63b8ff" points="994.13,-691.43 1004.7,-690.63 995.94,-684.66 994.13,-691.43"/>
</a>
</g>
</g>
<!-- Node23 -->
<g id="Node000023" class="node">
<title>Node23</title>
<g id="a_Node000023"><a xlink:href="../../d6/df6/miniz_8c.html#aa1d7593a37246e096639528e5fe7c1c0" target="_top" xlink:title=" ">
<polygon fill="white" stroke="#666666" points="1091.88,-673.25 996.38,-673.25 996.38,-654 1091.88,-654 1091.88,-673.25"/>
<text text-anchor="middle" x="1044.12" y="-659.75" font-family="Helvetica,sans-Serif" font-size="10.00">tdefl_record_literal</text>
</a>
</g>
</g>
<!-- Node12&#45;&gt;Node23 -->
<g id="edge14_Node000012_Node000023" class="edge">
<title>Node12&#45;&gt;Node23</title>
<g id="a_edge14_Node000012_Node000023"><a xlink:title=" ">
<path fill="none" stroke="#63b8ff" d="M958.73,-663.03C967.5,-663.09 976.54,-663.16 985.3,-663.22"/>
<polygon fill="#63b8ff" stroke="#63b8ff" points="985.18,-666.72 995.2,-663.3 985.23,-659.72 985.18,-666.72"/>
</a>
</g>
</g>
<!-- Node24 -->
<g id="Node000024" class="node">
<title>Node24</title>
<g id="a_Node000024"><a xlink:href="../../d6/df6/miniz_8c.html#ad67ea1952b814c7b86267773ebf8da84" target="_top" xlink:title=" ">
<polygon fill="white" stroke="#666666" points="1093.75,-636.25 994.5,-636.25 994.5,-617 1093.75,-617 1093.75,-636.25"/>
<text text-anchor="middle" x="1044.12" y="-622.75" font-family="Helvetica,sans-Serif" font-size="10.00">tdefl_record_match</text>
</a>
</g>
</g>
<!-- Node12&#45;&gt;Node24 -->
<g id="edge15_Node000012_Node000024" class="edge">
<title>Node12&#45;&gt;Node24</title>
<g id="a_edge15_Node000012_Node000024"><a xlink:title=" ">
<path fill="none" stroke="#63b8ff" d="M940.88,-652.5C957.07,-648.4 975.95,-643.62 993.05,-639.3"/>
<polygon fill="#63b8ff" stroke="#63b8ff" points="993.59,-642.52 1002.42,-636.67 991.87,-635.73 993.59,-642.52"/>
</a>
</g>
</g>
<!-- Node26&#45;&gt;Node6 -->
<g id="edge20_Node000026_Node000006" class="edge">
<title>Node26&#45;&gt;Node6</title>
<g id="a_edge20_Node000026_Node000006"><a xlink:title=" ">
<path fill="none" stroke="#63b8ff" d="M287.17,-501.35C294.67,-504.94 301.86,-509.32 308,-514.62 333.27,-536.49 317.53,-560.23 344,-580.62 345.91,-582.1 347.92,-583.45 350,-584.71"/>
<polygon fill="#63b8ff" stroke="#63b8ff" points="348.05,-588.15 358.55,-589.57 351.23,-581.91 348.05,-588.15"/>
</a>
</g>
</g>
<!-- Node26&#45;&gt;Node8 -->
<g id="edge19_Node000026_Node000008" class="edge">
<title>Node26&#45;&gt;Node8</title>
<g id="a_edge19_Node000026_Node000008"><a xlink:title=" ">
<path fill="none" stroke="#63b8ff" d="M295.35,-477.65C350.31,-470.55 430.71,-459.21 500.25,-445.62 516.67,-442.42 534.48,-438.28 550.38,-434.35"/>
<polygon fill="#63b8ff" stroke="#63b8ff" points="551.19,-437.5 560.04,-431.68 549.49,-430.72 551.19,-437.5"/>
</a>
</g>
</g>
<!-- Node27 -->
<g id="Node000027" class="node">
<title>Node27</title>
<g id="a_Node000027"><a xlink:href="../../d6/df6/miniz_8c.html#a0a0f9c1d13431f247f29c0585fad94a6" target="_top" xlink:title=" ">
<polygon fill="white" stroke="#666666" points="477.75,-522.88 366.5,-522.88 366.5,-492.38 477.75,-492.38 477.75,-522.88"/>
<text text-anchor="start" x="374.5" y="-509.38" font-family="Helvetica,sans-Serif" font-size="10.00">mz_zip_writer_add_to</text>
<text text-anchor="middle" x="422.12" y="-498.12" font-family="Helvetica,sans-Serif" font-size="10.00">_central_dir</text>
</a>
</g>
</g>
<!-- Node26&#45;&gt;Node27 -->
<g id="edge21_Node000026_Node000027" class="edge">
<title>Node26&#45;&gt;Node27</title>
<g id="a_edge21_Node000026_Node000027"><a xlink:title=" ">
<path fill="none" stroke="#63b8ff" d="M295.34,-493.17C314.7,-495.39 335.88,-497.83 355.26,-500.05"/>
<polygon fill="#63b8ff" stroke="#63b8ff" points="354.78,-503.64 365.12,-501.3 355.58,-496.68 354.78,-503.64"/>
</a>
</g>
</g>
<!-- Node33 -->
<g id="Node000033" class="node">
<title>Node33</title>
<g id="a_Node000033"><a xlink:href="../../d6/df6/miniz_8c.html#a8e6757d07832c14a6310ca0524c3f024" target="_top" xlink:title=" ">
<polygon fill="white" stroke="#666666" points="476.62,-571.88 367.62,-571.88 367.62,-541.38 476.62,-541.38 476.62,-571.88"/>
<text text-anchor="start" x="375.62" y="-558.38" font-family="Helvetica,sans-Serif" font-size="10.00">mz_zip_writer_create</text>
<text text-anchor="middle" x="422.12" y="-547.12" font-family="Helvetica,sans-Serif" font-size="10.00">_zip64_extra_data</text>
</a>
</g>
</g>
<!-- Node26&#45;&gt;Node33 -->
<g id="edge29_Node000026_Node000033" class="edge">
<title>Node26&#45;&gt;Node33</title>
<g id="a_edge29_Node000026_Node000033"><a xlink:title=" ">
<path fill="none" stroke="#63b8ff" d="M273.88,-501.22C285.08,-505.39 297.05,-510.02 308,-514.62 324.31,-521.48 327.55,-525.11 344,-531.62 349.02,-533.62 354.27,-535.57 359.57,-537.46"/>
<polygon fill="#63b8ff" stroke="#63b8ff" points="358.18,-541.03 368.77,-540.99 360.47,-534.41 358.18,-541.03"/>
</a>
</g>
</g>
<!-- Node27&#45;&gt;Node8 -->
<g id="edge26_Node000027_Node000008" class="edge">
<title>Node27&#45;&gt;Node8</title>
<g id="a_edge26_Node000027_Node000008"><a xlink:title=" ">
<path fill="none" stroke="#63b8ff" d="M474.52,-492.04C483.45,-488.3 492.38,-483.85 500.25,-478.62 519.63,-465.76 516.46,-452.86 536.25,-440.62 539.05,-438.89 542.03,-437.31 545.09,-435.86"/>
<polygon fill="#63b8ff" stroke="#63b8ff" points="546.23,-438.76 554.12,-431.69 543.54,-432.3 546.23,-438.76"/>
</a>
</g>
</g>
<!-- Node28 -->
<g id="Node000028" class="node">
<title>Node28</title>
<g id="a_Node000028"><a xlink:href="../../d6/df6/miniz_8c.html#a8531c0429033508c4a622d4e6427bbe4" target="_top" xlink:title=" ">
<polygon fill="white" stroke="#666666" points="663.25,-517.25 536.25,-517.25 536.25,-498 663.25,-498 663.25,-517.25"/>
<text text-anchor="middle" x="599.75" y="-503.75" font-family="Helvetica,sans-Serif" font-size="10.00">mz_zip_array_push_back</text>
</a>
</g>
</g>
<!-- Node27&#45;&gt;Node28 -->
<g id="edge22_Node000027_Node000028" class="edge">
<title>Node27&#45;&gt;Node28</title>
<g id="a_edge22_Node000027_Node000028"><a xlink:title=" ">
<path fill="none" stroke="#63b8ff" d="M478.21,-507.62C493.09,-507.62 509.43,-507.62 525.14,-507.62"/>
<polygon fill="#63b8ff" stroke="#63b8ff" points="524.89,-511.13 534.89,-507.62 524.89,-504.13 524.89,-511.13"/>
</a>
</g>
</g>
<!-- Node29 -->
<g id="Node000029" class="node">
<title>Node29</title>
<g id="a_Node000029"><a xlink:href="../../d6/df6/miniz_8c.html#aef74dba7366dcc1de36eca8682480ddb" target="_top" xlink:title=" ">
<polygon fill="white" stroke="#666666" points="805.25,-534.25 699.25,-534.25 699.25,-515 805.25,-515 805.25,-534.25"/>
<text text-anchor="middle" x="752.25" y="-520.75" font-family="Helvetica,sans-Serif" font-size="10.00">mz_zip_array_resize</text>
</a>
</g>
</g>
<!-- Node27&#45;&gt;Node29 -->
<g id="edge25_Node000027_Node000029" class="edge">
<title>Node27&#45;&gt;Node29</title>
<g id="a_edge25_Node000027_Node000029"><a xlink:title=" ">
<path fill="none" stroke="#63b8ff" d="M478.13,-518.75C496.53,-521.97 517.2,-525.04 536.25,-526.62 592.5,-531.32 606.81,-527.27 663.25,-526.62 671.32,-526.53 679.82,-526.39 688.21,-526.23"/>
<polygon fill="#63b8ff" stroke="#63b8ff" points="688.21,-529.71 698.14,-526.01 688.07,-522.71 688.21,-529.71"/>
</a>
</g>
</g>
<!-- Node31 -->
<g id="Node000031" class="node">
<title>Node31</title>
<g id="a_Node000031"><a xlink:href="../../d6/df6/miniz_8c.html#a7b85d16940dcbcb59615be2442e54f66" target="_top" xlink:title=" ">
<polygon fill="white" stroke="#666666" points="654.25,-479.88 545.25,-479.88 545.25,-449.38 654.25,-449.38 654.25,-479.88"/>
<text text-anchor="start" x="553.25" y="-466.38" font-family="Helvetica,sans-Serif" font-size="10.00">mz_zip_writer_create</text>
<text text-anchor="middle" x="599.75" y="-455.12" font-family="Helvetica,sans-Serif" font-size="10.00">_central_dir_header</text>
</a>
</g>
</g>
<!-- Node27&#45;&gt;Node31 -->
<g id="edge27_Node000027_Node000031" class="edge">
<title>Node27&#45;&gt;Node31</title>
<g id="a_edge27_Node000027_Node000031"><a xlink:title=" ">
<path fill="none" stroke="#63b8ff" d="M478.21,-494.14C495.96,-489.79 515.78,-484.94 534.14,-480.44"/>
<polygon fill="#63b8ff" stroke="#63b8ff" points="534.88,-483.62 543.76,-477.84 533.22,-476.82 534.88,-483.62"/>
</a>
</g>
</g>
<!-- Node28&#45;&gt;Node29 -->
<g id="edge23_Node000028_Node000029" class="edge">
<title>Node28&#45;&gt;Node29</title>
<g id="a_edge23_Node000028_Node000029"><a xlink:title=" ">
<path fill="none" stroke="#63b8ff" d="M663.7,-514.74C671.79,-515.65 680.07,-516.58 688.16,-517.5"/>
<polygon fill="#63b8ff" stroke="#63b8ff" points="687.7,-521.08 698.03,-518.73 688.48,-514.13 687.7,-521.08"/>
</a>
</g>
</g>
<!-- Node30 -->
<g id="Node000030" class="node">
<title>Node30</title>
<g id="a_Node000030"><a xlink:href="../../d6/df6/miniz_8c.html#aea3e54d9a8a3dd68909748bbf331fdec" target="_top" xlink:title=" ">
<polygon fill="white" stroke="#666666" points="954.38,-539.88 845.38,-539.88 845.38,-509.38 954.38,-509.38 954.38,-539.88"/>
<text text-anchor="start" x="853.38" y="-526.38" font-family="Helvetica,sans-Serif" font-size="10.00">mz_zip_array_ensure</text>
<text text-anchor="middle" x="899.88" y="-515.12" font-family="Helvetica,sans-Serif" font-size="10.00">_capacity</text>
</a>
</g>
</g>
<!-- Node29&#45;&gt;Node30 -->
<g id="edge24_Node000029_Node000030" class="edge">
<title>Node29&#45;&gt;Node30</title>
<g id="a_edge24_Node000029_Node000030"><a xlink:title=" ">
<path fill="none" stroke="#63b8ff" d="M805.41,-524.62C814.78,-524.62 824.65,-524.62 834.32,-524.62"/>
<polygon fill="#63b8ff" stroke="#63b8ff" points="834.11,-528.13 844.11,-524.62 834.11,-521.13 834.11,-528.13"/>
</a>
</g>
</g>
<!-- Node32 -->
<g id="Node000032" class="node">
<title>Node32</title>
<g id="a_Node000032"><a xlink:href="../../d6/d95/glu-libtess_8h.html#a4292190e3f1f6b373a760c7d9316ad3c" target="_top" xlink:title=" ">
<polygon fill="white" stroke="#666666" points="769.25,-431.25 735.25,-431.25 735.25,-412 769.25,-412 769.25,-431.25"/>
<text text-anchor="middle" x="752.25" y="-417.75" font-family="Helvetica,sans-Serif" font-size="10.00">void</text>
</a>
</g>
</g>
<!-- Node31&#45;&gt;Node32 -->
<g id="edge28_Node000031_Node000032" class="edge">
<title>Node31&#45;&gt;Node32</title>
<g id="a_edge28_Node000031_Node000032"><a xlink:title=" ">
<path fill="none" stroke="#63b8ff" d="M654.66,-449.22C678.35,-442.45 705.12,-434.81 724.45,-429.28"/>
<polygon fill="#63b8ff" stroke="#63b8ff" points="725.25,-432.41 733.9,-426.3 723.33,-425.68 725.25,-432.41"/>
</a>
</g>
</g>
<!-- Node34&#45;&gt;Node8 -->
<g id="edge31_Node000034_Node000008" class="edge">
<title>Node34&#45;&gt;Node8</title>
<g id="a_edge31_Node000034_Node000008"><a xlink:title=" ">
<path fill="none" stroke="#63b8ff" d="M296.27,-254.64C300.5,-252.44 304.47,-249.79 308,-246.62 344.39,-213.94 304.16,-171 344,-142.62 400.57,-102.34 443.56,-102.52 500.25,-142.62 505.84,-146.58 570.45,-337.51 591.89,-401.19"/>
<polygon fill="#63b8ff" stroke="#63b8ff" points="588.86,-402.17 595.36,-410.53 595.49,-399.94 588.86,-402.17"/>
</a>
</g>
</g>
<!-- Node35 -->
<g id="Node000035" class="node">
<title>Node35</title>
<g id="a_Node000035"><a xlink:href="../../d6/df6/miniz_8c.html#a81014d6382ef61c51ea369d3ba09d420" target="_top" xlink:title=" ">
<polygon fill="white" stroke="#666666" points="491.25,-19.25 353,-19.25 353,0 491.25,0 491.25,-19.25"/>
<text text-anchor="middle" x="422.12" y="-5.75" font-family="Helvetica,sans-Serif" font-size="10.00">mz_zip_time_t_to_dos_time</text>
</a>
</g>
</g>
<!-- Node34&#45;&gt;Node35 -->
<g id="edge32_Node000034_Node000035" class="edge">
<title>Node34&#45;&gt;Node35</title>
<g id="a_edge32_Node000034_Node000035"><a xlink:title=" ">
<path fill="none" stroke="#63b8ff" d="M297.97,-254.64C301.64,-252.42 305.04,-249.77 308,-246.62 373.87,-176.77 280.82,-105.91 344,-33.62 346.88,-30.33 350.2,-27.49 353.81,-25.03"/>
<polygon fill="#63b8ff" stroke="#63b8ff" points="355.31,-27.64 362.3,-19.68 351.87,-21.54 355.31,-27.64"/>
</a>
</g>
</g>
<!-- Node36 -->
<g id="Node000036" class="node">
<title>Node36</title>
<g id="a_Node000036"><a xlink:href="../../d6/df6/miniz_8c.html#a97588a80c7490308f27a91cb40a355a8" target="_top" xlink:title=" ">
<polygon fill="white" stroke="#666666" points="480.38,-387.88 363.88,-387.88 363.88,-357.38 480.38,-357.38 480.38,-387.88"/>
<text text-anchor="start" x="371.88" y="-374.38" font-family="Helvetica,sans-Serif" font-size="10.00">mz_zip_writer_add_put</text>
<text text-anchor="middle" x="422.12" y="-363.12" font-family="Helvetica,sans-Serif" font-size="10.00">_buf_callback</text>
</a>
</g>
</g>
<!-- Node34&#45;&gt;Node36 -->
<g id="edge33_Node000034_Node000036" class="edge">
<title>Node34&#45;&gt;Node36</title>
<g id="a_edge33_Node000034_Node000036"><a xlink:title=" ">
<path fill="none" stroke="#63b8ff" d="M240.6,-274.56C259.99,-291.86 302.47,-327.64 344,-348.62 347.07,-350.17 350.25,-351.65 353.51,-353.04"/>
<polygon fill="#63b8ff" stroke="#63b8ff" points="351.84,-356.55 362.42,-357 354.44,-350.04 351.84,-356.55"/>
</a>
</g>
</g>
<!-- Node37 -->
<g id="Node000037" class="node">
<title>Node37</title>
<g id="a_Node000037"><a xlink:href="../../d6/df6/miniz_8c.html#a922d2fef6d4d160a9053cebf4c486a0b" target="_top" xlink:title=" ">
<polygon fill="white" stroke="#666666" points="485.25,-339.5 359,-339.5 359,-297.75 485.25,-297.75 485.25,-339.5"/>
<text text-anchor="start" x="367" y="-326" font-family="Helvetica,sans-Serif" font-size="10.00">mz_zip_writer_compute</text>
<text text-anchor="start" x="367" y="-314.75" font-family="Helvetica,sans-Serif" font-size="10.00">_padding_needed_for_file</text>
<text text-anchor="middle" x="422.12" y="-303.5" font-family="Helvetica,sans-Serif" font-size="10.00">_alignment</text>
</a>
</g>
</g>
<!-- Node34&#45;&gt;Node37 -->
<g id="edge34_Node000034_Node000037" class="edge">
<title>Node34&#45;&gt;Node37</title>
<g id="a_edge34_Node000034_Node000037"><a xlink:title=" ">
<path fill="none" stroke="#63b8ff" d="M265.3,-274.66C288.6,-281.23 319.89,-290.06 348.32,-298.08"/>
<polygon fill="#63b8ff" stroke="#63b8ff" points="347.08,-301.65 357.65,-301 348.98,-294.91 347.08,-301.65"/>
</a>
</g>
</g>
<!-- Node38 -->
<g id="Node000038" class="node">
<title>Node38</title>
<g id="a_Node000038"><a xlink:href="../../d6/df6/miniz_8c.html#ae1b9b894b1fe6286919b091c89337633" target="_top" xlink:title=" ">
<polygon fill="white" stroke="#666666" points="654.25,-228.88 545.25,-228.88 545.25,-198.38 654.25,-198.38 654.25,-228.88"/>
<text text-anchor="start" x="553.25" y="-215.38" font-family="Helvetica,sans-Serif" font-size="10.00">mz_zip_writer_create</text>
<text text-anchor="middle" x="599.75" y="-204.12" font-family="Helvetica,sans-Serif" font-size="10.00">_local_dir_header</text>
</a>
</g>
</g>
<!-- Node34&#45;&gt;Node38 -->
<g id="edge35_Node000034_Node000038" class="edge">
<title>Node34&#45;&gt;Node38</title>
<g id="a_edge35_Node000034_Node000038"><a xlink:title=" ">
<path fill="none" stroke="#63b8ff" d="M297.86,-254.54C301.56,-252.34 304.99,-249.72 308,-246.62 364.85,-188.11 280.91,-118.35 344,-66.62 397.7,-22.6 438.98,-33.93 500.25,-66.62 548.43,-92.34 577.19,-153.22 590.27,-188.03"/>
<polygon fill="#63b8ff" stroke="#63b8ff" points="587.3,-189.11 593.97,-197.34 593.89,-186.75 587.3,-189.11"/>
</a>
</g>
</g>
<!-- Node39 -->
<g id="Node000039" class="node">
<title>Node39</title>
<g id="a_Node000039"><a xlink:href="../../d6/df6/miniz_8c.html#a39712c59ba7e22d3b5dd8d6ae125817c" target="_top" xlink:title=" ">
<polygon fill="white" stroke="#666666" points="486.75,-279.88 357.5,-279.88 357.5,-249.38 486.75,-249.38 486.75,-279.88"/>
<text text-anchor="start" x="365.5" y="-266.38" font-family="Helvetica,sans-Serif" font-size="10.00">mz_zip_writer_preallocate</text>
<text text-anchor="middle" x="422.12" y="-255.12" font-family="Helvetica,sans-Serif" font-size="10.00">_extra_data</text>
</a>
</g>
</g>
<!-- Node34&#45;&gt;Node39 -->
<g id="edge37_Node000034_Node000039" class="edge">
<title>Node34&#45;&gt;Node39</title>
<g id="a_edge37_Node000034_Node000039"><a xlink:title=" ">
<path fill="none" stroke="#63b8ff" d="M308.42,-264.62C320.94,-264.62 333.86,-264.62 346.28,-264.62"/>
<polygon fill="#63b8ff" stroke="#63b8ff" points="346.06,-268.13 356.06,-264.62 346.06,-261.13 346.06,-268.13"/>
</a>
</g>
</g>
<!-- Node40 -->
<g id="Node000040" class="node">
<title>Node40</title>
<g id="a_Node000040"><a xlink:href="../../d6/df6/miniz_8c.html#a97d5bb6b72d210e1a566e43b10080220" target="_top" xlink:title=" ">
<polygon fill="white" stroke="#666666" points="480,-230.88 364.25,-230.88 364.25,-200.38 480,-200.38 480,-230.88"/>
<text text-anchor="start" x="372.25" y="-217.38" font-family="Helvetica,sans-Serif" font-size="10.00">mz_zip_writer_validate</text>
<text text-anchor="middle" x="422.12" y="-206.12" font-family="Helvetica,sans-Serif" font-size="10.00">_archive_name</text>
</a>
</g>
</g>
<!-- Node34&#45;&gt;Node40 -->
<g id="edge38_Node000034_Node000040" class="edge">
<title>Node34&#45;&gt;Node40</title>
<g id="a_edge38_Node000034_Node000040"><a xlink:title=" ">
<path fill="none" stroke="#63b8ff" d="M274.93,-254.57C285.78,-252.06 297.32,-249.32 308,-246.62 323.32,-242.77 339.75,-238.4 355.2,-234.18"/>
<polygon fill="#63b8ff" stroke="#63b8ff" points="356,-237.32 364.72,-231.3 354.15,-230.57 356,-237.32"/>
</a>
</g>
</g>
<!-- Node41 -->
<g id="Node000041" class="node">
<title>Node41</title>
<g id="a_Node000041"><a xlink:href="../../d6/df6/miniz_8c.html#ac2423627c59f318541d6a1218eda198f" target="_top" xlink:title=" ">
<polygon fill="white" stroke="#666666" points="473.62,-436.88 370.62,-436.88 370.62,-406.38 473.62,-406.38 473.62,-436.88"/>
<text text-anchor="start" x="378.62" y="-423.38" font-family="Helvetica,sans-Serif" font-size="10.00">mz_zip_writer_write</text>
<text text-anchor="middle" x="422.12" y="-412.12" font-family="Helvetica,sans-Serif" font-size="10.00">_zeros</text>
</a>
</g>
</g>
<!-- Node34&#45;&gt;Node41 -->
<g id="edge39_Node000034_Node000041" class="edge">
<title>Node34&#45;&gt;Node41</title>
<g id="a_edge39_Node000034_Node000041"><a xlink:title=" ">
<path fill="none" stroke="#63b8ff" d="M235.6,-274.52C250.51,-298.92 292.47,-362.46 344,-396.62 349.11,-400.01 354.72,-402.97 360.5,-405.55"/>
<polygon fill="#63b8ff" stroke="#63b8ff" points="358.76,-409.03 369.34,-409.54 361.39,-402.54 358.76,-409.03"/>
</a>
</g>
</g>
<!-- Node42 -->
<g id="Node000042" class="node">
<title>Node42</title>
<g id="a_Node000042"><a xlink:href="../../d6/df6/miniz_8c.html#acf2306ec6b7f92753264f68bc554750b" target="_top" xlink:title=" ">
<polygon fill="white" stroke="#666666" points="483.38,-181.88 360.88,-181.88 360.88,-151.38 483.38,-151.38 483.38,-181.88"/>
<text text-anchor="start" x="368.88" y="-168.38" font-family="Helvetica,sans-Serif" font-size="10.00">tdefl_create_comp_flags</text>
<text text-anchor="middle" x="422.12" y="-157.12" font-family="Helvetica,sans-Serif" font-size="10.00">_from_zip_params</text>
</a>
</g>
</g>
<!-- Node34&#45;&gt;Node42 -->
<g id="edge41_Node000034_Node000042" class="edge">
<title>Node34&#45;&gt;Node42</title>
<g id="a_edge41_Node000034_Node000042"><a xlink:title=" ">
<path fill="none" stroke="#63b8ff" d="M293.1,-254.62C298.37,-252.44 303.43,-249.81 308,-246.62 331.97,-229.92 320.78,-209.36 344,-191.62 346.2,-189.94 348.52,-188.37 350.93,-186.9"/>
<polygon fill="#63b8ff" stroke="#63b8ff" points="352.4,-189.55 359.57,-181.74 349.1,-183.38 352.4,-189.55"/>
</a>
</g>
</g>
<!-- Node43 -->
<g id="Node000043" class="node">
<title>Node43</title>
<g id="a_Node000043"><a xlink:href="../../d6/df6/miniz_8c.html#a3c2c67a6200147020ba4bfbf77962792" target="_top" xlink:title=" ">
<polygon fill="white" stroke="#666666" points="448.5,-95.25 395.75,-95.25 395.75,-76 448.5,-76 448.5,-95.25"/>
<text text-anchor="middle" x="422.12" y="-81.75" font-family="Helvetica,sans-Serif" font-size="10.00">tdefl_init</text>
</a>
</g>
</g>
<!-- Node34&#45;&gt;Node43 -->
<g id="edge42_Node000034_Node000043" class="edge">
<title>Node34&#45;&gt;Node43</title>
<g id="a_edge42_Node000034_Node000043"><a xlink:title=" ">
<path fill="none" stroke="#63b8ff" d="M297.28,-254.53C301.17,-252.34 304.8,-249.73 308,-246.62 353.2,-202.8 300.49,-155.13 344,-109.62 354.66,-98.48 370.39,-92.48 384.87,-89.26"/>
<polygon fill="#63b8ff" stroke="#63b8ff" points="385.39,-92.55 394.6,-87.31 384.13,-85.66 385.39,-92.55"/>
</a>
</g>
</g>
<!-- Node38&#45;&gt;Node32 -->
<g id="edge36_Node000038_Node000032" class="edge">
<title>Node38&#45;&gt;Node32</title>
<g id="a_edge36_Node000038_Node000032"><a xlink:title=" ">
<path fill="none" stroke="#63b8ff" d="M612.06,-229.26C639.22,-266.79 708.02,-361.88 737.5,-402.62"/>
<polygon fill="#63b8ff" stroke="#63b8ff" points="735.25,-404.48 743.94,-410.53 740.92,-400.38 735.25,-404.48"/>
</a>
</g>
</g>
<!-- Node41&#45;&gt;Node8 -->
<g id="edge40_Node000041_Node000008" class="edge">
<title>Node41&#45;&gt;Node8</title>
<g id="a_edge40_Node000041_Node000008"><a xlink:title=" ">
<path fill="none" stroke="#63b8ff" d="M473.92,-421.62C495.59,-421.62 520.93,-421.62 543.11,-421.62"/>
<polygon fill="#63b8ff" stroke="#63b8ff" points="543.04,-425.13 553.04,-421.62 543.04,-418.13 543.04,-425.13"/>
</a>
</g>
</g>
<!-- Node44&#45;&gt;Node44 -->
<g id="edge44_Node000044_Node000044" class="edge">
<title>Node44&#45;&gt;Node44</title>
<g id="a_edge44_Node000044_Node000044"><a xlink:title=" ">
<path fill="none" stroke="#63b8ff" d="M201.82,-219.54C189.54,-228.15 198.52,-237.25 228.75,-237.25 247.17,-237.25 257.7,-233.87 260.34,-229.28"/>
<polygon fill="#63b8ff" stroke="#63b8ff" points="263.15,-228.05 255.68,-220.54 256.84,-231.07 263.15,-228.05"/>
</a>
</g>
</g>
<!-- Node45&#45;&gt;Node2 -->
<g id="edge46_Node000045_Node000002" class="edge">
<title>Node45&#45;&gt;Node2</title>
<g id="a_edge46_Node000045_Node000002"><a xlink:title=" ">
<path fill="none" stroke="#63b8ff" d="M272.22,-725.5C299.29,-729.89 334.69,-735.62 364.18,-740.4"/>
<polygon fill="#63b8ff" stroke="#63b8ff" points="363.32,-743.97 373.75,-742.11 364.44,-737.06 363.32,-743.97"/>
</a>
</g>
</g>
<!-- Node45&#45;&gt;Node45 -->
<g id="edge47_Node000045_Node000045" class="edge">
<title>Node45&#45;&gt;Node45</title>
<g id="a_edge47_Node000045_Node000045"><a xlink:title=" ">
<path fill="none" stroke="#63b8ff" d="M198.27,-734.36C192.05,-743.43 202.21,-751.88 228.75,-751.88 243.68,-751.88 253.42,-749.2 257.99,-745.25"/>
<polygon fill="#63b8ff" stroke="#63b8ff" points="261.57,-745.69 259.23,-735.36 254.62,-744.9 261.57,-745.69"/>
</a>
</g>
</g>
</g>
</svg>

<g id="navigator" transform="translate(0 0)" fill="#404254">
  <rect fill="#f2f5e9" fill-opacity="0.5" stroke="#606060" stroke-width=".5" x="0" y="0" width="60" height="60"/>
  <use id="zoomplus" xlink:href="#zoomPlus" x="17" y="9" onmousedown="handleZoom(evt,'in')"/>
  <use id="zoomminus" xlink:href="#zoomMin" x="42" y="9" onmousedown="handleZoom(evt,'out')"/>
  <use id="reset" xlink:href="#resetDef" x="30" y="36" onmousedown="handleReset()"/>
   <use id="arrowup" xlink:href="#arrowUp" x="0" y="0" onmousedown="handlePan(0,-1)"/>
  <use id="arrowright" xlink:href="#arrowRight" x="0" y="0" onmousedown="handlePan(1,0)"/>
  <use id="arrowdown" xlink:href="#arrowDown" x="0" y="0" onmousedown="handlePan(0,1)"/>
  <use id="arrowleft" xlink:href="#arrowLeft" x="0" y="0" onmousedown="handlePan(-1,0)"/>
</g>
<svg viewBox="0 0 15 15" width="100%" height="30px" preserveAspectRatio="xMaxYMin meet">
 <g id="arrow_out" transform="scale(0.3 0.3)">
  <a xlink:href="class_slic3r_1_1__3_m_f___exporter_a7c7910386af606f878fb7f55e7915df7_cgraph_org.svg" target="_base">
   <rect id="button" ry="5" rx="5" y="6" x="6" height="38" width="38"
        fill="#f2f5e9" fill-opacity="0.5" stroke="#606060" stroke-width="1.0"/>
   <path id="arrow"
     d="M 11.500037,31.436501 C 11.940474,20.09759 22.043105,11.32322 32.158766,21.979434 L 37.068811,17.246167 C 37.068811,17.246167 37.088388,32 37.088388,32 L 22.160133,31.978069 C 22.160133,31.978069 26.997745,27.140456 26.997745,27.140456 C 18.528582,18.264221 13.291696,25.230495 11.500037,31.436501 z"
     style="fill:#404040;"/>
  </a>
 </g>
</svg>

<style type='text/css'>
<![CDATA[
[data-mouse-over-selected='false'] { opacity: 0.7; }
[data-mouse-over-selected='true']  { opacity: 1.0; }
]]>
</style>
<script type="application/ecmascript"><![CDATA[
document.addEventListener('DOMContentLoaded', (event) => {
  highlightEdges();
  highlightAdjacentNodes();
});
]]></script>
</svg>
