<?xml version="1.0" encoding="UTF-8" standalone="no"?>
<!DOCTYPE svg PUBLIC "-//W3C//DTD SVG 1.1//EN"
 "http://www.w3.org/Graphics/SVG/1.1/DTD/svg11.dtd">
<!-- Generated by graphviz version 8.0.5 (20230430.1635)
 -->
<!-- Title: src/slic3r/GUI/Mouse3DController.hpp Pages: 1 -->
<svg width="936pt" height="94pt"
 viewBox="0.00 0.00 936.38 93.75" xmlns="http://www.w3.org/2000/svg" xmlns:xlink="http://www.w3.org/1999/xlink">
<g id="graph0" class="graph" transform="scale(1 1) rotate(0) translate(4 89.75)">
<title>src/slic3r/GUI/Mouse3DController.hpp</title>
<!-- Node1 -->
<g id="Node000001" class="node">
<title>Node1</title>
<g id="a_Node000001"><a xlink:title=" ">
<polygon fill="#999999" stroke="#666666" points="521.62,-85.75 339.88,-85.75 339.88,-66.5 521.62,-66.5 521.62,-85.75"/>
<text text-anchor="middle" x="430.75" y="-72.25" font-family="Helvetica,sans-Serif" font-size="10.00">src/slic3r/GUI/Mouse3DController.hpp</text>
</a>
</g>
</g>
<!-- Node2 -->
<g id="Node000002" class="node">
<title>Node2</title>
<g id="a_Node000002"><a xlink:href="../../d4/d15/_g_l_canvas3_d_8cpp.html" target="_top" xlink:title=" ">
<polygon fill="white" stroke="#666666" points="131.5,-30.5 0,-30.5 0,0 131.5,0 131.5,-30.5"/>
<text text-anchor="start" x="8" y="-17" font-family="Helvetica,sans-Serif" font-size="10.00">src/slic3r/GUI/GLCanvas3</text>
<text text-anchor="middle" x="65.75" y="-5.75" font-family="Helvetica,sans-Serif" font-size="10.00">D.cpp</text>
</a>
</g>
</g>
<!-- Node1&#45;&gt;Node2 -->
<g id="edge1_Node000001_Node000002" class="edge">
<title>Node1&#45;&gt;Node2</title>
<g id="a_edge1_Node000001_Node000002"><a xlink:title=" ">
<path fill="none" stroke="#63b8ff" d="M356.63,-64.45C297.97,-55.83 214.01,-43.09 140.75,-30.5 137.88,-30.01 134.94,-29.49 131.98,-28.96"/>
<polygon fill="#63b8ff" stroke="#63b8ff" points="355.88,-68.03 366.29,-66.01 356.9,-61.1 355.88,-68.03"/>
</a>
</g>
</g>
<!-- Node3 -->
<g id="Node000003" class="node">
<title>Node3</title>
<g id="a_Node000003"><a xlink:href="../../d4/def/_g_u_i___app_8cpp.html" target="_top" xlink:title=" ">
<polygon fill="white" stroke="#666666" points="247.62,-30.5 149.88,-30.5 149.88,0 247.62,0 247.62,-30.5"/>
<text text-anchor="start" x="157.88" y="-17" font-family="Helvetica,sans-Serif" font-size="10.00">src/slic3r/GUI/GUI</text>
<text text-anchor="middle" x="198.75" y="-5.75" font-family="Helvetica,sans-Serif" font-size="10.00">_App.cpp</text>
</a>
</g>
</g>
<!-- Node1&#45;&gt;Node3 -->
<g id="edge2_Node000001_Node000003" class="edge">
<title>Node1&#45;&gt;Node3</title>
<g id="a_edge2_Node000001_Node000003"><a xlink:title=" ">
<path fill="none" stroke="#63b8ff" d="M384.59,-63.41C345.06,-53.38 288.27,-38.97 247.89,-28.72"/>
<polygon fill="#63b8ff" stroke="#63b8ff" points="383.45,-66.99 394.01,-66.05 385.18,-60.2 383.45,-66.99"/>
</a>
</g>
</g>
<!-- Node4 -->
<g id="Node000004" class="node">
<title>Node4</title>
<g id="a_Node000004"><a xlink:href="../../d2/d47/_main_frame_8cpp.html" target="_top" xlink:title=" ">
<polygon fill="white" stroke="#666666" points="413.38,-24.88 266.12,-24.88 266.12,-5.63 413.38,-5.63 413.38,-24.88"/>
<text text-anchor="middle" x="339.75" y="-11.38" font-family="Helvetica,sans-Serif" font-size="10.00">src/slic3r/GUI/MainFrame.cpp</text>
</a>
</g>
</g>
<!-- Node1&#45;&gt;Node4 -->
<g id="edge3_Node000001_Node000004" class="edge">
<title>Node1&#45;&gt;Node4</title>
<g id="a_edge3_Node000001_Node000004"><a xlink:title=" ">
<path fill="none" stroke="#63b8ff" d="M408.13,-60.49C391.06,-49.45 368.18,-34.65 353.7,-25.28"/>
<polygon fill="#63b8ff" stroke="#63b8ff" points="405.63,-63.69 415.93,-66.18 409.43,-57.81 405.63,-63.69"/>
</a>
</g>
</g>
<!-- Node5 -->
<g id="Node000005" class="node">
<title>Node5</title>
<g id="a_Node000005"><a xlink:href="../../d0/dc2/_mouse3_d_controller_8cpp.html" target="_top" xlink:title=" ">
<polygon fill="white" stroke="#666666" points="613.62,-24.88 431.88,-24.88 431.88,-5.63 613.62,-5.63 613.62,-24.88"/>
<text text-anchor="middle" x="522.75" y="-11.38" font-family="Helvetica,sans-Serif" font-size="10.00">src/slic3r/GUI/Mouse3DController.cpp</text>
</a>
</g>
</g>
<!-- Node1&#45;&gt;Node5 -->
<g id="edge4_Node000001_Node000005" class="edge">
<title>Node1&#45;&gt;Node5</title>
<g id="a_edge4_Node000001_Node000005"><a xlink:title=" ">
<path fill="none" stroke="#63b8ff" d="M453.62,-60.49C470.87,-49.45 494,-34.65 508.65,-25.28"/>
<polygon fill="#63b8ff" stroke="#63b8ff" points="452.26,-57.84 445.72,-66.18 456.03,-63.74 452.26,-57.84"/>
</a>
</g>
</g>
<!-- Node6 -->
<g id="Node000006" class="node">
<title>Node6</title>
<g id="a_Node000006"><a xlink:href="../../d9/d18/_mouse3_d_handler_mac_8mm.html" target="_top" xlink:title=" ">
<polygon fill="white" stroke="#666666" points="787.5,-30.5 632,-30.5 632,0 787.5,0 787.5,-30.5"/>
<text text-anchor="start" x="640" y="-17" font-family="Helvetica,sans-Serif" font-size="10.00">src/slic3r/GUI/Mouse3DHandler</text>
<text text-anchor="middle" x="709.75" y="-5.75" font-family="Helvetica,sans-Serif" font-size="10.00">Mac.mm</text>
</a>
</g>
</g>
<!-- Node1&#45;&gt;Node6 -->
<g id="edge5_Node000001_Node000006" class="edge">
<title>Node1&#45;&gt;Node6</title>
<g id="a_edge5_Node000001_Node000006"><a xlink:title=" ">
<path fill="none" stroke="#63b8ff" d="M484.29,-63.83C528.6,-54.48 591.87,-41.13 640.11,-30.94"/>
<polygon fill="#63b8ff" stroke="#63b8ff" points="483.79,-60.57 474.73,-66.05 485.24,-67.41 483.79,-60.57"/>
</a>
</g>
</g>
<!-- Node7 -->
<g id="Node000007" class="node">
<title>Node7</title>
<g id="a_Node000007"><a xlink:href="../../df/d9c/_plater_8cpp.html" target="_top" xlink:title=" ">
<polygon fill="white" stroke="#666666" points="928.38,-24.88 805.12,-24.88 805.12,-5.63 928.38,-5.63 928.38,-24.88"/>
<text text-anchor="middle" x="866.75" y="-11.38" font-family="Helvetica,sans-Serif" font-size="10.00">src/slic3r/GUI/Plater.cpp</text>
</a>
</g>
</g>
<!-- Node1&#45;&gt;Node7 -->
<g id="edge6_Node000001_Node000007" class="edge">
<title>Node1&#45;&gt;Node7</title>
<g id="a_edge6_Node000001_Node000007"><a xlink:title=" ">
<path fill="none" stroke="#63b8ff" d="M532.68,-64.89C606.28,-56.97 707.92,-44.93 796.75,-30.5 805.93,-29.01 815.74,-27.17 825.02,-25.31"/>
<polygon fill="#63b8ff" stroke="#63b8ff" points="532.6,-61.49 523.03,-66.03 533.35,-68.45 532.6,-61.49"/>
</a>
</g>
</g>
</g>
</svg>
