<?xml version="1.0" encoding="UTF-8" standalone="no"?>
<!DOCTYPE svg PUBLIC "-//W3C//DTD SVG 1.1//EN"
 "http://www.w3.org/Graphics/SVG/1.1/DTD/svg11.dtd">
<!-- Generated by graphviz version 8.0.5 (20230430.1635)
 -->
<!-- Title: src/libigl/igl/opengl2/unproject.h Pages: 1 -->
<svg width="503pt" height="315pt"
 viewBox="0.00 0.00 503.42 314.75" xmlns="http://www.w3.org/2000/svg" xmlns:xlink="http://www.w3.org/1999/xlink">
<g id="graph0" class="graph" transform="scale(1 1) rotate(0) translate(4 310.75)">
<title>src/libigl/igl/opengl2/unproject.h</title>
<!-- Node1 -->
<g id="Node000001" class="node">
<title>Node1</title>
<g id="a_Node000001"><a xlink:title=" ">
<polygon fill="#999999" stroke="#666666" points="252.88,-306.75 151.38,-306.75 151.38,-276.25 252.88,-276.25 252.88,-306.75"/>
<text text-anchor="start" x="159.38" y="-293.25" font-family="Helvetica,sans-Serif" font-size="10.00">src/libigl/igl/opengl2</text>
<text text-anchor="middle" x="202.12" y="-282" font-family="Helvetica,sans-Serif" font-size="10.00">/unproject.h</text>
</a>
</g>
</g>
<!-- Node2 -->
<g id="Node000002" class="node">
<title>Node2</title>
<g id="a_Node000002"><a xlink:href="../../d6/d68/igl__inline_8h.html" target="_top" xlink:title=" ">
<polygon fill="white" stroke="#666666" points="483.5,-129.75 412.75,-129.75 412.75,-110.5 483.5,-110.5 483.5,-129.75"/>
<text text-anchor="middle" x="448.12" y="-116.25" font-family="Helvetica,sans-Serif" font-size="10.00">../igl_inline.h</text>
</a>
</g>
</g>
<!-- Node1&#45;&gt;Node2 -->
<g id="edge1_Node000001_Node000002" class="edge">
<title>Node1&#45;&gt;Node2</title>
<g id="a_edge1_Node000001_Node000002"><a xlink:title=" ">
<path fill="none" stroke="#63b8ff" d="M240.23,-275.85C282.19,-258.48 350.18,-226.56 399.12,-185 414.73,-171.75 428.51,-152.76 437.46,-138.93"/>
<polygon fill="#63b8ff" stroke="#63b8ff" points="440.75,-141.26 443.07,-130.92 434.81,-137.56 440.75,-141.26"/>
</a>
</g>
</g>
<!-- Node3 -->
<g id="Node000003" class="node">
<title>Node3</title>
<g id="a_Node000003"><a xlink:title=" ">
<polygon fill="#e0e0e0" stroke="#999999" points="253.5,-129.75 188.75,-129.75 188.75,-110.5 253.5,-110.5 253.5,-129.75"/>
<text text-anchor="middle" x="221.12" y="-116.25" font-family="Helvetica,sans-Serif" font-size="10.00">Eigen/Core</text>
</a>
</g>
</g>
<!-- Node1&#45;&gt;Node3 -->
<g id="edge2_Node000001_Node000003" class="edge">
<title>Node1&#45;&gt;Node3</title>
<g id="a_edge2_Node000001_Node000003"><a xlink:title=" ">
<path fill="none" stroke="#63b8ff" d="M207.06,-276.18C210.26,-266.23 214.17,-252.59 216.12,-240.25 221.6,-205.6 222.02,-164.63 221.68,-140.88"/>
<polygon fill="#63b8ff" stroke="#63b8ff" points="225.16,-141.08 221.45,-131.16 218.16,-141.23 225.16,-141.08"/>
</a>
</g>
</g>
<!-- Node4 -->
<g id="Node000004" class="node">
<title>Node4</title>
<g id="a_Node000004"><a xlink:href="../../d1/dbb/opengl2_2unproject_8cpp.html" target="_top" xlink:title=" ">
<polygon fill="white" stroke="#666666" points="207.38,-240.25 132.88,-240.25 132.88,-221 207.38,-221 207.38,-240.25"/>
<text text-anchor="middle" x="170.12" y="-226.75" font-family="Helvetica,sans-Serif" font-size="10.00">unproject.cpp</text>
</a>
</g>
</g>
<!-- Node1&#45;&gt;Node4 -->
<g id="edge3_Node000001_Node000004" class="edge">
<title>Node1&#45;&gt;Node4</title>
<g id="a_edge3_Node000001_Node000004"><a xlink:title=" ">
<path fill="none" stroke="#63b8ff" d="M188.3,-275.95C183.25,-268.36 178,-258.99 174.18,-250.82"/>
<polygon fill="#63b8ff" stroke="#63b8ff" points="177.06,-249.62 170.02,-241.7 170.59,-252.28 177.06,-249.62"/>
</a>
</g>
</g>
<!-- Node4&#45;&gt;Node1 -->
<g id="edge4_Node000004_Node000001" class="edge">
<title>Node4&#45;&gt;Node1</title>
<g id="a_edge4_Node000004_Node000001"><a xlink:title=" ">
<path fill="none" stroke="#63b8ff" d="M180.1,-240.7C185.21,-247.53 191.02,-257.22 195.59,-266.24"/>
<polygon fill="#63b8ff" stroke="#63b8ff" points="192.73,-267.37 200.13,-274.95 199.07,-264.41 192.73,-267.37"/>
</a>
</g>
</g>
<!-- Node5 -->
<g id="Node000005" class="node">
<title>Node5</title>
<g id="a_Node000005"><a xlink:href="../../d0/d57/model__proj__viewport_8h.html" target="_top" xlink:title=" ">
<polygon fill="white" stroke="#666666" points="389.88,-185 276.38,-185 276.38,-165.75 389.88,-165.75 389.88,-185"/>
<text text-anchor="middle" x="333.12" y="-171.5" font-family="Helvetica,sans-Serif" font-size="10.00">model_proj_viewport.h</text>
</a>
</g>
</g>
<!-- Node4&#45;&gt;Node5 -->
<g id="edge5_Node000004_Node000005" class="edge">
<title>Node4&#45;&gt;Node5</title>
<g id="a_edge5_Node000004_Node000005"><a xlink:title=" ">
<path fill="none" stroke="#63b8ff" d="M197.78,-220.59C224.47,-211.87 265.12,-198.59 294.9,-188.86"/>
<polygon fill="#63b8ff" stroke="#63b8ff" points="295.92,-191.88 304.34,-185.45 293.75,-185.23 295.92,-191.88"/>
</a>
</g>
</g>
<!-- Node7 -->
<g id="Node000007" class="node">
<title>Node7</title>
<g id="a_Node000007"><a xlink:href="../../dc/d86/opengl2_2gl_8h.html" target="_top" xlink:title=" ">
<polygon fill="white" stroke="#666666" points="438,-74.5 406.25,-74.5 406.25,-55.25 438,-55.25 438,-74.5"/>
<text text-anchor="middle" x="422.12" y="-61" font-family="Helvetica,sans-Serif" font-size="10.00">gl.h</text>
</a>
</g>
</g>
<!-- Node4&#45;&gt;Node7 -->
<g id="edge20_Node000004_Node000007" class="edge">
<title>Node4&#45;&gt;Node7</title>
<g id="a_edge20_Node000004_Node000007"><a xlink:title=" ">
<path fill="none" stroke="#63b8ff" d="M207.69,-226.29C253.97,-221.3 334.41,-209.68 399.12,-185 444.05,-167.87 468.35,-171.54 492.12,-129.75 505.37,-106.48 473.48,-86.98 448.49,-75.86"/>
<polygon fill="#63b8ff" stroke="#63b8ff" points="449.94,-72.25 439.36,-71.63 447.23,-78.71 449.94,-72.25"/>
</a>
</g>
</g>
<!-- Node10 -->
<g id="Node000010" class="node">
<title>Node10</title>
<g id="a_Node000010"><a xlink:href="../../d1/dd0/unproject_8h.html" target="_top" xlink:title=" ">
<polygon fill="white" stroke="#666666" points="206.62,-185 133.62,-185 133.62,-165.75 206.62,-165.75 206.62,-185"/>
<text text-anchor="middle" x="170.12" y="-171.5" font-family="Helvetica,sans-Serif" font-size="10.00">../unproject.h</text>
</a>
</g>
</g>
<!-- Node4&#45;&gt;Node10 -->
<g id="edge13_Node000004_Node000010" class="edge">
<title>Node4&#45;&gt;Node10</title>
<g id="a_edge13_Node000004_Node000010"><a xlink:title=" ">
<path fill="none" stroke="#63b8ff" d="M170.12,-220.83C170.12,-214.17 170.12,-204.74 170.12,-196.28"/>
<polygon fill="#63b8ff" stroke="#63b8ff" points="173.63,-196.36 170.12,-186.36 166.63,-196.36 173.63,-196.36"/>
</a>
</g>
</g>
<!-- Node12 -->
<g id="Node000012" class="node">
<title>Node12</title>
<g id="a_Node000012"><a xlink:title=" ">
<polygon fill="#e0e0e0" stroke="#999999" points="72.25,-74.5 0,-74.5 0,-55.25 72.25,-55.25 72.25,-74.5"/>
<text text-anchor="middle" x="36.12" y="-61" font-family="Helvetica,sans-Serif" font-size="10.00">Eigen/Dense</text>
</a>
</g>
</g>
<!-- Node4&#45;&gt;Node12 -->
<g id="edge21_Node000004_Node000012" class="edge">
<title>Node4&#45;&gt;Node12</title>
<g id="a_edge21_Node000004_Node000012"><a xlink:title=" ">
<path fill="none" stroke="#63b8ff" d="M151.32,-220.52C136.57,-212.67 116.24,-200.22 102.12,-185 73.95,-154.64 53.43,-110.05 43.28,-84.92"/>
<polygon fill="#63b8ff" stroke="#63b8ff" points="46.26,-83.91 39.36,-75.87 39.73,-86.45 46.26,-83.91"/>
</a>
</g>
</g>
<!-- Node13 -->
<g id="Node000013" class="node">
<title>Node13</title>
<g id="a_Node000013"><a xlink:title=" ">
<polygon fill="#e0e0e0" stroke="#999999" points="151.38,-74.5 94.88,-74.5 94.88,-55.25 151.38,-55.25 151.38,-74.5"/>
<text text-anchor="middle" x="123.12" y="-61" font-family="Helvetica,sans-Serif" font-size="10.00">Eigen/LU</text>
</a>
</g>
</g>
<!-- Node4&#45;&gt;Node13 -->
<g id="edge22_Node000004_Node000013" class="edge">
<title>Node4&#45;&gt;Node13</title>
<g id="a_edge22_Node000004_Node000013"><a xlink:title=" ">
<path fill="none" stroke="#63b8ff" d="M158.01,-220.54C138.16,-204.75 99.63,-170.01 87.12,-129.75 84.59,-121.58 84.28,-118.57 87.12,-110.5 90.82,-100.02 98.14,-90.2 105.22,-82.45"/>
<polygon fill="#63b8ff" stroke="#63b8ff" points="107.11,-85.51 111.62,-75.92 102.11,-80.6 107.11,-85.51"/>
</a>
</g>
</g>
<!-- Node5&#45;&gt;Node2 -->
<g id="edge6_Node000005_Node000002" class="edge">
<title>Node5&#45;&gt;Node2</title>
<g id="a_edge6_Node000005_Node000002"><a xlink:title=" ">
<path fill="none" stroke="#63b8ff" d="M352.63,-165.34C370.72,-156.97 397.9,-144.38 418.64,-134.78"/>
<polygon fill="#63b8ff" stroke="#63b8ff" points="419.92,-137.58 427.52,-130.2 416.98,-131.23 419.92,-137.58"/>
</a>
</g>
</g>
<!-- Node5&#45;&gt;Node3 -->
<g id="edge7_Node000005_Node000003" class="edge">
<title>Node5&#45;&gt;Node3</title>
<g id="a_edge7_Node000005_Node000003"><a xlink:title=" ">
<path fill="none" stroke="#63b8ff" d="M314.13,-165.34C296.59,-157 270.29,-144.5 250.12,-134.91"/>
<polygon fill="#63b8ff" stroke="#63b8ff" points="251.75,-131.34 241.22,-130.2 248.75,-137.66 251.75,-131.34"/>
</a>
</g>
</g>
<!-- Node6 -->
<g id="Node000006" class="node">
<title>Node6</title>
<g id="a_Node000006"><a xlink:href="../../d0/d07/model__proj__viewport_8cpp.html" target="_top" xlink:title=" ">
<polygon fill="white" stroke="#666666" points="395.12,-129.75 271.12,-129.75 271.12,-110.5 395.12,-110.5 395.12,-129.75"/>
<text text-anchor="middle" x="333.12" y="-116.25" font-family="Helvetica,sans-Serif" font-size="10.00">model_proj_viewport.cpp</text>
</a>
</g>
</g>
<!-- Node5&#45;&gt;Node6 -->
<g id="edge8_Node000005_Node000006" class="edge">
<title>Node5&#45;&gt;Node6</title>
<g id="a_edge8_Node000005_Node000006"><a xlink:title=" ">
<path fill="none" stroke="#63b8ff" d="M327.96,-165.58C326.52,-158.84 326.06,-149.27 326.59,-140.74"/>
<polygon fill="#63b8ff" stroke="#63b8ff" points="330.15,-141.47 327.92,-131.11 323.2,-140.6 330.15,-141.47"/>
</a>
</g>
</g>
<!-- Node6&#45;&gt;Node5 -->
<g id="edge9_Node000006_Node000005" class="edge">
<title>Node6&#45;&gt;Node5</title>
<g id="a_edge9_Node000006_Node000005"><a xlink:title=" ">
<path fill="none" stroke="#63b8ff" d="M338.33,-130.11C339.74,-136.83 340.18,-146.27 339.67,-154.71"/>
<polygon fill="#63b8ff" stroke="#63b8ff" points="336.07,-154.22 338.29,-164.58 343.02,-155.1 336.07,-154.22"/>
</a>
</g>
</g>
<!-- Node6&#45;&gt;Node7 -->
<g id="edge10_Node000006_Node000007" class="edge">
<title>Node6&#45;&gt;Node7</title>
<g id="a_edge10_Node000006_Node000007"><a xlink:title=" ">
<path fill="none" stroke="#63b8ff" d="M348.22,-110.09C361.78,-101.98 381.91,-89.93 397.75,-80.46"/>
<polygon fill="#63b8ff" stroke="#63b8ff" points="399.17,-83.09 405.95,-74.95 395.57,-77.08 399.17,-83.09"/>
</a>
</g>
</g>
<!-- Node8 -->
<g id="Node000008" class="node">
<title>Node8</title>
<g id="a_Node000008"><a xlink:title=" ">
<polygon fill="#e0e0e0" stroke="#999999" points="415.5,-19.25 356.75,-19.25 356.75,0 415.5,0 415.5,-19.25"/>
<text text-anchor="middle" x="386.12" y="-5.75" font-family="Helvetica,sans-Serif" font-size="10.00">GL/glew.h</text>
</a>
</g>
</g>
<!-- Node7&#45;&gt;Node8 -->
<g id="edge11_Node000007_Node000008" class="edge">
<title>Node7&#45;&gt;Node8</title>
<g id="a_edge11_Node000007_Node000008"><a xlink:title=" ">
<path fill="none" stroke="#63b8ff" d="M416.18,-55.08C411.31,-47.88 404.26,-37.46 398.22,-28.51"/>
<polygon fill="#63b8ff" stroke="#63b8ff" points="400.7,-26.93 392.2,-20.61 394.9,-30.85 400.7,-26.93"/>
</a>
</g>
</g>
<!-- Node9 -->
<g id="Node000009" class="node">
<title>Node9</title>
<g id="a_Node000009"><a xlink:title=" ">
<polygon fill="#e0e0e0" stroke="#999999" points="480.88,-19.25 433.38,-19.25 433.38,0 480.88,0 480.88,-19.25"/>
<text text-anchor="middle" x="457.12" y="-5.75" font-family="Helvetica,sans-Serif" font-size="10.00">GL/gl.h</text>
</a>
</g>
</g>
<!-- Node7&#45;&gt;Node9 -->
<g id="edge12_Node000007_Node000009" class="edge">
<title>Node7&#45;&gt;Node9</title>
<g id="a_edge12_Node000007_Node000009"><a xlink:title=" ">
<path fill="none" stroke="#63b8ff" d="M427.9,-55.08C432.59,-47.96 439.34,-37.68 445.18,-28.8"/>
<polygon fill="#63b8ff" stroke="#63b8ff" points="448.65,-30.89 451.22,-20.61 442.8,-27.04 448.65,-30.89"/>
</a>
</g>
</g>
<!-- Node10&#45;&gt;Node2 -->
<g id="edge14_Node000010_Node000002" class="edge">
<title>Node10&#45;&gt;Node2</title>
<g id="a_edge14_Node000010_Node000002"><a xlink:title=" ">
<path fill="none" stroke="#63b8ff" d="M207.02,-167.4C251.06,-159.06 327.25,-144.59 402.05,-130.15"/>
<polygon fill="#63b8ff" stroke="#63b8ff" points="402.43,-133.44 411.59,-128.11 401.1,-126.57 402.43,-133.44"/>
</a>
</g>
</g>
<!-- Node10&#45;&gt;Node3 -->
<g id="edge15_Node000010_Node000003" class="edge">
<title>Node10&#45;&gt;Node3</title>
<g id="a_edge15_Node000010_Node000003"><a xlink:title=" ">
<path fill="none" stroke="#63b8ff" d="M178.55,-165.58C185.74,-158.07 196.28,-147.06 205.08,-137.88"/>
<polygon fill="#63b8ff" stroke="#63b8ff" points="207.13,-140.75 211.52,-131.11 202.08,-135.91 207.13,-140.75"/>
</a>
</g>
</g>
<!-- Node11 -->
<g id="Node000011" class="node">
<title>Node11</title>
<g id="a_Node000011"><a xlink:href="../../d1/d88/unproject_8cpp.html" target="_top" xlink:title=" ">
<polygon fill="white" stroke="#666666" points="170.38,-129.75 95.88,-129.75 95.88,-110.5 170.38,-110.5 170.38,-129.75"/>
<text text-anchor="middle" x="133.12" y="-116.25" font-family="Helvetica,sans-Serif" font-size="10.00">unproject.cpp</text>
</a>
</g>
</g>
<!-- Node10&#45;&gt;Node11 -->
<g id="edge16_Node000010_Node000011" class="edge">
<title>Node10&#45;&gt;Node11</title>
<g id="a_edge16_Node000010_Node000011"><a xlink:title=" ">
<path fill="none" stroke="#63b8ff" d="M158.85,-165.58C152.44,-158.53 144.97,-148.4 139.49,-139.58"/>
<polygon fill="#63b8ff" stroke="#63b8ff" points="142.11,-138.11 134.16,-131.11 136.01,-141.54 142.11,-138.11"/>
</a>
</g>
</g>
<!-- Node11&#45;&gt;Node10 -->
<g id="edge17_Node000011_Node000010" class="edge">
<title>Node11&#45;&gt;Node10</title>
<g id="a_edge17_Node000011_Node000010"><a xlink:title=" ">
<path fill="none" stroke="#63b8ff" d="M144.57,-130.11C151,-137.21 158.46,-147.36 163.91,-156.15"/>
<polygon fill="#63b8ff" stroke="#63b8ff" points="161.24,-157.56 169.18,-164.58 167.35,-154.15 161.24,-157.56"/>
</a>
</g>
</g>
<!-- Node11&#45;&gt;Node12 -->
<g id="edge18_Node000011_Node000012" class="edge">
<title>Node11&#45;&gt;Node12</title>
<g id="a_edge18_Node000011_Node000012"><a xlink:title=" ">
<path fill="none" stroke="#63b8ff" d="M116.67,-110.09C101.76,-101.91 79.53,-89.71 62.21,-80.19"/>
<polygon fill="#63b8ff" stroke="#63b8ff" points="64.11,-76.7 53.66,-74.95 60.74,-82.83 64.11,-76.7"/>
</a>
</g>
</g>
<!-- Node11&#45;&gt;Node13 -->
<g id="edge19_Node000011_Node000013" class="edge">
<title>Node11&#45;&gt;Node13</title>
<g id="a_edge19_Node000011_Node000013"><a xlink:title=" ">
<path fill="none" stroke="#63b8ff" d="M131.47,-110.33C130.21,-103.59 128.41,-94.02 126.81,-85.49"/>
<polygon fill="#63b8ff" stroke="#63b8ff" points="130.1,-85.04 124.81,-75.86 123.22,-86.33 130.1,-85.04"/>
</a>
</g>
</g>
</g>
</svg>
