<?xml version="1.0" encoding="UTF-8" standalone="no"?>
<!DOCTYPE svg PUBLIC "-//W3C//DTD SVG 1.1//EN"
 "http://www.w3.org/Graphics/SVG/1.1/DTD/svg11.dtd">
<!-- Generated by graphviz version 8.0.5 (20230430.1635)
 -->
<!-- Title: Slic3r::GUI::GLCanvas3D::LayersEditing::set_enabled Pages: 1 -->
<svg width="466pt" height="39pt"
 viewBox="0.00 0.00 465.50 38.50" xmlns="http://www.w3.org/2000/svg" xmlns:xlink="http://www.w3.org/1999/xlink">
<g id="graph0" class="graph" transform="scale(1 1) rotate(0) translate(4 34.5)">
<title>Slic3r::GUI::GLCanvas3D::LayersEditing::set_enabled</title>
<!-- Node1 -->
<g id="Node000001" class="node">
<title>Node1</title>
<g id="a_Node000001"><a xlink:title=" ">
<polygon fill="#999999" stroke="#666666" points="457.5,-30.5 317.75,-30.5 317.75,0 457.5,0 457.5,-30.5"/>
<text text-anchor="start" x="325.75" y="-17" font-family="Helvetica,sans-Serif" font-size="10.00">Slic3r::GUI::GLCanvas3D</text>
<text text-anchor="middle" x="387.62" y="-5.75" font-family="Helvetica,sans-Serif" font-size="10.00">::LayersEditing::set_enabled</text>
</a>
</g>
</g>
<!-- Node2 -->
<g id="Node000002" class="node">
<title>Node2</title>
<g id="a_Node000002"><a xlink:href="../../d0/d2b/class_slic3r_1_1_g_u_i_1_1_g_l_canvas3_d.html#aadf219126614a627b7a1735be5814722" target="_top" xlink:title=" ">
<polygon fill="white" stroke="#666666" points="281.75,-30.5 151.75,-30.5 151.75,0 281.75,0 281.75,-30.5"/>
<text text-anchor="start" x="159.75" y="-17" font-family="Helvetica,sans-Serif" font-size="10.00">Slic3r::GUI::GLCanvas3D</text>
<text text-anchor="middle" x="216.75" y="-5.75" font-family="Helvetica,sans-Serif" font-size="10.00">::enable_layers_editing</text>
</a>
</g>
</g>
<!-- Node1&#45;&gt;Node2 -->
<g id="edge1_Node000001_Node000002" class="edge">
<title>Node1&#45;&gt;Node2</title>
<g id="a_edge1_Node000001_Node000002"><a xlink:title=" ">
<path fill="none" stroke="#63b8ff" d="M306.71,-15.25C298.49,-15.25 290.22,-15.25 282.2,-15.25"/>
<polygon fill="#63b8ff" stroke="#63b8ff" points="306.45,-18.75 316.45,-15.25 306.45,-11.75 306.45,-18.75"/>
</a>
</g>
</g>
<!-- Node3 -->
<g id="Node000003" class="node">
<title>Node3</title>
<g id="a_Node000003"><a xlink:href="../../d7/de9/class_slic3r_1_1_g_u_i_1_1_view3_d.html#a5920bab397ff7d55e2526330d226c2e2" target="_top" xlink:title=" ">
<polygon fill="white" stroke="#666666" points="115.75,-30.5 0,-30.5 0,0 115.75,0 115.75,-30.5"/>
<text text-anchor="start" x="8" y="-17" font-family="Helvetica,sans-Serif" font-size="10.00">Slic3r::GUI::View3D</text>
<text text-anchor="middle" x="57.88" y="-5.75" font-family="Helvetica,sans-Serif" font-size="10.00">::enable_layers_editing</text>
</a>
</g>
</g>
<!-- Node2&#45;&gt;Node3 -->
<g id="edge2_Node000002_Node000003" class="edge">
<title>Node2&#45;&gt;Node3</title>
<g id="a_edge2_Node000002_Node000003"><a xlink:title=" ">
<path fill="none" stroke="#63b8ff" d="M140.73,-15.25C132.49,-15.25 124.21,-15.25 116.24,-15.25"/>
<polygon fill="#63b8ff" stroke="#63b8ff" points="140.49,-18.75 150.49,-15.25 140.49,-11.75 140.49,-18.75"/>
</a>
</g>
</g>
</g>
</svg>
