<?xml version="1.0" encoding="UTF-8" standalone="no"?>
<!DOCTYPE svg PUBLIC "-//W3C//DTD SVG 1.1//EN"
 "http://www.w3.org/Graphics/SVG/1.1/DTD/svg11.dtd">
<!-- Generated by graphviz version 8.0.5 (20230430.1635)
 -->
<!-- Title: Slic3r::PrintObjectBase::cancel_callback Pages: 1 -->
<svg width="775pt" height="152pt"
 viewBox="0.00 0.00 775.00 151.50" xmlns="http://www.w3.org/2000/svg" xmlns:xlink="http://www.w3.org/1999/xlink">
<g id="graph0" class="graph" transform="scale(1 1) rotate(0) translate(4 147.5)">
<title>Slic3r::PrintObjectBase::cancel_callback</title>
<!-- Node1 -->
<g id="Node000001" class="node">
<title>Node1</title>
<g id="a_Node000001"><a xlink:title=" ">
<polygon fill="#999999" stroke="#666666" points="767,-78.5 649,-78.5 649,-48 767,-48 767,-78.5"/>
<text text-anchor="start" x="657" y="-65" font-family="Helvetica,sans-Serif" font-size="10.00">Slic3r::PrintObjectBase</text>
<text text-anchor="middle" x="708" y="-53.75" font-family="Helvetica,sans-Serif" font-size="10.00">::cancel_callback</text>
</a>
</g>
</g>
<!-- Node2 -->
<g id="Node000002" class="node">
<title>Node2</title>
<g id="a_Node000002"><a xlink:href="../../d6/d0d/class_slic3r_1_1_print_object_base_with_state.html#a43ac578aa8830d099536da828fabbc35" target="_top" xlink:title=" ">
<polygon fill="white" stroke="#666666" points="613,-143.5 474.75,-143.5 474.75,-113 613,-113 613,-143.5"/>
<text text-anchor="start" x="482.75" y="-130" font-family="Helvetica,sans-Serif" font-size="10.00">Slic3r::PrintObjectBaseWith</text>
<text text-anchor="middle" x="543.88" y="-118.75" font-family="Helvetica,sans-Serif" font-size="10.00">State::invalidate_all_steps</text>
</a>
</g>
</g>
<!-- Node1&#45;&gt;Node2 -->
<g id="edge1_Node000001_Node000002" class="edge">
<title>Node1&#45;&gt;Node2</title>
<g id="a_edge1_Node000001_Node000002"><a xlink:title=" ">
<path fill="none" stroke="#63b8ff" d="M657.59,-83.06C633.99,-92.52 606.15,-103.68 584.04,-112.55"/>
<polygon fill="#63b8ff" stroke="#63b8ff" points="658.77,-85.95 666.75,-78.98 656.17,-79.46 658.77,-85.95"/>
</a>
</g>
</g>
<!-- Node6 -->
<g id="Node000006" class="node">
<title>Node6</title>
<g id="a_Node000006"><a xlink:href="../../d6/d0d/class_slic3r_1_1_print_object_base_with_state.html#a1b450bd4c6e2183390318d7ee831fa39" target="_top" xlink:title=" ">
<polygon fill="white" stroke="#666666" points="438.75,-94.5 300.5,-94.5 300.5,-64 438.75,-64 438.75,-94.5"/>
<text text-anchor="start" x="308.5" y="-81" font-family="Helvetica,sans-Serif" font-size="10.00">Slic3r::PrintObjectBaseWith</text>
<text text-anchor="middle" x="369.62" y="-69.75" font-family="Helvetica,sans-Serif" font-size="10.00">State::invalidate_step</text>
</a>
</g>
</g>
<!-- Node1&#45;&gt;Node6 -->
<g id="edge5_Node000001_Node000006" class="edge">
<title>Node1&#45;&gt;Node6</title>
<g id="a_edge5_Node000001_Node000006"><a xlink:title=" ">
<path fill="none" stroke="#63b8ff" d="M637.87,-66.54C579.74,-69.3 497.09,-73.23 439.13,-75.99"/>
<polygon fill="#63b8ff" stroke="#63b8ff" points="637.97,-69.99 647.79,-66.02 637.64,-63 637.97,-69.99"/>
</a>
</g>
</g>
<!-- Node7 -->
<g id="Node000007" class="node">
<title>Node7</title>
<g id="a_Node000007"><a xlink:href="../../d6/d0d/class_slic3r_1_1_print_object_base_with_state.html#af234f725bcfdb35fe7c19cb0db5fe8fd" target="_top" xlink:title=" ">
<polygon fill="white" stroke="#666666" points="613,-57.5 474.75,-57.5 474.75,-27 613,-27 613,-57.5"/>
<text text-anchor="start" x="482.75" y="-44" font-family="Helvetica,sans-Serif" font-size="10.00">Slic3r::PrintObjectBaseWith</text>
<text text-anchor="middle" x="543.88" y="-32.75" font-family="Helvetica,sans-Serif" font-size="10.00">State::invalidate_steps</text>
</a>
</g>
</g>
<!-- Node1&#45;&gt;Node7 -->
<g id="edge7_Node000001_Node000007" class="edge">
<title>Node1&#45;&gt;Node7</title>
<g id="a_edge7_Node000001_Node000007"><a xlink:title=" ">
<path fill="none" stroke="#63b8ff" d="M638.22,-54.34C629.98,-53.27 621.56,-52.18 613.32,-51.12"/>
<polygon fill="#63b8ff" stroke="#63b8ff" points="637.56,-57.91 647.93,-55.73 638.46,-50.97 637.56,-57.91"/>
</a>
</g>
</g>
<!-- Node8 -->
<g id="Node000008" class="node">
<title>Node8</title>
<g id="a_Node000008"><a xlink:href="../../d6/d0d/class_slic3r_1_1_print_object_base_with_state.html#a6aabffff1cdae4c8c8a9528871994367" target="_top" xlink:title=" ">
<polygon fill="white" stroke="#666666" points="438.75,-30.5 300.5,-30.5 300.5,0 438.75,0 438.75,-30.5"/>
<text text-anchor="start" x="308.5" y="-17" font-family="Helvetica,sans-Serif" font-size="10.00">Slic3r::PrintObjectBaseWith</text>
<text text-anchor="middle" x="369.62" y="-5.75" font-family="Helvetica,sans-Serif" font-size="10.00">State::invalidate_steps</text>
</a>
</g>
</g>
<!-- Node1&#45;&gt;Node8 -->
<g id="edge8_Node000001_Node000008" class="edge">
<title>Node1&#45;&gt;Node8</title>
<g id="a_edge8_Node000001_Node000008"><a xlink:title=" ">
<path fill="none" stroke="#63b8ff" d="M672.57,-42.32C655.34,-33.02 633.77,-23.1 613,-18.25 555.53,-4.83 488.28,-5.21 439.22,-8.3"/>
<polygon fill="#63b8ff" stroke="#63b8ff" points="670.74,-45.86 681.18,-47.68 674.15,-39.75 670.74,-45.86"/>
</a>
</g>
</g>
<!-- Node3 -->
<g id="Node000003" class="node">
<title>Node3</title>
<g id="a_Node000003"><a xlink:href="../../d1/daf/class_slic3r_1_1_s_l_a_print_object.html#a84754a79c2f00146d136be01bfc32328" target="_top" xlink:title=" ">
<polygon fill="white" stroke="#666666" points="426.75,-143.5 312.5,-143.5 312.5,-113 426.75,-113 426.75,-143.5"/>
<text text-anchor="start" x="320.5" y="-130" font-family="Helvetica,sans-Serif" font-size="10.00">Slic3r::SLAPrintObject</text>
<text text-anchor="middle" x="369.62" y="-118.75" font-family="Helvetica,sans-Serif" font-size="10.00">::invalidate_all_steps</text>
</a>
</g>
</g>
<!-- Node2&#45;&gt;Node3 -->
<g id="edge2_Node000002_Node000003" class="edge">
<title>Node2&#45;&gt;Node3</title>
<g id="a_edge2_Node000002_Node000003"><a xlink:title=" ">
<path fill="none" stroke="#63b8ff" d="M463.55,-128.25C451.24,-128.25 438.74,-128.25 427.07,-128.25"/>
<polygon fill="#63b8ff" stroke="#63b8ff" points="463.3,-131.75 473.3,-128.25 463.3,-124.75 463.3,-131.75"/>
</a>
</g>
</g>
<!-- Node4 -->
<g id="Node000004" class="node">
<title>Node4</title>
<g id="a_Node000004"><a xlink:href="../../d1/daf/class_slic3r_1_1_s_l_a_print_object.html#a06ad71203ebebfcdfb620fd95c03f61d" target="_top" xlink:title=" ">
<polygon fill="white" stroke="#666666" points="264.5,-94.5 150.25,-94.5 150.25,-64 264.5,-64 264.5,-94.5"/>
<text text-anchor="start" x="158.25" y="-81" font-family="Helvetica,sans-Serif" font-size="10.00">Slic3r::SLAPrintObject</text>
<text text-anchor="middle" x="207.38" y="-69.75" font-family="Helvetica,sans-Serif" font-size="10.00">::invalidate_step</text>
</a>
</g>
</g>
<!-- Node3&#45;&gt;Node4 -->
<g id="edge3_Node000003_Node000004" class="edge">
<title>Node3&#45;&gt;Node4</title>
<g id="a_edge3_Node000003_Node000004"><a xlink:title=" ">
<path fill="none" stroke="#63b8ff" d="M307.35,-109.52C291.68,-104.72 274.99,-99.62 259.86,-94.99"/>
<polygon fill="#63b8ff" stroke="#63b8ff" points="305.89,-113.03 316.48,-112.61 307.94,-106.34 305.89,-113.03"/>
</a>
</g>
</g>
<!-- Node5 -->
<g id="Node000005" class="node">
<title>Node5</title>
<g id="a_Node000005"><a xlink:href="../../d1/daf/class_slic3r_1_1_s_l_a_print_object.html#a6e184ee4fd27c51f2ee1cc7197918c16" target="_top" xlink:title=" ">
<polygon fill="white" stroke="#666666" points="114.25,-100.12 0,-100.12 0,-58.38 114.25,-58.38 114.25,-100.12"/>
<text text-anchor="start" x="8" y="-86.62" font-family="Helvetica,sans-Serif" font-size="10.00">Slic3r::SLAPrintObject</text>
<text text-anchor="start" x="8" y="-75.38" font-family="Helvetica,sans-Serif" font-size="10.00">::invalidate_state_by</text>
<text text-anchor="middle" x="57.13" y="-64.12" font-family="Helvetica,sans-Serif" font-size="10.00">_config_options</text>
</a>
</g>
</g>
<!-- Node4&#45;&gt;Node5 -->
<g id="edge4_Node000004_Node000005" class="edge">
<title>Node4&#45;&gt;Node5</title>
<g id="a_edge4_Node000004_Node000005"><a xlink:title=" ">
<path fill="none" stroke="#63b8ff" d="M139.15,-79.25C130.89,-79.25 122.51,-79.25 114.44,-79.25"/>
<polygon fill="#63b8ff" stroke="#63b8ff" points="138.91,-82.75 148.91,-79.25 138.91,-75.75 138.91,-82.75"/>
</a>
</g>
</g>
<!-- Node6&#45;&gt;Node4 -->
<g id="edge6_Node000006_Node000004" class="edge">
<title>Node6&#45;&gt;Node4</title>
<g id="a_edge6_Node000006_Node000004"><a xlink:title=" ">
<path fill="none" stroke="#63b8ff" d="M289.4,-79.25C281.16,-79.25 272.91,-79.25 264.99,-79.25"/>
<polygon fill="#63b8ff" stroke="#63b8ff" points="289.2,-82.75 299.2,-79.25 289.2,-75.75 289.2,-82.75"/>
</a>
</g>
</g>
<!-- Node8&#45;&gt;Node4 -->
<g id="edge9_Node000008_Node000004" class="edge">
<title>Node8&#45;&gt;Node4</title>
<g id="a_edge9_Node000008_Node000004"><a xlink:title=" ">
<path fill="none" stroke="#63b8ff" d="M319.49,-34.87C296.46,-44.07 269.38,-54.88 247.73,-63.53"/>
<polygon fill="#63b8ff" stroke="#63b8ff" points="320.43,-37.87 328.42,-30.91 317.84,-31.36 320.43,-37.87"/>
</a>
</g>
</g>
</g>
</svg>
