<?xml version="1.0" encoding="UTF-8" standalone="no"?>
<!DOCTYPE svg PUBLIC "-//W3C//DTD SVG 1.1//EN"
 "http://www.w3.org/Graphics/SVG/1.1/DTD/svg11.dtd">
<!-- Generated by graphviz version 8.0.5 (20230430.1635)
 -->
<!-- Title: libnest2d::_Box::maxCorner Pages: 1 -->
<!--zoomable 664 -->

<svg id="main" version="1.1" xmlns="http://www.w3.org/2000/svg" xmlns:xlink="http://www.w3.org/1999/xlink" xml:space="preserve" onload="init(evt)">
<style type="text/css"><![CDATA[
.node, .edge {opacity: 0.7;}
.node.selected, .edge.selected {opacity: 1;}
.edge:hover path { stroke: red; }
.edge:hover polygon { stroke: red; fill: red; }
]]></style>

<defs>
  <circle id="rim" cx="0" cy="0" r="7"/>
  <circle id="rim2" cx="0" cy="0" r="3.5"/>
  <g id="zoomPlus">
    <use xlink:href="#rim" fill="#404040"><set attributeName="fill" to="#808080" begin="zoomplus.mouseover" end="zoomplus.mouseout"/></use>
    <path d="M-4,0h8M0,-4v8" fill="none" stroke="white" stroke-width="1.5" pointer-events="none"/>
  </g>
  <g id="zoomMin">
    <use xlink:href="#rim" fill="#404040"><set attributeName="fill" to="#808080" begin="zoomminus.mouseover" end="zoomminus.mouseout"/></use>
    <path d="M-4,0h8" fill="none" stroke="white" stroke-width="1.5" pointer-events="none"/>
  </g>
  <g id="arrowUp" transform="translate(30 24)">
    <use xlink:href="#rim"/>
    <path pointer-events="none" fill="none" stroke="white" stroke-width="1.5" d="M0,-3.0v7 M-2.5,-0.5L0,-3.0L2.5,-0.5"/>
  </g>
  <g id="arrowRight" transform="rotate(90) translate(36 -43)">
    <use xlink:href="#rim"/>
    <path pointer-events="none" fill="none" stroke="white" stroke-width="1.5" d="M0,-3.0v7 M-2.5,-0.5L0,-3.0L2.5,-0.5"/>
  </g>
  <g id="arrowDown" transform="rotate(180) translate(-30 -48)">
    <use xlink:href="#rim"/>
    <path pointer-events="none" fill="none" stroke="white" stroke-width="1.5" d="M0,-3.0v7 M-2.5,-0.5L0,-3.0L2.5,-0.5"/>
  </g>
  <g id="arrowLeft" transform="rotate(270) translate(-36 17)">
    <use xlink:href="#rim"/>
    <path pointer-events="none" fill="none" stroke="white" stroke-width="1.5" d="M0,-3.0v7 M-2.5,-0.5L0,-3.0L2.5,-0.5"/>
  </g>
  <g id="resetDef">
    <use xlink:href="#rim2" fill="#404040"><set attributeName="fill" to="#808080" begin="reset.mouseover" end="reset.mouseout"/></use>
  </g>
</defs>
<script type="application/ecmascript">
var viewWidth = 595;
var viewHeight = 664;
var sectionId = 'dynsection-10';
</script>
<script type="application/ecmascript" xlink:href="../../svg.min.js"/>
<svg id="graph" class="graph">
<g id="viewport">
<title>libnest2d::_Box::maxCorner</title>
<!-- Node1 -->
<g id="Node000001" class="node">
<title>Node1</title>
<g id="a_Node000001"><a xlink:title=" ">
<polygon fill="#999999" stroke="#666666" points="586.75,-357.5 449.25,-357.5 449.25,-338.25 586.75,-338.25 586.75,-357.5"/>
<text text-anchor="middle" x="518" y="-344" font-family="Helvetica,sans-Serif" font-size="10.00">libnest2d::_Box::maxCorner</text>
</a>
</g>
</g>
<!-- Node2 -->
<g id="Node000002" class="node">
<title>Node2</title>
<g id="a_Node000002"><a xlink:href="../../dd/d66/namespacelibnest2d_1_1shapelike.html#a36cfcbc2f27a4112c7bbfd8191a0f94d" target="_top" xlink:title=" ">
<polygon fill="white" stroke="#666666" points="396.75,-656.12 294.5,-656.12 294.5,-625.62 396.75,-625.62 396.75,-656.12"/>
<text text-anchor="start" x="302.5" y="-642.62" font-family="Helvetica,sans-Serif" font-size="10.00">libnest2d::shapelike</text>
<text text-anchor="middle" x="345.62" y="-631.38" font-family="Helvetica,sans-Serif" font-size="10.00">::boundingBox</text>
</a>
</g>
</g>
<!-- Node1&#45;&gt;Node2 -->
<g id="edge1_Node000001_Node000002" class="edge">
<title>Node1&#45;&gt;Node2</title>
<g id="a_edge1_Node000001_Node000002"><a xlink:title=" ">
<path fill="none" stroke="#63b8ff" d="M514.82,-368.69C508.53,-418.55 485.83,-545.9 413.25,-616.88 408.59,-621.43 403.01,-625.13 397.08,-628.13"/>
<polygon fill="#63b8ff" stroke="#63b8ff" points="518.42,-369.11 516.09,-358.77 511.46,-368.3 518.42,-369.11"/>
</a>
</g>
</g>
<!-- Node3 -->
<g id="Node000003" class="node">
<title>Node3</title>
<g id="a_Node000003"><a xlink:href="../../db/d59/classlibnest2d_1_1placers_1_1___nofit_poly_placer.html#a801041d5a9ee0c72a9e6e918ec324e4e" target="_top" xlink:title=" ">
<polygon fill="white" stroke="#666666" points="396.38,-607.75 294.88,-607.75 294.88,-566 396.38,-566 396.38,-607.75"/>
<text text-anchor="start" x="302.88" y="-594.25" font-family="Helvetica,sans-Serif" font-size="10.00">libnest2d::placers</text>
<text text-anchor="start" x="302.88" y="-583" font-family="Helvetica,sans-Serif" font-size="10.00">::_NofitPolyPlacer::</text>
<text text-anchor="middle" x="345.62" y="-571.75" font-family="Helvetica,sans-Serif" font-size="10.00">finalAlign</text>
</a>
</g>
</g>
<!-- Node1&#45;&gt;Node3 -->
<g id="edge2_Node000001_Node000003" class="edge">
<title>Node1&#45;&gt;Node3</title>
<g id="a_edge2_Node000001_Node000003"><a xlink:title=" ">
<path fill="none" stroke="#63b8ff" d="M511.94,-368.06C500.78,-408.85 470.35,-501.89 413.25,-556.88 408.41,-561.54 402.71,-565.56 396.73,-569"/>
<polygon fill="#63b8ff" stroke="#63b8ff" points="515.54,-369.15 514.7,-358.59 508.77,-367.37 515.54,-369.15"/>
</a>
</g>
</g>
<!-- Node4 -->
<g id="Node000004" class="node">
<title>Node4</title>
<g id="a_Node000004"><a xlink:href="../../d3/d5b/structboost_1_1geometry_1_1traits_1_1indexed__access_3_01bp2d_1_1_box_00_01max__corner_00_010_01_4.html#aff3102682553dacbd195f376d48cb244" target="_top" xlink:title=" ">
<polygon fill="white" stroke="#666666" points="413.25,-547.75 278,-547.75 278,-506 413.25,-506 413.25,-547.75"/>
<text text-anchor="start" x="286" y="-534.25" font-family="Helvetica,sans-Serif" font-size="10.00">boost::geometry::traits</text>
<text text-anchor="start" x="286" y="-523" font-family="Helvetica,sans-Serif" font-size="10.00">::indexed_access&lt; bp2d</text>
<text text-anchor="middle" x="345.62" y="-511.75" font-family="Helvetica,sans-Serif" font-size="10.00">::Box, max_corner, 0 &gt;::get</text>
</a>
</g>
</g>
<!-- Node1&#45;&gt;Node4 -->
<g id="edge3_Node000001_Node000004" class="edge">
<title>Node1&#45;&gt;Node4</title>
<g id="a_edge3_Node000001_Node000004"><a xlink:title=" ">
<path fill="none" stroke="#63b8ff" d="M507.66,-367.67C492.05,-398.88 457.94,-459.78 413.25,-496.88 409.44,-500.03 405.25,-502.93 400.88,-505.56"/>
<polygon fill="#63b8ff" stroke="#63b8ff" points="511.16,-369.48 512.39,-358.96 504.86,-366.42 511.16,-369.48"/>
</a>
</g>
</g>
<!-- Node5 -->
<g id="Node000005" class="node">
<title>Node5</title>
<g id="a_Node000005"><a xlink:href="../../dc/d98/structboost_1_1geometry_1_1traits_1_1indexed__access_3_01bp2d_1_1_box_00_01max__corner_00_011_01_4.html#a43683f68440161fccb4d958c834843a6" target="_top" xlink:title=" ">
<polygon fill="white" stroke="#666666" points="413.25,-487.75 278,-487.75 278,-446 413.25,-446 413.25,-487.75"/>
<text text-anchor="start" x="286" y="-474.25" font-family="Helvetica,sans-Serif" font-size="10.00">boost::geometry::traits</text>
<text text-anchor="start" x="286" y="-463" font-family="Helvetica,sans-Serif" font-size="10.00">::indexed_access&lt; bp2d</text>
<text text-anchor="middle" x="345.62" y="-451.75" font-family="Helvetica,sans-Serif" font-size="10.00">::Box, max_corner, 1 &gt;::get</text>
</a>
</g>
</g>
<!-- Node1&#45;&gt;Node5 -->
<g id="edge4_Node000001_Node000005" class="edge">
<title>Node1&#45;&gt;Node5</title>
<g id="a_edge4_Node000001_Node000005"><a xlink:title=" ">
<path fill="none" stroke="#63b8ff" d="M499.7,-365.48C480.05,-384.78 446.4,-415.81 413.25,-436.88 408.43,-439.94 403.25,-442.85 397.98,-445.57"/>
<polygon fill="#63b8ff" stroke="#63b8ff" points="501.84,-368.29 506.46,-358.75 496.9,-363.33 501.84,-368.29"/>
</a>
</g>
</g>
<!-- Node6 -->
<g id="Node000006" class="node">
<title>Node6</title>
<g id="a_Node000006"><a xlink:href="../../dd/d1a/classlibnest2d_1_1___box.html#ae1f3e7b9b5f56149a2a4e54204e17cab" target="_top" xlink:title=" ">
<polygon fill="white" stroke="#666666" points="404.62,-427.5 286.62,-427.5 286.62,-408.25 404.62,-408.25 404.62,-427.5"/>
<text text-anchor="middle" x="345.62" y="-414" font-family="Helvetica,sans-Serif" font-size="10.00">libnest2d::_Box::infinite</text>
</a>
</g>
</g>
<!-- Node1&#45;&gt;Node6 -->
<g id="edge5_Node000001_Node000006" class="edge">
<title>Node1&#45;&gt;Node6</title>
<g id="a_edge5_Node000001_Node000006"><a xlink:title=" ">
<path fill="none" stroke="#63b8ff" d="M489.43,-363.12C468.86,-374.07 439.85,-388.64 413.25,-398.88 404.72,-402.16 395.38,-405.17 386.47,-407.77"/>
<polygon fill="#63b8ff" stroke="#63b8ff" points="490.93,-365.74 498.08,-357.92 487.61,-359.58 490.93,-365.74"/>
</a>
</g>
</g>
<!-- Node7 -->
<g id="Node000007" class="node">
<title>Node7</title>
<g id="a_Node000007"><a xlink:href="../../dd/d66/namespacelibnest2d_1_1shapelike.html#ab328c7bf0d5e44601f1dc94bf2d672a3" target="_top" xlink:title=" ">
<polygon fill="white" stroke="#666666" points="396.75,-390.12 294.5,-390.12 294.5,-359.62 396.75,-359.62 396.75,-390.12"/>
<text text-anchor="start" x="302.5" y="-376.62" font-family="Helvetica,sans-Serif" font-size="10.00">libnest2d::shapelike</text>
<text text-anchor="middle" x="345.62" y="-365.38" font-family="Helvetica,sans-Serif" font-size="10.00">::offset</text>
</a>
</g>
</g>
<!-- Node1&#45;&gt;Node7 -->
<g id="edge6_Node000001_Node000007" class="edge">
<title>Node1&#45;&gt;Node7</title>
<g id="a_edge6_Node000001_Node000007"><a xlink:title=" ">
<path fill="none" stroke="#63b8ff" d="M442.94,-359.61C427.46,-362.07 411.47,-364.6 397.08,-366.88"/>
<polygon fill="#63b8ff" stroke="#63b8ff" points="443.23,-362.95 452.56,-357.93 442.13,-356.04 443.23,-362.95"/>
</a>
</g>
</g>
<!-- Node8 -->
<g id="Node000008" class="node">
<title>Node8</title>
<g id="a_Node000008"><a xlink:href="../../db/d59/classlibnest2d_1_1placers_1_1___nofit_poly_placer.html#afc42e668422a0f58a81fb3ba24fc15ea" target="_top" xlink:title=" ">
<polygon fill="white" stroke="#666666" points="396.38,-341.75 294.88,-341.75 294.88,-300 396.38,-300 396.38,-341.75"/>
<text text-anchor="start" x="302.88" y="-328.25" font-family="Helvetica,sans-Serif" font-size="10.00">libnest2d::placers</text>
<text text-anchor="start" x="302.88" y="-317" font-family="Helvetica,sans-Serif" font-size="10.00">::_NofitPolyPlacer::</text>
<text text-anchor="middle" x="345.62" y="-305.75" font-family="Helvetica,sans-Serif" font-size="10.00">overfit</text>
</a>
</g>
</g>
<!-- Node1&#45;&gt;Node8 -->
<g id="edge7_Node000001_Node000008" class="edge">
<title>Node1&#45;&gt;Node8</title>
<g id="a_edge7_Node000001_Node000008"><a xlink:title=" ">
<path fill="none" stroke="#63b8ff" d="M442.89,-336.13C427.32,-333.66 411.26,-331.12 396.81,-328.83"/>
<polygon fill="#63b8ff" stroke="#63b8ff" points="442.13,-339.71 452.56,-337.82 443.23,-332.8 442.13,-339.71"/>
</a>
</g>
</g>
<!-- Node9 -->
<g id="Node000009" class="node">
<title>Node9</title>
<g id="a_Node000009"><a xlink:href="../../db/d59/classlibnest2d_1_1placers_1_1___nofit_poly_placer.html#aa6c1ce43b080d47d081364e0477d414d" target="_top" xlink:title=" ">
<polygon fill="white" stroke="#666666" points="396.38,-281.75 294.88,-281.75 294.88,-240 396.38,-240 396.38,-281.75"/>
<text text-anchor="start" x="302.88" y="-268.25" font-family="Helvetica,sans-Serif" font-size="10.00">libnest2d::placers</text>
<text text-anchor="start" x="302.88" y="-257" font-family="Helvetica,sans-Serif" font-size="10.00">::_NofitPolyPlacer::</text>
<text text-anchor="middle" x="345.62" y="-245.75" font-family="Helvetica,sans-Serif" font-size="10.00">placeOutsideOfBin</text>
</a>
</g>
</g>
<!-- Node1&#45;&gt;Node9 -->
<g id="edge8_Node000001_Node000009" class="edge">
<title>Node1&#45;&gt;Node9</title>
<g id="a_edge8_Node000001_Node000009"><a xlink:title=" ">
<path fill="none" stroke="#63b8ff" d="M490.17,-332.37C469.4,-320.55 439.8,-304.12 413.25,-290.88 407.46,-287.99 401.33,-285.06 395.23,-282.22"/>
<polygon fill="#63b8ff" stroke="#63b8ff" points="488.18,-335.84 498.6,-337.76 491.66,-329.76 488.18,-335.84"/>
</a>
</g>
</g>
<!-- Node11 -->
<g id="Node000011" class="node">
<title>Node11</title>
<g id="a_Node000011"><a xlink:href="../../d3/d5b/structboost_1_1geometry_1_1traits_1_1indexed__access_3_01bp2d_1_1_box_00_01max__corner_00_010_01_4.html#ae37890b59e8cf3cb402909b458e26e4d" target="_top" xlink:title=" ">
<polygon fill="white" stroke="#666666" points="413.25,-221.75 278,-221.75 278,-180 413.25,-180 413.25,-221.75"/>
<text text-anchor="start" x="286" y="-208.25" font-family="Helvetica,sans-Serif" font-size="10.00">boost::geometry::traits</text>
<text text-anchor="start" x="286" y="-197" font-family="Helvetica,sans-Serif" font-size="10.00">::indexed_access&lt; bp2d</text>
<text text-anchor="middle" x="345.62" y="-185.75" font-family="Helvetica,sans-Serif" font-size="10.00">::Box, max_corner, 0 &gt;::set</text>
</a>
</g>
</g>
<!-- Node1&#45;&gt;Node11 -->
<g id="edge10_Node000001_Node000011" class="edge">
<title>Node1&#45;&gt;Node11</title>
<g id="a_edge10_Node000001_Node000011"><a xlink:title=" ">
<path fill="none" stroke="#63b8ff" d="M504.12,-328.9C486.22,-303.71 451.67,-259.14 413.25,-230.88 408.96,-227.72 404.28,-224.79 399.46,-222.1"/>
<polygon fill="#63b8ff" stroke="#63b8ff" points="501.74,-330.61 510.33,-336.82 507.49,-326.61 501.74,-330.61"/>
</a>
</g>
</g>
<!-- Node12 -->
<g id="Node000012" class="node">
<title>Node12</title>
<g id="a_Node000012"><a xlink:href="../../dc/d98/structboost_1_1geometry_1_1traits_1_1indexed__access_3_01bp2d_1_1_box_00_01max__corner_00_011_01_4.html#a5ff737f34d05c91895ee665fce0f7dfc" target="_top" xlink:title=" ">
<polygon fill="white" stroke="#666666" points="413.25,-161.75 278,-161.75 278,-120 413.25,-120 413.25,-161.75"/>
<text text-anchor="start" x="286" y="-148.25" font-family="Helvetica,sans-Serif" font-size="10.00">boost::geometry::traits</text>
<text text-anchor="start" x="286" y="-137" font-family="Helvetica,sans-Serif" font-size="10.00">::indexed_access&lt; bp2d</text>
<text text-anchor="middle" x="345.62" y="-125.75" font-family="Helvetica,sans-Serif" font-size="10.00">::Box, max_corner, 1 &gt;::set</text>
</a>
</g>
</g>
<!-- Node1&#45;&gt;Node12 -->
<g id="edge11_Node000001_Node000012" class="edge">
<title>Node1&#45;&gt;Node12</title>
<g id="a_edge11_Node000001_Node000012"><a xlink:title=" ">
<path fill="none" stroke="#63b8ff" d="M509.99,-327.89C496.5,-292.01 463.7,-216.19 413.25,-170.88 409.66,-167.65 405.67,-164.73 401.48,-162.08"/>
<polygon fill="#63b8ff" stroke="#63b8ff" points="506.98,-328.85 513.69,-337.05 513.56,-326.45 506.98,-328.85"/>
</a>
</g>
</g>
<!-- Node13 -->
<g id="Node000013" class="node">
<title>Node13</title>
<g id="a_Node000013"><a xlink:href="../../d7/da0/classlibnest2d_1_1placers_1_1___bottom_left_placer.html#a556259559476ec5febacc8d5eb14a667" target="_top" xlink:title=" ">
<polygon fill="white" stroke="#666666" points="397.12,-41.75 294.12,-41.75 294.12,0 397.12,0 397.12,-41.75"/>
<text text-anchor="start" x="302.12" y="-28.25" font-family="Helvetica,sans-Serif" font-size="10.00">libnest2d::placers</text>
<text text-anchor="start" x="302.12" y="-17" font-family="Helvetica,sans-Serif" font-size="10.00">::_BottomLeftPlacer</text>
<text text-anchor="middle" x="345.62" y="-5.75" font-family="Helvetica,sans-Serif" font-size="10.00">::setInitialPosition</text>
</a>
</g>
</g>
<!-- Node1&#45;&gt;Node13 -->
<g id="edge12_Node000001_Node000013" class="edge">
<title>Node1&#45;&gt;Node13</title>
<g id="a_edge12_Node000001_Node000013"><a xlink:title=" ">
<path fill="none" stroke="#63b8ff" d="M515.3,-327.08C509.94,-274.3 488.93,-133.44 413.25,-50.88 408.71,-45.92 403.19,-41.73 397.3,-38.2"/>
<polygon fill="#63b8ff" stroke="#63b8ff" points="511.9,-327.37 516.31,-337.01 518.87,-326.73 511.9,-327.37"/>
</a>
</g>
</g>
<!-- Node16 -->
<g id="Node000016" class="node">
<title>Node16</title>
<g id="a_Node000016"><a xlink:href="../../db/d59/classlibnest2d_1_1placers_1_1___nofit_poly_placer.html#aabb15f9d796cd88cecb4a8eab6bc3107" target="_top" xlink:title=" ">
<polygon fill="white" stroke="#666666" points="396.38,-101.75 294.88,-101.75 294.88,-60 396.38,-60 396.38,-101.75"/>
<text text-anchor="start" x="302.88" y="-88.25" font-family="Helvetica,sans-Serif" font-size="10.00">libnest2d::placers</text>
<text text-anchor="start" x="302.88" y="-77" font-family="Helvetica,sans-Serif" font-size="10.00">::_NofitPolyPlacer::</text>
<text text-anchor="middle" x="345.62" y="-65.75" font-family="Helvetica,sans-Serif" font-size="10.00">setInitialPosition</text>
</a>
</g>
</g>
<!-- Node1&#45;&gt;Node16 -->
<g id="edge15_Node000001_Node000016" class="edge">
<title>Node1&#45;&gt;Node16</title>
<g id="a_edge15_Node000001_Node000016"><a xlink:title=" ">
<path fill="none" stroke="#63b8ff" d="M513.18,-327.16C503.88,-282.13 476.05,-174.34 413.25,-110.88 408.43,-106.01 402.68,-101.86 396.61,-98.34"/>
<polygon fill="#63b8ff" stroke="#63b8ff" points="509.92,-327.73 515.28,-336.87 516.79,-326.39 509.92,-327.73"/>
</a>
</g>
</g>
<!-- Node10 -->
<g id="Node000010" class="node">
<title>Node10</title>
<g id="a_Node000010"><a xlink:href="../../db/d59/classlibnest2d_1_1placers_1_1___nofit_poly_placer.html#a3ef1652b2b7672127d5baf470f160839" target="_top" xlink:title=" ">
<polygon fill="white" stroke="#666666" points="241.25,-191.75 139.75,-191.75 139.75,-150 241.25,-150 241.25,-191.75"/>
<text text-anchor="start" x="147.75" y="-178.25" font-family="Helvetica,sans-Serif" font-size="10.00">libnest2d::placers</text>
<text text-anchor="start" x="147.75" y="-167" font-family="Helvetica,sans-Serif" font-size="10.00">::_NofitPolyPlacer::</text>
<text text-anchor="middle" x="190.5" y="-155.75" font-family="Helvetica,sans-Serif" font-size="10.00">trypack</text>
</a>
</g>
</g>
<!-- Node9&#45;&gt;Node10 -->
<g id="edge9_Node000009_Node000010" class="edge">
<title>Node9&#45;&gt;Node10</title>
<g id="a_edge9_Node000009_Node000010"><a xlink:title=" ">
<path fill="none" stroke="#63b8ff" d="M284.87,-234.63C282.53,-233.39 280.24,-232.14 278,-230.88 257.64,-219.36 236.01,-204.36 219.48,-192.24"/>
<polygon fill="#63b8ff" stroke="#63b8ff" points="283.14,-238.18 293.64,-239.58 286.31,-231.94 283.14,-238.18"/>
</a>
</g>
</g>
<!-- Node14 -->
<g id="Node000014" class="node">
<title>Node14</title>
<g id="a_Node000014"><a xlink:href="../../d7/da0/classlibnest2d_1_1placers_1_1___bottom_left_placer.html#a786c4c23910c0570baafc9679b6aae4a" target="_top" xlink:title=" ">
<polygon fill="white" stroke="#666666" points="242,-41.75 139,-41.75 139,0 242,0 242,-41.75"/>
<text text-anchor="start" x="147" y="-28.25" font-family="Helvetica,sans-Serif" font-size="10.00">libnest2d::placers</text>
<text text-anchor="start" x="147" y="-17" font-family="Helvetica,sans-Serif" font-size="10.00">::_BottomLeftPlacer</text>
<text text-anchor="middle" x="190.5" y="-5.75" font-family="Helvetica,sans-Serif" font-size="10.00">::_trypack</text>
</a>
</g>
</g>
<!-- Node13&#45;&gt;Node14 -->
<g id="edge13_Node000013_Node000014" class="edge">
<title>Node13&#45;&gt;Node14</title>
<g id="a_edge13_Node000013_Node000014"><a xlink:title=" ">
<path fill="none" stroke="#63b8ff" d="M282.97,-20.88C269.46,-20.88 255.3,-20.88 242.27,-20.88"/>
<polygon fill="#63b8ff" stroke="#63b8ff" points="282.64,-24.38 292.64,-20.88 282.64,-17.38 282.64,-24.38"/>
</a>
</g>
</g>
<!-- Node15 -->
<g id="Node000015" class="node">
<title>Node15</title>
<g id="a_Node000015"><a xlink:href="../../d7/da0/classlibnest2d_1_1placers_1_1___bottom_left_placer.html#a6668c549daf2ad3acf1b3a65ee3f5d00" target="_top" xlink:title=" ">
<polygon fill="white" stroke="#666666" points="103,-41.75 0,-41.75 0,0 103,0 103,-41.75"/>
<text text-anchor="start" x="8" y="-28.25" font-family="Helvetica,sans-Serif" font-size="10.00">libnest2d::placers</text>
<text text-anchor="start" x="8" y="-17" font-family="Helvetica,sans-Serif" font-size="10.00">::_BottomLeftPlacer</text>
<text text-anchor="middle" x="51.5" y="-5.75" font-family="Helvetica,sans-Serif" font-size="10.00">::trypack</text>
</a>
</g>
</g>
<!-- Node14&#45;&gt;Node15 -->
<g id="edge14_Node000014_Node000015" class="edge">
<title>Node14&#45;&gt;Node15</title>
<g id="a_edge14_Node000014_Node000015"><a xlink:title=" ">
<path fill="none" stroke="#63b8ff" d="M128.12,-20.88C119.85,-20.88 111.44,-20.88 103.37,-20.88"/>
<polygon fill="#63b8ff" stroke="#63b8ff" points="127.88,-24.38 137.88,-20.88 127.88,-17.38 127.88,-24.38"/>
</a>
</g>
</g>
<!-- Node16&#45;&gt;Node10 -->
<g id="edge16_Node000016_Node000010" class="edge">
<title>Node16&#45;&gt;Node10</title>
<g id="a_edge16_Node000016_Node000010"><a xlink:title=" ">
<path fill="none" stroke="#63b8ff" d="M284.87,-107.12C282.53,-108.36 280.24,-109.61 278,-110.88 257.64,-122.39 236.01,-137.39 219.48,-149.51"/>
<polygon fill="#63b8ff" stroke="#63b8ff" points="286.31,-109.81 293.64,-102.17 283.14,-103.57 286.31,-109.81"/>
</a>
</g>
</g>
</g>
</svg>

<g id="navigator" transform="translate(0 0)" fill="#404254">
  <rect fill="#f2f5e9" fill-opacity="0.5" stroke="#606060" stroke-width=".5" x="0" y="0" width="60" height="60"/>
  <use id="zoomplus" xlink:href="#zoomPlus" x="17" y="9" onmousedown="handleZoom(evt,'in')"/>
  <use id="zoomminus" xlink:href="#zoomMin" x="42" y="9" onmousedown="handleZoom(evt,'out')"/>
  <use id="reset" xlink:href="#resetDef" x="30" y="36" onmousedown="handleReset()"/>
   <use id="arrowup" xlink:href="#arrowUp" x="0" y="0" onmousedown="handlePan(0,-1)"/>
  <use id="arrowright" xlink:href="#arrowRight" x="0" y="0" onmousedown="handlePan(1,0)"/>
  <use id="arrowdown" xlink:href="#arrowDown" x="0" y="0" onmousedown="handlePan(0,1)"/>
  <use id="arrowleft" xlink:href="#arrowLeft" x="0" y="0" onmousedown="handlePan(-1,0)"/>
</g>
<svg viewBox="0 0 15 15" width="100%" height="30px" preserveAspectRatio="xMaxYMin meet">
 <g id="arrow_out" transform="scale(0.3 0.3)">
  <a xlink:href="classlibnest2d_1_1___box_ac4e79acc31dad05648b8f9a871ba04b0_icgraph_org.svg" target="_base">
   <rect id="button" ry="5" rx="5" y="6" x="6" height="38" width="38"
        fill="#f2f5e9" fill-opacity="0.5" stroke="#606060" stroke-width="1.0"/>
   <path id="arrow"
     d="M 11.500037,31.436501 C 11.940474,20.09759 22.043105,11.32322 32.158766,21.979434 L 37.068811,17.246167 C 37.068811,17.246167 37.088388,32 37.088388,32 L 22.160133,31.978069 C 22.160133,31.978069 26.997745,27.140456 26.997745,27.140456 C 18.528582,18.264221 13.291696,25.230495 11.500037,31.436501 z"
     style="fill:#404040;"/>
  </a>
 </g>
</svg>

<style type='text/css'>
<![CDATA[
[data-mouse-over-selected='false'] { opacity: 0.7; }
[data-mouse-over-selected='true']  { opacity: 1.0; }
]]>
</style>
<script type="application/ecmascript"><![CDATA[
document.addEventListener('DOMContentLoaded', (event) => {
  highlightEdges();
  highlightAdjacentNodes();
});
]]></script>
</svg>
