<?xml version="1.0" encoding="UTF-8" standalone="no"?>
<!DOCTYPE svg PUBLIC "-//W3C//DTD SVG 1.1//EN"
 "http://www.w3.org/Graphics/SVG/1.1/DTD/svg11.dtd">
<!-- Generated by graphviz version 8.0.5 (20230430.1635)
 -->
<!-- Title: Slic3r::BoundingBox::inflated Pages: 1 -->
<!--zoomable 552 -->

<svg id="main" version="1.1" xmlns="http://www.w3.org/2000/svg" xmlns:xlink="http://www.w3.org/1999/xlink" xml:space="preserve" onload="init(evt)">
<style type="text/css"><![CDATA[
.node, .edge {opacity: 0.7;}
.node.selected, .edge.selected {opacity: 1;}
.edge:hover path { stroke: red; }
.edge:hover polygon { stroke: red; fill: red; }
]]></style>

<defs>
  <circle id="rim" cx="0" cy="0" r="7"/>
  <circle id="rim2" cx="0" cy="0" r="3.5"/>
  <g id="zoomPlus">
    <use xlink:href="#rim" fill="#404040"><set attributeName="fill" to="#808080" begin="zoomplus.mouseover" end="zoomplus.mouseout"/></use>
    <path d="M-4,0h8M0,-4v8" fill="none" stroke="white" stroke-width="1.5" pointer-events="none"/>
  </g>
  <g id="zoomMin">
    <use xlink:href="#rim" fill="#404040"><set attributeName="fill" to="#808080" begin="zoomminus.mouseover" end="zoomminus.mouseout"/></use>
    <path d="M-4,0h8" fill="none" stroke="white" stroke-width="1.5" pointer-events="none"/>
  </g>
  <g id="arrowUp" transform="translate(30 24)">
    <use xlink:href="#rim"/>
    <path pointer-events="none" fill="none" stroke="white" stroke-width="1.5" d="M0,-3.0v7 M-2.5,-0.5L0,-3.0L2.5,-0.5"/>
  </g>
  <g id="arrowRight" transform="rotate(90) translate(36 -43)">
    <use xlink:href="#rim"/>
    <path pointer-events="none" fill="none" stroke="white" stroke-width="1.5" d="M0,-3.0v7 M-2.5,-0.5L0,-3.0L2.5,-0.5"/>
  </g>
  <g id="arrowDown" transform="rotate(180) translate(-30 -48)">
    <use xlink:href="#rim"/>
    <path pointer-events="none" fill="none" stroke="white" stroke-width="1.5" d="M0,-3.0v7 M-2.5,-0.5L0,-3.0L2.5,-0.5"/>
  </g>
  <g id="arrowLeft" transform="rotate(270) translate(-36 17)">
    <use xlink:href="#rim"/>
    <path pointer-events="none" fill="none" stroke="white" stroke-width="1.5" d="M0,-3.0v7 M-2.5,-0.5L0,-3.0L2.5,-0.5"/>
  </g>
  <g id="resetDef">
    <use xlink:href="#rim2" fill="#404040"><set attributeName="fill" to="#808080" begin="reset.mouseover" end="reset.mouseout"/></use>
  </g>
</defs>
<script type="application/ecmascript">
var viewWidth = 932;
var viewHeight = 552;
var sectionId = 'dynsection-5';
</script>
<script type="application/ecmascript" xlink:href="../../svg.min.js"/>
<svg id="graph" class="graph">
<g id="viewport">
<title>Slic3r::BoundingBox::inflated</title>
<!-- Node1 -->
<g id="Node000001" class="node">
<title>Node1</title>
<g id="a_Node000001"><a xlink:title=" ">
<polygon fill="#999999" stroke="#666666" points="924,-384.12 819.5,-384.12 819.5,-353.62 924,-353.62 924,-384.12"/>
<text text-anchor="start" x="827.5" y="-370.62" font-family="Helvetica,sans-Serif" font-size="10.00">Slic3r::BoundingBox</text>
<text text-anchor="middle" x="871.75" y="-359.38" font-family="Helvetica,sans-Serif" font-size="10.00">::inflated</text>
</a>
</g>
</g>
<!-- Node2 -->
<g id="Node000002" class="node">
<title>Node2</title>
<g id="a_Node000002"><a xlink:href="../../d8/d7d/class_slic3r_1_1_fill_plane_path.html#a8d63c17d6f07c480ea158486a27d3ec8" target="_top" xlink:title=" ">
<polygon fill="white" stroke="#666666" points="763.62,-544.12 658.38,-544.12 658.38,-513.62 763.62,-513.62 763.62,-544.12"/>
<text text-anchor="start" x="666.38" y="-530.62" font-family="Helvetica,sans-Serif" font-size="10.00">Slic3r::FillPlanePath</text>
<text text-anchor="middle" x="711" y="-519.38" font-family="Helvetica,sans-Serif" font-size="10.00">::_fill_surface_single</text>
</a>
</g>
</g>
<!-- Node1&#45;&gt;Node2 -->
<g id="edge1_Node000001_Node000002" class="edge">
<title>Node1&#45;&gt;Node2</title>
<g id="a_edge1_Node000001_Node000002"><a xlink:title=" ">
<path fill="none" stroke="#63b8ff" d="M860.65,-393.96C847.29,-424.13 820.97,-474.39 783.5,-503.88 777.61,-508.51 770.8,-512.32 763.77,-515.44"/>
<polygon fill="#63b8ff" stroke="#63b8ff" points="864.11,-395.76 864.83,-385.19 857.68,-393 864.11,-395.76"/>
</a>
</g>
</g>
<!-- Node3 -->
<g id="Node000003" class="node">
<title>Node3</title>
<g id="a_Node000003"><a xlink:href="../../de/db8/namespace_slic3r.html#a74da108ebaf65a19778517642f87e291" target="_top" xlink:title=" ">
<polygon fill="white" stroke="#666666" points="763.62,-495.12 658.38,-495.12 658.38,-464.62 763.62,-464.62 763.62,-495.12"/>
<text text-anchor="start" x="666.38" y="-481.62" font-family="Helvetica,sans-Serif" font-size="10.00">Slic3r::connect_brim</text>
<text text-anchor="middle" x="711" y="-470.38" font-family="Helvetica,sans-Serif" font-size="10.00">_lines</text>
</a>
</g>
</g>
<!-- Node1&#45;&gt;Node3 -->
<g id="edge2_Node000001_Node000003" class="edge">
<title>Node1&#45;&gt;Node3</title>
<g id="a_edge2_Node000001_Node000003"><a xlink:title=" ">
<path fill="none" stroke="#63b8ff" d="M850.31,-392.33C833.73,-410.24 809,-434.54 783.5,-450.88 775.6,-455.93 766.68,-460.39 757.88,-464.21"/>
<polygon fill="#63b8ff" stroke="#63b8ff" points="852.2,-395.36 856.33,-385.6 847.02,-390.65 852.2,-395.36"/>
</a>
</g>
</g>
<!-- Node4 -->
<g id="Node000004" class="node">
<title>Node4</title>
<g id="a_Node000004"><a xlink:href="../../de/db8/namespace_slic3r.html#a99f400fb7abf07fa1dbe679d579edc8c" target="_top" xlink:title=" ">
<polygon fill="white" stroke="#666666" points="596.12,-458.12 477.38,-458.12 477.38,-427.62 596.12,-427.62 596.12,-458.12"/>
<text text-anchor="start" x="485.38" y="-444.62" font-family="Helvetica,sans-Serif" font-size="10.00">Slic3r::create_boundary</text>
<text text-anchor="middle" x="536.75" y="-433.38" font-family="Helvetica,sans-Serif" font-size="10.00">_infill_graph</text>
</a>
</g>
</g>
<!-- Node1&#45;&gt;Node4 -->
<g id="edge3_Node000001_Node000004" class="edge">
<title>Node1&#45;&gt;Node4</title>
<g id="a_edge3_Node000001_Node000004"><a xlink:title=" ">
<path fill="none" stroke="#63b8ff" d="M840.02,-390.25C823.92,-400.35 803.44,-411.56 783.5,-417.88 721.66,-437.45 647.11,-442.62 596.45,-443.57"/>
<polygon fill="#63b8ff" stroke="#63b8ff" points="841.46,-392.84 847.96,-384.47 837.66,-386.96 841.46,-392.84"/>
</a>
</g>
</g>
<!-- Node8 -->
<g id="Node000008" class="node">
<title>Node8</title>
<g id="a_Node000008"><a xlink:href="../../de/db8/namespace_slic3r.html#a06a724a00fd8f8c4177b8d975567d5f4" target="_top" xlink:title=" ">
<polygon fill="white" stroke="#666666" points="781.62,-360.12 640.38,-360.12 640.38,-329.62 781.62,-329.62 781.62,-360.12"/>
<text text-anchor="start" x="648.38" y="-346.62" font-family="Helvetica,sans-Serif" font-size="10.00">Slic3r::generate_extra</text>
<text text-anchor="middle" x="711" y="-335.38" font-family="Helvetica,sans-Serif" font-size="10.00">_perimeters_over_overhangs</text>
</a>
</g>
</g>
<!-- Node1&#45;&gt;Node8 -->
<g id="edge7_Node000001_Node000008" class="edge">
<title>Node1&#45;&gt;Node8</title>
<g id="a_edge7_Node000001_Node000008"><a xlink:title=" ">
<path fill="none" stroke="#63b8ff" d="M808.43,-359.45C799.77,-358.14 790.83,-356.79 782.04,-355.46"/>
<polygon fill="#63b8ff" stroke="#63b8ff" points="807.8,-363.05 818.21,-361.08 808.84,-356.13 807.8,-363.05"/>
</a>
</g>
</g>
<!-- Node13 -->
<g id="Node000013" class="node">
<title>Node13</title>
<g id="a_Node000013"><a xlink:href="../../dd/df4/namespace_slic3r_1_1_f_f_f_tree_support.html#af3db90eed67f0d35149aa2b62a56c618" target="_top" xlink:title="Returns Polylines representing the (infill) lines that will result in slicing the given area.">
<polygon fill="white" stroke="#666666" points="783.5,-306.12 638.5,-306.12 638.5,-275.62 783.5,-275.62 783.5,-306.12"/>
<text text-anchor="start" x="646.5" y="-292.62" font-family="Helvetica,sans-Serif" font-size="10.00">Slic3r::FFFTreeSupport</text>
<text text-anchor="middle" x="711" y="-281.38" font-family="Helvetica,sans-Serif" font-size="10.00">::generate_support_infill_lines</text>
</a>
</g>
</g>
<!-- Node1&#45;&gt;Node13 -->
<g id="edge13_Node000001_Node000013" class="edge">
<title>Node1&#45;&gt;Node13</title>
<g id="a_edge13_Node000001_Node000013"><a xlink:title=" ">
<path fill="none" stroke="#63b8ff" d="M834.75,-347.95C819.19,-339.2 800.65,-329.16 783.5,-320.88 773.2,-315.9 761.85,-310.92 751.3,-306.49"/>
<polygon fill="#63b8ff" stroke="#63b8ff" points="832.59,-351.32 843.02,-353.21 836.05,-345.23 832.59,-351.32"/>
</a>
</g>
</g>
<!-- Node16 -->
<g id="Node000016" class="node">
<title>Node16</title>
<g id="a_Node000016"><a xlink:href="../../d3/d93/class_slic3r_1_1_fill_lightning_1_1_generator.html#ab287acdf9336ac51aadc9e89150866f5" target="_top" xlink:title=" ">
<polygon fill="white" stroke="#666666" points="777.5,-235.12 644.5,-235.12 644.5,-204.62 777.5,-204.62 777.5,-235.12"/>
<text text-anchor="start" x="652.5" y="-221.62" font-family="Helvetica,sans-Serif" font-size="10.00">Slic3r::FillLightning</text>
<text text-anchor="middle" x="711" y="-210.38" font-family="Helvetica,sans-Serif" font-size="10.00">::Generator::generateTrees</text>
</a>
</g>
</g>
<!-- Node1&#45;&gt;Node16 -->
<g id="edge18_Node000001_Node000016" class="edge">
<title>Node1&#45;&gt;Node16</title>
<g id="a_edge18_Node000001_Node000016"><a xlink:title=" ">
<path fill="none" stroke="#63b8ff" d="M853.06,-344.5C836.53,-322.69 810.42,-290.6 783.5,-266.88 770.13,-255.09 753.58,-244.03 739.77,-235.6"/>
<polygon fill="#63b8ff" stroke="#63b8ff" points="850.74,-346.25 859.53,-352.16 856.35,-342.06 850.74,-346.25"/>
</a>
</g>
</g>
<!-- Node18 -->
<g id="Node000018" class="node">
<title>Node18</title>
<g id="a_Node000018"><a xlink:href="../../de/db8/namespace_slic3r.html#ac6dd878e0646410d6b026a5b7b72c5b9" target="_top" xlink:title=" ">
<polygon fill="white" stroke="#666666" points="775.25,-409.12 646.75,-409.12 646.75,-378.62 775.25,-378.62 775.25,-409.12"/>
<text text-anchor="start" x="654.75" y="-395.62" font-family="Helvetica,sans-Serif" font-size="10.00">Slic3r::mark_boundary</text>
<text text-anchor="middle" x="711" y="-384.38" font-family="Helvetica,sans-Serif" font-size="10.00">_segments_touching_infill</text>
</a>
</g>
</g>
<!-- Node1&#45;&gt;Node18 -->
<g id="edge20_Node000001_Node000018" class="edge">
<title>Node1&#45;&gt;Node18</title>
<g id="a_edge20_Node000001_Node000018"><a xlink:title=" ">
<path fill="none" stroke="#63b8ff" d="M808.54,-378.67C797.69,-380.38 786.38,-382.16 775.5,-383.88"/>
<polygon fill="#63b8ff" stroke="#63b8ff" points="808.87,-382 818.21,-376.99 807.79,-375.09 808.87,-382"/>
</a>
</g>
</g>
<!-- Node19 -->
<g id="Node000019" class="node">
<title>Node19</title>
<g id="a_Node000019"><a xlink:href="../../dd/df4/namespace_slic3r_1_1_f_f_f_tree_support.html#a10d42159133e647bd0231c3b574ad951" target="_top" xlink:title="Offsets (increases the area of) a polygons object in multiple steps to ensure that it does not lag th...">
<polygon fill="white" stroke="#666666" points="770,-147.12 652,-147.12 652,-116.62 770,-116.62 770,-147.12"/>
<text text-anchor="start" x="660" y="-133.62" font-family="Helvetica,sans-Serif" font-size="10.00">Slic3r::FFFTreeSupport</text>
<text text-anchor="middle" x="711" y="-122.38" font-family="Helvetica,sans-Serif" font-size="10.00">::safe_offset_inc</text>
</a>
</g>
</g>
<!-- Node1&#45;&gt;Node19 -->
<g id="edge22_Node000001_Node000019" class="edge">
<title>Node1&#45;&gt;Node19</title>
<g id="a_edge22_Node000001_Node000019"><a xlink:title=" ">
<path fill="none" stroke="#63b8ff" d="M861.44,-343.49C847.76,-308.2 819.85,-243.3 783.5,-195.88 769.11,-177.1 748.68,-159.46 733.35,-147.48"/>
<polygon fill="#63b8ff" stroke="#63b8ff" points="858.4,-344.34 865.23,-352.44 864.94,-341.85 858.4,-344.34"/>
</a>
</g>
</g>
<!-- Node5 -->
<g id="Node000005" class="node">
<title>Node5</title>
<g id="a_Node000005"><a xlink:href="../../d7/dcc/class_slic3r_1_1_fill.html#a556b6dfcdffe85985f4abf4d1cc713fc" target="_top" xlink:title=" ">
<polygon fill="white" stroke="#666666" points="423.75,-482.12 323.75,-482.12 323.75,-451.62 423.75,-451.62 423.75,-482.12"/>
<text text-anchor="start" x="331.75" y="-468.62" font-family="Helvetica,sans-Serif" font-size="10.00">Slic3r::Fill::connect</text>
<text text-anchor="middle" x="373.75" y="-457.38" font-family="Helvetica,sans-Serif" font-size="10.00">_base_support</text>
</a>
</g>
</g>
<!-- Node4&#45;&gt;Node5 -->
<g id="edge4_Node000004_Node000005" class="edge">
<title>Node4&#45;&gt;Node5</title>
<g id="a_edge4_Node000004_Node000005"><a xlink:title=" ">
<path fill="none" stroke="#63b8ff" d="M466.39,-453.21C452.13,-455.34 437.39,-457.54 424.01,-459.53"/>
<polygon fill="#63b8ff" stroke="#63b8ff" points="466.8,-456.54 476.17,-451.61 465.76,-449.62 466.8,-456.54"/>
</a>
</g>
</g>
<!-- Node7 -->
<g id="Node000007" class="node">
<title>Node7</title>
<g id="a_Node000007"><a xlink:href="../../d7/dcc/class_slic3r_1_1_fill.html#a80691aebfdaef33fe93739b1ad8709a4" target="_top" xlink:title=" ">
<polygon fill="white" stroke="#666666" points="423.75,-433.12 323.75,-433.12 323.75,-402.62 423.75,-402.62 423.75,-433.12"/>
<text text-anchor="start" x="331.75" y="-419.62" font-family="Helvetica,sans-Serif" font-size="10.00">Slic3r::Fill::connect</text>
<text text-anchor="middle" x="373.75" y="-408.38" font-family="Helvetica,sans-Serif" font-size="10.00">_infill</text>
</a>
</g>
</g>
<!-- Node4&#45;&gt;Node7 -->
<g id="edge6_Node000004_Node000007" class="edge">
<title>Node4&#45;&gt;Node7</title>
<g id="a_edge6_Node000004_Node000007"><a xlink:title=" ">
<path fill="none" stroke="#63b8ff" d="M466.39,-432.1C452.13,-429.89 437.39,-427.6 424.01,-425.52"/>
<polygon fill="#63b8ff" stroke="#63b8ff" points="465.75,-435.7 476.17,-433.78 466.83,-428.79 465.75,-435.7"/>
</a>
</g>
</g>
<!-- Node6 -->
<g id="Node000006" class="node">
<title>Node6</title>
<g id="a_Node000006"><a xlink:href="../../dd/d10/class_slic3r_1_1_fill_support_base.html#a564a9a222f647edd8dca54be0da6bc58" target="_top" xlink:title=" ">
<polygon fill="white" stroke="#666666" points="273.12,-482.12 157.38,-482.12 157.38,-451.62 273.12,-451.62 273.12,-482.12"/>
<text text-anchor="start" x="165.38" y="-468.62" font-family="Helvetica,sans-Serif" font-size="10.00">Slic3r::FillSupportBase</text>
<text text-anchor="middle" x="215.25" y="-457.38" font-family="Helvetica,sans-Serif" font-size="10.00">::fill_surface</text>
</a>
</g>
</g>
<!-- Node5&#45;&gt;Node6 -->
<g id="edge5_Node000005_Node000006" class="edge">
<title>Node5&#45;&gt;Node6</title>
<g id="a_edge5_Node000005_Node000006"><a xlink:title=" ">
<path fill="none" stroke="#63b8ff" d="M312.95,-466.88C299.96,-466.88 286.25,-466.88 273.37,-466.88"/>
<polygon fill="#63b8ff" stroke="#63b8ff" points="312.66,-470.38 322.66,-466.88 312.66,-463.38 312.66,-470.38"/>
</a>
</g>
</g>
<!-- Node9 -->
<g id="Node000009" class="node">
<title>Node9</title>
<g id="a_Node000009"><a xlink:href="../../d7/d1d/namespace_slic3r_1_1_perimeter_generator.html#addff59b1baf2226279fa4bf543740526" target="_top" xlink:title=" ">
<polygon fill="white" stroke="#666666" points="602.5,-409.12 471,-409.12 471,-378.62 602.5,-378.62 602.5,-409.12"/>
<text text-anchor="start" x="479" y="-395.62" font-family="Helvetica,sans-Serif" font-size="10.00">Slic3r::PerimeterGenerator</text>
<text text-anchor="middle" x="536.75" y="-384.38" font-family="Helvetica,sans-Serif" font-size="10.00">::process_arachne</text>
</a>
</g>
</g>
<!-- Node8&#45;&gt;Node9 -->
<g id="edge8_Node000008_Node000009" class="edge">
<title>Node8&#45;&gt;Node9</title>
<g id="a_edge8_Node000008_Node000009"><a xlink:title=" ">
<path fill="none" stroke="#63b8ff" d="M644.62,-363.47C627.63,-368.31 609.5,-373.46 593.09,-378.13"/>
<polygon fill="#63b8ff" stroke="#63b8ff" points="645.36,-366.62 654.03,-360.51 643.45,-359.88 645.36,-366.62"/>
</a>
</g>
</g>
<!-- Node12 -->
<g id="Node000012" class="node">
<title>Node12</title>
<g id="a_Node000012"><a xlink:href="../../d7/d1d/namespace_slic3r_1_1_perimeter_generator.html#ad284d87ff9b979b90cbc47cc592d101a" target="_top" xlink:title=" ">
<polygon fill="white" stroke="#666666" points="602.5,-360.12 471,-360.12 471,-329.62 602.5,-329.62 602.5,-360.12"/>
<text text-anchor="start" x="479" y="-346.62" font-family="Helvetica,sans-Serif" font-size="10.00">Slic3r::PerimeterGenerator</text>
<text text-anchor="middle" x="536.75" y="-335.38" font-family="Helvetica,sans-Serif" font-size="10.00">::process_classic</text>
</a>
</g>
</g>
<!-- Node8&#45;&gt;Node12 -->
<g id="edge11_Node000008_Node000012" class="edge">
<title>Node8&#45;&gt;Node12</title>
<g id="a_edge11_Node000008_Node000012"><a xlink:title=" ">
<path fill="none" stroke="#63b8ff" d="M629.19,-344.88C620.33,-344.88 611.39,-344.88 602.75,-344.88"/>
<polygon fill="#63b8ff" stroke="#63b8ff" points="628.94,-348.38 638.94,-344.88 628.94,-341.38 628.94,-348.38"/>
</a>
</g>
</g>
<!-- Node10 -->
<g id="Node000010" class="node">
<title>Node10</title>
<g id="a_Node000010"><a xlink:href="../../dd/d90/class_slic3r_1_1_layer_region.html#a7f8ba90770f4cfeb3e0f0fe9606e7376" target="_top" xlink:title=" ">
<polygon fill="white" stroke="#666666" points="424.5,-372.12 323,-372.12 323,-341.62 424.5,-341.62 424.5,-372.12"/>
<text text-anchor="start" x="331" y="-358.62" font-family="Helvetica,sans-Serif" font-size="10.00">Slic3r::LayerRegion</text>
<text text-anchor="middle" x="373.75" y="-347.38" font-family="Helvetica,sans-Serif" font-size="10.00">::make_perimeters</text>
</a>
</g>
</g>
<!-- Node9&#45;&gt;Node10 -->
<g id="edge9_Node000009_Node000010" class="edge">
<title>Node9&#45;&gt;Node10</title>
<g id="a_edge9_Node000009_Node000010"><a xlink:title=" ">
<path fill="none" stroke="#63b8ff" d="M460.2,-376.51C448.14,-373.74 435.93,-370.93 424.66,-368.34"/>
<polygon fill="#63b8ff" stroke="#63b8ff" points="459.2,-380.1 469.73,-378.93 460.77,-373.28 459.2,-380.1"/>
</a>
</g>
</g>
<!-- Node11 -->
<g id="Node000011" class="node">
<title>Node11</title>
<g id="a_Node000011"><a xlink:href="../../d1/d68/class_slic3r_1_1_layer.html#ade692e794d3a272a9b6985022eea64e9" target="_top" xlink:title=" ">
<polygon fill="white" stroke="#666666" points="265.62,-372.12 164.88,-372.12 164.88,-341.62 265.62,-341.62 265.62,-372.12"/>
<text text-anchor="start" x="172.88" y="-358.62" font-family="Helvetica,sans-Serif" font-size="10.00">Slic3r::Layer::make</text>
<text text-anchor="middle" x="215.25" y="-347.38" font-family="Helvetica,sans-Serif" font-size="10.00">_perimeters</text>
</a>
</g>
</g>
<!-- Node10&#45;&gt;Node11 -->
<g id="edge10_Node000010_Node000011" class="edge">
<title>Node10&#45;&gt;Node11</title>
<g id="a_edge10_Node000010_Node000011"><a xlink:title=" ">
<path fill="none" stroke="#63b8ff" d="M311.93,-356.88C296.72,-356.88 280.59,-356.88 265.99,-356.88"/>
<polygon fill="#63b8ff" stroke="#63b8ff" points="311.8,-360.38 321.8,-356.88 311.8,-353.38 311.8,-360.38"/>
</a>
</g>
</g>
<!-- Node12&#45;&gt;Node10 -->
<g id="edge12_Node000012_Node000010" class="edge">
<title>Node12&#45;&gt;Node10</title>
<g id="a_edge12_Node000012_Node000010"><a xlink:title=" ">
<path fill="none" stroke="#63b8ff" d="M459.83,-350.53C447.89,-351.42 435.81,-352.32 424.66,-353.16"/>
<polygon fill="#63b8ff" stroke="#63b8ff" points="460.02,-353.95 469.73,-349.72 459.5,-346.97 460.02,-353.95"/>
</a>
</g>
</g>
<!-- Node14 -->
<g id="Node000014" class="node">
<title>Node14</title>
<g id="a_Node000014"><a xlink:href="../../d9/d4e/class_slic3r_1_1_f_f_f_tree_support_1_1_rich_interface_placer.html#a5cf51f0d9f9a04742a0179ed24433c9a" target="_top" xlink:title=" ">
<polygon fill="white" stroke="#666666" points="598.38,-311.75 475.12,-311.75 475.12,-270 598.38,-270 598.38,-311.75"/>
<text text-anchor="start" x="483.12" y="-298.25" font-family="Helvetica,sans-Serif" font-size="10.00">Slic3r::FFFTreeSupport</text>
<text text-anchor="start" x="483.12" y="-287" font-family="Helvetica,sans-Serif" font-size="10.00">::RichInterfacePlacer</text>
<text text-anchor="middle" x="536.75" y="-275.75" font-family="Helvetica,sans-Serif" font-size="10.00">::add_points_along_lines</text>
</a>
</g>
</g>
<!-- Node13&#45;&gt;Node14 -->
<g id="edge14_Node000013_Node000014" class="edge">
<title>Node13&#45;&gt;Node14</title>
<g id="a_edge14_Node000013_Node000014"><a xlink:title=" ">
<path fill="none" stroke="#63b8ff" d="M627.52,-290.88C617.8,-290.88 608.02,-290.88 598.67,-290.88"/>
<polygon fill="#63b8ff" stroke="#63b8ff" points="627.45,-294.38 637.45,-290.88 627.45,-287.38 627.45,-294.38"/>
</a>
</g>
</g>
<!-- Node15 -->
<g id="Node000015" class="node">
<title>Node15</title>
<g id="a_Node000015"><a xlink:href="../../dd/df4/namespace_slic3r_1_1_f_f_f_tree_support.html#a5bd26448acb9c08a9f4fd663da07c11c" target="_top" xlink:title=" ">
<polygon fill="white" stroke="#666666" points="435,-287.12 312.5,-287.12 312.5,-256.62 435,-256.62 435,-287.12"/>
<text text-anchor="start" x="320.5" y="-273.62" font-family="Helvetica,sans-Serif" font-size="10.00">Slic3r::FFFTreeSupport</text>
<text text-anchor="middle" x="373.75" y="-262.38" font-family="Helvetica,sans-Serif" font-size="10.00">::sample_overhang_area</text>
</a>
</g>
</g>
<!-- Node13&#45;&gt;Node15 -->
<g id="edge17_Node000013_Node000015" class="edge">
<title>Node13&#45;&gt;Node15</title>
<g id="a_edge17_Node000013_Node000015"><a xlink:title=" ">
<path fill="none" stroke="#63b8ff" d="M653.8,-272.09C637.45,-267.47 619.43,-263.19 602.5,-260.88 546.22,-253.17 481.47,-257.56 435.44,-262.9"/>
<polygon fill="#63b8ff" stroke="#63b8ff" points="652.7,-275.71 663.28,-275.15 654.67,-268.99 652.7,-275.71"/>
</a>
</g>
</g>
<!-- Node14&#45;&gt;Node15 -->
<g id="edge15_Node000014_Node000015" class="edge">
<title>Node14&#45;&gt;Node15</title>
<g id="a_edge15_Node000014_Node000015"><a xlink:title=" ">
<path fill="none" stroke="#63b8ff" d="M464.16,-282.43C454.57,-281.29 444.81,-280.14 435.44,-279.04"/>
<polygon fill="#63b8ff" stroke="#63b8ff" points="463.54,-286 473.88,-283.69 464.36,-279.04 463.54,-286"/>
</a>
</g>
</g>
<!-- Node15&#45;&gt;Node15 -->
<g id="edge16_Node000015_Node000015" class="edge">
<title>Node15&#45;&gt;Node15</title>
<g id="a_edge16_Node000015_Node000015"><a xlink:title=" ">
<path fill="none" stroke="#63b8ff" d="M400.69,-298.5C396.49,-302.45 387.51,-305.12 373.75,-305.12 349.29,-305.12 339.93,-296.68 345.66,-287.61"/>
<polygon fill="#63b8ff" stroke="#63b8ff" points="404.27,-298.92 401.84,-288.61 397.31,-298.19 404.27,-298.92"/>
</a>
</g>
</g>
<!-- Node17 -->
<g id="Node000017" class="node">
<title>Node17</title>
<g id="a_Node000017"><a xlink:href="../../d3/d93/class_slic3r_1_1_fill_lightning_1_1_generator.html#a131130c615a8975a46729204ba3cc268" target="_top" xlink:title=" ">
<polygon fill="white" stroke="#666666" points="593.5,-214.12 480,-214.12 480,-183.62 593.5,-183.62 593.5,-214.12"/>
<text text-anchor="start" x="488" y="-200.62" font-family="Helvetica,sans-Serif" font-size="10.00">Slic3r::FillLightning</text>
<text text-anchor="middle" x="536.75" y="-189.38" font-family="Helvetica,sans-Serif" font-size="10.00">::Generator::Generator</text>
</a>
</g>
</g>
<!-- Node16&#45;&gt;Node17 -->
<g id="edge19_Node000016_Node000017" class="edge">
<title>Node16&#45;&gt;Node17</title>
<g id="a_edge19_Node000016_Node000017"><a xlink:title=" ">
<path fill="none" stroke="#63b8ff" d="M633.74,-210.58C620.34,-208.94 606.63,-207.27 593.91,-205.72"/>
<polygon fill="#63b8ff" stroke="#63b8ff" points="633.04,-214.14 643.39,-211.88 633.89,-207.19 633.04,-214.14"/>
</a>
</g>
</g>
<!-- Node18&#45;&gt;Node4 -->
<g id="edge21_Node000018_Node000004" class="edge">
<title>Node18&#45;&gt;Node4</title>
<g id="a_edge21_Node000018_Node000004"><a xlink:title=" ">
<path fill="none" stroke="#63b8ff" d="M644.62,-412.47C627.63,-417.31 609.5,-422.46 593.09,-427.13"/>
<polygon fill="#63b8ff" stroke="#63b8ff" points="645.36,-415.62 654.03,-409.51 643.45,-408.88 645.36,-415.62"/>
</a>
</g>
</g>
<!-- Node20 -->
<g id="Node000020" class="node">
<title>Node20</title>
<g id="a_Node000020"><a xlink:href="../../dd/df4/namespace_slic3r_1_1_f_f_f_tree_support.html#a0931050cec7937180b5b2cb962c64fde" target="_top" xlink:title="Checks if an influence area contains a valid subsection and returns the corresponding metadata and th...">
<polygon fill="white" stroke="#666666" points="595.75,-147.12 477.75,-147.12 477.75,-116.62 595.75,-116.62 595.75,-147.12"/>
<text text-anchor="start" x="485.75" y="-133.62" font-family="Helvetica,sans-Serif" font-size="10.00">Slic3r::FFFTreeSupport</text>
<text text-anchor="middle" x="536.75" y="-122.38" font-family="Helvetica,sans-Serif" font-size="10.00">::increase_single_area</text>
</a>
</g>
</g>
<!-- Node19&#45;&gt;Node20 -->
<g id="edge23_Node000019_Node000020" class="edge">
<title>Node19&#45;&gt;Node20</title>
<g id="a_edge23_Node000019_Node000020"><a xlink:title=" ">
<path fill="none" stroke="#63b8ff" d="M640.98,-131.88C626.07,-131.88 610.45,-131.88 596.01,-131.88"/>
<polygon fill="#63b8ff" stroke="#63b8ff" points="640.68,-135.38 650.68,-131.88 640.68,-128.38 640.68,-135.38"/>
</a>
</g>
</g>
<!-- Node21 -->
<g id="Node000021" class="node">
<title>Node21</title>
<g id="a_Node000021"><a xlink:href="../../dd/df4/namespace_slic3r_1_1_f_f_f_tree_support.html#abb175d116e2dfb6bc27c8f0005bfd906" target="_top" xlink:title=" ">
<polygon fill="white" stroke="#666666" points="598,-80.75 475.5,-80.75 475.5,-39 598,-39 598,-80.75"/>
<text text-anchor="start" x="483.5" y="-67.25" font-family="Helvetica,sans-Serif" font-size="10.00">Slic3r::FFFTreeSupport</text>
<text text-anchor="start" x="483.5" y="-56" font-family="Helvetica,sans-Serif" font-size="10.00">::merge_influence_areas</text>
<text text-anchor="middle" x="536.75" y="-44.75" font-family="Helvetica,sans-Serif" font-size="10.00">_two_elements</text>
</a>
</g>
</g>
<!-- Node19&#45;&gt;Node21 -->
<g id="edge25_Node000019_Node000021" class="edge">
<title>Node19&#45;&gt;Node21</title>
<g id="a_edge25_Node000019_Node000021"><a xlink:title=" ">
<path fill="none" stroke="#63b8ff" d="M662.77,-112.13C639.82,-102.54 612.21,-91 588.78,-81.2"/>
<polygon fill="#63b8ff" stroke="#63b8ff" points="661.05,-115.62 671.62,-116.25 663.75,-109.17 661.05,-115.62"/>
</a>
</g>
</g>
<!-- Node20&#45;&gt;Node20 -->
<g id="edge24_Node000020_Node000020" class="edge">
<title>Node20&#45;&gt;Node20</title>
<g id="a_edge24_Node000020_Node000020"><a xlink:title=" ">
<path fill="none" stroke="#63b8ff" d="M564.46,-158.5C560.13,-162.45 550.9,-165.12 536.75,-165.12 511.6,-165.12 501.97,-156.68 507.87,-147.61"/>
<polygon fill="#63b8ff" stroke="#63b8ff" points="568.04,-158.93 565.63,-148.61 561.08,-158.18 568.04,-158.93"/>
</a>
</g>
</g>
<!-- Node21&#45;&gt;Node21 -->
<g id="edge32_Node000021_Node000021" class="edge">
<title>Node21&#45;&gt;Node21</title>
<g id="a_edge32_Node000021_Node000021"><a xlink:title=" ">
<path fill="none" stroke="#63b8ff" d="M563.94,-91.53C559.42,-95.86 550.36,-98.75 536.75,-98.75 513.83,-98.75 503.8,-90.55 506.67,-81.07"/>
<polygon fill="#63b8ff" stroke="#63b8ff" points="567.54,-92.64 566.83,-82.07 560.8,-90.77 567.54,-92.64"/>
</a>
</g>
</g>
<!-- Node22 -->
<g id="Node000022" class="node">
<title>Node22</title>
<g id="a_Node000022"><a xlink:href="../../dd/df4/namespace_slic3r_1_1_f_f_f_tree_support.html#ad858edd51a19e644532ce4d00379fb76" target="_top" xlink:title="Merges Influence Areas if possible.">
<polygon fill="white" stroke="#666666" points="435,-119.75 312.5,-119.75 312.5,-78 435,-78 435,-119.75"/>
<text text-anchor="start" x="320.5" y="-106.25" font-family="Helvetica,sans-Serif" font-size="10.00">Slic3r::FFFTreeSupport</text>
<text text-anchor="start" x="320.5" y="-95" font-family="Helvetica,sans-Serif" font-size="10.00">::merge_influence_areas</text>
<text text-anchor="middle" x="373.75" y="-83.75" font-family="Helvetica,sans-Serif" font-size="10.00">_leaves</text>
</a>
</g>
</g>
<!-- Node21&#45;&gt;Node22 -->
<g id="edge26_Node000021_Node000022" class="edge">
<title>Node21&#45;&gt;Node22</title>
<g id="a_edge26_Node000021_Node000022"><a xlink:title=" ">
<path fill="none" stroke="#63b8ff" d="M464.83,-77.05C455.05,-79.42 445.07,-81.84 435.5,-84.16"/>
<polygon fill="#63b8ff" stroke="#63b8ff" points="465.45,-80.26 474.34,-74.51 463.8,-73.46 465.45,-80.26"/>
</a>
</g>
</g>
<!-- Node26 -->
<g id="Node000026" class="node">
<title>Node26</title>
<g id="a_Node000026"><a xlink:href="../../dd/df4/namespace_slic3r_1_1_f_f_f_tree_support.html#ab2ce227e4f177e6b0a86047f62857854" target="_top" xlink:title=" ">
<polygon fill="white" stroke="#666666" points="435,-41.75 312.5,-41.75 312.5,0 435,0 435,-41.75"/>
<text text-anchor="start" x="320.5" y="-28.25" font-family="Helvetica,sans-Serif" font-size="10.00">Slic3r::FFFTreeSupport</text>
<text text-anchor="start" x="320.5" y="-17" font-family="Helvetica,sans-Serif" font-size="10.00">::merge_influence_areas</text>
<text text-anchor="middle" x="373.75" y="-5.75" font-family="Helvetica,sans-Serif" font-size="10.00">_two_sets</text>
</a>
</g>
</g>
<!-- Node21&#45;&gt;Node26 -->
<g id="edge33_Node000021_Node000026" class="edge">
<title>Node21&#45;&gt;Node26</title>
<g id="a_edge33_Node000021_Node000026"><a xlink:title=" ">
<path fill="none" stroke="#63b8ff" d="M464.83,-42.7C455.05,-40.33 445.07,-37.91 435.5,-35.59"/>
<polygon fill="#63b8ff" stroke="#63b8ff" points="463.8,-46.29 474.34,-45.24 465.45,-39.49 463.8,-46.29"/>
</a>
</g>
</g>
<!-- Node22&#45;&gt;Node22 -->
<g id="edge31_Node000022_Node000022" class="edge">
<title>Node22&#45;&gt;Node22</title>
<g id="a_edge31_Node000022_Node000022"><a xlink:title=" ">
<path fill="none" stroke="#63b8ff" d="M400.19,-130.53C395.8,-134.86 386.98,-137.75 373.75,-137.75 351.46,-137.75 341.71,-129.55 344.5,-120.07"/>
<polygon fill="#63b8ff" stroke="#63b8ff" points="403.79,-131.63 403,-121.07 397.03,-129.82 403.79,-131.63"/>
</a>
</g>
</g>
<!-- Node23 -->
<g id="Node000023" class="node">
<title>Node23</title>
<g id="a_Node000023"><a xlink:href="../../dd/df4/namespace_slic3r_1_1_f_f_f_tree_support.html#a072f8fb61613be20955808d6ea3da0eb" target="_top" xlink:title="Merges Influence Areas at one layer if possible.">
<polygon fill="white" stroke="#666666" points="276.5,-114.12 154,-114.12 154,-83.62 276.5,-83.62 276.5,-114.12"/>
<text text-anchor="start" x="162" y="-100.62" font-family="Helvetica,sans-Serif" font-size="10.00">Slic3r::FFFTreeSupport</text>
<text text-anchor="middle" x="215.25" y="-89.38" font-family="Helvetica,sans-Serif" font-size="10.00">::merge_influence_areas</text>
</a>
</g>
</g>
<!-- Node22&#45;&gt;Node23 -->
<g id="edge27_Node000022_Node000023" class="edge">
<title>Node22&#45;&gt;Node23</title>
<g id="a_edge27_Node000022_Node000023"><a xlink:title=" ">
<path fill="none" stroke="#63b8ff" d="M301.51,-98.88C293.27,-98.88 284.93,-98.88 276.85,-98.88"/>
<polygon fill="#63b8ff" stroke="#63b8ff" points="301.24,-102.38 311.24,-98.88 301.24,-95.38 301.24,-102.38"/>
</a>
</g>
</g>
<!-- Node23&#45;&gt;Node23 -->
<g id="edge30_Node000023_Node000023" class="edge">
<title>Node23&#45;&gt;Node23</title>
<g id="a_edge30_Node000023_Node000023"><a xlink:title=" ">
<path fill="none" stroke="#63b8ff" d="M241.81,-125.5C237.66,-129.45 228.81,-132.12 215.25,-132.12 191.14,-132.12 181.91,-123.68 187.56,-114.61"/>
<polygon fill="#63b8ff" stroke="#63b8ff" points="245.39,-125.92 242.94,-115.61 238.43,-125.2 245.39,-125.92"/>
</a>
</g>
</g>
<!-- Node24 -->
<g id="Node000024" class="node">
<title>Node24</title>
<g id="a_Node000024"><a xlink:href="../../dd/df4/namespace_slic3r_1_1_f_f_f_tree_support.html#aeb49cf1fc20a86890b55d203812fd7bb" target="_top" xlink:title="Propagates influence downwards, and merges overlapping ones.">
<polygon fill="#fff0f0" stroke="red" points="118,-114.12 0,-114.12 0,-83.62 118,-83.62 118,-114.12"/>
<text text-anchor="start" x="8" y="-100.62" font-family="Helvetica,sans-Serif" font-size="10.00">Slic3r::FFFTreeSupport</text>
<text text-anchor="middle" x="59" y="-89.38" font-family="Helvetica,sans-Serif" font-size="10.00">::create_layer_pathing</text>
</a>
</g>
</g>
<!-- Node23&#45;&gt;Node24 -->
<g id="edge28_Node000023_Node000024" class="edge">
<title>Node23&#45;&gt;Node24</title>
<g id="a_edge28_Node000023_Node000024"><a xlink:title=" ">
<path fill="none" stroke="#63b8ff" d="M142.97,-98.88C134.72,-98.88 126.38,-98.88 118.33,-98.88"/>
<polygon fill="#63b8ff" stroke="#63b8ff" points="142.73,-102.38 152.73,-98.88 142.73,-95.38 142.73,-102.38"/>
</a>
</g>
</g>
<!-- Node24&#45;&gt;Node24 -->
<g id="edge29_Node000024_Node000024" class="edge">
<title>Node24&#45;&gt;Node24</title>
<g id="a_edge29_Node000024_Node000024"><a xlink:title=" ">
<path fill="none" stroke="#63b8ff" d="M85.56,-125.5C81.41,-129.45 72.56,-132.12 59,-132.12 34.89,-132.12 25.66,-123.68 31.31,-114.61"/>
<polygon fill="#63b8ff" stroke="#63b8ff" points="89.14,-125.92 86.69,-115.61 82.18,-125.2 89.14,-125.92"/>
</a>
</g>
</g>
<!-- Node26&#45;&gt;Node26 -->
<g id="edge34_Node000026_Node000026" class="edge">
<title>Node26&#45;&gt;Node26</title>
<g id="a_edge34_Node000026_Node000026"><a xlink:title=" ">
<path fill="none" stroke="#63b8ff" d="M400.19,-52.53C395.8,-56.86 386.98,-59.75 373.75,-59.75 351.46,-59.75 341.71,-51.55 344.5,-42.07"/>
<polygon fill="#63b8ff" stroke="#63b8ff" points="403.79,-53.63 403,-43.07 397.03,-51.82 403.79,-53.63"/>
</a>
</g>
</g>
</g>
</svg>

<g id="navigator" transform="translate(0 0)" fill="#404254">
  <rect fill="#f2f5e9" fill-opacity="0.5" stroke="#606060" stroke-width=".5" x="0" y="0" width="60" height="60"/>
  <use id="zoomplus" xlink:href="#zoomPlus" x="17" y="9" onmousedown="handleZoom(evt,'in')"/>
  <use id="zoomminus" xlink:href="#zoomMin" x="42" y="9" onmousedown="handleZoom(evt,'out')"/>
  <use id="reset" xlink:href="#resetDef" x="30" y="36" onmousedown="handleReset()"/>
   <use id="arrowup" xlink:href="#arrowUp" x="0" y="0" onmousedown="handlePan(0,-1)"/>
  <use id="arrowright" xlink:href="#arrowRight" x="0" y="0" onmousedown="handlePan(1,0)"/>
  <use id="arrowdown" xlink:href="#arrowDown" x="0" y="0" onmousedown="handlePan(0,1)"/>
  <use id="arrowleft" xlink:href="#arrowLeft" x="0" y="0" onmousedown="handlePan(-1,0)"/>
</g>
<svg viewBox="0 0 15 15" width="100%" height="30px" preserveAspectRatio="xMaxYMin meet">
 <g id="arrow_out" transform="scale(0.3 0.3)">
  <a xlink:href="class_slic3r_1_1_bounding_box_afdf8cd62dd83f934bac9758e302c3bd1_icgraph_org.svg" target="_base">
   <rect id="button" ry="5" rx="5" y="6" x="6" height="38" width="38"
        fill="#f2f5e9" fill-opacity="0.5" stroke="#606060" stroke-width="1.0"/>
   <path id="arrow"
     d="M 11.500037,31.436501 C 11.940474,20.09759 22.043105,11.32322 32.158766,21.979434 L 37.068811,17.246167 C 37.068811,17.246167 37.088388,32 37.088388,32 L 22.160133,31.978069 C 22.160133,31.978069 26.997745,27.140456 26.997745,27.140456 C 18.528582,18.264221 13.291696,25.230495 11.500037,31.436501 z"
     style="fill:#404040;"/>
  </a>
 </g>
</svg>

<style type='text/css'>
<![CDATA[
[data-mouse-over-selected='false'] { opacity: 0.7; }
[data-mouse-over-selected='true']  { opacity: 1.0; }
]]>
</style>
<script type="application/ecmascript"><![CDATA[
document.addEventListener('DOMContentLoaded', (event) => {
  highlightEdges();
  highlightAdjacentNodes();
});
]]></script>
</svg>
