<?xml version="1.0" encoding="UTF-8" standalone="no"?>
<!DOCTYPE svg PUBLIC "-//W3C//DTD SVG 1.1//EN"
 "http://www.w3.org/Graphics/SVG/1.1/DTD/svg11.dtd">
<!-- Generated by graphviz version 8.0.5 (20230430.1635)
 -->
<!-- Title: Slic3r::IntersectionPoint Pages: 1 -->
<!--zoomable 153 -->

<svg id="main" version="1.1" xmlns="http://www.w3.org/2000/svg" xmlns:xlink="http://www.w3.org/1999/xlink" xml:space="preserve" onload="init(evt)">
<style type="text/css"><![CDATA[
.node, .edge {opacity: 0.7;}
.node.selected, .edge.selected {opacity: 1;}
.edge:hover path { stroke: red; }
.edge:hover polygon { stroke: red; fill: red; }
]]></style>

<defs>
  <circle id="rim" cx="0" cy="0" r="7"/>
  <circle id="rim2" cx="0" cy="0" r="3.5"/>
  <g id="zoomPlus">
    <use xlink:href="#rim" fill="#404040"><set attributeName="fill" to="#808080" begin="zoomplus.mouseover" end="zoomplus.mouseout"/></use>
    <path d="M-4,0h8M0,-4v8" fill="none" stroke="white" stroke-width="1.5" pointer-events="none"/>
  </g>
  <g id="zoomMin">
    <use xlink:href="#rim" fill="#404040"><set attributeName="fill" to="#808080" begin="zoomminus.mouseover" end="zoomminus.mouseout"/></use>
    <path d="M-4,0h8" fill="none" stroke="white" stroke-width="1.5" pointer-events="none"/>
  </g>
  <g id="arrowUp" transform="translate(30 24)">
    <use xlink:href="#rim"/>
    <path pointer-events="none" fill="none" stroke="white" stroke-width="1.5" d="M0,-3.0v7 M-2.5,-0.5L0,-3.0L2.5,-0.5"/>
  </g>
  <g id="arrowRight" transform="rotate(90) translate(36 -43)">
    <use xlink:href="#rim"/>
    <path pointer-events="none" fill="none" stroke="white" stroke-width="1.5" d="M0,-3.0v7 M-2.5,-0.5L0,-3.0L2.5,-0.5"/>
  </g>
  <g id="arrowDown" transform="rotate(180) translate(-30 -48)">
    <use xlink:href="#rim"/>
    <path pointer-events="none" fill="none" stroke="white" stroke-width="1.5" d="M0,-3.0v7 M-2.5,-0.5L0,-3.0L2.5,-0.5"/>
  </g>
  <g id="arrowLeft" transform="rotate(270) translate(-36 17)">
    <use xlink:href="#rim"/>
    <path pointer-events="none" fill="none" stroke="white" stroke-width="1.5" d="M0,-3.0v7 M-2.5,-0.5L0,-3.0L2.5,-0.5"/>
  </g>
  <g id="resetDef">
    <use xlink:href="#rim2" fill="#404040"><set attributeName="fill" to="#808080" begin="reset.mouseover" end="reset.mouseout"/></use>
  </g>
</defs>
<script type="application/ecmascript">
var viewWidth = 1302;
var viewHeight = 153;
var sectionId = 'dynsection-0';
</script>
<script type="application/ecmascript" xlink:href="../../svg.min.js"/>
<svg id="graph" class="graph">
<g id="viewport">
<title>Slic3r::IntersectionPoint</title>
<!-- Node1 -->
<g id="Node000001" class="node">
<title>Node1</title>
<g id="a_Node000001"><a xlink:title=" ">
<polygon fill="#999999" stroke="#666666" points="1293.5,-90.12 1173.25,-90.12 1173.25,-70.88 1293.5,-70.88 1293.5,-90.12"/>
<text text-anchor="middle" x="1233.38" y="-76.62" font-family="Helvetica,sans-Serif" font-size="10.00">Slic3r::IntersectionPoint</text>
</a>
</g>
</g>
<!-- Node2 -->
<g id="Node000002" class="node">
<title>Node2</title>
<g id="a_Node000002"><a xlink:href="../../d6/dec/class_slic3r_1_1_point.html" target="_top" xlink:title=" ">
<polygon fill="white" stroke="#666666" points="1099.5,-115.12 1030.25,-115.12 1030.25,-95.88 1099.5,-95.88 1099.5,-115.12"/>
<text text-anchor="middle" x="1064.88" y="-101.62" font-family="Helvetica,sans-Serif" font-size="10.00">Slic3r::Point</text>
</a>
</g>
</g>
<!-- Node2&#45;&gt;Node1 -->
<g id="edge1_Node000001_Node000002" class="edge">
<title>Node2&#45;&gt;Node1</title>
<g id="a_edge1_Node000001_Node000002"><a xlink:title=" ">
<path fill="none" stroke="#63b8ff" d="M1110.8,-98.75C1129.95,-95.88 1152.56,-92.48 1173.06,-89.41"/>
<polygon fill="#63b8ff" stroke="#63b8ff" points="1110.34,-95.43 1100.97,-100.38 1111.38,-102.36 1110.34,-95.43"/>
</a>
</g>
</g>
<!-- Node3 -->
<g id="Node000003" class="node">
<title>Node3</title>
<g id="a_Node000003"><a xlink:href="../../d2/d2d/class_eigen_1_1_matrix.html" target="_top" xlink:title=" ">
<polygon fill="white" stroke="#666666" points="956.5,-115.12 904.5,-115.12 904.5,-95.88 956.5,-95.88 956.5,-115.12"/>
<text text-anchor="middle" x="930.5" y="-101.62" font-family="Helvetica,sans-Serif" font-size="10.00">Vec2crd</text>
</a>
</g>
</g>
<!-- Node3&#45;&gt;Node2 -->
<g id="edge2_Node000002_Node000003" class="edge">
<title>Node3&#45;&gt;Node2</title>
<g id="a_edge2_Node000002_Node000003"><a xlink:title=" ">
<path fill="none" stroke="#63b8ff" d="M967.54,-105.5C986.92,-105.5 1010.68,-105.5 1029.76,-105.5"/>
<polygon fill="#63b8ff" stroke="#63b8ff" points="967.71,-102 957.71,-105.5 967.71,-109 967.71,-102"/>
</a>
</g>
</g>
<!-- Node4 -->
<g id="Node000004" class="node">
<title>Node4</title>
<g id="a_Node000004"><a xlink:href="../../da/d8d/class_eigen_1_1_plain_object_base.html" target="_top" xlink:title=" ">
<polygon fill="white" stroke="#666666" points="438.12,-144.75 318.62,-144.75 318.62,-114.25 438.12,-114.25 438.12,-144.75"/>
<text text-anchor="start" x="326.62" y="-131.25" font-family="Helvetica,sans-Serif" font-size="10.00">Eigen::PlainObjectBase</text>
<text text-anchor="middle" x="378.38" y="-120" font-family="Helvetica,sans-Serif" font-size="10.00">&lt; Derived &gt;</text>
</a>
</g>
</g>
<!-- Node4&#45;&gt;Node3 -->
<g id="edge3_Node000003_Node000004" class="edge">
<title>Node4&#45;&gt;Node3</title>
<g id="a_edge3_Node000003_Node000004"><a xlink:title=" ">
<path fill="none" stroke="#63b8ff" d="M449.59,-131.99C547.79,-134.47 731.52,-135.45 886.5,-115.5 892.28,-114.76 898.41,-113.57 904.19,-112.28"/>
<polygon fill="#63b8ff" stroke="#63b8ff" points="449.71,-128.47 439.62,-131.7 449.53,-135.47 449.71,-128.47"/>
</a>
</g>
</g>
<!-- Node5 -->
<g id="Node000005" class="node">
<title>Node5</title>
<g id="a_Node000005"><a xlink:title=" ">
<polygon fill="white" stroke="#666666" points="98.5,-122.75 0,-122.75 0,-92.25 98.5,-92.25 98.5,-122.75"/>
<text text-anchor="start" x="8" y="-109.25" font-family="Helvetica,sans-Serif" font-size="10.00">internal::dense_xpr</text>
<text text-anchor="middle" x="49.25" y="-98" font-family="Helvetica,sans-Serif" font-size="10.00">_base::type</text>
</a>
</g>
</g>
<!-- Node5&#45;&gt;Node4 -->
<g id="edge4_Node000004_Node000005" class="edge">
<title>Node5&#45;&gt;Node4</title>
<g id="a_edge4_Node000004_Node000005"><a xlink:title=" ">
<path fill="none" stroke="#63b8ff" d="M109.64,-112.96C111.96,-113.15 114.25,-113.33 116.5,-113.5 185.73,-118.76 265.39,-123.44 318.28,-126.37"/>
<polygon fill="#63b8ff" stroke="#63b8ff" points="109.98,-109.4 99.72,-112.05 109.4,-116.37 109.98,-109.4"/>
</a>
</g>
</g>
<!-- Node9 -->
<g id="Node000009" class="node">
<title>Node9</title>
<g id="a_Node000009"><a xlink:href="../../da/d8d/class_eigen_1_1_plain_object_base.html" target="_top" xlink:title=" ">
<polygon fill="white" stroke="#666666" points="277.5,-101.75 158,-101.75 158,-71.25 277.5,-71.25 277.5,-101.75"/>
<text text-anchor="start" x="166" y="-88.25" font-family="Helvetica,sans-Serif" font-size="10.00">Eigen::PlainObjectBase</text>
<text text-anchor="middle" x="217.75" y="-77" font-family="Helvetica,sans-Serif" font-size="10.00">&lt; Derived &gt;</text>
</a>
</g>
</g>
<!-- Node5&#45;&gt;Node9 -->
<g id="edge9_Node000009_Node000005" class="edge">
<title>Node5&#45;&gt;Node9</title>
<g id="a_edge9_Node000009_Node000005"><a xlink:title=" ">
<path fill="none" stroke="#63b8ff" d="M109.48,-100.03C125.16,-98.05 142.09,-95.92 157.76,-93.94"/>
<polygon fill="#63b8ff" stroke="#63b8ff" points="109.34,-96.65 99.86,-101.37 110.22,-103.59 109.34,-96.65"/>
</a>
</g>
</g>
<!-- Node6 -->
<g id="Node000006" class="node">
<title>Node6</title>
<g id="a_Node000006"><a xlink:href="../../d2/d2d/class_eigen_1_1_matrix.html" target="_top" xlink:title="The matrix class, also used for vectors and row&#45;vectors.">
<polygon fill="white" stroke="#666666" points="771,-100.38 641.75,-100.38 641.75,-58.62 771,-58.62 771,-100.38"/>
<text text-anchor="start" x="649.75" y="-86.88" font-family="Helvetica,sans-Serif" font-size="10.00">Eigen::Matrix&lt; _Scalar,</text>
<text text-anchor="start" x="649.75" y="-75.62" font-family="Helvetica,sans-Serif" font-size="10.00"> _Rows, _Cols, _Options,</text>
<text text-anchor="middle" x="706.38" y="-64.38" font-family="Helvetica,sans-Serif" font-size="10.00"> _MaxRows, _MaxCols &gt;</text>
</a>
</g>
</g>
<!-- Node6&#45;&gt;Node3 -->
<g id="edge5_Node000003_Node000006" class="edge">
<title>Node6&#45;&gt;Node3</title>
<g id="a_edge5_Node000003_Node000006"><a xlink:title=" ">
<path fill="none" stroke="orange" stroke-dasharray="5,2" d="M781.93,-81.65C814.27,-83.48 852.45,-86.84 886.5,-93 892.31,-94.05 898.47,-95.58 904.24,-97.21"/>
<polygon fill="orange" stroke="orange" points="782.37,-78.12 772.2,-81.09 782,-85.11 782.37,-78.12"/>
</a>
</g>
<text text-anchor="start" x="789" y="-106.5" font-family="Helvetica,sans-Serif" font-size="10.00" fill="grey"> &lt; coord_t, 2, 1, Eigen</text>
<text text-anchor="middle" x="837.75" y="-95.25" font-family="Helvetica,sans-Serif" font-size="10.00" fill="grey">::DontAlign &gt;</text>
</g>
<!-- Node7 -->
<g id="Node000007" class="node">
<title>Node7</title>
<g id="a_Node000007"><a xlink:href="../../da/d8d/class_eigen_1_1_plain_object_base.html" target="_top" xlink:title=" ">
<polygon fill="white" stroke="#666666" points="604.75,-101 456.75,-101 456.75,-48 604.75,-48 604.75,-101"/>
<text text-anchor="start" x="464.75" y="-87.5" font-family="Helvetica,sans-Serif" font-size="10.00">Eigen::PlainObjectBase</text>
<text text-anchor="start" x="464.75" y="-76.25" font-family="Helvetica,sans-Serif" font-size="10.00">&lt; Matrix&lt; _Scalar, _Rows,</text>
<text text-anchor="start" x="464.75" y="-65" font-family="Helvetica,sans-Serif" font-size="10.00"> _Cols, _Options, _MaxRows,</text>
<text text-anchor="middle" x="530.75" y="-53.75" font-family="Helvetica,sans-Serif" font-size="10.00"> _MaxCols &gt; &gt;</text>
</a>
</g>
</g>
<!-- Node7&#45;&gt;Node6 -->
<g id="edge6_Node000006_Node000007" class="edge">
<title>Node7&#45;&gt;Node6</title>
<g id="a_edge6_Node000006_Node000007"><a xlink:title=" ">
<path fill="none" stroke="#63b8ff" d="M615.91,-76.92C624.46,-77.17 633.04,-77.42 641.33,-77.66"/>
<polygon fill="#63b8ff" stroke="#63b8ff" points="616.23,-73.4 606.13,-76.61 616.03,-80.4 616.23,-73.4"/>
</a>
</g>
</g>
<!-- Node8 -->
<g id="Node000008" class="node">
<title>Node8</title>
<g id="a_Node000008"><a xlink:title=" ">
<polygon fill="white" stroke="#666666" points="300,-53 135.5,-53 135.5,0 300,0 300,-53"/>
<text text-anchor="start" x="143.5" y="-39.5" font-family="Helvetica,sans-Serif" font-size="10.00">internal::dense_xpr</text>
<text text-anchor="start" x="143.5" y="-28.25" font-family="Helvetica,sans-Serif" font-size="10.00">_base&lt; Matrix&lt; _Scalar,</text>
<text text-anchor="start" x="143.5" y="-17" font-family="Helvetica,sans-Serif" font-size="10.00"> _Rows, _Cols, _Options,</text>
<text text-anchor="middle" x="217.75" y="-5.75" font-family="Helvetica,sans-Serif" font-size="10.00"> _MaxRows, _MaxCols &gt; &#160;&gt;::type</text>
</a>
</g>
</g>
<!-- Node8&#45;&gt;Node7 -->
<g id="edge7_Node000007_Node000008" class="edge">
<title>Node8&#45;&gt;Node7</title>
<g id="a_edge7_Node000007_Node000008"><a xlink:title=" ">
<path fill="none" stroke="#63b8ff" d="M311.12,-40.76C357.48,-47.91 412.86,-56.46 456.28,-63.16"/>
<polygon fill="#63b8ff" stroke="#63b8ff" points="311.88,-37.18 301.46,-39.11 310.81,-44.1 311.88,-37.18"/>
</a>
</g>
</g>
<!-- Node9&#45;&gt;Node7 -->
<g id="edge8_Node000007_Node000009" class="edge">
<title>Node9&#45;&gt;Node7</title>
<g id="a_edge8_Node000007_Node000009"><a xlink:title=" ">
<path fill="none" stroke="orange" stroke-dasharray="5,2" d="M288.51,-74.81C298.39,-73.54 308.43,-72.46 318,-71.75 371.52,-67.79 385.09,-70.94 438.75,-71.75 444.6,-71.84 450.66,-71.96 456.74,-72.1"/>
<polygon fill="orange" stroke="orange" points="288.33,-71.44 278.9,-76.25 289.27,-78.38 288.33,-71.44"/>
</a>
</g>
<text text-anchor="start" x="318" y="-96.75" font-family="Helvetica,sans-Serif" font-size="10.00" fill="grey"> &lt; Matrix&lt; _Scalar,</text>
<text text-anchor="start" x="318" y="-85.5" font-family="Helvetica,sans-Serif" font-size="10.00" fill="grey"> _Rows, _Cols, _Options,</text>
<text text-anchor="middle" x="378.38" y="-74.25" font-family="Helvetica,sans-Serif" font-size="10.00" fill="grey"> _MaxRows, _MaxCols &gt; &gt;</text>
</g>
<!-- Node10 -->
<g id="Node000010" class="node">
<title>Node10</title>
<g id="a_Node000010"><a xlink:href="../../d8/dfe/class_slic3r_1_1_intersection_reference.html" target="_top" xlink:title=" ">
<polygon fill="white" stroke="#666666" points="1136.25,-78.12 993.5,-78.12 993.5,-58.88 1136.25,-58.88 1136.25,-78.12"/>
<text text-anchor="middle" x="1064.88" y="-64.62" font-family="Helvetica,sans-Serif" font-size="10.00">Slic3r::IntersectionReference</text>
</a>
</g>
</g>
<!-- Node10&#45;&gt;Node1 -->
<g id="edge10_Node000001_Node000010" class="edge">
<title>Node10&#45;&gt;Node1</title>
<g id="a_edge10_Node000001_Node000010"><a xlink:title=" ">
<path fill="none" stroke="#63b8ff" d="M1147.37,-74.37C1155.99,-75 1164.64,-75.62 1172.95,-76.22"/>
<polygon fill="#63b8ff" stroke="#63b8ff" points="1147.71,-70.82 1137.49,-73.59 1147.21,-77.8 1147.71,-70.82"/>
</a>
</g>
</g>
</g>
</svg>

<g id="navigator" transform="translate(0 0)" fill="#404254">
  <rect fill="#f2f5e9" fill-opacity="0.5" stroke="#606060" stroke-width=".5" x="0" y="0" width="60" height="60"/>
  <use id="zoomplus" xlink:href="#zoomPlus" x="17" y="9" onmousedown="handleZoom(evt,'in')"/>
  <use id="zoomminus" xlink:href="#zoomMin" x="42" y="9" onmousedown="handleZoom(evt,'out')"/>
  <use id="reset" xlink:href="#resetDef" x="30" y="36" onmousedown="handleReset()"/>
   <use id="arrowup" xlink:href="#arrowUp" x="0" y="0" onmousedown="handlePan(0,-1)"/>
  <use id="arrowright" xlink:href="#arrowRight" x="0" y="0" onmousedown="handlePan(1,0)"/>
  <use id="arrowdown" xlink:href="#arrowDown" x="0" y="0" onmousedown="handlePan(0,1)"/>
  <use id="arrowleft" xlink:href="#arrowLeft" x="0" y="0" onmousedown="handlePan(-1,0)"/>
</g>
<svg viewBox="0 0 15 15" width="100%" height="30px" preserveAspectRatio="xMaxYMin meet">
 <g id="arrow_out" transform="scale(0.3 0.3)">
  <a xlink:href="class_slic3r_1_1_intersection_point__inherit__graph_org.svg" target="_base">
   <rect id="button" ry="5" rx="5" y="6" x="6" height="38" width="38"
        fill="#f2f5e9" fill-opacity="0.5" stroke="#606060" stroke-width="1.0"/>
   <path id="arrow"
     d="M 11.500037,31.436501 C 11.940474,20.09759 22.043105,11.32322 32.158766,21.979434 L 37.068811,17.246167 C 37.068811,17.246167 37.088388,32 37.088388,32 L 22.160133,31.978069 C 22.160133,31.978069 26.997745,27.140456 26.997745,27.140456 C 18.528582,18.264221 13.291696,25.230495 11.500037,31.436501 z"
     style="fill:#404040;"/>
  </a>
 </g>
</svg>

<style type='text/css'>
<![CDATA[
[data-mouse-over-selected='false'] { opacity: 0.7; }
[data-mouse-over-selected='true']  { opacity: 1.0; }
]]>
</style>
<script type="application/ecmascript"><![CDATA[
document.addEventListener('DOMContentLoaded', (event) => {
  highlightEdges();
  highlightAdjacentNodes();
});
]]></script>
</svg>
