<?xml version="1.0" encoding="UTF-8" standalone="no"?>
<!DOCTYPE svg PUBLIC "-//W3C//DTD SVG 1.1//EN"
 "http://www.w3.org/Graphics/SVG/1.1/DTD/svg11.dtd">
<!-- Generated by graphviz version 8.0.5 (20230430.1635)
 -->
<!-- Title: Slic3r::Extruder::retract_length Pages: 1 -->
<!--zoomable 428 -->

<svg id="main" version="1.1" xmlns="http://www.w3.org/2000/svg" xmlns:xlink="http://www.w3.org/1999/xlink" xml:space="preserve" onload="init(evt)">
<style type="text/css"><![CDATA[
.node, .edge {opacity: 0.7;}
.node.selected, .edge.selected {opacity: 1;}
.edge:hover path { stroke: red; }
.edge:hover polygon { stroke: red; fill: red; }
]]></style>

<defs>
  <circle id="rim" cx="0" cy="0" r="7"/>
  <circle id="rim2" cx="0" cy="0" r="3.5"/>
  <g id="zoomPlus">
    <use xlink:href="#rim" fill="#404040"><set attributeName="fill" to="#808080" begin="zoomplus.mouseover" end="zoomplus.mouseout"/></use>
    <path d="M-4,0h8M0,-4v8" fill="none" stroke="white" stroke-width="1.5" pointer-events="none"/>
  </g>
  <g id="zoomMin">
    <use xlink:href="#rim" fill="#404040"><set attributeName="fill" to="#808080" begin="zoomminus.mouseover" end="zoomminus.mouseout"/></use>
    <path d="M-4,0h8" fill="none" stroke="white" stroke-width="1.5" pointer-events="none"/>
  </g>
  <g id="arrowUp" transform="translate(30 24)">
    <use xlink:href="#rim"/>
    <path pointer-events="none" fill="none" stroke="white" stroke-width="1.5" d="M0,-3.0v7 M-2.5,-0.5L0,-3.0L2.5,-0.5"/>
  </g>
  <g id="arrowRight" transform="rotate(90) translate(36 -43)">
    <use xlink:href="#rim"/>
    <path pointer-events="none" fill="none" stroke="white" stroke-width="1.5" d="M0,-3.0v7 M-2.5,-0.5L0,-3.0L2.5,-0.5"/>
  </g>
  <g id="arrowDown" transform="rotate(180) translate(-30 -48)">
    <use xlink:href="#rim"/>
    <path pointer-events="none" fill="none" stroke="white" stroke-width="1.5" d="M0,-3.0v7 M-2.5,-0.5L0,-3.0L2.5,-0.5"/>
  </g>
  <g id="arrowLeft" transform="rotate(270) translate(-36 17)">
    <use xlink:href="#rim"/>
    <path pointer-events="none" fill="none" stroke="white" stroke-width="1.5" d="M0,-3.0v7 M-2.5,-0.5L0,-3.0L2.5,-0.5"/>
  </g>
  <g id="resetDef">
    <use xlink:href="#rim2" fill="#404040"><set attributeName="fill" to="#808080" begin="reset.mouseover" end="reset.mouseout"/></use>
  </g>
</defs>
<script type="application/ecmascript">
var viewWidth = 1990;
var viewHeight = 428;
var sectionId = 'dynsection-19';
</script>
<script type="application/ecmascript" xlink:href="../../svg.min.js"/>
<svg id="graph" class="graph">
<g id="viewport">
<title>Slic3r::Extruder::retract_length</title>
<!-- Node1 -->
<g id="Node000001" class="node">
<title>Node1</title>
<g id="a_Node000001"><a xlink:title=" ">
<polygon fill="#999999" stroke="#666666" points="1981.75,-144.25 1864.5,-144.25 1864.5,-113.75 1981.75,-113.75 1981.75,-144.25"/>
<text text-anchor="start" x="1872.5" y="-130.75" font-family="Helvetica,sans-Serif" font-size="10.00">Slic3r::Extruder::retract</text>
<text text-anchor="middle" x="1923.12" y="-119.5" font-family="Helvetica,sans-Serif" font-size="10.00">_length</text>
</a>
</g>
</g>
<!-- Node2 -->
<g id="Node000002" class="node">
<title>Node2</title>
<g id="a_Node000002"><a xlink:href="../../da/d7a/class_slic3r_1_1_g_code_writer.html#abb970ff39fd3fd3c7ada6de4a34f851c" target="_top" xlink:title=" ">
<polygon fill="white" stroke="#666666" points="1375.12,-258.25 1272.12,-258.25 1272.12,-227.75 1375.12,-227.75 1375.12,-258.25"/>
<text text-anchor="start" x="1280.12" y="-244.75" font-family="Helvetica,sans-Serif" font-size="10.00">Slic3r::GCodeWriter</text>
<text text-anchor="middle" x="1323.62" y="-233.5" font-family="Helvetica,sans-Serif" font-size="10.00">::retract</text>
</a>
</g>
</g>
<!-- Node1&#45;&gt;Node2 -->
<g id="edge1_Node000001_Node000002" class="edge">
<title>Node1&#45;&gt;Node2</title>
<g id="a_edge1_Node000001_Node000002"><a xlink:title=" ">
<path fill="none" stroke="#63b8ff" d="M1876.18,-148.73C1861.18,-154.61 1844.32,-160.64 1828.5,-165 1666.37,-209.72 1467.34,-231.03 1375.5,-239.04"/>
<polygon fill="#63b8ff" stroke="#63b8ff" points="1877.24,-151.67 1885.22,-144.7 1874.64,-145.17 1877.24,-151.67"/>
</a>
</g>
</g>
<!-- Node7 -->
<g id="Node000007" class="node">
<title>Node7</title>
<g id="a_Node000007"><a xlink:href="../../dd/dc8/class_slic3r_1_1_g_code.html#abf0b5c44d36ce28cc169004804144961" target="_top" xlink:title=" ">
<polygon fill="white" stroke="#666666" points="1228.25,-171.62 1117,-171.62 1117,-152.38 1228.25,-152.38 1228.25,-171.62"/>
<text text-anchor="middle" x="1172.62" y="-158.12" font-family="Helvetica,sans-Serif" font-size="10.00">Slic3r::GCode::retract</text>
</a>
</g>
</g>
<!-- Node1&#45;&gt;Node7 -->
<g id="edge28_Node000001_Node000007" class="edge">
<title>Node1&#45;&gt;Node7</title>
<g id="a_edge28_Node000001_Node000007"><a xlink:title=" ">
<path fill="none" stroke="#63b8ff" d="M1853.37,-136.81C1791.72,-143.14 1698.75,-151 1617.62,-151 1617.62,-151 1617.62,-151 1469.5,-151 1385.46,-151 1288.08,-155.49 1228.68,-158.73"/>
<polygon fill="#63b8ff" stroke="#63b8ff" points="1853.54,-140.21 1863.12,-135.69 1852.81,-133.25 1853.54,-140.21"/>
</a>
</g>
</g>
<!-- Node23 -->
<g id="Node000023" class="node">
<title>Node23</title>
<g id="a_Node000023"><a xlink:href="../../d3/dff/class_slic3r_1_1_extruder.html#aeabac5513afae2b9f3c7cc1ab5a1a811" target="_top" xlink:title=" ">
<polygon fill="white" stroke="#666666" points="1828.5,-123.25 1711.25,-123.25 1711.25,-92.75 1828.5,-92.75 1828.5,-123.25"/>
<text text-anchor="start" x="1719.25" y="-109.75" font-family="Helvetica,sans-Serif" font-size="10.00">Slic3r::Extruder::retract</text>
<text text-anchor="middle" x="1769.88" y="-98.5" font-family="Helvetica,sans-Serif" font-size="10.00">_to_go</text>
</a>
</g>
</g>
<!-- Node1&#45;&gt;Node23 -->
<g id="edge29_Node000001_Node000023" class="edge">
<title>Node1&#45;&gt;Node23</title>
<g id="a_edge29_Node000001_Node000023"><a xlink:title=" ">
<path fill="none" stroke="#63b8ff" d="M1853.29,-119.44C1845.01,-118.29 1836.61,-117.13 1828.51,-116"/>
<polygon fill="#63b8ff" stroke="#63b8ff" points="1852.69,-123.03 1863.08,-120.94 1853.66,-116.1 1852.69,-123.03"/>
</a>
</g>
</g>
<!-- Node27 -->
<g id="Node000027" class="node">
<title>Node27</title>
<g id="a_Node000027"><a xlink:href="../../df/d82/class_slic3r_1_1_wipe.html#ac50f0289a630f5e7ef60c21f63d051b1" target="_top" xlink:title=" ">
<polygon fill="white" stroke="#666666" points="1664.38,-85.62 1568.88,-85.62 1568.88,-66.38 1664.38,-66.38 1664.38,-85.62"/>
<text text-anchor="middle" x="1616.62" y="-72.12" font-family="Helvetica,sans-Serif" font-size="10.00">Slic3r::Wipe::wipe</text>
</a>
</g>
</g>
<!-- Node1&#45;&gt;Node27 -->
<g id="edge37_Node000001_Node000027" class="edge">
<title>Node1&#45;&gt;Node27</title>
<g id="a_edge37_Node000001_Node000027"><a xlink:title=" ">
<path fill="none" stroke="#63b8ff" d="M1887.42,-108.1C1870.31,-98.92 1848.99,-89.08 1828.5,-84 1773.38,-70.34 1707.7,-70.29 1664.46,-72.37"/>
<polygon fill="#63b8ff" stroke="#63b8ff" points="1885.53,-111.61 1895.97,-113.4 1888.92,-105.49 1885.53,-111.61"/>
</a>
</g>
</g>
<!-- Node3 -->
<g id="Node000003" class="node">
<title>Node3</title>
<g id="a_Node000003"><a xlink:href="../../d0/d4c/class_slic3r_1_1_wipe_tower_integration.html#a77890da960412cea8c288fe74a2d28cc" target="_top" xlink:title=" ">
<polygon fill="white" stroke="#666666" points="924,-220.25 782.75,-220.25 782.75,-189.75 924,-189.75 924,-220.25"/>
<text text-anchor="start" x="790.75" y="-206.75" font-family="Helvetica,sans-Serif" font-size="10.00">Slic3r::WipeTowerIntegration</text>
<text text-anchor="middle" x="853.38" y="-195.5" font-family="Helvetica,sans-Serif" font-size="10.00">::append_tcr</text>
</a>
</g>
</g>
<!-- Node2&#45;&gt;Node3 -->
<g id="edge2_Node000002_Node000003" class="edge">
<title>Node2&#45;&gt;Node3</title>
<g id="a_edge2_Node000002_Node000003"><a xlink:title=" ">
<path fill="none" stroke="#63b8ff" d="M1261.32,-238.03C1174.43,-230.97 1015.87,-218.11 924.43,-210.69"/>
<polygon fill="#63b8ff" stroke="#63b8ff" points="1260.82,-241.58 1271.07,-238.9 1261.39,-234.6 1260.82,-241.58"/>
</a>
</g>
</g>
<!-- Node2&#45;&gt;Node7 -->
<g id="edge6_Node000002_Node000007" class="edge">
<title>Node2&#45;&gt;Node7</title>
<g id="a_edge6_Node000002_Node000007"><a xlink:title=" ">
<path fill="none" stroke="#63b8ff" d="M1273.79,-222.74C1270.54,-221.19 1267.33,-219.6 1264.25,-218 1236.51,-203.59 1205.9,-183.8 1188.3,-172.01"/>
<polygon fill="#63b8ff" stroke="#63b8ff" points="1272.08,-226.26 1282.63,-227.26 1275,-219.9 1272.08,-226.26"/>
</a>
</g>
</g>
<!-- Node4 -->
<g id="Node000004" class="node">
<title>Node4</title>
<g id="a_Node000004"><a xlink:href="../../d0/d4c/class_slic3r_1_1_wipe_tower_integration.html#ad176401561c0de48be24cc98ab44b4bf" target="_top" xlink:title=" ">
<polygon fill="white" stroke="#666666" points="746.75,-134.25 605.5,-134.25 605.5,-103.75 746.75,-103.75 746.75,-134.25"/>
<text text-anchor="start" x="613.5" y="-120.75" font-family="Helvetica,sans-Serif" font-size="10.00">Slic3r::WipeTowerIntegration</text>
<text text-anchor="middle" x="676.12" y="-109.5" font-family="Helvetica,sans-Serif" font-size="10.00">::finalize</text>
</a>
</g>
</g>
<!-- Node3&#45;&gt;Node4 -->
<g id="edge3_Node000003_Node000004" class="edge">
<title>Node3&#45;&gt;Node4</title>
<g id="a_edge3_Node000003_Node000004"><a xlink:title=" ">
<path fill="none" stroke="#63b8ff" d="M810.95,-184.67C779.82,-169.4 737.81,-148.78 709.22,-134.75"/>
<polygon fill="#63b8ff" stroke="#63b8ff" points="809.12,-188.16 819.64,-189.43 812.2,-181.88 809.12,-188.16"/>
</a>
</g>
</g>
<!-- Node5 -->
<g id="Node000005" class="node">
<title>Node5</title>
<g id="a_Node000005"><a xlink:href="../../d0/d4c/class_slic3r_1_1_wipe_tower_integration.html#a7497d8d42cdcc1e6eab63612993aee92" target="_top" xlink:title=" ">
<polygon fill="white" stroke="#666666" points="746.75,-220.25 605.5,-220.25 605.5,-189.75 746.75,-189.75 746.75,-220.25"/>
<text text-anchor="start" x="613.5" y="-206.75" font-family="Helvetica,sans-Serif" font-size="10.00">Slic3r::WipeTowerIntegration</text>
<text text-anchor="middle" x="676.12" y="-195.5" font-family="Helvetica,sans-Serif" font-size="10.00">::prime</text>
</a>
</g>
</g>
<!-- Node3&#45;&gt;Node5 -->
<g id="edge4_Node000003_Node000005" class="edge">
<title>Node3&#45;&gt;Node5</title>
<g id="a_edge4_Node000003_Node000005"><a xlink:title=" ">
<path fill="none" stroke="#63b8ff" d="M771.63,-205C763.41,-205 755.12,-205 747.03,-205"/>
<polygon fill="#63b8ff" stroke="#63b8ff" points="771.36,-208.5 781.36,-205 771.36,-201.5 771.36,-208.5"/>
</a>
</g>
</g>
<!-- Node6 -->
<g id="Node000006" class="node">
<title>Node6</title>
<g id="a_Node000006"><a xlink:href="../../d0/d4c/class_slic3r_1_1_wipe_tower_integration.html#a756231fc8c765bc08432e520fca5f49c" target="_top" xlink:title=" ">
<polygon fill="white" stroke="#666666" points="746.75,-269.25 605.5,-269.25 605.5,-238.75 746.75,-238.75 746.75,-269.25"/>
<text text-anchor="start" x="613.5" y="-255.75" font-family="Helvetica,sans-Serif" font-size="10.00">Slic3r::WipeTowerIntegration</text>
<text text-anchor="middle" x="676.12" y="-244.5" font-family="Helvetica,sans-Serif" font-size="10.00">::tool_change</text>
</a>
</g>
</g>
<!-- Node3&#45;&gt;Node6 -->
<g id="edge5_Node000003_Node000006" class="edge">
<title>Node3&#45;&gt;Node6</title>
<g id="a_edge5_Node000003_Node000006"><a xlink:title=" ">
<path fill="none" stroke="#63b8ff" d="M785.86,-223.6C768.58,-228.43 750.13,-233.59 733.43,-238.26"/>
<polygon fill="#63b8ff" stroke="#63b8ff" points="786.75,-226.7 795.44,-220.64 784.87,-219.96 786.75,-226.7"/>
</a>
</g>
</g>
<!-- Node7&#45;&gt;Node3 -->
<g id="edge9_Node000007_Node000003" class="edge">
<title>Node7&#45;&gt;Node3</title>
<g id="a_edge9_Node000007_Node000003"><a xlink:title=" ">
<path fill="none" stroke="#63b8ff" d="M1128.71,-175.01C1113.74,-179.11 1096.74,-183.28 1081,-186 1028.96,-195 969.44,-199.78 924.46,-202.3"/>
<polygon fill="#63b8ff" stroke="#63b8ff" points="1129.53,-178.14 1138.21,-172.06 1127.64,-171.4 1129.53,-178.14"/>
</a>
</g>
</g>
<!-- Node8 -->
<g id="Node000008" class="node">
<title>Node8</title>
<g id="a_Node000008"><a xlink:href="../../dd/dc8/class_slic3r_1_1_g_code.html#ad5ac0f44c2121cf8d09cc7fde2dae045" target="_top" xlink:title=" ">
<polygon fill="white" stroke="#666666" points="261.5,-115.25 162.25,-115.25 162.25,-84.75 261.5,-84.75 261.5,-115.25"/>
<text text-anchor="start" x="170.25" y="-101.75" font-family="Helvetica,sans-Serif" font-size="10.00">Slic3r::GCode::_do</text>
<text text-anchor="middle" x="211.88" y="-90.5" font-family="Helvetica,sans-Serif" font-size="10.00">_export</text>
</a>
</g>
</g>
<!-- Node7&#45;&gt;Node8 -->
<g id="edge7_Node000007_Node000008" class="edge">
<title>Node7&#45;&gt;Node8</title>
<g id="a_edge7_Node000007_Node000008"><a xlink:title=" ">
<path fill="none" stroke="#63b8ff" d="M1153.51,-144.87C1107.5,-103.21 980.74,0 854.38,0 854.38,0 854.38,0 509.5,0 413.36,0 386.18,-5.88 297.5,-43 272.83,-53.33 247.82,-71.3 231.45,-84.31"/>
<polygon fill="#63b8ff" stroke="#63b8ff" points="1150.66,-146.91 1160.38,-151.11 1155.4,-141.76 1150.66,-146.91"/>
</a>
</g>
</g>
<!-- Node10 -->
<g id="Node000010" class="node">
<title>Node10</title>
<g id="a_Node000010"><a xlink:href="../../dd/dc8/class_slic3r_1_1_g_code.html#adb6120da85675a12714c2de6a18590da" target="_top" xlink:title=" ">
<polygon fill="white" stroke="#666666" points="910.88,-134.25 795.88,-134.25 795.88,-103.75 910.88,-103.75 910.88,-134.25"/>
<text text-anchor="start" x="803.88" y="-120.75" font-family="Helvetica,sans-Serif" font-size="10.00">Slic3r::GCode::change</text>
<text text-anchor="middle" x="853.38" y="-109.5" font-family="Helvetica,sans-Serif" font-size="10.00">_layer</text>
</a>
</g>
</g>
<!-- Node7&#45;&gt;Node10 -->
<g id="edge10_Node000007_Node000010" class="edge">
<title>Node7&#45;&gt;Node10</title>
<g id="a_edge10_Node000007_Node000010"><a xlink:title=" ">
<path fill="none" stroke="#63b8ff" d="M1128.71,-148.99C1113.74,-144.89 1096.74,-140.72 1081,-138 1023.62,-128.07 957.12,-123.28 911.07,-121"/>
<polygon fill="#63b8ff" stroke="#63b8ff" points="1127.64,-152.6 1138.21,-151.94 1129.53,-145.86 1127.64,-152.6"/>
</a>
</g>
</g>
<!-- Node14 -->
<g id="Node000014" class="node">
<title>Node14</title>
<g id="a_Node000014"><a xlink:href="../../dd/dc8/class_slic3r_1_1_g_code.html#a17e6b9621f765ee22ac0cc4eaf9ca1c7" target="_top" xlink:title=" ">
<polygon fill="white" stroke="#666666" points="1069,-177.25 972,-177.25 972,-146.75 1069,-146.75 1069,-177.25"/>
<text text-anchor="start" x="980" y="-163.75" font-family="Helvetica,sans-Serif" font-size="10.00">Slic3r::GCode::set</text>
<text text-anchor="middle" x="1020.5" y="-152.5" font-family="Helvetica,sans-Serif" font-size="10.00">_extruder</text>
</a>
</g>
</g>
<!-- Node7&#45;&gt;Node14 -->
<g id="edge16_Node000007_Node000014" class="edge">
<title>Node7&#45;&gt;Node14</title>
<g id="a_edge16_Node000007_Node000014"><a xlink:title=" ">
<path fill="none" stroke="#63b8ff" d="M1105.84,-162C1093.49,-162 1080.79,-162 1069.12,-162"/>
<polygon fill="#63b8ff" stroke="#63b8ff" points="1105.58,-165.5 1115.58,-162 1105.58,-158.5 1105.58,-165.5"/>
</a>
</g>
</g>
<!-- Node15 -->
<g id="Node000015" class="node">
<title>Node15</title>
<g id="a_Node000015"><a xlink:href="../../dd/dc8/class_slic3r_1_1_g_code.html#a6d246cfdea1c2e9be90f89b59e015ce3" target="_top" xlink:title=" ">
<polygon fill="white" stroke="#666666" points="1081,-298.62 960,-298.62 960,-279.38 1081,-279.38 1081,-298.62"/>
<text text-anchor="middle" x="1020.5" y="-285.12" font-family="Helvetica,sans-Serif" font-size="10.00">Slic3r::GCode::travel_to</text>
</a>
</g>
</g>
<!-- Node7&#45;&gt;Node15 -->
<g id="edge20_Node000007_Node000015" class="edge">
<title>Node7&#45;&gt;Node15</title>
<g id="a_edge20_Node000007_Node000015"><a xlink:title=" ">
<path fill="none" stroke="#63b8ff" d="M1151.72,-178.84C1119.97,-205.7 1058.83,-257.42 1033.23,-279.08"/>
<polygon fill="#63b8ff" stroke="#63b8ff" points="1153.47,-181.1 1158.84,-171.97 1148.95,-175.75 1153.47,-181.1"/>
</a>
</g>
</g>
<!-- Node9 -->
<g id="Node000009" class="node">
<title>Node9</title>
<g id="a_Node000009"><a xlink:href="../../dd/dc8/class_slic3r_1_1_g_code.html#a41ddab6bfd15c1848026271f48485efb" target="_top" xlink:title=" ">
<polygon fill="white" stroke="#666666" points="126.25,-109.62 0,-109.62 0,-90.38 126.25,-90.38 126.25,-109.62"/>
<text text-anchor="middle" x="63.12" y="-96.12" font-family="Helvetica,sans-Serif" font-size="10.00">Slic3r::GCode::do_export</text>
</a>
</g>
</g>
<!-- Node8&#45;&gt;Node9 -->
<g id="edge8_Node000008_Node000009" class="edge">
<title>Node8&#45;&gt;Node9</title>
<g id="a_edge8_Node000008_Node000009"><a xlink:title=" ">
<path fill="none" stroke="#63b8ff" d="M151.16,-100C143.07,-100 134.75,-100 126.61,-100"/>
<polygon fill="#63b8ff" stroke="#63b8ff" points="151.01,-103.5 161.01,-100 151.01,-96.5 151.01,-103.5"/>
</a>
</g>
</g>
<!-- Node10&#45;&gt;Node4 -->
<g id="edge11_Node000010_Node000004" class="edge">
<title>Node10&#45;&gt;Node4</title>
<g id="a_edge11_Node000010_Node000004"><a xlink:title=" ">
<path fill="none" stroke="#63b8ff" d="M784.82,-119C772.5,-119 759.61,-119 747.22,-119"/>
<polygon fill="#63b8ff" stroke="#63b8ff" points="784.48,-122.5 794.48,-119 784.48,-115.5 784.48,-122.5"/>
</a>
</g>
</g>
<!-- Node11 -->
<g id="Node000011" class="node">
<title>Node11</title>
<g id="a_Node000011"><a xlink:href="../../dd/dc8/class_slic3r_1_1_g_code.html#a9cc98ab48cc34a5705a931adb15dba33" target="_top" xlink:title=" ">
<polygon fill="white" stroke="#666666" points="569.5,-161.25 451.5,-161.25 451.5,-130.75 569.5,-130.75 569.5,-161.25"/>
<text text-anchor="start" x="459.5" y="-147.75" font-family="Helvetica,sans-Serif" font-size="10.00">Slic3r::GCode::process</text>
<text text-anchor="middle" x="510.5" y="-136.5" font-family="Helvetica,sans-Serif" font-size="10.00">_layer</text>
</a>
</g>
</g>
<!-- Node10&#45;&gt;Node11 -->
<g id="edge12_Node000010_Node000011" class="edge">
<title>Node10&#45;&gt;Node11</title>
<g id="a_edge12_Node000010_Node000011"><a xlink:title=" ">
<path fill="none" stroke="#63b8ff" d="M788.18,-100.86C737.81,-89.47 666.29,-79.57 605.5,-95 578.69,-101.81 551.24,-117.97 532.98,-130.29"/>
<polygon fill="#63b8ff" stroke="#63b8ff" points="787.07,-104.43 797.6,-103.31 788.67,-97.62 787.07,-104.43"/>
</a>
</g>
</g>
<!-- Node12 -->
<g id="Node000012" class="node">
<title>Node12</title>
<g id="a_Node000012"><a xlink:href="../../dd/dc8/class_slic3r_1_1_g_code.html#ae9d03a71321e19a7349fe7bdf892eeb5" target="_top" xlink:title=" ">
<polygon fill="white" stroke="#666666" points="415.5,-161.25 297.5,-161.25 297.5,-130.75 415.5,-130.75 415.5,-161.25"/>
<text text-anchor="start" x="305.5" y="-147.75" font-family="Helvetica,sans-Serif" font-size="10.00">Slic3r::GCode::process</text>
<text text-anchor="middle" x="356.5" y="-136.5" font-family="Helvetica,sans-Serif" font-size="10.00">_layers</text>
</a>
</g>
</g>
<!-- Node11&#45;&gt;Node12 -->
<g id="edge13_Node000011_Node000012" class="edge">
<title>Node11&#45;&gt;Node12</title>
<g id="a_edge13_Node000011_Node000012"><a xlink:title=" ">
<path fill="none" stroke="#63b8ff" d="M440.2,-146C432.09,-146 423.87,-146 415.93,-146"/>
<polygon fill="#63b8ff" stroke="#63b8ff" points="440.17,-149.5 450.17,-146 440.17,-142.5 440.17,-149.5"/>
</a>
</g>
</g>
<!-- Node13 -->
<g id="Node000013" class="node">
<title>Node13</title>
<g id="a_Node000013"><a xlink:href="../../dd/dc8/class_slic3r_1_1_g_code.html#af9001478c63dd7c5909161470e3d13a7" target="_top" xlink:title=" ">
<polygon fill="white" stroke="#666666" points="415.5,-112.25 297.5,-112.25 297.5,-81.75 415.5,-81.75 415.5,-112.25"/>
<text text-anchor="start" x="305.5" y="-98.75" font-family="Helvetica,sans-Serif" font-size="10.00">Slic3r::GCode::process</text>
<text text-anchor="middle" x="356.5" y="-87.5" font-family="Helvetica,sans-Serif" font-size="10.00">_layers</text>
</a>
</g>
</g>
<!-- Node11&#45;&gt;Node13 -->
<g id="edge15_Node000011_Node000013" class="edge">
<title>Node11&#45;&gt;Node13</title>
<g id="a_edge15_Node000011_Node000013"><a xlink:title=" ">
<path fill="none" stroke="#63b8ff" d="M450.53,-126.99C435.91,-122.28 420.41,-117.28 406.33,-112.74"/>
<polygon fill="#63b8ff" stroke="#63b8ff" points="449.4,-130.62 459.99,-130.36 451.54,-123.96 449.4,-130.62"/>
</a>
</g>
</g>
<!-- Node12&#45;&gt;Node8 -->
<g id="edge14_Node000012_Node000008" class="edge">
<title>Node12&#45;&gt;Node8</title>
<g id="a_edge14_Node000012_Node000008"><a xlink:title=" ">
<path fill="none" stroke="#63b8ff" d="M296.65,-127.02C284.9,-123.23 272.69,-119.29 261.34,-115.63"/>
<polygon fill="#63b8ff" stroke="#63b8ff" points="295.22,-130.56 305.82,-130.3 297.37,-123.9 295.22,-130.56"/>
</a>
</g>
</g>
<!-- Node14&#45;&gt;Node3 -->
<g id="edge18_Node000014_Node000003" class="edge">
<title>Node14&#45;&gt;Node3</title>
<g id="a_edge18_Node000014_Node000003"><a xlink:title=" ">
<path fill="none" stroke="#63b8ff" d="M961.47,-177.11C946.31,-181.06 929.95,-185.32 914.68,-189.3"/>
<polygon fill="#63b8ff" stroke="#63b8ff" points="961.94,-180.34 970.74,-174.44 960.18,-173.57 961.94,-180.34"/>
</a>
</g>
</g>
<!-- Node14&#45;&gt;Node8 -->
<g id="edge17_Node000014_Node000008" class="edge">
<title>Node14&#45;&gt;Node8</title>
<g id="a_edge17_Node000014_Node000008"><a xlink:title=" ">
<path fill="none" stroke="#63b8ff" d="M993.41,-139.51C975.1,-124.83 949.44,-106.34 924,-95 821.15,-49.15 789.73,-38 677.12,-38 677.12,-38 677.12,-38 509.5,-38 419.14,-38 316.51,-65.91 258.75,-84.27"/>
<polygon fill="#63b8ff" stroke="#63b8ff" points="990.82,-142.73 1000.77,-146.37 995.25,-137.32 990.82,-142.73"/>
</a>
</g>
</g>
<!-- Node14&#45;&gt;Node11 -->
<g id="edge19_Node000014_Node000011" class="edge">
<title>Node14&#45;&gt;Node11</title>
<g id="a_edge19_Node000014_Node000011"><a xlink:title=" ">
<path fill="none" stroke="#63b8ff" d="M960.84,-160.15C863.02,-157.07 667.69,-150.92 569.98,-147.84"/>
<polygon fill="#63b8ff" stroke="#63b8ff" points="960.6,-163.68 970.71,-160.49 960.82,-156.68 960.6,-163.68"/>
</a>
</g>
</g>
<!-- Node15&#45;&gt;Node3 -->
<g id="edge27_Node000015_Node000003" class="edge">
<title>Node15&#45;&gt;Node3</title>
<g id="a_edge27_Node000015_Node000003"><a xlink:title=" ">
<path fill="none" stroke="#63b8ff" d="M990.17,-274.08C960.63,-259.05 915.23,-235.96 885.17,-220.67"/>
<polygon fill="#63b8ff" stroke="#63b8ff" points="988.41,-277.62 998.91,-279.03 991.58,-271.38 988.41,-277.62"/>
</a>
</g>
</g>
<!-- Node15&#45;&gt;Node8 -->
<g id="edge21_Node000015_Node000008" class="edge">
<title>Node15&#45;&gt;Node8</title>
<g id="a_edge21_Node000015_Node000008"><a xlink:title=" ">
<path fill="none" stroke="#63b8ff" d="M995.83,-305.04C941.85,-340 804.44,-420 677.12,-420 677.12,-420 677.12,-420 509.5,-420 341.33,-420 241.76,-179.36 218.28,-115.43"/>
<polygon fill="#63b8ff" stroke="#63b8ff" points="997.49,-307.48 1003.92,-299.06 993.64,-301.63 997.49,-307.48"/>
</a>
</g>
</g>
<!-- Node16 -->
<g id="Node000016" class="node">
<title>Node16</title>
<g id="a_Node000016"><a xlink:href="../../dd/dc8/class_slic3r_1_1_g_code.html#a84cb9bd523ca5a017cf00608b137f5da" target="_top" xlink:title=" ">
<polygon fill="white" stroke="#666666" points="913.88,-324.62 792.88,-324.62 792.88,-305.38 913.88,-305.38 913.88,-324.62"/>
<text text-anchor="middle" x="853.38" y="-311.12" font-family="Helvetica,sans-Serif" font-size="10.00">Slic3r::GCode::_extrude</text>
</a>
</g>
</g>
<!-- Node15&#45;&gt;Node16 -->
<g id="edge22_Node000015_Node000016" class="edge">
<title>Node15&#45;&gt;Node16</title>
<g id="a_edge22_Node000015_Node000016"><a xlink:title=" ">
<path fill="none" stroke="#63b8ff" d="M949.28,-300.06C937.59,-301.9 925.57,-303.79 914.18,-305.58"/>
<polygon fill="#63b8ff" stroke="#63b8ff" points="949.55,-303.4 958.89,-298.39 948.46,-296.48 949.55,-303.4"/>
</a>
</g>
</g>
<!-- Node17 -->
<g id="Node000017" class="node">
<title>Node17</title>
<g id="a_Node000017"><a xlink:href="../../dd/dc8/class_slic3r_1_1_g_code.html#a269d66187ba6aedf3c9632bd9100b02c" target="_top" xlink:title=" ">
<polygon fill="#fff0f0" stroke="red" points="745.62,-306.62 606.62,-306.62 606.62,-287.38 745.62,-287.38 745.62,-306.62"/>
<text text-anchor="middle" x="676.12" y="-293.12" font-family="Helvetica,sans-Serif" font-size="10.00">Slic3r::GCode::extrude_loop</text>
</a>
</g>
</g>
<!-- Node16&#45;&gt;Node17 -->
<g id="edge23_Node000016_Node000017" class="edge">
<title>Node16&#45;&gt;Node17</title>
<g id="a_edge23_Node000016_Node000017"><a xlink:title=" ">
<path fill="none" stroke="#63b8ff" d="M781.85,-307.76C770.04,-306.54 757.8,-305.29 746.03,-304.08"/>
<polygon fill="#63b8ff" stroke="#63b8ff" points="781.25,-311.32 791.55,-308.86 781.96,-304.35 781.25,-311.32"/>
</a>
</g>
</g>
<!-- Node20 -->
<g id="Node000020" class="node">
<title>Node20</title>
<g id="a_Node000020"><a xlink:href="../../dd/dc8/class_slic3r_1_1_g_code.html#a57ba58aa701b068e16dbd85cd17e25ce" target="_top" xlink:title=" ">
<polygon fill="#fff0f0" stroke="red" points="734,-392.25 618.25,-392.25 618.25,-361.75 734,-361.75 734,-392.25"/>
<text text-anchor="start" x="626.25" y="-378.75" font-family="Helvetica,sans-Serif" font-size="10.00">Slic3r::GCode::extrude</text>
<text text-anchor="middle" x="676.12" y="-367.5" font-family="Helvetica,sans-Serif" font-size="10.00">_multi_path</text>
</a>
</g>
</g>
<!-- Node16&#45;&gt;Node20 -->
<g id="edge25_Node000016_Node000020" class="edge">
<title>Node16&#45;&gt;Node20</title>
<g id="a_edge25_Node000016_Node000020"><a xlink:title=" ">
<path fill="none" stroke="#63b8ff" d="M814.32,-328.83C794.24,-336.09 769.19,-345.1 746.75,-353 739.03,-355.72 730.82,-358.58 722.85,-361.34"/>
<polygon fill="#63b8ff" stroke="#63b8ff" points="815.4,-331.8 823.61,-325.1 813.02,-325.22 815.4,-331.8"/>
</a>
</g>
</g>
<!-- Node22 -->
<g id="Node000022" class="node">
<title>Node22</title>
<g id="a_Node000022"><a xlink:href="../../dd/dc8/class_slic3r_1_1_g_code.html#a004be9154b6cfc8fd74cff0127129742" target="_top" xlink:title=" ">
<polygon fill="#fff0f0" stroke="red" points="746,-343.62 606.25,-343.62 606.25,-324.38 746,-324.38 746,-343.62"/>
<text text-anchor="middle" x="676.12" y="-330.12" font-family="Helvetica,sans-Serif" font-size="10.00">Slic3r::GCode::extrude_path</text>
</a>
</g>
</g>
<!-- Node16&#45;&gt;Node22 -->
<g id="edge26_Node000016_Node000022" class="edge">
<title>Node16&#45;&gt;Node22</title>
<g id="a_edge26_Node000016_Node000022"><a xlink:title=" ">
<path fill="none" stroke="#63b8ff" d="M781.92,-322.64C770.19,-323.91 758.03,-325.23 746.33,-326.5"/>
<polygon fill="#63b8ff" stroke="#63b8ff" points="781.99,-326.04 791.55,-321.49 781.24,-319.08 781.99,-326.04"/>
</a>
</g>
</g>
<!-- Node17&#45;&gt;Node11 -->
<g id="edge24_Node000017_Node000011" class="edge">
<title>Node17&#45;&gt;Node11</title>
<g id="a_edge24_Node000017_Node000011"><a xlink:title=" ">
<path fill="none" stroke="#63b8ff" d="M613,-282.55C610.39,-281.17 607.87,-279.66 605.5,-278 561.66,-247.41 531.12,-189.52 518.28,-161.7"/>
<polygon fill="#63b8ff" stroke="#63b8ff" points="611.22,-286.04 621.77,-287 614.12,-279.67 611.22,-286.04"/>
</a>
</g>
</g>
<!-- Node24 -->
<g id="Node000024" class="node">
<title>Node24</title>
<g id="a_Node000024"><a xlink:href="../../d3/dff/class_slic3r_1_1_extruder.html#a6954c67c72bb1d885ca2d8938e80dd48" target="_top" xlink:title=" ">
<polygon fill="white" stroke="#666666" points="1675.25,-122.62 1558,-122.62 1558,-103.38 1675.25,-103.38 1675.25,-122.62"/>
<text text-anchor="middle" x="1616.62" y="-109.12" font-family="Helvetica,sans-Serif" font-size="10.00">Slic3r::Extruder::retract</text>
</a>
</g>
</g>
<!-- Node23&#45;&gt;Node24 -->
<g id="edge30_Node000023_Node000024" class="edge">
<title>Node23&#45;&gt;Node24</title>
<g id="a_edge30_Node000023_Node000024"><a xlink:title=" ">
<path fill="none" stroke="#63b8ff" d="M1700.04,-110.28C1691.76,-110.55 1683.36,-110.83 1675.26,-111.09"/>
<polygon fill="#63b8ff" stroke="#63b8ff" points="1699.95,-113.75 1709.83,-109.92 1699.72,-106.75 1699.95,-113.75"/>
</a>
</g>
</g>
<!-- Node23&#45;&gt;Node27 -->
<g id="edge35_Node000023_Node000027" class="edge">
<title>Node23&#45;&gt;Node27</title>
<g id="a_edge35_Node000023_Node000027"><a xlink:title=" ">
<path fill="none" stroke="#63b8ff" d="M1700.29,-93.49C1688.18,-90.93 1675.83,-88.32 1664.5,-85.92"/>
<polygon fill="#63b8ff" stroke="#63b8ff" points="1699.32,-97.07 1709.83,-95.72 1700.77,-90.23 1699.32,-97.07"/>
</a>
</g>
</g>
<!-- Node25 -->
<g id="Node000025" class="node">
<title>Node25</title>
<g id="a_Node000025"><a xlink:href="../../da/d7a/class_slic3r_1_1_g_code_writer.html#af619895f4f7cc81df657868a5893bf62" target="_top" xlink:title=" ">
<polygon fill="white" stroke="#666666" points="1522,-209.25 1419,-209.25 1419,-178.75 1522,-178.75 1522,-209.25"/>
<text text-anchor="start" x="1427" y="-195.75" font-family="Helvetica,sans-Serif" font-size="10.00">Slic3r::GCodeWriter</text>
<text text-anchor="middle" x="1470.5" y="-184.5" font-family="Helvetica,sans-Serif" font-size="10.00">::_retract</text>
</a>
</g>
</g>
<!-- Node24&#45;&gt;Node25 -->
<g id="edge31_Node000024_Node000025" class="edge">
<title>Node24&#45;&gt;Node25</title>
<g id="a_edge31_Node000024_Node000025"><a xlink:title=" ">
<path fill="none" stroke="#63b8ff" d="M1588.22,-128.4C1562.74,-142.72 1524.97,-163.95 1499.35,-178.35"/>
<polygon fill="#63b8ff" stroke="#63b8ff" points="1589.66,-131.05 1596.66,-123.09 1586.23,-124.94 1589.66,-131.05"/>
</a>
</g>
</g>
<!-- Node25&#45;&gt;Node2 -->
<g id="edge32_Node000025_Node000002" class="edge">
<title>Node25&#45;&gt;Node2</title>
<g id="a_edge32_Node000025_Node000002"><a xlink:title=" ">
<path fill="none" stroke="#63b8ff" d="M1413.25,-213.03C1399.24,-217.76 1384.38,-222.79 1370.92,-227.34"/>
<polygon fill="#63b8ff" stroke="#63b8ff" points="1413.91,-216.16 1422.26,-209.64 1411.67,-209.53 1413.91,-216.16"/>
</a>
</g>
</g>
<!-- Node26 -->
<g id="Node000026" class="node">
<title>Node26</title>
<g id="a_Node000026"><a xlink:href="../../da/d7a/class_slic3r_1_1_g_code_writer.html#a9277168f5bf3da2241eedc89492b9c09" target="_top" xlink:title=" ">
<polygon fill="white" stroke="#666666" points="1383,-209.25 1264.25,-209.25 1264.25,-178.75 1383,-178.75 1383,-209.25"/>
<text text-anchor="start" x="1272.25" y="-195.75" font-family="Helvetica,sans-Serif" font-size="10.00">Slic3r::GCodeWriter</text>
<text text-anchor="middle" x="1323.62" y="-184.5" font-family="Helvetica,sans-Serif" font-size="10.00">::retract_for_toolchange</text>
</a>
</g>
</g>
<!-- Node25&#45;&gt;Node26 -->
<g id="edge33_Node000025_Node000026" class="edge">
<title>Node25&#45;&gt;Node26</title>
<g id="a_edge33_Node000025_Node000026"><a xlink:title=" ">
<path fill="none" stroke="#63b8ff" d="M1407.93,-194C1399.82,-194 1391.52,-194 1383.46,-194"/>
<polygon fill="#63b8ff" stroke="#63b8ff" points="1407.83,-197.5 1417.83,-194 1407.83,-190.5 1407.83,-197.5"/>
</a>
</g>
</g>
<!-- Node26&#45;&gt;Node7 -->
<g id="edge34_Node000026_Node000007" class="edge">
<title>Node26&#45;&gt;Node7</title>
<g id="a_edge34_Node000026_Node000007"><a xlink:title=" ">
<path fill="none" stroke="#63b8ff" d="M1253.5,-179.16C1242.3,-176.75 1230.93,-174.31 1220.42,-172.05"/>
<polygon fill="#63b8ff" stroke="#63b8ff" points="1252.65,-182.77 1263.16,-181.44 1254.12,-175.92 1252.65,-182.77"/>
</a>
</g>
</g>
<!-- Node27&#45;&gt;Node7 -->
<g id="edge36_Node000027_Node000007" class="edge">
<title>Node27&#45;&gt;Node7</title>
<g id="a_edge36_Node000027_Node000007"><a xlink:title=" ">
<path fill="none" stroke="#63b8ff" d="M1557.67,-84.29C1487.74,-94.71 1366.76,-114.02 1264.25,-137 1245.14,-141.28 1224.03,-147.05 1207,-151.96"/>
<polygon fill="#63b8ff" stroke="#63b8ff" points="1558.07,-87.62 1567.45,-82.7 1557.04,-80.7 1558.07,-87.62"/>
</a>
</g>
</g>
</g>
</svg>

<g id="navigator" transform="translate(0 0)" fill="#404254">
  <rect fill="#f2f5e9" fill-opacity="0.5" stroke="#606060" stroke-width=".5" x="0" y="0" width="60" height="60"/>
  <use id="zoomplus" xlink:href="#zoomPlus" x="17" y="9" onmousedown="handleZoom(evt,'in')"/>
  <use id="zoomminus" xlink:href="#zoomMin" x="42" y="9" onmousedown="handleZoom(evt,'out')"/>
  <use id="reset" xlink:href="#resetDef" x="30" y="36" onmousedown="handleReset()"/>
   <use id="arrowup" xlink:href="#arrowUp" x="0" y="0" onmousedown="handlePan(0,-1)"/>
  <use id="arrowright" xlink:href="#arrowRight" x="0" y="0" onmousedown="handlePan(1,0)"/>
  <use id="arrowdown" xlink:href="#arrowDown" x="0" y="0" onmousedown="handlePan(0,1)"/>
  <use id="arrowleft" xlink:href="#arrowLeft" x="0" y="0" onmousedown="handlePan(-1,0)"/>
</g>
<svg viewBox="0 0 15 15" width="100%" height="30px" preserveAspectRatio="xMaxYMin meet">
 <g id="arrow_out" transform="scale(0.3 0.3)">
  <a xlink:href="class_slic3r_1_1_extruder_ae4f81bb3b58a544ac21f66234924eb3f_icgraph_org.svg" target="_base">
   <rect id="button" ry="5" rx="5" y="6" x="6" height="38" width="38"
        fill="#f2f5e9" fill-opacity="0.5" stroke="#606060" stroke-width="1.0"/>
   <path id="arrow"
     d="M 11.500037,31.436501 C 11.940474,20.09759 22.043105,11.32322 32.158766,21.979434 L 37.068811,17.246167 C 37.068811,17.246167 37.088388,32 37.088388,32 L 22.160133,31.978069 C 22.160133,31.978069 26.997745,27.140456 26.997745,27.140456 C 18.528582,18.264221 13.291696,25.230495 11.500037,31.436501 z"
     style="fill:#404040;"/>
  </a>
 </g>
</svg>

<style type='text/css'>
<![CDATA[
[data-mouse-over-selected='false'] { opacity: 0.7; }
[data-mouse-over-selected='true']  { opacity: 1.0; }
]]>
</style>
<script type="application/ecmascript"><![CDATA[
document.addEventListener('DOMContentLoaded', (event) => {
  highlightEdges();
  highlightAdjacentNodes();
});
]]></script>
</svg>
