<?xml version="1.0" encoding="UTF-8" standalone="no"?>
<!DOCTYPE svg PUBLIC "-//W3C//DTD SVG 1.1//EN"
 "http://www.w3.org/Graphics/SVG/1.1/DTD/svg11.dtd">
<!-- Generated by graphviz version 8.0.5 (20230430.1635)
 -->
<!-- Title: Slic3r::Extruder::reset_E Pages: 1 -->
<svg width="1541pt" height="515pt"
 viewBox="0.00 0.00 1540.50 515.45" xmlns="http://www.w3.org/2000/svg" xmlns:xlink="http://www.w3.org/1999/xlink">
<g id="graph0" class="graph" transform="scale(1 1) rotate(0) translate(4 511.45)">
<title>Slic3r::Extruder::reset_E</title>
<!-- Node1 -->
<g id="Node000001" class="node">
<title>Node1</title>
<g id="a_Node000001"><a xlink:title=" ">
<polygon fill="#999999" stroke="#666666" points="1532.5,-331.62 1409.25,-331.62 1409.25,-312.38 1532.5,-312.38 1532.5,-331.62"/>
<text text-anchor="middle" x="1470.88" y="-318.12" font-family="Helvetica,sans-Serif" font-size="10.00">Slic3r::Extruder::reset_E</text>
</a>
</g>
</g>
<!-- Node2 -->
<g id="Node000002" class="node">
<title>Node2</title>
<g id="a_Node000002"><a xlink:href="../../da/d7a/class_slic3r_1_1_g_code_writer.html#ac98fe6c3bb46ab111e09c866c5f85340" target="_top" xlink:title=" ">
<polygon fill="white" stroke="#666666" points="1373.25,-337.25 1270.25,-337.25 1270.25,-306.75 1373.25,-306.75 1373.25,-337.25"/>
<text text-anchor="start" x="1278.25" y="-323.75" font-family="Helvetica,sans-Serif" font-size="10.00">Slic3r::GCodeWriter</text>
<text text-anchor="middle" x="1321.75" y="-312.5" font-family="Helvetica,sans-Serif" font-size="10.00">::reset_e</text>
</a>
</g>
</g>
<!-- Node1&#45;&gt;Node2 -->
<g id="edge1_Node000001_Node000002" class="edge">
<title>Node1&#45;&gt;Node2</title>
<g id="a_edge1_Node000001_Node000002"><a xlink:title=" ">
<path fill="none" stroke="#63b8ff" d="M1397.99,-322C1389.76,-322 1381.51,-322 1373.64,-322"/>
<polygon fill="#63b8ff" stroke="#63b8ff" points="1397.76,-325.5 1407.76,-322 1397.76,-318.5 1397.76,-325.5"/>
</a>
</g>
</g>
<!-- Node3 -->
<g id="Node000003" class="node">
<title>Node3</title>
<g id="a_Node000003"><a xlink:href="../../da/d7a/class_slic3r_1_1_g_code_writer.html#a48eee9aa8426351149b13b8398365887" target="_top" xlink:title=" ">
<polygon fill="white" stroke="#666666" points="1230.12,-475.25 1127.12,-475.25 1127.12,-444.75 1230.12,-444.75 1230.12,-475.25"/>
<text text-anchor="start" x="1135.12" y="-461.75" font-family="Helvetica,sans-Serif" font-size="10.00">Slic3r::GCodeWriter</text>
<text text-anchor="middle" x="1178.62" y="-450.5" font-family="Helvetica,sans-Serif" font-size="10.00">::preamble</text>
</a>
</g>
</g>
<!-- Node2&#45;&gt;Node3 -->
<g id="edge2_Node000002_Node000003" class="edge">
<title>Node2&#45;&gt;Node3</title>
<g id="a_edge2_Node000002_Node000003"><a xlink:title=" ">
<path fill="none" stroke="#63b8ff" d="M1297.27,-344.96C1268.51,-373.08 1220.57,-419.96 1195.7,-444.28"/>
<polygon fill="#63b8ff" stroke="#63b8ff" points="1299.13,-348.06 1303.84,-338.56 1294.24,-343.05 1299.13,-348.06"/>
</a>
</g>
</g>
<!-- Node7 -->
<g id="Node000007" class="node">
<title>Node7</title>
<g id="a_Node000007"><a xlink:href="../../dd/dc8/class_slic3r_1_1_g_code.html#abf0b5c44d36ce28cc169004804144961" target="_top" xlink:title=" ">
<polygon fill="white" stroke="#666666" points="1234.25,-205.62 1123,-205.62 1123,-186.38 1234.25,-186.38 1234.25,-205.62"/>
<text text-anchor="middle" x="1178.62" y="-192.12" font-family="Helvetica,sans-Serif" font-size="10.00">Slic3r::GCode::retract</text>
</a>
</g>
</g>
<!-- Node2&#45;&gt;Node7 -->
<g id="edge6_Node000002_Node000007" class="edge">
<title>Node2&#45;&gt;Node7</title>
<g id="a_edge6_Node000002_Node000007"><a xlink:title=" ">
<path fill="none" stroke="#63b8ff" d="M1294.98,-298.99C1263.98,-271.31 1213.31,-226.08 1190.9,-206.06"/>
<polygon fill="#63b8ff" stroke="#63b8ff" points="1292.37,-301.25 1302.16,-305.3 1297.03,-296.03 1292.37,-301.25"/>
</a>
</g>
</g>
<!-- Node25 -->
<g id="Node000025" class="node">
<title>Node25</title>
<g id="a_Node000025"><a xlink:href="../../da/d7a/class_slic3r_1_1_g_code_writer.html#a757a9cef6954dfa4e625986e63b757a0" target="_top" xlink:title=" ">
<polygon fill="white" stroke="#666666" points="1230.12,-313.25 1127.12,-313.25 1127.12,-282.75 1230.12,-282.75 1230.12,-313.25"/>
<text text-anchor="start" x="1135.12" y="-299.75" font-family="Helvetica,sans-Serif" font-size="10.00">Slic3r::GCodeWriter</text>
<text text-anchor="middle" x="1178.62" y="-288.5" font-family="Helvetica,sans-Serif" font-size="10.00">::toolchange</text>
</a>
</g>
</g>
<!-- Node2&#45;&gt;Node25 -->
<g id="edge30_Node000002_Node000025" class="edge">
<title>Node2&#45;&gt;Node25</title>
<g id="a_edge30_Node000002_Node000025"><a xlink:title=" ">
<path fill="none" stroke="#63b8ff" d="M1259.14,-311.52C1249.58,-309.9 1239.79,-308.23 1230.5,-306.65"/>
<polygon fill="#63b8ff" stroke="#63b8ff" points="1258.36,-315.11 1268.8,-313.34 1259.53,-308.21 1258.36,-315.11"/>
</a>
</g>
</g>
<!-- Node27 -->
<g id="Node000027" class="node">
<title>Node27</title>
<g id="a_Node000027"><a xlink:href="../../da/d7a/class_slic3r_1_1_g_code_writer.html#a905e4b6cac518c660d67243d24a91a17" target="_top" xlink:title=" ">
<polygon fill="white" stroke="#666666" points="1230.12,-378.25 1127.12,-378.25 1127.12,-347.75 1230.12,-347.75 1230.12,-378.25"/>
<text text-anchor="start" x="1135.12" y="-364.75" font-family="Helvetica,sans-Serif" font-size="10.00">Slic3r::GCodeWriter</text>
<text text-anchor="middle" x="1178.62" y="-353.5" font-family="Helvetica,sans-Serif" font-size="10.00">::unretract</text>
</a>
</g>
</g>
<!-- Node2&#45;&gt;Node27 -->
<g id="edge33_Node000002_Node000027" class="edge">
<title>Node2&#45;&gt;Node27</title>
<g id="a_edge33_Node000002_Node000027"><a xlink:title=" ">
<path fill="none" stroke="#63b8ff" d="M1259.45,-339.81C1249.79,-342.62 1239.89,-345.49 1230.5,-348.22"/>
<polygon fill="#63b8ff" stroke="#63b8ff" points="1260.17,-342.95 1268.8,-336.8 1258.22,-336.23 1260.17,-342.95"/>
</a>
</g>
</g>
<!-- Node4 -->
<g id="Node000004" class="node">
<title>Node4</title>
<g id="a_Node000004"><a xlink:href="../../dd/dc8/class_slic3r_1_1_g_code.html#a1b9cd040ce1ef5fbc7d0ff2676b3fb50" target="_top" xlink:title=" ">
<polygon fill="white" stroke="#666666" points="574.75,-379.62 451.5,-379.62 451.5,-360.38 574.75,-360.38 574.75,-379.62"/>
<text text-anchor="middle" x="513.12" y="-366.12" font-family="Helvetica,sans-Serif" font-size="10.00">Slic3r::GCode::preamble</text>
</a>
</g>
</g>
<!-- Node3&#45;&gt;Node4 -->
<g id="edge3_Node000003_Node000004" class="edge">
<title>Node3&#45;&gt;Node4</title>
<g id="a_edge3_Node000003_Node000004"><a xlink:title=" ">
<path fill="none" stroke="#63b8ff" d="M1115.99,-475.77C1008.61,-500.03 782.29,-536.73 610.75,-466 567.68,-448.24 533.68,-400.97 520.29,-380.12"/>
<polygon fill="#63b8ff" stroke="#63b8ff" points="1116.67,-478.98 1125.63,-473.32 1115.1,-472.16 1116.67,-478.98"/>
</a>
</g>
</g>
<!-- Node5 -->
<g id="Node000005" class="node">
<title>Node5</title>
<g id="a_Node000005"><a xlink:href="../../dd/dc8/class_slic3r_1_1_g_code.html#ad5ac0f44c2121cf8d09cc7fde2dae045" target="_top" xlink:title=" ">
<polygon fill="white" stroke="#666666" points="261.5,-91.25 162.25,-91.25 162.25,-60.75 261.5,-60.75 261.5,-91.25"/>
<text text-anchor="start" x="170.25" y="-77.75" font-family="Helvetica,sans-Serif" font-size="10.00">Slic3r::GCode::_do</text>
<text text-anchor="middle" x="211.88" y="-66.5" font-family="Helvetica,sans-Serif" font-size="10.00">_export</text>
</a>
</g>
</g>
<!-- Node4&#45;&gt;Node5 -->
<g id="edge4_Node000004_Node000005" class="edge">
<title>Node4&#45;&gt;Node5</title>
<g id="a_edge4_Node000004_Node000005"><a xlink:title=" ">
<path fill="none" stroke="#63b8ff" d="M481.5,-354.95C436.73,-331.77 352.72,-283.7 297.5,-224 258.91,-182.28 230.6,-119.89 218.86,-91.3"/>
<polygon fill="#63b8ff" stroke="#63b8ff" points="479.72,-358.48 490.22,-359.91 482.9,-352.25 479.72,-358.48"/>
</a>
</g>
</g>
<!-- Node6 -->
<g id="Node000006" class="node">
<title>Node6</title>
<g id="a_Node000006"><a xlink:href="../../dd/dc8/class_slic3r_1_1_g_code.html#a41ddab6bfd15c1848026271f48485efb" target="_top" xlink:title=" ">
<polygon fill="white" stroke="#666666" points="126.25,-85.62 0,-85.62 0,-66.38 126.25,-66.38 126.25,-85.62"/>
<text text-anchor="middle" x="63.12" y="-72.12" font-family="Helvetica,sans-Serif" font-size="10.00">Slic3r::GCode::do_export</text>
</a>
</g>
</g>
<!-- Node5&#45;&gt;Node6 -->
<g id="edge5_Node000005_Node000006" class="edge">
<title>Node5&#45;&gt;Node6</title>
<g id="a_edge5_Node000005_Node000006"><a xlink:title=" ">
<path fill="none" stroke="#63b8ff" d="M151.16,-76C143.07,-76 134.75,-76 126.61,-76"/>
<polygon fill="#63b8ff" stroke="#63b8ff" points="151.01,-79.5 161.01,-76 151.01,-72.5 151.01,-79.5"/>
</a>
</g>
</g>
<!-- Node7&#45;&gt;Node5 -->
<g id="edge7_Node000007_Node000005" class="edge">
<title>Node7&#45;&gt;Node5</title>
<g id="a_edge7_Node000007_Node000005"><a xlink:title=" ">
<path fill="none" stroke="#63b8ff" d="M1162.54,-177.95C1120.2,-129.45 994.55,0 859.62,0 859.62,0 859.62,0 512.12,0 415.09,0 390.39,-11.95 297.5,-40 279.77,-45.35 260.73,-53.25 245.21,-60.28"/>
<polygon fill="#63b8ff" stroke="#63b8ff" points="1160.29,-179.7 1169.46,-185.01 1165.6,-175.14 1160.29,-179.7"/>
</a>
</g>
</g>
<!-- Node8 -->
<g id="Node000008" class="node">
<title>Node8</title>
<g id="a_Node000008"><a xlink:href="../../d0/d4c/class_slic3r_1_1_wipe_tower_integration.html#a77890da960412cea8c288fe74a2d28cc" target="_top" xlink:title=" ">
<polygon fill="white" stroke="#666666" points="929.25,-266.25 788,-266.25 788,-235.75 929.25,-235.75 929.25,-266.25"/>
<text text-anchor="start" x="796" y="-252.75" font-family="Helvetica,sans-Serif" font-size="10.00">Slic3r::WipeTowerIntegration</text>
<text text-anchor="middle" x="858.62" y="-241.5" font-family="Helvetica,sans-Serif" font-size="10.00">::append_tcr</text>
</a>
</g>
</g>
<!-- Node7&#45;&gt;Node8 -->
<g id="edge8_Node000007_Node000008" class="edge">
<title>Node7&#45;&gt;Node8</title>
<g id="a_edge8_Node000007_Node000008"><a xlink:title=" ">
<path fill="none" stroke="#63b8ff" d="M1111.92,-207.36C1058.68,-216.57 983.87,-229.51 929.54,-238.91"/>
<polygon fill="#63b8ff" stroke="#63b8ff" points="1112.34,-210.67 1121.6,-205.52 1111.15,-203.77 1112.34,-210.67"/>
</a>
</g>
</g>
<!-- Node12 -->
<g id="Node000012" class="node">
<title>Node12</title>
<g id="a_Node000012"><a xlink:href="../../dd/dc8/class_slic3r_1_1_g_code.html#adb6120da85675a12714c2de6a18590da" target="_top" xlink:title=" ">
<polygon fill="white" stroke="#666666" points="916.12,-146.25 801.12,-146.25 801.12,-115.75 916.12,-115.75 916.12,-146.25"/>
<text text-anchor="start" x="809.12" y="-132.75" font-family="Helvetica,sans-Serif" font-size="10.00">Slic3r::GCode::change</text>
<text text-anchor="middle" x="858.62" y="-121.5" font-family="Helvetica,sans-Serif" font-size="10.00">_layer</text>
</a>
</g>
</g>
<!-- Node7&#45;&gt;Node12 -->
<g id="edge12_Node000007_Node000012" class="edge">
<title>Node7&#45;&gt;Node12</title>
<g id="a_edge12_Node000007_Node000012"><a xlink:title=" ">
<path fill="none" stroke="#63b8ff" d="M1153.33,-180.39C1135.66,-169.88 1110.77,-156.75 1087,-150 1030.41,-133.94 962.96,-130.12 916.3,-129.74"/>
<polygon fill="#63b8ff" stroke="#63b8ff" points="1150.99,-183.68 1161.35,-185.91 1154.64,-177.7 1150.99,-183.68"/>
</a>
</g>
</g>
<!-- Node16 -->
<g id="Node000016" class="node">
<title>Node16</title>
<g id="a_Node000016"><a xlink:href="../../dd/dc8/class_slic3r_1_1_g_code.html#a17e6b9621f765ee22ac0cc4eaf9ca1c7" target="_top" xlink:title=" ">
<polygon fill="white" stroke="#666666" points="1074.62,-189.25 977.62,-189.25 977.62,-158.75 1074.62,-158.75 1074.62,-189.25"/>
<text text-anchor="start" x="985.62" y="-175.75" font-family="Helvetica,sans-Serif" font-size="10.00">Slic3r::GCode::set</text>
<text text-anchor="middle" x="1026.12" y="-164.5" font-family="Helvetica,sans-Serif" font-size="10.00">_extruder</text>
</a>
</g>
</g>
<!-- Node7&#45;&gt;Node16 -->
<g id="edge18_Node000007_Node000016" class="edge">
<title>Node7&#45;&gt;Node16</title>
<g id="a_edge18_Node000007_Node000016"><a xlink:title=" ">
<path fill="none" stroke="#63b8ff" d="M1112.34,-186.46C1099.67,-184.6 1086.61,-182.7 1074.64,-180.95"/>
<polygon fill="#63b8ff" stroke="#63b8ff" points="1111.46,-190.01 1121.87,-188 1112.48,-183.09 1111.46,-190.01"/>
</a>
</g>
</g>
<!-- Node17 -->
<g id="Node000017" class="node">
<title>Node17</title>
<g id="a_Node000017"><a xlink:href="../../dd/dc8/class_slic3r_1_1_g_code.html#a6d246cfdea1c2e9be90f89b59e015ce3" target="_top" xlink:title=" ">
<polygon fill="white" stroke="#666666" points="1086.62,-264.62 965.62,-264.62 965.62,-245.38 1086.62,-245.38 1086.62,-264.62"/>
<text text-anchor="middle" x="1026.12" y="-251.12" font-family="Helvetica,sans-Serif" font-size="10.00">Slic3r::GCode::travel_to</text>
</a>
</g>
</g>
<!-- Node7&#45;&gt;Node17 -->
<g id="edge22_Node000007_Node000017" class="edge">
<title>Node7&#45;&gt;Node17</title>
<g id="a_edge22_Node000007_Node000017"><a xlink:title=" ">
<path fill="none" stroke="#63b8ff" d="M1142.11,-209.92C1114.68,-220.68 1077.36,-235.31 1052.78,-244.94"/>
<polygon fill="#63b8ff" stroke="#63b8ff" points="1143.06,-212.92 1151.09,-206.01 1140.51,-206.4 1143.06,-212.92"/>
</a>
</g>
</g>
<!-- Node9 -->
<g id="Node000009" class="node">
<title>Node9</title>
<g id="a_Node000009"><a xlink:href="../../d0/d4c/class_slic3r_1_1_wipe_tower_integration.html#ad176401561c0de48be24cc98ab44b4bf" target="_top" xlink:title=" ">
<polygon fill="white" stroke="#666666" points="752,-172.25 610.75,-172.25 610.75,-141.75 752,-141.75 752,-172.25"/>
<text text-anchor="start" x="618.75" y="-158.75" font-family="Helvetica,sans-Serif" font-size="10.00">Slic3r::WipeTowerIntegration</text>
<text text-anchor="middle" x="681.38" y="-147.5" font-family="Helvetica,sans-Serif" font-size="10.00">::finalize</text>
</a>
</g>
</g>
<!-- Node8&#45;&gt;Node9 -->
<g id="edge9_Node000008_Node000009" class="edge">
<title>Node8&#45;&gt;Node9</title>
<g id="a_edge9_Node000008_Node000009"><a xlink:title=" ">
<path fill="none" stroke="#63b8ff" d="M818.68,-230.11C786.27,-212.73 740.85,-188.36 711.51,-172.63"/>
<polygon fill="#63b8ff" stroke="#63b8ff" points="816.83,-233.62 827.29,-235.27 820.13,-227.46 816.83,-233.62"/>
</a>
</g>
</g>
<!-- Node10 -->
<g id="Node000010" class="node">
<title>Node10</title>
<g id="a_Node000010"><a xlink:href="../../d0/d4c/class_slic3r_1_1_wipe_tower_integration.html#a7497d8d42cdcc1e6eab63612993aee92" target="_top" xlink:title=" ">
<polygon fill="white" stroke="#666666" points="752,-307.25 610.75,-307.25 610.75,-276.75 752,-276.75 752,-307.25"/>
<text text-anchor="start" x="618.75" y="-293.75" font-family="Helvetica,sans-Serif" font-size="10.00">Slic3r::WipeTowerIntegration</text>
<text text-anchor="middle" x="681.38" y="-282.5" font-family="Helvetica,sans-Serif" font-size="10.00">::prime</text>
</a>
</g>
</g>
<!-- Node8&#45;&gt;Node10 -->
<g id="edge10_Node000008_Node000010" class="edge">
<title>Node8&#45;&gt;Node10</title>
<g id="a_edge10_Node000008_Node000010"><a xlink:title=" ">
<path fill="none" stroke="#63b8ff" d="M779.88,-269.19C769.73,-271.56 759.4,-273.98 749.45,-276.31"/>
<polygon fill="#63b8ff" stroke="#63b8ff" points="780.43,-272.42 789.37,-266.73 778.84,-265.6 780.43,-272.42"/>
</a>
</g>
</g>
<!-- Node11 -->
<g id="Node000011" class="node">
<title>Node11</title>
<g id="a_Node000011"><a xlink:href="../../d0/d4c/class_slic3r_1_1_wipe_tower_integration.html#a756231fc8c765bc08432e520fca5f49c" target="_top" xlink:title=" ">
<polygon fill="white" stroke="#666666" points="752,-258.25 610.75,-258.25 610.75,-227.75 752,-227.75 752,-258.25"/>
<text text-anchor="start" x="618.75" y="-244.75" font-family="Helvetica,sans-Serif" font-size="10.00">Slic3r::WipeTowerIntegration</text>
<text text-anchor="middle" x="681.38" y="-233.5" font-family="Helvetica,sans-Serif" font-size="10.00">::tool_change</text>
</a>
</g>
</g>
<!-- Node8&#45;&gt;Node11 -->
<g id="edge11_Node000008_Node000011" class="edge">
<title>Node8&#45;&gt;Node11</title>
<g id="a_edge11_Node000008_Node000011"><a xlink:title=" ">
<path fill="none" stroke="#63b8ff" d="M776.88,-247.31C768.66,-246.94 760.37,-246.56 752.28,-246.19"/>
<polygon fill="#63b8ff" stroke="#63b8ff" points="776.46,-250.84 786.61,-247.8 776.78,-243.85 776.46,-250.84"/>
</a>
</g>
</g>
<!-- Node12&#45;&gt;Node9 -->
<g id="edge13_Node000012_Node000009" class="edge">
<title>Node12&#45;&gt;Node9</title>
<g id="a_edge13_Node000012_Node000009"><a xlink:title=" ">
<path fill="none" stroke="#63b8ff" d="M790.07,-141.02C777.75,-142.85 764.86,-144.76 752.47,-146.6"/>
<polygon fill="#63b8ff" stroke="#63b8ff" points="790.35,-144.37 799.73,-139.44 789.32,-137.45 790.35,-144.37"/>
</a>
</g>
</g>
<!-- Node13 -->
<g id="Node000013" class="node">
<title>Node13</title>
<g id="a_Node000013"><a xlink:href="../../dd/dc8/class_slic3r_1_1_g_code.html#a9cc98ab48cc34a5705a931adb15dba33" target="_top" xlink:title=" ">
<polygon fill="white" stroke="#666666" points="572.12,-215.25 454.12,-215.25 454.12,-184.75 572.12,-184.75 572.12,-215.25"/>
<text text-anchor="start" x="462.12" y="-201.75" font-family="Helvetica,sans-Serif" font-size="10.00">Slic3r::GCode::process</text>
<text text-anchor="middle" x="513.12" y="-190.5" font-family="Helvetica,sans-Serif" font-size="10.00">_layer</text>
</a>
</g>
</g>
<!-- Node12&#45;&gt;Node13 -->
<g id="edge14_Node000012_Node000013" class="edge">
<title>Node12&#45;&gt;Node13</title>
<g id="a_edge14_Node000012_Node000013"><a xlink:title=" ">
<path fill="none" stroke="#63b8ff" d="M789.94,-120.99C739.36,-116.01 669.18,-114.47 610.75,-133 578.64,-143.18 547.79,-168.07 529.9,-184.48"/>
<polygon fill="#63b8ff" stroke="#63b8ff" points="789.43,-124.56 799.75,-122.14 790.17,-117.6 789.43,-124.56"/>
</a>
</g>
</g>
<!-- Node14 -->
<g id="Node000014" class="node">
<title>Node14</title>
<g id="a_Node000014"><a xlink:href="../../dd/dc8/class_slic3r_1_1_g_code.html#ae9d03a71321e19a7349fe7bdf892eeb5" target="_top" xlink:title=" ">
<polygon fill="white" stroke="#666666" points="415.5,-150.25 297.5,-150.25 297.5,-119.75 415.5,-119.75 415.5,-150.25"/>
<text text-anchor="start" x="305.5" y="-136.75" font-family="Helvetica,sans-Serif" font-size="10.00">Slic3r::GCode::process</text>
<text text-anchor="middle" x="356.5" y="-125.5" font-family="Helvetica,sans-Serif" font-size="10.00">_layers</text>
</a>
</g>
</g>
<!-- Node13&#45;&gt;Node14 -->
<g id="edge15_Node000013_Node000014" class="edge">
<title>Node13&#45;&gt;Node14</title>
<g id="a_edge15_Node000013_Node000014"><a xlink:title=" ">
<path fill="none" stroke="#63b8ff" d="M464.7,-180.06C442.26,-170.63 415.84,-159.53 394.85,-150.7"/>
<polygon fill="#63b8ff" stroke="#63b8ff" points="463.12,-183.62 473.69,-184.27 465.83,-177.16 463.12,-183.62"/>
</a>
</g>
</g>
<!-- Node15 -->
<g id="Node000015" class="node">
<title>Node15</title>
<g id="a_Node000015"><a xlink:href="../../dd/dc8/class_slic3r_1_1_g_code.html#af9001478c63dd7c5909161470e3d13a7" target="_top" xlink:title=" ">
<polygon fill="white" stroke="#666666" points="415.5,-215.25 297.5,-215.25 297.5,-184.75 415.5,-184.75 415.5,-215.25"/>
<text text-anchor="start" x="305.5" y="-201.75" font-family="Helvetica,sans-Serif" font-size="10.00">Slic3r::GCode::process</text>
<text text-anchor="middle" x="356.5" y="-190.5" font-family="Helvetica,sans-Serif" font-size="10.00">_layers</text>
</a>
</g>
</g>
<!-- Node13&#45;&gt;Node15 -->
<g id="edge17_Node000013_Node000015" class="edge">
<title>Node13&#45;&gt;Node15</title>
<g id="a_edge17_Node000013_Node000015"><a xlink:title=" ">
<path fill="none" stroke="#63b8ff" d="M442.77,-200C433.76,-200 424.59,-200 415.78,-200"/>
<polygon fill="#63b8ff" stroke="#63b8ff" points="442.67,-203.5 452.67,-200 442.67,-196.5 442.67,-203.5"/>
</a>
</g>
</g>
<!-- Node14&#45;&gt;Node5 -->
<g id="edge16_Node000014_Node000005" class="edge">
<title>Node14&#45;&gt;Node5</title>
<g id="a_edge16_Node000014_Node000005"><a xlink:title=" ">
<path fill="none" stroke="#63b8ff" d="M307.67,-115.21C289.18,-107.57 268.33,-98.94 250.9,-91.73"/>
<polygon fill="#63b8ff" stroke="#63b8ff" points="306.08,-118.76 316.65,-119.34 308.75,-112.29 306.08,-118.76"/>
</a>
</g>
</g>
<!-- Node16&#45;&gt;Node5 -->
<g id="edge19_Node000016_Node000005" class="edge">
<title>Node16&#45;&gt;Node5</title>
<g id="a_edge19_Node000016_Node000005"><a xlink:title=" ">
<path fill="none" stroke="#63b8ff" d="M1011.57,-148.96C995.69,-122.35 966.7,-81.49 929.25,-62 831.46,-11.11 792.61,-38 682.38,-38 682.38,-38 682.38,-38 512.12,-38 423.36,-38 320.95,-54.66 261.88,-65.92"/>
<polygon fill="#63b8ff" stroke="#63b8ff" points="1008.98,-150.47 1017.01,-157.39 1015.05,-146.98 1008.98,-150.47"/>
</a>
</g>
</g>
<!-- Node16&#45;&gt;Node8 -->
<g id="edge20_Node000016_Node000008" class="edge">
<title>Node16&#45;&gt;Node8</title>
<g id="a_edge20_Node000016_Node000008"><a xlink:title=" ">
<path fill="none" stroke="#63b8ff" d="M981.83,-194.14C954.2,-207 918.9,-223.42 893.35,-235.31"/>
<polygon fill="#63b8ff" stroke="#63b8ff" points="983.04,-196.97 990.63,-189.58 980.09,-190.63 983.04,-196.97"/>
</a>
</g>
</g>
<!-- Node16&#45;&gt;Node13 -->
<g id="edge21_Node000016_Node000013" class="edge">
<title>Node16&#45;&gt;Node13</title>
<g id="a_edge21_Node000016_Node000013"><a xlink:title=" ">
<path fill="none" stroke="#63b8ff" d="M966.58,-176.98C868.1,-181.99 670.48,-192.04 572.27,-197.04"/>
<polygon fill="#63b8ff" stroke="#63b8ff" points="966.7,-180.43 976.51,-176.42 966.35,-173.44 966.7,-180.43"/>
</a>
</g>
</g>
<!-- Node17&#45;&gt;Node5 -->
<g id="edge23_Node000017_Node000005" class="edge">
<title>Node17&#45;&gt;Node5</title>
<g id="a_edge23_Node000017_Node000005"><a xlink:title=" ">
<path fill="none" stroke="#63b8ff" d="M1003.11,-238.11C990.67,-227.65 975.58,-213.32 965.25,-198 940.93,-161.94 963.62,-133.65 929.25,-107 841.86,-39.24 792.96,-76 682.38,-76 682.38,-76 682.38,-76 512.12,-76 423.93,-76 321.12,-76 261.86,-76"/>
<polygon fill="#63b8ff" stroke="#63b8ff" points="1000.63,-241.41 1010.6,-245 1005.04,-235.98 1000.63,-241.41"/>
</a>
</g>
</g>
<!-- Node17&#45;&gt;Node8 -->
<g id="edge29_Node000017_Node000008" class="edge">
<title>Node17&#45;&gt;Node8</title>
<g id="a_edge29_Node000017_Node000008"><a xlink:title=" ">
<path fill="none" stroke="#63b8ff" d="M954.64,-253.3C946.39,-253.1 937.96,-252.89 929.71,-252.69"/>
<polygon fill="#63b8ff" stroke="#63b8ff" points="954.29,-256.81 964.38,-253.56 954.46,-249.82 954.29,-256.81"/>
</a>
</g>
</g>
<!-- Node18 -->
<g id="Node000018" class="node">
<title>Node18</title>
<g id="a_Node000018"><a xlink:href="../../dd/dc8/class_slic3r_1_1_g_code.html#a84cb9bd523ca5a017cf00608b137f5da" target="_top" xlink:title=" ">
<polygon fill="white" stroke="#666666" points="919.12,-388.62 798.12,-388.62 798.12,-369.38 919.12,-369.38 919.12,-388.62"/>
<text text-anchor="middle" x="858.62" y="-375.12" font-family="Helvetica,sans-Serif" font-size="10.00">Slic3r::GCode::_extrude</text>
</a>
</g>
</g>
<!-- Node17&#45;&gt;Node18 -->
<g id="edge24_Node000017_Node000018" class="edge">
<title>Node17&#45;&gt;Node18</title>
<g id="a_edge24_Node000017_Node000018"><a xlink:title=" ">
<path fill="none" stroke="#63b8ff" d="M974.22,-269.24C971.11,-270.69 968.1,-272.28 965.25,-274 921.69,-300.4 882.62,-348.35 866.93,-369.05"/>
<polygon fill="#63b8ff" stroke="#63b8ff" points="975.46,-272.1 983.36,-265.04 972.78,-265.63 975.46,-272.1"/>
</a>
</g>
</g>
<!-- Node19 -->
<g id="Node000019" class="node">
<title>Node19</title>
<g id="a_Node000019"><a xlink:href="../../dd/dc8/class_slic3r_1_1_g_code.html#a269d66187ba6aedf3c9632bd9100b02c" target="_top" xlink:title=" ">
<polygon fill="#fff0f0" stroke="red" points="750.88,-393.62 611.88,-393.62 611.88,-374.38 750.88,-374.38 750.88,-393.62"/>
<text text-anchor="middle" x="681.38" y="-380.12" font-family="Helvetica,sans-Serif" font-size="10.00">Slic3r::GCode::extrude_loop</text>
</a>
</g>
</g>
<!-- Node18&#45;&gt;Node19 -->
<g id="edge25_Node000018_Node000019" class="edge">
<title>Node18&#45;&gt;Node19</title>
<g id="a_edge25_Node000018_Node000019"><a xlink:title=" ">
<path fill="none" stroke="#63b8ff" d="M787.1,-381.01C775.29,-381.35 763.05,-381.7 751.28,-382.03"/>
<polygon fill="#63b8ff" stroke="#63b8ff" points="786.91,-384.49 796.8,-380.71 786.71,-377.49 786.91,-384.49"/>
</a>
</g>
</g>
<!-- Node22 -->
<g id="Node000022" class="node">
<title>Node22</title>
<g id="a_Node000022"><a xlink:href="../../dd/dc8/class_slic3r_1_1_g_code.html#a57ba58aa701b068e16dbd85cd17e25ce" target="_top" xlink:title=" ">
<polygon fill="#fff0f0" stroke="red" points="739.25,-356.25 623.5,-356.25 623.5,-325.75 739.25,-325.75 739.25,-356.25"/>
<text text-anchor="start" x="631.5" y="-342.75" font-family="Helvetica,sans-Serif" font-size="10.00">Slic3r::GCode::extrude</text>
<text text-anchor="middle" x="681.38" y="-331.5" font-family="Helvetica,sans-Serif" font-size="10.00">_multi_path</text>
</a>
</g>
</g>
<!-- Node18&#45;&gt;Node22 -->
<g id="edge27_Node000018_Node000022" class="edge">
<title>Node18&#45;&gt;Node22</title>
<g id="a_edge27_Node000018_Node000022"><a xlink:title=" ">
<path fill="none" stroke="#63b8ff" d="M800.51,-366.62C780.92,-362.37 759.01,-357.62 739.43,-353.37"/>
<polygon fill="#63b8ff" stroke="#63b8ff" points="799.61,-370.22 810.12,-368.92 801.09,-363.38 799.61,-370.22"/>
</a>
</g>
</g>
<!-- Node24 -->
<g id="Node000024" class="node">
<title>Node24</title>
<g id="a_Node000024"><a xlink:href="../../dd/dc8/class_slic3r_1_1_g_code.html#a004be9154b6cfc8fd74cff0127129742" target="_top" xlink:title=" ">
<polygon fill="#fff0f0" stroke="red" points="751.25,-430.62 611.5,-430.62 611.5,-411.38 751.25,-411.38 751.25,-430.62"/>
<text text-anchor="middle" x="681.38" y="-417.12" font-family="Helvetica,sans-Serif" font-size="10.00">Slic3r::GCode::extrude_path</text>
</a>
</g>
</g>
<!-- Node18&#45;&gt;Node24 -->
<g id="edge28_Node000018_Node000024" class="edge">
<title>Node18&#45;&gt;Node24</title>
<g id="a_edge28_Node000018_Node000024"><a xlink:title=" ">
<path fill="none" stroke="#63b8ff" d="M804.96,-391.62C779.26,-397.78 748.76,-405.09 724.62,-410.88"/>
<polygon fill="#63b8ff" stroke="#63b8ff" points="805.74,-394.79 814.65,-389.06 804.11,-387.99 805.74,-394.79"/>
</a>
</g>
</g>
<!-- Node19&#45;&gt;Node13 -->
<g id="edge26_Node000019_Node000013" class="edge">
<title>Node19&#45;&gt;Node13</title>
<g id="a_edge26_Node000019_Node000013"><a xlink:title=" ">
<path fill="none" stroke="#63b8ff" d="M616.87,-369.12C614.74,-367.86 612.69,-366.49 610.75,-365 558.57,-325.03 529.31,-248.18 518.72,-215.42"/>
<polygon fill="#63b8ff" stroke="#63b8ff" points="615.12,-372.66 625.63,-374 618.25,-366.4 615.12,-372.66"/>
</a>
</g>
</g>
<!-- Node25&#45;&gt;Node16 -->
<g id="edge32_Node000025_Node000016" class="edge">
<title>Node25&#45;&gt;Node16</title>
<g id="a_edge32_Node000025_Node000016"><a xlink:title=" ">
<path fill="none" stroke="#63b8ff" d="M1150.17,-275.38C1119.99,-250.51 1072.3,-211.22 1046.03,-189.58"/>
<polygon fill="#63b8ff" stroke="#63b8ff" points="1147.62,-278.64 1157.56,-282.3 1152.07,-273.24 1147.62,-278.64"/>
</a>
</g>
</g>
<!-- Node26 -->
<g id="Node000026" class="node">
<title>Node26</title>
<g id="a_Node000026"><a xlink:href="../../da/d7a/class_slic3r_1_1_g_code_writer.html#aaef67373d031af2fe242d83be91a58c8" target="_top" xlink:title=" ">
<polygon fill="white" stroke="#666666" points="1077.62,-313.25 974.62,-313.25 974.62,-282.75 1077.62,-282.75 1077.62,-313.25"/>
<text text-anchor="start" x="982.62" y="-299.75" font-family="Helvetica,sans-Serif" font-size="10.00">Slic3r::GCodeWriter</text>
<text text-anchor="middle" x="1026.12" y="-288.5" font-family="Helvetica,sans-Serif" font-size="10.00">::set_extruder</text>
</a>
</g>
</g>
<!-- Node25&#45;&gt;Node26 -->
<g id="edge31_Node000025_Node000026" class="edge">
<title>Node25&#45;&gt;Node26</title>
<g id="a_edge31_Node000025_Node000026"><a xlink:title=" ">
<path fill="none" stroke="#63b8ff" d="M1115.8,-298C1103.24,-298 1090.16,-298 1078.02,-298"/>
<polygon fill="#63b8ff" stroke="#63b8ff" points="1115.67,-301.5 1125.67,-298 1115.67,-294.5 1115.67,-301.5"/>
</a>
</g>
</g>
<!-- Node27&#45;&gt;Node8 -->
<g id="edge34_Node000027_Node000008" class="edge">
<title>Node27&#45;&gt;Node8</title>
<g id="a_edge34_Node000027_Node000008"><a xlink:title=" ">
<path fill="none" stroke="#63b8ff" d="M1115.95,-357.69C1072.53,-352.38 1013.73,-342 965.25,-322 931.75,-308.18 897.82,-282.93 877.77,-266.56"/>
<polygon fill="#63b8ff" stroke="#63b8ff" points="1115.3,-361.25 1125.64,-358.93 1116.11,-354.3 1115.3,-361.25"/>
</a>
</g>
</g>
<!-- Node28 -->
<g id="Node000028" class="node">
<title>Node28</title>
<g id="a_Node000028"><a xlink:href="../../da/d79/namespace_slic3r_1_1_process_layer.html#a637129d1bde40a13d75c0e9e2a4557fc" target="_top" xlink:title=" ">
<polygon fill="white" stroke="#666666" points="922.88,-452.88 794.38,-452.88 794.38,-411.12 922.88,-411.12 922.88,-452.88"/>
<text text-anchor="start" x="802.38" y="-439.38" font-family="Helvetica,sans-Serif" font-size="10.00">Slic3r::ProcessLayer</text>
<text text-anchor="start" x="802.38" y="-428.12" font-family="Helvetica,sans-Serif" font-size="10.00">::emit_custom_gcode_per</text>
<text text-anchor="middle" x="858.62" y="-416.88" font-family="Helvetica,sans-Serif" font-size="10.00">_print_z</text>
</a>
</g>
</g>
<!-- Node27&#45;&gt;Node28 -->
<g id="edge35_Node000027_Node000028" class="edge">
<title>Node27&#45;&gt;Node28</title>
<g id="a_edge35_Node000027_Node000028"><a xlink:title=" ">
<path fill="none" stroke="#63b8ff" d="M1132.42,-382.71C1118.11,-388.33 1102.09,-394.01 1087,-398 1032.59,-412.39 969.14,-421.24 923.11,-426.29"/>
<polygon fill="#63b8ff" stroke="#63b8ff" points="1133.53,-385.63 1141.5,-378.64 1130.92,-379.14 1133.53,-385.63"/>
</a>
</g>
</g>
<!-- Node29 -->
<g id="Node000029" class="node">
<title>Node29</title>
<g id="a_Node000029"><a xlink:href="../../dd/dc8/class_slic3r_1_1_g_code.html#af816f73f41514944c38bf6b59406b73f" target="_top" xlink:title=" ">
<polygon fill="white" stroke="#666666" points="1087,-388.62 965.25,-388.62 965.25,-369.38 1087,-369.38 1087,-388.62"/>
<text text-anchor="middle" x="1026.12" y="-375.12" font-family="Helvetica,sans-Serif" font-size="10.00">Slic3r::GCode::unretract</text>
</a>
</g>
</g>
<!-- Node27&#45;&gt;Node29 -->
<g id="edge37_Node000027_Node000029" class="edge">
<title>Node27&#45;&gt;Node29</title>
<g id="a_edge37_Node000027_Node000029"><a xlink:title=" ">
<path fill="none" stroke="#63b8ff" d="M1115.82,-369.57C1106.43,-370.57 1096.75,-371.6 1087.39,-372.59"/>
<polygon fill="#63b8ff" stroke="#63b8ff" points="1116.1,-372.95 1125.67,-368.42 1115.36,-365.99 1116.1,-372.95"/>
</a>
</g>
</g>
<!-- Node28&#45;&gt;Node13 -->
<g id="edge36_Node000028_Node000013" class="edge">
<title>Node28&#45;&gt;Node13</title>
<g id="a_edge36_Node000028_Node000013"><a xlink:title=" ">
<path fill="none" stroke="#63b8ff" d="M783.3,-455.87C730.69,-467.98 660.87,-473.85 610.75,-440 610.44,-439.79 541.86,-269.07 520.44,-215.73"/>
<polygon fill="#63b8ff" stroke="#63b8ff" points="784.02,-459.05 792.92,-453.29 782.37,-452.25 784.02,-459.05"/>
</a>
</g>
</g>
<!-- Node29&#45;&gt;Node8 -->
<g id="edge39_Node000029_Node000008" class="edge">
<title>Node29&#45;&gt;Node8</title>
<g id="a_edge39_Node000029_Node000008"><a xlink:title=" ">
<path fill="none" stroke="#63b8ff" d="M983.37,-364.77C977.09,-361.92 970.85,-358.66 965.25,-355 926.7,-329.78 890.42,-288.98 872.08,-266.72"/>
<polygon fill="#63b8ff" stroke="#63b8ff" points="981.62,-368.25 992.2,-368.9 984.33,-361.79 981.62,-368.25"/>
</a>
</g>
</g>
<!-- Node29&#45;&gt;Node18 -->
<g id="edge38_Node000029_Node000018" class="edge">
<title>Node29&#45;&gt;Node18</title>
<g id="a_edge38_Node000029_Node000018"><a xlink:title=" ">
<path fill="none" stroke="#63b8ff" d="M954.01,-379C942.52,-379 930.72,-379 919.52,-379"/>
<polygon fill="#63b8ff" stroke="#63b8ff" points="953.91,-382.5 963.91,-379 953.91,-375.5 953.91,-382.5"/>
</a>
</g>
</g>
</g>
</svg>
