<?xml version="1.0" encoding="UTF-8" standalone="no"?>
<!DOCTYPE svg PUBLIC "-//W3C//DTD SVG 1.1//EN"
 "http://www.w3.org/Graphics/SVG/1.1/DTD/svg11.dtd">
<!-- Generated by graphviz version 8.0.5 (20230430.1635)
 -->
<!-- Title: Eigen::umfpack_get_numeric Pages: 1 -->
<svg width="506pt" height="138pt"
 viewBox="0.00 0.00 506.00 138.25" xmlns="http://www.w3.org/2000/svg" xmlns:xlink="http://www.w3.org/1999/xlink">
<g id="graph0" class="graph" transform="scale(1 1) rotate(0) translate(4 134.25)">
<title>Eigen::umfpack_get_numeric</title>
<!-- Node1 -->
<g id="Node000001" class="node">
<title>Node1</title>
<g id="a_Node000001"><a xlink:title=" ">
<polygon fill="#999999" stroke="#666666" points="498,-79.88 395,-79.88 395,-49.38 498,-49.38 498,-79.88"/>
<text text-anchor="start" x="403" y="-66.38" font-family="Helvetica,sans-Serif" font-size="10.00">Eigen::umfpack_get</text>
<text text-anchor="middle" x="446.5" y="-55.12" font-family="Helvetica,sans-Serif" font-size="10.00">_numeric</text>
</a>
</g>
</g>
<!-- Node2 -->
<g id="Node000002" class="node">
<title>Node2</title>
<g id="a_Node000002"><a xlink:href="../../df/dc2/class_eigen_1_1_umf_pack_l_u.html#a782dbc0e1ee6cef571e11d6b70c822c1" target="_top" xlink:title=" ">
<polygon fill="white" stroke="#666666" points="359,-74.25 201.25,-74.25 201.25,-55 359,-55 359,-74.25"/>
<text text-anchor="middle" x="280.12" y="-60.75" font-family="Helvetica,sans-Serif" font-size="10.00">Eigen::UmfPackLU::extractData</text>
</a>
</g>
</g>
<!-- Node1&#45;&gt;Node2 -->
<g id="edge1_Node000001_Node000002" class="edge">
<title>Node1&#45;&gt;Node2</title>
<g id="a_edge1_Node000001_Node000002"><a xlink:title=" ">
<path fill="none" stroke="#63b8ff" d="M384.08,-64.62C376.03,-64.62 367.7,-64.62 359.43,-64.62"/>
<polygon fill="#63b8ff" stroke="#63b8ff" points="383.84,-68.13 393.84,-64.62 383.84,-61.13 383.84,-68.13"/>
</a>
</g>
</g>
<!-- Node3 -->
<g id="Node000003" class="node">
<title>Node3</title>
<g id="a_Node000003"><a xlink:href="../../df/dc2/class_eigen_1_1_umf_pack_l_u.html#ae433ff8a4341df7e12be2041e6101ca0" target="_top" xlink:title=" ">
<polygon fill="white" stroke="#666666" points="152.12,-130.25 13.12,-130.25 13.12,-111 152.12,-111 152.12,-130.25"/>
<text text-anchor="middle" x="82.62" y="-116.75" font-family="Helvetica,sans-Serif" font-size="10.00">Eigen::UmfPackLU::matrixL</text>
</a>
</g>
</g>
<!-- Node2&#45;&gt;Node3 -->
<g id="edge2_Node000002_Node000003" class="edge">
<title>Node2&#45;&gt;Node3</title>
<g id="a_edge2_Node000002_Node000003"><a xlink:title=" ">
<path fill="none" stroke="#63b8ff" d="M241.5,-78.29C219.45,-86.01 190.97,-95.52 165.25,-102.62 155.04,-105.45 144.01,-108.12 133.47,-110.51"/>
<polygon fill="#63b8ff" stroke="#63b8ff" points="242.5,-81.29 250.76,-74.66 240.17,-74.69 242.5,-81.29"/>
</a>
</g>
</g>
<!-- Node4 -->
<g id="Node000004" class="node">
<title>Node4</title>
<g id="a_Node000004"><a xlink:href="../../df/dc2/class_eigen_1_1_umf_pack_l_u.html#aacd3ba428e59ee71462c2a1cd2fcadb4" target="_top" xlink:title=" ">
<polygon fill="white" stroke="#666666" points="153.25,-93.25 12,-93.25 12,-74 153.25,-74 153.25,-93.25"/>
<text text-anchor="middle" x="82.62" y="-79.75" font-family="Helvetica,sans-Serif" font-size="10.00">Eigen::UmfPackLU::matrixU</text>
</a>
</g>
</g>
<!-- Node2&#45;&gt;Node4 -->
<g id="edge3_Node000002_Node000004" class="edge">
<title>Node2&#45;&gt;Node4</title>
<g id="a_edge3_Node000002_Node000004"><a xlink:title=" ">
<path fill="none" stroke="#63b8ff" d="M190.3,-73.26C178.03,-74.45 165.57,-75.66 153.71,-76.81"/>
<polygon fill="#63b8ff" stroke="#63b8ff" points="190.4,-76.67 200.02,-72.22 189.72,-69.7 190.4,-76.67"/>
</a>
</g>
</g>
<!-- Node5 -->
<g id="Node000005" class="node">
<title>Node5</title>
<g id="a_Node000005"><a xlink:href="../../df/dc2/class_eigen_1_1_umf_pack_l_u.html#a3c2a3c2f970b455ad491ec60d35cfe3e" target="_top" xlink:title=" ">
<polygon fill="white" stroke="#666666" points="164.88,-56.25 0.38,-56.25 0.38,-37 164.88,-37 164.88,-56.25"/>
<text text-anchor="middle" x="82.62" y="-42.75" font-family="Helvetica,sans-Serif" font-size="10.00">Eigen::UmfPackLU::permutationP</text>
</a>
</g>
</g>
<!-- Node2&#45;&gt;Node5 -->
<g id="edge4_Node000002_Node000005" class="edge">
<title>Node2&#45;&gt;Node5</title>
<g id="a_edge4_Node000002_Node000005"><a xlink:title=" ">
<path fill="none" stroke="#63b8ff" d="M190.13,-56.43C181.8,-55.66 173.39,-54.89 165.13,-54.13"/>
<polygon fill="#63b8ff" stroke="#63b8ff" points="189.74,-60 200.02,-57.43 190.38,-53.03 189.74,-60"/>
</a>
</g>
</g>
<!-- Node6 -->
<g id="Node000006" class="node">
<title>Node6</title>
<g id="a_Node000006"><a xlink:href="../../df/dc2/class_eigen_1_1_umf_pack_l_u.html#a1630e52d7526a0d3aaa6a6f033e6258b" target="_top" xlink:title=" ">
<polygon fill="white" stroke="#666666" points="165.25,-19.25 0,-19.25 0,0 165.25,0 165.25,-19.25"/>
<text text-anchor="middle" x="82.62" y="-5.75" font-family="Helvetica,sans-Serif" font-size="10.00">Eigen::UmfPackLU::permutationQ</text>
</a>
</g>
</g>
<!-- Node2&#45;&gt;Node6 -->
<g id="edge5_Node000002_Node000006" class="edge">
<title>Node2&#45;&gt;Node6</title>
<g id="a_edge5_Node000002_Node000006"><a xlink:title=" ">
<path fill="none" stroke="#63b8ff" d="M240.58,-51.07C218.65,-43.62 190.59,-34.52 165.25,-27.62 154.89,-24.81 143.7,-22.11 133.02,-19.71"/>
<polygon fill="#63b8ff" stroke="#63b8ff" points="239.21,-54.64 249.81,-54.58 241.48,-48.02 239.21,-54.64"/>
</a>
</g>
</g>
</g>
</svg>
