<?xml version="1.0" encoding="UTF-8" standalone="no"?>
<!DOCTYPE svg PUBLIC "-//W3C//DTD SVG 1.1//EN"
 "http://www.w3.org/Graphics/SVG/1.1/DTD/svg11.dtd">
<!-- Generated by graphviz version 8.0.5 (20230430.1635)
 -->
<!-- Title: Eigen::begin Pages: 1 -->
<svg width="250pt" height="137pt"
 viewBox="0.00 0.00 250.00 136.50" xmlns="http://www.w3.org/2000/svg" xmlns:xlink="http://www.w3.org/1999/xlink">
<g id="graph0" class="graph" transform="scale(1 1) rotate(0) translate(4 132.5)">
<title>Eigen::begin</title>
<!-- Node1 -->
<g id="Node000001" class="node">
<title>Node1</title>
<g id="a_Node000001"><a xlink:title=" ">
<polygon fill="#999999" stroke="#666666" points="242,-73.88 172,-73.88 172,-54.62 242,-54.62 242,-73.88"/>
<text text-anchor="middle" x="207" y="-60.38" font-family="Helvetica,sans-Serif" font-size="10.00">Eigen::begin</text>
</a>
</g>
</g>
<!-- Node2 -->
<g id="Node000002" class="node">
<title>Node2</title>
<g id="a_Node000002"><a xlink:href="../../de/ddb/class_eigen_1_1_random_setter.html#a3e4a78672df59ab4dd2799919b431027" target="_top" xlink:title=" ">
<polygon fill="white" stroke="#666666" points="122.88,-128.5 13.12,-128.5 13.12,-98 122.88,-98 122.88,-128.5"/>
<text text-anchor="start" x="21.12" y="-115" font-family="Helvetica,sans-Serif" font-size="10.00">Eigen::RandomSetter</text>
<text text-anchor="middle" x="68" y="-103.75" font-family="Helvetica,sans-Serif" font-size="10.00">::~RandomSetter</text>
</a>
</g>
</g>
<!-- Node1&#45;&gt;Node2 -->
<g id="edge1_Node000001_Node000002" class="edge">
<title>Node1&#45;&gt;Node2</title>
<g id="a_edge1_Node000001_Node000002"><a xlink:title=" ">
<path fill="none" stroke="#63b8ff" d="M167.79,-77.92C150.76,-84.01 130.59,-91.22 112.93,-97.54"/>
<polygon fill="#63b8ff" stroke="#63b8ff" points="168.71,-80.95 176.95,-74.28 166.35,-74.36 168.71,-80.95"/>
</a>
</g>
</g>
<!-- Node3 -->
<g id="Node000003" class="node">
<title>Node3</title>
<g id="a_Node000003"><a xlink:href="../../d3/dc4/class_eigen_1_1_incomplete_cholesky.html#ae218a158db71382db2ed5e01e9ba0bc0" target="_top" xlink:title=" ">
<polygon fill="white" stroke="#666666" points="136,-79.5 0,-79.5 0,-49 136,-49 136,-79.5"/>
<text text-anchor="start" x="8" y="-66" font-family="Helvetica,sans-Serif" font-size="10.00">Eigen::IncompleteCholesky</text>
<text text-anchor="middle" x="68" y="-54.75" font-family="Helvetica,sans-Serif" font-size="10.00">::factorize</text>
</a>
</g>
</g>
<!-- Node1&#45;&gt;Node3 -->
<g id="edge2_Node000001_Node000003" class="edge">
<title>Node1&#45;&gt;Node3</title>
<g id="a_edge2_Node000001_Node000003"><a xlink:title=" ">
<path fill="none" stroke="#63b8ff" d="M161.01,-64.25C153.13,-64.25 144.77,-64.25 136.44,-64.25"/>
<polygon fill="#63b8ff" stroke="#63b8ff" points="160.78,-67.75 170.78,-64.25 160.78,-60.75 160.78,-67.75"/>
</a>
</g>
</g>
<!-- Node4 -->
<g id="Node000004" class="node">
<title>Node4</title>
<g id="a_Node000004"><a xlink:href="../../da/d5d/class_eigen_1_1_block_sparse_matrix.html#aa148b63f89555f4eed312638abe597eb" target="_top" xlink:title="Fill values in a matrix from a triplet list.">
<polygon fill="white" stroke="#666666" points="132.62,-30.5 3.38,-30.5 3.38,0 132.62,0 132.62,-30.5"/>
<text text-anchor="start" x="11.38" y="-17" font-family="Helvetica,sans-Serif" font-size="10.00">Eigen::BlockSparseMatrix</text>
<text text-anchor="middle" x="68" y="-5.75" font-family="Helvetica,sans-Serif" font-size="10.00">::setFromTriplets</text>
</a>
</g>
</g>
<!-- Node1&#45;&gt;Node4 -->
<g id="edge3_Node000001_Node000004" class="edge">
<title>Node1&#45;&gt;Node4</title>
<g id="a_edge3_Node000001_Node000004"><a xlink:title=" ">
<path fill="none" stroke="#63b8ff" d="M167.79,-50.58C150.76,-44.49 130.59,-37.28 112.93,-30.96"/>
<polygon fill="#63b8ff" stroke="#63b8ff" points="166.35,-54.14 176.95,-54.22 168.71,-47.55 166.35,-54.14"/>
</a>
</g>
</g>
</g>
</svg>
