<?xml version="1.0" encoding="UTF-8" standalone="no"?>
<!DOCTYPE svg PUBLIC "-//W3C//DTD SVG 1.1//EN"
 "http://www.w3.org/Graphics/SVG/1.1/DTD/svg11.dtd">
<!-- Generated by graphviz version 8.0.5 (20230430.1635)
 -->
<!-- Title: igl::geodesic::Interval::find_closest_point Pages: 1 -->
<svg width="817pt" height="88pt"
 viewBox="0.00 0.00 817.00 87.50" xmlns="http://www.w3.org/2000/svg" xmlns:xlink="http://www.w3.org/1999/xlink">
<g id="graph0" class="graph" transform="scale(1 1) rotate(0) translate(4 83.5)">
<title>igl::geodesic::Interval::find_closest_point</title>
<!-- Node1 -->
<g id="Node000001" class="node">
<title>Node1</title>
<g id="a_Node000001"><a xlink:title=" ">
<polygon fill="#999999" stroke="#666666" points="809,-54.5 700,-54.5 700,-24 809,-24 809,-54.5"/>
<text text-anchor="start" x="708" y="-41" font-family="Helvetica,sans-Serif" font-size="10.00">igl::geodesic::Interval</text>
<text text-anchor="middle" x="754.5" y="-29.75" font-family="Helvetica,sans-Serif" font-size="10.00">::find_closest_point</text>
</a>
</g>
</g>
<!-- Node2 -->
<g id="Node000002" class="node">
<title>Node2</title>
<g id="a_Node000002"><a xlink:href="../../d3/d8c/classigl_1_1geodesic_1_1_interval_list.html#aabdea2e826dca1f7509cda35fa786f90" target="_top" xlink:title=" ">
<polygon fill="white" stroke="#666666" points="664,-54.5 539.25,-54.5 539.25,-24 664,-24 664,-54.5"/>
<text text-anchor="start" x="547.25" y="-41" font-family="Helvetica,sans-Serif" font-size="10.00">igl::geodesic::IntervalList</text>
<text text-anchor="middle" x="601.62" y="-29.75" font-family="Helvetica,sans-Serif" font-size="10.00">::find_closest_point</text>
</a>
</g>
</g>
<!-- Node1&#45;&gt;Node2 -->
<g id="edge1_Node000001_Node000002" class="edge">
<title>Node1&#45;&gt;Node2</title>
<g id="a_edge1_Node000001_Node000002"><a xlink:title=" ">
<path fill="none" stroke="#63b8ff" d="M688.9,-39.25C680.75,-39.25 672.41,-39.25 664.3,-39.25"/>
<polygon fill="#63b8ff" stroke="#63b8ff" points="688.88,-42.75 698.88,-39.25 688.88,-35.75 688.88,-42.75"/>
</a>
</g>
</g>
<!-- Node3 -->
<g id="Node000003" class="node">
<title>Node3</title>
<g id="a_Node000003"><a xlink:href="../../d2/d42/classigl_1_1geodesic_1_1_geodesic_algorithm_exact.html#ab2ea3a44cd17a5095b668b82c47bac0c" target="_top" xlink:title=" ">
<polygon fill="white" stroke="#666666" points="496.88,-79.5 337.62,-79.5 337.62,-49 496.88,-49 496.88,-79.5"/>
<text text-anchor="start" x="345.62" y="-66" font-family="Helvetica,sans-Serif" font-size="10.00">igl::geodesic::GeodesicAlgorithm</text>
<text text-anchor="middle" x="417.25" y="-54.75" font-family="Helvetica,sans-Serif" font-size="10.00">Exact::best_first_interval</text>
</a>
</g>
</g>
<!-- Node2&#45;&gt;Node3 -->
<g id="edge2_Node000002_Node000003" class="edge">
<title>Node2&#45;&gt;Node3</title>
<g id="a_edge2_Node000002_Node000003"><a xlink:title=" ">
<path fill="none" stroke="#63b8ff" d="M528,-49.21C517.83,-50.6 507.34,-52.04 497.07,-53.45"/>
<polygon fill="#63b8ff" stroke="#63b8ff" points="528.45,-52.54 537.88,-47.71 527.5,-45.6 528.45,-52.54"/>
</a>
</g>
</g>
<!-- Node7 -->
<g id="Node000007" class="node">
<title>Node7</title>
<g id="a_Node000007"><a xlink:href="../../d2/d42/classigl_1_1geodesic_1_1_geodesic_algorithm_exact.html#ae889f93e4d4b52076adfcc23548feadb" target="_top" xlink:title=" ">
<polygon fill="white" stroke="#666666" points="503.25,-30.5 331.25,-30.5 331.25,0 503.25,0 503.25,-30.5"/>
<text text-anchor="start" x="339.25" y="-17" font-family="Helvetica,sans-Serif" font-size="10.00">igl::geodesic::GeodesicAlgorithm</text>
<text text-anchor="middle" x="417.25" y="-5.75" font-family="Helvetica,sans-Serif" font-size="10.00">Exact::best_point_on_the_edge_set</text>
</a>
</g>
</g>
<!-- Node2&#45;&gt;Node7 -->
<g id="edge6_Node000002_Node000007" class="edge">
<title>Node2&#45;&gt;Node7</title>
<g id="a_edge6_Node000002_Node000007"><a xlink:title=" ">
<path fill="none" stroke="#63b8ff" d="M528.05,-29.7C520,-28.64 511.74,-27.55 503.55,-26.47"/>
<polygon fill="#63b8ff" stroke="#63b8ff" points="527.51,-33.29 537.88,-31.12 528.42,-26.35 527.51,-33.29"/>
</a>
</g>
</g>
<!-- Node4 -->
<g id="Node000004" class="node">
<title>Node4</title>
<g id="a_Node000004"><a xlink:href="../../d2/d42/classigl_1_1geodesic_1_1_geodesic_algorithm_exact.html#a9f7e0be50a05e59176b7fc87ac95bc62" target="_top" xlink:title=" ">
<polygon fill="white" stroke="#666666" points="295.25,-79.5 136,-79.5 136,-49 295.25,-49 295.25,-79.5"/>
<text text-anchor="start" x="144" y="-66" font-family="Helvetica,sans-Serif" font-size="10.00">igl::geodesic::GeodesicAlgorithm</text>
<text text-anchor="middle" x="215.62" y="-54.75" font-family="Helvetica,sans-Serif" font-size="10.00">Exact::best_source</text>
</a>
</g>
</g>
<!-- Node3&#45;&gt;Node4 -->
<g id="edge3_Node000003_Node000004" class="edge">
<title>Node3&#45;&gt;Node4</title>
<g id="a_edge3_Node000003_Node000004"><a xlink:title=" ">
<path fill="none" stroke="#63b8ff" d="M326.64,-64.25C316.29,-64.25 305.8,-64.25 295.6,-64.25"/>
<polygon fill="#63b8ff" stroke="#63b8ff" points="326.35,-67.75 336.35,-64.25 326.35,-60.75 326.35,-67.75"/>
</a>
</g>
</g>
<!-- Node5 -->
<g id="Node000005" class="node">
<title>Node5</title>
<g id="a_Node000005"><a xlink:href="../../d2/d42/classigl_1_1geodesic_1_1_geodesic_algorithm_exact.html#a52c1d55e64a0ab6603256cff419672c3" target="_top" xlink:title=" ">
<polygon fill="white" stroke="#666666" points="295.25,-30.5 136,-30.5 136,0 295.25,0 295.25,-30.5"/>
<text text-anchor="start" x="144" y="-17" font-family="Helvetica,sans-Serif" font-size="10.00">igl::geodesic::GeodesicAlgorithm</text>
<text text-anchor="middle" x="215.62" y="-5.75" font-family="Helvetica,sans-Serif" font-size="10.00">Exact::trace_back</text>
</a>
</g>
</g>
<!-- Node3&#45;&gt;Node5 -->
<g id="edge4_Node000003_Node000005" class="edge">
<title>Node3&#45;&gt;Node5</title>
<g id="a_edge4_Node000003_Node000005"><a xlink:title=" ">
<path fill="none" stroke="#63b8ff" d="M341.61,-45.93C321.54,-41 300.02,-35.72 280.59,-30.95"/>
<polygon fill="#63b8ff" stroke="#63b8ff" points="340.72,-49.56 351.26,-48.54 342.39,-42.76 340.72,-49.56"/>
</a>
</g>
</g>
<!-- Node6 -->
<g id="Node000006" class="node">
<title>Node6</title>
<g id="a_Node000006"><a xlink:href="../../dc/d25/namespaceigl.html#a89d8a031776cb285b428cb65a9d65311" target="_top" xlink:title=" ">
<polygon fill="white" stroke="#666666" points="100,-24.88 0,-24.88 0,-5.62 100,-5.62 100,-24.88"/>
<text text-anchor="middle" x="50" y="-11.38" font-family="Helvetica,sans-Serif" font-size="10.00">igl::exact_geodesic</text>
</a>
</g>
</g>
<!-- Node5&#45;&gt;Node6 -->
<g id="edge5_Node000005_Node000006" class="edge">
<title>Node5&#45;&gt;Node6</title>
<g id="a_edge5_Node000005_Node000006"><a xlink:title=" ">
<path fill="none" stroke="#63b8ff" d="M124.92,-15.25C116.45,-15.25 108.09,-15.25 100.21,-15.25"/>
<polygon fill="#63b8ff" stroke="#63b8ff" points="124.69,-18.75 134.69,-15.25 124.69,-11.75 124.69,-18.75"/>
</a>
</g>
</g>
<!-- Node7&#45;&gt;Node5 -->
<g id="edge7_Node000007_Node000005" class="edge">
<title>Node7&#45;&gt;Node5</title>
<g id="a_edge7_Node000007_Node000005"><a xlink:title=" ">
<path fill="none" stroke="#63b8ff" d="M320.2,-15.25C311.95,-15.25 303.66,-15.25 295.57,-15.25"/>
<polygon fill="#63b8ff" stroke="#63b8ff" points="320.01,-18.75 330.01,-15.25 320.01,-11.75 320.01,-18.75"/>
</a>
</g>
</g>
</g>
</svg>
