<?xml version="1.0" encoding="UTF-8" standalone="no"?>
<!DOCTYPE svg PUBLIC "-//W3C//DTD SVG 1.1//EN"
 "http://www.w3.org/Graphics/SVG/1.1/DTD/svg11.dtd">
<!-- Generated by graphviz version 8.0.5 (20230430.1635)
 -->
<!-- Title: Slic3r::AllIntersectionsVisitor Pages: 1 -->
<svg width="1225pt" height="387pt"
 viewBox="0.00 0.00 1224.75 387.25" xmlns="http://www.w3.org/2000/svg" xmlns:xlink="http://www.w3.org/1999/xlink">
<g id="graph0" class="graph" transform="scale(1 1) rotate(0) translate(4 383.25)">
<title>Slic3r::AllIntersectionsVisitor</title>
<!-- Node1 -->
<g id="Node000001" class="node">
<title>Node1</title>
<g id="a_Node000001"><a xlink:title=" ">
<polygon fill="#999999" stroke="#666666" points="1216.75,-199.88 1102.5,-199.88 1102.5,-169.38 1216.75,-169.38 1216.75,-199.88"/>
<text text-anchor="start" x="1110.5" y="-186.38" font-family="Helvetica,sans-Serif" font-size="10.00">Slic3r::AllIntersections</text>
<text text-anchor="middle" x="1159.62" y="-175.12" font-family="Helvetica,sans-Serif" font-size="10.00">Visitor</text>
</a>
</g>
</g>
<!-- Node2 -->
<g id="Node000002" class="node">
<title>Node2</title>
<g id="a_Node000002"><a xlink:href="../../d2/da7/class_slic3r_1_1_edge_grid_1_1_grid.html" target="_top" xlink:title=" ">
<polygon fill="white" stroke="#666666" points="990.38,-213.25 879.12,-213.25 879.12,-194 990.38,-194 990.38,-213.25"/>
<text text-anchor="middle" x="934.75" y="-199.75" font-family="Helvetica,sans-Serif" font-size="10.00">Slic3r::EdgeGrid::Grid</text>
</a>
</g>
</g>
<!-- Node2&#45;&gt;Node1 -->
<g id="edge1_Node000001_Node000002" class="edge">
<title>Node2&#45;&gt;Node1</title>
<g id="a_edge1_Node000001_Node000002"><a xlink:title=" ">
<path fill="none" stroke="#9a32cd" stroke-dasharray="5,2" d="M1001.44,-198.02C1033.45,-195.3 1071.56,-192.05 1102.23,-189.43"/>
<polygon fill="#9a32cd" stroke="#9a32cd" points="1001.51,-194.59 991.84,-198.93 1002.1,-201.57 1001.51,-194.59"/>
</a>
</g>
<text text-anchor="middle" x="1048.5" y="-198.38" font-family="Helvetica,sans-Serif" font-size="10.00" fill="grey"> grid</text>
</g>
<!-- Node3 -->
<g id="Node000003" class="node">
<title>Node3</title>
<g id="a_Node000003"><a xlink:href="../../d4/d2d/class_slic3r_1_1_bounding_box.html" target="_top" xlink:title=" ">
<polygon fill="white" stroke="#666666" points="720.12,-93.25 615.62,-93.25 615.62,-74 720.12,-74 720.12,-93.25"/>
<text text-anchor="middle" x="667.88" y="-79.75" font-family="Helvetica,sans-Serif" font-size="10.00">Slic3r::BoundingBox</text>
</a>
</g>
</g>
<!-- Node3&#45;&gt;Node2 -->
<g id="edge2_Node000002_Node000003" class="edge">
<title>Node3&#45;&gt;Node2</title>
<g id="a_edge2_Node000002_Node000003"><a xlink:title=" ">
<path fill="none" stroke="#9a32cd" stroke-dasharray="5,2" d="M715.41,-96.83C763.72,-111.23 835.24,-134.73 857,-153.38 869.47,-164.05 862.23,-175.31 875,-185.62 878.9,-188.78 883.35,-191.38 888.01,-193.52"/>
<polygon fill="#9a32cd" stroke="#9a32cd" points="716.46,-93.19 705.88,-93.72 714.48,-99.91 716.46,-93.19"/>
</a>
</g>
<text text-anchor="middle" x="801.88" y="-154.38" font-family="Helvetica,sans-Serif" font-size="10.00" fill="grey"> m_bbox</text>
</g>
<!-- Node4 -->
<g id="Node000004" class="node">
<title>Node4</title>
<g id="a_Node000004"><a xlink:href="../../dc/d28/class_slic3r_1_1_bounding_box_base.html" target="_top" xlink:title=" ">
<polygon fill="white" stroke="#666666" points="467.88,-67.88 340.88,-67.88 340.88,-37.38 467.88,-37.38 467.88,-67.88"/>
<text text-anchor="start" x="348.88" y="-54.38" font-family="Helvetica,sans-Serif" font-size="10.00">Slic3r::BoundingBoxBase</text>
<text text-anchor="middle" x="404.38" y="-43.12" font-family="Helvetica,sans-Serif" font-size="10.00">&lt; Point, Points &gt;</text>
</a>
</g>
</g>
<!-- Node4&#45;&gt;Node3 -->
<g id="edge3_Node000003_Node000004" class="edge">
<title>Node4&#45;&gt;Node3</title>
<g id="a_edge3_Node000003_Node000004"><a xlink:title=" ">
<path fill="none" stroke="#63b8ff" d="M478.94,-60.8C512.52,-64.6 552.78,-69.23 589,-73.62 597.52,-74.66 606.57,-75.79 615.36,-76.91"/>
<polygon fill="#63b8ff" stroke="#63b8ff" points="479.62,-57.24 469.29,-59.6 478.83,-64.2 479.62,-57.24"/>
</a>
</g>
</g>
<!-- Node5 -->
<g id="Node000005" class="node">
<title>Node5</title>
<g id="a_Node000005"><a xlink:href="../../d6/dec/class_slic3r_1_1_point.html" target="_top" xlink:title=" ">
<polygon fill="white" stroke="#666666" points="192.75,-90.25 123.5,-90.25 123.5,-71 192.75,-71 192.75,-90.25"/>
<text text-anchor="middle" x="158.12" y="-76.75" font-family="Helvetica,sans-Serif" font-size="10.00">Slic3r::Point</text>
</a>
</g>
</g>
<!-- Node5&#45;&gt;Node4 -->
<g id="edge4_Node000004_Node000005" class="edge">
<title>Node5&#45;&gt;Node4</title>
<g id="a_edge4_Node000004_Node000005"><a xlink:title=" ">
<path fill="none" stroke="#9a32cd" stroke-dasharray="5,2" d="M203.54,-68.38C216.86,-65.17 231.56,-62.06 245.25,-60.12 276.41,-55.72 311.33,-53.75 340.41,-52.93"/>
<polygon fill="#9a32cd" stroke="#9a32cd" points="203.06,-65.15 194.21,-70.97 204.76,-71.94 203.06,-65.15"/>
</a>
</g>
<text text-anchor="middle" x="283.88" y="-73.62" font-family="Helvetica,sans-Serif" font-size="10.00" fill="grey"> max</text>
<text text-anchor="middle" x="283.88" y="-62.38" font-family="Helvetica,sans-Serif" font-size="10.00" fill="grey">min</text>
</g>
<!-- Node21 -->
<g id="Node000021" class="node">
<title>Node21</title>
<g id="a_Node000021"><a xlink:href="../../d5/dc4/class_slic3r_1_1_edge_grid_1_1_contour.html" target="_top" xlink:title=" ">
<polygon fill="white" stroke="#666666" points="468.25,-105.25 340.5,-105.25 340.5,-86 468.25,-86 468.25,-105.25"/>
<text text-anchor="middle" x="404.38" y="-91.75" font-family="Helvetica,sans-Serif" font-size="10.00">Slic3r::EdgeGrid::Contour</text>
</a>
</g>
</g>
<!-- Node5&#45;&gt;Node21 -->
<g id="edge9_Node000021_Node000005" class="edge">
<title>Node5&#45;&gt;Node21</title>
<g id="a_edge9_Node000021_Node000005"><a xlink:title=" ">
<path fill="none" stroke="#9a32cd" stroke-dasharray="5,2" d="M203.86,-83.37C242.01,-85.72 297.3,-89.11 340.01,-91.73"/>
<polygon fill="#9a32cd" stroke="#9a32cd" points="204.28,-79.83 194.09,-82.71 203.85,-86.82 204.28,-79.83"/>
</a>
</g>
<text text-anchor="middle" x="283.88" y="-103.62" font-family="Helvetica,sans-Serif" font-size="10.00" fill="grey"> m_begin</text>
<text text-anchor="middle" x="283.88" y="-92.38" font-family="Helvetica,sans-Serif" font-size="10.00" fill="grey">m_end</text>
</g>
<!-- Node6 -->
<g id="Node000006" class="node">
<title>Node6</title>
<g id="a_Node000006"><a xlink:href="../../d2/d2d/class_eigen_1_1_matrix.html" target="_top" xlink:title=" ">
<polygon fill="#fff0f0" stroke="red" points="52,-90.25 0,-90.25 0,-71 52,-71 52,-90.25"/>
<text text-anchor="middle" x="26" y="-76.75" font-family="Helvetica,sans-Serif" font-size="10.00">Vec2crd</text>
</a>
</g>
</g>
<!-- Node6&#45;&gt;Node5 -->
<g id="edge5_Node000005_Node000006" class="edge">
<title>Node6&#45;&gt;Node5</title>
<g id="a_edge5_Node000005_Node000006"><a xlink:title=" ">
<path fill="none" stroke="#63b8ff" d="M63.24,-80.62C82.08,-80.62 104.96,-80.62 123.41,-80.62"/>
<polygon fill="#63b8ff" stroke="#63b8ff" points="63.4,-77.13 53.4,-80.62 63.4,-84.13 63.4,-77.13"/>
</a>
</g>
</g>
<!-- Node19 -->
<g id="Node000019" class="node">
<title>Node19</title>
<g id="a_Node000019"><a xlink:href="../../dc/d28/class_slic3r_1_1_bounding_box_base.html" target="_top" xlink:title=" ">
<polygon fill="white" stroke="#666666" points="227.25,-33.88 89,-33.88 89,-3.37 227.25,-3.37 227.25,-33.88"/>
<text text-anchor="start" x="97" y="-20.38" font-family="Helvetica,sans-Serif" font-size="10.00">Slic3r::BoundingBoxBase</text>
<text text-anchor="middle" x="158.12" y="-9.12" font-family="Helvetica,sans-Serif" font-size="10.00">&lt; PointType, APointsType &gt;</text>
</a>
</g>
</g>
<!-- Node19&#45;&gt;Node4 -->
<g id="edge6_Node000004_Node000019" class="edge">
<title>Node19&#45;&gt;Node4</title>
<g id="a_edge6_Node000004_Node000019"><a xlink:title=" ">
<path fill="none" stroke="orange" stroke-dasharray="5,2" d="M238.41,-28.11C265.15,-31.47 295.15,-35.4 322.5,-39.38 328.41,-40.23 334.56,-41.17 340.71,-42.13"/>
<polygon fill="orange" stroke="orange" points="238.92,-24.52 228.56,-26.76 238.05,-31.47 238.92,-24.52"/>
</a>
</g>
<text text-anchor="middle" x="283.88" y="-41.38" font-family="Helvetica,sans-Serif" font-size="10.00" fill="grey"> &lt; Point, Points &gt;</text>
</g>
<!-- Node20 -->
<g id="Node000020" class="node">
<title>Node20</title>
<g id="a_Node000020"><a xlink:title=" ">
<polygon fill="white" stroke="#666666" points="723.88,-169.88 611.88,-169.88 611.88,-139.38 723.88,-139.38 723.88,-169.88"/>
<text text-anchor="start" x="619.88" y="-156.38" font-family="Helvetica,sans-Serif" font-size="10.00">std::vector&lt; Slic3r</text>
<text text-anchor="middle" x="667.88" y="-145.12" font-family="Helvetica,sans-Serif" font-size="10.00">::EdgeGrid::Contour &gt;</text>
</a>
</g>
</g>
<!-- Node20&#45;&gt;Node2 -->
<g id="edge7_Node000002_Node000020" class="edge">
<title>Node20&#45;&gt;Node2</title>
<g id="a_edge7_Node000002_Node000020"><a xlink:title=" ">
<path fill="none" stroke="#9a32cd" stroke-dasharray="5,2" d="M734.5,-166.09C770.66,-172.48 816.34,-180.69 857,-188.38 865.68,-190.02 874.9,-191.81 883.82,-193.56"/>
<polygon fill="#9a32cd" stroke="#9a32cd" points="735.53,-162.54 725.08,-164.25 734.32,-169.43 735.53,-162.54"/>
</a>
</g>
<text text-anchor="middle" x="801.88" y="-189.38" font-family="Helvetica,sans-Serif" font-size="10.00" fill="grey"> m_contours</text>
</g>
<!-- Node21&#45;&gt;Node20 -->
<g id="edge8_Node000020_Node000021" class="edge">
<title>Node21&#45;&gt;Node20</title>
<g id="a_edge8_Node000020_Node000021"><a xlink:title=" ">
<path fill="none" stroke="#9a32cd" stroke-dasharray="5,2" d="M479.44,-85.46C513.62,-83.4 554.22,-84.73 589,-96.38 614.14,-104.79 637.73,-124.79 652.22,-139.01"/>
<polygon fill="#9a32cd" stroke="#9a32cd" points="479.32,-82.04 469.59,-86.25 479.82,-89.02 479.32,-82.04"/>
</a>
</g>
<text text-anchor="middle" x="537.62" y="-98.38" font-family="Helvetica,sans-Serif" font-size="10.00" fill="grey"> elements</text>
</g>
<!-- Node22 -->
<g id="Node000022" class="node">
<title>Node22</title>
<g id="a_Node000022"><a xlink:title=" ">
<polygon fill="white" stroke="#666666" points="447.62,-265.25 361.12,-265.25 361.12,-246 447.62,-246 447.62,-265.25"/>
<text text-anchor="middle" x="404.38" y="-251.75" font-family="Helvetica,sans-Serif" font-size="10.00">std::vector&lt; T &gt;</text>
</a>
</g>
</g>
<!-- Node22&#45;&gt;Node20 -->
<g id="edge10_Node000020_Node000022" class="edge">
<title>Node22&#45;&gt;Node20</title>
<g id="a_edge10_Node000020_Node000022"><a xlink:title=" ">
<path fill="none" stroke="orange" stroke-dasharray="5,2" d="M419.85,-237.35C434.6,-220.11 459.12,-195.04 486.25,-182.12 525.49,-163.44 574.46,-156.88 611.51,-154.82"/>
<polygon fill="orange" stroke="orange" points="416.74,-234.61 413.06,-244.55 422.14,-239.08 416.74,-234.61"/>
</a>
</g>
<text text-anchor="start" x="496" y="-194.62" font-family="Helvetica,sans-Serif" font-size="10.00" fill="grey"> &lt; Slic3r::EdgeGrid</text>
<text text-anchor="middle" x="537.62" y="-183.38" font-family="Helvetica,sans-Serif" font-size="10.00" fill="grey">::Contour &gt;</text>
</g>
<!-- Node23 -->
<g id="Node000023" class="node">
<title>Node23</title>
<g id="a_Node000023"><a xlink:title=" ">
<polygon fill="white" stroke="#666666" points="721.25,-267.88 614.5,-267.88 614.5,-237.38 721.25,-237.38 721.25,-267.88"/>
<text text-anchor="start" x="622.5" y="-254.38" font-family="Helvetica,sans-Serif" font-size="10.00">std::vector&lt; std::pair</text>
<text text-anchor="middle" x="667.88" y="-243.12" font-family="Helvetica,sans-Serif" font-size="10.00">&lt; size_t, size_t &gt; &gt;</text>
</a>
</g>
</g>
<!-- Node22&#45;&gt;Node23 -->
<g id="edge13_Node000023_Node000022" class="edge">
<title>Node22&#45;&gt;Node23</title>
<g id="a_edge13_Node000023_Node000022"><a xlink:title=" ">
<path fill="none" stroke="orange" stroke-dasharray="5,2" d="M458.8,-255.01C504.26,-254.49 569.18,-253.75 614.37,-253.23"/>
<polygon fill="orange" stroke="orange" points="458.93,-251.52 448.97,-255.14 459.01,-258.52 458.93,-251.52"/>
</a>
</g>
<text text-anchor="start" x="494.88" y="-267.62" font-family="Helvetica,sans-Serif" font-size="10.00" fill="grey"> &lt; std::pair&lt; size_t,</text>
<text text-anchor="middle" x="537.62" y="-256.38" font-family="Helvetica,sans-Serif" font-size="10.00" fill="grey"> size_t &gt; &gt;</text>
</g>
<!-- Node24 -->
<g id="Node000024" class="node">
<title>Node24</title>
<g id="a_Node000024"><a xlink:title=" ">
<polygon fill="white" stroke="#666666" points="727.25,-218.88 608.5,-218.88 608.5,-188.38 727.25,-188.38 727.25,-218.88"/>
<text text-anchor="start" x="616.5" y="-205.38" font-family="Helvetica,sans-Serif" font-size="10.00">std::vector&lt; Slic3r</text>
<text text-anchor="middle" x="667.88" y="-194.12" font-family="Helvetica,sans-Serif" font-size="10.00">::EdgeGrid::Grid::Cell &gt;</text>
</a>
</g>
</g>
<!-- Node22&#45;&gt;Node24 -->
<g id="edge16_Node000024_Node000022" class="edge">
<title>Node22&#45;&gt;Node24</title>
<g id="a_edge16_Node000024_Node000022"><a xlink:title=" ">
<path fill="none" stroke="orange" stroke-dasharray="5,2" d="M438.6,-241.59C453.01,-236 470.23,-229.99 486.25,-226.12 526.34,-216.45 572.49,-210.79 608.11,-207.57"/>
<polygon fill="orange" stroke="orange" points="437.65,-238.59 429.65,-245.54 440.24,-245.1 437.65,-238.59"/>
</a>
</g>
<text text-anchor="start" x="496" y="-238.62" font-family="Helvetica,sans-Serif" font-size="10.00" fill="grey"> &lt; Slic3r::EdgeGrid</text>
<text text-anchor="middle" x="537.62" y="-227.38" font-family="Helvetica,sans-Serif" font-size="10.00" fill="grey">::Grid::Cell &gt;</text>
</g>
<!-- Node26 -->
<g id="Node000026" class="node">
<title>Node26</title>
<g id="a_Node000026"><a xlink:title=" ">
<polygon fill="white" stroke="#666666" points="717.5,-305.25 618.25,-305.25 618.25,-286 717.5,-286 717.5,-305.25"/>
<text text-anchor="middle" x="667.88" y="-291.75" font-family="Helvetica,sans-Serif" font-size="10.00">std::vector&lt; float &gt;</text>
</a>
</g>
</g>
<!-- Node22&#45;&gt;Node26 -->
<g id="edge18_Node000026_Node000022" class="edge">
<title>Node22&#45;&gt;Node26</title>
<g id="a_edge18_Node000026_Node000022"><a xlink:title=" ">
<path fill="none" stroke="orange" stroke-dasharray="5,2" d="M444.37,-268.91C457.53,-272.94 472.4,-276.98 486.25,-279.62 530.32,-288.03 581.29,-292.03 617.83,-293.93"/>
<polygon fill="orange" stroke="orange" points="445.82,-265.38 435.23,-265.72 443.71,-272.06 445.82,-265.38"/>
</a>
</g>
<text text-anchor="middle" x="537.62" y="-293.38" font-family="Helvetica,sans-Serif" font-size="10.00" fill="grey"> &lt; float &gt;</text>
</g>
<!-- Node27 -->
<g id="Node000027" class="node">
<title>Node27</title>
<g id="a_Node000027"><a xlink:title=" ">
<polygon fill="white" stroke="#666666" points="716,-353.88 619.75,-353.88 619.75,-323.38 716,-323.38 716,-353.88"/>
<text text-anchor="start" x="627.75" y="-340.38" font-family="Helvetica,sans-Serif" font-size="10.00">std::vector&lt; Slic3r</text>
<text text-anchor="middle" x="667.88" y="-329.12" font-family="Helvetica,sans-Serif" font-size="10.00">::Intersection &gt;</text>
</a>
</g>
</g>
<!-- Node22&#45;&gt;Node27 -->
<g id="edge21_Node000027_Node000022" class="edge">
<title>Node22&#45;&gt;Node27</title>
<g id="a_edge21_Node000027_Node000022"><a xlink:title=" ">
<path fill="none" stroke="orange" stroke-dasharray="5,2" d="M426.09,-271.87C441.75,-283.34 464.25,-298.12 486.25,-306.62 529.62,-323.39 582.27,-331.44 619.51,-335.27"/>
<polygon fill="orange" stroke="orange" points="428.81,-268.79 418.71,-265.58 424.6,-274.38 428.81,-268.79"/>
</a>
</g>
<text text-anchor="middle" x="537.62" y="-332.38" font-family="Helvetica,sans-Serif" font-size="10.00" fill="grey"> &lt; Slic3r::Intersection &gt;</text>
</g>
<!-- Node12 -->
<g id="Node000012" class="node">
<title>Node12</title>
<g id="a_Node000012"><a xlink:title=" ">
<polygon fill="white" stroke="#666666" points="172.53,-265.25 143.72,-265.25 143.72,-246 172.53,-246 172.53,-265.25"/>
<text text-anchor="middle" x="158.12" y="-251.75" font-family="Helvetica,sans-Serif" font-size="10.00">T</text>
</a>
</g>
</g>
<!-- Node12&#45;&gt;Node22 -->
<g id="edge11_Node000022_Node000012" class="edge">
<title>Node12&#45;&gt;Node22</title>
<g id="a_edge11_Node000022_Node000012"><a xlink:title=" ">
<path fill="none" stroke="#9a32cd" stroke-dasharray="5,2" d="M183.95,-255.62C225.51,-255.62 309.66,-255.62 360.82,-255.62"/>
<polygon fill="#9a32cd" stroke="#9a32cd" points="183.96,-252.13 173.96,-255.62 183.96,-259.13 183.96,-252.13"/>
</a>
</g>
<text text-anchor="middle" x="283.88" y="-257.38" font-family="Helvetica,sans-Serif" font-size="10.00" fill="grey"> elements</text>
</g>
<!-- Node23&#45;&gt;Node2 -->
<g id="edge12_Node000002_Node000023" class="edge">
<title>Node23&#45;&gt;Node2</title>
<g id="a_edge12_Node000002_Node000023"><a xlink:title=" ">
<path fill="none" stroke="#9a32cd" stroke-dasharray="5,2" d="M732.12,-241.43C768.64,-234.9 815.44,-226.44 857,-218.62 865.27,-217.07 874.04,-215.39 882.58,-213.73"/>
<polygon fill="#9a32cd" stroke="#9a32cd" points="731.85,-238.1 722.62,-243.3 733.08,-244.99 731.85,-238.1"/>
</a>
</g>
<text text-anchor="middle" x="801.88" y="-239.38" font-family="Helvetica,sans-Serif" font-size="10.00" fill="grey"> m_cell_data</text>
</g>
<!-- Node24&#45;&gt;Node2 -->
<g id="edge14_Node000002_Node000024" class="edge">
<title>Node24&#45;&gt;Node2</title>
<g id="a_edge14_Node000002_Node000024"><a xlink:title=" ">
<path fill="none" stroke="#9a32cd" stroke-dasharray="5,2" d="M738.52,-203.62C782.33,-203.62 838.05,-203.62 878.75,-203.62"/>
<polygon fill="#9a32cd" stroke="#9a32cd" points="738.66,-200.13 728.66,-203.62 738.66,-207.13 738.66,-200.13"/>
</a>
</g>
<text text-anchor="middle" x="801.88" y="-205.38" font-family="Helvetica,sans-Serif" font-size="10.00" fill="grey"> m_cells</text>
</g>
<!-- Node25 -->
<g id="Node000025" class="node">
<title>Node25</title>
<g id="a_Node000025"><a xlink:href="../../d1/dc2/struct_slic3r_1_1_edge_grid_1_1_grid_1_1_cell.html" target="_top" xlink:title=" ">
<polygon fill="white" stroke="#666666" points="460,-153.88 348.75,-153.88 348.75,-123.38 460,-123.38 460,-153.88"/>
<text text-anchor="start" x="356.75" y="-140.38" font-family="Helvetica,sans-Serif" font-size="10.00">Slic3r::EdgeGrid::Grid</text>
<text text-anchor="middle" x="404.38" y="-129.12" font-family="Helvetica,sans-Serif" font-size="10.00">::Cell</text>
</a>
</g>
</g>
<!-- Node25&#45;&gt;Node24 -->
<g id="edge15_Node000024_Node000025" class="edge">
<title>Node25&#45;&gt;Node24</title>
<g id="a_edge15_Node000024_Node000025"><a xlink:title=" ">
<path fill="none" stroke="#9a32cd" stroke-dasharray="5,2" d="M458.92,-120.09C498.35,-110 551.42,-104.29 589,-130.38 607.8,-143.43 591.13,-162.13 607,-178.62 610.44,-182.2 614.46,-185.28 618.77,-187.93"/>
<polygon fill="#9a32cd" stroke="#9a32cd" points="458.16,-116.94 449.44,-122.95 460.01,-123.69 458.16,-116.94"/>
</a>
</g>
<text text-anchor="middle" x="537.62" y="-132.38" font-family="Helvetica,sans-Serif" font-size="10.00" fill="grey"> elements</text>
</g>
<!-- Node26&#45;&gt;Node2 -->
<g id="edge17_Node000002_Node000026" class="edge">
<title>Node26&#45;&gt;Node2</title>
<g id="a_edge17_Node000002_Node000026"><a xlink:title=" ">
<path fill="none" stroke="#9a32cd" stroke-dasharray="5,2" d="M728.68,-287.35C766.48,-280.82 815.79,-269.88 857,-252.62 881.35,-242.43 906.59,-224.68 921.2,-213.58"/>
<polygon fill="#9a32cd" stroke="#9a32cd" points="728.13,-284.06 718.84,-289.16 729.28,-290.96 728.13,-284.06"/>
</a>
</g>
<text text-anchor="middle" x="801.88" y="-285.38" font-family="Helvetica,sans-Serif" font-size="10.00" fill="grey"> m_signed_distance_field</text>
</g>
<!-- Node27&#45;&gt;Node1 -->
<g id="edge19_Node000001_Node000027" class="edge">
<title>Node27&#45;&gt;Node1</title>
<g id="a_edge19_Node000001_Node000027"><a xlink:title=" ">
<path fill="none" stroke="#9a32cd" stroke-dasharray="5,2" d="M726.87,-328.65C764.35,-321.63 813.99,-311.25 857,-298.62 955.03,-269.86 1066.58,-224.17 1122.55,-200.31"/>
<polygon fill="#9a32cd" stroke="#9a32cd" points="726.34,-325.38 717.14,-330.63 727.61,-332.26 726.34,-325.38"/>
</a>
</g>
<text text-anchor="middle" x="934.75" y="-294.38" font-family="Helvetica,sans-Serif" font-size="10.00" fill="grey"> intersections</text>
</g>
<!-- Node28 -->
<g id="Node000028" class="node">
<title>Node28</title>
<g id="a_Node000028"><a xlink:href="../../de/db8/namespace_slic3r.html#d8/d9c/struct_slic3r_1_1_intersection" target="_top" xlink:title=" ">
<polygon fill="white" stroke="#666666" points="453.25,-379.25 355.5,-379.25 355.5,-360 453.25,-360 453.25,-379.25"/>
<text text-anchor="middle" x="404.38" y="-365.75" font-family="Helvetica,sans-Serif" font-size="10.00">Slic3r::Intersection</text>
</a>
</g>
</g>
<!-- Node28&#45;&gt;Node27 -->
<g id="edge20_Node000027_Node000028" class="edge">
<title>Node28&#45;&gt;Node27</title>
<g id="a_edge20_Node000027_Node000028"><a xlink:title=" ">
<path fill="none" stroke="#9a32cd" stroke-dasharray="5,2" d="M464.54,-362.61C511.34,-357.06 575.84,-349.42 619.33,-344.26"/>
<polygon fill="#9a32cd" stroke="#9a32cd" points="464.16,-359.25 454.64,-363.9 464.99,-366.2 464.16,-359.25"/>
</a>
</g>
<text text-anchor="middle" x="537.62" y="-360.38" font-family="Helvetica,sans-Serif" font-size="10.00" fill="grey"> elements</text>
</g>
<!-- Node29 -->
<g id="Node000029" class="node">
<title>Node29</title>
<g id="a_Node000029"><a xlink:href="../../d6/d3b/class_slic3r_1_1_line.html" target="_top" xlink:title=" ">
<polygon fill="white" stroke="#666666" points="967.12,-176.25 902.38,-176.25 902.38,-157 967.12,-157 967.12,-176.25"/>
<text text-anchor="middle" x="934.75" y="-162.75" font-family="Helvetica,sans-Serif" font-size="10.00">Slic3r::Line</text>
</a>
</g>
</g>
<!-- Node29&#45;&gt;Node1 -->
<g id="edge22_Node000001_Node000029" class="edge">
<title>Node29&#45;&gt;Node1</title>
<g id="a_edge22_Node000001_Node000029"><a xlink:title=" ">
<path fill="none" stroke="#9a32cd" stroke-dasharray="5,2" d="M978.35,-165.34C1008.16,-164.94 1048.88,-165.42 1084.5,-169.38 1090.25,-170.01 1096.21,-170.88 1102.14,-171.89"/>
<polygon fill="#9a32cd" stroke="#9a32cd" points="978.43,-161.85 968.49,-165.52 978.55,-168.85 978.43,-161.85"/>
</a>
</g>
<text text-anchor="middle" x="1048.5" y="-170.38" font-family="Helvetica,sans-Serif" font-size="10.00" fill="grey"> travel_line</text>
</g>
<!-- Node30 -->
<g id="Node000030" class="node">
<title>Node30</title>
<g id="a_Node000030"><a xlink:title=" ">
<polygon fill="white" stroke="#666666" points="994.5,-119.75 875,-119.75 875,-55.5 994.5,-55.5 994.5,-119.75"/>
<text text-anchor="start" x="883" y="-106.25" font-family="Helvetica,sans-Serif" font-size="10.00">std::unordered_set</text>
<text text-anchor="start" x="883" y="-95" font-family="Helvetica,sans-Serif" font-size="10.00">&lt; std::pair&lt; size_t,</text>
<text text-anchor="start" x="883" y="-83.75" font-family="Helvetica,sans-Serif" font-size="10.00"> size_t &gt;, boost::hash</text>
<text text-anchor="start" x="883" y="-72.5" font-family="Helvetica,sans-Serif" font-size="10.00">&lt; std::pair&lt; size_t, size</text>
<text text-anchor="middle" x="934.75" y="-61.25" font-family="Helvetica,sans-Serif" font-size="10.00">_t &gt; &gt; &gt;</text>
</a>
</g>
</g>
<!-- Node30&#45;&gt;Node1 -->
<g id="edge23_Node000001_Node000030" class="edge">
<title>Node30&#45;&gt;Node1</title>
<g id="a_edge23_Node000001_Node000030"><a xlink:title=" ">
<path fill="none" stroke="#9a32cd" stroke-dasharray="5,2" d="M1004.54,-115.34C1029.81,-125.73 1058.56,-137.83 1084.5,-149.38 1098.43,-155.57 1113.67,-162.75 1126.68,-169"/>
<polygon fill="#9a32cd" stroke="#9a32cd" points="1006.26,-111.85 995.68,-111.29 1003.6,-118.32 1006.26,-111.85"/>
</a>
</g>
<text text-anchor="middle" x="1048.5" y="-150.38" font-family="Helvetica,sans-Serif" font-size="10.00" fill="grey"> intersection_set</text>
</g>
<!-- Node31 -->
<g id="Node000031" class="node">
<title>Node31</title>
<g id="a_Node000031"><a xlink:title=" ">
<polygon fill="white" stroke="#666666" points="728.75,-26.25 607,-26.25 607,-7 728.75,-7 728.75,-26.25"/>
<text text-anchor="middle" x="667.88" y="-12.75" font-family="Helvetica,sans-Serif" font-size="10.00">std::unordered_set&lt; K &gt;</text>
</a>
</g>
</g>
<!-- Node31&#45;&gt;Node30 -->
<g id="edge24_Node000030_Node000031" class="edge">
<title>Node31&#45;&gt;Node30</title>
<g id="a_edge24_Node000030_Node000031"><a xlink:title=" ">
<path fill="none" stroke="orange" stroke-dasharray="5,2" d="M734.23,-28.85C770.69,-36.25 816.73,-46.59 857,-58.62 862.73,-60.34 868.65,-62.27 874.54,-64.3"/>
<polygon fill="orange" stroke="orange" points="735.23,-25.27 724.73,-26.74 733.85,-32.14 735.23,-25.27"/>
</a>
</g>
<text text-anchor="start" x="750.12" y="-94.12" font-family="Helvetica,sans-Serif" font-size="10.00" fill="grey"> &lt; std::pair&lt; size_t,</text>
<text text-anchor="start" x="750.12" y="-82.88" font-family="Helvetica,sans-Serif" font-size="10.00" fill="grey"> size_t &gt;, boost::hash</text>
<text text-anchor="start" x="750.12" y="-71.62" font-family="Helvetica,sans-Serif" font-size="10.00" fill="grey">&lt; std::pair&lt; size_t, size</text>
<text text-anchor="middle" x="801.88" y="-60.38" font-family="Helvetica,sans-Serif" font-size="10.00" fill="grey">_t &gt; &gt; &gt;</text>
</g>
<!-- Node32 -->
<g id="Node000032" class="node">
<title>Node32</title>
<g id="a_Node000032"><a xlink:title=" ">
<polygon fill="white" stroke="#666666" points="418.77,-19.25 389.98,-19.25 389.98,0 418.77,0 418.77,-19.25"/>
<text text-anchor="middle" x="404.38" y="-5.75" font-family="Helvetica,sans-Serif" font-size="10.00">K</text>
</a>
</g>
</g>
<!-- Node32&#45;&gt;Node31 -->
<g id="edge25_Node000031_Node000032" class="edge">
<title>Node32&#45;&gt;Node31</title>
<g id="a_edge25_Node000031_Node000032"><a xlink:title=" ">
<path fill="none" stroke="#9a32cd" stroke-dasharray="5,2" d="M429.91,-10.28C469.99,-11.35 550.64,-13.51 606.65,-15.01"/>
<polygon fill="#9a32cd" stroke="#9a32cd" points="430.16,-6.76 420.07,-9.99 429.97,-13.76 430.16,-6.76"/>
</a>
</g>
<text text-anchor="middle" x="537.62" y="-16.38" font-family="Helvetica,sans-Serif" font-size="10.00" fill="grey"> keys</text>
</g>
</g>
</svg>
