<?xml version="1.0" encoding="UTF-8" standalone="no"?>
<!DOCTYPE svg PUBLIC "-//W3C//DTD SVG 1.1//EN"
 "http://www.w3.org/Graphics/SVG/1.1/DTD/svg11.dtd">
<!-- Generated by graphviz version 8.0.5 (20230430.1635)
 -->
<!-- Title: Slic3r::SlicingProcessCompletedEvent::rethrow_exception Pages: 1 -->
<svg width="738pt" height="125pt"
 viewBox="0.00 0.00 738.00 124.50" xmlns="http://www.w3.org/2000/svg" xmlns:xlink="http://www.w3.org/1999/xlink">
<g id="graph0" class="graph" transform="scale(1 1) rotate(0) translate(4 120.5)">
<title>Slic3r::SlicingProcessCompletedEvent::rethrow_exception</title>
<!-- Node1 -->
<g id="Node000001" class="node">
<title>Node1</title>
<g id="a_Node000001"><a xlink:title=" ">
<polygon fill="#999999" stroke="#666666" points="730,-73.5 570.75,-73.5 570.75,-43 730,-43 730,-73.5"/>
<text text-anchor="start" x="578.75" y="-60" font-family="Helvetica,sans-Serif" font-size="10.00">Slic3r::SlicingProcessCompleted</text>
<text text-anchor="middle" x="650.38" y="-48.75" font-family="Helvetica,sans-Serif" font-size="10.00">Event::rethrow_exception</text>
</a>
</g>
</g>
<!-- Node2 -->
<g id="Node000002" class="node">
<title>Node2</title>
<g id="a_Node000002"><a xlink:href="../../d6/d83/class_slic3r_1_1_slicing_process_completed_event.html#a1533c3e403f434f5b557560a62533051" target="_top" xlink:title=" ">
<polygon fill="white" stroke="#666666" points="534.75,-73.5 375.5,-73.5 375.5,-43 534.75,-43 534.75,-73.5"/>
<text text-anchor="start" x="383.5" y="-60" font-family="Helvetica,sans-Serif" font-size="10.00">Slic3r::SlicingProcessCompleted</text>
<text text-anchor="middle" x="455.12" y="-48.75" font-family="Helvetica,sans-Serif" font-size="10.00">Event::critical_error</text>
</a>
</g>
</g>
<!-- Node1&#45;&gt;Node2 -->
<g id="edge1_Node000001_Node000002" class="edge">
<title>Node1&#45;&gt;Node2</title>
<g id="a_edge1_Node000001_Node000002"><a xlink:title=" ">
<path fill="none" stroke="#63b8ff" d="M559.73,-58.25C551.5,-58.25 543.2,-58.25 535.07,-58.25"/>
<polygon fill="#63b8ff" stroke="#63b8ff" points="559.49,-61.75 569.49,-58.25 559.49,-54.75 559.49,-61.75"/>
</a>
</g>
</g>
<!-- Node3 -->
<g id="Node000003" class="node">
<title>Node3</title>
<g id="a_Node000003"><a xlink:href="../../d6/d83/class_slic3r_1_1_slicing_process_completed_event.html#a635566981ae0f0ee1fb5dc3c0f34357d" target="_top" xlink:title=" ">
<polygon fill="white" stroke="#666666" points="339.5,-116.5 180.25,-116.5 180.25,-86 339.5,-86 339.5,-116.5"/>
<text text-anchor="start" x="188.25" y="-103" font-family="Helvetica,sans-Serif" font-size="10.00">Slic3r::SlicingProcessCompleted</text>
<text text-anchor="middle" x="259.88" y="-91.75" font-family="Helvetica,sans-Serif" font-size="10.00">Event::invalidate_plater</text>
</a>
</g>
</g>
<!-- Node1&#45;&gt;Node3 -->
<g id="edge7_Node000001_Node000003" class="edge">
<title>Node1&#45;&gt;Node3</title>
<g id="a_edge7_Node000001_Node000003"><a xlink:title=" ">
<path fill="none" stroke="#63b8ff" d="M571.42,-76.07C559.2,-78.43 546.67,-80.6 534.75,-82.25 469.48,-91.3 394.84,-96.12 339.97,-98.63"/>
<polygon fill="#63b8ff" stroke="#63b8ff" points="571.94,-79.33 581.06,-73.95 570.57,-72.47 571.94,-79.33"/>
</a>
</g>
</g>
<!-- Node5 -->
<g id="Node000005" class="node">
<title>Node5</title>
<g id="a_Node000005"><a xlink:href="../../d6/d83/class_slic3r_1_1_slicing_process_completed_event.html#aadce0945974096d20425b14a117057cc" target="_top" xlink:title=" ">
<polygon fill="white" stroke="#666666" points="339.5,-30.5 180.25,-30.5 180.25,0 339.5,0 339.5,-30.5"/>
<text text-anchor="start" x="188.25" y="-17" font-family="Helvetica,sans-Serif" font-size="10.00">Slic3r::SlicingProcessCompleted</text>
<text text-anchor="middle" x="259.88" y="-5.75" font-family="Helvetica,sans-Serif" font-size="10.00">Event::format_error_message</text>
</a>
</g>
</g>
<!-- Node1&#45;&gt;Node5 -->
<g id="edge5_Node000001_Node000005" class="edge">
<title>Node1&#45;&gt;Node5</title>
<g id="a_edge5_Node000001_Node000005"><a xlink:title=" ">
<path fill="none" stroke="#63b8ff" d="M571.42,-40.43C559.2,-38.07 546.67,-35.9 534.75,-34.25 469.48,-25.2 394.84,-20.38 339.97,-17.87"/>
<polygon fill="#63b8ff" stroke="#63b8ff" points="570.57,-44.03 581.06,-42.55 571.94,-37.17 570.57,-44.03"/>
</a>
</g>
</g>
<!-- Node2&#45;&gt;Node3 -->
<g id="edge2_Node000002_Node000003" class="edge">
<title>Node2&#45;&gt;Node3</title>
<g id="a_edge2_Node000002_Node000003"><a xlink:title=" ">
<path fill="none" stroke="#63b8ff" d="M373.1,-76.28C359.31,-79.35 345.09,-82.51 331.6,-85.51"/>
<polygon fill="#63b8ff" stroke="#63b8ff" points="373.54,-79.55 382.54,-73.96 372.02,-72.71 373.54,-79.55"/>
</a>
</g>
</g>
<!-- Node4 -->
<g id="Node000004" class="node">
<title>Node4</title>
<g id="a_Node000004"><a xlink:href="../../d4/d88/struct_slic3r_1_1_g_u_i_1_1_plater_1_1priv.html#a219c8844aa76e9059a053400009c4f1b" target="_top" xlink:title=" ">
<polygon fill="white" stroke="#666666" points="144.25,-73.5 0,-73.5 0,-43 144.25,-43 144.25,-73.5"/>
<text text-anchor="start" x="8" y="-60" font-family="Helvetica,sans-Serif" font-size="10.00">Slic3r::GUI::Plater</text>
<text text-anchor="middle" x="72.12" y="-48.75" font-family="Helvetica,sans-Serif" font-size="10.00">::priv::on_process_completed</text>
</a>
</g>
</g>
<!-- Node2&#45;&gt;Node4 -->
<g id="edge4_Node000002_Node000004" class="edge">
<title>Node2&#45;&gt;Node4</title>
<g id="a_edge4_Node000002_Node000004"><a xlink:title=" ">
<path fill="none" stroke="#63b8ff" d="M364.21,-58.25C297.13,-58.25 206.74,-58.25 144.57,-58.25"/>
<polygon fill="#63b8ff" stroke="#63b8ff" points="364.18,-61.75 374.18,-58.25 364.18,-54.75 364.18,-61.75"/>
</a>
</g>
</g>
<!-- Node3&#45;&gt;Node4 -->
<g id="edge3_Node000003_Node000004" class="edge">
<title>Node3&#45;&gt;Node4</title>
<g id="a_edge3_Node000003_Node000004"><a xlink:title=" ">
<path fill="none" stroke="#63b8ff" d="M180.6,-83.13C167.47,-80.09 153.94,-76.96 141.1,-73.99"/>
<polygon fill="#63b8ff" stroke="#63b8ff" points="179.49,-86.7 190.03,-85.54 181.07,-79.88 179.49,-86.7"/>
</a>
</g>
</g>
<!-- Node5&#45;&gt;Node4 -->
<g id="edge6_Node000005_Node000004" class="edge">
<title>Node5&#45;&gt;Node4</title>
<g id="a_edge6_Node000005_Node000004"><a xlink:title=" ">
<path fill="none" stroke="#63b8ff" d="M180.6,-33.37C167.47,-36.41 153.94,-39.54 141.1,-42.51"/>
<polygon fill="#63b8ff" stroke="#63b8ff" points="181.07,-36.62 190.03,-30.96 179.49,-29.8 181.07,-36.62"/>
</a>
</g>
</g>
</g>
</svg>
