<?xml version="1.0" encoding="UTF-8" standalone="no"?>
<!DOCTYPE svg PUBLIC "-//W3C//DTD SVG 1.1//EN"
 "http://www.w3.org/Graphics/SVG/1.1/DTD/svg11.dtd">
<!-- Generated by graphviz version 8.0.5 (20230430.1635)
 -->
<!-- Title: Slic3r::sla::find_best_misalignment_rotation Pages: 1 -->
<svg width="404pt" height="278pt"
 viewBox="0.00 0.00 404.00 277.88" xmlns="http://www.w3.org/2000/svg" xmlns:xlink="http://www.w3.org/1999/xlink">
<g id="graph0" class="graph" transform="scale(1 1) rotate(0) translate(4 273.88)">
<title>Slic3r::sla::find_best_misalignment_rotation</title>
<!-- Node1 -->
<g id="Node000001" class="node">
<title>Node1</title>
<g id="a_Node000001"><a xlink:title=" ">
<polygon fill="#999999" stroke="#666666" points="116.5,-152.5 0,-152.5 0,-122 116.5,-122 116.5,-152.5"/>
<text text-anchor="start" x="8" y="-139" font-family="Helvetica,sans-Serif" font-size="10.00">Slic3r::sla::find_best</text>
<text text-anchor="middle" x="58.25" y="-127.75" font-family="Helvetica,sans-Serif" font-size="10.00">_misalignment_rotation</text>
</a>
</g>
</g>
<!-- Node2 -->
<g id="Node000002" class="node">
<title>Node2</title>
<g id="a_Node000002"><a xlink:href="../../d8/d86/namespace_slic3r_1_1opt.html#ad9b818b6999367924c5dcf86a940c2f4" target="_top" xlink:title=" ">
<polygon fill="white" stroke="#666666" points="260.38,-251.88 162.62,-251.88 162.62,-232.62 260.38,-232.62 260.38,-251.88"/>
<text text-anchor="middle" x="211.5" y="-238.38" font-family="Helvetica,sans-Serif" font-size="10.00">Slic3r::opt::bounds</text>
</a>
</g>
</g>
<!-- Node1&#45;&gt;Node2 -->
<g id="edge1_Node000001_Node000002" class="edge">
<title>Node1&#45;&gt;Node2</title>
<g id="a_edge1_Node000001_Node000002"><a xlink:title=" ">
<path fill="none" stroke="#63b8ff" d="M71.85,-152.69C88.43,-172.05 119.37,-205.02 152.5,-224.25 154.85,-225.62 157.32,-226.89 159.86,-228.08"/>
<polygon fill="#63b8ff" stroke="#63b8ff" points="158.3,-231.63 168.88,-232.22 160.98,-225.17 158.3,-231.63"/>
</a>
</g>
</g>
<!-- Node4 -->
<g id="Node000004" class="node">
<title>Node4</title>
<g id="a_Node000004"><a xlink:href="../../d8/d86/namespace_slic3r_1_1opt.html#af705a7bc0784b209636586eeee2a53d3" target="_top" xlink:title=" ">
<polygon fill="white" stroke="#666666" points="260,-214.88 163,-214.88 163,-195.62 260,-195.62 260,-214.88"/>
<text text-anchor="middle" x="211.5" y="-201.38" font-family="Helvetica,sans-Serif" font-size="10.00">Slic3r::opt::initvals</text>
</a>
</g>
</g>
<!-- Node1&#45;&gt;Node4 -->
<g id="edge4_Node000001_Node000004" class="edge">
<title>Node1&#45;&gt;Node4</title>
<g id="a_edge4_Node000001_Node000004"><a xlink:title=" ">
<path fill="none" stroke="#63b8ff" d="M86.01,-152.84C104.34,-163.14 129.42,-176.49 152.5,-186.25 156.9,-188.11 161.55,-189.91 166.23,-191.6"/>
<polygon fill="#63b8ff" stroke="#63b8ff" points="164.82,-195.16 175.41,-195.14 167.11,-188.55 164.82,-195.16"/>
</a>
</g>
</g>
<!-- Node5 -->
<g id="Node000005" class="node">
<title>Node5</title>
<g id="a_Node000005"><a xlink:href="../../dd/d8d/class_slic3r_1_1opt_1_1_stop_criteria.html#a936668044f177fa2a7724d2f0b0ee33d" target="_top" xlink:title=" ">
<polygon fill="white" stroke="#666666" points="270.5,-177.5 152.5,-177.5 152.5,-147 270.5,-147 270.5,-177.5"/>
<text text-anchor="start" x="160.5" y="-164" font-family="Helvetica,sans-Serif" font-size="10.00">Slic3r::opt::StopCriteria</text>
<text text-anchor="middle" x="211.5" y="-152.75" font-family="Helvetica,sans-Serif" font-size="10.00">::max_iterations</text>
</a>
</g>
</g>
<!-- Node1&#45;&gt;Node5 -->
<g id="edge6_Node000001_Node000005" class="edge">
<title>Node1&#45;&gt;Node5</title>
<g id="a_edge6_Node000001_Node000005"><a xlink:title=" ">
<path fill="none" stroke="#63b8ff" d="M116.86,-146.77C124.87,-148.1 133.17,-149.47 141.36,-150.82"/>
<polygon fill="#63b8ff" stroke="#63b8ff" points="140.61,-154.41 151.04,-152.59 141.75,-147.5 140.61,-154.41"/>
</a>
</g>
</g>
<!-- Node6 -->
<g id="Node000006" class="node">
<title>Node6</title>
<g id="a_Node000006"><a xlink:href="../../d6/daf/class_slic3r_1_1opt_1_1_optimizer.html#ada8931ab7db58d68bf772c44d87e8406" target="_top" xlink:title=" ">
<polygon fill="white" stroke="#666666" points="265.62,-128.5 157.38,-128.5 157.38,-98 265.62,-98 265.62,-128.5"/>
<text text-anchor="start" x="165.38" y="-115" font-family="Helvetica,sans-Serif" font-size="10.00">Slic3r::opt::Optimizer</text>
<text text-anchor="middle" x="211.5" y="-103.75" font-family="Helvetica,sans-Serif" font-size="10.00">::optimize</text>
</a>
</g>
</g>
<!-- Node1&#45;&gt;Node6 -->
<g id="edge7_Node000001_Node000006" class="edge">
<title>Node1&#45;&gt;Node6</title>
<g id="a_edge7_Node000001_Node000006"><a xlink:title=" ">
<path fill="none" stroke="#63b8ff" d="M116.86,-128.11C126.45,-126.59 136.44,-125 146.18,-123.46"/>
<polygon fill="#63b8ff" stroke="#63b8ff" points="146.7,-126.76 156.03,-121.73 145.6,-119.85 146.7,-126.76"/>
</a>
</g>
</g>
<!-- Node7 -->
<g id="Node000007" class="node">
<title>Node7</title>
<g id="a_Node000007"><a xlink:href="../../dd/d8d/class_slic3r_1_1opt_1_1_stop_criteria.html#a34b1411bda712f5e5d19acdb73adaee2" target="_top" xlink:title=" ">
<polygon fill="white" stroke="#666666" points="270.5,-79.5 152.5,-79.5 152.5,-49 270.5,-49 270.5,-79.5"/>
<text text-anchor="start" x="160.5" y="-66" font-family="Helvetica,sans-Serif" font-size="10.00">Slic3r::opt::StopCriteria</text>
<text text-anchor="middle" x="211.5" y="-54.75" font-family="Helvetica,sans-Serif" font-size="10.00">::stop_condition</text>
</a>
</g>
</g>
<!-- Node1&#45;&gt;Node7 -->
<g id="edge8_Node000001_Node000007" class="edge">
<title>Node1&#45;&gt;Node7</title>
<g id="a_edge8_Node000001_Node000007"><a xlink:title=" ">
<path fill="none" stroke="#63b8ff" d="M88.39,-121.6C106.65,-111.95 130.77,-99.51 152.5,-89.25 156.03,-87.58 159.7,-85.9 163.4,-84.23"/>
<polygon fill="#63b8ff" stroke="#63b8ff" points="164.48,-87.13 172.2,-79.88 161.64,-80.74 164.48,-87.13"/>
</a>
</g>
</g>
<!-- Node8 -->
<g id="Node000008" class="node">
<title>Node8</title>
<g id="a_Node000008"><a xlink:href="../../d6/daf/class_slic3r_1_1opt_1_1_optimizer.html#a7264acbacdeb9a427b742d80e8be4745" target="_top" xlink:title=" ">
<polygon fill="white" stroke="#666666" points="265.62,-30.5 157.38,-30.5 157.38,0 265.62,0 265.62,-30.5"/>
<text text-anchor="start" x="165.38" y="-17" font-family="Helvetica,sans-Serif" font-size="10.00">Slic3r::opt::Optimizer</text>
<text text-anchor="middle" x="211.5" y="-5.75" font-family="Helvetica,sans-Serif" font-size="10.00">::to_max</text>
</a>
</g>
</g>
<!-- Node1&#45;&gt;Node8 -->
<g id="edge9_Node000001_Node000008" class="edge">
<title>Node1&#45;&gt;Node8</title>
<g id="a_edge9_Node000001_Node000008"><a xlink:title=" ">
<path fill="none" stroke="#63b8ff" d="M70.98,-121.61C87.31,-100.73 118.71,-63.67 152.5,-40.25 154.59,-38.8 156.78,-37.41 159.03,-36.08"/>
<polygon fill="#63b8ff" stroke="#63b8ff" points="160.42,-38.77 167.55,-30.93 157.09,-32.61 160.42,-38.77"/>
</a>
</g>
</g>
<!-- Node2&#45;&gt;Node2 -->
<g id="edge2_Node000002_Node000002" class="edge">
<title>Node2&#45;&gt;Node2</title>
<g id="a_edge2_Node000002_Node000002"><a xlink:title=" ">
<path fill="none" stroke="#63b8ff" d="M189.62,-252.16C179.64,-260.77 186.93,-269.88 211.5,-269.88 225.7,-269.88 234.13,-266.83 236.79,-262.6"/>
<polygon fill="#63b8ff" stroke="#63b8ff" points="239.81,-261.58 233.38,-253.16 233.16,-263.76 239.81,-261.58"/>
</a>
</g>
</g>
<!-- Node3 -->
<g id="Node000003" class="node">
<title>Node3</title>
<g id="a_Node000003"><a xlink:href="../../da/d20/namespace_slic3r_1_1opt_1_1detail.html#a06dec17b56165d0864c6cbffc106390d" target="_top" xlink:title=" ">
<polygon fill="white" stroke="#666666" points="396,-238.5 306.5,-238.5 306.5,-208 396,-208 396,-238.5"/>
<text text-anchor="start" x="314.5" y="-225" font-family="Helvetica,sans-Serif" font-size="10.00">Slic3r::opt::detail</text>
<text text-anchor="middle" x="351.25" y="-213.75" font-family="Helvetica,sans-Serif" font-size="10.00">::to_arr</text>
</a>
</g>
</g>
<!-- Node2&#45;&gt;Node3 -->
<g id="edge3_Node000002_Node000003" class="edge">
<title>Node2&#45;&gt;Node3</title>
<g id="a_edge3_Node000002_Node000003"><a xlink:title=" ">
<path fill="none" stroke="#63b8ff" d="M260.68,-235.6C271.85,-234.06 283.82,-232.41 295.26,-230.83"/>
<polygon fill="#63b8ff" stroke="#63b8ff" points="295.59,-234.18 305.02,-229.35 294.64,-227.25 295.59,-234.18"/>
</a>
</g>
</g>
<!-- Node4&#45;&gt;Node3 -->
<g id="edge5_Node000004_Node000003" class="edge">
<title>Node4&#45;&gt;Node3</title>
<g id="a_edge5_Node000004_Node000003"><a xlink:title=" ">
<path fill="none" stroke="#63b8ff" d="M260.29,-211.5C271.6,-212.97 283.74,-214.56 295.34,-216.07"/>
<polygon fill="#63b8ff" stroke="#63b8ff" points="294.87,-219.67 305.24,-217.5 295.78,-212.73 294.87,-219.67"/>
</a>
</g>
</g>
</g>
</svg>
