<?xml version="1.0" encoding="UTF-8" standalone="no"?>
<!DOCTYPE svg PUBLIC "-//W3C//DTD SVG 1.1//EN"
 "http://www.w3.org/Graphics/SVG/1.1/DTD/svg11.dtd">
<!-- Generated by graphviz version 8.0.5 (20230430.1635)
 -->
<!-- Title: Slic3r::client::MyContext::scalar_variable_new_from_scalar_expression Pages: 1 -->
<svg width="652pt" height="757pt"
 viewBox="0.00 0.00 651.75 756.50" xmlns="http://www.w3.org/2000/svg" xmlns:xlink="http://www.w3.org/1999/xlink">
<g id="graph0" class="graph" transform="scale(1 1) rotate(0) translate(4 752.5)">
<title>Slic3r::client::MyContext::scalar_variable_new_from_scalar_expression</title>
<!-- Node1 -->
<g id="Node000001" class="node">
<title>Node1</title>
<g id="a_Node000001"><a xlink:title=" ">
<polygon fill="#999999" stroke="#666666" points="135.25,-450.12 0,-450.12 0,-408.38 135.25,-408.38 135.25,-450.12"/>
<text text-anchor="start" x="8" y="-436.62" font-family="Helvetica,sans-Serif" font-size="10.00">Slic3r::client::MyContext</text>
<text text-anchor="start" x="8" y="-425.38" font-family="Helvetica,sans-Serif" font-size="10.00">::scalar_variable_new_from</text>
<text text-anchor="middle" x="67.62" y="-414.12" font-family="Helvetica,sans-Serif" font-size="10.00">_scalar_expression</text>
</a>
</g>
</g>
<!-- Node2 -->
<g id="Node000002" class="node">
<title>Node2</title>
<g id="a_Node000002"><a xlink:href="../../df/dd8/struct_slic3r_1_1client_1_1expr.html#a1d4ea12497c5ad413ecc69339ef1b4a5" target="_top" xlink:title=" ">
<polygon fill="white" stroke="#666666" points="634.75,-547.88 528.75,-547.88 528.75,-528.62 634.75,-528.62 634.75,-547.88"/>
<text text-anchor="middle" x="581.75" y="-534.38" font-family="Helvetica,sans-Serif" font-size="10.00">Slic3r::client::expr::b</text>
</a>
</g>
</g>
<!-- Node1&#45;&gt;Node2 -->
<g id="edge1_Node000001_Node000002" class="edge">
<title>Node1&#45;&gt;Node2</title>
<g id="a_edge1_Node000001_Node000002"><a xlink:title=" ">
<path fill="none" stroke="#63b8ff" d="M78.07,-450.43C92.94,-480.93 124.99,-536.19 171.25,-560.25 294.53,-624.37 346.55,-592.3 483.75,-570.25 505.41,-566.77 528.79,-559.18 547.17,-552.26"/>
<polygon fill="#63b8ff" stroke="#63b8ff" points="548.31,-555.19 556.36,-548.31 545.77,-548.66 548.31,-555.19"/>
</a>
</g>
</g>
<!-- Node3 -->
<g id="Node000003" class="node">
<title>Node3</title>
<g id="a_Node000003"><a xlink:href="../../df/dd8/struct_slic3r_1_1client_1_1expr.html#a6eda5f8a5cbc26828a16dd76fa10ba9b" target="_top" xlink:title=" ">
<polygon fill="white" stroke="#666666" points="634.75,-464.88 528.75,-464.88 528.75,-445.62 634.75,-445.62 634.75,-464.88"/>
<text text-anchor="middle" x="581.75" y="-451.38" font-family="Helvetica,sans-Serif" font-size="10.00">Slic3r::client::expr::d</text>
</a>
</g>
</g>
<!-- Node1&#45;&gt;Node3 -->
<g id="edge2_Node000001_Node000003" class="edge">
<title>Node1&#45;&gt;Node3</title>
<g id="a_edge2_Node000001_Node000003"><a xlink:title=" ">
<path fill="none" stroke="#63b8ff" d="M102.91,-450.48C175.87,-492.76 350.7,-578.5 483.75,-519.25 505.6,-509.52 500.1,-492.88 519.75,-479.25 525.02,-475.59 530.93,-472.38 536.94,-469.6"/>
<polygon fill="#63b8ff" stroke="#63b8ff" points="538.21,-472.44 546.05,-465.32 535.48,-466 538.21,-472.44"/>
</a>
</g>
</g>
<!-- Node4 -->
<g id="Node000004" class="node">
<title>Node4</title>
<g id="a_Node000004"><a xlink:href="../../df/dd8/struct_slic3r_1_1client_1_1expr.html#a8c7473811e1b48a5edf324ece0fc6972" target="_top" xlink:title=" ">
<polygon fill="white" stroke="#666666" points="633.25,-421.88 530.25,-421.88 530.25,-402.62 633.25,-402.62 633.25,-421.88"/>
<text text-anchor="middle" x="581.75" y="-408.38" font-family="Helvetica,sans-Serif" font-size="10.00">Slic3r::client::expr::i</text>
</a>
</g>
</g>
<!-- Node1&#45;&gt;Node4 -->
<g id="edge3_Node000001_Node000004" class="edge">
<title>Node1&#45;&gt;Node4</title>
<g id="a_edge3_Node000001_Node000004"><a xlink:title=" ">
<path fill="none" stroke="#63b8ff" d="M135.72,-434.67C217.99,-440.21 361.56,-446.33 483.75,-433.25 499.9,-431.52 517.3,-428.22 532.85,-424.74"/>
<polygon fill="#63b8ff" stroke="#63b8ff" points="533.33,-427.99 542.28,-422.31 531.75,-421.17 533.33,-427.99"/>
</a>
</g>
</g>
<!-- Node5 -->
<g id="Node000005" class="node">
<title>Node5</title>
<g id="a_Node000005"><a xlink:href="../../de/d87/class_slic3r_1_1_config_option.html#a68d41864a0ba6f646990717bdb5c8c10" target="_top" xlink:title=" ">
<polygon fill="white" stroke="#666666" points="299.38,-748.5 195.62,-748.5 195.62,-718 299.38,-718 299.38,-748.5"/>
<text text-anchor="start" x="203.62" y="-735" font-family="Helvetica,sans-Serif" font-size="10.00">Slic3r::ConfigOption</text>
<text text-anchor="middle" x="247.5" y="-723.75" font-family="Helvetica,sans-Serif" font-size="10.00">::is_vector</text>
</a>
</g>
</g>
<!-- Node1&#45;&gt;Node5 -->
<g id="edge4_Node000001_Node000005" class="edge">
<title>Node1&#45;&gt;Node5</title>
<g id="a_edge4_Node000001_Node000005"><a xlink:title=" ">
<path fill="none" stroke="#63b8ff" d="M70.64,-450.27C76.59,-500.88 98.49,-630.71 171.25,-704.25 175.44,-708.48 180.3,-712.1 185.52,-715.21"/>
<polygon fill="#63b8ff" stroke="#63b8ff" points="183.71,-718.73 194.19,-720.25 186.94,-712.53 183.71,-718.73"/>
</a>
</g>
</g>
<!-- Node8 -->
<g id="Node000008" class="node">
<title>Node8</title>
<g id="a_Node000008"><a xlink:href="../../df/dd8/struct_slic3r_1_1client_1_1expr.html#a1567eff6962414c09a8e63cc0bf3937d" target="_top" xlink:title=" ">
<polygon fill="white" stroke="#666666" points="634.75,-507.88 528.75,-507.88 528.75,-488.62 634.75,-488.62 634.75,-507.88"/>
<text text-anchor="middle" x="581.75" y="-494.38" font-family="Helvetica,sans-Serif" font-size="10.00">Slic3r::client::expr::s</text>
</a>
</g>
</g>
<!-- Node1&#45;&gt;Node8 -->
<g id="edge7_Node000001_Node000008" class="edge">
<title>Node1&#45;&gt;Node8</title>
<g id="a_edge7_Node000001_Node000008"><a xlink:title=" ">
<path fill="none" stroke="#63b8ff" d="M84.53,-450.23C102.78,-472.55 134.91,-506.86 171.25,-523.25 298.12,-580.46 350.55,-583.58 483.75,-543.25 502.15,-537.68 502.52,-527.78 519.75,-519.25 525.02,-516.64 530.69,-514.22 536.38,-512.02"/>
<polygon fill="#63b8ff" stroke="#63b8ff" points="537.37,-515.02 545.56,-508.3 534.97,-508.44 537.37,-515.02"/>
</a>
</g>
</g>
<!-- Node9 -->
<g id="Node000009" class="node">
<title>Node9</title>
<g id="a_Node000009"><a xlink:href="../../dd/dc0/struct_slic3r_1_1client_1_1_my_context.html#a0bd31b19a979b7d45ea8edd7815a8b36" target="_top" xlink:title=" ">
<polygon fill="white" stroke="#666666" points="323.75,-398.5 171.25,-398.5 171.25,-368 323.75,-368 323.75,-398.5"/>
<text text-anchor="start" x="179.25" y="-385" font-family="Helvetica,sans-Serif" font-size="10.00">Slic3r::client::MyContext</text>
<text text-anchor="middle" x="247.5" y="-373.75" font-family="Helvetica,sans-Serif" font-size="10.00">::scalar_variable_assign_scalar</text>
</a>
</g>
</g>
<!-- Node1&#45;&gt;Node9 -->
<g id="edge8_Node000001_Node000009" class="edge">
<title>Node1&#45;&gt;Node9</title>
<g id="a_edge8_Node000001_Node000009"><a xlink:title=" ">
<path fill="none" stroke="#63b8ff" d="M135.62,-411.92C148.6,-408.57 162.24,-405.04 175.34,-401.65"/>
<polygon fill="#63b8ff" stroke="#63b8ff" points="175.91,-404.86 184.71,-398.97 174.16,-398.08 175.91,-404.86"/>
</a>
</g>
</g>
<!-- Node11 -->
<g id="Node000011" class="node">
<title>Node11</title>
<g id="a_Node000011"><a xlink:href="../../df/dd8/struct_slic3r_1_1client_1_1expr.html#a886eb890f5b7562f738e44dc26dcbad9" target="_top" xlink:title=" ">
<polygon fill="white" stroke="#666666" points="629.12,-375.5 534.38,-375.5 534.38,-345 629.12,-345 629.12,-375.5"/>
<text text-anchor="start" x="542.38" y="-362" font-family="Helvetica,sans-Serif" font-size="10.00">Slic3r::client::expr</text>
<text text-anchor="middle" x="581.75" y="-350.75" font-family="Helvetica,sans-Serif" font-size="10.00">::type</text>
</a>
</g>
</g>
<!-- Node1&#45;&gt;Node11 -->
<g id="edge38_Node000001_Node000011" class="edge">
<title>Node1&#45;&gt;Node11</title>
<g id="a_edge38_Node000001_Node000011"><a xlink:title=" ">
<path fill="none" stroke="#63b8ff" d="M92.02,-408.09C138.71,-367.49 248.58,-280.08 359.75,-250.25 412.98,-235.97 433.52,-227.57 483.75,-250.25 503.83,-259.32 541.1,-306.41 563.14,-335.96"/>
<polygon fill="#63b8ff" stroke="#63b8ff" points="560.69,-337.55 569.45,-343.51 566.33,-333.39 560.69,-337.55"/>
</a>
</g>
</g>
<!-- Node15 -->
<g id="Node000015" class="node">
<title>Node15</title>
<g id="a_Node000015"><a xlink:href="../../df/dd8/struct_slic3r_1_1client_1_1expr.html#a78b6754fd215153d0618dbc9ab64fd1d" target="_top" xlink:title=" ">
<polygon fill="white" stroke="#666666" points="629.12,-95.5 534.38,-95.5 534.38,-65 629.12,-65 629.12,-95.5"/>
<text text-anchor="start" x="542.38" y="-82" font-family="Helvetica,sans-Serif" font-size="10.00">Slic3r::client::expr</text>
<text text-anchor="middle" x="581.75" y="-70.75" font-family="Helvetica,sans-Serif" font-size="10.00">::throw_exception</text>
</a>
</g>
</g>
<!-- Node1&#45;&gt;Node15 -->
<g id="edge37_Node000001_Node000015" class="edge">
<title>Node1&#45;&gt;Node15</title>
<g id="a_edge37_Node000001_Node000015"><a xlink:title=" ">
<path fill="none" stroke="#63b8ff" d="M68.33,-407.92C68.8,-349.65 78.7,-186.8 171.25,-107.25 269.93,-22.43 436.23,-44.89 523.44,-64.73"/>
<polygon fill="#63b8ff" stroke="#63b8ff" points="522.39,-68.32 532.93,-67.19 523.99,-61.5 522.39,-68.32"/>
</a>
</g>
</g>
<!-- Node18 -->
<g id="Node000018" class="node">
<title>Node18</title>
<g id="a_Node000018"><a xlink:href="../../dd/dc0/struct_slic3r_1_1client_1_1_my_context.html#af0941fcc022f651d4d5e73b17a014f6e" target="_top" xlink:title=" ">
<polygon fill="white" stroke="#666666" points="483.75,-116.5 359.75,-116.5 359.75,-86 483.75,-86 483.75,-116.5"/>
<text text-anchor="start" x="367.75" y="-103" font-family="Helvetica,sans-Serif" font-size="10.00">Slic3r::client::MyContext</text>
<text text-anchor="middle" x="421.75" y="-91.75" font-family="Helvetica,sans-Serif" font-size="10.00">::skipping</text>
</a>
</g>
</g>
<!-- Node1&#45;&gt;Node18 -->
<g id="edge34_Node000001_Node000018" class="edge">
<title>Node1&#45;&gt;Node18</title>
<g id="a_edge34_Node000001_Node000018"><a xlink:title=" ">
<path fill="none" stroke="#63b8ff" d="M71.23,-408.06C78.24,-360.17 101.92,-242.83 171.25,-179.25 219.93,-134.61 293.91,-115.51 348.68,-107.35"/>
<polygon fill="#63b8ff" stroke="#63b8ff" points="348.94,-110.71 358.36,-105.86 347.98,-103.77 348.94,-110.71"/>
</a>
</g>
</g>
<!-- Node20 -->
<g id="Node000020" class="node">
<title>Node20</title>
<g id="a_Node000020"><a xlink:href="../../dd/dc0/struct_slic3r_1_1client_1_1_my_context.html#a16e15d318ccfa577cd7512edf23949ad" target="_top" xlink:title=" ">
<polygon fill="white" stroke="#666666" points="309.5,-30.5 185.5,-30.5 185.5,0 309.5,0 309.5,-30.5"/>
<text text-anchor="start" x="193.5" y="-17" font-family="Helvetica,sans-Serif" font-size="10.00">Slic3r::client::MyContext</text>
<text text-anchor="middle" x="247.5" y="-5.75" font-family="Helvetica,sans-Serif" font-size="10.00">::store_new_variable</text>
</a>
</g>
</g>
<!-- Node1&#45;&gt;Node20 -->
<g id="edge35_Node000001_Node000020" class="edge">
<title>Node1&#45;&gt;Node20</title>
<g id="a_edge35_Node000001_Node000020"><a xlink:title=" ">
<path fill="none" stroke="#63b8ff" d="M67.99,-408.26C67.22,-344.88 73.5,-153.1 171.25,-44.25 173.76,-41.46 176.57,-38.93 179.58,-36.65"/>
<polygon fill="#63b8ff" stroke="#63b8ff" points="181.08,-39.2 187.57,-30.83 177.27,-33.33 181.08,-39.2"/>
</a>
</g>
</g>
<!-- Node6 -->
<g id="Node000006" class="node">
<title>Node6</title>
<g id="a_Node000006"><a xlink:href="../../de/d87/class_slic3r_1_1_config_option.html#aafb20088eba960fbd75676980078b4ad" target="_top" xlink:title=" ">
<polygon fill="white" stroke="#666666" points="473.62,-748.5 369.88,-748.5 369.88,-718 473.62,-718 473.62,-748.5"/>
<text text-anchor="start" x="377.88" y="-735" font-family="Helvetica,sans-Serif" font-size="10.00">Slic3r::ConfigOption</text>
<text text-anchor="middle" x="421.75" y="-723.75" font-family="Helvetica,sans-Serif" font-size="10.00">::is_scalar</text>
</a>
</g>
</g>
<!-- Node5&#45;&gt;Node6 -->
<g id="edge5_Node000005_Node000006" class="edge">
<title>Node5&#45;&gt;Node6</title>
<g id="a_edge5_Node000005_Node000006"><a xlink:title=" ">
<path fill="none" stroke="#63b8ff" d="M299.71,-733.25C318.2,-733.25 339.28,-733.25 358.6,-733.25"/>
<polygon fill="#63b8ff" stroke="#63b8ff" points="358.44,-736.75 368.44,-733.25 358.44,-729.75 358.44,-736.75"/>
</a>
</g>
</g>
<!-- Node7 -->
<g id="Node000007" class="node">
<title>Node7</title>
<g id="a_Node000007"><a xlink:href="../../de/d87/class_slic3r_1_1_config_option.html#a8a5965c6789289224db04d29868331e1" target="_top" xlink:title=" ">
<polygon fill="white" stroke="#666666" points="633.62,-688.5 529.88,-688.5 529.88,-658 633.62,-658 633.62,-688.5"/>
<text text-anchor="start" x="537.88" y="-675" font-family="Helvetica,sans-Serif" font-size="10.00">Slic3r::ConfigOption</text>
<text text-anchor="middle" x="581.75" y="-663.75" font-family="Helvetica,sans-Serif" font-size="10.00">::type</text>
</a>
</g>
</g>
<!-- Node6&#45;&gt;Node7 -->
<g id="edge6_Node000006_Node000007" class="edge">
<title>Node6&#45;&gt;Node7</title>
<g id="a_edge6_Node000006_Node000007"><a xlink:title=" ">
<path fill="none" stroke="#63b8ff" d="M463.85,-717.64C483.81,-710.06 508,-700.88 529.18,-692.83"/>
<polygon fill="#63b8ff" stroke="#63b8ff" points="530.2,-695.81 538.31,-688.99 527.72,-689.27 530.2,-695.81"/>
</a>
</g>
</g>
<!-- Node9&#45;&gt;Node2 -->
<g id="edge17_Node000009_Node000002" class="edge">
<title>Node9&#45;&gt;Node2</title>
<g id="a_edge17_Node000009_Node000002"><a xlink:title=" ">
<path fill="none" stroke="#63b8ff" d="M255.94,-398.91C270.89,-428.43 307.68,-491.78 359.75,-519.25 408.31,-544.87 471.33,-547.85 517.64,-545.45"/>
<polygon fill="#63b8ff" stroke="#63b8ff" points="517.67,-548.9 527.44,-544.78 517.24,-541.91 517.67,-548.9"/>
</a>
</g>
</g>
<!-- Node9&#45;&gt;Node6 -->
<g id="edge23_Node000009_Node000006" class="edge">
<title>Node9&#45;&gt;Node6</title>
<g id="a_edge23_Node000009_Node000006"><a xlink:title=" ">
<path fill="none" stroke="#63b8ff" d="M255,-398.99C271.36,-438.27 316.06,-543.56 359.75,-628.25 374.19,-656.23 392.54,-687.3 405.33,-708.33"/>
<polygon fill="#63b8ff" stroke="#63b8ff" points="402.74,-709.81 410.94,-716.52 408.71,-706.16 402.74,-709.81"/>
</a>
</g>
</g>
<!-- Node9&#45;&gt;Node7 -->
<g id="edge33_Node000009_Node000007" class="edge">
<title>Node9&#45;&gt;Node7</title>
<g id="a_edge33_Node000009_Node000007"><a xlink:title=" ">
<path fill="none" stroke="#63b8ff" d="M256.09,-398.87C271.83,-430.05 310.72,-500.87 359.75,-546.25 411.6,-594.24 484.72,-631.76 532.43,-653.21"/>
<polygon fill="#63b8ff" stroke="#63b8ff" points="530.64,-656.69 541.2,-657.54 533.48,-650.29 530.64,-656.69"/>
</a>
</g>
</g>
<!-- Node10 -->
<g id="Node000010" class="node">
<title>Node10</title>
<g id="a_Node000010"><a xlink:href="../../df/dd8/struct_slic3r_1_1client_1_1expr.html#ac3a61082a36490b302962f7a25b85417" target="_top" xlink:title=" ">
<polygon fill="white" stroke="#666666" points="469.12,-424.5 374.38,-424.5 374.38,-394 469.12,-394 469.12,-424.5"/>
<text text-anchor="start" x="382.38" y="-411" font-family="Helvetica,sans-Serif" font-size="10.00">Slic3r::client::expr</text>
<text text-anchor="middle" x="421.75" y="-399.75" font-family="Helvetica,sans-Serif" font-size="10.00">::as_d</text>
</a>
</g>
</g>
<!-- Node9&#45;&gt;Node10 -->
<g id="edge9_Node000009_Node000010" class="edge">
<title>Node9&#45;&gt;Node10</title>
<g id="a_edge9_Node000009_Node000010"><a xlink:title=" ">
<path fill="none" stroke="#63b8ff" d="M324.05,-394.65C337.2,-396.64 350.67,-398.67 363.23,-400.57"/>
<polygon fill="#63b8ff" stroke="#63b8ff" points="362.59,-404.16 373.01,-402.19 363.64,-397.24 362.59,-404.16"/>
</a>
</g>
</g>
<!-- Node9&#45;&gt;Node11 -->
<g id="edge32_Node000009_Node000011" class="edge">
<title>Node9&#45;&gt;Node11</title>
<g id="a_edge32_Node000009_Node000011"><a xlink:title=" ">
<path fill="none" stroke="#63b8ff" d="M276.76,-367.58C298.66,-356.37 330.16,-342.24 359.75,-336.25 413.76,-325.31 429.04,-329.58 483.75,-336.25 496.93,-337.86 510.9,-340.65 524.01,-343.77"/>
<polygon fill="#63b8ff" stroke="#63b8ff" points="522.76,-347.32 533.31,-346.33 524.45,-340.52 522.76,-347.32"/>
</a>
</g>
</g>
<!-- Node12 -->
<g id="Node000012" class="node">
<title>Node12</title>
<g id="a_Node000012"><a xlink:href="../../df/dd8/struct_slic3r_1_1client_1_1expr.html#a254166f37bc2d554d698e0be53e5c234" target="_top" xlink:title=" ">
<polygon fill="white" stroke="#666666" points="469.12,-375.5 374.38,-375.5 374.38,-345 469.12,-345 469.12,-375.5"/>
<text text-anchor="start" x="382.38" y="-362" font-family="Helvetica,sans-Serif" font-size="10.00">Slic3r::client::expr</text>
<text text-anchor="middle" x="421.75" y="-350.75" font-family="Helvetica,sans-Serif" font-size="10.00">::as_i</text>
</a>
</g>
</g>
<!-- Node9&#45;&gt;Node12 -->
<g id="edge13_Node000009_Node000012" class="edge">
<title>Node9&#45;&gt;Node12</title>
<g id="a_edge13_Node000009_Node000012"><a xlink:title=" ">
<path fill="none" stroke="#63b8ff" d="M324.05,-373.16C337.2,-371.41 350.67,-369.61 363.23,-367.93"/>
<polygon fill="#63b8ff" stroke="#63b8ff" points="363.56,-371.28 373.01,-366.49 362.63,-364.35 363.56,-371.28"/>
</a>
</g>
</g>
<!-- Node13 -->
<g id="Node000013" class="node">
<title>Node13</title>
<g id="a_Node000013"><a xlink:href="../../dd/dc0/struct_slic3r_1_1client_1_1_my_context.html#ab97d5df52aeecc4328af2bfd0fc9fbef" target="_top" xlink:title=" ">
<polygon fill="white" stroke="#666666" points="483.75,-165.5 359.75,-165.5 359.75,-135 483.75,-135 483.75,-165.5"/>
<text text-anchor="start" x="367.75" y="-152" font-family="Helvetica,sans-Serif" font-size="10.00">Slic3r::client::MyContext</text>
<text text-anchor="middle" x="421.75" y="-140.75" font-family="Helvetica,sans-Serif" font-size="10.00">::check_numeric</text>
</a>
</g>
</g>
<!-- Node9&#45;&gt;Node13 -->
<g id="edge18_Node000009_Node000013" class="edge">
<title>Node9&#45;&gt;Node13</title>
<g id="a_edge18_Node000009_Node000013"><a xlink:title=" ">
<path fill="none" stroke="#63b8ff" d="M257.89,-367.62C276.2,-337.54 318.46,-269.96 359.75,-217.25 371.61,-202.11 386.05,-186.16 397.9,-173.62"/>
<polygon fill="#63b8ff" stroke="#63b8ff" points="399.89,-176.56 404.26,-166.91 394.82,-171.72 399.89,-176.56"/>
</a>
</g>
</g>
<!-- Node16 -->
<g id="Node000016" class="node">
<title>Node16</title>
<g id="a_Node000016"><a xlink:href="../../dd/dc0/struct_slic3r_1_1client_1_1_my_context.html#ae1cff021fb92ab560bbd063a4598e11f" target="_top" xlink:title=" ">
<polygon fill="white" stroke="#666666" points="483.75,-289.5 359.75,-289.5 359.75,-259 483.75,-259 483.75,-289.5"/>
<text text-anchor="start" x="367.75" y="-276" font-family="Helvetica,sans-Serif" font-size="10.00">Slic3r::client::MyContext</text>
<text text-anchor="middle" x="421.75" y="-264.75" font-family="Helvetica,sans-Serif" font-size="10.00">::check_writable</text>
</a>
</g>
</g>
<!-- Node9&#45;&gt;Node16 -->
<g id="edge21_Node000009_Node000016" class="edge">
<title>Node9&#45;&gt;Node16</title>
<g id="a_edge21_Node000009_Node000016"><a xlink:title=" ">
<path fill="none" stroke="#63b8ff" d="M267.87,-367.68C289.51,-350.68 325.95,-323.22 359.75,-303.25 364.73,-300.31 370.07,-297.42 375.42,-294.67"/>
<polygon fill="#63b8ff" stroke="#63b8ff" points="376.63,-297.49 384.03,-289.91 373.52,-291.22 376.63,-297.49"/>
</a>
</g>
</g>
<!-- Node17 -->
<g id="Node000017" class="node">
<title>Node17</title>
<g id="a_Node000017"><a xlink:href="../../dd/dc0/struct_slic3r_1_1client_1_1_my_context.html#a0e3d2585b601661042113dafdc349cd7" target="_top" xlink:title=" ">
<polygon fill="white" stroke="#666666" points="643.75,-267.5 519.75,-267.5 519.75,-237 643.75,-237 643.75,-267.5"/>
<text text-anchor="start" x="527.75" y="-254" font-family="Helvetica,sans-Serif" font-size="10.00">Slic3r::client::MyContext</text>
<text text-anchor="middle" x="581.75" y="-242.75" font-family="Helvetica,sans-Serif" font-size="10.00">::throw_exception</text>
</a>
</g>
</g>
<!-- Node9&#45;&gt;Node17 -->
<g id="edge25_Node000009_Node000017" class="edge">
<title>Node9&#45;&gt;Node17</title>
<g id="a_edge25_Node000009_Node000017"><a xlink:title=" ">
<path fill="none" stroke="#63b8ff" d="M255.83,-367.52C270.61,-337.95 307.11,-274.84 359.75,-250.25 405.99,-228.64 463.86,-230.03 508.77,-236.35"/>
<polygon fill="#63b8ff" stroke="#63b8ff" points="508.19,-239.96 518.6,-238.01 509.25,-233.04 508.19,-239.96"/>
</a>
</g>
</g>
<!-- Node9&#45;&gt;Node18 -->
<g id="edge24_Node000009_Node000018" class="edge">
<title>Node9&#45;&gt;Node18</title>
<g id="a_edge24_Node000009_Node000018"><a xlink:title=" ">
<path fill="none" stroke="#63b8ff" d="M251.04,-367.64C258.96,-323.67 287.2,-197.4 359.75,-126.25 360.9,-125.12 362.11,-124.04 363.36,-123.01"/>
<polygon fill="#63b8ff" stroke="#63b8ff" points="365.02,-125.43 371.24,-116.86 361.02,-119.68 365.02,-125.43"/>
</a>
</g>
</g>
<!-- Node19 -->
<g id="Node000019" class="node">
<title>Node19</title>
<g id="a_Node000019"><a xlink:href="../../df/dd8/struct_slic3r_1_1client_1_1expr.html#ac27cfd8555ccfba5b259c5a70f84dd83" target="_top" xlink:title=" ">
<polygon fill="white" stroke="#666666" points="469.12,-510.5 374.38,-510.5 374.38,-480 469.12,-480 469.12,-510.5"/>
<text text-anchor="start" x="382.38" y="-497" font-family="Helvetica,sans-Serif" font-size="10.00">Slic3r::client::expr</text>
<text text-anchor="middle" x="421.75" y="-485.75" font-family="Helvetica,sans-Serif" font-size="10.00">::to_string</text>
</a>
</g>
</g>
<!-- Node9&#45;&gt;Node19 -->
<g id="edge26_Node000009_Node000019" class="edge">
<title>Node9&#45;&gt;Node19</title>
<g id="a_edge26_Node000009_Node000019"><a xlink:title=" ">
<path fill="none" stroke="#63b8ff" d="M272.45,-398.82C302.45,-418.33 353.99,-451.84 387.72,-473.77"/>
<polygon fill="#63b8ff" stroke="#63b8ff" points="385.43,-477.11 395.73,-479.63 389.25,-471.24 385.43,-477.11"/>
</a>
</g>
</g>
<!-- Node10&#45;&gt;Node3 -->
<g id="edge10_Node000010_Node000003" class="edge">
<title>Node10&#45;&gt;Node3</title>
<g id="a_edge10_Node000010_Node000003"><a xlink:title=" ">
<path fill="none" stroke="#63b8ff" d="M469.3,-422.8C490.23,-428.9 514.84,-436.06 535.6,-442.1"/>
<polygon fill="#63b8ff" stroke="#63b8ff" points="534.48,-445.72 545.06,-445.15 536.44,-439 534.48,-445.72"/>
</a>
</g>
</g>
<!-- Node10&#45;&gt;Node4 -->
<g id="edge11_Node000010_Node000004" class="edge">
<title>Node10&#45;&gt;Node4</title>
<g id="a_edge11_Node000010_Node000004"><a xlink:title=" ">
<path fill="none" stroke="#63b8ff" d="M469.3,-410.13C484.91,-410.43 502.56,-410.77 519.13,-411.08"/>
<polygon fill="#63b8ff" stroke="#63b8ff" points="518.78,-414.59 528.84,-411.28 518.91,-407.59 518.78,-414.59"/>
</a>
</g>
</g>
<!-- Node10&#45;&gt;Node11 -->
<g id="edge12_Node000010_Node000011" class="edge">
<title>Node10&#45;&gt;Node11</title>
<g id="a_edge12_Node000010_Node000011"><a xlink:title=" ">
<path fill="none" stroke="#63b8ff" d="M469.3,-394.81C486.35,-389.53 505.83,-383.48 523.69,-377.95"/>
<polygon fill="#63b8ff" stroke="#63b8ff" points="524.47,-381.06 532.99,-374.75 522.4,-374.37 524.47,-381.06"/>
</a>
</g>
</g>
<!-- Node12&#45;&gt;Node3 -->
<g id="edge14_Node000012_Node000003" class="edge">
<title>Node12&#45;&gt;Node3</title>
<g id="a_edge14_Node000012_Node000003"><a xlink:title=" ">
<path fill="none" stroke="#63b8ff" d="M468.5,-375.89C473.87,-378.62 479.1,-381.73 483.75,-385.25 504.45,-400.92 498.94,-415.73 519.75,-431.25 524.72,-434.95 530.33,-438.17 536.09,-440.93"/>
<polygon fill="#63b8ff" stroke="#63b8ff" points="534.27,-444.39 544.84,-445.17 537.06,-437.97 534.27,-444.39"/>
</a>
</g>
</g>
<!-- Node12&#45;&gt;Node4 -->
<g id="edge15_Node000012_Node000004" class="edge">
<title>Node12&#45;&gt;Node4</title>
<g id="a_edge15_Node000012_Node000004"><a xlink:title=" ">
<path fill="none" stroke="#63b8ff" d="M469.3,-375.57C491.67,-382.93 518.25,-391.68 539.84,-398.78"/>
<polygon fill="#63b8ff" stroke="#63b8ff" points="538.4,-402.33 548.99,-402.13 540.59,-395.68 538.4,-402.33"/>
</a>
</g>
</g>
<!-- Node12&#45;&gt;Node11 -->
<g id="edge16_Node000012_Node000011" class="edge">
<title>Node12&#45;&gt;Node11</title>
<g id="a_edge16_Node000012_Node000011"><a xlink:title=" ">
<path fill="none" stroke="#63b8ff" d="M469.3,-360.25C486.19,-360.25 505.47,-360.25 523.19,-360.25"/>
<polygon fill="#63b8ff" stroke="#63b8ff" points="522.99,-363.75 532.99,-360.25 522.99,-356.75 522.99,-363.75"/>
</a>
</g>
</g>
<!-- Node14 -->
<g id="Node000014" class="node">
<title>Node14</title>
<g id="a_Node000014"><a xlink:href="../../df/dd8/struct_slic3r_1_1client_1_1expr.html#a164c46b44c87841f36a058616dbb7cb6" target="_top" xlink:title=" ">
<polygon fill="white" stroke="#666666" points="629.12,-165.5 534.38,-165.5 534.38,-135 629.12,-135 629.12,-165.5"/>
<text text-anchor="start" x="542.38" y="-152" font-family="Helvetica,sans-Serif" font-size="10.00">Slic3r::client::expr</text>
<text text-anchor="middle" x="581.75" y="-140.75" font-family="Helvetica,sans-Serif" font-size="10.00">::numeric_type</text>
</a>
</g>
</g>
<!-- Node13&#45;&gt;Node14 -->
<g id="edge19_Node000013_Node000014" class="edge">
<title>Node13&#45;&gt;Node14</title>
<g id="a_edge19_Node000013_Node000014"><a xlink:title=" ">
<path fill="none" stroke="#63b8ff" d="M483.84,-150.25C496.73,-150.25 510.3,-150.25 523.07,-150.25"/>
<polygon fill="#63b8ff" stroke="#63b8ff" points="523.04,-153.75 533.04,-150.25 523.04,-146.75 523.04,-153.75"/>
</a>
</g>
</g>
<!-- Node13&#45;&gt;Node15 -->
<g id="edge20_Node000013_Node000015" class="edge">
<title>Node13&#45;&gt;Node15</title>
<g id="a_edge20_Node000013_Node000015"><a xlink:title=" ">
<path fill="none" stroke="#63b8ff" d="M461.91,-134.51C469.19,-131.49 476.72,-128.32 483.75,-125.25 501.81,-117.36 521.58,-108.28 538.52,-100.35"/>
<polygon fill="#63b8ff" stroke="#63b8ff" points="539.58,-103.25 547.14,-95.83 536.6,-96.91 539.58,-103.25"/>
</a>
</g>
</g>
<!-- Node16&#45;&gt;Node17 -->
<g id="edge22_Node000016_Node000017" class="edge">
<title>Node16&#45;&gt;Node17</title>
<g id="a_edge22_Node000016_Node000017"><a xlink:title=" ">
<path fill="none" stroke="#63b8ff" d="M483.84,-265.74C491.93,-264.62 500.28,-263.45 508.54,-262.3"/>
<polygon fill="#63b8ff" stroke="#63b8ff" points="508.88,-265.65 518.3,-260.81 507.92,-258.72 508.88,-265.65"/>
</a>
</g>
</g>
<!-- Node19&#45;&gt;Node2 -->
<g id="edge27_Node000019_Node000002" class="edge">
<title>Node19&#45;&gt;Node2</title>
<g id="a_edge27_Node000019_Node000002"><a xlink:title=" ">
<path fill="none" stroke="#63b8ff" d="M469.3,-507.92C489.44,-513.4 512.98,-519.81 533.23,-525.32"/>
<polygon fill="#63b8ff" stroke="#63b8ff" points="532.22,-528.94 542.79,-528.19 534.06,-522.19 532.22,-528.94"/>
</a>
</g>
</g>
<!-- Node19&#45;&gt;Node3 -->
<g id="edge28_Node000019_Node000003" class="edge">
<title>Node19&#45;&gt;Node3</title>
<g id="a_edge28_Node000019_Node000003"><a xlink:title=" ">
<path fill="none" stroke="#63b8ff" d="M469.3,-483.47C488.5,-478.6 510.8,-472.96 530.38,-468"/>
<polygon fill="#63b8ff" stroke="#63b8ff" points="531.11,-471.17 539.94,-465.33 529.39,-464.39 531.11,-471.17"/>
</a>
</g>
</g>
<!-- Node19&#45;&gt;Node4 -->
<g id="edge29_Node000019_Node000004" class="edge">
<title>Node19&#45;&gt;Node4</title>
<g id="a_edge29_Node000019_Node000004"><a xlink:title=" ">
<path fill="none" stroke="#63b8ff" d="M459.68,-479.52C467.82,-475.56 476.24,-471.05 483.75,-466.25 501.29,-455.02 501.83,-446.86 519.75,-436.25 525.93,-432.59 532.78,-429.27 539.58,-426.35"/>
<polygon fill="#63b8ff" stroke="#63b8ff" points="540.48,-429.36 548.44,-422.37 537.86,-422.87 540.48,-429.36"/>
</a>
</g>
</g>
<!-- Node19&#45;&gt;Node8 -->
<g id="edge30_Node000019_Node000008" class="edge">
<title>Node19&#45;&gt;Node8</title>
<g id="a_edge30_Node000019_Node000008"><a xlink:title=" ">
<path fill="none" stroke="#63b8ff" d="M469.3,-496.13C484.39,-496.42 501.39,-496.74 517.48,-497.05"/>
<polygon fill="#63b8ff" stroke="#63b8ff" points="517.38,-500.57 527.44,-497.26 517.51,-493.57 517.38,-500.57"/>
</a>
</g>
</g>
<!-- Node19&#45;&gt;Node11 -->
<g id="edge31_Node000019_Node000011" class="edge">
<title>Node19&#45;&gt;Node11</title>
<g id="a_edge31_Node000019_Node000011"><a xlink:title=" ">
<path fill="none" stroke="#63b8ff" d="M438.49,-479.64C450.93,-467.21 468.64,-449.31 483.75,-433.25 500.14,-415.83 500.96,-408.04 519.75,-393.25 525.28,-388.9 531.46,-384.81 537.72,-381.1"/>
<polygon fill="#63b8ff" stroke="#63b8ff" points="538.87,-383.9 545.86,-375.93 535.43,-377.8 538.87,-383.9"/>
</a>
</g>
</g>
<!-- Node21 -->
<g id="Node000021" class="node">
<title>Node21</title>
<g id="a_Node000021"><a xlink:href="../../d5/df0/class_slic3r_1_1_dynamic_config.html#a18d8e56606a5c0359c0084a7d1c77889" target="_top" xlink:title=" ">
<polygon fill="white" stroke="#666666" points="478.88,-30.5 364.62,-30.5 364.62,0 478.88,0 478.88,-30.5"/>
<text text-anchor="start" x="372.62" y="-17" font-family="Helvetica,sans-Serif" font-size="10.00">Slic3r::DynamicConfig</text>
<text text-anchor="middle" x="421.75" y="-5.75" font-family="Helvetica,sans-Serif" font-size="10.00">::set_key_value</text>
</a>
</g>
</g>
<!-- Node20&#45;&gt;Node21 -->
<g id="edge36_Node000020_Node000021" class="edge">
<title>Node20&#45;&gt;Node21</title>
<g id="a_edge36_Node000020_Node000021"><a xlink:title=" ">
<path fill="none" stroke="#63b8ff" d="M309.71,-15.25C323.89,-15.25 339.06,-15.25 353.48,-15.25"/>
<polygon fill="#63b8ff" stroke="#63b8ff" points="353.33,-18.75 363.33,-15.25 353.33,-11.75 353.33,-18.75"/>
</a>
</g>
</g>
</g>
</svg>
