<?xml version="1.0" encoding="UTF-8" standalone="no"?>
<!DOCTYPE svg PUBLIC "-//W3C//DTD SVG 1.1//EN"
 "http://www.w3.org/Graphics/SVG/1.1/DTD/svg11.dtd">
<!-- Generated by graphviz version 8.0.5 (20230430.1635)
 -->
<!-- Title: src/libigl/igl/copyleft/cgal/string_to_mesh_boolean_type.h Pages: 1 -->
<svg width="450pt" height="172pt"
 viewBox="0.00 0.00 450.38 171.50" xmlns="http://www.w3.org/2000/svg" xmlns:xlink="http://www.w3.org/1999/xlink">
<g id="graph0" class="graph" transform="scale(1 1) rotate(0) translate(4 167.5)">
<title>src/libigl/igl/copyleft/cgal/string_to_mesh_boolean_type.h</title>
<!-- Node1 -->
<g id="Node000001" class="node">
<title>Node1</title>
<g id="a_Node000001"><a xlink:title=" ">
<polygon fill="#999999" stroke="#666666" points="330.75,-163.5 185,-163.5 185,-121.75 330.75,-121.75 330.75,-163.5"/>
<text text-anchor="start" x="193" y="-150" font-family="Helvetica,sans-Serif" font-size="10.00">src/libigl/igl/copyleft</text>
<text text-anchor="start" x="193" y="-138.75" font-family="Helvetica,sans-Serif" font-size="10.00">/cgal/string_to_mesh_boolean</text>
<text text-anchor="middle" x="257.88" y="-127.5" font-family="Helvetica,sans-Serif" font-size="10.00">_type.h</text>
</a>
</g>
</g>
<!-- Node2 -->
<g id="Node000002" class="node">
<title>Node2</title>
<g id="a_Node000002"><a xlink:href="../../d6/d68/igl__inline_8h.html" target="_top" xlink:title=" ">
<polygon fill="white" stroke="#666666" points="79.75,-80.12 0,-80.12 0,-60.88 79.75,-60.88 79.75,-80.12"/>
<text text-anchor="middle" x="39.88" y="-66.62" font-family="Helvetica,sans-Serif" font-size="10.00">../../igl_inline.h</text>
</a>
</g>
</g>
<!-- Node1&#45;&gt;Node2 -->
<g id="edge1_Node000001_Node000002" class="edge">
<title>Node1&#45;&gt;Node2</title>
<g id="a_edge1_Node000001_Node000002"><a xlink:title=" ">
<path fill="none" stroke="#63b8ff" d="M194.82,-121.34C157.2,-109.24 110.64,-94.26 78.43,-83.9"/>
<polygon fill="#63b8ff" stroke="#63b8ff" points="79.69,-80.31 69.09,-80.58 77.54,-86.97 79.69,-80.31"/>
</a>
</g>
</g>
<!-- Node3 -->
<g id="Node000003" class="node">
<title>Node3</title>
<g id="a_Node000003"><a xlink:href="../../d1/d81/_mesh_boolean_type_8h.html" target="_top" xlink:title=" ">
<polygon fill="white" stroke="#666666" points="220.12,-80.12 97.62,-80.12 97.62,-60.88 220.12,-60.88 220.12,-80.12"/>
<text text-anchor="middle" x="158.88" y="-66.62" font-family="Helvetica,sans-Serif" font-size="10.00">../../MeshBooleanType.h</text>
</a>
</g>
</g>
<!-- Node1&#45;&gt;Node3 -->
<g id="edge2_Node000001_Node000003" class="edge">
<title>Node1&#45;&gt;Node3</title>
<g id="a_edge2_Node000001_Node000003"><a xlink:title=" ">
<path fill="none" stroke="#63b8ff" d="M229.24,-121.34C213.59,-110.26 194.54,-96.77 180.21,-86.61"/>
<polygon fill="#63b8ff" stroke="#63b8ff" points="182.74,-83.41 172.56,-80.48 178.7,-89.12 182.74,-83.41"/>
</a>
</g>
</g>
<!-- Node4 -->
<g id="Node000004" class="node">
<title>Node4</title>
<g id="a_Node000004"><a xlink:title=" ">
<polygon fill="#e0e0e0" stroke="#999999" points="277.88,-80.12 237.88,-80.12 237.88,-60.88 277.88,-60.88 277.88,-80.12"/>
<text text-anchor="middle" x="257.88" y="-66.62" font-family="Helvetica,sans-Serif" font-size="10.00">string</text>
</a>
</g>
</g>
<!-- Node1&#45;&gt;Node4 -->
<g id="edge3_Node000001_Node000004" class="edge">
<title>Node1&#45;&gt;Node4</title>
<g id="a_edge3_Node000001_Node000004"><a xlink:title=" ">
<path fill="none" stroke="#63b8ff" d="M257.88,-121.34C257.88,-111.89 257.88,-100.69 257.88,-91.3"/>
<polygon fill="#63b8ff" stroke="#63b8ff" points="261.38,-91.3 257.88,-81.3 254.38,-91.3 261.38,-91.3"/>
</a>
</g>
</g>
<!-- Node5 -->
<g id="Node000005" class="node">
<title>Node5</title>
<g id="a_Node000005"><a xlink:href="../../de/d75/string__to__mesh__boolean__type_8cpp.html" target="_top" xlink:title=" ">
<polygon fill="white" stroke="#666666" points="417.75,-85.75 296,-85.75 296,-55.25 417.75,-55.25 417.75,-85.75"/>
<text text-anchor="start" x="304" y="-72.25" font-family="Helvetica,sans-Serif" font-size="10.00">string_to_mesh_boolean</text>
<text text-anchor="middle" x="356.88" y="-61" font-family="Helvetica,sans-Serif" font-size="10.00">_type.cpp</text>
</a>
</g>
</g>
<!-- Node1&#45;&gt;Node5 -->
<g id="edge4_Node000001_Node000005" class="edge">
<title>Node1&#45;&gt;Node5</title>
<g id="a_edge4_Node000001_Node000005"><a xlink:title=" ">
<path fill="none" stroke="#63b8ff" d="M280.32,-121.34C292.6,-112.12 307.98,-101.22 321.77,-91.97"/>
<polygon fill="#63b8ff" stroke="#63b8ff" points="323.14,-94.6 329.55,-86.17 319.28,-88.76 323.14,-94.6"/>
</a>
</g>
</g>
<!-- Node5&#45;&gt;Node1 -->
<g id="edge5_Node000005_Node000001" class="edge">
<title>Node5&#45;&gt;Node1</title>
<g id="a_edge5_Node000005_Node000001"><a xlink:title=" ">
<path fill="none" stroke="#63b8ff" d="M341.78,-86.17C330.92,-94.62 315.9,-105.48 301.52,-115.35"/>
<polygon fill="#63b8ff" stroke="#63b8ff" points="300.01,-112.83 293.7,-121.34 303.94,-118.62 300.01,-112.83"/>
</a>
</g>
</g>
<!-- Node6 -->
<g id="Node000006" class="node">
<title>Node6</title>
<g id="a_Node000006"><a xlink:title=" ">
<polygon fill="#e0e0e0" stroke="#999999" points="314.75,-19.25 259,-19.25 259,0 314.75,0 314.75,-19.25"/>
<text text-anchor="middle" x="286.88" y="-5.75" font-family="Helvetica,sans-Serif" font-size="10.00">algorithm</text>
</a>
</g>
</g>
<!-- Node5&#45;&gt;Node6 -->
<g id="edge6_Node000005_Node000006" class="edge">
<title>Node5&#45;&gt;Node6</title>
<g id="a_edge6_Node000005_Node000006"><a xlink:title=" ">
<path fill="none" stroke="#63b8ff" d="M339.57,-54.95C329.32,-46.33 316.33,-35.4 305.81,-26.55"/>
<polygon fill="#63b8ff" stroke="#63b8ff" points="308.57,-23.46 298.67,-19.7 304.07,-28.82 308.57,-23.46"/>
</a>
</g>
</g>
<!-- Node7 -->
<g id="Node000007" class="node">
<title>Node7</title>
<g id="a_Node000007"><a xlink:title=" ">
<polygon fill="#e0e0e0" stroke="#999999" points="381,-19.25 332.75,-19.25 332.75,0 381,0 381,-19.25"/>
<text text-anchor="middle" x="356.88" y="-5.75" font-family="Helvetica,sans-Serif" font-size="10.00">cassert</text>
</a>
</g>
</g>
<!-- Node5&#45;&gt;Node7 -->
<g id="edge7_Node000005_Node000007" class="edge">
<title>Node5&#45;&gt;Node7</title>
<g id="a_edge7_Node000005_Node000007"><a xlink:title=" ">
<path fill="none" stroke="#63b8ff" d="M356.88,-54.95C356.88,-47.62 356.88,-38.62 356.88,-30.66"/>
<polygon fill="#63b8ff" stroke="#63b8ff" points="360.38,-30.7 356.88,-20.7 353.38,-30.7 360.38,-30.7"/>
</a>
</g>
</g>
<!-- Node8 -->
<g id="Node000008" class="node">
<title>Node8</title>
<g id="a_Node000008"><a xlink:title=" ">
<polygon fill="#e0e0e0" stroke="#999999" points="442.38,-19.25 399.38,-19.25 399.38,0 442.38,0 442.38,-19.25"/>
<text text-anchor="middle" x="420.88" y="-5.75" font-family="Helvetica,sans-Serif" font-size="10.00">vector</text>
</a>
</g>
</g>
<!-- Node5&#45;&gt;Node8 -->
<g id="edge8_Node000005_Node000008" class="edge">
<title>Node5&#45;&gt;Node8</title>
<g id="a_edge8_Node000005_Node000008"><a xlink:title=" ">
<path fill="none" stroke="#63b8ff" d="M372.7,-54.95C381.88,-46.5 393.47,-35.83 402.99,-27.08"/>
<polygon fill="#63b8ff" stroke="#63b8ff" points="405.02,-30.05 410.01,-20.7 400.28,-24.9 405.02,-30.05"/>
</a>
</g>
</g>
</g>
</svg>
