<?xml version="1.0" encoding="UTF-8" standalone="no"?>
<!DOCTYPE svg PUBLIC "-//W3C//DTD SVG 1.1//EN"
 "http://www.w3.org/Graphics/SVG/1.1/DTD/svg11.dtd">
<!-- Generated by graphviz version 8.0.5 (20230430.1635)
 -->
<!-- Title: Slic3r::Print::print_statistics Pages: 1 -->
<svg width="427pt" height="174pt"
 viewBox="0.00 0.00 427.25 173.88" xmlns="http://www.w3.org/2000/svg" xmlns:xlink="http://www.w3.org/1999/xlink">
<g id="graph0" class="graph" transform="scale(1 1) rotate(0) translate(4 169.88)">
<title>Slic3r::Print::print_statistics</title>
<!-- Node1 -->
<g id="Node000001" class="node">
<title>Node1</title>
<g id="a_Node000001"><a xlink:title=" ">
<polygon fill="#999999" stroke="#666666" points="419.25,-91.88 327.5,-91.88 327.5,-61.38 419.25,-61.38 419.25,-91.88"/>
<text text-anchor="start" x="335.5" y="-78.38" font-family="Helvetica,sans-Serif" font-size="10.00">Slic3r::Print::print</text>
<text text-anchor="middle" x="373.38" y="-67.12" font-family="Helvetica,sans-Serif" font-size="10.00">_statistics</text>
</a>
</g>
</g>
<!-- Node2 -->
<g id="Node000002" class="node">
<title>Node2</title>
<g id="a_Node000002"><a xlink:href="../../dc/d03/class_slic3r_1_1_background_slicing_process.html#a26c1ba0cfab6b6c7c9fa1e572c1b2643" target="_top" xlink:title=" ">
<polygon fill="white" stroke="#666666" points="291.5,-165.88 163.75,-165.88 163.75,-135.38 291.5,-135.38 291.5,-165.88"/>
<text text-anchor="start" x="171.75" y="-152.38" font-family="Helvetica,sans-Serif" font-size="10.00">Slic3r::BackgroundSlicing</text>
<text text-anchor="middle" x="227.62" y="-141.12" font-family="Helvetica,sans-Serif" font-size="10.00">Process::finalize_gcode</text>
</a>
</g>
</g>
<!-- Node1&#45;&gt;Node2 -->
<g id="edge1_Node000001_Node000002" class="edge">
<title>Node1&#45;&gt;Node2</title>
<g id="a_edge1_Node000001_Node000002"><a xlink:title=" ">
<path fill="none" stroke="#63b8ff" d="M339.85,-98.03C325.36,-107.11 307.9,-117.47 291.5,-125.62 284.98,-128.87 277.93,-132.01 270.99,-134.9"/>
<polygon fill="#63b8ff" stroke="#63b8ff" points="341.34,-100.59 347.9,-92.28 337.58,-94.69 341.34,-100.59"/>
</a>
</g>
</g>
<!-- Node4 -->
<g id="Node000004" class="node">
<title>Node4</title>
<g id="a_Node000004"><a xlink:href="../../d5/d8f/class_slic3r_1_1_print.html#ae1c0306bbd0e2bd91f206195970ebf96" target="_top" xlink:title=" ">
<polygon fill="white" stroke="#666666" points="277.62,-116.88 177.62,-116.88 177.62,-86.38 277.62,-86.38 277.62,-116.88"/>
<text text-anchor="start" x="185.62" y="-103.38" font-family="Helvetica,sans-Serif" font-size="10.00">Slic3r::Print::output</text>
<text text-anchor="middle" x="227.62" y="-92.12" font-family="Helvetica,sans-Serif" font-size="10.00">_filename</text>
</a>
</g>
</g>
<!-- Node1&#45;&gt;Node4 -->
<g id="edge3_Node000001_Node000004" class="edge">
<title>Node1&#45;&gt;Node4</title>
<g id="a_edge3_Node000001_Node000004"><a xlink:title=" ">
<path fill="none" stroke="#63b8ff" d="M316.77,-86.29C304.01,-88.51 290.53,-90.86 278.05,-93.03"/>
<polygon fill="#63b8ff" stroke="#63b8ff" points="317.03,-89.63 326.29,-84.47 315.83,-82.73 317.03,-89.63"/>
</a>
</g>
</g>
<!-- Node5 -->
<g id="Node000005" class="node">
<title>Node5</title>
<g id="a_Node000005"><a xlink:href="../../dc/d03/class_slic3r_1_1_background_slicing_process.html#a4b310b175d8743a8bf59802d780d46b4" target="_top" xlink:title=" ">
<polygon fill="white" stroke="#666666" points="291.5,-67.88 163.75,-67.88 163.75,-37.38 291.5,-37.38 291.5,-67.88"/>
<text text-anchor="start" x="171.75" y="-54.38" font-family="Helvetica,sans-Serif" font-size="10.00">Slic3r::BackgroundSlicing</text>
<text text-anchor="middle" x="227.62" y="-43.12" font-family="Helvetica,sans-Serif" font-size="10.00">Process::prepare_upload</text>
</a>
</g>
</g>
<!-- Node1&#45;&gt;Node5 -->
<g id="edge4_Node000001_Node000005" class="edge">
<title>Node1&#45;&gt;Node5</title>
<g id="a_edge4_Node000001_Node000005"><a xlink:title=" ">
<path fill="none" stroke="#63b8ff" d="M316.53,-67.3C308.49,-65.96 300.16,-64.57 291.98,-63.2"/>
<polygon fill="#63b8ff" stroke="#63b8ff" points="315.85,-70.9 326.29,-69.1 317,-64 315.85,-70.9"/>
</a>
</g>
</g>
<!-- Node7 -->
<g id="Node000007" class="node">
<title>Node7</title>
<g id="a_Node000007"><a xlink:href="../../de/d33/class_slic3r_1_1_c_l_i.html#a04fb4429030d98de51a297066a116dcb" target="_top" xlink:title=" ">
<polygon fill="white" stroke="#666666" points="268.62,-19.25 186.62,-19.25 186.62,0 268.62,0 268.62,-19.25"/>
<text text-anchor="middle" x="227.62" y="-5.75" font-family="Helvetica,sans-Serif" font-size="10.00">Slic3r::CLI::run</text>
</a>
</g>
</g>
<!-- Node1&#45;&gt;Node7 -->
<g id="edge7_Node000001_Node000007" class="edge">
<title>Node1&#45;&gt;Node7</title>
<g id="a_edge7_Node000001_Node000007"><a xlink:title=" ">
<path fill="none" stroke="#63b8ff" d="M340.43,-55.23C325.93,-46.17 308.3,-36.02 291.5,-28.62 283.88,-25.27 275.49,-22.29 267.4,-19.73"/>
<polygon fill="#63b8ff" stroke="#63b8ff" points="338.15,-58.57 348.47,-60.99 341.92,-52.67 338.15,-58.57"/>
</a>
</g>
</g>
<!-- Node3 -->
<g id="Node000003" class="node">
<title>Node3</title>
<g id="a_Node000003"><a xlink:href="../../dc/d03/class_slic3r_1_1_background_slicing_process.html#a13f6ff21948324c220bbf2094015a848" target="_top" xlink:title=" ">
<polygon fill="white" stroke="#666666" points="127.75,-140.88 0,-140.88 0,-110.38 127.75,-110.38 127.75,-140.88"/>
<text text-anchor="start" x="8" y="-127.38" font-family="Helvetica,sans-Serif" font-size="10.00">Slic3r::BackgroundSlicing</text>
<text text-anchor="middle" x="63.88" y="-116.12" font-family="Helvetica,sans-Serif" font-size="10.00">Process::process_fff</text>
</a>
</g>
</g>
<!-- Node2&#45;&gt;Node3 -->
<g id="edge2_Node000002_Node000003" class="edge">
<title>Node2&#45;&gt;Node3</title>
<g id="a_edge2_Node000002_Node000003"><a xlink:title=" ">
<path fill="none" stroke="#63b8ff" d="M152.89,-139.23C144.65,-137.96 136.32,-136.67 128.24,-135.42"/>
<polygon fill="#63b8ff" stroke="#63b8ff" points="152.21,-142.82 162.63,-140.89 153.28,-135.9 152.21,-142.82"/>
</a>
</g>
</g>
<!-- Node5&#45;&gt;Node3 -->
<g id="edge5_Node000005_Node000003" class="edge">
<title>Node5&#45;&gt;Node3</title>
<g id="a_edge5_Node000005_Node000003"><a xlink:title=" ">
<path fill="none" stroke="#63b8ff" d="M175.74,-72.49C171.67,-74.19 167.63,-75.91 163.75,-77.62 140.7,-87.79 115.13,-100.23 95.77,-109.9"/>
<polygon fill="#63b8ff" stroke="#63b8ff" points="176.94,-75.37 184.86,-68.33 174.28,-68.89 176.94,-75.37"/>
</a>
</g>
</g>
<!-- Node6 -->
<g id="Node000006" class="node">
<title>Node6</title>
<g id="a_Node000006"><a xlink:href="../../dc/d03/class_slic3r_1_1_background_slicing_process.html#ae8201688f03403c70292c2ebd665e720" target="_top" xlink:title=" ">
<polygon fill="white" stroke="#666666" points="127.75,-67.88 0,-67.88 0,-37.38 127.75,-37.38 127.75,-67.88"/>
<text text-anchor="start" x="8" y="-54.38" font-family="Helvetica,sans-Serif" font-size="10.00">Slic3r::BackgroundSlicing</text>
<text text-anchor="middle" x="63.88" y="-43.12" font-family="Helvetica,sans-Serif" font-size="10.00">Process::process_sla</text>
</a>
</g>
</g>
<!-- Node5&#45;&gt;Node6 -->
<g id="edge6_Node000005_Node000006" class="edge">
<title>Node5&#45;&gt;Node6</title>
<g id="a_edge6_Node000005_Node000006"><a xlink:title=" ">
<path fill="none" stroke="#63b8ff" d="M152.89,-52.62C144.65,-52.62 136.32,-52.62 128.24,-52.62"/>
<polygon fill="#63b8ff" stroke="#63b8ff" points="152.63,-56.13 162.63,-52.62 152.63,-49.13 152.63,-56.13"/>
</a>
</g>
</g>
<!-- Node8 -->
<g id="Node000008" class="node">
<title>Node8</title>
<g id="a_Node000008"><a xlink:href="../../dd/dd8/_prusa_slicer_8cpp.html#a3c04138a5bfe5d72780bb7e82a18e627" target="_top" xlink:title=" ">
<polygon fill="white" stroke="#666666" points="82.38,-19.25 45.38,-19.25 45.38,0 82.38,0 82.38,-19.25"/>
<text text-anchor="middle" x="63.88" y="-5.75" font-family="Helvetica,sans-Serif" font-size="10.00">main</text>
</a>
</g>
</g>
<!-- Node7&#45;&gt;Node8 -->
<g id="edge8_Node000007_Node000008" class="edge">
<title>Node7&#45;&gt;Node8</title>
<g id="a_edge8_Node000007_Node000008"><a xlink:title=" ">
<path fill="none" stroke="#63b8ff" d="M175.31,-9.62C143.52,-9.62 104.65,-9.62 82.53,-9.62"/>
<polygon fill="#63b8ff" stroke="#63b8ff" points="175.23,-13.13 185.23,-9.62 175.23,-6.13 175.23,-13.13"/>
</a>
</g>
</g>
</g>
</svg>
