<?xml version="1.0" encoding="UTF-8" standalone="no"?>
<!DOCTYPE svg PUBLIC "-//W3C//DTD SVG 1.1//EN"
 "http://www.w3.org/Graphics/SVG/1.1/DTD/svg11.dtd">
<!-- Generated by graphviz version 8.0.5 (20230430.1635)
 -->
<!-- Title: Slic3r::Print::max_allowed_layer_height Pages: 1 -->
<svg width="683pt" height="232pt"
 viewBox="0.00 0.00 682.75 231.72" xmlns="http://www.w3.org/2000/svg" xmlns:xlink="http://www.w3.org/1999/xlink">
<g id="graph0" class="graph" transform="scale(1 1) rotate(0) translate(4 227.72)">
<title>Slic3r::Print::max_allowed_layer_height</title>
<!-- Node1 -->
<g id="Node000001" class="node">
<title>Node1</title>
<g id="a_Node000001"><a xlink:title=" ">
<polygon fill="#999999" stroke="#666666" points="112,-98.5 0,-98.5 0,-68 112,-68 112,-98.5"/>
<text text-anchor="start" x="8" y="-85" font-family="Helvetica,sans-Serif" font-size="10.00">Slic3r::Print::max</text>
<text text-anchor="middle" x="56" y="-73.75" font-family="Helvetica,sans-Serif" font-size="10.00">_allowed_layer_height</text>
</a>
</g>
</g>
<!-- Node2 -->
<g id="Node000002" class="node">
<title>Node2</title>
<g id="a_Node000002"><a xlink:href="../../d5/d8f/class_slic3r_1_1_print.html#af5775742bba5a468c5393124410ccf65" target="_top" xlink:title=" ">
<polygon fill="white" stroke="#666666" points="261.5,-92.88 148,-92.88 148,-73.62 261.5,-73.62 261.5,-92.88"/>
<text text-anchor="middle" x="204.75" y="-79.38" font-family="Helvetica,sans-Serif" font-size="10.00">Slic3r::Print::extruders</text>
</a>
</g>
</g>
<!-- Node1&#45;&gt;Node2 -->
<g id="edge1_Node000001_Node000002" class="edge">
<title>Node1&#45;&gt;Node2</title>
<g id="a_edge1_Node000001_Node000002"><a xlink:title=" ">
<path fill="none" stroke="#63b8ff" d="M112.48,-83.25C120.4,-83.25 128.62,-83.25 136.74,-83.25"/>
<polygon fill="#63b8ff" stroke="#63b8ff" points="136.7,-86.75 146.7,-83.25 136.7,-79.75 136.7,-86.75"/>
</a>
</g>
</g>
<!-- Node2&#45;&gt;Node2 -->
<g id="edge4_Node000002_Node000002" class="edge">
<title>Node2&#45;&gt;Node2</title>
<g id="a_edge4_Node000002_Node000002"><a xlink:title=" ">
<path fill="none" stroke="#63b8ff" d="M181.99,-93.16C171.61,-101.77 179.2,-110.88 204.75,-110.88 219.92,-110.88 228.76,-107.67 231.27,-103.26"/>
<polygon fill="#63b8ff" stroke="#63b8ff" points="234.28,-102.31 227.51,-94.16 227.72,-104.76 234.28,-102.31"/>
</a>
</g>
</g>
<!-- Node3 -->
<g id="Node000003" class="node">
<title>Node3</title>
<g id="a_Node000003"><a xlink:href="../../de/db8/namespace_slic3r.html#ad61bb7f1e4b8aaa434964420b9bedf32" target="_top" xlink:title=" ">
<polygon fill="white" stroke="#666666" points="527.5,-112.88 449.25,-112.88 449.25,-93.62 527.5,-93.62 527.5,-112.88"/>
<text text-anchor="middle" x="488.38" y="-99.38" font-family="Helvetica,sans-Serif" font-size="10.00">Slic3r::append</text>
</a>
</g>
</g>
<!-- Node2&#45;&gt;Node3 -->
<g id="edge2_Node000002_Node000003" class="edge">
<title>Node2&#45;&gt;Node3</title>
<g id="a_edge2_Node000002_Node000003"><a xlink:title=" ">
<path fill="none" stroke="#63b8ff" d="M261.73,-87.23C313.33,-90.89 389.16,-96.27 438.4,-99.77"/>
<polygon fill="#63b8ff" stroke="#63b8ff" points="437.88,-103.31 448.1,-100.53 438.37,-96.33 437.88,-103.31"/>
</a>
</g>
</g>
<!-- Node4 -->
<g id="Node000004" class="node">
<title>Node4</title>
<g id="a_Node000004"><a xlink:href="../../d5/d8f/class_slic3r_1_1_print.html#af1937a680d19c7dd8d3c24e5ff7332b8" target="_top" xlink:title=" ">
<polygon fill="white" stroke="#666666" points="399.75,-200.88 300.5,-200.88 300.5,-181.62 399.75,-181.62 399.75,-200.88"/>
<text text-anchor="middle" x="350.12" y="-187.38" font-family="Helvetica,sans-Serif" font-size="10.00">Slic3r::Print::config</text>
</a>
</g>
</g>
<!-- Node2&#45;&gt;Node4 -->
<g id="edge3_Node000002_Node000004" class="edge">
<title>Node2&#45;&gt;Node4</title>
<g id="a_edge3_Node000002_Node000004"><a xlink:title=" ">
<path fill="none" stroke="#63b8ff" d="M213.55,-93.19C228.21,-111.25 261.62,-149.68 297.5,-172.25 300.08,-173.87 302.81,-175.38 305.63,-176.79"/>
<polygon fill="#63b8ff" stroke="#63b8ff" points="303.83,-180.26 314.39,-181.15 306.69,-173.87 303.83,-180.26"/>
</a>
</g>
</g>
<!-- Node5 -->
<g id="Node000005" class="node">
<title>Node5</title>
<g id="a_Node000005"><a xlink:href="../../d5/d8f/class_slic3r_1_1_print.html#aa9620b5d615e9622b6b9533652e947b1" target="_top" xlink:title=" ">
<polygon fill="white" stroke="#666666" points="394.5,-163.5 305.75,-163.5 305.75,-133 394.5,-133 394.5,-163.5"/>
<text text-anchor="start" x="313.75" y="-150" font-family="Helvetica,sans-Serif" font-size="10.00">Slic3r::Print::has</text>
<text text-anchor="middle" x="350.12" y="-138.75" font-family="Helvetica,sans-Serif" font-size="10.00">_wipe_tower</text>
</a>
</g>
</g>
<!-- Node2&#45;&gt;Node5 -->
<g id="edge5_Node000002_Node000005" class="edge">
<title>Node2&#45;&gt;Node5</title>
<g id="a_edge5_Node000002_Node000005"><a xlink:title=" ">
<path fill="none" stroke="#63b8ff" d="M227.84,-93.26C248.23,-102.51 279.11,-116.51 304.61,-128.07"/>
<polygon fill="#63b8ff" stroke="#63b8ff" points="302.89,-131.59 313.45,-132.53 305.78,-125.21 302.89,-131.59"/>
</a>
</g>
</g>
<!-- Node6 -->
<g id="Node000006" class="node">
<title>Node6</title>
<g id="a_Node000006"><a xlink:href="../../d5/d8f/class_slic3r_1_1_print.html#af3ae1239b266a4bc61364ea58e003de2" target="_top" xlink:title=" ">
<polygon fill="white" stroke="#666666" points="538,-30.5 438.75,-30.5 438.75,0 538,0 538,-30.5"/>
<text text-anchor="start" x="446.75" y="-17" font-family="Helvetica,sans-Serif" font-size="10.00">Slic3r::Print::object</text>
<text text-anchor="middle" x="488.38" y="-5.75" font-family="Helvetica,sans-Serif" font-size="10.00">_extruders</text>
</a>
</g>
</g>
<!-- Node2&#45;&gt;Node6 -->
<g id="edge6_Node000002_Node000006" class="edge">
<title>Node2&#45;&gt;Node6</title>
<g id="a_edge6_Node000002_Node000006"><a xlink:title=" ">
<path fill="none" stroke="#63b8ff" d="M213.48,-73.25C228.83,-59.83 264.5,-39.03 297.5,-29.25 339.95,-16.66 389.69,-10.95 427.61,-9.63"/>
<polygon fill="#63b8ff" stroke="#63b8ff" points="427.56,-13.11 437.47,-9.37 427.39,-6.11 427.56,-13.11"/>
</a>
</g>
</g>
<!-- Node7 -->
<g id="Node000007" class="node">
<title>Node7</title>
<g id="a_Node000007"><a xlink:href="../../de/db8/namespace_slic3r.html#aa3af3ee03fdd2fbda072bbea6de1f8fc" target="_top" xlink:title=" ">
<polygon fill="white" stroke="#666666" points="674.75,-77.5 574,-77.5 574,-47 674.75,-47 674.75,-77.5"/>
<text text-anchor="start" x="582" y="-64" font-family="Helvetica,sans-Serif" font-size="10.00">Slic3r::sort_remove</text>
<text text-anchor="middle" x="624.38" y="-52.75" font-family="Helvetica,sans-Serif" font-size="10.00">_duplicates</text>
</a>
</g>
</g>
<!-- Node2&#45;&gt;Node7 -->
<g id="edge9_Node000002_Node000007" class="edge">
<title>Node2&#45;&gt;Node7</title>
<g id="a_edge9_Node000002_Node000007"><a xlink:title=" ">
<path fill="none" stroke="#63b8ff" d="M209.31,-93.34C218.88,-118.7 247.85,-184.87 297.5,-210.25 339.15,-231.54 357.9,-223.56 402.75,-210.25 483.94,-186.16 562.16,-120.49 599.91,-85.28"/>
<polygon fill="#63b8ff" stroke="#63b8ff" points="601.9,-88.26 606.76,-78.84 597.09,-83.18 601.9,-88.26"/>
</a>
</g>
</g>
<!-- Node8 -->
<g id="Node000008" class="node">
<title>Node8</title>
<g id="a_Node000008"><a xlink:href="../../d5/d8f/class_slic3r_1_1_print.html#a72952aa09a29f1e82b6d0851a0c2894c" target="_top" xlink:title=" ">
<polygon fill="white" stroke="#666666" points="402.75,-77.5 297.5,-77.5 297.5,-47 402.75,-47 402.75,-77.5"/>
<text text-anchor="start" x="305.5" y="-64" font-family="Helvetica,sans-Serif" font-size="10.00">Slic3r::Print::support</text>
<text text-anchor="middle" x="350.12" y="-52.75" font-family="Helvetica,sans-Serif" font-size="10.00">_material_extruders</text>
</a>
</g>
</g>
<!-- Node2&#45;&gt;Node8 -->
<g id="edge10_Node000002_Node000008" class="edge">
<title>Node2&#45;&gt;Node8</title>
<g id="a_edge10_Node000002_Node000008"><a xlink:title=" ">
<path fill="none" stroke="#63b8ff" d="M236.16,-73.16C250.79,-70.12 268.91,-67.11 286.32,-64.75"/>
<polygon fill="#63b8ff" stroke="#63b8ff" points="286.56,-68.11 296.03,-63.36 285.66,-61.17 286.56,-68.11"/>
</a>
</g>
</g>
<!-- Node6&#45;&gt;Node2 -->
<g id="edge7_Node000006_Node000002" class="edge">
<title>Node6&#45;&gt;Node2</title>
<g id="a_edge7_Node000006_Node000002"><a xlink:title=" ">
<path fill="none" stroke="#63b8ff" d="M438.47,-24C399.58,-27.89 344.14,-33.42 297.5,-47.25 279.78,-52.5 261.29,-60.93 245.59,-68.48"/>
<polygon fill="#63b8ff" stroke="#63b8ff" points="244.18,-65.76 236.71,-73.27 247.23,-72.06 244.18,-65.76"/>
</a>
</g>
</g>
<!-- Node6&#45;&gt;Node7 -->
<g id="edge8_Node000006_Node000007" class="edge">
<title>Node6&#45;&gt;Node7</title>
<g id="a_edge8_Node000006_Node000007"><a xlink:title=" ">
<path fill="none" stroke="#63b8ff" d="M534,-30.9C544.95,-34.74 556.81,-38.9 568.2,-42.9"/>
<polygon fill="#63b8ff" stroke="#63b8ff" points="566.9,-46.5 577.49,-46.51 569.21,-39.9 566.9,-46.5"/>
</a>
</g>
</g>
<!-- Node8&#45;&gt;Node2 -->
<g id="edge12_Node000008_Node000002" class="edge">
<title>Node8&#45;&gt;Node2</title>
<g id="a_edge12_Node000008_Node000002"><a xlink:title=" ">
<path fill="none" stroke="#63b8ff" d="M297.42,-76.33C289.24,-77.73 280.68,-79.06 272.22,-80.25"/>
<polygon fill="#63b8ff" stroke="#63b8ff" points="272.04,-76.88 262.59,-81.67 272.97,-83.81 272.04,-76.88"/>
</a>
</g>
</g>
<!-- Node8&#45;&gt;Node3 -->
<g id="edge11_Node000008_Node000003" class="edge">
<title>Node8&#45;&gt;Node3</title>
<g id="a_edge11_Node000008_Node000003"><a xlink:title=" ">
<path fill="none" stroke="#63b8ff" d="M403.02,-77.87C416.3,-81.86 430.45,-86.12 443.3,-89.99"/>
<polygon fill="#63b8ff" stroke="#63b8ff" points="442.14,-93.6 452.73,-93.13 444.16,-86.89 442.14,-93.6"/>
</a>
</g>
</g>
<!-- Node8&#45;&gt;Node6 -->
<g id="edge13_Node000008_Node000006" class="edge">
<title>Node8&#45;&gt;Node6</title>
<g id="a_edge13_Node000008_Node000006"><a xlink:title=" ">
<path fill="none" stroke="#63b8ff" d="M396.49,-46.6C407.75,-42.72 419.94,-38.51 431.63,-34.48"/>
<polygon fill="#63b8ff" stroke="#63b8ff" points="432.43,-37.56 440.74,-30.99 430.14,-30.94 432.43,-37.56"/>
</a>
</g>
</g>
<!-- Node8&#45;&gt;Node7 -->
<g id="edge14_Node000008_Node000007" class="edge">
<title>Node8&#45;&gt;Node7</title>
<g id="a_edge14_Node000008_Node000007"><a xlink:title=" ">
<path fill="none" stroke="#63b8ff" d="M402.97,-62.25C448.49,-62.25 514.73,-62.25 562.7,-62.25"/>
<polygon fill="#63b8ff" stroke="#63b8ff" points="562.56,-65.75 572.56,-62.25 562.56,-58.75 562.56,-65.75"/>
</a>
</g>
</g>
</g>
</svg>
