<?xml version="1.0" encoding="UTF-8" standalone="no"?>
<!DOCTYPE svg PUBLIC "-//W3C//DTD SVG 1.1//EN"
 "http://www.w3.org/Graphics/SVG/1.1/DTD/svg11.dtd">
<!-- Generated by graphviz version 8.0.5 (20230430.1635)
 -->
<!-- Title: Slic3r::Polygon::first_intersection Pages: 1 -->
<svg width="824pt" height="121pt"
 viewBox="0.00 0.00 824.00 121.25" xmlns="http://www.w3.org/2000/svg" xmlns:xlink="http://www.w3.org/1999/xlink">
<g id="graph0" class="graph" transform="scale(1 1) rotate(0) translate(4 117.25)">
<title>Slic3r::Polygon::first_intersection</title>
<!-- Node1 -->
<g id="Node000001" class="node">
<title>Node1</title>
<g id="a_Node000001"><a xlink:title=" ">
<polygon fill="#999999" stroke="#666666" points="104.5,-80.88 0,-80.88 0,-50.38 104.5,-50.38 104.5,-80.88"/>
<text text-anchor="start" x="8" y="-67.38" font-family="Helvetica,sans-Serif" font-size="10.00">Slic3r::Polygon::first</text>
<text text-anchor="middle" x="52.25" y="-56.12" font-family="Helvetica,sans-Serif" font-size="10.00">_intersection</text>
</a>
</g>
</g>
<!-- Node2 -->
<g id="Node000002" class="node">
<title>Node2</title>
<g id="a_Node000002"><a xlink:href="../../d8/df1/blas_8h.html#a4f968f99f82958f1a5d9bfb0f2322752" target="_top" xlink:title=" ">
<polygon fill="white" stroke="#666666" points="228.12,-113.25 191.12,-113.25 191.12,-94 228.12,-94 228.12,-113.25"/>
<text text-anchor="middle" x="209.62" y="-99.75" font-family="Helvetica,sans-Serif" font-size="10.00">dmin</text>
</a>
</g>
</g>
<!-- Node1&#45;&gt;Node2 -->
<g id="edge1_Node000001_Node000002" class="edge">
<title>Node1&#45;&gt;Node2</title>
<g id="a_edge1_Node000001_Node000002"><a xlink:title=" ">
<path fill="none" stroke="#63b8ff" d="M104.99,-78.28C130.13,-84.43 159.37,-91.58 180.37,-96.71"/>
<polygon fill="#63b8ff" stroke="#63b8ff" points="179.28,-100.29 189.82,-99.27 180.94,-93.5 179.28,-100.29"/>
</a>
</g>
</g>
<!-- Node3 -->
<g id="Node000003" class="node">
<title>Node3</title>
<g id="a_Node000003"><a xlink:href="../../d6/d3b/class_slic3r_1_1_line.html#aeba37d96787d83fc0efd7e1eae91946a" target="_top" xlink:title=" ">
<polygon fill="white" stroke="#666666" points="435.75,-47.25 314.75,-47.25 314.75,-28 435.75,-28 435.75,-47.25"/>
<text text-anchor="middle" x="375.25" y="-33.75" font-family="Helvetica,sans-Serif" font-size="10.00">Slic3r::Line::intersection</text>
</a>
</g>
</g>
<!-- Node1&#45;&gt;Node3 -->
<g id="edge2_Node000001_Node000003" class="edge">
<title>Node1&#45;&gt;Node3</title>
<g id="a_edge2_Node000001_Node000003"><a xlink:title=" ">
<path fill="none" stroke="#63b8ff" d="M104.76,-61.43C150.47,-57.67 219.07,-51.95 278.75,-46.62 286.77,-45.91 295.16,-45.14 303.5,-44.37"/>
<polygon fill="#63b8ff" stroke="#63b8ff" points="303.77,-47.77 313.4,-43.36 303.12,-40.8 303.77,-47.77"/>
</a>
</g>
</g>
<!-- Node9 -->
<g id="Node000009" class="node">
<title>Node9</title>
<g id="a_Node000009"><a xlink:href="../../d8/d90/class_slic3r_1_1_polygon.html#a4237825841eb283ab23bd1f4f2ee1d4a" target="_top" xlink:title=" ">
<polygon fill="white" stroke="#666666" points="278.75,-19.25 140.5,-19.25 140.5,0 278.75,0 278.75,-19.25"/>
<text text-anchor="middle" x="209.62" y="-5.75" font-family="Helvetica,sans-Serif" font-size="10.00">Slic3r::Polygon::intersection</text>
</a>
</g>
</g>
<!-- Node1&#45;&gt;Node9 -->
<g id="edge10_Node000001_Node000009" class="edge">
<title>Node1&#45;&gt;Node9</title>
<g id="a_edge10_Node000001_Node000009"><a xlink:title=" ">
<path fill="none" stroke="#63b8ff" d="M96.94,-49.88C120.19,-41.5 148.49,-31.3 170.79,-23.26"/>
<polygon fill="#63b8ff" stroke="#63b8ff" points="171.67,-26.3 179.89,-19.62 169.29,-19.72 171.67,-26.3"/>
</a>
</g>
</g>
<!-- Node3&#45;&gt;Node3 -->
<g id="edge8_Node000003_Node000003" class="edge">
<title>Node3&#45;&gt;Node3</title>
<g id="a_edge8_Node000003_Node000003"><a xlink:title=" ">
<path fill="none" stroke="#63b8ff" d="M349.5,-47.54C337.75,-56.15 346.33,-65.25 375.25,-65.25 392.42,-65.25 402.42,-62.04 405.25,-57.63"/>
<polygon fill="#63b8ff" stroke="#63b8ff" points="408.11,-56.4 401,-48.54 401.66,-59.11 408.11,-56.4"/>
</a>
</g>
</g>
<!-- Node4 -->
<g id="Node000004" class="node">
<title>Node4</title>
<g id="a_Node000004"><a xlink:href="../../dd/dd0/namespace_slic3r_1_1line__alg.html#ac32da06ff2dda13f184beb701436e69f" target="_top" xlink:title=" ">
<polygon fill="white" stroke="#666666" points="607.75,-66.25 471.75,-66.25 471.75,-47 607.75,-47 607.75,-66.25"/>
<text text-anchor="middle" x="539.75" y="-52.75" font-family="Helvetica,sans-Serif" font-size="10.00">Slic3r::line_alg::intersection</text>
</a>
</g>
</g>
<!-- Node3&#45;&gt;Node4 -->
<g id="edge3_Node000003_Node000004" class="edge">
<title>Node3&#45;&gt;Node4</title>
<g id="a_edge3_Node000003_Node000004"><a xlink:title=" ">
<path fill="none" stroke="#63b8ff" d="M435.84,-44.59C443.9,-45.53 452.27,-46.51 460.59,-47.49"/>
<polygon fill="#63b8ff" stroke="#63b8ff" points="460.14,-51.07 470.48,-48.76 460.96,-44.12 460.14,-51.07"/>
</a>
</g>
</g>
<!-- Node7 -->
<g id="Node000007" class="node">
<title>Node7</title>
<g id="a_Node000007"><a xlink:href="../../de/db8/namespace_slic3r.html#a1e045f56a994b8cd4a5b203626cd8272" target="_top" xlink:title=" ">
<polygon fill="white" stroke="#666666" points="708.88,-28.25 654.62,-28.25 654.62,-9 708.88,-9 708.88,-28.25"/>
<text text-anchor="middle" x="681.75" y="-14.75" font-family="Helvetica,sans-Serif" font-size="10.00">Slic3r::l2</text>
</a>
</g>
</g>
<!-- Node3&#45;&gt;Node7 -->
<g id="edge9_Node000003_Node000007" class="edge">
<title>Node3&#45;&gt;Node7</title>
<g id="a_edge9_Node000003_Node000007"><a xlink:title=" ">
<path fill="none" stroke="#63b8ff" d="M436.05,-33.89C497.69,-30.05 591.86,-24.17 643.57,-20.95"/>
<polygon fill="#63b8ff" stroke="#63b8ff" points="643.47,-24.4 653.23,-20.28 643.03,-17.41 643.47,-24.4"/>
</a>
</g>
</g>
<!-- Node5 -->
<g id="Node000005" class="node">
<title>Node5</title>
<g id="a_Node000005"><a xlink:href="../../d5/df7/_common_cwise_unary_ops_8h.html#aa89d007196125d10fa7d6e19811aca05" target="_top" xlink:title=" ">
<polygon fill="white" stroke="#666666" points="699.12,-102.25 664.38,-102.25 664.38,-83 699.12,-83 699.12,-102.25"/>
<text text-anchor="middle" x="681.75" y="-88.75" font-family="Helvetica,sans-Serif" font-size="10.00">cast</text>
</a>
</g>
</g>
<!-- Node4&#45;&gt;Node5 -->
<g id="edge4_Node000004_Node000005" class="edge">
<title>Node4&#45;&gt;Node5</title>
<g id="a_edge4_Node000004_Node000005"><a xlink:title=" ">
<path fill="none" stroke="#63b8ff" d="M580.12,-66.75C603.57,-72.78 632.72,-80.28 653.61,-85.65"/>
<polygon fill="#63b8ff" stroke="#63b8ff" points="652.43,-89.21 662.98,-88.31 654.17,-82.43 652.43,-89.21"/>
</a>
</g>
</g>
<!-- Node6 -->
<g id="Node000006" class="node">
<title>Node6</title>
<g id="a_Node000006"><a xlink:href="../../de/db8/namespace_slic3r.html#a2cd973ab8e7af30bd57721dfc2859b8f" target="_top" xlink:title=" ">
<polygon fill="white" stroke="#666666" points="719.75,-65.25 643.75,-65.25 643.75,-46 719.75,-46 719.75,-65.25"/>
<text text-anchor="middle" x="681.75" y="-51.75" font-family="Helvetica,sans-Serif" font-size="10.00">Slic3r::cross2</text>
</a>
</g>
</g>
<!-- Node4&#45;&gt;Node6 -->
<g id="edge5_Node000004_Node000006" class="edge">
<title>Node4&#45;&gt;Node6</title>
<g id="a_edge5_Node000004_Node000006"><a xlink:title=" ">
<path fill="none" stroke="#63b8ff" d="M607.88,-56.15C616.18,-56.09 624.53,-56.03 632.47,-55.97"/>
<polygon fill="#63b8ff" stroke="#63b8ff" points="632.4,-59.46 642.37,-55.89 632.35,-52.46 632.4,-59.46"/>
</a>
</g>
</g>
<!-- Node4&#45;&gt;Node7 -->
<g id="edge6_Node000004_Node000007" class="edge">
<title>Node4&#45;&gt;Node7</title>
<g id="a_edge6_Node000004_Node000007"><a xlink:title=" ">
<path fill="none" stroke="#63b8ff" d="M577.9,-46.54C598.36,-40.99 623.67,-34.12 644.06,-28.58"/>
<polygon fill="#63b8ff" stroke="#63b8ff" points="644.78,-31.74 653.52,-25.74 642.95,-24.99 644.78,-31.74"/>
</a>
</g>
</g>
<!-- Node8 -->
<g id="Node000008" class="node">
<title>Node8</title>
<g id="a_Node000008"><a xlink:href="../../de/db8/namespace_slic3r.html#adb8a52f0ebfe5a551577b3e530b40c47" target="_top" xlink:title=" ">
<polygon fill="white" stroke="#666666" points="816,-28.25 755.75,-28.25 755.75,-9 816,-9 816,-28.25"/>
<text text-anchor="middle" x="785.88" y="-14.75" font-family="Helvetica,sans-Serif" font-size="10.00">Slic3r::dot</text>
</a>
</g>
</g>
<!-- Node7&#45;&gt;Node8 -->
<g id="edge7_Node000007_Node000008" class="edge">
<title>Node7&#45;&gt;Node8</title>
<g id="a_edge7_Node000007_Node000008"><a xlink:title=" ">
<path fill="none" stroke="#63b8ff" d="M709.32,-18.62C720.18,-18.62 732.97,-18.62 744.92,-18.62"/>
<polygon fill="#63b8ff" stroke="#63b8ff" points="744.57,-22.13 754.57,-18.62 744.57,-15.13 744.57,-22.13"/>
</a>
</g>
</g>
<!-- Node9&#45;&gt;Node3 -->
<g id="edge11_Node000009_Node000003" class="edge">
<title>Node9&#45;&gt;Node3</title>
<g id="a_edge11_Node000009_Node000003"><a xlink:title=" ">
<path fill="none" stroke="#63b8ff" d="M269.7,-19.73C281.05,-21.68 293.04,-23.73 304.69,-25.72"/>
<polygon fill="#63b8ff" stroke="#63b8ff" points="303.82,-29.29 314.26,-27.53 305,-22.39 303.82,-29.29"/>
</a>
</g>
</g>
<!-- Node9&#45;&gt;Node9 -->
<g id="edge12_Node000009_Node000009" class="edge">
<title>Node9&#45;&gt;Node9</title>
<g id="a_edge12_Node000009_Node000009"><a xlink:title=" ">
<path fill="none" stroke="#63b8ff" d="M184.99,-19.54C173.75,-28.15 181.96,-37.25 209.62,-37.25 226.05,-37.25 235.62,-34.04 238.33,-29.63"/>
<polygon fill="#63b8ff" stroke="#63b8ff" points="241.25,-28.51 234.26,-20.54 234.75,-31.12 241.25,-28.51"/>
</a>
</g>
</g>
</g>
</svg>
