<?xml version="1.0" encoding="UTF-8" standalone="no"?>
<!DOCTYPE svg PUBLIC "-//W3C//DTD SVG 1.1//EN"
 "http://www.w3.org/Graphics/SVG/1.1/DTD/svg11.dtd">
<!-- Generated by graphviz version 8.0.5 (20230430.1635)
 -->
<!-- Title: which_opcode Pages: 1 -->
<svg width="300pt" height="27pt"
 viewBox="0.00 0.00 299.75 27.25" xmlns="http://www.w3.org/2000/svg" xmlns:xlink="http://www.w3.org/1999/xlink">
<g id="graph0" class="graph" transform="scale(1 1) rotate(0) translate(4 23.25)">
<title>which_opcode</title>
<!-- Node1 -->
<g id="Node000001" class="node">
<title>Node1</title>
<g id="a_Node000001"><a xlink:title=" ">
<polygon fill="#999999" stroke="#666666" points="78.25,-19.25 0,-19.25 0,0 78.25,0 78.25,-19.25"/>
<text text-anchor="middle" x="39.12" y="-5.75" font-family="Helvetica,sans-Serif" font-size="10.00">which_opcode</text>
</a>
</g>
</g>
<!-- Node2 -->
<g id="Node000002" class="node">
<title>Node2</title>
<g id="a_Node000002"><a xlink:href="../../d3/d95/config_8c.html#a22d37b318b11b732360d4ab5289f6568" target="_top" xlink:title=" ">
<polygon fill="white" stroke="#666666" points="160.25,-19.25 114.25,-19.25 114.25,0 160.25,0 160.25,-19.25"/>
<text text-anchor="middle" x="137.25" y="-5.75" font-family="Helvetica,sans-Serif" font-size="10.00">yyerror</text>
</a>
</g>
</g>
<!-- Node1&#45;&gt;Node2 -->
<g id="edge1_Node000001_Node000002" class="edge">
<title>Node1&#45;&gt;Node2</title>
<g id="a_edge1_Node000001_Node000002"><a xlink:title=" ">
<path fill="none" stroke="#63b8ff" d="M78.67,-9.62C86.74,-9.62 95.18,-9.62 103.04,-9.62"/>
<polygon fill="#63b8ff" stroke="#63b8ff" points="103.02,-13.13 113.02,-9.62 103.02,-6.13 103.02,-13.13"/>
</a>
</g>
</g>
<!-- Node3 -->
<g id="Node000003" class="node">
<title>Node3</title>
<g id="a_Node000003"><a xlink:href="../../d0/d29/main_8c.html#ae3011b9c6440c863e64eed3fed5106e3" target="_top" xlink:title=" ">
<polygon fill="white" stroke="#666666" points="291.75,-19.25 196.25,-19.25 196.25,0 291.75,0 291.75,-19.25"/>
<text text-anchor="middle" x="244" y="-5.75" font-family="Helvetica,sans-Serif" font-size="10.00">avrdude_message</text>
</a>
</g>
</g>
<!-- Node2&#45;&gt;Node3 -->
<g id="edge2_Node000002_Node000003" class="edge">
<title>Node2&#45;&gt;Node3</title>
<g id="a_edge2_Node000002_Node000003"><a xlink:title=" ">
<path fill="none" stroke="#63b8ff" d="M160.72,-9.62C167.99,-9.62 176.42,-9.62 185.05,-9.62"/>
<polygon fill="#63b8ff" stroke="#63b8ff" points="185.02,-13.13 195.02,-9.62 185.02,-6.13 185.02,-13.13"/>
</a>
</g>
</g>
</g>
</svg>
