<?xml version="1.0" encoding="UTF-8" standalone="no"?>
<!DOCTYPE svg PUBLIC "-//W3C//DTD SVG 1.1//EN"
 "http://www.w3.org/Graphics/SVG/1.1/DTD/svg11.dtd">
<!-- Generated by graphviz version 8.0.5 (20230430.1635)
 -->
<!-- Title: ImDrawList::PopTextureID Pages: 1 -->
<svg width="663pt" height="64pt"
 viewBox="0.00 0.00 663.00 64.25" xmlns="http://www.w3.org/2000/svg" xmlns:xlink="http://www.w3.org/1999/xlink">
<g id="graph0" class="graph" transform="scale(1 1) rotate(0) translate(4 60.25)">
<title>ImDrawList::PopTextureID</title>
<!-- Node1 -->
<g id="Node000001" class="node">
<title>Node1</title>
<g id="a_Node000001"><a xlink:title=" ">
<polygon fill="#999999" stroke="#666666" points="132.25,-37.25 0,-37.25 0,-18 132.25,-18 132.25,-37.25"/>
<text text-anchor="middle" x="66.12" y="-23.75" font-family="Helvetica,sans-Serif" font-size="10.00">ImDrawList::PopTextureID</text>
</a>
</g>
</g>
<!-- Node2 -->
<g id="Node000002" class="node">
<title>Node2</title>
<g id="a_Node000002"><a xlink:href="../../dd/d30/struct_im_draw_list.html#a7c14ae666a0df75214ecb97cdb9bd8f4" target="_top" xlink:title=" ">
<polygon fill="white" stroke="#666666" points="340.25,-56.25 168.25,-56.25 168.25,-37 340.25,-37 340.25,-56.25"/>
<text text-anchor="middle" x="254.25" y="-42.75" font-family="Helvetica,sans-Serif" font-size="10.00">ImDrawList::_OnChangedTextureID</text>
</a>
</g>
</g>
<!-- Node1&#45;&gt;Node2 -->
<g id="edge1_Node000001_Node000002" class="edge">
<title>Node1&#45;&gt;Node2</title>
<g id="a_edge1_Node000001_Node000002"><a xlink:title=" ">
<path fill="none" stroke="#63b8ff" d="M132.75,-34.32C140.68,-35.13 148.9,-35.97 157.16,-36.82"/>
<polygon fill="#63b8ff" stroke="#63b8ff" points="156.7,-40.39 167.01,-37.92 157.42,-33.43 156.7,-40.39"/>
</a>
</g>
</g>
<!-- Node5 -->
<g id="Node000005" class="node">
<title>Node5</title>
<g id="a_Node000005"><a xlink:href="../../df/d93/struct_im_vector.html#a3db7ce62d3c429effdb893fbf7148c1c" target="_top" xlink:title=" ">
<polygon fill="white" stroke="#666666" points="495,-19.25 391.25,-19.25 391.25,0 495,0 495,-19.25"/>
<text text-anchor="middle" x="443.12" y="-5.75" font-family="Helvetica,sans-Serif" font-size="10.00">ImVector::pop_back</text>
</a>
</g>
</g>
<!-- Node1&#45;&gt;Node5 -->
<g id="edge5_Node000001_Node000005" class="edge">
<title>Node1&#45;&gt;Node5</title>
<g id="a_edge5_Node000001_Node000005"><a xlink:title=" ">
<path fill="none" stroke="#63b8ff" d="M132.45,-24.49C202.16,-21.14 311.79,-15.88 380.18,-12.6"/>
<polygon fill="#63b8ff" stroke="#63b8ff" points="379.97,-16.06 389.79,-12.09 379.64,-9.07 379.97,-16.06"/>
</a>
</g>
</g>
<!-- Node3 -->
<g id="Node000003" class="node">
<title>Node3</title>
<g id="a_Node000003"><a xlink:href="../../dd/d30/struct_im_draw_list.html#a846714bb0321c6f1f908767abc8559e6" target="_top" xlink:title=" ">
<polygon fill="white" stroke="#666666" points="510,-56.25 376.25,-56.25 376.25,-37 510,-37 510,-56.25"/>
<text text-anchor="middle" x="443.12" y="-42.75" font-family="Helvetica,sans-Serif" font-size="10.00">ImDrawList::AddDrawCmd</text>
</a>
</g>
</g>
<!-- Node2&#45;&gt;Node3 -->
<g id="edge2_Node000002_Node000003" class="edge">
<title>Node2&#45;&gt;Node3</title>
<g id="a_edge2_Node000002_Node000003"><a xlink:title=" ">
<path fill="none" stroke="#63b8ff" d="M340.48,-46.62C348.62,-46.62 356.85,-46.62 364.91,-46.62"/>
<polygon fill="#63b8ff" stroke="#63b8ff" points="364.77,-50.13 374.77,-46.62 364.77,-43.13 364.77,-50.13"/>
</a>
</g>
</g>
<!-- Node2&#45;&gt;Node5 -->
<g id="edge4_Node000002_Node000005" class="edge">
<title>Node2&#45;&gt;Node5</title>
<g id="a_edge4_Node000002_Node000005"><a xlink:title=" ">
<path fill="none" stroke="#63b8ff" d="M306.31,-36.51C329.18,-31.99 356.34,-26.61 380.34,-21.86"/>
<polygon fill="#63b8ff" stroke="#63b8ff" points="380.99,-25.1 390.12,-19.72 379.63,-18.23 380.99,-25.1"/>
</a>
</g>
</g>
<!-- Node4 -->
<g id="Node000004" class="node">
<title>Node4</title>
<g id="a_Node000004"><a xlink:href="../../df/d93/struct_im_vector.html#aab5df48e0711a48bd12f3206e08c4108" target="_top" xlink:title=" ">
<polygon fill="white" stroke="#666666" points="655,-56.25 546,-56.25 546,-37 655,-37 655,-56.25"/>
<text text-anchor="middle" x="600.5" y="-42.75" font-family="Helvetica,sans-Serif" font-size="10.00">ImVector::push_back</text>
</a>
</g>
</g>
<!-- Node3&#45;&gt;Node4 -->
<g id="edge3_Node000003_Node000004" class="edge">
<title>Node3&#45;&gt;Node4</title>
<g id="a_edge3_Node000003_Node000004"><a xlink:title=" ">
<path fill="none" stroke="#63b8ff" d="M510.47,-46.62C518.52,-46.62 526.74,-46.62 534.77,-46.62"/>
<polygon fill="#63b8ff" stroke="#63b8ff" points="534.56,-50.13 544.56,-46.62 534.56,-43.13 534.56,-50.13"/>
</a>
</g>
</g>
</g>
</svg>
