<?xml version="1.0" encoding="UTF-8" standalone="no"?>
<!DOCTYPE svg PUBLIC "-//W3C//DTD SVG 1.1//EN"
 "http://www.w3.org/Graphics/SVG/1.1/DTD/svg11.dtd">
<!-- Generated by graphviz version 8.0.5 (20230430.1635)
 -->
<!-- Title: Slic3r::GUI::EmbossStylesSerializable::store_style Pages: 1 -->
<svg width="344pt" height="88pt"
 viewBox="0.00 0.00 343.75 87.50" xmlns="http://www.w3.org/2000/svg" xmlns:xlink="http://www.w3.org/1999/xlink">
<g id="graph0" class="graph" transform="scale(1 1) rotate(0) translate(4 83.5)">
<title>Slic3r::GUI::EmbossStylesSerializable::store_style</title>
<!-- Node1 -->
<g id="Node000001" class="node">
<title>Node1</title>
<g id="a_Node000001"><a xlink:title=" ">
<polygon fill="#999999" stroke="#666666" points="134.5,-54.5 0,-54.5 0,-24 134.5,-24 134.5,-54.5"/>
<text text-anchor="start" x="8" y="-41" font-family="Helvetica,sans-Serif" font-size="10.00">Slic3r::GUI::EmbossStyles</text>
<text text-anchor="middle" x="67.25" y="-29.75" font-family="Helvetica,sans-Serif" font-size="10.00">Serializable::store_style</text>
</a>
</g>
</g>
<!-- Node2 -->
<g id="Node000002" class="node">
<title>Node2</title>
<g id="a_Node000002"><a xlink:href="../../da/de7/class_slic3r_1_1_g_u_i_1_1_emboss_styles_serializable.html#a3b7ec52aa87611da5ae0afeacdab2f1f" target="_top" xlink:title=" ">
<polygon fill="white" stroke="#666666" points="335.75,-79.5 170.5,-79.5 170.5,-49 335.75,-49 335.75,-79.5"/>
<text text-anchor="start" x="178.5" y="-66" font-family="Helvetica,sans-Serif" font-size="10.00">Slic3r::GUI::EmbossStyles</text>
<text text-anchor="middle" x="253.12" y="-54.75" font-family="Helvetica,sans-Serif" font-size="10.00">Serializable::create_section_name</text>
</a>
</g>
</g>
<!-- Node1&#45;&gt;Node2 -->
<g id="edge1_Node000001_Node000002" class="edge">
<title>Node1&#45;&gt;Node2</title>
<g id="a_edge1_Node000001_Node000002"><a xlink:title=" ">
<path fill="none" stroke="#63b8ff" d="M134.89,-48.31C142.83,-49.39 151.03,-50.5 159.24,-51.62"/>
<polygon fill="#63b8ff" stroke="#63b8ff" points="158.65,-55.21 169.03,-53.09 159.59,-48.27 158.65,-55.21"/>
</a>
</g>
</g>
<!-- Node3 -->
<g id="Node000003" class="node">
<title>Node3</title>
<g id="a_Node000003"><a xlink:href="../../da/d00/class_slic3r_1_1_app_config.html#a233a9f782c94e564f19a8ec6c0616fc8" target="_top" xlink:title=" ">
<polygon fill="white" stroke="#666666" points="302.38,-30.5 203.88,-30.5 203.88,0 302.38,0 302.38,-30.5"/>
<text text-anchor="start" x="211.88" y="-17" font-family="Helvetica,sans-Serif" font-size="10.00">Slic3r::AppConfig::</text>
<text text-anchor="middle" x="253.12" y="-5.75" font-family="Helvetica,sans-Serif" font-size="10.00">set_section</text>
</a>
</g>
</g>
<!-- Node1&#45;&gt;Node3 -->
<g id="edge2_Node000001_Node000003" class="edge">
<title>Node1&#45;&gt;Node3</title>
<g id="a_edge2_Node000001_Node000003"><a xlink:title=" ">
<path fill="none" stroke="#63b8ff" d="M134.89,-30.55C153.79,-28.08 174.24,-25.42 192.68,-23.01"/>
<polygon fill="#63b8ff" stroke="#63b8ff" points="193.11,-26.35 202.57,-21.59 192.21,-19.41 193.11,-26.35"/>
</a>
</g>
</g>
</g>
</svg>
