<?xml version="1.0" encoding="UTF-8" standalone="no"?>
<!DOCTYPE svg PUBLIC "-//W3C//DTD SVG 1.1//EN"
 "http://www.w3.org/Graphics/SVG/1.1/DTD/svg11.dtd">
<!-- Generated by graphviz version 8.0.5 (20230430.1635)
 -->
<!-- Title: ImStb::STB_TEXTEDIT_INSERTCHARS Pages: 1 -->
<svg width="737pt" height="138pt"
 viewBox="0.00 0.00 736.75 138.25" xmlns="http://www.w3.org/2000/svg" xmlns:xlink="http://www.w3.org/1999/xlink">
<g id="graph0" class="graph" transform="scale(1 1) rotate(0) translate(4 134.25)">
<title>ImStb::STB_TEXTEDIT_INSERTCHARS</title>
<!-- Node1 -->
<g id="Node000001" class="node">
<title>Node1</title>
<g id="a_Node000001"><a xlink:title=" ">
<polygon fill="#999999" stroke="#666666" points="121.75,-79.88 0,-79.88 0,-49.38 121.75,-49.38 121.75,-79.88"/>
<text text-anchor="start" x="8" y="-66.38" font-family="Helvetica,sans-Serif" font-size="10.00">ImStb::STB_TEXTEDIT</text>
<text text-anchor="middle" x="60.88" y="-55.12" font-family="Helvetica,sans-Serif" font-size="10.00">_INSERTCHARS</text>
</a>
</g>
</g>
<!-- Node2 -->
<g id="Node000002" class="node">
<title>Node2</title>
<g id="a_Node000002"><a xlink:href="../../d1/da2/imgui__internal_8h.html#a6e61ede308bfd68c7434e17905a29fc8" target="_top" xlink:title=" ">
<polygon fill="white" stroke="#666666" points="261.5,-130.25 205.75,-130.25 205.75,-111 261.5,-111 261.5,-130.25"/>
<text text-anchor="middle" x="233.62" y="-116.75" font-family="Helvetica,sans-Serif" font-size="10.00">ImClamp</text>
</a>
</g>
</g>
<!-- Node1&#45;&gt;Node2 -->
<g id="edge1_Node000001_Node000002" class="edge">
<title>Node1&#45;&gt;Node2</title>
<g id="a_edge1_Node000001_Node000002"><a xlink:title=" ">
<path fill="none" stroke="#63b8ff" d="M97.86,-80.29C115.66,-87.68 137.61,-96.25 157.75,-102.62 169.66,-106.39 182.84,-109.81 194.79,-112.63"/>
<polygon fill="#63b8ff" stroke="#63b8ff" points="193.81,-116.22 204.34,-115.04 195.37,-109.4 193.81,-116.22"/>
</a>
</g>
</g>
<!-- Node3 -->
<g id="Node000003" class="node">
<title>Node3</title>
<g id="a_Node000003"><a xlink:href="../../d1/da2/imgui__internal_8h.html#a7667efd95147d0422f140917c71a9226" target="_top" xlink:title=" ">
<polygon fill="white" stroke="#666666" points="256.62,-93.25 210.62,-93.25 210.62,-74 256.62,-74 256.62,-93.25"/>
<text text-anchor="middle" x="233.62" y="-79.75" font-family="Helvetica,sans-Serif" font-size="10.00">ImMax</text>
</a>
</g>
</g>
<!-- Node1&#45;&gt;Node3 -->
<g id="edge2_Node000001_Node000003" class="edge">
<title>Node1&#45;&gt;Node3</title>
<g id="a_edge2_Node000001_Node000003"><a xlink:title=" ">
<path fill="none" stroke="#63b8ff" d="M122.08,-71.32C148.08,-74.22 177.5,-77.49 199.45,-79.93"/>
<polygon fill="#63b8ff" stroke="#63b8ff" points="198.86,-83.5 209.19,-81.13 199.64,-76.54 198.86,-83.5"/>
</a>
</g>
</g>
<!-- Node4 -->
<g id="Node000004" class="node">
<title>Node4</title>
<g id="a_Node000004"><a xlink:href="../../da/d72/imgui_8cpp.html#ab0c1cae5ca2331c54681553722d0f72c" target="_top" xlink:title=" ">
<polygon fill="white" stroke="#666666" points="309.5,-56.25 157.75,-56.25 157.75,-37 309.5,-37 309.5,-56.25"/>
<text text-anchor="middle" x="233.62" y="-42.75" font-family="Helvetica,sans-Serif" font-size="10.00">ImTextCountUtf8BytesFromStr</text>
</a>
</g>
</g>
<!-- Node1&#45;&gt;Node4 -->
<g id="edge3_Node000001_Node000004" class="edge">
<title>Node1&#45;&gt;Node4</title>
<g id="a_edge3_Node000001_Node000004"><a xlink:title=" ">
<path fill="none" stroke="#63b8ff" d="M122.08,-58.28C130.02,-57.44 138.28,-56.57 146.56,-55.7"/>
<polygon fill="#63b8ff" stroke="#63b8ff" points="146.83,-59.08 156.41,-54.55 146.1,-52.12 146.83,-59.08"/>
</a>
</g>
</g>
<!-- Node8 -->
<g id="Node000008" class="node">
<title>Node8</title>
<g id="a_Node000008"><a xlink:href="../../df/d93/struct_im_vector.html#ac371dd62e56ae486b1a5038cf07eee56" target="_top" xlink:title=" ">
<polygon fill="white" stroke="#666666" points="277.62,-19.25 189.62,-19.25 189.62,0 277.62,0 277.62,-19.25"/>
<text text-anchor="middle" x="233.62" y="-5.75" font-family="Helvetica,sans-Serif" font-size="10.00">ImVector::resize</text>
</a>
</g>
</g>
<!-- Node1&#45;&gt;Node8 -->
<g id="edge7_Node000001_Node000008" class="edge">
<title>Node1&#45;&gt;Node8</title>
<g id="a_edge7_Node000001_Node000008"><a xlink:title=" ">
<path fill="none" stroke="#63b8ff" d="M98.81,-49.06C116.45,-41.96 137.99,-33.78 157.75,-27.62 164.52,-25.51 171.71,-23.5 178.84,-21.64"/>
<polygon fill="#63b8ff" stroke="#63b8ff" points="179.36,-24.87 188.2,-19.03 177.65,-18.08 179.36,-24.87"/>
</a>
</g>
</g>
<!-- Node5 -->
<g id="Node000005" class="node">
<title>Node5</title>
<g id="a_Node000005"><a xlink:href="../../da/d72/imgui_8cpp.html#ae1d5a0a2772f1e426f4bedbf4148235d" target="_top" xlink:title=" ">
<polygon fill="white" stroke="#666666" points="505.5,-56.25 345.5,-56.25 345.5,-37 505.5,-37 505.5,-56.25"/>
<text text-anchor="middle" x="425.5" y="-42.75" font-family="Helvetica,sans-Serif" font-size="10.00">ImTextCountUtf8BytesFromChar</text>
</a>
</g>
</g>
<!-- Node4&#45;&gt;Node5 -->
<g id="edge4_Node000004_Node000005" class="edge">
<title>Node4&#45;&gt;Node5</title>
<g id="a_edge4_Node000004_Node000005"><a xlink:title=" ">
<path fill="none" stroke="#63b8ff" d="M309.94,-46.62C318,-46.62 326.26,-46.62 334.48,-46.62"/>
<polygon fill="#63b8ff" stroke="#63b8ff" points="334.22,-50.13 344.22,-46.62 334.22,-43.13 334.22,-50.13"/>
</a>
</g>
</g>
<!-- Node6 -->
<g id="Node000006" class="node">
<title>Node6</title>
<g id="a_Node000006"><a xlink:href="../../da/d72/imgui_8cpp.html#a036b9dd7f0942fd34e385cc115f36631" target="_top" xlink:title=" ">
<polygon fill="white" stroke="#666666" points="649.75,-56.25 541.5,-56.25 541.5,-37 649.75,-37 649.75,-56.25"/>
<text text-anchor="middle" x="595.62" y="-42.75" font-family="Helvetica,sans-Serif" font-size="10.00">ImTextCharFromUtf8</text>
</a>
</g>
</g>
<!-- Node5&#45;&gt;Node6 -->
<g id="edge5_Node000005_Node000006" class="edge">
<title>Node5&#45;&gt;Node6</title>
<g id="a_edge5_Node000005_Node000006"><a xlink:title=" ">
<path fill="none" stroke="#63b8ff" d="M505.64,-46.62C513.95,-46.62 522.33,-46.62 530.45,-46.62"/>
<polygon fill="#63b8ff" stroke="#63b8ff" points="530.32,-50.13 540.32,-46.62 530.32,-43.13 530.32,-50.13"/>
</a>
</g>
</g>
<!-- Node7 -->
<g id="Node000007" class="node">
<title>Node7</title>
<g id="a_Node000007"><a xlink:href="../../d1/da2/imgui__internal_8h.html#a7f9d7828066a9d61b5630adcdf4655d3" target="_top" xlink:title=" ">
<polygon fill="white" stroke="#666666" points="728.75,-56.25 685.75,-56.25 685.75,-37 728.75,-37 728.75,-56.25"/>
<text text-anchor="middle" x="707.25" y="-42.75" font-family="Helvetica,sans-Serif" font-size="10.00">ImMin</text>
</a>
</g>
</g>
<!-- Node6&#45;&gt;Node7 -->
<g id="edge6_Node000006_Node000007" class="edge">
<title>Node6&#45;&gt;Node7</title>
<g id="a_edge6_Node000006_Node000007"><a xlink:title=" ">
<path fill="none" stroke="#63b8ff" d="M650.15,-46.62C658.45,-46.62 666.79,-46.62 674.41,-46.62"/>
<polygon fill="#63b8ff" stroke="#63b8ff" points="674.32,-50.13 684.32,-46.62 674.32,-43.13 674.32,-50.13"/>
</a>
</g>
</g>
</g>
</svg>
