<?xml version="1.0" encoding="UTF-8" standalone="no"?>
<!DOCTYPE svg PUBLIC "-//W3C//DTD SVG 1.1//EN"
 "http://www.w3.org/Graphics/SVG/1.1/DTD/svg11.dtd">
<!-- Generated by graphviz version 8.0.5 (20230430.1635)
 -->
<!-- Title: Slic3r::ConfigOptionVectorBase::size Pages: 1 -->
<!--zoomable 389 -->

<svg id="main" version="1.1" xmlns="http://www.w3.org/2000/svg" xmlns:xlink="http://www.w3.org/1999/xlink" xml:space="preserve" onload="init(evt)">
<style type="text/css"><![CDATA[
.node, .edge {opacity: 0.7;}
.node.selected, .edge.selected {opacity: 1;}
.edge:hover path { stroke: red; }
.edge:hover polygon { stroke: red; fill: red; }
]]></style>

<defs>
  <circle id="rim" cx="0" cy="0" r="7"/>
  <circle id="rim2" cx="0" cy="0" r="3.5"/>
  <g id="zoomPlus">
    <use xlink:href="#rim" fill="#404040"><set attributeName="fill" to="#808080" begin="zoomplus.mouseover" end="zoomplus.mouseout"/></use>
    <path d="M-4,0h8M0,-4v8" fill="none" stroke="white" stroke-width="1.5" pointer-events="none"/>
  </g>
  <g id="zoomMin">
    <use xlink:href="#rim" fill="#404040"><set attributeName="fill" to="#808080" begin="zoomminus.mouseover" end="zoomminus.mouseout"/></use>
    <path d="M-4,0h8" fill="none" stroke="white" stroke-width="1.5" pointer-events="none"/>
  </g>
  <g id="arrowUp" transform="translate(30 24)">
    <use xlink:href="#rim"/>
    <path pointer-events="none" fill="none" stroke="white" stroke-width="1.5" d="M0,-3.0v7 M-2.5,-0.5L0,-3.0L2.5,-0.5"/>
  </g>
  <g id="arrowRight" transform="rotate(90) translate(36 -43)">
    <use xlink:href="#rim"/>
    <path pointer-events="none" fill="none" stroke="white" stroke-width="1.5" d="M0,-3.0v7 M-2.5,-0.5L0,-3.0L2.5,-0.5"/>
  </g>
  <g id="arrowDown" transform="rotate(180) translate(-30 -48)">
    <use xlink:href="#rim"/>
    <path pointer-events="none" fill="none" stroke="white" stroke-width="1.5" d="M0,-3.0v7 M-2.5,-0.5L0,-3.0L2.5,-0.5"/>
  </g>
  <g id="arrowLeft" transform="rotate(270) translate(-36 17)">
    <use xlink:href="#rim"/>
    <path pointer-events="none" fill="none" stroke="white" stroke-width="1.5" d="M0,-3.0v7 M-2.5,-0.5L0,-3.0L2.5,-0.5"/>
  </g>
  <g id="resetDef">
    <use xlink:href="#rim2" fill="#404040"><set attributeName="fill" to="#808080" begin="reset.mouseover" end="reset.mouseout"/></use>
  </g>
</defs>
<script type="application/ecmascript">
var viewWidth = 1012;
var viewHeight = 389;
var sectionId = 'dynsection-23';
</script>
<script type="application/ecmascript" xlink:href="../../svg.min.js"/>
<svg id="graph" class="graph">
<g id="viewport">
<title>Slic3r::ConfigOptionVectorBase::size</title>
<!-- Node1 -->
<g id="Node000001" class="node">
<title>Node1</title>
<g id="a_Node000001"><a xlink:title=" ">
<polygon fill="#999999" stroke="#666666" points="1004.25,-252.12 872,-252.12 872,-221.62 1004.25,-221.62 1004.25,-252.12"/>
<text text-anchor="start" x="880" y="-238.62" font-family="Helvetica,sans-Serif" font-size="10.00">Slic3r::ConfigOptionVector</text>
<text text-anchor="middle" x="938.12" y="-227.38" font-family="Helvetica,sans-Serif" font-size="10.00">Base::size</text>
</a>
</g>
</g>
<!-- Node2 -->
<g id="Node000002" class="node">
<title>Node2</title>
<g id="a_Node000002"><a xlink:href="../../dd/dc0/struct_slic3r_1_1client_1_1_my_context.html#ae9b0a5043f59f39209f1fc36e2dddc31" target="_top" xlink:title=" ">
<polygon fill="white" stroke="#666666" points="487.12,-381.12 363.12,-381.12 363.12,-350.62 487.12,-350.62 487.12,-381.12"/>
<text text-anchor="start" x="371.12" y="-367.62" font-family="Helvetica,sans-Serif" font-size="10.00">Slic3r::client::MyContext</text>
<text text-anchor="middle" x="425.12" y="-356.38" font-family="Helvetica,sans-Serif" font-size="10.00">::is_nil_test</text>
</a>
</g>
</g>
<!-- Node1&#45;&gt;Node2 -->
<g id="edge1_Node000001_Node000002" class="edge">
<title>Node1&#45;&gt;Node2</title>
<g id="a_edge1_Node000001_Node000002"><a xlink:title=" ">
<path fill="none" stroke="#63b8ff" d="M920.53,-261.34C902.75,-285.3 872.14,-320.51 836,-336.88 721.47,-388.74 570.36,-382.94 487.33,-374.29"/>
<polygon fill="#63b8ff" stroke="#63b8ff" points="923.92,-263.63 926.92,-253.46 918.24,-259.54 923.92,-263.63"/>
</a>
</g>
</g>
<!-- Node4 -->
<g id="Node000004" class="node">
<title>Node4</title>
<g id="a_Node000004"><a xlink:href="../../dd/dc0/struct_slic3r_1_1client_1_1_my_context.html#ad83df0002b052d9cb1cdf49736fcafc9" target="_top" xlink:title=" ">
<polygon fill="white" stroke="#666666" points="311,-338.12 187,-338.12 187,-307.62 311,-307.62 311,-338.12"/>
<text text-anchor="start" x="195" y="-324.62" font-family="Helvetica,sans-Serif" font-size="10.00">Slic3r::client::MyContext</text>
<text text-anchor="middle" x="249" y="-313.38" font-family="Helvetica,sans-Serif" font-size="10.00">::is_vector_empty</text>
</a>
</g>
</g>
<!-- Node1&#45;&gt;Node4 -->
<g id="edge3_Node000001_Node000004" class="edge">
<title>Node1&#45;&gt;Node4</title>
<g id="a_edge3_Node000001_Node000004"><a xlink:title=" ">
<path fill="none" stroke="#63b8ff" d="M887.84,-256.15C871.51,-262.06 853.13,-268.23 836,-272.88 649.73,-323.33 419.1,-326.54 311.13,-324.76"/>
<polygon fill="#63b8ff" stroke="#63b8ff" points="888.54,-259.25 896.71,-252.51 886.12,-252.68 888.54,-259.25"/>
</a>
</g>
</g>
<!-- Node5 -->
<g id="Node000005" class="node">
<title>Node5</title>
<g id="a_Node000005"><a xlink:href="../../dd/dc0/struct_slic3r_1_1client_1_1_my_context.html#a57dbf3ed8f6e0724dd03cc6322783e03" target="_top" xlink:title=" ">
<polygon fill="white" stroke="#666666" points="672.25,-295.12 533.25,-295.12 533.25,-264.62 672.25,-264.62 672.25,-295.12"/>
<text text-anchor="start" x="541.25" y="-281.62" font-family="Helvetica,sans-Serif" font-size="10.00">Slic3r::client::MyContext</text>
<text text-anchor="middle" x="602.75" y="-270.38" font-family="Helvetica,sans-Serif" font-size="10.00">::legacy_variable_expansion</text>
</a>
</g>
</g>
<!-- Node1&#45;&gt;Node5 -->
<g id="edge5_Node000001_Node000005" class="edge">
<title>Node1&#45;&gt;Node5</title>
<g id="a_edge5_Node000001_Node000005"><a xlink:title=" ">
<path fill="none" stroke="#63b8ff" d="M860.97,-247.53C852.55,-248.67 844.09,-249.81 836,-250.88 781.11,-258.1 718.86,-265.85 672.63,-271.52"/>
<polygon fill="#63b8ff" stroke="#63b8ff" points="861.16,-250.9 870.59,-246.08 860.21,-243.96 861.16,-250.9"/>
</a>
</g>
</g>
<!-- Node6 -->
<g id="Node000006" class="node">
<title>Node6</title>
<g id="a_Node000006"><a xlink:href="../../dd/dc0/struct_slic3r_1_1client_1_1_my_context.html#ab2ef9b39a6e51869a51c7c947ddeb6ed" target="_top" xlink:title=" ">
<polygon fill="white" stroke="#666666" points="497.25,-252.12 353,-252.12 353,-221.62 497.25,-221.62 497.25,-252.12"/>
<text text-anchor="start" x="361" y="-238.62" font-family="Helvetica,sans-Serif" font-size="10.00">Slic3r::client::MyContext</text>
<text text-anchor="middle" x="425.12" y="-227.38" font-family="Helvetica,sans-Serif" font-size="10.00">::legacy_variable_expansion2</text>
</a>
</g>
</g>
<!-- Node1&#45;&gt;Node6 -->
<g id="edge7_Node000001_Node000006" class="edge">
<title>Node1&#45;&gt;Node6</title>
<g id="a_edge7_Node000001_Node000006"><a xlink:title=" ">
<path fill="none" stroke="#63b8ff" d="M860.89,-236.88C762.68,-236.88 593.23,-236.88 497.46,-236.88"/>
<polygon fill="#63b8ff" stroke="#63b8ff" points="860.63,-240.38 870.63,-236.88 860.63,-233.38 860.63,-240.38"/>
</a>
</g>
</g>
<!-- Node7 -->
<g id="Node000007" class="node">
<title>Node7</title>
<g id="a_Node000007"><a xlink:href="../../dd/dc0/struct_slic3r_1_1client_1_1_my_context.html#aa17299d63f9a3904abd9b8174c5da044" target="_top" xlink:title=" ">
<polygon fill="white" stroke="#666666" points="835.25,-209.12 709,-209.12 709,-178.62 835.25,-178.62 835.25,-209.12"/>
<text text-anchor="start" x="717" y="-195.62" font-family="Helvetica,sans-Serif" font-size="10.00">Slic3r::client::MyContext</text>
<text text-anchor="middle" x="772.12" y="-184.38" font-family="Helvetica,sans-Serif" font-size="10.00">::vector_element_to_expr</text>
</a>
</g>
</g>
<!-- Node1&#45;&gt;Node7 -->
<g id="edge9_Node000001_Node000007" class="edge">
<title>Node1&#45;&gt;Node7</title>
<g id="a_edge9_Node000001_Node000007"><a xlink:title=" ">
<path fill="none" stroke="#63b8ff" d="M867.14,-218.53C855.78,-215.55 844.11,-212.49 833.03,-209.58"/>
<polygon fill="#63b8ff" stroke="#63b8ff" points="865.89,-222.08 876.45,-221.23 867.67,-215.31 865.89,-222.08"/>
</a>
</g>
</g>
<!-- Node9 -->
<g id="Node000009" class="node">
<title>Node9</title>
<g id="a_Node000009"><a xlink:href="../../dd/dc0/struct_slic3r_1_1client_1_1_my_context.html#af6d93b0518ef9dd85a3b133627563c37" target="_top" xlink:title=" ">
<polygon fill="white" stroke="#666666" points="311,-166.12 187,-166.12 187,-135.62 311,-135.62 311,-166.12"/>
<text text-anchor="start" x="195" y="-152.62" font-family="Helvetica,sans-Serif" font-size="10.00">Slic3r::client::MyContext</text>
<text text-anchor="middle" x="249" y="-141.38" font-family="Helvetica,sans-Serif" font-size="10.00">::vector_size</text>
</a>
</g>
</g>
<!-- Node1&#45;&gt;Node9 -->
<g id="edge12_Node000001_Node000009" class="edge">
<title>Node1&#45;&gt;Node9</title>
<g id="a_edge12_Node000001_Node000009"><a xlink:title=" ">
<path fill="none" stroke="#63b8ff" d="M911.86,-214.33C892.58,-198.64 864.53,-178.98 836,-169.88 739.87,-139.21 441.2,-144.65 311.33,-148.66"/>
<polygon fill="#63b8ff" stroke="#63b8ff" points="909.16,-217.47 919.08,-221.2 913.66,-212.1 909.16,-217.47"/>
</a>
</g>
</g>
<!-- Node10 -->
<g id="Node000010" class="node">
<title>Node10</title>
<g id="a_Node000010"><a xlink:href="../../dd/dc0/struct_slic3r_1_1client_1_1_my_context.html#ac03c637ada499c65a44c1ab5deebf42a" target="_top" xlink:title=" ">
<polygon fill="white" stroke="#666666" points="836,-122.75 708.25,-122.75 708.25,-81 836,-81 836,-122.75"/>
<text text-anchor="start" x="716.25" y="-109.25" font-family="Helvetica,sans-Serif" font-size="10.00">Slic3r::client::MyContext</text>
<text text-anchor="start" x="716.25" y="-98" font-family="Helvetica,sans-Serif" font-size="10.00">::vector_variable_element</text>
<text text-anchor="middle" x="772.12" y="-86.75" font-family="Helvetica,sans-Serif" font-size="10.00">_assign_scalar</text>
</a>
</g>
</g>
<!-- Node1&#45;&gt;Node10 -->
<g id="edge14_Node000001_Node000010" class="edge">
<title>Node1&#45;&gt;Node10</title>
<g id="a_edge14_Node000001_Node000010"><a xlink:title=" ">
<path fill="none" stroke="#63b8ff" d="M916.76,-213.34C897.37,-191.82 866.68,-159.9 836,-136.88 829.51,-132 822.26,-127.34 815.05,-123.11"/>
<polygon fill="#63b8ff" stroke="#63b8ff" points="913.59,-215.18 922.85,-220.32 918.82,-210.53 913.59,-215.18"/>
</a>
</g>
</g>
<!-- Node3 -->
<g id="Node000003" class="node">
<title>Node3</title>
<g id="a_Node000003"><a xlink:href="../../db/da4/struct_slic3r_1_1client_1_1macro__processor.html#a2ed5352dbc4723eae00ceaf09adb501f" target="_top" xlink:title=" ">
<polygon fill="white" stroke="#666666" points="145,-209.12 0,-209.12 0,-178.62 145,-178.62 145,-209.12"/>
<text text-anchor="start" x="8" y="-195.62" font-family="Helvetica,sans-Serif" font-size="10.00">Slic3r::client::macro</text>
<text text-anchor="middle" x="72.5" y="-184.38" font-family="Helvetica,sans-Serif" font-size="10.00">_processor::macro_processor</text>
</a>
</g>
</g>
<!-- Node2&#45;&gt;Node3 -->
<g id="edge2_Node000002_Node000003" class="edge">
<title>Node2&#45;&gt;Node3</title>
<g id="a_edge2_Node000002_Node000003"><a xlink:title=" ">
<path fill="none" stroke="#63b8ff" d="M351.81,-375.76C300.81,-379.18 232.66,-376.32 181,-346.88 125.44,-315.2 91.73,-241.67 79.14,-209.46"/>
<polygon fill="#63b8ff" stroke="#63b8ff" points="352.05,-379.17 361.75,-374.91 351.51,-372.19 352.05,-379.17"/>
</a>
</g>
</g>
<!-- Node4&#45;&gt;Node3 -->
<g id="edge4_Node000004_Node000003" class="edge">
<title>Node4&#45;&gt;Node3</title>
<g id="a_edge4_Node000004_Node000003"><a xlink:title=" ">
<path fill="none" stroke="#63b8ff" d="M196.21,-302.61C190.94,-299.91 185.77,-297 181,-293.88 143.23,-269.19 106.3,-230.84 87.1,-209.51"/>
<polygon fill="#63b8ff" stroke="#63b8ff" points="194.23,-306.02 204.76,-307.2 197.27,-299.71 194.23,-306.02"/>
</a>
</g>
</g>
<!-- Node5&#45;&gt;Node3 -->
<g id="edge6_Node000005_Node000003" class="edge">
<title>Node5&#45;&gt;Node3</title>
<g id="a_edge6_Node000005_Node000003"><a xlink:title=" ">
<path fill="none" stroke="#63b8ff" d="M522.03,-276.68C436.55,-271.81 297.4,-259.69 181,-229.88 159.17,-224.28 135.36,-216.49 115.71,-209.59"/>
<polygon fill="#63b8ff" stroke="#63b8ff" points="521.78,-280.23 531.96,-277.28 522.17,-273.24 521.78,-280.23"/>
</a>
</g>
</g>
<!-- Node6&#45;&gt;Node3 -->
<g id="edge8_Node000006_Node000003" class="edge">
<title>Node6&#45;&gt;Node3</title>
<g id="a_edge8_Node000006_Node000003"><a xlink:title=" ">
<path fill="none" stroke="#63b8ff" d="M341.8,-227.28C294.7,-221.73 234.51,-214.55 181,-207.88 169.51,-206.44 157.34,-204.89 145.48,-203.36"/>
<polygon fill="#63b8ff" stroke="#63b8ff" points="341.22,-230.85 351.56,-228.54 342.03,-223.9 341.22,-230.85"/>
</a>
</g>
</g>
<!-- Node8 -->
<g id="Node000008" class="node">
<title>Node8</title>
<g id="a_Node000008"><a xlink:href="../../dd/dc0/struct_slic3r_1_1client_1_1_my_context.html#aba86748cf33195561cd7f67e57d6bb46" target="_top" xlink:title=" ">
<polygon fill="white" stroke="#666666" points="664.75,-209.12 540.75,-209.12 540.75,-178.62 664.75,-178.62 664.75,-209.12"/>
<text text-anchor="start" x="548.75" y="-195.62" font-family="Helvetica,sans-Serif" font-size="10.00">Slic3r::client::MyContext</text>
<text text-anchor="middle" x="602.75" y="-184.38" font-family="Helvetica,sans-Serif" font-size="10.00">::variable_value</text>
</a>
</g>
</g>
<!-- Node7&#45;&gt;Node8 -->
<g id="edge10_Node000007_Node000008" class="edge">
<title>Node7&#45;&gt;Node8</title>
<g id="a_edge10_Node000007_Node000008"><a xlink:title=" ">
<path fill="none" stroke="#63b8ff" d="M697.93,-193.88C686.94,-193.88 675.71,-193.88 665.01,-193.88"/>
<polygon fill="#63b8ff" stroke="#63b8ff" points="697.8,-197.38 707.8,-193.88 697.8,-190.38 697.8,-197.38"/>
</a>
</g>
</g>
<!-- Node8&#45;&gt;Node3 -->
<g id="edge11_Node000008_Node000003" class="edge">
<title>Node8&#45;&gt;Node3</title>
<g id="a_edge11_Node000008_Node000003"><a xlink:title=" ">
<path fill="none" stroke="#63b8ff" d="M529.67,-193.88C428.69,-193.88 246.18,-193.88 145.33,-193.88"/>
<polygon fill="#63b8ff" stroke="#63b8ff" points="529.38,-197.38 539.38,-193.88 529.38,-190.38 529.38,-197.38"/>
</a>
</g>
</g>
<!-- Node9&#45;&gt;Node3 -->
<g id="edge13_Node000009_Node000003" class="edge">
<title>Node9&#45;&gt;Node3</title>
<g id="a_edge13_Node000009_Node000003"><a xlink:title=" ">
<path fill="none" stroke="#63b8ff" d="M176.62,-168.47C163.55,-171.69 149.99,-175.03 137.16,-178.19"/>
<polygon fill="#63b8ff" stroke="#63b8ff" points="177.1,-171.71 185.97,-165.91 175.42,-164.91 177.1,-171.71"/>
</a>
</g>
</g>
<!-- Node11 -->
<g id="Node000011" class="node">
<title>Node11</title>
<g id="a_Node000011"><a xlink:href="../../dd/dc0/struct_slic3r_1_1client_1_1_my_context.html#adfc8bdda7531426cbed2931748185dd8" target="_top" xlink:title=" ">
<polygon fill="white" stroke="#666666" points="664.75,-122.75 540.75,-122.75 540.75,-81 664.75,-81 664.75,-122.75"/>
<text text-anchor="start" x="548.75" y="-109.25" font-family="Helvetica,sans-Serif" font-size="10.00">Slic3r::client::MyContext</text>
<text text-anchor="start" x="548.75" y="-98" font-family="Helvetica,sans-Serif" font-size="10.00">::scalar_variable_assign</text>
<text text-anchor="middle" x="602.75" y="-86.75" font-family="Helvetica,sans-Serif" font-size="10.00">_scalar_expression</text>
</a>
</g>
</g>
<!-- Node10&#45;&gt;Node11 -->
<g id="edge15_Node000010_Node000011" class="edge">
<title>Node10&#45;&gt;Node11</title>
<g id="a_edge15_Node000010_Node000011"><a xlink:title=" ">
<path fill="none" stroke="#63b8ff" d="M696.9,-101.88C686.3,-101.88 675.5,-101.88 665.18,-101.88"/>
<polygon fill="#63b8ff" stroke="#63b8ff" points="696.85,-105.38 706.85,-101.88 696.85,-98.38 696.85,-105.38"/>
</a>
</g>
</g>
<!-- Node11&#45;&gt;Node3 -->
<g id="edge16_Node000011_Node000003" class="edge">
<title>Node11&#45;&gt;Node3</title>
<g id="a_edge16_Node000011_Node000003"><a xlink:title=" ">
<path fill="none" stroke="#63b8ff" d="M529.59,-95.56C444.2,-90.47 298.73,-89.38 181,-126.88 146.64,-137.82 112.18,-162.24 91.86,-178.38"/>
<polygon fill="#63b8ff" stroke="#63b8ff" points="529.27,-99.11 539.47,-96.25 529.71,-92.12 529.27,-99.11"/>
</a>
</g>
</g>
<!-- Node12 -->
<g id="Node000012" class="node">
<title>Node12</title>
<g id="a_Node000012"><a xlink:href="../../dd/dc0/struct_slic3r_1_1client_1_1_my_context.html#a78fb101dd3d38b0b1250ee75f9793b27" target="_top" xlink:title=" ">
<polygon fill="white" stroke="#666666" points="487.12,-79.75 363.12,-79.75 363.12,-38 487.12,-38 487.12,-79.75"/>
<text text-anchor="start" x="371.12" y="-66.25" font-family="Helvetica,sans-Serif" font-size="10.00">Slic3r::client::MyContext</text>
<text text-anchor="start" x="371.12" y="-55" font-family="Helvetica,sans-Serif" font-size="10.00">::vector_variable_assign</text>
<text text-anchor="middle" x="425.12" y="-43.75" font-family="Helvetica,sans-Serif" font-size="10.00">_initializer_list</text>
</a>
</g>
</g>
<!-- Node11&#45;&gt;Node12 -->
<g id="edge17_Node000011_Node000012" class="edge">
<title>Node11&#45;&gt;Node12</title>
<g id="a_edge17_Node000011_Node000012"><a xlink:title=" ">
<path fill="none" stroke="#63b8ff" d="M529.74,-84.24C515.72,-80.81 501.15,-77.24 487.52,-73.91"/>
<polygon fill="#63b8ff" stroke="#63b8ff" points="528.78,-87.86 539.32,-86.84 530.44,-81.06 528.78,-87.86"/>
</a>
</g>
</g>
<!-- Node12&#45;&gt;Node3 -->
<g id="edge18_Node000012_Node000003" class="edge">
<title>Node12&#45;&gt;Node3</title>
<g id="a_edge18_Node000012_Node000003"><a xlink:title=" ">
<path fill="none" stroke="#63b8ff" d="M352.01,-58.09C301.83,-60.15 234.58,-68.25 181,-93.88 139.38,-113.78 102.87,-155.53 85.06,-178.28"/>
<polygon fill="#63b8ff" stroke="#63b8ff" points="351.89,-61.56 361.76,-57.73 351.65,-54.56 351.89,-61.56"/>
</a>
</g>
</g>
<!-- Node13 -->
<g id="Node000013" class="node">
<title>Node13</title>
<g id="a_Node000013"><a xlink:href="../../dd/dc0/struct_slic3r_1_1client_1_1_my_context.html#aa5fe8120483f1772411de107ed2c016e" target="_top" xlink:title=" ">
<polygon fill="white" stroke="#666666" points="317,-41.75 181,-41.75 181,0 317,0 317,-41.75"/>
<text text-anchor="start" x="189" y="-28.25" font-family="Helvetica,sans-Serif" font-size="10.00">Slic3r::client::MyContext</text>
<text text-anchor="start" x="189" y="-17" font-family="Helvetica,sans-Serif" font-size="10.00">::vector_variable_new_from</text>
<text text-anchor="middle" x="249" y="-5.75" font-family="Helvetica,sans-Serif" font-size="10.00">_initializer_list</text>
</a>
</g>
</g>
<!-- Node12&#45;&gt;Node13 -->
<g id="edge19_Node000012_Node000013" class="edge">
<title>Node12&#45;&gt;Node13</title>
<g id="a_edge19_Node000012_Node000013"><a xlink:title=" ">
<path fill="none" stroke="#63b8ff" d="M352.26,-43.19C340.71,-40.67 328.79,-38.07 317.35,-35.57"/>
<polygon fill="#63b8ff" stroke="#63b8ff" points="351.22,-46.76 361.74,-45.48 352.71,-39.93 351.22,-46.76"/>
</a>
</g>
</g>
<!-- Node13&#45;&gt;Node3 -->
<g id="edge20_Node000013_Node000003" class="edge">
<title>Node13&#45;&gt;Node3</title>
<g id="a_edge20_Node000013_Node000003"><a xlink:title=" ">
<path fill="none" stroke="#63b8ff" d="M191.88,-47.8C188.07,-50.34 184.4,-53.04 181,-55.88 136.69,-92.84 98.94,-150.95 82.42,-178.46"/>
<polygon fill="#63b8ff" stroke="#63b8ff" points="193.32,-50.4 199.95,-42.14 189.61,-44.46 193.32,-50.4"/>
</a>
</g>
</g>
</g>
</svg>

<g id="navigator" transform="translate(0 0)" fill="#404254">
  <rect fill="#f2f5e9" fill-opacity="0.5" stroke="#606060" stroke-width=".5" x="0" y="0" width="60" height="60"/>
  <use id="zoomplus" xlink:href="#zoomPlus" x="17" y="9" onmousedown="handleZoom(evt,'in')"/>
  <use id="zoomminus" xlink:href="#zoomMin" x="42" y="9" onmousedown="handleZoom(evt,'out')"/>
  <use id="reset" xlink:href="#resetDef" x="30" y="36" onmousedown="handleReset()"/>
   <use id="arrowup" xlink:href="#arrowUp" x="0" y="0" onmousedown="handlePan(0,-1)"/>
  <use id="arrowright" xlink:href="#arrowRight" x="0" y="0" onmousedown="handlePan(1,0)"/>
  <use id="arrowdown" xlink:href="#arrowDown" x="0" y="0" onmousedown="handlePan(0,1)"/>
  <use id="arrowleft" xlink:href="#arrowLeft" x="0" y="0" onmousedown="handlePan(-1,0)"/>
</g>
<svg viewBox="0 0 15 15" width="100%" height="30px" preserveAspectRatio="xMaxYMin meet">
 <g id="arrow_out" transform="scale(0.3 0.3)">
  <a xlink:href="class_slic3r_1_1_config_option_vector_base_ae24c13d5ba8a7d8c86201bb209465e4c_icgraph_org.svg" target="_base">
   <rect id="button" ry="5" rx="5" y="6" x="6" height="38" width="38"
        fill="#f2f5e9" fill-opacity="0.5" stroke="#606060" stroke-width="1.0"/>
   <path id="arrow"
     d="M 11.500037,31.436501 C 11.940474,20.09759 22.043105,11.32322 32.158766,21.979434 L 37.068811,17.246167 C 37.068811,17.246167 37.088388,32 37.088388,32 L 22.160133,31.978069 C 22.160133,31.978069 26.997745,27.140456 26.997745,27.140456 C 18.528582,18.264221 13.291696,25.230495 11.500037,31.436501 z"
     style="fill:#404040;"/>
  </a>
 </g>
</svg>

<style type='text/css'>
<![CDATA[
[data-mouse-over-selected='false'] { opacity: 0.7; }
[data-mouse-over-selected='true']  { opacity: 1.0; }
]]>
</style>
<script type="application/ecmascript"><![CDATA[
document.addEventListener('DOMContentLoaded', (event) => {
  highlightEdges();
  highlightAdjacentNodes();
});
]]></script>
</svg>
