<?xml version="1.0" encoding="UTF-8" standalone="no"?>
<!DOCTYPE svg PUBLIC "-//W3C//DTD SVG 1.1//EN"
 "http://www.w3.org/Graphics/SVG/1.1/DTD/svg11.dtd">
<!-- Generated by graphviz version 8.0.5 (20230430.1635)
 -->
<!-- Title: Slic3r::ConfigOptionVectorBase::resize Pages: 1 -->
<svg width="957pt" height="275pt"
 viewBox="0.00 0.00 956.75 275.20" xmlns="http://www.w3.org/2000/svg" xmlns:xlink="http://www.w3.org/1999/xlink">
<g id="graph0" class="graph" transform="scale(1 1) rotate(0) translate(4 271.2)">
<title>Slic3r::ConfigOptionVectorBase::resize</title>
<!-- Node1 -->
<g id="Node000001" class="node">
<title>Node1</title>
<g id="a_Node000001"><a xlink:title=" ">
<polygon fill="#999999" stroke="#666666" points="948.75,-143.5 816.5,-143.5 816.5,-113 948.75,-113 948.75,-143.5"/>
<text text-anchor="start" x="824.5" y="-130" font-family="Helvetica,sans-Serif" font-size="10.00">Slic3r::ConfigOptionVector</text>
<text text-anchor="middle" x="882.62" y="-118.75" font-family="Helvetica,sans-Serif" font-size="10.00">Base::resize</text>
</a>
</g>
</g>
<!-- Node2 -->
<g id="Node000002" class="node">
<title>Node2</title>
<g id="a_Node000002"><a xlink:href="../../d9/db2/class_slic3r_1_1_preset.html#ac6bbb29f0b60955350001735692718bf" target="_top" xlink:title=" ">
<polygon fill="white" stroke="#666666" points="780.5,-137.88 657.25,-137.88 657.25,-118.62 780.5,-118.62 780.5,-137.88"/>
<text text-anchor="middle" x="718.88" y="-124.38" font-family="Helvetica,sans-Serif" font-size="10.00">Slic3r::Preset::normalize</text>
</a>
</g>
</g>
<!-- Node1&#45;&gt;Node2 -->
<g id="edge1_Node000001_Node000002" class="edge">
<title>Node1&#45;&gt;Node2</title>
<g id="a_edge1_Node000001_Node000002"><a xlink:title=" ">
<path fill="none" stroke="#63b8ff" d="M805.55,-128.25C797.31,-128.25 789.01,-128.25 780.99,-128.25"/>
<polygon fill="#63b8ff" stroke="#63b8ff" points="805.3,-131.75 815.3,-128.25 805.3,-124.75 805.3,-131.75"/>
</a>
</g>
</g>
<!-- Node3 -->
<g id="Node000003" class="node">
<title>Node3</title>
<g id="a_Node000003"><a xlink:href="../../d9/d4b/class_slic3r_1_1_preset_bundle.html#a809726ab5729211dd5e6fb55ee5e9161" target="_top" xlink:title=" ">
<polygon fill="white" stroke="#666666" points="277.25,-266.5 172,-266.5 172,-236 277.25,-236 277.25,-266.5"/>
<text text-anchor="start" x="180" y="-253" font-family="Helvetica,sans-Serif" font-size="10.00">Slic3r::PresetBundle</text>
<text text-anchor="middle" x="224.62" y="-241.75" font-family="Helvetica,sans-Serif" font-size="10.00">::load_config_file</text>
</a>
</g>
</g>
<!-- Node2&#45;&gt;Node3 -->
<g id="edge2_Node000002_Node000003" class="edge">
<title>Node2&#45;&gt;Node3</title>
<g id="a_edge2_Node000002_Node000003"><a xlink:title=" ">
<path fill="none" stroke="#63b8ff" d="M695.18,-144.67C652.79,-174.2 557.62,-235.23 466.5,-257.25 402.86,-272.62 327.01,-266.96 277.66,-260.23"/>
<polygon fill="#63b8ff" stroke="#63b8ff" points="696.94,-147 703.09,-138.37 692.91,-141.28 696.94,-147"/>
</a>
</g>
</g>
<!-- Node4 -->
<g id="Node000004" class="node">
<title>Node4</title>
<g id="a_Node000004"><a xlink:href="../../d9/d4b/class_slic3r_1_1_preset_bundle.html#a5a6730b0bcdbb1af0db5e4c89b0d09a6" target="_top" xlink:title=" ">
<polygon fill="white" stroke="#666666" points="614.5,-168.5 509.25,-168.5 509.25,-138 614.5,-138 614.5,-168.5"/>
<text text-anchor="start" x="517.25" y="-155" font-family="Helvetica,sans-Serif" font-size="10.00">Slic3r::PresetBundle</text>
<text text-anchor="middle" x="561.88" y="-143.75" font-family="Helvetica,sans-Serif" font-size="10.00">::load_configbundle</text>
</a>
</g>
</g>
<!-- Node2&#45;&gt;Node4 -->
<g id="edge3_Node000002_Node000004" class="edge">
<title>Node2&#45;&gt;Node4</title>
<g id="a_edge3_Node000002_Node000004"><a xlink:title=" ">
<path fill="none" stroke="#63b8ff" d="M646.52,-139.76C635.89,-141.47 625.11,-143.21 614.98,-144.85"/>
<polygon fill="#63b8ff" stroke="#63b8ff" points="646.74,-143.11 656.06,-138.06 645.63,-136.2 646.74,-143.11"/>
</a>
</g>
</g>
<!-- Node17 -->
<g id="Node000017" class="node">
<title>Node17</title>
<g id="a_Node000017"><a xlink:href="../../d4/d88/struct_slic3r_1_1_g_u_i_1_1_plater_1_1priv.html#a1f93c566973d582f7b11df455a657f17" target="_top" xlink:title=" ">
<polygon fill="white" stroke="#666666" points="610,-70.5 513.75,-70.5 513.75,-40 610,-40 610,-70.5"/>
<text text-anchor="start" x="521.75" y="-57" font-family="Helvetica,sans-Serif" font-size="10.00">Slic3r::GUI::Plater</text>
<text text-anchor="middle" x="561.88" y="-45.75" font-family="Helvetica,sans-Serif" font-size="10.00">::priv::load_files</text>
</a>
</g>
</g>
<!-- Node2&#45;&gt;Node17 -->
<g id="edge18_Node000002_Node000017" class="edge">
<title>Node2&#45;&gt;Node17</title>
<g id="a_edge18_Node000002_Node000017"><a xlink:title=" ">
<path fill="none" stroke="#63b8ff" d="M688.81,-113.28C669.74,-103.58 644.17,-90.84 621.25,-80.25 614.54,-77.15 607.35,-73.96 600.38,-70.94"/>
<polygon fill="#63b8ff" stroke="#63b8ff" points="686.92,-116.75 697.41,-118.18 690.1,-110.52 686.92,-116.75"/>
</a>
</g>
</g>
<!-- Node18 -->
<g id="Node000018" class="node">
<title>Node18</title>
<g id="a_Node000018"><a xlink:href="../../d9/d24/class_slic3r_1_1_preset_collection.html#a750ace4489e4d9a0922817d500f4f238" target="_top" xlink:title=" ">
<polygon fill="white" stroke="#666666" points="621.25,-119.5 502.5,-119.5 502.5,-89 621.25,-89 621.25,-119.5"/>
<text text-anchor="start" x="510.5" y="-106" font-family="Helvetica,sans-Serif" font-size="10.00">Slic3r::PresetCollection</text>
<text text-anchor="middle" x="561.88" y="-94.75" font-family="Helvetica,sans-Serif" font-size="10.00">::load_presets</text>
</a>
</g>
</g>
<!-- Node2&#45;&gt;Node18 -->
<g id="edge19_Node000002_Node000018" class="edge">
<title>Node2&#45;&gt;Node18</title>
<g id="a_edge19_Node000002_Node000018"><a xlink:title=" ">
<path fill="none" stroke="#63b8ff" d="M646.32,-117.17C638.09,-115.9 629.77,-114.61 621.74,-113.36"/>
<polygon fill="#63b8ff" stroke="#63b8ff" points="645.64,-120.76 656.06,-118.83 646.71,-113.84 645.64,-120.76"/>
</a>
</g>
</g>
<!-- Node5 -->
<g id="Node000005" class="node">
<title>Node5</title>
<g id="a_Node000005"><a xlink:href="../../d9/d4b/class_slic3r_1_1_preset_bundle.html#a67857db523f75776eeeff5500c0badd1" target="_top" xlink:title=" ">
<polygon fill="white" stroke="#666666" points="453.38,-248.12 332.38,-248.12 332.38,-206.38 453.38,-206.38 453.38,-248.12"/>
<text text-anchor="start" x="340.38" y="-234.62" font-family="Helvetica,sans-Serif" font-size="10.00">Slic3r::PresetBundle</text>
<text text-anchor="start" x="340.38" y="-223.38" font-family="Helvetica,sans-Serif" font-size="10.00">::load_config_file_config</text>
<text text-anchor="middle" x="392.88" y="-212.12" font-family="Helvetica,sans-Serif" font-size="10.00">_bundle</text>
</a>
</g>
</g>
<!-- Node4&#45;&gt;Node5 -->
<g id="edge4_Node000004_Node000005" class="edge">
<title>Node4&#45;&gt;Node5</title>
<g id="a_edge4_Node000004_Node000005"><a xlink:title=" ">
<path fill="none" stroke="#63b8ff" d="M515.67,-173.28C492.84,-183.4 465.13,-195.68 441.91,-205.96"/>
<polygon fill="#63b8ff" stroke="#63b8ff" points="516.73,-176.19 524.46,-168.94 513.9,-169.79 516.73,-176.19"/>
</a>
</g>
</g>
<!-- Node6 -->
<g id="Node000006" class="node">
<title>Node6</title>
<g id="a_Node000006"><a xlink:href="../../d9/d4b/class_slic3r_1_1_preset_bundle.html#a47cb4ad9b3617a2ec71507fe07e6c488" target="_top" xlink:title=" ">
<polygon fill="white" stroke="#666666" points="450.38,-90.5 335.38,-90.5 335.38,-60 450.38,-60 450.38,-90.5"/>
<text text-anchor="start" x="343.38" y="-77" font-family="Helvetica,sans-Serif" font-size="10.00">Slic3r::PresetBundle</text>
<text text-anchor="middle" x="392.88" y="-65.75" font-family="Helvetica,sans-Serif" font-size="10.00">::load_system_presets</text>
</a>
</g>
</g>
<!-- Node4&#45;&gt;Node6 -->
<g id="edge6_Node000004_Node000006" class="edge">
<title>Node4&#45;&gt;Node6</title>
<g id="a_edge6_Node000004_Node000006"><a xlink:title=" ">
<path fill="none" stroke="#63b8ff" d="M512.02,-133.04C508.77,-131.48 505.57,-129.87 502.5,-128.25 485.72,-119.37 483.34,-114.02 466.5,-105.25 456.7,-100.15 445.83,-95.27 435.55,-90.99"/>
<polygon fill="#63b8ff" stroke="#63b8ff" points="510.29,-136.56 520.83,-137.58 513.23,-130.21 510.29,-136.56"/>
</a>
</g>
</g>
<!-- Node10 -->
<g id="Node000010" class="node">
<title>Node10</title>
<g id="a_Node000010"><a xlink:href="../../db/d7e/struct_slic3r_1_1_preset_updater_1_1priv.html#ae18f7e65fd6a305f1afcec993c6e2c90" target="_top" xlink:title=" ">
<polygon fill="white" stroke="#666666" points="123.25,-193.5 6.75,-193.5 6.75,-163 123.25,-163 123.25,-193.5"/>
<text text-anchor="start" x="14.75" y="-180" font-family="Helvetica,sans-Serif" font-size="10.00">Slic3r::PresetUpdater</text>
<text text-anchor="middle" x="65" y="-168.75" font-family="Helvetica,sans-Serif" font-size="10.00">::priv::perform_updates</text>
</a>
</g>
</g>
<!-- Node4&#45;&gt;Node10 -->
<g id="edge10_Node000004_Node000010" class="edge">
<title>Node4&#45;&gt;Node10</title>
<g id="a_edge10_Node000004_Node000010"><a xlink:title=" ">
<path fill="none" stroke="#63b8ff" d="M498.05,-156.42C401.2,-161.32 216.85,-170.63 123.39,-175.35"/>
<polygon fill="#63b8ff" stroke="#63b8ff" points="498.04,-159.88 507.85,-155.88 497.69,-152.89 498.04,-159.88"/>
</a>
</g>
</g>
<!-- Node11 -->
<g id="Node000011" class="node">
<title>Node11</title>
<g id="a_Node000011"><a xlink:href="../../dd/d58/class_slic3r_1_1_g_u_i_1_1_config_1_1_snapshot_d_b.html#a5b340d609a25091f6b3933b8af359531" target="_top" xlink:title=" ">
<polygon fill="white" stroke="#666666" points="466.5,-144.5 319.25,-144.5 319.25,-114 466.5,-114 466.5,-144.5"/>
<text text-anchor="start" x="327.25" y="-131" font-family="Helvetica,sans-Serif" font-size="10.00">Slic3r::GUI::Config</text>
<text text-anchor="middle" x="392.88" y="-119.75" font-family="Helvetica,sans-Serif" font-size="10.00">::SnapshotDB::take_snapshot</text>
</a>
</g>
</g>
<!-- Node4&#45;&gt;Node11 -->
<g id="edge11_Node000004_Node000011" class="edge">
<title>Node4&#45;&gt;Node11</title>
<g id="a_edge11_Node000004_Node000011"><a xlink:title=" ">
<path fill="none" stroke="#63b8ff" d="M498.11,-144.23C487.93,-142.77 477.32,-141.24 466.92,-139.75"/>
<polygon fill="#63b8ff" stroke="#63b8ff" points="497.55,-147.83 507.95,-145.79 498.55,-140.9 497.55,-147.83"/>
</a>
</g>
</g>
<!-- Node5&#45;&gt;Node3 -->
<g id="edge5_Node000005_Node000003" class="edge">
<title>Node5&#45;&gt;Node3</title>
<g id="a_edge5_Node000005_Node000003"><a xlink:title=" ">
<path fill="none" stroke="#63b8ff" d="M321.69,-237.38C306.91,-239.52 291.57,-241.73 277.6,-243.75"/>
<polygon fill="#63b8ff" stroke="#63b8ff" points="321.93,-240.74 331.32,-235.85 320.93,-233.81 321.93,-240.74"/>
</a>
</g>
</g>
<!-- Node7 -->
<g id="Node000007" class="node">
<title>Node7</title>
<g id="a_Node000007"><a xlink:href="../../d9/d4b/class_slic3r_1_1_preset_bundle.html#aac015e89e9acef105fe99b3f19b77f07" target="_top" xlink:title=" ">
<polygon fill="white" stroke="#666666" points="277.25,-30.5 172,-30.5 172,0 277.25,0 277.25,-30.5"/>
<text text-anchor="start" x="180" y="-17" font-family="Helvetica,sans-Serif" font-size="10.00">Slic3r::PresetBundle</text>
<text text-anchor="middle" x="224.62" y="-5.75" font-family="Helvetica,sans-Serif" font-size="10.00">::load_presets</text>
</a>
</g>
</g>
<!-- Node6&#45;&gt;Node7 -->
<g id="edge7_Node000006_Node000007" class="edge">
<title>Node6&#45;&gt;Node7</title>
<g id="a_edge7_Node000006_Node000007"><a xlink:title=" ">
<path fill="none" stroke="#63b8ff" d="M338.3,-55.91C315.97,-47.86 290.38,-38.62 269.23,-30.99"/>
<polygon fill="#63b8ff" stroke="#63b8ff" points="337.03,-59.54 347.63,-59.64 339.41,-52.96 337.03,-59.54"/>
</a>
</g>
</g>
<!-- Node8 -->
<g id="Node000008" class="node">
<title>Node8</title>
<g id="a_Node000008"><a xlink:href="../../d9/d01/class_slic3r_1_1_g_u_i_1_1_g_u_i___app.html#a101777eafebed6b0b629b4eb309f273e" target="_top" xlink:title=" ">
<polygon fill="white" stroke="#666666" points="120.62,-84.5 9.38,-84.5 9.38,-54 120.62,-54 120.62,-84.5"/>
<text text-anchor="start" x="17.38" y="-71" font-family="Helvetica,sans-Serif" font-size="10.00">Slic3r::GUI::GUI_App</text>
<text text-anchor="middle" x="65" y="-59.75" font-family="Helvetica,sans-Serif" font-size="10.00">::add_config_menu</text>
</a>
</g>
</g>
<!-- Node7&#45;&gt;Node8 -->
<g id="edge8_Node000007_Node000008" class="edge">
<title>Node7&#45;&gt;Node8</title>
<g id="a_edge8_Node000007_Node000008"><a xlink:title=" ">
<path fill="none" stroke="#63b8ff" d="M167.77,-34.39C149.43,-40.67 129.27,-47.58 111.76,-53.57"/>
<polygon fill="#63b8ff" stroke="#63b8ff" points="168.71,-37.42 177.03,-30.87 166.44,-30.8 168.71,-37.42"/>
</a>
</g>
</g>
<!-- Node9 -->
<g id="Node000009" class="node">
<title>Node9</title>
<g id="a_Node000009"><a xlink:href="../../db/dd1/struct_slic3r_1_1_g_u_i_1_1_config_wizard_1_1priv.html#aaa5530c34d0ac4d27920cd06063e7ebf" target="_top" xlink:title=" ">
<polygon fill="white" stroke="#666666" points="130,-30.5 0,-30.5 0,0 130,0 130,-30.5"/>
<text text-anchor="start" x="8" y="-17" font-family="Helvetica,sans-Serif" font-size="10.00">Slic3r::GUI::ConfigWizard</text>
<text text-anchor="middle" x="65" y="-5.75" font-family="Helvetica,sans-Serif" font-size="10.00">::priv::apply_config</text>
</a>
</g>
</g>
<!-- Node7&#45;&gt;Node9 -->
<g id="edge9_Node000007_Node000009" class="edge">
<title>Node7&#45;&gt;Node9</title>
<g id="a_edge9_Node000007_Node000009"><a xlink:title=" ">
<path fill="none" stroke="#63b8ff" d="M160.86,-15.25C150.83,-15.25 140.44,-15.25 130.37,-15.25"/>
<polygon fill="#63b8ff" stroke="#63b8ff" points="160.58,-18.75 170.58,-15.25 160.58,-11.75 160.58,-18.75"/>
</a>
</g>
</g>
<!-- Node12 -->
<g id="Node000012" class="node">
<title>Node12</title>
<g id="a_Node000012"><a xlink:href="../../d9/d53/namespace_slic3r_1_1_g_u_i_1_1_config.html#a8b015cca1c01df2d447de7dca71fd3ab" target="_top" xlink:title=" ">
<polygon fill="white" stroke="#666666" points="283.25,-150.12 166,-150.12 166,-108.38 283.25,-108.38 283.25,-150.12"/>
<text text-anchor="start" x="174" y="-136.62" font-family="Helvetica,sans-Serif" font-size="10.00">Slic3r::GUI::Config</text>
<text text-anchor="start" x="174" y="-125.38" font-family="Helvetica,sans-Serif" font-size="10.00">::take_config_snapshot</text>
<text text-anchor="middle" x="224.62" y="-114.12" font-family="Helvetica,sans-Serif" font-size="10.00">_cancel_on_error</text>
</a>
</g>
</g>
<!-- Node11&#45;&gt;Node12 -->
<g id="edge12_Node000011_Node000012" class="edge">
<title>Node11&#45;&gt;Node12</title>
<g id="a_edge12_Node000011_Node000012"><a xlink:title=" ">
<path fill="none" stroke="#63b8ff" d="M308.06,-129.25C299.75,-129.25 291.46,-129.25 283.5,-129.25"/>
<polygon fill="#63b8ff" stroke="#63b8ff" points="307.96,-132.75 317.96,-129.25 307.96,-125.75 307.96,-132.75"/>
</a>
</g>
</g>
<!-- Node16 -->
<g id="Node000016" class="node">
<title>Node16</title>
<g id="a_Node000016"><a xlink:href="../../d9/d53/namespace_slic3r_1_1_g_u_i_1_1_config.html#ab47ee9f35c4bf22b3fbaa83110d22f28" target="_top" xlink:title=" ">
<polygon fill="white" stroke="#666666" points="283.25,-90.12 166,-90.12 166,-48.38 283.25,-48.38 283.25,-90.12"/>
<text text-anchor="start" x="174" y="-76.62" font-family="Helvetica,sans-Serif" font-size="10.00">Slic3r::GUI::Config</text>
<text text-anchor="start" x="174" y="-65.38" font-family="Helvetica,sans-Serif" font-size="10.00">::take_config_snapshot</text>
<text text-anchor="middle" x="224.62" y="-54.12" font-family="Helvetica,sans-Serif" font-size="10.00">_report_error</text>
</a>
</g>
</g>
<!-- Node11&#45;&gt;Node16 -->
<g id="edge16_Node000011_Node000016" class="edge">
<title>Node11&#45;&gt;Node16</title>
<g id="a_edge16_Node000011_Node000016"><a xlink:title=" ">
<path fill="none" stroke="#63b8ff" d="M338.58,-110.02C321.07,-103.7 301.52,-96.64 283.68,-90.2"/>
<polygon fill="#63b8ff" stroke="#63b8ff" points="337.03,-113.54 347.63,-113.64 339.41,-106.96 337.03,-113.54"/>
</a>
</g>
</g>
<!-- Node12&#45;&gt;Node8 -->
<g id="edge13_Node000012_Node000008" class="edge">
<title>Node12&#45;&gt;Node8</title>
<g id="a_edge13_Node000012_Node000008"><a xlink:title=" ">
<path fill="none" stroke="#63b8ff" d="M157.62,-104.12C140.44,-97.59 122.43,-90.73 106.97,-84.85"/>
<polygon fill="#63b8ff" stroke="#63b8ff" points="156.02,-107.64 166.61,-107.93 158.51,-101.1 156.02,-107.64"/>
</a>
</g>
</g>
<!-- Node12&#45;&gt;Node10 -->
<g id="edge15_Node000012_Node000010" class="edge">
<title>Node12&#45;&gt;Node10</title>
<g id="a_edge15_Node000012_Node000010"><a xlink:title=" ">
<path fill="none" stroke="#63b8ff" d="M155.45,-150.44C142.38,-154.51 128.91,-158.69 116.51,-162.55"/>
<polygon fill="#63b8ff" stroke="#63b8ff" points="156.32,-153.53 164.83,-147.22 154.24,-146.84 156.32,-153.53"/>
</a>
</g>
</g>
<!-- Node13 -->
<g id="Node000013" class="node">
<title>Node13</title>
<g id="a_Node000013"><a xlink:href="../../d9/d01/class_slic3r_1_1_g_u_i_1_1_g_u_i___app.html#a7ccaab68e9ec4821cb3e1a85e0d61fb3" target="_top" xlink:title=" ">
<polygon fill="#fff0f0" stroke="red" points="128.5,-144.5 1.5,-144.5 1.5,-114 128.5,-114 128.5,-144.5"/>
<text text-anchor="start" x="9.5" y="-131" font-family="Helvetica,sans-Serif" font-size="10.00">Slic3r::GUI::GUI_App</text>
<text text-anchor="middle" x="65" y="-119.75" font-family="Helvetica,sans-Serif" font-size="10.00">::check_older_app_config</text>
</a>
</g>
</g>
<!-- Node12&#45;&gt;Node13 -->
<g id="edge14_Node000012_Node000013" class="edge">
<title>Node12&#45;&gt;Node13</title>
<g id="a_edge14_Node000012_Node000013"><a xlink:title=" ">
<path fill="none" stroke="#63b8ff" d="M154.95,-129.25C146.27,-129.25 137.42,-129.25 128.84,-129.25"/>
<polygon fill="#63b8ff" stroke="#63b8ff" points="154.83,-132.75 164.83,-129.25 154.83,-125.75 154.83,-132.75"/>
</a>
</g>
</g>
<!-- Node16&#45;&gt;Node8 -->
<g id="edge17_Node000016_Node000008" class="edge">
<title>Node16&#45;&gt;Node8</title>
<g id="a_edge17_Node000016_Node000008"><a xlink:title=" ">
<path fill="none" stroke="#63b8ff" d="M155.01,-69.25C143.61,-69.25 131.91,-69.25 120.91,-69.25"/>
<polygon fill="#63b8ff" stroke="#63b8ff" points="154.83,-72.75 164.83,-69.25 154.83,-65.75 154.83,-72.75"/>
</a>
</g>
</g>
<!-- Node18&#45;&gt;Node7 -->
<g id="edge20_Node000018_Node000007" class="edge">
<title>Node18&#45;&gt;Node7</title>
<g id="a_edge20_Node000018_Node000007"><a xlink:title=" ">
<path fill="none" stroke="#63b8ff" d="M510.81,-83.83C507.96,-82.36 505.17,-80.83 502.5,-79.25 485.04,-68.95 485.13,-59.23 466.5,-51.25 405.09,-24.95 327.73,-17.4 277.5,-15.47"/>
<polygon fill="#63b8ff" stroke="#63b8ff" points="509.12,-87.39 519.64,-88.64 512.19,-81.1 509.12,-87.39"/>
</a>
</g>
</g>
</g>
</svg>
