<?xml version="1.0" encoding="UTF-8" standalone="no"?>
<!DOCTYPE svg PUBLIC "-//W3C//DTD SVG 1.1//EN"
 "http://www.w3.org/Graphics/SVG/1.1/DTD/svg11.dtd">
<!-- Generated by graphviz version 8.0.5 (20230430.1635)
 -->
<!-- Title: src/libigl/igl/copyleft/tetgen/tetrahedralize.cpp Pages: 1 -->
<svg width="286pt" height="238pt"
 viewBox="0.00 0.00 285.62 238.00" xmlns="http://www.w3.org/2000/svg" xmlns:xlink="http://www.w3.org/1999/xlink">
<g id="graph0" class="graph" transform="scale(1 1) rotate(0) translate(4 234)">
<title>src/libigl/igl/copyleft/tetgen/tetrahedralize.cpp</title>
<!-- Node1 -->
<g id="Node000001" class="node">
<title>Node1</title>
<g id="a_Node000001"><a xlink:title=" ">
<polygon fill="#999999" stroke="#666666" points="188.25,-230 62,-230 62,-199.5 188.25,-199.5 188.25,-230"/>
<text text-anchor="start" x="70" y="-216.5" font-family="Helvetica,sans-Serif" font-size="10.00">src/libigl/igl/copyleft</text>
<text text-anchor="middle" x="125.12" y="-205.25" font-family="Helvetica,sans-Serif" font-size="10.00">/tetgen/tetrahedralize.cpp</text>
</a>
</g>
</g>
<!-- Node2 -->
<g id="Node000002" class="node">
<title>Node2</title>
<g id="a_Node000002"><a xlink:href="../../de/dc8/tetrahedralize_8h.html" target="_top" xlink:title=" ">
<polygon fill="white" stroke="#666666" points="183,-163.5 67.25,-163.5 67.25,-133 183,-133 183,-163.5"/>
<text text-anchor="start" x="75.25" y="-150" font-family="Helvetica,sans-Serif" font-size="10.00">src/libigl/igl/copyleft</text>
<text text-anchor="middle" x="125.12" y="-138.75" font-family="Helvetica,sans-Serif" font-size="10.00">/tetgen/tetrahedralize.h</text>
</a>
</g>
</g>
<!-- Node1&#45;&gt;Node2 -->
<g id="edge1_Node000001_Node000002" class="edge">
<title>Node1&#45;&gt;Node2</title>
<g id="a_edge1_Node000001_Node000002"><a xlink:title=" ">
<path fill="none" stroke="#63b8ff" d="M118.51,-188.38C118.17,-180.05 118.46,-171.08 119.37,-163.83"/>
<polygon fill="#63b8ff" stroke="#63b8ff" points="115.09,-188.42 119.36,-198.11 122.06,-187.87 115.09,-188.42"/>
</a>
</g>
</g>
<!-- Node2&#45;&gt;Node1 -->
<g id="edge8_Node000002_Node000001" class="edge">
<title>Node2&#45;&gt;Node1</title>
<g id="a_edge8_Node000002_Node000001"><a xlink:title=" ">
<path fill="none" stroke="#63b8ff" d="M131.73,-174.56C132.08,-182.88 131.79,-191.86 130.89,-199.11"/>
<polygon fill="#63b8ff" stroke="#63b8ff" points="135.16,-174.52 130.88,-164.83 128.18,-175.07 135.16,-174.52"/>
</a>
</g>
</g>
<!-- Node3 -->
<g id="Node000003" class="node">
<title>Node3</title>
<g id="a_Node000003"><a xlink:href="../../dd/d44/copyleft_2tetgen_2cdt_8cpp.html" target="_top" xlink:title=" ">
<polygon fill="white" stroke="#666666" points="102.25,-97 0,-97 0,-66.5 102.25,-66.5 102.25,-97"/>
<text text-anchor="start" x="8" y="-83.5" font-family="Helvetica,sans-Serif" font-size="10.00">src/libigl/igl/copyleft</text>
<text text-anchor="middle" x="51.12" y="-72.25" font-family="Helvetica,sans-Serif" font-size="10.00">/tetgen/cdt.cpp</text>
</a>
</g>
</g>
<!-- Node2&#45;&gt;Node3 -->
<g id="edge2_Node000002_Node000003" class="edge">
<title>Node2&#45;&gt;Node3</title>
<g id="a_edge2_Node000002_Node000003"><a xlink:title=" ">
<path fill="none" stroke="#63b8ff" d="M100.19,-125.52C89.54,-116.23 77.39,-105.65 67.85,-97.33"/>
<polygon fill="#63b8ff" stroke="#63b8ff" points="97.5,-128.68 107.33,-132.61 102.09,-123.4 97.5,-128.68"/>
</a>
</g>
</g>
<!-- Node5 -->
<g id="Node000005" class="node">
<title>Node5</title>
<g id="a_Node000005"><a xlink:href="../../de/dcb/mesh__with__skeleton_8cpp.html" target="_top" xlink:title=" ">
<polygon fill="white" stroke="#666666" points="277.62,-97 120.62,-97 120.62,-66.5 277.62,-66.5 277.62,-97"/>
<text text-anchor="start" x="128.62" y="-83.5" font-family="Helvetica,sans-Serif" font-size="10.00">src/libigl/igl/copyleft</text>
<text text-anchor="middle" x="199.12" y="-72.25" font-family="Helvetica,sans-Serif" font-size="10.00">/tetgen/mesh_with_skeleton.cpp</text>
</a>
</g>
</g>
<!-- Node2&#45;&gt;Node5 -->
<g id="edge5_Node000002_Node000005" class="edge">
<title>Node2&#45;&gt;Node5</title>
<g id="a_edge5_Node000002_Node000005"><a xlink:title=" ">
<path fill="none" stroke="#63b8ff" d="M150.06,-125.52C160.71,-116.23 172.86,-105.65 182.4,-97.33"/>
<polygon fill="#63b8ff" stroke="#63b8ff" points="148.16,-123.4 142.92,-132.61 152.75,-128.68 148.16,-123.4"/>
</a>
</g>
</g>
<!-- Node4 -->
<g id="Node000004" class="node">
<title>Node4</title>
<g id="a_Node000004"><a xlink:href="../../d6/dba/copyleft_2tetgen_2cdt_8h.html" target="_top" xlink:title=" ">
<polygon fill="white" stroke="#666666" points="102.25,-30.5 0,-30.5 0,0 102.25,0 102.25,-30.5"/>
<text text-anchor="start" x="8" y="-17" font-family="Helvetica,sans-Serif" font-size="10.00">src/libigl/igl/copyleft</text>
<text text-anchor="middle" x="51.12" y="-5.75" font-family="Helvetica,sans-Serif" font-size="10.00">/tetgen/cdt.h</text>
</a>
</g>
</g>
<!-- Node3&#45;&gt;Node4 -->
<g id="edge3_Node000003_Node000004" class="edge">
<title>Node3&#45;&gt;Node4</title>
<g id="a_edge3_Node000003_Node000004"><a xlink:title=" ">
<path fill="none" stroke="#63b8ff" d="M44.51,-55.38C44.17,-47.05 44.46,-38.08 45.37,-30.83"/>
<polygon fill="#63b8ff" stroke="#63b8ff" points="41.09,-55.42 45.36,-65.11 48.06,-54.87 41.09,-55.42"/>
</a>
</g>
</g>
<!-- Node4&#45;&gt;Node3 -->
<g id="edge4_Node000004_Node000003" class="edge">
<title>Node4&#45;&gt;Node3</title>
<g id="a_edge4_Node000004_Node000003"><a xlink:title=" ">
<path fill="none" stroke="#63b8ff" d="M57.73,-41.56C58.08,-49.88 57.79,-58.86 56.89,-66.11"/>
<polygon fill="#63b8ff" stroke="#63b8ff" points="61.16,-41.52 56.88,-31.83 54.18,-42.07 61.16,-41.52"/>
</a>
</g>
</g>
<!-- Node6 -->
<g id="Node000006" class="node">
<title>Node6</title>
<g id="a_Node000006"><a xlink:href="../../de/d71/mesh__with__skeleton_8h.html" target="_top" xlink:title=" ">
<polygon fill="white" stroke="#666666" points="272.38,-30.5 125.88,-30.5 125.88,0 272.38,0 272.38,-30.5"/>
<text text-anchor="start" x="133.88" y="-17" font-family="Helvetica,sans-Serif" font-size="10.00">src/libigl/igl/copyleft</text>
<text text-anchor="middle" x="199.12" y="-5.75" font-family="Helvetica,sans-Serif" font-size="10.00">/tetgen/mesh_with_skeleton.h</text>
</a>
</g>
</g>
<!-- Node5&#45;&gt;Node6 -->
<g id="edge6_Node000005_Node000006" class="edge">
<title>Node5&#45;&gt;Node6</title>
<g id="a_edge6_Node000005_Node000006"><a xlink:title=" ">
<path fill="none" stroke="#63b8ff" d="M192.51,-55.38C192.17,-47.05 192.46,-38.08 193.37,-30.83"/>
<polygon fill="#63b8ff" stroke="#63b8ff" points="189.09,-55.42 193.36,-65.11 196.06,-54.87 189.09,-55.42"/>
</a>
</g>
</g>
<!-- Node6&#45;&gt;Node5 -->
<g id="edge7_Node000006_Node000005" class="edge">
<title>Node6&#45;&gt;Node5</title>
<g id="a_edge7_Node000006_Node000005"><a xlink:title=" ">
<path fill="none" stroke="#63b8ff" d="M205.73,-41.56C206.08,-49.88 205.79,-58.86 204.89,-66.11"/>
<polygon fill="#63b8ff" stroke="#63b8ff" points="209.16,-41.52 204.88,-31.83 202.18,-42.07 209.16,-41.52"/>
</a>
</g>
</g>
</g>
</svg>
