<?xml version="1.0" encoding="UTF-8" standalone="no"?>
<!DOCTYPE svg PUBLIC "-//W3C//DTD SVG 1.1//EN"
 "http://www.w3.org/Graphics/SVG/1.1/DTD/svg11.dtd">
<!-- Generated by graphviz version 8.0.5 (20230430.1635)
 -->
<!-- Title: Slic3r::sla::SupportPointGenerator::PointGrid3D::cell_id Pages: 1 -->
<svg width="457pt" height="188pt"
 viewBox="0.00 0.00 457.25 187.75" xmlns="http://www.w3.org/2000/svg" xmlns:xlink="http://www.w3.org/1999/xlink">

<svg id="main" version="1.1" xmlns="http://www.w3.org/2000/svg" xmlns:xlink="http://www.w3.org/1999/xlink" xml:space="preserve" onload="init(evt)">
<style type="text/css"><![CDATA[
.node, .edge {opacity: 0.7;}
.node.selected, .edge.selected {opacity: 1;}
.edge:hover path { stroke: red; }
.edge:hover polygon { stroke: red; fill: red; }
]]></style>
<script type="application/ecmascript" xlink:href="../../svg.min.js"/>
<svg id="graph" class="graph">
<g id="graph0" class="graph" transform="scale(1 1) rotate(0) translate(4 183.75)">
<title>Slic3r::sla::SupportPointGenerator::PointGrid3D::cell_id</title>
<!-- Node1 -->
<g id="Node000001" class="node">
<title>Node1</title>
<g id="a_Node000001"><a xlink:title=" ">
<polygon fill="#999999" stroke="#666666" points="449.25,-101.75 327.5,-101.75 327.5,-60 449.25,-60 449.25,-101.75"/>
<text text-anchor="start" x="335.5" y="-88.25" font-family="Helvetica,sans-Serif" font-size="10.00">Slic3r::sla::SupportPoint</text>
<text text-anchor="start" x="335.5" y="-77" font-family="Helvetica,sans-Serif" font-size="10.00">Generator::PointGrid3D</text>
<text text-anchor="middle" x="388.38" y="-65.75" font-family="Helvetica,sans-Serif" font-size="10.00">::cell_id</text>
</a>
</g>
</g>
<!-- Node2 -->
<g id="Node000002" class="node">
<title>Node2</title>
<g id="a_Node000002"><a xlink:href="../../dc/d51/struct_slic3r_1_1sla_1_1_support_point_generator_1_1_point_grid3_d.html#a9e4cd2f8c01c00c4c7f3f9095d86efe8" target="_top" xlink:title=" ">
<polygon fill="white" stroke="#666666" points="291.5,-161.75 169.75,-161.75 169.75,-120 291.5,-120 291.5,-161.75"/>
<text text-anchor="start" x="177.75" y="-148.25" font-family="Helvetica,sans-Serif" font-size="10.00">Slic3r::sla::SupportPoint</text>
<text text-anchor="start" x="177.75" y="-137" font-family="Helvetica,sans-Serif" font-size="10.00">Generator::PointGrid3D</text>
<text text-anchor="middle" x="230.62" y="-125.75" font-family="Helvetica,sans-Serif" font-size="10.00">::collides_with</text>
</a>
</g>
</g>
<!-- Node1&#45;&gt;Node2 -->
<g id="edge1_Node000001_Node000002" class="edge">
<title>Node1&#45;&gt;Node2</title>
<g id="a_edge1_Node000001_Node000002"><a xlink:title=" ">
<path fill="none" stroke="#63b8ff" d="M321.95,-106.08C310.34,-110.55 298.36,-115.17 287.06,-119.52"/>
<polygon fill="#63b8ff" stroke="#63b8ff" points="322.95,-109.06 331.02,-102.2 320.44,-102.53 322.95,-109.06"/>
</a>
</g>
</g>
<!-- Node4 -->
<g id="Node000004" class="node">
<title>Node4</title>
<g id="a_Node000004"><a xlink:href="../../dc/d51/struct_slic3r_1_1sla_1_1_support_point_generator_1_1_point_grid3_d.html#ae47022cfd980225dc7dc08817673f465" target="_top" xlink:title=" ">
<polygon fill="white" stroke="#666666" points="291.5,-101.75 169.75,-101.75 169.75,-60 291.5,-60 291.5,-101.75"/>
<text text-anchor="start" x="177.75" y="-88.25" font-family="Helvetica,sans-Serif" font-size="10.00">Slic3r::sla::SupportPoint</text>
<text text-anchor="start" x="177.75" y="-77" font-family="Helvetica,sans-Serif" font-size="10.00">Generator::PointGrid3D</text>
<text text-anchor="middle" x="230.62" y="-65.75" font-family="Helvetica,sans-Serif" font-size="10.00">::insert</text>
</a>
</g>
</g>
<!-- Node1&#45;&gt;Node4 -->
<g id="edge4_Node000001_Node000004" class="edge">
<title>Node1&#45;&gt;Node4</title>
<g id="a_edge4_Node000001_Node000004"><a xlink:title=" ">
<path fill="none" stroke="#63b8ff" d="M316.2,-80.88C308.09,-80.88 299.89,-80.88 291.94,-80.88"/>
<polygon fill="#63b8ff" stroke="#63b8ff" points="316.16,-84.38 326.16,-80.88 316.16,-77.38 316.16,-84.38"/>
</a>
</g>
</g>
<!-- Node5 -->
<g id="Node000005" class="node">
<title>Node5</title>
<g id="a_Node000005"><a xlink:href="../../da/d35/struct_slic3r_1_1sla_1_1_support_point_generator_1_1_point_grid3_d_1_1_grid_hash.html#a0ebb7dcf703cc83088a0bb2d978f0580" target="_top" xlink:title=" ">
<polygon fill="white" stroke="#666666" points="291.5,-41.75 169.75,-41.75 169.75,0 291.5,0 291.5,-41.75"/>
<text text-anchor="start" x="177.75" y="-28.25" font-family="Helvetica,sans-Serif" font-size="10.00">Slic3r::sla::SupportPoint</text>
<text text-anchor="start" x="177.75" y="-17" font-family="Helvetica,sans-Serif" font-size="10.00">Generator::PointGrid3D</text>
<text text-anchor="middle" x="230.62" y="-5.75" font-family="Helvetica,sans-Serif" font-size="10.00">::GridHash::operator()</text>
</a>
</g>
</g>
<!-- Node1&#45;&gt;Node5 -->
<g id="edge6_Node000001_Node000005" class="edge">
<title>Node1&#45;&gt;Node5</title>
<g id="a_edge6_Node000001_Node000005"><a xlink:title=" ">
<path fill="none" stroke="#63b8ff" d="M321.95,-55.67C310.34,-51.2 298.36,-46.58 287.06,-42.23"/>
<polygon fill="#63b8ff" stroke="#63b8ff" points="320.44,-59.22 331.02,-59.55 322.95,-52.69 320.44,-59.22"/>
</a>
</g>
</g>
<!-- Node2&#45;&gt;Node2 -->
<g id="edge2_Node000002_Node000002" class="edge">
<title>Node2&#45;&gt;Node2</title>
<g id="a_edge2_Node000002_Node000002"><a xlink:title=" ">
<path fill="none" stroke="#63b8ff" d="M256.94,-172.53C252.57,-176.86 243.8,-179.75 230.62,-179.75 208.44,-179.75 198.74,-171.55 201.51,-162.07"/>
<polygon fill="#63b8ff" stroke="#63b8ff" points="260.54,-173.63 259.74,-163.07 253.77,-171.82 260.54,-173.63"/>
</a>
</g>
</g>
<!-- Node3 -->
<g id="Node000003" class="node">
<title>Node3</title>
<g id="a_Node000003"><a xlink:href="../../d7/dc2/class_slic3r_1_1sla_1_1_support_point_generator.html#a089639c2369d013c09362529bf6aa125" target="_top" xlink:title=" ">
<polygon fill="white" stroke="#666666" points="133.75,-126.12 0,-126.12 0,-95.62 133.75,-95.62 133.75,-126.12"/>
<text text-anchor="start" x="8" y="-112.62" font-family="Helvetica,sans-Serif" font-size="10.00">Slic3r::sla::SupportPoint</text>
<text text-anchor="middle" x="66.88" y="-101.38" font-family="Helvetica,sans-Serif" font-size="10.00">Generator::uniformly_cover</text>
</a>
</g>
</g>
<!-- Node2&#45;&gt;Node3 -->
<g id="edge3_Node000002_Node000003" class="edge">
<title>Node2&#45;&gt;Node3</title>
<g id="a_edge3_Node000002_Node000003"><a xlink:title=" ">
<path fill="none" stroke="#63b8ff" d="M158.75,-127.73C150.57,-126.21 142.25,-124.67 134.13,-123.16"/>
<polygon fill="#63b8ff" stroke="#63b8ff" points="157.92,-131.32 168.4,-129.7 159.2,-124.44 157.92,-131.32"/>
</a>
</g>
</g>
<!-- Node4&#45;&gt;Node3 -->
<g id="edge5_Node000004_Node000003" class="edge">
<title>Node4&#45;&gt;Node3</title>
<g id="a_edge5_Node000004_Node000003"><a xlink:title=" ">
<path fill="none" stroke="#63b8ff" d="M158.75,-94.02C150.57,-95.54 142.25,-97.08 134.13,-98.59"/>
<polygon fill="#63b8ff" stroke="#63b8ff" points="159.2,-97.31 168.4,-92.05 157.92,-90.43 159.2,-97.31"/>
</a>
</g>
</g>
</g>
</svg>
</svg>

<style type='text/css'>
<![CDATA[
[data-mouse-over-selected='false'] { opacity: 0.7; }
[data-mouse-over-selected='true']  { opacity: 1.0; }
]]>
</style>
<script type="application/ecmascript"><![CDATA[
document.addEventListener('DOMContentLoaded', (event) => {
  highlightEdges();
  highlightAdjacentNodes();
});
]]></script>
</svg>
