<?xml version="1.0" encoding="UTF-8" standalone="no"?>
<!DOCTYPE svg PUBLIC "-//W3C//DTD SVG 1.1//EN"
 "http://www.w3.org/Graphics/SVG/1.1/DTD/svg11.dtd">
<!-- Generated by graphviz version 8.0.5 (20230430.1635)
 -->
<!-- Title: src/libigl/igl/partition.cpp Pages: 1 -->
<svg width="250pt" height="138pt"
 viewBox="0.00 0.00 250.25 137.75" xmlns="http://www.w3.org/2000/svg" xmlns:xlink="http://www.w3.org/1999/xlink">

<svg id="main" version="1.1" xmlns="http://www.w3.org/2000/svg" xmlns:xlink="http://www.w3.org/1999/xlink" xml:space="preserve" onload="init(evt)">
<style type="text/css"><![CDATA[
.node, .edge {opacity: 0.7;}
.node.selected, .edge.selected {opacity: 1;}
.edge:hover path { stroke: red; }
.edge:hover polygon { stroke: red; fill: red; }
]]></style>
<script type="application/ecmascript" xlink:href="../../svg.min.js"/>
<svg id="graph" class="graph">
<g id="graph0" class="graph" transform="scale(1 1) rotate(0) translate(4 133.75)">
<title>src/libigl/igl/partition.cpp</title>
<!-- Node1 -->
<g id="Node000001" class="node">
<title>Node1</title>
<g id="a_Node000001"><a xlink:title=" ">
<polygon fill="#999999" stroke="#666666" points="142.62,-129.75 21.62,-129.75 21.62,-110.5 142.62,-110.5 142.62,-129.75"/>
<text text-anchor="middle" x="82.12" y="-116.25" font-family="Helvetica,sans-Serif" font-size="10.00">src/libigl/igl/partition.cpp</text>
</a>
</g>
</g>
<!-- Node2 -->
<g id="Node000002" class="node">
<title>Node2</title>
<g id="a_Node000002"><a xlink:href="../../dd/d37/partition_8h.html" target="_top" xlink:title=" ">
<polygon fill="white" stroke="#666666" points="111.5,-74.5 52.75,-74.5 52.75,-55.25 111.5,-55.25 111.5,-74.5"/>
<text text-anchor="middle" x="82.12" y="-61" font-family="Helvetica,sans-Serif" font-size="10.00">partition.h</text>
</a>
</g>
</g>
<!-- Node1&#45;&gt;Node2 -->
<g id="edge1_Node000001_Node000002" class="edge">
<title>Node1&#45;&gt;Node2</title>
<g id="a_edge1_Node000001_Node000002"><a xlink:title=" ">
<path fill="none" stroke="#63b8ff" d="M76.96,-110.33C75.52,-103.59 75.06,-94.02 75.59,-85.49"/>
<polygon fill="#63b8ff" stroke="#63b8ff" points="79.15,-86.22 76.92,-75.86 72.2,-85.35 79.15,-86.22"/>
</a>
</g>
</g>
<!-- Node5 -->
<g id="Node000005" class="node">
<title>Node5</title>
<g id="a_Node000005"><a xlink:href="../../d8/daf/mat__min_8h.html" target="_top" xlink:title=" ">
<polygon fill="white" stroke="#666666" points="191,-74.5 129.25,-74.5 129.25,-55.25 191,-55.25 191,-74.5"/>
<text text-anchor="middle" x="160.12" y="-61" font-family="Helvetica,sans-Serif" font-size="10.00">mat_min.h</text>
</a>
</g>
</g>
<!-- Node1&#45;&gt;Node5 -->
<g id="edge5_Node000001_Node000005" class="edge">
<title>Node1&#45;&gt;Node5</title>
<g id="a_edge5_Node000001_Node000005"><a xlink:title=" ">
<path fill="none" stroke="#63b8ff" d="M95.36,-110.09C107.01,-102.14 124.22,-90.39 137.97,-81"/>
<polygon fill="#63b8ff" stroke="#63b8ff" points="139.54,-83.48 145.83,-74.95 135.6,-77.7 139.54,-83.48"/>
</a>
</g>
</g>
<!-- Node2&#45;&gt;Node1 -->
<g id="edge4_Node000002_Node000001" class="edge">
<title>Node2&#45;&gt;Node1</title>
<g id="a_edge4_Node000002_Node000001"><a xlink:title=" ">
<path fill="none" stroke="#63b8ff" d="M87.33,-74.86C88.74,-81.58 89.18,-91.02 88.67,-99.46"/>
<polygon fill="#63b8ff" stroke="#63b8ff" points="85.07,-98.97 87.29,-109.33 92.02,-99.85 85.07,-98.97"/>
</a>
</g>
</g>
<!-- Node3 -->
<g id="Node000003" class="node">
<title>Node3</title>
<g id="a_Node000003"><a xlink:href="../../d6/d68/igl__inline_8h.html" target="_top" xlink:title=" ">
<polygon fill="white" stroke="#666666" points="152,-19.25 90.25,-19.25 90.25,0 152,0 152,-19.25"/>
<text text-anchor="middle" x="121.12" y="-5.75" font-family="Helvetica,sans-Serif" font-size="10.00">igl_inline.h</text>
</a>
</g>
</g>
<!-- Node2&#45;&gt;Node3 -->
<g id="edge2_Node000002_Node000003" class="edge">
<title>Node2&#45;&gt;Node3</title>
<g id="a_edge2_Node000002_Node000003"><a xlink:title=" ">
<path fill="none" stroke="#63b8ff" d="M88.57,-55.08C93.9,-47.8 101.64,-37.23 108.23,-28.23"/>
<polygon fill="#63b8ff" stroke="#63b8ff" points="111.46,-30.74 114.55,-20.61 105.81,-26.61 111.46,-30.74"/>
</a>
</g>
</g>
<!-- Node4 -->
<g id="Node000004" class="node">
<title>Node4</title>
<g id="a_Node000004"><a xlink:title=" ">
<polygon fill="#e0e0e0" stroke="#999999" points="72.25,-19.25 0,-19.25 0,0 72.25,0 72.25,-19.25"/>
<text text-anchor="middle" x="36.12" y="-5.75" font-family="Helvetica,sans-Serif" font-size="10.00">Eigen/Dense</text>
</a>
</g>
</g>
<!-- Node2&#45;&gt;Node4 -->
<g id="edge3_Node000002_Node000004" class="edge">
<title>Node2&#45;&gt;Node4</title>
<g id="a_edge3_Node000002_Node000004"><a xlink:title=" ">
<path fill="none" stroke="#63b8ff" d="M74.53,-55.08C68.11,-47.65 58.72,-36.79 50.84,-27.66"/>
<polygon fill="#63b8ff" stroke="#63b8ff" points="53.07,-25.89 43.89,-20.61 47.77,-30.46 53.07,-25.89"/>
</a>
</g>
</g>
<!-- Node5&#45;&gt;Node3 -->
<g id="edge6_Node000005_Node000003" class="edge">
<title>Node5&#45;&gt;Node3</title>
<g id="a_edge6_Node000005_Node000003"><a xlink:title=" ">
<path fill="none" stroke="#63b8ff" d="M153.68,-55.08C148.35,-47.8 140.61,-37.23 134.02,-28.23"/>
<polygon fill="#63b8ff" stroke="#63b8ff" points="136.44,-26.61 127.7,-20.61 130.79,-30.74 136.44,-26.61"/>
</a>
</g>
</g>
<!-- Node5&#45;&gt;Node4 -->
<g id="edge7_Node000005_Node000004" class="edge">
<title>Node5&#45;&gt;Node4</title>
<g id="a_edge7_Node000005_Node000004"><a xlink:title=" ">
<path fill="none" stroke="#63b8ff" d="M139.09,-54.84C119.41,-46.39 89.75,-33.65 67.31,-24.02"/>
<polygon fill="#63b8ff" stroke="#63b8ff" points="68.83,-20.43 58.26,-19.7 66.07,-26.86 68.83,-20.43"/>
</a>
</g>
</g>
<!-- Node6 -->
<g id="Node000006" class="node">
<title>Node6</title>
<g id="a_Node000006"><a xlink:href="../../d4/dce/mat__min_8cpp.html" target="_top" xlink:title=" ">
<polygon fill="white" stroke="#666666" points="242.25,-19.25 170,-19.25 170,0 242.25,0 242.25,-19.25"/>
<text text-anchor="middle" x="206.12" y="-5.75" font-family="Helvetica,sans-Serif" font-size="10.00">mat_min.cpp</text>
</a>
</g>
</g>
<!-- Node5&#45;&gt;Node6 -->
<g id="edge8_Node000005_Node000006" class="edge">
<title>Node5&#45;&gt;Node6</title>
<g id="a_edge8_Node000005_Node000006"><a xlink:title=" ">
<path fill="none" stroke="#63b8ff" d="M162.55,-55.08C167.48,-47.5 176.75,-36.34 185.6,-27.1"/>
<polygon fill="#63b8ff" stroke="#63b8ff" points="187.52,-30.13 192.16,-20.61 182.59,-25.16 187.52,-30.13"/>
</a>
</g>
</g>
<!-- Node6&#45;&gt;Node5 -->
<g id="edge9_Node000006_Node000005" class="edge">
<title>Node6&#45;&gt;Node5</title>
<g id="a_edge9_Node000006_Node000005"><a xlink:title=" ">
<path fill="none" stroke="#63b8ff" d="M203.63,-19.52C198.73,-27.03 189.66,-37.97 180.93,-47.11"/>
<polygon fill="#63b8ff" stroke="#63b8ff" points="178.77,-44.31 174.15,-53.84 183.71,-49.28 178.77,-44.31"/>
</a>
</g>
</g>
</g>
</svg>
</svg>

<style type='text/css'>
<![CDATA[
[data-mouse-over-selected='false'] { opacity: 0.7; }
[data-mouse-over-selected='true']  { opacity: 1.0; }
]]>
</style>
<script type="application/ecmascript"><![CDATA[
document.addEventListener('DOMContentLoaded', (event) => {
  highlightEdges();
  highlightAdjacentNodes();
});
]]></script>
</svg>
