<?xml version="1.0" encoding="UTF-8" standalone="no"?>
<!DOCTYPE svg PUBLIC "-//W3C//DTD SVG 1.1//EN"
 "http://www.w3.org/Graphics/SVG/1.1/DTD/svg11.dtd">
<!-- Generated by graphviz version 8.0.5 (20230430.1635)
 -->
<!-- Title: Slic3r::GUI::DiffPresetDialog::get_right_preset_name Pages: 1 -->
<svg width="481pt" height="131pt"
 viewBox="0.00 0.00 481.25 130.50" xmlns="http://www.w3.org/2000/svg" xmlns:xlink="http://www.w3.org/1999/xlink">
<g id="graph0" class="graph" transform="scale(1 1) rotate(0) translate(4 126.5)">
<title>Slic3r::GUI::DiffPresetDialog::get_right_preset_name</title>
<!-- Node1 -->
<g id="Node000001" class="node">
<title>Node1</title>
<g id="a_Node000001"><a xlink:title=" ">
<polygon fill="#999999" stroke="#666666" points="142.75,-51.5 0,-51.5 0,-21 142.75,-21 142.75,-51.5"/>
<text text-anchor="start" x="8" y="-38" font-family="Helvetica,sans-Serif" font-size="10.00">Slic3r::GUI::DiffPresetDialog</text>
<text text-anchor="middle" x="71.38" y="-26.75" font-family="Helvetica,sans-Serif" font-size="10.00">::get_right_preset_name</text>
</a>
</g>
</g>
<!-- Node2 -->
<g id="Node000002" class="node">
<title>Node2</title>
<g id="a_Node000002"><a xlink:href="../../d9/d45/namespace_slic3r_1_1_g_u_i.html#a8ccaeae5f321502c75b349ff04d27eaa" target="_top" xlink:title=" ">
<polygon fill="white" stroke="#666666" points="307.25,-67.88 178.75,-67.88 178.75,-48.62 307.25,-48.62 307.25,-67.88"/>
<text text-anchor="middle" x="243" y="-54.38" font-family="Helvetica,sans-Serif" font-size="10.00">Slic3r::GUI::get_selection</text>
</a>
</g>
</g>
<!-- Node1&#45;&gt;Node2 -->
<g id="edge1_Node000001_Node000002" class="edge">
<title>Node1&#45;&gt;Node2</title>
<g id="a_edge1_Node000001_Node000002"><a xlink:title=" ">
<path fill="none" stroke="#63b8ff" d="M142.84,-45.39C151,-46.45 159.35,-47.53 167.56,-48.6"/>
<polygon fill="#63b8ff" stroke="#63b8ff" points="166.89,-52.17 177.26,-49.98 167.8,-45.23 166.89,-52.17"/>
</a>
</g>
</g>
<!-- Node6 -->
<g id="Node000006" class="node">
<title>Node6</title>
<g id="a_Node000006"><a xlink:href="../../d9/db2/class_slic3r_1_1_preset.html#a526adbd99cfd1db8e51e3f367168f9f0" target="_top" xlink:title=" ">
<polygon fill="white" stroke="#666666" points="299.75,-30.5 186.25,-30.5 186.25,0 299.75,0 299.75,-30.5"/>
<text text-anchor="start" x="194.25" y="-17" font-family="Helvetica,sans-Serif" font-size="10.00">Slic3r::Preset::remove</text>
<text text-anchor="middle" x="243" y="-5.75" font-family="Helvetica,sans-Serif" font-size="10.00">_suffix_modified</text>
</a>
</g>
</g>
<!-- Node1&#45;&gt;Node6 -->
<g id="edge5_Node000001_Node000006" class="edge">
<title>Node1&#45;&gt;Node6</title>
<g id="a_edge5_Node000001_Node000006"><a xlink:title=" ">
<path fill="none" stroke="#63b8ff" d="M142.84,-27.53C153.51,-26.21 164.5,-24.84 175.09,-23.53"/>
<polygon fill="#63b8ff" stroke="#63b8ff" points="175.47,-26.89 184.96,-22.19 174.61,-19.94 175.47,-26.89"/>
</a>
</g>
</g>
<!-- Node3 -->
<g id="Node000003" class="node">
<title>Node3</title>
<g id="a_Node000003"><a xlink:href="../../d7/d21/class_slic3r_1_1_g_u_i_1_1_plater.html#ac28cfc2e33586f2d74be4e604ed2e542" target="_top" xlink:title=" ">
<polygon fill="white" stroke="#666666" points="456.38,-122.5 360.12,-122.5 360.12,-92 456.38,-92 456.38,-122.5"/>
<text text-anchor="start" x="368.12" y="-109" font-family="Helvetica,sans-Serif" font-size="10.00">Slic3r::GUI::Plater</text>
<text text-anchor="middle" x="408.25" y="-97.75" font-family="Helvetica,sans-Serif" font-size="10.00">::canvas3D</text>
</a>
</g>
</g>
<!-- Node2&#45;&gt;Node3 -->
<g id="edge2_Node000002_Node000003" class="edge">
<title>Node2&#45;&gt;Node3</title>
<g id="a_edge2_Node000002_Node000003"><a xlink:title=" ">
<path fill="none" stroke="#63b8ff" d="M277.43,-68.28C298.07,-74.48 325.11,-82.6 349.17,-89.82"/>
<polygon fill="#63b8ff" stroke="#63b8ff" points="348.04,-93.43 358.63,-92.96 350.06,-86.73 348.04,-93.43"/>
</a>
</g>
</g>
<!-- Node4 -->
<g id="Node000004" class="node">
<title>Node4</title>
<g id="a_Node000004"><a xlink:href="../../d0/d2b/class_slic3r_1_1_g_u_i_1_1_g_l_canvas3_d.html#ae78f5459f862198d84d3624697bc190e" target="_top" xlink:title=" ">
<polygon fill="white" stroke="#666666" points="473.25,-73.5 343.25,-73.5 343.25,-43 473.25,-43 473.25,-73.5"/>
<text text-anchor="start" x="351.25" y="-60" font-family="Helvetica,sans-Serif" font-size="10.00">Slic3r::GUI::GLCanvas3D</text>
<text text-anchor="middle" x="408.25" y="-48.75" font-family="Helvetica,sans-Serif" font-size="10.00">::get_selection</text>
</a>
</g>
</g>
<!-- Node2&#45;&gt;Node4 -->
<g id="edge3_Node000002_Node000004" class="edge">
<title>Node2&#45;&gt;Node4</title>
<g id="a_edge3_Node000002_Node000004"><a xlink:title=" ">
<path fill="none" stroke="#63b8ff" d="M307.58,-58.25C315.52,-58.25 323.7,-58.25 331.8,-58.25"/>
<polygon fill="#63b8ff" stroke="#63b8ff" points="331.76,-61.75 341.76,-58.25 331.76,-54.75 331.76,-61.75"/>
</a>
</g>
</g>
<!-- Node5 -->
<g id="Node000005" class="node">
<title>Node5</title>
<g id="a_Node000005"><a xlink:href="../../d9/d45/namespace_slic3r_1_1_g_u_i.html#a40f49532eea1542b9be80eb93ed855eb" target="_top" xlink:title=" ">
<polygon fill="white" stroke="#666666" points="455.62,-24.88 360.88,-24.88 360.88,-5.63 455.62,-5.63 455.62,-24.88"/>
<text text-anchor="middle" x="408.25" y="-11.38" font-family="Helvetica,sans-Serif" font-size="10.00">Slic3r::GUI::plater</text>
</a>
</g>
</g>
<!-- Node2&#45;&gt;Node5 -->
<g id="edge4_Node000002_Node000005" class="edge">
<title>Node2&#45;&gt;Node5</title>
<g id="a_edge4_Node000002_Node000005"><a xlink:title=" ">
<path fill="none" stroke="#63b8ff" d="M282.27,-48.17C305.01,-42.18 334.08,-34.52 358.45,-28.1"/>
<polygon fill="#63b8ff" stroke="#63b8ff" points="359.15,-31.27 367.93,-25.34 357.37,-24.51 359.15,-31.27"/>
</a>
</g>
</g>
</g>
</svg>
