<?xml version="1.0" encoding="UTF-8" standalone="no"?>
<!DOCTYPE svg PUBLIC "-//W3C//DTD SVG 1.1//EN"
 "http://www.w3.org/Graphics/SVG/1.1/DTD/svg11.dtd">
<!-- Generated by graphviz version 8.0.5 (20230430.1635)
 -->
<!-- Title: Slic3r::GCode::append_full_config Pages: 1 -->
<svg width="560pt" height="235pt"
 viewBox="0.00 0.00 560.25 234.50" xmlns="http://www.w3.org/2000/svg" xmlns:xlink="http://www.w3.org/1999/xlink">
<g id="graph0" class="graph" transform="scale(1 1) rotate(0) translate(4 230.5)">
<title>Slic3r::GCode::append_full_config</title>
<!-- Node1 -->
<g id="Node000001" class="node">
<title>Node1</title>
<g id="a_Node000001"><a xlink:title=" ">
<polygon fill="#999999" stroke="#666666" points="115,-128.5 0,-128.5 0,-98 115,-98 115,-128.5"/>
<text text-anchor="start" x="8" y="-115" font-family="Helvetica,sans-Serif" font-size="10.00">Slic3r::GCode::append</text>
<text text-anchor="middle" x="57.5" y="-103.75" font-family="Helvetica,sans-Serif" font-size="10.00">_full_config</text>
</a>
</g>
</g>
<!-- Node2 -->
<g id="Node000002" class="node">
<title>Node2</title>
<g id="a_Node000002"><a xlink:href="../../dc/d88/class_slic3r_1_1_print_base.html#a842aa3a7b61faec22a3f3e57b1e7fcf3" target="_top" xlink:title=" ">
<polygon fill="white" stroke="#666666" points="255.88,-226.5 160.38,-226.5 160.38,-196 255.88,-196 255.88,-226.5"/>
<text text-anchor="start" x="168.38" y="-213" font-family="Helvetica,sans-Serif" font-size="10.00">Slic3r::PrintBase::</text>
<text text-anchor="middle" x="208.12" y="-201.75" font-family="Helvetica,sans-Serif" font-size="10.00">full_print_config</text>
</a>
</g>
</g>
<!-- Node1&#45;&gt;Node2 -->
<g id="edge1_Node000001_Node000002" class="edge">
<title>Node1&#45;&gt;Node2</title>
<g id="a_edge1_Node000001_Node000002"><a xlink:title=" ">
<path fill="none" stroke="#63b8ff" d="M75.61,-128.91C93.49,-144.73 122.81,-169.21 151,-186.25 153.48,-187.75 156.07,-189.21 158.71,-190.63"/>
<polygon fill="#63b8ff" stroke="#63b8ff" points="156.93,-194.16 167.44,-195.55 160.09,-187.91 156.93,-194.16"/>
</a>
</g>
</g>
<!-- Node3 -->
<g id="Node000003" class="node">
<title>Node3</title>
<g id="a_Node000003"><a xlink:href="../../de/d87/class_slic3r_1_1_config_option.html#aba277ea6fdc0c1221f64d85c3c491f9e" target="_top" xlink:title=" ">
<polygon fill="white" stroke="#666666" points="260,-177.5 156.25,-177.5 156.25,-147 260,-147 260,-177.5"/>
<text text-anchor="start" x="164.25" y="-164" font-family="Helvetica,sans-Serif" font-size="10.00">Slic3r::ConfigOption</text>
<text text-anchor="middle" x="208.12" y="-152.75" font-family="Helvetica,sans-Serif" font-size="10.00">::is_nil</text>
</a>
</g>
</g>
<!-- Node1&#45;&gt;Node3 -->
<g id="edge2_Node000001_Node000003" class="edge">
<title>Node1&#45;&gt;Node3</title>
<g id="a_edge2_Node000001_Node000003"><a xlink:title=" ">
<path fill="none" stroke="#63b8ff" d="M105.93,-128.89C119.68,-133.42 134.83,-138.42 149.14,-143.13"/>
<polygon fill="#63b8ff" stroke="#63b8ff" points="147.78,-146.7 158.38,-146.51 149.98,-140.05 147.78,-146.7"/>
</a>
</g>
</g>
<!-- Node4 -->
<g id="Node000004" class="node">
<title>Node4</title>
<g id="a_Node000004"><a xlink:href="../../d5/df0/class_slic3r_1_1_dynamic_config.html#a3e384ad412fa32e5ca974b1a718b396e" target="_top" xlink:title=" ">
<polygon fill="white" stroke="#666666" points="265.25,-128.5 151,-128.5 151,-98 265.25,-98 265.25,-128.5"/>
<text text-anchor="start" x="159" y="-115" font-family="Helvetica,sans-Serif" font-size="10.00">Slic3r::DynamicConfig</text>
<text text-anchor="middle" x="208.12" y="-103.75" font-family="Helvetica,sans-Serif" font-size="10.00">::keys</text>
</a>
</g>
</g>
<!-- Node1&#45;&gt;Node4 -->
<g id="edge3_Node000001_Node000004" class="edge">
<title>Node1&#45;&gt;Node4</title>
<g id="a_edge3_Node000001_Node000004"><a xlink:title=" ">
<path fill="none" stroke="#63b8ff" d="M115.11,-113.25C123.21,-113.25 131.61,-113.25 139.89,-113.25"/>
<polygon fill="#63b8ff" stroke="#63b8ff" points="139.67,-116.75 149.67,-113.25 139.67,-109.75 139.67,-116.75"/>
</a>
</g>
</g>
<!-- Node8 -->
<g id="Node000008" class="node">
<title>Node8</title>
<g id="a_Node000008"><a xlink:href="../../d9/d06/class_slic3r_1_1_config_base.html#a8715259a5c18cb92b12baa3b6f78090d" target="_top" xlink:title=" ">
<polygon fill="white" stroke="#666666" points="257,-79.5 159.25,-79.5 159.25,-49 257,-49 257,-79.5"/>
<text text-anchor="start" x="167.25" y="-66" font-family="Helvetica,sans-Serif" font-size="10.00">Slic3r::ConfigBase</text>
<text text-anchor="middle" x="208.12" y="-54.75" font-family="Helvetica,sans-Serif" font-size="10.00">::opt_serialize</text>
</a>
</g>
</g>
<!-- Node1&#45;&gt;Node8 -->
<g id="edge7_Node000001_Node000008" class="edge">
<title>Node1&#45;&gt;Node8</title>
<g id="a_edge7_Node000001_Node000008"><a xlink:title=" ">
<path fill="none" stroke="#63b8ff" d="M105.93,-97.61C119.68,-93.08 134.83,-88.08 149.14,-83.37"/>
<polygon fill="#63b8ff" stroke="#63b8ff" points="149.98,-86.45 158.38,-79.99 147.78,-79.8 149.98,-86.45"/>
</a>
</g>
</g>
<!-- Node10 -->
<g id="Node000010" class="node">
<title>Node10</title>
<g id="a_Node000010"><a xlink:href="../../d9/d06/class_slic3r_1_1_config_base.html#a423121494459dae7858bc9d665f8cb4f" target="_top" xlink:title=" ">
<polygon fill="white" stroke="#666666" points="408.75,-30.5 311,-30.5 311,0 408.75,0 408.75,-30.5"/>
<text text-anchor="start" x="319" y="-17" font-family="Helvetica,sans-Serif" font-size="10.00">Slic3r::ConfigBase</text>
<text text-anchor="middle" x="359.88" y="-5.75" font-family="Helvetica,sans-Serif" font-size="10.00">::option</text>
</a>
</g>
</g>
<!-- Node1&#45;&gt;Node10 -->
<g id="edge10_Node000001_Node000010" class="edge">
<title>Node1&#45;&gt;Node10</title>
<g id="a_edge10_Node000001_Node000010"><a xlink:title=" ">
<path fill="none" stroke="#63b8ff" d="M72.83,-97.67C89.7,-80.43 119.45,-53.36 151,-40.25 198.55,-20.49 257.13,-14.94 299.98,-13.93"/>
<polygon fill="#63b8ff" stroke="#63b8ff" points="299.84,-17.42 309.79,-13.76 299.74,-10.42 299.84,-17.42"/>
</a>
</g>
</g>
<!-- Node5 -->
<g id="Node000005" class="node">
<title>Node5</title>
<g id="a_Node000005"><a xlink:href="../../d9/d06/class_slic3r_1_1_config_base.html#aa4b79ae20e460d24b8a77114931225a0" target="_top" xlink:title=" ">
<polygon fill="white" stroke="#666666" points="408.75,-165.5 311,-165.5 311,-135 408.75,-135 408.75,-165.5"/>
<text text-anchor="start" x="319" y="-152" font-family="Helvetica,sans-Serif" font-size="10.00">Slic3r::ConfigBase</text>
<text text-anchor="middle" x="359.88" y="-140.75" font-family="Helvetica,sans-Serif" font-size="10.00">::keys</text>
</a>
</g>
</g>
<!-- Node4&#45;&gt;Node5 -->
<g id="edge4_Node000004_Node000005" class="edge">
<title>Node4&#45;&gt;Node5</title>
<g id="a_edge4_Node000004_Node000005"><a xlink:title=" ">
<path fill="none" stroke="#63b8ff" d="M265.74,-127.24C276.91,-130 288.66,-132.9 299.91,-135.68"/>
<polygon fill="#63b8ff" stroke="#63b8ff" points="298.96,-139.3 309.5,-138.3 300.64,-132.5 298.96,-139.3"/>
</a>
</g>
</g>
<!-- Node6 -->
<g id="Node000006" class="node">
<title>Node6</title>
<g id="a_Node000006"><a xlink:href="../../d9/d06/class_slic3r_1_1_config_base.html#ac776c9b05f9e288c0f04fd3ecd18e7d9" target="_top" xlink:title=" ">
<polygon fill="white" stroke="#666666" points="418.5,-116.88 301.25,-116.88 301.25,-97.62 418.5,-97.62 418.5,-116.88"/>
<text text-anchor="middle" x="359.88" y="-103.38" font-family="Helvetica,sans-Serif" font-size="10.00">Slic3r::ConfigBase::opt</text>
</a>
</g>
</g>
<!-- Node4&#45;&gt;Node6 -->
<g id="edge5_Node000004_Node000006" class="edge">
<title>Node4&#45;&gt;Node6</title>
<g id="a_edge5_Node000004_Node000006"><a xlink:title=" ">
<path fill="none" stroke="#63b8ff" d="M265.74,-110.98C273.8,-110.66 282.16,-110.32 290.42,-109.99"/>
<polygon fill="#63b8ff" stroke="#63b8ff" points="290.33,-113.46 300.19,-109.56 290.05,-106.46 290.33,-113.46"/>
</a>
</g>
</g>
<!-- Node7 -->
<g id="Node000007" class="node">
<title>Node7</title>
<g id="a_Node000007"><a xlink:href="../../d9/d06/class_slic3r_1_1_config_base.html#a699680b37bd3c116736fd1a2ec831728" target="_top" xlink:title=" ">
<polygon fill="white" stroke="#666666" points="552.25,-76.5 454.5,-76.5 454.5,-46 552.25,-46 552.25,-76.5"/>
<text text-anchor="start" x="462.5" y="-63" font-family="Helvetica,sans-Serif" font-size="10.00">Slic3r::ConfigBase</text>
<text text-anchor="middle" x="503.38" y="-51.75" font-family="Helvetica,sans-Serif" font-size="10.00">::optptr</text>
</a>
</g>
</g>
<!-- Node6&#45;&gt;Node7 -->
<g id="edge6_Node000006_Node000007" class="edge">
<title>Node6&#45;&gt;Node7</title>
<g id="a_edge6_Node000006_Node000007"><a xlink:title=" ">
<path fill="none" stroke="#63b8ff" d="M391.93,-97.16C407.16,-92.2 426.02,-86.07 443.83,-80.28"/>
<polygon fill="#63b8ff" stroke="#63b8ff" points="444.72,-83.35 453.15,-76.93 442.56,-76.69 444.72,-83.35"/>
</a>
</g>
</g>
<!-- Node8&#45;&gt;Node6 -->
<g id="edge8_Node000008_Node000006" class="edge">
<title>Node8&#45;&gt;Node6</title>
<g id="a_edge8_Node000008_Node000006"><a xlink:title=" ">
<path fill="none" stroke="#63b8ff" d="M257.33,-78.09C275.4,-83.28 295.85,-89.15 313.64,-94.26"/>
<polygon fill="#63b8ff" stroke="#63b8ff" points="312.47,-97.85 323.05,-97.25 314.41,-91.13 312.47,-97.85"/>
</a>
</g>
</g>
<!-- Node9 -->
<g id="Node000009" class="node">
<title>Node9</title>
<g id="a_Node000009"><a xlink:href="../../de/d87/class_slic3r_1_1_config_option.html#ac1c4ee8190f3eadc8a12ad94f9d5ae76" target="_top" xlink:title=" ">
<polygon fill="white" stroke="#666666" points="411.75,-79.5 308,-79.5 308,-49 411.75,-49 411.75,-79.5"/>
<text text-anchor="start" x="316" y="-66" font-family="Helvetica,sans-Serif" font-size="10.00">Slic3r::ConfigOption</text>
<text text-anchor="middle" x="359.88" y="-54.75" font-family="Helvetica,sans-Serif" font-size="10.00">::serialize</text>
</a>
</g>
</g>
<!-- Node8&#45;&gt;Node9 -->
<g id="edge9_Node000008_Node000009" class="edge">
<title>Node8&#45;&gt;Node9</title>
<g id="a_edge9_Node000008_Node000009"><a xlink:title=" ">
<path fill="none" stroke="#63b8ff" d="M257.33,-64.25C269.89,-64.25 283.6,-64.25 296.77,-64.25"/>
<polygon fill="#63b8ff" stroke="#63b8ff" points="296.66,-67.75 306.66,-64.25 296.66,-60.75 296.66,-67.75"/>
</a>
</g>
</g>
<!-- Node10&#45;&gt;Node7 -->
<g id="edge11_Node000010_Node000007" class="edge">
<title>Node10&#45;&gt;Node7</title>
<g id="a_edge11_Node000010_Node000007"><a xlink:title=" ">
<path fill="none" stroke="#63b8ff" d="M409.18,-30.95C420.33,-34.58 432.32,-38.48 443.86,-42.23"/>
<polygon fill="#63b8ff" stroke="#63b8ff" points="442.7,-45.86 453.29,-45.62 444.86,-39.2 442.7,-45.86"/>
</a>
</g>
</g>
</g>
</svg>
