<?xml version="1.0" encoding="UTF-8" standalone="no"?>
<!DOCTYPE svg PUBLIC "-//W3C//DTD SVG 1.1//EN"
 "http://www.w3.org/Graphics/SVG/1.1/DTD/svg11.dtd">
<!-- Generated by graphviz version 8.0.5 (20230430.1635)
 -->
<!-- Title: Slic3r::GCode::print_machine_envelope Pages: 1 -->
<svg width="548pt" height="156pt"
 viewBox="0.00 0.00 548.25 156.25" xmlns="http://www.w3.org/2000/svg" xmlns:xlink="http://www.w3.org/1999/xlink">
<g id="graph0" class="graph" transform="scale(1 1) rotate(0) translate(4 152.25)">
<title>Slic3r::GCode::print_machine_envelope</title>
<!-- Node1 -->
<g id="Node000001" class="node">
<title>Node1</title>
<g id="a_Node000001"><a xlink:title=" ">
<polygon fill="#999999" stroke="#666666" points="102.25,-110.88 0,-110.88 0,-80.38 102.25,-80.38 102.25,-110.88"/>
<text text-anchor="start" x="8" y="-97.38" font-family="Helvetica,sans-Serif" font-size="10.00">Slic3r::GCode::print</text>
<text text-anchor="middle" x="51.12" y="-86.12" font-family="Helvetica,sans-Serif" font-size="10.00">_machine_envelope</text>
</a>
</g>
</g>
<!-- Node2 -->
<g id="Node000002" class="node">
<title>Node2</title>
<g id="a_Node000002"><a xlink:href="../../d5/d8f/class_slic3r_1_1_print.html#af1937a680d19c7dd8d3c24e5ff7332b8" target="_top" xlink:title=" ">
<polygon fill="white" stroke="#666666" points="259.62,-148.25 160.38,-148.25 160.38,-129 259.62,-129 259.62,-148.25"/>
<text text-anchor="middle" x="210" y="-134.75" font-family="Helvetica,sans-Serif" font-size="10.00">Slic3r::Print::config</text>
</a>
</g>
</g>
<!-- Node1&#45;&gt;Node2 -->
<g id="edge1_Node000001_Node000002" class="edge">
<title>Node1&#45;&gt;Node2</title>
<g id="a_edge1_Node000001_Node000002"><a xlink:title=" ">
<path fill="none" stroke="#63b8ff" d="M102.65,-109.79C114.34,-113.04 126.72,-116.47 138.25,-119.62 145.5,-121.61 153.18,-123.69 160.7,-125.72"/>
<polygon fill="#63b8ff" stroke="#63b8ff" points="159.6,-129.32 170.16,-128.53 161.42,-122.56 159.6,-129.32"/>
</a>
</g>
</g>
<!-- Node3 -->
<g id="Node000003" class="node">
<title>Node3</title>
<g id="a_Node000003"><a xlink:href="../../de/db8/namespace_slic3r.html#a7fc4c0f61833ab1abb7195cd75463e56" target="_top" xlink:title=" ">
<polygon fill="white" stroke="#666666" points="256.62,-110.88 163.38,-110.88 163.38,-80.38 256.62,-80.38 256.62,-110.88"/>
<text text-anchor="start" x="171.38" y="-97.38" font-family="Helvetica,sans-Serif" font-size="10.00">Slic3r::is_decimal</text>
<text text-anchor="middle" x="210" y="-86.12" font-family="Helvetica,sans-Serif" font-size="10.00">_separator_point</text>
</a>
</g>
</g>
<!-- Node1&#45;&gt;Node3 -->
<g id="edge2_Node000001_Node000003" class="edge">
<title>Node1&#45;&gt;Node3</title>
<g id="a_edge2_Node000001_Node000003"><a xlink:title=" ">
<path fill="none" stroke="#63b8ff" d="M102.62,-95.62C118.42,-95.62 135.95,-95.62 152.15,-95.62"/>
<polygon fill="#63b8ff" stroke="#63b8ff" points="152.11,-99.13 162.11,-95.62 152.11,-92.13 152.11,-99.13"/>
</a>
</g>
</g>
<!-- Node4 -->
<g id="Node000004" class="node">
<title>Node4</title>
<g id="a_Node000004"><a xlink:href="../../d7/db8/class_slic3r_1_1_g_code_1_1_g_code_output_stream.html#ad6fc0db6c661033dfa8ba8e7a5e59069" target="_top" xlink:title=" ">
<polygon fill="white" stroke="#666666" points="281.75,-61.88 138.25,-61.88 138.25,-31.38 281.75,-31.38 281.75,-61.88"/>
<text text-anchor="start" x="146.25" y="-48.38" font-family="Helvetica,sans-Serif" font-size="10.00">Slic3r::GCode::GCodeOutput</text>
<text text-anchor="middle" x="210" y="-37.12" font-family="Helvetica,sans-Serif" font-size="10.00">Stream::write_format</text>
</a>
</g>
</g>
<!-- Node1&#45;&gt;Node4 -->
<g id="edge3_Node000001_Node000004" class="edge">
<title>Node1&#45;&gt;Node4</title>
<g id="a_edge3_Node000001_Node000004"><a xlink:title=" ">
<path fill="none" stroke="#63b8ff" d="M102.19,-79.99C116.84,-75.41 133.01,-70.36 148.24,-65.6"/>
<polygon fill="#63b8ff" stroke="#63b8ff" points="149.1,-68.69 157.6,-62.37 147.01,-62.01 149.1,-68.69"/>
</a>
</g>
</g>
<!-- Node5 -->
<g id="Node000005" class="node">
<title>Node5</title>
<g id="a_Node000005"><a xlink:href="../../de/db8/namespace_slic3r.html#ab28c13d286b2d1767d7c63b020ebd042" target="_top" xlink:title=" ">
<polygon fill="white" stroke="#666666" points="392.25,-93.25 317.75,-93.25 317.75,-74 392.25,-74 392.25,-93.25"/>
<text text-anchor="middle" x="355" y="-79.75" font-family="Helvetica,sans-Serif" font-size="10.00">Slic3r::format</text>
</a>
</g>
</g>
<!-- Node4&#45;&gt;Node5 -->
<g id="edge4_Node000004_Node000005" class="edge">
<title>Node4&#45;&gt;Node5</title>
<g id="a_edge4_Node000004_Node000005"><a xlink:title=" ">
<path fill="none" stroke="#63b8ff" d="M271.64,-62.32C283.41,-65.36 295.58,-68.51 306.84,-71.42"/>
<polygon fill="#63b8ff" stroke="#63b8ff" points="305.75,-75.01 316.31,-74.13 307.5,-68.24 305.75,-75.01"/>
</a>
</g>
</g>
<!-- Node7 -->
<g id="Node000007" class="node">
<title>Node7</title>
<g id="a_Node000007"><a xlink:href="../../d3/dbc/config__gram_8c.html#af07d89f5ceaea0c7c8252cc41fd75f37" target="_top" xlink:title=" ">
<polygon fill="white" stroke="#666666" points="371.25,-56.25 338.75,-56.25 338.75,-37 371.25,-37 371.25,-56.25"/>
<text text-anchor="middle" x="355" y="-42.75" font-family="Helvetica,sans-Serif" font-size="10.00">free</text>
</a>
</g>
</g>
<!-- Node4&#45;&gt;Node7 -->
<g id="edge6_Node000004_Node000007" class="edge">
<title>Node4&#45;&gt;Node7</title>
<g id="a_edge6_Node000004_Node000007"><a xlink:title=" ">
<path fill="none" stroke="#63b8ff" d="M282.08,-46.62C298.29,-46.62 314.52,-46.62 327.46,-46.62"/>
<polygon fill="#63b8ff" stroke="#63b8ff" points="327.31,-50.13 337.31,-46.62 327.31,-43.13 327.31,-50.13"/>
</a>
</g>
</g>
<!-- Node8 -->
<g id="Node000008" class="node">
<title>Node8</title>
<g id="a_Node000008"><a xlink:href="../../d3/dbc/config__gram_8c.html#a8d12df60024a0ab3de3a276240433890" target="_top" xlink:title=" ">
<polygon fill="white" stroke="#666666" points="377.25,-19.25 332.75,-19.25 332.75,0 377.25,0 377.25,-19.25"/>
<text text-anchor="middle" x="355" y="-5.75" font-family="Helvetica,sans-Serif" font-size="10.00">malloc</text>
</a>
</g>
</g>
<!-- Node4&#45;&gt;Node8 -->
<g id="edge7_Node000004_Node000008" class="edge">
<title>Node4&#45;&gt;Node8</title>
<g id="a_edge7_Node000004_Node000008"><a xlink:title=" ">
<path fill="none" stroke="#63b8ff" d="M271.64,-30.93C288.87,-26.48 306.96,-21.8 321.78,-17.96"/>
<polygon fill="#63b8ff" stroke="#63b8ff" points="322.61,-21.1 331.41,-15.21 320.85,-14.33 322.61,-21.1"/>
</a>
</g>
</g>
<!-- Node6 -->
<g id="Node000006" class="node">
<title>Node6</title>
<g id="a_Node000006"><a xlink:href="../../d5/ddc/namespace_slic3r_1_1internal_1_1format.html#a5a8cae6889e58c9be36cd70a9e9987ff" target="_top" xlink:title=" ">
<polygon fill="white" stroke="#666666" points="540.25,-98.88 428.25,-98.88 428.25,-68.38 540.25,-68.38 540.25,-98.88"/>
<text text-anchor="start" x="436.25" y="-85.38" font-family="Helvetica,sans-Serif" font-size="10.00">Slic3r::internal::format</text>
<text text-anchor="middle" x="484.25" y="-74.12" font-family="Helvetica,sans-Serif" font-size="10.00">::format_recursive</text>
</a>
</g>
</g>
<!-- Node5&#45;&gt;Node6 -->
<g id="edge5_Node000005_Node000006" class="edge">
<title>Node5&#45;&gt;Node6</title>
<g id="a_edge5_Node000005_Node000006"><a xlink:title=" ">
<path fill="none" stroke="#63b8ff" d="M392.46,-83.62C400.12,-83.62 408.43,-83.62 416.8,-83.62"/>
<polygon fill="#63b8ff" stroke="#63b8ff" points="416.8,-87.13 426.8,-83.62 416.8,-80.13 416.8,-87.13"/>
</a>
</g>
</g>
</g>
</svg>
