<?xml version="1.0" encoding="UTF-8" standalone="no"?>
<!DOCTYPE svg PUBLIC "-//W3C//DTD SVG 1.1//EN"
 "http://www.w3.org/Graphics/SVG/1.1/DTD/svg11.dtd">
<!-- Generated by graphviz version 8.0.5 (20230430.1635)
 -->
<!-- Title: src/libigl/igl/polygon_mesh_to_triangle_mesh.h Pages: 1 -->
<svg width="317pt" height="271pt"
 viewBox="0.00 0.00 317.25 270.75" xmlns="http://www.w3.org/2000/svg" xmlns:xlink="http://www.w3.org/1999/xlink">
<g id="graph0" class="graph" transform="scale(1 1) rotate(0) translate(4 266.75)">
<title>src/libigl/igl/polygon_mesh_to_triangle_mesh.h</title>
<!-- Node1 -->
<g id="Node000001" class="node">
<title>Node1</title>
<g id="a_Node000001"><a xlink:title=" ">
<polygon fill="#999999" stroke="#666666" points="228.38,-262.75 95.38,-262.75 95.38,-232.25 228.38,-232.25 228.38,-262.75"/>
<text text-anchor="start" x="103.38" y="-249.25" font-family="Helvetica,sans-Serif" font-size="10.00">src/libigl/igl/polygon</text>
<text text-anchor="middle" x="161.88" y="-238" font-family="Helvetica,sans-Serif" font-size="10.00">_mesh_to_triangle_mesh.h</text>
</a>
</g>
</g>
<!-- Node2 -->
<g id="Node000002" class="node">
<title>Node2</title>
<g id="a_Node000002"><a xlink:href="../../d6/d68/igl__inline_8h.html" target="_top" xlink:title=" ">
<polygon fill="white" stroke="#666666" points="61.75,-74.5 0,-74.5 0,-55.25 61.75,-55.25 61.75,-74.5"/>
<text text-anchor="middle" x="30.88" y="-61" font-family="Helvetica,sans-Serif" font-size="10.00">igl_inline.h</text>
</a>
</g>
</g>
<!-- Node1&#45;&gt;Node2 -->
<g id="edge1_Node000001_Node000002" class="edge">
<title>Node1&#45;&gt;Node2</title>
<g id="a_edge1_Node000001_Node000002"><a xlink:title=" ">
<path fill="none" stroke="#63b8ff" d="M124.26,-231.76C107.45,-223.53 88.6,-211.76 75.88,-196.25 48.75,-163.2 37.57,-112.82 33.29,-85.37"/>
<polygon fill="#63b8ff" stroke="#63b8ff" points="36.67,-85.24 31.81,-75.82 29.73,-86.21 36.67,-85.24"/>
</a>
</g>
</g>
<!-- Node3 -->
<g id="Node000003" class="node">
<title>Node3</title>
<g id="a_Node000003"><a xlink:title=" ">
<polygon fill="#e0e0e0" stroke="#999999" points="309.25,-190.62 244.5,-190.62 244.5,-171.38 309.25,-171.38 309.25,-190.62"/>
<text text-anchor="middle" x="276.88" y="-177.12" font-family="Helvetica,sans-Serif" font-size="10.00">Eigen/Core</text>
</a>
</g>
</g>
<!-- Node1&#45;&gt;Node3 -->
<g id="edge2_Node000001_Node000003" class="edge">
<title>Node1&#45;&gt;Node3</title>
<g id="a_edge2_Node000001_Node000003"><a xlink:title=" ">
<path fill="none" stroke="#63b8ff" d="M187.97,-231.86C206.96,-221.21 232.53,-206.87 251.38,-196.3"/>
<polygon fill="#63b8ff" stroke="#63b8ff" points="252.8,-198.95 259.81,-191.01 249.38,-192.85 252.8,-198.95"/>
</a>
</g>
</g>
<!-- Node4 -->
<g id="Node000004" class="node">
<title>Node4</title>
<g id="a_Node000004"><a xlink:title=" ">
<polygon fill="#e0e0e0" stroke="#999999" points="122.38,-74.5 79.38,-74.5 79.38,-55.25 122.38,-55.25 122.38,-74.5"/>
<text text-anchor="middle" x="100.88" y="-61" font-family="Helvetica,sans-Serif" font-size="10.00">vector</text>
</a>
</g>
</g>
<!-- Node1&#45;&gt;Node4 -->
<g id="edge3_Node000001_Node000004" class="edge">
<title>Node1&#45;&gt;Node4</title>
<g id="a_edge3_Node000001_Node000004"><a xlink:title=" ">
<path fill="none" stroke="#63b8ff" d="M126.87,-231.92C112.02,-223.77 96.23,-212.03 87.88,-196.25 68.87,-160.37 82.69,-111.14 92.8,-84.62"/>
<polygon fill="#63b8ff" stroke="#63b8ff" points="96.28,-86.33 96.8,-75.75 89.8,-83.71 96.28,-86.33"/>
</a>
</g>
</g>
<!-- Node5 -->
<g id="Node000005" class="node">
<title>Node5</title>
<g id="a_Node000005"><a xlink:href="../../d7/dac/polygon__mesh__to__triangle__mesh_8cpp.html" target="_top" xlink:title=" ">
<polygon fill="white" stroke="#666666" points="226.5,-196.25 97.25,-196.25 97.25,-165.75 226.5,-165.75 226.5,-196.25"/>
<text text-anchor="start" x="105.25" y="-182.75" font-family="Helvetica,sans-Serif" font-size="10.00">polygon_mesh_to_triangle</text>
<text text-anchor="middle" x="161.88" y="-171.5" font-family="Helvetica,sans-Serif" font-size="10.00">_mesh.cpp</text>
</a>
</g>
</g>
<!-- Node1&#45;&gt;Node5 -->
<g id="edge4_Node000001_Node000005" class="edge">
<title>Node1&#45;&gt;Node5</title>
<g id="a_edge4_Node000001_Node000005"><a xlink:title=" ">
<path fill="none" stroke="#63b8ff" d="M156.11,-231.86C155.21,-224.61 154.92,-215.63 155.27,-207.31"/>
<polygon fill="#63b8ff" stroke="#63b8ff" points="158.82,-207.82 156.12,-197.58 151.84,-207.27 158.82,-207.82"/>
</a>
</g>
</g>
<!-- Node5&#45;&gt;Node1 -->
<g id="edge5_Node000005_Node000001" class="edge">
<title>Node5&#45;&gt;Node1</title>
<g id="a_edge5_Node000005_Node000001"><a xlink:title=" ">
<path fill="none" stroke="#63b8ff" d="M167.63,-196.58C168.54,-203.83 168.83,-212.8 168.49,-221.13"/>
<polygon fill="#63b8ff" stroke="#63b8ff" points="164.94,-220.62 167.64,-230.86 171.91,-221.17 164.94,-220.62"/>
</a>
</g>
</g>
<!-- Node6 -->
<g id="Node000006" class="node">
<title>Node6</title>
<g id="a_Node000006"><a xlink:href="../../dc/dbc/matrix__to__list_8h.html" target="_top" xlink:title=" ">
<polygon fill="white" stroke="#666666" points="197.25,-129.75 114.5,-129.75 114.5,-110.5 197.25,-110.5 197.25,-129.75"/>
<text text-anchor="middle" x="155.88" y="-116.25" font-family="Helvetica,sans-Serif" font-size="10.00">matrix_to_list.h</text>
</a>
</g>
</g>
<!-- Node5&#45;&gt;Node6 -->
<g id="edge6_Node000005_Node000006" class="edge">
<title>Node5&#45;&gt;Node6</title>
<g id="a_edge6_Node000005_Node000006"><a xlink:title=" ">
<path fill="none" stroke="#63b8ff" d="M160.39,-165.45C159.64,-158.03 158.71,-148.91 157.89,-140.88"/>
<polygon fill="#63b8ff" stroke="#63b8ff" points="161.3,-140.79 156.8,-131.2 154.33,-141.5 161.3,-140.79"/>
</a>
</g>
</g>
<!-- Node6&#45;&gt;Node2 -->
<g id="edge7_Node000006_Node000002" class="edge">
<title>Node6&#45;&gt;Node2</title>
<g id="a_edge7_Node000006_Node000002"><a xlink:title=" ">
<path fill="none" stroke="#63b8ff" d="M134.67,-110.09C114.74,-101.6 84.66,-88.79 62.01,-79.14"/>
<polygon fill="#63b8ff" stroke="#63b8ff" points="63.76,-75.65 53.18,-74.95 61.01,-82.09 63.76,-75.65"/>
</a>
</g>
</g>
<!-- Node6&#45;&gt;Node4 -->
<g id="edge8_Node000006_Node000004" class="edge">
<title>Node6&#45;&gt;Node4</title>
<g id="a_edge8_Node000006_Node000004"><a xlink:title=" ">
<path fill="none" stroke="#63b8ff" d="M146.79,-110.33C138.96,-102.75 127.43,-91.59 117.89,-82.35"/>
<polygon fill="#63b8ff" stroke="#63b8ff" points="120.77,-80.3 111.15,-75.86 115.9,-85.33 120.77,-80.3"/>
</a>
</g>
</g>
<!-- Node7 -->
<g id="Node000007" class="node">
<title>Node7</title>
<g id="a_Node000007"><a xlink:title=" ">
<polygon fill="#e0e0e0" stroke="#999999" points="224,-19.25 151.75,-19.25 151.75,0 224,0 224,-19.25"/>
<text text-anchor="middle" x="187.88" y="-5.75" font-family="Helvetica,sans-Serif" font-size="10.00">Eigen/Dense</text>
</a>
</g>
</g>
<!-- Node6&#45;&gt;Node7 -->
<g id="edge9_Node000006_Node000007" class="edge">
<title>Node6&#45;&gt;Node7</title>
<g id="a_edge9_Node000006_Node000007"><a xlink:title=" ">
<path fill="none" stroke="#63b8ff" d="M157.32,-110.33C159.47,-97.9 163.91,-74.56 169.88,-55.25 172.52,-46.68 176.12,-37.45 179.4,-29.61"/>
<polygon fill="#63b8ff" stroke="#63b8ff" points="182.93,-31.26 183.69,-20.69 176.51,-28.48 182.93,-31.26"/>
</a>
</g>
</g>
<!-- Node8 -->
<g id="Node000008" class="node">
<title>Node8</title>
<g id="a_Node000008"><a xlink:href="../../dd/d1b/matrix__to__list_8cpp.html" target="_top" xlink:title=" ">
<polygon fill="white" stroke="#666666" points="272.5,-74.5 179.25,-74.5 179.25,-55.25 272.5,-55.25 272.5,-74.5"/>
<text text-anchor="middle" x="225.88" y="-61" font-family="Helvetica,sans-Serif" font-size="10.00">matrix_to_list.cpp</text>
</a>
</g>
</g>
<!-- Node6&#45;&gt;Node8 -->
<g id="edge10_Node000006_Node000008" class="edge">
<title>Node6&#45;&gt;Node8</title>
<g id="a_edge10_Node000006_Node000008"><a xlink:title=" ">
<path fill="none" stroke="#63b8ff" d="M162.53,-110.09C171.33,-102.14 186.47,-90.39 199.84,-81"/>
<polygon fill="#63b8ff" stroke="#63b8ff" points="201.42,-83.47 207.72,-74.95 197.48,-77.69 201.42,-83.47"/>
</a>
</g>
</g>
<!-- Node8&#45;&gt;Node6 -->
<g id="edge11_Node000008_Node000006" class="edge">
<title>Node8&#45;&gt;Node6</title>
<g id="a_edge11_Node000008_Node000006"><a xlink:title=" ">
<path fill="none" stroke="#63b8ff" d="M219.36,-74.77C210.58,-82.74 195.35,-94.57 181.89,-104.01"/>
<polygon fill="#63b8ff" stroke="#63b8ff" points="180.26,-101.57 173.97,-110.09 184.2,-107.36 180.26,-101.57"/>
</a>
</g>
</g>
<!-- Node8&#45;&gt;Node7 -->
<g id="edge12_Node000008_Node000007" class="edge">
<title>Node8&#45;&gt;Node7</title>
<g id="a_edge12_Node000008_Node000007"><a xlink:title=" ">
<path fill="none" stroke="#63b8ff" d="M219.6,-55.08C214.46,-47.88 207.02,-37.46 200.64,-28.51"/>
<polygon fill="#63b8ff" stroke="#63b8ff" points="202.94,-26.72 194.29,-20.61 197.25,-30.78 202.94,-26.72"/>
</a>
</g>
</g>
</g>
</svg>
