<?xml version="1.0" encoding="UTF-8" standalone="no"?>
<!DOCTYPE svg PUBLIC "-//W3C//DTD SVG 1.1//EN"
 "http://www.w3.org/Graphics/SVG/1.1/DTD/svg11.dtd">
<!-- Generated by graphviz version 8.0.5 (20230430.1635)
 -->
<!-- Title: Slic3r::GUI::GLGizmoSeam::update_model_object Pages: 1 -->
<svg width="506pt" height="147pt"
 viewBox="0.00 0.00 506.00 147.12" xmlns="http://www.w3.org/2000/svg" xmlns:xlink="http://www.w3.org/1999/xlink">
<g id="graph0" class="graph" transform="scale(1 1) rotate(0) translate(4 143.12)">
<title>Slic3r::GUI::GLGizmoSeam::update_model_object</title>
<!-- Node1 -->
<g id="Node000001" class="node">
<title>Node1</title>
<g id="a_Node000001"><a xlink:title=" ">
<polygon fill="#999999" stroke="#666666" points="137.5,-79.5 0,-79.5 0,-49 137.5,-49 137.5,-79.5"/>
<text text-anchor="start" x="8" y="-66" font-family="Helvetica,sans-Serif" font-size="10.00">Slic3r::GUI::GLGizmoSeam</text>
<text text-anchor="middle" x="68.75" y="-54.75" font-family="Helvetica,sans-Serif" font-size="10.00">::update_model_object</text>
</a>
</g>
</g>
<!-- Node2 -->
<g id="Node000002" class="node">
<title>Node2</title>
<g id="a_Node000002"><a xlink:href="../../d6/df8/class_slic3r_1_1_g_u_i_1_1_common_gizmos_data_objects_1_1_selection_info.html#aa69880ef0882356aabbed81272cf8559" target="_top" xlink:title=" ">
<polygon fill="white" stroke="#666666" points="317.75,-139.12 173.5,-139.12 173.5,-97.38 317.75,-97.38 317.75,-139.12"/>
<text text-anchor="start" x="181.5" y="-125.62" font-family="Helvetica,sans-Serif" font-size="10.00">Slic3r::GUI::CommonGizmos</text>
<text text-anchor="start" x="181.5" y="-114.38" font-family="Helvetica,sans-Serif" font-size="10.00">DataObjects::SelectionInfo</text>
<text text-anchor="middle" x="245.62" y="-103.12" font-family="Helvetica,sans-Serif" font-size="10.00">::model_object</text>
</a>
</g>
</g>
<!-- Node1&#45;&gt;Node2 -->
<g id="edge1_Node000001_Node000002" class="edge">
<title>Node1&#45;&gt;Node2</title>
<g id="a_edge1_Node000001_Node000002"><a xlink:title=" ">
<path fill="none" stroke="#63b8ff" d="M120.33,-79.87C134.35,-84.2 149.91,-89 165.14,-93.71"/>
<polygon fill="#63b8ff" stroke="#63b8ff" points="164.03,-97.33 174.62,-96.94 166.1,-90.65 164.03,-97.33"/>
</a>
</g>
</g>
<!-- Node3 -->
<g id="Node000003" class="node">
<title>Node3</title>
<g id="a_Node000003"><a xlink:href="../../d0/d2b/class_slic3r_1_1_g_u_i_1_1_g_l_canvas3_d.html#a67119cdecc52aa689df10343611ba861" target="_top" xlink:title=" ">
<polygon fill="white" stroke="#666666" points="310.62,-79.5 180.62,-79.5 180.62,-49 310.62,-49 310.62,-79.5"/>
<text text-anchor="start" x="188.62" y="-66" font-family="Helvetica,sans-Serif" font-size="10.00">Slic3r::GUI::GLCanvas3D</text>
<text text-anchor="middle" x="245.62" y="-54.75" font-family="Helvetica,sans-Serif" font-size="10.00">::post_event</text>
</a>
</g>
</g>
<!-- Node1&#45;&gt;Node3 -->
<g id="edge2_Node000001_Node000003" class="edge">
<title>Node1&#45;&gt;Node3</title>
<g id="a_edge2_Node000001_Node000003"><a xlink:title=" ">
<path fill="none" stroke="#63b8ff" d="M137.86,-64.25C148.18,-64.25 158.88,-64.25 169.34,-64.25"/>
<polygon fill="#63b8ff" stroke="#63b8ff" points="169.13,-67.75 179.13,-64.25 169.13,-60.75 169.13,-67.75"/>
</a>
</g>
</g>
<!-- Node4 -->
<g id="Node000004" class="node">
<title>Node4</title>
<g id="a_Node000004"><a xlink:href="../../d5/d4e/class_slic3r_1_1_g_u_i_1_1_common_gizmos_data_pool.html#a426216e4d0ab24cbf377b4bbfcf99ad4" target="_top" xlink:title=" ">
<polygon fill="white" stroke="#666666" points="317.75,-30.5 173.5,-30.5 173.5,0 317.75,0 317.75,-30.5"/>
<text text-anchor="start" x="181.5" y="-17" font-family="Helvetica,sans-Serif" font-size="10.00">Slic3r::GUI::CommonGizmos</text>
<text text-anchor="middle" x="245.62" y="-5.75" font-family="Helvetica,sans-Serif" font-size="10.00">DataPool::selection_info</text>
</a>
</g>
</g>
<!-- Node1&#45;&gt;Node4 -->
<g id="edge3_Node000001_Node000004" class="edge">
<title>Node1&#45;&gt;Node4</title>
<g id="a_edge3_Node000001_Node000004"><a xlink:title=" ">
<path fill="none" stroke="#63b8ff" d="M125.56,-48.61C142.2,-43.95 160.6,-38.79 177.87,-33.96"/>
<polygon fill="#63b8ff" stroke="#63b8ff" points="178.76,-37.06 187.44,-30.99 176.87,-30.32 178.76,-37.06"/>
</a>
</g>
</g>
<!-- Node5 -->
<g id="Node000005" class="node">
<title>Node5</title>
<g id="a_Node000005"><a xlink:href="../../dc/de9/class_slic3r_1_1_g_u_i_1_1_common_gizmos_data_base.html#a857bb436ea2985183ee7d258d015b90b" target="_top" xlink:title=" ">
<polygon fill="white" stroke="#666666" points="498,-30.5 353.75,-30.5 353.75,0 498,0 498,-30.5"/>
<text text-anchor="start" x="361.75" y="-17" font-family="Helvetica,sans-Serif" font-size="10.00">Slic3r::GUI::CommonGizmos</text>
<text text-anchor="middle" x="425.88" y="-5.75" font-family="Helvetica,sans-Serif" font-size="10.00">DataBase::is_valid</text>
</a>
</g>
</g>
<!-- Node4&#45;&gt;Node5 -->
<g id="edge4_Node000004_Node000005" class="edge">
<title>Node4&#45;&gt;Node5</title>
<g id="a_edge4_Node000004_Node000005"><a xlink:title=" ">
<path fill="none" stroke="#63b8ff" d="M318.1,-15.25C326.09,-15.25 334.28,-15.25 342.39,-15.25"/>
<polygon fill="#63b8ff" stroke="#63b8ff" points="342.38,-18.75 352.38,-15.25 342.38,-11.75 342.38,-18.75"/>
</a>
</g>
</g>
</g>
</svg>
