<?xml version="1.0" encoding="UTF-8" standalone="no"?>
<!DOCTYPE svg PUBLIC "-//W3C//DTD SVG 1.1//EN"
 "http://www.w3.org/Graphics/SVG/1.1/DTD/svg11.dtd">
<!-- Generated by graphviz version 8.0.5 (20230430.1635)
 -->
<!-- Title: Slic3r::GUI::RemovableDriveManager::thread_proc Pages: 1 -->
<svg width="986pt" height="88pt"
 viewBox="0.00 0.00 986.00 87.50" xmlns="http://www.w3.org/2000/svg" xmlns:xlink="http://www.w3.org/1999/xlink">
<g id="graph0" class="graph" transform="scale(1 1) rotate(0) translate(4 83.5)">
<title>Slic3r::GUI::RemovableDriveManager::thread_proc</title>
<!-- Node1 -->
<g id="Node000001" class="node">
<title>Node1</title>
<g id="a_Node000001"><a xlink:title=" ">
<polygon fill="#999999" stroke="#666666" points="143.5,-60.12 0,-60.12 0,-29.62 143.5,-29.62 143.5,-60.12"/>
<text text-anchor="start" x="8" y="-46.62" font-family="Helvetica,sans-Serif" font-size="10.00">Slic3r::GUI::RemovableDrive</text>
<text text-anchor="middle" x="71.75" y="-35.38" font-family="Helvetica,sans-Serif" font-size="10.00">Manager::thread_proc</text>
</a>
</g>
</g>
<!-- Node2 -->
<g id="Node000002" class="node">
<title>Node2</title>
<g id="a_Node000002"><a xlink:href="../../d2/d97/class_slic3r_1_1_g_u_i_1_1_removable_drive_manager.html#a2ea4255fd1a093c6d81b7f2f6b706e1c" target="_top" xlink:title=" ">
<polygon fill="white" stroke="#666666" points="323,-60.12 179.5,-60.12 179.5,-29.62 323,-29.62 323,-60.12"/>
<text text-anchor="start" x="187.5" y="-46.62" font-family="Helvetica,sans-Serif" font-size="10.00">Slic3r::GUI::RemovableDrive</text>
<text text-anchor="middle" x="251.25" y="-35.38" font-family="Helvetica,sans-Serif" font-size="10.00">Manager::update</text>
</a>
</g>
</g>
<!-- Node1&#45;&gt;Node2 -->
<g id="edge1_Node000001_Node000002" class="edge">
<title>Node1&#45;&gt;Node2</title>
<g id="a_edge1_Node000001_Node000002"><a xlink:title=" ">
<path fill="none" stroke="#63b8ff" d="M143.92,-44.88C151.88,-44.88 160.03,-44.88 168.11,-44.88"/>
<polygon fill="#63b8ff" stroke="#63b8ff" points="168.06,-48.38 178.06,-44.88 168.06,-41.38 168.06,-48.38"/>
</a>
</g>
</g>
<!-- Node3 -->
<g id="Node000003" class="node">
<title>Node3</title>
<g id="a_Node000003"><a xlink:href="../../d2/d97/class_slic3r_1_1_g_u_i_1_1_removable_drive_manager.html#a531e5f811753de0e2ba18b3658235a7e" target="_top" xlink:title=" ">
<polygon fill="white" stroke="#666666" points="546,-60.12 359,-60.12 359,-29.62 546,-29.62 546,-60.12"/>
<text text-anchor="start" x="367" y="-46.62" font-family="Helvetica,sans-Serif" font-size="10.00">Slic3r::GUI::RemovableDrive</text>
<text text-anchor="middle" x="452.5" y="-35.38" font-family="Helvetica,sans-Serif" font-size="10.00">Manager::search_for_removable_drives</text>
</a>
</g>
</g>
<!-- Node2&#45;&gt;Node3 -->
<g id="edge2_Node000002_Node000003" class="edge">
<title>Node2&#45;&gt;Node3</title>
<g id="a_edge2_Node000002_Node000003"><a xlink:title=" ">
<path fill="none" stroke="#63b8ff" d="M323.34,-44.88C331.27,-44.88 339.46,-44.88 347.68,-44.88"/>
<polygon fill="#63b8ff" stroke="#63b8ff" points="347.5,-48.38 357.5,-44.88 347.5,-41.38 347.5,-48.38"/>
</a>
</g>
</g>
<!-- Node4 -->
<g id="Node000004" class="node">
<title>Node4</title>
<g id="a_Node000004"><a xlink:href="../../de/db8/namespace_slic3r.html#a797a2be70dcaf15047fa794486d591c5" target="_top" xlink:title=" ">
<polygon fill="white" stroke="#666666" points="972.38,-79.5 861.12,-79.5 861.12,-60.25 972.38,-60.25 972.38,-79.5"/>
<text text-anchor="middle" x="916.75" y="-66" font-family="Helvetica,sans-Serif" font-size="10.00">Slic3r::platform_flavor</text>
</a>
</g>
</g>
<!-- Node3&#45;&gt;Node4 -->
<g id="edge3_Node000003_Node000004" class="edge">
<title>Node3&#45;&gt;Node4</title>
<g id="a_edge3_Node000003_Node000004"><a xlink:title=" ">
<path fill="none" stroke="#63b8ff" d="M546.49,-49.9C636.51,-54.77 770.68,-62.03 850.09,-66.32"/>
<polygon fill="#63b8ff" stroke="#63b8ff" points="849.74,-69.86 859.92,-66.91 850.12,-62.87 849.74,-69.86"/>
</a>
</g>
</g>
<!-- Node5 -->
<g id="Node000005" class="node">
<title>Node5</title>
<g id="a_Node000005"><a xlink:href="../../d1/d65/namespace_slic3r_1_1_g_u_i_1_1search__for__drives__internal.html#a0e8a9662e96f054c8654dd8f2bccccad" target="_top" xlink:title=" ">
<polygon fill="white" stroke="#666666" points="682.75,-41.75 582,-41.75 582,0 682.75,0 682.75,-41.75"/>
<text text-anchor="start" x="590" y="-28.25" font-family="Helvetica,sans-Serif" font-size="10.00">Slic3r::GUI::search</text>
<text text-anchor="start" x="590" y="-17" font-family="Helvetica,sans-Serif" font-size="10.00">_for_drives_internal</text>
<text text-anchor="middle" x="632.38" y="-5.75" font-family="Helvetica,sans-Serif" font-size="10.00">::search_path</text>
</a>
</g>
</g>
<!-- Node3&#45;&gt;Node5 -->
<g id="edge4_Node000003_Node000005" class="edge">
<title>Node3&#45;&gt;Node5</title>
<g id="a_edge4_Node000003_Node000005"><a xlink:title=" ">
<path fill="none" stroke="#63b8ff" d="M546.34,-32.35C554.59,-31.24 562.79,-30.13 570.66,-29.07"/>
<polygon fill="#63b8ff" stroke="#63b8ff" points="571.1,-32.41 580.54,-27.6 570.16,-25.47 571.1,-32.41"/>
</a>
</g>
</g>
<!-- Node6 -->
<g id="Node000006" class="node">
<title>Node6</title>
<g id="a_Node000006"><a xlink:href="../../d1/d65/namespace_slic3r_1_1_g_u_i_1_1search__for__drives__internal.html#ad8b7765b8aaa8452ff2df9e43faf5d2f" target="_top" xlink:title=" ">
<polygon fill="white" stroke="#666666" points="819.5,-41.75 718.75,-41.75 718.75,0 819.5,0 819.5,-41.75"/>
<text text-anchor="start" x="726.75" y="-28.25" font-family="Helvetica,sans-Serif" font-size="10.00">Slic3r::GUI::search</text>
<text text-anchor="start" x="726.75" y="-17" font-family="Helvetica,sans-Serif" font-size="10.00">_for_drives_internal</text>
<text text-anchor="middle" x="769.12" y="-5.75" font-family="Helvetica,sans-Serif" font-size="10.00">::inspect_file</text>
</a>
</g>
</g>
<!-- Node5&#45;&gt;Node6 -->
<g id="edge5_Node000005_Node000006" class="edge">
<title>Node5&#45;&gt;Node6</title>
<g id="a_edge5_Node000005_Node000006"><a xlink:title=" ">
<path fill="none" stroke="#63b8ff" d="M683.17,-20.88C691.11,-20.88 699.39,-20.88 707.55,-20.88"/>
<polygon fill="#63b8ff" stroke="#63b8ff" points="707.54,-24.38 717.54,-20.88 707.54,-17.38 707.54,-24.38"/>
</a>
</g>
</g>
<!-- Node6&#45;&gt;Node4 -->
<g id="edge7_Node000006_Node000004" class="edge">
<title>Node6&#45;&gt;Node4</title>
<g id="a_edge7_Node000006_Node000004"><a xlink:title=" ">
<path fill="none" stroke="#63b8ff" d="M819.69,-38.6C831.41,-42.7 843.87,-47 855.5,-50.88 861.09,-52.74 866.99,-54.66 872.83,-56.53"/>
<polygon fill="#63b8ff" stroke="#63b8ff" points="871.58,-60.12 882.17,-59.81 873.7,-53.45 871.58,-60.12"/>
</a>
</g>
</g>
<!-- Node7 -->
<g id="Node000007" class="node">
<title>Node7</title>
<g id="a_Node000007"><a xlink:href="../../d1/d65/namespace_slic3r_1_1_g_u_i_1_1search__for__drives__internal.html#a2f7d9f18d62d39cfe648b19797a0c412" target="_top" xlink:title=" ">
<polygon fill="white" stroke="#666666" points="978,-41.75 855.5,-41.75 855.5,0 978,0 978,-41.75"/>
<text text-anchor="start" x="863.5" y="-28.25" font-family="Helvetica,sans-Serif" font-size="10.00">Slic3r::GUI::search</text>
<text text-anchor="start" x="863.5" y="-17" font-family="Helvetica,sans-Serif" font-size="10.00">_for_drives_internal</text>
<text text-anchor="middle" x="916.75" y="-5.75" font-family="Helvetica,sans-Serif" font-size="10.00">::compare_filesystem_id</text>
</a>
</g>
</g>
<!-- Node6&#45;&gt;Node7 -->
<g id="edge6_Node000006_Node000007" class="edge">
<title>Node6&#45;&gt;Node7</title>
<g id="a_edge6_Node000006_Node000007"><a xlink:title=" ">
<path fill="none" stroke="#63b8ff" d="M819.83,-20.88C827.74,-20.88 836.05,-20.88 844.34,-20.88"/>
<polygon fill="#63b8ff" stroke="#63b8ff" points="844.18,-24.38 854.18,-20.88 844.18,-17.38 844.18,-24.38"/>
</a>
</g>
</g>
</g>
</svg>
