<?xml version="1.0" encoding="UTF-8" standalone="no"?>
<!DOCTYPE svg PUBLIC "-//W3C//DTD SVG 1.1//EN"
 "http://www.w3.org/Graphics/SVG/1.1/DTD/svg11.dtd">
<!-- Generated by graphviz version 8.0.5 (20230430.1635)
 -->
<!-- Title: ImFontBuildSrcData Pages: 1 -->
<!--zoomable 282 -->

<svg id="main" version="1.1" xmlns="http://www.w3.org/2000/svg" xmlns:xlink="http://www.w3.org/1999/xlink" xml:space="preserve" onload="init(evt)">
<style type="text/css"><![CDATA[
.node, .edge {opacity: 0.7;}
.node.selected, .edge.selected {opacity: 1;}
.edge:hover path { stroke: red; }
.edge:hover polygon { stroke: red; fill: red; }
]]></style>

<defs>
  <circle id="rim" cx="0" cy="0" r="7"/>
  <circle id="rim2" cx="0" cy="0" r="3.5"/>
  <g id="zoomPlus">
    <use xlink:href="#rim" fill="#404040"><set attributeName="fill" to="#808080" begin="zoomplus.mouseover" end="zoomplus.mouseout"/></use>
    <path d="M-4,0h8M0,-4v8" fill="none" stroke="white" stroke-width="1.5" pointer-events="none"/>
  </g>
  <g id="zoomMin">
    <use xlink:href="#rim" fill="#404040"><set attributeName="fill" to="#808080" begin="zoomminus.mouseover" end="zoomminus.mouseout"/></use>
    <path d="M-4,0h8" fill="none" stroke="white" stroke-width="1.5" pointer-events="none"/>
  </g>
  <g id="arrowUp" transform="translate(30 24)">
    <use xlink:href="#rim"/>
    <path pointer-events="none" fill="none" stroke="white" stroke-width="1.5" d="M0,-3.0v7 M-2.5,-0.5L0,-3.0L2.5,-0.5"/>
  </g>
  <g id="arrowRight" transform="rotate(90) translate(36 -43)">
    <use xlink:href="#rim"/>
    <path pointer-events="none" fill="none" stroke="white" stroke-width="1.5" d="M0,-3.0v7 M-2.5,-0.5L0,-3.0L2.5,-0.5"/>
  </g>
  <g id="arrowDown" transform="rotate(180) translate(-30 -48)">
    <use xlink:href="#rim"/>
    <path pointer-events="none" fill="none" stroke="white" stroke-width="1.5" d="M0,-3.0v7 M-2.5,-0.5L0,-3.0L2.5,-0.5"/>
  </g>
  <g id="arrowLeft" transform="rotate(270) translate(-36 17)">
    <use xlink:href="#rim"/>
    <path pointer-events="none" fill="none" stroke="white" stroke-width="1.5" d="M0,-3.0v7 M-2.5,-0.5L0,-3.0L2.5,-0.5"/>
  </g>
  <g id="resetDef">
    <use xlink:href="#rim2" fill="#404040"><set attributeName="fill" to="#808080" begin="reset.mouseover" end="reset.mouseout"/></use>
  </g>
</defs>
<script type="application/ecmascript">
var viewWidth = 685;
var viewHeight = 282;
var sectionId = 'dynsection-1';
</script>
<script type="application/ecmascript" xlink:href="../../svg.min.js"/>
<svg id="graph" class="graph">
<g id="viewport">
<title>ImFontBuildSrcData</title>
<!-- Node1 -->
<g id="Node000001" class="node">
<title>Node1</title>
<g id="a_Node000001"><a xlink:title=" ">
<polygon fill="#999999" stroke="#666666" points="676.75,-112.25 572.25,-112.25 572.25,-93 676.75,-93 676.75,-112.25"/>
<text text-anchor="middle" x="624.5" y="-98.75" font-family="Helvetica,sans-Serif" font-size="10.00">ImFontBuildSrcData</text>
</a>
</g>
</g>
<!-- Node2 -->
<g id="Node000002" class="node">
<title>Node2</title>
<g id="a_Node000002"><a xlink:href="../../d3/dab/imstb__truetype_8h.html#d1/d3f/structstbtt__fontinfo" target="_top" xlink:title=" ">
<polygon fill="white" stroke="#666666" points="473.25,-216.25 400.25,-216.25 400.25,-197 473.25,-197 473.25,-216.25"/>
<text text-anchor="middle" x="436.75" y="-202.75" font-family="Helvetica,sans-Serif" font-size="10.00">stbtt_fontinfo</text>
</a>
</g>
</g>
<!-- Node2&#45;&gt;Node1 -->
<g id="edge1_Node000001_Node000002" class="edge">
<title>Node2&#45;&gt;Node1</title>
<g id="a_edge1_Node000001_Node000002"><a xlink:title=" ">
<path fill="none" stroke="#9a32cd" stroke-dasharray="5,2" d="M484.13,-203.49C506.54,-200.33 533.1,-194.05 554.25,-181.62 583.81,-164.25 607.3,-129.79 617.7,-112.71"/>
<polygon fill="#9a32cd" stroke="#9a32cd" points="483.99,-200.1 474.5,-204.8 484.85,-207.05 483.99,-200.1"/>
</a>
</g>
<text text-anchor="middle" x="527.25" y="-201.38" font-family="Helvetica,sans-Serif" font-size="10.00" fill="grey"> FontInfo</text>
</g>
<!-- Node3 -->
<g id="Node000003" class="node">
<title>Node3</title>
<g id="a_Node000003"><a xlink:href="../../d3/dab/imstb__truetype_8h.html#dd/d25/structstbtt____buf" target="_top" xlink:title=" ">
<polygon fill="white" stroke="#666666" points="247.25,-216.25 187.75,-216.25 187.75,-197 247.25,-197 247.25,-216.25"/>
<text text-anchor="middle" x="217.5" y="-202.75" font-family="Helvetica,sans-Serif" font-size="10.00">stbtt__buf</text>
</a>
</g>
</g>
<!-- Node3&#45;&gt;Node2 -->
<g id="edge2_Node000002_Node000003" class="edge">
<title>Node3&#45;&gt;Node2</title>
<g id="a_edge2_Node000002_Node000003"><a xlink:title=" ">
<path fill="none" stroke="#9a32cd" stroke-dasharray="5,2" d="M258.15,-206.62C298.62,-206.62 360.88,-206.62 399.91,-206.62"/>
<polygon fill="#9a32cd" stroke="#9a32cd" points="258.35,-203.13 248.35,-206.62 258.35,-210.13 258.35,-203.13"/>
</a>
</g>
<text text-anchor="middle" x="330.12" y="-264.62" font-family="Helvetica,sans-Serif" font-size="10.00" fill="grey"> cff</text>
<text text-anchor="middle" x="330.12" y="-253.38" font-family="Helvetica,sans-Serif" font-size="10.00" fill="grey">charstrings</text>
<text text-anchor="middle" x="330.12" y="-242.12" font-family="Helvetica,sans-Serif" font-size="10.00" fill="grey">fdselect</text>
<text text-anchor="middle" x="330.12" y="-230.88" font-family="Helvetica,sans-Serif" font-size="10.00" fill="grey">fontdicts</text>
<text text-anchor="middle" x="330.12" y="-219.62" font-family="Helvetica,sans-Serif" font-size="10.00" fill="grey">gsubrs</text>
<text text-anchor="middle" x="330.12" y="-208.38" font-family="Helvetica,sans-Serif" font-size="10.00" fill="grey">subrs</text>
</g>
<!-- Node4 -->
<g id="Node000004" class="node">
<title>Node4</title>
<g id="a_Node000004"><a xlink:href="../../d3/dab/imstb__truetype_8h.html#d9/d46/structstbtt__pack__range" target="_top" xlink:title=" ">
<polygon fill="white" stroke="#666666" points="482.25,-131.25 391.25,-131.25 391.25,-112 482.25,-112 482.25,-131.25"/>
<text text-anchor="middle" x="436.75" y="-117.75" font-family="Helvetica,sans-Serif" font-size="10.00">stbtt_pack_range</text>
</a>
</g>
</g>
<!-- Node4&#45;&gt;Node1 -->
<g id="edge3_Node000001_Node000004" class="edge">
<title>Node4&#45;&gt;Node1</title>
<g id="a_edge3_Node000001_Node000004"><a xlink:title=" ">
<path fill="none" stroke="#9a32cd" stroke-dasharray="5,2" d="M493.48,-115.92C518.42,-113.37 547.64,-110.38 572.06,-107.89"/>
<polygon fill="#9a32cd" stroke="#9a32cd" points="493.31,-112.53 483.71,-117.03 494.02,-119.49 493.31,-112.53"/>
</a>
</g>
<text text-anchor="middle" x="527.25" y="-116.38" font-family="Helvetica,sans-Serif" font-size="10.00" fill="grey"> PackRange</text>
</g>
<!-- Node5 -->
<g id="Node000005" class="node">
<title>Node5</title>
<g id="a_Node000005"><a xlink:href="../../d3/dab/imstb__truetype_8h.html#d2/d0c/structstbtt__packedchar" target="_top" xlink:title=" ">
<polygon fill="white" stroke="#666666" points="263,-154.25 172,-154.25 172,-135 263,-135 263,-154.25"/>
<text text-anchor="middle" x="217.5" y="-140.75" font-family="Helvetica,sans-Serif" font-size="10.00">stbtt_packedchar</text>
</a>
</g>
</g>
<!-- Node5&#45;&gt;Node1 -->
<g id="edge6_Node000001_Node000005" class="edge">
<title>Node5&#45;&gt;Node1</title>
<g id="a_edge6_Node000001_Node000005"><a xlink:title=" ">
<path fill="none" stroke="#9a32cd" stroke-dasharray="5,2" d="M274.17,-150.79C278.51,-151.13 282.82,-151.41 287,-151.62 406.03,-157.69 439.13,-160.46 554.25,-129.62 570.45,-125.29 588.06,-118.39 601.46,-112.65"/>
<polygon fill="#9a32cd" stroke="#9a32cd" points="274.66,-147.24 264.4,-149.87 274.07,-154.21 274.66,-147.24"/>
</a>
</g>
<text text-anchor="middle" x="436.75" y="-156.38" font-family="Helvetica,sans-Serif" font-size="10.00" fill="grey"> PackedChars</text>
</g>
<!-- Node5&#45;&gt;Node4 -->
<g id="edge4_Node000004_Node000005" class="edge">
<title>Node5&#45;&gt;Node4</title>
<g id="a_edge4_Node000004_Node000005"><a xlink:title=" ">
<path fill="none" stroke="#9a32cd" stroke-dasharray="5,2" d="M274.15,-138.73C310.45,-134.89 357.19,-129.94 391.06,-126.36"/>
<polygon fill="#9a32cd" stroke="#9a32cd" points="273.83,-135.35 264.25,-139.89 274.56,-142.31 273.83,-135.35"/>
</a>
</g>
<text text-anchor="middle" x="330.12" y="-138.38" font-family="Helvetica,sans-Serif" font-size="10.00" fill="grey"> chardata_for_range</text>
</g>
<!-- Node6 -->
<g id="Node000006" class="node">
<title>Node6</title>
<g id="a_Node000006"><a xlink:href="../../d3/d9c/imstb__rectpack_8h.html#d5/d50/structstbrp__rect" target="_top" xlink:title=" ">
<polygon fill="white" stroke="#666666" points="466.5,-94.25 407,-94.25 407,-75 466.5,-75 466.5,-94.25"/>
<text text-anchor="middle" x="436.75" y="-80.75" font-family="Helvetica,sans-Serif" font-size="10.00">stbrp_rect</text>
</a>
</g>
</g>
<!-- Node6&#45;&gt;Node1 -->
<g id="edge5_Node000001_Node000006" class="edge">
<title>Node6&#45;&gt;Node1</title>
<g id="a_edge5_Node000001_Node000006"><a xlink:title=" ">
<path fill="none" stroke="#9a32cd" stroke-dasharray="5,2" d="M477.46,-83.67C500.05,-83.6 528.82,-84.3 554.25,-87.38 563.91,-88.54 574.2,-90.44 583.81,-92.51"/>
<polygon fill="#9a32cd" stroke="#9a32cd" points="477.56,-80.18 467.59,-83.76 477.62,-87.18 477.56,-80.18"/>
</a>
</g>
<text text-anchor="middle" x="527.25" y="-88.38" font-family="Helvetica,sans-Serif" font-size="10.00" fill="grey"> Rects</text>
</g>
<!-- Node7 -->
<g id="Node000007" class="node">
<title>Node7</title>
<g id="a_Node000007"><a xlink:href="../../d6/d28/struct_im_bit_vector.html" target="_top" xlink:title=" ">
<polygon fill="white" stroke="#666666" points="470.62,-57.25 402.88,-57.25 402.88,-38 470.62,-38 470.62,-57.25"/>
<text text-anchor="middle" x="436.75" y="-43.75" font-family="Helvetica,sans-Serif" font-size="10.00">ImBitVector</text>
</a>
</g>
</g>
<!-- Node7&#45;&gt;Node1 -->
<g id="edge7_Node000001_Node000007" class="edge">
<title>Node7&#45;&gt;Node1</title>
<g id="a_edge7_Node000001_Node000007"><a xlink:title=" ">
<path fill="none" stroke="#9a32cd" stroke-dasharray="5,2" d="M481.76,-52.47C503.88,-55.65 530.88,-60.69 554.25,-68.38 572.98,-74.54 593.03,-84.91 606.71,-92.64"/>
<polygon fill="#9a32cd" stroke="#9a32cd" points="482.38,-48.89 472,-51.01 481.44,-55.82 482.38,-48.89"/>
</a>
</g>
<text text-anchor="middle" x="527.25" y="-69.38" font-family="Helvetica,sans-Serif" font-size="10.00" fill="grey"> GlyphsSet</text>
</g>
<!-- Node8 -->
<g id="Node000008" class="node">
<title>Node8</title>
<g id="a_Node000008"><a xlink:href="../../df/d93/struct_im_vector.html" target="_top" xlink:title=" ">
<polygon fill="white" stroke="#666666" points="269,-57.25 166,-57.25 166,-38 269,-38 269,-57.25"/>
<text text-anchor="middle" x="217.5" y="-43.75" font-family="Helvetica,sans-Serif" font-size="10.00">ImVector&lt; ImU32 &gt;</text>
</a>
</g>
</g>
<!-- Node8&#45;&gt;Node7 -->
<g id="edge8_Node000007_Node000008" class="edge">
<title>Node8&#45;&gt;Node7</title>
<g id="a_edge8_Node000007_Node000008"><a xlink:title=" ">
<path fill="none" stroke="#9a32cd" stroke-dasharray="5,2" d="M280.36,-47.62C320.16,-47.62 370.3,-47.62 402.69,-47.62"/>
<polygon fill="#9a32cd" stroke="#9a32cd" points="280.44,-44.13 270.44,-47.62 280.44,-51.13 280.44,-44.13"/>
</a>
</g>
<text text-anchor="middle" x="330.12" y="-49.38" font-family="Helvetica,sans-Serif" font-size="10.00" fill="grey"> Storage</text>
</g>
<!-- Node9 -->
<g id="Node000009" class="node">
<title>Node9</title>
<g id="a_Node000009"><a xlink:href="../../df/d93/struct_im_vector.html" target="_top" xlink:title=" ">
<polygon fill="white" stroke="#666666" points="79.75,-36.25 0,-36.25 0,-17 79.75,-17 79.75,-36.25"/>
<text text-anchor="middle" x="39.88" y="-22.75" font-family="Helvetica,sans-Serif" font-size="10.00">ImVector&lt; T &gt;</text>
</a>
</g>
</g>
<!-- Node9&#45;&gt;Node8 -->
<g id="edge9_Node000008_Node000009" class="edge">
<title>Node9&#45;&gt;Node8</title>
<g id="a_edge9_Node000008_Node000009"><a xlink:title=" ">
<path fill="none" stroke="orange" stroke-dasharray="5,2" d="M90.62,-32.57C114.08,-35.38 142.02,-38.72 165.62,-41.54"/>
<polygon fill="orange" stroke="orange" points="91.2,-29 80.85,-31.29 90.37,-35.95 91.2,-29"/>
</a>
</g>
<text text-anchor="middle" x="122.88" y="-41.38" font-family="Helvetica,sans-Serif" font-size="10.00" fill="grey"> &lt; ImU32 &gt;</text>
</g>
<!-- Node10 -->
<g id="Node000010" class="node">
<title>Node10</title>
<g id="a_Node000010"><a xlink:href="../../df/d93/struct_im_vector.html" target="_top" xlink:title=" ">
<polygon fill="white" stroke="#666666" points="372.25,-19.25 288,-19.25 288,0 372.25,0 372.25,-19.25"/>
<text text-anchor="middle" x="330.12" y="-5.75" font-family="Helvetica,sans-Serif" font-size="10.00">ImVector&lt; int &gt;</text>
</a>
</g>
</g>
<!-- Node9&#45;&gt;Node10 -->
<g id="edge11_Node000010_Node000009" class="edge">
<title>Node9&#45;&gt;Node10</title>
<g id="a_edge11_Node000010_Node000009"><a xlink:title=" ">
<path fill="none" stroke="orange" stroke-dasharray="5,2" d="M90.89,-20.01C93.21,-19.78 95.5,-19.57 97.75,-19.38 164.05,-13.76 241.33,-11.33 287.68,-10.31"/>
<polygon fill="orange" stroke="orange" points="90.55,-16.63 80.99,-21.2 91.31,-23.59 90.55,-16.63"/>
</a>
</g>
<text text-anchor="middle" x="122.88" y="-21.38" font-family="Helvetica,sans-Serif" font-size="10.00" fill="grey"> &lt; int &gt;</text>
</g>
<!-- Node10&#45;&gt;Node1 -->
<g id="edge10_Node000001_Node000010" class="edge">
<title>Node10&#45;&gt;Node1</title>
<g id="a_edge10_Node000001_Node000010"><a xlink:title=" ">
<path fill="none" stroke="#9a32cd" stroke-dasharray="5,2" d="M383.35,-7.46C412.79,-7.43 450.02,-9.42 482.25,-17.38 536.48,-30.76 590.05,-73.22 612.5,-92.69"/>
<polygon fill="#9a32cd" stroke="#9a32cd" points="383.44,-3.96 373.47,-7.56 383.5,-10.96 383.44,-3.96"/>
</a>
</g>
<text text-anchor="middle" x="436.75" y="-19.38" font-family="Helvetica,sans-Serif" font-size="10.00" fill="grey"> GlyphsList</text>
</g>
</g>
</svg>

<g id="navigator" transform="translate(0 0)" fill="#404254">
  <rect fill="#f2f5e9" fill-opacity="0.5" stroke="#606060" stroke-width=".5" x="0" y="0" width="60" height="60"/>
  <use id="zoomplus" xlink:href="#zoomPlus" x="17" y="9" onmousedown="handleZoom(evt,'in')"/>
  <use id="zoomminus" xlink:href="#zoomMin" x="42" y="9" onmousedown="handleZoom(evt,'out')"/>
  <use id="reset" xlink:href="#resetDef" x="30" y="36" onmousedown="handleReset()"/>
   <use id="arrowup" xlink:href="#arrowUp" x="0" y="0" onmousedown="handlePan(0,-1)"/>
  <use id="arrowright" xlink:href="#arrowRight" x="0" y="0" onmousedown="handlePan(1,0)"/>
  <use id="arrowdown" xlink:href="#arrowDown" x="0" y="0" onmousedown="handlePan(0,1)"/>
  <use id="arrowleft" xlink:href="#arrowLeft" x="0" y="0" onmousedown="handlePan(-1,0)"/>
</g>
<svg viewBox="0 0 15 15" width="100%" height="30px" preserveAspectRatio="xMaxYMin meet">
 <g id="arrow_out" transform="scale(0.3 0.3)">
  <a xlink:href="struct_im_font_build_src_data__coll__graph_org.svg" target="_base">
   <rect id="button" ry="5" rx="5" y="6" x="6" height="38" width="38"
        fill="#f2f5e9" fill-opacity="0.5" stroke="#606060" stroke-width="1.0"/>
   <path id="arrow"
     d="M 11.500037,31.436501 C 11.940474,20.09759 22.043105,11.32322 32.158766,21.979434 L 37.068811,17.246167 C 37.068811,17.246167 37.088388,32 37.088388,32 L 22.160133,31.978069 C 22.160133,31.978069 26.997745,27.140456 26.997745,27.140456 C 18.528582,18.264221 13.291696,25.230495 11.500037,31.436501 z"
     style="fill:#404040;"/>
  </a>
 </g>
</svg>

<style type='text/css'>
<![CDATA[
[data-mouse-over-selected='false'] { opacity: 0.7; }
[data-mouse-over-selected='true']  { opacity: 1.0; }
]]>
</style>
<script type="application/ecmascript"><![CDATA[
document.addEventListener('DOMContentLoaded', (event) => {
  highlightEdges();
  highlightAdjacentNodes();
});
]]></script>
</svg>
