<?xml version="1.0" encoding="UTF-8" standalone="no"?>
<!DOCTYPE svg PUBLIC "-//W3C//DTD SVG 1.1//EN"
 "http://www.w3.org/Graphics/SVG/1.1/DTD/svg11.dtd">
<!-- Generated by graphviz version 8.0.5 (20230430.1635)
 -->
<!-- Title: Slic3r::GUI::GLGizmoCut3D::render_rotation_snapping Pages: 1 -->
<!--zoomable 565 -->

<svg id="main" version="1.1" xmlns="http://www.w3.org/2000/svg" xmlns:xlink="http://www.w3.org/1999/xlink" xml:space="preserve" onload="init(evt)">
<style type="text/css"><![CDATA[
.node, .edge {opacity: 0.7;}
.node.selected, .edge.selected {opacity: 1;}
.edge:hover path { stroke: red; }
.edge:hover polygon { stroke: red; fill: red; }
]]></style>

<defs>
  <circle id="rim" cx="0" cy="0" r="7"/>
  <circle id="rim2" cx="0" cy="0" r="3.5"/>
  <g id="zoomPlus">
    <use xlink:href="#rim" fill="#404040"><set attributeName="fill" to="#808080" begin="zoomplus.mouseover" end="zoomplus.mouseout"/></use>
    <path d="M-4,0h8M0,-4v8" fill="none" stroke="white" stroke-width="1.5" pointer-events="none"/>
  </g>
  <g id="zoomMin">
    <use xlink:href="#rim" fill="#404040"><set attributeName="fill" to="#808080" begin="zoomminus.mouseover" end="zoomminus.mouseout"/></use>
    <path d="M-4,0h8" fill="none" stroke="white" stroke-width="1.5" pointer-events="none"/>
  </g>
  <g id="arrowUp" transform="translate(30 24)">
    <use xlink:href="#rim"/>
    <path pointer-events="none" fill="none" stroke="white" stroke-width="1.5" d="M0,-3.0v7 M-2.5,-0.5L0,-3.0L2.5,-0.5"/>
  </g>
  <g id="arrowRight" transform="rotate(90) translate(36 -43)">
    <use xlink:href="#rim"/>
    <path pointer-events="none" fill="none" stroke="white" stroke-width="1.5" d="M0,-3.0v7 M-2.5,-0.5L0,-3.0L2.5,-0.5"/>
  </g>
  <g id="arrowDown" transform="rotate(180) translate(-30 -48)">
    <use xlink:href="#rim"/>
    <path pointer-events="none" fill="none" stroke="white" stroke-width="1.5" d="M0,-3.0v7 M-2.5,-0.5L0,-3.0L2.5,-0.5"/>
  </g>
  <g id="arrowLeft" transform="rotate(270) translate(-36 17)">
    <use xlink:href="#rim"/>
    <path pointer-events="none" fill="none" stroke="white" stroke-width="1.5" d="M0,-3.0v7 M-2.5,-0.5L0,-3.0L2.5,-0.5"/>
  </g>
  <g id="resetDef">
    <use xlink:href="#rim2" fill="#404040"><set attributeName="fill" to="#808080" begin="reset.mouseover" end="reset.mouseout"/></use>
  </g>
</defs>
<script type="application/ecmascript">
var viewWidth = 806;
var viewHeight = 565;
var sectionId = 'dynsection-157';
</script>
<script type="application/ecmascript" xlink:href="../../svg.min.js"/>
<svg id="graph" class="graph">
<g id="viewport">
<title>Slic3r::GUI::GLGizmoCut3D::render_rotation_snapping</title>
<!-- Node1 -->
<g id="Node000001" class="node">
<title>Node1</title>
<g id="a_Node000001"><a xlink:title=" ">
<polygon fill="#999999" stroke="#666666" points="138.25,-293.5 0,-293.5 0,-263 138.25,-263 138.25,-293.5"/>
<text text-anchor="start" x="8" y="-280" font-family="Helvetica,sans-Serif" font-size="10.00">Slic3r::GUI::GLGizmoCut3</text>
<text text-anchor="middle" x="69.12" y="-268.75" font-family="Helvetica,sans-Serif" font-size="10.00">D::render_rotation_snapping</text>
</a>
</g>
</g>
<!-- Node2 -->
<g id="Node000002" class="node">
<title>Node2</title>
<g id="a_Node000002"><a xlink:href="../../d5/dfc/class_slic3r_1_1_g_u_i_1_1_open_g_l_manager.html#a4b08729956998a87b21f1f755ee2b00d" target="_top" xlink:title=" ">
<polygon fill="white" stroke="#666666" points="318.5,-556.5 174.25,-556.5 174.25,-526 318.5,-526 318.5,-556.5"/>
<text text-anchor="start" x="182.25" y="-543" font-family="Helvetica,sans-Serif" font-size="10.00">Slic3r::GUI::OpenGLManager</text>
<text text-anchor="middle" x="246.38" y="-531.75" font-family="Helvetica,sans-Serif" font-size="10.00">::get_gl_info</text>
</a>
</g>
</g>
<!-- Node1&#45;&gt;Node2 -->
<g id="edge1_Node000001_Node000002" class="edge">
<title>Node1&#45;&gt;Node2</title>
<g id="a_edge1_Node000001_Node000002"><a xlink:title=" ">
<path fill="none" stroke="#63b8ff" d="M72.54,-293.78C79.85,-335.76 105.66,-452.58 174.25,-516.25 175.6,-517.5 177.02,-518.7 178.49,-519.83"/>
<polygon fill="#63b8ff" stroke="#63b8ff" points="176.18,-523.15 186.46,-525.69 180.01,-517.29 176.18,-523.15"/>
</a>
</g>
</g>
<!-- Node3 -->
<g id="Node000003" class="node">
<title>Node3</title>
<g id="a_Node000003"><a xlink:href="../../d4/d63/struct_slic3r_1_1_g_u_i_1_1_camera.html#a1ae417ebe8df6e9ee6e95141ecb4b26a" target="_top" xlink:title=" ">
<polygon fill="white" stroke="#666666" points="303.88,-507.5 188.88,-507.5 188.88,-477 303.88,-477 303.88,-507.5"/>
<text text-anchor="start" x="196.88" y="-494" font-family="Helvetica,sans-Serif" font-size="10.00">Slic3r::GUI::Camera</text>
<text text-anchor="middle" x="246.38" y="-482.75" font-family="Helvetica,sans-Serif" font-size="10.00">::get_projection_matrix</text>
</a>
</g>
</g>
<!-- Node1&#45;&gt;Node3 -->
<g id="edge2_Node000001_Node000003" class="edge">
<title>Node1&#45;&gt;Node3</title>
<g id="a_edge2_Node000001_Node000003"><a xlink:title=" ">
<path fill="none" stroke="#63b8ff" d="M74.52,-293.93C85.37,-329.83 116.78,-418.59 174.25,-467.25 175.86,-468.61 177.55,-469.91 179.3,-471.13"/>
<polygon fill="#63b8ff" stroke="#63b8ff" points="177.15,-474.52 187.52,-476.68 180.76,-468.52 177.15,-474.52"/>
</a>
</g>
</g>
<!-- Node4 -->
<g id="Node000004" class="node">
<title>Node4</title>
<g id="a_Node000004"><a xlink:href="../../d4/d63/struct_slic3r_1_1_g_u_i_1_1_camera.html#a729f196d20986b179e054a66572b48a6" target="_top" xlink:title=" ">
<polygon fill="white" stroke="#666666" points="299,-458.5 193.75,-458.5 193.75,-428 299,-428 299,-458.5"/>
<text text-anchor="start" x="201.75" y="-445" font-family="Helvetica,sans-Serif" font-size="10.00">Slic3r::GUI::Camera</text>
<text text-anchor="middle" x="246.38" y="-433.75" font-family="Helvetica,sans-Serif" font-size="10.00">::get_view_matrix</text>
</a>
</g>
</g>
<!-- Node1&#45;&gt;Node4 -->
<g id="edge3_Node000001_Node000004" class="edge">
<title>Node1&#45;&gt;Node4</title>
<g id="a_edge3_Node000001_Node000004"><a xlink:title=" ">
<path fill="none" stroke="#63b8ff" d="M77.61,-293.66C92.26,-322.26 127.42,-383.77 174.25,-418.25 177.24,-420.45 180.44,-422.47 183.77,-424.32"/>
<polygon fill="#63b8ff" stroke="#63b8ff" points="181.9,-427.8 192.41,-429.11 185.01,-421.53 181.9,-427.8"/>
</a>
</g>
</g>
<!-- Node5 -->
<g id="Node000005" class="node">
<title>Node5</title>
<g id="a_Node000005"><a xlink:href="../../d7/d4a/class_slic3r_1_1_g_u_i_1_1_open_g_l_manager_1_1_g_l_info.html#a8bc5de1312270c81e424d398ed36dd80" target="_top" xlink:title=" ">
<polygon fill="white" stroke="#666666" points="318.5,-409.5 174.25,-409.5 174.25,-379 318.5,-379 318.5,-409.5"/>
<text text-anchor="start" x="182.25" y="-396" font-family="Helvetica,sans-Serif" font-size="10.00">Slic3r::GUI::OpenGLManager</text>
<text text-anchor="middle" x="246.38" y="-384.75" font-family="Helvetica,sans-Serif" font-size="10.00">::GLInfo::is_core_profile</text>
</a>
</g>
</g>
<!-- Node1&#45;&gt;Node5 -->
<g id="edge4_Node000001_Node000005" class="edge">
<title>Node1&#45;&gt;Node5</title>
<g id="a_edge4_Node000001_Node000005"><a xlink:title=" ">
<path fill="none" stroke="#63b8ff" d="M84.22,-293.8C103.03,-313.72 138.17,-348.2 174.25,-369.25 177.25,-371 180.38,-372.65 183.6,-374.21"/>
<polygon fill="#63b8ff" stroke="#63b8ff" points="181.88,-377.72 192.44,-378.62 184.74,-371.33 181.88,-377.72"/>
</a>
</g>
</g>
<!-- Node6 -->
<g id="Node000006" class="node">
<title>Node6</title>
<g id="a_Node000006"><a xlink:href="../../d0/d55/class_slic3r_1_1_g_u_i_1_1_g_l_model.html#a6d7d1b734eef38c03744831cdd307cd3" target="_top" xlink:title=" ">
<polygon fill="white" stroke="#666666" points="301.25,-342.5 191.5,-342.5 191.5,-312 301.25,-312 301.25,-342.5"/>
<text text-anchor="start" x="199.5" y="-329" font-family="Helvetica,sans-Serif" font-size="10.00">Slic3r::GUI::GLModel</text>
<text text-anchor="middle" x="246.38" y="-317.75" font-family="Helvetica,sans-Serif" font-size="10.00">::render</text>
</a>
</g>
</g>
<!-- Node1&#45;&gt;Node6 -->
<g id="edge5_Node000001_Node000006" class="edge">
<title>Node1&#45;&gt;Node6</title>
<g id="a_edge5_Node000001_Node000006"><a xlink:title=" ">
<path fill="none" stroke="#63b8ff" d="M126.06,-293.89C143.47,-298.76 162.82,-304.17 180.78,-309.19"/>
<polygon fill="#63b8ff" stroke="#63b8ff" points="179.6,-312.77 190.17,-312.09 181.48,-306.03 179.6,-312.77"/>
</a>
</g>
</g>
<!-- Node9 -->
<g id="Node000009" class="node">
<title>Node9</title>
<g id="a_Node000009"><a xlink:href="../../d3/dfb/namespace_slic3r_1_1_geometry.html#a4fc868bd1cb16ea8141bc0bdce8b8091" target="_top" xlink:title=" ">
<polygon fill="white" stroke="#666666" points="310.25,-244.5 182.5,-244.5 182.5,-214 310.25,-214 310.25,-244.5"/>
<text text-anchor="start" x="190.5" y="-231" font-family="Helvetica,sans-Serif" font-size="10.00">Slic3r::Geometry::rotation</text>
<text text-anchor="middle" x="246.38" y="-219.75" font-family="Helvetica,sans-Serif" font-size="10.00">_transform</text>
</a>
</g>
</g>
<!-- Node1&#45;&gt;Node9 -->
<g id="edge9_Node000001_Node000009" class="edge">
<title>Node1&#45;&gt;Node9</title>
<g id="a_edge9_Node000001_Node000009"><a xlink:title=" ">
<path fill="none" stroke="#63b8ff" d="M126.06,-262.61C142.89,-257.91 161.52,-252.7 178.96,-247.82"/>
<polygon fill="#63b8ff" stroke="#63b8ff" points="179.38,-251.06 188.07,-244.99 177.5,-244.31 179.38,-251.06"/>
</a>
</g>
</g>
<!-- Node14 -->
<g id="Node000014" class="node">
<title>Node14</title>
<g id="a_Node000014"><a xlink:href="../../d0/d55/class_slic3r_1_1_g_u_i_1_1_g_l_model.html#ac827ceb809dc2b0b7e44f088dc873ae4" target="_top" xlink:title=" ">
<polygon fill="white" stroke="#666666" points="301.25,-195.5 191.5,-195.5 191.5,-165 301.25,-165 301.25,-195.5"/>
<text text-anchor="start" x="199.5" y="-182" font-family="Helvetica,sans-Serif" font-size="10.00">Slic3r::GUI::GLModel</text>
<text text-anchor="middle" x="246.38" y="-170.75" font-family="Helvetica,sans-Serif" font-size="10.00">::set_color</text>
</a>
</g>
</g>
<!-- Node1&#45;&gt;Node14 -->
<g id="edge14_Node000001_Node000014" class="edge">
<title>Node1&#45;&gt;Node14</title>
<g id="a_edge14_Node000001_Node000014"><a xlink:title=" ">
<path fill="none" stroke="#63b8ff" d="M89.07,-262.56C109.19,-246.49 142.44,-221.6 174.25,-205.25 177.78,-203.44 181.46,-201.71 185.22,-200.06"/>
<polygon fill="#63b8ff" stroke="#63b8ff" points="186.38,-202.95 194.29,-195.9 183.71,-196.48 186.38,-202.95"/>
</a>
</g>
</g>
<!-- Node15 -->
<g id="Node000015" class="node">
<title>Node15</title>
<g id="a_Node000015"><a xlink:href="../../d6/d61/class_slic3r_1_1_g_l_shader_program.html#a1dacd483d1ec4e034052bba838652bc0" target="_top" xlink:title=" ">
<polygon fill="white" stroke="#666666" points="309.88,-128.5 182.88,-128.5 182.88,-98 309.88,-98 309.88,-128.5"/>
<text text-anchor="start" x="190.88" y="-115" font-family="Helvetica,sans-Serif" font-size="10.00">Slic3r::GLShaderProgram</text>
<text text-anchor="middle" x="246.38" y="-103.75" font-family="Helvetica,sans-Serif" font-size="10.00">::set_uniform</text>
</a>
</g>
</g>
<!-- Node1&#45;&gt;Node15 -->
<g id="edge15_Node000001_Node000015" class="edge">
<title>Node1&#45;&gt;Node15</title>
<g id="a_edge15_Node000001_Node000015"><a xlink:title=" ">
<path fill="none" stroke="#63b8ff" d="M80.93,-262.6C98.49,-237.93 135.2,-189.42 174.25,-156.25 183.78,-148.16 195,-140.62 205.68,-134.19"/>
<polygon fill="#63b8ff" stroke="#63b8ff" points="206.99,-136.89 213.87,-128.83 203.47,-130.84 206.99,-136.89"/>
</a>
</g>
</g>
<!-- Node17 -->
<g id="Node000017" class="node">
<title>Node17</title>
<g id="a_Node000017"><a xlink:href="../../d6/d61/class_slic3r_1_1_g_l_shader_program.html#a20dc1cc84b922e91edd66c52960cbcc8" target="_top" xlink:title=" ">
<polygon fill="white" stroke="#666666" points="309.88,-79.5 182.88,-79.5 182.88,-49 309.88,-49 309.88,-79.5"/>
<text text-anchor="start" x="190.88" y="-66" font-family="Helvetica,sans-Serif" font-size="10.00">Slic3r::GLShaderProgram</text>
<text text-anchor="middle" x="246.38" y="-54.75" font-family="Helvetica,sans-Serif" font-size="10.00">::start_using</text>
</a>
</g>
</g>
<!-- Node1&#45;&gt;Node17 -->
<g id="edge18_Node000001_Node000017" class="edge">
<title>Node1&#45;&gt;Node17</title>
<g id="a_edge18_Node000001_Node000017"><a xlink:title=" ">
<path fill="none" stroke="#63b8ff" d="M74.52,-262.57C85.37,-226.67 116.78,-137.91 174.25,-89.25 175.86,-87.89 177.55,-86.59 179.3,-85.37"/>
<polygon fill="#63b8ff" stroke="#63b8ff" points="180.76,-87.98 187.52,-79.82 177.15,-81.98 180.76,-87.98"/>
</a>
</g>
</g>
<!-- Node18 -->
<g id="Node000018" class="node">
<title>Node18</title>
<g id="a_Node000018"><a xlink:href="../../d6/d61/class_slic3r_1_1_g_l_shader_program.html#afb2404dc15be8d6b04db0082df1d4088" target="_top" xlink:title=" ">
<polygon fill="white" stroke="#666666" points="309.88,-30.5 182.88,-30.5 182.88,0 309.88,0 309.88,-30.5"/>
<text text-anchor="start" x="190.88" y="-17" font-family="Helvetica,sans-Serif" font-size="10.00">Slic3r::GLShaderProgram</text>
<text text-anchor="middle" x="246.38" y="-5.75" font-family="Helvetica,sans-Serif" font-size="10.00">::stop_using</text>
</a>
</g>
</g>
<!-- Node1&#45;&gt;Node18 -->
<g id="edge19_Node000001_Node000018" class="edge">
<title>Node1&#45;&gt;Node18</title>
<g id="a_edge19_Node000001_Node000018"><a xlink:title=" ">
<path fill="none" stroke="#63b8ff" d="M72.54,-262.72C79.85,-220.74 105.66,-103.92 174.25,-40.25 175.6,-39 177.02,-37.8 178.49,-36.67"/>
<polygon fill="#63b8ff" stroke="#63b8ff" points="180.01,-39.21 186.46,-30.81 176.18,-33.35 180.01,-39.21"/>
</a>
</g>
</g>
<!-- Node19 -->
<g id="Node000019" class="node">
<title>Node19</title>
<g id="a_Node000019"><a xlink:href="../../d3/dfb/namespace_slic3r_1_1_geometry.html#a4a0963f7216692dcb42fb4fad1fdb82a" target="_top" xlink:title=" ">
<polygon fill="white" stroke="#666666" points="316.62,-293.5 176.12,-293.5 176.12,-263 316.62,-263 316.62,-293.5"/>
<text text-anchor="start" x="184.12" y="-280" font-family="Helvetica,sans-Serif" font-size="10.00">Slic3r::Geometry::translation</text>
<text text-anchor="middle" x="246.38" y="-268.75" font-family="Helvetica,sans-Serif" font-size="10.00">_transform</text>
</a>
</g>
</g>
<!-- Node1&#45;&gt;Node19 -->
<g id="edge20_Node000001_Node000019" class="edge">
<title>Node1&#45;&gt;Node19</title>
<g id="a_edge20_Node000001_Node000019"><a xlink:title=" ">
<path fill="none" stroke="#63b8ff" d="M138.63,-278.25C147.21,-278.25 156.04,-278.25 164.77,-278.25"/>
<polygon fill="#63b8ff" stroke="#63b8ff" points="164.76,-281.75 174.76,-278.25 164.76,-274.75 164.76,-281.75"/>
</a>
</g>
</g>
<!-- Node6&#45;&gt;Node6 -->
<g id="edge8_Node000006_Node000006" class="edge">
<title>Node6&#45;&gt;Node6</title>
<g id="a_edge8_Node000006_Node000006"><a xlink:title=" ">
<path fill="none" stroke="#63b8ff" d="M215.56,-342.99C209.28,-352.06 219.55,-360.5 246.38,-360.5 261.47,-360.5 271.32,-357.83 275.93,-353.88"/>
<polygon fill="#63b8ff" stroke="#63b8ff" points="279.52,-354.32 277.19,-343.99 272.56,-353.52 279.52,-354.32"/>
</a>
</g>
</g>
<!-- Node7 -->
<g id="Node000007" class="node">
<title>Node7</title>
<g id="a_Node000007"><a xlink:href="../../d0/d55/class_slic3r_1_1_g_u_i_1_1_g_l_model.html#af3c471e7e6a7ddf2286780b6be611da0" target="_top" xlink:title=" ">
<polygon fill="white" stroke="#666666" points="475.12,-347.5 365.38,-347.5 365.38,-317 475.12,-317 475.12,-347.5"/>
<text text-anchor="start" x="373.38" y="-334" font-family="Helvetica,sans-Serif" font-size="10.00">Slic3r::GUI::GLModel</text>
<text text-anchor="middle" x="420.25" y="-322.75" font-family="Helvetica,sans-Serif" font-size="10.00">::indices_count</text>
</a>
</g>
</g>
<!-- Node6&#45;&gt;Node7 -->
<g id="edge6_Node000006_Node000007" class="edge">
<title>Node6&#45;&gt;Node7</title>
<g id="a_edge6_Node000006_Node000007"><a xlink:title=" ">
<path fill="none" stroke="#63b8ff" d="M301.29,-328.82C318.08,-329.31 336.78,-329.85 354.25,-330.36"/>
<polygon fill="#63b8ff" stroke="#63b8ff" points="353.84,-333.88 363.94,-330.67 354.05,-326.88 353.84,-333.88"/>
</a>
</g>
</g>
<!-- Node8 -->
<g id="Node000008" class="node">
<title>Node8</title>
<g id="a_Node000008"><a xlink:href="../../d2/d0b/struct_slic3r_1_1_g_u_i_1_1_g_l_model_1_1_geometry.html#a7c35fd2326389f74e8133f0db0e7d8fa" target="_top" xlink:title=" ">
<polygon fill="white" stroke="#666666" points="652.75,-347.5 522,-347.5 522,-317 652.75,-317 652.75,-347.5"/>
<text text-anchor="start" x="530" y="-334" font-family="Helvetica,sans-Serif" font-size="10.00">Slic3r::GUI::GLModel</text>
<text text-anchor="middle" x="587.38" y="-322.75" font-family="Helvetica,sans-Serif" font-size="10.00">::Geometry::indices_count</text>
</a>
</g>
</g>
<!-- Node7&#45;&gt;Node8 -->
<g id="edge7_Node000007_Node000008" class="edge">
<title>Node7&#45;&gt;Node8</title>
<g id="a_edge7_Node000007_Node000008"><a xlink:title=" ">
<path fill="none" stroke="#63b8ff" d="M475.32,-332.25C486.62,-332.25 498.74,-332.25 510.67,-332.25"/>
<polygon fill="#63b8ff" stroke="#63b8ff" points="510.54,-335.75 520.54,-332.25 510.54,-328.75 510.54,-335.75"/>
</a>
</g>
</g>
<!-- Node10 -->
<g id="Node000010" class="node">
<title>Node10</title>
<g id="a_Node000010"><a xlink:href="../../d5/d00/group___geometry___module.html#a41e2e58b09790eb8e3e220acceb7de1f" target="_top" xlink:title="Returns an identity transformation.">
<polygon fill="white" stroke="#666666" points="486,-299.12 354.5,-299.12 354.5,-257.38 486,-257.38 486,-299.12"/>
<text text-anchor="start" x="362.5" y="-285.62" font-family="Helvetica,sans-Serif" font-size="10.00">Eigen::Transform&lt; double,</text>
<text text-anchor="start" x="362.5" y="-274.38" font-family="Helvetica,sans-Serif" font-size="10.00"> 3, Eigen::Affine, Eigen</text>
<text text-anchor="middle" x="420.25" y="-263.12" font-family="Helvetica,sans-Serif" font-size="10.00">::DontAlign &gt;::Identity</text>
</a>
</g>
</g>
<!-- Node9&#45;&gt;Node10 -->
<g id="edge10_Node000009_Node000010" class="edge">
<title>Node9&#45;&gt;Node10</title>
<g id="a_edge10_Node000009_Node000010"><a xlink:title=" ">
<path fill="none" stroke="#63b8ff" d="M302.23,-244.89C315.38,-248.64 329.66,-252.71 343.57,-256.67"/>
<polygon fill="#63b8ff" stroke="#63b8ff" points="342.53,-260.3 353.11,-259.68 344.45,-253.57 342.53,-260.3"/>
</a>
</g>
</g>
<!-- Node11 -->
<g id="Node000011" class="node">
<title>Node11</title>
<g id="a_Node000011"><a xlink:href="../../de/db8/namespace_slic3r.html#ac438e30f7d61567b77c49f5eeceb0ef2" target="_top" xlink:title=" ">
<polygon fill="white" stroke="#666666" points="464.25,-238.88 376.25,-238.88 376.25,-219.62 464.25,-219.62 464.25,-238.88"/>
<text text-anchor="middle" x="420.25" y="-225.38" font-family="Helvetica,sans-Serif" font-size="10.00">Slic3r::transform</text>
</a>
</g>
</g>
<!-- Node9&#45;&gt;Node11 -->
<g id="edge11_Node000009_Node000011" class="edge">
<title>Node9&#45;&gt;Node11</title>
<g id="a_edge11_Node000009_Node000011"><a xlink:title=" ">
<path fill="none" stroke="#63b8ff" d="M310.4,-229.25C328.41,-229.25 347.87,-229.25 365.28,-229.25"/>
<polygon fill="#63b8ff" stroke="#63b8ff" points="364.83,-232.75 374.83,-229.25 364.83,-225.75 364.83,-232.75"/>
</a>
</g>
</g>
<!-- Node12 -->
<g id="Node000012" class="node">
<title>Node12</title>
<g id="a_Node000012"><a xlink:href="../../da/d8d/class_eigen_1_1_plain_object_base.html#a322d4d48cc285b60e0dff100db522342" target="_top" xlink:title=" ">
<polygon fill="white" stroke="#666666" points="647.12,-244.5 527.62,-244.5 527.62,-214 647.12,-214 647.12,-244.5"/>
<text text-anchor="start" x="535.62" y="-231" font-family="Helvetica,sans-Serif" font-size="10.00">Eigen::PlainObjectBase</text>
<text text-anchor="middle" x="587.38" y="-219.75" font-family="Helvetica,sans-Serif" font-size="10.00">::data</text>
</a>
</g>
</g>
<!-- Node11&#45;&gt;Node12 -->
<g id="edge12_Node000011_Node000012" class="edge">
<title>Node11&#45;&gt;Node12</title>
<g id="a_edge12_Node000011_Node000012"><a xlink:title=" ">
<path fill="none" stroke="#63b8ff" d="M464.63,-229.25C480.46,-229.25 498.79,-229.25 516.34,-229.25"/>
<polygon fill="#63b8ff" stroke="#63b8ff" points="516.14,-232.75 526.14,-229.25 516.14,-225.75 516.14,-232.75"/>
</a>
</g>
</g>
<!-- Node13 -->
<g id="Node000013" class="node">
<title>Node13</title>
<g id="a_Node000013"><a xlink:href="../../d5/d91/class_eigen_1_1_dense_storage.html#abdbbeb487a245756ac498d2590e3560a" target="_top" xlink:title=" ">
<polygon fill="white" stroke="#666666" points="797.75,-244.5 688.75,-244.5 688.75,-214 797.75,-214 797.75,-244.5"/>
<text text-anchor="start" x="696.75" y="-231" font-family="Helvetica,sans-Serif" font-size="10.00">Eigen::DenseStorage</text>
<text text-anchor="middle" x="743.25" y="-219.75" font-family="Helvetica,sans-Serif" font-size="10.00">::data</text>
</a>
</g>
</g>
<!-- Node12&#45;&gt;Node13 -->
<g id="edge13_Node000012_Node000013" class="edge">
<title>Node12&#45;&gt;Node13</title>
<g id="a_edge13_Node000012_Node000013"><a xlink:title=" ">
<path fill="none" stroke="#63b8ff" d="M647.43,-229.25C657.32,-229.25 667.64,-229.25 677.66,-229.25"/>
<polygon fill="#63b8ff" stroke="#63b8ff" points="677.4,-232.75 687.4,-229.25 677.4,-225.75 677.4,-232.75"/>
</a>
</g>
</g>
<!-- Node15&#45;&gt;Node15 -->
<g id="edge17_Node000015_Node000015" class="edge">
<title>Node15&#45;&gt;Node15</title>
<g id="a_edge17_Node000015_Node000015"><a xlink:title=" ">
<path fill="none" stroke="#63b8ff" d="M215.56,-128.99C209.28,-138.06 219.55,-146.5 246.38,-146.5 261.47,-146.5 271.32,-143.83 275.93,-139.88"/>
<polygon fill="#63b8ff" stroke="#63b8ff" points="279.52,-140.32 277.19,-129.99 272.56,-139.52 279.52,-140.32"/>
</a>
</g>
</g>
<!-- Node16 -->
<g id="Node000016" class="node">
<title>Node16</title>
<g id="a_Node000016"><a xlink:href="../../d6/d61/class_slic3r_1_1_g_l_shader_program.html#a2588fce7568146b7279b39d0d2dcfe11" target="_top" xlink:title=" ">
<polygon fill="white" stroke="#666666" points="483.75,-128.5 356.75,-128.5 356.75,-98 483.75,-98 483.75,-128.5"/>
<text text-anchor="start" x="364.75" y="-115" font-family="Helvetica,sans-Serif" font-size="10.00">Slic3r::GLShaderProgram</text>
<text text-anchor="middle" x="420.25" y="-103.75" font-family="Helvetica,sans-Serif" font-size="10.00">::get_uniform_location</text>
</a>
</g>
</g>
<!-- Node15&#45;&gt;Node16 -->
<g id="edge16_Node000015_Node000016" class="edge">
<title>Node15&#45;&gt;Node16</title>
<g id="a_edge16_Node000015_Node000016"><a xlink:title=" ">
<path fill="none" stroke="#63b8ff" d="M309.91,-113.25C321.52,-113.25 333.75,-113.25 345.66,-113.25"/>
<polygon fill="#63b8ff" stroke="#63b8ff" points="345.47,-116.75 355.47,-113.25 345.47,-109.75 345.47,-116.75"/>
</a>
</g>
</g>
<!-- Node19&#45;&gt;Node10 -->
<g id="edge21_Node000019_Node000010" class="edge">
<title>Node19&#45;&gt;Node10</title>
<g id="a_edge21_Node000019_Node000010"><a xlink:title=" ">
<path fill="none" stroke="#63b8ff" d="M316.79,-278.25C325.43,-278.25 334.31,-278.25 343.06,-278.25"/>
<polygon fill="#63b8ff" stroke="#63b8ff" points="343.03,-281.75 353.03,-278.25 343.03,-274.75 343.03,-281.75"/>
</a>
</g>
</g>
<!-- Node19&#45;&gt;Node11 -->
<g id="edge22_Node000019_Node000011" class="edge">
<title>Node19&#45;&gt;Node11</title>
<g id="a_edge22_Node000019_Node000011"><a xlink:title=" ">
<path fill="none" stroke="#63b8ff" d="M302.23,-262.61C325.19,-256.06 351.58,-248.54 373.48,-242.3"/>
<polygon fill="#63b8ff" stroke="#63b8ff" points="374.18,-245.45 382.83,-239.35 372.26,-238.72 374.18,-245.45"/>
</a>
</g>
</g>
</g>
</svg>

<g id="navigator" transform="translate(0 0)" fill="#404254">
  <rect fill="#f2f5e9" fill-opacity="0.5" stroke="#606060" stroke-width=".5" x="0" y="0" width="60" height="60"/>
  <use id="zoomplus" xlink:href="#zoomPlus" x="17" y="9" onmousedown="handleZoom(evt,'in')"/>
  <use id="zoomminus" xlink:href="#zoomMin" x="42" y="9" onmousedown="handleZoom(evt,'out')"/>
  <use id="reset" xlink:href="#resetDef" x="30" y="36" onmousedown="handleReset()"/>
   <use id="arrowup" xlink:href="#arrowUp" x="0" y="0" onmousedown="handlePan(0,-1)"/>
  <use id="arrowright" xlink:href="#arrowRight" x="0" y="0" onmousedown="handlePan(1,0)"/>
  <use id="arrowdown" xlink:href="#arrowDown" x="0" y="0" onmousedown="handlePan(0,1)"/>
  <use id="arrowleft" xlink:href="#arrowLeft" x="0" y="0" onmousedown="handlePan(-1,0)"/>
</g>
<svg viewBox="0 0 15 15" width="100%" height="30px" preserveAspectRatio="xMaxYMin meet">
 <g id="arrow_out" transform="scale(0.3 0.3)">
  <a xlink:href="class_slic3r_1_1_g_u_i_1_1_g_l_gizmo_cut3_d_a0ce7a39b3ad426f2d0310a6f0333821c_cgraph_org.svg" target="_base">
   <rect id="button" ry="5" rx="5" y="6" x="6" height="38" width="38"
        fill="#f2f5e9" fill-opacity="0.5" stroke="#606060" stroke-width="1.0"/>
   <path id="arrow"
     d="M 11.500037,31.436501 C 11.940474,20.09759 22.043105,11.32322 32.158766,21.979434 L 37.068811,17.246167 C 37.068811,17.246167 37.088388,32 37.088388,32 L 22.160133,31.978069 C 22.160133,31.978069 26.997745,27.140456 26.997745,27.140456 C 18.528582,18.264221 13.291696,25.230495 11.500037,31.436501 z"
     style="fill:#404040;"/>
  </a>
 </g>
</svg>

<style type='text/css'>
<![CDATA[
[data-mouse-over-selected='false'] { opacity: 0.7; }
[data-mouse-over-selected='true']  { opacity: 1.0; }
]]>
</style>
<script type="application/ecmascript"><![CDATA[
document.addEventListener('DOMContentLoaded', (event) => {
  highlightEdges();
  highlightAdjacentNodes();
});
]]></script>
</svg>
