<?xml version="1.0" encoding="UTF-8" standalone="no"?>
<!DOCTYPE svg PUBLIC "-//W3C//DTD SVG 1.1//EN"
 "http://www.w3.org/Graphics/SVG/1.1/DTD/svg11.dtd">
<!-- Generated by graphviz version 8.0.5 (20230430.1635)
 -->
<!-- Title: Slic3r::GUI::GLGizmoCut3D::is_conflict_for_connector Pages: 1 -->
<!--zoomable 448 -->

<svg id="main" version="1.1" xmlns="http://www.w3.org/2000/svg" xmlns:xlink="http://www.w3.org/1999/xlink" xml:space="preserve" onload="init(evt)">
<style type="text/css"><![CDATA[
.node, .edge {opacity: 0.7;}
.node.selected, .edge.selected {opacity: 1;}
.edge:hover path { stroke: red; }
.edge:hover polygon { stroke: red; fill: red; }
]]></style>

<defs>
  <circle id="rim" cx="0" cy="0" r="7"/>
  <circle id="rim2" cx="0" cy="0" r="3.5"/>
  <g id="zoomPlus">
    <use xlink:href="#rim" fill="#404040"><set attributeName="fill" to="#808080" begin="zoomplus.mouseover" end="zoomplus.mouseout"/></use>
    <path d="M-4,0h8M0,-4v8" fill="none" stroke="white" stroke-width="1.5" pointer-events="none"/>
  </g>
  <g id="zoomMin">
    <use xlink:href="#rim" fill="#404040"><set attributeName="fill" to="#808080" begin="zoomminus.mouseover" end="zoomminus.mouseout"/></use>
    <path d="M-4,0h8" fill="none" stroke="white" stroke-width="1.5" pointer-events="none"/>
  </g>
  <g id="arrowUp" transform="translate(30 24)">
    <use xlink:href="#rim"/>
    <path pointer-events="none" fill="none" stroke="white" stroke-width="1.5" d="M0,-3.0v7 M-2.5,-0.5L0,-3.0L2.5,-0.5"/>
  </g>
  <g id="arrowRight" transform="rotate(90) translate(36 -43)">
    <use xlink:href="#rim"/>
    <path pointer-events="none" fill="none" stroke="white" stroke-width="1.5" d="M0,-3.0v7 M-2.5,-0.5L0,-3.0L2.5,-0.5"/>
  </g>
  <g id="arrowDown" transform="rotate(180) translate(-30 -48)">
    <use xlink:href="#rim"/>
    <path pointer-events="none" fill="none" stroke="white" stroke-width="1.5" d="M0,-3.0v7 M-2.5,-0.5L0,-3.0L2.5,-0.5"/>
  </g>
  <g id="arrowLeft" transform="rotate(270) translate(-36 17)">
    <use xlink:href="#rim"/>
    <path pointer-events="none" fill="none" stroke="white" stroke-width="1.5" d="M0,-3.0v7 M-2.5,-0.5L0,-3.0L2.5,-0.5"/>
  </g>
  <g id="resetDef">
    <use xlink:href="#rim2" fill="#404040"><set attributeName="fill" to="#808080" begin="reset.mouseover" end="reset.mouseout"/></use>
  </g>
</defs>
<script type="application/ecmascript">
var viewWidth = 987;
var viewHeight = 448;
var sectionId = 'dynsection-69';
</script>
<script type="application/ecmascript" xlink:href="../../svg.min.js"/>
<svg id="graph" class="graph">
<g id="viewport">
<title>Slic3r::GUI::GLGizmoCut3D::is_conflict_for_connector</title>
<!-- Node1 -->
<g id="Node000001" class="node">
<title>Node1</title>
<g id="a_Node000001"><a xlink:title=" ">
<polygon fill="#999999" stroke="#666666" points="138.25,-187.88 0,-187.88 0,-157.38 138.25,-157.38 138.25,-187.88"/>
<text text-anchor="start" x="8" y="-174.38" font-family="Helvetica,sans-Serif" font-size="10.00">Slic3r::GUI::GLGizmoCut3</text>
<text text-anchor="middle" x="69.12" y="-163.12" font-family="Helvetica,sans-Serif" font-size="10.00">D::is_conflict_for_connector</text>
</a>
</g>
</g>
<!-- Node2 -->
<g id="Node000002" class="node">
<title>Node2</title>
<g id="a_Node000002"><a xlink:href="../../da/d00/class_slic3r_1_1_bounding_box3_base.html#afb8cfbfde0667fbacf710e8971bd5186" target="_top" xlink:title=" ">
<polygon fill="white" stroke="#666666" points="312.12,-368.88 179.88,-368.88 179.88,-338.38 312.12,-338.38 312.12,-368.88"/>
<text text-anchor="start" x="187.88" y="-355.38" font-family="Helvetica,sans-Serif" font-size="10.00">Slic3r::BoundingBox3Base</text>
<text text-anchor="middle" x="246" y="-344.12" font-family="Helvetica,sans-Serif" font-size="10.00">::contains</text>
</a>
</g>
</g>
<!-- Node1&#45;&gt;Node2 -->
<g id="edge1_Node000001_Node000002" class="edge">
<title>Node1&#45;&gt;Node2</title>
<g id="a_edge1_Node000001_Node000002"><a xlink:title=" ">
<path fill="none" stroke="#63b8ff" d="M85.34,-188.37C116.16,-220.28 186.13,-292.69 222.34,-330.17"/>
<polygon fill="#63b8ff" stroke="#63b8ff" points="219.48,-332.28 228.95,-337.04 224.52,-327.42 219.48,-332.28"/>
</a>
</g>
</g>
<!-- Node4 -->
<g id="Node000004" class="node">
<title>Node4</title>
<g id="a_Node000004"><a xlink:href="../../d8/d38/class_slic3r_1_1_g_u_i_1_1_g_l_gizmo_cut3_d.html#a9a66103536e253b76b14e9ae4bca652c" target="_top" xlink:title=" ">
<polygon fill="white" stroke="#666666" points="317.75,-224.88 174.25,-224.88 174.25,-194.38 317.75,-194.38 317.75,-224.88"/>
<text text-anchor="start" x="182.25" y="-211.38" font-family="Helvetica,sans-Serif" font-size="10.00">Slic3r::GUI::GLGizmoCut3</text>
<text text-anchor="middle" x="246" y="-200.12" font-family="Helvetica,sans-Serif" font-size="10.00">D::is_outside_of_cut_contour</text>
</a>
</g>
</g>
<!-- Node1&#45;&gt;Node4 -->
<g id="edge3_Node000001_Node000004" class="edge">
<title>Node1&#45;&gt;Node4</title>
<g id="a_edge3_Node000001_Node000004"><a xlink:title=" ">
<path fill="none" stroke="#63b8ff" d="M138.74,-187.14C146.79,-188.85 155.06,-190.6 163.27,-192.33"/>
<polygon fill="#63b8ff" stroke="#63b8ff" points="162.49,-195.96 172.99,-194.6 163.94,-189.11 162.49,-195.96"/>
</a>
</g>
</g>
<!-- Node13 -->
<g id="Node000013" class="node">
<title>Node13</title>
<g id="a_Node000013"><a xlink:href="../../d3/dfb/namespace_slic3r_1_1_geometry.html#a4a0963f7216692dcb42fb4fad1fdb82a" target="_top" xlink:title=" ">
<polygon fill="white" stroke="#666666" points="496.12,-108.88 355.62,-108.88 355.62,-78.38 496.12,-78.38 496.12,-108.88"/>
<text text-anchor="start" x="363.62" y="-95.38" font-family="Helvetica,sans-Serif" font-size="10.00">Slic3r::Geometry::translation</text>
<text text-anchor="middle" x="425.88" y="-84.12" font-family="Helvetica,sans-Serif" font-size="10.00">_transform</text>
</a>
</g>
</g>
<!-- Node1&#45;&gt;Node13 -->
<g id="edge22_Node000001_Node000013" class="edge">
<title>Node1&#45;&gt;Node13</title>
<g id="a_edge22_Node000001_Node000013"><a xlink:title=" ">
<path fill="none" stroke="#63b8ff" d="M138.52,-157.39C197.43,-144.27 282.52,-125.33 344.63,-111.49"/>
<polygon fill="#63b8ff" stroke="#63b8ff" points="345.17,-114.74 354.17,-109.15 343.65,-107.9 345.17,-114.74"/>
</a>
</g>
</g>
<!-- Node18 -->
<g id="Node000018" class="node">
<title>Node18</title>
<g id="a_Node000018"><a xlink:href="../../d3/dfb/namespace_slic3r_1_1_geometry.html#ace9b3758efd9d57ecf14d365f70b679c" target="_top" xlink:title=" ">
<polygon fill="white" stroke="#666666" points="305.38,-62.88 186.62,-62.88 186.62,-32.38 305.38,-32.38 305.38,-62.88"/>
<text text-anchor="start" x="194.62" y="-49.38" font-family="Helvetica,sans-Serif" font-size="10.00">Slic3r::Geometry::scale</text>
<text text-anchor="middle" x="246" y="-38.12" font-family="Helvetica,sans-Serif" font-size="10.00">_transform</text>
</a>
</g>
</g>
<!-- Node1&#45;&gt;Node18 -->
<g id="edge18_Node000001_Node000018" class="edge">
<title>Node1&#45;&gt;Node18</title>
<g id="a_edge18_Node000001_Node000018"><a xlink:title=" ">
<path fill="none" stroke="#63b8ff" d="M91.92,-157.05C122.77,-135 179.3,-94.59 214.36,-69.53"/>
<polygon fill="#63b8ff" stroke="#63b8ff" points="216.11,-71.87 222.21,-63.2 212.04,-66.17 216.11,-71.87"/>
</a>
</g>
</g>
<!-- Node3 -->
<g id="Node000003" class="node">
<title>Node3</title>
<g id="a_Node000003"><a xlink:href="../../dc/d28/class_slic3r_1_1_bounding_box_base.html#a95f665e7b8a5036c835f1bdb55d5bc59" target="_top" xlink:title=" ">
<polygon fill="white" stroke="#666666" points="489.38,-439.88 362.38,-439.88 362.38,-409.38 489.38,-409.38 489.38,-439.88"/>
<text text-anchor="start" x="370.38" y="-426.38" font-family="Helvetica,sans-Serif" font-size="10.00">Slic3r::BoundingBoxBase</text>
<text text-anchor="middle" x="425.88" y="-415.12" font-family="Helvetica,sans-Serif" font-size="10.00">::contains</text>
</a>
</g>
</g>
<!-- Node2&#45;&gt;Node3 -->
<g id="edge2_Node000002_Node000003" class="edge">
<title>Node2&#45;&gt;Node3</title>
<g id="a_edge2_Node000002_Node000003"><a xlink:title=" ">
<path fill="none" stroke="#63b8ff" d="M280.33,-369.22C301.23,-378.76 328.83,-390.96 353.75,-400.62 357.85,-402.22 362.11,-403.8 366.4,-405.36"/>
<polygon fill="#63b8ff" stroke="#63b8ff" points="364.86,-408.89 375.46,-408.94 367.21,-402.29 364.86,-408.89"/>
</a>
</g>
</g>
<!-- Node5 -->
<g id="Node000005" class="node">
<title>Node5</title>
<g id="a_Node000005"><a xlink:href="../../de/db8/namespace_slic3r.html#a7927d0ca1b31b8f9284ea268b11d27d5" target="_top" xlink:title=" ">
<polygon fill="white" stroke="#666666" points="460.88,-391.25 390.88,-391.25 390.88,-372 460.88,-372 460.88,-391.25"/>
<text text-anchor="middle" x="425.88" y="-377.75" font-family="Helvetica,sans-Serif" font-size="10.00">Slic3r::angle</text>
</a>
</g>
</g>
<!-- Node4&#45;&gt;Node5 -->
<g id="edge4_Node000004_Node000005" class="edge">
<title>Node4&#45;&gt;Node5</title>
<g id="a_edge4_Node000004_Node000005"><a xlink:title=" ">
<path fill="none" stroke="#63b8ff" d="M255.97,-225.19C276.49,-260.28 327.09,-343.94 353.75,-362.62 361.58,-368.11 370.91,-372.02 380.2,-374.79"/>
<polygon fill="#63b8ff" stroke="#63b8ff" points="379.02,-378.36 389.58,-377.47 380.77,-371.59 379.02,-378.36"/>
</a>
</g>
</g>
<!-- Node7 -->
<g id="Node000007" class="node">
<title>Node7</title>
<g id="a_Node000007"><a xlink:href="../../d3/d08/class_slic3r_1_1_g_u_i_1_1_g_l_gizmo_cut3_d_1_1_part_selection.html#a62d40df0ad2f9de445c31bcdb8ea05c8" target="_top" xlink:title=" ">
<polygon fill="white" stroke="#666666" points="492.38,-353.5 359.38,-353.5 359.38,-311.75 492.38,-311.75 492.38,-353.5"/>
<text text-anchor="start" x="367.38" y="-340" font-family="Helvetica,sans-Serif" font-size="10.00">Slic3r::GUI::GLGizmoCut3</text>
<text text-anchor="start" x="367.38" y="-328.75" font-family="Helvetica,sans-Serif" font-size="10.00">D::PartSelection::get</text>
<text text-anchor="middle" x="425.88" y="-317.5" font-family="Helvetica,sans-Serif" font-size="10.00">_ignored_contours_ptr</text>
</a>
</g>
</g>
<!-- Node4&#45;&gt;Node7 -->
<g id="edge6_Node000004_Node000007" class="edge">
<title>Node4&#45;&gt;Node7</title>
<g id="a_edge6_Node000004_Node000007"><a xlink:title=" ">
<path fill="none" stroke="#63b8ff" d="M263.43,-225.25C283.63,-243.94 319.45,-275.48 353.75,-297.62 358.33,-300.58 363.19,-303.46 368.15,-306.22"/>
<polygon fill="#63b8ff" stroke="#63b8ff" points="366.26,-309.71 376.73,-311.35 369.57,-303.54 366.26,-309.71"/>
</a>
</g>
</g>
<!-- Node8 -->
<g id="Node000008" class="node">
<title>Node8</title>
<g id="a_Node000008"><a xlink:href="../../d3/d08/class_slic3r_1_1_g_u_i_1_1_g_l_gizmo_cut3_d_1_1_part_selection.html#aa3dd344ccbd6bb8bc3b94aaea90c7780" target="_top" xlink:title=" ">
<polygon fill="white" stroke="#666666" points="672.62,-322.88 539.62,-322.88 539.62,-292.38 672.62,-292.38 672.62,-322.88"/>
<text text-anchor="start" x="547.62" y="-309.38" font-family="Helvetica,sans-Serif" font-size="10.00">Slic3r::GUI::GLGizmoCut3</text>
<text text-anchor="middle" x="606.12" y="-298.12" font-family="Helvetica,sans-Serif" font-size="10.00">D::PartSelection::valid</text>
</a>
</g>
</g>
<!-- Node4&#45;&gt;Node8 -->
<g id="edge17_Node000004_Node000008" class="edge">
<title>Node4&#45;&gt;Node8</title>
<g id="a_edge17_Node000004_Node000008"><a xlink:title=" ">
<path fill="none" stroke="#63b8ff" d="M271.92,-225.26C292.96,-237.76 324.29,-254.78 353.75,-264.62 410.67,-283.65 477.79,-294.58 528.35,-300.66"/>
<polygon fill="#63b8ff" stroke="#63b8ff" points="527.87,-304.24 538.2,-301.92 528.67,-297.29 527.87,-304.24"/>
</a>
</g>
</g>
<!-- Node9 -->
<g id="Node000009" class="node">
<title>Node9</title>
<g id="a_Node000009"><a xlink:href="../../dd/d99/class_slic3r_1_1_g_u_i_1_1_common_gizmos_data_objects_1_1_object_clipper.html#a6cc0649336daa8e54fc2d21ea67f57c3" target="_top" xlink:title=" ">
<polygon fill="white" stroke="#666666" points="498,-255.5 353.75,-255.5 353.75,-213.75 498,-213.75 498,-255.5"/>
<text text-anchor="start" x="361.75" y="-242" font-family="Helvetica,sans-Serif" font-size="10.00">Slic3r::GUI::CommonGizmos</text>
<text text-anchor="start" x="361.75" y="-230.75" font-family="Helvetica,sans-Serif" font-size="10.00">DataObjects::ObjectClipper</text>
<text text-anchor="middle" x="425.88" y="-219.5" font-family="Helvetica,sans-Serif" font-size="10.00">::is_projection_inside_cut</text>
</a>
</g>
</g>
<!-- Node4&#45;&gt;Node9 -->
<g id="edge8_Node000004_Node000009" class="edge">
<title>Node4&#45;&gt;Node9</title>
<g id="a_edge8_Node000004_Node000009"><a xlink:title=" ">
<path fill="none" stroke="#63b8ff" d="M318.07,-219.61C326.14,-220.75 334.42,-221.91 342.62,-223.06"/>
<polygon fill="#63b8ff" stroke="#63b8ff" points="341.95,-226.64 352.34,-224.57 342.92,-219.71 341.95,-226.64"/>
</a>
</g>
</g>
<!-- Node10 -->
<g id="Node000010" class="node">
<title>Node10</title>
<g id="a_Node000010"><a xlink:href="../../d5/d51/stl_8h.html#a9778902b3aa1da8eff2d53ec6f65d638" target="_top" xlink:title=" ">
<polygon fill="white" stroke="#666666" points="462.38,-195.25 389.38,-195.25 389.38,-176 462.38,-176 462.38,-195.25"/>
<text text-anchor="middle" x="425.88" y="-181.75" font-family="Helvetica,sans-Serif" font-size="10.00">its_transform</text>
</a>
</g>
</g>
<!-- Node4&#45;&gt;Node10 -->
<g id="edge9_Node000004_Node000010" class="edge">
<title>Node4&#45;&gt;Node10</title>
<g id="a_edge9_Node000004_Node000010"><a xlink:title=" ">
<path fill="none" stroke="#63b8ff" d="M318.07,-200.04C338.36,-197.3 359.94,-194.39 378.36,-191.9"/>
<polygon fill="#63b8ff" stroke="#63b8ff" points="378.64,-195.26 388.08,-190.45 377.71,-188.32 378.64,-195.26"/>
</a>
</g>
</g>
<!-- Node11 -->
<g id="Node000011" class="node">
<title>Node11</title>
<g id="a_Node000011"><a xlink:href="../../d5/d4e/class_slic3r_1_1_g_u_i_1_1_common_gizmos_data_pool.html#a490109a2bc5e25f3dbcb9db50d792acd" target="_top" xlink:title=" ">
<polygon fill="white" stroke="#666666" points="498,-157.88 353.75,-157.88 353.75,-127.38 498,-127.38 498,-157.88"/>
<text text-anchor="start" x="361.75" y="-144.38" font-family="Helvetica,sans-Serif" font-size="10.00">Slic3r::GUI::CommonGizmos</text>
<text text-anchor="middle" x="425.88" y="-133.12" font-family="Helvetica,sans-Serif" font-size="10.00">DataPool::object_clipper</text>
</a>
</g>
</g>
<!-- Node4&#45;&gt;Node11 -->
<g id="edge10_Node000004_Node000011" class="edge">
<title>Node4&#45;&gt;Node11</title>
<g id="a_edge10_Node000004_Node000011"><a xlink:title=" ">
<path fill="none" stroke="#63b8ff" d="M284.34,-193.97C304.74,-185.57 330.51,-175.22 353.75,-166.62 358.13,-165 362.68,-163.37 367.26,-161.75"/>
<polygon fill="#63b8ff" stroke="#63b8ff" points="368.01,-164.85 376.3,-158.26 365.71,-158.24 368.01,-164.85"/>
</a>
</g>
</g>
<!-- Node4&#45;&gt;Node13 -->
<g id="edge12_Node000004_Node000013" class="edge">
<title>Node4&#45;&gt;Node13</title>
<g id="a_edge12_Node000004_Node000013"><a xlink:title=" ">
<path fill="none" stroke="#63b8ff" d="M277.23,-194.06C290.44,-186.47 305.64,-176.61 317.75,-165.62 337.24,-147.95 332.45,-134.08 353.75,-118.62 355.88,-117.08 358.12,-115.62 360.43,-114.25"/>
<polygon fill="#63b8ff" stroke="#63b8ff" points="361.46,-117.13 368.65,-109.36 358.18,-110.95 361.46,-117.13"/>
</a>
</g>
</g>
<!-- Node6 -->
<g id="Node000006" class="node">
<title>Node6</title>
<g id="a_Node000006"><a xlink:href="../../de/db8/namespace_slic3r.html#a2cd973ab8e7af30bd57721dfc2859b8f" target="_top" xlink:title=" ">
<polygon fill="white" stroke="#666666" points="644.12,-391.25 568.12,-391.25 568.12,-372 644.12,-372 644.12,-391.25"/>
<text text-anchor="middle" x="606.12" y="-377.75" font-family="Helvetica,sans-Serif" font-size="10.00">Slic3r::cross2</text>
</a>
</g>
</g>
<!-- Node5&#45;&gt;Node6 -->
<g id="edge5_Node000005_Node000006" class="edge">
<title>Node5&#45;&gt;Node6</title>
<g id="a_edge5_Node000005_Node000006"><a xlink:title=" ">
<path fill="none" stroke="#63b8ff" d="M461.24,-381.62C488.45,-381.62 526.78,-381.62 557.04,-381.62"/>
<polygon fill="#63b8ff" stroke="#63b8ff" points="556.79,-385.13 566.79,-381.62 556.79,-378.13 556.79,-385.13"/>
</a>
</g>
</g>
<!-- Node7&#45;&gt;Node8 -->
<g id="edge7_Node000007_Node000008" class="edge">
<title>Node7&#45;&gt;Node8</title>
<g id="a_edge7_Node000007_Node000008"><a xlink:title=" ">
<path fill="none" stroke="#63b8ff" d="M492.74,-323.39C504.36,-321.76 516.54,-320.05 528.43,-318.38"/>
<polygon fill="#63b8ff" stroke="#63b8ff" points="528.81,-321.72 538.23,-316.87 527.84,-314.79 528.81,-321.72"/>
</a>
</g>
</g>
<!-- Node12 -->
<g id="Node000012" class="node">
<title>Node12</title>
<g id="a_Node000012"><a xlink:href="../../dc/de9/class_slic3r_1_1_g_u_i_1_1_common_gizmos_data_base.html#a857bb436ea2985183ee7d258d015b90b" target="_top" xlink:title=" ">
<polygon fill="white" stroke="#666666" points="678.25,-163.88 534,-163.88 534,-133.38 678.25,-133.38 678.25,-163.88"/>
<text text-anchor="start" x="542" y="-150.38" font-family="Helvetica,sans-Serif" font-size="10.00">Slic3r::GUI::CommonGizmos</text>
<text text-anchor="middle" x="606.12" y="-139.12" font-family="Helvetica,sans-Serif" font-size="10.00">DataBase::is_valid</text>
</a>
</g>
</g>
<!-- Node11&#45;&gt;Node12 -->
<g id="edge11_Node000011_Node000012" class="edge">
<title>Node11&#45;&gt;Node12</title>
<g id="a_edge11_Node000011_Node000012"><a xlink:title=" ">
<path fill="none" stroke="#63b8ff" d="M498.35,-145.03C506.34,-145.3 514.53,-145.58 522.64,-145.85"/>
<polygon fill="#63b8ff" stroke="#63b8ff" points="522.52,-149.38 532.63,-146.22 522.76,-142.38 522.52,-149.38"/>
</a>
</g>
</g>
<!-- Node14 -->
<g id="Node000014" class="node">
<title>Node14</title>
<g id="a_Node000014"><a xlink:href="../../d5/d00/group___geometry___module.html#a41e2e58b09790eb8e3e220acceb7de1f" target="_top" xlink:title="Returns an identity transformation.">
<polygon fill="white" stroke="#666666" points="671.88,-115.5 540.38,-115.5 540.38,-73.75 671.88,-73.75 671.88,-115.5"/>
<text text-anchor="start" x="548.38" y="-102" font-family="Helvetica,sans-Serif" font-size="10.00">Eigen::Transform&lt; double,</text>
<text text-anchor="start" x="548.38" y="-90.75" font-family="Helvetica,sans-Serif" font-size="10.00"> 3, Eigen::Affine, Eigen</text>
<text text-anchor="middle" x="606.12" y="-79.5" font-family="Helvetica,sans-Serif" font-size="10.00">::DontAlign &gt;::Identity</text>
</a>
</g>
</g>
<!-- Node13&#45;&gt;Node14 -->
<g id="edge13_Node000013_Node000014" class="edge">
<title>Node13&#45;&gt;Node14</title>
<g id="a_edge13_Node000013_Node000014"><a xlink:title=" ">
<path fill="none" stroke="#63b8ff" d="M496.56,-94.02C507.32,-94.08 518.49,-94.14 529.38,-94.2"/>
<polygon fill="#63b8ff" stroke="#63b8ff" points="529.13,-97.7 539.15,-94.26 529.17,-90.7 529.13,-97.7"/>
</a>
</g>
</g>
<!-- Node15 -->
<g id="Node000015" class="node">
<title>Node15</title>
<g id="a_Node000015"><a xlink:href="../../de/db8/namespace_slic3r.html#ac438e30f7d61567b77c49f5eeceb0ef2" target="_top" xlink:title=" ">
<polygon fill="white" stroke="#666666" points="650.12,-55.25 562.12,-55.25 562.12,-36 650.12,-36 650.12,-55.25"/>
<text text-anchor="middle" x="606.12" y="-41.75" font-family="Helvetica,sans-Serif" font-size="10.00">Slic3r::transform</text>
</a>
</g>
</g>
<!-- Node13&#45;&gt;Node15 -->
<g id="edge14_Node000013_Node000015" class="edge">
<title>Node13&#45;&gt;Node15</title>
<g id="a_edge14_Node000013_Node000015"><a xlink:title=" ">
<path fill="none" stroke="#63b8ff" d="M484.69,-77.94C500.66,-73.61 518,-68.93 534,-64.62 541.47,-62.62 549.38,-60.5 557.1,-58.43"/>
<polygon fill="#63b8ff" stroke="#63b8ff" points="557.71,-61.62 566.47,-55.66 555.9,-54.86 557.71,-61.62"/>
</a>
</g>
</g>
<!-- Node16 -->
<g id="Node000016" class="node">
<title>Node16</title>
<g id="a_Node000016"><a xlink:href="../../da/d8d/class_eigen_1_1_plain_object_base.html#a322d4d48cc285b60e0dff100db522342" target="_top" xlink:title=" ">
<polygon fill="white" stroke="#666666" points="833.75,-60.88 714.25,-60.88 714.25,-30.38 833.75,-30.38 833.75,-60.88"/>
<text text-anchor="start" x="722.25" y="-47.38" font-family="Helvetica,sans-Serif" font-size="10.00">Eigen::PlainObjectBase</text>
<text text-anchor="middle" x="774" y="-36.12" font-family="Helvetica,sans-Serif" font-size="10.00">::data</text>
</a>
</g>
</g>
<!-- Node15&#45;&gt;Node16 -->
<g id="edge15_Node000015_Node000016" class="edge">
<title>Node15&#45;&gt;Node16</title>
<g id="a_edge15_Node000015_Node000016"><a xlink:title=" ">
<path fill="none" stroke="#63b8ff" d="M650.27,-45.62C666.33,-45.62 685,-45.62 702.85,-45.62"/>
<polygon fill="#63b8ff" stroke="#63b8ff" points="702.83,-49.13 712.83,-45.62 702.83,-42.13 702.83,-49.13"/>
</a>
</g>
</g>
<!-- Node17 -->
<g id="Node000017" class="node">
<title>Node17</title>
<g id="a_Node000017"><a xlink:href="../../d5/d91/class_eigen_1_1_dense_storage.html#abdbbeb487a245756ac498d2590e3560a" target="_top" xlink:title=" ">
<polygon fill="white" stroke="#666666" points="978.75,-60.88 869.75,-60.88 869.75,-30.38 978.75,-30.38 978.75,-60.88"/>
<text text-anchor="start" x="877.75" y="-47.38" font-family="Helvetica,sans-Serif" font-size="10.00">Eigen::DenseStorage</text>
<text text-anchor="middle" x="924.25" y="-36.12" font-family="Helvetica,sans-Serif" font-size="10.00">::data</text>
</a>
</g>
</g>
<!-- Node16&#45;&gt;Node17 -->
<g id="edge16_Node000016_Node000017" class="edge">
<title>Node16&#45;&gt;Node17</title>
<g id="a_edge16_Node000016_Node000017"><a xlink:title=" ">
<path fill="none" stroke="#63b8ff" d="M834.02,-45.62C842.22,-45.62 850.67,-45.62 858.96,-45.62"/>
<polygon fill="#63b8ff" stroke="#63b8ff" points="858.72,-49.13 868.72,-45.62 858.72,-42.13 858.72,-49.13"/>
</a>
</g>
</g>
<!-- Node18&#45;&gt;Node15 -->
<g id="edge21_Node000018_Node000015" class="edge">
<title>Node18&#45;&gt;Node15</title>
<g id="a_edge21_Node000018_Node000015"><a xlink:title=" ">
<path fill="none" stroke="#63b8ff" d="M305.74,-47.3C373.74,-46.92 484.82,-46.3 550.86,-45.93"/>
<polygon fill="#63b8ff" stroke="#63b8ff" points="550.87,-49.42 560.85,-45.87 550.83,-42.42 550.87,-49.42"/>
</a>
</g>
</g>
<!-- Node18&#45;&gt;Node18 -->
<g id="edge20_Node000018_Node000018" class="edge">
<title>Node18&#45;&gt;Node18</title>
<g id="a_edge20_Node000018_Node000018"><a xlink:title=" ">
<path fill="none" stroke="#63b8ff" d="M214.66,-63.36C208.26,-72.43 218.71,-80.88 246,-80.88 261.35,-80.88 271.37,-78.2 276.07,-74.25"/>
<polygon fill="#63b8ff" stroke="#63b8ff" points="279.65,-74.7 277.34,-64.36 272.7,-73.89 279.65,-74.7"/>
</a>
</g>
</g>
<!-- Node19 -->
<g id="Node000019" class="node">
<title>Node19</title>
<g id="a_Node000019"><a xlink:href="../../d6/dba/_wipe_tower_dialog_8cpp.html#a031c2862b832be718b216d1f101f88cd" target="_top" xlink:title=" ">
<polygon fill="white" stroke="#666666" points="445.5,-19.25 406.25,-19.25 406.25,0 445.5,0 445.5,-19.25"/>
<text text-anchor="middle" x="425.88" y="-5.75" font-family="Helvetica,sans-Serif" font-size="10.00">scale</text>
</a>
</g>
</g>
<!-- Node18&#45;&gt;Node19 -->
<g id="edge19_Node000018_Node000019" class="edge">
<title>Node18&#45;&gt;Node19</title>
<g id="a_edge19_Node000018_Node000019"><a xlink:title=" ">
<path fill="none" stroke="#63b8ff" d="M305.74,-35.08C335.79,-28.66 371.06,-21.12 395.38,-15.93"/>
<polygon fill="#63b8ff" stroke="#63b8ff" points="396.01,-19.16 405.05,-13.65 394.54,-12.31 396.01,-19.16"/>
</a>
</g>
</g>
</g>
</svg>

<g id="navigator" transform="translate(0 0)" fill="#404254">
  <rect fill="#f2f5e9" fill-opacity="0.5" stroke="#606060" stroke-width=".5" x="0" y="0" width="60" height="60"/>
  <use id="zoomplus" xlink:href="#zoomPlus" x="17" y="9" onmousedown="handleZoom(evt,'in')"/>
  <use id="zoomminus" xlink:href="#zoomMin" x="42" y="9" onmousedown="handleZoom(evt,'out')"/>
  <use id="reset" xlink:href="#resetDef" x="30" y="36" onmousedown="handleReset()"/>
   <use id="arrowup" xlink:href="#arrowUp" x="0" y="0" onmousedown="handlePan(0,-1)"/>
  <use id="arrowright" xlink:href="#arrowRight" x="0" y="0" onmousedown="handlePan(1,0)"/>
  <use id="arrowdown" xlink:href="#arrowDown" x="0" y="0" onmousedown="handlePan(0,1)"/>
  <use id="arrowleft" xlink:href="#arrowLeft" x="0" y="0" onmousedown="handlePan(-1,0)"/>
</g>
<svg viewBox="0 0 15 15" width="100%" height="30px" preserveAspectRatio="xMaxYMin meet">
 <g id="arrow_out" transform="scale(0.3 0.3)">
  <a xlink:href="class_slic3r_1_1_g_u_i_1_1_g_l_gizmo_cut3_d_a271c2ddb8721e8ee550e2b1e2c882ba8_cgraph_org.svg" target="_base">
   <rect id="button" ry="5" rx="5" y="6" x="6" height="38" width="38"
        fill="#f2f5e9" fill-opacity="0.5" stroke="#606060" stroke-width="1.0"/>
   <path id="arrow"
     d="M 11.500037,31.436501 C 11.940474,20.09759 22.043105,11.32322 32.158766,21.979434 L 37.068811,17.246167 C 37.068811,17.246167 37.088388,32 37.088388,32 L 22.160133,31.978069 C 22.160133,31.978069 26.997745,27.140456 26.997745,27.140456 C 18.528582,18.264221 13.291696,25.230495 11.500037,31.436501 z"
     style="fill:#404040;"/>
  </a>
 </g>
</svg>

<style type='text/css'>
<![CDATA[
[data-mouse-over-selected='false'] { opacity: 0.7; }
[data-mouse-over-selected='true']  { opacity: 1.0; }
]]>
</style>
<script type="application/ecmascript"><![CDATA[
document.addEventListener('DOMContentLoaded', (event) => {
  highlightEdges();
  highlightAdjacentNodes();
});
]]></script>
</svg>
