<?xml version="1.0" encoding="UTF-8" standalone="no"?>
<!DOCTYPE svg PUBLIC "-//W3C//DTD SVG 1.1//EN"
 "http://www.w3.org/Graphics/SVG/1.1/DTD/svg11.dtd">
<!-- Generated by graphviz version 8.0.5 (20230430.1635)
 -->
<!-- Title: mz_zip_reader_filename_less Pages: 1 -->
<!--zoomable 300 -->

<svg id="main" version="1.1" xmlns="http://www.w3.org/2000/svg" xmlns:xlink="http://www.w3.org/1999/xlink" xml:space="preserve" onload="init(evt)">
<style type="text/css"><![CDATA[
.node, .edge {opacity: 0.7;}
.node.selected, .edge.selected {opacity: 1;}
.edge:hover path { stroke: red; }
.edge:hover polygon { stroke: red; fill: red; }
]]></style>

<defs>
  <circle id="rim" cx="0" cy="0" r="7"/>
  <circle id="rim2" cx="0" cy="0" r="3.5"/>
  <g id="zoomPlus">
    <use xlink:href="#rim" fill="#404040"><set attributeName="fill" to="#808080" begin="zoomplus.mouseover" end="zoomplus.mouseout"/></use>
    <path d="M-4,0h8M0,-4v8" fill="none" stroke="white" stroke-width="1.5" pointer-events="none"/>
  </g>
  <g id="zoomMin">
    <use xlink:href="#rim" fill="#404040"><set attributeName="fill" to="#808080" begin="zoomminus.mouseover" end="zoomminus.mouseout"/></use>
    <path d="M-4,0h8" fill="none" stroke="white" stroke-width="1.5" pointer-events="none"/>
  </g>
  <g id="arrowUp" transform="translate(30 24)">
    <use xlink:href="#rim"/>
    <path pointer-events="none" fill="none" stroke="white" stroke-width="1.5" d="M0,-3.0v7 M-2.5,-0.5L0,-3.0L2.5,-0.5"/>
  </g>
  <g id="arrowRight" transform="rotate(90) translate(36 -43)">
    <use xlink:href="#rim"/>
    <path pointer-events="none" fill="none" stroke="white" stroke-width="1.5" d="M0,-3.0v7 M-2.5,-0.5L0,-3.0L2.5,-0.5"/>
  </g>
  <g id="arrowDown" transform="rotate(180) translate(-30 -48)">
    <use xlink:href="#rim"/>
    <path pointer-events="none" fill="none" stroke="white" stroke-width="1.5" d="M0,-3.0v7 M-2.5,-0.5L0,-3.0L2.5,-0.5"/>
  </g>
  <g id="arrowLeft" transform="rotate(270) translate(-36 17)">
    <use xlink:href="#rim"/>
    <path pointer-events="none" fill="none" stroke="white" stroke-width="1.5" d="M0,-3.0v7 M-2.5,-0.5L0,-3.0L2.5,-0.5"/>
  </g>
  <g id="resetDef">
    <use xlink:href="#rim2" fill="#404040"><set attributeName="fill" to="#808080" begin="reset.mouseover" end="reset.mouseout"/></use>
  </g>
</defs>
<script type="application/ecmascript">
var viewWidth = 961;
var viewHeight = 300;
var sectionId = 'dynsection-110';
</script>
<script type="application/ecmascript" xlink:href="../../svg.min.js"/>
<svg id="graph" class="graph">
<g id="viewport">
<title>mz_zip_reader_filename_less</title>
<!-- Node1 -->
<g id="Node000001" class="node">
<title>Node1</title>
<g id="a_Node000001"><a xlink:title=" ">
<polygon fill="#999999" stroke="#666666" points="953.25,-161.88 808.25,-161.88 808.25,-142.62 953.25,-142.62 953.25,-161.88"/>
<text text-anchor="middle" x="880.75" y="-148.38" font-family="Helvetica,sans-Serif" font-size="10.00">mz_zip_reader_filename_less</text>
</a>
</g>
</g>
<!-- Node2 -->
<g id="Node000002" class="node">
<title>Node2</title>
<g id="a_Node000002"><a xlink:href="../../d6/df6/miniz_8c.html#a240514a6b8d7e6f71ca91b166f37d961" target="_top" xlink:title=" ">
<polygon fill="white" stroke="#666666" points="772.25,-173.12 670.75,-173.12 670.75,-131.38 772.25,-131.38 772.25,-173.12"/>
<text text-anchor="start" x="678.75" y="-159.62" font-family="Helvetica,sans-Serif" font-size="10.00">mz_zip_reader_sort</text>
<text text-anchor="start" x="678.75" y="-148.38" font-family="Helvetica,sans-Serif" font-size="10.00">_central_dir_offsets</text>
<text text-anchor="middle" x="721.5" y="-137.12" font-family="Helvetica,sans-Serif" font-size="10.00">_by_filename</text>
</a>
</g>
</g>
<!-- Node1&#45;&gt;Node2 -->
<g id="edge1_Node000001_Node000002" class="edge">
<title>Node1&#45;&gt;Node2</title>
<g id="a_edge1_Node000001_Node000002"><a xlink:title=" ">
<path fill="none" stroke="#63b8ff" d="M797.04,-152.25C788.69,-152.25 780.39,-152.25 772.54,-152.25"/>
<polygon fill="#63b8ff" stroke="#63b8ff" points="797.03,-155.75 807.03,-152.25 797.03,-148.75 797.03,-155.75"/>
</a>
</g>
</g>
<!-- Node3 -->
<g id="Node000003" class="node">
<title>Node3</title>
<g id="a_Node000003"><a xlink:href="../../d6/df6/miniz_8c.html#a7ac2826eb7d5b0df83a06d43a4489f4f" target="_top" xlink:title=" ">
<polygon fill="white" stroke="#666666" points="634.75,-167.5 531,-167.5 531,-137 634.75,-137 634.75,-167.5"/>
<text text-anchor="start" x="539" y="-154" font-family="Helvetica,sans-Serif" font-size="10.00">mz_zip_reader_read</text>
<text text-anchor="middle" x="582.88" y="-142.75" font-family="Helvetica,sans-Serif" font-size="10.00">_central_dir</text>
</a>
</g>
</g>
<!-- Node2&#45;&gt;Node3 -->
<g id="edge2_Node000002_Node000003" class="edge">
<title>Node2&#45;&gt;Node3</title>
<g id="a_edge2_Node000002_Node000003"><a xlink:title=" ">
<path fill="none" stroke="#63b8ff" d="M659.65,-152.25C651.38,-152.25 642.96,-152.25 634.88,-152.25"/>
<polygon fill="#63b8ff" stroke="#63b8ff" points="659.4,-155.75 669.4,-152.25 659.4,-148.75 659.4,-155.75"/>
</a>
</g>
</g>
<!-- Node4 -->
<g id="Node000004" class="node">
<title>Node4</title>
<g id="a_Node000004"><a xlink:href="../../d6/df6/miniz_8c.html#a5aeef8648af76ac95c3d8e2f43be095e" target="_top" xlink:title=" ">
<polygon fill="white" stroke="#666666" points="481.5,-229.88 383.75,-229.88 383.75,-210.62 481.5,-210.62 481.5,-229.88"/>
<text text-anchor="middle" x="432.62" y="-216.38" font-family="Helvetica,sans-Serif" font-size="10.00">mz_zip_reader_init</text>
</a>
</g>
</g>
<!-- Node3&#45;&gt;Node4 -->
<g id="edge3_Node000003_Node000004" class="edge">
<title>Node3&#45;&gt;Node4</title>
<g id="a_edge3_Node000003_Node000004"><a xlink:title=" ">
<path fill="none" stroke="#63b8ff" d="M548.19,-173.47C532.43,-182.81 513.17,-193.42 495,-201.25 487.32,-204.56 478.87,-207.56 470.76,-210.15"/>
<polygon fill="#63b8ff" stroke="#63b8ff" points="549.75,-176.02 556.51,-167.86 546.13,-170.02 549.75,-176.02"/>
</a>
</g>
</g>
<!-- Node5 -->
<g id="Node000005" class="node">
<title>Node5</title>
<g id="a_Node000005"><a xlink:href="../../d6/df6/miniz_8c.html#adf32b3615759bd3db23877eb95d106d5" target="_top" xlink:title=" ">
<polygon fill="white" stroke="#666666" points="481.5,-192.5 383.75,-192.5 383.75,-162 481.5,-162 481.5,-192.5"/>
<text text-anchor="start" x="391.75" y="-179" font-family="Helvetica,sans-Serif" font-size="10.00">mz_zip_reader_init</text>
<text text-anchor="middle" x="432.62" y="-167.75" font-family="Helvetica,sans-Serif" font-size="10.00">_cfile</text>
</a>
</g>
</g>
<!-- Node3&#45;&gt;Node5 -->
<g id="edge4_Node000003_Node000005" class="edge">
<title>Node3&#45;&gt;Node5</title>
<g id="a_edge4_Node000003_Node000005"><a xlink:title=" ">
<path fill="none" stroke="#63b8ff" d="M520.22,-162.65C507.37,-164.81 494.01,-167.07 481.74,-169.14"/>
<polygon fill="#63b8ff" stroke="#63b8ff" points="520.58,-165.97 529.86,-160.85 519.41,-159.07 520.58,-165.97"/>
</a>
</g>
</g>
<!-- Node7 -->
<g id="Node000007" class="node">
<title>Node7</title>
<g id="a_Node000007"><a xlink:href="../../d6/df6/miniz_8c.html#aac2174a6cb49f234d050051bff59bfdd" target="_top" xlink:title=" ">
<polygon fill="white" stroke="#666666" points="481.5,-143.5 383.75,-143.5 383.75,-113 481.5,-113 481.5,-143.5"/>
<text text-anchor="start" x="391.75" y="-130" font-family="Helvetica,sans-Serif" font-size="10.00">mz_zip_reader_init</text>
<text text-anchor="middle" x="432.62" y="-118.75" font-family="Helvetica,sans-Serif" font-size="10.00">_file_v2</text>
</a>
</g>
</g>
<!-- Node3&#45;&gt;Node7 -->
<g id="edge7_Node000003_Node000007" class="edge">
<title>Node3&#45;&gt;Node7</title>
<g id="a_edge7_Node000003_Node000007"><a xlink:title=" ">
<path fill="none" stroke="#63b8ff" d="M520.22,-142.27C507.37,-140.19 494.01,-138.03 481.74,-136.04"/>
<polygon fill="#63b8ff" stroke="#63b8ff" points="519.42,-145.85 529.86,-143.99 520.54,-138.94 519.42,-145.85"/>
</a>
</g>
</g>
<!-- Node14 -->
<g id="Node000014" class="node">
<title>Node14</title>
<g id="a_Node000014"><a xlink:href="../../d6/df6/miniz_8c.html#a6806f0e4c2e8320f33188e12ec0b63b6" target="_top" xlink:title=" ">
<polygon fill="white" stroke="#666666" points="495,-70.88 370.25,-70.88 370.25,-51.62 495,-51.62 495,-70.88"/>
<text text-anchor="middle" x="432.62" y="-57.38" font-family="Helvetica,sans-Serif" font-size="10.00">mz_zip_reader_init_mem</text>
</a>
</g>
</g>
<!-- Node3&#45;&gt;Node14 -->
<g id="edge14_Node000003_Node000014" class="edge">
<title>Node3&#45;&gt;Node14</title>
<g id="a_edge14_Node000003_Node000014"><a xlink:title=" ">
<path fill="none" stroke="#63b8ff" d="M547.34,-131.05C516.75,-112.27 473.42,-85.68 450.07,-71.34"/>
<polygon fill="#63b8ff" stroke="#63b8ff" points="545.04,-134.36 555.39,-136.61 548.7,-128.39 545.04,-134.36"/>
</a>
</g>
</g>
<!-- Node6 -->
<g id="Node000006" class="node">
<title>Node6</title>
<g id="a_Node000006"><a xlink:href="../../d1/dcc/namespace_slic3r_1_1anonymous__namespace_02miniz__extension_8cpp_03.html#abe3d3b12eb9449ba8a110d9bbedcd72e" target="_top" xlink:title=" ">
<polygon fill="white" stroke="#666666" points="334.25,-274.12 181.75,-274.12 181.75,-232.38 334.25,-232.38 334.25,-274.12"/>
<text text-anchor="start" x="189.75" y="-260.62" font-family="Helvetica,sans-Serif" font-size="10.00">Slic3r::anonymous_namespace</text>
<text text-anchor="start" x="189.75" y="-249.38" font-family="Helvetica,sans-Serif" font-size="10.00">{miniz_extension::cpp}::</text>
<text text-anchor="middle" x="258" y="-238.12" font-family="Helvetica,sans-Serif" font-size="10.00">open_zip</text>
</a>
</g>
</g>
<!-- Node5&#45;&gt;Node6 -->
<g id="edge5_Node000005_Node000006" class="edge">
<title>Node5&#45;&gt;Node6</title>
<g id="a_edge5_Node000005_Node000006"><a xlink:title=" ">
<path fill="none" stroke="#63b8ff" d="M378.71,-197.25C375.82,-198.55 372.99,-199.89 370.25,-201.25 353.45,-209.59 351.02,-214.86 334.25,-223.25 328.21,-226.27 321.79,-229.21 315.35,-232"/>
<polygon fill="#63b8ff" stroke="#63b8ff" points="379.83,-200.14 387.61,-192.96 377.05,-193.72 379.83,-200.14"/>
</a>
</g>
</g>
<!-- Node6&#45;&gt;Node6 -->
<g id="edge6_Node000006_Node000006" class="edge">
<title>Node6&#45;&gt;Node6</title>
<g id="a_edge6_Node000006_Node000006"><a xlink:title=" ">
<path fill="none" stroke="#63b8ff" d="M287.13,-284.9C282.29,-289.23 272.58,-292.12 258,-292.12 233.44,-292.12 222.7,-283.92 225.77,-274.44"/>
<polygon fill="#63b8ff" stroke="#63b8ff" points="290.75,-286.03 290.23,-275.44 284.03,-284.04 290.75,-286.03"/>
</a>
</g>
</g>
<!-- Node8 -->
<g id="Node000008" class="node">
<title>Node8</title>
<g id="a_Node000008"><a xlink:href="../../d6/df6/miniz_8c.html#a443af52ee783e8ce9dc397761632d30e" target="_top" xlink:title=" ">
<polygon fill="white" stroke="#666666" points="330.88,-214.5 185.12,-214.5 185.12,-184 330.88,-184 330.88,-214.5"/>
<text text-anchor="start" x="193.12" y="-201" font-family="Helvetica,sans-Serif" font-size="10.00">mz_zip_add_mem_to_archive</text>
<text text-anchor="middle" x="258" y="-189.75" font-family="Helvetica,sans-Serif" font-size="10.00">_file_in_place_v2</text>
</a>
</g>
</g>
<!-- Node7&#45;&gt;Node8 -->
<g id="edge8_Node000007_Node000008" class="edge">
<title>Node7&#45;&gt;Node8</title>
<g id="a_edge8_Node000007_Node000008"><a xlink:title=" ">
<path fill="none" stroke="#63b8ff" d="M380.63,-148.37C377.09,-149.97 373.6,-151.6 370.25,-153.25 353.63,-161.43 351.13,-166.62 334.25,-174.25 326.85,-177.59 318.86,-180.73 310.95,-183.56"/>
<polygon fill="#63b8ff" stroke="#63b8ff" points="381.89,-151.2 389.66,-143.99 379.1,-144.79 381.89,-151.2"/>
</a>
</g>
</g>
<!-- Node10 -->
<g id="Node000010" class="node">
<title>Node10</title>
<g id="a_Node000010"><a xlink:href="../../d6/df6/miniz_8c.html#a6c3f6c4eb391a966f4815b9430860662" target="_top" xlink:title=" ">
<polygon fill="white" stroke="#666666" points="317.75,-165.5 198.25,-165.5 198.25,-135 317.75,-135 317.75,-165.5"/>
<text text-anchor="start" x="206.25" y="-152" font-family="Helvetica,sans-Serif" font-size="10.00">mz_zip_extract_archive</text>
<text text-anchor="middle" x="258" y="-140.75" font-family="Helvetica,sans-Serif" font-size="10.00">_file_to_heap_v2</text>
</a>
</g>
</g>
<!-- Node7&#45;&gt;Node10 -->
<g id="edge10_Node000007_Node000010" class="edge">
<title>Node7&#45;&gt;Node10</title>
<g id="a_edge10_Node000007_Node000010"><a xlink:title=" ">
<path fill="none" stroke="#63b8ff" d="M372.82,-135.74C355.19,-137.99 335.85,-140.46 318.2,-142.71"/>
<polygon fill="#63b8ff" stroke="#63b8ff" points="373.06,-139.11 382.54,-134.38 372.18,-132.17 373.06,-139.11"/>
</a>
</g>
</g>
<!-- Node12 -->
<g id="Node000012" class="node">
<title>Node12</title>
<g id="a_Node000012"><a xlink:href="../../d6/df6/miniz_8c.html#a24e55b3b8f9f7722a43117d8a3497eff" target="_top" xlink:title=" ">
<polygon fill="white" stroke="#666666" points="315.88,-116.88 200.12,-116.88 200.12,-97.62 315.88,-97.62 315.88,-116.88"/>
<text text-anchor="middle" x="258" y="-103.38" font-family="Helvetica,sans-Serif" font-size="10.00">mz_zip_reader_init_file</text>
</a>
</g>
</g>
<!-- Node7&#45;&gt;Node12 -->
<g id="edge12_Node000007_Node000012" class="edge">
<title>Node7&#45;&gt;Node12</title>
<g id="a_edge12_Node000007_Node000012"><a xlink:title=" ">
<path fill="none" stroke="#63b8ff" d="M372.75,-121.09C354.51,-118.87 334.45,-116.43 316.32,-114.22"/>
<polygon fill="#63b8ff" stroke="#63b8ff" points="372.19,-124.67 382.54,-122.4 373.04,-117.72 372.19,-124.67"/>
</a>
</g>
</g>
<!-- Node13 -->
<g id="Node000013" class="node">
<title>Node13</title>
<g id="a_Node000013"><a xlink:href="../../d6/df6/miniz_8c.html#a608ee912bc95f54d663f39157dae0d43" target="_top" xlink:title=" ">
<polygon fill="white" stroke="#666666" points="310.25,-79.5 205.75,-79.5 205.75,-49 310.25,-49 310.25,-79.5"/>
<text text-anchor="start" x="213.75" y="-66" font-family="Helvetica,sans-Serif" font-size="10.00">mz_zip_validate_file</text>
<text text-anchor="middle" x="258" y="-54.75" font-family="Helvetica,sans-Serif" font-size="10.00">_archive</text>
</a>
</g>
</g>
<!-- Node7&#45;&gt;Node13 -->
<g id="edge13_Node000007_Node000013" class="edge">
<title>Node7&#45;&gt;Node13</title>
<g id="a_edge13_Node000007_Node000013"><a xlink:title=" ">
<path fill="none" stroke="#63b8ff" d="M385.63,-108.46C369.5,-101.76 351.17,-94.41 334.25,-88.25 326.52,-85.43 318.28,-82.62 310.19,-79.96"/>
<polygon fill="#63b8ff" stroke="#63b8ff" points="383.79,-111.9 394.37,-112.54 386.5,-105.45 383.79,-111.9"/>
</a>
</g>
</g>
<!-- Node9 -->
<g id="Node000009" class="node">
<title>Node9</title>
<g id="a_Node000009"><a xlink:href="../../d6/df6/miniz_8c.html#a36c32e80d9a7c3c217ae7afdfe1d30cf" target="_top" xlink:title=" ">
<polygon fill="white" stroke="#666666" points="145.75,-214.5 0,-214.5 0,-184 145.75,-184 145.75,-214.5"/>
<text text-anchor="start" x="8" y="-201" font-family="Helvetica,sans-Serif" font-size="10.00">mz_zip_add_mem_to_archive</text>
<text text-anchor="middle" x="72.88" y="-189.75" font-family="Helvetica,sans-Serif" font-size="10.00">_file_in_place</text>
</a>
</g>
</g>
<!-- Node8&#45;&gt;Node9 -->
<g id="edge9_Node000008_Node000009" class="edge">
<title>Node8&#45;&gt;Node9</title>
<g id="a_edge9_Node000008_Node000009"><a xlink:title=" ">
<path fill="none" stroke="#63b8ff" d="M174.06,-199.25C164.77,-199.25 155.36,-199.25 146.22,-199.25"/>
<polygon fill="#63b8ff" stroke="#63b8ff" points="173.89,-202.75 183.89,-199.25 173.89,-195.75 173.89,-202.75"/>
</a>
</g>
</g>
<!-- Node11 -->
<g id="Node000011" class="node">
<title>Node11</title>
<g id="a_Node000011"><a xlink:href="../../d6/df6/miniz_8c.html#aa6620694532623c6e01026eebd991f3b" target="_top" xlink:title=" ">
<polygon fill="white" stroke="#666666" points="132.62,-165.5 13.13,-165.5 13.13,-135 132.62,-135 132.62,-165.5"/>
<text text-anchor="start" x="21.12" y="-152" font-family="Helvetica,sans-Serif" font-size="10.00">mz_zip_extract_archive</text>
<text text-anchor="middle" x="72.88" y="-140.75" font-family="Helvetica,sans-Serif" font-size="10.00">_file_to_heap</text>
</a>
</g>
</g>
<!-- Node10&#45;&gt;Node11 -->
<g id="edge11_Node000010_Node000011" class="edge">
<title>Node10&#45;&gt;Node11</title>
<g id="a_edge11_Node000010_Node000011"><a xlink:title=" ">
<path fill="none" stroke="#63b8ff" d="M186.87,-150.25C169.05,-150.25 150.08,-150.25 132.87,-150.25"/>
<polygon fill="#63b8ff" stroke="#63b8ff" points="186.8,-153.75 196.8,-150.25 186.8,-146.75 186.8,-153.75"/>
</a>
</g>
</g>
<!-- Node15 -->
<g id="Node000015" class="node">
<title>Node15</title>
<g id="a_Node000015"><a xlink:href="../../d6/df6/miniz_8c.html#acaaba12f38ef5ec95f895c54a7c56351" target="_top" xlink:title=" ">
<polygon fill="white" stroke="#666666" points="314.75,-30.5 201.25,-30.5 201.25,0 314.75,0 314.75,-30.5"/>
<text text-anchor="start" x="209.25" y="-17" font-family="Helvetica,sans-Serif" font-size="10.00">mz_zip_validate_mem</text>
<text text-anchor="middle" x="258" y="-5.75" font-family="Helvetica,sans-Serif" font-size="10.00">_archive</text>
</a>
</g>
</g>
<!-- Node14&#45;&gt;Node15 -->
<g id="edge15_Node000014_Node000015" class="edge">
<title>Node14&#45;&gt;Node15</title>
<g id="a_edge15_Node000014_Node000015"><a xlink:title=" ">
<path fill="none" stroke="#63b8ff" d="M383.36,-48.39C362.18,-42.74 337.17,-36.08 315.16,-30.21"/>
<polygon fill="#63b8ff" stroke="#63b8ff" points="382.18,-51.96 392.74,-51.16 383.98,-45.2 382.18,-51.96"/>
</a>
</g>
</g>
</g>
</svg>

<g id="navigator" transform="translate(0 0)" fill="#404254">
  <rect fill="#f2f5e9" fill-opacity="0.5" stroke="#606060" stroke-width=".5" x="0" y="0" width="60" height="60"/>
  <use id="zoomplus" xlink:href="#zoomPlus" x="17" y="9" onmousedown="handleZoom(evt,'in')"/>
  <use id="zoomminus" xlink:href="#zoomMin" x="42" y="9" onmousedown="handleZoom(evt,'out')"/>
  <use id="reset" xlink:href="#resetDef" x="30" y="36" onmousedown="handleReset()"/>
   <use id="arrowup" xlink:href="#arrowUp" x="0" y="0" onmousedown="handlePan(0,-1)"/>
  <use id="arrowright" xlink:href="#arrowRight" x="0" y="0" onmousedown="handlePan(1,0)"/>
  <use id="arrowdown" xlink:href="#arrowDown" x="0" y="0" onmousedown="handlePan(0,1)"/>
  <use id="arrowleft" xlink:href="#arrowLeft" x="0" y="0" onmousedown="handlePan(-1,0)"/>
</g>
<svg viewBox="0 0 15 15" width="100%" height="30px" preserveAspectRatio="xMaxYMin meet">
 <g id="arrow_out" transform="scale(0.3 0.3)">
  <a xlink:href="miniz_8c_a98ed4a51418dd67d4ec4c7a6f1d7483e_icgraph_org.svg" target="_base">
   <rect id="button" ry="5" rx="5" y="6" x="6" height="38" width="38"
        fill="#f2f5e9" fill-opacity="0.5" stroke="#606060" stroke-width="1.0"/>
   <path id="arrow"
     d="M 11.500037,31.436501 C 11.940474,20.09759 22.043105,11.32322 32.158766,21.979434 L 37.068811,17.246167 C 37.068811,17.246167 37.088388,32 37.088388,32 L 22.160133,31.978069 C 22.160133,31.978069 26.997745,27.140456 26.997745,27.140456 C 18.528582,18.264221 13.291696,25.230495 11.500037,31.436501 z"
     style="fill:#404040;"/>
  </a>
 </g>
</svg>

<style type='text/css'>
<![CDATA[
[data-mouse-over-selected='false'] { opacity: 0.7; }
[data-mouse-over-selected='true']  { opacity: 1.0; }
]]>
</style>
<script type="application/ecmascript"><![CDATA[
document.addEventListener('DOMContentLoaded', (event) => {
  highlightEdges();
  highlightAdjacentNodes();
});
]]></script>
</svg>
