<?xml version="1.0" encoding="UTF-8" standalone="no"?>
<!DOCTYPE svg PUBLIC "-//W3C//DTD SVG 1.1//EN"
 "http://www.w3.org/Graphics/SVG/1.1/DTD/svg11.dtd">
<!-- Generated by graphviz version 8.0.5 (20230430.1635)
 -->
<!-- Title: Slic3r::FirmwareDialog::priv::find_serial_ports Pages: 1 -->
<!--zoomable 109 -->

<svg id="main" version="1.1" xmlns="http://www.w3.org/2000/svg" xmlns:xlink="http://www.w3.org/1999/xlink" xml:space="preserve" onload="init(evt)">
<style type="text/css"><![CDATA[
.node, .edge {opacity: 0.7;}
.node.selected, .edge.selected {opacity: 1;}
.edge:hover path { stroke: red; }
.edge:hover polygon { stroke: red; fill: red; }
]]></style>

<defs>
  <circle id="rim" cx="0" cy="0" r="7"/>
  <circle id="rim2" cx="0" cy="0" r="3.5"/>
  <g id="zoomPlus">
    <use xlink:href="#rim" fill="#404040"><set attributeName="fill" to="#808080" begin="zoomplus.mouseover" end="zoomplus.mouseout"/></use>
    <path d="M-4,0h8M0,-4v8" fill="none" stroke="white" stroke-width="1.5" pointer-events="none"/>
  </g>
  <g id="zoomMin">
    <use xlink:href="#rim" fill="#404040"><set attributeName="fill" to="#808080" begin="zoomminus.mouseover" end="zoomminus.mouseout"/></use>
    <path d="M-4,0h8" fill="none" stroke="white" stroke-width="1.5" pointer-events="none"/>
  </g>
  <g id="arrowUp" transform="translate(30 24)">
    <use xlink:href="#rim"/>
    <path pointer-events="none" fill="none" stroke="white" stroke-width="1.5" d="M0,-3.0v7 M-2.5,-0.5L0,-3.0L2.5,-0.5"/>
  </g>
  <g id="arrowRight" transform="rotate(90) translate(36 -43)">
    <use xlink:href="#rim"/>
    <path pointer-events="none" fill="none" stroke="white" stroke-width="1.5" d="M0,-3.0v7 M-2.5,-0.5L0,-3.0L2.5,-0.5"/>
  </g>
  <g id="arrowDown" transform="rotate(180) translate(-30 -48)">
    <use xlink:href="#rim"/>
    <path pointer-events="none" fill="none" stroke="white" stroke-width="1.5" d="M0,-3.0v7 M-2.5,-0.5L0,-3.0L2.5,-0.5"/>
  </g>
  <g id="arrowLeft" transform="rotate(270) translate(-36 17)">
    <use xlink:href="#rim"/>
    <path pointer-events="none" fill="none" stroke="white" stroke-width="1.5" d="M0,-3.0v7 M-2.5,-0.5L0,-3.0L2.5,-0.5"/>
  </g>
  <g id="resetDef">
    <use xlink:href="#rim2" fill="#404040"><set attributeName="fill" to="#808080" begin="reset.mouseover" end="reset.mouseout"/></use>
  </g>
</defs>
<script type="application/ecmascript">
var viewWidth = 587;
var viewHeight = 109;
var sectionId = 'dynsection-3';
</script>
<script type="application/ecmascript" xlink:href="../../svg.min.js"/>
<svg id="graph" class="graph">
<g id="viewport">
<title>Slic3r::FirmwareDialog::priv::find_serial_ports</title>
<!-- Node1 -->
<g id="Node000001" class="node">
<title>Node1</title>
<g id="a_Node000001"><a xlink:title=" ">
<polygon fill="#999999" stroke="#666666" points="115,-54.5 0,-54.5 0,-24 115,-24 115,-54.5"/>
<text text-anchor="start" x="8" y="-41" font-family="Helvetica,sans-Serif" font-size="10.00">Slic3r::FirmwareDialog</text>
<text text-anchor="middle" x="57.5" y="-29.75" font-family="Helvetica,sans-Serif" font-size="10.00">::priv::find_serial_ports</text>
</a>
</g>
</g>
<!-- Node2 -->
<g id="Node000002" class="node">
<title>Node2</title>
<g id="a_Node000002"><a xlink:href="../../d3/d47/namespace_slic3r_1_1_utils.html#ab4ece71c5e5376ac9a506cfaa515e933" target="_top" xlink:title=" ">
<polygon fill="white" stroke="#666666" points="278.38,-79.5 161.88,-79.5 161.88,-49 278.38,-49 278.38,-79.5"/>
<text text-anchor="start" x="169.88" y="-66" font-family="Helvetica,sans-Serif" font-size="10.00">Slic3r::Utils::scan</text>
<text text-anchor="middle" x="220.12" y="-54.75" font-family="Helvetica,sans-Serif" font-size="10.00">_serial_ports_extended</text>
</a>
</g>
</g>
<!-- Node1&#45;&gt;Node2 -->
<g id="edge1_Node000001_Node000002" class="edge">
<title>Node1&#45;&gt;Node2</title>
<g id="a_edge1_Node000001_Node000002"><a xlink:title=" ">
<path fill="none" stroke="#63b8ff" d="M115.13,-48.06C126.61,-49.85 138.8,-51.75 150.64,-53.59"/>
<polygon fill="#63b8ff" stroke="#63b8ff" points="149.96,-57.18 160.38,-55.26 151.04,-50.27 149.96,-57.18"/>
</a>
</g>
</g>
<!-- Node6 -->
<g id="Node000006" class="node">
<title>Node6</title>
<g id="a_Node000006"><a xlink:href="../../db/d37/struct_slic3r_1_1_firmware_dialog_1_1priv.html#a99bc8f32044f60aef1353b961d5d4fd4" target="_top" xlink:title=" ">
<polygon fill="white" stroke="#666666" points="289.25,-30.5 151,-30.5 151,0 289.25,0 289.25,-30.5"/>
<text text-anchor="start" x="159" y="-17" font-family="Helvetica,sans-Serif" font-size="10.00">Slic3r::FirmwareDialog</text>
<text text-anchor="middle" x="220.12" y="-5.75" font-family="Helvetica,sans-Serif" font-size="10.00">::priv::update_flash_enabled</text>
</a>
</g>
</g>
<!-- Node1&#45;&gt;Node6 -->
<g id="edge5_Node000001_Node000006" class="edge">
<title>Node1&#45;&gt;Node6</title>
<g id="a_edge5_Node000001_Node000006"><a xlink:title=" ">
<path fill="none" stroke="#63b8ff" d="M115.13,-30.79C123.2,-29.58 131.61,-28.33 140.01,-27.07"/>
<polygon fill="#63b8ff" stroke="#63b8ff" points="140.24,-30.43 149.61,-25.49 139.2,-23.5 140.24,-30.43"/>
</a>
</g>
</g>
<!-- Node3 -->
<g id="Node000003" class="node">
<title>Node3</title>
<g id="a_Node000003"><a xlink:href="../../d3/d47/namespace_slic3r_1_1_utils.html#af46a67a7b8738232c77af22bdc20cbbc" target="_top" xlink:title=" ">
<polygon fill="white" stroke="#666666" points="429.38,-100.5 333.12,-100.5 333.12,-70 429.38,-70 429.38,-100.5"/>
<text text-anchor="start" x="341.12" y="-87" font-family="Helvetica,sans-Serif" font-size="10.00">Slic3r::Utils::looks</text>
<text text-anchor="middle" x="381.25" y="-75.75" font-family="Helvetica,sans-Serif" font-size="10.00">_like_printer</text>
</a>
</g>
</g>
<!-- Node2&#45;&gt;Node3 -->
<g id="edge2_Node000002_Node000003" class="edge">
<title>Node2&#45;&gt;Node3</title>
<g id="a_edge2_Node000002_Node000003"><a xlink:title=" ">
<path fill="none" stroke="#63b8ff" d="M278.57,-71.83C292.76,-73.7 307.97,-75.71 322.18,-77.59"/>
<polygon fill="#63b8ff" stroke="#63b8ff" points="321.46,-81.15 331.83,-78.99 322.37,-74.21 321.46,-81.15"/>
</a>
</g>
</g>
<!-- Node4 -->
<g id="Node000004" class="node">
<title>Node4</title>
<g id="a_Node000004"><a xlink:href="../../dd/dd5/namespaceboost_1_1nowide.html#a57f51167f2006647d49ff42859aff064" target="_top" xlink:title="Convert NULL terminated UTF source string to NULL terminated output string of size at most output_siz...">
<polygon fill="white" stroke="#666666" points="437.25,-51.88 325.25,-51.88 325.25,-32.62 437.25,-32.62 437.25,-51.88"/>
<text text-anchor="middle" x="381.25" y="-38.38" font-family="Helvetica,sans-Serif" font-size="10.00">boost::nowide::narrow</text>
</a>
</g>
</g>
<!-- Node2&#45;&gt;Node4 -->
<g id="edge3_Node000002_Node000004" class="edge">
<title>Node2&#45;&gt;Node4</title>
<g id="a_edge3_Node000002_Node000004"><a xlink:title=" ">
<path fill="none" stroke="#63b8ff" d="M278.57,-56.31C290.16,-54.71 302.43,-53.01 314.28,-51.37"/>
<polygon fill="#63b8ff" stroke="#63b8ff" points="314.59,-54.72 324.01,-49.89 313.63,-47.79 314.59,-54.72"/>
</a>
</g>
</g>
<!-- Node5 -->
<g id="Node000005" class="node">
<title>Node5</title>
<g id="a_Node000005"><a xlink:href="../../dd/dd5/namespaceboost_1_1nowide.html#abc7dfc4ebb4c462ec51da24506496b33" target="_top" xlink:title="Template function that converts a buffer of UTF sequences in range [source_begin,source_end) to the o...">
<polygon fill="white" stroke="#666666" points="579.25,-57.5 473.25,-57.5 473.25,-27 579.25,-27 579.25,-57.5"/>
<text text-anchor="start" x="481.25" y="-44" font-family="Helvetica,sans-Serif" font-size="10.00">boost::nowide::basic</text>
<text text-anchor="middle" x="526.25" y="-32.75" font-family="Helvetica,sans-Serif" font-size="10.00">_convert</text>
</a>
</g>
</g>
<!-- Node4&#45;&gt;Node5 -->
<g id="edge4_Node000004_Node000005" class="edge">
<title>Node4&#45;&gt;Node5</title>
<g id="a_edge4_Node000004_Node000005"><a xlink:title=" ">
<path fill="none" stroke="#63b8ff" d="M437.54,-42.25C445.53,-42.25 453.82,-42.25 461.96,-42.25"/>
<polygon fill="#63b8ff" stroke="#63b8ff" points="461.92,-45.75 471.92,-42.25 461.92,-38.75 461.92,-45.75"/>
</a>
</g>
</g>
</g>
</svg>

<g id="navigator" transform="translate(0 0)" fill="#404254">
  <rect fill="#f2f5e9" fill-opacity="0.5" stroke="#606060" stroke-width=".5" x="0" y="0" width="60" height="60"/>
  <use id="zoomplus" xlink:href="#zoomPlus" x="17" y="9" onmousedown="handleZoom(evt,'in')"/>
  <use id="zoomminus" xlink:href="#zoomMin" x="42" y="9" onmousedown="handleZoom(evt,'out')"/>
  <use id="reset" xlink:href="#resetDef" x="30" y="36" onmousedown="handleReset()"/>
   <use id="arrowup" xlink:href="#arrowUp" x="0" y="0" onmousedown="handlePan(0,-1)"/>
  <use id="arrowright" xlink:href="#arrowRight" x="0" y="0" onmousedown="handlePan(1,0)"/>
  <use id="arrowdown" xlink:href="#arrowDown" x="0" y="0" onmousedown="handlePan(0,1)"/>
  <use id="arrowleft" xlink:href="#arrowLeft" x="0" y="0" onmousedown="handlePan(-1,0)"/>
</g>
<svg viewBox="0 0 15 15" width="100%" height="30px" preserveAspectRatio="xMaxYMin meet">
 <g id="arrow_out" transform="scale(0.3 0.3)">
  <a xlink:href="struct_slic3r_1_1_firmware_dialog_1_1priv_ae683732d25cd4f424bcd0b08c2981eea_cgraph_org.svg" target="_base">
   <rect id="button" ry="5" rx="5" y="6" x="6" height="38" width="38"
        fill="#f2f5e9" fill-opacity="0.5" stroke="#606060" stroke-width="1.0"/>
   <path id="arrow"
     d="M 11.500037,31.436501 C 11.940474,20.09759 22.043105,11.32322 32.158766,21.979434 L 37.068811,17.246167 C 37.068811,17.246167 37.088388,32 37.088388,32 L 22.160133,31.978069 C 22.160133,31.978069 26.997745,27.140456 26.997745,27.140456 C 18.528582,18.264221 13.291696,25.230495 11.500037,31.436501 z"
     style="fill:#404040;"/>
  </a>
 </g>
</svg>

<style type='text/css'>
<![CDATA[
[data-mouse-over-selected='false'] { opacity: 0.7; }
[data-mouse-over-selected='true']  { opacity: 1.0; }
]]>
</style>
<script type="application/ecmascript"><![CDATA[
document.addEventListener('DOMContentLoaded', (event) => {
  highlightEdges();
  highlightAdjacentNodes();
});
]]></script>
</svg>
