<?xml version="1.0" encoding="UTF-8" standalone="no"?>
<!DOCTYPE svg PUBLIC "-//W3C//DTD SVG 1.1//EN"
 "http://www.w3.org/Graphics/SVG/1.1/DTD/svg11.dtd">
<!-- Generated by graphviz version 8.0.5 (20230430.1635)
 -->
<!-- Title: Eigen::SparseLU::info Pages: 1 -->
<svg width="568pt" height="50pt"
 viewBox="0.00 0.00 567.75 49.75" xmlns="http://www.w3.org/2000/svg" xmlns:xlink="http://www.w3.org/1999/xlink">
<g id="graph0" class="graph" transform="scale(1 1) rotate(0) translate(4 45.75)">
<title>Eigen::SparseLU::info</title>
<!-- Node1 -->
<g id="Node000001" class="node">
<title>Node1</title>
<g id="a_Node000001"><a xlink:title="Reports whether previous computation was successful.">
<polygon fill="#999999" stroke="#666666" points="559.75,-30.5 447.75,-30.5 447.75,-11.25 559.75,-11.25 559.75,-30.5"/>
<text text-anchor="middle" x="503.75" y="-17" font-family="Helvetica,sans-Serif" font-size="10.00">Eigen::SparseLU::info</text>
</a>
</g>
</g>
<!-- Node2 -->
<g id="Node000002" class="node">
<title>Node2</title>
<g id="a_Node000002"><a xlink:href="../../da/dee/classigl_1_1copyleft_1_1comiso_1_1_frame_interpolator.html#af5b89b8256109caecb9e7b9b3ba06920" target="_top" xlink:title=" ">
<polygon fill="white" stroke="#666666" points="411.75,-41.75 303.5,-41.75 303.5,0 411.75,0 411.75,-41.75"/>
<text text-anchor="start" x="311.5" y="-28.25" font-family="Helvetica,sans-Serif" font-size="10.00">igl::copyleft::comiso</text>
<text text-anchor="start" x="311.5" y="-17" font-family="Helvetica,sans-Serif" font-size="10.00">::FrameInterpolator::</text>
<text text-anchor="middle" x="357.62" y="-5.75" font-family="Helvetica,sans-Serif" font-size="10.00">interpolateSymmetric</text>
</a>
</g>
</g>
<!-- Node1&#45;&gt;Node2 -->
<g id="edge1_Node000001_Node000002" class="edge">
<title>Node1&#45;&gt;Node2</title>
<g id="a_edge1_Node000001_Node000002"><a xlink:title=" ">
<path fill="none" stroke="#63b8ff" d="M436.71,-20.88C428.48,-20.88 420.14,-20.88 412.13,-20.88"/>
<polygon fill="#63b8ff" stroke="#63b8ff" points="436.44,-24.38 446.44,-20.88 436.44,-17.38 436.44,-24.38"/>
</a>
</g>
</g>
<!-- Node3 -->
<g id="Node000003" class="node">
<title>Node3</title>
<g id="a_Node000003"><a xlink:href="../../da/dee/classigl_1_1copyleft_1_1comiso_1_1_frame_interpolator.html#a7502162f14f8ba7eed4ff0a412397621" target="_top" xlink:title=" ">
<polygon fill="white" stroke="#666666" points="267.5,-36.12 139.75,-36.12 139.75,-5.62 267.5,-5.62 267.5,-36.12"/>
<text text-anchor="start" x="147.75" y="-22.62" font-family="Helvetica,sans-Serif" font-size="10.00">igl::copyleft::comiso</text>
<text text-anchor="middle" x="203.62" y="-11.38" font-family="Helvetica,sans-Serif" font-size="10.00">::FrameInterpolator::solve</text>
</a>
</g>
</g>
<!-- Node2&#45;&gt;Node3 -->
<g id="edge2_Node000002_Node000003" class="edge">
<title>Node2&#45;&gt;Node3</title>
<g id="a_edge2_Node000002_Node000003"><a xlink:title=" ">
<path fill="none" stroke="#63b8ff" d="M292.2,-20.88C284.14,-20.88 275.91,-20.88 267.88,-20.88"/>
<polygon fill="#63b8ff" stroke="#63b8ff" points="292.04,-24.38 302.04,-20.88 292.04,-17.38 292.04,-24.38"/>
</a>
</g>
</g>
<!-- Node4 -->
<g id="Node000004" class="node">
<title>Node4</title>
<g id="a_Node000004"><a xlink:href="../../d1/dcc/namespaceigl_1_1copyleft_1_1comiso.html#a560ade68b2e8431efbf05da5032b563d" target="_top" xlink:title=" ">
<polygon fill="white" stroke="#666666" points="103.75,-36.12 0,-36.12 0,-5.62 103.75,-5.62 103.75,-36.12"/>
<text text-anchor="start" x="8" y="-22.62" font-family="Helvetica,sans-Serif" font-size="10.00">igl::copyleft::comiso</text>
<text text-anchor="middle" x="51.88" y="-11.38" font-family="Helvetica,sans-Serif" font-size="10.00">::frame_field</text>
</a>
</g>
</g>
<!-- Node3&#45;&gt;Node4 -->
<g id="edge3_Node000003_Node000004" class="edge">
<title>Node3&#45;&gt;Node4</title>
<g id="a_edge3_Node000003_Node000004"><a xlink:title=" ">
<path fill="none" stroke="#63b8ff" d="M128.66,-20.88C120.34,-20.88 112.01,-20.88 104.07,-20.88"/>
<polygon fill="#63b8ff" stroke="#63b8ff" points="128.55,-24.38 138.55,-20.88 128.55,-17.38 128.55,-24.38"/>
</a>
</g>
</g>
</g>
</svg>
