<?xml version="1.0" encoding="UTF-8" standalone="no"?>
<!DOCTYPE svg PUBLIC "-//W3C//DTD SVG 1.1//EN"
 "http://www.w3.org/Graphics/SVG/1.1/DTD/svg11.dtd">
<!-- Generated by graphviz version 8.0.5 (20230430.1635)
 -->
<!-- Title: Eigen::SparseMatrixBase::isApprox Pages: 1 -->
<svg width="298pt" height="76pt"
 viewBox="0.00 0.00 298.00 75.88" xmlns="http://www.w3.org/2000/svg" xmlns:xlink="http://www.w3.org/1999/xlink">
<g id="graph0" class="graph" transform="scale(1 1) rotate(0) translate(4 71.88)">
<title>Eigen::SparseMatrixBase::isApprox</title>
<!-- Node1 -->
<g id="Node000001" class="node">
<title>Node1</title>
<g id="a_Node000001"><a xlink:title=" ">
<polygon fill="#999999" stroke="#666666" points="127,-45.88 0,-45.88 0,-15.37 127,-15.37 127,-45.88"/>
<text text-anchor="start" x="8" y="-32.38" font-family="Helvetica,sans-Serif" font-size="10.00">Eigen::SparseMatrixBase</text>
<text text-anchor="middle" x="63.5" y="-21.12" font-family="Helvetica,sans-Serif" font-size="10.00">::isApprox</text>
</a>
</g>
</g>
<!-- Node2 -->
<g id="Node000002" class="node">
<title>Node2</title>
<g id="a_Node000002"><a xlink:href="../../db/da8/class_eigen_1_1_sparse_matrix_base.html#a120cdb461652f81d4a5dd5632809350e" target="_top" xlink:title=" ">
<polygon fill="white" stroke="#666666" points="290,-67.88 163,-67.88 163,-37.38 290,-37.38 290,-67.88"/>
<text text-anchor="start" x="171" y="-54.38" font-family="Helvetica,sans-Serif" font-size="10.00">Eigen::SparseMatrixBase</text>
<text text-anchor="middle" x="226.5" y="-43.12" font-family="Helvetica,sans-Serif" font-size="10.00">::derived</text>
</a>
</g>
</g>
<!-- Node1&#45;&gt;Node2 -->
<g id="edge1_Node000001_Node000002" class="edge">
<title>Node1&#45;&gt;Node2</title>
<g id="a_edge1_Node000001_Node000002"><a xlink:title=" ">
<path fill="none" stroke="#63b8ff" d="M127.21,-39.19C135.31,-40.3 143.67,-41.44 151.93,-42.57"/>
<polygon fill="#63b8ff" stroke="#63b8ff" points="151.32,-46.16 161.7,-44.04 152.26,-39.22 151.32,-46.16"/>
</a>
</g>
</g>
<!-- Node3 -->
<g id="Node000003" class="node">
<title>Node3</title>
<g id="a_Node000003"><a xlink:href="../../d7/daf/namespace_eigen_1_1numext.html#ab3b30bf0bcfa1ad91dbec75fabb3bea0" target="_top" xlink:title=" ">
<polygon fill="white" stroke="#666666" points="278,-19.25 175,-19.25 175,0 278,0 278,-19.25"/>
<text text-anchor="middle" x="226.5" y="-5.75" font-family="Helvetica,sans-Serif" font-size="10.00">Eigen::numext::mini</text>
</a>
</g>
</g>
<!-- Node1&#45;&gt;Node3 -->
<g id="edge2_Node000001_Node000003" class="edge">
<title>Node1&#45;&gt;Node3</title>
<g id="a_edge2_Node000001_Node000003"><a xlink:title=" ">
<path fill="none" stroke="#63b8ff" d="M127.21,-22.45C139.24,-20.88 151.83,-19.23 163.83,-17.67"/>
<polygon fill="#63b8ff" stroke="#63b8ff" points="164.19,-21.02 173.65,-16.26 163.28,-14.08 164.19,-21.02"/>
</a>
</g>
</g>
</g>
</svg>
