<?xml version="1.0" encoding="UTF-8" standalone="no"?>
<!DOCTYPE svg PUBLIC "-//W3C//DTD SVG 1.1//EN"
 "http://www.w3.org/Graphics/SVG/1.1/DTD/svg11.dtd">
<!-- Generated by graphviz version 8.0.5 (20230430.1635)
 -->
<!-- Title: Slic3r::sla::SupportTreeBuilder::add_anchor Pages: 1 -->
<!--zoomable 88 -->

<svg id="main" version="1.1" xmlns="http://www.w3.org/2000/svg" xmlns:xlink="http://www.w3.org/1999/xlink" xml:space="preserve" onload="init(evt)">
<style type="text/css"><![CDATA[
.node, .edge {opacity: 0.7;}
.node.selected, .edge.selected {opacity: 1;}
.edge:hover path { stroke: red; }
.edge:hover polygon { stroke: red; fill: red; }
]]></style>

<defs>
  <circle id="rim" cx="0" cy="0" r="7"/>
  <circle id="rim2" cx="0" cy="0" r="3.5"/>
  <g id="zoomPlus">
    <use xlink:href="#rim" fill="#404040"><set attributeName="fill" to="#808080" begin="zoomplus.mouseover" end="zoomplus.mouseout"/></use>
    <path d="M-4,0h8M0,-4v8" fill="none" stroke="white" stroke-width="1.5" pointer-events="none"/>
  </g>
  <g id="zoomMin">
    <use xlink:href="#rim" fill="#404040"><set attributeName="fill" to="#808080" begin="zoomminus.mouseover" end="zoomminus.mouseout"/></use>
    <path d="M-4,0h8" fill="none" stroke="white" stroke-width="1.5" pointer-events="none"/>
  </g>
  <g id="arrowUp" transform="translate(30 24)">
    <use xlink:href="#rim"/>
    <path pointer-events="none" fill="none" stroke="white" stroke-width="1.5" d="M0,-3.0v7 M-2.5,-0.5L0,-3.0L2.5,-0.5"/>
  </g>
  <g id="arrowRight" transform="rotate(90) translate(36 -43)">
    <use xlink:href="#rim"/>
    <path pointer-events="none" fill="none" stroke="white" stroke-width="1.5" d="M0,-3.0v7 M-2.5,-0.5L0,-3.0L2.5,-0.5"/>
  </g>
  <g id="arrowDown" transform="rotate(180) translate(-30 -48)">
    <use xlink:href="#rim"/>
    <path pointer-events="none" fill="none" stroke="white" stroke-width="1.5" d="M0,-3.0v7 M-2.5,-0.5L0,-3.0L2.5,-0.5"/>
  </g>
  <g id="arrowLeft" transform="rotate(270) translate(-36 17)">
    <use xlink:href="#rim"/>
    <path pointer-events="none" fill="none" stroke="white" stroke-width="1.5" d="M0,-3.0v7 M-2.5,-0.5L0,-3.0L2.5,-0.5"/>
  </g>
  <g id="resetDef">
    <use xlink:href="#rim2" fill="#404040"><set attributeName="fill" to="#808080" begin="reset.mouseover" end="reset.mouseout"/></use>
  </g>
</defs>
<script type="application/ecmascript">
var viewWidth = 901;
var viewHeight = 88;
var sectionId = 'dynsection-2';
</script>
<script type="application/ecmascript" xlink:href="../../svg.min.js"/>
<svg id="graph" class="graph">
<g id="viewport">
<title>Slic3r::sla::SupportTreeBuilder::add_anchor</title>
<!-- Node1 -->
<g id="Node000001" class="node">
<title>Node1</title>
<g id="a_Node000001"><a xlink:title=" ">
<polygon fill="#999999" stroke="#666666" points="892.5,-54.5 773.75,-54.5 773.75,-24 892.5,-24 892.5,-54.5"/>
<text text-anchor="start" x="781.75" y="-41" font-family="Helvetica,sans-Serif" font-size="10.00">Slic3r::sla::SupportTree</text>
<text text-anchor="middle" x="833.12" y="-29.75" font-family="Helvetica,sans-Serif" font-size="10.00">Builder::add_anchor</text>
</a>
</g>
</g>
<!-- Node2 -->
<g id="Node000002" class="node">
<title>Node2</title>
<g id="a_Node000002"><a xlink:href="../../d0/d67/class_slic3r_1_1sla_1_1_branching_tree_builder.html#a5cbbace768aab3ceb54ca5358060a6a2" target="_top" xlink:title=" ">
<polygon fill="white" stroke="#666666" points="728.38,-79.5 599.88,-79.5 599.88,-49 728.38,-49 728.38,-79.5"/>
<text text-anchor="start" x="607.88" y="-66" font-family="Helvetica,sans-Serif" font-size="10.00">Slic3r::sla::BranchingTree</text>
<text text-anchor="middle" x="664.12" y="-54.75" font-family="Helvetica,sans-Serif" font-size="10.00">Builder::add_mesh_bridge</text>
</a>
</g>
</g>
<!-- Node1&#45;&gt;Node2 -->
<g id="edge1_Node000001_Node000002" class="edge">
<title>Node1&#45;&gt;Node2</title>
<g id="a_edge1_Node000001_Node000002"><a xlink:title=" ">
<path fill="none" stroke="#63b8ff" d="M762.95,-49.6C751.58,-51.31 739.85,-53.06 728.62,-54.74"/>
<polygon fill="#63b8ff" stroke="#63b8ff" points="763.34,-52.94 772.72,-47.99 762.31,-46.01 763.34,-52.94"/>
</a>
</g>
</g>
<!-- Node3 -->
<g id="Node000003" class="node">
<title>Node3</title>
<g id="a_Node000003"><a xlink:href="../../d8/d8a/class_slic3r_1_1sla_1_1_default_support_tree.html#a89d43bcb5868a3e62d90d02387d7fa25" target="_top" xlink:title=" ">
<polygon fill="white" stroke="#666666" points="737.75,-30.5 590.5,-30.5 590.5,0 737.75,0 737.75,-30.5"/>
<text text-anchor="start" x="598.5" y="-17" font-family="Helvetica,sans-Serif" font-size="10.00">Slic3r::sla::DefaultSupport</text>
<text text-anchor="middle" x="664.12" y="-5.75" font-family="Helvetica,sans-Serif" font-size="10.00">Tree::connect_to_model_body</text>
</a>
</g>
</g>
<!-- Node1&#45;&gt;Node3 -->
<g id="edge2_Node000001_Node000003" class="edge">
<title>Node1&#45;&gt;Node3</title>
<g id="a_edge2_Node000001_Node000003"><a xlink:title=" ">
<path fill="none" stroke="#63b8ff" d="M763.06,-29.32C754.85,-28.14 746.45,-26.94 738.18,-25.75"/>
<polygon fill="#63b8ff" stroke="#63b8ff" points="762.32,-32.9 772.72,-30.86 763.32,-25.97 762.32,-32.9"/>
</a>
</g>
</g>
<!-- Node4 -->
<g id="Node000004" class="node">
<title>Node4</title>
<g id="a_Node000004"><a xlink:href="../../d8/d8a/class_slic3r_1_1sla_1_1_default_support_tree.html#ae83a50e5b42513a911e826a9863c2ecd" target="_top" xlink:title=" ">
<polygon fill="white" stroke="#666666" points="554.5,-30.5 423.75,-30.5 423.75,0 554.5,0 554.5,-30.5"/>
<text text-anchor="start" x="431.75" y="-17" font-family="Helvetica,sans-Serif" font-size="10.00">Slic3r::sla::DefaultSupport</text>
<text text-anchor="middle" x="489.12" y="-5.75" font-family="Helvetica,sans-Serif" font-size="10.00">Tree::routing_to_model</text>
</a>
</g>
</g>
<!-- Node3&#45;&gt;Node4 -->
<g id="edge3_Node000003_Node000004" class="edge">
<title>Node3&#45;&gt;Node4</title>
<g id="a_edge3_Node000003_Node000004"><a xlink:title=" ">
<path fill="none" stroke="#63b8ff" d="M579.23,-15.25C571.01,-15.25 562.75,-15.25 554.75,-15.25"/>
<polygon fill="#63b8ff" stroke="#63b8ff" points="579.01,-18.75 589.01,-15.25 579.01,-11.75 579.01,-18.75"/>
</a>
</g>
</g>
<!-- Node5 -->
<g id="Node000005" class="node">
<title>Node5</title>
<g id="a_Node000005"><a xlink:href="../../d8/d8a/class_slic3r_1_1sla_1_1_default_support_tree.html#a5f3f8329b7c99171780e485d9d659aeb" target="_top" xlink:title=" ">
<polygon fill="white" stroke="#666666" points="387.75,-30.5 257,-30.5 257,0 387.75,0 387.75,-30.5"/>
<text text-anchor="start" x="265" y="-17" font-family="Helvetica,sans-Serif" font-size="10.00">Slic3r::sla::DefaultSupport</text>
<text text-anchor="middle" x="322.38" y="-5.75" font-family="Helvetica,sans-Serif" font-size="10.00">Tree::execute</text>
</a>
</g>
</g>
<!-- Node4&#45;&gt;Node5 -->
<g id="edge4_Node000004_Node000005" class="edge">
<title>Node4&#45;&gt;Node5</title>
<g id="a_edge4_Node000004_Node000005"><a xlink:title=" ">
<path fill="none" stroke="#63b8ff" d="M412.74,-15.25C404.51,-15.25 396.19,-15.25 388.1,-15.25"/>
<polygon fill="#63b8ff" stroke="#63b8ff" points="412.48,-18.75 422.48,-15.25 412.48,-11.75 412.48,-18.75"/>
</a>
</g>
</g>
<!-- Node6 -->
<g id="Node000006" class="node">
<title>Node6</title>
<g id="a_Node000006"><a xlink:href="../../d2/d57/namespace_slic3r_1_1sla.html#a0ecccb1adb9bf4376fcaaf992f2a1c46" target="_top" xlink:title=" ">
<polygon fill="white" stroke="#666666" points="221,-30.5 128.5,-30.5 128.5,0 221,0 221,-30.5"/>
<text text-anchor="start" x="136.5" y="-17" font-family="Helvetica,sans-Serif" font-size="10.00">Slic3r::sla::create</text>
<text text-anchor="middle" x="174.75" y="-5.75" font-family="Helvetica,sans-Serif" font-size="10.00">_default_tree</text>
</a>
</g>
</g>
<!-- Node5&#45;&gt;Node6 -->
<g id="edge5_Node000005_Node000006" class="edge">
<title>Node5&#45;&gt;Node6</title>
<g id="a_edge5_Node000005_Node000006"><a xlink:title=" ">
<path fill="none" stroke="#63b8ff" d="M245.92,-15.25C237.44,-15.25 229.01,-15.25 221.08,-15.25"/>
<polygon fill="#63b8ff" stroke="#63b8ff" points="245.65,-18.75 255.65,-15.25 245.65,-11.75 245.65,-18.75"/>
</a>
</g>
</g>
<!-- Node7 -->
<g id="Node000007" class="node">
<title>Node7</title>
<g id="a_Node000007"><a xlink:href="../../d2/d57/namespace_slic3r_1_1sla.html#acefc3537b26afd54e46e3ebba58b0592" target="_top" xlink:title=" ">
<polygon fill="#fff0f0" stroke="red" points="92.5,-30.5 0,-30.5 0,0 92.5,0 92.5,-30.5"/>
<text text-anchor="start" x="8" y="-17" font-family="Helvetica,sans-Serif" font-size="10.00">Slic3r::sla::create</text>
<text text-anchor="middle" x="46.25" y="-5.75" font-family="Helvetica,sans-Serif" font-size="10.00">_support_tree</text>
</a>
</g>
</g>
<!-- Node6&#45;&gt;Node7 -->
<g id="edge6_Node000006_Node000007" class="edge">
<title>Node6&#45;&gt;Node7</title>
<g id="a_edge6_Node000006_Node000007"><a xlink:title=" ">
<path fill="none" stroke="#63b8ff" d="M117.14,-15.25C109.01,-15.25 100.73,-15.25 92.85,-15.25"/>
<polygon fill="#63b8ff" stroke="#63b8ff" points="117.08,-18.75 127.08,-15.25 117.08,-11.75 117.08,-18.75"/>
</a>
</g>
</g>
</g>
</svg>

<g id="navigator" transform="translate(0 0)" fill="#404254">
  <rect fill="#f2f5e9" fill-opacity="0.5" stroke="#606060" stroke-width=".5" x="0" y="0" width="60" height="60"/>
  <use id="zoomplus" xlink:href="#zoomPlus" x="17" y="9" onmousedown="handleZoom(evt,'in')"/>
  <use id="zoomminus" xlink:href="#zoomMin" x="42" y="9" onmousedown="handleZoom(evt,'out')"/>
  <use id="reset" xlink:href="#resetDef" x="30" y="36" onmousedown="handleReset()"/>
   <use id="arrowup" xlink:href="#arrowUp" x="0" y="0" onmousedown="handlePan(0,-1)"/>
  <use id="arrowright" xlink:href="#arrowRight" x="0" y="0" onmousedown="handlePan(1,0)"/>
  <use id="arrowdown" xlink:href="#arrowDown" x="0" y="0" onmousedown="handlePan(0,1)"/>
  <use id="arrowleft" xlink:href="#arrowLeft" x="0" y="0" onmousedown="handlePan(-1,0)"/>
</g>
<svg viewBox="0 0 15 15" width="100%" height="30px" preserveAspectRatio="xMaxYMin meet">
 <g id="arrow_out" transform="scale(0.3 0.3)">
  <a xlink:href="class_slic3r_1_1sla_1_1_support_tree_builder_a60ba8a33efdba2138201545d5d686bf6_icgraph_org.svg" target="_base">
   <rect id="button" ry="5" rx="5" y="6" x="6" height="38" width="38"
        fill="#f2f5e9" fill-opacity="0.5" stroke="#606060" stroke-width="1.0"/>
   <path id="arrow"
     d="M 11.500037,31.436501 C 11.940474,20.09759 22.043105,11.32322 32.158766,21.979434 L 37.068811,17.246167 C 37.068811,17.246167 37.088388,32 37.088388,32 L 22.160133,31.978069 C 22.160133,31.978069 26.997745,27.140456 26.997745,27.140456 C 18.528582,18.264221 13.291696,25.230495 11.500037,31.436501 z"
     style="fill:#404040;"/>
  </a>
 </g>
</svg>

<style type='text/css'>
<![CDATA[
[data-mouse-over-selected='false'] { opacity: 0.7; }
[data-mouse-over-selected='true']  { opacity: 1.0; }
]]>
</style>
<script type="application/ecmascript"><![CDATA[
document.addEventListener('DOMContentLoaded', (event) => {
  highlightEdges();
  highlightAdjacentNodes();
});
]]></script>
</svg>
