<?xml version="1.0" encoding="UTF-8" standalone="no"?>
<!DOCTYPE svg PUBLIC "-//W3C//DTD SVG 1.1//EN"
 "http://www.w3.org/Graphics/SVG/1.1/DTD/svg11.dtd">
<!-- Generated by graphviz version 8.0.5 (20230430.1635)
 -->
<!-- Title: Slic3r::Triangulation::triangulate Pages: 1 -->
<!--zoomable 247 -->

<svg id="main" version="1.1" xmlns="http://www.w3.org/2000/svg" xmlns:xlink="http://www.w3.org/1999/xlink" xml:space="preserve" onload="init(evt)">
<style type="text/css"><![CDATA[
.node, .edge {opacity: 0.7;}
.node.selected, .edge.selected {opacity: 1;}
.edge:hover path { stroke: red; }
.edge:hover polygon { stroke: red; fill: red; }
]]></style>

<defs>
  <circle id="rim" cx="0" cy="0" r="7"/>
  <circle id="rim2" cx="0" cy="0" r="3.5"/>
  <g id="zoomPlus">
    <use xlink:href="#rim" fill="#404040"><set attributeName="fill" to="#808080" begin="zoomplus.mouseover" end="zoomplus.mouseout"/></use>
    <path d="M-4,0h8M0,-4v8" fill="none" stroke="white" stroke-width="1.5" pointer-events="none"/>
  </g>
  <g id="zoomMin">
    <use xlink:href="#rim" fill="#404040"><set attributeName="fill" to="#808080" begin="zoomminus.mouseover" end="zoomminus.mouseout"/></use>
    <path d="M-4,0h8" fill="none" stroke="white" stroke-width="1.5" pointer-events="none"/>
  </g>
  <g id="arrowUp" transform="translate(30 24)">
    <use xlink:href="#rim"/>
    <path pointer-events="none" fill="none" stroke="white" stroke-width="1.5" d="M0,-3.0v7 M-2.5,-0.5L0,-3.0L2.5,-0.5"/>
  </g>
  <g id="arrowRight" transform="rotate(90) translate(36 -43)">
    <use xlink:href="#rim"/>
    <path pointer-events="none" fill="none" stroke="white" stroke-width="1.5" d="M0,-3.0v7 M-2.5,-0.5L0,-3.0L2.5,-0.5"/>
  </g>
  <g id="arrowDown" transform="rotate(180) translate(-30 -48)">
    <use xlink:href="#rim"/>
    <path pointer-events="none" fill="none" stroke="white" stroke-width="1.5" d="M0,-3.0v7 M-2.5,-0.5L0,-3.0L2.5,-0.5"/>
  </g>
  <g id="arrowLeft" transform="rotate(270) translate(-36 17)">
    <use xlink:href="#rim"/>
    <path pointer-events="none" fill="none" stroke="white" stroke-width="1.5" d="M0,-3.0v7 M-2.5,-0.5L0,-3.0L2.5,-0.5"/>
  </g>
  <g id="resetDef">
    <use xlink:href="#rim2" fill="#404040"><set attributeName="fill" to="#808080" begin="reset.mouseover" end="reset.mouseout"/></use>
  </g>
</defs>
<script type="application/ecmascript">
var viewWidth = 883;
var viewHeight = 247;
var sectionId = 'dynsection-1';
</script>
<script type="application/ecmascript" xlink:href="../../svg.min.js"/>
<svg id="graph" class="graph">
<g id="viewport">
<title>Slic3r::Triangulation::triangulate</title>
<!-- Node1 -->
<g id="Node000001" class="node">
<title>Node1</title>
<g id="a_Node000001"><a xlink:title=" ">
<polygon fill="#999999" stroke="#666666" points="102.25,-82.88 0,-82.88 0,-52.38 102.25,-52.38 102.25,-82.88"/>
<text text-anchor="start" x="8" y="-69.38" font-family="Helvetica,sans-Serif" font-size="10.00">Slic3r::Triangulation</text>
<text text-anchor="middle" x="51.12" y="-58.12" font-family="Helvetica,sans-Serif" font-size="10.00">::triangulate</text>
</a>
</g>
</g>
<!-- Node2 -->
<g id="Node000002" class="node">
<title>Node2</title>
<g id="a_Node000002"><a xlink:href="../../d0/d9f/class_slic3r_1_1_triangulation.html#a36895af18fef7eb3d2c83a28ed10c069" target="_top" xlink:title="Connect points by triangulation to create filled surface by triangles Input points have to be unique ...">
<polygon fill="white" stroke="#666666" points="240.5,-82.88 138.25,-82.88 138.25,-52.38 240.5,-52.38 240.5,-82.88"/>
<text text-anchor="start" x="146.25" y="-69.38" font-family="Helvetica,sans-Serif" font-size="10.00">Slic3r::Triangulation</text>
<text text-anchor="middle" x="189.38" y="-58.12" font-family="Helvetica,sans-Serif" font-size="10.00">::triangulate</text>
</a>
</g>
</g>
<!-- Node1&#45;&gt;Node2 -->
<g id="edge1_Node000001_Node000002" class="edge">
<title>Node1&#45;&gt;Node2</title>
<g id="a_edge1_Node000001_Node000002"><a xlink:title=" ">
<path fill="none" stroke="#63b8ff" d="M102.47,-67.62C110.39,-67.62 118.66,-67.62 126.8,-67.62"/>
<polygon fill="#63b8ff" stroke="#63b8ff" points="126.78,-71.13 136.78,-67.62 126.78,-64.13 126.78,-71.13"/>
</a>
</g>
</g>
<!-- Node3 -->
<g id="Node000003" class="node">
<title>Node3</title>
<g id="a_Node000003"><a xlink:href="../../de/db8/namespace_slic3r.html#a92b2e5013291a55201abda7303b67baf" target="_top" xlink:title=" ">
<polygon fill="white" stroke="#666666" points="366.38,-157.25 316.62,-157.25 316.62,-138 366.38,-138 366.38,-157.25"/>
<text text-anchor="middle" x="341.5" y="-143.75" font-family="Helvetica,sans-Serif" font-size="10.00">Slic3r::f</text>
</a>
</g>
</g>
<!-- Node2&#45;&gt;Node3 -->
<g id="edge2_Node000002_Node000003" class="edge">
<title>Node2&#45;&gt;Node3</title>
<g id="a_edge2_Node000002_Node000003"><a xlink:title=" ">
<path fill="none" stroke="#63b8ff" d="M219.47,-83.18C236.15,-92.1 257.5,-103.5 276.5,-113.62 288.06,-119.78 300.81,-126.56 311.86,-132.43"/>
<polygon fill="#63b8ff" stroke="#63b8ff" points="309.98,-135.92 320.45,-137.52 313.26,-129.74 309.98,-135.92"/>
</a>
</g>
</g>
<!-- Node9 -->
<g id="Node000009" class="node">
<title>Node9</title>
<g id="a_Node000009"><a xlink:href="../../dc/db2/namespacepriv.html#a35f05a911a28543609d7231436d45d9f" target="_top" xlink:title=" ">
<polygon fill="white" stroke="#666666" points="396.75,-104.88 286.25,-104.88 286.25,-74.38 396.75,-74.38 396.75,-104.88"/>
<text text-anchor="start" x="294.25" y="-91.38" font-family="Helvetica,sans-Serif" font-size="10.00">priv::has_bidirectional</text>
<text text-anchor="middle" x="341.5" y="-80.12" font-family="Helvetica,sans-Serif" font-size="10.00">_constrained</text>
</a>
</g>
</g>
<!-- Node2&#45;&gt;Node9 -->
<g id="edge8_Node000002_Node000009" class="edge">
<title>Node2&#45;&gt;Node9</title>
<g id="a_edge8_Node000002_Node000009"><a xlink:title=" ">
<path fill="none" stroke="#63b8ff" d="M240.78,-75.01C251.76,-76.62 263.52,-78.34 274.98,-80.02"/>
<polygon fill="#63b8ff" stroke="#63b8ff" points="274.44,-83.63 284.85,-81.62 275.46,-76.7 274.44,-83.63"/>
</a>
</g>
</g>
<!-- Node10 -->
<g id="Node000010" class="node">
<title>Node10</title>
<g id="a_Node000010"><a xlink:href="../../dc/db2/namespacepriv.html#a3a6841d21cebe7cfddd314b518c3eb11" target="_top" xlink:title=" ">
<polygon fill="white" stroke="#666666" points="406.5,-56.25 276.5,-56.25 276.5,-37 406.5,-37 406.5,-56.25"/>
<text text-anchor="middle" x="341.5" y="-42.75" font-family="Helvetica,sans-Serif" font-size="10.00">priv::has_self_intersection</text>
</a>
</g>
</g>
<!-- Node2&#45;&gt;Node10 -->
<g id="edge9_Node000002_Node000010" class="edge">
<title>Node2&#45;&gt;Node10</title>
<g id="a_edge9_Node000002_Node000010"><a xlink:title=" ">
<path fill="none" stroke="#63b8ff" d="M240.78,-60.57C248.66,-59.47 256.94,-58.31 265.23,-57.15"/>
<polygon fill="#63b8ff" stroke="#63b8ff" points="265.68,-60.49 275.1,-55.63 264.71,-53.55 265.68,-60.49"/>
</a>
</g>
</g>
<!-- Node20 -->
<g id="Node000020" class="node">
<title>Node20</title>
<g id="a_Node000020"><a xlink:href="../../dc/db2/namespacepriv.html#ab9f2e5c6fdfd0326f6a5fc52e794c969" target="_top" xlink:title=" ">
<polygon fill="white" stroke="#666666" points="381,-19.25 302,-19.25 302,0 381,0 381,-19.25"/>
<text text-anchor="middle" x="341.5" y="-5.75" font-family="Helvetica,sans-Serif" font-size="10.00">priv::is_unique</text>
</a>
</g>
</g>
<!-- Node2&#45;&gt;Node20 -->
<g id="edge15_Node000002_Node000020" class="edge">
<title>Node2&#45;&gt;Node20</title>
<g id="a_edge15_Node000002_Node000020"><a xlink:title=" ">
<path fill="none" stroke="#63b8ff" d="M220.96,-51.96C237.19,-44.02 257.64,-34.61 276.5,-27.62 281.26,-25.86 286.26,-24.18 291.3,-22.59"/>
<polygon fill="#63b8ff" stroke="#63b8ff" points="292.03,-25.73 300.6,-19.49 290.01,-19.02 292.03,-25.73"/>
</a>
</g>
</g>
<!-- Node4 -->
<g id="Node000004" class="node">
<title>Node4</title>
<g id="a_Node000004"><a xlink:href="../../d4/df0/_array_cwise_unary_ops_8h.html#a65b7255208b30e0a3a5a0389b77465db" target="_top" xlink:title=" ">
<polygon fill="white" stroke="#666666" points="508,-239.25 474,-239.25 474,-220 508,-220 508,-239.25"/>
<text text-anchor="middle" x="491" y="-225.75" font-family="Helvetica,sans-Serif" font-size="10.00">asin</text>
</a>
</g>
</g>
<!-- Node3&#45;&gt;Node4 -->
<g id="edge3_Node000003_Node000004" class="edge">
<title>Node3&#45;&gt;Node4</title>
<g id="a_edge3_Node000003_Node000004"><a xlink:title=" ">
<path fill="none" stroke="#63b8ff" d="M356.2,-157.7C374.98,-171.19 410.09,-195.33 442.5,-211.62 449.28,-215.03 456.86,-218.18 463.94,-220.86"/>
<polygon fill="#63b8ff" stroke="#63b8ff" points="462.22,-224.32 472.81,-224.43 464.6,-217.74 462.22,-224.32"/>
</a>
</g>
</g>
<!-- Node5 -->
<g id="Node000005" class="node">
<title>Node5</title>
<g id="a_Node000005"><a xlink:href="../../d4/df0/_array_cwise_unary_ops_8h.html#a92b03396990b0e9eea0731aa406e31a4" target="_top" xlink:title=" ">
<polygon fill="white" stroke="#666666" points="506.88,-202.25 475.12,-202.25 475.12,-183 506.88,-183 506.88,-202.25"/>
<text text-anchor="middle" x="491" y="-188.75" font-family="Helvetica,sans-Serif" font-size="10.00">cos</text>
</a>
</g>
</g>
<!-- Node3&#45;&gt;Node5 -->
<g id="edge4_Node000003_Node000005" class="edge">
<title>Node3&#45;&gt;Node5</title>
<g id="a_edge4_Node000003_Node000005"><a xlink:title=" ">
<path fill="none" stroke="#63b8ff" d="M366.86,-155.06C393.75,-163.26 436.87,-176.42 464.3,-184.78"/>
<polygon fill="#63b8ff" stroke="#63b8ff" points="463.07,-188.37 473.65,-187.94 465.11,-181.68 463.07,-188.37"/>
</a>
</g>
</g>
<!-- Node6 -->
<g id="Node000006" class="node">
<title>Node6</title>
<g id="a_Node000006"><a xlink:href="../../d4/df0/_array_cwise_unary_ops_8h.html#a9cfb0ea58bd813510a9e2db18a5e49f0" target="_top" xlink:title=" ">
<polygon fill="white" stroke="#666666" points="505.4,-165.25 476.6,-165.25 476.6,-146 505.4,-146 505.4,-165.25"/>
<text text-anchor="middle" x="491" y="-151.75" font-family="Helvetica,sans-Serif" font-size="10.00">sin</text>
</a>
</g>
</g>
<!-- Node3&#45;&gt;Node6 -->
<g id="edge5_Node000003_Node000006" class="edge">
<title>Node3&#45;&gt;Node6</title>
<g id="a_edge5_Node000003_Node000006"><a xlink:title=" ">
<path fill="none" stroke="#63b8ff" d="M366.86,-148.95C394.08,-150.42 437.94,-152.8 465.3,-154.29"/>
<polygon fill="#63b8ff" stroke="#63b8ff" points="465.09,-157.83 475.26,-154.88 465.46,-150.84 465.09,-157.83"/>
</a>
</g>
</g>
<!-- Node7 -->
<g id="Node000007" class="node">
<title>Node7</title>
<g id="a_Node000007"><a xlink:href="../../de/db8/namespace_slic3r.html#a9f09756940b3eb2052058460bf07e4a3" target="_top" xlink:title=" ">
<polygon fill="white" stroke="#666666" points="521.12,-128.25 460.88,-128.25 460.88,-109 521.12,-109 521.12,-128.25"/>
<text text-anchor="middle" x="491" y="-114.75" font-family="Helvetica,sans-Serif" font-size="10.00">Slic3r::sqr</text>
</a>
</g>
</g>
<!-- Node3&#45;&gt;Node7 -->
<g id="edge6_Node000003_Node000007" class="edge">
<title>Node3&#45;&gt;Node7</title>
<g id="a_edge6_Node000003_Node000007"><a xlink:title=" ">
<path fill="none" stroke="#63b8ff" d="M366.86,-142.84C389.44,-138.4 423.45,-131.71 450.02,-126.49"/>
<polygon fill="#63b8ff" stroke="#63b8ff" points="450.39,-129.78 459.52,-124.42 449.03,-122.92 450.39,-129.78"/>
</a>
</g>
</g>
<!-- Node8 -->
<g id="Node000008" class="node">
<title>Node8</title>
<g id="a_Node000008"><a xlink:href="../../d4/df0/_array_cwise_unary_ops_8h.html#a656b9217a2fcb6de59dc8d1eb3079cc7" target="_top" xlink:title=" ">
<polygon fill="white" stroke="#666666" points="507.25,-91.25 474.75,-91.25 474.75,-72 507.25,-72 507.25,-91.25"/>
<text text-anchor="middle" x="491" y="-77.75" font-family="Helvetica,sans-Serif" font-size="10.00">sqrt</text>
</a>
</g>
</g>
<!-- Node3&#45;&gt;Node8 -->
<g id="edge7_Node000003_Node000008" class="edge">
<title>Node3&#45;&gt;Node8</title>
<g id="a_edge7_Node000003_Node000008"><a xlink:title=" ">
<path fill="none" stroke="#63b8ff" d="M362.19,-137.56C382.2,-127.48 414.18,-111.76 442.5,-99.62 449.5,-96.63 457.18,-93.6 464.28,-90.91"/>
<polygon fill="#63b8ff" stroke="#63b8ff" points="465.31,-93.89 473.46,-87.13 462.87,-87.33 465.31,-93.89"/>
</a>
</g>
</g>
<!-- Node11 -->
<g id="Node000011" class="node">
<title>Node11</title>
<g id="a_Node000011"><a xlink:href="../../de/db8/namespace_slic3r.html#a082016a81d9048f8d5f23efafa2d05f2" target="_top" xlink:title=" ">
<polygon fill="white" stroke="#666666" points="539.5,-53.88 442.5,-53.88 442.5,-23.38 539.5,-23.38 539.5,-53.88"/>
<text text-anchor="start" x="450.5" y="-40.38" font-family="Helvetica,sans-Serif" font-size="10.00">Slic3r::intersection</text>
<text text-anchor="middle" x="491" y="-29.12" font-family="Helvetica,sans-Serif" font-size="10.00">_points</text>
</a>
</g>
</g>
<!-- Node10&#45;&gt;Node11 -->
<g id="edge10_Node000010_Node000011" class="edge">
<title>Node10&#45;&gt;Node11</title>
<g id="a_edge10_Node000010_Node000011"><a xlink:title=" ">
<path fill="none" stroke="#63b8ff" d="M406.77,-43.14C414.99,-42.69 423.37,-42.24 431.49,-41.8"/>
<polygon fill="#63b8ff" stroke="#63b8ff" points="431.57,-45.25 441.36,-41.21 431.19,-38.26 431.57,-45.25"/>
</a>
</g>
</g>
<!-- Node12 -->
<g id="Node000012" class="node">
<title>Node12</title>
<g id="a_Node000012"><a xlink:href="../../dc/db2/namespacepriv.html#ab60242eeeebe72c4b8102c4818b085ad" target="_top" xlink:title=" ">
<polygon fill="white" stroke="#666666" points="711.5,-48.25 575.5,-48.25 575.5,-29 711.5,-29 711.5,-48.25"/>
<text text-anchor="middle" x="643.5" y="-34.75" font-family="Helvetica,sans-Serif" font-size="10.00">priv::compute_intersections</text>
</a>
</g>
</g>
<!-- Node11&#45;&gt;Node12 -->
<g id="edge11_Node000011_Node000012" class="edge">
<title>Node11&#45;&gt;Node12</title>
<g id="a_edge11_Node000011_Node000012"><a xlink:title=" ">
<path fill="none" stroke="#63b8ff" d="M539.62,-38.62C547.46,-38.62 555.77,-38.62 564.13,-38.62"/>
<polygon fill="#63b8ff" stroke="#63b8ff" points="564.12,-42.13 574.12,-38.62 564.12,-35.13 564.12,-42.13"/>
</a>
</g>
</g>
<!-- Node13 -->
<g id="Node000013" class="node">
<title>Node13</title>
<g id="a_Node000013"><a xlink:href="../../d6/d3b/class_slic3r_1_1_line.html#aeba37d96787d83fc0efd7e1eae91946a" target="_top" xlink:title=" ">
<polygon fill="#fff0f0" stroke="red" points="871.5,-70.25 750.5,-70.25 750.5,-51 871.5,-51 871.5,-70.25"/>
<text text-anchor="middle" x="811" y="-56.75" font-family="Helvetica,sans-Serif" font-size="10.00">Slic3r::Line::intersection</text>
</a>
</g>
</g>
<!-- Node12&#45;&gt;Node13 -->
<g id="edge12_Node000012_Node000013" class="edge">
<title>Node12&#45;&gt;Node13</title>
<g id="a_edge12_Node000012_Node000013"><a xlink:title=" ">
<path fill="none" stroke="#63b8ff" d="M711.82,-47.57C720.95,-48.79 730.34,-50.04 739.53,-51.26"/>
<polygon fill="#63b8ff" stroke="#63b8ff" points="738.82,-54.83 749.19,-52.67 739.74,-47.89 738.82,-54.83"/>
</a>
</g>
</g>
<!-- Node19 -->
<g id="Node000019" class="node">
<title>Node19</title>
<g id="a_Node000019"><a xlink:href="../../dc/d28/class_slic3r_1_1_bounding_box_base.html#ab018a2328012cc9b90983ccf5776c9b1" target="_top" xlink:title=" ">
<polygon fill="white" stroke="#666666" points="874.5,-32.88 747.5,-32.88 747.5,-2.37 874.5,-2.37 874.5,-32.88"/>
<text text-anchor="start" x="755.5" y="-19.38" font-family="Helvetica,sans-Serif" font-size="10.00">Slic3r::BoundingBoxBase</text>
<text text-anchor="middle" x="811" y="-8.12" font-family="Helvetica,sans-Serif" font-size="10.00">::overlap</text>
</a>
</g>
</g>
<!-- Node12&#45;&gt;Node19 -->
<g id="edge14_Node000012_Node000019" class="edge">
<title>Node12&#45;&gt;Node19</title>
<g id="a_edge14_Node000012_Node000019"><a xlink:title=" ">
<path fill="none" stroke="#63b8ff" d="M711.82,-30.08C719.9,-29.06 728.2,-28 736.37,-26.97"/>
<polygon fill="#63b8ff" stroke="#63b8ff" points="736.54,-30.35 746.02,-25.62 735.66,-23.4 736.54,-30.35"/>
</a>
</g>
</g>
<!-- Node13&#45;&gt;Node13 -->
<g id="edge13_Node000013_Node000013" class="edge">
<title>Node13&#45;&gt;Node13</title>
<g id="a_edge13_Node000013_Node000013"><a xlink:title=" ">
<path fill="none" stroke="#63b8ff" d="M784.78,-70.54C772.82,-79.15 781.56,-88.25 811,-88.25 828.48,-88.25 838.67,-85.04 841.55,-80.63"/>
<polygon fill="#63b8ff" stroke="#63b8ff" points="844.38,-79.35 837.22,-71.54 837.95,-82.11 844.38,-79.35"/>
</a>
</g>
</g>
</g>
</svg>

<g id="navigator" transform="translate(0 0)" fill="#404254">
  <rect fill="#f2f5e9" fill-opacity="0.5" stroke="#606060" stroke-width=".5" x="0" y="0" width="60" height="60"/>
  <use id="zoomplus" xlink:href="#zoomPlus" x="17" y="9" onmousedown="handleZoom(evt,'in')"/>
  <use id="zoomminus" xlink:href="#zoomMin" x="42" y="9" onmousedown="handleZoom(evt,'out')"/>
  <use id="reset" xlink:href="#resetDef" x="30" y="36" onmousedown="handleReset()"/>
   <use id="arrowup" xlink:href="#arrowUp" x="0" y="0" onmousedown="handlePan(0,-1)"/>
  <use id="arrowright" xlink:href="#arrowRight" x="0" y="0" onmousedown="handlePan(1,0)"/>
  <use id="arrowdown" xlink:href="#arrowDown" x="0" y="0" onmousedown="handlePan(0,1)"/>
  <use id="arrowleft" xlink:href="#arrowLeft" x="0" y="0" onmousedown="handlePan(-1,0)"/>
</g>
<svg viewBox="0 0 15 15" width="100%" height="30px" preserveAspectRatio="xMaxYMin meet">
 <g id="arrow_out" transform="scale(0.3 0.3)">
  <a xlink:href="class_slic3r_1_1_triangulation_a60892fd074b65eb05c2cbb254357ed68_cgraph_org.svg" target="_base">
   <rect id="button" ry="5" rx="5" y="6" x="6" height="38" width="38"
        fill="#f2f5e9" fill-opacity="0.5" stroke="#606060" stroke-width="1.0"/>
   <path id="arrow"
     d="M 11.500037,31.436501 C 11.940474,20.09759 22.043105,11.32322 32.158766,21.979434 L 37.068811,17.246167 C 37.068811,17.246167 37.088388,32 37.088388,32 L 22.160133,31.978069 C 22.160133,31.978069 26.997745,27.140456 26.997745,27.140456 C 18.528582,18.264221 13.291696,25.230495 11.500037,31.436501 z"
     style="fill:#404040;"/>
  </a>
 </g>
</svg>

<style type='text/css'>
<![CDATA[
[data-mouse-over-selected='false'] { opacity: 0.7; }
[data-mouse-over-selected='true']  { opacity: 1.0; }
]]>
</style>
<script type="application/ecmascript"><![CDATA[
document.addEventListener('DOMContentLoaded', (event) => {
  highlightEdges();
  highlightAdjacentNodes();
});
]]></script>
</svg>
