<?xml version="1.0" encoding="UTF-8" standalone="no"?>
<!DOCTYPE svg PUBLIC "-//W3C//DTD SVG 1.1//EN"
 "http://www.w3.org/Graphics/SVG/1.1/DTD/svg11.dtd">
<!-- Generated by graphviz version 8.0.5 (20230430.1635)
 -->
<!-- Title: Slic3r::GUI::ObjectList::changed_object Pages: 1 -->
<svg width="808pt" height="88pt"
 viewBox="0.00 0.00 808.00 87.50" xmlns="http://www.w3.org/2000/svg" xmlns:xlink="http://www.w3.org/1999/xlink">
<g id="graph0" class="graph" transform="scale(1 1) rotate(0) translate(4 83.5)">
<title>Slic3r::GUI::ObjectList::changed_object</title>
<!-- Node1 -->
<g id="Node000001" class="node">
<title>Node1</title>
<g id="a_Node000001"><a xlink:title=" ">
<polygon fill="#999999" stroke="#666666" points="115,-54.5 0,-54.5 0,-24 115,-24 115,-54.5"/>
<text text-anchor="start" x="8" y="-41" font-family="Helvetica,sans-Serif" font-size="10.00">Slic3r::GUI::ObjectList</text>
<text text-anchor="middle" x="57.5" y="-29.75" font-family="Helvetica,sans-Serif" font-size="10.00">::changed_object</text>
</a>
</g>
</g>
<!-- Node2 -->
<g id="Node000002" class="node">
<title>Node2</title>
<g id="a_Node000002"><a xlink:href="../../dd/d03/class_slic3r_1_1_g_u_i_1_1_object_list.html#aaa614a201a5782c505b3fa9c4d03dc53" target="_top" xlink:title=" ">
<polygon fill="white" stroke="#666666" points="266,-54.5 151,-54.5 151,-24 266,-24 266,-54.5"/>
<text text-anchor="start" x="159" y="-41" font-family="Helvetica,sans-Serif" font-size="10.00">Slic3r::GUI::ObjectList</text>
<text text-anchor="middle" x="208.5" y="-29.75" font-family="Helvetica,sans-Serif" font-size="10.00">::get_selected_obj_idx</text>
</a>
</g>
</g>
<!-- Node1&#45;&gt;Node2 -->
<g id="edge1_Node000001_Node000002" class="edge">
<title>Node1&#45;&gt;Node2</title>
<g id="a_edge1_Node000001_Node000002"><a xlink:title=" ">
<path fill="none" stroke="#63b8ff" d="M115.26,-39.25C123.38,-39.25 131.79,-39.25 140.09,-39.25"/>
<polygon fill="#63b8ff" stroke="#63b8ff" points="139.9,-42.75 149.9,-39.25 139.9,-35.75 139.9,-42.75"/>
</a>
</g>
</g>
<!-- Node3 -->
<g id="Node000003" class="node">
<title>Node3</title>
<g id="a_Node000003"><a xlink:href="../../d5/dcc/class_slic3r_1_1_g_u_i_1_1_object_data_view_model.html#ac2fc9321ebb8cb1e616fff6c12e51165" target="_top" xlink:title=" ">
<polygon fill="white" stroke="#666666" points="444,-79.5 302,-79.5 302,-49 444,-49 444,-79.5"/>
<text text-anchor="start" x="310" y="-66" font-family="Helvetica,sans-Serif" font-size="10.00">Slic3r::GUI::ObjectDataView</text>
<text text-anchor="middle" x="373" y="-54.75" font-family="Helvetica,sans-Serif" font-size="10.00">Model::GetIdByItem</text>
</a>
</g>
</g>
<!-- Node2&#45;&gt;Node3 -->
<g id="edge2_Node000002_Node000003" class="edge">
<title>Node2&#45;&gt;Node3</title>
<g id="a_edge2_Node000002_Node000003"><a xlink:title=" ">
<path fill="none" stroke="#63b8ff" d="M266.33,-47.99C274.38,-49.23 282.77,-50.52 291.16,-51.81"/>
<polygon fill="#63b8ff" stroke="#63b8ff" points="290.35,-55.38 300.76,-53.44 291.41,-48.46 290.35,-55.38"/>
</a>
</g>
</g>
<!-- Node4 -->
<g id="Node000004" class="node">
<title>Node4</title>
<g id="a_Node000004"><a xlink:href="../../d5/dcc/class_slic3r_1_1_g_u_i_1_1_object_data_view_model.html#a716f961d9df0061cfd1cb197cc869ed6" target="_top" xlink:title=" ">
<polygon fill="white" stroke="#666666" points="444,-30.5 302,-30.5 302,0 444,0 444,-30.5"/>
<text text-anchor="start" x="310" y="-17" font-family="Helvetica,sans-Serif" font-size="10.00">Slic3r::GUI::ObjectDataView</text>
<text text-anchor="middle" x="373" y="-5.75" font-family="Helvetica,sans-Serif" font-size="10.00">Model::GetTopParent</text>
</a>
</g>
</g>
<!-- Node2&#45;&gt;Node4 -->
<g id="edge3_Node000002_Node000004" class="edge">
<title>Node2&#45;&gt;Node4</title>
<g id="a_edge3_Node000002_Node000004"><a xlink:title=" ">
<path fill="none" stroke="#63b8ff" d="M266.33,-30.86C274.29,-29.68 282.59,-28.46 290.89,-27.23"/>
<polygon fill="#63b8ff" stroke="#63b8ff" points="291.38,-30.55 300.76,-25.62 290.36,-23.62 291.38,-30.55"/>
</a>
</g>
</g>
<!-- Node5 -->
<g id="Node000005" class="node">
<title>Node5</title>
<g id="a_Node000005"><a xlink:href="../../d6/d78/class_slic3r_1_1_g_u_i_1_1_object_data_view_model_node.html#afee5cec20240bd08013d5ac1fb9d144e" target="_top" xlink:title=" ">
<polygon fill="white" stroke="#666666" points="622,-30.5 480,-30.5 480,0 622,0 622,-30.5"/>
<text text-anchor="start" x="488" y="-17" font-family="Helvetica,sans-Serif" font-size="10.00">Slic3r::GUI::ObjectDataView</text>
<text text-anchor="middle" x="551" y="-5.75" font-family="Helvetica,sans-Serif" font-size="10.00">ModelNode::GetParent</text>
</a>
</g>
</g>
<!-- Node4&#45;&gt;Node5 -->
<g id="edge4_Node000004_Node000005" class="edge">
<title>Node4&#45;&gt;Node5</title>
<g id="a_edge4_Node000004_Node000005"><a xlink:title=" ">
<path fill="none" stroke="#63b8ff" d="M444.32,-15.25C452.28,-15.25 460.45,-15.25 468.54,-15.25"/>
<polygon fill="#63b8ff" stroke="#63b8ff" points="468.51,-18.75 478.51,-15.25 468.51,-11.75 468.51,-18.75"/>
</a>
</g>
</g>
<!-- Node6 -->
<g id="Node000006" class="node">
<title>Node6</title>
<g id="a_Node000006"><a xlink:href="../../d6/d78/class_slic3r_1_1_g_u_i_1_1_object_data_view_model_node.html#a1a69647c3645fa09d78e89fa8a7fbbc0" target="_top" xlink:title=" ">
<polygon fill="white" stroke="#666666" points="800,-30.5 658,-30.5 658,0 800,0 800,-30.5"/>
<text text-anchor="start" x="666" y="-17" font-family="Helvetica,sans-Serif" font-size="10.00">Slic3r::GUI::ObjectDataView</text>
<text text-anchor="middle" x="729" y="-5.75" font-family="Helvetica,sans-Serif" font-size="10.00">ModelNode::valid</text>
</a>
</g>
</g>
<!-- Node5&#45;&gt;Node6 -->
<g id="edge5_Node000005_Node000006" class="edge">
<title>Node5&#45;&gt;Node6</title>
<g id="a_edge5_Node000005_Node000006"><a xlink:title=" ">
<path fill="none" stroke="#63b8ff" d="M622.32,-15.25C630.28,-15.25 638.45,-15.25 646.54,-15.25"/>
<polygon fill="#63b8ff" stroke="#63b8ff" points="646.51,-18.75 656.51,-15.25 646.51,-11.75 646.51,-18.75"/>
</a>
</g>
</g>
</g>
</svg>
