<?xml version="1.0" encoding="UTF-8" standalone="no"?>
<!DOCTYPE svg PUBLIC "-//W3C//DTD SVG 1.1//EN"
 "http://www.w3.org/Graphics/SVG/1.1/DTD/svg11.dtd">
<!-- Generated by graphviz version 8.0.5 (20230430.1635)
 -->
<!-- Title: Slic3r::Arachne::LinearAlg2D::getAngleLeft Pages: 1 -->
<!--zoomable 113 -->

<svg id="main" version="1.1" xmlns="http://www.w3.org/2000/svg" xmlns:xlink="http://www.w3.org/1999/xlink" xml:space="preserve" onload="init(evt)">
<style type="text/css"><![CDATA[
.node, .edge {opacity: 0.7;}
.node.selected, .edge.selected {opacity: 1;}
.edge:hover path { stroke: red; }
.edge:hover polygon { stroke: red; fill: red; }
]]></style>

<defs>
  <circle id="rim" cx="0" cy="0" r="7"/>
  <circle id="rim2" cx="0" cy="0" r="3.5"/>
  <g id="zoomPlus">
    <use xlink:href="#rim" fill="#404040"><set attributeName="fill" to="#808080" begin="zoomplus.mouseover" end="zoomplus.mouseout"/></use>
    <path d="M-4,0h8M0,-4v8" fill="none" stroke="white" stroke-width="1.5" pointer-events="none"/>
  </g>
  <g id="zoomMin">
    <use xlink:href="#rim" fill="#404040"><set attributeName="fill" to="#808080" begin="zoomminus.mouseover" end="zoomminus.mouseout"/></use>
    <path d="M-4,0h8" fill="none" stroke="white" stroke-width="1.5" pointer-events="none"/>
  </g>
  <g id="arrowUp" transform="translate(30 24)">
    <use xlink:href="#rim"/>
    <path pointer-events="none" fill="none" stroke="white" stroke-width="1.5" d="M0,-3.0v7 M-2.5,-0.5L0,-3.0L2.5,-0.5"/>
  </g>
  <g id="arrowRight" transform="rotate(90) translate(36 -43)">
    <use xlink:href="#rim"/>
    <path pointer-events="none" fill="none" stroke="white" stroke-width="1.5" d="M0,-3.0v7 M-2.5,-0.5L0,-3.0L2.5,-0.5"/>
  </g>
  <g id="arrowDown" transform="rotate(180) translate(-30 -48)">
    <use xlink:href="#rim"/>
    <path pointer-events="none" fill="none" stroke="white" stroke-width="1.5" d="M0,-3.0v7 M-2.5,-0.5L0,-3.0L2.5,-0.5"/>
  </g>
  <g id="arrowLeft" transform="rotate(270) translate(-36 17)">
    <use xlink:href="#rim"/>
    <path pointer-events="none" fill="none" stroke="white" stroke-width="1.5" d="M0,-3.0v7 M-2.5,-0.5L0,-3.0L2.5,-0.5"/>
  </g>
  <g id="resetDef">
    <use xlink:href="#rim2" fill="#404040"><set attributeName="fill" to="#808080" begin="reset.mouseover" end="reset.mouseout"/></use>
  </g>
</defs>
<script type="application/ecmascript">
var viewWidth = 995;
var viewHeight = 113;
var sectionId = 'dynsection-1';
</script>
<script type="application/ecmascript" xlink:href="../../svg.min.js"/>
<svg id="graph" class="graph">
<g id="viewport">
<title>Slic3r::Arachne::LinearAlg2D::getAngleLeft</title>
<!-- Node1 -->
<g id="Node000001" class="node">
<title>Node1</title>
<g id="a_Node000001"><a xlink:title=" ">
<polygon fill="#999999" stroke="#666666" points="987,-54.5 852.5,-54.5 852.5,-24 987,-24 987,-54.5"/>
<text text-anchor="start" x="860.5" y="-41" font-family="Helvetica,sans-Serif" font-size="10.00">Slic3r::Arachne::LinearAlg2</text>
<text text-anchor="middle" x="919.75" y="-29.75" font-family="Helvetica,sans-Serif" font-size="10.00">D::getAngleLeft</text>
</a>
</g>
</g>
<!-- Node2 -->
<g id="Node000002" class="node">
<title>Node2</title>
<g id="a_Node000002"><a xlink:href="../../dc/da5/namespace_slic3r_1_1_arachne.html#ae594ce6e0f1e46b306f2ccb4c4635cc9" target="_top" xlink:title=" ">
<polygon fill="white" stroke="#666666" points="816.5,-54.5 659.5,-54.5 659.5,-24 816.5,-24 816.5,-54.5"/>
<text text-anchor="start" x="667.5" y="-41" font-family="Helvetica,sans-Serif" font-size="10.00">Slic3r::Arachne::removeColinear</text>
<text text-anchor="middle" x="738" y="-29.75" font-family="Helvetica,sans-Serif" font-size="10.00">Edges</text>
</a>
</g>
</g>
<!-- Node1&#45;&gt;Node2 -->
<g id="edge1_Node000001_Node000002" class="edge">
<title>Node1&#45;&gt;Node2</title>
<g id="a_edge1_Node000001_Node000002"><a xlink:title=" ">
<path fill="none" stroke="#63b8ff" d="M841.17,-39.25C833.09,-39.25 824.88,-39.25 816.8,-39.25"/>
<polygon fill="#63b8ff" stroke="#63b8ff" points="841.07,-42.75 851.07,-39.25 841.07,-35.75 841.07,-42.75"/>
</a>
</g>
</g>
<!-- Node3 -->
<g id="Node000003" class="node">
<title>Node3</title>
<g id="a_Node000003"><a xlink:href="../../d2/d46/class_slic3r_1_1_arachne_1_1_wall_tool_paths.html#aeca7ae7fda285e3bc199977827c554d5" target="_top" xlink:title=" ">
<polygon fill="white" stroke="#666666" points="607.75,-79.5 482.25,-79.5 482.25,-49 607.75,-49 607.75,-79.5"/>
<text text-anchor="start" x="490.25" y="-66" font-family="Helvetica,sans-Serif" font-size="10.00">Slic3r::Arachne::WallTool</text>
<text text-anchor="middle" x="545" y="-54.75" font-family="Helvetica,sans-Serif" font-size="10.00">Paths::generate</text>
</a>
</g>
</g>
<!-- Node2&#45;&gt;Node3 -->
<g id="edge2_Node000002_Node000003" class="edge">
<title>Node2&#45;&gt;Node3</title>
<g id="a_edge2_Node000002_Node000003"><a xlink:title=" ">
<path fill="none" stroke="#63b8ff" d="M648.25,-50.87C634.73,-52.64 621.02,-54.43 608.23,-56.1"/>
<polygon fill="#63b8ff" stroke="#63b8ff" points="648.58,-54.22 658.04,-49.45 647.67,-47.28 648.58,-54.22"/>
</a>
</g>
</g>
<!-- Node10 -->
<g id="Node000010" class="node">
<title>Node10</title>
<g id="a_Node000010"><a xlink:href="../../dc/da5/namespace_slic3r_1_1_arachne.html#ab99a8cacaa495e62074f014fd5c7f088" target="_top" xlink:title=" ">
<polygon fill="white" stroke="#666666" points="623.5,-30.5 466.5,-30.5 466.5,0 623.5,0 623.5,-30.5"/>
<text text-anchor="start" x="474.5" y="-17" font-family="Helvetica,sans-Serif" font-size="10.00">Slic3r::Arachne::removeColinear</text>
<text text-anchor="middle" x="545" y="-5.75" font-family="Helvetica,sans-Serif" font-size="10.00">Edges</text>
</a>
</g>
</g>
<!-- Node2&#45;&gt;Node10 -->
<g id="edge9_Node000002_Node000010" class="edge">
<title>Node2&#45;&gt;Node10</title>
<g id="a_edge9_Node000002_Node000010"><a xlink:title=" ">
<path fill="none" stroke="#63b8ff" d="M648.3,-28.1C640.09,-27.07 631.81,-26.03 623.71,-25.02"/>
<polygon fill="#63b8ff" stroke="#63b8ff" points="647.68,-31.68 658.04,-29.45 648.55,-24.73 647.68,-31.68"/>
</a>
</g>
</g>
<!-- Node4 -->
<g id="Node000004" class="node">
<title>Node4</title>
<g id="a_Node000004"><a xlink:href="../../d2/d46/class_slic3r_1_1_arachne_1_1_wall_tool_paths.html#a389d9ce3caf646057d74a4b88f9844cd" target="_top" xlink:title=" ">
<polygon fill="white" stroke="#666666" points="430.5,-104.5 305,-104.5 305,-74 430.5,-74 430.5,-104.5"/>
<text text-anchor="start" x="313" y="-91" font-family="Helvetica,sans-Serif" font-size="10.00">Slic3r::Arachne::WallTool</text>
<text text-anchor="middle" x="367.75" y="-79.75" font-family="Helvetica,sans-Serif" font-size="10.00">Paths::getInnerContour</text>
</a>
</g>
</g>
<!-- Node3&#45;&gt;Node4 -->
<g id="edge3_Node000003_Node000004" class="edge">
<title>Node3&#45;&gt;Node4</title>
<g id="a_edge3_Node000003_Node000004"><a xlink:title=" ">
<path fill="none" stroke="#63b8ff" d="M471.52,-74.59C458.02,-76.52 444.02,-78.51 430.87,-80.39"/>
<polygon fill="#63b8ff" stroke="#63b8ff" points="471.81,-77.94 481.21,-73.06 470.82,-71.01 471.81,-77.94"/>
</a>
</g>
</g>
<!-- Node8 -->
<g id="Node000008" class="node">
<title>Node8</title>
<g id="a_Node000008"><a xlink:href="../../d2/d46/class_slic3r_1_1_arachne_1_1_wall_tool_paths.html#a891f436bf40e8b8119ed2fa095cfaf5d" target="_top" xlink:title=" ">
<polygon fill="white" stroke="#666666" points="430.5,-55.5 305,-55.5 305,-25 430.5,-25 430.5,-55.5"/>
<text text-anchor="start" x="313" y="-42" font-family="Helvetica,sans-Serif" font-size="10.00">Slic3r::Arachne::WallTool</text>
<text text-anchor="middle" x="367.75" y="-30.75" font-family="Helvetica,sans-Serif" font-size="10.00">Paths::getToolPaths</text>
</a>
</g>
</g>
<!-- Node3&#45;&gt;Node8 -->
<g id="edge6_Node000003_Node000008" class="edge">
<title>Node3&#45;&gt;Node8</title>
<g id="a_edge6_Node000003_Node000008"><a xlink:title=" ">
<path fill="none" stroke="#63b8ff" d="M471.52,-54.32C458.02,-52.47 444.02,-50.56 430.87,-48.76"/>
<polygon fill="#63b8ff" stroke="#63b8ff" points="470.83,-57.9 481.21,-55.79 471.78,-50.96 470.83,-57.9"/>
</a>
</g>
</g>
<!-- Node5 -->
<g id="Node000005" class="node">
<title>Node5</title>
<g id="a_Node000005"><a xlink:href="../../d7/d1d/namespace_slic3r_1_1_perimeter_generator.html#addff59b1baf2226279fa4bf543740526" target="_top" xlink:title=" ">
<polygon fill="white" stroke="#666666" points="269,-104.5 137.5,-104.5 137.5,-74 269,-74 269,-104.5"/>
<text text-anchor="start" x="145.5" y="-91" font-family="Helvetica,sans-Serif" font-size="10.00">Slic3r::PerimeterGenerator</text>
<text text-anchor="middle" x="203.25" y="-79.75" font-family="Helvetica,sans-Serif" font-size="10.00">::process_arachne</text>
</a>
</g>
</g>
<!-- Node4&#45;&gt;Node5 -->
<g id="edge4_Node000004_Node000005" class="edge">
<title>Node4&#45;&gt;Node5</title>
<g id="a_edge4_Node000004_Node000005"><a xlink:title=" ">
<path fill="none" stroke="#63b8ff" d="M293.87,-89.25C285.75,-89.25 277.51,-89.25 269.49,-89.25"/>
<polygon fill="#63b8ff" stroke="#63b8ff" points="293.85,-92.75 303.85,-89.25 293.85,-85.75 293.85,-92.75"/>
</a>
</g>
</g>
<!-- Node6 -->
<g id="Node000006" class="node">
<title>Node6</title>
<g id="a_Node000006"><a xlink:href="../../dd/d90/class_slic3r_1_1_layer_region.html#a7f8ba90770f4cfeb3e0f0fe9606e7376" target="_top" xlink:title=" ">
<polygon fill="#fff0f0" stroke="red" points="101.5,-104.5 0,-104.5 0,-74 101.5,-74 101.5,-104.5"/>
<text text-anchor="start" x="8" y="-91" font-family="Helvetica,sans-Serif" font-size="10.00">Slic3r::LayerRegion</text>
<text text-anchor="middle" x="50.75" y="-79.75" font-family="Helvetica,sans-Serif" font-size="10.00">::make_perimeters</text>
</a>
</g>
</g>
<!-- Node5&#45;&gt;Node6 -->
<g id="edge5_Node000005_Node000006" class="edge">
<title>Node5&#45;&gt;Node6</title>
<g id="a_edge5_Node000005_Node000006"><a xlink:title=" ">
<path fill="none" stroke="#63b8ff" d="M126.16,-89.25C117.81,-89.25 109.47,-89.25 101.56,-89.25"/>
<polygon fill="#63b8ff" stroke="#63b8ff" points="126.11,-92.75 136.11,-89.25 126.11,-85.75 126.11,-92.75"/>
</a>
</g>
</g>
<!-- Node8&#45;&gt;Node5 -->
<g id="edge8_Node000008_Node000005" class="edge">
<title>Node8&#45;&gt;Node5</title>
<g id="a_edge8_Node000008_Node000005"><a xlink:title=" ">
<path fill="none" stroke="#63b8ff" d="M304.62,-58.98C288.72,-63.78 271.8,-68.88 256.46,-73.51"/>
<polygon fill="#63b8ff" stroke="#63b8ff" points="305.32,-62.13 313.89,-55.89 303.3,-55.42 305.32,-62.13"/>
</a>
</g>
</g>
<!-- Node9 -->
<g id="Node000009" class="node">
<title>Node9</title>
<g id="a_Node000009"><a xlink:href="../../d7/d44/class_slic3r_1_1_fill_concentric.html#a2298411e5f4cc1027149b5d9e93bc596" target="_top" xlink:title=" ">
<polygon fill="white" stroke="#666666" points="256.62,-55.5 149.88,-55.5 149.88,-25 256.62,-25 256.62,-55.5"/>
<text text-anchor="start" x="157.88" y="-42" font-family="Helvetica,sans-Serif" font-size="10.00">Slic3r::FillConcentric</text>
<text text-anchor="middle" x="203.25" y="-30.75" font-family="Helvetica,sans-Serif" font-size="10.00">::_fill_surface_single</text>
</a>
</g>
</g>
<!-- Node8&#45;&gt;Node9 -->
<g id="edge7_Node000008_Node000009" class="edge">
<title>Node8&#45;&gt;Node9</title>
<g id="a_edge7_Node000008_Node000009"><a xlink:title=" ">
<path fill="none" stroke="#63b8ff" d="M293.99,-40.25C281.52,-40.25 268.78,-40.25 256.97,-40.25"/>
<polygon fill="#63b8ff" stroke="#63b8ff" points="293.85,-43.75 303.85,-40.25 293.85,-36.75 293.85,-43.75"/>
</a>
</g>
</g>
</g>
</svg>

<g id="navigator" transform="translate(0 0)" fill="#404254">
  <rect fill="#f2f5e9" fill-opacity="0.5" stroke="#606060" stroke-width=".5" x="0" y="0" width="60" height="60"/>
  <use id="zoomplus" xlink:href="#zoomPlus" x="17" y="9" onmousedown="handleZoom(evt,'in')"/>
  <use id="zoomminus" xlink:href="#zoomMin" x="42" y="9" onmousedown="handleZoom(evt,'out')"/>
  <use id="reset" xlink:href="#resetDef" x="30" y="36" onmousedown="handleReset()"/>
   <use id="arrowup" xlink:href="#arrowUp" x="0" y="0" onmousedown="handlePan(0,-1)"/>
  <use id="arrowright" xlink:href="#arrowRight" x="0" y="0" onmousedown="handlePan(1,0)"/>
  <use id="arrowdown" xlink:href="#arrowDown" x="0" y="0" onmousedown="handlePan(0,1)"/>
  <use id="arrowleft" xlink:href="#arrowLeft" x="0" y="0" onmousedown="handlePan(-1,0)"/>
</g>
<svg viewBox="0 0 15 15" width="100%" height="30px" preserveAspectRatio="xMaxYMin meet">
 <g id="arrow_out" transform="scale(0.3 0.3)">
  <a xlink:href="namespace_slic3r_1_1_arachne_1_1_linear_alg2_d_a6badeb0f59750aced37b9afe25fe5eed_icgraph_org.svg" target="_base">
   <rect id="button" ry="5" rx="5" y="6" x="6" height="38" width="38"
        fill="#f2f5e9" fill-opacity="0.5" stroke="#606060" stroke-width="1.0"/>
   <path id="arrow"
     d="M 11.500037,31.436501 C 11.940474,20.09759 22.043105,11.32322 32.158766,21.979434 L 37.068811,17.246167 C 37.068811,17.246167 37.088388,32 37.088388,32 L 22.160133,31.978069 C 22.160133,31.978069 26.997745,27.140456 26.997745,27.140456 C 18.528582,18.264221 13.291696,25.230495 11.500037,31.436501 z"
     style="fill:#404040;"/>
  </a>
 </g>
</svg>

<style type='text/css'>
<![CDATA[
[data-mouse-over-selected='false'] { opacity: 0.7; }
[data-mouse-over-selected='true']  { opacity: 1.0; }
]]>
</style>
<script type="application/ecmascript"><![CDATA[
document.addEventListener('DOMContentLoaded', (event) => {
  highlightEdges();
  highlightAdjacentNodes();
});
]]></script>
</svg>
