<?xml version="1.0" encoding="UTF-8" standalone="no"?>
<!DOCTYPE svg PUBLIC "-//W3C//DTD SVG 1.1//EN"
 "http://www.w3.org/Graphics/SVG/1.1/DTD/svg11.dtd">
<!-- Generated by graphviz version 8.0.5 (20230430.1635)
 -->
<!-- Title: Slic3r::GUI::Plater::set_current_canvas_as_dirty Pages: 1 -->
<svg width="898pt" height="88pt"
 viewBox="0.00 0.00 898.00 87.50" xmlns="http://www.w3.org/2000/svg" xmlns:xlink="http://www.w3.org/1999/xlink">
<g id="graph0" class="graph" transform="scale(1 1) rotate(0) translate(4 83.5)">
<title>Slic3r::GUI::Plater::set_current_canvas_as_dirty</title>
<!-- Node1 -->
<g id="Node000001" class="node">
<title>Node1</title>
<g id="a_Node000001"><a xlink:title=" ">
<polygon fill="#999999" stroke="#666666" points="890,-60.12 782.5,-60.12 782.5,-18.38 890,-18.38 890,-60.12"/>
<text text-anchor="start" x="790.5" y="-46.62" font-family="Helvetica,sans-Serif" font-size="10.00">Slic3r::GUI::Plater</text>
<text text-anchor="start" x="790.5" y="-35.38" font-family="Helvetica,sans-Serif" font-size="10.00">::set_current_canvas</text>
<text text-anchor="middle" x="836.25" y="-24.12" font-family="Helvetica,sans-Serif" font-size="10.00">_as_dirty</text>
</a>
</g>
</g>
<!-- Node2 -->
<g id="Node000002" class="node">
<title>Node2</title>
<g id="a_Node000002"><a xlink:href="../../de/de3/class_slic3r_1_1_g_u_i_1_1_menu_factory.html#a3f054268f5fc3995486a6f292f0c87b0" target="_top" xlink:title=" ">
<polygon fill="white" stroke="#666666" points="743.5,-79.5 594.75,-79.5 594.75,-49 743.5,-49 743.5,-79.5"/>
<text text-anchor="start" x="602.75" y="-66" font-family="Helvetica,sans-Serif" font-size="10.00">Slic3r::GUI::MenuFactory</text>
<text text-anchor="middle" x="669.12" y="-54.75" font-family="Helvetica,sans-Serif" font-size="10.00">::append_menu_item_printable</text>
</a>
</g>
</g>
<!-- Node1&#45;&gt;Node2 -->
<g id="edge1_Node000001_Node000002" class="edge">
<title>Node1&#45;&gt;Node2</title>
<g id="a_edge1_Node000001_Node000002"><a xlink:title=" ">
<path fill="none" stroke="#63b8ff" d="M771.33,-48.93C762.36,-50.29 753.08,-51.69 743.94,-53.08"/>
<polygon fill="#63b8ff" stroke="#63b8ff" points="771.73,-52.26 781.09,-47.3 770.68,-45.33 771.73,-52.26"/>
</a>
</g>
</g>
<!-- Node3 -->
<g id="Node000003" class="node">
<title>Node3</title>
<g id="a_Node000003"><a xlink:href="../../d5/d62/class_slic3r_1_1_g_u_i_1_1_mouse3_d_controller.html#a5718fe34e620fecd0e1d2795eb5bd19d" target="_top" xlink:title=" ">
<polygon fill="white" stroke="#666666" points="746.5,-30.5 591.75,-30.5 591.75,0 746.5,0 746.5,-30.5"/>
<text text-anchor="start" x="599.75" y="-17" font-family="Helvetica,sans-Serif" font-size="10.00">Slic3r::GUI::Mouse3DController</text>
<text text-anchor="middle" x="669.12" y="-5.75" font-family="Helvetica,sans-Serif" font-size="10.00">::disconnect_device</text>
</a>
</g>
</g>
<!-- Node1&#45;&gt;Node3 -->
<g id="edge2_Node000001_Node000003" class="edge">
<title>Node1&#45;&gt;Node3</title>
<g id="a_edge2_Node000001_Node000003"><a xlink:title=" ">
<path fill="none" stroke="#63b8ff" d="M771.36,-29.96C763.36,-28.8 755.11,-27.6 746.93,-26.41"/>
<polygon fill="#63b8ff" stroke="#63b8ff" points="770.7,-33.55 781.09,-31.52 771.7,-26.62 770.7,-33.55"/>
</a>
</g>
</g>
<!-- Node4 -->
<g id="Node000004" class="node">
<title>Node4</title>
<g id="a_Node000004"><a xlink:href="../../d5/d62/class_slic3r_1_1_g_u_i_1_1_mouse3_d_controller.html#ac8fecf55dc9518df01997699a13b96f0" target="_top" xlink:title=" ">
<polygon fill="white" stroke="#666666" points="555.75,-52.5 401,-52.5 401,-22 555.75,-22 555.75,-52.5"/>
<text text-anchor="start" x="409" y="-39" font-family="Helvetica,sans-Serif" font-size="10.00">Slic3r::GUI::Mouse3DController</text>
<text text-anchor="middle" x="478.38" y="-27.75" font-family="Helvetica,sans-Serif" font-size="10.00">::collect_input</text>
</a>
</g>
</g>
<!-- Node3&#45;&gt;Node4 -->
<g id="edge3_Node000003_Node000004" class="edge">
<title>Node3&#45;&gt;Node4</title>
<g id="a_edge3_Node000003_Node000004"><a xlink:title=" ">
<path fill="none" stroke="#63b8ff" d="M580.64,-25.45C572.44,-26.4 564.17,-27.37 556.08,-28.31"/>
<polygon fill="#63b8ff" stroke="#63b8ff" points="580.83,-28.83 590.35,-24.2 580.02,-21.88 580.83,-28.83"/>
</a>
</g>
</g>
<!-- Node5 -->
<g id="Node000005" class="node">
<title>Node5</title>
<g id="a_Node000005"><a xlink:href="../../d5/d62/class_slic3r_1_1_g_u_i_1_1_mouse3_d_controller.html#ae5e840bc68513cbbd3e2c945122dae10" target="_top" xlink:title=" ">
<polygon fill="white" stroke="#666666" points="365,-24.88 190.75,-24.88 190.75,-5.63 365,-5.63 365,-24.88"/>
<text text-anchor="middle" x="277.88" y="-11.38" font-family="Helvetica,sans-Serif" font-size="10.00">Slic3r::GUI::Mouse3DController::run</text>
</a>
</g>
</g>
<!-- Node3&#45;&gt;Node5 -->
<g id="edge6_Node000003_Node000005" class="edge">
<title>Node3&#45;&gt;Node5</title>
<g id="a_edge6_Node000003_Node000005"><a xlink:title=" ">
<path fill="none" stroke="#63b8ff" d="M580.42,-13.54C572.08,-13.42 563.75,-13.32 555.75,-13.25 486.97,-12.64 469.78,-12.69 401,-13.25 389.44,-13.34 377.27,-13.49 365.27,-13.66"/>
<polygon fill="#63b8ff" stroke="#63b8ff" points="580.31,-17.05 590.36,-13.7 580.41,-10.05 580.31,-17.05"/>
</a>
</g>
</g>
<!-- Node4&#45;&gt;Node5 -->
<g id="edge4_Node000004_Node000005" class="edge">
<title>Node4&#45;&gt;Node5</title>
<g id="a_edge4_Node000004_Node000005"><a xlink:title=" ">
<path fill="none" stroke="#63b8ff" d="M389.96,-27.56C381.78,-26.65 373.49,-25.74 365.32,-24.83"/>
<polygon fill="#63b8ff" stroke="#63b8ff" points="389.3,-31.12 399.63,-28.74 390.08,-24.16 389.3,-31.12"/>
</a>
</g>
</g>
<!-- Node6 -->
<g id="Node000006" class="node">
<title>Node6</title>
<g id="a_Node000006"><a xlink:href="../../d5/d62/class_slic3r_1_1_g_u_i_1_1_mouse3_d_controller.html#a96212d8c6159fd7c67295994e7f4d4de" target="_top" xlink:title=" ">
<polygon fill="white" stroke="#666666" points="154.75,-30.5 0,-30.5 0,0 154.75,0 154.75,-30.5"/>
<text text-anchor="start" x="8" y="-17" font-family="Helvetica,sans-Serif" font-size="10.00">Slic3r::GUI::Mouse3DController</text>
<text text-anchor="middle" x="77.38" y="-5.75" font-family="Helvetica,sans-Serif" font-size="10.00">::init</text>
</a>
</g>
</g>
<!-- Node5&#45;&gt;Node6 -->
<g id="edge5_Node000005_Node000006" class="edge">
<title>Node5&#45;&gt;Node6</title>
<g id="a_edge5_Node000005_Node000006"><a xlink:title=" ">
<path fill="none" stroke="#63b8ff" d="M179.64,-15.25C171.45,-15.25 163.23,-15.25 155.23,-15.25"/>
<polygon fill="#63b8ff" stroke="#63b8ff" points="179.39,-18.75 189.39,-15.25 179.39,-11.75 179.39,-18.75"/>
</a>
</g>
</g>
</g>
</svg>
