<?xml version="1.0" encoding="UTF-8" standalone="no"?>
<!DOCTYPE svg PUBLIC "-//W3C//DTD SVG 1.1//EN"
 "http://www.w3.org/Graphics/SVG/1.1/DTD/svg11.dtd">
<!-- Generated by graphviz version 8.0.5 (20230430.1635)
 -->
<!-- Title: Slic3r::GUI::Plater::reset_project_dirty_initial_presets Pages: 1 -->
<svg width="557pt" height="88pt"
 viewBox="0.00 0.00 556.50 87.50" xmlns="http://www.w3.org/2000/svg" xmlns:xlink="http://www.w3.org/1999/xlink">
<g id="graph0" class="graph" transform="scale(1 1) rotate(0) translate(4 83.5)">
<title>Slic3r::GUI::Plater::reset_project_dirty_initial_presets</title>
<!-- Node1 -->
<g id="Node000001" class="node">
<title>Node1</title>
<g id="a_Node000001"><a xlink:title=" ">
<polygon fill="#999999" stroke="#666666" points="548.5,-60.12 446.25,-60.12 446.25,-18.38 548.5,-18.38 548.5,-60.12"/>
<text text-anchor="start" x="454.25" y="-46.62" font-family="Helvetica,sans-Serif" font-size="10.00">Slic3r::GUI::Plater</text>
<text text-anchor="start" x="454.25" y="-35.38" font-family="Helvetica,sans-Serif" font-size="10.00">::reset_project_dirty</text>
<text text-anchor="middle" x="497.38" y="-24.12" font-family="Helvetica,sans-Serif" font-size="10.00">_initial_presets</text>
</a>
</g>
</g>
<!-- Node2 -->
<g id="Node000002" class="node">
<title>Node2</title>
<g id="a_Node000002"><a xlink:href="../../d7/d21/class_slic3r_1_1_g_u_i_1_1_plater.html#a3ede227f51dd59d98ce84a6bddf6be52" target="_top" xlink:title=" ">
<polygon fill="white" stroke="#666666" points="410.25,-79.5 314,-79.5 314,-49 410.25,-49 410.25,-79.5"/>
<text text-anchor="start" x="322" y="-66" font-family="Helvetica,sans-Serif" font-size="10.00">Slic3r::GUI::Plater</text>
<text text-anchor="middle" x="362.12" y="-54.75" font-family="Helvetica,sans-Serif" font-size="10.00">::load_project</text>
</a>
</g>
</g>
<!-- Node1&#45;&gt;Node2 -->
<g id="edge1_Node000001_Node000002" class="edge">
<title>Node1&#45;&gt;Node2</title>
<g id="a_edge1_Node000001_Node000002"><a xlink:title=" ">
<path fill="none" stroke="#63b8ff" d="M435.2,-50.73C426.91,-52.28 418.5,-53.86 410.49,-55.36"/>
<polygon fill="#63b8ff" stroke="#63b8ff" points="435.82,-53.99 445,-48.7 434.52,-47.11 435.82,-53.99"/>
</a>
</g>
</g>
<!-- Node3 -->
<g id="Node000003" class="node">
<title>Node3</title>
<g id="a_Node000003"><a xlink:href="../../d7/d21/class_slic3r_1_1_g_u_i_1_1_plater.html#ac415114891cff66fa060b55d33d7b2be" target="_top" xlink:title=" ">
<polygon fill="white" stroke="#666666" points="410.25,-30.5 314,-30.5 314,0 410.25,0 410.25,-30.5"/>
<text text-anchor="start" x="322" y="-17" font-family="Helvetica,sans-Serif" font-size="10.00">Slic3r::GUI::Plater</text>
<text text-anchor="middle" x="362.12" y="-5.75" font-family="Helvetica,sans-Serif" font-size="10.00">::new_project</text>
</a>
</g>
</g>
<!-- Node1&#45;&gt;Node3 -->
<g id="edge2_Node000001_Node000003" class="edge">
<title>Node1&#45;&gt;Node3</title>
<g id="a_edge2_Node000001_Node000003"><a xlink:title=" ">
<path fill="none" stroke="#63b8ff" d="M435.2,-28.23C426.91,-26.74 418.5,-25.22 410.49,-23.78"/>
<polygon fill="#63b8ff" stroke="#63b8ff" points="434.54,-31.85 445,-30.18 435.78,-24.96 434.54,-31.85"/>
</a>
</g>
</g>
<!-- Node4 -->
<g id="Node000004" class="node">
<title>Node4</title>
<g id="a_Node000004"><a xlink:href="../../d3/d17/class_slic3r_1_1_g_u_i_1_1_main_frame.html#a58d3512e4a5525b5345dde9778dd233e" target="_top" xlink:title=" ">
<polygon fill="white" stroke="#666666" points="278,-30.5 155.5,-30.5 155.5,0 278,0 278,-30.5"/>
<text text-anchor="start" x="163.5" y="-17" font-family="Helvetica,sans-Serif" font-size="10.00">Slic3r::GUI::MainFrame</text>
<text text-anchor="middle" x="216.75" y="-5.75" font-family="Helvetica,sans-Serif" font-size="10.00">::init_menubar_as_editor</text>
</a>
</g>
</g>
<!-- Node3&#45;&gt;Node4 -->
<g id="edge3_Node000003_Node000004" class="edge">
<title>Node3&#45;&gt;Node4</title>
<g id="a_edge3_Node000003_Node000004"><a xlink:title=" ">
<path fill="none" stroke="#63b8ff" d="M302.92,-15.25C294.82,-15.25 286.48,-15.25 278.34,-15.25"/>
<polygon fill="#63b8ff" stroke="#63b8ff" points="302.78,-18.75 312.78,-15.25 302.78,-11.75 302.78,-18.75"/>
</a>
</g>
</g>
<!-- Node5 -->
<g id="Node000005" class="node">
<title>Node5</title>
<g id="a_Node000005"><a xlink:href="../../d3/d17/class_slic3r_1_1_g_u_i_1_1_main_frame.html#a5eeef0e8564db1d3764da47c6d11344a" target="_top" xlink:title=" ">
<polygon fill="white" stroke="#666666" points="119.5,-30.5 0,-30.5 0,0 119.5,0 119.5,-30.5"/>
<text text-anchor="start" x="8" y="-17" font-family="Helvetica,sans-Serif" font-size="10.00">Slic3r::GUI::MainFrame</text>
<text text-anchor="middle" x="59.75" y="-5.75" font-family="Helvetica,sans-Serif" font-size="10.00">::MainFrame</text>
</a>
</g>
</g>
<!-- Node4&#45;&gt;Node5 -->
<g id="edge4_Node000004_Node000005" class="edge">
<title>Node4&#45;&gt;Node5</title>
<g id="a_edge4_Node000004_Node000005"><a xlink:title=" ">
<path fill="none" stroke="#63b8ff" d="M144.62,-15.25C136.36,-15.25 128.01,-15.25 119.94,-15.25"/>
<polygon fill="#63b8ff" stroke="#63b8ff" points="144.38,-18.75 154.38,-15.25 144.38,-11.75 144.38,-18.75"/>
</a>
</g>
</g>
</g>
</svg>
