<?xml version="1.0" encoding="UTF-8" standalone="no"?>
<!DOCTYPE svg PUBLIC "-//W3C//DTD SVG 1.1//EN"
 "http://www.w3.org/Graphics/SVG/1.1/DTD/svg11.dtd">
<!-- Generated by graphviz version 8.0.5 (20230430.1635)
 -->
<!-- Title: src/libslic3r/Arachne/utils/HalfEdgeNode.hpp Pages: 1 -->
<svg width="2129pt" height="326pt"
 viewBox="0.00 0.00 2129.36 326.00" xmlns="http://www.w3.org/2000/svg" xmlns:xlink="http://www.w3.org/1999/xlink">
<g id="graph0" class="graph" transform="scale(1 1) rotate(0) translate(4 322)">
<title>src/libslic3r/Arachne/utils/HalfEdgeNode.hpp</title>
<!-- Node1 -->
<g id="Node000001" class="node">
<title>Node1</title>
<g id="a_Node000001"><a xlink:title=" ">
<polygon fill="#999999" stroke="#666666" points="1430.49,-318 1307.99,-318 1307.99,-287.5 1430.49,-287.5 1430.49,-318"/>
<text text-anchor="start" x="1315.99" y="-304.5" font-family="Helvetica,sans-Serif" font-size="10.00">src/libslic3r/Arachne</text>
<text text-anchor="middle" x="1369.24" y="-293.25" font-family="Helvetica,sans-Serif" font-size="10.00">/utils/HalfEdgeNode.hpp</text>
</a>
</g>
</g>
<!-- Node2 -->
<g id="Node000002" class="node">
<title>Node2</title>
<g id="a_Node000002"><a xlink:title=" ">
<polygon fill="#e0e0e0" stroke="#999999" points="1348.64,-251.5 1319.84,-251.5 1319.84,-232.25 1348.64,-232.25 1348.64,-251.5"/>
<text text-anchor="middle" x="1334.24" y="-238" font-family="Helvetica,sans-Serif" font-size="10.00">list</text>
</a>
</g>
</g>
<!-- Node1&#45;&gt;Node2 -->
<g id="edge1_Node000001_Node000002" class="edge">
<title>Node1&#45;&gt;Node2</title>
<g id="a_edge1_Node000001_Node000002"><a xlink:title=" ">
<path fill="none" stroke="#63b8ff" d="M1360.58,-287.2C1355.92,-279.35 1350.12,-269.6 1345.15,-261.24"/>
<polygon fill="#63b8ff" stroke="#63b8ff" points="1347.75,-259.76 1339.63,-252.95 1341.73,-263.34 1347.75,-259.76"/>
</a>
</g>
</g>
<!-- Node3 -->
<g id="Node000003" class="node">
<title>Node3</title>
<g id="a_Node000003"><a xlink:href="../../db/deb/_point_8hpp.html" target="_top" xlink:title=" ">
<polygon fill="white" stroke="#666666" points="1441.86,-251.5 1366.61,-251.5 1366.61,-232.25 1441.86,-232.25 1441.86,-251.5"/>
<text text-anchor="middle" x="1404.24" y="-238" font-family="Helvetica,sans-Serif" font-size="10.00">../../Point.hpp</text>
</a>
</g>
</g>
<!-- Node1&#45;&gt;Node3 -->
<g id="edge2_Node000001_Node000003" class="edge">
<title>Node1&#45;&gt;Node3</title>
<g id="a_edge2_Node000001_Node000003"><a xlink:title=" ">
<path fill="none" stroke="#63b8ff" d="M1377.89,-287.2C1382.55,-279.35 1388.35,-269.6 1393.32,-261.24"/>
<polygon fill="#63b8ff" stroke="#63b8ff" points="1396.74,-263.34 1398.84,-252.95 1390.72,-259.76 1396.74,-263.34"/>
</a>
</g>
</g>
<!-- Node4 -->
<g id="Node000004" class="node">
<title>Node4</title>
<g id="a_Node000004"><a xlink:href="../../dd/d47/libslic3r_8h.html" target="_top" xlink:title=" ">
<polygon fill="white" stroke="#666666" points="1042.49,-190.62 985.99,-190.62 985.99,-171.38 1042.49,-171.38 1042.49,-190.62"/>
<text text-anchor="middle" x="1014.24" y="-177.12" font-family="Helvetica,sans-Serif" font-size="10.00">libslic3r.h</text>
</a>
</g>
</g>
<!-- Node3&#45;&gt;Node4 -->
<g id="edge3_Node000003_Node000004" class="edge">
<title>Node3&#45;&gt;Node4</title>
<g id="a_edge3_Node000003_Node000004"><a xlink:title=" ">
<path fill="none" stroke="#63b8ff" d="M1366.29,-233.79C1363.23,-233.26 1360.18,-232.74 1357.24,-232.25 1247.44,-214.14 1117.32,-195.98 1053.51,-187.28"/>
<polygon fill="#63b8ff" stroke="#63b8ff" points="1054.13,-183.7 1043.75,-185.82 1053.19,-190.64 1054.13,-183.7"/>
</a>
</g>
</g>
<!-- Node13 -->
<g id="Node000013" class="node">
<title>Node13</title>
<g id="a_Node000013"><a xlink:title=" ">
<polygon fill="#e0e0e0" stroke="#999999" points="1469.86,-129.75 1418.61,-129.75 1418.61,-110.5 1469.86,-110.5 1469.86,-129.75"/>
<text text-anchor="middle" x="1444.24" y="-116.25" font-family="Helvetica,sans-Serif" font-size="10.00">sstream</text>
</a>
</g>
</g>
<!-- Node3&#45;&gt;Node13 -->
<g id="edge36_Node000003_Node000013" class="edge">
<title>Node3&#45;&gt;Node13</title>
<g id="a_edge36_Node000003_Node000013"><a xlink:title=" ">
<path fill="none" stroke="#63b8ff" d="M1373.41,-231.79C1345.92,-222.99 1308.72,-209.13 1300.24,-196.25 1292.78,-184.93 1292.19,-176.66 1300.24,-165.75 1303.54,-161.27 1366.16,-143 1407.73,-131.28"/>
<polygon fill="#63b8ff" stroke="#63b8ff" points="1408.63,-134.38 1417.31,-128.3 1406.73,-127.64 1408.63,-134.38"/>
</a>
</g>
</g>
<!-- Node17 -->
<g id="Node000017" class="node">
<title>Node17</title>
<g id="a_Node000017"><a xlink:title=" ">
<polygon fill="#e0e0e0" stroke="#999999" points="1530.74,-129.75 1487.74,-129.75 1487.74,-110.5 1530.74,-110.5 1530.74,-129.75"/>
<text text-anchor="middle" x="1509.24" y="-116.25" font-family="Helvetica,sans-Serif" font-size="10.00">vector</text>
</a>
</g>
</g>
<!-- Node3&#45;&gt;Node17 -->
<g id="edge33_Node000003_Node000017" class="edge">
<title>Node3&#45;&gt;Node17</title>
<g id="a_edge33_Node000003_Node000017"><a xlink:title=" ">
<path fill="none" stroke="#63b8ff" d="M1380.47,-231.76C1365.4,-224.59 1347.12,-212.99 1338.24,-196.25 1331.88,-184.28 1329.92,-176.46 1338.24,-165.75 1375.9,-117.27 1412.86,-143.65 1476.8,-130.06"/>
<polygon fill="#63b8ff" stroke="#63b8ff" points="1477.41,-133.27 1486.3,-127.51 1475.76,-126.47 1477.41,-133.27"/>
</a>
</g>
</g>
<!-- Node19 -->
<g id="Node000019" class="node">
<title>Node19</title>
<g id="a_Node000019"><a xlink:title=" ">
<polygon fill="#e0e0e0" stroke="#999999" points="1591.74,-129.75 1548.74,-129.75 1548.74,-110.5 1591.74,-110.5 1591.74,-129.75"/>
<text text-anchor="middle" x="1570.24" y="-116.25" font-family="Helvetica,sans-Serif" font-size="10.00">cmath</text>
</a>
</g>
</g>
<!-- Node3&#45;&gt;Node19 -->
<g id="edge34_Node000003_Node000019" class="edge">
<title>Node3&#45;&gt;Node19</title>
<g id="a_edge34_Node000003_Node000019"><a xlink:title=" ">
<path fill="none" stroke="#63b8ff" d="M1394.92,-232.2C1380.08,-217.32 1354.39,-186.57 1371.24,-165.75 1417.48,-108.62 1461.76,-144.92 1537.88,-129.95"/>
<polygon fill="#63b8ff" stroke="#63b8ff" points="1538.34,-133.22 1547.33,-127.62 1536.81,-126.38 1538.34,-133.22"/>
</a>
</g>
</g>
<!-- Node24 -->
<g id="Node000024" class="node">
<title>Node24</title>
<g id="a_Node000024"><a xlink:title=" ">
<polygon fill="#e0e0e0" stroke="#999999" points="127.24,-74.5 87.24,-74.5 87.24,-55.25 127.24,-55.25 127.24,-74.5"/>
<text text-anchor="middle" x="107.24" y="-61" font-family="Helvetica,sans-Serif" font-size="10.00">string</text>
</a>
</g>
</g>
<!-- Node3&#45;&gt;Node24 -->
<g id="edge35_Node000003_Node000024" class="edge">
<title>Node3&#45;&gt;Node24</title>
<g id="a_edge35_Node000003_Node000024"><a xlink:title=" ">
<path fill="none" stroke="#63b8ff" d="M1366.34,-233.41C1363.27,-232.96 1360.21,-232.56 1357.24,-232.25 1087.74,-203.71 401.14,-262.01 138.24,-196.25 73.74,-180.12 39.27,-186.25 4.24,-129.75 -15.09,-98.58 39.64,-80.25 76.55,-71.72"/>
<polygon fill="#63b8ff" stroke="#63b8ff" points="76.84,-75.02 85.87,-69.47 75.36,-68.18 76.84,-75.02"/>
</a>
</g>
</g>
<!-- Node31 -->
<g id="Node000031" class="node">
<title>Node31</title>
<g id="a_Node000031"><a xlink:title=" ">
<polygon fill="#e0e0e0" stroke="#999999" points="1428.36,-190.62 1380.11,-190.62 1380.11,-171.38 1428.36,-171.38 1428.36,-190.62"/>
<text text-anchor="middle" x="1404.24" y="-177.12" font-family="Helvetica,sans-Serif" font-size="10.00">cstddef</text>
</a>
</g>
</g>
<!-- Node3&#45;&gt;Node31 -->
<g id="edge32_Node000003_Node000031" class="edge">
<title>Node3&#45;&gt;Node31</title>
<g id="a_edge32_Node000003_Node000031"><a xlink:title=" ">
<path fill="none" stroke="#63b8ff" d="M1404.24,-231.93C1404.24,-223.98 1404.24,-212.06 1404.24,-201.87"/>
<polygon fill="#63b8ff" stroke="#63b8ff" points="1407.74,-202.03 1404.24,-192.03 1400.74,-202.03 1407.74,-202.03"/>
</a>
</g>
</g>
<!-- Node32 -->
<g id="Node000032" class="node">
<title>Node32</title>
<g id="a_Node000032"><a xlink:title=" ">
<polygon fill="#e0e0e0" stroke="#999999" points="1529.61,-190.62 1446.86,-190.62 1446.86,-171.38 1529.61,-171.38 1529.61,-190.62"/>
<text text-anchor="middle" x="1488.24" y="-177.12" font-family="Helvetica,sans-Serif" font-size="10.00">unordered_map</text>
</a>
</g>
</g>
<!-- Node3&#45;&gt;Node32 -->
<g id="edge37_Node000003_Node000032" class="edge">
<title>Node3&#45;&gt;Node32</title>
<g id="a_edge37_Node000003_Node000032"><a xlink:title=" ">
<path fill="none" stroke="#63b8ff" d="M1416.99,-231.93C1430.19,-222.68 1451.04,-208.07 1466.78,-197.04"/>
<polygon fill="#63b8ff" stroke="#63b8ff" points="1468.18,-199.63 1474.36,-191.03 1464.16,-193.9 1468.18,-199.63"/>
</a>
</g>
</g>
<!-- Node33 -->
<g id="Node000033" class="node">
<title>Node33</title>
<g id="a_Node000033"><a xlink:title=" ">
<polygon fill="#e0e0e0" stroke="#999999" points="1647.24,-196.25 1547.24,-196.25 1547.24,-165.75 1647.24,-165.75 1647.24,-196.25"/>
<text text-anchor="start" x="1555.24" y="-182.75" font-family="Helvetica,sans-Serif" font-size="10.00">oneapi/tbb/scalable</text>
<text text-anchor="middle" x="1597.24" y="-171.5" font-family="Helvetica,sans-Serif" font-size="10.00">_allocator.h</text>
</a>
</g>
</g>
<!-- Node3&#45;&gt;Node33 -->
<g id="edge38_Node000003_Node000033" class="edge">
<title>Node3&#45;&gt;Node33</title>
<g id="a_edge38_Node000003_Node000033"><a xlink:title=" ">
<path fill="none" stroke="#63b8ff" d="M1433.97,-231.8C1461.76,-223.33 1504.04,-210.43 1538.61,-199.88"/>
<polygon fill="#63b8ff" stroke="#63b8ff" points="1539.52,-202.96 1548.07,-196.69 1537.48,-196.26 1539.52,-202.96"/>
</a>
</g>
</g>
<!-- Node34 -->
<g id="Node000034" class="node">
<title>Node34</title>
<g id="a_Node000034"><a xlink:title=" ">
<polygon fill="#e0e0e0" stroke="#999999" points="1751.49,-190.62 1664.99,-190.62 1664.99,-171.38 1751.49,-171.38 1751.49,-190.62"/>
<text text-anchor="middle" x="1708.24" y="-177.12" font-family="Helvetica,sans-Serif" font-size="10.00">Eigen/Geometry</text>
</a>
</g>
</g>
<!-- Node3&#45;&gt;Node34 -->
<g id="edge39_Node000003_Node000034" class="edge">
<title>Node3&#45;&gt;Node34</title>
<g id="a_edge39_Node000003_Node000034"><a xlink:title=" ">
<path fill="none" stroke="#63b8ff" d="M1442.02,-235.3C1491.5,-227.74 1580.81,-213.22 1656.24,-196.25 1659.62,-195.49 1663.1,-194.65 1666.6,-193.77"/>
<polygon fill="#63b8ff" stroke="#63b8ff" points="1667.21,-196.97 1676.01,-191.06 1665.45,-190.2 1667.21,-196.97"/>
</a>
</g>
</g>
<!-- Node35 -->
<g id="Node000035" class="node">
<title>Node35</title>
<g id="a_Node000035"><a xlink:href="../../da/dfe/_locales_utils_8hpp.html" target="_top" xlink:title=" ">
<polygon fill="white" stroke="#666666" points="235.61,-190.62 146.86,-190.62 146.86,-171.38 235.61,-171.38 235.61,-190.62"/>
<text text-anchor="middle" x="191.24" y="-177.12" font-family="Helvetica,sans-Serif" font-size="10.00">LocalesUtils.hpp</text>
</a>
</g>
</g>
<!-- Node3&#45;&gt;Node35 -->
<g id="edge40_Node000003_Node000035" class="edge">
<title>Node3&#45;&gt;Node35</title>
<g id="a_edge40_Node000003_Node000035"><a xlink:title=" ">
<path fill="none" stroke="#63b8ff" d="M1366.34,-233.46C1363.27,-233 1360.2,-232.58 1357.24,-232.25 931.89,-184.29 414.53,-181.27 246.67,-181.67"/>
<polygon fill="#63b8ff" stroke="#63b8ff" points="246.88,-178.18 236.89,-181.71 246.9,-185.18 246.88,-178.18"/>
</a>
</g>
</g>
<!-- Node39 -->
<g id="Node000039" class="node">
<title>Node39</title>
<g id="a_Node000039"><a xlink:title=" ">
<polygon fill="#e0e0e0" stroke="#999999" points="1862.86,-190.62 1769.61,-190.62 1769.61,-171.38 1862.86,-171.38 1862.86,-190.62"/>
<text text-anchor="middle" x="1816.24" y="-177.12" font-family="Helvetica,sans-Serif" font-size="10.00">boost/version.hpp</text>
</a>
</g>
</g>
<!-- Node3&#45;&gt;Node39 -->
<g id="edge46_Node000003_Node000039" class="edge">
<title>Node3&#45;&gt;Node39</title>
<g id="a_edge46_Node000003_Node000039"><a xlink:title=" ">
<path fill="none" stroke="#63b8ff" d="M1442.15,-237.69C1507.48,-231.84 1645.33,-217.98 1760.24,-196.25 1764.39,-195.46 1768.69,-194.55 1772.98,-193.58"/>
<polygon fill="#63b8ff" stroke="#63b8ff" points="1773.61,-196.78 1782.52,-191.05 1771.98,-189.98 1773.61,-196.78"/>
</a>
</g>
</g>
<!-- Node40 -->
<g id="Node000040" class="node">
<title>Node40</title>
<g id="a_Node000040"><a xlink:title=" ">
<polygon fill="#e0e0e0" stroke="#999999" points="2013.36,-190.62 1881.11,-190.62 1881.11,-171.38 2013.36,-171.38 2013.36,-190.62"/>
<text text-anchor="middle" x="1947.24" y="-177.12" font-family="Helvetica,sans-Serif" font-size="10.00">boost/polygon/polygon.hpp</text>
</a>
</g>
</g>
<!-- Node3&#45;&gt;Node40 -->
<g id="edge47_Node000003_Node000040" class="edge">
<title>Node3&#45;&gt;Node40</title>
<g id="a_edge47_Node000003_Node000040"><a xlink:title=" ">
<path fill="none" stroke="#63b8ff" d="M1442.29,-238.45C1522.21,-233.09 1713.25,-218.88 1872.24,-196.25 1878.78,-195.32 1885.62,-194.21 1892.4,-193.03"/>
<polygon fill="#63b8ff" stroke="#63b8ff" points="1892.71,-196.34 1901.93,-191.12 1891.47,-189.46 1892.71,-196.34"/>
</a>
</g>
</g>
<!-- Node41 -->
<g id="Node000041" class="node">
<title>Node41</title>
<g id="a_Node000041"><a xlink:title=" ">
<polygon fill="#e0e0e0" stroke="#999999" points="2121.36,-190.62 2031.11,-190.62 2031.11,-171.38 2121.36,-171.38 2121.36,-190.62"/>
<text text-anchor="middle" x="2076.24" y="-177.12" font-family="Helvetica,sans-Serif" font-size="10.00">cereal/cereal.hpp</text>
</a>
</g>
</g>
<!-- Node3&#45;&gt;Node41 -->
<g id="edge48_Node000003_Node000041" class="edge">
<title>Node3&#45;&gt;Node41</title>
<g id="a_edge48_Node000003_Node000041"><a xlink:title=" ">
<path fill="none" stroke="#63b8ff" d="M1442.15,-240.58C1539.27,-239.3 1804.71,-232.48 2022.24,-196.25 2026.47,-195.54 2030.86,-194.66 2035.22,-193.67"/>
<polygon fill="#63b8ff" stroke="#63b8ff" points="2036.01,-196.84 2044.89,-191.06 2034.35,-190.04 2036.01,-196.84"/>
</a>
</g>
</g>
<!-- Node5 -->
<g id="Node000005" class="node">
<title>Node5</title>
<g id="a_Node000005"><a xlink:title=" ">
<polygon fill="#e0e0e0" stroke="#999999" points="685.24,-129.75 591.24,-129.75 591.24,-110.5 685.24,-110.5 685.24,-129.75"/>
<text text-anchor="middle" x="638.24" y="-116.25" font-family="Helvetica,sans-Serif" font-size="10.00">libslic3r_version.h</text>
</a>
</g>
</g>
<!-- Node4&#45;&gt;Node5 -->
<g id="edge4_Node000004_Node000005" class="edge">
<title>Node4&#45;&gt;Node5</title>
<g id="a_edge4_Node000004_Node000005"><a xlink:title=" ">
<path fill="none" stroke="#63b8ff" d="M985.67,-175.53C924.14,-165.89 778.09,-143.02 696.29,-130.21"/>
<polygon fill="#63b8ff" stroke="#63b8ff" points="696.85,-126.6 686.43,-128.51 695.77,-133.52 696.85,-126.6"/>
</a>
</g>
</g>
<!-- Node6 -->
<g id="Node000006" class="node">
<title>Node6</title>
<g id="a_Node000006"><a xlink:title=" ">
<polygon fill="#e0e0e0" stroke="#999999" points="754.86,-129.75 703.61,-129.75 703.61,-110.5 754.86,-110.5 754.86,-129.75"/>
<text text-anchor="middle" x="729.24" y="-116.25" font-family="Helvetica,sans-Serif" font-size="10.00">memory</text>
</a>
</g>
</g>
<!-- Node4&#45;&gt;Node6 -->
<g id="edge5_Node000004_Node000006" class="edge">
<title>Node4&#45;&gt;Node6</title>
<g id="a_edge5_Node000004_Node000006"><a xlink:title=" ">
<path fill="none" stroke="#63b8ff" d="M985.66,-174.67C940.99,-166.26 851.69,-149.07 765.91,-130.05"/>
<polygon fill="#63b8ff" stroke="#63b8ff" points="766.72,-126.42 756.2,-127.66 765.2,-133.25 766.72,-126.42"/>
</a>
</g>
</g>
<!-- Node7 -->
<g id="Node000007" class="node">
<title>Node7</title>
<g id="a_Node000007"><a xlink:title=" ">
<polygon fill="#e0e0e0" stroke="#999999" points="811.11,-129.75 773.36,-129.75 773.36,-110.5 811.11,-110.5 811.11,-129.75"/>
<text text-anchor="middle" x="792.24" y="-116.25" font-family="Helvetica,sans-Serif" font-size="10.00">array</text>
</a>
</g>
</g>
<!-- Node4&#45;&gt;Node7 -->
<g id="edge6_Node000004_Node000007" class="edge">
<title>Node4&#45;&gt;Node7</title>
<g id="a_edge6_Node000004_Node000007"><a xlink:title=" ">
<path fill="none" stroke="#63b8ff" d="M985.53,-173C949.5,-164.11 885.57,-148.04 821.72,-130.08"/>
<polygon fill="#63b8ff" stroke="#63b8ff" points="823.06,-126.53 812.48,-127.18 821.15,-133.27 823.06,-126.53"/>
</a>
</g>
</g>
<!-- Node8 -->
<g id="Node000008" class="node">
<title>Node8</title>
<g id="a_Node000008"><a xlink:title=" ">
<polygon fill="#e0e0e0" stroke="#999999" points="885.11,-129.75 829.36,-129.75 829.36,-110.5 885.11,-110.5 885.11,-129.75"/>
<text text-anchor="middle" x="857.24" y="-116.25" font-family="Helvetica,sans-Serif" font-size="10.00">algorithm</text>
</a>
</g>
</g>
<!-- Node4&#45;&gt;Node8 -->
<g id="edge7_Node000004_Node000008" class="edge">
<title>Node4&#45;&gt;Node8</title>
<g id="a_edge7_Node000004_Node000008"><a xlink:title=" ">
<path fill="none" stroke="#63b8ff" d="M990.05,-170.93C963.66,-161.03 921.2,-145.11 891.41,-133.94"/>
<polygon fill="#63b8ff" stroke="#63b8ff" points="893.04,-130.44 882.45,-130.21 890.59,-136.99 893.04,-130.44"/>
</a>
</g>
</g>
<!-- Node9 -->
<g id="Node000009" class="node">
<title>Node9</title>
<g id="a_Node000009"><a xlink:title=" ">
<polygon fill="#e0e0e0" stroke="#999999" points="849.86,-74.5 798.61,-74.5 798.61,-55.25 849.86,-55.25 849.86,-74.5"/>
<text text-anchor="middle" x="824.24" y="-61" font-family="Helvetica,sans-Serif" font-size="10.00">ostream</text>
</a>
</g>
</g>
<!-- Node4&#45;&gt;Node9 -->
<g id="edge8_Node000004_Node000009" class="edge">
<title>Node4&#45;&gt;Node9</title>
<g id="a_edge8_Node000004_Node000009"><a xlink:title=" ">
<path fill="none" stroke="#63b8ff" d="M999.33,-171.04C966.67,-151.43 888.53,-104.5 848.61,-80.52"/>
<polygon fill="#63b8ff" stroke="#63b8ff" points="850.71,-77.1 840.34,-74.95 847.11,-83.1 850.71,-77.1"/>
</a>
</g>
</g>
<!-- Node10 -->
<g id="Node000010" class="node">
<title>Node10</title>
<g id="a_Node000010"><a xlink:title=" ">
<polygon fill="#e0e0e0" stroke="#999999" points="1080.99,-129.75 1027.49,-129.75 1027.49,-110.5 1080.99,-110.5 1080.99,-129.75"/>
<text text-anchor="middle" x="1054.24" y="-116.25" font-family="Helvetica,sans-Serif" font-size="10.00">iostream</text>
</a>
</g>
</g>
<!-- Node4&#45;&gt;Node10 -->
<g id="edge9_Node000004_Node000010" class="edge">
<title>Node4&#45;&gt;Node10</title>
<g id="a_edge9_Node000004_Node000010"><a xlink:title=" ">
<path fill="none" stroke="#63b8ff" d="M1020.31,-171.06C1026.07,-162.59 1034.88,-149.62 1042.08,-139.02"/>
<polygon fill="#63b8ff" stroke="#63b8ff" points="1045.38,-141.39 1048.1,-131.15 1039.59,-137.46 1045.38,-141.39"/>
</a>
</g>
</g>
<!-- Node11 -->
<g id="Node000011" class="node">
<title>Node11</title>
<g id="a_Node000011"><a xlink:title=" ">
<polygon fill="#e0e0e0" stroke="#999999" points="1145.24,-129.75 1099.24,-129.75 1099.24,-110.5 1145.24,-110.5 1145.24,-129.75"/>
<text text-anchor="middle" x="1122.24" y="-116.25" font-family="Helvetica,sans-Serif" font-size="10.00">math.h</text>
</a>
</g>
</g>
<!-- Node4&#45;&gt;Node11 -->
<g id="edge10_Node000004_Node000011" class="edge">
<title>Node4&#45;&gt;Node11</title>
<g id="a_edge10_Node000004_Node000011"><a xlink:title=" ">
<path fill="none" stroke="#63b8ff" d="M1030.64,-171.06C1048,-161.59 1075.67,-146.51 1096.05,-135.4"/>
<polygon fill="#63b8ff" stroke="#63b8ff" points="1097.57,-138.01 1104.68,-130.15 1094.22,-131.86 1097.57,-138.01"/>
</a>
</g>
</g>
<!-- Node12 -->
<g id="Node000012" class="node">
<title>Node12</title>
<g id="a_Node000012"><a xlink:title=" ">
<polygon fill="#e0e0e0" stroke="#999999" points="1205.36,-129.75 1163.11,-129.75 1163.11,-110.5 1205.36,-110.5 1205.36,-129.75"/>
<text text-anchor="middle" x="1184.24" y="-116.25" font-family="Helvetica,sans-Serif" font-size="10.00">queue</text>
</a>
</g>
</g>
<!-- Node4&#45;&gt;Node12 -->
<g id="edge11_Node000004_Node000012" class="edge">
<title>Node4&#45;&gt;Node12</title>
<g id="a_edge11_Node000004_Node000012"><a xlink:title=" ">
<path fill="none" stroke="#63b8ff" d="M1040.43,-170.93C1070.63,-160.47 1120.28,-143.27 1152.61,-132.08"/>
<polygon fill="#63b8ff" stroke="#63b8ff" points="1153.56,-135.11 1161.86,-128.53 1151.27,-128.49 1153.56,-135.11"/>
</a>
</g>
</g>
<!-- Node4&#45;&gt;Node13 -->
<g id="edge12_Node000004_Node000013" class="edge">
<title>Node4&#45;&gt;Node13</title>
<g id="a_edge12_Node000004_Node000013"><a xlink:title=" ">
<path fill="none" stroke="#63b8ff" d="M1042.75,-177.59C1106.54,-171.94 1265.69,-156.41 1407.69,-130.05"/>
<polygon fill="#63b8ff" stroke="#63b8ff" points="1408.14,-133.34 1417.32,-128.05 1406.85,-126.46 1408.14,-133.34"/>
</a>
</g>
</g>
<!-- Node14 -->
<g id="Node000014" class="node">
<title>Node14</title>
<g id="a_Node000014"><a xlink:title=" ">
<polygon fill="#e0e0e0" stroke="#999999" points="1265.36,-129.75 1223.11,-129.75 1223.11,-110.5 1265.36,-110.5 1265.36,-129.75"/>
<text text-anchor="middle" x="1244.24" y="-116.25" font-family="Helvetica,sans-Serif" font-size="10.00">cstdio</text>
</a>
</g>
</g>
<!-- Node4&#45;&gt;Node14 -->
<g id="edge13_Node000004_Node000014" class="edge">
<title>Node4&#45;&gt;Node14</title>
<g id="a_edge13_Node000004_Node000014"><a xlink:title=" ">
<path fill="none" stroke="#63b8ff" d="M1042.8,-173.15C1079.7,-164.22 1146.19,-147.9 1212.07,-130.27"/>
<polygon fill="#63b8ff" stroke="#63b8ff" points="1212.88,-133.41 1221.63,-127.43 1211.06,-126.65 1212.88,-133.41"/>
</a>
</g>
</g>
<!-- Node15 -->
<g id="Node000015" class="node">
<title>Node15</title>
<g id="a_Node000015"><a xlink:title=" ">
<polygon fill="#e0e0e0" stroke="#999999" points="1331.36,-129.75 1283.11,-129.75 1283.11,-110.5 1331.36,-110.5 1331.36,-129.75"/>
<text text-anchor="middle" x="1307.24" y="-116.25" font-family="Helvetica,sans-Serif" font-size="10.00">stdint.h</text>
</a>
</g>
</g>
<!-- Node4&#45;&gt;Node15 -->
<g id="edge14_Node000004_Node000015" class="edge">
<title>Node4&#45;&gt;Node15</title>
<g id="a_edge14_Node000004_Node000015"><a xlink:title=" ">
<path fill="none" stroke="#63b8ff" d="M1042.83,-175.1C1089.02,-167.05 1183.1,-150.09 1272.21,-130.1"/>
<polygon fill="#63b8ff" stroke="#63b8ff" points="1272.79,-133.33 1281.77,-127.71 1271.25,-126.5 1272.79,-133.33"/>
</a>
</g>
</g>
<!-- Node16 -->
<g id="Node000016" class="node">
<title>Node16</title>
<g id="a_Node000016"><a xlink:title=" ">
<polygon fill="#e0e0e0" stroke="#999999" points="1400.86,-129.75 1349.61,-129.75 1349.61,-110.5 1400.86,-110.5 1400.86,-129.75"/>
<text text-anchor="middle" x="1375.24" y="-116.25" font-family="Helvetica,sans-Serif" font-size="10.00">stdarg.h</text>
</a>
</g>
</g>
<!-- Node4&#45;&gt;Node16 -->
<g id="edge15_Node000004_Node000016" class="edge">
<title>Node4&#45;&gt;Node16</title>
<g id="a_edge15_Node000004_Node000016"><a xlink:title=" ">
<path fill="none" stroke="#63b8ff" d="M1042.73,-176.47C1097.86,-169.46 1223.13,-152.64 1338.52,-129.93"/>
<polygon fill="#63b8ff" stroke="#63b8ff" points="1339.18,-133.17 1348.3,-127.79 1337.81,-126.31 1339.18,-133.17"/>
</a>
</g>
</g>
<!-- Node4&#45;&gt;Node17 -->
<g id="edge16_Node000004_Node000017" class="edge">
<title>Node4&#45;&gt;Node17</title>
<g id="a_edge16_Node000004_Node000017"><a xlink:title=" ">
<path fill="none" stroke="#63b8ff" d="M1042.8,-178.63C1114.47,-174.83 1307.75,-162.33 1476.8,-129.94"/>
<polygon fill="#63b8ff" stroke="#63b8ff" points="1477.24,-133.22 1486.39,-127.88 1475.9,-126.35 1477.24,-133.22"/>
</a>
</g>
</g>
<!-- Node18 -->
<g id="Node000018" class="node">
<title>Node18</title>
<g id="a_Node000018"><a xlink:title=" ">
<polygon fill="#e0e0e0" stroke="#999999" points="315.36,-129.75 267.11,-129.75 267.11,-110.5 315.36,-110.5 315.36,-129.75"/>
<text text-anchor="middle" x="291.24" y="-116.25" font-family="Helvetica,sans-Serif" font-size="10.00">cassert</text>
</a>
</g>
</g>
<!-- Node4&#45;&gt;Node18 -->
<g id="edge17_Node000004_Node000018" class="edge">
<title>Node4&#45;&gt;Node18</title>
<g id="a_edge17_Node000004_Node000018"><a xlink:title=" ">
<path fill="none" stroke="#63b8ff" d="M985.76,-179.79C892.36,-178.7 586.91,-172.04 326.44,-129.81"/>
<polygon fill="#63b8ff" stroke="#63b8ff" points="327.07,-126.2 316.64,-128.03 325.94,-133.11 327.07,-126.2"/>
</a>
</g>
</g>
<!-- Node4&#45;&gt;Node19 -->
<g id="edge18_Node000004_Node000019" class="edge">
<title>Node4&#45;&gt;Node19</title>
<g id="a_edge18_Node000004_Node000019"><a xlink:title=" ">
<path fill="none" stroke="#63b8ff" d="M1042.72,-179.13C1120.71,-176.34 1344.27,-165.77 1537.75,-129.91"/>
<polygon fill="#63b8ff" stroke="#63b8ff" points="1538.21,-133.2 1547.39,-127.91 1536.92,-126.32 1538.21,-133.2"/>
</a>
</g>
</g>
<!-- Node20 -->
<g id="Node000020" class="node">
<title>Node20</title>
<g id="a_Node000020"><a xlink:title=" ">
<polygon fill="#e0e0e0" stroke="#999999" points="395.11,-129.75 333.36,-129.75 333.36,-110.5 395.11,-110.5 395.11,-129.75"/>
<text text-anchor="middle" x="364.24" y="-116.25" font-family="Helvetica,sans-Serif" font-size="10.00">type_traits</text>
</a>
</g>
</g>
<!-- Node4&#45;&gt;Node20 -->
<g id="edge19_Node000004_Node000020" class="edge">
<title>Node4&#45;&gt;Node20</title>
<g id="a_edge19_Node000004_Node000020"><a xlink:title=" ">
<path fill="none" stroke="#63b8ff" d="M985.5,-178.96C899.25,-175.57 634.98,-163.13 406.46,-129.89"/>
<polygon fill="#63b8ff" stroke="#63b8ff" points="407.01,-126.29 396.61,-128.29 405.99,-133.21 407.01,-126.29"/>
</a>
</g>
</g>
<!-- Node21 -->
<g id="Node000021" class="node">
<title>Node21</title>
<g id="a_Node000021"><a xlink:title=" ">
<polygon fill="#e0e0e0" stroke="#999999" points="463.11,-129.75 413.36,-129.75 413.36,-110.5 463.11,-110.5 463.11,-129.75"/>
<text text-anchor="middle" x="438.24" y="-116.25" font-family="Helvetica,sans-Serif" font-size="10.00">optional</text>
</a>
</g>
</g>
<!-- Node4&#45;&gt;Node21 -->
<g id="edge20_Node000004_Node000021" class="edge">
<title>Node4&#45;&gt;Node21</title>
<g id="a_edge20_Node000004_Node000021"><a xlink:title=" ">
<path fill="none" stroke="#63b8ff" d="M985.53,-178.92C905.82,-175.57 674.96,-163.64 474.14,-129.81"/>
<polygon fill="#63b8ff" stroke="#63b8ff" points="474.84,-126.21 464.39,-127.97 473.66,-133.11 474.84,-126.21"/>
</a>
</g>
</g>
<!-- Node22 -->
<g id="Node000022" class="node">
<title>Node22</title>
<g id="a_Node000022"><a xlink:href="../../d0/d8f/_technologies_8hpp.html" target="_top" xlink:title=" ">
<polygon fill="white" stroke="#666666" points="573.11,-129.75 481.36,-129.75 481.36,-110.5 573.11,-110.5 573.11,-129.75"/>
<text text-anchor="middle" x="527.24" y="-116.25" font-family="Helvetica,sans-Serif" font-size="10.00">Technologies.hpp</text>
</a>
</g>
</g>
<!-- Node4&#45;&gt;Node22 -->
<g id="edge21_Node000004_Node000022" class="edge">
<title>Node4&#45;&gt;Node22</title>
<g id="a_edge21_Node000004_Node000022"><a xlink:title=" ">
<path fill="none" stroke="#63b8ff" d="M985.63,-177.07C917.87,-170.05 742.05,-151.32 584.28,-129.98"/>
<polygon fill="#63b8ff" stroke="#63b8ff" points="584.81,-126.39 574.43,-128.51 583.87,-133.32 584.81,-126.39"/>
</a>
</g>
</g>
<!-- Node23 -->
<g id="Node000023" class="node">
<title>Node23</title>
<g id="a_Node000023"><a xlink:href="../../df/d1b/_semver_8hpp.html" target="_top" xlink:title=" ">
<polygon fill="white" stroke="#666666" points="1009.11,-129.75 941.36,-129.75 941.36,-110.5 1009.11,-110.5 1009.11,-129.75"/>
<text text-anchor="middle" x="975.24" y="-116.25" font-family="Helvetica,sans-Serif" font-size="10.00">Semver.hpp</text>
</a>
</g>
</g>
<!-- Node4&#45;&gt;Node23 -->
<g id="edge22_Node000004_Node000023" class="edge">
<title>Node4&#45;&gt;Node23</title>
<g id="a_edge22_Node000004_Node000023"><a xlink:title=" ">
<path fill="none" stroke="#63b8ff" d="M1008.31,-171.06C1002.7,-162.59 994.11,-149.62 987.09,-139.02"/>
<polygon fill="#63b8ff" stroke="#63b8ff" points="989.66,-137.55 981.22,-131.15 983.82,-141.42 989.66,-137.55"/>
</a>
</g>
</g>
<!-- Node23&#45;&gt;Node9 -->
<g id="edge25_Node000023_Node000009" class="edge">
<title>Node23&#45;&gt;Node9</title>
<g id="a_edge25_Node000023_Node000009"><a xlink:title=" ">
<path fill="none" stroke="#63b8ff" d="M949.62,-110.09C925,-101.41 887.57,-88.21 860.01,-78.49"/>
<polygon fill="#63b8ff" stroke="#63b8ff" points="861.57,-74.98 850.98,-74.95 859.24,-81.58 861.57,-74.98"/>
</a>
</g>
</g>
<!-- Node23&#45;&gt;Node24 -->
<g id="edge23_Node000023_Node000024" class="edge">
<title>Node23&#45;&gt;Node24</title>
<g id="a_edge23_Node000023_Node000024"><a xlink:title=" ">
<path fill="none" stroke="#63b8ff" d="M940.98,-115.1C926.57,-113.5 909.6,-111.75 894.24,-110.5 600.73,-86.57 244.6,-71.34 138.49,-67.09"/>
<polygon fill="#63b8ff" stroke="#63b8ff" points="138.76,-63.56 128.63,-66.66 138.48,-70.55 138.76,-63.56"/>
</a>
</g>
</g>
<!-- Node25 -->
<g id="Node000025" class="node">
<title>Node25</title>
<g id="a_Node000025"><a xlink:title=" ">
<polygon fill="#e0e0e0" stroke="#999999" points="912.86,-74.5 867.61,-74.5 867.61,-55.25 912.86,-55.25 912.86,-74.5"/>
<text text-anchor="middle" x="890.24" y="-61" font-family="Helvetica,sans-Serif" font-size="10.00">cstring</text>
</a>
</g>
</g>
<!-- Node23&#45;&gt;Node25 -->
<g id="edge24_Node000023_Node000025" class="edge">
<title>Node23&#45;&gt;Node25</title>
<g id="a_edge24_Node000023_Node000025"><a xlink:title=" ">
<path fill="none" stroke="#63b8ff" d="M960.82,-110.09C948,-102.06 929,-90.16 913.95,-80.73"/>
<polygon fill="#63b8ff" stroke="#63b8ff" points="916.06,-77.3 905.73,-74.95 912.34,-83.23 916.06,-77.3"/>
</a>
</g>
</g>
<!-- Node26 -->
<g id="Node000026" class="node">
<title>Node26</title>
<g id="a_Node000026"><a xlink:title=" ">
<polygon fill="#e0e0e0" stroke="#999999" points="1003.61,-19.25 944.86,-19.25 944.86,0 1003.61,0 1003.61,-19.25"/>
<text text-anchor="middle" x="974.24" y="-5.75" font-family="Helvetica,sans-Serif" font-size="10.00">stdexcept</text>
</a>
</g>
</g>
<!-- Node23&#45;&gt;Node26 -->
<g id="edge26_Node000023_Node000026" class="edge">
<title>Node23&#45;&gt;Node26</title>
<g id="a_edge26_Node000023_Node000026"><a xlink:title=" ">
<path fill="none" stroke="#63b8ff" d="M971.24,-110.12C967.55,-101.26 962.32,-87.24 960.24,-74.5 957.77,-59.4 961.78,-42.5 966.13,-29.88"/>
<polygon fill="#63b8ff" stroke="#63b8ff" points="969.73,-31.25 970.04,-20.66 963.2,-28.75 969.73,-31.25"/>
</a>
</g>
</g>
<!-- Node27 -->
<g id="Node000027" class="node">
<title>Node27</title>
<g id="a_Node000027"><a xlink:title=" ">
<polygon fill="#e0e0e0" stroke="#999999" points="1160.99,-74.5 1065.49,-74.5 1065.49,-55.25 1160.99,-55.25 1160.99,-74.5"/>
<text text-anchor="middle" x="1113.24" y="-61" font-family="Helvetica,sans-Serif" font-size="10.00">boost/optional.hpp</text>
</a>
</g>
</g>
<!-- Node23&#45;&gt;Node27 -->
<g id="edge27_Node000023_Node000027" class="edge">
<title>Node23&#45;&gt;Node27</title>
<g id="a_edge27_Node000023_Node000027"><a xlink:title=" ">
<path fill="none" stroke="#63b8ff" d="M998.65,-110.09C1020.85,-101.52 1054.46,-88.56 1079.54,-78.88"/>
<polygon fill="#63b8ff" stroke="#63b8ff" points="1080.64,-81.82 1088.71,-74.95 1078.12,-75.29 1080.64,-81.82"/>
</a>
</g>
</g>
<!-- Node28 -->
<g id="Node000028" class="node">
<title>Node28</title>
<g id="a_Node000028"><a xlink:title=" ">
<polygon fill="#e0e0e0" stroke="#999999" points="1268.99,-74.5 1179.49,-74.5 1179.49,-55.25 1268.99,-55.25 1268.99,-74.5"/>
<text text-anchor="middle" x="1224.24" y="-61" font-family="Helvetica,sans-Serif" font-size="10.00">boost/format.hpp</text>
</a>
</g>
</g>
<!-- Node23&#45;&gt;Node28 -->
<g id="edge28_Node000023_Node000028" class="edge">
<title>Node23&#45;&gt;Node28</title>
<g id="a_edge28_Node000023_Node000028"><a xlink:title=" ">
<path fill="none" stroke="#63b8ff" d="M1009.6,-111.78C1051.4,-102.84 1122.41,-87.65 1171.23,-77.21"/>
<polygon fill="#63b8ff" stroke="#63b8ff" points="1171.86,-80.44 1180.91,-74.93 1170.4,-73.6 1171.86,-80.44"/>
</a>
</g>
</g>
<!-- Node29 -->
<g id="Node000029" class="node">
<title>Node29</title>
<g id="a_Node000029"><a xlink:href="../../db/d53/semver_8h.html" target="_top" xlink:title=" ">
<polygon fill="white" stroke="#666666" points="1377.74,-74.5 1286.74,-74.5 1286.74,-55.25 1377.74,-55.25 1377.74,-74.5"/>
<text text-anchor="middle" x="1332.24" y="-61" font-family="Helvetica,sans-Serif" font-size="10.00">semver/semver.h</text>
</a>
</g>
</g>
<!-- Node23&#45;&gt;Node29 -->
<g id="edge29_Node000023_Node000029" class="edge">
<title>Node23&#45;&gt;Node29</title>
<g id="a_edge29_Node000023_Node000029"><a xlink:title=" ">
<path fill="none" stroke="#63b8ff" d="M1009.47,-112.06C1012.43,-111.51 1015.38,-110.98 1018.24,-110.5 1129.89,-91.59 1161.05,-91.68 1275.68,-74.85"/>
<polygon fill="#63b8ff" stroke="#63b8ff" points="1275.91,-78.21 1285.29,-73.28 1274.88,-71.28 1275.91,-78.21"/>
</a>
</g>
</g>
<!-- Node30 -->
<g id="Node000030" class="node">
<title>Node30</title>
<g id="a_Node000030"><a xlink:href="../../de/d75/_exception_8hpp.html" target="_top" xlink:title=" ">
<polygon fill="white" stroke="#666666" points="1047.36,-74.5 969.11,-74.5 969.11,-55.25 1047.36,-55.25 1047.36,-74.5"/>
<text text-anchor="middle" x="1008.24" y="-61" font-family="Helvetica,sans-Serif" font-size="10.00">Exception.hpp</text>
</a>
</g>
</g>
<!-- Node23&#45;&gt;Node30 -->
<g id="edge30_Node000023_Node000030" class="edge">
<title>Node23&#45;&gt;Node30</title>
<g id="a_edge30_Node000023_Node000030"><a xlink:title=" ">
<path fill="none" stroke="#63b8ff" d="M980.69,-110.33C985.1,-103.21 991.47,-92.93 996.97,-84.05"/>
<polygon fill="#63b8ff" stroke="#63b8ff" points="1000.38,-86.2 1002.67,-75.86 994.43,-82.52 1000.38,-86.2"/>
</a>
</g>
</g>
<!-- Node30&#45;&gt;Node26 -->
<g id="edge31_Node000030_Node000026" class="edge">
<title>Node30&#45;&gt;Node26</title>
<g id="a_edge31_Node000030_Node000026"><a xlink:title=" ">
<path fill="none" stroke="#63b8ff" d="M1002.62,-55.08C998.07,-47.96 991.51,-37.68 985.84,-28.8"/>
<polygon fill="#63b8ff" stroke="#63b8ff" points="988.3,-27.15 979.97,-20.61 982.4,-30.92 988.3,-27.15"/>
</a>
</g>
</g>
<!-- Node35&#45;&gt;Node18 -->
<g id="edge44_Node000035_Node000018" class="edge">
<title>Node35&#45;&gt;Node18</title>
<g id="a_edge44_Node000035_Node000018"><a xlink:title=" ">
<path fill="none" stroke="#63b8ff" d="M206.42,-171.06C222.36,-161.68 247.65,-146.79 266.47,-135.7"/>
<polygon fill="#63b8ff" stroke="#63b8ff" points="268.06,-138.24 274.91,-130.15 264.51,-132.21 268.06,-138.24"/>
</a>
</g>
</g>
<!-- Node35&#45;&gt;Node24 -->
<g id="edge41_Node000035_Node000024" class="edge">
<title>Node35&#45;&gt;Node24</title>
<g id="a_edge41_Node000035_Node000024"><a xlink:title=" ">
<path fill="none" stroke="#63b8ff" d="M174.13,-170.88C159.38,-162.18 138.58,-147.75 126.24,-129.75 117.22,-116.6 112.41,-99.1 109.88,-85.74"/>
<polygon fill="#63b8ff" stroke="#63b8ff" points="113.18,-85.2 108.15,-75.88 106.27,-86.31 113.18,-85.2"/>
</a>
</g>
</g>
<!-- Node36 -->
<g id="Node000036" class="node">
<title>Node36</title>
<g id="a_Node000036"><a xlink:title=" ">
<polygon fill="#e0e0e0" stroke="#999999" points="181.61,-129.75 134.86,-129.75 134.86,-110.5 181.61,-110.5 181.61,-129.75"/>
<text text-anchor="middle" x="158.24" y="-116.25" font-family="Helvetica,sans-Serif" font-size="10.00">clocale</text>
</a>
</g>
</g>
<!-- Node35&#45;&gt;Node36 -->
<g id="edge42_Node000035_Node000036" class="edge">
<title>Node35&#45;&gt;Node36</title>
<g id="a_edge42_Node000035_Node000036"><a xlink:title=" ">
<path fill="none" stroke="#63b8ff" d="M186.22,-171.06C181.57,-162.76 174.5,-150.14 168.63,-139.67"/>
<polygon fill="#63b8ff" stroke="#63b8ff" points="171.24,-138.16 163.3,-131.15 165.13,-141.59 171.24,-138.16"/>
</a>
</g>
</g>
<!-- Node37 -->
<g id="Node000037" class="node">
<title>Node37</title>
<g id="a_Node000037"><a xlink:title=" ">
<polygon fill="#e0e0e0" stroke="#999999" points="249.11,-129.75 199.36,-129.75 199.36,-110.5 249.11,-110.5 249.11,-129.75"/>
<text text-anchor="middle" x="224.24" y="-116.25" font-family="Helvetica,sans-Serif" font-size="10.00">iomanip</text>
</a>
</g>
</g>
<!-- Node35&#45;&gt;Node37 -->
<g id="edge43_Node000035_Node000037" class="edge">
<title>Node35&#45;&gt;Node37</title>
<g id="a_edge43_Node000035_Node000037"><a xlink:title=" ">
<path fill="none" stroke="#63b8ff" d="M196.25,-171.06C200.9,-162.76 207.97,-150.14 213.84,-139.67"/>
<polygon fill="#63b8ff" stroke="#63b8ff" points="217.34,-141.59 219.18,-131.15 211.23,-138.16 217.34,-141.59"/>
</a>
</g>
</g>
<!-- Node38 -->
<g id="Node000038" class="node">
<title>Node38</title>
<g id="a_Node000038"><a xlink:title=" ">
<polygon fill="#e0e0e0" stroke="#999999" points="78.99,-129.75 13.49,-129.75 13.49,-110.5 78.99,-110.5 78.99,-129.75"/>
<text text-anchor="middle" x="46.24" y="-116.25" font-family="Helvetica,sans-Serif" font-size="10.00">string_view</text>
</a>
</g>
</g>
<!-- Node35&#45;&gt;Node38 -->
<g id="edge45_Node000035_Node000038" class="edge">
<title>Node35&#45;&gt;Node38</title>
<g id="a_edge45_Node000035_Node000038"><a xlink:title=" ">
<path fill="none" stroke="#63b8ff" d="M168.9,-170.93C144.67,-161.09 105.77,-145.3 78.28,-134.14"/>
<polygon fill="#63b8ff" stroke="#63b8ff" points="79.94,-130.63 69.36,-130.11 77.31,-137.11 79.94,-130.63"/>
</a>
</g>
</g>
</g>
</svg>
