<?xml version="1.0" encoding="UTF-8" standalone="no"?>
<!DOCTYPE svg PUBLIC "-//W3C//DTD SVG 1.1//EN"
 "http://www.w3.org/Graphics/SVG/1.1/DTD/svg11.dtd">
<!-- Generated by graphviz version 8.0.5 (20230430.1635)
 -->
<!-- Title: Eigen::PastixLDLT::PastixLDLT Pages: 1 -->
<!--zoomable 235 -->

<svg id="main" version="1.1" xmlns="http://www.w3.org/2000/svg" xmlns:xlink="http://www.w3.org/1999/xlink" xml:space="preserve" onload="init(evt)">
<style type="text/css"><![CDATA[
.node, .edge {opacity: 0.7;}
.node.selected, .edge.selected {opacity: 1;}
.edge:hover path { stroke: red; }
.edge:hover polygon { stroke: red; fill: red; }
]]></style>

<defs>
  <circle id="rim" cx="0" cy="0" r="7"/>
  <circle id="rim2" cx="0" cy="0" r="3.5"/>
  <g id="zoomPlus">
    <use xlink:href="#rim" fill="#404040"><set attributeName="fill" to="#808080" begin="zoomplus.mouseover" end="zoomplus.mouseout"/></use>
    <path d="M-4,0h8M0,-4v8" fill="none" stroke="white" stroke-width="1.5" pointer-events="none"/>
  </g>
  <g id="zoomMin">
    <use xlink:href="#rim" fill="#404040"><set attributeName="fill" to="#808080" begin="zoomminus.mouseover" end="zoomminus.mouseout"/></use>
    <path d="M-4,0h8" fill="none" stroke="white" stroke-width="1.5" pointer-events="none"/>
  </g>
  <g id="arrowUp" transform="translate(30 24)">
    <use xlink:href="#rim"/>
    <path pointer-events="none" fill="none" stroke="white" stroke-width="1.5" d="M0,-3.0v7 M-2.5,-0.5L0,-3.0L2.5,-0.5"/>
  </g>
  <g id="arrowRight" transform="rotate(90) translate(36 -43)">
    <use xlink:href="#rim"/>
    <path pointer-events="none" fill="none" stroke="white" stroke-width="1.5" d="M0,-3.0v7 M-2.5,-0.5L0,-3.0L2.5,-0.5"/>
  </g>
  <g id="arrowDown" transform="rotate(180) translate(-30 -48)">
    <use xlink:href="#rim"/>
    <path pointer-events="none" fill="none" stroke="white" stroke-width="1.5" d="M0,-3.0v7 M-2.5,-0.5L0,-3.0L2.5,-0.5"/>
  </g>
  <g id="arrowLeft" transform="rotate(270) translate(-36 17)">
    <use xlink:href="#rim"/>
    <path pointer-events="none" fill="none" stroke="white" stroke-width="1.5" d="M0,-3.0v7 M-2.5,-0.5L0,-3.0L2.5,-0.5"/>
  </g>
  <g id="resetDef">
    <use xlink:href="#rim2" fill="#404040"><set attributeName="fill" to="#808080" begin="reset.mouseover" end="reset.mouseout"/></use>
  </g>
</defs>
<script type="application/ecmascript">
var viewWidth = 726;
var viewHeight = 235;
var sectionId = 'dynsection-3';
</script>
<script type="application/ecmascript" xlink:href="../../svg.min.js"/>
<svg id="graph" class="graph">
<g id="viewport">
<title>Eigen::PastixLDLT::PastixLDLT</title>
<!-- Node1 -->
<g id="Node000001" class="node">
<title>Node1</title>
<g id="a_Node000001"><a xlink:title=" ">
<polygon fill="#999999" stroke="#666666" points="103,-178.5 0,-178.5 0,-148 103,-148 103,-178.5"/>
<text text-anchor="start" x="8" y="-165" font-family="Helvetica,sans-Serif" font-size="10.00">Eigen::PastixLDLT::</text>
<text text-anchor="middle" x="51.5" y="-153.75" font-family="Helvetica,sans-Serif" font-size="10.00">PastixLDLT</text>
</a>
</g>
</g>
<!-- Node2 -->
<g id="Node000002" class="node">
<title>Node2</title>
<g id="a_Node000002"><a xlink:href="../../d9/def/class_eigen_1_1_pastix_l_d_l_t.html#abf3135c2dc17d9df26fef80e6456a691" target="_top" xlink:title=" ">
<polygon fill="white" stroke="#666666" points="248.38,-200.5 145.38,-200.5 145.38,-170 248.38,-170 248.38,-200.5"/>
<text text-anchor="start" x="153.38" y="-187" font-family="Helvetica,sans-Serif" font-size="10.00">Eigen::PastixLDLT::</text>
<text text-anchor="middle" x="196.88" y="-175.75" font-family="Helvetica,sans-Serif" font-size="10.00">compute</text>
</a>
</g>
</g>
<!-- Node1&#45;&gt;Node2 -->
<g id="edge1_Node000001_Node000002" class="edge">
<title>Node1&#45;&gt;Node2</title>
<g id="a_edge1_Node000001_Node000002"><a xlink:title=" ">
<path fill="none" stroke="#63b8ff" d="M103.45,-171.07C113.49,-172.61 124.12,-174.24 134.46,-175.83"/>
<polygon fill="#63b8ff" stroke="#63b8ff" points="133.67,-179.4 144.09,-177.46 134.73,-172.48 133.67,-179.4"/>
</a>
</g>
</g>
<!-- Node12 -->
<g id="Node000012" class="node">
<title>Node12</title>
<g id="a_Node000012"><a xlink:href="../../d9/def/class_eigen_1_1_pastix_l_d_l_t.html#adb8dab54456c5c7c851a4df86be44009" target="_top" xlink:title=" ">
<polygon fill="white" stroke="#666666" points="254.75,-151.88 139,-151.88 139,-132.62 254.75,-132.62 254.75,-151.88"/>
<text text-anchor="middle" x="196.88" y="-138.38" font-family="Helvetica,sans-Serif" font-size="10.00">Eigen::PastixLDLT::init</text>
</a>
</g>
</g>
<!-- Node1&#45;&gt;Node12 -->
<g id="edge13_Node000001_Node000012" class="edge">
<title>Node1&#45;&gt;Node12</title>
<g id="a_edge13_Node000001_Node000012"><a xlink:title=" ">
<path fill="none" stroke="#63b8ff" d="M103.45,-155.79C111.4,-154.62 119.72,-153.4 127.97,-152.2"/>
<polygon fill="#63b8ff" stroke="#63b8ff" points="128.36,-155.53 137.74,-150.62 127.34,-148.6 128.36,-155.53"/>
</a>
</g>
</g>
<!-- Node3 -->
<g id="Node000003" class="node">
<title>Node3</title>
<g id="a_Node000003"><a xlink:href="../../d5/db8/class_eigen_1_1_pastix_base.html#a4173afa8a88aec8f1346372b2de71af9" target="_top" xlink:title=" ">
<polygon fill="white" stroke="#666666" points="537.62,-226.5 434.62,-226.5 434.62,-196 537.62,-196 537.62,-226.5"/>
<text text-anchor="start" x="442.62" y="-213" font-family="Helvetica,sans-Serif" font-size="10.00">Eigen::PastixBase::</text>
<text text-anchor="middle" x="486.12" y="-201.75" font-family="Helvetica,sans-Serif" font-size="10.00">compute</text>
</a>
</g>
</g>
<!-- Node2&#45;&gt;Node3 -->
<g id="edge2_Node000002_Node000003" class="edge">
<title>Node2&#45;&gt;Node3</title>
<g id="a_edge2_Node000002_Node000003"><a xlink:title=" ">
<path fill="none" stroke="#63b8ff" d="M248.57,-189.84C297.44,-194.26 371.46,-200.96 423.66,-205.69"/>
<polygon fill="#63b8ff" stroke="#63b8ff" points="423.18,-209.25 433.46,-206.66 423.81,-202.28 423.18,-209.25"/>
</a>
</g>
</g>
<!-- Node6 -->
<g id="Node000006" class="node">
<title>Node6</title>
<g id="a_Node000006"><a xlink:href="../../d9/def/class_eigen_1_1_pastix_l_d_l_t.html#a5999da01d22c5c2db69d8ab7858b8cd0" target="_top" xlink:title=" ">
<polygon fill="white" stroke="#666666" points="393.75,-177.5 290.75,-177.5 290.75,-147 393.75,-147 393.75,-177.5"/>
<text text-anchor="start" x="298.75" y="-164" font-family="Helvetica,sans-Serif" font-size="10.00">Eigen::PastixLDLT::</text>
<text text-anchor="middle" x="342.25" y="-152.75" font-family="Helvetica,sans-Serif" font-size="10.00">grabMatrix</text>
</a>
</g>
</g>
<!-- Node2&#45;&gt;Node6 -->
<g id="edge5_Node000002_Node000006" class="edge">
<title>Node2&#45;&gt;Node6</title>
<g id="a_edge5_Node000002_Node000006"><a xlink:title=" ">
<path fill="none" stroke="#63b8ff" d="M248.83,-177.08C258.86,-175.47 269.49,-173.76 279.83,-172.1"/>
<polygon fill="#63b8ff" stroke="#63b8ff" points="280.14,-175.44 289.46,-170.4 279.03,-168.53 280.14,-175.44"/>
</a>
</g>
</g>
<!-- Node4 -->
<g id="Node000004" class="node">
<title>Node4</title>
<g id="a_Node000004"><a xlink:href="../../dc/dfe/class_eigen_1_1_sparse_matrix.html#aa391750e3c530227e4a5c3c52e959975" target="_top" xlink:title=" ">
<polygon fill="white" stroke="#666666" points="700.62,-177.5 596.12,-177.5 596.12,-147 700.62,-147 700.62,-177.5"/>
<text text-anchor="start" x="604.12" y="-164" font-family="Helvetica,sans-Serif" font-size="10.00">Eigen::SparseMatrix</text>
<text text-anchor="middle" x="648.38" y="-152.75" font-family="Helvetica,sans-Serif" font-size="10.00">::cols</text>
</a>
</g>
</g>
<!-- Node3&#45;&gt;Node4 -->
<g id="edge3_Node000003_Node000004" class="edge">
<title>Node3&#45;&gt;Node4</title>
<g id="a_edge3_Node000003_Node000004"><a xlink:title=" ">
<path fill="none" stroke="#63b8ff" d="M537.83,-195.75C553.02,-191.1 569.86,-185.95 585.68,-181.12"/>
<polygon fill="#63b8ff" stroke="#63b8ff" points="586.36,-184.26 594.9,-177.99 584.31,-177.57 586.36,-184.26"/>
</a>
</g>
</g>
<!-- Node5 -->
<g id="Node000005" class="node">
<title>Node5</title>
<g id="a_Node000005"><a xlink:href="../../dc/dfe/class_eigen_1_1_sparse_matrix.html#a62e61bb861eee306d5b069ce652b5aa5" target="_top" xlink:title=" ">
<polygon fill="white" stroke="#666666" points="700.62,-226.5 596.12,-226.5 596.12,-196 700.62,-196 700.62,-226.5"/>
<text text-anchor="start" x="604.12" y="-213" font-family="Helvetica,sans-Serif" font-size="10.00">Eigen::SparseMatrix</text>
<text text-anchor="middle" x="648.38" y="-201.75" font-family="Helvetica,sans-Serif" font-size="10.00">::rows</text>
</a>
</g>
</g>
<!-- Node3&#45;&gt;Node5 -->
<g id="edge4_Node000003_Node000005" class="edge">
<title>Node3&#45;&gt;Node5</title>
<g id="a_edge4_Node000003_Node000005"><a xlink:title=" ">
<path fill="none" stroke="#63b8ff" d="M537.83,-211.25C552.88,-211.25 569.54,-211.25 585.22,-211.25"/>
<polygon fill="#63b8ff" stroke="#63b8ff" points="584.9,-214.75 594.9,-211.25 584.9,-207.75 584.9,-214.75"/>
</a>
</g>
</g>
<!-- Node7 -->
<g id="Node000007" class="node">
<title>Node7</title>
<g id="a_Node000007"><a xlink:href="../../d7/dc9/namespace_eigen_1_1internal.html#a3b77815ecf2fc57f2aedb98843ee27ca" target="_top" xlink:title=" ">
<polygon fill="white" stroke="#666666" points="542.5,-177.5 429.75,-177.5 429.75,-147 542.5,-147 542.5,-177.5"/>
<text text-anchor="start" x="437.75" y="-164" font-family="Helvetica,sans-Serif" font-size="10.00">Eigen::internal::c</text>
<text text-anchor="middle" x="486.12" y="-152.75" font-family="Helvetica,sans-Serif" font-size="10.00">_to_fortran_numbering</text>
</a>
</g>
</g>
<!-- Node6&#45;&gt;Node7 -->
<g id="edge6_Node000006_Node000007" class="edge">
<title>Node6&#45;&gt;Node7</title>
<g id="a_edge6_Node000006_Node000007"><a xlink:title=" ">
<path fill="none" stroke="#63b8ff" d="M394.07,-162.25C402.03,-162.25 410.36,-162.25 418.61,-162.25"/>
<polygon fill="#63b8ff" stroke="#63b8ff" points="418.37,-165.75 428.37,-162.25 418.37,-158.75 418.37,-165.75"/>
</a>
</g>
</g>
<!-- Node8 -->
<g id="Node000008" class="node">
<title>Node8</title>
<g id="a_Node000008"><a xlink:href="../../dc/dfe/class_eigen_1_1_sparse_matrix.html#af88551f30202341b7cc24cfadabdec5c" target="_top" xlink:title=" ">
<polygon fill="white" stroke="#666666" points="538.38,-128.5 433.88,-128.5 433.88,-98 538.38,-98 538.38,-128.5"/>
<text text-anchor="start" x="441.88" y="-115" font-family="Helvetica,sans-Serif" font-size="10.00">Eigen::SparseMatrix</text>
<text text-anchor="middle" x="486.12" y="-103.75" font-family="Helvetica,sans-Serif" font-size="10.00">::resize</text>
</a>
</g>
</g>
<!-- Node6&#45;&gt;Node8 -->
<g id="edge7_Node000006_Node000008" class="edge">
<title>Node6&#45;&gt;Node8</title>
<g id="a_edge7_Node000006_Node000008"><a xlink:title=" ">
<path fill="none" stroke="#63b8ff" d="M388.53,-146.61C401.58,-142.1 415.98,-137.13 429.58,-132.43"/>
<polygon fill="#63b8ff" stroke="#63b8ff" points="430.48,-135.48 438.79,-128.91 428.19,-128.86 430.48,-135.48"/>
</a>
</g>
</g>
<!-- Node8&#45;&gt;Node4 -->
<g id="edge9_Node000008_Node000004" class="edge">
<title>Node8&#45;&gt;Node4</title>
<g id="a_edge9_Node000008_Node000004"><a xlink:title=" ">
<path fill="none" stroke="#63b8ff" d="M538.27,-128.89C553.37,-133.51 570.06,-138.61 585.75,-143.41"/>
<polygon fill="#63b8ff" stroke="#63b8ff" points="584.31,-146.93 594.89,-146.51 586.35,-140.24 584.31,-146.93"/>
</a>
</g>
</g>
<!-- Node8&#45;&gt;Node5 -->
<g id="edge11_Node000008_Node000005" class="edge">
<title>Node8&#45;&gt;Node5</title>
<g id="a_edge11_Node000008_Node000005"><a xlink:title=" ">
<path fill="none" stroke="#63b8ff" d="M528.13,-128.88C533.21,-131.63 538.14,-134.75 542.5,-138.25 563.31,-154.93 557.07,-170.37 578.5,-186.25 580.86,-188 583.36,-189.64 585.95,-191.17"/>
<polygon fill="#63b8ff" stroke="#63b8ff" points="584.16,-194.71 594.64,-196.26 587.41,-188.51 584.16,-194.71"/>
</a>
</g>
</g>
<!-- Node9 -->
<g id="Node000009" class="node">
<title>Node9</title>
<g id="a_Node000009"><a xlink:href="../../da/d0d/class_eigen_1_1internal_1_1_compressed_storage.html#a827850622e91b53a2fafd0d15fcfcc8f" target="_top" xlink:title=" ">
<polygon fill="white" stroke="#666666" points="718.25,-128.5 578.5,-128.5 578.5,-98 718.25,-98 718.25,-128.5"/>
<text text-anchor="start" x="586.5" y="-115" font-family="Helvetica,sans-Serif" font-size="10.00">Eigen::internal::Compressed</text>
<text text-anchor="middle" x="648.38" y="-103.75" font-family="Helvetica,sans-Serif" font-size="10.00">Storage::clear</text>
</a>
</g>
</g>
<!-- Node8&#45;&gt;Node9 -->
<g id="edge8_Node000008_Node000009" class="edge">
<title>Node8&#45;&gt;Node9</title>
<g id="a_edge8_Node000008_Node000009"><a xlink:title=" ">
<path fill="none" stroke="#63b8ff" d="M538.71,-113.25C547.82,-113.25 557.49,-113.25 567.17,-113.25"/>
<polygon fill="#63b8ff" stroke="#63b8ff" points="567.06,-116.75 577.06,-113.25 567.06,-109.75 567.06,-116.75"/>
</a>
</g>
</g>
<!-- Node10 -->
<g id="Node000010" class="node">
<title>Node10</title>
<g id="a_Node000010"><a xlink:href="../../dc/dfe/class_eigen_1_1_sparse_matrix.html#a4e5f706cfae14d2eaec1ea1e234905f1" target="_top" xlink:title=" ">
<polygon fill="white" stroke="#666666" points="700.62,-79.5 596.12,-79.5 596.12,-49 700.62,-49 700.62,-79.5"/>
<text text-anchor="start" x="604.12" y="-66" font-family="Helvetica,sans-Serif" font-size="10.00">Eigen::SparseMatrix</text>
<text text-anchor="middle" x="648.38" y="-54.75" font-family="Helvetica,sans-Serif" font-size="10.00">::outerSize</text>
</a>
</g>
</g>
<!-- Node8&#45;&gt;Node10 -->
<g id="edge10_Node000008_Node000010" class="edge">
<title>Node8&#45;&gt;Node10</title>
<g id="a_edge10_Node000008_Node000010"><a xlink:title=" ">
<path fill="none" stroke="#63b8ff" d="M538.27,-97.61C553.37,-92.99 570.06,-87.89 585.75,-83.09"/>
<polygon fill="#63b8ff" stroke="#63b8ff" points="586.35,-86.26 594.89,-79.99 584.31,-79.57 586.35,-86.26"/>
</a>
</g>
</g>
<!-- Node11 -->
<g id="Node000011" class="node">
<title>Node11</title>
<g id="a_Node000011"><a xlink:href="../../d7/dc9/namespace_eigen_1_1internal.html#aa03c647c0da4f77a83252fd9bd097ca4" target="_top" xlink:title=" ">
<polygon fill="white" stroke="#666666" points="702.5,-30.5 594.25,-30.5 594.25,0 702.5,0 702.5,-30.5"/>
<text text-anchor="start" x="602.25" y="-17" font-family="Helvetica,sans-Serif" font-size="10.00">Eigen::internal::throw</text>
<text text-anchor="middle" x="648.38" y="-5.75" font-family="Helvetica,sans-Serif" font-size="10.00">_std_bad_alloc</text>
</a>
</g>
</g>
<!-- Node8&#45;&gt;Node11 -->
<g id="edge12_Node000008_Node000011" class="edge">
<title>Node8&#45;&gt;Node11</title>
<g id="a_edge12_Node000008_Node000011"><a xlink:title=" ">
<path fill="none" stroke="#63b8ff" d="M503.11,-97.76C520.48,-81.61 549.63,-56.44 578.5,-40.25 581.55,-38.54 584.74,-36.91 588.01,-35.36"/>
<polygon fill="#63b8ff" stroke="#63b8ff" points="589.23,-38.2 596.96,-30.95 586.4,-31.8 589.23,-38.2"/>
</a>
</g>
</g>
</g>
</svg>

<g id="navigator" transform="translate(0 0)" fill="#404254">
  <rect fill="#f2f5e9" fill-opacity="0.5" stroke="#606060" stroke-width=".5" x="0" y="0" width="60" height="60"/>
  <use id="zoomplus" xlink:href="#zoomPlus" x="17" y="9" onmousedown="handleZoom(evt,'in')"/>
  <use id="zoomminus" xlink:href="#zoomMin" x="42" y="9" onmousedown="handleZoom(evt,'out')"/>
  <use id="reset" xlink:href="#resetDef" x="30" y="36" onmousedown="handleReset()"/>
   <use id="arrowup" xlink:href="#arrowUp" x="0" y="0" onmousedown="handlePan(0,-1)"/>
  <use id="arrowright" xlink:href="#arrowRight" x="0" y="0" onmousedown="handlePan(1,0)"/>
  <use id="arrowdown" xlink:href="#arrowDown" x="0" y="0" onmousedown="handlePan(0,1)"/>
  <use id="arrowleft" xlink:href="#arrowLeft" x="0" y="0" onmousedown="handlePan(-1,0)"/>
</g>
<svg viewBox="0 0 15 15" width="100%" height="30px" preserveAspectRatio="xMaxYMin meet">
 <g id="arrow_out" transform="scale(0.3 0.3)">
  <a xlink:href="class_eigen_1_1_pastix_l_d_l_t_a80904e8c41154d6c0807765436b21e62_cgraph_org.svg" target="_base">
   <rect id="button" ry="5" rx="5" y="6" x="6" height="38" width="38"
        fill="#f2f5e9" fill-opacity="0.5" stroke="#606060" stroke-width="1.0"/>
   <path id="arrow"
     d="M 11.500037,31.436501 C 11.940474,20.09759 22.043105,11.32322 32.158766,21.979434 L 37.068811,17.246167 C 37.068811,17.246167 37.088388,32 37.088388,32 L 22.160133,31.978069 C 22.160133,31.978069 26.997745,27.140456 26.997745,27.140456 C 18.528582,18.264221 13.291696,25.230495 11.500037,31.436501 z"
     style="fill:#404040;"/>
  </a>
 </g>
</svg>

<style type='text/css'>
<![CDATA[
[data-mouse-over-selected='false'] { opacity: 0.7; }
[data-mouse-over-selected='true']  { opacity: 1.0; }
]]>
</style>
<script type="application/ecmascript"><![CDATA[
document.addEventListener('DOMContentLoaded', (event) => {
  highlightEdges();
  highlightAdjacentNodes();
});
]]></script>
</svg>
