<?xml version="1.0" encoding="UTF-8" standalone="no"?>
<!DOCTYPE svg PUBLIC "-//W3C//DTD SVG 1.1//EN"
 "http://www.w3.org/Graphics/SVG/1.1/DTD/svg11.dtd">
<!-- Generated by graphviz version 8.0.5 (20230430.1635)
 -->
<!-- Title: src/libigl/igl/copyleft/quadprog.cpp Pages: 1 -->
<svg width="127pt" height="394pt"
 viewBox="0.00 0.00 126.75 393.50" xmlns="http://www.w3.org/2000/svg" xmlns:xlink="http://www.w3.org/1999/xlink">

<svg id="main" version="1.1" xmlns="http://www.w3.org/2000/svg" xmlns:xlink="http://www.w3.org/1999/xlink" xml:space="preserve" onload="init(evt)">
<style type="text/css"><![CDATA[
.node, .edge {opacity: 0.7;}
.node.selected, .edge.selected {opacity: 1;}
.edge:hover path { stroke: red; }
.edge:hover polygon { stroke: red; fill: red; }
]]></style>
<script type="application/ecmascript" xlink:href="../../svg.min.js"/>
<svg id="graph" class="graph">
<g id="graph0" class="graph" transform="scale(1 1) rotate(0) translate(4 389.5)">
<title>src/libigl/igl/copyleft/quadprog.cpp</title>
<!-- Node1 -->
<g id="Node000001" class="node">
<title>Node1</title>
<g id="a_Node000001"><a xlink:title=" ">
<polygon fill="#999999" stroke="#666666" points="110.5,-385.5 8.25,-385.5 8.25,-355 110.5,-355 110.5,-385.5"/>
<text text-anchor="start" x="16.25" y="-372" font-family="Helvetica,sans-Serif" font-size="10.00">src/libigl/igl/copyleft</text>
<text text-anchor="middle" x="59.38" y="-360.75" font-family="Helvetica,sans-Serif" font-size="10.00">/quadprog.cpp</text>
</a>
</g>
</g>
<!-- Node2 -->
<g id="Node000002" class="node">
<title>Node2</title>
<g id="a_Node000002"><a xlink:href="../../da/dbe/quadprog_8h.html" target="_top" xlink:title=" ">
<polygon fill="white" stroke="#666666" points="110.5,-319 8.25,-319 8.25,-288.5 110.5,-288.5 110.5,-319"/>
<text text-anchor="start" x="16.25" y="-305.5" font-family="Helvetica,sans-Serif" font-size="10.00">src/libigl/igl/copyleft</text>
<text text-anchor="middle" x="59.38" y="-294.25" font-family="Helvetica,sans-Serif" font-size="10.00">/quadprog.h</text>
</a>
</g>
</g>
<!-- Node1&#45;&gt;Node2 -->
<g id="edge1_Node000001_Node000002" class="edge">
<title>Node1&#45;&gt;Node2</title>
<g id="a_edge1_Node000001_Node000002"><a xlink:title=" ">
<path fill="none" stroke="#63b8ff" d="M52.76,-343.88C52.42,-335.55 52.71,-326.58 53.62,-319.33"/>
<polygon fill="#63b8ff" stroke="#63b8ff" points="49.34,-343.92 53.61,-353.61 56.31,-343.37 49.34,-343.92"/>
</a>
</g>
</g>
<!-- Node2&#45;&gt;Node1 -->
<g id="edge8_Node000002_Node000001" class="edge">
<title>Node2&#45;&gt;Node1</title>
<g id="a_edge8_Node000002_Node000001"><a xlink:title=" ">
<path fill="none" stroke="#63b8ff" d="M65.98,-330.06C66.33,-338.38 66.04,-347.36 65.14,-354.61"/>
<polygon fill="#63b8ff" stroke="#63b8ff" points="69.41,-330.02 65.13,-320.33 62.43,-330.57 69.41,-330.02"/>
</a>
</g>
</g>
<!-- Node3 -->
<g id="Node000003" class="node">
<title>Node3</title>
<g id="a_Node000003"><a xlink:href="../../da/d27/progressive__hulls__cost__and__placement_8cpp.html" target="_top" xlink:title=" ">
<polygon fill="white" stroke="#666666" points="118.75,-252.5 0,-252.5 0,-210.75 118.75,-210.75 118.75,-252.5"/>
<text text-anchor="start" x="8" y="-239" font-family="Helvetica,sans-Serif" font-size="10.00">src/libigl/igl/copyleft</text>
<text text-anchor="start" x="8" y="-227.75" font-family="Helvetica,sans-Serif" font-size="10.00">/progressive_hulls_cost</text>
<text text-anchor="middle" x="59.38" y="-216.5" font-family="Helvetica,sans-Serif" font-size="10.00">_and_placement.cpp</text>
</a>
</g>
</g>
<!-- Node2&#45;&gt;Node3 -->
<g id="edge2_Node000002_Node000003" class="edge">
<title>Node2&#45;&gt;Node3</title>
<g id="a_edge2_Node000002_Node000003"><a xlink:title=" ">
<path fill="none" stroke="#63b8ff" d="M59.38,-277.25C59.38,-269.27 59.38,-260.57 59.38,-252.99"/>
<polygon fill="#63b8ff" stroke="#63b8ff" points="55.88,-277.22 59.38,-287.22 62.88,-277.22 55.88,-277.22"/>
</a>
</g>
</g>
<!-- Node4 -->
<g id="Node000004" class="node">
<title>Node4</title>
<g id="a_Node000004"><a xlink:href="../../d3/d91/progressive__hulls__cost__and__placement_8h.html" target="_top" xlink:title=" ">
<polygon fill="white" stroke="#666666" points="118.75,-174.75 0,-174.75 0,-133 118.75,-133 118.75,-174.75"/>
<text text-anchor="start" x="8" y="-161.25" font-family="Helvetica,sans-Serif" font-size="10.00">src/libigl/igl/copyleft</text>
<text text-anchor="start" x="8" y="-150" font-family="Helvetica,sans-Serif" font-size="10.00">/progressive_hulls_cost</text>
<text text-anchor="middle" x="59.38" y="-138.75" font-family="Helvetica,sans-Serif" font-size="10.00">_and_placement.h</text>
</a>
</g>
</g>
<!-- Node3&#45;&gt;Node4 -->
<g id="edge3_Node000003_Node000004" class="edge">
<title>Node3&#45;&gt;Node4</title>
<g id="a_edge3_Node000003_Node000004"><a xlink:title=" ">
<path fill="none" stroke="#63b8ff" d="M52.72,-199.56C52.48,-191.36 52.68,-182.71 53.31,-175.23"/>
<polygon fill="#63b8ff" stroke="#63b8ff" points="49.27,-199.53 53.32,-209.33 56.26,-199.15 49.27,-199.53"/>
</a>
</g>
</g>
<!-- Node4&#45;&gt;Node3 -->
<g id="edge7_Node000004_Node000003" class="edge">
<title>Node4&#45;&gt;Node3</title>
<g id="a_edge7_Node000004_Node000003"><a xlink:title=" ">
<path fill="none" stroke="#63b8ff" d="M66.03,-186C66.26,-194.21 66.07,-202.85 65.43,-210.33"/>
<polygon fill="#63b8ff" stroke="#63b8ff" points="69.48,-186.02 65.44,-176.23 62.49,-186.41 69.48,-186.02"/>
</a>
</g>
</g>
<!-- Node5 -->
<g id="Node000005" class="node">
<title>Node5</title>
<g id="a_Node000005"><a xlink:href="../../d0/d8c/progressive__hulls_8cpp.html" target="_top" xlink:title=" ">
<polygon fill="white" stroke="#666666" points="116.12,-97 2.62,-97 2.62,-66.5 116.12,-66.5 116.12,-97"/>
<text text-anchor="start" x="10.62" y="-83.5" font-family="Helvetica,sans-Serif" font-size="10.00">src/libigl/igl/copyleft</text>
<text text-anchor="middle" x="59.38" y="-72.25" font-family="Helvetica,sans-Serif" font-size="10.00">/progressive_hulls.cpp</text>
</a>
</g>
</g>
<!-- Node4&#45;&gt;Node5 -->
<g id="edge4_Node000004_Node000005" class="edge">
<title>Node4&#45;&gt;Node5</title>
<g id="a_edge4_Node000004_Node000005"><a xlink:title=" ">
<path fill="none" stroke="#63b8ff" d="M59.38,-121.71C59.38,-113.17 59.38,-104.31 59.38,-97.2"/>
<polygon fill="#63b8ff" stroke="#63b8ff" points="55.88,-121.59 59.38,-131.59 62.88,-121.59 55.88,-121.59"/>
</a>
</g>
</g>
<!-- Node6 -->
<g id="Node000006" class="node">
<title>Node6</title>
<g id="a_Node000006"><a xlink:href="../../d2/d33/progressive__hulls_8h.html" target="_top" xlink:title=" ">
<polygon fill="white" stroke="#666666" points="110.88,-30.5 7.88,-30.5 7.88,0 110.88,0 110.88,-30.5"/>
<text text-anchor="start" x="15.88" y="-17" font-family="Helvetica,sans-Serif" font-size="10.00">src/libigl/igl/copyleft</text>
<text text-anchor="middle" x="59.38" y="-5.75" font-family="Helvetica,sans-Serif" font-size="10.00">/progressive_hulls.h</text>
</a>
</g>
</g>
<!-- Node5&#45;&gt;Node6 -->
<g id="edge5_Node000005_Node000006" class="edge">
<title>Node5&#45;&gt;Node6</title>
<g id="a_edge5_Node000005_Node000006"><a xlink:title=" ">
<path fill="none" stroke="#63b8ff" d="M52.76,-55.38C52.42,-47.05 52.71,-38.08 53.62,-30.83"/>
<polygon fill="#63b8ff" stroke="#63b8ff" points="49.34,-55.42 53.61,-65.11 56.31,-54.87 49.34,-55.42"/>
</a>
</g>
</g>
<!-- Node6&#45;&gt;Node5 -->
<g id="edge6_Node000006_Node000005" class="edge">
<title>Node6&#45;&gt;Node5</title>
<g id="a_edge6_Node000006_Node000005"><a xlink:title=" ">
<path fill="none" stroke="#63b8ff" d="M65.98,-41.56C66.33,-49.88 66.04,-58.86 65.14,-66.11"/>
<polygon fill="#63b8ff" stroke="#63b8ff" points="69.41,-41.52 65.13,-31.83 62.43,-42.07 69.41,-41.52"/>
</a>
</g>
</g>
</g>
</svg>
</svg>

<style type='text/css'>
<![CDATA[
[data-mouse-over-selected='false'] { opacity: 0.7; }
[data-mouse-over-selected='true']  { opacity: 1.0; }
]]>
</style>
<script type="application/ecmascript"><![CDATA[
document.addEventListener('DOMContentLoaded', (event) => {
  highlightEdges();
  highlightAdjacentNodes();
});
]]></script>
</svg>
