<?xml version="1.0" encoding="UTF-8" standalone="no"?>
<!DOCTYPE svg PUBLIC "-//W3C//DTD SVG 1.1//EN"
 "http://www.w3.org/Graphics/SVG/1.1/DTD/svg11.dtd">
<!-- Generated by graphviz version 8.0.5 (20230430.1635)
 -->
<!-- Title: Slic3r::ModelVolume::set_type Pages: 1 -->
<!--zoomable 310 -->

<svg id="main" version="1.1" xmlns="http://www.w3.org/2000/svg" xmlns:xlink="http://www.w3.org/1999/xlink" xml:space="preserve" onload="init(evt)">
<style type="text/css"><![CDATA[
.node, .edge {opacity: 0.7;}
.node.selected, .edge.selected {opacity: 1;}
.edge:hover path { stroke: red; }
.edge:hover polygon { stroke: red; fill: red; }
]]></style>

<defs>
  <circle id="rim" cx="0" cy="0" r="7"/>
  <circle id="rim2" cx="0" cy="0" r="3.5"/>
  <g id="zoomPlus">
    <use xlink:href="#rim" fill="#404040"><set attributeName="fill" to="#808080" begin="zoomplus.mouseover" end="zoomplus.mouseout"/></use>
    <path d="M-4,0h8M0,-4v8" fill="none" stroke="white" stroke-width="1.5" pointer-events="none"/>
  </g>
  <g id="zoomMin">
    <use xlink:href="#rim" fill="#404040"><set attributeName="fill" to="#808080" begin="zoomminus.mouseover" end="zoomminus.mouseout"/></use>
    <path d="M-4,0h8" fill="none" stroke="white" stroke-width="1.5" pointer-events="none"/>
  </g>
  <g id="arrowUp" transform="translate(30 24)">
    <use xlink:href="#rim"/>
    <path pointer-events="none" fill="none" stroke="white" stroke-width="1.5" d="M0,-3.0v7 M-2.5,-0.5L0,-3.0L2.5,-0.5"/>
  </g>
  <g id="arrowRight" transform="rotate(90) translate(36 -43)">
    <use xlink:href="#rim"/>
    <path pointer-events="none" fill="none" stroke="white" stroke-width="1.5" d="M0,-3.0v7 M-2.5,-0.5L0,-3.0L2.5,-0.5"/>
  </g>
  <g id="arrowDown" transform="rotate(180) translate(-30 -48)">
    <use xlink:href="#rim"/>
    <path pointer-events="none" fill="none" stroke="white" stroke-width="1.5" d="M0,-3.0v7 M-2.5,-0.5L0,-3.0L2.5,-0.5"/>
  </g>
  <g id="arrowLeft" transform="rotate(270) translate(-36 17)">
    <use xlink:href="#rim"/>
    <path pointer-events="none" fill="none" stroke="white" stroke-width="1.5" d="M0,-3.0v7 M-2.5,-0.5L0,-3.0L2.5,-0.5"/>
  </g>
  <g id="resetDef">
    <use xlink:href="#rim2" fill="#404040"><set attributeName="fill" to="#808080" begin="reset.mouseover" end="reset.mouseout"/></use>
  </g>
</defs>
<script type="application/ecmascript">
var viewWidth = 1224;
var viewHeight = 310;
var sectionId = 'dynsection-94';
</script>
<script type="application/ecmascript" xlink:href="../../svg.min.js"/>
<svg id="graph" class="graph">
<g id="viewport">
<title>Slic3r::ModelVolume::set_type</title>
<!-- Node1 -->
<g id="Node000001" class="node">
<title>Node1</title>
<g id="a_Node000001"><a xlink:title=" ">
<polygon fill="#999999" stroke="#666666" points="1216.25,-154.5 1110.25,-154.5 1110.25,-124 1216.25,-124 1216.25,-154.5"/>
<text text-anchor="start" x="1118.25" y="-141" font-family="Helvetica,sans-Serif" font-size="10.00">Slic3r::ModelVolume</text>
<text text-anchor="middle" x="1163.25" y="-129.75" font-family="Helvetica,sans-Serif" font-size="10.00">::set_type</text>
</a>
</g>
</g>
<!-- Node2 -->
<g id="Node000002" class="node">
<title>Node2</title>
<g id="a_Node000002"><a xlink:href="../../d0/d23/class_slic3r_1_1_model_object.html#ab7f51396a95946a9ccf26990d8dbc451" target="_top" xlink:title=" ">
<polygon fill="white" stroke="#666666" points="1051,-301.5 949.5,-301.5 949.5,-271 1051,-271 1051,-301.5"/>
<text text-anchor="start" x="957.5" y="-288" font-family="Helvetica,sans-Serif" font-size="10.00">Slic3r::ModelObject</text>
<text text-anchor="middle" x="1000.25" y="-276.75" font-family="Helvetica,sans-Serif" font-size="10.00">::add_volume</text>
</a>
</g>
</g>
<!-- Node1&#45;&gt;Node2 -->
<g id="edge1_Node000001_Node000002" class="edge">
<title>Node1&#45;&gt;Node2</title>
<g id="a_edge1_Node000001_Node000002"><a xlink:title=" ">
<path fill="none" stroke="#63b8ff" d="M1150.13,-164.4C1135.68,-191.9 1109.04,-235.46 1074.25,-261.25 1067.36,-266.36 1059.36,-270.47 1051.22,-273.77"/>
<polygon fill="#63b8ff" stroke="#63b8ff" points="1153.64,-166.22 1155.07,-155.72 1147.41,-163.04 1153.64,-166.22"/>
</a>
</g>
</g>
<!-- Node3 -->
<g id="Node000003" class="node">
<title>Node3</title>
<g id="a_Node000003"><a xlink:href="../../d0/d23/class_slic3r_1_1_model_object.html#a9af8b453e4f4cb0a2ebaeed8485d98b9" target="_top" xlink:title=" ">
<polygon fill="white" stroke="#666666" points="1051,-252.5 949.5,-252.5 949.5,-222 1051,-222 1051,-252.5"/>
<text text-anchor="start" x="957.5" y="-239" font-family="Helvetica,sans-Serif" font-size="10.00">Slic3r::ModelObject</text>
<text text-anchor="middle" x="1000.25" y="-227.75" font-family="Helvetica,sans-Serif" font-size="10.00">::convert_units</text>
</a>
</g>
</g>
<!-- Node1&#45;&gt;Node3 -->
<g id="edge2_Node000001_Node000003" class="edge">
<title>Node1&#45;&gt;Node3</title>
<g id="a_edge2_Node000001_Node000003"><a xlink:title=" ">
<path fill="none" stroke="#63b8ff" d="M1139.38,-162.23C1122.56,-178.07 1098.5,-198.65 1074.25,-212.25 1067.12,-216.25 1059.25,-219.76 1051.39,-222.79"/>
<polygon fill="#63b8ff" stroke="#63b8ff" points="1141.24,-165.34 1146.02,-155.89 1136.38,-160.29 1141.24,-165.34"/>
</a>
</g>
</g>
<!-- Node4 -->
<g id="Node000004" class="node">
<title>Node4</title>
<g id="a_Node000004"><a xlink:href="../../dd/df1/class_slic3r_1_1_g_u_i_1_1_g_l_gizmo_emboss.html#aecc71dc76e0faa47b2f868fe3e3a911b" target="_top" xlink:title=" ">
<polygon fill="white" stroke="#666666" points="1074.25,-203.5 926.25,-203.5 926.25,-173 1074.25,-173 1074.25,-203.5"/>
<text text-anchor="start" x="934.25" y="-190" font-family="Helvetica,sans-Serif" font-size="10.00">Slic3r::GUI::GLGizmoEmboss</text>
<text text-anchor="middle" x="1000.25" y="-178.75" font-family="Helvetica,sans-Serif" font-size="10.00">::draw_model_type</text>
</a>
</g>
</g>
<!-- Node1&#45;&gt;Node4 -->
<g id="edge3_Node000001_Node000004" class="edge">
<title>Node1&#45;&gt;Node4</title>
<g id="a_edge3_Node000001_Node000004"><a xlink:title=" ">
<path fill="none" stroke="#63b8ff" d="M1100.69,-157.98C1084.94,-162.78 1068.17,-167.88 1052.97,-172.51"/>
<polygon fill="#63b8ff" stroke="#63b8ff" points="1101.32,-161.15 1109.87,-154.89 1099.28,-154.45 1101.32,-161.15"/>
</a>
</g>
</g>
<!-- Node7 -->
<g id="Node000007" class="node">
<title>Node7</title>
<g id="a_Node000007"><a xlink:href="../../db/dec/struct_slic3r_1_1_a_m_f_parser_context.html#a1547d6c4b56997e745dfc71c3111ba93" target="_top" xlink:title=" ">
<polygon fill="white" stroke="#666666" points="1065.62,-154.5 934.88,-154.5 934.88,-124 1065.62,-124 1065.62,-154.5"/>
<text text-anchor="start" x="942.88" y="-141" font-family="Helvetica,sans-Serif" font-size="10.00">Slic3r::AMFParserContext</text>
<text text-anchor="middle" x="1000.25" y="-129.75" font-family="Helvetica,sans-Serif" font-size="10.00">::endElement</text>
</a>
</g>
</g>
<!-- Node1&#45;&gt;Node7 -->
<g id="edge6_Node000001_Node000007" class="edge">
<title>Node1&#45;&gt;Node7</title>
<g id="a_edge6_Node000001_Node000007"><a xlink:title=" ">
<path fill="none" stroke="#63b8ff" d="M1099.23,-139.25C1088.29,-139.25 1076.91,-139.25 1065.93,-139.25"/>
<polygon fill="#63b8ff" stroke="#63b8ff" points="1098.98,-142.75 1108.98,-139.25 1098.98,-135.75 1098.98,-142.75"/>
</a>
</g>
</g>
<!-- Node31 -->
<g id="Node000031" class="node">
<title>Node31</title>
<g id="a_Node000031"><a xlink:href="../../d4/d88/struct_slic3r_1_1_g_u_i_1_1_plater_1_1priv.html#a04e848e0c2988328a4624e436bab4d46" target="_top" xlink:title=" ">
<polygon fill="white" stroke="#666666" points="118,-122.5 0,-122.5 0,-92 118,-92 118,-122.5"/>
<text text-anchor="start" x="8" y="-109" font-family="Helvetica,sans-Serif" font-size="10.00">Slic3r::GUI::Plater</text>
<text text-anchor="middle" x="59" y="-97.75" font-family="Helvetica,sans-Serif" font-size="10.00">::priv::reload_from_disk</text>
</a>
</g>
</g>
<!-- Node1&#45;&gt;Node31 -->
<g id="edge21_Node000001_Node000031" class="edge">
<title>Node1&#45;&gt;Node31</title>
<g id="a_edge21_Node000001_Node000031"><a xlink:title=" ">
<path fill="none" stroke="#63b8ff" d="M1128.05,-118.38C1112.21,-109.62 1092.81,-100.11 1074.25,-94.25 964.27,-59.51 932.59,-58.25 817.25,-58.25 817.25,-58.25 817.25,-58.25 349.88,-58.25 262.41,-58.25 239.67,-59.63 154,-77.25 136.89,-80.77 118.49,-86.25 102.54,-91.56"/>
<polygon fill="#63b8ff" stroke="#63b8ff" points="1125.99,-121.81 1136.41,-123.71 1129.45,-115.72 1125.99,-121.81"/>
</a>
</g>
</g>
<!-- Node32 -->
<g id="Node000032" class="node">
<title>Node32</title>
<g id="a_Node000032"><a xlink:href="../../d4/d88/struct_slic3r_1_1_g_u_i_1_1_plater_1_1priv.html#a4a7374b32894b878a60d507277519b3d" target="_top" xlink:title=" ">
<polygon fill="white" stroke="#666666" points="266,-128.12 154,-128.12 154,-86.38 266,-86.38 266,-128.12"/>
<text text-anchor="start" x="162" y="-114.62" font-family="Helvetica,sans-Serif" font-size="10.00">Slic3r::GUI::Plater</text>
<text text-anchor="start" x="162" y="-103.38" font-family="Helvetica,sans-Serif" font-size="10.00">::priv::replace_volume</text>
<text text-anchor="middle" x="210" y="-92.12" font-family="Helvetica,sans-Serif" font-size="10.00">_with_stl</text>
</a>
</g>
</g>
<!-- Node1&#45;&gt;Node32 -->
<g id="edge22_Node000001_Node000032" class="edge">
<title>Node1&#45;&gt;Node32</title>
<g id="a_edge22_Node000001_Node000032"><a xlink:title=" ">
<path fill="none" stroke="#63b8ff" d="M1100.78,-120.88C1091.94,-118.7 1082.9,-116.74 1074.25,-115.25 961.37,-95.87 931.78,-96.25 817.25,-96.25 817.25,-96.25 817.25,-96.25 478,-96.25 404.81,-96.25 320.44,-100.43 266.46,-103.63"/>
<polygon fill="#63b8ff" stroke="#63b8ff" points="1099.88,-124.51 1110.44,-123.61 1101.62,-117.73 1099.88,-124.51"/>
</a>
</g>
</g>
<!-- Node36 -->
<g id="Node000036" class="node">
<title>Node36</title>
<g id="a_Node000036"><a xlink:href="../../d0/d23/class_slic3r_1_1_model_object.html#a826a314a60f8eca5cc0d239ef3c930ef" target="_top" xlink:title=" ">
<polygon fill="white" stroke="#666666" points="1061.88,-30.5 938.62,-30.5 938.62,0 1061.88,0 1061.88,-30.5"/>
<text text-anchor="start" x="946.62" y="-17" font-family="Helvetica,sans-Serif" font-size="10.00">Slic3r::ModelObject</text>
<text text-anchor="middle" x="1000.25" y="-5.75" font-family="Helvetica,sans-Serif" font-size="10.00">::process_connector_cut</text>
</a>
</g>
</g>
<!-- Node1&#45;&gt;Node36 -->
<g id="edge20_Node000001_Node000036" class="edge">
<title>Node1&#45;&gt;Node36</title>
<g id="a_edge20_Node000001_Node000036"><a xlink:title=" ">
<path fill="none" stroke="#63b8ff" d="M1144.85,-115.06C1128.62,-93.96 1102.68,-63.74 1074.25,-44.25 1066.71,-39.08 1058.12,-34.64 1049.54,-30.88"/>
<polygon fill="#63b8ff" stroke="#63b8ff" points="1142.59,-116.88 1151.4,-122.77 1148.19,-112.67 1142.59,-116.88"/>
</a>
</g>
</g>
<!-- Node5 -->
<g id="Node000005" class="node">
<title>Node5</title>
<g id="a_Node000005"><a xlink:href="../../dd/df1/class_slic3r_1_1_g_u_i_1_1_g_l_gizmo_emboss.html#a6dc1143a516dc36420fe279e09c55b40" target="_top" xlink:title=" ">
<polygon fill="white" stroke="#666666" points="890.25,-289.5 742.25,-289.5 742.25,-259 890.25,-259 890.25,-289.5"/>
<text text-anchor="start" x="750.25" y="-276" font-family="Helvetica,sans-Serif" font-size="10.00">Slic3r::GUI::GLGizmoEmboss</text>
<text text-anchor="middle" x="816.25" y="-264.75" font-family="Helvetica,sans-Serif" font-size="10.00">::draw_window</text>
</a>
</g>
</g>
<!-- Node4&#45;&gt;Node5 -->
<g id="edge4_Node000004_Node000005" class="edge">
<title>Node4&#45;&gt;Node5</title>
<g id="a_edge4_Node000004_Node000005"><a xlink:title=" ">
<path fill="none" stroke="#63b8ff" d="M934.86,-208.4C931.89,-209.92 929,-211.53 926.25,-213.25 907.05,-225.22 909.45,-237.28 890.25,-249.25 884.57,-252.79 878.32,-255.91 871.94,-258.62"/>
<polygon fill="#63b8ff" stroke="#63b8ff" points="935.97,-211.27 943.56,-203.88 933.01,-204.93 935.97,-211.27"/>
</a>
</g>
</g>
<!-- Node6 -->
<g id="Node000006" class="node">
<title>Node6</title>
<g id="a_Node000006"><a xlink:href="../../dd/df1/class_slic3r_1_1_g_u_i_1_1_g_l_gizmo_emboss.html#adcf76968843c4bbb8646d4a51a04867c" target="_top" xlink:title=" ">
<polygon fill="white" stroke="#666666" points="706.25,-289.5 558.25,-289.5 558.25,-259 706.25,-259 706.25,-289.5"/>
<text text-anchor="start" x="566.25" y="-276" font-family="Helvetica,sans-Serif" font-size="10.00">Slic3r::GUI::GLGizmoEmboss</text>
<text text-anchor="middle" x="632.25" y="-264.75" font-family="Helvetica,sans-Serif" font-size="10.00">::on_render_input_window</text>
</a>
</g>
</g>
<!-- Node5&#45;&gt;Node6 -->
<g id="edge5_Node000005_Node000006" class="edge">
<title>Node5&#45;&gt;Node6</title>
<g id="a_edge5_Node000005_Node000006"><a xlink:title=" ">
<path fill="none" stroke="#63b8ff" d="M731.27,-274.25C723.04,-274.25 714.74,-274.25 706.64,-274.25"/>
<polygon fill="#63b8ff" stroke="#63b8ff" points="731.01,-277.75 741.01,-274.25 731.01,-270.75 731.01,-277.75"/>
</a>
</g>
</g>
<!-- Node8 -->
<g id="Node000008" class="node">
<title>Node8</title>
<g id="a_Node000008"><a xlink:href="../../db/dec/struct_slic3r_1_1_a_m_f_parser_context.html#af91744cf126d0afff5961ff1d2d72ec9" target="_top" xlink:title=" ">
<polygon fill="white" stroke="#666666" points="881.62,-240.5 750.88,-240.5 750.88,-210 881.62,-210 881.62,-240.5"/>
<text text-anchor="start" x="758.88" y="-227" font-family="Helvetica,sans-Serif" font-size="10.00">Slic3r::AMFParserContext</text>
<text text-anchor="middle" x="816.25" y="-215.75" font-family="Helvetica,sans-Serif" font-size="10.00">::endElement</text>
</a>
</g>
</g>
<!-- Node7&#45;&gt;Node8 -->
<g id="edge7_Node000007_Node000008" class="edge">
<title>Node7&#45;&gt;Node8</title>
<g id="a_edge7_Node000007_Node000008"><a xlink:title=" ">
<path fill="none" stroke="#63b8ff" d="M935.64,-159.28C932.41,-160.84 929.26,-162.49 926.25,-164.25 907.76,-175.04 908.47,-185.02 890.25,-196.25 882.12,-201.26 872.98,-205.7 863.99,-209.5"/>
<polygon fill="#63b8ff" stroke="#63b8ff" points="936.81,-162.14 944.52,-154.89 933.96,-155.75 936.81,-162.14"/>
</a>
</g>
</g>
<!-- Node9 -->
<g id="Node000009" class="node">
<title>Node9</title>
<g id="a_Node000009"><a xlink:href="../../de/db8/namespace_slic3r.html#a1fa1196835bb5344c9cd489c98ae7f4c" target="_top" xlink:title=" ">
<polygon fill="white" stroke="#666666" points="870.38,-154.5 762.12,-154.5 762.12,-124 870.38,-124 870.38,-154.5"/>
<text text-anchor="start" x="770.12" y="-141" font-family="Helvetica,sans-Serif" font-size="10.00">Slic3r::extract_model</text>
<text text-anchor="middle" x="816.25" y="-129.75" font-family="Helvetica,sans-Serif" font-size="10.00">_from_archive</text>
</a>
</g>
</g>
<!-- Node7&#45;&gt;Node9 -->
<g id="edge8_Node000007_Node000009" class="edge">
<title>Node7&#45;&gt;Node9</title>
<g id="a_edge8_Node000007_Node000009"><a xlink:title=" ">
<path fill="none" stroke="#63b8ff" d="M923.62,-139.25C905.81,-139.25 887.2,-139.25 870.62,-139.25"/>
<polygon fill="#63b8ff" stroke="#63b8ff" points="923.57,-142.75 933.57,-139.25 923.57,-135.75 923.57,-142.75"/>
</a>
</g>
</g>
<!-- Node35 -->
<g id="Node000035" class="node">
<title>Node35</title>
<g id="a_Node000035"><a xlink:href="../../de/db8/namespace_slic3r.html#a06119c572365195cf1475bfddc1672c2" target="_top" xlink:title=" ">
<polygon fill="white" stroke="#666666" points="684.5,-201.88 580,-201.88 580,-182.62 684.5,-182.62 684.5,-201.88"/>
<text text-anchor="middle" x="632.25" y="-188.38" font-family="Helvetica,sans-Serif" font-size="10.00">Slic3r::load_amf_file</text>
</a>
</g>
</g>
<!-- Node7&#45;&gt;Node35 -->
<g id="edge18_Node000007_Node000035" class="edge">
<title>Node7&#45;&gt;Node35</title>
<g id="a_edge18_Node000007_Node000035"><a xlink:title=" ">
<path fill="none" stroke="#63b8ff" d="M923.93,-156.9C912.68,-159.23 901.19,-161.43 890.25,-163.25 819.38,-175.02 736.71,-183.4 684.67,-188.04"/>
<polygon fill="#63b8ff" stroke="#63b8ff" points="924.56,-160.14 933.62,-154.64 923.12,-153.29 924.56,-160.14"/>
</a>
</g>
</g>
<!-- Node10 -->
<g id="Node000010" class="node">
<title>Node10</title>
<g id="a_Node000010"><a xlink:href="../../de/db8/namespace_slic3r.html#a455465e84870c95ed2bdf42e3bf2fa90" target="_top" xlink:title=" ">
<polygon fill="white" stroke="#666666" points="693.88,-146.88 570.62,-146.88 570.62,-127.62 693.88,-127.62 693.88,-146.88"/>
<text text-anchor="middle" x="632.25" y="-133.38" font-family="Helvetica,sans-Serif" font-size="10.00">Slic3r::load_amf_archive</text>
</a>
</g>
</g>
<!-- Node9&#45;&gt;Node10 -->
<g id="edge9_Node000009_Node000010" class="edge">
<title>Node9&#45;&gt;Node10</title>
<g id="a_edge9_Node000009_Node000010"><a xlink:title=" ">
<path fill="none" stroke="#63b8ff" d="M750.71,-138.54C732.31,-138.34 712.33,-138.12 694.15,-137.92"/>
<polygon fill="#63b8ff" stroke="#63b8ff" points="750.59,-142.05 760.63,-138.66 750.67,-135.05 750.59,-142.05"/>
</a>
</g>
</g>
<!-- Node10&#45;&gt;Node10 -->
<g id="edge17_Node000010_Node000010" class="edge">
<title>Node10&#45;&gt;Node10</title>
<g id="a_edge17_Node000010_Node000010"><a xlink:title=" ">
<path fill="none" stroke="#63b8ff" d="M660.2,-157.26C657.56,-161.67 648.24,-164.88 632.25,-164.88 605.31,-164.88 597.31,-155.77 608.26,-147.16"/>
<polygon fill="#63b8ff" stroke="#63b8ff" points="663.15,-156.19 656.24,-148.16 656.64,-158.75 663.15,-156.19"/>
</a>
</g>
</g>
<!-- Node11 -->
<g id="Node000011" class="node">
<title>Node11</title>
<g id="a_Node000011"><a xlink:href="../../de/db8/namespace_slic3r.html#acc9115b69b23cab46ff06d717ac7a9c4" target="_top" xlink:title=" ">
<polygon fill="white" stroke="#666666" points="522.25,-178.88 435.75,-178.88 435.75,-159.62 522.25,-159.62 522.25,-178.88"/>
<text text-anchor="middle" x="479" y="-165.38" font-family="Helvetica,sans-Serif" font-size="10.00">Slic3r::load_amf</text>
</a>
</g>
</g>
<!-- Node10&#45;&gt;Node11 -->
<g id="edge10_Node000010_Node000011" class="edge">
<title>Node10&#45;&gt;Node11</title>
<g id="a_edge10_Node000010_Node000011"><a xlink:title=" ">
<path fill="none" stroke="#63b8ff" d="M572.66,-149.65C556.01,-153.17 538.2,-156.94 522.69,-160.22"/>
<polygon fill="#63b8ff" stroke="#63b8ff" points="573.33,-152.87 582.39,-147.38 571.89,-146.02 573.33,-152.87"/>
</a>
</g>
</g>
<!-- Node11&#45;&gt;Node11 -->
<g id="edge11_Node000011_Node000011" class="edge">
<title>Node11&#45;&gt;Node11</title>
<g id="a_edge11_Node000011_Node000011"><a xlink:title=" ">
<path fill="none" stroke="#63b8ff" d="M502.18,-189.6C499.75,-193.83 492.02,-196.88 479,-196.88 456.48,-196.88 449.79,-187.77 458.94,-179.16"/>
<polygon fill="#63b8ff" stroke="#63b8ff" points="505.28,-188.74 499.06,-180.16 498.57,-190.75 505.28,-188.74"/>
</a>
</g>
</g>
<!-- Node12 -->
<g id="Node000012" class="node">
<title>Node12</title>
<g id="a_Node000012"><a xlink:href="../../dd/d8d/class_slic3r_1_1_model.html#a20f742a7cf82bca1323703a1107e920c" target="_top" xlink:title=" ">
<polygon fill="#fff0f0" stroke="red" points="399.75,-211.5 302,-211.5 302,-181 399.75,-181 399.75,-211.5"/>
<text text-anchor="start" x="310" y="-198" font-family="Helvetica,sans-Serif" font-size="10.00">Slic3r::Model::read</text>
<text text-anchor="middle" x="350.88" y="-186.75" font-family="Helvetica,sans-Serif" font-size="10.00">_from_archive</text>
</a>
</g>
</g>
<!-- Node11&#45;&gt;Node12 -->
<g id="edge12_Node000011_Node000012" class="edge">
<title>Node11&#45;&gt;Node12</title>
<g id="a_edge12_Node000011_Node000012"><a xlink:title=" ">
<path fill="none" stroke="#63b8ff" d="M424.75,-180.65C416.6,-182.39 408.22,-184.19 400.18,-185.91"/>
<polygon fill="#63b8ff" stroke="#63b8ff" points="425.25,-183.91 434.3,-178.39 423.79,-177.06 425.25,-183.91"/>
</a>
</g>
</g>
<!-- Node14 -->
<g id="Node000014" class="node">
<title>Node14</title>
<g id="a_Node000014"><a xlink:href="../../dd/d8d/class_slic3r_1_1_model.html#a3cffb4c47e9d2fa4aa5065762d0c90c9" target="_top" xlink:title=" ">
<polygon fill="#fff0f0" stroke="red" points="399.75,-162.5 302,-162.5 302,-132 399.75,-132 399.75,-162.5"/>
<text text-anchor="start" x="310" y="-149" font-family="Helvetica,sans-Serif" font-size="10.00">Slic3r::Model::read</text>
<text text-anchor="middle" x="350.88" y="-137.75" font-family="Helvetica,sans-Serif" font-size="10.00">_from_file</text>
</a>
</g>
</g>
<!-- Node11&#45;&gt;Node14 -->
<g id="edge13_Node000011_Node000014" class="edge">
<title>Node11&#45;&gt;Node14</title>
<g id="a_edge13_Node000011_Node000014"><a xlink:title=" ">
<path fill="none" stroke="#63b8ff" d="M424.48,-159.91C416.41,-158.51 408.13,-157.06 400.18,-155.68"/>
<polygon fill="#63b8ff" stroke="#63b8ff" points="423.85,-163.53 434.3,-161.8 425.05,-156.64 423.85,-163.53"/>
</a>
</g>
</g>
<!-- Node14&#45;&gt;Node31 -->
<g id="edge14_Node000014_Node000031" class="edge">
<title>Node14&#45;&gt;Node31</title>
<g id="a_edge14_Node000014_Node000031"><a xlink:title=" ">
<path fill="none" stroke="#63b8ff" d="M290.66,-148.18C251.57,-147.82 199.38,-145.51 154,-137.25 136.3,-134.03 117.31,-128.4 101.06,-122.89"/>
<polygon fill="#63b8ff" stroke="#63b8ff" points="290.56,-151.68 300.58,-148.23 290.6,-144.68 290.56,-151.68"/>
</a>
</g>
</g>
<!-- Node14&#45;&gt;Node32 -->
<g id="edge15_Node000014_Node000032" class="edge">
<title>Node14&#45;&gt;Node32</title>
<g id="a_edge15_Node000014_Node000032"><a xlink:title=" ">
<path fill="none" stroke="#63b8ff" d="M291.32,-130.38C283.01,-127.99 274.49,-125.54 266.24,-123.16"/>
<polygon fill="#63b8ff" stroke="#63b8ff" points="290.11,-133.97 300.69,-133.37 292.05,-127.24 290.11,-133.97"/>
</a>
</g>
</g>
<!-- Node32&#45;&gt;Node31 -->
<g id="edge16_Node000032_Node000031" class="edge">
<title>Node32&#45;&gt;Node31</title>
<g id="a_edge16_Node000032_Node000031"><a xlink:title=" ">
<path fill="none" stroke="#63b8ff" d="M142.58,-107.25C134.48,-107.25 126.24,-107.25 118.27,-107.25"/>
<polygon fill="#63b8ff" stroke="#63b8ff" points="142.52,-110.75 152.52,-107.25 142.52,-103.75 142.52,-110.75"/>
</a>
</g>
</g>
<!-- Node35&#45;&gt;Node11 -->
<g id="edge19_Node000035_Node000011" class="edge">
<title>Node35&#45;&gt;Node11</title>
<g id="a_edge19_Node000035_Node000011"><a xlink:title=" ">
<path fill="none" stroke="#63b8ff" d="M568.93,-182.77C553.26,-180.39 536.8,-177.89 522.37,-175.69"/>
<polygon fill="#63b8ff" stroke="#63b8ff" points="568.21,-186.36 578.62,-184.4 569.26,-179.44 568.21,-186.36"/>
</a>
</g>
</g>
</g>
</svg>

<g id="navigator" transform="translate(0 0)" fill="#404254">
  <rect fill="#f2f5e9" fill-opacity="0.5" stroke="#606060" stroke-width=".5" x="0" y="0" width="60" height="60"/>
  <use id="zoomplus" xlink:href="#zoomPlus" x="17" y="9" onmousedown="handleZoom(evt,'in')"/>
  <use id="zoomminus" xlink:href="#zoomMin" x="42" y="9" onmousedown="handleZoom(evt,'out')"/>
  <use id="reset" xlink:href="#resetDef" x="30" y="36" onmousedown="handleReset()"/>
   <use id="arrowup" xlink:href="#arrowUp" x="0" y="0" onmousedown="handlePan(0,-1)"/>
  <use id="arrowright" xlink:href="#arrowRight" x="0" y="0" onmousedown="handlePan(1,0)"/>
  <use id="arrowdown" xlink:href="#arrowDown" x="0" y="0" onmousedown="handlePan(0,1)"/>
  <use id="arrowleft" xlink:href="#arrowLeft" x="0" y="0" onmousedown="handlePan(-1,0)"/>
</g>
<svg viewBox="0 0 15 15" width="100%" height="30px" preserveAspectRatio="xMaxYMin meet">
 <g id="arrow_out" transform="scale(0.3 0.3)">
  <a xlink:href="class_slic3r_1_1_model_volume_a4120bbcb1e9d6077501d291fb1a87ab0_icgraph_org.svg" target="_base">
   <rect id="button" ry="5" rx="5" y="6" x="6" height="38" width="38"
        fill="#f2f5e9" fill-opacity="0.5" stroke="#606060" stroke-width="1.0"/>
   <path id="arrow"
     d="M 11.500037,31.436501 C 11.940474,20.09759 22.043105,11.32322 32.158766,21.979434 L 37.068811,17.246167 C 37.068811,17.246167 37.088388,32 37.088388,32 L 22.160133,31.978069 C 22.160133,31.978069 26.997745,27.140456 26.997745,27.140456 C 18.528582,18.264221 13.291696,25.230495 11.500037,31.436501 z"
     style="fill:#404040;"/>
  </a>
 </g>
</svg>

<style type='text/css'>
<![CDATA[
[data-mouse-over-selected='false'] { opacity: 0.7; }
[data-mouse-over-selected='true']  { opacity: 1.0; }
]]>
</style>
<script type="application/ecmascript"><![CDATA[
document.addEventListener('DOMContentLoaded', (event) => {
  highlightEdges();
  highlightAdjacentNodes();
});
]]></script>
</svg>
