<?xml version="1.0" encoding="UTF-8" standalone="no"?>
<!DOCTYPE svg PUBLIC "-//W3C//DTD SVG 1.1//EN"
 "http://www.w3.org/Graphics/SVG/1.1/DTD/svg11.dtd">
<!-- Generated by graphviz version 8.0.5 (20230430.1635)
 -->
<!-- Title: Slic3r::ModelVolume::is_modifier Pages: 1 -->
<!--zoomable 988 -->

<svg id="main" version="1.1" xmlns="http://www.w3.org/2000/svg" xmlns:xlink="http://www.w3.org/1999/xlink" xml:space="preserve" onload="init(evt)">
<style type="text/css"><![CDATA[
.node, .edge {opacity: 0.7;}
.node.selected, .edge.selected {opacity: 1;}
.edge:hover path { stroke: red; }
.edge:hover polygon { stroke: red; fill: red; }
]]></style>

<defs>
  <circle id="rim" cx="0" cy="0" r="7"/>
  <circle id="rim2" cx="0" cy="0" r="3.5"/>
  <g id="zoomPlus">
    <use xlink:href="#rim" fill="#404040"><set attributeName="fill" to="#808080" begin="zoomplus.mouseover" end="zoomplus.mouseout"/></use>
    <path d="M-4,0h8M0,-4v8" fill="none" stroke="white" stroke-width="1.5" pointer-events="none"/>
  </g>
  <g id="zoomMin">
    <use xlink:href="#rim" fill="#404040"><set attributeName="fill" to="#808080" begin="zoomminus.mouseover" end="zoomminus.mouseout"/></use>
    <path d="M-4,0h8" fill="none" stroke="white" stroke-width="1.5" pointer-events="none"/>
  </g>
  <g id="arrowUp" transform="translate(30 24)">
    <use xlink:href="#rim"/>
    <path pointer-events="none" fill="none" stroke="white" stroke-width="1.5" d="M0,-3.0v7 M-2.5,-0.5L0,-3.0L2.5,-0.5"/>
  </g>
  <g id="arrowRight" transform="rotate(90) translate(36 -43)">
    <use xlink:href="#rim"/>
    <path pointer-events="none" fill="none" stroke="white" stroke-width="1.5" d="M0,-3.0v7 M-2.5,-0.5L0,-3.0L2.5,-0.5"/>
  </g>
  <g id="arrowDown" transform="rotate(180) translate(-30 -48)">
    <use xlink:href="#rim"/>
    <path pointer-events="none" fill="none" stroke="white" stroke-width="1.5" d="M0,-3.0v7 M-2.5,-0.5L0,-3.0L2.5,-0.5"/>
  </g>
  <g id="arrowLeft" transform="rotate(270) translate(-36 17)">
    <use xlink:href="#rim"/>
    <path pointer-events="none" fill="none" stroke="white" stroke-width="1.5" d="M0,-3.0v7 M-2.5,-0.5L0,-3.0L2.5,-0.5"/>
  </g>
  <g id="resetDef">
    <use xlink:href="#rim2" fill="#404040"><set attributeName="fill" to="#808080" begin="reset.mouseover" end="reset.mouseout"/></use>
  </g>
</defs>
<script type="application/ecmascript">
var viewWidth = 1264;
var viewHeight = 988;
var sectionId = 'dynsection-43';
</script>
<script type="application/ecmascript" xlink:href="../../svg.min.js"/>
<svg id="graph" class="graph">
<g id="viewport">
<title>Slic3r::ModelVolume::is_modifier</title>
<!-- Node1 -->
<g id="Node000001" class="node">
<title>Node1</title>
<g id="a_Node000001"><a xlink:title=" ">
<polygon fill="#999999" stroke="#666666" points="1255.75,-261.88 1149.75,-261.88 1149.75,-231.38 1255.75,-231.38 1255.75,-261.88"/>
<text text-anchor="start" x="1157.75" y="-248.38" font-family="Helvetica,sans-Serif" font-size="10.00">Slic3r::ModelVolume</text>
<text text-anchor="middle" x="1202.75" y="-237.12" font-family="Helvetica,sans-Serif" font-size="10.00">::is_modifier</text>
</a>
</g>
</g>
<!-- Node2 -->
<g id="Node000002" class="node">
<title>Node2</title>
<g id="a_Node000002"><a xlink:href="../../de/db8/namespace_slic3r.html#afd9bb70b3a49c831e76e1e07798d2440" target="_top" xlink:title=" ">
<polygon fill="white" stroke="#666666" points="1086,-702.88 993.5,-702.88 993.5,-672.38 1086,-672.38 1086,-702.88"/>
<text text-anchor="start" x="1001.5" y="-689.38" font-family="Helvetica,sans-Serif" font-size="10.00">Slic3r::color_from</text>
<text text-anchor="middle" x="1039.75" y="-678.12" font-family="Helvetica,sans-Serif" font-size="10.00">_model_volume</text>
</a>
</g>
</g>
<!-- Node1&#45;&gt;Node2 -->
<g id="edge1_Node000001_Node000002" class="edge">
<title>Node1&#45;&gt;Node2</title>
<g id="a_edge1_Node000001_Node000002"><a xlink:title=" ">
<path fill="none" stroke="#63b8ff" d="M1192.3,-272.51C1162.37,-354.51 1070.22,-606.9 1046.41,-672.12"/>
<polygon fill="#63b8ff" stroke="#63b8ff" points="1195.88,-273.91 1196.02,-263.32 1189.3,-271.51 1195.88,-273.91"/>
</a>
</g>
</g>
<!-- Node27 -->
<g id="Node000027" class="node">
<title>Node27</title>
<g id="a_Node000027"><a xlink:href="../../dd/df1/class_slic3r_1_1_g_u_i_1_1_g_l_gizmo_emboss.html#a3b24e23890cfbcbd10b34e38a7784e54" target="_top" xlink:title=" ">
<polygon fill="white" stroke="#666666" points="1113.75,-333.88 965.75,-333.88 965.75,-303.38 1113.75,-303.38 1113.75,-333.88"/>
<text text-anchor="start" x="973.75" y="-320.38" font-family="Helvetica,sans-Serif" font-size="10.00">Slic3r::GUI::GLGizmoEmboss</text>
<text text-anchor="middle" x="1039.75" y="-309.12" font-family="Helvetica,sans-Serif" font-size="10.00">::process</text>
</a>
</g>
</g>
<!-- Node1&#45;&gt;Node27 -->
<g id="edge19_Node000001_Node000027" class="edge">
<title>Node1&#45;&gt;Node27</title>
<g id="a_edge19_Node000001_Node000027"><a xlink:title=" ">
<path fill="none" stroke="#63b8ff" d="M1156.97,-266.65C1131.36,-278.1 1099.7,-292.26 1075.89,-302.91"/>
<polygon fill="#63b8ff" stroke="#63b8ff" points="1158.12,-269.53 1165.82,-262.25 1155.26,-263.14 1158.12,-269.53"/>
</a>
</g>
</g>
<!-- Node43 -->
<g id="Node000043" class="node">
<title>Node43</title>
<g id="a_Node000043"><a xlink:href="../../de/db8/namespace_slic3r.html#afab3ca1713fc8d92490b02545fd79f75" target="_top" xlink:title=" ">
<polygon fill="white" stroke="#666666" points="1101,-226.25 978.5,-226.25 978.5,-207 1101,-207 1101,-226.25"/>
<text text-anchor="middle" x="1039.75" y="-212.75" font-family="Helvetica,sans-Serif" font-size="10.00">Slic3r::slices_to_regions</text>
</a>
</g>
</g>
<!-- Node1&#45;&gt;Node43 -->
<g id="edge45_Node000001_Node000043" class="edge">
<title>Node1&#45;&gt;Node43</title>
<g id="a_edge45_Node000001_Node000043"><a xlink:title=" ">
<path fill="none" stroke="#63b8ff" d="M1139.05,-234.94C1124.5,-232.23 1109.13,-229.37 1094.97,-226.73"/>
<polygon fill="#63b8ff" stroke="#63b8ff" points="1138.01,-238.49 1148.48,-236.88 1139.29,-231.61 1138.01,-238.49"/>
</a>
</g>
</g>
<!-- Node45 -->
<g id="Node000045" class="node">
<title>Node45</title>
<g id="a_Node000045"><a xlink:href="../../de/db8/namespace_slic3r.html#ad263dd9a4fbaf1b2c02409fd5bd463d4" target="_top" xlink:title=" ">
<polygon fill="white" stroke="#666666" points="1093.88,-88.88 985.62,-88.88 985.62,-58.38 1093.88,-58.38 1093.88,-88.88"/>
<text text-anchor="start" x="993.62" y="-75.38" font-family="Helvetica,sans-Serif" font-size="10.00">Slic3r::verify_update</text>
<text text-anchor="middle" x="1039.75" y="-64.12" font-family="Helvetica,sans-Serif" font-size="10.00">_print_object_regions</text>
</a>
</g>
</g>
<!-- Node1&#45;&gt;Node45 -->
<g id="edge48_Node000001_Node000045" class="edge">
<title>Node1&#45;&gt;Node45</title>
<g id="a_edge48_Node000001_Node000045"><a xlink:title=" ">
<path fill="none" stroke="#63b8ff" d="M1179.74,-222.98C1146.35,-187.1 1083.78,-119.86 1055.4,-89.37"/>
<polygon fill="#63b8ff" stroke="#63b8ff" points="1176.8,-225.03 1186.18,-229.97 1181.93,-220.26 1176.8,-225.03"/>
</a>
</g>
</g>
<!-- Node3 -->
<g id="Node000003" class="node">
<title>Node3</title>
<g id="a_Node000003"><a xlink:href="../../d4/dc9/class_slic3r_1_1_g_l_volume_collection.html#a4aee387f17ecb58e75b4531e99df051c" target="_top" xlink:title=" ">
<polygon fill="white" stroke="#666666" points="923.38,-771.88 788.12,-771.88 788.12,-741.38 923.38,-741.38 923.38,-771.88"/>
<text text-anchor="start" x="796.12" y="-758.38" font-family="Helvetica,sans-Serif" font-size="10.00">Slic3r::GLVolumeCollection</text>
<text text-anchor="middle" x="855.75" y="-747.12" font-family="Helvetica,sans-Serif" font-size="10.00">::load_object_volume</text>
</a>
</g>
</g>
<!-- Node2&#45;&gt;Node3 -->
<g id="edge2_Node000002_Node000003" class="edge">
<title>Node2&#45;&gt;Node3</title>
<g id="a_edge2_Node000002_Node000003"><a xlink:title=" ">
<path fill="none" stroke="#63b8ff" d="M987.37,-707.1C959.17,-717.79 924.66,-730.88 898.2,-740.91"/>
<polygon fill="#63b8ff" stroke="#63b8ff" points="988.34,-710.1 996.45,-703.28 985.86,-703.55 988.34,-710.1"/>
</a>
</g>
</g>
<!-- Node4 -->
<g id="Node000004" class="node">
<title>Node4</title>
<g id="a_Node000004"><a xlink:href="../../d0/d2b/class_slic3r_1_1_g_u_i_1_1_g_l_canvas3_d.html#a0952c42bc924ff44ed130a2ff77bb370" target="_top" xlink:title=" ">
<polygon fill="white" stroke="#666666" points="713.88,-772.88 583.88,-772.88 583.88,-742.38 713.88,-742.38 713.88,-772.88"/>
<text text-anchor="start" x="591.88" y="-759.38" font-family="Helvetica,sans-Serif" font-size="10.00">Slic3r::GUI::GLCanvas3D</text>
<text text-anchor="middle" x="648.88" y="-748.12" font-family="Helvetica,sans-Serif" font-size="10.00">::reload_scene</text>
</a>
</g>
</g>
<!-- Node2&#45;&gt;Node4 -->
<g id="edge14_Node000002_Node000004" class="edge">
<title>Node2&#45;&gt;Node4</title>
<g id="a_edge14_Node000002_Node000004"><a xlink:title=" ">
<path fill="none" stroke="#63b8ff" d="M982.54,-697.23C930.44,-706.2 850.81,-720.03 781.75,-732.62 759.74,-736.64 735.7,-741.16 714.23,-745.24"/>
<polygon fill="#63b8ff" stroke="#63b8ff" points="982.96,-700.54 992.22,-695.4 981.77,-693.64 982.96,-700.54"/>
</a>
</g>
</g>
<!-- Node23 -->
<g id="Node000023" class="node">
<title>Node23</title>
<g id="a_Node000023"><a xlink:href="../../d1/d11/class_slic3r_1_1_g_u_i_1_1_common_gizmos_data_objects_1_1_instances_hider.html#a951e6933a72d30731665081697812a04" target="_top" xlink:title=" ">
<polygon fill="white" stroke="#666666" points="927.88,-683.5 783.62,-683.5 783.62,-641.75 927.88,-641.75 927.88,-683.5"/>
<text text-anchor="start" x="791.62" y="-670" font-family="Helvetica,sans-Serif" font-size="10.00">Slic3r::GUI::CommonGizmos</text>
<text text-anchor="start" x="791.62" y="-658.75" font-family="Helvetica,sans-Serif" font-size="10.00">DataObjects::InstancesHider</text>
<text text-anchor="middle" x="855.75" y="-647.5" font-family="Helvetica,sans-Serif" font-size="10.00">::render_cut</text>
</a>
</g>
</g>
<!-- Node2&#45;&gt;Node23 -->
<g id="edge15_Node000002_Node000023" class="edge">
<title>Node2&#45;&gt;Node23</title>
<g id="a_edge15_Node000002_Node000023"><a xlink:title=" ">
<path fill="none" stroke="#63b8ff" d="M982.83,-679.94C965.57,-677.57 946.31,-674.93 928.16,-672.43"/>
<polygon fill="#63b8ff" stroke="#63b8ff" points="981.91,-683.49 992.29,-681.38 982.86,-676.55 981.91,-683.49"/>
</a>
</g>
</g>
<!-- Node3&#45;&gt;Node4 -->
<g id="edge3_Node000003_Node000004" class="edge">
<title>Node3&#45;&gt;Node4</title>
<g id="a_edge3_Node000003_Node000004"><a xlink:title=" ">
<path fill="none" stroke="#63b8ff" d="M776.72,-757.01C756.11,-757.11 734.12,-757.21 714.32,-757.31"/>
<polygon fill="#63b8ff" stroke="#63b8ff" points="776.68,-760.5 786.67,-756.95 776.65,-753.5 776.68,-760.5"/>
</a>
</g>
</g>
<!-- Node5 -->
<g id="Node000005" class="node">
<title>Node5</title>
<g id="a_Node000005"><a xlink:href="../../d0/d2b/class_slic3r_1_1_g_u_i_1_1_g_l_canvas3_d.html#a6379e5a8883b2a7c10e897ad357a6c6f" target="_top" xlink:title=" ">
<polygon fill="white" stroke="#666666" points="507,-887.5 377,-887.5 377,-845.75 507,-845.75 507,-887.5"/>
<text text-anchor="start" x="385" y="-874" font-family="Helvetica,sans-Serif" font-size="10.00">Slic3r::GUI::GLCanvas3D</text>
<text text-anchor="start" x="385" y="-862.75" font-family="Helvetica,sans-Serif" font-size="10.00">::_refresh_if_shown_on</text>
<text text-anchor="middle" x="442" y="-851.5" font-family="Helvetica,sans-Serif" font-size="10.00">_screen</text>
</a>
</g>
</g>
<!-- Node4&#45;&gt;Node5 -->
<g id="edge4_Node000004_Node000005" class="edge">
<title>Node4&#45;&gt;Node5</title>
<g id="a_edge4_Node000004_Node000005"><a xlink:title=" ">
<path fill="none" stroke="#63b8ff" d="M608.82,-778.4C572.69,-797.62 519.24,-826.07 482.86,-845.42"/>
<polygon fill="#63b8ff" stroke="#63b8ff" points="610.34,-781.03 617.52,-773.24 607.05,-774.85 610.34,-781.03"/>
</a>
</g>
</g>
<!-- Node12 -->
<g id="Node000012" class="node">
<title>Node12</title>
<g id="a_Node000012"><a xlink:href="../../dd/d03/class_slic3r_1_1_g_u_i_1_1_object_list.html#a2670d6019bfdc5bad524330fe9581757" target="_top" xlink:title=" ">
<polygon fill="white" stroke="#666666" points="499.5,-796.88 384.5,-796.88 384.5,-766.38 499.5,-766.38 499.5,-796.88"/>
<text text-anchor="start" x="392.5" y="-783.38" font-family="Helvetica,sans-Serif" font-size="10.00">Slic3r::GUI::ObjectList</text>
<text text-anchor="middle" x="442" y="-772.12" font-family="Helvetica,sans-Serif" font-size="10.00">::del_info_item</text>
</a>
</g>
</g>
<!-- Node4&#45;&gt;Node12 -->
<g id="edge10_Node000004_Node000012" class="edge">
<title>Node4&#45;&gt;Node12</title>
<g id="a_edge10_Node000004_Node000012"><a xlink:title=" ">
<path fill="none" stroke="#63b8ff" d="M572.71,-766.43C548.6,-769.25 522.32,-772.33 499.76,-774.98"/>
<polygon fill="#63b8ff" stroke="#63b8ff" points="573.09,-769.79 582.61,-765.15 572.27,-762.84 573.09,-769.79"/>
</a>
</g>
</g>
<!-- Node21 -->
<g id="Node000021" class="node">
<title>Node21</title>
<g id="a_Node000021"><a xlink:href="../../d1/d51/class_slic3r_1_1_g_u_i_1_1_emboss_1_1_create_object_job.html#a18c6adc32c81682e81928c90b5d96f7f" target="_top" xlink:title=" ">
<polygon fill="white" stroke="#666666" points="508.12,-747.88 375.88,-747.88 375.88,-717.38 508.12,-717.38 508.12,-747.88"/>
<text text-anchor="start" x="383.88" y="-734.38" font-family="Helvetica,sans-Serif" font-size="10.00">Slic3r::GUI::Emboss</text>
<text text-anchor="middle" x="442" y="-723.12" font-family="Helvetica,sans-Serif" font-size="10.00">::CreateObjectJob::finalize</text>
</a>
</g>
</g>
<!-- Node4&#45;&gt;Node21 -->
<g id="edge12_Node000004_Node000021" class="edge">
<title>Node4&#45;&gt;Node21</title>
<g id="a_edge12_Node000004_Node000021"><a xlink:title=" ">
<path fill="none" stroke="#63b8ff" d="M572.76,-748.46C551.67,-745.89 528.92,-743.11 508.44,-740.61"/>
<polygon fill="#63b8ff" stroke="#63b8ff" points="572.26,-752.05 582.61,-749.78 573.11,-745.1 572.26,-752.05"/>
</a>
</g>
</g>
<!-- Node22 -->
<g id="Node000022" class="node">
<title>Node22</title>
<g id="a_Node000022"><a xlink:href="../../d7/de9/class_slic3r_1_1_g_u_i_1_1_view3_d.html#aebeb9fad93bb2b59fee7305c5447fecc" target="_top" xlink:title=" ">
<polygon fill="white" stroke="#666666" points="494.62,-698.88 389.38,-698.88 389.38,-668.38 494.62,-668.38 494.62,-698.88"/>
<text text-anchor="start" x="397.38" y="-685.38" font-family="Helvetica,sans-Serif" font-size="10.00">Slic3r::GUI::View3D</text>
<text text-anchor="middle" x="442" y="-674.12" font-family="Helvetica,sans-Serif" font-size="10.00">::reload_scene</text>
</a>
</g>
</g>
<!-- Node4&#45;&gt;Node22 -->
<g id="edge13_Node000004_Node000022" class="edge">
<title>Node4&#45;&gt;Node22</title>
<g id="a_edge13_Node000004_Node000022"><a xlink:title=" ">
<path fill="none" stroke="#63b8ff" d="M573.13,-740.76C565.88,-738.34 558.72,-735.64 552,-732.62 534.45,-724.76 533.24,-717.14 516,-708.62 509.15,-705.24 501.74,-702.13 494.34,-699.33"/>
<polygon fill="#63b8ff" stroke="#63b8ff" points="571.83,-744.33 582.42,-743.98 573.93,-737.65 571.83,-744.33"/>
</a>
</g>
</g>
<!-- Node6 -->
<g id="Node000006" class="node">
<title>Node6</title>
<g id="a_Node000006"><a xlink:href="../../d0/d2b/class_slic3r_1_1_g_u_i_1_1_g_l_canvas3_d.html#a43e426ee93eca3963c86ad0dd7796876" target="_top" xlink:title=" ">
<polygon fill="#fff0f0" stroke="red" points="323,-881.88 193,-881.88 193,-851.38 323,-851.38 323,-881.88"/>
<text text-anchor="start" x="201" y="-868.38" font-family="Helvetica,sans-Serif" font-size="10.00">Slic3r::GUI::GLCanvas3D</text>
<text text-anchor="middle" x="258" y="-857.12" font-family="Helvetica,sans-Serif" font-size="10.00">::on_idle</text>
</a>
</g>
</g>
<!-- Node5&#45;&gt;Node6 -->
<g id="edge5_Node000005_Node000006" class="edge">
<title>Node5&#45;&gt;Node6</title>
<g id="a_edge5_Node000005_Node000006"><a xlink:title=" ">
<path fill="none" stroke="#63b8ff" d="M365.9,-866.62C351.76,-866.62 337.1,-866.62 323.34,-866.62"/>
<polygon fill="#63b8ff" stroke="#63b8ff" points="365.58,-870.13 375.58,-866.62 365.58,-863.13 365.58,-870.13"/>
</a>
</g>
</g>
<!-- Node9 -->
<g id="Node000009" class="node">
<title>Node9</title>
<g id="a_Node000009"><a xlink:href="../../d0/d2b/class_slic3r_1_1_g_u_i_1_1_g_l_canvas3_d.html#a15fc8ce385048544064e6e434e09de23" target="_top" xlink:title=" ">
<polygon fill="#fff0f0" stroke="red" points="323,-814.88 193,-814.88 193,-784.38 323,-784.38 323,-814.88"/>
<text text-anchor="start" x="201" y="-801.38" font-family="Helvetica,sans-Serif" font-size="10.00">Slic3r::GUI::GLCanvas3D</text>
<text text-anchor="middle" x="258" y="-790.12" font-family="Helvetica,sans-Serif" font-size="10.00">::on_mouse</text>
</a>
</g>
</g>
<!-- Node5&#45;&gt;Node9 -->
<g id="edge6_Node000005_Node000009" class="edge">
<title>Node5&#45;&gt;Node9</title>
<g id="a_edge6_Node000005_Node000009"><a xlink:title=" ">
<path fill="none" stroke="#63b8ff" d="M373.07,-841.62C349.14,-832.81 322.93,-823.16 301.67,-815.33"/>
<polygon fill="#63b8ff" stroke="#63b8ff" points="371.57,-845.16 382.16,-845.33 373.99,-838.59 371.57,-845.16"/>
</a>
</g>
</g>
<!-- Node10 -->
<g id="Node000010" class="node">
<title>Node10</title>
<g id="a_Node000010"><a xlink:href="../../d0/d2b/class_slic3r_1_1_g_u_i_1_1_g_l_canvas3_d.html#ab6b94328fd7dee2aed04efa73eb03208" target="_top" xlink:title=" ">
<polygon fill="#fff0f0" stroke="red" points="323,-979.88 193,-979.88 193,-949.38 323,-949.38 323,-979.88"/>
<text text-anchor="start" x="201" y="-966.38" font-family="Helvetica,sans-Serif" font-size="10.00">Slic3r::GUI::GLCanvas3D</text>
<text text-anchor="middle" x="258" y="-955.12" font-family="Helvetica,sans-Serif" font-size="10.00">::on_set_focus</text>
</a>
</g>
</g>
<!-- Node5&#45;&gt;Node10 -->
<g id="edge8_Node000005_Node000010" class="edge">
<title>Node5&#45;&gt;Node10</title>
<g id="a_edge8_Node000005_Node000010"><a xlink:title=" ">
<path fill="none" stroke="#63b8ff" d="M404.84,-894.32C384.28,-909.16 357.6,-926.94 332,-939.62 325.16,-943.02 317.74,-946.13 310.35,-948.94"/>
<polygon fill="#63b8ff" stroke="#63b8ff" points="406.54,-896.69 412.54,-887.96 402.4,-891.04 406.54,-896.69"/>
</a>
</g>
</g>
<!-- Node11 -->
<g id="Node000011" class="node">
<title>Node11</title>
<g id="a_Node000011"><a xlink:href="../../d0/d2b/class_slic3r_1_1_g_u_i_1_1_g_l_canvas3_d.html#a2b90c18fa7f51123b3ca34c325d5bf83" target="_top" xlink:title=" ">
<polygon fill="white" stroke="#666666" points="323,-930.88 193,-930.88 193,-900.38 323,-900.38 323,-930.88"/>
<text text-anchor="start" x="201" y="-917.38" font-family="Helvetica,sans-Serif" font-size="10.00">Slic3r::GUI::GLCanvas3D</text>
<text text-anchor="middle" x="258" y="-906.12" font-family="Helvetica,sans-Serif" font-size="10.00">::update_ui_from_settings</text>
</a>
</g>
</g>
<!-- Node5&#45;&gt;Node11 -->
<g id="edge9_Node000005_Node000011" class="edge">
<title>Node5&#45;&gt;Node11</title>
<g id="a_edge9_Node000005_Node000011"><a xlink:title=" ">
<path fill="none" stroke="#63b8ff" d="M366.01,-886.81C349.75,-891.19 332.77,-895.76 317.27,-899.94"/>
<polygon fill="#63b8ff" stroke="#63b8ff" points="366.83,-889.95 375.58,-883.97 365.01,-883.19 366.83,-889.95"/>
</a>
</g>
</g>
<!-- Node9&#45;&gt;Node9 -->
<g id="edge7_Node000009_Node000009" class="edge">
<title>Node9&#45;&gt;Node9</title>
<g id="a_edge7_Node000009_Node000009"><a xlink:title=" ">
<path fill="none" stroke="#63b8ff" d="M289.28,-826.25C284.4,-830.2 273.97,-832.88 258,-832.88 229.61,-832.88 218.74,-824.43 225.4,-815.36"/>
<polygon fill="#63b8ff" stroke="#63b8ff" points="292.87,-826.71 290.6,-816.36 285.92,-825.86 292.87,-826.71"/>
</a>
</g>
</g>
<!-- Node13 -->
<g id="Node000013" class="node">
<title>Node13</title>
<g id="a_Node000013"><a xlink:href="../../dd/d03/class_slic3r_1_1_g_u_i_1_1_object_list.html#a4cfeda23a605cc017e2e524f493af311" target="_top" xlink:title=" ">
<polygon fill="#fff0f0" stroke="red" points="315.5,-765.88 200.5,-765.88 200.5,-735.38 315.5,-735.38 315.5,-765.88"/>
<text text-anchor="start" x="208.5" y="-752.38" font-family="Helvetica,sans-Serif" font-size="10.00">Slic3r::GUI::ObjectList</text>
<text text-anchor="middle" x="258" y="-741.12" font-family="Helvetica,sans-Serif" font-size="10.00">::del_subobject_item</text>
</a>
</g>
</g>
<!-- Node12&#45;&gt;Node13 -->
<g id="edge11_Node000012_Node000013" class="edge">
<title>Node12&#45;&gt;Node13</title>
<g id="a_edge11_Node000012_Node000013"><a xlink:title=" ">
<path fill="none" stroke="#63b8ff" d="M373.72,-770.17C354.71,-766.93 334.2,-763.43 315.87,-760.31"/>
<polygon fill="#63b8ff" stroke="#63b8ff" points="372.97,-773.76 383.41,-771.99 374.14,-766.86 372.97,-773.76"/>
</a>
</g>
</g>
<!-- Node24 -->
<g id="Node000024" class="node">
<title>Node24</title>
<g id="a_Node000024"><a xlink:href="../../d7/ddf/class_slic3r_1_1_g_u_i_1_1_g_l_gizmo_fdm_supports.html#a6336329fb7574cb51d4cb540d4a99337" target="_top" xlink:title=" ">
<polygon fill="white" stroke="#666666" points="734.12,-625.88 563.62,-625.88 563.62,-595.38 734.12,-595.38 734.12,-625.88"/>
<text text-anchor="start" x="571.62" y="-612.38" font-family="Helvetica,sans-Serif" font-size="10.00">Slic3r::GUI::GLGizmoFdmSupports</text>
<text text-anchor="middle" x="648.88" y="-601.12" font-family="Helvetica,sans-Serif" font-size="10.00">::render_painter_gizmo</text>
</a>
</g>
</g>
<!-- Node23&#45;&gt;Node24 -->
<g id="edge16_Node000023_Node000024" class="edge">
<title>Node23&#45;&gt;Node24</title>
<g id="a_edge16_Node000023_Node000024"><a xlink:title=" ">
<path fill="none" stroke="#63b8ff" d="M772.86,-641.84C752.49,-636.67 731,-631.22 711.78,-626.34"/>
<polygon fill="#63b8ff" stroke="#63b8ff" points="771.83,-645.44 782.38,-644.51 773.55,-638.66 771.83,-645.44"/>
</a>
</g>
</g>
<!-- Node25 -->
<g id="Node000025" class="node">
<title>Node25</title>
<g id="a_Node000025"><a xlink:href="../../d9/d6f/class_slic3r_1_1_g_u_i_1_1_g_l_gizmo_mmu_segmentation.html#ad7ae27be70e87d0850d7d640326c0a4b" target="_top" xlink:title=" ">
<polygon fill="white" stroke="#666666" points="745.75,-723.88 552,-723.88 552,-693.38 745.75,-693.38 745.75,-723.88"/>
<text text-anchor="start" x="560" y="-710.38" font-family="Helvetica,sans-Serif" font-size="10.00">Slic3r::GUI::GLGizmoMmuSegmentation</text>
<text text-anchor="middle" x="648.88" y="-699.12" font-family="Helvetica,sans-Serif" font-size="10.00">::render_painter_gizmo</text>
</a>
</g>
</g>
<!-- Node23&#45;&gt;Node25 -->
<g id="edge17_Node000023_Node000025" class="edge">
<title>Node23&#45;&gt;Node25</title>
<g id="a_edge17_Node000023_Node000025"><a xlink:title=" ">
<path fill="none" stroke="#63b8ff" d="M773.13,-680.95C755.53,-684.9 737.07,-689.05 719.95,-692.89"/>
<polygon fill="#63b8ff" stroke="#63b8ff" points="773.39,-684.25 782.38,-678.65 771.86,-677.42 773.39,-684.25"/>
</a>
</g>
</g>
<!-- Node26 -->
<g id="Node000026" class="node">
<title>Node26</title>
<g id="a_Node000026"><a xlink:href="../../dd/de1/class_slic3r_1_1_g_u_i_1_1_g_l_gizmo_seam.html#a4a6dc858e82108d441f89234a5ad1345" target="_top" xlink:title=" ">
<polygon fill="white" stroke="#666666" points="717.62,-674.88 580.12,-674.88 580.12,-644.38 717.62,-644.38 717.62,-674.88"/>
<text text-anchor="start" x="588.12" y="-661.38" font-family="Helvetica,sans-Serif" font-size="10.00">Slic3r::GUI::GLGizmoSeam</text>
<text text-anchor="middle" x="648.88" y="-650.12" font-family="Helvetica,sans-Serif" font-size="10.00">::render_painter_gizmo</text>
</a>
</g>
</g>
<!-- Node23&#45;&gt;Node26 -->
<g id="edge18_Node000023_Node000026" class="edge">
<title>Node23&#45;&gt;Node26</title>
<g id="a_edge18_Node000023_Node000026"><a xlink:title=" ">
<path fill="none" stroke="#63b8ff" d="M772.53,-661.42C754.4,-661.16 735.38,-660.88 717.89,-660.62"/>
<polygon fill="#63b8ff" stroke="#63b8ff" points="772.33,-664.93 782.38,-661.58 772.43,-657.93 772.33,-664.93"/>
</a>
</g>
</g>
<!-- Node28 -->
<g id="Node000028" class="node">
<title>Node28</title>
<g id="a_Node000028"><a xlink:href="../../dd/df1/class_slic3r_1_1_g_u_i_1_1_g_l_gizmo_emboss.html#a992be82e214e7ee040d32e0f63dcefa0" target="_top" xlink:title=" ">
<polygon fill="white" stroke="#666666" points="516,-153.88 368,-153.88 368,-123.38 516,-123.38 516,-153.88"/>
<text text-anchor="start" x="376" y="-140.38" font-family="Helvetica,sans-Serif" font-size="10.00">Slic3r::GUI::GLGizmoEmboss</text>
<text text-anchor="middle" x="442" y="-129.12" font-family="Helvetica,sans-Serif" font-size="10.00">::draw_advanced</text>
</a>
</g>
</g>
<!-- Node27&#45;&gt;Node28 -->
<g id="edge20_Node000027_Node000028" class="edge">
<title>Node27&#45;&gt;Node28</title>
<g id="a_edge20_Node000027_Node000028"><a xlink:title=" ">
<path fill="none" stroke="#63b8ff" d="M1007.95,-296.43C993.65,-284.93 977.31,-269.89 965.75,-253.62 941.51,-219.51 963.76,-191 929.75,-166.62 865.51,-120.59 635.96,-126.82 516.48,-133.56"/>
<polygon fill="#63b8ff" stroke="#63b8ff" points="1005.48,-299.73 1015.52,-303.12 1009.79,-294.21 1005.48,-299.73"/>
</a>
</g>
</g>
<!-- Node29 -->
<g id="Node000029" class="node">
<title>Node29</title>
<g id="a_Node000029"><a xlink:href="../../dd/df1/class_slic3r_1_1_g_u_i_1_1_g_l_gizmo_emboss.html#a6dc1143a516dc36420fe279e09c55b40" target="_top" xlink:title=" ">
<polygon fill="white" stroke="#666666" points="332,-261.88 184,-261.88 184,-231.38 332,-231.38 332,-261.88"/>
<text text-anchor="start" x="192" y="-248.38" font-family="Helvetica,sans-Serif" font-size="10.00">Slic3r::GUI::GLGizmoEmboss</text>
<text text-anchor="middle" x="258" y="-237.12" font-family="Helvetica,sans-Serif" font-size="10.00">::draw_window</text>
</a>
</g>
</g>
<!-- Node27&#45;&gt;Node29 -->
<g id="edge39_Node000027_Node000029" class="edge">
<title>Node27&#45;&gt;Node29</title>
<g id="a_edge39_Node000027_Node000029"><a xlink:title=" ">
<path fill="none" stroke="#63b8ff" d="M1006.52,-296.5C992.19,-285.18 976.23,-270.27 965.75,-253.62 934.95,-204.7 975.35,-164.17 929.75,-128.62 831.26,-51.86 480.96,-61.41 368,-114.62 316.11,-139.07 280.51,-201.68 266.13,-231.02"/>
<polygon fill="#63b8ff" stroke="#63b8ff" points="1004.08,-299.8 1014.16,-303.07 1008.32,-294.23 1004.08,-299.8"/>
</a>
</g>
</g>
<!-- Node31 -->
<g id="Node000031" class="node">
<title>Node31</title>
<g id="a_Node000031"><a xlink:href="../../dd/df1/class_slic3r_1_1_g_u_i_1_1_g_l_gizmo_emboss.html#af70844cc49d6ef544db652ef6bfe2ab0" target="_top" xlink:title=" ">
<polygon fill="white" stroke="#666666" points="929.75,-614.88 781.75,-614.88 781.75,-584.38 929.75,-584.38 929.75,-614.88"/>
<text text-anchor="start" x="789.75" y="-601.38" font-family="Helvetica,sans-Serif" font-size="10.00">Slic3r::GUI::GLGizmoEmboss</text>
<text text-anchor="middle" x="855.75" y="-590.12" font-family="Helvetica,sans-Serif" font-size="10.00">::draw_delete_style_button</text>
</a>
</g>
</g>
<!-- Node27&#45;&gt;Node31 -->
<g id="edge23_Node000027_Node000031" class="edge">
<title>Node27&#45;&gt;Node31</title>
<g id="a_edge23_Node000027_Node000031"><a xlink:title=" ">
<path fill="none" stroke="#63b8ff" d="M1034.26,-344.92C1024.33,-395.37 995.92,-506.42 929.75,-570.62 924.27,-575.94 917.69,-580.32 910.76,-583.92"/>
<polygon fill="#63b8ff" stroke="#63b8ff" points="1037.85,-345.76 1036.25,-335.28 1030.97,-344.47 1037.85,-345.76"/>
</a>
</g>
</g>
<!-- Node32 -->
<g id="Node000032" class="node">
<title>Node32</title>
<g id="a_Node000032"><a xlink:href="../../dd/df1/class_slic3r_1_1_g_u_i_1_1_g_l_gizmo_emboss.html#a6df9903fff9137c854120960350a0902" target="_top" xlink:title=" ">
<polygon fill="white" stroke="#666666" points="722.88,-576.88 574.88,-576.88 574.88,-546.38 722.88,-546.38 722.88,-576.88"/>
<text text-anchor="start" x="582.88" y="-563.38" font-family="Helvetica,sans-Serif" font-size="10.00">Slic3r::GUI::GLGizmoEmboss</text>
<text text-anchor="middle" x="648.88" y="-552.12" font-family="Helvetica,sans-Serif" font-size="10.00">::draw_style_list</text>
</a>
</g>
</g>
<!-- Node27&#45;&gt;Node32 -->
<g id="edge36_Node000027_Node000032" class="edge">
<title>Node27&#45;&gt;Node32</title>
<g id="a_edge36_Node000027_Node000032"><a xlink:title=" ">
<path fill="none" stroke="#63b8ff" d="M1033.76,-345.09C1023.44,-391.73 995.03,-487.82 929.75,-532.62 869.44,-574.02 783.92,-576.91 723.32,-572.18"/>
<polygon fill="#63b8ff" stroke="#63b8ff" points="1037.38,-345.87 1036,-335.36 1030.53,-344.44 1037.38,-345.87"/>
</a>
</g>
</g>
<!-- Node33 -->
<g id="Node000033" class="node">
<title>Node33</title>
<g id="a_Node000033"><a xlink:href="../../dd/df1/class_slic3r_1_1_g_u_i_1_1_g_l_gizmo_emboss.html#a590df858d708af4fba0dde81a8a0bbc9" target="_top" xlink:title=" ">
<polygon fill="white" stroke="#666666" points="516,-325.88 368,-325.88 368,-295.38 516,-295.38 516,-325.88"/>
<text text-anchor="start" x="376" y="-312.38" font-family="Helvetica,sans-Serif" font-size="10.00">Slic3r::GUI::GLGizmoEmboss</text>
<text text-anchor="middle" x="442" y="-301.12" font-family="Helvetica,sans-Serif" font-size="10.00">::draw_depth</text>
</a>
</g>
</g>
<!-- Node27&#45;&gt;Node33 -->
<g id="edge26_Node000027_Node000033" class="edge">
<title>Node27&#45;&gt;Node33</title>
<g id="a_edge26_Node000027_Node000033"><a xlink:title=" ">
<path fill="none" stroke="#63b8ff" d="M954.5,-317.03C946.14,-316.89 937.78,-316.75 929.75,-316.62 783.14,-314.38 611.68,-312.42 516.39,-311.39"/>
<polygon fill="#63b8ff" stroke="#63b8ff" points="954.4,-320.54 964.46,-317.22 954.52,-313.55 954.4,-320.54"/>
</a>
</g>
</g>
<!-- Node34 -->
<g id="Node000034" class="node">
<title>Node34</title>
<g id="a_Node000034"><a xlink:href="../../dd/df1/class_slic3r_1_1_g_u_i_1_1_g_l_gizmo_emboss.html#a59f3764ba84147ac4c921708d0e7b2bd" target="_top" xlink:title=" ">
<polygon fill="white" stroke="#666666" points="722.88,-383.88 574.88,-383.88 574.88,-353.38 722.88,-353.38 722.88,-383.88"/>
<text text-anchor="start" x="582.88" y="-370.38" font-family="Helvetica,sans-Serif" font-size="10.00">Slic3r::GUI::GLGizmoEmboss</text>
<text text-anchor="middle" x="648.88" y="-359.12" font-family="Helvetica,sans-Serif" font-size="10.00">::draw_font_list</text>
</a>
</g>
</g>
<!-- Node27&#45;&gt;Node34 -->
<g id="edge28_Node000027_Node000034" class="edge">
<title>Node27&#45;&gt;Node34</title>
<g id="a_edge28_Node000027_Node000034"><a xlink:title=" ">
<path fill="none" stroke="#63b8ff" d="M1000.32,-339.14C979.96,-348.88 954.17,-359.5 929.75,-364.62 860.79,-379.09 780.16,-378.46 723.2,-375.18"/>
<polygon fill="#63b8ff" stroke="#63b8ff" points="1001.71,-341.86 1009.14,-334.3 998.62,-335.58 1001.71,-341.86"/>
</a>
</g>
</g>
<!-- Node35 -->
<g id="Node000035" class="node">
<title>Node35</title>
<g id="a_Node000035"><a xlink:href="../../dd/df1/class_slic3r_1_1_g_u_i_1_1_g_l_gizmo_emboss.html#a8c153bdbd4a0d109111f54959cd25efc" target="_top" xlink:title=" ">
<polygon fill="white" stroke="#666666" points="516,-383.88 368,-383.88 368,-353.38 516,-353.38 516,-383.88"/>
<text text-anchor="start" x="376" y="-370.38" font-family="Helvetica,sans-Serif" font-size="10.00">Slic3r::GUI::GLGizmoEmboss</text>
<text text-anchor="middle" x="442" y="-359.12" font-family="Helvetica,sans-Serif" font-size="10.00">::draw_font_list_line</text>
</a>
</g>
</g>
<!-- Node27&#45;&gt;Node35 -->
<g id="edge31_Node000027_Node000035" class="edge">
<title>Node27&#45;&gt;Node35</title>
<g id="a_edge31_Node000027_Node000035"><a xlink:title=" ">
<path fill="none" stroke="#63b8ff" d="M1031.98,-344.63C1019.61,-386.16 988.99,-466.15 929.75,-499.62 856.06,-541.27 620.53,-500.32 552,-450.62 526.2,-431.92 541.25,-408.06 516,-388.62 513.92,-387.02 511.71,-385.55 509.42,-384.19"/>
<polygon fill="#63b8ff" stroke="#63b8ff" points="1035.56,-345.82 1034.93,-335.25 1028.83,-343.91 1035.56,-345.82"/>
</a>
</g>
</g>
<!-- Node36 -->
<g id="Node000036" class="node">
<title>Node36</title>
<g id="a_Node000036"><a xlink:href="../../dd/df1/class_slic3r_1_1_g_u_i_1_1_g_l_gizmo_emboss.html#a97a835887a88039d309567f96d86af31" target="_top" xlink:title=" ">
<polygon fill="white" stroke="#666666" points="722.88,-279.88 574.88,-279.88 574.88,-249.38 722.88,-249.38 722.88,-279.88"/>
<text text-anchor="start" x="582.88" y="-266.38" font-family="Helvetica,sans-Serif" font-size="10.00">Slic3r::GUI::GLGizmoEmboss</text>
<text text-anchor="middle" x="648.88" y="-255.12" font-family="Helvetica,sans-Serif" font-size="10.00">::draw_height</text>
</a>
</g>
</g>
<!-- Node27&#45;&gt;Node36 -->
<g id="edge32_Node000027_Node000036" class="edge">
<title>Node27&#45;&gt;Node36</title>
<g id="a_edge32_Node000027_Node000036"><a xlink:title=" ">
<path fill="none" stroke="#63b8ff" d="M987.65,-299.39C969.6,-293.36 949.01,-287.31 929.75,-283.62 860.51,-270.36 780.09,-266.02 723.27,-264.76"/>
<polygon fill="#63b8ff" stroke="#63b8ff" points="986.36,-302.99 996.96,-302.92 988.63,-296.37 986.36,-302.99"/>
</a>
</g>
</g>
<!-- Node37 -->
<g id="Node000037" class="node">
<title>Node37</title>
<g id="a_Node000037"><a xlink:href="../../dd/df1/class_slic3r_1_1_g_u_i_1_1_g_l_gizmo_emboss.html#aecc71dc76e0faa47b2f868fe3e3a911b" target="_top" xlink:title=" ">
<polygon fill="white" stroke="#666666" points="516,-239.88 368,-239.88 368,-209.38 516,-209.38 516,-239.88"/>
<text text-anchor="start" x="376" y="-226.38" font-family="Helvetica,sans-Serif" font-size="10.00">Slic3r::GUI::GLGizmoEmboss</text>
<text text-anchor="middle" x="442" y="-215.12" font-family="Helvetica,sans-Serif" font-size="10.00">::draw_model_type</text>
</a>
</g>
</g>
<!-- Node27&#45;&gt;Node37 -->
<g id="edge34_Node000027_Node000037" class="edge">
<title>Node27&#45;&gt;Node37</title>
<g id="a_edge34_Node000027_Node000037"><a xlink:title=" ">
<path fill="none" stroke="#63b8ff" d="M1005.33,-297.5C984.41,-285.3 956.45,-270.79 929.75,-262.62 788.1,-219.31 613.03,-217.42 516.17,-220.59"/>
<polygon fill="#63b8ff" stroke="#63b8ff" points="1003.33,-300.98 1013.71,-303.09 1006.91,-294.96 1003.33,-300.98"/>
</a>
</g>
</g>
<!-- Node38 -->
<g id="Node000038" class="node">
<title>Node38</title>
<g id="a_Node000038"><a xlink:href="../../dd/df1/class_slic3r_1_1_g_u_i_1_1_g_l_gizmo_emboss.html#a5607073bb80b59ef5ce8d078a63109a6" target="_top" xlink:title=" ">
<polygon fill="white" stroke="#666666" points="722.88,-193.88 574.88,-193.88 574.88,-163.38 722.88,-163.38 722.88,-193.88"/>
<text text-anchor="start" x="582.88" y="-180.38" font-family="Helvetica,sans-Serif" font-size="10.00">Slic3r::GUI::GLGizmoEmboss</text>
<text text-anchor="middle" x="648.88" y="-169.12" font-family="Helvetica,sans-Serif" font-size="10.00">::draw_text_input</text>
</a>
</g>
</g>
<!-- Node27&#45;&gt;Node38 -->
<g id="edge37_Node000027_Node000038" class="edge">
<title>Node27&#45;&gt;Node38</title>
<g id="a_edge37_Node000027_Node000038"><a xlink:title=" ">
<path fill="none" stroke="#63b8ff" d="M1010.95,-295.92C996.85,-283.91 979.79,-268.59 965.75,-253.62 947.98,-234.69 952.47,-220.19 929.75,-207.62 866.37,-172.59 782.54,-168.41 723.2,-171.09"/>
<polygon fill="#63b8ff" stroke="#63b8ff" points="1008.38,-299.18 1018.29,-302.94 1012.89,-293.83 1008.38,-299.18"/>
</a>
</g>
</g>
<!-- Node39 -->
<g id="Node000039" class="node">
<title>Node39</title>
<g id="a_Node000039"><a xlink:href="../../dd/df1/class_slic3r_1_1_g_u_i_1_1_g_l_gizmo_emboss.html#a314b6054822747e4007fb66ba117fe9b" target="_top" xlink:title=" ">
<polygon fill="white" stroke="#666666" points="929.75,-441.88 781.75,-441.88 781.75,-411.38 929.75,-411.38 929.75,-441.88"/>
<text text-anchor="start" x="789.75" y="-428.38" font-family="Helvetica,sans-Serif" font-size="10.00">Slic3r::GUI::GLGizmoEmboss</text>
<text text-anchor="middle" x="855.75" y="-417.12" font-family="Helvetica,sans-Serif" font-size="10.00">::on_mouse_for_translate</text>
</a>
</g>
</g>
<!-- Node27&#45;&gt;Node39 -->
<g id="edge40_Node000027_Node000039" class="edge">
<title>Node27&#45;&gt;Node39</title>
<g id="a_edge40_Node000027_Node000039"><a xlink:title=" ">
<path fill="none" stroke="#63b8ff" d="M1011.9,-341.01C990.58,-358.04 959.5,-381.27 929.75,-397.62 920.79,-402.55 910.81,-407.08 901.18,-411.02"/>
<polygon fill="#63b8ff" stroke="#63b8ff" points="1013.84,-343.13 1019.41,-334.12 1009.44,-337.69 1013.84,-343.13"/>
</a>
</g>
</g>
<!-- Node41 -->
<g id="Node000041" class="node">
<title>Node41</title>
<g id="a_Node000041"><a xlink:href="../../dd/df1/class_slic3r_1_1_g_u_i_1_1_g_l_gizmo_emboss.html#a261634051a15f8df2fed8b6fe4a9f225" target="_top" xlink:title=" ">
<polygon fill="white" stroke="#666666" points="929.75,-490.88 781.75,-490.88 781.75,-460.38 929.75,-460.38 929.75,-490.88"/>
<text text-anchor="start" x="789.75" y="-477.38" font-family="Helvetica,sans-Serif" font-size="10.00">Slic3r::GUI::GLGizmoEmboss</text>
<text text-anchor="middle" x="855.75" y="-466.12" font-family="Helvetica,sans-Serif" font-size="10.00">::on_stop_dragging</text>
</a>
</g>
</g>
<!-- Node27&#45;&gt;Node41 -->
<g id="edge42_Node000027_Node000041" class="edge">
<title>Node27&#45;&gt;Node41</title>
<g id="a_edge42_Node000027_Node000041"><a xlink:title=" ">
<path fill="none" stroke="#63b8ff" d="M1024.41,-343.21C1006.02,-372.7 971.47,-421.76 929.75,-450.62 924.57,-454.21 918.84,-457.32 912.92,-460.01"/>
<polygon fill="#63b8ff" stroke="#63b8ff" points="1027.79,-345.38 1030.01,-335.02 1021.82,-341.73 1027.79,-345.38"/>
</a>
</g>
</g>
<!-- Node42 -->
<g id="Node000042" class="node">
<title>Node42</title>
<g id="a_Node000042"><a xlink:href="../../dd/df1/class_slic3r_1_1_g_u_i_1_1_g_l_gizmo_emboss.html#a2abb199f3d6847d7051fb0b7c226df61" target="_top" xlink:title=" ">
<polygon fill="white" stroke="#666666" points="929.75,-355.88 781.75,-355.88 781.75,-325.38 929.75,-325.38 929.75,-355.88"/>
<text text-anchor="start" x="789.75" y="-342.38" font-family="Helvetica,sans-Serif" font-size="10.00">Slic3r::GUI::GLGizmoEmboss</text>
<text text-anchor="middle" x="855.75" y="-331.12" font-family="Helvetica,sans-Serif" font-size="10.00">::select_facename</text>
</a>
</g>
</g>
<!-- Node27&#45;&gt;Node42 -->
<g id="edge43_Node000027_Node000042" class="edge">
<title>Node27&#45;&gt;Node42</title>
<g id="a_edge43_Node000027_Node000042"><a xlink:title=" ">
<path fill="none" stroke="#63b8ff" d="M954.77,-328.78C946.54,-329.77 938.24,-330.77 930.14,-331.75"/>
<polygon fill="#63b8ff" stroke="#63b8ff" points="955,-332.15 964.51,-327.48 954.16,-325.2 955,-332.15"/>
</a>
</g>
</g>
<!-- Node28&#45;&gt;Node29 -->
<g id="edge21_Node000028_Node000029" class="edge">
<title>Node28&#45;&gt;Node29</title>
<g id="a_edge21_Node000028_Node000029"><a xlink:title=" ">
<path fill="none" stroke="#63b8ff" d="M386.57,-158.49C380.2,-161.33 373.88,-164.39 368,-167.62 334,-186.32 298.26,-213.98 277.34,-231.13"/>
<polygon fill="#63b8ff" stroke="#63b8ff" points="387.74,-161.37 395.57,-154.23 385,-154.93 387.74,-161.37"/>
</a>
</g>
</g>
<!-- Node30 -->
<g id="Node000030" class="node">
<title>Node30</title>
<g id="a_Node000030"><a xlink:href="../../dd/df1/class_slic3r_1_1_g_u_i_1_1_g_l_gizmo_emboss.html#adcf76968843c4bbb8646d4a51a04867c" target="_top" xlink:title=" ">
<polygon fill="white" stroke="#666666" points="148,-261.88 0,-261.88 0,-231.38 148,-231.38 148,-261.88"/>
<text text-anchor="start" x="8" y="-248.38" font-family="Helvetica,sans-Serif" font-size="10.00">Slic3r::GUI::GLGizmoEmboss</text>
<text text-anchor="middle" x="74" y="-237.12" font-family="Helvetica,sans-Serif" font-size="10.00">::on_render_input_window</text>
</a>
</g>
</g>
<!-- Node29&#45;&gt;Node30 -->
<g id="edge22_Node000029_Node000030" class="edge">
<title>Node29&#45;&gt;Node30</title>
<g id="a_edge22_Node000029_Node000030"><a xlink:title=" ">
<path fill="none" stroke="#63b8ff" d="M173.02,-246.62C164.79,-246.62 156.49,-246.62 148.39,-246.62"/>
<polygon fill="#63b8ff" stroke="#63b8ff" points="172.76,-250.13 182.76,-246.62 172.76,-243.13 172.76,-250.13"/>
</a>
</g>
</g>
<!-- Node31&#45;&gt;Node32 -->
<g id="edge24_Node000031_Node000032" class="edge">
<title>Node31&#45;&gt;Node32</title>
<g id="a_edge24_Node000031_Node000032"><a xlink:title=" ">
<path fill="none" stroke="#63b8ff" d="M770.57,-584.01C754.82,-581.09 738.48,-578.06 723.09,-575.21"/>
<polygon fill="#63b8ff" stroke="#63b8ff" points="769.89,-587.63 780.36,-586.01 771.17,-580.75 769.89,-587.63"/>
</a>
</g>
</g>
<!-- Node32&#45;&gt;Node29 -->
<g id="edge25_Node000032_Node000029" class="edge">
<title>Node32&#45;&gt;Node29</title>
<g id="a_edge25_Node000032_Node000029"><a xlink:title=" ">
<path fill="none" stroke="#63b8ff" d="M574.32,-542.35C566.63,-539.46 559.05,-536.23 552,-532.62 460.48,-485.9 440.33,-465.62 368,-392.62 325.7,-349.93 286.15,-290.19 268.56,-262.22"/>
<polygon fill="#63b8ff" stroke="#63b8ff" points="572.88,-545.91 583.47,-545.95 575.22,-539.31 572.88,-545.91"/>
</a>
</g>
</g>
<!-- Node33&#45;&gt;Node29 -->
<g id="edge27_Node000033_Node000029" class="edge">
<title>Node33&#45;&gt;Node29</title>
<g id="a_edge27_Node000033_Node000029"><a xlink:title=" ">
<path fill="none" stroke="#63b8ff" d="M386.25,-291.37C359.87,-282.09 328.62,-271.11 303.69,-262.34"/>
<polygon fill="#63b8ff" stroke="#63b8ff" points="384.88,-294.95 395.48,-294.97 387.21,-288.35 384.88,-294.95"/>
</a>
</g>
</g>
<!-- Node34&#45;&gt;Node35 -->
<g id="edge29_Node000034_Node000035" class="edge">
<title>Node34&#45;&gt;Node35</title>
<g id="a_edge29_Node000034_Node000035"><a xlink:title=" ">
<path fill="none" stroke="#63b8ff" d="M563.7,-368.62C547.95,-368.62 531.6,-368.62 516.22,-368.62"/>
<polygon fill="#63b8ff" stroke="#63b8ff" points="563.49,-372.13 573.49,-368.62 563.49,-365.13 563.49,-372.13"/>
</a>
</g>
</g>
<!-- Node35&#45;&gt;Node29 -->
<g id="edge30_Node000035_Node000029" class="edge">
<title>Node35&#45;&gt;Node29</title>
<g id="a_edge30_Node000035_Node000029"><a xlink:title=" ">
<path fill="none" stroke="#63b8ff" d="M393.04,-348.33C384.51,-344.15 375.84,-339.52 368,-334.62 332.92,-312.75 296.36,-281.12 275.76,-262.34"/>
<polygon fill="#63b8ff" stroke="#63b8ff" points="391.41,-351.9 401.95,-353.02 394.41,-345.58 391.41,-351.9"/>
</a>
</g>
</g>
<!-- Node36&#45;&gt;Node29 -->
<g id="edge33_Node000036_Node000029" class="edge">
<title>Node36&#45;&gt;Node29</title>
<g id="a_edge33_Node000036_Node000029"><a xlink:title=" ">
<path fill="none" stroke="#63b8ff" d="M563.92,-260.74C495,-257.55 398.37,-253.08 332.48,-250.03"/>
<polygon fill="#63b8ff" stroke="#63b8ff" points="563.58,-264.27 573.73,-261.24 563.9,-257.28 563.58,-264.27"/>
</a>
</g>
</g>
<!-- Node37&#45;&gt;Node29 -->
<g id="edge35_Node000037_Node000029" class="edge">
<title>Node37&#45;&gt;Node29</title>
<g id="a_edge35_Node000037_Node000029"><a xlink:title=" ">
<path fill="none" stroke="#63b8ff" d="M357.02,-234.78C348.79,-235.77 340.49,-236.77 332.39,-237.75"/>
<polygon fill="#63b8ff" stroke="#63b8ff" points="357.25,-238.15 366.76,-233.48 356.41,-231.2 357.25,-238.15"/>
</a>
</g>
</g>
<!-- Node38&#45;&gt;Node29 -->
<g id="edge38_Node000038_Node000029" class="edge">
<title>Node38&#45;&gt;Node29</title>
<g id="a_edge38_Node000038_Node000029"><a xlink:title=" ">
<path fill="none" stroke="#63b8ff" d="M563.42,-178.26C507.3,-179.72 432.37,-184.95 368,-200.62 340.06,-207.43 310.08,-220.55 288.65,-231.04"/>
<polygon fill="#63b8ff" stroke="#63b8ff" points="563.46,-181.74 573.38,-178.01 563.3,-174.74 563.46,-181.74"/>
</a>
</g>
</g>
<!-- Node40 -->
<g id="Node000040" class="node">
<title>Node40</title>
<g id="a_Node000040"><a xlink:href="../../dd/df1/class_slic3r_1_1_g_u_i_1_1_g_l_gizmo_emboss.html#acac6ee7c40ce0415d7a14394ab672ea0" target="_top" xlink:title="Rotate by text on dragging rotate grabers.">
<polygon fill="white" stroke="#666666" points="722.88,-441.88 574.88,-441.88 574.88,-411.38 722.88,-411.38 722.88,-441.88"/>
<text text-anchor="start" x="582.88" y="-428.38" font-family="Helvetica,sans-Serif" font-size="10.00">Slic3r::GUI::GLGizmoEmboss</text>
<text text-anchor="middle" x="648.88" y="-417.12" font-family="Helvetica,sans-Serif" font-size="10.00">::on_mouse</text>
</a>
</g>
</g>
<!-- Node39&#45;&gt;Node40 -->
<g id="edge41_Node000039_Node000040" class="edge">
<title>Node39&#45;&gt;Node40</title>
<g id="a_edge41_Node000039_Node000040"><a xlink:title=" ">
<path fill="none" stroke="#63b8ff" d="M770.57,-426.62C754.82,-426.62 738.48,-426.62 723.09,-426.62"/>
<polygon fill="#63b8ff" stroke="#63b8ff" points="770.36,-430.13 780.36,-426.62 770.36,-423.13 770.36,-430.13"/>
</a>
</g>
</g>
<!-- Node42&#45;&gt;Node34 -->
<g id="edge44_Node000042_Node000034" class="edge">
<title>Node42&#45;&gt;Node34</title>
<g id="a_edge44_Node000042_Node000034"><a xlink:title=" ">
<path fill="none" stroke="#63b8ff" d="M770.57,-352.13C754.82,-354.28 738.48,-356.52 723.09,-358.62"/>
<polygon fill="#63b8ff" stroke="#63b8ff" points="770.93,-355.48 780.36,-350.65 769.98,-348.54 770.93,-355.48"/>
</a>
</g>
</g>
<!-- Node43&#45;&gt;Node43 -->
<g id="edge47_Node000043_Node000043" class="edge">
<title>Node43&#45;&gt;Node43</title>
<g id="a_edge47_Node000043_Node000043"><a xlink:title=" ">
<path fill="none" stroke="#63b8ff" d="M1069.48,-236.63C1066.67,-241.04 1056.76,-244.25 1039.75,-244.25 1011.1,-244.25 1002.59,-235.15 1014.23,-226.54"/>
<polygon fill="#63b8ff" stroke="#63b8ff" points="1072.35,-235.42 1065.27,-227.54 1065.89,-238.11 1072.35,-235.42"/>
</a>
</g>
</g>
<!-- Node44 -->
<g id="Node000044" class="node">
<title>Node44</title>
<g id="a_Node000044"><a xlink:href="../../de/d87/class_slic3r_1_1_print_object.html#ae11dcd0f7214fd53ec5d46d9dbafcee0" target="_top" xlink:title=" ">
<polygon fill="white" stroke="#666666" points="903.5,-67.88 808,-67.88 808,-37.38 903.5,-37.38 903.5,-67.88"/>
<text text-anchor="start" x="816" y="-54.38" font-family="Helvetica,sans-Serif" font-size="10.00">Slic3r::PrintObject</text>
<text text-anchor="middle" x="855.75" y="-43.12" font-family="Helvetica,sans-Serif" font-size="10.00">::slice_volumes</text>
</a>
</g>
</g>
<!-- Node43&#45;&gt;Node44 -->
<g id="edge46_Node000043_Node000044" class="edge">
<title>Node43&#45;&gt;Node44</title>
<g id="a_edge46_Node000043_Node000044"><a xlink:title=" ">
<path fill="none" stroke="#63b8ff" d="M1025.43,-197.83C1001.79,-164.89 952.82,-98.62 929.75,-81.62 921.95,-75.88 912.87,-71.1 903.81,-67.17"/>
<polygon fill="#63b8ff" stroke="#63b8ff" points="1022.98,-199.43 1031.64,-205.53 1028.68,-195.36 1022.98,-199.43"/>
</a>
</g>
</g>
<!-- Node45&#45;&gt;Node45 -->
<g id="edge50_Node000045_Node000045" class="edge">
<title>Node45&#45;&gt;Node45</title>
<g id="a_edge50_Node000045_Node000045"><a xlink:title=" ">
<path fill="none" stroke="#63b8ff" d="M1067.46,-100.25C1063.13,-104.2 1053.9,-106.88 1039.75,-106.88 1014.6,-106.88 1004.97,-98.43 1010.87,-89.36"/>
<polygon fill="#63b8ff" stroke="#63b8ff" points="1071.04,-100.68 1068.63,-90.36 1064.08,-99.93 1071.04,-100.68"/>
</a>
</g>
</g>
<!-- Node46 -->
<g id="Node000046" class="node">
<title>Node46</title>
<g id="a_Node000046"><a xlink:href="../../d5/d8f/class_slic3r_1_1_print.html#a9cbee0a5faf2afecd2d7120d69074960" target="_top" xlink:title=" ">
<polygon fill="white" stroke="#666666" points="903.88,-19.25 807.62,-19.25 807.62,0 903.88,0 903.88,-19.25"/>
<text text-anchor="middle" x="855.75" y="-5.75" font-family="Helvetica,sans-Serif" font-size="10.00">Slic3r::Print::apply</text>
</a>
</g>
</g>
<!-- Node45&#45;&gt;Node46 -->
<g id="edge49_Node000045_Node000046" class="edge">
<title>Node45&#45;&gt;Node46</title>
<g id="a_edge49_Node000045_Node000046"><a xlink:title=" ">
<path fill="none" stroke="#63b8ff" d="M994.49,-53.74C974.89,-45.35 951.41,-35.88 929.75,-28.62 920.06,-25.38 909.5,-22.35 899.5,-19.7"/>
<polygon fill="#63b8ff" stroke="#63b8ff" points="992.79,-57.25 1003.36,-58.01 995.57,-50.82 992.79,-57.25"/>
</a>
</g>
</g>
</g>
</svg>

<g id="navigator" transform="translate(0 0)" fill="#404254">
  <rect fill="#f2f5e9" fill-opacity="0.5" stroke="#606060" stroke-width=".5" x="0" y="0" width="60" height="60"/>
  <use id="zoomplus" xlink:href="#zoomPlus" x="17" y="9" onmousedown="handleZoom(evt,'in')"/>
  <use id="zoomminus" xlink:href="#zoomMin" x="42" y="9" onmousedown="handleZoom(evt,'out')"/>
  <use id="reset" xlink:href="#resetDef" x="30" y="36" onmousedown="handleReset()"/>
   <use id="arrowup" xlink:href="#arrowUp" x="0" y="0" onmousedown="handlePan(0,-1)"/>
  <use id="arrowright" xlink:href="#arrowRight" x="0" y="0" onmousedown="handlePan(1,0)"/>
  <use id="arrowdown" xlink:href="#arrowDown" x="0" y="0" onmousedown="handlePan(0,1)"/>
  <use id="arrowleft" xlink:href="#arrowLeft" x="0" y="0" onmousedown="handlePan(-1,0)"/>
</g>
<svg viewBox="0 0 15 15" width="100%" height="30px" preserveAspectRatio="xMaxYMin meet">
 <g id="arrow_out" transform="scale(0.3 0.3)">
  <a xlink:href="class_slic3r_1_1_model_volume_a710356dc6d62ccbd454391339585b460_icgraph_org.svg" target="_base">
   <rect id="button" ry="5" rx="5" y="6" x="6" height="38" width="38"
        fill="#f2f5e9" fill-opacity="0.5" stroke="#606060" stroke-width="1.0"/>
   <path id="arrow"
     d="M 11.500037,31.436501 C 11.940474,20.09759 22.043105,11.32322 32.158766,21.979434 L 37.068811,17.246167 C 37.068811,17.246167 37.088388,32 37.088388,32 L 22.160133,31.978069 C 22.160133,31.978069 26.997745,27.140456 26.997745,27.140456 C 18.528582,18.264221 13.291696,25.230495 11.500037,31.436501 z"
     style="fill:#404040;"/>
  </a>
 </g>
</svg>

<style type='text/css'>
<![CDATA[
[data-mouse-over-selected='false'] { opacity: 0.7; }
[data-mouse-over-selected='true']  { opacity: 1.0; }
]]>
</style>
<script type="application/ecmascript"><![CDATA[
document.addEventListener('DOMContentLoaded', (event) => {
  highlightEdges();
  highlightAdjacentNodes();
});
]]></script>
</svg>
