<?xml version="1.0" encoding="UTF-8" standalone="no"?>
<!DOCTYPE svg PUBLIC "-//W3C//DTD SVG 1.1//EN"
 "http://www.w3.org/Graphics/SVG/1.1/DTD/svg11.dtd">
<!-- Generated by graphviz version 8.0.5 (20230430.1635)
 -->
<!-- Title: Slic3r::Fill::new_from_type Pages: 1 -->
<!--zoomable 182 -->

<svg id="main" version="1.1" xmlns="http://www.w3.org/2000/svg" xmlns:xlink="http://www.w3.org/1999/xlink" xml:space="preserve" onload="init(evt)">
<style type="text/css"><![CDATA[
.node, .edge {opacity: 0.7;}
.node.selected, .edge.selected {opacity: 1;}
.edge:hover path { stroke: red; }
.edge:hover polygon { stroke: red; fill: red; }
]]></style>

<defs>
  <circle id="rim" cx="0" cy="0" r="7"/>
  <circle id="rim2" cx="0" cy="0" r="3.5"/>
  <g id="zoomPlus">
    <use xlink:href="#rim" fill="#404040"><set attributeName="fill" to="#808080" begin="zoomplus.mouseover" end="zoomplus.mouseout"/></use>
    <path d="M-4,0h8M0,-4v8" fill="none" stroke="white" stroke-width="1.5" pointer-events="none"/>
  </g>
  <g id="zoomMin">
    <use xlink:href="#rim" fill="#404040"><set attributeName="fill" to="#808080" begin="zoomminus.mouseover" end="zoomminus.mouseout"/></use>
    <path d="M-4,0h8" fill="none" stroke="white" stroke-width="1.5" pointer-events="none"/>
  </g>
  <g id="arrowUp" transform="translate(30 24)">
    <use xlink:href="#rim"/>
    <path pointer-events="none" fill="none" stroke="white" stroke-width="1.5" d="M0,-3.0v7 M-2.5,-0.5L0,-3.0L2.5,-0.5"/>
  </g>
  <g id="arrowRight" transform="rotate(90) translate(36 -43)">
    <use xlink:href="#rim"/>
    <path pointer-events="none" fill="none" stroke="white" stroke-width="1.5" d="M0,-3.0v7 M-2.5,-0.5L0,-3.0L2.5,-0.5"/>
  </g>
  <g id="arrowDown" transform="rotate(180) translate(-30 -48)">
    <use xlink:href="#rim"/>
    <path pointer-events="none" fill="none" stroke="white" stroke-width="1.5" d="M0,-3.0v7 M-2.5,-0.5L0,-3.0L2.5,-0.5"/>
  </g>
  <g id="arrowLeft" transform="rotate(270) translate(-36 17)">
    <use xlink:href="#rim"/>
    <path pointer-events="none" fill="none" stroke="white" stroke-width="1.5" d="M0,-3.0v7 M-2.5,-0.5L0,-3.0L2.5,-0.5"/>
  </g>
  <g id="resetDef">
    <use xlink:href="#rim2" fill="#404040"><set attributeName="fill" to="#808080" begin="reset.mouseover" end="reset.mouseout"/></use>
  </g>
</defs>
<script type="application/ecmascript">
var viewWidth = 921;
var viewHeight = 182;
var sectionId = 'dynsection-17';
</script>
<script type="application/ecmascript" xlink:href="../../svg.min.js"/>
<svg id="graph" class="graph">
<g id="viewport">
<title>Slic3r::Fill::new_from_type</title>
<!-- Node1 -->
<g id="Node000001" class="node">
<title>Node1</title>
<g id="a_Node000001"><a xlink:title=" ">
<polygon fill="#999999" stroke="#666666" points="912.75,-77.25 780.5,-77.25 780.5,-58 912.75,-58 912.75,-77.25"/>
<text text-anchor="middle" x="846.62" y="-63.75" font-family="Helvetica,sans-Serif" font-size="10.00">Slic3r::Fill::new_from_type</text>
</a>
</g>
</g>
<!-- Node2 -->
<g id="Node000002" class="node">
<title>Node2</title>
<g id="a_Node000002"><a xlink:href="../../db/d2e/class_slic3r_1_1_wipe_tower.html#a271549be787814f42bca2e196c5a5023" target="_top" xlink:title=" ">
<polygon fill="white" stroke="#666666" points="722.75,-158.88 621.25,-158.88 621.25,-128.38 722.75,-128.38 722.75,-158.88"/>
<text text-anchor="start" x="629.25" y="-145.38" font-family="Helvetica,sans-Serif" font-size="10.00">Slic3r::WipeTower::</text>
<text text-anchor="middle" x="672" y="-134.12" font-family="Helvetica,sans-Serif" font-size="10.00">finish_layer</text>
</a>
</g>
</g>
<!-- Node1&#45;&gt;Node2 -->
<g id="edge1_Node000001_Node000002" class="edge">
<title>Node1&#45;&gt;Node2</title>
<g id="a_edge1_Node000001_Node000002"><a xlink:title=" ">
<path fill="none" stroke="#63b8ff" d="M814.23,-82.19C794.32,-91.36 767.98,-103.36 744.5,-113.62 733.65,-118.37 721.8,-123.4 710.94,-127.95"/>
<polygon fill="#63b8ff" stroke="#63b8ff" points="815.4,-85.05 823.01,-77.68 812.46,-78.69 815.4,-85.05"/>
</a>
</g>
</g>
<!-- Node7 -->
<g id="Node000007" class="node">
<title>Node7</title>
<g id="a_Node000007"><a xlink:href="../../dd/df4/namespace_slic3r_1_1_f_f_f_tree_support.html#af3db90eed67f0d35149aa2b62a56c618" target="_top" xlink:title="Returns Polylines representing the (infill) lines that will result in slicing the given area.">
<polygon fill="white" stroke="#666666" points="744.5,-104.88 599.5,-104.88 599.5,-74.38 744.5,-74.38 744.5,-104.88"/>
<text text-anchor="start" x="607.5" y="-91.38" font-family="Helvetica,sans-Serif" font-size="10.00">Slic3r::FFFTreeSupport</text>
<text text-anchor="middle" x="672" y="-80.12" font-family="Helvetica,sans-Serif" font-size="10.00">::generate_support_infill_lines</text>
</a>
</g>
</g>
<!-- Node1&#45;&gt;Node7 -->
<g id="edge7_Node000001_Node000007" class="edge">
<title>Node1&#45;&gt;Node7</title>
<g id="a_edge7_Node000001_Node000007"><a xlink:title=" ">
<path fill="none" stroke="#63b8ff" d="M769.68,-77.3C761.48,-78.35 753.15,-79.41 745,-80.45"/>
<polygon fill="#63b8ff" stroke="#63b8ff" points="769.89,-80.68 779.36,-75.94 769,-73.73 769.89,-80.68"/>
</a>
</g>
</g>
<!-- Node10 -->
<g id="Node000010" class="node">
<title>Node10</title>
<g id="a_Node000010"><a xlink:href="../../d7/dcc/class_slic3r_1_1_fill.html#a4e2b3b6bde08b10506e94ca14e6e356b" target="_top" xlink:title=" ">
<polygon fill="white" stroke="#666666" points="738.12,-56.25 605.88,-56.25 605.88,-37 738.12,-37 738.12,-56.25"/>
<text text-anchor="middle" x="672" y="-42.75" font-family="Helvetica,sans-Serif" font-size="10.00">Slic3r::Fill::new_from_type</text>
</a>
</g>
</g>
<!-- Node1&#45;&gt;Node10 -->
<g id="edge12_Node000001_Node000010" class="edge">
<title>Node1&#45;&gt;Node10</title>
<g id="a_edge12_Node000001_Node000010"><a xlink:title=" ">
<path fill="none" stroke="#63b8ff" d="M769.6,-58.38C759.18,-57.11 748.56,-55.82 738.35,-54.58"/>
<polygon fill="#63b8ff" stroke="#63b8ff" points="769.01,-61.95 779.36,-59.69 769.86,-55 769.01,-61.95"/>
</a>
</g>
</g>
<!-- Node11 -->
<g id="Node000011" class="node">
<title>Node11</title>
<g id="a_Node000011"><a xlink:href="../../d7/dcc/class_slic3r_1_1_fill.html#a002835c4d95ecc14b1e757f9b68641fe" target="_top" xlink:title=" ">
<polygon fill="white" stroke="#666666" points="740,-19.25 604,-19.25 604,0 740,0 740,-19.25"/>
<text text-anchor="middle" x="672" y="-5.75" font-family="Helvetica,sans-Serif" font-size="10.00">Slic3r::Fill::use_bridge_flow</text>
</a>
</g>
</g>
<!-- Node1&#45;&gt;Node11 -->
<g id="edge13_Node000001_Node000011" class="edge">
<title>Node1&#45;&gt;Node11</title>
<g id="a_edge13_Node000001_Node000011"><a xlink:title=" ">
<path fill="none" stroke="#63b8ff" d="M812.7,-53.34C793.12,-45.17 767.65,-35.08 744.5,-27.62 735.61,-24.76 725.97,-22.06 716.74,-19.68"/>
<polygon fill="#63b8ff" stroke="#63b8ff" points="811.07,-56.88 821.64,-57.54 813.79,-50.43 811.07,-56.88"/>
</a>
</g>
</g>
<!-- Node3 -->
<g id="Node000003" class="node">
<title>Node3</title>
<g id="a_Node000003"><a xlink:href="../../db/d2e/class_slic3r_1_1_wipe_tower.html#aaba2eb3a4147fd11a28c045198266777" target="_top" xlink:title=" ">
<polygon fill="white" stroke="#666666" points="393.75,-173.88 292.25,-173.88 292.25,-143.38 393.75,-143.38 393.75,-173.88"/>
<text text-anchor="start" x="300.25" y="-160.38" font-family="Helvetica,sans-Serif" font-size="10.00">Slic3r::WipeTower::</text>
<text text-anchor="middle" x="343" y="-149.12" font-family="Helvetica,sans-Serif" font-size="10.00">generate</text>
</a>
</g>
</g>
<!-- Node2&#45;&gt;Node3 -->
<g id="edge2_Node000002_Node000003" class="edge">
<title>Node2&#45;&gt;Node3</title>
<g id="a_edge2_Node000002_Node000003"><a xlink:title=" ">
<path fill="none" stroke="#63b8ff" d="M610.47,-159.58C595.25,-162.91 578.87,-165.93 563.5,-167.62 509.05,-173.63 494.97,-170.18 440.25,-167.62 425.16,-166.92 408.79,-165.6 393.89,-164.18"/>
<polygon fill="#63b8ff" stroke="#63b8ff" points="610.82,-162.86 619.8,-157.23 609.27,-156.03 610.82,-162.86"/>
</a>
</g>
</g>
<!-- Node6 -->
<g id="Node000006" class="node">
<title>Node6</title>
<g id="a_Node000006"><a xlink:href="../../db/d2e/class_slic3r_1_1_wipe_tower.html#a38118f226bd66ac4a077c974f92230e6" target="_top" xlink:title=" ">
<polygon fill="white" stroke="#666666" points="552.62,-158.88 451.12,-158.88 451.12,-128.38 552.62,-128.38 552.62,-158.88"/>
<text text-anchor="start" x="459.12" y="-145.38" font-family="Helvetica,sans-Serif" font-size="10.00">Slic3r::WipeTower::</text>
<text text-anchor="middle" x="501.88" y="-134.12" font-family="Helvetica,sans-Serif" font-size="10.00">save_on_last_wipe</text>
</a>
</g>
</g>
<!-- Node2&#45;&gt;Node6 -->
<g id="edge5_Node000002_Node000006" class="edge">
<title>Node2&#45;&gt;Node6</title>
<g id="a_edge5_Node000002_Node000006"><a xlink:title=" ">
<path fill="none" stroke="#63b8ff" d="M610.18,-143.62C591.4,-143.62 570.93,-143.62 552.96,-143.62"/>
<polygon fill="#63b8ff" stroke="#63b8ff" points="610.01,-147.13 620.01,-143.62 610.01,-140.13 610.01,-147.13"/>
</a>
</g>
</g>
<!-- Node4 -->
<g id="Node000004" class="node">
<title>Node4</title>
<g id="a_Node000004"><a xlink:href="../../d5/d8f/class_slic3r_1_1_print.html#af620bb29ea8659a472c026557cc66f43" target="_top" xlink:title=" ">
<polygon fill="white" stroke="#666666" points="245.75,-173.88 143.5,-173.88 143.5,-143.38 245.75,-143.38 245.75,-173.88"/>
<text text-anchor="start" x="151.5" y="-160.38" font-family="Helvetica,sans-Serif" font-size="10.00">Slic3r::Print::_make</text>
<text text-anchor="middle" x="194.62" y="-149.12" font-family="Helvetica,sans-Serif" font-size="10.00">_wipe_tower</text>
</a>
</g>
</g>
<!-- Node3&#45;&gt;Node4 -->
<g id="edge3_Node000003_Node000004" class="edge">
<title>Node3&#45;&gt;Node4</title>
<g id="a_edge3_Node000003_Node000004"><a xlink:title=" ">
<path fill="none" stroke="#63b8ff" d="M281.35,-158.62C269.55,-158.62 257.29,-158.62 245.86,-158.62"/>
<polygon fill="#63b8ff" stroke="#63b8ff" points="281.04,-162.13 291.04,-158.62 281.04,-155.13 281.04,-162.13"/>
</a>
</g>
</g>
<!-- Node5 -->
<g id="Node000005" class="node">
<title>Node5</title>
<g id="a_Node000005"><a xlink:href="../../d5/d8f/class_slic3r_1_1_print.html#a9323a02226e9ecffd2bbc0a28c0419e5" target="_top" xlink:title=" ">
<polygon fill="white" stroke="#666666" points="107.5,-168.25 0,-168.25 0,-149 107.5,-149 107.5,-168.25"/>
<text text-anchor="middle" x="53.75" y="-154.75" font-family="Helvetica,sans-Serif" font-size="10.00">Slic3r::Print::process</text>
</a>
</g>
</g>
<!-- Node4&#45;&gt;Node5 -->
<g id="edge4_Node000004_Node000005" class="edge">
<title>Node4&#45;&gt;Node5</title>
<g id="a_edge4_Node000004_Node000005"><a xlink:title=" ">
<path fill="none" stroke="#63b8ff" d="M132.16,-158.62C124.04,-158.62 115.77,-158.62 107.81,-158.62"/>
<polygon fill="#63b8ff" stroke="#63b8ff" points="132.1,-162.13 142.1,-158.62 132.1,-155.13 132.1,-162.13"/>
</a>
</g>
</g>
<!-- Node6&#45;&gt;Node3 -->
<g id="edge6_Node000006_Node000003" class="edge">
<title>Node6&#45;&gt;Node3</title>
<g id="a_edge6_Node000006_Node000003"><a xlink:title=" ">
<path fill="none" stroke="#63b8ff" d="M439.96,-149.45C424.8,-150.9 408.71,-152.44 394.13,-153.83"/>
<polygon fill="#63b8ff" stroke="#63b8ff" points="440.19,-152.85 449.81,-148.41 439.52,-145.88 440.19,-152.85"/>
</a>
</g>
</g>
<!-- Node8 -->
<g id="Node000008" class="node">
<title>Node8</title>
<g id="a_Node000008"><a xlink:href="../../d9/d4e/class_slic3r_1_1_f_f_f_tree_support_1_1_rich_interface_placer.html#a5cf51f0d9f9a04742a0179ed24433c9a" target="_top" xlink:title=" ">
<polygon fill="white" stroke="#666666" points="563.5,-110.5 440.25,-110.5 440.25,-68.75 563.5,-68.75 563.5,-110.5"/>
<text text-anchor="start" x="448.25" y="-97" font-family="Helvetica,sans-Serif" font-size="10.00">Slic3r::FFFTreeSupport</text>
<text text-anchor="start" x="448.25" y="-85.75" font-family="Helvetica,sans-Serif" font-size="10.00">::RichInterfacePlacer</text>
<text text-anchor="middle" x="501.88" y="-74.5" font-family="Helvetica,sans-Serif" font-size="10.00">::add_points_along_lines</text>
</a>
</g>
</g>
<!-- Node7&#45;&gt;Node8 -->
<g id="edge8_Node000007_Node000008" class="edge">
<title>Node7&#45;&gt;Node8</title>
<g id="a_edge8_Node000007_Node000008"><a xlink:title=" ">
<path fill="none" stroke="#63b8ff" d="M588.38,-89.62C580.11,-89.62 571.82,-89.62 563.84,-89.62"/>
<polygon fill="#63b8ff" stroke="#63b8ff" points="588.21,-93.13 598.21,-89.62 588.21,-86.13 588.21,-93.13"/>
</a>
</g>
</g>
<!-- Node9 -->
<g id="Node000009" class="node">
<title>Node9</title>
<g id="a_Node000009"><a xlink:href="../../dd/df4/namespace_slic3r_1_1_f_f_f_tree_support.html#a5bd26448acb9c08a9f4fd663da07c11c" target="_top" xlink:title=" ">
<polygon fill="white" stroke="#666666" points="404.25,-88.88 281.75,-88.88 281.75,-58.38 404.25,-58.38 404.25,-88.88"/>
<text text-anchor="start" x="289.75" y="-75.38" font-family="Helvetica,sans-Serif" font-size="10.00">Slic3r::FFFTreeSupport</text>
<text text-anchor="middle" x="343" y="-64.12" font-family="Helvetica,sans-Serif" font-size="10.00">::sample_overhang_area</text>
</a>
</g>
</g>
<!-- Node7&#45;&gt;Node9 -->
<g id="edge11_Node000007_Node000009" class="edge">
<title>Node7&#45;&gt;Node9</title>
<g id="a_edge11_Node000007_Node000009"><a xlink:title=" ">
<path fill="none" stroke="#63b8ff" d="M614.8,-70.84C598.45,-66.22 580.43,-61.94 563.5,-59.62 509.97,-52.3 448.55,-57.35 404.32,-63.33"/>
<polygon fill="#63b8ff" stroke="#63b8ff" points="613.7,-74.46 624.28,-73.9 615.67,-67.74 613.7,-74.46"/>
</a>
</g>
</g>
<!-- Node8&#45;&gt;Node9 -->
<g id="edge9_Node000008_Node000009" class="edge">
<title>Node8&#45;&gt;Node9</title>
<g id="a_edge9_Node000008_Node000009"><a xlink:title=" ">
<path fill="none" stroke="#63b8ff" d="M428.84,-82.28C420.76,-81.45 412.59,-80.62 404.68,-79.81"/>
<polygon fill="#63b8ff" stroke="#63b8ff" points="428.47,-85.86 438.77,-83.39 429.18,-78.9 428.47,-85.86"/>
</a>
</g>
</g>
<!-- Node9&#45;&gt;Node9 -->
<g id="edge10_Node000009_Node000009" class="edge">
<title>Node9&#45;&gt;Node9</title>
<g id="a_edge10_Node000009_Node000009"><a xlink:title=" ">
<path fill="none" stroke="#63b8ff" d="M368.22,-100.25C364.28,-104.2 355.88,-106.88 343,-106.88 320.11,-106.88 311.34,-98.43 316.71,-89.36"/>
<polygon fill="#63b8ff" stroke="#63b8ff" points="371.8,-100.66 369.29,-90.36 364.83,-99.97 371.8,-100.66"/>
</a>
</g>
</g>
</g>
</svg>

<g id="navigator" transform="translate(0 0)" fill="#404254">
  <rect fill="#f2f5e9" fill-opacity="0.5" stroke="#606060" stroke-width=".5" x="0" y="0" width="60" height="60"/>
  <use id="zoomplus" xlink:href="#zoomPlus" x="17" y="9" onmousedown="handleZoom(evt,'in')"/>
  <use id="zoomminus" xlink:href="#zoomMin" x="42" y="9" onmousedown="handleZoom(evt,'out')"/>
  <use id="reset" xlink:href="#resetDef" x="30" y="36" onmousedown="handleReset()"/>
   <use id="arrowup" xlink:href="#arrowUp" x="0" y="0" onmousedown="handlePan(0,-1)"/>
  <use id="arrowright" xlink:href="#arrowRight" x="0" y="0" onmousedown="handlePan(1,0)"/>
  <use id="arrowdown" xlink:href="#arrowDown" x="0" y="0" onmousedown="handlePan(0,1)"/>
  <use id="arrowleft" xlink:href="#arrowLeft" x="0" y="0" onmousedown="handlePan(-1,0)"/>
</g>
<svg viewBox="0 0 15 15" width="100%" height="30px" preserveAspectRatio="xMaxYMin meet">
 <g id="arrow_out" transform="scale(0.3 0.3)">
  <a xlink:href="class_slic3r_1_1_fill_ae4f0ccb5cf9427ade958c67faa188c64_icgraph_org.svg" target="_base">
   <rect id="button" ry="5" rx="5" y="6" x="6" height="38" width="38"
        fill="#f2f5e9" fill-opacity="0.5" stroke="#606060" stroke-width="1.0"/>
   <path id="arrow"
     d="M 11.500037,31.436501 C 11.940474,20.09759 22.043105,11.32322 32.158766,21.979434 L 37.068811,17.246167 C 37.068811,17.246167 37.088388,32 37.088388,32 L 22.160133,31.978069 C 22.160133,31.978069 26.997745,27.140456 26.997745,27.140456 C 18.528582,18.264221 13.291696,25.230495 11.500037,31.436501 z"
     style="fill:#404040;"/>
  </a>
 </g>
</svg>

<style type='text/css'>
<![CDATA[
[data-mouse-over-selected='false'] { opacity: 0.7; }
[data-mouse-over-selected='true']  { opacity: 1.0; }
]]>
</style>
<script type="application/ecmascript"><![CDATA[
document.addEventListener('DOMContentLoaded', (event) => {
  highlightEdges();
  highlightAdjacentNodes();
});
]]></script>
</svg>
