<?xml version="1.0" encoding="UTF-8" standalone="no"?>
<!DOCTYPE svg PUBLIC "-//W3C//DTD SVG 1.1//EN"
 "http://www.w3.org/Graphics/SVG/1.1/DTD/svg11.dtd">
<!-- Generated by graphviz version 8.0.5 (20230430.1635)
 -->
<!-- Title: src/libigl/igl/uniformly_sample_two_manifold.h Pages: 1 -->
<svg width="1172pt" height="393pt"
 viewBox="0.00 0.00 1171.50 392.50" xmlns="http://www.w3.org/2000/svg" xmlns:xlink="http://www.w3.org/1999/xlink">
<g id="graph0" class="graph" transform="scale(1 1) rotate(0) translate(4 388.5)">
<title>src/libigl/igl/uniformly_sample_two_manifold.h</title>
<!-- Node1 -->
<g id="Node000001" class="node">
<title>Node1</title>
<g id="a_Node000001"><a xlink:title=" ">
<polygon fill="#999999" stroke="#666666" points="801.12,-384.5 677.12,-384.5 677.12,-354 801.12,-354 801.12,-384.5"/>
<text text-anchor="start" x="685.12" y="-371" font-family="Helvetica,sans-Serif" font-size="10.00">src/libigl/igl/uniformly</text>
<text text-anchor="middle" x="739.12" y="-359.75" font-family="Helvetica,sans-Serif" font-size="10.00">_sample_two_manifold.h</text>
</a>
</g>
</g>
<!-- Node2 -->
<g id="Node000002" class="node">
<title>Node2</title>
<g id="a_Node000002"><a xlink:href="../../d6/d68/igl__inline_8h.html" target="_top" xlink:title=" ">
<polygon fill="white" stroke="#666666" points="369,-85.75 307.25,-85.75 307.25,-66.5 369,-66.5 369,-85.75"/>
<text text-anchor="middle" x="338.12" y="-72.25" font-family="Helvetica,sans-Serif" font-size="10.00">igl_inline.h</text>
</a>
</g>
</g>
<!-- Node1&#45;&gt;Node2 -->
<g id="edge1_Node000001_Node000002" class="edge">
<title>Node1&#45;&gt;Node2</title>
<g id="a_edge1_Node000001_Node000002"><a xlink:title=" ">
<path fill="none" stroke="#63b8ff" d="M676.81,-362.05C525.96,-345.57 148.48,-295.04 79.12,-196.25 31.27,-128.08 55.56,-197.81 205.12,-141 243.39,-126.47 285.7,-105.19 312.1,-91.25"/>
<polygon fill="#63b8ff" stroke="#63b8ff" points="313.55,-93.91 320.73,-86.12 310.26,-87.74 313.55,-93.91"/>
</a>
</g>
</g>
<!-- Node3 -->
<g id="Node000003" class="node">
<title>Node3</title>
<g id="a_Node000003"><a xlink:title=" ">
<polygon fill="#e0e0e0" stroke="#999999" points="754.25,-85.75 682,-85.75 682,-66.5 754.25,-66.5 754.25,-85.75"/>
<text text-anchor="middle" x="718.12" y="-72.25" font-family="Helvetica,sans-Serif" font-size="10.00">Eigen/Dense</text>
</a>
</g>
</g>
<!-- Node1&#45;&gt;Node3 -->
<g id="edge2_Node000001_Node000003" class="edge">
<title>Node1&#45;&gt;Node3</title>
<g id="a_edge2_Node000001_Node000003"><a xlink:title=" ">
<path fill="none" stroke="#63b8ff" d="M782.53,-353.56C826.89,-336.25 894.33,-303.13 931.12,-251.5 950.59,-224.19 950.68,-209.68 943.12,-177 936.97,-150.37 937.57,-138.7 916.12,-121.75 873.02,-87.68 808.97,-78.55 765.48,-76.63"/>
<polygon fill="#63b8ff" stroke="#63b8ff" points="765.73,-73.1 755.62,-76.28 765.5,-80.1 765.73,-73.1"/>
</a>
</g>
</g>
<!-- Node4 -->
<g id="Node000004" class="node">
<title>Node4</title>
<g id="a_Node000004"><a xlink:href="../../de/d1a/uniformly__sample__two__manifold_8cpp.html" target="_top" xlink:title=" ">
<polygon fill="white" stroke="#666666" points="795.88,-318 682.38,-318 682.38,-287.5 795.88,-287.5 795.88,-318"/>
<text text-anchor="start" x="690.38" y="-304.5" font-family="Helvetica,sans-Serif" font-size="10.00">uniformly_sample_two</text>
<text text-anchor="middle" x="739.12" y="-293.25" font-family="Helvetica,sans-Serif" font-size="10.00">_manifold.cpp</text>
</a>
</g>
</g>
<!-- Node1&#45;&gt;Node4 -->
<g id="edge3_Node000001_Node000004" class="edge">
<title>Node1&#45;&gt;Node4</title>
<g id="a_edge3_Node000001_Node000004"><a xlink:title=" ">
<path fill="none" stroke="#63b8ff" d="M733.36,-353.61C732.46,-346.36 732.17,-337.38 732.52,-329.06"/>
<polygon fill="#63b8ff" stroke="#63b8ff" points="736.07,-329.57 733.37,-319.33 729.09,-329.02 736.07,-329.57"/>
</a>
</g>
</g>
<!-- Node4&#45;&gt;Node1 -->
<g id="edge4_Node000004_Node000001" class="edge">
<title>Node4&#45;&gt;Node1</title>
<g id="a_edge4_Node000004_Node000001"><a xlink:title=" ">
<path fill="none" stroke="#63b8ff" d="M744.88,-318.33C745.79,-325.58 746.08,-334.55 745.74,-342.88"/>
<polygon fill="#63b8ff" stroke="#63b8ff" points="742.19,-342.37 744.89,-352.61 749.16,-342.92 742.19,-342.37"/>
</a>
</g>
</g>
<!-- Node5 -->
<g id="Node000005" class="node">
<title>Node5</title>
<g id="a_Node000005"><a xlink:href="../../dc/d29/verbose_8h.html" target="_top" xlink:title=" ">
<polygon fill="white" stroke="#666666" points="1116.5,-251.5 1057.75,-251.5 1057.75,-232.25 1116.5,-232.25 1116.5,-251.5"/>
<text text-anchor="middle" x="1087.12" y="-238" font-family="Helvetica,sans-Serif" font-size="10.00">verbose.h</text>
</a>
</g>
</g>
<!-- Node4&#45;&gt;Node5 -->
<g id="edge5_Node000004_Node000005" class="edge">
<title>Node4&#45;&gt;Node5</title>
<g id="a_edge5_Node000004_Node000005"><a xlink:title=" ">
<path fill="none" stroke="#63b8ff" d="M796.2,-292.09C866.78,-280.15 985.13,-260.13 1046.88,-249.68"/>
<polygon fill="#63b8ff" stroke="#63b8ff" points="1047.09,-253.03 1056.36,-247.91 1045.92,-246.13 1047.09,-253.03"/>
</a>
</g>
</g>
<!-- Node8 -->
<g id="Node000008" class="node">
<title>Node8</title>
<g id="a_Node000008"><a xlink:href="../../d0/d48/slice_8h.html" target="_top" xlink:title=" ">
<polygon fill="white" stroke="#666666" points="922.38,-251.5 877.88,-251.5 877.88,-232.25 922.38,-232.25 922.38,-251.5"/>
<text text-anchor="middle" x="900.12" y="-238" font-family="Helvetica,sans-Serif" font-size="10.00">slice.h</text>
</a>
</g>
</g>
<!-- Node4&#45;&gt;Node8 -->
<g id="edge8_Node000004_Node000008" class="edge">
<title>Node4&#45;&gt;Node8</title>
<g id="a_edge8_Node000004_Node000008"><a xlink:title=" ">
<path fill="none" stroke="#63b8ff" d="M779.34,-287.05C806.56,-277.09 842.06,-264.11 867.52,-254.8"/>
<polygon fill="#63b8ff" stroke="#63b8ff" points="868.57,-257.78 876.76,-251.05 866.16,-251.2 868.57,-257.78"/>
</a>
</g>
</g>
<!-- Node11 -->
<g id="Node000011" class="node">
<title>Node11</title>
<g id="a_Node000011"><a xlink:href="../../d2/db7/colon_8h.html" target="_top" xlink:title=" ">
<polygon fill="white" stroke="#666666" points="906.88,-141 859.38,-141 859.38,-121.75 906.88,-121.75 906.88,-141"/>
<text text-anchor="middle" x="883.12" y="-127.5" font-family="Helvetica,sans-Serif" font-size="10.00">colon.h</text>
</a>
</g>
</g>
<!-- Node4&#45;&gt;Node11 -->
<g id="edge21_Node000004_Node000011" class="edge">
<title>Node4&#45;&gt;Node11</title>
<g id="a_edge21_Node000004_Node000011"><a xlink:title=" ">
<path fill="none" stroke="#63b8ff" d="M754.1,-287.17C764.02,-277.33 777.16,-263.93 788.12,-251.5 818.89,-216.63 852.2,-173.48 870.05,-149.86"/>
<polygon fill="#63b8ff" stroke="#63b8ff" points="873.29,-152.38 876.5,-142.29 867.69,-148.18 873.29,-152.38"/>
</a>
</g>
</g>
<!-- Node17 -->
<g id="Node000017" class="node">
<title>Node17</title>
<g id="a_Node000017"><a xlink:href="../../d5/d45/all__pairs__distances_8h.html" target="_top" xlink:title=" ">
<polygon fill="white" stroke="#666666" points="473.88,-196.25 366.38,-196.25 366.38,-177 473.88,-177 473.88,-196.25"/>
<text text-anchor="middle" x="420.12" y="-182.75" font-family="Helvetica,sans-Serif" font-size="10.00">all_pairs_distances.h</text>
</a>
</g>
</g>
<!-- Node4&#45;&gt;Node17 -->
<g id="edge22_Node000004_Node000017" class="edge">
<title>Node4&#45;&gt;Node17</title>
<g id="a_edge22_Node000004_Node000017"><a xlink:title=" ">
<path fill="none" stroke="#63b8ff" d="M682.09,-287.35C647.82,-278.18 603.55,-265.44 565.12,-251.5 523.67,-236.46 477.27,-215.21 448.38,-201.42"/>
<polygon fill="#63b8ff" stroke="#63b8ff" points="450.1,-197.88 439.57,-196.71 447.07,-204.19 450.1,-197.88"/>
</a>
</g>
</g>
<!-- Node19 -->
<g id="Node000019" class="node">
<title>Node19</title>
<g id="a_Node000019"><a xlink:href="../../da/df6/mat__max_8h.html" target="_top" xlink:title=" ">
<polygon fill="white" stroke="#666666" points="196.5,-141 131.75,-141 131.75,-121.75 196.5,-121.75 196.5,-141"/>
<text text-anchor="middle" x="164.12" y="-127.5" font-family="Helvetica,sans-Serif" font-size="10.00">mat_max.h</text>
</a>
</g>
</g>
<!-- Node4&#45;&gt;Node19 -->
<g id="edge27_Node000004_Node000019" class="edge">
<title>Node4&#45;&gt;Node19</title>
<g id="a_edge27_Node000004_Node000019"><a xlink:title=" ">
<path fill="none" stroke="#63b8ff" d="M682.09,-302.44C534.72,-302.8 147.93,-294.25 79.12,-196.25 63.52,-174.02 93.94,-156.24 122.63,-145.14"/>
<polygon fill="#63b8ff" stroke="#63b8ff" points="123.43,-148.21 131.62,-141.5 121.03,-141.63 123.43,-148.21"/>
</a>
</g>
</g>
<!-- Node21 -->
<g id="Node000021" class="node">
<title>Node21</title>
<g id="a_Node000021"><a xlink:href="../../d3/d10/vertex__triangle__adjacency_8h.html" target="_top" xlink:title=" ">
<polygon fill="white" stroke="#666666" points="377.12,-251.5 241.12,-251.5 241.12,-232.25 377.12,-232.25 377.12,-251.5"/>
<text text-anchor="middle" x="309.12" y="-238" font-family="Helvetica,sans-Serif" font-size="10.00">vertex_triangle_adjacency.h</text>
</a>
</g>
</g>
<!-- Node4&#45;&gt;Node21 -->
<g id="edge32_Node000004_Node000021" class="edge">
<title>Node4&#45;&gt;Node21</title>
<g id="a_edge32_Node000004_Node000021"><a xlink:title=" ">
<path fill="none" stroke="#63b8ff" d="M682.02,-293.93C606.08,-283.53 471.55,-265.11 386.53,-253.47"/>
<polygon fill="#63b8ff" stroke="#63b8ff" points="387.03,-249.87 376.65,-251.98 386.08,-256.81 387.03,-249.87"/>
</a>
</g>
</g>
<!-- Node27 -->
<g id="Node000027" class="node">
<title>Node27</title>
<g id="a_Node000027"><a xlink:href="../../da/dee/get__seconds_8h.html" target="_top" xlink:title=" ">
<polygon fill="white" stroke="#666666" points="779,-251.5 699.25,-251.5 699.25,-232.25 779,-232.25 779,-251.5"/>
<text text-anchor="middle" x="739.12" y="-238" font-family="Helvetica,sans-Serif" font-size="10.00">get_seconds.h</text>
</a>
</g>
</g>
<!-- Node4&#45;&gt;Node27 -->
<g id="edge44_Node000004_Node000027" class="edge">
<title>Node4&#45;&gt;Node27</title>
<g id="a_edge44_Node000004_Node000027"><a xlink:title=" ">
<path fill="none" stroke="#63b8ff" d="M739.12,-287.2C739.12,-279.87 739.12,-270.87 739.12,-262.91"/>
<polygon fill="#63b8ff" stroke="#63b8ff" points="742.63,-262.95 739.12,-252.95 735.63,-262.95 742.63,-262.95"/>
</a>
</g>
</g>
<!-- Node30 -->
<g id="Node000030" class="node">
<title>Node30</title>
<g id="a_Node000030"><a xlink:href="../../de/d6f/cat_8h.html" target="_top" xlink:title=" ">
<polygon fill="white" stroke="#666666" points="1066,-141 1028.25,-141 1028.25,-121.75 1066,-121.75 1066,-141"/>
<text text-anchor="middle" x="1047.12" y="-127.5" font-family="Helvetica,sans-Serif" font-size="10.00">cat.h</text>
</a>
</g>
</g>
<!-- Node4&#45;&gt;Node30 -->
<g id="edge49_Node000004_Node000030" class="edge">
<title>Node4&#45;&gt;Node30</title>
<g id="a_edge49_Node000004_Node000030"><a xlink:title=" ">
<path fill="none" stroke="#63b8ff" d="M795.99,-295.1C835.93,-288.53 889.44,-275.78 931.12,-251.5 976.25,-225.22 1015.52,-176.6 1034.68,-150.34"/>
<polygon fill="#63b8ff" stroke="#63b8ff" points="1038.06,-152.63 1041.01,-142.46 1032.36,-148.57 1038.06,-152.63"/>
</a>
</g>
</g>
<!-- Node32 -->
<g id="Node000032" class="node">
<title>Node32</title>
<g id="a_Node000032"><a xlink:href="../../dd/d37/partition_8h.html" target="_top" xlink:title=" ">
<polygon fill="white" stroke="#666666" points="632.5,-251.5 573.75,-251.5 573.75,-232.25 632.5,-232.25 632.5,-251.5"/>
<text text-anchor="middle" x="603.12" y="-238" font-family="Helvetica,sans-Serif" font-size="10.00">partition.h</text>
</a>
</g>
</g>
<!-- Node4&#45;&gt;Node32 -->
<g id="edge58_Node000004_Node000032" class="edge">
<title>Node4&#45;&gt;Node32</title>
<g id="a_edge58_Node000004_Node000032"><a xlink:title=" ">
<path fill="none" stroke="#63b8ff" d="M705.16,-287.05C683.35,-277.6 655.25,-265.44 634.07,-256.27"/>
<polygon fill="#63b8ff" stroke="#63b8ff" points="635.55,-252.66 624.98,-251.9 632.77,-259.09 635.55,-252.66"/>
</a>
</g>
</g>
<!-- Node6 -->
<g id="Node000006" class="node">
<title>Node6</title>
<g id="a_Node000006"><a xlink:title=" ">
<polygon fill="#e0e0e0" stroke="#999999" points="1014.25,-24.88 972,-24.88 972,-5.63 1014.25,-5.63 1014.25,-24.88"/>
<text text-anchor="middle" x="993.12" y="-11.38" font-family="Helvetica,sans-Serif" font-size="10.00">cstdio</text>
</a>
</g>
</g>
<!-- Node5&#45;&gt;Node6 -->
<g id="edge6_Node000005_Node000006" class="edge">
<title>Node5&#45;&gt;Node6</title>
<g id="a_edge6_Node000005_Node000006"><a xlink:title=" ">
<path fill="none" stroke="#63b8ff" d="M1095.34,-231.76C1102.41,-223.27 1112.08,-209.89 1116.12,-196.25 1129.67,-150.55 1109.06,-103.33 1079.12,-66.5 1071.03,-56.54 1043.39,-41.23 1021.61,-30.12"/>
<polygon fill="#63b8ff" stroke="#63b8ff" points="1023.3,-26.56 1012.8,-25.2 1020.17,-32.82 1023.3,-26.56"/>
</a>
</g>
</g>
<!-- Node7 -->
<g id="Node000007" class="node">
<title>Node7</title>
<g id="a_Node000007"><a xlink:title=" ">
<polygon fill="#e0e0e0" stroke="#999999" points="1107.12,-196.25 1067.12,-196.25 1067.12,-177 1107.12,-177 1107.12,-196.25"/>
<text text-anchor="middle" x="1087.12" y="-182.75" font-family="Helvetica,sans-Serif" font-size="10.00">string</text>
</a>
</g>
</g>
<!-- Node5&#45;&gt;Node7 -->
<g id="edge7_Node000005_Node000007" class="edge">
<title>Node5&#45;&gt;Node7</title>
<g id="a_edge7_Node000005_Node000007"><a xlink:title=" ">
<path fill="none" stroke="#63b8ff" d="M1087.12,-232.08C1087.12,-225.42 1087.12,-215.99 1087.12,-207.53"/>
<polygon fill="#63b8ff" stroke="#63b8ff" points="1090.63,-207.61 1087.12,-197.61 1083.63,-207.61 1090.63,-207.61"/>
</a>
</g>
</g>
<!-- Node8&#45;&gt;Node2 -->
<g id="edge9_Node000008_Node000002" class="edge">
<title>Node8&#45;&gt;Node2</title>
<g id="a_edge9_Node000008_Node000002"><a xlink:title=" ">
<path fill="none" stroke="#63b8ff" d="M888.77,-231.76C870.09,-217.32 831.13,-189.55 793.12,-177 640.44,-126.58 584.4,-195.5 433.12,-141 403.24,-130.23 373.64,-108.01 355.62,-92.83"/>
<polygon fill="#63b8ff" stroke="#63b8ff" points="358.6,-89.92 348.75,-86.03 354.02,-95.22 358.6,-89.92"/>
</a>
</g>
</g>
<!-- Node9 -->
<g id="Node000009" class="node">
<title>Node9</title>
<g id="a_Node000009"><a xlink:title=" ">
<polygon fill="#e0e0e0" stroke="#999999" points="1004.38,-85.75 929.88,-85.75 929.88,-66.5 1004.38,-66.5 1004.38,-85.75"/>
<text text-anchor="middle" x="967.12" y="-72.25" font-family="Helvetica,sans-Serif" font-size="10.00">Eigen/Sparse</text>
</a>
</g>
</g>
<!-- Node8&#45;&gt;Node9 -->
<g id="edge10_Node000008_Node000009" class="edge">
<title>Node8&#45;&gt;Node9</title>
<g id="a_edge10_Node000008_Node000009"><a xlink:title=" ">
<path fill="none" stroke="#63b8ff" d="M911.89,-231.94C921.8,-223.75 935.53,-210.73 943.12,-196.25 959.97,-164.12 965.01,-121.41 966.51,-96.83"/>
<polygon fill="#63b8ff" stroke="#63b8ff" points="970.04,-97.21 967,-87.06 963.05,-96.89 970.04,-97.21"/>
</a>
</g>
</g>
<!-- Node10 -->
<g id="Node000010" class="node">
<title>Node10</title>
<g id="a_Node000010"><a xlink:href="../../de/dfb/slice_8cpp.html" target="_top" xlink:title=" ">
<polygon fill="white" stroke="#666666" points="933.62,-196.25 878.62,-196.25 878.62,-177 933.62,-177 933.62,-196.25"/>
<text text-anchor="middle" x="906.12" y="-182.75" font-family="Helvetica,sans-Serif" font-size="10.00">slice.cpp</text>
</a>
</g>
</g>
<!-- Node8&#45;&gt;Node10 -->
<g id="edge11_Node000008_Node000010" class="edge">
<title>Node8&#45;&gt;Node10</title>
<g id="a_edge11_Node000008_Node000010"><a xlink:title=" ">
<path fill="none" stroke="#63b8ff" d="M895.95,-232.08C895.27,-225.34 895.89,-215.77 897.38,-207.24"/>
<polygon fill="#63b8ff" stroke="#63b8ff" points="901,-208.15 899.91,-197.61 894.19,-206.53 901,-208.15"/>
</a>
</g>
</g>
<!-- Node10&#45;&gt;Node8 -->
<g id="edge12_Node000010_Node000008" class="edge">
<title>Node10&#45;&gt;Node8</title>
<g id="a_edge12_Node000010_Node000008"><a xlink:title=" ">
<path fill="none" stroke="#63b8ff" d="M910.32,-196.61C910.98,-203.4 910.34,-212.99 908.83,-221.5"/>
<polygon fill="#63b8ff" stroke="#63b8ff" points="905.22,-220.54 906.28,-231.08 912.03,-222.18 905.22,-220.54"/>
</a>
</g>
</g>
<!-- Node10&#45;&gt;Node11 -->
<g id="edge13_Node000010_Node000011" class="edge">
<title>Node10&#45;&gt;Node11</title>
<g id="a_edge13_Node000010_Node000011"><a xlink:title=" ">
<path fill="none" stroke="#63b8ff" d="M902.33,-176.83C899.35,-169.94 895.09,-160.09 891.35,-151.41"/>
<polygon fill="#63b8ff" stroke="#63b8ff" points="894.18,-150.15 887.01,-142.36 887.76,-152.93 894.18,-150.15"/>
</a>
</g>
</g>
<!-- Node15 -->
<g id="Node000015" class="node">
<title>Node15</title>
<g id="a_Node000015"><a xlink:title=" ">
<polygon fill="#e0e0e0" stroke="#999999" points="739.62,-141 696.62,-141 696.62,-121.75 739.62,-121.75 739.62,-141"/>
<text text-anchor="middle" x="718.12" y="-127.5" font-family="Helvetica,sans-Serif" font-size="10.00">vector</text>
</a>
</g>
</g>
<!-- Node10&#45;&gt;Node15 -->
<g id="edge19_Node000010_Node000015" class="edge">
<title>Node10&#45;&gt;Node15</title>
<g id="a_edge19_Node000010_Node000015"><a xlink:title=" ">
<path fill="none" stroke="#63b8ff" d="M878.38,-177.77C844.32,-168.12 786.64,-151.78 750.56,-141.56"/>
<polygon fill="#63b8ff" stroke="#63b8ff" points="751.68,-137.96 741.11,-138.6 749.77,-144.69 751.68,-137.96"/>
</a>
</g>
</g>
<!-- Node16 -->
<g id="Node000016" class="node">
<title>Node16</title>
<g id="a_Node000016"><a xlink:title=" ">
<polygon fill="#e0e0e0" stroke="#999999" points="1163.5,-30.5 1032.75,-30.5 1032.75,0 1163.5,0 1163.5,-30.5"/>
<text text-anchor="start" x="1040.75" y="-17" font-family="Helvetica,sans-Serif" font-size="10.00">unsupported/Eigen/Sparse</text>
<text text-anchor="middle" x="1098.12" y="-5.75" font-family="Helvetica,sans-Serif" font-size="10.00">Extra</text>
</a>
</g>
</g>
<!-- Node10&#45;&gt;Node16 -->
<g id="edge20_Node000010_Node000016" class="edge">
<title>Node10&#45;&gt;Node16</title>
<g id="a_edge20_Node000010_Node000016"><a xlink:title=" ">
<path fill="none" stroke="#63b8ff" d="M933.86,-181.93C976.71,-175.65 1056.09,-161.53 1075.12,-141 1100.01,-114.15 1102.28,-69.56 1100.8,-41.6"/>
<polygon fill="#63b8ff" stroke="#63b8ff" points="1104.23,-41.44 1100,-31.73 1097.25,-41.96 1104.23,-41.44"/>
</a>
</g>
</g>
<!-- Node11&#45;&gt;Node2 -->
<g id="edge14_Node000011_Node000002" class="edge">
<title>Node11&#45;&gt;Node2</title>
<g id="a_edge14_Node000011_Node000002"><a xlink:title=" ">
<path fill="none" stroke="#63b8ff" d="M859.12,-123.41C856.43,-122.78 853.73,-122.21 851.12,-121.75 665.3,-89.07 616.04,-102.75 428.12,-85.75 412.4,-84.33 395.14,-82.69 379.97,-81.23"/>
<polygon fill="#63b8ff" stroke="#63b8ff" points="380.65,-77.68 370.36,-80.2 379.97,-84.65 380.65,-77.68"/>
</a>
</g>
</g>
<!-- Node11&#45;&gt;Node3 -->
<g id="edge15_Node000011_Node000003" class="edge">
<title>Node11&#45;&gt;Node3</title>
<g id="a_edge15_Node000011_Node000003"><a xlink:title=" ">
<path fill="none" stroke="#63b8ff" d="M859.13,-122.63C832.23,-113.95 788.23,-99.75 756.53,-89.52"/>
<polygon fill="#63b8ff" stroke="#63b8ff" points="757.89,-85.96 747.29,-86.22 755.74,-92.62 757.89,-85.96"/>
</a>
</g>
</g>
<!-- Node12 -->
<g id="Node000012" class="node">
<title>Node12</title>
<g id="a_Node000012"><a xlink:href="../../da/dd4/colon_8cpp.html" target="_top" xlink:title=" ">
<polygon fill="#fff0f0" stroke="red" points="912.12,-85.75 854.12,-85.75 854.12,-66.5 912.12,-66.5 912.12,-85.75"/>
<text text-anchor="middle" x="883.12" y="-72.25" font-family="Helvetica,sans-Serif" font-size="10.00">colon.cpp</text>
</a>
</g>
</g>
<!-- Node11&#45;&gt;Node12 -->
<g id="edge16_Node000011_Node000012" class="edge">
<title>Node11&#45;&gt;Node12</title>
<g id="a_edge16_Node000011_Node000012"><a xlink:title=" ">
<path fill="none" stroke="#63b8ff" d="M877.96,-121.58C876.52,-114.84 876.06,-105.27 876.59,-96.74"/>
<polygon fill="#63b8ff" stroke="#63b8ff" points="880.15,-97.47 877.92,-87.11 873.2,-96.6 880.15,-97.47"/>
</a>
</g>
</g>
<!-- Node12&#45;&gt;Node6 -->
<g id="edge18_Node000012_Node000006" class="edge">
<title>Node12&#45;&gt;Node6</title>
<g id="a_edge18_Node000012_Node000006"><a xlink:title=" ">
<path fill="none" stroke="#63b8ff" d="M899.83,-66.18C917.6,-56.67 945.95,-41.5 966.74,-30.37"/>
<polygon fill="#63b8ff" stroke="#63b8ff" points="968.1,-33.08 975.26,-25.28 964.79,-26.91 968.1,-33.08"/>
</a>
</g>
</g>
<!-- Node12&#45;&gt;Node11 -->
<g id="edge17_Node000012_Node000011" class="edge">
<title>Node12&#45;&gt;Node11</title>
<g id="a_edge17_Node000012_Node000011"><a xlink:title=" ">
<path fill="none" stroke="#63b8ff" d="M888.33,-86.11C889.74,-92.83 890.18,-102.27 889.67,-110.71"/>
<polygon fill="#63b8ff" stroke="#63b8ff" points="886.07,-110.22 888.29,-120.58 893.02,-111.1 886.07,-110.22"/>
</a>
</g>
</g>
<!-- Node17&#45;&gt;Node2 -->
<g id="edge23_Node000017_Node000002" class="edge">
<title>Node17&#45;&gt;Node2</title>
<g id="a_edge23_Node000017_Node000002"><a xlink:title=" ">
<path fill="none" stroke="#63b8ff" d="M413.41,-176.75C399.9,-158.86 369.18,-118.22 351.44,-94.75"/>
<polygon fill="#63b8ff" stroke="#63b8ff" points="353.75,-92.99 344.93,-87.13 348.17,-97.21 353.75,-92.99"/>
</a>
</g>
</g>
<!-- Node18 -->
<g id="Node000018" class="node">
<title>Node18</title>
<g id="a_Node000018"><a xlink:href="../../d4/d87/all__pairs__distances_8cpp.html" target="_top" xlink:title=" ">
<polygon fill="white" stroke="#666666" points="640.12,-141 522.12,-141 522.12,-121.75 640.12,-121.75 640.12,-141"/>
<text text-anchor="middle" x="581.12" y="-127.5" font-family="Helvetica,sans-Serif" font-size="10.00">all_pairs_distances.cpp</text>
</a>
</g>
</g>
<!-- Node17&#45;&gt;Node18 -->
<g id="edge24_Node000017_Node000018" class="edge">
<title>Node17&#45;&gt;Node18</title>
<g id="a_edge24_Node000017_Node000018"><a xlink:title=" ">
<path fill="none" stroke="#63b8ff" d="M442.22,-176.59C466.88,-167.83 507.07,-154.48 537.96,-144.73"/>
<polygon fill="#63b8ff" stroke="#63b8ff" points="538.95,-147.78 547.45,-141.45 536.86,-141.1 538.95,-147.78"/>
</a>
</g>
</g>
<!-- Node18&#45;&gt;Node3 -->
<g id="edge26_Node000018_Node000003" class="edge">
<title>Node18&#45;&gt;Node3</title>
<g id="a_edge26_Node000018_Node000003"><a xlink:title=" ">
<path fill="none" stroke="#63b8ff" d="M604.37,-121.34C626.41,-112.77 659.77,-99.81 684.67,-90.13"/>
<polygon fill="#63b8ff" stroke="#63b8ff" points="685.72,-93.09 693.77,-86.2 683.18,-86.56 685.72,-93.09"/>
</a>
</g>
</g>
<!-- Node18&#45;&gt;Node17 -->
<g id="edge25_Node000018_Node000017" class="edge">
<title>Node18&#45;&gt;Node17</title>
<g id="a_edge25_Node000018_Node000017"><a xlink:title=" ">
<path fill="none" stroke="#63b8ff" d="M558.91,-141.45C534.2,-150.23 494,-163.59 463.14,-173.32"/>
<polygon fill="#63b8ff" stroke="#63b8ff" points="462.15,-170.27 453.65,-176.59 464.24,-176.95 462.15,-170.27"/>
</a>
</g>
</g>
<!-- Node19&#45;&gt;Node2 -->
<g id="edge28_Node000019_Node000002" class="edge">
<title>Node19&#45;&gt;Node2</title>
<g id="a_edge28_Node000019_Node000002"><a xlink:title=" ">
<path fill="none" stroke="#63b8ff" d="M193.64,-121.34C222.39,-112.54 266.29,-99.11 298.16,-89.36"/>
<polygon fill="#63b8ff" stroke="#63b8ff" points="298.93,-92.48 307.46,-86.2 296.88,-85.78 298.93,-92.48"/>
</a>
</g>
</g>
<!-- Node19&#45;&gt;Node3 -->
<g id="edge29_Node000019_Node000003" class="edge">
<title>Node19&#45;&gt;Node3</title>
<g id="a_edge29_Node000019_Node000003"><a xlink:title=" ">
<path fill="none" stroke="#63b8ff" d="M196.71,-127.24C290.44,-118.23 561.05,-92.22 670.92,-81.66"/>
<polygon fill="#63b8ff" stroke="#63b8ff" points="671.04,-85.07 680.66,-80.63 670.37,-78.1 671.04,-85.07"/>
</a>
</g>
</g>
<!-- Node20 -->
<g id="Node000020" class="node">
<title>Node20</title>
<g id="a_Node000020"><a xlink:href="../../db/db6/mat__max_8cpp.html" target="_top" xlink:title=" ">
<polygon fill="white" stroke="#666666" points="248.75,-85.75 173.5,-85.75 173.5,-66.5 248.75,-66.5 248.75,-85.75"/>
<text text-anchor="middle" x="211.12" y="-72.25" font-family="Helvetica,sans-Serif" font-size="10.00">mat_max.cpp</text>
</a>
</g>
</g>
<!-- Node19&#45;&gt;Node20 -->
<g id="edge30_Node000019_Node000020" class="edge">
<title>Node19&#45;&gt;Node20</title>
<g id="a_edge30_Node000019_Node000020"><a xlink:title=" ">
<path fill="none" stroke="#63b8ff" d="M166.72,-121.58C171.79,-114 181.27,-102.84 190.29,-93.6"/>
<polygon fill="#63b8ff" stroke="#63b8ff" points="192.26,-96.59 196.99,-87.11 187.38,-91.57 192.26,-96.59"/>
</a>
</g>
</g>
<!-- Node20&#45;&gt;Node19 -->
<g id="edge31_Node000020_Node000019" class="edge">
<title>Node20&#45;&gt;Node19</title>
<g id="a_edge31_Node000020_Node000019"><a xlink:title=" ">
<path fill="none" stroke="#63b8ff" d="M208.46,-86.02C203.37,-93.6 193.95,-104.69 184.97,-113.89"/>
<polygon fill="#63b8ff" stroke="#63b8ff" points="183.04,-110.86 178.31,-120.34 187.92,-115.87 183.04,-110.86"/>
</a>
</g>
</g>
<!-- Node21&#45;&gt;Node2 -->
<g id="edge33_Node000021_Node000002" class="edge">
<title>Node21&#45;&gt;Node2</title>
<g id="a_edge33_Node000021_Node000002"><a xlink:title=" ">
<path fill="none" stroke="#63b8ff" d="M302.81,-231.82C297.17,-223.14 289.33,-209.46 286.12,-196.25 278.32,-164.07 272.3,-151.84 286.12,-121.75 291.64,-109.75 302.15,-99.77 312.29,-92.31"/>
<polygon fill="#63b8ff" stroke="#63b8ff" points="314.02,-94.68 320.34,-86.18 310.09,-88.89 314.02,-94.68"/>
</a>
</g>
</g>
<!-- Node21&#45;&gt;Node3 -->
<g id="edge34_Node000021_Node000003" class="edge">
<title>Node21&#45;&gt;Node3</title>
<g id="a_edge34_Node000021_Node000003"><a xlink:title=" ">
<path fill="none" stroke="#63b8ff" d="M359.43,-231.83C394.83,-224.54 442.88,-212.77 483.12,-196.25 498.83,-189.8 500.46,-183.55 516.12,-177 572.62,-153.37 595.55,-170.66 649.12,-141 670.89,-128.95 691.19,-108.62 704.06,-94.13"/>
<polygon fill="#63b8ff" stroke="#63b8ff" points="707.19,-96.85 711.06,-86.99 701.88,-92.29 707.19,-96.85"/>
</a>
</g>
</g>
<!-- Node21&#45;&gt;Node15 -->
<g id="edge35_Node000021_Node000015" class="edge">
<title>Node21&#45;&gt;Node15</title>
<g id="a_edge35_Node000021_Node000015"><a xlink:title=" ">
<path fill="none" stroke="#63b8ff" d="M366.64,-231.8C408.66,-224.37 466.69,-212.45 516.12,-196.25 536.02,-189.73 539.44,-184.13 559.12,-177 582.36,-168.59 646.4,-151.27 685.76,-140.85"/>
<polygon fill="#63b8ff" stroke="#63b8ff" points="686.61,-143.99 695.39,-138.05 684.83,-137.22 686.61,-143.99"/>
</a>
</g>
</g>
<!-- Node22 -->
<g id="Node000022" class="node">
<title>Node22</title>
<g id="a_Node000022"><a xlink:href="../../dd/dfa/vertex__triangle__adjacency_8cpp.html" target="_top" xlink:title=" ">
<polygon fill="white" stroke="#666666" points="234.38,-196.25 87.88,-196.25 87.88,-177 234.38,-177 234.38,-196.25"/>
<text text-anchor="middle" x="161.12" y="-182.75" font-family="Helvetica,sans-Serif" font-size="10.00">vertex_triangle_adjacency.cpp</text>
</a>
</g>
</g>
<!-- Node21&#45;&gt;Node22 -->
<g id="edge36_Node000021_Node000022" class="edge">
<title>Node21&#45;&gt;Node22</title>
<g id="a_edge36_Node000021_Node000022"><a xlink:title=" ">
<path fill="none" stroke="#63b8ff" d="M278.8,-231.84C253.2,-223.27 216.94,-210.31 191.37,-200.63"/>
<polygon fill="#63b8ff" stroke="#63b8ff" points="192.72,-197.01 182.13,-196.7 190.21,-203.55 192.72,-197.01"/>
</a>
</g>
</g>
<!-- Node22&#45;&gt;Node21 -->
<g id="edge37_Node000022_Node000021" class="edge">
<title>Node22&#45;&gt;Node21</title>
<g id="a_edge37_Node000022_Node000021"><a xlink:title=" ">
<path fill="none" stroke="#63b8ff" d="M191.58,-196.7C217.22,-205.29 253.48,-218.25 279.01,-227.92"/>
<polygon fill="#63b8ff" stroke="#63b8ff" points="277.65,-231.53 288.24,-231.84 280.15,-224.99 277.65,-231.53"/>
</a>
</g>
</g>
<!-- Node23 -->
<g id="Node000023" class="node">
<title>Node23</title>
<g id="a_Node000023"><a xlink:href="../../d3/ddc/cumsum_8h.html" target="_top" xlink:title=" ">
<polygon fill="white" stroke="#666666" points="114,-141 52.25,-141 52.25,-121.75 114,-121.75 114,-141"/>
<text text-anchor="middle" x="83.12" y="-127.5" font-family="Helvetica,sans-Serif" font-size="10.00">cumsum.h</text>
</a>
</g>
</g>
<!-- Node22&#45;&gt;Node23 -->
<g id="edge38_Node000022_Node000023" class="edge">
<title>Node22&#45;&gt;Node23</title>
<g id="a_edge38_Node000022_Node000023"><a xlink:title=" ">
<path fill="none" stroke="#63b8ff" d="M147.89,-176.59C136.24,-168.64 119.03,-156.89 105.28,-147.5"/>
<polygon fill="#63b8ff" stroke="#63b8ff" points="107.65,-144.2 97.42,-141.45 103.71,-149.98 107.65,-144.2"/>
</a>
</g>
</g>
<!-- Node23&#45;&gt;Node2 -->
<g id="edge39_Node000023_Node000002" class="edge">
<title>Node23&#45;&gt;Node2</title>
<g id="a_edge39_Node000023_Node000002"><a xlink:title=" ">
<path fill="none" stroke="#63b8ff" d="M114.13,-123.67C117.17,-123.01 120.21,-122.37 123.12,-121.75 183.17,-109.05 252.72,-94.67 296.07,-85.75"/>
<polygon fill="#63b8ff" stroke="#63b8ff" points="296.69,-89 305.78,-83.55 295.28,-82.14 296.69,-89"/>
</a>
</g>
</g>
<!-- Node14 -->
<g id="Node000014" class="node">
<title>Node14</title>
<g id="a_Node000014"><a xlink:title=" ">
<polygon fill="#e0e0e0" stroke="#999999" points="155.5,-85.75 90.75,-85.75 90.75,-66.5 155.5,-66.5 155.5,-85.75"/>
<text text-anchor="middle" x="123.12" y="-72.25" font-family="Helvetica,sans-Serif" font-size="10.00">Eigen/Core</text>
</a>
</g>
</g>
<!-- Node23&#45;&gt;Node14 -->
<g id="edge40_Node000023_Node000014" class="edge">
<title>Node23&#45;&gt;Node14</title>
<g id="a_edge40_Node000023_Node000014"><a xlink:title=" ">
<path fill="none" stroke="#63b8ff" d="M89.73,-121.58C95.2,-114.3 103.14,-103.73 109.9,-94.73"/>
<polygon fill="#63b8ff" stroke="#63b8ff" points="113.17,-97.21 116.38,-87.11 107.57,-93 113.17,-97.21"/>
</a>
</g>
</g>
<!-- Node24 -->
<g id="Node000024" class="node">
<title>Node24</title>
<g id="a_Node000024"><a xlink:href="../../d7/d25/cumsum_8cpp.html" target="_top" xlink:title=" ">
<polygon fill="#fff0f0" stroke="red" points="72.25,-85.75 0,-85.75 0,-66.5 72.25,-66.5 72.25,-85.75"/>
<text text-anchor="middle" x="36.12" y="-72.25" font-family="Helvetica,sans-Serif" font-size="10.00">cumsum.cpp</text>
</a>
</g>
</g>
<!-- Node23&#45;&gt;Node24 -->
<g id="edge41_Node000023_Node000024" class="edge">
<title>Node23&#45;&gt;Node24</title>
<g id="a_edge41_Node000023_Node000024"><a xlink:title=" ">
<path fill="none" stroke="#63b8ff" d="M69.94,-121.34C61.96,-114.03 52.29,-103.52 45.15,-94.57"/>
<polygon fill="#63b8ff" stroke="#63b8ff" points="47.57,-92.96 38.79,-87.02 41.95,-97.14 47.57,-92.96"/>
</a>
</g>
</g>
<!-- Node24&#45;&gt;Node23 -->
<g id="edge42_Node000024_Node000023" class="edge">
<title>Node24&#45;&gt;Node23</title>
<g id="a_edge42_Node000024_Node000023"><a xlink:title=" ">
<path fill="none" stroke="#63b8ff" d="M49.26,-86.11C57.27,-93.45 67,-104.03 74.17,-113.01"/>
<polygon fill="#63b8ff" stroke="#63b8ff" points="71.76,-114.64 80.53,-120.58 77.38,-110.47 71.76,-114.64"/>
</a>
</g>
</g>
<!-- Node26 -->
<g id="Node000026" class="node">
<title>Node26</title>
<g id="a_Node000026"><a xlink:title=" ">
<polygon fill="#e0e0e0" stroke="#999999" points="528.88,-24.88 475.38,-24.88 475.38,-5.63 528.88,-5.63 528.88,-24.88"/>
<text text-anchor="middle" x="502.12" y="-11.38" font-family="Helvetica,sans-Serif" font-size="10.00">iostream</text>
</a>
</g>
</g>
<!-- Node24&#45;&gt;Node26 -->
<g id="edge43_Node000024_Node000026" class="edge">
<title>Node24&#45;&gt;Node26</title>
<g id="a_edge43_Node000024_Node000026"><a xlink:title=" ">
<path fill="none" stroke="#63b8ff" d="M72.75,-68.03C75.91,-67.49 79.07,-66.97 82.12,-66.5 222.63,-44.95 390.77,-27.26 464.43,-19.91"/>
<polygon fill="#63b8ff" stroke="#63b8ff" points="464.41,-23.33 474.02,-18.86 463.72,-16.37 464.41,-23.33"/>
</a>
</g>
</g>
<!-- Node27&#45;&gt;Node2 -->
<g id="edge45_Node000027_Node000002" class="edge">
<title>Node27&#45;&gt;Node2</title>
<g id="a_edge45_Node000027_Node000002"><a xlink:title=" ">
<path fill="none" stroke="#63b8ff" d="M699,-236.83C602.19,-226.98 363.27,-202.14 357.12,-196.25 330.38,-170.61 331.53,-123.52 334.79,-96.87"/>
<polygon fill="#63b8ff" stroke="#63b8ff" points="338.36,-97.61 336.34,-87.21 331.44,-96.6 338.36,-97.61"/>
</a>
</g>
</g>
<!-- Node28 -->
<g id="Node000028" class="node">
<title>Node28</title>
<g id="a_Node000028"><a xlink:href="../../da/de3/get__seconds_8cpp.html" target="_top" xlink:title=" ">
<polygon fill="white" stroke="#666666" points="784.25,-196.25 694,-196.25 694,-177 784.25,-177 784.25,-196.25"/>
<text text-anchor="middle" x="739.12" y="-182.75" font-family="Helvetica,sans-Serif" font-size="10.00">get_seconds.cpp</text>
</a>
</g>
</g>
<!-- Node27&#45;&gt;Node28 -->
<g id="edge46_Node000027_Node000028" class="edge">
<title>Node27&#45;&gt;Node28</title>
<g id="a_edge46_Node000027_Node000028"><a xlink:title=" ">
<path fill="none" stroke="#63b8ff" d="M733.96,-232.08C732.52,-225.34 732.06,-215.77 732.59,-207.24"/>
<polygon fill="#63b8ff" stroke="#63b8ff" points="736.15,-207.97 733.92,-197.61 729.2,-207.1 736.15,-207.97"/>
</a>
</g>
</g>
<!-- Node28&#45;&gt;Node27 -->
<g id="edge47_Node000028_Node000027" class="edge">
<title>Node28&#45;&gt;Node27</title>
<g id="a_edge47_Node000028_Node000027"><a xlink:title=" ">
<path fill="none" stroke="#63b8ff" d="M744.33,-196.61C745.74,-203.33 746.18,-212.77 745.67,-221.21"/>
<polygon fill="#63b8ff" stroke="#63b8ff" points="742.07,-220.72 744.29,-231.08 749.02,-221.6 742.07,-220.72"/>
</a>
</g>
</g>
<!-- Node29 -->
<g id="Node000029" class="node">
<title>Node29</title>
<g id="a_Node000029"><a xlink:title=" ">
<polygon fill="#e0e0e0" stroke="#999999" points="841.75,-141 796.5,-141 796.5,-121.75 841.75,-121.75 841.75,-141"/>
<text text-anchor="middle" x="819.12" y="-127.5" font-family="Helvetica,sans-Serif" font-size="10.00">chrono</text>
</a>
</g>
</g>
<!-- Node28&#45;&gt;Node29 -->
<g id="edge48_Node000028_Node000029" class="edge">
<title>Node28&#45;&gt;Node29</title>
<g id="a_edge48_Node000028_Node000029"><a xlink:title=" ">
<path fill="none" stroke="#63b8ff" d="M752.7,-176.59C764.65,-168.64 782.3,-156.89 796.4,-147.5"/>
<polygon fill="#63b8ff" stroke="#63b8ff" points="798.1,-149.91 804.49,-141.45 794.22,-144.08 798.1,-149.91"/>
</a>
</g>
</g>
<!-- Node30&#45;&gt;Node2 -->
<g id="edge50_Node000030_Node000002" class="edge">
<title>Node30&#45;&gt;Node2</title>
<g id="a_edge50_Node000030_Node000002"><a xlink:title=" ">
<path fill="none" stroke="#63b8ff" d="M1028.01,-129.06C937.26,-122.8 549.18,-95.91 428.12,-85.75 412.39,-84.43 395.13,-82.81 379.96,-81.34"/>
<polygon fill="#63b8ff" stroke="#63b8ff" points="380.64,-77.79 370.35,-80.3 379.96,-84.76 380.64,-77.79"/>
</a>
</g>
</g>
<!-- Node30&#45;&gt;Node3 -->
<g id="edge52_Node000030_Node000003" class="edge">
<title>Node30&#45;&gt;Node3</title>
<g id="a_edge52_Node000030_Node000003"><a xlink:title=" ">
<path fill="none" stroke="#63b8ff" d="M1028.01,-127.28C977.4,-119.09 838.74,-96.65 765.27,-84.76"/>
<polygon fill="#63b8ff" stroke="#63b8ff" points="765.92,-81.15 755.49,-83.01 764.8,-88.06 765.92,-81.15"/>
</a>
</g>
</g>
<!-- Node30&#45;&gt;Node9 -->
<g id="edge51_Node000030_Node000009" class="edge">
<title>Node30&#45;&gt;Node9</title>
<g id="a_edge51_Node000030_Node000009"><a xlink:title=" ">
<path fill="none" stroke="#63b8ff" d="M1033.55,-121.34C1021.6,-113.39 1003.95,-101.64 989.85,-92.25"/>
<polygon fill="#63b8ff" stroke="#63b8ff" points="992.03,-88.83 981.76,-86.2 988.15,-94.66 992.03,-88.83"/>
</a>
</g>
</g>
<!-- Node31 -->
<g id="Node000031" class="node">
<title>Node31</title>
<g id="a_Node000031"><a xlink:href="../../d9/d63/cat_8cpp.html" target="_top" xlink:title=" ">
<polygon fill="white" stroke="#666666" points="1070.25,-85.75 1022,-85.75 1022,-66.5 1070.25,-66.5 1070.25,-85.75"/>
<text text-anchor="middle" x="1046.12" y="-72.25" font-family="Helvetica,sans-Serif" font-size="10.00">cat.cpp</text>
</a>
</g>
</g>
<!-- Node30&#45;&gt;Node31 -->
<g id="edge53_Node000030_Node000031" class="edge">
<title>Node30&#45;&gt;Node31</title>
<g id="a_edge53_Node000030_Node000031"><a xlink:title=" ">
<path fill="none" stroke="#63b8ff" d="M1041.79,-121.58C1040.24,-114.92 1039.6,-105.49 1039.94,-97.03"/>
<polygon fill="#63b8ff" stroke="#63b8ff" points="1043.53,-97.42 1041.09,-87.11 1036.56,-96.69 1043.53,-97.42"/>
</a>
</g>
</g>
<!-- Node31&#45;&gt;Node6 -->
<g id="edge55_Node000031_Node000006" class="edge">
<title>Node31&#45;&gt;Node6</title>
<g id="a_edge55_Node000031_Node000006"><a xlink:title=" ">
<path fill="none" stroke="#63b8ff" d="M1038.08,-66.18C1030.22,-57.45 1018.06,-43.94 1008.36,-33.18"/>
<polygon fill="#63b8ff" stroke="#63b8ff" points="1011.54,-31.37 1002.25,-26.28 1006.34,-36.05 1011.54,-31.37"/>
</a>
</g>
</g>
<!-- Node31&#45;&gt;Node16 -->
<g id="edge57_Node000031_Node000016" class="edge">
<title>Node31&#45;&gt;Node16</title>
<g id="a_edge57_Node000031_Node000016"><a xlink:title=" ">
<path fill="none" stroke="#63b8ff" d="M1054.02,-66.18C1060.44,-58.92 1069.78,-48.35 1078.21,-38.8"/>
<polygon fill="#63b8ff" stroke="#63b8ff" points="1080.29,-41.59 1084.29,-31.78 1075.05,-36.96 1080.29,-41.59"/>
</a>
</g>
</g>
<!-- Node31&#45;&gt;Node26 -->
<g id="edge56_Node000031_Node000026" class="edge">
<title>Node31&#45;&gt;Node26</title>
<g id="a_edge56_Node000031_Node000026"><a xlink:title=" ">
<path fill="none" stroke="#63b8ff" d="M1021.71,-68.29C1018.83,-67.62 1015.92,-67 1013.12,-66.5 837.99,-35.2 625.35,-22.16 540.13,-17.94"/>
<polygon fill="#63b8ff" stroke="#63b8ff" points="540.36,-14.39 530.2,-17.41 540.02,-21.39 540.36,-14.39"/>
</a>
</g>
</g>
<!-- Node31&#45;&gt;Node30 -->
<g id="edge54_Node000031_Node000030" class="edge">
<title>Node31&#45;&gt;Node30</title>
<g id="a_edge54_Node000031_Node000030"><a xlink:title=" ">
<path fill="none" stroke="#63b8ff" d="M1051.5,-86.11C1053.03,-92.83 1053.66,-102.27 1053.3,-110.71"/>
<polygon fill="#63b8ff" stroke="#63b8ff" points="1049.72,-110.26 1052.13,-120.58 1056.68,-111.01 1049.72,-110.26"/>
</a>
</g>
</g>
<!-- Node32&#45;&gt;Node2 -->
<g id="edge59_Node000032_Node000002" class="edge">
<title>Node32&#45;&gt;Node2</title>
<g id="a_edge59_Node000032_Node000002"><a xlink:title=" ">
<path fill="none" stroke="#63b8ff" d="M573.48,-240.76C508.34,-239.82 355.95,-233.57 324.12,-196.25 300.12,-168.11 316.17,-121.67 328.24,-95.87"/>
<polygon fill="#63b8ff" stroke="#63b8ff" points="331.74,-97.71 333.05,-87.19 325.47,-94.59 331.74,-97.71"/>
</a>
</g>
</g>
<!-- Node32&#45;&gt;Node3 -->
<g id="edge60_Node000032_Node000003" class="edge">
<title>Node32&#45;&gt;Node3</title>
<g id="a_edge60_Node000032_Node000003"><a xlink:title=" ">
<path fill="none" stroke="#63b8ff" d="M613.62,-231.87C628.86,-218.99 658.23,-194.89 685.12,-177 712.3,-158.92 732.65,-169.17 749.12,-141 758.21,-125.46 746.85,-106.87 735.41,-93.76"/>
<polygon fill="#63b8ff" stroke="#63b8ff" points="738.5,-91.89 729.09,-87.03 733.42,-96.7 738.5,-91.89"/>
</a>
</g>
</g>
<!-- Node33 -->
<g id="Node000033" class="node">
<title>Node33</title>
<g id="a_Node000033"><a xlink:href="../../d2/d27/partition_8cpp.html" target="_top" xlink:title=" ">
<polygon fill="white" stroke="#666666" points="637.75,-196.25 568.5,-196.25 568.5,-177 637.75,-177 637.75,-196.25"/>
<text text-anchor="middle" x="603.12" y="-182.75" font-family="Helvetica,sans-Serif" font-size="10.00">partition.cpp</text>
</a>
</g>
</g>
<!-- Node32&#45;&gt;Node33 -->
<g id="edge61_Node000032_Node000033" class="edge">
<title>Node32&#45;&gt;Node33</title>
<g id="a_edge61_Node000032_Node000033"><a xlink:title=" ">
<path fill="none" stroke="#63b8ff" d="M597.96,-232.08C596.52,-225.34 596.06,-215.77 596.59,-207.24"/>
<polygon fill="#63b8ff" stroke="#63b8ff" points="600.15,-207.97 597.92,-197.61 593.2,-207.1 600.15,-207.97"/>
</a>
</g>
</g>
<!-- Node33&#45;&gt;Node32 -->
<g id="edge62_Node000033_Node000032" class="edge">
<title>Node33&#45;&gt;Node32</title>
<g id="a_edge62_Node000033_Node000032"><a xlink:title=" ">
<path fill="none" stroke="#63b8ff" d="M608.33,-196.61C609.74,-203.33 610.18,-212.77 609.67,-221.21"/>
<polygon fill="#63b8ff" stroke="#63b8ff" points="606.07,-220.72 608.29,-231.08 613.02,-221.6 606.07,-220.72"/>
</a>
</g>
</g>
<!-- Node34 -->
<g id="Node000034" class="node">
<title>Node34</title>
<g id="a_Node000034"><a xlink:href="../../d8/daf/mat__min_8h.html" target="_top" xlink:title=" ">
<polygon fill="white" stroke="#666666" points="504,-141 442.25,-141 442.25,-121.75 504,-121.75 504,-141"/>
<text text-anchor="middle" x="473.12" y="-127.5" font-family="Helvetica,sans-Serif" font-size="10.00">mat_min.h</text>
</a>
</g>
</g>
<!-- Node33&#45;&gt;Node34 -->
<g id="edge63_Node000033_Node000034" class="edge">
<title>Node33&#45;&gt;Node34</title>
<g id="a_edge63_Node000033_Node000034"><a xlink:title=" ">
<path fill="none" stroke="#63b8ff" d="M581.07,-176.59C560.25,-168.06 528.78,-155.17 505.18,-145.51"/>
<polygon fill="#63b8ff" stroke="#63b8ff" points="506.87,-142 496.29,-141.45 504.21,-148.48 506.87,-142"/>
</a>
</g>
</g>
<!-- Node34&#45;&gt;Node2 -->
<g id="edge64_Node000034_Node000002" class="edge">
<title>Node34&#45;&gt;Node2</title>
<g id="a_edge64_Node000034_Node000002"><a xlink:title=" ">
<path fill="none" stroke="#63b8ff" d="M450.22,-121.34C428.5,-112.77 395.63,-99.81 371.09,-90.13"/>
<polygon fill="#63b8ff" stroke="#63b8ff" points="372.73,-86.62 362.14,-86.2 370.16,-93.13 372.73,-86.62"/>
</a>
</g>
</g>
<!-- Node34&#45;&gt;Node3 -->
<g id="edge65_Node000034_Node000003" class="edge">
<title>Node34&#45;&gt;Node3</title>
<g id="a_edge65_Node000034_Node000003"><a xlink:title=" ">
<path fill="none" stroke="#63b8ff" d="M504.15,-123.63C546.29,-114.47 621.98,-98.02 671.11,-87.34"/>
<polygon fill="#63b8ff" stroke="#63b8ff" points="671.75,-90.57 680.78,-85.03 670.26,-83.73 671.75,-90.57"/>
</a>
</g>
</g>
<!-- Node35 -->
<g id="Node000035" class="node">
<title>Node35</title>
<g id="a_Node000035"><a xlink:href="../../d4/dce/mat__min_8cpp.html" target="_top" xlink:title=" ">
<polygon fill="white" stroke="#666666" points="509.25,-85.75 437,-85.75 437,-66.5 509.25,-66.5 509.25,-85.75"/>
<text text-anchor="middle" x="473.12" y="-72.25" font-family="Helvetica,sans-Serif" font-size="10.00">mat_min.cpp</text>
</a>
</g>
</g>
<!-- Node34&#45;&gt;Node35 -->
<g id="edge66_Node000034_Node000035" class="edge">
<title>Node34&#45;&gt;Node35</title>
<g id="a_edge66_Node000034_Node000035"><a xlink:title=" ">
<path fill="none" stroke="#63b8ff" d="M467.96,-121.58C466.52,-114.84 466.06,-105.27 466.59,-96.74"/>
<polygon fill="#63b8ff" stroke="#63b8ff" points="470.15,-97.47 467.92,-87.11 463.2,-96.6 470.15,-97.47"/>
</a>
</g>
</g>
<!-- Node35&#45;&gt;Node34 -->
<g id="edge67_Node000035_Node000034" class="edge">
<title>Node35&#45;&gt;Node34</title>
<g id="a_edge67_Node000035_Node000034"><a xlink:title=" ">
<path fill="none" stroke="#63b8ff" d="M478.33,-86.11C479.74,-92.83 480.18,-102.27 479.67,-110.71"/>
<polygon fill="#63b8ff" stroke="#63b8ff" points="476.07,-110.22 478.29,-120.58 483.02,-111.1 476.07,-110.22"/>
</a>
</g>
</g>
</g>
</svg>
