<?xml version="1.0" encoding="UTF-8" standalone="no"?>
<!DOCTYPE svg PUBLIC "-//W3C//DTD SVG 1.1//EN"
 "http://www.w3.org/Graphics/SVG/1.1/DTD/svg11.dtd">
<!-- Generated by graphviz version 8.0.5 (20230430.1635)
 -->
<!-- Title: Slic3r::Arachne::to_thick_polyline Pages: 1 -->
<!--zoomable 204 -->

<svg id="main" version="1.1" xmlns="http://www.w3.org/2000/svg" xmlns:xlink="http://www.w3.org/1999/xlink" xml:space="preserve" onload="init(evt)">
<style type="text/css"><![CDATA[
.node, .edge {opacity: 0.7;}
.node.selected, .edge.selected {opacity: 1;}
.edge:hover path { stroke: red; }
.edge:hover polygon { stroke: red; fill: red; }
]]></style>

<defs>
  <circle id="rim" cx="0" cy="0" r="7"/>
  <circle id="rim2" cx="0" cy="0" r="3.5"/>
  <g id="zoomPlus">
    <use xlink:href="#rim" fill="#404040"><set attributeName="fill" to="#808080" begin="zoomplus.mouseover" end="zoomplus.mouseout"/></use>
    <path d="M-4,0h8M0,-4v8" fill="none" stroke="white" stroke-width="1.5" pointer-events="none"/>
  </g>
  <g id="zoomMin">
    <use xlink:href="#rim" fill="#404040"><set attributeName="fill" to="#808080" begin="zoomminus.mouseover" end="zoomminus.mouseout"/></use>
    <path d="M-4,0h8" fill="none" stroke="white" stroke-width="1.5" pointer-events="none"/>
  </g>
  <g id="arrowUp" transform="translate(30 24)">
    <use xlink:href="#rim"/>
    <path pointer-events="none" fill="none" stroke="white" stroke-width="1.5" d="M0,-3.0v7 M-2.5,-0.5L0,-3.0L2.5,-0.5"/>
  </g>
  <g id="arrowRight" transform="rotate(90) translate(36 -43)">
    <use xlink:href="#rim"/>
    <path pointer-events="none" fill="none" stroke="white" stroke-width="1.5" d="M0,-3.0v7 M-2.5,-0.5L0,-3.0L2.5,-0.5"/>
  </g>
  <g id="arrowDown" transform="rotate(180) translate(-30 -48)">
    <use xlink:href="#rim"/>
    <path pointer-events="none" fill="none" stroke="white" stroke-width="1.5" d="M0,-3.0v7 M-2.5,-0.5L0,-3.0L2.5,-0.5"/>
  </g>
  <g id="arrowLeft" transform="rotate(270) translate(-36 17)">
    <use xlink:href="#rim"/>
    <path pointer-events="none" fill="none" stroke="white" stroke-width="1.5" d="M0,-3.0v7 M-2.5,-0.5L0,-3.0L2.5,-0.5"/>
  </g>
  <g id="resetDef">
    <use xlink:href="#rim2" fill="#404040"><set attributeName="fill" to="#808080" begin="reset.mouseover" end="reset.mouseout"/></use>
  </g>
</defs>
<script type="application/ecmascript">
var viewWidth = 876;
var viewHeight = 204;
var sectionId = 'dynsection-29';
</script>
<script type="application/ecmascript" xlink:href="../../svg.min.js"/>
<svg id="graph" class="graph">
<g id="viewport">
<title>Slic3r::Arachne::to_thick_polyline</title>
<!-- Node1 -->
<g id="Node000001" class="node">
<title>Node1</title>
<g id="a_Node000001"><a xlink:title=" ">
<polygon fill="#999999" stroke="#666666" points="867.75,-146.5 770.75,-146.5 770.75,-116 867.75,-116 867.75,-146.5"/>
<text text-anchor="start" x="778.75" y="-133" font-family="Helvetica,sans-Serif" font-size="10.00">Slic3r::Arachne::to</text>
<text text-anchor="middle" x="819.25" y="-121.75" font-family="Helvetica,sans-Serif" font-size="10.00">_thick_polyline</text>
</a>
</g>
</g>
<!-- Node2 -->
<g id="Node000002" class="node">
<title>Node2</title>
<g id="a_Node000002"><a xlink:href="../../d7/d44/class_slic3r_1_1_fill_concentric.html#a2298411e5f4cc1027149b5d9e93bc596" target="_top" xlink:title=" ">
<polygon fill="white" stroke="#666666" points="730.25,-195.5 623.5,-195.5 623.5,-165 730.25,-165 730.25,-195.5"/>
<text text-anchor="start" x="631.5" y="-182" font-family="Helvetica,sans-Serif" font-size="10.00">Slic3r::FillConcentric</text>
<text text-anchor="middle" x="676.88" y="-170.75" font-family="Helvetica,sans-Serif" font-size="10.00">::_fill_surface_single</text>
</a>
</g>
</g>
<!-- Node1&#45;&gt;Node2 -->
<g id="edge1_Node000001_Node000002" class="edge">
<title>Node1&#45;&gt;Node2</title>
<g id="a_edge1_Node000001_Node000002"><a xlink:title=" ">
<path fill="none" stroke="#63b8ff" d="M763.35,-150.41C749.89,-155.11 735.65,-160.08 722.73,-164.59"/>
<polygon fill="#63b8ff" stroke="#63b8ff" points="764.16,-153.49 772.45,-146.89 761.85,-146.88 764.16,-153.49"/>
</a>
</g>
</g>
<!-- Node3 -->
<g id="Node000003" class="node">
<title>Node3</title>
<g id="a_Node000003"><a xlink:href="../../de/db8/namespace_slic3r.html#a4af1257597b7b952355fd049f185f2da" target="_top" xlink:title=" ">
<polygon fill="white" stroke="#666666" points="734.75,-146.5 619,-146.5 619,-116 734.75,-116 734.75,-146.5"/>
<text text-anchor="start" x="627" y="-133" font-family="Helvetica,sans-Serif" font-size="10.00">Slic3r::extrusion_paths</text>
<text text-anchor="middle" x="676.88" y="-121.75" font-family="Helvetica,sans-Serif" font-size="10.00">_append</text>
</a>
</g>
</g>
<!-- Node1&#45;&gt;Node3 -->
<g id="edge2_Node000001_Node000003" class="edge">
<title>Node1&#45;&gt;Node3</title>
<g id="a_edge2_Node000001_Node000003"><a xlink:title=" ">
<path fill="none" stroke="#63b8ff" d="M759.4,-131.25C751.25,-131.25 742.89,-131.25 734.78,-131.25"/>
<polygon fill="#63b8ff" stroke="#63b8ff" points="759.33,-134.75 769.33,-131.25 759.33,-127.75 759.33,-134.75"/>
</a>
</g>
</g>
<!-- Node4 -->
<g id="Node000004" class="node">
<title>Node4</title>
<g id="a_Node000004"><a xlink:href="../../de/db8/namespace_slic3r.html#ae6a64b64bf7342249ceb96cfc19d75e8" target="_top" xlink:title=" ">
<polygon fill="white" stroke="#666666" points="734.75,-97.5 619,-97.5 619,-67 734.75,-67 734.75,-97.5"/>
<text text-anchor="start" x="627" y="-84" font-family="Helvetica,sans-Serif" font-size="10.00">Slic3r::extrusion_paths</text>
<text text-anchor="middle" x="676.88" y="-72.75" font-family="Helvetica,sans-Serif" font-size="10.00">_append</text>
</a>
</g>
</g>
<!-- Node1&#45;&gt;Node4 -->
<g id="edge3_Node000001_Node000004" class="edge">
<title>Node1&#45;&gt;Node4</title>
<g id="a_edge3_Node000001_Node000004"><a xlink:title=" ">
<path fill="none" stroke="#63b8ff" d="M763.35,-112.09C749.89,-107.39 735.65,-102.42 722.73,-97.91"/>
<polygon fill="#63b8ff" stroke="#63b8ff" points="761.85,-115.62 772.45,-115.61 764.16,-109.01 761.85,-115.62"/>
</a>
</g>
</g>
<!-- Node5 -->
<g id="Node000005" class="node">
<title>Node5</title>
<g id="a_Node000005"><a xlink:href="../../de/db8/namespace_slic3r.html#a06a724a00fd8f8c4177b8d975567d5f4" target="_top" xlink:title=" ">
<polygon fill="white" stroke="#666666" points="583,-97.5 441.75,-97.5 441.75,-67 583,-67 583,-97.5"/>
<text text-anchor="start" x="449.75" y="-84" font-family="Helvetica,sans-Serif" font-size="10.00">Slic3r::generate_extra</text>
<text text-anchor="middle" x="512.38" y="-72.75" font-family="Helvetica,sans-Serif" font-size="10.00">_perimeters_over_overhangs</text>
</a>
</g>
</g>
<!-- Node4&#45;&gt;Node5 -->
<g id="edge4_Node000004_Node000005" class="edge">
<title>Node4&#45;&gt;Node5</title>
<g id="a_edge4_Node000004_Node000005"><a xlink:title=" ">
<path fill="none" stroke="#63b8ff" d="M607.7,-82.25C599.62,-82.25 591.36,-82.25 583.26,-82.25"/>
<polygon fill="#63b8ff" stroke="#63b8ff" points="607.58,-85.75 617.58,-82.25 607.58,-78.75 607.58,-85.75"/>
</a>
</g>
</g>
<!-- Node10 -->
<g id="Node000010" class="node">
<title>Node10</title>
<g id="a_Node000010"><a xlink:href="../../de/db8/namespace_slic3r.html#a9dad6cf1cfcb550bb371dff1fb6fd384" target="_top" xlink:title=" ">
<polygon fill="white" stroke="#666666" points="578.5,-134.88 446.25,-134.88 446.25,-115.62 578.5,-115.62 578.5,-134.88"/>
<text text-anchor="middle" x="512.38" y="-121.38" font-family="Helvetica,sans-Serif" font-size="10.00">Slic3r::traverse_extrusions</text>
</a>
</g>
</g>
<!-- Node4&#45;&gt;Node10 -->
<g id="edge10_Node000004_Node000010" class="edge">
<title>Node4&#45;&gt;Node10</title>
<g id="a_edge10_Node000004_Node000010"><a xlink:title=" ">
<path fill="none" stroke="#63b8ff" d="M607.97,-100.22C588.61,-105.34 568.22,-110.74 551.35,-115.2"/>
<polygon fill="#63b8ff" stroke="#63b8ff" points="608.81,-103.35 617.58,-97.41 607.02,-96.58 608.81,-103.35"/>
</a>
</g>
</g>
<!-- Node11 -->
<g id="Node000011" class="node">
<title>Node11</title>
<g id="a_Node000011"><a xlink:href="../../de/db8/namespace_slic3r.html#af43e0fab5b2b1d84e6b0c1bb57f61ee2" target="_top" xlink:title=" ">
<polygon fill="white" stroke="#666666" points="567.62,-30.5 457.12,-30.5 457.12,0 567.62,0 567.62,-30.5"/>
<text text-anchor="start" x="465.12" y="-17" font-family="Helvetica,sans-Serif" font-size="10.00">Slic3r::traverse_loops</text>
<text text-anchor="middle" x="512.38" y="-5.75" font-family="Helvetica,sans-Serif" font-size="10.00">_classic</text>
</a>
</g>
</g>
<!-- Node4&#45;&gt;Node11 -->
<g id="edge12_Node000004_Node000011" class="edge">
<title>Node4&#45;&gt;Node11</title>
<g id="a_edge12_Node000004_Node000011"><a xlink:title=" ">
<path fill="none" stroke="#63b8ff" d="M627.68,-62.38C603.35,-52.35 574.26,-40.35 551.52,-30.98"/>
<polygon fill="#63b8ff" stroke="#63b8ff" points="626.2,-65.97 636.78,-66.54 628.87,-59.49 626.2,-65.97"/>
</a>
</g>
</g>
<!-- Node6 -->
<g id="Node000006" class="node">
<title>Node6</title>
<g id="a_Node000006"><a xlink:href="../../d7/d1d/namespace_slic3r_1_1_perimeter_generator.html#addff59b1baf2226279fa4bf543740526" target="_top" xlink:title=" ">
<polygon fill="white" stroke="#666666" points="405.75,-118.5 274.25,-118.5 274.25,-88 405.75,-88 405.75,-118.5"/>
<text text-anchor="start" x="282.25" y="-105" font-family="Helvetica,sans-Serif" font-size="10.00">Slic3r::PerimeterGenerator</text>
<text text-anchor="middle" x="340" y="-93.75" font-family="Helvetica,sans-Serif" font-size="10.00">::process_arachne</text>
</a>
</g>
</g>
<!-- Node5&#45;&gt;Node6 -->
<g id="edge5_Node000005_Node000006" class="edge">
<title>Node5&#45;&gt;Node6</title>
<g id="a_edge5_Node000005_Node000006"><a xlink:title=" ">
<path fill="none" stroke="#63b8ff" d="M430.75,-92.19C422.46,-93.21 414.11,-94.24 406.02,-95.24"/>
<polygon fill="#63b8ff" stroke="#63b8ff" points="431.09,-95.55 440.59,-90.85 430.23,-88.6 431.09,-95.55"/>
</a>
</g>
</g>
<!-- Node9 -->
<g id="Node000009" class="node">
<title>Node9</title>
<g id="a_Node000009"><a xlink:href="../../d7/d1d/namespace_slic3r_1_1_perimeter_generator.html#ad284d87ff9b979b90cbc47cc592d101a" target="_top" xlink:title=" ">
<polygon fill="white" stroke="#666666" points="405.75,-69.5 274.25,-69.5 274.25,-39 405.75,-39 405.75,-69.5"/>
<text text-anchor="start" x="282.25" y="-56" font-family="Helvetica,sans-Serif" font-size="10.00">Slic3r::PerimeterGenerator</text>
<text text-anchor="middle" x="340" y="-44.75" font-family="Helvetica,sans-Serif" font-size="10.00">::process_classic</text>
</a>
</g>
</g>
<!-- Node5&#45;&gt;Node9 -->
<g id="edge8_Node000005_Node000009" class="edge">
<title>Node5&#45;&gt;Node9</title>
<g id="a_edge8_Node000005_Node000009"><a xlink:title=" ">
<path fill="none" stroke="#63b8ff" d="M430.75,-69C422.46,-67.64 414.11,-66.27 406.02,-64.94"/>
<polygon fill="#63b8ff" stroke="#63b8ff" points="430.15,-72.61 440.59,-70.78 431.29,-65.71 430.15,-72.61"/>
</a>
</g>
</g>
<!-- Node7 -->
<g id="Node000007" class="node">
<title>Node7</title>
<g id="a_Node000007"><a xlink:href="../../dd/d90/class_slic3r_1_1_layer_region.html#a7f8ba90770f4cfeb3e0f0fe9606e7376" target="_top" xlink:title=" ">
<polygon fill="white" stroke="#666666" points="238.25,-93.5 136.75,-93.5 136.75,-63 238.25,-63 238.25,-93.5"/>
<text text-anchor="start" x="144.75" y="-80" font-family="Helvetica,sans-Serif" font-size="10.00">Slic3r::LayerRegion</text>
<text text-anchor="middle" x="187.5" y="-68.75" font-family="Helvetica,sans-Serif" font-size="10.00">::make_perimeters</text>
</a>
</g>
</g>
<!-- Node6&#45;&gt;Node7 -->
<g id="edge6_Node000006_Node000007" class="edge">
<title>Node6&#45;&gt;Node7</title>
<g id="a_edge6_Node000006_Node000007"><a xlink:title=" ">
<path fill="none" stroke="#63b8ff" d="M263.19,-90.66C254.75,-89.25 246.31,-87.85 238.31,-86.52"/>
<polygon fill="#63b8ff" stroke="#63b8ff" points="262.43,-94.24 272.86,-92.43 263.57,-87.34 262.43,-94.24"/>
</a>
</g>
</g>
<!-- Node8 -->
<g id="Node000008" class="node">
<title>Node8</title>
<g id="a_Node000008"><a xlink:href="../../d1/d68/class_slic3r_1_1_layer.html#ade692e794d3a272a9b6985022eea64e9" target="_top" xlink:title=" ">
<polygon fill="white" stroke="#666666" points="100.75,-93.5 0,-93.5 0,-63 100.75,-63 100.75,-93.5"/>
<text text-anchor="start" x="8" y="-80" font-family="Helvetica,sans-Serif" font-size="10.00">Slic3r::Layer::make</text>
<text text-anchor="middle" x="50.38" y="-68.75" font-family="Helvetica,sans-Serif" font-size="10.00">_perimeters</text>
</a>
</g>
</g>
<!-- Node7&#45;&gt;Node8 -->
<g id="edge7_Node000007_Node000008" class="edge">
<title>Node7&#45;&gt;Node8</title>
<g id="a_edge7_Node000007_Node000008"><a xlink:title=" ">
<path fill="none" stroke="#63b8ff" d="M125.82,-78.25C117.55,-78.25 109.15,-78.25 101.1,-78.25"/>
<polygon fill="#63b8ff" stroke="#63b8ff" points="125.57,-81.75 135.57,-78.25 125.57,-74.75 125.57,-81.75"/>
</a>
</g>
</g>
<!-- Node9&#45;&gt;Node7 -->
<g id="edge9_Node000009_Node000007" class="edge">
<title>Node9&#45;&gt;Node7</title>
<g id="a_edge9_Node000009_Node000007"><a xlink:title=" ">
<path fill="none" stroke="#63b8ff" d="M263.19,-66.34C254.75,-67.69 246.31,-69.03 238.31,-70.31"/>
<polygon fill="#63b8ff" stroke="#63b8ff" points="263.54,-69.67 272.86,-64.64 262.44,-62.76 263.54,-69.67"/>
</a>
</g>
</g>
<!-- Node10&#45;&gt;Node6 -->
<g id="edge11_Node000010_Node000006" class="edge">
<title>Node10&#45;&gt;Node6</title>
<g id="a_edge11_Node000010_Node000006"><a xlink:title=" ">
<path fill="none" stroke="#63b8ff" d="M435.17,-115.41C425.5,-114.16 415.68,-112.89 406.21,-111.67"/>
<polygon fill="#63b8ff" stroke="#63b8ff" points="434.62,-119 444.99,-116.81 435.52,-112.06 434.62,-119"/>
</a>
</g>
</g>
<!-- Node11&#45;&gt;Node9 -->
<g id="edge13_Node000011_Node000009" class="edge">
<title>Node11&#45;&gt;Node9</title>
<g id="a_edge13_Node000011_Node000009"><a xlink:title=" ">
<path fill="none" stroke="#63b8ff" d="M446.57,-30.09C433.34,-33.11 419.42,-36.3 406.18,-39.33"/>
<polygon fill="#63b8ff" stroke="#63b8ff" points="447.03,-33.34 456,-27.7 445.47,-26.52 447.03,-33.34"/>
</a>
</g>
</g>
<!-- Node11&#45;&gt;Node11 -->
<g id="edge14_Node000011_Node000011" class="edge">
<title>Node11&#45;&gt;Node11</title>
<g id="a_edge14_Node000011_Node000011"><a xlink:title=" ">
<path fill="none" stroke="#63b8ff" d="M540.34,-41.88C535.97,-45.83 526.65,-48.5 512.38,-48.5 486.99,-48.5 477.28,-40.06 483.23,-30.99"/>
<polygon fill="#63b8ff" stroke="#63b8ff" points="543.92,-42.31 541.52,-31.99 536.96,-41.55 543.92,-42.31"/>
</a>
</g>
</g>
</g>
</svg>

<g id="navigator" transform="translate(0 0)" fill="#404254">
  <rect fill="#f2f5e9" fill-opacity="0.5" stroke="#606060" stroke-width=".5" x="0" y="0" width="60" height="60"/>
  <use id="zoomplus" xlink:href="#zoomPlus" x="17" y="9" onmousedown="handleZoom(evt,'in')"/>
  <use id="zoomminus" xlink:href="#zoomMin" x="42" y="9" onmousedown="handleZoom(evt,'out')"/>
  <use id="reset" xlink:href="#resetDef" x="30" y="36" onmousedown="handleReset()"/>
   <use id="arrowup" xlink:href="#arrowUp" x="0" y="0" onmousedown="handlePan(0,-1)"/>
  <use id="arrowright" xlink:href="#arrowRight" x="0" y="0" onmousedown="handlePan(1,0)"/>
  <use id="arrowdown" xlink:href="#arrowDown" x="0" y="0" onmousedown="handlePan(0,1)"/>
  <use id="arrowleft" xlink:href="#arrowLeft" x="0" y="0" onmousedown="handlePan(-1,0)"/>
</g>
<svg viewBox="0 0 15 15" width="100%" height="30px" preserveAspectRatio="xMaxYMin meet">
 <g id="arrow_out" transform="scale(0.3 0.3)">
  <a xlink:href="namespace_slic3r_1_1_arachne_af5c16e0833be381fc2432096e41ef4ce_icgraph_org.svg" target="_base">
   <rect id="button" ry="5" rx="5" y="6" x="6" height="38" width="38"
        fill="#f2f5e9" fill-opacity="0.5" stroke="#606060" stroke-width="1.0"/>
   <path id="arrow"
     d="M 11.500037,31.436501 C 11.940474,20.09759 22.043105,11.32322 32.158766,21.979434 L 37.068811,17.246167 C 37.068811,17.246167 37.088388,32 37.088388,32 L 22.160133,31.978069 C 22.160133,31.978069 26.997745,27.140456 26.997745,27.140456 C 18.528582,18.264221 13.291696,25.230495 11.500037,31.436501 z"
     style="fill:#404040;"/>
  </a>
 </g>
</svg>

<style type='text/css'>
<![CDATA[
[data-mouse-over-selected='false'] { opacity: 0.7; }
[data-mouse-over-selected='true']  { opacity: 1.0; }
]]>
</style>
<script type="application/ecmascript"><![CDATA[
document.addEventListener('DOMContentLoaded', (event) => {
  highlightEdges();
  highlightAdjacentNodes();
});
]]></script>
</svg>
