<?xml version="1.0" encoding="UTF-8" standalone="no"?>
<!DOCTYPE svg PUBLIC "-//W3C//DTD SVG 1.1//EN"
 "http://www.w3.org/Graphics/SVG/1.1/DTD/svg11.dtd">
<!-- Generated by graphviz version 8.0.5 (20230430.1635)
 -->
<!-- Title: Slic3r::GUI::get_full_settings_hierarchy Pages: 1 -->
<svg width="434pt" height="211pt"
 viewBox="0.00 0.00 434.00 210.88" xmlns="http://www.w3.org/2000/svg" xmlns:xlink="http://www.w3.org/1999/xlink">
<g id="graph0" class="graph" transform="scale(1 1) rotate(0) translate(4 206.88)">
<title>Slic3r::GUI::get_full_settings_hierarchy</title>
<!-- Node1 -->
<g id="Node000001" class="node">
<title>Node1</title>
<g id="a_Node000001"><a xlink:title=" ">
<polygon fill="#999999" stroke="#666666" points="102.25,-122.5 0,-122.5 0,-92 102.25,-92 102.25,-122.5"/>
<text text-anchor="start" x="8" y="-109" font-family="Helvetica,sans-Serif" font-size="10.00">Slic3r::GUI::get_full</text>
<text text-anchor="middle" x="51.12" y="-97.75" font-family="Helvetica,sans-Serif" font-size="10.00">_settings_hierarchy</text>
</a>
</g>
</g>
<!-- Node2 -->
<g id="Node000002" class="node">
<title>Node2</title>
<g id="a_Node000002"><a xlink:href="../../d8/dea/class_slic3r_1_1_dynamic_print_config.html#a74de587089556949cf14cef8e1360044" target="_top" xlink:title=" ">
<polygon fill="white" stroke="#666666" points="292.25,-202.88 138.25,-202.88 138.25,-183.62 292.25,-183.62 292.25,-202.88"/>
<text text-anchor="middle" x="215.25" y="-189.38" font-family="Helvetica,sans-Serif" font-size="10.00">Slic3r::DynamicPrintConfig::def</text>
</a>
</g>
</g>
<!-- Node1&#45;&gt;Node2 -->
<g id="edge1_Node000001_Node000002" class="edge">
<title>Node1&#45;&gt;Node2</title>
<g id="a_edge1_Node000001_Node000002"><a xlink:title=" ">
<path fill="none" stroke="#63b8ff" d="M67.88,-122.85C84.17,-138.13 111,-160.98 138.25,-174.25 142.49,-176.32 146.98,-178.17 151.57,-179.83"/>
<polygon fill="#63b8ff" stroke="#63b8ff" points="150.13,-183.37 160.72,-183.17 152.32,-176.72 150.13,-183.37"/>
</a>
</g>
</g>
<!-- Node3 -->
<g id="Node000003" class="node">
<title>Node3</title>
<g id="a_Node000003"><a xlink:href="../../d9/d45/namespace_slic3r_1_1_g_u_i.html#a1828d39a4d004eae9e6e7559f16a0900" target="_top" xlink:title=" ">
<polygon fill="white" stroke="#666666" points="270.88,-165.5 159.62,-165.5 159.62,-135 270.88,-135 270.88,-165.5"/>
<text text-anchor="start" x="167.62" y="-152" font-family="Helvetica,sans-Serif" font-size="10.00">Slic3r::GUI::extruders</text>
<text text-anchor="middle" x="215.25" y="-140.75" font-family="Helvetica,sans-Serif" font-size="10.00">_count</text>
</a>
</g>
</g>
<!-- Node1&#45;&gt;Node3 -->
<g id="edge2_Node000001_Node000003" class="edge">
<title>Node1&#45;&gt;Node3</title>
<g id="a_edge2_Node000001_Node000003"><a xlink:title=" ">
<path fill="none" stroke="#63b8ff" d="M102.53,-120.62C117.19,-124.51 133.4,-128.81 148.84,-132.9"/>
<polygon fill="#63b8ff" stroke="#63b8ff" points="147.8,-136.51 158.37,-135.69 149.6,-129.75 147.8,-136.51"/>
</a>
</g>
</g>
<!-- Node4 -->
<g id="Node000004" class="node">
<title>Node4</title>
<g id="a_Node000004"><a xlink:href="../../d8/d3c/class_slic3r_1_1_config_def.html#a5c965f6ca20611f3afb93d4d51ac2b46" target="_top" xlink:title=" ">
<polygon fill="white" stroke="#666666" points="270.5,-116.88 160,-116.88 160,-97.62 270.5,-97.62 270.5,-116.88"/>
<text text-anchor="middle" x="215.25" y="-103.38" font-family="Helvetica,sans-Serif" font-size="10.00">Slic3r::ConfigDef::get</text>
</a>
</g>
</g>
<!-- Node1&#45;&gt;Node4 -->
<g id="edge3_Node000001_Node000004" class="edge">
<title>Node1&#45;&gt;Node4</title>
<g id="a_edge3_Node000001_Node000004"><a xlink:title=" ">
<path fill="none" stroke="#63b8ff" d="M102.53,-107.25C117.26,-107.25 133.57,-107.25 149.07,-107.25"/>
<polygon fill="#63b8ff" stroke="#63b8ff" points="148.65,-110.75 158.65,-107.25 148.65,-103.75 148.65,-110.75"/>
</a>
</g>
</g>
<!-- Node5 -->
<g id="Node000005" class="node">
<title>Node5</title>
<g id="a_Node000005"><a xlink:href="../../de/def/struct_slic3r_1_1_g_u_i_1_1_settings_factory.html#ab7100cb729fe98458e751b0b10050ec4" target="_top" xlink:title=" ">
<polygon fill="white" stroke="#666666" points="285.12,-79.5 145.38,-79.5 145.38,-49 285.12,-49 285.12,-79.5"/>
<text text-anchor="start" x="153.38" y="-66" font-family="Helvetica,sans-Serif" font-size="10.00">Slic3r::GUI::SettingsFactory</text>
<text text-anchor="middle" x="215.25" y="-54.75" font-family="Helvetica,sans-Serif" font-size="10.00">::get_options</text>
</a>
</g>
</g>
<!-- Node1&#45;&gt;Node5 -->
<g id="edge4_Node000001_Node000005" class="edge">
<title>Node1&#45;&gt;Node5</title>
<g id="a_edge4_Node000001_Node000005"><a xlink:title=" ">
<path fill="none" stroke="#63b8ff" d="M102.53,-93.88C115.92,-90.33 130.62,-86.43 144.83,-82.66"/>
<polygon fill="#63b8ff" stroke="#63b8ff" points="145.3,-85.89 154.07,-79.95 143.5,-79.13 145.3,-85.89"/>
</a>
</g>
</g>
<!-- Node7 -->
<g id="Node000007" class="node">
<title>Node7</title>
<g id="a_Node000007"><a xlink:href="../../d9/d45/namespace_slic3r_1_1_g_u_i.html#ae7ea012b7d51287b9d9ab8fd55c5ad79" target="_top" xlink:title=" ">
<polygon fill="white" stroke="#666666" points="275.75,-30.5 154.75,-30.5 154.75,0 275.75,0 275.75,-30.5"/>
<text text-anchor="start" x="162.75" y="-17" font-family="Helvetica,sans-Serif" font-size="10.00">Slic3r::GUI::is_improper</text>
<text text-anchor="middle" x="215.25" y="-5.75" font-family="Helvetica,sans-Serif" font-size="10.00">_category</text>
</a>
</g>
</g>
<!-- Node1&#45;&gt;Node7 -->
<g id="edge6_Node000001_Node000007" class="edge">
<title>Node1&#45;&gt;Node7</title>
<g id="a_edge6_Node000001_Node000007"><a xlink:title=" ">
<path fill="none" stroke="#63b8ff" d="M68.4,-91.78C84.88,-76.83 111.67,-54.41 138.25,-40.25 141.7,-38.41 145.31,-36.67 149.01,-35.04"/>
<polygon fill="#63b8ff" stroke="#63b8ff" points="150.02,-38 157.93,-30.95 147.35,-31.53 150.02,-38"/>
</a>
</g>
</g>
<!-- Node6 -->
<g id="Node000006" class="node">
<title>Node6</title>
<g id="a_Node000006"><a xlink:href="../../d9/d45/namespace_slic3r_1_1_g_u_i.html#a16222266bd95577d0fddd938c4f1bbbf" target="_top" xlink:title=" ">
<polygon fill="white" stroke="#666666" points="426,-79.5 328.25,-79.5 328.25,-49 426,-49 426,-79.5"/>
<text text-anchor="start" x="336.25" y="-66" font-family="Helvetica,sans-Serif" font-size="10.00">Slic3r::GUI::printer</text>
<text text-anchor="middle" x="377.12" y="-54.75" font-family="Helvetica,sans-Serif" font-size="10.00">_technology</text>
</a>
</g>
</g>
<!-- Node5&#45;&gt;Node6 -->
<g id="edge5_Node000005_Node000006" class="edge">
<title>Node5&#45;&gt;Node6</title>
<g id="a_edge5_Node000005_Node000006"><a xlink:title=" ">
<path fill="none" stroke="#63b8ff" d="M285.44,-64.25C295.98,-64.25 306.77,-64.25 317.06,-64.25"/>
<polygon fill="#63b8ff" stroke="#63b8ff" points="317,-67.75 327,-64.25 317,-60.75 317,-67.75"/>
</a>
</g>
</g>
</g>
</svg>
