<?xml version="1.0" encoding="UTF-8" standalone="no"?>
<!DOCTYPE svg PUBLIC "-//W3C//DTD SVG 1.1//EN"
 "http://www.w3.org/Graphics/SVG/1.1/DTD/svg11.dtd">
<!-- Generated by graphviz version 8.0.5 (20230430.1635)
 -->
<!-- Title: Slic3r::GUI::get_wraped_wxString Pages: 1 -->
<svg width="472pt" height="147pt"
 viewBox="0.00 0.00 472.25 147.12" xmlns="http://www.w3.org/2000/svg" xmlns:xlink="http://www.w3.org/1999/xlink">
<g id="graph0" class="graph" transform="scale(1 1) rotate(0) translate(4 143.12)">
<title>Slic3r::GUI::get_wraped_wxString</title>
<!-- Node1 -->
<g id="Node000001" class="node">
<title>Node1</title>
<g id="a_Node000001"><a xlink:title=" ">
<polygon fill="#999999" stroke="#666666" points="464.25,-90.12 343.25,-90.12 343.25,-59.62 464.25,-59.62 464.25,-90.12"/>
<text text-anchor="start" x="351.25" y="-76.62" font-family="Helvetica,sans-Serif" font-size="10.00">Slic3r::GUI::get_wraped</text>
<text text-anchor="middle" x="403.75" y="-65.38" font-family="Helvetica,sans-Serif" font-size="10.00">_wxString</text>
</a>
</g>
</g>
<!-- Node2 -->
<g id="Node000002" class="node">
<title>Node2</title>
<g id="a_Node000002"><a xlink:href="../../d8/dc6/class_slic3r_1_1_g_u_i_1_1_load_projects_dialog.html#adc9787d9beddd856738fe1f12074a070" target="_top" xlink:title=" ">
<polygon fill="white" stroke="#666666" points="307.25,-139.12 172.75,-139.12 172.75,-108.62 307.25,-108.62 307.25,-139.12"/>
<text text-anchor="start" x="180.75" y="-125.62" font-family="Helvetica,sans-Serif" font-size="10.00">Slic3r::GUI::LoadProjects</text>
<text text-anchor="middle" x="240" y="-114.38" font-family="Helvetica,sans-Serif" font-size="10.00">Dialog::LoadProjectsDialog</text>
</a>
</g>
</g>
<!-- Node1&#45;&gt;Node2 -->
<g id="edge1_Node000001_Node000002" class="edge">
<title>Node1&#45;&gt;Node2</title>
<g id="a_edge1_Node000001_Node000002"><a xlink:title=" ">
<path fill="none" stroke="#63b8ff" d="M340.91,-93.61C325.08,-98.4 308.23,-103.51 292.97,-108.13"/>
<polygon fill="#63b8ff" stroke="#63b8ff" points="341.57,-96.76 350.13,-90.51 339.54,-90.06 341.57,-96.76"/>
</a>
</g>
</g>
<!-- Node3 -->
<g id="Node000003" class="node">
<title>Node3</title>
<g id="a_Node000003"><a xlink:href="../../d1/d0c/class_slic3r_1_1_g_u_i_1_1_project_drop_dialog.html#aa4d7e5f9f42155282541dbef064fb6fe" target="_top" xlink:title=" ">
<polygon fill="white" stroke="#666666" points="304.62,-90.12 175.38,-90.12 175.38,-59.62 304.62,-59.62 304.62,-90.12"/>
<text text-anchor="start" x="183.38" y="-76.62" font-family="Helvetica,sans-Serif" font-size="10.00">Slic3r::GUI::ProjectDrop</text>
<text text-anchor="middle" x="240" y="-65.38" font-family="Helvetica,sans-Serif" font-size="10.00">Dialog::ProjectDropDialog</text>
</a>
</g>
</g>
<!-- Node1&#45;&gt;Node3 -->
<g id="edge2_Node000001_Node000003" class="edge">
<title>Node1&#45;&gt;Node3</title>
<g id="a_edge2_Node000001_Node000003"><a xlink:title=" ">
<path fill="none" stroke="#63b8ff" d="M332.06,-74.88C323.02,-74.88 313.8,-74.88 304.87,-74.88"/>
<polygon fill="#63b8ff" stroke="#63b8ff" points="331.98,-78.38 341.98,-74.88 331.98,-71.38 331.98,-78.38"/>
</a>
</g>
</g>
<!-- Node4 -->
<g id="Node000004" class="node">
<title>Node4</title>
<g id="a_Node000004"><a xlink:href="../../d8/d38/class_slic3r_1_1_g_u_i_1_1_g_l_gizmo_cut3_d.html#aeb913488bda5eff800b7a34daa61a60d" target="_top" xlink:title=" ">
<polygon fill="white" stroke="#666666" points="306.5,-41.75 173.5,-41.75 173.5,0 306.5,0 306.5,-41.75"/>
<text text-anchor="start" x="181.5" y="-28.25" font-family="Helvetica,sans-Serif" font-size="10.00">Slic3r::GUI::GLGizmoCut3</text>
<text text-anchor="start" x="181.5" y="-17" font-family="Helvetica,sans-Serif" font-size="10.00">D::render_cut_plane_input</text>
<text text-anchor="middle" x="240" y="-5.75" font-family="Helvetica,sans-Serif" font-size="10.00">_window</text>
</a>
</g>
</g>
<!-- Node1&#45;&gt;Node4 -->
<g id="edge3_Node000001_Node000004" class="edge">
<title>Node1&#45;&gt;Node4</title>
<g id="a_edge3_Node000001_Node000004"><a xlink:title=" ">
<path fill="none" stroke="#63b8ff" d="M345.61,-55.8C332.41,-51.39 318.29,-46.68 304.83,-42.18"/>
<polygon fill="#63b8ff" stroke="#63b8ff" points="344.37,-59.41 354.97,-59.26 346.59,-52.77 344.37,-59.41"/>
</a>
</g>
</g>
<!-- Node5 -->
<g id="Node000005" class="node">
<title>Node5</title>
<g id="a_Node000005"><a xlink:href="../../d8/d38/class_slic3r_1_1_g_u_i_1_1_g_l_gizmo_cut3_d.html#a8710869690690f2dcfbb80fddbe43624" target="_top" xlink:title=" ">
<polygon fill="white" stroke="#666666" points="136.75,-36.12 0,-36.12 0,-5.62 136.75,-5.62 136.75,-36.12"/>
<text text-anchor="start" x="8" y="-22.62" font-family="Helvetica,sans-Serif" font-size="10.00">Slic3r::GUI::GLGizmoCut3</text>
<text text-anchor="middle" x="68.38" y="-11.38" font-family="Helvetica,sans-Serif" font-size="10.00">D::on_render_input_window</text>
</a>
</g>
</g>
<!-- Node4&#45;&gt;Node5 -->
<g id="edge4_Node000004_Node000005" class="edge">
<title>Node4&#45;&gt;Node5</title>
<g id="a_edge4_Node000004_Node000005"><a xlink:title=" ">
<path fill="none" stroke="#63b8ff" d="M162.68,-20.88C154.12,-20.88 145.46,-20.88 137.02,-20.88"/>
<polygon fill="#63b8ff" stroke="#63b8ff" points="162.42,-24.38 172.42,-20.88 162.42,-17.38 162.42,-24.38"/>
</a>
</g>
</g>
</g>
</svg>
