<?xml version="1.0" encoding="UTF-8" standalone="no"?>
<!DOCTYPE svg PUBLIC "-//W3C//DTD SVG 1.1//EN"
 "http://www.w3.org/Graphics/SVG/1.1/DTD/svg11.dtd">
<!-- Generated by graphviz version 8.0.5 (20230430.1635)
 -->
<!-- Title: src/libigl/igl/readPLY.h Pages: 1 -->
<svg width="271pt" height="293pt"
 viewBox="0.00 0.00 271.00 293.25" xmlns="http://www.w3.org/2000/svg" xmlns:xlink="http://www.w3.org/1999/xlink">
<g id="graph0" class="graph" transform="scale(1 1) rotate(0) translate(4 289.25)">
<title>src/libigl/igl/readPLY.h</title>
<!-- Node1 -->
<g id="Node000001" class="node">
<title>Node1</title>
<g id="a_Node000001"><a xlink:title=" ">
<polygon fill="#999999" stroke="#666666" points="117.25,-285.25 5.25,-285.25 5.25,-266 117.25,-266 117.25,-285.25"/>
<text text-anchor="middle" x="61.25" y="-271.75" font-family="Helvetica,sans-Serif" font-size="10.00">src/libigl/igl/readPLY.h</text>
</a>
</g>
</g>
<!-- Node2 -->
<g id="Node000002" class="node">
<title>Node2</title>
<g id="a_Node000002"><a xlink:href="../../d7/de7/read_p_l_y_8cpp.html" target="_top" xlink:title=" ">
<polygon fill="white" stroke="#666666" points="122.5,-224.38 0,-224.38 0,-205.12 122.5,-205.12 122.5,-224.38"/>
<text text-anchor="middle" x="61.25" y="-210.88" font-family="Helvetica,sans-Serif" font-size="10.00">src/libigl/igl/readPLY.cpp</text>
</a>
</g>
</g>
<!-- Node1&#45;&gt;Node2 -->
<g id="edge1_Node000001_Node000002" class="edge">
<title>Node1&#45;&gt;Node2</title>
<g id="a_edge1_Node000001_Node000002"><a xlink:title=" ">
<path fill="none" stroke="#63b8ff" d="M54.84,-254.87C54.11,-244.68 54.57,-232.76 56.22,-224.78"/>
<polygon fill="#63b8ff" stroke="#63b8ff" points="51.48,-255.22 56.24,-264.68 58.42,-254.32 51.48,-255.22"/>
</a>
</g>
</g>
<!-- Node3 -->
<g id="Node000003" class="node">
<title>Node3</title>
<g id="a_Node000003"><a xlink:href="../../db/d77/read__triangle__mesh_8cpp.html" target="_top" xlink:title=" ">
<polygon fill="white" stroke="#666666" points="241.62,-230 140.88,-230 140.88,-199.5 241.62,-199.5 241.62,-230"/>
<text text-anchor="start" x="148.88" y="-216.5" font-family="Helvetica,sans-Serif" font-size="10.00">src/libigl/igl/read</text>
<text text-anchor="middle" x="191.25" y="-205.25" font-family="Helvetica,sans-Serif" font-size="10.00">_triangle_mesh.cpp</text>
</a>
</g>
</g>
<!-- Node1&#45;&gt;Node3 -->
<g id="edge3_Node000001_Node000003" class="edge">
<title>Node1&#45;&gt;Node3</title>
<g id="a_edge3_Node000001_Node000003"><a xlink:title=" ">
<path fill="none" stroke="#63b8ff" d="M91.2,-261.06C111.41,-251.91 138.08,-239.83 158.8,-230.44"/>
<polygon fill="#63b8ff" stroke="#63b8ff" points="89.94,-258.24 82.28,-265.55 92.83,-264.62 89.94,-258.24"/>
</a>
</g>
</g>
<!-- Node2&#45;&gt;Node1 -->
<g id="edge2_Node000002_Node000001" class="edge">
<title>Node2&#45;&gt;Node1</title>
<g id="a_edge2_Node000002_Node000001"><a xlink:title=" ">
<path fill="none" stroke="#63b8ff" d="M67.67,-235.62C68.39,-245.81 67.92,-257.73 66.26,-265.68"/>
<polygon fill="#63b8ff" stroke="#63b8ff" points="71.03,-235.25 66.28,-225.78 64.08,-236.14 71.03,-235.25"/>
</a>
</g>
</g>
<!-- Node4 -->
<g id="Node000004" class="node">
<title>Node4</title>
<g id="a_Node000004"><a xlink:href="../../d0/ddf/read__triangle__mesh_8h.html" target="_top" xlink:title=" ">
<polygon fill="white" stroke="#666666" points="236.38,-163.5 146.12,-163.5 146.12,-133 236.38,-133 236.38,-163.5"/>
<text text-anchor="start" x="154.12" y="-150" font-family="Helvetica,sans-Serif" font-size="10.00">src/libigl/igl/read</text>
<text text-anchor="middle" x="191.25" y="-138.75" font-family="Helvetica,sans-Serif" font-size="10.00">_triangle_mesh.h</text>
</a>
</g>
</g>
<!-- Node3&#45;&gt;Node4 -->
<g id="edge4_Node000003_Node000004" class="edge">
<title>Node3&#45;&gt;Node4</title>
<g id="a_edge4_Node000003_Node000004"><a xlink:title=" ">
<path fill="none" stroke="#63b8ff" d="M184.64,-188.38C184.3,-180.05 184.58,-171.08 185.5,-163.83"/>
<polygon fill="#63b8ff" stroke="#63b8ff" points="181.21,-188.42 185.49,-198.11 188.19,-187.87 181.21,-188.42"/>
</a>
</g>
</g>
<!-- Node4&#45;&gt;Node3 -->
<g id="edge8_Node000004_Node000003" class="edge">
<title>Node4&#45;&gt;Node3</title>
<g id="a_edge8_Node000004_Node000003"><a xlink:title=" ">
<path fill="none" stroke="#63b8ff" d="M197.86,-174.56C198.2,-182.88 197.92,-191.86 197.01,-199.11"/>
<polygon fill="#63b8ff" stroke="#63b8ff" points="201.29,-174.52 197,-164.83 194.31,-175.07 201.29,-174.52"/>
</a>
</g>
</g>
<!-- Node5 -->
<g id="Node000005" class="node">
<title>Node5</title>
<g id="a_Node000005"><a xlink:href="../../db/db8/copyleft_2cgal_2read__triangle__mesh_8cpp.html" target="_top" xlink:title=" ">
<polygon fill="white" stroke="#666666" points="263,-97 119.5,-97 119.5,-66.5 263,-66.5 263,-97"/>
<text text-anchor="start" x="127.5" y="-83.5" font-family="Helvetica,sans-Serif" font-size="10.00">src/libigl/igl/copyleft</text>
<text text-anchor="middle" x="191.25" y="-72.25" font-family="Helvetica,sans-Serif" font-size="10.00">/cgal/read_triangle_mesh.cpp</text>
</a>
</g>
</g>
<!-- Node4&#45;&gt;Node5 -->
<g id="edge5_Node000004_Node000005" class="edge">
<title>Node4&#45;&gt;Node5</title>
<g id="a_edge5_Node000004_Node000005"><a xlink:title=" ">
<path fill="none" stroke="#63b8ff" d="M191.25,-121.88C191.25,-113.55 191.25,-104.58 191.25,-97.33"/>
<polygon fill="#63b8ff" stroke="#63b8ff" points="187.75,-121.61 191.25,-131.61 194.75,-121.61 187.75,-121.61"/>
</a>
</g>
</g>
<!-- Node6 -->
<g id="Node000006" class="node">
<title>Node6</title>
<g id="a_Node000006"><a xlink:href="../../d6/d64/copyleft_2cgal_2read__triangle__mesh_8h.html" target="_top" xlink:title=" ">
<polygon fill="white" stroke="#666666" points="257.75,-30.5 124.75,-30.5 124.75,0 257.75,0 257.75,-30.5"/>
<text text-anchor="start" x="132.75" y="-17" font-family="Helvetica,sans-Serif" font-size="10.00">src/libigl/igl/copyleft</text>
<text text-anchor="middle" x="191.25" y="-5.75" font-family="Helvetica,sans-Serif" font-size="10.00">/cgal/read_triangle_mesh.h</text>
</a>
</g>
</g>
<!-- Node5&#45;&gt;Node6 -->
<g id="edge6_Node000005_Node000006" class="edge">
<title>Node5&#45;&gt;Node6</title>
<g id="a_edge6_Node000005_Node000006"><a xlink:title=" ">
<path fill="none" stroke="#63b8ff" d="M184.64,-55.38C184.3,-47.05 184.58,-38.08 185.5,-30.83"/>
<polygon fill="#63b8ff" stroke="#63b8ff" points="181.21,-55.42 185.49,-65.11 188.19,-54.87 181.21,-55.42"/>
</a>
</g>
</g>
<!-- Node6&#45;&gt;Node5 -->
<g id="edge7_Node000006_Node000005" class="edge">
<title>Node6&#45;&gt;Node5</title>
<g id="a_edge7_Node000006_Node000005"><a xlink:title=" ">
<path fill="none" stroke="#63b8ff" d="M197.86,-41.56C198.2,-49.88 197.92,-58.86 197.01,-66.11"/>
<polygon fill="#63b8ff" stroke="#63b8ff" points="201.29,-41.52 197,-31.83 194.31,-42.07 201.29,-41.52"/>
</a>
</g>
</g>
</g>
</svg>
