<?xml version="1.0" encoding="UTF-8" standalone="no"?>
<!DOCTYPE svg PUBLIC "-//W3C//DTD SVG 1.1//EN"
 "http://www.w3.org/Graphics/SVG/1.1/DTD/svg11.dtd">
<!-- Generated by graphviz version 8.0.5 (20230430.1635)
 -->
<!-- Title: Slic3r::GUI::NotificationManager::push_notification Pages: 1 -->
<svg width="334pt" height="57pt"
 viewBox="0.00 0.00 334.00 56.50" xmlns="http://www.w3.org/2000/svg" xmlns:xlink="http://www.w3.org/1999/xlink">
<g id="graph0" class="graph" transform="scale(1 1) rotate(0) translate(4 52.5)">
<title>Slic3r::GUI::NotificationManager::push_notification</title>
<!-- Node1 -->
<g id="Node000001" class="node">
<title>Node1</title>
<g id="a_Node000001"><a xlink:title=" ">
<polygon fill="#999999" stroke="#666666" points="133,-30.5 0,-30.5 0,0 133,0 133,-30.5"/>
<text text-anchor="start" x="8" y="-17" font-family="Helvetica,sans-Serif" font-size="10.00">Slic3r::GUI::Notification</text>
<text text-anchor="middle" x="66.5" y="-5.75" font-family="Helvetica,sans-Serif" font-size="10.00">Manager::push_notification</text>
</a>
</g>
</g>
<!-- Node2 -->
<g id="Node000002" class="node">
<title>Node2</title>
<g id="a_Node000002"><a xlink:href="../../dc/d6f/class_slic3r_1_1_g_u_i_1_1_notification_manager.html#a2e5e545961e11c667d4bb4cd0c367db7" target="_top" xlink:title=" ">
<polygon fill="white" stroke="#666666" points="326,-30.5 169,-30.5 169,0 326,0 326,-30.5"/>
<text text-anchor="start" x="177" y="-17" font-family="Helvetica,sans-Serif" font-size="10.00">Slic3r::GUI::Notification</text>
<text text-anchor="middle" x="247.5" y="-5.75" font-family="Helvetica,sans-Serif" font-size="10.00">Manager::push_notification_data</text>
</a>
</g>
</g>
<!-- Node1&#45;&gt;Node2 -->
<g id="edge1_Node000001_Node000002" class="edge">
<title>Node1&#45;&gt;Node2</title>
<g id="a_edge1_Node000001_Node000002"><a xlink:title=" ">
<path fill="none" stroke="#63b8ff" d="M133.39,-15.25C141.36,-15.25 149.6,-15.25 157.83,-15.25"/>
<polygon fill="#63b8ff" stroke="#63b8ff" points="157.62,-18.75 167.62,-15.25 157.62,-11.75 157.62,-18.75"/>
</a>
</g>
</g>
<!-- Node2&#45;&gt;Node2 -->
<g id="edge2_Node000002_Node000002" class="edge">
<title>Node2&#45;&gt;Node2</title>
<g id="a_edge2_Node000002_Node000002"><a xlink:title=" ">
<path fill="none" stroke="#63b8ff" d="M215.43,-30.99C208.88,-40.06 219.57,-48.5 247.5,-48.5 263.21,-48.5 273.46,-45.83 278.27,-41.88"/>
<polygon fill="#63b8ff" stroke="#63b8ff" points="281.86,-42.33 279.57,-31.99 274.91,-41.5 281.86,-42.33"/>
</a>
</g>
</g>
</g>
</svg>
