<?xml version="1.0" encoding="UTF-8" standalone="no"?>
<!DOCTYPE svg PUBLIC "-//W3C//DTD SVG 1.1//EN"
 "http://www.w3.org/Graphics/SVG/1.1/DTD/svg11.dtd">
<!-- Generated by graphviz version 8.0.5 (20230430.1635)
 -->
<!-- Title: __gl_meshMakeEdge Pages: 1 -->
<svg width="612pt" height="103pt"
 viewBox="0.00 0.00 612.25 103.25" xmlns="http://www.w3.org/2000/svg" xmlns:xlink="http://www.w3.org/1999/xlink">
<g id="graph0" class="graph" transform="scale(1 1) rotate(0) translate(4 99.25)">
<title>__gl_meshMakeEdge</title>
<!-- Node1 -->
<g id="Node000001" class="node">
<title>Node1</title>
<g id="a_Node000001"><a xlink:title=" ">
<polygon fill="#999999" stroke="#666666" points="604.25,-75.25 494.5,-75.25 494.5,-56 604.25,-56 604.25,-75.25"/>
<text text-anchor="middle" x="549.38" y="-61.75" font-family="Helvetica,sans-Serif" font-size="10.00">__gl_meshMakeEdge</text>
</a>
</g>
</g>
<!-- Node2 -->
<g id="Node000002" class="node">
<title>Node2</title>
<g id="a_Node000002"><a xlink:href="../../d0/d91/sweep_8c.html#afb9eef3d219bd452782bf0ddfcff7b8f" target="_top" xlink:title=" ">
<polygon fill="white" stroke="#666666" points="458.5,-94.25 390,-94.25 390,-75 458.5,-75 458.5,-94.25"/>
<text text-anchor="middle" x="424.25" y="-80.75" font-family="Helvetica,sans-Serif" font-size="10.00">AddSentinel</text>
</a>
</g>
</g>
<!-- Node1&#45;&gt;Node2 -->
<g id="edge1_Node000001_Node000002" class="edge">
<title>Node1&#45;&gt;Node2</title>
<g id="a_edge1_Node000001_Node000002"><a xlink:title=" ">
<path fill="none" stroke="#63b8ff" d="M483.29,-75.67C474.83,-76.97 466.45,-78.27 458.81,-79.45"/>
<polygon fill="#63b8ff" stroke="#63b8ff" points="483.66,-79 493.01,-74.01 482.6,-72.08 483.66,-79"/>
</a>
</g>
</g>
<!-- Node6 -->
<g id="Node000006" class="node">
<title>Node6</title>
<g id="a_Node000006"><a xlink:href="../../d1/d8e/tess_8c.html#a1e9954b3424a9602f1bf76fc2524fbb2" target="_top" xlink:title=" ">
<polygon fill="white" stroke="#666666" points="455.12,-57.25 393.38,-57.25 393.38,-38 455.12,-38 455.12,-57.25"/>
<text text-anchor="middle" x="424.25" y="-43.75" font-family="Helvetica,sans-Serif" font-size="10.00">AddVertex</text>
</a>
</g>
</g>
<!-- Node1&#45;&gt;Node6 -->
<g id="edge5_Node000001_Node000006" class="edge">
<title>Node1&#45;&gt;Node6</title>
<g id="a_edge5_Node000001_Node000006"><a xlink:title=" ">
<path fill="none" stroke="#63b8ff" d="M483.39,-56.12C473.6,-54.69 463.92,-53.28 455.35,-52.03"/>
<polygon fill="#63b8ff" stroke="#63b8ff" points="482.61,-59.69 493.01,-57.68 483.62,-52.77 482.61,-59.69"/>
</a>
</g>
</g>
<!-- Node3 -->
<g id="Node000003" class="node">
<title>Node3</title>
<g id="a_Node000003"><a xlink:href="../../d0/d91/sweep_8c.html#a044f92279f00dfd1a5f733c67b865680" target="_top" xlink:title=" ">
<polygon fill="white" stroke="#666666" points="352.5,-94.25 282.5,-94.25 282.5,-75 352.5,-75 352.5,-94.25"/>
<text text-anchor="middle" x="317.5" y="-80.75" font-family="Helvetica,sans-Serif" font-size="10.00">InitEdgeDict</text>
</a>
</g>
</g>
<!-- Node2&#45;&gt;Node3 -->
<g id="edge2_Node000002_Node000003" class="edge">
<title>Node2&#45;&gt;Node3</title>
<g id="a_edge2_Node000002_Node000003"><a xlink:title=" ">
<path fill="none" stroke="#63b8ff" d="M378.78,-84.62C370.12,-84.62 361.16,-84.62 352.88,-84.62"/>
<polygon fill="#63b8ff" stroke="#63b8ff" points="378.53,-88.13 388.53,-84.62 378.53,-81.13 378.53,-88.13"/>
</a>
</g>
</g>
<!-- Node4 -->
<g id="Node000004" class="node">
<title>Node4</title>
<g id="a_Node000004"><a xlink:href="../../d0/d91/sweep_8c.html#a42a070ec5b8495a8c8614ad600c703f9" target="_top" xlink:title=" ">
<polygon fill="white" stroke="#666666" points="245,-95.25 138.25,-95.25 138.25,-76 245,-76 245,-95.25"/>
<text text-anchor="middle" x="191.62" y="-81.75" font-family="Helvetica,sans-Serif" font-size="10.00">__gl_computeInterior</text>
</a>
</g>
</g>
<!-- Node3&#45;&gt;Node4 -->
<g id="edge3_Node000003_Node000004" class="edge">
<title>Node3&#45;&gt;Node4</title>
<g id="a_edge3_Node000003_Node000004"><a xlink:title=" ">
<path fill="none" stroke="#63b8ff" d="M271.46,-84.99C262.96,-85.06 253.99,-85.13 245.27,-85.2"/>
<polygon fill="#63b8ff" stroke="#63b8ff" points="271.35,-88.48 281.32,-84.9 271.29,-81.48 271.35,-88.48"/>
</a>
</g>
</g>
<!-- Node5 -->
<g id="Node000005" class="node">
<title>Node5</title>
<g id="a_Node000005"><a xlink:href="../../d1/d8e/tess_8c.html#ae5273f776a56cd66a46a9df1fb1f00f9" target="_top" xlink:title=" ">
<polygon fill="white" stroke="#666666" points="102.25,-76.25 0,-76.25 0,-57 102.25,-57 102.25,-76.25"/>
<text text-anchor="middle" x="51.12" y="-62.75" font-family="Helvetica,sans-Serif" font-size="10.00">gluTessEndPolygon</text>
</a>
</g>
</g>
<!-- Node4&#45;&gt;Node5 -->
<g id="edge4_Node000004_Node000005" class="edge">
<title>Node4&#45;&gt;Node5</title>
<g id="a_edge4_Node000004_Node000005"><a xlink:title=" ">
<path fill="none" stroke="#63b8ff" d="M127.1,-76.91C118.84,-75.78 110.46,-74.63 102.45,-73.53"/>
<polygon fill="#63b8ff" stroke="#63b8ff" points="126.49,-80.5 136.87,-78.39 127.44,-73.56 126.49,-80.5"/>
</a>
</g>
</g>
<!-- Node7 -->
<g id="Node000007" class="node">
<title>Node7</title>
<g id="a_Node000007"><a xlink:href="../../d1/d8e/tess_8c.html#a41957a0e62c45b0bcdc66c56acc91aa6" target="_top" xlink:title=" ">
<polygon fill="white" stroke="#666666" points="354,-57.25 281,-57.25 281,-38 354,-38 354,-57.25"/>
<text text-anchor="middle" x="317.5" y="-43.75" font-family="Helvetica,sans-Serif" font-size="10.00">EmptyCache</text>
</a>
</g>
</g>
<!-- Node6&#45;&gt;Node7 -->
<g id="edge6_Node000006_Node000007" class="edge">
<title>Node6&#45;&gt;Node7</title>
<g id="a_edge6_Node000006_Node000007"><a xlink:title=" ">
<path fill="none" stroke="#63b8ff" d="M382.07,-47.62C372.89,-47.62 363.23,-47.62 354.28,-47.62"/>
<polygon fill="#63b8ff" stroke="#63b8ff" points="381.95,-51.13 391.95,-47.62 381.95,-44.13 381.95,-51.13"/>
</a>
</g>
</g>
<!-- Node8 -->
<g id="Node000008" class="node">
<title>Node8</title>
<g id="a_Node000008"><a xlink:href="../../d1/d8e/tess_8c.html#ae1c00f98c689126ac96275cf90bcdef0" target="_top" xlink:title=" ">
<polygon fill="white" stroke="#666666" points="230.75,-19.25 152.5,-19.25 152.5,0 230.75,0 230.75,-19.25"/>
<text text-anchor="middle" x="191.62" y="-5.75" font-family="Helvetica,sans-Serif" font-size="10.00">gluTessVertex</text>
</a>
</g>
</g>
<!-- Node6&#45;&gt;Node8 -->
<g id="edge9_Node000006_Node000008" class="edge">
<title>Node6&#45;&gt;Node8</title>
<g id="a_edge9_Node000006_Node000008"><a xlink:title=" ">
<path fill="none" stroke="#63b8ff" d="M382.55,-35.36C373.23,-32.86 363.32,-30.44 354,-28.62 312.33,-20.5 263.88,-15.36 231.02,-12.51"/>
<polygon fill="#63b8ff" stroke="#63b8ff" points="381.57,-39 392.15,-38.3 383.45,-32.26 381.57,-39"/>
</a>
</g>
</g>
<!-- Node7&#45;&gt;Node5 -->
<g id="edge7_Node000007_Node000005" class="edge">
<title>Node7&#45;&gt;Node5</title>
<g id="a_edge7_Node000007_Node000005"><a xlink:title=" ">
<path fill="none" stroke="#63b8ff" d="M269.79,-50.98C222.82,-54.36 150.65,-59.54 102.44,-63.01"/>
<polygon fill="#63b8ff" stroke="#63b8ff" points="269.85,-54.42 279.57,-50.21 269.34,-47.43 269.85,-54.42"/>
</a>
</g>
</g>
<!-- Node7&#45;&gt;Node8 -->
<g id="edge8_Node000007_Node000008" class="edge">
<title>Node7&#45;&gt;Node8</title>
<g id="a_edge8_Node000007_Node000008"><a xlink:title=" ">
<path fill="none" stroke="#63b8ff" d="M273.53,-34.44C257.68,-29.58 240,-24.16 225.22,-19.62"/>
<polygon fill="#63b8ff" stroke="#63b8ff" points="272.04,-37.95 282.63,-37.54 274.1,-31.26 272.04,-37.95"/>
</a>
</g>
</g>
</g>
</svg>
