<?xml version="1.0" encoding="UTF-8" standalone="no"?>
<!DOCTYPE svg PUBLIC "-//W3C//DTD SVG 1.1//EN"
 "http://www.w3.org/Graphics/SVG/1.1/DTD/svg11.dtd">
<!-- Generated by graphviz version 8.0.5 (20230430.1635)
 -->
<!-- Title: Slic3r::GUI::GLGizmoPainterBase::render_triangles Pages: 1 -->
<svg width="696pt" height="491pt"
 viewBox="0.00 0.00 696.00 491.11" xmlns="http://www.w3.org/2000/svg" xmlns:xlink="http://www.w3.org/1999/xlink">
<g id="graph0" class="graph" transform="scale(1 1) rotate(0) translate(4 487.11)">
<title>Slic3r::GUI::GLGizmoPainterBase::render_triangles</title>
<!-- Node1 -->
<g id="Node000001" class="node">
<title>Node1</title>
<g id="a_Node000001"><a xlink:title=" ">
<polygon fill="#999999" stroke="#666666" points="142.75,-179.11 0,-179.11 0,-148.61 142.75,-148.61 142.75,-179.11"/>
<text text-anchor="start" x="8" y="-165.61" font-family="Helvetica,sans-Serif" font-size="10.00">Slic3r::GUI::GLGizmoPainter</text>
<text text-anchor="middle" x="71.38" y="-154.36" font-family="Helvetica,sans-Serif" font-size="10.00">Base::render_triangles</text>
</a>
</g>
</g>
<!-- Node2 -->
<g id="Node000002" class="node">
<title>Node2</title>
<g id="a_Node000002"><a xlink:href="../../df/d94/class_slic3r_1_1_g_u_i_1_1_g_l_gizmo_painter_base.html#a43a901df2cf79fea78955fc0e8966ac7" target="_top" xlink:title=" ">
<polygon fill="white" stroke="#666666" points="327.5,-351.11 178.75,-351.11 178.75,-320.61 327.5,-320.61 327.5,-351.11"/>
<text text-anchor="start" x="186.75" y="-337.61" font-family="Helvetica,sans-Serif" font-size="10.00">Slic3r::GUI::GLGizmoPainter</text>
<text text-anchor="middle" x="253.12" y="-326.36" font-family="Helvetica,sans-Serif" font-size="10.00">Base::get_clipping_plane_data</text>
</a>
</g>
</g>
<!-- Node1&#45;&gt;Node2 -->
<g id="edge1_Node000001_Node000002" class="edge">
<title>Node1&#45;&gt;Node2</title>
<g id="a_edge1_Node000001_Node000002"><a xlink:title=" ">
<path fill="none" stroke="#63b8ff" d="M79.42,-179.16C93.85,-208.84 129.6,-274.54 178.75,-310.86 180.88,-312.43 183.12,-313.91 185.43,-315.3"/>
<polygon fill="#63b8ff" stroke="#63b8ff" points="183.21,-318.62 193.68,-320.24 186.51,-312.44 183.21,-318.62"/>
</a>
</g>
</g>
<!-- Node11 -->
<g id="Node000011" class="node">
<title>Node11</title>
<g id="a_Node000011"><a xlink:href="../../dd/d6a/class_slic3r_1_1_g_u_i_1_1_selection.html#aac57a06d5a40d72888055487c90eb19a" target="_top" xlink:title=" ">
<polygon fill="white" stroke="#666666" points="308.75,-302.11 197.5,-302.11 197.5,-271.61 308.75,-271.61 308.75,-302.11"/>
<text text-anchor="start" x="205.5" y="-288.61" font-family="Helvetica,sans-Serif" font-size="10.00">Slic3r::GUI::Selection</text>
<text text-anchor="middle" x="253.12" y="-277.36" font-family="Helvetica,sans-Serif" font-size="10.00">::get_instance_idx</text>
</a>
</g>
</g>
<!-- Node1&#45;&gt;Node11 -->
<g id="edge10_Node000001_Node000011" class="edge">
<title>Node1&#45;&gt;Node11</title>
<g id="a_edge10_Node000001_Node000011"><a xlink:title=" ">
<path fill="none" stroke="#63b8ff" d="M85.6,-179.6C104.32,-200.99 140.55,-239.14 178.75,-261.86 181.61,-263.56 184.6,-265.16 187.67,-266.67"/>
<polygon fill="#63b8ff" stroke="#63b8ff" points="186.12,-270.26 196.68,-271.19 189,-263.88 186.12,-270.26"/>
</a>
</g>
</g>
<!-- Node12 -->
<g id="Node000012" class="node">
<title>Node12</title>
<g id="a_Node000012"><a xlink:href="../../d4/d63/struct_slic3r_1_1_g_u_i_1_1_camera.html#a1ae417ebe8df6e9ee6e95141ecb4b26a" target="_top" xlink:title=" ">
<polygon fill="white" stroke="#666666" points="310.62,-253.11 195.62,-253.11 195.62,-222.61 310.62,-222.61 310.62,-253.11"/>
<text text-anchor="start" x="203.62" y="-239.61" font-family="Helvetica,sans-Serif" font-size="10.00">Slic3r::GUI::Camera</text>
<text text-anchor="middle" x="253.12" y="-228.36" font-family="Helvetica,sans-Serif" font-size="10.00">::get_projection_matrix</text>
</a>
</g>
</g>
<!-- Node1&#45;&gt;Node12 -->
<g id="edge11_Node000001_Node000012" class="edge">
<title>Node1&#45;&gt;Node12</title>
<g id="a_edge11_Node000001_Node000012"><a xlink:title=" ">
<path fill="none" stroke="#63b8ff" d="M104.12,-179.52C125.07,-189.6 153.26,-202.67 178.75,-212.86 183.5,-214.75 188.46,-216.64 193.45,-218.47"/>
<polygon fill="#63b8ff" stroke="#63b8ff" points="192.12,-222.07 202.71,-222.15 194.48,-215.48 192.12,-222.07"/>
</a>
</g>
</g>
<!-- Node13 -->
<g id="Node000013" class="node">
<title>Node13</title>
<g id="a_Node000013"><a xlink:href="../../d4/d63/struct_slic3r_1_1_g_u_i_1_1_camera.html#a729f196d20986b179e054a66572b48a6" target="_top" xlink:title=" ">
<polygon fill="white" stroke="#666666" points="305.75,-204.11 200.5,-204.11 200.5,-173.61 305.75,-173.61 305.75,-204.11"/>
<text text-anchor="start" x="208.5" y="-190.61" font-family="Helvetica,sans-Serif" font-size="10.00">Slic3r::GUI::Camera</text>
<text text-anchor="middle" x="253.12" y="-179.36" font-family="Helvetica,sans-Serif" font-size="10.00">::get_view_matrix</text>
</a>
</g>
</g>
<!-- Node1&#45;&gt;Node13 -->
<g id="edge12_Node000001_Node000013" class="edge">
<title>Node1&#45;&gt;Node13</title>
<g id="a_edge12_Node000001_Node000013"><a xlink:title=" ">
<path fill="none" stroke="#63b8ff" d="M143.16,-173.7C158.42,-175.82 174.44,-178.05 189.37,-180.13"/>
<polygon fill="#63b8ff" stroke="#63b8ff" points="188.63,-183.7 199.02,-181.61 189.59,-176.76 188.63,-183.7"/>
</a>
</g>
</g>
<!-- Node14 -->
<g id="Node000014" class="node">
<title>Node14</title>
<g id="a_Node000014"><a xlink:href="../../d9/d45/namespace_slic3r_1_1_g_u_i.html#aa95282a647c862bffd272a3a5c6cdef4" target="_top" xlink:title=" ">
<polygon fill="white" stroke="#666666" points="301.62,-155.11 204.62,-155.11 204.62,-124.61 301.62,-124.61 301.62,-155.11"/>
<text text-anchor="start" x="212.62" y="-141.61" font-family="Helvetica,sans-Serif" font-size="10.00">Slic3r::GUI::is_left</text>
<text text-anchor="middle" x="253.12" y="-130.36" font-family="Helvetica,sans-Serif" font-size="10.00">_handed</text>
</a>
</g>
</g>
<!-- Node1&#45;&gt;Node14 -->
<g id="edge13_Node000001_Node000014" class="edge">
<title>Node1&#45;&gt;Node14</title>
<g id="a_edge13_Node000001_Node000014"><a xlink:title=" ">
<path fill="none" stroke="#63b8ff" d="M143.16,-154.41C159.84,-152.18 177.45,-149.83 193.52,-147.68"/>
<polygon fill="#63b8ff" stroke="#63b8ff" points="193.93,-151.02 203.38,-146.23 193,-144.09 193.93,-151.02"/>
</a>
</g>
</g>
<!-- Node15 -->
<g id="Node000015" class="node">
<title>Node15</title>
<g id="a_Node000015"><a xlink:href="../../d5/d00/group___geometry___module.html#a8a5d077e6e87e7d0a1f347fbc4d52a6e" target="_top" xlink:title=" ">
<polygon fill="white" stroke="#666666" points="315.12,-106.48 191.12,-106.48 191.12,-87.23 315.12,-87.23 315.12,-106.48"/>
<text text-anchor="middle" x="253.12" y="-92.98" font-family="Helvetica,sans-Serif" font-size="10.00">Eigen::Transform::matrix</text>
</a>
</g>
</g>
<!-- Node1&#45;&gt;Node15 -->
<g id="edge14_Node000001_Node000015" class="edge">
<title>Node1&#45;&gt;Node15</title>
<g id="a_edge14_Node000001_Node000015"><a xlink:title=" ">
<path fill="none" stroke="#63b8ff" d="M103.45,-148.14C124.36,-137.98 152.76,-125.01 178.75,-115.86 184.94,-113.68 191.5,-111.62 198.06,-109.73"/>
<polygon fill="#63b8ff" stroke="#63b8ff" points="198.6,-112.94 207.3,-106.9 196.73,-106.19 198.6,-112.94"/>
</a>
</g>
</g>
<!-- Node16 -->
<g id="Node000016" class="node">
<title>Node16</title>
<g id="a_Node000016"><a xlink:href="../../d6/df8/class_slic3r_1_1_g_u_i_1_1_common_gizmos_data_objects_1_1_selection_info.html#aa69880ef0882356aabbed81272cf8559" target="_top" xlink:title=" ">
<polygon fill="white" stroke="#666666" points="325.25,-68.73 181,-68.73 181,-26.98 325.25,-26.98 325.25,-68.73"/>
<text text-anchor="start" x="189" y="-55.23" font-family="Helvetica,sans-Serif" font-size="10.00">Slic3r::GUI::CommonGizmos</text>
<text text-anchor="start" x="189" y="-43.98" font-family="Helvetica,sans-Serif" font-size="10.00">DataObjects::SelectionInfo</text>
<text text-anchor="middle" x="253.12" y="-32.73" font-family="Helvetica,sans-Serif" font-size="10.00">::model_object</text>
</a>
</g>
</g>
<!-- Node1&#45;&gt;Node16 -->
<g id="edge15_Node000001_Node000016" class="edge">
<title>Node1&#45;&gt;Node16</title>
<g id="a_edge15_Node000001_Node000016"><a xlink:title=" ">
<path fill="none" stroke="#63b8ff" d="M88.56,-148.22C108.49,-129.59 144,-98.4 178.75,-77.86 180.95,-76.56 183.21,-75.29 185.53,-74.05"/>
<polygon fill="#63b8ff" stroke="#63b8ff" points="186.88,-76.79 194.23,-69.16 183.73,-70.53 186.88,-76.79"/>
</a>
</g>
</g>
<!-- Node17 -->
<g id="Node000017" class="node">
<title>Node17</title>
<g id="a_Node000017"><a xlink:href="../../d5/d4e/class_slic3r_1_1_g_u_i_1_1_common_gizmos_data_pool.html#a426216e4d0ab24cbf377b4bbfcf99ad4" target="_top" xlink:title=" ">
<polygon fill="white" stroke="#666666" points="507.75,-59.11 363.5,-59.11 363.5,-28.61 507.75,-28.61 507.75,-59.11"/>
<text text-anchor="start" x="371.5" y="-45.61" font-family="Helvetica,sans-Serif" font-size="10.00">Slic3r::GUI::CommonGizmos</text>
<text text-anchor="middle" x="435.62" y="-34.36" font-family="Helvetica,sans-Serif" font-size="10.00">DataPool::selection_info</text>
</a>
</g>
</g>
<!-- Node1&#45;&gt;Node17 -->
<g id="edge16_Node000001_Node000017" class="edge">
<title>Node1&#45;&gt;Node17</title>
<g id="a_edge16_Node000001_Node000017"><a xlink:title=" ">
<path fill="none" stroke="#63b8ff" d="M78.14,-148.15C90.71,-116.5 123.96,-45.73 178.75,-17.86 245.35,16.02 334.22,-5.5 387.78,-24.47"/>
<polygon fill="#63b8ff" stroke="#63b8ff" points="386.41,-28.06 397,-28.21 388.82,-21.49 386.41,-28.06"/>
</a>
</g>
</g>
<!-- Node3 -->
<g id="Node000003" class="node">
<title>Node3</title>
<g id="a_Node000003"><a xlink:href="../../d5/d4e/class_slic3r_1_1_g_u_i_1_1_common_gizmos_data_pool.html#a8f244a56df11d23bcc33f696edd2185e" target="_top" xlink:title=" ">
<polygon fill="white" stroke="#666666" points="507.75,-483.11 363.5,-483.11 363.5,-452.61 507.75,-452.61 507.75,-483.11"/>
<text text-anchor="start" x="371.5" y="-469.61" font-family="Helvetica,sans-Serif" font-size="10.00">Slic3r::GUI::CommonGizmos</text>
<text text-anchor="middle" x="435.62" y="-458.36" font-family="Helvetica,sans-Serif" font-size="10.00">DataPool::get_canvas</text>
</a>
</g>
</g>
<!-- Node2&#45;&gt;Node3 -->
<g id="edge2_Node000002_Node000003" class="edge">
<title>Node2&#45;&gt;Node3</title>
<g id="a_edge2_Node000002_Node000003"><a xlink:title=" ">
<path fill="none" stroke="#63b8ff" d="M265.89,-351.32C284.31,-374.54 322.15,-418.38 363.5,-443.86 365.65,-445.18 367.89,-446.45 370.18,-447.65"/>
<polygon fill="#63b8ff" stroke="#63b8ff" points="368.33,-451.12 378.87,-452.25 371.34,-444.8 368.33,-451.12"/>
</a>
</g>
</g>
<!-- Node4 -->
<g id="Node000004" class="node">
<title>Node4</title>
<g id="a_Node000004"><a xlink:href="../../dd/d99/class_slic3r_1_1_g_u_i_1_1_common_gizmos_data_objects_1_1_object_clipper.html#afc2e0b027aeb97b08bf0561d5243899a" target="_top" xlink:title=" ">
<polygon fill="white" stroke="#666666" points="507.75,-434.73 363.5,-434.73 363.5,-392.98 507.75,-392.98 507.75,-434.73"/>
<text text-anchor="start" x="371.5" y="-421.23" font-family="Helvetica,sans-Serif" font-size="10.00">Slic3r::GUI::CommonGizmos</text>
<text text-anchor="start" x="371.5" y="-409.98" font-family="Helvetica,sans-Serif" font-size="10.00">DataObjects::ObjectClipper</text>
<text text-anchor="middle" x="435.62" y="-398.73" font-family="Helvetica,sans-Serif" font-size="10.00">::get_clipping_plane</text>
</a>
</g>
</g>
<!-- Node2&#45;&gt;Node4 -->
<g id="edge3_Node000002_Node000004" class="edge">
<title>Node2&#45;&gt;Node4</title>
<g id="a_edge3_Node000002_Node000004"><a xlink:title=" ">
<path fill="none" stroke="#63b8ff" d="M289.53,-351.55C310.92,-360.99 338.74,-373.2 363.5,-383.86 366.93,-385.33 370.45,-386.84 374.01,-388.36"/>
<polygon fill="#63b8ff" stroke="#63b8ff" points="372.5,-391.95 383.08,-392.64 375.24,-385.51 372.5,-391.95"/>
</a>
</g>
</g>
<!-- Node5 -->
<g id="Node000005" class="node">
<title>Node5</title>
<g id="a_Node000005"><a xlink:href="../../d0/d2b/class_slic3r_1_1_g_u_i_1_1_g_l_canvas3_d.html#a1ff15ddf719a9e1513a856ab64dc2601" target="_top" xlink:title=" ">
<polygon fill="white" stroke="#666666" points="500.62,-375.11 370.62,-375.11 370.62,-344.61 500.62,-344.61 500.62,-375.11"/>
<text text-anchor="start" x="378.62" y="-361.61" font-family="Helvetica,sans-Serif" font-size="10.00">Slic3r::GUI::GLCanvas3D</text>
<text text-anchor="middle" x="435.62" y="-350.36" font-family="Helvetica,sans-Serif" font-size="10.00">::get_clipping_planes</text>
</a>
</g>
</g>
<!-- Node2&#45;&gt;Node5 -->
<g id="edge4_Node000002_Node000005" class="edge">
<title>Node2&#45;&gt;Node5</title>
<g id="a_edge4_Node000002_Node000005"><a xlink:title=" ">
<path fill="none" stroke="#63b8ff" d="M327.8,-345.65C338.22,-347.04 348.94,-348.46 359.39,-349.85"/>
<polygon fill="#63b8ff" stroke="#63b8ff" points="358.78,-353.44 369.15,-351.28 359.7,-346.5 358.78,-353.44"/>
</a>
</g>
</g>
<!-- Node6 -->
<g id="Node000006" class="node">
<title>Node6</title>
<g id="a_Node000006"><a xlink:href="../../d9/d4f/class_slic3r_1_1_g_u_i_1_1_clipping_plane.html#ad90287817dc252149b000dd6b86499fd" target="_top" xlink:title=" ">
<polygon fill="white" stroke="#666666" points="501,-326.11 370.25,-326.11 370.25,-295.61 501,-295.61 501,-326.11"/>
<text text-anchor="start" x="378.25" y="-312.61" font-family="Helvetica,sans-Serif" font-size="10.00">Slic3r::GUI::ClippingPlane</text>
<text text-anchor="middle" x="435.62" y="-301.36" font-family="Helvetica,sans-Serif" font-size="10.00">::get_data</text>
</a>
</g>
</g>
<!-- Node2&#45;&gt;Node6 -->
<g id="edge5_Node000002_Node000006" class="edge">
<title>Node2&#45;&gt;Node6</title>
<g id="a_edge5_Node000002_Node000006"><a xlink:title=" ">
<path fill="none" stroke="#63b8ff" d="M327.8,-325.65C338.15,-324.22 348.79,-322.74 359.17,-321.31"/>
<polygon fill="#63b8ff" stroke="#63b8ff" points="359.44,-324.66 368.87,-319.83 358.48,-317.73 359.44,-324.66"/>
</a>
</g>
</g>
<!-- Node7 -->
<g id="Node000007" class="node">
<title>Node7</title>
<g id="a_Node000007"><a xlink:href="../../dd/d99/class_slic3r_1_1_g_u_i_1_1_common_gizmos_data_objects_1_1_object_clipper.html#a0bdc014de13eb89201a33d962fff554a" target="_top" xlink:title=" ">
<polygon fill="white" stroke="#666666" points="507.75,-277.73 363.5,-277.73 363.5,-235.98 507.75,-235.98 507.75,-277.73"/>
<text text-anchor="start" x="371.5" y="-264.23" font-family="Helvetica,sans-Serif" font-size="10.00">Slic3r::GUI::CommonGizmos</text>
<text text-anchor="start" x="371.5" y="-252.98" font-family="Helvetica,sans-Serif" font-size="10.00">DataObjects::ObjectClipper</text>
<text text-anchor="middle" x="435.62" y="-241.73" font-family="Helvetica,sans-Serif" font-size="10.00">::get_position</text>
</a>
</g>
</g>
<!-- Node2&#45;&gt;Node7 -->
<g id="edge6_Node000002_Node000007" class="edge">
<title>Node2&#45;&gt;Node7</title>
<g id="a_edge6_Node000002_Node000007"><a xlink:title=" ">
<path fill="none" stroke="#63b8ff" d="M305.74,-320.17C313.17,-317.37 320.62,-314.25 327.5,-310.86 344.75,-302.35 346.57,-295.97 363.5,-286.86 366.01,-285.5 368.6,-284.17 371.23,-282.86"/>
<polygon fill="#63b8ff" stroke="#63b8ff" points="372.4,-285.7 379.9,-278.23 369.37,-279.39 372.4,-285.7"/>
</a>
</g>
</g>
<!-- Node8 -->
<g id="Node000008" class="node">
<title>Node8</title>
<g id="a_Node000008"><a xlink:href="../../d0/d2b/class_slic3r_1_1_g_u_i_1_1_g_l_canvas3_d.html#a62cb66e3bf6aa73b60b10b695b60e768" target="_top" xlink:title=" ">
<polygon fill="white" stroke="#666666" points="500.62,-218.11 370.62,-218.11 370.62,-187.61 500.62,-187.61 500.62,-218.11"/>
<text text-anchor="start" x="378.62" y="-204.61" font-family="Helvetica,sans-Serif" font-size="10.00">Slic3r::GUI::GLCanvas3D</text>
<text text-anchor="middle" x="435.62" y="-193.36" font-family="Helvetica,sans-Serif" font-size="10.00">::get_use_clipping_planes</text>
</a>
</g>
</g>
<!-- Node2&#45;&gt;Node8 -->
<g id="edge7_Node000002_Node000008" class="edge">
<title>Node2&#45;&gt;Node8</title>
<g id="a_edge7_Node000002_Node000008"><a xlink:title=" ">
<path fill="none" stroke="#63b8ff" d="M314.61,-320.11C319.27,-317.48 323.65,-314.42 327.5,-310.86 357.3,-283.25 333.66,-254.41 363.5,-226.86 364.36,-226.06 365.25,-225.29 366.16,-224.55"/>
<polygon fill="#63b8ff" stroke="#63b8ff" points="367.69,-227.06 373.96,-218.51 363.73,-221.28 367.69,-227.06"/>
</a>
</g>
</g>
<!-- Node9 -->
<g id="Node000009" class="node">
<title>Node9</title>
<g id="a_Node000009"><a xlink:href="../../d5/d4e/class_slic3r_1_1_g_u_i_1_1_common_gizmos_data_pool.html#a490109a2bc5e25f3dbcb9db50d792acd" target="_top" xlink:title=" ">
<polygon fill="white" stroke="#666666" points="507.75,-149.11 363.5,-149.11 363.5,-118.61 507.75,-118.61 507.75,-149.11"/>
<text text-anchor="start" x="371.5" y="-135.61" font-family="Helvetica,sans-Serif" font-size="10.00">Slic3r::GUI::CommonGizmos</text>
<text text-anchor="middle" x="435.62" y="-124.36" font-family="Helvetica,sans-Serif" font-size="10.00">DataPool::object_clipper</text>
</a>
</g>
</g>
<!-- Node2&#45;&gt;Node9 -->
<g id="edge8_Node000002_Node000009" class="edge">
<title>Node2&#45;&gt;Node9</title>
<g id="a_edge8_Node000002_Node000009"><a xlink:title=" ">
<path fill="none" stroke="#63b8ff" d="M315.86,-320.24C320.13,-317.59 324.09,-314.48 327.5,-310.86 369.14,-266.54 327.36,-227.76 363.5,-178.86 370.48,-169.41 380.09,-161.46 389.99,-154.99"/>
<polygon fill="#63b8ff" stroke="#63b8ff" points="391.36,-157.65 398.1,-149.48 387.73,-151.67 391.36,-157.65"/>
</a>
</g>
</g>
<!-- Node10 -->
<g id="Node000010" class="node">
<title>Node10</title>
<g id="a_Node000010"><a xlink:href="../../dc/de9/class_slic3r_1_1_g_u_i_1_1_common_gizmos_data_base.html#a857bb436ea2985183ee7d258d015b90b" target="_top" xlink:title=" ">
<polygon fill="white" stroke="#666666" points="688,-83.11 543.75,-83.11 543.75,-52.61 688,-52.61 688,-83.11"/>
<text text-anchor="start" x="551.75" y="-69.61" font-family="Helvetica,sans-Serif" font-size="10.00">Slic3r::GUI::CommonGizmos</text>
<text text-anchor="middle" x="615.88" y="-58.36" font-family="Helvetica,sans-Serif" font-size="10.00">DataBase::is_valid</text>
</a>
</g>
</g>
<!-- Node9&#45;&gt;Node10 -->
<g id="edge9_Node000009_Node000010" class="edge">
<title>Node9&#45;&gt;Node10</title>
<g id="a_edge9_Node000009_Node000010"><a xlink:title=" ">
<path fill="none" stroke="#63b8ff" d="M478.87,-118.22C503.86,-108.96 535.73,-97.16 562.34,-87.31"/>
<polygon fill="#63b8ff" stroke="#63b8ff" points="563.46,-90.25 571.63,-83.5 561.03,-83.69 563.46,-90.25"/>
</a>
</g>
</g>
<!-- Node17&#45;&gt;Node10 -->
<g id="edge17_Node000017_Node000010" class="edge">
<title>Node17&#45;&gt;Node10</title>
<g id="a_edge17_Node000017_Node000010"><a xlink:title=" ">
<path fill="none" stroke="#63b8ff" d="M508.1,-53.48C516.18,-54.57 524.46,-55.68 532.67,-56.79"/>
<polygon fill="#63b8ff" stroke="#63b8ff" points="532.01,-60.36 542.38,-58.23 532.94,-53.43 532.01,-60.36"/>
</a>
</g>
</g>
</g>
</svg>
