<?xml version="1.0" encoding="UTF-8" standalone="no"?>
<!DOCTYPE svg PUBLIC "-//W3C//DTD SVG 1.1//EN"
 "http://www.w3.org/Graphics/SVG/1.1/DTD/svg11.dtd">
<!-- Generated by graphviz version 8.0.5 (20230430.1635)
 -->
<!-- Title: Slic3r::ExtruderFilaments::first_compatible_idx Pages: 1 -->
<svg width="290pt" height="137pt"
 viewBox="0.00 0.00 289.75 136.50" xmlns="http://www.w3.org/2000/svg" xmlns:xlink="http://www.w3.org/1999/xlink">
<g id="graph0" class="graph" transform="scale(1 1) rotate(0) translate(4 132.5)">
<title>Slic3r::ExtruderFilaments::first_compatible_idx</title>
<!-- Node1 -->
<g id="Node000001" class="node">
<title>Node1</title>
<g id="a_Node000001"><a xlink:title=" ">
<polygon fill="#999999" stroke="#666666" points="126.25,-79.5 0,-79.5 0,-49 126.25,-49 126.25,-79.5"/>
<text text-anchor="start" x="8" y="-66" font-family="Helvetica,sans-Serif" font-size="10.00">Slic3r::ExtruderFilaments</text>
<text text-anchor="middle" x="63.12" y="-54.75" font-family="Helvetica,sans-Serif" font-size="10.00">::first_compatible_idx</text>
</a>
</g>
</g>
<!-- Node2 -->
<g id="Node000002" class="node">
<title>Node2</title>
<g id="a_Node000002"><a xlink:href="../../d9/d24/class_slic3r_1_1_preset_collection.html#a9f8dd1cef2746dc00bcf97b55cc7a33c" target="_top" xlink:title=" ">
<polygon fill="white" stroke="#666666" points="281.75,-128.5 162.25,-128.5 162.25,-98 281.75,-98 281.75,-128.5"/>
<text text-anchor="start" x="170.25" y="-115" font-family="Helvetica,sans-Serif" font-size="10.00">Slic3r::PresetCollection</text>
<text text-anchor="middle" x="222" y="-103.75" font-family="Helvetica,sans-Serif" font-size="10.00">::is_default_suppressed</text>
</a>
</g>
</g>
<!-- Node1&#45;&gt;Node2 -->
<g id="edge1_Node000001_Node000002" class="edge">
<title>Node1&#45;&gt;Node2</title>
<g id="a_edge1_Node000001_Node000002"><a xlink:title=" ">
<path fill="none" stroke="#63b8ff" d="M114.19,-79.89C128.84,-84.46 145.01,-89.51 160.24,-94.27"/>
<polygon fill="#63b8ff" stroke="#63b8ff" points="159.01,-97.87 169.6,-97.51 161.1,-91.19 159.01,-97.87"/>
</a>
</g>
</g>
<!-- Node3 -->
<g id="Node000003" class="node">
<title>Node3</title>
<g id="a_Node000003"><a xlink:href="../../d9/d24/class_slic3r_1_1_preset_collection.html#a75eaac88f4b504fb808da23a60ca5bcd" target="_top" xlink:title=" ">
<polygon fill="white" stroke="#666666" points="281.38,-79.5 162.62,-79.5 162.62,-49 281.38,-49 281.38,-79.5"/>
<text text-anchor="start" x="170.62" y="-66" font-family="Helvetica,sans-Serif" font-size="10.00">Slic3r::PresetCollection</text>
<text text-anchor="middle" x="222" y="-54.75" font-family="Helvetica,sans-Serif" font-size="10.00">::num_default_presets</text>
</a>
</g>
</g>
<!-- Node1&#45;&gt;Node3 -->
<g id="edge2_Node000001_Node000003" class="edge">
<title>Node1&#45;&gt;Node3</title>
<g id="a_edge2_Node000001_Node000003"><a xlink:title=" ">
<path fill="none" stroke="#63b8ff" d="M126.58,-64.25C134.78,-64.25 143.22,-64.25 151.52,-64.25"/>
<polygon fill="#63b8ff" stroke="#63b8ff" points="151.33,-67.75 161.33,-64.25 151.33,-60.75 151.33,-67.75"/>
</a>
</g>
</g>
<!-- Node4 -->
<g id="Node000004" class="node">
<title>Node4</title>
<g id="a_Node000004"><a xlink:href="../../d9/d24/class_slic3r_1_1_preset_collection.html#a922f84d49a947960887f70407008259c" target="_top" xlink:title=" ">
<polygon fill="white" stroke="#666666" points="281.38,-30.5 162.62,-30.5 162.62,0 281.38,0 281.38,-30.5"/>
<text text-anchor="start" x="170.62" y="-17" font-family="Helvetica,sans-Serif" font-size="10.00">Slic3r::PresetCollection</text>
<text text-anchor="middle" x="222" y="-5.75" font-family="Helvetica,sans-Serif" font-size="10.00">::preset</text>
</a>
</g>
</g>
<!-- Node1&#45;&gt;Node4 -->
<g id="edge3_Node000001_Node000004" class="edge">
<title>Node1&#45;&gt;Node4</title>
<g id="a_edge3_Node000001_Node000004"><a xlink:title=" ">
<path fill="none" stroke="#63b8ff" d="M114.19,-48.61C128.84,-44.04 145.01,-38.99 160.24,-34.23"/>
<polygon fill="#63b8ff" stroke="#63b8ff" points="161.1,-37.31 169.6,-30.99 159.01,-30.63 161.1,-37.31"/>
</a>
</g>
</g>
</g>
</svg>
