<?xml version="1.0" encoding="UTF-8" standalone="no"?>
<!DOCTYPE svg PUBLIC "-//W3C//DTD SVG 1.1//EN"
 "http://www.w3.org/Graphics/SVG/1.1/DTD/svg11.dtd">
<!-- Generated by graphviz version 8.0.5 (20230430.1635)
 -->
<!-- Title: Slic3r::ExtruderFilaments::select_filament Pages: 1 -->
<svg width="481pt" height="131pt"
 viewBox="0.00 0.00 481.25 130.50" xmlns="http://www.w3.org/2000/svg" xmlns:xlink="http://www.w3.org/1999/xlink">
<g id="graph0" class="graph" transform="scale(1 1) rotate(0) translate(4 126.5)">
<title>Slic3r::ExtruderFilaments::select_filament</title>
<!-- Node1 -->
<g id="Node000001" class="node">
<title>Node1</title>
<g id="a_Node000001"><a xlink:title=" ">
<polygon fill="#999999" stroke="#666666" points="473.25,-73.5 347,-73.5 347,-43 473.25,-43 473.25,-73.5"/>
<text text-anchor="start" x="355" y="-60" font-family="Helvetica,sans-Serif" font-size="10.00">Slic3r::ExtruderFilaments</text>
<text text-anchor="middle" x="410.12" y="-48.75" font-family="Helvetica,sans-Serif" font-size="10.00">::select_filament</text>
</a>
</g>
</g>
<!-- Node1&#45;&gt;Node1 -->
<g id="edge2_Node000001_Node000001" class="edge">
<title>Node1&#45;&gt;Node1</title>
<g id="a_edge2_Node000001_Node000001"><a xlink:title=" ">
<path fill="none" stroke="#63b8ff" d="M437.7,-84.88C433.4,-88.83 424.21,-91.5 410.12,-91.5 385.09,-91.5 375.51,-83.06 381.37,-73.99"/>
<polygon fill="#63b8ff" stroke="#63b8ff" points="441.29,-85.3 438.88,-74.99 434.33,-84.55 441.29,-85.3"/>
</a>
</g>
</g>
<!-- Node2 -->
<g id="Node000002" class="node">
<title>Node2</title>
<g id="a_Node000002"><a xlink:href="../../d6/de7/class_slic3r_1_1_extruder_filaments.html#aa6b20de66e3a11ac4e079ba90ddc0c0e" target="_top" xlink:title=" ">
<polygon fill="white" stroke="#666666" points="311,-122.5 184.75,-122.5 184.75,-92 311,-92 311,-122.5"/>
<text text-anchor="start" x="192.75" y="-109" font-family="Helvetica,sans-Serif" font-size="10.00">Slic3r::ExtruderFilaments</text>
<text text-anchor="middle" x="247.88" y="-97.75" font-family="Helvetica,sans-Serif" font-size="10.00">::ExtruderFilaments</text>
</a>
</g>
</g>
<!-- Node1&#45;&gt;Node2 -->
<g id="edge1_Node000001_Node000002" class="edge">
<title>Node1&#45;&gt;Node2</title>
<g id="a_edge1_Node000001_Node000002"><a xlink:title=" ">
<path fill="none" stroke="#63b8ff" d="M347.85,-76.98C332.18,-81.78 315.49,-86.88 300.36,-91.51"/>
<polygon fill="#63b8ff" stroke="#63b8ff" points="348.44,-80.16 356.98,-73.89 346.39,-73.47 348.44,-80.16"/>
</a>
</g>
</g>
<!-- Node3 -->
<g id="Node000003" class="node">
<title>Node3</title>
<g id="a_Node000003"><a xlink:href="../../d6/de7/class_slic3r_1_1_extruder_filaments.html#a47d2a63d0fa12b22dbee6e38273966f8" target="_top" xlink:title=" ">
<polygon fill="white" stroke="#666666" points="311,-73.5 184.75,-73.5 184.75,-43 311,-43 311,-73.5"/>
<text text-anchor="start" x="192.75" y="-60" font-family="Helvetica,sans-Serif" font-size="10.00">Slic3r::ExtruderFilaments</text>
<text text-anchor="middle" x="247.88" y="-48.75" font-family="Helvetica,sans-Serif" font-size="10.00">::update_compatible</text>
</a>
</g>
</g>
<!-- Node1&#45;&gt;Node3 -->
<g id="edge3_Node000001_Node000003" class="edge">
<title>Node1&#45;&gt;Node3</title>
<g id="a_edge3_Node000001_Node000003"><a xlink:title=" ">
<path fill="none" stroke="#63b8ff" d="M335.71,-58.25C327.58,-58.25 319.36,-58.25 311.38,-58.25"/>
<polygon fill="#63b8ff" stroke="#63b8ff" points="335.71,-61.75 345.71,-58.25 335.71,-54.75 335.71,-61.75"/>
</a>
</g>
</g>
<!-- Node5 -->
<g id="Node000005" class="node">
<title>Node5</title>
<g id="a_Node000005"><a xlink:href="../../d9/d4b/class_slic3r_1_1_preset_bundle.html#a7e408698b876b65304be6e150f2e29f1" target="_top" xlink:title=" ">
<polygon fill="white" stroke="#666666" points="148.75,-30.5 0,-30.5 0,0 148.75,0 148.75,-30.5"/>
<text text-anchor="start" x="8" y="-17" font-family="Helvetica,sans-Serif" font-size="10.00">Slic3r::PresetBundle</text>
<text text-anchor="middle" x="74.38" y="-5.75" font-family="Helvetica,sans-Serif" font-size="10.00">::update_filaments_compatible</text>
</a>
</g>
</g>
<!-- Node1&#45;&gt;Node5 -->
<g id="edge6_Node000001_Node000005" class="edge">
<title>Node1&#45;&gt;Node5</title>
<g id="a_edge6_Node000001_Node000005"><a xlink:title=" ">
<path fill="none" stroke="#63b8ff" d="M340.88,-40.08C330.91,-37.86 320.73,-35.82 311,-34.25 257.22,-25.56 195.85,-20.77 149.23,-18.18"/>
<polygon fill="#63b8ff" stroke="#63b8ff" points="340.05,-43.71 350.59,-42.55 341.63,-36.89 340.05,-43.71"/>
</a>
</g>
</g>
<!-- Node4 -->
<g id="Node000004" class="node">
<title>Node4</title>
<g id="a_Node000004"><a xlink:href="../../d6/de7/class_slic3r_1_1_extruder_filaments.html#a4f67d38b3076d4fcd14de7368d87275c" target="_top" xlink:title=" ">
<polygon fill="white" stroke="#666666" points="137.5,-79.5 11.25,-79.5 11.25,-49 137.5,-49 137.5,-79.5"/>
<text text-anchor="start" x="19.25" y="-66" font-family="Helvetica,sans-Serif" font-size="10.00">Slic3r::ExtruderFilaments</text>
<text text-anchor="middle" x="74.38" y="-54.75" font-family="Helvetica,sans-Serif" font-size="10.00">::update_compatible</text>
</a>
</g>
</g>
<!-- Node3&#45;&gt;Node4 -->
<g id="edge4_Node000003_Node000004" class="edge">
<title>Node3&#45;&gt;Node4</title>
<g id="a_edge4_Node000003_Node000004"><a xlink:title=" ">
<path fill="none" stroke="#63b8ff" d="M173.62,-60.81C161.67,-61.23 149.39,-61.66 137.73,-62.07"/>
<polygon fill="#63b8ff" stroke="#63b8ff" points="173.6,-64.28 183.47,-60.43 173.36,-57.28 173.6,-64.28"/>
</a>
</g>
</g>
<!-- Node3&#45;&gt;Node5 -->
<g id="edge5_Node000003_Node000005" class="edge">
<title>Node3&#45;&gt;Node5</title>
<g id="a_edge5_Node000003_Node000005"><a xlink:title=" ">
<path fill="none" stroke="#63b8ff" d="M174.05,-39.99C162.06,-36.99 149.73,-33.89 138.02,-30.96"/>
<polygon fill="#63b8ff" stroke="#63b8ff" points="172.92,-43.57 183.47,-42.6 174.63,-36.78 172.92,-43.57"/>
</a>
</g>
</g>
</g>
</svg>
