<?xml version="1.0" encoding="UTF-8" standalone="no"?>
<!DOCTYPE svg PUBLIC "-//W3C//DTD SVG 1.1//EN"
 "http://www.w3.org/Graphics/SVG/1.1/DTD/svg11.dtd">
<!-- Generated by graphviz version 8.0.5 (20230430.1635)
 -->
<!-- Title: Slic3r::AvrDude::priv::HandlerGuard Pages: 1 -->
<svg width="326pt" height="405pt"
 viewBox="0.00 0.00 325.75 404.75" xmlns="http://www.w3.org/2000/svg" xmlns:xlink="http://www.w3.org/1999/xlink">

<svg id="main" version="1.1" xmlns="http://www.w3.org/2000/svg" xmlns:xlink="http://www.w3.org/1999/xlink" xml:space="preserve" onload="init(evt)">
<style type="text/css"><![CDATA[
.node, .edge {opacity: 0.7;}
.node.selected, .edge.selected {opacity: 1;}
.edge:hover path { stroke: red; }
.edge:hover polygon { stroke: red; fill: red; }
]]></style>
<script type="application/ecmascript" xlink:href="../../svg.min.js"/>
<svg id="graph" class="graph">
<g id="graph0" class="graph" transform="scale(1 1) rotate(0) translate(4 400.75)">
<title>Slic3r::AvrDude::priv::HandlerGuard</title>
<!-- Node1 -->
<g id="Node000001" class="node">
<title>Node1</title>
<g id="a_Node000001"><a xlink:title=" ">
<polygon fill="#999999" stroke="#666666" points="273.38,-30.5 166.62,-30.5 166.62,0 273.38,0 273.38,-30.5"/>
<text text-anchor="start" x="174.62" y="-17" font-family="Helvetica,sans-Serif" font-size="10.00">Slic3r::AvrDude::priv</text>
<text text-anchor="middle" x="220" y="-5.75" font-family="Helvetica,sans-Serif" font-size="10.00">::HandlerGuard</text>
</a>
</g>
</g>
<!-- Node2 -->
<g id="Node000002" class="node">
<title>Node2</title>
<g id="a_Node000002"><a xlink:href="../../d8/d81/struct_slic3r_1_1_avr_dude_1_1priv.html" target="_top" xlink:title=" ">
<polygon fill="white" stroke="#666666" points="273.38,-97 166.62,-97 166.62,-77.75 273.38,-77.75 273.38,-97"/>
<text text-anchor="middle" x="220" y="-83.5" font-family="Helvetica,sans-Serif" font-size="10.00">Slic3r::AvrDude::priv</text>
</a>
</g>
</g>
<!-- Node2&#45;&gt;Node1 -->
<g id="edge1_Node000001_Node000002" class="edge">
<title>Node2&#45;&gt;Node1</title>
<g id="a_edge1_Node000001_Node000002"><a xlink:title=" ">
<path fill="none" stroke="#9a32cd" stroke-dasharray="5,2" d="M220,-66.53C220,-55.2 220,-41.25 220,-30.92"/>
<polygon fill="#9a32cd" stroke="#9a32cd" points="216.5,-66.49 220,-76.49 223.5,-66.49 216.5,-66.49"/>
</a>
</g>
<text text-anchor="middle" x="224.12" y="-50.25" font-family="Helvetica,sans-Serif" font-size="10.00" fill="grey"> p</text>
</g>
<!-- Node3 -->
<g id="Node000003" class="node">
<title>Node3</title>
<g id="a_Node000003"><a xlink:title=" ">
<polygon fill="white" stroke="#666666" points="224.62,-174.75 107.38,-174.75 107.38,-144.25 224.62,-144.25 224.62,-174.75"/>
<text text-anchor="start" x="115.38" y="-161.25" font-family="Helvetica,sans-Serif" font-size="10.00">std::deque&lt; std::vector</text>
<text text-anchor="middle" x="166" y="-150" font-family="Helvetica,sans-Serif" font-size="10.00">&lt; std::string &gt; &gt;</text>
</a>
</g>
</g>
<!-- Node3&#45;&gt;Node2 -->
<g id="edge2_Node000002_Node000003" class="edge">
<title>Node3&#45;&gt;Node2</title>
<g id="a_edge2_Node000002_Node000003"><a xlink:title=" ">
<path fill="none" stroke="#9a32cd" stroke-dasharray="5,2" d="M183.78,-135.41C193.87,-122.31 205.91,-106.67 213.26,-97.13"/>
<polygon fill="#9a32cd" stroke="#9a32cd" points="180.52,-132.91 177.19,-142.97 186.06,-137.18 180.52,-132.91"/>
</a>
</g>
<text text-anchor="middle" x="210.88" y="-116.75" font-family="Helvetica,sans-Serif" font-size="10.00" fill="grey"> args</text>
</g>
<!-- Node4 -->
<g id="Node000004" class="node">
<title>Node4</title>
<g id="a_Node000004"><a xlink:title=" ">
<polygon fill="white" stroke="#666666" points="175,-242.88 51,-242.88 51,-223.62 175,-223.62 175,-242.88"/>
<text text-anchor="middle" x="113" y="-229.38" font-family="Helvetica,sans-Serif" font-size="10.00">std::vector&lt; std::string &gt;</text>
</a>
</g>
</g>
<!-- Node4&#45;&gt;Node3 -->
<g id="edge3_Node000003_Node000004" class="edge">
<title>Node4&#45;&gt;Node3</title>
<g id="a_edge3_Node000003_Node000004"><a xlink:title=" ">
<path fill="none" stroke="#9a32cd" stroke-dasharray="5,2" d="M126.17,-214.43C135.08,-202.36 146.72,-186.6 155.11,-175.24"/>
<polygon fill="#9a32cd" stroke="#9a32cd" points="122.84,-212.04 119.71,-222.16 128.47,-216.2 122.84,-212.04"/>
</a>
</g>
<text text-anchor="middle" x="163.38" y="-194.5" font-family="Helvetica,sans-Serif" font-size="10.00" fill="grey"> elements</text>
</g>
<!-- Node5 -->
<g id="Node000005" class="node">
<title>Node5</title>
<g id="a_Node000005"><a xlink:title=" ">
<polygon fill="white" stroke="#666666" points="76.75,-319 17.25,-319 17.25,-299.75 76.75,-299.75 76.75,-319"/>
<text text-anchor="middle" x="47" y="-305.5" font-family="Helvetica,sans-Serif" font-size="10.00">std::string</text>
</a>
</g>
</g>
<!-- Node5&#45;&gt;Node4 -->
<g id="edge4_Node000004_Node000005" class="edge">
<title>Node5&#45;&gt;Node4</title>
<g id="a_edge4_Node000004_Node000005"><a xlink:title=" ">
<path fill="none" stroke="#9a32cd" stroke-dasharray="5,2" d="M48.71,-288.5C50.31,-279.77 53.38,-269.85 59.25,-262.5 66.03,-254.02 76.05,-247.79 85.61,-243.37"/>
<polygon fill="#9a32cd" stroke="#9a32cd" points="45.12,-287.95 47.31,-298.32 52.06,-288.85 45.12,-287.95"/>
</a>
</g>
<text text-anchor="middle" x="81.38" y="-268.25" font-family="Helvetica,sans-Serif" font-size="10.00" fill="grey"> elements</text>
</g>
<!-- Node6 -->
<g id="Node000006" class="node">
<title>Node6</title>
<g id="a_Node000006"><a xlink:title=" ">
<polygon fill="white" stroke="#666666" points="94,-396.75 0,-396.75 0,-366.25 94,-366.25 94,-396.75"/>
<text text-anchor="start" x="8" y="-383.25" font-family="Helvetica,sans-Serif" font-size="10.00">std::basic_string&lt;</text>
<text text-anchor="middle" x="47" y="-372" font-family="Helvetica,sans-Serif" font-size="10.00"> Char &gt;</text>
</a>
</g>
</g>
<!-- Node6&#45;&gt;Node5 -->
<g id="edge5_Node000005_Node000006" class="edge">
<title>Node6&#45;&gt;Node5</title>
<g id="a_edge5_Node000005_Node000006"><a xlink:title=" ">
<path fill="none" stroke="#63b8ff" d="M47,-355.12C47,-342.52 47,-328.12 47,-319.13"/>
<polygon fill="#63b8ff" stroke="#63b8ff" points="43.5,-354.97 47,-364.97 50.5,-354.97 43.5,-354.97"/>
</a>
</g>
</g>
<!-- Node7 -->
<g id="Node000007" class="node">
<title>Node7</title>
<g id="a_Node000007"><a xlink:title=" ">
<polygon fill="white" stroke="#666666" points="189.25,-319 102.75,-319 102.75,-299.75 189.25,-299.75 189.25,-319"/>
<text text-anchor="middle" x="146" y="-305.5" font-family="Helvetica,sans-Serif" font-size="10.00">std::vector&lt; T &gt;</text>
</a>
</g>
</g>
<!-- Node7&#45;&gt;Node4 -->
<g id="edge6_Node000004_Node000007" class="edge">
<title>Node7&#45;&gt;Node4</title>
<g id="a_edge6_Node000004_Node000007"><a xlink:title=" ">
<path fill="none" stroke="orange" stroke-dasharray="5,2" d="M117.81,-293.14C114.06,-289.89 110.75,-286.1 108.5,-281.75 102.19,-269.53 105.96,-253.19 109.38,-243.2"/>
<polygon fill="orange" stroke="orange" points="115.31,-296.38 125.46,-299.41 119.42,-290.71 115.31,-296.38"/>
</a>
</g>
<text text-anchor="middle" x="141.25" y="-268.25" font-family="Helvetica,sans-Serif" font-size="10.00" fill="grey"> &lt; std::string &gt;</text>
</g>
<!-- Node8 -->
<g id="Node000008" class="node">
<title>Node8</title>
<g id="a_Node000008"><a xlink:title=" ">
<polygon fill="white" stroke="#666666" points="199.4,-391.12 170.6,-391.12 170.6,-371.88 199.4,-371.88 199.4,-391.12"/>
<text text-anchor="middle" x="185" y="-377.62" font-family="Helvetica,sans-Serif" font-size="10.00">T</text>
</a>
</g>
</g>
<!-- Node8&#45;&gt;Node7 -->
<g id="edge7_Node000007_Node000008" class="edge">
<title>Node8&#45;&gt;Node7</title>
<g id="a_edge7_Node000007_Node000008"><a xlink:title=" ">
<path fill="none" stroke="#9a32cd" stroke-dasharray="5,2" d="M167.53,-363.85C163.35,-359.14 159.24,-353.77 156.25,-348.25 151.26,-339.02 148.56,-327.19 147.21,-319.23"/>
<polygon fill="#9a32cd" stroke="#9a32cd" points="164.45,-365.74 173.9,-370.53 169.5,-360.89 164.45,-365.74"/>
</a>
</g>
<text text-anchor="middle" x="178.38" y="-338.75" font-family="Helvetica,sans-Serif" font-size="10.00" fill="grey"> elements</text>
</g>
<!-- Node9 -->
<g id="Node000009" class="node">
<title>Node9</title>
<g id="a_Node000009"><a xlink:title=" ">
<polygon fill="white" stroke="#666666" points="267.88,-281.75 182.12,-281.75 182.12,-262.5 267.88,-262.5 267.88,-281.75"/>
<text text-anchor="middle" x="225" y="-268.25" font-family="Helvetica,sans-Serif" font-size="10.00">std::deque&lt; T &gt;</text>
</a>
</g>
</g>
<!-- Node8&#45;&gt;Node9 -->
<g id="edge9_Node000009_Node000008" class="edge">
<title>Node8&#45;&gt;Node9</title>
<g id="a_edge9_Node000009_Node000008"><a xlink:title=" ">
<path fill="none" stroke="#9a32cd" stroke-dasharray="5,2" d="M193.49,-361.6C195.37,-357.24 197.3,-352.6 199,-348.25 208.22,-324.59 217.62,-296.13 222.17,-281.99"/>
<polygon fill="#9a32cd" stroke="#9a32cd" points="189.94,-359.98 189.11,-370.54 196.35,-362.8 189.94,-359.98"/>
</a>
</g>
<text text-anchor="middle" x="224.38" y="-338.75" font-family="Helvetica,sans-Serif" font-size="10.00" fill="grey"> elements</text>
</g>
<!-- Node9&#45;&gt;Node3 -->
<g id="edge8_Node000003_Node000009" class="edge">
<title>Node9&#45;&gt;Node3</title>
<g id="a_edge8_Node000003_Node000009"><a xlink:title=" ">
<path fill="none" stroke="orange" stroke-dasharray="5,2" d="M217.54,-252.3C210.84,-236.11 200.34,-212.33 189,-192.75 185.55,-186.8 181.29,-180.58 177.37,-175.2"/>
<polygon fill="orange" stroke="orange" points="214.53,-253.2 221.53,-261.16 221.02,-250.57 214.53,-253.2"/>
</a>
</g>
<text text-anchor="start" x="215" y="-235" font-family="Helvetica,sans-Serif" font-size="10.00" fill="grey"> &lt; std::vector&lt; std</text>
<text text-anchor="middle" x="255.5" y="-223.75" font-family="Helvetica,sans-Serif" font-size="10.00" fill="grey">::string &gt; &gt;</text>
</g>
<!-- Node10 -->
<g id="Node000010" class="node">
<title>Node10</title>
<g id="a_Node000010"><a xlink:title=" ">
<polygon fill="white" stroke="#666666" points="305.25,-169.12 242.75,-169.12 242.75,-149.88 305.25,-149.88 305.25,-169.12"/>
<text text-anchor="middle" x="274" y="-155.62" font-family="Helvetica,sans-Serif" font-size="10.00">std::thread</text>
</a>
</g>
</g>
<!-- Node10&#45;&gt;Node2 -->
<g id="edge10_Node000002_Node000010" class="edge">
<title>Node10&#45;&gt;Node2</title>
<g id="a_edge10_Node000002_Node000010"><a xlink:title=" ">
<path fill="none" stroke="#9a32cd" stroke-dasharray="5,2" d="M260.51,-140.98C249.85,-127.13 235.4,-108.38 226.95,-97.41"/>
<polygon fill="#9a32cd" stroke="#9a32cd" points="258.29,-142.83 267.16,-148.62 263.83,-138.56 258.29,-142.83"/>
</a>
</g>
<text text-anchor="middle" x="282.88" y="-116.75" font-family="Helvetica,sans-Serif" font-size="10.00" fill="grey"> avrdude_thread</text>
</g>
</g>
</svg>
</svg>

<style type='text/css'>
<![CDATA[
[data-mouse-over-selected='false'] { opacity: 0.7; }
[data-mouse-over-selected='true']  { opacity: 1.0; }
]]>
</style>
<script type="application/ecmascript"><![CDATA[
document.addEventListener('DOMContentLoaded', (event) => {
  highlightEdges();
  highlightAdjacentNodes();
});
]]></script>
</svg>
