<?xml version="1.0" encoding="UTF-8" standalone="no"?>
<!DOCTYPE svg PUBLIC "-//W3C//DTD SVG 1.1//EN"
 "http://www.w3.org/Graphics/SVG/1.1/DTD/svg11.dtd">
<!-- Generated by graphviz version 8.0.5 (20230430.1635)
 -->
<!-- Title: src/slic3r/GUI/GLToolbar.hpp Pages: 1 -->
<!--zoomable 315 -->

<svg id="main" version="1.1" xmlns="http://www.w3.org/2000/svg" xmlns:xlink="http://www.w3.org/1999/xlink" xml:space="preserve" onload="init(evt)">
<style type="text/css"><![CDATA[
.node, .edge {opacity: 0.7;}
.node.selected, .edge.selected {opacity: 1;}
.edge:hover path { stroke: red; }
.edge:hover polygon { stroke: red; fill: red; }
]]></style>

<defs>
  <circle id="rim" cx="0" cy="0" r="7"/>
  <circle id="rim2" cx="0" cy="0" r="3.5"/>
  <g id="zoomPlus">
    <use xlink:href="#rim" fill="#404040"><set attributeName="fill" to="#808080" begin="zoomplus.mouseover" end="zoomplus.mouseout"/></use>
    <path d="M-4,0h8M0,-4v8" fill="none" stroke="white" stroke-width="1.5" pointer-events="none"/>
  </g>
  <g id="zoomMin">
    <use xlink:href="#rim" fill="#404040"><set attributeName="fill" to="#808080" begin="zoomminus.mouseover" end="zoomminus.mouseout"/></use>
    <path d="M-4,0h8" fill="none" stroke="white" stroke-width="1.5" pointer-events="none"/>
  </g>
  <g id="arrowUp" transform="translate(30 24)">
    <use xlink:href="#rim"/>
    <path pointer-events="none" fill="none" stroke="white" stroke-width="1.5" d="M0,-3.0v7 M-2.5,-0.5L0,-3.0L2.5,-0.5"/>
  </g>
  <g id="arrowRight" transform="rotate(90) translate(36 -43)">
    <use xlink:href="#rim"/>
    <path pointer-events="none" fill="none" stroke="white" stroke-width="1.5" d="M0,-3.0v7 M-2.5,-0.5L0,-3.0L2.5,-0.5"/>
  </g>
  <g id="arrowDown" transform="rotate(180) translate(-30 -48)">
    <use xlink:href="#rim"/>
    <path pointer-events="none" fill="none" stroke="white" stroke-width="1.5" d="M0,-3.0v7 M-2.5,-0.5L0,-3.0L2.5,-0.5"/>
  </g>
  <g id="arrowLeft" transform="rotate(270) translate(-36 17)">
    <use xlink:href="#rim"/>
    <path pointer-events="none" fill="none" stroke="white" stroke-width="1.5" d="M0,-3.0v7 M-2.5,-0.5L0,-3.0L2.5,-0.5"/>
  </g>
  <g id="resetDef">
    <use xlink:href="#rim2" fill="#404040"><set attributeName="fill" to="#808080" begin="reset.mouseover" end="reset.mouseout"/></use>
  </g>
</defs>
<script type="application/ecmascript">
var viewWidth = 1919;
var viewHeight = 315;
var sectionId = 'dynsection-0';
</script>
<script type="application/ecmascript" xlink:href="../../svg.min.js"/>
<svg id="graph" class="graph">
<g id="viewport">
<title>src/slic3r/GUI/GLToolbar.hpp</title>
<!-- Node1 -->
<g id="Node000001" class="node">
<title>Node1</title>
<g id="a_Node000001"><a xlink:title=" ">
<polygon fill="#999999" stroke="#666666" points="274,-306.75 132,-306.75 132,-287.5 274,-287.5 274,-306.75"/>
<text text-anchor="middle" x="203" y="-293.25" font-family="Helvetica,sans-Serif" font-size="10.00">src/slic3r/GUI/GLToolbar.hpp</text>
</a>
</g>
</g>
<!-- Node2 -->
<g id="Node000002" class="node">
<title>Node2</title>
<g id="a_Node000002"><a xlink:title=" ">
<polygon fill="#e0e0e0" stroke="#999999" points="58,-251.5 0,-251.5 0,-232.25 58,-232.25 58,-251.5"/>
<text text-anchor="middle" x="29" y="-238" font-family="Helvetica,sans-Serif" font-size="10.00">functional</text>
</a>
</g>
</g>
<!-- Node1&#45;&gt;Node2 -->
<g id="edge1_Node000001_Node000002" class="edge">
<title>Node1&#45;&gt;Node2</title>
<g id="a_edge1_Node000001_Node000002"><a xlink:title=" ">
<path fill="none" stroke="#63b8ff" d="M173.48,-287.09C144.65,-278.27 100.57,-264.78 68.68,-255.02"/>
<polygon fill="#63b8ff" stroke="#63b8ff" points="69.96,-251.44 59.37,-251.86 67.91,-258.14 69.96,-251.44"/>
</a>
</g>
</g>
<!-- Node3 -->
<g id="Node000003" class="node">
<title>Node3</title>
<g id="a_Node000003"><a xlink:title=" ">
<polygon fill="#e0e0e0" stroke="#999999" points="381,-74.5 341,-74.5 341,-55.25 381,-55.25 381,-74.5"/>
<text text-anchor="middle" x="361" y="-61" font-family="Helvetica,sans-Serif" font-size="10.00">string</text>
</a>
</g>
</g>
<!-- Node1&#45;&gt;Node3 -->
<g id="edge2_Node000001_Node000003" class="edge">
<title>Node1&#45;&gt;Node3</title>
<g id="a_edge2_Node000001_Node000003"><a xlink:title=" ">
<path fill="none" stroke="#63b8ff" d="M188.86,-287.19C166.08,-271.85 122.09,-238.08 105,-196.25 99.68,-183.23 100.51,-117.95 107,-110.5 135.73,-77.51 268.59,-68.88 329.87,-66.65"/>
<polygon fill="#63b8ff" stroke="#63b8ff" points="329.91,-70.12 339.78,-66.29 329.68,-63.12 329.91,-70.12"/>
</a>
</g>
</g>
<!-- Node4 -->
<g id="Node000004" class="node">
<title>Node4</title>
<g id="a_Node000004"><a xlink:title=" ">
<polygon fill="#e0e0e0" stroke="#999999" points="331.5,-129.75 288.5,-129.75 288.5,-110.5 331.5,-110.5 331.5,-129.75"/>
<text text-anchor="middle" x="310" y="-116.25" font-family="Helvetica,sans-Serif" font-size="10.00">vector</text>
</a>
</g>
</g>
<!-- Node1&#45;&gt;Node4 -->
<g id="edge3_Node000001_Node000004" class="edge">
<title>Node1&#45;&gt;Node4</title>
<g id="a_edge3_Node000001_Node000004"><a xlink:title=" ">
<path fill="none" stroke="#63b8ff" d="M203.49,-287.28C205.13,-264.8 212.13,-204.51 241,-165.75 250.74,-152.68 265.53,-142.38 278.92,-134.99"/>
<polygon fill="#63b8ff" stroke="#63b8ff" points="280.06,-137.83 287.34,-130.13 276.85,-131.61 280.06,-137.83"/>
</a>
</g>
</g>
<!-- Node5 -->
<g id="Node000005" class="node">
<title>Node5</title>
<g id="a_Node000005"><a xlink:href="../../d8/d07/_g_l_texture_8hpp.html" target="_top" xlink:title=" ">
<polygon fill="white" stroke="#666666" points="193.88,-190.62 114.12,-190.62 114.12,-171.38 193.88,-171.38 193.88,-190.62"/>
<text text-anchor="middle" x="154" y="-177.12" font-family="Helvetica,sans-Serif" font-size="10.00">GLTexture.hpp</text>
</a>
</g>
</g>
<!-- Node1&#45;&gt;Node5 -->
<g id="edge4_Node000001_Node000005" class="edge">
<title>Node1&#45;&gt;Node5</title>
<g id="a_edge4_Node000001_Node000005"><a xlink:title=" ">
<path fill="none" stroke="#63b8ff" d="M199.16,-287.17C191.21,-268.67 172.84,-225.88 162.14,-200.96"/>
<polygon fill="#63b8ff" stroke="#63b8ff" points="164.99,-199.72 157.83,-191.91 158.56,-202.48 164.99,-199.72"/>
</a>
</g>
</g>
<!-- Node8 -->
<g id="Node000008" class="node">
<title>Node8</title>
<g id="a_Node000008"><a xlink:href="../../d6/dc3/_event_8hpp.html" target="_top" xlink:title=" ">
<polygon fill="white" stroke="#666666" points="312.12,-251.5 251.88,-251.5 251.88,-232.25 312.12,-232.25 312.12,-251.5"/>
<text text-anchor="middle" x="282" y="-238" font-family="Helvetica,sans-Serif" font-size="10.00">Event.hpp</text>
</a>
</g>
</g>
<!-- Node1&#45;&gt;Node8 -->
<g id="edge9_Node000001_Node000008" class="edge">
<title>Node1&#45;&gt;Node8</title>
<g id="a_edge9_Node000001_Node000008"><a xlink:title=" ">
<path fill="none" stroke="#63b8ff" d="M216.4,-287.09C228.2,-279.14 245.64,-267.39 259.56,-258"/>
<polygon fill="#63b8ff" stroke="#63b8ff" points="261.2,-260.44 267.53,-251.95 257.28,-254.64 261.2,-260.44"/>
</a>
</g>
</g>
<!-- Node11 -->
<g id="Node000011" class="node">
<title>Node11</title>
<g id="a_Node000011"><a xlink:href="../../db/deb/_point_8hpp.html" target="_top" xlink:title=" ">
<polygon fill="white" stroke="#666666" points="942.62,-251.5 849.38,-251.5 849.38,-232.25 942.62,-232.25 942.62,-251.5"/>
<text text-anchor="middle" x="896" y="-238" font-family="Helvetica,sans-Serif" font-size="10.00">libslic3r/Point.hpp</text>
</a>
</g>
</g>
<!-- Node1&#45;&gt;Node11 -->
<g id="edge12_Node000001_Node000011" class="edge">
<title>Node1&#45;&gt;Node11</title>
<g id="a_edge12_Node000001_Node000011"><a xlink:title=" ">
<path fill="none" stroke="#63b8ff" d="M274.23,-290.65C411.86,-280.08 711.87,-257.02 838.15,-247.32"/>
<polygon fill="#63b8ff" stroke="#63b8ff" points="838.4,-250.73 848.1,-246.48 837.86,-243.76 838.4,-250.73"/>
</a>
</g>
</g>
<!-- Node5&#45;&gt;Node3 -->
<g id="edge6_Node000005_Node000003" class="edge">
<title>Node5&#45;&gt;Node3</title>
<g id="a_edge6_Node000005_Node000003"><a xlink:title=" ">
<path fill="none" stroke="#63b8ff" d="M170.16,-170.96C193.95,-157.65 239.84,-132.04 279,-110.5 297.7,-100.21 318.86,-88.7 334.99,-79.95"/>
<polygon fill="#63b8ff" stroke="#63b8ff" points="336.2,-82.73 343.33,-74.89 332.87,-76.58 336.2,-82.73"/>
</a>
</g>
</g>
<!-- Node5&#45;&gt;Node4 -->
<g id="edge7_Node000005_Node000004" class="edge">
<title>Node5&#45;&gt;Node4</title>
<g id="a_edge7_Node000005_Node000004"><a xlink:title=" ">
<path fill="none" stroke="#63b8ff" d="M178.03,-170.93C204.83,-160.82 248.29,-144.42 277.96,-133.22"/>
<polygon fill="#63b8ff" stroke="#63b8ff" points="279.09,-136.16 287.21,-129.35 276.61,-129.61 279.09,-136.16"/>
</a>
</g>
</g>
<!-- Node6 -->
<g id="Node000006" class="node">
<title>Node6</title>
<g id="a_Node000006"><a xlink:title=" ">
<polygon fill="#e0e0e0" stroke="#999999" points="161.62,-129.75 116.38,-129.75 116.38,-110.5 161.62,-110.5 161.62,-129.75"/>
<text text-anchor="middle" x="139" y="-116.25" font-family="Helvetica,sans-Serif" font-size="10.00">atomic</text>
</a>
</g>
</g>
<!-- Node5&#45;&gt;Node6 -->
<g id="edge5_Node000005_Node000006" class="edge">
<title>Node5&#45;&gt;Node6</title>
<g id="a_edge5_Node000005_Node000006"><a xlink:title=" ">
<path fill="none" stroke="#63b8ff" d="M151.72,-171.06C149.67,-163.02 146.59,-150.93 143.98,-140.66"/>
<polygon fill="#63b8ff" stroke="#63b8ff" points="147.16,-139.98 141.3,-131.15 140.38,-141.71 147.16,-139.98"/>
</a>
</g>
</g>
<!-- Node7 -->
<g id="Node000007" class="node">
<title>Node7</title>
<g id="a_Node000007"><a xlink:title=" ">
<polygon fill="#e0e0e0" stroke="#999999" points="222.5,-129.75 179.5,-129.75 179.5,-110.5 222.5,-110.5 222.5,-129.75"/>
<text text-anchor="middle" x="201" y="-116.25" font-family="Helvetica,sans-Serif" font-size="10.00">thread</text>
</a>
</g>
</g>
<!-- Node5&#45;&gt;Node7 -->
<g id="edge8_Node000005_Node000007" class="edge">
<title>Node5&#45;&gt;Node7</title>
<g id="a_edge8_Node000005_Node000007"><a xlink:title=" ">
<path fill="none" stroke="#63b8ff" d="M161.14,-171.06C167.97,-162.5 178.47,-149.35 186.97,-138.7"/>
<polygon fill="#63b8ff" stroke="#63b8ff" points="190.29,-141.15 193.79,-131.15 184.82,-136.78 190.29,-141.15"/>
</a>
</g>
</g>
<!-- Node9 -->
<g id="Node000009" class="node">
<title>Node9</title>
<g id="a_Node000009"><a xlink:title=" ">
<polygon fill="#e0e0e0" stroke="#999999" points="709.88,-129.75 672.12,-129.75 672.12,-110.5 709.88,-110.5 709.88,-129.75"/>
<text text-anchor="middle" x="691" y="-116.25" font-family="Helvetica,sans-Serif" font-size="10.00">array</text>
</a>
</g>
</g>
<!-- Node8&#45;&gt;Node9 -->
<g id="edge10_Node000008_Node000009" class="edge">
<title>Node8&#45;&gt;Node9</title>
<g id="a_edge10_Node000008_Node000009"><a xlink:title=" ">
<path fill="none" stroke="#63b8ff" d="M312.54,-237.66C350.4,-232.77 416.14,-221.23 467,-196.25 486.44,-186.7 485.5,-175.17 505,-165.75 566.93,-135.82 591.22,-147.2 661.54,-129.89"/>
<polygon fill="#63b8ff" stroke="#63b8ff" points="661.97,-133.14 670.78,-127.25 660.22,-126.36 661.97,-133.14"/>
</a>
</g>
</g>
<!-- Node10 -->
<g id="Node000010" class="node">
<title>Node10</title>
<g id="a_Node000010"><a xlink:title=" ">
<polygon fill="#e0e0e0" stroke="#999999" points="314,-190.62 250,-190.62 250,-171.38 314,-171.38 314,-190.62"/>
<text text-anchor="middle" x="282" y="-177.12" font-family="Helvetica,sans-Serif" font-size="10.00">wx/event.h</text>
</a>
</g>
</g>
<!-- Node8&#45;&gt;Node10 -->
<g id="edge11_Node000008_Node000010" class="edge">
<title>Node8&#45;&gt;Node10</title>
<g id="a_edge11_Node000008_Node000010"><a xlink:title=" ">
<path fill="none" stroke="#63b8ff" d="M282,-231.93C282,-223.98 282,-212.06 282,-201.87"/>
<polygon fill="#63b8ff" stroke="#63b8ff" points="285.5,-202.03 282,-192.03 278.5,-202.03 285.5,-202.03"/>
</a>
</g>
</g>
<!-- Node11&#45;&gt;Node3 -->
<g id="edge45_Node000011_Node000003" class="edge">
<title>Node11&#45;&gt;Node3</title>
<g id="a_edge45_Node000011_Node000003"><a xlink:title=" ">
<path fill="none" stroke="#63b8ff" d="M943,-238.6C1037.44,-233.54 1243.03,-219.91 1264,-196.25 1272.99,-186.1 1273.24,-175.67 1264,-165.75 1225.51,-124.43 811.43,-144.81 757,-129.75 738.75,-124.7 737.11,-116.03 719,-110.5 601.99,-74.76 455.1,-67.58 392.06,-66.18"/>
<polygon fill="#63b8ff" stroke="#63b8ff" points="392.36,-62.67 382.3,-65.99 392.23,-69.67 392.36,-62.67"/>
</a>
</g>
</g>
<!-- Node11&#45;&gt;Node4 -->
<g id="edge43_Node000011_Node000004" class="edge">
<title>Node11&#45;&gt;Node4</title>
<g id="a_edge43_Node000011_Node000004"><a xlink:title=" ">
<path fill="none" stroke="#63b8ff" d="M849.28,-239.27C726.74,-234.74 402.65,-220.58 361,-196.25 339.46,-183.66 325.06,-157.93 317.21,-140.11"/>
<polygon fill="#63b8ff" stroke="#63b8ff" points="320.1,-138.93 313.07,-131 313.62,-141.58 320.1,-138.93"/>
</a>
</g>
</g>
<!-- Node12 -->
<g id="Node000012" class="node">
<title>Node12</title>
<g id="a_Node000012"><a xlink:href="../../dd/d47/libslic3r_8h.html" target="_top" xlink:title=" ">
<polygon fill="white" stroke="#666666" points="1367.25,-190.62 1310.75,-190.62 1310.75,-171.38 1367.25,-171.38 1367.25,-190.62"/>
<text text-anchor="middle" x="1339" y="-177.12" font-family="Helvetica,sans-Serif" font-size="10.00">libslic3r.h</text>
</a>
</g>
</g>
<!-- Node11&#45;&gt;Node12 -->
<g id="edge13_Node000011_Node000012" class="edge">
<title>Node11&#45;&gt;Node12</title>
<g id="a_edge13_Node000011_Node000012"><a xlink:title=" ">
<path fill="none" stroke="#63b8ff" d="M942.85,-238.95C1018.25,-235.11 1170.85,-224.32 1297,-196.25 1299.63,-195.66 1302.33,-194.97 1305.02,-194.21"/>
<polygon fill="#63b8ff" stroke="#63b8ff" points="1305.75,-197.35 1314.27,-191.05 1303.68,-190.66 1305.75,-197.35"/>
</a>
</g>
</g>
<!-- Node20 -->
<g id="Node000020" class="node">
<title>Node20</title>
<g id="a_Node000020"><a xlink:title=" ">
<polygon fill="#e0e0e0" stroke="#999999" points="1847.62,-129.75 1796.38,-129.75 1796.38,-110.5 1847.62,-110.5 1847.62,-129.75"/>
<text text-anchor="middle" x="1822" y="-116.25" font-family="Helvetica,sans-Serif" font-size="10.00">sstream</text>
</a>
</g>
</g>
<!-- Node11&#45;&gt;Node20 -->
<g id="edge46_Node000011_Node000020" class="edge">
<title>Node11&#45;&gt;Node20</title>
<g id="a_edge46_Node000011_Node000020"><a xlink:title=" ">
<path fill="none" stroke="#63b8ff" d="M942.79,-237.58C1028.77,-231.3 1217.63,-216.4 1376,-196.25 1556.07,-173.34 1603.88,-166.94 1785.34,-129.95"/>
<polygon fill="#63b8ff" stroke="#63b8ff" points="1785.96,-133.2 1795.06,-127.77 1784.56,-126.34 1785.96,-133.2"/>
</a>
</g>
</g>
<!-- Node25 -->
<g id="Node000025" class="node">
<title>Node25</title>
<g id="a_Node000025"><a xlink:title=" ">
<polygon fill="#e0e0e0" stroke="#999999" points="1908.5,-129.75 1865.5,-129.75 1865.5,-110.5 1908.5,-110.5 1908.5,-129.75"/>
<text text-anchor="middle" x="1887" y="-116.25" font-family="Helvetica,sans-Serif" font-size="10.00">cmath</text>
</a>
</g>
</g>
<!-- Node11&#45;&gt;Node25 -->
<g id="edge44_Node000011_Node000025" class="edge">
<title>Node11&#45;&gt;Node25</title>
<g id="a_edge44_Node000011_Node000025"><a xlink:title=" ">
<path fill="none" stroke="#63b8ff" d="M942.78,-239.18C1044.5,-235.11 1293.28,-223.06 1500,-196.25 1656.62,-175.94 1698.16,-167.24 1854.63,-130.16"/>
<polygon fill="#63b8ff" stroke="#63b8ff" points="1855.19,-133.39 1864.11,-127.68 1853.57,-126.58 1855.19,-133.39"/>
</a>
</g>
</g>
<!-- Node36 -->
<g id="Node000036" class="node">
<title>Node36</title>
<g id="a_Node000036"><a xlink:title=" ">
<polygon fill="#e0e0e0" stroke="#999999" points="562.12,-190.62 513.88,-190.62 513.88,-171.38 562.12,-171.38 562.12,-190.62"/>
<text text-anchor="middle" x="538" y="-177.12" font-family="Helvetica,sans-Serif" font-size="10.00">cstddef</text>
</a>
</g>
</g>
<!-- Node11&#45;&gt;Node36 -->
<g id="edge42_Node000011_Node000036" class="edge">
<title>Node11&#45;&gt;Node36</title>
<g id="a_edge42_Node000011_Node000036"><a xlink:title=" ">
<path fill="none" stroke="#63b8ff" d="M849.09,-238.25C785.39,-233.81 668.4,-222.6 572,-196.25 570.46,-195.83 568.89,-195.35 567.32,-194.84"/>
<polygon fill="#63b8ff" stroke="#63b8ff" points="568.7,-191.25 558.11,-191.03 566.26,-197.8 568.7,-191.25"/>
</a>
</g>
</g>
<!-- Node37 -->
<g id="Node000037" class="node">
<title>Node37</title>
<g id="a_Node000037"><a xlink:title=" ">
<polygon fill="#e0e0e0" stroke="#999999" points="663.38,-190.62 580.62,-190.62 580.62,-171.38 663.38,-171.38 663.38,-190.62"/>
<text text-anchor="middle" x="622" y="-177.12" font-family="Helvetica,sans-Serif" font-size="10.00">unordered_map</text>
</a>
</g>
</g>
<!-- Node11&#45;&gt;Node37 -->
<g id="edge47_Node000011_Node000037" class="edge">
<title>Node11&#45;&gt;Node37</title>
<g id="a_edge47_Node000011_Node000037"><a xlink:title=" ">
<path fill="none" stroke="#63b8ff" d="M848.99,-232.66C803.5,-224.43 732.71,-210.92 672,-196.25 669,-195.52 665.9,-194.74 662.8,-193.92"/>
<polygon fill="#63b8ff" stroke="#63b8ff" points="663.87,-190.31 653.3,-191.06 662.03,-197.07 663.87,-190.31"/>
</a>
</g>
</g>
<!-- Node38 -->
<g id="Node000038" class="node">
<title>Node38</title>
<g id="a_Node000038"><a xlink:title=" ">
<polygon fill="#e0e0e0" stroke="#999999" points="781,-196.25 681,-196.25 681,-165.75 781,-165.75 781,-196.25"/>
<text text-anchor="start" x="689" y="-182.75" font-family="Helvetica,sans-Serif" font-size="10.00">oneapi/tbb/scalable</text>
<text text-anchor="middle" x="731" y="-171.5" font-family="Helvetica,sans-Serif" font-size="10.00">_allocator.h</text>
</a>
</g>
</g>
<!-- Node11&#45;&gt;Node38 -->
<g id="edge48_Node000011_Node000038" class="edge">
<title>Node11&#45;&gt;Node38</title>
<g id="a_edge48_Node000011_Node000038"><a xlink:title=" ">
<path fill="none" stroke="#63b8ff" d="M870.58,-231.8C847.13,-223.44 811.61,-210.76 782.27,-200.29"/>
<polygon fill="#63b8ff" stroke="#63b8ff" points="783.78,-196.76 773.18,-196.69 781.42,-203.35 783.78,-196.76"/>
</a>
</g>
</g>
<!-- Node39 -->
<g id="Node000039" class="node">
<title>Node39</title>
<g id="a_Node000039"><a xlink:title=" ">
<polygon fill="#e0e0e0" stroke="#999999" points="885.25,-190.62 798.75,-190.62 798.75,-171.38 885.25,-171.38 885.25,-190.62"/>
<text text-anchor="middle" x="842" y="-177.12" font-family="Helvetica,sans-Serif" font-size="10.00">Eigen/Geometry</text>
</a>
</g>
</g>
<!-- Node11&#45;&gt;Node39 -->
<g id="edge49_Node000011_Node000039" class="edge">
<title>Node11&#45;&gt;Node39</title>
<g id="a_edge49_Node000011_Node000039"><a xlink:title=" ">
<path fill="none" stroke="#63b8ff" d="M887.8,-231.93C879.79,-223.2 867.4,-209.69 857.53,-198.93"/>
<polygon fill="#63b8ff" stroke="#63b8ff" points="860.62,-197.03 851.28,-192.03 855.46,-201.76 860.62,-197.03"/>
</a>
</g>
</g>
<!-- Node40 -->
<g id="Node000040" class="node">
<title>Node40</title>
<g id="a_Node000040"><a xlink:href="../../da/dfe/_locales_utils_8hpp.html" target="_top" xlink:title=" ">
<polygon fill="white" stroke="#666666" points="458.38,-190.62 369.62,-190.62 369.62,-171.38 458.38,-171.38 458.38,-190.62"/>
<text text-anchor="middle" x="414" y="-177.12" font-family="Helvetica,sans-Serif" font-size="10.00">LocalesUtils.hpp</text>
</a>
</g>
</g>
<!-- Node11&#45;&gt;Node40 -->
<g id="edge50_Node000011_Node000040" class="edge">
<title>Node11&#45;&gt;Node40</title>
<g id="a_edge50_Node000011_Node000040"><a xlink:title=" ">
<path fill="none" stroke="#63b8ff" d="M848.98,-236.15C775.46,-228.61 628.9,-213.01 505,-196.25 493.47,-194.69 481.15,-192.87 469.42,-191.06"/>
<polygon fill="#63b8ff" stroke="#63b8ff" points="470.26,-187.49 459.84,-189.4 469.18,-194.4 470.26,-187.49"/>
</a>
</g>
</g>
<!-- Node44 -->
<g id="Node000044" class="node">
<title>Node44</title>
<g id="a_Node000044"><a xlink:title=" ">
<polygon fill="#e0e0e0" stroke="#999999" points="996.62,-190.62 903.38,-190.62 903.38,-171.38 996.62,-171.38 996.62,-190.62"/>
<text text-anchor="middle" x="950" y="-177.12" font-family="Helvetica,sans-Serif" font-size="10.00">boost/version.hpp</text>
</a>
</g>
</g>
<!-- Node11&#45;&gt;Node44 -->
<g id="edge56_Node000011_Node000044" class="edge">
<title>Node11&#45;&gt;Node44</title>
<g id="a_edge56_Node000011_Node000044"><a xlink:title=" ">
<path fill="none" stroke="#63b8ff" d="M904.2,-231.93C912.21,-223.2 924.6,-209.69 934.47,-198.93"/>
<polygon fill="#63b8ff" stroke="#63b8ff" points="936.54,-201.76 940.72,-192.03 931.38,-197.03 936.54,-201.76"/>
</a>
</g>
</g>
<!-- Node45 -->
<g id="Node000045" class="node">
<title>Node45</title>
<g id="a_Node000045"><a xlink:title=" ">
<polygon fill="#e0e0e0" stroke="#999999" points="1147.12,-190.62 1014.88,-190.62 1014.88,-171.38 1147.12,-171.38 1147.12,-190.62"/>
<text text-anchor="middle" x="1081" y="-177.12" font-family="Helvetica,sans-Serif" font-size="10.00">boost/polygon/polygon.hpp</text>
</a>
</g>
</g>
<!-- Node11&#45;&gt;Node45 -->
<g id="edge57_Node000011_Node000045" class="edge">
<title>Node11&#45;&gt;Node45</title>
<g id="a_edge57_Node000011_Node000045"><a xlink:title=" ">
<path fill="none" stroke="#63b8ff" d="M924.5,-231.8C956.01,-221.78 1006.94,-205.57 1042.1,-194.38"/>
<polygon fill="#63b8ff" stroke="#63b8ff" points="1043,-197.45 1051.47,-191.08 1040.88,-190.78 1043,-197.45"/>
</a>
</g>
</g>
<!-- Node46 -->
<g id="Node000046" class="node">
<title>Node46</title>
<g id="a_Node000046"><a xlink:title=" ">
<polygon fill="#e0e0e0" stroke="#999999" points="1255.12,-190.62 1164.88,-190.62 1164.88,-171.38 1255.12,-171.38 1255.12,-190.62"/>
<text text-anchor="middle" x="1210" y="-177.12" font-family="Helvetica,sans-Serif" font-size="10.00">cereal/cereal.hpp</text>
</a>
</g>
</g>
<!-- Node11&#45;&gt;Node46 -->
<g id="edge58_Node000011_Node000046" class="edge">
<title>Node11&#45;&gt;Node46</title>
<g id="a_edge58_Node000011_Node000046"><a xlink:title=" ">
<path fill="none" stroke="#63b8ff" d="M942.74,-234.12C994.97,-226.28 1081.93,-212.35 1156,-196.25 1159.62,-195.46 1163.35,-194.6 1167.09,-193.69"/>
<polygon fill="#63b8ff" stroke="#63b8ff" points="1167.71,-196.89 1176.56,-191.06 1166.01,-190.1 1167.71,-196.89"/>
</a>
</g>
</g>
<!-- Node12&#45;&gt;Node4 -->
<g id="edge26_Node000012_Node000004" class="edge">
<title>Node12&#45;&gt;Node4</title>
<g id="a_edge26_Node000012_Node000004"><a xlink:title=" ">
<path fill="none" stroke="#63b8ff" d="M1310.3,-173.52C1296.4,-170.65 1279.41,-167.52 1264,-165.75 873.35,-120.93 771.9,-161.82 380,-129.75 367.7,-128.74 354.23,-127.19 342.43,-125.68"/>
<polygon fill="#63b8ff" stroke="#63b8ff" points="343.08,-122.11 332.71,-124.27 342.16,-129.05 343.08,-122.11"/>
</a>
</g>
</g>
<!-- Node12&#45;&gt;Node9 -->
<g id="edge16_Node000012_Node000009" class="edge">
<title>Node12&#45;&gt;Node9</title>
<g id="a_edge16_Node000012_Node000009"><a xlink:title=" ">
<path fill="none" stroke="#63b8ff" d="M1310.28,-173.73C1296.36,-170.9 1279.38,-167.75 1264,-165.75 1039.99,-136.62 981.76,-152.4 757,-129.75 745.19,-128.56 732.22,-126.94 720.94,-125.42"/>
<polygon fill="#63b8ff" stroke="#63b8ff" points="721.7,-121.85 711.31,-123.95 720.74,-128.79 721.7,-121.85"/>
</a>
</g>
</g>
<!-- Node13 -->
<g id="Node000013" class="node">
<title>Node13</title>
<g id="a_Node000013"><a xlink:title=" ">
<polygon fill="#e0e0e0" stroke="#999999" points="860,-129.75 766,-129.75 766,-110.5 860,-110.5 860,-129.75"/>
<text text-anchor="middle" x="813" y="-116.25" font-family="Helvetica,sans-Serif" font-size="10.00">libslic3r_version.h</text>
</a>
</g>
</g>
<!-- Node12&#45;&gt;Node13 -->
<g id="edge14_Node000012_Node000013" class="edge">
<title>Node12&#45;&gt;Node13</title>
<g id="a_edge14_Node000012_Node000013"><a xlink:title=" ">
<path fill="none" stroke="#63b8ff" d="M1315.73,-170.99C1309.71,-168.96 1303.18,-167.04 1297,-165.75 1113.59,-127.52 1060.52,-151.37 871.21,-129.91"/>
<polygon fill="#63b8ff" stroke="#63b8ff" points="871.66,-126.33 861.33,-128.65 870.85,-133.28 871.66,-126.33"/>
</a>
</g>
</g>
<!-- Node14 -->
<g id="Node000014" class="node">
<title>Node14</title>
<g id="a_Node000014"><a xlink:title=" ">
<polygon fill="#e0e0e0" stroke="#999999" points="929.62,-129.75 878.38,-129.75 878.38,-110.5 929.62,-110.5 929.62,-129.75"/>
<text text-anchor="middle" x="904" y="-116.25" font-family="Helvetica,sans-Serif" font-size="10.00">memory</text>
</a>
</g>
</g>
<!-- Node12&#45;&gt;Node14 -->
<g id="edge15_Node000012_Node000014" class="edge">
<title>Node12&#45;&gt;Node14</title>
<g id="a_edge15_Node000012_Node000014"><a xlink:title=" ">
<path fill="none" stroke="#63b8ff" d="M1315.28,-170.91C1309.38,-168.94 1303.02,-167.06 1297,-165.75 1144.08,-132.57 1098.53,-155.9 940.48,-129.74"/>
<polygon fill="#63b8ff" stroke="#63b8ff" points="941.35,-126.17 930.91,-127.94 940.18,-133.07 941.35,-126.17"/>
</a>
</g>
</g>
<!-- Node15 -->
<g id="Node000015" class="node">
<title>Node15</title>
<g id="a_Node000015"><a xlink:title=" ">
<polygon fill="#e0e0e0" stroke="#999999" points="1003.88,-129.75 948.12,-129.75 948.12,-110.5 1003.88,-110.5 1003.88,-129.75"/>
<text text-anchor="middle" x="976" y="-116.25" font-family="Helvetica,sans-Serif" font-size="10.00">algorithm</text>
</a>
</g>
</g>
<!-- Node12&#45;&gt;Node15 -->
<g id="edge17_Node000012_Node000015" class="edge">
<title>Node12&#45;&gt;Node15</title>
<g id="a_edge17_Node000012_Node000015"><a xlink:title=" ">
<path fill="none" stroke="#63b8ff" d="M1314.81,-170.88C1309.04,-168.96 1302.85,-167.11 1297,-165.75 1175.2,-137.53 1141.32,-150.34 1018,-129.75 1016.86,-129.56 1015.71,-129.36 1014.54,-129.16"/>
<polygon fill="#63b8ff" stroke="#63b8ff" points="1015.43,-125.57 1004.96,-127.17 1014.14,-132.45 1015.43,-125.57"/>
</a>
</g>
</g>
<!-- Node16 -->
<g id="Node000016" class="node">
<title>Node16</title>
<g id="a_Node000016"><a xlink:title=" ">
<polygon fill="#e0e0e0" stroke="#999999" points="1206.62,-74.5 1155.38,-74.5 1155.38,-55.25 1206.62,-55.25 1206.62,-74.5"/>
<text text-anchor="middle" x="1181" y="-61" font-family="Helvetica,sans-Serif" font-size="10.00">ostream</text>
</a>
</g>
</g>
<!-- Node12&#45;&gt;Node16 -->
<g id="edge18_Node000012_Node000016" class="edge">
<title>Node12&#45;&gt;Node16</title>
<g id="a_edge18_Node000012_Node000016"><a xlink:title=" ">
<path fill="none" stroke="#63b8ff" d="M1314.79,-170.95C1309.02,-169.03 1302.84,-167.16 1297,-165.75 1243.29,-152.82 1087.13,-171.55 1051,-129.75 1021.63,-95.77 1096.51,-78.12 1144.47,-70.54"/>
<polygon fill="#63b8ff" stroke="#63b8ff" points="1144.76,-73.89 1154.13,-68.96 1143.72,-66.97 1144.76,-73.89"/>
</a>
</g>
</g>
<!-- Node17 -->
<g id="Node000017" class="node">
<title>Node17</title>
<g id="a_Node000017"><a xlink:title=" ">
<polygon fill="#e0e0e0" stroke="#999999" points="1113.75,-129.75 1060.25,-129.75 1060.25,-110.5 1113.75,-110.5 1113.75,-129.75"/>
<text text-anchor="middle" x="1087" y="-116.25" font-family="Helvetica,sans-Serif" font-size="10.00">iostream</text>
</a>
</g>
</g>
<!-- Node12&#45;&gt;Node17 -->
<g id="edge19_Node000012_Node000017" class="edge">
<title>Node12&#45;&gt;Node17</title>
<g id="a_edge19_Node000012_Node000017"><a xlink:title=" ">
<path fill="none" stroke="#63b8ff" d="M1313.84,-170.9C1308.33,-169.07 1302.5,-167.25 1297,-165.75 1224.07,-145.91 1201.96,-146.83 1124.84,-130.08"/>
<polygon fill="#63b8ff" stroke="#63b8ff" points="1125.62,-126.45 1115.11,-127.71 1124.12,-133.29 1125.62,-126.45"/>
</a>
</g>
</g>
<!-- Node18 -->
<g id="Node000018" class="node">
<title>Node18</title>
<g id="a_Node000018"><a xlink:title=" ">
<polygon fill="#e0e0e0" stroke="#999999" points="1178,-129.75 1132,-129.75 1132,-110.5 1178,-110.5 1178,-129.75"/>
<text text-anchor="middle" x="1155" y="-116.25" font-family="Helvetica,sans-Serif" font-size="10.00">math.h</text>
</a>
</g>
</g>
<!-- Node12&#45;&gt;Node18 -->
<g id="edge20_Node000012_Node000018" class="edge">
<title>Node12&#45;&gt;Node18</title>
<g id="a_edge20_Node000012_Node000018"><a xlink:title=" ">
<path fill="none" stroke="#63b8ff" d="M1312.82,-171.01C1307.59,-169.25 1302.12,-167.42 1297,-165.75 1259.97,-153.65 1217.32,-140.33 1188.5,-131.42"/>
<polygon fill="#63b8ff" stroke="#63b8ff" points="1189.76,-127.84 1179.17,-128.23 1187.69,-134.52 1189.76,-127.84"/>
</a>
</g>
</g>
<!-- Node19 -->
<g id="Node000019" class="node">
<title>Node19</title>
<g id="a_Node000019"><a xlink:title=" ">
<polygon fill="#e0e0e0" stroke="#999999" points="1238.12,-129.75 1195.88,-129.75 1195.88,-110.5 1238.12,-110.5 1238.12,-129.75"/>
<text text-anchor="middle" x="1217" y="-116.25" font-family="Helvetica,sans-Serif" font-size="10.00">queue</text>
</a>
</g>
</g>
<!-- Node12&#45;&gt;Node19 -->
<g id="edge21_Node000012_Node000019" class="edge">
<title>Node12&#45;&gt;Node19</title>
<g id="a_edge21_Node000012_Node000019"><a xlink:title=" ">
<path fill="none" stroke="#63b8ff" d="M1320.2,-170.93C1300.27,-161.31 1268.53,-145.99 1245.51,-134.88"/>
<polygon fill="#63b8ff" stroke="#63b8ff" points="1247.14,-131.3 1236.62,-130.11 1244.1,-137.61 1247.14,-131.3"/>
</a>
</g>
</g>
<!-- Node12&#45;&gt;Node20 -->
<g id="edge22_Node000012_Node000020" class="edge">
<title>Node12&#45;&gt;Node20</title>
<g id="a_edge22_Node000012_Node000020"><a xlink:title=" ">
<path fill="none" stroke="#63b8ff" d="M1367.49,-178.1C1437.13,-173.17 1621.66,-158.46 1785.34,-129.82"/>
<polygon fill="#63b8ff" stroke="#63b8ff" points="1785.85,-133.1 1795.09,-127.91 1784.63,-126.21 1785.85,-133.1"/>
</a>
</g>
</g>
<!-- Node21 -->
<g id="Node000021" class="node">
<title>Node21</title>
<g id="a_Node000021"><a xlink:title=" ">
<polygon fill="#e0e0e0" stroke="#999999" points="1298.12,-129.75 1255.88,-129.75 1255.88,-110.5 1298.12,-110.5 1298.12,-129.75"/>
<text text-anchor="middle" x="1277" y="-116.25" font-family="Helvetica,sans-Serif" font-size="10.00">cstdio</text>
</a>
</g>
</g>
<!-- Node12&#45;&gt;Node21 -->
<g id="edge23_Node000012_Node000021" class="edge">
<title>Node12&#45;&gt;Node21</title>
<g id="a_edge23_Node000012_Node000021"><a xlink:title=" ">
<path fill="none" stroke="#63b8ff" d="M1329.58,-171.06C1320.21,-162.15 1305.6,-148.28 1294.16,-137.42"/>
<polygon fill="#63b8ff" stroke="#63b8ff" points="1297.17,-135.5 1287.51,-131.15 1292.35,-140.58 1297.17,-135.5"/>
</a>
</g>
</g>
<!-- Node22 -->
<g id="Node000022" class="node">
<title>Node22</title>
<g id="a_Node000022"><a xlink:title=" ">
<polygon fill="#e0e0e0" stroke="#999999" points="1364.12,-129.75 1315.88,-129.75 1315.88,-110.5 1364.12,-110.5 1364.12,-129.75"/>
<text text-anchor="middle" x="1340" y="-116.25" font-family="Helvetica,sans-Serif" font-size="10.00">stdint.h</text>
</a>
</g>
</g>
<!-- Node12&#45;&gt;Node22 -->
<g id="edge24_Node000012_Node000022" class="edge">
<title>Node12&#45;&gt;Node22</title>
<g id="a_edge24_Node000012_Node000022"><a xlink:title=" ">
<path fill="none" stroke="#63b8ff" d="M1339.15,-171.06C1339.29,-163.1 1339.49,-151.19 1339.66,-140.99"/>
<polygon fill="#63b8ff" stroke="#63b8ff" points="1343.18,-141.21 1339.85,-131.15 1336.18,-141.09 1343.18,-141.21"/>
</a>
</g>
</g>
<!-- Node23 -->
<g id="Node000023" class="node">
<title>Node23</title>
<g id="a_Node000023"><a xlink:title=" ">
<polygon fill="#e0e0e0" stroke="#999999" points="1433.62,-129.75 1382.38,-129.75 1382.38,-110.5 1433.62,-110.5 1433.62,-129.75"/>
<text text-anchor="middle" x="1408" y="-116.25" font-family="Helvetica,sans-Serif" font-size="10.00">stdarg.h</text>
</a>
</g>
</g>
<!-- Node12&#45;&gt;Node23 -->
<g id="edge25_Node000012_Node000023" class="edge">
<title>Node12&#45;&gt;Node23</title>
<g id="a_edge25_Node000012_Node000023"><a xlink:title=" ">
<path fill="none" stroke="#63b8ff" d="M1349.48,-171.06C1360.02,-162.07 1376.49,-148.01 1389.28,-137.1"/>
<polygon fill="#63b8ff" stroke="#63b8ff" points="1391.09,-139.3 1396.42,-130.15 1386.54,-133.98 1391.09,-139.3"/>
</a>
</g>
</g>
<!-- Node24 -->
<g id="Node000024" class="node">
<title>Node24</title>
<g id="a_Node000024"><a xlink:title=" ">
<polygon fill="#e0e0e0" stroke="#999999" points="654.12,-129.75 605.88,-129.75 605.88,-110.5 654.12,-110.5 654.12,-129.75"/>
<text text-anchor="middle" x="630" y="-116.25" font-family="Helvetica,sans-Serif" font-size="10.00">cassert</text>
</a>
</g>
</g>
<!-- Node12&#45;&gt;Node24 -->
<g id="edge27_Node000012_Node000024" class="edge">
<title>Node12&#45;&gt;Node24</title>
<g id="a_edge27_Node000012_Node000024"><a xlink:title=" ">
<path fill="none" stroke="#63b8ff" d="M1310.29,-173.65C1296.38,-170.81 1279.39,-167.66 1264,-165.75 1001.96,-133.14 929.18,-170.77 665.08,-129.76"/>
<polygon fill="#63b8ff" stroke="#63b8ff" points="665.82,-126.17 655.4,-128.07 664.73,-133.09 665.82,-126.17"/>
</a>
</g>
</g>
<!-- Node12&#45;&gt;Node25 -->
<g id="edge28_Node000012_Node000025" class="edge">
<title>Node12&#45;&gt;Node25</title>
<g id="a_edge28_Node000012_Node000025"><a xlink:title=" ">
<path fill="none" stroke="#63b8ff" d="M1367.62,-179.06C1444.89,-176.15 1664.27,-165.3 1854.41,-129.94"/>
<polygon fill="#63b8ff" stroke="#63b8ff" points="1854.98,-133.2 1864.16,-127.91 1853.68,-126.32 1854.98,-133.2"/>
</a>
</g>
</g>
<!-- Node26 -->
<g id="Node000026" class="node">
<title>Node26</title>
<g id="a_Node000026"><a xlink:title=" ">
<polygon fill="#e0e0e0" stroke="#999999" points="1513.88,-129.75 1452.12,-129.75 1452.12,-110.5 1513.88,-110.5 1513.88,-129.75"/>
<text text-anchor="middle" x="1483" y="-116.25" font-family="Helvetica,sans-Serif" font-size="10.00">type_traits</text>
</a>
</g>
</g>
<!-- Node12&#45;&gt;Node26 -->
<g id="edge29_Node000012_Node000026" class="edge">
<title>Node12&#45;&gt;Node26</title>
<g id="a_edge29_Node000012_Node000026"><a xlink:title=" ">
<path fill="none" stroke="#63b8ff" d="M1361.18,-170.93C1385.25,-161.09 1423.88,-145.3 1451.17,-134.14"/>
<polygon fill="#63b8ff" stroke="#63b8ff" points="1452.1,-137.13 1460.03,-130.11 1449.45,-130.65 1452.1,-137.13"/>
</a>
</g>
</g>
<!-- Node27 -->
<g id="Node000027" class="node">
<title>Node27</title>
<g id="a_Node000027"><a xlink:title=" ">
<polygon fill="#e0e0e0" stroke="#999999" points="1581.88,-129.75 1532.12,-129.75 1532.12,-110.5 1581.88,-110.5 1581.88,-129.75"/>
<text text-anchor="middle" x="1557" y="-116.25" font-family="Helvetica,sans-Serif" font-size="10.00">optional</text>
</a>
</g>
</g>
<!-- Node12&#45;&gt;Node27 -->
<g id="edge30_Node000012_Node000027" class="edge">
<title>Node12&#45;&gt;Node27</title>
<g id="a_edge30_Node000012_Node000027"><a xlink:title=" ">
<path fill="none" stroke="#63b8ff" d="M1367.5,-172.3C1407,-161.64 1478.35,-142.37 1521.33,-130.76"/>
<polygon fill="#63b8ff" stroke="#63b8ff" points="1522.13,-133.9 1530.87,-127.91 1520.31,-127.14 1522.13,-133.9"/>
</a>
</g>
</g>
<!-- Node28 -->
<g id="Node000028" class="node">
<title>Node28</title>
<g id="a_Node000028"><a xlink:href="../../d0/d8f/_technologies_8hpp.html" target="_top" xlink:title=" ">
<polygon fill="white" stroke="#666666" points="1691.88,-129.75 1600.12,-129.75 1600.12,-110.5 1691.88,-110.5 1691.88,-129.75"/>
<text text-anchor="middle" x="1646" y="-116.25" font-family="Helvetica,sans-Serif" font-size="10.00">Technologies.hpp</text>
</a>
</g>
</g>
<!-- Node12&#45;&gt;Node28 -->
<g id="edge31_Node000012_Node000028" class="edge">
<title>Node12&#45;&gt;Node28</title>
<g id="a_edge31_Node000012_Node000028"><a xlink:title=" ">
<path fill="none" stroke="#63b8ff" d="M1367.61,-174.51C1418.01,-164.85 1523.53,-144.61 1589.2,-132.02"/>
<polygon fill="#63b8ff" stroke="#63b8ff" points="1589.62,-135.31 1598.79,-129.99 1588.31,-128.43 1589.62,-135.31"/>
</a>
</g>
</g>
<!-- Node29 -->
<g id="Node000029" class="node">
<title>Node29</title>
<g id="a_Node000029"><a xlink:href="../../df/d1b/_semver_8hpp.html" target="_top" xlink:title=" ">
<polygon fill="white" stroke="#666666" points="1777.88,-129.75 1710.12,-129.75 1710.12,-110.5 1777.88,-110.5 1777.88,-129.75"/>
<text text-anchor="middle" x="1744" y="-116.25" font-family="Helvetica,sans-Serif" font-size="10.00">Semver.hpp</text>
</a>
</g>
</g>
<!-- Node12&#45;&gt;Node29 -->
<g id="edge32_Node000012_Node000029" class="edge">
<title>Node12&#45;&gt;Node29</title>
<g id="a_edge32_Node000012_Node000029"><a xlink:title=" ">
<path fill="none" stroke="#63b8ff" d="M1367.72,-176.61C1427.46,-169.43 1569.69,-151.67 1699.27,-129.96"/>
<polygon fill="#63b8ff" stroke="#63b8ff" points="1699.49,-133.3 1708.77,-128.18 1698.32,-126.4 1699.49,-133.3"/>
</a>
</g>
</g>
<!-- Node29&#45;&gt;Node3 -->
<g id="edge33_Node000029_Node000003" class="edge">
<title>Node29&#45;&gt;Node3</title>
<g id="a_edge33_Node000029_Node000003"><a xlink:title=" ">
<path fill="none" stroke="#63b8ff" d="M1709.81,-111.74C1706.84,-111.26 1703.87,-110.83 1701,-110.5 1435.43,-79.66 567.46,-68.23 392.06,-66.21"/>
<polygon fill="#63b8ff" stroke="#63b8ff" points="392.13,-62.7 382.09,-66.09 392.05,-69.7 392.13,-62.7"/>
</a>
</g>
</g>
<!-- Node29&#45;&gt;Node16 -->
<g id="edge35_Node000029_Node000016" class="edge">
<title>Node29&#45;&gt;Node16</title>
<g id="a_edge35_Node000029_Node000016"><a xlink:title=" ">
<path fill="none" stroke="#63b8ff" d="M1709.79,-111.9C1706.83,-111.39 1703.86,-110.91 1701,-110.5 1520.91,-84.79 1303.46,-71.96 1218.02,-67.62"/>
<polygon fill="#63b8ff" stroke="#63b8ff" points="1218.25,-64.08 1208.09,-67.08 1217.9,-71.07 1218.25,-64.08"/>
</a>
</g>
</g>
<!-- Node30 -->
<g id="Node000030" class="node">
<title>Node30</title>
<g id="a_Node000030"><a xlink:title=" ">
<polygon fill="#e0e0e0" stroke="#999999" points="1897.62,-74.5 1852.38,-74.5 1852.38,-55.25 1897.62,-55.25 1897.62,-74.5"/>
<text text-anchor="middle" x="1875" y="-61" font-family="Helvetica,sans-Serif" font-size="10.00">cstring</text>
</a>
</g>
</g>
<!-- Node29&#45;&gt;Node30 -->
<g id="edge34_Node000029_Node000030" class="edge">
<title>Node29&#45;&gt;Node30</title>
<g id="a_edge34_Node000029_Node000030"><a xlink:title=" ">
<path fill="none" stroke="#63b8ff" d="M1766.22,-110.09C1787.21,-101.56 1818.92,-88.67 1842.69,-79.01"/>
<polygon fill="#63b8ff" stroke="#63b8ff" points="1843.72,-81.96 1851.67,-74.95 1841.09,-75.48 1843.72,-81.96"/>
</a>
</g>
</g>
<!-- Node31 -->
<g id="Node000031" class="node">
<title>Node31</title>
<g id="a_Node000031"><a xlink:title=" ">
<polygon fill="#e0e0e0" stroke="#999999" points="1889.38,-19.25 1830.62,-19.25 1830.62,0 1889.38,0 1889.38,-19.25"/>
<text text-anchor="middle" x="1860" y="-5.75" font-family="Helvetica,sans-Serif" font-size="10.00">stdexcept</text>
</a>
</g>
</g>
<!-- Node29&#45;&gt;Node31 -->
<g id="edge36_Node000029_Node000031" class="edge">
<title>Node29&#45;&gt;Node31</title>
<g id="a_edge36_Node000029_Node000031"><a xlink:title=" ">
<path fill="none" stroke="#63b8ff" d="M1778.35,-112.03C1823.79,-102.3 1899.1,-84.85 1907,-74.5 1919.59,-58 1901.06,-38.79 1883.69,-25.78"/>
<polygon fill="#63b8ff" stroke="#63b8ff" points="1886.08,-22.47 1875.89,-19.58 1882.05,-28.2 1886.08,-22.47"/>
</a>
</g>
</g>
<!-- Node32 -->
<g id="Node000032" class="node">
<title>Node32</title>
<g id="a_Node000032"><a xlink:title=" ">
<polygon fill="#e0e0e0" stroke="#999999" points="1520.75,-74.5 1425.25,-74.5 1425.25,-55.25 1520.75,-55.25 1520.75,-74.5"/>
<text text-anchor="middle" x="1473" y="-61" font-family="Helvetica,sans-Serif" font-size="10.00">boost/optional.hpp</text>
</a>
</g>
</g>
<!-- Node29&#45;&gt;Node32 -->
<g id="edge37_Node000029_Node000032" class="edge">
<title>Node29&#45;&gt;Node32</title>
<g id="a_edge37_Node000029_Node000032"><a xlink:title=" ">
<path fill="none" stroke="#63b8ff" d="M1709.74,-112.24C1706.78,-111.65 1703.84,-111.06 1701,-110.5 1642.94,-99 1576.53,-86.02 1530.42,-77.04"/>
<polygon fill="#63b8ff" stroke="#63b8ff" points="1531.22,-73.43 1520.74,-74.96 1529.88,-80.3 1531.22,-73.43"/>
</a>
</g>
</g>
<!-- Node33 -->
<g id="Node000033" class="node">
<title>Node33</title>
<g id="a_Node000033"><a xlink:title=" ">
<polygon fill="#e0e0e0" stroke="#999999" points="1628.75,-74.5 1539.25,-74.5 1539.25,-55.25 1628.75,-55.25 1628.75,-74.5"/>
<text text-anchor="middle" x="1584" y="-61" font-family="Helvetica,sans-Serif" font-size="10.00">boost/format.hpp</text>
</a>
</g>
</g>
<!-- Node29&#45;&gt;Node33 -->
<g id="edge38_Node000029_Node000033" class="edge">
<title>Node29&#45;&gt;Node33</title>
<g id="a_edge38_Node000029_Node000033"><a xlink:title=" ">
<path fill="none" stroke="#63b8ff" d="M1716.86,-110.09C1690.65,-101.37 1650.76,-88.09 1621.52,-78.36"/>
<polygon fill="#63b8ff" stroke="#63b8ff" points="1622.87,-74.79 1612.27,-74.95 1620.66,-81.43 1622.87,-74.79"/>
</a>
</g>
</g>
<!-- Node34 -->
<g id="Node000034" class="node">
<title>Node34</title>
<g id="a_Node000034"><a xlink:href="../../db/d53/semver_8h.html" target="_top" xlink:title=" ">
<polygon fill="white" stroke="#666666" points="1737.5,-74.5 1646.5,-74.5 1646.5,-55.25 1737.5,-55.25 1737.5,-74.5"/>
<text text-anchor="middle" x="1692" y="-61" font-family="Helvetica,sans-Serif" font-size="10.00">semver/semver.h</text>
</a>
</g>
</g>
<!-- Node29&#45;&gt;Node34 -->
<g id="edge39_Node000029_Node000034" class="edge">
<title>Node29&#45;&gt;Node34</title>
<g id="a_edge39_Node000029_Node000034"><a xlink:title=" ">
<path fill="none" stroke="#63b8ff" d="M1735.41,-110.33C1728.08,-102.82 1717.33,-91.81 1708.36,-82.63"/>
<polygon fill="#63b8ff" stroke="#63b8ff" points="1711.26,-80.57 1701.77,-75.86 1706.26,-85.46 1711.26,-80.57"/>
</a>
</g>
</g>
<!-- Node35 -->
<g id="Node000035" class="node">
<title>Node35</title>
<g id="a_Node000035"><a xlink:href="../../de/d75/_exception_8hpp.html" target="_top" xlink:title=" ">
<polygon fill="white" stroke="#666666" points="1834.12,-74.5 1755.88,-74.5 1755.88,-55.25 1834.12,-55.25 1834.12,-74.5"/>
<text text-anchor="middle" x="1795" y="-61" font-family="Helvetica,sans-Serif" font-size="10.00">Exception.hpp</text>
</a>
</g>
</g>
<!-- Node29&#45;&gt;Node35 -->
<g id="edge40_Node000029_Node000035" class="edge">
<title>Node29&#45;&gt;Node35</title>
<g id="a_edge40_Node000029_Node000035"><a xlink:title=" ">
<path fill="none" stroke="#63b8ff" d="M1752.42,-110.33C1759.61,-102.82 1770.16,-91.81 1778.95,-82.63"/>
<polygon fill="#63b8ff" stroke="#63b8ff" points="1781.01,-85.5 1785.4,-75.86 1775.95,-80.66 1781.01,-85.5"/>
</a>
</g>
</g>
<!-- Node35&#45;&gt;Node31 -->
<g id="edge41_Node000035_Node000031" class="edge">
<title>Node35&#45;&gt;Node31</title>
<g id="a_edge41_Node000035_Node000031"><a xlink:title=" ">
<path fill="none" stroke="#63b8ff" d="M1806.03,-54.84C1815.51,-47.07 1829.42,-35.67 1840.75,-26.4"/>
<polygon fill="#63b8ff" stroke="#63b8ff" points="1842.62,-28.57 1848.14,-19.52 1838.18,-23.15 1842.62,-28.57"/>
</a>
</g>
</g>
<!-- Node40&#45;&gt;Node3 -->
<g id="edge51_Node000040_Node000003" class="edge">
<title>Node40&#45;&gt;Node3</title>
<g id="a_edge51_Node000040_Node000003"><a xlink:title=" ">
<path fill="none" stroke="#63b8ff" d="M406.57,-170.89C398.98,-161.2 387.3,-145.17 380,-129.75 373.26,-115.5 368.31,-98.32 365.15,-85.37"/>
<polygon fill="#63b8ff" stroke="#63b8ff" points="368.4,-84.84 362.76,-75.87 361.57,-86.39 368.4,-84.84"/>
</a>
</g>
</g>
<!-- Node40&#45;&gt;Node24 -->
<g id="edge54_Node000040_Node000024" class="edge">
<title>Node40&#45;&gt;Node24</title>
<g id="a_edge54_Node000040_Node000024"><a xlink:title=" ">
<path fill="none" stroke="#63b8ff" d="M447.28,-170.93C487.28,-160.03 554.1,-141.81 594.9,-130.69"/>
<polygon fill="#63b8ff" stroke="#63b8ff" points="595.69,-133.83 604.42,-127.82 593.85,-127.08 595.69,-133.83"/>
</a>
</g>
</g>
<!-- Node41 -->
<g id="Node000041" class="node">
<title>Node41</title>
<g id="a_Node000041"><a xlink:title=" ">
<polygon fill="#e0e0e0" stroke="#999999" points="435.38,-129.75 388.62,-129.75 388.62,-110.5 435.38,-110.5 435.38,-129.75"/>
<text text-anchor="middle" x="412" y="-116.25" font-family="Helvetica,sans-Serif" font-size="10.00">clocale</text>
</a>
</g>
</g>
<!-- Node40&#45;&gt;Node41 -->
<g id="edge52_Node000040_Node000041" class="edge">
<title>Node40&#45;&gt;Node41</title>
<g id="a_edge52_Node000040_Node000041"><a xlink:title=" ">
<path fill="none" stroke="#63b8ff" d="M413.7,-171.06C413.43,-163.1 413.02,-151.19 412.67,-140.99"/>
<polygon fill="#63b8ff" stroke="#63b8ff" points="416.14,-141.03 412.31,-131.15 409.15,-141.26 416.14,-141.03"/>
</a>
</g>
</g>
<!-- Node42 -->
<g id="Node000042" class="node">
<title>Node42</title>
<g id="a_Node000042"><a xlink:title=" ">
<polygon fill="#e0e0e0" stroke="#999999" points="502.88,-129.75 453.12,-129.75 453.12,-110.5 502.88,-110.5 502.88,-129.75"/>
<text text-anchor="middle" x="478" y="-116.25" font-family="Helvetica,sans-Serif" font-size="10.00">iomanip</text>
</a>
</g>
</g>
<!-- Node40&#45;&gt;Node42 -->
<g id="edge53_Node000040_Node000042" class="edge">
<title>Node40&#45;&gt;Node42</title>
<g id="a_edge53_Node000040_Node000042"><a xlink:title=" ">
<path fill="none" stroke="#63b8ff" d="M423.72,-171.06C433.4,-162.15 448.48,-148.28 460.29,-137.42"/>
<polygon fill="#63b8ff" stroke="#63b8ff" points="462.2,-140.5 467.19,-131.15 457.46,-135.35 462.2,-140.5"/>
</a>
</g>
</g>
<!-- Node43 -->
<g id="Node000043" class="node">
<title>Node43</title>
<g id="a_Node000043"><a xlink:title=" ">
<polygon fill="#e0e0e0" stroke="#999999" points="586.75,-129.75 521.25,-129.75 521.25,-110.5 586.75,-110.5 586.75,-129.75"/>
<text text-anchor="middle" x="554" y="-116.25" font-family="Helvetica,sans-Serif" font-size="10.00">string_view</text>
</a>
</g>
</g>
<!-- Node40&#45;&gt;Node43 -->
<g id="edge55_Node000040_Node000043" class="edge">
<title>Node40&#45;&gt;Node43</title>
<g id="a_edge55_Node000040_Node000043"><a xlink:title=" ">
<path fill="none" stroke="#63b8ff" d="M435.57,-170.93C458.86,-161.13 496.19,-145.44 522.71,-134.29"/>
<polygon fill="#63b8ff" stroke="#63b8ff" points="523.78,-137.21 531.64,-130.11 521.06,-130.76 523.78,-137.21"/>
</a>
</g>
</g>
</g>
</svg>

<g id="navigator" transform="translate(0 0)" fill="#404254">
  <rect fill="#f2f5e9" fill-opacity="0.5" stroke="#606060" stroke-width=".5" x="0" y="0" width="60" height="60"/>
  <use id="zoomplus" xlink:href="#zoomPlus" x="17" y="9" onmousedown="handleZoom(evt,'in')"/>
  <use id="zoomminus" xlink:href="#zoomMin" x="42" y="9" onmousedown="handleZoom(evt,'out')"/>
  <use id="reset" xlink:href="#resetDef" x="30" y="36" onmousedown="handleReset()"/>
   <use id="arrowup" xlink:href="#arrowUp" x="0" y="0" onmousedown="handlePan(0,-1)"/>
  <use id="arrowright" xlink:href="#arrowRight" x="0" y="0" onmousedown="handlePan(1,0)"/>
  <use id="arrowdown" xlink:href="#arrowDown" x="0" y="0" onmousedown="handlePan(0,1)"/>
  <use id="arrowleft" xlink:href="#arrowLeft" x="0" y="0" onmousedown="handlePan(-1,0)"/>
</g>
<svg viewBox="0 0 15 15" width="100%" height="30px" preserveAspectRatio="xMaxYMin meet">
 <g id="arrow_out" transform="scale(0.3 0.3)">
  <a xlink:href="_g_l_toolbar_8hpp__incl_org.svg" target="_base">
   <rect id="button" ry="5" rx="5" y="6" x="6" height="38" width="38"
        fill="#f2f5e9" fill-opacity="0.5" stroke="#606060" stroke-width="1.0"/>
   <path id="arrow"
     d="M 11.500037,31.436501 C 11.940474,20.09759 22.043105,11.32322 32.158766,21.979434 L 37.068811,17.246167 C 37.068811,17.246167 37.088388,32 37.088388,32 L 22.160133,31.978069 C 22.160133,31.978069 26.997745,27.140456 26.997745,27.140456 C 18.528582,18.264221 13.291696,25.230495 11.500037,31.436501 z"
     style="fill:#404040;"/>
  </a>
 </g>
</svg>

<style type='text/css'>
<![CDATA[
[data-mouse-over-selected='false'] { opacity: 0.7; }
[data-mouse-over-selected='true']  { opacity: 1.0; }
]]>
</style>
<script type="application/ecmascript"><![CDATA[
document.addEventListener('DOMContentLoaded', (event) => {
  highlightEdges();
  highlightAdjacentNodes();
});
]]></script>
</svg>
