<?xml version="1.0" encoding="UTF-8" standalone="no"?>
<!DOCTYPE svg PUBLIC "-//W3C//DTD SVG 1.1//EN"
 "http://www.w3.org/Graphics/SVG/1.1/DTD/svg11.dtd">
<!-- Generated by graphviz version 8.0.5 (20230430.1635)
 -->
<!-- Title: Slic3r::ToolOrdering::assign_custom_gcodes Pages: 1 -->
<svg width="696pt" height="216pt"
 viewBox="0.00 0.00 695.50 216.20" xmlns="http://www.w3.org/2000/svg" xmlns:xlink="http://www.w3.org/1999/xlink">
<g id="graph0" class="graph" transform="scale(1 1) rotate(0) translate(4 212.2)">
<title>Slic3r::ToolOrdering::assign_custom_gcodes</title>
<!-- Node1 -->
<g id="Node000001" class="node">
<title>Node1</title>
<g id="a_Node000001"><a xlink:title=" ">
<polygon fill="#999999" stroke="#666666" points="124.75,-154.83 0,-154.83 0,-124.33 124.75,-124.33 124.75,-154.83"/>
<text text-anchor="start" x="8" y="-141.33" font-family="Helvetica,sans-Serif" font-size="10.00">Slic3r::ToolOrdering</text>
<text text-anchor="middle" x="62.38" y="-130.08" font-family="Helvetica,sans-Serif" font-size="10.00">::assign_custom_gcodes</text>
</a>
</g>
</g>
<!-- Node2 -->
<g id="Node000002" class="node">
<title>Node2</title>
<g id="a_Node000002"><a xlink:href="../../d5/d8f/class_slic3r_1_1_print.html#af1937a680d19c7dd8d3c24e5ff7332b8" target="_top" xlink:title=" ">
<polygon fill="white" stroke="#666666" points="547.75,-208.2 448.5,-208.2 448.5,-188.95 547.75,-188.95 547.75,-208.2"/>
<text text-anchor="middle" x="498.12" y="-194.7" font-family="Helvetica,sans-Serif" font-size="10.00">Slic3r::Print::config</text>
</a>
</g>
</g>
<!-- Node1&#45;&gt;Node2 -->
<g id="edge1_Node000001_Node000002" class="edge">
<title>Node1&#45;&gt;Node2</title>
<g id="a_edge1_Node000001_Node000002"><a xlink:title=" ">
<path fill="none" stroke="#63b8ff" d="M121.54,-155.3C134.38,-158.38 147.97,-161.35 160.75,-163.58 256.77,-180.32 369.71,-190.07 437.24,-194.85"/>
<polygon fill="#63b8ff" stroke="#63b8ff" points="436.87,-198.4 447.09,-195.6 437.36,-191.42 436.87,-198.4"/>
</a>
</g>
</g>
<!-- Node3 -->
<g id="Node000003" class="node">
<title>Node3</title>
<g id="a_Node000003"><a xlink:href="../../dc/d88/class_slic3r_1_1_print_base.html#a6b8372113661f05a8d16d1420c529ac0" target="_top" xlink:title=" ">
<polygon fill="white" stroke="#666666" points="258.12,-154.83 162.62,-154.83 162.62,-124.33 258.12,-124.33 258.12,-154.83"/>
<text text-anchor="start" x="170.62" y="-141.33" font-family="Helvetica,sans-Serif" font-size="10.00">Slic3r::PrintBase::</text>
<text text-anchor="middle" x="210.38" y="-130.08" font-family="Helvetica,sans-Serif" font-size="10.00">model</text>
</a>
</g>
</g>
<!-- Node1&#45;&gt;Node3 -->
<g id="edge2_Node000001_Node000003" class="edge">
<title>Node1&#45;&gt;Node3</title>
<g id="a_edge2_Node000001_Node000003"><a xlink:title=" ">
<path fill="none" stroke="#63b8ff" d="M124.87,-139.58C133.64,-139.58 142.63,-139.58 151.33,-139.58"/>
<polygon fill="#63b8ff" stroke="#63b8ff" points="151.15,-143.08 161.15,-139.58 151.15,-136.08 151.15,-143.08"/>
</a>
</g>
</g>
<!-- Node4 -->
<g id="Node000004" class="node">
<title>Node4</title>
<g id="a_Node000004"><a xlink:href="../../d5/d8f/class_slic3r_1_1_print.html#af3ae1239b266a4bc61364ea58e003de2" target="_top" xlink:title=" ">
<polygon fill="white" stroke="#666666" points="260,-89.83 160.75,-89.83 160.75,-59.33 260,-59.33 260,-89.83"/>
<text text-anchor="start" x="168.75" y="-76.33" font-family="Helvetica,sans-Serif" font-size="10.00">Slic3r::Print::object</text>
<text text-anchor="middle" x="210.38" y="-65.08" font-family="Helvetica,sans-Serif" font-size="10.00">_extruders</text>
</a>
</g>
</g>
<!-- Node1&#45;&gt;Node4 -->
<g id="edge3_Node000001_Node000004" class="edge">
<title>Node1&#45;&gt;Node4</title>
<g id="a_edge3_Node000001_Node000004"><a xlink:title=" ">
<path fill="none" stroke="#63b8ff" d="M98.72,-123.84C118.37,-115.09 143.04,-104.11 164.1,-94.73"/>
<polygon fill="#63b8ff" stroke="#63b8ff" points="165.39,-97.54 173.11,-90.28 162.55,-91.15 165.39,-97.54"/>
</a>
</g>
</g>
<!-- Node5 -->
<g id="Node000005" class="node">
<title>Node5</title>
<g id="a_Node000005"><a xlink:href="../../d5/d8f/class_slic3r_1_1_print.html#af5775742bba5a468c5393124410ccf65" target="_top" xlink:title=" ">
<polygon fill="white" stroke="#666666" points="409.5,-84.2 296,-84.2 296,-64.95 409.5,-64.95 409.5,-84.2"/>
<text text-anchor="middle" x="352.75" y="-70.7" font-family="Helvetica,sans-Serif" font-size="10.00">Slic3r::Print::extruders</text>
</a>
</g>
</g>
<!-- Node4&#45;&gt;Node5 -->
<g id="edge4_Node000004_Node000005" class="edge">
<title>Node4&#45;&gt;Node5</title>
<g id="a_edge4_Node000004_Node000005"><a xlink:title=" ">
<path fill="none" stroke="#63b8ff" d="M260.47,-68.1C268.39,-67.89 276.7,-67.8 284.95,-67.83"/>
<polygon fill="#63b8ff" stroke="#63b8ff" points="284.68,-71.34 294.72,-67.95 284.75,-64.34 284.68,-71.34"/>
</a>
</g>
</g>
<!-- Node8 -->
<g id="Node000008" class="node">
<title>Node8</title>
<g id="a_Node000008"><a xlink:href="../../de/db8/namespace_slic3r.html#aa3af3ee03fdd2fbda072bbea6de1f8fc" target="_top" xlink:title=" ">
<polygon fill="white" stroke="#666666" points="687.5,-46.83 586.75,-46.83 586.75,-16.33 687.5,-16.33 687.5,-46.83"/>
<text text-anchor="start" x="594.75" y="-33.33" font-family="Helvetica,sans-Serif" font-size="10.00">Slic3r::sort_remove</text>
<text text-anchor="middle" x="637.12" y="-22.08" font-family="Helvetica,sans-Serif" font-size="10.00">_duplicates</text>
</a>
</g>
</g>
<!-- Node4&#45;&gt;Node8 -->
<g id="edge16_Node000004_Node000008" class="edge">
<title>Node4&#45;&gt;Node8</title>
<g id="a_edge16_Node000004_Node000008"><a xlink:title=" ">
<path fill="none" stroke="#63b8ff" d="M241.66,-58.93C257.5,-51.27 277.42,-42.46 296,-36.58 404.63,-2.16 437.86,7.99 550.75,-7.58 559.95,-8.84 569.55,-10.85 578.86,-13.17"/>
<polygon fill="#63b8ff" stroke="#63b8ff" points="577.64,-16.73 588.2,-15.9 579.42,-9.96 577.64,-16.73"/>
</a>
</g>
</g>
<!-- Node5&#45;&gt;Node2 -->
<g id="edge6_Node000005_Node000002" class="edge">
<title>Node5&#45;&gt;Node2</title>
<g id="a_edge6_Node000005_Node000002"><a xlink:title=" ">
<path fill="none" stroke="#63b8ff" d="M360.8,-84.58C374.94,-104.07 408.61,-147.58 445.5,-174.58 450.19,-178 455.44,-181.12 460.75,-183.89"/>
<polygon fill="#63b8ff" stroke="#63b8ff" points="458.75,-187.3 469.28,-188.5 461.8,-180.99 458.75,-187.3"/>
</a>
</g>
</g>
<!-- Node5&#45;&gt;Node4 -->
<g id="edge9_Node000005_Node000004" class="edge">
<title>Node5&#45;&gt;Node4</title>
<g id="a_edge9_Node000005_Node000004"><a xlink:title=" ">
<path fill="none" stroke="#63b8ff" d="M295.72,-81.2C287.7,-81.34 279.43,-81.36 271.34,-81.26"/>
<polygon fill="#63b8ff" stroke="#63b8ff" points="271.54,-77.74 261.47,-81.05 271.4,-84.74 271.54,-77.74"/>
</a>
</g>
</g>
<!-- Node5&#45;&gt;Node5 -->
<g id="edge7_Node000005_Node000005" class="edge">
<title>Node5&#45;&gt;Node5</title>
<g id="a_edge7_Node000005_Node000005"><a xlink:title=" ">
<path fill="none" stroke="#63b8ff" d="M330.46,-84.49C320.29,-93.1 327.72,-102.2 352.75,-102.2 367.61,-102.2 376.27,-98.99 378.72,-94.58"/>
<polygon fill="#63b8ff" stroke="#63b8ff" points="381.75,-93.68 375.04,-85.49 375.18,-96.08 381.75,-93.68"/>
</a>
</g>
</g>
<!-- Node6 -->
<g id="Node000006" class="node">
<title>Node6</title>
<g id="a_Node000006"><a xlink:href="../../de/db8/namespace_slic3r.html#ad61bb7f1e4b8aaa434964420b9bedf32" target="_top" xlink:title=" ">
<polygon fill="white" stroke="#666666" points="676.25,-127.2 598,-127.2 598,-107.95 676.25,-107.95 676.25,-127.2"/>
<text text-anchor="middle" x="637.12" y="-113.7" font-family="Helvetica,sans-Serif" font-size="10.00">Slic3r::append</text>
</a>
</g>
</g>
<!-- Node5&#45;&gt;Node6 -->
<g id="edge5_Node000005_Node000006" class="edge">
<title>Node5&#45;&gt;Node6</title>
<g id="a_edge5_Node000005_Node000006"><a xlink:title=" ">
<path fill="none" stroke="#63b8ff" d="M363,-84.57C378.34,-100.31 410.81,-130.26 445.5,-141.58 497.53,-158.55 561.17,-143.91 600.16,-131.2"/>
<polygon fill="#63b8ff" stroke="#63b8ff" points="601.14,-134.23 609.48,-127.7 598.89,-127.6 601.14,-134.23"/>
</a>
</g>
</g>
<!-- Node7 -->
<g id="Node000007" class="node">
<title>Node7</title>
<g id="a_Node000007"><a xlink:href="../../d5/d8f/class_slic3r_1_1_print.html#aa9620b5d615e9622b6b9533652e947b1" target="_top" xlink:title=" ">
<polygon fill="white" stroke="#666666" points="542.5,-132.83 453.75,-132.83 453.75,-102.33 542.5,-102.33 542.5,-132.83"/>
<text text-anchor="start" x="461.75" y="-119.33" font-family="Helvetica,sans-Serif" font-size="10.00">Slic3r::Print::has</text>
<text text-anchor="middle" x="498.12" y="-108.08" font-family="Helvetica,sans-Serif" font-size="10.00">_wipe_tower</text>
</a>
</g>
</g>
<!-- Node5&#45;&gt;Node7 -->
<g id="edge8_Node000005_Node000007" class="edge">
<title>Node5&#45;&gt;Node7</title>
<g id="a_edge8_Node000005_Node000007"><a xlink:title=" ">
<path fill="none" stroke="#63b8ff" d="M387.37,-84.66C403.91,-89.62 424.26,-95.72 442.93,-101.32"/>
<polygon fill="#63b8ff" stroke="#63b8ff" points="441.81,-104.94 452.39,-104.46 443.82,-98.23 441.81,-104.94"/>
</a>
</g>
</g>
<!-- Node5&#45;&gt;Node8 -->
<g id="edge10_Node000005_Node000008" class="edge">
<title>Node5&#45;&gt;Node8</title>
<g id="a_edge10_Node000005_Node000008"><a xlink:title=" ">
<path fill="none" stroke="#63b8ff" d="M409.74,-71.83C449.37,-69.25 503.64,-64.4 550.75,-55.58 558.94,-54.04 567.49,-52.08 575.87,-49.95"/>
<polygon fill="#63b8ff" stroke="#63b8ff" points="576.6,-53.11 585.37,-47.17 574.8,-46.35 576.6,-53.11"/>
</a>
</g>
</g>
<!-- Node9 -->
<g id="Node000009" class="node">
<title>Node9</title>
<g id="a_Node000009"><a xlink:href="../../d5/d8f/class_slic3r_1_1_print.html#a72952aa09a29f1e82b6d0851a0c2894c" target="_top" xlink:title=" ">
<polygon fill="white" stroke="#666666" points="550.75,-46.83 445.5,-46.83 445.5,-16.33 550.75,-16.33 550.75,-46.83"/>
<text text-anchor="start" x="453.5" y="-33.33" font-family="Helvetica,sans-Serif" font-size="10.00">Slic3r::Print::support</text>
<text text-anchor="middle" x="498.12" y="-22.08" font-family="Helvetica,sans-Serif" font-size="10.00">_material_extruders</text>
</a>
</g>
</g>
<!-- Node5&#45;&gt;Node9 -->
<g id="edge11_Node000005_Node000009" class="edge">
<title>Node5&#45;&gt;Node9</title>
<g id="a_edge11_Node000005_Node000009"><a xlink:title=" ">
<path fill="none" stroke="#63b8ff" d="M371.91,-64.46C387.85,-58.07 412,-50.15 434.86,-43.55"/>
<polygon fill="#63b8ff" stroke="#63b8ff" points="435.56,-46.71 444.23,-40.62 433.66,-39.97 435.56,-46.71"/>
</a>
</g>
</g>
<!-- Node9&#45;&gt;Node4 -->
<g id="edge14_Node000009_Node000004" class="edge">
<title>Node9&#45;&gt;Node4</title>
<g id="a_edge14_Node000009_Node000004"><a xlink:title=" ">
<path fill="none" stroke="#63b8ff" d="M445.24,-36.3C404.5,-40.36 346.43,-46.93 296,-55.58 287.86,-56.97 279.32,-58.64 270.94,-60.4"/>
<polygon fill="#63b8ff" stroke="#63b8ff" points="270.47,-57.14 261.43,-62.67 271.94,-63.98 270.47,-57.14"/>
</a>
</g>
</g>
<!-- Node9&#45;&gt;Node5 -->
<g id="edge13_Node000009_Node000005" class="edge">
<title>Node9&#45;&gt;Node5</title>
<g id="a_edge13_Node000009_Node000005"><a xlink:title=" ">
<path fill="none" stroke="#63b8ff" d="M464.22,-47.22C450.85,-51.98 434.89,-57.08 419.33,-61.64"/>
<polygon fill="#63b8ff" stroke="#63b8ff" points="418.83,-58.42 410.18,-64.54 420.76,-65.15 418.83,-58.42"/>
</a>
</g>
</g>
<!-- Node9&#45;&gt;Node6 -->
<g id="edge12_Node000009_Node000006" class="edge">
<title>Node9&#45;&gt;Node6</title>
<g id="a_edge12_Node000009_Node000006"><a xlink:title=" ">
<path fill="none" stroke="#63b8ff" d="M523.93,-47.15C548.58,-62.62 586.17,-86.21 610.94,-101.76"/>
<polygon fill="#63b8ff" stroke="#63b8ff" points="608.74,-105.14 619.07,-107.49 612.46,-99.21 608.74,-105.14"/>
</a>
</g>
</g>
<!-- Node9&#45;&gt;Node8 -->
<g id="edge15_Node000009_Node000008" class="edge">
<title>Node9&#45;&gt;Node8</title>
<g id="a_edge15_Node000009_Node000008"><a xlink:title=" ">
<path fill="none" stroke="#63b8ff" d="M550.92,-31.58C559.03,-31.58 567.48,-31.58 575.76,-31.58"/>
<polygon fill="#63b8ff" stroke="#63b8ff" points="575.52,-35.08 585.52,-31.58 575.52,-28.08 575.52,-35.08"/>
</a>
</g>
</g>
</g>
</svg>
