<?xml version="1.0" encoding="UTF-8" standalone="no"?>
<!DOCTYPE svg PUBLIC "-//W3C//DTD SVG 1.1//EN"
 "http://www.w3.org/Graphics/SVG/1.1/DTD/svg11.dtd">
<!-- Generated by graphviz version 8.0.5 (20230430.1635)
 -->
<!-- Title: libnest2d::shapelike::area Pages: 1 -->
<svg width="435pt" height="305pt"
 viewBox="0.00 0.00 434.75 305.12" xmlns="http://www.w3.org/2000/svg" xmlns:xlink="http://www.w3.org/1999/xlink">
<g id="graph0" class="graph" transform="scale(1 1) rotate(0) translate(4 301.12)">
<title>libnest2d::shapelike::area</title>
<!-- Node1 -->
<g id="Node000001" class="node">
<title>Node1</title>
<g id="a_Node000001"><a xlink:title=" ">
<polygon fill="#999999" stroke="#666666" points="426.75,-177.12 324.5,-177.12 324.5,-146.62 426.75,-146.62 426.75,-177.12"/>
<text text-anchor="start" x="332.5" y="-163.62" font-family="Helvetica,sans-Serif" font-size="10.00">libnest2d::shapelike</text>
<text text-anchor="middle" x="375.62" y="-152.38" font-family="Helvetica,sans-Serif" font-size="10.00">::area</text>
</a>
</g>
</g>
<!-- Node2 -->
<g id="Node000002" class="node">
<title>Node2</title>
<g id="a_Node000002"><a xlink:href="../../d0/d79/classlibnest2d_1_1___item.html#ae7ea32559da33a319df18f55b713d256" target="_top" xlink:title="Calculate the shape area.">
<polygon fill="white" stroke="#666666" points="288.5,-193.5 178,-193.5 178,-174.25 288.5,-174.25 288.5,-193.5"/>
<text text-anchor="middle" x="233.25" y="-180" font-family="Helvetica,sans-Serif" font-size="10.00">libnest2d::_Item::area</text>
</a>
</g>
</g>
<!-- Node1&#45;&gt;Node2 -->
<g id="edge1_Node000001_Node000002" class="edge">
<title>Node1&#45;&gt;Node2</title>
<g id="a_edge1_Node000001_Node000002"><a xlink:title=" ">
<path fill="none" stroke="#63b8ff" d="M313.67,-171.43C305.44,-172.72 297.04,-174.03 288.94,-175.3"/>
<polygon fill="#63b8ff" stroke="#63b8ff" points="314.01,-174.76 323.34,-169.76 312.92,-167.85 314.01,-174.76"/>
</a>
</g>
</g>
<!-- Node5 -->
<g id="Node000005" class="node">
<title>Node5</title>
<g id="a_Node000005"><a xlink:href="../../db/d12/classlibnest2d_1_1selections_1_1___d_j_d_heuristic.html#a4a57406b7f3af24c8e26bcc97f402987" target="_top" xlink:title=" ">
<polygon fill="white" stroke="#666666" points="140.12,-297.12 1.88,-297.12 1.88,-266.62 140.12,-266.62 140.12,-297.12"/>
<text text-anchor="start" x="9.88" y="-283.62" font-family="Helvetica,sans-Serif" font-size="10.00">libnest2d::selections</text>
<text text-anchor="middle" x="71" y="-272.38" font-family="Helvetica,sans-Serif" font-size="10.00">::_DJDHeuristic::packItems</text>
</a>
</g>
</g>
<!-- Node1&#45;&gt;Node5 -->
<g id="edge10_Node000001_Node000005" class="edge">
<title>Node1&#45;&gt;Node5</title>
<g id="a_edge10_Node000001_Node000005"><a xlink:title=" ">
<path fill="none" stroke="#63b8ff" d="M333.93,-182.18C319.69,-189.04 303.5,-196.55 288.5,-202.88 224.55,-229.82 207.23,-233.2 142,-256.88 133.63,-259.91 124.69,-263.13 116.09,-266.21"/>
<polygon fill="#63b8ff" stroke="#63b8ff" points="334.97,-185.08 342.44,-177.56 331.91,-178.79 334.97,-185.08"/>
</a>
</g>
</g>
<!-- Node9 -->
<g id="Node000009" class="node">
<title>Node9</title>
<g id="a_Node000009"><a xlink:href="../../dd/d66/namespacelibnest2d_1_1shapelike.html#ab1291018366f241c287a3f00f4b03040" target="_top" xlink:title=" ">
<polygon fill="white" stroke="#666666" points="284.38,-156.12 182.12,-156.12 182.12,-125.62 284.38,-125.62 284.38,-156.12"/>
<text text-anchor="start" x="190.12" y="-142.62" font-family="Helvetica,sans-Serif" font-size="10.00">libnest2d::shapelike</text>
<text text-anchor="middle" x="233.25" y="-131.38" font-family="Helvetica,sans-Serif" font-size="10.00">::area</text>
</a>
</g>
</g>
<!-- Node1&#45;&gt;Node9 -->
<g id="edge8_Node000001_Node000009" class="edge">
<title>Node1&#45;&gt;Node9</title>
<g id="a_edge8_Node000001_Node000009"><a xlink:title=" ">
<path fill="none" stroke="#63b8ff" d="M313.58,-152.74C303.92,-151.3 294.03,-149.82 284.65,-148.42"/>
<polygon fill="#63b8ff" stroke="#63b8ff" points="312.94,-156.33 323.34,-154.35 313.97,-149.41 312.94,-156.33"/>
</a>
</g>
</g>
<!-- Node10 -->
<g id="Node000010" class="node">
<title>Node10</title>
<g id="a_Node000010"><a xlink:href="../../dd/d66/namespacelibnest2d_1_1shapelike.html#a727587cc733b74e97648d9e6b733d9e2" target="_top" xlink:title=" ">
<polygon fill="white" stroke="#666666" points="284.38,-107.12 182.12,-107.12 182.12,-76.62 284.38,-76.62 284.38,-107.12"/>
<text text-anchor="start" x="190.12" y="-93.62" font-family="Helvetica,sans-Serif" font-size="10.00">libnest2d::shapelike</text>
<text text-anchor="middle" x="233.25" y="-82.38" font-family="Helvetica,sans-Serif" font-size="10.00">::area</text>
</a>
</g>
</g>
<!-- Node1&#45;&gt;Node10 -->
<g id="edge9_Node000001_Node000010" class="edge">
<title>Node1&#45;&gt;Node10</title>
<g id="a_edge9_Node000001_Node000010"><a xlink:title=" ">
<path fill="none" stroke="#63b8ff" d="M336.32,-141.34C321.47,-133.52 304.27,-124.62 288.5,-116.88 282.26,-113.81 275.58,-110.64 269.1,-107.62"/>
<polygon fill="#63b8ff" stroke="#63b8ff" points="334.23,-144.72 344.71,-146.31 337.5,-138.54 334.23,-144.72"/>
</a>
</g>
</g>
<!-- Node3 -->
<g id="Node000003" class="node">
<title>Node3</title>
<g id="a_Node000003"><a xlink:href="../../d8/dca/class_slic3r_1_1arrangement_1_1_auto_arranger.html#ad42d4c77c4d581ae08d6a54f57e10646" target="_top" xlink:title=" ">
<polygon fill="white" stroke="#666666" points="142,-248.12 0,-248.12 0,-217.62 142,-217.62 142,-248.12"/>
<text text-anchor="start" x="8" y="-234.62" font-family="Helvetica,sans-Serif" font-size="10.00">Slic3r::arrangement</text>
<text text-anchor="middle" x="71" y="-223.38" font-family="Helvetica,sans-Serif" font-size="10.00">::AutoArranger::AutoArranger</text>
</a>
</g>
</g>
<!-- Node2&#45;&gt;Node3 -->
<g id="edge2_Node000002_Node000003" class="edge">
<title>Node2&#45;&gt;Node3</title>
<g id="a_edge2_Node000002_Node000003"><a xlink:title=" ">
<path fill="none" stroke="#63b8ff" d="M188.96,-197.11C168.75,-203.29 144.53,-210.7 123.39,-217.16"/>
<polygon fill="#63b8ff" stroke="#63b8ff" points="189.89,-200.18 198.43,-193.91 187.85,-193.49 189.89,-200.18"/>
</a>
</g>
</g>
<!-- Node4 -->
<g id="Node000004" class="node">
<title>Node4</title>
<g id="a_Node000004"><a xlink:href="../../d8/dca/class_slic3r_1_1arrangement_1_1_auto_arranger.html#a3d78242357fd9f92f576bbdda396566e" target="_top" xlink:title=" ">
<polygon fill="white" stroke="#666666" points="129.25,-199.12 12.75,-199.12 12.75,-168.62 129.25,-168.62 129.25,-199.12"/>
<text text-anchor="start" x="20.75" y="-185.62" font-family="Helvetica,sans-Serif" font-size="10.00">Slic3r::arrangement</text>
<text text-anchor="middle" x="71" y="-174.38" font-family="Helvetica,sans-Serif" font-size="10.00">::AutoArranger::objfunc</text>
</a>
</g>
</g>
<!-- Node2&#45;&gt;Node4 -->
<g id="edge3_Node000002_Node000004" class="edge">
<title>Node2&#45;&gt;Node4</title>
<g id="a_edge3_Node000002_Node000004"><a xlink:title=" ">
<path fill="none" stroke="#63b8ff" d="M166.89,-183.88C154.58,-183.88 141.79,-183.88 129.74,-183.88"/>
<polygon fill="#63b8ff" stroke="#63b8ff" points="166.55,-187.38 176.55,-183.88 166.55,-180.38 166.55,-187.38"/>
</a>
</g>
</g>
<!-- Node2&#45;&gt;Node5 -->
<g id="edge4_Node000002_Node000005" class="edge">
<title>Node2&#45;&gt;Node5</title>
<g id="a_edge4_Node000002_Node000005"><a xlink:title=" ">
<path fill="none" stroke="#63b8ff" d="M214.66,-201.15C197.38,-217.36 169.64,-241.36 142,-256.88 135.81,-260.35 129.05,-263.49 122.25,-266.27"/>
<polygon fill="#63b8ff" stroke="#63b8ff" points="216.45,-204.33 221.26,-194.89 211.61,-199.27 216.45,-204.33"/>
</a>
</g>
</g>
<!-- Node6 -->
<g id="Node000006" class="node">
<title>Node6</title>
<g id="a_Node000006"><a xlink:href="../../df/de0/classlibnest2d_1_1selections_1_1___filler_selection.html#ae754b99ecf3fc6bf7ef059bb248b3928" target="_top" xlink:title=" ">
<polygon fill="white" stroke="#666666" points="141.25,-150.12 0.75,-150.12 0.75,-119.62 141.25,-119.62 141.25,-150.12"/>
<text text-anchor="start" x="8.75" y="-136.62" font-family="Helvetica,sans-Serif" font-size="10.00">libnest2d::selections</text>
<text text-anchor="middle" x="71" y="-125.38" font-family="Helvetica,sans-Serif" font-size="10.00">::_FillerSelection::packItems</text>
</a>
</g>
</g>
<!-- Node2&#45;&gt;Node6 -->
<g id="edge5_Node000002_Node000006" class="edge">
<title>Node2&#45;&gt;Node6</title>
<g id="a_edge5_Node000002_Node000006"><a xlink:title=" ">
<path fill="none" stroke="#63b8ff" d="M188.96,-170.64C168.75,-164.46 144.53,-157.05 123.39,-150.59"/>
<polygon fill="#63b8ff" stroke="#63b8ff" points="187.85,-174.26 198.43,-173.84 189.89,-167.57 187.85,-174.26"/>
</a>
</g>
</g>
<!-- Node7 -->
<g id="Node000007" class="node">
<title>Node7</title>
<g id="a_Node000007"><a xlink:href="../../d1/d3d/classlibnest2d_1_1selections_1_1___first_fit_selection.html#a591d007e4752fc822f01b3e9b6de4b04" target="_top" xlink:title=" ">
<polygon fill="white" stroke="#666666" points="123.62,-101.75 18.38,-101.75 18.38,-60 123.62,-60 123.62,-101.75"/>
<text text-anchor="start" x="26.38" y="-88.25" font-family="Helvetica,sans-Serif" font-size="10.00">libnest2d::selections</text>
<text text-anchor="start" x="26.38" y="-77" font-family="Helvetica,sans-Serif" font-size="10.00">::_FirstFitSelection</text>
<text text-anchor="middle" x="71" y="-65.75" font-family="Helvetica,sans-Serif" font-size="10.00">::packItems</text>
</a>
</g>
</g>
<!-- Node2&#45;&gt;Node7 -->
<g id="edge6_Node000002_Node000007" class="edge">
<title>Node2&#45;&gt;Node7</title>
<g id="a_edge6_Node000002_Node000007"><a xlink:title=" ">
<path fill="none" stroke="#63b8ff" d="M184,-168.96C181.9,-167.7 179.89,-166.34 178,-164.88 155.21,-147.19 164.18,-129.32 142,-110.88 136.61,-106.39 130.46,-102.48 124.08,-99.1"/>
<polygon fill="#63b8ff" stroke="#63b8ff" points="182.08,-172.42 192.58,-173.85 185.26,-166.19 182.08,-172.42"/>
</a>
</g>
</g>
<!-- Node8 -->
<g id="Node000008" class="node">
<title>Node8</title>
<g id="a_Node000008"><a xlink:href="../../d8/db8/classlibnest2d_1_1selections_1_1_selection_boilerplate.html#a7574f6988d831a7816c9f8b91de86a4d" target="_top" xlink:title=" ">
<polygon fill="white" stroke="#666666" points="140.12,-41.75 1.88,-41.75 1.88,0 140.12,0 140.12,-41.75"/>
<text text-anchor="start" x="9.88" y="-28.25" font-family="Helvetica,sans-Serif" font-size="10.00">libnest2d::selections</text>
<text text-anchor="start" x="9.88" y="-17" font-family="Helvetica,sans-Serif" font-size="10.00">::SelectionBoilerplate</text>
<text text-anchor="middle" x="71" y="-5.75" font-family="Helvetica,sans-Serif" font-size="10.00">::remove_unpackable_items</text>
</a>
</g>
</g>
<!-- Node2&#45;&gt;Node8 -->
<g id="edge7_Node000002_Node000008" class="edge">
<title>Node2&#45;&gt;Node8</title>
<g id="a_edge7_Node000002_Node000008"><a xlink:title=" ">
<path fill="none" stroke="#63b8ff" d="M181.53,-168.1C180.29,-167.09 179.11,-166.02 178,-164.88 141.02,-126.73 177.67,-90.26 142,-50.88 139.07,-47.64 135.73,-44.74 132.14,-42.15"/>
<polygon fill="#63b8ff" stroke="#63b8ff" points="179.12,-171.36 189.42,-173.87 182.93,-165.49 179.12,-171.36"/>
</a>
</g>
</g>
</g>
</svg>
