<?xml version="1.0" encoding="UTF-8" standalone="no"?>
<!DOCTYPE svg PUBLIC "-//W3C//DTD SVG 1.1//EN"
 "http://www.w3.org/Graphics/SVG/1.1/DTD/svg11.dtd">
<!-- Generated by graphviz version 8.0.5 (20230430.1635)
 -->
<!-- Title: Slic3r::GUI::GLGizmoSlaBase::is_input_enabled Pages: 1 -->
<svg width="358pt" height="186pt"
 viewBox="0.00 0.00 358.00 185.50" xmlns="http://www.w3.org/2000/svg" xmlns:xlink="http://www.w3.org/1999/xlink">

<svg id="main" version="1.1" xmlns="http://www.w3.org/2000/svg" xmlns:xlink="http://www.w3.org/1999/xlink" xml:space="preserve" onload="init(evt)">
<style type="text/css"><![CDATA[
.node, .edge {opacity: 0.7;}
.node.selected, .edge.selected {opacity: 1;}
.edge:hover path { stroke: red; }
.edge:hover polygon { stroke: red; fill: red; }
]]></style>
<script type="application/ecmascript" xlink:href="../../svg.min.js"/>
<svg id="graph" class="graph">
<g id="graph0" class="graph" transform="scale(1 1) rotate(0) translate(4 181.5)">
<title>Slic3r::GUI::GLGizmoSlaBase::is_input_enabled</title>
<!-- Node1 -->
<g id="Node000001" class="node">
<title>Node1</title>
<g id="a_Node000001"><a xlink:title=" ">
<polygon fill="#999999" stroke="#666666" points="350,-103.5 201.25,-103.5 201.25,-73 350,-73 350,-103.5"/>
<text text-anchor="start" x="209.25" y="-90" font-family="Helvetica,sans-Serif" font-size="10.00">Slic3r::GUI::GLGizmoSlaBase</text>
<text text-anchor="middle" x="275.62" y="-78.75" font-family="Helvetica,sans-Serif" font-size="10.00">::is_input_enabled</text>
</a>
</g>
</g>
<!-- Node2 -->
<g id="Node000002" class="node">
<title>Node2</title>
<g id="a_Node000002"><a xlink:href="../../da/d2c/class_slic3r_1_1_g_u_i_1_1_g_l_gizmo_hollow.html#ae39e7b568ef6b08c288538eabc13e708" target="_top" xlink:title="Postpone to Grabber for move Detect move of object by dragging.">
<polygon fill="white" stroke="#666666" points="153.62,-177.5 11.62,-177.5 11.62,-147 153.62,-147 153.62,-177.5"/>
<text text-anchor="start" x="19.62" y="-164" font-family="Helvetica,sans-Serif" font-size="10.00">Slic3r::GUI::GLGizmoHollow</text>
<text text-anchor="middle" x="82.62" y="-152.75" font-family="Helvetica,sans-Serif" font-size="10.00">::on_mouse</text>
</a>
</g>
</g>
<!-- Node1&#45;&gt;Node2 -->
<g id="edge1_Node000001_Node000002" class="edge">
<title>Node1&#45;&gt;Node2</title>
<g id="a_edge1_Node000001_Node000002"><a xlink:title=" ">
<path fill="none" stroke="#63b8ff" d="M232.72,-108.49C212.57,-117.84 187.91,-128.74 165.25,-137.25 156.65,-140.48 147.42,-143.61 138.39,-146.5"/>
<polygon fill="#63b8ff" stroke="#63b8ff" points="233.95,-111.31 241.52,-103.9 230.98,-104.97 233.95,-111.31"/>
</a>
</g>
</g>
<!-- Node3 -->
<g id="Node000003" class="node">
<title>Node3</title>
<g id="a_Node000003"><a xlink:href="../../d9/d0e/class_slic3r_1_1_g_u_i_1_1_g_l_gizmo_sla_supports.html#a656338e2e62ab9c80c946e736ce8791c" target="_top" xlink:title="Process mouse event.">
<polygon fill="white" stroke="#666666" points="165.25,-128.5 0,-128.5 0,-98 165.25,-98 165.25,-128.5"/>
<text text-anchor="start" x="8" y="-115" font-family="Helvetica,sans-Serif" font-size="10.00">Slic3r::GUI::GLGizmoSlaSupports</text>
<text text-anchor="middle" x="82.62" y="-103.75" font-family="Helvetica,sans-Serif" font-size="10.00">::on_mouse</text>
</a>
</g>
</g>
<!-- Node1&#45;&gt;Node3 -->
<g id="edge2_Node000001_Node000003" class="edge">
<title>Node1&#45;&gt;Node3</title>
<g id="a_edge2_Node000001_Node000003"><a xlink:title=" ">
<path fill="none" stroke="#63b8ff" d="M190.12,-99.31C181.95,-100.38 173.67,-101.46 165.52,-102.53"/>
<polygon fill="#63b8ff" stroke="#63b8ff" points="190.32,-102.68 199.78,-97.92 189.41,-95.74 190.32,-102.68"/>
</a>
</g>
</g>
<!-- Node4 -->
<g id="Node000004" class="node">
<title>Node4</title>
<g id="a_Node000004"><a xlink:href="../../da/d2c/class_slic3r_1_1_g_u_i_1_1_g_l_gizmo_hollow.html#ac1b0eb7160e2dc63c7ed1a23b4fe5ff7" target="_top" xlink:title=" ">
<polygon fill="white" stroke="#666666" points="153.62,-79.5 11.62,-79.5 11.62,-49 153.62,-49 153.62,-79.5"/>
<text text-anchor="start" x="19.62" y="-66" font-family="Helvetica,sans-Serif" font-size="10.00">Slic3r::GUI::GLGizmoHollow</text>
<text text-anchor="middle" x="82.62" y="-54.75" font-family="Helvetica,sans-Serif" font-size="10.00">::on_render_input_window</text>
</a>
</g>
</g>
<!-- Node1&#45;&gt;Node4 -->
<g id="edge3_Node000001_Node000004" class="edge">
<title>Node1&#45;&gt;Node4</title>
<g id="a_edge3_Node000001_Node000004"><a xlink:title=" ">
<path fill="none" stroke="#63b8ff" d="M190.19,-77.64C178.04,-76.11 165.66,-74.56 153.83,-73.07"/>
<polygon fill="#63b8ff" stroke="#63b8ff" points="189.42,-81.2 199.78,-78.97 190.29,-74.25 189.42,-81.2"/>
</a>
</g>
</g>
<!-- Node5 -->
<g id="Node000005" class="node">
<title>Node5</title>
<g id="a_Node000005"><a xlink:href="../../d9/d0e/class_slic3r_1_1_g_u_i_1_1_g_l_gizmo_sla_supports.html#aedcda66ba308cd66e3517521299bcb60" target="_top" xlink:title=" ">
<polygon fill="white" stroke="#666666" points="165.25,-30.5 0,-30.5 0,0 165.25,0 165.25,-30.5"/>
<text text-anchor="start" x="8" y="-17" font-family="Helvetica,sans-Serif" font-size="10.00">Slic3r::GUI::GLGizmoSlaSupports</text>
<text text-anchor="middle" x="82.62" y="-5.75" font-family="Helvetica,sans-Serif" font-size="10.00">::on_render_input_window</text>
</a>
</g>
</g>
<!-- Node1&#45;&gt;Node5 -->
<g id="edge4_Node000001_Node000005" class="edge">
<title>Node1&#45;&gt;Node5</title>
<g id="a_edge4_Node000001_Node000005"><a xlink:title=" ">
<path fill="none" stroke="#63b8ff" d="M231.79,-68.07C211.79,-59.01 187.54,-48.52 165.25,-40.25 156.5,-37 147.11,-33.84 137.93,-30.91"/>
<polygon fill="#63b8ff" stroke="#63b8ff" points="229.98,-71.55 240.53,-72.52 232.89,-65.18 229.98,-71.55"/>
</a>
</g>
</g>
</g>
</svg>
</svg>

<style type='text/css'>
<![CDATA[
[data-mouse-over-selected='false'] { opacity: 0.7; }
[data-mouse-over-selected='true']  { opacity: 1.0; }
]]>
</style>
<script type="application/ecmascript"><![CDATA[
document.addEventListener('DOMContentLoaded', (event) => {
  highlightEdges();
  highlightAdjacentNodes();
});
]]></script>
</svg>
