<?xml version="1.0" encoding="UTF-8" standalone="no"?>
<!DOCTYPE svg PUBLIC "-//W3C//DTD SVG 1.1//EN"
 "http://www.w3.org/Graphics/SVG/1.1/DTD/svg11.dtd">
<!-- Generated by graphviz version 8.0.5 (20230430.1635)
 -->
<!-- Title: Slic3r::PresetCollection::current_different_from_parent_options Pages: 1 -->
<!--zoomable 600 -->

<svg id="main" version="1.1" xmlns="http://www.w3.org/2000/svg" xmlns:xlink="http://www.w3.org/1999/xlink" xml:space="preserve" onload="init(evt)">
<style type="text/css"><![CDATA[
.node, .edge {opacity: 0.7;}
.node.selected, .edge.selected {opacity: 1;}
.edge:hover path { stroke: red; }
.edge:hover polygon { stroke: red; fill: red; }
]]></style>

<defs>
  <circle id="rim" cx="0" cy="0" r="7"/>
  <circle id="rim2" cx="0" cy="0" r="3.5"/>
  <g id="zoomPlus">
    <use xlink:href="#rim" fill="#404040"><set attributeName="fill" to="#808080" begin="zoomplus.mouseover" end="zoomplus.mouseout"/></use>
    <path d="M-4,0h8M0,-4v8" fill="none" stroke="white" stroke-width="1.5" pointer-events="none"/>
  </g>
  <g id="zoomMin">
    <use xlink:href="#rim" fill="#404040"><set attributeName="fill" to="#808080" begin="zoomminus.mouseover" end="zoomminus.mouseout"/></use>
    <path d="M-4,0h8" fill="none" stroke="white" stroke-width="1.5" pointer-events="none"/>
  </g>
  <g id="arrowUp" transform="translate(30 24)">
    <use xlink:href="#rim"/>
    <path pointer-events="none" fill="none" stroke="white" stroke-width="1.5" d="M0,-3.0v7 M-2.5,-0.5L0,-3.0L2.5,-0.5"/>
  </g>
  <g id="arrowRight" transform="rotate(90) translate(36 -43)">
    <use xlink:href="#rim"/>
    <path pointer-events="none" fill="none" stroke="white" stroke-width="1.5" d="M0,-3.0v7 M-2.5,-0.5L0,-3.0L2.5,-0.5"/>
  </g>
  <g id="arrowDown" transform="rotate(180) translate(-30 -48)">
    <use xlink:href="#rim"/>
    <path pointer-events="none" fill="none" stroke="white" stroke-width="1.5" d="M0,-3.0v7 M-2.5,-0.5L0,-3.0L2.5,-0.5"/>
  </g>
  <g id="arrowLeft" transform="rotate(270) translate(-36 17)">
    <use xlink:href="#rim"/>
    <path pointer-events="none" fill="none" stroke="white" stroke-width="1.5" d="M0,-3.0v7 M-2.5,-0.5L0,-3.0L2.5,-0.5"/>
  </g>
  <g id="resetDef">
    <use xlink:href="#rim2" fill="#404040"><set attributeName="fill" to="#808080" begin="reset.mouseover" end="reset.mouseout"/></use>
  </g>
</defs>
<script type="application/ecmascript">
var viewWidth = 1163;
var viewHeight = 600;
var sectionId = 'dynsection-7';
</script>
<script type="application/ecmascript" xlink:href="../../svg.min.js"/>
<svg id="graph" class="graph">
<g id="viewport">
<title>Slic3r::PresetCollection::current_different_from_parent_options</title>
<!-- Node1 -->
<g id="Node000001" class="node">
<title>Node1</title>
<g id="a_Node000001"><a xlink:title=" ">
<polygon fill="#999999" stroke="#666666" points="118.75,-420.54 0,-420.54 0,-378.79 118.75,-378.79 118.75,-420.54"/>
<text text-anchor="start" x="8" y="-407.04" font-family="Helvetica,sans-Serif" font-size="10.00">Slic3r::PresetCollection</text>
<text text-anchor="start" x="8" y="-395.79" font-family="Helvetica,sans-Serif" font-size="10.00">::current_different_from</text>
<text text-anchor="middle" x="59.38" y="-384.54" font-family="Helvetica,sans-Serif" font-size="10.00">_parent_options</text>
</a>
</g>
</g>
<!-- Node2 -->
<g id="Node000002" class="node">
<title>Node2</title>
<g id="a_Node000002"><a xlink:href="../../d9/d24/class_slic3r_1_1_preset_collection.html#a0bfb7500664c8bc2db79787dc63a49d2" target="_top" xlink:title=" ">
<polygon fill="white" stroke="#666666" points="285.12,-484.92 166.38,-484.92 166.38,-454.42 285.12,-454.42 285.12,-484.92"/>
<text text-anchor="start" x="174.38" y="-471.42" font-family="Helvetica,sans-Serif" font-size="10.00">Slic3r::PresetCollection</text>
<text text-anchor="middle" x="225.75" y="-460.17" font-family="Helvetica,sans-Serif" font-size="10.00">::dirty_options</text>
</a>
</g>
</g>
<!-- Node1&#45;&gt;Node2 -->
<g id="edge1_Node000001_Node000002" class="edge">
<title>Node1&#45;&gt;Node2</title>
<g id="a_edge1_Node000001_Node000002"><a xlink:title=" ">
<path fill="none" stroke="#63b8ff" d="M110.14,-420.86C131.66,-430.03 156.71,-440.69 177.89,-449.71"/>
<polygon fill="#63b8ff" stroke="#63b8ff" points="176.38,-453.3 186.95,-454 179.12,-446.86 176.38,-453.3"/>
</a>
</g>
</g>
<!-- Node19 -->
<g id="Node000019" class="node">
<title>Node19</title>
<g id="a_Node000019"><a xlink:href="../../d9/d24/class_slic3r_1_1_preset_collection.html#a749d8ca3a5db3c393c201a7df55eefbd" target="_top" xlink:title=" ">
<polygon fill="white" stroke="#666666" points="474.38,-414.92 355.62,-414.92 355.62,-384.42 474.38,-384.42 474.38,-414.92"/>
<text text-anchor="start" x="363.62" y="-401.42" font-family="Helvetica,sans-Serif" font-size="10.00">Slic3r::PresetCollection</text>
<text text-anchor="middle" x="415" y="-390.17" font-family="Helvetica,sans-Serif" font-size="10.00">::get_edited_preset</text>
</a>
</g>
</g>
<!-- Node1&#45;&gt;Node19 -->
<g id="edge21_Node000001_Node000019" class="edge">
<title>Node1&#45;&gt;Node19</title>
<g id="a_edge21_Node000001_Node000019"><a xlink:title=" ">
<path fill="none" stroke="#63b8ff" d="M119.17,-399.67C181.21,-399.67 278.94,-399.67 344.69,-399.67"/>
<polygon fill="#63b8ff" stroke="#63b8ff" points="344.36,-403.17 354.36,-399.67 344.36,-396.17 344.36,-403.17"/>
</a>
</g>
</g>
<!-- Node20 -->
<g id="Node000020" class="node">
<title>Node20</title>
<g id="a_Node000020"><a xlink:href="../../d9/d24/class_slic3r_1_1_preset_collection.html#abd545d5d2552e67168c9e5ea295bbd3a" target="_top" xlink:title=" ">
<polygon fill="white" stroke="#666666" points="296.75,-258.92 154.75,-258.92 154.75,-228.42 296.75,-228.42 296.75,-258.92"/>
<text text-anchor="start" x="162.75" y="-245.42" font-family="Helvetica,sans-Serif" font-size="10.00">Slic3r::PresetCollection</text>
<text text-anchor="middle" x="225.75" y="-234.17" font-family="Helvetica,sans-Serif" font-size="10.00">::get_selected_preset_parent</text>
</a>
</g>
</g>
<!-- Node1&#45;&gt;Node20 -->
<g id="edge22_Node000001_Node000020" class="edge">
<title>Node1&#45;&gt;Node20</title>
<g id="a_edge22_Node000001_Node000020"><a xlink:title=" ">
<path fill="none" stroke="#63b8ff" d="M82.89,-378.31C113.72,-349.04 168.86,-296.71 200.55,-266.63"/>
<polygon fill="#63b8ff" stroke="#63b8ff" points="202.61,-269.56 207.45,-260.14 197.79,-264.48 202.61,-269.56"/>
</a>
</g>
</g>
<!-- Node3 -->
<g id="Node000003" class="node">
<title>Node3</title>
<g id="a_Node000003"><a xlink:href="../../de/db8/namespace_slic3r.html#aedd8af740f7b57d03418c6e6cd99352b" target="_top" xlink:title=" ">
<polygon fill="white" stroke="#666666" points="647.88,-543.29 561.38,-543.29 561.38,-524.04 647.88,-524.04 647.88,-543.29"/>
<text text-anchor="middle" x="604.62" y="-529.79" font-family="Helvetica,sans-Serif" font-size="10.00">Slic3r::deep_diff</text>
</a>
</g>
</g>
<!-- Node2&#45;&gt;Node3 -->
<g id="edge2_Node000002_Node000003" class="edge">
<title>Node2&#45;&gt;Node3</title>
<g id="a_edge2_Node000002_Node000003"><a xlink:title=" ">
<path fill="none" stroke="#63b8ff" d="M259.87,-485.29C280.4,-494.26 307.56,-504.86 332.75,-510.67 406.96,-527.8 495.26,-532.47 550.38,-533.59"/>
<polygon fill="#63b8ff" stroke="#63b8ff" points="550.23,-537.1 560.29,-533.77 550.35,-530.1 550.23,-537.1"/>
</a>
</g>
</g>
<!-- Node12 -->
<g id="Node000012" class="node">
<title>Node12</title>
<g id="a_Node000012"><a xlink:href="../../d5/df0/class_slic3r_1_1_dynamic_config.html#a4e5634b322de584f63f8cf9c8a1c1853" target="_top" xlink:title=" ">
<polygon fill="white" stroke="#666666" points="472.12,-463.92 357.88,-463.92 357.88,-433.42 472.12,-433.42 472.12,-463.92"/>
<text text-anchor="start" x="365.88" y="-450.42" font-family="Helvetica,sans-Serif" font-size="10.00">Slic3r::DynamicConfig</text>
<text text-anchor="middle" x="415" y="-439.17" font-family="Helvetica,sans-Serif" font-size="10.00">::diff</text>
</a>
</g>
</g>
<!-- Node2&#45;&gt;Node12 -->
<g id="edge11_Node000002_Node000012" class="edge">
<title>Node2&#45;&gt;Node12</title>
<g id="a_edge11_Node000002_Node000012"><a xlink:title=" ">
<path fill="none" stroke="#63b8ff" d="M285.48,-463.08C304.85,-460.91 326.54,-458.48 346.51,-456.24"/>
<polygon fill="#63b8ff" stroke="#63b8ff" points="346.85,-459.61 356.4,-455.02 346.07,-452.65 346.85,-459.61"/>
</a>
</g>
</g>
<!-- Node17 -->
<g id="Node000017" class="node">
<title>Node17</title>
<g id="a_Node000017"><a xlink:href="../../d3/d98/class_slic3r_1_1_config_option_resolver.html#af3beeeec67d0ff2ac81b0af0e0e6f92d" target="_top" xlink:title=" ">
<polygon fill="white" stroke="#666666" points="497.25,-501.29 332.75,-501.29 332.75,-482.04 497.25,-482.04 497.25,-501.29"/>
<text text-anchor="middle" x="415" y="-487.79" font-family="Helvetica,sans-Serif" font-size="10.00">Slic3r::ConfigOptionResolver::has</text>
</a>
</g>
</g>
<!-- Node2&#45;&gt;Node17 -->
<g id="edge19_Node000002_Node000017" class="edge">
<title>Node2&#45;&gt;Node17</title>
<g id="a_edge19_Node000002_Node000017"><a xlink:title=" ">
<path fill="none" stroke="#63b8ff" d="M285.48,-476.57C297.01,-477.92 309.37,-479.38 321.69,-480.82"/>
<polygon fill="#63b8ff" stroke="#63b8ff" points="321.15,-484.4 331.49,-482.09 321.97,-477.45 321.15,-484.4"/>
</a>
</g>
</g>
<!-- Node4 -->
<g id="Node000004" class="node">
<title>Node4</title>
<g id="a_Node000004"><a xlink:href="../../de/db8/namespace_slic3r.html#aed0434d42d75979bb4d469ff41de7158" target="_top" xlink:title=" ">
<polygon fill="white" stroke="#666666" points="818.38,-592.29 758.12,-592.29 758.12,-573.04 818.38,-573.04 818.38,-592.29"/>
<text text-anchor="middle" x="788.25" y="-578.79" font-family="Helvetica,sans-Serif" font-size="10.00">Slic3r::diff</text>
</a>
</g>
</g>
<!-- Node3&#45;&gt;Node4 -->
<g id="edge3_Node000003_Node000004" class="edge">
<title>Node3&#45;&gt;Node4</title>
<g id="a_edge3_Node000003_Node000004"><a xlink:title=" ">
<path fill="none" stroke="#63b8ff" d="M640.53,-543.78C661.26,-549.71 688.09,-557.28 712,-563.67 723.44,-566.73 735.9,-569.93 747.33,-572.81"/>
<polygon fill="#63b8ff" stroke="#63b8ff" points="746.35,-576.42 756.9,-575.46 748.05,-569.63 746.35,-576.42"/>
</a>
</g>
</g>
<!-- Node7 -->
<g id="Node000007" class="node">
<title>Node7</title>
<g id="a_Node000007"><a xlink:href="../../d9/d24/class_slic3r_1_1_preset_collection.html#a5c6df0257b8da9ef4f799760742818e5" target="_top" xlink:title=" ">
<polygon fill="white" stroke="#666666" points="864.5,-554.54 712,-554.54 712,-512.79 864.5,-512.79 864.5,-554.54"/>
<text text-anchor="start" x="720" y="-541.04" font-family="Helvetica,sans-Serif" font-size="10.00">Slic3r::PresetCollection</text>
<text text-anchor="start" x="720" y="-529.79" font-family="Helvetica,sans-Serif" font-size="10.00">::is_independent_from_extruder</text>
<text text-anchor="middle" x="788.25" y="-518.54" font-family="Helvetica,sans-Serif" font-size="10.00">_number_option</text>
</a>
</g>
</g>
<!-- Node3&#45;&gt;Node7 -->
<g id="edge6_Node000003_Node000007" class="edge">
<title>Node3&#45;&gt;Node7</title>
<g id="a_edge6_Node000003_Node000007"><a xlink:title=" ">
<path fill="none" stroke="#63b8ff" d="M648.21,-533.67C664.07,-533.67 682.7,-533.67 701.08,-533.67"/>
<polygon fill="#63b8ff" stroke="#63b8ff" points="700.85,-537.17 710.85,-533.67 700.85,-530.17 700.85,-537.17"/>
</a>
</g>
</g>
<!-- Node8 -->
<g id="Node000008" class="node">
<title>Node8</title>
<g id="a_Node000008"><a xlink:href="../../d9/d06/class_slic3r_1_1_config_base.html#aa4b79ae20e460d24b8a77114931225a0" target="_top" xlink:title=" ">
<polygon fill="white" stroke="#666666" points="837.12,-442.92 739.38,-442.92 739.38,-412.42 837.12,-412.42 837.12,-442.92"/>
<text text-anchor="start" x="747.38" y="-429.42" font-family="Helvetica,sans-Serif" font-size="10.00">Slic3r::ConfigBase</text>
<text text-anchor="middle" x="788.25" y="-418.17" font-family="Helvetica,sans-Serif" font-size="10.00">::keys</text>
</a>
</g>
</g>
<!-- Node3&#45;&gt;Node8 -->
<g id="edge7_Node000003_Node000008" class="edge">
<title>Node3&#45;&gt;Node8</title>
<g id="a_edge7_Node000003_Node000008"><a xlink:title=" ">
<path fill="none" stroke="#63b8ff" d="M648.19,-527.69C657.99,-524.88 667.9,-520.74 676,-514.67 700.58,-496.24 688.3,-475.21 712,-455.67 717.15,-451.42 723.01,-447.78 729.13,-444.67"/>
<polygon fill="#63b8ff" stroke="#63b8ff" points="730.26,-447.55 737.9,-440.21 727.35,-441.18 730.26,-447.55"/>
</a>
</g>
</g>
<!-- Node9 -->
<g id="Node000009" class="node">
<title>Node9</title>
<g id="a_Node000009"><a xlink:href="../../d9/d06/class_slic3r_1_1_config_base.html#a423121494459dae7858bc9d665f8cb4f" target="_top" xlink:title=" ">
<polygon fill="white" stroke="#666666" points="837.12,-391.92 739.38,-391.92 739.38,-361.42 837.12,-361.42 837.12,-391.92"/>
<text text-anchor="start" x="747.38" y="-378.42" font-family="Helvetica,sans-Serif" font-size="10.00">Slic3r::ConfigBase</text>
<text text-anchor="middle" x="788.25" y="-367.17" font-family="Helvetica,sans-Serif" font-size="10.00">::option</text>
</a>
</g>
</g>
<!-- Node3&#45;&gt;Node9 -->
<g id="edge8_Node000003_Node000009" class="edge">
<title>Node3&#45;&gt;Node9</title>
<g id="a_edge8_Node000003_Node000009"><a xlink:title=" ">
<path fill="none" stroke="#63b8ff" d="M648.18,-529.28C658.32,-526.45 668.39,-521.91 676,-514.67 713.58,-478.92 675.9,-440.9 712,-403.67 717,-398.51 723.05,-394.34 729.52,-390.96"/>
<polygon fill="#63b8ff" stroke="#63b8ff" points="730.58,-393.87 738.24,-386.56 727.69,-387.5 730.58,-393.87"/>
</a>
</g>
</g>
<!-- Node11 -->
<g id="Node000011" class="node">
<title>Node11</title>
<g id="a_Node000011"><a xlink:href="../../de/d87/class_slic3r_1_1_config_option.html#a8a5965c6789289224db04d29868331e1" target="_top" xlink:title=" ">
<polygon fill="white" stroke="#666666" points="840.12,-494.92 736.38,-494.92 736.38,-464.42 840.12,-464.42 840.12,-494.92"/>
<text text-anchor="start" x="744.38" y="-481.42" font-family="Helvetica,sans-Serif" font-size="10.00">Slic3r::ConfigOption</text>
<text text-anchor="middle" x="788.25" y="-470.17" font-family="Helvetica,sans-Serif" font-size="10.00">::type</text>
</a>
</g>
</g>
<!-- Node3&#45;&gt;Node11 -->
<g id="edge10_Node000003_Node000011" class="edge">
<title>Node3&#45;&gt;Node11</title>
<g id="a_edge10_Node000003_Node000011"><a xlink:title=" ">
<path fill="none" stroke="#63b8ff" d="M644.06,-523.6C654.45,-520.79 665.67,-517.69 676,-514.67 686.23,-511.68 706.84,-505.24 727.58,-498.68"/>
<polygon fill="#63b8ff" stroke="#63b8ff" points="728.57,-501.72 737.05,-495.37 726.46,-495.05 728.57,-501.72"/>
</a>
</g>
</g>
<!-- Node5 -->
<g id="Node000005" class="node">
<title>Node5</title>
<g id="a_Node000005"><a xlink:href="../../de/db8/namespace_slic3r.html#a440bb1d57671f454ad4fab4f192430cf" target="_top" xlink:title=" ">
<polygon fill="white" stroke="#666666" points="1000.12,-592.29 919.62,-592.29 919.62,-573.04 1000.12,-573.04 1000.12,-592.29"/>
<text text-anchor="middle" x="959.88" y="-578.79" font-family="Helvetica,sans-Serif" font-size="10.00">Slic3r::_clipper</text>
</a>
</g>
</g>
<!-- Node4&#45;&gt;Node5 -->
<g id="edge4_Node000004_Node000005" class="edge">
<title>Node4&#45;&gt;Node5</title>
<g id="a_edge4_Node000004_Node000005"><a xlink:title=" ">
<path fill="none" stroke="#63b8ff" d="M818.8,-582.67C843.46,-582.67 879.16,-582.67 908.35,-582.67"/>
<polygon fill="#63b8ff" stroke="#63b8ff" points="908.18,-586.17 918.18,-582.67 908.18,-579.17 908.18,-586.17"/>
</a>
</g>
</g>
<!-- Node6 -->
<g id="Node000006" class="node">
<title>Node6</title>
<g id="a_Node000006"><a xlink:href="../../de/db8/namespace_slic3r.html#a843ba2fe16b213f550fb3d55c55a716e" target="_top" xlink:title=" ">
<polygon fill="white" stroke="#666666" points="1154.5,-592.29 1055.25,-592.29 1055.25,-573.04 1154.5,-573.04 1154.5,-592.29"/>
<text text-anchor="middle" x="1104.88" y="-578.79" font-family="Helvetica,sans-Serif" font-size="10.00">Slic3r::to_polygons</text>
</a>
</g>
</g>
<!-- Node5&#45;&gt;Node6 -->
<g id="edge5_Node000005_Node000006" class="edge">
<title>Node5&#45;&gt;Node6</title>
<g id="a_edge5_Node000005_Node000006"><a xlink:title=" ">
<path fill="none" stroke="#63b8ff" d="M1000.33,-582.67C1013.9,-582.67 1029.41,-582.67 1044.23,-582.67"/>
<polygon fill="#63b8ff" stroke="#63b8ff" points="1043.85,-586.17 1053.85,-582.67 1043.85,-579.17 1043.85,-586.17"/>
</a>
</g>
</g>
<!-- Node10 -->
<g id="Node000010" class="node">
<title>Node10</title>
<g id="a_Node000010"><a xlink:href="../../d9/d06/class_slic3r_1_1_config_base.html#a699680b37bd3c116736fd1a2ec831728" target="_top" xlink:title=" ">
<polygon fill="white" stroke="#666666" points="1008.75,-391.92 911,-391.92 911,-361.42 1008.75,-361.42 1008.75,-391.92"/>
<text text-anchor="start" x="919" y="-378.42" font-family="Helvetica,sans-Serif" font-size="10.00">Slic3r::ConfigBase</text>
<text text-anchor="middle" x="959.88" y="-367.17" font-family="Helvetica,sans-Serif" font-size="10.00">::optptr</text>
</a>
</g>
</g>
<!-- Node9&#45;&gt;Node10 -->
<g id="edge9_Node000009_Node000010" class="edge">
<title>Node9&#45;&gt;Node10</title>
<g id="a_edge9_Node000009_Node000010"><a xlink:title=" ">
<path fill="none" stroke="#63b8ff" d="M837.4,-376.67C856.83,-376.67 879.44,-376.67 899.84,-376.67"/>
<polygon fill="#63b8ff" stroke="#63b8ff" points="899.6,-380.17 909.6,-376.67 899.6,-373.17 899.6,-380.17"/>
</a>
</g>
</g>
<!-- Node13 -->
<g id="Node000013" class="node">
<title>Node13</title>
<g id="a_Node000013"><a xlink:href="../../d9/d06/class_slic3r_1_1_config_base.html#a67a26dd998d0ea8fdd9a74db89a5ab11" target="_top" xlink:title=" ">
<polygon fill="white" stroke="#666666" points="653.5,-438.92 555.75,-438.92 555.75,-408.42 653.5,-408.42 653.5,-438.92"/>
<text text-anchor="start" x="563.75" y="-425.42" font-family="Helvetica,sans-Serif" font-size="10.00">Slic3r::ConfigBase</text>
<text text-anchor="middle" x="604.62" y="-414.17" font-family="Helvetica,sans-Serif" font-size="10.00">::diff</text>
</a>
</g>
</g>
<!-- Node12&#45;&gt;Node13 -->
<g id="edge12_Node000012_Node000013" class="edge">
<title>Node12&#45;&gt;Node13</title>
<g id="a_edge12_Node000012_Node000013"><a xlink:title=" ">
<path fill="none" stroke="#63b8ff" d="M472.55,-441.13C495.37,-438.09 521.7,-434.59 544.75,-431.51"/>
<polygon fill="#63b8ff" stroke="#63b8ff" points="544.98,-434.88 554.43,-430.09 544.06,-427.94 544.98,-434.88"/>
</a>
</g>
</g>
<!-- Node14 -->
<g id="Node000014" class="node">
<title>Node14</title>
<g id="a_Node000014"><a xlink:href="../../de/db8/namespace_slic3r.html#a536a51169e646e5fd7c2fd23fadca6f4" target="_top" xlink:title=" ">
<polygon fill="white" stroke="#666666" points="662.12,-303.92 547.12,-303.92 547.12,-273.42 662.12,-273.42 662.12,-303.92"/>
<text text-anchor="start" x="555.12" y="-290.42" font-family="Helvetica,sans-Serif" font-size="10.00">Slic3r::dynamic_config</text>
<text text-anchor="middle" x="604.62" y="-279.17" font-family="Helvetica,sans-Serif" font-size="10.00">_iterate</text>
</a>
</g>
</g>
<!-- Node12&#45;&gt;Node14 -->
<g id="edge16_Node000012_Node000014" class="edge">
<title>Node12&#45;&gt;Node14</title>
<g id="a_edge16_Node000012_Node000014"><a xlink:title=" ">
<path fill="none" stroke="#63b8ff" d="M472.37,-439.09C481.55,-435.48 490.31,-430.5 497.25,-423.67 534.2,-387.28 496.85,-349.62 533.25,-312.67 534.71,-311.19 536.27,-309.8 537.9,-308.49"/>
<polygon fill="#63b8ff" stroke="#63b8ff" points="539.26,-311.12 545.63,-302.65 535.37,-305.3 539.26,-311.12"/>
</a>
</g>
</g>
<!-- Node13&#45;&gt;Node8 -->
<g id="edge14_Node000013_Node000008" class="edge">
<title>Node13&#45;&gt;Node8</title>
<g id="a_edge14_Node000013_Node000008"><a xlink:title=" ">
<path fill="none" stroke="#63b8ff" d="M653.82,-424.73C676.7,-425.23 704.24,-425.84 728.34,-426.37"/>
<polygon fill="#63b8ff" stroke="#63b8ff" points="728.07,-429.89 738.14,-426.61 728.22,-422.89 728.07,-429.89"/>
</a>
</g>
</g>
<!-- Node13&#45;&gt;Node9 -->
<g id="edge15_Node000013_Node000009" class="edge">
<title>Node13&#45;&gt;Node9</title>
<g id="a_edge15_Node000013_Node000009"><a xlink:title=" ">
<path fill="none" stroke="#63b8ff" d="M653.82,-411.2C676.8,-405.25 704.48,-398.09 728.67,-391.83"/>
<polygon fill="#63b8ff" stroke="#63b8ff" points="729.34,-395.01 738.14,-389.12 727.59,-388.23 729.34,-395.01"/>
</a>
</g>
</g>
<!-- Node13&#45;&gt;Node13 -->
<g id="edge13_Node000013_Node000013" class="edge">
<title>Node13&#45;&gt;Node13</title>
<g id="a_edge13_Node000013_Node000013"><a xlink:title=" ">
<path fill="none" stroke="#63b8ff" d="M572.09,-439.41C565.45,-448.48 576.29,-456.92 604.62,-456.92 620.56,-456.92 630.97,-454.25 635.84,-450.3"/>
<polygon fill="#63b8ff" stroke="#63b8ff" points="639.43,-450.76 637.16,-440.41 632.48,-449.91 639.43,-450.76"/>
</a>
</g>
</g>
<!-- Node15 -->
<g id="Node000015" class="node">
<title>Node15</title>
<g id="a_Node000015"><a xlink:href="../../d5/df0/class_slic3r_1_1_dynamic_config.html#a42a0781feba8bc966589bcbc81fb368e" target="_top" xlink:title=" ">
<polygon fill="white" stroke="#666666" points="845.38,-324.92 731.12,-324.92 731.12,-294.42 845.38,-294.42 845.38,-324.92"/>
<text text-anchor="start" x="739.12" y="-311.42" font-family="Helvetica,sans-Serif" font-size="10.00">Slic3r::DynamicConfig</text>
<text text-anchor="middle" x="788.25" y="-300.17" font-family="Helvetica,sans-Serif" font-size="10.00">::cbegin</text>
</a>
</g>
</g>
<!-- Node14&#45;&gt;Node15 -->
<g id="edge17_Node000014_Node000015" class="edge">
<title>Node14&#45;&gt;Node15</title>
<g id="a_edge17_Node000014_Node000015"><a xlink:title=" ">
<path fill="none" stroke="#63b8ff" d="M662.59,-295.26C680.77,-297.36 701.06,-299.7 719.9,-301.88"/>
<polygon fill="#63b8ff" stroke="#63b8ff" points="719.46,-305.47 729.79,-303.14 720.26,-298.52 719.46,-305.47"/>
</a>
</g>
</g>
<!-- Node16 -->
<g id="Node000016" class="node">
<title>Node16</title>
<g id="a_Node000016"><a xlink:href="../../d5/df0/class_slic3r_1_1_dynamic_config.html#a90d9792753662d6f22e3aaffe950257b" target="_top" xlink:title=" ">
<polygon fill="white" stroke="#666666" points="845.38,-275.92 731.12,-275.92 731.12,-245.42 845.38,-245.42 845.38,-275.92"/>
<text text-anchor="start" x="739.12" y="-262.42" font-family="Helvetica,sans-Serif" font-size="10.00">Slic3r::DynamicConfig</text>
<text text-anchor="middle" x="788.25" y="-251.17" font-family="Helvetica,sans-Serif" font-size="10.00">::cend</text>
</a>
</g>
</g>
<!-- Node14&#45;&gt;Node16 -->
<g id="edge18_Node000014_Node000016" class="edge">
<title>Node14&#45;&gt;Node16</title>
<g id="a_edge18_Node000014_Node000016"><a xlink:title=" ">
<path fill="none" stroke="#63b8ff" d="M662.59,-279.89C680.85,-277.07 701.25,-273.93 720.16,-271.01"/>
<polygon fill="#63b8ff" stroke="#63b8ff" points="720.44,-274.36 729.79,-269.37 719.38,-267.44 720.44,-274.36"/>
</a>
</g>
</g>
<!-- Node18 -->
<g id="Node000018" class="node">
<title>Node18</title>
<g id="a_Node000018"><a xlink:href="../../d3/d98/class_slic3r_1_1_config_option_resolver.html#a3c37c9a5c55c26149c192468d3922ec1" target="_top" xlink:title=" ">
<polygon fill="white" stroke="#666666" points="676,-505.92 533.25,-505.92 533.25,-475.42 676,-475.42 676,-505.92"/>
<text text-anchor="start" x="541.25" y="-492.42" font-family="Helvetica,sans-Serif" font-size="10.00">Slic3r::ConfigOptionResolver</text>
<text text-anchor="middle" x="604.62" y="-481.17" font-family="Helvetica,sans-Serif" font-size="10.00">::optptr</text>
</a>
</g>
</g>
<!-- Node17&#45;&gt;Node18 -->
<g id="edge20_Node000017_Node000018" class="edge">
<title>Node17&#45;&gt;Node18</title>
<g id="a_edge20_Node000017_Node000018"><a xlink:title=" ">
<path fill="none" stroke="#63b8ff" d="M497.75,-491.23C505.83,-491.19 514.03,-491.15 522.11,-491.1"/>
<polygon fill="#63b8ff" stroke="#63b8ff" points="522.04,-494.6 532.02,-491.05 522,-487.6 522.04,-494.6"/>
</a>
</g>
</g>
<!-- Node20&#45;&gt;Node19 -->
<g id="edge37_Node000020_Node000019" class="edge">
<title>Node20&#45;&gt;Node19</title>
<g id="a_edge37_Node000020_Node000019"><a xlink:title=" ">
<path fill="none" stroke="#63b8ff" d="M235.84,-259.25C252.06,-285.77 288.47,-339.78 332.75,-370.67 337.43,-373.94 342.52,-376.87 347.8,-379.51"/>
<polygon fill="#63b8ff" stroke="#63b8ff" points="345.89,-382.94 356.43,-383.92 348.8,-376.57 345.89,-382.94"/>
</a>
</g>
</g>
<!-- Node21 -->
<g id="Node000021" class="node">
<title>Node21</title>
<g id="a_Node000021"><a xlink:href="../../d9/d24/class_slic3r_1_1_preset_collection.html#ab6fec3a646cff1838051447b890f9bbf" target="_top" xlink:title=" ">
<polygon fill="white" stroke="#666666" points="474.38,-144.92 355.62,-144.92 355.62,-114.42 474.38,-114.42 474.38,-144.92"/>
<text text-anchor="start" x="363.62" y="-131.42" font-family="Helvetica,sans-Serif" font-size="10.00">Slic3r::PresetCollection</text>
<text text-anchor="middle" x="415" y="-120.17" font-family="Helvetica,sans-Serif" font-size="10.00">::default_preset</text>
</a>
</g>
</g>
<!-- Node20&#45;&gt;Node21 -->
<g id="edge23_Node000020_Node000021" class="edge">
<title>Node20&#45;&gt;Node21</title>
<g id="a_edge23_Node000020_Node000021"><a xlink:title=" ">
<path fill="none" stroke="#63b8ff" d="M241.44,-227.94C260.67,-208.2 296.24,-174.54 332.75,-154.67 336.69,-152.53 340.83,-150.54 345.09,-148.7"/>
<polygon fill="#63b8ff" stroke="#63b8ff" points="346.16,-151.64 354.15,-144.68 343.56,-145.14 346.16,-151.64"/>
</a>
</g>
</g>
<!-- Node22 -->
<g id="Node000022" class="node">
<title>Node22</title>
<g id="a_Node000022"><a xlink:href="../../d9/d24/class_slic3r_1_1_preset_collection.html#a56cf3d437674bb4f3f4c92826552e4cf" target="_top" xlink:title=" ">
<polygon fill="white" stroke="#666666" points="474.38,-95.92 355.62,-95.92 355.62,-65.42 474.38,-65.42 474.38,-95.92"/>
<text text-anchor="start" x="363.62" y="-82.42" font-family="Helvetica,sans-Serif" font-size="10.00">Slic3r::PresetCollection</text>
<text text-anchor="middle" x="415" y="-71.17" font-family="Helvetica,sans-Serif" font-size="10.00">::find_preset</text>
</a>
</g>
</g>
<!-- Node20&#45;&gt;Node22 -->
<g id="edge24_Node000020_Node000022" class="edge">
<title>Node20&#45;&gt;Node22</title>
<g id="a_edge24_Node000020_Node000022"><a xlink:title=" ">
<path fill="none" stroke="#63b8ff" d="M234.38,-228.31C249.31,-199.84 285.11,-138.76 332.75,-105.67 336.67,-102.94 340.91,-100.51 345.3,-98.33"/>
<polygon fill="#63b8ff" stroke="#63b8ff" points="346.42,-101.22 354.14,-93.97 343.58,-94.82 346.42,-101.22"/>
</a>
</g>
</g>
<!-- Node29 -->
<g id="Node000029" class="node">
<title>Node29</title>
<g id="a_Node000029"><a xlink:href="../../d9/d24/class_slic3r_1_1_preset_collection.html#a922f84d49a947960887f70407008259c" target="_top" xlink:title=" ">
<polygon fill="white" stroke="#666666" points="847.62,-46.92 728.88,-46.92 728.88,-16.42 847.62,-16.42 847.62,-46.92"/>
<text text-anchor="start" x="736.88" y="-33.42" font-family="Helvetica,sans-Serif" font-size="10.00">Slic3r::PresetCollection</text>
<text text-anchor="middle" x="788.25" y="-22.17" font-family="Helvetica,sans-Serif" font-size="10.00">::preset</text>
</a>
</g>
</g>
<!-- Node20&#45;&gt;Node29 -->
<g id="edge42_Node000020_Node000029" class="edge">
<title>Node20&#45;&gt;Node29</title>
<g id="a_edge42_Node000020_Node000029"><a xlink:title=" ">
<path fill="none" stroke="#63b8ff" d="M230.41,-227.99C239.96,-190.91 269.43,-97.91 332.75,-56.67 450.07,19.74 622.7,2.36 717.88,-15.59"/>
<polygon fill="#63b8ff" stroke="#63b8ff" points="717.05,-19.18 727.53,-17.66 718.38,-12.31 717.05,-19.18"/>
</a>
</g>
</g>
<!-- Node30 -->
<g id="Node000030" class="node">
<title>Node30</title>
<g id="a_Node000030"><a xlink:href="../../d9/d24/class_slic3r_1_1_preset_collection.html#a07ae7ca920b87f2b777eed647d6e1042" target="_top" xlink:title=" ">
<polygon fill="white" stroke="#666666" points="474.38,-193.92 355.62,-193.92 355.62,-163.42 474.38,-163.42 474.38,-193.92"/>
<text text-anchor="start" x="363.62" y="-180.42" font-family="Helvetica,sans-Serif" font-size="10.00">Slic3r::PresetCollection</text>
<text text-anchor="middle" x="415" y="-169.17" font-family="Helvetica,sans-Serif" font-size="10.00">::find_preset_renamed</text>
</a>
</g>
</g>
<!-- Node20&#45;&gt;Node30 -->
<g id="edge34_Node000020_Node000030" class="edge">
<title>Node20&#45;&gt;Node30</title>
<g id="a_edge34_Node000020_Node000030"><a xlink:title=" ">
<path fill="none" stroke="#63b8ff" d="M272.08,-227.93C298.09,-218.91 330.94,-207.5 358.49,-197.94"/>
<polygon fill="#63b8ff" stroke="#63b8ff" points="359.47,-200.96 367.77,-194.37 357.17,-194.34 359.47,-200.96"/>
</a>
</g>
</g>
<!-- Node31 -->
<g id="Node000031" class="node">
<title>Node31</title>
<g id="a_Node000031"><a xlink:href="../../d9/d24/class_slic3r_1_1_preset_collection.html#aa2605aaf86ec9f3583fcf235ea0197b9" target="_top" xlink:title=" ">
<polygon fill="white" stroke="#666666" points="474.38,-328.92 355.62,-328.92 355.62,-298.42 474.38,-298.42 474.38,-328.92"/>
<text text-anchor="start" x="363.62" y="-315.42" font-family="Helvetica,sans-Serif" font-size="10.00">Slic3r::PresetCollection</text>
<text text-anchor="middle" x="415" y="-304.17" font-family="Helvetica,sans-Serif" font-size="10.00">::get_selected_idx</text>
</a>
</g>
</g>
<!-- Node20&#45;&gt;Node31 -->
<g id="edge38_Node000020_Node000031" class="edge">
<title>Node20&#45;&gt;Node31</title>
<g id="a_edge38_Node000020_Node000031"><a xlink:title=" ">
<path fill="none" stroke="#63b8ff" d="M261.24,-259.38C281.8,-268.47 308.52,-279.83 332.75,-288.67 338.43,-290.74 344.38,-292.8 350.36,-294.78"/>
<polygon fill="#63b8ff" stroke="#63b8ff" points="348.83,-298.28 359.42,-298.04 350.99,-291.63 348.83,-298.28"/>
</a>
</g>
</g>
<!-- Node32 -->
<g id="Node000032" class="node">
<title>Node32</title>
<g id="a_Node000032"><a xlink:href="../../d9/d24/class_slic3r_1_1_preset_collection.html#a166460da323e82c3e95ab194254d86e0" target="_top" xlink:title=" ">
<polygon fill="white" stroke="#666666" points="474.38,-279.92 355.62,-279.92 355.62,-249.42 474.38,-249.42 474.38,-279.92"/>
<text text-anchor="start" x="363.62" y="-266.42" font-family="Helvetica,sans-Serif" font-size="10.00">Slic3r::PresetCollection</text>
<text text-anchor="middle" x="415" y="-255.17" font-family="Helvetica,sans-Serif" font-size="10.00">::get_selected_preset</text>
</a>
</g>
</g>
<!-- Node20&#45;&gt;Node32 -->
<g id="edge39_Node000020_Node000032" class="edge">
<title>Node20&#45;&gt;Node32</title>
<g id="a_edge39_Node000020_Node000032"><a xlink:title=" ">
<path fill="none" stroke="#63b8ff" d="M297.01,-251.55C312.61,-253.3 329.13,-255.15 344.69,-256.9"/>
<polygon fill="#63b8ff" stroke="#63b8ff" points="343.96,-260.45 354.29,-258.08 344.74,-253.49 343.96,-260.45"/>
</a>
</g>
</g>
<!-- Node33 -->
<g id="Node000033" class="node">
<title>Node33</title>
<g id="a_Node000033"><a xlink:href="../../d9/db2/class_slic3r_1_1_preset.html#a185f4f901e81c098660dbcdccc41c1aa" target="_top" xlink:title=" ">
<polygon fill="white" stroke="#666666" points="661,-341.29 548.25,-341.29 548.25,-322.04 661,-322.04 661,-341.29"/>
<text text-anchor="middle" x="604.62" y="-327.79" font-family="Helvetica,sans-Serif" font-size="10.00">Slic3r::Preset::inherits</text>
</a>
</g>
</g>
<!-- Node20&#45;&gt;Node33 -->
<g id="edge40_Node000020_Node000033" class="edge">
<title>Node20&#45;&gt;Node33</title>
<g id="a_edge40_Node000020_Node000033"><a xlink:title=" ">
<path fill="none" stroke="#63b8ff" d="M277.65,-227.95C335.46,-213.32 430.43,-199.37 497.25,-240.67 527.68,-259.48 505.55,-290.02 533.25,-312.67 534.9,-314.02 536.64,-315.28 538.45,-316.44"/>
<polygon fill="#63b8ff" stroke="#63b8ff" points="536.53,-319.92 546.99,-321.57 539.84,-313.75 536.53,-319.92"/>
</a>
</g>
</g>
<!-- Node34 -->
<g id="Node000034" class="node">
<title>Node34</title>
<g id="a_Node000034"><a xlink:href="../../d9/db2/class_slic3r_1_1_preset.html#a959b555f2e1c1b7042080c862ce14a4c" target="_top" xlink:title=" ">
<polygon fill="white" stroke="#666666" points="658.75,-389.92 550.5,-389.92 550.5,-359.42 658.75,-359.42 658.75,-389.92"/>
<text text-anchor="start" x="558.5" y="-376.42" font-family="Helvetica,sans-Serif" font-size="10.00">Slic3r::Preset::printer</text>
<text text-anchor="middle" x="604.62" y="-365.17" font-family="Helvetica,sans-Serif" font-size="10.00">_technology</text>
</a>
</g>
</g>
<!-- Node20&#45;&gt;Node34 -->
<g id="edge43_Node000020_Node000034" class="edge">
<title>Node20&#45;&gt;Node34</title>
<g id="a_edge43_Node000020_Node000034"><a xlink:title=" ">
<path fill="none" stroke="#63b8ff" d="M238.89,-259.08C256.86,-280.66 292.74,-319.29 332.75,-337.67 398.66,-367.95 482.4,-375.26 539.2,-376.24"/>
<polygon fill="#63b8ff" stroke="#63b8ff" points="539.15,-379.75 549.19,-376.35 539.23,-372.75 539.15,-379.75"/>
</a>
</g>
</g>
<!-- Node23 -->
<g id="Node000023" class="node">
<title>Node23</title>
<g id="a_Node000023"><a xlink:href="../../d9/d24/class_slic3r_1_1_preset_collection.html#a0a6b51c2a41deef519f44776dcf07c7c" target="_top" xlink:title=" ">
<polygon fill="white" stroke="#666666" points="664,-144.92 545.25,-144.92 545.25,-114.42 664,-114.42 664,-144.92"/>
<text text-anchor="start" x="553.25" y="-131.42" font-family="Helvetica,sans-Serif" font-size="10.00">Slic3r::PresetCollection</text>
<text text-anchor="middle" x="604.62" y="-120.17" font-family="Helvetica,sans-Serif" font-size="10.00">::find_preset_internal</text>
</a>
</g>
</g>
<!-- Node22&#45;&gt;Node23 -->
<g id="edge25_Node000022_Node000023" class="edge">
<title>Node22&#45;&gt;Node23</title>
<g id="a_edge25_Node000022_Node000023"><a xlink:title=" ">
<path fill="none" stroke="#63b8ff" d="M474.85,-96.04C493.8,-100.99 514.97,-106.52 534.58,-111.64"/>
<polygon fill="#63b8ff" stroke="#63b8ff" points="533.42,-115.21 543.98,-114.35 535.19,-108.44 533.42,-115.21"/>
</a>
</g>
</g>
<!-- Node25 -->
<g id="Node000025" class="node">
<title>Node25</title>
<g id="a_Node000025"><a xlink:href="../../d9/d24/class_slic3r_1_1_preset_collection.html#addbb2e5162994c9abe0c070a82488913" target="_top" xlink:title=" ">
<polygon fill="white" stroke="#666666" points="847.62,-193.92 728.88,-193.92 728.88,-163.42 847.62,-163.42 847.62,-193.92"/>
<text text-anchor="start" x="736.88" y="-180.42" font-family="Helvetica,sans-Serif" font-size="10.00">Slic3r::PresetCollection</text>
<text text-anchor="middle" x="788.25" y="-169.17" font-family="Helvetica,sans-Serif" font-size="10.00">::name</text>
</a>
</g>
</g>
<!-- Node22&#45;&gt;Node25 -->
<g id="edge32_Node000022_Node000025" class="edge">
<title>Node22&#45;&gt;Node25</title>
<g id="a_edge32_Node000022_Node000025"><a xlink:title=" ">
<path fill="none" stroke="#63b8ff" d="M474.49,-93.73C482.52,-96.91 490.37,-100.83 497.25,-105.67 519.06,-121.01 510.01,-140.59 533.25,-153.67 563.77,-170.85 653.48,-176.35 717.62,-178.04"/>
<polygon fill="#63b8ff" stroke="#63b8ff" points="717.4,-181.56 727.48,-178.29 717.56,-174.56 717.4,-181.56"/>
</a>
</g>
</g>
<!-- Node27 -->
<g id="Node000027" class="node">
<title>Node27</title>
<g id="a_Node000027"><a xlink:href="../../d9/d24/class_slic3r_1_1_preset_collection.html#a0900140ae33435f780ab9311ec07b76e" target="_top" xlink:title=" ">
<polygon fill="white" stroke="#666666" points="664,-95.92 545.25,-95.92 545.25,-65.42 664,-65.42 664,-95.92"/>
<text text-anchor="start" x="553.25" y="-82.42" font-family="Helvetica,sans-Serif" font-size="10.00">Slic3r::PresetCollection</text>
<text text-anchor="middle" x="604.62" y="-71.17" font-family="Helvetica,sans-Serif" font-size="10.00">::first_visible</text>
</a>
</g>
</g>
<!-- Node22&#45;&gt;Node27 -->
<g id="edge29_Node000022_Node000027" class="edge">
<title>Node22&#45;&gt;Node27</title>
<g id="a_edge29_Node000022_Node000027"><a xlink:title=" ">
<path fill="none" stroke="#63b8ff" d="M474.85,-80.67C493.62,-80.67 514.58,-80.67 534.04,-80.67"/>
<polygon fill="#63b8ff" stroke="#63b8ff" points="533.98,-84.17 543.98,-80.67 533.98,-77.17 533.98,-84.17"/>
</a>
</g>
</g>
<!-- Node22&#45;&gt;Node29 -->
<g id="edge33_Node000022_Node000029" class="edge">
<title>Node22&#45;&gt;Node29</title>
<g id="a_edge33_Node000022_Node000029"><a xlink:title=" ">
<path fill="none" stroke="#63b8ff" d="M474.83,-67.38C493.45,-63.51 514.14,-59.56 533.25,-56.67 595.29,-47.29 666.42,-40.64 717.59,-36.57"/>
<polygon fill="#63b8ff" stroke="#63b8ff" points="717.83,-39.98 727.52,-35.71 717.28,-33 717.83,-39.98"/>
</a>
</g>
</g>
<!-- Node24 -->
<g id="Node000024" class="node">
<title>Node24</title>
<g id="a_Node000024"><a xlink:href="../../de/db8/namespace_slic3r.html#a62e989db5546d1af6cf869f5d09d6e0f" target="_top" xlink:title=" ">
<polygon fill="white" stroke="#666666" points="839,-144.92 737.5,-144.92 737.5,-114.42 839,-114.42 839,-144.92"/>
<text text-anchor="start" x="745.5" y="-131.42" font-family="Helvetica,sans-Serif" font-size="10.00">Slic3r::lower_bound</text>
<text text-anchor="middle" x="788.25" y="-120.17" font-family="Helvetica,sans-Serif" font-size="10.00">_by_predicate</text>
</a>
</g>
</g>
<!-- Node23&#45;&gt;Node24 -->
<g id="edge26_Node000023_Node000024" class="edge">
<title>Node23&#45;&gt;Node24</title>
<g id="a_edge26_Node000023_Node000024"><a xlink:title=" ">
<path fill="none" stroke="#63b8ff" d="M664.34,-129.67C684.19,-129.67 706.39,-129.67 726.4,-129.67"/>
<polygon fill="#63b8ff" stroke="#63b8ff" points="726.27,-133.17 736.27,-129.67 726.27,-126.17 726.27,-133.17"/>
</a>
</g>
</g>
<!-- Node23&#45;&gt;Node25 -->
<g id="edge27_Node000023_Node000025" class="edge">
<title>Node23&#45;&gt;Node25</title>
<g id="a_edge27_Node000023_Node000025"><a xlink:title=" ">
<path fill="none" stroke="#63b8ff" d="M663.84,-145.38C681.28,-150.08 700.56,-155.28 718.6,-160.15"/>
<polygon fill="#63b8ff" stroke="#63b8ff" points="717.48,-163.74 728.05,-162.97 719.31,-156.98 717.48,-163.74"/>
</a>
</g>
</g>
<!-- Node26 -->
<g id="Node000026" class="node">
<title>Node26</title>
<g id="a_Node000026"><a xlink:href="../../d9/d24/class_slic3r_1_1_preset_collection.html#a1a27959ef609baeb3d853b1c718852d1" target="_top" xlink:title=" ">
<polygon fill="white" stroke="#666666" points="1019.25,-193.92 900.5,-193.92 900.5,-163.42 1019.25,-163.42 1019.25,-193.92"/>
<text text-anchor="start" x="908.5" y="-180.42" font-family="Helvetica,sans-Serif" font-size="10.00">Slic3r::PresetCollection</text>
<text text-anchor="middle" x="959.88" y="-169.17" font-family="Helvetica,sans-Serif" font-size="10.00">::type</text>
</a>
</g>
</g>
<!-- Node25&#45;&gt;Node26 -->
<g id="edge28_Node000025_Node000026" class="edge">
<title>Node25&#45;&gt;Node26</title>
<g id="a_edge28_Node000025_Node000026"><a xlink:title=" ">
<path fill="none" stroke="#63b8ff" d="M848.1,-178.67C861.39,-178.67 875.62,-178.67 889.3,-178.67"/>
<polygon fill="#63b8ff" stroke="#63b8ff" points="889.13,-182.17 899.13,-178.67 889.13,-175.17 889.13,-182.17"/>
</a>
</g>
</g>
<!-- Node28 -->
<g id="Node000028" class="node">
<title>Node28</title>
<g id="a_Node000028"><a xlink:href="../../d9/d24/class_slic3r_1_1_preset_collection.html#a8008e4b43ace6a3a996dff76dad44731" target="_top" xlink:title=" ">
<polygon fill="white" stroke="#666666" points="847.62,-95.92 728.88,-95.92 728.88,-65.42 847.62,-65.42 847.62,-95.92"/>
<text text-anchor="start" x="736.88" y="-82.42" font-family="Helvetica,sans-Serif" font-size="10.00">Slic3r::PresetCollection</text>
<text text-anchor="middle" x="788.25" y="-71.17" font-family="Helvetica,sans-Serif" font-size="10.00">::first_visible_idx</text>
</a>
</g>
</g>
<!-- Node27&#45;&gt;Node28 -->
<g id="edge30_Node000027_Node000028" class="edge">
<title>Node27&#45;&gt;Node28</title>
<g id="a_edge30_Node000027_Node000028"><a xlink:title=" ">
<path fill="none" stroke="#63b8ff" d="M664.34,-80.67C681.34,-80.67 700.05,-80.67 717.64,-80.67"/>
<polygon fill="#63b8ff" stroke="#63b8ff" points="717.42,-84.17 727.42,-80.67 717.42,-77.17 717.42,-84.17"/>
</a>
</g>
</g>
<!-- Node27&#45;&gt;Node29 -->
<g id="edge31_Node000027_Node000029" class="edge">
<title>Node27&#45;&gt;Node29</title>
<g id="a_edge31_Node000027_Node000029"><a xlink:title=" ">
<path fill="none" stroke="#63b8ff" d="M663.84,-64.96C681.28,-60.26 700.56,-55.06 718.6,-50.19"/>
<polygon fill="#63b8ff" stroke="#63b8ff" points="719.31,-53.35 728.05,-47.37 717.48,-46.6 719.31,-53.35"/>
</a>
</g>
</g>
<!-- Node30&#45;&gt;Node23 -->
<g id="edge35_Node000030_Node000023" class="edge">
<title>Node30&#45;&gt;Node23</title>
<g id="a_edge35_Node000030_Node000023"><a xlink:title=" ">
<path fill="none" stroke="#63b8ff" d="M474.85,-163.3C493.8,-158.35 514.97,-152.82 534.58,-147.7"/>
<polygon fill="#63b8ff" stroke="#63b8ff" points="535.19,-150.9 543.98,-144.98 533.42,-144.12 535.19,-150.9"/>
</a>
</g>
</g>
<!-- Node30&#45;&gt;Node25 -->
<g id="edge36_Node000030_Node000025" class="edge">
<title>Node30&#45;&gt;Node25</title>
<g id="a_edge36_Node000030_Node000025"><a xlink:title=" ">
<path fill="none" stroke="#63b8ff" d="M474.71,-183.46C493.4,-184.78 514.18,-186.02 533.25,-186.67 596.66,-188.83 612.6,-188.95 676,-186.67 689.44,-186.19 703.77,-185.38 717.52,-184.45"/>
<polygon fill="#63b8ff" stroke="#63b8ff" points="717.67,-187.88 727.4,-183.69 717.18,-180.9 717.67,-187.88"/>
</a>
</g>
</g>
<!-- Node33&#45;&gt;Node9 -->
<g id="edge41_Node000033_Node000009" class="edge">
<title>Node33&#45;&gt;Node9</title>
<g id="a_edge41_Node000033_Node000009"><a xlink:title=" ">
<path fill="none" stroke="#63b8ff" d="M646.39,-341.77C670.58,-347.76 701.66,-355.46 728.47,-362.11"/>
<polygon fill="#63b8ff" stroke="#63b8ff" points="727.34,-365.68 737.89,-364.69 729.03,-358.89 727.34,-365.68"/>
</a>
</g>
</g>
<!-- Node34&#45;&gt;Node9 -->
<g id="edge44_Node000034_Node000009" class="edge">
<title>Node34&#45;&gt;Node9</title>
<g id="a_edge44_Node000034_Node000009"><a xlink:title=" ">
<path fill="none" stroke="#63b8ff" d="M659.14,-375.26C680.8,-375.5 705.89,-375.77 728.09,-376.02"/>
<polygon fill="#63b8ff" stroke="#63b8ff" points="728.03,-379.53 738.07,-376.14 728.11,-372.53 728.03,-379.53"/>
</a>
</g>
</g>
</g>
</svg>

<g id="navigator" transform="translate(0 0)" fill="#404254">
  <rect fill="#f2f5e9" fill-opacity="0.5" stroke="#606060" stroke-width=".5" x="0" y="0" width="60" height="60"/>
  <use id="zoomplus" xlink:href="#zoomPlus" x="17" y="9" onmousedown="handleZoom(evt,'in')"/>
  <use id="zoomminus" xlink:href="#zoomMin" x="42" y="9" onmousedown="handleZoom(evt,'out')"/>
  <use id="reset" xlink:href="#resetDef" x="30" y="36" onmousedown="handleReset()"/>
   <use id="arrowup" xlink:href="#arrowUp" x="0" y="0" onmousedown="handlePan(0,-1)"/>
  <use id="arrowright" xlink:href="#arrowRight" x="0" y="0" onmousedown="handlePan(1,0)"/>
  <use id="arrowdown" xlink:href="#arrowDown" x="0" y="0" onmousedown="handlePan(0,1)"/>
  <use id="arrowleft" xlink:href="#arrowLeft" x="0" y="0" onmousedown="handlePan(-1,0)"/>
</g>
<svg viewBox="0 0 15 15" width="100%" height="30px" preserveAspectRatio="xMaxYMin meet">
 <g id="arrow_out" transform="scale(0.3 0.3)">
  <a xlink:href="class_slic3r_1_1_preset_collection_aeb094078e5fa0cf3cc1e05fb88eb680b_cgraph_org.svg" target="_base">
   <rect id="button" ry="5" rx="5" y="6" x="6" height="38" width="38"
        fill="#f2f5e9" fill-opacity="0.5" stroke="#606060" stroke-width="1.0"/>
   <path id="arrow"
     d="M 11.500037,31.436501 C 11.940474,20.09759 22.043105,11.32322 32.158766,21.979434 L 37.068811,17.246167 C 37.068811,17.246167 37.088388,32 37.088388,32 L 22.160133,31.978069 C 22.160133,31.978069 26.997745,27.140456 26.997745,27.140456 C 18.528582,18.264221 13.291696,25.230495 11.500037,31.436501 z"
     style="fill:#404040;"/>
  </a>
 </g>
</svg>

<style type='text/css'>
<![CDATA[
[data-mouse-over-selected='false'] { opacity: 0.7; }
[data-mouse-over-selected='true']  { opacity: 1.0; }
]]>
</style>
<script type="application/ecmascript"><![CDATA[
document.addEventListener('DOMContentLoaded', (event) => {
  highlightEdges();
  highlightAdjacentNodes();
});
]]></script>
</svg>
