<?xml version="1.0" encoding="UTF-8" standalone="no"?>
<!DOCTYPE svg PUBLIC "-//W3C//DTD SVG 1.1//EN"
 "http://www.w3.org/Graphics/SVG/1.1/DTD/svg11.dtd">
<!-- Generated by graphviz version 8.0.5 (20230430.1635)
 -->
<!-- Title: Slic3r::GluTessWrapper Pages: 1 -->
<svg width="1756pt" height="626pt"
 viewBox="0.00 0.00 1755.75 625.88" xmlns="http://www.w3.org/2000/svg" xmlns:xlink="http://www.w3.org/1999/xlink">
<g id="graph0" class="graph" transform="scale(1 1) rotate(0) translate(4 621.88)">
<title>Slic3r::GluTessWrapper</title>
<!-- Node1 -->
<g id="Node000001" class="node">
<title>Node1</title>
<g id="a_Node000001"><a xlink:title=" ">
<polygon fill="#999999" stroke="#666666" points="1747.75,-178.88 1629,-178.88 1629,-159.62 1747.75,-159.62 1747.75,-178.88"/>
<text text-anchor="middle" x="1688.38" y="-165.38" font-family="Helvetica,sans-Serif" font-size="10.00">Slic3r::GluTessWrapper</text>
</a>
</g>
</g>
<!-- Node2 -->
<g id="Node000002" class="node">
<title>Node2</title>
<g id="a_Node000002"><a xlink:href="../../d7/d7a/struct_g_l_utesselator.html" target="_top" xlink:title=" ">
<polygon fill="white" stroke="#666666" points="1480.12,-346.88 1401.12,-346.88 1401.12,-327.62 1480.12,-327.62 1480.12,-346.88"/>
<text text-anchor="middle" x="1440.62" y="-333.38" font-family="Helvetica,sans-Serif" font-size="10.00">GLUtesselator</text>
</a>
</g>
</g>
<!-- Node2&#45;&gt;Node1 -->
<g id="edge1_Node000001_Node000002" class="edge">
<title>Node2&#45;&gt;Node1</title>
<g id="a_edge1_Node000001_Node000002"><a xlink:title=" ">
<path fill="none" stroke="#9a32cd" stroke-dasharray="5,2" d="M1465.1,-321.2C1515.31,-286.88 1631.85,-207.21 1672.81,-179.2"/>
<polygon fill="#9a32cd" stroke="#9a32cd" points="1463.54,-318.71 1457.26,-327.24 1467.49,-324.49 1463.54,-318.71"/>
</a>
</g>
<text text-anchor="middle" x="1561.88" y="-289" font-family="Helvetica,sans-Serif" font-size="10.00" fill="grey"> m_tesselator</text>
</g>
<!-- Node3 -->
<g id="Node000003" class="node">
<title>Node3</title>
<g id="a_Node000003"><a xlink:href="../../d8/d3b/mesh_8h.html#d7/dd8/struct_g_l_uhalf_edge" target="_top" xlink:title=" ">
<polygon fill="white" stroke="#666666" points="714,-355.88 639.5,-355.88 639.5,-336.62 714,-336.62 714,-355.88"/>
<text text-anchor="middle" x="676.75" y="-342.38" font-family="Helvetica,sans-Serif" font-size="10.00">GLUhalfEdge</text>
</a>
</g>
</g>
<!-- Node3&#45;&gt;Node2 -->
<g id="edge2_Node000002_Node000003" class="edge">
<title>Node3&#45;&gt;Node2</title>
<g id="a_edge2_Node000002_Node000003"><a xlink:title=" ">
<path fill="none" stroke="#9a32cd" stroke-dasharray="5,2" d="M688.4,-326.98C704,-300.9 735.76,-255.33 777,-235.25 832.56,-208.2 853.99,-228.25 915.75,-226.25 1074.61,-221.1 1116.7,-225.27 1271.75,-260.25 1315.42,-270.1 1328.05,-269.08 1368.5,-288.25 1390.99,-298.91 1414.22,-316.35 1427.77,-327.29"/>
<polygon fill="#9a32cd" stroke="#9a32cd" points="685.03,-324.82 683.06,-335.23 691.09,-328.32 685.03,-324.82"/>
</a>
</g>
<text text-anchor="middle" x="1103.12" y="-233" font-family="Helvetica,sans-Serif" font-size="10.00" fill="grey"> lastEdge</text>
</g>
<!-- Node3&#45;&gt;Node3 -->
<g id="edge3_Node000003_Node000003" class="edge">
<title>Node3&#45;&gt;Node3</title>
<g id="a_edge3_Node000003_Node000003"><a xlink:title=" ">
<path fill="none" stroke="#9a32cd" stroke-dasharray="5,2" d="M654.2,-366.6C656.57,-370.83 664.09,-373.88 676.75,-373.88 698.66,-373.88 705.16,-364.77 696.26,-356.16"/>
<polygon fill="#9a32cd" stroke="#9a32cd" points="657.8,-367.74 657.24,-357.16 651.08,-365.79 657.8,-367.74"/>
</a>
</g>
<text text-anchor="middle" x="676.75" y="-409.38" font-family="Helvetica,sans-Serif" font-size="10.00" fill="grey"> Lnext</text>
<text text-anchor="middle" x="676.75" y="-398.12" font-family="Helvetica,sans-Serif" font-size="10.00" fill="grey">Onext</text>
<text text-anchor="middle" x="676.75" y="-386.88" font-family="Helvetica,sans-Serif" font-size="10.00" fill="grey">Sym</text>
<text text-anchor="middle" x="676.75" y="-375.62" font-family="Helvetica,sans-Serif" font-size="10.00" fill="grey">next</text>
</g>
<!-- Node4 -->
<g id="Node000004" class="node">
<title>Node4</title>
<g id="a_Node000004"><a xlink:href="../../d8/d3b/mesh_8h.html#d4/d53/struct_g_l_uvertex" target="_top" xlink:title=" ">
<polygon fill="white" stroke="#666666" points="1021.38,-401.88 958.12,-401.88 958.12,-382.62 1021.38,-382.62 1021.38,-401.88"/>
<text text-anchor="middle" x="989.75" y="-388.38" font-family="Helvetica,sans-Serif" font-size="10.00">GLUvertex</text>
</a>
</g>
</g>
<!-- Node3&#45;&gt;Node4 -->
<g id="edge6_Node000004_Node000003" class="edge">
<title>Node3&#45;&gt;Node4</title>
<g id="a_edge6_Node000004_Node000003"><a xlink:title=" ">
<path fill="none" stroke="#9a32cd" stroke-dasharray="5,2" d="M716.91,-359.7C735,-365.39 756.88,-371.54 777,-375.25 840.47,-386.94 916.12,-390.59 957.63,-391.73"/>
<polygon fill="#9a32cd" stroke="#9a32cd" points="718.06,-356.07 707.47,-356.33 715.92,-362.73 718.06,-356.07"/>
</a>
</g>
<text text-anchor="middle" x="837.38" y="-390" font-family="Helvetica,sans-Serif" font-size="10.00" fill="grey"> anEdge</text>
</g>
<!-- Node5 -->
<g id="Node000005" class="node">
<title>Node5</title>
<g id="a_Node000005"><a xlink:href="../../d8/d3b/mesh_8h.html#d9/d59/struct_g_l_uface" target="_top" xlink:title=" ">
<polygon fill="white" stroke="#666666" points="1017.25,-254.88 962.25,-254.88 962.25,-235.62 1017.25,-235.62 1017.25,-254.88"/>
<text text-anchor="middle" x="989.75" y="-241.38" font-family="Helvetica,sans-Serif" font-size="10.00">GLUface</text>
</a>
</g>
</g>
<!-- Node3&#45;&gt;Node5 -->
<g id="edge9_Node000005_Node000003" class="edge">
<title>Node3&#45;&gt;Node5</title>
<g id="a_edge9_Node000005_Node000003"><a xlink:title=" ">
<path fill="none" stroke="#9a32cd" stroke-dasharray="5,2" d="M709.56,-331.8C728.84,-323.35 754.06,-312.84 777,-305 829.62,-287.01 844.26,-287.44 897.75,-272.25 919.47,-266.08 944,-258.78 962.12,-253.33"/>
<polygon fill="#9a32cd" stroke="#9a32cd" points="708.24,-329 700.51,-336.25 711.07,-335.4 708.24,-329"/>
</a>
</g>
<text text-anchor="middle" x="837.38" y="-306" font-family="Helvetica,sans-Serif" font-size="10.00" fill="grey"> anEdge</text>
</g>
<!-- Node6 -->
<g id="Node000006" class="node">
<title>Node6</title>
<g id="a_Node000006"><a xlink:href="../../da/d82/sweep_8h.html#de/d91/struct_active_region" target="_top" xlink:title=" ">
<polygon fill="white" stroke="#666666" points="1027,-479.88 952.5,-479.88 952.5,-460.62 1027,-460.62 1027,-479.88"/>
<text text-anchor="middle" x="989.75" y="-466.38" font-family="Helvetica,sans-Serif" font-size="10.00">ActiveRegion</text>
</a>
</g>
</g>
<!-- Node3&#45;&gt;Node6 -->
<g id="edge11_Node000006_Node000003" class="edge">
<title>Node3&#45;&gt;Node6</title>
<g id="a_edge11_Node000006_Node000003"><a xlink:title=" ">
<path fill="none" stroke="#9a32cd" stroke-dasharray="5,2" d="M690.89,-365.1C707.9,-387.84 739.8,-425.26 777,-443.25 807.11,-457.81 900.03,-465.26 952.22,-468.39"/>
<polygon fill="#9a32cd" stroke="#9a32cd" points="693.25,-363.39 684.54,-357.35 687.58,-367.5 693.25,-363.39"/>
</a>
</g>
<text text-anchor="middle" x="837.38" y="-465" font-family="Helvetica,sans-Serif" font-size="10.00" fill="grey"> eUp</text>
</g>
<!-- Node8 -->
<g id="Node000008" class="node">
<title>Node8</title>
<g id="a_Node000008"><a xlink:href="../../d8/d3b/mesh_8h.html#da/dbf/struct_g_l_umesh" target="_top" xlink:title=" ">
<polygon fill="white" stroke="#666666" points="1237.25,-327.88 1177,-327.88 1177,-308.62 1237.25,-308.62 1237.25,-327.88"/>
<text text-anchor="middle" x="1207.12" y="-314.38" font-family="Helvetica,sans-Serif" font-size="10.00">GLUmesh</text>
</a>
</g>
</g>
<!-- Node3&#45;&gt;Node8 -->
<g id="edge17_Node000008_Node000003" class="edge">
<title>Node3&#45;&gt;Node8</title>
<g id="a_edge17_Node000008_Node000003"><a xlink:title=" ">
<path fill="none" stroke="#9a32cd" stroke-dasharray="5,2" d="M725.26,-343.73C832.25,-338.06 1089.48,-324.43 1176.66,-319.81"/>
<polygon fill="#9a32cd" stroke="#9a32cd" points="725.29,-340.28 715.48,-344.3 725.66,-347.27 725.29,-340.28"/>
</a>
</g>
<text text-anchor="middle" x="989.75" y="-345.25" font-family="Helvetica,sans-Serif" font-size="10.00" fill="grey"> eHead</text>
<text text-anchor="middle" x="989.75" y="-334" font-family="Helvetica,sans-Serif" font-size="10.00" fill="grey">eHeadSym</text>
</g>
<!-- Node4&#45;&gt;Node2 -->
<g id="edge23_Node000002_Node000004" class="edge">
<title>Node4&#45;&gt;Node2</title>
<g id="a_edge23_Node000002_Node000004"><a xlink:title=" ">
<path fill="none" stroke="#9a32cd" stroke-dasharray="5,2" d="M1032.2,-393.22C1102.41,-393.96 1248.79,-391.51 1368.5,-363.25 1384.88,-359.38 1402.66,-352.88 1416.35,-347.35"/>
<polygon fill="#9a32cd" stroke="#9a32cd" points="1032.65,-389.72 1022.6,-393.08 1032.55,-396.72 1032.65,-389.72"/>
</a>
</g>
<text text-anchor="middle" x="1207.12" y="-393" font-family="Helvetica,sans-Serif" font-size="10.00" fill="grey"> event</text>
</g>
<!-- Node4&#45;&gt;Node3 -->
<g id="edge4_Node000003_Node000004" class="edge">
<title>Node4&#45;&gt;Node3</title>
<g id="a_edge4_Node000003_Node000004"><a xlink:title=" ">
<path fill="none" stroke="#9a32cd" stroke-dasharray="5,2" d="M947.62,-379.26C924.79,-372.09 900.44,-364.52 897.75,-364 833.98,-351.69 758.21,-347.9 714.29,-346.74"/>
<polygon fill="#9a32cd" stroke="#9a32cd" points="946.33,-382.84 956.92,-382.5 948.43,-376.16 946.33,-382.84"/>
</a>
</g>
<text text-anchor="middle" x="837.38" y="-365" font-family="Helvetica,sans-Serif" font-size="10.00" fill="grey"> Org</text>
</g>
<!-- Node4&#45;&gt;Node4 -->
<g id="edge5_Node000004_Node000004" class="edge">
<title>Node4&#45;&gt;Node4</title>
<g id="a_edge5_Node000004_Node000004"><a xlink:title=" ">
<path fill="none" stroke="#9a32cd" stroke-dasharray="5,2" d="M969.24,-412.6C971.39,-416.83 978.23,-419.88 989.75,-419.88 1009.68,-419.88 1015.6,-410.77 1007.5,-402.16"/>
<polygon fill="#9a32cd" stroke="#9a32cd" points="972.82,-413.73 972,-403.16 966.06,-411.93 972.82,-413.73"/>
</a>
</g>
<text text-anchor="middle" x="989.75" y="-432.88" font-family="Helvetica,sans-Serif" font-size="10.00" fill="grey"> next</text>
<text text-anchor="middle" x="989.75" y="-421.62" font-family="Helvetica,sans-Serif" font-size="10.00" fill="grey">prev</text>
</g>
<!-- Node4&#45;&gt;Node8 -->
<g id="edge15_Node000008_Node000004" class="edge">
<title>Node4&#45;&gt;Node8</title>
<g id="a_edge15_Node000008_Node000004"><a xlink:title=" ">
<path fill="none" stroke="#9a32cd" stroke-dasharray="5,2" d="M1032.31,-385.41C1059.79,-379.65 1095.87,-369.65 1124.5,-353.25 1134.05,-347.78 1132.93,-341.68 1142.5,-336.25 1152.98,-330.3 1165.57,-326.2 1176.77,-323.44"/>
<polygon fill="#9a32cd" stroke="#9a32cd" points="1031.99,-382.1 1022.86,-387.48 1033.35,-388.97 1031.99,-382.1"/>
</a>
</g>
<text text-anchor="middle" x="1103.12" y="-373" font-family="Helvetica,sans-Serif" font-size="10.00" fill="grey"> vHead</text>
</g>
<!-- Node5&#45;&gt;Node2 -->
<g id="edge24_Node000002_Node000005" class="edge">
<title>Node5&#45;&gt;Node2</title>
<g id="a_edge24_Node000002_Node000005"><a xlink:title=" ">
<path fill="none" stroke="#9a32cd" stroke-dasharray="5,2" d="M1028.51,-249.36C1082.74,-255.63 1185.62,-268.9 1271.75,-288 1320.83,-298.88 1376.61,-316.28 1409.92,-327.22"/>
<polygon fill="#9a32cd" stroke="#9a32cd" points="1029.04,-245.78 1018.71,-248.13 1028.25,-252.74 1029.04,-245.78"/>
</a>
</g>
<text text-anchor="middle" x="1207.12" y="-289" font-family="Helvetica,sans-Serif" font-size="10.00" fill="grey"> lonelyTriList</text>
</g>
<!-- Node5&#45;&gt;Node3 -->
<g id="edge7_Node000003_Node000005" class="edge">
<title>Node5&#45;&gt;Node3</title>
<g id="a_edge7_Node000003_Node000005"><a xlink:title=" ">
<path fill="none" stroke="#9a32cd" stroke-dasharray="5,2" d="M951.09,-241.16C907.44,-237.95 834.2,-237.36 777,-261 736.49,-277.75 700.65,-317.7 685.46,-336.34"/>
<polygon fill="#9a32cd" stroke="#9a32cd" points="950.53,-244.71 960.78,-242.04 951.11,-237.73 950.53,-244.71"/>
</a>
</g>
<text text-anchor="middle" x="837.38" y="-262" font-family="Helvetica,sans-Serif" font-size="10.00" fill="grey"> Lface</text>
</g>
<!-- Node5&#45;&gt;Node5 -->
<g id="edge8_Node000005_Node000005" class="edge">
<title>Node5&#45;&gt;Node5</title>
<g id="a_edge8_Node000005_Node000005"><a xlink:title=" ">
<path fill="none" stroke="#9a32cd" stroke-dasharray="5,2" d="M969.24,-265.6C971.39,-269.83 978.23,-272.88 989.75,-272.88 1009.68,-272.88 1015.6,-263.77 1007.5,-255.16"/>
<polygon fill="#9a32cd" stroke="#9a32cd" points="972.82,-266.73 972,-256.16 966.06,-264.93 972.82,-266.73"/>
</a>
</g>
<text text-anchor="middle" x="989.75" y="-297.12" font-family="Helvetica,sans-Serif" font-size="10.00" fill="grey"> next</text>
<text text-anchor="middle" x="989.75" y="-285.88" font-family="Helvetica,sans-Serif" font-size="10.00" fill="grey">prev</text>
<text text-anchor="middle" x="989.75" y="-274.62" font-family="Helvetica,sans-Serif" font-size="10.00" fill="grey">trail</text>
</g>
<!-- Node5&#45;&gt;Node8 -->
<g id="edge16_Node000008_Node000005" class="edge">
<title>Node5&#45;&gt;Node8</title>
<g id="a_edge16_Node000008_Node000005"><a xlink:title=" ">
<path fill="none" stroke="#9a32cd" stroke-dasharray="5,2" d="M1025.28,-259.19C1042.2,-265.85 1062.93,-273.77 1081.75,-280.25 1113.88,-291.32 1151.22,-302.51 1176.53,-309.85"/>
<polygon fill="#9a32cd" stroke="#9a32cd" points="1026.88,-255.66 1016.3,-255.23 1024.3,-262.17 1026.88,-255.66"/>
</a>
</g>
<text text-anchor="middle" x="1103.12" y="-295" font-family="Helvetica,sans-Serif" font-size="10.00" fill="grey"> fHead</text>
</g>
<!-- Node6&#45;&gt;Node3 -->
<g id="edge10_Node000003_Node000006" class="edge">
<title>Node6&#45;&gt;Node3</title>
<g id="a_edge10_Node000003_Node000006"><a xlink:title=" ">
<path fill="none" stroke="#9a32cd" stroke-dasharray="5,2" d="M941.78,-462.21C932.77,-459.53 923.68,-455.97 915.75,-451.25 905.68,-445.26 907.88,-437.88 897.75,-432 850.05,-404.29 828.28,-423.59 777,-403.25 745.05,-390.58 710.95,-369 692.21,-356.34"/>
<polygon fill="#9a32cd" stroke="#9a32cd" points="940.69,-465.81 951.26,-464.97 942.48,-459.04 940.69,-465.81"/>
</a>
</g>
<text text-anchor="middle" x="837.38" y="-433" font-family="Helvetica,sans-Serif" font-size="10.00" fill="grey"> activeRegion</text>
</g>
<!-- Node7 -->
<g id="Node000007" class="node">
<title>Node7</title>
<g id="a_Node000007"><a xlink:href="../../d8/d7c/dict_8h.html#d8/db1/struct_dict_node" target="_top" xlink:title=" ">
<polygon fill="white" stroke="#666666" points="705.38,-525.88 648.12,-525.88 648.12,-506.62 705.38,-506.62 705.38,-525.88"/>
<text text-anchor="middle" x="676.75" y="-512.38" font-family="Helvetica,sans-Serif" font-size="10.00">DictNode</text>
</a>
</g>
</g>
<!-- Node7&#45;&gt;Node6 -->
<g id="edge12_Node000006_Node000007" class="edge">
<title>Node7&#45;&gt;Node6</title>
<g id="a_edge12_Node000006_Node000007"><a xlink:title=" ">
<path fill="none" stroke="#9a32cd" stroke-dasharray="5,2" d="M716.14,-509.76C734.53,-506.7 756.89,-503.06 777,-500 838.47,-490.65 910.15,-480.8 952.37,-475.11"/>
<polygon fill="#9a32cd" stroke="#9a32cd" points="715.82,-506.43 706.53,-511.53 716.97,-513.33 715.82,-506.43"/>
</a>
</g>
<text text-anchor="middle" x="837.38" y="-501" font-family="Helvetica,sans-Serif" font-size="10.00" fill="grey"> nodeUp</text>
</g>
<!-- Node7&#45;&gt;Node7 -->
<g id="edge13_Node000007_Node000007" class="edge">
<title>Node7&#45;&gt;Node7</title>
<g id="a_edge13_Node000007_Node000007"><a xlink:title=" ">
<path fill="none" stroke="#9a32cd" stroke-dasharray="5,2" d="M654.2,-536.6C656.57,-540.83 664.09,-543.88 676.75,-543.88 698.66,-543.88 705.16,-534.77 696.26,-526.16"/>
<polygon fill="#9a32cd" stroke="#9a32cd" points="657.8,-537.74 657.24,-527.16 651.08,-535.79 657.8,-537.74"/>
</a>
</g>
<text text-anchor="middle" x="676.75" y="-556.88" font-family="Helvetica,sans-Serif" font-size="10.00" fill="grey"> next</text>
<text text-anchor="middle" x="676.75" y="-545.62" font-family="Helvetica,sans-Serif" font-size="10.00" fill="grey">prev</text>
</g>
<!-- Node9 -->
<g id="Node000009" class="node">
<title>Node9</title>
<g id="a_Node000009"><a xlink:href="../../d4/dfe/struct_dict.html" target="_top" xlink:title=" ">
<polygon fill="white" stroke="#666666" points="1120.12,-522.88 1086.12,-522.88 1086.12,-503.62 1120.12,-503.62 1120.12,-522.88"/>
<text text-anchor="middle" x="1103.12" y="-509.38" font-family="Helvetica,sans-Serif" font-size="10.00">Dict</text>
</a>
</g>
</g>
<!-- Node7&#45;&gt;Node9 -->
<g id="edge19_Node000009_Node000007" class="edge">
<title>Node7&#45;&gt;Node9</title>
<g id="a_edge19_Node000009_Node000007"><a xlink:title=" ">
<path fill="none" stroke="#9a32cd" stroke-dasharray="5,2" d="M716.36,-515.98C805.94,-515.34 1024.94,-513.8 1086.06,-513.36"/>
<polygon fill="#9a32cd" stroke="#9a32cd" points="716.57,-512.48 706.59,-516.05 716.62,-519.48 716.57,-512.48"/>
</a>
</g>
<text text-anchor="middle" x="837.38" y="-517" font-family="Helvetica,sans-Serif" font-size="10.00" fill="grey"> head</text>
</g>
<!-- Node8&#45;&gt;Node2 -->
<g id="edge14_Node000002_Node000008" class="edge">
<title>Node8&#45;&gt;Node2</title>
<g id="a_edge14_Node000002_Node000008"><a xlink:title=" ">
<path fill="none" stroke="#9a32cd" stroke-dasharray="5,2" d="M1248.6,-319.47C1281.07,-320.68 1327.79,-322.96 1368.5,-327 1379.05,-328.05 1390.44,-329.53 1400.94,-331.04"/>
<polygon fill="#9a32cd" stroke="#9a32cd" points="1248.86,-315.94 1238.74,-319.08 1248.61,-322.93 1248.86,-315.94"/>
</a>
</g>
<text text-anchor="middle" x="1329.12" y="-328" font-family="Helvetica,sans-Serif" font-size="10.00" fill="grey"> mesh</text>
</g>
<!-- Node9&#45;&gt;Node2 -->
<g id="edge18_Node000002_Node000009" class="edge">
<title>Node9&#45;&gt;Node2</title>
<g id="a_edge18_Node000002_Node000009"><a xlink:title=" ">
<path fill="none" stroke="#9a32cd" stroke-dasharray="5,2" d="M1131.15,-507.72C1181.31,-496.52 1290.74,-467.68 1368.5,-415.25 1396.76,-396.19 1421.5,-363.65 1432.92,-347.28"/>
<polygon fill="#9a32cd" stroke="#9a32cd" points="1130.59,-504.47 1121.56,-510.01 1132.07,-511.31 1130.59,-504.47"/>
</a>
</g>
<text text-anchor="middle" x="1207.12" y="-506" font-family="Helvetica,sans-Serif" font-size="10.00" fill="grey"> dict</text>
</g>
<!-- Node10 -->
<g id="Node000010" class="node">
<title>Node10</title>
<g id="a_Node000010"><a xlink:href="../../d7/db8/struct_priority_q.html" target="_top" xlink:title=" ">
<polygon fill="white" stroke="#666666" points="1234.25,-580.88 1180,-580.88 1180,-561.62 1234.25,-561.62 1234.25,-580.88"/>
<text text-anchor="middle" x="1207.12" y="-567.38" font-family="Helvetica,sans-Serif" font-size="10.00">PriorityQ</text>
</a>
</g>
</g>
<!-- Node10&#45;&gt;Node2 -->
<g id="edge20_Node000002_Node000010" class="edge">
<title>Node10&#45;&gt;Node2</title>
<g id="a_edge20_Node000002_Node000010"><a xlink:title=" ">
<path fill="none" stroke="#9a32cd" stroke-dasharray="5,2" d="M1245.08,-565.05C1280.85,-557.28 1334.51,-540.68 1368.5,-507.25 1416.4,-460.14 1433.57,-375.92 1438.2,-347.18"/>
<polygon fill="#9a32cd" stroke="#9a32cd" points="1244.7,-561.76 1235.6,-567.19 1246.1,-568.62 1244.7,-561.76"/>
</a>
</g>
<text text-anchor="middle" x="1329.12" y="-553" font-family="Helvetica,sans-Serif" font-size="10.00" fill="grey"> pq</text>
</g>
<!-- Node11 -->
<g id="Node000011" class="node">
<title>Node11</title>
<g id="a_Node000011"><a xlink:href="../../dd/d76/priorityq-heap_8h.html#dd/d1c/struct_p_qnode" target="_top" xlink:title=" ">
<polygon fill="white" stroke="#666666" points="1015.38,-617.88 964.12,-617.88 964.12,-598.62 1015.38,-598.62 1015.38,-617.88"/>
<text text-anchor="middle" x="989.75" y="-604.38" font-family="Helvetica,sans-Serif" font-size="10.00">PQnode</text>
</a>
</g>
</g>
<!-- Node11&#45;&gt;Node10 -->
<g id="edge21_Node000010_Node000011" class="edge">
<title>Node11&#45;&gt;Node10</title>
<g id="a_edge21_Node000010_Node000011"><a xlink:title=" ">
<path fill="none" stroke="#9a32cd" stroke-dasharray="5,2" d="M1026.26,-602.59C1053.23,-598.25 1091.23,-592.04 1124.5,-586.25 1142.95,-583.04 1163.71,-579.22 1179.68,-576.24"/>
<polygon fill="#9a32cd" stroke="#9a32cd" points="1025.74,-599.29 1016.42,-604.33 1026.85,-606.2 1025.74,-599.29"/>
</a>
</g>
<text text-anchor="middle" x="1103.12" y="-594" font-family="Helvetica,sans-Serif" font-size="10.00" fill="grey"> nodes</text>
</g>
<!-- Node12 -->
<g id="Node000012" class="node">
<title>Node12</title>
<g id="a_Node000012"><a xlink:href="../../dd/d76/priorityq-heap_8h.html#d9/d21/struct_p_qhandle_elem" target="_top" xlink:title=" ">
<polygon fill="white" stroke="#666666" points="1030.38,-580.88 949.12,-580.88 949.12,-561.62 1030.38,-561.62 1030.38,-580.88"/>
<text text-anchor="middle" x="989.75" y="-567.38" font-family="Helvetica,sans-Serif" font-size="10.00">PQhandleElem</text>
</a>
</g>
</g>
<!-- Node12&#45;&gt;Node10 -->
<g id="edge22_Node000010_Node000012" class="edge">
<title>Node12&#45;&gt;Node10</title>
<g id="a_edge22_Node000010_Node000012"><a xlink:title=" ">
<path fill="none" stroke="#9a32cd" stroke-dasharray="5,2" d="M1041.64,-571.25C1084.9,-571.25 1145.3,-571.25 1179.58,-571.25"/>
<polygon fill="#9a32cd" stroke="#9a32cd" points="1041.76,-567.75 1031.76,-571.25 1041.76,-574.75 1041.76,-567.75"/>
</a>
</g>
<text text-anchor="middle" x="1103.12" y="-573" font-family="Helvetica,sans-Serif" font-size="10.00" fill="grey"> handles</text>
</g>
<!-- Node13 -->
<g id="Node000013" class="node">
<title>Node13</title>
<g id="a_Node000013"><a xlink:href="../../d4/d44/tess_8h.html#d7/d13/struct_cached_vertex" target="_top" xlink:title=" ">
<polygon fill="white" stroke="#666666" points="1246.25,-364.88 1168,-364.88 1168,-345.62 1246.25,-345.62 1246.25,-364.88"/>
<text text-anchor="middle" x="1207.12" y="-351.38" font-family="Helvetica,sans-Serif" font-size="10.00">CachedVertex</text>
</a>
</g>
</g>
<!-- Node13&#45;&gt;Node2 -->
<g id="edge25_Node000002_Node000013" class="edge">
<title>Node13&#45;&gt;Node2</title>
<g id="a_edge25_Node000002_Node000013"><a xlink:title=" ">
<path fill="none" stroke="#9a32cd" stroke-dasharray="5,2" d="M1257.34,-351.42C1300.1,-348.1 1361.22,-343.35 1400.66,-340.28"/>
<polygon fill="#9a32cd" stroke="#9a32cd" points="1257.31,-347.99 1247.61,-352.26 1257.85,-354.97 1257.31,-347.99"/>
</a>
</g>
<text text-anchor="middle" x="1329.12" y="-350" font-family="Helvetica,sans-Serif" font-size="10.00" fill="grey"> cache</text>
</g>
<!-- Node14 -->
<g id="Node000014" class="node">
<title>Node14</title>
<g id="a_Node000014"><a xlink:title=" ">
<polygon fill="white" stroke="#666666" points="1494.75,-135.88 1386.5,-135.88 1386.5,-116.62 1494.75,-116.62 1494.75,-135.88"/>
<text text-anchor="middle" x="1440.62" y="-122.38" font-family="Helvetica,sans-Serif" font-size="10.00">std::vector&lt; Vec3d &gt;</text>
</a>
</g>
</g>
<!-- Node14&#45;&gt;Node1 -->
<g id="edge26_Node000001_Node000014" class="edge">
<title>Node14&#45;&gt;Node1</title>
<g id="a_edge26_Node000001_Node000014"><a xlink:title=" ">
<path fill="none" stroke="#9a32cd" stroke-dasharray="5,2" d="M1505.58,-136.19C1537.33,-141.26 1576.23,-147.68 1611,-154 1619.78,-155.6 1629.11,-157.38 1638.12,-159.15"/>
<polygon fill="#9a32cd" stroke="#9a32cd" points="1506.53,-132.64 1496.11,-134.53 1505.43,-139.55 1506.53,-132.64"/>
</a>
</g>
<text text-anchor="middle" x="1561.88" y="-155" font-family="Helvetica,sans-Serif" font-size="10.00" fill="grey"> m_output_triangles</text>
</g>
<!-- Node15 -->
<g id="Node000015" class="node">
<title>Node15</title>
<g id="a_Node000015"><a xlink:href="../../d2/d2d/class_eigen_1_1_matrix.html" target="_top" xlink:title="The matrix class, also used for vectors and row&#45;vectors.">
<polygon fill="white" stroke="#666666" points="1271.75,-96.12 1142.5,-96.12 1142.5,-54.38 1271.75,-54.38 1271.75,-96.12"/>
<text text-anchor="start" x="1150.5" y="-82.62" font-family="Helvetica,sans-Serif" font-size="10.00">Eigen::Matrix&lt; _Scalar,</text>
<text text-anchor="start" x="1150.5" y="-71.38" font-family="Helvetica,sans-Serif" font-size="10.00"> _Rows, _Cols, _Options,</text>
<text text-anchor="middle" x="1207.12" y="-60.12" font-family="Helvetica,sans-Serif" font-size="10.00"> _MaxRows, _MaxCols &gt;</text>
</a>
</g>
</g>
<!-- Node15&#45;&gt;Node14 -->
<g id="edge27_Node000014_Node000015" class="edge">
<title>Node15&#45;&gt;Node14</title>
<g id="a_edge27_Node000014_Node000015"><a xlink:title=" ">
<path fill="none" stroke="#9a32cd" stroke-dasharray="5,2" d="M1282.69,-59.45C1310.36,-56.66 1341.54,-57.24 1368.5,-67 1395.7,-76.85 1419.81,-102.14 1431.73,-116.29"/>
<polygon fill="#9a32cd" stroke="#9a32cd" points="1282.4,-56.07 1272.88,-60.72 1283.23,-63.03 1282.4,-56.07"/>
</a>
</g>
<text text-anchor="middle" x="1329.12" y="-69" font-family="Helvetica,sans-Serif" font-size="10.00" fill="grey"> elements</text>
</g>
<!-- Node27 -->
<g id="Node000027" class="node">
<title>Node27</title>
<g id="a_Node000027"><a xlink:title=" ">
<polygon fill="white" stroke="#666666" points="1491.38,-184.5 1389.88,-184.5 1389.88,-154 1491.38,-154 1491.38,-184.5"/>
<text text-anchor="start" x="1397.88" y="-171" font-family="Helvetica,sans-Serif" font-size="10.00">std::deque&lt; Eigen::</text>
<text text-anchor="middle" x="1440.62" y="-159.75" font-family="Helvetica,sans-Serif" font-size="10.00">Matrix &gt;</text>
</a>
</g>
</g>
<!-- Node15&#45;&gt;Node27 -->
<g id="edge39_Node000027_Node000015" class="edge">
<title>Node15&#45;&gt;Node27</title>
<g id="a_edge39_Node000027_Node000015"><a xlink:title=" ">
<path fill="none" stroke="#9a32cd" stroke-dasharray="5,2" d="M1282.52,-79.21C1311.7,-83.92 1343.99,-93.37 1368.5,-112 1381.88,-122.17 1374.2,-133.8 1386.5,-145.25 1389.83,-148.35 1393.64,-151.11 1397.64,-153.54"/>
<polygon fill="#9a32cd" stroke="#9a32cd" points="1283.32,-75.64 1272.93,-77.68 1282.33,-82.57 1283.32,-75.64"/>
</a>
</g>
<text text-anchor="middle" x="1329.12" y="-113" font-family="Helvetica,sans-Serif" font-size="10.00" fill="grey"> elements</text>
</g>
<!-- Node16 -->
<g id="Node000016" class="node">
<title>Node16</title>
<g id="a_Node000016"><a xlink:href="../../da/d8d/class_eigen_1_1_plain_object_base.html" target="_top" xlink:title=" ">
<polygon fill="white" stroke="#666666" points="1063.75,-101.75 915.75,-101.75 915.75,-48.75 1063.75,-48.75 1063.75,-101.75"/>
<text text-anchor="start" x="923.75" y="-88.25" font-family="Helvetica,sans-Serif" font-size="10.00">Eigen::PlainObjectBase</text>
<text text-anchor="start" x="923.75" y="-77" font-family="Helvetica,sans-Serif" font-size="10.00">&lt; Matrix&lt; _Scalar, _Rows,</text>
<text text-anchor="start" x="923.75" y="-65.75" font-family="Helvetica,sans-Serif" font-size="10.00"> _Cols, _Options, _MaxRows,</text>
<text text-anchor="middle" x="989.75" y="-54.5" font-family="Helvetica,sans-Serif" font-size="10.00"> _MaxCols &gt; &gt;</text>
</a>
</g>
</g>
<!-- Node16&#45;&gt;Node15 -->
<g id="edge28_Node000015_Node000016" class="edge">
<title>Node16&#45;&gt;Node15</title>
<g id="a_edge28_Node000015_Node000016"><a xlink:title=" ">
<path fill="none" stroke="#63b8ff" d="M1074.82,-75.25C1097.2,-75.25 1121,-75.25 1142.12,-75.25"/>
<polygon fill="#63b8ff" stroke="#63b8ff" points="1074.97,-71.75 1064.97,-75.25 1074.97,-78.75 1074.97,-71.75"/>
</a>
</g>
</g>
<!-- Node17 -->
<g id="Node000017" class="node">
<title>Node17</title>
<g id="a_Node000017"><a xlink:title=" ">
<polygon fill="white" stroke="#666666" points="759,-101.75 594.5,-101.75 594.5,-48.75 759,-48.75 759,-101.75"/>
<text text-anchor="start" x="602.5" y="-88.25" font-family="Helvetica,sans-Serif" font-size="10.00">internal::dense_xpr</text>
<text text-anchor="start" x="602.5" y="-77" font-family="Helvetica,sans-Serif" font-size="10.00">_base&lt; Matrix&lt; _Scalar,</text>
<text text-anchor="start" x="602.5" y="-65.75" font-family="Helvetica,sans-Serif" font-size="10.00"> _Rows, _Cols, _Options,</text>
<text text-anchor="middle" x="676.75" y="-54.5" font-family="Helvetica,sans-Serif" font-size="10.00"> _MaxRows, _MaxCols &gt; &#160;&gt;::type</text>
</a>
</g>
</g>
<!-- Node17&#45;&gt;Node16 -->
<g id="edge29_Node000016_Node000017" class="edge">
<title>Node17&#45;&gt;Node16</title>
<g id="a_edge29_Node000016_Node000017"><a xlink:title=" ">
<path fill="none" stroke="#63b8ff" d="M770.41,-75.25C816.72,-75.25 871.95,-75.25 915.28,-75.25"/>
<polygon fill="#63b8ff" stroke="#63b8ff" points="770.46,-71.75 760.46,-75.25 770.46,-78.75 770.46,-71.75"/>
</a>
</g>
</g>
<!-- Node18 -->
<g id="Node000018" class="node">
<title>Node18</title>
<g id="a_Node000018"><a xlink:href="../../d5/d91/class_eigen_1_1_dense_storage.html" target="_top" xlink:title=" ">
<polygon fill="white" stroke="#666666" points="509.75,-119.75 325.75,-119.75 325.75,-66.75 509.75,-66.75 509.75,-119.75"/>
<text text-anchor="start" x="333.75" y="-106.25" font-family="Helvetica,sans-Serif" font-size="10.00">Eigen::DenseStorage</text>
<text text-anchor="start" x="333.75" y="-95" font-family="Helvetica,sans-Serif" font-size="10.00">&lt; Scalar, Base::MaxSizeAtCompile</text>
<text text-anchor="start" x="333.75" y="-83.75" font-family="Helvetica,sans-Serif" font-size="10.00">Time, Base::RowsAtCompileTime,</text>
<text text-anchor="middle" x="417.75" y="-72.5" font-family="Helvetica,sans-Serif" font-size="10.00"> Base::ColsAtCompileTime, Options &gt;</text>
</a>
</g>
</g>
<!-- Node18&#45;&gt;Node16 -->
<g id="edge30_Node000016_Node000018" class="edge">
<title>Node18&#45;&gt;Node16</title>
<g id="a_edge30_Node000016_Node000018"><a xlink:title=" ">
<path fill="none" stroke="#9a32cd" stroke-dasharray="5,2" d="M520.47,-105.45C544.7,-107.86 570.49,-110.02 594.5,-111.25 667.52,-114.98 686.11,-116.93 759,-111.25 811.63,-107.15 870.43,-97.85 915.37,-89.73"/>
<polygon fill="#9a32cd" stroke="#9a32cd" points="521.14,-101.9 510.83,-104.36 520.43,-108.86 521.14,-101.9"/>
</a>
</g>
<text text-anchor="middle" x="676.75" y="-116" font-family="Helvetica,sans-Serif" font-size="10.00" fill="grey"> m_storage</text>
</g>
<!-- Node24 -->
<g id="Node000024" class="node">
<title>Node24</title>
<g id="a_Node000024"><a xlink:href="../../da/d8d/class_eigen_1_1_plain_object_base.html" target="_top" xlink:title=" ">
<polygon fill="white" stroke="#666666" points="736.5,-30.5 617,-30.5 617,0 736.5,0 736.5,-30.5"/>
<text text-anchor="start" x="625" y="-17" font-family="Helvetica,sans-Serif" font-size="10.00">Eigen::PlainObjectBase</text>
<text text-anchor="middle" x="676.75" y="-5.75" font-family="Helvetica,sans-Serif" font-size="10.00">&lt; Derived &gt;</text>
</a>
</g>
</g>
<!-- Node18&#45;&gt;Node24 -->
<g id="edge35_Node000024_Node000018" class="edge">
<title>Node18&#45;&gt;Node24</title>
<g id="a_edge35_Node000024_Node000018"><a xlink:title=" ">
<path fill="none" stroke="#9a32cd" stroke-dasharray="5,2" d="M516.25,-63.09C541.7,-55.27 569.12,-46.9 594.5,-39.25 603.51,-36.53 613.1,-33.68 622.4,-30.92"/>
<polygon fill="#9a32cd" stroke="#9a32cd" points="515.38,-60 506.85,-66.28 517.44,-66.69 515.38,-60"/>
</a>
</g>
<text text-anchor="middle" x="552.12" y="-61" font-family="Helvetica,sans-Serif" font-size="10.00" fill="grey"> m_storage</text>
</g>
<!-- Node19 -->
<g id="Node000019" class="node">
<title>Node19</title>
<g id="a_Node000019"><a xlink:href="../../d9/d56/struct_eigen_1_1internal_1_1plain__array.html" target="_top" xlink:title=" ">
<polygon fill="#fff0f0" stroke="red" points="116.88,-148.12 9.38,-148.12 9.38,-106.38 116.88,-106.38 116.88,-148.12"/>
<text text-anchor="start" x="17.38" y="-134.62" font-family="Helvetica,sans-Serif" font-size="10.00">Eigen::internal::plain</text>
<text text-anchor="start" x="17.38" y="-123.38" font-family="Helvetica,sans-Serif" font-size="10.00">_array&lt; Scalar, Size,</text>
<text text-anchor="middle" x="63.12" y="-112.12" font-family="Helvetica,sans-Serif" font-size="10.00"> _Options &gt;</text>
</a>
</g>
</g>
<!-- Node19&#45;&gt;Node18 -->
<g id="edge31_Node000018_Node000019" class="edge">
<title>Node19&#45;&gt;Node18</title>
<g id="a_edge31_Node000018_Node000019"><a xlink:title=" ">
<path fill="none" stroke="#9a32cd" stroke-dasharray="5,2" d="M127.7,-121.85C176.88,-117.59 246.66,-111.37 307.75,-105.25 313.53,-104.67 319.48,-104.06 325.47,-103.43"/>
<polygon fill="#9a32cd" stroke="#9a32cd" points="127.57,-118.44 117.9,-122.78 128.17,-125.41 127.57,-118.44"/>
</a>
</g>
<text text-anchor="middle" x="226" y="-122" font-family="Helvetica,sans-Serif" font-size="10.00" fill="grey"> m_data</text>
</g>
<!-- Node22 -->
<g id="Node000022" class="node">
<title>Node22</title>
<g id="a_Node000022"><a xlink:href="../../d5/d91/class_eigen_1_1_dense_storage.html" target="_top" xlink:title=" ">
<polygon fill="#fff0f0" stroke="red" points="126.25,-80.12 0,-80.12 0,-38.38 126.25,-38.38 126.25,-80.12"/>
<text text-anchor="start" x="8" y="-66.62" font-family="Helvetica,sans-Serif" font-size="10.00">Eigen::DenseStorage</text>
<text text-anchor="start" x="8" y="-55.38" font-family="Helvetica,sans-Serif" font-size="10.00">&lt; T, Size, _Rows, _Cols,</text>
<text text-anchor="middle" x="63.12" y="-44.12" font-family="Helvetica,sans-Serif" font-size="10.00"> _Options &gt;</text>
</a>
</g>
</g>
<!-- Node22&#45;&gt;Node18 -->
<g id="edge32_Node000018_Node000022" class="edge">
<title>Node22&#45;&gt;Node18</title>
<g id="a_edge32_Node000018_Node000022"><a xlink:title=" ">
<path fill="none" stroke="orange" stroke-dasharray="5,2" d="M137.4,-51.69C186.04,-48.31 251.1,-46.9 307.75,-56.25 321.16,-58.46 335.13,-62.11 348.43,-66.28"/>
<polygon fill="orange" stroke="orange" points="137.38,-48.26 127.66,-52.49 137.89,-55.24 137.38,-48.26"/>
</a>
</g>
<text text-anchor="start" x="144.25" y="-91.75" font-family="Helvetica,sans-Serif" font-size="10.00" fill="grey"> &lt; Scalar, Base::MaxSizeAt</text>
<text text-anchor="start" x="144.25" y="-80.5" font-family="Helvetica,sans-Serif" font-size="10.00" fill="grey">CompileTime, Base::RowsAtCompile</text>
<text text-anchor="start" x="144.25" y="-69.25" font-family="Helvetica,sans-Serif" font-size="10.00" fill="grey">Time, Base::ColsAtCompileTime,</text>
<text text-anchor="middle" x="226" y="-58" font-family="Helvetica,sans-Serif" font-size="10.00" fill="grey"> Options &gt;</text>
</g>
<!-- Node24&#45;&gt;Node16 -->
<g id="edge33_Node000016_Node000024" class="edge">
<title>Node24&#45;&gt;Node16</title>
<g id="a_edge33_Node000016_Node000024"><a xlink:title=" ">
<path fill="none" stroke="orange" stroke-dasharray="5,2" d="M747.72,-17.12C791.41,-19.56 848.51,-25.08 897.75,-37.5 908.7,-40.26 920.05,-44.11 930.87,-48.29"/>
<polygon fill="orange" stroke="orange" points="748.09,-13.58 737.92,-16.56 747.73,-20.57 748.09,-13.58"/>
</a>
</g>
<text text-anchor="start" x="777" y="-62.5" font-family="Helvetica,sans-Serif" font-size="10.00" fill="grey"> &lt; Matrix&lt; _Scalar,</text>
<text text-anchor="start" x="777" y="-51.25" font-family="Helvetica,sans-Serif" font-size="10.00" fill="grey"> _Rows, _Cols, _Options,</text>
<text text-anchor="middle" x="837.38" y="-40" font-family="Helvetica,sans-Serif" font-size="10.00" fill="grey"> _MaxRows, _MaxCols &gt; &gt;</text>
</g>
<!-- Node25 -->
<g id="Node000025" class="node">
<title>Node25</title>
<g id="a_Node000025"><a xlink:title=" ">
<polygon fill="white" stroke="#666666" points="467,-30.5 368.5,-30.5 368.5,0 467,0 467,-30.5"/>
<text text-anchor="start" x="376.5" y="-17" font-family="Helvetica,sans-Serif" font-size="10.00">internal::dense_xpr</text>
<text text-anchor="middle" x="417.75" y="-5.75" font-family="Helvetica,sans-Serif" font-size="10.00">_base::type</text>
</a>
</g>
</g>
<!-- Node25&#45;&gt;Node24 -->
<g id="edge34_Node000024_Node000025" class="edge">
<title>Node25&#45;&gt;Node24</title>
<g id="a_edge34_Node000024_Node000025"><a xlink:title=" ">
<path fill="none" stroke="#63b8ff" d="M478.22,-15.25C519.91,-15.25 575.39,-15.25 616.94,-15.25"/>
<polygon fill="#63b8ff" stroke="#63b8ff" points="478.39,-11.75 468.39,-15.25 478.39,-18.75 478.39,-11.75"/>
</a>
</g>
</g>
<!-- Node26 -->
<g id="Node000026" class="node">
<title>Node26</title>
<g id="a_Node000026"><a xlink:title=" ">
<polygon fill="white" stroke="#666666" points="1250.38,-141.88 1163.88,-141.88 1163.88,-122.62 1250.38,-122.62 1250.38,-141.88"/>
<text text-anchor="middle" x="1207.12" y="-128.38" font-family="Helvetica,sans-Serif" font-size="10.00">std::vector&lt; T &gt;</text>
</a>
</g>
</g>
<!-- Node26&#45;&gt;Node14 -->
<g id="edge36_Node000014_Node000026" class="edge">
<title>Node26&#45;&gt;Node14</title>
<g id="a_edge36_Node000014_Node000026"><a xlink:title=" ">
<path fill="none" stroke="orange" stroke-dasharray="5,2" d="M1261.55,-130.87C1298.95,-129.9 1348.73,-128.61 1386.15,-127.64"/>
<polygon fill="orange" stroke="orange" points="1261.76,-127.38 1251.86,-131.14 1261.94,-134.38 1261.76,-127.38"/>
</a>
</g>
<text text-anchor="middle" x="1329.12" y="-131" font-family="Helvetica,sans-Serif" font-size="10.00" fill="grey"> &lt; Vec3d &gt;</text>
</g>
<!-- Node21 -->
<g id="Node000021" class="node">
<title>Node21</title>
<g id="a_Node000021"><a xlink:title=" ">
<polygon fill="white" stroke="#666666" points="1004.15,-159.88 975.35,-159.88 975.35,-140.62 1004.15,-140.62 1004.15,-159.88"/>
<text text-anchor="middle" x="989.75" y="-146.38" font-family="Helvetica,sans-Serif" font-size="10.00">T</text>
</a>
</g>
</g>
<!-- Node21&#45;&gt;Node26 -->
<g id="edge37_Node000026_Node000021" class="edge">
<title>Node21&#45;&gt;Node26</title>
<g id="a_edge37_Node000026_Node000021"><a xlink:title=" ">
<path fill="none" stroke="#9a32cd" stroke-dasharray="5,2" d="M1015.12,-145.19C1033.37,-141.63 1059.01,-137.15 1081.75,-135 1108.84,-132.44 1139.4,-131.74 1163.44,-131.68"/>
<polygon fill="#9a32cd" stroke="#9a32cd" points="1014.66,-141.91 1005.54,-147.3 1016.04,-148.77 1014.66,-141.91"/>
</a>
</g>
<text text-anchor="middle" x="1103.12" y="-136" font-family="Helvetica,sans-Serif" font-size="10.00" fill="grey"> elements</text>
</g>
<!-- Node28 -->
<g id="Node000028" class="node">
<title>Node28</title>
<g id="a_Node000028"><a xlink:title=" ">
<polygon fill="white" stroke="#666666" points="1250,-178.88 1164.25,-178.88 1164.25,-159.62 1250,-159.62 1250,-178.88"/>
<text text-anchor="middle" x="1207.12" y="-165.38" font-family="Helvetica,sans-Serif" font-size="10.00">std::deque&lt; T &gt;</text>
</a>
</g>
</g>
<!-- Node21&#45;&gt;Node28 -->
<g id="edge41_Node000028_Node000021" class="edge">
<title>Node21&#45;&gt;Node28</title>
<g id="a_edge41_Node000028_Node000021"><a xlink:title=" ">
<path fill="none" stroke="#9a32cd" stroke-dasharray="5,2" d="M1015.07,-152.4C1051.18,-155.58 1119.45,-161.6 1163.85,-165.52"/>
<polygon fill="#9a32cd" stroke="#9a32cd" points="1015.82,-148.86 1005.55,-151.47 1015.2,-155.83 1015.82,-148.86"/>
</a>
</g>
<text text-anchor="middle" x="1103.12" y="-163" font-family="Helvetica,sans-Serif" font-size="10.00" fill="grey"> elements</text>
</g>
<!-- Node27&#45;&gt;Node1 -->
<g id="edge38_Node000001_Node000027" class="edge">
<title>Node27&#45;&gt;Node1</title>
<g id="a_edge38_Node000001_Node000027"><a xlink:title=" ">
<path fill="none" stroke="#9a32cd" stroke-dasharray="5,2" d="M1502.22,-169.25C1540.82,-169.25 1590.57,-169.25 1628.77,-169.25"/>
<polygon fill="#9a32cd" stroke="#9a32cd" points="1502.65,-165.75 1492.65,-169.25 1502.65,-172.75 1502.65,-165.75"/>
</a>
</g>
<text text-anchor="middle" x="1561.88" y="-171" font-family="Helvetica,sans-Serif" font-size="10.00" fill="grey"> m_intersection_points</text>
</g>
<!-- Node28&#45;&gt;Node27 -->
<g id="edge40_Node000027_Node000028" class="edge">
<title>Node28&#45;&gt;Node27</title>
<g id="a_edge40_Node000027_Node000028"><a xlink:title=" ">
<path fill="none" stroke="orange" stroke-dasharray="5,2" d="M1260.84,-169.25C1299.51,-169.25 1351.67,-169.25 1389.67,-169.25"/>
<polygon fill="orange" stroke="orange" points="1261.32,-165.75 1251.32,-169.25 1261.32,-172.75 1261.32,-165.75"/>
</a>
</g>
<text text-anchor="middle" x="1329.12" y="-171" font-family="Helvetica,sans-Serif" font-size="10.00" fill="grey"> &lt; Eigen::Matrix &gt;</text>
</g>
</g>
</svg>
