<?xml version="1.0" encoding="UTF-8" standalone="no"?>
<!DOCTYPE svg PUBLIC "-//W3C//DTD SVG 1.1//EN"
 "http://www.w3.org/Graphics/SVG/1.1/DTD/svg11.dtd">
<!-- Generated by graphviz version 8.0.5 (20230430.1635)
 -->
<!-- Title: Slic3r::AABBMesh::query_ray_hits Pages: 1 -->
<svg width="591pt" height="39pt"
 viewBox="0.00 0.00 591.00 38.50" xmlns="http://www.w3.org/2000/svg" xmlns:xlink="http://www.w3.org/1999/xlink">
<g id="graph0" class="graph" transform="scale(1 1) rotate(0) translate(4 34.5)">
<title>Slic3r::AABBMesh::query_ray_hits</title>
<!-- Node1 -->
<g id="Node000001" class="node">
<title>Node1</title>
<g id="a_Node000001"><a xlink:title=" ">
<polygon fill="#999999" stroke="#666666" points="127.75,-30.5 0,-30.5 0,0 127.75,0 127.75,-30.5"/>
<text text-anchor="start" x="8" y="-17" font-family="Helvetica,sans-Serif" font-size="10.00">Slic3r::AABBMesh::query</text>
<text text-anchor="middle" x="63.88" y="-5.75" font-family="Helvetica,sans-Serif" font-size="10.00">_ray_hits</text>
</a>
</g>
</g>
<!-- Node2 -->
<g id="Node000002" class="node">
<title>Node2</title>
<g id="a_Node000002"><a xlink:href="../../d7/dfa/class_slic3r_1_1_a_a_b_b_mesh.html#a9ca754f4cbe547b8d5b4fb045a64a8a3" target="_top" xlink:title=" ">
<polygon fill="white" stroke="#666666" points="296.75,-30.5 163.75,-30.5 163.75,0 296.75,0 296.75,-30.5"/>
<text text-anchor="start" x="171.75" y="-17" font-family="Helvetica,sans-Serif" font-size="10.00">Slic3r::AABBMesh::normal</text>
<text text-anchor="middle" x="230.25" y="-5.75" font-family="Helvetica,sans-Serif" font-size="10.00">_by_face_id</text>
</a>
</g>
</g>
<!-- Node1&#45;&gt;Node2 -->
<g id="edge1_Node000001_Node000002" class="edge">
<title>Node1&#45;&gt;Node2</title>
<g id="a_edge1_Node000001_Node000002"><a xlink:title=" ">
<path fill="none" stroke="#63b8ff" d="M127.96,-15.25C136.01,-15.25 144.33,-15.25 152.57,-15.25"/>
<polygon fill="#63b8ff" stroke="#63b8ff" points="152.34,-18.75 162.34,-15.25 152.34,-11.75 152.34,-18.75"/>
</a>
</g>
</g>
<!-- Node3 -->
<g id="Node000003" class="node">
<title>Node3</title>
<g id="a_Node000003"><a xlink:href="../../de/db8/namespace_slic3r.html#aae136d73e98302ad7af3d92430190cda" target="_top" xlink:title=" ">
<polygon fill="white" stroke="#666666" points="453,-30.5 332.75,-30.5 332.75,0 453,0 453,-30.5"/>
<text text-anchor="start" x="340.75" y="-17" font-family="Helvetica,sans-Serif" font-size="10.00">Slic3r::its_unnormalized</text>
<text text-anchor="middle" x="392.88" y="-5.75" font-family="Helvetica,sans-Serif" font-size="10.00">_normal</text>
</a>
</g>
</g>
<!-- Node2&#45;&gt;Node3 -->
<g id="edge2_Node000002_Node000003" class="edge">
<title>Node2&#45;&gt;Node3</title>
<g id="a_edge2_Node000002_Node000003"><a xlink:title=" ">
<path fill="none" stroke="#63b8ff" d="M297.05,-15.25C305.09,-15.25 313.33,-15.25 321.43,-15.25"/>
<polygon fill="#63b8ff" stroke="#63b8ff" points="321.37,-18.75 331.37,-15.25 321.37,-11.75 321.37,-18.75"/>
</a>
</g>
</g>
<!-- Node4 -->
<g id="Node000004" class="node">
<title>Node4</title>
<g id="a_Node000004"><a xlink:href="../../de/db8/namespace_slic3r.html#a106b62b80d0eda483b9872670fb332b5" target="_top" xlink:title=" ">
<polygon fill="white" stroke="#666666" points="583,-30.5 489,-30.5 489,0 583,0 583,-30.5"/>
<text text-anchor="start" x="497" y="-17" font-family="Helvetica,sans-Serif" font-size="10.00">Slic3r::its_triangle</text>
<text text-anchor="middle" x="536" y="-5.75" font-family="Helvetica,sans-Serif" font-size="10.00">_vertices</text>
</a>
</g>
</g>
<!-- Node3&#45;&gt;Node4 -->
<g id="edge3_Node000003_Node000004" class="edge">
<title>Node3&#45;&gt;Node4</title>
<g id="a_edge3_Node000003_Node000004"><a xlink:title=" ">
<path fill="none" stroke="#63b8ff" d="M453.32,-15.25C461.5,-15.25 469.89,-15.25 478.02,-15.25"/>
<polygon fill="#63b8ff" stroke="#63b8ff" points="477.92,-18.75 487.92,-15.25 477.92,-11.75 477.92,-18.75"/>
</a>
</g>
</g>
</g>
</svg>
