<?xml version="1.0" encoding="UTF-8" standalone="no"?>
<!DOCTYPE svg PUBLIC "-//W3C//DTD SVG 1.1//EN"
 "http://www.w3.org/Graphics/SVG/1.1/DTD/svg11.dtd">
<!-- Generated by graphviz version 8.0.5 (20230430.1635)
 -->
<!-- Title: Slic3r::AABBMesh::init Pages: 1 -->
<svg width="315pt" height="64pt"
 viewBox="0.00 0.00 315.25 64.25" xmlns="http://www.w3.org/2000/svg" xmlns:xlink="http://www.w3.org/1999/xlink">
<g id="graph0" class="graph" transform="scale(1 1) rotate(0) translate(4 60.25)">
<title>Slic3r::AABBMesh::init</title>
<!-- Node1 -->
<g id="Node000001" class="node">
<title>Node1</title>
<g id="a_Node000001"><a xlink:title=" ">
<polygon fill="#999999" stroke="#666666" points="307.25,-37.25 190.75,-37.25 190.75,-18 307.25,-18 307.25,-37.25"/>
<text text-anchor="middle" x="249" y="-23.75" font-family="Helvetica,sans-Serif" font-size="10.00">Slic3r::AABBMesh::init</text>
</a>
</g>
</g>
<!-- Node2 -->
<g id="Node000002" class="node">
<title>Node2</title>
<g id="a_Node000002"><a xlink:href="../../d7/dfa/class_slic3r_1_1_a_a_b_b_mesh.html#ae1826be5b65aca9a9a69f6e8ada3d794" target="_top" xlink:title=" ">
<polygon fill="white" stroke="#666666" points="154.75,-56.25 0,-56.25 0,-37 154.75,-37 154.75,-56.25"/>
<text text-anchor="middle" x="77.38" y="-42.75" font-family="Helvetica,sans-Serif" font-size="10.00">Slic3r::AABBMesh::AABBMesh</text>
</a>
</g>
</g>
<!-- Node1&#45;&gt;Node2 -->
<g id="edge1_Node000001_Node000002" class="edge">
<title>Node1&#45;&gt;Node2</title>
<g id="a_edge1_Node000001_Node000002"><a xlink:title=" ">
<path fill="none" stroke="#63b8ff" d="M179.66,-35.28C171.54,-36.19 163.22,-37.12 154.99,-38.04"/>
<polygon fill="#63b8ff" stroke="#63b8ff" points="180.02,-38.65 189.57,-34.06 179.25,-31.69 180.02,-38.65"/>
</a>
</g>
</g>
<!-- Node3 -->
<g id="Node000003" class="node">
<title>Node3</title>
<g id="a_Node000003"><a xlink:href="../../d7/dfa/class_slic3r_1_1_a_a_b_b_mesh.html#ab7d9a9da261fc1b09e69cd74c1b40101" target="_top" xlink:title=" ">
<polygon fill="white" stroke="#666666" points="154.75,-19.25 0,-19.25 0,0 154.75,0 154.75,-19.25"/>
<text text-anchor="middle" x="77.38" y="-5.75" font-family="Helvetica,sans-Serif" font-size="10.00">Slic3r::AABBMesh::AABBMesh</text>
</a>
</g>
</g>
<!-- Node1&#45;&gt;Node3 -->
<g id="edge2_Node000001_Node000003" class="edge">
<title>Node1&#45;&gt;Node3</title>
<g id="a_edge2_Node000001_Node000003"><a xlink:title=" ">
<path fill="none" stroke="#63b8ff" d="M179.66,-20.37C171.54,-19.51 163.22,-18.63 154.99,-17.76"/>
<polygon fill="#63b8ff" stroke="#63b8ff" points="179.26,-23.96 189.57,-21.53 180,-17 179.26,-23.96"/>
</a>
</g>
</g>
</g>
</svg>
