<?xml version="1.0" encoding="UTF-8" standalone="no"?>
<!DOCTYPE svg PUBLIC "-//W3C//DTD SVG 1.1//EN"
 "http://www.w3.org/Graphics/SVG/1.1/DTD/svg11.dtd">
<!-- Generated by graphviz version 8.0.5 (20230430.1635)
 -->
<!-- Title: Slic3r::AABBTreeIndirect::Tree::build_modify_input Pages: 1 -->
<!--zoomable 471 -->

<svg id="main" version="1.1" xmlns="http://www.w3.org/2000/svg" xmlns:xlink="http://www.w3.org/1999/xlink" xml:space="preserve" onload="init(evt)">
<style type="text/css"><![CDATA[
.node, .edge {opacity: 0.7;}
.node.selected, .edge.selected {opacity: 1;}
.edge:hover path { stroke: red; }
.edge:hover polygon { stroke: red; fill: red; }
]]></style>

<defs>
  <circle id="rim" cx="0" cy="0" r="7"/>
  <circle id="rim2" cx="0" cy="0" r="3.5"/>
  <g id="zoomPlus">
    <use xlink:href="#rim" fill="#404040"><set attributeName="fill" to="#808080" begin="zoomplus.mouseover" end="zoomplus.mouseout"/></use>
    <path d="M-4,0h8M0,-4v8" fill="none" stroke="white" stroke-width="1.5" pointer-events="none"/>
  </g>
  <g id="zoomMin">
    <use xlink:href="#rim" fill="#404040"><set attributeName="fill" to="#808080" begin="zoomminus.mouseover" end="zoomminus.mouseout"/></use>
    <path d="M-4,0h8" fill="none" stroke="white" stroke-width="1.5" pointer-events="none"/>
  </g>
  <g id="arrowUp" transform="translate(30 24)">
    <use xlink:href="#rim"/>
    <path pointer-events="none" fill="none" stroke="white" stroke-width="1.5" d="M0,-3.0v7 M-2.5,-0.5L0,-3.0L2.5,-0.5"/>
  </g>
  <g id="arrowRight" transform="rotate(90) translate(36 -43)">
    <use xlink:href="#rim"/>
    <path pointer-events="none" fill="none" stroke="white" stroke-width="1.5" d="M0,-3.0v7 M-2.5,-0.5L0,-3.0L2.5,-0.5"/>
  </g>
  <g id="arrowDown" transform="rotate(180) translate(-30 -48)">
    <use xlink:href="#rim"/>
    <path pointer-events="none" fill="none" stroke="white" stroke-width="1.5" d="M0,-3.0v7 M-2.5,-0.5L0,-3.0L2.5,-0.5"/>
  </g>
  <g id="arrowLeft" transform="rotate(270) translate(-36 17)">
    <use xlink:href="#rim"/>
    <path pointer-events="none" fill="none" stroke="white" stroke-width="1.5" d="M0,-3.0v7 M-2.5,-0.5L0,-3.0L2.5,-0.5"/>
  </g>
  <g id="resetDef">
    <use xlink:href="#rim2" fill="#404040"><set attributeName="fill" to="#808080" begin="reset.mouseover" end="reset.mouseout"/></use>
  </g>
</defs>
<script type="application/ecmascript">
var viewWidth = 1003;
var viewHeight = 471;
var sectionId = 'dynsection-6';
</script>
<script type="application/ecmascript" xlink:href="../../svg.min.js"/>
<svg id="graph" class="graph">
<g id="viewport">
<title>Slic3r::AABBTreeIndirect::Tree::build_modify_input</title>
<!-- Node1 -->
<g id="Node000001" class="node">
<title>Node1</title>
<g id="a_Node000001"><a xlink:title=" ">
<polygon fill="#999999" stroke="#666666" points="994.5,-304.5 866,-304.5 866,-274 994.5,-274 994.5,-304.5"/>
<text text-anchor="start" x="874" y="-291" font-family="Helvetica,sans-Serif" font-size="10.00">Slic3r::AABBTreeIndirect</text>
<text text-anchor="middle" x="930.25" y="-279.75" font-family="Helvetica,sans-Serif" font-size="10.00">::Tree::build_modify_input</text>
</a>
</g>
</g>
<!-- Node2 -->
<g id="Node000002" class="node">
<title>Node2</title>
<g id="a_Node000002"><a xlink:href="../../db/d1d/class_slic3r_1_1_a_a_b_b_tree_indirect_1_1_tree.html#aa1ebaa4e5e9d50b4ab9633e79e1cec36" target="_top" xlink:title=" ">
<polygon fill="white" stroke="#666666" points="821,-425.5 695.5,-425.5 695.5,-395 821,-395 821,-425.5"/>
<text text-anchor="start" x="703.5" y="-412" font-family="Helvetica,sans-Serif" font-size="10.00">Slic3r::AABBTreeIndirect</text>
<text text-anchor="middle" x="758.25" y="-400.75" font-family="Helvetica,sans-Serif" font-size="10.00">::Tree::build</text>
</a>
</g>
</g>
<!-- Node1&#45;&gt;Node2 -->
<g id="edge1_Node000001_Node000002" class="edge">
<title>Node1&#45;&gt;Node2</title>
<g id="a_edge1_Node000001_Node000002"><a xlink:title=" ">
<path fill="none" stroke="#63b8ff" d="M898.82,-310.91C865.03,-334.96 811.29,-373.21 781.31,-394.55"/>
<polygon fill="#63b8ff" stroke="#63b8ff" points="900.26,-313.47 906.37,-304.82 896.2,-307.77 900.26,-313.47"/>
</a>
</g>
</g>
<!-- Node4 -->
<g id="Node000004" class="node">
<title>Node4</title>
<g id="a_Node000004"><a xlink:href="../../dc/d2c/namespace_slic3r_1_1_algorithm.html#a7a1cb258896a6760846080ed7772925f" target="_top" xlink:title=" ">
<polygon fill="white" stroke="#666666" points="812.38,-346.12 704.12,-346.12 704.12,-304.38 812.38,-304.38 812.38,-346.12"/>
<text text-anchor="start" x="712.12" y="-332.62" font-family="Helvetica,sans-Serif" font-size="10.00">Slic3r::Algorithm::</text>
<text text-anchor="start" x="712.12" y="-321.38" font-family="Helvetica,sans-Serif" font-size="10.00">build_aabb_tree_over</text>
<text text-anchor="middle" x="758.25" y="-310.12" font-family="Helvetica,sans-Serif" font-size="10.00">_expolygons</text>
</a>
</g>
</g>
<!-- Node1&#45;&gt;Node4 -->
<g id="edge3_Node000001_Node000004" class="edge">
<title>Node1&#45;&gt;Node4</title>
<g id="a_edge3_Node000001_Node000004"><a xlink:title=" ">
<path fill="none" stroke="#63b8ff" d="M855.59,-304.85C841.22,-307.89 826.42,-311.03 812.85,-313.9"/>
<polygon fill="#63b8ff" stroke="#63b8ff" points="855.89,-308.15 864.95,-302.66 854.44,-301.3 855.89,-308.15"/>
</a>
</g>
</g>
<!-- Node10 -->
<g id="Node000010" class="node">
<title>Node10</title>
<g id="a_Node000010"><a xlink:href="../../dd/df4/namespace_slic3r_1_1_f_f_f_tree_support.html#a072f8fb61613be20955808d6ea3da0eb" target="_top" xlink:title="Merges Influence Areas at one layer if possible.">
<polygon fill="white" stroke="#666666" points="819.5,-268.5 697,-268.5 697,-238 819.5,-238 819.5,-268.5"/>
<text text-anchor="start" x="705" y="-255" font-family="Helvetica,sans-Serif" font-size="10.00">Slic3r::FFFTreeSupport</text>
<text text-anchor="middle" x="758.25" y="-243.75" font-family="Helvetica,sans-Serif" font-size="10.00">::merge_influence_areas</text>
</a>
</g>
</g>
<!-- Node1&#45;&gt;Node10 -->
<g id="edge11_Node000001_Node000010" class="edge">
<title>Node1&#45;&gt;Node10</title>
<g id="a_edge11_Node000001_Node000010"><a xlink:title=" ">
<path fill="none" stroke="#63b8ff" d="M855.19,-273.57C843.37,-271.06 831.25,-268.5 819.78,-266.07"/>
<polygon fill="#63b8ff" stroke="#63b8ff" points="854.44,-277.2 864.95,-275.84 855.89,-270.35 854.44,-277.2"/>
</a>
</g>
</g>
<!-- Node13 -->
<g id="Node000013" class="node">
<title>Node13</title>
<g id="a_Node000013"><a xlink:href="../../d7/d8f/class_slic3r_1_1_retract_when_crossing_perimeters.html#a884357e3aa8f924988b71abd457a9eff" target="_top" xlink:title=" ">
<polygon fill="white" stroke="#666666" points="830,-220.12 686.5,-220.12 686.5,-178.38 830,-178.38 830,-220.12"/>
<text text-anchor="start" x="694.5" y="-206.62" font-family="Helvetica,sans-Serif" font-size="10.00">Slic3r::RetractWhenCrossing</text>
<text text-anchor="start" x="694.5" y="-195.38" font-family="Helvetica,sans-Serif" font-size="10.00">Perimeters::travel_inside</text>
<text text-anchor="middle" x="758.25" y="-184.12" font-family="Helvetica,sans-Serif" font-size="10.00">_internal_regions</text>
</a>
</g>
</g>
<!-- Node1&#45;&gt;Node13 -->
<g id="edge17_Node000001_Node000013" class="edge">
<title>Node1&#45;&gt;Node13</title>
<g id="a_edge17_Node000001_Node000013"><a xlink:title=" ">
<path fill="none" stroke="#63b8ff" d="M896.6,-267.89C877.56,-255.85 852.85,-240.93 830,-229.25 824.18,-226.28 817.99,-223.34 811.8,-220.54"/>
<polygon fill="#63b8ff" stroke="#63b8ff" points="894.42,-271.29 904.73,-273.72 898.18,-265.39 894.42,-271.29"/>
</a>
</g>
</g>
<!-- Node3 -->
<g id="Node000003" class="node">
<title>Node3</title>
<g id="a_Node000003"><a xlink:href="../../db/d1d/class_slic3r_1_1_a_a_b_b_tree_indirect_1_1_tree.html#a2bfa903bac2e8118b57d87817006cab7" target="_top" xlink:title=" ">
<polygon fill="white" stroke="#666666" points="650.5,-462.5 525,-462.5 525,-432 650.5,-432 650.5,-462.5"/>
<text text-anchor="start" x="533" y="-449" font-family="Helvetica,sans-Serif" font-size="10.00">Slic3r::AABBTreeIndirect</text>
<text text-anchor="middle" x="587.75" y="-437.75" font-family="Helvetica,sans-Serif" font-size="10.00">::Tree::build</text>
</a>
</g>
</g>
<!-- Node2&#45;&gt;Node3 -->
<g id="edge2_Node000002_Node000003" class="edge">
<title>Node2&#45;&gt;Node3</title>
<g id="a_edge2_Node000002_Node000003"><a xlink:title=" ">
<path fill="none" stroke="#63b8ff" d="M684.74,-426.17C673.44,-428.65 661.85,-431.2 650.81,-433.62"/>
<polygon fill="#63b8ff" stroke="#63b8ff" points="685.45,-429.38 694.46,-423.82 683.95,-422.54 685.45,-429.38"/>
</a>
</g>
</g>
<!-- Node5 -->
<g id="Node000005" class="node">
<title>Node5</title>
<g id="a_Node000005"><a xlink:href="../../dc/d2c/namespace_slic3r_1_1_algorithm.html#ac9eb05491992c64f54cca3ad06b62d87" target="_top" xlink:title=" ">
<polygon fill="white" stroke="#666666" points="647.12,-396.12 528.38,-396.12 528.38,-354.38 647.12,-354.38 647.12,-396.12"/>
<text text-anchor="start" x="536.38" y="-382.62" font-family="Helvetica,sans-Serif" font-size="10.00">Slic3r::Algorithm::</text>
<text text-anchor="start" x="536.38" y="-371.38" font-family="Helvetica,sans-Serif" font-size="10.00">merge_expansions_into</text>
<text text-anchor="middle" x="587.75" y="-360.12" font-family="Helvetica,sans-Serif" font-size="10.00">_expolygons</text>
</a>
</g>
</g>
<!-- Node4&#45;&gt;Node5 -->
<g id="edge4_Node000004_Node000005" class="edge">
<title>Node4&#45;&gt;Node5</title>
<g id="a_edge4_Node000004_Node000005"><a xlink:title=" ">
<path fill="none" stroke="#63b8ff" d="M693.64,-344.12C678.53,-348.61 662.46,-353.38 647.56,-357.8"/>
<polygon fill="#63b8ff" stroke="#63b8ff" points="694.34,-347.27 702.94,-341.07 692.35,-340.56 694.34,-347.27"/>
</a>
</g>
</g>
<!-- Node7 -->
<g id="Node000007" class="node">
<title>Node7</title>
<g id="a_Node000007"><a xlink:href="../../dc/d2c/namespace_slic3r_1_1_algorithm.html#a7d8cdcfa7016a49ed436744f6fe3c7bb" target="_top" xlink:title=" ">
<polygon fill="white" stroke="#666666" points="634.75,-336.5 540.75,-336.5 540.75,-306 634.75,-306 634.75,-336.5"/>
<text text-anchor="start" x="548.75" y="-323" font-family="Helvetica,sans-Serif" font-size="10.00">Slic3r::Algorithm::</text>
<text text-anchor="middle" x="587.75" y="-311.75" font-family="Helvetica,sans-Serif" font-size="10.00">wave_seeds</text>
</a>
</g>
</g>
<!-- Node4&#45;&gt;Node7 -->
<g id="edge8_Node000004_Node000007" class="edge">
<title>Node4&#45;&gt;Node7</title>
<g id="a_edge8_Node000004_Node000007"><a xlink:title=" ">
<path fill="none" stroke="#63b8ff" d="M693.1,-323.73C673.83,-323.27 653.07,-322.78 635.18,-322.35"/>
<polygon fill="#63b8ff" stroke="#63b8ff" points="692.86,-327.25 702.94,-323.98 693.02,-320.25 692.86,-327.25"/>
</a>
</g>
</g>
<!-- Node5&#45;&gt;Node5 -->
<g id="edge7_Node000005_Node000005" class="edge">
<title>Node5&#45;&gt;Node5</title>
<g id="a_edge7_Node000005_Node000005"><a xlink:title=" ">
<path fill="none" stroke="#63b8ff" d="M615.44,-406.9C610.84,-411.23 601.61,-414.12 587.75,-414.12 564.41,-414.12 554.19,-405.92 557.11,-396.44"/>
<polygon fill="#63b8ff" stroke="#63b8ff" points="619.05,-408.02 618.39,-397.44 612.31,-406.12 619.05,-408.02"/>
</a>
</g>
</g>
<!-- Node6 -->
<g id="Node000006" class="node">
<title>Node6</title>
<g id="a_Node000006"><a xlink:href="../../dc/d2c/namespace_slic3r_1_1_algorithm.html#a21b7ffa38346457990cb351f6875d1d0" target="_top" xlink:title=" ">
<polygon fill="white" stroke="#666666" points="489,-426.5 354.5,-426.5 354.5,-396 489,-396 489,-426.5"/>
<text text-anchor="start" x="362.5" y="-413" font-family="Helvetica,sans-Serif" font-size="10.00">Slic3r::Algorithm::</text>
<text text-anchor="middle" x="421.75" y="-401.75" font-family="Helvetica,sans-Serif" font-size="10.00">expand_merge_expolygons</text>
</a>
</g>
</g>
<!-- Node5&#45;&gt;Node6 -->
<g id="edge5_Node000005_Node000006" class="edge">
<title>Node5&#45;&gt;Node6</title>
<g id="a_edge5_Node000005_Node000006"><a xlink:title=" ">
<path fill="none" stroke="#63b8ff" d="M517.3,-390.49C508.07,-392.52 498.63,-394.59 489.45,-396.61"/>
<polygon fill="#63b8ff" stroke="#63b8ff" points="517.99,-393.71 527.01,-388.15 516.49,-386.87 517.99,-393.71"/>
</a>
</g>
</g>
<!-- Node6&#45;&gt;Node6 -->
<g id="edge6_Node000006_Node000006" class="edge">
<title>Node6&#45;&gt;Node6</title>
<g id="a_edge6_Node000006_Node000006"><a xlink:title=" ">
<path fill="none" stroke="#63b8ff" d="M449.97,-437.88C445.56,-441.83 436.16,-444.5 421.75,-444.5 396.14,-444.5 386.33,-436.06 392.33,-426.99"/>
<polygon fill="#63b8ff" stroke="#63b8ff" points="453.55,-438.31 451.17,-427.99 446.59,-437.54 453.55,-438.31"/>
</a>
</g>
</g>
<!-- Node8 -->
<g id="Node000008" class="node">
<title>Node8</title>
<g id="a_Node000008"><a xlink:href="../../dc/d2c/namespace_slic3r_1_1_algorithm.html#af5200d42663e9485330f6644fecd81d3" target="_top" xlink:title=" ">
<polygon fill="white" stroke="#666666" points="468.75,-377.5 374.75,-377.5 374.75,-347 468.75,-347 468.75,-377.5"/>
<text text-anchor="start" x="382.75" y="-364" font-family="Helvetica,sans-Serif" font-size="10.00">Slic3r::Algorithm::</text>
<text text-anchor="middle" x="421.75" y="-352.75" font-family="Helvetica,sans-Serif" font-size="10.00">propagate_waves</text>
</a>
</g>
</g>
<!-- Node7&#45;&gt;Node8 -->
<g id="edge9_Node000007_Node000008" class="edge">
<title>Node7&#45;&gt;Node8</title>
<g id="a_edge9_Node000007_Node000008"><a xlink:title=" ">
<path fill="none" stroke="#63b8ff" d="M530.13,-335.4C510.21,-340.38 488.07,-345.92 469.09,-350.66"/>
<polygon fill="#63b8ff" stroke="#63b8ff" points="530.78,-338.6 539.63,-332.78 529.08,-331.81 530.78,-338.6"/>
</a>
</g>
</g>
<!-- Node9 -->
<g id="Node000009" class="node">
<title>Node9</title>
<g id="a_Node000009"><a xlink:href="../../dc/d2c/namespace_slic3r_1_1_algorithm.html#a77a0fc2575251e5e5e7fdcd23d1fbe02" target="_top" xlink:title=" ">
<polygon fill="white" stroke="#666666" points="475.88,-328.5 367.62,-328.5 367.62,-298 475.88,-298 475.88,-328.5"/>
<text text-anchor="start" x="375.62" y="-315" font-family="Helvetica,sans-Serif" font-size="10.00">Slic3r::Algorithm::</text>
<text text-anchor="middle" x="421.75" y="-303.75" font-family="Helvetica,sans-Serif" font-size="10.00">propagate_waves_ex</text>
</a>
</g>
</g>
<!-- Node7&#45;&gt;Node9 -->
<g id="edge10_Node000007_Node000009" class="edge">
<title>Node7&#45;&gt;Node9</title>
<g id="a_edge10_Node000007_Node000009"><a xlink:title=" ">
<path fill="none" stroke="#63b8ff" d="M530.04,-318.48C512.63,-317.63 493.54,-316.7 476.34,-315.86"/>
<polygon fill="#63b8ff" stroke="#63b8ff" points="529.47,-322.01 539.63,-319 529.81,-315.02 529.47,-322.01"/>
</a>
</g>
</g>
<!-- Node10&#45;&gt;Node10 -->
<g id="edge16_Node000010_Node000010" class="edge">
<title>Node10&#45;&gt;Node10</title>
<g id="a_edge16_Node000010_Node000010"><a xlink:title=" ">
<path fill="none" stroke="#63b8ff" d="M787.23,-279.88C782.71,-283.83 773.05,-286.5 758.25,-286.5 731.94,-286.5 721.87,-278.06 728.04,-268.99"/>
<polygon fill="#63b8ff" stroke="#63b8ff" points="790.82,-280.32 788.46,-269.99 783.86,-279.53 790.82,-280.32"/>
</a>
</g>
</g>
<!-- Node11 -->
<g id="Node000011" class="node">
<title>Node11</title>
<g id="a_Node000011"><a xlink:href="../../dd/df4/namespace_slic3r_1_1_f_f_f_tree_support.html#aeb49cf1fc20a86890b55d203812fd7bb" target="_top" xlink:title="Propagates influence downwards, and merges overlapping ones.">
<polygon fill="white" stroke="#666666" points="646.75,-265.5 528.75,-265.5 528.75,-235 646.75,-235 646.75,-265.5"/>
<text text-anchor="start" x="536.75" y="-252" font-family="Helvetica,sans-Serif" font-size="10.00">Slic3r::FFFTreeSupport</text>
<text text-anchor="middle" x="587.75" y="-240.75" font-family="Helvetica,sans-Serif" font-size="10.00">::create_layer_pathing</text>
</a>
</g>
</g>
<!-- Node10&#45;&gt;Node11 -->
<g id="edge12_Node000010_Node000011" class="edge">
<title>Node10&#45;&gt;Node11</title>
<g id="a_edge12_Node000010_Node000011"><a xlink:title=" ">
<path fill="none" stroke="#63b8ff" d="M686.08,-251.98C673.05,-251.75 659.59,-251.51 646.99,-251.29"/>
<polygon fill="#63b8ff" stroke="#63b8ff" points="685.83,-255.5 695.89,-252.18 685.96,-248.5 685.83,-255.5"/>
</a>
</g>
</g>
<!-- Node11&#45;&gt;Node11 -->
<g id="edge13_Node000011_Node000011" class="edge">
<title>Node11&#45;&gt;Node11</title>
<g id="a_edge13_Node000011_Node000011"><a xlink:title=" ">
<path fill="none" stroke="#63b8ff" d="M615.97,-276.88C611.56,-280.83 602.16,-283.5 587.75,-283.5 562.14,-283.5 552.33,-275.06 558.33,-265.99"/>
<polygon fill="#63b8ff" stroke="#63b8ff" points="619.55,-277.31 617.17,-266.99 612.59,-276.54 619.55,-277.31"/>
</a>
</g>
</g>
<!-- Node12 -->
<g id="Node000012" class="node">
<title>Node12</title>
<g id="a_Node000012"><a xlink:href="../../dd/df4/namespace_slic3r_1_1_f_f_f_tree_support.html#ab26bc295197117d2d20bc72c33be92f6" target="_top" xlink:title="Create the areas that need support.">
<polygon fill="white" stroke="#666666" points="484.88,-261.5 358.62,-261.5 358.62,-231 484.88,-231 484.88,-261.5"/>
<text text-anchor="start" x="366.62" y="-248" font-family="Helvetica,sans-Serif" font-size="10.00">Slic3r::FFFTreeSupport</text>
<text text-anchor="middle" x="421.75" y="-236.75" font-family="Helvetica,sans-Serif" font-size="10.00">::generate_support_areas</text>
</a>
</g>
</g>
<!-- Node11&#45;&gt;Node12 -->
<g id="edge14_Node000011_Node000012" class="edge">
<title>Node11&#45;&gt;Node12</title>
<g id="a_edge14_Node000011_Node000012"><a xlink:title=" ">
<path fill="none" stroke="#63b8ff" d="M517.47,-248.56C506.79,-248.3 495.82,-248.03 485.29,-247.78"/>
<polygon fill="#63b8ff" stroke="#63b8ff" points="517.39,-252.08 527.47,-248.83 517.56,-245.09 517.39,-252.08"/>
</a>
</g>
</g>
<!-- Node12&#45;&gt;Node12 -->
<g id="edge15_Node000012_Node000012" class="edge">
<title>Node12&#45;&gt;Node12</title>
<g id="a_edge15_Node000012_Node000012"><a xlink:title=" ">
<path fill="none" stroke="#63b8ff" d="M449.97,-272.88C445.56,-276.83 436.16,-279.5 421.75,-279.5 396.14,-279.5 386.33,-271.06 392.33,-261.99"/>
<polygon fill="#63b8ff" stroke="#63b8ff" points="453.55,-273.31 451.17,-262.99 446.59,-272.54 453.55,-273.31"/>
</a>
</g>
</g>
<!-- Node14 -->
<g id="Node000014" class="node">
<title>Node14</title>
<g id="a_Node000014"><a xlink:href="../../dd/dc8/class_slic3r_1_1_g_code.html#a29b2f7bab7677e0437a7a70db15b87f6" target="_top" xlink:title=" ">
<polygon fill="white" stroke="#666666" points="642.62,-214.5 532.88,-214.5 532.88,-184 642.62,-184 642.62,-214.5"/>
<text text-anchor="start" x="540.88" y="-201" font-family="Helvetica,sans-Serif" font-size="10.00">Slic3r::GCode::needs</text>
<text text-anchor="middle" x="587.75" y="-189.75" font-family="Helvetica,sans-Serif" font-size="10.00">_retraction</text>
</a>
</g>
</g>
<!-- Node13&#45;&gt;Node14 -->
<g id="edge18_Node000013_Node000014" class="edge">
<title>Node13&#45;&gt;Node14</title>
<g id="a_edge18_Node000013_Node000014"><a xlink:title=" ">
<path fill="none" stroke="#63b8ff" d="M675.35,-199.25C664.37,-199.25 653.34,-199.25 643,-199.25"/>
<polygon fill="#63b8ff" stroke="#63b8ff" points="675.28,-202.75 685.28,-199.25 675.28,-195.75 675.28,-202.75"/>
</a>
</g>
</g>
<!-- Node15 -->
<g id="Node000015" class="node">
<title>Node15</title>
<g id="a_Node000015"><a xlink:href="../../dd/dc8/class_slic3r_1_1_g_code.html#a6d246cfdea1c2e9be90f89b59e015ce3" target="_top" xlink:title=" ">
<polygon fill="white" stroke="#666666" points="482.25,-208.88 361.25,-208.88 361.25,-189.62 482.25,-189.62 482.25,-208.88"/>
<text text-anchor="middle" x="421.75" y="-195.38" font-family="Helvetica,sans-Serif" font-size="10.00">Slic3r::GCode::travel_to</text>
</a>
</g>
</g>
<!-- Node14&#45;&gt;Node15 -->
<g id="edge19_Node000014_Node000015" class="edge">
<title>Node14&#45;&gt;Node15</title>
<g id="a_edge19_Node000014_Node000015"><a xlink:title=" ">
<path fill="none" stroke="#63b8ff" d="M521.86,-199.25C508.88,-199.25 495.3,-199.25 482.51,-199.25"/>
<polygon fill="#63b8ff" stroke="#63b8ff" points="521.6,-202.75 531.6,-199.25 521.6,-195.75 521.6,-202.75"/>
</a>
</g>
</g>
<!-- Node16 -->
<g id="Node000016" class="node">
<title>Node16</title>
<g id="a_Node000016"><a xlink:href="../../dd/dc8/class_slic3r_1_1_g_code.html#ad5ac0f44c2121cf8d09cc7fde2dae045" target="_top" xlink:title=" ">
<polygon fill="white" stroke="#666666" points="297.5,-275.5 198.25,-275.5 198.25,-245 297.5,-245 297.5,-275.5"/>
<text text-anchor="start" x="206.25" y="-262" font-family="Helvetica,sans-Serif" font-size="10.00">Slic3r::GCode::_do</text>
<text text-anchor="middle" x="247.88" y="-250.75" font-family="Helvetica,sans-Serif" font-size="10.00">_export</text>
</a>
</g>
</g>
<!-- Node15&#45;&gt;Node16 -->
<g id="edge20_Node000015_Node000016" class="edge">
<title>Node15&#45;&gt;Node16</title>
<g id="a_edge20_Node000015_Node000016"><a xlink:title=" ">
<path fill="none" stroke="#63b8ff" d="M381.01,-212.96C372.27,-216 363.07,-219.22 354.5,-222.25 334.01,-229.49 311.33,-237.63 292.26,-244.52"/>
<polygon fill="#63b8ff" stroke="#63b8ff" points="382.07,-215.95 390.37,-209.37 379.78,-209.34 382.07,-215.95"/>
</a>
</g>
</g>
<!-- Node18 -->
<g id="Node000018" class="node">
<title>Node18</title>
<g id="a_Node000018"><a xlink:href="../../dd/dc8/class_slic3r_1_1_g_code.html#a84cb9bd523ca5a017cf00608b137f5da" target="_top" xlink:title=" ">
<polygon fill="white" stroke="#666666" points="308.38,-208.88 187.38,-208.88 187.38,-189.62 308.38,-189.62 308.38,-208.88"/>
<text text-anchor="middle" x="247.88" y="-195.38" font-family="Helvetica,sans-Serif" font-size="10.00">Slic3r::GCode::_extrude</text>
</a>
</g>
</g>
<!-- Node15&#45;&gt;Node18 -->
<g id="edge22_Node000015_Node000018" class="edge">
<title>Node15&#45;&gt;Node18</title>
<g id="a_edge22_Node000015_Node000018"><a xlink:title=" ">
<path fill="none" stroke="#63b8ff" d="M350.21,-199.25C336.42,-199.25 322.09,-199.25 308.69,-199.25"/>
<polygon fill="#63b8ff" stroke="#63b8ff" points="350.12,-202.75 360.12,-199.25 350.12,-195.75 350.12,-202.75"/>
</a>
</g>
</g>
<!-- Node28 -->
<g id="Node000028" class="node">
<title>Node28</title>
<g id="a_Node000028"><a xlink:href="../../d0/d4c/class_slic3r_1_1_wipe_tower_integration.html#a77890da960412cea8c288fe74a2d28cc" target="_top" xlink:title=" ">
<polygon fill="white" stroke="#666666" points="318.5,-104.5 177.25,-104.5 177.25,-74 318.5,-74 318.5,-104.5"/>
<text text-anchor="start" x="185.25" y="-91" font-family="Helvetica,sans-Serif" font-size="10.00">Slic3r::WipeTowerIntegration</text>
<text text-anchor="middle" x="247.88" y="-79.75" font-family="Helvetica,sans-Serif" font-size="10.00">::append_tcr</text>
</a>
</g>
</g>
<!-- Node15&#45;&gt;Node28 -->
<g id="edge26_Node000015_Node000028" class="edge">
<title>Node15&#45;&gt;Node28</title>
<g id="a_edge26_Node000015_Node000028"><a xlink:title=" ">
<path fill="none" stroke="#63b8ff" d="M396.28,-183.59C363.58,-162.66 305.94,-125.77 273.26,-104.86"/>
<polygon fill="#63b8ff" stroke="#63b8ff" points="393.88,-186.85 404.19,-189.29 397.66,-180.96 393.88,-186.85"/>
</a>
</g>
</g>
<!-- Node17 -->
<g id="Node000017" class="node">
<title>Node17</title>
<g id="a_Node000017"><a xlink:href="../../dd/dc8/class_slic3r_1_1_g_code.html#a41ddab6bfd15c1848026271f48485efb" target="_top" xlink:title=" ">
<polygon fill="white" stroke="#666666" points="133.75,-288.88 7.5,-288.88 7.5,-269.62 133.75,-269.62 133.75,-288.88"/>
<text text-anchor="middle" x="70.62" y="-275.38" font-family="Helvetica,sans-Serif" font-size="10.00">Slic3r::GCode::do_export</text>
</a>
</g>
</g>
<!-- Node16&#45;&gt;Node17 -->
<g id="edge21_Node000016_Node000017" class="edge">
<title>Node16&#45;&gt;Node17</title>
<g id="a_edge21_Node000016_Node000017"><a xlink:title=" ">
<path fill="none" stroke="#63b8ff" d="M187.56,-266.68C170.3,-268.55 151.41,-270.6 133.97,-272.49"/>
<polygon fill="#63b8ff" stroke="#63b8ff" points="187.49,-270.1 197.06,-265.54 186.74,-263.14 187.49,-270.1"/>
</a>
</g>
</g>
<!-- Node19 -->
<g id="Node000019" class="node">
<title>Node19</title>
<g id="a_Node000019"><a xlink:href="../../dd/dc8/class_slic3r_1_1_g_code.html#a269d66187ba6aedf3c9632bd9100b02c" target="_top" xlink:title=" ">
<polygon fill="#fff0f0" stroke="red" points="140.12,-251.88 1.12,-251.88 1.12,-232.62 140.12,-232.62 140.12,-251.88"/>
<text text-anchor="middle" x="70.62" y="-238.38" font-family="Helvetica,sans-Serif" font-size="10.00">Slic3r::GCode::extrude_loop</text>
</a>
</g>
</g>
<!-- Node18&#45;&gt;Node19 -->
<g id="edge23_Node000018_Node000019" class="edge">
<title>Node18&#45;&gt;Node19</title>
<g id="a_edge23_Node000018_Node000019"><a xlink:title=" ">
<path fill="none" stroke="#63b8ff" d="M195.24,-211.92C168.94,-218.37 137.4,-226.11 112.76,-232.16"/>
<polygon fill="#63b8ff" stroke="#63b8ff" points="195.91,-215.11 204.79,-209.33 194.24,-208.32 195.91,-215.11"/>
</a>
</g>
</g>
<!-- Node25 -->
<g id="Node000025" class="node">
<title>Node25</title>
<g id="a_Node000025"><a xlink:href="../../dd/dc8/class_slic3r_1_1_g_code.html#a57ba58aa701b068e16dbd85cd17e25ce" target="_top" xlink:title=" ">
<polygon fill="#fff0f0" stroke="red" points="128.5,-214.5 12.75,-214.5 12.75,-184 128.5,-184 128.5,-214.5"/>
<text text-anchor="start" x="20.75" y="-201" font-family="Helvetica,sans-Serif" font-size="10.00">Slic3r::GCode::extrude</text>
<text text-anchor="middle" x="70.62" y="-189.75" font-family="Helvetica,sans-Serif" font-size="10.00">_multi_path</text>
</a>
</g>
</g>
<!-- Node18&#45;&gt;Node25 -->
<g id="edge24_Node000018_Node000025" class="edge">
<title>Node18&#45;&gt;Node25</title>
<g id="a_edge24_Node000018_Node000025"><a xlink:title=" ">
<path fill="none" stroke="#63b8ff" d="M176.28,-199.25C160.51,-199.25 143.96,-199.25 128.81,-199.25"/>
<polygon fill="#63b8ff" stroke="#63b8ff" points="176.05,-202.75 186.05,-199.25 176.05,-195.75 176.05,-202.75"/>
</a>
</g>
</g>
<!-- Node27 -->
<g id="Node000027" class="node">
<title>Node27</title>
<g id="a_Node000027"><a xlink:href="../../dd/dc8/class_slic3r_1_1_g_code.html#a004be9154b6cfc8fd74cff0127129742" target="_top" xlink:title=" ">
<polygon fill="#fff0f0" stroke="red" points="140.5,-165.88 0.75,-165.88 0.75,-146.62 140.5,-146.62 140.5,-165.88"/>
<text text-anchor="middle" x="70.62" y="-152.38" font-family="Helvetica,sans-Serif" font-size="10.00">Slic3r::GCode::extrude_path</text>
</a>
</g>
</g>
<!-- Node18&#45;&gt;Node27 -->
<g id="edge25_Node000018_Node000027" class="edge">
<title>Node18&#45;&gt;Node27</title>
<g id="a_edge25_Node000018_Node000027"><a xlink:title=" ">
<path fill="none" stroke="#63b8ff" d="M195.24,-186.58C168.94,-180.13 137.4,-172.39 112.76,-166.34"/>
<polygon fill="#63b8ff" stroke="#63b8ff" points="194.24,-190.18 204.79,-189.17 195.91,-183.39 194.24,-190.18"/>
</a>
</g>
</g>
<!-- Node29 -->
<g id="Node000029" class="node">
<title>Node29</title>
<g id="a_Node000029"><a xlink:href="../../d0/d4c/class_slic3r_1_1_wipe_tower_integration.html#ad176401561c0de48be24cc98ab44b4bf" target="_top" xlink:title=" ">
<polygon fill="white" stroke="#666666" points="141.25,-128.5 0,-128.5 0,-98 141.25,-98 141.25,-128.5"/>
<text text-anchor="start" x="8" y="-115" font-family="Helvetica,sans-Serif" font-size="10.00">Slic3r::WipeTowerIntegration</text>
<text text-anchor="middle" x="70.62" y="-103.75" font-family="Helvetica,sans-Serif" font-size="10.00">::finalize</text>
</a>
</g>
</g>
<!-- Node28&#45;&gt;Node29 -->
<g id="edge27_Node000028_Node000029" class="edge">
<title>Node28&#45;&gt;Node29</title>
<g id="a_edge27_Node000028_Node000029"><a xlink:title=" ">
<path fill="none" stroke="#63b8ff" d="M166.13,-100.31C157.91,-101.43 149.62,-102.57 141.53,-103.68"/>
<polygon fill="#63b8ff" stroke="#63b8ff" points="166.42,-103.66 175.86,-98.84 165.47,-96.73 166.42,-103.66"/>
</a>
</g>
</g>
<!-- Node30 -->
<g id="Node000030" class="node">
<title>Node30</title>
<g id="a_Node000030"><a xlink:href="../../d0/d4c/class_slic3r_1_1_wipe_tower_integration.html#a7497d8d42cdcc1e6eab63612993aee92" target="_top" xlink:title=" ">
<polygon fill="white" stroke="#666666" points="141.25,-79.5 0,-79.5 0,-49 141.25,-49 141.25,-79.5"/>
<text text-anchor="start" x="8" y="-66" font-family="Helvetica,sans-Serif" font-size="10.00">Slic3r::WipeTowerIntegration</text>
<text text-anchor="middle" x="70.62" y="-54.75" font-family="Helvetica,sans-Serif" font-size="10.00">::prime</text>
</a>
</g>
</g>
<!-- Node28&#45;&gt;Node30 -->
<g id="edge28_Node000028_Node000030" class="edge">
<title>Node28&#45;&gt;Node30</title>
<g id="a_edge28_Node000028_Node000030"><a xlink:title=" ">
<path fill="none" stroke="#63b8ff" d="M166.13,-77.73C157.91,-76.56 149.62,-75.38 141.53,-74.22"/>
<polygon fill="#63b8ff" stroke="#63b8ff" points="165.46,-81.31 175.86,-79.26 166.45,-74.38 165.46,-81.31"/>
</a>
</g>
</g>
<!-- Node31 -->
<g id="Node000031" class="node">
<title>Node31</title>
<g id="a_Node000031"><a xlink:href="../../d0/d4c/class_slic3r_1_1_wipe_tower_integration.html#a756231fc8c765bc08432e520fca5f49c" target="_top" xlink:title=" ">
<polygon fill="white" stroke="#666666" points="141.25,-30.5 0,-30.5 0,0 141.25,0 141.25,-30.5"/>
<text text-anchor="start" x="8" y="-17" font-family="Helvetica,sans-Serif" font-size="10.00">Slic3r::WipeTowerIntegration</text>
<text text-anchor="middle" x="70.62" y="-5.75" font-family="Helvetica,sans-Serif" font-size="10.00">::tool_change</text>
</a>
</g>
</g>
<!-- Node28&#45;&gt;Node31 -->
<g id="edge29_Node000028_Node000031" class="edge">
<title>Node28&#45;&gt;Node31</title>
<g id="a_edge29_Node000028_Node000031"><a xlink:title=" ">
<path fill="none" stroke="#63b8ff" d="M205.6,-69.06C186.24,-59.86 162.75,-49.08 141.25,-40.25 133.53,-37.08 125.24,-33.91 117.17,-30.94"/>
<polygon fill="#63b8ff" stroke="#63b8ff" points="203.78,-72.54 214.31,-73.7 206.8,-66.23 203.78,-72.54"/>
</a>
</g>
</g>
</g>
</svg>

<g id="navigator" transform="translate(0 0)" fill="#404254">
  <rect fill="#f2f5e9" fill-opacity="0.5" stroke="#606060" stroke-width=".5" x="0" y="0" width="60" height="60"/>
  <use id="zoomplus" xlink:href="#zoomPlus" x="17" y="9" onmousedown="handleZoom(evt,'in')"/>
  <use id="zoomminus" xlink:href="#zoomMin" x="42" y="9" onmousedown="handleZoom(evt,'out')"/>
  <use id="reset" xlink:href="#resetDef" x="30" y="36" onmousedown="handleReset()"/>
   <use id="arrowup" xlink:href="#arrowUp" x="0" y="0" onmousedown="handlePan(0,-1)"/>
  <use id="arrowright" xlink:href="#arrowRight" x="0" y="0" onmousedown="handlePan(1,0)"/>
  <use id="arrowdown" xlink:href="#arrowDown" x="0" y="0" onmousedown="handlePan(0,1)"/>
  <use id="arrowleft" xlink:href="#arrowLeft" x="0" y="0" onmousedown="handlePan(-1,0)"/>
</g>
<svg viewBox="0 0 15 15" width="100%" height="30px" preserveAspectRatio="xMaxYMin meet">
 <g id="arrow_out" transform="scale(0.3 0.3)">
  <a xlink:href="class_slic3r_1_1_a_a_b_b_tree_indirect_1_1_tree_a9f32e7bd37e378a65339c235cd3bcb47_icgraph_org.svg" target="_base">
   <rect id="button" ry="5" rx="5" y="6" x="6" height="38" width="38"
        fill="#f2f5e9" fill-opacity="0.5" stroke="#606060" stroke-width="1.0"/>
   <path id="arrow"
     d="M 11.500037,31.436501 C 11.940474,20.09759 22.043105,11.32322 32.158766,21.979434 L 37.068811,17.246167 C 37.068811,17.246167 37.088388,32 37.088388,32 L 22.160133,31.978069 C 22.160133,31.978069 26.997745,27.140456 26.997745,27.140456 C 18.528582,18.264221 13.291696,25.230495 11.500037,31.436501 z"
     style="fill:#404040;"/>
  </a>
 </g>
</svg>

<style type='text/css'>
<![CDATA[
[data-mouse-over-selected='false'] { opacity: 0.7; }
[data-mouse-over-selected='true']  { opacity: 1.0; }
]]>
</style>
<script type="application/ecmascript"><![CDATA[
document.addEventListener('DOMContentLoaded', (event) => {
  highlightEdges();
  highlightAdjacentNodes();
});
]]></script>
</svg>
