<?xml version="1.0" encoding="UTF-8" standalone="no"?>
<!DOCTYPE svg PUBLIC "-//W3C//DTD SVG 1.1//EN"
 "http://www.w3.org/Graphics/SVG/1.1/DTD/svg11.dtd">
<!-- Generated by graphviz version 8.0.5 (20230430.1635)
 -->
<!-- Title: Slic3r::MultiPoint::is_valid Pages: 1 -->
<svg width="913pt" height="210pt"
 viewBox="0.00 0.00 913.25 210.05" xmlns="http://www.w3.org/2000/svg" xmlns:xlink="http://www.w3.org/1999/xlink">
<g id="graph0" class="graph" transform="scale(1 1) rotate(0) translate(4 206.05)">
<title>Slic3r::MultiPoint::is_valid</title>
<!-- Node1 -->
<g id="Node000001" class="node">
<title>Node1</title>
<g id="a_Node000001"><a xlink:title=" ">
<polygon fill="#999999" stroke="#666666" points="905.25,-159.05 815,-159.05 815,-128.55 905.25,-128.55 905.25,-159.05"/>
<text text-anchor="start" x="823" y="-145.55" font-family="Helvetica,sans-Serif" font-size="10.00">Slic3r::MultiPoint</text>
<text text-anchor="middle" x="860.12" y="-134.3" font-family="Helvetica,sans-Serif" font-size="10.00">::is_valid</text>
</a>
</g>
</g>
<!-- Node2 -->
<g id="Node000002" class="node">
<title>Node2</title>
<g id="a_Node000002"><a xlink:href="../../d8/d50/class_slic3r_1_1_extrusion_loop.html#a04fc6d6704e474732ba382ac6d3d38f3" target="_top" xlink:title=" ">
<polygon fill="white" stroke="#666666" points="594.62,-202.05 485.62,-202.05 485.62,-171.55 594.62,-171.55 594.62,-202.05"/>
<text text-anchor="start" x="493.62" y="-188.55" font-family="Helvetica,sans-Serif" font-size="10.00">Slic3r::ExtrusionLoop</text>
<text text-anchor="middle" x="540.12" y="-177.3" font-family="Helvetica,sans-Serif" font-size="10.00">::split_at</text>
</a>
</g>
</g>
<!-- Node1&#45;&gt;Node2 -->
<g id="edge1_Node000001_Node000002" class="edge">
<title>Node1&#45;&gt;Node2</title>
<g id="a_edge1_Node000001_Node000002"><a xlink:title=" ">
<path fill="none" stroke="#63b8ff" d="M804.18,-161.92C795.82,-164.19 787.23,-166.26 779,-167.8 716.5,-179.52 643.42,-184.02 594.93,-185.74"/>
<polygon fill="#63b8ff" stroke="#63b8ff" points="804.96,-165.05 813.62,-158.95 803.04,-158.32 804.96,-165.05"/>
</a>
</g>
</g>
<!-- Node3 -->
<g id="Node000003" class="node">
<title>Node3</title>
<g id="a_Node000003"><a xlink:href="../../d8/d50/class_slic3r_1_1_extrusion_loop.html#a16d7f12afe47ca045ef75a09f2cdb9da" target="_top" xlink:title=" ">
<polygon fill="white" stroke="#666666" points="761,-159.05 652,-159.05 652,-128.55 761,-128.55 761,-159.05"/>
<text text-anchor="start" x="660" y="-145.55" font-family="Helvetica,sans-Serif" font-size="10.00">Slic3r::ExtrusionLoop</text>
<text text-anchor="middle" x="706.5" y="-134.3" font-family="Helvetica,sans-Serif" font-size="10.00">::split_at_vertex</text>
</a>
</g>
</g>
<!-- Node1&#45;&gt;Node3 -->
<g id="edge2_Node000001_Node000003" class="edge">
<title>Node1&#45;&gt;Node3</title>
<g id="a_edge2_Node000001_Node000003"><a xlink:title=" ">
<path fill="none" stroke="#63b8ff" d="M804,-143.8C790.15,-143.8 775.3,-143.8 761.5,-143.8"/>
<polygon fill="#63b8ff" stroke="#63b8ff" points="803.86,-147.3 813.86,-143.8 803.86,-140.3 803.86,-147.3"/>
</a>
</g>
</g>
<!-- Node4 -->
<g id="Node000004" class="node">
<title>Node4</title>
<g id="a_Node000004"><a xlink:href="../../d7/d1d/namespace_slic3r_1_1_perimeter_generator.html#a90375ed372f523d534bf11a6937c8ad7" target="_top" xlink:title=" ">
<polygon fill="white" stroke="#666666" points="779,-107.05 634,-107.05 634,-76.55 779,-76.55 779,-107.05"/>
<text text-anchor="start" x="642" y="-93.55" font-family="Helvetica,sans-Serif" font-size="10.00">Slic3r::PerimeterGenerator</text>
<text text-anchor="middle" x="706.5" y="-82.3" font-family="Helvetica,sans-Serif" font-size="10.00">::thick_polyline_to_multi_path</text>
</a>
</g>
</g>
<!-- Node1&#45;&gt;Node4 -->
<g id="edge4_Node000001_Node000004" class="edge">
<title>Node1&#45;&gt;Node4</title>
<g id="a_edge4_Node000001_Node000004"><a xlink:title=" ">
<path fill="none" stroke="#63b8ff" d="M804.64,-125.12C787.85,-119.36 769.55,-113.08 753.4,-107.54"/>
<polygon fill="#63b8ff" stroke="#63b8ff" points="803.27,-128.69 813.86,-128.62 805.54,-122.07 803.27,-128.69"/>
</a>
</g>
</g>
<!-- Node3&#45;&gt;Node2 -->
<g id="edge3_Node000003_Node000002" class="edge">
<title>Node3&#45;&gt;Node2</title>
<g id="a_edge3_Node000003_Node000002"><a xlink:title=" ">
<path fill="none" stroke="#63b8ff" d="M641.27,-160.61C625.99,-164.6 609.83,-168.83 595.07,-172.69"/>
<polygon fill="#63b8ff" stroke="#63b8ff" points="641.89,-163.8 650.68,-157.88 640.12,-157.03 641.89,-163.8"/>
</a>
</g>
</g>
<!-- Node5 -->
<g id="Node000005" class="node">
<title>Node5</title>
<g id="a_Node000005"><a xlink:href="../../de/db8/namespace_slic3r.html#a4af1257597b7b952355fd049f185f2da" target="_top" xlink:title=" ">
<polygon fill="white" stroke="#666666" points="598,-153.05 482.25,-153.05 482.25,-122.55 598,-122.55 598,-153.05"/>
<text text-anchor="start" x="490.25" y="-139.55" font-family="Helvetica,sans-Serif" font-size="10.00">Slic3r::extrusion_paths</text>
<text text-anchor="middle" x="540.12" y="-128.3" font-family="Helvetica,sans-Serif" font-size="10.00">_append</text>
</a>
</g>
</g>
<!-- Node4&#45;&gt;Node5 -->
<g id="edge5_Node000004_Node000005" class="edge">
<title>Node4&#45;&gt;Node5</title>
<g id="a_edge5_Node000004_Node000005"><a xlink:title=" ">
<path fill="none" stroke="#63b8ff" d="M638.96,-110.42C625.12,-114.3 610.68,-118.34 597.26,-122.09"/>
<polygon fill="#63b8ff" stroke="#63b8ff" points="639.7,-113.57 648.39,-107.5 637.82,-106.83 639.7,-113.57"/>
</a>
</g>
</g>
<!-- Node6 -->
<g id="Node000006" class="node">
<title>Node6</title>
<g id="a_Node000006"><a xlink:href="../../de/db8/namespace_slic3r.html#ae6a64b64bf7342249ceb96cfc19d75e8" target="_top" xlink:title=" ">
<polygon fill="white" stroke="#666666" points="598,-104.05 482.25,-104.05 482.25,-73.55 598,-73.55 598,-104.05"/>
<text text-anchor="start" x="490.25" y="-90.55" font-family="Helvetica,sans-Serif" font-size="10.00">Slic3r::extrusion_paths</text>
<text text-anchor="middle" x="540.12" y="-79.3" font-family="Helvetica,sans-Serif" font-size="10.00">_append</text>
</a>
</g>
</g>
<!-- Node4&#45;&gt;Node6 -->
<g id="edge6_Node000004_Node000006" class="edge">
<title>Node4&#45;&gt;Node6</title>
<g id="a_edge6_Node000004_Node000006"><a xlink:title=" ">
<path fill="none" stroke="#63b8ff" d="M622.99,-90.3C614.69,-90.15 606.39,-89.99 598.44,-89.85"/>
<polygon fill="#63b8ff" stroke="#63b8ff" points="622.82,-93.81 632.88,-90.5 622.95,-86.81 622.82,-93.81"/>
</a>
</g>
</g>
<!-- Node14 -->
<g id="Node000014" class="node">
<title>Node14</title>
<g id="a_Node000014"><a xlink:href="../../de/db8/namespace_slic3r.html#a3d8bc27dd7a6607c9f665de29e6f055f" target="_top" xlink:title=" ">
<polygon fill="white" stroke="#666666" points="594.62,-46.05 485.62,-46.05 485.62,-15.55 594.62,-15.55 594.62,-46.05"/>
<text text-anchor="start" x="493.62" y="-32.55" font-family="Helvetica,sans-Serif" font-size="10.00">Slic3r::variable_width</text>
<text text-anchor="middle" x="540.12" y="-21.3" font-family="Helvetica,sans-Serif" font-size="10.00">_classic</text>
</a>
</g>
</g>
<!-- Node4&#45;&gt;Node14 -->
<g id="edge17_Node000004_Node000014" class="edge">
<title>Node4&#45;&gt;Node14</title>
<g id="a_edge17_Node000004_Node000014"><a xlink:title=" ">
<path fill="none" stroke="#63b8ff" d="M653.09,-72.35C630.56,-63.99 604.57,-54.35 583.31,-46.46"/>
<polygon fill="#63b8ff" stroke="#63b8ff" points="651.58,-75.9 662.17,-76.09 654.01,-69.33 651.58,-75.9"/>
</a>
</g>
</g>
<!-- Node7 -->
<g id="Node000007" class="node">
<title>Node7</title>
<g id="a_Node000007"><a xlink:href="../../de/db8/namespace_slic3r.html#a06a724a00fd8f8c4177b8d975567d5f4" target="_top" xlink:title=" ">
<polygon fill="white" stroke="#666666" points="446.25,-113.05 305,-113.05 305,-82.55 446.25,-82.55 446.25,-113.05"/>
<text text-anchor="start" x="313" y="-99.55" font-family="Helvetica,sans-Serif" font-size="10.00">Slic3r::generate_extra</text>
<text text-anchor="middle" x="375.62" y="-88.3" font-family="Helvetica,sans-Serif" font-size="10.00">_perimeters_over_overhangs</text>
</a>
</g>
</g>
<!-- Node6&#45;&gt;Node7 -->
<g id="edge7_Node000006_Node000007" class="edge">
<title>Node6&#45;&gt;Node7</title>
<g id="a_edge7_Node000006_Node000007"><a xlink:title=" ">
<path fill="none" stroke="#63b8ff" d="M470.95,-92.58C462.87,-93.03 454.61,-93.48 446.51,-93.93"/>
<polygon fill="#63b8ff" stroke="#63b8ff" points="471.04,-96.02 480.83,-91.98 470.66,-89.03 471.04,-96.02"/>
</a>
</g>
</g>
<!-- Node12 -->
<g id="Node000012" class="node">
<title>Node12</title>
<g id="a_Node000012"><a xlink:href="../../de/db8/namespace_slic3r.html#a9dad6cf1cfcb550bb371dff1fb6fd384" target="_top" xlink:title=" ">
<polygon fill="white" stroke="#666666" points="441.75,-150.43 309.5,-150.43 309.5,-131.18 441.75,-131.18 441.75,-150.43"/>
<text text-anchor="middle" x="375.62" y="-136.93" font-family="Helvetica,sans-Serif" font-size="10.00">Slic3r::traverse_extrusions</text>
</a>
</g>
</g>
<!-- Node6&#45;&gt;Node12 -->
<g id="edge12_Node000006_Node000012" class="edge">
<title>Node6&#45;&gt;Node12</title>
<g id="a_edge12_Node000006_Node000012"><a xlink:title=" ">
<path fill="none" stroke="#63b8ff" d="M486.93,-108.12C473.73,-112.8 459.52,-117.64 446.25,-121.8 436.33,-124.91 425.52,-128.01 415.44,-130.76"/>
<polygon fill="#63b8ff" stroke="#63b8ff" points="488.04,-111.08 496.28,-104.42 485.68,-104.49 488.04,-111.08"/>
</a>
</g>
</g>
<!-- Node13 -->
<g id="Node000013" class="node">
<title>Node13</title>
<g id="a_Node000013"><a xlink:href="../../de/db8/namespace_slic3r.html#af43e0fab5b2b1d84e6b0c1bb57f61ee2" target="_top" xlink:title=" ">
<polygon fill="white" stroke="#666666" points="430.88,-46.05 320.38,-46.05 320.38,-15.55 430.88,-15.55 430.88,-46.05"/>
<text text-anchor="start" x="328.38" y="-32.55" font-family="Helvetica,sans-Serif" font-size="10.00">Slic3r::traverse_loops</text>
<text text-anchor="middle" x="375.62" y="-21.3" font-family="Helvetica,sans-Serif" font-size="10.00">_classic</text>
</a>
</g>
</g>
<!-- Node6&#45;&gt;Node13 -->
<g id="edge14_Node000006_Node000013" class="edge">
<title>Node6&#45;&gt;Node13</title>
<g id="a_edge14_Node000006_Node000013"><a xlink:title=" ">
<path fill="none" stroke="#63b8ff" d="M484.83,-69.42C463.96,-61.98 440.42,-53.57 420.63,-46.51"/>
<polygon fill="#63b8ff" stroke="#63b8ff" points="483.56,-73.04 494.15,-73.11 485.91,-66.45 483.56,-73.04"/>
</a>
</g>
</g>
<!-- Node8 -->
<g id="Node000008" class="node">
<title>Node8</title>
<g id="a_Node000008"><a xlink:href="../../d7/d1d/namespace_slic3r_1_1_perimeter_generator.html#addff59b1baf2226279fa4bf543740526" target="_top" xlink:title=" ">
<polygon fill="white" stroke="#666666" points="269,-113.05 137.5,-113.05 137.5,-82.55 269,-82.55 269,-113.05"/>
<text text-anchor="start" x="145.5" y="-99.55" font-family="Helvetica,sans-Serif" font-size="10.00">Slic3r::PerimeterGenerator</text>
<text text-anchor="middle" x="203.25" y="-88.3" font-family="Helvetica,sans-Serif" font-size="10.00">::process_arachne</text>
</a>
</g>
</g>
<!-- Node7&#45;&gt;Node8 -->
<g id="edge8_Node000007_Node000008" class="edge">
<title>Node7&#45;&gt;Node8</title>
<g id="a_edge8_Node000007_Node000008"><a xlink:title=" ">
<path fill="none" stroke="#63b8ff" d="M294,-97.8C285.71,-97.8 277.36,-97.8 269.27,-97.8"/>
<polygon fill="#63b8ff" stroke="#63b8ff" points="293.84,-101.3 303.84,-97.8 293.84,-94.3 293.84,-101.3"/>
</a>
</g>
</g>
<!-- Node11 -->
<g id="Node000011" class="node">
<title>Node11</title>
<g id="a_Node000011"><a xlink:href="../../d7/d1d/namespace_slic3r_1_1_perimeter_generator.html#ad284d87ff9b979b90cbc47cc592d101a" target="_top" xlink:title=" ">
<polygon fill="white" stroke="#666666" points="269,-55.05 137.5,-55.05 137.5,-24.55 269,-24.55 269,-55.05"/>
<text text-anchor="start" x="145.5" y="-41.55" font-family="Helvetica,sans-Serif" font-size="10.00">Slic3r::PerimeterGenerator</text>
<text text-anchor="middle" x="203.25" y="-30.3" font-family="Helvetica,sans-Serif" font-size="10.00">::process_classic</text>
</a>
</g>
</g>
<!-- Node7&#45;&gt;Node11 -->
<g id="edge10_Node000007_Node000011" class="edge">
<title>Node7&#45;&gt;Node11</title>
<g id="a_edge10_Node000007_Node000011"><a xlink:title=" ">
<path fill="none" stroke="#63b8ff" d="M318.3,-78.63C296.27,-71.13 271.33,-62.64 250.39,-55.51"/>
<polygon fill="#63b8ff" stroke="#63b8ff" points="316.92,-82.2 327.52,-82.11 319.18,-75.57 316.92,-82.2"/>
</a>
</g>
</g>
<!-- Node9 -->
<g id="Node000009" class="node">
<title>Node9</title>
<g id="a_Node000009"><a xlink:href="../../dd/d90/class_slic3r_1_1_layer_region.html#a7f8ba90770f4cfeb3e0f0fe9606e7376" target="_top" xlink:title=" ">
<polygon fill="#fff0f0" stroke="red" points="101.5,-79.05 0,-79.05 0,-48.55 101.5,-48.55 101.5,-79.05"/>
<text text-anchor="start" x="8" y="-65.55" font-family="Helvetica,sans-Serif" font-size="10.00">Slic3r::LayerRegion</text>
<text text-anchor="middle" x="50.75" y="-54.3" font-family="Helvetica,sans-Serif" font-size="10.00">::make_perimeters</text>
</a>
</g>
</g>
<!-- Node8&#45;&gt;Node9 -->
<g id="edge9_Node000008_Node000009" class="edge">
<title>Node8&#45;&gt;Node9</title>
<g id="a_edge9_Node000008_Node000009"><a xlink:title=" ">
<path fill="none" stroke="#63b8ff" d="M126.44,-80.68C118,-78.77 109.56,-76.86 101.56,-75.05"/>
<polygon fill="#63b8ff" stroke="#63b8ff" points="125.59,-84.3 136.11,-83.09 127.13,-77.47 125.59,-84.3"/>
</a>
</g>
</g>
<!-- Node11&#45;&gt;Node9 -->
<g id="edge11_Node000011_Node000009" class="edge">
<title>Node11&#45;&gt;Node9</title>
<g id="a_edge11_Node000011_Node000009"><a xlink:title=" ">
<path fill="none" stroke="#63b8ff" d="M126.44,-51.89C118,-53.24 109.56,-54.58 101.56,-55.86"/>
<polygon fill="#63b8ff" stroke="#63b8ff" points="126.79,-55.22 136.11,-50.19 125.69,-48.31 126.79,-55.22"/>
</a>
</g>
</g>
<!-- Node12&#45;&gt;Node8 -->
<g id="edge13_Node000012_Node000008" class="edge">
<title>Node12&#45;&gt;Node8</title>
<g id="a_edge13_Node000012_Node000008"><a xlink:title=" ">
<path fill="none" stroke="#63b8ff" d="M324.1,-128.05C306.06,-123.5 285.53,-118.32 266.62,-113.54"/>
<polygon fill="#63b8ff" stroke="#63b8ff" points="323.13,-131.67 333.68,-130.72 324.84,-124.88 323.13,-131.67"/>
</a>
</g>
</g>
<!-- Node13&#45;&gt;Node11 -->
<g id="edge15_Node000013_Node000011" class="edge">
<title>Node13&#45;&gt;Node11</title>
<g id="a_edge15_Node000013_Node000011"><a xlink:title=" ">
<path fill="none" stroke="#63b8ff" d="M309.42,-34.25C296.31,-34.94 282.54,-35.67 269.43,-36.36"/>
<polygon fill="#63b8ff" stroke="#63b8ff" points="309.45,-37.7 319.25,-33.67 309.08,-30.71 309.45,-37.7"/>
</a>
</g>
</g>
<!-- Node13&#45;&gt;Node13 -->
<g id="edge16_Node000013_Node000013" class="edge">
<title>Node13&#45;&gt;Node13</title>
<g id="a_edge16_Node000013_Node000013"><a xlink:title=" ">
<path fill="none" stroke="#63b8ff" d="M403.59,-57.43C399.22,-61.38 389.9,-64.05 375.62,-64.05 350.24,-64.05 340.53,-55.61 346.48,-46.54"/>
<polygon fill="#63b8ff" stroke="#63b8ff" points="407.17,-57.86 404.77,-47.54 400.21,-57.1 407.17,-57.86"/>
</a>
</g>
</g>
<!-- Node14&#45;&gt;Node11 -->
<g id="edge18_Node000014_Node000011" class="edge">
<title>Node14&#45;&gt;Node11</title>
<g id="a_edge18_Node000014_Node000011"><a xlink:title=" ">
<path fill="none" stroke="#63b8ff" d="M477.4,-12.54C467.08,-10.16 456.43,-8.1 446.25,-6.8 383.97,1.11 366.99,3.09 305,-6.8 283.73,-10.2 260.86,-17.38 242.29,-24.18"/>
<polygon fill="#63b8ff" stroke="#63b8ff" points="476.45,-16.16 486.99,-15.12 478.11,-9.35 476.45,-16.16"/>
</a>
</g>
</g>
<!-- Node14&#45;&gt;Node13 -->
<g id="edge19_Node000014_Node000013" class="edge">
<title>Node14&#45;&gt;Node13</title>
<g id="a_edge19_Node000014_Node000013"><a xlink:title=" ">
<path fill="none" stroke="#63b8ff" d="M474.67,-30.8C460.32,-30.8 445.25,-30.8 431.34,-30.8"/>
<polygon fill="#63b8ff" stroke="#63b8ff" points="474.47,-34.3 484.47,-30.8 474.47,-27.3 474.47,-34.3"/>
</a>
</g>
</g>
</g>
</svg>
