<?xml version="1.0" encoding="UTF-8" standalone="no"?>
<!DOCTYPE svg PUBLIC "-//W3C//DTD SVG 1.1//EN"
 "http://www.w3.org/Graphics/SVG/1.1/DTD/svg11.dtd">
<!-- Generated by graphviz version 8.0.5 (20230430.1635)
 -->
<!-- Title: Slic3r::MultiPoint::rotate Pages: 1 -->
<svg width="316pt" height="101pt"
 viewBox="0.00 0.00 316.25 101.25" xmlns="http://www.w3.org/2000/svg" xmlns:xlink="http://www.w3.org/1999/xlink">
<g id="graph0" class="graph" transform="scale(1 1) rotate(0) translate(4 97.25)">
<title>Slic3r::MultiPoint::rotate</title>
<!-- Node1 -->
<g id="Node000001" class="node">
<title>Node1</title>
<g id="a_Node000001"><a xlink:title=" ">
<polygon fill="#999999" stroke="#666666" points="90.25,-61.88 0,-61.88 0,-31.38 90.25,-31.38 90.25,-61.88"/>
<text text-anchor="start" x="8" y="-48.38" font-family="Helvetica,sans-Serif" font-size="10.00">Slic3r::MultiPoint</text>
<text text-anchor="middle" x="45.12" y="-37.12" font-family="Helvetica,sans-Serif" font-size="10.00">::rotate</text>
</a>
</g>
</g>
<!-- Node1&#45;&gt;Node1 -->
<g id="edge4_Node000001_Node000001" class="edge">
<title>Node1&#45;&gt;Node1</title>
<g id="a_edge4_Node000001_Node000001"><a xlink:title=" ">
<path fill="none" stroke="#63b8ff" d="M24.55,-62.36C20.35,-71.43 27.21,-79.88 45.12,-79.88 55.2,-79.88 61.78,-77.2 64.86,-73.25"/>
<polygon fill="#63b8ff" stroke="#63b8ff" points="68.42,-73.6 65.7,-63.36 61.45,-73.06 68.42,-73.6"/>
</a>
</g>
</g>
<!-- Node2 -->
<g id="Node000002" class="node">
<title>Node2</title>
<g id="a_Node000002"><a xlink:href="../../de/db8/namespace_slic3r.html#a7927d0ca1b31b8f9284ea268b11d27d5" target="_top" xlink:title=" ">
<polygon fill="white" stroke="#666666" points="196.25,-93.25 126.25,-93.25 126.25,-74 196.25,-74 196.25,-93.25"/>
<text text-anchor="middle" x="161.25" y="-79.75" font-family="Helvetica,sans-Serif" font-size="10.00">Slic3r::angle</text>
</a>
</g>
</g>
<!-- Node1&#45;&gt;Node2 -->
<g id="edge1_Node000001_Node000002" class="edge">
<title>Node1&#45;&gt;Node2</title>
<g id="a_edge1_Node000001_Node000002"><a xlink:title=" ">
<path fill="none" stroke="#63b8ff" d="M90.58,-61.04C99.84,-64.04 109.58,-67.2 118.73,-70.16"/>
<polygon fill="#63b8ff" stroke="#63b8ff" points="117.56,-73.79 128.15,-73.54 119.72,-67.13 117.56,-73.79"/>
</a>
</g>
</g>
<!-- Node4 -->
<g id="Node000004" class="node">
<title>Node4</title>
<g id="a_Node000004"><a xlink:href="../../d4/df0/_array_cwise_unary_ops_8h.html#a92b03396990b0e9eea0731aa406e31a4" target="_top" xlink:title=" ">
<polygon fill="white" stroke="#666666" points="177.12,-56.25 145.38,-56.25 145.38,-37 177.12,-37 177.12,-56.25"/>
<text text-anchor="middle" x="161.25" y="-42.75" font-family="Helvetica,sans-Serif" font-size="10.00">cos</text>
</a>
</g>
</g>
<!-- Node1&#45;&gt;Node4 -->
<g id="edge3_Node000001_Node000004" class="edge">
<title>Node1&#45;&gt;Node4</title>
<g id="a_edge3_Node000001_Node000004"><a xlink:title=" ">
<path fill="none" stroke="#63b8ff" d="M90.58,-46.62C105.33,-46.62 121.28,-46.62 134.18,-46.62"/>
<polygon fill="#63b8ff" stroke="#63b8ff" points="134.06,-50.13 144.06,-46.62 134.06,-43.13 134.06,-50.13"/>
</a>
</g>
</g>
<!-- Node5 -->
<g id="Node000005" class="node">
<title>Node5</title>
<g id="a_Node000005"><a xlink:href="../../d4/df0/_array_cwise_unary_ops_8h.html#a9cfb0ea58bd813510a9e2db18a5e49f0" target="_top" xlink:title=" ">
<polygon fill="white" stroke="#666666" points="175.65,-19.25 146.85,-19.25 146.85,0 175.65,0 175.65,-19.25"/>
<text text-anchor="middle" x="161.25" y="-5.75" font-family="Helvetica,sans-Serif" font-size="10.00">sin</text>
</a>
</g>
</g>
<!-- Node1&#45;&gt;Node5 -->
<g id="edge5_Node000001_Node000005" class="edge">
<title>Node1&#45;&gt;Node5</title>
<g id="a_edge5_Node000001_Node000005"><a xlink:title=" ">
<path fill="none" stroke="#63b8ff" d="M90.58,-32.21C106.12,-27.17 122.99,-21.71 136.23,-17.41"/>
<polygon fill="#63b8ff" stroke="#63b8ff" points="136.96,-20.53 145.39,-14.12 134.8,-13.87 136.96,-20.53"/>
</a>
</g>
</g>
<!-- Node3 -->
<g id="Node000003" class="node">
<title>Node3</title>
<g id="a_Node000003"><a xlink:href="../../de/db8/namespace_slic3r.html#a2cd973ab8e7af30bd57721dfc2859b8f" target="_top" xlink:title=" ">
<polygon fill="white" stroke="#666666" points="308.25,-93.25 232.25,-93.25 232.25,-74 308.25,-74 308.25,-93.25"/>
<text text-anchor="middle" x="270.25" y="-79.75" font-family="Helvetica,sans-Serif" font-size="10.00">Slic3r::cross2</text>
</a>
</g>
</g>
<!-- Node2&#45;&gt;Node3 -->
<g id="edge2_Node000002_Node000003" class="edge">
<title>Node2&#45;&gt;Node3</title>
<g id="a_edge2_Node000002_Node000003"><a xlink:title=" ">
<path fill="none" stroke="#63b8ff" d="M196.69,-83.62C204.42,-83.62 212.76,-83.62 220.94,-83.62"/>
<polygon fill="#63b8ff" stroke="#63b8ff" points="220.91,-87.13 230.91,-83.62 220.91,-80.13 220.91,-87.13"/>
</a>
</g>
</g>
</g>
</svg>
