<?xml version="1.0" encoding="UTF-8" standalone="no"?>
<!DOCTYPE svg PUBLIC "-//W3C//DTD SVG 1.1//EN"
 "http://www.w3.org/Graphics/SVG/1.1/DTD/svg11.dtd">
<!-- Generated by graphviz version 8.0.5 (20230430.1635)
 -->
<!-- Title: has_valid_chars Pages: 1 -->
<!--zoomable 545 -->

<svg id="main" version="1.1" xmlns="http://www.w3.org/2000/svg" xmlns:xlink="http://www.w3.org/1999/xlink" xml:space="preserve" onload="init(evt)">
<style type="text/css"><![CDATA[
.node, .edge {opacity: 0.7;}
.node.selected, .edge.selected {opacity: 1;}
.edge:hover path { stroke: red; }
.edge:hover polygon { stroke: red; fill: red; }
]]></style>

<defs>
  <circle id="rim" cx="0" cy="0" r="7"/>
  <circle id="rim2" cx="0" cy="0" r="3.5"/>
  <g id="zoomPlus">
    <use xlink:href="#rim" fill="#404040"><set attributeName="fill" to="#808080" begin="zoomplus.mouseover" end="zoomplus.mouseout"/></use>
    <path d="M-4,0h8M0,-4v8" fill="none" stroke="white" stroke-width="1.5" pointer-events="none"/>
  </g>
  <g id="zoomMin">
    <use xlink:href="#rim" fill="#404040"><set attributeName="fill" to="#808080" begin="zoomminus.mouseover" end="zoomminus.mouseout"/></use>
    <path d="M-4,0h8" fill="none" stroke="white" stroke-width="1.5" pointer-events="none"/>
  </g>
  <g id="arrowUp" transform="translate(30 24)">
    <use xlink:href="#rim"/>
    <path pointer-events="none" fill="none" stroke="white" stroke-width="1.5" d="M0,-3.0v7 M-2.5,-0.5L0,-3.0L2.5,-0.5"/>
  </g>
  <g id="arrowRight" transform="rotate(90) translate(36 -43)">
    <use xlink:href="#rim"/>
    <path pointer-events="none" fill="none" stroke="white" stroke-width="1.5" d="M0,-3.0v7 M-2.5,-0.5L0,-3.0L2.5,-0.5"/>
  </g>
  <g id="arrowDown" transform="rotate(180) translate(-30 -48)">
    <use xlink:href="#rim"/>
    <path pointer-events="none" fill="none" stroke="white" stroke-width="1.5" d="M0,-3.0v7 M-2.5,-0.5L0,-3.0L2.5,-0.5"/>
  </g>
  <g id="arrowLeft" transform="rotate(270) translate(-36 17)">
    <use xlink:href="#rim"/>
    <path pointer-events="none" fill="none" stroke="white" stroke-width="1.5" d="M0,-3.0v7 M-2.5,-0.5L0,-3.0L2.5,-0.5"/>
  </g>
  <g id="resetDef">
    <use xlink:href="#rim2" fill="#404040"><set attributeName="fill" to="#808080" begin="reset.mouseover" end="reset.mouseout"/></use>
  </g>
</defs>
<script type="application/ecmascript">
var viewWidth = 974;
var viewHeight = 545;
var sectionId = 'dynsection-9';
</script>
<script type="application/ecmascript" xlink:href="../../svg.min.js"/>
<svg id="graph" class="graph">
<g id="viewport">
<title>has_valid_chars</title>
<!-- Node1 -->
<g id="Node000001" class="node">
<title>Node1</title>
<g id="a_Node000001"><a xlink:title=" ">
<polygon fill="#999999" stroke="#666666" points="966.25,-297.88 879.75,-297.88 879.75,-278.62 966.25,-278.62 966.25,-297.88"/>
<text text-anchor="middle" x="923" y="-284.38" font-family="Helvetica,sans-Serif" font-size="10.00">has_valid_chars</text>
</a>
</g>
</g>
<!-- Node2 -->
<g id="Node000002" class="node">
<title>Node2</title>
<g id="a_Node000002"><a xlink:href="../../d8/d08/semver_8c.html#a1211e9f0fbc4e95649f1361690646496" target="_top" xlink:title=" ">
<polygon fill="white" stroke="#666666" points="828.38,-316.88 772.62,-316.88 772.62,-297.62 828.38,-297.62 828.38,-316.88"/>
<text text-anchor="middle" x="800.5" y="-303.38" font-family="Helvetica,sans-Serif" font-size="10.00">parse_int</text>
</a>
</g>
</g>
<!-- Node1&#45;&gt;Node2 -->
<g id="edge1_Node000001_Node000002" class="edge">
<title>Node1&#45;&gt;Node2</title>
<g id="a_edge1_Node000001_Node000002"><a xlink:title=" ">
<path fill="none" stroke="#63b8ff" d="M868.99,-296.61C855.02,-298.81 840.53,-301.1 828.57,-302.98"/>
<polygon fill="#63b8ff" stroke="#63b8ff" points="869.18,-299.96 878.52,-294.95 868.09,-293.05 869.18,-299.96"/>
</a>
</g>
</g>
<!-- Node4 -->
<g id="Node000004" class="node">
<title>Node4</title>
<g id="a_Node000004"><a xlink:href="../../d8/d08/semver_8c.html#af51e4d44eaed8ca445066fcd7566a904" target="_top" xlink:title=" ">
<polygon fill="white" stroke="#666666" points="843.75,-279.88 757.25,-279.88 757.25,-260.62 843.75,-260.62 843.75,-279.88"/>
<text text-anchor="middle" x="800.5" y="-266.38" font-family="Helvetica,sans-Serif" font-size="10.00">semver_is_valid</text>
</a>
</g>
</g>
<!-- Node1&#45;&gt;Node4 -->
<g id="edge3_Node000001_Node000004" class="edge">
<title>Node1&#45;&gt;Node4</title>
<g id="a_edge3_Node000001_Node000004"><a xlink:title=" ">
<path fill="none" stroke="#63b8ff" d="M868.78,-280.3C860.49,-279.06 852.02,-277.8 844.01,-276.6"/>
<polygon fill="#63b8ff" stroke="#63b8ff" points="868.11,-283.89 878.52,-281.9 869.14,-276.96 868.11,-283.89"/>
</a>
</g>
</g>
<!-- Node3 -->
<g id="Node000003" class="node">
<title>Node3</title>
<g id="a_Node000003"><a xlink:href="../../d8/d08/semver_8c.html#a8f6e4111653a05a8304e4fa30ec0bbf4" target="_top" xlink:title=" ">
<polygon fill="white" stroke="#666666" points="721.25,-316.88 633.25,-316.88 633.25,-297.62 721.25,-297.62 721.25,-316.88"/>
<text text-anchor="middle" x="677.25" y="-303.38" font-family="Helvetica,sans-Serif" font-size="10.00">semver_numeric</text>
</a>
</g>
</g>
<!-- Node2&#45;&gt;Node3 -->
<g id="edge2_Node000002_Node000003" class="edge">
<title>Node2&#45;&gt;Node3</title>
<g id="a_edge2_Node000002_Node000003"><a xlink:title=" ">
<path fill="none" stroke="#63b8ff" d="M761.6,-307.25C748.89,-307.25 734.64,-307.25 721.55,-307.25"/>
<polygon fill="#63b8ff" stroke="#63b8ff" points="761.29,-310.75 771.29,-307.25 761.29,-303.75 761.29,-310.75"/>
</a>
</g>
</g>
<!-- Node5 -->
<g id="Node000005" class="node">
<title>Node5</title>
<g id="a_Node000005"><a xlink:href="../../d8/d08/semver_8c.html#aa1c87a7a540706ba01c7a7250d4f1282" target="_top" xlink:title=" ">
<polygon fill="white" stroke="#666666" points="716,-279.88 638.5,-279.88 638.5,-260.62 716,-260.62 716,-279.88"/>
<text text-anchor="middle" x="677.25" y="-266.38" font-family="Helvetica,sans-Serif" font-size="10.00">semver_parse</text>
</a>
</g>
</g>
<!-- Node4&#45;&gt;Node5 -->
<g id="edge4_Node000004_Node000005" class="edge">
<title>Node4&#45;&gt;Node5</title>
<g id="a_edge4_Node000004_Node000005"><a xlink:title=" ">
<path fill="none" stroke="#63b8ff" d="M746,-270.25C735.95,-270.25 725.63,-270.25 716.17,-270.25"/>
<polygon fill="#63b8ff" stroke="#63b8ff" points="745.75,-273.75 755.75,-270.25 745.75,-266.75 745.75,-273.75"/>
</a>
</g>
</g>
<!-- Node6 -->
<g id="Node000006" class="node">
<title>Node6</title>
<g id="a_Node000006"><a xlink:href="../../d0/d1c/class_slic3r_1_1_semver.html#a8e956cc1ba6f4c7f4ef93a4da9d32670" target="_top" xlink:title=" ">
<polygon fill="white" stroke="#666666" points="597.25,-279.88 486.75,-279.88 486.75,-260.62 597.25,-260.62 597.25,-279.88"/>
<text text-anchor="middle" x="542" y="-266.38" font-family="Helvetica,sans-Serif" font-size="10.00">Slic3r::Semver::parse</text>
</a>
</g>
</g>
<!-- Node5&#45;&gt;Node6 -->
<g id="edge5_Node000005_Node000006" class="edge">
<title>Node5&#45;&gt;Node6</title>
<g id="a_edge5_Node000005_Node000006"><a xlink:title=" ">
<path fill="none" stroke="#63b8ff" d="M627.08,-270.25C617.47,-270.25 607.34,-270.25 597.57,-270.25"/>
<polygon fill="#63b8ff" stroke="#63b8ff" points="627.07,-273.75 637.07,-270.25 627.07,-266.75 627.07,-273.75"/>
</a>
</g>
</g>
<!-- Node7 -->
<g id="Node000007" class="node">
<title>Node7</title>
<g id="a_Node000007"><a xlink:href="../../d0/d1c/class_slic3r_1_1_semver.html#ae8318103127fd5c24ab8eb9a102ca05c" target="_top" xlink:title=" ">
<polygon fill="white" stroke="#666666" points="450.75,-536.88 330.5,-536.88 330.5,-517.62 450.75,-517.62 450.75,-536.88"/>
<text text-anchor="middle" x="390.62" y="-523.38" font-family="Helvetica,sans-Serif" font-size="10.00">Slic3r::Semver::Semver</text>
</a>
</g>
</g>
<!-- Node6&#45;&gt;Node7 -->
<g id="edge6_Node000006_Node000007" class="edge">
<title>Node6&#45;&gt;Node7</title>
<g id="a_edge6_Node000006_Node000007"><a xlink:title=" ">
<path fill="none" stroke="#63b8ff" d="M539.07,-291.22C533.72,-337.21 514.59,-447.62 450.75,-508.25 446.92,-511.89 442.39,-514.83 437.57,-517.21"/>
<polygon fill="#63b8ff" stroke="#63b8ff" points="542.66,-291.6 540.22,-281.29 535.69,-290.87 542.66,-291.6"/>
</a>
</g>
</g>
<!-- Node8 -->
<g id="Node000008" class="node">
<title>Node8</title>
<g id="a_Node000008"><a xlink:href="../../d9/d01/class_slic3r_1_1_g_u_i_1_1_g_u_i___app.html#a7aa86d0bde19a9c9f64134de90d55315" target="_top" xlink:title=" ">
<polygon fill="white" stroke="#666666" points="446.25,-499.5 335,-499.5 335,-469 446.25,-469 446.25,-499.5"/>
<text text-anchor="start" x="343" y="-486" font-family="Helvetica,sans-Serif" font-size="10.00">Slic3r::GUI::GUI_App</text>
<text text-anchor="middle" x="390.62" y="-474.75" font-family="Helvetica,sans-Serif" font-size="10.00">::app_updater</text>
</a>
</g>
</g>
<!-- Node6&#45;&gt;Node8 -->
<g id="edge7_Node000006_Node000008" class="edge">
<title>Node6&#45;&gt;Node8</title>
<g id="a_edge7_Node000006_Node000008"><a xlink:title=" ">
<path fill="none" stroke="#63b8ff" d="M535.87,-290.46C525.55,-327.49 499.04,-406.86 450.75,-455.25 445.58,-460.43 439.3,-464.83 432.79,-468.52"/>
<polygon fill="#63b8ff" stroke="#63b8ff" points="539.46,-291.58 538.66,-281.01 532.7,-289.77 539.46,-291.58"/>
</a>
</g>
</g>
<!-- Node9 -->
<g id="Node000009" class="node">
<title>Node9</title>
<g id="a_Node000009"><a xlink:href="../../d9/d01/class_slic3r_1_1_g_u_i_1_1_g_u_i___app.html#ac02e3bb15f146ecb7c6647ba647fd9a9" target="_top" xlink:title=" ">
<polygon fill="white" stroke="#666666" points="276.5,-480.5 165.25,-480.5 165.25,-450 276.5,-450 276.5,-480.5"/>
<text text-anchor="start" x="173.25" y="-467" font-family="Helvetica,sans-Serif" font-size="10.00">Slic3r::GUI::GUI_App</text>
<text text-anchor="middle" x="220.88" y="-455.75" font-family="Helvetica,sans-Serif" font-size="10.00">::on_version_read</text>
</a>
</g>
</g>
<!-- Node6&#45;&gt;Node9 -->
<g id="edge21_Node000006_Node000009" class="edge">
<title>Node6&#45;&gt;Node9</title>
<g id="a_edge21_Node000006_Node000009"><a xlink:title=" ">
<path fill="none" stroke="#63b8ff" d="M534.52,-290.41C523.08,-322.62 496.11,-385.31 450.75,-417.25 423.24,-436.62 335.41,-451.03 276.9,-458.78"/>
<polygon fill="#63b8ff" stroke="#63b8ff" points="538.15,-291.63 538.04,-281.03 531.52,-289.38 538.15,-291.63"/>
</a>
</g>
</g>
<!-- Node10 -->
<g id="Node000010" class="node">
<title>Node10</title>
<g id="a_Node000010"><a xlink:href="../../d9/d01/class_slic3r_1_1_g_u_i_1_1_g_u_i___app.html#af07660170ea83f0e8eb7a3235b78746d" target="_top" xlink:title=" ">
<polygon fill="#fff0f0" stroke="red" points="111.25,-437.5 0,-437.5 0,-407 111.25,-407 111.25,-437.5"/>
<text text-anchor="start" x="8" y="-424" font-family="Helvetica,sans-Serif" font-size="10.00">Slic3r::GUI::GUI_App</text>
<text text-anchor="middle" x="55.62" y="-412.75" font-family="Helvetica,sans-Serif" font-size="10.00">::on_init_inner</text>
</a>
</g>
</g>
<!-- Node6&#45;&gt;Node10 -->
<g id="edge20_Node000006_Node000010" class="edge">
<title>Node6&#45;&gt;Node10</title>
<g id="a_edge20_Node000006_Node000010"><a xlink:title=" ">
<path fill="none" stroke="#63b8ff" d="M518.7,-286.48C477.06,-315.78 383.62,-376.92 294.5,-403.25 233.71,-421.21 160.62,-424.49 111.64,-424.22"/>
<polygon fill="#63b8ff" stroke="#63b8ff" points="520.34,-288.89 526.46,-280.24 516.28,-283.19 520.34,-288.89"/>
</a>
</g>
</g>
<!-- Node12 -->
<g id="Node000012" class="node">
<title>Node12</title>
<g id="a_Node000012"><a xlink:href="../../d8/df0/class_slic3r_1_1_g_u_i_1_1_config_1_1_index.html#a4e8ac4c8876fd25e06e8b56dc1da660b" target="_top" xlink:title=" ">
<polygon fill="white" stroke="#666666" points="440.25,-307.5 341,-307.5 341,-277 440.25,-277 440.25,-307.5"/>
<text text-anchor="start" x="349" y="-294" font-family="Helvetica,sans-Serif" font-size="10.00">Slic3r::GUI::Config</text>
<text text-anchor="middle" x="390.62" y="-282.75" font-family="Helvetica,sans-Serif" font-size="10.00">::Index::load</text>
</a>
</g>
</g>
<!-- Node6&#45;&gt;Node12 -->
<g id="edge10_Node000006_Node000012" class="edge">
<title>Node6&#45;&gt;Node12</title>
<g id="a_edge10_Node000006_Node000012"><a xlink:title=" ">
<path fill="none" stroke="#63b8ff" d="M475.93,-279.83C464.12,-281.57 451.99,-283.36 440.73,-285.02"/>
<polygon fill="#63b8ff" stroke="#63b8ff" points="476.27,-283.17 485.65,-278.25 475.25,-276.25 476.27,-283.17"/>
</a>
</g>
</g>
<!-- Node29 -->
<g id="Node000029" class="node">
<title>Node29</title>
<g id="a_Node000029"><a xlink:href="../../da/d00/class_slic3r_1_1_app_config.html#a10cc0e9cae8e299e37a851a52a78b1f6" target="_top" xlink:title=" ">
<polygon fill="white" stroke="#666666" points="448.88,-258.88 332.38,-258.88 332.38,-239.62 448.88,-239.62 448.88,-258.88"/>
<text text-anchor="middle" x="390.62" y="-245.38" font-family="Helvetica,sans-Serif" font-size="10.00">Slic3r::AppConfig::load</text>
</a>
</g>
</g>
<!-- Node6&#45;&gt;Node29 -->
<g id="edge18_Node000006_Node000029" class="edge">
<title>Node6&#45;&gt;Node29</title>
<g id="a_edge18_Node000006_Node000029"><a xlink:title=" ">
<path fill="none" stroke="#63b8ff" d="M475.93,-261.1C467.03,-259.85 457.95,-258.57 449.21,-257.34"/>
<polygon fill="#63b8ff" stroke="#63b8ff" points="475.26,-264.68 485.65,-262.61 476.23,-257.75 475.26,-264.68"/>
</a>
</g>
</g>
<!-- Node30 -->
<g id="Node000030" class="node">
<title>Node30</title>
<g id="a_Node000030"><a xlink:href="../../d3/d45/class_slic3r_1_1_g_u_i_1_1_config_1_1_snapshot.html#a43a112af3dfbfc56e25fa78b7a5fd9e0" target="_top" xlink:title=" ">
<polygon fill="white" stroke="#666666" points="441.75,-221.5 339.5,-221.5 339.5,-191 441.75,-191 441.75,-221.5"/>
<text text-anchor="start" x="347.5" y="-208" font-family="Helvetica,sans-Serif" font-size="10.00">Slic3r::GUI::Config</text>
<text text-anchor="middle" x="390.62" y="-196.75" font-family="Helvetica,sans-Serif" font-size="10.00">::Snapshot::load_ini</text>
</a>
</g>
</g>
<!-- Node6&#45;&gt;Node30 -->
<g id="edge19_Node000006_Node000030" class="edge">
<title>Node6&#45;&gt;Node30</title>
<g id="a_edge19_Node000006_Node000030"><a xlink:title=" ">
<path fill="none" stroke="#63b8ff" d="M509.25,-255.88C492,-248.15 470.27,-238.53 450.75,-230.25 444.33,-227.52 437.48,-224.68 430.82,-221.96"/>
<polygon fill="#63b8ff" stroke="#63b8ff" points="507.28,-259.28 517.83,-260.19 510.15,-252.9 507.28,-259.28"/>
</a>
</g>
</g>
<!-- Node31 -->
<g id="Node000031" class="node">
<title>Node31</title>
<g id="a_Node000031"><a xlink:href="../../d9/d45/namespace_slic3r_1_1_g_u_i.html#a633d13ddaa1ce00372e92439854bfabc" target="_top" xlink:title=" ">
<polygon fill="white" stroke="#666666" points="438,-172.5 343.25,-172.5 343.25,-142 438,-142 438,-172.5"/>
<text text-anchor="start" x="351.25" y="-159" font-family="Helvetica,sans-Serif" font-size="10.00">Slic3r::GUI::parse</text>
<text text-anchor="middle" x="390.62" y="-147.75" font-family="Helvetica,sans-Serif" font-size="10.00">_semver_from_ini</text>
</a>
</g>
</g>
<!-- Node6&#45;&gt;Node31 -->
<g id="edge22_Node000006_Node000031" class="edge">
<title>Node6&#45;&gt;Node31</title>
<g id="a_edge22_Node000006_Node000031"><a xlink:title=" ">
<path fill="none" stroke="#63b8ff" d="M526,-252.03C509.28,-232.65 480.65,-202.11 450.75,-182.25 445.55,-178.8 439.8,-175.66 433.98,-172.86"/>
<polygon fill="#63b8ff" stroke="#63b8ff" points="523.87,-253.93 533,-259.31 529.22,-249.41 523.87,-253.93"/>
</a>
</g>
</g>
<!-- Node32 -->
<g id="Node000032" class="node">
<title>Node32</title>
<g id="a_Node000032"><a xlink:href="../../d5/d1f/struct_slic3r_1_1_app_updater_1_1priv.html#a24327a48fa2e9fa3316efa1b31f8ff48" target="_top" xlink:title=" ">
<polygon fill="white" stroke="#666666" points="442.88,-124.12 338.38,-124.12 338.38,-82.38 442.88,-82.38 442.88,-124.12"/>
<text text-anchor="start" x="346.38" y="-110.62" font-family="Helvetica,sans-Serif" font-size="10.00">Slic3r::AppUpdater</text>
<text text-anchor="start" x="346.38" y="-99.38" font-family="Helvetica,sans-Serif" font-size="10.00">::priv::parse_version</text>
<text text-anchor="middle" x="390.62" y="-88.12" font-family="Helvetica,sans-Serif" font-size="10.00">_string</text>
</a>
</g>
</g>
<!-- Node6&#45;&gt;Node32 -->
<g id="edge25_Node000006_Node000032" class="edge">
<title>Node6&#45;&gt;Node32</title>
<g id="a_edge25_Node000006_Node000032"><a xlink:title=" ">
<path fill="none" stroke="#63b8ff" d="M532.18,-250.65C518.36,-221.79 489.18,-167.57 450.75,-133.25 447.23,-130.11 443.32,-127.2 439.24,-124.54"/>
<polygon fill="#63b8ff" stroke="#63b8ff" points="529.31,-251.79 536.71,-259.38 535.66,-248.84 529.31,-251.79"/>
</a>
</g>
</g>
<!-- Node33 -->
<g id="Node000033" class="node">
<title>Node33</title>
<g id="a_Node000033"><a xlink:href="../../d9/d80/class_slic3r_1_1_preset_updater.html#a0a8903e6205d905be2ae816302054505" target="_top" xlink:title=" ">
<polygon fill="white" stroke="#666666" points="445.5,-64.5 335.75,-64.5 335.75,-34 445.5,-34 445.5,-64.5"/>
<text text-anchor="start" x="343.75" y="-51" font-family="Helvetica,sans-Serif" font-size="10.00">Slic3r::PresetUpdater</text>
<text text-anchor="middle" x="390.62" y="-39.75" font-family="Helvetica,sans-Serif" font-size="10.00">::slic3r_update_notify</text>
</a>
</g>
</g>
<!-- Node6&#45;&gt;Node33 -->
<g id="edge26_Node000006_Node000033" class="edge">
<title>Node6&#45;&gt;Node33</title>
<g id="a_edge26_Node000006_Node000033"><a xlink:title=" ">
<path fill="none" stroke="#63b8ff" d="M536.83,-249.47C527.87,-209.95 503.22,-123.46 450.75,-73.25 447.47,-70.11 443.72,-67.36 439.74,-64.96"/>
<polygon fill="#63b8ff" stroke="#63b8ff" points="533.6,-250.09 539.12,-259.13 540.44,-248.62 533.6,-250.09"/>
</a>
</g>
</g>
<!-- Node8&#45;&gt;Node9 -->
<g id="edge8_Node000008_Node000009" class="edge">
<title>Node8&#45;&gt;Node9</title>
<g id="a_edge8_Node000008_Node000009"><a xlink:title=" ">
<path fill="none" stroke="#63b8ff" d="M324.07,-476.83C308.48,-475.06 292,-473.19 276.93,-471.49"/>
<polygon fill="#63b8ff" stroke="#63b8ff" points="323.37,-480.38 333.7,-478.03 324.15,-473.43 323.37,-480.38"/>
</a>
</g>
</g>
<!-- Node9&#45;&gt;Node10 -->
<g id="edge9_Node000009_Node000010" class="edge">
<title>Node9&#45;&gt;Node10</title>
<g id="a_edge9_Node000009_Node000010"><a xlink:title=" ">
<path fill="none" stroke="#63b8ff" d="M154.79,-448.11C140.47,-444.33 125.44,-440.38 111.57,-436.72"/>
<polygon fill="#63b8ff" stroke="#63b8ff" points="153.5,-451.65 164.06,-450.81 155.28,-444.88 153.5,-451.65"/>
</a>
</g>
</g>
<!-- Node13 -->
<g id="Node000013" class="node">
<title>Node13</title>
<g id="a_Node000013"><a xlink:href="../../db/d7e/struct_slic3r_1_1_preset_updater_1_1priv.html#abee9a20630ab3cf5873911138c954ead" target="_top" xlink:title=" ">
<polygon fill="#fff0f0" stroke="red" points="275.75,-394.12 166,-394.12 166,-352.38 275.75,-352.38 275.75,-394.12"/>
<text text-anchor="start" x="174" y="-380.62" font-family="Helvetica,sans-Serif" font-size="10.00">Slic3r::PresetUpdater</text>
<text text-anchor="start" x="174" y="-369.38" font-family="Helvetica,sans-Serif" font-size="10.00">::priv::check_install</text>
<text text-anchor="middle" x="220.88" y="-358.12" font-family="Helvetica,sans-Serif" font-size="10.00">_indices</text>
</a>
</g>
</g>
<!-- Node12&#45;&gt;Node13 -->
<g id="edge11_Node000012_Node000013" class="edge">
<title>Node12&#45;&gt;Node13</title>
<g id="a_edge11_Node000012_Node000013"><a xlink:title=" ">
<path fill="none" stroke="#63b8ff" d="M352.84,-313.09C335.37,-322.69 314.08,-333.99 294.5,-343.25 288.33,-346.17 281.81,-349.09 275.29,-351.9"/>
<polygon fill="#63b8ff" stroke="#63b8ff" points="354.06,-315.86 361.11,-307.95 350.67,-309.73 354.06,-315.86"/>
</a>
</g>
</g>
<!-- Node15 -->
<g id="Node000015" class="node">
<title>Node15</title>
<g id="a_Node000015"><a xlink:href="../../db/d7e/struct_slic3r_1_1_preset_updater_1_1priv.html#aff1209280aef6cb26f85a010a51f39f7" target="_top" xlink:title=" ">
<polygon fill="white" stroke="#666666" points="285.12,-334.5 156.62,-334.5 156.62,-304 285.12,-304 285.12,-334.5"/>
<text text-anchor="start" x="164.62" y="-321" font-family="Helvetica,sans-Serif" font-size="10.00">Slic3r::PresetUpdater</text>
<text text-anchor="middle" x="220.88" y="-309.75" font-family="Helvetica,sans-Serif" font-size="10.00">::priv::get_config_updates</text>
</a>
</g>
</g>
<!-- Node12&#45;&gt;Node15 -->
<g id="edge12_Node000012_Node000015" class="edge">
<title>Node12&#45;&gt;Node15</title>
<g id="a_edge12_Node000012_Node000015"><a xlink:title=" ">
<path fill="none" stroke="#63b8ff" d="M329.9,-301.86C315.53,-304.18 300.13,-306.65 285.59,-308.99"/>
<polygon fill="#63b8ff" stroke="#63b8ff" points="330.34,-305.18 339.65,-300.13 329.22,-298.27 330.34,-305.18"/>
</a>
</g>
</g>
<!-- Node16 -->
<g id="Node000016" class="node">
<title>Node16</title>
<g id="a_Node000016"><a xlink:href="../../d9/d80/class_slic3r_1_1_preset_updater.html#a49beaee12e39fddebdd81ccb4de1a66b" target="_top" xlink:title=" ">
<polygon fill="#fff0f0" stroke="red" points="275.75,-286.12 166,-286.12 166,-244.38 275.75,-244.38 275.75,-286.12"/>
<text text-anchor="start" x="174" y="-272.62" font-family="Helvetica,sans-Serif" font-size="10.00">Slic3r::PresetUpdater</text>
<text text-anchor="start" x="174" y="-261.38" font-family="Helvetica,sans-Serif" font-size="10.00">::install_bundles_rsrc</text>
<text text-anchor="middle" x="220.88" y="-250.12" font-family="Helvetica,sans-Serif" font-size="10.00">_or_cache_vendor</text>
</a>
</g>
</g>
<!-- Node12&#45;&gt;Node16 -->
<g id="edge13_Node000012_Node000016" class="edge">
<title>Node12&#45;&gt;Node16</title>
<g id="a_edge13_Node000012_Node000016"><a xlink:title=" ">
<path fill="none" stroke="#63b8ff" d="M329.97,-282.65C312.44,-279.83 293.37,-276.76 276.2,-273.99"/>
<polygon fill="#63b8ff" stroke="#63b8ff" points="329.22,-286.23 339.65,-284.37 330.34,-279.32 329.22,-286.23"/>
</a>
</g>
</g>
<!-- Node18 -->
<g id="Node000018" class="node">
<title>Node18</title>
<g id="a_Node000018"><a xlink:href="../../d1/db3/struct_slic3r_1_1_g_u_i_1_1_bundle_map.html#ab8dbbf83dfbd0392e9d691d4b292a061" target="_top" xlink:title=" ">
<polygon fill="#fff0f0" stroke="red" points="280.62,-226.5 161.12,-226.5 161.12,-196 280.62,-196 280.62,-226.5"/>
<text text-anchor="start" x="169.12" y="-213" font-family="Helvetica,sans-Serif" font-size="10.00">Slic3r::GUI::BundleMap</text>
<text text-anchor="middle" x="220.88" y="-201.75" font-family="Helvetica,sans-Serif" font-size="10.00">::load</text>
</a>
</g>
</g>
<!-- Node12&#45;&gt;Node18 -->
<g id="edge14_Node000012_Node000018" class="edge">
<title>Node12&#45;&gt;Node18</title>
<g id="a_edge14_Node000012_Node000018"><a xlink:title=" ">
<path fill="none" stroke="#63b8ff" d="M336.04,-271.54C334.14,-270.48 332.29,-269.38 330.5,-268.25 312.15,-256.65 313.22,-246.23 294.5,-235.25 289.23,-232.16 283.51,-229.4 277.67,-226.96"/>
<polygon fill="#63b8ff" stroke="#63b8ff" points="334.3,-275.09 344.79,-276.54 337.49,-268.86 334.3,-275.09"/>
</a>
</g>
</g>
<!-- Node20 -->
<g id="Node000020" class="node">
<title>Node20</title>
<g id="a_Node000020"><a xlink:href="../../d8/df0/class_slic3r_1_1_g_u_i_1_1_config_1_1_index.html#adc3a5460d38366d4c4c0ce2fe24b691c" target="_top" xlink:title=" ">
<polygon fill="#fff0f0" stroke="red" points="270.5,-177.5 171.25,-177.5 171.25,-147 270.5,-147 270.5,-177.5"/>
<text text-anchor="start" x="179.25" y="-164" font-family="Helvetica,sans-Serif" font-size="10.00">Slic3r::GUI::Config</text>
<text text-anchor="middle" x="220.88" y="-152.75" font-family="Helvetica,sans-Serif" font-size="10.00">::Index::load_db</text>
</a>
</g>
</g>
<!-- Node12&#45;&gt;Node20 -->
<g id="edge15_Node000012_Node000020" class="edge">
<title>Node12&#45;&gt;Node20</title>
<g id="a_edge15_Node000012_Node000020"><a xlink:title=" ">
<path fill="none" stroke="#63b8ff" d="M332.71,-270.27C331.95,-269.61 331.21,-268.94 330.5,-268.25 302.19,-240.85 323.54,-213.87 294.5,-187.25 287.72,-181.03 279.32,-176.35 270.66,-172.83"/>
<polygon fill="#63b8ff" stroke="#63b8ff" points="330.31,-273.58 340.47,-276.58 334.4,-267.9 330.31,-273.58"/>
</a>
</g>
</g>
<!-- Node27 -->
<g id="Node000027" class="node">
<title>Node27</title>
<g id="a_Node000027"><a xlink:href="../../db/d7e/struct_slic3r_1_1_preset_updater_1_1priv.html#a8476c7e87f53c7f14649f21d517f3aab" target="_top" xlink:title=" ">
<polygon fill="white" stroke="#666666" points="275.75,-128.5 166,-128.5 166,-98 275.75,-98 275.75,-128.5"/>
<text text-anchor="start" x="174" y="-115" font-family="Helvetica,sans-Serif" font-size="10.00">Slic3r::PresetUpdater</text>
<text text-anchor="middle" x="220.88" y="-103.75" font-family="Helvetica,sans-Serif" font-size="10.00">::priv::sync_config</text>
</a>
</g>
</g>
<!-- Node12&#45;&gt;Node27 -->
<g id="edge16_Node000012_Node000027" class="edge">
<title>Node12&#45;&gt;Node27</title>
<g id="a_edge16_Node000012_Node000027"><a xlink:title=" ">
<path fill="none" stroke="#63b8ff" d="M332.21,-270.06C331.62,-269.48 331.05,-268.87 330.5,-268.25 290.62,-223.48 335.57,-181.92 294.5,-138.25 289.38,-132.81 283.03,-128.55 276.23,-125.22"/>
<polygon fill="#63b8ff" stroke="#63b8ff" points="329.69,-273.34 339.67,-276.89 334.09,-267.89 329.69,-273.34"/>
</a>
</g>
</g>
<!-- Node28 -->
<g id="Node000028" class="node">
<title>Node28</title>
<g id="a_Node000028"><a xlink:href="../../dd/d58/class_slic3r_1_1_g_u_i_1_1_config_1_1_snapshot_d_b.html#a5b340d609a25091f6b3933b8af359531" target="_top" xlink:title=" ">
<polygon fill="#fff0f0" stroke="red" points="294.5,-79.5 147.25,-79.5 147.25,-49 294.5,-49 294.5,-79.5"/>
<text text-anchor="start" x="155.25" y="-66" font-family="Helvetica,sans-Serif" font-size="10.00">Slic3r::GUI::Config</text>
<text text-anchor="middle" x="220.88" y="-54.75" font-family="Helvetica,sans-Serif" font-size="10.00">::SnapshotDB::take_snapshot</text>
</a>
</g>
</g>
<!-- Node12&#45;&gt;Node28 -->
<g id="edge17_Node000012_Node000028" class="edge">
<title>Node12&#45;&gt;Node28</title>
<g id="a_edge17_Node000012_Node000028"><a xlink:title=" ">
<path fill="none" stroke="#63b8ff" d="M332.48,-270.47C331.8,-269.76 331.13,-269.02 330.5,-268.25 278.73,-205.76 347.94,-150.32 294.5,-89.25 291.34,-85.64 287.63,-82.55 283.59,-79.9"/>
<polygon fill="#63b8ff" stroke="#63b8ff" points="329.77,-273.6 339.7,-277.3 334.24,-268.22 329.77,-273.6"/>
</a>
</g>
</g>
<!-- Node24 -->
<g id="Node000024" class="node">
<title>Node24</title>
<g id="a_Node000024"><a xlink:href="../../d9/d01/class_slic3r_1_1_g_u_i_1_1_g_u_i___app.html#a7ccaab68e9ec4821cb3e1a85e0d61fb3" target="_top" xlink:title=" ">
<polygon fill="white" stroke="#666666" points="284.38,-30.5 157.38,-30.5 157.38,0 284.38,0 284.38,-30.5"/>
<text text-anchor="start" x="165.38" y="-17" font-family="Helvetica,sans-Serif" font-size="10.00">Slic3r::GUI::GUI_App</text>
<text text-anchor="middle" x="220.88" y="-5.75" font-family="Helvetica,sans-Serif" font-size="10.00">::check_older_app_config</text>
</a>
</g>
</g>
<!-- Node31&#45;&gt;Node24 -->
<g id="edge23_Node000031_Node000024" class="edge">
<title>Node31&#45;&gt;Node24</title>
<g id="a_edge23_Node000031_Node000024"><a xlink:title=" ">
<path fill="none" stroke="#63b8ff" d="M334.02,-136.5C332.79,-135.47 331.62,-134.39 330.5,-133.25 299.42,-101.66 326.43,-70.99 294.5,-40.25 290.75,-36.64 286.46,-33.55 281.88,-30.91"/>
<polygon fill="#63b8ff" stroke="#63b8ff" points="331.56,-139.75 341.76,-142.63 335.58,-134.02 331.56,-139.75"/>
</a>
</g>
</g>
<!-- Node24&#45;&gt;Node10 -->
<g id="edge24_Node000024_Node000010" class="edge">
<title>Node24&#45;&gt;Node10</title>
<g id="a_edge24_Node000024_Node000010"><a xlink:title=" ">
<path fill="none" stroke="#63b8ff" d="M150.17,-37.29C149.16,-38.24 148.18,-39.22 147.25,-40.25 96.45,-96.32 65.61,-342.41 58.31,-406.79"/>
<polygon fill="#63b8ff" stroke="#63b8ff" points="151.83,-39.67 157.64,-30.81 147.57,-34.11 151.83,-39.67"/>
</a>
</g>
</g>
</g>
</svg>

<g id="navigator" transform="translate(0 0)" fill="#404254">
  <rect fill="#f2f5e9" fill-opacity="0.5" stroke="#606060" stroke-width=".5" x="0" y="0" width="60" height="60"/>
  <use id="zoomplus" xlink:href="#zoomPlus" x="17" y="9" onmousedown="handleZoom(evt,'in')"/>
  <use id="zoomminus" xlink:href="#zoomMin" x="42" y="9" onmousedown="handleZoom(evt,'out')"/>
  <use id="reset" xlink:href="#resetDef" x="30" y="36" onmousedown="handleReset()"/>
   <use id="arrowup" xlink:href="#arrowUp" x="0" y="0" onmousedown="handlePan(0,-1)"/>
  <use id="arrowright" xlink:href="#arrowRight" x="0" y="0" onmousedown="handlePan(1,0)"/>
  <use id="arrowdown" xlink:href="#arrowDown" x="0" y="0" onmousedown="handlePan(0,1)"/>
  <use id="arrowleft" xlink:href="#arrowLeft" x="0" y="0" onmousedown="handlePan(-1,0)"/>
</g>
<svg viewBox="0 0 15 15" width="100%" height="30px" preserveAspectRatio="xMaxYMin meet">
 <g id="arrow_out" transform="scale(0.3 0.3)">
  <a xlink:href="semver_8c_a4856b66688a3c9e37dc2fe00b2c87935_icgraph_org.svg" target="_base">
   <rect id="button" ry="5" rx="5" y="6" x="6" height="38" width="38"
        fill="#f2f5e9" fill-opacity="0.5" stroke="#606060" stroke-width="1.0"/>
   <path id="arrow"
     d="M 11.500037,31.436501 C 11.940474,20.09759 22.043105,11.32322 32.158766,21.979434 L 37.068811,17.246167 C 37.068811,17.246167 37.088388,32 37.088388,32 L 22.160133,31.978069 C 22.160133,31.978069 26.997745,27.140456 26.997745,27.140456 C 18.528582,18.264221 13.291696,25.230495 11.500037,31.436501 z"
     style="fill:#404040;"/>
  </a>
 </g>
</svg>

<style type='text/css'>
<![CDATA[
[data-mouse-over-selected='false'] { opacity: 0.7; }
[data-mouse-over-selected='true']  { opacity: 1.0; }
]]>
</style>
<script type="application/ecmascript"><![CDATA[
document.addEventListener('DOMContentLoaded', (event) => {
  highlightEdges();
  highlightAdjacentNodes();
});
]]></script>
</svg>
