<?xml version="1.0" encoding="UTF-8" standalone="no"?>
<!DOCTYPE svg PUBLIC "-//W3C//DTD SVG 1.1//EN"
 "http://www.w3.org/Graphics/SVG/1.1/DTD/svg11.dtd">
<!-- Generated by graphviz version 8.0.5 (20230430.1635)
 -->
<!-- Title: Slic3r::Geometry::transform3d_from_string Pages: 1 -->
<!--zoomable 186 -->

<svg id="main" version="1.1" xmlns="http://www.w3.org/2000/svg" xmlns:xlink="http://www.w3.org/1999/xlink" xml:space="preserve" onload="init(evt)">
<style type="text/css"><![CDATA[
.node, .edge {opacity: 0.7;}
.node.selected, .edge.selected {opacity: 1;}
.edge:hover path { stroke: red; }
.edge:hover polygon { stroke: red; fill: red; }
]]></style>

<defs>
  <circle id="rim" cx="0" cy="0" r="7"/>
  <circle id="rim2" cx="0" cy="0" r="3.5"/>
  <g id="zoomPlus">
    <use xlink:href="#rim" fill="#404040"><set attributeName="fill" to="#808080" begin="zoomplus.mouseover" end="zoomplus.mouseout"/></use>
    <path d="M-4,0h8M0,-4v8" fill="none" stroke="white" stroke-width="1.5" pointer-events="none"/>
  </g>
  <g id="zoomMin">
    <use xlink:href="#rim" fill="#404040"><set attributeName="fill" to="#808080" begin="zoomminus.mouseover" end="zoomminus.mouseout"/></use>
    <path d="M-4,0h8" fill="none" stroke="white" stroke-width="1.5" pointer-events="none"/>
  </g>
  <g id="arrowUp" transform="translate(30 24)">
    <use xlink:href="#rim"/>
    <path pointer-events="none" fill="none" stroke="white" stroke-width="1.5" d="M0,-3.0v7 M-2.5,-0.5L0,-3.0L2.5,-0.5"/>
  </g>
  <g id="arrowRight" transform="rotate(90) translate(36 -43)">
    <use xlink:href="#rim"/>
    <path pointer-events="none" fill="none" stroke="white" stroke-width="1.5" d="M0,-3.0v7 M-2.5,-0.5L0,-3.0L2.5,-0.5"/>
  </g>
  <g id="arrowDown" transform="rotate(180) translate(-30 -48)">
    <use xlink:href="#rim"/>
    <path pointer-events="none" fill="none" stroke="white" stroke-width="1.5" d="M0,-3.0v7 M-2.5,-0.5L0,-3.0L2.5,-0.5"/>
  </g>
  <g id="arrowLeft" transform="rotate(270) translate(-36 17)">
    <use xlink:href="#rim"/>
    <path pointer-events="none" fill="none" stroke="white" stroke-width="1.5" d="M0,-3.0v7 M-2.5,-0.5L0,-3.0L2.5,-0.5"/>
  </g>
  <g id="resetDef">
    <use xlink:href="#rim2" fill="#404040"><set attributeName="fill" to="#808080" begin="reset.mouseover" end="reset.mouseout"/></use>
  </g>
</defs>
<script type="application/ecmascript">
var viewWidth = 904;
var viewHeight = 186;
var sectionId = 'dynsection-108';
</script>
<script type="application/ecmascript" xlink:href="../../svg.min.js"/>
<svg id="graph" class="graph">
<g id="viewport">
<title>Slic3r::Geometry::transform3d_from_string</title>
<!-- Node1 -->
<g id="Node000001" class="node">
<title>Node1</title>
<g id="a_Node000001"><a xlink:title=" ">
<polygon fill="#999999" stroke="#666666" points="896.25,-121.5 749,-121.5 749,-91 896.25,-91 896.25,-121.5"/>
<text text-anchor="start" x="757" y="-108" font-family="Helvetica,sans-Serif" font-size="10.00">Slic3r::Geometry::transform3d</text>
<text text-anchor="middle" x="822.62" y="-96.75" font-family="Helvetica,sans-Serif" font-size="10.00">_from_string</text>
</a>
</g>
</g>
<!-- Node2 -->
<g id="Node000002" class="node">
<title>Node2</title>
<g id="a_Node000002"><a xlink:href="../../d2/d24/class_slic3r_1_1__3_m_f___importer.html#a41f46fcbf70bd4816bf0b01dbc300af3" target="_top" xlink:title=" ">
<polygon fill="white" stroke="#666666" points="704,-155.5 591.25,-155.5 591.25,-125 704,-125 704,-155.5"/>
<text text-anchor="start" x="599.25" y="-142" font-family="Helvetica,sans-Serif" font-size="10.00">Slic3r::_3MF_Importer</text>
<text text-anchor="middle" x="647.62" y="-130.75" font-family="Helvetica,sans-Serif" font-size="10.00">::_generate_volumes</text>
</a>
</g>
</g>
<!-- Node1&#45;&gt;Node2 -->
<g id="edge1_Node000001_Node000002" class="edge">
<title>Node1&#45;&gt;Node2</title>
<g id="a_edge1_Node000001_Node000002"><a xlink:title=" ">
<path fill="none" stroke="#63b8ff" d="M737.72,-122.74C726.42,-124.96 715.06,-127.19 704.42,-129.28"/>
<polygon fill="#63b8ff" stroke="#63b8ff" points="738.37,-125.98 747.51,-120.62 737.02,-119.11 738.37,-125.98"/>
</a>
</g>
</g>
<!-- Node29 -->
<g id="Node000029" class="node">
<title>Node29</title>
<g id="a_Node000029"><a xlink:href="../../db/dec/struct_slic3r_1_1_a_m_f_parser_context.html#a1547d6c4b56997e745dfc71c3111ba93" target="_top" xlink:title=" ">
<polygon fill="white" stroke="#666666" points="713,-97.5 582.25,-97.5 582.25,-67 713,-67 713,-97.5"/>
<text text-anchor="start" x="590.25" y="-84" font-family="Helvetica,sans-Serif" font-size="10.00">Slic3r::AMFParserContext</text>
<text text-anchor="middle" x="647.62" y="-72.75" font-family="Helvetica,sans-Serif" font-size="10.00">::endElement</text>
</a>
</g>
</g>
<!-- Node1&#45;&gt;Node29 -->
<g id="edge8_Node000001_Node000029" class="edge">
<title>Node1&#45;&gt;Node29</title>
<g id="a_edge8_Node000001_Node000029"><a xlink:title=" ">
<path fill="none" stroke="#63b8ff" d="M737.73,-94.61C729.51,-93.47 721.25,-92.32 713.25,-91.22"/>
<polygon fill="#63b8ff" stroke="#63b8ff" points="737.12,-98.2 747.51,-96.11 738.08,-91.27 737.12,-98.2"/>
</a>
</g>
</g>
<!-- Node3 -->
<g id="Node000003" class="node">
<title>Node3</title>
<g id="a_Node000003"><a xlink:href="../../d2/d24/class_slic3r_1_1__3_m_f___importer.html#a7874e7bbbbb9566547e4f3f6e3d6e719" target="_top" xlink:title=" ">
<polygon fill="white" stroke="#666666" points="540.62,-165.5 421.12,-165.5 421.12,-135 540.62,-135 540.62,-165.5"/>
<text text-anchor="start" x="429.12" y="-152" font-family="Helvetica,sans-Serif" font-size="10.00">Slic3r::_3MF_Importer</text>
<text text-anchor="middle" x="480.88" y="-140.75" font-family="Helvetica,sans-Serif" font-size="10.00">::_load_model_from_file</text>
</a>
</g>
</g>
<!-- Node2&#45;&gt;Node3 -->
<g id="edge2_Node000002_Node000003" class="edge">
<title>Node2&#45;&gt;Node3</title>
<g id="a_edge2_Node000002_Node000003"><a xlink:title=" ">
<path fill="none" stroke="#63b8ff" d="M580.12,-144.29C567.17,-145.07 553.67,-145.89 540.98,-146.66"/>
<polygon fill="#63b8ff" stroke="#63b8ff" points="580.08,-147.74 589.85,-143.64 579.65,-140.75 580.08,-147.74"/>
</a>
</g>
</g>
<!-- Node4 -->
<g id="Node000004" class="node">
<title>Node4</title>
<g id="a_Node000004"><a xlink:href="../../d2/d24/class_slic3r_1_1__3_m_f___importer.html#a9d10f753d1aed961802bdd2f75e4facd" target="_top" xlink:title=" ">
<polygon fill="white" stroke="#666666" points="375,-165.5 260.75,-165.5 260.75,-135 375,-135 375,-165.5"/>
<text text-anchor="start" x="268.75" y="-152" font-family="Helvetica,sans-Serif" font-size="10.00">Slic3r::_3MF_Importer</text>
<text text-anchor="middle" x="317.88" y="-140.75" font-family="Helvetica,sans-Serif" font-size="10.00">::load_model_from_file</text>
</a>
</g>
</g>
<!-- Node3&#45;&gt;Node4 -->
<g id="edge3_Node000003_Node000004" class="edge">
<title>Node3&#45;&gt;Node4</title>
<g id="a_edge3_Node000003_Node000004"><a xlink:title=" ">
<path fill="none" stroke="#63b8ff" d="M409.93,-150.25C398.42,-150.25 386.62,-150.25 375.49,-150.25"/>
<polygon fill="#63b8ff" stroke="#63b8ff" points="409.84,-153.75 419.84,-150.25 409.84,-146.75 409.84,-153.75"/>
</a>
</g>
</g>
<!-- Node5 -->
<g id="Node000005" class="node">
<title>Node5</title>
<g id="a_Node000005"><a xlink:href="../../de/db8/namespace_slic3r.html#a33137401cf2925b9349ffcd204219709" target="_top" xlink:title=" ">
<polygon fill="white" stroke="#666666" points="220.25,-159.88 133.75,-159.88 133.75,-140.62 220.25,-140.62 220.25,-159.88"/>
<text text-anchor="middle" x="177" y="-146.38" font-family="Helvetica,sans-Serif" font-size="10.00">Slic3r::load_3mf</text>
</a>
</g>
</g>
<!-- Node4&#45;&gt;Node5 -->
<g id="edge4_Node000004_Node000005" class="edge">
<title>Node4&#45;&gt;Node5</title>
<g id="a_edge4_Node000004_Node000005"><a xlink:title=" ">
<path fill="none" stroke="#63b8ff" d="M249.64,-150.25C239.67,-150.25 229.64,-150.25 220.37,-150.25"/>
<polygon fill="#63b8ff" stroke="#63b8ff" points="249.39,-153.75 259.39,-150.25 249.39,-146.75 249.39,-153.75"/>
</a>
</g>
</g>
<!-- Node5&#45;&gt;Node5 -->
<g id="edge5_Node000005_Node000005" class="edge">
<title>Node5&#45;&gt;Node5</title>
<g id="a_edge5_Node000005_Node000005"><a xlink:title=" ">
<path fill="none" stroke="#63b8ff" d="M200.18,-170.6C197.75,-174.83 190.02,-177.88 177,-177.88 154.48,-177.88 147.79,-168.77 156.94,-160.16"/>
<polygon fill="#63b8ff" stroke="#63b8ff" points="203.28,-169.74 197.06,-161.16 196.57,-171.75 203.28,-169.74"/>
</a>
</g>
</g>
<!-- Node6 -->
<g id="Node000006" class="node">
<title>Node6</title>
<g id="a_Node000006"><a xlink:href="../../dd/d8d/class_slic3r_1_1_model.html#a20f742a7cf82bca1323703a1107e920c" target="_top" xlink:title=" ">
<polygon fill="#fff0f0" stroke="red" points="97.75,-163.5 0,-163.5 0,-133 97.75,-133 97.75,-163.5"/>
<text text-anchor="start" x="8" y="-150" font-family="Helvetica,sans-Serif" font-size="10.00">Slic3r::Model::read</text>
<text text-anchor="middle" x="48.88" y="-138.75" font-family="Helvetica,sans-Serif" font-size="10.00">_from_archive</text>
</a>
</g>
</g>
<!-- Node5&#45;&gt;Node6 -->
<g id="edge6_Node000005_Node000006" class="edge">
<title>Node5&#45;&gt;Node6</title>
<g id="a_edge6_Node000005_Node000006"><a xlink:title=" ">
<path fill="none" stroke="#63b8ff" d="M122.48,-149.4C114.41,-149.27 106.13,-149.14 98.18,-149.02"/>
<polygon fill="#63b8ff" stroke="#63b8ff" points="122.25,-152.91 132.3,-149.57 122.36,-145.91 122.25,-152.91"/>
</a>
</g>
</g>
<!-- Node8 -->
<g id="Node000008" class="node">
<title>Node8</title>
<g id="a_Node000008"><a xlink:href="../../dd/d8d/class_slic3r_1_1_model.html#a3cffb4c47e9d2fa4aa5065762d0c90c9" target="_top" xlink:title=" ">
<polygon fill="#fff0f0" stroke="red" points="97.75,-113.5 0,-113.5 0,-83 97.75,-83 97.75,-113.5"/>
<text text-anchor="start" x="8" y="-100" font-family="Helvetica,sans-Serif" font-size="10.00">Slic3r::Model::read</text>
<text text-anchor="middle" x="48.88" y="-88.75" font-family="Helvetica,sans-Serif" font-size="10.00">_from_file</text>
</a>
</g>
</g>
<!-- Node5&#45;&gt;Node8 -->
<g id="edge7_Node000005_Node000008" class="edge">
<title>Node5&#45;&gt;Node8</title>
<g id="a_edge7_Node000005_Node000008"><a xlink:title=" ">
<path fill="none" stroke="#63b8ff" d="M141.83,-136.16C125.19,-129.3 105.14,-121.04 88.02,-113.98"/>
<polygon fill="#63b8ff" stroke="#63b8ff" points="140.1,-139.65 150.68,-140.22 142.77,-133.18 140.1,-139.65"/>
</a>
</g>
</g>
<!-- Node30 -->
<g id="Node000030" class="node">
<title>Node30</title>
<g id="a_Node000030"><a xlink:href="../../db/dec/struct_slic3r_1_1_a_m_f_parser_context.html#af91744cf126d0afff5961ff1d2d72ec9" target="_top" xlink:title=" ">
<polygon fill="white" stroke="#666666" points="546.25,-30.5 415.5,-30.5 415.5,0 546.25,0 546.25,-30.5"/>
<text text-anchor="start" x="423.5" y="-17" font-family="Helvetica,sans-Serif" font-size="10.00">Slic3r::AMFParserContext</text>
<text text-anchor="middle" x="480.88" y="-5.75" font-family="Helvetica,sans-Serif" font-size="10.00">::endElement</text>
</a>
</g>
</g>
<!-- Node29&#45;&gt;Node30 -->
<g id="edge9_Node000029_Node000030" class="edge">
<title>Node29&#45;&gt;Node30</title>
<g id="a_edge9_Node000029_Node000030"><a xlink:title=" ">
<path fill="none" stroke="#63b8ff" d="M600.33,-62.58C583.36,-55.45 563.97,-47.4 546.25,-40.25 538.69,-37.2 530.6,-34.01 522.8,-30.96"/>
<polygon fill="#63b8ff" stroke="#63b8ff" points="598.44,-66.01 609.01,-66.66 601.15,-59.55 598.44,-66.01"/>
</a>
</g>
</g>
<!-- Node31 -->
<g id="Node000031" class="node">
<title>Node31</title>
<g id="a_Node000031"><a xlink:href="../../de/db8/namespace_slic3r.html#a1fa1196835bb5344c9cd489c98ae7f4c" target="_top" xlink:title=" ">
<polygon fill="white" stroke="#666666" points="535,-79.5 426.75,-79.5 426.75,-49 535,-49 535,-79.5"/>
<text text-anchor="start" x="434.75" y="-66" font-family="Helvetica,sans-Serif" font-size="10.00">Slic3r::extract_model</text>
<text text-anchor="middle" x="480.88" y="-54.75" font-family="Helvetica,sans-Serif" font-size="10.00">_from_archive</text>
</a>
</g>
</g>
<!-- Node29&#45;&gt;Node31 -->
<g id="edge10_Node000029_Node000031" class="edge">
<title>Node29&#45;&gt;Node31</title>
<g id="a_edge10_Node000029_Node000031"><a xlink:title=" ">
<path fill="none" stroke="#63b8ff" d="M571.4,-74.03C559.26,-72.71 546.92,-71.36 535.43,-70.1"/>
<polygon fill="#63b8ff" stroke="#63b8ff" points="570.66,-77.58 580.98,-75.19 571.42,-70.62 570.66,-77.58"/>
</a>
</g>
</g>
<!-- Node34 -->
<g id="Node000034" class="node">
<title>Node34</title>
<g id="a_Node000034"><a xlink:href="../../de/db8/namespace_slic3r.html#a06119c572365195cf1475bfddc1672c2" target="_top" xlink:title=" ">
<polygon fill="white" stroke="#666666" points="370.12,-116.88 265.62,-116.88 265.62,-97.62 370.12,-97.62 370.12,-116.88"/>
<text text-anchor="middle" x="317.88" y="-103.38" font-family="Helvetica,sans-Serif" font-size="10.00">Slic3r::load_amf_file</text>
</a>
</g>
</g>
<!-- Node29&#45;&gt;Node34 -->
<g id="edge17_Node000029_Node000034" class="edge">
<title>Node29&#45;&gt;Node34</title>
<g id="a_edge17_Node000029_Node000034"><a xlink:title=" ">
<path fill="none" stroke="#63b8ff" d="M571.07,-88.01C509.6,-92.7 424.5,-99.19 370.57,-103.31"/>
<polygon fill="#63b8ff" stroke="#63b8ff" points="571.17,-91.44 580.87,-87.19 570.63,-84.46 571.17,-91.44"/>
</a>
</g>
</g>
<!-- Node32 -->
<g id="Node000032" class="node">
<title>Node32</title>
<g id="a_Node000032"><a xlink:href="../../de/db8/namespace_slic3r.html#a455465e84870c95ed2bdf42e3bf2fa90" target="_top" xlink:title=" ">
<polygon fill="white" stroke="#666666" points="379.5,-61.88 256.25,-61.88 256.25,-42.62 379.5,-42.62 379.5,-61.88"/>
<text text-anchor="middle" x="317.88" y="-48.38" font-family="Helvetica,sans-Serif" font-size="10.00">Slic3r::load_amf_archive</text>
</a>
</g>
</g>
<!-- Node31&#45;&gt;Node32 -->
<g id="edge11_Node000031_Node000032" class="edge">
<title>Node31&#45;&gt;Node32</title>
<g id="a_edge11_Node000031_Node000032"><a xlink:title=" ">
<path fill="none" stroke="#63b8ff" d="M415.58,-59.46C403.77,-58.58 391.47,-57.66 379.76,-56.79"/>
<polygon fill="#63b8ff" stroke="#63b8ff" points="415.03,-63 425.26,-60.25 415.55,-56.02 415.03,-63"/>
</a>
</g>
</g>
<!-- Node32&#45;&gt;Node32 -->
<g id="edge16_Node000032_Node000032" class="edge">
<title>Node32&#45;&gt;Node32</title>
<g id="a_edge16_Node000032_Node000032"><a xlink:title=" ">
<path fill="none" stroke="#63b8ff" d="M343.37,-72.6C340.69,-76.83 332.19,-79.88 317.88,-79.88 293.11,-79.88 285.76,-70.77 295.82,-62.16"/>
<polygon fill="#63b8ff" stroke="#63b8ff" points="346.38,-71.57 339.93,-63.16 339.73,-73.76 346.38,-71.57"/>
</a>
</g>
</g>
<!-- Node33 -->
<g id="Node000033" class="node">
<title>Node33</title>
<g id="a_Node000033"><a xlink:href="../../de/db8/namespace_slic3r.html#acc9115b69b23cab46ff06d717ac7a9c4" target="_top" xlink:title=" ">
<polygon fill="white" stroke="#666666" points="220.25,-104.88 133.75,-104.88 133.75,-85.62 220.25,-85.62 220.25,-104.88"/>
<text text-anchor="middle" x="177" y="-91.38" font-family="Helvetica,sans-Serif" font-size="10.00">Slic3r::load_amf</text>
</a>
</g>
</g>
<!-- Node32&#45;&gt;Node33 -->
<g id="edge12_Node000032_Node000033" class="edge">
<title>Node32&#45;&gt;Node33</title>
<g id="a_edge12_Node000032_Node000033"><a xlink:title=" ">
<path fill="none" stroke="#63b8ff" d="M273.96,-65.54C253.45,-71.89 229.3,-79.37 210.36,-85.23"/>
<polygon fill="#63b8ff" stroke="#63b8ff" points="274.8,-68.63 283.31,-62.33 272.73,-61.95 274.8,-68.63"/>
</a>
</g>
</g>
<!-- Node33&#45;&gt;Node6 -->
<g id="edge14_Node000033_Node000006" class="edge">
<title>Node33&#45;&gt;Node6</title>
<g id="a_edge14_Node000033_Node000006"><a xlink:title=" ">
<path fill="none" stroke="#63b8ff" d="M141.96,-109.55C125.04,-116.66 104.56,-125.27 87.2,-132.56"/>
<polygon fill="#63b8ff" stroke="#63b8ff" points="143.12,-112.44 150.98,-105.34 140.4,-105.99 143.12,-112.44"/>
</a>
</g>
</g>
<!-- Node33&#45;&gt;Node8 -->
<g id="edge15_Node000033_Node000008" class="edge">
<title>Node33&#45;&gt;Node8</title>
<g id="a_edge15_Node000033_Node000008"><a xlink:title=" ">
<path fill="none" stroke="#63b8ff" d="M122.48,-96.52C114.41,-96.71 106.13,-96.91 98.18,-97.1"/>
<polygon fill="#63b8ff" stroke="#63b8ff" points="122.39,-100 132.3,-96.27 122.22,-93 122.39,-100"/>
</a>
</g>
</g>
<!-- Node33&#45;&gt;Node33 -->
<g id="edge13_Node000033_Node000033" class="edge">
<title>Node33&#45;&gt;Node33</title>
<g id="a_edge13_Node000033_Node000033"><a xlink:title=" ">
<path fill="none" stroke="#63b8ff" d="M200.18,-115.6C197.75,-119.83 190.02,-122.88 177,-122.88 154.48,-122.88 147.79,-113.77 156.94,-105.16"/>
<polygon fill="#63b8ff" stroke="#63b8ff" points="203.28,-114.74 197.06,-106.16 196.57,-116.75 203.28,-114.74"/>
</a>
</g>
</g>
<!-- Node34&#45;&gt;Node33 -->
<g id="edge18_Node000034_Node000033" class="edge">
<title>Node34&#45;&gt;Node33</title>
<g id="a_edge18_Node000034_Node000033"><a xlink:title=" ">
<path fill="none" stroke="#63b8ff" d="M254.36,-101.85C242.97,-100.86 231.33,-99.86 220.68,-98.94"/>
<polygon fill="#63b8ff" stroke="#63b8ff" points="253.9,-105.41 264.16,-102.78 254.5,-98.43 253.9,-105.41"/>
</a>
</g>
</g>
</g>
</svg>

<g id="navigator" transform="translate(0 0)" fill="#404254">
  <rect fill="#f2f5e9" fill-opacity="0.5" stroke="#606060" stroke-width=".5" x="0" y="0" width="60" height="60"/>
  <use id="zoomplus" xlink:href="#zoomPlus" x="17" y="9" onmousedown="handleZoom(evt,'in')"/>
  <use id="zoomminus" xlink:href="#zoomMin" x="42" y="9" onmousedown="handleZoom(evt,'out')"/>
  <use id="reset" xlink:href="#resetDef" x="30" y="36" onmousedown="handleReset()"/>
   <use id="arrowup" xlink:href="#arrowUp" x="0" y="0" onmousedown="handlePan(0,-1)"/>
  <use id="arrowright" xlink:href="#arrowRight" x="0" y="0" onmousedown="handlePan(1,0)"/>
  <use id="arrowdown" xlink:href="#arrowDown" x="0" y="0" onmousedown="handlePan(0,1)"/>
  <use id="arrowleft" xlink:href="#arrowLeft" x="0" y="0" onmousedown="handlePan(-1,0)"/>
</g>
<svg viewBox="0 0 15 15" width="100%" height="30px" preserveAspectRatio="xMaxYMin meet">
 <g id="arrow_out" transform="scale(0.3 0.3)">
  <a xlink:href="namespace_slic3r_1_1_geometry_af7749769e86d9b4528ca89cef642931f_icgraph_org.svg" target="_base">
   <rect id="button" ry="5" rx="5" y="6" x="6" height="38" width="38"
        fill="#f2f5e9" fill-opacity="0.5" stroke="#606060" stroke-width="1.0"/>
   <path id="arrow"
     d="M 11.500037,31.436501 C 11.940474,20.09759 22.043105,11.32322 32.158766,21.979434 L 37.068811,17.246167 C 37.068811,17.246167 37.088388,32 37.088388,32 L 22.160133,31.978069 C 22.160133,31.978069 26.997745,27.140456 26.997745,27.140456 C 18.528582,18.264221 13.291696,25.230495 11.500037,31.436501 z"
     style="fill:#404040;"/>
  </a>
 </g>
</svg>

<style type='text/css'>
<![CDATA[
[data-mouse-over-selected='false'] { opacity: 0.7; }
[data-mouse-over-selected='true']  { opacity: 1.0; }
]]>
</style>
<script type="application/ecmascript"><![CDATA[
document.addEventListener('DOMContentLoaded', (event) => {
  highlightEdges();
  highlightAdjacentNodes();
});
]]></script>
</svg>
