<?xml version="1.0" encoding="UTF-8" standalone="no"?>
<!DOCTYPE svg PUBLIC "-//W3C//DTD SVG 1.1//EN"
 "http://www.w3.org/Graphics/SVG/1.1/DTD/svg11.dtd">
<!-- Generated by graphviz version 8.0.5 (20230430.1635)
 -->
<!-- Title: Slic3r::Geometry::get_parabolic_segment Pages: 1 -->
<svg width="1203pt" height="74pt"
 viewBox="0.00 0.00 1203.00 73.75" xmlns="http://www.w3.org/2000/svg" xmlns:xlink="http://www.w3.org/1999/xlink">
<g id="graph0" class="graph" transform="scale(1 1) rotate(0) translate(4 69.75)">
<title>Slic3r::Geometry::get_parabolic_segment</title>
<!-- Node1 -->
<g id="Node000001" class="node">
<title>Node1</title>
<g id="a_Node000001"><a xlink:title=" ">
<polygon fill="#999999" stroke="#666666" points="1195,-60.12 1086,-60.12 1086,-29.62 1195,-29.62 1195,-60.12"/>
<text text-anchor="start" x="1094" y="-46.62" font-family="Helvetica,sans-Serif" font-size="10.00">Slic3r::Geometry::get</text>
<text text-anchor="middle" x="1140.5" y="-35.38" font-family="Helvetica,sans-Serif" font-size="10.00">_parabolic_segment</text>
</a>
</g>
</g>
<!-- Node2 -->
<g id="Node000002" class="node">
<title>Node2</title>
<g id="a_Node000002"><a xlink:href="../../d3/dfb/namespace_slic3r_1_1_geometry.html#a962f31d4f12022e49aa87a3c7a1bc92b" target="_top" xlink:title=" ">
<polygon fill="white" stroke="#666666" points="1050,-60.12 909.5,-60.12 909.5,-29.62 1050,-29.62 1050,-60.12"/>
<text text-anchor="start" x="917.5" y="-46.62" font-family="Helvetica,sans-Serif" font-size="10.00">Slic3r::Geometry::orientation</text>
<text text-anchor="middle" x="979.75" y="-35.38" font-family="Helvetica,sans-Serif" font-size="10.00">_of_two_edges</text>
</a>
</g>
</g>
<!-- Node1&#45;&gt;Node2 -->
<g id="edge1_Node000001_Node000002" class="edge">
<title>Node1&#45;&gt;Node2</title>
<g id="a_edge1_Node000001_Node000002"><a xlink:title=" ">
<path fill="none" stroke="#63b8ff" d="M1074.93,-44.88C1066.88,-44.88 1058.61,-44.88 1050.48,-44.88"/>
<polygon fill="#63b8ff" stroke="#63b8ff" points="1074.75,-48.38 1084.75,-44.88 1074.75,-41.38 1074.75,-48.38"/>
</a>
</g>
</g>
<!-- Node3 -->
<g id="Node000003" class="node">
<title>Node3</title>
<g id="a_Node000003"><a xlink:href="../../d3/dfb/namespace_slic3r_1_1_geometry.html#a21edd4c232bda72ca03a7397c5ed717d" target="_top" xlink:title=" ">
<polygon fill="white" stroke="#666666" points="873.5,-60.12 746.5,-60.12 746.5,-29.62 873.5,-29.62 873.5,-60.12"/>
<text text-anchor="start" x="754.5" y="-46.62" font-family="Helvetica,sans-Serif" font-size="10.00">Slic3r::Geometry::check</text>
<text text-anchor="middle" x="810" y="-35.38" font-family="Helvetica,sans-Serif" font-size="10.00">_if_three_edges_are_ccw</text>
</a>
</g>
</g>
<!-- Node2&#45;&gt;Node3 -->
<g id="edge2_Node000002_Node000003" class="edge">
<title>Node2&#45;&gt;Node3</title>
<g id="a_edge2_Node000002_Node000003"><a xlink:title=" ">
<path fill="none" stroke="#63b8ff" d="M898.29,-44.88C890.05,-44.88 881.77,-44.88 873.77,-44.88"/>
<polygon fill="#63b8ff" stroke="#63b8ff" points="898.07,-48.38 908.07,-44.88 898.07,-41.38 898.07,-48.38"/>
</a>
</g>
</g>
<!-- Node4 -->
<g id="Node000004" class="node">
<title>Node4</title>
<g id="a_Node000004"><a xlink:href="../../d3/de1/class_slic3r_1_1_geometry_1_1_voronoi_utils_cgal.html#afa8f0c2ec24da49a51537d3c9e23cc60" target="_top" xlink:title=" ">
<polygon fill="white" stroke="#666666" points="710.5,-65.75 564,-65.75 564,-24 710.5,-24 710.5,-65.75"/>
<text text-anchor="start" x="572" y="-52.25" font-family="Helvetica,sans-Serif" font-size="10.00">Slic3r::Geometry::Voronoi</text>
<text text-anchor="start" x="572" y="-41" font-family="Helvetica,sans-Serif" font-size="10.00">UtilsCgal::is_voronoi_diagram</text>
<text text-anchor="middle" x="637.25" y="-29.75" font-family="Helvetica,sans-Serif" font-size="10.00">_planar_angle</text>
</a>
</g>
</g>
<!-- Node3&#45;&gt;Node4 -->
<g id="edge3_Node000003_Node000004" class="edge">
<title>Node3&#45;&gt;Node4</title>
<g id="a_edge3_Node000003_Node000004"><a xlink:title=" ">
<path fill="none" stroke="#63b8ff" d="M735.45,-44.88C727.33,-44.88 719.08,-44.88 710.97,-44.88"/>
<polygon fill="#63b8ff" stroke="#63b8ff" points="735.39,-48.38 745.39,-44.88 735.39,-41.38 735.39,-48.38"/>
</a>
</g>
</g>
<!-- Node5 -->
<g id="Node000005" class="node">
<title>Node5</title>
<g id="a_Node000005"><a xlink:href="../../dc/da5/namespace_slic3r_1_1_arachne.html#ad1b0fdd33c44e3e241b012a4d4091fa9" target="_top" xlink:title=" ">
<polygon fill="white" stroke="#666666" points="528,-65.75 401.75,-65.75 401.75,-24 528,-24 528,-65.75"/>
<text text-anchor="start" x="409.75" y="-52.25" font-family="Helvetica,sans-Serif" font-size="10.00">Slic3r::Arachne::detect</text>
<text text-anchor="start" x="409.75" y="-41" font-family="Helvetica,sans-Serif" font-size="10.00">_voronoi_diagram_known</text>
<text text-anchor="middle" x="464.88" y="-29.75" font-family="Helvetica,sans-Serif" font-size="10.00">_issues</text>
</a>
</g>
</g>
<!-- Node4&#45;&gt;Node5 -->
<g id="edge4_Node000004_Node000005" class="edge">
<title>Node4&#45;&gt;Node5</title>
<g id="a_edge4_Node000004_Node000005"><a xlink:title=" ">
<path fill="none" stroke="#63b8ff" d="M552.77,-44.88C544.58,-44.88 536.37,-44.88 528.45,-44.88"/>
<polygon fill="#63b8ff" stroke="#63b8ff" points="552.5,-48.38 562.5,-44.88 552.5,-41.38 552.5,-48.38"/>
</a>
</g>
</g>
<!-- Node6 -->
<g id="Node000006" class="node">
<title>Node6</title>
<g id="a_Node000006"><a xlink:href="../../d9/d17/class_slic3r_1_1_arachne_1_1_skeletal_trapezoidation.html#a3410b9a03fd08d89605d3e083ff37191" target="_top" xlink:title=" ">
<polygon fill="#fff0f0" stroke="red" points="189.25,-60.12 0,-60.12 0,-29.62 189.25,-29.62 189.25,-60.12"/>
<text text-anchor="start" x="8" y="-46.62" font-family="Helvetica,sans-Serif" font-size="10.00">Slic3r::Arachne::Skeletal</text>
<text text-anchor="middle" x="94.62" y="-35.38" font-family="Helvetica,sans-Serif" font-size="10.00">Trapezoidation::constructFromPolygons</text>
</a>
</g>
</g>
<!-- Node5&#45;&gt;Node6 -->
<g id="edge5_Node000005_Node000006" class="edge">
<title>Node5&#45;&gt;Node6</title>
<g id="a_edge5_Node000005_Node000006"><a xlink:title=" ">
<path fill="none" stroke="#63b8ff" d="M390.45,-49.85C382.13,-50.27 373.76,-50.63 365.75,-50.88 303.33,-52.78 287.68,-52.32 225.25,-50.88 213.65,-50.61 201.47,-50.2 189.42,-49.73"/>
<polygon fill="#63b8ff" stroke="#63b8ff" points="390.55,-53.3 400.35,-49.27 390.18,-46.31 390.55,-53.3"/>
</a>
</g>
</g>
<!-- Node8 -->
<g id="Node000008" class="node">
<title>Node8</title>
<g id="a_Node000008"><a xlink:href="../../dc/da5/namespace_slic3r_1_1_arachne.html#aac9d87f5f51362dff973840aa2492741" target="_top" xlink:title=" ">
<polygon fill="white" stroke="#666666" points="365.75,-41.75 225.25,-41.75 225.25,0 365.75,0 365.75,-41.75"/>
<text text-anchor="start" x="233.25" y="-28.25" font-family="Helvetica,sans-Serif" font-size="10.00">Slic3r::Arachne::try</text>
<text text-anchor="start" x="233.25" y="-17" font-family="Helvetica,sans-Serif" font-size="10.00">_to_fix_degenerated_voronoi</text>
<text text-anchor="middle" x="295.5" y="-5.75" font-family="Helvetica,sans-Serif" font-size="10.00">_diagram_by_rotation</text>
</a>
</g>
</g>
<!-- Node5&#45;&gt;Node8 -->
<g id="edge6_Node000005_Node000008" class="edge">
<title>Node5&#45;&gt;Node8</title>
<g id="a_edge6_Node000005_Node000008"><a xlink:title=" ">
<path fill="none" stroke="#63b8ff" d="M390.88,-34.41C382.68,-33.23 374.35,-32.04 366.19,-30.87"/>
<polygon fill="#63b8ff" stroke="#63b8ff" points="390.16,-37.98 400.55,-35.94 391.15,-31.05 390.16,-37.98"/>
</a>
</g>
</g>
<!-- Node8&#45;&gt;Node6 -->
<g id="edge7_Node000008_Node000006" class="edge">
<title>Node8&#45;&gt;Node6</title>
<g id="a_edge7_Node000008_Node000006"><a xlink:title=" ">
<path fill="none" stroke="#63b8ff" d="M214.08,-30.58C206.02,-31.55 197.79,-32.55 189.61,-33.53"/>
<polygon fill="#63b8ff" stroke="#63b8ff" points="214.43,-33.94 223.94,-29.27 213.6,-26.99 214.43,-33.94"/>
</a>
</g>
</g>
</g>
</svg>
