<?xml version="1.0" encoding="UTF-8" standalone="no"?>
<!DOCTYPE svg PUBLIC "-//W3C//DTD SVG 1.1//EN"
 "http://www.w3.org/Graphics/SVG/1.1/DTD/svg11.dtd">
<!-- Generated by graphviz version 8.0.5 (20230430.1635)
 -->
<!-- Title: jtagmkII_getsync Pages: 1 -->
<svg width="828pt" height="485pt"
 viewBox="0.00 0.00 828.00 485.01" xmlns="http://www.w3.org/2000/svg" xmlns:xlink="http://www.w3.org/1999/xlink">
<g id="graph0" class="graph" transform="scale(1 1) rotate(0) translate(4 481.01)">
<title>jtagmkII_getsync</title>
<!-- Node1 -->
<g id="Node000001" class="node">
<title>Node1</title>
<g id="a_Node000001"><a xlink:title=" ">
<polygon fill="#999999" stroke="#666666" points="91,-181.05 0,-181.05 0,-161.8 91,-161.8 91,-181.05"/>
<text text-anchor="middle" x="45.5" y="-167.55" font-family="Helvetica,sans-Serif" font-size="10.00">jtagmkII_getsync</text>
</a>
</g>
</g>
<!-- Node2 -->
<g id="Node000002" class="node">
<title>Node2</title>
<g id="a_Node000002"><a xlink:href="../../d0/d29/main_8c.html#ae3011b9c6440c863e64eed3fed5106e3" target="_top" xlink:title=" ">
<polygon fill="white" stroke="#666666" points="735.75,-314.05 640.25,-314.05 640.25,-294.8 735.75,-294.8 735.75,-314.05"/>
<text text-anchor="middle" x="688" y="-300.55" font-family="Helvetica,sans-Serif" font-size="10.00">avrdude_message</text>
</a>
</g>
</g>
<!-- Node1&#45;&gt;Node2 -->
<g id="edge1_Node000001_Node000002" class="edge">
<title>Node1&#45;&gt;Node2</title>
<g id="a_edge1_Node000001_Node000002"><a xlink:title=" ">
<path fill="none" stroke="#63b8ff" d="M48.97,-181.54C62.53,-234.29 132.9,-475.43 286.12,-475.43 286.12,-475.43 286.12,-475.43 411.75,-475.43 498.87,-475.43 532.53,-487.89 604.25,-438.43 645.17,-410.21 669.7,-354.5 680.48,-324.57"/>
<polygon fill="#63b8ff" stroke="#63b8ff" points="684.01,-326.07 683.95,-315.47 677.39,-323.79 684.01,-326.07"/>
</a>
</g>
</g>
<!-- Node3 -->
<g id="Node000003" class="node">
<title>Node3</title>
<g id="a_Node000003"><a xlink:href="../../d3/dbc/config__gram_8c.html#af07d89f5ceaea0c7c8252cc41fd75f37" target="_top" xlink:title=" ">
<polygon fill="white" stroke="#666666" points="704.25,-141.05 671.75,-141.05 671.75,-121.8 704.25,-121.8 704.25,-141.05"/>
<text text-anchor="middle" x="688" y="-127.55" font-family="Helvetica,sans-Serif" font-size="10.00">free</text>
</a>
</g>
</g>
<!-- Node1&#45;&gt;Node3 -->
<g id="edge2_Node000001_Node000003" class="edge">
<title>Node1&#45;&gt;Node3</title>
<g id="a_edge2_Node000001_Node000003"><a xlink:title=" ">
<path fill="none" stroke="#63b8ff" d="M50.92,-161.61C61.07,-140.28 88.17,-89.57 127,-64.43 218.82,-4.95 259.9,-27.49 369,-19.43 473.61,-11.69 519.12,22.86 604.25,-38.43 634.26,-60.03 613.08,-88.35 640.25,-113.43 646.09,-118.82 653.72,-122.65 661.11,-125.35"/>
<polygon fill="#63b8ff" stroke="#63b8ff" points="659.96,-128.97 670.54,-128.56 662.01,-122.28 659.96,-128.97"/>
</a>
</g>
</g>
<!-- Node4 -->
<g id="Node000004" class="node">
<title>Node4</title>
<g id="a_Node000004"><a xlink:href="../../d8/d9b/jtagmk_i_i_8c.html#a2c30041483f9a0a763181efbd877db82" target="_top" xlink:title=" ">
<polygon fill="white" stroke="#666666" points="452.5,-48.05 369,-48.05 369,-28.8 452.5,-28.8 452.5,-48.05"/>
<text text-anchor="middle" x="410.75" y="-34.55" font-family="Helvetica,sans-Serif" font-size="10.00">jtagmkII_get_rc</text>
</a>
</g>
</g>
<!-- Node1&#45;&gt;Node4 -->
<g id="edge3_Node000001_Node000004" class="edge">
<title>Node1&#45;&gt;Node4</title>
<g id="a_edge3_Node000001_Node000004"><a xlink:title=" ">
<path fill="none" stroke="#63b8ff" d="M56.74,-161.59C71.39,-147.9 99.61,-122.92 127,-106.43 174.33,-77.91 187.84,-71.56 241.25,-57.43 279.48,-47.31 323.97,-42.58 357.64,-40.37"/>
<polygon fill="#63b8ff" stroke="#63b8ff" points="357.85,-43.8 367.62,-39.71 357.43,-36.81 357.85,-43.8"/>
</a>
</g>
</g>
<!-- Node5 -->
<g id="Node000005" class="node">
<title>Node5</title>
<g id="a_Node000005"><a xlink:href="../../d8/d9b/jtagmk_i_i_8c.html#ac237e74c4820b1b81242c32c7618fd10" target="_top" xlink:title=" ">
<polygon fill="white" stroke="#666666" points="452.5,-371.05 369,-371.05 369,-351.8 452.5,-351.8 452.5,-371.05"/>
<text text-anchor="middle" x="410.75" y="-357.55" font-family="Helvetica,sans-Serif" font-size="10.00">jtagmkII_prmsg</text>
</a>
</g>
</g>
<!-- Node1&#45;&gt;Node5 -->
<g id="edge4_Node000001_Node000005" class="edge">
<title>Node1&#45;&gt;Node5</title>
<g id="a_edge4_Node000001_Node000005"><a xlink:title=" ">
<path fill="none" stroke="#63b8ff" d="M53.41,-181.32C66.14,-198.94 94.97,-236 127,-258.43 198.91,-308.79 298.24,-337.41 358.02,-351.14"/>
<polygon fill="#63b8ff" stroke="#63b8ff" points="357.18,-354.76 367.7,-353.53 358.71,-347.93 357.18,-354.76"/>
</a>
</g>
</g>
<!-- Node8 -->
<g id="Node000008" class="node">
<title>Node8</title>
<g id="a_Node000008"><a xlink:href="../../d8/d9b/jtagmk_i_i_8c.html#aeca3ac148e7f5d354af15d6e1eeb359e" target="_top" xlink:title=" ">
<polygon fill="white" stroke="#666666" points="448.38,-276.05 373.12,-276.05 373.12,-256.8 448.38,-256.8 448.38,-276.05"/>
<text text-anchor="middle" x="410.75" y="-262.55" font-family="Helvetica,sans-Serif" font-size="10.00">jtagmkII_recv</text>
</a>
</g>
</g>
<!-- Node1&#45;&gt;Node8 -->
<g id="edge9_Node000001_Node000008" class="edge">
<title>Node1&#45;&gt;Node8</title>
<g id="a_edge9_Node000001_Node000008"><a xlink:title=" ">
<path fill="none" stroke="#63b8ff" d="M58.31,-181.55C73.38,-194.03 100.67,-215.23 127,-228.43 174.72,-252.34 188.55,-256.94 241.25,-265.43 281.65,-271.93 328.2,-271.62 362.12,-270.01"/>
<polygon fill="#63b8ff" stroke="#63b8ff" points="361.87,-273.47 371.67,-269.45 361.49,-266.48 361.87,-273.47"/>
</a>
</g>
</g>
<!-- Node14 -->
<g id="Node000014" class="node">
<title>Node14</title>
<g id="a_Node000014"><a xlink:href="../../d8/d9b/jtagmk_i_i_8c.html#a3a69da425fbf5839b62ac328dc8cf6d3" target="_top" xlink:title=" ">
<polygon fill="white" stroke="#666666" points="205.25,-219.05 127,-219.05 127,-199.8 205.25,-199.8 205.25,-219.05"/>
<text text-anchor="middle" x="166.12" y="-205.55" font-family="Helvetica,sans-Serif" font-size="10.00">jtagmkII_reset</text>
</a>
</g>
</g>
<!-- Node1&#45;&gt;Node14 -->
<g id="edge19_Node000001_Node000014" class="edge">
<title>Node1&#45;&gt;Node14</title>
<g id="a_edge19_Node000001_Node000014"><a xlink:title=" ">
<path fill="none" stroke="#63b8ff" d="M77.98,-181.51C92.03,-186.01 108.78,-191.38 123.82,-196.2"/>
<polygon fill="#63b8ff" stroke="#63b8ff" points="122.32,-199.71 132.91,-199.43 124.46,-193.04 122.32,-199.71"/>
</a>
</g>
</g>
<!-- Node15 -->
<g id="Node000015" class="node">
<title>Node15</title>
<g id="a_Node000015"><a xlink:href="../../d8/d9b/jtagmk_i_i_8c.html#abfb82f2719dc967fff6c010351bb2bd8" target="_top" xlink:title=" ">
<polygon fill="white" stroke="#666666" points="585.12,-67.05 507.62,-67.05 507.62,-47.8 585.12,-47.8 585.12,-67.05"/>
<text text-anchor="middle" x="546.38" y="-53.55" font-family="Helvetica,sans-Serif" font-size="10.00">jtagmkII_send</text>
</a>
</g>
</g>
<!-- Node1&#45;&gt;Node15 -->
<g id="edge41_Node000001_Node000015" class="edge">
<title>Node1&#45;&gt;Node15</title>
<g id="a_edge41_Node000001_Node000015"><a xlink:title=" ">
<path fill="none" stroke="#63b8ff" d="M50.92,-161.61C61.07,-140.28 88.17,-89.57 127,-64.43 249.58,14.97 309.2,8.76 452.5,-19.43 475.08,-23.87 499.08,-33.84 517.03,-42.45"/>
<polygon fill="#63b8ff" stroke="#63b8ff" points="515.32,-46.01 525.84,-47.32 518.43,-39.74 515.32,-46.01"/>
</a>
</g>
</g>
<!-- Node19 -->
<g id="Node000019" class="node">
<title>Node19</title>
<g id="a_Node000019"><a xlink:href="../../d8/d9b/jtagmk_i_i_8c.html#ad4de540c75ff7ce81f74077fdf660e5d" target="_top" xlink:title=" ">
<polygon fill="white" stroke="#666666" points="333,-200.05 241.25,-200.05 241.25,-180.8 333,-180.8 333,-200.05"/>
<text text-anchor="middle" x="287.12" y="-186.55" font-family="Helvetica,sans-Serif" font-size="10.00">jtagmkII_setparm</text>
</a>
</g>
</g>
<!-- Node1&#45;&gt;Node19 -->
<g id="edge42_Node000001_Node000019" class="edge">
<title>Node1&#45;&gt;Node19</title>
<g id="a_edge42_Node000001_Node000019"><a xlink:title=" ">
<path fill="none" stroke="#63b8ff" d="M91.29,-174.98C130.58,-178.09 187.89,-182.64 230.19,-185.99"/>
<polygon fill="#63b8ff" stroke="#63b8ff" points="229.9,-189.56 240.15,-186.86 230.46,-182.58 229.9,-189.56"/>
</a>
</g>
</g>
<!-- Node20 -->
<g id="Node000020" class="node">
<title>Node20</title>
<g id="a_Node000020"><a xlink:href="../../d6/d95/glu-libtess_8h.html#a4292190e3f1f6b373a760c7d9316ad3c" target="_top" xlink:title=" ">
<polygon fill="white" stroke="#666666" points="304.12,-86.05 270.12,-86.05 270.12,-66.8 304.12,-66.8 304.12,-86.05"/>
<text text-anchor="middle" x="287.12" y="-72.55" font-family="Helvetica,sans-Serif" font-size="10.00">void</text>
</a>
</g>
</g>
<!-- Node1&#45;&gt;Node20 -->
<g id="edge43_Node000001_Node000020" class="edge">
<title>Node1&#45;&gt;Node20</title>
<g id="a_edge43_Node000001_Node000020"><a xlink:title=" ">
<path fill="none" stroke="#63b8ff" d="M71.69,-161.44C117.3,-143.36 213.14,-105.36 259.66,-86.92"/>
<polygon fill="#63b8ff" stroke="#63b8ff" points="260.84,-89.82 268.85,-82.88 258.26,-83.31 260.84,-89.82"/>
</a>
</g>
</g>
<!-- Node5&#45;&gt;Node2 -->
<g id="edge5_Node000005_Node000002" class="edge">
<title>Node5&#45;&gt;Node2</title>
<g id="a_edge5_Node000005_Node000002"><a xlink:title=" ">
<path fill="none" stroke="#63b8ff" d="M452.64,-361.29C492.1,-360.26 553.2,-356.25 604.25,-342.43 623.65,-337.17 644.19,-327.76 659.96,-319.62"/>
<polygon fill="#63b8ff" stroke="#63b8ff" points="661.38,-322.3 668.57,-314.51 658.09,-316.12 661.38,-322.3"/>
</a>
</g>
</g>
<!-- Node6 -->
<g id="Node000006" class="node">
<title>Node6</title>
<g id="a_Node000006"><a xlink:href="../../d8/d9b/jtagmk_i_i_8c.html#af8a97611b28333d6b92f712a453cb4d4" target="_top" xlink:title=" ">
<polygon fill="white" stroke="#666666" points="576.88,-409.05 515.88,-409.05 515.88,-389.8 576.88,-389.8 576.88,-409.05"/>
<text text-anchor="middle" x="546.38" y="-395.55" font-family="Helvetica,sans-Serif" font-size="10.00">b4_to_u32</text>
</a>
</g>
</g>
<!-- Node5&#45;&gt;Node6 -->
<g id="edge6_Node000005_Node000006" class="edge">
<title>Node5&#45;&gt;Node6</title>
<g id="a_edge6_Node000005_Node000006"><a xlink:title=" ">
<path fill="none" stroke="#63b8ff" d="M447.21,-371.51C465.05,-376.58 486.74,-382.75 505.2,-388"/>
<polygon fill="#63b8ff" stroke="#63b8ff" points="504.06,-391.6 514.63,-390.97 505.97,-384.87 504.06,-391.6"/>
</a>
</g>
</g>
<!-- Node7 -->
<g id="Node000007" class="node">
<title>Node7</title>
<g id="a_Node000007"><a xlink:href="../../d8/d9b/jtagmk_i_i_8c.html#ae984a88aeda8bf55cdf86b87301075a4" target="_top" xlink:title=" ">
<polygon fill="white" stroke="#666666" points="604.25,-333.05 488.5,-333.05 488.5,-313.8 604.25,-313.8 604.25,-333.05"/>
<text text-anchor="middle" x="546.38" y="-319.55" font-family="Helvetica,sans-Serif" font-size="10.00">jtagmkII_print_memory</text>
</a>
</g>
</g>
<!-- Node5&#45;&gt;Node7 -->
<g id="edge7_Node000005_Node000007" class="edge">
<title>Node5&#45;&gt;Node7</title>
<g id="a_edge7_Node000005_Node000007"><a xlink:title=" ">
<path fill="none" stroke="#63b8ff" d="M447.21,-351.34C463.34,-346.75 482.63,-341.27 499.83,-336.38"/>
<polygon fill="#63b8ff" stroke="#63b8ff" points="500.55,-339.53 509.21,-333.42 498.64,-332.79 500.55,-339.53"/>
</a>
</g>
</g>
<!-- Node7&#45;&gt;Node2 -->
<g id="edge8_Node000007_Node000002" class="edge">
<title>Node7&#45;&gt;Node2</title>
<g id="a_edge8_Node000007_Node000002"><a xlink:title=" ">
<path fill="none" stroke="#63b8ff" d="M604.57,-315.64C612.65,-314.54 620.96,-313.41 629.05,-312.31"/>
<polygon fill="#63b8ff" stroke="#63b8ff" points="629.47,-315.65 638.9,-310.83 628.52,-308.71 629.47,-315.65"/>
</a>
</g>
</g>
<!-- Node8&#45;&gt;Node2 -->
<g id="edge10_Node000008_Node000002" class="edge">
<title>Node8&#45;&gt;Node2</title>
<g id="a_edge10_Node000008_Node000002"><a xlink:title=" ">
<path fill="none" stroke="#63b8ff" d="M448.87,-271.55C495.14,-277.94 574.72,-288.92 629.04,-296.42"/>
<polygon fill="#63b8ff" stroke="#63b8ff" points="628.51,-300.02 638.89,-297.92 629.46,-293.09 628.51,-300.02"/>
</a>
</g>
</g>
<!-- Node8&#45;&gt;Node3 -->
<g id="edge11_Node000008_Node000003" class="edge">
<title>Node8&#45;&gt;Node3</title>
<g id="a_edge11_Node000008_Node000003"><a xlink:title=" ">
<path fill="none" stroke="#63b8ff" d="M432.84,-256.31C439.55,-252.51 446.73,-247.79 452.5,-242.43 473.09,-223.29 465.74,-206.92 488.5,-190.43 516.34,-170.25 613.35,-147.3 660.66,-136.97"/>
<polygon fill="#63b8ff" stroke="#63b8ff" points="661.24,-140.21 670.28,-134.68 659.77,-133.37 661.24,-140.21"/>
</a>
</g>
</g>
<!-- Node9 -->
<g id="Node000009" class="node">
<title>Node9</title>
<g id="a_Node000009"><a xlink:href="../../d8/d9b/jtagmk_i_i_8c.html#a9aab74ad2c65f267c3b1f0f5d46f50b7" target="_top" xlink:title=" ">
<polygon fill="white" stroke="#666666" points="599,-219.05 493.75,-219.05 493.75,-199.8 599,-199.8 599,-219.05"/>
<text text-anchor="middle" x="546.38" y="-205.55" font-family="Helvetica,sans-Serif" font-size="10.00">jtagmkII_recv_frame</text>
</a>
</g>
</g>
<!-- Node8&#45;&gt;Node9 -->
<g id="edge12_Node000008_Node000009" class="edge">
<title>Node8&#45;&gt;Node9</title>
<g id="a_edge12_Node000008_Node000009"><a xlink:title=" ">
<path fill="none" stroke="#63b8ff" d="M435.33,-256.37C456.61,-247.29 488.14,-233.84 512,-223.66"/>
<polygon fill="#63b8ff" stroke="#63b8ff" points="513.2,-226.53 521.03,-219.38 510.46,-220.09 513.2,-226.53"/>
</a>
</g>
</g>
<!-- Node9&#45;&gt;Node2 -->
<g id="edge13_Node000009_Node000002" class="edge">
<title>Node9&#45;&gt;Node2</title>
<g id="a_edge13_Node000009_Node000002"><a xlink:title=" ">
<path fill="none" stroke="#63b8ff" d="M576,-219.49C585.32,-223.28 595.5,-228.01 604.25,-233.43 617.56,-241.66 648.21,-268.89 668.24,-287.13"/>
<polygon fill="#63b8ff" stroke="#63b8ff" points="665.35,-289.15 675.09,-293.32 670.07,-283.98 665.35,-289.15"/>
</a>
</g>
</g>
<!-- Node9&#45;&gt;Node3 -->
<g id="edge16_Node000009_Node000003" class="edge">
<title>Node9&#45;&gt;Node3</title>
<g id="a_edge16_Node000009_Node000003"><a xlink:title=" ">
<path fill="none" stroke="#63b8ff" d="M577.13,-199.39C586.21,-195.68 595.98,-190.99 604.25,-185.43 623.02,-172.79 621.28,-161.76 640.25,-149.43 646.64,-145.27 654.14,-141.85 661.23,-139.15"/>
<polygon fill="#63b8ff" stroke="#63b8ff" points="662.19,-142.18 670.49,-135.6 659.9,-135.56 662.19,-142.18"/>
</a>
</g>
</g>
<!-- Node10 -->
<g id="Node000010" class="node">
<title>Node10</title>
<g id="a_Node000010"><a xlink:href="../../d4/d4f/crc16_8c.html#aaa40ce9a35803c7ff4b736133c5055ba" target="_top" xlink:title=" ">
<polygon fill="white" stroke="#666666" points="714.75,-252.05 661.25,-252.05 661.25,-232.8 714.75,-232.8 714.75,-252.05"/>
<text text-anchor="middle" x="688" y="-238.55" font-family="Helvetica,sans-Serif" font-size="10.00">crcverify</text>
</a>
</g>
</g>
<!-- Node9&#45;&gt;Node10 -->
<g id="edge14_Node000009_Node000010" class="edge">
<title>Node9&#45;&gt;Node10</title>
<g id="a_edge14_Node000009_Node000010"><a xlink:title=" ">
<path fill="none" stroke="#63b8ff" d="M590.03,-219.51C609.24,-224.05 631.71,-229.36 650.18,-233.72"/>
<polygon fill="#63b8ff" stroke="#63b8ff" points="649.28,-237.34 659.82,-236.24 650.89,-230.53 649.28,-237.34"/>
</a>
</g>
</g>
<!-- Node12 -->
<g id="Node000012" class="node">
<title>Node12</title>
<g id="a_Node000012"><a xlink:href="../../d7/d8a/unistd_8cpp.html#adf30830f5265e55035171c301eb9c3fb" target="_top" xlink:title=" ">
<polygon fill="white" stroke="#666666" points="724.12,-215.05 651.88,-215.05 651.88,-195.8 724.12,-195.8 724.12,-215.05"/>
<text text-anchor="middle" x="688" y="-201.55" font-family="Helvetica,sans-Serif" font-size="10.00">gettimeofday</text>
</a>
</g>
</g>
<!-- Node9&#45;&gt;Node12 -->
<g id="edge17_Node000009_Node000012" class="edge">
<title>Node9&#45;&gt;Node12</title>
<g id="a_edge17_Node000009_Node000012"><a xlink:title=" ">
<path fill="none" stroke="#63b8ff" d="M599.37,-207.94C612.93,-207.55 627.47,-207.13 640.72,-206.75"/>
<polygon fill="#63b8ff" stroke="#63b8ff" points="640.6,-210.23 650.5,-206.44 640.4,-203.23 640.6,-210.23"/>
</a>
</g>
</g>
<!-- Node13 -->
<g id="Node000013" class="node">
<title>Node13</title>
<g id="a_Node000013"><a xlink:href="../../d3/dbc/config__gram_8c.html#a8d12df60024a0ab3de3a276240433890" target="_top" xlink:title=" ">
<polygon fill="white" stroke="#666666" points="710.25,-178.05 665.75,-178.05 665.75,-158.8 710.25,-158.8 710.25,-178.05"/>
<text text-anchor="middle" x="688" y="-164.55" font-family="Helvetica,sans-Serif" font-size="10.00">malloc</text>
</a>
</g>
</g>
<!-- Node9&#45;&gt;Node13 -->
<g id="edge18_Node000009_Node000013" class="edge">
<title>Node9&#45;&gt;Node13</title>
<g id="a_edge18_Node000009_Node000013"><a xlink:title=" ">
<path fill="none" stroke="#63b8ff" d="M581.53,-199.4C603.91,-192.82 632.97,-184.29 654.91,-177.85"/>
<polygon fill="#63b8ff" stroke="#63b8ff" points="655.75,-180.95 664.36,-174.78 653.78,-174.24 655.75,-180.95"/>
</a>
</g>
</g>
<!-- Node11 -->
<g id="Node000011" class="node">
<title>Node11</title>
<g id="a_Node000011"><a xlink:href="../../d4/d4f/crc16_8c.html#a8eac570481f5aa09b1dcfd05cfa55f58" target="_top" xlink:title=" ">
<polygon fill="white" stroke="#666666" points="820,-178.05 771.75,-178.05 771.75,-158.8 820,-158.8 820,-178.05"/>
<text text-anchor="middle" x="795.88" y="-164.55" font-family="Helvetica,sans-Serif" font-size="10.00">crcsum</text>
</a>
</g>
</g>
<!-- Node10&#45;&gt;Node11 -->
<g id="edge15_Node000010_Node000011" class="edge">
<title>Node10&#45;&gt;Node11</title>
<g id="a_edge15_Node000010_Node000011"><a xlink:title=" ">
<path fill="none" stroke="#63b8ff" d="M715.1,-234.43C722.07,-231.76 729.42,-228.42 735.75,-224.43 752.3,-213.98 768.24,-198.46 779.39,-186.41"/>
<polygon fill="#63b8ff" stroke="#63b8ff" points="781.53,-189.15 785.6,-179.36 776.32,-184.47 781.53,-189.15"/>
</a>
</g>
</g>
<!-- Node14&#45;&gt;Node2 -->
<g id="edge20_Node000014_Node000002" class="edge">
<title>Node14&#45;&gt;Node2</title>
<g id="a_edge20_Node000014_Node000002"><a xlink:title=" ">
<path fill="none" stroke="#63b8ff" d="M172.98,-219.54C184.28,-238.42 210.7,-279.54 241.25,-306.43 331.81,-386.12 369.29,-399.93 488.5,-418.43 539.34,-426.31 558.42,-441.79 604.25,-418.43 642.93,-398.7 667.76,-351.51 679.35,-324.43"/>
<polygon fill="#63b8ff" stroke="#63b8ff" points="682.86,-326.09 683.38,-315.51 676.37,-323.45 682.86,-326.09"/>
</a>
</g>
</g>
<!-- Node14&#45;&gt;Node3 -->
<g id="edge21_Node000014_Node000003" class="edge">
<title>Node14&#45;&gt;Node3</title>
<g id="a_edge21_Node000014_Node000003"><a xlink:title=" ">
<path fill="none" stroke="#63b8ff" d="M205.73,-213.51C239.6,-216.13 290.01,-217.68 333,-209.43 342.13,-207.67 479.44,-149.54 488.5,-147.43 548.78,-133.32 621.84,-131.12 660.32,-131.07"/>
<polygon fill="#63b8ff" stroke="#63b8ff" points="660.3,-134.57 670.31,-131.11 660.33,-127.57 660.3,-134.57"/>
</a>
</g>
</g>
<!-- Node14&#45;&gt;Node4 -->
<g id="edge22_Node000014_Node000004" class="edge">
<title>Node14&#45;&gt;Node4</title>
<g id="a_edge22_Node000014_Node000004"><a xlink:title=" ">
<path fill="none" stroke="#63b8ff" d="M175.42,-199.65C188.32,-184.91 214.5,-156.77 241.25,-138.43 278.39,-112.96 295.58,-120.48 333,-95.43 351.03,-83.35 351.55,-75.34 369,-62.43 372.97,-59.49 377.32,-56.61 381.66,-53.92"/>
<polygon fill="#63b8ff" stroke="#63b8ff" points="383.16,-56.5 389.97,-48.39 379.59,-50.48 383.16,-56.5"/>
</a>
</g>
</g>
<!-- Node14&#45;&gt;Node5 -->
<g id="edge23_Node000014_Node000005" class="edge">
<title>Node14&#45;&gt;Node5</title>
<g id="a_edge23_Node000014_Node000005"><a xlink:title=" ">
<path fill="none" stroke="#63b8ff" d="M179.36,-219.44C193.77,-231.06 218.62,-250.52 241.25,-265.43 288.72,-296.69 346.87,-328.47 380.96,-346.49"/>
<polygon fill="#63b8ff" stroke="#63b8ff" points="378.84,-349.85 389.32,-351.41 382.09,-343.66 378.84,-349.85"/>
</a>
</g>
</g>
<!-- Node14&#45;&gt;Node8 -->
<g id="edge24_Node000014_Node000008" class="edge">
<title>Node14&#45;&gt;Node8</title>
<g id="a_edge24_Node000014_Node000008"><a xlink:title=" ">
<path fill="none" stroke="#63b8ff" d="M185.78,-219.47C200.45,-226.94 221.62,-236.78 241.25,-242.43 281.09,-253.89 327.88,-260 362.03,-263.18"/>
<polygon fill="#63b8ff" stroke="#63b8ff" points="361.38,-266.72 371.65,-264.11 361.99,-259.75 361.38,-266.72"/>
</a>
</g>
</g>
<!-- Node14&#45;&gt;Node15 -->
<g id="edge25_Node000014_Node000015" class="edge">
<title>Node14&#45;&gt;Node15</title>
<g id="a_edge25_Node000014_Node000015"><a xlink:title=" ">
<path fill="none" stroke="#63b8ff" d="M185.85,-199.41C200.74,-191.55 222.17,-180.46 241.25,-171.43 281.45,-152.38 296.41,-156.73 333,-131.43 351.87,-118.37 348.9,-105.48 369,-94.43 408.67,-72.6 459.85,-63.63 496.85,-59.95"/>
<polygon fill="#63b8ff" stroke="#63b8ff" points="496.72,-63.39 506.37,-59.01 496.1,-56.41 496.72,-63.39"/>
</a>
</g>
</g>
<!-- Node14&#45;&gt;Node19 -->
<g id="edge33_Node000014_Node000019" class="edge">
<title>Node14&#45;&gt;Node19</title>
<g id="a_edge33_Node000014_Node000019"><a xlink:title=" ">
<path fill="none" stroke="#63b8ff" d="M205.43,-203.31C213.27,-202.06 221.68,-200.71 230,-199.39"/>
<polygon fill="#63b8ff" stroke="#63b8ff" points="230.51,-202.69 239.83,-197.66 229.4,-195.78 230.51,-202.69"/>
</a>
</g>
</g>
<!-- Node14&#45;&gt;Node20 -->
<g id="edge40_Node000014_Node000020" class="edge">
<title>Node14&#45;&gt;Node20</title>
<g id="a_edge40_Node000014_Node000020"><a xlink:title=" ">
<path fill="none" stroke="#63b8ff" d="M171.78,-199.53C181.9,-178.87 207.73,-130.57 241.25,-100.43 246.9,-95.35 253.82,-90.97 260.51,-87.4"/>
<polygon fill="#63b8ff" stroke="#63b8ff" points="261.55,-90.3 268.99,-82.75 258.47,-84.01 261.55,-90.3"/>
</a>
</g>
</g>
<!-- Node15&#45;&gt;Node2 -->
<g id="edge26_Node000015_Node000002" class="edge">
<title>Node15&#45;&gt;Node2</title>
<g id="a_edge26_Node000015_Node000002"><a xlink:title=" ">
<path fill="none" stroke="#63b8ff" d="M551.62,-67.37C568.13,-105.89 627.69,-244.1 640.25,-261.43 647.17,-270.97 656.46,-280.04 664.93,-287.37"/>
<polygon fill="#63b8ff" stroke="#63b8ff" points="662.4,-290.64 672.34,-294.32 666.86,-285.25 662.4,-290.64"/>
</a>
</g>
</g>
<!-- Node15&#45;&gt;Node3 -->
<g id="edge29_Node000015_Node000003" class="edge">
<title>Node15&#45;&gt;Node3</title>
<g id="a_edge29_Node000015_Node000003"><a xlink:title=" ">
<path fill="none" stroke="#63b8ff" d="M576.35,-67.52C585.59,-71.29 595.64,-75.99 604.25,-81.43 622.35,-92.85 621.97,-102.29 640.25,-113.43 646.76,-117.39 654.29,-120.75 661.39,-123.46"/>
<polygon fill="#63b8ff" stroke="#63b8ff" points="660.03,-127.04 670.62,-127.05 662.35,-120.43 660.03,-127.04"/>
</a>
</g>
</g>
<!-- Node15&#45;&gt;Node13 -->
<g id="edge30_Node000015_Node000013" class="edge">
<title>Node15&#45;&gt;Node13</title>
<g id="a_edge30_Node000015_Node000013"><a xlink:title=" ">
<path fill="none" stroke="#63b8ff" d="M555,-67.48C569.65,-86.17 603.53,-126.53 640.25,-150.43 644.96,-153.49 650.27,-156.15 655.57,-158.42"/>
<polygon fill="#63b8ff" stroke="#63b8ff" points="654.03,-161.96 664.62,-162.31 656.55,-155.44 654.03,-161.96"/>
</a>
</g>
</g>
<!-- Node16 -->
<g id="Node000016" class="node">
<title>Node16</title>
<g id="a_Node000016"><a xlink:href="../../d4/d4f/crc16_8c.html#a14c66d38addedaf37ddffef9e6aa7661" target="_top" xlink:title=" ">
<polygon fill="white" stroke="#666666" points="718.5,-104.05 657.5,-104.05 657.5,-84.8 718.5,-84.8 718.5,-104.05"/>
<text text-anchor="middle" x="688" y="-90.55" font-family="Helvetica,sans-Serif" font-size="10.00">crcappend</text>
</a>
</g>
</g>
<!-- Node15&#45;&gt;Node16 -->
<g id="edge27_Node000015_Node000016" class="edge">
<title>Node15&#45;&gt;Node16</title>
<g id="a_edge27_Node000015_Node000016"><a xlink:title=" ">
<path fill="none" stroke="#63b8ff" d="M585.53,-67.54C604.52,-72.57 627.47,-78.65 646.74,-83.76"/>
<polygon fill="#63b8ff" stroke="#63b8ff" points="645.74,-87.38 656.3,-86.56 647.53,-80.61 645.74,-87.38"/>
</a>
</g>
</g>
<!-- Node17 -->
<g id="Node000017" class="node">
<title>Node17</title>
<g id="a_Node000017"><a xlink:href="../../d8/d9b/jtagmk_i_i_8c.html#aef145405ed35079405f033437e085105" target="_top" xlink:title=" ">
<polygon fill="white" stroke="#666666" points="718.5,-67.05 657.5,-67.05 657.5,-47.8 718.5,-47.8 718.5,-67.05"/>
<text text-anchor="middle" x="688" y="-53.55" font-family="Helvetica,sans-Serif" font-size="10.00">u16_to_b2</text>
</a>
</g>
</g>
<!-- Node15&#45;&gt;Node17 -->
<g id="edge31_Node000015_Node000017" class="edge">
<title>Node15&#45;&gt;Node17</title>
<g id="a_edge31_Node000015_Node000017"><a xlink:title=" ">
<path fill="none" stroke="#63b8ff" d="M585.53,-57.43C604.43,-57.43 627.25,-57.43 646.47,-57.43"/>
<polygon fill="#63b8ff" stroke="#63b8ff" points="646.3,-60.93 656.3,-57.43 646.3,-53.93 646.3,-60.93"/>
</a>
</g>
</g>
<!-- Node18 -->
<g id="Node000018" class="node">
<title>Node18</title>
<g id="a_Node000018"><a xlink:href="../../d8/d9b/jtagmk_i_i_8c.html#a4df5b1ac968b4286976928d7bfec7ef6" target="_top" xlink:title=" ">
<polygon fill="white" stroke="#666666" points="718.5,-30.05 657.5,-30.05 657.5,-10.8 718.5,-10.8 718.5,-30.05"/>
<text text-anchor="middle" x="688" y="-16.55" font-family="Helvetica,sans-Serif" font-size="10.00">u32_to_b4</text>
</a>
</g>
</g>
<!-- Node15&#45;&gt;Node18 -->
<g id="edge32_Node000015_Node000018" class="edge">
<title>Node15&#45;&gt;Node18</title>
<g id="a_edge32_Node000015_Node000018"><a xlink:title=" ">
<path fill="none" stroke="#63b8ff" d="M585.53,-47.31C604.52,-42.28 627.47,-36.2 646.74,-31.1"/>
<polygon fill="#63b8ff" stroke="#63b8ff" points="647.53,-34.24 656.3,-28.29 645.74,-27.47 647.53,-34.24"/>
</a>
</g>
</g>
<!-- Node16&#45;&gt;Node11 -->
<g id="edge28_Node000016_Node000011" class="edge">
<title>Node16&#45;&gt;Node11</title>
<g id="a_edge28_Node000016_Node000011"><a xlink:title=" ">
<path fill="none" stroke="#63b8ff" d="M718.53,-103.78C724.44,-106.2 730.45,-109.08 735.75,-112.43 752.3,-122.87 768.24,-138.39 779.39,-150.44"/>
<polygon fill="#63b8ff" stroke="#63b8ff" points="776.32,-152.38 785.6,-157.49 781.53,-147.7 776.32,-152.38"/>
</a>
</g>
</g>
<!-- Node19&#45;&gt;Node2 -->
<g id="edge34_Node000019_Node000002" class="edge">
<title>Node19&#45;&gt;Node2</title>
<g id="a_edge34_Node000019_Node000002"><a xlink:title=" ">
<path fill="none" stroke="#63b8ff" d="M332.25,-200.51C393.73,-214.9 508.39,-242.97 604.25,-273.43 620.13,-278.47 637.44,-284.82 652.1,-290.45"/>
<polygon fill="#63b8ff" stroke="#63b8ff" points="650.66,-294.03 661.24,-294.4 653.19,-287.51 650.66,-294.03"/>
</a>
</g>
</g>
<!-- Node19&#45;&gt;Node3 -->
<g id="edge35_Node000019_Node000003" class="edge">
<title>Node19&#45;&gt;Node3</title>
<g id="a_edge35_Node000019_Node000003"><a xlink:title=" ">
<path fill="none" stroke="#63b8ff" d="M316.95,-180.33C349.79,-168.8 405.05,-149.36 452.5,-132.43 468.52,-126.71 471.74,-122.36 488.5,-119.43 539.17,-110.56 552.94,-115.72 604.25,-119.43 623.24,-120.8 644.49,-123.91 660.71,-126.62"/>
<polygon fill="#63b8ff" stroke="#63b8ff" points="660.07,-130.24 670.52,-128.5 661.26,-123.34 660.07,-130.24"/>
</a>
</g>
</g>
<!-- Node19&#45;&gt;Node4 -->
<g id="edge36_Node000019_Node000004" class="edge">
<title>Node19&#45;&gt;Node4</title>
<g id="a_edge36_Node000019_Node000004"><a xlink:title=" ">
<path fill="none" stroke="#63b8ff" d="M296.11,-180.45C316.21,-155.32 369.18,-89.12 395.08,-56.76"/>
<polygon fill="#63b8ff" stroke="#63b8ff" points="398.38,-59.23 401.9,-49.24 392.92,-54.86 398.38,-59.23"/>
</a>
</g>
</g>
<!-- Node19&#45;&gt;Node5 -->
<g id="edge37_Node000019_Node000005" class="edge">
<title>Node19&#45;&gt;Node5</title>
<g id="a_edge37_Node000019_Node000005"><a xlink:title=" ">
<path fill="none" stroke="#63b8ff" d="M295.19,-200.36C314.92,-228.1 370.86,-306.74 396.55,-342.87"/>
<polygon fill="#63b8ff" stroke="#63b8ff" points="394.02,-344.34 402.67,-350.47 399.72,-340.29 394.02,-344.34"/>
</a>
</g>
</g>
<!-- Node19&#45;&gt;Node8 -->
<g id="edge38_Node000019_Node000008" class="edge">
<title>Node19&#45;&gt;Node8</title>
<g id="a_edge38_Node000019_Node000008"><a xlink:title=" ">
<path fill="none" stroke="#63b8ff" d="M304.28,-200.52C324.83,-213.36 360.57,-235.7 384.68,-250.76"/>
<polygon fill="#63b8ff" stroke="#63b8ff" points="382.58,-254.2 392.92,-256.53 386.29,-248.27 382.58,-254.2"/>
</a>
</g>
</g>
<!-- Node19&#45;&gt;Node15 -->
<g id="edge39_Node000019_Node000015" class="edge">
<title>Node19&#45;&gt;Node15</title>
<g id="a_edge39_Node000019_Node000015"><a xlink:title=" ">
<path fill="none" stroke="#63b8ff" d="M308.65,-180.38C316.44,-176.33 325.29,-171.43 333,-166.43 350,-155.38 351.75,-149.07 369,-138.43 419.07,-107.52 434.82,-105.54 488.5,-81.43 495.68,-78.2 503.41,-74.85 510.8,-71.72"/>
<polygon fill="#63b8ff" stroke="#63b8ff" points="512.05,-74.57 519.91,-67.46 509.34,-68.11 512.05,-74.57"/>
</a>
</g>
</g>
</g>
</svg>
