<?xml version="1.0" encoding="UTF-8" standalone="no"?>
<!DOCTYPE svg PUBLIC "-//W3C//DTD SVG 1.1//EN"
 "http://www.w3.org/Graphics/SVG/1.1/DTD/svg11.dtd">
<!-- Generated by graphviz version 8.0.5 (20230430.1635)
 -->
<!-- Title: src/libigl/igl/delaunay_triangulation.cpp Pages: 1 -->
<!--zoomable 370 -->

<svg id="main" version="1.1" xmlns="http://www.w3.org/2000/svg" xmlns:xlink="http://www.w3.org/1999/xlink" xml:space="preserve" onload="init(evt)">
<style type="text/css"><![CDATA[
.node, .edge {opacity: 0.7;}
.node.selected, .edge.selected {opacity: 1;}
.edge:hover path { stroke: red; }
.edge:hover polygon { stroke: red; fill: red; }
]]></style>

<defs>
  <circle id="rim" cx="0" cy="0" r="7"/>
  <circle id="rim2" cx="0" cy="0" r="3.5"/>
  <g id="zoomPlus">
    <use xlink:href="#rim" fill="#404040"><set attributeName="fill" to="#808080" begin="zoomplus.mouseover" end="zoomplus.mouseout"/></use>
    <path d="M-4,0h8M0,-4v8" fill="none" stroke="white" stroke-width="1.5" pointer-events="none"/>
  </g>
  <g id="zoomMin">
    <use xlink:href="#rim" fill="#404040"><set attributeName="fill" to="#808080" begin="zoomminus.mouseover" end="zoomminus.mouseout"/></use>
    <path d="M-4,0h8" fill="none" stroke="white" stroke-width="1.5" pointer-events="none"/>
  </g>
  <g id="arrowUp" transform="translate(30 24)">
    <use xlink:href="#rim"/>
    <path pointer-events="none" fill="none" stroke="white" stroke-width="1.5" d="M0,-3.0v7 M-2.5,-0.5L0,-3.0L2.5,-0.5"/>
  </g>
  <g id="arrowRight" transform="rotate(90) translate(36 -43)">
    <use xlink:href="#rim"/>
    <path pointer-events="none" fill="none" stroke="white" stroke-width="1.5" d="M0,-3.0v7 M-2.5,-0.5L0,-3.0L2.5,-0.5"/>
  </g>
  <g id="arrowDown" transform="rotate(180) translate(-30 -48)">
    <use xlink:href="#rim"/>
    <path pointer-events="none" fill="none" stroke="white" stroke-width="1.5" d="M0,-3.0v7 M-2.5,-0.5L0,-3.0L2.5,-0.5"/>
  </g>
  <g id="arrowLeft" transform="rotate(270) translate(-36 17)">
    <use xlink:href="#rim"/>
    <path pointer-events="none" fill="none" stroke="white" stroke-width="1.5" d="M0,-3.0v7 M-2.5,-0.5L0,-3.0L2.5,-0.5"/>
  </g>
  <g id="resetDef">
    <use xlink:href="#rim2" fill="#404040"><set attributeName="fill" to="#808080" begin="reset.mouseover" end="reset.mouseout"/></use>
  </g>
</defs>
<script type="application/ecmascript">
var viewWidth = 1382;
var viewHeight = 370;
var sectionId = 'dynsection-0';
</script>
<script type="application/ecmascript" xlink:href="../../svg.min.js"/>
<svg id="graph" class="graph">
<g id="viewport">
<title>src/libigl/igl/delaunay_triangulation.cpp</title>
<!-- Node1 -->
<g id="Node000001" class="node">
<title>Node1</title>
<g id="a_Node000001"><a xlink:title=" ">
<polygon fill="#999999" stroke="#666666" points="625.58,-362 518.83,-362 518.83,-331.5 625.58,-331.5 625.58,-362"/>
<text text-anchor="start" x="526.83" y="-348.5" font-family="Helvetica,sans-Serif" font-size="10.00">src/libigl/igl/delaunay</text>
<text text-anchor="middle" x="572.2" y="-337.25" font-family="Helvetica,sans-Serif" font-size="10.00">_triangulation.cpp</text>
</a>
</g>
</g>
<!-- Node2 -->
<g id="Node000002" class="node">
<title>Node2</title>
<g id="a_Node000002"><a xlink:href="../../d0/dec/delaunay__triangulation_8h.html" target="_top" xlink:title=" ">
<polygon fill="white" stroke="#666666" points="632.7,-240.25 511.7,-240.25 511.7,-221 632.7,-221 632.7,-240.25"/>
<text text-anchor="middle" x="572.2" y="-226.75" font-family="Helvetica,sans-Serif" font-size="10.00">delaunay_triangulation.h</text>
</a>
</g>
</g>
<!-- Node1&#45;&gt;Node2 -->
<g id="edge1_Node000001_Node000002" class="edge">
<title>Node1&#45;&gt;Node2</title>
<g id="a_edge1_Node000001_Node000002"><a xlink:title=" ">
<path fill="none" stroke="#63b8ff" d="M567.53,-331.3C564.97,-311.06 564.78,-274.22 566.94,-251.44"/>
<polygon fill="#63b8ff" stroke="#63b8ff" points="570.52,-252.07 568.34,-241.7 563.58,-251.16 570.52,-252.07"/>
</a>
</g>
</g>
<!-- Node5 -->
<g id="Node000005" class="node">
<title>Node5</title>
<g id="a_Node000005"><a xlink:href="../../d5/d47/flip__edge_8h.html" target="_top" xlink:title=" ">
<polygon fill="white" stroke="#666666" points="201.83,-74.5 138.58,-74.5 138.58,-55.25 201.83,-55.25 201.83,-74.5"/>
<text text-anchor="middle" x="170.2" y="-61" font-family="Helvetica,sans-Serif" font-size="10.00">flip_edge.h</text>
</a>
</g>
</g>
<!-- Node1&#45;&gt;Node5 -->
<g id="edge5_Node000001_Node000005" class="edge">
<title>Node1&#45;&gt;Node5</title>
<g id="a_edge5_Node000001_Node000005"><a xlink:title=" ">
<path fill="none" stroke="#63b8ff" d="M518.54,-338.4C393.15,-319.95 87.4,-267.23 32.2,-185 0.43,-137.67 81.66,-97.98 132.62,-78.6"/>
<polygon fill="#63b8ff" stroke="#63b8ff" points="133.51,-81.64 141.67,-74.89 131.08,-75.07 133.51,-81.64"/>
</a>
</g>
</g>
<!-- Node6 -->
<g id="Node000006" class="node">
<title>Node6</title>
<g id="a_Node000006"><a xlink:title=" ">
<polygon fill="#e0e0e0" stroke="#999999" points="503.7,-19.25 460.7,-19.25 460.7,0 503.7,0 503.7,-19.25"/>
<text text-anchor="middle" x="482.2" y="-5.75" font-family="Helvetica,sans-Serif" font-size="10.00">vector</text>
</a>
</g>
</g>
<!-- Node1&#45;&gt;Node6 -->
<g id="edge65_Node000001_Node000006" class="edge">
<title>Node1&#45;&gt;Node6</title>
<g id="a_edge65_Node000001_Node000006"><a xlink:title=" ">
<path fill="none" stroke="#63b8ff" d="M589.99,-331.24C615.17,-308.81 656.64,-263.83 642.2,-221 627.25,-176.64 534.5,-69.36 497.46,-27.63"/>
<polygon fill="#63b8ff" stroke="#63b8ff" points="500.52,-25.69 491.26,-20.55 495.3,-30.35 500.52,-25.69"/>
</a>
</g>
</g>
<!-- Node8 -->
<g id="Node000008" class="node">
<title>Node8</title>
<g id="a_Node000008"><a xlink:href="../../d8/d3d/lexicographic__triangulation_8h.html" target="_top" xlink:title=" ">
<polygon fill="white" stroke="#666666" points="449.7,-295.5 310.7,-295.5 310.7,-276.25 449.7,-276.25 449.7,-295.5"/>
<text text-anchor="middle" x="380.2" y="-282" font-family="Helvetica,sans-Serif" font-size="10.00">lexicographic_triangulation.h</text>
</a>
</g>
</g>
<!-- Node1&#45;&gt;Node8 -->
<g id="edge11_Node000001_Node000008" class="edge">
<title>Node1&#45;&gt;Node8</title>
<g id="a_edge11_Node000001_Node000008"><a xlink:title=" ">
<path fill="none" stroke="#63b8ff" d="M524.25,-331.05C492.16,-321.2 450.41,-308.4 420.13,-299.12"/>
<polygon fill="#63b8ff" stroke="#63b8ff" points="421.52,-295.58 410.93,-295.99 419.46,-302.27 421.52,-295.58"/>
</a>
</g>
</g>
<!-- Node36 -->
<g id="Node000036" class="node">
<title>Node36</title>
<g id="a_Node000036"><a xlink:href="../../d4/dac/unique__edge__map_8h.html" target="_top" xlink:title=" ">
<polygon fill="white" stroke="#666666" points="936.7,-295.5 833.7,-295.5 833.7,-276.25 936.7,-276.25 936.7,-295.5"/>
<text text-anchor="middle" x="885.2" y="-282" font-family="Helvetica,sans-Serif" font-size="10.00">unique_edge_map.h</text>
</a>
</g>
</g>
<!-- Node1&#45;&gt;Node36 -->
<g id="edge37_Node000001_Node000036" class="edge">
<title>Node1&#45;&gt;Node36</title>
<g id="a_edge37_Node000001_Node000036"><a xlink:title=" ">
<path fill="none" stroke="#63b8ff" d="M626.01,-335.63C681.67,-325.16 768.37,-308.85 825.96,-298.02"/>
<polygon fill="#63b8ff" stroke="#63b8ff" points="826.54,-301.28 835.72,-295.99 825.24,-294.4 826.54,-301.28"/>
</a>
</g>
</g>
<!-- Node45 -->
<g id="Node000045" class="node">
<title>Node45</title>
<g id="a_Node000045"><a xlink:title=" ">
<polygon fill="#e0e0e0" stroke="#999999" points="1005.83,-295.5 954.58,-295.5 954.58,-276.25 1005.83,-276.25 1005.83,-295.5"/>
<text text-anchor="middle" x="980.2" y="-282" font-family="Helvetica,sans-Serif" font-size="10.00">sstream</text>
</a>
</g>
</g>
<!-- Node1&#45;&gt;Node45 -->
<g id="edge66_Node000001_Node000045" class="edge">
<title>Node1&#45;&gt;Node45</title>
<g id="a_edge66_Node000001_Node000045"><a xlink:title=" ">
<path fill="none" stroke="#63b8ff" d="M625.78,-340.51C696.54,-333.15 825.18,-318.29 943.59,-295.83"/>
<polygon fill="#63b8ff" stroke="#63b8ff" points="944.12,-299.1 953.28,-293.78 942.8,-292.23 944.12,-299.1"/>
</a>
</g>
</g>
<!-- Node2&#45;&gt;Node1 -->
<g id="edge4_Node000002_Node000001" class="edge">
<title>Node2&#45;&gt;Node1</title>
<g id="a_edge4_Node000002_Node000001"><a xlink:title=" ">
<path fill="none" stroke="#63b8ff" d="M576.07,-240.7C579.15,-257.82 579.76,-295.42 577.9,-320.68"/>
<polygon fill="#63b8ff" stroke="#63b8ff" points="574.36,-320.01 576.88,-330.3 581.32,-320.68 574.36,-320.01"/>
</a>
</g>
</g>
<!-- Node3 -->
<g id="Node000003" class="node">
<title>Node3</title>
<g id="a_Node000003"><a xlink:href="../../d6/d68/igl__inline_8h.html" target="_top" xlink:title=" ">
<polygon fill="white" stroke="#666666" points="879.08,-19.25 817.33,-19.25 817.33,0 879.08,0 879.08,-19.25"/>
<text text-anchor="middle" x="848.2" y="-5.75" font-family="Helvetica,sans-Serif" font-size="10.00">igl_inline.h</text>
</a>
</g>
</g>
<!-- Node2&#45;&gt;Node3 -->
<g id="edge2_Node000002_Node000003" class="edge">
<title>Node2&#45;&gt;Node3</title>
<g id="a_edge2_Node000002_Node000003"><a xlink:title=" ">
<path fill="none" stroke="#63b8ff" d="M608.83,-220.56C669.36,-203.44 788.97,-160.15 843.2,-74.5 851.4,-61.55 852.22,-44.03 851.23,-30.62"/>
<polygon fill="#63b8ff" stroke="#63b8ff" points="854.6,-30.23 849.97,-20.7 847.64,-31.03 854.6,-30.23"/>
</a>
</g>
</g>
<!-- Node4 -->
<g id="Node000004" class="node">
<title>Node4</title>
<g id="a_Node000004"><a xlink:title=" ">
<polygon fill="#e0e0e0" stroke="#999999" points="113.58,-19.25 48.83,-19.25 48.83,0 113.58,0 113.58,-19.25"/>
<text text-anchor="middle" x="81.2" y="-5.75" font-family="Helvetica,sans-Serif" font-size="10.00">Eigen/Core</text>
</a>
</g>
</g>
<!-- Node2&#45;&gt;Node4 -->
<g id="edge3_Node000002_Node000004" class="edge">
<title>Node2&#45;&gt;Node4</title>
<g id="a_edge3_Node000002_Node000004"><a xlink:title=" ">
<path fill="none" stroke="#63b8ff" d="M511.42,-221C398.93,-204.4 163.03,-166.38 89.2,-129.75 55.24,-112.9 40.12,-108.91 24.2,-74.5 15.13,-54.88 34.76,-36.94 53.41,-25.1"/>
<polygon fill="#63b8ff" stroke="#63b8ff" points="54.81,-27.75 61.64,-19.64 51.25,-21.72 54.81,-27.75"/>
</a>
</g>
</g>
<!-- Node5&#45;&gt;Node3 -->
<g id="edge6_Node000005_Node000003" class="edge">
<title>Node5&#45;&gt;Node3</title>
<g id="a_edge6_Node000005_Node000003"><a xlink:title=" ">
<path fill="none" stroke="#63b8ff" d="M202.08,-60.14C216.47,-58.52 233.68,-56.68 249.2,-55.25 457.97,-36.08 708.26,-19.5 806.1,-13.26"/>
<polygon fill="#63b8ff" stroke="#63b8ff" points="806.23,-16.7 815.99,-12.57 805.79,-9.71 806.23,-16.7"/>
</a>
</g>
</g>
<!-- Node5&#45;&gt;Node4 -->
<g id="edge7_Node000005_Node000004" class="edge">
<title>Node5&#45;&gt;Node4</title>
<g id="a_edge7_Node000005_Node000004"><a xlink:title=" ">
<path fill="none" stroke="#63b8ff" d="M155.1,-54.84C141.55,-46.73 121.41,-34.68 105.58,-25.21"/>
<polygon fill="#63b8ff" stroke="#63b8ff" points="107.75,-21.83 97.37,-19.7 104.16,-27.84 107.75,-21.83"/>
</a>
</g>
</g>
<!-- Node5&#45;&gt;Node6 -->
<g id="edge8_Node000005_Node000006" class="edge">
<title>Node5&#45;&gt;Node6</title>
<g id="a_edge8_Node000005_Node000006"><a xlink:title=" ">
<path fill="none" stroke="#63b8ff" d="M201.86,-57.86C206.66,-56.97 211.56,-56.07 216.2,-55.25 300.25,-40.32 399.48,-24.03 449.66,-15.88"/>
<polygon fill="#63b8ff" stroke="#63b8ff" points="450.14,-19.18 459.46,-14.13 449.02,-12.27 450.14,-19.18"/>
</a>
</g>
</g>
<!-- Node7 -->
<g id="Node000007" class="node">
<title>Node7</title>
<g id="a_Node000007"><a xlink:href="../../d7/d5a/flip__edge_8cpp.html" target="_top" xlink:title=" ">
<polygon fill="white" stroke="#666666" points="207.08,-19.25 133.33,-19.25 133.33,0 207.08,0 207.08,-19.25"/>
<text text-anchor="middle" x="170.2" y="-5.75" font-family="Helvetica,sans-Serif" font-size="10.00">flip_edge.cpp</text>
</a>
</g>
</g>
<!-- Node5&#45;&gt;Node7 -->
<g id="edge9_Node000005_Node000007" class="edge">
<title>Node5&#45;&gt;Node7</title>
<g id="a_edge9_Node000005_Node000007"><a xlink:title=" ">
<path fill="none" stroke="#63b8ff" d="M165.04,-55.08C163.59,-48.34 163.14,-38.77 163.66,-30.24"/>
<polygon fill="#63b8ff" stroke="#63b8ff" points="167.23,-30.97 165,-20.61 160.28,-30.1 167.23,-30.97"/>
</a>
</g>
</g>
<!-- Node7&#45;&gt;Node5 -->
<g id="edge10_Node000007_Node000005" class="edge">
<title>Node7&#45;&gt;Node5</title>
<g id="a_edge10_Node000007_Node000005"><a xlink:title=" ">
<path fill="none" stroke="#63b8ff" d="M175.41,-19.61C176.82,-26.33 177.26,-35.77 176.74,-44.21"/>
<polygon fill="#63b8ff" stroke="#63b8ff" points="173.15,-43.72 175.37,-54.08 180.1,-44.6 173.15,-43.72"/>
</a>
</g>
</g>
<!-- Node8&#45;&gt;Node3 -->
<g id="edge12_Node000008_Node000003" class="edge">
<title>Node8&#45;&gt;Node3</title>
<g id="a_edge12_Node000008_Node000003"><a xlink:title=" ">
<path fill="none" stroke="#63b8ff" d="M397.26,-275.88C420.95,-263.41 465.2,-240.24 503.2,-221 634.52,-154.52 686.9,-168.45 800.2,-74.5 815.84,-61.53 829.3,-42.5 837.95,-28.58"/>
<polygon fill="#63b8ff" stroke="#63b8ff" points="841.24,-30.89 843.36,-20.51 835.23,-27.3 841.24,-30.89"/>
</a>
</g>
</g>
<!-- Node8&#45;&gt;Node4 -->
<g id="edge13_Node000008_Node000004" class="edge">
<title>Node8&#45;&gt;Node4</title>
<g id="a_edge13_Node000008_Node000004"><a xlink:title=" ">
<path fill="none" stroke="#63b8ff" d="M320.58,-275.79C231.38,-260.94 69.63,-228.67 32.2,-185 -5.55,-140.96 -8.44,-106.77 18.2,-55.25 24.96,-42.19 37.49,-32.13 49.6,-24.9"/>
<polygon fill="#63b8ff" stroke="#63b8ff" points="51.02,-27.57 58.12,-19.7 47.66,-21.42 51.02,-27.57"/>
</a>
</g>
</g>
<!-- Node9 -->
<g id="Node000009" class="node">
<title>Node9</title>
<g id="a_Node000009"><a xlink:href="../../d2/d1a/lexicographic__triangulation_8cpp.html" target="_top" xlink:title=" ">
<polygon fill="white" stroke="#666666" points="454.95,-240.25 305.45,-240.25 305.45,-221 454.95,-221 454.95,-240.25"/>
<text text-anchor="middle" x="380.2" y="-226.75" font-family="Helvetica,sans-Serif" font-size="10.00">lexicographic_triangulation.cpp</text>
</a>
</g>
</g>
<!-- Node8&#45;&gt;Node9 -->
<g id="edge14_Node000008_Node000009" class="edge">
<title>Node8&#45;&gt;Node9</title>
<g id="a_edge14_Node000008_Node000009"><a xlink:title=" ">
<path fill="none" stroke="#63b8ff" d="M375.04,-276.08C373.59,-269.34 373.14,-259.77 373.66,-251.24"/>
<polygon fill="#63b8ff" stroke="#63b8ff" points="377.23,-251.97 375,-241.61 370.28,-251.1 377.23,-251.97"/>
</a>
</g>
</g>
<!-- Node9&#45;&gt;Node6 -->
<g id="edge35_Node000009_Node000006" class="edge">
<title>Node9&#45;&gt;Node6</title>
<g id="a_edge35_Node000009_Node000006"><a xlink:title=" ">
<path fill="none" stroke="#63b8ff" d="M390.2,-220.52C399.04,-212.03 411.81,-198.65 420.2,-185 451.81,-133.56 470.42,-63.68 478.09,-30.15"/>
<polygon fill="#63b8ff" stroke="#63b8ff" points="481.69,-31.06 480.42,-20.54 474.85,-29.56 481.69,-31.06"/>
</a>
</g>
</g>
<!-- Node9&#45;&gt;Node8 -->
<g id="edge15_Node000009_Node000008" class="edge">
<title>Node9&#45;&gt;Node8</title>
<g id="a_edge15_Node000009_Node000008"><a xlink:title=" ">
<path fill="none" stroke="#63b8ff" d="M385.41,-240.61C386.82,-247.33 387.26,-256.77 386.74,-265.21"/>
<polygon fill="#63b8ff" stroke="#63b8ff" points="383.15,-264.72 385.37,-275.08 390.1,-265.6 383.15,-264.72"/>
</a>
</g>
</g>
<!-- Node10 -->
<g id="Node000010" class="node">
<title>Node10</title>
<g id="a_Node000010"><a xlink:href="../../d9/d08/sortrows_8h.html" target="_top" xlink:title=" ">
<polygon fill="white" stroke="#666666" points="411.08,-185 349.33,-185 349.33,-165.75 411.08,-165.75 411.08,-185"/>
<text text-anchor="middle" x="380.2" y="-171.5" font-family="Helvetica,sans-Serif" font-size="10.00">sortrows.h</text>
</a>
</g>
</g>
<!-- Node9&#45;&gt;Node10 -->
<g id="edge16_Node000009_Node000010" class="edge">
<title>Node9&#45;&gt;Node10</title>
<g id="a_edge16_Node000009_Node000010"><a xlink:title=" ">
<path fill="none" stroke="#63b8ff" d="M380.2,-220.83C380.2,-214.17 380.2,-204.74 380.2,-196.28"/>
<polygon fill="#63b8ff" stroke="#63b8ff" points="383.7,-196.36 380.2,-186.36 376.7,-196.36 383.7,-196.36"/>
</a>
</g>
</g>
<!-- Node35 -->
<g id="Node000035" class="node">
<title>Node35</title>
<g id="a_Node000035"><a xlink:title=" ">
<polygon fill="#e0e0e0" stroke="#999999" points="69.6,-185 40.8,-185 40.8,-165.75 69.6,-165.75 69.6,-185"/>
<text text-anchor="middle" x="55.2" y="-171.5" font-family="Helvetica,sans-Serif" font-size="10.00">list</text>
</a>
</g>
</g>
<!-- Node9&#45;&gt;Node35 -->
<g id="edge36_Node000009_Node000035" class="edge">
<title>Node9&#45;&gt;Node35</title>
<g id="a_edge36_Node000009_Node000035"><a xlink:title=" ">
<path fill="none" stroke="#63b8ff" d="M305.17,-221.5C244.77,-214.21 157.94,-202.02 83.2,-185 82.25,-184.78 81.28,-184.55 80.3,-184.3"/>
<polygon fill="#63b8ff" stroke="#63b8ff" points="81.49,-180.72 70.91,-181.36 79.58,-187.45 81.49,-180.72"/>
</a>
</g>
</g>
<!-- Node10&#45;&gt;Node3 -->
<g id="edge17_Node000010_Node000003" class="edge">
<title>Node10&#45;&gt;Node3</title>
<g id="a_edge17_Node000010_Node000003"><a xlink:title=" ">
<path fill="none" stroke="#63b8ff" d="M411.52,-166.59C503.01,-143.84 763.96,-78.73 772.2,-74.5 795.79,-62.39 818.47,-41.78 832.82,-27.25"/>
<polygon fill="#63b8ff" stroke="#63b8ff" points="834.85,-30.14 839.24,-20.5 829.8,-25.3 834.85,-30.14"/>
</a>
</g>
</g>
<!-- Node10&#45;&gt;Node4 -->
<g id="edge19_Node000010_Node000004" class="edge">
<title>Node10&#45;&gt;Node4</title>
<g id="a_edge19_Node000010_Node000004"><a xlink:title=" ">
<path fill="none" stroke="#63b8ff" d="M348.89,-170.19C270.8,-159.05 70.97,-125.96 32.2,-74.5 19.6,-57.77 38.55,-38.74 56.42,-25.83"/>
<polygon fill="#63b8ff" stroke="#63b8ff" points="58.18,-28.19 64.5,-19.68 54.26,-22.39 58.18,-28.19"/>
</a>
</g>
</g>
<!-- Node10&#45;&gt;Node6 -->
<g id="edge18_Node000010_Node000006" class="edge">
<title>Node10&#45;&gt;Node6</title>
<g id="a_edge18_Node000010_Node000006"><a xlink:title=" ">
<path fill="none" stroke="#63b8ff" d="M355.3,-165.32C307.5,-146.62 210.91,-101.57 249.2,-55.25 274.3,-24.89 391.94,-14.99 449.84,-11.92"/>
<polygon fill="#63b8ff" stroke="#63b8ff" points="449.76,-15.38 459.58,-11.39 449.42,-8.39 449.76,-15.38"/>
</a>
</g>
</g>
<!-- Node11 -->
<g id="Node000011" class="node">
<title>Node11</title>
<g id="a_Node000011"><a xlink:href="../../d2/d68/sortrows_8cpp.html" target="_top" xlink:title=" ">
<polygon fill="white" stroke="#666666" points="416.33,-129.75 344.08,-129.75 344.08,-110.5 416.33,-110.5 416.33,-129.75"/>
<text text-anchor="middle" x="380.2" y="-116.25" font-family="Helvetica,sans-Serif" font-size="10.00">sortrows.cpp</text>
</a>
</g>
</g>
<!-- Node10&#45;&gt;Node11 -->
<g id="edge20_Node000010_Node000011" class="edge">
<title>Node10&#45;&gt;Node11</title>
<g id="a_edge20_Node000010_Node000011"><a xlink:title=" ">
<path fill="none" stroke="#63b8ff" d="M375.04,-165.58C373.59,-158.84 373.14,-149.27 373.66,-140.74"/>
<polygon fill="#63b8ff" stroke="#63b8ff" points="377.23,-141.47 375,-131.11 370.28,-140.6 377.23,-141.47"/>
</a>
</g>
</g>
<!-- Node11&#45;&gt;Node6 -->
<g id="edge34_Node000011_Node000006" class="edge">
<title>Node11&#45;&gt;Node6</title>
<g id="a_edge34_Node000011_Node000006"><a xlink:title=" ">
<path fill="none" stroke="#63b8ff" d="M381.72,-110.32C384.41,-97.04 391.09,-71.7 405.2,-55.25 417.34,-41.11 435.12,-30.39 450.55,-23.01"/>
<polygon fill="#63b8ff" stroke="#63b8ff" points="451.58,-25.93 459.26,-18.63 448.7,-19.55 451.58,-25.93"/>
</a>
</g>
</g>
<!-- Node11&#45;&gt;Node10 -->
<g id="edge21_Node000011_Node000010" class="edge">
<title>Node11&#45;&gt;Node10</title>
<g id="a_edge21_Node000011_Node000010"><a xlink:title=" ">
<path fill="none" stroke="#63b8ff" d="M385.41,-130.11C386.82,-136.83 387.26,-146.27 386.74,-154.71"/>
<polygon fill="#63b8ff" stroke="#63b8ff" points="383.15,-154.22 385.37,-164.58 390.1,-155.1 383.15,-154.22"/>
</a>
</g>
</g>
<!-- Node12 -->
<g id="Node000012" class="node">
<title>Node12</title>
<g id="a_Node000012"><a xlink:href="../../da/dee/get__seconds_8h.html" target="_top" xlink:title=" ">
<polygon fill="#fff0f0" stroke="red" points="763.08,-74.5 683.33,-74.5 683.33,-55.25 763.08,-55.25 763.08,-74.5"/>
<text text-anchor="middle" x="723.2" y="-61" font-family="Helvetica,sans-Serif" font-size="10.00">get_seconds.h</text>
</a>
</g>
</g>
<!-- Node11&#45;&gt;Node12 -->
<g id="edge22_Node000011_Node000012" class="edge">
<title>Node11&#45;&gt;Node12</title>
<g id="a_edge22_Node000011_Node000012"><a xlink:title=" ">
<path fill="none" stroke="#63b8ff" d="M416.78,-112.71C421.3,-111.95 425.85,-111.19 430.2,-110.5 535.49,-93.69 564.77,-92.31 672.24,-74.95"/>
<polygon fill="#63b8ff" stroke="#63b8ff" points="672.58,-78.27 681.89,-73.22 671.45,-71.37 672.58,-78.27"/>
</a>
</g>
</g>
<!-- Node15 -->
<g id="Node000015" class="node">
<title>Node15</title>
<g id="a_Node000015"><a xlink:href="../../d4/dc3/_sortable_row_8h.html" target="_top" xlink:title=" ">
<polygon fill="white" stroke="#666666" points="120.7,-74.5 41.7,-74.5 41.7,-55.25 120.7,-55.25 120.7,-74.5"/>
<text text-anchor="middle" x="81.2" y="-61" font-family="Helvetica,sans-Serif" font-size="10.00">SortableRow.h</text>
</a>
</g>
</g>
<!-- Node11&#45;&gt;Node15 -->
<g id="edge24_Node000011_Node000015" class="edge">
<title>Node11&#45;&gt;Node15</title>
<g id="a_edge24_Node000011_Node000015"><a xlink:title=" ">
<path fill="none" stroke="#63b8ff" d="M343.62,-112.64C296.75,-104.33 212.71,-89.42 131.42,-74.89"/>
<polygon fill="#63b8ff" stroke="#63b8ff" points="132.47,-71.35 122.01,-73.03 131.24,-78.24 132.47,-71.35"/>
</a>
</g>
</g>
<!-- Node16 -->
<g id="Node000016" class="node">
<title>Node16</title>
<g id="a_Node000016"><a xlink:href="../../d7/d50/sort_8h.html" target="_top" xlink:title=" ">
<polygon fill="#fff0f0" stroke="red" points="454.58,-74.5 413.83,-74.5 413.83,-55.25 454.58,-55.25 454.58,-74.5"/>
<text text-anchor="middle" x="434.2" y="-61" font-family="Helvetica,sans-Serif" font-size="10.00">sort.h</text>
</a>
</g>
</g>
<!-- Node11&#45;&gt;Node16 -->
<g id="edge26_Node000011_Node000016" class="edge">
<title>Node11&#45;&gt;Node16</title>
<g id="a_edge26_Node000011_Node000016"><a xlink:title=" ">
<path fill="none" stroke="#63b8ff" d="M389.12,-110.33C396.81,-102.75 408.13,-91.59 417.5,-82.35"/>
<polygon fill="#63b8ff" stroke="#63b8ff" points="419.43,-85.37 424.09,-75.86 414.51,-80.39 419.43,-85.37"/>
</a>
</g>
</g>
<!-- Node24 -->
<g id="Node000024" class="node">
<title>Node24</title>
<g id="a_Node000024"><a xlink:href="../../d2/db7/colon_8h.html" target="_top" xlink:title=" ">
<polygon fill="#fff0f0" stroke="red" points="1106.95,-74.5 1059.45,-74.5 1059.45,-55.25 1106.95,-55.25 1106.95,-74.5"/>
<text text-anchor="middle" x="1083.2" y="-61" font-family="Helvetica,sans-Serif" font-size="10.00">colon.h</text>
</a>
</g>
</g>
<!-- Node11&#45;&gt;Node24 -->
<g id="edge30_Node000011_Node000024" class="edge">
<title>Node11&#45;&gt;Node24</title>
<g id="a_edge30_Node000011_Node000024"><a xlink:title=" ">
<path fill="none" stroke="#63b8ff" d="M416.59,-117.2C513.54,-111.93 786.1,-96.2 1012.2,-74.5 1024.1,-73.36 1037.08,-71.86 1048.66,-70.43"/>
<polygon fill="#63b8ff" stroke="#63b8ff" points="1048.76,-73.81 1058.24,-69.09 1047.88,-66.87 1048.76,-73.81"/>
</a>
</g>
</g>
<!-- Node22 -->
<g id="Node000022" class="node">
<title>Node22</title>
<g id="a_Node000022"><a xlink:href="../../da/de5/_index_comparison_8h.html" target="_top" xlink:title=" ">
<polygon fill="#fff0f0" stroke="red" points="358.58,-74.5 257.83,-74.5 257.83,-55.25 358.58,-55.25 358.58,-74.5"/>
<text text-anchor="middle" x="308.2" y="-61" font-family="Helvetica,sans-Serif" font-size="10.00">IndexComparison.h</text>
</a>
</g>
</g>
<!-- Node11&#45;&gt;Node22 -->
<g id="edge33_Node000011_Node000022" class="edge">
<title>Node11&#45;&gt;Node22</title>
<g id="a_edge33_Node000011_Node000022"><a xlink:title=" ">
<path fill="none" stroke="#63b8ff" d="M367.99,-110.09C357.27,-102.16 341.46,-90.47 328.79,-81.1"/>
<polygon fill="#63b8ff" stroke="#63b8ff" points="331.36,-77.91 321.24,-74.77 327.19,-83.54 331.36,-77.91"/>
</a>
</g>
</g>
<!-- Node12&#45;&gt;Node3 -->
<g id="edge23_Node000012_Node000003" class="edge">
<title>Node12&#45;&gt;Node3</title>
<g id="a_edge23_Node000012_Node000003"><a xlink:title=" ">
<path fill="none" stroke="#63b8ff" d="M744.41,-54.84C764.34,-46.35 794.42,-33.54 817.07,-23.89"/>
<polygon fill="#63b8ff" stroke="#63b8ff" points="818.07,-26.84 825.89,-19.7 815.32,-20.4 818.07,-26.84"/>
</a>
</g>
</g>
<!-- Node15&#45;&gt;Node4 -->
<g id="edge25_Node000015_Node000004" class="edge">
<title>Node15&#45;&gt;Node4</title>
<g id="a_edge25_Node000015_Node000004"><a xlink:title=" ">
<path fill="none" stroke="#63b8ff" d="M81.2,-55.08C81.2,-48.42 81.2,-38.99 81.2,-30.53"/>
<polygon fill="#63b8ff" stroke="#63b8ff" points="84.7,-30.61 81.2,-20.61 77.7,-30.61 84.7,-30.61"/>
</a>
</g>
</g>
<!-- Node16&#45;&gt;Node3 -->
<g id="edge27_Node000016_Node000003" class="edge">
<title>Node16&#45;&gt;Node3</title>
<g id="a_edge27_Node000016_Node000003"><a xlink:title=" ">
<path fill="none" stroke="#63b8ff" d="M455.02,-61.2C519.81,-52.86 718.82,-27.27 806.26,-16.02"/>
<polygon fill="#63b8ff" stroke="#63b8ff" points="806.62,-19.37 816.09,-14.63 805.72,-12.43 806.62,-19.37"/>
</a>
</g>
</g>
<!-- Node16&#45;&gt;Node4 -->
<g id="edge29_Node000016_Node000004" class="edge">
<title>Node16&#45;&gt;Node4</title>
<g id="a_edge29_Node000016_Node000004"><a xlink:title=" ">
<path fill="none" stroke="#63b8ff" d="M413.65,-61.07C356.77,-53.27 197.25,-31.26 124.52,-19.18"/>
<polygon fill="#63b8ff" stroke="#63b8ff" points="125.48,-15.62 115.04,-17.4 124.31,-22.53 125.48,-15.62"/>
</a>
</g>
</g>
<!-- Node16&#45;&gt;Node6 -->
<g id="edge28_Node000016_Node000006" class="edge">
<title>Node16&#45;&gt;Node6</title>
<g id="a_edge28_Node000016_Node000006"><a xlink:title=" ">
<path fill="none" stroke="#63b8ff" d="M442.13,-55.08C448.83,-47.65 458.62,-36.79 466.85,-27.66"/>
<polygon fill="#63b8ff" stroke="#63b8ff" points="469.01,-30.38 473.1,-20.61 463.81,-25.69 469.01,-30.38"/>
</a>
</g>
</g>
<!-- Node24&#45;&gt;Node3 -->
<g id="edge31_Node000024_Node000003" class="edge">
<title>Node24&#45;&gt;Node3</title>
<g id="a_edge31_Node000024_Node000003"><a xlink:title=" ">
<path fill="none" stroke="#63b8ff" d="M1059.08,-58.4C1054.47,-57.35 1049.69,-56.27 1045.2,-55.25 991.59,-43.09 929.77,-29.09 889.89,-20.06"/>
<polygon fill="#63b8ff" stroke="#63b8ff" points="890.78,-16.45 880.25,-17.65 889.23,-23.28 890.78,-16.45"/>
</a>
</g>
</g>
<!-- Node25 -->
<g id="Node000025" class="node">
<title>Node25</title>
<g id="a_Node000025"><a xlink:title=" ">
<polygon fill="#e0e0e0" stroke="#999999" points="1250.33,-19.25 1178.08,-19.25 1178.08,0 1250.33,0 1250.33,-19.25"/>
<text text-anchor="middle" x="1214.2" y="-5.75" font-family="Helvetica,sans-Serif" font-size="10.00">Eigen/Dense</text>
</a>
</g>
</g>
<!-- Node24&#45;&gt;Node25 -->
<g id="edge32_Node000024_Node000025" class="edge">
<title>Node24&#45;&gt;Node25</title>
<g id="a_edge32_Node000024_Node000025"><a xlink:title=" ">
<path fill="none" stroke="#63b8ff" d="M1105.42,-54.84C1126.41,-46.31 1158.12,-33.42 1181.9,-23.76"/>
<polygon fill="#63b8ff" stroke="#63b8ff" points="1182.93,-26.71 1190.87,-19.7 1180.29,-20.23 1182.93,-26.71"/>
</a>
</g>
</g>
<!-- Node36&#45;&gt;Node3 -->
<g id="edge38_Node000036_Node000003" class="edge">
<title>Node36&#45;&gt;Node3</title>
<g id="a_edge38_Node000036_Node000003"><a xlink:title=" ">
<path fill="none" stroke="#63b8ff" d="M884.73,-276.04C882.99,-245.33 876.18,-140.38 860.2,-55.25 858.63,-46.87 856.3,-37.76 854.1,-29.97"/>
<polygon fill="#63b8ff" stroke="#63b8ff" points="857.18,-29.03 851,-20.42 850.46,-31 857.18,-29.03"/>
</a>
</g>
</g>
<!-- Node36&#45;&gt;Node6 -->
<g id="edge40_Node000036_Node000006" class="edge">
<title>Node36&#45;&gt;Node6</title>
<g id="a_edge40_Node000036_Node000006"><a xlink:title=" ">
<path fill="none" stroke="#63b8ff" d="M871.79,-275.75C812.98,-235.72 577.46,-75.45 504.12,-25.54"/>
<polygon fill="#63b8ff" stroke="#63b8ff" points="506.49,-22.24 496.25,-19.51 502.55,-28.03 506.49,-22.24"/>
</a>
</g>
</g>
<!-- Node36&#45;&gt;Node25 -->
<g id="edge39_Node000036_Node000025" class="edge">
<title>Node36&#45;&gt;Node25</title>
<g id="a_edge39_Node000036_Node000025"><a xlink:title=" ">
<path fill="none" stroke="#63b8ff" d="M937.16,-277.03C1013.74,-265.38 1149.02,-244.43 1159.2,-240.25 1204.58,-221.63 1249.2,-225.43 1249.2,-176.38 1249.2,-176.38 1249.2,-176.38 1249.2,-119.12 1249.2,-86.26 1234.48,-50.38 1224.13,-29.22"/>
<polygon fill="#63b8ff" stroke="#63b8ff" points="1226.88,-27.91 1219.22,-20.6 1220.64,-31.09 1226.88,-27.91"/>
</a>
</g>
</g>
<!-- Node37 -->
<g id="Node000037" class="node">
<title>Node37</title>
<g id="a_Node000037"><a xlink:href="../../de/dcd/unique__edge__map_8cpp.html" target="_top" xlink:title=" ">
<polygon fill="white" stroke="#666666" points="1149.95,-240.25 1036.45,-240.25 1036.45,-221 1149.95,-221 1149.95,-240.25"/>
<text text-anchor="middle" x="1093.2" y="-226.75" font-family="Helvetica,sans-Serif" font-size="10.00">unique_edge_map.cpp</text>
</a>
</g>
</g>
<!-- Node36&#45;&gt;Node37 -->
<g id="edge41_Node000036_Node000037" class="edge">
<title>Node36&#45;&gt;Node37</title>
<g id="a_edge41_Node000036_Node000037"><a xlink:title=" ">
<path fill="none" stroke="#63b8ff" d="M915.27,-275.84C948.44,-266.87 1002.15,-253.08 1041.95,-243.29"/>
<polygon fill="#63b8ff" stroke="#63b8ff" points="1042.64,-246.48 1051.52,-240.7 1040.97,-239.68 1042.64,-246.48"/>
</a>
</g>
</g>
<!-- Node37&#45;&gt;Node36 -->
<g id="edge42_Node000037_Node000036" class="edge">
<title>Node37&#45;&gt;Node36</title>
<g id="a_edge42_Node000037_Node000036"><a xlink:title=" ">
<path fill="none" stroke="#63b8ff" d="M1062.97,-240.7C1029.74,-249.69 976.02,-263.48 936.26,-273.26"/>
<polygon fill="#63b8ff" stroke="#63b8ff" points="935.59,-270.07 926.7,-275.84 937.25,-276.87 935.59,-270.07"/>
</a>
</g>
</g>
<!-- Node38 -->
<g id="Node000038" class="node">
<title>Node38</title>
<g id="a_Node000038"><a xlink:href="../../d7/dec/oriented__facets_8h.html" target="_top" xlink:title=" ">
<polygon fill="white" stroke="#666666" points="1368.7,-74.5 1277.7,-74.5 1277.7,-55.25 1368.7,-55.25 1368.7,-74.5"/>
<text text-anchor="middle" x="1323.2" y="-61" font-family="Helvetica,sans-Serif" font-size="10.00">oriented_facets.h</text>
</a>
</g>
</g>
<!-- Node37&#45;&gt;Node38 -->
<g id="edge43_Node000037_Node000038" class="edge">
<title>Node37&#45;&gt;Node38</title>
<g id="a_edge43_Node000037_Node000038"><a xlink:title=" ">
<path fill="none" stroke="#63b8ff" d="M1116.95,-220.5C1136.55,-212.47 1164.71,-199.78 1187.2,-185 1234.6,-153.86 1282.85,-107.33 1307.13,-82.65"/>
<polygon fill="#63b8ff" stroke="#63b8ff" points="1309.21,-85.5 1313.67,-75.89 1304.19,-80.62 1309.21,-85.5"/>
</a>
</g>
</g>
<!-- Node40 -->
<g id="Node000040" class="node">
<title>Node40</title>
<g id="a_Node000040"><a xlink:href="../../d7/d86/unique__simplices_8h.html" target="_top" xlink:title=" ">
<polygon fill="white" stroke="#666666" points="1100.83,-185 1001.58,-185 1001.58,-165.75 1100.83,-165.75 1100.83,-185"/>
<text text-anchor="middle" x="1051.2" y="-171.5" font-family="Helvetica,sans-Serif" font-size="10.00">unique_simplices.h</text>
</a>
</g>
</g>
<!-- Node37&#45;&gt;Node40 -->
<g id="edge48_Node000037_Node000040" class="edge">
<title>Node37&#45;&gt;Node40</title>
<g id="a_edge48_Node000037_Node000040"><a xlink:title=" ">
<path fill="none" stroke="#63b8ff" d="M1086.27,-220.83C1080.53,-213.55 1072.19,-202.98 1065.09,-193.98"/>
<polygon fill="#63b8ff" stroke="#63b8ff" points="1067.23,-192.04 1058.29,-186.36 1061.73,-196.38 1067.23,-192.04"/>
</a>
</g>
</g>
<!-- Node32 -->
<g id="Node000032" class="node">
<title>Node32</title>
<g id="a_Node000032"><a xlink:title=" ">
<polygon fill="#e0e0e0" stroke="#999999" points="1015.33,-19.25 967.08,-19.25 967.08,0 1015.33,0 1015.33,-19.25"/>
<text text-anchor="middle" x="991.2" y="-5.75" font-family="Helvetica,sans-Serif" font-size="10.00">cassert</text>
</a>
</g>
</g>
<!-- Node37&#45;&gt;Node32 -->
<g id="edge63_Node000037_Node000032" class="edge">
<title>Node37&#45;&gt;Node32</title>
<g id="a_edge63_Node000037_Node000032"><a xlink:title=" ">
<path fill="none" stroke="#63b8ff" d="M1098.31,-220.63C1113.25,-193.02 1153.5,-108.16 1116.2,-55.25 1105.59,-40.19 1059.45,-26.53 1026.32,-18.4"/>
<polygon fill="#63b8ff" stroke="#63b8ff" points="1027.19,-14.77 1016.65,-15.86 1025.57,-21.58 1027.19,-14.77"/>
</a>
</g>
</g>
<!-- Node34 -->
<g id="Node000034" class="node">
<title>Node34</title>
<g id="a_Node000034"><a xlink:title=" ">
<polygon fill="#e0e0e0" stroke="#999999" points="1115.08,-19.25 1059.33,-19.25 1059.33,0 1115.08,0 1115.08,-19.25"/>
<text text-anchor="middle" x="1087.2" y="-5.75" font-family="Helvetica,sans-Serif" font-size="10.00">algorithm</text>
</a>
</g>
</g>
<!-- Node37&#45;&gt;Node34 -->
<g id="edge64_Node000037_Node000034" class="edge">
<title>Node37&#45;&gt;Node34</title>
<g id="a_edge64_Node000037_Node000034"><a xlink:title=" ">
<path fill="none" stroke="#63b8ff" d="M1111.79,-220.58C1124.92,-213.06 1141.49,-201.02 1149.2,-185 1174.23,-133.05 1175.5,-106.57 1149.2,-55.25 1142.52,-42.21 1130.06,-32.12 1118.05,-24.85"/>
<polygon fill="#63b8ff" stroke="#63b8ff" points="1120.08,-21.42 1109.64,-19.63 1116.69,-27.54 1120.08,-21.42"/>
</a>
</g>
</g>
<!-- Node38&#45;&gt;Node3 -->
<g id="edge44_Node000038_Node000003" class="edge">
<title>Node38&#45;&gt;Node3</title>
<g id="a_edge44_Node000038_Node000003"><a xlink:title=" ">
<path fill="none" stroke="#63b8ff" d="M1277.23,-58.72C1185.01,-48.38 978.74,-25.26 890.05,-15.32"/>
<polygon fill="#63b8ff" stroke="#63b8ff" points="890.66,-11.75 880.33,-14.12 889.88,-18.71 890.66,-11.75"/>
</a>
</g>
</g>
<!-- Node38&#45;&gt;Node25 -->
<g id="edge45_Node000038_Node000025" class="edge">
<title>Node38&#45;&gt;Node25</title>
<g id="a_edge45_Node000038_Node000025"><a xlink:title=" ">
<path fill="none" stroke="#63b8ff" d="M1304.71,-54.84C1287.64,-46.5 1262.05,-34 1242.42,-24.41"/>
<polygon fill="#63b8ff" stroke="#63b8ff" points="1244.3,-20.95 1233.78,-19.7 1241.23,-27.24 1244.3,-20.95"/>
</a>
</g>
</g>
<!-- Node39 -->
<g id="Node000039" class="node">
<title>Node39</title>
<g id="a_Node000039"><a xlink:href="../../da/d48/oriented__facets_8cpp.html" target="_top" xlink:title=" ">
<polygon fill="white" stroke="#666666" points="1373.95,-19.25 1272.45,-19.25 1272.45,0 1373.95,0 1373.95,-19.25"/>
<text text-anchor="middle" x="1323.2" y="-5.75" font-family="Helvetica,sans-Serif" font-size="10.00">oriented_facets.cpp</text>
</a>
</g>
</g>
<!-- Node38&#45;&gt;Node39 -->
<g id="edge46_Node000038_Node000039" class="edge">
<title>Node38&#45;&gt;Node39</title>
<g id="a_edge46_Node000038_Node000039"><a xlink:title=" ">
<path fill="none" stroke="#63b8ff" d="M1318.04,-55.08C1316.59,-48.34 1316.14,-38.77 1316.66,-30.24"/>
<polygon fill="#63b8ff" stroke="#63b8ff" points="1320.23,-30.97 1318,-20.61 1313.28,-30.1 1320.23,-30.97"/>
</a>
</g>
</g>
<!-- Node39&#45;&gt;Node38 -->
<g id="edge47_Node000039_Node000038" class="edge">
<title>Node39&#45;&gt;Node38</title>
<g id="a_edge47_Node000039_Node000038"><a xlink:title=" ">
<path fill="none" stroke="#63b8ff" d="M1328.41,-19.61C1329.82,-26.33 1330.26,-35.77 1329.74,-44.21"/>
<polygon fill="#63b8ff" stroke="#63b8ff" points="1326.15,-43.72 1328.37,-54.08 1333.1,-44.6 1326.15,-43.72"/>
</a>
</g>
</g>
<!-- Node40&#45;&gt;Node3 -->
<g id="edge49_Node000040_Node000003" class="edge">
<title>Node40&#45;&gt;Node3</title>
<g id="a_edge49_Node000040_Node000003"><a xlink:title=" ">
<path fill="none" stroke="#63b8ff" d="M1051.07,-165.35C1050.23,-143.12 1044.85,-85.33 1012.2,-55.25 978.97,-24.62 926.8,-14.67 890.25,-11.62"/>
<polygon fill="#63b8ff" stroke="#63b8ff" points="890.66,-8.07 880.45,-10.87 890.18,-15.05 890.66,-8.07"/>
</a>
</g>
</g>
<!-- Node40&#45;&gt;Node25 -->
<g id="edge50_Node000040_Node000025" class="edge">
<title>Node40&#45;&gt;Node25</title>
<g id="a_edge50_Node000040_Node000025"><a xlink:title=" ">
<path fill="none" stroke="#63b8ff" d="M1059.97,-165.57C1086.06,-139.36 1163.53,-61.53 1197.7,-27.2"/>
<polygon fill="#63b8ff" stroke="#63b8ff" points="1199.82,-30.03 1204.4,-20.47 1194.86,-25.09 1199.82,-30.03"/>
</a>
</g>
</g>
<!-- Node41 -->
<g id="Node000041" class="node">
<title>Node41</title>
<g id="a_Node000041"><a xlink:href="../../db/d0c/unique__simplices_8cpp.html" target="_top" xlink:title=" ">
<polygon fill="white" stroke="#666666" points="1023.08,-129.75 913.33,-129.75 913.33,-110.5 1023.08,-110.5 1023.08,-129.75"/>
<text text-anchor="middle" x="968.2" y="-116.25" font-family="Helvetica,sans-Serif" font-size="10.00">unique_simplices.cpp</text>
</a>
</g>
</g>
<!-- Node40&#45;&gt;Node41 -->
<g id="edge51_Node000040_Node000041" class="edge">
<title>Node40&#45;&gt;Node41</title>
<g id="a_edge51_Node000040_Node000041"><a xlink:title=" ">
<path fill="none" stroke="#63b8ff" d="M1031.91,-165.34C1017.9,-157.41 999.35,-145.72 985.77,-136.35"/>
<polygon fill="#63b8ff" stroke="#63b8ff" points="988.06,-132.98 977.89,-130.02 984,-138.68 988.06,-132.98"/>
</a>
</g>
</g>
<!-- Node41&#45;&gt;Node16 -->
<g id="edge53_Node000041_Node000016" class="edge">
<title>Node41&#45;&gt;Node16</title>
<g id="a_edge53_Node000041_Node000016"><a xlink:title=" ">
<path fill="none" stroke="#63b8ff" d="M913.07,-113.63C801.87,-102.54 553.87,-77.81 465.9,-69.04"/>
<polygon fill="#63b8ff" stroke="#63b8ff" points="466.34,-65.46 456.04,-67.95 465.65,-72.43 466.34,-65.46"/>
</a>
</g>
</g>
<!-- Node41&#45;&gt;Node40 -->
<g id="edge52_Node000041_Node000040" class="edge">
<title>Node41&#45;&gt;Node40</title>
<g id="a_edge52_Node000041_Node000040"><a xlink:title=" ">
<path fill="none" stroke="#63b8ff" d="M987.58,-130.2C1001.52,-138.1 1019.92,-149.7 1033.47,-159.03"/>
<polygon fill="#63b8ff" stroke="#63b8ff" points="1031.16,-162.4 1041.34,-165.34 1035.22,-156.69 1031.16,-162.4"/>
</a>
</g>
</g>
<!-- Node42 -->
<g id="Node000042" class="node">
<title>Node42</title>
<g id="a_Node000042"><a xlink:href="../../da/d6e/unique__rows_8h.html" target="_top" xlink:title=" ">
<polygon fill="#fff0f0" stroke="red" points="665.7,-74.5 586.7,-74.5 586.7,-55.25 665.7,-55.25 665.7,-74.5"/>
<text text-anchor="middle" x="626.2" y="-61" font-family="Helvetica,sans-Serif" font-size="10.00">unique_rows.h</text>
</a>
</g>
</g>
<!-- Node41&#45;&gt;Node42 -->
<g id="edge54_Node000041_Node000042" class="edge">
<title>Node41&#45;&gt;Node42</title>
<g id="a_edge54_Node000041_Node000042"><a xlink:title=" ">
<path fill="none" stroke="#63b8ff" d="M912.86,-111.18C856.02,-102.92 764.7,-89.37 676.71,-74.88"/>
<polygon fill="#63b8ff" stroke="#63b8ff" points="677.44,-71.29 667,-73.11 676.3,-78.2 677.44,-71.29"/>
</a>
</g>
</g>
<!-- Node29 -->
<g id="Node000029" class="node">
<title>Node29</title>
<g id="a_Node000029"><a xlink:href="../../da/d1e/parallel__for_8h.html" target="_top" xlink:title=" ">
<polygon fill="#fff0f0" stroke="red" points="1003.58,-74.5 932.83,-74.5 932.83,-55.25 1003.58,-55.25 1003.58,-74.5"/>
<text text-anchor="middle" x="968.2" y="-61" font-family="Helvetica,sans-Serif" font-size="10.00">parallel_for.h</text>
</a>
</g>
</g>
<!-- Node41&#45;&gt;Node29 -->
<g id="edge58_Node000041_Node000029" class="edge">
<title>Node41&#45;&gt;Node29</title>
<g id="a_edge58_Node000041_Node000029"><a xlink:title=" ">
<path fill="none" stroke="#63b8ff" d="M968.2,-110.33C968.2,-103.67 968.2,-94.24 968.2,-85.78"/>
<polygon fill="#63b8ff" stroke="#63b8ff" points="971.7,-85.86 968.2,-75.86 964.7,-85.86 971.7,-85.86"/>
</a>
</g>
</g>
<!-- Node42&#45;&gt;Node3 -->
<g id="edge55_Node000042_Node000003" class="edge">
<title>Node42&#45;&gt;Node3</title>
<g id="a_edge55_Node000042_Node000003"><a xlink:title=" ">
<path fill="none" stroke="#63b8ff" d="M664.11,-54.78C703.67,-45.29 765.53,-30.45 806.46,-20.64"/>
<polygon fill="#63b8ff" stroke="#63b8ff" points="807,-23.87 815.9,-18.13 805.36,-17.06 807,-23.87"/>
</a>
</g>
</g>
<!-- Node42&#45;&gt;Node4 -->
<g id="edge57_Node000042_Node000004" class="edge">
<title>Node42&#45;&gt;Node4</title>
<g id="a_edge57_Node000042_Node000004"><a xlink:title=" ">
<path fill="none" stroke="#63b8ff" d="M586.33,-61.82C502.82,-57.18 303.23,-44.44 124.65,-19.12"/>
<polygon fill="#63b8ff" stroke="#63b8ff" points="125.4,-15.55 115.01,-17.59 124.41,-22.47 125.4,-15.55"/>
</a>
</g>
</g>
<!-- Node42&#45;&gt;Node6 -->
<g id="edge56_Node000042_Node000006" class="edge">
<title>Node42&#45;&gt;Node6</title>
<g id="a_edge56_Node000042_Node000006"><a xlink:title=" ">
<path fill="none" stroke="#63b8ff" d="M601.77,-54.84C577.66,-45.92 540.64,-32.24 514.19,-22.45"/>
<polygon fill="#63b8ff" stroke="#63b8ff" points="515.51,-18.84 504.92,-18.66 513.08,-25.41 515.51,-18.84"/>
</a>
</g>
</g>
<!-- Node29&#45;&gt;Node3 -->
<g id="edge59_Node000029_Node000003" class="edge">
<title>Node29&#45;&gt;Node3</title>
<g id="a_edge59_Node000029_Node000003"><a xlink:title=" ">
<path fill="none" stroke="#63b8ff" d="M947.85,-54.84C928.88,-46.43 900.36,-33.77 878.68,-24.15"/>
<polygon fill="#63b8ff" stroke="#63b8ff" points="880.22,-20.56 869.66,-19.7 877.38,-26.96 880.22,-20.56"/>
</a>
</g>
</g>
<!-- Node29&#45;&gt;Node6 -->
<g id="edge61_Node000029_Node000006" class="edge">
<title>Node29&#45;&gt;Node6</title>
<g id="a_edge61_Node000029_Node000006"><a xlink:title=" ">
<path fill="none" stroke="#63b8ff" d="M932.47,-59.96C841.52,-49.99 602.33,-23.79 514.85,-14.2"/>
<polygon fill="#63b8ff" stroke="#63b8ff" points="515.33,-10.62 505.01,-13.01 514.57,-17.58 515.33,-10.62"/>
</a>
</g>
</g>
<!-- Node29&#45;&gt;Node32 -->
<g id="edge60_Node000029_Node000032" class="edge">
<title>Node29&#45;&gt;Node32</title>
<g id="a_edge60_Node000029_Node000032"><a xlink:title=" ">
<path fill="none" stroke="#63b8ff" d="M972,-55.08C974.98,-48.19 979.23,-38.34 982.98,-29.66"/>
<polygon fill="#63b8ff" stroke="#63b8ff" points="986.57,-31.18 987.32,-20.61 980.14,-28.4 986.57,-31.18"/>
</a>
</g>
</g>
<!-- Node29&#45;&gt;Node34 -->
<g id="edge62_Node000029_Node000034" class="edge">
<title>Node29&#45;&gt;Node34</title>
<g id="a_edge62_Node000029_Node000034"><a xlink:title=" ">
<path fill="none" stroke="#63b8ff" d="M988.39,-54.84C1007.19,-46.43 1035.48,-33.77 1056.98,-24.15"/>
<polygon fill="#63b8ff" stroke="#63b8ff" points="1058.22,-26.98 1065.92,-19.7 1055.36,-20.59 1058.22,-26.98"/>
</a>
</g>
</g>
</g>
</svg>

<g id="navigator" transform="translate(0 0)" fill="#404254">
  <rect fill="#f2f5e9" fill-opacity="0.5" stroke="#606060" stroke-width=".5" x="0" y="0" width="60" height="60"/>
  <use id="zoomplus" xlink:href="#zoomPlus" x="17" y="9" onmousedown="handleZoom(evt,'in')"/>
  <use id="zoomminus" xlink:href="#zoomMin" x="42" y="9" onmousedown="handleZoom(evt,'out')"/>
  <use id="reset" xlink:href="#resetDef" x="30" y="36" onmousedown="handleReset()"/>
   <use id="arrowup" xlink:href="#arrowUp" x="0" y="0" onmousedown="handlePan(0,-1)"/>
  <use id="arrowright" xlink:href="#arrowRight" x="0" y="0" onmousedown="handlePan(1,0)"/>
  <use id="arrowdown" xlink:href="#arrowDown" x="0" y="0" onmousedown="handlePan(0,1)"/>
  <use id="arrowleft" xlink:href="#arrowLeft" x="0" y="0" onmousedown="handlePan(-1,0)"/>
</g>
<svg viewBox="0 0 15 15" width="100%" height="30px" preserveAspectRatio="xMaxYMin meet">
 <g id="arrow_out" transform="scale(0.3 0.3)">
  <a xlink:href="delaunay__triangulation_8cpp__incl_org.svg" target="_base">
   <rect id="button" ry="5" rx="5" y="6" x="6" height="38" width="38"
        fill="#f2f5e9" fill-opacity="0.5" stroke="#606060" stroke-width="1.0"/>
   <path id="arrow"
     d="M 11.500037,31.436501 C 11.940474,20.09759 22.043105,11.32322 32.158766,21.979434 L 37.068811,17.246167 C 37.068811,17.246167 37.088388,32 37.088388,32 L 22.160133,31.978069 C 22.160133,31.978069 26.997745,27.140456 26.997745,27.140456 C 18.528582,18.264221 13.291696,25.230495 11.500037,31.436501 z"
     style="fill:#404040;"/>
  </a>
 </g>
</svg>

<style type='text/css'>
<![CDATA[
[data-mouse-over-selected='false'] { opacity: 0.7; }
[data-mouse-over-selected='true']  { opacity: 1.0; }
]]>
</style>
<script type="application/ecmascript"><![CDATA[
document.addEventListener('DOMContentLoaded', (event) => {
  highlightEdges();
  highlightAdjacentNodes();
});
]]></script>
</svg>
