<?xml version="1.0" encoding="UTF-8" standalone="no"?>
<!DOCTYPE svg PUBLIC "-//W3C//DTD SVG 1.1//EN"
 "http://www.w3.org/Graphics/SVG/1.1/DTD/svg11.dtd">
<!-- Generated by graphviz version 8.0.5 (20230430.1635)
 -->
<!-- Title: Slic3r::TriangleMesh::TriangleMesh Pages: 1 -->
<!--zoomable 283 -->

<svg id="main" version="1.1" xmlns="http://www.w3.org/2000/svg" xmlns:xlink="http://www.w3.org/1999/xlink" xml:space="preserve" onload="init(evt)">
<style type="text/css"><![CDATA[
.node, .edge {opacity: 0.7;}
.node.selected, .edge.selected {opacity: 1;}
.edge:hover path { stroke: red; }
.edge:hover polygon { stroke: red; fill: red; }
]]></style>

<defs>
  <circle id="rim" cx="0" cy="0" r="7"/>
  <circle id="rim2" cx="0" cy="0" r="3.5"/>
  <g id="zoomPlus">
    <use xlink:href="#rim" fill="#404040"><set attributeName="fill" to="#808080" begin="zoomplus.mouseover" end="zoomplus.mouseout"/></use>
    <path d="M-4,0h8M0,-4v8" fill="none" stroke="white" stroke-width="1.5" pointer-events="none"/>
  </g>
  <g id="zoomMin">
    <use xlink:href="#rim" fill="#404040"><set attributeName="fill" to="#808080" begin="zoomminus.mouseover" end="zoomminus.mouseout"/></use>
    <path d="M-4,0h8" fill="none" stroke="white" stroke-width="1.5" pointer-events="none"/>
  </g>
  <g id="arrowUp" transform="translate(30 24)">
    <use xlink:href="#rim"/>
    <path pointer-events="none" fill="none" stroke="white" stroke-width="1.5" d="M0,-3.0v7 M-2.5,-0.5L0,-3.0L2.5,-0.5"/>
  </g>
  <g id="arrowRight" transform="rotate(90) translate(36 -43)">
    <use xlink:href="#rim"/>
    <path pointer-events="none" fill="none" stroke="white" stroke-width="1.5" d="M0,-3.0v7 M-2.5,-0.5L0,-3.0L2.5,-0.5"/>
  </g>
  <g id="arrowDown" transform="rotate(180) translate(-30 -48)">
    <use xlink:href="#rim"/>
    <path pointer-events="none" fill="none" stroke="white" stroke-width="1.5" d="M0,-3.0v7 M-2.5,-0.5L0,-3.0L2.5,-0.5"/>
  </g>
  <g id="arrowLeft" transform="rotate(270) translate(-36 17)">
    <use xlink:href="#rim"/>
    <path pointer-events="none" fill="none" stroke="white" stroke-width="1.5" d="M0,-3.0v7 M-2.5,-0.5L0,-3.0L2.5,-0.5"/>
  </g>
  <g id="resetDef">
    <use xlink:href="#rim2" fill="#404040"><set attributeName="fill" to="#808080" begin="reset.mouseover" end="reset.mouseout"/></use>
  </g>
</defs>
<script type="application/ecmascript">
var viewWidth = 717;
var viewHeight = 283;
var sectionId = 'dynsection-4';
</script>
<script type="application/ecmascript" xlink:href="../../svg.min.js"/>
<svg id="graph" class="graph">
<g id="viewport">
<title>Slic3r::TriangleMesh::TriangleMesh</title>
<!-- Node1 -->
<g id="Node000001" class="node">
<title>Node1</title>
<g id="a_Node000001"><a xlink:title=" ">
<polygon fill="#999999" stroke="#666666" points="105.25,-152.5 0,-152.5 0,-122 105.25,-122 105.25,-152.5"/>
<text text-anchor="start" x="8" y="-139" font-family="Helvetica,sans-Serif" font-size="10.00">Slic3r::TriangleMesh</text>
<text text-anchor="middle" x="52.62" y="-127.75" font-family="Helvetica,sans-Serif" font-size="10.00">::TriangleMesh</text>
</a>
</g>
</g>
<!-- Node2 -->
<g id="Node000002" class="node">
<title>Node2</title>
<g id="a_Node000002"><a xlink:href="../../de/db8/namespace_slic3r.html#a3dbe5962e716392efca04e5e66b8d450" target="_top" xlink:title=" ">
<polygon fill="white" stroke="#666666" points="225.5,-152.5 141.25,-152.5 141.25,-122 225.5,-122 225.5,-152.5"/>
<text text-anchor="start" x="149.25" y="-139" font-family="Helvetica,sans-Serif" font-size="10.00">Slic3r::fill_initial</text>
<text text-anchor="middle" x="183.38" y="-127.75" font-family="Helvetica,sans-Serif" font-size="10.00">_stats</text>
</a>
</g>
</g>
<!-- Node1&#45;&gt;Node2 -->
<g id="edge1_Node000001_Node000002" class="edge">
<title>Node1&#45;&gt;Node2</title>
<g id="a_edge1_Node000001_Node000002"><a xlink:title=" ">
<path fill="none" stroke="#63b8ff" d="M105.62,-137.25C113.68,-137.25 122.01,-137.25 130.08,-137.25"/>
<polygon fill="#63b8ff" stroke="#63b8ff" points="129.87,-140.75 139.87,-137.25 129.87,-133.75 129.87,-140.75"/>
</a>
</g>
</g>
<!-- Node3 -->
<g id="Node000003" class="node">
<title>Node3</title>
<g id="a_Node000003"><a xlink:href="../../de/db8/namespace_slic3r.html#aef08faf778cfd02ade987cac407ab039" target="_top" xlink:title=" ">
<polygon fill="white" stroke="#666666" points="396.38,-256.88 267.88,-256.88 267.88,-237.62 396.38,-237.62 396.38,-256.88"/>
<text text-anchor="middle" x="332.12" y="-243.38" font-family="Helvetica,sans-Serif" font-size="10.00">Slic3r::its_face_neighbors</text>
</a>
</g>
</g>
<!-- Node2&#45;&gt;Node3 -->
<g id="edge2_Node000002_Node000003" class="edge">
<title>Node2&#45;&gt;Node3</title>
<g id="a_edge2_Node000002_Node000003"><a xlink:title=" ">
<path fill="none" stroke="#63b8ff" d="M193.47,-152.97C206.12,-173.41 230.93,-208.78 261.5,-228.25 264.26,-230.01 267.19,-231.61 270.22,-233.06"/>
<polygon fill="#63b8ff" stroke="#63b8ff" points="268.57,-236.59 279.15,-237.22 271.27,-230.13 268.57,-236.59"/>
</a>
</g>
</g>
<!-- Node6 -->
<g id="Node000006" class="node">
<title>Node6</title>
<g id="a_Node000006"><a xlink:href="../../de/db8/namespace_slic3r.html#a6fe774156121a09a9cf3f676aabc608e" target="_top" xlink:title=" ">
<polygon fill="white" stroke="#666666" points="385.88,-201.5 278.38,-201.5 278.38,-171 385.88,-171 385.88,-201.5"/>
<text text-anchor="start" x="286.38" y="-188" font-family="Helvetica,sans-Serif" font-size="10.00">Slic3r::its_num_open</text>
<text text-anchor="middle" x="332.12" y="-176.75" font-family="Helvetica,sans-Serif" font-size="10.00">_edges</text>
</a>
</g>
</g>
<!-- Node2&#45;&gt;Node6 -->
<g id="edge6_Node000002_Node000006" class="edge">
<title>Node2&#45;&gt;Node6</title>
<g id="a_edge6_Node000002_Node000006"><a xlink:title=" ">
<path fill="none" stroke="#63b8ff" d="M225.64,-151.03C240.53,-156 257.6,-161.7 273.62,-167.05"/>
<polygon fill="#63b8ff" stroke="#63b8ff" points="272.37,-170.65 282.96,-170.5 274.58,-164.01 272.37,-170.65"/>
</a>
</g>
</g>
<!-- Node7 -->
<g id="Node000007" class="node">
<title>Node7</title>
<g id="a_Node000007"><a xlink:href="../../de/db8/namespace_slic3r.html#aba9274d7c9abaff969a2435496e01871" target="_top" xlink:title=" ">
<polygon fill="white" stroke="#666666" points="379.5,-152.5 284.75,-152.5 284.75,-122 379.5,-122 379.5,-152.5"/>
<text text-anchor="start" x="292.75" y="-139" font-family="Helvetica,sans-Serif" font-size="10.00">Slic3r::its_number</text>
<text text-anchor="middle" x="332.12" y="-127.75" font-family="Helvetica,sans-Serif" font-size="10.00">_of_patches</text>
</a>
</g>
</g>
<!-- Node2&#45;&gt;Node7 -->
<g id="edge8_Node000002_Node000007" class="edge">
<title>Node2&#45;&gt;Node7</title>
<g id="a_edge8_Node000002_Node000007"><a xlink:title=" ">
<path fill="none" stroke="#63b8ff" d="M225.64,-137.25C240.52,-137.25 257.59,-137.25 273.61,-137.25"/>
<polygon fill="#63b8ff" stroke="#63b8ff" points="273.48,-140.75 283.48,-137.25 273.48,-133.75 273.48,-140.75"/>
</a>
</g>
</g>
<!-- Node11 -->
<g id="Node000011" class="node">
<title>Node11</title>
<g id="a_Node000011"><a xlink:href="../../de/db8/namespace_slic3r.html#a4dfbdb211a6eb6f184659ae5fc9acb7f" target="_top" xlink:title=" ">
<polygon fill="white" stroke="#666666" points="379.12,-85.88 285.12,-85.88 285.12,-66.62 379.12,-66.62 379.12,-85.88"/>
<text text-anchor="middle" x="332.12" y="-72.38" font-family="Helvetica,sans-Serif" font-size="10.00">Slic3r::its_volume</text>
</a>
</g>
</g>
<!-- Node2&#45;&gt;Node11 -->
<g id="edge12_Node000002_Node000011" class="edge">
<title>Node2&#45;&gt;Node11</title>
<g id="a_edge12_Node000002_Node000011"><a xlink:title=" ">
<path fill="none" stroke="#63b8ff" d="M222.17,-121.54C245.19,-111.97 274.37,-99.84 296.74,-90.54"/>
<polygon fill="#63b8ff" stroke="#63b8ff" points="297.92,-93.43 305.81,-86.36 295.23,-86.96 297.92,-93.43"/>
</a>
</g>
</g>
<!-- Node14 -->
<g id="Node000014" class="node">
<title>Node14</title>
<g id="a_Node000014"><a xlink:href="../../de/db8/namespace_slic3r.html#afb04e5ea191c1cad290eeb4e4f51b538" target="_top" xlink:title=" ">
<polygon fill="white" stroke="#666666" points="402.75,-45.88 261.5,-45.88 261.5,-26.62 402.75,-26.62 402.75,-45.88"/>
<text text-anchor="middle" x="332.12" y="-32.38" font-family="Helvetica,sans-Serif" font-size="10.00">Slic3r::update_bounding_box</text>
</a>
</g>
</g>
<!-- Node2&#45;&gt;Node14 -->
<g id="edge16_Node000002_Node000014" class="edge">
<title>Node2&#45;&gt;Node14</title>
<g id="a_edge16_Node000002_Node000014"><a xlink:title=" ">
<path fill="none" stroke="#63b8ff" d="M195.4,-121.7C208.98,-103.67 233.68,-74.24 261.5,-57.25 265.85,-54.59 270.56,-52.25 275.41,-50.19"/>
<polygon fill="#63b8ff" stroke="#63b8ff" points="276.38,-53.18 284.48,-46.35 273.89,-46.64 276.38,-53.18"/>
</a>
</g>
</g>
<!-- Node3&#45;&gt;Node3 -->
<g id="edge5_Node000003_Node000003" class="edge">
<title>Node3&#45;&gt;Node3</title>
<g id="a_edge5_Node000003_Node000003"><a xlink:title=" ">
<path fill="none" stroke="#63b8ff" d="M308.84,-257.16C298.22,-265.77 305.98,-274.88 332.12,-274.88 347.65,-274.88 356.69,-271.67 359.26,-267.26"/>
<polygon fill="#63b8ff" stroke="#63b8ff" points="362.24,-266.26 355.41,-258.16 355.7,-268.75 362.24,-266.26"/>
</a>
</g>
</g>
<!-- Node4 -->
<g id="Node000004" class="node">
<title>Node4</title>
<g id="a_Node000004"><a xlink:href="../../de/db8/namespace_slic3r.html#a8cfca1b06933bfb33865468b388cc9d5" target="_top" xlink:title=" ">
<polygon fill="white" stroke="#666666" points="546.25,-262.5 448.5,-262.5 448.5,-232 546.25,-232 546.25,-262.5"/>
<text text-anchor="start" x="456.5" y="-249" font-family="Helvetica,sans-Serif" font-size="10.00">Slic3r::create_face</text>
<text text-anchor="middle" x="497.38" y="-237.75" font-family="Helvetica,sans-Serif" font-size="10.00">_neighbors_index</text>
</a>
</g>
</g>
<!-- Node3&#45;&gt;Node4 -->
<g id="edge3_Node000003_Node000004" class="edge">
<title>Node3&#45;&gt;Node4</title>
<g id="a_edge3_Node000003_Node000004"><a xlink:title=" ">
<path fill="none" stroke="#63b8ff" d="M396.71,-247.25C410.07,-247.25 424.11,-247.25 437.29,-247.25"/>
<polygon fill="#63b8ff" stroke="#63b8ff" points="437.13,-250.75 447.13,-247.25 437.13,-243.75 437.13,-250.75"/>
</a>
</g>
</g>
<!-- Node5 -->
<g id="Node000005" class="node">
<title>Node5</title>
<g id="a_Node000005"><a xlink:href="../../dd/d43/namespace_slic3r_1_1execution.html#a7707f5e49d8a4e2e9fce66b91a5c1488" target="_top" xlink:title=" ">
<polygon fill="white" stroke="#666666" points="698,-262.5 603.25,-262.5 603.25,-232 698,-232 698,-262.5"/>
<text text-anchor="start" x="611.25" y="-249" font-family="Helvetica,sans-Serif" font-size="10.00">Slic3r::execution::</text>
<text text-anchor="middle" x="650.62" y="-237.75" font-family="Helvetica,sans-Serif" font-size="10.00">for_each</text>
</a>
</g>
</g>
<!-- Node4&#45;&gt;Node5 -->
<g id="edge4_Node000004_Node000005" class="edge">
<title>Node4&#45;&gt;Node5</title>
<g id="a_edge4_Node000004_Node000005"><a xlink:title=" ">
<path fill="none" stroke="#63b8ff" d="M546.65,-247.25C561.12,-247.25 577.13,-247.25 592.13,-247.25"/>
<polygon fill="#63b8ff" stroke="#63b8ff" points="591.84,-250.75 601.84,-247.25 591.84,-243.75 591.84,-250.75"/>
</a>
</g>
</g>
<!-- Node6&#45;&gt;Node6 -->
<g id="edge7_Node000006_Node000006" class="edge">
<title>Node6&#45;&gt;Node6</title>
<g id="a_edge7_Node000006_Node000006"><a xlink:title=" ">
<path fill="none" stroke="#63b8ff" d="M305.77,-201.99C300.39,-211.06 309.17,-219.5 332.12,-219.5 345.04,-219.5 353.46,-216.83 357.41,-212.88"/>
<polygon fill="#63b8ff" stroke="#63b8ff" points="360.99,-213.28 358.48,-202.99 354.02,-212.59 360.99,-213.28"/>
</a>
</g>
</g>
<!-- Node8 -->
<g id="Node000008" class="node">
<title>Node8</title>
<g id="a_Node000008"><a xlink:href="../../dd/d22/struct_slic3r_1_1meshsplit__detail_1_1_neighbor_visitor.html#a3cf328ecb93fece6b11dd9ec117c0b9e" target="_top" xlink:title=" ">
<polygon fill="white" stroke="#666666" points="556,-171.5 438.75,-171.5 438.75,-141 556,-141 556,-171.5"/>
<text text-anchor="start" x="446.75" y="-158" font-family="Helvetica,sans-Serif" font-size="10.00">Slic3r::meshsplit_detail</text>
<text text-anchor="middle" x="497.38" y="-146.75" font-family="Helvetica,sans-Serif" font-size="10.00">::NeighborVisitor::visit</text>
</a>
</g>
</g>
<!-- Node7&#45;&gt;Node8 -->
<g id="edge9_Node000007_Node000008" class="edge">
<title>Node7&#45;&gt;Node8</title>
<g id="a_edge9_Node000007_Node000008"><a xlink:title=" ">
<path fill="none" stroke="#63b8ff" d="M379.91,-142.69C394.82,-144.43 411.65,-146.39 427.78,-148.27"/>
<polygon fill="#63b8ff" stroke="#63b8ff" points="426.92,-151.81 437.25,-149.49 427.73,-144.85 426.92,-151.81"/>
</a>
</g>
</g>
<!-- Node9 -->
<g id="Node000009" class="node">
<title>Node9</title>
<g id="a_Node000009"><a xlink:href="../../dd/d22/struct_slic3r_1_1meshsplit__detail_1_1_neighbor_visitor.html#af63be7abd2f1e4963e64d035c89f0038" target="_top" xlink:title=" ">
<polygon fill="white" stroke="#666666" points="709.25,-183.5 592,-183.5 592,-153 709.25,-153 709.25,-183.5"/>
<text text-anchor="start" x="600" y="-170" font-family="Helvetica,sans-Serif" font-size="10.00">Slic3r::meshsplit_detail</text>
<text text-anchor="middle" x="650.62" y="-158.75" font-family="Helvetica,sans-Serif" font-size="10.00">::NeighborVisitor::pop</text>
</a>
</g>
</g>
<!-- Node8&#45;&gt;Node9 -->
<g id="edge10_Node000008_Node000009" class="edge">
<title>Node8&#45;&gt;Node9</title>
<g id="a_edge10_Node000008_Node000009"><a xlink:title=" ">
<path fill="none" stroke="#63b8ff" d="M556.42,-160.86C564.53,-161.5 572.92,-162.16 581.2,-162.82"/>
<polygon fill="#63b8ff" stroke="#63b8ff" points="580.74,-166.37 590.99,-163.68 581.29,-159.4 580.74,-166.37"/>
</a>
</g>
</g>
<!-- Node10 -->
<g id="Node000010" class="node">
<title>Node10</title>
<g id="a_Node000010"><a xlink:href="../../dd/d22/struct_slic3r_1_1meshsplit__detail_1_1_neighbor_visitor.html#aa06dc0e65b5a37403a5b78a12360162c" target="_top" xlink:title=" ">
<polygon fill="white" stroke="#666666" points="709.25,-134.5 592,-134.5 592,-104 709.25,-104 709.25,-134.5"/>
<text text-anchor="start" x="600" y="-121" font-family="Helvetica,sans-Serif" font-size="10.00">Slic3r::meshsplit_detail</text>
<text text-anchor="middle" x="650.62" y="-109.75" font-family="Helvetica,sans-Serif" font-size="10.00">::NeighborVisitor::push</text>
</a>
</g>
</g>
<!-- Node8&#45;&gt;Node10 -->
<g id="edge11_Node000008_Node000010" class="edge">
<title>Node8&#45;&gt;Node10</title>
<g id="a_edge11_Node000008_Node000010"><a xlink:title=" ">
<path fill="none" stroke="#63b8ff" d="M556.42,-142.05C564.62,-140.04 573.11,-137.97 581.48,-135.92"/>
<polygon fill="#63b8ff" stroke="#63b8ff" points="582.1,-139.13 590.99,-133.35 580.44,-132.33 582.1,-139.13"/>
</a>
</g>
</g>
<!-- Node11&#45;&gt;Node11 -->
<g id="edge15_Node000011_Node000011" class="edge">
<title>Node11&#45;&gt;Node11</title>
<g id="a_edge15_Node000011_Node000011"><a xlink:title=" ">
<path fill="none" stroke="#63b8ff" d="M308.84,-86.16C298.22,-94.77 305.98,-103.88 332.12,-103.88 347.65,-103.88 356.69,-100.67 359.26,-96.26"/>
<polygon fill="#63b8ff" stroke="#63b8ff" points="362.24,-95.26 355.41,-87.16 355.7,-97.75 362.24,-95.26"/>
</a>
</g>
</g>
<!-- Node12 -->
<g id="Node000012" class="node">
<title>Node12</title>
<g id="a_Node000012"><a xlink:href="../../d0/df2/structindexed__triangle__set.html#aed85bda13aac7ba68ba0324e5ae9f9b5" target="_top" xlink:title=" ">
<polygon fill="white" stroke="#666666" points="550,-122.5 444.75,-122.5 444.75,-92 550,-92 550,-122.5"/>
<text text-anchor="start" x="452.75" y="-109" font-family="Helvetica,sans-Serif" font-size="10.00">indexed_triangle_set</text>
<text text-anchor="middle" x="497.38" y="-97.75" font-family="Helvetica,sans-Serif" font-size="10.00">::empty</text>
</a>
</g>
</g>
<!-- Node11&#45;&gt;Node12 -->
<g id="edge13_Node000011_Node000012" class="edge">
<title>Node11&#45;&gt;Node12</title>
<g id="a_edge13_Node000011_Node000012"><a xlink:title=" ">
<path fill="none" stroke="#63b8ff" d="M379.47,-85.05C396.33,-88.25 415.68,-91.93 433.72,-95.35"/>
<polygon fill="#63b8ff" stroke="#63b8ff" points="432.98,-98.96 443.46,-97.39 434.29,-92.09 432.98,-98.96"/>
</a>
</g>
</g>
<!-- Node13 -->
<g id="Node000013" class="node">
<title>Node13</title>
<g id="a_Node000013"><a xlink:href="../../de/db8/namespace_slic3r.html#a106b62b80d0eda483b9872670fb332b5" target="_top" xlink:title=" ">
<polygon fill="white" stroke="#666666" points="544.38,-73.5 450.38,-73.5 450.38,-43 544.38,-43 544.38,-73.5"/>
<text text-anchor="start" x="458.38" y="-60" font-family="Helvetica,sans-Serif" font-size="10.00">Slic3r::its_triangle</text>
<text text-anchor="middle" x="497.38" y="-48.75" font-family="Helvetica,sans-Serif" font-size="10.00">_vertices</text>
</a>
</g>
</g>
<!-- Node11&#45;&gt;Node13 -->
<g id="edge14_Node000011_Node000013" class="edge">
<title>Node11&#45;&gt;Node13</title>
<g id="a_edge14_Node000011_Node000013"><a xlink:title=" ">
<path fill="none" stroke="#63b8ff" d="M379.47,-71.14C397.99,-69.1 419.52,-66.72 439.02,-64.57"/>
<polygon fill="#63b8ff" stroke="#63b8ff" points="439.36,-67.95 448.91,-63.37 438.59,-60.99 439.36,-67.95"/>
</a>
</g>
</g>
<!-- Node15 -->
<g id="Node000015" class="node">
<title>Node15</title>
<g id="a_Node000015"><a xlink:href="../../de/db8/namespace_slic3r.html#a4d0c9e0f802addbe38308663e5e4c8be" target="_top" xlink:title=" ">
<polygon fill="white" stroke="#666666" points="550.75,-24.88 444,-24.88 444,-5.62 550.75,-5.62 550.75,-24.88"/>
<text text-anchor="middle" x="497.38" y="-11.38" font-family="Helvetica,sans-Serif" font-size="10.00">Slic3r::bounding_box</text>
</a>
</g>
</g>
<!-- Node14&#45;&gt;Node15 -->
<g id="edge17_Node000014_Node000015" class="edge">
<title>Node14&#45;&gt;Node15</title>
<g id="a_edge17_Node000014_Node000015"><a xlink:title=" ">
<path fill="none" stroke="#63b8ff" d="M402.83,-27.28C412.78,-26 422.97,-24.69 432.79,-23.43"/>
<polygon fill="#63b8ff" stroke="#63b8ff" points="433.22,-26.77 442.69,-22.03 432.33,-19.83 433.22,-26.77"/>
</a>
</g>
</g>
<!-- Node16 -->
<g id="Node000016" class="node">
<title>Node16</title>
<g id="a_Node000016"><a xlink:href="../../d8/d71/class_slic3r_1_1_triangle_mesh.html#a65f8cca8e3c7f493f13b94e95316a680" target="_top" xlink:title=" ">
<polygon fill="white" stroke="#666666" points="703.25,-30.5 598,-30.5 598,0 703.25,0 703.25,-30.5"/>
<text text-anchor="start" x="606" y="-17" font-family="Helvetica,sans-Serif" font-size="10.00">Slic3r::TriangleMesh</text>
<text text-anchor="middle" x="650.62" y="-5.75" font-family="Helvetica,sans-Serif" font-size="10.00">::bounding_box</text>
</a>
</g>
</g>
<!-- Node15&#45;&gt;Node16 -->
<g id="edge18_Node000015_Node000016" class="edge">
<title>Node15&#45;&gt;Node16</title>
<g id="a_edge18_Node000015_Node000016"><a xlink:title=" ">
<path fill="none" stroke="#63b8ff" d="M550.85,-15.25C562.48,-15.25 574.91,-15.25 586.9,-15.25"/>
<polygon fill="#63b8ff" stroke="#63b8ff" points="586.75,-18.75 596.75,-15.25 586.75,-11.75 586.75,-18.75"/>
</a>
</g>
</g>
</g>
</svg>

<g id="navigator" transform="translate(0 0)" fill="#404254">
  <rect fill="#f2f5e9" fill-opacity="0.5" stroke="#606060" stroke-width=".5" x="0" y="0" width="60" height="60"/>
  <use id="zoomplus" xlink:href="#zoomPlus" x="17" y="9" onmousedown="handleZoom(evt,'in')"/>
  <use id="zoomminus" xlink:href="#zoomMin" x="42" y="9" onmousedown="handleZoom(evt,'out')"/>
  <use id="reset" xlink:href="#resetDef" x="30" y="36" onmousedown="handleReset()"/>
   <use id="arrowup" xlink:href="#arrowUp" x="0" y="0" onmousedown="handlePan(0,-1)"/>
  <use id="arrowright" xlink:href="#arrowRight" x="0" y="0" onmousedown="handlePan(1,0)"/>
  <use id="arrowdown" xlink:href="#arrowDown" x="0" y="0" onmousedown="handlePan(0,1)"/>
  <use id="arrowleft" xlink:href="#arrowLeft" x="0" y="0" onmousedown="handlePan(-1,0)"/>
</g>
<svg viewBox="0 0 15 15" width="100%" height="30px" preserveAspectRatio="xMaxYMin meet">
 <g id="arrow_out" transform="scale(0.3 0.3)">
  <a xlink:href="class_slic3r_1_1_triangle_mesh_aaa205228f33dd16f59f84a372e1c7f9d_cgraph_org.svg" target="_base">
   <rect id="button" ry="5" rx="5" y="6" x="6" height="38" width="38"
        fill="#f2f5e9" fill-opacity="0.5" stroke="#606060" stroke-width="1.0"/>
   <path id="arrow"
     d="M 11.500037,31.436501 C 11.940474,20.09759 22.043105,11.32322 32.158766,21.979434 L 37.068811,17.246167 C 37.068811,17.246167 37.088388,32 37.088388,32 L 22.160133,31.978069 C 22.160133,31.978069 26.997745,27.140456 26.997745,27.140456 C 18.528582,18.264221 13.291696,25.230495 11.500037,31.436501 z"
     style="fill:#404040;"/>
  </a>
 </g>
</svg>

<style type='text/css'>
<![CDATA[
[data-mouse-over-selected='false'] { opacity: 0.7; }
[data-mouse-over-selected='true']  { opacity: 1.0; }
]]>
</style>
<script type="application/ecmascript"><![CDATA[
document.addEventListener('DOMContentLoaded', (event) => {
  highlightEdges();
  highlightAdjacentNodes();
});
]]></script>
</svg>
