<?xml version="1.0" encoding="UTF-8" standalone="no"?>
<!DOCTYPE svg PUBLIC "-//W3C//DTD SVG 1.1//EN"
 "http://www.w3.org/Graphics/SVG/1.1/DTD/svg11.dtd">
<!-- Generated by graphviz version 8.0.5 (20230430.1635)
 -->
<!-- Title: Slic3r::TriangleMesh::has_zero_volume Pages: 1 -->
<svg width="255pt" height="76pt"
 viewBox="0.00 0.00 254.50 75.88" xmlns="http://www.w3.org/2000/svg" xmlns:xlink="http://www.w3.org/1999/xlink">
<g id="graph0" class="graph" transform="scale(1 1) rotate(0) translate(4 71.88)">
<title>Slic3r::TriangleMesh::has_zero_volume</title>
<!-- Node1 -->
<g id="Node000001" class="node">
<title>Node1</title>
<g id="a_Node000001"><a xlink:title=" ">
<polygon fill="#999999" stroke="#666666" points="105.25,-51.5 0,-51.5 0,-21 105.25,-21 105.25,-51.5"/>
<text text-anchor="start" x="8" y="-38" font-family="Helvetica,sans-Serif" font-size="10.00">Slic3r::TriangleMesh</text>
<text text-anchor="middle" x="52.62" y="-26.75" font-family="Helvetica,sans-Serif" font-size="10.00">::has_zero_volume</text>
</a>
</g>
</g>
<!-- Node2 -->
<g id="Node000002" class="node">
<title>Node2</title>
<g id="a_Node000002"><a xlink:href="../../de/db8/namespace_slic3r.html#a93b359a57ef07c110b0f8c62d0a15045" target="_top" xlink:title=" ">
<polygon fill="white" stroke="#666666" points="238.25,-67.88 149.5,-67.88 149.5,-48.62 238.25,-48.62 238.25,-67.88"/>
<text text-anchor="middle" x="193.88" y="-54.38" font-family="Helvetica,sans-Serif" font-size="10.00">Slic3r::is_approx</text>
</a>
</g>
</g>
<!-- Node1&#45;&gt;Node2 -->
<g id="edge1_Node000001_Node000002" class="edge">
<title>Node1&#45;&gt;Node2</title>
<g id="a_edge1_Node000001_Node000002"><a xlink:title=" ">
<path fill="none" stroke="#63b8ff" d="M105.48,-44.44C116.26,-46.15 127.66,-47.95 138.53,-49.66"/>
<polygon fill="#63b8ff" stroke="#63b8ff" points="137.77,-53.24 148.19,-51.35 138.86,-46.33 137.77,-53.24"/>
</a>
</g>
</g>
<!-- Node3 -->
<g id="Node000003" class="node">
<title>Node3</title>
<g id="a_Node000003"><a xlink:href="../../d8/d71/class_slic3r_1_1_triangle_mesh.html#a23108de981f9a21ff117bd72eca7fe48" target="_top" xlink:title=" ">
<polygon fill="white" stroke="#666666" points="246.5,-30.5 141.25,-30.5 141.25,0 246.5,0 246.5,-30.5"/>
<text text-anchor="start" x="149.25" y="-17" font-family="Helvetica,sans-Serif" font-size="10.00">Slic3r::TriangleMesh</text>
<text text-anchor="middle" x="193.88" y="-5.75" font-family="Helvetica,sans-Serif" font-size="10.00">::size</text>
</a>
</g>
</g>
<!-- Node1&#45;&gt;Node3 -->
<g id="edge2_Node000001_Node000003" class="edge">
<title>Node1&#45;&gt;Node3</title>
<g id="a_edge2_Node000001_Node000003"><a xlink:title=" ">
<path fill="none" stroke="#63b8ff" d="M105.48,-28.43C113.54,-27.21 121.95,-25.95 130.22,-24.7"/>
<polygon fill="#63b8ff" stroke="#63b8ff" points="130.61,-28.03 139.98,-23.08 129.57,-21.11 130.61,-28.03"/>
</a>
</g>
</g>
</g>
</svg>
