<?xml version="1.0" encoding="UTF-8" standalone="no"?>
<!DOCTYPE svg PUBLIC "-//W3C//DTD SVG 1.1//EN"
 "http://www.w3.org/Graphics/SVG/1.1/DTD/svg11.dtd">
<!-- Generated by graphviz version 8.0.5 (20230430.1635)
 -->
<!-- Title: Slic3r::SL1Archive::export_print Pages: 1 -->
<svg width="1035pt" height="297pt"
 viewBox="0.00 0.00 1035.00 296.50" xmlns="http://www.w3.org/2000/svg" xmlns:xlink="http://www.w3.org/1999/xlink">
<g id="graph0" class="graph" transform="scale(1 1) rotate(0) translate(4 292.5)">
<title>Slic3r::SL1Archive::export_print</title>
<!-- Node1 -->
<g id="Node000001" class="node">
<title>Node1</title>
<g id="a_Node000001"><a xlink:title=" ">
<polygon fill="#999999" stroke="#666666" points="97,-160.5 0,-160.5 0,-130 97,-130 97,-160.5"/>
<text text-anchor="start" x="8" y="-147" font-family="Helvetica,sans-Serif" font-size="10.00">Slic3r::SL1Archive</text>
<text text-anchor="middle" x="48.5" y="-135.75" font-family="Helvetica,sans-Serif" font-size="10.00">::export_print</text>
</a>
</g>
</g>
<!-- Node2 -->
<g id="Node000002" class="node">
<title>Node2</title>
<g id="a_Node000002"><a xlink:href="../../d4/d0b/class_slic3r_1_1_s_l1_archive.html#af214a5d13975b20cf5ca0c59a8d9bd5a" target="_top" xlink:title=" ">
<polygon fill="white" stroke="#666666" points="230,-160.5 133,-160.5 133,-130 230,-130 230,-160.5"/>
<text text-anchor="start" x="141" y="-147" font-family="Helvetica,sans-Serif" font-size="10.00">Slic3r::SL1Archive</text>
<text text-anchor="middle" x="181.5" y="-135.75" font-family="Helvetica,sans-Serif" font-size="10.00">::export_print</text>
</a>
</g>
</g>
<!-- Node1&#45;&gt;Node2 -->
<g id="edge1_Node000001_Node000002" class="edge">
<title>Node1&#45;&gt;Node2</title>
<g id="a_edge1_Node000001_Node000002"><a xlink:title=" ">
<path fill="none" stroke="#63b8ff" d="M97.16,-145.25C105.2,-145.25 113.63,-145.25 121.9,-145.25"/>
<polygon fill="#63b8ff" stroke="#63b8ff" points="121.65,-148.75 131.65,-145.25 121.65,-141.75 121.65,-148.75"/>
</a>
</g>
</g>
<!-- Node3 -->
<g id="Node000003" class="node">
<title>Node3</title>
<g id="a_Node000003"><a xlink:href="../../d1/d0e/class_slic3r_1_1_zipper.html#a6d6791b0ea9f692ad655d7c82cb98a4b" target="_top" xlink:title="Adding an entry means a file inside the new archive. Name param is the name of the new file....">
<polygon fill="white" stroke="#666666" points="526.75,-202.5 431.25,-202.5 431.25,-172 526.75,-172 526.75,-202.5"/>
<text text-anchor="start" x="439.25" y="-189" font-family="Helvetica,sans-Serif" font-size="10.00">Slic3r::Zipper::add</text>
<text text-anchor="middle" x="479" y="-177.75" font-family="Helvetica,sans-Serif" font-size="10.00">_entry</text>
</a>
</g>
</g>
<!-- Node2&#45;&gt;Node3 -->
<g id="edge2_Node000002_Node000003" class="edge">
<title>Node2&#45;&gt;Node3</title>
<g id="a_edge2_Node000002_Node000003"><a xlink:title=" ">
<path fill="none" stroke="#63b8ff" d="M230.44,-157.16C242.03,-159.76 254.42,-162.31 266,-164.25 317.9,-172.94 377.51,-179.07 420.28,-182.8"/>
<polygon fill="#63b8ff" stroke="#63b8ff" points="419.79,-186.36 430.05,-183.72 420.39,-179.39 419.79,-186.36"/>
</a>
</g>
</g>
<!-- Node44 -->
<g id="Node000044" class="node">
<title>Node44</title>
<g id="a_Node000044"><a xlink:href="../../d1/d0e/class_slic3r_1_1_zipper.html#a3c60c3d88e714b20b657e273b40b658e" target="_top" xlink:title=" ">
<polygon fill="white" stroke="#666666" points="378.75,-239.88 268.25,-239.88 268.25,-220.62 378.75,-220.62 378.75,-239.88"/>
<text text-anchor="middle" x="323.5" y="-226.38" font-family="Helvetica,sans-Serif" font-size="10.00">Slic3r::Zipper::finalize</text>
</a>
</g>
</g>
<!-- Node2&#45;&gt;Node44 -->
<g id="edge6_Node000002_Node000044" class="edge">
<title>Node2&#45;&gt;Node44</title>
<g id="a_edge6_Node000002_Node000044"><a xlink:title=" ">
<path fill="none" stroke="#63b8ff" d="M205.61,-160.84C222.22,-171.88 245.24,-186.87 266,-199.25 274.94,-204.58 284.84,-210.13 293.82,-215.04"/>
<polygon fill="#63b8ff" stroke="#63b8ff" points="292.01,-218.58 302.47,-220.25 295.34,-212.42 292.01,-218.58"/>
</a>
</g>
</g>
<!-- Node46 -->
<g id="Node000046" class="node">
<title>Node46</title>
<g id="a_Node000046"><a xlink:href="../../d1/d0e/class_slic3r_1_1_zipper.html#a8e4621b952b55da1eb0deb09be0deb7f" target="_top" xlink:title=" ">
<polygon fill="white" stroke="#666666" points="370.12,-117.5 276.88,-117.5 276.88,-87 370.12,-87 370.12,-117.5"/>
<text text-anchor="start" x="284.88" y="-104" font-family="Helvetica,sans-Serif" font-size="10.00">Slic3r::Zipper::get</text>
<text text-anchor="middle" x="323.5" y="-92.75" font-family="Helvetica,sans-Serif" font-size="10.00">_filename</text>
</a>
</g>
</g>
<!-- Node2&#45;&gt;Node46 -->
<g id="edge10_Node000002_Node000046" class="edge">
<title>Node2&#45;&gt;Node46</title>
<g id="a_edge10_Node000002_Node000046"><a xlink:title=" ">
<path fill="none" stroke="#63b8ff" d="M230.29,-130.57C241.93,-127 254.48,-123.14 266.47,-119.46"/>
<polygon fill="#63b8ff" stroke="#63b8ff" points="267.29,-122.56 275.82,-116.28 265.23,-115.87 267.29,-122.56"/>
</a>
</g>
</g>
<!-- Node47 -->
<g id="Node000047" class="node">
<title>Node47</title>
<g id="a_Node000047"><a xlink:href="../../de/db8/namespace_slic3r.html#a7868b394b85b0496be4f6f8c68640924" target="_top" xlink:title=" ">
<polygon fill="white" stroke="#666666" points="372.38,-68.88 274.62,-68.88 274.62,-49.62 372.38,-49.62 372.38,-68.88"/>
<text text-anchor="middle" x="323.5" y="-55.38" font-family="Helvetica,sans-Serif" font-size="10.00">Slic3r::string_printf</text>
</a>
</g>
</g>
<!-- Node2&#45;&gt;Node47 -->
<g id="edge11_Node000002_Node000047" class="edge">
<title>Node2&#45;&gt;Node47</title>
<g id="a_edge11_Node000002_Node000047"><a xlink:title=" ">
<path fill="none" stroke="#63b8ff" d="M198.51,-129.5C214.47,-114.56 240.23,-92.34 266,-78.25 269.23,-76.48 272.65,-74.84 276.16,-73.32"/>
<polygon fill="#63b8ff" stroke="#63b8ff" points="277.12,-76.31 285.13,-69.37 274.54,-69.8 277.12,-76.31"/>
</a>
</g>
</g>
<!-- Node50 -->
<g id="Node000050" class="node">
<title>Node50</title>
<g id="a_Node000050"><a xlink:href="../../de/db8/namespace_slic3r.html#a36daecafb32a60b39d486741291a998b" target="_top" xlink:title=" ">
<polygon fill="white" stroke="#666666" points="381,-154.88 266,-154.88 266,-135.62 381,-135.62 381,-154.88"/>
<text text-anchor="middle" x="323.5" y="-141.38" font-family="Helvetica,sans-Serif" font-size="10.00">Slic3r::write_thumbnail</text>
</a>
</g>
</g>
<!-- Node2&#45;&gt;Node50 -->
<g id="edge14_Node000002_Node000050" class="edge">
<title>Node2&#45;&gt;Node50</title>
<g id="a_edge14_Node000002_Node000050"><a xlink:title=" ">
<path fill="none" stroke="#63b8ff" d="M230.29,-145.25C238.22,-145.25 246.58,-145.25 254.89,-145.25"/>
<polygon fill="#63b8ff" stroke="#63b8ff" points="254.75,-148.75 264.75,-145.25 254.75,-141.75 254.75,-148.75"/>
</a>
</g>
</g>
<!-- Node4 -->
<g id="Node000004" class="node">
<title>Node4</title>
<g id="a_Node000004"><a xlink:href="../../d1/d0e/class_slic3r_1_1_zipper.html#aaa3028fd805b74320f99207c7ab0e23b" target="_top" xlink:title="Finishing an entry means that subsequent writes will no longer be appended to the previous entry....">
<polygon fill="white" stroke="#666666" points="684.88,-242.5 581.88,-242.5 581.88,-212 684.88,-212 684.88,-242.5"/>
<text text-anchor="start" x="589.88" y="-229" font-family="Helvetica,sans-Serif" font-size="10.00">Slic3r::Zipper::finish</text>
<text text-anchor="middle" x="633.38" y="-217.75" font-family="Helvetica,sans-Serif" font-size="10.00">_entry</text>
</a>
</g>
</g>
<!-- Node3&#45;&gt;Node4 -->
<g id="edge3_Node000003_Node000004" class="edge">
<title>Node3&#45;&gt;Node4</title>
<g id="a_edge3_Node000003_Node000004"><a xlink:title=" ">
<path fill="none" stroke="#63b8ff" d="M526.96,-199.58C540.89,-203.24 556.36,-207.3 571.06,-211.15"/>
<polygon fill="#63b8ff" stroke="#63b8ff" points="570.04,-214.77 580.6,-213.92 571.81,-208 570.04,-214.77"/>
</a>
</g>
</g>
<!-- Node5 -->
<g id="Node000005" class="node">
<title>Node5</title>
<g id="a_Node000005"><a xlink:href="../../d6/df6/miniz_8c.html#ab5aac408b80e6f51a14434330fc76d6d" target="_top" xlink:title=" ">
<polygon fill="white" stroke="#666666" points="850.5,-236.88 725.75,-236.88 725.75,-217.62 850.5,-217.62 850.5,-236.88"/>
<text text-anchor="middle" x="788.12" y="-223.38" font-family="Helvetica,sans-Serif" font-size="10.00">mz_zip_writer_add_mem</text>
</a>
</g>
</g>
<!-- Node4&#45;&gt;Node5 -->
<g id="edge4_Node000004_Node000005" class="edge">
<title>Node4&#45;&gt;Node5</title>
<g id="a_edge4_Node000004_Node000005"><a xlink:title=" ">
<path fill="none" stroke="#63b8ff" d="M685.24,-227.25C694.67,-227.25 704.69,-227.25 714.62,-227.25"/>
<polygon fill="#63b8ff" stroke="#63b8ff" points="714.33,-230.75 724.33,-227.25 714.33,-223.75 714.33,-230.75"/>
</a>
</g>
</g>
<!-- Node6 -->
<g id="Node000006" class="node">
<title>Node6</title>
<g id="a_Node000006"><a xlink:href="../../d6/df6/miniz_8c.html#a48ece9a3d251aa69af280e975b6cc080" target="_top" xlink:title=" ">
<polygon fill="#fff0f0" stroke="red" points="1027,-236.88 886.5,-236.88 886.5,-217.62 1027,-217.62 1027,-236.88"/>
<text text-anchor="middle" x="956.75" y="-223.38" font-family="Helvetica,sans-Serif" font-size="10.00">mz_zip_writer_add_mem_ex</text>
</a>
</g>
</g>
<!-- Node5&#45;&gt;Node6 -->
<g id="edge5_Node000005_Node000006" class="edge">
<title>Node5&#45;&gt;Node6</title>
<g id="a_edge5_Node000005_Node000006"><a xlink:title=" ">
<path fill="none" stroke="#63b8ff" d="M850.7,-227.25C858.69,-227.25 866.97,-227.25 875.21,-227.25"/>
<polygon fill="#63b8ff" stroke="#63b8ff" points="875,-230.75 885,-227.25 875,-223.75 875,-230.75"/>
</a>
</g>
</g>
<!-- Node44&#45;&gt;Node4 -->
<g id="edge7_Node000044_Node000004" class="edge">
<title>Node44&#45;&gt;Node4</title>
<g id="a_edge7_Node000044_Node000004"><a xlink:title=" ">
<path fill="none" stroke="#63b8ff" d="M379.19,-229.72C432.89,-229.19 514.68,-228.4 570.68,-227.85"/>
<polygon fill="#63b8ff" stroke="#63b8ff" points="570.55,-231.34 580.52,-227.75 570.48,-224.34 570.55,-231.34"/>
</a>
</g>
</g>
<!-- Node45 -->
<g id="Node000045" class="node">
<title>Node45</title>
<g id="a_Node000045"><a xlink:href="../../d6/df6/miniz_8c.html#a0f7c5b26c1200daacd0eefa8744d9d1a" target="_top" xlink:title=" ">
<polygon fill="white" stroke="#666666" points="535.38,-288.5 422.62,-288.5 422.62,-258 535.38,-258 535.38,-288.5"/>
<text text-anchor="start" x="430.62" y="-275" font-family="Helvetica,sans-Serif" font-size="10.00">mz_zip_writer_finalize</text>
<text text-anchor="middle" x="479" y="-263.75" font-family="Helvetica,sans-Serif" font-size="10.00">_archive</text>
</a>
</g>
</g>
<!-- Node44&#45;&gt;Node45 -->
<g id="edge8_Node000044_Node000045" class="edge">
<title>Node44&#45;&gt;Node45</title>
<g id="a_edge8_Node000044_Node000045"><a xlink:title=" ">
<path fill="none" stroke="#63b8ff" d="M360.49,-240.33C375.9,-244.65 394.39,-249.83 412.1,-254.79"/>
<polygon fill="#63b8ff" stroke="#63b8ff" points="410.83,-258.35 421.41,-257.68 412.72,-251.61 410.83,-258.35"/>
</a>
</g>
</g>
<!-- Node12 -->
<g id="Node000012" class="node">
<title>Node12</title>
<g id="a_Node000012"><a xlink:href="../../d6/df6/miniz_8c.html#a990e748a280a6903cbc02307320848c5" target="_top" xlink:title=" ">
<polygon fill="white" stroke="#666666" points="678.88,-282.88 587.88,-282.88 587.88,-263.62 678.88,-263.62 678.88,-282.88"/>
<text text-anchor="middle" x="633.38" y="-269.38" font-family="Helvetica,sans-Serif" font-size="10.00">mz_zip_set_error</text>
</a>
</g>
</g>
<!-- Node45&#45;&gt;Node12 -->
<g id="edge9_Node000045_Node000012" class="edge">
<title>Node45&#45;&gt;Node12</title>
<g id="a_edge9_Node000045_Node000012"><a xlink:title=" ">
<path fill="none" stroke="#63b8ff" d="M535.87,-273.25C549.15,-273.25 563.3,-273.25 576.57,-273.25"/>
<polygon fill="#63b8ff" stroke="#63b8ff" points="576.47,-276.75 586.47,-273.25 576.47,-269.75 576.47,-276.75"/>
</a>
</g>
</g>
<!-- Node48 -->
<g id="Node000048" class="node">
<title>Node48</title>
<g id="a_Node000048"><a xlink:href="../../de/db8/namespace_slic3r.html#ab28c13d286b2d1767d7c63b020ebd042" target="_top" xlink:title=" ">
<polygon fill="white" stroke="#666666" points="516.25,-46.88 441.75,-46.88 441.75,-27.62 516.25,-27.62 516.25,-46.88"/>
<text text-anchor="middle" x="479" y="-33.38" font-family="Helvetica,sans-Serif" font-size="10.00">Slic3r::format</text>
</a>
</g>
</g>
<!-- Node47&#45;&gt;Node48 -->
<g id="edge12_Node000047_Node000048" class="edge">
<title>Node47&#45;&gt;Node48</title>
<g id="a_edge12_Node000047_Node000048"><a xlink:title=" ">
<path fill="none" stroke="#63b8ff" d="M372.65,-52.35C391.23,-49.69 412.42,-46.65 430.9,-44"/>
<polygon fill="#63b8ff" stroke="#63b8ff" points="431.32,-47.33 440.72,-42.45 430.32,-40.4 431.32,-47.33"/>
</a>
</g>
</g>
<!-- Node49 -->
<g id="Node000049" class="node">
<title>Node49</title>
<g id="a_Node000049"><a xlink:href="../../d5/ddc/namespace_slic3r_1_1internal_1_1format.html#a5a8cae6889e58c9be36cd70a9e9987ff" target="_top" xlink:title=" ">
<polygon fill="white" stroke="#666666" points="689.38,-30.5 577.38,-30.5 577.38,0 689.38,0 689.38,-30.5"/>
<text text-anchor="start" x="585.38" y="-17" font-family="Helvetica,sans-Serif" font-size="10.00">Slic3r::internal::format</text>
<text text-anchor="middle" x="633.38" y="-5.75" font-family="Helvetica,sans-Serif" font-size="10.00">::format_recursive</text>
</a>
</g>
</g>
<!-- Node48&#45;&gt;Node49 -->
<g id="edge13_Node000048_Node000049" class="edge">
<title>Node48&#45;&gt;Node49</title>
<g id="a_edge13_Node000048_Node000049"><a xlink:title=" ">
<path fill="none" stroke="#63b8ff" d="M516.5,-31.98C531.52,-29.81 549.39,-27.23 566.55,-24.75"/>
<polygon fill="#63b8ff" stroke="#63b8ff" points="566.72,-28.12 576.11,-23.23 565.72,-21.19 566.72,-28.12"/>
</a>
</g>
</g>
<!-- Node50&#45;&gt;Node3 -->
<g id="edge15_Node000050_Node000003" class="edge">
<title>Node50&#45;&gt;Node3</title>
<g id="a_edge15_Node000050_Node000003"><a xlink:title=" ">
<path fill="none" stroke="#63b8ff" d="M361.27,-155.31C378.93,-160.14 400.52,-166.05 420.31,-171.47"/>
<polygon fill="#63b8ff" stroke="#63b8ff" points="419.2,-175.06 429.77,-174.33 421.05,-168.31 419.2,-175.06"/>
</a>
</g>
</g>
<!-- Node51 -->
<g id="Node000051" class="node">
<title>Node51</title>
<g id="a_Node000051"><a xlink:href="../../d6/df6/miniz_8c.html#a7bdc0af59e4ca6d7bd8b7d5d005ff55e" target="_top" xlink:title=" ">
<polygon fill="white" stroke="#666666" points="504.62,-153.88 453.38,-153.88 453.38,-134.62 504.62,-134.62 504.62,-153.88"/>
<text text-anchor="middle" x="479" y="-140.38" font-family="Helvetica,sans-Serif" font-size="10.00">mz_free</text>
</a>
</g>
</g>
<!-- Node50&#45;&gt;Node51 -->
<g id="edge16_Node000050_Node000051" class="edge">
<title>Node50&#45;&gt;Node51</title>
<g id="a_edge16_Node000050_Node000051"><a xlink:title=" ">
<path fill="none" stroke="#63b8ff" d="M381.22,-144.88C401.63,-144.75 424.08,-144.6 442.21,-144.48"/>
<polygon fill="#63b8ff" stroke="#63b8ff" points="442.19,-147.98 452.16,-144.41 442.14,-140.98 442.19,-147.98"/>
</a>
</g>
</g>
<!-- Node52 -->
<g id="Node000052" class="node">
<title>Node52</title>
<g id="a_Node000052"><a xlink:href="../../d6/df6/miniz_8c.html#a1ed893f615dda47d07210d50b825578f" target="_top" xlink:title=" ">
<polygon fill="white" stroke="#666666" points="541,-116.5 417,-116.5 417,-86 541,-86 541,-116.5"/>
<text text-anchor="start" x="425" y="-103" font-family="Helvetica,sans-Serif" font-size="10.00">tdefl_write_image_to</text>
<text text-anchor="middle" x="479" y="-91.75" font-family="Helvetica,sans-Serif" font-size="10.00">_png_file_in_memory_ex</text>
</a>
</g>
</g>
<!-- Node50&#45;&gt;Node52 -->
<g id="edge17_Node000050_Node000052" class="edge">
<title>Node50&#45;&gt;Node52</title>
<g id="a_edge17_Node000050_Node000052"><a xlink:title=" ">
<path fill="none" stroke="#63b8ff" d="M359.72,-135.16C375.4,-130.66 394.4,-125.21 412.54,-120.01"/>
<polygon fill="#63b8ff" stroke="#63b8ff" points="413.44,-123.11 422.09,-116.99 411.51,-116.38 413.44,-123.11"/>
</a>
</g>
</g>
<!-- Node8 -->
<g id="Node000008" class="node">
<title>Node8</title>
<g id="a_Node000008"><a xlink:href="../../d6/df6/miniz_8c.html#a8b7cb38252f297265f6b850ab4ae0f01" target="_top" xlink:title=" ">
<polygon fill="white" stroke="#666666" points="662.75,-67.88 604,-67.88 604,-48.62 662.75,-48.62 662.75,-67.88"/>
<text text-anchor="middle" x="633.38" y="-54.38" font-family="Helvetica,sans-Serif" font-size="10.00">mz_crc32</text>
</a>
</g>
</g>
<!-- Node52&#45;&gt;Node8 -->
<g id="edge18_Node000052_Node000008" class="edge">
<title>Node52&#45;&gt;Node8</title>
<g id="a_edge18_Node000052_Node000008"><a xlink:title=" ">
<path fill="none" stroke="#63b8ff" d="M535.44,-85.6C554.61,-80.2 575.67,-74.25 593.25,-69.29"/>
<polygon fill="#63b8ff" stroke="#63b8ff" points="594.03,-72.43 602.7,-66.34 592.13,-65.69 594.03,-72.43"/>
</a>
</g>
</g>
<!-- Node25 -->
<g id="Node000025" class="node">
<title>Node25</title>
<g id="a_Node000025"><a xlink:href="../../d6/df6/miniz_8c.html#a5f2608070112b0e81a3017e9c39c73b7" target="_top" xlink:title=" ">
<polygon fill="#fff0f0" stroke="red" points="689.75,-190.88 577,-190.88 577,-171.62 689.75,-171.62 689.75,-190.88"/>
<text text-anchor="middle" x="633.38" y="-177.38" font-family="Helvetica,sans-Serif" font-size="10.00">tdefl_compress_buffer</text>
</a>
</g>
</g>
<!-- Node52&#45;&gt;Node25 -->
<g id="edge19_Node000052_Node000025" class="edge">
<title>Node52&#45;&gt;Node25</title>
<g id="a_edge19_Node000052_Node000025"><a xlink:title=" ">
<path fill="none" stroke="#63b8ff" d="M526.4,-116.98C531.5,-119.44 536.47,-122.19 541,-125.25 560.28,-138.26 557.33,-150.83 577,-163.25 579.01,-164.52 581.13,-165.71 583.3,-166.83"/>
<polygon fill="#63b8ff" stroke="#63b8ff" points="581.58,-170.34 592.14,-171.22 584.44,-163.95 581.58,-170.34"/>
</a>
</g>
</g>
<!-- Node43 -->
<g id="Node000043" class="node">
<title>Node43</title>
<g id="a_Node000043"><a xlink:href="../../d6/df6/miniz_8c.html#a3c2c67a6200147020ba4bfbf77962792" target="_top" xlink:title=" ">
<polygon fill="white" stroke="#666666" points="659.75,-153.88 607,-153.88 607,-134.62 659.75,-134.62 659.75,-153.88"/>
<text text-anchor="middle" x="633.38" y="-140.38" font-family="Helvetica,sans-Serif" font-size="10.00">tdefl_init</text>
</a>
</g>
</g>
<!-- Node52&#45;&gt;Node43 -->
<g id="edge20_Node000052_Node000043" class="edge">
<title>Node52&#45;&gt;Node43</title>
<g id="a_edge20_Node000052_Node000043"><a xlink:title=" ">
<path fill="none" stroke="#63b8ff" d="M535.44,-116.9C555.69,-122.61 578.06,-128.92 596.2,-134.04"/>
<polygon fill="#63b8ff" stroke="#63b8ff" points="595.04,-137.63 605.61,-136.98 596.94,-130.9 595.04,-137.63"/>
</a>
</g>
</g>
<!-- Node53 -->
<g id="Node000053" class="node">
<title>Node53</title>
<g id="a_Node000053"><a xlink:href="../../d6/df6/miniz_8c.html#a418a771218f0a371ebc981939074bbe4" target="_top" xlink:title=" ">
<polygon fill="white" stroke="#666666" points="681.88,-116.5 584.88,-116.5 584.88,-86 681.88,-86 681.88,-116.5"/>
<text text-anchor="start" x="592.88" y="-103" font-family="Helvetica,sans-Serif" font-size="10.00">tdefl_output_buffer</text>
<text text-anchor="middle" x="633.38" y="-91.75" font-family="Helvetica,sans-Serif" font-size="10.00">_putter</text>
</a>
</g>
</g>
<!-- Node52&#45;&gt;Node53 -->
<g id="edge21_Node000052_Node000053" class="edge">
<title>Node52&#45;&gt;Node53</title>
<g id="a_edge21_Node000052_Node000053"><a xlink:title=" ">
<path fill="none" stroke="#63b8ff" d="M541.1,-101.25C551.79,-101.25 562.9,-101.25 573.53,-101.25"/>
<polygon fill="#63b8ff" stroke="#63b8ff" points="573.39,-104.75 583.39,-101.25 573.39,-97.75 573.39,-104.75"/>
</a>
</g>
</g>
</g>
</svg>
