<?xml version="1.0" encoding="UTF-8" standalone="no"?>
<!DOCTYPE svg PUBLIC "-//W3C//DTD SVG 1.1//EN"
 "http://www.w3.org/Graphics/SVG/1.1/DTD/svg11.dtd">
<!-- Generated by graphviz version 8.0.5 (20230430.1635)
 -->
<!-- Title: src/libigl/igl/bfs_orient.h Pages: 1 -->
<svg width="248pt" height="172pt"
 viewBox="0.00 0.00 247.50 171.50" xmlns="http://www.w3.org/2000/svg" xmlns:xlink="http://www.w3.org/1999/xlink">

<svg id="main" version="1.1" xmlns="http://www.w3.org/2000/svg" xmlns:xlink="http://www.w3.org/1999/xlink" xml:space="preserve" onload="init(evt)">
<style type="text/css"><![CDATA[
.node, .edge {opacity: 0.7;}
.node.selected, .edge.selected {opacity: 1;}
.edge:hover path { stroke: red; }
.edge:hover polygon { stroke: red; fill: red; }
]]></style>
<script type="application/ecmascript" xlink:href="../../svg.min.js"/>
<svg id="graph" class="graph">
<g id="graph0" class="graph" transform="scale(1 1) rotate(0) translate(4 167.5)">
<title>src/libigl/igl/bfs_orient.h</title>
<!-- Node1 -->
<g id="Node000001" class="node">
<title>Node1</title>
<g id="a_Node000001"><a xlink:title=" ">
<polygon fill="#999999" stroke="#666666" points="81.25,-163.5 0,-163.5 0,-133 81.25,-133 81.25,-163.5"/>
<text text-anchor="start" x="8" y="-150" font-family="Helvetica,sans-Serif" font-size="10.00">src/libigl/igl/bfs</text>
<text text-anchor="middle" x="40.62" y="-138.75" font-family="Helvetica,sans-Serif" font-size="10.00">_orient.h</text>
</a>
</g>
</g>
<!-- Node2 -->
<g id="Node000002" class="node">
<title>Node2</title>
<g id="a_Node000002"><a xlink:href="../../d7/de3/bfs__orient_8cpp.html" target="_top" xlink:title=" ">
<polygon fill="white" stroke="#666666" points="81.25,-97 0,-97 0,-66.5 81.25,-66.5 81.25,-97"/>
<text text-anchor="start" x="8" y="-83.5" font-family="Helvetica,sans-Serif" font-size="10.00">src/libigl/igl/bfs</text>
<text text-anchor="middle" x="40.62" y="-72.25" font-family="Helvetica,sans-Serif" font-size="10.00">_orient.cpp</text>
</a>
</g>
</g>
<!-- Node1&#45;&gt;Node2 -->
<g id="edge1_Node000001_Node000002" class="edge">
<title>Node1&#45;&gt;Node2</title>
<g id="a_edge1_Node000001_Node000002"><a xlink:title=" ">
<path fill="none" stroke="#63b8ff" d="M34.01,-121.88C33.67,-113.55 33.96,-104.58 34.87,-97.33"/>
<polygon fill="#63b8ff" stroke="#63b8ff" points="30.59,-121.92 34.86,-131.61 37.56,-121.37 30.59,-121.92"/>
</a>
</g>
</g>
<!-- Node3 -->
<g id="Node000003" class="node">
<title>Node3</title>
<g id="a_Node000003"><a xlink:href="../../d6/db7/reorient__facets__raycast_8cpp.html" target="_top" xlink:title=" ">
<polygon fill="white" stroke="#666666" points="239.5,-97 99.75,-97 99.75,-66.5 239.5,-66.5 239.5,-97"/>
<text text-anchor="start" x="107.75" y="-83.5" font-family="Helvetica,sans-Serif" font-size="10.00">src/libigl/igl/embree</text>
<text text-anchor="middle" x="169.62" y="-72.25" font-family="Helvetica,sans-Serif" font-size="10.00">/reorient_facets_raycast.cpp</text>
</a>
</g>
</g>
<!-- Node1&#45;&gt;Node3 -->
<g id="edge3_Node000001_Node000003" class="edge">
<title>Node1&#45;&gt;Node3</title>
<g id="a_edge3_Node000001_Node000003"><a xlink:title=" ">
<path fill="none" stroke="#63b8ff" d="M79.73,-127.7C99.27,-117.93 122.51,-106.31 140.47,-97.33"/>
<polygon fill="#63b8ff" stroke="#63b8ff" points="78.28,-125.01 70.9,-132.61 81.41,-131.27 78.28,-125.01"/>
</a>
</g>
</g>
<!-- Node2&#45;&gt;Node1 -->
<g id="edge2_Node000002_Node000001" class="edge">
<title>Node2&#45;&gt;Node1</title>
<g id="a_edge2_Node000002_Node000001"><a xlink:title=" ">
<path fill="none" stroke="#63b8ff" d="M47.23,-108.06C47.58,-116.38 47.29,-125.36 46.39,-132.61"/>
<polygon fill="#63b8ff" stroke="#63b8ff" points="50.66,-108.02 46.38,-98.33 43.68,-108.57 50.66,-108.02"/>
</a>
</g>
</g>
<!-- Node4 -->
<g id="Node000004" class="node">
<title>Node4</title>
<g id="a_Node000004"><a xlink:href="../../da/d92/reorient__facets__raycast_8h.html" target="_top" xlink:title=" ">
<polygon fill="white" stroke="#666666" points="234.25,-30.5 105,-30.5 105,0 234.25,0 234.25,-30.5"/>
<text text-anchor="start" x="113" y="-17" font-family="Helvetica,sans-Serif" font-size="10.00">src/libigl/igl/embree</text>
<text text-anchor="middle" x="169.62" y="-5.75" font-family="Helvetica,sans-Serif" font-size="10.00">/reorient_facets_raycast.h</text>
</a>
</g>
</g>
<!-- Node3&#45;&gt;Node4 -->
<g id="edge4_Node000003_Node000004" class="edge">
<title>Node3&#45;&gt;Node4</title>
<g id="a_edge4_Node000003_Node000004"><a xlink:title=" ">
<path fill="none" stroke="#63b8ff" d="M163.01,-55.38C162.67,-47.05 162.96,-38.08 163.87,-30.83"/>
<polygon fill="#63b8ff" stroke="#63b8ff" points="159.59,-55.42 163.86,-65.11 166.56,-54.87 159.59,-55.42"/>
</a>
</g>
</g>
<!-- Node4&#45;&gt;Node3 -->
<g id="edge5_Node000004_Node000003" class="edge">
<title>Node4&#45;&gt;Node3</title>
<g id="a_edge5_Node000004_Node000003"><a xlink:title=" ">
<path fill="none" stroke="#63b8ff" d="M176.23,-41.56C176.58,-49.88 176.29,-58.86 175.39,-66.11"/>
<polygon fill="#63b8ff" stroke="#63b8ff" points="179.66,-41.52 175.38,-31.83 172.68,-42.07 179.66,-41.52"/>
</a>
</g>
</g>
</g>
</svg>
</svg>

<style type='text/css'>
<![CDATA[
[data-mouse-over-selected='false'] { opacity: 0.7; }
[data-mouse-over-selected='true']  { opacity: 1.0; }
]]>
</style>
<script type="application/ecmascript"><![CDATA[
document.addEventListener('DOMContentLoaded', (event) => {
  highlightEdges();
  highlightAdjacentNodes();
});
]]></script>
</svg>
