<?xml version="1.0" encoding="UTF-8" standalone="no"?>
<!DOCTYPE svg PUBLIC "-//W3C//DTD SVG 1.1//EN"
 "http://www.w3.org/Graphics/SVG/1.1/DTD/svg11.dtd">
<!-- Generated by graphviz version 8.0.5 (20230430.1635)
 -->
<!-- Title: Slic3r::AABBTreeIndirect::detail::indexed_primitives_within_distance_squared_recurisve Pages: 1 -->
<!--zoomable 147 -->

<svg id="main" version="1.1" xmlns="http://www.w3.org/2000/svg" xmlns:xlink="http://www.w3.org/1999/xlink" xml:space="preserve" onload="init(evt)">
<style type="text/css"><![CDATA[
.node, .edge {opacity: 0.7;}
.node.selected, .edge.selected {opacity: 1;}
.edge:hover path { stroke: red; }
.edge:hover polygon { stroke: red; fill: red; }
]]></style>

<defs>
  <circle id="rim" cx="0" cy="0" r="7"/>
  <circle id="rim2" cx="0" cy="0" r="3.5"/>
  <g id="zoomPlus">
    <use xlink:href="#rim" fill="#404040"><set attributeName="fill" to="#808080" begin="zoomplus.mouseover" end="zoomplus.mouseout"/></use>
    <path d="M-4,0h8M0,-4v8" fill="none" stroke="white" stroke-width="1.5" pointer-events="none"/>
  </g>
  <g id="zoomMin">
    <use xlink:href="#rim" fill="#404040"><set attributeName="fill" to="#808080" begin="zoomminus.mouseover" end="zoomminus.mouseout"/></use>
    <path d="M-4,0h8" fill="none" stroke="white" stroke-width="1.5" pointer-events="none"/>
  </g>
  <g id="arrowUp" transform="translate(30 24)">
    <use xlink:href="#rim"/>
    <path pointer-events="none" fill="none" stroke="white" stroke-width="1.5" d="M0,-3.0v7 M-2.5,-0.5L0,-3.0L2.5,-0.5"/>
  </g>
  <g id="arrowRight" transform="rotate(90) translate(36 -43)">
    <use xlink:href="#rim"/>
    <path pointer-events="none" fill="none" stroke="white" stroke-width="1.5" d="M0,-3.0v7 M-2.5,-0.5L0,-3.0L2.5,-0.5"/>
  </g>
  <g id="arrowDown" transform="rotate(180) translate(-30 -48)">
    <use xlink:href="#rim"/>
    <path pointer-events="none" fill="none" stroke="white" stroke-width="1.5" d="M0,-3.0v7 M-2.5,-0.5L0,-3.0L2.5,-0.5"/>
  </g>
  <g id="arrowLeft" transform="rotate(270) translate(-36 17)">
    <use xlink:href="#rim"/>
    <path pointer-events="none" fill="none" stroke="white" stroke-width="1.5" d="M0,-3.0v7 M-2.5,-0.5L0,-3.0L2.5,-0.5"/>
  </g>
  <g id="resetDef">
    <use xlink:href="#rim2" fill="#404040"><set attributeName="fill" to="#808080" begin="reset.mouseover" end="reset.mouseout"/></use>
  </g>
</defs>
<script type="application/ecmascript">
var viewWidth = 514;
var viewHeight = 147;
var sectionId = 'dynsection-3';
</script>
<script type="application/ecmascript" xlink:href="../../svg.min.js"/>
<svg id="graph" class="graph">
<g id="viewport">
<title>Slic3r::AABBTreeIndirect::detail::indexed_primitives_within_distance_squared_recurisve</title>
<!-- Node1 -->
<g id="Node000001" class="node">
<title>Node1</title>
<g id="a_Node000001"><a xlink:title=" ">
<polygon fill="#999999" stroke="#666666" points="506.25,-60.12 332.75,-60.12 332.75,-18.38 506.25,-18.38 506.25,-60.12"/>
<text text-anchor="start" x="340.75" y="-46.62" font-family="Helvetica,sans-Serif" font-size="10.00">Slic3r::AABBTreeIndirect</text>
<text text-anchor="start" x="340.75" y="-35.38" font-family="Helvetica,sans-Serif" font-size="10.00">::detail::indexed_primitives</text>
<text text-anchor="middle" x="419.5" y="-24.12" font-family="Helvetica,sans-Serif" font-size="10.00">_within_distance_squared_recurisve</text>
</a>
</g>
</g>
<!-- Node1&#45;&gt;Node1 -->
<g id="edge6_Node000001_Node000001" class="edge">
<title>Node1&#45;&gt;Node1</title>
<g id="a_edge6_Node000001_Node000001"><a xlink:title=" ">
<path fill="none" stroke="#63b8ff" d="M450.45,-70.9C445.3,-75.23 434.99,-78.12 419.5,-78.12 393.41,-78.12 382,-69.92 385.26,-60.44"/>
<polygon fill="#63b8ff" stroke="#63b8ff" points="454.07,-72.03 453.74,-61.44 447.4,-69.93 454.07,-72.03"/>
</a>
</g>
</g>
<!-- Node2 -->
<g id="Node000002" class="node">
<title>Node2</title>
<g id="a_Node000002"><a xlink:href="../../d0/d9f/namespace_slic3r_1_1_a_a_b_b_tree_lines.html#a06331fc11b77a4ce9eec45cba176f62e" target="_top" xlink:title=" ">
<polygon fill="white" stroke="#666666" points="292.25,-79.5 175.75,-79.5 175.75,-49 292.25,-49 292.25,-79.5"/>
<text text-anchor="start" x="183.75" y="-66" font-family="Helvetica,sans-Serif" font-size="10.00">Slic3r::AABBTreeLines</text>
<text text-anchor="middle" x="234" y="-54.75" font-family="Helvetica,sans-Serif" font-size="10.00">::all_lines_in_radius</text>
</a>
</g>
</g>
<!-- Node1&#45;&gt;Node2 -->
<g id="edge1_Node000001_Node000002" class="edge">
<title>Node1&#45;&gt;Node2</title>
<g id="a_edge1_Node000001_Node000002"><a xlink:title=" ">
<path fill="none" stroke="#63b8ff" d="M321.62,-52.45C311.7,-53.8 301.86,-55.14 292.57,-56.41"/>
<polygon fill="#63b8ff" stroke="#63b8ff" points="321.96,-55.8 331.39,-50.98 321.01,-48.86 321.96,-55.8"/>
</a>
</g>
</g>
<!-- Node6 -->
<g id="Node000006" class="node">
<title>Node6</title>
<g id="a_Node000006"><a xlink:href="../../d0/d12/namespace_slic3r_1_1_a_a_b_b_tree_indirect.html#ab1d178c5ca757725827a1feb4ff56033" target="_top" xlink:title=" ">
<polygon fill="white" stroke="#666666" points="296.75,-30.5 171.25,-30.5 171.25,0 296.75,0 296.75,-30.5"/>
<text text-anchor="start" x="179.25" y="-17" font-family="Helvetica,sans-Serif" font-size="10.00">Slic3r::AABBTreeIndirect</text>
<text text-anchor="middle" x="234" y="-5.75" font-family="Helvetica,sans-Serif" font-size="10.00">::all_triangles_in_radius</text>
</a>
</g>
</g>
<!-- Node1&#45;&gt;Node6 -->
<g id="edge5_Node000001_Node000006" class="edge">
<title>Node1&#45;&gt;Node6</title>
<g id="a_edge5_Node000001_Node000006"><a xlink:title=" ">
<path fill="none" stroke="#63b8ff" d="M321.76,-26.6C313.38,-25.5 305.05,-24.41 297.06,-23.37"/>
<polygon fill="#63b8ff" stroke="#63b8ff" points="321.02,-30.16 331.39,-27.99 321.93,-23.22 321.02,-30.16"/>
</a>
</g>
</g>
<!-- Node3 -->
<g id="Node000003" class="node">
<title>Node3</title>
<g id="a_Node000003"><a xlink:href="../../db/d18/class_slic3r_1_1_a_a_b_b_tree_lines_1_1_lines_distancer.html#ac6922a51d9e858f8e4106eb494bad62a" target="_top" xlink:title=" ">
<polygon fill="white" stroke="#666666" points="125.88,-139.12 9.38,-139.12 9.38,-97.38 125.88,-97.38 125.88,-139.12"/>
<text text-anchor="start" x="17.38" y="-125.62" font-family="Helvetica,sans-Serif" font-size="10.00">Slic3r::AABBTreeLines</text>
<text text-anchor="start" x="17.38" y="-114.38" font-family="Helvetica,sans-Serif" font-size="10.00">::LinesDistancer::all</text>
<text text-anchor="middle" x="67.62" y="-103.12" font-family="Helvetica,sans-Serif" font-size="10.00">_lines_in_radius</text>
</a>
</g>
</g>
<!-- Node2&#45;&gt;Node3 -->
<g id="edge2_Node000002_Node000003" class="edge">
<title>Node2&#45;&gt;Node3</title>
<g id="a_edge2_Node000002_Node000003"><a xlink:title=" ">
<path fill="none" stroke="#63b8ff" d="M175.24,-83.23C159.36,-88.44 142.14,-94.1 126.26,-99.32"/>
<polygon fill="#63b8ff" stroke="#63b8ff" points="176.05,-86.32 184.46,-79.87 173.86,-79.67 176.05,-86.32"/>
</a>
</g>
</g>
<!-- Node4 -->
<g id="Node000004" class="node">
<title>Node4</title>
<g id="a_Node000004"><a xlink:href="../../dc/db2/namespacepriv.html#ad296eea36055eba7b55a15b1c908ff3c" target="_top" xlink:title=" ">
<polygon fill="white" stroke="#666666" points="115,-79.5 20.25,-79.5 20.25,-49 115,-49 115,-79.5"/>
<text text-anchor="start" x="28.25" y="-66" font-family="Helvetica,sans-Serif" font-size="10.00">priv::collect_close</text>
<text text-anchor="middle" x="67.62" y="-54.75" font-family="Helvetica,sans-Serif" font-size="10.00">_points</text>
</a>
</g>
</g>
<!-- Node2&#45;&gt;Node4 -->
<g id="edge3_Node000002_Node000004" class="edge">
<title>Node2&#45;&gt;Node4</title>
<g id="a_edge3_Node000002_Node000004"><a xlink:title=" ">
<path fill="none" stroke="#63b8ff" d="M164.76,-64.25C148.18,-64.25 130.83,-64.25 115.49,-64.25"/>
<polygon fill="#63b8ff" stroke="#63b8ff" points="164.51,-67.75 174.51,-64.25 164.51,-60.75 164.51,-67.75"/>
</a>
</g>
</g>
<!-- Node5 -->
<g id="Node000005" class="node">
<title>Node5</title>
<g id="a_Node000005"><a xlink:href="../../d9/d22/namespace_slic3r_1_1_emboss.html#a891eed9c6658884171549deae7f39b99" target="_top" xlink:title="Divide line segments in place near to point (which could lead to self intersection due to preccision)...">
<polygon fill="white" stroke="#666666" points="135.25,-30.5 0,-30.5 0,0 135.25,0 135.25,-30.5"/>
<text text-anchor="start" x="8" y="-17" font-family="Helvetica,sans-Serif" font-size="10.00">Slic3r::Emboss::divide</text>
<text text-anchor="middle" x="67.62" y="-5.75" font-family="Helvetica,sans-Serif" font-size="10.00">_segments_for_close_point</text>
</a>
</g>
</g>
<!-- Node2&#45;&gt;Node5 -->
<g id="edge4_Node000002_Node000005" class="edge">
<title>Node2&#45;&gt;Node5</title>
<g id="a_edge4_Node000002_Node000005"><a xlink:title=" ">
<path fill="none" stroke="#63b8ff" d="M170.15,-45.52C154.07,-40.72 136.95,-35.62 121.43,-30.99"/>
<polygon fill="#63b8ff" stroke="#63b8ff" points="168.96,-49.11 179.54,-48.61 170.96,-42.4 168.96,-49.11"/>
</a>
</g>
</g>
</g>
</svg>

<g id="navigator" transform="translate(0 0)" fill="#404254">
  <rect fill="#f2f5e9" fill-opacity="0.5" stroke="#606060" stroke-width=".5" x="0" y="0" width="60" height="60"/>
  <use id="zoomplus" xlink:href="#zoomPlus" x="17" y="9" onmousedown="handleZoom(evt,'in')"/>
  <use id="zoomminus" xlink:href="#zoomMin" x="42" y="9" onmousedown="handleZoom(evt,'out')"/>
  <use id="reset" xlink:href="#resetDef" x="30" y="36" onmousedown="handleReset()"/>
   <use id="arrowup" xlink:href="#arrowUp" x="0" y="0" onmousedown="handlePan(0,-1)"/>
  <use id="arrowright" xlink:href="#arrowRight" x="0" y="0" onmousedown="handlePan(1,0)"/>
  <use id="arrowdown" xlink:href="#arrowDown" x="0" y="0" onmousedown="handlePan(0,1)"/>
  <use id="arrowleft" xlink:href="#arrowLeft" x="0" y="0" onmousedown="handlePan(-1,0)"/>
</g>
<svg viewBox="0 0 15 15" width="100%" height="30px" preserveAspectRatio="xMaxYMin meet">
 <g id="arrow_out" transform="scale(0.3 0.3)">
  <a xlink:href="namespace_slic3r_1_1_a_a_b_b_tree_indirect_1_1detail_a638071fa00da20e5e3ff33bf5cc9aa1a_icgraph_org.svg" target="_base">
   <rect id="button" ry="5" rx="5" y="6" x="6" height="38" width="38"
        fill="#f2f5e9" fill-opacity="0.5" stroke="#606060" stroke-width="1.0"/>
   <path id="arrow"
     d="M 11.500037,31.436501 C 11.940474,20.09759 22.043105,11.32322 32.158766,21.979434 L 37.068811,17.246167 C 37.068811,17.246167 37.088388,32 37.088388,32 L 22.160133,31.978069 C 22.160133,31.978069 26.997745,27.140456 26.997745,27.140456 C 18.528582,18.264221 13.291696,25.230495 11.500037,31.436501 z"
     style="fill:#404040;"/>
  </a>
 </g>
</svg>

<style type='text/css'>
<![CDATA[
[data-mouse-over-selected='false'] { opacity: 0.7; }
[data-mouse-over-selected='true']  { opacity: 1.0; }
]]>
</style>
<script type="application/ecmascript"><![CDATA[
document.addEventListener('DOMContentLoaded', (event) => {
  highlightEdges();
  highlightAdjacentNodes();
});
]]></script>
</svg>
