<?xml version="1.0" encoding="UTF-8" standalone="no"?>
<!DOCTYPE svg PUBLIC "-//W3C//DTD SVG 1.1//EN"
 "http://www.w3.org/Graphics/SVG/1.1/DTD/svg11.dtd">
<!-- Generated by graphviz version 8.0.5 (20230430.1635)
 -->
<!-- Title: src/glu&#45;libtess/src/gluos.h Pages: 1 -->
<svg width="878pt" height="105pt"
 viewBox="0.00 0.00 878.25 105.00" xmlns="http://www.w3.org/2000/svg" xmlns:xlink="http://www.w3.org/1999/xlink">
<g id="graph0" class="graph" transform="scale(1 1) rotate(0) translate(4 101)">
<title>src/glu&#45;libtess/src/gluos.h</title>
<!-- Node1 -->
<g id="Node000001" class="node">
<title>Node1</title>
<g id="a_Node000001"><a xlink:title=" ">
<polygon fill="#999999" stroke="#666666" points="481.25,-97 388,-97 388,-66.5 481.25,-66.5 481.25,-97"/>
<text text-anchor="start" x="396" y="-83.5" font-family="Helvetica,sans-Serif" font-size="10.00">src/glu&#45;libtess/src</text>
<text text-anchor="middle" x="434.62" y="-72.25" font-family="Helvetica,sans-Serif" font-size="10.00">/gluos.h</text>
</a>
</g>
</g>
<!-- Node2 -->
<g id="Node000002" class="node">
<title>Node2</title>
<g id="a_Node000002"><a xlink:href="../../d2/dce/geom_8c.html" target="_top" xlink:title=" ">
<polygon fill="white" stroke="#666666" points="93.25,-30.5 0,-30.5 0,0 93.25,0 93.25,-30.5"/>
<text text-anchor="start" x="8" y="-17" font-family="Helvetica,sans-Serif" font-size="10.00">src/glu&#45;libtess/src</text>
<text text-anchor="middle" x="46.62" y="-5.75" font-family="Helvetica,sans-Serif" font-size="10.00">/geom.c</text>
</a>
</g>
</g>
<!-- Node1&#45;&gt;Node2 -->
<g id="edge1_Node000001_Node000002" class="edge">
<title>Node1&#45;&gt;Node2</title>
<g id="a_edge1_Node000001_Node000002"><a xlink:title=" ">
<path fill="none" stroke="#63b8ff" d="M377.07,-73.91C310.43,-65.56 197.53,-50.11 101.62,-30.5 99.02,-29.97 96.35,-29.39 93.65,-28.78"/>
<polygon fill="#63b8ff" stroke="#63b8ff" points="376.4,-77.48 386.75,-75.24 377.26,-70.53 376.4,-77.48"/>
</a>
</g>
</g>
<!-- Node3 -->
<g id="Node000003" class="node">
<title>Node3</title>
<g id="a_Node000003"><a xlink:href="../../d6/d6b/mesh_8c.html" target="_top" xlink:title=" ">
<polygon fill="white" stroke="#666666" points="204.25,-30.5 111,-30.5 111,0 204.25,0 204.25,-30.5"/>
<text text-anchor="start" x="119" y="-17" font-family="Helvetica,sans-Serif" font-size="10.00">src/glu&#45;libtess/src</text>
<text text-anchor="middle" x="157.62" y="-5.75" font-family="Helvetica,sans-Serif" font-size="10.00">/mesh.c</text>
</a>
</g>
</g>
<!-- Node1&#45;&gt;Node3 -->
<g id="edge2_Node000001_Node000003" class="edge">
<title>Node1&#45;&gt;Node3</title>
<g id="a_edge2_Node000001_Node000003"><a xlink:title=" ">
<path fill="none" stroke="#63b8ff" d="M377.05,-68.23C332.17,-58.35 268.32,-44.02 212.62,-30.5 210.04,-29.87 207.38,-29.22 204.71,-28.55"/>
<polygon fill="#63b8ff" stroke="#63b8ff" points="376.23,-71.85 386.75,-70.58 377.74,-65.02 376.23,-71.85"/>
</a>
</g>
</g>
<!-- Node4 -->
<g id="Node000004" class="node">
<title>Node4</title>
<g id="a_Node000004"><a xlink:href="../../d6/d4f/normal_8c.html" target="_top" xlink:title=" ">
<polygon fill="white" stroke="#666666" points="315.25,-30.5 222,-30.5 222,0 315.25,0 315.25,-30.5"/>
<text text-anchor="start" x="230" y="-17" font-family="Helvetica,sans-Serif" font-size="10.00">src/glu&#45;libtess/src</text>
<text text-anchor="middle" x="268.62" y="-5.75" font-family="Helvetica,sans-Serif" font-size="10.00">/normal.c</text>
</a>
</g>
</g>
<!-- Node1&#45;&gt;Node4 -->
<g id="edge3_Node000001_Node000004" class="edge">
<title>Node1&#45;&gt;Node4</title>
<g id="a_edge3_Node000001_Node000004"><a xlink:title=" ">
<path fill="none" stroke="#63b8ff" d="M386.75,-62.15C361.22,-52.23 330.25,-40.2 306.43,-30.94"/>
<polygon fill="#63b8ff" stroke="#63b8ff" points="385.37,-65.75 395.96,-66.11 387.9,-59.23 385.37,-65.75"/>
</a>
</g>
</g>
<!-- Node5 -->
<g id="Node000005" class="node">
<title>Node5</title>
<g id="a_Node000005"><a xlink:href="../../d1/d54/priorityq_8c.html" target="_top" xlink:title=" ">
<polygon fill="white" stroke="#666666" points="426.25,-30.5 333,-30.5 333,0 426.25,0 426.25,-30.5"/>
<text text-anchor="start" x="341" y="-17" font-family="Helvetica,sans-Serif" font-size="10.00">src/glu&#45;libtess/src</text>
<text text-anchor="middle" x="379.62" y="-5.75" font-family="Helvetica,sans-Serif" font-size="10.00">/priorityq.c</text>
</a>
</g>
</g>
<!-- Node1&#45;&gt;Node5 -->
<g id="edge4_Node000001_Node000005" class="edge">
<title>Node1&#45;&gt;Node5</title>
<g id="a_edge4_Node000001_Node000005"><a xlink:title=" ">
<path fill="none" stroke="#63b8ff" d="M415.15,-57.91C407.47,-48.9 398.87,-38.82 392.06,-30.83"/>
<polygon fill="#63b8ff" stroke="#63b8ff" points="412.99,-59.78 422.14,-65.11 418.32,-55.23 412.99,-59.78"/>
</a>
</g>
</g>
<!-- Node6 -->
<g id="Node000006" class="node">
<title>Node6</title>
<g id="a_Node000006"><a xlink:href="../../dc/dcf/render_8c.html" target="_top" xlink:title=" ">
<polygon fill="white" stroke="#666666" points="537.25,-30.5 444,-30.5 444,0 537.25,0 537.25,-30.5"/>
<text text-anchor="start" x="452" y="-17" font-family="Helvetica,sans-Serif" font-size="10.00">src/glu&#45;libtess/src</text>
<text text-anchor="middle" x="490.62" y="-5.75" font-family="Helvetica,sans-Serif" font-size="10.00">/render.c</text>
</a>
</g>
</g>
<!-- Node1&#45;&gt;Node6 -->
<g id="edge5_Node000001_Node000006" class="edge">
<title>Node1&#45;&gt;Node6</title>
<g id="a_edge5_Node000001_Node000006"><a xlink:title=" ">
<path fill="none" stroke="#63b8ff" d="M454.46,-57.91C462.28,-48.9 471.03,-38.82 477.97,-30.83"/>
<polygon fill="#63b8ff" stroke="#63b8ff" points="451.25,-55.27 447.33,-65.11 456.53,-59.86 451.25,-55.27"/>
</a>
</g>
</g>
<!-- Node7 -->
<g id="Node000007" class="node">
<title>Node7</title>
<g id="a_Node000007"><a xlink:href="../../d0/d91/sweep_8c.html" target="_top" xlink:title=" ">
<polygon fill="white" stroke="#666666" points="648.25,-30.5 555,-30.5 555,0 648.25,0 648.25,-30.5"/>
<text text-anchor="start" x="563" y="-17" font-family="Helvetica,sans-Serif" font-size="10.00">src/glu&#45;libtess/src</text>
<text text-anchor="middle" x="601.62" y="-5.75" font-family="Helvetica,sans-Serif" font-size="10.00">/sweep.c</text>
</a>
</g>
</g>
<!-- Node1&#45;&gt;Node7 -->
<g id="edge6_Node000001_Node000007" class="edge">
<title>Node1&#45;&gt;Node7</title>
<g id="a_edge6_Node000001_Node000007"><a xlink:title=" ">
<path fill="none" stroke="#63b8ff" d="M482.45,-62.28C508.2,-52.33 539.52,-40.24 563.59,-30.94"/>
<polygon fill="#63b8ff" stroke="#63b8ff" points="481.59,-59.25 473.52,-66.11 484.11,-65.78 481.59,-59.25"/>
</a>
</g>
</g>
<!-- Node8 -->
<g id="Node000008" class="node">
<title>Node8</title>
<g id="a_Node000008"><a xlink:href="../../d1/d8e/tess_8c.html" target="_top" xlink:title=" ">
<polygon fill="white" stroke="#666666" points="759.25,-30.5 666,-30.5 666,0 759.25,0 759.25,-30.5"/>
<text text-anchor="start" x="674" y="-17" font-family="Helvetica,sans-Serif" font-size="10.00">src/glu&#45;libtess/src</text>
<text text-anchor="middle" x="712.62" y="-5.75" font-family="Helvetica,sans-Serif" font-size="10.00">/tess.c</text>
</a>
</g>
</g>
<!-- Node1&#45;&gt;Node8 -->
<g id="edge7_Node000001_Node000008" class="edge">
<title>Node1&#45;&gt;Node8</title>
<g id="a_edge7_Node000001_Node000008"><a xlink:title=" ">
<path fill="none" stroke="#63b8ff" d="M492.17,-68.31C537.28,-58.43 601.56,-44.08 657.62,-30.5 660.21,-29.87 662.87,-29.22 665.55,-28.55"/>
<polygon fill="#63b8ff" stroke="#63b8ff" points="491.73,-65.04 482.71,-70.6 493.23,-71.88 491.73,-65.04"/>
</a>
</g>
</g>
<!-- Node9 -->
<g id="Node000009" class="node">
<title>Node9</title>
<g id="a_Node000009"><a xlink:href="../../d3/dc8/tessmono_8c.html" target="_top" xlink:title=" ">
<polygon fill="white" stroke="#666666" points="870.25,-30.5 777,-30.5 777,0 870.25,0 870.25,-30.5"/>
<text text-anchor="start" x="785" y="-17" font-family="Helvetica,sans-Serif" font-size="10.00">src/glu&#45;libtess/src</text>
<text text-anchor="middle" x="823.62" y="-5.75" font-family="Helvetica,sans-Serif" font-size="10.00">/tessmono.c</text>
</a>
</g>
</g>
<!-- Node1&#45;&gt;Node9 -->
<g id="edge8_Node000001_Node000009" class="edge">
<title>Node1&#45;&gt;Node9</title>
<g id="a_edge8_Node000001_Node000009"><a xlink:title=" ">
<path fill="none" stroke="#63b8ff" d="M492.36,-73.92C559.2,-65.59 672.43,-50.14 768.62,-30.5 771.23,-29.97 773.91,-29.39 776.6,-28.78"/>
<polygon fill="#63b8ff" stroke="#63b8ff" points="492.13,-70.55 482.64,-75.25 492.99,-77.49 492.13,-70.55"/>
</a>
</g>
</g>
</g>
</svg>
