<?xml version="1.0" encoding="UTF-8" standalone="no"?>
<!DOCTYPE svg PUBLIC "-//W3C//DTD SVG 1.1//EN"
 "http://www.w3.org/Graphics/SVG/1.1/DTD/svg11.dtd">
<!-- Generated by graphviz version 8.0.5 (20230430.1635)
 -->
<!-- Title: src/libigl/igl/quat_to_axis_angle.cpp Pages: 1 -->
<svg width="352pt" height="149pt"
 viewBox="0.00 0.00 352.25 149.00" xmlns="http://www.w3.org/2000/svg" xmlns:xlink="http://www.w3.org/1999/xlink">

<svg id="main" version="1.1" xmlns="http://www.w3.org/2000/svg" xmlns:xlink="http://www.w3.org/1999/xlink" xml:space="preserve" onload="init(evt)">
<style type="text/css"><![CDATA[
.node, .edge {opacity: 0.7;}
.node.selected, .edge.selected {opacity: 1;}
.edge:hover path { stroke: red; }
.edge:hover polygon { stroke: red; fill: red; }
]]></style>
<script type="application/ecmascript" xlink:href="../../svg.min.js"/>
<svg id="graph" class="graph">
<g id="graph0" class="graph" transform="scale(1 1) rotate(0) translate(4 145)">
<title>src/libigl/igl/quat_to_axis_angle.cpp</title>
<!-- Node1 -->
<g id="Node000001" class="node">
<title>Node1</title>
<g id="a_Node000001"><a xlink:title=" ">
<polygon fill="#999999" stroke="#666666" points="226.12,-141 126.12,-141 126.12,-110.5 226.12,-110.5 226.12,-141"/>
<text text-anchor="start" x="134.12" y="-127.5" font-family="Helvetica,sans-Serif" font-size="10.00">src/libigl/igl/quat</text>
<text text-anchor="middle" x="176.12" y="-116.25" font-family="Helvetica,sans-Serif" font-size="10.00">_to_axis_angle.cpp</text>
</a>
</g>
</g>
<!-- Node2 -->
<g id="Node000002" class="node">
<title>Node2</title>
<g id="a_Node000002"><a xlink:href="../../da/d97/quat__to__axis__angle_8h.html" target="_top" xlink:title=" ">
<polygon fill="white" stroke="#666666" points="108.25,-74.5 0,-74.5 0,-55.25 108.25,-55.25 108.25,-74.5"/>
<text text-anchor="middle" x="54.12" y="-61" font-family="Helvetica,sans-Serif" font-size="10.00">quat_to_axis_angle.h</text>
</a>
</g>
</g>
<!-- Node1&#45;&gt;Node2 -->
<g id="edge1_Node000001_Node000002" class="edge">
<title>Node1&#45;&gt;Node2</title>
<g id="a_edge1_Node000001_Node000002"><a xlink:title=" ">
<path fill="none" stroke="#63b8ff" d="M139.72,-110.05C119.49,-100.82 95.01,-89 77.34,-79.9"/>
<polygon fill="#63b8ff" stroke="#63b8ff" points="79.29,-76.45 68.81,-74.9 76.04,-82.65 79.29,-76.45"/>
</a>
</g>
</g>
<!-- Node4 -->
<g id="Node000004" class="node">
<title>Node4</title>
<g id="a_Node000004"><a xlink:href="../../d1/da9/_e_p_s_8h.html" target="_top" xlink:title=" ">
<polygon fill="white" stroke="#666666" points="170.38,-74.5 125.88,-74.5 125.88,-55.25 170.38,-55.25 170.38,-74.5"/>
<text text-anchor="middle" x="148.12" y="-61" font-family="Helvetica,sans-Serif" font-size="10.00">EPS.h</text>
</a>
</g>
</g>
<!-- Node1&#45;&gt;Node4 -->
<g id="edge4_Node000001_Node000004" class="edge">
<title>Node1&#45;&gt;Node4</title>
<g id="a_edge4_Node000001_Node000004"><a xlink:title=" ">
<path fill="none" stroke="#63b8ff" d="M169.2,-110.2C165.56,-102.53 161.04,-93.02 157.12,-84.79"/>
<polygon fill="#63b8ff" stroke="#63b8ff" points="159.9,-83.48 152.44,-75.95 153.58,-86.49 159.9,-83.48"/>
</a>
</g>
</g>
<!-- Node6 -->
<g id="Node000006" class="node">
<title>Node6</title>
<g id="a_Node000006"><a xlink:href="../../d9/d6c/_p_i_8h.html" target="_top" xlink:title=" ">
<polygon fill="white" stroke="#666666" points="222.12,-74.5 188.12,-74.5 188.12,-55.25 222.12,-55.25 222.12,-74.5"/>
<text text-anchor="middle" x="205.12" y="-61" font-family="Helvetica,sans-Serif" font-size="10.00">PI.h</text>
</a>
</g>
</g>
<!-- Node1&#45;&gt;Node6 -->
<g id="edge8_Node000001_Node000006" class="edge">
<title>Node1&#45;&gt;Node6</title>
<g id="a_edge8_Node000001_Node000006"><a xlink:title=" ">
<path fill="none" stroke="#63b8ff" d="M183.29,-110.2C187.07,-102.53 191.75,-93.02 195.81,-84.79"/>
<polygon fill="#63b8ff" stroke="#63b8ff" points="199.38,-86.47 200.65,-75.95 193.1,-83.38 199.38,-86.47"/>
</a>
</g>
</g>
<!-- Node7 -->
<g id="Node000007" class="node">
<title>Node7</title>
<g id="a_Node000007"><a xlink:title=" ">
<polygon fill="#e0e0e0" stroke="#999999" points="283.62,-74.5 240.62,-74.5 240.62,-55.25 283.62,-55.25 283.62,-74.5"/>
<text text-anchor="middle" x="262.12" y="-61" font-family="Helvetica,sans-Serif" font-size="10.00">cmath</text>
</a>
</g>
</g>
<!-- Node1&#45;&gt;Node7 -->
<g id="edge9_Node000001_Node000007" class="edge">
<title>Node1&#45;&gt;Node7</title>
<g id="a_edge9_Node000001_Node000007"><a xlink:title=" ">
<path fill="none" stroke="#63b8ff" d="M197.38,-110.2C210.35,-101.32 226.9,-89.99 240.02,-81.01"/>
<polygon fill="#63b8ff" stroke="#63b8ff" points="241.59,-83.49 247.87,-74.95 237.64,-77.71 241.59,-83.49"/>
</a>
</g>
</g>
<!-- Node8 -->
<g id="Node000008" class="node">
<title>Node8</title>
<g id="a_Node000008"><a xlink:title=" ">
<polygon fill="#e0e0e0" stroke="#999999" points="344.25,-74.5 302,-74.5 302,-55.25 344.25,-55.25 344.25,-74.5"/>
<text text-anchor="middle" x="323.12" y="-61" font-family="Helvetica,sans-Serif" font-size="10.00">cstdio</text>
</a>
</g>
</g>
<!-- Node1&#45;&gt;Node8 -->
<g id="edge10_Node000001_Node000008" class="edge">
<title>Node1&#45;&gt;Node8</title>
<g id="a_edge10_Node000001_Node000008"><a xlink:title=" ">
<path fill="none" stroke="#63b8ff" d="M212.84,-110.05C237.18,-100.3 268.76,-87.65 291.89,-78.39"/>
<polygon fill="#63b8ff" stroke="#63b8ff" points="292.88,-81.36 300.86,-74.39 290.28,-74.86 292.88,-81.36"/>
</a>
</g>
</g>
<!-- Node2&#45;&gt;Node1 -->
<g id="edge3_Node000002_Node000001" class="edge">
<title>Node2&#45;&gt;Node1</title>
<g id="a_edge3_Node000002_Node000001"><a xlink:title=" ">
<path fill="none" stroke="#63b8ff" d="M77.86,-74.9C96.18,-82.94 121.56,-94.97 142,-105.19"/>
<polygon fill="#63b8ff" stroke="#63b8ff" points="140.09,-108.65 150.59,-110.05 143.25,-102.41 140.09,-108.65"/>
</a>
</g>
</g>
<!-- Node3 -->
<g id="Node000003" class="node">
<title>Node3</title>
<g id="a_Node000003"><a xlink:href="../../d6/d68/igl__inline_8h.html" target="_top" xlink:title=" ">
<polygon fill="white" stroke="#666666" points="94,-19.25 32.25,-19.25 32.25,0 94,0 94,-19.25"/>
<text text-anchor="middle" x="63.12" y="-5.75" font-family="Helvetica,sans-Serif" font-size="10.00">igl_inline.h</text>
</a>
</g>
</g>
<!-- Node2&#45;&gt;Node3 -->
<g id="edge2_Node000002_Node000003" class="edge">
<title>Node2&#45;&gt;Node3</title>
<g id="a_edge2_Node000002_Node000003"><a xlink:title=" ">
<path fill="none" stroke="#63b8ff" d="M55.61,-55.08C56.75,-48.34 58.37,-38.77 59.81,-30.24"/>
<polygon fill="#63b8ff" stroke="#63b8ff" points="63.39,-31.05 61.61,-20.61 56.49,-29.89 63.39,-31.05"/>
</a>
</g>
</g>
<!-- Node4&#45;&gt;Node3 -->
<g id="edge5_Node000004_Node000003" class="edge">
<title>Node4&#45;&gt;Node3</title>
<g id="a_edge5_Node000004_Node000003"><a xlink:title=" ">
<path fill="none" stroke="#63b8ff" d="M133.71,-54.84C120.88,-46.81 101.89,-34.91 86.83,-25.48"/>
<polygon fill="#63b8ff" stroke="#63b8ff" points="88.95,-22.05 78.61,-19.7 85.23,-27.98 88.95,-22.05"/>
</a>
</g>
</g>
<!-- Node5 -->
<g id="Node000005" class="node">
<title>Node5</title>
<g id="a_Node000005"><a xlink:href="../../d3/d1e/_e_p_s_8cpp.html" target="_top" xlink:title=" ">
<polygon fill="white" stroke="#666666" points="175.62,-19.25 120.62,-19.25 120.62,0 175.62,0 175.62,-19.25"/>
<text text-anchor="middle" x="148.12" y="-5.75" font-family="Helvetica,sans-Serif" font-size="10.00">EPS.cpp</text>
</a>
</g>
</g>
<!-- Node4&#45;&gt;Node5 -->
<g id="edge6_Node000004_Node000005" class="edge">
<title>Node4&#45;&gt;Node5</title>
<g id="a_edge6_Node000004_Node000005"><a xlink:title=" ">
<path fill="none" stroke="#63b8ff" d="M142.96,-55.08C141.52,-48.34 141.06,-38.77 141.59,-30.24"/>
<polygon fill="#63b8ff" stroke="#63b8ff" points="145.15,-30.97 142.92,-20.61 138.2,-30.1 145.15,-30.97"/>
</a>
</g>
</g>
<!-- Node5&#45;&gt;Node4 -->
<g id="edge7_Node000005_Node000004" class="edge">
<title>Node5&#45;&gt;Node4</title>
<g id="a_edge7_Node000005_Node000004"><a xlink:title=" ">
<path fill="none" stroke="#63b8ff" d="M153.33,-19.61C154.74,-26.33 155.18,-35.77 154.67,-44.21"/>
<polygon fill="#63b8ff" stroke="#63b8ff" points="151.07,-43.72 153.29,-54.08 158.02,-44.6 151.07,-43.72"/>
</a>
</g>
</g>
</g>
</svg>
</svg>

<style type='text/css'>
<![CDATA[
[data-mouse-over-selected='false'] { opacity: 0.7; }
[data-mouse-over-selected='true']  { opacity: 1.0; }
]]>
</style>
<script type="application/ecmascript"><![CDATA[
document.addEventListener('DOMContentLoaded', (event) => {
  highlightEdges();
  highlightAdjacentNodes();
});
]]></script>
</svg>
