<?xml version="1.0" encoding="UTF-8" standalone="no"?>
<!DOCTYPE svg PUBLIC "-//W3C//DTD SVG 1.1//EN"
 "http://www.w3.org/Graphics/SVG/1.1/DTD/svg11.dtd">
<!-- Generated by graphviz version 8.0.5 (20230430.1635)
 -->
<!-- Title: src/libigl/igl/comb_frame_field.cpp Pages: 1 -->
<svg width="424pt" height="204pt"
 viewBox="0.00 0.00 423.50 204.25" xmlns="http://www.w3.org/2000/svg" xmlns:xlink="http://www.w3.org/1999/xlink">

<svg id="main" version="1.1" xmlns="http://www.w3.org/2000/svg" xmlns:xlink="http://www.w3.org/1999/xlink" xml:space="preserve" onload="init(evt)">
<style type="text/css"><![CDATA[
.node, .edge {opacity: 0.7;}
.node.selected, .edge.selected {opacity: 1;}
.edge:hover path { stroke: red; }
.edge:hover polygon { stroke: red; fill: red; }
]]></style>
<script type="application/ecmascript" xlink:href="../../svg.min.js"/>
<svg id="graph" class="graph">
<g id="graph0" class="graph" transform="scale(1 1) rotate(0) translate(4 200.25)">
<title>src/libigl/igl/comb_frame_field.cpp</title>
<!-- Node1 -->
<g id="Node000001" class="node">
<title>Node1</title>
<g id="a_Node000001"><a xlink:title=" ">
<polygon fill="#999999" stroke="#666666" points="157.38,-196.25 65.62,-196.25 65.62,-165.75 157.38,-165.75 157.38,-196.25"/>
<text text-anchor="start" x="73.62" y="-182.75" font-family="Helvetica,sans-Serif" font-size="10.00">src/libigl/igl/comb</text>
<text text-anchor="middle" x="111.5" y="-171.5" font-family="Helvetica,sans-Serif" font-size="10.00">_frame_field.cpp</text>
</a>
</g>
</g>
<!-- Node2 -->
<g id="Node000002" class="node">
<title>Node2</title>
<g id="a_Node000002"><a xlink:title=" ">
<polygon fill="#e0e0e0" stroke="#999999" points="43,-129.75 0,-129.75 0,-110.5 43,-110.5 43,-129.75"/>
<text text-anchor="middle" x="21.5" y="-116.25" font-family="Helvetica,sans-Serif" font-size="10.00">cmath</text>
</a>
</g>
</g>
<!-- Node1&#45;&gt;Node2 -->
<g id="edge1_Node000001_Node000002" class="edge">
<title>Node1&#45;&gt;Node2</title>
<g id="a_edge1_Node000001_Node000002"><a xlink:title=" ">
<path fill="none" stroke="#63b8ff" d="M89.25,-165.45C75.55,-156.48 58.03,-145.02 44.23,-136"/>
<polygon fill="#63b8ff" stroke="#63b8ff" points="46.66,-132.75 36.37,-130.2 42.83,-138.6 46.66,-132.75"/>
</a>
</g>
</g>
<!-- Node3 -->
<g id="Node000003" class="node">
<title>Node3</title>
<g id="a_Node000003"><a xlink:href="../../d5/d7f/comb__frame__field_8h.html" target="_top" xlink:title=" ">
<polygon fill="white" stroke="#666666" points="162.25,-129.75 60.75,-129.75 60.75,-110.5 162.25,-110.5 162.25,-129.75"/>
<text text-anchor="middle" x="111.5" y="-116.25" font-family="Helvetica,sans-Serif" font-size="10.00">comb_frame_field.h</text>
</a>
</g>
</g>
<!-- Node1&#45;&gt;Node3 -->
<g id="edge2_Node000001_Node000003" class="edge">
<title>Node1&#45;&gt;Node3</title>
<g id="a_edge2_Node000001_Node000003"><a xlink:title=" ">
<path fill="none" stroke="#63b8ff" d="M105.58,-165.45C104.68,-158.03 104.51,-148.91 105.09,-140.88"/>
<polygon fill="#63b8ff" stroke="#63b8ff" points="108.65,-141.57 106.46,-131.2 101.71,-140.67 108.65,-141.57"/>
</a>
</g>
</g>
<!-- Node6 -->
<g id="Node000006" class="node">
<title>Node6</title>
<g id="a_Node000006"><a xlink:href="../../d0/da6/local__basis_8h.html" target="_top" xlink:title=" ">
<polygon fill="white" stroke="#666666" points="253,-129.75 180,-129.75 180,-110.5 253,-110.5 253,-129.75"/>
<text text-anchor="middle" x="216.5" y="-116.25" font-family="Helvetica,sans-Serif" font-size="10.00">local_basis.h</text>
</a>
</g>
</g>
<!-- Node1&#45;&gt;Node6 -->
<g id="edge6_Node000001_Node000006" class="edge">
<title>Node1&#45;&gt;Node6</title>
<g id="a_edge6_Node000001_Node000006"><a xlink:title=" ">
<path fill="none" stroke="#63b8ff" d="M137.73,-165.3C154.02,-156.16 174.87,-144.47 191.03,-135.41"/>
<polygon fill="#63b8ff" stroke="#63b8ff" points="192.39,-138.1 199.4,-130.15 188.96,-131.99 192.39,-138.1"/>
</a>
</g>
</g>
<!-- Node13 -->
<g id="Node000013" class="node">
<title>Node13</title>
<g id="a_Node000013"><a xlink:href="../../d9/d6c/_p_i_8h.html" target="_top" xlink:title=" ">
<polygon fill="white" stroke="#666666" points="305.5,-129.75 271.5,-129.75 271.5,-110.5 305.5,-110.5 305.5,-129.75"/>
<text text-anchor="middle" x="288.5" y="-116.25" font-family="Helvetica,sans-Serif" font-size="10.00">PI.h</text>
</a>
</g>
</g>
<!-- Node1&#45;&gt;Node13 -->
<g id="edge18_Node000001_Node000013" class="edge">
<title>Node1&#45;&gt;Node13</title>
<g id="a_edge18_Node000001_Node000013"><a xlink:title=" ">
<path fill="none" stroke="#63b8ff" d="M155.71,-165.3C188.79,-154.29 233,-139.58 261.12,-130.23"/>
<polygon fill="#63b8ff" stroke="#63b8ff" points="262.02,-133.29 270.41,-126.81 259.81,-126.65 262.02,-133.29"/>
</a>
</g>
</g>
<!-- Node3&#45;&gt;Node1 -->
<g id="edge5_Node000003_Node000001" class="edge">
<title>Node3&#45;&gt;Node1</title>
<g id="a_edge5_Node000003_Node000001"><a xlink:title=" ">
<path fill="none" stroke="#63b8ff" d="M116.54,-130.2C117.89,-136.73 118.44,-145.89 118.19,-154.57"/>
<polygon fill="#63b8ff" stroke="#63b8ff" points="114.64,-154.22 117.42,-164.45 121.62,-154.72 114.64,-154.22"/>
</a>
</g>
</g>
<!-- Node4 -->
<g id="Node000004" class="node">
<title>Node4</title>
<g id="a_Node000004"><a xlink:href="../../d6/d68/igl__inline_8h.html" target="_top" xlink:title=" ">
<polygon fill="white" stroke="#666666" points="84.38,-74.5 22.62,-74.5 22.62,-55.25 84.38,-55.25 84.38,-74.5"/>
<text text-anchor="middle" x="53.5" y="-61" font-family="Helvetica,sans-Serif" font-size="10.00">igl_inline.h</text>
</a>
</g>
</g>
<!-- Node3&#45;&gt;Node4 -->
<g id="edge3_Node000003_Node000004" class="edge">
<title>Node3&#45;&gt;Node4</title>
<g id="a_edge3_Node000003_Node000004"><a xlink:title=" ">
<path fill="none" stroke="#63b8ff" d="M101.66,-110.09C93.36,-102.47 81.27,-91.37 71.28,-82.2"/>
<polygon fill="#63b8ff" stroke="#63b8ff" points="73.93,-79.96 64.19,-75.77 69.19,-85.12 73.93,-79.96"/>
</a>
</g>
</g>
<!-- Node5 -->
<g id="Node000005" class="node">
<title>Node5</title>
<g id="a_Node000005"><a xlink:title=" ">
<polygon fill="#e0e0e0" stroke="#999999" points="166.88,-74.5 102.12,-74.5 102.12,-55.25 166.88,-55.25 166.88,-74.5"/>
<text text-anchor="middle" x="134.5" y="-61" font-family="Helvetica,sans-Serif" font-size="10.00">Eigen/Core</text>
</a>
</g>
</g>
<!-- Node3&#45;&gt;Node5 -->
<g id="edge4_Node000003_Node000005" class="edge">
<title>Node3&#45;&gt;Node5</title>
<g id="a_edge4_Node000003_Node000005"><a xlink:title=" ">
<path fill="none" stroke="#63b8ff" d="M115.3,-110.33C118.28,-103.44 122.53,-93.59 126.28,-84.91"/>
<polygon fill="#63b8ff" stroke="#63b8ff" points="129.87,-86.43 130.62,-75.86 123.44,-83.65 129.87,-86.43"/>
</a>
</g>
</g>
<!-- Node6&#45;&gt;Node4 -->
<g id="edge7_Node000006_Node000004" class="edge">
<title>Node6&#45;&gt;Node4</title>
<g id="a_edge7_Node000006_Node000004"><a xlink:title=" ">
<path fill="none" stroke="#63b8ff" d="M188.85,-110.09C162.15,-101.37 121.51,-88.09 91.72,-78.36"/>
<polygon fill="#63b8ff" stroke="#63b8ff" points="92.88,-74.73 82.29,-74.95 90.71,-81.38 92.88,-74.73"/>
</a>
</g>
</g>
<!-- Node6&#45;&gt;Node5 -->
<g id="edge8_Node000006_Node000005" class="edge">
<title>Node6&#45;&gt;Node5</title>
<g id="a_edge8_Node000006_Node000005"><a xlink:title=" ">
<path fill="none" stroke="#63b8ff" d="M202.59,-110.09C190.22,-102.06 171.9,-90.16 157.37,-80.73"/>
<polygon fill="#63b8ff" stroke="#63b8ff" points="159.77,-77.46 149.48,-74.95 155.96,-83.33 159.77,-77.46"/>
</a>
</g>
</g>
<!-- Node7 -->
<g id="Node000007" class="node">
<title>Node7</title>
<g id="a_Node000007"><a xlink:title=" ">
<polygon fill="#e0e0e0" stroke="#999999" points="415.5,-19.25 375.5,-19.25 375.5,0 415.5,0 415.5,-19.25"/>
<text text-anchor="middle" x="395.5" y="-5.75" font-family="Helvetica,sans-Serif" font-size="10.00">string</text>
</a>
</g>
</g>
<!-- Node6&#45;&gt;Node7 -->
<g id="edge9_Node000006_Node000007" class="edge">
<title>Node6&#45;&gt;Node7</title>
<g id="a_edge9_Node000006_Node000007"><a xlink:title=" ">
<path fill="none" stroke="#63b8ff" d="M240.95,-110.09C261.53,-102.03 291.37,-89.25 315.5,-74.5 338.57,-60.4 362.48,-40.5 378.07,-26.67"/>
<polygon fill="#63b8ff" stroke="#63b8ff" points="380.14,-29.62 385.23,-20.32 375.46,-24.42 380.14,-29.62"/>
</a>
</g>
</g>
<!-- Node8 -->
<g id="Node000008" class="node">
<title>Node8</title>
<g id="a_Node000008"><a xlink:title=" ">
<polygon fill="#e0e0e0" stroke="#999999" points="116,-19.25 73,-19.25 73,0 116,0 116,-19.25"/>
<text text-anchor="middle" x="94.5" y="-5.75" font-family="Helvetica,sans-Serif" font-size="10.00">vector</text>
</a>
</g>
</g>
<!-- Node6&#45;&gt;Node8 -->
<g id="edge10_Node000006_Node000008" class="edge">
<title>Node6&#45;&gt;Node8</title>
<g id="a_edge10_Node000006_Node000008"><a xlink:title=" ">
<path fill="none" stroke="#63b8ff" d="M212.59,-110.3C206.35,-97 193.02,-71.63 175.5,-55.25 161.26,-41.94 142.31,-31.21 126.32,-23.62"/>
<polygon fill="#63b8ff" stroke="#63b8ff" points="127.87,-20.03 117.32,-19.09 124.98,-26.4 127.87,-20.03"/>
</a>
</g>
</g>
<!-- Node9 -->
<g id="Node000009" class="node">
<title>Node9</title>
<g id="a_Node000009"><a xlink:href="../../d4/d58/local__basis_8cpp.html" target="_top" xlink:title=" ">
<polygon fill="white" stroke="#666666" points="306.25,-74.5 222.75,-74.5 222.75,-55.25 306.25,-55.25 306.25,-74.5"/>
<text text-anchor="middle" x="264.5" y="-61" font-family="Helvetica,sans-Serif" font-size="10.00">local_basis.cpp</text>
</a>
</g>
</g>
<!-- Node6&#45;&gt;Node9 -->
<g id="edge11_Node000006_Node000009" class="edge">
<title>Node6&#45;&gt;Node9</title>
<g id="a_edge11_Node000006_Node000009"><a xlink:title=" ">
<path fill="none" stroke="#63b8ff" d="M219.26,-110.33C224.47,-102.75 234.16,-91.59 243.36,-82.35"/>
<polygon fill="#63b8ff" stroke="#63b8ff" points="245.38,-85.3 250.19,-75.86 240.55,-80.24 245.38,-85.3"/>
</a>
</g>
</g>
<!-- Node9&#45;&gt;Node6 -->
<g id="edge12_Node000009_Node000006" class="edge">
<title>Node9&#45;&gt;Node6</title>
<g id="a_edge12_Node000009_Node000006"><a xlink:title=" ">
<path fill="none" stroke="#63b8ff" d="M261.67,-74.77C256.44,-82.35 246.81,-93.44 237.66,-102.64"/>
<polygon fill="#63b8ff" stroke="#63b8ff" points="235.67,-99.65 230.86,-109.09 240.51,-104.71 235.67,-99.65"/>
</a>
</g>
</g>
<!-- Node9&#45;&gt;Node7 -->
<g id="edge14_Node000009_Node000007" class="edge">
<title>Node9&#45;&gt;Node7</title>
<g id="a_edge14_Node000009_Node000007"><a xlink:title=" ">
<path fill="none" stroke="#63b8ff" d="M286.72,-54.84C308.34,-46.05 341.35,-32.64 365.33,-22.89"/>
<polygon fill="#63b8ff" stroke="#63b8ff" points="366.38,-25.83 374.32,-18.83 363.74,-19.35 366.38,-25.83"/>
</a>
</g>
</g>
<!-- Node9&#45;&gt;Node8 -->
<g id="edge16_Node000009_Node000008" class="edge">
<title>Node9&#45;&gt;Node8</title>
<g id="a_edge16_Node000009_Node000008"><a xlink:title=" ">
<path fill="none" stroke="#63b8ff" d="M235.66,-54.84C205.49,-45.39 158.24,-30.59 126.83,-20.75"/>
<polygon fill="#63b8ff" stroke="#63b8ff" points="128.03,-17.15 117.44,-17.5 125.93,-23.83 128.03,-17.15"/>
</a>
</g>
</g>
<!-- Node10 -->
<g id="Node000010" class="node">
<title>Node10</title>
<g id="a_Node000010"><a xlink:title=" ">
<polygon fill="#e0e0e0" stroke="#999999" points="290.12,-19.25 238.88,-19.25 238.88,0 290.12,0 290.12,-19.25"/>
<text text-anchor="middle" x="264.5" y="-5.75" font-family="Helvetica,sans-Serif" font-size="10.00">sstream</text>
</a>
</g>
</g>
<!-- Node9&#45;&gt;Node10 -->
<g id="edge13_Node000009_Node000010" class="edge">
<title>Node9&#45;&gt;Node10</title>
<g id="a_edge13_Node000009_Node000010"><a xlink:title=" ">
<path fill="none" stroke="#63b8ff" d="M264.5,-55.08C264.5,-48.42 264.5,-38.99 264.5,-30.53"/>
<polygon fill="#63b8ff" stroke="#63b8ff" points="268,-30.61 264.5,-20.61 261,-30.61 268,-30.61"/>
</a>
</g>
</g>
<!-- Node11 -->
<g id="Node000011" class="node">
<title>Node11</title>
<g id="a_Node000011"><a xlink:title=" ">
<polygon fill="#e0e0e0" stroke="#999999" points="357,-19.25 308,-19.25 308,0 357,0 357,-19.25"/>
<text text-anchor="middle" x="332.5" y="-5.75" font-family="Helvetica,sans-Serif" font-size="10.00">fstream</text>
</a>
</g>
</g>
<!-- Node9&#45;&gt;Node11 -->
<g id="edge15_Node000009_Node000011" class="edge">
<title>Node9&#45;&gt;Node11</title>
<g id="a_edge15_Node000009_Node000011"><a xlink:title=" ">
<path fill="none" stroke="#63b8ff" d="M276.04,-54.84C286.06,-46.99 300.8,-35.45 312.71,-26.12"/>
<polygon fill="#63b8ff" stroke="#63b8ff" points="314.42,-28.45 320.14,-19.52 310.1,-22.93 314.42,-28.45"/>
</a>
</g>
</g>
<!-- Node12 -->
<g id="Node000012" class="node">
<title>Node12</title>
<g id="a_Node000012"><a xlink:title=" ">
<polygon fill="#e0e0e0" stroke="#999999" points="220.75,-19.25 134.25,-19.25 134.25,0 220.75,0 220.75,-19.25"/>
<text text-anchor="middle" x="177.5" y="-5.75" font-family="Helvetica,sans-Serif" font-size="10.00">Eigen/Geometry</text>
</a>
</g>
</g>
<!-- Node9&#45;&gt;Node12 -->
<g id="edge17_Node000009_Node000012" class="edge">
<title>Node9&#45;&gt;Node12</title>
<g id="a_edge17_Node000009_Node000012"><a xlink:title=" ">
<path fill="none" stroke="#63b8ff" d="M249.74,-54.84C236.49,-46.73 216.81,-34.68 201.33,-25.21"/>
<polygon fill="#63b8ff" stroke="#63b8ff" points="203.69,-21.94 193.33,-19.7 200.03,-27.91 203.69,-21.94"/>
</a>
</g>
</g>
</g>
</svg>
</svg>

<style type='text/css'>
<![CDATA[
[data-mouse-over-selected='false'] { opacity: 0.7; }
[data-mouse-over-selected='true']  { opacity: 1.0; }
]]>
</style>
<script type="application/ecmascript"><![CDATA[
document.addEventListener('DOMContentLoaded', (event) => {
  highlightEdges();
  highlightAdjacentNodes();
});
]]></script>
</svg>
