<?xml version="1.0" encoding="UTF-8" standalone="no"?>
<!DOCTYPE svg PUBLIC "-//W3C//DTD SVG 1.1//EN"
 "http://www.w3.org/Graphics/SVG/1.1/DTD/svg11.dtd">
<!-- Generated by graphviz version 8.0.5 (20230430.1635)
 -->
<!-- Title: Slic3r::GUI::NotificationManager::HintNotification::render_text Pages: 1 -->
<!--zoomable 472 -->

<svg id="main" version="1.1" xmlns="http://www.w3.org/2000/svg" xmlns:xlink="http://www.w3.org/1999/xlink" xml:space="preserve" onload="init(evt)">
<style type="text/css"><![CDATA[
.node, .edge {opacity: 0.7;}
.node.selected, .edge.selected {opacity: 1;}
.edge:hover path { stroke: red; }
.edge:hover polygon { stroke: red; fill: red; }
]]></style>

<defs>
  <circle id="rim" cx="0" cy="0" r="7"/>
  <circle id="rim2" cx="0" cy="0" r="3.5"/>
  <g id="zoomPlus">
    <use xlink:href="#rim" fill="#404040"><set attributeName="fill" to="#808080" begin="zoomplus.mouseover" end="zoomplus.mouseout"/></use>
    <path d="M-4,0h8M0,-4v8" fill="none" stroke="white" stroke-width="1.5" pointer-events="none"/>
  </g>
  <g id="zoomMin">
    <use xlink:href="#rim" fill="#404040"><set attributeName="fill" to="#808080" begin="zoomminus.mouseover" end="zoomminus.mouseout"/></use>
    <path d="M-4,0h8" fill="none" stroke="white" stroke-width="1.5" pointer-events="none"/>
  </g>
  <g id="arrowUp" transform="translate(30 24)">
    <use xlink:href="#rim"/>
    <path pointer-events="none" fill="none" stroke="white" stroke-width="1.5" d="M0,-3.0v7 M-2.5,-0.5L0,-3.0L2.5,-0.5"/>
  </g>
  <g id="arrowRight" transform="rotate(90) translate(36 -43)">
    <use xlink:href="#rim"/>
    <path pointer-events="none" fill="none" stroke="white" stroke-width="1.5" d="M0,-3.0v7 M-2.5,-0.5L0,-3.0L2.5,-0.5"/>
  </g>
  <g id="arrowDown" transform="rotate(180) translate(-30 -48)">
    <use xlink:href="#rim"/>
    <path pointer-events="none" fill="none" stroke="white" stroke-width="1.5" d="M0,-3.0v7 M-2.5,-0.5L0,-3.0L2.5,-0.5"/>
  </g>
  <g id="arrowLeft" transform="rotate(270) translate(-36 17)">
    <use xlink:href="#rim"/>
    <path pointer-events="none" fill="none" stroke="white" stroke-width="1.5" d="M0,-3.0v7 M-2.5,-0.5L0,-3.0L2.5,-0.5"/>
  </g>
  <g id="resetDef">
    <use xlink:href="#rim2" fill="#404040"><set attributeName="fill" to="#808080" begin="reset.mouseover" end="reset.mouseout"/></use>
  </g>
</defs>
<script type="application/ecmascript">
var viewWidth = 1445;
var viewHeight = 472;
var sectionId = 'dynsection-25';
</script>
<script type="application/ecmascript" xlink:href="../../svg.min.js"/>
<svg id="graph" class="graph">
<g id="viewport">
<title>Slic3r::GUI::NotificationManager::HintNotification::render_text</title>
<!-- Node1 -->
<g id="Node000001" class="node">
<title>Node1</title>
<g id="a_Node000001"><a xlink:title=" ">
<polygon fill="#999999" stroke="#666666" points="127,-107.66 0,-107.66 0,-65.91 127,-65.91 127,-107.66"/>
<text text-anchor="start" x="8" y="-94.16" font-family="Helvetica,sans-Serif" font-size="10.00">Slic3r::GUI::Notification</text>
<text text-anchor="start" x="8" y="-82.91" font-family="Helvetica,sans-Serif" font-size="10.00">Manager::HintNotification</text>
<text text-anchor="middle" x="63.5" y="-71.66" font-family="Helvetica,sans-Serif" font-size="10.00">::render_text</text>
</a>
</g>
</g>
<!-- Node2 -->
<g id="Node000002" class="node">
<title>Node2</title>
<g id="a_Node000002"><a xlink:href="../../df/d13/namespace_im_gui.html#a848b9db6cc4a186751c0ecebcaadc33b" target="_top" xlink:title=" ">
<polygon fill="white" stroke="#666666" points="819,-409.41 712.25,-409.41 712.25,-390.16 819,-390.16 819,-409.41"/>
<text text-anchor="middle" x="765.62" y="-395.91" font-family="Helvetica,sans-Serif" font-size="10.00">ImGui::CalcTextSize</text>
</a>
</g>
</g>
<!-- Node1&#45;&gt;Node2 -->
<g id="edge1_Node000001_Node000002" class="edge">
<title>Node1&#45;&gt;Node2</title>
<g id="a_edge1_Node000001_Node000002"><a xlink:title=" ">
<path fill="none" stroke="#63b8ff" d="M77.07,-107.91C113.52,-166.16 225.55,-324.79 364.5,-324.79 364.5,-324.79 364.5,-324.79 472.88,-324.79 479.04,-324.79 634.36,-365.47 715.8,-386.91"/>
<polygon fill="#63b8ff" stroke="#63b8ff" points="714.74,-390.51 725.3,-389.67 716.53,-383.74 714.74,-390.51"/>
</a>
</g>
</g>
<!-- Node12 -->
<g id="Node000012" class="node">
<title>Node12</title>
<g id="a_Node000012"><a xlink:href="../../df/d13/namespace_im_gui.html#ae5e6e80ef23bb8df9cd5ac273be8aeb0" target="_top" xlink:title=" ">
<polygon fill="white" stroke="#666666" points="661.25,-69.41 544.75,-69.41 544.75,-50.16 661.25,-50.16 661.25,-69.41"/>
<text text-anchor="middle" x="603" y="-55.91" font-family="Helvetica,sans-Serif" font-size="10.00">ImGui::SetCursorPosX</text>
</a>
</g>
</g>
<!-- Node1&#45;&gt;Node12 -->
<g id="edge13_Node000001_Node000012" class="edge">
<title>Node1&#45;&gt;Node12</title>
<g id="a_edge13_Node000001_Node000012"><a xlink:title=" ">
<path fill="none" stroke="#63b8ff" d="M127.47,-83.63C229.22,-78.52 428.92,-68.48 533.87,-63.21"/>
<polygon fill="#63b8ff" stroke="#63b8ff" points="533.84,-66.67 543.65,-62.67 533.48,-59.68 533.84,-66.67"/>
</a>
</g>
</g>
<!-- Node14 -->
<g id="Node000014" class="node">
<title>Node14</title>
<g id="a_Node000014"><a xlink:href="../../df/d13/namespace_im_gui.html#a0037515d9bd7a28cc27a6e40401c1dec" target="_top" xlink:title=" ">
<polygon fill="white" stroke="#666666" points="661.25,-32.41 544.75,-32.41 544.75,-13.16 661.25,-13.16 661.25,-32.41"/>
<text text-anchor="middle" x="603" y="-18.91" font-family="Helvetica,sans-Serif" font-size="10.00">ImGui::SetCursorPosY</text>
</a>
</g>
</g>
<!-- Node1&#45;&gt;Node14 -->
<g id="edge16_Node000001_Node000014" class="edge">
<title>Node1&#45;&gt;Node14</title>
<g id="a_edge16_Node000001_Node000014"><a xlink:title=" ">
<path fill="none" stroke="#63b8ff" d="M127.48,-76.06C139.27,-74.19 151.5,-72.35 163,-70.79 293.78,-53.03 447.17,-37.45 533.64,-29.15"/>
<polygon fill="#63b8ff" stroke="#63b8ff" points="533.73,-32.56 543.36,-28.13 533.07,-25.59 533.73,-32.56"/>
</a>
</g>
</g>
<!-- Node15 -->
<g id="Node000015" class="node">
<title>Node15</title>
<g id="a_Node000015"><a xlink:href="../../d6/d97/class_slic3r_1_1_g_u_i_1_1_im_gui_wrapper.html#a67859c8a34baabf31b25e1bb22a726d8" target="_top" xlink:title=" ">
<polygon fill="white" stroke="#666666" points="296,-132.04 163,-132.04 163,-101.54 296,-101.54 296,-132.04"/>
<text text-anchor="start" x="171" y="-118.54" font-family="Helvetica,sans-Serif" font-size="10.00">Slic3r::GUI::ImGuiWrapper</text>
<text text-anchor="middle" x="229.5" y="-107.29" font-family="Helvetica,sans-Serif" font-size="10.00">::text</text>
</a>
</g>
</g>
<!-- Node1&#45;&gt;Node15 -->
<g id="edge19_Node000001_Node000015" class="edge">
<title>Node1&#45;&gt;Node15</title>
<g id="a_edge19_Node000001_Node000015"><a xlink:title=" ">
<path fill="none" stroke="#63b8ff" d="M127.44,-98.3C135.48,-99.77 143.78,-101.29 152,-102.8"/>
<polygon fill="#63b8ff" stroke="#63b8ff" points="151.27,-106.4 161.74,-104.76 152.53,-99.52 151.27,-106.4"/>
</a>
</g>
</g>
<!-- Node3 -->
<g id="Node000003" class="node">
<title>Node3</title>
<g id="a_Node000003"><a xlink:href="../../d7/dc9/struct_im_font.html#ad67f64fd206ad197f4b93b1a1ae27cfe" target="_top" xlink:title=" ">
<polygon fill="white" stroke="#666666" points="1003,-409.41 885,-409.41 885,-390.16 1003,-390.16 1003,-409.41"/>
<text text-anchor="middle" x="944" y="-395.91" font-family="Helvetica,sans-Serif" font-size="10.00">ImFont::CalcTextSizeA</text>
</a>
</g>
</g>
<!-- Node2&#45;&gt;Node3 -->
<g id="edge2_Node000002_Node000003" class="edge">
<title>Node2&#45;&gt;Node3</title>
<g id="a_edge2_Node000002_Node000003"><a xlink:title=" ">
<path fill="none" stroke="#63b8ff" d="M819.07,-399.79C836.22,-399.79 855.54,-399.79 873.73,-399.79"/>
<polygon fill="#63b8ff" stroke="#63b8ff" points="873.59,-403.29 883.59,-399.79 873.59,-396.29 873.59,-403.29"/>
</a>
</g>
</g>
<!-- Node11 -->
<g id="Node000011" class="node">
<title>Node11</title>
<g id="a_Node000011"><a xlink:href="../../df/d13/namespace_im_gui.html#a7671e1dbc803a31b06081b52a771d83f" target="_top" xlink:title=" ">
<polygon fill="white" stroke="#666666" points="1016.5,-372.41 871.5,-372.41 871.5,-353.16 1016.5,-353.16 1016.5,-372.41"/>
<text text-anchor="middle" x="944" y="-358.91" font-family="Helvetica,sans-Serif" font-size="10.00">ImGui::FindRenderedTextEnd</text>
</a>
</g>
</g>
<!-- Node2&#45;&gt;Node11 -->
<g id="edge12_Node000002_Node000011" class="edge">
<title>Node2&#45;&gt;Node11</title>
<g id="a_edge12_Node000002_Node000011"><a xlink:title=" ">
<path fill="none" stroke="#63b8ff" d="M814.82,-389.68C836.3,-385.17 861.81,-379.82 884.38,-375.09"/>
<polygon fill="#63b8ff" stroke="#63b8ff" points="884.79,-378.37 893.86,-372.89 883.36,-371.52 884.79,-378.37"/>
</a>
</g>
</g>
<!-- Node4 -->
<g id="Node000004" class="node">
<title>Node4</title>
<g id="a_Node000004"><a xlink:href="../../d7/dc9/struct_im_font.html#a3781bb82a1ceba919cb6c98a398c7a67" target="_top" xlink:title=" ">
<polygon fill="white" stroke="#666666" points="1214,-427.41 1054,-427.41 1054,-408.16 1214,-408.16 1214,-427.41"/>
<text text-anchor="middle" x="1134" y="-413.91" font-family="Helvetica,sans-Serif" font-size="10.00">ImFont::CalcWordWrapPositionA</text>
</a>
</g>
</g>
<!-- Node3&#45;&gt;Node4 -->
<g id="edge3_Node000003_Node000004" class="edge">
<title>Node3&#45;&gt;Node4</title>
<g id="a_edge3_Node000003_Node000004"><a xlink:title=" ">
<path fill="none" stroke="#63b8ff" d="M1003.45,-405.39C1015.96,-406.58 1029.44,-407.87 1042.83,-409.16"/>
<polygon fill="#63b8ff" stroke="#63b8ff" points="1042.23,-412.71 1052.52,-410.18 1042.9,-405.74 1042.23,-412.71"/>
</a>
</g>
</g>
<!-- Node6 -->
<g id="Node000006" class="node">
<title>Node6</title>
<g id="a_Node000006"><a xlink:href="../../da/d72/imgui_8cpp.html#a036b9dd7f0942fd34e385cc115f36631" target="_top" xlink:title=" ">
<polygon fill="white" stroke="#666666" points="1358.25,-464.41 1250,-464.41 1250,-445.16 1358.25,-445.16 1358.25,-464.41"/>
<text text-anchor="middle" x="1304.12" y="-450.91" font-family="Helvetica,sans-Serif" font-size="10.00">ImTextCharFromUtf8</text>
</a>
</g>
</g>
<!-- Node3&#45;&gt;Node6 -->
<g id="edge10_Node000003_Node000006" class="edge">
<title>Node3&#45;&gt;Node6</title>
<g id="a_edge10_Node000003_Node000006"><a xlink:title=" ">
<path fill="none" stroke="#63b8ff" d="M968.76,-409.82C990.52,-418.54 1023.84,-430.68 1054,-436.79 1115.97,-449.33 1188.16,-453.43 1238.83,-454.63"/>
<polygon fill="#63b8ff" stroke="#63b8ff" points="1238.55,-458.14 1248.62,-454.85 1238.7,-451.14 1238.55,-458.14"/>
</a>
</g>
</g>
<!-- Node8 -->
<g id="Node000008" class="node">
<title>Node8</title>
<g id="a_Node000008"><a xlink:href="../../d6/dba/_wipe_tower_dialog_8cpp.html#a031c2862b832be718b216d1f101f88cd" target="_top" xlink:title=" ">
<polygon fill="white" stroke="#666666" points="1323.75,-371.41 1284.5,-371.41 1284.5,-352.16 1323.75,-352.16 1323.75,-371.41"/>
<text text-anchor="middle" x="1304.12" y="-357.91" font-family="Helvetica,sans-Serif" font-size="10.00">scale</text>
</a>
</g>
</g>
<!-- Node3&#45;&gt;Node8 -->
<g id="edge11_Node000003_Node000008" class="edge">
<title>Node3&#45;&gt;Node8</title>
<g id="a_edge11_Node000003_Node000008"><a xlink:title=" ">
<path fill="none" stroke="#63b8ff" d="M993.47,-389.76C1001.77,-387.5 1010.22,-384.85 1018,-381.79 1035.04,-375.1 1036.28,-366.38 1054,-361.79 1131.16,-341.79 1226.35,-350.59 1273.61,-357.08"/>
<polygon fill="#63b8ff" stroke="#63b8ff" points="1272.88,-360.66 1283.28,-358.63 1273.89,-353.73 1272.88,-360.66"/>
</a>
</g>
</g>
<!-- Node9 -->
<g id="Node000009" class="node">
<title>Node9</title>
<g id="a_Node000009"><a xlink:href="../../d1/da2/imgui__internal_8h.html#ac22c577d0d6591a9d948ab5590663359" target="_top" xlink:title=" ">
<polygon fill="white" stroke="#666666" points="1178,-390.41 1090,-390.41 1090,-371.16 1178,-371.16 1178,-390.41"/>
<text text-anchor="middle" x="1134" y="-376.91" font-family="Helvetica,sans-Serif" font-size="10.00">ImCharIsBlankA</text>
</a>
</g>
</g>
<!-- Node3&#45;&gt;Node9 -->
<g id="edge8_Node000003_Node000009" class="edge">
<title>Node3&#45;&gt;Node9</title>
<g id="a_edge8_Node000003_Node000009"><a xlink:title=" ">
<path fill="none" stroke="#63b8ff" d="M1003.45,-393.88C1027.46,-391.46 1055.1,-388.66 1078.66,-386.28"/>
<polygon fill="#63b8ff" stroke="#63b8ff" points="1078.92,-389.67 1088.52,-385.18 1078.22,-382.71 1078.92,-389.67"/>
</a>
</g>
</g>
<!-- Node10 -->
<g id="Node000010" class="node">
<title>Node10</title>
<g id="a_Node000010"><a xlink:href="../../d1/da2/imgui__internal_8h.html#a7667efd95147d0422f140917c71a9226" target="_top" xlink:title=" ">
<polygon fill="white" stroke="#666666" points="1157,-159.41 1111,-159.41 1111,-140.16 1157,-140.16 1157,-159.41"/>
<text text-anchor="middle" x="1134" y="-145.91" font-family="Helvetica,sans-Serif" font-size="10.00">ImMax</text>
</a>
</g>
</g>
<!-- Node3&#45;&gt;Node10 -->
<g id="edge9_Node000003_Node000010" class="edge">
<title>Node3&#45;&gt;Node10</title>
<g id="a_edge9_Node000003_Node000010"><a xlink:title=" ">
<path fill="none" stroke="#63b8ff" d="M1003.42,-390.44C1008.66,-388.14 1013.62,-385.3 1018,-381.79 1036.21,-367.18 1100.58,-223.53 1124.22,-169.87"/>
<polygon fill="#63b8ff" stroke="#63b8ff" points="1127.79,-171.43 1128.61,-160.86 1121.38,-168.61 1127.79,-171.43"/>
</a>
</g>
</g>
<!-- Node5 -->
<g id="Node000005" class="node">
<title>Node5</title>
<g id="a_Node000005"><a xlink:href="../../d1/da2/imgui__internal_8h.html#a28a0d11512ebeb664af106f145a37ddd" target="_top" xlink:title=" ">
<polygon fill="white" stroke="#666666" points="1349.62,-427.41 1258.62,-427.41 1258.62,-408.16 1349.62,-408.16 1349.62,-427.41"/>
<text text-anchor="middle" x="1304.12" y="-413.91" font-family="Helvetica,sans-Serif" font-size="10.00">ImCharIsBlankW</text>
</a>
</g>
</g>
<!-- Node4&#45;&gt;Node5 -->
<g id="edge4_Node000004_Node000005" class="edge">
<title>Node4&#45;&gt;Node5</title>
<g id="a_edge4_Node000004_Node000005"><a xlink:title=" ">
<path fill="none" stroke="#63b8ff" d="M1214.14,-417.79C1225.39,-417.79 1236.76,-417.79 1247.44,-417.79"/>
<polygon fill="#63b8ff" stroke="#63b8ff" points="1247.28,-421.29 1257.28,-417.79 1247.28,-414.29 1247.28,-421.29"/>
</a>
</g>
</g>
<!-- Node4&#45;&gt;Node6 -->
<g id="edge5_Node000004_Node000006" class="edge">
<title>Node4&#45;&gt;Node6</title>
<g id="a_edge5_Node000004_Node000006"><a xlink:title=" ">
<path fill="none" stroke="#63b8ff" d="M1180.94,-427.9C1201.23,-432.37 1225.29,-437.66 1246.67,-442.36"/>
<polygon fill="#63b8ff" stroke="#63b8ff" points="1245.72,-445.96 1256.24,-444.69 1247.23,-439.12 1245.72,-445.96"/>
</a>
</g>
</g>
<!-- Node4&#45;&gt;Node8 -->
<g id="edge7_Node000004_Node000008" class="edge">
<title>Node4&#45;&gt;Node8</title>
<g id="a_edge7_Node000004_Node000008"><a xlink:title=" ">
<path fill="none" stroke="#63b8ff" d="M1185.52,-407.7C1195.06,-405.39 1204.9,-402.74 1214,-399.79 1234.54,-393.13 1256.89,-383.6 1274.07,-375.74"/>
<polygon fill="#63b8ff" stroke="#63b8ff" points="1275.44,-378.5 1283.03,-371.11 1272.49,-372.15 1275.44,-378.5"/>
</a>
</g>
</g>
<!-- Node7 -->
<g id="Node000007" class="node">
<title>Node7</title>
<g id="a_Node000007"><a xlink:href="../../d1/da2/imgui__internal_8h.html#a7f9d7828066a9d61b5630adcdf4655d3" target="_top" xlink:title=" ">
<polygon fill="white" stroke="#666666" points="1437.25,-464.41 1394.25,-464.41 1394.25,-445.16 1437.25,-445.16 1437.25,-464.41"/>
<text text-anchor="middle" x="1415.75" y="-450.91" font-family="Helvetica,sans-Serif" font-size="10.00">ImMin</text>
</a>
</g>
</g>
<!-- Node6&#45;&gt;Node7 -->
<g id="edge6_Node000006_Node000007" class="edge">
<title>Node6&#45;&gt;Node7</title>
<g id="a_edge6_Node000006_Node000007"><a xlink:title=" ">
<path fill="none" stroke="#63b8ff" d="M1358.65,-454.79C1366.95,-454.79 1375.29,-454.79 1382.91,-454.79"/>
<polygon fill="#63b8ff" stroke="#63b8ff" points="1382.82,-458.29 1392.82,-454.79 1382.82,-451.29 1382.82,-458.29"/>
</a>
</g>
</g>
<!-- Node12&#45;&gt;Node10 -->
<g id="edge15_Node000012_Node000010" class="edge">
<title>Node12&#45;&gt;Node10</title>
<g id="a_edge15_Node000012_Node000010"><a xlink:title=" ">
<path fill="none" stroke="#63b8ff" d="M644.58,-49.67C660.84,-46.11 679.83,-42.55 697.25,-40.79 840.48,-26.35 883.99,-33.22 1018,-85.79 1050.98,-98.73 1086.2,-119.47 1108.84,-133.82"/>
<polygon fill="#63b8ff" stroke="#63b8ff" points="1106.72,-137.26 1117.02,-139.72 1110.5,-131.37 1106.72,-137.26"/>
</a>
</g>
</g>
<!-- Node13 -->
<g id="Node000013" class="node">
<title>Node13</title>
<g id="a_Node000013"><a xlink:href="../../df/d13/namespace_im_gui.html#ac452417b5004ca16a814a72cff153526" target="_top" xlink:title=" ">
<polygon fill="white" stroke="#666666" points="831.38,-69.41 699.88,-69.41 699.88,-50.16 831.38,-50.16 831.38,-69.41"/>
<text text-anchor="middle" x="765.62" y="-55.91" font-family="Helvetica,sans-Serif" font-size="10.00">ImGui::GetCurrentWindow</text>
</a>
</g>
</g>
<!-- Node12&#45;&gt;Node13 -->
<g id="edge14_Node000012_Node000013" class="edge">
<title>Node12&#45;&gt;Node13</title>
<g id="a_edge14_Node000012_Node000013"><a xlink:title=" ">
<path fill="none" stroke="#63b8ff" d="M661.54,-59.79C670.4,-59.79 679.67,-59.79 688.86,-59.79"/>
<polygon fill="#63b8ff" stroke="#63b8ff" points="688.58,-63.29 698.58,-59.79 688.58,-56.29 688.58,-63.29"/>
</a>
</g>
</g>
<!-- Node14&#45;&gt;Node10 -->
<g id="edge18_Node000014_Node000010" class="edge">
<title>Node14&#45;&gt;Node10</title>
<g id="a_edge18_Node000014_Node000010"><a xlink:title=" ">
<path fill="none" stroke="#63b8ff" d="M657.63,-12.69C739.21,0.12 897.71,14.81 1018,-36.79 1064.28,-56.64 1102.31,-104.4 1120.83,-131.04"/>
<polygon fill="#63b8ff" stroke="#63b8ff" points="1118.25,-132.47 1126.74,-138.8 1124.05,-128.56 1118.25,-132.47"/>
</a>
</g>
</g>
<!-- Node14&#45;&gt;Node13 -->
<g id="edge17_Node000014_Node000013" class="edge">
<title>Node14&#45;&gt;Node13</title>
<g id="a_edge17_Node000014_Node000013"><a xlink:title=" ">
<path fill="none" stroke="#63b8ff" d="M647.89,-32.9C667.1,-37.33 689.84,-42.56 710.12,-47.24"/>
<polygon fill="#63b8ff" stroke="#63b8ff" points="709.26,-50.86 719.79,-49.69 710.83,-44.04 709.26,-50.86"/>
</a>
</g>
</g>
<!-- Node16 -->
<g id="Node000016" class="node">
<title>Node16</title>
<g id="a_Node000016"><a xlink:href="../../df/d13/namespace_im_gui.html#a9e7b83611fe441d54fad2effb4bf4965" target="_top" xlink:title=" ">
<polygon fill="white" stroke="#666666" points="399,-127.41 332,-127.41 332,-108.16 399,-108.16 399,-127.41"/>
<text text-anchor="middle" x="365.5" y="-113.91" font-family="Helvetica,sans-Serif" font-size="10.00">ImGui::Text</text>
</a>
</g>
</g>
<!-- Node15&#45;&gt;Node16 -->
<g id="edge20_Node000015_Node000016" class="edge">
<title>Node15&#45;&gt;Node16</title>
<g id="a_edge20_Node000015_Node000016"><a xlink:title=" ">
<path fill="none" stroke="#63b8ff" d="M296.32,-117.28C304.69,-117.34 313.08,-117.41 320.98,-117.46"/>
<polygon fill="#63b8ff" stroke="#63b8ff" points="320.72,-120.97 330.75,-117.55 320.78,-113.97 320.72,-120.97"/>
</a>
</g>
</g>
<!-- Node17 -->
<g id="Node000017" class="node">
<title>Node17</title>
<g id="a_Node000017"><a xlink:href="../../df/d13/namespace_im_gui.html#a10a0d6362178c2f743092f21e1b6cd20" target="_top" xlink:title=" ">
<polygon fill="white" stroke="#666666" points="508.75,-129.41 435,-129.41 435,-110.16 508.75,-110.16 508.75,-129.41"/>
<text text-anchor="middle" x="471.88" y="-115.91" font-family="Helvetica,sans-Serif" font-size="10.00">ImGui::TextV</text>
</a>
</g>
</g>
<!-- Node16&#45;&gt;Node17 -->
<g id="edge21_Node000016_Node000017" class="edge">
<title>Node16&#45;&gt;Node17</title>
<g id="a_edge21_Node000016_Node000017"><a xlink:title=" ">
<path fill="none" stroke="#63b8ff" d="M399.24,-118.42C407.05,-118.57 415.55,-118.73 423.86,-118.89"/>
<polygon fill="#63b8ff" stroke="#63b8ff" points="423.56,-122.4 433.62,-119.1 423.69,-115.4 423.56,-122.4"/>
</a>
</g>
</g>
<!-- Node17&#45;&gt;Node13 -->
<g id="edge22_Node000017_Node000013" class="edge">
<title>Node17&#45;&gt;Node13</title>
<g id="a_edge22_Node000017_Node000013"><a xlink:title=" ">
<path fill="none" stroke="#63b8ff" d="M509.03,-126.2C548.05,-131.52 611.31,-135.39 661.25,-115.79 681.18,-107.97 678.83,-94.69 697.25,-83.79 703.79,-79.92 711.05,-76.53 718.31,-73.61"/>
<polygon fill="#63b8ff" stroke="#63b8ff" points="719.37,-76.58 727.51,-69.8 716.92,-70.02 719.37,-76.58"/>
</a>
</g>
</g>
<!-- Node18 -->
<g id="Node000018" class="node">
<title>Node18</title>
<g id="a_Node000018"><a xlink:href="../../da/d72/imgui_8cpp.html#a2e0022a073d369645a0daab17f823779" target="_top" xlink:title=" ">
<polygon fill="white" stroke="#666666" points="648.12,-106.41 557.88,-106.41 557.88,-87.16 648.12,-87.16 648.12,-106.41"/>
<text text-anchor="middle" x="603" y="-92.91" font-family="Helvetica,sans-Serif" font-size="10.00">ImFormatStringV</text>
</a>
</g>
</g>
<!-- Node17&#45;&gt;Node18 -->
<g id="edge23_Node000017_Node000018" class="edge">
<title>Node17&#45;&gt;Node18</title>
<g id="a_edge23_Node000017_Node000018"><a xlink:title=" ">
<path fill="none" stroke="#63b8ff" d="M509.19,-113.32C520.96,-111.22 534.29,-108.85 547.1,-106.57"/>
<polygon fill="#63b8ff" stroke="#63b8ff" points="547.47,-109.88 556.7,-104.68 546.24,-102.99 547.47,-109.88"/>
</a>
</g>
</g>
<!-- Node19 -->
<g id="Node000019" class="node">
<title>Node19</title>
<g id="a_Node000019"><a xlink:href="../../df/d13/namespace_im_gui.html#aae6420fec03511fd478d9108f31e6b5f" target="_top" xlink:title=" ">
<polygon fill="white" stroke="#666666" points="642.5,-221.41 563.5,-221.41 563.5,-202.16 642.5,-202.16 642.5,-221.41"/>
<text text-anchor="middle" x="603" y="-207.91" font-family="Helvetica,sans-Serif" font-size="10.00">ImGui::TextEx</text>
</a>
</g>
</g>
<!-- Node17&#45;&gt;Node19 -->
<g id="edge24_Node000017_Node000019" class="edge">
<title>Node17&#45;&gt;Node19</title>
<g id="a_edge24_Node000017_Node000019"><a xlink:title=" ">
<path fill="none" stroke="#63b8ff" d="M486.94,-129.81C509.16,-145.64 552.59,-176.59 579.27,-195.6"/>
<polygon fill="#63b8ff" stroke="#63b8ff" points="576.78,-198.83 586.95,-201.78 580.84,-193.13 576.78,-198.83"/>
</a>
</g>
</g>
<!-- Node19&#45;&gt;Node2 -->
<g id="edge25_Node000019_Node000002" class="edge">
<title>Node19&#45;&gt;Node2</title>
<g id="a_edge25_Node000019_Node000002"><a xlink:title=" ">
<path fill="none" stroke="#63b8ff" d="M610.04,-221.8C620.68,-239.56 643.37,-277.8 661.25,-310.79 678.11,-341.89 669.77,-359.51 697.25,-381.79 698.91,-383.13 700.66,-384.38 702.48,-385.53"/>
<polygon fill="#63b8ff" stroke="#63b8ff" points="700.58,-389.01 711.07,-390.55 703.83,-382.81 700.58,-389.01"/>
</a>
</g>
</g>
<!-- Node19&#45;&gt;Node10 -->
<g id="edge30_Node000019_Node000010" class="edge">
<title>Node19&#45;&gt;Node10</title>
<g id="a_edge30_Node000019_Node000010"><a xlink:title=" ">
<path fill="none" stroke="#63b8ff" d="M609.89,-201.79C622.68,-181.17 655.27,-134.41 697.25,-116.79 837.61,-57.89 1025.61,-111.58 1100.36,-137.56"/>
<polygon fill="#63b8ff" stroke="#63b8ff" points="1098.96,-141.13 1109.55,-141.18 1101.3,-134.53 1098.96,-141.13"/>
</a>
</g>
</g>
<!-- Node19&#45;&gt;Node13 -->
<g id="edge28_Node000019_Node000013" class="edge">
<title>Node19&#45;&gt;Node13</title>
<g id="a_edge28_Node000019_Node000013"><a xlink:title=" ">
<path fill="none" stroke="#63b8ff" d="M614.52,-201.73C626.65,-189.8 646.79,-168.97 661.25,-148.79 680.48,-121.95 672.07,-105.16 697.25,-83.79 701.69,-80.02 706.76,-76.83 712.08,-74.13"/>
<polygon fill="#63b8ff" stroke="#63b8ff" points="713.15,-77.04 720.86,-69.78 710.3,-70.65 713.15,-77.04"/>
</a>
</g>
</g>
<!-- Node20 -->
<g id="Node000020" class="node">
<title>Node20</title>
<g id="a_Node000020"><a xlink:href="../../df/d13/namespace_im_gui.html#a66416151e58c34cd02973976de66e0e9" target="_top" xlink:title=" ">
<polygon fill="white" stroke="#666666" points="1018,-291.41 870,-291.41 870,-272.16 1018,-272.16 1018,-291.41"/>
<text text-anchor="middle" x="944" y="-277.91" font-family="Helvetica,sans-Serif" font-size="10.00">ImGui::CalcWrapWidthForPos</text>
</a>
</g>
</g>
<!-- Node19&#45;&gt;Node20 -->
<g id="edge26_Node000019_Node000020" class="edge">
<title>Node19&#45;&gt;Node20</title>
<g id="a_edge26_Node000019_Node000020"><a xlink:title=" ">
<path fill="none" stroke="#63b8ff" d="M609.91,-221.69C622.76,-242.1 655.45,-288.38 697.25,-305.79 767.48,-335.05 858.45,-312.2 907.64,-295.44"/>
<polygon fill="#63b8ff" stroke="#63b8ff" points="908.51,-298.49 916.77,-291.87 906.18,-291.89 908.51,-298.49"/>
</a>
</g>
</g>
<!-- Node21 -->
<g id="Node000021" class="node">
<title>Node21</title>
<g id="a_Node000021"><a xlink:href="../../df/d13/namespace_im_gui.html#aaba5637199d31ea23d4d143b30a44aff" target="_top" xlink:title=" ">
<polygon fill="white" stroke="#666666" points="830.25,-259.41 701,-259.41 701,-240.16 830.25,-240.16 830.25,-259.41"/>
<text text-anchor="middle" x="765.62" y="-245.91" font-family="Helvetica,sans-Serif" font-size="10.00">ImGui::GetTextLineHeight</text>
</a>
</g>
</g>
<!-- Node19&#45;&gt;Node21 -->
<g id="edge29_Node000019_Node000021" class="edge">
<title>Node19&#45;&gt;Node21</title>
<g id="a_edge29_Node000019_Node000021"><a xlink:title=" ">
<path fill="none" stroke="#63b8ff" d="M642.88,-220.99C663.39,-225.84 688.86,-231.86 711.19,-237.15"/>
<polygon fill="#63b8ff" stroke="#63b8ff" points="710.33,-240.78 720.87,-239.67 711.94,-233.97 710.33,-240.78"/>
</a>
</g>
</g>
<!-- Node22 -->
<g id="Node000022" class="node">
<title>Node22</title>
<g id="a_Node000022"><a xlink:href="../../df/d13/namespace_im_gui.html#a8674467ae34d04bc99df1f7f98f47407" target="_top" xlink:title=" ">
<polygon fill="#fff0f0" stroke="red" points="994.75,-164.41 893.25,-164.41 893.25,-145.16 994.75,-145.16 994.75,-164.41"/>
<text text-anchor="middle" x="944" y="-150.91" font-family="Helvetica,sans-Serif" font-size="10.00">ImGui::IsClippedEx</text>
</a>
</g>
</g>
<!-- Node19&#45;&gt;Node22 -->
<g id="edge31_Node000019_Node000022" class="edge">
<title>Node19&#45;&gt;Node22</title>
<g id="a_edge31_Node000019_Node000022"><a xlink:title=" ">
<path fill="none" stroke="#63b8ff" d="M642.89,-205.25C701.41,-195.41 812.64,-176.71 882.02,-165.04"/>
<polygon fill="#63b8ff" stroke="#63b8ff" points="882.5,-168.34 891.78,-163.23 881.34,-161.44 882.5,-168.34"/>
</a>
</g>
</g>
<!-- Node24 -->
<g id="Node000024" class="node">
<title>Node24</title>
<g id="a_Node000024"><a xlink:href="../../df/d13/namespace_im_gui.html#a03440eafb6ce299fcb92b2d2cda147a5" target="_top" xlink:title=" ">
<polygon fill="#fff0f0" stroke="red" points="808.12,-145.41 723.12,-145.41 723.12,-126.16 808.12,-126.16 808.12,-145.41"/>
<text text-anchor="middle" x="765.62" y="-131.91" font-family="Helvetica,sans-Serif" font-size="10.00">ImGui::ItemAdd</text>
</a>
</g>
</g>
<!-- Node19&#45;&gt;Node24 -->
<g id="edge32_Node000019_Node000024" class="edge">
<title>Node19&#45;&gt;Node24</title>
<g id="a_edge32_Node000019_Node000024"><a xlink:title=" ">
<path fill="none" stroke="#63b8ff" d="M620.08,-201.74C638.33,-190.58 669.22,-172.49 697.25,-159.79 705.37,-156.11 714.24,-152.61 722.79,-149.47"/>
<polygon fill="#63b8ff" stroke="#63b8ff" points="723.75,-152.49 732,-145.84 721.4,-145.89 723.75,-152.49"/>
</a>
</g>
</g>
<!-- Node67 -->
<g id="Node000067" class="node">
<title>Node67</title>
<g id="a_Node000067"><a xlink:href="../../df/d13/namespace_im_gui.html#aeeb1ec6ae6548173dbf813e7df538c48" target="_top" xlink:title=" ">
<polygon fill="#fff0f0" stroke="red" points="987.62,-211.41 900.38,-211.41 900.38,-192.16 987.62,-192.16 987.62,-211.41"/>
<text text-anchor="middle" x="944" y="-197.91" font-family="Helvetica,sans-Serif" font-size="10.00">ImGui::ItemSize</text>
</a>
</g>
</g>
<!-- Node19&#45;&gt;Node67 -->
<g id="edge34_Node000019_Node000067" class="edge">
<title>Node19&#45;&gt;Node67</title>
<g id="a_edge34_Node000019_Node000067"><a xlink:title=" ">
<path fill="none" stroke="#63b8ff" d="M642.89,-210.64C703.56,-208.85 820.87,-205.39 889.48,-203.37"/>
<polygon fill="#63b8ff" stroke="#63b8ff" points="889.16,-206.85 899.05,-203.06 888.95,-199.85 889.16,-206.85"/>
</a>
</g>
</g>
<!-- Node69 -->
<g id="Node000069" class="node">
<title>Node69</title>
<g id="a_Node000069"><a xlink:href="../../df/d13/namespace_im_gui.html#a9971ce57f2a288ac3a12df886c5550d1" target="_top" xlink:title=" ">
<polygon fill="#fff0f0" stroke="red" points="814.88,-372.41 716.38,-372.41 716.38,-353.16 814.88,-353.16 814.88,-372.41"/>
<text text-anchor="middle" x="765.62" y="-358.91" font-family="Helvetica,sans-Serif" font-size="10.00">ImGui::RenderText</text>
</a>
</g>
</g>
<!-- Node19&#45;&gt;Node69 -->
<g id="edge36_Node000019_Node000069" class="edge">
<title>Node19&#45;&gt;Node69</title>
<g id="a_edge36_Node000019_Node000069"><a xlink:title=" ">
<path fill="none" stroke="#63b8ff" d="M608.61,-221.6C620.17,-245.2 652.71,-305.64 697.25,-338.79 702.35,-342.59 708.12,-345.83 714.07,-348.58"/>
<polygon fill="#63b8ff" stroke="#63b8ff" points="712.6,-352.18 723.18,-352.77 715.27,-345.71 712.6,-352.18"/>
</a>
</g>
</g>
<!-- Node80 -->
<g id="Node000080" class="node">
<title>Node80</title>
<g id="a_Node000080"><a xlink:href="../../df/d13/namespace_im_gui.html#aa483b40f6899e1b289b4bf6c2673d1d2" target="_top" xlink:title=" ">
<polygon fill="#fff0f0" stroke="red" points="834,-296.41 697.25,-296.41 697.25,-277.16 834,-277.16 834,-296.41"/>
<text text-anchor="middle" x="765.62" y="-282.91" font-family="Helvetica,sans-Serif" font-size="10.00">ImGui::RenderTextWrapped</text>
</a>
</g>
</g>
<!-- Node19&#45;&gt;Node80 -->
<g id="edge38_Node000019_Node000080" class="edge">
<title>Node19&#45;&gt;Node80</title>
<g id="a_edge38_Node000019_Node000080"><a xlink:title=" ">
<path fill="none" stroke="#63b8ff" d="M617.54,-221.8C635.1,-234.37 667.08,-255.86 697.25,-268.79 701.14,-270.46 705.23,-272.01 709.39,-273.44"/>
<polygon fill="#63b8ff" stroke="#63b8ff" points="708.21,-277.05 718.8,-276.75 710.33,-270.38 708.21,-277.05"/>
</a>
</g>
</g>
<!-- Node20&#45;&gt;Node10 -->
<g id="edge27_Node000020_Node000010" class="edge">
<title>Node20&#45;&gt;Node10</title>
<g id="a_edge27_Node000020_Node000010"><a xlink:title=" ">
<path fill="none" stroke="#63b8ff" d="M959.13,-271.87C991.39,-249.22 1070.68,-193.55 1110.05,-165.9"/>
<polygon fill="#63b8ff" stroke="#63b8ff" points="1111.53,-168.44 1117.71,-159.83 1107.51,-162.71 1111.53,-168.44"/>
</a>
</g>
</g>
<!-- Node24&#45;&gt;Node22 -->
<g id="edge33_Node000024_Node000022" class="edge">
<title>Node24&#45;&gt;Node22</title>
<g id="a_edge33_Node000024_Node000022"><a xlink:title=" ">
<path fill="none" stroke="#63b8ff" d="M808.42,-140.29C830.42,-142.66 857.8,-145.61 882.11,-148.23"/>
<polygon fill="#63b8ff" stroke="#63b8ff" points="881.71,-151.82 892.03,-149.41 882.46,-144.86 881.71,-151.82"/>
</a>
</g>
</g>
<!-- Node67&#45;&gt;Node10 -->
<g id="edge35_Node000067_Node000010" class="edge">
<title>Node67&#45;&gt;Node10</title>
<g id="a_edge35_Node000067_Node000010"><a xlink:title=" ">
<path fill="none" stroke="#63b8ff" d="M981.25,-191.76C1015.66,-182.24 1066.94,-168.06 1100.18,-158.87"/>
<polygon fill="#63b8ff" stroke="#63b8ff" points="1101,-162 1109.71,-155.96 1099.14,-155.25 1101,-162"/>
</a>
</g>
</g>
<!-- Node69&#45;&gt;Node11 -->
<g id="edge37_Node000069_Node000011" class="edge">
<title>Node69&#45;&gt;Node11</title>
<g id="a_edge37_Node000069_Node000011"><a xlink:title=" ">
<path fill="none" stroke="#63b8ff" d="M815.29,-362.79C829.29,-362.79 844.97,-362.79 860.41,-362.79"/>
<polygon fill="#63b8ff" stroke="#63b8ff" points="860.05,-366.29 870.05,-362.79 860.05,-359.29 860.05,-366.29"/>
</a>
</g>
</g>
</g>
</svg>

<g id="navigator" transform="translate(0 0)" fill="#404254">
  <rect fill="#f2f5e9" fill-opacity="0.5" stroke="#606060" stroke-width=".5" x="0" y="0" width="60" height="60"/>
  <use id="zoomplus" xlink:href="#zoomPlus" x="17" y="9" onmousedown="handleZoom(evt,'in')"/>
  <use id="zoomminus" xlink:href="#zoomMin" x="42" y="9" onmousedown="handleZoom(evt,'out')"/>
  <use id="reset" xlink:href="#resetDef" x="30" y="36" onmousedown="handleReset()"/>
   <use id="arrowup" xlink:href="#arrowUp" x="0" y="0" onmousedown="handlePan(0,-1)"/>
  <use id="arrowright" xlink:href="#arrowRight" x="0" y="0" onmousedown="handlePan(1,0)"/>
  <use id="arrowdown" xlink:href="#arrowDown" x="0" y="0" onmousedown="handlePan(0,1)"/>
  <use id="arrowleft" xlink:href="#arrowLeft" x="0" y="0" onmousedown="handlePan(-1,0)"/>
</g>
<svg viewBox="0 0 15 15" width="100%" height="30px" preserveAspectRatio="xMaxYMin meet">
 <g id="arrow_out" transform="scale(0.3 0.3)">
  <a xlink:href="class_slic3r_1_1_g_u_i_1_1_notification_manager_1_1_hint_notification_ad269ae550f9e86a5406d62707ded0cc7_cgraph_org.svg" target="_base">
   <rect id="button" ry="5" rx="5" y="6" x="6" height="38" width="38"
        fill="#f2f5e9" fill-opacity="0.5" stroke="#606060" stroke-width="1.0"/>
   <path id="arrow"
     d="M 11.500037,31.436501 C 11.940474,20.09759 22.043105,11.32322 32.158766,21.979434 L 37.068811,17.246167 C 37.068811,17.246167 37.088388,32 37.088388,32 L 22.160133,31.978069 C 22.160133,31.978069 26.997745,27.140456 26.997745,27.140456 C 18.528582,18.264221 13.291696,25.230495 11.500037,31.436501 z"
     style="fill:#404040;"/>
  </a>
 </g>
</svg>

<style type='text/css'>
<![CDATA[
[data-mouse-over-selected='false'] { opacity: 0.7; }
[data-mouse-over-selected='true']  { opacity: 1.0; }
]]>
</style>
<script type="application/ecmascript"><![CDATA[
document.addEventListener('DOMContentLoaded', (event) => {
  highlightEdges();
  highlightAdjacentNodes();
});
]]></script>
</svg>
