<?xml version="1.0" encoding="UTF-8" standalone="no"?>
<!DOCTYPE svg PUBLIC "-//W3C//DTD SVG 1.1//EN"
 "http://www.w3.org/Graphics/SVG/1.1/DTD/svg11.dtd">
<!-- Generated by graphviz version 8.0.5 (20230430.1635)
 -->
<!-- Title: stk600_xprog_write_byte Pages: 1 -->
<!--zoomable 593 -->

<svg id="main" version="1.1" xmlns="http://www.w3.org/2000/svg" xmlns:xlink="http://www.w3.org/1999/xlink" xml:space="preserve" onload="init(evt)">
<style type="text/css"><![CDATA[
.node, .edge {opacity: 0.7;}
.node.selected, .edge.selected {opacity: 1;}
.edge:hover path { stroke: red; }
.edge:hover polygon { stroke: red; fill: red; }
]]></style>

<defs>
  <circle id="rim" cx="0" cy="0" r="7"/>
  <circle id="rim2" cx="0" cy="0" r="3.5"/>
  <g id="zoomPlus">
    <use xlink:href="#rim" fill="#404040"><set attributeName="fill" to="#808080" begin="zoomplus.mouseover" end="zoomplus.mouseout"/></use>
    <path d="M-4,0h8M0,-4v8" fill="none" stroke="white" stroke-width="1.5" pointer-events="none"/>
  </g>
  <g id="zoomMin">
    <use xlink:href="#rim" fill="#404040"><set attributeName="fill" to="#808080" begin="zoomminus.mouseover" end="zoomminus.mouseout"/></use>
    <path d="M-4,0h8" fill="none" stroke="white" stroke-width="1.5" pointer-events="none"/>
  </g>
  <g id="arrowUp" transform="translate(30 24)">
    <use xlink:href="#rim"/>
    <path pointer-events="none" fill="none" stroke="white" stroke-width="1.5" d="M0,-3.0v7 M-2.5,-0.5L0,-3.0L2.5,-0.5"/>
  </g>
  <g id="arrowRight" transform="rotate(90) translate(36 -43)">
    <use xlink:href="#rim"/>
    <path pointer-events="none" fill="none" stroke="white" stroke-width="1.5" d="M0,-3.0v7 M-2.5,-0.5L0,-3.0L2.5,-0.5"/>
  </g>
  <g id="arrowDown" transform="rotate(180) translate(-30 -48)">
    <use xlink:href="#rim"/>
    <path pointer-events="none" fill="none" stroke="white" stroke-width="1.5" d="M0,-3.0v7 M-2.5,-0.5L0,-3.0L2.5,-0.5"/>
  </g>
  <g id="arrowLeft" transform="rotate(270) translate(-36 17)">
    <use xlink:href="#rim"/>
    <path pointer-events="none" fill="none" stroke="white" stroke-width="1.5" d="M0,-3.0v7 M-2.5,-0.5L0,-3.0L2.5,-0.5"/>
  </g>
  <g id="resetDef">
    <use xlink:href="#rim2" fill="#404040"><set attributeName="fill" to="#808080" begin="reset.mouseover" end="reset.mouseout"/></use>
  </g>
</defs>
<script type="application/ecmascript">
var viewWidth = 971;
var viewHeight = 593;
var sectionId = 'dynsection-188';
</script>
<script type="application/ecmascript" xlink:href="../../svg.min.js"/>
<svg id="graph" class="graph">
<g id="viewport">
<title>stk600_xprog_write_byte</title>
<!-- Node1 -->
<g id="Node000001" class="node">
<title>Node1</title>
<g id="a_Node000001"><a xlink:title=" ">
<polygon fill="#999999" stroke="#666666" points="124.75,-57.25 0,-57.25 0,-38 124.75,-38 124.75,-57.25"/>
<text text-anchor="middle" x="62.38" y="-43.75" font-family="Helvetica,sans-Serif" font-size="10.00">stk600_xprog_write_byte</text>
</a>
</g>
</g>
<!-- Node2 -->
<g id="Node000002" class="node">
<title>Node2</title>
<g id="a_Node000002"><a xlink:href="../../d0/d29/main_8c.html#ae3011b9c6440c863e64eed3fed5106e3" target="_top" xlink:title=" ">
<polygon fill="white" stroke="#666666" points="962.5,-340.25 867,-340.25 867,-321 962.5,-321 962.5,-340.25"/>
<text text-anchor="middle" x="914.75" y="-326.75" font-family="Helvetica,sans-Serif" font-size="10.00">avrdude_message</text>
</a>
</g>
</g>
<!-- Node1&#45;&gt;Node2 -->
<g id="edge1_Node000001_Node000002" class="edge">
<title>Node1&#45;&gt;Node2</title>
<g id="a_edge1_Node000001_Node000002"><a xlink:title=" ">
<path fill="none" stroke="#63b8ff" d="M125.07,-47.62C187.01,-47.62 285.18,-47.62 370.12,-47.62 370.12,-47.62 370.12,-47.62 632.5,-47.62 731.49,-47.62 762.56,-77.11 831,-148.62 876.69,-196.37 900.19,-273.77 909.23,-310.3"/>
<polygon fill="#63b8ff" stroke="#63b8ff" points="905.97,-310.71 911.67,-319.64 912.78,-309.1 905.97,-310.71"/>
</a>
</g>
</g>
<!-- Node3 -->
<g id="Node000003" class="node">
<title>Node3</title>
<g id="a_Node000003"><a xlink:href="../../d9/d12/stk500v2_8c.html#a6b664e34b74d32e4bb62e37cd796687a" target="_top" xlink:title=" ">
<polygon fill="white" stroke="#666666" points="283.25,-132.25 160.75,-132.25 160.75,-113 283.25,-113 283.25,-132.25"/>
<text text-anchor="middle" x="222" y="-118.75" font-family="Helvetica,sans-Serif" font-size="10.00">stk600_xprog_command</text>
</a>
</g>
</g>
<!-- Node1&#45;&gt;Node3 -->
<g id="edge2_Node000001_Node000003" class="edge">
<title>Node1&#45;&gt;Node3</title>
<g id="a_edge2_Node000001_Node000003"><a xlink:title=" ">
<path fill="none" stroke="#63b8ff" d="M84.63,-57.74C111.74,-70.64 158.81,-93.03 189.94,-107.84"/>
<polygon fill="#63b8ff" stroke="#63b8ff" points="188.29,-111.41 198.83,-112.55 191.3,-105.09 188.29,-111.41"/>
</a>
</g>
</g>
<!-- Node17 -->
<g id="Node000017" class="node">
<title>Node17</title>
<g id="a_Node000017"><a xlink:href="../../d9/d12/stk500v2_8c.html#a8ee0819d6989e4c4691c6f3ef7d4524f" target="_top" xlink:title=" ">
<polygon fill="white" stroke="#666666" points="282.12,-19.25 161.88,-19.25 161.88,0 282.12,0 282.12,-19.25"/>
<text text-anchor="middle" x="222" y="-5.75" font-family="Helvetica,sans-Serif" font-size="10.00">stk600_xprog_memtype</text>
</a>
</g>
</g>
<!-- Node1&#45;&gt;Node17 -->
<g id="edge25_Node000001_Node000017" class="edge">
<title>Node1&#45;&gt;Node17</title>
<g id="a_edge25_Node000001_Node000017"><a xlink:title=" ">
<path fill="none" stroke="#63b8ff" d="M105.2,-37.54C124.7,-32.84 148.1,-27.2 168.74,-22.22"/>
<polygon fill="#63b8ff" stroke="#63b8ff" points="169.35,-25.44 178.25,-19.69 167.71,-18.63 169.35,-25.44"/>
</a>
</g>
</g>
<!-- Node3&#45;&gt;Node2 -->
<g id="edge3_Node000003_Node000002" class="edge">
<title>Node3&#45;&gt;Node2</title>
<g id="a_edge3_Node000003_Node000002"><a xlink:title=" ">
<path fill="none" stroke="#63b8ff" d="M269.27,-132.71C325.06,-143.97 421.8,-160.62 505.75,-160.62 505.75,-160.62 505.75,-160.62 632.5,-160.62 721.13,-160.62 756.99,-130.87 831,-179.62 877.67,-210.37 900.31,-276.74 909.12,-310.31"/>
<polygon fill="#63b8ff" stroke="#63b8ff" points="905.89,-310.83 911.68,-319.7 912.69,-309.15 905.89,-310.83"/>
</a>
</g>
</g>
<!-- Node4 -->
<g id="Node000004" class="node">
<title>Node4</title>
<g id="a_Node000004"><a xlink:href="../../d3/dbc/config__gram_8c.html#af07d89f5ceaea0c7c8252cc41fd75f37" target="_top" xlink:title=" ">
<polygon fill="white" stroke="#666666" points="387.38,-132.25 354.88,-132.25 354.88,-113 387.38,-113 387.38,-132.25"/>
<text text-anchor="middle" x="371.12" y="-118.75" font-family="Helvetica,sans-Serif" font-size="10.00">free</text>
</a>
</g>
</g>
<!-- Node3&#45;&gt;Node4 -->
<g id="edge4_Node000003_Node000004" class="edge">
<title>Node3&#45;&gt;Node4</title>
<g id="a_edge4_Node000003_Node000004"><a xlink:title=" ">
<path fill="none" stroke="#63b8ff" d="M283.69,-122.62C304.66,-122.62 327.06,-122.62 343.81,-122.62"/>
<polygon fill="#63b8ff" stroke="#63b8ff" points="343.41,-126.13 353.41,-122.62 343.41,-119.13 343.41,-126.13"/>
</a>
</g>
</g>
<!-- Node5 -->
<g id="Node000005" class="node">
<title>Node5</title>
<g id="a_Node000005"><a xlink:href="../../d3/dbc/config__gram_8c.html#a8d12df60024a0ab3de3a276240433890" target="_top" xlink:title=" ">
<polygon fill="white" stroke="#666666" points="393.38,-95.25 348.88,-95.25 348.88,-76 393.38,-76 393.38,-95.25"/>
<text text-anchor="middle" x="371.12" y="-81.75" font-family="Helvetica,sans-Serif" font-size="10.00">malloc</text>
</a>
</g>
</g>
<!-- Node3&#45;&gt;Node5 -->
<g id="edge5_Node000003_Node000005" class="edge">
<title>Node3&#45;&gt;Node5</title>
<g id="a_edge5_Node000003_Node000005"><a xlink:title=" ">
<path fill="none" stroke="#63b8ff" d="M263.2,-112.51C286.78,-106.58 316.17,-99.19 338.16,-93.66"/>
<polygon fill="#63b8ff" stroke="#63b8ff" points="338.77,-96.87 347.61,-91.03 337.06,-90.08 338.77,-96.87"/>
</a>
</g>
</g>
<!-- Node6 -->
<g id="Node000006" class="node">
<title>Node6</title>
<g id="a_Node000006"><a xlink:href="../../d9/d12/stk500v2_8c.html#a8bb7c2e6a6df9a5f5bcc5575dffb0c93" target="_top" xlink:title=" ">
<polygon fill="white" stroke="#666666" points="423,-359.25 319.25,-359.25 319.25,-340 423,-340 423,-359.25"/>
<text text-anchor="middle" x="371.12" y="-345.75" font-family="Helvetica,sans-Serif" font-size="10.00">stk500v2_command</text>
</a>
</g>
</g>
<!-- Node3&#45;&gt;Node6 -->
<g id="edge6_Node000003_Node000006" class="edge">
<title>Node3&#45;&gt;Node6</title>
<g id="a_edge6_Node000003_Node000006"><a xlink:title=" ">
<path fill="none" stroke="#63b8ff" d="M229.51,-132.67C252.16,-167.61 327.72,-284.2 357.71,-330.47"/>
<polygon fill="#63b8ff" stroke="#63b8ff" points="355.31,-332.21 363.69,-338.69 361.19,-328.4 355.31,-332.21"/>
</a>
</g>
</g>
<!-- Node6&#45;&gt;Node2 -->
<g id="edge7_Node000006_Node000002" class="edge">
<title>Node6&#45;&gt;Node2</title>
<g id="a_edge7_Node000006_Node000002"><a xlink:title=" ">
<path fill="none" stroke="#63b8ff" d="M380.57,-359.48C428.18,-413.81 666.64,-670.3 831,-555.62 899.31,-507.97 911.39,-397.33 913.41,-351.3"/>
<polygon fill="#63b8ff" stroke="#63b8ff" points="916.93,-351.7 913.74,-341.59 909.93,-351.48 916.93,-351.7"/>
</a>
</g>
</g>
<!-- Node7 -->
<g id="Node000007" class="node">
<title>Node7</title>
<g id="a_Node000007"><a xlink:href="../../d9/d12/stk500v2_8c.html#a0c65811e2b906244f8278205f6567191" target="_top" xlink:title=" ">
<polygon fill="white" stroke="#666666" points="554.5,-359.25 459,-359.25 459,-340 554.5,-340 554.5,-359.25"/>
<text text-anchor="middle" x="506.75" y="-345.75" font-family="Helvetica,sans-Serif" font-size="10.00">stk500v2_getsync</text>
</a>
</g>
</g>
<!-- Node6&#45;&gt;Node7 -->
<g id="edge8_Node000006_Node000007" class="edge">
<title>Node6&#45;&gt;Node7</title>
<g id="a_edge8_Node000006_Node000007"><a xlink:title=" ">
<path fill="none" stroke="#63b8ff" d="M423.41,-349.62C431.4,-349.62 439.71,-349.62 447.84,-349.62"/>
<polygon fill="#63b8ff" stroke="#63b8ff" points="447.77,-353.13 457.77,-349.62 447.77,-346.13 447.77,-353.13"/>
</a>
</g>
</g>
<!-- Node8 -->
<g id="Node000008" class="node">
<title>Node8</title>
<g id="a_Node000008"><a xlink:href="../../d9/d12/stk500v2_8c.html#afde730659f26cf880986235970003b2e" target="_top" xlink:title=" ">
<polygon fill="white" stroke="#666666" points="671.38,-435.25 591.62,-435.25 591.62,-416 671.38,-416 671.38,-435.25"/>
<text text-anchor="middle" x="631.5" y="-421.75" font-family="Helvetica,sans-Serif" font-size="10.00">stk500v2_recv</text>
</a>
</g>
</g>
<!-- Node6&#45;&gt;Node8 -->
<g id="edge23_Node000006_Node000008" class="edge">
<title>Node6&#45;&gt;Node8</title>
<g id="a_edge23_Node000006_Node000008"><a xlink:title=" ">
<path fill="none" stroke="#63b8ff" d="M406.44,-359.72C452.7,-373.33 535.14,-397.58 586.09,-412.56"/>
<polygon fill="#63b8ff" stroke="#63b8ff" points="584.88,-416.15 595.46,-415.61 586.85,-409.43 584.88,-416.15"/>
</a>
</g>
</g>
<!-- Node13 -->
<g id="Node000013" class="node">
<title>Node13</title>
<g id="a_Node000013"><a xlink:href="../../d9/d12/stk500v2_8c.html#a1f8266ad2201e09606ed54b65f6db872" target="_top" xlink:title=" ">
<polygon fill="white" stroke="#666666" points="672.5,-302.25 590.5,-302.25 590.5,-283 672.5,-283 672.5,-302.25"/>
<text text-anchor="middle" x="631.5" y="-288.75" font-family="Helvetica,sans-Serif" font-size="10.00">stk500v2_send</text>
</a>
</g>
</g>
<!-- Node6&#45;&gt;Node13 -->
<g id="edge24_Node000006_Node000013" class="edge">
<title>Node6&#45;&gt;Node13</title>
<g id="a_edge24_Node000006_Node000013"><a xlink:title=" ">
<path fill="none" stroke="#63b8ff" d="M418.02,-339.5C463.36,-329.5 532.55,-314.23 579.57,-303.86"/>
<polygon fill="#63b8ff" stroke="#63b8ff" points="580.12,-307.1 589.13,-301.53 578.61,-300.27 580.12,-307.1"/>
</a>
</g>
</g>
<!-- Node7&#45;&gt;Node2 -->
<g id="edge9_Node000007_Node000002" class="edge">
<title>Node7&#45;&gt;Node2</title>
<g id="a_edge9_Node000007_Node000002"><a xlink:title=" ">
<path fill="none" stroke="#63b8ff" d="M554.72,-347.43C629.43,-343.93 775.15,-337.11 856.08,-333.32"/>
<polygon fill="#63b8ff" stroke="#63b8ff" points="855.75,-336.8 865.58,-332.83 855.42,-329.8 855.75,-336.8"/>
</a>
</g>
</g>
<!-- Node7&#45;&gt;Node8 -->
<g id="edge10_Node000007_Node000008" class="edge">
<title>Node7&#45;&gt;Node8</title>
<g id="a_edge10_Node000007_Node000008"><a xlink:title=" ">
<path fill="none" stroke="#63b8ff" d="M524.05,-359.72C544.8,-372.56 580.87,-394.9 605.2,-409.96"/>
<polygon fill="#63b8ff" stroke="#63b8ff" points="603.18,-413.44 613.52,-415.73 606.86,-407.49 603.18,-413.44"/>
</a>
</g>
</g>
<!-- Node7&#45;&gt;Node13 -->
<g id="edge17_Node000007_Node000013" class="edge">
<title>Node7&#45;&gt;Node13</title>
<g id="a_edge17_Node000007_Node000013"><a xlink:title=" ">
<path fill="none" stroke="#63b8ff" d="M529.41,-339.57C548.78,-330.57 577.4,-317.28 599.25,-307.14"/>
<polygon fill="#63b8ff" stroke="#63b8ff" points="600.46,-309.97 608.05,-302.58 597.51,-303.62 600.46,-309.97"/>
</a>
</g>
</g>
<!-- Node8&#45;&gt;Node2 -->
<g id="edge11_Node000008_Node000002" class="edge">
<title>Node8&#45;&gt;Node2</title>
<g id="a_edge11_Node000008_Node000002"><a xlink:title=" ">
<path fill="none" stroke="#63b8ff" d="M667.55,-415.56C707.42,-403.91 774.35,-383.73 831,-363.62 847.34,-357.82 865.24,-350.77 880.2,-344.68"/>
<polygon fill="#63b8ff" stroke="#63b8ff" points="881.11,-347.68 889.03,-340.64 878.45,-341.21 881.11,-347.68"/>
</a>
</g>
</g>
<!-- Node9 -->
<g id="Node000009" class="node">
<title>Node9</title>
<g id="a_Node000009"><a xlink:href="../../d7/d8a/unistd_8cpp.html#adf30830f5265e55035171c301eb9c3fb" target="_top" xlink:title=" ">
<polygon fill="white" stroke="#666666" points="805.88,-472.25 733.62,-472.25 733.62,-453 805.88,-453 805.88,-472.25"/>
<text text-anchor="middle" x="769.75" y="-458.75" font-family="Helvetica,sans-Serif" font-size="10.00">gettimeofday</text>
</a>
</g>
</g>
<!-- Node8&#45;&gt;Node9 -->
<g id="edge12_Node000008_Node000009" class="edge">
<title>Node8&#45;&gt;Node9</title>
<g id="a_edge12_Node000008_Node000009"><a xlink:title=" ">
<path fill="none" stroke="#63b8ff" d="M669.73,-435.74C686.17,-440.2 705.66,-445.49 722.98,-450.2"/>
<polygon fill="#63b8ff" stroke="#63b8ff" points="721.87,-453.79 732.44,-453.04 723.71,-447.04 721.87,-453.79"/>
</a>
</g>
</g>
<!-- Node10 -->
<g id="Node000010" class="node">
<title>Node10</title>
<g id="a_Node000010"><a xlink:href="../../d9/d12/stk500v2_8c.html#ae344676760f23d49cb0d086a4e3c5e89" target="_top" xlink:title=" ">
<polygon fill="white" stroke="#666666" points="822.75,-546.25 716.75,-546.25 716.75,-527 822.75,-527 822.75,-546.25"/>
<text text-anchor="middle" x="769.75" y="-532.75" font-family="Helvetica,sans-Serif" font-size="10.00">stk500v2_jtag3_recv</text>
</a>
</g>
</g>
<!-- Node8&#45;&gt;Node10 -->
<g id="edge13_Node000008_Node000010" class="edge">
<title>Node8&#45;&gt;Node10</title>
<g id="a_edge13_Node000008_Node000010"><a xlink:title=" ">
<path fill="none" stroke="#63b8ff" d="M637.96,-435.69C648.82,-454.78 675.02,-496.3 708.5,-518.62 710.27,-519.81 712.12,-520.91 714.03,-521.95"/>
<polygon fill="#63b8ff" stroke="#63b8ff" points="712.4,-525.51 722.95,-526.55 715.35,-519.16 712.4,-525.51"/>
</a>
</g>
</g>
<!-- Node11 -->
<g id="Node000011" class="node">
<title>Node11</title>
<g id="a_Node000011"><a xlink:href="../../d9/d12/stk500v2_8c.html#abb5a89e17e6d6be91df10596a0ee64fb" target="_top" xlink:title=" ">
<polygon fill="white" stroke="#666666" points="829.88,-509.25 709.62,-509.25 709.62,-490 829.88,-490 829.88,-509.25"/>
<text text-anchor="middle" x="769.75" y="-495.75" font-family="Helvetica,sans-Serif" font-size="10.00">stk500v2_jtagmkII_recv</text>
</a>
</g>
</g>
<!-- Node8&#45;&gt;Node11 -->
<g id="edge14_Node000008_Node000011" class="edge">
<title>Node8&#45;&gt;Node11</title>
<g id="a_edge14_Node000008_Node000011"><a xlink:title=" ">
<path fill="none" stroke="#63b8ff" d="M643.53,-435.69C657.64,-448.09 683.27,-469.04 708.5,-481.62 711.58,-483.16 714.81,-484.59 718.11,-485.92"/>
<polygon fill="#63b8ff" stroke="#63b8ff" points="716.55,-489.44 727.14,-489.59 718.96,-482.87 716.55,-489.44"/>
</a>
</g>
</g>
<!-- Node12 -->
<g id="Node000012" class="node">
<title>Node12</title>
<g id="a_Node000012"><a xlink:href="../../d9/d12/stk500v2_8c.html#a846d441ffc8df4a8d08d17c5f842962f" target="_top" xlink:title=" ">
<polygon fill="white" stroke="#666666" points="821.62,-435.25 717.88,-435.25 717.88,-416 821.62,-416 821.62,-435.25"/>
<text text-anchor="middle" x="769.75" y="-421.75" font-family="Helvetica,sans-Serif" font-size="10.00">stk500v2_recv_mk2</text>
</a>
</g>
</g>
<!-- Node8&#45;&gt;Node12 -->
<g id="edge15_Node000008_Node000012" class="edge">
<title>Node8&#45;&gt;Node12</title>
<g id="a_edge15_Node000008_Node000012"><a xlink:title=" ">
<path fill="none" stroke="#63b8ff" d="M671.54,-425.62C682.5,-425.62 694.69,-425.62 706.64,-425.62"/>
<polygon fill="#63b8ff" stroke="#63b8ff" points="706.5,-429.13 716.5,-425.62 706.5,-422.13 706.5,-429.13"/>
</a>
</g>
</g>
<!-- Node12&#45;&gt;Node2 -->
<g id="edge16_Node000012_Node000002" class="edge">
<title>Node12&#45;&gt;Node2</title>
<g id="a_edge16_Node000012_Node000002"><a xlink:title=" ">
<path fill="none" stroke="#63b8ff" d="M801.72,-415.54C811.42,-411.79 821.94,-407.1 831,-401.62 856.1,-386.44 881.14,-363.62 896.99,-347.97"/>
<polygon fill="#63b8ff" stroke="#63b8ff" points="898.83,-351.08 903.39,-341.52 893.86,-346.15 898.83,-351.08"/>
</a>
</g>
</g>
<!-- Node13&#45;&gt;Node2 -->
<g id="edge18_Node000013_Node000002" class="edge">
<title>Node13&#45;&gt;Node2</title>
<g id="a_edge18_Node000013_Node000002"><a xlink:title=" ">
<path fill="none" stroke="#63b8ff" d="M672.96,-287.62C713.46,-283.77 777.3,-280.88 831,-292.62 851.02,-297 871.98,-306.69 887.79,-315.18"/>
<polygon fill="#63b8ff" stroke="#63b8ff" points="885.94,-318.72 896.38,-320.53 889.35,-312.6 885.94,-318.72"/>
</a>
</g>
</g>
<!-- Node14 -->
<g id="Node000014" class="node">
<title>Node14</title>
<g id="a_Node000014"><a xlink:href="../../d9/d12/stk500v2_8c.html#adfeca4e918f67c510bb1cf54184ab55e" target="_top" xlink:title=" ">
<polygon fill="white" stroke="#666666" points="823.88,-245.25 715.62,-245.25 715.62,-226 823.88,-226 823.88,-245.25"/>
<text text-anchor="middle" x="769.75" y="-231.75" font-family="Helvetica,sans-Serif" font-size="10.00">stk500v2_jtag3_send</text>
</a>
</g>
</g>
<!-- Node13&#45;&gt;Node14 -->
<g id="edge19_Node000013_Node000014" class="edge">
<title>Node13&#45;&gt;Node14</title>
<g id="a_edge19_Node000013_Node000014"><a xlink:title=" ">
<path fill="none" stroke="#63b8ff" d="M655.04,-282.62C670.12,-275.99 690.44,-267.14 708.5,-259.62 716.31,-256.38 724.72,-252.97 732.71,-249.77"/>
<polygon fill="#63b8ff" stroke="#63b8ff" points="733.88,-252.68 741.88,-245.73 731.29,-246.17 733.88,-252.68"/>
</a>
</g>
</g>
<!-- Node15 -->
<g id="Node000015" class="node">
<title>Node15</title>
<g id="a_Node000015"><a xlink:href="../../d9/d12/stk500v2_8c.html#a6798e90b37755b38064757fd02063c5c" target="_top" xlink:title=" ">
<polygon fill="white" stroke="#666666" points="831,-208.25 708.5,-208.25 708.5,-189 831,-189 831,-208.25"/>
<text text-anchor="middle" x="769.75" y="-194.75" font-family="Helvetica,sans-Serif" font-size="10.00">stk500v2_jtagmkII_send</text>
</a>
</g>
</g>
<!-- Node13&#45;&gt;Node15 -->
<g id="edge20_Node000013_Node000015" class="edge">
<title>Node13&#45;&gt;Node15</title>
<g id="a_edge20_Node000013_Node000015"><a xlink:title=" ">
<path fill="none" stroke="#63b8ff" d="M639.75,-282.67C652.08,-266.47 678.69,-234.41 708.5,-216.62 710.71,-215.3 713.03,-214.07 715.42,-212.93"/>
<polygon fill="#63b8ff" stroke="#63b8ff" points="716.64,-215.79 724.5,-208.68 713.93,-209.34 716.64,-215.79"/>
</a>
</g>
</g>
<!-- Node16 -->
<g id="Node000016" class="node">
<title>Node16</title>
<g id="a_Node000016"><a xlink:href="../../d9/d12/stk500v2_8c.html#a25b320aa0f79cfb3e70b9174063c7fc2" target="_top" xlink:title=" ">
<polygon fill="white" stroke="#666666" points="822.75,-321.25 716.75,-321.25 716.75,-302 822.75,-302 822.75,-321.25"/>
<text text-anchor="middle" x="769.75" y="-307.75" font-family="Helvetica,sans-Serif" font-size="10.00">stk500v2_send_mk2</text>
</a>
</g>
</g>
<!-- Node13&#45;&gt;Node16 -->
<g id="edge21_Node000013_Node000016" class="edge">
<title>Node13&#45;&gt;Node16</title>
<g id="a_edge21_Node000013_Node000016"><a xlink:title=" ">
<path fill="none" stroke="#63b8ff" d="M672.64,-298.22C682.99,-299.67 694.39,-301.26 705.6,-302.82"/>
<polygon fill="#63b8ff" stroke="#63b8ff" points="704.87,-306.39 715.25,-304.3 705.83,-299.46 704.87,-306.39"/>
</a>
</g>
</g>
<!-- Node16&#45;&gt;Node2 -->
<g id="edge22_Node000016_Node000002" class="edge">
<title>Node16&#45;&gt;Node2</title>
<g id="a_edge22_Node000016_Node000002"><a xlink:title=" ">
<path fill="none" stroke="#63b8ff" d="M823.19,-318.59C833.83,-320.01 845.08,-321.5 855.89,-322.94"/>
<polygon fill="#63b8ff" stroke="#63b8ff" points="855.15,-326.5 865.53,-324.35 856.08,-319.56 855.15,-326.5"/>
</a>
</g>
</g>
</g>
</svg>

<g id="navigator" transform="translate(0 0)" fill="#404254">
  <rect fill="#f2f5e9" fill-opacity="0.5" stroke="#606060" stroke-width=".5" x="0" y="0" width="60" height="60"/>
  <use id="zoomplus" xlink:href="#zoomPlus" x="17" y="9" onmousedown="handleZoom(evt,'in')"/>
  <use id="zoomminus" xlink:href="#zoomMin" x="42" y="9" onmousedown="handleZoom(evt,'out')"/>
  <use id="reset" xlink:href="#resetDef" x="30" y="36" onmousedown="handleReset()"/>
   <use id="arrowup" xlink:href="#arrowUp" x="0" y="0" onmousedown="handlePan(0,-1)"/>
  <use id="arrowright" xlink:href="#arrowRight" x="0" y="0" onmousedown="handlePan(1,0)"/>
  <use id="arrowdown" xlink:href="#arrowDown" x="0" y="0" onmousedown="handlePan(0,1)"/>
  <use id="arrowleft" xlink:href="#arrowLeft" x="0" y="0" onmousedown="handlePan(-1,0)"/>
</g>
<svg viewBox="0 0 15 15" width="100%" height="30px" preserveAspectRatio="xMaxYMin meet">
 <g id="arrow_out" transform="scale(0.3 0.3)">
  <a xlink:href="stk500v2_8c_aaeffbd12d03580b37f3ff06e46424b17_cgraph_org.svg" target="_base">
   <rect id="button" ry="5" rx="5" y="6" x="6" height="38" width="38"
        fill="#f2f5e9" fill-opacity="0.5" stroke="#606060" stroke-width="1.0"/>
   <path id="arrow"
     d="M 11.500037,31.436501 C 11.940474,20.09759 22.043105,11.32322 32.158766,21.979434 L 37.068811,17.246167 C 37.068811,17.246167 37.088388,32 37.088388,32 L 22.160133,31.978069 C 22.160133,31.978069 26.997745,27.140456 26.997745,27.140456 C 18.528582,18.264221 13.291696,25.230495 11.500037,31.436501 z"
     style="fill:#404040;"/>
  </a>
 </g>
</svg>

<style type='text/css'>
<![CDATA[
[data-mouse-over-selected='false'] { opacity: 0.7; }
[data-mouse-over-selected='true']  { opacity: 1.0; }
]]>
</style>
<script type="application/ecmascript"><![CDATA[
document.addEventListener('DOMContentLoaded', (event) => {
  highlightEdges();
  highlightAdjacentNodes();
});
]]></script>
</svg>
