<?xml version="1.0" encoding="UTF-8" standalone="no"?>
<!DOCTYPE svg PUBLIC "-//W3C//DTD SVG 1.1//EN"
 "http://www.w3.org/Graphics/SVG/1.1/DTD/svg11.dtd">
<!-- Generated by graphviz version 8.0.5 (20230430.1635)
 -->
<!-- Title: stk500v2_print_parms1 Pages: 1 -->
<!--zoomable 522 -->

<svg id="main" version="1.1" xmlns="http://www.w3.org/2000/svg" xmlns:xlink="http://www.w3.org/1999/xlink" xml:space="preserve" onload="init(evt)">
<style type="text/css"><![CDATA[
.node, .edge {opacity: 0.7;}
.node.selected, .edge.selected {opacity: 1;}
.edge:hover path { stroke: red; }
.edge:hover polygon { stroke: red; fill: red; }
]]></style>

<defs>
  <circle id="rim" cx="0" cy="0" r="7"/>
  <circle id="rim2" cx="0" cy="0" r="3.5"/>
  <g id="zoomPlus">
    <use xlink:href="#rim" fill="#404040"><set attributeName="fill" to="#808080" begin="zoomplus.mouseover" end="zoomplus.mouseout"/></use>
    <path d="M-4,0h8M0,-4v8" fill="none" stroke="white" stroke-width="1.5" pointer-events="none"/>
  </g>
  <g id="zoomMin">
    <use xlink:href="#rim" fill="#404040"><set attributeName="fill" to="#808080" begin="zoomminus.mouseover" end="zoomminus.mouseout"/></use>
    <path d="M-4,0h8" fill="none" stroke="white" stroke-width="1.5" pointer-events="none"/>
  </g>
  <g id="arrowUp" transform="translate(30 24)">
    <use xlink:href="#rim"/>
    <path pointer-events="none" fill="none" stroke="white" stroke-width="1.5" d="M0,-3.0v7 M-2.5,-0.5L0,-3.0L2.5,-0.5"/>
  </g>
  <g id="arrowRight" transform="rotate(90) translate(36 -43)">
    <use xlink:href="#rim"/>
    <path pointer-events="none" fill="none" stroke="white" stroke-width="1.5" d="M0,-3.0v7 M-2.5,-0.5L0,-3.0L2.5,-0.5"/>
  </g>
  <g id="arrowDown" transform="rotate(180) translate(-30 -48)">
    <use xlink:href="#rim"/>
    <path pointer-events="none" fill="none" stroke="white" stroke-width="1.5" d="M0,-3.0v7 M-2.5,-0.5L0,-3.0L2.5,-0.5"/>
  </g>
  <g id="arrowLeft" transform="rotate(270) translate(-36 17)">
    <use xlink:href="#rim"/>
    <path pointer-events="none" fill="none" stroke="white" stroke-width="1.5" d="M0,-3.0v7 M-2.5,-0.5L0,-3.0L2.5,-0.5"/>
  </g>
  <g id="resetDef">
    <use xlink:href="#rim2" fill="#404040"><set attributeName="fill" to="#808080" begin="reset.mouseover" end="reset.mouseout"/></use>
  </g>
</defs>
<script type="application/ecmascript">
var viewWidth = 947;
var viewHeight = 522;
var sectionId = 'dynsection-119';
</script>
<script type="application/ecmascript" xlink:href="../../svg.min.js"/>
<svg id="graph" class="graph">
<g id="viewport">
<title>stk500v2_print_parms1</title>
<!-- Node1 -->
<g id="Node000001" class="node">
<title>Node1</title>
<g id="a_Node000001"><a xlink:title=" ">
<polygon fill="#999999" stroke="#666666" points="117.25,-170.39 0,-170.39 0,-151.14 117.25,-151.14 117.25,-170.39"/>
<text text-anchor="middle" x="58.62" y="-156.89" font-family="Helvetica,sans-Serif" font-size="10.00">stk500v2_print_parms1</text>
</a>
</g>
</g>
<!-- Node2 -->
<g id="Node000002" class="node">
<title>Node2</title>
<g id="a_Node000002"><a xlink:href="../../d0/d29/main_8c.html#ae3011b9c6440c863e64eed3fed5106e3" target="_top" xlink:title=" ">
<polygon fill="white" stroke="#666666" points="938.5,-284.39 843,-284.39 843,-265.14 938.5,-265.14 938.5,-284.39"/>
<text text-anchor="middle" x="890.75" y="-270.89" font-family="Helvetica,sans-Serif" font-size="10.00">avrdude_message</text>
</a>
</g>
</g>
<!-- Node1&#45;&gt;Node2 -->
<g id="edge1_Node000001_Node000002" class="edge">
<title>Node1&#45;&gt;Node2</title>
<g id="a_edge1_Node000001_Node000002"><a xlink:title=" ">
<path fill="none" stroke="#63b8ff" d="M61,-170.6C68.12,-220.02 102.42,-440.55 153.25,-482.76 219.52,-537.79 259.99,-501.76 346.12,-501.76 346.12,-501.76 346.12,-501.76 608.5,-501.76 697.6,-501.76 736.53,-528.28 807,-473.76 864.79,-429.06 882.56,-336.77 887.74,-295.5"/>
<polygon fill="#63b8ff" stroke="#63b8ff" points="891.33,-295.98 888.96,-285.65 884.37,-295.2 891.33,-295.98"/>
</a>
</g>
</g>
<!-- Node3 -->
<g id="Node000003" class="node">
<title>Node3</title>
<g id="a_Node000003"><a xlink:href="../../d9/d12/stk500v2_8c.html#a0e61b53b0496861a6b9953483ed20a8f" target="_top" xlink:title=" ">
<polygon fill="white" stroke="#666666" points="247.25,-95.39 165.25,-95.39 165.25,-76.14 247.25,-76.14 247.25,-95.39"/>
<text text-anchor="middle" x="206.25" y="-81.89" font-family="Helvetica,sans-Serif" font-size="10.00">f_to_kHz_MHz</text>
</a>
</g>
</g>
<!-- Node1&#45;&gt;Node3 -->
<g id="edge2_Node000001_Node000003" class="edge">
<title>Node1&#45;&gt;Node3</title>
<g id="a_edge2_Node000001_Node000003"><a xlink:title=" ">
<path fill="none" stroke="#63b8ff" d="M74,-150.67C91.93,-138.4 123.81,-117.62 153.25,-103.76 156.22,-102.36 159.33,-101.01 162.5,-99.73"/>
<polygon fill="#63b8ff" stroke="#63b8ff" points="163.55,-102.69 171.65,-95.85 161.05,-96.15 163.55,-102.69"/>
</a>
</g>
</g>
<!-- Node4 -->
<g id="Node000004" class="node">
<title>Node4</title>
<g id="a_Node000004"><a xlink:href="../../d9/d12/stk500v2_8c.html#a94ee9de93b67ac9ac41dc6217dd62627" target="_top" xlink:title=" ">
<polygon fill="white" stroke="#666666" points="254.38,-132.39 158.12,-132.39 158.12,-113.14 254.38,-113.14 254.38,-132.39"/>
<text text-anchor="middle" x="206.25" y="-118.89" font-family="Helvetica,sans-Serif" font-size="10.00">stk500v2_getparm</text>
</a>
</g>
</g>
<!-- Node1&#45;&gt;Node4 -->
<g id="edge3_Node000001_Node000004" class="edge">
<title>Node1&#45;&gt;Node4</title>
<g id="a_edge3_Node000001_Node000004"><a xlink:title=" ">
<path fill="none" stroke="#63b8ff" d="M98.27,-150.68C116.03,-146.04 137.3,-140.49 156.18,-135.57"/>
<polygon fill="#63b8ff" stroke="#63b8ff" points="156.89,-138.74 165.68,-132.83 155.12,-131.96 156.89,-138.74"/>
</a>
</g>
</g>
<!-- Node9 -->
<g id="Node000009" class="node">
<title>Node9</title>
<g id="a_Node000009"><a xlink:href="../../d9/d12/stk500v2_8c.html#ae344676760f23d49cb0d086a4e3c5e89" target="_top" xlink:title=" ">
<polygon fill="white" stroke="#666666" points="798.75,-59.39 692.75,-59.39 692.75,-40.14 798.75,-40.14 798.75,-59.39"/>
<text text-anchor="middle" x="745.75" y="-45.89" font-family="Helvetica,sans-Serif" font-size="10.00">stk500v2_jtag3_recv</text>
</a>
</g>
</g>
<!-- Node1&#45;&gt;Node9 -->
<g id="edge27_Node000001_Node000009" class="edge">
<title>Node1&#45;&gt;Node9</title>
<g id="a_edge27_Node000001_Node000009"><a xlink:title=" ">
<path fill="none" stroke="#63b8ff" d="M117.52,-160.76C175.39,-160.76 266.91,-160.76 346.12,-160.76 346.12,-160.76 346.12,-160.76 483.75,-160.76 582.08,-160.76 592.54,-102.59 684.5,-67.76 688.69,-66.17 693.09,-64.63 697.52,-63.16"/>
<polygon fill="#63b8ff" stroke="#63b8ff" points="698.36,-66.25 706.83,-59.88 696.24,-59.58 698.36,-66.25"/>
</a>
</g>
</g>
<!-- Node13 -->
<g id="Node000013" class="node">
<title>Node13</title>
<g id="a_Node000013"><a xlink:href="../../d9/d12/stk500v2_8c.html#adfeca4e918f67c510bb1cf54184ab55e" target="_top" xlink:title=" ">
<polygon fill="white" stroke="#666666" points="799.88,-435.39 691.62,-435.39 691.62,-416.14 799.88,-416.14 799.88,-435.39"/>
<text text-anchor="middle" x="745.75" y="-421.89" font-family="Helvetica,sans-Serif" font-size="10.00">stk500v2_jtag3_send</text>
</a>
</g>
</g>
<!-- Node1&#45;&gt;Node13 -->
<g id="edge28_Node000001_Node000013" class="edge">
<title>Node1&#45;&gt;Node13</title>
<g id="a_edge28_Node000001_Node000013"><a xlink:title=" ">
<path fill="none" stroke="#63b8ff" d="M64.2,-170.83C86.95,-219.23 193,-425.76 346.12,-425.76 346.12,-425.76 346.12,-425.76 483.75,-425.76 550.8,-425.76 627.54,-425.76 680.37,-425.76"/>
<polygon fill="#63b8ff" stroke="#63b8ff" points="680.26,-429.26 690.26,-425.76 680.26,-422.26 680.26,-429.26"/>
</a>
</g>
</g>
<!-- Node16 -->
<g id="Node000016" class="node">
<title>Node16</title>
<g id="a_Node000016"><a xlink:href="../../d9/d12/stk500v2_8c.html#a2350c80031806d161f1159bc08ab6dfa" target="_top" xlink:title=" ">
<polygon fill="white" stroke="#666666" points="257,-473.39 155.5,-473.39 155.5,-454.14 257,-454.14 257,-473.39"/>
<text text-anchor="middle" x="206.25" y="-459.89" font-family="Helvetica,sans-Serif" font-size="10.00">stk500v2_getparm2</text>
</a>
</g>
</g>
<!-- Node1&#45;&gt;Node16 -->
<g id="edge24_Node000001_Node000016" class="edge">
<title>Node1&#45;&gt;Node16</title>
<g id="a_edge24_Node000001_Node000016"><a xlink:title=" ">
<path fill="none" stroke="#63b8ff" d="M60.21,-170.8C63,-210.18 78.2,-356.08 153.25,-439.76 156.15,-443 159.58,-445.83 163.28,-448.3"/>
<polygon fill="#63b8ff" stroke="#63b8ff" points="161.42,-451.84 171.84,-453.72 164.87,-445.75 161.42,-451.84"/>
</a>
</g>
</g>
<!-- Node17 -->
<g id="Node000017" class="node">
<title>Node17</title>
<g id="a_Node000017"><a xlink:href="../../d9/d12/stk500v2_8c.html#a2918280ef3fd7842c678ba309ad2e57c" target="_top" xlink:title=" ">
<polygon fill="white" stroke="#666666" points="259.25,-58.39 153.25,-58.39 153.25,-39.14 259.25,-39.14 259.25,-58.39"/>
<text text-anchor="middle" x="206.25" y="-44.89" font-family="Helvetica,sans-Serif" font-size="10.00">stk500v2_sck_to_us</text>
</a>
</g>
</g>
<!-- Node1&#45;&gt;Node17 -->
<g id="edge29_Node000001_Node000017" class="edge">
<title>Node1&#45;&gt;Node17</title>
<g id="a_edge29_Node000001_Node000017"><a xlink:title=" ">
<path fill="none" stroke="#63b8ff" d="M67,-150.78C81.5,-131.82 115.59,-90.39 153.25,-66.76 155.26,-65.5 157.36,-64.32 159.53,-63.21"/>
<polygon fill="#63b8ff" stroke="#63b8ff" points="160.62,-66.1 168.29,-58.79 157.74,-59.72 160.62,-66.1"/>
</a>
</g>
</g>
<!-- Node4&#45;&gt;Node2 -->
<g id="edge4_Node000004_Node000002" class="edge">
<title>Node4&#45;&gt;Node2</title>
<g id="a_edge4_Node000004_Node000002"><a xlink:title=" ">
<path fill="none" stroke="#63b8ff" d="M237.34,-112.71C244.55,-110.2 252.2,-107.45 259.25,-104.76 359.39,-66.55 374.57,-11.76 481.75,-11.76 481.75,-11.76 481.75,-11.76 608.5,-11.76 697.13,-11.76 737.51,24.25 807,-30.76 877.66,-86.7 888.35,-205.71 889.7,-253.87"/>
<polygon fill="#63b8ff" stroke="#63b8ff" points="886.22,-253.81 889.88,-263.75 893.22,-253.7 886.22,-253.81"/>
</a>
</g>
</g>
<!-- Node5 -->
<g id="Node000005" class="node">
<title>Node5</title>
<g id="a_Node000005"><a xlink:href="../../d9/d12/stk500v2_8c.html#a8bb7c2e6a6df9a5f5bcc5575dffb0c93" target="_top" xlink:title=" ">
<polygon fill="white" stroke="#666666" points="399,-284.39 295.25,-284.39 295.25,-265.14 399,-265.14 399,-284.39"/>
<text text-anchor="middle" x="347.12" y="-270.89" font-family="Helvetica,sans-Serif" font-size="10.00">stk500v2_command</text>
</a>
</g>
</g>
<!-- Node4&#45;&gt;Node5 -->
<g id="edge5_Node000004_Node000005" class="edge">
<title>Node4&#45;&gt;Node5</title>
<g id="a_edge5_Node000004_Node000005"><a xlink:title=" ">
<path fill="none" stroke="#63b8ff" d="M216.36,-132.73C239.42,-157.97 300.33,-224.63 329.75,-256.84"/>
<polygon fill="#63b8ff" stroke="#63b8ff" points="326.83,-258.93 336.16,-263.95 332,-254.21 326.83,-258.93"/>
</a>
</g>
</g>
<!-- Node5&#45;&gt;Node2 -->
<g id="edge6_Node000005_Node000002" class="edge">
<title>Node5&#45;&gt;Node2</title>
<g id="a_edge6_Node000005_Node000002"><a xlink:title=" ">
<path fill="none" stroke="#63b8ff" d="M363.94,-284.68C424.27,-321.17 644.71,-442.11 807,-368.76 840.85,-353.46 866.37,-316.72 879.61,-293.97"/>
<polygon fill="#63b8ff" stroke="#63b8ff" points="883,-296.07 884.81,-285.63 876.89,-292.66 883,-296.07"/>
</a>
</g>
</g>
<!-- Node6 -->
<g id="Node000006" class="node">
<title>Node6</title>
<g id="a_Node000006"><a xlink:href="../../d9/d12/stk500v2_8c.html#a0c65811e2b906244f8278205f6567191" target="_top" xlink:title=" ">
<polygon fill="white" stroke="#666666" points="530.5,-265.39 435,-265.39 435,-246.14 530.5,-246.14 530.5,-265.39"/>
<text text-anchor="middle" x="482.75" y="-251.89" font-family="Helvetica,sans-Serif" font-size="10.00">stk500v2_getsync</text>
</a>
</g>
</g>
<!-- Node5&#45;&gt;Node6 -->
<g id="edge7_Node000005_Node000006" class="edge">
<title>Node5&#45;&gt;Node6</title>
<g id="a_edge7_Node000005_Node000006"><a xlink:title=" ">
<path fill="none" stroke="#63b8ff" d="M399.41,-267.47C407.49,-266.32 415.9,-265.13 424.12,-263.96"/>
<polygon fill="#63b8ff" stroke="#63b8ff" points="424.36,-267.32 433.77,-262.44 423.37,-260.38 424.36,-267.32"/>
</a>
</g>
</g>
<!-- Node7 -->
<g id="Node000007" class="node">
<title>Node7</title>
<g id="a_Node000007"><a xlink:href="../../d9/d12/stk500v2_8c.html#afde730659f26cf880986235970003b2e" target="_top" xlink:title=" ">
<polygon fill="white" stroke="#666666" points="647.38,-208.39 567.62,-208.39 567.62,-189.14 647.38,-189.14 647.38,-208.39"/>
<text text-anchor="middle" x="607.5" y="-194.89" font-family="Helvetica,sans-Serif" font-size="10.00">stk500v2_recv</text>
</a>
</g>
</g>
<!-- Node5&#45;&gt;Node7 -->
<g id="edge22_Node000005_Node000007" class="edge">
<title>Node5&#45;&gt;Node7</title>
<g id="a_edge22_Node000005_Node000007"><a xlink:title=" ">
<path fill="none" stroke="#63b8ff" d="M368.05,-264.72C385.39,-256.3 411.37,-244.47 435,-236.76 475.16,-223.67 522.07,-213.62 556.66,-207.15"/>
<polygon fill="#63b8ff" stroke="#63b8ff" points="557.23,-210.42 566.44,-205.18 555.97,-203.54 557.23,-210.42"/>
</a>
</g>
</g>
<!-- Node12 -->
<g id="Node000012" class="node">
<title>Node12</title>
<g id="a_Node000012"><a xlink:href="../../d9/d12/stk500v2_8c.html#a1f8266ad2201e09606ed54b65f6db872" target="_top" xlink:title=" ">
<polygon fill="white" stroke="#666666" points="648.5,-303.39 566.5,-303.39 566.5,-284.14 648.5,-284.14 648.5,-303.39"/>
<text text-anchor="middle" x="607.5" y="-289.89" font-family="Helvetica,sans-Serif" font-size="10.00">stk500v2_send</text>
</a>
</g>
</g>
<!-- Node5&#45;&gt;Node12 -->
<g id="edge23_Node000005_Node000012" class="edge">
<title>Node5&#45;&gt;Node12</title>
<g id="a_edge23_Node000005_Node000012"><a xlink:title=" ">
<path fill="none" stroke="#63b8ff" d="M399.48,-278.54C444.75,-281.87 510.36,-286.69 555.52,-290.01"/>
<polygon fill="#63b8ff" stroke="#63b8ff" points="555.02,-293.56 565.25,-290.8 555.54,-286.58 555.02,-293.56"/>
</a>
</g>
</g>
<!-- Node6&#45;&gt;Node2 -->
<g id="edge8_Node000006_Node000002" class="edge">
<title>Node6&#45;&gt;Node2</title>
<g id="a_edge8_Node000006_Node000002"><a xlink:title=" ">
<path fill="none" stroke="#63b8ff" d="M530.72,-257.96C605.43,-261.46 751.15,-268.28 832.08,-272.06"/>
<polygon fill="#63b8ff" stroke="#63b8ff" points="831.42,-275.58 841.58,-272.55 831.75,-268.59 831.42,-275.58"/>
</a>
</g>
</g>
<!-- Node6&#45;&gt;Node7 -->
<g id="edge9_Node000006_Node000007" class="edge">
<title>Node6&#45;&gt;Node7</title>
<g id="a_edge9_Node000006_Node000007"><a xlink:title=" ">
<path fill="none" stroke="#63b8ff" d="M505.41,-245.7C524.78,-236.71 553.4,-223.42 575.25,-213.27"/>
<polygon fill="#63b8ff" stroke="#63b8ff" points="576.46,-216.11 584.05,-208.72 573.51,-209.76 576.46,-216.11"/>
</a>
</g>
</g>
<!-- Node6&#45;&gt;Node12 -->
<g id="edge16_Node000006_Node000012" class="edge">
<title>Node6&#45;&gt;Node12</title>
<g id="a_edge16_Node000006_Node000012"><a xlink:title=" ">
<path fill="none" stroke="#63b8ff" d="M516.32,-265.85C530.87,-270.35 548.2,-275.71 563.76,-280.53"/>
<polygon fill="#63b8ff" stroke="#63b8ff" points="562.61,-284.15 573.2,-283.76 564.68,-277.46 562.61,-284.15"/>
</a>
</g>
</g>
<!-- Node7&#45;&gt;Node2 -->
<g id="edge10_Node000007_Node000002" class="edge">
<title>Node7&#45;&gt;Node2</title>
<g id="a_edge10_Node000007_Node000002"><a xlink:title=" ">
<path fill="none" stroke="#63b8ff" d="M647.7,-198.49C688.59,-199.35 754,-203.97 807,-222.76 829.99,-230.91 853.26,-246.31 869.24,-258.24"/>
<polygon fill="#63b8ff" stroke="#63b8ff" points="866.69,-261.47 876.75,-264.79 870.96,-255.92 866.69,-261.47"/>
</a>
</g>
</g>
<!-- Node8 -->
<g id="Node000008" class="node">
<title>Node8</title>
<g id="a_Node000008"><a xlink:href="../../d7/d8a/unistd_8cpp.html#adf30830f5265e55035171c301eb9c3fb" target="_top" xlink:title=" ">
<polygon fill="white" stroke="#666666" points="781.88,-133.39 709.62,-133.39 709.62,-114.14 781.88,-114.14 781.88,-133.39"/>
<text text-anchor="middle" x="745.75" y="-119.89" font-family="Helvetica,sans-Serif" font-size="10.00">gettimeofday</text>
</a>
</g>
</g>
<!-- Node7&#45;&gt;Node8 -->
<g id="edge11_Node000007_Node000008" class="edge">
<title>Node7&#45;&gt;Node8</title>
<g id="a_edge11_Node000007_Node000008"><a xlink:title=" ">
<path fill="none" stroke="#63b8ff" d="M626.92,-188.75C633.88,-184.71 641.75,-179.8 648.5,-174.76 665.89,-161.78 665.62,-152.47 684.5,-141.76 689.01,-139.2 693.92,-136.97 698.93,-135.04"/>
<polygon fill="#63b8ff" stroke="#63b8ff" points="699.94,-138.05 708.24,-131.48 697.65,-131.43 699.94,-138.05"/>
</a>
</g>
</g>
<!-- Node7&#45;&gt;Node9 -->
<g id="edge12_Node000007_Node000009" class="edge">
<title>Node7&#45;&gt;Node9</title>
<g id="a_edge12_Node000007_Node000009"><a xlink:title=" ">
<path fill="none" stroke="#63b8ff" d="M631.38,-188.74C637.63,-185.09 643.93,-180.44 648.5,-174.76 679.95,-135.67 648.42,-102.63 684.5,-67.76 685.22,-67.06 685.97,-66.39 686.74,-65.75"/>
<polygon fill="#63b8ff" stroke="#63b8ff" points="688.34,-68.23 694.75,-59.79 684.47,-62.39 688.34,-68.23"/>
</a>
</g>
</g>
<!-- Node10 -->
<g id="Node000010" class="node">
<title>Node10</title>
<g id="a_Node000010"><a xlink:href="../../d9/d12/stk500v2_8c.html#abb5a89e17e6d6be91df10596a0ee64fb" target="_top" xlink:title=" ">
<polygon fill="white" stroke="#666666" points="805.88,-96.39 685.62,-96.39 685.62,-77.14 805.88,-77.14 805.88,-96.39"/>
<text text-anchor="middle" x="745.75" y="-82.89" font-family="Helvetica,sans-Serif" font-size="10.00">stk500v2_jtagmkII_recv</text>
</a>
</g>
</g>
<!-- Node7&#45;&gt;Node10 -->
<g id="edge13_Node000007_Node000010" class="edge">
<title>Node7&#45;&gt;Node10</title>
<g id="a_edge13_Node000007_Node000010"><a xlink:title=" ">
<path fill="none" stroke="#63b8ff" d="M630.03,-188.77C636.52,-185.03 643.3,-180.32 648.5,-174.76 672.42,-149.23 657.59,-127.11 684.5,-104.76 685.59,-103.86 686.72,-103 687.88,-102.19"/>
<polygon fill="#63b8ff" stroke="#63b8ff" points="689.48,-104.74 696.44,-96.75 686.01,-98.66 689.48,-104.74"/>
</a>
</g>
</g>
<!-- Node11 -->
<g id="Node000011" class="node">
<title>Node11</title>
<g id="a_Node000011"><a xlink:href="../../d9/d12/stk500v2_8c.html#a846d441ffc8df4a8d08d17c5f842962f" target="_top" xlink:title=" ">
<polygon fill="white" stroke="#666666" points="797.62,-170.39 693.88,-170.39 693.88,-151.14 797.62,-151.14 797.62,-170.39"/>
<text text-anchor="middle" x="745.75" y="-156.89" font-family="Helvetica,sans-Serif" font-size="10.00">stk500v2_recv_mk2</text>
</a>
</g>
</g>
<!-- Node7&#45;&gt;Node11 -->
<g id="edge14_Node000007_Node000011" class="edge">
<title>Node7&#45;&gt;Node11</title>
<g id="a_edge14_Node000007_Node000011"><a xlink:title=" ">
<path fill="none" stroke="#63b8ff" d="M644.65,-188.68C661.11,-184.09 680.78,-178.6 698.31,-173.71"/>
<polygon fill="#63b8ff" stroke="#63b8ff" points="699.21,-176.82 707.9,-170.76 697.33,-170.08 699.21,-176.82"/>
</a>
</g>
</g>
<!-- Node11&#45;&gt;Node2 -->
<g id="edge15_Node000011_Node000002" class="edge">
<title>Node11&#45;&gt;Node2</title>
<g id="a_edge15_Node000011_Node000002"><a xlink:title=" ">
<path fill="none" stroke="#63b8ff" d="M779.68,-170.82C788.95,-174.44 798.75,-179.08 807,-184.76 835.69,-204.53 861.61,-235.95 876.52,-255.95"/>
<polygon fill="#63b8ff" stroke="#63b8ff" points="874.2,-257.72 882.91,-263.75 879.86,-253.6 874.2,-257.72"/>
</a>
</g>
</g>
<!-- Node12&#45;&gt;Node2 -->
<g id="edge17_Node000012_Node000002" class="edge">
<title>Node12&#45;&gt;Node2</title>
<g id="a_edge17_Node000012_Node000002"><a xlink:title=" ">
<path fill="none" stroke="#63b8ff" d="M648.8,-291.04C696.83,-287.79 777.44,-282.35 832.07,-278.66"/>
<polygon fill="#63b8ff" stroke="#63b8ff" points="832.23,-282.09 841.97,-277.92 831.75,-275.1 832.23,-282.09"/>
</a>
</g>
</g>
<!-- Node12&#45;&gt;Node13 -->
<g id="edge18_Node000012_Node000013" class="edge">
<title>Node12&#45;&gt;Node13</title>
<g id="a_edge18_Node000012_Node000013"><a xlink:title=" ">
<path fill="none" stroke="#63b8ff" d="M618.27,-303.54C632.68,-317.92 660.5,-345.58 684.5,-368.76 698.33,-382.13 714.13,-397.06 726.08,-408.29"/>
<polygon fill="#63b8ff" stroke="#63b8ff" points="723.33,-410.45 733.02,-414.74 728.12,-405.34 723.33,-410.45"/>
</a>
</g>
</g>
<!-- Node14 -->
<g id="Node000014" class="node">
<title>Node14</title>
<g id="a_Node000014"><a xlink:href="../../d9/d12/stk500v2_8c.html#a6798e90b37755b38064757fd02063c5c" target="_top" xlink:title=" ">
<polygon fill="white" stroke="#666666" points="807,-359.39 684.5,-359.39 684.5,-340.14 807,-340.14 807,-359.39"/>
<text text-anchor="middle" x="745.75" y="-345.89" font-family="Helvetica,sans-Serif" font-size="10.00">stk500v2_jtagmkII_send</text>
</a>
</g>
</g>
<!-- Node12&#45;&gt;Node14 -->
<g id="edge19_Node000012_Node000014" class="edge">
<title>Node12&#45;&gt;Node14</title>
<g id="a_edge19_Node000012_Node000014"><a xlink:title=" ">
<path fill="none" stroke="#63b8ff" d="M626.22,-303.72C641.37,-311.97 663.93,-323.62 684.5,-331.76 688.61,-333.39 692.93,-334.95 697.29,-336.43"/>
<polygon fill="#63b8ff" stroke="#63b8ff" points="695.85,-339.97 706.44,-339.72 698.01,-333.31 695.85,-339.97"/>
</a>
</g>
</g>
<!-- Node15 -->
<g id="Node000015" class="node">
<title>Node15</title>
<g id="a_Node000015"><a xlink:href="../../d9/d12/stk500v2_8c.html#a25b320aa0f79cfb3e70b9174063c7fc2" target="_top" xlink:title=" ">
<polygon fill="white" stroke="#666666" points="798.75,-322.39 692.75,-322.39 692.75,-303.14 798.75,-303.14 798.75,-322.39"/>
<text text-anchor="middle" x="745.75" y="-308.89" font-family="Helvetica,sans-Serif" font-size="10.00">stk500v2_send_mk2</text>
</a>
</g>
</g>
<!-- Node12&#45;&gt;Node15 -->
<g id="edge20_Node000012_Node000015" class="edge">
<title>Node12&#45;&gt;Node15</title>
<g id="a_edge20_Node000012_Node000015"><a xlink:title=" ">
<path fill="none" stroke="#63b8ff" d="M648.64,-299.36C658.99,-300.8 670.39,-302.39 681.6,-303.96"/>
<polygon fill="#63b8ff" stroke="#63b8ff" points="680.87,-307.53 691.25,-305.44 681.83,-300.59 680.87,-307.53"/>
</a>
</g>
</g>
<!-- Node15&#45;&gt;Node2 -->
<g id="edge21_Node000015_Node000002" class="edge">
<title>Node15&#45;&gt;Node2</title>
<g id="a_edge21_Node000015_Node000002"><a xlink:title=" ">
<path fill="none" stroke="#63b8ff" d="M784.7,-302.68C802.13,-298.05 823,-292.5 841.53,-287.58"/>
<polygon fill="#63b8ff" stroke="#63b8ff" points="842.36,-290.71 851.12,-284.76 840.56,-283.95 842.36,-290.71"/>
</a>
</g>
</g>
<!-- Node16&#45;&gt;Node2 -->
<g id="edge25_Node000016_Node000002" class="edge">
<title>Node16&#45;&gt;Node2</title>
<g id="a_edge25_Node000016_Node000002"><a xlink:title=" ">
<path fill="none" stroke="#63b8ff" d="M257.34,-463.76C312.37,-463.76 403.36,-463.76 481.75,-463.76 481.75,-463.76 481.75,-463.76 608.5,-463.76 697.13,-463.76 734.19,-495.29 807,-444.76 858.59,-408.96 879.28,-331.74 886.45,-294.99"/>
<polygon fill="#63b8ff" stroke="#63b8ff" points="890,-296.05 888.32,-285.59 883.11,-294.81 890,-296.05"/>
</a>
</g>
</g>
<!-- Node16&#45;&gt;Node5 -->
<g id="edge26_Node000016_Node000005" class="edge">
<title>Node16&#45;&gt;Node5</title>
<g id="a_edge26_Node000016_Node000005"><a xlink:title=" ">
<path fill="none" stroke="#63b8ff" d="M214.52,-453.87C236.64,-423.76 303.4,-332.91 332.41,-293.42"/>
<polygon fill="#63b8ff" stroke="#63b8ff" points="335.83,-295.69 338.93,-285.56 330.18,-291.55 335.83,-295.69"/>
</a>
</g>
</g>
</g>
</svg>

<g id="navigator" transform="translate(0 0)" fill="#404254">
  <rect fill="#f2f5e9" fill-opacity="0.5" stroke="#606060" stroke-width=".5" x="0" y="0" width="60" height="60"/>
  <use id="zoomplus" xlink:href="#zoomPlus" x="17" y="9" onmousedown="handleZoom(evt,'in')"/>
  <use id="zoomminus" xlink:href="#zoomMin" x="42" y="9" onmousedown="handleZoom(evt,'out')"/>
  <use id="reset" xlink:href="#resetDef" x="30" y="36" onmousedown="handleReset()"/>
   <use id="arrowup" xlink:href="#arrowUp" x="0" y="0" onmousedown="handlePan(0,-1)"/>
  <use id="arrowright" xlink:href="#arrowRight" x="0" y="0" onmousedown="handlePan(1,0)"/>
  <use id="arrowdown" xlink:href="#arrowDown" x="0" y="0" onmousedown="handlePan(0,1)"/>
  <use id="arrowleft" xlink:href="#arrowLeft" x="0" y="0" onmousedown="handlePan(-1,0)"/>
</g>
<svg viewBox="0 0 15 15" width="100%" height="30px" preserveAspectRatio="xMaxYMin meet">
 <g id="arrow_out" transform="scale(0.3 0.3)">
  <a xlink:href="stk500v2_8c_ac787ec4dd5f41d469b55cc85aa383abd_cgraph_org.svg" target="_base">
   <rect id="button" ry="5" rx="5" y="6" x="6" height="38" width="38"
        fill="#f2f5e9" fill-opacity="0.5" stroke="#606060" stroke-width="1.0"/>
   <path id="arrow"
     d="M 11.500037,31.436501 C 11.940474,20.09759 22.043105,11.32322 32.158766,21.979434 L 37.068811,17.246167 C 37.068811,17.246167 37.088388,32 37.088388,32 L 22.160133,31.978069 C 22.160133,31.978069 26.997745,27.140456 26.997745,27.140456 C 18.528582,18.264221 13.291696,25.230495 11.500037,31.436501 z"
     style="fill:#404040;"/>
  </a>
 </g>
</svg>

<style type='text/css'>
<![CDATA[
[data-mouse-over-selected='false'] { opacity: 0.7; }
[data-mouse-over-selected='true']  { opacity: 1.0; }
]]>
</style>
<script type="application/ecmascript"><![CDATA[
document.addEventListener('DOMContentLoaded', (event) => {
  highlightEdges();
  highlightAdjacentNodes();
});
]]></script>
</svg>
