<?xml version="1.0" encoding="UTF-8" standalone="no"?>
<!DOCTYPE svg PUBLIC "-//W3C//DTD SVG 1.1//EN"
 "http://www.w3.org/Graphics/SVG/1.1/DTD/svg11.dtd">
<!-- Generated by graphviz version 8.0.5 (20230430.1635)
 -->
<!-- Title: stk500v2_paged_load Pages: 1 -->
<svg width="1026pt" height="415pt"
 viewBox="0.00 0.00 1026.00 415.45" xmlns="http://www.w3.org/2000/svg" xmlns:xlink="http://www.w3.org/1999/xlink">
<g id="graph0" class="graph" transform="scale(1 1) rotate(0) translate(4 411.45)">
<title>stk500v2_paged_load</title>
<!-- Node1 -->
<g id="Node000001" class="node">
<title>Node1</title>
<g id="a_Node000001"><a xlink:title=" ">
<polygon fill="#999999" stroke="#666666" points="1018,-226.97 907.5,-226.97 907.5,-207.72 1018,-207.72 1018,-226.97"/>
<text text-anchor="middle" x="962.75" y="-213.47" font-family="Helvetica,sans-Serif" font-size="10.00">stk500v2_paged_load</text>
</a>
</g>
</g>
<!-- Node2 -->
<g id="Node000002" class="node">
<title>Node2</title>
<g id="a_Node000002"><a xlink:href="../../d9/d12/stk500v2_8c.html#aa3eee9d9400e08067da3754f2fcf9f2e" target="_top" xlink:title=" ">
<polygon fill="white" stroke="#666666" points="870.38,-283.97 764.38,-283.97 764.38,-264.72 870.38,-264.72 870.38,-283.97"/>
<text text-anchor="middle" x="817.38" y="-270.47" font-family="Helvetica,sans-Serif" font-size="10.00">stk500isp_read_byte</text>
</a>
</g>
</g>
<!-- Node1&#45;&gt;Node2 -->
<g id="edge1_Node000001_Node000002" class="edge">
<title>Node1&#45;&gt;Node2</title>
<g id="a_edge1_Node000001_Node000002"><a xlink:title=" ">
<path fill="none" stroke="#63b8ff" d="M926.34,-231.43C900.6,-241.66 866.38,-255.26 843.42,-264.39"/>
<polygon fill="#63b8ff" stroke="#63b8ff" points="927.45,-234.35 935.45,-227.41 924.86,-227.85 927.45,-234.35"/>
</a>
</g>
</g>
<!-- Node3 -->
<g id="Node000003" class="node">
<title>Node3</title>
<g id="a_Node000003"><a xlink:href="../../d9/d12/stk500v2_8c.html#a30d4cc736e7bc9ff34dc82e7dc6b66bb" target="_top" xlink:title=" ">
<polygon fill="white" stroke="#666666" points="427.88,-384.6 319.62,-384.6 319.62,-354.1 427.88,-354.1 427.88,-384.6"/>
<text text-anchor="start" x="327.62" y="-371.1" font-family="Helvetica,sans-Serif" font-size="10.00">stk500v2_dragon_isp</text>
<text text-anchor="middle" x="373.75" y="-359.85" font-family="Helvetica,sans-Serif" font-size="10.00">_initpgm</text>
</a>
</g>
</g>
<!-- Node1&#45;&gt;Node3 -->
<g id="edge27_Node000001_Node000003" class="edge">
<title>Node1&#45;&gt;Node3</title>
<g id="a_edge27_Node000001_Node000003"><a xlink:title=" ">
<path fill="none" stroke="#63b8ff" d="M954.05,-237.17C941.52,-266.6 913.78,-321.28 871.5,-348.35 732.84,-437.14 525.02,-405.27 428.09,-383.26"/>
<polygon fill="#63b8ff" stroke="#63b8ff" points="957.57,-238.82 958.11,-228.24 951.09,-236.17 957.57,-238.82"/>
</a>
</g>
</g>
<!-- Node4 -->
<g id="Node000004" class="node">
<title>Node4</title>
<g id="a_Node000004"><a xlink:href="../../d9/d12/stk500v2_8c.html#aea3788fd25277b0e56feeba93ddf0345" target="_top" xlink:title=" ">
<polygon fill="white" stroke="#666666" points="420,-299.97 327.5,-299.97 327.5,-280.72 420,-280.72 420,-299.97"/>
<text text-anchor="middle" x="373.75" y="-286.47" font-family="Helvetica,sans-Serif" font-size="10.00">stk500v2_initpgm</text>
</a>
</g>
</g>
<!-- Node1&#45;&gt;Node4 -->
<g id="edge28_Node000001_Node000004" class="edge">
<title>Node1&#45;&gt;Node4</title>
<g id="a_edge28_Node000001_Node000004"><a xlink:title=" ">
<path fill="none" stroke="#63b8ff" d="M950.1,-236.32C934.92,-259.36 906.18,-297.72 871.5,-318.35 814.89,-352.02 792.68,-344.74 727.25,-352.35 616.41,-365.23 583.65,-376.62 476.25,-346.35 441.96,-336.68 406.57,-313.61 387.99,-300.29"/>
<polygon fill="#63b8ff" stroke="#63b8ff" points="953.49,-238.51 955.92,-228.2 947.59,-234.74 953.49,-238.51"/>
</a>
</g>
</g>
<!-- Node10 -->
<g id="Node000010" class="node">
<title>Node10</title>
<g id="a_Node000010"><a xlink:href="../../d9/d12/stk500v2_8c.html#a3b0696c6baf7d552322e6bc0b98dd880" target="_top" xlink:title=" ">
<polygon fill="white" stroke="#666666" points="727.25,-93.97 608.5,-93.97 608.5,-74.72 727.25,-74.72 727.25,-93.97"/>
<text text-anchor="middle" x="667.88" y="-80.47" font-family="Helvetica,sans-Serif" font-size="10.00">stk500v2_jtag3_initpgm</text>
</a>
</g>
</g>
<!-- Node1&#45;&gt;Node10 -->
<g id="edge29_Node000001_Node000010" class="edge">
<title>Node1&#45;&gt;Node10</title>
<g id="a_edge29_Node000001_Node000010"><a xlink:title=" ">
<path fill="none" stroke="#63b8ff" d="M945.36,-199.72C928.42,-182.49 900.43,-156.67 871.5,-141.35 826.13,-117.32 769.52,-102.5 727.69,-94.01"/>
<polygon fill="#63b8ff" stroke="#63b8ff" points="942.3,-201.62 951.75,-206.41 947.34,-196.77 942.3,-201.62"/>
</a>
</g>
</g>
<!-- Node11 -->
<g id="Node000011" class="node">
<title>Node11</title>
<g id="a_Node000011"><a xlink:href="../../d9/d12/stk500v2_8c.html#aa3392eb552280bd2b97dd30c10898f59" target="_top" xlink:title=" ">
<polygon fill="white" stroke="#666666" points="440.25,-94.97 307.25,-94.97 307.25,-75.72 440.25,-75.72 440.25,-94.97"/>
<text text-anchor="middle" x="373.75" y="-81.47" font-family="Helvetica,sans-Serif" font-size="10.00">stk500v2_jtagmkII_initpgm</text>
</a>
</g>
</g>
<!-- Node1&#45;&gt;Node11 -->
<g id="edge30_Node000001_Node000011" class="edge">
<title>Node1&#45;&gt;Node11</title>
<g id="a_edge30_Node000001_Node000011"><a xlink:title=" ">
<path fill="none" stroke="#63b8ff" d="M955.86,-197.32C945,-164.15 918.53,-98.22 871.5,-65.35 727.2,35.5 648.19,-1.52 476.25,-39.35 444.51,-46.33 410.71,-63.96 391.23,-75.25"/>
<polygon fill="#63b8ff" stroke="#63b8ff" points="952.74,-198.07 959.06,-206.57 959.42,-195.99 952.74,-198.07"/>
</a>
</g>
</g>
<!-- Node12 -->
<g id="Node000012" class="node">
<title>Node12</title>
<g id="a_Node000012"><a xlink:href="../../d9/d12/stk500v2_8c.html#aa8f862d88ff9db1cdd95f2ae21755836" target="_top" xlink:title=" ">
<polygon fill="white" stroke="#666666" points="414.75,-169.97 332.75,-169.97 332.75,-150.72 414.75,-150.72 414.75,-169.97"/>
<text text-anchor="middle" x="373.75" y="-156.47" font-family="Helvetica,sans-Serif" font-size="10.00">stk600_initpgm</text>
</a>
</g>
</g>
<!-- Node1&#45;&gt;Node12 -->
<g id="edge31_Node000001_Node000012" class="edge">
<title>Node1&#45;&gt;Node12</title>
<g id="a_edge31_Node000001_Node000012"><a xlink:title=" ">
<path fill="none" stroke="#63b8ff" d="M952.14,-197.51C938.18,-170.89 909.74,-124.11 871.5,-99.35 816.21,-63.54 792.68,-72.95 727.25,-65.35 674.83,-59.25 660.3,-55.22 608.5,-65.35 523.59,-81.94 430.57,-129.48 392.49,-150.33"/>
<polygon fill="#63b8ff" stroke="#63b8ff" points="949.43,-198.91 957.07,-206.25 955.68,-195.75 949.43,-198.91"/>
</a>
</g>
</g>
<!-- Node13 -->
<g id="Node000013" class="node">
<title>Node13</title>
<g id="a_Node000013"><a xlink:href="../../d9/d12/stk500v2_8c.html#a957316884e0ac5cbef8f1dd190518dd8" target="_top" xlink:title=" ">
<polygon fill="white" stroke="#666666" points="714.12,-321.97 621.62,-321.97 621.62,-302.72 714.12,-302.72 714.12,-321.97"/>
<text text-anchor="middle" x="667.88" y="-308.47" font-family="Helvetica,sans-Serif" font-size="10.00">stk600_setup_isp</text>
</a>
</g>
</g>
<!-- Node1&#45;&gt;Node13 -->
<g id="edge32_Node000001_Node000013" class="edge">
<title>Node1&#45;&gt;Node13</title>
<g id="a_edge32_Node000001_Node000013"><a xlink:title=" ">
<path fill="none" stroke="#63b8ff" d="M946.43,-235.52C929.97,-253.64 902.02,-280.56 871.5,-293.35 820.82,-314.58 756.95,-317.03 714.61,-315.68"/>
<polygon fill="#63b8ff" stroke="#63b8ff" points="948.57,-238.26 952.55,-228.44 943.31,-233.63 948.57,-238.26"/>
</a>
</g>
</g>
<!-- Node15 -->
<g id="Node000015" class="node">
<title>Node15</title>
<g id="a_Node000015"><a xlink:href="../../d9/d12/stk500v2_8c.html#a635e1cc6cb2679b3eb01c50b9fe635c5" target="_top" xlink:title=" ">
<polygon fill="white" stroke="#666666" points="871.5,-169.97 763.25,-169.97 763.25,-150.72 871.5,-150.72 871.5,-169.97"/>
<text text-anchor="middle" x="817.38" y="-156.47" font-family="Helvetica,sans-Serif" font-size="10.00">stk500isp_write_byte</text>
</a>
</g>
</g>
<!-- Node1&#45;&gt;Node15 -->
<g id="edge20_Node000001_Node000015" class="edge">
<title>Node1&#45;&gt;Node15</title>
<g id="a_edge20_Node000001_Node000015"><a xlink:title=" ">
<path fill="none" stroke="#63b8ff" d="M926.34,-203.27C900.6,-193.04 866.38,-179.43 843.42,-170.31"/>
<polygon fill="#63b8ff" stroke="#63b8ff" points="924.86,-206.85 935.45,-207.29 927.45,-200.34 924.86,-206.85"/>
</a>
</g>
</g>
<!-- Node2&#45;&gt;Node3 -->
<g id="edge2_Node000002_Node000003" class="edge">
<title>Node2&#45;&gt;Node3</title>
<g id="a_edge2_Node000002_Node000003"><a xlink:title=" ">
<path fill="none" stroke="#63b8ff" d="M801.95,-292.51C785.92,-311.19 758.2,-339.33 727.25,-352.35 628.28,-393.98 499.62,-386.58 428.3,-377.77"/>
<polygon fill="#63b8ff" stroke="#63b8ff" points="805.15,-295.14 808.84,-285.21 799.76,-290.67 805.15,-295.14"/>
</a>
</g>
</g>
<!-- Node2&#45;&gt;Node4 -->
<g id="edge3_Node000002_Node000004" class="edge">
<title>Node2&#45;&gt;Node4</title>
<g id="a_edge3_Node000002_Node000004"><a xlink:title=" ">
<path fill="none" stroke="#63b8ff" d="M797.32,-291.16C780.29,-304.99 753.97,-323.53 727.25,-331.35 608.98,-365.93 460.36,-321.45 401,-300.34"/>
<polygon fill="#63b8ff" stroke="#63b8ff" points="798.92,-293.55 804.33,-284.44 794.42,-288.19 798.92,-293.55"/>
</a>
</g>
</g>
<!-- Node2&#45;&gt;Node10 -->
<g id="edge11_Node000002_Node000010" class="edge">
<title>Node2&#45;&gt;Node10</title>
<g id="a_edge11_Node000002_Node000010"><a xlink:title=" ">
<path fill="none" stroke="#63b8ff" d="M802.1,-255.96C771.41,-216.43 700.01,-124.46 676.52,-94.2"/>
<polygon fill="#63b8ff" stroke="#63b8ff" points="799.76,-257.65 808.65,-263.4 805.28,-253.36 799.76,-257.65"/>
</a>
</g>
</g>
<!-- Node2&#45;&gt;Node11 -->
<g id="edge12_Node000002_Node000011" class="edge">
<title>Node2&#45;&gt;Node11</title>
<g id="a_edge12_Node000002_Node000011"><a xlink:title=" ">
<path fill="none" stroke="#63b8ff" d="M793.45,-258.15C775.88,-246.18 750.73,-230.01 727.25,-218.35 614.18,-162.2 471.25,-115.12 407.74,-95.35"/>
<polygon fill="#63b8ff" stroke="#63b8ff" points="791.16,-261.51 801.38,-264.31 795.14,-255.75 791.16,-261.51"/>
</a>
</g>
</g>
<!-- Node2&#45;&gt;Node12 -->
<g id="edge13_Node000002_Node000012" class="edge">
<title>Node2&#45;&gt;Node12</title>
<g id="a_edge13_Node000002_Node000012"><a xlink:title=" ">
<path fill="none" stroke="#63b8ff" d="M766.59,-261.5C677.88,-238.6 494.23,-191.19 413.85,-170.44"/>
<polygon fill="#63b8ff" stroke="#63b8ff" points="765.63,-265.12 776.18,-264.23 767.38,-258.34 765.63,-265.12"/>
</a>
</g>
</g>
<!-- Node2&#45;&gt;Node13 -->
<g id="edge14_Node000002_Node000013" class="edge">
<title>Node2&#45;&gt;Node13</title>
<g id="a_edge14_Node000002_Node000013"><a xlink:title=" ">
<path fill="none" stroke="#63b8ff" d="M766.6,-287.17C747.47,-292.1 725.92,-297.65 707.94,-302.28"/>
<polygon fill="#63b8ff" stroke="#63b8ff" points="767.42,-290.32 776.23,-284.43 765.68,-283.54 767.42,-290.32"/>
</a>
</g>
</g>
<!-- Node5 -->
<g id="Node000005" class="node">
<title>Node5</title>
<g id="a_Node000005"><a xlink:href="../../d9/d34/stk500generic_8c.html#a648de4d456de8c3cb4e03fd950d280a4" target="_top" xlink:title=" ">
<polygon fill="white" stroke="#666666" points="261.88,-354.97 158.88,-354.97 158.88,-335.72 261.88,-335.72 261.88,-354.97"/>
<text text-anchor="middle" x="210.38" y="-341.47" font-family="Helvetica,sans-Serif" font-size="10.00">stk500generic_open</text>
</a>
</g>
</g>
<!-- Node4&#45;&gt;Node5 -->
<g id="edge4_Node000004_Node000005" class="edge">
<title>Node4&#45;&gt;Node5</title>
<g id="a_edge4_Node000004_Node000005"><a xlink:title=" ">
<path fill="none" stroke="#63b8ff" d="M336.45,-304.16C317.17,-311.34 293.03,-320.11 271.25,-327.35 263.11,-330.05 254.3,-332.8 245.99,-335.31"/>
<polygon fill="#63b8ff" stroke="#63b8ff" points="337.47,-307.14 345.61,-300.35 335.01,-300.58 337.47,-307.14"/>
</a>
</g>
</g>
<!-- Node7 -->
<g id="Node000007" class="node">
<title>Node7</title>
<g id="a_Node000007"><a xlink:href="../../d9/d34/stk500generic_8c.html#aa5e53881acd79297f9421e6cbb716dfa" target="_top" xlink:title=" ">
<polygon fill="white" stroke="#666666" points="263.38,-317.97 157.38,-317.97 157.38,-298.72 263.38,-298.72 263.38,-317.97"/>
<text text-anchor="middle" x="210.38" y="-304.47" font-family="Helvetica,sans-Serif" font-size="10.00">stk500generic_setup</text>
</a>
</g>
</g>
<!-- Node4&#45;&gt;Node7 -->
<g id="edge6_Node000004_Node000007" class="edge">
<title>Node4&#45;&gt;Node7</title>
<g id="a_edge6_Node000004_Node000007"><a xlink:title=" ">
<path fill="none" stroke="#63b8ff" d="M316.9,-296.58C299.68,-298.5 280.8,-300.6 263.82,-302.5"/>
<polygon fill="#63b8ff" stroke="#63b8ff" points="316.82,-300 326.37,-295.41 316.04,-293.04 316.82,-300"/>
</a>
</g>
</g>
<!-- Node8 -->
<g id="Node000008" class="node">
<title>Node8</title>
<g id="a_Node000008"><a xlink:href="../../d9/d34/stk500generic_8c.html#a51c65dbf26a7916a7441de2499044ced" target="_top" xlink:title=" ">
<polygon fill="white" stroke="#666666" points="271.25,-280.97 149.5,-280.97 149.5,-261.72 271.25,-261.72 271.25,-280.97"/>
<text text-anchor="middle" x="210.38" y="-267.47" font-family="Helvetica,sans-Serif" font-size="10.00">stk500generic_teardown</text>
</a>
</g>
</g>
<!-- Node4&#45;&gt;Node8 -->
<g id="edge8_Node000004_Node000008" class="edge">
<title>Node4&#45;&gt;Node8</title>
<g id="a_edge8_Node000004_Node000008"><a xlink:title=" ">
<path fill="none" stroke="#63b8ff" d="M316.5,-283.73C301.95,-282.01 286.22,-280.16 271.48,-278.42"/>
<polygon fill="#63b8ff" stroke="#63b8ff" points="316.03,-287.31 326.37,-285.01 316.85,-280.36 316.03,-287.31"/>
</a>
</g>
</g>
<!-- Node9 -->
<g id="Node000009" class="node">
<title>Node9</title>
<g id="a_Node000009"><a xlink:href="../../d5/df3/wiring_8c.html#a8d54e7db5ea45d8a2b0128fd771b7947" target="_top" xlink:title=" ">
<polygon fill="white" stroke="#666666" points="249.5,-243.97 171.25,-243.97 171.25,-224.72 249.5,-224.72 249.5,-243.97"/>
<text text-anchor="middle" x="210.38" y="-230.47" font-family="Helvetica,sans-Serif" font-size="10.00">wiring_initpgm</text>
</a>
</g>
</g>
<!-- Node4&#45;&gt;Node9 -->
<g id="edge10_Node000004_Node000009" class="edge">
<title>Node4&#45;&gt;Node9</title>
<g id="a_edge10_Node000004_Node000009"><a xlink:title=" ">
<path fill="none" stroke="#63b8ff" d="M337.27,-276.41C317.88,-268.95 293.37,-259.8 271.25,-252.35 263.23,-249.64 254.53,-246.92 246.33,-244.43"/>
<polygon fill="#63b8ff" stroke="#63b8ff" points="335.88,-280.01 346.47,-280.35 338.41,-273.48 335.88,-280.01"/>
</a>
</g>
</g>
<!-- Node6 -->
<g id="Node000006" class="node">
<title>Node6</title>
<g id="a_Node000006"><a xlink:href="../../d9/d34/stk500generic_8c.html#ae82dc9f9fdcd46b2755f9b8002f640e2" target="_top" xlink:title=" ">
<polygon fill="white" stroke="#666666" points="113.5,-317.97 0,-317.97 0,-298.72 113.5,-298.72 113.5,-317.97"/>
<text text-anchor="middle" x="56.75" y="-304.47" font-family="Helvetica,sans-Serif" font-size="10.00">stk500generic_initpgm</text>
</a>
</g>
</g>
<!-- Node5&#45;&gt;Node6 -->
<g id="edge5_Node000005_Node000006" class="edge">
<title>Node5&#45;&gt;Node6</title>
<g id="a_edge5_Node000005_Node000006"><a xlink:title=" ">
<path fill="none" stroke="#63b8ff" d="M157.34,-332.65C138.33,-328.01 117.09,-322.83 99.13,-318.45"/>
<polygon fill="#63b8ff" stroke="#63b8ff" points="156.4,-336.27 166.94,-335.24 158.06,-329.47 156.4,-336.27"/>
</a>
</g>
</g>
<!-- Node7&#45;&gt;Node6 -->
<g id="edge7_Node000007_Node000006" class="edge">
<title>Node7&#45;&gt;Node6</title>
<g id="a_edge7_Node000007_Node000006"><a xlink:title=" ">
<path fill="none" stroke="#63b8ff" d="M146.19,-308.35C135.48,-308.35 124.43,-308.35 113.91,-308.35"/>
<polygon fill="#63b8ff" stroke="#63b8ff" points="146.19,-311.85 156.19,-308.35 146.19,-304.85 146.19,-311.85"/>
</a>
</g>
</g>
<!-- Node8&#45;&gt;Node6 -->
<g id="edge9_Node000008_Node000006" class="edge">
<title>Node8&#45;&gt;Node6</title>
<g id="a_edge9_Node000008_Node000006"><a xlink:title=" ">
<path fill="none" stroke="#63b8ff" d="M157.34,-284.04C138.33,-288.68 117.09,-293.87 99.13,-298.25"/>
<polygon fill="#63b8ff" stroke="#63b8ff" points="158.06,-287.23 166.94,-281.46 156.4,-280.43 158.06,-287.23"/>
</a>
</g>
</g>
<!-- Node14 -->
<g id="Node000014" class="node">
<title>Node14</title>
<g id="a_Node000014"><a xlink:href="../../d9/d12/stk500v2_8c.html#a54506ae507321252bad19bed9a9416a3" target="_top" xlink:title=" ">
<polygon fill="white" stroke="#666666" points="572.5,-283.97 476.25,-283.97 476.25,-264.72 572.5,-264.72 572.5,-283.97"/>
<text text-anchor="middle" x="524.38" y="-270.47" font-family="Helvetica,sans-Serif" font-size="10.00">stk500v2_initialize</text>
</a>
</g>
</g>
<!-- Node13&#45;&gt;Node14 -->
<g id="edge15_Node000013_Node000014" class="edge">
<title>Node13&#45;&gt;Node14</title>
<g id="a_edge15_Node000013_Node000014"><a xlink:title=" ">
<path fill="none" stroke="#63b8ff" d="M618.82,-299.44C600.46,-294.51 579.81,-288.97 562.61,-284.35"/>
<polygon fill="#63b8ff" stroke="#63b8ff" points="617.76,-303.05 628.33,-302.26 619.58,-296.29 617.76,-303.05"/>
</a>
</g>
</g>
<!-- Node14&#45;&gt;Node3 -->
<g id="edge16_Node000014_Node000003" class="edge">
<title>Node14&#45;&gt;Node3</title>
<g id="a_edge16_Node000014_Node000003"><a xlink:title=" ">
<path fill="none" stroke="#63b8ff" d="M498.75,-290.09C471.18,-307.71 426.75,-336.11 399.23,-353.7"/>
<polygon fill="#63b8ff" stroke="#63b8ff" points="500.21,-292.67 506.75,-284.34 496.44,-286.77 500.21,-292.67"/>
</a>
</g>
</g>
<!-- Node14&#45;&gt;Node4 -->
<g id="edge17_Node000014_Node000004" class="edge">
<title>Node14&#45;&gt;Node4</title>
<g id="a_edge17_Node000014_Node000004"><a xlink:title=" ">
<path fill="none" stroke="#63b8ff" d="M465.3,-280.6C450.42,-282.2 434.63,-283.9 420.47,-285.43"/>
<polygon fill="#63b8ff" stroke="#63b8ff" points="465.37,-284 474.94,-279.45 464.62,-277.05 465.37,-284"/>
</a>
</g>
</g>
<!-- Node14&#45;&gt;Node11 -->
<g id="edge18_Node000014_Node000011" class="edge">
<title>Node14&#45;&gt;Node11</title>
<g id="a_edge18_Node000014_Node000011"><a xlink:title=" ">
<path fill="none" stroke="#63b8ff" d="M513.6,-254.81C499.54,-227.72 471.78,-177.96 440.25,-141.35 424.63,-123.21 402.95,-105.87 388.88,-95.42"/>
<polygon fill="#63b8ff" stroke="#63b8ff" points="510.79,-256 518.46,-263.31 517.03,-252.81 510.79,-256"/>
</a>
</g>
</g>
<!-- Node14&#45;&gt;Node12 -->
<g id="edge19_Node000014_Node000012" class="edge">
<title>Node14&#45;&gt;Node12</title>
<g id="a_edge19_Node000014_Node000012"><a xlink:title=" ">
<path fill="none" stroke="#63b8ff" d="M501.7,-257.72C470.33,-233.66 413.23,-189.87 387.7,-170.28"/>
<polygon fill="#63b8ff" stroke="#63b8ff" points="499.12,-260.92 509.19,-264.23 503.38,-255.37 499.12,-260.92"/>
</a>
</g>
</g>
<!-- Node15&#45;&gt;Node3 -->
<g id="edge21_Node000015_Node000003" class="edge">
<title>Node15&#45;&gt;Node3</title>
<g id="a_edge21_Node000015_Node000003"><a xlink:title=" ">
<path fill="none" stroke="#63b8ff" d="M791.39,-176.15C773.68,-187.19 749.25,-202.09 727.25,-214.35 659.79,-251.94 643.03,-261.9 572.5,-293.35 520.94,-316.34 460.11,-339.09 419.67,-353.61"/>
<polygon fill="#63b8ff" stroke="#63b8ff" points="792.87,-178.73 799.48,-170.46 789.15,-172.8 792.87,-178.73"/>
</a>
</g>
</g>
<!-- Node15&#45;&gt;Node4 -->
<g id="edge22_Node000015_Node000004" class="edge">
<title>Node15&#45;&gt;Node4</title>
<g id="a_edge22_Node000015_Node000004"><a xlink:title=" ">
<path fill="none" stroke="#63b8ff" d="M766.81,-173.2C700.35,-190.66 578.82,-223.37 476.25,-255.35 451.16,-263.17 422.92,-272.99 402.61,-280.24"/>
<polygon fill="#63b8ff" stroke="#63b8ff" points="767.6,-176.35 776.39,-170.43 765.83,-169.58 767.6,-176.35"/>
</a>
</g>
</g>
<!-- Node15&#45;&gt;Node10 -->
<g id="edge23_Node000015_Node000010" class="edge">
<title>Node15&#45;&gt;Node10</title>
<g id="a_edge23_Node000015_Node000010"><a xlink:title=" ">
<path fill="none" stroke="#63b8ff" d="M791.61,-144.66C774.01,-133.81 749.61,-119.4 727.25,-108.35 717.13,-103.35 705.71,-98.48 695.66,-94.46"/>
<polygon fill="#63b8ff" stroke="#63b8ff" points="789.3,-147.96 799.64,-150.27 793,-142.02 789.3,-147.96"/>
</a>
</g>
</g>
<!-- Node15&#45;&gt;Node11 -->
<g id="edge24_Node000015_Node000011" class="edge">
<title>Node15&#45;&gt;Node11</title>
<g id="a_edge24_Node000015_Node000011"><a xlink:title=" ">
<path fill="none" stroke="#63b8ff" d="M805.31,-141.21C790.78,-118.2 762.86,-80.77 727.25,-65.35 615.88,-17.12 465.92,-55.46 403.68,-75.31"/>
<polygon fill="#63b8ff" stroke="#63b8ff" points="802.69,-142.63 810.87,-149.36 808.67,-138.99 802.69,-142.63"/>
</a>
</g>
</g>
<!-- Node15&#45;&gt;Node12 -->
<g id="edge25_Node000015_Node000012" class="edge">
<title>Node15&#45;&gt;Node12</title>
<g id="a_edge25_Node000015_Node000012"><a xlink:title=" ">
<path fill="none" stroke="#63b8ff" d="M751.99,-149.02C743.69,-147.92 735.28,-146.98 727.25,-146.35 614.29,-137.53 480.5,-148.77 414.99,-155.68"/>
<polygon fill="#63b8ff" stroke="#63b8ff" points="751.42,-152.61 761.81,-150.55 752.4,-145.68 751.42,-152.61"/>
</a>
</g>
</g>
<!-- Node15&#45;&gt;Node13 -->
<g id="edge26_Node000015_Node000013" class="edge">
<title>Node15&#45;&gt;Node13</title>
<g id="a_edge26_Node000015_Node000013"><a xlink:title=" ">
<path fill="none" stroke="#63b8ff" d="M799.19,-178.06C767.94,-210.26 702.82,-277.37 678.4,-302.54"/>
<polygon fill="#63b8ff" stroke="#63b8ff" points="801.24,-180.94 805.7,-171.32 796.22,-176.06 801.24,-180.94"/>
</a>
</g>
</g>
</g>
</svg>
