<?xml version="1.0" encoding="UTF-8" standalone="no"?>
<!DOCTYPE svg PUBLIC "-//W3C//DTD SVG 1.1//EN"
 "http://www.w3.org/Graphics/SVG/1.1/DTD/svg11.dtd">
<!-- Generated by graphviz version 8.0.5 (20230430.1635)
 -->
<!-- Title: stk600_set_sck_period Pages: 1 -->
<svg width="371pt" height="111pt"
 viewBox="0.00 0.00 371.00 111.25" xmlns="http://www.w3.org/2000/svg" xmlns:xlink="http://www.w3.org/1999/xlink">

<svg id="main" version="1.1" xmlns="http://www.w3.org/2000/svg" xmlns:xlink="http://www.w3.org/1999/xlink" xml:space="preserve" onload="init(evt)">
<style type="text/css"><![CDATA[
.node, .edge {opacity: 0.7;}
.node.selected, .edge.selected {opacity: 1;}
.edge:hover path { stroke: red; }
.edge:hover polygon { stroke: red; fill: red; }
]]></style>
<script type="application/ecmascript" xlink:href="../../svg.min.js"/>
<svg id="graph" class="graph">
<g id="graph0" class="graph" transform="scale(1 1) rotate(0) translate(4 107.25)">
<title>stk600_set_sck_period</title>
<!-- Node1 -->
<g id="Node000001" class="node">
<title>Node1</title>
<g id="a_Node000001"><a xlink:title=" ">
<polygon fill="#999999" stroke="#666666" points="363,-65.25 246.5,-65.25 246.5,-46 363,-46 363,-65.25"/>
<text text-anchor="middle" x="304.75" y="-51.75" font-family="Helvetica,sans-Serif" font-size="10.00">stk600_set_sck_period</text>
</a>
</g>
</g>
<!-- Node2 -->
<g id="Node000002" class="node">
<title>Node2</title>
<g id="a_Node000002"><a xlink:href="../../d9/d12/stk500v2_8c.html#aa8f862d88ff9db1cdd95f2ae21755836" target="_top" xlink:title=" ">
<polygon fill="white" stroke="#666666" points="92.5,-103.25 10.5,-103.25 10.5,-84 92.5,-84 92.5,-103.25"/>
<text text-anchor="middle" x="51.5" y="-89.75" font-family="Helvetica,sans-Serif" font-size="10.00">stk600_initpgm</text>
</a>
</g>
</g>
<!-- Node1&#45;&gt;Node2 -->
<g id="edge1_Node000001_Node000002" class="edge">
<title>Node1&#45;&gt;Node2</title>
<g id="a_edge1_Node000001_Node000002"><a xlink:title=" ">
<path fill="none" stroke="#63b8ff" d="M275.28,-70.6C257.26,-79.21 233.16,-89.19 210.5,-93.62 171.06,-101.35 125.02,-100.23 92.85,-97.87"/>
<polygon fill="#63b8ff" stroke="#63b8ff" points="276.72,-73.3 284.13,-65.73 273.62,-67.02 276.72,-73.3"/>
</a>
</g>
</g>
<!-- Node3 -->
<g id="Node000003" class="node">
<title>Node3</title>
<g id="a_Node000003"><a xlink:href="../../d9/d12/stk500v2_8c.html#abc8d7cb2ab91d7c5e739f94218bbaee5" target="_top" xlink:title=" ">
<polygon fill="white" stroke="#666666" points="210.5,-84.25 139,-84.25 139,-65 210.5,-65 210.5,-84.25"/>
<text text-anchor="middle" x="174.75" y="-70.75" font-family="Helvetica,sans-Serif" font-size="10.00">stk600_open</text>
</a>
</g>
</g>
<!-- Node1&#45;&gt;Node3 -->
<g id="edge2_Node000001_Node000003" class="edge">
<title>Node1&#45;&gt;Node3</title>
<g id="a_edge2_Node000001_Node000003"><a xlink:title=" ">
<path fill="none" stroke="#63b8ff" d="M235.32,-65.78C226.81,-67.05 218.41,-68.29 210.71,-69.44"/>
<polygon fill="#63b8ff" stroke="#63b8ff" points="235.74,-69.11 245.12,-64.18 234.71,-62.19 235.74,-69.11"/>
</a>
</g>
</g>
<!-- Node4 -->
<g id="Node000004" class="node">
<title>Node4</title>
<g id="a_Node000004"><a xlink:href="../../d9/d12/stk500v2_8c.html#a57cc55a9be2a544f863f1fd4a77257d6" target="_top" xlink:title=" ">
<polygon fill="white" stroke="#666666" points="103,-56.25 0,-56.25 0,-37 103,-37 103,-56.25"/>
<text text-anchor="middle" x="51.5" y="-42.75" font-family="Helvetica,sans-Serif" font-size="10.00">stk600hvsp_initpgm</text>
</a>
</g>
</g>
<!-- Node1&#45;&gt;Node4 -->
<g id="edge6_Node000001_Node000004" class="edge">
<title>Node1&#45;&gt;Node4</title>
<g id="a_edge6_Node000001_Node000004"><a xlink:title=" ">
<path fill="none" stroke="#63b8ff" d="M235.23,-53.17C193.64,-51.68 141.43,-49.81 103.48,-48.45"/>
<polygon fill="#63b8ff" stroke="#63b8ff" points="234.99,-56.7 245.11,-53.56 235.24,-49.7 234.99,-56.7"/>
</a>
</g>
</g>
<!-- Node5 -->
<g id="Node000005" class="node">
<title>Node5</title>
<g id="a_Node000005"><a xlink:href="../../d9/d12/stk500v2_8c.html#abc295844729bb0372d425493ae5b816c" target="_top" xlink:title=" ">
<polygon fill="white" stroke="#666666" points="97.75,-19.25 5.25,-19.25 5.25,0 97.75,0 97.75,-19.25"/>
<text text-anchor="middle" x="51.5" y="-5.75" font-family="Helvetica,sans-Serif" font-size="10.00">stk600pp_initpgm</text>
</a>
</g>
</g>
<!-- Node1&#45;&gt;Node5 -->
<g id="edge7_Node000001_Node000005" class="edge">
<title>Node1&#45;&gt;Node5</title>
<g id="a_edge7_Node000001_Node000005"><a xlink:title=" ">
<path fill="none" stroke="#63b8ff" d="M237.98,-43.58C193.89,-35.51 136.95,-25.09 97.86,-17.93"/>
<polygon fill="#63b8ff" stroke="#63b8ff" points="237.15,-47.17 247.61,-45.53 238.41,-40.29 237.15,-47.17"/>
</a>
</g>
</g>
<!-- Node3&#45;&gt;Node2 -->
<g id="edge3_Node000003_Node000002" class="edge">
<title>Node3&#45;&gt;Node2</title>
<g id="a_edge3_Node000003_Node000002"><a xlink:title=" ">
<path fill="none" stroke="#63b8ff" d="M127.86,-81.82C116.26,-83.63 103.9,-85.57 92.61,-87.34"/>
<polygon fill="#63b8ff" stroke="#63b8ff" points="128.34,-85.13 137.68,-80.12 127.26,-78.21 128.34,-85.13"/>
</a>
</g>
</g>
<!-- Node3&#45;&gt;Node4 -->
<g id="edge4_Node000003_Node000004" class="edge">
<title>Node3&#45;&gt;Node4</title>
<g id="a_edge4_Node000003_Node000004"><a xlink:title=" ">
<path fill="none" stroke="#63b8ff" d="M128.06,-64.07C117.59,-61.66 106.49,-59.09 96.12,-56.7"/>
<polygon fill="#63b8ff" stroke="#63b8ff" points="127.15,-67.69 137.68,-66.53 128.72,-60.87 127.15,-67.69"/>
</a>
</g>
</g>
<!-- Node3&#45;&gt;Node5 -->
<g id="edge5_Node000003_Node000005" class="edge">
<title>Node3&#45;&gt;Node5</title>
<g id="a_edge5_Node000003_Node000005"><a xlink:title=" ">
<path fill="none" stroke="#63b8ff" d="M152.17,-58.28C138.57,-48.5 120.35,-36.32 103,-27.62 97.17,-24.71 90.76,-22.04 84.51,-19.7"/>
<polygon fill="#63b8ff" stroke="#63b8ff" points="149.64,-61.5 159.78,-64.6 153.78,-55.86 149.64,-61.5"/>
</a>
</g>
</g>
</g>
</svg>
</svg>

<style type='text/css'>
<![CDATA[
[data-mouse-over-selected='false'] { opacity: 0.7; }
[data-mouse-over-selected='true']  { opacity: 1.0; }
]]>
</style>
<script type="application/ecmascript"><![CDATA[
document.addEventListener('DOMContentLoaded', (event) => {
  highlightEdges();
  highlightAdjacentNodes();
});
]]></script>
</svg>
