<?xml version="1.0" encoding="UTF-8" standalone="no"?>
<!DOCTYPE svg PUBLIC "-//W3C//DTD SVG 1.1//EN"
 "http://www.w3.org/Graphics/SVG/1.1/DTD/svg11.dtd">
<!-- Generated by graphviz version 8.0.5 (20230430.1635)
 -->
<!-- Title: stk500hv_initialize Pages: 1 -->
<svg width="400pt" height="236pt"
 viewBox="0.00 0.00 399.50 236.25" xmlns="http://www.w3.org/2000/svg" xmlns:xlink="http://www.w3.org/1999/xlink">

<svg id="main" version="1.1" xmlns="http://www.w3.org/2000/svg" xmlns:xlink="http://www.w3.org/1999/xlink" xml:space="preserve" onload="init(evt)">
<style type="text/css"><![CDATA[
.node, .edge {opacity: 0.7;}
.node.selected, .edge.selected {opacity: 1;}
.edge:hover path { stroke: red; }
.edge:hover polygon { stroke: red; fill: red; }
]]></style>
<script type="application/ecmascript" xlink:href="../../svg.min.js"/>
<svg id="graph" class="graph">
<g id="graph0" class="graph" transform="scale(1 1) rotate(0) translate(4 232.25)">
<title>stk500hv_initialize</title>
<!-- Node1 -->
<g id="Node000001" class="node">
<title>Node1</title>
<g id="a_Node000001"><a xlink:title=" ">
<polygon fill="#999999" stroke="#666666" points="391.5,-112.25 295.25,-112.25 295.25,-93 391.5,-93 391.5,-112.25"/>
<text text-anchor="middle" x="343.38" y="-98.75" font-family="Helvetica,sans-Serif" font-size="10.00">stk500hv_initialize</text>
</a>
</g>
</g>
<!-- Node2 -->
<g id="Node000002" class="node">
<title>Node2</title>
<g id="a_Node000002"><a xlink:href="../../d9/d12/stk500v2_8c.html#afa0abec32479b44383e065453bac2fc8" target="_top" xlink:title=" ">
<polygon fill="white" stroke="#666666" points="259.25,-152.25 152.5,-152.25 152.5,-133 259.25,-133 259.25,-152.25"/>
<text text-anchor="middle" x="205.88" y="-138.75" font-family="Helvetica,sans-Serif" font-size="10.00">stk500hvsp_initialize</text>
</a>
</g>
</g>
<!-- Node1&#45;&gt;Node2 -->
<g id="edge1_Node000001_Node000002" class="edge">
<title>Node1&#45;&gt;Node2</title>
<g id="a_edge1_Node000001_Node000002"><a xlink:title=" ">
<path fill="none" stroke="#63b8ff" d="M297.68,-115.82C279.24,-121.26 258.23,-127.47 241.06,-132.53"/>
<polygon fill="#63b8ff" stroke="#63b8ff" points="298.58,-118.91 307.18,-112.72 296.6,-112.19 298.58,-118.91"/>
</a>
</g>
</g>
<!-- Node6 -->
<g id="Node000006" class="node">
<title>Node6</title>
<g id="a_Node000006"><a xlink:href="../../d9/d12/stk500v2_8c.html#a4dc3bbbd71b7574021b1fc3aef2a746b" target="_top" xlink:title=" ">
<polygon fill="white" stroke="#666666" points="254,-94.25 157.75,-94.25 157.75,-75 254,-75 254,-94.25"/>
<text text-anchor="middle" x="205.88" y="-80.75" font-family="Helvetica,sans-Serif" font-size="10.00">stk500pp_initialize</text>
</a>
</g>
</g>
<!-- Node1&#45;&gt;Node6 -->
<g id="edge5_Node000001_Node000006" class="edge">
<title>Node1&#45;&gt;Node6</title>
<g id="a_edge5_Node000001_Node000006"><a xlink:title=" ">
<path fill="none" stroke="#63b8ff" d="M284.33,-94.91C274.37,-93.59 264.12,-92.23 254.47,-90.95"/>
<polygon fill="#63b8ff" stroke="#63b8ff" points="283.61,-98.48 293.98,-96.33 284.53,-91.54 283.61,-98.48"/>
</a>
</g>
</g>
<!-- Node3 -->
<g id="Node000003" class="node">
<title>Node3</title>
<g id="a_Node000003"><a xlink:href="../../d9/d12/stk500v2_8c.html#acc1692183dbdb01f25b8324283f2a765" target="_top" xlink:title=" ">
<polygon fill="white" stroke="#666666" points="109.75,-228.25 6.75,-228.25 6.75,-209 109.75,-209 109.75,-228.25"/>
<text text-anchor="middle" x="58.25" y="-214.75" font-family="Helvetica,sans-Serif" font-size="10.00">stk500hvsp_initpgm</text>
</a>
</g>
</g>
<!-- Node2&#45;&gt;Node3 -->
<g id="edge2_Node000002_Node000003" class="edge">
<title>Node2&#45;&gt;Node3</title>
<g id="a_edge2_Node000002_Node000003"><a xlink:title=" ">
<path fill="none" stroke="#63b8ff" d="M182.95,-159C165.6,-171.39 140.4,-188.18 116.5,-199.62 109.51,-202.97 101.78,-205.97 94.32,-208.55"/>
<polygon fill="#63b8ff" stroke="#63b8ff" points="184.69,-161.34 190.72,-152.63 180.57,-155.67 184.69,-161.34"/>
</a>
</g>
</g>
<!-- Node4 -->
<g id="Node000004" class="node">
<title>Node4</title>
<g id="a_Node000004"><a xlink:href="../../d9/d12/stk500v2_8c.html#a2a91e314fe3f1e4dd753cff5119343f6" target="_top" xlink:title=" ">
<polygon fill="white" stroke="#666666" points="116.5,-190.88 0,-190.88 0,-160.38 116.5,-160.38 116.5,-190.88"/>
<text text-anchor="start" x="8" y="-177.38" font-family="Helvetica,sans-Serif" font-size="10.00">stk500v2_dragon_hvsp</text>
<text text-anchor="middle" x="58.25" y="-166.12" font-family="Helvetica,sans-Serif" font-size="10.00">_initpgm</text>
</a>
</g>
</g>
<!-- Node2&#45;&gt;Node4 -->
<g id="edge3_Node000002_Node000004" class="edge">
<title>Node2&#45;&gt;Node4</title>
<g id="a_edge3_Node000002_Node000004"><a xlink:title=" ">
<path fill="none" stroke="#63b8ff" d="M149.84,-155.1C139.07,-157.54 127.75,-160.1 116.9,-162.56"/>
<polygon fill="#63b8ff" stroke="#63b8ff" points="150.41,-158.33 159.39,-152.71 148.87,-151.5 150.41,-158.33"/>
</a>
</g>
</g>
<!-- Node5 -->
<g id="Node000005" class="node">
<title>Node5</title>
<g id="a_Node000005"><a xlink:href="../../d9/d12/stk500v2_8c.html#a57cc55a9be2a544f863f1fd4a77257d6" target="_top" xlink:title=" ">
<polygon fill="white" stroke="#666666" points="109.75,-142.25 6.75,-142.25 6.75,-123 109.75,-123 109.75,-142.25"/>
<text text-anchor="middle" x="58.25" y="-128.75" font-family="Helvetica,sans-Serif" font-size="10.00">stk600hvsp_initpgm</text>
</a>
</g>
</g>
<!-- Node2&#45;&gt;Node5 -->
<g id="edge4_Node000002_Node000005" class="edge">
<title>Node2&#45;&gt;Node5</title>
<g id="a_edge4_Node000002_Node000005"><a xlink:title=" ">
<path fill="none" stroke="#63b8ff" d="M141.42,-138.27C130.84,-137.54 120,-136.8 109.8,-136.1"/>
<polygon fill="#63b8ff" stroke="#63b8ff" points="141.08,-141.82 151.3,-139.01 141.56,-134.84 141.08,-141.82"/>
</a>
</g>
</g>
<!-- Node7 -->
<g id="Node000007" class="node">
<title>Node7</title>
<g id="a_Node000007"><a xlink:href="../../d9/d12/stk500v2_8c.html#ac6576ef9cca39d65013e08ac1bd9b7f4" target="_top" xlink:title=" ">
<polygon fill="white" stroke="#666666" points="104.5,-105.25 12,-105.25 12,-86 104.5,-86 104.5,-105.25"/>
<text text-anchor="middle" x="58.25" y="-91.75" font-family="Helvetica,sans-Serif" font-size="10.00">stk500pp_initpgm</text>
</a>
</g>
</g>
<!-- Node6&#45;&gt;Node7 -->
<g id="edge6_Node000006_Node000007" class="edge">
<title>Node6&#45;&gt;Node7</title>
<g id="a_edge6_Node000006_Node000007"><a xlink:title=" ">
<path fill="none" stroke="#63b8ff" d="M146.63,-89.02C132.71,-90.08 118.06,-91.18 104.81,-92.18"/>
<polygon fill="#63b8ff" stroke="#63b8ff" points="146.89,-92.44 156.59,-88.2 146.36,-85.46 146.89,-92.44"/>
</a>
</g>
</g>
<!-- Node8 -->
<g id="Node000008" class="node">
<title>Node8</title>
<g id="a_Node000008"><a xlink:href="../../d9/d12/stk500v2_8c.html#a9ecbe056017fb61ae4264d14b9c2b9ce" target="_top" xlink:title=" ">
<polygon fill="white" stroke="#666666" points="111.25,-67.88 5.25,-67.88 5.25,-37.38 111.25,-37.38 111.25,-67.88"/>
<text text-anchor="start" x="13.25" y="-54.38" font-family="Helvetica,sans-Serif" font-size="10.00">stk500v2_dragon_pp</text>
<text text-anchor="middle" x="58.25" y="-43.12" font-family="Helvetica,sans-Serif" font-size="10.00">_initpgm</text>
</a>
</g>
</g>
<!-- Node6&#45;&gt;Node8 -->
<g id="edge7_Node000006_Node000008" class="edge">
<title>Node6&#45;&gt;Node8</title>
<g id="a_edge7_Node000006_Node000008"><a xlink:title=" ">
<path fill="none" stroke="#63b8ff" d="M148.37,-72.21C136.27,-69.55 123.55,-66.75 111.62,-64.13"/>
<polygon fill="#63b8ff" stroke="#63b8ff" points="147.28,-75.77 157.8,-74.5 148.78,-68.94 147.28,-75.77"/>
</a>
</g>
</g>
<!-- Node9 -->
<g id="Node000009" class="node">
<title>Node9</title>
<g id="a_Node000009"><a xlink:href="../../d9/d12/stk500v2_8c.html#abc295844729bb0372d425493ae5b816c" target="_top" xlink:title=" ">
<polygon fill="white" stroke="#666666" points="104.5,-19.25 12,-19.25 12,0 104.5,0 104.5,-19.25"/>
<text text-anchor="middle" x="58.25" y="-5.75" font-family="Helvetica,sans-Serif" font-size="10.00">stk600pp_initpgm</text>
</a>
</g>
</g>
<!-- Node6&#45;&gt;Node9 -->
<g id="edge8_Node000006_Node000009" class="edge">
<title>Node6&#45;&gt;Node9</title>
<g id="a_edge8_Node000006_Node000009"><a xlink:title=" ">
<path fill="none" stroke="#63b8ff" d="M182.6,-68.35C165.24,-56.21 140.18,-39.85 116.5,-28.62 109.5,-25.31 101.76,-22.32 94.3,-19.75"/>
<polygon fill="#63b8ff" stroke="#63b8ff" points="180.22,-71.66 190.4,-74.6 184.28,-65.96 180.22,-71.66"/>
</a>
</g>
</g>
</g>
</svg>
</svg>

<style type='text/css'>
<![CDATA[
[data-mouse-over-selected='false'] { opacity: 0.7; }
[data-mouse-over-selected='true']  { opacity: 1.0; }
]]>
</style>
<script type="application/ecmascript"><![CDATA[
document.addEventListener('DOMContentLoaded', (event) => {
  highlightEdges();
  highlightAdjacentNodes();
});
]]></script>
</svg>
