<?xml version="1.0" encoding="UTF-8" standalone="no"?>
<!DOCTYPE svg PUBLIC "-//W3C//DTD SVG 1.1//EN"
 "http://www.w3.org/Graphics/SVG/1.1/DTD/svg11.dtd">
<!-- Generated by graphviz version 8.0.5 (20230430.1635)
 -->
<!-- Title: src/libigl/igl/copyleft/cgal/slice.cpp Pages: 1 -->
<svg width="357pt" height="326pt"
 viewBox="0.00 0.00 357.25 326.00" xmlns="http://www.w3.org/2000/svg" xmlns:xlink="http://www.w3.org/1999/xlink">

<svg id="main" version="1.1" xmlns="http://www.w3.org/2000/svg" xmlns:xlink="http://www.w3.org/1999/xlink" xml:space="preserve" onload="init(evt)">
<style type="text/css"><![CDATA[
.node, .edge {opacity: 0.7;}
.node.selected, .edge.selected {opacity: 1;}
.edge:hover path { stroke: red; }
.edge:hover polygon { stroke: red; fill: red; }
]]></style>
<script type="application/ecmascript" xlink:href="../../svg.min.js"/>
<svg id="graph" class="graph">
<g id="graph0" class="graph" transform="scale(1 1) rotate(0) translate(4 322)">
<title>src/libigl/igl/copyleft/cgal/slice.cpp</title>
<!-- Node1 -->
<g id="Node000001" class="node">
<title>Node1</title>
<g id="a_Node000001"><a xlink:title=" ">
<polygon fill="#999999" stroke="#666666" points="188,-318 85.75,-318 85.75,-287.5 188,-287.5 188,-318"/>
<text text-anchor="start" x="93.75" y="-304.5" font-family="Helvetica,sans-Serif" font-size="10.00">src/libigl/igl/copyleft</text>
<text text-anchor="middle" x="136.88" y="-293.25" font-family="Helvetica,sans-Serif" font-size="10.00">/cgal/slice.cpp</text>
</a>
</g>
</g>
<!-- Node2 -->
<g id="Node000002" class="node">
<title>Node2</title>
<g id="a_Node000002"><a xlink:href="../../d0/d48/slice_8h.html" target="_top" xlink:title=" ">
<polygon fill="white" stroke="#666666" points="168.12,-251.5 105.62,-251.5 105.62,-232.25 168.12,-232.25 168.12,-251.5"/>
<text text-anchor="middle" x="136.88" y="-238" font-family="Helvetica,sans-Serif" font-size="10.00">../../slice.h</text>
</a>
</g>
</g>
<!-- Node1&#45;&gt;Node2 -->
<g id="edge1_Node000001_Node000002" class="edge">
<title>Node1&#45;&gt;Node2</title>
<g id="a_edge1_Node000001_Node000002"><a xlink:title=" ">
<path fill="none" stroke="#63b8ff" d="M136.88,-287.2C136.88,-279.87 136.88,-270.87 136.88,-262.91"/>
<polygon fill="#63b8ff" stroke="#63b8ff" points="140.38,-262.95 136.88,-252.95 133.38,-262.95 140.38,-262.95"/>
</a>
</g>
</g>
<!-- Node3 -->
<g id="Node000003" class="node">
<title>Node3</title>
<g id="a_Node000003"><a xlink:href="../../d6/d68/igl__inline_8h.html" target="_top" xlink:title=" ">
<polygon fill="white" stroke="#666666" points="61.75,-74.5 0,-74.5 0,-55.25 61.75,-55.25 61.75,-74.5"/>
<text text-anchor="middle" x="30.88" y="-61" font-family="Helvetica,sans-Serif" font-size="10.00">igl_inline.h</text>
</a>
</g>
</g>
<!-- Node2&#45;&gt;Node3 -->
<g id="edge2_Node000002_Node000003" class="edge">
<title>Node2&#45;&gt;Node3</title>
<g id="a_edge2_Node000002_Node000003"><a xlink:title=" ">
<path fill="none" stroke="#63b8ff" d="M105.45,-232.74C86.32,-226.11 63.11,-214.75 49.88,-196.25 26.22,-163.17 26.26,-113.16 28.49,-85.69"/>
<polygon fill="#63b8ff" stroke="#63b8ff" points="32.07,-86.1 29.59,-75.79 25.1,-85.39 32.07,-86.1"/>
</a>
</g>
</g>
<!-- Node4 -->
<g id="Node000004" class="node">
<title>Node4</title>
<g id="a_Node000004"><a xlink:title=" ">
<polygon fill="#e0e0e0" stroke="#999999" points="133.12,-196.25 58.62,-196.25 58.62,-177 133.12,-177 133.12,-196.25"/>
<text text-anchor="middle" x="95.88" y="-182.75" font-family="Helvetica,sans-Serif" font-size="10.00">Eigen/Sparse</text>
</a>
</g>
</g>
<!-- Node2&#45;&gt;Node4 -->
<g id="edge3_Node000002_Node000004" class="edge">
<title>Node2&#45;&gt;Node4</title>
<g id="a_edge3_Node000002_Node000004"><a xlink:title=" ">
<path fill="none" stroke="#63b8ff" d="M130.1,-232.08C124.5,-224.8 116.36,-214.23 109.43,-205.23"/>
<polygon fill="#63b8ff" stroke="#63b8ff" points="111.67,-203.4 102.79,-197.61 106.12,-207.67 111.67,-203.4"/>
</a>
</g>
</g>
<!-- Node5 -->
<g id="Node000005" class="node">
<title>Node5</title>
<g id="a_Node000005"><a xlink:href="../../de/dfb/slice_8cpp.html" target="_top" xlink:title=" ">
<polygon fill="white" stroke="#666666" points="206.38,-196.25 151.38,-196.25 151.38,-177 206.38,-177 206.38,-196.25"/>
<text text-anchor="middle" x="178.88" y="-182.75" font-family="Helvetica,sans-Serif" font-size="10.00">slice.cpp</text>
</a>
</g>
</g>
<!-- Node2&#45;&gt;Node5 -->
<g id="edge4_Node000002_Node000005" class="edge">
<title>Node2&#45;&gt;Node5</title>
<g id="a_edge4_Node000002_Node000005"><a xlink:title=" ">
<path fill="none" stroke="#63b8ff" d="M138.64,-232.08C142.92,-224.65 151.09,-213.79 159.09,-204.66"/>
<polygon fill="#63b8ff" stroke="#63b8ff" points="161.33,-207.32 165.58,-197.61 156.21,-202.55 161.33,-207.32"/>
</a>
</g>
</g>
<!-- Node5&#45;&gt;Node2 -->
<g id="edge5_Node000005_Node000002" class="edge">
<title>Node5&#45;&gt;Node2</title>
<g id="a_edge5_Node000005_Node000002"><a xlink:title=" ">
<path fill="none" stroke="#63b8ff" d="M177,-196.61C172.66,-204.1 164.45,-214.98 156.45,-224.07"/>
<polygon fill="#63b8ff" stroke="#63b8ff" points="154.24,-221.38 149.98,-231.08 159.36,-226.16 154.24,-221.38"/>
</a>
</g>
</g>
<!-- Node6 -->
<g id="Node000006" class="node">
<title>Node6</title>
<g id="a_Node000006"><a xlink:href="../../d2/db7/colon_8h.html" target="_top" xlink:title=" ">
<polygon fill="white" stroke="#666666" points="139.62,-135.38 92.12,-135.38 92.12,-116.12 139.62,-116.12 139.62,-135.38"/>
<text text-anchor="middle" x="115.88" y="-121.88" font-family="Helvetica,sans-Serif" font-size="10.00">colon.h</text>
</a>
</g>
</g>
<!-- Node5&#45;&gt;Node6 -->
<g id="edge6_Node000005_Node000006" class="edge">
<title>Node5&#45;&gt;Node6</title>
<g id="a_edge6_Node000005_Node000006"><a xlink:title=" ">
<path fill="none" stroke="#63b8ff" d="M169.31,-176.68C159.78,-167.78 144.93,-153.91 133.31,-143.04"/>
<polygon fill="#63b8ff" stroke="#63b8ff" points="136.23,-141.05 126.53,-136.78 131.45,-146.16 136.23,-141.05"/>
</a>
</g>
</g>
<!-- Node12 -->
<g id="Node000012" class="node">
<title>Node12</title>
<g id="a_Node000012"><a xlink:title=" ">
<polygon fill="#e0e0e0" stroke="#999999" points="200.38,-135.38 157.38,-135.38 157.38,-116.12 200.38,-116.12 200.38,-135.38"/>
<text text-anchor="middle" x="178.88" y="-121.88" font-family="Helvetica,sans-Serif" font-size="10.00">vector</text>
</a>
</g>
</g>
<!-- Node5&#45;&gt;Node12 -->
<g id="edge13_Node000005_Node000012" class="edge">
<title>Node5&#45;&gt;Node12</title>
<g id="a_edge13_Node000005_Node000012"><a xlink:title=" ">
<path fill="none" stroke="#63b8ff" d="M178.88,-176.68C178.88,-168.73 178.88,-156.81 178.88,-146.62"/>
<polygon fill="#63b8ff" stroke="#63b8ff" points="182.38,-146.78 178.88,-136.78 175.38,-146.78 182.38,-146.78"/>
</a>
</g>
</g>
<!-- Node13 -->
<g id="Node000013" class="node">
<title>Node13</title>
<g id="a_Node000013"><a xlink:title=" ">
<polygon fill="#e0e0e0" stroke="#999999" points="349.25,-141 218.5,-141 218.5,-110.5 349.25,-110.5 349.25,-141"/>
<text text-anchor="start" x="226.5" y="-127.5" font-family="Helvetica,sans-Serif" font-size="10.00">unsupported/Eigen/Sparse</text>
<text text-anchor="middle" x="283.88" y="-116.25" font-family="Helvetica,sans-Serif" font-size="10.00">Extra</text>
</a>
</g>
</g>
<!-- Node5&#45;&gt;Node13 -->
<g id="edge14_Node000005_Node000013" class="edge">
<title>Node5&#45;&gt;Node13</title>
<g id="a_edge14_Node000005_Node000013"><a xlink:title=" ">
<path fill="none" stroke="#63b8ff" d="M194.82,-176.68C209.02,-168.72 230.3,-156.79 248.5,-146.58"/>
<polygon fill="#63b8ff" stroke="#63b8ff" points="249.95,-149.23 256.96,-141.28 246.52,-143.12 249.95,-149.23"/>
</a>
</g>
</g>
<!-- Node6&#45;&gt;Node3 -->
<g id="edge7_Node000006_Node000003" class="edge">
<title>Node6&#45;&gt;Node3</title>
<g id="a_edge7_Node000006_Node000003"><a xlink:title=" ">
<path fill="none" stroke="#63b8ff" d="M102.97,-115.81C89.61,-106.56 68.52,-91.95 52.59,-80.92"/>
<polygon fill="#63b8ff" stroke="#63b8ff" points="55.12,-77.72 44.91,-74.9 51.13,-83.47 55.12,-77.72"/>
</a>
</g>
</g>
<!-- Node7 -->
<g id="Node000007" class="node">
<title>Node7</title>
<g id="a_Node000007"><a xlink:title=" ">
<polygon fill="#e0e0e0" stroke="#999999" points="152,-74.5 79.75,-74.5 79.75,-55.25 152,-55.25 152,-74.5"/>
<text text-anchor="middle" x="115.88" y="-61" font-family="Helvetica,sans-Serif" font-size="10.00">Eigen/Dense</text>
</a>
</g>
</g>
<!-- Node6&#45;&gt;Node7 -->
<g id="edge8_Node000006_Node000007" class="edge">
<title>Node6&#45;&gt;Node7</title>
<g id="a_edge8_Node000006_Node000007"><a xlink:title=" ">
<path fill="none" stroke="#63b8ff" d="M115.88,-115.81C115.88,-107.85 115.88,-95.94 115.88,-85.74"/>
<polygon fill="#63b8ff" stroke="#63b8ff" points="119.38,-85.9 115.88,-75.9 112.38,-85.9 119.38,-85.9"/>
</a>
</g>
</g>
<!-- Node8 -->
<g id="Node000008" class="node">
<title>Node8</title>
<g id="a_Node000008"><a xlink:href="../../da/dd4/colon_8cpp.html" target="_top" xlink:title=" ">
<polygon fill="white" stroke="#666666" points="227.88,-74.5 169.88,-74.5 169.88,-55.25 227.88,-55.25 227.88,-74.5"/>
<text text-anchor="middle" x="198.88" y="-61" font-family="Helvetica,sans-Serif" font-size="10.00">colon.cpp</text>
</a>
</g>
</g>
<!-- Node6&#45;&gt;Node8 -->
<g id="edge9_Node000006_Node000008" class="edge">
<title>Node6&#45;&gt;Node8</title>
<g id="a_edge9_Node000006_Node000008"><a xlink:title=" ">
<path fill="none" stroke="#63b8ff" d="M123.47,-115.81C134.68,-106.47 155.23,-91.67 172.17,-80.61"/>
<polygon fill="#63b8ff" stroke="#63b8ff" points="173.57,-83.23 180.12,-74.9 169.81,-77.32 173.57,-83.23"/>
</a>
</g>
</g>
<!-- Node8&#45;&gt;Node6 -->
<g id="edge10_Node000008_Node000006" class="edge">
<title>Node8&#45;&gt;Node6</title>
<g id="a_edge10_Node000008_Node000006"><a xlink:title=" ">
<path fill="none" stroke="#63b8ff" d="M191.18,-74.9C179.91,-84.27 159.34,-99.07 142.43,-110.12"/>
<polygon fill="#63b8ff" stroke="#63b8ff" points="141.05,-107.49 134.49,-115.81 144.81,-113.39 141.05,-107.49"/>
</a>
</g>
</g>
<!-- Node9 -->
<g id="Node000009" class="node">
<title>Node9</title>
<g id="a_Node000009"><a xlink:href="../../dc/df0/_lin_spaced_8h.html" target="_top" xlink:title=" ">
<polygon fill="#fff0f0" stroke="red" points="196.88,-19.25 126.88,-19.25 126.88,0 196.88,0 196.88,-19.25"/>
<text text-anchor="middle" x="161.88" y="-5.75" font-family="Helvetica,sans-Serif" font-size="10.00">LinSpaced.h</text>
</a>
</g>
</g>
<!-- Node8&#45;&gt;Node9 -->
<g id="edge11_Node000008_Node000009" class="edge">
<title>Node8&#45;&gt;Node9</title>
<g id="a_edge11_Node000008_Node000009"><a xlink:title=" ">
<path fill="none" stroke="#63b8ff" d="M192.77,-55.08C187.76,-47.88 180.52,-37.46 174.3,-28.51"/>
<polygon fill="#63b8ff" stroke="#63b8ff" points="176.7,-26.82 168.12,-20.61 170.95,-30.82 176.7,-26.82"/>
</a>
</g>
</g>
<!-- Node11 -->
<g id="Node000011" class="node">
<title>Node11</title>
<g id="a_Node000011"><a xlink:title=" ">
<polygon fill="#e0e0e0" stroke="#999999" points="257,-19.25 214.75,-19.25 214.75,0 257,0 257,-19.25"/>
<text text-anchor="middle" x="235.88" y="-5.75" font-family="Helvetica,sans-Serif" font-size="10.00">cstdio</text>
</a>
</g>
</g>
<!-- Node8&#45;&gt;Node11 -->
<g id="edge12_Node000008_Node000011" class="edge">
<title>Node8&#45;&gt;Node11</title>
<g id="a_edge12_Node000008_Node000011"><a xlink:title=" ">
<path fill="none" stroke="#63b8ff" d="M204.98,-55.08C209.99,-47.88 217.23,-37.46 223.45,-28.51"/>
<polygon fill="#63b8ff" stroke="#63b8ff" points="226.8,-30.82 229.63,-20.61 221.05,-26.82 226.8,-30.82"/>
</a>
</g>
</g>
</g>
</svg>
</svg>

<style type='text/css'>
<![CDATA[
[data-mouse-over-selected='false'] { opacity: 0.7; }
[data-mouse-over-selected='true']  { opacity: 1.0; }
]]>
</style>
<script type="application/ecmascript"><![CDATA[
document.addEventListener('DOMContentLoaded', (event) => {
  highlightEdges();
  highlightAdjacentNodes();
});
]]></script>
</svg>
