<?xml version="1.0" encoding="UTF-8" standalone="no"?>
<!DOCTYPE svg PUBLIC "-//W3C//DTD SVG 1.1//EN"
 "http://www.w3.org/Graphics/SVG/1.1/DTD/svg11.dtd">
<!-- Generated by graphviz version 8.0.5 (20230430.1635)
 -->
<!-- Title: Slic3r::GUI::GLCanvas3D::~GLCanvas3D Pages: 1 -->
<!--zoomable 296 -->

<svg id="main" version="1.1" xmlns="http://www.w3.org/2000/svg" xmlns:xlink="http://www.w3.org/1999/xlink" xml:space="preserve" onload="init(evt)">
<style type="text/css"><![CDATA[
.node, .edge {opacity: 0.7;}
.node.selected, .edge.selected {opacity: 1;}
.edge:hover path { stroke: red; }
.edge:hover polygon { stroke: red; fill: red; }
]]></style>

<defs>
  <circle id="rim" cx="0" cy="0" r="7"/>
  <circle id="rim2" cx="0" cy="0" r="3.5"/>
  <g id="zoomPlus">
    <use xlink:href="#rim" fill="#404040"><set attributeName="fill" to="#808080" begin="zoomplus.mouseover" end="zoomplus.mouseout"/></use>
    <path d="M-4,0h8M0,-4v8" fill="none" stroke="white" stroke-width="1.5" pointer-events="none"/>
  </g>
  <g id="zoomMin">
    <use xlink:href="#rim" fill="#404040"><set attributeName="fill" to="#808080" begin="zoomminus.mouseover" end="zoomminus.mouseout"/></use>
    <path d="M-4,0h8" fill="none" stroke="white" stroke-width="1.5" pointer-events="none"/>
  </g>
  <g id="arrowUp" transform="translate(30 24)">
    <use xlink:href="#rim"/>
    <path pointer-events="none" fill="none" stroke="white" stroke-width="1.5" d="M0,-3.0v7 M-2.5,-0.5L0,-3.0L2.5,-0.5"/>
  </g>
  <g id="arrowRight" transform="rotate(90) translate(36 -43)">
    <use xlink:href="#rim"/>
    <path pointer-events="none" fill="none" stroke="white" stroke-width="1.5" d="M0,-3.0v7 M-2.5,-0.5L0,-3.0L2.5,-0.5"/>
  </g>
  <g id="arrowDown" transform="rotate(180) translate(-30 -48)">
    <use xlink:href="#rim"/>
    <path pointer-events="none" fill="none" stroke="white" stroke-width="1.5" d="M0,-3.0v7 M-2.5,-0.5L0,-3.0L2.5,-0.5"/>
  </g>
  <g id="arrowLeft" transform="rotate(270) translate(-36 17)">
    <use xlink:href="#rim"/>
    <path pointer-events="none" fill="none" stroke="white" stroke-width="1.5" d="M0,-3.0v7 M-2.5,-0.5L0,-3.0L2.5,-0.5"/>
  </g>
  <g id="resetDef">
    <use xlink:href="#rim2" fill="#404040"><set attributeName="fill" to="#808080" begin="reset.mouseover" end="reset.mouseout"/></use>
  </g>
</defs>
<script type="application/ecmascript">
var viewWidth = 825;
var viewHeight = 296;
var sectionId = 'dynsection-2';
</script>
<script type="application/ecmascript" xlink:href="../../svg.min.js"/>
<svg id="graph" class="graph">
<g id="viewport">
<title>Slic3r::GUI::GLCanvas3D::~GLCanvas3D</title>
<!-- Node1 -->
<g id="Node000001" class="node">
<title>Node1</title>
<g id="a_Node000001"><a xlink:title=" ">
<polygon fill="#999999" stroke="#666666" points="130,-189.5 0,-189.5 0,-159 130,-159 130,-189.5"/>
<text text-anchor="start" x="8" y="-176" font-family="Helvetica,sans-Serif" font-size="10.00">Slic3r::GUI::GLCanvas3D</text>
<text text-anchor="middle" x="65" y="-164.75" font-family="Helvetica,sans-Serif" font-size="10.00">::~GLCanvas3D</text>
</a>
</g>
</g>
<!-- Node2 -->
<g id="Node000002" class="node">
<title>Node2</title>
<g id="a_Node000002"><a xlink:href="../../d0/d2b/class_slic3r_1_1_g_u_i_1_1_g_l_canvas3_d.html#a096df36d00a506134646ca619e2c9a4c" target="_top" xlink:title=" ">
<polygon fill="white" stroke="#666666" points="296,-189.5 166,-189.5 166,-159 296,-159 296,-189.5"/>
<text text-anchor="start" x="174" y="-176" font-family="Helvetica,sans-Serif" font-size="10.00">Slic3r::GUI::GLCanvas3D</text>
<text text-anchor="middle" x="231" y="-164.75" font-family="Helvetica,sans-Serif" font-size="10.00">::reset_volumes</text>
</a>
</g>
</g>
<!-- Node1&#45;&gt;Node2 -->
<g id="edge1_Node000001_Node000002" class="edge">
<title>Node1&#45;&gt;Node2</title>
<g id="a_edge1_Node000001_Node000002"><a xlink:title=" ">
<path fill="none" stroke="#63b8ff" d="M130.35,-174.25C138.31,-174.25 146.5,-174.25 154.6,-174.25"/>
<polygon fill="#63b8ff" stroke="#63b8ff" points="154.57,-177.75 164.57,-174.25 154.57,-170.75 154.57,-177.75"/>
</a>
</g>
</g>
<!-- Node3 -->
<g id="Node000003" class="node">
<title>Node3</title>
<g id="a_Node000003"><a xlink:href="../../d0/d2b/class_slic3r_1_1_g_u_i_1_1_g_l_canvas3_d.html#a9aa034620428e361c73b983200752617" target="_top" xlink:title=" ">
<polygon fill="white" stroke="#666666" points="464.62,-287.5 334.62,-287.5 334.62,-257 464.62,-257 464.62,-287.5"/>
<text text-anchor="start" x="342.62" y="-274" font-family="Helvetica,sans-Serif" font-size="10.00">Slic3r::GUI::GLCanvas3D</text>
<text text-anchor="middle" x="399.62" y="-262.75" font-family="Helvetica,sans-Serif" font-size="10.00">::_set_current</text>
</a>
</g>
</g>
<!-- Node2&#45;&gt;Node3 -->
<g id="edge2_Node000002_Node000003" class="edge">
<title>Node2&#45;&gt;Node3</title>
<g id="a_edge2_Node000002_Node000003"><a xlink:title=" ">
<path fill="none" stroke="#63b8ff" d="M250.15,-189.86C269.45,-205.87 301.35,-230.72 332,-247.25 335.25,-249 338.65,-250.69 342.12,-252.3"/>
<polygon fill="#63b8ff" stroke="#63b8ff" points="340.46,-255.83 351.03,-256.62 343.26,-249.41 340.46,-255.83"/>
</a>
</g>
</g>
<!-- Node4 -->
<g id="Node000004" class="node">
<title>Node4</title>
<g id="a_Node000004"><a xlink:href="../../d0/d2b/class_slic3r_1_1_g_u_i_1_1_g_l_canvas3_d.html#a4407d5f8eec1dc0bc7d092634ecb9a40" target="_top" xlink:title=" ">
<polygon fill="white" stroke="#666666" points="465.75,-238.5 333.5,-238.5 333.5,-208 465.75,-208 465.75,-238.5"/>
<text text-anchor="start" x="341.5" y="-225" font-family="Helvetica,sans-Serif" font-size="10.00">Slic3r::GUI::GLCanvas3D</text>
<text text-anchor="middle" x="399.62" y="-213.75" font-family="Helvetica,sans-Serif" font-size="10.00">::_set_warning_notification</text>
</a>
</g>
</g>
<!-- Node2&#45;&gt;Node4 -->
<g id="edge3_Node000002_Node000004" class="edge">
<title>Node2&#45;&gt;Node4</title>
<g id="a_edge3_Node000002_Node000004"><a xlink:title=" ">
<path fill="none" stroke="#63b8ff" d="M285.18,-189.89C300.88,-194.51 318.24,-199.61 334.55,-204.41"/>
<polygon fill="#63b8ff" stroke="#63b8ff" points="333.51,-208.04 344.09,-207.51 335.49,-201.33 333.51,-208.04"/>
</a>
</g>
</g>
<!-- Node8 -->
<g id="Node000008" class="node">
<title>Node8</title>
<g id="a_Node000008"><a xlink:href="../../d4/dc9/class_slic3r_1_1_g_l_volume_collection.html#a7000378dea95b316b4cf0889758726c6" target="_top" xlink:title=" ">
<polygon fill="white" stroke="#666666" points="467.25,-189.5 332,-189.5 332,-159 467.25,-159 467.25,-189.5"/>
<text text-anchor="start" x="340" y="-176" font-family="Helvetica,sans-Serif" font-size="10.00">Slic3r::GLVolumeCollection</text>
<text text-anchor="middle" x="399.62" y="-164.75" font-family="Helvetica,sans-Serif" font-size="10.00">::clear</text>
</a>
</g>
</g>
<!-- Node2&#45;&gt;Node8 -->
<g id="edge7_Node000002_Node000008" class="edge">
<title>Node2&#45;&gt;Node8</title>
<g id="a_edge7_Node000002_Node000008"><a xlink:title=" ">
<path fill="none" stroke="#63b8ff" d="M296.42,-174.25C304.35,-174.25 312.53,-174.25 320.64,-174.25"/>
<polygon fill="#63b8ff" stroke="#63b8ff" points="320.62,-177.75 330.62,-174.25 320.62,-170.75 320.62,-177.75"/>
</a>
</g>
</g>
<!-- Node9 -->
<g id="Node000009" class="node">
<title>Node9</title>
<g id="a_Node000009"><a xlink:href="../../dd/d6a/class_slic3r_1_1_g_u_i_1_1_selection.html#abd73872899f06b26f42ee7a90670853b" target="_top" xlink:title=" ">
<polygon fill="white" stroke="#666666" points="455.25,-140.5 344,-140.5 344,-110 455.25,-110 455.25,-140.5"/>
<text text-anchor="start" x="352" y="-127" font-family="Helvetica,sans-Serif" font-size="10.00">Slic3r::GUI::Selection</text>
<text text-anchor="middle" x="399.62" y="-115.75" font-family="Helvetica,sans-Serif" font-size="10.00">::clear</text>
</a>
</g>
</g>
<!-- Node2&#45;&gt;Node9 -->
<g id="edge8_Node000002_Node000009" class="edge">
<title>Node2&#45;&gt;Node9</title>
<g id="a_edge8_Node000002_Node000009"><a xlink:title=" ">
<path fill="none" stroke="#63b8ff" d="M285.18,-158.61C300.88,-153.99 318.24,-148.89 334.55,-144.09"/>
<polygon fill="#63b8ff" stroke="#63b8ff" points="335.49,-147.17 344.09,-140.99 333.51,-140.46 335.49,-147.17"/>
</a>
</g>
</g>
<!-- Node16 -->
<g id="Node000016" class="node">
<title>Node16</title>
<g id="a_Node000016"><a xlink:href="../../d4/dc9/class_slic3r_1_1_g_l_volume_collection.html#afaaa440b8f4c282dfbfb3d9ffbfa28cb" target="_top" xlink:title=" ">
<polygon fill="white" stroke="#666666" points="467.25,-91.5 332,-91.5 332,-61 467.25,-61 467.25,-91.5"/>
<text text-anchor="start" x="340" y="-78" font-family="Helvetica,sans-Serif" font-size="10.00">Slic3r::GLVolumeCollection</text>
<text text-anchor="middle" x="399.62" y="-66.75" font-family="Helvetica,sans-Serif" font-size="10.00">::empty</text>
</a>
</g>
</g>
<!-- Node2&#45;&gt;Node16 -->
<g id="edge15_Node000002_Node000016" class="edge">
<title>Node2&#45;&gt;Node16</title>
<g id="a_edge15_Node000002_Node000016"><a xlink:title=" ">
<path fill="none" stroke="#63b8ff" d="M250.15,-158.64C269.45,-142.63 301.35,-117.78 332,-101.25 335.25,-99.5 338.65,-97.81 342.12,-96.2"/>
<polygon fill="#63b8ff" stroke="#63b8ff" points="343.26,-99.09 351.03,-91.88 340.46,-92.67 343.26,-99.09"/>
</a>
</g>
</g>
<!-- Node5 -->
<g id="Node000005" class="node">
<title>Node5</title>
<g id="a_Node000005"><a xlink:href="../../de/db8/namespace_slic3r.html#ab28c13d286b2d1767d7c63b020ebd042" target="_top" xlink:title=" ">
<polygon fill="white" stroke="#666666" points="608.12,-253.88 533.62,-253.88 533.62,-234.62 608.12,-234.62 608.12,-253.88"/>
<text text-anchor="middle" x="570.88" y="-240.38" font-family="Helvetica,sans-Serif" font-size="10.00">Slic3r::format</text>
</a>
</g>
</g>
<!-- Node4&#45;&gt;Node5 -->
<g id="edge4_Node000004_Node000005" class="edge">
<title>Node4&#45;&gt;Node5</title>
<g id="a_edge4_Node000004_Node000005"><a xlink:title=" ">
<path fill="none" stroke="#63b8ff" d="M466.06,-231.37C485.01,-233.72 505.32,-236.24 522.9,-238.42"/>
<polygon fill="#63b8ff" stroke="#63b8ff" points="522.1,-241.97 532.46,-239.73 522.96,-235.03 522.1,-241.97"/>
</a>
</g>
</g>
<!-- Node7 -->
<g id="Node000007" class="node">
<title>Node7</title>
<g id="a_Node000007"><a xlink:href="../../dd/d44/class_slic3r_1_1_print_object_base.html#a2bb6df50398e4bff40ea23238264d1ee" target="_top" xlink:title=" ">
<polygon fill="white" stroke="#666666" points="629.88,-216.5 511.88,-216.5 511.88,-186 629.88,-186 629.88,-216.5"/>
<text text-anchor="start" x="519.88" y="-203" font-family="Helvetica,sans-Serif" font-size="10.00">Slic3r::PrintObjectBase</text>
<text text-anchor="middle" x="570.88" y="-191.75" font-family="Helvetica,sans-Serif" font-size="10.00">::model_object</text>
</a>
</g>
</g>
<!-- Node4&#45;&gt;Node7 -->
<g id="edge6_Node000004_Node000007" class="edge">
<title>Node4&#45;&gt;Node7</title>
<g id="a_edge6_Node000004_Node000007"><a xlink:title=" ">
<path fill="none" stroke="#63b8ff" d="M466.06,-214.74C477.41,-213.27 489.25,-211.73 500.69,-210.24"/>
<polygon fill="#63b8ff" stroke="#63b8ff" points="501.05,-213.6 510.52,-208.84 500.15,-206.65 501.05,-213.6"/>
</a>
</g>
</g>
<!-- Node6 -->
<g id="Node000006" class="node">
<title>Node6</title>
<g id="a_Node000006"><a xlink:href="../../d5/ddc/namespace_slic3r_1_1internal_1_1format.html#a5a8cae6889e58c9be36cd70a9e9987ff" target="_top" xlink:title=" ">
<polygon fill="white" stroke="#666666" points="801.5,-259.5 689.5,-259.5 689.5,-229 801.5,-229 801.5,-259.5"/>
<text text-anchor="start" x="697.5" y="-246" font-family="Helvetica,sans-Serif" font-size="10.00">Slic3r::internal::format</text>
<text text-anchor="middle" x="745.5" y="-234.75" font-family="Helvetica,sans-Serif" font-size="10.00">::format_recursive</text>
</a>
</g>
</g>
<!-- Node5&#45;&gt;Node6 -->
<g id="edge5_Node000005_Node000006" class="edge">
<title>Node5&#45;&gt;Node6</title>
<g id="a_edge5_Node000005_Node000006"><a xlink:title=" ">
<path fill="none" stroke="#63b8ff" d="M608.48,-244.25C628.82,-244.25 654.75,-244.25 678.5,-244.25"/>
<polygon fill="#63b8ff" stroke="#63b8ff" points="678.23,-247.75 688.23,-244.25 678.23,-240.75 678.23,-247.75"/>
</a>
</g>
</g>
<!-- Node10 -->
<g id="Node000010" class="node">
<title>Node10</title>
<g id="a_Node000010"><a xlink:href="../../dd/d6a/class_slic3r_1_1_g_u_i_1_1_selection.html#a07a0ab9bdc7972aba63d791bc8ccb978" target="_top" xlink:title=" ">
<polygon fill="white" stroke="#666666" points="638.5,-143.5 503.25,-143.5 503.25,-113 638.5,-113 638.5,-143.5"/>
<text text-anchor="start" x="511.25" y="-130" font-family="Helvetica,sans-Serif" font-size="10.00">Slic3r::GUI::Selection</text>
<text text-anchor="middle" x="570.88" y="-118.75" font-family="Helvetica,sans-Serif" font-size="10.00">::set_bounding_boxes_dirty</text>
</a>
</g>
</g>
<!-- Node9&#45;&gt;Node10 -->
<g id="edge9_Node000009_Node000010" class="edge">
<title>Node9&#45;&gt;Node10</title>
<g id="a_edge9_Node000009_Node000010"><a xlink:title=" ">
<path fill="none" stroke="#63b8ff" d="M455.58,-126.22C467.22,-126.43 479.73,-126.65 492.04,-126.87"/>
<polygon fill="#63b8ff" stroke="#63b8ff" points="491.72,-130.38 501.78,-127.06 491.85,-123.38 491.72,-130.38"/>
</a>
</g>
</g>
<!-- Node11 -->
<g id="Node000011" class="node">
<title>Node11</title>
<g id="a_Node000011"><a xlink:href="../../dd/d6a/class_slic3r_1_1_g_u_i_1_1_selection.html#a5b0a529739b4b03568e33696d27a082a" target="_top" xlink:title=" ">
<polygon fill="white" stroke="#666666" points="626.5,-94.5 515.25,-94.5 515.25,-64 626.5,-64 626.5,-94.5"/>
<text text-anchor="start" x="523.25" y="-81" font-family="Helvetica,sans-Serif" font-size="10.00">Slic3r::GUI::Selection</text>
<text text-anchor="middle" x="570.88" y="-69.75" font-family="Helvetica,sans-Serif" font-size="10.00">::update_type</text>
</a>
</g>
</g>
<!-- Node9&#45;&gt;Node11 -->
<g id="edge10_Node000009_Node000011" class="edge">
<title>Node9&#45;&gt;Node11</title>
<g id="a_edge10_Node000009_Node000011"><a xlink:title=" ">
<path fill="none" stroke="#63b8ff" d="M455.58,-110.32C471.17,-106.08 488.31,-101.42 504.46,-97.03"/>
<polygon fill="#63b8ff" stroke="#63b8ff" points="505.18,-100.19 513.91,-94.19 503.34,-93.43 505.18,-100.19"/>
</a>
</g>
</g>
<!-- Node12 -->
<g id="Node000012" class="node">
<title>Node12</title>
<g id="a_Node000012"><a xlink:href="../../dd/d6a/class_slic3r_1_1_g_u_i_1_1_selection.html#aac57a06d5a40d72888055487c90eb19a" target="_top" xlink:title=" ">
<polygon fill="white" stroke="#666666" points="801.12,-165.5 689.88,-165.5 689.88,-135 801.12,-135 801.12,-165.5"/>
<text text-anchor="start" x="697.88" y="-152" font-family="Helvetica,sans-Serif" font-size="10.00">Slic3r::GUI::Selection</text>
<text text-anchor="middle" x="745.5" y="-140.75" font-family="Helvetica,sans-Serif" font-size="10.00">::get_instance_idx</text>
</a>
</g>
</g>
<!-- Node11&#45;&gt;Node12 -->
<g id="edge11_Node000011_Node000012" class="edge">
<title>Node11&#45;&gt;Node12</title>
<g id="a_edge11_Node000011_Node000012"><a xlink:title=" ">
<path fill="none" stroke="#63b8ff" d="M616.75,-94.9C624.11,-97.8 631.58,-100.96 638.5,-104.25 655.23,-112.2 657.71,-117.43 674.5,-125.25 678.51,-127.12 682.71,-128.93 686.97,-130.68"/>
<polygon fill="#63b8ff" stroke="#63b8ff" points="685.37,-134.2 695.95,-134.61 687.93,-127.69 685.37,-134.2"/>
</a>
</g>
</g>
<!-- Node13 -->
<g id="Node000013" class="node">
<title>Node13</title>
<g id="a_Node000013"><a xlink:href="../../dd/d6a/class_slic3r_1_1_g_u_i_1_1_selection.html#a408736c0666417e25319884538f2a861" target="_top" xlink:title=" ">
<polygon fill="white" stroke="#666666" points="801.12,-116.5 689.88,-116.5 689.88,-86 801.12,-86 801.12,-116.5"/>
<text text-anchor="start" x="697.88" y="-103" font-family="Helvetica,sans-Serif" font-size="10.00">Slic3r::GUI::Selection</text>
<text text-anchor="middle" x="745.5" y="-91.75" font-family="Helvetica,sans-Serif" font-size="10.00">::get_object_idx</text>
</a>
</g>
</g>
<!-- Node11&#45;&gt;Node13 -->
<g id="edge12_Node000011_Node000013" class="edge">
<title>Node11&#45;&gt;Node13</title>
<g id="a_edge12_Node000011_Node000013"><a xlink:title=" ">
<path fill="none" stroke="#63b8ff" d="M626.97,-86.27C643.56,-88.39 661.92,-90.73 679.11,-92.92"/>
<polygon fill="#63b8ff" stroke="#63b8ff" points="678.27,-96.47 688.63,-94.26 679.16,-89.52 678.27,-96.47"/>
</a>
</g>
</g>
<!-- Node14 -->
<g id="Node000014" class="node">
<title>Node14</title>
<g id="a_Node000014"><a xlink:href="../../d5/d87/class_slic3r_1_1_g_l_volume.html#ab374fce7b3b412f6549fbfef767a5e6e" target="_top" xlink:title=" ">
<polygon fill="white" stroke="#666666" points="816.5,-67.88 674.5,-67.88 674.5,-48.62 816.5,-48.62 816.5,-67.88"/>
<text text-anchor="middle" x="745.5" y="-54.38" font-family="Helvetica,sans-Serif" font-size="10.00">Slic3r::GLVolume::object_idx</text>
</a>
</g>
</g>
<!-- Node11&#45;&gt;Node14 -->
<g id="edge13_Node000011_Node000014" class="edge">
<title>Node11&#45;&gt;Node14</title>
<g id="a_edge13_Node000011_Node000014"><a xlink:title=" ">
<path fill="none" stroke="#63b8ff" d="M626.97,-72.55C638.57,-71.14 651.04,-69.62 663.37,-68.12"/>
<polygon fill="#63b8ff" stroke="#63b8ff" points="663.63,-71.49 673.14,-66.81 662.79,-64.54 663.63,-71.49"/>
</a>
</g>
</g>
<!-- Node15 -->
<g id="Node000015" class="node">
<title>Node15</title>
<g id="a_Node000015"><a xlink:href="../../dd/d6a/class_slic3r_1_1_g_u_i_1_1_selection.html#a7bb588062c1c595d3d4d887f1e4c0d49" target="_top" xlink:title=" ">
<polygon fill="white" stroke="#666666" points="801.12,-30.5 689.88,-30.5 689.88,0 801.12,0 801.12,-30.5"/>
<text text-anchor="start" x="697.88" y="-17" font-family="Helvetica,sans-Serif" font-size="10.00">Slic3r::GUI::Selection</text>
<text text-anchor="middle" x="745.5" y="-5.75" font-family="Helvetica,sans-Serif" font-size="10.00">::volumes_count</text>
</a>
</g>
</g>
<!-- Node11&#45;&gt;Node15 -->
<g id="edge14_Node000011_Node000015" class="edge">
<title>Node11&#45;&gt;Node15</title>
<g id="a_edge14_Node000011_Node000015"><a xlink:title=" ">
<path fill="none" stroke="#63b8ff" d="M610.72,-63.67C629.85,-56.11 653.31,-47.01 674.5,-39.25 678.71,-37.71 683.07,-36.14 687.46,-34.59"/>
<polygon fill="#63b8ff" stroke="#63b8ff" points="688.44,-37.6 696.72,-30.99 686.12,-31 688.44,-37.6"/>
</a>
</g>
</g>
</g>
</svg>

<g id="navigator" transform="translate(0 0)" fill="#404254">
  <rect fill="#f2f5e9" fill-opacity="0.5" stroke="#606060" stroke-width=".5" x="0" y="0" width="60" height="60"/>
  <use id="zoomplus" xlink:href="#zoomPlus" x="17" y="9" onmousedown="handleZoom(evt,'in')"/>
  <use id="zoomminus" xlink:href="#zoomMin" x="42" y="9" onmousedown="handleZoom(evt,'out')"/>
  <use id="reset" xlink:href="#resetDef" x="30" y="36" onmousedown="handleReset()"/>
   <use id="arrowup" xlink:href="#arrowUp" x="0" y="0" onmousedown="handlePan(0,-1)"/>
  <use id="arrowright" xlink:href="#arrowRight" x="0" y="0" onmousedown="handlePan(1,0)"/>
  <use id="arrowdown" xlink:href="#arrowDown" x="0" y="0" onmousedown="handlePan(0,1)"/>
  <use id="arrowleft" xlink:href="#arrowLeft" x="0" y="0" onmousedown="handlePan(-1,0)"/>
</g>
<svg viewBox="0 0 15 15" width="100%" height="30px" preserveAspectRatio="xMaxYMin meet">
 <g id="arrow_out" transform="scale(0.3 0.3)">
  <a xlink:href="class_slic3r_1_1_g_u_i_1_1_g_l_canvas3_d_abe5454914ba84090fd47427512ced6d5_cgraph_org.svg" target="_base">
   <rect id="button" ry="5" rx="5" y="6" x="6" height="38" width="38"
        fill="#f2f5e9" fill-opacity="0.5" stroke="#606060" stroke-width="1.0"/>
   <path id="arrow"
     d="M 11.500037,31.436501 C 11.940474,20.09759 22.043105,11.32322 32.158766,21.979434 L 37.068811,17.246167 C 37.068811,17.246167 37.088388,32 37.088388,32 L 22.160133,31.978069 C 22.160133,31.978069 26.997745,27.140456 26.997745,27.140456 C 18.528582,18.264221 13.291696,25.230495 11.500037,31.436501 z"
     style="fill:#404040;"/>
  </a>
 </g>
</svg>

<style type='text/css'>
<![CDATA[
[data-mouse-over-selected='false'] { opacity: 0.7; }
[data-mouse-over-selected='true']  { opacity: 1.0; }
]]>
</style>
<script type="application/ecmascript"><![CDATA[
document.addEventListener('DOMContentLoaded', (event) => {
  highlightEdges();
  highlightAdjacentNodes();
});
]]></script>
</svg>
