<?xml version="1.0" encoding="UTF-8" standalone="no"?>
<!DOCTYPE svg PUBLIC "-//W3C//DTD SVG 1.1//EN"
 "http://www.w3.org/Graphics/SVG/1.1/DTD/svg11.dtd">
<!-- Generated by graphviz version 8.0.5 (20230430.1635)
 -->
<!-- Title: Slic3r::GUI::GLCanvas3D::select_view Pages: 1 -->
<!--zoomable 186 -->

<svg id="main" version="1.1" xmlns="http://www.w3.org/2000/svg" xmlns:xlink="http://www.w3.org/1999/xlink" xml:space="preserve" onload="init(evt)">
<style type="text/css"><![CDATA[
.node, .edge {opacity: 0.7;}
.node.selected, .edge.selected {opacity: 1;}
.edge:hover path { stroke: red; }
.edge:hover polygon { stroke: red; fill: red; }
]]></style>

<defs>
  <circle id="rim" cx="0" cy="0" r="7"/>
  <circle id="rim2" cx="0" cy="0" r="3.5"/>
  <g id="zoomPlus">
    <use xlink:href="#rim" fill="#404040"><set attributeName="fill" to="#808080" begin="zoomplus.mouseover" end="zoomplus.mouseout"/></use>
    <path d="M-4,0h8M0,-4v8" fill="none" stroke="white" stroke-width="1.5" pointer-events="none"/>
  </g>
  <g id="zoomMin">
    <use xlink:href="#rim" fill="#404040"><set attributeName="fill" to="#808080" begin="zoomminus.mouseover" end="zoomminus.mouseout"/></use>
    <path d="M-4,0h8" fill="none" stroke="white" stroke-width="1.5" pointer-events="none"/>
  </g>
  <g id="arrowUp" transform="translate(30 24)">
    <use xlink:href="#rim"/>
    <path pointer-events="none" fill="none" stroke="white" stroke-width="1.5" d="M0,-3.0v7 M-2.5,-0.5L0,-3.0L2.5,-0.5"/>
  </g>
  <g id="arrowRight" transform="rotate(90) translate(36 -43)">
    <use xlink:href="#rim"/>
    <path pointer-events="none" fill="none" stroke="white" stroke-width="1.5" d="M0,-3.0v7 M-2.5,-0.5L0,-3.0L2.5,-0.5"/>
  </g>
  <g id="arrowDown" transform="rotate(180) translate(-30 -48)">
    <use xlink:href="#rim"/>
    <path pointer-events="none" fill="none" stroke="white" stroke-width="1.5" d="M0,-3.0v7 M-2.5,-0.5L0,-3.0L2.5,-0.5"/>
  </g>
  <g id="arrowLeft" transform="rotate(270) translate(-36 17)">
    <use xlink:href="#rim"/>
    <path pointer-events="none" fill="none" stroke="white" stroke-width="1.5" d="M0,-3.0v7 M-2.5,-0.5L0,-3.0L2.5,-0.5"/>
  </g>
  <g id="resetDef">
    <use xlink:href="#rim2" fill="#404040"><set attributeName="fill" to="#808080" begin="reset.mouseover" end="reset.mouseout"/></use>
  </g>
</defs>
<script type="application/ecmascript">
var viewWidth = 796;
var viewHeight = 186;
var sectionId = 'dynsection-281';
</script>
<script type="application/ecmascript" xlink:href="../../svg.min.js"/>
<svg id="graph" class="graph">
<g id="viewport">
<title>Slic3r::GUI::GLCanvas3D::select_view</title>
<!-- Node1 -->
<g id="Node000001" class="node">
<title>Node1</title>
<g id="a_Node000001"><a xlink:title=" ">
<polygon fill="#999999" stroke="#666666" points="788,-79.5 658,-79.5 658,-49 788,-49 788,-79.5"/>
<text text-anchor="start" x="666" y="-66" font-family="Helvetica,sans-Serif" font-size="10.00">Slic3r::GUI::GLCanvas3D</text>
<text text-anchor="middle" x="723" y="-54.75" font-family="Helvetica,sans-Serif" font-size="10.00">::select_view</text>
</a>
</g>
</g>
<!-- Node2 -->
<g id="Node000002" class="node">
<title>Node2</title>
<g id="a_Node000002"><a xlink:href="../../d0/d2b/class_slic3r_1_1_g_u_i_1_1_g_l_canvas3_d.html#a8f7ad08978b57363cc286b3ba55dbe52" target="_top" xlink:title=" ">
<polygon fill="white" stroke="#666666" points="622,-128.5 492,-128.5 492,-98 622,-98 622,-128.5"/>
<text text-anchor="start" x="500" y="-115" font-family="Helvetica,sans-Serif" font-size="10.00">Slic3r::GUI::GLCanvas3D</text>
<text text-anchor="middle" x="557" y="-103.75" font-family="Helvetica,sans-Serif" font-size="10.00">::on_char</text>
</a>
</g>
</g>
<!-- Node1&#45;&gt;Node2 -->
<g id="edge1_Node000001_Node000002" class="edge">
<title>Node1&#45;&gt;Node2</title>
<g id="a_edge1_Node000001_Node000002"><a xlink:title=" ">
<path fill="none" stroke="#63b8ff" d="M659.3,-82.98C643.25,-87.78 626.17,-92.88 610.69,-97.51"/>
<polygon fill="#63b8ff" stroke="#63b8ff" points="660.08,-86.1 668.66,-79.89 658.08,-79.4 660.08,-86.1"/>
</a>
</g>
</g>
<!-- Node10 -->
<g id="Node000010" class="node">
<title>Node10</title>
<g id="a_Node000010"><a xlink:href="../../d7/de9/class_slic3r_1_1_g_u_i_1_1_view3_d.html#a3a16ffd07b4b6baceadbfd71ef20a1f8" target="_top" xlink:title=" ">
<polygon fill="white" stroke="#666666" points="609.62,-79.5 504.38,-79.5 504.38,-49 609.62,-49 609.62,-79.5"/>
<text text-anchor="start" x="512.38" y="-66" font-family="Helvetica,sans-Serif" font-size="10.00">Slic3r::GUI::View3D</text>
<text text-anchor="middle" x="557" y="-54.75" font-family="Helvetica,sans-Serif" font-size="10.00">::select_view</text>
</a>
</g>
</g>
<!-- Node1&#45;&gt;Node10 -->
<g id="edge9_Node000001_Node000010" class="edge">
<title>Node1&#45;&gt;Node10</title>
<g id="a_edge9_Node000001_Node000010"><a xlink:title=" ">
<path fill="none" stroke="#63b8ff" d="M646.81,-64.25C634.37,-64.25 621.72,-64.25 610.02,-64.25"/>
<polygon fill="#63b8ff" stroke="#63b8ff" points="646.65,-67.75 656.65,-64.25 646.65,-60.75 646.65,-67.75"/>
</a>
</g>
</g>
<!-- Node11 -->
<g id="Node000011" class="node">
<title>Node11</title>
<g id="a_Node000011"><a xlink:href="../../de/db8/class_slic3r_1_1_g_u_i_1_1_preview.html#ad0bdeada542c95a1baf43dfb84899bd5" target="_top" xlink:title=" ">
<polygon fill="white" stroke="#666666" points="610,-30.5 504,-30.5 504,0 610,0 610,-30.5"/>
<text text-anchor="start" x="512" y="-17" font-family="Helvetica,sans-Serif" font-size="10.00">Slic3r::GUI::Preview</text>
<text text-anchor="middle" x="557" y="-5.75" font-family="Helvetica,sans-Serif" font-size="10.00">::select_view</text>
</a>
</g>
</g>
<!-- Node1&#45;&gt;Node11 -->
<g id="edge10_Node000001_Node000011" class="edge">
<title>Node1&#45;&gt;Node11</title>
<g id="a_edge10_Node000001_Node000011"><a xlink:title=" ">
<path fill="none" stroke="#63b8ff" d="M659.24,-45.5C643.12,-40.68 625.94,-35.55 610.41,-30.91"/>
<polygon fill="#63b8ff" stroke="#63b8ff" points="658.08,-49.1 668.66,-48.61 660.08,-42.4 658.08,-49.1"/>
</a>
</g>
</g>
<!-- Node3 -->
<g id="Node000003" class="node">
<title>Node3</title>
<g id="a_Node000003"><a xlink:href="../../d0/d2b/class_slic3r_1_1_g_u_i_1_1_g_l_canvas3_d.html#a9ba6503e9ea6e8ea3050de89e6835f52" target="_top" xlink:title=" ">
<polygon fill="white" stroke="#666666" points="456,-177.5 326,-177.5 326,-147 456,-147 456,-177.5"/>
<text text-anchor="start" x="334" y="-164" font-family="Helvetica,sans-Serif" font-size="10.00">Slic3r::GUI::GLCanvas3D</text>
<text text-anchor="middle" x="391" y="-152.75" font-family="Helvetica,sans-Serif" font-size="10.00">::bind_event_handlers</text>
</a>
</g>
</g>
<!-- Node2&#45;&gt;Node3 -->
<g id="edge2_Node000002_Node000003" class="edge">
<title>Node2&#45;&gt;Node3</title>
<g id="a_edge2_Node000002_Node000003"><a xlink:title=" ">
<path fill="none" stroke="#63b8ff" d="M493.3,-131.98C477.25,-136.78 460.17,-141.88 444.69,-146.51"/>
<polygon fill="#63b8ff" stroke="#63b8ff" points="494.08,-135.1 502.66,-128.89 492.08,-128.4 494.08,-135.1"/>
</a>
</g>
</g>
<!-- Node4 -->
<g id="Node000004" class="node">
<title>Node4</title>
<g id="a_Node000004"><a xlink:href="../../d7/d21/class_slic3r_1_1_g_u_i_1_1_plater.html#aeeb4c7cdeda78d646ec34fbea48e909d" target="_top" xlink:title=" ">
<polygon fill="white" stroke="#666666" points="439.12,-128.5 342.88,-128.5 342.88,-98 439.12,-98 439.12,-128.5"/>
<text text-anchor="start" x="350.88" y="-115" font-family="Helvetica,sans-Serif" font-size="10.00">Slic3r::GUI::Plater</text>
<text text-anchor="middle" x="391" y="-103.75" font-family="Helvetica,sans-Serif" font-size="10.00">::search</text>
</a>
</g>
</g>
<!-- Node2&#45;&gt;Node4 -->
<g id="edge3_Node000002_Node000004" class="edge">
<title>Node2&#45;&gt;Node4</title>
<g id="a_edge3_Node000002_Node000004"><a xlink:title=" ">
<path fill="none" stroke="#63b8ff" d="M480.93,-113.25C466.81,-113.25 452.41,-113.25 439.43,-113.25"/>
<polygon fill="#63b8ff" stroke="#63b8ff" points="480.65,-116.75 490.65,-113.25 480.65,-109.75 480.65,-116.75"/>
</a>
</g>
</g>
<!-- Node9 -->
<g id="Node000009" class="node">
<title>Node9</title>
<g id="a_Node000009"><a xlink:href="../../d0/d2b/class_slic3r_1_1_g_u_i_1_1_g_l_canvas3_d.html#a16e40798bb4d5ad13209c3feaea9b21d" target="_top" xlink:title=" ">
<polygon fill="white" stroke="#666666" points="456,-79.5 326,-79.5 326,-49 456,-49 456,-79.5"/>
<text text-anchor="start" x="334" y="-66" font-family="Helvetica,sans-Serif" font-size="10.00">Slic3r::GUI::GLCanvas3D</text>
<text text-anchor="middle" x="391" y="-54.75" font-family="Helvetica,sans-Serif" font-size="10.00">::unbind_event_handlers</text>
</a>
</g>
</g>
<!-- Node2&#45;&gt;Node9 -->
<g id="edge8_Node000002_Node000009" class="edge">
<title>Node2&#45;&gt;Node9</title>
<g id="a_edge8_Node000002_Node000009"><a xlink:title=" ">
<path fill="none" stroke="#63b8ff" d="M493.3,-94.52C477.25,-89.72 460.17,-84.62 444.69,-79.99"/>
<polygon fill="#63b8ff" stroke="#63b8ff" points="492.08,-98.1 502.66,-97.61 494.08,-91.4 492.08,-98.1"/>
</a>
</g>
</g>
<!-- Node5 -->
<g id="Node000005" class="node">
<title>Node5</title>
<g id="a_Node000005"><a xlink:href="../../da/d13/class_slic3r_1_1_g_u_i_1_1_settings_dialog.html#a9b940db2d4045a7a961f4695246c7cad" target="_top" xlink:title=" ">
<polygon fill="white" stroke="#666666" points="290,-177.5 155.5,-177.5 155.5,-147 290,-147 290,-177.5"/>
<text text-anchor="start" x="163.5" y="-164" font-family="Helvetica,sans-Serif" font-size="10.00">Slic3r::GUI::SettingsDialog</text>
<text text-anchor="middle" x="222.75" y="-152.75" font-family="Helvetica,sans-Serif" font-size="10.00">::SettingsDialog</text>
</a>
</g>
</g>
<!-- Node4&#45;&gt;Node5 -->
<g id="edge4_Node000004_Node000005" class="edge">
<title>Node4&#45;&gt;Node5</title>
<g id="a_edge4_Node000004_Node000005"><a xlink:title=" ">
<path fill="none" stroke="#63b8ff" d="M332.43,-130.22C314.41,-135.53 294.62,-141.36 276.92,-146.58"/>
<polygon fill="#63b8ff" stroke="#63b8ff" points="333.2,-133.34 341.8,-127.16 331.22,-126.63 333.2,-133.34"/>
</a>
</g>
</g>
<!-- Node6 -->
<g id="Node000006" class="node">
<title>Node6</title>
<g id="a_Node000006"><a xlink:href="../../d3/d17/class_slic3r_1_1_g_u_i_1_1_main_frame.html#a58d3512e4a5525b5345dde9778dd233e" target="_top" xlink:title=" ">
<polygon fill="white" stroke="#666666" points="284,-128.5 161.5,-128.5 161.5,-98 284,-98 284,-128.5"/>
<text text-anchor="start" x="169.5" y="-115" font-family="Helvetica,sans-Serif" font-size="10.00">Slic3r::GUI::MainFrame</text>
<text text-anchor="middle" x="222.75" y="-103.75" font-family="Helvetica,sans-Serif" font-size="10.00">::init_menubar_as_editor</text>
</a>
</g>
</g>
<!-- Node4&#45;&gt;Node6 -->
<g id="edge5_Node000004_Node000006" class="edge">
<title>Node4&#45;&gt;Node6</title>
<g id="a_edge5_Node000004_Node000006"><a xlink:title=" ">
<path fill="none" stroke="#63b8ff" d="M331.88,-113.25C316.53,-113.25 299.93,-113.25 284.45,-113.25"/>
<polygon fill="#63b8ff" stroke="#63b8ff" points="331.8,-116.75 341.8,-113.25 331.8,-109.75 331.8,-116.75"/>
</a>
</g>
</g>
<!-- Node8 -->
<g id="Node000008" class="node">
<title>Node8</title>
<g id="a_Node000008"><a xlink:href="../../d4/d88/struct_slic3r_1_1_g_u_i_1_1_plater_1_1priv.html#a04e848e0c2988328a4624e436bab4d46" target="_top" xlink:title=" ">
<polygon fill="white" stroke="#666666" points="281.75,-79.5 163.75,-79.5 163.75,-49 281.75,-49 281.75,-79.5"/>
<text text-anchor="start" x="171.75" y="-66" font-family="Helvetica,sans-Serif" font-size="10.00">Slic3r::GUI::Plater</text>
<text text-anchor="middle" x="222.75" y="-54.75" font-family="Helvetica,sans-Serif" font-size="10.00">::priv::reload_from_disk</text>
</a>
</g>
</g>
<!-- Node4&#45;&gt;Node8 -->
<g id="edge7_Node000004_Node000008" class="edge">
<title>Node4&#45;&gt;Node8</title>
<g id="a_edge7_Node000004_Node000008"><a xlink:title=" ">
<path fill="none" stroke="#63b8ff" d="M332.43,-96.28C314.41,-90.97 294.62,-85.14 276.92,-79.92"/>
<polygon fill="#63b8ff" stroke="#63b8ff" points="331.22,-99.87 341.8,-99.34 333.2,-93.16 331.22,-99.87"/>
</a>
</g>
</g>
<!-- Node7 -->
<g id="Node000007" class="node">
<title>Node7</title>
<g id="a_Node000007"><a xlink:href="../../d3/d17/class_slic3r_1_1_g_u_i_1_1_main_frame.html#a5eeef0e8564db1d3764da47c6d11344a" target="_top" xlink:title=" ">
<polygon fill="white" stroke="#666666" points="119.5,-128.5 0,-128.5 0,-98 119.5,-98 119.5,-128.5"/>
<text text-anchor="start" x="8" y="-115" font-family="Helvetica,sans-Serif" font-size="10.00">Slic3r::GUI::MainFrame</text>
<text text-anchor="middle" x="59.75" y="-103.75" font-family="Helvetica,sans-Serif" font-size="10.00">::MainFrame</text>
</a>
</g>
</g>
<!-- Node6&#45;&gt;Node7 -->
<g id="edge6_Node000006_Node000007" class="edge">
<title>Node6&#45;&gt;Node7</title>
<g id="a_edge6_Node000006_Node000007"><a xlink:title=" ">
<path fill="none" stroke="#63b8ff" d="M150.39,-113.25C140.2,-113.25 129.81,-113.25 119.89,-113.25"/>
<polygon fill="#63b8ff" stroke="#63b8ff" points="150.34,-116.75 160.34,-113.25 150.34,-109.75 150.34,-116.75"/>
</a>
</g>
</g>
</g>
</svg>

<g id="navigator" transform="translate(0 0)" fill="#404254">
  <rect fill="#f2f5e9" fill-opacity="0.5" stroke="#606060" stroke-width=".5" x="0" y="0" width="60" height="60"/>
  <use id="zoomplus" xlink:href="#zoomPlus" x="17" y="9" onmousedown="handleZoom(evt,'in')"/>
  <use id="zoomminus" xlink:href="#zoomMin" x="42" y="9" onmousedown="handleZoom(evt,'out')"/>
  <use id="reset" xlink:href="#resetDef" x="30" y="36" onmousedown="handleReset()"/>
   <use id="arrowup" xlink:href="#arrowUp" x="0" y="0" onmousedown="handlePan(0,-1)"/>
  <use id="arrowright" xlink:href="#arrowRight" x="0" y="0" onmousedown="handlePan(1,0)"/>
  <use id="arrowdown" xlink:href="#arrowDown" x="0" y="0" onmousedown="handlePan(0,1)"/>
  <use id="arrowleft" xlink:href="#arrowLeft" x="0" y="0" onmousedown="handlePan(-1,0)"/>
</g>
<svg viewBox="0 0 15 15" width="100%" height="30px" preserveAspectRatio="xMaxYMin meet">
 <g id="arrow_out" transform="scale(0.3 0.3)">
  <a xlink:href="class_slic3r_1_1_g_u_i_1_1_g_l_canvas3_d_a5c56eefb91d862a25caf125df6ba714d_icgraph_org.svg" target="_base">
   <rect id="button" ry="5" rx="5" y="6" x="6" height="38" width="38"
        fill="#f2f5e9" fill-opacity="0.5" stroke="#606060" stroke-width="1.0"/>
   <path id="arrow"
     d="M 11.500037,31.436501 C 11.940474,20.09759 22.043105,11.32322 32.158766,21.979434 L 37.068811,17.246167 C 37.068811,17.246167 37.088388,32 37.088388,32 L 22.160133,31.978069 C 22.160133,31.978069 26.997745,27.140456 26.997745,27.140456 C 18.528582,18.264221 13.291696,25.230495 11.500037,31.436501 z"
     style="fill:#404040;"/>
  </a>
 </g>
</svg>

<style type='text/css'>
<![CDATA[
[data-mouse-over-selected='false'] { opacity: 0.7; }
[data-mouse-over-selected='true']  { opacity: 1.0; }
]]>
</style>
<script type="application/ecmascript"><![CDATA[
document.addEventListener('DOMContentLoaded', (event) => {
  highlightEdges();
  highlightAdjacentNodes();
});
]]></script>
</svg>
