<?xml version="1.0" encoding="UTF-8" standalone="no"?>
<!DOCTYPE svg PUBLIC "-//W3C//DTD SVG 1.1//EN"
 "http://www.w3.org/Graphics/SVG/1.1/DTD/svg11.dtd">
<!-- Generated by graphviz version 8.0.5 (20230430.1635)
 -->
<!-- Title: SpliceMergeVertices Pages: 1 -->
<!--zoomable 350 -->

<svg id="main" version="1.1" xmlns="http://www.w3.org/2000/svg" xmlns:xlink="http://www.w3.org/1999/xlink" xml:space="preserve" onload="init(evt)">
<style type="text/css"><![CDATA[
.node, .edge {opacity: 0.7;}
.node.selected, .edge.selected {opacity: 1;}
.edge:hover path { stroke: red; }
.edge:hover polygon { stroke: red; fill: red; }
]]></style>

<defs>
  <circle id="rim" cx="0" cy="0" r="7"/>
  <circle id="rim2" cx="0" cy="0" r="3.5"/>
  <g id="zoomPlus">
    <use xlink:href="#rim" fill="#404040"><set attributeName="fill" to="#808080" begin="zoomplus.mouseover" end="zoomplus.mouseout"/></use>
    <path d="M-4,0h8M0,-4v8" fill="none" stroke="white" stroke-width="1.5" pointer-events="none"/>
  </g>
  <g id="zoomMin">
    <use xlink:href="#rim" fill="#404040"><set attributeName="fill" to="#808080" begin="zoomminus.mouseover" end="zoomminus.mouseout"/></use>
    <path d="M-4,0h8" fill="none" stroke="white" stroke-width="1.5" pointer-events="none"/>
  </g>
  <g id="arrowUp" transform="translate(30 24)">
    <use xlink:href="#rim"/>
    <path pointer-events="none" fill="none" stroke="white" stroke-width="1.5" d="M0,-3.0v7 M-2.5,-0.5L0,-3.0L2.5,-0.5"/>
  </g>
  <g id="arrowRight" transform="rotate(90) translate(36 -43)">
    <use xlink:href="#rim"/>
    <path pointer-events="none" fill="none" stroke="white" stroke-width="1.5" d="M0,-3.0v7 M-2.5,-0.5L0,-3.0L2.5,-0.5"/>
  </g>
  <g id="arrowDown" transform="rotate(180) translate(-30 -48)">
    <use xlink:href="#rim"/>
    <path pointer-events="none" fill="none" stroke="white" stroke-width="1.5" d="M0,-3.0v7 M-2.5,-0.5L0,-3.0L2.5,-0.5"/>
  </g>
  <g id="arrowLeft" transform="rotate(270) translate(-36 17)">
    <use xlink:href="#rim"/>
    <path pointer-events="none" fill="none" stroke="white" stroke-width="1.5" d="M0,-3.0v7 M-2.5,-0.5L0,-3.0L2.5,-0.5"/>
  </g>
  <g id="resetDef">
    <use xlink:href="#rim2" fill="#404040"><set attributeName="fill" to="#808080" begin="reset.mouseover" end="reset.mouseout"/></use>
  </g>
</defs>
<script type="application/ecmascript">
var viewWidth = 1231;
var viewHeight = 350;
var sectionId = 'dynsection-46';
</script>
<script type="application/ecmascript" xlink:href="../../svg.min.js"/>
<svg id="graph" class="graph">
<g id="viewport">
<title>SpliceMergeVertices</title>
<!-- Node1 -->
<g id="Node000001" class="node">
<title>Node1</title>
<g id="a_Node000001"><a xlink:title=" ">
<polygon fill="#999999" stroke="#666666" points="1223.25,-230.62 1117.25,-230.62 1117.25,-211.38 1223.25,-211.38 1223.25,-230.62"/>
<text text-anchor="middle" x="1170.25" y="-217.12" font-family="Helvetica,sans-Serif" font-size="10.00">SpliceMergeVertices</text>
</a>
</g>
</g>
<!-- Node2 -->
<g id="Node000002" class="node">
<title>Node2</title>
<g id="a_Node000002"><a xlink:href="../../d0/d91/sweep_8c.html#a42a070ec5b8495a8c8614ad600c703f9" target="_top" xlink:title=" ">
<polygon fill="white" stroke="#666666" points="251.38,-313.62 144.62,-313.62 144.62,-294.38 251.38,-294.38 251.38,-313.62"/>
<text text-anchor="middle" x="198" y="-300.12" font-family="Helvetica,sans-Serif" font-size="10.00">__gl_computeInterior</text>
</a>
</g>
</g>
<!-- Node1&#45;&gt;Node2 -->
<g id="edge1_Node000001_Node000002" class="edge">
<title>Node1&#45;&gt;Node2</title>
<g id="a_edge1_Node000001_Node000002"><a xlink:title=" ">
<path fill="none" stroke="#63b8ff" d="M1146.59,-237.35C1098.51,-270.4 981.64,-342 871.88,-342 871.88,-342 871.88,-342 452.5,-342 377.07,-342 290.39,-325.34 240.43,-314.08"/>
<polygon fill="#63b8ff" stroke="#63b8ff" points="1148.33,-239.71 1154.53,-231.11 1144.32,-233.97 1148.33,-239.71"/>
</a>
</g>
</g>
<!-- Node4 -->
<g id="Node000004" class="node">
<title>Node4</title>
<g id="a_Node000004"><a xlink:href="../../d0/d91/sweep_8c.html#a176b79cf197cdf7aa3277a1983e1474f" target="_top" xlink:title=" ">
<polygon fill="white" stroke="#666666" points="1081.25,-135.62 972.25,-135.62 972.25,-116.38 1081.25,-116.38 1081.25,-135.62"/>
<text text-anchor="middle" x="1026.75" y="-122.12" font-family="Helvetica,sans-Serif" font-size="10.00">CheckForRightSplice</text>
</a>
</g>
</g>
<!-- Node1&#45;&gt;Node4 -->
<g id="edge3_Node000001_Node000004" class="edge">
<title>Node1&#45;&gt;Node4</title>
<g id="a_edge3_Node000001_Node000004"><a xlink:title=" ">
<path fill="none" stroke="#63b8ff" d="M1145.58,-205.11C1116.17,-185.36 1066.88,-152.27 1042.43,-135.85"/>
<polygon fill="#63b8ff" stroke="#63b8ff" points="1143.12,-208.34 1153.37,-211.01 1147.02,-202.53 1143.12,-208.34"/>
</a>
</g>
</g>
<!-- Node9 -->
<g id="Node000009" class="node">
<title>Node9</title>
<g id="a_Node000009"><a xlink:href="../../d0/d91/sweep_8c.html#ae1862fd58077d3bd1ac8c65074804f10" target="_top" xlink:title=" ">
<polygon fill="white" stroke="#666666" points="257.75,-181.62 138.25,-181.62 138.25,-162.38 257.75,-162.38 257.75,-181.62"/>
<text text-anchor="middle" x="198" y="-168.12" font-family="Helvetica,sans-Serif" font-size="10.00">ConnectLeftDegenerate</text>
</a>
</g>
</g>
<!-- Node1&#45;&gt;Node9 -->
<g id="edge22_Node000001_Node000009" class="edge">
<title>Node1&#45;&gt;Node9</title>
<g id="a_edge22_Node000001_Node000009"><a xlink:title=" ">
<path fill="none" stroke="#63b8ff" d="M1158.06,-201.64C1143.1,-177.1 1114.58,-134.67 1081.25,-107 1000.85,-40.24 976.38,0 871.88,0 871.88,0 871.88,0 452.5,0 336.29,0 233.78,-125.3 206.24,-162.01"/>
<polygon fill="#63b8ff" stroke="#63b8ff" points="1155.49,-203.17 1163.61,-209.97 1161.5,-199.58 1155.49,-203.17"/>
</a>
</g>
</g>
<!-- Node12 -->
<g id="Node000012" class="node">
<title>Node12</title>
<g id="a_Node000012"><a xlink:href="../../d0/d91/sweep_8c.html#a14fcd2c3afc231c92978672ffb3d2dc3" target="_top" xlink:title=" ">
<polygon fill="white" stroke="#666666" points="936.25,-289.62 805.5,-289.62 805.5,-270.38 936.25,-270.38 936.25,-289.62"/>
<text text-anchor="middle" x="870.88" y="-276.12" font-family="Helvetica,sans-Serif" font-size="10.00">RemoveDegenerateEdges</text>
</a>
</g>
</g>
<!-- Node1&#45;&gt;Node12 -->
<g id="edge23_Node000001_Node000012" class="edge">
<title>Node1&#45;&gt;Node12</title>
<g id="a_edge23_Node000001_Node000012"><a xlink:title=" ">
<path fill="none" stroke="#63b8ff" d="M1107.85,-233.18C1053.02,-244.06 973.69,-259.8 922.45,-269.97"/>
<polygon fill="#63b8ff" stroke="#63b8ff" points="1108.34,-236.45 1117.47,-231.08 1106.98,-229.59 1108.34,-236.45"/>
</a>
</g>
</g>
<!-- Node3 -->
<g id="Node000003" class="node">
<title>Node3</title>
<g id="a_Node000003"><a xlink:href="../../d1/d8e/tess_8c.html#ae5273f776a56cd66a46a9df1fb1f00f9" target="_top" xlink:title=" ">
<polygon fill="white" stroke="#666666" points="102.25,-313.62 0,-313.62 0,-294.38 102.25,-294.38 102.25,-313.62"/>
<text text-anchor="middle" x="51.12" y="-300.12" font-family="Helvetica,sans-Serif" font-size="10.00">gluTessEndPolygon</text>
</a>
</g>
</g>
<!-- Node2&#45;&gt;Node3 -->
<g id="edge2_Node000002_Node000003" class="edge">
<title>Node2&#45;&gt;Node3</title>
<g id="a_edge2_Node000002_Node000003"><a xlink:title=" ">
<path fill="none" stroke="#63b8ff" d="M133.61,-304C123.24,-304 112.63,-304 102.62,-304"/>
<polygon fill="#63b8ff" stroke="#63b8ff" points="133.29,-307.5 143.29,-304 133.29,-300.5 133.29,-307.5"/>
</a>
</g>
</g>
<!-- Node5 -->
<g id="Node000005" class="node">
<title>Node5</title>
<g id="a_Node000005"><a xlink:href="../../d0/d91/sweep_8c.html#a7834de3b2829f6495270e005e4fb0251" target="_top" xlink:title=" ">
<polygon fill="white" stroke="#666666" points="913,-161.62 828.75,-161.62 828.75,-142.38 913,-142.38 913,-161.62"/>
<text text-anchor="middle" x="870.88" y="-148.12" font-family="Helvetica,sans-Serif" font-size="10.00">AddRightEdges</text>
</a>
</g>
</g>
<!-- Node4&#45;&gt;Node5 -->
<g id="edge4_Node000004_Node000005" class="edge">
<title>Node4&#45;&gt;Node5</title>
<g id="a_edge4_Node000004_Node000005"><a xlink:title=" ">
<path fill="none" stroke="#63b8ff" d="M961.39,-136.88C945.12,-139.62 928.09,-142.5 913.29,-145"/>
<polygon fill="#63b8ff" stroke="#63b8ff" points="961.65,-140.21 970.93,-135.09 960.49,-133.31 961.65,-140.21"/>
</a>
</g>
</g>
<!-- Node6 -->
<g id="Node000006" class="node">
<title>Node6</title>
<g id="a_Node000006"><a xlink:href="../../d0/d91/sweep_8c.html#a9aca1c68a114155bff5299e3d61bc11c" target="_top" xlink:title=" ">
<polygon fill="white" stroke="#666666" points="769.5,-123.62 672.5,-123.62 672.5,-104.38 769.5,-104.38 769.5,-123.62"/>
<text text-anchor="middle" x="721" y="-110.12" font-family="Helvetica,sans-Serif" font-size="10.00">CheckForIntersect</text>
</a>
</g>
</g>
<!-- Node4&#45;&gt;Node6 -->
<g id="edge20_Node000004_Node000006" class="edge">
<title>Node4&#45;&gt;Node6</title>
<g id="a_edge20_Node000004_Node000006"><a xlink:title=" ">
<path fill="none" stroke="#63b8ff" d="M961.05,-123.44C903.78,-121.18 821.51,-117.93 769.95,-115.89"/>
<polygon fill="#63b8ff" stroke="#63b8ff" points="960.67,-126.97 970.8,-123.87 960.94,-119.98 960.67,-126.97"/>
</a>
</g>
</g>
<!-- Node11 -->
<g id="Node000011" class="node">
<title>Node11</title>
<g id="a_Node000011"><a xlink:href="../../d0/d91/sweep_8c.html#a8f1ec3a66d8ffaf1764b9ec096d5ba69" target="_top" xlink:title=" ">
<polygon fill="white" stroke="#666666" points="636.5,-85.62 541.75,-85.62 541.75,-66.38 636.5,-66.38 636.5,-85.62"/>
<text text-anchor="middle" x="589.12" y="-72.12" font-family="Helvetica,sans-Serif" font-size="10.00">WalkDirtyRegions</text>
</a>
</g>
</g>
<!-- Node4&#45;&gt;Node11 -->
<g id="edge21_Node000004_Node000011" class="edge">
<title>Node4&#45;&gt;Node11</title>
<g id="a_edge21_Node000004_Node000011"><a xlink:title=" ">
<path fill="none" stroke="#63b8ff" d="M977.93,-113.31C926.79,-100.43 843.08,-81.39 769.5,-74 726.6,-69.69 715.61,-73.48 672.5,-74 660.91,-74.14 648.41,-74.39 636.74,-74.67"/>
<polygon fill="#63b8ff" stroke="#63b8ff" points="976.78,-116.88 987.34,-115.95 978.51,-110.09 976.78,-116.88"/>
</a>
</g>
</g>
<!-- Node5&#45;&gt;Node6 -->
<g id="edge5_Node000005_Node000006" class="edge">
<title>Node5&#45;&gt;Node6</title>
<g id="a_edge5_Node000005_Node000006"><a xlink:title=" ">
<path fill="none" stroke="#63b8ff" d="M820.24,-139.24C800.99,-134.3 779.28,-128.72 761.17,-124.06"/>
<polygon fill="#63b8ff" stroke="#63b8ff" points="819.08,-142.82 829.64,-141.92 820.82,-136.04 819.08,-142.82"/>
</a>
</g>
</g>
<!-- Node7 -->
<g id="Node000007" class="node">
<title>Node7</title>
<g id="a_Node000007"><a xlink:href="../../d0/d91/sweep_8c.html#ab6f18f13b5f8aa5ccecae0352b5cf9af" target="_top" xlink:title=" ">
<polygon fill="white" stroke="#666666" points="505.75,-142.62 401.25,-142.62 401.25,-123.38 505.75,-123.38 505.75,-142.62"/>
<text text-anchor="middle" x="453.5" y="-129.12" font-family="Helvetica,sans-Serif" font-size="10.00">ConnectRightVertex</text>
</a>
</g>
</g>
<!-- Node5&#45;&gt;Node7 -->
<g id="edge18_Node000005_Node000007" class="edge">
<title>Node5&#45;&gt;Node7</title>
<g id="a_edge18_Node000005_Node000007"><a xlink:title=" ">
<path fill="none" stroke="#63b8ff" d="M817.7,-150.01C752.95,-147.48 639.19,-142.87 541.75,-138 530.23,-137.42 517.86,-136.75 506.17,-136.09"/>
<polygon fill="#63b8ff" stroke="#63b8ff" points="817.3,-153.53 827.43,-150.43 817.57,-146.54 817.3,-153.53"/>
</a>
</g>
</g>
<!-- Node8 -->
<g id="Node000008" class="node">
<title>Node8</title>
<g id="a_Node000008"><a xlink:href="../../d0/d91/sweep_8c.html#a5a9d7f9cdcdcccbc1f71e221aaa6345d" target="_top" xlink:title=" ">
<polygon fill="white" stroke="#666666" points="365.25,-237.62 293.75,-237.62 293.75,-218.38 365.25,-218.38 365.25,-237.62"/>
<text text-anchor="middle" x="329.5" y="-224.12" font-family="Helvetica,sans-Serif" font-size="10.00">SweepEvent</text>
</a>
</g>
</g>
<!-- Node5&#45;&gt;Node8 -->
<g id="edge19_Node000005_Node000008" class="edge">
<title>Node5&#45;&gt;Node8</title>
<g id="a_edge19_Node000005_Node000008"><a xlink:title=" ">
<path fill="none" stroke="#63b8ff" d="M846.32,-167.88C826.69,-180.17 797.52,-196.36 769.5,-204 623.88,-243.72 441.28,-236.4 365.72,-231.01"/>
<polygon fill="#63b8ff" stroke="#63b8ff" points="847.88,-170.39 854.39,-162.04 844.09,-164.5 847.88,-170.39"/>
</a>
</g>
</g>
<!-- Node5&#45;&gt;Node9 -->
<g id="edge16_Node000005_Node000009" class="edge">
<title>Node5&#45;&gt;Node9</title>
<g id="a_edge16_Node000005_Node000009"><a xlink:title=" ">
<path fill="none" stroke="#63b8ff" d="M817.7,-163.38C761.73,-174.57 670.08,-190 590.12,-190 590.12,-190 590.12,-190 452.5,-190 385.77,-190 309.4,-183.72 258.08,-178.57"/>
<polygon fill="#63b8ff" stroke="#63b8ff" points="818.3,-166.62 827.41,-161.2 816.91,-159.76 818.3,-166.62"/>
</a>
</g>
</g>
<!-- Node10 -->
<g id="Node000010" class="node">
<title>Node10</title>
<g id="a_Node000010"><a xlink:href="../../d0/d91/sweep_8c.html#a943ebe21447e7a90e9e264ed8d63c426" target="_top" xlink:title=" ">
<polygon fill="white" stroke="#666666" points="100,-228.62 2.25,-228.62 2.25,-209.38 100,-209.38 100,-228.62"/>
<text text-anchor="middle" x="51.12" y="-215.12" font-family="Helvetica,sans-Serif" font-size="10.00">ConnectLeftVertex</text>
</a>
</g>
</g>
<!-- Node5&#45;&gt;Node10 -->
<g id="edge17_Node000005_Node000010" class="edge">
<title>Node5&#45;&gt;Node10</title>
<g id="a_edge17_Node000005_Node000010"><a xlink:title=" ">
<path fill="none" stroke="#63b8ff" d="M852.3,-169.21C833.41,-186.71 801.74,-213.27 769.5,-228 695.37,-261.85 671.62,-266 590.12,-266 590.12,-266 590.12,-266 328.5,-266 243.52,-266 221.41,-264.46 138.25,-247 117.63,-242.67 95,-235.2 78.11,-229.07"/>
<polygon fill="#63b8ff" stroke="#63b8ff" points="854.18,-172.3 859.03,-162.89 849.37,-167.22 854.18,-172.3"/>
</a>
</g>
</g>
<!-- Node6&#45;&gt;Node7 -->
<g id="edge6_Node000006_Node000007" class="edge">
<title>Node6&#45;&gt;Node7</title>
<g id="a_edge6_Node000006_Node000007"><a xlink:title=" ">
<path fill="none" stroke="#63b8ff" d="M661.41,-118.19C614.9,-121.52 550.51,-126.13 505.97,-129.32"/>
<polygon fill="#63b8ff" stroke="#63b8ff" points="661.5,-121.62 671.23,-117.42 661,-114.64 661.5,-121.62"/>
</a>
</g>
</g>
<!-- Node6&#45;&gt;Node11 -->
<g id="edge13_Node000006_Node000011" class="edge">
<title>Node6&#45;&gt;Node11</title>
<g id="a_edge13_Node000006_Node000011"><a xlink:title=" ">
<path fill="none" stroke="#63b8ff" d="M675.42,-100.96C658.69,-96.06 639.94,-90.58 624.3,-86"/>
<polygon fill="#63b8ff" stroke="#63b8ff" points="673.96,-104.47 684.54,-103.92 675.92,-97.75 673.96,-104.47"/>
</a>
</g>
</g>
<!-- Node7&#45;&gt;Node8 -->
<g id="edge7_Node000007_Node000008" class="edge">
<title>Node7&#45;&gt;Node8</title>
<g id="a_edge7_Node000007_Node000008"><a xlink:title=" ">
<path fill="none" stroke="#63b8ff" d="M431.35,-149.47C405.94,-169.26 364.11,-201.83 343.21,-218.1"/>
<polygon fill="#63b8ff" stroke="#63b8ff" points="433.16,-151.71 438.9,-142.81 428.86,-146.19 433.16,-151.71"/>
</a>
</g>
</g>
<!-- Node8&#45;&gt;Node2 -->
<g id="edge8_Node000008_Node000002" class="edge">
<title>Node8&#45;&gt;Node2</title>
<g id="a_edge8_Node000008_Node000002"><a xlink:title=" ">
<path fill="none" stroke="#63b8ff" d="M302.09,-243.5C276.29,-258.64 237.77,-281.25 215.86,-294.11"/>
<polygon fill="#63b8ff" stroke="#63b8ff" points="303.45,-246.17 310.3,-238.09 299.91,-240.14 303.45,-246.17"/>
</a>
</g>
</g>
<!-- Node8&#45;&gt;Node9 -->
<g id="edge9_Node000008_Node000009" class="edge">
<title>Node8&#45;&gt;Node9</title>
<g id="a_edge9_Node000008_Node000009"><a xlink:title=" ">
<path fill="none" stroke="#63b8ff" d="M297.15,-213.52C284.91,-207.94 270.71,-201.58 257.75,-196 246.82,-191.3 234.66,-186.29 224.24,-182.07"/>
<polygon fill="#63b8ff" stroke="#63b8ff" points="295.37,-217.01 305.92,-217.99 298.28,-210.65 295.37,-217.01"/>
</a>
</g>
</g>
<!-- Node8&#45;&gt;Node10 -->
<g id="edge12_Node000008_Node000010" class="edge">
<title>Node8&#45;&gt;Node10</title>
<g id="a_edge12_Node000008_Node000010"><a xlink:title=" ">
<path fill="none" stroke="#63b8ff" d="M282.6,-221.33C232.19,-217.62 151.59,-214.97 100.29,-215.3"/>
<polygon fill="#63b8ff" stroke="#63b8ff" points="282.25,-224.89 292.5,-222.19 282.8,-217.91 282.25,-224.89"/>
</a>
</g>
</g>
<!-- Node9&#45;&gt;Node10 -->
<g id="edge10_Node000009_Node000010" class="edge">
<title>Node9&#45;&gt;Node10</title>
<g id="a_edge10_Node000009_Node000010"><a xlink:title=" ">
<path fill="none" stroke="#63b8ff" d="M155.73,-185.39C132.64,-192.88 104.34,-202.06 83.15,-208.93"/>
<polygon fill="#63b8ff" stroke="#63b8ff" points="156.49,-188.5 164.92,-182.08 154.33,-181.84 156.49,-188.5"/>
</a>
</g>
</g>
<!-- Node10&#45;&gt;Node8 -->
<g id="edge11_Node000010_Node000008" class="edge">
<title>Node10&#45;&gt;Node8</title>
<g id="a_edge11_Node000010_Node000008"><a xlink:title=" ">
<path fill="none" stroke="#63b8ff" d="M111.01,-226.56C166.44,-230.11 247.61,-232.43 293.5,-231.53"/>
<polygon fill="#63b8ff" stroke="#63b8ff" points="111.5,-223.02 101.29,-225.84 111.03,-230 111.5,-223.02"/>
</a>
</g>
</g>
<!-- Node11&#45;&gt;Node5 -->
<g id="edge14_Node000011_Node000005" class="edge">
<title>Node11&#45;&gt;Node5</title>
<g id="a_edge14_Node000011_Node000005"><a xlink:title=" ">
<path fill="none" stroke="#63b8ff" d="M647.66,-76.14C683.47,-77.67 730.05,-82.32 769.5,-95 803.08,-105.79 837.93,-128.69 856.43,-141.94"/>
<polygon fill="#63b8ff" stroke="#63b8ff" points="648.03,-72.62 637.91,-75.76 647.78,-79.61 648.03,-72.62"/>
</a>
</g>
</g>
<!-- Node11&#45;&gt;Node7 -->
<g id="edge15_Node000011_Node000007" class="edge">
<title>Node11&#45;&gt;Node7</title>
<g id="a_edge15_Node000011_Node000007"><a xlink:title=" ">
<path fill="none" stroke="#63b8ff" d="M554.48,-90.35C530.56,-100.55 499.05,-114 477.85,-123.04"/>
<polygon fill="#63b8ff" stroke="#63b8ff" points="555.72,-93.2 563.54,-86.06 552.97,-86.76 555.72,-93.2"/>
</a>
</g>
</g>
<!-- Node12&#45;&gt;Node2 -->
<g id="edge24_Node000012_Node000002" class="edge">
<title>Node12&#45;&gt;Node2</title>
<g id="a_edge24_Node000012_Node000002"><a xlink:title=" ">
<path fill="none" stroke="#63b8ff" d="M794.42,-289.99C738.21,-296.58 659.5,-304 590.12,-304 590.12,-304 590.12,-304 452.5,-304 382.96,-304 302.7,-304 251.43,-304"/>
<polygon fill="#63b8ff" stroke="#63b8ff" points="794.49,-293.39 804,-288.73 793.66,-286.44 794.49,-293.39"/>
</a>
</g>
</g>
</g>
</svg>

<g id="navigator" transform="translate(0 0)" fill="#404254">
  <rect fill="#f2f5e9" fill-opacity="0.5" stroke="#606060" stroke-width=".5" x="0" y="0" width="60" height="60"/>
  <use id="zoomplus" xlink:href="#zoomPlus" x="17" y="9" onmousedown="handleZoom(evt,'in')"/>
  <use id="zoomminus" xlink:href="#zoomMin" x="42" y="9" onmousedown="handleZoom(evt,'out')"/>
  <use id="reset" xlink:href="#resetDef" x="30" y="36" onmousedown="handleReset()"/>
   <use id="arrowup" xlink:href="#arrowUp" x="0" y="0" onmousedown="handlePan(0,-1)"/>
  <use id="arrowright" xlink:href="#arrowRight" x="0" y="0" onmousedown="handlePan(1,0)"/>
  <use id="arrowdown" xlink:href="#arrowDown" x="0" y="0" onmousedown="handlePan(0,1)"/>
  <use id="arrowleft" xlink:href="#arrowLeft" x="0" y="0" onmousedown="handlePan(-1,0)"/>
</g>
<svg viewBox="0 0 15 15" width="100%" height="30px" preserveAspectRatio="xMaxYMin meet">
 <g id="arrow_out" transform="scale(0.3 0.3)">
  <a xlink:href="sweep_8c_af95078285cf9f6cfef04cc06e97f6a0b_icgraph_org.svg" target="_base">
   <rect id="button" ry="5" rx="5" y="6" x="6" height="38" width="38"
        fill="#f2f5e9" fill-opacity="0.5" stroke="#606060" stroke-width="1.0"/>
   <path id="arrow"
     d="M 11.500037,31.436501 C 11.940474,20.09759 22.043105,11.32322 32.158766,21.979434 L 37.068811,17.246167 C 37.068811,17.246167 37.088388,32 37.088388,32 L 22.160133,31.978069 C 22.160133,31.978069 26.997745,27.140456 26.997745,27.140456 C 18.528582,18.264221 13.291696,25.230495 11.500037,31.436501 z"
     style="fill:#404040;"/>
  </a>
 </g>
</svg>

<style type='text/css'>
<![CDATA[
[data-mouse-over-selected='false'] { opacity: 0.7; }
[data-mouse-over-selected='true']  { opacity: 1.0; }
]]>
</style>
<script type="application/ecmascript"><![CDATA[
document.addEventListener('DOMContentLoaded', (event) => {
  highlightEdges();
  highlightAdjacentNodes();
});
]]></script>
</svg>
