<?xml version="1.0" encoding="UTF-8" standalone="no"?>
<!DOCTYPE svg PUBLIC "-//W3C//DTD SVG 1.1//EN"
 "http://www.w3.org/Graphics/SVG/1.1/DTD/svg11.dtd">
<!-- Generated by graphviz version 8.0.5 (20230430.1635)
 -->
<!-- Title: Eigen::PastixBase::analyzePattern Pages: 1 -->
<svg width="430pt" height="235pt"
 viewBox="0.00 0.00 430.25 234.50" xmlns="http://www.w3.org/2000/svg" xmlns:xlink="http://www.w3.org/1999/xlink">
<g id="graph0" class="graph" transform="scale(1 1) rotate(0) translate(4 230.5)">
<title>Eigen::PastixBase::analyzePattern</title>
<!-- Node1 -->
<g id="Node000001" class="node">
<title>Node1</title>
<g id="a_Node000001"><a xlink:title=" ">
<polygon fill="#999999" stroke="#666666" points="103,-128.5 0,-128.5 0,-98 103,-98 103,-128.5"/>
<text text-anchor="start" x="8" y="-115" font-family="Helvetica,sans-Serif" font-size="10.00">Eigen::PastixBase::</text>
<text text-anchor="middle" x="51.5" y="-103.75" font-family="Helvetica,sans-Serif" font-size="10.00">analyzePattern</text>
</a>
</g>
</g>
<!-- Node2 -->
<g id="Node000002" class="node">
<title>Node2</title>
<g id="a_Node000002"><a xlink:href="../../d7/dc9/namespace_eigen_1_1internal.html#ad4ee1ca4d2da070262fd90025e78e085" target="_top" xlink:title=" ">
<polygon fill="white" stroke="#666666" points="246.5,-226.5 139,-226.5 139,-196 246.5,-196 246.5,-226.5"/>
<text text-anchor="start" x="147" y="-213" font-family="Helvetica,sans-Serif" font-size="10.00">Eigen::internal::eigen</text>
<text text-anchor="middle" x="192.75" y="-201.75" font-family="Helvetica,sans-Serif" font-size="10.00">_pastix</text>
</a>
</g>
</g>
<!-- Node1&#45;&gt;Node2 -->
<g id="edge1_Node000001_Node000002" class="edge">
<title>Node1&#45;&gt;Node2</title>
<g id="a_edge1_Node000001_Node000002"><a xlink:title=" ">
<path fill="none" stroke="#63b8ff" d="M68.4,-128.87C85.04,-144.67 112.39,-169.13 139,-186.25 141.16,-187.64 143.4,-189 145.7,-190.32"/>
<polygon fill="#63b8ff" stroke="#63b8ff" points="143.86,-193.84 154.33,-195.51 147.19,-187.68 143.86,-193.84"/>
</a>
</g>
</g>
<!-- Node3 -->
<g id="Node000003" class="node">
<title>Node3</title>
<g id="a_Node000003"><a xlink:href="../../dc/dfe/class_eigen_1_1_sparse_matrix.html#a7f88ee2d9b1ab77555fa039a6f5034f7" target="_top" xlink:title=" ">
<polygon fill="white" stroke="#666666" points="245,-177.5 140.5,-177.5 140.5,-147 245,-147 245,-177.5"/>
<text text-anchor="start" x="148.5" y="-164" font-family="Helvetica,sans-Serif" font-size="10.00">Eigen::SparseMatrix</text>
<text text-anchor="middle" x="192.75" y="-152.75" font-family="Helvetica,sans-Serif" font-size="10.00">::innerIndexPtr</text>
</a>
</g>
</g>
<!-- Node1&#45;&gt;Node3 -->
<g id="edge2_Node000001_Node000003" class="edge">
<title>Node1&#45;&gt;Node3</title>
<g id="a_edge2_Node000001_Node000003"><a xlink:title=" ">
<path fill="none" stroke="#63b8ff" d="M96.94,-128.89C109.75,-133.4 123.88,-138.37 137.23,-143.07"/>
<polygon fill="#63b8ff" stroke="#63b8ff" points="135.66,-146.57 146.25,-146.59 137.98,-139.97 135.66,-146.57"/>
</a>
</g>
</g>
<!-- Node5 -->
<g id="Node000005" class="node">
<title>Node5</title>
<g id="a_Node000005"><a xlink:href="../../dc/dfe/class_eigen_1_1_sparse_matrix.html#a8036c2ed19ca4c506641a6db8a3c9daf" target="_top" xlink:title=" ">
<polygon fill="white" stroke="#666666" points="245,-128.5 140.5,-128.5 140.5,-98 245,-98 245,-128.5"/>
<text text-anchor="start" x="148.5" y="-115" font-family="Helvetica,sans-Serif" font-size="10.00">Eigen::SparseMatrix</text>
<text text-anchor="middle" x="192.75" y="-103.75" font-family="Helvetica,sans-Serif" font-size="10.00">::outerIndexPtr</text>
</a>
</g>
</g>
<!-- Node1&#45;&gt;Node5 -->
<g id="edge4_Node000001_Node000005" class="edge">
<title>Node1&#45;&gt;Node5</title>
<g id="a_edge4_Node000001_Node000005"><a xlink:title=" ">
<path fill="none" stroke="#63b8ff" d="M103.17,-113.25C111.7,-113.25 120.64,-113.25 129.42,-113.25"/>
<polygon fill="#63b8ff" stroke="#63b8ff" points="129.42,-116.75 139.42,-113.25 129.42,-109.75 129.42,-116.75"/>
</a>
</g>
</g>
<!-- Node6 -->
<g id="Node000006" class="node">
<title>Node6</title>
<g id="a_Node000006"><a xlink:href="../../dc/dfe/class_eigen_1_1_sparse_matrix.html#a62e61bb861eee306d5b069ce652b5aa5" target="_top" xlink:title=" ">
<polygon fill="white" stroke="#666666" points="245,-79.5 140.5,-79.5 140.5,-49 245,-49 245,-79.5"/>
<text text-anchor="start" x="148.5" y="-66" font-family="Helvetica,sans-Serif" font-size="10.00">Eigen::SparseMatrix</text>
<text text-anchor="middle" x="192.75" y="-54.75" font-family="Helvetica,sans-Serif" font-size="10.00">::rows</text>
</a>
</g>
</g>
<!-- Node1&#45;&gt;Node6 -->
<g id="edge5_Node000001_Node000006" class="edge">
<title>Node1&#45;&gt;Node6</title>
<g id="a_edge5_Node000001_Node000006"><a xlink:title=" ">
<path fill="none" stroke="#63b8ff" d="M96.94,-97.61C109.75,-93.1 123.88,-88.13 137.23,-83.43"/>
<polygon fill="#63b8ff" stroke="#63b8ff" points="137.98,-86.53 146.25,-79.91 135.66,-79.93 137.98,-86.53"/>
</a>
</g>
</g>
<!-- Node7 -->
<g id="Node000007" class="node">
<title>Node7</title>
<g id="a_Node000007"><a xlink:href="../../dc/dfe/class_eigen_1_1_sparse_matrix.html#ab5f971ff967ee031ab8941b76c5af940" target="_top" xlink:title=" ">
<polygon fill="white" stroke="#666666" points="245,-30.5 140.5,-30.5 140.5,0 245,0 245,-30.5"/>
<text text-anchor="start" x="148.5" y="-17" font-family="Helvetica,sans-Serif" font-size="10.00">Eigen::SparseMatrix</text>
<text text-anchor="middle" x="192.75" y="-5.75" font-family="Helvetica,sans-Serif" font-size="10.00">::valuePtr</text>
</a>
</g>
</g>
<!-- Node1&#45;&gt;Node7 -->
<g id="edge6_Node000001_Node000007" class="edge">
<title>Node1&#45;&gt;Node7</title>
<g id="a_edge6_Node000001_Node000007"><a xlink:title=" ">
<path fill="none" stroke="#63b8ff" d="M68.4,-97.63C85.04,-81.83 112.39,-57.37 139,-40.25 141.16,-38.86 143.4,-37.5 145.7,-36.18"/>
<polygon fill="#63b8ff" stroke="#63b8ff" points="147.19,-38.82 154.33,-30.99 143.86,-32.66 147.19,-38.82"/>
</a>
</g>
</g>
<!-- Node4 -->
<g id="Node000004" class="node">
<title>Node4</title>
<g id="a_Node000004"><a xlink:href="../../da/d0d/class_eigen_1_1internal_1_1_compressed_storage.html#ad733a534a6c3ab170f6a59cd280e5457" target="_top" xlink:title=" ">
<polygon fill="white" stroke="#666666" points="422.25,-177.5 282.5,-177.5 282.5,-147 422.25,-147 422.25,-177.5"/>
<text text-anchor="start" x="290.5" y="-164" font-family="Helvetica,sans-Serif" font-size="10.00">Eigen::internal::Compressed</text>
<text text-anchor="middle" x="352.38" y="-152.75" font-family="Helvetica,sans-Serif" font-size="10.00">Storage::indexPtr</text>
</a>
</g>
</g>
<!-- Node3&#45;&gt;Node4 -->
<g id="edge3_Node000003_Node000004" class="edge">
<title>Node3&#45;&gt;Node4</title>
<g id="a_edge3_Node000003_Node000004"><a xlink:title=" ">
<path fill="none" stroke="#63b8ff" d="M245.36,-162.25C253.72,-162.25 262.55,-162.25 271.4,-162.25"/>
<polygon fill="#63b8ff" stroke="#63b8ff" points="271.17,-165.75 281.17,-162.25 271.17,-158.75 271.17,-165.75"/>
</a>
</g>
</g>
<!-- Node8 -->
<g id="Node000008" class="node">
<title>Node8</title>
<g id="a_Node000008"><a xlink:href="../../da/d0d/class_eigen_1_1internal_1_1_compressed_storage.html#a7c110d595480b0b8ea593e3a922dd9e9" target="_top" xlink:title=" ">
<polygon fill="white" stroke="#666666" points="422.25,-30.5 282.5,-30.5 282.5,0 422.25,0 422.25,-30.5"/>
<text text-anchor="start" x="290.5" y="-17" font-family="Helvetica,sans-Serif" font-size="10.00">Eigen::internal::Compressed</text>
<text text-anchor="middle" x="352.38" y="-5.75" font-family="Helvetica,sans-Serif" font-size="10.00">Storage::valuePtr</text>
</a>
</g>
</g>
<!-- Node7&#45;&gt;Node8 -->
<g id="edge7_Node000007_Node000008" class="edge">
<title>Node7&#45;&gt;Node8</title>
<g id="a_edge7_Node000007_Node000008"><a xlink:title=" ">
<path fill="none" stroke="#63b8ff" d="M245.36,-15.25C253.72,-15.25 262.55,-15.25 271.4,-15.25"/>
<polygon fill="#63b8ff" stroke="#63b8ff" points="271.17,-18.75 281.17,-15.25 271.17,-11.75 271.17,-18.75"/>
</a>
</g>
</g>
</g>
</svg>
