<?xml version="1.0" encoding="UTF-8" standalone="no"?>
<!DOCTYPE svg PUBLIC "-//W3C//DTD SVG 1.1//EN"
 "http://www.w3.org/Graphics/SVG/1.1/DTD/svg11.dtd">
<!-- Generated by graphviz version 8.0.5 (20230430.1635)
 -->
<!-- Title: Slic3r::GUI::MenuFactory::append_menu_item_replace_with_stl Pages: 1 -->
<svg width="435pt" height="162pt"
 viewBox="0.00 0.00 434.75 161.88" xmlns="http://www.w3.org/2000/svg" xmlns:xlink="http://www.w3.org/1999/xlink">

<svg id="main" version="1.1" xmlns="http://www.w3.org/2000/svg" xmlns:xlink="http://www.w3.org/1999/xlink" xml:space="preserve" onload="init(evt)">
<style type="text/css"><![CDATA[
.node, .edge {opacity: 0.7;}
.node.selected, .edge.selected {opacity: 1;}
.edge:hover path { stroke: red; }
.edge:hover polygon { stroke: red; fill: red; }
]]></style>
<script type="application/ecmascript" xlink:href="../../svg.min.js"/>
<svg id="graph" class="graph">
<g id="graph0" class="graph" transform="scale(1 1) rotate(0) translate(4 157.88)">
<title>Slic3r::GUI::MenuFactory::append_menu_item_replace_with_stl</title>
<!-- Node1 -->
<g id="Node000001" class="node">
<title>Node1</title>
<g id="a_Node000001"><a xlink:title=" ">
<polygon fill="#999999" stroke="#666666" points="143.5,-100.12 0,-100.12 0,-58.38 143.5,-58.38 143.5,-100.12"/>
<text text-anchor="start" x="8" y="-86.62" font-family="Helvetica,sans-Serif" font-size="10.00">Slic3r::GUI::MenuFactory</text>
<text text-anchor="start" x="8" y="-75.38" font-family="Helvetica,sans-Serif" font-size="10.00">::append_menu_item_replace</text>
<text text-anchor="middle" x="71.75" y="-64.12" font-family="Helvetica,sans-Serif" font-size="10.00">_with_stl</text>
</a>
</g>
</g>
<!-- Node2 -->
<g id="Node000002" class="node">
<title>Node2</title>
<g id="a_Node000002"><a xlink:href="../../d7/d58/wx_extensions_8cpp.html#a5fa59db2b48dfd0f84d4642ffaa87c4a" target="_top" xlink:title=" ">
<polygon fill="white" stroke="#666666" points="286.62,-153.88 185.88,-153.88 185.88,-134.62 286.62,-134.62 286.62,-153.88"/>
<text text-anchor="middle" x="236.25" y="-140.38" font-family="Helvetica,sans-Serif" font-size="10.00">append_menu_item</text>
</a>
</g>
</g>
<!-- Node1&#45;&gt;Node2 -->
<g id="edge1_Node000001_Node000002" class="edge">
<title>Node1&#45;&gt;Node2</title>
<g id="a_edge1_Node000001_Node000002"><a xlink:title=" ">
<path fill="none" stroke="#63b8ff" d="M119.98,-100.55C138.42,-108.61 159.82,-117.67 179.5,-125.25 184.2,-127.06 189.16,-128.88 194.1,-130.63"/>
<polygon fill="#63b8ff" stroke="#63b8ff" points="192.54,-134.14 203.13,-134.13 194.84,-127.53 192.54,-134.14"/>
</a>
</g>
</g>
<!-- Node4 -->
<g id="Node000004" class="node">
<title>Node4</title>
<g id="a_Node000004"><a xlink:href="../../d7/d21/class_slic3r_1_1_g_u_i_1_1_plater.html#a852eb2550eda7bc5762a8774b0d8d6cd" target="_top" xlink:title=" ">
<polygon fill="white" stroke="#666666" points="293,-116.5 179.5,-116.5 179.5,-86 293,-86 293,-116.5"/>
<text text-anchor="start" x="187.5" y="-103" font-family="Helvetica,sans-Serif" font-size="10.00">Slic3r::GUI::Plater</text>
<text text-anchor="middle" x="236.25" y="-91.75" font-family="Helvetica,sans-Serif" font-size="10.00">::can_replace_with_stl</text>
</a>
</g>
</g>
<!-- Node1&#45;&gt;Node4 -->
<g id="edge3_Node000001_Node000004" class="edge">
<title>Node1&#45;&gt;Node4</title>
<g id="a_edge3_Node000001_Node000004"><a xlink:title=" ">
<path fill="none" stroke="#63b8ff" d="M143.55,-88.84C151.88,-89.96 160.35,-91.11 168.62,-92.23"/>
<polygon fill="#63b8ff" stroke="#63b8ff" points="167.95,-95.81 178.33,-93.68 168.89,-88.87 167.95,-95.81"/>
</a>
</g>
</g>
<!-- Node5 -->
<g id="Node000005" class="node">
<title>Node5</title>
<g id="a_Node000005"><a xlink:href="../../d9/d45/namespace_slic3r_1_1_g_u_i.html#a40f49532eea1542b9be80eb93ed855eb" target="_top" xlink:title=" ">
<polygon fill="white" stroke="#666666" points="283.62,-67.88 188.88,-67.88 188.88,-48.62 283.62,-48.62 283.62,-67.88"/>
<text text-anchor="middle" x="236.25" y="-54.38" font-family="Helvetica,sans-Serif" font-size="10.00">Slic3r::GUI::plater</text>
</a>
</g>
</g>
<!-- Node1&#45;&gt;Node5 -->
<g id="edge4_Node000001_Node000005" class="edge">
<title>Node1&#45;&gt;Node5</title>
<g id="a_edge4_Node000001_Node000005"><a xlink:title=" ">
<path fill="none" stroke="#63b8ff" d="M143.55,-70.1C154.97,-68.62 166.67,-67.11 177.72,-65.68"/>
<polygon fill="#63b8ff" stroke="#63b8ff" points="178.06,-69.04 187.53,-64.29 177.16,-62.1 178.06,-69.04"/>
</a>
</g>
</g>
<!-- Node6 -->
<g id="Node000006" class="node">
<title>Node6</title>
<g id="a_Node000006"><a xlink:href="../../d7/d21/class_slic3r_1_1_g_u_i_1_1_plater.html#ac597d930eb2aa4c4d56cb90db1c80f4c" target="_top" xlink:title=" ">
<polygon fill="white" stroke="#666666" points="284.38,-30.5 188.12,-30.5 188.12,0 284.38,0 284.38,-30.5"/>
<text text-anchor="start" x="196.12" y="-17" font-family="Helvetica,sans-Serif" font-size="10.00">Slic3r::GUI::Plater</text>
<text text-anchor="middle" x="236.25" y="-5.75" font-family="Helvetica,sans-Serif" font-size="10.00">::replace_with_stl</text>
</a>
</g>
</g>
<!-- Node1&#45;&gt;Node6 -->
<g id="edge5_Node000001_Node000006" class="edge">
<title>Node1&#45;&gt;Node6</title>
<g id="a_edge5_Node000001_Node000006"><a xlink:title=" ">
<path fill="none" stroke="#63b8ff" d="M126.86,-57.94C145.79,-50.48 166.94,-42.15 185.5,-34.84"/>
<polygon fill="#63b8ff" stroke="#63b8ff" points="186.49,-37.82 194.51,-30.9 183.92,-31.31 186.49,-37.82"/>
</a>
</g>
</g>
<!-- Node3 -->
<g id="Node000003" class="node">
<title>Node3</title>
<g id="a_Node000003"><a xlink:href="../../d7/d58/wx_extensions_8cpp.html#adc1152e886e9dcbb74955b5c0f023d5c" target="_top" xlink:title=" ">
<polygon fill="white" stroke="#666666" points="426.75,-153.88 329,-153.88 329,-134.62 426.75,-134.62 426.75,-153.88"/>
<text text-anchor="middle" x="377.88" y="-140.38" font-family="Helvetica,sans-Serif" font-size="10.00">enable_menu_item</text>
</a>
</g>
</g>
<!-- Node2&#45;&gt;Node3 -->
<g id="edge2_Node000002_Node000003" class="edge">
<title>Node2&#45;&gt;Node3</title>
<g id="a_edge2_Node000002_Node000003"><a xlink:title=" ">
<path fill="none" stroke="#63b8ff" d="M286.87,-144.25C296.99,-144.25 307.73,-144.25 318.14,-144.25"/>
<polygon fill="#63b8ff" stroke="#63b8ff" points="317.82,-147.75 327.82,-144.25 317.82,-140.75 317.82,-147.75"/>
</a>
</g>
</g>
</g>
</svg>
</svg>

<style type='text/css'>
<![CDATA[
[data-mouse-over-selected='false'] { opacity: 0.7; }
[data-mouse-over-selected='true']  { opacity: 1.0; }
]]>
</style>
<script type="application/ecmascript"><![CDATA[
document.addEventListener('DOMContentLoaded', (event) => {
  highlightEdges();
  highlightAdjacentNodes();
});
]]></script>
</svg>
