<?xml version="1.0" encoding="UTF-8" standalone="no"?>
<!DOCTYPE svg PUBLIC "-//W3C//DTD SVG 1.1//EN"
 "http://www.w3.org/Graphics/SVG/1.1/DTD/svg11.dtd">
<!-- Generated by graphviz version 8.0.5 (20230430.1635)
 -->
<!-- Title: igl::embree::unproject_in_mesh Pages: 1 -->
<svg width="735pt" height="104pt"
 viewBox="0.00 0.00 734.50 104.25" xmlns="http://www.w3.org/2000/svg" xmlns:xlink="http://www.w3.org/1999/xlink">
<g id="graph0" class="graph" transform="scale(1 1) rotate(0) translate(4 100.25)">
<title>igl::embree::unproject_in_mesh</title>
<!-- Node1 -->
<g id="Node000001" class="node">
<title>Node1</title>
<g id="a_Node000001"><a xlink:title=" ">
<polygon fill="#999999" stroke="#666666" points="109.75,-45.88 0,-45.88 0,-15.37 109.75,-15.37 109.75,-45.88"/>
<text text-anchor="start" x="8" y="-32.38" font-family="Helvetica,sans-Serif" font-size="10.00">igl::embree::unproject</text>
<text text-anchor="middle" x="54.88" y="-21.12" font-family="Helvetica,sans-Serif" font-size="10.00">_in_mesh</text>
</a>
</g>
</g>
<!-- Node2 -->
<g id="Node000002" class="node">
<title>Node2</title>
<g id="a_Node000002"><a xlink:href="../../d6/d07/namespaceigl_1_1embree.html#a1576b38865ac5b065749d684ae8220f5" target="_top" xlink:title=" ">
<polygon fill="white" stroke="#666666" points="255.5,-45.88 145.75,-45.88 145.75,-15.37 255.5,-15.37 255.5,-45.88"/>
<text text-anchor="start" x="153.75" y="-32.38" font-family="Helvetica,sans-Serif" font-size="10.00">igl::embree::unproject</text>
<text text-anchor="middle" x="200.62" y="-21.12" font-family="Helvetica,sans-Serif" font-size="10.00">_in_mesh</text>
</a>
</g>
</g>
<!-- Node1&#45;&gt;Node2 -->
<g id="edge1_Node000001_Node000002" class="edge">
<title>Node1&#45;&gt;Node2</title>
<g id="a_edge1_Node000001_Node000002"><a xlink:title=" ">
<path fill="none" stroke="#63b8ff" d="M110.22,-30.62C118.29,-30.62 126.68,-30.62 134.93,-30.62"/>
<polygon fill="#63b8ff" stroke="#63b8ff" points="134.68,-34.13 144.68,-30.62 134.68,-27.13 134.68,-34.13"/>
</a>
</g>
</g>
<!-- Node3 -->
<g id="Node000003" class="node">
<title>Node3</title>
<g id="a_Node000003"><a xlink:href="../../d3/d7c/classigl_1_1embree_1_1_embree_intersector.html#a674a92001c5fb384eaf2bbba80ec0fa6" target="_top" xlink:title=" ">
<polygon fill="white" stroke="#666666" points="441.75,-67.88 291.5,-67.88 291.5,-37.38 441.75,-37.38 441.75,-67.88"/>
<text text-anchor="start" x="299.5" y="-54.38" font-family="Helvetica,sans-Serif" font-size="10.00">igl::embree::EmbreeIntersector</text>
<text text-anchor="middle" x="366.62" y="-43.12" font-family="Helvetica,sans-Serif" font-size="10.00">::intersectRay</text>
</a>
</g>
</g>
<!-- Node2&#45;&gt;Node3 -->
<g id="edge2_Node000002_Node000003" class="edge">
<title>Node2&#45;&gt;Node3</title>
<g id="a_edge2_Node000002_Node000003"><a xlink:title=" ">
<path fill="none" stroke="#63b8ff" d="M255.78,-37.89C263.63,-38.94 271.86,-40.05 280.15,-41.16"/>
<polygon fill="#63b8ff" stroke="#63b8ff" points="279.66,-44.76 290.04,-42.62 280.59,-37.82 279.66,-44.76"/>
</a>
</g>
</g>
<!-- Node6 -->
<g id="Node000006" class="node">
<title>Node6</title>
<g id="a_Node000006"><a xlink:href="../../dc/d25/namespaceigl.html#aecf4e54e1fb25eb85bc4c84cf187ff3f" target="_top" xlink:title=" ">
<polygon fill="white" stroke="#666666" points="423.38,-19.25 309.88,-19.25 309.88,0 423.38,0 423.38,-19.25"/>
<text text-anchor="middle" x="366.62" y="-5.75" font-family="Helvetica,sans-Serif" font-size="10.00">igl::unproject_in_mesh</text>
</a>
</g>
</g>
<!-- Node2&#45;&gt;Node6 -->
<g id="edge5_Node000002_Node000006" class="edge">
<title>Node2&#45;&gt;Node6</title>
<g id="a_edge5_Node000002_Node000006"><a xlink:title=" ">
<path fill="none" stroke="#63b8ff" d="M255.78,-23.69C269.53,-21.93 284.47,-20.02 298.78,-18.18"/>
<polygon fill="#63b8ff" stroke="#63b8ff" points="299.09,-21.55 308.56,-16.8 298.2,-14.6 299.09,-21.55"/>
</a>
</g>
</g>
<!-- Node4 -->
<g id="Node000004" class="node">
<title>Node4</title>
<g id="a_Node000004"><a xlink:href="../../df/d23/rtcore_8h.html#a785a8f32cc5f8e35e5b8f425600bf306" target="_top" xlink:title="Returns the value of the per&#45;thread error flag.">
<polygon fill="white" stroke="#666666" points="568.38,-96.25 504.38,-96.25 504.38,-77 568.38,-77 568.38,-96.25"/>
<text text-anchor="middle" x="536.38" y="-82.75" font-family="Helvetica,sans-Serif" font-size="10.00">rtcGetError</text>
</a>
</g>
</g>
<!-- Node3&#45;&gt;Node4 -->
<g id="edge3_Node000003_Node000004" class="edge">
<title>Node3&#45;&gt;Node4</title>
<g id="a_edge3_Node000003_Node000004"><a xlink:title=" ">
<path fill="none" stroke="#63b8ff" d="M442.18,-67.74C459.64,-71.28 477.65,-74.93 493.13,-78.06"/>
<polygon fill="#63b8ff" stroke="#63b8ff" points="492.41,-81.69 502.9,-80.25 493.8,-74.83 492.41,-81.69"/>
</a>
</g>
</g>
<!-- Node5 -->
<g id="Node000005" class="node">
<title>Node5</title>
<g id="a_Node000005"><a xlink:href="../../d0/d74/rtcore__scene_8h.html#a868080f110d93a96e7c2f1ad92371dca" target="_top" xlink:title=" ">
<polygon fill="white" stroke="#666666" points="569.12,-59.25 503.62,-59.25 503.62,-40 569.12,-40 569.12,-59.25"/>
<text text-anchor="middle" x="536.38" y="-45.75" font-family="Helvetica,sans-Serif" font-size="10.00">rtcIntersect</text>
</a>
</g>
</g>
<!-- Node3&#45;&gt;Node5 -->
<g id="edge4_Node000003_Node000005" class="edge">
<title>Node3&#45;&gt;Node5</title>
<g id="a_edge4_Node000003_Node000005"><a xlink:title=" ">
<path fill="none" stroke="#63b8ff" d="M442.18,-51.29C459.5,-50.98 477.36,-50.66 492.75,-50.39"/>
<polygon fill="#63b8ff" stroke="#63b8ff" points="492.54,-53.87 502.48,-50.2 492.42,-46.87 492.54,-53.87"/>
</a>
</g>
</g>
<!-- Node7 -->
<g id="Node000007" class="node">
<title>Node7</title>
<g id="a_Node000007"><a xlink:href="../../dc/d25/namespaceigl.html#afad5dd1837c2feef84c4d96994d90ed3" target="_top" xlink:title=" ">
<polygon fill="white" stroke="#666666" points="595,-19.25 477.75,-19.25 477.75,0 595,0 595,-19.25"/>
<text text-anchor="middle" x="536.38" y="-5.75" font-family="Helvetica,sans-Serif" font-size="10.00">igl::ray_mesh_intersect</text>
</a>
</g>
</g>
<!-- Node6&#45;&gt;Node7 -->
<g id="edge6_Node000006_Node000007" class="edge">
<title>Node6&#45;&gt;Node7</title>
<g id="a_edge6_Node000006_Node000007"><a xlink:title=" ">
<path fill="none" stroke="#63b8ff" d="M423.48,-9.62C437.31,-9.62 452.28,-9.62 466.63,-9.62"/>
<polygon fill="#63b8ff" stroke="#63b8ff" points="466.47,-13.13 476.47,-9.62 466.47,-6.13 466.47,-13.13"/>
</a>
</g>
</g>
<!-- Node8 -->
<g id="Node000008" class="node">
<title>Node8</title>
<g id="a_Node000008"><a xlink:href="../../d3/d1a/raytri_8c.html#ab04e2c482db881988fa7fae57eef0345" target="_top" xlink:title=" ">
<polygon fill="white" stroke="#666666" points="726.5,-19.25 631,-19.25 631,0 726.5,0 726.5,-19.25"/>
<text text-anchor="middle" x="678.75" y="-5.75" font-family="Helvetica,sans-Serif" font-size="10.00">intersect_triangle1</text>
</a>
</g>
</g>
<!-- Node7&#45;&gt;Node8 -->
<g id="edge7_Node000007_Node000008" class="edge">
<title>Node7&#45;&gt;Node8</title>
<g id="a_edge7_Node000007_Node000008"><a xlink:title=" ">
<path fill="none" stroke="#63b8ff" d="M595.28,-9.62C603.38,-9.62 611.71,-9.62 619.81,-9.62"/>
<polygon fill="#63b8ff" stroke="#63b8ff" points="619.67,-13.13 629.67,-9.62 619.67,-6.13 619.67,-13.13"/>
</a>
</g>
</g>
</g>
</svg>
