<?xml version="1.0" encoding="UTF-8" standalone="no"?>
<!DOCTYPE svg PUBLIC "-//W3C//DTD SVG 1.1//EN"
 "http://www.w3.org/Graphics/SVG/1.1/DTD/svg11.dtd">
<!-- Generated by graphviz version 8.0.5 (20230430.1635)
 -->
<!-- Title: ImGuiWindow::ImGuiWindow Pages: 1 -->
<svg width="438pt" height="176pt"
 viewBox="0.00 0.00 437.75 176.25" xmlns="http://www.w3.org/2000/svg" xmlns:xlink="http://www.w3.org/1999/xlink">
<g id="graph0" class="graph" transform="scale(1 1) rotate(0) translate(4 172.25)">
<title>ImGuiWindow::ImGuiWindow</title>
<!-- Node1 -->
<g id="Node000001" class="node">
<title>Node1</title>
<g id="a_Node000001"><a xlink:title=" ">
<polygon fill="#999999" stroke="#666666" points="145,-75.25 0,-75.25 0,-56 145,-56 145,-75.25"/>
<text text-anchor="middle" x="72.5" y="-61.75" font-family="Helvetica,sans-Serif" font-size="10.00">ImGuiWindow::ImGuiWindow</text>
</a>
</g>
</g>
<!-- Node2 -->
<g id="Node000002" class="node">
<title>Node2</title>
<g id="a_Node000002"><a xlink:href="../../d6/d8f/struct_im_gui_window.html#a66400a63bc0b54d7d29e08d1b1b1a42b" target="_top" xlink:title=" ">
<polygon fill="white" stroke="#666666" points="290.75,-132.25 181,-132.25 181,-113 290.75,-113 290.75,-132.25"/>
<text text-anchor="middle" x="235.88" y="-118.75" font-family="Helvetica,sans-Serif" font-size="10.00">ImGuiWindow::GetID</text>
</a>
</g>
</g>
<!-- Node1&#45;&gt;Node2 -->
<g id="edge1_Node000001_Node000002" class="edge">
<title>Node1&#45;&gt;Node2</title>
<g id="a_edge1_Node000001_Node000002"><a xlink:title=" ">
<path fill="none" stroke="#63b8ff" d="M101.98,-75.68C128.17,-84.94 167.22,-98.73 196.22,-108.97"/>
<polygon fill="#63b8ff" stroke="#63b8ff" points="194.81,-112.54 205.41,-112.57 197.15,-105.94 194.81,-112.54"/>
</a>
</g>
</g>
<!-- Node4 -->
<g id="Node000004" class="node">
<title>Node4</title>
<g id="a_Node000004"><a xlink:href="../../da/d72/imgui_8cpp.html#acd1b12694d0365b516bf7373f182eeee" target="_top" xlink:title=" ">
<polygon fill="white" stroke="#666666" points="409.88,-94.25 346.62,-94.25 346.62,-75 409.88,-75 409.88,-94.25"/>
<text text-anchor="middle" x="378.25" y="-80.75" font-family="Helvetica,sans-Serif" font-size="10.00">ImHashStr</text>
</a>
</g>
</g>
<!-- Node1&#45;&gt;Node4 -->
<g id="edge5_Node000001_Node000004" class="edge">
<title>Node1&#45;&gt;Node4</title>
<g id="a_edge5_Node000001_Node000004"><a xlink:title=" ">
<path fill="none" stroke="#63b8ff" d="M145.48,-70.13C204.73,-73.83 286.65,-78.96 335.55,-82.02"/>
<polygon fill="#63b8ff" stroke="#63b8ff" points="335.16,-85.56 345.36,-82.69 335.59,-78.58 335.16,-85.56"/>
</a>
</g>
</g>
<!-- Node6 -->
<g id="Node000006" class="node">
<title>Node6</title>
<g id="a_Node000006"><a xlink:href="../../da/d72/imgui_8cpp.html#a23a8e1005c1db0b1a9ea2f613ed7b2e0" target="_top" xlink:title=" ">
<polygon fill="white" stroke="#666666" points="263.75,-56.25 208,-56.25 208,-37 263.75,-37 263.75,-56.25"/>
<text text-anchor="middle" x="235.88" y="-42.75" font-family="Helvetica,sans-Serif" font-size="10.00">ImStrdup</text>
</a>
</g>
</g>
<!-- Node1&#45;&gt;Node6 -->
<g id="edge6_Node000001_Node000006" class="edge">
<title>Node1&#45;&gt;Node6</title>
<g id="a_edge6_Node000001_Node000006"><a xlink:title=" ">
<path fill="none" stroke="#63b8ff" d="M145.22,-57.18C163.1,-55.08 181.58,-52.9 197.08,-51.07"/>
<polygon fill="#63b8ff" stroke="#63b8ff" points="197.27,-54.46 206.79,-49.81 196.45,-47.51 197.27,-54.46"/>
</a>
</g>
</g>
<!-- Node7 -->
<g id="Node000007" class="node">
<title>Node7</title>
<g id="a_Node000007"><a xlink:href="../../df/d93/struct_im_vector.html#aab5df48e0711a48bd12f3206e08c4108" target="_top" xlink:title=" ">
<polygon fill="white" stroke="#666666" points="290.38,-19.25 181.38,-19.25 181.38,0 290.38,0 290.38,-19.25"/>
<text text-anchor="middle" x="235.88" y="-5.75" font-family="Helvetica,sans-Serif" font-size="10.00">ImVector::push_back</text>
</a>
</g>
</g>
<!-- Node1&#45;&gt;Node7 -->
<g id="edge7_Node000001_Node000007" class="edge">
<title>Node1&#45;&gt;Node7</title>
<g id="a_edge7_Node000001_Node000007"><a xlink:title=" ">
<path fill="none" stroke="#63b8ff" d="M101.3,-55.65C122.97,-47.91 153.86,-36.96 181,-27.62 185.25,-26.16 189.69,-24.65 194.13,-23.16"/>
<polygon fill="#63b8ff" stroke="#63b8ff" points="194.99,-26.22 203.36,-19.72 192.76,-19.59 194.99,-26.22"/>
</a>
</g>
</g>
<!-- Node3 -->
<g id="Node000003" class="node">
<title>Node3</title>
<g id="a_Node000003"><a xlink:href="../../df/d93/struct_im_vector.html#a2d80e87e81b1b01143c8d8be93e6fde1" target="_top" xlink:title=" ">
<polygon fill="white" stroke="#666666" points="419.62,-168.25 336.88,-168.25 336.88,-149 419.62,-149 419.62,-168.25"/>
<text text-anchor="middle" x="378.25" y="-154.75" font-family="Helvetica,sans-Serif" font-size="10.00">ImVector::back</text>
</a>
</g>
</g>
<!-- Node2&#45;&gt;Node3 -->
<g id="edge2_Node000002_Node000003" class="edge">
<title>Node2&#45;&gt;Node3</title>
<g id="a_edge2_Node000002_Node000003"><a xlink:title=" ">
<path fill="none" stroke="#63b8ff" d="M276.35,-132.75C292.33,-136.85 310.96,-141.63 327.83,-145.95"/>
<polygon fill="#63b8ff" stroke="#63b8ff" points="326.51,-149.48 337.07,-148.58 328.25,-142.7 326.51,-149.48"/>
</a>
</g>
</g>
<!-- Node2&#45;&gt;Node4 -->
<g id="edge3_Node000002_Node000004" class="edge">
<title>Node2&#45;&gt;Node4</title>
<g id="a_edge3_Node000002_Node000004"><a xlink:title=" ">
<path fill="none" stroke="#63b8ff" d="M274.12,-112.54C293.18,-107.38 316.42,-101.09 336.01,-95.79"/>
<polygon fill="#63b8ff" stroke="#63b8ff" points="336.73,-98.95 345.47,-92.96 334.9,-92.19 336.73,-98.95"/>
</a>
</g>
</g>
<!-- Node5 -->
<g id="Node000005" class="node">
<title>Node5</title>
<g id="a_Node000005"><a xlink:href="../../df/d13/namespace_im_gui.html#a85a245c78a9f7c351636bdad6e60c488" target="_top" xlink:title=" ">
<polygon fill="white" stroke="#666666" points="429.75,-131.25 326.75,-131.25 326.75,-112 429.75,-112 429.75,-131.25"/>
<text text-anchor="middle" x="378.25" y="-117.75" font-family="Helvetica,sans-Serif" font-size="10.00">ImGui::KeepAliveID</text>
</a>
</g>
</g>
<!-- Node2&#45;&gt;Node5 -->
<g id="edge4_Node000002_Node000005" class="edge">
<title>Node2&#45;&gt;Node5</title>
<g id="a_edge4_Node000002_Node000005"><a xlink:title=" ">
<path fill="none" stroke="#63b8ff" d="M291.15,-122.24C299.1,-122.18 307.35,-122.12 315.44,-122.07"/>
<polygon fill="#63b8ff" stroke="#63b8ff" points="315.37,-125.56 325.34,-121.99 315.32,-118.56 315.37,-125.56"/>
</a>
</g>
</g>
</g>
</svg>
