<?xml version="1.0" encoding="UTF-8" standalone="no"?>
<!DOCTYPE svg PUBLIC "-//W3C//DTD SVG 1.1//EN"
 "http://www.w3.org/Graphics/SVG/1.1/DTD/svg11.dtd">
<!-- Generated by graphviz version 8.0.5 (20230430.1635)
 -->
<!-- Title: Slic3r::SegmentIntersection::horizontal Pages: 1 -->
<svg width="955pt" height="215pt"
 viewBox="0.00 0.00 955.25 214.88" xmlns="http://www.w3.org/2000/svg" xmlns:xlink="http://www.w3.org/1999/xlink">
<g id="graph0" class="graph" transform="scale(1 1) rotate(0) translate(4 210.88)">
<title>Slic3r::SegmentIntersection::horizontal</title>
<!-- Node1 -->
<g id="Node000001" class="node">
<title>Node1</title>
<g id="a_Node000001"><a xlink:title=" ">
<polygon fill="#999999" stroke="#666666" points="947.25,-125.5 810.5,-125.5 810.5,-95 947.25,-95 947.25,-125.5"/>
<text text-anchor="start" x="818.5" y="-112" font-family="Helvetica,sans-Serif" font-size="10.00">Slic3r::SegmentIntersection</text>
<text text-anchor="middle" x="878.88" y="-100.75" font-family="Helvetica,sans-Serif" font-size="10.00">::horizontal</text>
</a>
</g>
</g>
<!-- Node2 -->
<g id="Node000002" class="node">
<title>Node2</title>
<g id="a_Node000002"><a xlink:href="../../de/db8/namespace_slic3r.html#acbe21a0ca0ed775716cdd31d3f551a8f" target="_top" xlink:title=" ">
<polygon fill="white" stroke="#666666" points="774.5,-82.12 658,-82.12 658,-40.38 774.5,-40.38 774.5,-82.12"/>
<text text-anchor="start" x="666" y="-68.62" font-family="Helvetica,sans-Serif" font-size="10.00">Slic3r::intersection</text>
<text text-anchor="start" x="666" y="-57.38" font-family="Helvetica,sans-Serif" font-size="10.00">_on_prev_next_vertical</text>
<text text-anchor="middle" x="716.25" y="-46.12" font-family="Helvetica,sans-Serif" font-size="10.00">_line_valid</text>
</a>
</g>
</g>
<!-- Node1&#45;&gt;Node2 -->
<g id="edge1_Node000001_Node000002" class="edge">
<title>Node1&#45;&gt;Node2</title>
<g id="a_edge1_Node000001_Node000002"><a xlink:title=" ">
<path fill="none" stroke="#63b8ff" d="M816.33,-91.48C802.66,-87.31 788.22,-82.9 774.72,-78.78"/>
<polygon fill="#63b8ff" stroke="#63b8ff" points="815.02,-95.04 825.61,-94.61 817.07,-88.35 815.02,-95.04"/>
</a>
</g>
</g>
<!-- Node11 -->
<g id="Node000011" class="node">
<title>Node11</title>
<g id="a_Node000011"><a xlink:href="../../de/db8/namespace_slic3r.html#a379d636d900bf342fbf35ef4fe7e0f66" target="_top" xlink:title=" ">
<polygon fill="white" stroke="#666666" points="773,-119.88 659.5,-119.88 659.5,-100.62 773,-100.62 773,-119.88"/>
<text text-anchor="middle" x="716.25" y="-106.38" font-family="Helvetica,sans-Serif" font-size="10.00">Slic3r::overlap_bottom</text>
</a>
</g>
</g>
<!-- Node1&#45;&gt;Node11 -->
<g id="edge10_Node000001_Node000011" class="edge">
<title>Node1&#45;&gt;Node11</title>
<g id="a_edge10_Node000001_Node000011"><a xlink:title=" ">
<path fill="none" stroke="#63b8ff" d="M799.44,-110.25C790.57,-110.25 781.66,-110.25 773.16,-110.25"/>
<polygon fill="#63b8ff" stroke="#63b8ff" points="799.22,-113.75 809.22,-110.25 799.22,-106.75 799.22,-113.75"/>
</a>
</g>
</g>
<!-- Node18 -->
<g id="Node000018" class="node">
<title>Node18</title>
<g id="a_Node000018"><a xlink:href="../../de/db8/namespace_slic3r.html#a730a9d4ff90eea6b7e41212650ff2508" target="_top" xlink:title=" ">
<polygon fill="white" stroke="#666666" points="764.75,-156.88 667.75,-156.88 667.75,-137.62 764.75,-137.62 764.75,-156.88"/>
<text text-anchor="middle" x="716.25" y="-143.38" font-family="Helvetica,sans-Serif" font-size="10.00">Slic3r::overlap_top</text>
</a>
</g>
</g>
<!-- Node1&#45;&gt;Node18 -->
<g id="edge21_Node000001_Node000018" class="edge">
<title>Node1&#45;&gt;Node18</title>
<g id="a_edge21_Node000001_Node000018"><a xlink:title=" ">
<path fill="none" stroke="#63b8ff" d="M799.62,-128.28C786.36,-131.33 773.01,-134.41 761.04,-137.16"/>
<polygon fill="#63b8ff" stroke="#63b8ff" points="800.26,-131.49 809.22,-125.83 798.69,-124.67 800.26,-131.49"/>
</a>
</g>
</g>
<!-- Node3 -->
<g id="Node000003" class="node">
<title>Node3</title>
<g id="a_Node000003"><a xlink:href="../../de/db8/namespace_slic3r.html#ab9bdc47b1ef9aa05bdc820c9d7d95540" target="_top" xlink:title=" ">
<polygon fill="white" stroke="#666666" points="622,-79.5 483.75,-79.5 483.75,-49 622,-49 622,-79.5"/>
<text text-anchor="start" x="491.75" y="-66" font-family="Helvetica,sans-Serif" font-size="10.00">Slic3r::intersection</text>
<text text-anchor="middle" x="552.88" y="-54.75" font-family="Helvetica,sans-Serif" font-size="10.00">_on_next_vertical_line_valid</text>
</a>
</g>
</g>
<!-- Node2&#45;&gt;Node3 -->
<g id="edge2_Node000002_Node000003" class="edge">
<title>Node2&#45;&gt;Node3</title>
<g id="a_edge2_Node000002_Node000003"><a xlink:title=" ">
<path fill="none" stroke="#63b8ff" d="M646.94,-62.52C638.81,-62.67 630.5,-62.83 622.36,-62.98"/>
<polygon fill="#63b8ff" stroke="#63b8ff" points="646.97,-66 656.9,-62.32 646.84,-59 646.97,-66"/>
</a>
</g>
</g>
<!-- Node10 -->
<g id="Node000010" class="node">
<title>Node10</title>
<g id="a_Node000010"><a xlink:href="../../de/db8/namespace_slic3r.html#a239fd78832ed41bc3d9c49a4a78144c3" target="_top" xlink:title=" ">
<polygon fill="white" stroke="#666666" points="622,-30.5 483.75,-30.5 483.75,0 622,0 622,-30.5"/>
<text text-anchor="start" x="491.75" y="-17" font-family="Helvetica,sans-Serif" font-size="10.00">Slic3r::intersection</text>
<text text-anchor="middle" x="552.88" y="-5.75" font-family="Helvetica,sans-Serif" font-size="10.00">_on_prev_vertical_line_valid</text>
</a>
</g>
</g>
<!-- Node2&#45;&gt;Node10 -->
<g id="edge8_Node000002_Node000010" class="edge">
<title>Node2&#45;&gt;Node10</title>
<g id="a_edge8_Node000002_Node000010"><a xlink:title=" ">
<path fill="none" stroke="#63b8ff" d="M647.66,-41.98C634.73,-38.3 621.35,-34.48 608.88,-30.93"/>
<polygon fill="#63b8ff" stroke="#63b8ff" points="646.32,-45.53 656.9,-44.9 648.24,-38.8 646.32,-45.53"/>
</a>
</g>
</g>
<!-- Node4 -->
<g id="Node000004" class="node">
<title>Node4</title>
<g id="a_Node000004"><a xlink:href="../../de/db8/namespace_slic3r.html#a1ebe17d4dc453c56c1bfc26bfce637d4" target="_top" xlink:title=" ">
<polygon fill="white" stroke="#666666" points="434.62,-34.5 323.38,-34.5 323.38,-4 434.62,-4 434.62,-34.5"/>
<text text-anchor="start" x="331.38" y="-21" font-family="Helvetica,sans-Serif" font-size="10.00">Slic3r::traverse_graph</text>
<text text-anchor="middle" x="379" y="-9.75" font-family="Helvetica,sans-Serif" font-size="10.00">_generate_polylines</text>
</a>
</g>
</g>
<!-- Node3&#45;&gt;Node4 -->
<g id="edge3_Node000003_Node000004" class="edge">
<title>Node3&#45;&gt;Node4</title>
<g id="a_edge3_Node000003_Node000004"><a xlink:title=" ">
<path fill="none" stroke="#63b8ff" d="M481.2,-45.75C465.75,-41.7 449.63,-37.48 434.9,-33.62"/>
<polygon fill="#63b8ff" stroke="#63b8ff" points="480.2,-49.36 490.76,-48.51 481.97,-42.59 480.2,-49.36"/>
</a>
</g>
</g>
<!-- Node5 -->
<g id="Node000005" class="node">
<title>Node5</title>
<g id="a_Node000005"><a xlink:href="../../db/d2e/class_slic3r_1_1_fill_rectilinear.html#afe3252a582d0fd303723f995a52c8975" target="_top" xlink:title=" ">
<polygon fill="white" stroke="#666666" points="274.25,-120.5 163.75,-120.5 163.75,-90 274.25,-90 274.25,-120.5"/>
<text text-anchor="start" x="171.75" y="-107" font-family="Helvetica,sans-Serif" font-size="10.00">Slic3r::FillRectilinear</text>
<text text-anchor="middle" x="219" y="-95.75" font-family="Helvetica,sans-Serif" font-size="10.00">::fill_surface_by_lines</text>
</a>
</g>
</g>
<!-- Node4&#45;&gt;Node5 -->
<g id="edge4_Node000004_Node000005" class="edge">
<title>Node4&#45;&gt;Node5</title>
<g id="a_edge4_Node000004_Node000005"><a xlink:title=" ">
<path fill="none" stroke="#63b8ff" d="M318.8,-39.17C315.88,-40.48 313.01,-41.84 310.25,-43.25 284.33,-56.45 257.16,-76.02 239.49,-89.63"/>
<polygon fill="#63b8ff" stroke="#63b8ff" points="320.02,-42.04 327.88,-34.93 317.3,-35.58 320.02,-42.04"/>
</a>
</g>
</g>
<!-- Node6 -->
<g id="Node000006" class="node">
<title>Node6</title>
<g id="a_Node000006"><a xlink:href="../../db/d2e/class_slic3r_1_1_fill_rectilinear.html#a18ebe18d7b067b7caebab316001f1dfd" target="_top" xlink:title=" ">
<polygon fill="#fff0f0" stroke="red" points="116.88,-169.5 10.88,-169.5 10.88,-139 116.88,-139 116.88,-169.5"/>
<text text-anchor="start" x="18.88" y="-156" font-family="Helvetica,sans-Serif" font-size="10.00">Slic3r::FillRectilinear</text>
<text text-anchor="middle" x="63.88" y="-144.75" font-family="Helvetica,sans-Serif" font-size="10.00">::fill_surface</text>
</a>
</g>
</g>
<!-- Node5&#45;&gt;Node6 -->
<g id="edge5_Node000005_Node000006" class="edge">
<title>Node5&#45;&gt;Node6</title>
<g id="a_edge5_Node000005_Node000006"><a xlink:title=" ">
<path fill="none" stroke="#63b8ff" d="M159.03,-124.12C144.17,-128.87 128.39,-133.93 114.07,-138.51"/>
<polygon fill="#63b8ff" stroke="#63b8ff" points="159.67,-127.27 168.13,-120.89 157.54,-120.6 159.67,-127.27"/>
</a>
</g>
</g>
<!-- Node8 -->
<g id="Node000008" class="node">
<title>Node8</title>
<g id="a_Node000008"><a xlink:href="../../d0/d21/class_slic3r_1_1_fill_monotonic.html#ace69d94f31e44b486a90b5a2175d4c93" target="_top" xlink:title=" ">
<polygon fill="white" stroke="#666666" points="116.12,-120.5 11.62,-120.5 11.62,-90 116.12,-90 116.12,-120.5"/>
<text text-anchor="start" x="19.62" y="-107" font-family="Helvetica,sans-Serif" font-size="10.00">Slic3r::FillMonotonic</text>
<text text-anchor="middle" x="63.88" y="-95.75" font-family="Helvetica,sans-Serif" font-size="10.00">::fill_surface</text>
</a>
</g>
</g>
<!-- Node5&#45;&gt;Node8 -->
<g id="edge6_Node000005_Node000008" class="edge">
<title>Node5&#45;&gt;Node8</title>
<g id="a_edge6_Node000005_Node000008"><a xlink:title=" ">
<path fill="none" stroke="#63b8ff" d="M152.65,-105.25C140.58,-105.25 128.14,-105.25 116.55,-105.25"/>
<polygon fill="#63b8ff" stroke="#63b8ff" points="152.58,-108.75 162.58,-105.25 152.58,-101.75 152.58,-108.75"/>
</a>
</g>
</g>
<!-- Node9 -->
<g id="Node000009" class="node">
<title>Node9</title>
<g id="a_Node000009"><a xlink:href="../../d1/d2d/class_slic3r_1_1_fill_monotonic_lines.html#aee64ab89e5f0cab894e0694ccdec7fc6" target="_top" xlink:title=" ">
<polygon fill="white" stroke="#666666" points="127.75,-71.5 0,-71.5 0,-41 127.75,-41 127.75,-71.5"/>
<text text-anchor="start" x="8" y="-58" font-family="Helvetica,sans-Serif" font-size="10.00">Slic3r::FillMonotonicLines</text>
<text text-anchor="middle" x="63.88" y="-46.75" font-family="Helvetica,sans-Serif" font-size="10.00">::fill_surface</text>
</a>
</g>
</g>
<!-- Node5&#45;&gt;Node9 -->
<g id="edge7_Node000005_Node000009" class="edge">
<title>Node5&#45;&gt;Node9</title>
<g id="a_edge7_Node000005_Node000009"><a xlink:title=" ">
<path fill="none" stroke="#63b8ff" d="M159.03,-86.38C144.17,-81.63 128.39,-76.57 114.07,-71.99"/>
<polygon fill="#63b8ff" stroke="#63b8ff" points="157.54,-89.9 168.13,-89.61 159.67,-83.23 157.54,-89.9"/>
</a>
</g>
</g>
<!-- Node10&#45;&gt;Node4 -->
<g id="edge9_Node000010_Node000004" class="edge">
<title>Node10&#45;&gt;Node4</title>
<g id="a_edge9_Node000010_Node000004"><a xlink:title=" ">
<path fill="none" stroke="#63b8ff" d="M472.79,-17.09C460,-17.39 447.02,-17.69 434.97,-17.97"/>
<polygon fill="#63b8ff" stroke="#63b8ff" points="472.54,-20.57 482.45,-16.84 472.37,-13.58 472.54,-20.57"/>
</a>
</g>
</g>
<!-- Node12 -->
<g id="Node000012" class="node">
<title>Node12</title>
<g id="a_Node000012"><a xlink:href="../../de/db8/namespace_slic3r.html#afe77bb78c69a96ab7e2b04ae3c332b51" target="_top" xlink:title=" ">
<polygon fill="white" stroke="#666666" points="601.38,-119.88 504.38,-119.88 504.38,-100.62 601.38,-100.62 601.38,-119.88"/>
<text text-anchor="middle" x="552.88" y="-106.38" font-family="Helvetica,sans-Serif" font-size="10.00">Slic3r::left_overlap</text>
</a>
</g>
</g>
<!-- Node11&#45;&gt;Node12 -->
<g id="edge11_Node000011_Node000012" class="edge">
<title>Node11&#45;&gt;Node12</title>
<g id="a_edge11_Node000011_Node000012"><a xlink:title=" ">
<path fill="none" stroke="#63b8ff" d="M648.54,-110.25C632.83,-110.25 616.4,-110.25 601.71,-110.25"/>
<polygon fill="#63b8ff" stroke="#63b8ff" points="648.26,-113.75 658.26,-110.25 648.26,-106.75 648.26,-113.75"/>
</a>
</g>
</g>
<!-- Node16 -->
<g id="Node000016" class="node">
<title>Node16</title>
<g id="a_Node000016"><a xlink:href="../../de/db8/namespace_slic3r.html#a4816600325ec7b0a6debe1bebb8e70c2" target="_top" xlink:title=" ">
<polygon fill="white" stroke="#666666" points="604,-156.88 501.75,-156.88 501.75,-137.62 604,-137.62 604,-156.88"/>
<text text-anchor="middle" x="552.88" y="-143.38" font-family="Helvetica,sans-Serif" font-size="10.00">Slic3r::right_overlap</text>
</a>
</g>
</g>
<!-- Node11&#45;&gt;Node16 -->
<g id="edge17_Node000011_Node000016" class="edge">
<title>Node11&#45;&gt;Node16</title>
<g id="a_edge17_Node000011_Node000016"><a xlink:title=" ">
<path fill="none" stroke="#63b8ff" d="M660.44,-122.82C640.06,-127.49 617.21,-132.73 597.92,-137.15"/>
<polygon fill="#63b8ff" stroke="#63b8ff" points="661.19,-126.01 670.15,-120.36 659.62,-119.18 661.19,-126.01"/>
</a>
</g>
</g>
<!-- Node13 -->
<g id="Node000013" class="node">
<title>Node13</title>
<g id="a_Node000013"><a xlink:href="../../de/db8/namespace_slic3r.html#abe770221bf92b8e7759bbc975b105441" target="_top" xlink:title=" ">
<polygon fill="white" stroke="#666666" points="444.75,-120.5 313.25,-120.5 313.25,-90 444.75,-90 444.75,-120.5"/>
<text text-anchor="start" x="321.25" y="-107" font-family="Helvetica,sans-Serif" font-size="10.00">Slic3r::connect_monotonic</text>
<text text-anchor="middle" x="379" y="-95.75" font-family="Helvetica,sans-Serif" font-size="10.00">_regions</text>
</a>
</g>
</g>
<!-- Node12&#45;&gt;Node13 -->
<g id="edge12_Node000012_Node000013" class="edge">
<title>Node12&#45;&gt;Node13</title>
<g id="a_edge12_Node000012_Node000013"><a xlink:title=" ">
<path fill="none" stroke="#63b8ff" d="M493.44,-108.55C477.84,-108.1 460.89,-107.6 444.96,-107.14"/>
<polygon fill="#63b8ff" stroke="#63b8ff" points="492.9,-112.06 503,-108.86 493.1,-105.07 492.9,-112.06"/>
</a>
</g>
</g>
<!-- Node14 -->
<g id="Node000014" class="node">
<title>Node14</title>
<g id="a_Node000014"><a xlink:href="../../de/db8/namespace_slic3r.html#afd8f236d8ac26143d480e875f8a9ae97" target="_top" xlink:title=" ">
<polygon fill="white" stroke="#666666" points="447.75,-169.5 310.25,-169.5 310.25,-139 447.75,-139 447.75,-169.5"/>
<text text-anchor="start" x="318.25" y="-156" font-family="Helvetica,sans-Serif" font-size="10.00">Slic3r::generate_montonous</text>
<text text-anchor="middle" x="379" y="-144.75" font-family="Helvetica,sans-Serif" font-size="10.00">_regions</text>
</a>
</g>
</g>
<!-- Node12&#45;&gt;Node14 -->
<g id="edge14_Node000012_Node000014" class="edge">
<title>Node12&#45;&gt;Node14</title>
<g id="a_edge14_Node000012_Node000014"><a xlink:title=" ">
<path fill="none" stroke="#63b8ff" d="M501.97,-123.02C483.07,-127.86 461.33,-133.43 441.49,-138.51"/>
<polygon fill="#63b8ff" stroke="#63b8ff" points="502.62,-126.22 511.44,-120.34 500.89,-119.43 502.62,-126.22"/>
</a>
</g>
</g>
<!-- Node15 -->
<g id="Node000015" class="node">
<title>Node15</title>
<g id="a_Node000015"><a xlink:href="../../de/db8/namespace_slic3r.html#af78939d716b429a3e533b013dea53e9b" target="_top" xlink:title=" ">
<polygon fill="white" stroke="#666666" points="427.5,-71.88 330.5,-71.88 330.5,-52.62 427.5,-52.62 427.5,-71.88"/>
<text text-anchor="middle" x="379" y="-58.38" font-family="Helvetica,sans-Serif" font-size="10.00">Slic3r::left_overlap</text>
</a>
</g>
</g>
<!-- Node12&#45;&gt;Node15 -->
<g id="edge16_Node000012_Node000015" class="edge">
<title>Node12&#45;&gt;Node15</title>
<g id="a_edge16_Node000012_Node000015"><a xlink:title=" ">
<path fill="none" stroke="#63b8ff" d="M505.45,-97.29C477.33,-89.43 441.98,-79.56 415.98,-72.3"/>
<polygon fill="#63b8ff" stroke="#63b8ff" points="504.27,-100.87 514.84,-100.19 506.15,-94.13 504.27,-100.87"/>
</a>
</g>
</g>
<!-- Node13&#45;&gt;Node5 -->
<g id="edge13_Node000013_Node000005" class="edge">
<title>Node13&#45;&gt;Node5</title>
<g id="a_edge13_Node000013_Node000005"><a xlink:title=" ">
<path fill="none" stroke="#63b8ff" d="M301.98,-105.25C292.69,-105.25 283.35,-105.25 274.47,-105.25"/>
<polygon fill="#63b8ff" stroke="#63b8ff" points="301.82,-108.75 311.82,-105.25 301.82,-101.75 301.82,-108.75"/>
</a>
</g>
</g>
<!-- Node14&#45;&gt;Node5 -->
<g id="edge15_Node000014_Node000005" class="edge">
<title>Node14&#45;&gt;Node5</title>
<g id="a_edge15_Node000014_Node000005"><a xlink:title=" ">
<path fill="none" stroke="#63b8ff" d="M317.15,-135.38C301.82,-130.63 285.53,-125.57 270.76,-120.99"/>
<polygon fill="#63b8ff" stroke="#63b8ff" points="315.99,-138.99 326.57,-138.61 318.06,-132.31 315.99,-138.99"/>
</a>
</g>
</g>
<!-- Node16&#45;&gt;Node13 -->
<g id="edge18_Node000016_Node000013" class="edge">
<title>Node16&#45;&gt;Node13</title>
<g id="a_edge18_Node000016_Node000013"><a xlink:title=" ">
<path fill="none" stroke="#63b8ff" d="M500.11,-134.6C482.56,-130.31 462.73,-125.47 444.33,-120.97"/>
<polygon fill="#63b8ff" stroke="#63b8ff" points="499.16,-138.22 509.71,-137.19 500.82,-131.42 499.16,-138.22"/>
</a>
</g>
</g>
<!-- Node16&#45;&gt;Node14 -->
<g id="edge19_Node000016_Node000014" class="edge">
<title>Node16&#45;&gt;Node14</title>
<g id="a_edge19_Node000016_Node000014"><a xlink:title=" ">
<path fill="none" stroke="#63b8ff" d="M490.84,-149.74C477.01,-150.3 462.23,-150.9 448.13,-151.48"/>
<polygon fill="#63b8ff" stroke="#63b8ff" points="490.85,-153.2 500.7,-149.29 490.57,-146.2 490.85,-153.2"/>
</a>
</g>
</g>
<!-- Node17 -->
<g id="Node000017" class="node">
<title>Node17</title>
<g id="a_Node000017"><a xlink:href="../../de/db8/namespace_slic3r.html#a7025e90d7f187e9f8bf26dfe2475dc25" target="_top" xlink:title=" ">
<polygon fill="white" stroke="#666666" points="430.12,-206.88 327.88,-206.88 327.88,-187.62 430.12,-187.62 430.12,-206.88"/>
<text text-anchor="middle" x="379" y="-193.38" font-family="Helvetica,sans-Serif" font-size="10.00">Slic3r::right_overlap</text>
</a>
</g>
</g>
<!-- Node16&#45;&gt;Node17 -->
<g id="edge20_Node000016_Node000017" class="edge">
<title>Node16&#45;&gt;Node17</title>
<g id="a_edge20_Node000016_Node000017"><a xlink:title=" ">
<path fill="none" stroke="#63b8ff" d="M508.1,-160.45C489.51,-166.01 467.59,-172.51 447.75,-178.25 437.54,-181.2 426.45,-184.34 416.25,-187.2"/>
<polygon fill="#63b8ff" stroke="#63b8ff" points="509.05,-163.52 517.62,-157.3 507.04,-156.82 509.05,-163.52"/>
</a>
</g>
</g>
<!-- Node18&#45;&gt;Node12 -->
<g id="edge22_Node000018_Node000012" class="edge">
<title>Node18&#45;&gt;Node12</title>
<g id="a_edge22_Node000018_Node000012"><a xlink:title=" ">
<path fill="none" stroke="#63b8ff" d="M660.44,-134.68C640.06,-130.01 617.21,-124.77 597.92,-120.35"/>
<polygon fill="#63b8ff" stroke="#63b8ff" points="659.62,-138.32 670.15,-137.14 661.19,-131.49 659.62,-138.32"/>
</a>
</g>
</g>
<!-- Node18&#45;&gt;Node16 -->
<g id="edge23_Node000018_Node000016" class="edge">
<title>Node18&#45;&gt;Node16</title>
<g id="a_edge23_Node000018_Node000016"><a xlink:title=" ">
<path fill="none" stroke="#63b8ff" d="M656.33,-147.25C639.33,-147.25 620.93,-147.25 604.48,-147.25"/>
<polygon fill="#63b8ff" stroke="#63b8ff" points="656.27,-150.75 666.27,-147.25 656.27,-143.75 656.27,-150.75"/>
</a>
</g>
</g>
</g>
</svg>
