<?xml version="1.0" encoding="UTF-8" standalone="no"?>
<!DOCTYPE svg PUBLIC "-//W3C//DTD SVG 1.1//EN"
 "http://www.w3.org/Graphics/SVG/1.1/DTD/svg11.dtd">
<!-- Generated by graphviz version 8.0.5 (20230430.1635)
 -->
<!-- Title: Slic3r::PressureEqualizer::GCodeLine::dist_xyz2 Pages: 1 -->
<svg width="961pt" height="155pt"
 viewBox="0.00 0.00 960.50 154.50" xmlns="http://www.w3.org/2000/svg" xmlns:xlink="http://www.w3.org/1999/xlink">
<g id="graph0" class="graph" transform="scale(1 1) rotate(0) translate(4 150.5)">
<title>Slic3r::PressureEqualizer::GCodeLine::dist_xyz2</title>
<!-- Node1 -->
<g id="Node000001" class="node">
<title>Node1</title>
<g id="a_Node000001"><a xlink:title=" ">
<polygon fill="#999999" stroke="#666666" points="952.5,-79.5 826.25,-79.5 826.25,-49 952.5,-49 952.5,-79.5"/>
<text text-anchor="start" x="834.25" y="-66" font-family="Helvetica,sans-Serif" font-size="10.00">Slic3r::PressureEqualizer</text>
<text text-anchor="middle" x="889.38" y="-54.75" font-family="Helvetica,sans-Serif" font-size="10.00">::GCodeLine::dist_xyz2</text>
</a>
</g>
</g>
<!-- Node2 -->
<g id="Node000002" class="node">
<title>Node2</title>
<g id="a_Node000002"><a xlink:href="../../d6/d5b/struct_slic3r_1_1_pressure_equalizer_1_1_g_code_line.html#a625699750764ea800893094e7fe66659" target="_top" xlink:title=" ">
<polygon fill="white" stroke="#666666" points="790.25,-79.5 664,-79.5 664,-49 790.25,-49 790.25,-79.5"/>
<text text-anchor="start" x="672" y="-66" font-family="Helvetica,sans-Serif" font-size="10.00">Slic3r::PressureEqualizer</text>
<text text-anchor="middle" x="727.12" y="-54.75" font-family="Helvetica,sans-Serif" font-size="10.00">::GCodeLine::dist_xyz</text>
</a>
</g>
</g>
<!-- Node1&#45;&gt;Node2 -->
<g id="edge1_Node000001_Node000002" class="edge">
<title>Node1&#45;&gt;Node2</title>
<g id="a_edge1_Node000001_Node000002"><a xlink:title=" ">
<path fill="none" stroke="#63b8ff" d="M814.96,-64.25C806.83,-64.25 798.61,-64.25 790.63,-64.25"/>
<polygon fill="#63b8ff" stroke="#63b8ff" points="814.96,-67.75 824.96,-64.25 814.96,-60.75 814.96,-67.75"/>
</a>
</g>
</g>
<!-- Node3 -->
<g id="Node000003" class="node">
<title>Node3</title>
<g id="a_Node000003"><a xlink:href="../../df/dc1/class_slic3r_1_1_pressure_equalizer.html#a84b9172290fb049048a8329aa4676145" target="_top" xlink:title=" ">
<polygon fill="white" stroke="#666666" points="628,-128.5 501.75,-128.5 501.75,-98 628,-98 628,-128.5"/>
<text text-anchor="start" x="509.75" y="-115" font-family="Helvetica,sans-Serif" font-size="10.00">Slic3r::PressureEqualizer</text>
<text text-anchor="middle" x="564.88" y="-103.75" font-family="Helvetica,sans-Serif" font-size="10.00">::output_gcode_line</text>
</a>
</g>
</g>
<!-- Node2&#45;&gt;Node3 -->
<g id="edge2_Node000002_Node000003" class="edge">
<title>Node2&#45;&gt;Node3</title>
<g id="a_edge2_Node000002_Node000003"><a xlink:title=" ">
<path fill="none" stroke="#63b8ff" d="M664.85,-82.98C649.18,-87.78 632.49,-92.88 617.36,-97.51"/>
<polygon fill="#63b8ff" stroke="#63b8ff" points="665.44,-86.16 673.98,-79.89 663.39,-79.47 665.44,-86.16"/>
</a>
</g>
</g>
<!-- Node5 -->
<g id="Node000005" class="node">
<title>Node5</title>
<g id="a_Node000005"><a xlink:href="../../d6/d5b/struct_slic3r_1_1_pressure_equalizer_1_1_g_code_line.html#ab64d9cbb3adc7b3c6b20f51a39359732" target="_top" xlink:title=" ">
<polygon fill="white" stroke="#666666" points="628,-79.5 501.75,-79.5 501.75,-49 628,-49 628,-79.5"/>
<text text-anchor="start" x="509.75" y="-66" font-family="Helvetica,sans-Serif" font-size="10.00">Slic3r::PressureEqualizer</text>
<text text-anchor="middle" x="564.88" y="-54.75" font-family="Helvetica,sans-Serif" font-size="10.00">::GCodeLine::time</text>
</a>
</g>
</g>
<!-- Node2&#45;&gt;Node5 -->
<g id="edge5_Node000002_Node000005" class="edge">
<title>Node2&#45;&gt;Node5</title>
<g id="a_edge5_Node000002_Node000005"><a xlink:title=" ">
<path fill="none" stroke="#63b8ff" d="M652.71,-64.25C644.58,-64.25 636.36,-64.25 628.38,-64.25"/>
<polygon fill="#63b8ff" stroke="#63b8ff" points="652.71,-67.75 662.71,-64.25 652.71,-60.75 652.71,-67.75"/>
</a>
</g>
</g>
<!-- Node10 -->
<g id="Node000010" class="node">
<title>Node10</title>
<g id="a_Node000010"><a xlink:href="../../d6/d5b/struct_slic3r_1_1_pressure_equalizer_1_1_g_code_line.html#a47171633697c811f54bf8aa21be240e4" target="_top" xlink:title=" ">
<polygon fill="white" stroke="#666666" points="628,-30.5 501.75,-30.5 501.75,0 628,0 628,-30.5"/>
<text text-anchor="start" x="509.75" y="-17" font-family="Helvetica,sans-Serif" font-size="10.00">Slic3r::PressureEqualizer</text>
<text text-anchor="middle" x="564.88" y="-5.75" font-family="Helvetica,sans-Serif" font-size="10.00">::GCodeLine::time_inv</text>
</a>
</g>
</g>
<!-- Node2&#45;&gt;Node10 -->
<g id="edge9_Node000002_Node000010" class="edge">
<title>Node2&#45;&gt;Node10</title>
<g id="a_edge9_Node000002_Node000010"><a xlink:title=" ">
<path fill="none" stroke="#63b8ff" d="M664.85,-45.52C649.18,-40.72 632.49,-35.62 617.36,-30.99"/>
<polygon fill="#63b8ff" stroke="#63b8ff" points="663.39,-49.03 673.98,-48.61 665.44,-42.34 663.39,-49.03"/>
</a>
</g>
</g>
<!-- Node4 -->
<g id="Node000004" class="node">
<title>Node4</title>
<g id="a_Node000004"><a xlink:href="../../df/dc1/class_slic3r_1_1_pressure_equalizer.html#a126bccdfe0fdf401615d5f8448eddd04" target="_top" xlink:title=" ">
<polygon fill="white" stroke="#666666" points="458.25,-128.5 332,-128.5 332,-98 458.25,-98 458.25,-128.5"/>
<text text-anchor="start" x="340" y="-115" font-family="Helvetica,sans-Serif" font-size="10.00">Slic3r::PressureEqualizer</text>
<text text-anchor="middle" x="395.12" y="-103.75" font-family="Helvetica,sans-Serif" font-size="10.00">::process_layer</text>
</a>
</g>
</g>
<!-- Node3&#45;&gt;Node4 -->
<g id="edge3_Node000003_Node000004" class="edge">
<title>Node3&#45;&gt;Node4</title>
<g id="a_edge3_Node000003_Node000004"><a xlink:title=" ">
<path fill="none" stroke="#63b8ff" d="M490.46,-113.25C479.85,-113.25 469.01,-113.25 458.64,-113.25"/>
<polygon fill="#63b8ff" stroke="#63b8ff" points="490.41,-116.75 500.41,-113.25 490.41,-109.75 490.41,-116.75"/>
</a>
</g>
</g>
<!-- Node4&#45;&gt;Node4 -->
<g id="edge4_Node000004_Node000004" class="edge">
<title>Node4&#45;&gt;Node4</title>
<g id="a_edge4_Node000004_Node000004"><a xlink:title=" ">
<path fill="none" stroke="#63b8ff" d="M423.98,-139.88C419.48,-143.83 409.86,-146.5 395.12,-146.5 368.93,-146.5 358.91,-138.06 365.05,-128.99"/>
<polygon fill="#63b8ff" stroke="#63b8ff" points="427.56,-140.31 425.2,-129.99 420.61,-139.53 427.56,-140.31"/>
</a>
</g>
</g>
<!-- Node6 -->
<g id="Node000006" class="node">
<title>Node6</title>
<g id="a_Node000006"><a xlink:href="../../d6/d5b/struct_slic3r_1_1_pressure_equalizer_1_1_g_code_line.html#a43a56f16f57e59be46918d3926948310" target="_top" xlink:title=" ">
<polygon fill="white" stroke="#666666" points="465.75,-79.5 324.5,-79.5 324.5,-49 465.75,-49 465.75,-79.5"/>
<text text-anchor="start" x="332.5" y="-66" font-family="Helvetica,sans-Serif" font-size="10.00">Slic3r::PressureEqualizer</text>
<text text-anchor="middle" x="395.12" y="-54.75" font-family="Helvetica,sans-Serif" font-size="10.00">::GCodeLine::time_corrected</text>
</a>
</g>
</g>
<!-- Node5&#45;&gt;Node6 -->
<g id="edge6_Node000005_Node000006" class="edge">
<title>Node5&#45;&gt;Node6</title>
<g id="a_edge6_Node000005_Node000006"><a xlink:title=" ">
<path fill="none" stroke="#63b8ff" d="M490.44,-64.25C482.32,-64.25 474.06,-64.25 465.98,-64.25"/>
<polygon fill="#63b8ff" stroke="#63b8ff" points="490.41,-67.75 500.41,-64.25 490.41,-60.75 490.41,-67.75"/>
</a>
</g>
</g>
<!-- Node7 -->
<g id="Node000007" class="node">
<title>Node7</title>
<g id="a_Node000007"><a xlink:href="../../df/dc1/class_slic3r_1_1_pressure_equalizer.html#a5a255c3a2a5660cb7a71c669fd4332cf" target="_top" xlink:title=" ">
<polygon fill="white" stroke="#666666" points="288.5,-79.5 162.25,-79.5 162.25,-49 288.5,-49 288.5,-79.5"/>
<text text-anchor="start" x="170.25" y="-66" font-family="Helvetica,sans-Serif" font-size="10.00">Slic3r::PressureEqualizer</text>
<text text-anchor="middle" x="225.38" y="-54.75" font-family="Helvetica,sans-Serif" font-size="10.00">::adjust_volumetric_rate</text>
</a>
</g>
</g>
<!-- Node6&#45;&gt;Node7 -->
<g id="edge7_Node000006_Node000007" class="edge">
<title>Node6&#45;&gt;Node7</title>
<g id="a_edge7_Node000006_Node000007"><a xlink:title=" ">
<path fill="none" stroke="#63b8ff" d="M313.58,-64.25C305.28,-64.25 296.94,-64.25 288.88,-64.25"/>
<polygon fill="#63b8ff" stroke="#63b8ff" points="313.44,-67.75 323.44,-64.25 313.44,-60.75 313.44,-67.75"/>
</a>
</g>
</g>
<!-- Node8 -->
<g id="Node000008" class="node">
<title>Node8</title>
<g id="a_Node000008"><a xlink:href="../../df/dc1/class_slic3r_1_1_pressure_equalizer.html#a892ffafabdf695569abb097c8c31c3f1" target="_top" xlink:title=" ">
<polygon fill="#fff0f0" stroke="red" points="126.25,-79.5 0,-79.5 0,-49 126.25,-49 126.25,-79.5"/>
<text text-anchor="start" x="8" y="-66" font-family="Helvetica,sans-Serif" font-size="10.00">Slic3r::PressureEqualizer</text>
<text text-anchor="middle" x="63.12" y="-54.75" font-family="Helvetica,sans-Serif" font-size="10.00">::process_line</text>
</a>
</g>
</g>
<!-- Node7&#45;&gt;Node8 -->
<g id="edge8_Node000007_Node000008" class="edge">
<title>Node7&#45;&gt;Node8</title>
<g id="a_edge8_Node000007_Node000008"><a xlink:title=" ">
<path fill="none" stroke="#63b8ff" d="M150.96,-64.25C142.83,-64.25 134.61,-64.25 126.63,-64.25"/>
<polygon fill="#63b8ff" stroke="#63b8ff" points="150.96,-67.75 160.96,-64.25 150.96,-60.75 150.96,-67.75"/>
</a>
</g>
</g>
</g>
</svg>
